<?xml version="1.0" encoding="UTF-8" standalone="no"?>
<!-- Created with Inkscape (http://www.inkscape.org/) -->

<svg
   xmlns:dc="http://purl.org/dc/elements/1.1/"
   xmlns:cc="http://creativecommons.org/ns#"
   xmlns:rdf="http://www.w3.org/1999/02/22-rdf-syntax-ns#"
   xmlns:svg="http://www.w3.org/2000/svg"
   xmlns="http://www.w3.org/2000/svg"
   xmlns:xlink="http://www.w3.org/1999/xlink"
   xmlns:sodipodi="http://sodipodi.sourceforge.net/DTD/sodipodi-0.dtd"
   xmlns:inkscape="http://www.inkscape.org/namespaces/inkscape"
   width="96"
   height="96"
   id="svg2"
   version="1.1"
   inkscape:version="0.48.5 r10040"
   sodipodi:docname="openofficeorg3-extension.svg">
  <script
     xlink:href=""
     id="script2985" />
  <defs
     id="defs4">
    <linearGradient
       inkscape:collect="always"
       xlink:href="#linearGradient4160"
       id="linearGradient4369"
       x1="2.5"
       y1="11.140625"
       x2="93.5"
       y2="11.140625"
       gradientUnits="userSpaceOnUse"
       gradientTransform="translate(-17.652364,-22.601697)" />
    <linearGradient
       id="linearGradient4160">
      <stop
         id="stop4170"
         offset="0"
         style="stop-color:#000000;stop-opacity:0;" />
      <stop
         style="stop-color:#000000;stop-opacity:0.96470588;"
         offset="0.03175623"
         id="stop4186" />
      <stop
         style="stop-color:#000000;stop-opacity:0;"
         offset="0.09425623"
         id="stop4182" />
      <stop
         style="stop-color:#000000;stop-opacity:0;"
         offset="0.49595019"
         id="stop4180" />
      <stop
         style="stop-color:#000000;stop-opacity:0;"
         offset="0.90525883"
         id="stop4178" />
      <stop
         id="stop4184"
         offset="0.96241152"
         style="stop-color:#000000;stop-opacity:0.98823529;" />
      <stop
         id="stop4168"
         offset="1"
         style="stop-color:#000000;stop-opacity:0;" />
    </linearGradient>
    <radialGradient
       inkscape:collect="always"
       xlink:href="#linearGradient4348"
       id="radialGradient4354"
       cx="47.699135"
       cy="55.411221"
       fx="47.699135"
       fy="55.411221"
       r="41.470058"
       gradientTransform="matrix(1.0772109,0,0,0.06481785,-21.162394,64.974669)"
       gradientUnits="userSpaceOnUse" />
    <linearGradient
       inkscape:collect="always"
       id="linearGradient4348">
      <stop
         style="stop-color:#000000;stop-opacity:1;"
         offset="0"
         id="stop4350" />
      <stop
         style="stop-color:#000000;stop-opacity:0;"
         offset="1"
         id="stop4352" />
    </linearGradient>
    <linearGradient
       gradientTransform="matrix(1.0000468,0,0,0.991319,-17.353732,9.636111)"
       inkscape:collect="always"
       xlink:href="#linearGradient13484"
       id="linearGradient13490"
       x1="47.056839"
       y1="22.252237"
       x2="48.640831"
       y2="22.252237"
       gradientUnits="userSpaceOnUse" />
    <linearGradient
       id="linearGradient13484">
      <stop
         style="stop-color:#849699;stop-opacity:1"
         offset="0"
         id="stop13486" />
      <stop
         style="stop-color:#0b0d0d;stop-opacity:0"
         offset="1"
         id="stop13488" />
    </linearGradient>
    <linearGradient
       inkscape:collect="always"
       xlink:href="#linearGradient4160"
       id="linearGradient4388"
       x1="2.5"
       y1="54.296875"
       x2="93.5"
       y2="54.296875"
       gradientUnits="userSpaceOnUse"
       gradientTransform="translate(-17.652364,-22.601697)" />
    <linearGradient
       id="linearGradient3564">
      <stop
         id="stop3566"
         offset="0"
         style="stop-color:#000000;stop-opacity:0;" />
      <stop
         style="stop-color:#000000;stop-opacity:0.96470588;"
         offset="0.03175623"
         id="stop3568" />
      <stop
         style="stop-color:#000000;stop-opacity:0;"
         offset="0.09425623"
         id="stop3570" />
      <stop
         style="stop-color:#000000;stop-opacity:0;"
         offset="0.49595019"
         id="stop3572" />
      <stop
         style="stop-color:#000000;stop-opacity:0;"
         offset="0.90525883"
         id="stop3574" />
      <stop
         id="stop3576"
         offset="0.96241152"
         style="stop-color:#000000;stop-opacity:0.98823529;" />
      <stop
         id="stop3578"
         offset="1"
         style="stop-color:#000000;stop-opacity:0;" />
    </linearGradient>
    <radialGradient
       inkscape:collect="always"
       xlink:href="#linearGradient13492"
       id="radialGradient13510"
       cx="34.164101"
       cy="10.81943"
       fx="34.164101"
       fy="10.81943"
       r="17.263121"
       gradientTransform="matrix(0.00664983,-1.4155821,1.7836413,0.00815867,-2.7114916,65.575076)"
       gradientUnits="userSpaceOnUse" />
    <linearGradient
       inkscape:collect="always"
       id="linearGradient13492">
      <stop
         style="stop-color:#516467;stop-opacity:1;"
         offset="0"
         id="stop13494" />
      <stop
         style="stop-color:#516467;stop-opacity:0;"
         offset="1"
         id="stop13496" />
    </linearGradient>
    <linearGradient
       inkscape:collect="always"
       xlink:href="#linearGradient4135"
       id="linearGradient4334"
       gradientUnits="userSpaceOnUse"
       gradientTransform="matrix(0.98921206,0,0,0.98706256,-17.134546,-9.704219)"
       spreadMethod="reflect"
       x1="53.8978"
       y1="-69.456512"
       x2="27.952002"
       y2="23.167999" />
    <linearGradient
       id="linearGradient4135">
      <stop
         style="stop-color:#e3e9e9;stop-opacity:1;"
         offset="0"
         id="stop4137" />
      <stop
         style="stop-color:#eef2f2;stop-opacity:1;"
         offset="0.21971546"
         id="stop4139" />
      <stop
         style="stop-color:#f9fbfb;stop-opacity:1;"
         offset="0.47877571"
         id="stop4141" />
      <stop
         style="stop-color:#ffffff;stop-opacity:1;"
         offset="1"
         id="stop4143" />
    </linearGradient>
    <radialGradient
       inkscape:collect="always"
       xlink:href="#linearGradient4050"
       id="radialGradient4056"
       cx="48"
       cy="-16.128"
       fx="48"
       fy="-16.128"
       r="44.543999"
       gradientTransform="matrix(1,0,0,0.04885057,-16.372364,-3.861835)"
       gradientUnits="userSpaceOnUse" />
    <linearGradient
       inkscape:collect="always"
       id="linearGradient4050">
      <stop
         style="stop-color:#ffffff;stop-opacity:1;"
         offset="0"
         id="stop4052" />
      <stop
         style="stop-color:#ffffff;stop-opacity:0;"
         offset="1"
         id="stop4054" />
    </linearGradient>
    <radialGradient
       inkscape:collect="always"
       xlink:href="#linearGradient4050"
       id="radialGradient4543"
       gradientUnits="userSpaceOnUse"
       gradientTransform="matrix(1,0,0,0.04885057,-16.372364,-3.861835)"
       cx="48"
       cy="-16.128"
       fx="48"
       fy="-16.128"
       r="44.543999" />
    <linearGradient
       inkscape:collect="always"
       xlink:href="#linearGradient4135"
       id="linearGradient4545"
       gradientUnits="userSpaceOnUse"
       gradientTransform="matrix(0.98921206,0,0,0.98706256,-17.134546,-9.704219)"
       spreadMethod="reflect"
       x1="53.8978"
       y1="-69.456512"
       x2="27.952002"
       y2="23.167999" />
    <radialGradient
       inkscape:collect="always"
       xlink:href="#linearGradient13492"
       id="radialGradient4547"
       gradientUnits="userSpaceOnUse"
       gradientTransform="matrix(0.00664983,-1.4155821,1.7836413,0.00815867,-2.7114916,65.575076)"
       cx="34.164101"
       cy="10.81943"
       fx="34.164101"
       fy="10.81943"
       r="17.263121" />
    <linearGradient
       inkscape:collect="always"
       xlink:href="#linearGradient4160"
       id="linearGradient4549"
       gradientUnits="userSpaceOnUse"
       gradientTransform="translate(-17.652364,-22.601697)"
       x1="2.5"
       y1="54.296875"
       x2="93.5"
       y2="54.296875" />
    <linearGradient
       inkscape:collect="always"
       xlink:href="#linearGradient13484"
       id="linearGradient4551"
       gradientUnits="userSpaceOnUse"
       gradientTransform="matrix(1.0000468,0,0,0.991319,-17.353732,9.636111)"
       x1="47.056839"
       y1="22.252237"
       x2="48.640831"
       y2="22.252237" />
    <radialGradient
       inkscape:collect="always"
       xlink:href="#linearGradient4348"
       id="radialGradient4553"
       gradientUnits="userSpaceOnUse"
       gradientTransform="matrix(1.0772109,0,0,0.06481785,-21.162394,64.974669)"
       cx="47.699135"
       cy="55.411221"
       fx="47.699135"
       fy="55.411221"
       r="41.470058" />
    <linearGradient
       inkscape:collect="always"
       xlink:href="#linearGradient4160"
       id="linearGradient4555"
       gradientUnits="userSpaceOnUse"
       gradientTransform="translate(-17.652364,-22.601697)"
       x1="2.5"
       y1="11.140625"
       x2="93.5"
       y2="11.140625" />
    <linearGradient
       x1="65.262688"
       y1="86.849419"
       x2="65.599998"
       y2="42.399998"
       id="linearGradient3849"
       xlink:href="#linearGradient3746"
       gradientUnits="userSpaceOnUse"
       gradientTransform="matrix(0.83333333,0,0,0.83333333,-8.6666651,-5.3333307)" />
    <linearGradient
       id="linearGradient3746">
      <stop
         id="stop3748"
         style="stop-color:#000000;stop-opacity:1"
         offset="0" />
      <stop
         id="stop3754"
         style="stop-color:#000000;stop-opacity:0"
         offset="1" />
    </linearGradient>
    <linearGradient
       x1="65.262688"
       y1="86.849419"
       x2="65.599998"
       y2="42.399998"
       id="linearGradient3864"
       xlink:href="#linearGradient3746"
       gradientUnits="userSpaceOnUse"
       gradientTransform="matrix(0.83333333,0,0,0.83333333,-8.6666651,-5.3333307)" />
    <linearGradient
       id="linearGradient3337">
      <stop
         id="stop3339"
         style="stop-color:#000000;stop-opacity:1"
         offset="0" />
      <stop
         id="stop3341"
         style="stop-color:#000000;stop-opacity:0"
         offset="1" />
    </linearGradient>
    <linearGradient
       x1="65.262688"
       y1="86.849419"
       x2="65.262688"
       y2="43.591393"
       id="linearGradient3861"
       xlink:href="#linearGradient3746"
       gradientUnits="userSpaceOnUse"
       gradientTransform="matrix(0.83333333,0,0,0.83333333,-8.6666651,-5.3333307)" />
    <linearGradient
       id="linearGradient3344">
      <stop
         id="stop3346"
         style="stop-color:#000000;stop-opacity:1"
         offset="0" />
      <stop
         id="stop3348"
         style="stop-color:#000000;stop-opacity:0"
         offset="1" />
    </linearGradient>
    <linearGradient
       x1="65.262688"
       y1="64.205269"
       x2="65.262688"
       y2="43.780487"
       id="linearGradient3858"
       xlink:href="#linearGradient3737-2"
       gradientUnits="userSpaceOnUse"
       gradientTransform="matrix(0.83333333,0,0,0.83333333,-8.6666651,-6.3333307)" />
    <linearGradient
       id="linearGradient3737-2">
      <stop
         id="stop3739-5"
         style="stop-color:#ffffff;stop-opacity:1"
         offset="0" />
      <stop
         id="stop3741-1"
         style="stop-color:#ffffff;stop-opacity:0"
         offset="1" />
    </linearGradient>
    <linearGradient
       x1="51.42857"
       y1="72.785713"
       x2="90.714287"
       y2="72.785713"
       id="linearGradient3188-6"
       xlink:href="#linearGradient3778"
       gradientUnits="userSpaceOnUse" />
    <linearGradient
       id="linearGradient3778">
      <stop
         id="stop3780"
         style="stop-color:#205e8a;stop-opacity:1;"
         offset="0" />
      <stop
         id="stop3782"
         style="stop-color:#258dd6;stop-opacity:1;"
         offset="1" />
    </linearGradient>
    <clipPath
       id="clipPath3794">
      <path
         d="m -98,6 c -3.324,0 -6,2.676 -6,6 l 0,72 c 0,3.324 2.676,6 6,6 l 72,0 c 3.324,0 6,-2.676 6,-6 l 0,-72 c 0,-3.324 -2.676,-6 -6,-6 l -72,0 z m 46.03125,12.5 c 2.804915,0.267979 4.168695,1.994294 5.65625,4.375 l 2.21875,4.21875 3.5,-2.34375 -6.5625,12.375 -14.0625,0.03125 4.40625,-2.5625 c -1.242015,-3.116045 -2.893578,-6.682146 -4.96875,-9.78125 -1.857877,-2.774583 -4.111923,-5.19971 -5.8125,-6.28125 L -51.96875,18.5 z M -72.3125,20 c 4.13398,0.08768 6.75215,3.937752 8.53125,6.5625 l -5.4375,11.15625 -12,-8.03125 5.8125,-9.09375 C -74.283247,20.148648 -73.266495,19.97977 -72.3125,20 z M -38.34375,36.15625 -32.875,48 c 0.177104,2.984596 -4.345754,7.126059 -7.15625,7.09375 l -4.8125,-0.03125 -5.59375,-11.125 12.09375,-7.78125 z M -78.4375,39.1875 -70.96875,50.8125 -74.75,48.84375 -80.78125,61.75 c -0.850549,2.429145 -0.908893,4.937462 0.0625,7.28125 -6.79777,-9.441049 -12.538331,-14.172415 -8,-23.875 L -87.3125,42.1875 -91.5,39.90625 -78.4375,39.1875 z m 25.65625,13.90625 0.03125,4.46875 13.5625,-0.03125 c 2.422356,-0.273241 4.555757,-1.310685 6.09375,-3.28125 -4.908571,10.685489 -6.315635,18.2454 -16.5,18.25 l -3.15625,0 -0.03125,5 -6.4375,-12.125 6.4375,-12.28125 z m -10.15625,4 -0.09375,15 -12.34375,0 c -2.589165,-1.162418 -4.061887,-7.337428 -2.78125,-10 l 2.1875,-4.53125 13.03125,-0.46875 z"
         inkscape:connector-curvature="0"
         id="path3796"
         style="fill:#ff00ff;fill-opacity:1;fill-rule:nonzero;stroke:none" />
    </clipPath>
    <filter
       color-interpolation-filters="sRGB"
       id="filter3798">
      <feGaussianBlur
         id="feGaussianBlur3800"
         stdDeviation="1.7644507" />
    </filter>
    <linearGradient
       x1="62.136082"
       y1="103.95654"
       x2="62.136082"
       y2="24.043467"
       id="linearGradient3759"
       xlink:href="#linearGradient4360"
       gradientUnits="userSpaceOnUse"
       gradientTransform="matrix(0.7525584,0,0,0.8008702,1.2389688,-3.2556953)" />
    <linearGradient
       id="linearGradient4360">
      <stop
         id="stop4362"
         style="stop-color:#1af900;stop-opacity:1;"
         offset="0" />
      <stop
         offset="0.5"
         style="stop-color:#0dbb02;stop-opacity:1;"
         id="stop4135" />
      <stop
         id="stop4364"
         style="stop-color:#007e04;stop-opacity:1;"
         offset="1" />
    </linearGradient>
    <radialGradient
       inkscape:collect="always"
       xlink:href="#linearGradient4360"
       id="radialGradient4137"
       cx="47.815025"
       cy="48"
       fx="47.815025"
       fy="48"
       r="29.315023"
       gradientTransform="matrix(1,0,0,1.0063099,0,-0.30287626)"
       gradientUnits="userSpaceOnUse" />
    <linearGradient
       x1="48"
       y1="64"
       x2="48"
       y2="24"
       id="linearGradient4142"
       xlink:href="#linearGradient3317"
       gradientUnits="userSpaceOnUse" />
    <linearGradient
       id="linearGradient3317">
      <stop
         id="stop3319"
         style="stop-color:#0082b3;stop-opacity:1;"
         offset="0" />
      <stop
         id="stop3321"
         style="stop-color:#0094d6;stop-opacity:1;"
         offset="1" />
    </linearGradient>
  </defs>
  <sodipodi:namedview
     id="base"
     pagecolor="#ffffff"
     bordercolor="#666666"
     borderopacity="1.0"
     inkscape:pageopacity="0.0"
     inkscape:pageshadow="2"
     inkscape:zoom="1.7729911"
     inkscape:cx="37.479499"
     inkscape:cy="31.717991"
     inkscape:current-layer="g4327"
     showgrid="true"
     inkscape:document-units="px"
     inkscape:grid-bbox="true"
     inkscape:showpageshadow="false"
     gridtolerance="1"
     guidetolerance="1"
     objecttolerance="1"
     inkscape:window-width="1030"
     inkscape:window-height="475"
     inkscape:window-x="1"
     inkscape:window-y="33"
     inkscape:window-maximized="0"
     showguides="true"
     inkscape:guide-bbox="true">
    <sodipodi:guide
       orientation="0,1"
       position="56.705677,69.026131"
       id="guide4181" />
  </sodipodi:namedview>
  <metadata
     id="metadata7">
    <rdf:RDF>
      <cc:Work
         rdf:about="">
        <dc:format>image/svg+xml</dc:format>
        <dc:type
           rdf:resource="http://purl.org/dc/dcmitype/StillImage" />
        <dc:title />
      </cc:Work>
    </rdf:RDF>
  </metadata>
  <g
     id="layer1"
     inkscape:label="Layer 1"
     inkscape:groupmode="layer"
     transform="translate(0,32)">
    <g
       id="g4327"
       transform="translate(17.652363,-9.3983002)">
      <rect
         transform="scale(1,-1)"
         ry="4.1290321"
         rx="4.1290321"
         y="-73.3983"
         x="-17.652363"
         height="96"
         width="96"
         id="rect4113"
         style="opacity:0.15;fill:#000000;fill-opacity:1;stroke:none" />
      <rect
         transform="scale(1,-1)"
         style="opacity:0.15;fill:#000000;fill-opacity:1;stroke:none"
         id="rect4129"
         width="94.5"
         height="94.5"
         x="-16.902363"
         y="-72.6483"
         rx="4.0645151"
         ry="4.0645151" />
      <rect
         transform="scale(1,-1)"
         ry="3.999999"
         rx="3.9999986"
         y="-71.8983"
         x="-16.152363"
         height="93"
         width="93"
         id="rect4131"
         style="opacity:0.15;fill:#000000;fill-opacity:1;stroke:none" />
      <rect
         ry="3.0576727"
         rx="3.9569874"
         y="-6.8256979"
         x="-12.916362"
         height="4.3519998"
         width="89.087997"
         id="rect4048"
         style="opacity:0.65090906;fill:url(#radialGradient4543);fill-opacity:1;stroke:none" />
      <path
         id="rect4080"
         d="m -11.527364,-20.414197 c -2.182681,0 -3.9375,1.754819 -3.9375,3.9375 l 0,12 c 0,-2.182681 1.754819,-3.9375 3.9375,-3.9375 l 83.75,0 c 2.182681,0 3.9375,1.754819 3.9375,3.9375 l 0,-12 c 0,-2.182681 -1.754819,-3.9375 -3.9375,-3.9375 l -83.75,0 z"
         style="opacity:0;fill:#000000;fill-opacity:1;stroke:none"
         inkscape:connector-curvature="0" />
      <rect
         ry="3.9057946"
         rx="3.9142997"
         y="-70.902092"
         x="-15.156122"
         height="90.809761"
         width="91.007515"
         id="rect4133"
         style="fill:url(#linearGradient4545);fill-opacity:1;stroke:#738589;stroke-width:0.99243301;stroke-miterlimit:4;stroke-opacity:1;stroke-dasharray:none"
         transform="scale(1,-1)" />
      <path
         id="path4058"
         d="m -11.229786,-20.105492 c -2.168501,0 -3.925898,1.761406 -3.925898,3.934855 l 0,3.965838 c 0,-2.173448 1.757397,-3.934854 3.925898,-3.934854 l 83.154841,0 c 2.168502,0 3.925898,1.761406 3.925898,3.934854 l 0,-3.965838 c 0,-2.173449 -1.757396,-3.934855 -3.925898,-3.934855 l -83.154841,0 z"
         style="fill:#e4e8e8;fill-opacity:1;stroke:#738589;stroke-width:0.99243301;stroke-miterlimit:4;stroke-opacity:1;stroke-dasharray:none"
         inkscape:connector-curvature="0" />
      <path
         inkscape:connector-curvature="0"
         style="fill:#e4e8e8;fill-opacity:1;stroke:#738589;stroke-width:0.99243301;stroke-miterlimit:4;stroke-opacity:1;stroke-dasharray:none"
         d="m -11.229786,-12.17466 c -2.168501,0 -3.925898,1.761407 -3.925898,3.934856 l 0,3.965839 c 0,-2.173449 1.757397,-3.934856 3.925898,-3.934856 l 83.154841,0 c 2.168502,0 3.925898,1.761407 3.925898,3.934856 l 0,-3.965839 c 0,-2.173449 -1.757396,-3.934856 -3.925898,-3.934856 l -83.154841,0 z"
         id="path4060" />
      <path
         id="path4062"
         d="m -11.229786,-16.140075 c -2.168501,0 -3.925898,1.761406 -3.925898,3.934854 l 0,3.965839 c 0,-2.173449 1.757397,-3.934855 3.925898,-3.934855 l 83.154841,0 c 2.168502,0 3.925898,1.761406 3.925898,3.934855 l 0,-3.965839 c 0,-2.173448 -1.757396,-3.934854 -3.925898,-3.934854 l -83.154841,0 z"
         style="fill:#e4e8e8;fill-opacity:1;stroke:#738589;stroke-width:0.99243301;stroke-miterlimit:4;stroke-opacity:1;stroke-dasharray:none"
         inkscape:connector-curvature="0" />
      <path
         id="rect4371"
         d="m -11.246114,-7.507947 c -2.168522,0 -3.90625,1.74244 -3.90625,3.90625 l 0,70.59375 c 0,2.16381 1.737728,3.90625 3.90625,3.90625 l 83.1875,0 c 2.168522,0 3.90625,-1.74244 3.90625,-3.90625 l 0,-70.59375 c 0,-2.16381 -1.737728,-3.90625 -3.90625,-3.90625 l -83.1875,0 z"
         style="opacity:0.27999998;fill:url(#linearGradient4549);fill-opacity:1;stroke:none"
         inkscape:connector-curvature="0" />
      <path
         inkscape:connector-curvature="0"
         id="path13457"
         d="m 29.705309,-7.507947 0,78.406249 42.145244,0 c 2.218947,0 3.997083,-1.742441 3.997083,-3.906251 l 0,-70.593748 c 0,-2.16381 -1.778136,-3.90625 -3.997083,-3.90625 l -42.145244,0 z"
         style="opacity:0.27999998;fill:url(#linearGradient4551);fill-opacity:1;stroke:none" />
      <rect
         y="65.878304"
         x="-14.452364"
         height="5.3759999"
         width="89.343994"
         id="rect4338"
         style="opacity:0.6;fill:url(#radialGradient4553);fill-opacity:1;stroke:none" />
      <path
         sodipodi:nodetypes="sscsscsss"
         inkscape:connector-curvature="0"
         id="rect4358"
         d="m -11.246114,-19.914197 c -2.168522,0 -3.90625,1.74244 -3.90625,3.90625 l 0,13 c 0,-2.16381 2.087258,-4.784629 4.255776,-4.780063 l 83.012737,0.174762 c 2.168517,0.00457 3.731487,2.441491 3.731487,4.605301 l 0,-13 c 0,-2.16381 -1.737728,-3.90625 -3.90625,-3.90625 z"
         style="opacity:0.25818182;fill:url(#linearGradient4555);fill-opacity:1;stroke:none" />
      <g
         style="display:inline"
         id="layer4"
         transform="translate(-20.390687,-7.9549662)">
        <path
           d="m 48.5,17 c -3.589851,0 -6.5,2.014719 -6.5,4.5 0.10443,0.9272 0.690589,2.098034 1,2.5 1.5,2 1.5,3.25 1.125,4 L 32,28 c -2.216,0 -4,1.784 -4,4 l 0,10.125 C 28.75,42.5 30,42.5 32,41 c 0.401966,-0.309411 1.5728,-0.89557 2.5,-1 2.485281,0 4.5,2.910149 4.5,6.5 C 39,50.089851 36.985281,53 34.5,53 33.737238,52.98708 32.577629,52.304895 32,52 30,50.5 28.75,50.5 28,50.875 L 28,64 c 0,2.216 1.784,4 4,4 l 16.125,0 C 48.5,67.25 48.5,66 47,64 46.690589,63.598034 46.10443,62.4272 46,61.5 46,59.014719 48.910149,57 52.5,57 c 3.589851,0 6.5,2.014719 6.5,4.5 -0.01292,0.762762 -0.695105,1.922371 -1,2.5 -1.5,2 -1.5,3.25 -1.125,4 L 64,68 c 2.216,0 4,-1.784 4,-4 L 68,52.875 C 68.75,52.5 70,52.5 72,54 c 0.577629,0.304895 1.737238,0.987081 2.5,1 2.485281,0 4.5,-2.910149 4.5,-6.5 0,-3.589851 -2.014719,-6.5 -4.5,-6.5 -0.9272,0.10443 -2.098034,0.690589 -2.5,1 -2,1.5 -3.25,1.5 -4,1.125 L 68,32 c 0,-2.216 -1.784,-4 -4,-4 L 52.875,28 C 52.5,27.25 52.5,26 54,24 54.304895,23.422371 54.987081,22.262762 55,21.5 55,19.014719 52.089851,17 48.5,17 z"
           inkscape:connector-curvature="0"
           id="rect4096"
           style="color:#000000;fill:url(#linearGradient4142);fill-opacity:1;fill-rule:nonzero;stroke:none;stroke-width:2;marker:none;visibility:visible;display:inline;overflow:visible;enable-background:accumulate" />
        <path
           d="m 48.5,17 c -3.589851,0 -6.5,2.014719 -6.5,4.5 0.10443,0.9272 0.690589,2.098034 1,2.5 1.5,2 1.5,3.25 1.125,4 L 32,28 c -2.216,0 -4,1.784 -4,4 l 0,10.125 C 28.75,42.5 30,42.5 32,41 c 0.401966,-0.309411 1.5728,-0.89557 2.5,-1 2.485281,0 4.5,2.910149 4.5,6.5 C 39,50.089851 36.985281,53 34.5,53 33.737238,52.98708 32.577629,52.304895 32,52 30,50.5 28.75,50.5 28,50.875 L 28,64 c 0,2.216 1.784,4 4,4 l 16.125,0 C 48.5,67.25 48.5,66 47,64 46.690589,63.598034 46.10443,62.4272 46,61.5 46,59.014719 48.910149,57 52.5,57 c 3.589851,0 6.5,2.014719 6.5,4.5 -0.01292,0.762762 -0.695105,1.922371 -1,2.5 -1.5,2 -1.5,3.25 -1.125,4 L 64,68 c 2.216,0 4,-1.784 4,-4 L 68,52.875 C 68.75,52.5 70,52.5 72,54 c 0.577629,0.304895 1.737238,0.987081 2.5,1 2.485281,0 4.5,-2.910149 4.5,-6.5 0,-3.589851 -2.014719,-6.5 -4.5,-6.5 -0.9272,0.10443 -2.098034,0.690589 -2.5,1 -2,1.5 -3.25,1.5 -4,1.125 L 68,32 c 0,-2.216 -1.784,-4 -4,-4 L 52.875,28 C 52.5,27.25 52.5,26 54,24 54.304895,23.422371 54.987081,22.262762 55,21.5 55,19.014719 52.089851,17 48.5,17 z m 0,1.9375 c 1.429906,0 2.705621,0.450045 3.5,1 0.779485,0.539643 1.052518,1.05682 1.0625,1.53125 0.0084,-0.01462 -6.02e-4,4.63e-4 0,0.03125 -0.02887,0.06517 -0.110883,0.265334 -0.21875,0.5 -0.16406,0.356913 -0.381236,0.750343 -0.5625,1.09375 l 0.03125,0 c -1.566515,2.215694 -1.921324,4.313602 -1.1875,5.78125 a 1.9513862,1.9513862 0 0 0 1.75,1.0625 l 11.125,0 c 1.16879,0 2.0625,0.89371 2.0625,2.0625 l 0,12.125 a 1.9513862,1.9513862 0 0 0 1.0625,1.75 c 1.525644,0.762822 3.719059,0.421643 6.03125,-1.3125 a 1.9513862,1.9513862 0 0 0 0.03125,-0.03125 c -0.09907,0.07626 1.045842,-0.465063 1.4375,-0.5625 0.451394,0.0417 0.932229,0.301414 1.4375,1.03125 0.549955,0.794379 1,2.070094 1,3.5 0,1.429906 -0.450045,2.705621 -1,3.5 -0.539643,0.779485 -1.05682,1.052518 -1.53125,1.0625 0.0092,1.56e-4 -0.03777,1.28e-4 -0.03125,0 -0.06517,-0.02887 -0.265334,-0.110883 -0.5,-0.21875 -0.356913,-0.16406 -0.750343,-0.381236 -1.09375,-0.5625 l 0,0.03125 C 70.690556,50.745985 68.592648,50.391176 67.125,51.125 a 1.9513862,1.9513862 0 0 0 -1.0625,1.75 l 0,11.125 c 0,1.16879 -0.89371,2.0625 -2.0625,2.0625 l -4.96875,0 c 0.145875,-0.277664 0.176852,-0.43372 0.53125,-0.90625 a 1.9513862,1.9513862 0 0 0 0.15625,-0.25 c 0.123632,-0.234223 0.399764,-0.723261 0.65625,-1.28125 0.256486,-0.557989 0.546475,-1.14767 0.5625,-2.09375 a 1.9513862,1.9513862 0 0 0 0,-0.03125 c 0,-2.004225 -1.160592,-3.702525 -2.71875,-4.78125 C 56.660592,55.640025 54.659945,55.0625 52.5,55.0625 c -2.159945,0 -4.160592,0.577525 -5.71875,1.65625 C 45.223092,57.797475 44.0625,59.495775 44.0625,61.5 a 1.9513862,1.9513862 0 0 0 0,0.21875 c 0.172727,1.53359 0.688039,2.536801 1.375,3.4375 0.0085,0.01116 0.02268,0.02012 0.03125,0.03125 0.330264,0.444852 0.360052,0.608619 0.5,0.875 L 32,66.0625 c -1.16879,0 -2.0625,-0.89371 -2.0625,-2.0625 l 0,-10.96875 c 0.277664,0.145875 0.43372,0.176852 0.90625,0.53125 a 1.9513862,1.9513862 0 0 0 0.25,0.15625 c 0.234223,0.123632 0.723261,0.399764 1.28125,0.65625 0.557989,0.256486 1.14767,0.546475 2.09375,0.5625 a 1.9513862,1.9513862 0 0 0 0.03125,0 c 2.004225,0 3.702525,-1.160592 4.78125,-2.71875 1.078725,-1.558158 1.65625,-3.558805 1.65625,-5.71875 0,-2.159945 -0.577525,-4.160592 -1.65625,-5.71875 C 38.202525,39.223092 36.504225,38.0625 34.5,38.0625 a 1.9513862,1.9513862 0 0 0 -0.21875,0 c -1.53359,0.172727 -2.536801,0.688039 -3.4375,1.375 -0.01116,0.0085 -0.02012,0.02268 -0.03125,0.03125 -0.444852,0.330264 -0.608619,0.360052 -0.875,0.5 l 0,-7.96875 c 0,-1.16879 0.89371,-2.0625 2.0625,-2.0625 l 12.125,0 a 1.9513862,1.9513862 0 0 0 1.75,-1.0625 c 0.762822,-1.525644 0.421643,-3.719059 -1.3125,-6.03125 A 1.9513862,1.9513862 0 0 0 44.53125,22.8125 c 0.07626,0.09907 -0.465063,-1.045842 -0.5625,-1.4375 0.0417,-0.451394 0.301414,-0.932229 1.03125,-1.4375 0.794379,-0.549955 2.070094,-1 3.5,-1 z"
           inkscape:connector-curvature="0"
           id="path4157"
           style="opacity:0.07999998;color:#000000;fill:#000000;fill-opacity:1;fill-rule:nonzero;stroke:none;stroke-width:2;marker:none;visibility:visible;display:inline;overflow:visible;enable-background:accumulate" />
        <path
           d="m 48.5,17 c -3.589851,0 -6.5,2.014719 -6.5,4.5 0.01239,0.110042 0.0378,0.228537 0.0625,0.34375 C 42.518417,19.667192 45.229733,18 48.5,18 c 3.270267,0 5.981583,1.667192 6.4375,3.84375 C 54.961708,21.726854 54.99823,21.604513 55,21.5 55,19.014719 52.089851,17 48.5,17 z M 44.28125,27.5625 C 44.244681,27.721241 44.189125,27.87175 44.125,28 L 32,28 c -2.216,0 -4,1.784 -4,4 l 0,1 c 0,-2.216 1.784,-4 4,-4 l 12.125,0 c 0.177885,-0.355769 0.267209,-0.83003 0.15625,-1.4375 z m 8.4375,0 C 52.607791,28.16997 52.697115,28.644231 52.875,29 L 64,29 c 2.216,0 4,1.784 4,4 l 0,-1 c 0,-2.216 -1.784,-4 -4,-4 L 52.875,28 C 52.81088,27.87175 52.755319,27.721241 52.71875,27.5625 z M 74.5,42 c -0.9272,0.10443 -2.098034,0.690589 -2.5,1 -2,1.5 -3.25,1.5 -4,1.125 l 0,1 C 68.75,45.5 70,45.5 72,44 c 0.401966,-0.309411 1.5728,-0.89557 2.5,-1 2.367009,0 4.28945,2.647411 4.46875,6 C 78.977709,48.832482 79,48.670837 79,48.5 79,44.910149 76.985281,42 74.5,42 z M 38.96875,47 C 38.78945,50.352589 36.867009,53 34.5,53 33.737238,52.98708 32.577629,52.304895 32,52 30,50.5 28.75,50.5 28,50.875 l 0,1 C 28.75,51.5 30,51.5 32,53 c 0.577629,0.304895 1.737238,0.98708 2.5,1 2.485281,0 4.5,-2.910149 4.5,-6.5 0,-0.170837 -0.02229,-0.332482 -0.03125,-0.5 z M 46.0625,61.84375 C 46.017946,62.056452 46,62.278749 46,62.5 c 0.10443,0.9272 0.690589,2.098034 1,2.5 0.788462,1.051282 1.158296,1.889357 1.28125,2.5625 C 48.458535,66.792931 48.2435,65.658 47,64 46.727311,63.64574 46.245895,62.699305 46.0625,61.84375 z m 12.875,0 C 58.785032,62.57999 58.263119,63.501517 58,64 56.7565,65.658 56.541465,66.792931 56.71875,67.5625 56.841704,66.889357 57.211538,66.051282 58,65 c 0.304895,-0.577629 0.98708,-1.737238 1,-2.5 0,-0.221251 -0.01795,-0.443548 -0.0625,-0.65625 z"
           inkscape:connector-curvature="0"
           id="path4144"
           style="opacity:0.3;color:#000000;fill:#000000;fill-opacity:1;fill-rule:nonzero;stroke:none;stroke-width:2;marker:none;visibility:visible;display:inline;overflow:visible;enable-background:accumulate" />
        <path
           d="m 48.5,17 c -3.589851,0 -6.5,2.014719 -6.5,4.5 0.10443,0.9272 0.690589,2.098034 1,2.5 1.5,2 1.5,3.25 1.125,4 L 32,28 c -2.216,0 -4,1.784 -4,4 l 0,10.125 C 28.75,42.5 30,42.5 32,41 c 0.401966,-0.309411 1.5728,-0.89557 2.5,-1 2.485281,0 4.5,2.910149 4.5,6.5 C 39,50.089851 36.985281,53 34.5,53 33.737238,52.98708 32.577629,52.304895 32,52 30,50.5 28.75,50.5 28,50.875 L 28,64 c 0,2.216 1.784,4 4,4 l 16.125,0 C 48.5,67.25 48.5,66 47,64 46.690589,63.598034 46.10443,62.4272 46,61.5 46,59.014719 48.910149,57 52.5,57 c 3.589851,0 6.5,2.014719 6.5,4.5 -0.01292,0.762762 -0.695105,1.922371 -1,2.5 -1.5,2 -1.5,3.25 -1.125,4 L 64,68 c 2.216,0 4,-1.784 4,-4 L 68,52.875 C 68.75,52.5 70,52.5 72,54 c 0.577629,0.304895 1.737238,0.987081 2.5,1 2.485281,0 4.5,-2.910149 4.5,-6.5 0,-3.589851 -2.014719,-6.5 -4.5,-6.5 -0.9272,0.10443 -2.098034,0.690589 -2.5,1 -2,1.5 -3.25,1.5 -4,1.125 L 68,32 c 0,-2.216 -1.784,-4 -4,-4 L 52.875,28 C 52.5,27.25 52.5,26 54,24 54.304895,23.422371 54.987081,22.262762 55,21.5 55,19.014719 52.089851,17 48.5,17 z m 0,1 c 1.60931,0 3.049175,0.445102 4.03125,1.125 0.970813,0.672101 1.457544,1.498761 1.46875,2.34375 1.3e-4,0.0098 0,0.02144 0,0.03125 -0.008,0.110426 -0.100188,0.512349 -0.28125,0.90625 -0.186773,0.406327 -0.426649,0.808425 -0.59375,1.125 l 0.03125,0 C 51.632795,25.625566 51.440121,27.317743 52,28.4375 A 0.99229518,0.99229518 0 0 0 52.875,29 L 64,29 c 1.683486,0 3,1.316514 3,3 l 0,12.125 A 0.99229518,0.99229518 0 0 0 67.5625,45 c 1.144421,0.57221 2.872499,0.400314 5.03125,-1.21875 0.139364,-0.107275 1.340953,-0.650461 1.96875,-0.75 0.831467,0.02538 1.650535,0.481328 2.3125,1.4375 C 77.554898,45.450825 78,46.89069 78,48.5 c 0,1.60931 -0.445102,3.049175 -1.125,4.03125 -0.672101,0.970813 -1.498761,1.457544 -2.34375,1.46875 -0.0029,-4.9e-5 -0.02777,2.54e-4 -0.03125,0 -0.110426,-0.008 -0.512349,-0.100188 -0.90625,-0.28125 -0.406327,-0.186773 -0.808425,-0.426649 -1.125,-0.59375 l 0,0.03125 C 70.374434,51.632795 68.682257,51.440121 67.5625,52 A 0.99229518,0.99229518 0 0 0 67,52.875 L 67,64 c 0,1.683486 -1.316514,3 -3,3 l -6.28125,0 c -0.02466,-0.462574 0.09554,-1.116969 1.0625,-2.40625 a 0.99229518,0.99229518 0 0 0 0.09375,-0.125 c 0.137794,-0.261054 0.391227,-0.741425 0.625,-1.25 0.233773,-0.508575 0.488676,-1.018965 0.5,-1.6875 A 0.99229518,0.99229518 0 0 0 60,61.5 c 0,-1.629912 -0.973288,-3.051218 -2.34375,-4 C 56.285788,56.551218 54.480541,56 52.5,56 50.519459,56 48.714212,56.551218 47.34375,57.5 45.973288,58.448782 45,59.870088 45,61.5 a 0.99229518,0.99229518 0 0 0 0,0.125 c 0.140248,1.245219 0.710744,2.308783 1.21875,2.96875 0.966961,1.289281 1.087156,1.943676 1.0625,2.40625 L 32,67 c -1.683486,0 -3,-1.316514 -3,-3 l 0,-12.28125 c 0.462574,-0.02466 1.116969,0.09554 2.40625,1.0625 a 0.99229518,0.99229518 0 0 0 0.125,0.09375 c 0.261054,0.137794 0.741425,0.391227 1.25,0.625 0.508575,0.233773 1.018965,0.488676 1.6875,0.5 A 0.99229518,0.99229518 0 0 0 34.5,54 c 1.629912,0 3.051218,-0.973288 4,-2.34375 C 39.448782,50.285788 40,48.480541 40,46.5 40,44.519459 39.448782,42.714212 38.5,41.34375 37.551218,39.973288 36.129912,39 34.5,39 a 0.99229518,0.99229518 0 0 0 -0.125,0 c -1.245219,0.140248 -2.308783,0.710744 -2.96875,1.21875 C 30.116969,41.185711 29.462574,41.305906 29,41.28125 L 29,32 c 0,-1.683486 1.316514,-3 3,-3 l 12.125,0 A 0.99229518,0.99229518 0 0 0 45,28.4375 c 0.57221,-1.144421 0.400314,-2.872499 -1.21875,-5.03125 -0.107275,-0.139364 -0.650461,-1.340953 -0.75,-1.96875 0.02538,-0.831467 0.481328,-1.650535 1.4375,-2.3125 C 45.450825,18.445102 46.89069,18 48.5,18 z"
           inkscape:connector-curvature="0"
           id="path4153"
           style="opacity:0.15;color:#000000;fill:#000000;fill-opacity:1;fill-rule:nonzero;stroke:none;stroke-width:2;marker:none;visibility:visible;display:inline;overflow:visible;enable-background:accumulate" />
        <path
           d="M 42.0625,21.84375 C 42.017946,22.056452 42,22.278749 42,22.5 c 0.10443,0.9272 0.690589,2.098034 1,2.5 0.788462,1.051282 1.158296,1.889357 1.28125,2.5625 C 44.458535,26.792931 44.2435,25.658 43,24 42.727311,23.64574 42.245895,22.699305 42.0625,21.84375 z m 12.875,0 C 54.785032,22.57999 54.263119,23.501517 54,24 52.7565,25.658 52.541465,26.792931 52.71875,27.5625 52.841704,26.889357 53.211538,26.051282 54,25 c 0.304895,-0.577629 0.987081,-1.737238 1,-2.5 0,-0.221251 -0.01795,-0.443548 -0.0625,-0.65625 z M 34.5,40 c -0.9272,0.10443 -2.098034,0.690589 -2.5,1 -2,1.5 -3.25,1.5 -4,1.125 l 0,1 C 28.75,43.5 30,43.5 32,42 c 0.401966,-0.309411 1.5728,-0.89557 2.5,-1 2.367009,0 4.28945,2.647411 4.46875,6 C 38.977709,46.832482 39,46.670837 39,46.5 39,42.910149 36.985281,40 34.5,40 z m 44.46875,9 C 78.78945,52.352589 76.867009,55 74.5,55 73.737238,54.987081 72.577629,54.304895 72,54 70,52.5 68.75,52.5 68,52.875 l 0,1 C 68.75,53.5 70,53.5 72,55 c 0.577629,0.304895 1.737238,0.987081 2.5,1 2.485281,0 4.5,-2.910149 4.5,-6.5 0,-0.170837 -0.02229,-0.332482 -0.03125,-0.5 z M 52.5,57 c -3.589851,0 -6.5,2.014719 -6.5,4.5 0.01239,0.110042 0.0378,0.228537 0.0625,0.34375 C 46.518417,59.667192 49.229733,58 52.5,58 c 3.270267,0 5.981583,1.667192 6.4375,3.84375 C 58.961708,61.726854 58.99823,61.604513 59,61.5 59,59.014719 56.089851,57 52.5,57 z m -24.5,7 0,1 c 0,2.216 1.784,4 4,4 l 16.125,0 c 0.177885,-0.355769 0.267209,-0.83003 0.15625,-1.4375 C 48.244681,67.721241 48.189125,67.87175 48.125,68 L 32,68 c -2.216,0 -4,-1.784 -4,-4 z m 40,0 c 0,2.216 -1.784,4 -4,4 l -7.125,0 C 56.810875,67.87175 56.755319,67.721241 56.71875,67.5625 56.607791,68.16997 56.697115,68.644231 56.875,69 L 64,69 c 2.216,0 4,-1.784 4,-4 l 0,-1 z"
           inkscape:connector-curvature="0"
           id="path4167"
           style="opacity:0.75;color:#000000;fill:#ffffff;fill-opacity:1;fill-rule:nonzero;stroke:none;stroke-width:2;marker:none;visibility:visible;display:inline;overflow:visible;enable-background:accumulate" />
      </g>
    </g>
  </g>
</svg>
