<?xml version="1.0" encoding="UTF-8" standalone="no"?>
<!-- Created with Inkscape (http://www.inkscape.org/) -->

<svg
   xmlns:dc="http://purl.org/dc/elements/1.1/"
   xmlns:cc="http://creativecommons.org/ns#"
   xmlns:rdf="http://www.w3.org/1999/02/22-rdf-syntax-ns#"
   xmlns:svg="http://www.w3.org/2000/svg"
   xmlns="http://www.w3.org/2000/svg"
   xmlns:xlink="http://www.w3.org/1999/xlink"
   xmlns:sodipodi="http://sodipodi.sourceforge.net/DTD/sodipodi-0.dtd"
   xmlns:inkscape="http://www.inkscape.org/namespaces/inkscape"
   width="96"
   height="96"
   viewBox="0 0 96.000001 96.000004"
   version="1.1"
   id="svg1072"
   inkscape:version="0.92.1 r15371"
   sodipodi:docname="applications-astronomy.svg">
  <defs
     id="defs1066">
    <linearGradient
       y2="47.000011"
       x2="90"
       y1="47.000011"
       x1="6"
       gradientTransform="matrix(1.1071428,0,0,1.1071426,-4.9939026,-3.620687)"
       gradientUnits="userSpaceOnUse"
       id="linearGradient4071"
       xlink:href="#linearGradient6139-0"
       inkscape:collect="always" />
    <linearGradient
       id="linearGradient6139-0">
      <stop
         style="stop-color:#b4b9ba;stop-opacity:1"
         offset="0"
         id="stop6141-2" />
      <stop
         id="stop6151-0"
         offset="0.25"
         style="stop-color:#ffffff;stop-opacity:1;" />
      <stop
         id="stop6147-1"
         offset="0.5"
         style="stop-color:#98a0a2;stop-opacity:1" />
      <stop
         style="stop-color:#f9fafb;stop-opacity:1;"
         offset="0.75"
         id="stop6149-4" />
      <stop
         style="stop-color:#b4b8ba;stop-opacity:1"
         offset="1"
         id="stop6143-4" />
    </linearGradient>
    <linearGradient
       gradientUnits="userSpaceOnUse"
       y2="88.171875"
       x2="94.5"
       y1="88.171875"
       x1="1.5"
       id="linearGradient4129"
       xlink:href="#linearGradient3832-0-6-1-1"
       inkscape:collect="always"
       gradientTransform="translate(0.1489535,0.415026)" />
    <linearGradient
       id="linearGradient3832-0-6-1-1">
      <stop
         id="stop3834-6-3-7-1"
         offset="0"
         style="stop-color:#000000;stop-opacity:1;" />
      <stop
         style="stop-color:#000000;stop-opacity:0.58823532;"
         offset="0.1"
         id="stop3872-2-4" />
      <stop
         id="stop3844-6-2-7-6"
         offset="0.89999998"
         style="stop-color:#000000;stop-opacity:0.58823532;" />
      <stop
         id="stop3836-5-0-2-9"
         offset="1"
         style="stop-color:#000000;stop-opacity:1;" />
    </linearGradient>
    <radialGradient
       r="43.199203"
       fy="44.892841"
       fx="13.948145"
       cy="44.892841"
       cx="13.948145"
       gradientTransform="matrix(0.97513378,0,0,0.04919072,34.047649,80.581722)"
       gradientUnits="userSpaceOnUse"
       id="radialGradient7462"
       xlink:href="#linearGradient3737"
       inkscape:collect="always" />
    <linearGradient
       id="linearGradient3737">
      <stop
         id="stop3739"
         style="stop-color:#ffffff;stop-opacity:1"
         offset="0" />
      <stop
         id="stop3741"
         style="stop-color:#ffffff;stop-opacity:0"
         offset="1" />
    </linearGradient>
    <radialGradient
       r="43.199203"
       fy="44.892841"
       fx="13.948145"
       cy="44.892841"
       cx="13.948145"
       gradientTransform="matrix(0.88832663,0,0,0.04919072,31.959518,-90.31726)"
       gradientUnits="userSpaceOnUse"
       id="radialGradient7464"
       xlink:href="#linearGradient3737"
       inkscape:collect="always" />
    <linearGradient
       y2="14.514202"
       x2="50.527882"
       y1="-28.64156"
       x1="2.7713892"
       gradientUnits="userSpaceOnUse"
       id="linearGradient4767"
       xlink:href="#linearGradient3737"
       inkscape:collect="always" />
    <clipPath
       clipPathUnits="userSpaceOnUse"
       id="clipPath4156-4-1">
      <path
         style="opacity:0.6;fill:#ffffff;fill-opacity:1;stroke:none"
         d="m 27.046336,-55.695463 -14.21366,13.321486 h 0.06127 l 15.653407,21.770763 10.231384,-10.546177 C 38.561832,-32.30156 27.468089,-54.819245 27.046336,-55.695463 Z M 9.6468554,-39.382809 -5.2407289,-25.32124 15.987863,-7.8059573 26.372412,-18.382966 Z m 31.4906096,12.951445 -9.741259,9.713584 8.944804,12.4580526 7.780753,-7.5550056 z m -49.8397109,4.378822 -13.7541661,12.9822847 26.2830181,13.84571 0.06127,-0.0617 -0.122531,-0.0617 L 13.598503,-5.4007374 -8.7022409,-22.052595 Z m 38.0154159,7.400825 -9.802525,9.7752596 11.579232,9.5594001 7.62759,-7.40083 -8.669108,-11.0087257 z m 20.187073,5.6739697 -7.382526,7.2158 6.187844,8.54179 5.820249,-6.13651996 z m -32.195166,6.32154 -9.5574606,9.49772 13.6622686,7.1849703 7.933918,-7.6783603 z m 23.311629,2.37443004 -7.10683,6.93826996 8.362778,6.9074403 5.360756,-5.6739699 -0.06127,-0.0925 -0.0919,0.12335 -6.463539,-8.20258036 z m -8.730374,8.54178036 -7.505057,7.3391599 10.353916,5.45811 c 1.397496,-1.32103 5.67514,-6.12292 5.850882,-6.32154 z"
         id="path4158-0-8"
         inkscape:connector-curvature="0" />
    </clipPath>
    <radialGradient
       inkscape:collect="always"
       xlink:href="#linearGradient4519"
       id="radialGradient5037"
       gradientUnits="userSpaceOnUse"
       gradientTransform="matrix(1.0666281,-4.4233427e-8,4.4760931e-8,1.0793482,-17.622683,5.668591)"
       cx="52.148148"
       cy="43.851852"
       fx="52.148148"
       fy="43.851852"
       r="32" />
    <linearGradient
       id="linearGradient4519">
      <stop
         id="stop4521"
         style="stop-color:#e4bc7a;stop-opacity:1;"
         offset="0" />
      <stop
         id="stop4523"
         style="stop-color:#342a1b;stop-opacity:1;"
         offset="1" />
    </linearGradient>
    <linearGradient
       inkscape:collect="always"
       xlink:href="#linearGradient3812-3"
       id="linearGradient5039"
       gradientUnits="userSpaceOnUse"
       gradientTransform="rotate(90,48,43.000004)"
       x1="21"
       y1="43.000004"
       x2="75"
       y2="43.000004" />
    <linearGradient
       id="linearGradient3812-3">
      <stop
         offset="0"
         style="stop-color:#a49265;stop-opacity:1"
         id="stop3814-7" />
      <stop
         offset="1"
         style="stop-color:#ece8df;stop-opacity:1"
         id="stop3816-2" />
    </linearGradient>
    <filter
       style="color-interpolation-filters:sRGB"
       id="filter4057-4">
      <feGaussianBlur
         stdDeviation="0.4121875"
         id="feGaussianBlur4059-9" />
    </filter>
    <filter
       style="color-interpolation-filters:sRGB"
       id="filter4082-7">
      <feGaussianBlur
         stdDeviation="0.3846875"
         id="feGaussianBlur4084-2" />
    </filter>
    <linearGradient
       inkscape:collect="always"
       xlink:href="#linearGradient3737"
       id="linearGradient5043"
       gradientUnits="userSpaceOnUse"
       x1="64.995598"
       y1="-0.90906203"
       x2="64.995598"
       y2="55.535763"
       gradientTransform="matrix(0.58747152,0,0,0.37002308,10.401824,18.73364)" />
    <linearGradient
       inkscape:collect="always"
       xlink:href="#linearGradient3814-9"
       id="linearGradient5047"
       gradientUnits="userSpaceOnUse"
       gradientTransform="matrix(1.4342939,0,0,0.79130347,-15.283509,14.536669)"
       x1="35.83757"
       y1="56.923836"
       x2="35.83757"
       y2="89.995026" />
    <linearGradient
       id="linearGradient3814-9">
      <stop
         offset="0"
         style="stop-color:#e2e1ed;stop-opacity:1"
         id="stop3816-9" />
      <stop
         offset="1"
         style="stop-color:#e2e1ed;stop-opacity:0"
         id="stop3818-8" />
    </linearGradient>
    <linearGradient
       inkscape:collect="always"
       xlink:href="#linearGradient3814-9"
       id="linearGradient900"
       gradientUnits="userSpaceOnUse"
       gradientTransform="matrix(-0.95703547,0,0,0.95703547,105.26701,-41.869542)"
       x1="35.83757"
       y1="56.923836"
       x2="35.83757"
       y2="89.995026" />
  </defs>
  <sodipodi:namedview
     id="base"
     pagecolor="#ffffff"
     bordercolor="#666666"
     borderopacity="1.0"
     inkscape:pageopacity="0.0"
     inkscape:pageshadow="2"
     inkscape:zoom="2.21934"
     inkscape:cx="-63.805271"
     inkscape:cy="44.557005"
     inkscape:document-units="px"
     inkscape:current-layer="g2574"
     showgrid="false"
     inkscape:showpageshadow="false"
     units="px"
     inkscape:lockguides="false"
     inkscape:window-width="1280"
     inkscape:window-height="972"
     inkscape:window-x="0"
     inkscape:window-y="26"
     inkscape:window-maximized="1" />
  <metadata
     id="metadata1069">
    <rdf:RDF>
      <cc:Work
         rdf:about="">
        <dc:format>image/svg+xml</dc:format>
        <dc:type
           rdf:resource="http://purl.org/dc/dcmitype/StillImage" />
        <dc:title></dc:title>
        <dc:date>2017</dc:date>
        <dc:creator>
          <cc:Agent>
            <dc:title>Cristian Pozzessere &quot;ilnanny&quot;</dc:title>
          </cc:Agent>
        </dc:creator>
        <dc:subject>
          <rdf:Bag>
            <rdf:li>Global language</rdf:li>
          </rdf:Bag>
        </dc:subject>
        <dc:description>Playing with Inkscape on Gnu/Linux O. S.</dc:description>
        <dc:contributor>
          <cc:Agent>
            <dc:title>In the night, alone like a dog.</dc:title>
          </cc:Agent>
        </dc:contributor>
        <cc:license
           rdf:resource="http://creativecommons.org/licenses/by-sa/4.0/" />
      </cc:Work>
      <cc:License
         rdf:about="http://creativecommons.org/licenses/by-sa/4.0/">
        <cc:permits
           rdf:resource="http://creativecommons.org/ns#Reproduction" />
        <cc:permits
           rdf:resource="http://creativecommons.org/ns#Distribution" />
        <cc:requires
           rdf:resource="http://creativecommons.org/ns#Notice" />
        <cc:requires
           rdf:resource="http://creativecommons.org/ns#Attribution" />
        <cc:permits
           rdf:resource="http://creativecommons.org/ns#DerivativeWorks" />
        <cc:requires
           rdf:resource="http://creativecommons.org/ns#ShareAlike" />
      </cc:License>
    </rdf:RDF>
  </metadata>
  <g
     inkscape:label="Livello 1"
     inkscape:groupmode="layer"
     id="layer1"
     transform="translate(0,-1026.5197)">
    <g
       transform="translate(-0.14895645,1026.1047)"
       style="display:inline"
       id="g2574">
      <path
         inkscape:connector-curvature="0"
         id="path3288"
         d="M 89.29181,0.415026 H 7.0060911 c -3.798848,0 -6.8571352,3.058285 -6.8571352,6.8571399 V 89.557884 c 0,3.798857 3.0582872,6.857142 6.8571352,6.857142 H 89.29181 c 3.798857,0 6.857147,-3.058285 6.857147,-6.857142 V 7.2721659 c 0,-3.7988549 -3.05829,-6.8571399 -6.857147,-6.8571399 z"
         style="display:inline;opacity:0.15;fill:#000000;fill-opacity:1;fill-rule:nonzero;stroke:none" />
      <path
         style="display:inline;opacity:0.15;fill:#000000;fill-opacity:1;fill-rule:nonzero;stroke:none"
         d="M 88.648954,1.165026 H 7.6489471 c -3.739492,0 -6.749993,3.010499 -6.749993,6.7499969 V 88.915026 c 0,3.739501 3.010501,6.75 6.749993,6.75 H 88.648954 c 3.739503,0 6.750003,-3.010499 6.750003,-6.75 V 7.9150229 c 0,-3.7394979 -3.0105,-6.7499969 -6.750003,-6.7499969 z"
         id="path4085"
         inkscape:connector-curvature="0" />
      <path
         inkscape:connector-curvature="0"
         id="rect4251-1"
         d="M 88.006093,1.915026 H 8.2918111 c -3.680143,0 -6.6428566,2.962713 -6.6428566,6.6428549 V 88.272171 c 0,3.680142 2.9627136,6.642856 6.6428566,6.642856 H 88.006093 c 3.680143,0 6.642854,-2.962714 6.642854,-6.642856 V 8.5578809 c 0,-3.6801419 -2.962711,-6.6428549 -6.642854,-6.6428549 z"
         style="display:inline;fill:url(#linearGradient4071);fill-opacity:1;fill-rule:nonzero;stroke:none" />
      <path
         sodipodi:nodetypes="sscccsccscccsss"
         inkscape:connector-curvature="0"
         id="path3400-6"
         d="m 11.390247,6.8021682 c -2.8564964,0 -5.1241284,2.3146876 -5.1241284,5.2304538 v 21.67369 7.322634 40.372561 c 1.0972399,1.70385 2.9688485,2.844058 5.1241284,2.844058 h 4.099303 65.588849 4.099302 c 2.155281,0 4.026889,-1.140208 5.124129,-2.844058 V 41.028946 33.706312 12.032622 c 0,-2.9157662 -2.267632,-5.2304538 -5.124129,-5.2304538 z"
         style="display:inline;opacity:0.77864583;fill:#3082dd;fill-opacity:1;fill-rule:nonzero;stroke:none;stroke-width:1.03540373" />
      <path
         sodipodi:nodetypes="ccscsscscssscsscscscscsssccscscscssccscc"
         d="m 76.077433,9.152418 c 0.909612,0 1.749921,0.29246 2.422496,0.77759 0.555124,-0.0856 1.125644,-0.14954 1.704724,-0.14954 2.53015,0 4.83342,0.87621 6.69924,2.30287 0.21552,-0.0341 0.43227,-0.0598 0.65797,-0.0598 2.21316,0 4.00758,1.69572 4.00758,3.79823 0,0.78844 -0.25578,1.51584 -0.68787,2.12343 0.25648,0.93568 0.3888,1.91382 0.3888,2.93092 0,1.02735 -0.1273,2.01672 -0.3888,2.96083 0.59329,-0.26703 1.25116,-0.4187 1.94398,-0.4187 2.61892,0 -1.132237,2.10644 -1.132237,4.72536 0,2.61892 3.751157,4.75527 1.132237,4.75527 -0.35039,0 -0.68811,-0.0475 -1.01685,-0.11963 6.1e-4,0.0395 0,0.08 0,0.11963 0,4.13125 -3.34559,7.47684 -7.47684,7.47684 -2.66626,0 -4.98583,-1.39925 -6.310452,-3.49916 -1.953398,1.76187 -4.549396,2.8412 -7.387118,2.8412 -3.842494,0 -7.209332,-1.98302 -9.181559,-4.96462 -1.238561,0.92942 -2.75859,1.49536 -4.426289,1.49536 -2.607897,0 -4.899234,-1.37364 -6.22073,-3.40943 -0.663386,0.53226 -1.475891,0.86731 -2.392589,0.86731 -1.253038,0 -2.372404,-0.60246 -3.080458,-1.52528 -0.308809,0.1945 -0.684749,0.32898 -1.076665,0.32898 -1.106584,0 -2.003793,-0.89721 -2.003793,-2.00379 0,-1.10658 0.897209,-2.00379 2.003793,-2.00379 0.172904,0 0.348375,0.0186 0.508425,0.0598 0.485534,-1.39348 1.741606,-2.41784 3.259902,-2.57203 0.08253,-1.29015 1.141421,-2.30287 2.452404,-2.30287 0.364818,0 0.705157,0.0674 1.01685,0.20935 1.357403,-1.51545 3.338246,-2.48231 5.532861,-2.48231 0.980437,0 1.894875,0.19262 2.751477,0.53833 0.214623,-2.27145 2.128581,-4.0674 4.456197,-4.0674 0.268139,0 0.522429,0.0445 0.777591,0.0897 -0.03069,-0.20831 -0.05982,-0.41121 -0.05982,-0.62805 0,-2.3976 1.968876,-4.33657 4.366475,-4.33657 0.899099,0 1.72963,0.24969 2.422496,0.71778 0.119301,-0.14124 0.232783,-0.28364 0.358888,-0.41871 -0.0116,-0.11797 -0.02991,-0.23803 -0.02991,-0.35889 0,-2.1025 1.794417,-3.79823 4.007586,-3.79823 z"
         inkscape:connector-curvature="0"
         id="path898"
         style="color:#000000;display:inline;overflow:visible;visibility:visible;fill:url(#linearGradient900);fill-opacity:1;fill-rule:nonzero;stroke:none;stroke-width:1.43555319;marker:none;enable-background:accumulate" />
      <g
         id="g1016"
         transform="matrix(0.95703547,0,0,0.95703547,2.2112553,7.262471)">
        <path
           style="color:#000000;display:inline;overflow:visible;visibility:visible;fill:url(#radialGradient5037);fill-opacity:1;fill-rule:nonzero;stroke:none;stroke-width:1.265625;marker:none;enable-background:accumulate"
           id="path3695"
           d="m 74.999999,43.000004 a 27.000001,27.000001 0 1 1 -54.000002,0 27.000001,27.000001 0 1 1 54.000002,0 z"
           inkscape:connector-curvature="0" />
        <path
           style="color:#000000;display:inline;overflow:visible;visibility:visible;opacity:0.6;fill:url(#linearGradient5039);fill-opacity:1;fill-rule:nonzero;stroke:none;stroke-width:1.5;marker:none;enable-background:accumulate"
           id="path3695-8"
           inkscape:connector-curvature="0"
           d="m 75,43.000004 c 0,-14.911689 -12.088311,-27 -27,-27 -14.911689,0 -27,12.088311 -27,27 0,14.911689 12.088311,27 27,27 14.911689,0 27,-12.088311 27,-27 z m -1,0 c 0,14.359403 -11.640597,26 -26,26 -14.359403,0 -26,-11.640597 -26,-26 0,-14.359403 11.640597,-26 26,-26 14.359403,0 26,11.640597 26,26 z" />
        <path
           style="color:#000000;display:inline;overflow:visible;visibility:visible;opacity:0.4;fill:#a18a56;fill-opacity:1;fill-rule:nonzero;stroke:none;stroke-width:1.5;marker:none;filter:url(#filter4057-4);enable-background:accumulate"
           id="path3986"
           inkscape:connector-curvature="0"
           d="m 62.25,24.09375 c -0.762098,0 -1.375,0.612902 -1.375,1.375 0,0.762098 0.612902,1.375 1.375,1.375 0.762098,0 1.375,-0.612902 1.375,-1.375 0,-0.762098 -0.612902,-1.375 -1.375,-1.375 z m -20.40625,1.625 c -0.628797,0.128671 -1.09375,0.708164 -1.09375,1.375 0,0.762098 0.612902,1.375 1.375,1.375 0.762098,0 1.375,-0.612902 1.375,-1.375 0,-0.762098 -0.612902,-1.375 -1.375,-1.375 -0.09526,0 -0.191422,-0.01838 -0.28125,0 z M 31.90625,25.875 C 31.413128,25.875 31,26.256878 31,26.75 c 0,0.493122 0.413128,0.90625 0.90625,0.90625 0.493122,0 0.875,-0.413128 0.875,-0.90625 0,-0.493122 -0.381878,-0.875 -0.875,-0.875 z m 28,2.59375 c -0.806927,0 -1.46875,0.661823 -1.46875,1.46875 0,0.806927 0.661823,1.4375 1.46875,1.4375 0.806927,0 1.46875,-0.630573 1.46875,-1.4375 0,-0.806927 -0.661823,-1.46875 -1.46875,-1.46875 z m -3.96875,2.75 c -0.403464,0 -0.75,0.346536 -0.75,0.75 0,0.403464 0.346536,0.71875 0.75,0.71875 0.403464,0 0.71875,-0.315286 0.71875,-0.71875 0,-0.403464 -0.315286,-0.75 -0.71875,-0.75 z M 45.875,31.375 c -0.403464,0 -0.75,0.346536 -0.75,0.75 0,0.403464 0.346536,0.71875 0.75,0.71875 0.403464,0 0.71875,-0.315286 0.71875,-0.71875 0,-0.403464 -0.315286,-0.75 -0.71875,-0.75 z m -15.4375,0.5 c -1.031074,0 -1.875,0.843926 -1.875,1.875 0,1.031074 0.843926,1.84375 1.875,1.84375 1.031074,0 1.875,-0.812676 1.875,-1.84375 0,-1.031074 -0.843926,-1.875 -1.875,-1.875 z m 38,4.875 c -0.582781,0 -1.0625,0.479719 -1.0625,1.0625 0,0.582781 0.479719,1.03125 1.0625,1.03125 0.582781,0 1.03125,-0.448469 1.03125,-1.03125 0,-0.582781 -0.448469,-1.0625 -1.03125,-1.0625 z M 37.34375,39.5 c -0.62761,0 -1.15625,0.52864 -1.15625,1.15625 0,0.62761 0.52864,1.125 1.15625,1.125 0.62761,0 1.125,-0.49739 1.125,-1.125 0,-0.62761 -0.49739,-1.15625 -1.125,-1.15625 z m 26.375,0.65625 c -0.851757,0 -1.53125,0.679493 -1.53125,1.53125 0,0.851757 0.679493,1.5625 1.53125,1.5625 0.851757,0 1.53125,-0.710743 1.53125,-1.5625 0,-0.851757 -0.679493,-1.53125 -1.53125,-1.53125 z m -34.6875,3.25 c -0.435212,0 -0.78125,0.199774 -0.78125,0.46875 0,0.268976 0.346038,0.5 0.78125,0.5 0.435212,0 0.78125,-0.231024 0.78125,-0.5 0,-0.268976 -0.346038,-0.46875 -0.78125,-0.46875 z m 9.59375,2.75 c -0.717269,0 -1.28125,0.595231 -1.28125,1.3125 0,0.717269 0.563981,1.28125 1.28125,1.28125 0.717269,0 1.3125,-0.563981 1.3125,-1.28125 0,-0.717269 -0.595231,-1.3125 -1.3125,-1.3125 z M 28.5,47.9375 c -0.493122,0 -0.90625,0.413128 -0.90625,0.90625 0,0.493122 0.413128,0.875 0.90625,0.875 0.493122,0 0.875,-0.381878 0.875,-0.875 0,-0.493122 -0.381878,-0.90625 -0.875,-0.90625 z m 29.375,0 c -0.493122,0 -0.90625,0.413128 -0.90625,0.90625 0,0.493122 0.413128,0.875 0.90625,0.875 0.493122,0 0.90625,-0.381878 0.90625,-0.875 0,-0.493122 -0.413128,-0.90625 -0.90625,-0.90625 z m -4.3125,0.5 c -0.806927,0 -1.4375,0.661823 -1.4375,1.46875 0,0.806927 0.630573,1.4375 1.4375,1.4375 0.806927,0 1.46875,-0.630573 1.46875,-1.4375 0,-0.806927 -0.661823,-1.46875 -1.46875,-1.46875 z m 4.0625,6.15625 c -0.448293,0 -0.8125,0.364207 -0.8125,0.8125 0,0.448293 0.364207,0.8125 0.8125,0.8125 0.448293,0 0.8125,-0.364207 0.8125,-0.8125 0,-0.448293 -0.364207,-0.8125 -0.8125,-0.8125 z M 29.78125,55.25 c -0.851757,0 -1.53125,0.679493 -1.53125,1.53125 0,0.851757 0.679493,1.5625 1.53125,1.5625 0.851757,0 1.5625,-0.710743 1.5625,-1.5625 0,-0.851757 -0.710743,-1.53125 -1.5625,-1.53125 z m 5.375,3.09375 c -0.403464,0 -0.75,0.315286 -0.75,0.71875 0,0.403464 0.346536,0.75 0.75,0.75 0.403464,0 0.71875,-0.346536 0.71875,-0.75 0,-0.403464 -0.315286,-0.71875 -0.71875,-0.71875 z m 17.6875,3.875 c -0.672439,0 -1.21875,0.546311 -1.21875,1.21875 0,0.672439 0.546311,1.21875 1.21875,1.21875 0.672439,0 1.21875,-0.546311 1.21875,-1.21875 0,-0.672439 -0.546311,-1.21875 -1.21875,-1.21875 z" />
        <path
           style="color:#000000;display:inline;overflow:visible;visibility:visible;opacity:0.5;fill:#ffffff;fill-opacity:1;fill-rule:nonzero;stroke:none;stroke-width:1.5;marker:none;filter:url(#filter4082-7);enable-background:accumulate"
           id="path4061"
           inkscape:connector-curvature="0"
           d="m 57.46875,28.46875 c -0.537952,0 -0.96875,0.430798 -0.96875,0.96875 0,0.537952 0.430798,0.96875 0.96875,0.96875 0.537952,0 0.96875,-0.430798 0.96875,-0.96875 0,-0.537952 -0.430798,-0.96875 -0.96875,-0.96875 z M 42.4375,36.25 c -1.210391,0 -2.1875,0.977109 -2.1875,2.1875 0,1.210391 0.977109,2.21875 2.1875,2.21875 1.210391,0 2.21875,-1.008359 2.21875,-2.21875 0,-1.210391 -1.008359,-2.1875 -2.21875,-2.1875 z M 34.5,36.75 c -0.582781,0 -1.0625,0.479719 -1.0625,1.0625 0,0.582781 0.479719,1.03125 1.0625,1.03125 0.582781,0 1.0625,-0.448469 1.0625,-1.03125 0,-0.582781 -0.479719,-1.0625 -1.0625,-1.0625 z m -10.40625,3.09375 c -1.031074,0 -1.84375,0.812676 -1.84375,1.84375 0,1.031074 0.812676,1.875 1.84375,1.875 1.031074,0 1.875,-0.843926 1.875,-1.875 0,-1.031074 -0.843926,-1.84375 -1.875,-1.84375 z M 24.75,45.1875 c -0.672439,0 -1.21875,0.546311 -1.21875,1.21875 0,0.672439 0.546311,1.21875 1.21875,1.21875 0.672439,0 1.21875,-0.546311 1.21875,-1.21875 0,-0.672439 -0.546311,-1.21875 -1.21875,-1.21875 z m 30.4375,0.15625 c -0.537952,0 -0.96875,0.430798 -0.96875,0.96875 0,0.537952 0.430798,1 0.96875,1 0.537952,0 0.96875,-0.462048 0.96875,-1 0,-0.537952 -0.430798,-0.96875 -0.96875,-0.96875 z m -5.84375,7 c -0.806927,0 -1.4375,0.630573 -1.4375,1.4375 0,0.806927 0.630573,1.46875 1.4375,1.46875 0.806927,0 1.46875,-0.661823 1.46875,-1.46875 0,-0.806927 -0.661823,-1.4375 -1.46875,-1.4375 z m -3.96875,6.8125 c -1.389708,0 -2.53125,1.110292 -2.53125,2.5 0,1.389708 1.141542,2.53125 2.53125,2.53125 1.389708,0 2.53125,-1.141542 2.53125,-2.53125 0,-1.389708 -1.141542,-2.5 -2.53125,-2.5 z m 15.5,0.46875 c -0.806927,0 -1.46875,0.661823 -1.46875,1.46875 0,0.806927 0.661823,1.46875 1.46875,1.46875 0.806927,0 1.46875,-0.661823 1.46875,-1.46875 0,-0.806927 -0.661823,-1.46875 -1.46875,-1.46875 z m -21.09375,1.78125 c -1.075903,0 -1.96875,0.892847 -1.96875,1.96875 0,1.075903 0.892847,1.9375 1.96875,1.9375 1.075903,0 1.9375,-0.861597 1.9375,-1.9375 0,-1.075903 -0.861597,-1.96875 -1.9375,-1.96875 z" />
        <path
           style="color:#000000;display:inline;overflow:visible;visibility:visible;opacity:0.5;fill:url(#linearGradient5043);fill-opacity:1;fill-rule:nonzero;stroke:none;stroke-width:0.69935721;marker:none;enable-background:accumulate"
           id="path4086"
           d="m 66.79909,30.574379 a 18.799089,11.840739 0 1 1 -37.598177,0 18.799089,11.840739 0 1 1 37.598177,0 z"
           inkscape:connector-curvature="0" />
      </g>
      <path
         style="color:#000000;display:inline;overflow:visible;visibility:visible;fill:url(#linearGradient5047);fill-opacity:1;fill-rule:nonzero;stroke:none;stroke-width:1.59801877;marker:none;enable-background:accumulate"
         id="path3739"
         inkscape:connector-curvature="0"
         d="m 28.462452,56.72304 c -1.363221,0 -2.622579,0.241814 -3.630556,0.642933 -0.831956,-0.07078 -1.686985,-0.123643 -2.554843,-0.123643 -3.791896,0 -7.24377,0.724474 -10.040044,1.904076 -0.322997,-0.02819 -0.647837,-0.04944 -0.98609,-0.04944 -3.3168276,0 -6.0060964,1.402068 -6.0060964,3.140482 0,0.651904 0.3833334,1.253339 1.0308999,1.755711 -0.3843826,0.773646 -0.5826885,1.582399 -0.5826885,2.423366 0,0.849441 0.1907825,1.66748 0.5826885,2.448096 -0.8891544,-0.220788 -1.8750938,-0.346193 -2.9134121,-0.346193 -3.92493404,0 1.6968657,1.741663 1.6968657,3.907059 0,2.165396 -5.62179974,3.931789 -1.6968657,3.931789 0.5251239,0 1.0312595,-0.03927 1.523937,-0.09891 -9.142e-4,0.03266 0,0.06615 0,0.09891 0,3.415832 5.0139828,6.182059 11.2054216,6.182059 3.995881,0 7.472184,-1.156939 9.457374,-2.893203 2.927527,1.456763 6.818108,2.349183 11.070957,2.349183 5.758685,0 10.804512,-1.639616 13.760258,-4.104885 1.856211,0.76847 4.134255,1.236405 6.633609,1.236405 3.908414,0 7.342404,-1.135764 9.32291,-2.819011 0.994206,0.440087 2.211894,0.717116 3.585735,0.717116 1.877908,0 3.555484,-0.498131 4.616634,-1.261144 0.462807,0.160818 1.026222,0.27201 1.61358,0.27201 1.65842,0 3.003053,-0.741838 3.003053,-1.656789 0,-0.914952 -1.344633,-1.65679 -3.003053,-1.65679 -0.259128,0 -0.522104,0.01538 -0.761968,0.04945 -0.727662,-1.152168 -2.610117,-1.999138 -4.885564,-2.126626 -0.123686,-1.066732 -1.710629,-1.904077 -3.675379,-1.904077 -0.546747,0 -1.056807,0.05573 -1.523937,0.173096 -2.034318,-1.253016 -5.002976,-2.052442 -8.292011,-2.052442 -1.469366,0 -2.839819,0.159263 -4.123595,0.445106 -0.321652,-1.878098 -3.190071,-3.363039 -6.678432,-3.363039 -0.401856,0 -0.782956,0.03679 -1.165364,0.07417 0.046,-0.172236 0.08965,-0.34 0.08965,-0.519289 0,-1.982402 -2.950724,-3.585596 -6.543967,-3.585596 -1.347466,0 -2.592169,0.20645 -3.630557,0.59348 -0.178794,-0.116781 -0.348868,-0.234521 -0.537859,-0.346201 0.01738,-0.09754 0.04483,-0.19681 0.04483,-0.29674 0,-1.738405 -2.689264,-3.140482 -6.006106,-3.140482 z"
         sodipodi:nodetypes="ccscsscscssscsscscscscsssccscscscssccscc" />
      <path
         style="color:#000000;font-style:normal;font-variant:normal;font-weight:normal;font-stretch:normal;font-size:medium;line-height:normal;font-family:Sans;-inkscape-font-specification:Sans;text-indent:0;text-align:start;text-decoration:none;text-decoration-line:none;letter-spacing:normal;word-spacing:normal;text-transform:none;writing-mode:lr-tb;direction:ltr;baseline-shift:baseline;text-anchor:start;display:inline;overflow:visible;visibility:visible;fill:#1f2224;fill-opacity:0.63265303;stroke:none;stroke-width:2.3755002;marker:none;enable-background:accumulate"
         d="m 9.9740341,5.1444869 c -3.116621,0 -5.667965,2.53951 -5.667965,5.6460041 v 69.277996 c 0,3.106495 2.551344,5.646004 5.667965,5.646004 H 86.765819 c 3.116621,0 5.667968,-2.539509 5.667968,-5.646004 V 10.790491 c 0,-3.1064931 -2.551347,-5.6460041 -5.667968,-5.6460041 z m 0,2.319439 H 86.765819 c 1.888099,0 3.352022,1.480095 3.352022,3.3265651 v 69.277996 c 0,1.846474 -1.463923,3.326564 -3.352022,3.326564 H 9.9740341 c -1.888099,0 -3.352022,-1.48009 -3.352022,-3.326564 V 10.790491 c 0,-1.8464701 1.463923,-3.3265651 3.352022,-3.3265651 z"
         id="path4989"
         inkscape:connector-curvature="0" />
      <path
         id="path4118"
         d="m 1.6489535,82.258776 v 6 c 0,3.680142 2.9761066,6.65625 6.6562496,6.65625 H 87.992703 c 3.680143,0 6.656254,-2.976108 6.656254,-6.65625 v -6 c 0,3.680142 -2.976111,6.65625 -6.656254,6.65625 H 8.3052031 c -3.680143,0 -6.6562496,-2.976108 -6.6562496,-6.65625 z"
         style="display:inline;opacity:0.65818182;fill:url(#linearGradient4129);fill-opacity:1;fill-rule:nonzero;stroke:none"
         inkscape:connector-curvature="0" />
      <rect
         ry="4.25"
         rx="0"
         y="80.665031"
         x="5.5239539"
         height="4.25"
         width="84.250008"
         id="rect4131"
         style="opacity:0.55;fill:url(#radialGradient7462);fill-opacity:1;stroke:none" />
      <rect
         transform="rotate(90)"
         style="opacity:0.669;fill:url(#radialGradient7464);fill-opacity:1;stroke:none"
         id="rect4141"
         width="76.75"
         height="4.25"
         x="5.9750223"
         y="-90.233963"
         rx="0"
         ry="4.25" />
      <rect
         clip-path="url(#clipPath4156-4-1)"
         ry="3.9569881"
         rx="3.9569874"
         y="-30"
         x="2"
         height="69.024437"
         width="75.965775"
         id="rect4146"
         style="opacity:0.5078125;fill:url(#linearGradient4767);fill-opacity:1;stroke:none"
         transform="matrix(1.0692451,0,0,1.0476829,4.4441802,38.894013)" />
    </g>
  </g>
</svg>
