<?xml version="1.0" encoding="UTF-8" standalone="no"?>
<!-- Created with Inkscape (http://www.inkscape.org/) -->

<svg
   xmlns:dc="http://purl.org/dc/elements/1.1/"
   xmlns:cc="http://creativecommons.org/ns#"
   xmlns:rdf="http://www.w3.org/1999/02/22-rdf-syntax-ns#"
   xmlns:svg="http://www.w3.org/2000/svg"
   xmlns="http://www.w3.org/2000/svg"
   xmlns:xlink="http://www.w3.org/1999/xlink"
   xmlns:sodipodi="http://sodipodi.sourceforge.net/DTD/sodipodi-0.dtd"
   xmlns:inkscape="http://www.inkscape.org/namespaces/inkscape"
   width="96"
   height="96"
   id="svg5023"
   version="1.1"
   inkscape:version="0.48.5 r10040"
   sodipodi:docname="1-hardware-template.svg">
  <defs
     id="defs5025">
    <linearGradient
       inkscape:collect="always"
       id="linearGradient4133">
      <stop
         style="stop-color:#ffffff;stop-opacity:1;"
         offset="0"
         id="stop4135" />
      <stop
         style="stop-color:#ffffff;stop-opacity:0;"
         offset="1"
         id="stop4137" />
    </linearGradient>
    <linearGradient
       id="linearGradient5700">
      <stop
         id="stop5702"
         offset="0"
         style="stop-color:#ffffff;stop-opacity:0;" />
      <stop
         style="stop-color:#ffffff;stop-opacity:0.85135138;"
         offset="0.02897836"
         id="stop5704" />
      <stop
         id="stop5706"
         offset="0.05199923"
         style="stop-color:#ffffff;stop-opacity:0;" />
      <stop
         style="stop-color:#ffffff;stop-opacity:0;"
         offset="0.96583712"
         id="stop5712" />
      <stop
         style="stop-color:#ffffff;stop-opacity:0.85135138;"
         offset="0.9788844"
         id="stop5710" />
      <stop
         id="stop5708"
         offset="1"
         style="stop-color:#ffffff;stop-opacity:0;" />
    </linearGradient>
    <linearGradient
       inkscape:collect="always"
       id="linearGradient3888-8-4-8-4-6-9-0-8-7-9">
      <stop
         style="stop-color:#ffffff;stop-opacity:1;"
         offset="0"
         id="stop3890-4-7-9-5-7-0-8-8-8-6" />
      <stop
         style="stop-color:#ffffff;stop-opacity:0;"
         offset="1"
         id="stop3892-5-8-2-8-3-3-3-06-4-4" />
    </linearGradient>
    <linearGradient
       id="linearGradient3921">
      <stop
         style="stop-color:#2cffee;stop-opacity:1;"
         offset="0"
         id="stop3923" />
      <stop
         style="stop-color:#00586e;stop-opacity:1;"
         offset="1"
         id="stop3925" />
    </linearGradient>
    <linearGradient
       inkscape:collect="always"
       id="linearGradient3888-8-4-8-6">
      <stop
         style="stop-color:#ffffff;stop-opacity:1;"
         offset="0"
         id="stop3890-4-7-9-7" />
      <stop
         style="stop-color:#ffffff;stop-opacity:0;"
         offset="1"
         id="stop3892-5-8-2-7" />
    </linearGradient>
    <linearGradient
       id="linearGradient4091-0-3-0-7">
      <stop
         style="stop-color:#ffffff;stop-opacity:1;"
         offset="0"
         id="stop4093-3-6-4-2" />
      <stop
         id="stop4099-6-1-8-3"
         offset="0.80000001"
         style="stop-color:#ffffff;stop-opacity:1;" />
      <stop
         style="stop-color:#ffffff;stop-opacity:0;"
         offset="1"
         id="stop4095-1-0-7-9" />
    </linearGradient>
    <linearGradient
       id="linearGradient3832-0-6-1-1">
      <stop
         style="stop-color:#000000;stop-opacity:1;"
         offset="0"
         id="stop3834-6-3-7-1" />
      <stop
         id="stop3872-2-4"
         offset="0.1"
         style="stop-color:#000000;stop-opacity:0.58823532;" />
      <stop
         style="stop-color:#000000;stop-opacity:0.58823532;"
         offset="0.89999998"
         id="stop3844-6-2-7-6" />
      <stop
         style="stop-color:#000000;stop-opacity:1;"
         offset="1"
         id="stop3836-5-0-2-9" />
    </linearGradient>
    <linearGradient
       inkscape:collect="always"
       xlink:href="#linearGradient6139-0"
       id="linearGradient3923"
       x1="6"
       y1="47.000011"
       x2="90"
       y2="47.000011"
       gradientUnits="userSpaceOnUse" />
    <linearGradient
       id="linearGradient6139-0">
      <stop
         id="stop6141-2"
         offset="0"
         style="stop-color:#b7b7b7;stop-opacity:1;" />
      <stop
         style="stop-color:#ffffff;stop-opacity:1;"
         offset="0.25"
         id="stop6151-0" />
      <stop
         style="stop-color:#9d9d9d;stop-opacity:1;"
         offset="0.5"
         id="stop6147-1" />
      <stop
         id="stop6149-4"
         offset="0.75"
         style="stop-color:#fafafa;stop-opacity:1;" />
      <stop
         id="stop6143-4"
         offset="1"
         style="stop-color:#b7b7b7;stop-opacity:1;" />
    </linearGradient>
    <linearGradient
       inkscape:collect="always"
       xlink:href="#linearGradient6139-0"
       id="linearGradient4071"
       gradientUnits="userSpaceOnUse"
       gradientTransform="matrix(1.1353753,0,0,1.1336634,-40.037124,-46.787637)"
       x1="6"
       y1="47.000011"
       x2="90"
       y2="47.000011" />
    <radialGradient
       inkscape:collect="always"
       xlink:href="#linearGradient3888-8-4-8-6"
       id="radialGradient4073"
       gradientUnits="userSpaceOnUse"
       gradientTransform="matrix(0,1.6209438,-2.0382846,0,160.66427,-243.03657)"
       cx="158"
       cy="6.2131939"
       fx="158"
       fy="6.2131939"
       r="41" />
    <radialGradient
       inkscape:collect="always"
       xlink:href="#linearGradient4091-0-3-0-7"
       id="radialGradient4075"
       gradientUnits="userSpaceOnUse"
       gradientTransform="matrix(-1.0721726,0,0,-0.87502024,199.46429,-19.125546)"
       cx="48"
       cy="-27"
       fx="48"
       fy="-27"
       r="42" />
    <linearGradient
       inkscape:collect="always"
       xlink:href="#linearGradient4213-7"
       id="linearGradient4767"
       gradientUnits="userSpaceOnUse"
       x1="2.7713892"
       y1="-28.64156"
       x2="50.527882"
       y2="14.514202" />
    <linearGradient
       inkscape:collect="always"
       id="linearGradient4213-7">
      <stop
         style="stop-color:#ffffff;stop-opacity:1;"
         offset="0"
         id="stop4215-6" />
      <stop
         style="stop-color:#ffffff;stop-opacity:0;"
         offset="1"
         id="stop4217-5" />
    </linearGradient>
    <clipPath
       clipPathUnits="userSpaceOnUse"
       id="clipPath4156-4">
      <path
         style="opacity:0.6;fill:#ffffff;fill-opacity:1;stroke:none"
         d="m 27.046336,-55.695463 -14.21366,13.321486 0.06127,0 15.653407,21.770763 10.231384,-10.546177 C 38.561832,-32.30156 27.468089,-54.819245 27.046336,-55.695463 z M 9.6468554,-39.382809 -5.2407289,-25.32124 15.987863,-7.8059573 26.372412,-18.382966 9.6468554,-39.382809 z m 31.4906096,12.951445 -9.741259,9.713584 8.944804,12.4580526 7.780753,-7.5550056 -6.984298,-14.616631 z m -49.8397109,4.378822 -13.7541661,12.9822847 26.2830181,13.84571 0.06127,-0.0617 -0.122531,-0.0617 L 13.598503,-5.4007374 -8.7022409,-22.052595 z m 38.0154159,7.400825 -9.802525,9.7752596 11.579232,9.5594001 7.62759,-7.40083 -8.669108,-11.0087257 -0.735189,-0.925104 z m 20.187073,5.6739697 -7.382526,7.2158 6.187844,8.54179 5.820249,-6.13651996 -4.625567,-9.62107004 z m -32.195166,6.32154 -9.5574606,9.49772 13.6622686,7.1849703 7.933918,-7.6783603 -12.038726,-9.00433 z m 23.311629,2.37443004 -7.10683,6.93826996 8.362778,6.9074403 5.360756,-5.6739699 -0.06127,-0.0925 -0.0919,0.12335 -6.463539,-8.20258036 z m -8.730374,8.54178036 -7.505057,7.3391599 10.353916,5.45811 c 1.397496,-1.32103 5.67514,-6.12292 5.850882,-6.32154 L 31.886332,8.2600031 z"
         id="path4158-0"
         inkscape:connector-curvature="0" />
    </clipPath>
    <linearGradient
       inkscape:collect="always"
       xlink:href="#linearGradient3888-8-4-8-4-6-9-0-8-7-9"
       id="linearGradient4112"
       gradientUnits="userSpaceOnUse"
       gradientTransform="matrix(1.1376233,0,0,1.1422854,-40.393161,-45.01103)"
       x1="45.99942"
       y1="42.063522"
       x2="76.197693"
       y2="29.454437" />
    <linearGradient
       inkscape:collect="always"
       xlink:href="#linearGradient3832-0-6-1-1"
       id="linearGradient4129"
       x1="1.5"
       y1="88.171875"
       x2="94.5"
       y2="88.171875"
       gradientUnits="userSpaceOnUse" />
    <radialGradient
       inkscape:collect="always"
       xlink:href="#linearGradient4133"
       id="radialGradient4139"
       cx="13.948145"
       cy="44.892843"
       fx="13.948145"
       fy="44.892843"
       r="43.199203"
       gradientTransform="matrix(1,0,0,0.05036905,0,39.43178)"
       gradientUnits="userSpaceOnUse" />
    <radialGradient
       inkscape:collect="always"
       xlink:href="#linearGradient4133"
       id="radialGradient4143"
       gradientUnits="userSpaceOnUse"
       gradientTransform="matrix(0.90960585,0,0,0.0504451,-11.184537,-58.258273)"
       cx="13.948145"
       cy="44.892843"
       fx="13.948145"
       fy="44.892843"
       r="43.199203" />
    <radialGradient
       inkscape:collect="always"
       xlink:href="#linearGradient4133-1"
       id="radialGradient4478"
       gradientUnits="userSpaceOnUse"
       gradientTransform="matrix(0.93058766,0,0,0.04694359,27.980929,70.06287)"
       cx="13.948145"
       cy="44.892841"
       fx="13.948145"
       fy="44.892841"
       r="43.199203" />
    <linearGradient
       inkscape:collect="always"
       id="linearGradient4133-1">
      <stop
         style="stop-color:#ffffff;stop-opacity:1;"
         offset="0"
         id="stop4135-5" />
      <stop
         style="stop-color:#ffffff;stop-opacity:0;"
         offset="1"
         id="stop4137-6" />
    </linearGradient>
    <radialGradient
       inkscape:collect="always"
       xlink:href="#linearGradient4133-1"
       id="radialGradient4480"
       gradientUnits="userSpaceOnUse"
       gradientTransform="matrix(0.84774603,0,0,0.04694358,24.797468,-80.286722)"
       cx="13.948145"
       cy="44.892841"
       fx="13.948145"
       fy="44.892841"
       r="43.199203" />
    <linearGradient
       inkscape:collect="always"
       xlink:href="#linearGradient4213-7-6"
       id="linearGradient4482"
       gradientUnits="userSpaceOnUse"
       x1="2.7713892"
       y1="-28.64156"
       x2="50.527882"
       y2="14.514202" />
    <linearGradient
       inkscape:collect="always"
       id="linearGradient4213-7-6">
      <stop
         style="stop-color:#ffffff;stop-opacity:1;"
         offset="0"
         id="stop4215-6-9" />
      <stop
         style="stop-color:#ffffff;stop-opacity:0;"
         offset="1"
         id="stop4217-5-9" />
    </linearGradient>
    <clipPath
       clipPathUnits="userSpaceOnUse"
       id="clipPath4156-4-0">
      <path
         style="opacity:0.6;fill:#ffffff;fill-opacity:1;stroke:none"
         d="m 27.046336,-55.695463 -14.21366,13.321486 0.06127,0 15.653407,21.770763 10.231384,-10.546177 C 38.561832,-32.30156 27.468089,-54.819245 27.046336,-55.695463 z M 9.6468554,-39.382809 -5.2407289,-25.32124 15.987863,-7.8059573 26.372412,-18.382966 9.6468554,-39.382809 z m 31.4906096,12.951445 -9.741259,9.713584 8.944804,12.4580526 7.780753,-7.5550056 -6.984298,-14.616631 z m -49.8397109,4.378822 -13.7541661,12.9822847 26.2830181,13.84571 0.06127,-0.0617 -0.122531,-0.0617 L 13.598503,-5.4007374 -8.7022409,-22.052595 z m 38.0154159,7.400825 -9.802525,9.7752596 11.579232,9.5594001 7.62759,-7.40083 -8.669108,-11.0087257 -0.735189,-0.925104 z m 20.187073,5.6739697 -7.382526,7.2158 6.187844,8.54179 5.820249,-6.13651996 -4.625567,-9.62107004 z m -32.195166,6.32154 -9.5574606,9.49772 13.6622686,7.1849703 7.933918,-7.6783603 -12.038726,-9.00433 z m 23.311629,2.37443004 -7.10683,6.93826996 8.362778,6.9074403 5.360756,-5.6739699 -0.06127,-0.0925 -0.0919,0.12335 -6.463539,-8.20258036 z m -8.730374,8.54178036 -7.505057,7.3391599 10.353916,5.45811 c 1.397496,-1.32103 5.67514,-6.12292 5.850882,-6.32154 L 31.886332,8.2600031 z"
         id="path4158-0-3"
         inkscape:connector-curvature="0" />
    </clipPath>
    <radialGradient
       inkscape:collect="always"
       xlink:href="#linearGradient4128-0"
       id="radialGradient4134-8"
       cx="148"
       cy="42.015625"
       fx="148"
       fy="42.015625"
       r="42"
       gradientTransform="matrix(1,0,0,0.89322917,0,4.4860433)"
       gradientUnits="userSpaceOnUse" />
    <linearGradient
       id="linearGradient4128-0">
      <stop
         style="stop-color:#d8ecfa;stop-opacity:1;"
         offset="0"
         id="stop4130-3" />
      <stop
         style="stop-color:#ffffff;stop-opacity:0;"
         offset="1"
         id="stop4132-8" />
    </linearGradient>
    <radialGradient
       inkscape:collect="always"
       xlink:href="#linearGradient4133-1"
       id="radialGradient3426"
       gradientUnits="userSpaceOnUse"
       gradientTransform="matrix(0.84356263,0,0,0.04678246,-22.173303,-18.770339)"
       cx="13.948145"
       cy="44.892841"
       fx="13.948145"
       fy="44.892841"
       r="43.199203" />
    <radialGradient
       inkscape:collect="always"
       xlink:href="#linearGradient4133-1"
       id="radialGradient3428"
       gradientUnits="userSpaceOnUse"
       gradientTransform="matrix(0.92739362,0,0,0.04671194,-33.355926,22.868727)"
       cx="13.948145"
       cy="44.892841"
       fx="13.948145"
       fy="44.892841"
       r="43.199203" />
    <radialGradient
       inkscape:collect="always"
       xlink:href="#linearGradient4128-0"
       id="radialGradient3430"
       gradientUnits="userSpaceOnUse"
       gradientTransform="matrix(1,0,0,0.89322917,0,4.4860433)"
       cx="148"
       cy="42.015625"
       fx="148"
       fy="42.015625"
       r="42" />
    <linearGradient
       inkscape:collect="always"
       xlink:href="#linearGradient4213-7-6"
       id="linearGradient3432"
       gradientUnits="userSpaceOnUse"
       x1="2.7713892"
       y1="-28.64156"
       x2="50.527882"
       y2="14.514202" />
    <radialGradient
       inkscape:collect="always"
       xlink:href="#linearGradient4128-0"
       id="radialGradient3446"
       gradientUnits="userSpaceOnUse"
       gradientTransform="matrix(1,0,0,0.89322917,0,4.4860433)"
       cx="148"
       cy="42.015625"
       fx="148"
       fy="42.015625"
       r="42" />
    <linearGradient
       inkscape:collect="always"
       xlink:href="#linearGradient4213-7-6"
       id="linearGradient3448"
       gradientUnits="userSpaceOnUse"
       x1="2.7713892"
       y1="-28.64156"
       x2="50.527882"
       y2="14.514202" />
    <radialGradient
       inkscape:collect="always"
       xlink:href="#linearGradient4133-1"
       id="radialGradient3450"
       gradientUnits="userSpaceOnUse"
       gradientTransform="matrix(0.84356263,0,0,0.04678246,-22.173303,-21.356478)"
       cx="13.948145"
       cy="44.892841"
       fx="13.948145"
       fy="44.892841"
       r="43.199203" />
    <radialGradient
       inkscape:collect="always"
       xlink:href="#linearGradient4133-1"
       id="radialGradient3452"
       gradientUnits="userSpaceOnUse"
       gradientTransform="matrix(0.92739362,0,0,0.04671194,-33.355926,22.868727)"
       cx="13.948145"
       cy="44.892841"
       fx="13.948145"
       fy="44.892841"
       r="43.199203" />
    <radialGradient
       inkscape:collect="always"
       xlink:href="#linearGradient3921"
       id="radialGradient4230"
       cx="48.441742"
       cy="45.581047"
       fx="48.441742"
       fy="45.581047"
       r="43.66917"
       gradientTransform="matrix(0.99644551,0,0,0.90132673,-33.368438,-37.815654)"
       gradientUnits="userSpaceOnUse" />
  </defs>
  <sodipodi:namedview
     id="base"
     pagecolor="#ffffff"
     bordercolor="#666666"
     borderopacity="1.0"
     inkscape:pageopacity="0.0"
     inkscape:pageshadow="2"
     inkscape:zoom="6.0691462"
     inkscape:cx="35.321232"
     inkscape:cy="63.348333"
     inkscape:current-layer="layer3"
     showgrid="true"
     inkscape:grid-bbox="true"
     inkscape:document-units="px"
     inkscape:window-width="1280"
     inkscape:window-height="966"
     inkscape:window-x="0"
     inkscape:window-y="0"
     inkscape:window-maximized="1"
     showguides="true"
     inkscape:guide-bbox="true"
     inkscape:snap-global="false">
    <sodipodi:guide
       orientation="0,1"
       position="74,7.75"
       id="guide4116" />
  </sodipodi:namedview>
  <metadata
     id="metadata5028">
    <rdf:RDF>
      <cc:Work
         rdf:about="">
        <dc:format>image/svg+xml</dc:format>
        <dc:type
           rdf:resource="http://purl.org/dc/dcmitype/StillImage" />
        <dc:title></dc:title>
      </cc:Work>
    </rdf:RDF>
  </metadata>
  <g
     id="layer1"
     inkscape:label="Layer 1"
     inkscape:groupmode="layer"
     transform="translate(0,80)">
    <g
       id="g5148"
       transform="matrix(1.0034441,0,0,1.0049592,33.489303,-38.526762)">
      <g
         id="g5766"
         transform="matrix(0.88387919,0,0,0.83393165,-3.5257642,5.0081212)" />
      <path
         style="opacity:0.15;fill:#000000;fill-opacity:1;fill-rule:nonzero;stroke:none;display:inline"
         d="m 55.462534,-41.268579 -82.003291,0 c -3.78581,0 -6.8336,3.043193 -6.8336,6.823302 l 0,81.87966 c 0,3.780111 3.04779,6.823304 6.8336,6.823304 l 82.003291,0 c 3.785819,0 6.833607,-3.043193 6.833607,-6.823304 l 0,-81.87966 c 0,-3.780109 -3.047788,-6.823302 -6.833607,-6.823302 z"
         id="path3288"
         inkscape:connector-curvature="0" />
      <path
         inkscape:connector-curvature="0"
         id="path4085"
         d="m 54.821885,-40.52228 -80.721993,0 c -3.726657,0 -6.726825,2.995643 -6.726825,6.716688 l 0,80.60029 c 0,3.721047 3.000168,6.71669 6.726825,6.71669 l 80.721993,0 c 3.726665,0 6.726832,-2.995643 6.726832,-6.71669 l 0,-80.60029 c 0,-3.721045 -3.000167,-6.716688 -6.726832,-6.716688 z"
         style="opacity:0.15;fill:#000000;fill-opacity:1;fill-rule:nonzero;stroke:none;display:inline" />
      <g
         id="g4060"
         transform="matrix(0.97178685,0,0,0.97178682,0.40798707,0.18323223)">
        <path
           style="fill:url(#linearGradient4071);fill-opacity:1;fill-rule:nonzero;stroke:none;display:inline"
           d="m 55.334401,-41.11932 -81.747021,0 c -3.773988,0 -6.812252,3.033683 -6.812252,6.80198 l 0,81.623788 c 0,3.768297 3.038264,6.80198 6.812252,6.80198 l 81.747021,0 c 3.773988,0 6.812252,-3.033683 6.812252,-6.80198 l 0,-81.623788 c 0,-3.768297 -3.038264,-6.80198 -6.812252,-6.80198 z"
           id="rect4251-1"
           inkscape:connector-curvature="0" />
        <g
           id="g3272"
           transform="matrix(1.1353753,0,0,1.1336634,-153.57465,-46.220805)">
          <path
             sodipodi:nodetypes="sscccsccscccsss"
             inkscape:connector-curvature="0"
             id="path3400-6"
             d="m 112,5.5 c -2.7873,0 -5,2.2127028 -5,5 l 0,20.71875 0,7 0,38.59375 c 1.07066,1.628779 2.89693,2.71875 5,2.71875 l 4,0 64,0 4,0 c 2.10307,0 3.92934,-1.089971 5,-2.71875 l 0,-38.59375 0,-7 L 189,10.5 c 0,-2.7872972 -2.2127,-5 -5,-5 z"
             style="opacity:0.2;fill:url(#radialGradient4073);fill-opacity:1;fill-rule:nonzero;stroke:none;display:inline" />
          <path
             inkscape:connector-curvature="0"
             id="path4236-5"
             d="m 112,4.5 c -3.324,0 -6,2.6759996 -6,6 l 0,15 1,0 0,-15 c 0,-2.7872972 2.2127,-5 5,-5 l 72,0 c 2.7873,0 5,2.2127028 5,5 l 0,15 1,0 0,-15 c 0,-3.3240004 -2.676,-6 -6,-6 l -72,0 z"
             style="opacity:0.45;fill:url(#radialGradient4075);fill-opacity:1;fill-rule:nonzero;stroke:none;display:inline" />
        </g>
        <path
           style="fill:url(#linearGradient4129);fill-opacity:1;fill-rule:nonzero;stroke:none;display:inline;opacity:0.65"
           d="M 1.5 81.84375 L 1.5 87.84375 C 1.5 91.523892 4.4761068 94.5 8.15625 94.5 L 87.84375 94.5 C 91.523893 94.5 94.5 91.523892 94.5 87.84375 L 94.5 81.84375 C 94.5 85.523892 91.523893 88.5 87.84375 88.5 L 8.15625 88.5 C 4.4761068 88.5 1.5 85.523892 1.5 81.84375 z "
           transform="matrix(1.0255003,0,0,1.0239543,-34.763123,-42.655251)"
           id="path4118" />
        <rect
           style="opacity:0.55;fill:url(#radialGradient4139);fill-opacity:1;stroke:none"
           id="rect4131"
           width="86.398407"
           height="4.3518057"
           x="-29.251059"
           y="39.517078"
           rx="0"
           ry="4.3518057" />
        <rect
           ry="4.3583765"
           rx="0"
           y="-58.172848"
           x="-37.79147"
           height="4.3583765"
           width="78.588493"
           id="rect4141"
           style="opacity:0.55;fill:url(#radialGradient4143);fill-opacity:1;stroke:none"
           transform="matrix(0,1,-1,0,0,0)" />
      </g>
      <rect
         style="fill:url(#radialGradient4230);fill-opacity:1;stroke:#53768a;stroke-width:1.00635982;stroke-linecap:round;stroke-linejoin:round;stroke-miterlimit:4;stroke-opacity:0.6;stroke-dasharray:1.00635985, 1.00635985;stroke-dashoffset:0"
         id="rect4222"
         width="86.031448"
         height="77.70401"
         x="-28.114609"
         y="-35.58424"
         ry="4.4230571" />
      <g
         id="g3434"
         transform="matrix(1.0158914,0,0,1.0587524,34.687056,13.311858)">
        <g
           transform="matrix(0.86229796,0,0,0.85509966,-32.379366,-10.42233)"
           id="g4139">
          <path
             sodipodi:nodetypes="sscccsccscccsss"
             inkscape:connector-curvature="0"
             id="path3400-6-9"
             d="m 112,5.5 c -2.7873,0 -5,2.2127028 -5,5 l 0,20.71875 0,7 0,38.59375 c 1.07066,1.628779 2.89693,2.71875 5,2.71875 l 4,0 64,0 4,0 c 2.10307,0 3.92934,-1.089971 5,-2.71875 l 0,-38.59375 0,-7 L 189,10.5 c 0,-2.7872972 -2.2127,-5 -5,-5 z"
             style="opacity:0.2;fill:url(#radialGradient3446);fill-opacity:1;fill-rule:nonzero;stroke:none;display:inline"
             transform="matrix(1.1353753,0,0,1.1336634,-153.57465,-46.461735)" />
          <g
             style="fill:#d8ecfa;fill-opacity:1"
             transform="matrix(1.141221,0,0,1.0483633,-40.317718,-46.657936)"
             id="layer3">
            <path
               style="opacity:0.85090911999999996;fill:#020901;fill-opacity:0.59183675;stroke:none;display:inline"
               id="path3522"
               inkscape:connector-curvature="0"
               d="m 36.273886,6.0961948 c 1.650117,2.2113875 0.112582,5.9041752 2.601475,5.8675182 1.211896,1.709913 -2.415455,0.510072 0.203593,1.827957 1.506105,1.183738 -1.593389,1.860078 0.271787,2.922365 -2.149684,1.107009 0.348446,5.790098 1.945123,6.962147 2.627951,2.207864 1.162201,-4.67451 4.094495,-5.032526 1.593361,-1.815344 4.391846,-2.98066 6.379269,-4.806851 -1.942296,-0.157362 -3.076461,-1.363862 -1.237023,-2.11124 3.385455,3.462091 0.848905,-1.639594 -1.025129,-2.4473701 1.813359,-0.5756653 3.576974,-0.1541111 3.325364,-1.6474191 1.916319,-1.3991597 -1.842258,-1.850905 -3.183939,-1.534581 -4.458339,0 -8.916676,0 -13.375015,0 z M 8.4720355,7.5405066 C 6.0222749,8.2370314 5.8513922,14.079701 8.3136849,10.835344 8.9180274,9.5031721 11.710762,7.8977167 8.4720355,7.5405066 z M 19.918526,7.7436133 c -1.412257,2.21004 0.204916,3.9819487 1.379913,1.2863401 0.831708,-1.1256428 -0.617926,-1.2450983 -1.379913,-1.2863401 z m 3.528957,0.4964817 c -2.728751,1.2621852 -0.672603,4.205478 -0.60506,4.860083 2.87456,0.992448 4.473228,-0.648881 5.560694,2.156315 2.735157,1.573161 -0.05382,4.306731 -1.080545,5.018636 1.849343,-1.607334 5.404159,4.369999 4.472253,1.212017 -1.111784,-0.810133 2.985157,1.301441 0.859617,-1.331475 -1.956061,-3.145114 0.155273,-1.408037 0.979953,-0.673992 2.804886,-2.510076 -3.173596,-2.813465 -1.68122,-5.396633 C 30.645418,13.027997 28.930287,9.8257681 26.614496,10.451698 25.064255,12.452463 26.400343,6.0921938 24.125892,9.2749566 24.008,11.054105 24.083042,13.31173 23.420181,10.229494 c -0.444071,-0.5395809 0.764,-1.793999 0.0273,-1.989399 z m -5.564894,0.022569 c -1.831601,0.6093918 -1.733228,3.079121 0.518957,3.343892 0.771434,-0.877529 0.30649,-3.1777172 -0.518957,-3.3438919 z M 10.734188,9.0525224 C 8.3551088,9.6150517 9.3261955,11.529448 10.054614,12.06861 c -2.9449169,0.736158 4.495691,0.94087 0.792681,1.407118 -3.08079,1.22789 2.966663,2.674528 3.958767,1.218638 3.80439,0.928509 0.136908,-3.039255 -0.197041,-5.1900826 -1.612752,-1.7273388 -0.06366,3.9819826 -1.521868,0.1839667 -0.508787,1.1278389 -2.126528,0.1662002 -2.352965,-0.6357277 z m 75.601127,0.2482403 c -3.192449,1.2468723 1.98418,5.9521573 0.697641,1.6714863 -0.128164,-0.516886 0.288199,-1.8825902 -0.697641,-1.6714863 z M 19.669689,11.196422 c -2.294081,2.151546 2.915988,3.930772 -0.658895,5.533633 -0.536019,-1.998146 -1.458274,0.999707 -3.503465,-0.613946 -3.515899,1.460963 -5.313868,-0.761001 -8.2575345,-2.28409 -1.7680293,-0.219637 -1.1037807,1.676511 -1.2208833,3.451913 0,4.906537 0,9.813075 0,14.719613 1.7334888,1.820114 0.6763285,0.80305 0,0.301029 0.9514666,3.233886 -0.4195721,7.961135 3.3308508,9.842222 0.6375631,1.180203 3.312882,6.208185 3.43622,4.703764 -1.341214,-1.401704 -2.717353,-5.603945 -0.447896,-1.858566 2.032756,3.560254 4.77475,5.869428 8.780477,6.716648 2.190058,0.743444 3.99117,3.299052 5.917116,2.736761 1.089051,2.865096 -3.227415,5.616415 0.144913,8.288718 1.760515,2.705308 4.716183,4.479653 3.11596,8.277713 -1.119074,3.709365 -0.639926,7.751157 -1.607787,11.20721 -0.300394,2.103688 2.938036,7.443159 2.657471,3.167516 0.945569,-2.971276 0.920636,-6.240651 3.147581,-8.344813 3.047109,0.02407 0.582373,-3.269905 3.607007,-2.839605 1.845643,-2.414288 2.380233,-5.294422 5.49491,-6.253089 0.372044,-2.930576 5.178818,-7.418801 0.21314,-8.55979 -1.34961,-0.663857 -4.824508,-0.902566 -4.558947,-1.230126 0.538031,-2.907903 -4.493469,-3.735741 -6.634233,-4.925455 -2.810758,-1.991072 -7.034236,3.30766 -8.024513,-1.258007 -0.590876,-1.436504 -2.751326,-1.4598 -1.75843,-3.676393 -1.789387,1.776067 -5.289343,1.236276 -4.373033,-2.193653 1.39157,-2.888666 6.73564,-3.025343 7.646261,0.449204 -1.264352,-3.832011 2.443938,-6.815083 4.502527,-9.54133 0.419165,-1.303075 2.909744,-2.422615 2.052679,-0.690765 1.460154,-0.05256 3.673289,-2.682202 1.079409,-1.468489 -0.03668,-2.398143 -2.272976,-1.716156 -2.997997,-1.375635 1.343772,-2.128469 8.244987,-0.964813 5.355099,-4.443927 -2.239304,-0.905507 -2.053028,-6.189603 -4.317999,-3.245811 0.190591,-1.813796 -4.610012,-5.364278 -4.505256,-2.322748 0.585986,2.7216 0.107133,5.85682 -1.139925,7.640785 -0.260245,-3.988053 -7.075679,-3.106633 -6.199423,-7.356349 1.26944,-2.025433 2.75285,-4.826333 2.894179,-4.574365 2.275047,-0.866862 4.10459,-3.388384 1.467829,-5.046018 -0.140917,1.444736 -1.98303,4.425523 -1.72366,0.820357 -1.705794,2.018338 -1.316199,-3.211704 -2.913752,-3.754116 z M 74.119693,12.5956 c -3.99594,0.975496 -5.580066,4.784358 -7.556816,7.939118 -2.913854,1.311093 -2.802935,6.941668 0.452413,5.143338 0.871278,1.518634 -0.609508,3.912288 1.928313,1.926594 2.046998,-2.703416 0.357938,-7.075784 3.841419,-8.780454 0.253733,1.325472 -3.213337,6.274821 0.836999,5.461306 3.661561,0.137878 -2.66186,0.364095 -0.881003,2.698256 -1.850268,-1.095583 -0.888831,2.992156 -3.303981,2.040892 -2.09233,1.135809 -3.464337,-0.527363 -2.985035,-2.349323 -1.645958,0.958274 0.517698,3.661667 -2.339578,3.824136 -0.640049,2.268218 -5.903382,1.926341 -2.910209,4.235999 1.328901,3.437113 -4.951535,0.215469 -3.168535,4.340119 1.525448,4.078655 4.722399,-1.35148 6.019435,-2.400589 2.502475,-1.937225 6.210661,3.303165 3.958766,3.497944 2.525081,-0.338101 2.00619,-2.73469 -0.01696,-3.662515 -1.092677,-2.82815 3.459031,1.386996 3.2066,2.804954 1.605947,3.001147 0.944615,-3.072718 2.578852,-0.383645 -0.190801,2.836574 6.574181,0.666957 3.344389,4.282144 -2.776877,0.558175 -5.510129,-0.714429 -7.900826,0.100684 -2.225116,-0.01964 -2.113474,-2.392226 -2.923585,-2.986378 -2.830366,0.22949 -6.327934,0.203539 -8.222766,2.485442 -2.049024,2.805613 -5.003834,6.727658 -2.770529,10.310077 2.234872,5.308729 7.777178,0.275367 10.962974,3.410586 0.946933,1.307246 -0.820595,2.861171 1.296709,4.277161 0.796708,3.016302 -0.904486,5.880227 1.052267,8.763626 1.011837,2.711692 1.639779,6.770392 5.405757,4.292514 3.985771,-2.393715 2.924168,-6.806375 6.212946,-9.250462 -2.60227,-5.026009 3.183614,-7.229763 4.627211,-11.309974 -3.153943,0.460803 -5.963772,-2.677338 -6.725787,-5.835942 -1.324936,-1.534204 -0.983669,-3.796395 0.496326,-0.914275 2.034266,1.967187 2.078217,7.804341 5.841274,4.801502 1.720342,-0.718113 6.418604,-3.45743 2.675109,-4.704038 -2.413043,1.744216 -5.075245,-5.21176 -1.531819,-1.177146 C 88.196064,46.567937 90,47.217781 90,43.601599 c 0,-9.742755 0,-19.617522 0,-29.426283 -0.802399,0.818316 -2.863802,2.329653 -3.904284,1.32539 -1.790368,0.248808 -4.153886,3.725348 -3.591242,0.364664 -1.556236,-0.102846 -0.278581,3.013306 -2.416645,3.100453 -0.215282,1.602045 -2.159868,0.296667 -1.429424,1.818009 -1.500652,-1.062327 -2.770676,-4.416447 0.186139,-2.311184 4.391021,-1.314691 -2.895608,-4.28014 -3.458045,-4.996921 0.945455,-0.226071 -1.028609,-1.209346 -1.266806,-0.880127 z m -36.239679,0.880127 c -1.461503,1.215286 2.778535,1.444147 0,0 z m -19.522373,0.654454 c -1.634653,1.706411 2.60328,1.568685 0,0 z m 9.478417,1.692553 c -1.237866,2.023723 1.829028,0.747151 0,0 z m 27.100584,2.392143 c -1.449232,1.665083 -3.362049,-0.438213 -3.393229,0.992964 0.262645,0.432437 1.314673,3.518852 3.619444,1.241206 1.236984,-0.520462 0.749959,-1.832484 -0.226215,-2.23417 z m -30.855756,0.992964 c -2.748807,2.395732 4.668304,2.616464 0.582323,0.274768 l -0.582323,-0.274768 z m 36.262299,6.63481 c -1.979083,1.287951 0.949436,4.023157 -0.04308,5.307991 -1.240102,2.156293 4.608325,-0.151892 1.484617,-1.872269 -0.222569,-1.478071 -1.830024,-3.281486 -1.441541,-3.435722 z m -1.33467,2.595248 c -2.757392,0.777992 -0.625961,4.794736 0.350661,1.01157 0.05497,-0.219332 0.12936,-1.018906 -0.350661,-1.01157 z M 36.92991,31.349091 c -2.565224,1.745645 -0.398428,3.488076 1.481561,2.702638 -0.385957,-1.053236 -1.464168,-1.716838 -1.481561,-2.702638 z m 48.455301,2.933759 c 1.279946,0.644652 -2.345536,1.745894 -0.04983,2.880449 1.335978,1.56791 0.832312,4.933623 -1.339202,2.551522 0.403442,-2.659611 -2.943559,-4.645833 1.389033,-5.431971 z m -6.582867,0.02257 c -0.173666,1.708694 3.693957,4.364669 -0.475048,3.497943 -2.204744,0.258106 -5.506967,-0.06723 -2.729423,-2.808943 0.87765,-0.525824 3.182055,1.814147 1.982912,-0.373057 0.42514,-0.02707 0.821079,-0.187223 1.221559,-0.315943 z M 66.06643,38.006468 c -1.608111,1.033934 1.111987,1.826739 0,0 z m -40.379416,9.63627 c -0.271104,0.90264 5.08599,1.817396 1.389301,0.371258 l -0.551069,-0.193581 -0.838232,-0.177677 z m 4.16236,1.28634 c -1.624916,1.646263 3.34781,0.491838 0,0 z m 54.336893,15.097576 c -3.530712,0.09092 -3.061323,9.179576 -0.60013,3.801721 0.233406,-1.167001 1.168896,-2.707282 0.60013,-3.801721 z" />
            <path
               d="m 36.354543,6.4411081 c 1.650371,2.2018132 0.112599,5.8786139 2.601875,5.8421149 1.212084,1.70251 -2.415825,0.507864 0.203625,1.820043 1.506337,1.178614 -1.593634,1.852025 0.271829,2.909712 -2.150015,1.102218 0.3485,5.765032 1.945423,6.932006 2.628355,2.198305 1.162379,-4.654272 4.095124,-5.010739 1.593607,-1.807484 4.392523,-2.967754 6.380253,-4.786039 -1.942597,-0.156681 -3.076935,-1.357958 -1.237214,-2.1021 3.385976,3.447102 0.849036,-1.632495 -1.025287,-2.436774 1.813637,-0.5731726 3.577525,-0.1534437 3.325877,-1.6402867 1.916614,-1.3931022 -1.842543,-1.8428916 -3.184431,-1.5279372 -4.459026,0 -8.918049,0 -13.377074,0 z M 8.5484112,7.8791668 C 6.0982734,8.5726758 5.9273643,14.39005 8.3900362,11.159739 8.9944719,9.833335 11.787636,8.2348305 8.5484112,7.8791668 z M 19.996664,8.0813943 c -1.412475,2.2004717 0.204947,3.9647087 1.380125,1.2807704 0.831835,-1.1207688 -0.618022,-1.2397072 -1.380125,-1.2807704 z m 3.529499,0.4943321 c -2.729171,1.2567205 -0.672706,4.1872706 -0.605153,4.8390416 2.875002,0.988151 4.473917,-0.646072 5.561551,2.146979 2.735579,1.56635 -0.05382,4.288086 -1.080712,4.996909 1.849628,-1.600376 5.404994,4.351079 4.472943,1.206769 -1.111956,-0.806625 2.985617,1.295807 0.859749,-1.325711 -1.956362,-3.131497 0.155297,-1.40194 0.980104,-0.671074 2.805319,-2.499209 -3.174084,-2.801283 -1.681478,-5.373267 -1.307959,-1.052474 -3.023356,-4.240838 -5.339504,-3.617618 -1.550479,1.992102 -0.214185,-4.3406305 -2.488987,-1.1716469 -0.11791,1.7714449 -0.04285,4.0192949 -0.705819,0.9504039 -0.44414,-0.537245 0.764117,-1.7862315 0.0273,-1.9807856 z m -5.56575,0.022472 C 16.12853,9.2049517 16.226917,11.663989 18.479449,11.927613 19.251004,11.053884 18.785987,8.7636537 17.960413,8.5981982 z M 10.81091,9.3846365 C 8.4314666,9.944731 9.4027014,11.850839 10.131232,12.387667 c -2.945369,0.732971 4.496384,0.936797 0.792802,1.401026 -3.081262,1.222574 2.96712,2.662949 3.959377,1.213361 3.804976,0.92449 0.13693,-3.026096 -0.197071,-5.1676124 -1.613,-1.71986 -0.06367,3.9647444 -1.522101,0.1831714 -0.508866,1.122955 -2.126855,0.16548 -2.353329,-0.6329765 z m 75.612772,0.2471666 c -3.19294,1.2414739 1.984485,5.9263879 0.697749,1.6642499 -0.128184,-0.514649 0.288243,-1.87444 -0.697749,-1.6642499 z M 19.747788,11.519255 c -2.294434,2.142231 2.916437,3.913755 -0.658997,5.509676 -0.536101,-1.989495 -1.458498,0.995379 -3.504004,-0.611289 -3.516439,1.454639 -5.314686,-0.757706 -8.2588049,-2.2742 -1.7683016,-0.218686 -1.1039507,1.669252 -1.2210714,3.436967 0,4.885296 0,9.77059 0,14.655886 1.7337558,1.812234 0.6764327,0.799573 0,0.299725 0.9516132,3.219886 -0.4196367,7.926668 3.3313622,9.799612 0.6376611,1.175092 3.3133911,6.181306 3.4367491,4.683399 -1.34142,-1.395636 -2.717771,-5.579684 -0.447964,-1.850519 2.033068,3.544838 4.775485,5.844016 8.781828,6.687567 2.190396,0.740226 3.991784,3.28477 5.918027,2.724914 1.089218,2.85269 -3.227911,5.592097 0.144934,8.252832 1.760789,2.693594 4.716913,4.460258 3.116442,8.241875 -1.119246,3.693305 -0.640024,7.717598 -1.608035,11.158689 -0.30044,2.094579 2.938489,7.410933 2.657882,3.153802 0.945714,-2.958412 0.920778,-6.213632 3.148065,-8.308685 3.047579,0.02397 0.582463,-3.255748 3.607563,-2.827311 1.845928,-2.403834 2.380599,-5.2715 5.495755,-6.226017 0.372101,-2.917888 5.179616,-7.386681 0.213174,-8.522731 -1.349818,-0.660981 -4.825251,-0.898658 -4.559649,-1.2248 0.538114,-2.895313 -4.494161,-3.719567 -6.635255,-4.904131 -2.81119,-1.982451 -7.035322,3.293342 -8.025751,-1.252559 -0.590967,-1.430285 -2.751748,-1.45348 -1.7587,-3.660477 -1.789662,1.768379 -5.290156,1.230923 -4.373705,-2.184156 1.391783,-2.876159 6.736676,-3.012245 7.647437,0.44726 -1.264548,-3.815421 2.444316,-6.785578 4.503222,-9.500021 0.419229,-1.297435 2.910192,-2.412127 2.052995,-0.687775 1.460379,-0.05234 3.673855,-2.67059 1.079576,-1.462131 -0.03669,-2.387761 -2.273326,-1.708726 -2.998459,-1.369679 1.343978,-2.119255 8.246257,-0.960636 5.355924,-4.424687 -2.23965,-0.901587 -2.053345,-6.162806 -4.318665,-3.231759 0.190621,-1.805943 -4.610723,-5.341054 -4.505952,-2.312692 0.586077,2.709817 0.10715,5.831463 -1.1401,7.607704 -0.260285,-3.970786 -7.076767,-3.093182 -6.200377,-7.3245 1.269637,-2.016663 2.753275,-4.805437 2.894624,-4.55456 2.275397,-0.863109 4.105222,-3.373714 1.468054,-5.024172 -0.140937,1.438481 -1.983333,4.406363 -1.723923,0.816806 -1.706057,2.0096 -1.316403,-3.197799 -2.914201,-3.737863 z m 54.45839,1.393121 c -3.996555,0.971272 -5.580924,4.763644 -7.557979,7.904746 -2.914302,1.305416 -2.803366,6.911614 0.452483,5.121069 0.871412,1.51206 -0.609602,3.895351 1.92861,1.918253 2.047313,-2.691711 0.357994,-7.045149 3.84201,-8.742439 0.253772,1.319734 -3.213832,6.247655 0.837128,5.437662 3.662125,0.13728 -2.66227,0.362519 -0.881139,2.686574 -1.850553,-1.09084 -0.888967,2.979201 -3.30449,2.032056 -2.092652,1.130891 -3.464869,-0.525081 -2.985493,-2.339151 -1.646213,0.954125 0.517777,3.645813 -2.33994,3.807579 -0.640146,2.258398 -5.90429,1.918001 -2.910657,4.217659 1.329105,3.422232 -4.952297,0.214536 -3.169023,4.321329 1.525683,4.060997 4.723128,-1.345628 6.020362,-2.390196 2.502861,-1.928837 6.211618,3.288864 3.959376,3.482799 2.525471,-0.336637 2.006499,-2.722849 -0.01696,-3.646658 -1.092846,-2.815905 3.459563,1.380991 3.207094,2.792811 1.606194,2.988153 0.944759,-3.059416 2.579249,-0.381984 -0.190831,2.824293 6.575193,0.664069 3.344903,4.263604 -2.777305,0.555759 -5.510977,-0.711336 -7.902042,0.100248 -2.22546,-0.01956 -2.1138,-2.381869 -2.924036,-2.973448 -2.830802,0.228496 -6.328909,0.202658 -8.224032,2.474681 -2.049339,2.793466 -5.004605,6.698531 -2.770957,10.26544 2.235218,5.285745 7.778377,0.274175 10.964664,3.39582 0.947079,1.301586 -0.820722,2.848784 1.296909,4.258643 0.79683,3.003244 -0.904626,5.854769 1.052429,8.725685 1.011992,2.699952 1.640031,6.741079 5.40659,4.27393 3.986384,-2.383352 2.924618,-6.776908 6.213902,-9.210413 -2.60267,-5.004249 3.184105,-7.198462 4.627925,-11.261008 -3.15443,0.458808 -5.964692,-2.665747 -6.726825,-5.810675 -1.325139,-1.527562 -0.983819,-3.77996 0.496404,-0.910317 2.034578,1.95867 2.078537,7.770552 5.842173,4.780713 1.720607,-0.715003 6.419592,-3.44246 2.675521,-4.683671 -2.413414,1.736664 -5.076027,-5.189196 -1.532056,-1.17205 2.57644,1.085964 4.380654,1.732995 4.380654,-1.867532 0,-9.700573 0,-19.532589 0,-29.298882 -0.802523,0.814772 -2.864243,2.319566 -3.904885,1.319651 -1.790645,0.247731 -4.154527,3.70922 -3.591796,0.363085 -1.556476,-0.1024 -0.278624,3.000261 -2.417017,3.08703 -0.215315,1.595109 -2.1602,0.295383 -1.429645,1.810138 -1.500883,-1.057728 -2.771102,-4.397327 0.186169,-2.301178 4.391696,-1.308999 -2.896054,-4.261609 -3.458578,-4.975287 0.9456,-0.225092 -1.028767,-1.20411 -1.267002,-0.876316 z m -36.245259,0.876316 c -1.461728,1.210025 2.778962,1.437895 0,0 z m -19.525381,0.65162 c -1.634905,1.699024 2.60368,1.561894 0,0 z m 9.479875,1.685225 c -1.238056,2.014962 1.829312,0.743916 0,0 z m 27.104761,2.381787 c -1.449456,1.657874 -3.362568,-0.436316 -3.393754,0.988665 0.262686,0.430565 1.314877,3.503617 3.620004,1.235832 1.237174,-0.518208 0.750073,-1.82455 -0.22625,-2.224497 z m -30.86051,0.988665 c -2.74923,2.38536 4.669024,2.605136 0.582412,0.273578 l -0.582412,-0.273578 z m 36.267885,6.606085 c -1.979388,1.282376 0.949582,4.005738 -0.04309,5.285011 -1.240293,2.146956 4.609034,-0.151235 1.484845,-1.864163 -0.222603,-1.471672 -1.830306,-3.26728 -1.441763,-3.420848 z m -1.334875,2.584013 c -2.757817,0.774623 -0.626058,4.773976 0.350714,1.007189 0.05498,-0.218382 0.129381,-1.014495 -0.350714,-1.007189 z m -22.082006,2.898588 c -2.565618,1.738087 -0.398489,3.472974 1.481789,2.690936 -0.386016,-1.048676 -1.464394,-1.709405 -1.481789,-2.690936 z m 48.462763,2.921057 c 1.280145,0.64186 -2.345896,1.738335 -0.04983,2.867978 1.336183,1.561122 0.83244,4.912263 -1.339409,2.540476 0.403505,-2.648097 -2.944012,-4.625719 1.389246,-5.408454 z m -6.58388,0.02248 c -0.173693,1.701297 3.694525,4.345772 -0.475122,3.482799 -2.205083,0.256989 -5.507814,-0.06694 -2.729842,-2.796781 0.877785,-0.523548 3.182544,1.806291 1.983217,-0.371443 0.425205,-0.02696 0.821206,-0.186413 1.221747,-0.314575 z m -12.737877,3.685024 c -1.608357,1.029459 1.11216,1.818831 0,0 z m -40.385635,9.594546 c -0.271146,0.898732 5.086774,1.809527 1.389515,0.369651 L 26.6044,47.984689 25.766039,47.807781 z m 4.163004,1.280771 c -1.625169,1.639135 3.348323,0.489708 0,0 z m 54.345261,15.032212 c -3.531256,0.09052 -3.061795,9.139833 -0.600223,3.785261 0.233442,-1.161948 1.169076,-2.695561 0.600223,-3.785261 z"
               inkscape:connector-curvature="0"
               id="path4136"
               style="opacity:0.77454540999999999;fill:none;stroke:#062a09;stroke-width:0.48559491;stroke-miterlimit:4;stroke-opacity:1;stroke-dasharray:none;display:inline" />
          </g>
        </g>
        <g
           style="opacity:0.7"
           id="g4324"
           transform="matrix(0.90692096,0,0,0.90043117,-62.64703,-18.141298)">
          <rect
             transform="translate(-1.499875,-1.4)"
             style="opacity:0.7;fill:url(#linearGradient3448);fill-opacity:1;stroke:none"
             id="rect4146"
             width="92"
             height="92"
             x="2"
             y="-30"
             rx="3.9569874"
             ry="3.9569881"
             clip-path="url(#clipPath4156-4-0)" />
          <path
             sodipodi:nodetypes="ssccscss"
             style="opacity:0.1381818;fill:#ffffff;fill-opacity:1;stroke:none"
             d="m 4.468875,-31.4 c -2.192171,0 -3.96400836,1.776584 -3.96875,3.96875 l -0.163,75.3585 c 2.1045603,2.715549 1.8313808,2.596758 5.3354114,2.88575 1.9841699,-16.007558 40.1394806,-78.99425 85.1400886,-78.99425 0.536758,0 1.059349,0.02139 1.59375,0.03125 -0.333067,-1.850574 -1.925648,-3.25 -3.875,-3.25 z"
             id="rect4190"
             inkscape:connector-curvature="0" />
        </g>
        <rect
           ry="4.0419307"
           rx="0"
           y="-21.277252"
           x="-46.8484"
           height="4.0419307"
           width="72.882462"
           id="rect4141-5"
           style="opacity:0.55;fill:url(#radialGradient3450);fill-opacity:1;stroke:none"
           transform="matrix(0,1,-1,0,0,0)" />
        <rect
           style="opacity:0.55;fill:url(#radialGradient3452);fill-opacity:1;stroke:none"
           id="rect4131-3"
           width="80.125328"
           height="4.0358367"
           x="-60.483177"
           y="22.94783"
           rx="0"
           ry="4.0358367" />
      </g>
      <path
         inkscape:connector-curvature="0"
         id="path4989"
         d="m -23.803215,-36.775863 c -3.105924,0 -5.648511,2.526979 -5.648511,5.618143 l 0,68.936128 c 0,3.091165 2.542587,5.618142 5.648511,5.618142 l 76.528214,0 c 3.105924,0 5.648512,-2.526977 5.648512,-5.618142 l 0,-68.936128 c 0,-3.091164 -2.542588,-5.618143 -5.648512,-5.618143 l -76.528214,0 z m 0,2.307994 76.528214,0 c 1.881618,0 3.340518,1.47279 3.340518,3.310149 l 0,68.936128 c 0,1.837362 -1.4589,3.310149 -3.340518,3.310149 l -76.528214,0 c -1.881619,0 -3.340518,-1.472787 -3.340518,-3.310149 l 0,-68.936128 c 0,-1.837359 1.458899,-3.310149 3.340518,-3.310149 z"
         style="font-size:medium;font-style:normal;font-variant:normal;font-weight:normal;font-stretch:normal;text-indent:0;text-align:start;text-decoration:none;line-height:normal;letter-spacing:normal;word-spacing:normal;text-transform:none;direction:ltr;block-progression:tb;writing-mode:lr-tb;text-anchor:start;baseline-shift:baseline;color:#000000;fill:#000000;fill-opacity:0.87148593;stroke:none;stroke-width:2.3755002;marker:none;visibility:visible;display:inline;overflow:visible;enable-background:accumulate;font-family:Sans;-inkscape-font-specification:Sans" />
    </g>
  </g>
</svg>
