<?xml version="1.0" encoding="UTF-8" standalone="no"?>
<!-- Created with Inkscape (http://www.inkscape.org/) -->

<svg
   xmlns:dc="http://purl.org/dc/elements/1.1/"
   xmlns:cc="http://creativecommons.org/ns#"
   xmlns:rdf="http://www.w3.org/1999/02/22-rdf-syntax-ns#"
   xmlns:svg="http://www.w3.org/2000/svg"
   xmlns="http://www.w3.org/2000/svg"
   xmlns:xlink="http://www.w3.org/1999/xlink"
   xmlns:sodipodi="http://sodipodi.sourceforge.net/DTD/sodipodi-0.dtd"
   xmlns:inkscape="http://www.inkscape.org/namespaces/inkscape"
   width="96"
   height="96"
   viewBox="0 0 96.000001 96.000004"
   version="1.1"
   id="svg1072"
   inkscape:version="0.92.1 r15371"
   sodipodi:docname="applications-accessories.svg">
  <defs
     id="defs1066">
    <linearGradient
       id="linearGradient1000">
      <stop
         id="stop996"
         offset="0"
         style="stop-color:#ff95f5;stop-opacity:1" />
      <stop
         id="stop998"
         offset="1"
         style="stop-color:#980076;stop-opacity:1" />
    </linearGradient>
    <linearGradient
       y2="47.000011"
       x2="90"
       y1="47.000011"
       x1="6"
       gradientTransform="matrix(1.1071428,0,0,1.1071426,-4.9939026,-3.620687)"
       gradientUnits="userSpaceOnUse"
       id="linearGradient4071"
       xlink:href="#linearGradient6139-0"
       inkscape:collect="always" />
    <linearGradient
       id="linearGradient6139-0">
      <stop
         style="stop-color:#b4b9ba;stop-opacity:1"
         offset="0"
         id="stop6141-2" />
      <stop
         id="stop6151-0"
         offset="0.25"
         style="stop-color:#ffffff;stop-opacity:1;" />
      <stop
         id="stop6147-1"
         offset="0.5"
         style="stop-color:#98a0a2;stop-opacity:1" />
      <stop
         style="stop-color:#f9fafb;stop-opacity:1;"
         offset="0.75"
         id="stop6149-4" />
      <stop
         style="stop-color:#b4b8ba;stop-opacity:1"
         offset="1"
         id="stop6143-4" />
    </linearGradient>
    <linearGradient
       gradientUnits="userSpaceOnUse"
       y2="88.171875"
       x2="94.5"
       y1="88.171875"
       x1="1.5"
       id="linearGradient4129"
       xlink:href="#linearGradient3832-0-6-1-1"
       inkscape:collect="always"
       gradientTransform="translate(0.1489535,0.415026)" />
    <linearGradient
       id="linearGradient3832-0-6-1-1">
      <stop
         id="stop3834-6-3-7-1"
         offset="0"
         style="stop-color:#000000;stop-opacity:1;" />
      <stop
         style="stop-color:#000000;stop-opacity:0.58823532;"
         offset="0.1"
         id="stop3872-2-4" />
      <stop
         id="stop3844-6-2-7-6"
         offset="0.89999998"
         style="stop-color:#000000;stop-opacity:0.58823532;" />
      <stop
         id="stop3836-5-0-2-9"
         offset="1"
         style="stop-color:#000000;stop-opacity:1;" />
    </linearGradient>
    <radialGradient
       r="43.199203"
       fy="44.892841"
       fx="13.948145"
       cy="44.892841"
       cx="13.948145"
       gradientTransform="matrix(0.97513378,0,0,0.04919072,34.047649,80.581722)"
       gradientUnits="userSpaceOnUse"
       id="radialGradient7462"
       xlink:href="#linearGradient3737"
       inkscape:collect="always" />
    <linearGradient
       id="linearGradient3737">
      <stop
         id="stop3739"
         style="stop-color:#ffffff;stop-opacity:1"
         offset="0" />
      <stop
         id="stop3741"
         style="stop-color:#ffffff;stop-opacity:0"
         offset="1" />
    </linearGradient>
    <radialGradient
       r="43.199203"
       fy="44.892841"
       fx="13.948145"
       cy="44.892841"
       cx="13.948145"
       gradientTransform="matrix(0.88832663,0,0,0.04919072,31.959518,-90.31726)"
       gradientUnits="userSpaceOnUse"
       id="radialGradient7464"
       xlink:href="#linearGradient3737"
       inkscape:collect="always" />
    <linearGradient
       y2="14.514202"
       x2="50.527882"
       y1="-28.64156"
       x1="2.7713892"
       gradientUnits="userSpaceOnUse"
       id="linearGradient4767"
       xlink:href="#linearGradient3737"
       inkscape:collect="always" />
    <clipPath
       clipPathUnits="userSpaceOnUse"
       id="clipPath4156-4-1">
      <path
         style="opacity:0.6;fill:#ffffff;fill-opacity:1;stroke:none"
         d="m 27.046336,-55.695463 -14.21366,13.321486 h 0.06127 l 15.653407,21.770763 10.231384,-10.546177 C 38.561832,-32.30156 27.468089,-54.819245 27.046336,-55.695463 Z M 9.6468554,-39.382809 -5.2407289,-25.32124 15.987863,-7.8059573 26.372412,-18.382966 Z m 31.4906096,12.951445 -9.741259,9.713584 8.944804,12.4580526 7.780753,-7.5550056 z m -49.8397109,4.378822 -13.7541661,12.9822847 26.2830181,13.84571 0.06127,-0.0617 -0.122531,-0.0617 L 13.598503,-5.4007374 -8.7022409,-22.052595 Z m 38.0154159,7.400825 -9.802525,9.7752596 11.579232,9.5594001 7.62759,-7.40083 -8.669108,-11.0087257 z m 20.187073,5.6739697 -7.382526,7.2158 6.187844,8.54179 5.820249,-6.13651996 z m -32.195166,6.32154 -9.5574606,9.49772 13.6622686,7.1849703 7.933918,-7.6783603 z m 23.311629,2.37443004 -7.10683,6.93826996 8.362778,6.9074403 5.360756,-5.6739699 -0.06127,-0.0925 -0.0919,0.12335 -6.463539,-8.20258036 z m -8.730374,8.54178036 -7.505057,7.3391599 10.353916,5.45811 c 1.397496,-1.32103 5.67514,-6.12292 5.850882,-6.32154 z"
         id="path4158-0-8"
         inkscape:connector-curvature="0" />
    </clipPath>
    <filter
       style="color-interpolation-filters:sRGB"
       id="filter4325-0-1-4">
      <feGaussianBlur
         stdDeviation="1.439999"
         id="feGaussianBlur4327-0-0-6" />
    </filter>
    <radialGradient
       inkscape:collect="always"
       xlink:href="#linearGradient7450-3-9-4"
       id="radialGradient3863-2-3"
       gradientUnits="userSpaceOnUse"
       gradientTransform="matrix(0.62429531,-0.62429531,0.39740012,0.39740012,57.190344,56.707013)"
       cx="56.055019"
       cy="55.978848"
       fx="56.055019"
       fy="55.978848"
       r="52.251602" />
    <linearGradient
       id="linearGradient7450-3-9-4">
      <stop
         offset="0"
         style="stop-color:#e3e3e3;stop-opacity:1"
         id="stop7452-9-5-5" />
      <stop
         offset="1"
         style="stop-color:#939393;stop-opacity:1"
         id="stop7454-7-6-0" />
    </linearGradient>
    <linearGradient
       inkscape:collect="always"
       xlink:href="#linearGradient4282-4-3-9"
       id="linearGradient3865-1-2"
       gradientUnits="userSpaceOnUse"
       gradientTransform="matrix(0.68606059,0,0,0.68606059,75.974088,5.5532361)"
       x1="50.760078"
       y1="42.239994"
       x2="113.84038"
       y2="130.51231" />
    <linearGradient
       id="linearGradient4282-4-3-9">
      <stop
         offset="0"
         style="stop-color:#e8e8e8;stop-opacity:1"
         id="stop4284-2-1-1" />
      <stop
         offset="1"
         style="stop-color:#828282;stop-opacity:1"
         id="stop4286-9-6-5" />
    </linearGradient>
    <linearGradient
       inkscape:collect="always"
       xlink:href="#linearGradient3298-0-0-0"
       id="linearGradient3867-0-9"
       gradientUnits="userSpaceOnUse"
       x1="80.875443"
       y1="82.61515"
       x2="82.573708"
       y2="84.937546" />
    <linearGradient
       id="linearGradient3298-0-0-0">
      <stop
         offset="0"
         style="stop-color:#f9f9f9;stop-opacity:1"
         id="stop3300-8-8-8" />
      <stop
         offset="1"
         style="stop-color:#3c3c3c;stop-opacity:1"
         id="stop3302-0-9-6" />
    </linearGradient>
    <linearGradient
       y2="82.651672"
       x2="81.312866"
       y1="85.362457"
       x1="82.312332"
       gradientUnits="userSpaceOnUse"
       id="linearGradient5273"
       xlink:href="#linearGradient3298-0-0-0"
       inkscape:collect="always" />
    <linearGradient
       id="linearGradient4209">
      <stop
         id="stop4211"
         offset="0"
         style="stop-color:#9b9b9b;stop-opacity:1;" />
      <stop
         id="stop4213"
         offset="1"
         style="stop-color:#1a1a1a;stop-opacity:1;" />
    </linearGradient>
    <radialGradient
       inkscape:collect="always"
       xlink:href="#linearGradient4172"
       id="radialGradient4322"
       gradientUnits="userSpaceOnUse"
       gradientTransform="matrix(1.8333333,4.9999999e-8,0,0.33333331,-36.833333,2.999998)"
       cx="47.363636"
       cy="18"
       fx="47.363636"
       fy="18"
       r="6" />
    <linearGradient
       id="linearGradient4289">
      <stop
         style="stop-color:#faff00;stop-opacity:1;"
         offset="0"
         id="stop4291" />
      <stop
         style="stop-color:#959800;stop-opacity:1;"
         offset="1"
         id="stop4293" />
    </linearGradient>
    <linearGradient
       id="linearGradient4172">
      <stop
         style="stop-color:#19c62c;stop-opacity:1;"
         offset="0"
         id="stop4174" />
      <stop
         style="stop-color:#0b6b09;stop-opacity:1;"
         offset="1"
         id="stop4176" />
    </linearGradient>
    <radialGradient
       inkscape:collect="always"
       xlink:href="#linearGradient4289"
       id="radialGradient968"
       gradientUnits="userSpaceOnUse"
       gradientTransform="matrix(1.8333333,4.9999999e-8,0,0.33333331,-36.833333,2.999998)"
       cx="47.363636"
       cy="18"
       fx="47.363636"
       fy="18"
       r="6" />
    <radialGradient
       inkscape:collect="always"
       xlink:href="#linearGradient3298-0-0-0"
       id="radialGradient976"
       gradientUnits="userSpaceOnUse"
       gradientTransform="matrix(1.8333333,4.9999999e-8,0,0.33333331,-36.833333,2.999998)"
       cx="47.363636"
       cy="18"
       fx="47.363636"
       fy="18"
       r="6" />
    <linearGradient
       inkscape:collect="always"
       xlink:href="#linearGradient4209"
       id="linearGradient984"
       x1="-15.173995"
       y1="28.04744"
       x2="6.8260045"
       y2="28.04744"
       gradientUnits="userSpaceOnUse" />
    <radialGradient
       inkscape:collect="always"
       xlink:href="#linearGradient1000"
       id="radialGradient994"
       cx="53.5"
       cy="10.5"
       fx="53.5"
       fy="10.5"
       r="6.5"
       gradientTransform="matrix(1,0,0,0.38461538,0,6.4615385)"
       gradientUnits="userSpaceOnUse" />
  </defs>
  <sodipodi:namedview
     id="base"
     pagecolor="#ffffff"
     bordercolor="#666666"
     borderopacity="1.0"
     inkscape:pageopacity="0.0"
     inkscape:pageshadow="2"
     inkscape:zoom="2.3357066"
     inkscape:cx="-24.447186"
     inkscape:cy="44.557005"
     inkscape:document-units="px"
     inkscape:current-layer="g2574"
     showgrid="false"
     inkscape:showpageshadow="false"
     units="px"
     inkscape:lockguides="false"
     inkscape:window-width="1280"
     inkscape:window-height="972"
     inkscape:window-x="0"
     inkscape:window-y="26"
     inkscape:window-maximized="1"
     inkscape:snap-global="false" />
  <metadata
     id="metadata1069">
    <rdf:RDF>
      <cc:Work
         rdf:about="">
        <dc:format>image/svg+xml</dc:format>
        <dc:type
           rdf:resource="http://purl.org/dc/dcmitype/StillImage" />
        <dc:title></dc:title>
        <dc:date>2017</dc:date>
        <dc:creator>
          <cc:Agent>
            <dc:title>Cristian Pozzessere &quot;ilnanny&quot;</dc:title>
          </cc:Agent>
        </dc:creator>
        <dc:subject>
          <rdf:Bag>
            <rdf:li>Global language</rdf:li>
          </rdf:Bag>
        </dc:subject>
        <dc:description>Playing with Inkscape on Gnu/Linux O. S.</dc:description>
        <dc:contributor>
          <cc:Agent>
            <dc:title>In the night, alone like a dog.</dc:title>
          </cc:Agent>
        </dc:contributor>
        <cc:license
           rdf:resource="http://creativecommons.org/licenses/by-sa/4.0/" />
      </cc:Work>
      <cc:License
         rdf:about="http://creativecommons.org/licenses/by-sa/4.0/">
        <cc:permits
           rdf:resource="http://creativecommons.org/ns#Reproduction" />
        <cc:permits
           rdf:resource="http://creativecommons.org/ns#Distribution" />
        <cc:requires
           rdf:resource="http://creativecommons.org/ns#Notice" />
        <cc:requires
           rdf:resource="http://creativecommons.org/ns#Attribution" />
        <cc:permits
           rdf:resource="http://creativecommons.org/ns#DerivativeWorks" />
        <cc:requires
           rdf:resource="http://creativecommons.org/ns#ShareAlike" />
      </cc:License>
    </rdf:RDF>
  </metadata>
  <g
     inkscape:label="Livello 1"
     inkscape:groupmode="layer"
     id="layer1"
     transform="translate(0,-1026.5197)">
    <g
       transform="translate(-0.14895645,1026.1047)"
       style="display:inline"
       id="g2574">
      <path
         inkscape:connector-curvature="0"
         id="path3288"
         d="M 89.29181,0.415026 H 7.0060911 c -3.798848,0 -6.8571352,3.058285 -6.8571352,6.8571399 V 89.557884 c 0,3.798857 3.0582872,6.857142 6.8571352,6.857142 H 89.29181 c 3.798857,0 6.857147,-3.058285 6.857147,-6.857142 V 7.2721659 c 0,-3.7988549 -3.05829,-6.8571399 -6.857147,-6.8571399 z"
         style="display:inline;opacity:0.15;fill:#000000;fill-opacity:1;fill-rule:nonzero;stroke:none" />
      <path
         style="display:inline;opacity:0.15;fill:#000000;fill-opacity:1;fill-rule:nonzero;stroke:none"
         d="M 88.648954,1.165026 H 7.6489471 c -3.739492,0 -6.749993,3.010499 -6.749993,6.7499969 V 88.915026 c 0,3.739501 3.010501,6.75 6.749993,6.75 H 88.648954 c 3.739503,0 6.750003,-3.010499 6.750003,-6.75 V 7.9150229 c 0,-3.7394979 -3.0105,-6.7499969 -6.750003,-6.7499969 z"
         id="path4085"
         inkscape:connector-curvature="0" />
      <path
         inkscape:connector-curvature="0"
         id="rect4251-1"
         d="M 88.006093,1.915026 H 8.2918111 c -3.680143,0 -6.6428566,2.962713 -6.6428566,6.6428549 V 88.272171 c 0,3.680142 2.9627136,6.642856 6.6428566,6.642856 H 88.006093 c 3.680143,0 6.642854,-2.962714 6.642854,-6.642856 V 8.5578809 c 0,-3.6801419 -2.962711,-6.6428549 -6.642854,-6.6428549 z"
         style="display:inline;fill:url(#linearGradient4071);fill-opacity:1;fill-rule:nonzero;stroke:none" />
      <path
         sodipodi:nodetypes="sscccsccscccsss"
         inkscape:connector-curvature="0"
         id="path3400-6"
         d="m 11.390247,6.8021682 c -2.8564964,0 -5.1241284,2.3146876 -5.1241284,5.2304538 v 21.67369 7.322634 40.372561 c 1.0972399,1.70385 2.9688485,2.844058 5.1241284,2.844058 h 4.099303 65.588849 4.099302 c 2.155281,0 4.026889,-1.140208 5.124129,-2.844058 V 41.028946 33.706312 12.032622 c 0,-2.9157662 -2.267632,-5.2304538 -5.124129,-5.2304538 z"
         style="display:inline;opacity:0.77864583;fill:#e2daeb;fill-opacity:1;fill-rule:nonzero;stroke:none;stroke-width:1.03540373" />
      <path
         style="color:#000000;font-style:normal;font-variant:normal;font-weight:normal;font-stretch:normal;font-size:medium;line-height:normal;font-family:Sans;-inkscape-font-specification:Sans;text-indent:0;text-align:start;text-decoration:none;text-decoration-line:none;letter-spacing:normal;word-spacing:normal;text-transform:none;writing-mode:lr-tb;direction:ltr;baseline-shift:baseline;text-anchor:start;display:inline;overflow:visible;visibility:visible;fill:#1f2224;fill-opacity:0.63265303;stroke:none;stroke-width:2.3755002;marker:none;enable-background:accumulate"
         d="m 9.9740341,5.1444869 c -3.116621,0 -5.667965,2.53951 -5.667965,5.6460041 v 69.277996 c 0,3.106495 2.551344,5.646004 5.667965,5.646004 H 86.765819 c 3.116621,0 5.667968,-2.539509 5.667968,-5.646004 V 10.790491 c 0,-3.1064931 -2.551347,-5.6460041 -5.667968,-5.6460041 z m 0,2.319439 H 86.765819 c 1.888099,0 3.352022,1.480095 3.352022,3.3265651 v 69.277996 c 0,1.846474 -1.463923,3.326564 -3.352022,3.326564 H 9.9740341 c -1.888099,0 -3.352022,-1.48009 -3.352022,-3.326564 V 10.790491 c 0,-1.8464701 1.463923,-3.3265651 3.352022,-3.3265651 z"
         id="path4989"
         inkscape:connector-curvature="0" />
      <path
         id="path4118"
         d="m 1.6489535,82.258776 v 6 c 0,3.680142 2.9761066,6.65625 6.6562496,6.65625 H 87.992703 c 3.680143,0 6.656254,-2.976108 6.656254,-6.65625 v -6 c 0,3.680142 -2.976111,6.65625 -6.656254,6.65625 H 8.3052031 c -3.680143,0 -6.6562496,-2.976108 -6.6562496,-6.65625 z"
         style="display:inline;opacity:0.65818182;fill:url(#linearGradient4129);fill-opacity:1;fill-rule:nonzero;stroke:none"
         inkscape:connector-curvature="0" />
      <rect
         ry="4.25"
         rx="0"
         y="80.665031"
         x="5.5239539"
         height="4.25"
         width="84.250008"
         id="rect4131"
         style="opacity:0.55;fill:url(#radialGradient7462);fill-opacity:1;stroke:none" />
      <rect
         transform="rotate(90)"
         style="opacity:0.669;fill:url(#radialGradient7464);fill-opacity:1;stroke:none"
         id="rect4141"
         width="76.75"
         height="4.25"
         x="5.9750223"
         y="-90.233963"
         rx="0"
         ry="4.25" />
      <g
         style="display:inline"
         id="g3857"
         transform="matrix(0.65083476,0,0,0.65083476,-23.355271,13.9306)">
        <path
           d="m 131.78125,29.59375 -0.125,0.3125 L 130.5,32.6875 130.4688,32.75 v 0.03125 l -0.34375,2 v 0.0625 0.0625 l 0.0312,0.3125 -2.09375,0.25 -0.0312,-0.25 v -0.0625 L 128,35.09375 127.15625,33.25 127.125,33.1875 127.09375,33.125 125.25,30.75 l -0.1875,-0.28125 -0.34375,0.09375 -1.875,0.5 -0.34375,0.09375 -0.0312,0.34375 -0.40625,2.96875 v 0.0625 0.0625 l 0.21875,2.03125 v 0.0625 0.0625 l 0.0937,0.25 -1.90625,0.78125 -0.125,-0.21875 L 120.3125,37.5 120.28125,37.4375 119,35.875 l -0.0312,-0.03125 -0.0625,-0.0625 -2.40625,-1.8125 -0.28125,-0.21875 -0.28125,0.15625 -1.6875,1 -0.28125,0.15625 0.0312,0.34375 0.40625,3 v 0.0625 l 0.0312,0.03125 0.6875,1.90625 0.0312,0.0625 0.0312,0.03125 0.15625,0.25 -1.65625,1.28125 -0.1875,-0.21875 -0.0312,-0.0625 -0.0312,-0.03125 -1.65625,-1.1875 -0.0625,-0.03125 -0.0312,-0.03125 -2.8125,-1.125 -0.3125,-0.125 -0.21875,0.21875 -1.40625,1.375 -0.21875,0.25 0.125,0.3125 1.15625,2.78125 0.0312,0.0625 0.0312,0.03125 1.15625,1.65625 0.0312,0.0625 0.0625,0.03125 0.21875,0.1875 -1.28125,1.65625 -0.21875,-0.15625 -0.0625,-0.03125 -0.0312,-0.03125 -1.90625,-0.71875 -0.0625,-0.03125 h -0.0625 l -3,-0.375 -0.3125,-0.0625 -0.1875,0.3125 -0.96875,1.6875 -0.15625,0.28125 0.1875,0.28125 1.8125,2.40625 0.0625,0.03125 0.0312,0.03125 1.59375,1.3125 0.0312,0.03125 0.0625,0.03125 0.25,0.125 -0.78125,1.90625 -0.28125,-0.09375 -0.0625,-0.03125 h -0.0625 l -2.03125,-0.1875 -0.0312,-0.03125 L 102,54.5625 99,54.96875 98.6875,55 l -0.0937,0.34375 -0.53125,1.875 -0.0625,0.3125 0.25,0.21875 2.375,1.84375 0.0625,0.03125 0.0625,0.03125 1.84375,0.84375 0.0625,0.03125 h 0.0625 l 0.28125,0.03125 -0.28125,2.09375 -0.28125,-0.03125 h -0.0625 -0.0625 l -2,0.3125 -0.0625,0.03125 h -0.0625 l -2.78125,1.1875 -0.3125,0.125 v 0.3125 1.96875 0.34375 l 0.3125,0.125 2.78125,1.15625 0.0625,0.03125 h 0.0625 l 2,0.34375 h 0.0625 0.0625 L 102.7188,68.53125 103,70.625 l -0.28125,0.03125 h -0.0625 l -0.0625,0.03125 -1.84375,0.84375 -0.0625,0.03125 -0.0625,0.03125 -2.375,1.84375 -0.25,0.21875 0.0625,0.3125 0.53125,1.875 0.0937,0.34375 0.3125,0.03125 3,0.40625 h 0.0625 0.0312 l 2.03125,-0.1875 0.0625,-0.03125 h 0.0625 l 0.28125,-0.09375 0.78125,1.90625 -0.25,0.125 L 105,78.375 l -0.0312,0.03125 -1.59375,1.28125 -0.0312,0.0625 -0.0625,0.03125 -1.8125,2.40625 -0.1875,0.28125 0.15625,0.28125 0.96875,1.6875 0.1875,0.28125 0.3125,-0.03125 3,-0.40625 h 0.0625 0.0312 L 107.9063,83.5625 107.9688,83.53125 108.03125,83.5 108.25,83.34375 109.53125,85 109.3125,85.1875 109.25,85.21875 109.21875,85.25 108.0625,86.90625 108,86.96875 V 87 l -1.15625,2.8125 -0.125,0.3125 0.21875,0.25 1.40625,1.375 0.21875,0.21875 0.3125,-0.125 2.8125,-1.15625 h 0.0312 l 0.0625,-0.03125 1.65625,-1.1875 0.0312,-0.03125 0.0312,-0.0625 0.1875,-0.21875 1.65625,1.28125 -0.15625,0.21875 -0.0312,0.0625 -0.0312,0.0625 -0.6875,1.90625 -0.0312,0.03125 v 0.0625 l -0.40625,3 -0.0312,0.3125 0.28125,0.1875 1.6875,0.96875 0.28125,0.15625 0.28125,-0.1875 2.40625,-1.8125 0.0625,-0.03125 0.0312,-0.0625 1.28125,-1.59375 0.0312,-0.03125 0.0312,-0.0625 0.125,-0.21875 1.90625,0.78125 -0.0937,0.25 V 94.5 94.5625 l -0.21875,2.03125 v 0.0625 0.03125 l 0.40625,3 0.0312,0.34375 0.34375,0.0625 1.875,0.53125 0.34375,0.0625 0.1875,-0.25 1.84375,-2.375 L 127.125,98 127.15625,97.9375 128,96.09375 l 0.0312,-0.0625 v -0.0625 l 0.0312,-0.28125 2.09375,0.28125 -0.0312,0.28125 v 0.0625 0.0625 l 0.34375,2.03125 v 0.03125 l 0.0312,0.0625 1.15625,2.78125 0.125,0.3125 h 0.34375 1.96875 0.3125 l 0.125,-0.3125 1.1875,-2.78125 0.0312,-0.0625 V 98.375 l 0.3125,-2 V 96.3125 96.25 95.96875 l 2.0625,-0.28125 0.0312,0.28125 0.0312,0.0625 v 0.0625 l 0.84375,1.875 0.0312,0.03125 0.0312,0.0625 1.875,2.375 0.1875,0.28125 0.3125,-0.0937 1.90625,-0.53125 0.3125,-0.0625 0.0312,-0.34375 0.4375,-3 V 96.6563 96.5938 l -0.21875,-2.03125 v -0.0625 l -0.0312,-0.0625 -0.0937,-0.25 1.9375,-0.78125 0.125,0.21875 v 0.0625 l 0.0625,0.03125 1.28125,1.59375 0.0312,0.03125 0.0625,0.0625 2.375,1.8125 0.28125,0.1875 0.28125,-0.15625 1.71875,-0.96875 0.28125,-0.1875 -0.0625,-0.3125 -0.375,-3 V 92.7188 L 151.78095,92.68755 151.0622,90.7813 151.031,90.7188 151,90.6563 150.84375,90.43755 152.5,89.1563 l 0.1875,0.21875 0.0312,0.0625 0.0625,0.03125 1.65625,1.1875 0.0312,0.03125 h 0.0625 l 2.78125,1.15625 0.3125,0.125 0.25,-0.21875 1.375,-1.375 0.21875,-0.25 -0.125,-0.3125 -1.125,-2.78125 -0.0312,-0.0625 -0.0312,-0.0625 -1.1875,-1.6563 -0.0312,-0.03125 L 156.875,85.1875 156.65625,85 l 1.28125,-1.65625 0.25,0.15625 0.0312,0.03125 0.0625,0.03125 1.90625,0.71875 h 0.0312 0.0625 l 3,0.40625 0.34375,0.03125 0.15625,-0.28125 1,-1.6875 0.15625,-0.28125 L 164.75,82.1875 162.90625,79.78125 162.875,79.75 162.8125,79.6875 161.25,78.40625 161.1875,78.375 l -0.0312,-0.03125 -0.25,-0.125 0.78125,-1.90625 0.28125,0.09375 H 162 l 0.0625,0.03125 2.03125,0.1875 h 0.0625 0.0625 l 3,-0.40625 0.3125,-0.03125 0.0937,-0.34375 0.5,-1.875 0.0937,-0.3125 -0.25,-0.21875 -2.40625,-1.84375 -0.0625,-0.03125 -0.0312,-0.03125 -1.875,-0.84375 h -0.0312 l -0.0625,-0.03125 -0.28125,-0.0625 0.25,-2.0625 0.3125,0.03125 h 0.0625 0.0625 l 2,-0.34375 h 0.0312 l 0.0625,-0.03125 2.78125,-1.15625 0.3125,-0.125 v -0.34375 -1.96875 -0.3125 l -0.3125,-0.125 -2.78125,-1.1875 h -0.0625 l -0.0312,-0.03125 -2,-0.3125 h -0.0625 -0.0625 l -0.3125,0.03125 -0.25,-2.0625 0.28125,-0.0625 h 0.0625 l 0.0312,-0.03125 1.875,-0.84375 0.0312,-0.03125 0.0625,-0.03125 2.40625,-1.84375 0.25,-0.21875 -0.0937,-0.3125 -0.5,-1.875 -0.0937,-0.34375 -0.3125,-0.03125 -3,-0.40625 -0.0625,-0.03125 -0.0625,0.03125 -2.03125,0.1875 H 162 l -0.0312,0.03125 -0.28125,0.09375 -0.78125,-1.90625 0.25,-0.125 0.0312,-0.03125 0.0625,-0.0625 1.5625,-1.28125 0.0625,-0.03125 0.0312,-0.03125 L 164.75,49 l 0.1875,-0.28125 -0.15625,-0.28125 -1,-1.6875 -0.15625,-0.3125 -0.34375,0.0625 -3,0.375 h -0.0625 l -0.0312,0.03125 -1.90625,0.71875 -0.0625,0.03125 -0.0312,0.03125 -0.25,0.15625 L 156.65625,46.1875 156.875,46 l 0.0625,-0.03125 0.0312,-0.0625 1.1875,-1.65625 0.0312,-0.03125 0.0312,-0.0625 1.125,-2.78125 0.125,-0.3125 -0.21875,-0.25 -1.375,-1.375 -0.25,-0.21875 -0.3125,0.125 -2.78125,1.125 -0.0625,0.03125 -0.0312,0.03125 -1.65625,1.1875 -0.0625,0.03125 -0.0312,0.0625 L 152.5,42.03125 150.84375,40.75 151,40.5 l 0.0312,-0.03125 0.0312,-0.0625 0.71875,-1.875 0.0312,-0.0625 v -0.0625 l 0.375,-3 0.0625,-0.34375 -0.28125,-0.15625 -1.71875,-1 -0.28125,-0.15625 -0.28125,0.21875 -2.375,1.8125 -0.0625,0.0625 -0.0312,0.03125 -1.28125,1.5625 -0.0625,0.0625 v 0.0625 l -0.125,0.21875 L 143.8125,37 l 0.0937,-0.25 0.0312,-0.0625 V 36.625 l 0.21875,-2.03125 v -0.0625 -0.0625 l -0.4375,-3 -0.0312,-0.3125 -0.3125,-0.09375 -1.90625,-0.5 -0.3125,-0.09375 -0.1875,0.28125 -1.875,2.375 -0.0312,0.0625 -0.0312,0.0625 -0.84375,1.84375 v 0.0625 l -0.0312,0.0625 -0.0312,0.25 -2.0625,-0.25 v -0.3125 -0.0625 -0.03125 l -0.3125,-2 V 32.75 l -0.0312,-0.0625 -1.1875,-2.78125 -0.125,-0.3125 h -0.3125 -1.96875 -0.34375 z m 1.3125,11.25 c 3.00487,0 5.8668,0.5801 8.53125,1.5625 l -5.03125,9.71875 c -1.11926,-0.29204 -2.28659,-0.5 -3.5,-0.5 -2.5358,0 -4.88718,0.75317 -6.9375,1.9375 l -7.5,-8.03125 c 4.07027,-2.93291 9.04019,-4.6875 14.4375,-4.6875 z m 14,4.40625 c 6.47931,4.46428 10.75,11.88069 10.75,20.34375 0,0.46501 -0.004,0.91495 -0.0312,1.375 L 147,65 c -0.16937,-4.04662 -2.03399,-7.61974 -4.9375,-10.0625 z m -32.9375,4.46875 7.46875,8.03125 c -1.53748,2.24382 -2.5,4.92291 -2.5,7.84375 0,0.99261 0.1463,1.93879 0.34375,2.875 l -9.9375,4.5625 c -0.74755,-2.3574 -1.1875,-4.83468 -1.1875,-7.4375 0,-6.04788 2.20702,-11.5753 5.8125,-15.875 z m 31.75,21.3125 10.75,1.9375 c -2.52971,8.0632 -9.03636,14.32893 -17.25,16.5 l -1.4375,-10.8125 c 3.5908,-1.3384 6.44104,-4.11452 7.9375,-7.625 z m -23.875,3.03125 c 2.31811,3.02269 5.83523,5.05478 9.84375,5.40625 l 1.46875,10.875 c -0.0809,9.2e-4 -0.16914,0 -0.25,0 -8.87641,0 -16.59545,-4.6966 -20.96875,-11.71875 z"
           inkscape:connector-curvature="0"
           id="path4312"
           style="color:#000000;font-style:normal;font-variant:normal;font-weight:normal;font-stretch:normal;font-size:medium;line-height:normal;font-family:'Abandoned Bitplane';-inkscape-font-specification:'Abandoned Bitplane';text-indent:0;text-align:start;text-decoration:none;text-decoration-line:none;letter-spacing:normal;word-spacing:normal;text-transform:none;writing-mode:lr-tb;direction:ltr;text-anchor:start;display:inline;overflow:visible;visibility:visible;fill:#000000;fill-opacity:1;stroke:none;stroke-width:1;marker:none;filter:url(#filter4325-0-1-4);enable-background:accumulate" />
        <path
           d="m 132.12562,28.089748 -1.16672,2.789418 -0.33527,1.998189 0.067,0.764408 -3.01739,0.388909 -0.13411,-0.737587 -0.83146,-1.850671 -1.85067,-2.400509 -1.89091,0.509605 -0.40232,2.990579 0.20116,2.02501 0.2548,0.710765 -2.80283,1.166727 -0.32185,-0.683943 -1.28743,-1.569048 -2.41391,-1.837261 -1.68975,0.978978 0.38891,3.003989 0.71077,1.890904 0.42914,0.630301 -2.40051,1.850672 -0.4962,-0.576659 -1.64951,-1.193549 -2.80282,-1.139906 -1.3813,1.381299 1.15331,2.789418 1.18014,1.649511 0.57666,0.496195 -1.85067,2.41392 -0.61689,-0.429142 -1.90432,-0.724176 -2.99058,-0.388909 -0.97898,1.703154 1.82385,2.400509 1.58246,1.287424 0.67054,0.321856 -1.15332,2.802829 -0.71076,-0.254803 -2.02501,-0.20116 -2.990581,0.415731 -0.509606,1.877493 2.387097,1.850671 1.85067,0.844872 0.751,0.134107 -0.40232,3.003989 -0.751,-0.05364 -2.0116,0.321856 -2.789416,1.166729 v 1.957956 l 2.789416,1.166728 2.0116,0.335267 0.751,-0.06706 0.40232,3.017399 -0.751,0.134107 -1.85067,0.831461 -2.387097,1.850672 0.509606,1.890904 2.990581,0.402319 2.02501,-0.201159 0.71076,-0.254803 1.15332,2.802829 -0.67054,0.321858 -1.58246,1.287421 -1.82385,2.413924 0.97898,1.68974 2.99058,-0.388907 1.90432,-0.710766 0.61689,-0.429137 1.85067,2.400505 -0.57666,0.496193 -1.18014,1.649509 -1.15331,2.802832 1.3813,1.381294 2.80282,-1.153316 1.64951,-1.180134 0.4962,-0.576661 2.40051,1.850669 -0.42914,0.616892 -0.71077,1.904312 -0.38891,2.990579 1.68975,0.978981 2.41391,-1.823851 1.28743,-1.58246 0.32185,-0.670528 2.80283,1.153316 -0.2548,0.710765 -0.20116,2.025011 0.40232,2.990572 1.89091,0.509606 1.85067,-2.387093 0.83146,-1.850676 0.13411,-0.750996 3.01739,0.40232 -0.067,0.750996 0.33527,2.011598 1.16672,2.78942 h 1.95796 l 1.16673,-2.78942 0.32186,-2.011598 -0.0536,-0.750996 3.00398,-0.40232 0.13411,0.750996 0.84487,1.850676 1.85068,2.387093 1.87749,-0.509606 0.41573,-2.990572 -0.20116,-2.025011 -0.25481,-0.710765 2.80283,-1.153316 0.32186,0.670528 1.28742,1.58246 2.40052,1.823851 1.70315,-0.978981 -0.38891,-2.990579 -0.72418,-1.904312 -0.42914,-0.616892 2.41392,-1.850669 0.4962,0.576661 1.64951,1.180134 2.78941,1.153316 1.38131,-1.381294 -1.13991,-2.802832 -1.19355,-1.649509 -0.57666,-0.496193 1.85067,-2.400505 0.6303,0.429137 1.89091,0.710766 3.00398,0.388907 0.97898,-1.68974 -1.83726,-2.413924 -1.56905,-1.287421 -0.68394,-0.321858 1.16673,-2.802829 0.71077,0.254803 2.02501,0.201159 2.99058,-0.402319 0.50959,-1.890904 -2.4005,-1.850672 -1.85067,-0.831461 -0.73759,-0.134107 0.38891,-3.017399 0.7644,0.06706 1.9982,-0.335267 2.78942,-1.166728 v -1.957956 l -2.78942,-1.166729 -1.9982,-0.321856 -0.7644,0.05364 -0.38891,-3.003989 0.73759,-0.134107 1.85067,-0.844872 2.4005,-1.850671 -0.50959,-1.877493 -2.99058,-0.415731 -2.02501,0.20116 -0.71077,0.254803 -1.16673,-2.802829 0.68394,-0.321856 1.56905,-1.287424 1.83726,-2.400509 -0.97898,-1.703154 -3.00398,0.388909 -1.89091,0.724176 -0.6303,0.429142 -1.85067,-2.41392 0.57666,-0.496195 1.19354,-1.649511 1.13991,-2.789418 -1.3813,-1.381299 -2.78942,1.139906 -1.6495,1.193549 -0.4962,0.576659 -2.41392,-1.850672 0.42914,-0.630301 0.72418,-1.890904 0.38891,-3.003989 -1.70316,-0.978978 -2.40051,1.837261 -1.28742,1.569048 -0.32186,0.683943 -2.80283,-1.166727 0.25481,-0.710765 0.20116,-2.02501 -0.41574,-2.990579 -1.87748,-0.509605 -1.85068,2.400509 -0.84487,1.850671 -0.13411,0.737587 -3.00398,-0.388909 0.0536,-0.764408 -0.32186,-1.998189 -1.16673,-2.789418 z m 0.97898,10.245748 c 3.2634,0 6.37629,0.628861 9.23995,1.756796 l -5.45814,10.581015 c -1.20161,-0.351993 -2.46687,-0.549837 -3.78181,-0.549837 -2.60731,0 -5.04501,0.753623 -7.10765,2.03842 l -8.10004,-8.730342 c 4.23295,-3.196292 9.49916,-5.096052 15.20769,-5.096052 z m 13.81299,4.130484 c 6.88476,4.511111 11.43929,12.279221 11.43929,21.121796 0,0.660386 -0.0307,1.310249 -0.0805,1.957957 l -11.70747,-2.118884 c -0.0502,-4.206135 -2.04217,-7.944403 -5.10947,-10.379855 z m -32.80249,4.465751 8.10004,8.730343 c -1.62504,2.224761 -2.57484,4.961666 -2.57484,7.925702 0,1.094231 0.12876,2.159589 0.37549,3.178328 l -10.82241,4.961945 c -0.87197,-2.556846 -1.35447,-5.290174 -1.35447,-8.140273 0,-6.379151 2.36912,-12.210214 6.27619,-16.656045 z m 31.52847,21.550938 11.72093,2.132296 c -2.50457,8.663488 -9.52889,15.418694 -18.3458,17.541146 l -1.59586,-11.814793 c 3.76346,-1.276375 6.78027,-4.173902 8.22074,-7.858649 z m -23.48207,2.963757 c 2.30137,3.196617 5.9752,5.33762 10.15187,5.578832 l 1.59587,11.814794 c -0.26745,0.0084 -0.53515,0.01345 -0.80464,0.01345 -9.26567,0 -17.36804,-4.998041 -21.76551,-12.445091 L 122.1615,71.44646 Z"
           inkscape:connector-curvature="0"
           id="path6159"
           style="fill:url(#radialGradient3863-2-3);fill-opacity:1;stroke:url(#linearGradient3865-1-2);stroke-width:1;stroke-miterlimit:4;stroke-dasharray:none;stroke-opacity:1" />
        <path
           d="m 83.038866,84.007065 a 1.2367495,1.2367495 0 1 1 -2.473499,0 1.2367495,1.2367495 0 1 1 2.473499,0 z"
           transform="matrix(2.2107174,0,0,2.2107174,-47.74347,-122.1214)"
           id="path7458"
           style="fill:#b8b8b8;fill-opacity:1;fill-rule:nonzero;stroke:url(#linearGradient3867-0-9);stroke-width:0.45234182;stroke-linecap:butt;stroke-linejoin:round;stroke-miterlimit:4;stroke-dasharray:none;stroke-dashoffset:0;stroke-opacity:1"
           inkscape:connector-curvature="0" />
        <path
           d="m 83.038866,84.007065 a 1.2367495,1.2367495 0 1 1 -2.473499,0 1.2367495,1.2367495 0 1 1 2.473499,0 z"
           id="path7546"
           style="fill:none;stroke:url(#linearGradient5273);stroke-width:0.34587052;stroke-linecap:butt;stroke-linejoin:round;stroke-miterlimit:4;stroke-dasharray:none;stroke-dashoffset:0;stroke-opacity:1"
           inkscape:connector-curvature="0"
           transform="matrix(5.7825105,0,0,5.7825105,-339.9237,-422.17725)" />
      </g>
      <g
         id="g3493"
         transform="translate(28.213836,13.247543)">
        <circle
           style="color:#000000;display:inline;overflow:visible;visibility:visible;fill:#4d4d4d;fill-opacity:0.14426527;fill-rule:nonzero;stroke:none;stroke-width:2.5;marker:none;enable-background:accumulate"
           id="path3794"
           cx="-4.173995"
           cy="28.04744"
           r="13" />
        <path
           style="color:#000000;display:inline;overflow:visible;visibility:visible;fill:#4d4d4d;fill-opacity:0.53956836;fill-rule:nonzero;stroke:none;stroke-width:2.5;marker:none;enable-background:accumulate"
           d="m -4.1739953,15.04744 c -7.1797017,0 -12.9999997,5.820298 -12.9999997,13 0,3.846514 1.688561,7.276075 4.34375,9.65625 -2.062536,-2.300848 -3.34375,-5.323062 -3.34375,-8.65625 0,-7.179702 5.820298,-13 12.9999997,-13 3.333188,0 6.355402,1.281214 8.65625,3.34375 -2.380175,-2.655189 -5.809736,-4.34375 -9.65625,-4.34375 z"
           id="path3789"
           inkscape:connector-curvature="0" />
        <path
           inkscape:connector-curvature="0"
           style="color:#000000;display:inline;overflow:visible;visibility:visible;fill:#ffffff;fill-opacity:0.85971224;fill-rule:nonzero;stroke:none;stroke-width:2.5;marker:none;enable-background:accumulate"
           d="m 5.4822547,19.39119 c 2.062536,2.300848 3.3437503,5.323062 3.3437503,8.65625 0,7.179702 -5.8202983,13 -13.0000003,13 -3.333188,0 -6.3554017,-1.281214 -8.6562497,-3.34375 2.380175,2.655189 5.8097357,4.34375 9.6562497,4.34375 7.179702,0 13.0000003,-5.820298 13.0000003,-13 0,-3.846514 -1.688561,-7.276075 -4.3437503,-9.65625 z"
           id="path3786" />
        <path
           id="path3801"
           d="m -2.1738789,17.04744 -4,10 -10.0000011,4 2,2 h 8.0000011 l -2,6 2,2 h 5.99999995 v -8 H 7.8261214 v -6 l -2.0000004,-2 -5.99999995,2 v -8 z"
           style="color:#000000;display:inline;overflow:visible;visibility:visible;fill:#4d4d4d;fill-opacity:0.40287769;fill-rule:nonzero;stroke:none;stroke-width:2.5;marker:none;enable-background:accumulate"
           inkscape:connector-curvature="0"
           sodipodi:nodetypes="ccccccccccccccc" />
        <path
           id="path3799"
           d="m -7.1739953,17.04744 v 8 h -7.9999997 v 6 h 7.9999997 v 8 h 6 v -8 h 8 v -6 h -8 v -8 z"
           style="color:#000000;display:inline;overflow:visible;visibility:visible;fill:url(#linearGradient984);fill-opacity:1.0;fill-rule:nonzero;stroke:none;stroke-width:2.5;marker:none;enable-background:accumulate"
           inkscape:connector-curvature="0" />
        <circle
           style="color:#000000;display:inline;overflow:visible;visibility:visible;fill:#c5c5c5;fill-opacity:1;fill-rule:nonzero;stroke:none;stroke-width:2.5;marker:none;enable-background:accumulate"
           id="path4184"
           cx="-4.173995"
           cy="28.04744"
           r="2" />
        <g
           transform="matrix(0.93271417,0,-0.27717939,0.7558116,-0.85269904,0.4143514)"
           style="font-style:normal;font-variant:normal;font-weight:bold;font-stretch:normal;font-size:21.77797127px;line-height:125%;font-family:'Space Age';-inkscape-font-specification:'Space Age Bold';letter-spacing:0px;word-spacing:0px;fill:#000000;fill-opacity:0.51452284;stroke:none"
           id="text4340">
          <path
             d="m -16.29515,5.7032884 c -1e-6,-0.5517017 0.08711,-1.1034098 0.261336,-1.6551258 0.188741,-0.5662187 0.457335,-1.0743709 0.805785,-1.524458 0.348445,-0.4645868 0.769485,-0.8420712 1.263122,-1.1324545 0.49363,-0.290362 1.052597,-0.43554837 1.676904,-0.43555945 H 0.40855406 C 0.69890893,0.95570173 0.94572569,1.0573322 1.1490051,1.2605822 1.3522474,1.4638539 1.4538778,1.7106706 1.4538967,2.0010333 1.4538778,2.291416 1.3522474,2.5382327 1.1490051,2.7414843 0.94572569,2.9447545 0.69890893,3.0463849 0.40855406,3.0463759 H -11.830666 c -0.508157,9e-6 -0.921939,0.09438 -1.241344,0.2831136 -0.304896,0.1742323 -0.551713,0.3920118 -0.740451,0.6533392 -0.174227,0.2613434 -0.297636,0.5517161 -0.370226,0.8711188 -0.05808,0.3048985 -0.08712,0.5880118 -0.08711,0.8493409 -3e-6,0.2613417 0.02904,0.5517144 0.08711,0.8711188 0.07259,0.3048968 0.195999,0.5880101 0.370226,0.8493409 0.188738,0.26134 0.435555,0.4863788 0.740451,0.6751171 0.319405,0.1742276 0.733187,0.2613394 1.241344,0.2613357 H 0.40855406 c 0.29035487,3.7e-6 0.53717163,0.1016341 0.74045104,0.3048916 0.2032423,0.2032642 0.3048727,0.450081 0.3048916,0.740451 -1.89e-5,0.2903753 -0.1016493,0.5371921 -0.3048916,0.7404515 -0.20327941,0.203262 -0.45009617,0.304893 -0.74045104,0.304891 H -12.505783 c -0.595269,2e-6 -1.125199,-0.145185 -1.589792,-0.435559 -0.464599,-0.2903709 -0.863862,-0.6605961 -1.197788,-1.1106768 -0.319412,-0.4645932 -0.566229,-0.9800046 -0.740451,-1.546236 -0.174225,-0.566222 -0.261337,-1.1179301 -0.261336,-1.6551258"
             id="path4345"
             inkscape:connector-curvature="0" />
          <path
             d="M 3.6538114,2.0010333 C 3.6538103,1.7106706 3.7554407,1.4638539 3.958703,1.2605822 4.1619624,1.0573322 4.4087792,0.95570173 4.699154,0.95569065 h 13.045005 c 0.406506,1.108e-5 0.783991,0.0798636 1.132454,0.23955765 0.36295,0.1451972 0.6751,0.3484581 0.936453,0.6097832 0.275837,0.2613457 0.486357,0.566237 0.631561,0.9146748 0.159687,0.3484565 0.23954,0.725941 0.239558,1.1324545 -1.8e-5,0.4065299 -0.07987,0.7840144 -0.239558,1.1324545 -0.145204,0.3484543 -0.355724,0.6533456 -0.631561,0.9146748 -0.261353,0.2613416 -0.573503,0.4718617 -0.936453,0.6315612 -0.348463,0.1451918 -0.725948,0.217785 -1.132454,0.2177797 H 6.4196137 C 6.2308676,6.7776736 6.0711627,6.8647854 5.9404983,7.0099667 5.8098273,7.155158 5.7444934,7.3366409 5.7444966,7.5544159 V 9.4055435 C 5.7444934,9.6959188 5.6356037,9.9427356 5.417827,10.145995 5.2145633,10.349257 4.9750059,10.450888 4.699154,10.450886 4.4087792,10.450888 4.1619624,10.349257 3.958703,10.145995 3.7554407,9.9427356 3.6538103,9.6959188 3.6538114,9.4055435 V 7.3148583 C 3.6538103,6.9518972 3.7191441,6.6107093 3.8498131,6.2912936 3.9804795,5.9573708 4.1619624,5.6742575 4.3942624,5.4419527 4.6410773,5.1951426 4.9169313,5.0064003 5.2218253,4.8757255 5.5412326,4.7305463 5.8896798,4.6579531 6.2671679,4.6579458 H 17.831271 c 0.217764,7.3e-6 0.406506,-0.072586 0.566227,-0.2177797 0.174208,-0.1596974 0.261319,-0.355699 0.261336,-0.5880053 C 18.658817,3.6343895 18.571706,3.4456473 18.397498,3.2859336 18.237777,3.1262374 18.049035,3.0463849 17.831271,3.0463759 H 4.699154 C 4.4087792,3.0463849 4.1619624,2.9447545 3.958703,2.7414843 3.7554407,2.5382327 3.6538103,2.291416 3.6538114,2.0010333"
             id="path4347"
             inkscape:connector-curvature="0" />
        </g>
        <g
           transform="matrix(0.93271417,0,-0.27717939,0.7558116,-1.7133117,1.3156643)"
           style="font-style:normal;font-variant:normal;font-weight:bold;font-stretch:normal;font-size:21.77797127px;line-height:125%;font-family:'Space Age';-inkscape-font-specification:'Space Age Bold';letter-spacing:0px;word-spacing:0px;fill:#dbe3e2;fill-opacity:0.51452284;stroke:none"
           id="g4355">
          <path
             inkscape:connector-curvature="0"
             d="m -16.29515,5.7032884 c -1e-6,-0.5517017 0.08711,-1.1034098 0.261336,-1.6551258 0.188741,-0.5662187 0.457335,-1.0743709 0.805785,-1.524458 0.348445,-0.4645868 0.769485,-0.8420712 1.263122,-1.1324545 0.49363,-0.290362 1.052597,-0.43554837 1.676904,-0.43555945 H 0.40855406 C 0.69890893,0.95570173 0.94572569,1.0573322 1.1490051,1.2605822 1.3522474,1.4638539 1.4538778,1.7106706 1.4538967,2.0010333 1.4538778,2.291416 1.3522474,2.5382327 1.1490051,2.7414843 0.94572569,2.9447545 0.69890893,3.0463849 0.40855406,3.0463759 H -11.830666 c -0.508157,9e-6 -0.921939,0.09438 -1.241344,0.2831136 -0.304896,0.1742323 -0.551713,0.3920118 -0.740451,0.6533392 -0.174227,0.2613434 -0.297636,0.5517161 -0.370226,0.8711188 -0.05808,0.3048985 -0.08712,0.5880118 -0.08711,0.8493409 -3e-6,0.2613417 0.02904,0.5517144 0.08711,0.8711188 0.07259,0.3048968 0.195999,0.5880101 0.370226,0.8493409 0.188738,0.26134 0.435555,0.4863788 0.740451,0.6751171 0.319405,0.1742276 0.733187,0.2613394 1.241344,0.2613357 H 0.40855406 c 0.29035487,3.7e-6 0.53717163,0.1016341 0.74045104,0.3048916 0.2032423,0.2032642 0.3048727,0.450081 0.3048916,0.740451 -1.89e-5,0.2903753 -0.1016493,0.5371921 -0.3048916,0.7404515 -0.20327941,0.203262 -0.45009617,0.304893 -0.74045104,0.304891 H -12.505783 c -0.595269,2e-6 -1.125199,-0.145185 -1.589792,-0.435559 -0.464599,-0.2903709 -0.863862,-0.6605961 -1.197788,-1.1106768 -0.319412,-0.4645932 -0.566229,-0.9800046 -0.740451,-1.546236 -0.174225,-0.566222 -0.261337,-1.1179301 -0.261336,-1.6551258"
             style="fill:#dbe3e2;fill-opacity:0.39004152"
             id="path4357" />
          <path
             inkscape:connector-curvature="0"
             d="M 3.6538114,2.0010333 C 3.6538103,1.7106706 3.7554407,1.4638539 3.958703,1.2605822 4.1619624,1.0573322 4.4087792,0.95570173 4.699154,0.95569065 h 13.045005 c 0.406506,1.108e-5 0.783991,0.0798636 1.132454,0.23955765 0.36295,0.1451972 0.6751,0.3484581 0.936453,0.6097832 0.275837,0.2613457 0.486357,0.566237 0.631561,0.9146748 0.159687,0.3484565 0.23954,0.725941 0.239558,1.1324545 -1.8e-5,0.4065299 -0.07987,0.7840144 -0.239558,1.1324545 -0.145204,0.3484543 -0.355724,0.6533456 -0.631561,0.9146748 -0.261353,0.2613416 -0.573503,0.4718617 -0.936453,0.6315612 -0.348463,0.1451918 -0.725948,0.217785 -1.132454,0.2177797 H 6.4196137 C 6.2308676,6.7776736 6.0711627,6.8647854 5.9404983,7.0099667 5.8098273,7.155158 5.7444934,7.3366409 5.7444966,7.5544159 V 9.4055435 C 5.7444934,9.6959188 5.6356037,9.9427356 5.417827,10.145995 5.2145633,10.349257 4.9750059,10.450888 4.699154,10.450886 4.4087792,10.450888 4.1619624,10.349257 3.958703,10.145995 3.7554407,9.9427356 3.6538103,9.6959188 3.6538114,9.4055435 V 7.3148583 C 3.6538103,6.9518972 3.7191441,6.6107093 3.8498131,6.2912936 3.9804795,5.9573708 4.1619624,5.6742575 4.3942624,5.4419527 4.6410773,5.1951426 4.9169313,5.0064003 5.2218253,4.8757255 5.5412326,4.7305463 5.8896798,4.6579531 6.2671679,4.6579458 H 17.831271 c 0.217764,7.3e-6 0.406506,-0.072586 0.566227,-0.2177797 0.174208,-0.1596974 0.261319,-0.355699 0.261336,-0.5880053 C 18.658817,3.6343895 18.571706,3.4456473 18.397498,3.2859336 18.237777,3.1262374 18.049035,3.0463849 17.831271,3.0463759 H 4.699154 C 4.4087792,3.0463849 4.1619624,2.9447545 3.958703,2.7414843 3.7554407,2.5382327 3.6538103,2.291416 3.6538114,2.0010333"
             style="fill:#dbe3e2;fill-opacity:0.42738588"
             id="path4359" />
        </g>
      </g>
      <rect
         clip-path="url(#clipPath4156-4-1)"
         ry="3.9569881"
         rx="3.9569874"
         y="-30"
         x="2"
         height="69.024437"
         width="75.965775"
         id="rect4146"
         style="opacity:0.63;fill:url(#linearGradient4767);fill-opacity:1;stroke:none"
         transform="matrix(1.0692451,0,0,1.0476829,3.5879112,38.037741)" />
      <g
         transform="translate(-32.811345,63.626602)"
         id="g4312">
        <rect
           ry="2"
           rx="2"
           y="9"
           x="48"
           height="4"
           width="12"
           id="rect4314"
           style="color:#000000;display:inline;overflow:visible;visibility:visible;fill:#4d4d4d;fill-opacity:0.30824376;fill-rule:nonzero;stroke:none;stroke-width:2.5;marker:none;enable-background:accumulate" />
        <rect
           style="color:#000000;display:inline;overflow:visible;visibility:visible;fill:url(#radialGradient4322);fill-opacity:1.0;fill-rule:nonzero;stroke:none;stroke-width:2.5;marker:none;enable-background:accumulate"
           id="rect4316"
           width="12"
           height="4"
           x="47"
           y="8"
           rx="2"
           ry="2" />
      </g>
      <g
         id="g4324"
         transform="rotate(90,23.043418,11.102915)"
         style="fill-opacity:1.0;fill:url(#radialGradient994)">
        <rect
           style="color:#000000;display:inline;overflow:visible;visibility:visible;fill:url(#radialGradient994);fill-opacity:1.0;fill-rule:nonzero;stroke:none;stroke-width:2.5;marker:none;enable-background:accumulate"
           id="rect4326"
           width="12"
           height="4"
           x="48"
           y="9"
           rx="2"
           ry="2" />
        <rect
           ry="2"
           rx="2"
           y="8"
           x="47"
           height="4"
           width="12"
           id="rect4328"
           style="color:#000000;display:inline;overflow:visible;visibility:visible;fill:url(#radialGradient994);fill-opacity:1.0;fill-rule:nonzero;stroke:none;stroke-width:2.5;marker:none;enable-background:accumulate" />
      </g>
      <g
         id="g966"
         transform="translate(22.274467,6.1157024)">
        <rect
           style="color:#000000;display:inline;overflow:visible;visibility:visible;fill:#4d4d4d;fill-opacity:0.30824376;fill-rule:nonzero;stroke:none;stroke-width:2.5;marker:none;enable-background:accumulate"
           id="rect962"
           width="12"
           height="4"
           x="48"
           y="9"
           rx="2"
           ry="2" />
        <rect
           ry="2"
           rx="2"
           y="8"
           x="47"
           height="4"
           width="12"
           id="rect964"
           style="color:#000000;display:inline;overflow:visible;visibility:visible;fill:url(#radialGradient968);fill-opacity:1;fill-rule:nonzero;stroke:none;stroke-width:2.5;marker:none;enable-background:accumulate" />
      </g>
      <g
         transform="translate(22.274467,13.115702)"
         id="g974">
        <rect
           ry="2"
           rx="2"
           y="9"
           x="48"
           height="4"
           width="12"
           id="rect970"
           style="color:#000000;display:inline;overflow:visible;visibility:visible;fill:#4d4d4d;fill-opacity:0.30824376;fill-rule:nonzero;stroke:none;stroke-width:2.5;marker:none;enable-background:accumulate" />
        <rect
           style="color:#000000;display:inline;overflow:visible;visibility:visible;fill:url(#radialGradient976);fill-opacity:1.0;fill-rule:nonzero;stroke:none;stroke-width:2.5;marker:none;enable-background:accumulate"
           id="rect972"
           width="12"
           height="4"
           x="47"
           y="8"
           rx="2"
           ry="2" />
      </g>
    </g>
  </g>
</svg>
