<?xml version="1.0" encoding="UTF-8" standalone="no"?>
<!-- Created with Inkscape (http://www.inkscape.org/) -->

<svg
   xmlns:dc="http://purl.org/dc/elements/1.1/"
   xmlns:cc="http://creativecommons.org/ns#"
   xmlns:rdf="http://www.w3.org/1999/02/22-rdf-syntax-ns#"
   xmlns:svg="http://www.w3.org/2000/svg"
   xmlns="http://www.w3.org/2000/svg"
   xmlns:xlink="http://www.w3.org/1999/xlink"
   xmlns:sodipodi="http://sodipodi.sourceforge.net/DTD/sodipodi-0.dtd"
   xmlns:inkscape="http://www.inkscape.org/namespaces/inkscape"
   width="96"
   height="96"
   id="svg4256"
   version="1.1"
   inkscape:version="0.48.5 r10040"
   sodipodi:docname="application-vnd.oasis.opendocument.presentation.svg">
  <defs
     id="defs4258">
    <linearGradient
       id="linearGradient943">
      <stop
         style="stop-color:#d34204;stop-opacity:1"
         offset="0"
         id="stop945" />
      <stop
         style="stop-color:#fd5713;stop-opacity:1"
         offset="1"
         id="stop947" />
    </linearGradient>
    <linearGradient
       gradientUnits="userSpaceOnUse"
       y2="1007.4111"
       x2="25.388002"
       y1="1049.5046"
       x1="25.388002"
       id="linearGradient7270"
       xlink:href="#linearGradient943"
       inkscape:collect="always"
       gradientTransform="translate(424.57144,-176.00002)" />
    <linearGradient
       inkscape:collect="always"
       xlink:href="#linearGradient4160-14"
       id="linearGradient4136"
       gradientUnits="userSpaceOnUse"
       gradientTransform="translate(-5e-7,-0.2968777)"
       x1="2.5"
       y1="54.296875"
       x2="93.5"
       y2="54.296875" />
    <linearGradient
       id="linearGradient4160-14">
      <stop
         style="stop-color:#000000;stop-opacity:0;"
         offset="0"
         id="stop4170-0" />
      <stop
         id="stop4186-1"
         offset="0.03175623"
         style="stop-color:#000000;stop-opacity:0.96470588;" />
      <stop
         id="stop4182-7"
         offset="0.09425623"
         style="stop-color:#000000;stop-opacity:0;" />
      <stop
         id="stop4180-5"
         offset="0.49595019"
         style="stop-color:#000000;stop-opacity:0;" />
      <stop
         id="stop4178-0"
         offset="0.90525883"
         style="stop-color:#000000;stop-opacity:0;" />
      <stop
         style="stop-color:#000000;stop-opacity:0.98823529;"
         offset="0.96241152"
         id="stop4184-5" />
      <stop
         style="stop-color:#000000;stop-opacity:0;"
         offset="1"
         id="stop4168-0" />
    </linearGradient>
    <linearGradient
       inkscape:collect="always"
       xlink:href="#linearGradient4160-14"
       id="linearGradient4141-4"
       gradientUnits="userSpaceOnUse"
       gradientTransform="translate(-65.664856,49.327095)"
       x1="2.5"
       y1="54.296875"
       x2="93.5"
       y2="54.296875" />
    <linearGradient
       inkscape:collect="always"
       xlink:href="#linearGradient4160"
       id="linearGradient4141"
       gradientUnits="userSpaceOnUse"
       gradientTransform="translate(-65.664856,49.327095)"
       x1="2.5"
       y1="54.296875"
       x2="93.5"
       y2="54.296875" />
    <linearGradient
       id="linearGradient4160">
      <stop
         style="stop-color:#000000;stop-opacity:0;"
         offset="0"
         id="stop4170" />
      <stop
         id="stop4186"
         offset="0.03175623"
         style="stop-color:#000000;stop-opacity:0.96470588;" />
      <stop
         id="stop4182"
         offset="0.09425623"
         style="stop-color:#000000;stop-opacity:0;" />
      <stop
         id="stop4180"
         offset="0.49595019"
         style="stop-color:#000000;stop-opacity:0;" />
      <stop
         id="stop4178"
         offset="0.90525883"
         style="stop-color:#000000;stop-opacity:0;" />
      <stop
         style="stop-color:#000000;stop-opacity:0.98823529;"
         offset="0.96241152"
         id="stop4184" />
      <stop
         style="stop-color:#000000;stop-opacity:0;"
         offset="1"
         id="stop4168" />
    </linearGradient>
    <linearGradient
       inkscape:collect="always"
       xlink:href="#linearGradient4160"
       id="linearGradient3310"
       gradientUnits="userSpaceOnUse"
       gradientTransform="translate(-29.042338,27.990498)"
       x1="2.5"
       y1="54.296875"
       x2="93.5"
       y2="54.296875" />
    <linearGradient
       x1="48.992088"
       y1="46.124821"
       x2="37"
       y2="36"
       id="linearGradient4280-6-9"
       gradientUnits="userSpaceOnUse">
      <stop
         id="stop4293-95-9"
         style="stop-color:#cfcfcf;stop-opacity:1"
         offset="0" />
      <stop
         id="stop4295-8-1"
         style="stop-color:#b7b7b7;stop-opacity:1"
         offset="0.2098622" />
      <stop
         id="stop4297-0-3"
         style="stop-color:#c9c9c9;stop-opacity:1"
         offset="1" />
    </linearGradient>
    <linearGradient
       inkscape:collect="always"
       xlink:href="#linearGradient4280-6-9"
       id="linearGradient3341-2"
       gradientUnits="userSpaceOnUse"
       x1="48.992088"
       y1="46.124821"
       x2="37"
       y2="36"
       gradientTransform="translate(-75.954866,24.617783)" />
    <linearGradient
       x1="45"
       y1="52"
       x2="73"
       y2="4"
       id="linearGradient4308-6-4"
       gradientUnits="userSpaceOnUse">
      <stop
         id="stop4304-4-4"
         style="stop-color:#000000;stop-opacity:0.10677083"
         offset="0" />
      <stop
         id="stop4306-3-9"
         style="stop-color:#000000;stop-opacity:0"
         offset="1" />
    </linearGradient>
    <linearGradient
       inkscape:collect="always"
       xlink:href="#linearGradient4308-6-4"
       id="linearGradient3335-7"
       gradientUnits="userSpaceOnUse"
       x1="45"
       y1="52"
       x2="73"
       y2="4"
       gradientTransform="matrix(0.95958619,0,0,1,-75.741251,27.019518)" />
    <radialGradient
       cx="48.30785"
       cy="47.141338"
       r="14.16129"
       id="radialGradient3996-3-3"
       gradientUnits="userSpaceOnUse"
       gradientTransform="matrix(0.93962333,0.77477937,-1.7975241,2.1799696,88.130548,-93.365748)">
      <stop
         id="stop3954-3-6"
         style="stop-color:#000000;stop-opacity:0.22264875"
         offset="0" />
      <stop
         id="stop3958-3-6"
         style="stop-color:#000000;stop-opacity:0.0678183"
         offset="0.5" />
      <stop
         id="stop3956-4-0"
         style="stop-color:#000000;stop-opacity:0.02431222"
         offset="1" />
    </radialGradient>
    <radialGradient
       inkscape:collect="always"
       xlink:href="#radialGradient3996-3-3"
       id="radialGradient3333-6"
       gradientUnits="userSpaceOnUse"
       gradientTransform="matrix(0.80018438,0.67652515,-1.5307737,1.9035151,3.7912682,-48.144492)"
       cx="48.30785"
       cy="47.141338"
       r="14.16129" />
    <linearGradient
       inkscape:collect="always"
       id="linearGradient4204">
      <stop
         style="stop-color:#ffffff;stop-opacity:1;"
         offset="0"
         id="stop4206" />
      <stop
         style="stop-color:#ffffff;stop-opacity:0;"
         offset="1"
         id="stop4208" />
    </linearGradient>
    <radialGradient
       inkscape:collect="always"
       xlink:href="#linearGradient4204"
       id="radialGradient4210"
       cx="-48.731873"
       cy="35.073528"
       fx="-48.731873"
       fy="35.073528"
       r="29.024296"
       gradientTransform="matrix(1.0646477,0,0,0.03274241,2.9252433,33.925137)"
       gradientUnits="userSpaceOnUse" />
    <linearGradient
       id="linearGradient4160-1">
      <stop
         id="stop4170-6"
         offset="0"
         style="stop-color:#000000;stop-opacity:0;" />
      <stop
         style="stop-color:#000000;stop-opacity:0.96470588;"
         offset="0.03175623"
         id="stop4186-6" />
      <stop
         style="stop-color:#000000;stop-opacity:0;"
         offset="0.09425623"
         id="stop4182-5" />
      <stop
         style="stop-color:#000000;stop-opacity:0;"
         offset="0.49595019"
         id="stop4180-0" />
      <stop
         style="stop-color:#000000;stop-opacity:0;"
         offset="0.90525883"
         id="stop4178-2" />
      <stop
         id="stop4184-0"
         offset="0.96241152"
         style="stop-color:#000000;stop-opacity:0.98823529;" />
      <stop
         id="stop4168-2"
         offset="1"
         style="stop-color:#000000;stop-opacity:0;" />
    </linearGradient>
    <linearGradient
       inkscape:collect="always"
       xlink:href="#linearGradient4160-1"
       id="linearGradient5875"
       gradientUnits="userSpaceOnUse"
       gradientTransform="matrix(1.0114053,0,0,1.0044929,-29.589803,28.043121)"
       x1="2.5"
       y1="11.140625"
       x2="93.5"
       y2="11.140625" />
    <linearGradient
       inkscape:collect="always"
       id="linearGradient4348-4">
      <stop
         style="stop-color:#000000;stop-opacity:1;"
         offset="0"
         id="stop4350-8" />
      <stop
         style="stop-color:#000000;stop-opacity:0;"
         offset="1"
         id="stop4352-8" />
    </linearGradient>
    <radialGradient
       inkscape:collect="always"
       xlink:href="#linearGradient4348-4"
       id="radialGradient5873"
       gradientUnits="userSpaceOnUse"
       gradientTransform="matrix(1.0921005,0,0,0.06510907,-33.156085,116.01296)"
       cx="39.591694"
       cy="60.38644"
       fx="39.591694"
       fy="60.38644"
       r="41.470058" />
    <linearGradient
       x1="0.29404691"
       y1="33.425831"
       x2="59.729176"
       y2="33.101307"
       id="linearGradient3984-9-6"
       gradientUnits="userSpaceOnUse">
      <stop
         id="stop3099-9-8"
         style="stop-color:#ebeced;stop-opacity:1;"
         offset="0" />
      <stop
         id="stop3875-8-5"
         style="stop-color:#ebeeef;stop-opacity:1;"
         offset="0.67870468" />
      <stop
         id="stop3873-1-8"
         style="stop-color:#ff6600;stop-opacity:1;"
         offset="0.68910319" />
      <stop
         id="stop3101-7-8"
         style="stop-color:#9e4c00;stop-opacity:1;"
         offset="1" />
    </linearGradient>
    <linearGradient
       inkscape:collect="always"
       xlink:href="#linearGradient3984-9-6"
       id="linearGradient5871"
       gradientUnits="userSpaceOnUse"
       gradientTransform="matrix(1.0004943,0,0,0.99149733,-29.066079,-60.494183)"
       spreadMethod="reflect"
       x1="93.39798"
       y1="-18.925377"
       x2="2.2660911"
       y2="-19.957712" />
    <radialGradient
       inkscape:collect="always"
       xlink:href="#linearGradient4133-5"
       id="radialGradient5869"
       gradientUnits="userSpaceOnUse"
       gradientTransform="matrix(1.0359169,0,0,0.05223045,60.08904,-64.305098)"
       cx="13.948145"
       cy="44.892841"
       fx="13.948145"
       fy="44.892841"
       r="43.199203" />
    <linearGradient
       inkscape:collect="always"
       id="linearGradient4133-5">
      <stop
         style="stop-color:#ffffff;stop-opacity:1;"
         offset="0"
         id="stop4135-1" />
      <stop
         style="stop-color:#ffffff;stop-opacity:0;"
         offset="1"
         id="stop4137-0" />
    </linearGradient>
    <radialGradient
       inkscape:collect="always"
       xlink:href="#linearGradient4133-5"
       id="radialGradient5867"
       gradientUnits="userSpaceOnUse"
       gradientTransform="matrix(1.0353919,0,0,0.05736347,3.9849628,117.73412)"
       cx="13.948145"
       cy="44.892841"
       fx="13.948145"
       fy="44.892841"
       r="43.199203" />
    <inkscape:path-effect
       is_visible="true"
       id="path-effect5916"
       effect="spiro" />
    <inkscape:path-effect
       effect="spiro"
       id="path-effect5920"
       is_visible="true" />
    <inkscape:path-effect
       is_visible="true"
       id="path-effect5924"
       effect="spiro" />
    <inkscape:path-effect
       effect="spiro"
       id="path-effect5932"
       is_visible="true" />
    <inkscape:path-effect
       is_visible="true"
       id="path-effect5934"
       effect="spiro" />
    <inkscape:path-effect
       effect="spiro"
       id="path-effect5936"
       is_visible="true" />
    <inkscape:path-effect
       is_visible="true"
       id="path-effect5944"
       effect="spiro" />
    <inkscape:path-effect
       effect="spiro"
       id="path-effect5946"
       is_visible="true" />
    <inkscape:path-effect
       is_visible="true"
       id="path-effect5948"
       effect="spiro" />
    <inkscape:path-effect
       effect="spiro"
       id="path-effect5954"
       is_visible="true" />
    <inkscape:path-effect
       is_visible="true"
       id="path-effect5956"
       effect="spiro" />
    <inkscape:path-effect
       effect="spiro"
       id="path-effect5984"
       is_visible="true" />
    <inkscape:path-effect
       effect="spiro"
       id="path-effect6687"
       is_visible="true" />
    <inkscape:path-effect
       is_visible="true"
       id="path-effect6691"
       effect="spiro" />
    <inkscape:path-effect
       is_visible="true"
       id="path-effect6695"
       effect="spiro" />
    <inkscape:path-effect
       effect="spiro"
       id="path-effect6699"
       is_visible="true" />
    <inkscape:path-effect
       is_visible="true"
       id="path-effect6703"
       effect="spiro" />
    <inkscape:path-effect
       effect="spiro"
       id="path-effect6707"
       is_visible="true" />
    <inkscape:path-effect
       effect="spiro"
       id="path-effect6717"
       is_visible="true" />
    <inkscape:path-effect
       is_visible="true"
       id="path-effect6721"
       effect="spiro" />
    <inkscape:path-effect
       effect="spiro"
       id="path-effect6725"
       is_visible="true" />
    <inkscape:path-effect
       is_visible="true"
       id="path-effect6744"
       effect="spiro" />
    <inkscape:path-effect
       effect="spiro"
       id="path-effect6748"
       is_visible="true" />
    <inkscape:path-effect
       is_visible="true"
       id="path-effect7284"
       effect="spiro" />
    <inkscape:path-effect
       is_visible="true"
       id="path-effect7288"
       effect="spiro" />
    <inkscape:path-effect
       effect="spiro"
       id="path-effect7294"
       is_visible="true" />
    <inkscape:path-effect
       effect="spiro"
       id="path-effect7296"
       is_visible="true" />
    <inkscape:path-effect
       effect="spiro"
       id="path-effect7300"
       is_visible="true" />
  </defs>
  <sodipodi:namedview
     id="base"
     pagecolor="#ffffff"
     bordercolor="#666666"
     borderopacity="1.0"
     inkscape:pageopacity="0.0"
     inkscape:pageshadow="2"
     inkscape:zoom="5.6"
     inkscape:cx="-37.032256"
     inkscape:cy="19.699152"
     inkscape:document-units="px"
     inkscape:current-layer="layer1"
     showgrid="false"
     width="0px"
     height="0px"
     fit-margin-top="0"
     fit-margin-left="0"
     fit-margin-right="0"
     fit-margin-bottom="0"
     inkscape:window-width="1280"
     inkscape:window-height="963"
     inkscape:window-x="0"
     inkscape:window-y="0"
     inkscape:window-maximized="1" />
  <metadata
     id="metadata4261">
    <rdf:RDF>
      <cc:Work
         rdf:about="">
        <dc:format>image/svg+xml</dc:format>
        <dc:type
           rdf:resource="http://purl.org/dc/dcmitype/StillImage" />
        <dc:title />
      </cc:Work>
    </rdf:RDF>
  </metadata>
  <g
     inkscape:label="Capa 1"
     inkscape:groupmode="layer"
     id="layer1"
     transform="translate(0,-956.3622)">
    <g
       id="g3234"
       transform="translate(4.9999999e-7,956.3622)">
      <g
         transform="translate(0,32)"
         inkscape:label="icona"
         id="layer1-1">
        <g
           id="g3959"
           transform="translate(29.042338,-60.287372)">
          <path
             id="path4992"
             d="m -24.921454,28.287374 c -2.287678,0 -4.120881,2.13343 -4.120881,4.782781 l 0,86.434435 c 0,2.64935 1.833203,4.78278 4.120881,4.78278 l 87.75824,0 c 2.287672,0 4.120872,-2.13343 4.120872,-4.78278 l 0,-86.434435 c 0,-2.649351 -1.8332,-4.782781 -4.120872,-4.782781 l -87.75824,0 z"
             style="opacity:0.15;fill:#000000;fill-opacity:1;stroke:none"
             inkscape:connector-curvature="0" />
          <path
             inkscape:connector-curvature="0"
             style="opacity:0.15;fill:#000000;fill-opacity:1;stroke:none"
             d="m -24.235849,29.037374 c -2.251936,0 -4.056489,2.100095 -4.056489,4.70805 l 0,85.083896 c 0,2.60796 1.804553,4.70805 4.056489,4.70805 l 86.387035,0 c 2.251922,0 4.056482,-2.10009 4.056482,-4.70805 l 0,-85.083896 c 0,-2.607955 -1.80456,-4.70805 -4.056482,-4.70805 l -86.387035,0 z"
             id="path4994" />
          <rect
             ry="4.9561129"
             rx="0"
             y="117.83126"
             x="-26.301346"
             height="4.9561129"
             width="89.456207"
             id="rect4131"
             style="opacity:0.55;fill:url(#radialGradient5867);fill-opacity:1;stroke:none" />
          <rect
             transform="matrix(0,1,-1,0,0,0)"
             style="opacity:0.55;fill:url(#radialGradient5869);fill-opacity:1;stroke:none"
             id="rect4141"
             width="89.501564"
             height="4.5126276"
             x="29.787376"
             y="-64.216652"
             rx="0"
             ry="4.5126276" />
          <path
             id="rect4080"
             d="m -23.394945,30.240449 c -2.207575,0 -3.982409,1.762703 -3.982409,3.95519 l 0,12.053915 c 0,-2.192488 1.774834,-3.955191 3.982409,-3.955191 l 84.705191,0 c 2.207572,0 3.982412,1.762703 3.982412,3.955191 l 0,-12.053915 c 0,-2.192487 -1.77484,-3.95519 -3.982412,-3.95519 l -84.705191,0 z"
             style="opacity:0;fill:#000000;fill-opacity:1;stroke:none"
             inkscape:connector-curvature="0" />
          <rect
             ry="3.9233429"
             rx="3.9589436"
             y="-121.96702"
             x="-27.065086"
             height="91.217758"
             width="92.045486"
             id="rect4133"
             style="fill:url(#linearGradient5871);fill-opacity:1;stroke:#738589;stroke-width:1.00031602;stroke-miterlimit:4;stroke-opacity:1;stroke-dasharray:none"
             transform="scale(1,-1)" />
          <path
             inkscape:connector-curvature="0"
             style="fill:#e4e8e8;fill-opacity:1;stroke:#738589;stroke-width:1.00031602;stroke-miterlimit:4;stroke-opacity:1;stroke-dasharray:none"
             d="m -23.093973,38.517005 c -2.193234,0 -3.970674,1.769321 -3.970674,3.952535 l 0,3.983657 c 0,-2.183214 1.77744,-3.952535 3.970674,-3.952535 l 84.103249,0 c 2.19323,0 3.970672,1.769321 3.970672,3.952535 l 0,-3.983657 c 0,-2.183214 -1.777442,-3.952535 -3.970672,-3.952535 l -84.103249,0 z"
             id="path4060" />
          <path
             id="path4062"
             d="m -23.093973,34.533774 c -2.193234,0 -3.970674,1.76932 -3.970674,3.952533 l 0,3.983656 c 0,-2.183213 1.77744,-3.952533 3.970674,-3.952533 l 84.103249,0 c 2.19323,0 3.970672,1.76932 3.970672,3.952533 l 0,-3.983656 c 0,-2.183213 -1.777442,-3.952533 -3.970672,-3.952533 l -84.103249,0 z"
             style="fill:#e4e8e8;fill-opacity:1;stroke:#738589;stroke-width:1.00031602;stroke-miterlimit:4;stroke-opacity:1;stroke-dasharray:none"
             inkscape:connector-curvature="0" />
          <rect
             y="116.92065"
             x="-26.353302"
             height="5.4001536"
             width="90.578949"
             id="rect4338"
             style="opacity:0.6;fill:url(#radialGradient5873);fill-opacity:1;stroke:none" />
          <path
             inkscape:connector-curvature="0"
             style="fill:#e4e8e8;fill-opacity:1;stroke:#738589;stroke-width:1.00031602;stroke-miterlimit:4;stroke-opacity:1;stroke-dasharray:none"
             d="m -23.093973,30.533774 c -2.193234,0 -3.970674,1.76932 -3.970674,3.952533 l 0,3.983656 c 0,-2.183213 1.77744,-3.952533 3.970674,-3.952533 l 84.103249,0 c 2.19323,0 3.970672,1.76932 3.970672,3.952533 l 0,-3.983656 c 0,-2.183213 -1.777442,-3.952533 -3.970672,-3.952533 l -84.103249,0 z"
             id="path4351" />
          <path
             sodipodi:nodetypes="sscsscsss"
             inkscape:connector-curvature="0"
             id="rect4358"
             d="m -23.110487,30.742695 c -2.193255,0 -3.950802,1.750269 -3.950802,3.923801 l 0,13.058407 c 0,-2.173532 2.111063,-4.806126 4.304314,-4.80154 l 83.959531,0.175548 c 2.19324,0.0046 3.774032,2.45246 3.774032,4.625992 l 0,-13.058407 c 0,-2.173532 -1.757552,-3.923801 -3.950802,-3.923801 z"
             style="opacity:0.25818182;fill:url(#linearGradient5875);fill-opacity:1;stroke:none" />
          <g
             transform="matrix(1.4386579,0,0,1.4386579,89.26212,-6.3241435)"
             id="g4111">
            <path
               inkscape:connector-curvature="0"
               d="m -79.857685,34.123204 61.801301,0 0,1.900651 -61.801301,0 z"
               id="path4253"
               style="fill:url(#radialGradient4210);fill-opacity:1;fill-rule:nonzero" />
            <g
               id="g4178">
              <path
                 style="fill:url(#radialGradient3333-6);fill-rule:nonzero"
                 id="path3934"
                 d="m -20.164741,62.19609 3.406405,3.492737 0,21.829606 -24.119544,0 z"
                 inkscape:connector-curvature="0" />
              <path
                 style="fill:url(#linearGradient3335-7);fill-rule:nonzero"
                 id="path3922"
                 d="m -18.166079,29.019518 0,31 -23.989655,29 1.919172,0 22.820159,-28.34375 0.20991,-0.28125 0,-0.375 0,-30 z"
                 inkscape:connector-curvature="0" />
              <path
                 style="fill:url(#linearGradient3341-2);fill-rule:nonzero"
                 id="path4278"
                 d="m -41.954866,88.617783 26,-31 c -2.328567,2.776369 -4.36141,3 -11,3 h -12 v 15 c 0,6.644068 0.04437,9.370179 -3,13 z"
                 inkscape:connector-curvature="0" />
              <path
                 inkscape:connector-curvature="0"
                 style="fill:#ffffff;fill-opacity:0.77120146;fill-rule:nonzero"
                 id="path4282"
                 d="m -16.054215,57.668542 c -2.328567,2.776369 -4.36141,3 -11,3 h -12 v 15 c 0,6.644068 0.04437,9.370179 -3,13 4,-5 4.000382,-8.356667 4,-13 v -14 h 11 c 5,0 8.041405,-0.381883 11,-4 z" />
            </g>
          </g>
        </g>
      </g>
      <g
         inkscape:label="simboli"
         id="layer2-5">
        <g
           id="text6006"
           style="font-size:32.52197647px;font-style:normal;font-variant:normal;font-weight:bold;font-stretch:normal;line-height:125%;letter-spacing:0px;word-spacing:0px;opacity:0.89000005;fill:#000000;fill-opacity:0.11836733;stroke:#f7f9fc;stroke-width:1.07043731;stroke-miterlimit:4;stroke-opacity:1;font-family:Courier New;-inkscape-font-specification:Courier New Bold"
           transform="scale(1.1049827,0.90499151)">
          <g
             transform="translate(0,4.419931)"
             id="g7232">
            <rect
               style="opacity:0.77454541;fill:#e73647;fill-opacity:0.57959182;stroke:#22303c;stroke-width:0.38897705;stroke-linecap:round;stroke-linejoin:round;stroke-miterlimit:4;stroke-opacity:1;stroke-dasharray:none;stroke-dashoffset:0"
               id="rect6811"
               width="10.544089"
               height="7.0679049"
               x="32.212582"
               y="69.809845"
               ry="0" />
            <rect
               ry="0"
               y="69.809845"
               x="43.066986"
               height="7.0679049"
               width="8.7373304"
               id="rect6813"
               style="opacity:0.77454541;fill:#e73647;fill-opacity:0.57959182;stroke:#22303c;stroke-width:0.35408607;stroke-linecap:round;stroke-linejoin:round;stroke-miterlimit:4;stroke-opacity:1;stroke-dasharray:none;stroke-dashoffset:0" />
            <g
               transform="matrix(1.0144766,0,0,1.2665335,-34.879529,47.452826)"
               style="font-size:4px;line-height:125%;opacity:0.77454541;fill:#000000;fill-opacity:1;stroke:none;font-family:Impact;-inkscape-font-specification:Impact Bold"
               id="text6827">
              <path
                 d="m 68.872955,19.548569 0,1.054687 c -2e-6,0.239584 -0.01302,0.414063 -0.03906,0.523438 -0.02604,0.109375 -0.08008,0.211589 -0.16211,0.30664 -0.08203,0.09505 -0.180991,0.163412 -0.296875,0.205078 -0.115886,0.04167 -0.245444,0.0625 -0.388671,0.0625 -0.188803,0 -0.345704,-0.02148 -0.470704,-0.06445 -0.125,-0.04427 -0.224609,-0.11263 -0.298828,-0.205078 -0.07422,-0.09245 -0.126953,-0.189453 -0.158203,-0.291015 -0.03125,-0.102864 -0.04687,-0.265625 -0.04687,-0.488282 l 0,-1.103515 c 0,-0.290362 0.02474,-0.50781 0.07422,-0.652344 0.05078,-0.144528 0.15039,-0.260414 0.298828,-0.347656 0.149739,-0.08724 0.330728,-0.130856 0.542969,-0.13086 0.173176,4e-6 0.328123,0.0306 0.464844,0.0918 0.136717,0.0599 0.23893,0.133467 0.30664,0.220703 0.06771,0.08724 0.11328,0.18555 0.136719,0.294922 0.02474,0.109378 0.03711,0.283857 0.03711,0.523438 M 68.083902,19.28295 c -10e-7,-0.167966 -0.0085,-0.272784 -0.02539,-0.314453 -0.01563,-0.04297 -0.05339,-0.06445 -0.113281,-0.06445 -0.05859,3e-6 -0.09766,0.02279 -0.117188,0.06836 -0.01823,0.04427 -0.02734,0.147789 -0.02734,0.310547 l 0,1.542968 c -10e-7,0.183595 0.0085,0.294272 0.02539,0.332032 0.01823,0.03776 0.05664,0.05664 0.115235,0.05664 0.05859,10e-7 0.097,-0.02213 0.115234,-0.06641 0.01823,-0.04427 0.02734,-0.143879 0.02734,-0.298828 l 0,-1.566406"
                 id="path6841"
                 inkscape:connector-curvature="0" />
              <path
                 d="m 71.021393,19.548569 0,1.054687 c -2e-6,0.239584 -0.01302,0.414063 -0.03906,0.523438 -0.02604,0.109375 -0.08008,0.211589 -0.162109,0.30664 -0.08203,0.09505 -0.180991,0.163412 -0.296875,0.205078 -0.115887,0.04167 -0.245444,0.0625 -0.388672,0.0625 -0.188803,0 -0.345704,-0.02148 -0.470703,-0.06445 -0.125001,-0.04427 -0.22461,-0.11263 -0.298828,-0.205078 -0.07422,-0.09245 -0.126954,-0.189453 -0.158203,-0.291015 -0.03125,-0.102864 -0.04687,-0.265625 -0.04687,-0.488282 l 0,-1.103515 c 0,-0.290362 0.02474,-0.50781 0.07422,-0.652344 0.05078,-0.144528 0.150391,-0.260414 0.298829,-0.347656 0.149738,-0.08724 0.330728,-0.130856 0.542968,-0.13086 0.173176,4e-6 0.328124,0.0306 0.464844,0.0918 0.136717,0.0599 0.238931,0.133467 0.306641,0.220703 0.06771,0.08724 0.113279,0.18555 0.136718,0.294922 0.02474,0.109378 0.03711,0.283857 0.03711,0.523438 M 70.23233,19.282944 c -1e-6,-0.167966 -0.0085,-0.272784 -0.02539,-0.314453 -0.01563,-0.04297 -0.05339,-0.06445 -0.113282,-0.06445 -0.05859,3e-6 -0.09766,0.02279 -0.117187,0.06836 -0.01823,0.04427 -0.02734,0.147789 -0.02734,0.310547 l 0,1.542968 c -10e-7,0.183595 0.0085,0.294272 0.02539,0.332032 0.01823,0.03776 0.05664,0.05664 0.115234,0.05664 0.05859,1e-6 0.097,-0.02213 0.115235,-0.06641 0.01823,-0.04427 0.02734,-0.143879 0.02734,-0.298828 l 0,-1.566406"
                 id="path6843"
                 inkscape:connector-curvature="0" />
              <path
                 d="m 72.917877,18.478256 0,2.066406 0.22461,0 0,0.539063 -0.22461,0 0,0.556641 -0.789062,0 0,-0.556641 -0.9375,0 0,-0.539063 0.68164,-2.066406 1.044922,0 m -0.789062,2.066406 0,-1.345703 -0.347657,1.345703 0.347657,0"
                 id="path6845"
                 inkscape:connector-curvature="0" />
            </g>
            <g
               transform="matrix(1.0144766,0,0,1.2665335,-34.372295,47.452826)"
               style="font-size:4px;line-height:125%;opacity:0.77454541;fill:#000000;fill-opacity:1;stroke:none;font-family:Impact;-inkscape-font-specification:Impact Bold"
               id="text6831">
              <path
                 d="m 80.872955,19.548569 0,1.054687 c -2e-6,0.239584 -0.01302,0.414063 -0.03906,0.523438 -0.02604,0.109375 -0.08008,0.211589 -0.16211,0.30664 -0.08203,0.09505 -0.180991,0.163412 -0.296875,0.205078 -0.115886,0.04167 -0.245444,0.0625 -0.388671,0.0625 -0.188803,0 -0.345704,-0.02148 -0.470704,-0.06445 -0.125,-0.04427 -0.224609,-0.11263 -0.298828,-0.205078 -0.07422,-0.09245 -0.126953,-0.189453 -0.158203,-0.291015 -0.03125,-0.102864 -0.04687,-0.265625 -0.04687,-0.488282 l 0,-1.103515 c 0,-0.290362 0.02474,-0.50781 0.07422,-0.652344 0.05078,-0.144528 0.15039,-0.260414 0.298828,-0.347656 0.149739,-0.08724 0.330728,-0.130856 0.542969,-0.13086 0.173176,4e-6 0.328123,0.0306 0.464844,0.0918 0.136717,0.0599 0.23893,0.133467 0.30664,0.220703 0.06771,0.08724 0.11328,0.18555 0.136719,0.294922 0.02474,0.109378 0.03711,0.283857 0.03711,0.523438 M 80.083902,19.28295 c -10e-7,-0.167966 -0.0085,-0.272784 -0.02539,-0.314453 -0.01563,-0.04297 -0.05339,-0.06445 -0.113281,-0.06445 -0.05859,3e-6 -0.09766,0.02279 -0.117188,0.06836 -0.01823,0.04427 -0.02734,0.147789 -0.02734,0.310547 l 0,1.542968 c -10e-7,0.183595 0.0085,0.294272 0.02539,0.332032 0.01823,0.03776 0.05664,0.05664 0.115235,0.05664 0.05859,10e-7 0.097,-0.02213 0.115234,-0.06641 0.01823,-0.04427 0.02734,-0.143879 0.02734,-0.298828 l 0,-1.566406"
                 id="path6836"
                 inkscape:connector-curvature="0" />
              <path
                 d="m 82.882721,18.478256 0,0.50586 -0.978516,0 0,0.537109 c 0.122395,-0.144529 0.279947,-0.216795 0.472657,-0.216797 0.217446,2e-6 0.381508,0.0612 0.492187,0.183594 0.111977,0.121096 0.167967,0.354819 0.167969,0.701172 l 0,0.451172 c -2e-6,0.223959 -0.01107,0.388672 -0.0332,0.49414 -0.02084,0.104167 -0.06641,0.201172 -0.136719,0.291016 -0.07031,0.08854 -0.168622,0.156901 -0.294922,0.205078 -0.125001,0.04687 -0.277996,0.07031 -0.458984,0.07031 -0.203126,0 -0.382162,-0.03516 -0.53711,-0.105468 -0.154948,-0.07162 -0.264974,-0.177734 -0.330078,-0.31836 -0.0651,-0.140624 -0.09766,-0.358072 -0.09766,-0.652343 l 0,-0.171875 0.789062,0 0,0.197265 c 0,0.204428 0.0072,0.34961 0.02148,0.435547 0.01432,0.08594 0.0638,0.128907 0.148437,0.128906 0.03906,1e-6 0.07031,-0.01237 0.09375,-0.03711 0.02474,-0.02474 0.03776,-0.05143 0.03906,-0.08008 0.0026,-0.02865 0.0052,-0.152994 0.0078,-0.373047 l 0,-0.626953 c -10e-7,-0.118488 -0.01237,-0.199217 -0.03711,-0.242188 -0.02474,-0.04297 -0.06576,-0.06445 -0.123047,-0.06445 -0.03646,2e-6 -0.06706,0.01107 -0.0918,0.0332 -0.02474,0.02214 -0.04102,0.04623 -0.04883,0.07227 -0.0065,0.02474 -0.0098,0.08333 -0.0098,0.175781 l -0.78125,0 0.0332,-1.59375 1.693359,0"
                 id="path6838"
                 inkscape:connector-curvature="0" />
            </g>
            <path
               inkscape:transform-center-y="0.438461"
               transform="matrix(0.75607463,0,0,0.94392893,8.7885311,54.139282)"
               d="m 42.195511,22.60185 -0.908928,-1.551314 -0.889013,-1.562811 1.797941,-0.0115 1.797941,0.0115 -0.889013,1.562811 z"
               inkscape:randomized="0"
               inkscape:rounded="0"
               inkscape:flatsided="false"
               sodipodi:arg2="2.6179939"
               sodipodi:arg1="1.5707963"
               sodipodi:r2="1.0495394"
               sodipodi:r1="2.0760834"
               sodipodi:cy="20.525766"
               sodipodi:cx="42.195511"
               sodipodi:sides="3"
               id="path6874"
               style="opacity:0.77454541;fill:#000000;fill-opacity:0.57959182;stroke:none"
               sodipodi:type="star" />
            <g
               style="opacity:0.82909091"
               transform="matrix(1.0790509,0,0,1.0790509,-1.8568831,-6.2263974)"
               id="g7271">
              <path
                 sodipodi:type="arc"
                 style="fill:#64e736;fill-opacity:1;stroke:none"
                 id="path7262"
                 sodipodi:cx="32.801037"
                 sodipodi:cy="55.874458"
                 sodipodi:rx="20.858912"
                 sodipodi:ry="20.858912"
                 d="m 53.659948,55.874458 c 0,11.520059 -9.338852,20.858912 -20.858911,20.858912 -11.520059,0 -20.858912,-9.338853 -20.858912,-20.858912 0,-11.520058 9.338853,-20.858911 20.858912,-20.858911 11.520059,0 20.858911,9.338853 20.858911,20.858911 z"
                 transform="matrix(0.74267755,0,0,0.90679947,20.093972,-10.852935)" />
              <path
                 transform="matrix(0.74267755,0,0,0.90679947,20.093972,-10.852935)"
                 d="M 53.132892,60.533842 C 50.559585,71.762816 39.370626,78.77962 28.141653,76.206313 16.912679,73.633007 9.8958751,62.444048 12.469182,51.215074 14.98623,40.231593 25.771395,33.232667 36.827652,35.407887 l -4.026615,20.466571 z"
                 sodipodi:ry="20.858912"
                 sodipodi:rx="20.858912"
                 sodipodi:cy="55.874458"
                 sodipodi:cx="32.801037"
                 id="path7269"
                 style="fill:#d80000;fill-opacity:1;stroke:none"
                 sodipodi:type="arc"
                 sodipodi:start="0.2252768"
                 sodipodi:end="4.906649" />
              <path
                 style="fill:#272727;fill-opacity:1;stroke:none"
                 d="m 59.106428,33.673354 c 0.273574,1.387206 0.417756,2.845898 0.417756,4.335635 0,10.167281 -6.735327,18.391026 -15.062429,18.391026 -8.327102,0 -15.085638,-8.223745 -15.085638,-18.391026 0,-1.449761 0.135045,-2.86912 0.394548,-4.222285 -0.520333,1.892221 -0.812304,3.929652 -0.812304,6.035883 0,10.446383 6.947705,18.901102 15.503394,18.901102 8.55569,0 15.480185,-8.454719 15.480185,-18.901102 0,-2.148843 -0.29483,-4.224268 -0.835512,-6.149233 z"
                 id="path7264"
                 inkscape:connector-curvature="0" />
            </g>
            <path
               inkscape:connector-curvature="0"
               inkscape:original-d="m 63.834954,27.069414 13.980687,-0.023"
               inkscape:path-effect="#path-effect7288"
               id="path7286"
               d="m 63.834954,27.069414 13.980687,-0.023"
               style="opacity:0.7309091;fill:none;stroke:#252e35;stroke-width:0.60000002;stroke-linecap:butt;stroke-linejoin:miter;stroke-miterlimit:4;stroke-opacity:1;stroke-dasharray:none" />
            <path
               style="opacity:0.7309091;fill:none;stroke:#252e35;stroke-width:0.60000002;stroke-linecap:butt;stroke-linejoin:miter;stroke-miterlimit:4;stroke-opacity:1;stroke-dasharray:none"
               d="m 63.834954,40.329204 13.980687,-0.023"
               id="path7290"
               inkscape:path-effect="#path-effect7296"
               inkscape:original-d="m 63.834954,40.329204 13.980687,-0.023"
               inkscape:connector-curvature="0" />
            <path
               inkscape:connector-curvature="0"
               inkscape:original-d="m 63.834954,33.699309 13.980687,-0.023"
               inkscape:path-effect="#path-effect7294"
               id="path7292"
               d="m 63.834954,33.699309 13.980687,-0.023"
               style="opacity:0.7309091;fill:none;stroke:#252e35;stroke-width:0.60000002;stroke-linecap:butt;stroke-linejoin:miter;stroke-miterlimit:4;stroke-opacity:1;stroke-dasharray:none" />
            <path
               style="opacity:0.7309091;fill:none;stroke:#252e35;stroke-width:0.60000002;stroke-linecap:butt;stroke-linejoin:miter;stroke-miterlimit:4;stroke-opacity:1;stroke-dasharray:none"
               d="m 63.834954,20.439519 13.980687,-0.023"
               id="path7298"
               inkscape:path-effect="#path-effect7300"
               inkscape:original-d="m 63.834954,20.439519 13.980687,-0.023"
               inkscape:connector-curvature="0" />
          </g>
        </g>
      </g>
      <g
         style="display:inline"
         inkscape:label="luci/ombre-superiori"
         id="layer3">
        <path
           inkscape:connector-curvature="0"
           style="opacity:0.27999998;fill:url(#linearGradient4136);fill-opacity:1;stroke:none"
           d="m 6.4062495,14.796873 c -2.168522,0 -3.90625,1.74244 -3.90625,3.90625 l 0,70.593754 c 0,2.16381 1.737728,3.90625 3.90625,3.90625 l 83.1875005,0 c 2.16852,0 3.90625,-1.74244 3.90625,-3.90625 l 0,-70.593754 c 0,-2.16381 -1.73773,-3.90625 -3.90625,-3.90625 l -83.1875005,0 z"
           id="rect4371"
           inkscape:transform-center-x="-35.678407"
           inkscape:transform-center-y="-102.51261" />
      </g>
    </g>
  </g>
</svg>
