<?xml version="1.0" encoding="UTF-8" standalone="no"?>
<!-- Created with Inkscape (http://www.inkscape.org/) -->

<svg
   xmlns:dc="http://purl.org/dc/elements/1.1/"
   xmlns:cc="http://creativecommons.org/ns#"
   xmlns:rdf="http://www.w3.org/1999/02/22-rdf-syntax-ns#"
   xmlns:svg="http://www.w3.org/2000/svg"
   xmlns="http://www.w3.org/2000/svg"
   xmlns:xlink="http://www.w3.org/1999/xlink"
   xmlns:sodipodi="http://sodipodi.sourceforge.net/DTD/sodipodi-0.dtd"
   xmlns:inkscape="http://www.inkscape.org/namespaces/inkscape"
   width="96"
   height="96"
   id="svg2"
   version="1.1"
   inkscape:version="0.48.5 r10040"
   sodipodi:docname="010101.svg">
  <script
     xlink:href=""
     id="script2985" />
  <defs
     id="defs4">
    <radialGradient
       r="43.199203"
       fy="44.892841"
       fx="13.948145"
       cy="44.892841"
       cx="13.948145"
       gradientTransform="matrix(1.0353919,0,0,0.05736347,3.9849628,117.73412)"
       gradientUnits="userSpaceOnUse"
       id="radialGradient5867"
       xlink:href="#linearGradient4133-5"
       inkscape:collect="always" />
    <linearGradient
       id="linearGradient4133-5"
       inkscape:collect="always">
      <stop
         id="stop4135-1"
         offset="0"
         style="stop-color:#ffffff;stop-opacity:1;" />
      <stop
         id="stop4137-0"
         offset="1"
         style="stop-color:#ffffff;stop-opacity:0;" />
    </linearGradient>
    <radialGradient
       r="43.199203"
       fy="44.892841"
       fx="13.948145"
       cy="44.892841"
       cx="13.948145"
       gradientTransform="matrix(1.0359169,0,0,0.05223045,60.08904,-64.305098)"
       gradientUnits="userSpaceOnUse"
       id="radialGradient5869"
       xlink:href="#linearGradient4133-5"
       inkscape:collect="always" />
    <linearGradient
       y2="-19.957712"
       x2="2.2660911"
       y1="-18.925377"
       x1="93.39798"
       spreadMethod="reflect"
       gradientTransform="matrix(1.0004943,0,0,0.99149733,-29.066079,-60.494183)"
       gradientUnits="userSpaceOnUse"
       id="linearGradient5871"
       xlink:href="#linearGradient3984-9-6"
       inkscape:collect="always" />
    <linearGradient
       gradientUnits="userSpaceOnUse"
       id="linearGradient3984-9-6"
       y2="33.101307"
       x2="59.729176"
       y1="33.425831"
       x1="0.29404691">
      <stop
         offset="0"
         style="stop-color:#ececec;stop-opacity:1;"
         id="stop3099-9-8" />
      <stop
         offset="0.4866482"
         style="stop-color:#efebeb;stop-opacity:1;"
         id="stop3875-8-5" />
      <stop
         offset="0.51168245"
         style="stop-color:#dee4e5;stop-opacity:1;"
         id="stop3873-1-8" />
      <stop
         offset="1"
         style="stop-color:#f2f2f2;stop-opacity:1;"
         id="stop3101-7-8" />
    </linearGradient>
    <radialGradient
       r="41.470058"
       fy="60.38644"
       fx="39.591694"
       cy="60.38644"
       cx="39.591694"
       gradientTransform="matrix(1.0921005,0,0,0.06510907,-33.156085,116.01296)"
       gradientUnits="userSpaceOnUse"
       id="radialGradient5873"
       xlink:href="#linearGradient4348-4"
       inkscape:collect="always" />
    <linearGradient
       id="linearGradient4348-4"
       inkscape:collect="always">
      <stop
         id="stop4350-8"
         offset="0"
         style="stop-color:#000000;stop-opacity:1;" />
      <stop
         id="stop4352-8"
         offset="1"
         style="stop-color:#000000;stop-opacity:0;" />
    </linearGradient>
    <linearGradient
       y2="11.140625"
       x2="93.5"
       y1="11.140625"
       x1="2.5"
       gradientTransform="matrix(1.0114053,0,0,1.0044929,-29.589803,28.043121)"
       gradientUnits="userSpaceOnUse"
       id="linearGradient5875"
       xlink:href="#linearGradient4160-1"
       inkscape:collect="always" />
    <linearGradient
       id="linearGradient4160-1">
      <stop
         style="stop-color:#000000;stop-opacity:0;"
         offset="0"
         id="stop4170-6" />
      <stop
         id="stop4186-6"
         offset="0.03175623"
         style="stop-color:#000000;stop-opacity:0.96470588;" />
      <stop
         id="stop4182-5"
         offset="0.09425623"
         style="stop-color:#000000;stop-opacity:0;" />
      <stop
         id="stop4180-0"
         offset="0.49595019"
         style="stop-color:#000000;stop-opacity:0;" />
      <stop
         id="stop4178-2"
         offset="0.90525883"
         style="stop-color:#000000;stop-opacity:0;" />
      <stop
         style="stop-color:#000000;stop-opacity:0.98823529;"
         offset="0.96241152"
         id="stop4184-0" />
      <stop
         style="stop-color:#000000;stop-opacity:0;"
         offset="1"
         id="stop4168-2" />
    </linearGradient>
    <radialGradient
       gradientUnits="userSpaceOnUse"
       gradientTransform="matrix(1.0646477,0,0,0.03274241,2.9252433,33.925137)"
       r="29.024296"
       fy="35.073528"
       fx="-48.731873"
       cy="35.073528"
       cx="-48.731873"
       id="radialGradient4210"
       xlink:href="#linearGradient4204"
       inkscape:collect="always" />
    <linearGradient
       id="linearGradient4204"
       inkscape:collect="always">
      <stop
         id="stop4206"
         offset="0"
         style="stop-color:#ffffff;stop-opacity:1;" />
      <stop
         id="stop4208"
         offset="1"
         style="stop-color:#ffffff;stop-opacity:0;" />
    </linearGradient>
    <radialGradient
       r="14.16129"
       cy="47.141338"
       cx="48.30785"
       gradientTransform="matrix(0.80018438,0.67652515,-1.5307737,1.9035151,3.7912682,-48.144492)"
       gradientUnits="userSpaceOnUse"
       id="radialGradient3333-6"
       xlink:href="#radialGradient3996-3-3"
       inkscape:collect="always" />
    <radialGradient
       gradientTransform="matrix(0.93962333,0.77477937,-1.7975241,2.1799696,88.130548,-93.365748)"
       gradientUnits="userSpaceOnUse"
       id="radialGradient3996-3-3"
       r="14.16129"
       cy="47.141338"
       cx="48.30785">
      <stop
         offset="0"
         style="stop-color:#000000;stop-opacity:0.22264875"
         id="stop3954-3-6" />
      <stop
         offset="0.5"
         style="stop-color:#000000;stop-opacity:0.0678183"
         id="stop3958-3-6" />
      <stop
         offset="1"
         style="stop-color:#000000;stop-opacity:0.02431222"
         id="stop3956-4-0" />
    </radialGradient>
    <linearGradient
       gradientTransform="matrix(0.95958619,0,0,1,-75.741251,27.019518)"
       y2="4"
       x2="73"
       y1="52"
       x1="45"
       gradientUnits="userSpaceOnUse"
       id="linearGradient3335-7"
       xlink:href="#linearGradient4308-6-4"
       inkscape:collect="always" />
    <linearGradient
       gradientUnits="userSpaceOnUse"
       id="linearGradient4308-6-4"
       y2="4"
       x2="73"
       y1="52"
       x1="45">
      <stop
         offset="0"
         style="stop-color:#000000;stop-opacity:0.10677083"
         id="stop4304-4-4" />
      <stop
         offset="1"
         style="stop-color:#000000;stop-opacity:0"
         id="stop4306-3-9" />
    </linearGradient>
    <linearGradient
       gradientTransform="translate(-75.954866,24.617783)"
       y2="36"
       x2="37"
       y1="46.124821"
       x1="48.992088"
       gradientUnits="userSpaceOnUse"
       id="linearGradient3341-2"
       xlink:href="#linearGradient4280-6-9"
       inkscape:collect="always" />
    <linearGradient
       gradientUnits="userSpaceOnUse"
       id="linearGradient4280-6-9"
       y2="36"
       x2="37"
       y1="46.124821"
       x1="48.992088">
      <stop
         offset="0"
         style="stop-color:#cfcfcf;stop-opacity:1"
         id="stop4293-95-9" />
      <stop
         offset="0.2098622"
         style="stop-color:#b7b7b7;stop-opacity:1"
         id="stop4295-8-1" />
      <stop
         offset="1"
         style="stop-color:#c9c9c9;stop-opacity:1"
         id="stop4297-0-3" />
    </linearGradient>
    <linearGradient
       y2="54.296875"
       x2="93.5"
       y1="54.296875"
       x1="2.5"
       gradientTransform="translate(-29.042338,27.990498)"
       gradientUnits="userSpaceOnUse"
       id="linearGradient3310"
       xlink:href="#linearGradient4160"
       inkscape:collect="always" />
    <linearGradient
       id="linearGradient4160">
      <stop
         id="stop4170"
         offset="0"
         style="stop-color:#000000;stop-opacity:0;" />
      <stop
         style="stop-color:#000000;stop-opacity:0.96470588;"
         offset="0.03175623"
         id="stop4186" />
      <stop
         style="stop-color:#000000;stop-opacity:0;"
         offset="0.09425623"
         id="stop4182" />
      <stop
         style="stop-color:#000000;stop-opacity:0;"
         offset="0.49595019"
         id="stop4180" />
      <stop
         style="stop-color:#000000;stop-opacity:0;"
         offset="0.90525883"
         id="stop4178" />
      <stop
         id="stop4184"
         offset="0.96241152"
         style="stop-color:#000000;stop-opacity:0.98823529;" />
      <stop
         id="stop4168"
         offset="1"
         style="stop-color:#000000;stop-opacity:0;" />
    </linearGradient>
    <linearGradient
       y2="54.296875"
       x2="93.5"
       y1="54.296875"
       x1="2.5"
       gradientTransform="translate(-29.042338,27.990498)"
       gradientUnits="userSpaceOnUse"
       id="linearGradient4141"
       xlink:href="#linearGradient4160"
       inkscape:collect="always" />
  </defs>
  <sodipodi:namedview
     id="base"
     pagecolor="#ffffff"
     bordercolor="#666666"
     borderopacity="1.0"
     inkscape:pageopacity="0.0"
     inkscape:pageshadow="2"
     inkscape:zoom="3.0195319"
     inkscape:cx="-64.2826"
     inkscape:cy="32"
     inkscape:current-layer="g3959"
     showgrid="true"
     inkscape:document-units="px"
     inkscape:grid-bbox="true"
     inkscape:showpageshadow="false"
     gridtolerance="1"
     guidetolerance="1"
     objecttolerance="1"
     inkscape:window-width="1280"
     inkscape:window-height="965"
     inkscape:window-x="0"
     inkscape:window-y="0"
     inkscape:window-maximized="1" />
  <metadata
     id="metadata7">
    <rdf:RDF>
      <cc:Work
         rdf:about="">
        <dc:format>image/svg+xml</dc:format>
        <dc:type
           rdf:resource="http://purl.org/dc/dcmitype/StillImage" />
        <dc:title />
      </cc:Work>
    </rdf:RDF>
  </metadata>
  <g
     id="layer1"
     inkscape:label="Layer 1"
     inkscape:groupmode="layer"
     transform="translate(0,32)">
    <g
       transform="translate(29.042338,-60.287372)"
       id="g3959">
      <path
         inkscape:connector-curvature="0"
         style="opacity:0.15;fill:#000000;fill-opacity:1;stroke:none"
         d="m -24.921454,28.287374 c -2.287678,0 -4.120881,2.13343 -4.120881,4.782781 l 0,86.434435 c 0,2.64935 1.833203,4.78278 4.120881,4.78278 l 87.75824,0 c 2.287672,0 4.120872,-2.13343 4.120872,-4.78278 l 0,-86.434435 c 0,-2.649351 -1.8332,-4.782781 -4.120872,-4.782781 l -87.75824,0 z"
         id="path4992" />
      <path
         id="path4994"
         d="m -24.235849,29.037374 c -2.251936,0 -4.056489,2.100095 -4.056489,4.70805 l 0,85.083896 c 0,2.60796 1.804553,4.70805 4.056489,4.70805 l 86.387035,0 c 2.251922,0 4.056482,-2.10009 4.056482,-4.70805 l 0,-85.083896 c 0,-2.607955 -1.80456,-4.70805 -4.056482,-4.70805 l -86.387035,0 z"
         style="opacity:0.15;fill:#000000;fill-opacity:1;stroke:none"
         inkscape:connector-curvature="0" />
      <rect
         style="opacity:0.55;fill:url(#radialGradient5867);fill-opacity:1;stroke:none"
         id="rect4131"
         width="89.456207"
         height="4.9561129"
         x="-26.301346"
         y="117.83126"
         rx="0"
         ry="4.9561129" />
      <rect
         ry="4.5126276"
         rx="0"
         y="-64.216652"
         x="29.787376"
         height="4.5126276"
         width="89.501564"
         id="rect4141"
         style="opacity:0.55;fill:url(#radialGradient5869);fill-opacity:1;stroke:none"
         transform="matrix(0,1,-1,0,0,0)" />
      <path
         inkscape:connector-curvature="0"
         style="opacity:0;fill:#000000;fill-opacity:1;stroke:none"
         d="m -23.394945,30.240449 c -2.207575,0 -3.982409,1.762703 -3.982409,3.95519 l 0,12.053915 c 0,-2.192488 1.774834,-3.955191 3.982409,-3.955191 l 84.705191,0 c 2.207572,0 3.982412,1.762703 3.982412,3.955191 l 0,-12.053915 c 0,-2.192487 -1.77484,-3.95519 -3.982412,-3.95519 l -84.705191,0 z"
         id="rect4080" />
      <rect
         transform="scale(1,-1)"
         style="fill:url(#linearGradient5871);fill-opacity:1;stroke:#738589;stroke-width:1.00031602;stroke-miterlimit:4;stroke-opacity:1;stroke-dasharray:none"
         id="rect4133"
         width="92.045486"
         height="91.217758"
         x="-27.065086"
         y="-121.96702"
         rx="3.9589436"
         ry="3.9233429" />
      <g
         style="font-size:16.77722930999999917px;font-style:normal;font-variant:normal;font-weight:normal;font-stretch:normal;line-height:125%;letter-spacing:0px;word-spacing:0px;fill:#364e59;fill-opacity:1;stroke:none;font-family:Droid Sans Ethiopic;-inkscape-font-specification:Droid Sans Ethiopic"
         id="text3310">
        <path
           d="m -8.3944198,52.041012 c -0.8519732,1.1e-5 -1.4936797,0.420533 -1.9251212,1.261569 -0.425988,0.835593 -0.63898,2.09443 -0.638977,3.776515 -3e-6,1.676635 0.212989,2.935472 0.638977,3.776515 0.4314415,0.835586 1.073148,1.253378 1.9251212,1.253376 0.8574238,2e-6 1.4991303,-0.41779 1.9251215,-1.253376 0.431438,-0.841043 0.6471606,-2.09988 0.6471685,-3.776515 -7.9e-6,-1.682085 -0.2157305,-2.940922 -0.6471685,-3.776515 -0.4259912,-0.841036 -1.0676977,-1.261558 -1.9251215,-1.261569 m 0,-1.310722 c 1.370789,1.3e-5 2.4166342,0.543415 3.1375385,1.63021 0.7263487,1.081354 1.0895273,2.654218 1.0895368,4.718596 -9.5e-6,2.058928 -0.3631881,3.631792 -1.0895368,4.718595 -0.7209043,1.081345 -1.7667495,1.622017 -3.1375385,1.622018 -1.3707997,-10e-7 -2.4193752,-0.540673 -3.1457302,-1.622018 -0.720898,-1.086803 -1.081346,-2.659667 -1.081345,-4.718595 -1e-6,-2.064378 0.360447,-3.637242 1.081345,-4.718596 0.726355,-1.086795 1.7749305,-1.630197 3.1457302,-1.63021"
           style="fill:#364e59"
           id="path3315" />
        <path
           d="m -0.96426953,61.789499 2.70336213,0 0,-9.330695 -2.9409303,0.589824 0,-1.507329 2.9245463,-0.589824 1.6547853,0 0,10.838024 2.7033622,0 0,1.392641 -7.04512563,0 0,-1.392641"
           style="fill:#364e59"
           id="path3317" />
        <path
           d="m 12.970334,52.041012 c -0.851973,1.1e-5 -1.49368,0.420533 -1.925122,1.261569 -0.425987,0.835593 -0.638979,2.09443 -0.638976,3.776515 -3e-6,1.676635 0.212989,2.935472 0.638976,3.776515 0.431442,0.835586 1.073149,1.253378 1.925122,1.253376 0.857424,2e-6 1.49913,-0.41779 1.925121,-1.253376 0.431438,-0.841043 0.647161,-2.09988 0.647169,-3.776515 -8e-6,-1.682085 -0.215731,-2.940922 -0.647169,-3.776515 -0.425991,-0.841036 -1.067697,-1.261558 -1.925121,-1.261569 m 0,-1.310722 c 1.370789,1.3e-5 2.416634,0.543415 3.137538,1.63021 0.726349,1.081354 1.089528,2.654218 1.089537,4.718596 -9e-6,2.058928 -0.363188,3.631792 -1.089537,4.718595 -0.720904,1.081345 -1.766749,1.622017 -3.137538,1.622018 -1.3708,-10e-7 -2.419376,-0.540673 -3.1457306,-1.622018 -0.720898,-1.086803 -1.0813459,-2.659667 -1.0813448,-4.718595 -1.1e-6,-2.064378 0.3604468,-3.637242 1.0813448,-4.718596 0.7263546,-1.086795 1.7749306,-1.630197 3.1457306,-1.63021"
           style="fill:#364e59"
           id="path3319" />
        <path
           d="m 20.400484,61.789499 2.703362,0 0,-9.330695 -2.94093,0.589824 0,-1.507329 2.924546,-0.589824 1.654786,0 0,10.838024 2.703362,0 0,1.392641 -7.045126,0 0,-1.392641"
           style="fill:#364e59"
           id="path3321" />
        <path
           d="m 34.335088,52.041012 c -0.851974,1.1e-5 -1.49368,0.420533 -1.925122,1.261569 -0.425987,0.835593 -0.638979,2.09443 -0.638976,3.776515 -3e-6,1.676635 0.212989,2.935472 0.638976,3.776515 0.431442,0.835586 1.073148,1.253378 1.925122,1.253376 0.857423,2e-6 1.49913,-0.41779 1.925121,-1.253376 0.431438,-0.841043 0.647161,-2.09988 0.647169,-3.776515 -8e-6,-1.682085 -0.215731,-2.940922 -0.647169,-3.776515 -0.425991,-0.841036 -1.067698,-1.261558 -1.925121,-1.261569 m 0,-1.310722 c 1.370789,1.3e-5 2.416634,0.543415 3.137538,1.63021 0.726349,1.081354 1.089527,2.654218 1.089537,4.718596 -10e-6,2.058928 -0.363188,3.631792 -1.089537,4.718595 -0.720904,1.081345 -1.766749,1.622017 -3.137538,1.622018 -1.3708,-10e-7 -2.419376,-0.540673 -3.145731,-1.622018 -0.720898,-1.086803 -1.081346,-2.659667 -1.081345,-4.718595 -10e-7,-2.064378 0.360447,-3.637242 1.081345,-4.718596 0.726355,-1.086795 1.774931,-1.630197 3.145731,-1.63021"
           style="fill:#364e59"
           id="path3323" />
        <path
           d="m 41.765238,61.789499 2.703362,0 0,-9.330695 -2.94093,0.589824 0,-1.507329 2.924546,-0.589824 1.654785,0 0,10.838024 2.703363,0 0,1.392641 -7.045126,0 0,-1.392641"
           style="fill:#364e59"
           id="path3325" />
      </g>
      <path
         id="path4060"
         d="m -23.093973,38.517005 c -2.193234,0 -3.970674,1.769321 -3.970674,3.952535 l 0,3.983657 c 0,-2.183214 1.77744,-3.952535 3.970674,-3.952535 l 84.103249,0 c 2.19323,0 3.970672,1.769321 3.970672,3.952535 l 0,-3.983657 c 0,-2.183214 -1.777442,-3.952535 -3.970672,-3.952535 l -84.103249,0 z"
         style="fill:#e4e8e8;fill-opacity:1;stroke:#738589;stroke-width:1.00031602;stroke-miterlimit:4;stroke-opacity:1;stroke-dasharray:none"
         inkscape:connector-curvature="0" />
      <path
         inkscape:connector-curvature="0"
         style="fill:#e4e8e8;fill-opacity:1;stroke:#738589;stroke-width:1.00031602;stroke-miterlimit:4;stroke-opacity:1;stroke-dasharray:none"
         d="m -23.093973,34.533774 c -2.193234,0 -3.970674,1.76932 -3.970674,3.952533 l 0,3.983656 c 0,-2.183213 1.77744,-3.952533 3.970674,-3.952533 l 84.103249,0 c 2.19323,0 3.970672,1.76932 3.970672,3.952533 l 0,-3.983656 c 0,-2.183213 -1.777442,-3.952533 -3.970672,-3.952533 l -84.103249,0 z"
         id="path4062" />
      <rect
         style="opacity:0.6;fill:url(#radialGradient5873);fill-opacity:1;stroke:none"
         id="rect4338"
         width="90.578949"
         height="5.4001536"
         x="-26.353302"
         y="116.92065" />
      <path
         style="opacity:0.25818182;fill:url(#linearGradient5875);fill-opacity:1;stroke:none"
         d="m -23.110487,30.742695 c -2.193255,0 -3.950802,1.750269 -3.950802,3.923801 l 0,13.058407 c 0,-2.173532 2.111063,-4.806126 4.304314,-4.80154 l 83.959531,0.175548 c 2.19324,0.0046 3.774032,2.45246 3.774032,4.625992 l 0,-13.058407 c 0,-2.173532 -1.757552,-3.923801 -3.950802,-3.923801 z"
         id="rect4358"
         inkscape:connector-curvature="0"
         sodipodi:nodetypes="sscsscsss" />
      <g
         id="g4111"
         transform="matrix(1.4386579,0,0,1.4386579,89.26212,-6.3241435)">
        <path
           style="fill:url(#radialGradient4210);fill-opacity:1;fill-rule:nonzero"
           id="path4253"
           d="m -79.857685,34.123204 61.801301,0 0,1.900651 -61.801301,0 z"
           inkscape:connector-curvature="0" />
        <g
           id="g4178">
          <path
             inkscape:connector-curvature="0"
             d="m -20.164741,62.19609 3.406405,3.492737 0,21.829606 -24.119544,0 z"
             id="path3934"
             style="fill:url(#radialGradient3333-6);fill-rule:nonzero" />
          <path
             inkscape:connector-curvature="0"
             d="m -18.166079,29.019518 0,31 -23.989655,29 1.919172,0 22.820159,-28.34375 0.20991,-0.28125 0,-0.375 0,-30 z"
             id="path3922"
             style="fill:url(#linearGradient3335-7);fill-rule:nonzero" />
          <path
             inkscape:connector-curvature="0"
             d="m -41.954866,88.617783 26,-31 c -2.328567,2.776369 -4.36141,3 -11,3 h -12 v 15 c 0,6.644068 0.04437,9.370179 -3,13 z"
             id="path4278"
             style="fill:url(#linearGradient3341-2);fill-rule:nonzero" />
          <path
             d="m -16.054215,57.668542 c -2.328567,2.776369 -4.36141,3 -11,3 h -12 v 15 c 0,6.644068 0.04437,9.370179 -3,13 4,-5 4.000382,-8.356667 4,-13 v -14 h 11 c 5,0 8.041405,-0.381883 11,-4 z"
             id="path4282"
             style="fill:#ffffff;fill-opacity:0.77120146;fill-rule:nonzero"
             inkscape:connector-curvature="0" />
        </g>
      </g>
      <g
         id="g3327"
         style="font-size:16.77722931px;font-style:normal;font-variant:normal;font-weight:normal;font-stretch:normal;line-height:125%;letter-spacing:0px;word-spacing:0px;fill:#364e59;fill-opacity:1;stroke:none;font-family:Droid Sans Ethiopic;-inkscape-font-specification:Droid Sans Ethiopic"
         transform="translate(0,24)">
        <path
           id="path3329"
           style="fill:#364e59"
           d="m -8.3944198,52.041012 c -0.8519732,1.1e-5 -1.4936797,0.420533 -1.9251212,1.261569 -0.425988,0.835593 -0.63898,2.09443 -0.638977,3.776515 -3e-6,1.676635 0.212989,2.935472 0.638977,3.776515 0.4314415,0.835586 1.073148,1.253378 1.9251212,1.253376 0.8574238,2e-6 1.4991303,-0.41779 1.9251215,-1.253376 0.431438,-0.841043 0.6471606,-2.09988 0.6471685,-3.776515 -7.9e-6,-1.682085 -0.2157305,-2.940922 -0.6471685,-3.776515 -0.4259912,-0.841036 -1.0676977,-1.261558 -1.9251215,-1.261569 m 0,-1.310722 c 1.370789,1.3e-5 2.4166342,0.543415 3.1375385,1.63021 0.7263487,1.081354 1.0895273,2.654218 1.0895368,4.718596 -9.5e-6,2.058928 -0.3631881,3.631792 -1.0895368,4.718595 -0.7209043,1.081345 -1.7667495,1.622017 -3.1375385,1.622018 -1.3707997,-10e-7 -2.4193752,-0.540673 -3.1457302,-1.622018 -0.720898,-1.086803 -1.081346,-2.659667 -1.081345,-4.718595 -1e-6,-2.064378 0.360447,-3.637242 1.081345,-4.718596 0.726355,-1.086795 1.7749305,-1.630197 3.1457302,-1.63021"
           inkscape:connector-curvature="0" />
        <path
           id="path3331"
           style="fill:#364e59"
           d="m -0.96426953,61.789499 2.70336213,0 0,-9.330695 -2.9409303,0.589824 0,-1.507329 2.9245463,-0.589824 1.6547853,0 0,10.838024 2.7033622,0 0,1.392641 -7.04512563,0 0,-1.392641"
           inkscape:connector-curvature="0" />
        <path
           id="path3333"
           style="fill:#364e59"
           d="m 12.970334,52.041012 c -0.851973,1.1e-5 -1.49368,0.420533 -1.925122,1.261569 -0.425987,0.835593 -0.638979,2.09443 -0.638976,3.776515 -3e-6,1.676635 0.212989,2.935472 0.638976,3.776515 0.431442,0.835586 1.073149,1.253378 1.925122,1.253376 0.857424,2e-6 1.49913,-0.41779 1.925121,-1.253376 0.431438,-0.841043 0.647161,-2.09988 0.647169,-3.776515 -8e-6,-1.682085 -0.215731,-2.940922 -0.647169,-3.776515 -0.425991,-0.841036 -1.067697,-1.261558 -1.925121,-1.261569 m 0,-1.310722 c 1.370789,1.3e-5 2.416634,0.543415 3.137538,1.63021 0.726349,1.081354 1.089528,2.654218 1.089537,4.718596 -9e-6,2.058928 -0.363188,3.631792 -1.089537,4.718595 -0.720904,1.081345 -1.766749,1.622017 -3.137538,1.622018 -1.3708,-10e-7 -2.419376,-0.540673 -3.1457306,-1.622018 -0.720898,-1.086803 -1.0813459,-2.659667 -1.0813448,-4.718595 -1.1e-6,-2.064378 0.3604468,-3.637242 1.0813448,-4.718596 0.7263546,-1.086795 1.7749306,-1.630197 3.1457306,-1.63021"
           inkscape:connector-curvature="0" />
        <path
           id="path3335"
           style="fill:#364e59"
           d="m 20.400484,61.789499 2.703362,0 0,-9.330695 -2.94093,0.589824 0,-1.507329 2.924546,-0.589824 1.654786,0 0,10.838024 2.703362,0 0,1.392641 -7.045126,0 0,-1.392641"
           inkscape:connector-curvature="0" />
      </g>
      <g
         transform="translate(0,44)"
         style="font-size:16.77722931px;font-style:normal;font-variant:normal;font-weight:normal;font-stretch:normal;line-height:125%;letter-spacing:0px;word-spacing:0px;fill:#364e59;fill-opacity:1;stroke:none;font-family:Droid Sans Ethiopic;-inkscape-font-specification:Droid Sans Ethiopic"
         id="g3341">
        <path
           inkscape:connector-curvature="0"
           d="m -8.3944198,52.041012 c -0.8519732,1.1e-5 -1.4936797,0.420533 -1.9251212,1.261569 -0.425988,0.835593 -0.63898,2.09443 -0.638977,3.776515 -3e-6,1.676635 0.212989,2.935472 0.638977,3.776515 0.4314415,0.835586 1.073148,1.253378 1.9251212,1.253376 0.8574238,2e-6 1.4991303,-0.41779 1.9251215,-1.253376 0.431438,-0.841043 0.6471606,-2.09988 0.6471685,-3.776515 -7.9e-6,-1.682085 -0.2157305,-2.940922 -0.6471685,-3.776515 -0.4259912,-0.841036 -1.0676977,-1.261558 -1.9251215,-1.261569 m 0,-1.310722 c 1.370789,1.3e-5 2.4166342,0.543415 3.1375385,1.63021 0.7263487,1.081354 1.0895273,2.654218 1.0895368,4.718596 -9.5e-6,2.058928 -0.3631881,3.631792 -1.0895368,4.718595 -0.7209043,1.081345 -1.7667495,1.622017 -3.1375385,1.622018 -1.3707997,-10e-7 -2.4193752,-0.540673 -3.1457302,-1.622018 -0.720898,-1.086803 -1.081346,-2.659667 -1.081345,-4.718595 -1e-6,-2.064378 0.360447,-3.637242 1.081345,-4.718596 0.726355,-1.086795 1.7749305,-1.630197 3.1457302,-1.63021"
           style="fill:#364e59"
           id="path3343" />
        <path
           inkscape:connector-curvature="0"
           d="m -0.96426953,61.789499 2.70336213,0 0,-9.330695 -2.9409303,0.589824 0,-1.507329 2.9245463,-0.589824 1.6547853,0 0,10.838024 2.7033622,0 0,1.392641 -7.04512563,0 0,-1.392641"
           style="fill:#364e59"
           id="path3345" />
        <path
           inkscape:connector-curvature="0"
           d="m 12.970334,52.041012 c -0.851973,1.1e-5 -1.49368,0.420533 -1.925122,1.261569 -0.425987,0.835593 -0.638979,2.09443 -0.638976,3.776515 -3e-6,1.676635 0.212989,2.935472 0.638976,3.776515 0.431442,0.835586 1.073149,1.253378 1.925122,1.253376 0.857424,2e-6 1.49913,-0.41779 1.925121,-1.253376 0.431438,-0.841043 0.647161,-2.09988 0.647169,-3.776515 -8e-6,-1.682085 -0.215731,-2.940922 -0.647169,-3.776515 -0.425991,-0.841036 -1.067697,-1.261558 -1.925121,-1.261569 m 0,-1.310722 c 1.370789,1.3e-5 2.416634,0.543415 3.137538,1.63021 0.726349,1.081354 1.089528,2.654218 1.089537,4.718596 -9e-6,2.058928 -0.363188,3.631792 -1.089537,4.718595 -0.720904,1.081345 -1.766749,1.622017 -3.137538,1.622018 -1.3708,-10e-7 -2.419376,-0.540673 -3.1457306,-1.622018 -0.720898,-1.086803 -1.0813459,-2.659667 -1.0813448,-4.718595 -1.1e-6,-2.064378 0.3604468,-3.637242 1.0813448,-4.718596 0.7263546,-1.086795 1.7749306,-1.630197 3.1457306,-1.63021"
           style="fill:#364e59"
           id="path3347" />
        <path
           inkscape:connector-curvature="0"
           d="m 20.400484,61.789499 2.703362,0 0,-9.330695 -2.94093,0.589824 0,-1.507329 2.924546,-0.589824 1.654786,0 0,10.838024 2.703362,0 0,1.392641 -7.045126,0 0,-1.392641"
           style="fill:#364e59"
           id="path3349" />
      </g>
      <path
         inkscape:transform-center-y="-102.51261"
         inkscape:transform-center-x="-35.678407"
         id="rect4371"
         d="m -22.636088,43.084248 c -2.168522,0 -3.90625,1.74244 -3.90625,3.90625 l 0,70.593752 c 0,2.16381 1.737728,3.90625 3.90625,3.90625 l 83.1875,0 c 2.168522,0 3.90625,-1.74244 3.90625,-3.90625 l 0,-70.593752 c 0,-2.16381 -1.737728,-3.90625 -3.90625,-3.90625 l -83.1875,0 z"
         style="opacity:0.27999998;fill:url(#linearGradient4141);fill-opacity:1;stroke:none"
         inkscape:connector-curvature="0" />
    </g>
  </g>
</svg>
