<?xml version="1.0" encoding="UTF-8" standalone="no"?>
<!-- Created with Inkscape (http://www.inkscape.org/) -->

<svg
   xmlns:dc="http://purl.org/dc/elements/1.1/"
   xmlns:cc="http://creativecommons.org/ns#"
   xmlns:rdf="http://www.w3.org/1999/02/22-rdf-syntax-ns#"
   xmlns:svg="http://www.w3.org/2000/svg"
   xmlns="http://www.w3.org/2000/svg"
   xmlns:xlink="http://www.w3.org/1999/xlink"
   xmlns:sodipodi="http://sodipodi.sourceforge.net/DTD/sodipodi-0.dtd"
   xmlns:inkscape="http://www.inkscape.org/namespaces/inkscape"
   width="96"
   height="96"
   viewBox="0 0 96.000001 96.000004"
   version="1.1"
   id="svg1072"
   inkscape:version="0.92.1 r15371"
   sodipodi:docname="application-x-matlab-mat.svg">
  <defs
     id="defs1066">
    <linearGradient
       inkscape:collect="always"
       xlink:href="#linearGradient6139-0"
       id="linearGradient4071"
       gradientUnits="userSpaceOnUse"
       gradientTransform="matrix(1.1071428,0,0,1.1071426,-4.9939026,-3.620687)"
       x1="6"
       y1="47.000011"
       x2="90"
       y2="47.000011" />
    <linearGradient
       id="linearGradient6139-0">
      <stop
         id="stop6141-2"
         offset="0"
         style="stop-color:#b0b9be;stop-opacity:1" />
      <stop
         style="stop-color:#ffffff;stop-opacity:1;"
         offset="0.25"
         id="stop6151-0" />
      <stop
         style="stop-color:#93a2a7;stop-opacity:1"
         offset="0.5"
         id="stop6147-1" />
      <stop
         id="stop6149-4"
         offset="0.75"
         style="stop-color:#f9fbfb;stop-opacity:1" />
      <stop
         id="stop6143-4"
         offset="1"
         style="stop-color:#b0b8be;stop-opacity:1" />
    </linearGradient>
    <linearGradient
       gradientTransform="translate(0.1489535,0.415026)"
       inkscape:collect="always"
       xlink:href="#linearGradient3832-0-6-1-1"
       id="linearGradient4129"
       x1="1.5"
       y1="88.171875"
       x2="94.5"
       y2="88.171875"
       gradientUnits="userSpaceOnUse" />
    <linearGradient
       id="linearGradient3832-0-6-1-1">
      <stop
         style="stop-color:#000000;stop-opacity:1;"
         offset="0"
         id="stop3834-6-3-7-1" />
      <stop
         id="stop3872-2-4"
         offset="0.1"
         style="stop-color:#000000;stop-opacity:0.58823532;" />
      <stop
         style="stop-color:#000000;stop-opacity:0.58823532;"
         offset="0.89999998"
         id="stop3844-6-2-7-6" />
      <stop
         style="stop-color:#000000;stop-opacity:1;"
         offset="1"
         id="stop3836-5-0-2-9" />
    </linearGradient>
    <radialGradient
       inkscape:collect="always"
       xlink:href="#linearGradient4050"
       id="radialGradient7462"
       gradientUnits="userSpaceOnUse"
       gradientTransform="matrix(0.97513378,0,0,0.04919072,34.047649,80.581722)"
       cx="13.948145"
       cy="44.892841"
       fx="13.948145"
       fy="44.892841"
       r="43.199203" />
    <linearGradient
       inkscape:collect="always"
       id="linearGradient4050">
      <stop
         style="stop-color:#ffffff;stop-opacity:1;"
         offset="0"
         id="stop4052" />
      <stop
         style="stop-color:#ffffff;stop-opacity:0;"
         offset="1"
         id="stop4054" />
    </linearGradient>
    <radialGradient
       inkscape:collect="always"
       xlink:href="#linearGradient4050"
       id="radialGradient7464"
       gradientUnits="userSpaceOnUse"
       gradientTransform="matrix(0.88832663,0,0,0.04919072,31.959518,-90.31726)"
       cx="13.948145"
       cy="44.892841"
       fx="13.948145"
       fy="44.892841"
       r="43.199203" />
    <radialGradient
       inkscape:collect="always"
       xlink:href="#linearGradient4050"
       id="radialGradient4543"
       gradientUnits="userSpaceOnUse"
       gradientTransform="matrix(1,0,0,0.04885057,-16.372364,-3.861835)"
       cx="48"
       cy="-16.128"
       fx="48"
       fy="-16.128"
       r="44.543999" />
    <linearGradient
       inkscape:collect="always"
       xlink:href="#linearGradient4160"
       id="linearGradient4388"
       x1="2.5"
       y1="54.296875"
       x2="93.5"
       y2="54.296875"
       gradientUnits="userSpaceOnUse"
       gradientTransform="translate(-17.652364,-22.601697)" />
    <linearGradient
       id="linearGradient4160">
      <stop
         id="stop4170"
         offset="0"
         style="stop-color:#000000;stop-opacity:0;" />
      <stop
         style="stop-color:#000000;stop-opacity:0.96470588;"
         offset="0.03175623"
         id="stop4186" />
      <stop
         style="stop-color:#000000;stop-opacity:0;"
         offset="0.09425623"
         id="stop4182" />
      <stop
         style="stop-color:#000000;stop-opacity:0;"
         offset="0.49595019"
         id="stop4180" />
      <stop
         style="stop-color:#000000;stop-opacity:0;"
         offset="0.90525883"
         id="stop4178" />
      <stop
         id="stop4184"
         offset="0.96241152"
         style="stop-color:#000000;stop-opacity:0.98823529;" />
      <stop
         id="stop4168"
         offset="1"
         style="stop-color:#000000;stop-opacity:0;" />
    </linearGradient>
    <linearGradient
       gradientTransform="matrix(1.0000468,0,0,0.991319,-17.353732,9.636111)"
       inkscape:collect="always"
       xlink:href="#linearGradient13484"
       id="linearGradient13490"
       x1="47.056839"
       y1="22.252237"
       x2="48.640831"
       y2="22.252237"
       gradientUnits="userSpaceOnUse" />
    <linearGradient
       id="linearGradient13484">
      <stop
         style="stop-color:#849699;stop-opacity:1"
         offset="0"
         id="stop13486" />
      <stop
         style="stop-color:#0b0d0d;stop-opacity:0"
         offset="1"
         id="stop13488" />
    </linearGradient>
    <linearGradient
       inkscape:collect="always"
       xlink:href="#linearGradient4160"
       id="linearGradient4369"
       x1="2.5"
       y1="11.140625"
       x2="93.5"
       y2="11.140625"
       gradientUnits="userSpaceOnUse"
       gradientTransform="translate(-17.652364,-22.601697)" />
    <linearGradient
       inkscape:collect="always"
       xlink:href="#linearGradient4050"
       id="linearGradient4767-6"
       gradientUnits="userSpaceOnUse"
       x1="2.7713892"
       y1="-28.64156"
       x2="50.527882"
       y2="14.514202" />
    <clipPath
       id="clipPath4156-4-1-2"
       clipPathUnits="userSpaceOnUse">
      <path
         inkscape:connector-curvature="0"
         id="path4158-0-8-6"
         d="m 27.046336,-55.695463 -14.21366,13.321486 h 0.06127 l 15.653407,21.770763 10.231384,-10.546177 C 38.561832,-32.30156 27.468089,-54.819245 27.046336,-55.695463 Z M 9.6468554,-39.382809 -5.2407289,-25.32124 15.987863,-7.8059573 26.372412,-18.382966 Z m 31.4906096,12.951445 -9.741259,9.713584 8.944804,12.4580526 7.780753,-7.5550056 z m -49.8397109,4.378822 -13.7541661,12.9822847 26.2830181,13.84571 0.06127,-0.0617 -0.122531,-0.0617 L 13.598503,-5.4007374 -8.7022409,-22.052595 Z m 38.0154159,7.400825 -9.802525,9.7752596 11.579232,9.5594001 7.62759,-7.40083 -8.669108,-11.0087257 z m 20.187073,5.6739697 -7.382526,7.2158 6.187844,8.54179 5.820249,-6.13651996 z m -32.195166,6.32154 -9.5574606,9.49772 13.6622686,7.1849703 7.933918,-7.6783603 z m 23.311629,2.37443004 -7.10683,6.93826996 8.362778,6.9074403 5.360756,-5.6739699 -0.06127,-0.0925 -0.0919,0.12335 -6.463539,-8.20258036 z m -8.730374,8.54178036 -7.505057,7.3391599 10.353916,5.45811 c 1.397496,-1.32103 5.67514,-6.12292 5.850882,-6.32154 z"
         style="opacity:0.6;fill:#ffffff;fill-opacity:1;stroke:none" />
    </clipPath>
  </defs>
  <sodipodi:namedview
     id="base"
     pagecolor="#ffffff"
     bordercolor="#666666"
     borderopacity="1.0"
     inkscape:pageopacity="0.0"
     inkscape:pageshadow="2"
     inkscape:zoom="3.7513775"
     inkscape:cx="34.958638"
     inkscape:cy="47.634624"
     inkscape:document-units="px"
     inkscape:current-layer="g1003"
     showgrid="false"
     inkscape:showpageshadow="false"
     units="px"
     inkscape:lockguides="true"
     inkscape:window-width="1280"
     inkscape:window-height="972"
     inkscape:window-x="0"
     inkscape:window-y="26"
     inkscape:window-maximized="1">
    <sodipodi:guide
       position="0,0"
       orientation="0,96"
       id="guide1621"
       inkscape:locked="true" />
    <sodipodi:guide
       position="96.000002,0"
       orientation="-96,0"
       id="guide1623"
       inkscape:locked="true" />
    <sodipodi:guide
       position="96.000002,96.000002"
       orientation="0,-96"
       id="guide1625"
       inkscape:locked="true" />
    <sodipodi:guide
       position="0,96.000002"
       orientation="96,0"
       id="guide1627"
       inkscape:locked="true" />
  </sodipodi:namedview>
  <metadata
     id="metadata1069">
    <rdf:RDF>
      <cc:Work
         rdf:about="">
        <dc:format>image/svg+xml</dc:format>
        <dc:type
           rdf:resource="http://purl.org/dc/dcmitype/StillImage" />
        <dc:title></dc:title>
        <dc:date>2017</dc:date>
        <dc:creator>
          <cc:Agent>
            <dc:title>Cristian Pozzessere &quot;ilnanny&quot;</dc:title>
          </cc:Agent>
        </dc:creator>
        <dc:subject>
          <rdf:Bag>
            <rdf:li>Global language</rdf:li>
          </rdf:Bag>
        </dc:subject>
        <dc:description>Playing with Inkscape on Gnu/Linux O. S.</dc:description>
        <dc:contributor>
          <cc:Agent>
            <dc:title>In the night, alone like a dog.</dc:title>
          </cc:Agent>
        </dc:contributor>
        <cc:license
           rdf:resource="http://creativecommons.org/licenses/by-sa/4.0/" />
      </cc:Work>
      <cc:License
         rdf:about="http://creativecommons.org/licenses/by-sa/4.0/">
        <cc:permits
           rdf:resource="http://creativecommons.org/ns#Reproduction" />
        <cc:permits
           rdf:resource="http://creativecommons.org/ns#Distribution" />
        <cc:requires
           rdf:resource="http://creativecommons.org/ns#Notice" />
        <cc:requires
           rdf:resource="http://creativecommons.org/ns#Attribution" />
        <cc:permits
           rdf:resource="http://creativecommons.org/ns#DerivativeWorks" />
        <cc:requires
           rdf:resource="http://creativecommons.org/ns#ShareAlike" />
      </cc:License>
    </rdf:RDF>
  </metadata>
  <g
     inkscape:label="Livello 1"
     inkscape:groupmode="layer"
     id="layer1"
     transform="translate(0,-1026.5197)">
    <g
       transform="translate(-0.14895645,1026.1047)"
       style="display:inline"
       id="g1273">
      <path
         style="display:inline;opacity:0.15;fill:#000000;fill-opacity:1;fill-rule:nonzero;stroke:none"
         d="M 89.29181,0.415026 H 7.0060911 c -3.798848,0 -6.8571352,3.058285 -6.8571352,6.8571399 V 89.557884 c 0,3.798857 3.0582872,6.857142 6.8571352,6.857142 H 89.29181 c 3.798857,0 6.857147,-3.058285 6.857147,-6.857142 V 7.2721659 c 0,-3.7988549 -3.05829,-6.8571399 -6.857147,-6.8571399 z"
         id="path3288"
         inkscape:connector-curvature="0" />
      <path
         inkscape:connector-curvature="0"
         id="path4085"
         d="M 88.648954,1.165026 H 7.6489471 c -3.739492,0 -6.749993,3.010499 -6.749993,6.7499969 V 88.915026 c 0,3.739501 3.010501,6.75 6.749993,6.75 H 88.648954 c 3.739503,0 6.750003,-3.010499 6.750003,-6.75 V 7.9150229 c 0,-3.7394979 -3.0105,-6.7499969 -6.750003,-6.7499969 z"
         style="display:inline;opacity:0.15;fill:#000000;fill-opacity:1;fill-rule:nonzero;stroke:none" />
      <path
         style="display:inline;fill:url(#linearGradient4071);fill-opacity:1;fill-rule:nonzero;stroke:none"
         d="M 88.006093,1.915026 H 8.2918111 c -3.680143,0 -6.6428566,2.962713 -6.6428566,6.6428549 V 88.272171 c 0,3.680142 2.9627136,6.642856 6.6428566,6.642856 H 88.006093 c 3.680143,0 6.642854,-2.962714 6.642854,-6.642856 V 8.5578809 c 0,-3.6801419 -2.962711,-6.6428549 -6.642854,-6.6428549 z"
         id="rect4251-1"
         inkscape:connector-curvature="0" />
      <path
         inkscape:connector-curvature="0"
         id="path4989"
         d="m 9.9740341,5.1444869 c -3.116621,0 -5.667965,2.53951 -5.667965,5.6460041 v 69.277996 c 0,3.106495 2.551344,5.646004 5.667965,5.646004 H 86.765819 c 3.116621,0 5.667968,-2.539509 5.667968,-5.646004 V 10.790491 c 0,-3.1064931 -2.551347,-5.6460041 -5.667968,-5.6460041 z m 0,2.319439 H 86.765819 c 1.888099,0 3.352022,1.480095 3.352022,3.3265651 v 69.277996 c 0,1.846474 -1.463923,3.326564 -3.352022,3.326564 H 9.9740341 c -1.888099,0 -3.352022,-1.48009 -3.352022,-3.326564 V 10.790491 c 0,-1.8464701 1.463923,-3.3265651 3.352022,-3.3265651 z"
         style="color:#000000;font-style:normal;font-variant:normal;font-weight:normal;font-stretch:normal;font-size:medium;line-height:normal;font-family:Sans;-inkscape-font-specification:Sans;text-indent:0;text-align:start;text-decoration:none;text-decoration-line:none;letter-spacing:normal;word-spacing:normal;text-transform:none;writing-mode:lr-tb;direction:ltr;baseline-shift:baseline;text-anchor:start;display:inline;overflow:visible;visibility:visible;fill:#241f1f;fill-opacity:0.63265303;stroke:none;stroke-width:2.3755002;marker:none;enable-background:accumulate" />
      <path
         inkscape:connector-curvature="0"
         style="display:inline;opacity:0.65818182;fill:url(#linearGradient4129);fill-opacity:1;fill-rule:nonzero;stroke:none"
         d="m 1.6489535,82.258776 v 6 c 0,3.680142 2.9761066,6.65625 6.6562496,6.65625 H 87.992703 c 3.680143,0 6.656254,-2.976108 6.656254,-6.65625 v -6 c 0,3.680142 -2.976111,6.65625 -6.656254,6.65625 H 8.3052031 c -3.680143,0 -6.6562496,-2.976108 -6.6562496,-6.65625 z"
         id="path4118" />
      <rect
         style="opacity:0.55;fill:url(#radialGradient7462);fill-opacity:1;stroke:none"
         id="rect4131"
         width="84.250008"
         height="4.25"
         x="5.5239539"
         y="80.665031"
         rx="0"
         ry="4.25" />
      <rect
         ry="4.25"
         rx="0"
         y="-90.233963"
         x="5.9750223"
         height="4.25"
         width="76.75"
         id="rect4141"
         style="opacity:0.669;fill:url(#radialGradient7464);fill-opacity:1;stroke:none"
         transform="rotate(90)" />
      <g
         transform="matrix(0.91297981,0,0,0.8444453,20.28803,23.983749)"
         id="g1003">
        <path
           inkscape:connector-curvature="0"
           style="opacity:1;fill:#ebedee;fill-opacity:1;stroke:none"
           d="m -11.246114,-7.507947 c -2.168522,0 -3.90625,1.74244 -3.90625,3.90625 v 70.59375 c 0,2.16381 1.737728,3.90625 3.90625,3.90625 h 83.1875 c 2.168522,0 3.90625,-1.74244 3.90625,-3.90625 v -70.59375 c 0,-2.16381 -1.737728,-3.90625 -3.90625,-3.90625 z"
           id="path1246" />
        <rect
           ry="3.0576727"
           rx="3.9569874"
           y="-6.8256979"
           x="-12.916362"
           height="4.3519998"
           width="89.087997"
           id="rect4048"
           style="opacity:0.65090906;fill:url(#radialGradient4543);fill-opacity:1;stroke:none" />
        <path
           id="rect4371"
           d="m -11.246114,-7.507947 c -2.168522,0 -3.90625,1.74244 -3.90625,3.90625 v 70.59375 c 0,2.16381 1.737728,3.90625 3.90625,3.90625 h 83.1875 c 2.168522,0 3.90625,-1.74244 3.90625,-3.90625 v -70.59375 c 0,-2.16381 -1.737728,-3.90625 -3.90625,-3.90625 z"
           style="opacity:0.27999998;fill:url(#linearGradient4388);fill-opacity:1;stroke:none"
           inkscape:connector-curvature="0" />
        <g
           id="g3026"
           transform="matrix(1.4502243,0,0,1.5679234,-744.36202,-825.78662)">
          <path
             sodipodi:nodetypes="ccccccccccccccccccccccccccccccccccccccccccccccccccccccccccccccccccccccscccccccscccc"
             inkscape:connector-curvature="0"
             id="path3024"
             d="m 542.82297,524.2212 c -0.22721,-0.0169 -0.45728,0.0304 -0.67517,0.0907 -1.46653,5.00231 -3.58318,10.21897 -6.16723,15.19972 -3.33234,6.38593 -7.42997,12.3568 -11.71972,17.07742 0.23707,0.15649 0.46769,0.36076 0.81288,0.71883 0.56456,0.58561 0.72823,0.80282 1.32347,1.7635 0.74557,1.2032 1.04153,1.76552 1.32011,2.48908 0.1013,0.26312 0.36711,0.85617 0.58783,1.31677 0.22072,0.46053 0.50869,1.12506 0.64158,1.47797 0.13302,0.35343 0.35943,0.90695 0.50385,1.22941 0.14444,0.32227 0.43512,1.01672 0.64494,1.5418 0.20979,0.5247 0.47063,1.14531 0.57776,1.38058 0.13831,0.30355 0.22392,0.42659 0.29561,0.42659 0.12963,-5.1e-4 0.94917,-0.19646 1.39064,-0.33253 0.33231,-0.10151 1.35267,-0.59893 2.20017,-1.07154 0.2303,-0.129 0.66755,-0.43251 0.97413,-0.67518 0.63892,-0.50613 2.37939,-2.05773 2.55961,-2.2808 0.0666,-0.0844 0.46216,-0.5225 0.8767,-0.98083 0.41452,-0.45834 1.06729,-1.19439 1.4511,-1.63587 0.38384,-0.44148 0.88715,-1.02036 1.11857,-1.28314 0.2314,-0.263 0.67409,-0.77689 0.9842,-1.14545 0.76983,-0.91463 2.43672,-2.54618 3.11385,-3.04667 1.23453,-0.91187 2.03825,-1.31165 3.02987,-1.50151 0.73907,-0.14106 1.34517,-0.0878 2.19345,0.20154 0.69162,0.23425 0.90181,0.33587 1.42424,0.68861 0.21495,0.14444 0.45851,0.30749 0.54418,0.35943 0.40796,0.2468 1.67108,1.32457 2.55288,2.18002 1.92339,1.86619 3.83767,3.47174 3.97376,3.33554 0.059,-0.0603 -0.14825,-0.57293 -0.76587,-1.91132 -0.20534,-0.44524 -0.48263,-1.09801 -0.6147,-1.4511 -0.13218,-0.35325 -0.42089,-1.07039 -0.64158,-1.59219 -0.2207,-0.52214 -0.50918,-1.25066 -0.64159,-1.61904 -0.13217,-0.36841 -0.41803,-1.0971 -0.63822,-1.61905 -0.22019,-0.52183 -0.5351,-1.29996 -0.69868,-1.72992 -0.16347,-0.42978 -0.47466,-1.23427 -0.68861,-1.78703 -0.44709,-1.15503 -1.45354,-4.03703 -2.99963,-8.59581 -1.54005,-4.54138 -2.28771,-6.65699 -3.16759,-8.93508 -0.74878,-1.9386 -2.14625,-4.81096 -2.89549,-5.95224 -0.5266,-0.80231 -1.54809,-1.86471 -2.04904,-2.13299 -0.21283,-0.11357 -0.46671,-0.18187 -0.73226,-0.19816 z m -2.70741,1.7971 c -0.40107,0.55172 -0.86683,1.26041 -1.43094,2.21697 -0.31686,0.53745 -0.75274,1.25425 -0.97077,1.59219 -0.21802,0.33744 -0.46932,0.7383 -0.55761,0.89016 -0.35754,0.61466 -1.54125,2.23069 -2.47562,3.37921 -0.79102,0.97204 -2.29194,2.36591 -2.85856,2.65365 -0.10743,0.055 -0.29706,0.16643 -0.41986,0.24857 -0.27554,0.18525 -0.78448,0.38927 -1.46792,0.58446 -0.57786,0.16517 -1.66179,0.69822 -2.12628,1.04802 -0.79482,0.59889 -2.57462,2.51541 -3.31539,3.57071 -0.11525,0.16347 -0.29203,0.38738 -0.39301,0.49714 -0.10088,0.11187 -0.2321,0.266 -0.29222,0.34598 -0.0675,0.0895 -0.29237,0.21704 -0.58448,0.33591 -0.26101,0.10659 -0.70114,0.2944 -0.9775,0.41651 -0.27636,0.12033 -1.03952,0.42839 -1.69967,0.68189 -0.66017,0.25369 -1.46459,0.58421 -1.78701,0.73228 -0.3224,0.14783 -0.78894,0.34268 -1.0346,0.43332 -0.68265,0.2516 -2.13808,0.83856 -2.36477,0.95396 -0.11102,0.0567 -0.98293,0.41014 -1.93481,0.78266 -0.95188,0.37286 -1.9195,0.76234 -2.1498,0.87 -0.23028,0.10828 -0.7199,0.3165 -1.08833,0.46356 -0.88491,0.35325 -0.88914,0.39005 -0.16453,0.86662 0.25229,0.16516 1.13547,0.80315 2.002,1.44103 0.18081,0.13408 0.49577,0.35482 0.69868,0.49378 0.20302,0.13936 0.60514,0.43015 0.89686,0.64495 0.29171,0.21446 0.63638,0.45687 0.76587,0.54081 0.21397,0.13936 1.09579,0.77012 1.93817,1.39064 0.18082,0.13407 0.49577,0.35481 0.69868,0.49378 0.34385,0.2358 1.09686,0.7779 1.87099,1.34699 0.62831,0.46212 1.26699,0.88679 1.3369,0.88679 0.0717,0 0.97181,-0.35218 1.14209,-0.44677 0.2118,-0.11695 0.67337,-0.23379 1.0413,-0.262 0.0594,0 0.12625,0.0169 0.18145,0.0169 0.76961,-0.68001 1.53011,-1.36932 2.25393,-2.09941 0.89631,-0.90411 1.75995,-1.84214 2.58647,-2.81488 0.8265,-0.97291 1.61772,-1.97997 2.37485,-3.01308 0.75714,-1.03258 1.47838,-2.09363 2.1666,-3.17765 0.68821,-1.08418 1.34193,-2.1889 1.96167,-3.31539 1.23947,-2.25298 2.34386,-4.58315 3.31202,-6.95323 0.96819,-2.36993 1.80212,-4.78194 2.50251,-7.19846 0.1493,-0.51474 0.22563,-1.02368 0.36277,-1.53844 z"
             style="fill:#803300;fill-opacity:0.49803922" />
          <path
             style="fill:#d45500;fill-opacity:0.49803922"
             d="m 542.94797,524.79263 c -0.22721,-0.0169 -0.45728,0.0304 -0.67517,0.0907 -1.46653,5.00231 -3.58318,10.21897 -6.16723,15.19972 -3.33234,6.38593 -7.42997,12.3568 -11.71972,17.07742 0.23707,0.15649 0.46769,0.36076 0.81288,0.71883 0.56456,0.58561 0.72823,0.80282 1.32347,1.7635 0.74557,1.2032 1.04153,1.76552 1.32011,2.48908 0.1013,0.26312 0.36711,0.85617 0.58783,1.31677 0.22072,0.46053 0.50869,1.12506 0.64158,1.47797 0.13302,0.35343 0.35943,0.90695 0.50385,1.22941 0.14444,0.32227 0.43512,1.01672 0.64494,1.5418 0.20979,0.5247 0.47063,1.14531 0.57776,1.38058 0.13831,0.30355 0.22392,0.42659 0.29561,0.42659 0.12963,-5.1e-4 0.94917,-0.19646 1.39064,-0.33253 0.33231,-0.10151 1.35267,-0.59893 2.20017,-1.07154 0.2303,-0.129 0.66755,-0.43251 0.97413,-0.67518 0.63892,-0.50613 2.37939,-2.05773 2.55961,-2.2808 0.0666,-0.0844 0.46216,-0.5225 0.8767,-0.98083 0.41452,-0.45834 1.06729,-1.19439 1.4511,-1.63587 0.38384,-0.44148 0.88715,-1.02036 1.11857,-1.28314 0.2314,-0.263 0.67409,-0.77689 0.9842,-1.14545 0.76983,-0.91463 2.43672,-2.54618 3.11385,-3.04667 1.23453,-0.91187 2.03825,-1.31165 3.02987,-1.50151 0.73907,-0.14106 1.34517,-0.0878 2.19345,0.20154 0.69162,0.23425 0.90181,0.33587 1.42424,0.68861 0.21495,0.14444 0.45851,0.30749 0.54418,0.35943 0.40796,0.2468 1.67108,1.32457 2.55288,2.18002 1.92339,1.86619 3.83767,3.47174 3.97376,3.33554 0.059,-0.0603 -0.14825,-0.57293 -0.76587,-1.91132 -0.20534,-0.44524 -0.48263,-1.09801 -0.6147,-1.4511 -0.13218,-0.35325 -0.42089,-1.07039 -0.64158,-1.59219 -0.2207,-0.52214 -0.50918,-1.25066 -0.64159,-1.61904 -0.13217,-0.36841 -0.41803,-1.0971 -0.63822,-1.61905 -0.22019,-0.52183 -0.5351,-1.29996 -0.69868,-1.72992 -0.16347,-0.42978 -0.47466,-1.23427 -0.68861,-1.78703 -0.44709,-1.15503 -1.45354,-4.03703 -2.99963,-8.59581 -1.54005,-4.54138 -2.28771,-6.65699 -3.16759,-8.93508 -0.74878,-1.9386 -2.14625,-4.81096 -2.89549,-5.95224 -0.5266,-0.80231 -1.54809,-1.86471 -2.04904,-2.13299 -0.21283,-0.11357 -0.46671,-0.18187 -0.73226,-0.19816 z m -2.70741,1.7971 c -0.40107,0.55172 -0.86683,1.26041 -1.43094,2.21697 -0.31686,0.53745 -0.75274,1.25425 -0.97077,1.59219 -0.21802,0.33744 -0.46932,0.7383 -0.55761,0.89016 -0.35754,0.61466 -1.54125,2.23069 -2.47562,3.37921 -0.79102,0.97204 -2.29194,2.36591 -2.85856,2.65365 -0.10743,0.055 -0.29706,0.16643 -0.41986,0.24857 -0.27554,0.18525 -0.78448,0.38927 -1.46792,0.58446 -0.57786,0.16517 -1.66179,0.69822 -2.12628,1.04802 -0.79482,0.59889 -2.57462,2.51541 -3.31539,3.57071 -0.11525,0.16347 -0.29203,0.38738 -0.39301,0.49714 -0.10088,0.11187 -0.2321,0.266 -0.29222,0.34598 -0.0675,0.0895 -0.29237,0.21704 -0.58448,0.33591 -0.26101,0.10659 -0.70114,0.2944 -0.9775,0.41651 -0.27636,0.12033 -1.03952,0.42839 -1.69967,0.68189 -0.66017,0.25369 -1.46459,0.58421 -1.78701,0.73228 -0.3224,0.14783 -0.78894,0.34268 -1.0346,0.43332 -0.68265,0.2516 -2.13808,0.83856 -2.36477,0.95396 -0.11102,0.0567 -0.98293,0.41014 -1.93481,0.78266 -0.95188,0.37286 -1.9195,0.76234 -2.1498,0.87 -0.23028,0.10828 -0.7199,0.3165 -1.08833,0.46356 -0.88491,0.35325 -0.88914,0.39005 -0.16453,0.86662 0.25229,0.16516 1.13547,0.80315 2.002,1.44103 0.18081,0.13408 0.49577,0.35482 0.69868,0.49378 0.20302,0.13936 0.60514,0.43015 0.89686,0.64495 0.29171,0.21446 0.63638,0.45687 0.76587,0.54081 0.21397,0.13936 1.09579,0.77012 1.93817,1.39064 0.18082,0.13407 0.49577,0.35481 0.69868,0.49378 0.34385,0.2358 1.09686,0.7779 1.87099,1.34699 0.62831,0.46212 1.26699,0.88679 1.3369,0.88679 0.0717,0 0.97181,-0.35218 1.14209,-0.44677 0.2118,-0.11695 0.67337,-0.23379 1.0413,-0.262 0.0594,0 0.12625,0.0169 0.18145,0.0169 0.76961,-0.68001 1.53011,-1.36932 2.25393,-2.09941 0.89631,-0.90411 1.75995,-1.84214 2.58647,-2.81488 0.8265,-0.97291 1.61772,-1.97997 2.37485,-3.01308 0.75714,-1.03258 1.47838,-2.09363 2.1666,-3.17765 0.68821,-1.08418 1.34193,-2.1889 1.96167,-3.31539 1.23947,-2.25298 2.34386,-4.58315 3.31202,-6.95323 0.96819,-2.36993 1.80212,-4.78194 2.50251,-7.19846 0.1493,-0.51474 0.22563,-1.02368 0.36277,-1.53844 z"
             id="path3022"
             inkscape:connector-curvature="0"
             sodipodi:nodetypes="ccccccccccccccccccccccccccccccccccccccccccccccccccccccccccccccccccccccscccccccscccc" />
          <path
             sodipodi:nodetypes="ccccccccccccccccccccccccccccccccccccccccccccccccccccccccccccccccccccccscccccccscccc"
             inkscape:connector-curvature="0"
             id="path4722-0"
             d="m 542.46583,523.77477 c -0.22721,-0.0169 -0.45728,0.0304 -0.67517,0.0907 -1.46653,5.00231 -3.58318,10.21897 -6.16723,15.19972 -3.33234,6.38593 -7.42997,12.3568 -11.71972,17.07742 0.23707,0.15649 0.46769,0.36076 0.81288,0.71883 0.56456,0.58561 0.72823,0.80282 1.32347,1.7635 0.74557,1.2032 1.04153,1.76552 1.32011,2.48908 0.1013,0.26312 0.36711,0.85617 0.58783,1.31677 0.22072,0.46053 0.50869,1.12506 0.64158,1.47797 0.13302,0.35343 0.35943,0.90695 0.50385,1.22941 0.14444,0.32227 0.43512,1.01672 0.64494,1.5418 0.20979,0.5247 0.47063,1.14531 0.57776,1.38058 0.13831,0.30355 0.22392,0.42659 0.29561,0.42659 0.12963,-5.1e-4 0.94917,-0.19646 1.39064,-0.33253 0.33231,-0.10151 1.35267,-0.59893 2.20017,-1.07154 0.2303,-0.129 0.66755,-0.43251 0.97413,-0.67518 0.63892,-0.50613 2.37939,-2.05773 2.55961,-2.2808 0.0666,-0.0844 0.46216,-0.5225 0.8767,-0.98083 0.41452,-0.45834 1.06729,-1.19439 1.4511,-1.63587 0.38384,-0.44148 0.88715,-1.02036 1.11857,-1.28314 0.2314,-0.263 0.67409,-0.77689 0.9842,-1.14545 0.76983,-0.91463 2.43672,-2.54618 3.11385,-3.04667 1.23453,-0.91187 2.03825,-1.31165 3.02987,-1.50151 0.73907,-0.14106 1.34517,-0.0878 2.19345,0.20154 0.69162,0.23425 0.90181,0.33587 1.42424,0.68861 0.21495,0.14444 0.45851,0.30749 0.54418,0.35943 0.40796,0.2468 1.67108,1.32457 2.55288,2.18002 1.92339,1.86619 3.83767,3.47174 3.97376,3.33554 0.059,-0.0603 -0.14825,-0.57293 -0.76587,-1.91132 -0.20534,-0.44524 -0.48263,-1.09801 -0.6147,-1.4511 -0.13218,-0.35325 -0.42089,-1.07039 -0.64158,-1.59219 -0.2207,-0.52214 -0.50918,-1.25066 -0.64159,-1.61904 -0.13217,-0.36841 -0.41803,-1.0971 -0.63822,-1.61905 -0.22019,-0.52183 -0.5351,-1.29996 -0.69868,-1.72992 -0.16347,-0.42978 -0.47466,-1.23427 -0.68861,-1.78703 -0.44709,-1.15503 -1.45354,-4.03703 -2.99963,-8.59581 -1.54005,-4.54138 -2.28771,-6.65699 -3.16759,-8.93508 -0.74878,-1.9386 -2.14625,-4.81096 -2.89549,-5.95224 -0.5266,-0.80231 -1.54809,-1.86471 -2.04904,-2.13299 -0.21283,-0.11357 -0.46671,-0.18187 -0.73226,-0.19816 z m -2.70741,1.7971 c -0.40107,0.55172 -0.86683,1.26041 -1.43094,2.21697 -0.31686,0.53745 -0.75274,1.25425 -0.97077,1.59219 -0.21802,0.33744 -0.46932,0.7383 -0.55761,0.89016 -0.35754,0.61466 -1.54125,2.23069 -2.47562,3.37921 -0.79102,0.97204 -2.29194,2.36591 -2.85856,2.65365 -0.10743,0.055 -0.29706,0.16643 -0.41986,0.24857 -0.27554,0.18525 -0.78448,0.38927 -1.46792,0.58446 -0.57786,0.16517 -1.66179,0.69822 -2.12628,1.04802 -0.79482,0.59889 -2.57462,2.51541 -3.31539,3.57071 -0.11525,0.16347 -0.29203,0.38738 -0.39301,0.49714 -0.10088,0.11187 -0.2321,0.266 -0.29222,0.34598 -0.0675,0.0895 -0.29237,0.21704 -0.58448,0.33591 -0.26101,0.10659 -0.70114,0.2944 -0.9775,0.41651 -0.27636,0.12033 -1.03952,0.42839 -1.69967,0.68189 -0.66017,0.25369 -1.46459,0.58421 -1.78701,0.73228 -0.3224,0.14783 -0.78894,0.34268 -1.0346,0.43332 -0.68265,0.2516 -2.13808,0.83856 -2.36477,0.95396 -0.11102,0.0567 -0.98293,0.41014 -1.93481,0.78266 -0.95188,0.37286 -1.9195,0.76234 -2.1498,0.87 -0.23028,0.10828 -0.7199,0.3165 -1.08833,0.46356 -0.88491,0.35325 -0.88914,0.39005 -0.16453,0.86662 0.25229,0.16516 1.13547,0.80315 2.002,1.44103 0.18081,0.13408 0.49577,0.35482 0.69868,0.49378 0.20302,0.13936 0.60514,0.43015 0.89686,0.64495 0.29171,0.21446 0.63638,0.45687 0.76587,0.54081 0.21397,0.13936 1.09579,0.77012 1.93817,1.39064 0.18082,0.13407 0.49577,0.35481 0.69868,0.49378 0.34385,0.2358 1.09686,0.7779 1.87099,1.34699 0.62831,0.46212 1.26699,0.88679 1.3369,0.88679 0.0717,0 0.97181,-0.35218 1.14209,-0.44677 0.2118,-0.11695 0.67337,-0.23379 1.0413,-0.262 0.0594,0 0.12625,0.0169 0.18145,0.0169 0.76961,-0.68001 1.53011,-1.36932 2.25393,-2.09941 0.89631,-0.90411 1.75995,-1.84214 2.58647,-2.81488 0.8265,-0.97291 1.61772,-1.97997 2.37485,-3.01308 0.75714,-1.03258 1.47838,-2.09363 2.1666,-3.17765 0.68821,-1.08418 1.34193,-2.1889 1.96167,-3.31539 1.23947,-2.25298 2.34386,-4.58315 3.31202,-6.95323 0.96819,-2.36993 1.80212,-4.78194 2.50251,-7.19846 0.1493,-0.51474 0.22563,-1.02368 0.36277,-1.53844 z"
             style="fill:#ffcc00;fill-opacity:0.49803922" />
        </g>
        <path
           inkscape:connector-curvature="0"
           id="path13457"
           d="m 29.705309,-7.507947 v 78.406249 h 42.145244 c 2.218947,0 3.997083,-1.742441 3.997083,-3.906251 V -3.601697 c 0,-2.16381 -1.778136,-3.90625 -3.997083,-3.90625 z"
           style="opacity:0.567;fill:url(#linearGradient13490);fill-opacity:1;stroke:none" />
        <g
           id="g986">
          <path
             inkscape:connector-curvature="0"
             style="opacity:0;fill:#000000;fill-opacity:1;stroke:none"
             d="m -11.527364,-20.414197 c -2.182681,0 -3.9375,1.754819 -3.9375,3.9375 v 12 c 0,-2.182681 1.754819,-3.9375 3.9375,-3.9375 h 83.75 c 2.182681,0 3.9375,1.754819 3.9375,3.9375 v -12 c 0,-2.182681 -1.754819,-3.9375 -3.9375,-3.9375 z"
             id="rect4080" />
          <path
             inkscape:connector-curvature="0"
             style="fill:#e4e8e8;fill-opacity:1;stroke:#738589;stroke-width:0.99243301;stroke-miterlimit:4;stroke-dasharray:none;stroke-opacity:1"
             d="m -11.229786,-20.105492 c -2.168501,0 -3.925898,1.761406 -3.925898,3.934855 v 3.965838 c 0,-2.173448 1.757397,-3.934854 3.925898,-3.934854 h 83.154841 c 2.168502,0 3.925898,1.761406 3.925898,3.934854 v -3.965838 c 0,-2.173449 -1.757396,-3.934855 -3.925898,-3.934855 z"
             id="path4058" />
          <path
             id="path4060"
             d="m -11.229786,-12.17466 c -2.168501,0 -3.925898,1.761407 -3.925898,3.934856 v 3.965839 c 0,-2.173449 1.757397,-3.934856 3.925898,-3.934856 h 83.154841 c 2.168502,0 3.925898,1.761407 3.925898,3.934856 v -3.965839 c 0,-2.173449 -1.757396,-3.934856 -3.925898,-3.934856 z"
             style="fill:#e4e8e8;fill-opacity:1;stroke:#738589;stroke-width:0.99243301;stroke-miterlimit:4;stroke-dasharray:none;stroke-opacity:1"
             inkscape:connector-curvature="0" />
          <path
             inkscape:connector-curvature="0"
             style="fill:#e4e8e8;fill-opacity:1;stroke:#738589;stroke-width:0.99243301;stroke-miterlimit:4;stroke-dasharray:none;stroke-opacity:1"
             d="m -11.229786,-16.140075 c -2.168501,0 -3.925898,1.761406 -3.925898,3.934854 v 3.965839 c 0,-2.173449 1.757397,-3.934855 3.925898,-3.934855 h 83.154841 c 2.168502,0 3.925898,1.761406 3.925898,3.934855 v -3.965839 c 0,-2.173448 -1.757396,-3.934854 -3.925898,-3.934854 z"
             id="path4062" />
          <path
             style="opacity:0.25818182;fill:url(#linearGradient4369);fill-opacity:1;stroke:none"
             d="m -11.246114,-19.914197 c -2.168522,0 -3.90625,1.74244 -3.90625,3.90625 v 13 c 0,-2.16381 2.087258,-4.784629 4.255776,-4.780063 l 83.012737,0.174762 c 2.168517,0.00457 3.731487,2.441491 3.731487,4.605301 v -13 c 0,-2.16381 -1.737728,-3.90625 -3.90625,-3.90625 z"
             id="rect4358"
             inkscape:connector-curvature="0"
             sodipodi:nodetypes="sscsscsss" />
        </g>
        <rect
           transform="matrix(1.1711596,0,0,1.2406759,-16.712266,17.251557)"
           style="display:inline;opacity:0.5078125;fill:url(#linearGradient4767-6);fill-opacity:1;stroke:none"
           id="rect4146"
           width="75.965775"
           height="69.024437"
           x="2"
           y="-30"
           rx="3.9569874"
           ry="3.9569881"
           clip-path="url(#clipPath4156-4-1-2)" />
      </g>
    </g>
  </g>
</svg>
