<?xml version="1.0" encoding="UTF-8" standalone="no"?>
<!-- Created with Inkscape (http://www.inkscape.org/) -->

<svg
   xmlns:dc="http://purl.org/dc/elements/1.1/"
   xmlns:cc="http://creativecommons.org/ns#"
   xmlns:rdf="http://www.w3.org/1999/02/22-rdf-syntax-ns#"
   xmlns:svg="http://www.w3.org/2000/svg"
   xmlns="http://www.w3.org/2000/svg"
   xmlns:xlink="http://www.w3.org/1999/xlink"
   xmlns:sodipodi="http://sodipodi.sourceforge.net/DTD/sodipodi-0.dtd"
   xmlns:inkscape="http://www.inkscape.org/namespaces/inkscape"
   width="96"
   height="96"
   viewBox="0 0 96.000001 96.000004"
   version="1.1"
   id="svg1072"
   inkscape:version="0.92.1 r15371"
   sodipodi:docname="gnome-mime-text-x-authors.svg">
  <defs
     id="defs1066">
    <linearGradient
       inkscape:collect="always"
       xlink:href="#linearGradient6139-0"
       id="linearGradient4071"
       gradientUnits="userSpaceOnUse"
       gradientTransform="matrix(1.1071428,0,0,1.1071426,-4.9939026,-3.620687)"
       x1="6"
       y1="47.000011"
       x2="90"
       y2="47.000011" />
    <linearGradient
       id="linearGradient6139-0">
      <stop
         id="stop6141-2"
         offset="0"
         style="stop-color:#b0b9be;stop-opacity:1" />
      <stop
         style="stop-color:#ffffff;stop-opacity:1;"
         offset="0.25"
         id="stop6151-0" />
      <stop
         style="stop-color:#93a2a7;stop-opacity:1"
         offset="0.5"
         id="stop6147-1" />
      <stop
         id="stop6149-4"
         offset="0.75"
         style="stop-color:#f9fbfb;stop-opacity:1" />
      <stop
         id="stop6143-4"
         offset="1"
         style="stop-color:#b0b8be;stop-opacity:1" />
    </linearGradient>
    <linearGradient
       gradientTransform="translate(0.1489535,0.415026)"
       inkscape:collect="always"
       xlink:href="#linearGradient3832-0-6-1-1"
       id="linearGradient4129"
       x1="1.5"
       y1="88.171875"
       x2="94.5"
       y2="88.171875"
       gradientUnits="userSpaceOnUse" />
    <linearGradient
       id="linearGradient3832-0-6-1-1">
      <stop
         style="stop-color:#000000;stop-opacity:1;"
         offset="0"
         id="stop3834-6-3-7-1" />
      <stop
         id="stop3872-2-4"
         offset="0.1"
         style="stop-color:#000000;stop-opacity:0.58823532;" />
      <stop
         style="stop-color:#000000;stop-opacity:0.58823532;"
         offset="0.89999998"
         id="stop3844-6-2-7-6" />
      <stop
         style="stop-color:#000000;stop-opacity:1;"
         offset="1"
         id="stop3836-5-0-2-9" />
    </linearGradient>
    <radialGradient
       inkscape:collect="always"
       xlink:href="#linearGradient4050"
       id="radialGradient7462"
       gradientUnits="userSpaceOnUse"
       gradientTransform="matrix(0.97513378,0,0,0.04919072,34.047649,80.581722)"
       cx="13.948145"
       cy="44.892841"
       fx="13.948145"
       fy="44.892841"
       r="43.199203" />
    <linearGradient
       inkscape:collect="always"
       id="linearGradient4050">
      <stop
         style="stop-color:#ffffff;stop-opacity:1;"
         offset="0"
         id="stop4052" />
      <stop
         style="stop-color:#ffffff;stop-opacity:0;"
         offset="1"
         id="stop4054" />
    </linearGradient>
    <radialGradient
       inkscape:collect="always"
       xlink:href="#linearGradient4050"
       id="radialGradient7464"
       gradientUnits="userSpaceOnUse"
       gradientTransform="matrix(0.88832663,0,0,0.04919072,31.959518,-90.31726)"
       cx="13.948145"
       cy="44.892841"
       fx="13.948145"
       fy="44.892841"
       r="43.199203" />
    <radialGradient
       inkscape:collect="always"
       xlink:href="#linearGradient4050"
       id="radialGradient4543"
       gradientUnits="userSpaceOnUse"
       gradientTransform="matrix(1,0,0,0.04885057,-16.372364,-3.861835)"
       cx="48"
       cy="-16.128"
       fx="48"
       fy="-16.128"
       r="44.543999" />
    <linearGradient
       inkscape:collect="always"
       xlink:href="#linearGradient4160"
       id="linearGradient4388"
       x1="2.5"
       y1="54.296875"
       x2="93.5"
       y2="54.296875"
       gradientUnits="userSpaceOnUse"
       gradientTransform="translate(-17.652364,-22.601697)" />
    <linearGradient
       id="linearGradient4160">
      <stop
         id="stop4170"
         offset="0"
         style="stop-color:#000000;stop-opacity:0;" />
      <stop
         style="stop-color:#000000;stop-opacity:0.96470588;"
         offset="0.03175623"
         id="stop4186" />
      <stop
         style="stop-color:#000000;stop-opacity:0;"
         offset="0.09425623"
         id="stop4182" />
      <stop
         style="stop-color:#000000;stop-opacity:0;"
         offset="0.49595019"
         id="stop4180" />
      <stop
         style="stop-color:#000000;stop-opacity:0;"
         offset="0.90525883"
         id="stop4178" />
      <stop
         id="stop4184"
         offset="0.96241152"
         style="stop-color:#000000;stop-opacity:0.98823529;" />
      <stop
         id="stop4168"
         offset="1"
         style="stop-color:#000000;stop-opacity:0;" />
    </linearGradient>
    <linearGradient
       id="linearGradient13484">
      <stop
         style="stop-color:#849699;stop-opacity:1"
         offset="0"
         id="stop13486" />
      <stop
         style="stop-color:#0b0d0d;stop-opacity:0"
         offset="1"
         id="stop13488" />
    </linearGradient>
    <linearGradient
       inkscape:collect="always"
       xlink:href="#linearGradient4160"
       id="linearGradient4369"
       x1="2.5"
       y1="11.140625"
       x2="93.5"
       y2="11.140625"
       gradientUnits="userSpaceOnUse"
       gradientTransform="translate(-17.652364,-22.601697)" />
    <linearGradient
       inkscape:collect="always"
       xlink:href="#linearGradient4050"
       id="linearGradient4767-6"
       gradientUnits="userSpaceOnUse"
       x1="2.7713892"
       y1="-28.64156"
       x2="50.527882"
       y2="14.514202" />
    <clipPath
       id="clipPath4156-4-1-2"
       clipPathUnits="userSpaceOnUse">
      <path
         inkscape:connector-curvature="0"
         id="path4158-0-8-6"
         d="m 27.046336,-55.695463 -14.21366,13.321486 h 0.06127 l 15.653407,21.770763 10.231384,-10.546177 C 38.561832,-32.30156 27.468089,-54.819245 27.046336,-55.695463 Z M 9.6468554,-39.382809 -5.2407289,-25.32124 15.987863,-7.8059573 26.372412,-18.382966 Z m 31.4906096,12.951445 -9.741259,9.713584 8.944804,12.4580526 7.780753,-7.5550056 z m -49.8397109,4.378822 -13.7541661,12.9822847 26.2830181,13.84571 0.06127,-0.0617 -0.122531,-0.0617 L 13.598503,-5.4007374 -8.7022409,-22.052595 Z m 38.0154159,7.400825 -9.802525,9.7752596 11.579232,9.5594001 7.62759,-7.40083 -8.669108,-11.0087257 z m 20.187073,5.6739697 -7.382526,7.2158 6.187844,8.54179 5.820249,-6.13651996 z m -32.195166,6.32154 -9.5574606,9.49772 13.6622686,7.1849703 7.933918,-7.6783603 z m 23.311629,2.37443004 -7.10683,6.93826996 8.362778,6.9074403 5.360756,-5.6739699 -0.06127,-0.0925 -0.0919,0.12335 -6.463539,-8.20258036 z m -8.730374,8.54178036 -7.505057,7.3391599 10.353916,5.45811 c 1.397496,-1.32103 5.67514,-6.12292 5.850882,-6.32154 z"
         style="opacity:0.6;fill:#ffffff;fill-opacity:1;stroke:none" />
    </clipPath>
  </defs>
  <sodipodi:namedview
     id="base"
     pagecolor="#ffffff"
     bordercolor="#666666"
     borderopacity="1.0"
     inkscape:pageopacity="0.0"
     inkscape:pageshadow="2"
     inkscape:zoom="4.6939775"
     inkscape:cx="34.627592"
     inkscape:cy="48"
     inkscape:document-units="px"
     inkscape:current-layer="g3335"
     showgrid="false"
     inkscape:showpageshadow="false"
     units="px"
     inkscape:lockguides="true"
     inkscape:window-width="1280"
     inkscape:window-height="972"
     inkscape:window-x="0"
     inkscape:window-y="26"
     inkscape:window-maximized="1"
     inkscape:snap-global="false">
    <sodipodi:guide
       position="0,0"
       orientation="0,96"
       id="guide1621"
       inkscape:locked="true" />
    <sodipodi:guide
       position="96.000002,0"
       orientation="-96,0"
       id="guide1623"
       inkscape:locked="true" />
    <sodipodi:guide
       position="96.000002,96.000002"
       orientation="0,-96"
       id="guide1625"
       inkscape:locked="true" />
    <sodipodi:guide
       position="0,96.000002"
       orientation="96,0"
       id="guide1627"
       inkscape:locked="true" />
  </sodipodi:namedview>
  <metadata
     id="metadata1069">
    <rdf:RDF>
      <cc:Work
         rdf:about="">
        <dc:format>image/svg+xml</dc:format>
        <dc:type
           rdf:resource="http://purl.org/dc/dcmitype/StillImage" />
        <dc:title></dc:title>
        <dc:date>2017</dc:date>
        <dc:creator>
          <cc:Agent>
            <dc:title>Cristian Pozzessere &quot;ilnanny&quot;</dc:title>
          </cc:Agent>
        </dc:creator>
        <dc:subject>
          <rdf:Bag>
            <rdf:li>Global language</rdf:li>
          </rdf:Bag>
        </dc:subject>
        <dc:description>Playing with Inkscape on Gnu/Linux O. S.</dc:description>
        <dc:contributor>
          <cc:Agent>
            <dc:title>In the night, alone like a dog.</dc:title>
          </cc:Agent>
        </dc:contributor>
        <cc:license
           rdf:resource="http://creativecommons.org/licenses/by-sa/4.0/" />
      </cc:Work>
      <cc:License
         rdf:about="http://creativecommons.org/licenses/by-sa/4.0/">
        <cc:permits
           rdf:resource="http://creativecommons.org/ns#Reproduction" />
        <cc:permits
           rdf:resource="http://creativecommons.org/ns#Distribution" />
        <cc:requires
           rdf:resource="http://creativecommons.org/ns#Notice" />
        <cc:requires
           rdf:resource="http://creativecommons.org/ns#Attribution" />
        <cc:permits
           rdf:resource="http://creativecommons.org/ns#DerivativeWorks" />
        <cc:requires
           rdf:resource="http://creativecommons.org/ns#ShareAlike" />
      </cc:License>
    </rdf:RDF>
  </metadata>
  <g
     inkscape:label="Livello 1"
     inkscape:groupmode="layer"
     id="layer1"
     transform="translate(0,-1026.5197)">
    <g
       transform="translate(-0.14895645,1026.1047)"
       style="display:inline"
       id="g1273">
      <path
         style="display:inline;opacity:0.15;fill:#000000;fill-opacity:1;fill-rule:nonzero;stroke:none"
         d="M 89.29181,0.415026 H 7.0060911 c -3.798848,0 -6.8571352,3.058285 -6.8571352,6.8571399 V 89.557884 c 0,3.798857 3.0582872,6.857142 6.8571352,6.857142 H 89.29181 c 3.798857,0 6.857147,-3.058285 6.857147,-6.857142 V 7.2721659 c 0,-3.7988549 -3.05829,-6.8571399 -6.857147,-6.8571399 z"
         id="path3288"
         inkscape:connector-curvature="0" />
      <path
         inkscape:connector-curvature="0"
         id="path4085"
         d="M 88.648954,1.165026 H 7.6489471 c -3.739492,0 -6.749993,3.010499 -6.749993,6.7499969 V 88.915026 c 0,3.739501 3.010501,6.75 6.749993,6.75 H 88.648954 c 3.739503,0 6.750003,-3.010499 6.750003,-6.75 V 7.9150229 c 0,-3.7394979 -3.0105,-6.7499969 -6.750003,-6.7499969 z"
         style="display:inline;opacity:0.15;fill:#000000;fill-opacity:1;fill-rule:nonzero;stroke:none" />
      <path
         style="display:inline;fill:url(#linearGradient4071);fill-opacity:1;fill-rule:nonzero;stroke:none"
         d="M 88.006093,1.915026 H 8.2918111 c -3.680143,0 -6.6428566,2.962713 -6.6428566,6.6428549 V 88.272171 c 0,3.680142 2.9627136,6.642856 6.6428566,6.642856 H 88.006093 c 3.680143,0 6.642854,-2.962714 6.642854,-6.642856 V 8.5578809 c 0,-3.6801419 -2.962711,-6.6428549 -6.642854,-6.6428549 z"
         id="rect4251-1"
         inkscape:connector-curvature="0" />
      <path
         inkscape:connector-curvature="0"
         id="path4989"
         d="m 9.9740341,5.1444869 c -3.116621,0 -5.667965,2.53951 -5.667965,5.6460041 v 69.277996 c 0,3.106495 2.551344,5.646004 5.667965,5.646004 H 86.765819 c 3.116621,0 5.667968,-2.539509 5.667968,-5.646004 V 10.790491 c 0,-3.1064931 -2.551347,-5.6460041 -5.667968,-5.6460041 z m 0,2.319439 H 86.765819 c 1.888099,0 3.352022,1.480095 3.352022,3.3265651 v 69.277996 c 0,1.846474 -1.463923,3.326564 -3.352022,3.326564 H 9.9740341 c -1.888099,0 -3.352022,-1.48009 -3.352022,-3.326564 V 10.790491 c 0,-1.8464701 1.463923,-3.3265651 3.352022,-3.3265651 z"
         style="color:#000000;font-style:normal;font-variant:normal;font-weight:normal;font-stretch:normal;font-size:medium;line-height:normal;font-family:Sans;-inkscape-font-specification:Sans;text-indent:0;text-align:start;text-decoration:none;text-decoration-line:none;letter-spacing:normal;word-spacing:normal;text-transform:none;writing-mode:lr-tb;direction:ltr;baseline-shift:baseline;text-anchor:start;display:inline;overflow:visible;visibility:visible;fill:#241f1f;fill-opacity:0.63265303;stroke:none;stroke-width:2.3755002;marker:none;enable-background:accumulate" />
      <path
         inkscape:connector-curvature="0"
         style="display:inline;opacity:0.65818182;fill:url(#linearGradient4129);fill-opacity:1;fill-rule:nonzero;stroke:none"
         d="m 1.6489535,82.258776 v 6 c 0,3.680142 2.9761066,6.65625 6.6562496,6.65625 H 87.992703 c 3.680143,0 6.656254,-2.976108 6.656254,-6.65625 v -6 c 0,3.680142 -2.976111,6.65625 -6.656254,6.65625 H 8.3052031 c -3.680143,0 -6.6562496,-2.976108 -6.6562496,-6.65625 z"
         id="path4118" />
      <rect
         style="opacity:0.55;fill:url(#radialGradient7462);fill-opacity:1;stroke:none"
         id="rect4131"
         width="84.250008"
         height="4.25"
         x="5.5239539"
         y="80.665031"
         rx="0"
         ry="4.25" />
      <rect
         ry="4.25"
         rx="0"
         y="-90.233963"
         x="5.9750223"
         height="4.25"
         width="76.75"
         id="rect4141"
         style="opacity:0.669;fill:url(#radialGradient7464);fill-opacity:1;stroke:none"
         transform="rotate(90)" />
      <g
         transform="matrix(0.91297981,0,0,0.8444453,20.28803,23.983749)"
         id="g1003">
        <path
           inkscape:connector-curvature="0"
           style="opacity:1;fill:#ebedee;fill-opacity:1;stroke:none"
           d="m -11.246114,-7.507947 c -2.168522,0 -3.90625,1.74244 -3.90625,3.90625 v 70.59375 c 0,2.16381 1.737728,3.90625 3.90625,3.90625 h 83.1875 c 2.168522,0 3.90625,-1.74244 3.90625,-3.90625 v -70.59375 c 0,-2.16381 -1.737728,-3.90625 -3.90625,-3.90625 z"
           id="path1246" />
        <rect
           ry="3.0576727"
           rx="3.9569874"
           y="-6.8256979"
           x="-12.916362"
           height="4.3519998"
           width="89.087997"
           id="rect4048"
           style="opacity:0.65090906;fill:url(#radialGradient4543);fill-opacity:1;stroke:none" />
        <path
           id="rect4371"
           d="m -11.246114,-7.507947 c -2.168522,0 -3.90625,1.74244 -3.90625,3.90625 v 70.59375 c 0,2.16381 1.737728,3.90625 3.90625,3.90625 h 83.1875 c 2.168522,0 3.90625,-1.74244 3.90625,-3.90625 v -70.59375 c 0,-2.16381 -1.737728,-3.90625 -3.90625,-3.90625 z"
           style="opacity:0.27999998;fill:url(#linearGradient4388);fill-opacity:1;stroke:none"
           inkscape:connector-curvature="0" />
        <g
           style="enable-background:new"
           id="g3335"
           transform="matrix(1.6567675,0,0,1.770553,-49.241733,-60.13492)">
          <path
             sodipodi:nodetypes="ssscssssssssscsss"
             inkscape:connector-curvature="0"
             id="path5000"
             d="m 48.067423,32.78671 c -5.836231,0 -11.438044,5.837936 -11.438044,13.059829 0,2.201622 1.309006,4.012718 2.201002,5.834937 1.248127,2.549752 2.432712,4.867374 4.703854,6.070767 -0.366689,0.415563 -0.765287,0.951844 -1.230865,1.731187 -0.816499,1.366758 0.08638,1.497446 -1.951372,2.186762 -6.128137,2.07297 -12.188572,4.303378 -12.188572,6.378056 0,0.714659 -1.93809,1.769926 -0.840592,2.277877 3.049574,1.411427 12.414783,1.609699 20.324294,1.609699 8.000855,0 18.018166,0.04872 21.014779,-1.397097 1.031912,-0.497882 -0.668545,-2.079798 -1.020718,-2.672709 -1.04801,-1.764406 -3.942227,-3.888044 -11.408023,-4.980958 -0.479083,-0.07013 -2.098465,-1.035905 -2.821984,-3.432002 -0.241648,-0.80027 -0.540663,-1.336489 -0.870613,-1.731187 2.290145,-1.270884 3.35517,-3.543459 4.534664,-6.235649 0.778723,-1.777432 2.100002,-3.68793 2.100002,-5.791542 0,-7.221892 -5.27158,-12.90797 -11.107812,-12.90797 z"
             style="opacity:0.87272728;fill:#324852;fill-opacity:0.68766403;stroke:none" />
          <path
             inkscape:connector-curvature="0"
             id="path3437"
             d="m 48.577783,31.936303 c -3.582657,0.02117 -6.721611,2.228893 -8.495975,5.527649 1.834769,-2.756475 4.702898,-4.536705 7.925574,-4.555755 0.006,0 0.114057,0 0.120084,0 5.39867,0.07572 9.75124,5.080079 9.906967,11.389386 0.0048,0.174646 0.07734,0.343216 0.210148,0.455575 0.377854,0.323649 0.54038,0.749065 0.54038,1.305983 0,0.566223 -0.183705,1.209591 -0.51036,1.883045 0.692858,-1.024931 1.110782,-2.018791 1.110782,-2.854939 0,-0.556918 -0.192547,-0.982335 -0.570401,-1.305983 -0.132801,-0.11236 -0.205284,-0.280929 -0.210148,-0.455576 -0.155727,-6.309305 -4.508297,-11.313667 -9.906967,-11.389385 -0.006,0 -0.114076,0 -0.120084,0 z m -9.636777,5.041701 c -1.146845,1.796097 -1.886116,3.941114 -2.101478,6.286941 0.151553,-0.188908 0.332076,-0.391834 0.54038,-0.54669 0.132418,-2.101804 0.66798,-4.041164 1.561098,-5.740251 z m -0.930655,6.80326 c -0.302767,0.249331 -0.477176,0.552687 -0.54038,0.941523 0.06929,-0.05449 0.127955,-0.102319 0.210148,-0.151859 0.175044,-0.106258 0.291763,-0.311138 0.300211,-0.516319 0.004,-0.09233 0.02426,-0.181615 0.03002,-0.273345 z m -1.62114,0.303717 c -0.481443,0.52039 -0.750528,1.177081 -0.750528,1.97416 0,1.444814 0.807912,3.152719 2.221562,4.737984 0.976635,2.714979 2.490634,5.103351 4.293019,6.772888 -0.09913,0.406145 -0.216828,0.788543 -0.390274,1.154125 0.465779,-0.630829 0.799728,-1.343635 0.990697,-2.126019 -1.802386,-1.669537 -3.316384,-4.05791 -4.29302,-6.772888 -1.413649,-1.585265 -2.221561,-3.29317 -2.221561,-4.737984 0,-0.362008 0.0501,-0.696565 0.150105,-1.002266 z m 22.93613,4.495011 c -0.123991,0.186576 -0.249071,0.360997 -0.390275,0.54669 -0.03238,0.101759 -0.05613,0.202695 -0.09006,0.303717 0.181398,-0.28198 0.339929,-0.570426 0.480338,-0.850407 z m -1.561098,0.273345 c -0.130788,0.197366 -0.266327,0.37863 -0.420295,0.577062 -0.0447,0.0574 -0.06718,0.142986 -0.09007,0.212602 -0.351077,1.125924 -0.78838,2.192533 -1.320928,3.189027 0.743921,-1.197638 1.369168,-2.549329 1.831288,-3.978691 z m -0.870612,4.707613 c -0.81316,1.292401 -1.73494,2.418314 -2.761943,3.310514 0.02787,0.113194 0.05639,0.224036 0.09007,0.334089 1.004191,-1.01157 1.91204,-2.256192 2.67188,-3.644603 z m -4.02283,3.249771 c -0.123449,0.110395 -0.264307,0.23151 -0.390274,0.334089 -0.173833,0.141672 -0.251202,0.356004 -0.210148,0.577061 0.335599,1.772124 1.452872,4.196671 4.893442,5.709879 0.40683,0.178311 1.060916,0.311299 1.861309,0.485948 2.990265,0.654623 7.988742,1.771099 9.216481,6.408427 0.07238,0.272351 0.304809,0.455576 0.570401,0.455576 0.05189,0 0.09695,-0.01694 0.150106,-0.03037 0.322321,-0.08794 0.536024,-0.433202 0.450316,-0.759292 -0.01704,-0.06437 -0.04178,-0.119039 -0.06005,-0.18223 -0.252902,-0.01383 -0.470935,-0.194264 -0.54038,-0.455576 C 67.58427,64.716907 62.585792,63.60043 59.595527,62.945807 58.795134,62.771158 58.171069,62.638171 57.764239,62.45986 54.363251,60.96406 53.22061,58.577199 52.870798,56.810724 Z m -10.147136,2.642337 c -0.752396,1.018118 -1.912268,2.008443 -3.632554,2.763825 -0.388722,0.169763 -0.984308,0.303972 -1.741225,0.485947 -2.694704,0.649398 -6.984283,1.705106 -8.766165,5.254303 2.017103,-2.783321 5.762356,-3.695981 8.195764,-4.282409 0.756917,-0.181975 1.352503,-0.316183 1.741225,-0.485948 2.26836,-0.996041 3.511296,-2.392033 4.202955,-3.735718 z m -15.220703,7.927013 c -0.52322,0.751239 -0.932842,1.60026 -1.200845,2.611965 -0.08568,0.326091 0.09791,0.671358 0.420295,0.759293 0.323532,0.08182 0.666032,-0.100339 0.750528,-0.425204 0.05265,-0.198728 0.114261,-0.390574 0.180127,-0.577062 -0.109993,0.03843 -0.238928,0.06105 -0.360253,0.03037 -0.322382,-0.08793 -0.505979,-0.433201 -0.420296,-0.759292 0.159829,-0.60335 0.373299,-1.13256 0.630444,-1.64007 z"
             style="fill:#444444;fill-opacity:0.73061224" />
          <path
             style="fill:#fefefe;fill-opacity:0.75102042"
             inkscape:connector-curvature="0"
             d="m 27.300175,70.486847 c 0.323532,0.0833 0.654313,-0.109425 0.73881,-0.440166 1.243437,-4.778405 6.296836,-6.016837 9.317301,-6.757906 0.756917,-0.185266 1.354488,-0.331988 1.74321,-0.504823 3.440571,-1.538089 4.562076,-4.012466 4.897675,-5.817889 0.04097,-0.217596 -0.035,-0.441409 -0.19919,-0.588131 -1.791505,-1.592802 -3.302941,-3.983868 -4.25664,-6.73428 -0.02659,-0.07835 -0.06879,-0.150452 -0.124341,-0.212623 -1.261543,-1.412508 -1.985877,-2.905837 -1.985877,-4.095776 0,-0.695064 0.254723,-1.161339 0.828158,-1.513224 0.175045,-0.108178 0.284898,-0.298416 0.293346,-0.507308 0.266802,-6.333904 4.646583,-11.319958 10.01869,-11.352286 0.0057,0 0.123141,0.0086 0.129169,0.0086 5.398674,0.07709 9.750689,5.170077 9.906417,11.593507 0.0047,0.177805 0.08211,0.344423 0.21488,0.458815 0.377854,0.329503 0.554112,0.747287 0.554112,1.314278 0,0.995969 -0.515481,2.220722 -1.449861,3.44672 -0.04472,0.05843 -0.07848,0.125583 -0.101389,0.196458 -0.965763,3.153275 -2.699328,5.937258 -4.754015,7.640723 -0.173828,0.144234 -0.255925,0.375508 -0.214872,0.600565 0.3356,1.804179 1.4571,4.277312 4.89767,5.817891 0.406835,0.181536 1.038201,0.323285 1.838587,0.501093 2.990269,0.666464 7.994172,1.784285 9.221906,6.505493 0.07238,0.277279 0.316298,0.460059 0.581882,0.460059 0.05188,0 0.103783,-0.0075 0.156938,-0.02115 0.322325,-0.08953 0.513069,-0.430219 0.427357,-0.762206 -1.418478,-5.454817 -7.087562,-6.719362 -10.132159,-7.39826 -0.706216,-0.157912 -1.315868,-0.293442 -1.612825,-0.427729 -2.245432,-1.004674 -3.628903,-2.535305 -4.117825,-4.557079 2.08486,-1.843971 3.829295,-4.688881 4.826452,-7.879458 1.058723,-1.417483 1.640606,-2.877239 1.640606,-4.124374 0,-0.831837 -0.26076,-1.525658 -0.777452,-2.067782 -0.287318,-6.967946 -5.114971,-12.455091 -11.10639,-12.543373 l -0.17987,-0.0023 c -5.882758,0.03232 -10.73094,5.375251 -11.154678,12.222682 -0.755705,0.571965 -1.139612,1.37396 -1.139612,2.392309 0,1.470948 0.807632,3.230368 2.221282,4.844307 0.976635,2.764088 2.490481,5.192458 4.292865,6.892193 -0.486508,2.029237 -1.871194,3.564841 -4.121441,4.570756 -0.290935,0.130556 -0.8704,0.273548 -1.54161,0.437678 -3.067536,0.751016 -8.775249,2.149847 -10.204598,7.643209 -0.08568,0.33199 0.104976,0.67144 0.427357,0.760965 z"
             id="path5008" />
        </g>
        <g
           id="g986">
          <path
             inkscape:connector-curvature="0"
             style="opacity:0;fill:#000000;fill-opacity:1;stroke:none"
             d="m -11.527364,-20.414197 c -2.182681,0 -3.9375,1.754819 -3.9375,3.9375 v 12 c 0,-2.182681 1.754819,-3.9375 3.9375,-3.9375 h 83.75 c 2.182681,0 3.9375,1.754819 3.9375,3.9375 v -12 c 0,-2.182681 -1.754819,-3.9375 -3.9375,-3.9375 z"
             id="rect4080" />
          <path
             inkscape:connector-curvature="0"
             style="fill:#e4e8e8;fill-opacity:1;stroke:#738589;stroke-width:0.99243301;stroke-miterlimit:4;stroke-dasharray:none;stroke-opacity:1"
             d="m -11.229786,-20.105492 c -2.168501,0 -3.925898,1.761406 -3.925898,3.934855 v 3.965838 c 0,-2.173448 1.757397,-3.934854 3.925898,-3.934854 h 83.154841 c 2.168502,0 3.925898,1.761406 3.925898,3.934854 v -3.965838 c 0,-2.173449 -1.757396,-3.934855 -3.925898,-3.934855 z"
             id="path4058" />
          <path
             id="path4060"
             d="m -11.229786,-12.17466 c -2.168501,0 -3.925898,1.761407 -3.925898,3.934856 v 3.965839 c 0,-2.173449 1.757397,-3.934856 3.925898,-3.934856 h 83.154841 c 2.168502,0 3.925898,1.761407 3.925898,3.934856 v -3.965839 c 0,-2.173449 -1.757396,-3.934856 -3.925898,-3.934856 z"
             style="fill:#e4e8e8;fill-opacity:1;stroke:#738589;stroke-width:0.99243301;stroke-miterlimit:4;stroke-dasharray:none;stroke-opacity:1"
             inkscape:connector-curvature="0" />
          <path
             inkscape:connector-curvature="0"
             style="fill:#e4e8e8;fill-opacity:1;stroke:#738589;stroke-width:0.99243301;stroke-miterlimit:4;stroke-dasharray:none;stroke-opacity:1"
             d="m -11.229786,-16.140075 c -2.168501,0 -3.925898,1.761406 -3.925898,3.934854 v 3.965839 c 0,-2.173449 1.757397,-3.934855 3.925898,-3.934855 h 83.154841 c 2.168502,0 3.925898,1.761406 3.925898,3.934855 v -3.965839 c 0,-2.173448 -1.757396,-3.934854 -3.925898,-3.934854 z"
             id="path4062" />
          <path
             style="opacity:0.25818182;fill:url(#linearGradient4369);fill-opacity:1;stroke:none"
             d="m -11.246114,-19.914197 c -2.168522,0 -3.90625,1.74244 -3.90625,3.90625 v 13 c 0,-2.16381 2.087258,-4.784629 4.255776,-4.780063 l 83.012737,0.174762 c 2.168517,0.00457 3.731487,2.441491 3.731487,4.605301 v -13 c 0,-2.16381 -1.737728,-3.90625 -3.90625,-3.90625 z"
             id="rect4358"
             inkscape:connector-curvature="0"
             sodipodi:nodetypes="sscsscsss" />
        </g>
        <rect
           transform="matrix(1.2146192,0,0,1.3113605,-18.088534,19.372096)"
           style="display:inline;opacity:0.5078125;fill:url(#linearGradient4767-6);fill-opacity:1;stroke:none"
           id="rect4146"
           width="75.965775"
           height="69.024437"
           x="2"
           y="-30"
           rx="3.9569874"
           ry="3.9569881"
           clip-path="url(#clipPath4156-4-1-2)" />
      </g>
    </g>
  </g>
</svg>
