<?xml version="1.0" encoding="UTF-8" standalone="no"?>
<!-- Created with Inkscape (http://www.inkscape.org/) -->

<svg
   xmlns:dc="http://purl.org/dc/elements/1.1/"
   xmlns:cc="http://creativecommons.org/ns#"
   xmlns:rdf="http://www.w3.org/1999/02/22-rdf-syntax-ns#"
   xmlns:svg="http://www.w3.org/2000/svg"
   xmlns="http://www.w3.org/2000/svg"
   xmlns:xlink="http://www.w3.org/1999/xlink"
   xmlns:sodipodi="http://sodipodi.sourceforge.net/DTD/sodipodi-0.dtd"
   xmlns:inkscape="http://www.inkscape.org/namespaces/inkscape"
   width="96"
   height="96"
   viewBox="0 0 96.000001 96.000004"
   version="1.1"
   id="svg1072"
   inkscape:version="0.92.1 r15371"
   sodipodi:docname="encrypted.svg">
  <defs
     id="defs1066">
    <linearGradient
       id="linearGradient886">
      <stop
         style="stop-color:#000000;stop-opacity:0;"
         offset="0"
         id="stop872" />
      <stop
         id="stop874"
         offset="0.03175623"
         style="stop-color:#000000;stop-opacity:0.96470588;" />
      <stop
         id="stop876"
         offset="0.09425623"
         style="stop-color:#000000;stop-opacity:0;" />
      <stop
         id="stop878"
         offset="0.49595019"
         style="stop-color:#000000;stop-opacity:0;" />
      <stop
         id="stop880"
         offset="0.90525883"
         style="stop-color:#000000;stop-opacity:0;" />
      <stop
         style="stop-color:#000000;stop-opacity:0.98823529;"
         offset="0.96241152"
         id="stop882" />
      <stop
         style="stop-color:#000000;stop-opacity:0.46456692"
         offset="1"
         id="stop884" />
    </linearGradient>
    <linearGradient
       inkscape:collect="always"
       xlink:href="#linearGradient6139-0"
       id="linearGradient4071"
       gradientUnits="userSpaceOnUse"
       gradientTransform="matrix(1.1071428,0,0,1.1071426,-4.9939026,-3.620687)"
       x1="6"
       y1="47.000011"
       x2="90"
       y2="47.000011" />
    <linearGradient
       id="linearGradient6139-0">
      <stop
         id="stop6141-2"
         offset="0"
         style="stop-color:#b0b9be;stop-opacity:1" />
      <stop
         style="stop-color:#ffffff;stop-opacity:1;"
         offset="0.25"
         id="stop6151-0" />
      <stop
         style="stop-color:#93a2a7;stop-opacity:1"
         offset="0.5"
         id="stop6147-1" />
      <stop
         id="stop6149-4"
         offset="0.75"
         style="stop-color:#f9fbfb;stop-opacity:1" />
      <stop
         id="stop6143-4"
         offset="1"
         style="stop-color:#b0b8be;stop-opacity:1" />
    </linearGradient>
    <linearGradient
       gradientTransform="translate(0.1489535,0.415026)"
       inkscape:collect="always"
       xlink:href="#linearGradient3832-0-6-1-1"
       id="linearGradient4129"
       x1="1.5"
       y1="88.171875"
       x2="94.5"
       y2="88.171875"
       gradientUnits="userSpaceOnUse" />
    <linearGradient
       id="linearGradient3832-0-6-1-1">
      <stop
         style="stop-color:#000000;stop-opacity:1;"
         offset="0"
         id="stop3834-6-3-7-1" />
      <stop
         id="stop3872-2-4"
         offset="0.1"
         style="stop-color:#000000;stop-opacity:0.58823532;" />
      <stop
         style="stop-color:#000000;stop-opacity:0.58823532;"
         offset="0.89999998"
         id="stop3844-6-2-7-6" />
      <stop
         style="stop-color:#000000;stop-opacity:1;"
         offset="1"
         id="stop3836-5-0-2-9" />
    </linearGradient>
    <radialGradient
       inkscape:collect="always"
       xlink:href="#linearGradient4050"
       id="radialGradient7462"
       gradientUnits="userSpaceOnUse"
       gradientTransform="matrix(0.97513378,0,0,0.04919072,34.047649,80.581722)"
       cx="13.948145"
       cy="44.892841"
       fx="13.948145"
       fy="44.892841"
       r="43.199203" />
    <linearGradient
       inkscape:collect="always"
       id="linearGradient4050">
      <stop
         style="stop-color:#ffffff;stop-opacity:1;"
         offset="0"
         id="stop4052" />
      <stop
         style="stop-color:#ffffff;stop-opacity:0;"
         offset="1"
         id="stop4054" />
    </linearGradient>
    <radialGradient
       inkscape:collect="always"
       xlink:href="#linearGradient4050"
       id="radialGradient7464"
       gradientUnits="userSpaceOnUse"
       gradientTransform="matrix(0.88832663,0,0,0.04919072,31.959518,-90.31726)"
       cx="13.948145"
       cy="44.892841"
       fx="13.948145"
       fy="44.892841"
       r="43.199203" />
    <radialGradient
       inkscape:collect="always"
       xlink:href="#linearGradient4050"
       id="radialGradient4543"
       gradientUnits="userSpaceOnUse"
       gradientTransform="matrix(1,0,0,0.04885057,-16.372364,-3.861835)"
       cx="48"
       cy="-16.128"
       fx="48"
       fy="-16.128"
       r="44.543999" />
    <linearGradient
       inkscape:collect="always"
       xlink:href="#linearGradient886"
       id="linearGradient4388"
       x1="2.5"
       y1="54.296875"
       x2="93.5"
       y2="54.296875"
       gradientUnits="userSpaceOnUse"
       gradientTransform="translate(-17.652364,-22.601697)" />
    <linearGradient
       id="linearGradient4160">
      <stop
         id="stop4170"
         offset="0"
         style="stop-color:#000000;stop-opacity:0;" />
      <stop
         style="stop-color:#000000;stop-opacity:0.96470588;"
         offset="0.03175623"
         id="stop4186" />
      <stop
         style="stop-color:#000000;stop-opacity:0;"
         offset="0.09425623"
         id="stop4182" />
      <stop
         style="stop-color:#000000;stop-opacity:0;"
         offset="0.49595019"
         id="stop4180" />
      <stop
         style="stop-color:#000000;stop-opacity:0;"
         offset="0.90525883"
         id="stop4178" />
      <stop
         id="stop4184"
         offset="0.96241152"
         style="stop-color:#000000;stop-opacity:0.98823529;" />
      <stop
         id="stop4168"
         offset="1"
         style="stop-color:#000000;stop-opacity:0;" />
    </linearGradient>
    <linearGradient
       gradientTransform="matrix(1.0000468,0,0,0.991319,-17.353732,9.636111)"
       inkscape:collect="always"
       xlink:href="#linearGradient13484"
       id="linearGradient13490"
       x1="47.056839"
       y1="22.252237"
       x2="48.640831"
       y2="22.252237"
       gradientUnits="userSpaceOnUse" />
    <linearGradient
       id="linearGradient13484">
      <stop
         style="stop-color:#849699;stop-opacity:1"
         offset="0"
         id="stop13486" />
      <stop
         style="stop-color:#0b0d0d;stop-opacity:0"
         offset="1"
         id="stop13488" />
    </linearGradient>
    <linearGradient
       inkscape:collect="always"
       xlink:href="#linearGradient4160"
       id="linearGradient4369"
       x1="2.5"
       y1="11.140625"
       x2="93.5"
       y2="11.140625"
       gradientUnits="userSpaceOnUse"
       gradientTransform="translate(-17.652364,-22.601697)" />
    <linearGradient
       inkscape:collect="always"
       xlink:href="#linearGradient4050"
       id="linearGradient4767-6"
       gradientUnits="userSpaceOnUse"
       x1="2.7713892"
       y1="-28.64156"
       x2="50.527882"
       y2="14.514202" />
    <clipPath
       id="clipPath4156-4-1-2"
       clipPathUnits="userSpaceOnUse">
      <path
         inkscape:connector-curvature="0"
         id="path4158-0-8-6"
         d="m 27.046336,-55.695463 -14.21366,13.321486 h 0.06127 l 15.653407,21.770763 10.231384,-10.546177 C 38.561832,-32.30156 27.468089,-54.819245 27.046336,-55.695463 Z M 9.6468554,-39.382809 -5.2407289,-25.32124 15.987863,-7.8059573 26.372412,-18.382966 Z m 31.4906096,12.951445 -9.741259,9.713584 8.944804,12.4580526 7.780753,-7.5550056 z m -49.8397109,4.378822 -13.7541661,12.9822847 26.2830181,13.84571 0.06127,-0.0617 -0.122531,-0.0617 L 13.598503,-5.4007374 -8.7022409,-22.052595 Z m 38.0154159,7.400825 -9.802525,9.7752596 11.579232,9.5594001 7.62759,-7.40083 -8.669108,-11.0087257 z m 20.187073,5.6739697 -7.382526,7.2158 6.187844,8.54179 5.820249,-6.13651996 z m -32.195166,6.32154 -9.5574606,9.49772 13.6622686,7.1849703 7.933918,-7.6783603 z m 23.311629,2.37443004 -7.10683,6.93826996 8.362778,6.9074403 5.360756,-5.6739699 -0.06127,-0.0925 -0.0919,0.12335 -6.463539,-8.20258036 z m -8.730374,8.54178036 -7.505057,7.3391599 10.353916,5.45811 c 1.397496,-1.32103 5.67514,-6.12292 5.850882,-6.32154 z"
         style="opacity:0.6;fill:#ffffff;fill-opacity:1;stroke:none" />
    </clipPath>
    <linearGradient
       inkscape:collect="always"
       x1="28.128"
       y1="40.243999"
       gradientTransform="matrix(1,0,0,1.0152,0,-0.030331)"
       x2="100.59"
       gradientUnits="userSpaceOnUse"
       y2="40.243999"
       id="linearGradient3984">
      <stop
         offset="0"
         style="stop-color:#424242"
         id="stop3980" />
      <stop
         offset=".5"
         style="stop-color:#bdbdbd"
         id="stop3986" />
      <stop
         offset="1"
         style="stop-color:#3b3b3b"
         id="stop3982" />
    </linearGradient>
    <linearGradient
       x1="35.995998"
       x2="35.995998"
       gradientTransform="matrix(1.632,0,0,2.473,-0.051304,2.0098)"
       y1="1.6246001"
       gradientUnits="userSpaceOnUse"
       xlink:href="#linearGradient4050"
       y2="11.711"
       id="linearGradient3084" />
    <filter
       inkscape:collect="always"
       id="filter3974">
      <feGaussianBlur
         inkscape:collect="always"
         stdDeviation="0.94742091"
         id="feGaussianBlur3976" />
    </filter>
    <radialGradient
       r="6.0679002"
       gradientTransform="matrix(2.3666,0,0,1.7265,-0.40436,-0.012826)"
       cx="21.594999"
       cy="8.9813995"
       gradientUnits="userSpaceOnUse"
       xlink:href="#linearGradient2834"
       id="radialGradient2869" />
    <linearGradient
       id="linearGradient2834">
      <stop
         offset="0"
         style="stop-color:#ffffff"
         id="stop2836" />
      <stop
         offset="1"
         style="stop-color:#878787;stop-opacity:0"
         id="stop2838" />
    </linearGradient>
    <filter
       inkscape:collect="always"
       id="filter3966">
      <feGaussianBlur
         inkscape:collect="always"
         stdDeviation="0.36845109"
         id="feGaussianBlur3968" />
    </filter>
    <radialGradient
       r="6.0679002"
       gradientTransform="matrix(-2.3666,0,0,1.7527,129.12,-0.14497)"
       cx="21.594999"
       cy="8.9813995"
       gradientUnits="userSpaceOnUse"
       xlink:href="#linearGradient2834"
       id="radialGradient2873" />
    <filter
       style="color-interpolation-filters:sRGB"
       inkscape:collect="always"
       x="-0.17831001"
       y="-0.24307001"
       width="1.3566"
       height="1.4861"
       id="filter3851">
      <feGaussianBlur
         inkscape:collect="always"
         stdDeviation="1.6831695"
         id="feGaussianBlur3853" />
    </filter>
    <linearGradient
       inkscape:collect="always"
       x1="29.614"
       y1="52.609001"
       gradientTransform="matrix(4.1923,0,0,3.5024,9.2625,-117.42)"
       x2="44.723999"
       gradientUnits="userSpaceOnUse"
       spreadMethod="reflect"
       y2="52.609001"
       id="linearGradient3243">
      <stop
         offset="0"
         style="stop-color:#736200"
         id="stop2703" />
      <stop
         offset=".75"
         style="stop-color:#fffbc0"
         id="stop2770" />
      <stop
         offset="1"
         style="stop-color:#978f21"
         id="stop2705" />
    </linearGradient>
    <filter
       style="color-interpolation-filters:sRGB"
       inkscape:collect="always"
       x="-0.0074935001"
       y="-0.15267"
       width="1.015"
       height="1.3053"
       id="filter3903">
      <feGaussianBlur
         inkscape:collect="always"
         stdDeviation="0.24084971"
         id="feGaussianBlur3905" />
    </filter>
    <radialGradient
       inkscape:collect="always"
       r="38.882"
       gradientTransform="matrix(1.9483,0,0,0.070792,10.022,-15.755)"
       cx="65.188004"
       cy="59.251999"
       gradientUnits="userSpaceOnUse"
       id="radialGradient3885">
      <stop
         offset="0"
         style="stop-color:#000000"
         id="stop3881" />
      <stop
         offset="1"
         style="stop-color:#000000;stop-opacity:0"
         id="stop3883" />
    </radialGradient>
    <linearGradient
       inkscape:collect="always"
       x1="24.261"
       y1="44.011002"
       gradientTransform="matrix(4.3228,0,0,3.3084,9.9222,-111.22)"
       x2="24.606001"
       gradientUnits="userSpaceOnUse"
       spreadMethod="reflect"
       y2="45.888"
       id="linearGradient3237">
      <stop
         offset="0"
         style="stop-color:#483e00"
         id="stop2715" />
      <stop
         offset="1"
         style="stop-color:#ffffff"
         id="stop2717" />
    </linearGradient>
    <filter
       style="color-interpolation-filters:sRGB"
       inkscape:collect="always"
       x="-0.20317"
       y="-0.067080997"
       width="1.4062999"
       height="1.1342"
       id="filter3927">
      <feGaussianBlur
         inkscape:collect="always"
         stdDeviation="0.89186128"
         id="feGaussianBlur3929" />
    </filter>
    <radialGradient
       inkscape:collect="always"
       xlink:href="#linearGradient4050"
       id="radialGradient3474"
       gradientUnits="userSpaceOnUse"
       gradientTransform="matrix(0.43334,0,0,1.435,6.4099,-0.11314)"
       cx="20.361"
       cy="22.546"
       r="15.157" />
    <radialGradient
       inkscape:collect="always"
       xlink:href="#linearGradient4050"
       id="radialGradient3476"
       gradientUnits="userSpaceOnUse"
       gradientTransform="matrix(0.50007,0,0,1.6752,5.003,-5.1081)"
       cx="20.361"
       cy="22.546"
       r="15.157" />
    <radialGradient
       inkscape:collect="always"
       xlink:href="#linearGradient4050"
       id="radialGradient3478"
       gradientUnits="userSpaceOnUse"
       gradientTransform="matrix(0.6214,0,0,1.8821,2.3888,-9.4094)"
       cx="20.361"
       cy="22.546"
       r="15.157" />
    <filter
       style="color-interpolation-filters:sRGB"
       inkscape:collect="always"
       x="-0.25097999"
       y="-0.082864001"
       width="1.502"
       height="1.1657"
       id="filter3943">
      <feGaussianBlur
         inkscape:collect="always"
         stdDeviation="1.101711"
         id="feGaussianBlur3945" />
    </filter>
    <radialGradient
       r="15.157"
       gradientTransform="matrix(0.43334,0,0,1.435,6.4099,-0.11314)"
       cx="20.361"
       cy="22.546"
       gradientUnits="userSpaceOnUse"
       xlink:href="#linearGradient4050"
       id="radialGradient2811" />
    <radialGradient
       r="15.157"
       gradientTransform="matrix(0.50007,0,0,1.6752,5.003,-5.1081)"
       cx="20.361"
       cy="22.546"
       gradientUnits="userSpaceOnUse"
       xlink:href="#linearGradient4050"
       id="radialGradient2813" />
    <radialGradient
       r="15.157"
       gradientTransform="matrix(0.6214,0,0,1.8821,2.3888,-9.4094)"
       cx="20.361"
       cy="22.546"
       gradientUnits="userSpaceOnUse"
       xlink:href="#linearGradient4050"
       id="radialGradient2815" />
    <filter
       style="color-interpolation-filters:sRGB"
       inkscape:collect="always"
       x="-0.32866001"
       y="-0.10851"
       width="1.6573"
       height="1.217"
       id="filter3915">
      <feGaussianBlur
         inkscape:collect="always"
         stdDeviation="1.4427168"
         id="feGaussianBlur3917" />
    </filter>
  </defs>
  <sodipodi:namedview
     id="base"
     pagecolor="#ffffff"
     bordercolor="#666666"
     borderopacity="1.0"
     inkscape:pageopacity="0.0"
     inkscape:pageshadow="2"
     inkscape:zoom="2.3469888"
     inkscape:cx="8.2951398"
     inkscape:cy="48"
     inkscape:document-units="px"
     inkscape:current-layer="g1003"
     showgrid="false"
     inkscape:showpageshadow="false"
     units="px"
     inkscape:lockguides="true"
     inkscape:window-width="1280"
     inkscape:window-height="972"
     inkscape:window-x="0"
     inkscape:window-y="26"
     inkscape:window-maximized="1"
     inkscape:snap-global="false">
    <sodipodi:guide
       position="0,0"
       orientation="0,96"
       id="guide1621"
       inkscape:locked="true" />
    <sodipodi:guide
       position="96.000002,0"
       orientation="-96,0"
       id="guide1623"
       inkscape:locked="true" />
    <sodipodi:guide
       position="96.000002,96.000002"
       orientation="0,-96"
       id="guide1625"
       inkscape:locked="true" />
    <sodipodi:guide
       position="0,96.000002"
       orientation="96,0"
       id="guide1627"
       inkscape:locked="true" />
  </sodipodi:namedview>
  <metadata
     id="metadata1069">
    <rdf:RDF>
      <cc:Work
         rdf:about="">
        <dc:format>image/svg+xml</dc:format>
        <dc:type
           rdf:resource="http://purl.org/dc/dcmitype/StillImage" />
        <dc:title></dc:title>
        <dc:date>2017</dc:date>
        <dc:creator>
          <cc:Agent>
            <dc:title>Cristian Pozzessere &quot;ilnanny&quot;</dc:title>
          </cc:Agent>
        </dc:creator>
        <dc:subject>
          <rdf:Bag>
            <rdf:li>Global language</rdf:li>
          </rdf:Bag>
        </dc:subject>
        <dc:description>Playing with Inkscape on Gnu/Linux O. S.</dc:description>
        <dc:contributor>
          <cc:Agent>
            <dc:title>In the night, alone like a dog.</dc:title>
          </cc:Agent>
        </dc:contributor>
        <cc:license
           rdf:resource="http://creativecommons.org/licenses/by-sa/4.0/" />
      </cc:Work>
      <cc:License
         rdf:about="http://creativecommons.org/licenses/by-sa/4.0/">
        <cc:permits
           rdf:resource="http://creativecommons.org/ns#Reproduction" />
        <cc:permits
           rdf:resource="http://creativecommons.org/ns#Distribution" />
        <cc:requires
           rdf:resource="http://creativecommons.org/ns#Notice" />
        <cc:requires
           rdf:resource="http://creativecommons.org/ns#Attribution" />
        <cc:permits
           rdf:resource="http://creativecommons.org/ns#DerivativeWorks" />
        <cc:requires
           rdf:resource="http://creativecommons.org/ns#ShareAlike" />
      </cc:License>
    </rdf:RDF>
  </metadata>
  <g
     inkscape:label="Livello 1"
     inkscape:groupmode="layer"
     id="layer1"
     transform="translate(0,-1026.5197)">
    <g
       transform="translate(-0.14895645,1026.1047)"
       style="display:inline"
       id="g1273">
      <path
         style="display:inline;opacity:0.15;fill:#000000;fill-opacity:1;fill-rule:nonzero;stroke:none"
         d="M 89.29181,0.415026 H 7.0060911 c -3.798848,0 -6.8571352,3.058285 -6.8571352,6.8571399 V 89.557884 c 0,3.798857 3.0582872,6.857142 6.8571352,6.857142 H 89.29181 c 3.798857,0 6.857147,-3.058285 6.857147,-6.857142 V 7.2721659 c 0,-3.7988549 -3.05829,-6.8571399 -6.857147,-6.8571399 z"
         id="path3288"
         inkscape:connector-curvature="0" />
      <path
         inkscape:connector-curvature="0"
         id="path4085"
         d="M 88.648954,1.165026 H 7.6489471 c -3.739492,0 -6.749993,3.010499 -6.749993,6.7499969 V 88.915026 c 0,3.739501 3.010501,6.75 6.749993,6.75 H 88.648954 c 3.739503,0 6.750003,-3.010499 6.750003,-6.75 V 7.9150229 c 0,-3.7394979 -3.0105,-6.7499969 -6.750003,-6.7499969 z"
         style="display:inline;opacity:0.15;fill:#000000;fill-opacity:1;fill-rule:nonzero;stroke:none" />
      <path
         style="display:inline;fill:url(#linearGradient4071);fill-opacity:1;fill-rule:nonzero;stroke:none"
         d="M 88.006093,1.915026 H 8.2918111 c -3.680143,0 -6.6428566,2.962713 -6.6428566,6.6428549 V 88.272171 c 0,3.680142 2.9627136,6.642856 6.6428566,6.642856 H 88.006093 c 3.680143,0 6.642854,-2.962714 6.642854,-6.642856 V 8.5578809 c 0,-3.6801419 -2.962711,-6.6428549 -6.642854,-6.6428549 z"
         id="rect4251-1"
         inkscape:connector-curvature="0" />
      <path
         inkscape:connector-curvature="0"
         id="path4989"
         d="m 9.9740341,5.1444869 c -3.116621,0 -5.667965,2.53951 -5.667965,5.6460041 v 69.277996 c 0,3.106495 2.551344,5.646004 5.667965,5.646004 H 86.765819 c 3.116621,0 5.667968,-2.539509 5.667968,-5.646004 V 10.790491 c 0,-3.1064931 -2.551347,-5.6460041 -5.667968,-5.6460041 z m 0,2.319439 H 86.765819 c 1.888099,0 3.352022,1.480095 3.352022,3.3265651 v 69.277996 c 0,1.846474 -1.463923,3.326564 -3.352022,3.326564 H 9.9740341 c -1.888099,0 -3.352022,-1.48009 -3.352022,-3.326564 V 10.790491 c 0,-1.8464701 1.463923,-3.3265651 3.352022,-3.3265651 z"
         style="color:#000000;font-style:normal;font-variant:normal;font-weight:normal;font-stretch:normal;font-size:medium;line-height:normal;font-family:Sans;-inkscape-font-specification:Sans;text-indent:0;text-align:start;text-decoration:none;text-decoration-line:none;letter-spacing:normal;word-spacing:normal;text-transform:none;writing-mode:lr-tb;direction:ltr;baseline-shift:baseline;text-anchor:start;display:inline;overflow:visible;visibility:visible;fill:#241f1f;fill-opacity:0.63265303;stroke:none;stroke-width:2.3755002;marker:none;enable-background:accumulate" />
      <path
         inkscape:connector-curvature="0"
         style="display:inline;opacity:0.65818182;fill:url(#linearGradient4129);fill-opacity:1;fill-rule:nonzero;stroke:none"
         d="m 1.6489535,82.258776 v 6 c 0,3.680142 2.9761066,6.65625 6.6562496,6.65625 H 87.992703 c 3.680143,0 6.656254,-2.976108 6.656254,-6.65625 v -6 c 0,3.680142 -2.976111,6.65625 -6.656254,6.65625 H 8.3052031 c -3.680143,0 -6.6562496,-2.976108 -6.6562496,-6.65625 z"
         id="path4118" />
      <rect
         style="opacity:0.55;fill:url(#radialGradient7462);fill-opacity:1;stroke:none"
         id="rect4131"
         width="84.250008"
         height="4.25"
         x="5.5239539"
         y="80.665031"
         rx="0"
         ry="4.25" />
      <rect
         ry="4.25"
         rx="0"
         y="-90.233963"
         x="5.9750223"
         height="4.25"
         width="76.75"
         id="rect4141"
         style="opacity:0.669;fill:url(#radialGradient7464);fill-opacity:1;stroke:none"
         transform="rotate(90)" />
      <g
         transform="matrix(0.91297981,0,0,0.8444453,20.28803,23.983749)"
         id="g1003">
        <path
           inkscape:connector-curvature="0"
           style="opacity:1;fill:#ebedee;fill-opacity:1;stroke:none"
           d="m -11.246114,-7.507947 c -2.168522,0 -3.90625,1.74244 -3.90625,3.90625 v 70.59375 c 0,2.16381 1.737728,3.90625 3.90625,3.90625 h 83.1875 c 2.168522,0 3.90625,-1.74244 3.90625,-3.90625 v -70.59375 c 0,-2.16381 -1.737728,-3.90625 -3.90625,-3.90625 z"
           id="path1246" />
        <rect
           ry="3.0576727"
           rx="3.9569874"
           y="-6.8256979"
           x="-12.916362"
           height="4.3519998"
           width="89.087997"
           id="rect4048"
           style="opacity:0.65090906;fill:url(#radialGradient4543);fill-opacity:1;stroke:none" />
        <path
           id="rect4371"
           d="m -11.246114,-7.507947 c -2.168522,0 -3.90625,1.74244 -3.90625,3.90625 v 70.59375 c 0,2.16381 1.737728,3.90625 3.90625,3.90625 h 83.1875 c 2.168522,0 3.90625,-1.74244 3.90625,-3.90625 v -70.59375 c 0,-2.16381 -1.737728,-3.90625 -3.90625,-3.90625 z"
           style="opacity:0.27999998;fill:url(#linearGradient4388);fill-opacity:1;stroke:none"
           inkscape:connector-curvature="0" />
        <g
           id="g986">
          <path
             inkscape:connector-curvature="0"
             style="opacity:0;fill:#000000;fill-opacity:1;stroke:none"
             d="m -11.527364,-20.414197 c -2.182681,0 -3.9375,1.754819 -3.9375,3.9375 v 12 c 0,-2.182681 1.754819,-3.9375 3.9375,-3.9375 h 83.75 c 2.182681,0 3.9375,1.754819 3.9375,3.9375 v -12 c 0,-2.182681 -1.754819,-3.9375 -3.9375,-3.9375 z"
             id="rect4080" />
          <path
             inkscape:connector-curvature="0"
             style="fill:#e4e8e8;fill-opacity:1;stroke:#738589;stroke-width:0.99243301;stroke-miterlimit:4;stroke-dasharray:none;stroke-opacity:1"
             d="m -11.229786,-20.105492 c -2.168501,0 -3.925898,1.761406 -3.925898,3.934855 v 3.965838 c 0,-2.173448 1.757397,-3.934854 3.925898,-3.934854 h 83.154841 c 2.168502,0 3.925898,1.761406 3.925898,3.934854 v -3.965838 c 0,-2.173449 -1.757396,-3.934855 -3.925898,-3.934855 z"
             id="path4058" />
          <path
             id="path4060"
             d="m -11.229786,-12.17466 c -2.168501,0 -3.925898,1.761407 -3.925898,3.934856 v 3.965839 c 0,-2.173449 1.757397,-3.934856 3.925898,-3.934856 h 83.154841 c 2.168502,0 3.925898,1.761407 3.925898,3.934856 v -3.965839 c 0,-2.173449 -1.757396,-3.934856 -3.925898,-3.934856 z"
             style="fill:#e4e8e8;fill-opacity:1;stroke:#738589;stroke-width:0.99243301;stroke-miterlimit:4;stroke-dasharray:none;stroke-opacity:1"
             inkscape:connector-curvature="0" />
          <path
             inkscape:connector-curvature="0"
             style="fill:#e4e8e8;fill-opacity:1;stroke:#738589;stroke-width:0.99243301;stroke-miterlimit:4;stroke-dasharray:none;stroke-opacity:1"
             d="m -11.229786,-16.140075 c -2.168501,0 -3.925898,1.761406 -3.925898,3.934854 v 3.965839 c 0,-2.173449 1.757397,-3.934855 3.925898,-3.934855 h 83.154841 c 2.168502,0 3.925898,1.761406 3.925898,3.934855 v -3.965839 c 0,-2.173448 -1.757396,-3.934854 -3.925898,-3.934854 z"
             id="path4062" />
          <path
             style="opacity:0.25818182;fill:url(#linearGradient4369);fill-opacity:1;stroke:none"
             d="m -11.246114,-19.914197 c -2.168522,0 -3.90625,1.74244 -3.90625,3.90625 v 13 c 0,-2.16381 2.087258,-4.784629 4.255776,-4.780063 l 83.012737,0.174762 c 2.168517,0.00457 3.731487,2.441491 3.731487,4.605301 v -13 c 0,-2.16381 -1.737728,-3.90625 -3.90625,-3.90625 z"
             id="rect4358"
             inkscape:connector-curvature="0"
             sodipodi:nodetypes="sscsscsss" />
        </g>
        <g
           id="g3450"
           transform="matrix(0.27366953,0,0,0.29588034,-6.4510776,-4.6564216)">
          <g
             transform="translate(0,128)"
             inkscape:label="over"
             id="layer1-5">
            <g
               transform="matrix(1.9483,0,0,1.9483,10.022,-127.31)"
               id="layer2">
              <path
                 d="M 64.359,2 C 44.287,2 28.128,18.404 28.128,38.78 V 79.647 H 38.192 V 38.78 c 0,-14.716 11.67,-26.564 26.167,-26.564 14.496,0 26.167,11.847 26.167,26.564 V 79.647 H 100.59 V 38.78 C 100.59,18.404 84.431,2 64.359,2 Z"
                 inkscape:connector-curvature="0"
                 style="fill:url(#linearGradient3984);fill-rule:evenodd"
                 id="rect2723" />
              <path
                 d="m 64.359,4.6691 c -18.957,0 -34.218,16.554 -34.218,35.438 v 38.097 c 0,14.303 8.7764,26.445 21.26,31.518 -8.944,-4.13 -15.221,-12.991 -15.221,-23.495 v -48.123 c 0,-14.441 11.67,-27.025 26.167,-27.025 h 4.0257 c 14.496,0 26.167,12.584 26.167,27.025 v 48.123 c 0,10.504 -6.2771,19.363 -15.222,23.498 12.484,-5.0734 21.26,-17.215 21.26,-31.518 v -38.097 c 0,-18.884 -15.261,-35.438 -34.218,-35.438 z"
                 inkscape:connector-curvature="0"
                 style="opacity:0.65;fill:url(#linearGradient3084);fill-rule:evenodd"
                 id="path3082" />
              <path
                 transform="matrix(1,0,0,1.0152,0,-0.030331)"
                 d="m 64.698,2.8539 c -19.51,0 -35.217,15.601 -35.217,34.98 v 39.095 c 0,14.677 9.0325,27.137 21.881,32.344 -9.206,-4.24 -15.666,-13.332 -15.666,-24.11 v -49.383 c 0,-14.819 12.011,-29.082 26.93,-29.082 h 4.1431 c 14.919,0 26.93,14.263 26.93,29.082 v 49.383 c 0,10.779 -6.4603,19.87 -15.666,24.113 12.848,-5.2062 21.881,-17.666 21.881,-32.344 v -39.095 c 0,-19.379 -15.707,-34.98 -35.217,-34.98 z"
                 inkscape:connector-curvature="0"
                 style="opacity:0.84615;fill:#ffffff;fill-rule:evenodd;stroke:#818181;filter:url(#filter3974)"
                 id="path2931" />
              <path
                 transform="matrix(1,0,0,1.0152,0,-0.030331)"
                 d="m 49.471,12.003 c -5.4384,3.4052 -8.4987,9.2101 -7.8995,11.145 0.64564,2.085 4.4667,-7.2336 15.283,-10.119 8.3406,-2.2253 -4.93e-4,-5.6487 -7.3837,-1.0257 z"
                 inkscape:connector-curvature="0"
                 style="fill:url(#radialGradient2869);fill-rule:evenodd;filter:url(#filter3966)"
                 id="path2861" />
              <path
                 d="m 79.248,12.053 c 5.4384,3.4569 8.4987,9.3498 7.8995,11.314 -0.64564,2.1166 -4.4667,-7.3433 -15.283,-10.273 -8.3406,-2.259 4.93e-4,-5.7344 7.3837,-1.0413 z"
                 inkscape:connector-curvature="0"
                 style="fill:url(#radialGradient2873);fill-rule:evenodd"
                 id="path2871" />
              <path
                 transform="matrix(1,0,0,1.0152,0,-0.030331)"
                 d="m 82.927,8.9136 c 6.54,4.1184 10.221,11.138 9.5,13.478 -0.776,2.521 -5.372,-8.748 -18.381,-12.238 -10.031,-2.6911 10e-4,-6.8312 8.881,-1.2404 z"
                 inkscape:connector-curvature="0"
                 style="fill:#ffffff;fill-rule:evenodd;filter:url(#filter3851)"
                 id="path2957" />
            </g>
            <rect
               x="56.320999"
               y="-12.584"
               width="156.86"
               height="131.05"
               ry="0.98891997"
               rx="0.97413999"
               style="fill:url(#linearGradient3243);fill-rule:evenodd"
               id="rect1941" />
            <path
               d="m 61.883,-13.923 c 3.5266,4.1963 35.352,7.4885 75.312,7.4885 39.411,0 70.71,-3.2578 74.977,-7.3715 -0.06,-0.0063 -0.0497,-0.11701 -0.11144,-0.11701 h -150.18 z"
               inkscape:connector-curvature="0"
               style="opacity:0.5;fill:#ffffff;fill-rule:evenodd"
               id="path2727" />
            <path
               d="m 25.647,123.62 c 1.8101,-2.1216 18.145,-3.7862 38.655,-3.7862 20.229,0 36.293,1.6472 38.484,3.7271 -0.0308,0.003 -0.0255,0.0592 -0.0572,0.0592 h -77.082 z"
               transform="matrix(1.9483,0,0,0.6971,10.022,30.952)"
               inkscape:connector-curvature="0"
               style="opacity:0.83933004;fill:#575757;fill-rule:evenodd;stroke:#818181;stroke-width:0.625;stroke-linecap:round;stroke-linejoin:round;filter:url(#filter3903)"
               id="path2768" />
            <path
               d="m 61.883,-13.923 c 3.5266,2.6478 35.352,4.7251 75.312,4.7251 39.411,0 70.71,-2.0556 74.977,-4.6513 -0.06,-0.004 -0.0497,-0.07383 -0.11144,-0.07383 h -150.18 z"
               inkscape:connector-curvature="0"
               style="opacity:0.58173002;fill:#e3e3e3;fill-rule:evenodd;stroke:url(#radialGradient3885);stroke-width:0.97456002;stroke-linecap:round;stroke-linejoin:round"
               id="path2332" />
          </g>
          <g
             transform="translate(0,128)"
             inkscape:label="ombra"
             id="layer3">
            <rect
               x="56.980999"
               y="-5.4534998"
               width="156.86"
               height="120.05"
               ry="0.90592998"
               rx="0.97413999"
               style="opacity:0.06490401;fill:url(#linearGradient3237);fill-rule:evenodd;stroke:#574e19;stroke-width:1.87880003"
               id="rect2734" />
            <g
               transform="matrix(3.3501,0,0,3.9193,18.635,-124.43)"
               style="filter:url(#filter3927)"
               id="g2798">
              <path
                 d="m 13.971,30.767 c -0.43954,2.6295 -0.93088,19.309 0.69644,22.88 1.5919,3.4933 1.3929,-16.667 5.2731,-19.84 3.9212,-3.2069 -5.5549,-5.52 -5.9695,-3.04 z"
                 inkscape:connector-curvature="0"
                 style="opacity:0.40277997;fill:url(#radialGradient3474);fill-rule:evenodd"
                 id="path2778" />
              <path
                 d="m 13.729,30.942 c -0.50723,3.0697 -1.0742,22.541 0.80369,26.71 1.837,4.0782 1.6074,-19.457 6.0851,-23.161 4.525,-3.7437 -6.4104,-6.4441 -6.8888,-3.5489 z"
                 inkscape:connector-curvature="0"
                 style="opacity:0.3;fill:url(#radialGradient3476);fill-rule:evenodd"
                 id="path2790" />
              <path
                 d="m 13.232,31.092 c -0.6303,3.4488 -1.3349,25.325 0.99868,30.009 2.2827,4.5818 1.9974,-21.86 7.5615,-26.022 5.6229,-4.206 -7.9657,-7.2399 -8.5601,-3.9872 z"
                 inkscape:connector-curvature="0"
                 style="opacity:0.2;fill:url(#radialGradient3478);fill-rule:evenodd"
                 id="path2794" />
            </g>
            <g
               transform="matrix(-3.3501,0,0,3.596,252.19,-116.53)"
               style="filter:url(#filter3943)"
               id="g2803">
              <path
                 d="m 13.971,30.767 c -0.43954,2.6295 -0.93088,19.309 0.69644,22.88 1.5919,3.4933 1.3929,-16.667 5.2731,-19.84 3.9212,-3.2069 -5.5549,-5.52 -5.9695,-3.04 z"
                 inkscape:connector-curvature="0"
                 style="opacity:0.40277997;fill:url(#radialGradient2811);fill-rule:evenodd"
                 id="path2805" />
              <path
                 d="m 13.729,30.942 c -0.50723,3.0697 -1.0742,22.541 0.80369,26.71 1.837,4.0782 1.6074,-19.457 6.0851,-23.161 4.525,-3.7437 -6.4104,-6.4441 -6.8888,-3.5489 z"
                 inkscape:connector-curvature="0"
                 style="opacity:0.3;fill:url(#radialGradient2813);fill-rule:evenodd"
                 id="path2807" />
              <path
                 d="m 13.232,31.092 c -0.6303,3.4488 -1.3349,25.325 0.99868,30.009 2.2827,4.5818 1.9974,-21.86 7.5615,-26.022 5.6229,-4.206 -7.9657,-7.2399 -8.5601,-3.9872 z"
                 inkscape:connector-curvature="0"
                 style="opacity:0.82451998;fill:url(#radialGradient2815);fill-rule:evenodd;filter:url(#filter3915)"
                 id="path2809" />
            </g>
          </g>
        </g>
        <rect
           transform="matrix(1.2146192,0,0,1.3113605,-18.088534,19.372096)"
           style="display:inline;opacity:0.589;fill:url(#linearGradient4767-6);fill-opacity:1;stroke:none"
           id="rect4146"
           width="75.965775"
           height="69.024437"
           x="2"
           y="-30"
           rx="3.9569874"
           ry="3.9569881"
           clip-path="url(#clipPath4156-4-1-2)" />
      </g>
    </g>
  </g>
</svg>
