<?xml version="1.0" encoding="UTF-8" standalone="no"?>
<!-- Created with Inkscape (http://www.inkscape.org/) -->

<svg
   xmlns:dc="http://purl.org/dc/elements/1.1/"
   xmlns:cc="http://creativecommons.org/ns#"
   xmlns:rdf="http://www.w3.org/1999/02/22-rdf-syntax-ns#"
   xmlns:svg="http://www.w3.org/2000/svg"
   xmlns="http://www.w3.org/2000/svg"
   xmlns:xlink="http://www.w3.org/1999/xlink"
   xmlns:sodipodi="http://sodipodi.sourceforge.net/DTD/sodipodi-0.dtd"
   xmlns:inkscape="http://www.inkscape.org/namespaces/inkscape"
   width="96"
   height="96"
   viewBox="0 0 96.000001 96.000004"
   version="1.1"
   id="svg1072"
   inkscape:version="0.92.1 r15371"
   sodipodi:docname="font-x-generic.svg">
  <defs
     id="defs1066">
    <linearGradient
       inkscape:collect="always"
       xlink:href="#linearGradient6139-0"
       id="linearGradient4071"
       gradientUnits="userSpaceOnUse"
       gradientTransform="matrix(1.1071428,0,0,1.1071426,-4.9939026,-3.620687)"
       x1="6"
       y1="47.000011"
       x2="90"
       y2="47.000011" />
    <linearGradient
       id="linearGradient6139-0">
      <stop
         id="stop6141-2"
         offset="0"
         style="stop-color:#b0b9be;stop-opacity:1" />
      <stop
         style="stop-color:#ffffff;stop-opacity:1;"
         offset="0.25"
         id="stop6151-0" />
      <stop
         style="stop-color:#93a2a7;stop-opacity:1"
         offset="0.5"
         id="stop6147-1" />
      <stop
         id="stop6149-4"
         offset="0.75"
         style="stop-color:#f9fbfb;stop-opacity:1" />
      <stop
         id="stop6143-4"
         offset="1"
         style="stop-color:#b0b8be;stop-opacity:1" />
    </linearGradient>
    <linearGradient
       gradientTransform="translate(0.1489535,0.415026)"
       inkscape:collect="always"
       xlink:href="#linearGradient3832-0-6-1-1"
       id="linearGradient4129"
       x1="1.5"
       y1="88.171875"
       x2="94.5"
       y2="88.171875"
       gradientUnits="userSpaceOnUse" />
    <linearGradient
       id="linearGradient3832-0-6-1-1">
      <stop
         style="stop-color:#000000;stop-opacity:1;"
         offset="0"
         id="stop3834-6-3-7-1" />
      <stop
         id="stop3872-2-4"
         offset="0.1"
         style="stop-color:#000000;stop-opacity:0.58823532;" />
      <stop
         style="stop-color:#000000;stop-opacity:0.58823532;"
         offset="0.89999998"
         id="stop3844-6-2-7-6" />
      <stop
         style="stop-color:#000000;stop-opacity:1;"
         offset="1"
         id="stop3836-5-0-2-9" />
    </linearGradient>
    <radialGradient
       inkscape:collect="always"
       xlink:href="#linearGradient4050"
       id="radialGradient7462"
       gradientUnits="userSpaceOnUse"
       gradientTransform="matrix(0.97513378,0,0,0.04919072,34.047649,80.581722)"
       cx="13.948145"
       cy="44.892841"
       fx="13.948145"
       fy="44.892841"
       r="43.199203" />
    <linearGradient
       inkscape:collect="always"
       id="linearGradient4050">
      <stop
         style="stop-color:#ffffff;stop-opacity:1;"
         offset="0"
         id="stop4052" />
      <stop
         style="stop-color:#ffffff;stop-opacity:0;"
         offset="1"
         id="stop4054" />
    </linearGradient>
    <radialGradient
       inkscape:collect="always"
       xlink:href="#linearGradient4050"
       id="radialGradient7464"
       gradientUnits="userSpaceOnUse"
       gradientTransform="matrix(0.88832663,0,0,0.04919072,31.959518,-90.31726)"
       cx="13.948145"
       cy="44.892841"
       fx="13.948145"
       fy="44.892841"
       r="43.199203" />
    <radialGradient
       inkscape:collect="always"
       xlink:href="#linearGradient4050"
       id="radialGradient4543"
       gradientUnits="userSpaceOnUse"
       gradientTransform="matrix(1,0,0,0.04885057,-16.372364,-3.861835)"
       cx="48"
       cy="-16.128"
       fx="48"
       fy="-16.128"
       r="44.543999" />
    <linearGradient
       inkscape:collect="always"
       xlink:href="#linearGradient4160"
       id="linearGradient4388"
       x1="2.5"
       y1="54.296875"
       x2="93.5"
       y2="54.296875"
       gradientUnits="userSpaceOnUse"
       gradientTransform="translate(-17.652364,-22.601697)" />
    <linearGradient
       id="linearGradient4160">
      <stop
         id="stop4170"
         offset="0"
         style="stop-color:#000000;stop-opacity:0;" />
      <stop
         style="stop-color:#000000;stop-opacity:0.96470588;"
         offset="0.03175623"
         id="stop4186" />
      <stop
         style="stop-color:#000000;stop-opacity:0;"
         offset="0.09425623"
         id="stop4182" />
      <stop
         style="stop-color:#000000;stop-opacity:0;"
         offset="0.49595019"
         id="stop4180" />
      <stop
         style="stop-color:#000000;stop-opacity:0;"
         offset="0.90525883"
         id="stop4178" />
      <stop
         id="stop4184"
         offset="0.96241152"
         style="stop-color:#000000;stop-opacity:0.98823529;" />
      <stop
         id="stop4168"
         offset="1"
         style="stop-color:#000000;stop-opacity:0;" />
    </linearGradient>
    <linearGradient
       gradientTransform="matrix(1.0000468,0,0,0.991319,-17.353732,9.636111)"
       inkscape:collect="always"
       xlink:href="#linearGradient13484"
       id="linearGradient13490"
       x1="47.056839"
       y1="22.252237"
       x2="48.640831"
       y2="22.252237"
       gradientUnits="userSpaceOnUse" />
    <linearGradient
       id="linearGradient13484">
      <stop
         style="stop-color:#849699;stop-opacity:1"
         offset="0"
         id="stop13486" />
      <stop
         style="stop-color:#0b0d0d;stop-opacity:0"
         offset="1"
         id="stop13488" />
    </linearGradient>
    <linearGradient
       inkscape:collect="always"
       xlink:href="#linearGradient4160"
       id="linearGradient4369"
       x1="2.5"
       y1="11.140625"
       x2="93.5"
       y2="11.140625"
       gradientUnits="userSpaceOnUse"
       gradientTransform="translate(-17.652364,-22.601697)" />
    <linearGradient
       inkscape:collect="always"
       xlink:href="#linearGradient4050"
       id="linearGradient4767-6"
       gradientUnits="userSpaceOnUse"
       x1="2.7713892"
       y1="-28.64156"
       x2="50.527882"
       y2="14.514202" />
    <clipPath
       id="clipPath4156-4-1-2"
       clipPathUnits="userSpaceOnUse">
      <path
         inkscape:connector-curvature="0"
         id="path4158-0-8-6"
         d="m 27.046336,-55.695463 -14.21366,13.321486 h 0.06127 l 15.653407,21.770763 10.231384,-10.546177 C 38.561832,-32.30156 27.468089,-54.819245 27.046336,-55.695463 Z M 9.6468554,-39.382809 -5.2407289,-25.32124 15.987863,-7.8059573 26.372412,-18.382966 Z m 31.4906096,12.951445 -9.741259,9.713584 8.944804,12.4580526 7.780753,-7.5550056 z m -49.8397109,4.378822 -13.7541661,12.9822847 26.2830181,13.84571 0.06127,-0.0617 -0.122531,-0.0617 L 13.598503,-5.4007374 -8.7022409,-22.052595 Z m 38.0154159,7.400825 -9.802525,9.7752596 11.579232,9.5594001 7.62759,-7.40083 -8.669108,-11.0087257 z m 20.187073,5.6739697 -7.382526,7.2158 6.187844,8.54179 5.820249,-6.13651996 z m -32.195166,6.32154 -9.5574606,9.49772 13.6622686,7.1849703 7.933918,-7.6783603 z m 23.311629,2.37443004 -7.10683,6.93826996 8.362778,6.9074403 5.360756,-5.6739699 -0.06127,-0.0925 -0.0919,0.12335 -6.463539,-8.20258036 z m -8.730374,8.54178036 -7.505057,7.3391599 10.353916,5.45811 c 1.397496,-1.32103 5.67514,-6.12292 5.850882,-6.32154 z"
         style="opacity:0.6;fill:#ffffff;fill-opacity:1;stroke:none" />
    </clipPath>
  </defs>
  <sodipodi:namedview
     id="base"
     pagecolor="#ffffff"
     bordercolor="#666666"
     borderopacity="1.0"
     inkscape:pageopacity="0.0"
     inkscape:pageshadow="2"
     inkscape:zoom="4.8375102"
     inkscape:cx="36.961567"
     inkscape:cy="47.634624"
     inkscape:document-units="px"
     inkscape:current-layer="g1003"
     showgrid="false"
     inkscape:showpageshadow="false"
     units="px"
     inkscape:lockguides="false"
     inkscape:window-width="1280"
     inkscape:window-height="972"
     inkscape:window-x="0"
     inkscape:window-y="26"
     inkscape:window-maximized="1"
     inkscape:snap-global="false" />
  <metadata
     id="metadata1069">
    <rdf:RDF>
      <cc:Work
         rdf:about="">
        <dc:format>image/svg+xml</dc:format>
        <dc:type
           rdf:resource="http://purl.org/dc/dcmitype/StillImage" />
        <dc:title></dc:title>
        <dc:date>2017</dc:date>
        <dc:creator>
          <cc:Agent>
            <dc:title>Cristian Pozzessere &quot;ilnanny&quot;</dc:title>
          </cc:Agent>
        </dc:creator>
        <dc:subject>
          <rdf:Bag>
            <rdf:li>Global language</rdf:li>
          </rdf:Bag>
        </dc:subject>
        <dc:description>Playing with Inkscape on Gnu/Linux O. S.</dc:description>
        <dc:contributor>
          <cc:Agent>
            <dc:title>In the night, alone like a dog.</dc:title>
          </cc:Agent>
        </dc:contributor>
        <cc:license
           rdf:resource="http://creativecommons.org/licenses/by-sa/4.0/" />
      </cc:Work>
      <cc:License
         rdf:about="http://creativecommons.org/licenses/by-sa/4.0/">
        <cc:permits
           rdf:resource="http://creativecommons.org/ns#Reproduction" />
        <cc:permits
           rdf:resource="http://creativecommons.org/ns#Distribution" />
        <cc:requires
           rdf:resource="http://creativecommons.org/ns#Notice" />
        <cc:requires
           rdf:resource="http://creativecommons.org/ns#Attribution" />
        <cc:permits
           rdf:resource="http://creativecommons.org/ns#DerivativeWorks" />
        <cc:requires
           rdf:resource="http://creativecommons.org/ns#ShareAlike" />
      </cc:License>
    </rdf:RDF>
  </metadata>
  <g
     inkscape:label="Livello 1"
     inkscape:groupmode="layer"
     id="layer1"
     transform="translate(0,-1026.5197)">
    <g
       transform="translate(-0.14895645,1026.1047)"
       style="display:inline"
       id="g1273">
      <path
         style="display:inline;opacity:0.15;fill:#000000;fill-opacity:1;fill-rule:nonzero;stroke:none"
         d="M 89.29181,0.415026 H 7.0060911 c -3.798848,0 -6.8571352,3.058285 -6.8571352,6.8571399 V 89.557884 c 0,3.798857 3.0582872,6.857142 6.8571352,6.857142 H 89.29181 c 3.798857,0 6.857147,-3.058285 6.857147,-6.857142 V 7.2721659 c 0,-3.7988549 -3.05829,-6.8571399 -6.857147,-6.8571399 z"
         id="path3288"
         inkscape:connector-curvature="0" />
      <path
         inkscape:connector-curvature="0"
         id="path4085"
         d="M 88.648954,1.165026 H 7.6489471 c -3.739492,0 -6.749993,3.010499 -6.749993,6.7499969 V 88.915026 c 0,3.739501 3.010501,6.75 6.749993,6.75 H 88.648954 c 3.739503,0 6.750003,-3.010499 6.750003,-6.75 V 7.9150229 c 0,-3.7394979 -3.0105,-6.7499969 -6.750003,-6.7499969 z"
         style="display:inline;opacity:0.15;fill:#000000;fill-opacity:1;fill-rule:nonzero;stroke:none" />
      <path
         style="display:inline;fill:url(#linearGradient4071);fill-opacity:1;fill-rule:nonzero;stroke:none"
         d="M 88.006093,1.915026 H 8.2918111 c -3.680143,0 -6.6428566,2.962713 -6.6428566,6.6428549 V 88.272171 c 0,3.680142 2.9627136,6.642856 6.6428566,6.642856 H 88.006093 c 3.680143,0 6.642854,-2.962714 6.642854,-6.642856 V 8.5578809 c 0,-3.6801419 -2.962711,-6.6428549 -6.642854,-6.6428549 z"
         id="rect4251-1"
         inkscape:connector-curvature="0" />
      <path
         inkscape:connector-curvature="0"
         id="path4989"
         d="m 9.9740341,5.1444869 c -3.116621,0 -5.667965,2.53951 -5.667965,5.6460041 v 69.277996 c 0,3.106495 2.551344,5.646004 5.667965,5.646004 H 86.765819 c 3.116621,0 5.667968,-2.539509 5.667968,-5.646004 V 10.790491 c 0,-3.1064931 -2.551347,-5.6460041 -5.667968,-5.6460041 z m 0,2.319439 H 86.765819 c 1.888099,0 3.352022,1.480095 3.352022,3.3265651 v 69.277996 c 0,1.846474 -1.463923,3.326564 -3.352022,3.326564 H 9.9740341 c -1.888099,0 -3.352022,-1.48009 -3.352022,-3.326564 V 10.790491 c 0,-1.8464701 1.463923,-3.3265651 3.352022,-3.3265651 z"
         style="color:#000000;font-style:normal;font-variant:normal;font-weight:normal;font-stretch:normal;font-size:medium;line-height:normal;font-family:Sans;-inkscape-font-specification:Sans;text-indent:0;text-align:start;text-decoration:none;text-decoration-line:none;letter-spacing:normal;word-spacing:normal;text-transform:none;writing-mode:lr-tb;direction:ltr;baseline-shift:baseline;text-anchor:start;display:inline;overflow:visible;visibility:visible;fill:#241f1f;fill-opacity:0.63265303;stroke:none;stroke-width:2.3755002;marker:none;enable-background:accumulate" />
      <path
         inkscape:connector-curvature="0"
         style="display:inline;opacity:0.65818182;fill:url(#linearGradient4129);fill-opacity:1;fill-rule:nonzero;stroke:none"
         d="m 1.6489535,82.258776 v 6 c 0,3.680142 2.9761066,6.65625 6.6562496,6.65625 H 87.992703 c 3.680143,0 6.656254,-2.976108 6.656254,-6.65625 v -6 c 0,3.680142 -2.976111,6.65625 -6.656254,6.65625 H 8.3052031 c -3.680143,0 -6.6562496,-2.976108 -6.6562496,-6.65625 z"
         id="path4118" />
      <rect
         style="opacity:0.55;fill:url(#radialGradient7462);fill-opacity:1;stroke:none"
         id="rect4131"
         width="84.250008"
         height="4.25"
         x="5.5239539"
         y="80.665031"
         rx="0"
         ry="4.25" />
      <rect
         ry="4.25"
         rx="0"
         y="-90.233963"
         x="5.9750223"
         height="4.25"
         width="76.75"
         id="rect4141"
         style="opacity:0.669;fill:url(#radialGradient7464);fill-opacity:1;stroke:none"
         transform="rotate(90)" />
      <g
         transform="matrix(0.91297981,0,0,0.8444453,20.28803,23.983749)"
         id="g1003">
        <path
           inkscape:connector-curvature="0"
           style="opacity:1;fill:#ebedee;fill-opacity:1;stroke:none"
           d="m -11.246114,-7.507947 c -2.168522,0 -3.90625,1.74244 -3.90625,3.90625 v 70.59375 c 0,2.16381 1.737728,3.90625 3.90625,3.90625 h 83.1875 c 2.168522,0 3.90625,-1.74244 3.90625,-3.90625 v -70.59375 c 0,-2.16381 -1.737728,-3.90625 -3.90625,-3.90625 z"
           id="path1246" />
        <rect
           ry="3.0576727"
           rx="3.9569874"
           y="-6.8256979"
           x="-12.916362"
           height="4.3519998"
           width="89.087997"
           id="rect4048"
           style="opacity:0.65090906;fill:url(#radialGradient4543);fill-opacity:1;stroke:none" />
        <path
           id="rect4371"
           d="m -11.246114,-7.507947 c -2.168522,0 -3.90625,1.74244 -3.90625,3.90625 v 70.59375 c 0,2.16381 1.737728,3.90625 3.90625,3.90625 h 83.1875 c 2.168522,0 3.90625,-1.74244 3.90625,-3.90625 v -70.59375 c 0,-2.16381 -1.737728,-3.90625 -3.90625,-3.90625 z"
           style="opacity:0.27999998;fill:url(#linearGradient4388);fill-opacity:1;stroke:none"
           inkscape:connector-curvature="0" />
        <path
           inkscape:connector-curvature="0"
           id="path13457"
           d="m 29.705309,-7.507947 v 78.406249 h 42.145244 c 2.218947,0 3.997083,-1.742441 3.997083,-3.906251 V -3.601697 c 0,-2.16381 -1.778136,-3.90625 -3.997083,-3.90625 z"
           style="opacity:0.567;fill:url(#linearGradient13490);fill-opacity:1;stroke:none" />
        <g
           style="font-style:italic;font-variant:normal;font-weight:normal;font-stretch:normal;font-size:60.12511444px;line-height:125%;font-family:Georgia;-inkscape-font-specification:'Georgia Italic';letter-spacing:0px;word-spacing:0px;fill:#93aca7;fill-opacity:1;stroke:none"
           id="g123"
           transform="matrix(1.0953145,0,0,1.1842093,-3.981781,-4.7212473)">
          <g
             id="text3336"
             style="font-style:italic;font-variant:normal;font-weight:normal;font-stretch:normal;font-size:60.12511444px;line-height:125%;font-family:Georgia;-inkscape-font-specification:'Georgia Italic';letter-spacing:0px;word-spacing:0px;fill:#dbe3e2;fill-opacity:1;stroke:none">
            <path
               id="path3092"
               d="m 27.908056,22.627205 -5.167002,24.24968 c -0.919891,4.344976 -2.857515,7.897287 -5.812877,10.656942 -2.955369,2.759637 -5.998809,4.13946 -9.1303275,4.139473 C 6.0755228,61.673287 4.8131315,61.340563 4.0106719,60.675129 3.188659,60.029242 2.7776479,59.20722 2.7776373,58.20906 c 1.06e-5,-0.841604 0.2544461,-1.585338 0.7633072,-2.231206 0.5088807,-0.645882 1.2428291,-0.968819 2.2018474,-0.968812 0.6067383,-7e-6 1.1449672,0.136997 1.6146881,0.411011 0.4501611,0.274001 0.8513862,0.61651 1.2036766,1.027529 0.2740123,0.332715 0.5871636,0.78287 0.939455,1.350466 0.3327271,0.567578 0.6263064,1.056877 0.8807394,1.467899 1.507043,-0.117443 2.789007,-1.135185 3.845893,-3.053229 1.076457,-1.918059 2.006125,-4.658133 2.789007,-8.22023 l 5.401866,-25.365283 h -5.724804 l 0.616518,-2.671575 h 5.666087 l 0.411011,-1.996342 c 0.469717,-2.270316 1.213452,-4.315586 2.231206,-6.135815 1.017729,-1.820155 2.172475,-3.3663394 3.46424,-4.6385582 1.272161,-1.2525638 2.7107,-2.2311617 4.315621,-2.9357966 1.624452,-0.724118 3.180423,-1.0861992 4.667917,-1.0862447 1.722307,4.55e-5 2.984698,0.3327688 3.787177,0.9981708 0.821994,0.6459191 1.233005,1.4679414 1.233035,2.4660692 -3e-5,0.8416362 -0.244679,1.5853706 -0.733949,2.2312054 C 41.88242,9.5042333 41.138685,9.8271706 40.12097,9.8271318 39.514213,9.8271706 38.98577,9.6999529 38.53564,9.4454782 38.08546,9.17151 37.684235,8.8192148 37.331963,8.3885914 36.9405,7.8993328 36.627349,7.4393917 36.392508,7.008767 36.157622,6.5782256 35.864043,6.0987126 35.511769,5.5702267 c -1.350487,0.058759 -2.544376,0.949283 -3.581671,2.6715749 -1.037333,1.7223727 -1.976787,4.5896644 -2.818365,8.6018844 l -0.645875,3.111944 h 7.368849 l -0.616517,2.671575 h -7.310134"
               inkscape:connector-curvature="0" />
            <path
               id="path3094"
               d="m 47.63661,22.627205 -5.167002,24.24968 c -0.919891,4.344976 -2.857515,7.897287 -5.812877,10.656942 -2.955369,2.759637 -5.998809,4.13946 -9.130328,4.139473 -1.722326,-1.3e-5 -2.984718,-0.332737 -3.787177,-0.998171 -0.822013,-0.645887 -1.233024,-1.467909 -1.233035,-2.466069 1.1e-5,-0.841604 0.254446,-1.585338 0.763307,-2.231206 0.508881,-0.645882 1.242829,-0.968819 2.201848,-0.968812 0.606738,-7e-6 1.144967,0.136997 1.614688,0.411011 0.450161,0.274001 0.851386,0.61651 1.203676,1.027529 0.274013,0.332715 0.587164,0.78287 0.939455,1.350466 0.332727,0.567578 0.626307,1.056877 0.880739,1.467899 1.507044,-0.117443 2.789007,-1.135185 3.845894,-3.053229 1.076457,-1.918059 2.006125,-4.658133 2.789007,-8.22023 L 42.14667,22.627205 h -5.724803 l 0.616517,-2.671575 h 5.666088 l 0.411011,-1.996342 c 0.469717,-2.270316 1.213452,-4.315586 2.231206,-6.135815 1.017729,-1.820155 2.172475,-3.3663394 3.46424,-4.6385582 1.272161,-1.2525638 2.7107,-2.2311617 4.315621,-2.9357966 1.624452,-0.724118 3.180423,-1.0861992 4.667916,-1.0862447 1.722308,4.55e-5 2.984699,0.3327688 3.787178,0.9981708 0.821994,0.6459191 1.233005,1.4679414 1.233034,2.4660692 -2.9e-5,0.8416362 -0.244679,1.5853706 -0.733949,2.2312054 -0.469756,0.6459144 -1.21349,0.9688517 -2.231205,0.9688129 -0.606758,3.88e-5 -1.1352,-0.1271789 -1.58533,-0.3816536 C 57.814014,9.17151 57.412788,8.8192148 57.060517,8.3885914 56.669054,7.8993328 56.355903,7.4393917 56.121062,7.008767 55.886176,6.5782256 55.592596,6.0987126 55.240323,5.5702267 c -1.350487,0.058759 -2.544376,0.949283 -3.581672,2.6715749 -1.037332,1.7223727 -1.976786,4.5896644 -2.818364,8.6018844 l -0.645876,3.111944 h 7.36885 l -0.616517,2.671575 H 47.63661"
               inkscape:connector-curvature="0" />
          </g>
          <g
             id="text3340"
             style="font-style:italic;font-variant:normal;font-weight:normal;font-stretch:normal;font-size:60.12511444px;line-height:125%;font-family:Georgia;-inkscape-font-specification:'Georgia Italic';letter-spacing:0px;word-spacing:0px;fill:#374845;fill-opacity:1;stroke:none">
            <path
               id="path3087"
               d="m 25.308164,20.627205 -5.167002,24.24968 C 19.22127,49.221861 17.283646,52.774172 14.328284,55.533827 11.372915,58.293464 8.3294757,59.673287 5.1979569,59.6733 3.4756302,59.673287 2.2132389,59.340563 1.4107793,58.675129 0.58876643,58.029242 0.17775532,57.20722 0.17774472,56.20906 0.17775532,55.367456 0.43219077,54.623722 0.94105184,53.977854 1.4499326,53.331972 2.183881,53.009035 3.1428993,53.009042 c 0.6067383,-7e-6 1.1449672,0.136997 1.6146881,0.411011 0.4501611,0.274001 0.8513862,0.61651 1.2036766,1.027529 0.2740123,0.332715 0.5871636,0.78287 0.9394549,1.350466 0.3327272,0.567578 0.6263066,1.056877 0.880739,1.467899 1.5070438,-0.117443 2.7890071,-1.135185 3.8458931,-3.053229 1.076457,-1.918059 2.006125,-4.658133 2.789007,-8.22023 l 5.401866,-25.365283 h -5.724803 l 0.616517,-2.671575 h 5.666087 l 0.411012,-1.996342 c 0.469717,-2.270316 1.213451,-4.315586 2.231205,-6.1358145 1.01773,-1.8201553 2.172475,-3.3663399 3.46424,-4.6385587 1.272162,-1.2525638 2.710701,-2.2311617 4.315621,-2.9357966 1.624453,-0.724118 3.180423,-1.0861992 4.667917,-1.0862447 1.722307,4.55e-5 2.984699,0.3327688 3.787178,0.9981708 0.821993,0.6459191 1.233004,1.4679414 1.233034,2.4660692 -3e-5,0.8416362 -0.244679,1.5853706 -0.733949,2.2312054 -0.469756,0.6459144 -1.21349,0.9688517 -2.231205,0.9688129 C 36.91432,7.8271706 36.385877,7.6999529 35.935747,7.4454782 35.485567,7.17151 35.084342,6.8192148 34.732071,6.3885914 34.340608,5.8993328 34.027456,5.4393917 33.792616,5.008767 33.557729,4.5782256 33.26415,4.0987126 32.911877,3.5702267 31.56139,3.6289857 30.3675,4.5195097 29.330205,6.2418016 28.292873,7.9641743 27.353419,10.831466 26.51184,14.843686 l -0.645875,3.111944 h 7.368849 l -0.616517,2.671575 h -7.310133"
               inkscape:connector-curvature="0" />
            <path
               id="path3089"
               d="m 45.036717,20.627205 -5.167002,24.24968 c -0.919891,4.344976 -2.857515,7.897287 -5.812877,10.656942 -2.955369,2.759637 -5.998808,4.13946 -9.130327,4.139473 -1.722327,-1.3e-5 -2.984718,-0.332737 -3.787178,-0.998171 -0.822013,-0.645887 -1.233024,-1.467909 -1.233035,-2.466069 1.1e-5,-0.841604 0.254447,-1.585338 0.763308,-2.231206 0.50888,-0.645882 1.242829,-0.968819 2.201847,-0.968812 0.606738,-7e-6 1.144967,0.136997 1.614688,0.411011 0.450161,0.274001 0.851386,0.61651 1.203677,1.027529 0.274012,0.332715 0.587163,0.78287 0.939455,1.350466 0.332727,0.567578 0.626306,1.056877 0.880739,1.467899 1.507043,-0.117443 2.789007,-1.135185 3.845893,-3.053229 1.076457,-1.918059 2.006125,-4.658133 2.789007,-8.22023 l 5.401866,-25.365283 h -5.724804 l 0.616518,-2.671575 h 5.666087 l 0.411012,-1.996342 c 0.469717,-2.270316 1.213451,-4.315586 2.231205,-6.1358145 1.01773,-1.8201553 2.172475,-3.3663399 3.46424,-4.6385587 1.272162,-1.2525638 2.710701,-2.2311617 4.315621,-2.9357966 1.624453,-0.724118 3.180423,-1.0861992 4.667917,-1.0862447 1.722307,4.55e-5 2.984699,0.3327688 3.787177,0.9981708 0.821994,0.6459191 1.233005,1.4679414 1.233035,2.4660692 -3e-5,0.8416362 -0.244679,1.5853706 -0.733949,2.2312054 -0.469756,0.6459144 -1.213491,0.9688517 -2.231206,0.9688129 -0.606757,3.88e-5 -1.1352,-0.1271789 -1.58533,-0.3816536 C 55.214121,7.17151 54.812896,6.8192148 54.460625,6.3885914 54.069161,5.8993328 53.75601,5.4393917 53.52117,5.008767 53.286283,4.5782256 52.992704,4.0987126 52.640431,3.5702267 c -1.350488,0.058759 -2.544377,0.949283 -3.581672,2.6715749 -1.037333,1.7223727 -1.976787,4.5896644 -2.818365,8.6018844 l -0.645875,3.111944 h 7.368849 l -0.616517,2.671575 h -7.310134"
               inkscape:connector-curvature="0" />
          </g>
          <path
             id="path3082"
             d="m 27.308164,21.327366 -5.167002,24.24968 c -0.919892,4.344976 -2.857516,7.897287 -5.812878,10.656942 -2.955369,2.759637 -5.998808,4.13946 -9.1303271,4.139473 -1.7223267,-1.3e-5 -2.984718,-0.332737 -3.7871776,-0.998171 -0.8220129,-0.645887 -1.233024,-1.467909 -1.2330346,-2.466069 1.06e-5,-0.841604 0.2544461,-1.585338 0.7633071,-2.231206 0.5088808,-0.645882 1.2428292,-0.968819 2.2018475,-0.968813 0.6067383,-6e-6 1.1449672,0.136998 1.6146881,0.411012 0.4501611,0.274001 0.8513862,0.61651 1.2036766,1.027529 0.2740123,0.332715 0.5871636,0.78287 0.9394549,1.350466 0.3327272,0.567578 0.6263066,1.056877 0.880739,1.467899 1.5070441,-0.117443 2.7890071,-1.135185 3.8458931,-3.053229 1.076457,-1.918059 2.006125,-4.658133 2.789007,-8.22023 l 5.401866,-25.365283 h -5.724803 l 0.616517,-2.671575 h 5.666087 l 0.411012,-1.996342 c 0.469717,-2.270316 1.213451,-4.315586 2.231205,-6.135815 1.01773,-1.8201548 2.172475,-3.3663395 3.46424,-4.6385582 1.272162,-1.2525638 2.710701,-2.2311617 4.315621,-2.9357966 1.624453,-0.724118 3.180423,-1.0861992 4.667917,-1.0862447 1.722307,4.55e-5 2.984699,0.3327687 3.787178,0.9981708 0.821993,0.6459191 1.233004,1.4679413 1.233034,2.4660692 -3e-5,0.8416362 -0.244679,1.5853706 -0.733949,2.2312054 -0.469756,0.6459144 -1.21349,0.9688517 -2.231205,0.9688129 C 38.91432,8.5273316 38.385877,8.4001139 37.935747,8.1456392 37.485567,7.871671 37.084342,7.5193758 36.732071,7.0887524 36.340608,6.5994937 36.027456,6.1395527 35.792616,5.708928 35.557729,5.2783866 35.26415,4.7988736 34.911877,4.2703877 33.56139,4.3291466 32.3675,5.2196707 31.330205,6.9419626 30.292873,8.6643353 29.353419,11.531627 28.51184,15.543847 l -0.645875,3.111944 h 7.368849 l -0.616517,2.671575 h -7.310133"
             inkscape:connector-curvature="0" />
          <path
             id="path3084"
             d="m 47.036717,21.327366 -5.167002,24.24968 c -0.919891,4.344976 -2.857515,7.897287 -5.812877,10.656942 -2.955369,2.759637 -5.998808,4.13946 -9.130327,4.139473 -1.722327,-1.3e-5 -2.984718,-0.332737 -3.787178,-0.998171 -0.822013,-0.645887 -1.233024,-1.467909 -1.233035,-2.466069 1.1e-5,-0.841604 0.254447,-1.585338 0.763308,-2.231206 0.50888,-0.645882 1.242829,-0.968819 2.201847,-0.968813 0.606738,-6e-6 1.144967,0.136998 1.614688,0.411012 0.450161,0.274001 0.851386,0.61651 1.203677,1.027529 0.274012,0.332715 0.587163,0.78287 0.939455,1.350466 0.332727,0.567578 0.626306,1.056877 0.880739,1.467899 1.507043,-0.117443 2.789007,-1.135185 3.845893,-3.053229 1.076457,-1.918059 2.006125,-4.658133 2.789007,-8.22023 l 5.401866,-25.365283 h -5.724804 l 0.616518,-2.671575 h 5.666087 l 0.411012,-1.996342 c 0.469717,-2.270316 1.213451,-4.315586 2.231205,-6.135815 1.01773,-1.8201548 2.172475,-3.3663395 3.46424,-4.6385582 1.272162,-1.2525638 2.710701,-2.2311617 4.315621,-2.9357966 1.624453,-0.724118 3.180423,-1.0861992 4.667917,-1.0862447 1.722307,4.55e-5 2.984699,0.3327687 3.787177,0.9981708 0.821994,0.6459191 1.233005,1.4679413 1.233035,2.4660692 -3e-5,0.8416362 -0.244679,1.5853706 -0.733949,2.2312054 -0.469756,0.6459144 -1.213491,0.9688517 -2.231206,0.9688129 -0.606757,3.88e-5 -1.1352,-0.1271789 -1.58533,-0.3816536 C 57.214121,7.871671 56.812896,7.5193758 56.460625,7.0887524 56.069161,6.5994937 55.75601,6.1395527 55.52117,5.708928 55.286283,5.2783866 54.992704,4.7988736 54.640431,4.2703877 c -1.350488,0.058759 -2.544377,0.949283 -3.581672,2.6715749 -1.037333,1.7223727 -1.976787,4.5896644 -2.818365,8.6018844 l -0.645875,3.111944 h 7.368849 l -0.616517,2.671575 h -7.310134"
             inkscape:connector-curvature="0" />
        </g>
        <g
           id="g986">
          <path
             inkscape:connector-curvature="0"
             style="opacity:0;fill:#000000;fill-opacity:1;stroke:none"
             d="m -11.527364,-20.414197 c -2.182681,0 -3.9375,1.754819 -3.9375,3.9375 v 12 c 0,-2.182681 1.754819,-3.9375 3.9375,-3.9375 h 83.75 c 2.182681,0 3.9375,1.754819 3.9375,3.9375 v -12 c 0,-2.182681 -1.754819,-3.9375 -3.9375,-3.9375 z"
             id="rect4080" />
          <path
             inkscape:connector-curvature="0"
             style="fill:#e4e8e8;fill-opacity:1;stroke:#738589;stroke-width:0.99243301;stroke-miterlimit:4;stroke-dasharray:none;stroke-opacity:1"
             d="m -11.229786,-20.105492 c -2.168501,0 -3.925898,1.761406 -3.925898,3.934855 v 3.965838 c 0,-2.173448 1.757397,-3.934854 3.925898,-3.934854 h 83.154841 c 2.168502,0 3.925898,1.761406 3.925898,3.934854 v -3.965838 c 0,-2.173449 -1.757396,-3.934855 -3.925898,-3.934855 z"
             id="path4058" />
          <path
             id="path4060"
             d="m -11.229786,-12.17466 c -2.168501,0 -3.925898,1.761407 -3.925898,3.934856 v 3.965839 c 0,-2.173449 1.757397,-3.934856 3.925898,-3.934856 h 83.154841 c 2.168502,0 3.925898,1.761407 3.925898,3.934856 v -3.965839 c 0,-2.173449 -1.757396,-3.934856 -3.925898,-3.934856 z"
             style="fill:#e4e8e8;fill-opacity:1;stroke:#738589;stroke-width:0.99243301;stroke-miterlimit:4;stroke-dasharray:none;stroke-opacity:1"
             inkscape:connector-curvature="0" />
          <path
             inkscape:connector-curvature="0"
             style="fill:#e4e8e8;fill-opacity:1;stroke:#738589;stroke-width:0.99243301;stroke-miterlimit:4;stroke-dasharray:none;stroke-opacity:1"
             d="m -11.229786,-16.140075 c -2.168501,0 -3.925898,1.761406 -3.925898,3.934854 v 3.965839 c 0,-2.173449 1.757397,-3.934855 3.925898,-3.934855 h 83.154841 c 2.168502,0 3.925898,1.761406 3.925898,3.934855 v -3.965839 c 0,-2.173448 -1.757396,-3.934854 -3.925898,-3.934854 z"
             id="path4062" />
          <path
             style="opacity:0.25818182;fill:url(#linearGradient4369);fill-opacity:1;stroke:none"
             d="m -11.246114,-19.914197 c -2.168522,0 -3.90625,1.74244 -3.90625,3.90625 v 13 c 0,-2.16381 2.087258,-4.784629 4.255776,-4.780063 l 83.012737,0.174762 c 2.168517,0.00457 3.731487,2.441491 3.731487,4.605301 v -13 c 0,-2.16381 -1.737728,-3.90625 -3.90625,-3.90625 z"
             id="rect4358"
             inkscape:connector-curvature="0"
             sodipodi:nodetypes="sscsscsss" />
        </g>
        <rect
           transform="matrix(1.1711596,0,0,1.2406759,-16.712266,17.251557)"
           style="display:inline;opacity:0.61699997;fill:url(#linearGradient4767-6);fill-opacity:1;stroke:none"
           id="rect4146"
           width="77.879356"
           height="71.9655"
           x="1.2266772"
           y="-29.408072"
           rx="3.9569874"
           ry="3.9569881"
           clip-path="url(#clipPath4156-4-1-2)" />
      </g>
    </g>
  </g>
</svg>
