<?xml version="1.0" encoding="UTF-8" standalone="no"?>
<!-- Created with Inkscape (http://www.inkscape.org/) -->

<svg
   xmlns:dc="http://purl.org/dc/elements/1.1/"
   xmlns:cc="http://creativecommons.org/ns#"
   xmlns:rdf="http://www.w3.org/1999/02/22-rdf-syntax-ns#"
   xmlns:svg="http://www.w3.org/2000/svg"
   xmlns="http://www.w3.org/2000/svg"
   xmlns:xlink="http://www.w3.org/1999/xlink"
   xmlns:sodipodi="http://sodipodi.sourceforge.net/DTD/sodipodi-0.dtd"
   xmlns:inkscape="http://www.inkscape.org/namespaces/inkscape"
   width="96"
   height="96"
   id="svg2"
   version="1.1"
   inkscape:version="0.48.5 r10040"
   sodipodi:docname="image-jpg.svg">
  <script
     xlink:href=""
     id="script2985" />
  <defs
     id="defs4">
    <linearGradient
       inkscape:collect="always"
       id="linearGradient4152">
      <stop
         style="stop-color:#ffffff;stop-opacity:1;"
         offset="0"
         id="stop4154" />
      <stop
         style="stop-color:#ffffff;stop-opacity:0;"
         offset="1"
         id="stop4156" />
    </linearGradient>
    <linearGradient
       inkscape:collect="always"
       id="linearGradient4142">
      <stop
         style="stop-color:#ffffff;stop-opacity:1;"
         offset="0"
         id="stop4144" />
      <stop
         style="stop-color:#ffffff;stop-opacity:0;"
         offset="1"
         id="stop4146" />
    </linearGradient>
    <linearGradient
       inkscape:collect="always"
       xlink:href="#linearGradient4160"
       id="linearGradient4369"
       x1="2.5"
       y1="11.140625"
       x2="93.5"
       y2="11.140625"
       gradientUnits="userSpaceOnUse"
       gradientTransform="translate(-17.652364,-22.601697)" />
    <linearGradient
       id="linearGradient4160">
      <stop
         id="stop4170"
         offset="0"
         style="stop-color:#000000;stop-opacity:0;" />
      <stop
         style="stop-color:#000000;stop-opacity:0.96470588;"
         offset="0.03175623"
         id="stop4186" />
      <stop
         style="stop-color:#000000;stop-opacity:0;"
         offset="0.09425623"
         id="stop4182" />
      <stop
         style="stop-color:#000000;stop-opacity:0;"
         offset="0.49595019"
         id="stop4180" />
      <stop
         style="stop-color:#000000;stop-opacity:0;"
         offset="0.90525883"
         id="stop4178" />
      <stop
         id="stop4184"
         offset="0.96241152"
         style="stop-color:#000000;stop-opacity:0.98823529;" />
      <stop
         id="stop4168"
         offset="1"
         style="stop-color:#000000;stop-opacity:0;" />
    </linearGradient>
    <radialGradient
       inkscape:collect="always"
       xlink:href="#linearGradient4348"
       id="radialGradient4354"
       cx="47.699135"
       cy="55.411221"
       fx="47.699135"
       fy="55.411221"
       r="41.470058"
       gradientTransform="matrix(1.0772109,0,0,0.06481785,-21.162394,64.974669)"
       gradientUnits="userSpaceOnUse" />
    <linearGradient
       inkscape:collect="always"
       id="linearGradient4348">
      <stop
         style="stop-color:#000000;stop-opacity:1;"
         offset="0"
         id="stop4350" />
      <stop
         style="stop-color:#000000;stop-opacity:0;"
         offset="1"
         id="stop4352" />
    </linearGradient>
    <linearGradient
       gradientTransform="matrix(1.0000468,0,0,0.991319,-17.353732,9.636111)"
       inkscape:collect="always"
       xlink:href="#linearGradient13484"
       id="linearGradient13490"
       x1="47.056839"
       y1="22.252237"
       x2="48.640831"
       y2="22.252237"
       gradientUnits="userSpaceOnUse" />
    <linearGradient
       id="linearGradient13484">
      <stop
         style="stop-color:#849699;stop-opacity:1"
         offset="0"
         id="stop13486" />
      <stop
         style="stop-color:#0b0d0d;stop-opacity:0"
         offset="1"
         id="stop13488" />
    </linearGradient>
    <linearGradient
       inkscape:collect="always"
       xlink:href="#linearGradient4160"
       id="linearGradient4388"
       x1="2.5"
       y1="54.296875"
       x2="93.5"
       y2="54.296875"
       gradientUnits="userSpaceOnUse"
       gradientTransform="translate(-17.652364,-22.601697)" />
    <linearGradient
       id="linearGradient3564">
      <stop
         id="stop3566"
         offset="0"
         style="stop-color:#000000;stop-opacity:0;" />
      <stop
         style="stop-color:#000000;stop-opacity:0.96470588;"
         offset="0.03175623"
         id="stop3568" />
      <stop
         style="stop-color:#000000;stop-opacity:0;"
         offset="0.09425623"
         id="stop3570" />
      <stop
         style="stop-color:#000000;stop-opacity:0;"
         offset="0.49595019"
         id="stop3572" />
      <stop
         style="stop-color:#000000;stop-opacity:0;"
         offset="0.90525883"
         id="stop3574" />
      <stop
         id="stop3576"
         offset="0.96241152"
         style="stop-color:#000000;stop-opacity:0.98823529;" />
      <stop
         id="stop3578"
         offset="1"
         style="stop-color:#000000;stop-opacity:0;" />
    </linearGradient>
    <radialGradient
       inkscape:collect="always"
       xlink:href="#linearGradient13492"
       id="radialGradient13510"
       cx="34.164101"
       cy="10.81943"
       fx="34.164101"
       fy="10.81943"
       r="17.263121"
       gradientTransform="matrix(0.00664983,-1.4155821,1.7836413,0.00815867,-2.7114916,65.575076)"
       gradientUnits="userSpaceOnUse" />
    <linearGradient
       inkscape:collect="always"
       id="linearGradient13492">
      <stop
         style="stop-color:#516467;stop-opacity:1;"
         offset="0"
         id="stop13494" />
      <stop
         style="stop-color:#516467;stop-opacity:0;"
         offset="1"
         id="stop13496" />
    </linearGradient>
    <linearGradient
       inkscape:collect="always"
       xlink:href="#linearGradient4135"
       id="linearGradient4334"
       gradientUnits="userSpaceOnUse"
       gradientTransform="matrix(0.98921206,0,0,0.98706256,-17.134546,-9.704219)"
       spreadMethod="reflect"
       x1="53.8978"
       y1="-69.456512"
       x2="27.952002"
       y2="23.167999" />
    <linearGradient
       id="linearGradient4135">
      <stop
         style="stop-color:#e3e9e9;stop-opacity:1;"
         offset="0"
         id="stop4137" />
      <stop
         style="stop-color:#eef2f2;stop-opacity:1;"
         offset="0.21971546"
         id="stop4139" />
      <stop
         style="stop-color:#f9fbfb;stop-opacity:1;"
         offset="0.47877571"
         id="stop4141" />
      <stop
         style="stop-color:#ffffff;stop-opacity:1;"
         offset="1"
         id="stop4143" />
    </linearGradient>
    <radialGradient
       inkscape:collect="always"
       xlink:href="#linearGradient4050"
       id="radialGradient4056"
       cx="48"
       cy="-16.128"
       fx="48"
       fy="-16.128"
       r="44.543999"
       gradientTransform="matrix(1,0,0,0.04885057,-16.372364,-3.861835)"
       gradientUnits="userSpaceOnUse" />
    <linearGradient
       inkscape:collect="always"
       id="linearGradient4050">
      <stop
         style="stop-color:#ffffff;stop-opacity:1;"
         offset="0"
         id="stop4052" />
      <stop
         style="stop-color:#ffffff;stop-opacity:0;"
         offset="1"
         id="stop4054" />
    </linearGradient>
    <radialGradient
       inkscape:collect="always"
       xlink:href="#linearGradient4050"
       id="radialGradient4543"
       gradientUnits="userSpaceOnUse"
       gradientTransform="matrix(1,0,0,0.04885057,-16.372364,-3.861835)"
       cx="48"
       cy="-16.128"
       fx="48"
       fy="-16.128"
       r="44.543999" />
    <linearGradient
       inkscape:collect="always"
       xlink:href="#linearGradient4135"
       id="linearGradient4545"
       gradientUnits="userSpaceOnUse"
       gradientTransform="matrix(0.98921206,0,0,0.98706256,-17.134546,-9.704219)"
       spreadMethod="reflect"
       x1="53.8978"
       y1="-69.456512"
       x2="27.952002"
       y2="23.167999" />
    <linearGradient
       inkscape:collect="always"
       xlink:href="#linearGradient4160"
       id="linearGradient4549"
       gradientUnits="userSpaceOnUse"
       gradientTransform="translate(-17.652364,-22.601697)"
       x1="2.5"
       y1="54.296875"
       x2="93.5"
       y2="54.296875" />
    <radialGradient
       inkscape:collect="always"
       xlink:href="#linearGradient4348"
       id="radialGradient4553"
       gradientUnits="userSpaceOnUse"
       gradientTransform="matrix(1.0941586,0,0,0.06338579,-21.267962,65.113409)"
       cx="47.699135"
       cy="55.411221"
       fx="47.699135"
       fy="55.411221"
       r="41.470058" />
    <linearGradient
       inkscape:collect="always"
       xlink:href="#linearGradient4160"
       id="linearGradient4555"
       gradientUnits="userSpaceOnUse"
       gradientTransform="translate(-17.652364,-22.601697)"
       x1="2.5"
       y1="11.140625"
       x2="93.5"
       y2="11.140625" />
    <linearGradient
       x1="65.262688"
       y1="86.849419"
       x2="65.599998"
       y2="42.399998"
       id="linearGradient3849"
       xlink:href="#linearGradient3746"
       gradientUnits="userSpaceOnUse"
       gradientTransform="matrix(0.83333333,0,0,0.83333333,-8.6666651,-5.3333307)" />
    <linearGradient
       id="linearGradient3746">
      <stop
         id="stop3748"
         style="stop-color:#000000;stop-opacity:1"
         offset="0" />
      <stop
         id="stop3754"
         style="stop-color:#000000;stop-opacity:0"
         offset="1" />
    </linearGradient>
    <linearGradient
       x1="65.262688"
       y1="86.849419"
       x2="65.599998"
       y2="42.399998"
       id="linearGradient3864"
       xlink:href="#linearGradient3746"
       gradientUnits="userSpaceOnUse"
       gradientTransform="matrix(0.83333333,0,0,0.83333333,-8.6666651,-5.3333307)" />
    <linearGradient
       id="linearGradient3337">
      <stop
         id="stop3339"
         style="stop-color:#000000;stop-opacity:1"
         offset="0" />
      <stop
         id="stop3341"
         style="stop-color:#000000;stop-opacity:0"
         offset="1" />
    </linearGradient>
    <linearGradient
       x1="65.262688"
       y1="86.849419"
       x2="65.262688"
       y2="43.591393"
       id="linearGradient3861"
       xlink:href="#linearGradient3746"
       gradientUnits="userSpaceOnUse"
       gradientTransform="matrix(0.83333333,0,0,0.83333333,-8.6666651,-5.3333307)" />
    <linearGradient
       id="linearGradient3344">
      <stop
         id="stop3346"
         style="stop-color:#000000;stop-opacity:1"
         offset="0" />
      <stop
         id="stop3348"
         style="stop-color:#000000;stop-opacity:0"
         offset="1" />
    </linearGradient>
    <linearGradient
       x1="65.262688"
       y1="64.205269"
       x2="65.262688"
       y2="43.780487"
       id="linearGradient3858"
       xlink:href="#linearGradient3737-2"
       gradientUnits="userSpaceOnUse"
       gradientTransform="matrix(0.83333333,0,0,0.83333333,-8.6666651,-6.3333307)" />
    <linearGradient
       id="linearGradient3737-2">
      <stop
         id="stop3739-5"
         style="stop-color:#ffffff;stop-opacity:1"
         offset="0" />
      <stop
         id="stop3741-1"
         style="stop-color:#ffffff;stop-opacity:0"
         offset="1" />
    </linearGradient>
    <linearGradient
       x1="51.42857"
       y1="72.785713"
       x2="90.714287"
       y2="72.785713"
       id="linearGradient3188-6"
       xlink:href="#linearGradient3778"
       gradientUnits="userSpaceOnUse" />
    <linearGradient
       id="linearGradient3778">
      <stop
         id="stop3780"
         style="stop-color:#205e8a;stop-opacity:1;"
         offset="0" />
      <stop
         id="stop3782"
         style="stop-color:#258dd6;stop-opacity:1;"
         offset="1" />
    </linearGradient>
    <clipPath
       id="clipPath3794">
      <path
         d="m -98,6 c -3.324,0 -6,2.676 -6,6 l 0,72 c 0,3.324 2.676,6 6,6 l 72,0 c 3.324,0 6,-2.676 6,-6 l 0,-72 c 0,-3.324 -2.676,-6 -6,-6 l -72,0 z m 46.03125,12.5 c 2.804915,0.267979 4.168695,1.994294 5.65625,4.375 l 2.21875,4.21875 3.5,-2.34375 -6.5625,12.375 -14.0625,0.03125 4.40625,-2.5625 c -1.242015,-3.116045 -2.893578,-6.682146 -4.96875,-9.78125 -1.857877,-2.774583 -4.111923,-5.19971 -5.8125,-6.28125 L -51.96875,18.5 z M -72.3125,20 c 4.13398,0.08768 6.75215,3.937752 8.53125,6.5625 l -5.4375,11.15625 -12,-8.03125 5.8125,-9.09375 C -74.283247,20.148648 -73.266495,19.97977 -72.3125,20 z M -38.34375,36.15625 -32.875,48 c 0.177104,2.984596 -4.345754,7.126059 -7.15625,7.09375 l -4.8125,-0.03125 -5.59375,-11.125 12.09375,-7.78125 z M -78.4375,39.1875 -70.96875,50.8125 -74.75,48.84375 -80.78125,61.75 c -0.850549,2.429145 -0.908893,4.937462 0.0625,7.28125 -6.79777,-9.441049 -12.538331,-14.172415 -8,-23.875 L -87.3125,42.1875 -91.5,39.90625 -78.4375,39.1875 z m 25.65625,13.90625 0.03125,4.46875 13.5625,-0.03125 c 2.422356,-0.273241 4.555757,-1.310685 6.09375,-3.28125 -4.908571,10.685489 -6.315635,18.2454 -16.5,18.25 l -3.15625,0 -0.03125,5 -6.4375,-12.125 6.4375,-12.28125 z m -10.15625,4 -0.09375,15 -12.34375,0 c -2.589165,-1.162418 -4.061887,-7.337428 -2.78125,-10 l 2.1875,-4.53125 13.03125,-0.46875 z"
         inkscape:connector-curvature="0"
         id="path3796"
         style="fill:#ff00ff;fill-opacity:1;fill-rule:nonzero;stroke:none" />
    </clipPath>
    <filter
       color-interpolation-filters="sRGB"
       id="filter3798">
      <feGaussianBlur
         id="feGaussianBlur3800"
         stdDeviation="1.7644507" />
    </filter>
    <linearGradient
       x1="62.136082"
       y1="103.95654"
       x2="62.136082"
       y2="24.043467"
       id="linearGradient3759"
       xlink:href="#linearGradient4360"
       gradientUnits="userSpaceOnUse"
       gradientTransform="matrix(0.7525584,0,0,0.8008702,1.2389688,-3.2556953)" />
    <linearGradient
       id="linearGradient4360">
      <stop
         id="stop4362"
         style="stop-color:#0092f9;stop-opacity:1;"
         offset="0" />
      <stop
         offset="0.5"
         style="stop-color:#78f1ff;stop-opacity:1;"
         id="stop4135" />
      <stop
         id="stop4364"
         style="stop-color:#007e04;stop-opacity:1;"
         offset="1" />
    </linearGradient>
    <radialGradient
       inkscape:collect="always"
       xlink:href="#linearGradient4360"
       id="radialGradient4137"
       cx="47.815025"
       cy="48"
       fx="47.815025"
       fy="48"
       r="29.315023"
       gradientTransform="matrix(1,0,0,1.0063099,0,-0.30287626)"
       gradientUnits="userSpaceOnUse" />
    <linearGradient
       inkscape:collect="always"
       xlink:href="#linearGradient4360"
       id="linearGradient4116"
       x1="23.576078"
       y1="-1.2683213"
       x2="22.910723"
       y2="54.605522"
       gradientUnits="userSpaceOnUse" />
    <radialGradient
       inkscape:collect="always"
       xlink:href="#linearGradient4142"
       id="radialGradient4148"
       cx="11.699564"
       cy="83.136368"
       fx="11.699564"
       fy="83.136368"
       r="14.308982"
       gradientTransform="matrix(0.99952829,0.03324668,-0.02862945,1.0086909,2.3856674,-1.4951529)"
       gradientUnits="userSpaceOnUse" />
    <radialGradient
       inkscape:collect="always"
       xlink:href="#linearGradient4152"
       id="radialGradient4158"
       cx="11.904393"
       cy="80.202718"
       fx="11.904393"
       fy="80.202718"
       r="14.308982"
       gradientTransform="matrix(1,0,0,0.86922284,0,10.488684)"
       gradientUnits="userSpaceOnUse" />
    <radialGradient
       inkscape:collect="always"
       xlink:href="#linearGradient4348"
       id="radialGradient4201"
       gradientUnits="userSpaceOnUse"
       gradientTransform="matrix(1.0941586,0,0,0.06338579,-21.267962,65.113409)"
       cx="47.699135"
       cy="55.411221"
       fx="47.699135"
       fy="55.411221"
       r="41.470058" />
    <linearGradient
       inkscape:collect="always"
       xlink:href="#linearGradient4360-3"
       id="linearGradient3370-9"
       gradientUnits="userSpaceOnUse"
       x1="23.576078"
       y1="-1.2683213"
       x2="22.910723"
       y2="54.605522" />
    <linearGradient
       id="linearGradient4360-3">
      <stop
         id="stop4362-0"
         style="stop-color:#2567a5;stop-opacity:1;"
         offset="0" />
      <stop
         offset="0.5"
         style="stop-color:#42b5c3;stop-opacity:1;"
         id="stop4135-2" />
      <stop
         id="stop4364-2"
         style="stop-color:#1e6020;stop-opacity:1;"
         offset="1" />
    </linearGradient>
    <filter
       color-interpolation-filters="sRGB"
       inkscape:collect="always"
       id="filter4136-7"
       x="-0.46463007"
       width="1.9292603"
       y="-0.46463007"
       height="1.9292603">
      <feGaussianBlur
         inkscape:collect="always"
         stdDeviation="2.1559548"
         id="feGaussianBlur4138-4" />
    </filter>
    <radialGradient
       inkscape:collect="always"
       xlink:href="#linearGradient4142-1"
       id="radialGradient3372-2"
       gradientUnits="userSpaceOnUse"
       gradientTransform="matrix(0.99952829,0.03324668,-0.02862945,1.0086909,2.3856674,-1.4951529)"
       cx="11.699564"
       cy="83.136368"
       fx="11.699564"
       fy="83.136368"
       r="14.308982" />
    <linearGradient
       inkscape:collect="always"
       id="linearGradient4142-1">
      <stop
         style="stop-color:#ffffff;stop-opacity:1;"
         offset="0"
         id="stop4144-4" />
      <stop
         style="stop-color:#ffffff;stop-opacity:0;"
         offset="1"
         id="stop4146-4" />
    </linearGradient>
    <radialGradient
       inkscape:collect="always"
       xlink:href="#linearGradient4152-4"
       id="radialGradient3374-8"
       gradientUnits="userSpaceOnUse"
       gradientTransform="matrix(1,0,0,0.86922284,0,10.488684)"
       cx="11.904393"
       cy="80.202721"
       fx="11.904393"
       fy="80.202721"
       r="14.308982" />
    <linearGradient
       inkscape:collect="always"
       id="linearGradient4152-4">
      <stop
         style="stop-color:#ffffff;stop-opacity:1;"
         offset="0"
         id="stop4154-1" />
      <stop
         style="stop-color:#ffffff;stop-opacity:0;"
         offset="1"
         id="stop4156-5" />
    </linearGradient>
    <radialGradient
       r="14.308982"
       fy="80.202721"
       fx="11.904393"
       cy="80.202721"
       cx="11.904393"
       gradientTransform="matrix(1,0,0,0.86922284,0,10.488684)"
       gradientUnits="userSpaceOnUse"
       id="radialGradient3411"
       xlink:href="#linearGradient4152-4"
       inkscape:collect="always" />
  </defs>
  <sodipodi:namedview
     id="base"
     pagecolor="#ffffff"
     bordercolor="#666666"
     borderopacity="1.0"
     inkscape:pageopacity="0.0"
     inkscape:pageshadow="2"
     inkscape:zoom="3.9775196"
     inkscape:cx="13.853775"
     inkscape:cy="38.320031"
     inkscape:current-layer="g4327"
     showgrid="true"
     inkscape:document-units="px"
     inkscape:grid-bbox="true"
     inkscape:showpageshadow="false"
     gridtolerance="1"
     guidetolerance="1"
     objecttolerance="1"
     inkscape:window-width="1280"
     inkscape:window-height="966"
     inkscape:window-x="0"
     inkscape:window-y="0"
     inkscape:window-maximized="1"
     showguides="true"
     inkscape:guide-bbox="true">
    <sodipodi:guide
       orientation="0,1"
       position="-57.781652,64.840949"
       id="guide4181" />
  </sodipodi:namedview>
  <metadata
     id="metadata7">
    <rdf:RDF>
      <cc:Work
         rdf:about="">
        <dc:format>image/svg+xml</dc:format>
        <dc:type
           rdf:resource="http://purl.org/dc/dcmitype/StillImage" />
        <dc:title></dc:title>
      </cc:Work>
    </rdf:RDF>
  </metadata>
  <g
     id="layer1"
     inkscape:label="Layer 1"
     inkscape:groupmode="layer"
     transform="translate(0,32)">
    <g
       id="g4327"
       transform="translate(17.652363,-9.3983002)">
      <rect
         transform="scale(1,-1)"
         ry="4.1290321"
         rx="4.1290321"
         y="-73.3983"
         x="-17.652363"
         height="96"
         width="96"
         id="rect4113"
         style="opacity:0.15;fill:#000000;fill-opacity:1;stroke:none" />
      <rect
         transform="scale(1,-1)"
         style="opacity:0.15;fill:#000000;fill-opacity:1;stroke:none"
         id="rect4129"
         width="94.5"
         height="94.5"
         x="-16.902363"
         y="-72.6483"
         rx="4.0645151"
         ry="4.0645151" />
      <rect
         transform="scale(1,-1)"
         ry="3.999999"
         rx="3.9999986"
         y="-71.8983"
         x="-16.152363"
         height="93"
         width="93"
         id="rect4131"
         style="opacity:0.15;fill:#000000;fill-opacity:1;stroke:none" />
      <rect
         ry="3.0576727"
         rx="3.9569874"
         y="-6.8256979"
         x="-12.916362"
         height="4.3519998"
         width="89.087997"
         id="rect4048"
         style="opacity:0.65090906;fill:url(#radialGradient4543);fill-opacity:1;stroke:none" />
      <path
         id="rect4080"
         d="m -11.527364,-20.414197 c -2.182681,0 -3.9375,1.754819 -3.9375,3.9375 l 0,12 c 0,-2.182681 1.754819,-3.9375 3.9375,-3.9375 l 83.75,0 c 2.182681,0 3.9375,1.754819 3.9375,3.9375 l 0,-12 c 0,-2.182681 -1.754819,-3.9375 -3.9375,-3.9375 l -83.75,0 z"
         style="opacity:0;fill:#000000;fill-opacity:1;stroke:none"
         inkscape:connector-curvature="0" />
      <rect
         ry="3.9057946"
         rx="3.9142997"
         y="-70.902092"
         x="-15.156122"
         height="90.809761"
         width="91.007515"
         id="rect4133"
         style="fill:url(#linearGradient4545);fill-opacity:1;stroke:#738589;stroke-width:0.99243301;stroke-miterlimit:4;stroke-opacity:1;stroke-dasharray:none"
         transform="scale(1,-1)" />
      <g
         id="g3359"
         transform="matrix(0.9753063,0,0,0.91189475,0.06196646,0.3141562)"
         style="opacity:0.86545455">
        <g
           id="g4104"
           transform="matrix(1.0157329,0,0,0.97790633,4.3229467,8.5215449)"
           style="stroke:#525252;stroke-width:0.69999999000000002;stroke-miterlimit:4;stroke-opacity:1;stroke-dasharray:none">
          <rect
             y="-5.0244074"
             x="-12.909661"
             height="62.425987"
             width="78.450333"
             id="rect3332"
             style="fill:#dbe3e2;fill-opacity:1;stroke:#525252;stroke-width:0.69999999000000002;stroke-linecap:round;stroke-linejoin:round;stroke-miterlimit:4;stroke-opacity:1;stroke-dasharray:none;stroke-dashoffset:0" />
          <rect
             style="fill:url(#linearGradient3370-9);fill-opacity:1;stroke:#525252;stroke-width:0.69999999000000002;stroke-linecap:round;stroke-linejoin:round;stroke-miterlimit:4;stroke-opacity:1;stroke-dasharray:none;stroke-dashoffset:0"
             id="rect4102"
             width="74.092117"
             height="58.025333"
             x="-10.730556"
             y="-2.8240807" />
        </g>
        <path
           sodipodi:type="star"
           style="fill:#dbe3e2;fill-opacity:1;stroke:#a1d3ea;stroke-width:0.27914038000000002;stroke-linecap:round;stroke-linejoin:round;stroke-miterlimit:4;stroke-opacity:1;stroke-dasharray:none;stroke-dashoffset:0"
           id="path4108"
           sodipodi:sides="3"
           sodipodi:cx="11.904393"
           sodipodi:cy="84.287613"
           sodipodi:r1="16.522589"
           sodipodi:r2="8.3527985"
           sodipodi:arg1="-1.5707963"
           sodipodi:arg2="-0.52359878"
           inkscape:flatsided="false"
           inkscape:rounded="0"
           inkscape:randomized="0"
           d="m 11.904394,67.765024 7.233735,12.34619 7.075246,12.437694 -14.308982,0.0915 -14.3089816,-0.0915 7.0752461,-12.437693 z"
           transform="matrix(1.2689468,0,0,0.97790633,-3.246905,-27.248162)"
           inkscape:transform-center-y="-3.9946456" />
        <path
           inkscape:transform-center-y="-6.918032"
           transform="matrix(1.904291,0,0,1.6935653,18.628572,-93.676766)"
           d="m 11.904394,67.765024 7.233735,12.34619 7.075246,12.437694 -14.308982,0.0915 -14.3089816,-0.0915 7.0752461,-12.437693 z"
           inkscape:randomized="0"
           inkscape:rounded="0"
           inkscape:flatsided="false"
           sodipodi:arg2="-0.52359878"
           sodipodi:arg1="-1.5707963"
           sodipodi:r2="8.3527985"
           sodipodi:r1="16.522589"
           sodipodi:cy="84.287613"
           sodipodi:cx="11.904393"
           sodipodi:sides="3"
           id="path4118"
           style="fill:#dbe3e2;fill-opacity:1;stroke:#bee9f1;stroke-width:0.33298295999999999;stroke-linecap:round;stroke-linejoin:round;stroke-miterlimit:4;stroke-opacity:1;stroke-dasharray:none;stroke-dashoffset:0"
           sodipodi:type="star" />
        <path
           sodipodi:type="arc"
           style="fill:#fffc33;fill-opacity:1;stroke:#ffc903;stroke-width:1;stroke-linecap:round;stroke-linejoin:round;stroke-miterlimit:4;stroke-opacity:1;stroke-dasharray:none;stroke-dashoffset:0;filter:url(#filter4136-7)"
           id="path4120"
           sodipodi:cx="24.960825"
           sodipodi:cy="43.774277"
           sodipodi:rx="5.5681839"
           sodipodi:ry="5.5681839"
           d="m 30.529009,43.774277 c 0,3.075223 -2.492961,5.568184 -5.568184,5.568184 -3.075223,0 -5.568184,-2.492961 -5.568184,-5.568184 0,-3.075223 2.492961,-5.568184 5.568184,-5.568184 3.075223,0 5.568184,2.492961 5.568184,5.568184 z"
           transform="matrix(0.80828644,0,0,0.74446441,-13.79235,-14.909549)" />
        <path
           transform="matrix(0.80828644,0,0,0.74446441,-13.79235,-14.909549)"
           d="m 30.529009,43.774277 c 0,3.075223 -2.492961,5.568184 -5.568184,5.568184 -3.075223,0 -5.568184,-2.492961 -5.568184,-5.568184 0,-3.075223 2.492961,-5.568184 5.568184,-5.568184 3.075223,0 5.568184,2.492961 5.568184,5.568184 z"
           sodipodi:ry="5.5681839"
           sodipodi:rx="5.5681839"
           sodipodi:cy="43.774277"
           sodipodi:cx="24.960825"
           id="path4122"
           style="opacity:0.40363638000000002;fill:#fffc33;fill-opacity:1;stroke:#ffc903;stroke-width:1;stroke-linecap:round;stroke-linejoin:round;stroke-miterlimit:4;stroke-opacity:1;stroke-dasharray:none;stroke-dashoffset:0"
           sodipodi:type="arc" />
        <path
           sodipodi:type="star"
           style="opacity:0.73090909999999998;fill:url(#radialGradient3372-2);fill-opacity:1;stroke:none"
           id="path4140"
           sodipodi:sides="3"
           sodipodi:cx="11.904393"
           sodipodi:cy="84.287613"
           sodipodi:r1="16.522589"
           sodipodi:r2="8.3527985"
           sodipodi:arg1="-1.5707963"
           sodipodi:arg2="-0.52359878"
           inkscape:flatsided="false"
           inkscape:rounded="0"
           inkscape:randomized="0"
           d="m 11.904394,67.765024 7.233735,12.34619 7.075246,12.437694 -14.308982,0.0915 -14.3089816,-0.0915 7.0752461,-12.437693 z"
           transform="matrix(1.904291,0,0,1.6935653,18.628572,-93.676766)"
           inkscape:transform-center-y="-6.918032" />
        <path
           inkscape:transform-center-y="-3.9946456"
           transform="matrix(1.2689468,0,0,0.97790633,-3.246905,-27.248162)"
           d="m 11.904394,67.765024 7.233735,12.34619 7.075246,12.437694 -14.308982,0.0915 -14.3089816,-0.0915 7.0752461,-12.437693 z"
           inkscape:randomized="0"
           inkscape:rounded="0"
           inkscape:flatsided="false"
           sodipodi:arg2="-0.52359878"
           sodipodi:arg1="-1.5707963"
           sodipodi:r2="8.3527985"
           sodipodi:r1="16.522589"
           sodipodi:cy="84.287613"
           sodipodi:cx="11.904393"
           sodipodi:sides="3"
           id="path4150"
           style="opacity:0.66909090000000004;fill:url(#radialGradient3411);fill-opacity:1;stroke:none"
           sodipodi:type="star" />
      </g>
      <path
         id="path4058"
         d="m -11.229786,-20.105492 c -2.168501,0 -3.925898,1.761406 -3.925898,3.934855 l 0,3.965838 c 0,-2.173448 1.757397,-3.934854 3.925898,-3.934854 l 83.154841,0 c 2.168502,0 3.925898,1.761406 3.925898,3.934854 l 0,-3.965838 c 0,-2.173449 -1.757396,-3.934855 -3.925898,-3.934855 l -83.154841,0 z"
         style="fill:#e4e8e8;fill-opacity:1;stroke:#738589;stroke-width:0.99243301;stroke-miterlimit:4;stroke-opacity:1;stroke-dasharray:none"
         inkscape:connector-curvature="0" />
      <path
         inkscape:connector-curvature="0"
         style="fill:#e4e8e8;fill-opacity:1;stroke:#738589;stroke-width:0.99243301;stroke-miterlimit:4;stroke-opacity:1;stroke-dasharray:none"
         d="m -11.229786,-12.17466 c -2.168501,0 -3.925898,1.761407 -3.925898,3.934856 l 0,3.965839 c 0,-2.173449 1.757397,-3.934856 3.925898,-3.934856 l 83.154841,0 c 2.168502,0 3.925898,1.761407 3.925898,3.934856 l 0,-3.965839 c 0,-2.173449 -1.757396,-3.934856 -3.925898,-3.934856 l -83.154841,0 z"
         id="path4060" />
      <path
         id="path4062"
         d="m -11.229786,-16.140075 c -2.168501,0 -3.925898,1.761406 -3.925898,3.934854 l 0,3.965839 c 0,-2.173449 1.757397,-3.934855 3.925898,-3.934855 l 83.154841,0 c 2.168502,0 3.925898,1.761406 3.925898,3.934855 l 0,-3.965839 c 0,-2.173448 -1.757396,-3.934854 -3.925898,-3.934854 l -83.154841,0 z"
         style="fill:#e4e8e8;fill-opacity:1;stroke:#738589;stroke-width:0.99243301;stroke-miterlimit:4;stroke-opacity:1;stroke-dasharray:none"
         inkscape:connector-curvature="0" />
      <path
         id="rect4371"
         d="m -11.246114,-7.507947 c -2.168522,0 -3.90625,1.74244 -3.90625,3.90625 l 0,70.59375 c 0,2.16381 1.737728,3.90625 3.90625,3.90625 l 83.1875,0 c 2.168522,0 3.90625,-1.74244 3.90625,-3.90625 l 0,-70.59375 c 0,-2.16381 -1.737728,-3.90625 -3.90625,-3.90625 l -83.1875,0 z"
         style="opacity:0.27999998;fill:url(#linearGradient4549);fill-opacity:1;stroke:none"
         inkscape:connector-curvature="0" />
      <path
         sodipodi:nodetypes="sscsscsss"
         inkscape:connector-curvature="0"
         id="rect4358"
         d="m -11.246114,-19.914197 c -2.168522,0 -3.90625,1.74244 -3.90625,3.90625 l 0,13 c 0,-2.16381 2.087258,-4.784629 4.255776,-4.780063 l 83.012737,0.174762 c 2.168517,0.00457 3.731487,2.441491 3.731487,4.605301 l 0,-13 c 0,-2.16381 -1.737728,-3.90625 -3.90625,-3.90625 z"
         style="opacity:0.25818182;fill:url(#linearGradient4555);fill-opacity:1;stroke:none" />
      <g
         id="g4189"
         transform="matrix(1,0,0,0.93461016,-0.57481593,5.7593057)">
        <rect
           style="opacity:0.6;fill:url(#radialGradient4201);fill-opacity:1;stroke:none"
           id="rect4338"
           width="90.749634"
           height="5.2572246"
           x="-14.452364"
           y="65.997078" />
      </g>
      <g
         style="font-size:21.97517586px;font-style:normal;font-variant:normal;font-weight:bold;font-stretch:normal;line-height:125%;letter-spacing:0px;word-spacing:0px;fill:#2e3436;fill-opacity:1;stroke:none;font-family:AvantGarde LT Medium;-inkscape-font-specification:AvantGarde LT Medium"
         id="text4238">
        <path
           d="m 32.099851,43.10105 c -1.2e-5,-0.542048 -0.102563,-1.069451 -0.307653,-1.582212 -0.205113,-0.527397 -0.49079,-0.9962 -0.857031,-1.406412 -0.366264,-0.410194 -0.805767,-0.739821 -1.318511,-0.988883 -0.512763,-0.249041 -1.076792,-0.373567 -1.692089,-0.373578 -0.600662,1.1e-5 -1.15004,0.124537 -1.648138,0.373578 -0.498109,0.234412 -0.930287,0.549389 -1.296535,0.944933 -0.351607,0.395562 -0.629959,0.85704 -0.835057,1.384436 -0.190455,0.512761 -0.285681,1.04749 -0.285677,1.604188 -4e-6,0.61531 0.102547,1.186664 0.307652,1.714064 0.219748,0.527408 0.51275,0.988886 0.879007,1.384436 0.380898,0.380905 0.820401,0.681232 1.318511,0.900982 0.512747,0.219753 1.054801,0.329629 1.626163,0.329627 0.542046,2e-6 1.0548,-0.102548 1.538262,-0.307652 0.498094,-0.205099 0.937597,-0.490776 1.318511,-0.857032 0.380892,-0.3809 0.681219,-0.835053 0.900982,-1.362461 0.23439,-0.527399 0.351591,-1.113403 0.351603,-1.758014 m -10.482159,-6.109099 2.087642,0 0,1.86789 0.04395,0 c 0.5567,-0.791095 1.215955,-1.355124 1.977766,-1.692088 0.77645,-0.336941 1.56023,-0.505417 2.351344,-0.505429 1.025499,1.2e-5 1.933805,0.190464 2.724922,0.571354 0.791094,0.380915 1.450349,0.879018 1.977765,1.494312 0.527391,0.615315 0.922944,1.31852 1.18666,2.109617 0.278338,0.791114 0.417514,1.589545 0.417528,2.395294 -1.4e-5,0.776462 -0.13919,1.538267 -0.417528,2.285419 -0.278366,0.732508 -0.681244,1.399088 -1.208635,1.999741 -0.527416,0.586005 -1.172021,1.062134 -1.933815,1.428386 -0.761816,0.351603 -1.626172,0.527404 -2.593071,0.527404 -0.644613,0 -1.208642,-0.07325 -1.692089,-0.219752 -0.468809,-0.146501 -0.879012,-0.322302 -1.230609,-0.527404 -0.351608,-0.205101 -0.637285,-0.424852 -0.857032,-0.659255 -0.219756,-0.249051 -0.388232,-0.468802 -0.505429,-0.659255 l -0.04395,0 0,5.823421 -2.285418,0 0,-16.239655"
           style=""
           id="path4572" />
        <path
           d="m 45.187098,49.166199 0,-6.614528 c -10e-6,-0.234395 -0.01466,-0.564023 -0.04395,-0.988883 -0.02931,-0.424845 -0.139186,-0.842373 -0.329628,-1.252585 -0.190461,-0.424844 -0.490788,-0.791097 -0.900982,-1.098759 -0.410212,-0.307642 -0.996216,-0.461468 -1.758014,-0.461479 -0.966914,1.1e-5 -1.743369,0.322313 -2.329369,0.966908 -0.586009,0.644614 -0.879011,1.582221 -0.879007,2.812823 l 0,6.636503 -2.285418,0 0,-12.174248 2.131592,0 0,1.296536 0.04395,0 c 0.307649,-0.410192 0.644601,-0.72517 1.010858,-0.944933 0.366248,-0.21974 0.717851,-0.380891 1.054809,-0.483454 0.336946,-0.102538 0.637273,-0.161139 0.900982,-0.175801 0.278345,-0.01464 0.476122,-0.02196 0.59333,-0.02198 0.952249,1.2e-5 1.79463,0.190464 2.527145,0.571354 0.747145,0.380915 1.340475,0.915644 1.779989,1.604188 0.24904,0.395563 0.432167,0.842391 0.54938,1.340486 0.131838,0.498112 0.205089,1.091441 0.219751,1.779989 l 0,7.207858 -2.285418,0"
           style=""
           id="path4574" />
        <path
           d="m 60.482849,43.10105 c -1.1e-5,-0.8497 -0.153837,-1.552905 -0.461478,-2.109617 -0.307664,-0.571346 -0.688566,-1.018174 -1.142709,-1.340485 -0.439513,-0.336943 -0.900992,-0.571345 -1.384436,-0.703206 -0.483462,-0.131841 -0.90099,-0.197766 -1.252586,-0.197777 -0.600661,1.1e-5 -1.16469,0.117212 -1.692088,0.351603 -0.512759,0.234412 -0.959587,0.549389 -1.340486,0.944933 -0.366257,0.395562 -0.659259,0.85704 -0.879007,1.384436 -0.205105,0.527411 -0.307655,1.07679 -0.307652,1.648138 -3e-6,0.55671 0.102547,1.091439 0.307652,1.604188 0.205098,0.512758 0.490775,0.974236 0.857032,1.384436 0.380898,0.395556 0.827727,0.717858 1.340486,0.966908 0.512748,0.234403 1.076777,0.351604 1.692088,0.351602 0.747148,2e-6 1.384428,-0.146499 1.911841,-0.439503 0.542044,-0.30765 0.988872,-0.681228 1.340485,-1.120734 0.351592,-0.4395 0.607969,-0.900978 0.769132,-1.384436 0.161139,-0.498099 0.241715,-0.944927 0.241726,-1.340486 m 2.285419,4.417011 c -1.4e-5,0.996208 -0.15384,1.889864 -0.461479,2.680971 -0.293015,0.805755 -0.725193,1.486984 -1.296535,2.043691 -0.556716,0.556701 -1.245271,0.981554 -2.065667,1.274561 -0.805766,0.292997 -1.728722,0.439498 -2.768872,0.439503 -1.421067,-5e-6 -2.651676,-0.351607 -3.69183,-1.054808 -1.02551,-0.703209 -1.794641,-1.633491 -2.307393,-2.790848 l 2.54912,0 c 0.0879,0.1172 0.212423,0.271026 0.373578,0.461479 0.175797,0.2051 0.402874,0.402876 0.681231,0.59333 0.278347,0.190449 0.615299,0.3516 1.010858,0.483454 0.395547,0.146498 0.86435,0.219749 1.406411,0.219751 0.600647,-2e-6 1.157351,-0.08058 1.670114,-0.241727 0.527394,-0.146503 0.981547,-0.395555 1.36246,-0.747156 0.395543,-0.336954 0.703195,-0.776457 0.922958,-1.31851 0.21974,-0.542054 0.329616,-1.208634 0.329627,-1.999741 l -0.04395,0 c -0.102562,0.146503 -0.263713,0.329629 -0.483454,0.549379 -0.205112,0.205103 -0.476139,0.410204 -0.813081,0.615305 -0.336963,0.205102 -0.747166,0.380903 -1.23061,0.527404 -0.468812,0.146501 -1.025516,0.219752 -1.670114,0.219752 -1.010864,0 -1.91917,-0.197777 -2.724921,-0.59333 -0.79111,-0.395552 -1.47234,-0.900981 -2.043692,-1.516287 -0.556706,-0.615302 -0.988884,-1.303857 -1.296535,-2.065666 -0.293003,-0.761802 -0.439504,-1.516282 -0.439504,-2.263443 0,-0.673899 0.131851,-1.384429 0.395554,-2.131592 0.27835,-0.747147 0.688553,-1.435702 1.230609,-2.065667 0.542052,-0.629944 1.223282,-1.150023 2.043692,-1.560237 0.820401,-0.410191 1.779983,-0.615293 2.878748,-0.615305 0.908299,1.2e-5 1.728705,0.175813 2.46122,0.527404 0.747145,0.336964 1.325824,0.739842 1.736038,1.208635 l 0,-1.406412 2.285419,0 0,10.52611"
           style=""
           id="path4576" />
      </g>
    </g>
  </g>
</svg>
