<?xml version="1.0" encoding="UTF-8" standalone="no"?>
<!-- Created with Inkscape (http://www.inkscape.org/) -->

<svg
   xmlns:dc="http://purl.org/dc/elements/1.1/"
   xmlns:cc="http://creativecommons.org/ns#"
   xmlns:rdf="http://www.w3.org/1999/02/22-rdf-syntax-ns#"
   xmlns:svg="http://www.w3.org/2000/svg"
   xmlns="http://www.w3.org/2000/svg"
   xmlns:xlink="http://www.w3.org/1999/xlink"
   xmlns:sodipodi="http://sodipodi.sourceforge.net/DTD/sodipodi-0.dtd"
   xmlns:inkscape="http://www.inkscape.org/namespaces/inkscape"
   width="96"
   height="96"
   viewBox="0 0 96.000001 96.000004"
   version="1.1"
   id="svg1072"
   inkscape:version="0.92.1 r15371"
   sodipodi:docname="image-png.svg">
  <defs
     id="defs1066">
    <linearGradient
       y2="47.000011"
       x2="90"
       y1="47.000011"
       x1="6"
       gradientTransform="matrix(1.1071428,0,0,1.1071426,-4.9939026,-3.620687)"
       gradientUnits="userSpaceOnUse"
       id="linearGradient4071"
       xlink:href="#linearGradient6139-0"
       inkscape:collect="always" />
    <linearGradient
       id="linearGradient6139-0">
      <stop
         style="stop-color:#b2babc;stop-opacity:1"
         offset="0"
         id="stop6141-2" />
      <stop
         id="stop6151-0"
         offset="0.25"
         style="stop-color:#ffffff;stop-opacity:1;" />
      <stop
         id="stop6147-1"
         offset="0.5"
         style="stop-color:#96a1a4;stop-opacity:1" />
      <stop
         style="stop-color:#fbf9f9;stop-opacity:1;"
         offset="0.75"
         id="stop6149-4" />
      <stop
         style="stop-color:#b2b9bc;stop-opacity:1"
         offset="1"
         id="stop6143-4" />
    </linearGradient>
    <linearGradient
       gradientUnits="userSpaceOnUse"
       y2="88.171875"
       x2="94.5"
       y1="88.171875"
       x1="1.5"
       id="linearGradient4129"
       xlink:href="#linearGradient3832-0-6-1-1"
       inkscape:collect="always"
       gradientTransform="translate(0.1489535,0.415026)" />
    <linearGradient
       id="linearGradient3832-0-6-1-1">
      <stop
         id="stop3834-6-3-7-1"
         offset="0"
         style="stop-color:#000000;stop-opacity:1;" />
      <stop
         style="stop-color:#000000;stop-opacity:0.58823532;"
         offset="0.1"
         id="stop3872-2-4" />
      <stop
         id="stop3844-6-2-7-6"
         offset="0.89999998"
         style="stop-color:#000000;stop-opacity:0.58823532;" />
      <stop
         id="stop3836-5-0-2-9"
         offset="1"
         style="stop-color:#000000;stop-opacity:1;" />
    </linearGradient>
    <linearGradient
       id="linearGradient3737">
      <stop
         id="stop3739"
         style="stop-color:#ffffff;stop-opacity:1"
         offset="0" />
      <stop
         id="stop3741"
         style="stop-color:#ffffff;stop-opacity:0"
         offset="1" />
    </linearGradient>
    <linearGradient
       y2="14.514202"
       x2="50.527882"
       y1="-28.64156"
       x1="2.7713892"
       gradientUnits="userSpaceOnUse"
       id="linearGradient4767"
       xlink:href="#linearGradient3737"
       inkscape:collect="always" />
    <clipPath
       clipPathUnits="userSpaceOnUse"
       id="clipPath4156-4-1">
      <path
         style="opacity:0.6;fill:#ffffff;fill-opacity:1;stroke:none"
         d="m 27.046336,-55.695463 -14.21366,13.321486 h 0.06127 l 15.653407,21.770763 10.231384,-10.546177 C 38.561832,-32.30156 27.468089,-54.819245 27.046336,-55.695463 Z M 9.6468554,-39.382809 -5.2407289,-25.32124 15.987863,-7.8059573 26.372412,-18.382966 Z m 31.4906096,12.951445 -9.741259,9.713584 8.944804,12.4580526 7.780753,-7.5550056 z m -49.8397109,4.378822 -13.7541661,12.9822847 26.2830181,13.84571 0.06127,-0.0617 -0.122531,-0.0617 L 13.598503,-5.4007374 -8.7022409,-22.052595 Z m 38.0154159,7.400825 -9.802525,9.7752596 11.579232,9.5594001 7.62759,-7.40083 -8.669108,-11.0087257 z m 20.187073,5.6739697 -7.382526,7.2158 6.187844,8.54179 5.820249,-6.13651996 z m -32.195166,6.32154 -9.5574606,9.49772 13.6622686,7.1849703 7.933918,-7.6783603 z m 23.311629,2.37443004 -7.10683,6.93826996 8.362778,6.9074403 5.360756,-5.6739699 -0.06127,-0.0925 -0.0919,0.12335 -6.463539,-8.20258036 z m -8.730374,8.54178036 -7.505057,7.3391599 10.353916,5.45811 c 1.397496,-1.32103 5.67514,-6.12292 5.850882,-6.32154 z"
         id="path4158-0-8"
         inkscape:connector-curvature="0" />
    </clipPath>
    <linearGradient
       id="linearGradient4135">
      <stop
         style="stop-color:#e3e9e9;stop-opacity:1;"
         offset="0"
         id="stop4137" />
      <stop
         style="stop-color:#eef2f2;stop-opacity:1;"
         offset="0.21971546"
         id="stop4139" />
      <stop
         style="stop-color:#f9fbfb;stop-opacity:1;"
         offset="0.47877571"
         id="stop4141" />
      <stop
         style="stop-color:#ffffff;stop-opacity:1;"
         offset="1"
         id="stop4143" />
    </linearGradient>
    <linearGradient
       id="linearGradient4360-3">
      <stop
         id="stop4362-0"
         style="stop-color:#2567a5;stop-opacity:1;"
         offset="0" />
      <stop
         offset="0.5"
         style="stop-color:#42b5c3;stop-opacity:1;"
         id="stop4135-2" />
      <stop
         id="stop4364-2"
         style="stop-color:#1e6020;stop-opacity:1;"
         offset="1" />
    </linearGradient>
    <linearGradient
       id="linearGradient4160">
      <stop
         id="stop4170"
         offset="0"
         style="stop-color:#000000;stop-opacity:0;" />
      <stop
         style="stop-color:#000000;stop-opacity:0.96470588;"
         offset="0.03175623"
         id="stop4186" />
      <stop
         style="stop-color:#000000;stop-opacity:0;"
         offset="0.09425623"
         id="stop4182" />
      <stop
         style="stop-color:#000000;stop-opacity:0;"
         offset="0.49595019"
         id="stop4180" />
      <stop
         style="stop-color:#000000;stop-opacity:0;"
         offset="0.90525883"
         id="stop4178" />
      <stop
         id="stop4184"
         offset="0.96241152"
         style="stop-color:#000000;stop-opacity:0.98823529;" />
      <stop
         id="stop4168"
         offset="1"
         style="stop-color:#000000;stop-opacity:0;" />
    </linearGradient>
    <radialGradient
       inkscape:collect="always"
       xlink:href="#linearGradient3737"
       id="radialGradient4543"
       gradientUnits="userSpaceOnUse"
       gradientTransform="matrix(0.97114828,0,0,0.04380376,-16.346181,4.0121497)"
       cx="48"
       cy="-16.128"
       fx="48"
       fy="-16.128"
       r="44.543999" />
    <linearGradient
       inkscape:collect="always"
       xlink:href="#linearGradient4135"
       id="linearGradient4545"
       gradientUnits="userSpaceOnUse"
       gradientTransform="matrix(0.96067159,0,0,0.8522407,-17.086373,-18.2132)"
       spreadMethod="reflect"
       x1="53.8978"
       y1="-69.456512"
       x2="27.952002"
       y2="23.167999" />
    <linearGradient
       inkscape:collect="always"
       xlink:href="#linearGradient4360-3"
       id="linearGradient3370-9"
       gradientUnits="userSpaceOnUse"
       x1="23.576078"
       y1="-1.2683213"
       x2="22.910723"
       y2="54.605522" />
    <filter
       style="color-interpolation-filters:sRGB"
       inkscape:collect="always"
       id="filter4136-7"
       x="-0.46463007"
       width="1.9292603"
       y="-0.46463007"
       height="1.9292603">
      <feGaussianBlur
         inkscape:collect="always"
         stdDeviation="2.1559548"
         id="feGaussianBlur4138-4" />
    </filter>
    <radialGradient
       inkscape:collect="always"
       xlink:href="#linearGradient3737"
       id="radialGradient3372-2"
       gradientUnits="userSpaceOnUse"
       gradientTransform="matrix(0.99952829,0.03324668,-0.02862945,1.0086909,2.3856674,-1.4951529)"
       cx="11.699564"
       cy="83.136368"
       fx="11.699564"
       fy="83.136368"
       r="14.308982" />
    <radialGradient
       r="14.308982"
       fy="80.202721"
       fx="11.904393"
       cy="80.202721"
       cx="11.904393"
       gradientTransform="matrix(1,0,0,0.86922284,0,10.488684)"
       gradientUnits="userSpaceOnUse"
       id="radialGradient3411"
       xlink:href="#linearGradient3737"
       inkscape:collect="always" />
    <linearGradient
       inkscape:collect="always"
       xlink:href="#linearGradient4160"
       id="linearGradient4549"
       gradientUnits="userSpaceOnUse"
       gradientTransform="matrix(0.97114828,0,0,0.89668874,-17.589251,-13.416668)"
       x1="2.5"
       y1="54.296875"
       x2="93.5"
       y2="54.296875" />
    <linearGradient
       inkscape:collect="always"
       xlink:href="#linearGradient4160"
       id="linearGradient4555"
       gradientUnits="userSpaceOnUse"
       gradientTransform="matrix(0.97114828,0,0,0.89668874,-17.589251,-12.791674)"
       x1="2.5"
       y1="11.140625"
       x2="93.5"
       y2="11.140625" />
  </defs>
  <sodipodi:namedview
     id="base"
     pagecolor="#ffffff"
     bordercolor="#666666"
     borderopacity="1.0"
     inkscape:pageopacity="0.0"
     inkscape:pageshadow="2"
     inkscape:zoom="3.2291538"
     inkscape:cx="17.274528"
     inkscape:cy="44.549472"
     inkscape:document-units="px"
     inkscape:current-layer="g2574"
     showgrid="false"
     inkscape:showpageshadow="false"
     units="px"
     inkscape:lockguides="true"
     inkscape:window-width="1280"
     inkscape:window-height="972"
     inkscape:window-x="0"
     inkscape:window-y="26"
     inkscape:window-maximized="1"
     inkscape:snap-global="false">
    <sodipodi:guide
       position="0,0"
       orientation="0,96"
       id="guide1621"
       inkscape:locked="true" />
    <sodipodi:guide
       position="96.000002,0"
       orientation="-96,0"
       id="guide1623"
       inkscape:locked="true" />
    <sodipodi:guide
       position="96.000002,96.000002"
       orientation="0,-96"
       id="guide1625"
       inkscape:locked="true" />
    <sodipodi:guide
       position="0,96.000002"
       orientation="96,0"
       id="guide1627"
       inkscape:locked="true" />
  </sodipodi:namedview>
  <metadata
     id="metadata1069">
    <rdf:RDF>
      <cc:Work
         rdf:about="">
        <dc:format>image/svg+xml</dc:format>
        <dc:type
           rdf:resource="http://purl.org/dc/dcmitype/StillImage" />
        <dc:title></dc:title>
        <dc:date>2017</dc:date>
        <dc:creator>
          <cc:Agent>
            <dc:title>Cristian Pozzessere &quot;ilnanny&quot;</dc:title>
          </cc:Agent>
        </dc:creator>
        <dc:subject>
          <rdf:Bag>
            <rdf:li>Global language</rdf:li>
          </rdf:Bag>
        </dc:subject>
        <dc:description>Playing with Inkscape on Gnu/Linux O. S.</dc:description>
        <dc:contributor>
          <cc:Agent>
            <dc:title>In the night, alone like a dog.</dc:title>
          </cc:Agent>
        </dc:contributor>
        <cc:license
           rdf:resource="http://creativecommons.org/licenses/by-sa/4.0/" />
      </cc:Work>
      <cc:License
         rdf:about="http://creativecommons.org/licenses/by-sa/4.0/">
        <cc:permits
           rdf:resource="http://creativecommons.org/ns#Reproduction" />
        <cc:permits
           rdf:resource="http://creativecommons.org/ns#Distribution" />
        <cc:requires
           rdf:resource="http://creativecommons.org/ns#Notice" />
        <cc:requires
           rdf:resource="http://creativecommons.org/ns#Attribution" />
        <cc:permits
           rdf:resource="http://creativecommons.org/ns#DerivativeWorks" />
        <cc:requires
           rdf:resource="http://creativecommons.org/ns#ShareAlike" />
      </cc:License>
    </rdf:RDF>
  </metadata>
  <g
     inkscape:label="Livello 1"
     inkscape:groupmode="layer"
     id="layer1"
     transform="translate(0,-1026.5197)">
    <g
       transform="translate(-0.14895645,1026.1047)"
       style="display:inline"
       id="g2574">
      <path
         inkscape:connector-curvature="0"
         id="path3288"
         d="M 89.29181,0.415026 H 7.0060911 c -3.798848,0 -6.8571352,3.058285 -6.8571352,6.8571399 V 89.557884 c 0,3.798857 3.0582872,6.857142 6.8571352,6.857142 H 89.29181 c 3.798857,0 6.857147,-3.058285 6.857147,-6.857142 V 7.2721659 c 0,-3.7988549 -3.05829,-6.8571399 -6.857147,-6.8571399 z"
         style="display:inline;opacity:0.15;fill:#000000;fill-opacity:1;fill-rule:nonzero;stroke:none" />
      <path
         style="display:inline;opacity:0.15;fill:#000000;fill-opacity:1;fill-rule:nonzero;stroke:none"
         d="M 88.648954,1.165026 H 7.6489471 c -3.739492,0 -6.749993,3.010499 -6.749993,6.7499969 V 88.915026 c 0,3.739501 3.010501,6.75 6.749993,6.75 H 88.648954 c 3.739503,0 6.750003,-3.010499 6.750003,-6.75 V 7.9150229 c 0,-3.7394979 -3.0105,-6.7499969 -6.750003,-6.7499969 z"
         id="path4085"
         inkscape:connector-curvature="0" />
      <path
         inkscape:connector-curvature="0"
         id="rect4251-1"
         d="M 88.006093,1.915026 H 8.2918111 c -3.680143,0 -6.6428566,2.962713 -6.6428566,6.6428549 V 88.272171 c 0,3.680142 2.9627136,6.642856 6.6428566,6.642856 H 88.006093 c 3.680143,0 6.642854,-2.962714 6.642854,-6.642856 V 8.5578809 c 0,-3.6801419 -2.962711,-6.6428549 -6.642854,-6.6428549 z"
         style="display:inline;fill:url(#linearGradient4071);fill-opacity:1;fill-rule:nonzero;stroke:none" />
      <g
         style="display:inline"
         transform="translate(19.117506,13.652933)"
         id="g154">
        <rect
           style="opacity:0.65090906;fill:url(#radialGradient4543);fill-opacity:1;stroke:none;stroke-width:0.9331761"
           id="rect4048"
           width="86.517654"
           height="3.902389"
           x="-12.98989"
           y="1.3544873"
           rx="3.8428216"
           ry="2.7417808" />
        <path
           inkscape:connector-curvature="0"
           style="opacity:0;fill:#000000;fill-opacity:1;stroke:none;stroke-width:0.9331761"
           d="m -11.640968,-10.830167 c -2.119707,0 -3.823896,1.5735269 -3.823896,3.5307123 V 3.4608099 c 0,-1.9571855 1.704189,-3.53071195 3.823896,-3.53071195 h 81.333669 c 2.119707,0 3.823896,1.57352645 3.823896,3.53071195 V -7.2994547 c 0,-1.9571854 -1.704189,-3.5307123 -3.823896,-3.5307123 z"
           id="rect4080" />
        <rect
           transform="scale(1,-1)"
           style="fill:url(#linearGradient4545);fill-opacity:1;stroke:#738589;stroke-width:0.90876746;stroke-miterlimit:4;stroke-dasharray:none;stroke-opacity:1"
           id="rect4133"
           width="88.38179"
           height="78.406151"
           x="-15.16503"
           y="-71.052116"
           rx="3.8013654"
           ry="3.3723063" />
        <g
           style="opacity:0.86545458"
           transform="matrix(1.0042734,0,0,0.94294791,-1.8288178,2.5374915)"
           id="g3359">
          <g
             style="stroke:#525252;stroke-width:0.69999999;stroke-miterlimit:4;stroke-dasharray:none;stroke-opacity:1"
             transform="matrix(1.0157329,0,0,0.97790633,4.3229467,8.5215449)"
             id="g4104">
            <rect
               style="fill:#dbe3e2;fill-opacity:1;stroke:#525252;stroke-width:0.69999999;stroke-linecap:round;stroke-linejoin:round;stroke-miterlimit:4;stroke-dasharray:none;stroke-dashoffset:0;stroke-opacity:1"
               id="rect3332"
               width="78.450333"
               height="62.425987"
               x="-12.909661"
               y="-5.0244074" />
            <rect
               y="-2.8240807"
               x="-10.730556"
               height="58.025333"
               width="74.092117"
               id="rect4102"
               style="fill:url(#linearGradient3370-9);fill-opacity:1;stroke:#525252;stroke-width:0.69999999;stroke-linecap:round;stroke-linejoin:round;stroke-miterlimit:4;stroke-dasharray:none;stroke-dashoffset:0;stroke-opacity:1" />
          </g>
          <path
             inkscape:transform-center-y="-3.9946456"
             transform="matrix(1.2689468,0,0,0.97790633,-3.246905,-27.248162)"
             d="m 11.904394,67.765024 7.233735,12.34619 7.075246,12.437694 -14.308982,0.0915 -14.3089816,-0.0915 7.0752461,-12.437693 z"
             inkscape:randomized="0"
             inkscape:rounded="0"
             inkscape:flatsided="false"
             sodipodi:arg2="-0.52359878"
             sodipodi:arg1="-1.5707963"
             sodipodi:r2="8.3527985"
             sodipodi:r1="16.522589"
             sodipodi:cy="84.287613"
             sodipodi:cx="11.904393"
             sodipodi:sides="3"
             id="path4108"
             style="fill:#dbe3e2;fill-opacity:1;stroke:#a1d3ea;stroke-width:0.27914038;stroke-linecap:round;stroke-linejoin:round;stroke-miterlimit:4;stroke-dasharray:none;stroke-dashoffset:0;stroke-opacity:1"
             sodipodi:type="star" />
          <path
             sodipodi:type="star"
             style="fill:#dbe3e2;fill-opacity:1;stroke:#bee9f1;stroke-width:0.33298296;stroke-linecap:round;stroke-linejoin:round;stroke-miterlimit:4;stroke-dasharray:none;stroke-dashoffset:0;stroke-opacity:1"
             id="path4118-3"
             sodipodi:sides="3"
             sodipodi:cx="11.904393"
             sodipodi:cy="84.287613"
             sodipodi:r1="16.522589"
             sodipodi:r2="8.3527985"
             sodipodi:arg1="-1.5707963"
             sodipodi:arg2="-0.52359878"
             inkscape:flatsided="false"
             inkscape:rounded="0"
             inkscape:randomized="0"
             d="m 11.904394,67.765024 7.233735,12.34619 7.075246,12.437694 -14.308982,0.0915 -14.3089816,-0.0915 7.0752461,-12.437693 z"
             transform="matrix(1.904291,0,0,1.6935653,18.628572,-93.676766)"
             inkscape:transform-center-y="-6.918032" />
          <circle
             r="5.5681839"
             cy="43.774277"
             cx="24.960825"
             transform="matrix(0.80828644,0,0,0.74446441,-13.79235,-14.909549)"
             id="path4120"
             style="fill:#fffc33;fill-opacity:1;stroke:#ffc903;stroke-width:1;stroke-linecap:round;stroke-linejoin:round;stroke-miterlimit:4;stroke-dasharray:none;stroke-dashoffset:0;stroke-opacity:1;filter:url(#filter4136-7)" />
          <circle
             r="5.5681839"
             cy="43.774277"
             cx="24.960825"
             style="opacity:0.40363638;fill:#fffc33;fill-opacity:1;stroke:#ffc903;stroke-width:1;stroke-linecap:round;stroke-linejoin:round;stroke-miterlimit:4;stroke-dasharray:none;stroke-dashoffset:0;stroke-opacity:1"
             id="path4122"
             transform="matrix(0.80828644,0,0,0.74446441,-13.79235,-14.909549)" />
          <path
             inkscape:transform-center-y="-6.918032"
             transform="matrix(1.904291,0,0,1.6935653,18.628572,-93.676766)"
             d="m 11.904394,67.765024 7.233735,12.34619 7.075246,12.437694 -14.308982,0.0915 -14.3089816,-0.0915 7.0752461,-12.437693 z"
             inkscape:randomized="0"
             inkscape:rounded="0"
             inkscape:flatsided="false"
             sodipodi:arg2="-0.52359878"
             sodipodi:arg1="-1.5707963"
             sodipodi:r2="8.3527985"
             sodipodi:r1="16.522589"
             sodipodi:cy="84.287613"
             sodipodi:cx="11.904393"
             sodipodi:sides="3"
             id="path4140"
             style="opacity:0.7309091;fill:url(#radialGradient3372-2);fill-opacity:1;stroke:none"
             sodipodi:type="star" />
          <path
             sodipodi:type="star"
             style="opacity:0.6690909;fill:url(#radialGradient3411);fill-opacity:1;stroke:none"
             id="path4150"
             sodipodi:sides="3"
             sodipodi:cx="11.904393"
             sodipodi:cy="84.287613"
             sodipodi:r1="16.522589"
             sodipodi:r2="8.3527985"
             sodipodi:arg1="-1.5707963"
             sodipodi:arg2="-0.52359878"
             inkscape:flatsided="false"
             inkscape:rounded="0"
             inkscape:randomized="0"
             d="m 11.904394,67.765024 7.233735,12.34619 7.075246,12.437694 -14.308982,0.0915 -14.3089816,-0.0915 7.0752461,-12.437693 z"
             transform="matrix(1.2689468,0,0,0.97790633,-3.246905,-27.248162)"
             inkscape:transform-center-y="-3.9946456" />
        </g>
        <path
           id="path4060"
           d="m -11.351975,-3.4418668 c -2.105936,0 -3.812629,1.5794338 -3.812629,3.52834103 V 3.6425974 c 0,-1.9489073 1.706693,-3.5283411 3.812629,-3.5283411 h 80.755681 c 2.105937,0 3.812629,1.5794338 3.812629,3.5283411 V 0.08647423 c 0,-1.94890723 -1.706692,-3.52834103 -3.812629,-3.52834103 z"
           style="fill:#e4e8e8;fill-opacity:1;stroke:#738589;stroke-width:0.9261148;stroke-miterlimit:4;stroke-dasharray:none;stroke-opacity:1"
           inkscape:connector-curvature="0" />
        <path
           inkscape:connector-curvature="0"
           style="fill:#e4e8e8;fill-opacity:1;stroke:#738589;stroke-width:0.9261148;stroke-miterlimit:4;stroke-dasharray:none;stroke-opacity:1"
           d="m -11.351975,-6.9976097 c -2.105936,0 -3.812629,1.579433 -3.812629,3.5283392 v 3.55612318 c 0,-1.94890728 1.706693,-3.52834018 3.812629,-3.52834018 h 80.755681 c 2.105937,0 3.812629,1.5794329 3.812629,3.52834018 V -3.4692705 c 0,-1.9489062 -1.706692,-3.5283392 -3.812629,-3.5283392 z"
           id="path4062" />
        <path
           inkscape:connector-curvature="0"
           style="opacity:0.27999998;fill:url(#linearGradient4549);fill-opacity:1;stroke:none;stroke-width:0.9331761"
           d="m -11.367832,0.11772848 c -2.105955,0 -3.793548,1.56242642 -3.793548,3.50269042 V 66.921038 c 0,1.940265 1.687593,3.502692 3.793548,3.502692 h 80.7874 c 2.105956,0 3.793548,-1.562427 3.793548,-3.502692 V 3.6204189 c 0,-1.940264 -1.687592,-3.50269042 -3.793548,-3.50269042 z"
           id="rect4371" />
        <path
           style="opacity:0.25818182;fill:url(#linearGradient4555);fill-opacity:1;stroke:none;stroke-width:0.9331761"
           d="m -11.367832,-6.3891804 c -2.105957,0 -3.793548,1.562427 -3.793548,3.5026908 v 7.6643111 c 0,-1.9402641 2.027037,-4.29032293 4.132989,-4.28622871 l 80.617677,0.15670716 c 2.105952,0.004096 3.623828,2.18925745 3.623828,4.12952155 v -7.6643111 c 0,-1.9402638 -1.687592,-3.5026908 -3.793548,-3.5026908 z"
           id="rect4358"
           inkscape:connector-curvature="0"
           sodipodi:nodetypes="sscsscsss" />
        <g
           transform="matrix(1.1761806,0,0,1.0952176,-7.7627002,5.3033215)"
           style="font-style:normal;font-variant:normal;font-weight:bold;font-stretch:normal;font-size:21.97517586px;line-height:125%;font-family:'AvantGarde LT Medium';-inkscape-font-specification:'AvantGarde LT Medium';letter-spacing:0px;word-spacing:0px;fill:#2d2d2d;fill-opacity:1;stroke:#000000;stroke-width:0.80000001;stroke-miterlimit:4;stroke-dasharray:none;stroke-opacity:1"
           id="text4238" />
      </g>
      <g
         transform="translate(15.488729,18.943121)"
         style="font-style:normal;font-variant:normal;font-weight:bold;font-stretch:normal;font-size:21.97517586px;line-height:125%;font-family:'AvantGarde LT Medium';-inkscape-font-specification:'AvantGarde LT Medium';letter-spacing:0px;word-spacing:0px;fill:#2e3436;fill-opacity:1;stroke:#000000;stroke-width:0.80000001;stroke-miterlimit:4;stroke-dasharray:none;stroke-opacity:1"
         id="text4238-3">
        <path
           inkscape:connector-curvature="0"
           d="m 32.099851,43.10105 c -1.2e-5,-0.542048 -0.102563,-1.069451 -0.307653,-1.582212 -0.205113,-0.527397 -0.49079,-0.9962 -0.857031,-1.406412 -0.366264,-0.410194 -0.805767,-0.739821 -1.318511,-0.988883 -0.512763,-0.249041 -1.076792,-0.373567 -1.692089,-0.373578 -0.600662,1.1e-5 -1.15004,0.124537 -1.648138,0.373578 -0.498109,0.234412 -0.930287,0.549389 -1.296535,0.944933 -0.351607,0.395562 -0.629959,0.85704 -0.835057,1.384436 -0.190455,0.512761 -0.285681,1.04749 -0.285677,1.604188 -4e-6,0.61531 0.102547,1.186664 0.307652,1.714064 0.219748,0.527408 0.51275,0.988886 0.879007,1.384436 0.380898,0.380905 0.820401,0.681232 1.318511,0.900982 0.512747,0.219753 1.054801,0.329629 1.626163,0.329627 0.542046,2e-6 1.0548,-0.102548 1.538262,-0.307652 0.498094,-0.205099 0.937597,-0.490776 1.318511,-0.857032 0.380892,-0.3809 0.681219,-0.835053 0.900982,-1.362461 0.23439,-0.527399 0.351591,-1.113403 0.351603,-1.758014 M 21.617692,36.991951 h 2.087642 v 1.86789 h 0.04395 c 0.5567,-0.791095 1.215955,-1.355124 1.977766,-1.692088 0.77645,-0.336941 1.56023,-0.505417 2.351344,-0.505429 1.025499,1.2e-5 1.933805,0.190464 2.724922,0.571354 0.791094,0.380915 1.450349,0.879018 1.977765,1.494312 0.527391,0.615315 0.922944,1.31852 1.18666,2.109617 0.278338,0.791114 0.417514,1.589545 0.417528,2.395294 -1.4e-5,0.776462 -0.13919,1.538267 -0.417528,2.285419 -0.278366,0.732508 -0.681244,1.399088 -1.208635,1.999741 -0.527416,0.586005 -1.172021,1.062134 -1.933815,1.428386 -0.761816,0.351603 -1.626172,0.527404 -2.593071,0.527404 -0.644613,0 -1.208642,-0.07325 -1.692089,-0.219752 -0.468809,-0.146501 -0.879012,-0.322302 -1.230609,-0.527404 -0.351608,-0.205101 -0.637285,-0.424852 -0.857032,-0.659255 -0.219756,-0.249051 -0.388232,-0.468802 -0.505429,-0.659255 h -0.04395 v 5.823421 H 21.617693 V 36.991951"
           style="stroke:#000000;stroke-width:0.80000001;stroke-miterlimit:4;stroke-dasharray:none;stroke-opacity:1"
           id="path4572" />
        <path
           inkscape:connector-curvature="0"
           d="m 45.187098,49.166199 v -6.614528 c -10e-6,-0.234395 -0.01466,-0.564023 -0.04395,-0.988883 -0.02931,-0.424845 -0.139186,-0.842373 -0.329628,-1.252585 -0.190461,-0.424844 -0.490788,-0.791097 -0.900982,-1.098759 -0.410212,-0.307642 -0.996216,-0.461468 -1.758014,-0.461479 -0.966914,1.1e-5 -1.743369,0.322313 -2.329369,0.966908 -0.586009,0.644614 -0.879011,1.582221 -0.879007,2.812823 v 6.636503 H 36.66073 V 36.991951 h 2.131592 v 1.296536 h 0.04395 c 0.307649,-0.410192 0.644601,-0.72517 1.010858,-0.944933 0.366248,-0.21974 0.717851,-0.380891 1.054809,-0.483454 0.336946,-0.102538 0.637273,-0.161139 0.900982,-0.175801 0.278345,-0.01464 0.476122,-0.02196 0.59333,-0.02198 0.952249,1.2e-5 1.79463,0.190464 2.527145,0.571354 0.747145,0.380915 1.340475,0.915644 1.779989,1.604188 0.24904,0.395563 0.432167,0.842391 0.54938,1.340486 0.131838,0.498112 0.205089,1.091441 0.219751,1.779989 v 7.207858 h -2.285418"
           style="stroke:#000000;stroke-width:0.80000001;stroke-miterlimit:4;stroke-dasharray:none;stroke-opacity:1"
           id="path4574" />
        <path
           inkscape:connector-curvature="0"
           d="m 60.482849,43.10105 c -1.1e-5,-0.8497 -0.153837,-1.552905 -0.461478,-2.109617 -0.307664,-0.571346 -0.688566,-1.018174 -1.142709,-1.340485 -0.439513,-0.336943 -0.900992,-0.571345 -1.384436,-0.703206 -0.483462,-0.131841 -0.90099,-0.197766 -1.252586,-0.197777 -0.600661,1.1e-5 -1.16469,0.117212 -1.692088,0.351603 -0.512759,0.234412 -0.959587,0.549389 -1.340486,0.944933 -0.366257,0.395562 -0.659259,0.85704 -0.879007,1.384436 -0.205105,0.527411 -0.307655,1.07679 -0.307652,1.648138 -3e-6,0.55671 0.102547,1.091439 0.307652,1.604188 0.205098,0.512758 0.490775,0.974236 0.857032,1.384436 0.380898,0.395556 0.827727,0.717858 1.340486,0.966908 0.512748,0.234403 1.076777,0.351604 1.692088,0.351602 0.747148,2e-6 1.384428,-0.146499 1.911841,-0.439503 0.542044,-0.30765 0.988872,-0.681228 1.340485,-1.120734 0.351592,-0.4395 0.607969,-0.900978 0.769132,-1.384436 0.161139,-0.498099 0.241715,-0.944927 0.241726,-1.340486 m 2.285419,4.417011 c -1.4e-5,0.996208 -0.15384,1.889864 -0.461479,2.680971 -0.293015,0.805755 -0.725193,1.486984 -1.296535,2.043691 -0.556716,0.556701 -1.245271,0.981554 -2.065667,1.274561 -0.805766,0.292997 -1.728722,0.439498 -2.768872,0.439503 -1.421067,-5e-6 -2.651676,-0.351607 -3.69183,-1.054808 -1.02551,-0.703209 -1.794641,-1.633491 -2.307393,-2.790848 h 2.54912 c 0.0879,0.1172 0.212423,0.271026 0.373578,0.461479 0.175797,0.2051 0.402874,0.402876 0.681231,0.59333 0.278347,0.190449 0.615299,0.3516 1.010858,0.483454 0.395547,0.146498 0.86435,0.219749 1.406411,0.219751 0.600647,-2e-6 1.157351,-0.08058 1.670114,-0.241727 0.527394,-0.146503 0.981547,-0.395555 1.36246,-0.747156 0.395543,-0.336954 0.703195,-0.776457 0.922958,-1.31851 0.21974,-0.542054 0.329616,-1.208634 0.329627,-1.999741 h -0.04395 c -0.102562,0.146503 -0.263713,0.329629 -0.483454,0.549379 -0.205112,0.205103 -0.476139,0.410204 -0.813081,0.615305 -0.336963,0.205102 -0.747166,0.380903 -1.23061,0.527404 -0.468812,0.146501 -1.025516,0.219752 -1.670114,0.219752 -1.010864,0 -1.91917,-0.197777 -2.724921,-0.59333 -0.79111,-0.395552 -1.47234,-0.900981 -2.043692,-1.516287 -0.556706,-0.615302 -0.988884,-1.303857 -1.296535,-2.065666 -0.293003,-0.761802 -0.439504,-1.516282 -0.439504,-2.263443 0,-0.673899 0.131851,-1.384429 0.395554,-2.131592 0.27835,-0.747147 0.688553,-1.435702 1.230609,-2.065667 0.542052,-0.629944 1.223282,-1.150023 2.043692,-1.560237 0.820401,-0.410191 1.779983,-0.615293 2.878748,-0.615305 0.908299,1.2e-5 1.728705,0.175813 2.46122,0.527404 0.747145,0.336964 1.325824,0.739842 1.736038,1.208635 v -1.406412 h 2.285419 v 10.52611"
           style="stroke:#000000;stroke-width:0.80000001;stroke-miterlimit:4;stroke-dasharray:none;stroke-opacity:1"
           id="path4576" />
      </g>
      <path
         style="color:#000000;font-style:normal;font-variant:normal;font-weight:normal;font-stretch:normal;font-size:medium;line-height:normal;font-family:Sans;-inkscape-font-specification:Sans;text-indent:0;text-align:start;text-decoration:none;text-decoration-line:none;letter-spacing:normal;word-spacing:normal;text-transform:none;writing-mode:lr-tb;direction:ltr;baseline-shift:baseline;text-anchor:start;display:inline;overflow:visible;visibility:visible;fill:#252b30;fill-opacity:0.89701017;stroke:none;stroke-width:2.38680196;marker:none;enable-background:accumulate"
         d="m 9.3868451,5.1444869 c -3.1463471,0 -5.7220256,2.53951 -5.7220256,5.6460041 v 69.277996 c 0,3.106495 2.5756785,5.646004 5.7220256,5.646004 H 86.911064 c 3.146347,0 5.722029,-2.539509 5.722029,-5.646004 V 10.790491 c 0,-3.1064931 -2.575682,-5.6460041 -5.722029,-5.6460041 z m 0,2.319439 H 86.911064 c 1.906108,0 3.383994,1.480095 3.383994,3.3265651 v 69.277996 c 0,1.846474 -1.477886,3.326564 -3.383994,3.326564 H 9.3868451 c -1.9061075,0 -3.3839933,-1.48009 -3.3839933,-3.326564 V 10.790491 c 0,-1.8464701 1.4778858,-3.3265651 3.3839933,-3.3265651 z"
         id="path4989"
         inkscape:connector-curvature="0" />
      <path
         id="path4118"
         d="m 1.6489535,82.258776 v 6 c 0,3.680142 2.9761066,6.65625 6.6562496,6.65625 H 87.992703 c 3.680143,0 6.656254,-2.976108 6.656254,-6.65625 v -6 c 0,3.680142 -2.976111,6.65625 -6.656254,6.65625 H 8.3052031 c -3.680143,0 -6.6562496,-2.976108 -6.6562496,-6.65625 z"
         style="display:inline;opacity:0.65818182;fill:url(#linearGradient4129);fill-opacity:1;fill-rule:nonzero;stroke:none"
         inkscape:connector-curvature="0" />
      <rect
         clip-path="url(#clipPath4156-4-1)"
         ry="3.9569881"
         rx="3.9569874"
         y="-30"
         x="2"
         height="69.024437"
         width="75.965775"
         id="rect4146"
         style="opacity:0.5078125;fill:url(#linearGradient4767);fill-opacity:1;stroke:none"
         transform="matrix(1.0692451,0,0,1.0476829,4.4441802,38.894013)" />
    </g>
  </g>
</svg>
