<?xml version="1.0" encoding="UTF-8" standalone="no"?>
<!-- Created with Inkscape (http://www.inkscape.org/) -->

<svg
   xmlns:dc="http://purl.org/dc/elements/1.1/"
   xmlns:cc="http://creativecommons.org/ns#"
   xmlns:rdf="http://www.w3.org/1999/02/22-rdf-syntax-ns#"
   xmlns:svg="http://www.w3.org/2000/svg"
   xmlns="http://www.w3.org/2000/svg"
   xmlns:xlink="http://www.w3.org/1999/xlink"
   xmlns:sodipodi="http://sodipodi.sourceforge.net/DTD/sodipodi-0.dtd"
   xmlns:inkscape="http://www.inkscape.org/namespaces/inkscape"
   width="96"
   height="96"
   viewBox="0 0 96.000001 96.000004"
   version="1.1"
   id="svg1072"
   inkscape:version="0.92.1 r15371"
   sodipodi:docname="image-ai.svg">
  <defs
     id="defs1066">
    <linearGradient
       inkscape:collect="always"
       xlink:href="#linearGradient6139-0"
       id="linearGradient4071"
       gradientUnits="userSpaceOnUse"
       gradientTransform="matrix(1.1071428,0,0,1.1071426,-4.9939026,-3.620687)"
       x1="6"
       y1="47.000011"
       x2="90"
       y2="47.000011" />
    <linearGradient
       id="linearGradient6139-0">
      <stop
         id="stop6141-2"
         offset="0"
         style="stop-color:#b0b9be;stop-opacity:1" />
      <stop
         style="stop-color:#ffffff;stop-opacity:1;"
         offset="0.25"
         id="stop6151-0" />
      <stop
         style="stop-color:#93a2a7;stop-opacity:1"
         offset="0.5"
         id="stop6147-1" />
      <stop
         id="stop6149-4"
         offset="0.75"
         style="stop-color:#f9fbfb;stop-opacity:1" />
      <stop
         id="stop6143-4"
         offset="1"
         style="stop-color:#b0b8be;stop-opacity:1" />
    </linearGradient>
    <linearGradient
       gradientTransform="translate(0.1489535,0.415026)"
       inkscape:collect="always"
       xlink:href="#linearGradient3832-0-6-1-1"
       id="linearGradient4129"
       x1="1.5"
       y1="88.171875"
       x2="94.5"
       y2="88.171875"
       gradientUnits="userSpaceOnUse" />
    <linearGradient
       id="linearGradient3832-0-6-1-1">
      <stop
         style="stop-color:#000000;stop-opacity:1;"
         offset="0"
         id="stop3834-6-3-7-1" />
      <stop
         id="stop3872-2-4"
         offset="0.1"
         style="stop-color:#000000;stop-opacity:0.58823532;" />
      <stop
         style="stop-color:#000000;stop-opacity:0.58823532;"
         offset="0.89999998"
         id="stop3844-6-2-7-6" />
      <stop
         style="stop-color:#000000;stop-opacity:1;"
         offset="1"
         id="stop3836-5-0-2-9" />
    </linearGradient>
    <radialGradient
       inkscape:collect="always"
       xlink:href="#linearGradient4050"
       id="radialGradient7462"
       gradientUnits="userSpaceOnUse"
       gradientTransform="matrix(0.97513378,0,0,0.04919072,34.047649,80.581722)"
       cx="13.948145"
       cy="44.892841"
       fx="13.948145"
       fy="44.892841"
       r="43.199203" />
    <linearGradient
       inkscape:collect="always"
       id="linearGradient4050">
      <stop
         style="stop-color:#ffffff;stop-opacity:1;"
         offset="0"
         id="stop4052" />
      <stop
         style="stop-color:#ffffff;stop-opacity:0;"
         offset="1"
         id="stop4054" />
    </linearGradient>
    <radialGradient
       inkscape:collect="always"
       xlink:href="#linearGradient4050"
       id="radialGradient7464"
       gradientUnits="userSpaceOnUse"
       gradientTransform="matrix(0.88832663,0,0,0.04919072,31.959518,-90.31726)"
       cx="13.948145"
       cy="44.892841"
       fx="13.948145"
       fy="44.892841"
       r="43.199203" />
    <radialGradient
       inkscape:collect="always"
       xlink:href="#linearGradient4050"
       id="radialGradient4543"
       gradientUnits="userSpaceOnUse"
       gradientTransform="matrix(1,0,0,0.04885057,-16.372364,-3.861835)"
       cx="48"
       cy="-16.128"
       fx="48"
       fy="-16.128"
       r="44.543999" />
    <linearGradient
       inkscape:collect="always"
       xlink:href="#linearGradient4160"
       id="linearGradient4388"
       x1="2.5"
       y1="54.296875"
       x2="93.5"
       y2="54.296875"
       gradientUnits="userSpaceOnUse"
       gradientTransform="translate(-17.652364,-22.601697)" />
    <linearGradient
       id="linearGradient4160">
      <stop
         id="stop4170"
         offset="0"
         style="stop-color:#000000;stop-opacity:0;" />
      <stop
         style="stop-color:#000000;stop-opacity:0.96470588;"
         offset="0.03175623"
         id="stop4186" />
      <stop
         style="stop-color:#000000;stop-opacity:0;"
         offset="0.09425623"
         id="stop4182" />
      <stop
         style="stop-color:#000000;stop-opacity:0;"
         offset="0.49595019"
         id="stop4180" />
      <stop
         style="stop-color:#000000;stop-opacity:0;"
         offset="0.90525883"
         id="stop4178" />
      <stop
         id="stop4184"
         offset="0.96241152"
         style="stop-color:#000000;stop-opacity:0.98823529;" />
      <stop
         id="stop4168"
         offset="1"
         style="stop-color:#000000;stop-opacity:0;" />
    </linearGradient>
    <linearGradient
       id="linearGradient13484">
      <stop
         style="stop-color:#849699;stop-opacity:1"
         offset="0"
         id="stop13486" />
      <stop
         style="stop-color:#0b0d0d;stop-opacity:0"
         offset="1"
         id="stop13488" />
    </linearGradient>
    <linearGradient
       inkscape:collect="always"
       xlink:href="#linearGradient4160"
       id="linearGradient4369"
       x1="2.5"
       y1="11.140625"
       x2="93.5"
       y2="11.140625"
       gradientUnits="userSpaceOnUse"
       gradientTransform="translate(-17.652364,-22.601697)" />
    <linearGradient
       inkscape:collect="always"
       xlink:href="#linearGradient4050"
       id="linearGradient4767-6"
       gradientUnits="userSpaceOnUse"
       x1="2.7713892"
       y1="-28.64156"
       x2="50.527882"
       y2="14.514202" />
    <clipPath
       id="clipPath4156-4-1-2"
       clipPathUnits="userSpaceOnUse">
      <path
         inkscape:connector-curvature="0"
         id="path4158-0-8-6"
         d="m 27.046336,-55.695463 -14.21366,13.321486 h 0.06127 l 15.653407,21.770763 10.231384,-10.546177 C 38.561832,-32.30156 27.468089,-54.819245 27.046336,-55.695463 Z M 9.6468554,-39.382809 -5.2407289,-25.32124 15.987863,-7.8059573 26.372412,-18.382966 Z m 31.4906096,12.951445 -9.741259,9.713584 8.944804,12.4580526 7.780753,-7.5550056 z m -49.8397109,4.378822 -13.7541661,12.9822847 26.2830181,13.84571 0.06127,-0.0617 -0.122531,-0.0617 L 13.598503,-5.4007374 -8.7022409,-22.052595 Z m 38.0154159,7.400825 -9.802525,9.7752596 11.579232,9.5594001 7.62759,-7.40083 -8.669108,-11.0087257 z m 20.187073,5.6739697 -7.382526,7.2158 6.187844,8.54179 5.820249,-6.13651996 z m -32.195166,6.32154 -9.5574606,9.49772 13.6622686,7.1849703 7.933918,-7.6783603 z m 23.311629,2.37443004 -7.10683,6.93826996 8.362778,6.9074403 5.360756,-5.6739699 -0.06127,-0.0925 -0.0919,0.12335 -6.463539,-8.20258036 z m -8.730374,8.54178036 -7.505057,7.3391599 10.353916,5.45811 c 1.397496,-1.32103 5.67514,-6.12292 5.850882,-6.32154 z"
         style="opacity:0.6;fill:#ffffff;fill-opacity:1;stroke:none" />
    </clipPath>
    <radialGradient
       gradientTransform="matrix(0.93962333,0.77477937,-1.7975241,2.1799696,88.130548,-93.365748)"
       gradientUnits="userSpaceOnUse"
       id="radialGradient3996-3-3-1"
       r="14.16129"
       cy="47.141338"
       cx="48.30785">
      <stop
         offset="0"
         style="stop-color:#000000;stop-opacity:0.22264875"
         id="stop3954-3-6-2" />
      <stop
         offset="0.5"
         style="stop-color:#000000;stop-opacity:0.0678183"
         id="stop3958-3-6-7" />
      <stop
         offset="1"
         style="stop-color:#000000;stop-opacity:0.02431222"
         id="stop3956-4-0-0" />
    </radialGradient>
    <linearGradient
       gradientUnits="userSpaceOnUse"
       id="linearGradient4308-6-4"
       y2="4"
       x2="73"
       y1="52"
       x1="45">
      <stop
         offset="0"
         style="stop-color:#000000;stop-opacity:0.10677083"
         id="stop4304-4-4" />
      <stop
         offset="1"
         style="stop-color:#000000;stop-opacity:0"
         id="stop4306-3-9" />
    </linearGradient>
    <linearGradient
       gradientTransform="translate(-75.954866,24.617783)"
       y2="36"
       x2="37"
       y1="46.124821"
       x1="48.992088"
       gradientUnits="userSpaceOnUse"
       id="linearGradient3341-2"
       xlink:href="#linearGradient4280-6-9"
       inkscape:collect="always" />
    <linearGradient
       gradientUnits="userSpaceOnUse"
       id="linearGradient4280-6-9"
       y2="36"
       x2="37"
       y1="46.124821"
       x1="48.992088">
      <stop
         offset="0"
         style="stop-color:#cfcfcf;stop-opacity:1"
         id="stop4293-95-9" />
      <stop
         offset="0.2098622"
         style="stop-color:#b7b7b7;stop-opacity:1"
         id="stop4295-8-1" />
      <stop
         offset="1"
         style="stop-color:#c9c9c9;stop-opacity:1"
         id="stop4297-0-3" />
    </linearGradient>
    <linearGradient
       inkscape:collect="always"
       xlink:href="#linearGradient4280-6-9"
       id="linearGradient5360"
       gradientUnits="userSpaceOnUse"
       gradientTransform="translate(-72.959951,29.609308)"
       x1="48.992088"
       y1="46.124821"
       x2="37"
       y2="36" />
    <linearGradient
       x1="46.882267"
       y1="75.753494"
       x2="46.882267"
       y2="35.372066"
       id="linearGradient3827"
       xlink:href="#linearGradient3821"
       gradientUnits="userSpaceOnUse"
       gradientTransform="translate(-4)" />
    <linearGradient
       id="linearGradient3821">
      <stop
         id="stop3823"
         style="stop-color:#de6a07;stop-opacity:1"
         offset="0" />
      <stop
         id="stop3825"
         style="stop-color:#f8a425;stop-opacity:1"
         offset="1" />
    </linearGradient>
  </defs>
  <sodipodi:namedview
     id="base"
     pagecolor="#ffffff"
     bordercolor="#666666"
     borderopacity="1.0"
     inkscape:pageopacity="0.0"
     inkscape:pageshadow="2"
     inkscape:zoom="2.1613851"
     inkscape:cx="-37.852247"
     inkscape:cy="48"
     inkscape:document-units="px"
     inkscape:current-layer="g1003"
     showgrid="false"
     inkscape:showpageshadow="false"
     units="px"
     inkscape:lockguides="true"
     inkscape:window-width="1280"
     inkscape:window-height="972"
     inkscape:window-x="0"
     inkscape:window-y="26"
     inkscape:window-maximized="1"
     inkscape:snap-global="false">
    <sodipodi:guide
       position="0,0"
       orientation="0,96"
       id="guide1621"
       inkscape:locked="true" />
    <sodipodi:guide
       position="96.000002,0"
       orientation="-96,0"
       id="guide1623"
       inkscape:locked="true" />
    <sodipodi:guide
       position="96.000002,96.000002"
       orientation="0,-96"
       id="guide1625"
       inkscape:locked="true" />
    <sodipodi:guide
       position="0,96.000002"
       orientation="96,0"
       id="guide1627"
       inkscape:locked="true" />
  </sodipodi:namedview>
  <metadata
     id="metadata1069">
    <rdf:RDF>
      <cc:Work
         rdf:about="">
        <dc:format>image/svg+xml</dc:format>
        <dc:type
           rdf:resource="http://purl.org/dc/dcmitype/StillImage" />
        <dc:title></dc:title>
        <dc:date>2017</dc:date>
        <dc:creator>
          <cc:Agent>
            <dc:title>Cristian Pozzessere &quot;ilnanny&quot;</dc:title>
          </cc:Agent>
        </dc:creator>
        <dc:subject>
          <rdf:Bag>
            <rdf:li>Global language</rdf:li>
          </rdf:Bag>
        </dc:subject>
        <dc:description>Playing with Inkscape on Gnu/Linux O. S.</dc:description>
        <dc:contributor>
          <cc:Agent>
            <dc:title>In the night, alone like a dog.</dc:title>
          </cc:Agent>
        </dc:contributor>
        <cc:license
           rdf:resource="http://creativecommons.org/licenses/by-sa/4.0/" />
      </cc:Work>
      <cc:License
         rdf:about="http://creativecommons.org/licenses/by-sa/4.0/">
        <cc:permits
           rdf:resource="http://creativecommons.org/ns#Reproduction" />
        <cc:permits
           rdf:resource="http://creativecommons.org/ns#Distribution" />
        <cc:requires
           rdf:resource="http://creativecommons.org/ns#Notice" />
        <cc:requires
           rdf:resource="http://creativecommons.org/ns#Attribution" />
        <cc:permits
           rdf:resource="http://creativecommons.org/ns#DerivativeWorks" />
        <cc:requires
           rdf:resource="http://creativecommons.org/ns#ShareAlike" />
      </cc:License>
    </rdf:RDF>
  </metadata>
  <g
     inkscape:label="Livello 1"
     inkscape:groupmode="layer"
     id="layer1"
     transform="translate(0,-1026.5197)">
    <g
       transform="translate(-0.14895645,1026.1047)"
       style="display:inline"
       id="g1273">
      <path
         style="display:inline;opacity:0.15;fill:#000000;fill-opacity:1;fill-rule:nonzero;stroke:none"
         d="M 89.29181,0.415026 H 7.0060911 c -3.798848,0 -6.8571352,3.058285 -6.8571352,6.8571399 V 89.557884 c 0,3.798857 3.0582872,6.857142 6.8571352,6.857142 H 89.29181 c 3.798857,0 6.857147,-3.058285 6.857147,-6.857142 V 7.2721659 c 0,-3.7988549 -3.05829,-6.8571399 -6.857147,-6.8571399 z"
         id="path3288"
         inkscape:connector-curvature="0" />
      <path
         inkscape:connector-curvature="0"
         id="path4085"
         d="M 88.648954,1.165026 H 7.6489471 c -3.739492,0 -6.749993,3.010499 -6.749993,6.7499969 V 88.915026 c 0,3.739501 3.010501,6.75 6.749993,6.75 H 88.648954 c 3.739503,0 6.750003,-3.010499 6.750003,-6.75 V 7.9150229 c 0,-3.7394979 -3.0105,-6.7499969 -6.750003,-6.7499969 z"
         style="display:inline;opacity:0.15;fill:#000000;fill-opacity:1;fill-rule:nonzero;stroke:none" />
      <path
         style="display:inline;fill:url(#linearGradient4071);fill-opacity:1;fill-rule:nonzero;stroke:none"
         d="M 88.006093,1.915026 H 8.2918111 c -3.680143,0 -6.6428566,2.962713 -6.6428566,6.6428549 V 88.272171 c 0,3.680142 2.9627136,6.642856 6.6428566,6.642856 H 88.006093 c 3.680143,0 6.642854,-2.962714 6.642854,-6.642856 V 8.5578809 c 0,-3.6801419 -2.962711,-6.6428549 -6.642854,-6.6428549 z"
         id="rect4251-1"
         inkscape:connector-curvature="0" />
      <path
         inkscape:connector-curvature="0"
         style="display:inline;opacity:0.65818182;fill:url(#linearGradient4129);fill-opacity:1;fill-rule:nonzero;stroke:none"
         d="m 1.6489535,82.258776 v 6 c 0,3.680142 2.9761066,6.65625 6.6562496,6.65625 H 87.992703 c 3.680143,0 6.656254,-2.976108 6.656254,-6.65625 v -6 c 0,3.680142 -2.976111,6.65625 -6.656254,6.65625 H 8.3052031 c -3.680143,0 -6.6562496,-2.976108 -6.6562496,-6.65625 z"
         id="path4118" />
      <rect
         style="opacity:0.55;fill:url(#radialGradient7462);fill-opacity:1;stroke:none"
         id="rect4131"
         width="84.250008"
         height="4.25"
         x="5.5239539"
         y="80.665031"
         rx="0"
         ry="4.25" />
      <rect
         ry="4.25"
         rx="0"
         y="-90.233963"
         x="5.9750223"
         height="4.25"
         width="76.75"
         id="rect4141"
         style="opacity:0.669;fill:url(#radialGradient7464);fill-opacity:1;stroke:none"
         transform="rotate(90)" />
      <g
         transform="matrix(0.91297981,0,0,0.8444453,20.28803,23.983749)"
         id="g1003">
        <path
           inkscape:connector-curvature="0"
           style="opacity:1;fill:#ebedee;fill-opacity:1;stroke:none"
           d="m -11.246114,-7.507947 c -2.168522,0 -3.90625,1.74244 -3.90625,3.90625 v 70.59375 c 0,2.16381 1.737728,3.90625 3.90625,3.90625 h 83.1875 c 2.168522,0 3.90625,-1.74244 3.90625,-3.90625 v -70.59375 c 0,-2.16381 -1.737728,-3.90625 -3.90625,-3.90625 z"
           id="path1246" />
        <g
           transform="matrix(1.0953145,0,0,1.1842093,-24.07974,-25.548179)"
           id="layer4">
          <path
             d="M 34.875,36 22,76 h 8.46875 l 2.75,-9.46875 H 46.875 L 49.5625,76 h 8.5 L 45.125,36 Z M 66,36.03125 c -0.59444,4.2e-5 -1.176774,0.06115 -1.71875,0.1875 -0.524506,0.126436 -0.97289,0.362529 -1.375,0.6875 -0.384638,0.306997 -0.710221,0.726409 -0.9375,1.25 -0.227286,0.505615 -0.312504,1.16112 -0.3125,1.9375 -4e-6,0.7584 0.08521,1.382655 0.3125,1.90625 0.227279,0.523667 0.552862,0.956272 0.9375,1.28125 0.40211,0.306991 0.850494,0.511835 1.375,0.65625 0.541976,0.126431 1.12431,0.218784 1.71875,0.21875 0.594424,3.4e-5 1.131742,-0.09232 1.65625,-0.21875 0.524489,-0.144415 0.990357,-0.349259 1.375,-0.65625 C 69.433354,42.956272 69.772705,42.523667 70,42 c 0.244753,-0.523595 0.343737,-1.14785 0.34375,-1.90625 -1.3e-5,-0.77638 -0.099,-1.431885 -0.34375,-1.9375 -0.227295,-0.523591 -0.566646,-0.943003 -0.96875,-1.25 -0.384643,-0.324971 -0.850511,-0.561064 -1.375,-0.6875 C 67.131742,36.092399 66.594424,36.031292 66,36.03125 Z m -25.96875,5.59375 4.875,17.8125 H 35.25 c 1.557914,-5.939686 3.614347,-11.772346 4.78125,-17.8125 z m 21.9375,6.40625 V 76 H 70 V 48.03125 Z"
             inkscape:connector-curvature="0"
             id="path3799"
             style="font-style:normal;font-variant:normal;font-weight:bold;font-stretch:normal;font-size:55.46882629px;line-height:125%;font-family:'Droid Sans';-inkscape-font-specification:'Abandoned Bitplane Bold';text-align:start;writing-mode:lr-tb;text-anchor:start;fill:url(#linearGradient3827);fill-opacity:1;stroke:none" />
          <path
             d="M 34.875,36 22,76 h 8.46875 l 2.75,-9.46875 H 46.875 L 49.5625,76 h 8.5 L 45.125,36 Z M 66,36.03125 c -0.59444,4.2e-5 -1.176774,0.06115 -1.71875,0.1875 -0.524506,0.126436 -0.97289,0.362529 -1.375,0.6875 -0.384638,0.306997 -0.710221,0.726409 -0.9375,1.25 -0.227286,0.505615 -0.312504,1.16112 -0.3125,1.9375 -4e-6,0.7584 0.08521,1.382655 0.3125,1.90625 0.227279,0.523667 0.552862,0.956272 0.9375,1.28125 0.40211,0.306991 0.850494,0.511835 1.375,0.65625 0.541976,0.126431 1.12431,0.218784 1.71875,0.21875 0.594424,3.4e-5 1.131742,-0.09232 1.65625,-0.21875 0.524489,-0.144415 0.990357,-0.349259 1.375,-0.65625 C 69.433354,42.956272 69.772705,42.523667 70,42 c 0.244753,-0.523595 0.343737,-1.14785 0.34375,-1.90625 -1.3e-5,-0.77638 -0.099,-1.431885 -0.34375,-1.9375 -0.227295,-0.523591 -0.566646,-0.943003 -0.96875,-1.25 -0.384643,-0.324971 -0.850511,-0.561064 -1.375,-0.6875 C 67.131742,36.092399 66.594424,36.031292 66,36.03125 Z M 35.625,37 h 8.75 L 56.65625,75 H 50.3125 L 47.84375,66.25 A 1.0067741,1.0067741 0 0 0 46.875,65.53125 H 33.21875 A 1.0067741,1.0067741 0 0 0 32.25,66.25 L 29.71875,75 h -6.3125 z M 66,37.03125 c 0.525476,3.7e-5 0.962078,0.04925 1.40625,0.15625 0.378962,0.09136 0.706593,0.278513 0.96875,0.5 a 1.0067741,1.0067741 0 0 0 0.03125,0.03125 c 0.26774,0.204413 0.496502,0.475759 0.65625,0.84375 a 1.0067741,1.0067741 0 0 0 0.03125,0.03125 c 0.14246,0.294301 0.249988,0.809177 0.25,1.5 -1.1e-5,0.670818 -0.09114,1.128901 -0.25,1.46875 a 1.0067741,1.0067741 0 0 0 -0.03125,0.03125 c -0.16221,0.373717 -0.378477,0.681756 -0.65625,0.90625 -0.239379,0.191053 -0.579395,0.349764 -1,0.46875 -0.0105,0.0025 -0.02078,-0.0025 -0.03125,0 -0.46901,0.111599 -0.895581,0.187527 -1.375,0.1875 -0.470029,2.7e-5 -0.964301,-0.08038 -1.4375,-0.1875 -0.415471,-0.114394 -0.721588,-0.262628 -1,-0.46875 -0.01022,-0.0086 -0.02111,-0.02236 -0.03125,-0.03125 -0.249715,-0.219049 -0.463454,-0.502787 -0.625,-0.875 -0.147509,-0.339807 -0.250004,-0.81701 -0.25,-1.5 -4e-6,-0.702713 0.08629,-1.236574 0.21875,-1.53125 a 1.0067741,1.0067741 0 0 0 0.03125,0 c 0.165641,-0.381594 0.373271,-0.674083 0.625,-0.875 0.295382,-0.238717 0.607583,-0.408831 0.96875,-0.5 0.0094,-0.0022 0.0218,0.0022 0.03125,0 C 64.9805,37.085338 65.485334,37.031286 66,37.03125 Z m -25.96875,3.5625 a 1.0067741,1.0067741 0 0 0 -0.1875,0.03125 1.0067741,1.0067741 0 0 0 -0.8125,0.8125 c -1.148016,5.942389 -3.177962,11.756467 -4.75,17.75 a 1.0067741,1.0067741 0 0 0 0.96875,1.25 h 9.65625 A 1.0067741,1.0067741 0 0 0 45.875,59.15625 L 41,41.34375 a 1.0067741,1.0067741 0 0 0 -0.96875,-0.75 z m 0,1.03125 4.875,17.8125 H 35.25 c 1.557914,-5.939686 3.614347,-11.772346 4.78125,-17.8125 z m 21.9375,6.40625 V 76 H 70 V 48.03125 Z m 1,1 H 69 V 75 h -6.03125 z"
             inkscape:connector-curvature="0"
             id="path3838"
             style="font-style:normal;font-variant:normal;font-weight:bold;font-stretch:normal;font-size:55.46882629px;line-height:125%;font-family:'Droid Sans';-inkscape-font-specification:'Abandoned Bitplane Bold';text-align:start;writing-mode:lr-tb;text-anchor:start;opacity:0.3;fill:#803300;fill-opacity:1;stroke:none" />
          <path
             d="m 61.6875,40.59375 c -0.01018,0.168949 -0.03125,0.317283 -0.03125,0.5 -4e-6,0.7584 0.08521,1.382655 0.3125,1.90625 0.227279,0.523667 0.552862,0.956272 0.9375,1.28125 0.40211,0.306991 0.850494,0.511835 1.375,0.65625 0.541976,0.126431 1.12431,0.218784 1.71875,0.21875 0.594424,3.4e-5 1.131742,-0.09232 1.65625,-0.21875 0.524489,-0.144415 0.990357,-0.349259 1.375,-0.65625 C 69.433354,43.956272 69.772705,43.523667 70,43 c 0.244753,-0.523595 0.343737,-1.14785 0.34375,-1.90625 -3e-6,-0.182266 -0.01973,-0.331433 -0.03125,-0.5 C 70.274126,41.121064 70.185571,41.603012 70,42 c -0.227295,0.523667 -0.566646,0.956272 -0.96875,1.28125 -0.384643,0.306991 -0.850511,0.511835 -1.375,0.65625 -0.524508,0.12643 -1.061826,0.218784 -1.65625,0.21875 -0.59444,3.4e-5 -1.176774,-0.09232 -1.71875,-0.21875 -0.524506,-0.144415 -0.97289,-0.349259 -1.375,-0.65625 C 62.521612,42.956272 62.196029,42.523667 61.96875,42 61.796567,41.603352 61.721333,41.120489 61.6875,40.59375 Z M 40.03125,41.625 c -0.07224,0.399671 -0.154876,0.861324 -0.28125,1.40625 -0.108356,0.544991 -0.243762,1.132412 -0.40625,1.75 -0.144466,0.599486 -0.306261,1.19491 -0.46875,1.8125 -0.162521,0.61765 -0.324318,1.205069 -0.46875,1.75 -0.144465,0.544987 -0.279874,1.019725 -0.40625,1.4375 -0.108353,0.417828 -0.19585,0.737706 -0.25,0.9375 l -2.5,8.71875 h 0.28125 L 37.75,51.71875 c 0.05415,-0.199794 0.141647,-0.519672 0.25,-0.9375 0.126376,-0.417775 0.261785,-0.892513 0.40625,-1.4375 0.144432,-0.544931 0.306229,-1.13235 0.46875,-1.75 0.162489,-0.61759 0.324284,-1.213014 0.46875,-1.8125 0.162488,-0.617588 0.297894,-1.205009 0.40625,-1.75 0.126374,-0.544926 0.20901,-1.006579 0.28125,-1.40625 0.09026,0.63582 0.252058,1.404268 0.46875,2.3125 0.216654,0.908297 0.452752,1.810515 0.6875,2.71875 0.252766,0.890129 0.470807,1.692751 0.6875,2.4375 0.216653,0.744803 0.391643,1.29805 0.5,1.625 l 2.25,7.71875 h 0.28125 L 42.375,50.71875 c -0.108357,-0.32695 -0.283347,-0.880197 -0.5,-1.625 -0.216693,-0.744749 -0.434734,-1.547371 -0.6875,-2.4375 C 40.952752,45.748015 40.716654,44.845797 40.5,43.9375 40.283308,43.029268 40.12151,42.26082 40.03125,41.625 Z M 33.21875,66.53125 30.46875,76 H 22.3125 L 22,77 h 8.46875 l 2.75,-9.46875 H 46.875 L 49.5625,77 h 8.5 L 57.75,76 H 49.5625 L 46.875,66.53125 Z M 61.96875,76 v 1 H 70 v -1 z"
             inkscape:connector-curvature="0"
             id="path3816"
             style="font-style:normal;font-variant:normal;font-weight:bold;font-stretch:normal;font-size:55.46882629px;line-height:125%;font-family:'Droid Sans';-inkscape-font-specification:'Abandoned Bitplane Bold';text-align:start;writing-mode:lr-tb;text-anchor:start;opacity:0.8;fill:#ffffff;fill-opacity:1;stroke:none" />
          <path
             d="M 34.875,36 22,76 h 0.3125 L 34.875,37 h 10.25 L 57.75,76 h 0.3125 L 45.125,36 Z M 66,36.03125 c -0.59444,4.2e-5 -1.176774,0.06115 -1.71875,0.1875 -0.524506,0.126436 -0.97289,0.362529 -1.375,0.6875 -0.384638,0.306997 -0.710221,0.726409 -0.9375,1.25 -0.227286,0.505615 -0.312504,1.16112 -0.3125,1.9375 -10e-7,0.183876 0.02042,0.331418 0.03125,0.5 0.03308,-0.548929 0.107455,-1.050879 0.28125,-1.4375 0.227279,-0.523591 0.552862,-0.943003 0.9375,-1.25 0.40211,-0.324971 0.850494,-0.561064 1.375,-0.6875 0.541976,-0.12635 1.12431,-0.187458 1.71875,-0.1875 0.594424,4.2e-5 1.131742,0.06115 1.65625,0.1875 0.524489,0.126436 0.990357,0.362529 1.375,0.6875 0.402104,0.306997 0.741455,0.726409 0.96875,1.25 0.187292,0.386915 0.274955,0.88804 0.3125,1.4375 0.01224,-0.16817 0.03125,-0.316616 0.03125,-0.5 -1.3e-5,-0.77638 -0.099,-1.431885 -0.34375,-1.9375 -0.227295,-0.523591 -0.566646,-0.943003 -0.96875,-1.25 -0.384643,-0.324971 -0.850511,-0.561064 -1.375,-0.6875 C 67.131742,36.092399 66.594424,36.031292 66,36.03125 Z m -4.03125,12 v 1 H 70 v -1 z M 35.53125,59.4375 c -0.09067,0.333969 -0.19349,0.665408 -0.28125,1 h 9.65625 l -0.28125,-1 z"
             inkscape:connector-curvature="0"
             id="path3829"
             style="font-style:normal;font-variant:normal;font-weight:bold;font-stretch:normal;font-size:55.46882629px;line-height:125%;font-family:'Droid Sans';-inkscape-font-specification:'Abandoned Bitplane Bold';text-align:start;writing-mode:lr-tb;text-anchor:start;opacity:0.4;fill:#803300;fill-opacity:1;stroke:none" />
        </g>
        <rect
           ry="3.0576727"
           rx="3.9569874"
           y="-6.8256979"
           x="-12.916362"
           height="4.3519998"
           width="89.087997"
           id="rect4048"
           style="opacity:0.65090906;fill:url(#radialGradient4543);fill-opacity:1;stroke:none" />
        <path
           id="rect4371"
           d="m -11.246114,-7.507947 c -2.168522,0 -3.90625,1.74244 -3.90625,3.90625 v 70.59375 c 0,2.16381 1.737728,3.90625 3.90625,3.90625 h 83.1875 c 2.168522,0 3.90625,-1.74244 3.90625,-3.90625 v -70.59375 c 0,-2.16381 -1.737728,-3.90625 -3.90625,-3.90625 z"
           style="opacity:0.27999998;fill:url(#linearGradient4388);fill-opacity:1;stroke:none"
           inkscape:connector-curvature="0" />
        <g
           transform="matrix(1.0971739,0,0,1.1862198,93.934992,-36.128179)"
           style="display:inline"
           id="g907">
          <path
             sodipodi:nodetypes="cccc"
             style="fill:#e4e4e4;fill-opacity:1;fill-rule:nonzero"
             id="path3934"
             d="m -16.09028,60.62899 -0.668056,6.940357 c 4.652727,30.150038 -3.556117,21.724563 -24.432964,21.202766 z"
             inkscape:connector-curvature="0" />
          <path
             sodipodi:nodetypes="ccccccc"
             style="fill:#effcfe;fill-opacity:1;fill-rule:nonzero;stroke:#fefefe;stroke-width:0.19966105;stroke-miterlimit:4;stroke-dasharray:none;stroke-opacity:1"
             id="path3922"
             d="m -17.78173,60.019518 -24.374004,29 h 1.949919 l 23.185773,-28.34375 0.213274,-0.28125 v -0.375 c -0.481248,-0.273466 -0.974962,0 -0.974962,0 z"
             inkscape:connector-curvature="0" />
          <path
             style="fill:url(#linearGradient5360);fill-rule:nonzero"
             id="path4278"
             d="m -38.959951,93.609308 26,-31 c -2.328567,2.776369 -4.36141,3 -11,3 h -12 v 15 c 0,6.644068 0.04437,9.370179 -3,13 z"
             inkscape:connector-curvature="0" />
          <path
             sodipodi:nodetypes="cscscccsc"
             inkscape:connector-curvature="0"
             style="fill:#ffffff;fill-opacity:0.86614176;fill-rule:nonzero"
             id="path4282"
             d="m -12.837679,63.435742 c -3.547485,1.889883 -4.583031,2.224325 -11.221621,2.224325 h -12 v 15 c 0,6.644068 0.04437,9.370179 -3,13 4,-5 4.000382,-8.356667 4,-13 v -14 h 11 c 5,0 8.263026,0.393792 11.221621,-3.224325 z" />
        </g>
        <g
           id="g986">
          <path
             inkscape:connector-curvature="0"
             style="opacity:0;fill:#000000;fill-opacity:1;stroke:none"
             d="m -11.527364,-20.414197 c -2.182681,0 -3.9375,1.754819 -3.9375,3.9375 v 12 c 0,-2.182681 1.754819,-3.9375 3.9375,-3.9375 h 83.75 c 2.182681,0 3.9375,1.754819 3.9375,3.9375 v -12 c 0,-2.182681 -1.754819,-3.9375 -3.9375,-3.9375 z"
             id="rect4080" />
          <path
             inkscape:connector-curvature="0"
             style="fill:#e4e8e8;fill-opacity:1;stroke:#738589;stroke-width:0.99243301;stroke-miterlimit:4;stroke-dasharray:none;stroke-opacity:1"
             d="m -11.229786,-20.105492 c -2.168501,0 -3.925898,1.761406 -3.925898,3.934855 v 3.965838 c 0,-2.173448 1.757397,-3.934854 3.925898,-3.934854 h 83.154841 c 2.168502,0 3.925898,1.761406 3.925898,3.934854 v -3.965838 c 0,-2.173449 -1.757396,-3.934855 -3.925898,-3.934855 z"
             id="path4058" />
          <path
             id="path4060"
             d="m -11.229786,-12.17466 c -2.168501,0 -3.925898,1.761407 -3.925898,3.934856 v 3.965839 c 0,-2.173449 1.757397,-3.934856 3.925898,-3.934856 h 83.154841 c 2.168502,0 3.925898,1.761407 3.925898,3.934856 v -3.965839 c 0,-2.173449 -1.757396,-3.934856 -3.925898,-3.934856 z"
             style="fill:#e4e8e8;fill-opacity:1;stroke:#738589;stroke-width:0.99243301;stroke-miterlimit:4;stroke-dasharray:none;stroke-opacity:1"
             inkscape:connector-curvature="0" />
          <path
             inkscape:connector-curvature="0"
             style="fill:#e4e8e8;fill-opacity:1;stroke:#738589;stroke-width:0.99243301;stroke-miterlimit:4;stroke-dasharray:none;stroke-opacity:1"
             d="m -11.229786,-16.140075 c -2.168501,0 -3.925898,1.761406 -3.925898,3.934854 v 3.965839 c 0,-2.173449 1.757397,-3.934855 3.925898,-3.934855 h 83.154841 c 2.168502,0 3.925898,1.761406 3.925898,3.934855 v -3.965839 c 0,-2.173448 -1.757396,-3.934854 -3.925898,-3.934854 z"
             id="path4062" />
          <path
             style="opacity:0.25818182;fill:url(#linearGradient4369);fill-opacity:1;stroke:none"
             d="m -11.246114,-19.914197 c -2.168522,0 -3.90625,1.74244 -3.90625,3.90625 v 13 c 0,-2.16381 2.087258,-4.784629 4.255776,-4.780063 l 83.012737,0.174762 c 2.168517,0.00457 3.731487,2.441491 3.731487,4.605301 v -13 c 0,-2.16381 -1.737728,-3.90625 -3.90625,-3.90625 z"
             id="rect4358"
             inkscape:connector-curvature="0"
             sodipodi:nodetypes="sscsscsss" />
        </g>
        <path
           d="M -8.6870403,-4.6113384 V 16.630415 L 0.17816173,-4.6113384 Z m 10.850459,0 8.8652023,21.2417534 V -4.6113384 Z m -0.992628,8.3264711 -3.320172,8.2894653 h 3.207706 l 1.882571,4.69983 h 3.535324 L 3.8748478,10.450324 3.8063908,10.302298 Z"
           inkscape:connector-curvature="0"
           id="rect3362"
           style="display:inline;opacity:0.5;fill:#0e232e;fill-opacity:1;fill-rule:nonzero;stroke:none;stroke-width:1.13889492" />
        <rect
           transform="matrix(1.2146192,0,0,1.3113605,-18.088534,19.372096)"
           style="display:inline;opacity:0.5078125;fill:url(#linearGradient4767-6);fill-opacity:1;stroke:none"
           id="rect4146"
           width="75.965775"
           height="69.024437"
           x="2"
           y="-30"
           rx="3.9569874"
           ry="3.9569881"
           clip-path="url(#clipPath4156-4-1-2)" />
      </g>
      <path
         inkscape:connector-curvature="0"
         id="path4989"
         d="m 9.9740341,5.1444869 c -3.116621,0 -5.667965,2.53951 -5.667965,5.6460041 v 69.277996 c 0,3.106495 2.551344,5.646004 5.667965,5.646004 H 86.765819 c 3.116621,0 5.667968,-2.539509 5.667968,-5.646004 V 10.790491 c 0,-3.1064931 -2.551347,-5.6460041 -5.667968,-5.6460041 z m 0,2.319439 H 86.765819 c 1.888099,0 3.352022,1.480095 3.352022,3.3265651 v 69.277996 c 0,1.846474 -1.463923,3.326564 -3.352022,3.326564 H 9.9740341 c -1.888099,0 -3.352022,-1.48009 -3.352022,-3.326564 V 10.790491 c 0,-1.8464701 1.463923,-3.3265651 3.352022,-3.3265651 z"
         style="color:#000000;font-style:normal;font-variant:normal;font-weight:normal;font-stretch:normal;font-size:medium;line-height:normal;font-family:Sans;-inkscape-font-specification:Sans;text-indent:0;text-align:start;text-decoration:none;text-decoration-line:none;letter-spacing:normal;word-spacing:normal;text-transform:none;writing-mode:lr-tb;direction:ltr;baseline-shift:baseline;text-anchor:start;display:inline;overflow:visible;visibility:visible;fill:#241f1f;fill-opacity:0.63265303;stroke:none;stroke-width:2.3755002;marker:none;enable-background:accumulate" />
    </g>
  </g>
</svg>
