<?xml version="1.0" encoding="UTF-8" standalone="no"?>
<!-- Created with Inkscape (http://www.inkscape.org/) -->

<svg
   xmlns:dc="http://purl.org/dc/elements/1.1/"
   xmlns:cc="http://creativecommons.org/ns#"
   xmlns:rdf="http://www.w3.org/1999/02/22-rdf-syntax-ns#"
   xmlns:svg="http://www.w3.org/2000/svg"
   xmlns="http://www.w3.org/2000/svg"
   xmlns:xlink="http://www.w3.org/1999/xlink"
   xmlns:sodipodi="http://sodipodi.sourceforge.net/DTD/sodipodi-0.dtd"
   xmlns:inkscape="http://www.inkscape.org/namespaces/inkscape"
   width="96"
   height="96"
   id="svg2"
   version="1.1"
   inkscape:version="0.92.1 r15371"
   sodipodi:docname="image-x-xcf.svg">
  <script
     xlink:href=""
     id="script2985" />
  <defs
     id="defs4">
    <linearGradient
       inkscape:collect="always"
       id="linearGradient4152">
      <stop
         style="stop-color:#ffffff;stop-opacity:1;"
         offset="0"
         id="stop4154" />
      <stop
         style="stop-color:#ffffff;stop-opacity:0;"
         offset="1"
         id="stop4156" />
    </linearGradient>
    <linearGradient
       inkscape:collect="always"
       id="linearGradient4142">
      <stop
         style="stop-color:#ffffff;stop-opacity:1;"
         offset="0"
         id="stop4144" />
      <stop
         style="stop-color:#ffffff;stop-opacity:0;"
         offset="1"
         id="stop4146" />
    </linearGradient>
    <linearGradient
       inkscape:collect="always"
       xlink:href="#linearGradient4160"
       id="linearGradient4369"
       x1="2.5"
       y1="11.140625"
       x2="93.5"
       y2="11.140625"
       gradientUnits="userSpaceOnUse"
       gradientTransform="translate(-17.652364,-22.601697)" />
    <linearGradient
       id="linearGradient4160">
      <stop
         id="stop4170"
         offset="0"
         style="stop-color:#000000;stop-opacity:0;" />
      <stop
         style="stop-color:#000000;stop-opacity:0.96470588;"
         offset="0.03175623"
         id="stop4186" />
      <stop
         style="stop-color:#000000;stop-opacity:0;"
         offset="0.09425623"
         id="stop4182" />
      <stop
         style="stop-color:#000000;stop-opacity:0;"
         offset="0.49595019"
         id="stop4180" />
      <stop
         style="stop-color:#000000;stop-opacity:0;"
         offset="0.90525883"
         id="stop4178" />
      <stop
         id="stop4184"
         offset="0.96241152"
         style="stop-color:#000000;stop-opacity:0.98823529;" />
      <stop
         id="stop4168"
         offset="1"
         style="stop-color:#000000;stop-opacity:0;" />
    </linearGradient>
    <radialGradient
       inkscape:collect="always"
       xlink:href="#linearGradient4348"
       id="radialGradient4354"
       cx="47.699135"
       cy="55.411221"
       fx="47.699135"
       fy="55.411221"
       r="41.470058"
       gradientTransform="matrix(1.0772109,0,0,0.06481785,-21.162394,64.974669)"
       gradientUnits="userSpaceOnUse" />
    <linearGradient
       inkscape:collect="always"
       id="linearGradient4348">
      <stop
         style="stop-color:#000000;stop-opacity:1;"
         offset="0"
         id="stop4350" />
      <stop
         style="stop-color:#000000;stop-opacity:0;"
         offset="1"
         id="stop4352" />
    </linearGradient>
    <linearGradient
       gradientTransform="matrix(1.0000468,0,0,0.991319,-17.353732,9.636111)"
       inkscape:collect="always"
       xlink:href="#linearGradient13484"
       id="linearGradient13490"
       x1="47.056839"
       y1="22.252237"
       x2="48.640831"
       y2="22.252237"
       gradientUnits="userSpaceOnUse" />
    <linearGradient
       id="linearGradient13484">
      <stop
         style="stop-color:#849699;stop-opacity:1"
         offset="0"
         id="stop13486" />
      <stop
         style="stop-color:#0b0d0d;stop-opacity:0"
         offset="1"
         id="stop13488" />
    </linearGradient>
    <linearGradient
       inkscape:collect="always"
       xlink:href="#linearGradient4160"
       id="linearGradient4388"
       x1="2.5"
       y1="54.296875"
       x2="93.5"
       y2="54.296875"
       gradientUnits="userSpaceOnUse"
       gradientTransform="translate(-17.652364,-22.601697)" />
    <linearGradient
       id="linearGradient3564">
      <stop
         id="stop3566"
         offset="0"
         style="stop-color:#000000;stop-opacity:0;" />
      <stop
         style="stop-color:#000000;stop-opacity:0.96470588;"
         offset="0.03175623"
         id="stop3568" />
      <stop
         style="stop-color:#000000;stop-opacity:0;"
         offset="0.09425623"
         id="stop3570" />
      <stop
         style="stop-color:#000000;stop-opacity:0;"
         offset="0.49595019"
         id="stop3572" />
      <stop
         style="stop-color:#000000;stop-opacity:0;"
         offset="0.90525883"
         id="stop3574" />
      <stop
         id="stop3576"
         offset="0.96241152"
         style="stop-color:#000000;stop-opacity:0.98823529;" />
      <stop
         id="stop3578"
         offset="1"
         style="stop-color:#000000;stop-opacity:0;" />
    </linearGradient>
    <radialGradient
       inkscape:collect="always"
       xlink:href="#linearGradient13492"
       id="radialGradient13510"
       cx="34.164101"
       cy="10.81943"
       fx="34.164101"
       fy="10.81943"
       r="17.263121"
       gradientTransform="matrix(0.00664983,-1.4155821,1.7836413,0.00815867,-2.7114916,65.575076)"
       gradientUnits="userSpaceOnUse" />
    <linearGradient
       inkscape:collect="always"
       id="linearGradient13492">
      <stop
         style="stop-color:#516467;stop-opacity:1;"
         offset="0"
         id="stop13494" />
      <stop
         style="stop-color:#516467;stop-opacity:0;"
         offset="1"
         id="stop13496" />
    </linearGradient>
    <linearGradient
       inkscape:collect="always"
       xlink:href="#linearGradient4135"
       id="linearGradient4334"
       gradientUnits="userSpaceOnUse"
       gradientTransform="matrix(0.98921206,0,0,0.98706256,-17.134546,-9.704219)"
       spreadMethod="reflect"
       x1="53.8978"
       y1="-69.456512"
       x2="27.952002"
       y2="23.167999" />
    <linearGradient
       id="linearGradient4135">
      <stop
         style="stop-color:#e3e9e9;stop-opacity:1;"
         offset="0"
         id="stop4137" />
      <stop
         style="stop-color:#eef2f2;stop-opacity:1;"
         offset="0.21971546"
         id="stop4139" />
      <stop
         style="stop-color:#f9fbfb;stop-opacity:1;"
         offset="0.47877571"
         id="stop4141" />
      <stop
         style="stop-color:#ffffff;stop-opacity:1;"
         offset="1"
         id="stop4143" />
    </linearGradient>
    <radialGradient
       inkscape:collect="always"
       xlink:href="#linearGradient4050"
       id="radialGradient4056"
       cx="48"
       cy="-16.128"
       fx="48"
       fy="-16.128"
       r="44.543999"
       gradientTransform="matrix(1,0,0,0.04885057,-16.372364,-3.861835)"
       gradientUnits="userSpaceOnUse" />
    <linearGradient
       inkscape:collect="always"
       id="linearGradient4050">
      <stop
         style="stop-color:#ffffff;stop-opacity:1;"
         offset="0"
         id="stop4052" />
      <stop
         style="stop-color:#ffffff;stop-opacity:0;"
         offset="1"
         id="stop4054" />
    </linearGradient>
    <radialGradient
       inkscape:collect="always"
       xlink:href="#linearGradient4348"
       id="radialGradient4553"
       gradientUnits="userSpaceOnUse"
       gradientTransform="matrix(1.0941586,0,0,0.06338579,-21.267962,65.113409)"
       cx="47.699135"
       cy="55.411221"
       fx="47.699135"
       fy="55.411221"
       r="41.470058" />
    <linearGradient
       x1="65.262688"
       y1="86.849419"
       x2="65.599998"
       y2="42.399998"
       id="linearGradient3849"
       xlink:href="#linearGradient3746"
       gradientUnits="userSpaceOnUse"
       gradientTransform="matrix(0.83333333,0,0,0.83333333,-8.6666651,-5.3333307)" />
    <linearGradient
       id="linearGradient3746">
      <stop
         id="stop3748"
         style="stop-color:#000000;stop-opacity:1"
         offset="0" />
      <stop
         id="stop3754"
         style="stop-color:#000000;stop-opacity:0"
         offset="1" />
    </linearGradient>
    <linearGradient
       x1="65.262688"
       y1="86.849419"
       x2="65.599998"
       y2="42.399998"
       id="linearGradient3864"
       xlink:href="#linearGradient3746"
       gradientUnits="userSpaceOnUse"
       gradientTransform="matrix(0.83333333,0,0,0.83333333,-8.6666651,-5.3333307)" />
    <linearGradient
       id="linearGradient3337">
      <stop
         id="stop3339"
         style="stop-color:#000000;stop-opacity:1"
         offset="0" />
      <stop
         id="stop3341"
         style="stop-color:#000000;stop-opacity:0"
         offset="1" />
    </linearGradient>
    <linearGradient
       x1="65.262688"
       y1="86.849419"
       x2="65.262688"
       y2="43.591393"
       id="linearGradient3861"
       xlink:href="#linearGradient3746"
       gradientUnits="userSpaceOnUse"
       gradientTransform="matrix(0.83333333,0,0,0.83333333,-8.6666651,-5.3333307)" />
    <linearGradient
       id="linearGradient3344">
      <stop
         id="stop3346"
         style="stop-color:#000000;stop-opacity:1"
         offset="0" />
      <stop
         id="stop3348"
         style="stop-color:#000000;stop-opacity:0"
         offset="1" />
    </linearGradient>
    <linearGradient
       x1="65.262688"
       y1="64.205269"
       x2="65.262688"
       y2="43.780487"
       id="linearGradient3858"
       xlink:href="#linearGradient3737-2"
       gradientUnits="userSpaceOnUse"
       gradientTransform="matrix(0.83333333,0,0,0.83333333,-8.6666651,-6.3333307)" />
    <linearGradient
       id="linearGradient3737-2">
      <stop
         id="stop3739-5"
         style="stop-color:#ffffff;stop-opacity:1"
         offset="0" />
      <stop
         id="stop3741-1"
         style="stop-color:#ffffff;stop-opacity:0"
         offset="1" />
    </linearGradient>
    <linearGradient
       x1="51.42857"
       y1="72.785713"
       x2="90.714287"
       y2="72.785713"
       id="linearGradient3188-6"
       xlink:href="#linearGradient3778"
       gradientUnits="userSpaceOnUse" />
    <linearGradient
       id="linearGradient3778">
      <stop
         id="stop3780"
         style="stop-color:#205e8a;stop-opacity:1;"
         offset="0" />
      <stop
         id="stop3782"
         style="stop-color:#258dd6;stop-opacity:1;"
         offset="1" />
    </linearGradient>
    <clipPath
       id="clipPath3794">
      <path
         d="m -98,6 c -3.324,0 -6,2.676 -6,6 l 0,72 c 0,3.324 2.676,6 6,6 l 72,0 c 3.324,0 6,-2.676 6,-6 l 0,-72 c 0,-3.324 -2.676,-6 -6,-6 l -72,0 z m 46.03125,12.5 c 2.804915,0.267979 4.168695,1.994294 5.65625,4.375 l 2.21875,4.21875 3.5,-2.34375 -6.5625,12.375 -14.0625,0.03125 4.40625,-2.5625 c -1.242015,-3.116045 -2.893578,-6.682146 -4.96875,-9.78125 -1.857877,-2.774583 -4.111923,-5.19971 -5.8125,-6.28125 L -51.96875,18.5 z M -72.3125,20 c 4.13398,0.08768 6.75215,3.937752 8.53125,6.5625 l -5.4375,11.15625 -12,-8.03125 5.8125,-9.09375 C -74.283247,20.148648 -73.266495,19.97977 -72.3125,20 z M -38.34375,36.15625 -32.875,48 c 0.177104,2.984596 -4.345754,7.126059 -7.15625,7.09375 l -4.8125,-0.03125 -5.59375,-11.125 12.09375,-7.78125 z M -78.4375,39.1875 -70.96875,50.8125 -74.75,48.84375 -80.78125,61.75 c -0.850549,2.429145 -0.908893,4.937462 0.0625,7.28125 -6.79777,-9.441049 -12.538331,-14.172415 -8,-23.875 L -87.3125,42.1875 -91.5,39.90625 -78.4375,39.1875 z m 25.65625,13.90625 0.03125,4.46875 13.5625,-0.03125 c 2.422356,-0.273241 4.555757,-1.310685 6.09375,-3.28125 -4.908571,10.685489 -6.315635,18.2454 -16.5,18.25 l -3.15625,0 -0.03125,5 -6.4375,-12.125 6.4375,-12.28125 z m -10.15625,4 -0.09375,15 -12.34375,0 c -2.589165,-1.162418 -4.061887,-7.337428 -2.78125,-10 l 2.1875,-4.53125 13.03125,-0.46875 z"
         inkscape:connector-curvature="0"
         id="path3796"
         style="fill:#ff00ff;fill-opacity:1;fill-rule:nonzero;stroke:none" />
    </clipPath>
    <filter
       color-interpolation-filters="sRGB"
       id="filter3798">
      <feGaussianBlur
         id="feGaussianBlur3800"
         stdDeviation="1.7644507" />
    </filter>
    <linearGradient
       x1="62.136082"
       y1="103.95654"
       x2="62.136082"
       y2="24.043467"
       id="linearGradient3759"
       xlink:href="#linearGradient4360"
       gradientUnits="userSpaceOnUse"
       gradientTransform="matrix(0.7525584,0,0,0.8008702,1.2389688,-3.2556953)" />
    <linearGradient
       id="linearGradient4360">
      <stop
         id="stop4362"
         style="stop-color:#0092f9;stop-opacity:1;"
         offset="0" />
      <stop
         offset="0.5"
         style="stop-color:#78f1ff;stop-opacity:1;"
         id="stop4135" />
      <stop
         id="stop4364"
         style="stop-color:#007e04;stop-opacity:1;"
         offset="1" />
    </linearGradient>
    <radialGradient
       inkscape:collect="always"
       xlink:href="#linearGradient4360"
       id="radialGradient4137"
       cx="47.815025"
       cy="48"
       fx="47.815025"
       fy="48"
       r="29.315023"
       gradientTransform="matrix(1,0,0,1.0063099,0,-0.30287626)"
       gradientUnits="userSpaceOnUse" />
    <linearGradient
       inkscape:collect="always"
       xlink:href="#linearGradient4360"
       id="linearGradient4116"
       x1="23.576078"
       y1="-1.2683213"
       x2="22.910723"
       y2="54.605522"
       gradientUnits="userSpaceOnUse" />
    <radialGradient
       inkscape:collect="always"
       xlink:href="#linearGradient4142"
       id="radialGradient4148"
       cx="11.699564"
       cy="83.136368"
       fx="11.699564"
       fy="83.136368"
       r="14.308982"
       gradientTransform="matrix(0.99952829,0.03324668,-0.02862945,1.0086909,2.3856674,-1.4951529)"
       gradientUnits="userSpaceOnUse" />
    <radialGradient
       inkscape:collect="always"
       xlink:href="#linearGradient4152"
       id="radialGradient4158"
       cx="11.904393"
       cy="80.202718"
       fx="11.904393"
       fy="80.202718"
       r="14.308982"
       gradientTransform="matrix(1,0,0,0.86922284,0,10.488684)"
       gradientUnits="userSpaceOnUse" />
    <linearGradient
       id="linearGradient4360-3">
      <stop
         id="stop4362-0"
         style="stop-color:#2567a5;stop-opacity:1;"
         offset="0" />
      <stop
         offset="0.5"
         style="stop-color:#42b5c3;stop-opacity:1;"
         id="stop4135-2" />
      <stop
         id="stop4364-2"
         style="stop-color:#1e6020;stop-opacity:1;"
         offset="1" />
    </linearGradient>
    <radialGradient
       inkscape:collect="always"
       xlink:href="#linearGradient4152-4"
       id="radialGradient3374-8"
       gradientUnits="userSpaceOnUse"
       gradientTransform="matrix(1,0,0,0.86922284,0,10.488684)"
       cx="11.904393"
       cy="80.202721"
       fx="11.904393"
       fy="80.202721"
       r="14.308982" />
    <linearGradient
       inkscape:collect="always"
       id="linearGradient4152-4">
      <stop
         style="stop-color:#ffffff;stop-opacity:1;"
         offset="0"
         id="stop4154-1" />
      <stop
         style="stop-color:#ffffff;stop-opacity:0;"
         offset="1"
         id="stop4156-5" />
    </linearGradient>
    <linearGradient
       y2="47.000011"
       x2="90"
       y1="47.000011"
       x1="6"
       gradientTransform="matrix(1.1071428,0,0,1.1071426,-4.9939026,-3.620687)"
       gradientUnits="userSpaceOnUse"
       id="linearGradient4071"
       xlink:href="#linearGradient6139-0"
       inkscape:collect="always" />
    <linearGradient
       id="linearGradient6139-0">
      <stop
         style="stop-color:#b0b9be;stop-opacity:1"
         offset="0"
         id="stop6141-2" />
      <stop
         id="stop6151-0"
         offset="0.25"
         style="stop-color:#ffffff;stop-opacity:1;" />
      <stop
         id="stop6147-1"
         offset="0.5"
         style="stop-color:#93a2a7;stop-opacity:1" />
      <stop
         style="stop-color:#f9fbfb;stop-opacity:1"
         offset="0.75"
         id="stop6149-4" />
      <stop
         style="stop-color:#b0b8be;stop-opacity:1"
         offset="1"
         id="stop6143-4" />
    </linearGradient>
    <linearGradient
       gradientUnits="userSpaceOnUse"
       y2="88.171875"
       x2="94.5"
       y1="88.171875"
       x1="1.5"
       id="linearGradient4129"
       xlink:href="#linearGradient3832-0-6-1-1"
       inkscape:collect="always"
       gradientTransform="translate(0.1489535,0.415026)" />
    <linearGradient
       id="linearGradient3832-0-6-1-1">
      <stop
         id="stop3834-6-3-7-1"
         offset="0"
         style="stop-color:#000000;stop-opacity:1;" />
      <stop
         style="stop-color:#000000;stop-opacity:0.58823532;"
         offset="0.1"
         id="stop3872-2-4" />
      <stop
         id="stop3844-6-2-7-6"
         offset="0.89999998"
         style="stop-color:#000000;stop-opacity:0.58823532;" />
      <stop
         id="stop3836-5-0-2-9"
         offset="1"
         style="stop-color:#000000;stop-opacity:1;" />
    </linearGradient>
    <radialGradient
       r="43.199203"
       fy="44.892841"
       fx="13.948145"
       cy="44.892841"
       cx="13.948145"
       gradientTransform="matrix(0.97513378,0,0,0.04919072,34.047649,80.581722)"
       gradientUnits="userSpaceOnUse"
       id="radialGradient7462"
       xlink:href="#linearGradient4152"
       inkscape:collect="always" />
    <radialGradient
       r="43.199203"
       fy="44.892841"
       fx="13.948145"
       cy="44.892841"
       cx="13.948145"
       gradientTransform="matrix(0.88832663,0,0,0.04919072,31.959518,-90.31726)"
       gradientUnits="userSpaceOnUse"
       id="radialGradient7464"
       xlink:href="#linearGradient4152"
       inkscape:collect="always" />
    <radialGradient
       r="44.543999"
       fy="-16.128"
       fx="48"
       cy="-16.128"
       cx="48"
       gradientTransform="matrix(1,0,0,0.04885057,-16.372364,-3.861835)"
       gradientUnits="userSpaceOnUse"
       id="radialGradient4543"
       xlink:href="#linearGradient4152"
       inkscape:collect="always" />
    <linearGradient
       y2="14.514202"
       x2="50.527882"
       y1="-28.64156"
       x1="2.7713892"
       gradientUnits="userSpaceOnUse"
       id="linearGradient4767-6"
       xlink:href="#linearGradient4152"
       inkscape:collect="always" />
    <clipPath
       clipPathUnits="userSpaceOnUse"
       id="clipPath4156-4-1-2">
      <path
         style="opacity:0.6;fill:#ffffff;fill-opacity:1;stroke:none"
         d="m 27.046336,-55.695463 -14.21366,13.321486 h 0.06127 l 15.653407,21.770763 10.231384,-10.546177 C 38.561832,-32.30156 27.468089,-54.819245 27.046336,-55.695463 Z M 9.6468554,-39.382809 -5.2407289,-25.32124 15.987863,-7.8059573 26.372412,-18.382966 Z m 31.4906096,12.951445 -9.741259,9.713584 8.944804,12.4580526 7.780753,-7.5550056 z m -49.8397109,4.378822 -13.7541661,12.9822847 26.2830181,13.84571 0.06127,-0.0617 -0.122531,-0.0617 L 13.598503,-5.4007374 -8.7022409,-22.052595 Z m 38.0154159,7.400825 -9.802525,9.7752596 11.579232,9.5594001 7.62759,-7.40083 -8.669108,-11.0087257 z m 20.187073,5.6739697 -7.382526,7.2158 6.187844,8.54179 5.820249,-6.13651996 z m -32.195166,6.32154 -9.5574606,9.49772 13.6622686,7.1849703 7.933918,-7.6783603 z m 23.311629,2.37443004 -7.10683,6.93826996 8.362778,6.9074403 5.360756,-5.6739699 -0.06127,-0.0925 -0.0919,0.12335 -6.463539,-8.20258036 z m -8.730374,8.54178036 -7.505057,7.3391599 10.353916,5.45811 c 1.397496,-1.32103 5.67514,-6.12292 5.850882,-6.32154 z"
         id="path4158-0-8-6"
         inkscape:connector-curvature="0" />
    </clipPath>
    <linearGradient
       inkscape:collect="always"
       xlink:href="#linearGradient4360-3"
       id="linearGradient3370-9"
       gradientUnits="userSpaceOnUse"
       x1="23.576078"
       y1="-1.2683213"
       x2="22.910723"
       y2="54.605522" />
    <filter
       style="color-interpolation-filters:sRGB"
       inkscape:collect="always"
       id="filter4136-7"
       x="-0.46463007"
       width="1.9292603"
       y="-0.46463007"
       height="1.9292603">
      <feGaussianBlur
         inkscape:collect="always"
         stdDeviation="2.1559548"
         id="feGaussianBlur4138-4" />
    </filter>
    <radialGradient
       inkscape:collect="always"
       xlink:href="#linearGradient4152"
       id="radialGradient3372-2"
       gradientUnits="userSpaceOnUse"
       gradientTransform="matrix(0.99952829,0.03324668,-0.02862945,1.0086909,2.3856674,-1.4951529)"
       cx="11.699564"
       cy="83.136368"
       fx="11.699564"
       fy="83.136368"
       r="14.308982" />
    <radialGradient
       r="14.308982"
       fy="80.202721"
       fx="11.904393"
       cy="80.202721"
       cx="11.904393"
       gradientTransform="matrix(1,0,0,0.86922284,0,10.488684)"
       gradientUnits="userSpaceOnUse"
       id="radialGradient3411"
       xlink:href="#linearGradient4152"
       inkscape:collect="always" />
  </defs>
  <sodipodi:namedview
     id="base"
     pagecolor="#ffffff"
     bordercolor="#666666"
     borderopacity="1.0"
     inkscape:pageopacity="0.0"
     inkscape:pageshadow="2"
     inkscape:zoom="3.9775196"
     inkscape:cx="66.06457"
     inkscape:cy="38.320031"
     inkscape:current-layer="g1003"
     showgrid="true"
     inkscape:document-units="px"
     inkscape:grid-bbox="true"
     inkscape:showpageshadow="false"
     gridtolerance="1"
     guidetolerance="1"
     objecttolerance="1"
     inkscape:window-width="1280"
     inkscape:window-height="966"
     inkscape:window-x="0"
     inkscape:window-y="0"
     inkscape:window-maximized="1"
     showguides="true"
     inkscape:guide-bbox="true">
    <sodipodi:guide
       orientation="0,1"
       position="-57.781652,64.840949"
       id="guide4181"
       inkscape:locked="false" />
  </sodipodi:namedview>
  <metadata
     id="metadata7">
    <rdf:RDF>
      <cc:Work
         rdf:about="">
        <dc:format>image/svg+xml</dc:format>
        <dc:type
           rdf:resource="http://purl.org/dc/dcmitype/StillImage" />
        <dc:title />
      </cc:Work>
    </rdf:RDF>
  </metadata>
  <g
     id="layer1"
     inkscape:label="Layer 1"
     inkscape:groupmode="layer"
     transform="translate(0,32)">
    <g
       id="g4327"
       transform="translate(17.652363,-9.3983002)">
      <g
         transform="translate(-17.652363,-1049.1214)"
         id="layer1-0"
         inkscape:label="Livello 1">
        <g
           id="g1273"
           style="display:inline"
           transform="translate(-0.14895645,1026.1047)">
          <path
             inkscape:connector-curvature="0"
             id="path3288"
             d="M 89.29181,0.415026 H 7.0060911 c -3.798848,0 -6.8571352,3.058285 -6.8571352,6.8571399 V 89.557884 c 0,3.798857 3.0582872,6.857142 6.8571352,6.857142 H 89.29181 c 3.798857,0 6.857147,-3.058285 6.857147,-6.857142 V 7.2721659 c 0,-3.7988549 -3.05829,-6.8571399 -6.857147,-6.8571399 z"
             style="display:inline;opacity:0.15;fill:#000000;fill-opacity:1;fill-rule:nonzero;stroke:none" />
          <path
             style="display:inline;opacity:0.15;fill:#000000;fill-opacity:1;fill-rule:nonzero;stroke:none"
             d="M 88.648954,1.165026 H 7.6489471 c -3.739492,0 -6.749993,3.010499 -6.749993,6.7499969 V 88.915026 c 0,3.739501 3.010501,6.75 6.749993,6.75 H 88.648954 c 3.739503,0 6.750003,-3.010499 6.750003,-6.75 V 7.9150229 c 0,-3.7394979 -3.0105,-6.7499969 -6.750003,-6.7499969 z"
             id="path4085"
             inkscape:connector-curvature="0" />
          <path
             inkscape:connector-curvature="0"
             id="rect4251-1"
             d="M 88.006093,1.915026 H 8.2918111 c -3.680143,0 -6.6428566,2.962713 -6.6428566,6.6428549 V 88.272171 c 0,3.680142 2.9627136,6.642856 6.6428566,6.642856 H 88.006093 c 3.680143,0 6.642854,-2.962714 6.642854,-6.642856 V 8.5578809 c 0,-3.6801419 -2.962711,-6.6428549 -6.642854,-6.6428549 z"
             style="display:inline;fill:url(#linearGradient4071);fill-opacity:1;fill-rule:nonzero;stroke:none" />
          <path
             style="color:#000000;font-style:normal;font-variant:normal;font-weight:normal;font-stretch:normal;font-size:medium;line-height:normal;font-family:Sans;-inkscape-font-specification:Sans;text-indent:0;text-align:start;text-decoration:none;text-decoration-line:none;letter-spacing:normal;word-spacing:normal;text-transform:none;writing-mode:lr-tb;direction:ltr;baseline-shift:baseline;text-anchor:start;display:inline;overflow:visible;visibility:visible;fill:#241f1f;fill-opacity:0.63265303;stroke:none;stroke-width:2.3755002;marker:none;enable-background:accumulate"
             d="m 9.9740341,5.1444869 c -3.116621,0 -5.667965,2.53951 -5.667965,5.6460041 v 69.277996 c 0,3.106495 2.551344,5.646004 5.667965,5.646004 H 86.765819 c 3.116621,0 5.667968,-2.539509 5.667968,-5.646004 V 10.790491 c 0,-3.1064931 -2.551347,-5.6460041 -5.667968,-5.6460041 z m 0,2.319439 H 86.765819 c 1.888099,0 3.352022,1.480095 3.352022,3.3265651 v 69.277996 c 0,1.846474 -1.463923,3.326564 -3.352022,3.326564 H 9.9740341 c -1.888099,0 -3.352022,-1.48009 -3.352022,-3.326564 V 10.790491 c 0,-1.8464701 1.463923,-3.3265651 3.352022,-3.3265651 z"
             id="path4989"
             inkscape:connector-curvature="0" />
          <path
             id="path4118-9"
             d="m 1.6489535,82.258776 v 6 c 0,3.680142 2.9761066,6.65625 6.6562496,6.65625 H 87.992703 c 3.680143,0 6.656254,-2.976108 6.656254,-6.65625 v -6 c 0,3.680142 -2.976111,6.65625 -6.656254,6.65625 H 8.3052031 c -3.680143,0 -6.6562496,-2.976108 -6.6562496,-6.65625 z"
             style="display:inline;opacity:0.65818182;fill:url(#linearGradient4129);fill-opacity:1;fill-rule:nonzero;stroke:none"
             inkscape:connector-curvature="0" />
          <rect
             ry="4.25"
             rx="0"
             y="80.665031"
             x="5.5239539"
             height="4.25"
             width="84.250008"
             id="rect4131"
             style="opacity:0.55;fill:url(#radialGradient7462);fill-opacity:1;stroke:none" />
          <rect
             transform="rotate(90)"
             style="opacity:0.669;fill:url(#radialGradient7464);fill-opacity:1;stroke:none"
             id="rect4141"
             width="76.75"
             height="4.25"
             x="5.9750223"
             y="-90.233963"
             rx="0"
             ry="4.25" />
          <g
             id="g1003"
             transform="matrix(0.91297981,0,0,0.8444453,20.28803,23.983749)">
            <path
               id="path1246"
               d="m -11.246114,-7.507947 c -2.168522,0 -3.90625,1.74244 -3.90625,3.90625 v 70.59375 c 0,2.16381 1.737728,3.90625 3.90625,3.90625 h 83.1875 c 2.168522,0 3.90625,-1.74244 3.90625,-3.90625 v -70.59375 c 0,-2.16381 -1.737728,-3.90625 -3.90625,-3.90625 z"
               style="opacity:1;fill:#ebedee;fill-opacity:1;stroke:none"
               inkscape:connector-curvature="0" />
            <rect
               style="opacity:0.65090906;fill:url(#radialGradient4543);fill-opacity:1;stroke:none"
               id="rect4048"
               width="89.087997"
               height="4.3519998"
               x="-12.916362"
               y="-6.8256979"
               rx="3.9569874"
               ry="3.0576727" />
            <path
               inkscape:connector-curvature="0"
               style="opacity:0.27999998;fill:url(#linearGradient4388);fill-opacity:1;stroke:none"
               d="m -11.246114,-7.507947 c -2.168522,0 -3.90625,1.74244 -3.90625,3.90625 v 70.59375 c 0,2.16381 1.737728,3.90625 3.90625,3.90625 h 83.1875 c 2.168522,0 3.90625,-1.74244 3.90625,-3.90625 v -70.59375 c 0,-2.16381 -1.737728,-3.90625 -3.90625,-3.90625 z"
               id="rect4371" />
            <g
               id="g986">
              <path
                 id="rect4080"
                 d="m -11.527364,-20.414197 c -2.182681,0 -3.9375,1.754819 -3.9375,3.9375 v 12 c 0,-2.182681 1.754819,-3.9375 3.9375,-3.9375 h 83.75 c 2.182681,0 3.9375,1.754819 3.9375,3.9375 v -12 c 0,-2.182681 -1.754819,-3.9375 -3.9375,-3.9375 z"
                 style="opacity:0;fill:#000000;fill-opacity:1;stroke:none"
                 inkscape:connector-curvature="0" />
              <path
                 id="path4058"
                 d="m -11.229786,-20.105492 c -2.168501,0 -3.925898,1.761406 -3.925898,3.934855 v 3.965838 c 0,-2.173448 1.757397,-3.934854 3.925898,-3.934854 h 83.154841 c 2.168502,0 3.925898,1.761406 3.925898,3.934854 v -3.965838 c 0,-2.173449 -1.757396,-3.934855 -3.925898,-3.934855 z"
                 style="fill:#e4e8e8;fill-opacity:1;stroke:#738589;stroke-width:0.99243301;stroke-miterlimit:4;stroke-dasharray:none;stroke-opacity:1"
                 inkscape:connector-curvature="0" />
              <path
                 inkscape:connector-curvature="0"
                 style="fill:#e4e8e8;fill-opacity:1;stroke:#738589;stroke-width:0.99243301;stroke-miterlimit:4;stroke-dasharray:none;stroke-opacity:1"
                 d="m -11.229786,-12.17466 c -2.168501,0 -3.925898,1.761407 -3.925898,3.934856 v 3.965839 c 0,-2.173449 1.757397,-3.934856 3.925898,-3.934856 h 83.154841 c 2.168502,0 3.925898,1.761407 3.925898,3.934856 v -3.965839 c 0,-2.173449 -1.757396,-3.934856 -3.925898,-3.934856 z"
                 id="path4060" />
              <path
                 id="path4062"
                 d="m -11.229786,-16.140075 c -2.168501,0 -3.925898,1.761406 -3.925898,3.934854 v 3.965839 c 0,-2.173449 1.757397,-3.934855 3.925898,-3.934855 h 83.154841 c 2.168502,0 3.925898,1.761406 3.925898,3.934855 v -3.965839 c 0,-2.173448 -1.757396,-3.934854 -3.925898,-3.934854 z"
                 style="fill:#e4e8e8;fill-opacity:1;stroke:#738589;stroke-width:0.99243301;stroke-miterlimit:4;stroke-dasharray:none;stroke-opacity:1"
                 inkscape:connector-curvature="0" />
              <path
                 sodipodi:nodetypes="sscsscsss"
                 inkscape:connector-curvature="0"
                 id="rect4358"
                 d="m -11.246114,-19.914197 c -2.168522,0 -3.90625,1.74244 -3.90625,3.90625 v 13 c 0,-2.16381 2.087258,-4.784629 4.255776,-4.780063 l 83.012737,0.174762 c 2.168517,0.00457 3.731487,2.441491 3.731487,4.605301 v -13 c 0,-2.16381 -1.737728,-3.90625 -3.90625,-3.90625 z"
                 style="opacity:0.25818182;fill:url(#linearGradient4369);fill-opacity:1;stroke:none" />
            </g>
            <g
               transform="matrix(1.0458471,0,0,1.1307272,-1.2225122,-1.8798352)"
               style="display:inline"
               id="g1167">
              <g
                 id="g3359"
                 transform="matrix(0.9753063,0,0,0.91189475,0.06196646,0.3141562)"
                 style="opacity:0.86545458">
                <g
                   id="g4104"
                   transform="matrix(1.0157329,0,0,0.97790633,4.3229467,8.5215449)"
                   style="stroke:#525252;stroke-width:0.69999999;stroke-miterlimit:4;stroke-dasharray:none;stroke-opacity:1">
                  <rect
                     y="-5.0244074"
                     x="-12.909661"
                     height="62.425987"
                     width="78.450333"
                     id="rect3332"
                     style="fill:#dbe3e2;fill-opacity:1;stroke:#525252;stroke-width:0.69999999;stroke-linecap:round;stroke-linejoin:round;stroke-miterlimit:4;stroke-dasharray:none;stroke-dashoffset:0;stroke-opacity:1" />
                  <rect
                     style="fill:url(#linearGradient3370-9);fill-opacity:1;stroke:#525252;stroke-width:0.69999999;stroke-linecap:round;stroke-linejoin:round;stroke-miterlimit:4;stroke-dasharray:none;stroke-dashoffset:0;stroke-opacity:1"
                     id="rect4102"
                     width="74.092117"
                     height="58.025333"
                     x="-10.730556"
                     y="-2.8240807" />
                </g>
                <path
                   sodipodi:type="star"
                   style="fill:#dbe3e2;fill-opacity:1;stroke:#a1d3ea;stroke-width:0.27914038;stroke-linecap:round;stroke-linejoin:round;stroke-miterlimit:4;stroke-dasharray:none;stroke-dashoffset:0;stroke-opacity:1"
                   id="path4108"
                   sodipodi:sides="3"
                   sodipodi:cx="11.904393"
                   sodipodi:cy="84.287613"
                   sodipodi:r1="16.522589"
                   sodipodi:r2="8.3527985"
                   sodipodi:arg1="-1.5707963"
                   sodipodi:arg2="-0.52359878"
                   inkscape:flatsided="false"
                   inkscape:rounded="0"
                   inkscape:randomized="0"
                   d="m 11.904394,67.765024 7.233735,12.34619 7.075246,12.437694 -14.308982,0.0915 -14.3089816,-0.0915 7.0752461,-12.437693 z"
                   transform="matrix(1.2689468,0,0,0.97790633,-3.246905,-27.248162)"
                   inkscape:transform-center-y="-3.9946456" />
                <path
                   inkscape:transform-center-y="-6.918032"
                   transform="matrix(1.904291,0,0,1.6935653,18.628572,-93.676766)"
                   d="m 11.904394,67.765024 7.233735,12.34619 7.075246,12.437694 -14.308982,0.0915 -14.3089816,-0.0915 7.0752461,-12.437693 z"
                   inkscape:randomized="0"
                   inkscape:rounded="0"
                   inkscape:flatsided="false"
                   sodipodi:arg2="-0.52359878"
                   sodipodi:arg1="-1.5707963"
                   sodipodi:r2="8.3527985"
                   sodipodi:r1="16.522589"
                   sodipodi:cy="84.287613"
                   sodipodi:cx="11.904393"
                   sodipodi:sides="3"
                   id="path4118"
                   style="fill:#dbe3e2;fill-opacity:1;stroke:#bee9f1;stroke-width:0.33298296;stroke-linecap:round;stroke-linejoin:round;stroke-miterlimit:4;stroke-dasharray:none;stroke-dashoffset:0;stroke-opacity:1"
                   sodipodi:type="star" />
                <circle
                   style="fill:#fffc33;fill-opacity:1;stroke:#ffc903;stroke-width:1;stroke-linecap:round;stroke-linejoin:round;stroke-miterlimit:4;stroke-dasharray:none;stroke-dashoffset:0;stroke-opacity:1;filter:url(#filter4136-7)"
                   id="path4120"
                   transform="matrix(0.80828644,0,0,0.74446441,-13.79235,-14.909549)"
                   cx="24.960825"
                   cy="43.774277"
                   r="5.5681839" />
                <circle
                   transform="matrix(0.80828644,0,0,0.74446441,-13.79235,-14.909549)"
                   id="path4122"
                   style="opacity:0.40363638;fill:#fffc33;fill-opacity:1;stroke:#ffc903;stroke-width:1;stroke-linecap:round;stroke-linejoin:round;stroke-miterlimit:4;stroke-dasharray:none;stroke-dashoffset:0;stroke-opacity:1"
                   cx="24.960825"
                   cy="43.774277"
                   r="5.5681839" />
                <path
                   sodipodi:type="star"
                   style="opacity:0.7309091;fill:url(#radialGradient3372-2);fill-opacity:1;stroke:none"
                   id="path4140"
                   sodipodi:sides="3"
                   sodipodi:cx="11.904393"
                   sodipodi:cy="84.287613"
                   sodipodi:r1="16.522589"
                   sodipodi:r2="8.3527985"
                   sodipodi:arg1="-1.5707963"
                   sodipodi:arg2="-0.52359878"
                   inkscape:flatsided="false"
                   inkscape:rounded="0"
                   inkscape:randomized="0"
                   d="m 11.904394,67.765024 7.233735,12.34619 7.075246,12.437694 -14.308982,0.0915 -14.3089816,-0.0915 7.0752461,-12.437693 z"
                   transform="matrix(1.904291,0,0,1.6935653,18.628572,-93.676766)"
                   inkscape:transform-center-y="-6.918032" />
                <path
                   inkscape:transform-center-y="-3.9946456"
                   transform="matrix(1.2689468,0,0,0.97790633,-3.246905,-27.248162)"
                   d="m 11.904394,67.765024 7.233735,12.34619 7.075246,12.437694 -14.308982,0.0915 -14.3089816,-0.0915 7.0752461,-12.437693 z"
                   inkscape:randomized="0"
                   inkscape:rounded="0"
                   inkscape:flatsided="false"
                   sodipodi:arg2="-0.52359878"
                   sodipodi:arg1="-1.5707963"
                   sodipodi:r2="8.3527985"
                   sodipodi:r1="16.522589"
                   sodipodi:cy="84.287613"
                   sodipodi:cx="11.904393"
                   sodipodi:sides="3"
                   id="path4150"
                   style="opacity:0.6690909;fill:url(#radialGradient3411);fill-opacity:1;stroke:none"
                   sodipodi:type="star" />
              </g>
              <g
                 transform="matrix(1.1525784,0,0,1.1525784,-9.0405602,-7.5486406)"
                 style="font-style:normal;font-variant:normal;font-weight:bold;font-stretch:normal;font-size:21.97517586px;line-height:125%;font-family:'AvantGarde LT Medium';-inkscape-font-specification:'AvantGarde LT Medium';letter-spacing:0px;word-spacing:0px;fill:#2e3436;fill-opacity:1;stroke:#738589;stroke-width:0.60000002;stroke-miterlimit:4;stroke-dasharray:none;stroke-opacity:1"
                 id="text4238">
                <path
                   d="m 39.220844,36.991951 -3.977507,5.933298 4.241209,6.24095 h -2.680971 l -3.0106,-4.32911 -2.944673,4.32911 h -2.658996 l 4.219233,-6.24095 -4.065407,-5.933298 h 2.768872 l 2.680971,3.999482 2.658997,-3.999482 h 2.768872"
                   style="stroke:#738589;stroke-width:0.60000002;stroke-miterlimit:4;stroke-dasharray:none;stroke-opacity:1"
                   id="path7577"
                   inkscape:connector-curvature="0" />
                <path
                   d="m 50.06731,41.035384 c -0.08791,-0.190444 -0.219763,-0.41752 -0.395554,-0.681231 -0.161161,-0.263693 -0.380912,-0.512745 -0.659255,-0.747156 -0.263711,-0.234392 -0.593339,-0.432168 -0.988883,-0.59333 -0.380911,-0.175791 -0.842389,-0.263691 -1.384436,-0.263702 -0.732512,1.1e-5 -1.355142,0.139187 -1.86789,0.417529 -0.512759,0.278362 -0.930287,0.629964 -1.252585,1.054808 -0.307656,0.410212 -0.534733,0.87169 -0.68123,1.384436 -0.131855,0.512761 -0.19778,0.996215 -0.197777,1.450362 -3e-6,0.52741 0.08057,1.054813 0.241727,1.582213 0.175798,0.512758 0.42485,0.974236 0.747156,1.384436 0.336948,0.395555 0.747151,0.725183 1.23061,0.988882 0.498098,0.249054 1.076777,0.37358 1.736039,0.373578 0.864349,2e-6 1.582204,-0.212424 2.153567,-0.63728 0.571345,-0.4395 1.003523,-0.974229 1.296535,-1.604187 h 2.549121 c -0.234415,0.673908 -0.549392,1.281888 -0.944933,1.823939 -0.395565,0.527406 -0.857043,0.981559 -1.384436,1.362461 -0.527414,0.366253 -1.106093,0.644605 -1.736039,0.835057 -0.615313,0.205101 -1.259918,0.307652 -1.933815,0.307652 -0.996214,0 -1.882546,-0.183126 -2.658997,-0.549379 -0.776459,-0.380903 -1.428389,-0.871681 -1.95579,-1.472337 -0.527406,-0.615303 -0.930284,-1.303857 -1.208635,-2.065667 -0.278353,-0.761801 -0.417529,-1.538257 -0.417528,-2.329368 -10e-7,-0.8204 0.1465,-1.611505 0.439503,-2.373319 0.293001,-0.776447 0.710529,-1.457677 1.252585,-2.043692 0.542052,-0.600643 1.193981,-1.076772 1.955791,-1.428386 0.776451,-0.366241 1.648132,-0.549367 2.615046,-0.549379 0.864349,1.2e-5 1.640804,0.146513 2.329369,0.439503 0.688545,0.278364 1.281874,0.637292 1.779989,1.076784 0.498092,0.424864 0.90097,0.893667 1.208634,1.406411 0.32229,0.512763 0.542042,0.996217 0.659256,1.450362 H 50.06731"
                   style="stroke:#738589;stroke-width:0.60000002;stroke-miterlimit:4;stroke-dasharray:none;stroke-opacity:1"
                   id="path7579"
                   inkscape:connector-curvature="0" />
                <path
                   d="M 54.834893,49.166199 V 39.079593 H 53.75811 v -2.087642 h 1.076783 v -0.593329 c -10e-7,-0.659242 0.124525,-1.215946 0.373578,-1.670114 0.24905,-0.454139 0.607978,-0.842366 1.076784,-1.164684 0.249049,-0.146486 0.476125,-0.263686 0.68123,-0.351603 0.219748,-0.08788 0.4395,-0.15381 0.659256,-0.197777 0.234397,-0.04393 0.476124,-0.07323 0.72518,-0.0879 0.263697,-0.01463 0.564024,-0.02196 0.900983,-0.02197 v 2.087641 c -0.761812,1.4e-5 -1.311191,0.131865 -1.648139,0.395553 -0.322306,0.249066 -0.483457,0.586018 -0.483454,1.010859 v 0.593329 h 2.131593 v 2.087642 h -2.131593 v 10.086606 h -2.285418"
                   style="stroke:#738589;stroke-width:0.60000002;stroke-miterlimit:4;stroke-dasharray:none;stroke-opacity:1"
                   id="path7581"
                   inkscape:connector-curvature="0" />
              </g>
            </g>
            <rect
               clip-path="url(#clipPath4156-4-1-2)"
               ry="3.9569881"
               rx="3.9569874"
               y="-30"
               x="2"
               height="69.024437"
               width="75.965775"
               id="rect4146"
               style="display:inline;opacity:0.5078125;fill:url(#linearGradient4767-6);fill-opacity:1;stroke:none"
               transform="matrix(1.2146192,0,0,1.3113605,-18.088534,19.372096)" />
            <g
               transform="matrix(1.0458471,0,0,1.1307272,-1.2225122,-3.0640445)"
               id="g1059" />
          </g>
        </g>
      </g>
    </g>
  </g>
</svg>
