<?xml version="1.0" encoding="UTF-8" standalone="no"?>
<!-- Created with Inkscape (http://www.inkscape.org/) -->

<svg
   xmlns:dc="http://purl.org/dc/elements/1.1/"
   xmlns:cc="http://creativecommons.org/ns#"
   xmlns:rdf="http://www.w3.org/1999/02/22-rdf-syntax-ns#"
   xmlns:svg="http://www.w3.org/2000/svg"
   xmlns="http://www.w3.org/2000/svg"
   xmlns:xlink="http://www.w3.org/1999/xlink"
   xmlns:sodipodi="http://sodipodi.sourceforge.net/DTD/sodipodi-0.dtd"
   xmlns:inkscape="http://www.inkscape.org/namespaces/inkscape"
   width="96"
   height="96"
   viewBox="0 0 96.000001 96.000004"
   version="1.1"
   id="svg1072"
   inkscape:version="0.92.4 5da689c313, 2019-01-14"
   sodipodi:docname="img.djv.mime.svg">
  <defs
     id="defs1066">
    <linearGradient
       id="linearGradient886">
      <stop
         style="stop-color:#000000;stop-opacity:0;"
         offset="0"
         id="stop872" />
      <stop
         id="stop874"
         offset="0.03175623"
         style="stop-color:#000000;stop-opacity:0.96470588;" />
      <stop
         id="stop876"
         offset="0.09425623"
         style="stop-color:#000000;stop-opacity:0;" />
      <stop
         id="stop878"
         offset="0.49595019"
         style="stop-color:#000000;stop-opacity:0;" />
      <stop
         id="stop880"
         offset="0.90525883"
         style="stop-color:#000000;stop-opacity:0;" />
      <stop
         style="stop-color:#000000;stop-opacity:0.98823529;"
         offset="0.96241152"
         id="stop882" />
      <stop
         style="stop-color:#000000;stop-opacity:0.46456692"
         offset="1"
         id="stop884" />
    </linearGradient>
    <linearGradient
       inkscape:collect="always"
       xlink:href="#linearGradient6139-0"
       id="linearGradient4071"
       gradientUnits="userSpaceOnUse"
       gradientTransform="matrix(1.2063534,0,0,1.3042598,-27.3885,-32.368516)"
       x1="6"
       y1="47.000011"
       x2="90"
       y2="47.000011" />
    <linearGradient
       id="linearGradient6139-0">
      <stop
         id="stop6141-2"
         offset="0"
         style="stop-color:#b0b9be;stop-opacity:1" />
      <stop
         style="stop-color:#ffffff;stop-opacity:1;"
         offset="0.25"
         id="stop6151-0" />
      <stop
         style="stop-color:#93a2a7;stop-opacity:1"
         offset="0.5"
         id="stop6147-1" />
      <stop
         id="stop6149-4"
         offset="0.75"
         style="stop-color:#f9fbfb;stop-opacity:1" />
      <stop
         id="stop6143-4"
         offset="1"
         style="stop-color:#b0b8be;stop-opacity:1" />
    </linearGradient>
    <linearGradient
       gradientTransform="matrix(1.0896097,0,0,1.1780415,-21.784794,-27.614279)"
       inkscape:collect="always"
       xlink:href="#linearGradient3832-0-6-1-1"
       id="linearGradient4129"
       x1="1.5"
       y1="88.171875"
       x2="94.5"
       y2="88.171875"
       gradientUnits="userSpaceOnUse" />
    <linearGradient
       id="linearGradient3832-0-6-1-1">
      <stop
         style="stop-color:#000000;stop-opacity:1;"
         offset="0"
         id="stop3834-6-3-7-1" />
      <stop
         id="stop3872-2-4"
         offset="0.1"
         style="stop-color:#000000;stop-opacity:0.58823532;" />
      <stop
         style="stop-color:#000000;stop-opacity:0.58823532;"
         offset="0.89999998"
         id="stop3844-6-2-7-6" />
      <stop
         style="stop-color:#000000;stop-opacity:1;"
         offset="1"
         id="stop3836-5-0-2-9" />
    </linearGradient>
    <radialGradient
       inkscape:collect="always"
       xlink:href="#linearGradient4050"
       id="radialGradient7462"
       gradientUnits="userSpaceOnUse"
       gradientTransform="matrix(1.0625153,0,0,0.05794871,15.151554,66.825418)"
       cx="13.948145"
       cy="44.892841"
       fx="13.948145"
       fy="44.892841"
       r="43.199203" />
    <linearGradient
       inkscape:collect="always"
       id="linearGradient4050">
      <stop
         style="stop-color:#ffffff;stop-opacity:1;"
         offset="0"
         id="stop4052" />
      <stop
         style="stop-color:#ffffff;stop-opacity:0;"
         offset="1"
         id="stop4054" />
    </linearGradient>
    <radialGradient
       inkscape:collect="always"
       xlink:href="#linearGradient4050"
       id="radialGradient7464"
       gradientUnits="userSpaceOnUse"
       gradientTransform="matrix(1.0464857,0,0,0.05359869,9.5464412,-76.463469)"
       cx="13.948145"
       cy="44.892841"
       fx="13.948145"
       fy="44.892841"
       r="43.199203" />
    <radialGradient
       inkscape:collect="always"
       xlink:href="#linearGradient4050"
       id="radialGradient4543"
       gradientUnits="userSpaceOnUse"
       gradientTransform="matrix(0.99479166,0,0,0.04859612,-16.128151,-3.6910649)"
       cx="48"
       cy="-16.128"
       fx="48"
       fy="-16.128"
       r="44.543999" />
    <linearGradient
       inkscape:collect="always"
       xlink:href="#linearGradient886"
       id="linearGradient4388"
       x1="2.5"
       y1="54.296875"
       x2="93.5"
       y2="54.296875"
       gradientUnits="userSpaceOnUse"
       gradientTransform="matrix(0.99479166,0,0,1.1358547,-17.233524,-35.77429)" />
    <linearGradient
       id="linearGradient4160">
      <stop
         id="stop4170"
         offset="0"
         style="stop-color:#000000;stop-opacity:0;" />
      <stop
         style="stop-color:#000000;stop-opacity:0.96470588;"
         offset="0.03175623"
         id="stop4186" />
      <stop
         style="stop-color:#000000;stop-opacity:0;"
         offset="0.09425623"
         id="stop4182" />
      <stop
         style="stop-color:#000000;stop-opacity:0;"
         offset="0.49595019"
         id="stop4180" />
      <stop
         style="stop-color:#000000;stop-opacity:0;"
         offset="0.90525883"
         id="stop4178" />
      <stop
         id="stop4184"
         offset="0.96241152"
         style="stop-color:#000000;stop-opacity:0.98823529;" />
      <stop
         id="stop4168"
         offset="1"
         style="stop-color:#000000;stop-opacity:0;" />
    </linearGradient>
    <linearGradient
       gradientTransform="matrix(1.0000468,0,0,0.991319,-17.353732,9.636111)"
       inkscape:collect="always"
       xlink:href="#linearGradient13484"
       id="linearGradient13490"
       x1="47.056839"
       y1="22.252237"
       x2="48.640831"
       y2="22.252237"
       gradientUnits="userSpaceOnUse" />
    <linearGradient
       id="linearGradient13484">
      <stop
         style="stop-color:#849699;stop-opacity:1"
         offset="0"
         id="stop13486" />
      <stop
         style="stop-color:#0b0d0d;stop-opacity:0"
         offset="1"
         id="stop13488" />
    </linearGradient>
    <linearGradient
       inkscape:collect="always"
       xlink:href="#linearGradient4160"
       id="linearGradient4369"
       x1="2.5"
       y1="11.140625"
       x2="93.5"
       y2="11.140625"
       gradientUnits="userSpaceOnUse"
       gradientTransform="matrix(0.99479164,0,0,0.99479165,-17.401485,-22.333323)" />
    <linearGradient
       inkscape:collect="always"
       xlink:href="#linearGradient4050"
       id="linearGradient4767-6"
       gradientUnits="userSpaceOnUse"
       x1="2.7713892"
       y1="-28.64156"
       x2="50.527882"
       y2="14.514202" />
    <clipPath
       id="clipPath4156-4-1-2"
       clipPathUnits="userSpaceOnUse">
      <path
         inkscape:connector-curvature="0"
         id="path4158-0-8-6"
         d="m 27.046336,-55.695463 -14.21366,13.321486 h 0.06127 l 15.653407,21.770763 10.231384,-10.546177 C 38.561832,-32.30156 27.468089,-54.819245 27.046336,-55.695463 Z M 9.6468554,-39.382809 -5.2407289,-25.32124 15.987863,-7.8059573 26.372412,-18.382966 Z m 31.4906096,12.951445 -9.741259,9.713584 8.944804,12.4580526 7.780753,-7.5550056 z m -49.8397109,4.378822 -13.7541661,12.9822847 26.2830181,13.84571 0.06127,-0.0617 -0.122531,-0.0617 L 13.598503,-5.4007374 -8.7022409,-22.052595 Z m 38.0154159,7.400825 -9.802525,9.7752596 11.579232,9.5594001 7.62759,-7.40083 -8.669108,-11.0087257 z m 20.187073,5.6739697 -7.382526,7.2158 6.187844,8.54179 5.820249,-6.13651996 z m -32.195166,6.32154 -9.5574606,9.49772 13.6622686,7.1849703 7.933918,-7.6783603 z m 23.311629,2.37443004 -7.10683,6.93826996 8.362778,6.9074403 5.360756,-5.6739699 -0.06127,-0.0925 -0.0919,0.12335 -6.463539,-8.20258036 z m -8.730374,8.54178036 -7.505057,7.3391599 10.353916,5.45811 c 1.397496,-1.32103 5.67514,-6.12292 5.850882,-6.32154 z"
         style="opacity:0.6;fill:#ffffff;fill-opacity:1;stroke:none" />
    </clipPath>
    <linearGradient
       inkscape:collect="always"
       xlink:href="#linearGradient3984-9-6"
       id="linearGradient994"
       gradientUnits="userSpaceOnUse"
       gradientTransform="matrix(0.99653154,0,0,0.85553817,-17.317045,-17.195156)"
       x1="93.39798"
       y1="-18.925377"
       x2="2.2660911"
       y2="-19.957712"
       spreadMethod="reflect" />
    <linearGradient
       gradientUnits="userSpaceOnUse"
       id="linearGradient3984-9-6"
       y2="33.101307"
       x2="59.729176"
       y1="33.425831"
       x1="0.29404691">
      <stop
         offset="0"
         style="stop-color:#ebeced;stop-opacity:1;"
         id="stop3099-9-8" />
      <stop
         offset="0.53342378"
         style="stop-color:#ebeeef;stop-opacity:1;"
         id="stop3875-8-5" />
      <stop
         offset="0.5728336"
         style="stop-color:#ff9ffd;stop-opacity:1"
         id="stop3873-1-8" />
      <stop
         offset="1"
         style="stop-color:#5f187a;stop-opacity:1"
         id="stop3101-7-8" />
    </linearGradient>
    <inkscape:path-effect
       effect="spiro"
       id="path-effect5924"
       is_visible="true" />
    <inkscape:path-effect
       is_visible="true"
       id="path-effect5932"
       effect="spiro" />
    <inkscape:path-effect
       effect="spiro"
       id="path-effect5944"
       is_visible="true" />
    <inkscape:path-effect
       is_visible="true"
       id="path-effect5946"
       effect="spiro" />
    <inkscape:path-effect
       effect="spiro"
       id="path-effect5948"
       is_visible="true" />
    <inkscape:path-effect
       is_visible="true"
       id="path-effect5954"
       effect="spiro" />
    <inkscape:path-effect
       effect="spiro"
       id="path-effect5956"
       is_visible="true" />
    <radialGradient
       gradientUnits="userSpaceOnUse"
       gradientTransform="matrix(1.3643242,0,0,0.04536407,102.49592,-4.3547478)"
       r="29.024296"
       fy="35.073528"
       fx="-48.731873"
       cy="35.073528"
       cx="-48.731873"
       id="radialGradient4210"
       xlink:href="#linearGradient4050"
       inkscape:collect="always" />
    <radialGradient
       r="14.16129"
       cy="47.141338"
       cx="48.30785"
       gradientTransform="matrix(1.0254199,0.93731437,-1.9616551,2.6372886,103.60571,-118.06086)"
       gradientUnits="userSpaceOnUse"
       id="radialGradient3333-6"
       xlink:href="#radialGradient3996-3-3"
       inkscape:collect="always" />
    <radialGradient
       gradientTransform="matrix(0.93962333,0.77477937,-1.7975241,2.1799696,88.130548,-93.365748)"
       gradientUnits="userSpaceOnUse"
       id="radialGradient3996-3-3"
       r="14.16129"
       cy="47.141338"
       cx="48.30785">
      <stop
         offset="0"
         style="stop-color:#000000;stop-opacity:0.22264875"
         id="stop3954-3-6" />
      <stop
         offset="0.5"
         style="stop-color:#000000;stop-opacity:0.0678183"
         id="stop3958-3-6" />
      <stop
         offset="1"
         style="stop-color:#000000;stop-opacity:0.02431222"
         id="stop3956-4-0" />
    </radialGradient>
    <linearGradient
       gradientTransform="matrix(1.22969,0,0,1.3854834,1.6864215,-13.922368)"
       y2="4"
       x2="73"
       y1="52"
       x1="45"
       gradientUnits="userSpaceOnUse"
       id="linearGradient3335-7"
       xlink:href="#linearGradient4308-6-4"
       inkscape:collect="always" />
    <linearGradient
       gradientUnits="userSpaceOnUse"
       id="linearGradient4308-6-4"
       y2="4"
       x2="73"
       y1="52"
       x1="45">
      <stop
         offset="0"
         style="stop-color:#000000;stop-opacity:0.10677083"
         id="stop4304-4-4" />
      <stop
         offset="1"
         style="stop-color:#000000;stop-opacity:0"
         id="stop4306-3-9" />
    </linearGradient>
    <linearGradient
       gradientTransform="matrix(1.2814795,0,0,1.3854834,1.4126783,-17.249932)"
       y2="36"
       x2="37"
       y1="46.124821"
       x1="48.992088"
       gradientUnits="userSpaceOnUse"
       id="linearGradient3341-2"
       xlink:href="#linearGradient4280-6-9"
       inkscape:collect="always" />
    <linearGradient
       gradientUnits="userSpaceOnUse"
       id="linearGradient4280-6-9"
       y2="36"
       x2="37"
       y1="46.124821"
       x1="48.992088">
      <stop
         offset="0"
         style="stop-color:#cfcfcf;stop-opacity:1"
         id="stop4293-95-9" />
      <stop
         offset="0.2098622"
         style="stop-color:#b7b7b7;stop-opacity:1"
         id="stop4295-8-1" />
      <stop
         offset="1"
         style="stop-color:#c9c9c9;stop-opacity:1"
         id="stop4297-0-3" />
    </linearGradient>
  </defs>
  <sodipodi:namedview
     id="base"
     pagecolor="#ffffff"
     bordercolor="#666666"
     borderopacity="1.0"
     inkscape:pageopacity="0.0"
     inkscape:pageshadow="2"
     inkscape:zoom="3.3191433"
     inkscape:cx="-47.894058"
     inkscape:cy="48"
     inkscape:document-units="px"
     inkscape:current-layer="g1003"
     showgrid="false"
     inkscape:showpageshadow="false"
     units="px"
     inkscape:lockguides="true"
     inkscape:window-width="1920"
     inkscape:window-height="1020"
     inkscape:window-x="0"
     inkscape:window-y="28"
     inkscape:window-maximized="1"
     inkscape:snap-global="false">
    <sodipodi:guide
       position="0,0"
       orientation="0,96"
       id="guide1621"
       inkscape:locked="true" />
    <sodipodi:guide
       position="96.000002,0"
       orientation="-96,0"
       id="guide1623"
       inkscape:locked="true" />
    <sodipodi:guide
       position="96.000002,96.000002"
       orientation="0,-96"
       id="guide1625"
       inkscape:locked="true" />
    <sodipodi:guide
       position="0,96.000002"
       orientation="96,0"
       id="guide1627"
       inkscape:locked="true" />
  </sodipodi:namedview>
  <metadata
     id="metadata1069">
    <rdf:RDF>
      <cc:Work
         rdf:about="">
        <dc:format>image/svg+xml</dc:format>
        <dc:type
           rdf:resource="http://purl.org/dc/dcmitype/StillImage" />
        <dc:title></dc:title>
        <dc:date>2017</dc:date>
        <dc:creator>
          <cc:Agent>
            <dc:title>Cristian Pozzessere &quot;ilnanny&quot;</dc:title>
          </cc:Agent>
        </dc:creator>
        <dc:subject>
          <rdf:Bag>
            <rdf:li>Global language</rdf:li>
          </rdf:Bag>
        </dc:subject>
        <dc:description>Playing with Inkscape on Gnu/Linux O. S.</dc:description>
        <dc:contributor>
          <cc:Agent>
            <dc:title>In the night, alone like a dog.</dc:title>
          </cc:Agent>
        </dc:contributor>
        <cc:license
           rdf:resource="http://creativecommons.org/licenses/by-sa/4.0/" />
      </cc:Work>
      <cc:License
         rdf:about="http://creativecommons.org/licenses/by-sa/4.0/">
        <cc:permits
           rdf:resource="http://creativecommons.org/ns#Reproduction" />
        <cc:permits
           rdf:resource="http://creativecommons.org/ns#Distribution" />
        <cc:requires
           rdf:resource="http://creativecommons.org/ns#Notice" />
        <cc:requires
           rdf:resource="http://creativecommons.org/ns#Attribution" />
        <cc:permits
           rdf:resource="http://creativecommons.org/ns#DerivativeWorks" />
        <cc:requires
           rdf:resource="http://creativecommons.org/ns#ShareAlike" />
      </cc:License>
    </rdf:RDF>
  </metadata>
  <g
     inkscape:label="Livello 1"
     inkscape:groupmode="layer"
     id="layer1"
     transform="translate(0,-1026.5197)">
    <g
       transform="translate(-0.14895645,1026.1047)"
       style="display:inline"
       id="g1273">
      <g
         transform="matrix(0.91297981,0,0,0.8444453,20.28803,23.983749)"
         id="g1003">
        <path
           style="display:inline;opacity:0.15;fill:#000000;fill-opacity:1;fill-rule:nonzero;stroke:none;stroke-width:1.13296306"
           d="m 75.34613,-27.614279 h -89.65932 c -4.139262,0 -7.471601,3.602787 -7.471601,8.077996 v 96.935995 c 0,4.475212 3.332339,8.077997 7.471601,8.077997 h 89.65932 c 4.139272,0 7.471613,-3.602785 7.471613,-8.077997 v -96.935995 c 0,-4.475209 -3.332341,-8.077996 -7.471613,-8.077996 z"
           id="path3288"
           inkscape:connector-curvature="0" />
        <path
           inkscape:connector-curvature="0"
           id="path4085"
           d="m 74.645668,-26.730747 h -88.258396 c -4.074587,0 -7.354858,3.546492 -7.354858,7.951776 v 95.421369 c 0,4.405286 3.280271,7.951779 7.354858,7.951779 h 88.258396 c 4.074597,0 7.354867,-3.546493 7.354867,-7.951779 v -95.421369 c 0,-4.405284 -3.28027,-7.951776 -7.354867,-7.951776 z"
           style="display:inline;opacity:0.15;fill:#000000;fill-opacity:1;fill-rule:nonzero;stroke:none;stroke-width:1.13296306" />
        <path
           style="display:inline;fill:url(#linearGradient4071);fill-opacity:1;fill-rule:nonzero;stroke:none;stroke-width:1.13296306"
           d="m 73.945199,-25.847216 h -86.857456 c -4.00992,0 -7.238121,3.490198 -7.238121,7.825559 v 93.906744 c 0,4.335363 3.228201,7.825561 7.238121,7.825561 h 86.857456 c 4.009922,0 7.238119,-3.490198 7.238119,-7.825561 v -93.906744 c 0,-4.335361 -3.228197,-7.825559 -7.238119,-7.825559 z"
           id="rect4251-1"
           inkscape:connector-curvature="0" />
        <path
           inkscape:connector-curvature="0"
           id="path4989"
           d="m -11.079291,-22.042777 c -3.3959,0 -6.175869,2.991648 -6.175869,6.651226 V 66.22081 c 0,3.659579 2.779969,6.651222 6.175869,6.651222 h 83.673075 c 3.395904,0 6.175874,-2.991643 6.175874,-6.651222 v -81.612361 c 0,-3.659577 -2.77997,-6.651226 -6.175874,-6.651226 z m 0,2.732395 h 83.673075 c 2.05729,0 3.652394,1.743613 3.652394,3.918831 V 66.22081 c 0,2.175219 -1.595104,3.918825 -3.652394,3.918825 h -83.673075 c -2.057291,0 -3.652396,-1.743606 -3.652396,-3.918825 v -81.612361 c 0,-2.175218 1.595105,-3.918831 3.652396,-3.918831 z"
           style="color:#000000;font-style:normal;font-variant:normal;font-weight:normal;font-stretch:normal;font-size:medium;line-height:normal;font-family:Sans;-inkscape-font-specification:Sans;text-indent:0;text-align:start;text-decoration:none;text-decoration-line:none;letter-spacing:normal;word-spacing:normal;text-transform:none;writing-mode:lr-tb;direction:ltr;baseline-shift:baseline;text-anchor:start;display:inline;overflow:visible;visibility:visible;fill:#1f2124;fill-opacity:1;stroke:none;stroke-width:2.69135404;marker:none;enable-background:accumulate" />
        <path
           inkscape:connector-curvature="0"
           style="display:inline;opacity:0.65818182;fill:url(#linearGradient4129);fill-opacity:1;fill-rule:nonzero;stroke:none;stroke-width:1.13296306"
           d="m -20.150379,68.801058 v 7.06825 c 0,4.335363 3.242794,7.84134 7.252714,7.84134 h 86.828274 c 4.009922,0 7.252719,-3.505977 7.252719,-7.84134 v -7.06825 c 0,4.335363 -3.242797,7.84134 -7.252719,7.84134 h -86.828274 c -4.00992,0 -7.252714,-3.505977 -7.252714,-7.84134 z"
           id="path4118" />
        <rect
           style="display:inline;opacity:0.55;fill:url(#radialGradient7462);fill-opacity:1;stroke:none;stroke-width:1.13296306"
           id="rect4131"
           width="91.799629"
           height="5.0066772"
           x="-15.928142"
           y="66.923546"
           rx="0"
           ry="5.0066772" />
        <rect
           ry="4.6308422"
           rx="0"
           y="-76.372696"
           x="-21.064373"
           height="4.6308422"
           width="90.414688"
           id="rect4141"
           style="display:inline;opacity:0.669;fill:url(#radialGradient7464);fill-opacity:1;stroke:none;stroke-width:1.13296306"
           transform="rotate(90)" />
        <rect
           transform="scale(1,-1)"
           style="fill:url(#linearGradient994);fill-opacity:1;stroke:#738589;stroke-width:0.9273622;stroke-miterlimit:4;stroke-dasharray:none;stroke-opacity:1"
           id="rect4133"
           width="91.680923"
           height="78.709503"
           x="-15.323987"
           y="-70.238541"
           rx="3.9432628"
           ry="3.3853548" />
        <path
           inkscape:connector-curvature="0"
           d="M -3.5887042,-4.0803293 H 75.608396 v 2.6333204 H -3.5887042 Z"
           id="path4253"
           style="fill:url(#radialGradient4210);fill-opacity:1;fill-rule:nonzero;stroke-width:1.33246708" />
        <path
           inkscape:connector-curvature="0"
           d="m 72.90658,34.814188 4.365238,4.839129 V 69.897874 H 46.363117 Z"
           id="path3934"
           style="fill:url(#radialGradient3333-6);fill-rule:nonzero;stroke-width:1.33246708" />
        <path
           inkscape:connector-curvature="0"
           d="M 75.467824,-11.151402 V 31.798584 L 44.725573,71.977602 h 2.45938 L 76.428519,32.707807 76.697514,32.31814 V 31.798584 -9.7659181 Z"
           id="path3922"
           style="fill:url(#linearGradient3335-7);fill-rule:nonzero;stroke-width:1.33246708" />
        <path
           inkscape:connector-curvature="0"
           d="M 44.982981,71.421005 78.301448,28.47102 c -2.984011,3.846613 -5.589057,4.15645 -14.096274,4.15645 H 48.82742 v 20.782251 c 0,9.205246 0.05686,12.982228 -3.844439,18.011284 z"
           id="path4278"
           style="fill:url(#linearGradient3341-2);fill-rule:nonzero;stroke-width:1.33246708" />
        <path
           d="m 78.174135,28.541346 c -2.984011,3.846613 -5.589058,4.15645 -14.096275,4.15645 H 48.700106 v 20.782251 c 0,9.205246 0.05686,12.982227 -3.844438,18.011284 5.125918,-6.927417 5.126407,-11.578023 5.125918,-18.011284 V 34.083279 H 64.07786 c 6.407398,0 10.304896,-0.529092 14.096275,-5.541933 z"
           id="path4282"
           style="fill:#ffffff;fill-opacity:0.77120146;fill-rule:nonzero;stroke-width:1.33246708"
           inkscape:connector-curvature="0" />
        <rect
           ry="3.0417476"
           rx="3.9363782"
           y="-6.6394901"
           x="-12.690151"
           height="4.3293333"
           width="88.624008"
           id="rect4048"
           style="opacity:0.65090906;fill:url(#radialGradient4543);fill-opacity:1;stroke:none;stroke-width:0.99479157" />
        <path
           id="rect4371"
           d="m -10.860638,-18.629983 c -2.157227,0 -3.885905,1.979159 -3.885905,4.436933 v 80.184249 c 0,2.457774 1.728678,4.436927 3.885905,4.436927 H 71.89359 c 2.157227,0 3.885905,-1.979153 3.885905,-4.436927 V -14.19305 c 0,-2.457774 -1.728678,-4.436933 -3.885905,-4.436933 z"
           style="opacity:0.27999998;fill:url(#linearGradient4388);fill-opacity:1;stroke:none;stroke-width:1.06298578"
           inkscape:connector-curvature="0" />
        <path
           id="rect4080"
           d="m -11.308386,-20.157216 c -2.171313,0 -3.916992,1.745679 -3.916992,3.916992 v 11.9374996 c 0,-2.1713128 1.745679,-3.9169921 3.916992,-3.9169921 h 83.3138 c 2.171312,0 3.916992,1.7456793 3.916992,3.9169921 V -16.240224 c 0,-2.171313 -1.74568,-3.916992 -3.916992,-3.916992 z"
           style="opacity:0;fill:#000000;fill-opacity:1;stroke:none;stroke-width:0.99479163"
           inkscape:connector-curvature="0" />
        <path
           id="path4058"
           d="m -11.012358,-19.850119 c -2.157207,0 -3.905451,1.752232 -3.905451,3.914361 v 3.945182 c 0,-2.162128 1.748244,-3.91436 3.905451,-3.91436 h 82.721741 c 2.157207,0 3.90545,1.752232 3.90545,3.91436 v -3.945182 c 0,-2.162129 -1.748243,-3.914361 -3.90545,-3.914361 z"
           style="fill:#e4e8e8;fill-opacity:1;stroke:#738589;stroke-width:0.9872641;stroke-miterlimit:4;stroke-dasharray:none;stroke-opacity:1"
           inkscape:connector-curvature="0" />
        <path
           inkscape:connector-curvature="0"
           style="fill:#e4e8e8;fill-opacity:1;stroke:#738589;stroke-width:0.9872641;stroke-miterlimit:4;stroke-dasharray:none;stroke-opacity:1"
           d="m -11.012358,-11.960594 c -2.157207,0 -3.905451,1.752233 -3.905451,3.9143622 v 3.9451835 c 0,-2.1621289 1.748244,-3.9143619 3.905451,-3.9143619 h 82.721741 c 2.157207,0 3.90545,1.752233 3.90545,3.9143619 v -3.9451835 c 0,-2.1621292 -1.748243,-3.9143622 -3.90545,-3.9143622 z"
           id="path4060" />
        <path
           id="path4062"
           d="m -11.012358,-15.905355 c -2.157207,0 -3.905451,1.752232 -3.905451,3.914359 v 3.945184 c 0,-2.162129 1.748244,-3.914361 3.905451,-3.914361 h 82.721741 c 2.157207,0 3.90545,1.752232 3.90545,3.914361 v -3.945184 c 0,-2.162127 -1.748243,-3.914359 -3.90545,-3.914359 z"
           style="fill:#e4e8e8;fill-opacity:1;stroke:#738589;stroke-width:0.9872641;stroke-miterlimit:4;stroke-dasharray:none;stroke-opacity:1"
           inkscape:connector-curvature="0" />
        <path
           sodipodi:nodetypes="sscsscsss"
           inkscape:connector-curvature="0"
           id="rect4358"
           d="m -11.028601,-19.65982 c -2.157228,0 -3.885905,1.733364 -3.885905,3.885904 v 12.9322919 c 0,-2.1525402 2.076387,-4.759709 4.23361,-4.7551668 l 82.580377,0.1738518 c 2.157223,0.00455 3.712052,2.4287748 3.712052,4.581315 V -15.773916 c 0,-2.15254 -1.728677,-3.885904 -3.885905,-3.885904 z"
           style="opacity:0.25818182;fill:url(#linearGradient4369);fill-opacity:1;stroke:none;stroke-width:0.99479163" />
        <rect
           transform="matrix(1.2082932,0,0,1.3045305,-17.505387,19.778636)"
           style="display:inline;opacity:0.58899997;fill:url(#linearGradient4767-6);fill-opacity:1;stroke:none"
           id="rect4146"
           width="75.965775"
           height="69.024437"
           x="2"
           y="-30"
           rx="3.9569874"
           ry="3.9569881"
           clip-path="url(#clipPath4156-4-1-2)" />
        <g
           aria-label="DJV"
           transform="scale(0.91961742,1.0874087)"
           style="font-style:normal;font-variant:normal;font-weight:bold;font-stretch:normal;font-size:40.7359581px;line-height:1.25;font-family:sans-serif;-inkscape-font-specification:'sans-serif Bold';letter-spacing:0px;word-spacing:0px;fill:#000000;fill-opacity:1;stroke:none;stroke-width:1.018399"
           id="text1049">
          <path
             style="font-style:normal;font-variant:normal;font-weight:bold;font-stretch:normal;font-family:sans-serif;-inkscape-font-specification:'sans-serif Bold';stroke-width:1.018399;fill:#fcfcfc;fill-opacity:1;stroke:#d0d8ff;stroke-opacity:1"
             d="m 2.5424075,5.664459 c 0,6.040114 0,12.080227 0,18.120341 C 6.9431324,24.102584 12.816619,23.460351 14.318048,18.479596 16.234152,13.691271 14.116182,6.7317605 8.4123361,5.9861379 6.4820756,5.5954419 4.5009138,5.6408229 2.5424075,5.664459 Z M -5.1154753,-0.12370696 C 2.0338466,0.18069864 9.7840181,-1.1889188 16.370777,2.2757679 25.573444,7.6685533 24.972238,23.639537 14.991633,27.846372 8.6156138,30.438418 1.5945755,29.32624 -5.1154753,29.572966 c 0,-9.898891 0,-19.797782 0,-29.69667296 z"
             id="path1051"
             inkscape:connector-curvature="0" />
          <path
             style="font-style:normal;font-variant:normal;font-weight:bold;font-stretch:normal;font-family:sans-serif;-inkscape-font-specification:'sans-serif Bold';stroke-width:1.018399;fill:#09001a;fill-opacity:1"
             d="m 28.698551,-0.12370696 c 2.552627,0 5.105255,0 7.657882,0 C 36.244795,9.7631601 36.587869,19.67053 36.169387,29.544459 c -0.656258,5.246648 -5.902682,8.397175 -10.892888,8.157213 -3.448695,1.302272 -2.513495,-1.872727 -2.604802,-3.970444 -0.944558,-3.743018 6.376815,-0.61838 5.816662,-5.383024 0.430831,-7.668468 0.112301,-15.373168 0.210192,-23.0583093 0,-1.8045339 0,-3.6090678 0,-5.41360166 z"
             id="path1053"
             inkscape:connector-curvature="0" />
          <path
             style="font-style:normal;font-variant:normal;font-weight:bold;font-stretch:normal;font-family:sans-serif;-inkscape-font-specification:'sans-serif Bold';stroke-width:1.018399"
             d="m 40.354446,-0.12370696 c 2.565888,0 5.131776,0 7.697664,0 2.62556,7.30648196 5.251119,14.61296396 7.876679,21.91944596 2.61893,-7.306482 5.237859,-14.612964 7.856789,-21.91944596 2.565888,0 5.131776,0 7.697664,0 C 67.81674,9.775184 64.150239,19.674075 60.483737,29.572966 c -3.043262,0 -6.086525,0 -9.129787,0 C 47.687449,19.674075 44.020947,9.775184 40.354446,-0.12370696 Z"
             id="path1055"
             inkscape:connector-curvature="0" />
        </g>
      </g>
    </g>
  </g>
</svg>
