<?xml version="1.0" encoding="UTF-8" standalone="no"?>
<!-- Created with Inkscape (http://www.inkscape.org/) -->

<svg
   xmlns:dc="http://purl.org/dc/elements/1.1/"
   xmlns:cc="http://creativecommons.org/ns#"
   xmlns:rdf="http://www.w3.org/1999/02/22-rdf-syntax-ns#"
   xmlns:svg="http://www.w3.org/2000/svg"
   xmlns="http://www.w3.org/2000/svg"
   xmlns:xlink="http://www.w3.org/1999/xlink"
   xmlns:sodipodi="http://sodipodi.sourceforge.net/DTD/sodipodi-0.dtd"
   xmlns:inkscape="http://www.inkscape.org/namespaces/inkscape"
   width="96"
   height="96"
   viewBox="0 0 96.000001 96.000004"
   version="1.1"
   id="svg1072"
   inkscape:version="0.92.1 r15371"
   sodipodi:docname="libreoffice-oasis-database.svg">
  <defs
     id="defs1066">
    <linearGradient
       inkscape:collect="always"
       xlink:href="#linearGradient6139-0"
       id="linearGradient4071"
       gradientUnits="userSpaceOnUse"
       gradientTransform="matrix(1.1071428,0,0,1.1071426,-4.9939026,-3.620687)"
       x1="6"
       y1="47.000011"
       x2="90"
       y2="47.000011" />
    <linearGradient
       id="linearGradient6139-0">
      <stop
         id="stop6141-2"
         offset="0"
         style="stop-color:#b0b9be;stop-opacity:1" />
      <stop
         style="stop-color:#ffffff;stop-opacity:1;"
         offset="0.25"
         id="stop6151-0" />
      <stop
         style="stop-color:#93a2a7;stop-opacity:1"
         offset="0.5"
         id="stop6147-1" />
      <stop
         id="stop6149-4"
         offset="0.75"
         style="stop-color:#f9fbfb;stop-opacity:1" />
      <stop
         id="stop6143-4"
         offset="1"
         style="stop-color:#b0b8be;stop-opacity:1" />
    </linearGradient>
    <linearGradient
       gradientTransform="translate(0.1489535,0.415026)"
       inkscape:collect="always"
       xlink:href="#linearGradient3832-0-6-1-1"
       id="linearGradient4129"
       x1="1.5"
       y1="88.171875"
       x2="94.5"
       y2="88.171875"
       gradientUnits="userSpaceOnUse" />
    <linearGradient
       id="linearGradient3832-0-6-1-1">
      <stop
         style="stop-color:#000000;stop-opacity:1;"
         offset="0"
         id="stop3834-6-3-7-1" />
      <stop
         id="stop3872-2-4"
         offset="0.1"
         style="stop-color:#000000;stop-opacity:0.58823532;" />
      <stop
         style="stop-color:#000000;stop-opacity:0.58823532;"
         offset="0.89999998"
         id="stop3844-6-2-7-6" />
      <stop
         style="stop-color:#000000;stop-opacity:1;"
         offset="1"
         id="stop3836-5-0-2-9" />
    </linearGradient>
    <radialGradient
       inkscape:collect="always"
       xlink:href="#linearGradient4050"
       id="radialGradient7462"
       gradientUnits="userSpaceOnUse"
       gradientTransform="matrix(0.97513378,0,0,0.04919072,34.047649,80.581722)"
       cx="13.948145"
       cy="44.892841"
       fx="13.948145"
       fy="44.892841"
       r="43.199203" />
    <linearGradient
       inkscape:collect="always"
       id="linearGradient4050">
      <stop
         style="stop-color:#ffffff;stop-opacity:1;"
         offset="0"
         id="stop4052" />
      <stop
         style="stop-color:#ffffff;stop-opacity:0;"
         offset="1"
         id="stop4054" />
    </linearGradient>
    <radialGradient
       inkscape:collect="always"
       xlink:href="#linearGradient4050"
       id="radialGradient7464"
       gradientUnits="userSpaceOnUse"
       gradientTransform="matrix(0.88832663,0,0,0.04919072,31.959518,-90.31726)"
       cx="13.948145"
       cy="44.892841"
       fx="13.948145"
       fy="44.892841"
       r="43.199203" />
    <radialGradient
       inkscape:collect="always"
       xlink:href="#linearGradient4050"
       id="radialGradient4543"
       gradientUnits="userSpaceOnUse"
       gradientTransform="matrix(1,0,0,0.04885057,-16.372364,-3.861835)"
       cx="48"
       cy="-16.128"
       fx="48"
       fy="-16.128"
       r="44.543999" />
    <linearGradient
       inkscape:collect="always"
       xlink:href="#linearGradient4160"
       id="linearGradient4388"
       x1="2.5"
       y1="54.296875"
       x2="93.5"
       y2="54.296875"
       gradientUnits="userSpaceOnUse"
       gradientTransform="translate(-17.652364,-22.601697)" />
    <linearGradient
       id="linearGradient4160">
      <stop
         id="stop4170"
         offset="0"
         style="stop-color:#000000;stop-opacity:0;" />
      <stop
         style="stop-color:#000000;stop-opacity:0.96470588;"
         offset="0.03175623"
         id="stop4186" />
      <stop
         style="stop-color:#000000;stop-opacity:0;"
         offset="0.09425623"
         id="stop4182" />
      <stop
         style="stop-color:#000000;stop-opacity:0;"
         offset="0.49595019"
         id="stop4180" />
      <stop
         style="stop-color:#000000;stop-opacity:0;"
         offset="0.90525883"
         id="stop4178" />
      <stop
         id="stop4184"
         offset="0.96241152"
         style="stop-color:#000000;stop-opacity:0.98823529;" />
      <stop
         id="stop4168"
         offset="1"
         style="stop-color:#000000;stop-opacity:0;" />
    </linearGradient>
    <linearGradient
       id="linearGradient13484">
      <stop
         style="stop-color:#849699;stop-opacity:1"
         offset="0"
         id="stop13486" />
      <stop
         style="stop-color:#0b0d0d;stop-opacity:0"
         offset="1"
         id="stop13488" />
    </linearGradient>
    <linearGradient
       inkscape:collect="always"
       xlink:href="#linearGradient4160"
       id="linearGradient4369"
       x1="2.5"
       y1="11.140625"
       x2="93.5"
       y2="11.140625"
       gradientUnits="userSpaceOnUse"
       gradientTransform="matrix(1.0082067,0,0,1,-17.67288,-22.601697)" />
    <linearGradient
       inkscape:collect="always"
       xlink:href="#linearGradient4050"
       id="linearGradient4767-6"
       gradientUnits="userSpaceOnUse"
       x1="2.7713892"
       y1="-28.64156"
       x2="50.527882"
       y2="14.514202" />
    <clipPath
       id="clipPath4156-4-1-2"
       clipPathUnits="userSpaceOnUse">
      <path
         inkscape:connector-curvature="0"
         id="path4158-0-8-6"
         d="m 27.046336,-55.695463 -14.21366,13.321486 h 0.06127 l 15.653407,21.770763 10.231384,-10.546177 C 38.561832,-32.30156 27.468089,-54.819245 27.046336,-55.695463 Z M 9.6468554,-39.382809 -5.2407289,-25.32124 15.987863,-7.8059573 26.372412,-18.382966 Z m 31.4906096,12.951445 -9.741259,9.713584 8.944804,12.4580526 7.780753,-7.5550056 z m -49.8397109,4.378822 -13.7541661,12.9822847 26.2830181,13.84571 0.06127,-0.0617 -0.122531,-0.0617 L 13.598503,-5.4007374 -8.7022409,-22.052595 Z m 38.0154159,7.400825 -9.802525,9.7752596 11.579232,9.5594001 7.62759,-7.40083 -8.669108,-11.0087257 z m 20.187073,5.6739697 -7.382526,7.2158 6.187844,8.54179 5.820249,-6.13651996 z m -32.195166,6.32154 -9.5574606,9.49772 13.6622686,7.1849703 7.933918,-7.6783603 z m 23.311629,2.37443004 -7.10683,6.93826996 8.362778,6.9074403 5.360756,-5.6739699 -0.06127,-0.0925 -0.0919,0.12335 -6.463539,-8.20258036 z m -8.730374,8.54178036 -7.505057,7.3391599 10.353916,5.45811 c 1.397496,-1.32103 5.67514,-6.12292 5.850882,-6.32154 z"
         style="opacity:0.6;fill:#ffffff;fill-opacity:1;stroke:none" />
    </clipPath>
    <radialGradient
       gradientTransform="matrix(0.93962333,0.77477937,-1.7975241,2.1799696,88.130548,-93.365748)"
       gradientUnits="userSpaceOnUse"
       id="radialGradient3996-3-3-1"
       r="14.16129"
       cy="47.141338"
       cx="48.30785">
      <stop
         offset="0"
         style="stop-color:#000000;stop-opacity:0.22264875"
         id="stop3954-3-6-2" />
      <stop
         offset="0.5"
         style="stop-color:#000000;stop-opacity:0.0678183"
         id="stop3958-3-6-7" />
      <stop
         offset="1"
         style="stop-color:#000000;stop-opacity:0.02431222"
         id="stop3956-4-0-0" />
    </radialGradient>
    <linearGradient
       gradientUnits="userSpaceOnUse"
       id="linearGradient4308-6-4"
       y2="4"
       x2="73"
       y1="52"
       x1="45">
      <stop
         offset="0"
         style="stop-color:#000000;stop-opacity:0.10677083"
         id="stop4304-4-4" />
      <stop
         offset="1"
         style="stop-color:#000000;stop-opacity:0"
         id="stop4306-3-9" />
    </linearGradient>
    <linearGradient
       gradientTransform="translate(-75.954866,24.617783)"
       y2="36"
       x2="37"
       y1="46.124821"
       x1="48.992088"
       gradientUnits="userSpaceOnUse"
       id="linearGradient3341-2"
       xlink:href="#linearGradient4280-6-9"
       inkscape:collect="always" />
    <linearGradient
       gradientUnits="userSpaceOnUse"
       id="linearGradient4280-6-9"
       y2="36"
       x2="37"
       y1="46.124821"
       x1="48.992088">
      <stop
         offset="0"
         style="stop-color:#cfcfcf;stop-opacity:1"
         id="stop4293-95-9" />
      <stop
         offset="0.2098622"
         style="stop-color:#b7b7b7;stop-opacity:1"
         id="stop4295-8-1" />
      <stop
         offset="1"
         style="stop-color:#c9c9c9;stop-opacity:1"
         id="stop4297-0-3" />
    </linearGradient>
    <linearGradient
       inkscape:collect="always"
       xlink:href="#linearGradient4280-6-9"
       id="linearGradient5360"
       gradientUnits="userSpaceOnUse"
       gradientTransform="translate(-74.956561,27.612698)"
       x1="48.992088"
       y1="46.124821"
       x2="37"
       y2="36" />
    <linearGradient
       gradientUnits="userSpaceOnUse"
       id="linearGradient3984-9-6"
       y2="33.101307"
       x2="59.729176"
       y1="33.425831"
       x1="0.29404691">
      <stop
         offset="0"
         style="stop-color:#edebed;stop-opacity:1;"
         id="stop3099-9-8" />
      <stop
         offset="0.67519277"
         style="stop-color:#ebeeef;stop-opacity:1;"
         id="stop3875-8-5" />
      <stop
         offset="0.68910319"
         style="stop-color:#a51691;stop-opacity:1;"
         id="stop3873-1-8" />
      <stop
         offset="1"
         style="stop-color:#951e85;stop-opacity:1;"
         id="stop3101-7-8" />
    </linearGradient>
    <linearGradient
       x1="1559.5"
       y1="184"
       x2="1542.0002"
       y2="184"
       id="linearGradient4323"
       xlink:href="#linearGradient8742"
       gradientUnits="userSpaceOnUse"
       gradientTransform="matrix(0.71934014,0,0,5.3431372,-1041.4883,-1208.9627)" />
    <linearGradient
       id="linearGradient8742">
      <stop
         id="stop8744"
         style="stop-color:#9200ff;stop-opacity:1"
         offset="0" />
      <stop
         id="stop8746"
         style="stop-color:#ff00ff;stop-opacity:0"
         offset="1" />
    </linearGradient>
    <linearGradient
       x1="453.50003"
       y1="970.5"
       x2="404.49997"
       y2="970.5"
       id="linearGradient4482"
       xlink:href="#linearGradient8663"
       gradientUnits="userSpaceOnUse"
       gradientTransform="matrix(0.89331669,0,0,0.87640916,-334.368,-794.85571)" />
    <linearGradient
       id="linearGradient8663">
      <stop
         id="stop8665"
         style="stop-color:#9207a7;stop-opacity:1"
         offset="0" />
      <stop
         id="stop8667"
         style="stop-color:#c658bc;stop-opacity:1"
         offset="0.27254906" />
      <stop
         id="stop8669"
         style="stop-color:#a42eb6;stop-opacity:1"
         offset="0.50966245" />
      <stop
         id="stop8671"
         style="stop-color:#b415cd;stop-opacity:1"
         offset="0.83376038" />
      <stop
         id="stop8673"
         style="stop-color:#950ba8;stop-opacity:1"
         offset="1" />
    </linearGradient>
    <radialGradient
       cx="47.995335"
       cy="46.440277"
       r="13.995334"
       fx="47.995335"
       fy="46.440277"
       id="radialGradient4484"
       xlink:href="#linearGradient14494"
       gradientUnits="userSpaceOnUse"
       gradientTransform="matrix(1.5787715,0,0,0.37519781,-27.031724,30.380075)" />
    <linearGradient
       id="linearGradient14494">
      <stop
         id="stop14496"
         style="stop-color:#dc85e9;stop-opacity:1"
         offset="0" />
      <stop
         id="stop14498"
         style="stop-color:#f2cbf8;stop-opacity:1"
         offset="1" />
    </linearGradient>
    <linearGradient
       x1="453.50003"
       y1="970.5"
       x2="404.49997"
       y2="970.5"
       id="linearGradient4462"
       xlink:href="#linearGradient8964"
       gradientUnits="userSpaceOnUse"
       gradientTransform="matrix(0.94023216,0,0,0.87640916,-354.61765,-793.94116)" />
    <linearGradient
       id="linearGradient8964">
      <stop
         id="stop8966"
         style="stop-color:#e196fb;stop-opacity:1"
         offset="0" />
      <stop
         id="stop8968"
         style="stop-color:#f4c7fa;stop-opacity:1"
         offset="0.13010512" />
      <stop
         id="stop8970"
         style="stop-color:#e091f3;stop-opacity:1"
         offset="0.31360075" />
      <stop
         id="stop8972"
         style="stop-color:#d764e9;stop-opacity:1"
         offset="0.44078669" />
      <stop
         id="stop8974"
         style="stop-color:#e7adf0;stop-opacity:1"
         offset="0.68364757" />
      <stop
         id="stop8976"
         style="stop-color:#e6a9f8;stop-opacity:1"
         offset="0.75620717" />
      <stop
         id="stop8978"
         style="stop-color:#e595f2;stop-opacity:1"
         offset="0.88021636" />
      <stop
         id="stop8980"
         style="stop-color:#f2cbf8;stop-opacity:1"
         offset="1" />
    </linearGradient>
    <linearGradient
       x1="453.50003"
       y1="970.5"
       x2="404.49997"
       y2="970.5"
       id="linearGradient4460"
       xlink:href="#linearGradient8964"
       gradientUnits="userSpaceOnUse"
       gradientTransform="matrix(0.94023216,0,0,0.87640916,-354.61765,-792.99921)" />
    <linearGradient
       x1="453.50003"
       y1="970.5"
       x2="404.49997"
       y2="970.5"
       id="linearGradient4448"
       xlink:href="#linearGradient8964"
       gradientUnits="userSpaceOnUse"
       gradientTransform="matrix(0.94023216,0,0,0.87640916,-354.61765,-792.05727)" />
    <linearGradient
       x1="1559.5"
       y1="184"
       x2="1542.0002"
       y2="184"
       id="linearGradient4328"
       xlink:href="#linearGradient8742"
       gradientUnits="userSpaceOnUse"
       gradientTransform="matrix(-0.71934014,0,0,5.3431372,1146.0252,-1208.9627)" />
    <linearGradient
       x1="1510.4767"
       y1="169.00002"
       x2="1485.8766"
       y2="193.9996"
       id="linearGradient4488"
       xlink:href="#linearGradient4050"
       gradientUnits="userSpaceOnUse"
       gradientTransform="matrix(0.61905279,0,0,0.45280117,-877.69149,-34.235776)" />
    <linearGradient
       x1="34"
       y1="50.26075"
       x2="62"
       y2="50.26075"
       id="linearGradient4514"
       xlink:href="#linearGradient4050"
       gradientUnits="userSpaceOnUse"
       gradientTransform="matrix(1.5787715,0,0,1.4716044,-95.520053,-8.3969175)" />
    <linearGradient
       x1="34"
       y1="50.26075"
       x2="62"
       y2="50.26075"
       id="linearGradient4518"
       xlink:href="#linearGradient4050"
       gradientUnits="userSpaceOnUse"
       gradientTransform="matrix(1.5787715,0,0,1.4716044,-27.031724,-11.70773)" />
    <linearGradient
       x1="34"
       y1="50.26075"
       x2="62"
       y2="50.26075"
       id="linearGradient4522"
       xlink:href="#linearGradient4050"
       gradientUnits="userSpaceOnUse"
       gradientTransform="matrix(1.5787715,0,0,1.4716044,-91.369245,9.2623371)" />
    <linearGradient
       y2="-19.957712"
       x2="2.2660911"
       y1="-18.925377"
       x1="93.39798"
       spreadMethod="reflect"
       gradientTransform="matrix(1.0004943,0,0,0.99149733,-29.066079,-60.494183)"
       gradientUnits="userSpaceOnUse"
       id="linearGradient5871"
       xlink:href="#linearGradient3984-9-6"
       inkscape:collect="always" />
    <radialGradient
       cx="47.995335"
       cy="46.440277"
       r="13.995334"
       fx="47.995335"
       fy="46.440277"
       id="radialGradient4484-3"
       xlink:href="#linearGradient14494"
       gradientUnits="userSpaceOnUse"
       gradientTransform="matrix(1.5787715,0,0,0.37519781,-27.031724,30.380075)" />
    <linearGradient
       x1="453.50003"
       y1="970.5"
       x2="404.49997"
       y2="970.5"
       id="linearGradient4462-2"
       xlink:href="#linearGradient8964"
       gradientUnits="userSpaceOnUse"
       gradientTransform="matrix(0.94023216,0,0,0.87640916,-354.61765,-793.94116)" />
    <linearGradient
       x1="1510.4767"
       y1="169.00002"
       x2="1485.8766"
       y2="193.9996"
       id="linearGradient4488-0"
       xlink:href="#linearGradient4050"
       gradientUnits="userSpaceOnUse"
       gradientTransform="matrix(0.61905279,0,0,0.45280117,-877.69149,-34.235776)" />
    <linearGradient
       x1="34"
       y1="50.26075"
       x2="62"
       y2="50.26075"
       id="linearGradient4518-6"
       xlink:href="#linearGradient4050"
       gradientUnits="userSpaceOnUse"
       gradientTransform="matrix(1.5787715,0,0,1.4716044,-27.031724,-11.70773)" />
  </defs>
  <sodipodi:namedview
     id="base"
     pagecolor="#ffffff"
     bordercolor="#666666"
     borderopacity="1.0"
     inkscape:pageopacity="0.0"
     inkscape:pageshadow="2"
     inkscape:zoom="2.8149345"
     inkscape:cx="39.467172"
     inkscape:cy="48"
     inkscape:document-units="px"
     inkscape:current-layer="g1003"
     showgrid="false"
     inkscape:showpageshadow="false"
     units="px"
     inkscape:lockguides="true"
     inkscape:window-width="1280"
     inkscape:window-height="972"
     inkscape:window-x="0"
     inkscape:window-y="26"
     inkscape:window-maximized="1"
     inkscape:snap-global="false">
    <sodipodi:guide
       position="0,0"
       orientation="0,96"
       id="guide1621"
       inkscape:locked="true" />
    <sodipodi:guide
       position="96.000002,0"
       orientation="-96,0"
       id="guide1623"
       inkscape:locked="true" />
    <sodipodi:guide
       position="96.000002,96.000002"
       orientation="0,-96"
       id="guide1625"
       inkscape:locked="true" />
    <sodipodi:guide
       position="0,96.000002"
       orientation="96,0"
       id="guide1627"
       inkscape:locked="true" />
  </sodipodi:namedview>
  <metadata
     id="metadata1069">
    <rdf:RDF>
      <cc:Work
         rdf:about="">
        <dc:format>image/svg+xml</dc:format>
        <dc:type
           rdf:resource="http://purl.org/dc/dcmitype/StillImage" />
        <dc:title></dc:title>
        <dc:date>2017</dc:date>
        <dc:creator>
          <cc:Agent>
            <dc:title>Cristian Pozzessere &quot;ilnanny&quot;</dc:title>
          </cc:Agent>
        </dc:creator>
        <dc:subject>
          <rdf:Bag>
            <rdf:li>Global language</rdf:li>
          </rdf:Bag>
        </dc:subject>
        <dc:description>Playing with Inkscape on Gnu/Linux O. S.</dc:description>
        <dc:contributor>
          <cc:Agent>
            <dc:title>In the night, alone like a dog.</dc:title>
          </cc:Agent>
        </dc:contributor>
        <cc:license
           rdf:resource="http://creativecommons.org/licenses/by-sa/4.0/" />
      </cc:Work>
      <cc:License
         rdf:about="http://creativecommons.org/licenses/by-sa/4.0/">
        <cc:permits
           rdf:resource="http://creativecommons.org/ns#Reproduction" />
        <cc:permits
           rdf:resource="http://creativecommons.org/ns#Distribution" />
        <cc:requires
           rdf:resource="http://creativecommons.org/ns#Notice" />
        <cc:requires
           rdf:resource="http://creativecommons.org/ns#Attribution" />
        <cc:permits
           rdf:resource="http://creativecommons.org/ns#DerivativeWorks" />
        <cc:requires
           rdf:resource="http://creativecommons.org/ns#ShareAlike" />
      </cc:License>
    </rdf:RDF>
  </metadata>
  <g
     inkscape:label="Livello 1"
     inkscape:groupmode="layer"
     id="layer1"
     transform="translate(0,-1026.5197)">
    <g
       transform="translate(-0.14895645,1026.1047)"
       style="display:inline"
       id="g1273">
      <path
         style="display:inline;opacity:0.15;fill:#000000;fill-opacity:1;fill-rule:nonzero;stroke:none"
         d="M 89.29181,0.415026 H 7.0060911 c -3.798848,0 -6.8571352,3.058285 -6.8571352,6.8571399 V 89.557884 c 0,3.798857 3.0582872,6.857142 6.8571352,6.857142 H 89.29181 c 3.798857,0 6.857147,-3.058285 6.857147,-6.857142 V 7.2721659 c 0,-3.7988549 -3.05829,-6.8571399 -6.857147,-6.8571399 z"
         id="path3288"
         inkscape:connector-curvature="0" />
      <path
         inkscape:connector-curvature="0"
         id="path4085"
         d="M 88.648954,1.165026 H 7.6489471 c -3.739492,0 -6.749993,3.010499 -6.749993,6.7499969 V 88.915026 c 0,3.739501 3.010501,6.75 6.749993,6.75 H 88.648954 c 3.739503,0 6.750003,-3.010499 6.750003,-6.75 V 7.9150229 c 0,-3.7394979 -3.0105,-6.7499969 -6.750003,-6.7499969 z"
         style="display:inline;opacity:0.15;fill:#000000;fill-opacity:1;fill-rule:nonzero;stroke:none" />
      <path
         style="display:inline;fill:url(#linearGradient4071);fill-opacity:1;fill-rule:nonzero;stroke:none"
         d="M 88.006093,1.915026 H 8.2918111 c -3.680143,0 -6.6428566,2.962713 -6.6428566,6.6428549 V 88.272171 c 0,3.680142 2.9627136,6.642856 6.6428566,6.642856 H 88.006093 c 3.680143,0 6.642854,-2.962714 6.642854,-6.642856 V 8.5578809 c 0,-3.6801419 -2.962711,-6.6428549 -6.642854,-6.6428549 z"
         id="rect4251-1"
         inkscape:connector-curvature="0" />
      <path
         inkscape:connector-curvature="0"
         style="display:inline;opacity:0.65818182;fill:url(#linearGradient4129);fill-opacity:1;fill-rule:nonzero;stroke:none"
         d="m 1.6489535,82.258776 v 6 c 0,3.680142 2.9761066,6.65625 6.6562496,6.65625 H 87.992703 c 3.680143,0 6.656254,-2.976108 6.656254,-6.65625 v -6 c 0,3.680142 -2.976111,6.65625 -6.656254,6.65625 H 8.3052031 c -3.680143,0 -6.6562496,-2.976108 -6.6562496,-6.65625 z"
         id="path4118" />
      <rect
         style="opacity:0.55;fill:url(#radialGradient7462);fill-opacity:1;stroke:none"
         id="rect4131"
         width="84.250008"
         height="4.25"
         x="5.5239539"
         y="80.665031"
         rx="0"
         ry="4.25" />
      <rect
         ry="4.25"
         rx="0"
         y="-90.233963"
         x="5.9750223"
         height="4.25"
         width="76.75"
         id="rect4141"
         style="opacity:0.669;fill:url(#radialGradient7464);fill-opacity:1;stroke:none"
         transform="rotate(90)" />
      <g
         transform="matrix(0.91297981,0,0,0.8444453,20.28803,23.983749)"
         id="g1003">
        <g
           transform="matrix(0.56245679,0,0,0.69303597,2.377196,-21.608821)"
           style="display:inline"
           id="g1079">
          <rect
             transform="matrix(1.7775933,0,0,-1.2495564,16.330226,-19.070067)"
             style="display:inline;fill:url(#linearGradient5871);fill-opacity:1;stroke:#738589;stroke-width:1.00031602;stroke-miterlimit:4;stroke-dasharray:none;stroke-opacity:1"
             id="rect4133"
             width="92.045486"
             height="91.217758"
             x="-27.065086"
             y="-121.96702"
             rx="3.9589436"
             ry="3.9233429" />
          <g
             transform="translate(2.7672052,-10.926393)"
             id="g1064">
            <path
               inkscape:connector-curvature="0"
               style="color:#000000;display:inline;overflow:visible;visibility:visible;opacity:0.72916667;fill:#ba00ff;fill-opacity:1;fill-rule:nonzero;stroke:none;stroke-width:2;marker:none"
               id="path4480"
               d="m 48.871843,39.614477 c -0.698081,0 -1.257965,0.03641 -1.734368,0.04599 a 3.0217641,2.9645722 0 0 0 -0.04687,0 c -4.251173,0.118464 -9.040305,0.585569 -13.921822,1.655554 -2.328225,0.510325 -4.1583,1.40378 -5.43748,2.207407 -0.823336,0.517189 -1.594658,1.048254 -2.249993,2.115432 a 3.0217641,2.9645722 0 0 0 -0.140623,0.229938 c -0.06714,0.100174 -0.05678,-4.61e-4 -0.1875,0.321914 -0.206348,0.508961 -0.281248,1.192248 -0.281248,1.60957 0,-0.18638 -0.0767,-0.05393 0,0.551851 a 3.0217641,2.9645722 0 0 0 0,0.04599 c 0.01007,0.07614 -0.01879,-0.02314 0,0.09198 a 3.0217641,2.9645722 0 0 0 0.09375,0.275926 c 0.04354,0.168364 0.131069,0.262139 0.187497,0.413889 a 3.0217641,2.9645722 0 0 0 0,0.04599 3.0217641,2.9645722 0 0 0 -0.281247,1.287658 v 5.656481 c 0,0.0735 -0.14298,0.635113 0.140624,1.609567 0.0372,0.127794 0.142559,0.158931 0.1875,0.275927 a 3.0217641,2.9645722 0 0 0 -0.328124,1.333641 c 0,2.007153 -0.01585,4.018275 0,6.070368 0.0026,0.334254 0.01366,0.65584 0.187498,1.195679 0.02457,0.07651 0.112535,0.109948 0.140626,0.18395 a 3.0217641,2.9645722 0 0 0 -0.328124,1.379629 v 6.07037 c 0,2.197356 1.441809,3.432376 2.859364,4.322837 1.450417,0.911167 3.197632,1.557697 5.296854,2.115432 4.200113,1.116011 9.733017,1.747531 15.84369,1.747531 6.110647,0 11.643592,-0.631587 15.843691,-1.747531 2.099039,-0.557748 3.846246,-1.204081 5.296855,-2.115432 1.417655,-0.890463 2.859364,-2.125486 2.859364,-4.322837 V 73.829301 68.218808 A 3.0217641,2.9645722 0 0 0 72.543633,66.83918 c 0.04775,-0.135741 0.195442,-0.172604 0.234374,-0.321913 0.0041,-0.01537 -0.0039,-0.03048 0,-0.04599 0.211637,-0.871376 0.09375,-1.29038 0.09375,-1.471607 v -5.610492 a 3.0217641,2.9645722 0 0 0 -0.328124,-1.379629 c 0.04633,-0.131974 0.197015,-0.17863 0.234375,-0.321914 0.0039,-0.01475 -0.0037,-0.03113 0,-0.04599 0.211642,-0.871386 0.09375,-1.29038 0.09375,-1.471606 v -5.656481 a 3.0217641,2.9645722 0 0 0 -0.281235,-1.241665 c 0.0097,-0.02513 0.03729,-0.02041 0.04689,-0.04599 a 3.0217641,2.9645722 0 0 0 0.09375,-0.229938 c 2.6e-5,-9e-5 -10e-4,-0.04106 0,-0.04598 0.0044,-0.01654 -0.0042,-0.02961 0,-0.04599 0.02064,-0.102796 0.08602,-0.398445 0.09375,-0.505863 0.002,-0.01478 -0.0016,-0.0313 0,-0.04599 0.0059,-0.09396 7.06e-4,-0.13427 0,-0.183951 -5.47e-4,-0.03016 8e-4,-0.02492 0,-0.04599 -0.0023,-0.106542 -4.61e-4,-0.144364 0,-0.137963 0.0021,-0.05808 0.04687,-0.126512 0.04687,-0.183963 0,-0.400259 -0.188121,-0.591716 -0.281248,-0.919753 0.0057,0.12591 0.05386,0.270351 0.04689,0.367902 0.02645,-0.382436 -0.13767,-1.101086 -0.468749,-1.701543 l 0.04687,-0.04599 c -0.07694,-0.125984 -0.03214,-0.05067 -0.09375,-0.137962 -0.02211,-0.03315 -0.023,-0.05969 -0.04688,-0.09198 l -0.04687,0.04599 c -0.086,-0.110183 -0.08752,-0.184302 -0.140626,-0.229938 -0.01503,-0.01832 -0.03173,-0.02798 -0.04688,-0.04599 -0.540176,-0.642639 -1.133195,-1.110465 -1.781242,-1.517593 -1.431233,-0.899091 -3.211133,-1.594756 -5.343729,-2.161418 -2.597972,-0.690308 -5.75891,-1.225994 -9.234341,-1.517593 -0.155057,-0.0131 0.01185,0.0035 -0.04687,0 -0.117435,-0.0071 -0.351347,-0.02061 -0.09375,0 -0.599901,-0.04674 -1.267474,-0.100244 -1.968743,-0.137963 -0.202171,-0.01089 -0.03031,-3.72e-4 -0.04687,0 -0.01659,3.73e-4 -0.221395,-0.0094 -0.04687,0 a 3.0217641,2.9645722 0 0 0 -0.04687,0 c -0.791219,-0.04056 -1.440415,-0.02984 -2.062491,-0.04599 -0.197447,-0.0051 -0.212827,-0.0043 -0.04687,0 -0.677874,-0.01724 -1.445929,-0.04599 -2.249993,-0.04599 z" />
            <path
               style="color:#000000;display:inline;overflow:visible;visibility:visible;fill:url(#radialGradient4484-3);fill-opacity:1;fill-rule:nonzero;stroke:none;stroke-width:2;marker:none"
               id="path4458"
               inkscape:connector-curvature="0"
               d="m 48.741963,42.553346 c -0.604233,0 -1.200333,0.01607 -1.792317,0.02739 -4.291531,0.113623 -9.124248,0.607925 -14.030026,1.629574 -2.037483,0.424312 -3.636656,1.136044 -4.715851,1.780206 -0.67453,0.402571 -1.139087,0.803437 -1.380967,1.177674 -0.01936,0.03736 -0.04272,0.07196 -0.05876,0.10955 -0.07543,0.176782 -0.117531,0.35256 -0.117531,0.53407 0,0.05631 0.0073,0.10866 0.01469,0.164328 0.0021,0.0088 -0.0022,0.01858 0,0.02739 0.0014,0.0092 -0.0016,0.01819 0,0.02739 0.253448,0.930992 1.509421,1.640515 2.453418,2.081473 1.131663,0.528604 2.277077,0.924808 3.599325,1.246142 5.69823,1.363256 11.879998,1.777557 18.114162,1.684351 4.505546,-0.107666 9.191026,-0.521706 13.883114,-1.656961 1.374243,-0.332511 2.897844,-0.843128 4.172281,-1.520022 0.678838,-0.360604 1.592895,-0.904554 1.895155,-1.670656 0.0028,-0.0096 0.01195,-0.01769 0.01468,-0.02739 0.03404,-0.118508 0.04405,-0.23473 0.04405,-0.356041 0,-0.256866 -0.07084,-0.506149 -0.220366,-0.753163 -0.0097,-0.01325 -0.01905,-0.02791 -0.02938,-0.04109 -0.01847,-0.02875 -0.05304,-0.05356 -0.07346,-0.08216 -0.265005,-0.306975 -0.665074,-0.6228 -1.204673,-0.944879 -1.079199,-0.644119 -2.700795,-1.271494 -4.715852,-1.780208 -2.518854,-0.635888 -5.656742,-1.133175 -9.167263,-1.410469 -0.0386,-0.003 -0.07881,-0.01077 -0.117519,-0.01368 -0.663158,-0.04909 -1.33906,-0.08902 -2.027374,-0.123247 -0.02877,-0.0015 -0.05932,0.0015 -0.08814,0 -0.704726,-0.03432 -1.417481,-0.06423 -2.144906,-0.08216 -0.01438,-3.58e-4 -0.02956,3.55e-4 -0.04408,0 -0.742738,-0.01796 -1.4997,-0.02739 -2.262387,-0.02739 z" />
            <path
               style="color:#000000;display:inline;overflow:visible;visibility:visible;fill:url(#linearGradient4462-2);fill-opacity:1;fill-rule:nonzero;stroke:none;stroke-width:2;marker:none"
               id="path4456"
               inkscape:connector-curvature="0"
               d="m 26.661198,50.533951 v 5.641884 c 0,0.261476 -0.01725,0.505009 0.05876,0.753164 0.08396,0.274098 0.276051,0.593439 0.617027,0.890103 1.480912,1.27386 3.534663,1.794032 5.582629,2.396431 4.772573,1.163917 10.451432,1.618401 15.837036,1.656963 4.990564,-0.0067 10.483424,-0.442719 15.763579,-1.643269 1.48599,-0.374446 3.166749,-0.887714 4.701162,-1.72543 0.928478,-0.506915 1.443515,-1.09045 1.571951,-1.574798 0.05877,-0.218182 0.05877,-0.498174 0.05877,-0.753164 v -5.641884 c -1.541463,1.401071 -3.85916,2.095691 -6.038053,2.67031 -4.403106,1.161111 -9.202758,1.489653 -13.956572,1.629573 C 44.977653,54.994435 38.860078,54.536357 32.699255,53.204261 31.169403,52.856499 29.280336,52.203028 27.733654,51.328197 27.31586,51.091873 26.958785,50.812212 26.6612,50.533951 Z" />
            <path
               style="color:#000000;display:inline;overflow:visible;visibility:visible;fill:url(#linearGradient4460);fill-opacity:1;fill-rule:nonzero;stroke:none;stroke-width:2;marker:none"
               id="path4454"
               inkscape:connector-curvature="0"
               d="m 26.661198,59.377274 c 0,2.022138 -0.01645,4.0443 0,6.066395 7.54e-4,0.09474 0.02352,0.210841 0.05876,0.314958 0.0919,0.271908 0.273278,0.596244 0.617027,0.890105 0.50735,0.433733 1.139186,0.841899 1.821699,1.136592 4.004639,1.713687 8.203481,2.118238 12.928192,2.656615 2.104242,0.184835 4.34458,0.260183 6.669774,0.260183 4.597217,-0.0062 9.072582,-0.348943 13.956571,-1.23245 2.101652,-0.42576 4.492076,-1.033768 6.50817,-2.136247 0.912778,-0.531104 1.443515,-1.09045 1.571951,-1.574798 0.05877,-0.218183 0.05877,-0.498171 0.05877,-0.753164 v -5.628189 c -0.205721,0.176947 -1.048877,0.814491 -1.586641,1.068123 -1.413451,0.666596 -3.282726,1.288255 -5.024365,1.711736 C 59.32228,63.334237 54.094072,63.588834 48.756657,63.69085 43.450832,63.68125 38.669892,63.299139 33.272208,62.157133 31.32085,61.705082 29.080089,61.030838 27.278229,59.870254 27.053701,59.712279 26.843654,59.545545 26.6612,59.377274 Z" />
            <path
               style="color:#000000;display:inline;overflow:visible;visibility:visible;fill:url(#linearGradient4448);fill-opacity:1;fill-rule:nonzero;stroke:none;stroke-width:2;marker:none"
               id="path11957"
               inkscape:connector-curvature="0"
               d="m 26.661198,68.206899 v 6.066395 c 0,0.567957 0.480883,1.206269 1.557261,1.848676 1.076377,0.642451 2.688499,1.244764 4.701161,1.752817 4.025322,1.016197 9.640106,1.656962 15.837035,1.656962 6.196882,0 11.811666,-0.640809 15.837036,-1.656962 2.012614,-0.508098 3.624782,-1.110323 4.701159,-1.752817 1.07638,-0.642365 1.55726,-1.280719 1.55726,-1.848676 V 73.83509 68.206899 c -0.345677,0.298899 -0.692081,0.578562 -1.131216,0.821633 -1.639108,0.90222 -3.496511,1.45622 -5.47979,1.958228 -4.930719,1.145291 -10.13984,1.453174 -15.484449,1.533715 -2.149982,5.71e-4 -4.423159,-0.0825 -6.743228,-0.260184 -3.846537,-0.301571 -8.67336,-0.943277 -12.751898,-2.519675 -0.890118,-0.348461 -1.864315,-0.858444 -2.600331,-1.533717 z" />
            <path
               style="display:inline;opacity:0.3;fill:url(#linearGradient4488-0);fill-opacity:1;stroke:none"
               id="path4486"
               inkscape:connector-curvature="0"
               d="m 39.572699,43.155526 c -2.174534,0.260878 -4.409964,0.589044 -6.660441,1.057716 -0.919155,0.191416 -1.733577,0.414001 -2.46683,0.689814 l 17.958525,2.851233 z m 8.831254,4.598763 9.275283,4.828702 h 0.04933 c 2.305365,-0.258851 4.675955,-0.631969 7.005799,-1.195678 0.754255,-0.182498 1.540472,-0.447955 2.318822,-0.735802 l -18.64923,-2.897222 z" />
            <path
               style="color:#000000;display:inline;overflow:visible;visibility:visible;opacity:0.5;fill:url(#linearGradient4518-6);fill-opacity:1;fill-rule:nonzero;stroke:none;stroke-width:2;marker:none"
               id="path4516"
               inkscape:connector-curvature="0"
               d="m 26.646508,59.343175 v 1.471605 c 0.297585,0.278261 0.667611,0.591452 1.085405,0.827777 1.546682,0.87483 3.453146,1.537732 4.982998,1.885493 6.160824,1.332097 12.276039,1.770168 18.155872,1.609567 4.753815,-0.13992 9.559156,-0.448457 13.962261,-1.609567 2.178895,-0.574619 4.477603,-1.312198 6.019066,-2.71327 v -1.471605 c -1.541463,1.401072 -3.840171,2.138652 -6.019066,2.71327 -4.403105,1.161111 -9.208446,1.469648 -13.962261,1.609568 -5.879833,0.160601 -11.995048,-0.277471 -18.155872,-1.609568 -1.529852,-0.34776 -3.436316,-1.010662 -4.982998,-1.885493 -0.417794,-0.236324 -0.78782,-0.549516 -1.085405,-0.827777 z" />
          </g>
          <path
             inkscape:connector-curvature="0"
             d="m 93.818023,33.573065 v 2.51303 h 10.790437 v -2.51303 z m 0,5.02606 v 2.516368 h 10.790437 v -2.516368 z m 0,5.029398 v 2.516367 h 10.790437 v -2.516367 z m 0,5.029399 v 2.516367 h 10.790437 v -2.516367 z m 0,5.029397 v 2.51303 h 10.790437 v -2.51303 z m 0,5.029397 v 2.513032 h 10.790437 v -2.513032 z m 0,5.029399 v 2.51303 h 10.790437 v -2.51303 z m 0,5.02606 v 2.516368 h 10.790437 v -2.516368 z m 0,5.029398 v 2.516369 h 10.790437 v -2.516369 z m -60.916334,4.755734 v 2.513032 h 10.790438 v -2.513032 z m 25.403359,0 v 2.513032 h 10.790438 v -2.513032 z m -25.403359,5.026062 v 2.516367 h 10.790438 v -2.516367 z m 25.403359,0 v 2.516367 h 10.790438 v -2.516367 z m -25.403359,5.029397 v 2.516367 h 10.790438 v -2.516367 z m 25.403359,0 v 2.516367 h 10.790438 v -2.516367 z m -25.403359,5.029399 v 2.516367 h 10.790438 v -2.516367 z m 25.403359,0 v 2.516367 h 10.790438 v -2.516367 z m -25.403359,5.029397 v 2.513028 h 10.790438 v -2.513028 z m 25.403359,0 v 2.513028 h 10.790438 v -2.513028 z m -25.403359,5.029398 v 2.51303 h 10.790438 v -2.51303 z m 25.403359,0 v 2.51303 h 10.790438 v -2.51303 z m -25.403359,5.0294 v 2.51303 h 10.790438 v -2.51303 z m 25.403359,0 v 2.51303 h 10.790438 v -2.51303 z m -25.403359,5.02606 v 2.51637 h 10.790438 v -2.51637 z m 25.403359,0 v 2.51637 h 10.790438 v -2.51637 z m -25.403359,5.0294 v 2.51637 h 10.790438 v -2.51637 z m 25.403359,0 v 2.51637 h 10.790438 v -2.51637 z"
             style="color:#000000;display:inline;overflow:visible;visibility:visible;opacity:0.2;fill:#ba00ff;fill-opacity:1;fill-rule:nonzero;stroke:none;stroke-width:0.99999994;marker:none"
             id="path3535" />
        </g>
        <rect
           ry="3.0576727"
           rx="3.9569874"
           y="-6.8256979"
           x="-12.916362"
           height="4.3519998"
           width="89.087997"
           id="rect4048"
           style="opacity:0.65090906;fill:url(#radialGradient4543);fill-opacity:1;stroke:none" />
        <path
           id="rect4371"
           d="m -11.246114,-7.507947 c -2.168522,0 -3.90625,1.74244 -3.90625,3.90625 v 70.59375 c 0,2.16381 1.737728,3.90625 3.90625,3.90625 h 83.1875 c 2.168522,0 3.90625,-1.74244 3.90625,-3.90625 v -70.59375 c 0,-2.16381 -1.737728,-3.90625 -3.90625,-3.90625 z"
           style="opacity:0.27999998;fill:url(#linearGradient4388);fill-opacity:1;stroke:none"
           inkscape:connector-curvature="0" />
        <g
           transform="matrix(1.0971739,0,0,1.1862198,93.934992,-36.128179)"
           style="display:inline"
           id="g907">
          <path
             sodipodi:nodetypes="cccc"
             style="fill:#e4e4e4;fill-opacity:1;fill-rule:nonzero;stroke-width:0.91380757"
             id="path3934"
             d="m -15.429049,60.458822 -0.440308,9.064825 c 4.251697,27.551334 -4.100443,21.043241 -23.177864,20.566419 z"
             inkscape:connector-curvature="0" />
          <path
             sodipodi:nodetypes="ccccccc"
             style="fill:#effcfe;fill-opacity:1;fill-rule:nonzero;stroke:#fefefe;stroke-width:0.1810281;stroke-miterlimit:4;stroke-dasharray:none;stroke-opacity:1"
             id="path3922"
             d="m -17.628553,64.454487 -22.246915,26.119232 h 1.779752 l 21.16238,-25.528172 0.194661,-0.253312 v -0.337748 c -0.43925,-0.246301 -0.889878,0 -0.889878,0 z"
             inkscape:connector-curvature="0" />
          <path
             style="fill:url(#linearGradient5360);fill-rule:nonzero"
             id="path4278"
             d="m -40.956561,91.612698 26,-31 c -2.328567,2.776369 -4.36141,3 -11,3 h -12 v 15 c 0,6.644068 0.04437,9.370179 -3,13 z"
             inkscape:connector-curvature="0" />
          <path
             sodipodi:nodetypes="cscscccsc"
             inkscape:connector-curvature="0"
             style="fill:#ffffff;fill-opacity:0.86614176;fill-rule:nonzero"
             id="path4282"
             d="m -15.832594,60.440827 c -3.547485,1.889883 -4.583031,2.224325 -11.221621,2.224325 h -12 v 15 c 0,6.644068 0.04437,9.370179 -3,13 4,-5 4.000382,-8.356667 4,-13 v -14 h 11 c 5,0 8.263026,0.393792 11.221621,-3.224325 z" />
        </g>
        <g
           id="g986"
           transform="matrix(1.0060842,0,0,1,0.09409158,0)">
          <path
             inkscape:connector-curvature="0"
             style="opacity:0;fill:#000000;fill-opacity:1;stroke:none"
             d="m -11.527364,-20.414197 c -2.182681,0 -3.9375,1.754819 -3.9375,3.9375 v 12 c 0,-2.182681 1.754819,-3.9375 3.9375,-3.9375 h 83.75 c 2.182681,0 3.9375,1.754819 3.9375,3.9375 v -12 c 0,-2.182681 -1.754819,-3.9375 -3.9375,-3.9375 z"
             id="rect4080" />
          <path
             inkscape:connector-curvature="0"
             style="fill:#e4e8e8;fill-opacity:1;stroke:#738589;stroke-width:0.99243301;stroke-miterlimit:4;stroke-dasharray:none;stroke-opacity:1"
             d="m -11.229786,-20.105492 c -2.168501,0 -3.925898,1.761406 -3.925898,3.934855 v 3.965838 c 0,-2.173448 1.757397,-3.934854 3.925898,-3.934854 h 83.154841 c 2.168502,0 3.925898,1.761406 3.925898,3.934854 v -3.965838 c 0,-2.173449 -1.757396,-3.934855 -3.925898,-3.934855 z"
             id="path4058" />
          <path
             id="path4060"
             d="m -11.229786,-12.17466 c -2.168501,0 -3.925898,1.761407 -3.925898,3.934856 v 3.965839 c 0,-2.173449 1.757397,-3.934856 3.925898,-3.934856 h 83.154841 c 2.168502,0 3.925898,1.761407 3.925898,3.934856 v -3.965839 c 0,-2.173449 -1.757396,-3.934856 -3.925898,-3.934856 z"
             style="fill:#e4e8e8;fill-opacity:1;stroke:#738589;stroke-width:0.99243301;stroke-miterlimit:4;stroke-dasharray:none;stroke-opacity:1"
             inkscape:connector-curvature="0" />
          <path
             inkscape:connector-curvature="0"
             style="fill:#e4e8e8;fill-opacity:1;stroke:#738589;stroke-width:0.99243301;stroke-miterlimit:4;stroke-dasharray:none;stroke-opacity:1"
             d="m -11.229786,-16.140075 c -2.168501,0 -3.925898,1.761406 -3.925898,3.934854 v 3.965839 c 0,-2.173449 1.757397,-3.934855 3.925898,-3.934855 h 83.154841 c 2.168502,0 3.925898,1.761406 3.925898,3.934855 v -3.965839 c 0,-2.173448 -1.757396,-3.934854 -3.925898,-3.934854 z"
             id="path4062" />
          <path
             style="opacity:0.25818182;fill:url(#linearGradient4369);fill-opacity:1;stroke:none;stroke-width:1.00409496"
             d="m -11.214056,-19.914197 c -2.186319,0 -3.938308,1.74244 -3.938308,3.90625 v 13 c 0,-2.16381 2.104388,-4.784629 4.290702,-4.780063 l 83.693999,0.174762 c 2.186314,0.00457 3.762111,2.441491 3.762111,4.605301 v -13 c 0,-2.16381 -1.751989,-3.90625 -3.938308,-3.90625 z"
             id="rect4358"
             inkscape:connector-curvature="0"
             sodipodi:nodetypes="sscsscsss" />
        </g>
        <rect
           transform="matrix(1.2146192,0,0,1.3113605,-18.088534,19.372096)"
           style="display:inline;opacity:0.5078125;fill:url(#linearGradient4767-6);fill-opacity:1;stroke:none"
           id="rect4146"
           width="75.965775"
           height="69.024437"
           x="2"
           y="-30"
           rx="3.9569874"
           ry="3.9569881"
           clip-path="url(#clipPath4156-4-1-2)" />
        <g
           id="g1025"
           transform="matrix(0.99981943,0,0,0.86598753,-18.168205,-9.835483)">
          <g
             transform="matrix(0.56255837,0,0,0.80028401,19.855633,-13.025902)"
             style="display:inline"
             id="layer7" />
        </g>
      </g>
      <path
         inkscape:connector-curvature="0"
         id="path4989"
         d="m 9.9740341,5.1444869 c -3.116621,0 -5.667965,2.53951 -5.667965,5.6460041 v 69.277996 c 0,3.106495 2.551344,5.646004 5.667965,5.646004 H 86.765819 c 3.116621,0 5.667968,-2.539509 5.667968,-5.646004 V 10.790491 c 0,-3.1064931 -2.551347,-5.6460041 -5.667968,-5.6460041 z m 0,2.319439 H 86.765819 c 1.888099,0 3.352022,1.480095 3.352022,3.3265651 v 69.277996 c 0,1.846474 -1.463923,3.326564 -3.352022,3.326564 H 9.9740341 c -1.888099,0 -3.352022,-1.48009 -3.352022,-3.326564 V 10.790491 c 0,-1.8464701 1.463923,-3.3265651 3.352022,-3.3265651 z"
         style="color:#000000;font-style:normal;font-variant:normal;font-weight:normal;font-stretch:normal;font-size:medium;line-height:normal;font-family:Sans;-inkscape-font-specification:Sans;text-indent:0;text-align:start;text-decoration:none;text-decoration-line:none;letter-spacing:normal;word-spacing:normal;text-transform:none;writing-mode:lr-tb;direction:ltr;baseline-shift:baseline;text-anchor:start;display:inline;overflow:visible;visibility:visible;fill:#241f1f;fill-opacity:0.63265303;stroke:none;stroke-width:2.3755002;marker:none;enable-background:accumulate" />
    </g>
  </g>
</svg>
