<?xml version="1.0" encoding="UTF-8" standalone="no"?>
<!-- Created with Inkscape (http://www.inkscape.org/) -->

<svg
   xmlns:dc="http://purl.org/dc/elements/1.1/"
   xmlns:cc="http://creativecommons.org/ns#"
   xmlns:rdf="http://www.w3.org/1999/02/22-rdf-syntax-ns#"
   xmlns:svg="http://www.w3.org/2000/svg"
   xmlns="http://www.w3.org/2000/svg"
   xmlns:xlink="http://www.w3.org/1999/xlink"
   xmlns:sodipodi="http://sodipodi.sourceforge.net/DTD/sodipodi-0.dtd"
   xmlns:inkscape="http://www.inkscape.org/namespaces/inkscape"
   width="96"
   height="96"
   viewBox="0 0 96.000001 96.000004"
   version="1.1"
   id="svg1072"
   inkscape:version="0.92.1 r15371"
   sodipodi:docname="stock_certificate.svg">
  <defs
     id="defs1066">
    <linearGradient
       id="linearGradient886">
      <stop
         style="stop-color:#000000;stop-opacity:0;"
         offset="0"
         id="stop872" />
      <stop
         id="stop874"
         offset="0.03175623"
         style="stop-color:#000000;stop-opacity:0.96470588;" />
      <stop
         id="stop876"
         offset="0.09425623"
         style="stop-color:#000000;stop-opacity:0;" />
      <stop
         id="stop878"
         offset="0.49595019"
         style="stop-color:#000000;stop-opacity:0;" />
      <stop
         id="stop880"
         offset="0.90525883"
         style="stop-color:#000000;stop-opacity:0;" />
      <stop
         style="stop-color:#000000;stop-opacity:0.98823529;"
         offset="0.96241152"
         id="stop882" />
      <stop
         style="stop-color:#000000;stop-opacity:0.46456692"
         offset="1"
         id="stop884" />
    </linearGradient>
    <linearGradient
       inkscape:collect="always"
       xlink:href="#linearGradient6139-0"
       id="linearGradient4071"
       gradientUnits="userSpaceOnUse"
       gradientTransform="matrix(1.1071428,0,0,1.1071426,-4.9939026,-3.620687)"
       x1="6"
       y1="47.000011"
       x2="90"
       y2="47.000011" />
    <linearGradient
       id="linearGradient6139-0">
      <stop
         id="stop6141-2"
         offset="0"
         style="stop-color:#b0b9be;stop-opacity:1" />
      <stop
         style="stop-color:#ffffff;stop-opacity:1;"
         offset="0.25"
         id="stop6151-0" />
      <stop
         style="stop-color:#93a2a7;stop-opacity:1"
         offset="0.5"
         id="stop6147-1" />
      <stop
         id="stop6149-4"
         offset="0.75"
         style="stop-color:#f9fbfb;stop-opacity:1" />
      <stop
         id="stop6143-4"
         offset="1"
         style="stop-color:#b0b8be;stop-opacity:1" />
    </linearGradient>
    <linearGradient
       gradientTransform="translate(0.1489535,0.415026)"
       inkscape:collect="always"
       xlink:href="#linearGradient3832-0-6-1-1"
       id="linearGradient4129"
       x1="1.5"
       y1="88.171875"
       x2="94.5"
       y2="88.171875"
       gradientUnits="userSpaceOnUse" />
    <linearGradient
       id="linearGradient3832-0-6-1-1">
      <stop
         style="stop-color:#000000;stop-opacity:1;"
         offset="0"
         id="stop3834-6-3-7-1" />
      <stop
         id="stop3872-2-4"
         offset="0.1"
         style="stop-color:#000000;stop-opacity:0.58823532;" />
      <stop
         style="stop-color:#000000;stop-opacity:0.58823532;"
         offset="0.89999998"
         id="stop3844-6-2-7-6" />
      <stop
         style="stop-color:#000000;stop-opacity:1;"
         offset="1"
         id="stop3836-5-0-2-9" />
    </linearGradient>
    <radialGradient
       inkscape:collect="always"
       xlink:href="#linearGradient4050"
       id="radialGradient7462"
       gradientUnits="userSpaceOnUse"
       gradientTransform="matrix(0.97513378,0,0,0.04919072,34.047649,80.581722)"
       cx="13.948145"
       cy="44.892841"
       fx="13.948145"
       fy="44.892841"
       r="43.199203" />
    <linearGradient
       inkscape:collect="always"
       id="linearGradient4050">
      <stop
         style="stop-color:#ffffff;stop-opacity:1;"
         offset="0"
         id="stop4052" />
      <stop
         style="stop-color:#ffffff;stop-opacity:0;"
         offset="1"
         id="stop4054" />
    </linearGradient>
    <radialGradient
       inkscape:collect="always"
       xlink:href="#linearGradient4050"
       id="radialGradient7464"
       gradientUnits="userSpaceOnUse"
       gradientTransform="matrix(0.88832663,0,0,0.04919072,31.959518,-90.31726)"
       cx="13.948145"
       cy="44.892841"
       fx="13.948145"
       fy="44.892841"
       r="43.199203" />
    <radialGradient
       inkscape:collect="always"
       xlink:href="#linearGradient4050"
       id="radialGradient4543"
       gradientUnits="userSpaceOnUse"
       gradientTransform="matrix(1,0,0,0.04885057,-16.372364,-3.861835)"
       cx="48"
       cy="-16.128"
       fx="48"
       fy="-16.128"
       r="44.543999" />
    <linearGradient
       inkscape:collect="always"
       xlink:href="#linearGradient886"
       id="linearGradient4388"
       x1="2.5"
       y1="54.296875"
       x2="93.5"
       y2="54.296875"
       gradientUnits="userSpaceOnUse"
       gradientTransform="translate(-17.652364,-22.601697)" />
    <linearGradient
       id="linearGradient4160">
      <stop
         id="stop4170"
         offset="0"
         style="stop-color:#000000;stop-opacity:0;" />
      <stop
         style="stop-color:#000000;stop-opacity:0.96470588;"
         offset="0.03175623"
         id="stop4186" />
      <stop
         style="stop-color:#000000;stop-opacity:0;"
         offset="0.09425623"
         id="stop4182" />
      <stop
         style="stop-color:#000000;stop-opacity:0;"
         offset="0.49595019"
         id="stop4180" />
      <stop
         style="stop-color:#000000;stop-opacity:0;"
         offset="0.90525883"
         id="stop4178" />
      <stop
         id="stop4184"
         offset="0.96241152"
         style="stop-color:#000000;stop-opacity:0.98823529;" />
      <stop
         id="stop4168"
         offset="1"
         style="stop-color:#000000;stop-opacity:0;" />
    </linearGradient>
    <linearGradient
       gradientTransform="matrix(1.0000468,0,0,0.991319,-17.353732,9.636111)"
       inkscape:collect="always"
       xlink:href="#linearGradient13484"
       id="linearGradient13490"
       x1="47.056839"
       y1="22.252237"
       x2="48.640831"
       y2="22.252237"
       gradientUnits="userSpaceOnUse" />
    <linearGradient
       id="linearGradient13484">
      <stop
         style="stop-color:#849699;stop-opacity:1"
         offset="0"
         id="stop13486" />
      <stop
         style="stop-color:#0b0d0d;stop-opacity:0"
         offset="1"
         id="stop13488" />
    </linearGradient>
    <linearGradient
       inkscape:collect="always"
       xlink:href="#linearGradient4160"
       id="linearGradient4369"
       x1="2.5"
       y1="11.140625"
       x2="93.5"
       y2="11.140625"
       gradientUnits="userSpaceOnUse"
       gradientTransform="translate(-17.652364,-22.601697)" />
    <linearGradient
       inkscape:collect="always"
       xlink:href="#linearGradient4050"
       id="linearGradient4767-6"
       gradientUnits="userSpaceOnUse"
       x1="2.7713892"
       y1="-28.64156"
       x2="50.527882"
       y2="14.514202" />
    <clipPath
       id="clipPath4156-4-1-2"
       clipPathUnits="userSpaceOnUse">
      <path
         inkscape:connector-curvature="0"
         id="path4158-0-8-6"
         d="m 27.046336,-55.695463 -14.21366,13.321486 h 0.06127 l 15.653407,21.770763 10.231384,-10.546177 C 38.561832,-32.30156 27.468089,-54.819245 27.046336,-55.695463 Z M 9.6468554,-39.382809 -5.2407289,-25.32124 15.987863,-7.8059573 26.372412,-18.382966 Z m 31.4906096,12.951445 -9.741259,9.713584 8.944804,12.4580526 7.780753,-7.5550056 z m -49.8397109,4.378822 -13.7541661,12.9822847 26.2830181,13.84571 0.06127,-0.0617 -0.122531,-0.0617 L 13.598503,-5.4007374 -8.7022409,-22.052595 Z m 38.0154159,7.400825 -9.802525,9.7752596 11.579232,9.5594001 7.62759,-7.40083 -8.669108,-11.0087257 z m 20.187073,5.6739697 -7.382526,7.2158 6.187844,8.54179 5.820249,-6.13651996 z m -32.195166,6.32154 -9.5574606,9.49772 13.6622686,7.1849703 7.933918,-7.6783603 z m 23.311629,2.37443004 -7.10683,6.93826996 8.362778,6.9074403 5.360756,-5.6739699 -0.06127,-0.0925 -0.0919,0.12335 -6.463539,-8.20258036 z m -8.730374,8.54178036 -7.505057,7.3391599 10.353916,5.45811 c 1.397496,-1.32103 5.67514,-6.12292 5.850882,-6.32154 z"
         style="opacity:0.6;fill:#ffffff;fill-opacity:1;stroke:none" />
    </clipPath>
  </defs>
  <sodipodi:namedview
     id="base"
     pagecolor="#ffffff"
     bordercolor="#666666"
     borderopacity="1.0"
     inkscape:pageopacity="0.0"
     inkscape:pageshadow="2"
     inkscape:zoom="2.3469888"
     inkscape:cx="8.2951398"
     inkscape:cy="48"
     inkscape:document-units="px"
     inkscape:current-layer="g1003"
     showgrid="false"
     inkscape:showpageshadow="false"
     units="px"
     inkscape:lockguides="true"
     inkscape:window-width="1280"
     inkscape:window-height="972"
     inkscape:window-x="0"
     inkscape:window-y="26"
     inkscape:window-maximized="1"
     inkscape:snap-global="false">
    <sodipodi:guide
       position="0,0"
       orientation="0,96"
       id="guide1621"
       inkscape:locked="true" />
    <sodipodi:guide
       position="96.000002,0"
       orientation="-96,0"
       id="guide1623"
       inkscape:locked="true" />
    <sodipodi:guide
       position="96.000002,96.000002"
       orientation="0,-96"
       id="guide1625"
       inkscape:locked="true" />
    <sodipodi:guide
       position="0,96.000002"
       orientation="96,0"
       id="guide1627"
       inkscape:locked="true" />
  </sodipodi:namedview>
  <metadata
     id="metadata1069">
    <rdf:RDF>
      <cc:Work
         rdf:about="">
        <dc:format>image/svg+xml</dc:format>
        <dc:type
           rdf:resource="http://purl.org/dc/dcmitype/StillImage" />
        <dc:title></dc:title>
        <dc:date>2017</dc:date>
        <dc:creator>
          <cc:Agent>
            <dc:title>Cristian Pozzessere &quot;ilnanny&quot;</dc:title>
          </cc:Agent>
        </dc:creator>
        <dc:subject>
          <rdf:Bag>
            <rdf:li>Global language</rdf:li>
          </rdf:Bag>
        </dc:subject>
        <dc:description>Playing with Inkscape on Gnu/Linux O. S.</dc:description>
        <dc:contributor>
          <cc:Agent>
            <dc:title>In the night, alone like a dog.</dc:title>
          </cc:Agent>
        </dc:contributor>
        <cc:license
           rdf:resource="http://creativecommons.org/licenses/by-sa/4.0/" />
      </cc:Work>
      <cc:License
         rdf:about="http://creativecommons.org/licenses/by-sa/4.0/">
        <cc:permits
           rdf:resource="http://creativecommons.org/ns#Reproduction" />
        <cc:permits
           rdf:resource="http://creativecommons.org/ns#Distribution" />
        <cc:requires
           rdf:resource="http://creativecommons.org/ns#Notice" />
        <cc:requires
           rdf:resource="http://creativecommons.org/ns#Attribution" />
        <cc:permits
           rdf:resource="http://creativecommons.org/ns#DerivativeWorks" />
        <cc:requires
           rdf:resource="http://creativecommons.org/ns#ShareAlike" />
      </cc:License>
    </rdf:RDF>
  </metadata>
  <g
     inkscape:label="Livello 1"
     inkscape:groupmode="layer"
     id="layer1"
     transform="translate(0,-1026.5197)">
    <g
       transform="translate(-0.14895645,1026.1047)"
       style="display:inline"
       id="g1273">
      <path
         style="display:inline;opacity:0.15;fill:#000000;fill-opacity:1;fill-rule:nonzero;stroke:none"
         d="M 89.29181,0.415026 H 7.0060911 c -3.798848,0 -6.8571352,3.058285 -6.8571352,6.8571399 V 89.557884 c 0,3.798857 3.0582872,6.857142 6.8571352,6.857142 H 89.29181 c 3.798857,0 6.857147,-3.058285 6.857147,-6.857142 V 7.2721659 c 0,-3.7988549 -3.05829,-6.8571399 -6.857147,-6.8571399 z"
         id="path3288"
         inkscape:connector-curvature="0" />
      <path
         inkscape:connector-curvature="0"
         id="path4085"
         d="M 88.648954,1.165026 H 7.6489471 c -3.739492,0 -6.749993,3.010499 -6.749993,6.7499969 V 88.915026 c 0,3.739501 3.010501,6.75 6.749993,6.75 H 88.648954 c 3.739503,0 6.750003,-3.010499 6.750003,-6.75 V 7.9150229 c 0,-3.7394979 -3.0105,-6.7499969 -6.750003,-6.7499969 z"
         style="display:inline;opacity:0.15;fill:#000000;fill-opacity:1;fill-rule:nonzero;stroke:none" />
      <path
         style="display:inline;fill:url(#linearGradient4071);fill-opacity:1;fill-rule:nonzero;stroke:none"
         d="M 88.006093,1.915026 H 8.2918111 c -3.680143,0 -6.6428566,2.962713 -6.6428566,6.6428549 V 88.272171 c 0,3.680142 2.9627136,6.642856 6.6428566,6.642856 H 88.006093 c 3.680143,0 6.642854,-2.962714 6.642854,-6.642856 V 8.5578809 c 0,-3.6801419 -2.962711,-6.6428549 -6.642854,-6.6428549 z"
         id="rect4251-1"
         inkscape:connector-curvature="0" />
      <path
         inkscape:connector-curvature="0"
         id="path4989"
         d="m 9.9740341,5.1444869 c -3.116621,0 -5.667965,2.53951 -5.667965,5.6460041 v 69.277996 c 0,3.106495 2.551344,5.646004 5.667965,5.646004 H 86.765819 c 3.116621,0 5.667968,-2.539509 5.667968,-5.646004 V 10.790491 c 0,-3.1064931 -2.551347,-5.6460041 -5.667968,-5.6460041 z m 0,2.319439 H 86.765819 c 1.888099,0 3.352022,1.480095 3.352022,3.3265651 v 69.277996 c 0,1.846474 -1.463923,3.326564 -3.352022,3.326564 H 9.9740341 c -1.888099,0 -3.352022,-1.48009 -3.352022,-3.326564 V 10.790491 c 0,-1.8464701 1.463923,-3.3265651 3.352022,-3.3265651 z"
         style="color:#000000;font-style:normal;font-variant:normal;font-weight:normal;font-stretch:normal;font-size:medium;line-height:normal;font-family:Sans;-inkscape-font-specification:Sans;text-indent:0;text-align:start;text-decoration:none;text-decoration-line:none;letter-spacing:normal;word-spacing:normal;text-transform:none;writing-mode:lr-tb;direction:ltr;baseline-shift:baseline;text-anchor:start;display:inline;overflow:visible;visibility:visible;fill:#241f1f;fill-opacity:0.63265303;stroke:none;stroke-width:2.3755002;marker:none;enable-background:accumulate" />
      <path
         inkscape:connector-curvature="0"
         style="display:inline;opacity:0.65818182;fill:url(#linearGradient4129);fill-opacity:1;fill-rule:nonzero;stroke:none"
         d="m 1.6489535,82.258776 v 6 c 0,3.680142 2.9761066,6.65625 6.6562496,6.65625 H 87.992703 c 3.680143,0 6.656254,-2.976108 6.656254,-6.65625 v -6 c 0,3.680142 -2.976111,6.65625 -6.656254,6.65625 H 8.3052031 c -3.680143,0 -6.6562496,-2.976108 -6.6562496,-6.65625 z"
         id="path4118" />
      <rect
         style="opacity:0.55;fill:url(#radialGradient7462);fill-opacity:1;stroke:none"
         id="rect4131"
         width="84.250008"
         height="4.25"
         x="5.5239539"
         y="80.665031"
         rx="0"
         ry="4.25" />
      <rect
         ry="4.25"
         rx="0"
         y="-90.233963"
         x="5.9750223"
         height="4.25"
         width="76.75"
         id="rect4141"
         style="opacity:0.669;fill:url(#radialGradient7464);fill-opacity:1;stroke:none"
         transform="rotate(90)" />
      <g
         transform="matrix(0.91297981,0,0,0.8444453,20.28803,23.983749)"
         id="g1003">
        <path
           inkscape:connector-curvature="0"
           style="opacity:1;fill:#ebedee;fill-opacity:1;stroke:none"
           d="m -11.246114,-7.507947 c -2.168522,0 -3.90625,1.74244 -3.90625,3.90625 v 70.59375 c 0,2.16381 1.737728,3.90625 3.90625,3.90625 h 83.1875 c 2.168522,0 3.90625,-1.74244 3.90625,-3.90625 v -70.59375 c 0,-2.16381 -1.737728,-3.90625 -3.90625,-3.90625 z"
           id="path1246" />
        <rect
           ry="3.0576727"
           rx="3.9569874"
           y="-6.8256979"
           x="-12.916362"
           height="4.3519998"
           width="89.087997"
           id="rect4048"
           style="opacity:0.65090906;fill:url(#radialGradient4543);fill-opacity:1;stroke:none" />
        <path
           id="rect4371"
           d="m -11.246114,-7.507947 c -2.168522,0 -3.90625,1.74244 -3.90625,3.90625 v 70.59375 c 0,2.16381 1.737728,3.90625 3.90625,3.90625 h 83.1875 c 2.168522,0 3.90625,-1.74244 3.90625,-3.90625 v -70.59375 c 0,-2.16381 -1.737728,-3.90625 -3.90625,-3.90625 z"
           style="opacity:0.27999998;fill:url(#linearGradient4388);fill-opacity:1;stroke:none"
           inkscape:connector-curvature="0" />
        <g
           id="g4067"
           style="opacity:0.83534139"
           transform="matrix(1.04434,0,0,1.1290978,20.535209,-58.037913)">
          <g
             id="g4054"
             transform="matrix(2.4518062,0,0,2.4518062,-1089.6529,-2000.158)"
             style="opacity:0.16867472;fill:#241c1c;fill-opacity:1;stroke:#000000;stroke-width:0.23998591;stroke-miterlimit:4;stroke-dasharray:none;stroke-opacity:1">
            <g
               id="g4056"
               style="fill:#241c1c;fill-opacity:1;stroke:#000000;stroke-width:0.23998591;stroke-miterlimit:4;stroke-dasharray:none;stroke-opacity:1">
              <path
                 inkscape:connector-curvature="0"
                 style="fill:#241c1c;fill-opacity:1;stroke:#000000;stroke-width:0.23998591;stroke-miterlimit:4;stroke-dasharray:none;stroke-opacity:1"
                 d="m 17.8125,21 -2.875,10.6875 4.65625,-4.71875 1.71875,6.4375 2.4375,-9.09375 c -1.681751,-0.124476 -3.0166,-1.446071 -3.15625,-3.125 -0.378367,0.143314 -0.758915,0.25 -1.1875,0.25 -0.583128,0 -1.112591,-0.181203 -1.59375,-0.4375 z"
                 transform="translate(424.57144,828.36218)"
                 id="path4058-3" />
              <path
                 inkscape:connector-curvature="0"
                 style="fill:#241c1c;fill-opacity:1;stroke:#000000;stroke-width:0.23998591;stroke-miterlimit:4;stroke-dasharray:none;stroke-opacity:1"
                 d="m 30.1875,21 c -0.481159,0.256297 -1.010622,0.4375 -1.59375,0.4375 -0.428585,0 -0.809133,-0.106686 -1.1875,-0.25 -0.13965,1.678929 -1.474499,3.000524 -3.15625,3.125 L 26.6875,33.40625 28.375,27 l 4.6875,4.6875 z"
                 transform="translate(424.57144,828.36218)"
                 id="path4061" />
              <path
                 inkscape:connector-curvature="0"
                 style="fill:#241c1c;fill-opacity:1;stroke:#000000;stroke-width:0.23998591;stroke-miterlimit:4;stroke-dasharray:none;stroke-opacity:1"
                 d="m 24,7.59375 c -1.59807,0 -2.90112,1.24803 -3.03125,2.8125 -0.33519,-0.1267 -0.65169,-0.21875 -1.03125,-0.21875 -1.68436,0 -3.0625,1.34689 -3.0625,3.03125 0,0.89156 0.39008,1.69235 1,2.25 -0.6119,0.55778 -1,1.35679 -1,2.25 0,1.68436 1.37814,3.03125 3.0625,3.03125 0.38029,0 0.69552,-0.09162 1.03125,-0.21875 0.13013,1.56447 1.43318,2.8125 3.03125,2.8125 1.59807,0 2.90112,-1.24803 3.03125,-2.8125 0.33573,0.12717 0.65096,0.21875 1.03125,0.21875 1.68436,0 3.0625,-1.34689 3.0625,-3.03125 0,-0.89321 -0.3881,-1.69222 -1,-2.25 0.60992,-0.55765 1,-1.35844 1,-2.25 0,-1.68436 -1.37814,-3.03125 -3.0625,-3.03125 -0.37956,0 -0.69606,0.09202 -1.03125,0.21875 C 26.90112,8.84178 25.59807,7.59375 24,7.59375 Z m 0,3.09375 c 2.649986,0 4.8125,2.131264 4.8125,4.78125 0,2.649986 -2.162514,4.8125 -4.8125,4.8125 -2.649986,0 -4.8125,-2.162514 -4.8125,-4.8125 0,-2.649986 2.162514,-4.78125 4.8125,-4.78125 z"
                 transform="translate(424.57144,828.36218)"
                 id="path4063" />
              <circle
                 r="4.7982244"
                 cy="17.442886"
                 cx="24.243662"
                 style="fill:#241c1c;fill-opacity:1;stroke:#000000;stroke-width:0.30316964;stroke-miterlimit:4;stroke-dasharray:none;stroke-opacity:1"
                 id="circle4065"
                 transform="matrix(0.79158957,0,0,0.79158957,429.38041,830.02895)" />
            </g>
          </g>
          <g
             style="fill:#b41414;fill-opacity:1;stroke:#710000;stroke-width:0.23998591;stroke-miterlimit:4;stroke-dasharray:none;stroke-opacity:1"
             transform="matrix(2.4518062,0,0,2.4518062,-1090.8526,-2000.9582)"
             id="g979">
            <g
               style="fill:#b41414;fill-opacity:1;stroke:#710000;stroke-width:0.23998591;stroke-miterlimit:4;stroke-dasharray:none;stroke-opacity:1"
               id="g3247">
              <path
                 id="rect962"
                 transform="translate(424.57144,828.36218)"
                 d="m 17.8125,21 -2.875,10.6875 4.65625,-4.71875 1.71875,6.4375 2.4375,-9.09375 c -1.681751,-0.124476 -3.0166,-1.446071 -3.15625,-3.125 -0.378367,0.143314 -0.758915,0.25 -1.1875,0.25 -0.583128,0 -1.112591,-0.181203 -1.59375,-0.4375 z"
                 style="fill:#b41414;fill-opacity:1;stroke:#710000;stroke-width:0.23998591;stroke-miterlimit:4;stroke-dasharray:none;stroke-opacity:1"
                 inkscape:connector-curvature="0" />
              <path
                 id="path975"
                 transform="translate(424.57144,828.36218)"
                 d="m 30.1875,21 c -0.481159,0.256297 -1.010622,0.4375 -1.59375,0.4375 -0.428585,0 -0.809133,-0.106686 -1.1875,-0.25 -0.13965,1.678929 -1.474499,3.000524 -3.15625,3.125 L 26.6875,33.40625 28.375,27 l 4.6875,4.6875 z"
                 style="fill:#b41414;fill-opacity:1;stroke:#710000;stroke-width:0.23998591;stroke-miterlimit:4;stroke-dasharray:none;stroke-opacity:1"
                 inkscape:connector-curvature="0" />
              <path
                 id="path915"
                 transform="translate(424.57144,828.36218)"
                 d="m 24,7.59375 c -1.59807,0 -2.90112,1.24803 -3.03125,2.8125 -0.33519,-0.1267 -0.65169,-0.21875 -1.03125,-0.21875 -1.68436,0 -3.0625,1.34689 -3.0625,3.03125 0,0.89156 0.39008,1.69235 1,2.25 -0.6119,0.55778 -1,1.35679 -1,2.25 0,1.68436 1.37814,3.03125 3.0625,3.03125 0.38029,0 0.69552,-0.09162 1.03125,-0.21875 0.13013,1.56447 1.43318,2.8125 3.03125,2.8125 1.59807,0 2.90112,-1.24803 3.03125,-2.8125 0.33573,0.12717 0.65096,0.21875 1.03125,0.21875 1.68436,0 3.0625,-1.34689 3.0625,-3.03125 0,-0.89321 -0.3881,-1.69222 -1,-2.25 0.60992,-0.55765 1,-1.35844 1,-2.25 0,-1.68436 -1.37814,-3.03125 -3.0625,-3.03125 -0.37956,0 -0.69606,0.09202 -1.03125,0.21875 C 26.90112,8.84178 25.59807,7.59375 24,7.59375 Z m 0,3.09375 c 2.649986,0 4.8125,2.131264 4.8125,4.78125 0,2.649986 -2.162514,4.8125 -4.8125,4.8125 -2.649986,0 -4.8125,-2.162514 -4.8125,-4.8125 0,-2.649986 2.162514,-4.78125 4.8125,-4.78125 z"
                 style="fill:#b41414;fill-opacity:1;stroke:#710000;stroke-width:0.23998591;stroke-miterlimit:4;stroke-dasharray:none;stroke-opacity:1"
                 inkscape:connector-curvature="0" />
              <circle
                 transform="matrix(0.79158957,0,0,0.79158957,429.38041,830.02895)"
                 id="path905"
                 style="fill:#b41414;fill-opacity:1;stroke:#710000;stroke-width:0.30316964;stroke-miterlimit:4;stroke-dasharray:none;stroke-opacity:1"
                 cx="24.243662"
                 cy="17.442886"
                 r="4.7982244" />
            </g>
          </g>
        </g>
        <g
           id="g986">
          <path
             inkscape:connector-curvature="0"
             style="opacity:0;fill:#000000;fill-opacity:1;stroke:none"
             d="m -11.527364,-20.414197 c -2.182681,0 -3.9375,1.754819 -3.9375,3.9375 v 12 c 0,-2.182681 1.754819,-3.9375 3.9375,-3.9375 h 83.75 c 2.182681,0 3.9375,1.754819 3.9375,3.9375 v -12 c 0,-2.182681 -1.754819,-3.9375 -3.9375,-3.9375 z"
             id="rect4080" />
          <path
             inkscape:connector-curvature="0"
             style="fill:#e4e8e8;fill-opacity:1;stroke:#738589;stroke-width:0.99243301;stroke-miterlimit:4;stroke-dasharray:none;stroke-opacity:1"
             d="m -11.229786,-20.105492 c -2.168501,0 -3.925898,1.761406 -3.925898,3.934855 v 3.965838 c 0,-2.173448 1.757397,-3.934854 3.925898,-3.934854 h 83.154841 c 2.168502,0 3.925898,1.761406 3.925898,3.934854 v -3.965838 c 0,-2.173449 -1.757396,-3.934855 -3.925898,-3.934855 z"
             id="path4058" />
          <path
             id="path4060"
             d="m -11.229786,-12.17466 c -2.168501,0 -3.925898,1.761407 -3.925898,3.934856 v 3.965839 c 0,-2.173449 1.757397,-3.934856 3.925898,-3.934856 h 83.154841 c 2.168502,0 3.925898,1.761407 3.925898,3.934856 v -3.965839 c 0,-2.173449 -1.757396,-3.934856 -3.925898,-3.934856 z"
             style="fill:#e4e8e8;fill-opacity:1;stroke:#738589;stroke-width:0.99243301;stroke-miterlimit:4;stroke-dasharray:none;stroke-opacity:1"
             inkscape:connector-curvature="0" />
          <path
             inkscape:connector-curvature="0"
             style="fill:#e4e8e8;fill-opacity:1;stroke:#738589;stroke-width:0.99243301;stroke-miterlimit:4;stroke-dasharray:none;stroke-opacity:1"
             d="m -11.229786,-16.140075 c -2.168501,0 -3.925898,1.761406 -3.925898,3.934854 v 3.965839 c 0,-2.173449 1.757397,-3.934855 3.925898,-3.934855 h 83.154841 c 2.168502,0 3.925898,1.761406 3.925898,3.934855 v -3.965839 c 0,-2.173448 -1.757396,-3.934854 -3.925898,-3.934854 z"
             id="path4062" />
          <path
             style="opacity:0.25818182;fill:url(#linearGradient4369);fill-opacity:1;stroke:none"
             d="m -11.246114,-19.914197 c -2.168522,0 -3.90625,1.74244 -3.90625,3.90625 v 13 c 0,-2.16381 2.087258,-4.784629 4.255776,-4.780063 l 83.012737,0.174762 c 2.168517,0.00457 3.731487,2.441491 3.731487,4.605301 v -13 c 0,-2.16381 -1.737728,-3.90625 -3.90625,-3.90625 z"
             id="rect4358"
             inkscape:connector-curvature="0"
             sodipodi:nodetypes="sscsscsss" />
        </g>
        <rect
           transform="matrix(1.2146192,0,0,1.3113605,-18.088534,19.372096)"
           style="display:inline;opacity:0.589;fill:url(#linearGradient4767-6);fill-opacity:1;stroke:none"
           id="rect4146"
           width="75.965775"
           height="69.024437"
           x="2"
           y="-30"
           rx="3.9569874"
           ry="3.9569881"
           clip-path="url(#clipPath4156-4-1-2)" />
      </g>
    </g>
  </g>
</svg>
