<?xml version="1.0" encoding="UTF-8" standalone="no"?>
<!-- Created with Inkscape (http://www.inkscape.org/) -->

<svg
   xmlns:dc="http://purl.org/dc/elements/1.1/"
   xmlns:cc="http://creativecommons.org/ns#"
   xmlns:rdf="http://www.w3.org/1999/02/22-rdf-syntax-ns#"
   xmlns:svg="http://www.w3.org/2000/svg"
   xmlns="http://www.w3.org/2000/svg"
   xmlns:xlink="http://www.w3.org/1999/xlink"
   xmlns:sodipodi="http://sodipodi.sourceforge.net/DTD/sodipodi-0.dtd"
   xmlns:inkscape="http://www.inkscape.org/namespaces/inkscape"
   width="96"
   height="96"
   viewBox="0 0 96.000001 96.000004"
   version="1.1"
   id="svg1072"
   inkscape:version="0.92.1 r15371"
   sodipodi:docname="text-x-source.svg">
  <defs
     id="defs1066">
    <linearGradient
       inkscape:collect="always"
       xlink:href="#linearGradient6139-0"
       id="linearGradient4071"
       gradientUnits="userSpaceOnUse"
       gradientTransform="matrix(1.1071428,0,0,1.1071426,-4.9939026,-3.620687)"
       x1="6"
       y1="47.000011"
       x2="90"
       y2="47.000011" />
    <linearGradient
       id="linearGradient6139-0">
      <stop
         id="stop6141-2"
         offset="0"
         style="stop-color:#b0b9be;stop-opacity:1" />
      <stop
         style="stop-color:#ffffff;stop-opacity:1;"
         offset="0.25"
         id="stop6151-0" />
      <stop
         style="stop-color:#93a2a7;stop-opacity:1"
         offset="0.5"
         id="stop6147-1" />
      <stop
         id="stop6149-4"
         offset="0.75"
         style="stop-color:#f9fbfb;stop-opacity:1" />
      <stop
         id="stop6143-4"
         offset="1"
         style="stop-color:#b0b8be;stop-opacity:1" />
    </linearGradient>
    <linearGradient
       gradientTransform="translate(0.1489535,0.415026)"
       inkscape:collect="always"
       xlink:href="#linearGradient3832-0-6-1-1"
       id="linearGradient4129"
       x1="1.5"
       y1="88.171875"
       x2="94.5"
       y2="88.171875"
       gradientUnits="userSpaceOnUse" />
    <linearGradient
       id="linearGradient3832-0-6-1-1">
      <stop
         style="stop-color:#000000;stop-opacity:1;"
         offset="0"
         id="stop3834-6-3-7-1" />
      <stop
         id="stop3872-2-4"
         offset="0.1"
         style="stop-color:#000000;stop-opacity:0.58823532;" />
      <stop
         style="stop-color:#000000;stop-opacity:0.58823532;"
         offset="0.89999998"
         id="stop3844-6-2-7-6" />
      <stop
         style="stop-color:#000000;stop-opacity:1;"
         offset="1"
         id="stop3836-5-0-2-9" />
    </linearGradient>
    <radialGradient
       inkscape:collect="always"
       xlink:href="#linearGradient4050"
       id="radialGradient7462"
       gradientUnits="userSpaceOnUse"
       gradientTransform="matrix(0.97513378,0,0,0.04919072,34.047649,80.581722)"
       cx="13.948145"
       cy="44.892841"
       fx="13.948145"
       fy="44.892841"
       r="43.199203" />
    <linearGradient
       inkscape:collect="always"
       id="linearGradient4050">
      <stop
         style="stop-color:#ffffff;stop-opacity:1;"
         offset="0"
         id="stop4052" />
      <stop
         style="stop-color:#ffffff;stop-opacity:0;"
         offset="1"
         id="stop4054" />
    </linearGradient>
    <radialGradient
       inkscape:collect="always"
       xlink:href="#linearGradient4050"
       id="radialGradient7464"
       gradientUnits="userSpaceOnUse"
       gradientTransform="matrix(0.88832663,0,0,0.04919072,31.959518,-90.31726)"
       cx="13.948145"
       cy="44.892841"
       fx="13.948145"
       fy="44.892841"
       r="43.199203" />
    <radialGradient
       inkscape:collect="always"
       xlink:href="#linearGradient4050"
       id="radialGradient4543"
       gradientUnits="userSpaceOnUse"
       gradientTransform="matrix(1,0,0,0.04885057,-16.372364,-3.861835)"
       cx="48"
       cy="-16.128"
       fx="48"
       fy="-16.128"
       r="44.543999" />
    <linearGradient
       inkscape:collect="always"
       xlink:href="#linearGradient4160"
       id="linearGradient4388"
       x1="2.5"
       y1="54.296875"
       x2="93.5"
       y2="54.296875"
       gradientUnits="userSpaceOnUse"
       gradientTransform="translate(-17.652364,-22.601697)" />
    <linearGradient
       id="linearGradient4160">
      <stop
         id="stop4170"
         offset="0"
         style="stop-color:#000000;stop-opacity:0;" />
      <stop
         style="stop-color:#000000;stop-opacity:0.96470588;"
         offset="0.03175623"
         id="stop4186" />
      <stop
         style="stop-color:#000000;stop-opacity:0;"
         offset="0.09425623"
         id="stop4182" />
      <stop
         style="stop-color:#000000;stop-opacity:0;"
         offset="0.49595019"
         id="stop4180" />
      <stop
         style="stop-color:#000000;stop-opacity:0;"
         offset="0.90525883"
         id="stop4178" />
      <stop
         id="stop4184"
         offset="0.96241152"
         style="stop-color:#000000;stop-opacity:0.98823529;" />
      <stop
         id="stop4168"
         offset="1"
         style="stop-color:#000000;stop-opacity:0;" />
    </linearGradient>
    <linearGradient
       id="linearGradient13484">
      <stop
         style="stop-color:#849699;stop-opacity:1"
         offset="0"
         id="stop13486" />
      <stop
         style="stop-color:#0b0d0d;stop-opacity:0"
         offset="1"
         id="stop13488" />
    </linearGradient>
    <linearGradient
       inkscape:collect="always"
       xlink:href="#linearGradient4160"
       id="linearGradient4369"
       x1="2.5"
       y1="11.140625"
       x2="93.5"
       y2="11.140625"
       gradientUnits="userSpaceOnUse"
       gradientTransform="matrix(1.0082067,0,0,1,-17.67288,-22.601697)" />
    <linearGradient
       inkscape:collect="always"
       xlink:href="#linearGradient4050"
       id="linearGradient4767-6"
       gradientUnits="userSpaceOnUse"
       x1="2.7713892"
       y1="-28.64156"
       x2="50.527882"
       y2="14.514202" />
    <clipPath
       id="clipPath4156-4-1-2"
       clipPathUnits="userSpaceOnUse">
      <path
         inkscape:connector-curvature="0"
         id="path4158-0-8-6"
         d="m 27.046336,-55.695463 -14.21366,13.321486 h 0.06127 l 15.653407,21.770763 10.231384,-10.546177 C 38.561832,-32.30156 27.468089,-54.819245 27.046336,-55.695463 Z M 9.6468554,-39.382809 -5.2407289,-25.32124 15.987863,-7.8059573 26.372412,-18.382966 Z m 31.4906096,12.951445 -9.741259,9.713584 8.944804,12.4580526 7.780753,-7.5550056 z m -49.8397109,4.378822 -13.7541661,12.9822847 26.2830181,13.84571 0.06127,-0.0617 -0.122531,-0.0617 L 13.598503,-5.4007374 -8.7022409,-22.052595 Z m 38.0154159,7.400825 -9.802525,9.7752596 11.579232,9.5594001 7.62759,-7.40083 -8.669108,-11.0087257 z m 20.187073,5.6739697 -7.382526,7.2158 6.187844,8.54179 5.820249,-6.13651996 z m -32.195166,6.32154 -9.5574606,9.49772 13.6622686,7.1849703 7.933918,-7.6783603 z m 23.311629,2.37443004 -7.10683,6.93826996 8.362778,6.9074403 5.360756,-5.6739699 -0.06127,-0.0925 -0.0919,0.12335 -6.463539,-8.20258036 z m -8.730374,8.54178036 -7.505057,7.3391599 10.353916,5.45811 c 1.397496,-1.32103 5.67514,-6.12292 5.850882,-6.32154 z"
         style="opacity:0.6;fill:#ffffff;fill-opacity:1;stroke:none" />
    </clipPath>
    <radialGradient
       gradientTransform="matrix(0.93962333,0.77477937,-1.7975241,2.1799696,88.130548,-93.365748)"
       gradientUnits="userSpaceOnUse"
       id="radialGradient3996-3-3-1"
       r="14.16129"
       cy="47.141338"
       cx="48.30785">
      <stop
         offset="0"
         style="stop-color:#000000;stop-opacity:0.22264875"
         id="stop3954-3-6-2" />
      <stop
         offset="0.5"
         style="stop-color:#000000;stop-opacity:0.0678183"
         id="stop3958-3-6-7" />
      <stop
         offset="1"
         style="stop-color:#000000;stop-opacity:0.02431222"
         id="stop3956-4-0-0" />
    </radialGradient>
    <linearGradient
       gradientUnits="userSpaceOnUse"
       id="linearGradient4308-6-4"
       y2="4"
       x2="73"
       y1="52"
       x1="45">
      <stop
         offset="0"
         style="stop-color:#000000;stop-opacity:0.10677083"
         id="stop4304-4-4" />
      <stop
         offset="1"
         style="stop-color:#000000;stop-opacity:0"
         id="stop4306-3-9" />
    </linearGradient>
    <linearGradient
       gradientTransform="translate(-75.954866,24.617783)"
       y2="36"
       x2="37"
       y1="46.124821"
       x1="48.992088"
       gradientUnits="userSpaceOnUse"
       id="linearGradient3341-2"
       xlink:href="#linearGradient4280-6-9"
       inkscape:collect="always" />
    <linearGradient
       gradientUnits="userSpaceOnUse"
       id="linearGradient4280-6-9"
       y2="36"
       x2="37"
       y1="46.124821"
       x1="48.992088">
      <stop
         offset="0"
         style="stop-color:#cfcfcf;stop-opacity:1"
         id="stop4293-95-9" />
      <stop
         offset="0.2098622"
         style="stop-color:#b7b7b7;stop-opacity:1"
         id="stop4295-8-1" />
      <stop
         offset="1"
         style="stop-color:#c9c9c9;stop-opacity:1"
         id="stop4297-0-3" />
    </linearGradient>
    <linearGradient
       inkscape:collect="always"
       xlink:href="#linearGradient4280-6-9"
       id="linearGradient5360"
       gradientUnits="userSpaceOnUse"
       gradientTransform="translate(-74.956561,27.612698)"
       x1="48.992088"
       y1="46.124821"
       x2="37"
       y2="36" />
    <linearGradient
       inkscape:collect="always"
       xlink:href="#linearGradient4265"
       id="linearGradient4116"
       gradientUnits="userSpaceOnUse"
       gradientTransform="matrix(0.94522903,0,0,0.94522903,-5.6050223,57.48505)"
       x1="28.017611"
       y1="43.59911"
       x2="106.27312"
       y2="43.59911" />
    <linearGradient
       id="linearGradient4265">
      <stop
         style="stop-color:#0095ed;stop-opacity:1;"
         offset="0"
         id="stop4267" />
      <stop
         id="stop4532"
         offset="0.12781209"
         style="stop-color:#ffff19;stop-opacity:1;" />
      <stop
         id="stop4530"
         offset="0.25562418"
         style="stop-color:#ff2222;stop-opacity:1;" />
      <stop
         id="stop4273"
         offset="0.51124835"
         style="stop-color:#09e409;stop-opacity:1;" />
      <stop
         style="stop-color:#00d8fa;stop-opacity:1;"
         offset="0.75562418"
         id="stop4534" />
      <stop
         style="stop-color:#ff09f7;stop-opacity:1;"
         offset="1"
         id="stop4269" />
    </linearGradient>
  </defs>
  <sodipodi:namedview
     id="base"
     pagecolor="#ffffff"
     bordercolor="#666666"
     borderopacity="1.0"
     inkscape:pageopacity="0.0"
     inkscape:pageshadow="2"
     inkscape:zoom="3.9809185"
     inkscape:cx="52.981737"
     inkscape:cy="48"
     inkscape:document-units="px"
     inkscape:current-layer="g1003"
     showgrid="false"
     inkscape:showpageshadow="false"
     units="px"
     inkscape:lockguides="true"
     inkscape:window-width="1280"
     inkscape:window-height="972"
     inkscape:window-x="0"
     inkscape:window-y="26"
     inkscape:window-maximized="1"
     inkscape:snap-global="false">
    <sodipodi:guide
       position="0,0"
       orientation="0,96"
       id="guide1621"
       inkscape:locked="true" />
    <sodipodi:guide
       position="96.000002,0"
       orientation="-96,0"
       id="guide1623"
       inkscape:locked="true" />
    <sodipodi:guide
       position="96.000002,96.000002"
       orientation="0,-96"
       id="guide1625"
       inkscape:locked="true" />
    <sodipodi:guide
       position="0,96.000002"
       orientation="96,0"
       id="guide1627"
       inkscape:locked="true" />
  </sodipodi:namedview>
  <metadata
     id="metadata1069">
    <rdf:RDF>
      <cc:Work
         rdf:about="">
        <dc:format>image/svg+xml</dc:format>
        <dc:type
           rdf:resource="http://purl.org/dc/dcmitype/StillImage" />
        <dc:title></dc:title>
        <dc:date>2017</dc:date>
        <dc:creator>
          <cc:Agent>
            <dc:title>Cristian Pozzessere &quot;ilnanny&quot;</dc:title>
          </cc:Agent>
        </dc:creator>
        <dc:subject>
          <rdf:Bag>
            <rdf:li>Global language</rdf:li>
          </rdf:Bag>
        </dc:subject>
        <dc:description>Playing with Inkscape on Gnu/Linux O. S.</dc:description>
        <dc:contributor>
          <cc:Agent>
            <dc:title>In the night, alone like a dog.</dc:title>
          </cc:Agent>
        </dc:contributor>
        <cc:license
           rdf:resource="http://creativecommons.org/licenses/by-sa/4.0/" />
      </cc:Work>
      <cc:License
         rdf:about="http://creativecommons.org/licenses/by-sa/4.0/">
        <cc:permits
           rdf:resource="http://creativecommons.org/ns#Reproduction" />
        <cc:permits
           rdf:resource="http://creativecommons.org/ns#Distribution" />
        <cc:requires
           rdf:resource="http://creativecommons.org/ns#Notice" />
        <cc:requires
           rdf:resource="http://creativecommons.org/ns#Attribution" />
        <cc:permits
           rdf:resource="http://creativecommons.org/ns#DerivativeWorks" />
        <cc:requires
           rdf:resource="http://creativecommons.org/ns#ShareAlike" />
      </cc:License>
    </rdf:RDF>
  </metadata>
  <g
     inkscape:label="Livello 1"
     inkscape:groupmode="layer"
     id="layer1"
     transform="translate(0,-1026.5197)">
    <g
       transform="translate(-0.14895645,1026.1047)"
       style="display:inline"
       id="g1273">
      <path
         style="display:inline;opacity:0.15;fill:#000000;fill-opacity:1;fill-rule:nonzero;stroke:none"
         d="M 89.29181,0.415026 H 7.0060911 c -3.798848,0 -6.8571352,3.058285 -6.8571352,6.8571399 V 89.557884 c 0,3.798857 3.0582872,6.857142 6.8571352,6.857142 H 89.29181 c 3.798857,0 6.857147,-3.058285 6.857147,-6.857142 V 7.2721659 c 0,-3.7988549 -3.05829,-6.8571399 -6.857147,-6.8571399 z"
         id="path3288"
         inkscape:connector-curvature="0" />
      <path
         inkscape:connector-curvature="0"
         id="path4085"
         d="M 88.648954,1.165026 H 7.6489471 c -3.739492,0 -6.749993,3.010499 -6.749993,6.7499969 V 88.915026 c 0,3.739501 3.010501,6.75 6.749993,6.75 H 88.648954 c 3.739503,0 6.750003,-3.010499 6.750003,-6.75 V 7.9150229 c 0,-3.7394979 -3.0105,-6.7499969 -6.750003,-6.7499969 z"
         style="display:inline;opacity:0.15;fill:#000000;fill-opacity:1;fill-rule:nonzero;stroke:none" />
      <path
         style="display:inline;fill:url(#linearGradient4071);fill-opacity:1;fill-rule:nonzero;stroke:none"
         d="M 88.006093,1.915026 H 8.2918111 c -3.680143,0 -6.6428566,2.962713 -6.6428566,6.6428549 V 88.272171 c 0,3.680142 2.9627136,6.642856 6.6428566,6.642856 H 88.006093 c 3.680143,0 6.642854,-2.962714 6.642854,-6.642856 V 8.5578809 c 0,-3.6801419 -2.962711,-6.6428549 -6.642854,-6.6428549 z"
         id="rect4251-1"
         inkscape:connector-curvature="0" />
      <path
         inkscape:connector-curvature="0"
         style="display:inline;opacity:0.65818182;fill:url(#linearGradient4129);fill-opacity:1;fill-rule:nonzero;stroke:none"
         d="m 1.6489535,82.258776 v 6 c 0,3.680142 2.9761066,6.65625 6.6562496,6.65625 H 87.992703 c 3.680143,0 6.656254,-2.976108 6.656254,-6.65625 v -6 c 0,3.680142 -2.976111,6.65625 -6.656254,6.65625 H 8.3052031 c -3.680143,0 -6.6562496,-2.976108 -6.6562496,-6.65625 z"
         id="path4118" />
      <rect
         style="opacity:0.55;fill:url(#radialGradient7462);fill-opacity:1;stroke:none"
         id="rect4131"
         width="84.250008"
         height="4.25"
         x="5.5239539"
         y="80.665031"
         rx="0"
         ry="4.25" />
      <rect
         ry="4.25"
         rx="0"
         y="-90.233963"
         x="5.9750223"
         height="4.25"
         width="76.75"
         id="rect4141"
         style="opacity:0.669;fill:url(#radialGradient7464);fill-opacity:1;stroke:none"
         transform="rotate(90)" />
      <g
         transform="matrix(0.91297981,0,0,0.8444453,20.28803,23.983749)"
         id="g1003">
        <path
           inkscape:connector-curvature="0"
           style="opacity:1;fill:#ebedee;fill-opacity:1;stroke:none"
           d="m -11.246114,-7.507947 c -2.168522,0 -3.90625,1.74244 -3.90625,3.90625 v 70.59375 c 0,2.16381 1.737728,3.90625 3.90625,3.90625 h 83.1875 c 2.168522,0 3.90625,-1.74244 3.90625,-3.90625 v -70.59375 c 0,-2.16381 -1.737728,-3.90625 -3.90625,-3.90625 z"
           id="path1246" />
        <rect
           ry="3.0576727"
           rx="3.9569874"
           y="-6.8256979"
           x="-12.916362"
           height="4.3519998"
           width="89.087997"
           id="rect4048"
           style="opacity:0.65090906;fill:url(#radialGradient4543);fill-opacity:1;stroke:none" />
        <g
           id="g923"
           transform="matrix(0.96672792,0,0,1.0451868,-25.419229,-70.827082)">
          <path
             inkscape:connector-curvature="0"
             id="rect4132"
             d="m 57.403011,64.728912 a 0.41837915,0.41837915 0 0 0 -0.384,0.413538 V 88.50733 H 21.307077 a 0.41837915,0.41837915 0 0 0 -0.443076,0.413538 v 43.303302 a 0.41837915,0.41837915 0 0 0 0.443076,0.44308 h 73.107558 a 0.41837915,0.41837915 0 0 0 0.443076,-0.44308 V 65.14245 A 0.41837915,0.41837915 0 0 0 94.414635,64.728912 H 57.432549 a 0.41837915,0.41837915 0 0 0 -0.02954,0 z m 0.472614,0.856614 h 36.125472 v 4.223992 H 57.875625 Z m 0,5.051068 c 15.715289,0.145065 15.996687,0.153814 36.125472,0 v 3.987685 H 57.875625 Z m 0.295384,4.81476 h 35.711935 v 3.810455 H 58.171009 Z m -0.295384,4.63753 h 36.125472 v 3.987685 H 57.875625 Z m 0.295384,4.814761 h 35.711935 v 3.810454 H 58.171009 Z m -36.450394,4.460299 h 35.682396 a 0.41837915,0.41837915 0 0 0 0.02954,0 0.41837915,0.41837915 0 0 0 0.324923,0.17723 h 36.243625 v 3.987685 H 21.720617 v -4.164915 z m 0.17723,4.991991 H 93.882944 V 98.16639 H 21.897845 Z m -0.17723,4.637525 h 72.280482 v 3.98769 H 21.720615 Z m 0.17723,4.81477 h 71.985099 v 3.81045 H 21.897845 Z m -0.17723,4.63753 h 72.280482 v 3.98768 H 21.720615 Z m 0.17723,4.81476 h 71.985099 v 3.81045 H 21.897845 Z m -0.17723,4.63753 h 72.280482 v 3.98768 H 21.720615 Z m 0.17723,4.81476 h 71.985099 v 3.81045 H 21.897845 Z m -0.17723,4.63753 h 72.280482 v 4.4603 H 21.720615 Z"
             style="color:#000000;font-style:normal;font-variant:normal;font-weight:normal;font-stretch:normal;font-size:medium;line-height:normal;font-family:Sans;-inkscape-font-specification:Sans;text-indent:0;text-align:start;text-decoration:none;text-decoration-line:none;letter-spacing:normal;word-spacing:normal;text-transform:none;writing-mode:lr-tb;direction:ltr;baseline-shift:baseline;text-anchor:start;display:inline;overflow:visible;visibility:visible;fill:url(#linearGradient4116);fill-opacity:1;stroke:#000000;stroke-width:0.37809163;stroke-miterlimit:4;stroke-dasharray:none;stroke-opacity:0.56976743;marker:none;enable-background:accumulate" />
          <g
             id="text3341"
             style="font-style:normal;font-variant:normal;font-weight:bold;font-stretch:normal;font-size:25.29351997px;line-height:125%;font-family:Homestead;-inkscape-font-specification:'Homestead Bold';letter-spacing:0px;word-spacing:0px;fill:#800000;fill-opacity:1;stroke:none"
             transform="scale(0.98200161,1.0183283)">
            <path
               id="path3345"
               style="fill:#800000"
               d="m 25.673951,64.514827 h 0.581751 l -0.581751,0.581751 v -0.581751 m 0.809393,0 h 0.632338 l -1.441731,1.441731 V 65.32422 l 0.809393,-0.809393 m -3.414625,10.623279 h 0.632338 l -1.568199,1.568198 v -0.632338 l 0.935861,-0.93586 m 0.834686,0 h 0.632338 l -2.402885,2.402884 v -0.632338 l 1.770547,-1.770546 m -1.770547,0 h 0.708219 l -0.708219,0.708218 v -0.708218 m 2.630526,0 h 0.632338 l -3.262864,3.262864 v -0.632338 l 2.630526,-2.630526 m 3.439919,-10.623279 h 0.632338 l -3.16169,3.16169 v -0.632338 l 2.529352,-2.529352 m -0.85998,0 h 0.632338 l -2.30171,2.30171 v -0.632338 l 1.669372,-1.669372 m 9.91506,14.164371 h -0.632338 l 3.212277,-3.212277 v 0.632338 l -2.579939,2.579939 m 2.579939,0 h -0.632338 l 0.632338,-0.632338 v 0.632338 0 m -3.541093,-0.50587 3.035223,-3.035222 h 0.50587 v 0.126467 l -3.414625,3.414625 h -0.126468 v 3.541093 H 32.756137 V 78.679198 H 32.35144 l 0.404697,-0.404696 V 78.04686 l -0.632338,0.632338 h -0.632338 l 1.264676,-1.264676 v -0.227641 l -1.492318,1.492317 h -0.607044 l 2.099362,-2.099362 v -0.227641 l -2.327004,2.327003 h -0.632338 l 2.959342,-2.959341 v -0.227642 l -3.186984,3.186983 h -0.354109 v 3.541093 h -3.541093 v -3.541093 h -0.177055 l 3.541093,-3.541092 h -0.202348 l -3.541093,3.541092 H 24.66221 l 3.541093,-3.541092 h -0.227642 l -3.541092,3.541092 h -0.632338 l 3.541092,-3.541092 h -0.227641 l -3.541093,3.541092 h -0.632338 l 3.541093,-3.541092 h -0.227642 l -3.541093,3.541092 h -0.581751 v -0.05059 l 3.490506,-3.490505 h 0.05059 V 71.59701 h -0.02529 l -3.5158,-3.5158 v -0.02529 h 0.404697 l 3.212277,3.186983 0.202348,-0.202348 -0.126468,-0.101174 -0.151761,0.151761 V 70.78762 l -2.7317,-2.7317 h 0.455283 l 2.352298,2.327004 0.202348,-0.202348 -0.126468,-0.101174 -0.151761,0.151761 V 69.92764 l -1.87172,-1.87172 h 0.455283 l 1.492318,1.467024 0.202348,-0.177055 -0.126468,-0.126467 -0.151761,0.151761 V 69.067661 L 24.662216,68.05592 H 25.1175 l 0.632338,0.632338 0.202348,-0.202348 -0.126468,-0.126468 -0.151761,0.151761 V 68.207681 L 25.522196,68.05592 h 0.151761 v -0.177055 l 3.364038,-3.364038 h 0.177055 v 0.455284 l -3.16169,3.16169 0.126467,0.126467 3.035223,-3.060516 v 0.632338 l -2.30171,2.301711 0.101174,0.126467 2.200536,-2.200536 v 0.632338 l -1.441731,1.441731 0.101174,0.126467 1.340557,-1.340556 v 0.632338 l -0.581751,0.581751 0.101174,0.126467 0.480577,-0.480577 v 0.278229 h 0.177055 l 3.364038,3.364038 V 71.015262 L 29.796801,68.05592 h 0.455283 l 2.504059,2.504058 V 70.155282 L 30.656781,68.05592 h 0.455283 l 1.644079,1.644079 V 69.295302 L 31.51676,68.05592 h 0.455284 l 0.784099,0.784099 V 68.435323 L 32.37674,68.05592 h 0.379403 v -3.541093 h 3.541092 v 3.59168 l 3.490506,3.490506 H 39.332458 L 36.297235,68.56179 v 0.404697 l 2.630527,2.630526 H 38.472478 L 36.297235,69.42177 v 0.404696 l 1.770547,1.770547 H 37.612499 L 36.297235,70.28175 v 0.404696 l 0.910567,0.910567 h -0.455283 l -0.455284,-0.455284 v 0.379403 l 0.07588,0.07588 h -0.07588 v 3.541093 h 0.227642 l -0.227642,0.227641 v 0.227642 l 0.455284,-0.455283 h 0.632338 l -1.087622,1.087621 v 0.227642 l 1.315264,-1.315263 h 0.632337 l -1.947601,1.947601 v 0.227641 l 2.175243,-2.175242 h 0.632338 l -2.807581,2.80758 v 0.227642 m -10.041527,-6.576315 0.101174,-0.126468 -0.101174,-0.101174 -0.202348,0.202348 0.02529,0.02529 h 0.177055 m -0.07588,-0.784099 0.177055,-0.202349 -0.101174,-0.101174 -0.202348,0.202349 0.126467,0.101174 m 0,-0.85998 0.177055,-0.202348 -0.101174,-0.101174 -0.202348,0.202348 0.126467,0.101174 m 0,-0.834686 0.177055,-0.202348 -0.101174,-0.126468 -0.202348,0.202348 0.126467,0.126468 m 0.404697,2.124655 0.202348,-0.202348 -0.101174,-0.101174 -0.202348,0.202348 0.101174,0.101174 m 0,-0.859979 0.202348,-0.202348 -0.101174,-0.101174 -0.202348,0.202348 0.101174,0.101174 m 0,-0.85998 0.202348,-0.177055 -0.101174,-0.126467 -0.202348,0.202348 0.101174,0.101174 m 0,-0.834686 0.202348,-0.202348 -0.101174,-0.126468 -0.202348,0.202348 0.101174,0.126468 m 0.50587,2.908755 0.126468,-0.126468 -0.101174,-0.101174 -0.202348,0.202348 0.02529,0.02529 h 0.151761 m -0.07588,-0.784099 0.202348,-0.202349 -0.101174,-0.101174 -0.202348,0.202349 0.101174,0.101174 m 0,-0.85998 0.202348,-0.202348 -0.101174,-0.101174 -0.202348,0.202348 0.101174,0.101174 m 0,-0.834686 0.202348,-0.202348 -0.101174,-0.126468 -0.202348,0.202348 0.101174,0.126468 m 0.429989,2.124655 0.202349,-0.202348 -0.101174,-0.101174 -0.202349,0.202348 0.101174,0.101174 m 0,-0.859979 0.202349,-0.202348 -0.101174,-0.101174 -0.202349,0.202348 0.101174,0.101174 m 0,-0.85998 0.202349,-0.177055 -0.101174,-0.126467 -0.202349,0.202348 0.101174,0.101174 m 0,-0.834686 0.202349,-0.202348 -0.101174,-0.126468 -0.202349,0.202348 0.101174,0.126468 m 0.505871,2.908755 0.126467,-0.126468 -0.101174,-0.101174 -0.202348,0.202348 0.02529,0.02529 h 0.151761 m -0.07588,-0.784099 0.202348,-0.202349 -0.101174,-0.101174 -0.202348,0.202349 0.101174,0.101174 m 0,-0.85998 0.202348,-0.202348 -0.101174,-0.101174 -0.202348,0.202348 0.101174,0.101174 m 0,-0.834686 0.202348,-0.202348 -0.101174,-0.126468 -0.202348,0.202348 0.101174,0.126468 m 0.42999,2.124655 0.202348,-0.202348 -0.101174,-0.101174 -0.202348,0.202348 0.101174,0.101174 m 0,-0.859979 0.202348,-0.202348 -0.101174,-0.101174 -0.202348,0.202348 0.101174,0.101174 m 0,-0.85998 0.202348,-0.177055 -0.101174,-0.126467 -0.202348,0.202348 0.101174,0.101174 m 0,-0.834686 0.202348,-0.202348 -0.101174,-0.126468 -0.202348,0.202348 0.101174,0.126468 m 0.505871,2.908755 0.126467,-0.126468 -0.101174,-0.101174 -0.202348,0.202348 0.02529,0.02529 h 0.151762 m -0.07588,-0.784099 0.202348,-0.202349 -0.101174,-0.101174 -0.202348,0.202349 0.101174,0.101174 m 0,-0.85998 0.202348,-0.202348 -0.101174,-0.101174 -0.202348,0.202348 0.101174,0.101174 m 0,-0.834686 0.202348,-0.202348 -0.101174,-0.126468 -0.202348,0.202348 0.101174,0.126468 m 4.02167,6.019858 V 71.596996 H 32.477904 L 29.21504,68.334132 v 0.07588 l -0.151761,0.151761 0.101174,0.126468 0.05059,-0.05059 v 0.101174 l 2.858168,2.858168 h -0.455284 l -2.402884,-2.402885 v 0.07588 l -0.151761,0.151761 0.101174,0.101174 0.05059,-0.05059 v 0.101174 l 2.023481,2.023482 h -0.455283 l -1.568198,-1.568198 v 0.07588 l -0.151761,0.177055 0.101174,0.101174 0.05059,-0.05059 v 0.101174 l 1.163502,1.163502 h -0.455284 l -0.708218,-0.708219 v 0.07588 l -0.151761,0.177054 0.101174,0.101174 0.05059,-0.05059 v 0.101175 l 0.303522,0.303522 h -0.303522 v 3.541093 h 0.455283 l -3.541093,3.541092 h 0.227642 l 3.541093,-3.541092 h 0.632338 l -3.541093,3.541092 h 0.227642 l 3.541093,-3.541092 h 0.632338 l -3.541093,3.541092 h 0.227641 l 3.541093,-3.541092 h 0.632338 l -3.541093,3.541092 h 0.227642 l 3.541093,-3.541092 h 0.278229 m 5.362226,3.541092 H 37.486033 L 39.83833,76.32687 v 0.632338 l -1.719959,1.719959 m 0.85998,0 H 38.346013 L 39.83833,77.18685 v 0.632338 l -0.859979,0.859979 M 37.511326,68.055889 h 0.455284 l 1.87172,1.87172 v 0.455284 l -2.327004,-2.327004 m 0.834687,0 h 0.455283 l 1.037034,1.037034 v 0.455284 l -1.492317,-1.492318 m 0.859979,0 h 0.632338 v 0.632338 l -0.632338,-0.632338 m -2.554645,0 h 0.455283 l 2.7317,2.7317 v 0.455283 l -3.186983,-3.186983 m -14.518481,3.009929 0.531164,0.531164 h -0.531164 v -0.531164 m 1.391144,0.531164 h -0.455283 l -0.935861,-0.93586 v -0.455284 l 1.391144,1.391144 m 0.85998,0 h -0.455284 l -1.79584,-1.79584 v -0.455284 l 2.251124,2.251124 m 0.859979,0 h -0.455283 l -2.65582,-2.65582 v -0.455283 l 3.111103,3.111103"
               inkscape:connector-curvature="0" />
            <path
               id="path3347"
               style="fill:#800000"
               d="m 49.770377,71.925829 c 1.14663,0.303532 2.057196,0.699796 2.7317,1.188795 0.691344,0.489017 1.214077,1.003318 1.568198,1.542905 0.354096,0.522739 0.581738,1.037041 0.682925,1.542904 0.101161,0.505876 0.151748,0.919003 0.151761,1.239383 -1.3e-5,0.674498 -0.134912,1.306835 -0.404696,1.897014 -0.26981,0.573322 -0.640782,1.079192 -1.112915,1.517611 -0.472157,0.438422 -1.037045,0.792531 -1.694666,1.062328 -0.640779,0.252935 -1.340565,0.404696 -2.099362,0.455283 v 1.618786 h -3.541093 v -2.099363 c -0.387838,-0.118036 -0.741947,-0.269797 -1.062328,-0.455283 v 0.05059 l -0.733512,0.733512 h -0.632338 l 1.011741,-0.986447 c -0.03373,-0.03372 -0.08432,-0.06745 -0.151761,-0.101174 l -1.087621,1.087621 h -0.632338 l 1.340556,-1.340556 c -0.01686,-0.01686 -0.03373,-0.02529 -0.05059,-0.02529 -0.01686,-0.01686 -0.04216,-0.04215 -0.07588,-0.07588 l -1.416437,1.441731 h -0.632338 l 1.694665,-1.719959 c -0.01686,-0.01686 -0.03373,-0.02529 -0.05059,-0.02529 -0.01686,-0.01686 -0.03373,-0.04215 -0.05059,-0.07588 l -1.821133,1.821133 H 41.4488 V 81.8409 l 1.719959,-1.745253 c -0.01686,-0.01686 -0.03373,-0.02529 -0.05059,-0.02529 -0.01686,-0.01686 -0.03373,-0.04215 -0.05059,-0.07588 l -1.618785,1.618786 v -0.632338 l 1.289969,-1.28997 c -0.01686,-0.03372 -0.03373,-0.05058 -0.05059,-0.05059 -0.01686,-0.01686 -0.03373,-0.04215 -0.05059,-0.07588 l -1.188795,1.188795 v -0.632338 l 0.885273,-0.885273 c -0.03373,-0.01686 -0.05902,-0.03372 -0.07588,-0.05059 -10e-7,-0.01686 -0.0084,-0.03372 -0.02529,-0.05059 l -0.784099,0.758805 v -0.632338 l 0.480577,-0.480577 -0.101175,-0.101174 -0.379402,0.35411 v -0.632338 l 0.07588,-0.07588 c -0.01686,-0.01686 -0.03373,-0.03372 -0.05059,-0.05059 0,-0.01686 -0.0084,-0.03372 -0.02529,-0.05059 v -1.315263 h 3.541092 c 0.303519,0.337252 0.59861,0.632343 0.885274,0.885273 0.303517,0.236077 0.607039,0.438425 0.910566,0.607045 0.320379,0.151764 0.666057,0.269801 1.037035,0.354109 0.387827,0.06745 0.826247,0.101177 1.315263,0.101174 0.640761,3e-6 1.171924,-0.134895 1.593492,-0.404696 0.421548,-0.269794 0.632328,-0.60704 0.632337,-1.011741 -9e-6,-0.438416 -0.160202,-0.800956 -0.480576,-1.087621 -0.303532,-0.286654 -0.674503,-0.522727 -1.112915,-0.708219 -0.0506,-0.03372 -0.101183,-0.05058 -0.151761,-0.05059 -0.0506,-0.01686 -0.109614,-0.04215 -0.177055,-0.07588 -0.03373,-0.01686 -0.06746,-0.02529 -0.101174,-0.02529 -0.01687,7e-6 -0.04216,-0.0084 -0.07588,-0.02529 -0.185493,-0.06744 -0.345685,-0.109598 -0.480577,-0.126467 -0.03373,-0.01686 -0.06746,-0.02529 -0.101174,-0.02529 -0.01687,7e-6 -0.04216,-0.0084 -0.07588,-0.02529 -0.08432,-0.03372 -0.177062,-0.05058 -0.278229,-0.05059 -0.08432,-0.01686 -0.16863,-0.03372 -0.252935,-0.05059 -0.03373,-0.01686 -0.07589,-0.02529 -0.126468,-0.02529 -0.05059,7e-6 -0.09275,-0.0084 -0.126467,-0.02529 -0.118043,-0.01686 -0.236079,-0.03372 -0.35411,-0.05059 -0.10118,-0.01686 -0.202354,-0.04215 -0.303522,-0.07588 -0.08432,-0.01686 -0.17706,-0.02529 -0.278229,-0.02529 -0.08432,-0.01686 -0.168628,-0.04215 -0.252935,-0.07588 -0.06745,-0.01686 -0.134904,-0.03372 -0.202348,-0.05059 -0.06745,-0.01685 -0.134904,-0.03372 -0.202348,-0.05059 -0.05059,-0.01686 -0.101179,-0.02529 -0.151761,-0.02529 -0.03373,-0.01686 -0.07588,-0.03372 -0.126468,-0.05059 l 0.278229,-0.278228 v -0.227642 l -0.42999,0.455283 c -0.08432,-0.03372 -0.168628,-0.05901 -0.252935,-0.07588 -0.06745,-0.01686 -0.143334,-0.04215 -0.227642,-0.07588 l 0.910567,-0.93586 v -0.202348 l -1.087621,1.062328 c -0.08432,-0.03372 -0.160196,-0.05901 -0.227642,-0.07588 -0.06745,-0.03372 -0.134902,-0.06744 -0.202348,-0.101174 l 1.517611,-1.517611 v -0.227642 l -1.669372,1.669372 c -0.08431,-0.03372 -0.160196,-0.06744 -0.227642,-0.101174 -0.06745,-0.03372 -0.134902,-0.06744 -0.202348,-0.101174 l 2.099362,-2.099362 v -0.227642 l -2.251123,2.251124 c -0.06745,-0.03372 -0.134902,-0.07587 -0.202348,-0.126468 -0.05059,-0.05058 -0.109608,-0.09273 -0.177055,-0.126468 l 2.605232,-2.605232 c -4e-6,0.01687 0.0084,0.0253 0.02529,0.02529 0.03372,0.01687 0.06744,0.03374 0.101174,0.05059 0.03372,1.1e-5 0.06744,0.0084 0.101174,0.02529 0.03372,0.01687 0.05901,0.03374 0.07588,0.05059 0.03372,1.1e-5 0.06744,0.0084 0.101174,0.02529 0.101169,0.03374 0.168618,0.0506 0.202348,0.05059 0.08431,0.03373 0.168618,0.05903 0.252935,0.07588 0.08431,0.01687 0.168618,0.04217 0.252935,0.07588 0.03372,1e-5 0.101168,0.01687 0.202348,0.05059 0.08431,0.01687 0.168618,0.03373 0.252936,0.05059 0.08431,1e-5 0.168617,0.01687 0.252935,0.05059 0.05058,1e-5 0.101167,0.0084 0.151761,0.02529 0.05058,1.1e-5 0.109598,0.0084 0.177055,0.02529 0.101167,10e-6 0.236065,0.01687 0.404696,0.05059 0.03372,0.01687 0.06744,0.0253 0.101174,0.02529 0.03372,1.1e-5 0.06744,0.0084 0.101174,0.02529 0.134891,0.03374 0.26979,0.06746 0.404696,0.101174 0.134891,0.01687 0.26979,0.04217 0.404697,0.07588 m -3.16169,-9.181548 -0.556458,0.556457 v -0.556457 h 0.556458 m -5.008117,5.008117 c 0.236072,-0.640754 0.607044,-1.214074 1.112915,-1.71996 0.505868,-0.505853 1.104481,-0.902118 1.79584,-1.188795 l -2.908755,2.908755 m 5.842803,-5.008117 -1.391144,1.391143 v -0.632338 l 0.758806,-0.758805 h 0.632338 m -2.579939,1.947601 c 0.252931,-0.101157 0.539591,-0.177037 0.85998,-0.227642 l -4.426366,4.426366 c 0.03372,-0.134885 0.06745,-0.261353 0.101174,-0.379403 0.01686,-0.134885 0.04216,-0.269783 0.07588,-0.404696 l 3.389332,-3.414625 m -0.379403,17.528409 0.50587,-0.50587 v 0.50587 h -0.50587 m 4.679301,-19.47601 -7.790404,7.790404 c -0.01686,-0.101162 -0.02529,-0.193905 -0.02529,-0.278229 -0.01686,-0.101162 -0.03372,-0.193905 -0.05059,-0.278229 l 7.233946,-7.233946 h 0.632338 m -0.859979,0 -7.031599,7.031598 v -0.303522 -0.328816 l 4.729888,-4.729888 h 0.05059 v -0.05059 l 1.618786,-1.618785 h 0.632338 m -6.728077,8.448035 C 41.507827,71.057429 41.45724,70.897237 41.423515,70.71174 l 7.967459,-7.967459 h 0.202348 v 0.42999 l -8.018046,8.018045 m 6.626903,-3.212277 c -0.08432,-0.01685 -0.177062,-0.02528 -0.278229,-0.02529 -0.08432,-0.01685 -0.177061,-0.03371 -0.278229,-0.05059 l 2.883461,-2.883461 c 0.0843,0.03374 0.151752,0.06747 0.202349,0.101174 0.06744,0.03374 0.14332,0.06747 0.227641,0.101174 l -2.756993,2.756993 m -4.729889,5.615162 c -0.06745,-0.05058 -0.1349,-0.101166 -0.202348,-0.151761 -0.05059,-0.05058 -0.109607,-0.09273 -0.177055,-0.126468 l 2.529352,-2.529352 c 0.06745,0.03374 0.134895,0.07589 0.202349,0.126468 0.06744,0.03374 0.134894,0.06746 0.202348,0.101174 l -2.554646,2.579939 m 3.338745,-5.716336 3.111103,-3.085809 0.455283,0.151761 -2.934048,2.959342 c -0.06746,-0.01685 -0.134905,-0.02528 -0.202348,-0.02529 -0.06746,1.5e-5 -0.143336,1.5e-5 -0.227642,0 h -0.202348 m 2.048775,0.303523 c -0.151768,-0.0843 -0.31196,-0.134885 -0.480577,-0.151762 l 2.630526,-2.630526 v -0.202348 l 0.101174,0.101174 0.202348,-0.202348 -0.101174,-0.101174 -0.202348,0.177055 v -0.657632 h 3.541093 v 0.556458 l -0.126468,0.101174 0.126468,0.126467 v -0.02529 0.632338 l -0.126468,0.126467 0.126468,0.126468 v -0.02529 0.632338 l -0.126468,0.126468 0.126468,0.126468 v -0.02529 0.632338 l -0.126468,0.126468 0.126468,0.101174 v 0.632338 l -0.126468,0.126467 0.126468,0.101174 v 0.632338 l -0.126468,0.126468 0.126468,0.101174 v 0.252935 h -0.252935 l 0.02529,-0.02529 -0.126467,-0.101174 -0.126468,0.126467 h -0.632338 l 0.02529,-0.02529 -0.126468,-0.101174 -0.126468,0.126467 H 52.57795 l 0.02529,-0.02529 -0.126468,-0.101174 -0.126467,0.126467 h -0.632338 l 0.02529,-0.02529 -0.101174,-0.101174 -0.151761,0.126467 h -0.50587 c -0.03373,-0.03371 -0.0506,-0.05057 -0.05059,-0.05059 l 0.07588,-0.101174 v -0.202348 l 0.101174,0.101174 0.202348,-0.202348 -0.101174,-0.101174 -0.379402,0.379403 c -0.0506,-0.06744 -0.109615,-0.126455 -0.177055,-0.177055 -0.0506,-0.05057 -0.101183,-0.101161 -0.151761,-0.151761 l 0.50587,-0.50587 v -0.202349 l 0.101174,0.101174 0.202348,-0.202348 -0.101174,-0.101174 -0.809392,0.809393 c -0.0843,-0.101185 -0.193909,-0.202359 -0.328799,-0.303546 l 0.93586,-0.935861 v -0.227641 l 0.101174,0.101174 0.202348,-0.202348 -0.101174,-0.101174 -1.264676,1.264676 c -0.06746,-0.05057 -0.126476,-0.101161 -0.177054,-0.151762 -0.0506,-0.05057 -0.109614,-0.09273 -0.177055,-0.126467 l 1.416437,-1.416437 v -0.227642 l 0.101174,0.126468 0.202348,-0.202349 -0.101174,-0.126467 -1.770546,1.770546 c -0.06746,-0.03371 -0.134907,-0.06744 -0.202348,-0.101174 -0.06746,-0.05057 -0.134907,-0.09273 -0.202348,-0.126467 l 1.972894,-1.972895 v -0.202348 l 0.101174,0.101174 0.202348,-0.202348 -0.101174,-0.126468 -2.352297,2.352298 m 5.134585,-3.414626 0.126467,0.101174 0.202348,-0.202348 -0.126467,-0.101174 -0.202348,0.202348 m 0,0.834687 0.126467,0.126467 0.202348,-0.202348 -0.126467,-0.126468 -0.202348,0.202349 m 0,0.859979 0.126467,0.126468 0.202348,-0.202348 -0.126467,-0.126468 -0.202348,0.202348 m 0,0.85998 0.126467,0.101174 0.202348,-0.177055 -0.126467,-0.126467 -0.202348,0.202348 m 0,0.85998 0.126467,0.101174 0.202348,-0.202349 -0.126467,-0.101174 -0.202348,0.202349 m 0,0.859979 0.126467,0.101174 0.202348,-0.202348 -0.126467,-0.101174 -0.202348,0.202348 m -0.42999,-3.869908 0.126467,0.126467 0.202348,-0.202348 -0.126467,-0.101174 -0.202348,0.177055 m 0,0.859979 0.126467,0.126468 0.202348,-0.202348 -0.126467,-0.126468 -0.202348,0.202348 m 0,0.85998 0.126467,0.126468 0.202348,-0.202349 -0.126467,-0.126467 -0.202348,0.202348 m 0,0.85998 0.126467,0.101174 0.202348,-0.202348 -0.126467,-0.101174 -0.202348,0.202348 m 0,0.859979 0.126467,0.101174 0.202348,-0.202348 -0.126467,-0.101174 -0.202348,0.202348 m 0,0.85998 0.126467,0.101174 0.202348,-0.202348 -0.126467,-0.101174 -0.202348,0.202348 m -0.42999,-4.704595 0.126467,0.101174 0.202349,-0.202348 -0.126468,-0.101174 -0.202348,0.202348 m 0,0.834687 0.126467,0.126467 0.202349,-0.202348 -0.126468,-0.126468 -0.202348,0.202349 m 0,0.859979 0.126467,0.126468 0.202349,-0.202348 -0.126468,-0.126468 -0.202348,0.202348 m 0,0.85998 0.126467,0.101174 0.202349,-0.177055 -0.126468,-0.126467 -0.202348,0.202348 m 0,0.85998 0.126467,0.101174 0.202349,-0.202349 -0.126468,-0.101174 -0.202348,0.202349 m 0,0.859979 0.126467,0.101174 0.202349,-0.202348 -0.126468,-0.101174 -0.202348,0.202348 m -0.42999,-3.869908 0.126468,0.126467 0.202348,-0.202348 -0.126468,-0.101174 -0.202348,0.177055 m 0,0.859979 0.126468,0.126468 0.202348,-0.202348 -0.126468,-0.126468 -0.202348,0.202348 m 0,0.85998 0.126468,0.126468 0.202348,-0.202349 -0.126468,-0.126467 -0.202348,0.202348 m 0,0.85998 0.126468,0.101174 0.202348,-0.202348 -0.126468,-0.101174 -0.202348,0.202348 m 0,0.859979 0.126468,0.101174 0.202348,-0.202348 -0.126468,-0.101174 -0.202348,0.202348 m 0,0.85998 0.126468,0.101174 0.202348,-0.202348 -0.126468,-0.101174 -0.202348,0.202348 m -0.404696,-4.704595 0.101174,0.101174 0.202348,-0.202348 -0.126468,-0.101174 -0.177054,0.202348 m 0,0.834687 0.101174,0.126467 0.202348,-0.202348 -0.126468,-0.126468 -0.177054,0.202349 m 0,0.859979 0.101174,0.126468 0.202348,-0.202348 -0.126468,-0.126468 -0.177054,0.202348 m 0,0.85998 0.101174,0.101174 0.202348,-0.177055 -0.126468,-0.126467 -0.177054,0.202348 m 0,0.85998 0.101174,0.101174 0.202348,-0.202349 -0.126468,-0.101174 -0.177054,0.202349 m 0,0.859979 0.101174,0.101174 0.202348,-0.202348 -0.126468,-0.101174 -0.177054,0.202348 m -0.42999,-3.869908 0.101174,0.126467 0.202348,-0.202348 -0.101174,-0.101174 -0.202348,0.177055 m 0,0.859979 0.101174,0.126468 0.202348,-0.202348 -0.101174,-0.126468 -0.202348,0.202348 m 0,0.85998 0.101174,0.126468 0.202348,-0.202349 -0.101174,-0.126467 -0.202348,0.202348 m 0,0.85998 0.101174,0.101174 0.202348,-0.202348 -0.101174,-0.101174 -0.202348,0.202348 m 0,0.859979 0.101174,0.101174 0.202348,-0.202348 -0.101174,-0.101174 -0.202348,0.202348 m 0,0.85998 0.101174,0.101174 0.202348,-0.202348 -0.101174,-0.101174 -0.202348,0.202348 m -0.42999,-4.704595 0.101174,0.101174 0.202348,-0.202348 -0.101174,-0.101174 -0.202348,0.202348 m 0,0.834687 0.101174,0.126467 0.202348,-0.202348 -0.101174,-0.126468 -0.202348,0.202349 m 0,0.859979 0.101174,0.126468 0.202348,-0.202348 -0.101174,-0.126468 -0.202348,0.202348 m 0,0.85998 0.101174,0.101174 0.202348,-0.177055 -0.101174,-0.126467 -0.202348,0.202348 m 0,0.85998 0.101174,0.101174 0.202348,-0.202349 -0.101174,-0.101174 -0.202348,0.202349 m 0,0.859979 0.101174,0.101174 0.202348,-0.202348 -0.101174,-0.101174 -0.202348,0.202348 m -1.846427,-4.350485 c 0.03372,1.7e-5 0.05901,0.0084 0.07588,0.02529 0.01685,1.8e-5 0.04215,1.8e-5 0.07588,0 L 46.5581,67.904159 c -0.185491,0.03374 -0.362545,0.07589 -0.531164,0.126467 -0.151766,0.0506 -0.295096,0.118051 -0.42999,0.202349 l 3.996376,-3.971083 v 0.42999 m -6.601609,8.523916 c -0.06745,-0.05058 -0.126469,-0.101165 -0.177054,-0.151761 -0.05059,-0.05058 -0.101176,-0.101165 -0.151761,-0.151761 l 2.504058,-2.529352 c 0.05058,0.0506 0.10117,0.101186 0.151761,0.151761 0.05058,0.0506 0.109601,0.101186 0.177055,0.151761 l -2.504059,2.529352 m -0.455283,-0.42999 c -0.08431,-0.0843 -0.177056,-0.193907 -0.278229,-0.328816 l 2.605233,-2.605232 c 0.03372,0.06746 0.05902,0.134911 0.07588,0.202348 0.03372,0.06746 0.07588,0.134911 0.126468,0.202348 l -2.529352,2.529352 m -0.379403,-0.480577 c -0.03372,-0.06744 -0.07588,-0.126457 -0.126467,-0.177054 -0.05059,-0.06744 -0.09274,-0.134889 -0.126468,-0.202348 l 3.060516,-3.060516 c -0.101178,0.202361 -0.151765,0.404709 -0.151761,0.607044 v 0.177055 l -2.65582,2.655819 m 7.436295,-8.270981 -7.765111,7.765111 c -0.03373,-0.0843 -0.06745,-0.160182 -0.101174,-0.227642 -0.03373,-0.06744 -0.06745,-0.134888 -0.101174,-0.202348 l 7.967459,-7.967459 v 0.632338"
               inkscape:connector-curvature="0" />
          </g>
        </g>
        <path
           id="rect4371"
           d="m -11.246114,-7.507947 c -2.168522,0 -3.90625,1.74244 -3.90625,3.90625 v 70.59375 c 0,2.16381 1.737728,3.90625 3.90625,3.90625 h 83.1875 c 2.168522,0 3.90625,-1.74244 3.90625,-3.90625 v -70.59375 c 0,-2.16381 -1.737728,-3.90625 -3.90625,-3.90625 z"
           style="opacity:0.27999998;fill:url(#linearGradient4388);fill-opacity:1;stroke:none"
           inkscape:connector-curvature="0" />
        <g
           transform="matrix(1.0971739,0,0,1.1862198,93.934992,-36.128179)"
           style="display:inline"
           id="g907">
          <path
             sodipodi:nodetypes="cccc"
             style="fill:#e4e4e4;fill-opacity:1;fill-rule:nonzero;stroke-width:0.91380757"
             id="path3934"
             d="m -15.429049,60.458822 -0.440308,9.064825 c 4.251697,27.551334 -4.100443,21.043241 -23.177864,20.566419 z"
             inkscape:connector-curvature="0" />
          <path
             sodipodi:nodetypes="ccccccc"
             style="fill:#effcfe;fill-opacity:1;fill-rule:nonzero;stroke:#fefefe;stroke-width:0.1810281;stroke-miterlimit:4;stroke-dasharray:none;stroke-opacity:1"
             id="path3922"
             d="m -17.628553,64.454487 -22.246915,26.119232 h 1.779752 l 21.16238,-25.528172 0.194661,-0.253312 v -0.337748 c -0.43925,-0.246301 -0.889878,0 -0.889878,0 z"
             inkscape:connector-curvature="0" />
          <path
             style="fill:url(#linearGradient5360);fill-rule:nonzero"
             id="path4278"
             d="m -40.956561,91.612698 26,-31 c -2.328567,2.776369 -4.36141,3 -11,3 h -12 v 15 c 0,6.644068 0.04437,9.370179 -3,13 z"
             inkscape:connector-curvature="0" />
          <path
             sodipodi:nodetypes="cscscccsc"
             inkscape:connector-curvature="0"
             style="fill:#ffffff;fill-opacity:0.86614176;fill-rule:nonzero"
             id="path4282"
             d="m -15.832594,60.440827 c -3.547485,1.889883 -4.583031,2.224325 -11.221621,2.224325 h -12 v 15 c 0,6.644068 0.04437,9.370179 -3,13 4,-5 4.000382,-8.356667 4,-13 v -14 h 11 c 5,0 8.263026,0.393792 11.221621,-3.224325 z" />
        </g>
        <g
           id="g986"
           transform="matrix(1.0060842,0,0,1,0.09409158,0)">
          <path
             inkscape:connector-curvature="0"
             style="opacity:0;fill:#000000;fill-opacity:1;stroke:none"
             d="m -11.527364,-20.414197 c -2.182681,0 -3.9375,1.754819 -3.9375,3.9375 v 12 c 0,-2.182681 1.754819,-3.9375 3.9375,-3.9375 h 83.75 c 2.182681,0 3.9375,1.754819 3.9375,3.9375 v -12 c 0,-2.182681 -1.754819,-3.9375 -3.9375,-3.9375 z"
             id="rect4080" />
          <path
             inkscape:connector-curvature="0"
             style="fill:#e4e8e8;fill-opacity:1;stroke:#738589;stroke-width:0.99243301;stroke-miterlimit:4;stroke-dasharray:none;stroke-opacity:1"
             d="m -11.229786,-20.105492 c -2.168501,0 -3.925898,1.761406 -3.925898,3.934855 v 3.965838 c 0,-2.173448 1.757397,-3.934854 3.925898,-3.934854 h 83.154841 c 2.168502,0 3.925898,1.761406 3.925898,3.934854 v -3.965838 c 0,-2.173449 -1.757396,-3.934855 -3.925898,-3.934855 z"
             id="path4058" />
          <path
             id="path4060"
             d="m -11.229786,-12.17466 c -2.168501,0 -3.925898,1.761407 -3.925898,3.934856 v 3.965839 c 0,-2.173449 1.757397,-3.934856 3.925898,-3.934856 h 83.154841 c 2.168502,0 3.925898,1.761407 3.925898,3.934856 v -3.965839 c 0,-2.173449 -1.757396,-3.934856 -3.925898,-3.934856 z"
             style="fill:#e4e8e8;fill-opacity:1;stroke:#738589;stroke-width:0.99243301;stroke-miterlimit:4;stroke-dasharray:none;stroke-opacity:1"
             inkscape:connector-curvature="0" />
          <path
             inkscape:connector-curvature="0"
             style="fill:#e4e8e8;fill-opacity:1;stroke:#738589;stroke-width:0.99243301;stroke-miterlimit:4;stroke-dasharray:none;stroke-opacity:1"
             d="m -11.229786,-16.140075 c -2.168501,0 -3.925898,1.761406 -3.925898,3.934854 v 3.965839 c 0,-2.173449 1.757397,-3.934855 3.925898,-3.934855 h 83.154841 c 2.168502,0 3.925898,1.761406 3.925898,3.934855 v -3.965839 c 0,-2.173448 -1.757396,-3.934854 -3.925898,-3.934854 z"
             id="path4062" />
          <path
             style="opacity:0.25818182;fill:url(#linearGradient4369);fill-opacity:1;stroke:none;stroke-width:1.00409496"
             d="m -11.214056,-19.914197 c -2.186319,0 -3.938308,1.74244 -3.938308,3.90625 v 13 c 0,-2.16381 2.104388,-4.784629 4.290702,-4.780063 l 83.693999,0.174762 c 2.186314,0.00457 3.762111,2.441491 3.762111,4.605301 v -13 c 0,-2.16381 -1.751989,-3.90625 -3.938308,-3.90625 z"
             id="rect4358"
             inkscape:connector-curvature="0"
             sodipodi:nodetypes="sscsscsss" />
        </g>
        <rect
           transform="matrix(1.2146192,0,0,1.3113605,-18.088534,19.372096)"
           style="display:inline;opacity:0.5078125;fill:url(#linearGradient4767-6);fill-opacity:1;stroke:none"
           id="rect4146"
           width="75.965775"
           height="69.024437"
           x="2"
           y="-30"
           rx="3.9569874"
           ry="3.9569881"
           clip-path="url(#clipPath4156-4-1-2)" />
      </g>
      <path
         inkscape:connector-curvature="0"
         id="path4989"
         d="m 9.9740341,5.1444869 c -3.116621,0 -5.667965,2.53951 -5.667965,5.6460041 v 69.277996 c 0,3.106495 2.551344,5.646004 5.667965,5.646004 H 86.765819 c 3.116621,0 5.667968,-2.539509 5.667968,-5.646004 V 10.790491 c 0,-3.1064931 -2.551347,-5.6460041 -5.667968,-5.6460041 z m 0,2.319439 H 86.765819 c 1.888099,0 3.352022,1.480095 3.352022,3.3265651 v 69.277996 c 0,1.846474 -1.463923,3.326564 -3.352022,3.326564 H 9.9740341 c -1.888099,0 -3.352022,-1.48009 -3.352022,-3.326564 V 10.790491 c 0,-1.8464701 1.463923,-3.3265651 3.352022,-3.3265651 z"
         style="color:#000000;font-style:normal;font-variant:normal;font-weight:normal;font-stretch:normal;font-size:medium;line-height:normal;font-family:Sans;-inkscape-font-specification:Sans;text-indent:0;text-align:start;text-decoration:none;text-decoration-line:none;letter-spacing:normal;word-spacing:normal;text-transform:none;writing-mode:lr-tb;direction:ltr;baseline-shift:baseline;text-anchor:start;display:inline;overflow:visible;visibility:visible;fill:#241f1f;fill-opacity:0.63265303;stroke:none;stroke-width:2.3755002;marker:none;enable-background:accumulate" />
    </g>
  </g>
</svg>
