<?xml version="1.0" encoding="UTF-8" standalone="no"?>
<!-- Created with Inkscape (http://www.inkscape.org/) -->

<svg
   xmlns:dc="http://purl.org/dc/elements/1.1/"
   xmlns:cc="http://creativecommons.org/ns#"
   xmlns:rdf="http://www.w3.org/1999/02/22-rdf-syntax-ns#"
   xmlns:svg="http://www.w3.org/2000/svg"
   xmlns="http://www.w3.org/2000/svg"
   xmlns:xlink="http://www.w3.org/1999/xlink"
   xmlns:sodipodi="http://sodipodi.sourceforge.net/DTD/sodipodi-0.dtd"
   xmlns:inkscape="http://www.inkscape.org/namespaces/inkscape"
   width="96"
   height="96"
   id="svg2"
   version="1.1"
   inkscape:version="0.48.5 r10040"
   sodipodi:docname="template.svg">
  <script
     xlink:href=""
     id="script2985" />
  <defs
     id="defs4">
    <linearGradient
       inkscape:collect="always"
       xlink:href="#linearGradient4160-1"
       id="linearGradient5163"
       gradientUnits="userSpaceOnUse"
       gradientTransform="matrix(1.0114053,0,0,1.0044929,-29.589792,27.746549)"
       x1="2.5"
       y1="54.296875"
       x2="93.5"
       y2="54.296875" />
    <linearGradient
       id="linearGradient4160-1">
      <stop
         id="stop4170-6"
         offset="0"
         style="stop-color:#000000;stop-opacity:0;" />
      <stop
         style="stop-color:#000000;stop-opacity:0.96470588;"
         offset="0.03175623"
         id="stop4186-6" />
      <stop
         style="stop-color:#000000;stop-opacity:0;"
         offset="0.09425623"
         id="stop4182-5" />
      <stop
         style="stop-color:#000000;stop-opacity:0;"
         offset="0.49595019"
         id="stop4180-0" />
      <stop
         style="stop-color:#000000;stop-opacity:0;"
         offset="0.90525883"
         id="stop4178-2" />
      <stop
         id="stop4184-0"
         offset="0.96241152"
         style="stop-color:#000000;stop-opacity:0.98823529;" />
      <stop
         id="stop4168-2"
         offset="1"
         style="stop-color:#000000;stop-opacity:0;" />
    </linearGradient>
    <linearGradient
       inkscape:collect="always"
       xlink:href="#linearGradient4160-1"
       id="linearGradient5161"
       gradientUnits="userSpaceOnUse"
       gradientTransform="matrix(1.0114053,0,0,1.0044929,-29.589803,28.043121)"
       x1="2.5"
       y1="11.140625"
       x2="93.5"
       y2="11.140625" />
    <linearGradient
       id="linearGradient5693">
      <stop
         id="stop5695"
         offset="0"
         style="stop-color:#000000;stop-opacity:0;" />
      <stop
         style="stop-color:#000000;stop-opacity:0.96470588;"
         offset="0.03175623"
         id="stop5697" />
      <stop
         style="stop-color:#000000;stop-opacity:0;"
         offset="0.09425623"
         id="stop5699" />
      <stop
         style="stop-color:#000000;stop-opacity:0;"
         offset="0.49595019"
         id="stop5701" />
      <stop
         style="stop-color:#000000;stop-opacity:0;"
         offset="0.90525883"
         id="stop5703" />
      <stop
         id="stop5705"
         offset="0.96241152"
         style="stop-color:#000000;stop-opacity:0.98823529;" />
      <stop
         id="stop5707"
         offset="1"
         style="stop-color:#000000;stop-opacity:0;" />
    </linearGradient>
    <radialGradient
       inkscape:collect="always"
       xlink:href="#linearGradient4348-4"
       id="radialGradient5159"
       gradientUnits="userSpaceOnUse"
       gradientTransform="matrix(1.0894968,0,0,0.06510907,-33.139866,116.01296)"
       cx="47.699135"
       cy="55.411221"
       fx="47.699135"
       fy="55.411221"
       r="41.470058" />
    <linearGradient
       inkscape:collect="always"
       id="linearGradient4348-4">
      <stop
         style="stop-color:#000000;stop-opacity:1;"
         offset="0"
         id="stop4350-8" />
      <stop
         style="stop-color:#000000;stop-opacity:0;"
         offset="1"
         id="stop4352-8" />
    </linearGradient>
    <linearGradient
       inkscape:collect="always"
       xlink:href="#linearGradient4135-0"
       id="linearGradient5157"
       gradientUnits="userSpaceOnUse"
       gradientTransform="matrix(1.0004943,0,0,0.99149733,-29.066079,-60.494183)"
       spreadMethod="reflect"
       x1="53.8978"
       y1="-69.456512"
       x2="27.952002"
       y2="23.167999" />
    <linearGradient
       id="linearGradient4135-0">
      <stop
         style="stop-color:#e3e9e9;stop-opacity:1;"
         offset="0"
         id="stop4137-6-0" />
      <stop
         style="stop-color:#eef2f2;stop-opacity:1;"
         offset="0.21971546"
         id="stop4139-7" />
      <stop
         style="stop-color:#f9fbfb;stop-opacity:1;"
         offset="0.47877571"
         id="stop4141-7" />
      <stop
         style="stop-color:#ffffff;stop-opacity:1;"
         offset="1"
         id="stop4143-4" />
    </linearGradient>
    <radialGradient
       inkscape:collect="always"
       xlink:href="#linearGradient4133-5"
       id="radialGradient5155"
       gradientUnits="userSpaceOnUse"
       gradientTransform="matrix(1.0359169,0,0,0.05223045,60.08904,-64.305098)"
       cx="13.948145"
       cy="44.892841"
       fx="13.948145"
       fy="44.892841"
       r="43.199203" />
    <linearGradient
       inkscape:collect="always"
       id="linearGradient4133-5">
      <stop
         style="stop-color:#ffffff;stop-opacity:1;"
         offset="0"
         id="stop4135-1" />
      <stop
         style="stop-color:#ffffff;stop-opacity:0;"
         offset="1"
         id="stop4137-0" />
    </linearGradient>
    <radialGradient
       inkscape:collect="always"
       xlink:href="#linearGradient4133-5"
       id="radialGradient5153"
       gradientUnits="userSpaceOnUse"
       gradientTransform="matrix(1.0353919,0,0,0.05736347,3.9849628,117.73412)"
       cx="13.948145"
       cy="44.892841"
       fx="13.948145"
       fy="44.892841"
       r="43.199203" />
    <radialGradient
       inkscape:collect="always"
       xlink:href="#linearGradient4133-5"
       id="radialGradient5867"
       gradientUnits="userSpaceOnUse"
       gradientTransform="matrix(1.0353919,0,0,0.05736347,3.9849628,117.73412)"
       cx="13.948145"
       cy="44.892841"
       fx="13.948145"
       fy="44.892841"
       r="43.199203" />
    <radialGradient
       inkscape:collect="always"
       xlink:href="#linearGradient4133-5"
       id="radialGradient5869"
       gradientUnits="userSpaceOnUse"
       gradientTransform="matrix(1.0359169,0,0,0.05223045,60.08904,-64.305098)"
       cx="13.948145"
       cy="44.892841"
       fx="13.948145"
       fy="44.892841"
       r="43.199203" />
    <linearGradient
       inkscape:collect="always"
       xlink:href="#linearGradient4135-0"
       id="linearGradient5871"
       gradientUnits="userSpaceOnUse"
       gradientTransform="matrix(1.0004943,0,0,0.99149733,-29.066079,-60.494183)"
       spreadMethod="reflect"
       x1="53.8978"
       y1="-69.456512"
       x2="27.952002"
       y2="23.167999" />
    <radialGradient
       inkscape:collect="always"
       xlink:href="#linearGradient4348-4"
       id="radialGradient5873"
       gradientUnits="userSpaceOnUse"
       gradientTransform="matrix(1.0894968,0,0,0.06510907,-33.139866,116.01296)"
       cx="47.699135"
       cy="55.411221"
       fx="47.699135"
       fy="55.411221"
       r="41.470058" />
    <linearGradient
       inkscape:collect="always"
       xlink:href="#linearGradient4160-1"
       id="linearGradient5875"
       gradientUnits="userSpaceOnUse"
       gradientTransform="matrix(1.0114053,0,0,1.0044929,-29.589803,28.043121)"
       x1="2.5"
       y1="11.140625"
       x2="93.5"
       y2="11.140625" />
    <linearGradient
       inkscape:collect="always"
       xlink:href="#linearGradient4160-1"
       id="linearGradient5877"
       gradientUnits="userSpaceOnUse"
       gradientTransform="matrix(1.0114053,0,0,1.0044929,-29.589792,27.746549)"
       x1="2.5"
       y1="54.296875"
       x2="93.5"
       y2="54.296875" />
  </defs>
  <sodipodi:namedview
     id="base"
     pagecolor="#ffffff"
     bordercolor="#666666"
     borderopacity="1.0"
     inkscape:pageopacity="0.0"
     inkscape:pageshadow="2"
     inkscape:zoom="2.9504299"
     inkscape:cx="-16.271823"
     inkscape:cy="4.8853074"
     inkscape:current-layer="g5852"
     showgrid="true"
     inkscape:document-units="px"
     inkscape:grid-bbox="true"
     inkscape:showpageshadow="false"
     gridtolerance="1"
     guidetolerance="1"
     objecttolerance="1"
     inkscape:window-width="1280"
     inkscape:window-height="966"
     inkscape:window-x="0"
     inkscape:window-y="0"
     inkscape:window-maximized="1" />
  <metadata
     id="metadata7">
    <rdf:RDF>
      <cc:Work
         rdf:about="">
        <dc:format>image/svg+xml</dc:format>
        <dc:type
           rdf:resource="http://purl.org/dc/dcmitype/StillImage" />
        <dc:title></dc:title>
      </cc:Work>
    </rdf:RDF>
  </metadata>
  <g
     id="layer1"
     inkscape:label="Layer 1"
     inkscape:groupmode="layer"
     transform="translate(0,32)">
    <g
       id="g5852"
       transform="translate(29.042338,-60.287372)">
      <path
         id="path4992"
         d="m -24.921454,28.287374 c -2.287678,0 -4.120881,2.13343 -4.120881,4.782781 l 0,86.434435 c 0,2.64935 1.833203,4.78278 4.120881,4.78278 l 87.75824,0 c 2.287672,0 4.120872,-2.13343 4.120872,-4.78278 l 0,-86.434435 c 0,-2.649351 -1.8332,-4.782781 -4.120872,-4.782781 l -87.75824,0 z"
         style="opacity:0.15;fill:#000000;fill-opacity:1;stroke:none"
         inkscape:connector-curvature="0" />
      <path
         inkscape:connector-curvature="0"
         style="opacity:0.15;fill:#000000;fill-opacity:1;stroke:none"
         d="m -24.235849,29.037374 c -2.251936,0 -4.056489,2.100095 -4.056489,4.70805 l 0,85.083896 c 0,2.60796 1.804553,4.70805 4.056489,4.70805 l 86.387035,0 c 2.251922,0 4.056482,-2.10009 4.056482,-4.70805 l 0,-85.083896 c 0,-2.607955 -1.80456,-4.70805 -4.056482,-4.70805 l -86.387035,0 z"
         id="path4994" />
      <rect
         ry="4.9561129"
         rx="0"
         y="117.83126"
         x="-26.301346"
         height="4.9561129"
         width="89.456207"
         id="rect4131"
         style="opacity:0.55;fill:url(#radialGradient5867);fill-opacity:1;stroke:none" />
      <rect
         transform="matrix(0,1,-1,0,0,0)"
         style="opacity:0.55;fill:url(#radialGradient5869);fill-opacity:1;stroke:none"
         id="rect4141"
         width="89.501564"
         height="4.5126276"
         x="29.787376"
         y="-64.216652"
         rx="0"
         ry="4.5126276" />
      <path
         id="rect4080"
         d="m -23.394945,30.240449 c -2.207575,0 -3.982409,1.762703 -3.982409,3.95519 l 0,12.053915 c 0,-2.192488 1.774834,-3.955191 3.982409,-3.955191 l 84.705191,0 c 2.207572,0 3.982412,1.762703 3.982412,3.955191 l 0,-12.053915 c 0,-2.192487 -1.77484,-3.95519 -3.982412,-3.95519 l -84.705191,0 z"
         style="opacity:0;fill:#000000;fill-opacity:1;stroke:none"
         inkscape:connector-curvature="0" />
      <rect
         ry="3.9233429"
         rx="3.9589436"
         y="-121.96702"
         x="-27.065086"
         height="91.217758"
         width="92.045486"
         id="rect4133"
         style="fill:url(#linearGradient5871);fill-opacity:1;stroke:#738589;stroke-width:1.00031602;stroke-miterlimit:4;stroke-opacity:1;stroke-dasharray:none"
         transform="scale(1,-1)" />
      <path
         id="path4058"
         d="m -23.093973,30.550541 c -2.193234,0 -3.970674,1.76932 -3.970674,3.952534 l 0,3.983656 c 0,-2.183213 1.77744,-3.952533 3.970674,-3.952533 l 84.103249,0 c 2.19323,0 3.970672,1.76932 3.970672,3.952533 l 0,-3.983656 c 0,-2.183215 -1.777442,-3.952534 -3.970672,-3.952534 l -84.103249,0 z"
         style="fill:#e4e8e8;fill-opacity:1;stroke:#738589;stroke-width:1.00031602;stroke-miterlimit:4;stroke-opacity:1;stroke-dasharray:none"
         inkscape:connector-curvature="0" />
      <path
         inkscape:connector-curvature="0"
         style="fill:#e4e8e8;fill-opacity:1;stroke:#738589;stroke-width:1.00031602;stroke-miterlimit:4;stroke-opacity:1;stroke-dasharray:none"
         d="m -23.093973,38.517005 c -2.193234,0 -3.970674,1.769321 -3.970674,3.952535 l 0,3.983657 c 0,-2.183214 1.77744,-3.952535 3.970674,-3.952535 l 84.103249,0 c 2.19323,0 3.970672,1.769321 3.970672,3.952535 l 0,-3.983657 c 0,-2.183214 -1.777442,-3.952535 -3.970672,-3.952535 l -84.103249,0 z"
         id="path4060" />
      <path
         id="path4062"
         d="m -23.093973,34.533774 c -2.193234,0 -3.970674,1.76932 -3.970674,3.952533 l 0,3.983656 c 0,-2.183213 1.77744,-3.952533 3.970674,-3.952533 l 84.103249,0 c 2.19323,0 3.970672,1.76932 3.970672,3.952533 l 0,-3.983656 c 0,-2.183213 -1.777442,-3.952533 -3.970672,-3.952533 l -84.103249,0 z"
         style="fill:#e4e8e8;fill-opacity:1;stroke:#738589;stroke-width:1.00031602;stroke-miterlimit:4;stroke-opacity:1;stroke-dasharray:none"
         inkscape:connector-curvature="0" />
      <rect
         y="116.92065"
         x="-26.353302"
         height="5.4001536"
         width="90.362991"
         id="rect4338"
         style="opacity:0.6;fill:url(#radialGradient5873);fill-opacity:1;stroke:none" />
      <path
         sodipodi:nodetypes="sscsscsss"
         inkscape:connector-curvature="0"
         id="rect4358"
         d="m -23.110487,30.742695 c -2.193255,0 -3.950802,1.750269 -3.950802,3.923801 l 0,13.058407 c 0,-2.173532 2.111063,-4.806126 4.304314,-4.80154 l 83.959531,0.175548 c 2.19324,0.0046 3.774032,2.45246 3.774032,4.625992 l 0,-13.058407 c 0,-2.173532 -1.757552,-3.923801 -3.950802,-3.923801 z"
         style="opacity:0.25818182;fill:url(#linearGradient5875);fill-opacity:1;stroke:none" />
      <path
         id="rect4132"
         style="opacity:0.64363636999999996;fill:none;stroke:#004455;stroke-width:0.88515544000000002;stroke-linecap:round;stroke-linejoin:round;stroke-miterlimit:4;stroke-opacity:1;stroke-dasharray:none;stroke-dashoffset:0"
         d="m 57.032116,46.381124 0,70.968746 -77.370351,0 0,-45.812496 38.24222,0 0,-25.15625 z m -0.12957,5.368622 -38.662901,0 c 16.926468,0.156167 16.770314,0.167477 38.662901,0 z m -38.662901,15.085462 38.662901,0 0,4.914538 -38.662901,0 z m 0,-10 38.662901,0 0,4.914538 -38.662901,0 z m -38.380708,20 77.043609,0 0,4.914538 -77.043609,0 z m 0,30.000002 77.043609,0 0,4.91454 -77.043609,0 z m 0,-10.000002 77.043609,0 0,4.914542 -77.043609,0 z m 10e-7,-10.000002 77.043608,0 0,4.914538 -77.043608,0 z"
         inkscape:connector-curvature="0"
         sodipodi:nodetypes="cccccccccccccccccccccccccccccccccccccccc" />
      <path
         id="rect4371"
         d="m -23.110477,42.908113 c -2.193254,0 -3.950801,1.750268 -3.950801,3.9238 l 0,70.910917 c 0,2.17353 1.757547,3.9238 3.950801,3.9238 l 84.136273,0 c 2.19326,0 3.950812,-1.75027 3.950812,-3.9238 l 0,-70.910917 c 0,-2.173532 -1.757552,-3.9238 -3.950812,-3.9238 l -84.136273,0 z"
         style="opacity:0.36111109;fill:url(#linearGradient5877);fill-opacity:1;stroke:none"
         inkscape:connector-curvature="0" />
      <g
         style="font-size:32px;font-style:normal;font-variant:normal;font-weight:bold;font-stretch:normal;line-height:125%;letter-spacing:0px;word-spacing:0px;fill:#006680;fill-opacity:1;stroke:none;font-family:Homestead;-inkscape-font-specification:Homestead Bold"
         id="text3292"
         transform="matrix(1.1967026,0,0,1.030262,0.48233539,1.3923278)">
        <path
           d="m -6.2527205,61.158784 c 0.106661,0.04267 0.1919943,0.08534 0.256,0.128 0.085327,0.04267 0.1813273,0.08534 0.288,0.128 l -3.296,3.296 c -0.064003,-0.064 -0.1386693,-0.117332 -0.224,-0.16 -0.064003,-0.064 -0.1280024,-0.127999 -0.192,-0.192 l 3.168,-3.2 m 2.272,-13.088 4.41599996,-4.416 c 0.10665437,0.02135 0.21332093,0.04269 0.32,0.064 0.10665405,0.02135 0.21332061,0.04269 0.32000004,0.064 l -4.256,4.288 -0.8,0 m 4.70399996,0.416 c -0.0853457,-0.06398 -0.17067898,-0.117316 -0.256,-0.16 -0.0640122,-0.04265 -0.14934541,-0.08532 -0.256,-0.128 l 3.26400004,-3.264 c 0.085318,0.06402 0.1599846,0.128021 0.224,0.192 0.063984,0.06402 0.138651,0.12802 0.224,0.192 l -3.20000004,3.168 m 0.54400004,0.544 c -0.085346,-0.149317 -0.2133462,-0.287983 -0.38400004,-0.416 l 3.16800004,-3.168 c 0.085317,0.06402 0.159984,0.12802 0.224,0.192 0.063984,0.06402 0.1279838,0.12802 0.192,0.192 l -3.2,3.2 m 0.352,0.736 c -0.04268,-0.106651 -0.085347,-0.202651 -0.128,-0.288 -0.021347,-0.08532 -0.053347,-0.181317 -0.096,-0.288 l 3.2,-3.2 c 0.063983,0.08535 0.1173168,0.16002 0.16,0.224 0.063983,0.06402 0.1279833,0.138686 0.192,0.224 l -3.328,3.328 m 4.512,0.096 c 0.021315,0.08535 0.031982,0.234682 0.032,0.448 l 0,1.12 -4.48,0 0,-1.12 c -1.35e-5,-0.127985 -0.01068,-0.223984 -0.032,-0.288 l 3.392,-3.392 c 0.063983,0.08535 0.1173164,0.170686 0.16,0.256 0.063983,0.06402 0.1173162,0.138685 0.16,0.224 l -3.2,3.2 0.288,0 3.008,-3.008 c 0.042649,0.106685 0.074649,0.202685 0.096,0.288 0.042649,0.06402 0.085316,0.149351 0.128,0.256 l -2.432,2.464 0.256,0 2.272,-2.24 c 0.042649,0.106684 0.074649,0.213351 0.096,0.32 0.021316,0.08535 0.053316,0.18135 0.096,0.288 l -1.664,1.632 0.288,0 1.408,-1.408 c 0.042649,0.170683 0.085315,0.40535 0.128,0.704 l -0.736,0.704 0.288,0 0.448,-0.448 m -6.88000004,-1.792 3.58400004,-3.552 c 0.085319,0.04269 0.1599852,0.09602 0.224,0.16 0.085318,0.04269 0.1706516,0.09602 0.256,0.16 l -3.32800004,3.296 c -0.21334487,-0.04265 -0.39467802,-0.06398 -0.544,-0.064 l -0.192,0 m -2.14399996,0 4.192,-4.224 c 0.2559866,0.06402 0.4586531,0.138688 0.608,0.224 l -4,4 -0.8,0 m 1.088,0 3.904,-3.936 c 0.1066527,0.04269 0.2026526,0.08535 0.288,0.128 0.085319,0.04269 0.1706523,0.08535 0.256,0.128 l -3.68,3.68 -0.768,0 m -5.472,11.2 c -4.5e-6,0.192006 0.010662,0.330673 0.032,0.416 l -3.3600005,3.36 -0.288,-0.48 3.2960005,-3.296 -0.288,0 -3.1040005,3.104 c -0.106667,-0.191997 -0.192,-0.37333 -0.256,-0.544 l 2.5600005,-2.56 -0.288,0 -2.3680005,2.368 c -0.04267,-0.106663 -0.07467,-0.202662 -0.096,-0.288 -0.02133,-0.106662 -0.05333,-0.213329 -0.096,-0.32 l 1.7600005,-1.76 -0.2880005,0 -1.536,1.536 -0.096,-0.672 0.832,-0.864 -0.288,0 -0.576,0.608 c -0.02133,-0.106661 -0.032,-0.202661 -0.032,-0.288 0,-0.10666 0,-0.213327 0,-0.32 l 0,-8.96 c 0,-0.917317 0.170667,-1.781316 0.512,-2.592 0.362666,-0.831981 0.842666,-1.546647 1.4400005,-2.144 0.6186641,-0.618646 1.33333,-1.098645 2.144,-1.44 0.8106617,-0.362645 1.6853275,-0.543978 2.624,-0.544 l 0,0.128 0.128,-0.128 0.8,0 -0.928,0.928 0,0.288 1.184,-1.216 0.8,0 -1.984,2.016 0,0.256 2.272,-2.272 0.8,0 -3.072,3.072 0,0.288 3.36,-3.36 0.79999996,0 -4.15999996,4.16 0,0.288 4.44799996,-4.448 0.032,0 c 0.12798867,2.2e-5 0.24532189,2.2e-5 0.352,0 0.12798832,2.2e-5 0.25598819,0.01069 0.384,0.032 l -4.44799996,4.448 -0.768,0 c -0.6186728,1.8e-5 -1.1520056,0.224017 -1.6,0.672 -0.4266714,0.426683 -0.6400045,0.949349 -0.64,1.568 l 0,8.96 m 0.096,0.672 c 0.042662,0.106672 0.085329,0.202672 0.128,0.288 0.042662,0.06401 0.085329,0.149339 0.128,0.256 l -3.2000005,3.168 c -0.064,-0.064 -0.128001,-0.127998 -0.192,-0.192 -0.04267,-0.08533 -0.096,-0.170664 -0.16,-0.256 l 3.2960005,-3.264 m 0.384,0.704 c 0.042662,0.06401 0.095995,0.138672 0.16,0.224 0.063995,0.06401 0.1386614,0.117338 0.224,0.16 l -3.168,3.2 -0.416,-0.416 3.2,-3.168 m 8.48,-1.76 3.648,3.616 c -0.042684,0.064 -0.08535,0.128003 -0.128,0.192 -0.02135,0.064 -0.05335,0.128003 -0.096,0.192 l -3.424,-3.456 0,-0.16 0,-0.384 m 3.616,-0.736 0.864,0.864 0,0.256 0,0.32 -1.44,-1.44 0.576,0 m -1.088,0 1.888,1.92 c -1.79e-5,0.106672 -0.021351,0.266672 -0.064,0.48 l -2.4,-2.4 0.576,0 m -1.088,0 2.816,2.816 c -0.042684,0.170671 -0.085351,0.320004 -0.128,0.448 l -3.264,-3.264 0.576,0 m 2.688,0 0.352,0 0,0.352 -0.352,-0.352 m -5.50400004,3.168 c 0.12798781,-0.02133 0.25598768,-0.08533 0.384,-0.192 l 3.20000004,3.2 c -0.085349,0.04267 -0.1920155,0.128001 -0.32,0.256 l -3.26400004,-3.264 m 0.672,-0.416 c 0.12798714,-0.127995 0.21332034,-0.223995 0.25600004,-0.288 l 3.2,3.168 -0.288,0.288 -3.16800004,-3.168 m -1.536,0.608 c 0.10665536,4e-6 0.2666552,-0.02133 0.48,-0.064 l 3.36000004,3.36 c -0.1706816,0.08533 -0.2880148,0.160001 -0.352,0.224 l -3.48800004,-3.488 0,0.128 -0.192,0.192 0.16,0.16 0.032,-0.064 0,0.096 3.16800004,3.136 -0.384,0.192 -2.78400004,-2.752 0,0.128 -0.192,0.192 0.16,0.128 0.032,-0.032 0,0.096 2.40000004,2.4 c -0.064014,0.04267 -0.1280135,0.07467 -0.192,0.096 -0.064013,0 -0.13868,0.02133 -0.224,0.064 l -1.98400004,-1.984 0,0.128 -0.192,0.192 0.16,0.128 0.032,-0.032 0,0.064 1.60000004,1.6 -0.48000004,0.096 -1.12,-1.12 0,0.16 -0.192,0.192 0.16,0.128 0.032,-0.032 0,0.064 0.672,0.672 c -0.10667843,0.02133 -0.20267834,0.032 -0.288,0.032 -0.0853448,0 -0.17067808,0 -0.256,0 l -0.128,-0.128 0,0.128 -0.95999996,0 -0.064,-0.032 -0.032,0.032 -0.992,0 -0.032,-0.032 -0.064,0.032 -0.992,0 -0.032,-0.032 -0.064,0.032 -0.992,0 -0.032,-0.032 -0.064,0.032 -0.16,0 c -0.1066733,0 -0.2133399,0 -0.32,0 -0.08534,0 -0.1813396,-0.01067 -0.288,-0.032 l 0.608,-0.576 0,-0.224 0.096,0.096 0.256,-0.256 -0.128,-0.128 -1.088,1.056 c -0.1066725,-0.02133 -0.2240057,-0.032 -0.352,-0.032 -0.1066721,-0.02133 -0.2133387,-0.05333 -0.32,-0.096 l 1.536,-1.504 0,-0.224 0.096,0.096 0.256,-0.256 -0.128,-0.128 -1.984,1.984 c -0.1066716,-0.04267 -0.2133381,-0.07467 -0.32,-0.096 -0.085338,-0.02133 -0.1813378,-0.05333 -0.288,-0.096 l 2.368,-2.368 0,-0.224 0.096,0.096 0.256,-0.256 -0.128,-0.128 -2.784,2.784 c -0.1706707,-0.064 -0.3520039,-0.149333 -0.544,-0.256 l 3.104,-3.104 0,-0.224 0.096,0.128 0.256,-0.256 -0.128,-0.16 -3.52,3.52 c -0.085337,-0.04267 -0.17067,-0.08533 -0.256,-0.128 -0.064003,-0.064 -0.1386697,-0.127999 -0.224,-0.192 l 3.328,-3.328 c 0.1066602,0.02134 0.2559934,0.032 0.448,0.032 l 4.47999996,0 m -3.42399996,0.352 0.128,0.16 0.256,-0.256 -0.128,-0.16 -0.256,0.256 m -0.544,0.544 0.128,0.128 0.256,-0.224 -0.128,-0.16 -0.256,0.256 m 0.384,3.136 -0.128,-0.128 -0.256,0.256 0.128,0.128 0.256,-0.256 m 0,-1.088 -0.128,-0.128 -0.256,0.256 0.128,0.128 0.256,-0.256 m 0,-1.088 -0.128,-0.128 -0.256,0.256 0.128,0.128 0.256,-0.256 m 0.544,1.632 -0.128,-0.128 -0.256,0.256 0.128,0.128 0.256,-0.256 m 0,-1.088 -0.128,-0.128 -0.256,0.256 0.128,0.128 0.256,-0.256 m 0,-1.088 -0.128,-0.128 -0.256,0.256 0.128,0.128 0.256,-0.256 m 0.544,2.72 -0.128,-0.128 -0.256,0.256 0.128,0.128 0.256,-0.256 m 0,-1.088 -0.128,-0.128 -0.256,0.256 0.128,0.128 0.256,-0.256 m 0,-1.088 -0.128,-0.128 -0.256,0.256 0.128,0.128 0.256,-0.256 m 0,-1.056 -0.128,-0.16 -0.256,0.256 0.128,0.128 0.256,-0.224 m 0.544,2.688 -0.128,-0.128 -0.256,0.256 0.128,0.128 0.256,-0.256 m 0,-1.088 -0.128,-0.128 -0.256,0.256 0.128,0.128 0.256,-0.256 m 0,-1.088 -0.128,-0.128 -0.256,0.256 0.128,0.128 0.256,-0.256 m 0,-1.056 -0.128,-0.16 -0.256,0.256 0.128,0.16 0.256,-0.256 m 0.544,3.776 -0.16,-0.128 -0.224,0.256 0.128,0.128 0.256,-0.256 m 0,-1.088 -0.16,-0.128 -0.224,0.256 0.128,0.128 0.256,-0.256 m 0,-1.088 -0.16,-0.128 -0.224,0.256 0.128,0.128 0.256,-0.256 m 0,-1.056 -0.16,-0.16 -0.224,0.256 0.128,0.128 0.256,-0.224 m 0.544,2.688 -0.16,-0.128 -0.256,0.256 0.16,0.128 0.256,-0.256 m 0,-1.088 -0.16,-0.128 -0.256,0.256 0.16,0.128 0.256,-0.256 m 0,-1.088 -0.16,-0.128 -0.256,0.256 0.16,0.128 0.256,-0.256 m 0,-1.056 -0.16,-0.16 -0.256,0.256 0.16,0.16 0.256,-0.256 m 0.54399996,3.776 -0.15999996,-0.128 -0.256,0.256 0.16,0.128 0.25599996,-0.256 m 0,-1.088 -0.15999996,-0.128 -0.256,0.256 0.16,0.128 0.25599996,-0.256 m 0,-1.088 -0.15999996,-0.128 -0.256,0.256 0.16,0.128 0.25599996,-0.256 m 0,-1.056 -0.15999996,-0.16 -0.256,0.256 0.16,0.128 0.25599996,-0.224 m 2.91200004,-4.16 3.648,3.616 c -0.042684,0.10667 -0.106684,0.245337 -0.192,0.416 l -3.808,-3.808 0,-0.224 0.352,0 m -0.608,2.144 c 0.063987,-0.149328 0.11732,-0.287994 0.16,-0.416 l 3.328,3.296 c -0.042683,0.064 -0.08535,0.128002 -0.128,0.192 -0.042683,0.04267 -0.08535,0.08534 -0.128,0.128 l -3.232,-3.2"
           id="path3297"
           inkscape:connector-curvature="0"
           style="fill:#006680" />
      </g>
    </g>
  </g>
</svg>
