<?xml version="1.0" encoding="UTF-8" standalone="no"?>
<!-- Created with Inkscape (http://www.inkscape.org/) -->

<svg
   xmlns:dc="http://purl.org/dc/elements/1.1/"
   xmlns:cc="http://creativecommons.org/ns#"
   xmlns:rdf="http://www.w3.org/1999/02/22-rdf-syntax-ns#"
   xmlns:svg="http://www.w3.org/2000/svg"
   xmlns="http://www.w3.org/2000/svg"
   xmlns:xlink="http://www.w3.org/1999/xlink"
   xmlns:sodipodi="http://sodipodi.sourceforge.net/DTD/sodipodi-0.dtd"
   xmlns:inkscape="http://www.inkscape.org/namespaces/inkscape"
   width="96"
   height="96"
   viewBox="0 0 96.000001 96.000004"
   version="1.1"
   id="svg1072"
   inkscape:version="0.92.1 r15371"
   sodipodi:docname="text-x-copying.svg">
  <defs
     id="defs1066">
    <linearGradient
       inkscape:collect="always"
       xlink:href="#linearGradient6139-0"
       id="linearGradient4071"
       gradientUnits="userSpaceOnUse"
       gradientTransform="matrix(1.1071428,0,0,1.1071426,-4.9939026,-3.620687)"
       x1="6"
       y1="47.000011"
       x2="90"
       y2="47.000011" />
    <linearGradient
       id="linearGradient6139-0">
      <stop
         id="stop6141-2"
         offset="0"
         style="stop-color:#b0b9be;stop-opacity:1" />
      <stop
         style="stop-color:#ffffff;stop-opacity:1;"
         offset="0.25"
         id="stop6151-0" />
      <stop
         style="stop-color:#93a2a7;stop-opacity:1"
         offset="0.5"
         id="stop6147-1" />
      <stop
         id="stop6149-4"
         offset="0.75"
         style="stop-color:#f9fbfb;stop-opacity:1" />
      <stop
         id="stop6143-4"
         offset="1"
         style="stop-color:#b0b8be;stop-opacity:1" />
    </linearGradient>
    <linearGradient
       gradientTransform="translate(0.1489535,0.415026)"
       inkscape:collect="always"
       xlink:href="#linearGradient3832-0-6-1-1"
       id="linearGradient4129"
       x1="1.5"
       y1="88.171875"
       x2="94.5"
       y2="88.171875"
       gradientUnits="userSpaceOnUse" />
    <linearGradient
       id="linearGradient3832-0-6-1-1">
      <stop
         style="stop-color:#000000;stop-opacity:1;"
         offset="0"
         id="stop3834-6-3-7-1" />
      <stop
         id="stop3872-2-4"
         offset="0.1"
         style="stop-color:#000000;stop-opacity:0.58823532;" />
      <stop
         style="stop-color:#000000;stop-opacity:0.58823532;"
         offset="0.89999998"
         id="stop3844-6-2-7-6" />
      <stop
         style="stop-color:#000000;stop-opacity:1;"
         offset="1"
         id="stop3836-5-0-2-9" />
    </linearGradient>
    <radialGradient
       inkscape:collect="always"
       xlink:href="#linearGradient4050"
       id="radialGradient7462"
       gradientUnits="userSpaceOnUse"
       gradientTransform="matrix(0.97513378,0,0,0.04919072,34.047649,80.581722)"
       cx="13.948145"
       cy="44.892841"
       fx="13.948145"
       fy="44.892841"
       r="43.199203" />
    <linearGradient
       inkscape:collect="always"
       id="linearGradient4050">
      <stop
         style="stop-color:#ffffff;stop-opacity:1;"
         offset="0"
         id="stop4052" />
      <stop
         style="stop-color:#ffffff;stop-opacity:0;"
         offset="1"
         id="stop4054" />
    </linearGradient>
    <radialGradient
       inkscape:collect="always"
       xlink:href="#linearGradient4050"
       id="radialGradient7464"
       gradientUnits="userSpaceOnUse"
       gradientTransform="matrix(0.88832663,0,0,0.04919072,31.959518,-90.31726)"
       cx="13.948145"
       cy="44.892841"
       fx="13.948145"
       fy="44.892841"
       r="43.199203" />
    <radialGradient
       inkscape:collect="always"
       xlink:href="#linearGradient4050"
       id="radialGradient4543"
       gradientUnits="userSpaceOnUse"
       gradientTransform="matrix(1,0,0,0.04885057,-16.372364,-3.861835)"
       cx="48"
       cy="-16.128"
       fx="48"
       fy="-16.128"
       r="44.543999" />
    <linearGradient
       inkscape:collect="always"
       xlink:href="#linearGradient4160"
       id="linearGradient4388"
       x1="2.5"
       y1="54.296875"
       x2="93.5"
       y2="54.296875"
       gradientUnits="userSpaceOnUse"
       gradientTransform="translate(-17.652364,-22.601697)" />
    <linearGradient
       id="linearGradient4160">
      <stop
         id="stop4170"
         offset="0"
         style="stop-color:#000000;stop-opacity:0;" />
      <stop
         style="stop-color:#000000;stop-opacity:0.96470588;"
         offset="0.03175623"
         id="stop4186" />
      <stop
         style="stop-color:#000000;stop-opacity:0;"
         offset="0.09425623"
         id="stop4182" />
      <stop
         style="stop-color:#000000;stop-opacity:0;"
         offset="0.49595019"
         id="stop4180" />
      <stop
         style="stop-color:#000000;stop-opacity:0;"
         offset="0.90525883"
         id="stop4178" />
      <stop
         id="stop4184"
         offset="0.96241152"
         style="stop-color:#000000;stop-opacity:0.98823529;" />
      <stop
         id="stop4168"
         offset="1"
         style="stop-color:#000000;stop-opacity:0;" />
    </linearGradient>
    <linearGradient
       id="linearGradient13484">
      <stop
         style="stop-color:#849699;stop-opacity:1"
         offset="0"
         id="stop13486" />
      <stop
         style="stop-color:#0b0d0d;stop-opacity:0"
         offset="1"
         id="stop13488" />
    </linearGradient>
    <linearGradient
       inkscape:collect="always"
       xlink:href="#linearGradient4160"
       id="linearGradient4369"
       x1="2.5"
       y1="11.140625"
       x2="93.5"
       y2="11.140625"
       gradientUnits="userSpaceOnUse"
       gradientTransform="matrix(1.0082067,0,0,1,-17.67288,-22.601697)" />
    <linearGradient
       inkscape:collect="always"
       xlink:href="#linearGradient4050"
       id="linearGradient4767-6"
       gradientUnits="userSpaceOnUse"
       x1="2.7713892"
       y1="-28.64156"
       x2="50.527882"
       y2="14.514202" />
    <clipPath
       id="clipPath4156-4-1-2"
       clipPathUnits="userSpaceOnUse">
      <path
         inkscape:connector-curvature="0"
         id="path4158-0-8-6"
         d="m 27.046336,-55.695463 -14.21366,13.321486 h 0.06127 l 15.653407,21.770763 10.231384,-10.546177 C 38.561832,-32.30156 27.468089,-54.819245 27.046336,-55.695463 Z M 9.6468554,-39.382809 -5.2407289,-25.32124 15.987863,-7.8059573 26.372412,-18.382966 Z m 31.4906096,12.951445 -9.741259,9.713584 8.944804,12.4580526 7.780753,-7.5550056 z m -49.8397109,4.378822 -13.7541661,12.9822847 26.2830181,13.84571 0.06127,-0.0617 -0.122531,-0.0617 L 13.598503,-5.4007374 -8.7022409,-22.052595 Z m 38.0154159,7.400825 -9.802525,9.7752596 11.579232,9.5594001 7.62759,-7.40083 -8.669108,-11.0087257 z m 20.187073,5.6739697 -7.382526,7.2158 6.187844,8.54179 5.820249,-6.13651996 z m -32.195166,6.32154 -9.5574606,9.49772 13.6622686,7.1849703 7.933918,-7.6783603 z m 23.311629,2.37443004 -7.10683,6.93826996 8.362778,6.9074403 5.360756,-5.6739699 -0.06127,-0.0925 -0.0919,0.12335 -6.463539,-8.20258036 z m -8.730374,8.54178036 -7.505057,7.3391599 10.353916,5.45811 c 1.397496,-1.32103 5.67514,-6.12292 5.850882,-6.32154 z"
         style="opacity:0.6;fill:#ffffff;fill-opacity:1;stroke:none" />
    </clipPath>
    <radialGradient
       gradientTransform="matrix(0.93962333,0.77477937,-1.7975241,2.1799696,88.130548,-93.365748)"
       gradientUnits="userSpaceOnUse"
       id="radialGradient3996-3-3-1"
       r="14.16129"
       cy="47.141338"
       cx="48.30785">
      <stop
         offset="0"
         style="stop-color:#000000;stop-opacity:0.22264875"
         id="stop3954-3-6-2" />
      <stop
         offset="0.5"
         style="stop-color:#000000;stop-opacity:0.0678183"
         id="stop3958-3-6-7" />
      <stop
         offset="1"
         style="stop-color:#000000;stop-opacity:0.02431222"
         id="stop3956-4-0-0" />
    </radialGradient>
    <linearGradient
       gradientUnits="userSpaceOnUse"
       id="linearGradient4308-6-4"
       y2="4"
       x2="73"
       y1="52"
       x1="45">
      <stop
         offset="0"
         style="stop-color:#000000;stop-opacity:0.10677083"
         id="stop4304-4-4" />
      <stop
         offset="1"
         style="stop-color:#000000;stop-opacity:0"
         id="stop4306-3-9" />
    </linearGradient>
    <linearGradient
       gradientTransform="translate(-75.954866,24.617783)"
       y2="36"
       x2="37"
       y1="46.124821"
       x1="48.992088"
       gradientUnits="userSpaceOnUse"
       id="linearGradient3341-2"
       xlink:href="#linearGradient4280-6-9"
       inkscape:collect="always" />
    <linearGradient
       gradientUnits="userSpaceOnUse"
       id="linearGradient4280-6-9"
       y2="36"
       x2="37"
       y1="46.124821"
       x1="48.992088">
      <stop
         offset="0"
         style="stop-color:#cfcfcf;stop-opacity:1"
         id="stop4293-95-9" />
      <stop
         offset="0.2098622"
         style="stop-color:#b7b7b7;stop-opacity:1"
         id="stop4295-8-1" />
      <stop
         offset="1"
         style="stop-color:#c9c9c9;stop-opacity:1"
         id="stop4297-0-3" />
    </linearGradient>
    <linearGradient
       inkscape:collect="always"
       xlink:href="#linearGradient4280-6-9"
       id="linearGradient5360"
       gradientUnits="userSpaceOnUse"
       gradientTransform="translate(-74.956561,27.612698)"
       x1="48.992088"
       y1="46.124821"
       x2="37"
       y2="36" />
  </defs>
  <sodipodi:namedview
     id="base"
     pagecolor="#ffffff"
     bordercolor="#666666"
     borderopacity="1.0"
     inkscape:pageopacity="0.0"
     inkscape:pageshadow="2"
     inkscape:zoom="3.9809185"
     inkscape:cx="35.305182"
     inkscape:cy="48"
     inkscape:document-units="px"
     inkscape:current-layer="g1003"
     showgrid="false"
     inkscape:showpageshadow="false"
     units="px"
     inkscape:lockguides="true"
     inkscape:window-width="1280"
     inkscape:window-height="972"
     inkscape:window-x="0"
     inkscape:window-y="26"
     inkscape:window-maximized="1"
     inkscape:snap-global="false">
    <sodipodi:guide
       position="0,0"
       orientation="0,96"
       id="guide1621"
       inkscape:locked="true" />
    <sodipodi:guide
       position="96.000002,0"
       orientation="-96,0"
       id="guide1623"
       inkscape:locked="true" />
    <sodipodi:guide
       position="96.000002,96.000002"
       orientation="0,-96"
       id="guide1625"
       inkscape:locked="true" />
    <sodipodi:guide
       position="0,96.000002"
       orientation="96,0"
       id="guide1627"
       inkscape:locked="true" />
  </sodipodi:namedview>
  <metadata
     id="metadata1069">
    <rdf:RDF>
      <cc:Work
         rdf:about="">
        <dc:format>image/svg+xml</dc:format>
        <dc:type
           rdf:resource="http://purl.org/dc/dcmitype/StillImage" />
        <dc:title></dc:title>
        <dc:date>2017</dc:date>
        <dc:creator>
          <cc:Agent>
            <dc:title>Cristian Pozzessere &quot;ilnanny&quot;</dc:title>
          </cc:Agent>
        </dc:creator>
        <dc:subject>
          <rdf:Bag>
            <rdf:li>Global language</rdf:li>
          </rdf:Bag>
        </dc:subject>
        <dc:description>Playing with Inkscape on Gnu/Linux O. S.</dc:description>
        <dc:contributor>
          <cc:Agent>
            <dc:title>In the night, alone like a dog.</dc:title>
          </cc:Agent>
        </dc:contributor>
        <cc:license
           rdf:resource="http://creativecommons.org/licenses/by-sa/4.0/" />
      </cc:Work>
      <cc:License
         rdf:about="http://creativecommons.org/licenses/by-sa/4.0/">
        <cc:permits
           rdf:resource="http://creativecommons.org/ns#Reproduction" />
        <cc:permits
           rdf:resource="http://creativecommons.org/ns#Distribution" />
        <cc:requires
           rdf:resource="http://creativecommons.org/ns#Notice" />
        <cc:requires
           rdf:resource="http://creativecommons.org/ns#Attribution" />
        <cc:permits
           rdf:resource="http://creativecommons.org/ns#DerivativeWorks" />
        <cc:requires
           rdf:resource="http://creativecommons.org/ns#ShareAlike" />
      </cc:License>
    </rdf:RDF>
  </metadata>
  <g
     inkscape:label="Livello 1"
     inkscape:groupmode="layer"
     id="layer1"
     transform="translate(0,-1026.5197)">
    <g
       transform="translate(-0.14895645,1026.1047)"
       style="display:inline"
       id="g1273">
      <path
         style="display:inline;opacity:0.15;fill:#000000;fill-opacity:1;fill-rule:nonzero;stroke:none"
         d="M 89.29181,0.415026 H 7.0060911 c -3.798848,0 -6.8571352,3.058285 -6.8571352,6.8571399 V 89.557884 c 0,3.798857 3.0582872,6.857142 6.8571352,6.857142 H 89.29181 c 3.798857,0 6.857147,-3.058285 6.857147,-6.857142 V 7.2721659 c 0,-3.7988549 -3.05829,-6.8571399 -6.857147,-6.8571399 z"
         id="path3288"
         inkscape:connector-curvature="0" />
      <path
         inkscape:connector-curvature="0"
         id="path4085"
         d="M 88.648954,1.165026 H 7.6489471 c -3.739492,0 -6.749993,3.010499 -6.749993,6.7499969 V 88.915026 c 0,3.739501 3.010501,6.75 6.749993,6.75 H 88.648954 c 3.739503,0 6.750003,-3.010499 6.750003,-6.75 V 7.9150229 c 0,-3.7394979 -3.0105,-6.7499969 -6.750003,-6.7499969 z"
         style="display:inline;opacity:0.15;fill:#000000;fill-opacity:1;fill-rule:nonzero;stroke:none" />
      <path
         style="display:inline;fill:url(#linearGradient4071);fill-opacity:1;fill-rule:nonzero;stroke:none"
         d="M 88.006093,1.915026 H 8.2918111 c -3.680143,0 -6.6428566,2.962713 -6.6428566,6.6428549 V 88.272171 c 0,3.680142 2.9627136,6.642856 6.6428566,6.642856 H 88.006093 c 3.680143,0 6.642854,-2.962714 6.642854,-6.642856 V 8.5578809 c 0,-3.6801419 -2.962711,-6.6428549 -6.642854,-6.6428549 z"
         id="rect4251-1"
         inkscape:connector-curvature="0" />
      <path
         inkscape:connector-curvature="0"
         style="display:inline;opacity:0.65818182;fill:url(#linearGradient4129);fill-opacity:1;fill-rule:nonzero;stroke:none"
         d="m 1.6489535,82.258776 v 6 c 0,3.680142 2.9761066,6.65625 6.6562496,6.65625 H 87.992703 c 3.680143,0 6.656254,-2.976108 6.656254,-6.65625 v -6 c 0,3.680142 -2.976111,6.65625 -6.656254,6.65625 H 8.3052031 c -3.680143,0 -6.6562496,-2.976108 -6.6562496,-6.65625 z"
         id="path4118" />
      <rect
         style="opacity:0.55;fill:url(#radialGradient7462);fill-opacity:1;stroke:none"
         id="rect4131"
         width="84.250008"
         height="4.25"
         x="5.5239539"
         y="80.665031"
         rx="0"
         ry="4.25" />
      <rect
         ry="4.25"
         rx="0"
         y="-90.233963"
         x="5.9750223"
         height="4.25"
         width="76.75"
         id="rect4141"
         style="opacity:0.669;fill:url(#radialGradient7464);fill-opacity:1;stroke:none"
         transform="rotate(90)" />
      <g
         transform="matrix(0.91297981,0,0,0.8444453,20.28803,23.983749)"
         id="g1003">
        <path
           inkscape:connector-curvature="0"
           style="opacity:1;fill:#ebedee;fill-opacity:1;stroke:none"
           d="m -11.246114,-7.507947 c -2.168522,0 -3.90625,1.74244 -3.90625,3.90625 v 70.59375 c 0,2.16381 1.737728,3.90625 3.90625,3.90625 h 83.1875 c 2.168522,0 3.90625,-1.74244 3.90625,-3.90625 v -70.59375 c 0,-2.16381 -1.737728,-3.90625 -3.90625,-3.90625 z"
           id="path1246" />
        <rect
           ry="3.0576727"
           rx="3.9569874"
           y="-6.8256979"
           x="-12.916362"
           height="4.3519998"
           width="89.087997"
           id="rect4048"
           style="opacity:0.65090906;fill:url(#radialGradient4543);fill-opacity:1;stroke:none" />
        <g
           id="g1065"
           transform="translate(2.9121179)">
          <path
             sodipodi:nodetypes="cccccccccccccccccccccccccccccccccccccccc"
             inkscape:connector-curvature="0"
             d="M 64.336397,1.1588127 V 67.764086 H -9.1276808 V 24.768346 H 27.183766 V 1.1588127 Z m -0.123028,5.038536 h -36.71089 c 16.071885,0.146565 15.923615,0.15718 36.71089,0 z M 27.502479,20.355289 h 36.71089 v 4.61237 h -36.71089 z m 0,-9.385156 h 36.71089 v 4.612371 H 27.502479 Z M -8.9404639,29.740445 H 64.213369 v 4.612371 H -8.9404639 Z m 0,28.155465 H 64.213369 v 4.612375 H -8.9404639 Z m 0,-9.385154 H 64.213369 v 4.612378 H -8.9404639 Z m 8e-7,-9.385157 H 64.213369 v 4.61237 H -8.9404631 Z"
             style="opacity:0.64363637;fill:none;stroke:#00556b;stroke-width:0.8355847;stroke-linecap:round;stroke-linejoin:round;stroke-miterlimit:4;stroke-dasharray:none;stroke-dashoffset:0;stroke-opacity:1"
             id="rect4132" />
          <g
             id="text3315"
             style="font-style:normal;font-variant:normal;font-weight:bold;font-stretch:normal;font-size:39.03157043px;line-height:125%;font-family:Raleway;-inkscape-font-specification:'Raleway Bold';letter-spacing:0px;word-spacing:0px;fill:#b60000;fill-opacity:1;stroke:none"
             transform="matrix(0.94951204,0,0,1.0265736,10.183717,-52.7042)">
            <path
               id="path3304"
               d="m -1.8743489,73.051152 c -2.0556769,0 -3.9682219,-0.351284 -5.7376409,-1.053852 -1.7434188,-0.728588 -3.2526382,-1.717387 -4.5276622,-2.9664 -1.275036,-1.275026 -2.276845,-2.771235 -3.005431,-4.48863 -0.70257,-1.717379 -1.053854,-3.590893 -1.053852,-5.620546 -2e-6,-2.003605 0.351282,-3.864108 1.053852,-5.581515 0.728586,-1.717368 1.730395,-3.200566 3.005431,-4.449599 1.275024,-1.248985 2.7842434,-2.224773 4.5276622,-2.927368 1.769419,-0.728561 3.681964,-1.092856 5.7376409,-1.092884 2.05564445,2.8e-5 3.9681895,0.364323 5.7376408,1.092884 1.7694075,0.702595 3.2916373,1.678383 4.5666938,2.927368 1.2750035,1.249033 2.2768133,2.732231 3.0054313,4.449599 0.728559,1.717407 1.092853,3.57791 1.092884,5.581515 -3.1e-5,2.029653 -0.364325,3.903167 -1.092884,5.620546 -0.728618,1.717395 -1.7304278,3.213604 -3.0054313,4.48863 -1.2750565,1.249013 -2.7972863,2.237812 -4.5666938,2.9664 -1.7694513,0.702568 -3.68199635,1.053852 -5.7376408,1.053852 m 0,-1.288042 c 1.82145526,10e-7 3.5258321,-0.312251 5.1131357,-0.936757 1.587261,-0.624503 2.9663751,-1.496207 4.1373465,-2.615116 1.1709205,-1.118899 2.0946667,-2.458981 2.7712417,-4.020251 0.676518,-1.561253 1.014791,-3.291651 1.014821,-5.191199 -3e-5,-1.847479 -0.325292,-3.551856 -0.97579,-5.113136 C 9.5358526,52.325409 8.6251168,50.972316 7.4541964,49.827368 6.283225,48.682466 4.9041108,47.784741 3.31685,47.134189 1.7295463,46.48369 -8.5159823e-4,46.158427 -1.8743489,46.1584 c -1.8475087,2.7e-5 -3.5648961,0.32529 -5.1521673,0.975789 -1.5872933,0.650552 -2.9664074,1.548277 -4.1373468,2.693179 -1.144932,1.118927 -2.042657,2.47202 -2.693178,4.059283 -0.65053,1.56128 -0.975793,3.252647 -0.975789,5.074104 -4e-6,1.821486 0.325259,3.512852 0.975789,5.074104 0.650521,1.56127 1.548246,2.914364 2.693178,4.059284 1.1709394,1.144929 2.537043,2.042655 4.0983152,2.693178 1.5872713,0.650528 3.3176692,0.97579 5.1911989,0.975789 m 0.3122526,-3.786062 c -1.1969835,5e-6 -2.3419084,-0.208163 -3.4347782,-0.624505 -1.092896,-0.442352 -2.0686843,-1.053846 -2.9273678,-1.834484 -0.8326828,-0.780623 -1.5092294,-1.730391 -2.0296417,-2.849305 -0.494408,-1.118893 -0.741607,-2.367902 -0.7416,-3.74703 -7e-6,-1.092869 0.18214,-2.185752 0.546442,-3.278652 0.3642865,-1.092866 0.910728,-2.068654 1.6393261,-2.927368 0.728579,-0.858674 1.6523253,-1.561241 2.7712415,-2.107705 1.1188916,-0.546419 2.4329531,-0.81964 3.9421886,-0.819663 1.71737114,2.3e-5 3.2396009,0.377328 4.5666938,1.131916 1.3530722,0.72861 2.3288605,1.795472 2.9273678,3.200589 L 3.1216921,54.940504 C 2.8614607,54.368059 2.5231874,53.899681 2.1068713,53.535367 1.7165358,53.171092 1.2871889,52.884861 0.81882945,52.676672 0.37645321,52.468524 -0.07891466,52.325409 -0.54727551,52.247325 -0.98965039,52.169283 -1.4059867,52.130251 -1.7962858,52.13023 c -1.0408571,2.1e-5 -1.9515928,0.208189 -2.7322099,0.624506 -0.7546231,0.390335 -1.3921382,0.910755 -1.9125469,1.561262 -0.4944111,0.624523 -0.8717159,1.353112 -1.1319156,2.185768 -0.2602207,0.806668 -0.3903258,1.61332 -0.3903157,2.419958 -1.01e-5,1.066875 0.1951476,2.029653 0.5854736,2.888336 0.3903046,0.832684 0.884704,1.535251 1.4831996,2.107705 0.5984713,0.572471 1.2620074,1.014828 1.9906101,1.327073 0.7545955,0.286239 1.4831841,0.429354 2.185768,0.429347 0.98878242,7e-6 1.97758121,-0.260203 2.9663993,-0.780631 0.9887795,-0.546434 1.7043576,-1.275022 2.1467364,-2.185768 l 2.5760836,0.7416 c -0.1821711,0.468388 -0.4944234,0.975797 -0.9367576,1.522231 -0.4423805,0.520428 -0.9888219,1.014828 -1.639326,1.4832 -0.650547,0.442363 -1.3921461,0.806658 -2.2247995,1.092884 -0.83269193,0.286236 -1.74342766,0.429352 -2.7322099,0.429347"
               inkscape:connector-curvature="0" />
          </g>
        </g>
        <path
           id="rect4371"
           d="m -11.246114,-7.507947 c -2.168522,0 -3.90625,1.74244 -3.90625,3.90625 v 70.59375 c 0,2.16381 1.737728,3.90625 3.90625,3.90625 h 83.1875 c 2.168522,0 3.90625,-1.74244 3.90625,-3.90625 v -70.59375 c 0,-2.16381 -1.737728,-3.90625 -3.90625,-3.90625 z"
           style="opacity:0.27999998;fill:url(#linearGradient4388);fill-opacity:1;stroke:none"
           inkscape:connector-curvature="0" />
        <g
           transform="matrix(1.0971739,0,0,1.1862198,93.934992,-36.128179)"
           style="display:inline"
           id="g907">
          <path
             sodipodi:nodetypes="cccc"
             style="fill:#e4e4e4;fill-opacity:1;fill-rule:nonzero;stroke-width:0.91380757"
             id="path3934"
             d="m -15.429049,60.458822 -0.440308,9.064825 c 4.251697,27.551334 -4.100443,21.043241 -23.177864,20.566419 z"
             inkscape:connector-curvature="0" />
          <path
             sodipodi:nodetypes="ccccccc"
             style="fill:#effcfe;fill-opacity:1;fill-rule:nonzero;stroke:#fefefe;stroke-width:0.1810281;stroke-miterlimit:4;stroke-dasharray:none;stroke-opacity:1"
             id="path3922"
             d="m -17.628553,64.454487 -22.246915,26.119232 h 1.779752 l 21.16238,-25.528172 0.194661,-0.253312 v -0.337748 c -0.43925,-0.246301 -0.889878,0 -0.889878,0 z"
             inkscape:connector-curvature="0" />
          <path
             style="fill:url(#linearGradient5360);fill-rule:nonzero"
             id="path4278"
             d="m -40.956561,91.612698 26,-31 c -2.328567,2.776369 -4.36141,3 -11,3 h -12 v 15 c 0,6.644068 0.04437,9.370179 -3,13 z"
             inkscape:connector-curvature="0" />
          <path
             sodipodi:nodetypes="cscscccsc"
             inkscape:connector-curvature="0"
             style="fill:#ffffff;fill-opacity:0.86614176;fill-rule:nonzero"
             id="path4282"
             d="m -15.832594,60.440827 c -3.547485,1.889883 -4.583031,2.224325 -11.221621,2.224325 h -12 v 15 c 0,6.644068 0.04437,9.370179 -3,13 4,-5 4.000382,-8.356667 4,-13 v -14 h 11 c 5,0 8.263026,0.393792 11.221621,-3.224325 z" />
        </g>
        <g
           id="g986"
           transform="matrix(1.0060842,0,0,1,0.09409158,0)">
          <path
             inkscape:connector-curvature="0"
             style="opacity:0;fill:#000000;fill-opacity:1;stroke:none"
             d="m -11.527364,-20.414197 c -2.182681,0 -3.9375,1.754819 -3.9375,3.9375 v 12 c 0,-2.182681 1.754819,-3.9375 3.9375,-3.9375 h 83.75 c 2.182681,0 3.9375,1.754819 3.9375,3.9375 v -12 c 0,-2.182681 -1.754819,-3.9375 -3.9375,-3.9375 z"
             id="rect4080" />
          <path
             inkscape:connector-curvature="0"
             style="fill:#e4e8e8;fill-opacity:1;stroke:#738589;stroke-width:0.99243301;stroke-miterlimit:4;stroke-dasharray:none;stroke-opacity:1"
             d="m -11.229786,-20.105492 c -2.168501,0 -3.925898,1.761406 -3.925898,3.934855 v 3.965838 c 0,-2.173448 1.757397,-3.934854 3.925898,-3.934854 h 83.154841 c 2.168502,0 3.925898,1.761406 3.925898,3.934854 v -3.965838 c 0,-2.173449 -1.757396,-3.934855 -3.925898,-3.934855 z"
             id="path4058" />
          <path
             id="path4060"
             d="m -11.229786,-12.17466 c -2.168501,0 -3.925898,1.761407 -3.925898,3.934856 v 3.965839 c 0,-2.173449 1.757397,-3.934856 3.925898,-3.934856 h 83.154841 c 2.168502,0 3.925898,1.761407 3.925898,3.934856 v -3.965839 c 0,-2.173449 -1.757396,-3.934856 -3.925898,-3.934856 z"
             style="fill:#e4e8e8;fill-opacity:1;stroke:#738589;stroke-width:0.99243301;stroke-miterlimit:4;stroke-dasharray:none;stroke-opacity:1"
             inkscape:connector-curvature="0" />
          <path
             inkscape:connector-curvature="0"
             style="fill:#e4e8e8;fill-opacity:1;stroke:#738589;stroke-width:0.99243301;stroke-miterlimit:4;stroke-dasharray:none;stroke-opacity:1"
             d="m -11.229786,-16.140075 c -2.168501,0 -3.925898,1.761406 -3.925898,3.934854 v 3.965839 c 0,-2.173449 1.757397,-3.934855 3.925898,-3.934855 h 83.154841 c 2.168502,0 3.925898,1.761406 3.925898,3.934855 v -3.965839 c 0,-2.173448 -1.757396,-3.934854 -3.925898,-3.934854 z"
             id="path4062" />
          <path
             style="opacity:0.25818182;fill:url(#linearGradient4369);fill-opacity:1;stroke:none;stroke-width:1.00409496"
             d="m -11.214056,-19.914197 c -2.186319,0 -3.938308,1.74244 -3.938308,3.90625 v 13 c 0,-2.16381 2.104388,-4.784629 4.290702,-4.780063 l 83.693999,0.174762 c 2.186314,0.00457 3.762111,2.441491 3.762111,4.605301 v -13 c 0,-2.16381 -1.751989,-3.90625 -3.938308,-3.90625 z"
             id="rect4358"
             inkscape:connector-curvature="0"
             sodipodi:nodetypes="sscsscsss" />
        </g>
        <rect
           transform="matrix(1.2146192,0,0,1.3113605,-18.088534,19.372096)"
           style="display:inline;opacity:0.5078125;fill:url(#linearGradient4767-6);fill-opacity:1;stroke:none"
           id="rect4146"
           width="75.965775"
           height="69.024437"
           x="2"
           y="-30"
           rx="3.9569874"
           ry="3.9569881"
           clip-path="url(#clipPath4156-4-1-2)" />
      </g>
      <path
         inkscape:connector-curvature="0"
         id="path4989"
         d="m 9.9740341,5.1444869 c -3.116621,0 -5.667965,2.53951 -5.667965,5.6460041 v 69.277996 c 0,3.106495 2.551344,5.646004 5.667965,5.646004 H 86.765819 c 3.116621,0 5.667968,-2.539509 5.667968,-5.646004 V 10.790491 c 0,-3.1064931 -2.551347,-5.6460041 -5.667968,-5.6460041 z m 0,2.319439 H 86.765819 c 1.888099,0 3.352022,1.480095 3.352022,3.3265651 v 69.277996 c 0,1.846474 -1.463923,3.326564 -3.352022,3.326564 H 9.9740341 c -1.888099,0 -3.352022,-1.48009 -3.352022,-3.326564 V 10.790491 c 0,-1.8464701 1.463923,-3.3265651 3.352022,-3.3265651 z"
         style="color:#000000;font-style:normal;font-variant:normal;font-weight:normal;font-stretch:normal;font-size:medium;line-height:normal;font-family:Sans;-inkscape-font-specification:Sans;text-indent:0;text-align:start;text-decoration:none;text-decoration-line:none;letter-spacing:normal;word-spacing:normal;text-transform:none;writing-mode:lr-tb;direction:ltr;baseline-shift:baseline;text-anchor:start;display:inline;overflow:visible;visibility:visible;fill:#241f1f;fill-opacity:0.63265303;stroke:none;stroke-width:2.3755002;marker:none;enable-background:accumulate" />
    </g>
  </g>
</svg>
