<?xml version="1.0" encoding="UTF-8" standalone="no"?>
<!-- Created with Inkscape (http://www.inkscape.org/) -->

<svg
   xmlns:dc="http://purl.org/dc/elements/1.1/"
   xmlns:cc="http://creativecommons.org/ns#"
   xmlns:rdf="http://www.w3.org/1999/02/22-rdf-syntax-ns#"
   xmlns:svg="http://www.w3.org/2000/svg"
   xmlns="http://www.w3.org/2000/svg"
   xmlns:xlink="http://www.w3.org/1999/xlink"
   xmlns:sodipodi="http://sodipodi.sourceforge.net/DTD/sodipodi-0.dtd"
   xmlns:inkscape="http://www.inkscape.org/namespaces/inkscape"
   width="96"
   height="96"
   viewBox="0 0 96.000001 96.000004"
   version="1.1"
   id="svg1072"
   inkscape:version="0.92.2 5c3e80d, 2017-08-06"
   sodipodi:docname="appointment-new.svg">
  <defs
     id="defs1066">
    <linearGradient
       y2="47.000011"
       x2="90"
       y1="47.000011"
       x1="6"
       gradientTransform="matrix(1.1071428,0,0,1.1071426,-4.9939026,-3.620687)"
       gradientUnits="userSpaceOnUse"
       id="linearGradient4071"
       xlink:href="#linearGradient6139-0"
       inkscape:collect="always" />
    <linearGradient
       id="linearGradient6139-0">
      <stop
         style="stop-color:#b2b9bc;stop-opacity:1"
         offset="0"
         id="stop6141-2" />
      <stop
         id="stop6151-0"
         offset="0.25"
         style="stop-color:#ffffff;stop-opacity:1;" />
      <stop
         id="stop6147-1"
         offset="0.5"
         style="stop-color:#96a0a4;stop-opacity:1" />
      <stop
         style="stop-color:#f9fafb;stop-opacity:1;"
         offset="0.75"
         id="stop6149-4" />
      <stop
         style="stop-color:#b2b9bc;stop-opacity:1"
         offset="1"
         id="stop6143-4" />
    </linearGradient>
    <linearGradient
       gradientUnits="userSpaceOnUse"
       y2="88.171875"
       x2="94.5"
       y1="88.171875"
       x1="1.5"
       id="linearGradient4129"
       xlink:href="#linearGradient3832-0-6-1-1"
       inkscape:collect="always"
       gradientTransform="translate(0.1489535,0.415026)" />
    <linearGradient
       id="linearGradient3832-0-6-1-1">
      <stop
         id="stop3834-6-3-7-1"
         offset="0"
         style="stop-color:#000000;stop-opacity:1;" />
      <stop
         style="stop-color:#000000;stop-opacity:0.58823532;"
         offset="0.1"
         id="stop3872-2-4" />
      <stop
         id="stop3844-6-2-7-6"
         offset="0.89999998"
         style="stop-color:#000000;stop-opacity:0.58823532;" />
      <stop
         id="stop3836-5-0-2-9"
         offset="1"
         style="stop-color:#000000;stop-opacity:1;" />
    </linearGradient>
    <radialGradient
       r="43.199203"
       fy="44.892841"
       fx="13.948145"
       cy="44.892841"
       cx="13.948145"
       gradientTransform="matrix(0.97513378,0,0,0.04919072,34.047649,80.581722)"
       gradientUnits="userSpaceOnUse"
       id="radialGradient7462"
       xlink:href="#linearGradient3737"
       inkscape:collect="always" />
    <linearGradient
       id="linearGradient3737">
      <stop
         id="stop3739"
         style="stop-color:#ffffff;stop-opacity:1"
         offset="0" />
      <stop
         id="stop3741"
         style="stop-color:#ffffff;stop-opacity:0"
         offset="1" />
    </linearGradient>
    <radialGradient
       r="43.199203"
       fy="44.892841"
       fx="13.948145"
       cy="44.892841"
       cx="13.948145"
       gradientTransform="matrix(0.88832663,0,0,0.04919072,31.959518,-90.31726)"
       gradientUnits="userSpaceOnUse"
       id="radialGradient7464"
       xlink:href="#linearGradient3737"
       inkscape:collect="always" />
    <linearGradient
       y2="14.514202"
       x2="50.527882"
       y1="-28.64156"
       x1="2.7713892"
       gradientUnits="userSpaceOnUse"
       id="linearGradient4767"
       xlink:href="#linearGradient3737"
       inkscape:collect="always" />
    <clipPath
       clipPathUnits="userSpaceOnUse"
       id="clipPath4156-4-1">
      <path
         style="opacity:0.6;fill:#ffffff;fill-opacity:1;stroke:none"
         d="m 27.046336,-55.695463 -14.21366,13.321486 h 0.06127 l 15.653407,21.770763 10.231384,-10.546177 C 38.561832,-32.30156 27.468089,-54.819245 27.046336,-55.695463 Z M 9.6468554,-39.382809 -5.2407289,-25.32124 15.987863,-7.8059573 26.372412,-18.382966 Z m 31.4906096,12.951445 -9.741259,9.713584 8.944804,12.4580526 7.780753,-7.5550056 z m -49.8397109,4.378822 -13.7541661,12.9822847 26.2830181,13.84571 0.06127,-0.0617 -0.122531,-0.0617 L 13.598503,-5.4007374 -8.7022409,-22.052595 Z m 38.0154159,7.400825 -9.802525,9.7752596 11.579232,9.5594001 7.62759,-7.40083 -8.669108,-11.0087257 z m 20.187073,5.6739697 -7.382526,7.2158 6.187844,8.54179 5.820249,-6.13651996 z m -32.195166,6.32154 -9.5574606,9.49772 13.6622686,7.1849703 7.933918,-7.6783603 z m 23.311629,2.37443004 -7.10683,6.93826996 8.362778,6.9074403 5.360756,-5.6739699 -0.06127,-0.0925 -0.0919,0.12335 -6.463539,-8.20258036 z m -8.730374,8.54178036 -7.505057,7.3391599 10.353916,5.45811 c 1.397496,-1.32103 5.67514,-6.12292 5.850882,-6.32154 z"
         id="path4158-0-8"
         inkscape:connector-curvature="0" />
    </clipPath>
  </defs>
  <sodipodi:namedview
     id="base"
     pagecolor="#ffffff"
     bordercolor="#666666"
     borderopacity="1.0"
     inkscape:pageopacity="0.0"
     inkscape:pageshadow="2"
     inkscape:zoom="3.3649465"
     inkscape:cx="-76.509397"
     inkscape:cy="44.549472"
     inkscape:document-units="px"
     inkscape:current-layer="g2574"
     showgrid="false"
     inkscape:showpageshadow="false"
     units="px"
     inkscape:lockguides="true"
     inkscape:window-width="1280"
     inkscape:window-height="941"
     inkscape:window-x="0"
     inkscape:window-y="21"
     inkscape:window-maximized="1">
    <sodipodi:guide
       position="0,0"
       orientation="0,96"
       id="guide1621"
       inkscape:locked="true" />
    <sodipodi:guide
       position="96.000002,0"
       orientation="-96,0"
       id="guide1623"
       inkscape:locked="true" />
    <sodipodi:guide
       position="96.000002,96.000002"
       orientation="0,-96"
       id="guide1625"
       inkscape:locked="true" />
    <sodipodi:guide
       position="0,96.000002"
       orientation="96,0"
       id="guide1627"
       inkscape:locked="true" />
  </sodipodi:namedview>
  <metadata
     id="metadata1069">
    <rdf:RDF>
      <cc:Work
         rdf:about="">
        <dc:format>image/svg+xml</dc:format>
        <dc:type
           rdf:resource="http://purl.org/dc/dcmitype/StillImage" />
        <dc:title />
        <dc:date>2017</dc:date>
        <dc:creator>
          <cc:Agent>
            <dc:title>Cristian Pozzessere &quot;ilnanny&quot;</dc:title>
          </cc:Agent>
        </dc:creator>
        <dc:subject>
          <rdf:Bag>
            <rdf:li>Global language</rdf:li>
          </rdf:Bag>
        </dc:subject>
        <dc:description>Playing with Inkscape on Gnu/Linux O. S.</dc:description>
        <dc:contributor>
          <cc:Agent>
            <dc:title>In the night, alone like a dog.</dc:title>
          </cc:Agent>
        </dc:contributor>
        <cc:license
           rdf:resource="http://creativecommons.org/licenses/by-sa/4.0/" />
      </cc:Work>
      <cc:License
         rdf:about="http://creativecommons.org/licenses/by-sa/4.0/">
        <cc:permits
           rdf:resource="http://creativecommons.org/ns#Reproduction" />
        <cc:permits
           rdf:resource="http://creativecommons.org/ns#Distribution" />
        <cc:requires
           rdf:resource="http://creativecommons.org/ns#Notice" />
        <cc:requires
           rdf:resource="http://creativecommons.org/ns#Attribution" />
        <cc:permits
           rdf:resource="http://creativecommons.org/ns#DerivativeWorks" />
        <cc:requires
           rdf:resource="http://creativecommons.org/ns#ShareAlike" />
      </cc:License>
    </rdf:RDF>
  </metadata>
  <g
     inkscape:label="Livello 1"
     inkscape:groupmode="layer"
     id="layer1"
     transform="translate(0,-1026.5197)">
    <g
       transform="translate(-0.14895645,1026.1047)"
       style="display:inline"
       id="g2574">
      <path
         inkscape:connector-curvature="0"
         id="path3288"
         d="M 89.29181,0.415026 H 7.0060911 c -3.798848,0 -6.8571352,3.058285 -6.8571352,6.8571399 V 89.557884 c 0,3.798857 3.0582872,6.857142 6.8571352,6.857142 H 89.29181 c 3.798857,0 6.857147,-3.058285 6.857147,-6.857142 V 7.2721659 c 0,-3.7988549 -3.05829,-6.8571399 -6.857147,-6.8571399 z"
         style="display:inline;opacity:0.15;fill:#000000;fill-opacity:1;fill-rule:nonzero;stroke:none" />
      <path
         style="display:inline;opacity:0.15;fill:#000000;fill-opacity:1;fill-rule:nonzero;stroke:none"
         d="M 88.648954,1.165026 H 7.6489471 c -3.739492,0 -6.749993,3.010499 -6.749993,6.7499969 V 88.915026 c 0,3.739501 3.010501,6.75 6.749993,6.75 H 88.648954 c 3.739503,0 6.750003,-3.010499 6.750003,-6.75 V 7.9150229 c 0,-3.7394979 -3.0105,-6.7499969 -6.750003,-6.7499969 z"
         id="path4085"
         inkscape:connector-curvature="0" />
      <path
         inkscape:connector-curvature="0"
         id="rect4251-1"
         d="M 88.006093,1.915026 H 8.2918111 c -3.680143,0 -6.6428566,2.962713 -6.6428566,6.6428549 V 88.272171 c 0,3.680142 2.9627136,6.642856 6.6428566,6.642856 H 88.006093 c 3.680143,0 6.642854,-2.962714 6.642854,-6.642856 V 8.5578809 c 0,-3.6801419 -2.962711,-6.6428549 -6.642854,-6.6428549 z"
         style="display:inline;fill:url(#linearGradient4071);fill-opacity:1;fill-rule:nonzero;stroke:none" />
      <path
         sodipodi:nodetypes="sscccsccscccsss"
         inkscape:connector-curvature="0"
         id="path3400-6"
         d="m 11.390247,6.8021682 c -2.8564964,0 -5.1241284,2.2883782 -5.1241284,5.1710028 v 21.42734 7.239403 39.913674 c 1.0972399,1.684484 2.9688485,2.811732 5.1241284,2.811732 h 4.099303 65.588849 4.099302 c 2.155281,0 4.026889,-1.127248 5.124129,-2.811732 V 40.639914 33.400511 11.973171 c 0,-2.8826246 -2.267632,-5.1710028 -5.124129,-5.1710028 z"
         style="display:inline;opacity:0.867;fill:#f3f4f5;fill-opacity:1;fill-rule:nonzero;stroke:none;stroke-width:1.02950251" />
      <path
         style="color:#000000;font-style:normal;font-variant:normal;font-weight:normal;font-stretch:normal;font-size:medium;line-height:normal;font-family:Sans;-inkscape-font-specification:Sans;text-indent:0;text-align:start;text-decoration:none;text-decoration-line:none;letter-spacing:normal;word-spacing:normal;text-transform:none;writing-mode:lr-tb;direction:ltr;baseline-shift:baseline;text-anchor:start;display:inline;overflow:visible;visibility:visible;fill:#1f2224;fill-opacity:0.63265303;stroke:none;stroke-width:2.3755002;marker:none;enable-background:accumulate"
         d="m 9.9740341,5.1444869 c -3.116621,0 -5.667965,2.53951 -5.667965,5.6460041 v 69.277996 c 0,3.106495 2.551344,5.646004 5.667965,5.646004 H 86.765819 c 3.116621,0 5.667968,-2.539509 5.667968,-5.646004 V 10.790491 c 0,-3.1064931 -2.551347,-5.6460041 -5.667968,-5.6460041 z m 0,2.319439 H 86.765819 c 1.888099,0 3.352022,1.480095 3.352022,3.3265651 v 69.277996 c 0,1.846474 -1.463923,3.326564 -3.352022,3.326564 H 9.9740341 c -1.888099,0 -3.352022,-1.48009 -3.352022,-3.326564 V 10.790491 c 0,-1.8464701 1.463923,-3.3265651 3.352022,-3.3265651 z"
         id="path4989"
         inkscape:connector-curvature="0" />
      <path
         id="path4118"
         d="m 1.6489535,82.258776 v 6 c 0,3.680142 2.9761066,6.65625 6.6562496,6.65625 H 87.992703 c 3.680143,0 6.656254,-2.976108 6.656254,-6.65625 v -6 c 0,3.680142 -2.976111,6.65625 -6.656254,6.65625 H 8.3052031 c -3.680143,0 -6.6562496,-2.976108 -6.6562496,-6.65625 z"
         style="display:inline;opacity:0.65818182;fill:url(#linearGradient4129);fill-opacity:1;fill-rule:nonzero;stroke:none"
         inkscape:connector-curvature="0" />
      <rect
         ry="4.25"
         rx="0"
         y="80.665031"
         x="5.5239539"
         height="4.25"
         width="84.250008"
         id="rect4131"
         style="opacity:0.55;fill:url(#radialGradient7462);fill-opacity:1;stroke:none" />
      <rect
         transform="rotate(90)"
         style="opacity:0.669;fill:url(#radialGradient7464);fill-opacity:1;stroke:none"
         id="rect4141"
         width="76.75"
         height="4.25"
         x="5.9750223"
         y="-90.233963"
         rx="0"
         ry="4.25" />
      <g
         transform="matrix(1.2122975,0,0,1.2122975,-8.223769,-14.199875)"
         style="display:inline"
         id="g984">
        <path
           d="m 50,22 c -13.807119,0 -25,11.192881 -25,25 0,2.068482 0.245172,4.07771 0.71875,6 H 32.25 c -0.638801,-1.887711 -1,-3.896572 -1,-6 0,-10.355341 8.394663,-18.75 18.75,-18.75 10.355341,0 18.75,8.394659 18.75,18.75 0,10.355338 -8.394659,18.75 -18.75,18.75 -2.103428,0 -4.112289,-0.361199 -6,-1 v 6.53125 C 45.92229,71.754828 47.931518,72 50,72 63.807119,72 75,60.807119 75,47 75,33.192881 63.807119,22 50,22 Z m -0.1875,9.375 c -1.612449,0 -2.9375,1.32505 -2.9375,2.9375 v 12.875 c 0,1.61245 1.325051,2.9375 2.9375,2.9375 0.06678,0.0044 0.119625,0 0.1875,0 h 0.1875 10.75 c 1.73125,0 3.125,-1.39375 3.125,-3.125 0,-1.73125 -1.39375,-3.125 -3.125,-3.125 H 53.125 v -9.5625 c 0,-1.61245 -1.32505,-2.9375 -2.9375,-2.9375 z M 26,55 v 8 h -8 v 8 h 8 v 8 h 8 v -8 h 8 v -8 h -8 v -8 z"
           inkscape:connector-curvature="0"
           id="path3928"
           style="color:#000000;display:inline;overflow:visible;visibility:visible;opacity:0.3;fill:#000000;fill-opacity:1;fill-rule:nonzero;stroke:none;stroke-width:1;marker:none;enable-background:accumulate" />
        <path
           d="m 50,21 c -13.807119,0 -25,11.192881 -25,25 0,2.068482 0.245172,4.07771 0.71875,6 H 32.25 c -0.638801,-1.887711 -1,-3.896572 -1,-6 0,-10.355341 8.394663,-18.75 18.75,-18.75 10.355341,0 18.75,8.394659 18.75,18.75 0,10.355338 -8.394659,18.75 -18.75,18.75 -2.103428,0 -4.112289,-0.361199 -6,-1 v 6.53125 C 45.92229,70.754828 47.931518,71 50,71 63.807119,71 75,59.807119 75,46 75,32.192881 63.807119,21 50,21 Z m -0.1875,9.375 c -1.612449,0 -2.9375,1.32505 -2.9375,2.9375 v 12.875 c 0,1.61245 1.325051,2.9375 2.9375,2.9375 0.06678,0.0044 0.119625,0 0.1875,0 h 0.1875 10.75 c 1.73125,0 3.125,-1.39375 3.125,-3.125 0,-1.73125 -1.39375,-3.125 -3.125,-3.125 H 53.125 v -9.5625 c 0,-1.61245 -1.32505,-2.9375 -2.9375,-2.9375 z M 26,54 v 8 h -8 v 8 h 8 v 8 h 8 v -8 h 8 v -8 h -8 v -8 z"
           inkscape:connector-curvature="0"
           id="path3836"
           style="color:#000000;display:inline;overflow:visible;visibility:visible;opacity:0.86699997;fill:#282b2f;fill-opacity:1;fill-rule:nonzero;stroke:none;stroke-width:1;marker:none;enable-background:accumulate" />
        <path
           d="m 50,21 c -13.807119,0 -25,11.192881 -25,25 0,0.179334 -0.0037,0.352824 0,0.53125 C 25.251753,32.942059 36.350643,22 50,22 63.63884,22 74.731749,32.925367 75,46.5 75.00331,46.332513 75,46.168279 75,46 75,32.192881 63.807119,21 50,21 Z m -0.1875,9.375 c -1.612449,0 -2.9375,1.32505 -2.9375,2.9375 v 1 c 0,-1.61245 1.325051,-2.9375 2.9375,-2.9375 h 0.375 c 1.61245,0 2.9375,1.32505 2.9375,2.9375 v -1 c 0,-1.61245 -1.32505,-2.9375 -2.9375,-2.9375 z m 3.3125,12.5 v 1 h 7.8125 c 1.557696,0 2.820624,1.137738 3.0625,2.625 0.02695,-0.165706 0.0625,-0.326446 0.0625,-0.5 0,-1.73125 -1.39375,-3.125 -3.125,-3.125 z M 68.71875,46.5 C 68.449556,56.620493 60.18547,64.75 50,64.75 c -2.103428,0 -4.112289,-0.361199 -6,-1 v 1 c 1.887711,0.638801 3.896572,1 6,1 10.355341,0 18.75,-8.394662 18.75,-18.75 0,-0.169871 -0.02676,-0.331213 -0.03125,-0.5 z m -37.4375,0.0625 C 31.277807,46.710374 31.25,46.851298 31.25,47 c 0,1.736784 0.242052,3.407126 0.6875,5 H 32.25 C 31.668727,50.282289 31.339831,48.460807 31.28125,46.5625 Z M 26,54 v 1 h 8 v -1 z m -8,8 v 1 h 8 v -1 z m 16,0 v 1 h 8 v -1 z"
           inkscape:connector-curvature="0"
           id="path3910"
           style="color:#000000;display:inline;overflow:visible;visibility:visible;opacity:0.98500001;fill:#ffffff;fill-opacity:1;fill-rule:nonzero;stroke:none;stroke-width:1;marker:none;enable-background:accumulate" />
        <path
           d="m 50,26.25 c -10.355337,0 -18.75,8.394659 -18.75,18.75 0,0.189426 0.02545,0.374627 0.03125,0.5625 C 31.517574,35.41267 39.793365,27.25 50,27.25 60.18547,27.25 68.449556,35.379504 68.71875,45.5 68.72324,45.331213 68.75,45.169871 68.75,45 68.75,34.644659 60.355341,26.25 50,26.25 Z m -3.125,18.9375 v 1 c 0,1.61245 1.325051,2.9375 2.9375,2.9375 0.06678,0.0044 0.119625,0 0.1875,0 h 0.1875 10.75 c 1.73125,0 3.125,-1.39375 3.125,-3.125 0,-0.173554 -0.03555,-0.334294 -0.0625,-0.5 -0.241876,1.487262 -1.504804,2.625 -3.0625,2.625 H 50.1875 50 c -0.06788,0 -0.12072,0.0044 -0.1875,0 -1.612449,0 -2.9375,-1.32505 -2.9375,-2.9375 z M 75,45.5 C 74.731749,59.074633 63.63884,70 50,70 47.931518,70 45.92229,69.754828 44,69.28125 v 1 C 45.92229,70.754828 47.931518,71 50,71 63.807119,71 75,59.807119 75,46 c 0,-0.168279 0.0033,-0.332513 0,-0.5 z m -50,0.03125 c -0.0029,0.157067 0,0.310988 0,0.46875 0,2.068482 0.245172,4.07771 0.71875,6 H 32.25 C 32.138652,51.670957 32.031536,51.336264 31.9375,51 H 25.71875 C 25.286231,49.24437 25.038711,47.410824 25,45.53125 Z M 18,69 v 1 h 8 v -1 z m 16,0 v 1 h 8 v -1 z m -8,8 v 1 h 8 v -1 z"
           inkscape:connector-curvature="0"
           id="path3919"
           style="color:#000000;display:inline;overflow:visible;visibility:visible;opacity:0.47700004;fill:#000000;fill-opacity:1;fill-rule:nonzero;stroke:none;stroke-width:1;marker:none;enable-background:accumulate" />
      </g>
      <rect
         clip-path="url(#clipPath4156-4-1)"
         ry="3.9569881"
         rx="3.9569874"
         y="-30"
         x="2"
         height="69.024437"
         width="75.965775"
         id="rect4146"
         style="opacity:0.5078125;fill:url(#linearGradient4767);fill-opacity:1;stroke:none"
         transform="matrix(1.0692451,0,0,1.0476829,4.4441802,38.894013)" />
    </g>
  </g>
</svg>
