<?xml version="1.0" encoding="UTF-8" standalone="no"?>
<!-- Created with Inkscape (http://www.inkscape.org/) -->

<svg
   xmlns:dc="http://purl.org/dc/elements/1.1/"
   xmlns:cc="http://creativecommons.org/ns#"
   xmlns:rdf="http://www.w3.org/1999/02/22-rdf-syntax-ns#"
   xmlns:svg="http://www.w3.org/2000/svg"
   xmlns="http://www.w3.org/2000/svg"
   xmlns:xlink="http://www.w3.org/1999/xlink"
   xmlns:sodipodi="http://sodipodi.sourceforge.net/DTD/sodipodi-0.dtd"
   xmlns:inkscape="http://www.inkscape.org/namespaces/inkscape"
   width="96"
   height="96"
   viewBox="0 0 96.000001 96.000004"
   version="1.1"
   id="svg1072"
   inkscape:version="0.92.1 r15371"
   sodipodi:docname="add-software.svg">
  <defs
     id="defs1066">
    <filter
       style="color-interpolation-filters:sRGB"
       id="filter18944"
       inkscape:collect="always">
      <feGaussianBlur
         id="feGaussianBlur18946"
         stdDeviation="0.2358929"
         inkscape:collect="always" />
    </filter>
    <filter
       style="color-interpolation-filters:sRGB"
       id="filter18574"
       inkscape:collect="always">
      <feGaussianBlur
         id="feGaussianBlur18576"
         stdDeviation="2.7808487"
         inkscape:collect="always" />
    </filter>
    <filter
       style="color-interpolation-filters:sRGB"
       height="1.0331082"
       y="-0.0165541"
       width="1.3946178"
       x="-0.19730891"
       id="filter18821"
       inkscape:collect="always">
      <feGaussianBlur
         id="feGaussianBlur18823"
         stdDeviation="0.96167774"
         inkscape:collect="always" />
    </filter>
    <linearGradient
       inkscape:collect="always"
       id="linearGradient4672">
      <stop
         style="stop-color:#727e7f;stop-opacity:1"
         offset="0"
         id="stop4668" />
      <stop
         id="stop4680"
         offset="0.4035714"
         style="stop-color:#eaeced;stop-opacity:1" />
      <stop
         id="stop4676"
         offset="0.56774592"
         style="stop-color:#f6f7f8;stop-opacity:1" />
      <stop
         style="stop-color:#e6e9ea;stop-opacity:1"
         offset="0.71367884"
         id="stop4678" />
      <stop
         style="stop-color:#828b8c;stop-opacity:1"
         offset="1"
         id="stop4670" />
    </linearGradient>
    <linearGradient
       inkscape:collect="always"
       xlink:href="#linearGradient4672"
       id="linearGradient6970"
       gradientUnits="userSpaceOnUse"
       x1="9.5135345"
       y1="28.111004"
       x2="16.099648"
       y2="28.111004" />
    <filter
       inkscape:collect="always"
       style="color-interpolation-filters:sRGB"
       id="filter898"
       x="-0.011575642"
       width="1.0231513"
       y="-0.012447235"
       height="1.0248945">
      <feGaussianBlur
         inkscape:collect="always"
         stdDeviation="0.29569863"
         id="feGaussianBlur900" />
    </filter>
    <linearGradient
       inkscape:collect="always"
       xlink:href="#linearGradient4672"
       id="linearGradient908"
       x1="10.226132"
       y1="57.292591"
       x2="13.856565"
       y2="57.292591"
       gradientUnits="userSpaceOnUse" />
    <linearGradient
       inkscape:collect="always"
       xlink:href="#linearGradient4672"
       id="linearGradient910"
       x1="80.782143"
       y1="56.714005"
       x2="84.412575"
       y2="56.714005"
       gradientUnits="userSpaceOnUse" />
    <linearGradient
       inkscape:collect="always"
       xlink:href="#linearGradient4672"
       id="linearGradient912"
       x1="82.519829"
       y1="-10.460073"
       x2="86.150261"
       y2="-10.460073"
       gradientUnits="userSpaceOnUse" />
    <linearGradient
       inkscape:collect="always"
       xlink:href="#linearGradient4672"
       id="linearGradient914"
       x1="9.6024332"
       y1="-10.319467"
       x2="13.232866"
       y2="-10.319467"
       gradientUnits="userSpaceOnUse" />
    <linearGradient
       x1="27"
       y1="48"
       x2="69"
       y2="48"
       id="linearGradient3089-5-9-6-2"
       xlink:href="#linearGradient3669"
       gradientUnits="userSpaceOnUse"
       gradientTransform="rotate(-90,48,48)" />
    <linearGradient
       id="linearGradient3669">
      <stop
         id="stop3671"
         style="stop-color:#ad4405;stop-opacity:1"
         offset="0" />
      <stop
         id="stop3673"
         style="stop-color:#e28416;stop-opacity:1"
         offset="1" />
    </linearGradient>
  </defs>
  <sodipodi:namedview
     id="base"
     pagecolor="#ffffff"
     bordercolor="#666666"
     borderopacity="1.0"
     inkscape:pageopacity="0.0"
     inkscape:pageshadow="2"
     inkscape:zoom="3.9830468"
     inkscape:cx="38.373889"
     inkscape:cy="70.062781"
     inkscape:document-units="px"
     inkscape:current-layer="g5231"
     showgrid="false"
     inkscape:showpageshadow="false"
     units="px"
     inkscape:lockguides="true"
     inkscape:window-width="1280"
     inkscape:window-height="972"
     inkscape:window-x="0"
     inkscape:window-y="26"
     inkscape:window-maximized="1"
     inkscape:snap-global="false">
    <sodipodi:guide
       position="0,0"
       orientation="0,96"
       id="guide1621"
       inkscape:locked="true" />
    <sodipodi:guide
       position="96.000002,96.000002"
       orientation="0,-96"
       id="guide1625"
       inkscape:locked="true" />
    <sodipodi:guide
       position="0,96.000002"
       orientation="96,0"
       id="guide1627"
       inkscape:locked="true" />
  </sodipodi:namedview>
  <metadata
     id="metadata1069">
    <rdf:RDF>
      <cc:Work
         rdf:about="">
        <dc:format>image/svg+xml</dc:format>
        <dc:type
           rdf:resource="http://purl.org/dc/dcmitype/StillImage" />
        <dc:title />
        <dc:date>2017</dc:date>
        <dc:creator>
          <cc:Agent>
            <dc:title>Cristian Pozzessere &quot;ilnanny&quot;</dc:title>
          </cc:Agent>
        </dc:creator>
        <dc:subject>
          <rdf:Bag>
            <rdf:li>Global language</rdf:li>
          </rdf:Bag>
        </dc:subject>
        <dc:description>Playing with Inkscape on Gnu/Linux O. S.</dc:description>
        <dc:contributor>
          <cc:Agent>
            <dc:title>In the night, alone like a dog.</dc:title>
          </cc:Agent>
        </dc:contributor>
        <cc:license
           rdf:resource="http://creativecommons.org/licenses/by-sa/4.0/" />
      </cc:Work>
      <cc:License
         rdf:about="http://creativecommons.org/licenses/by-sa/4.0/">
        <cc:permits
           rdf:resource="http://creativecommons.org/ns#Reproduction" />
        <cc:permits
           rdf:resource="http://creativecommons.org/ns#Distribution" />
        <cc:requires
           rdf:resource="http://creativecommons.org/ns#Notice" />
        <cc:requires
           rdf:resource="http://creativecommons.org/ns#Attribution" />
        <cc:permits
           rdf:resource="http://creativecommons.org/ns#DerivativeWorks" />
        <cc:requires
           rdf:resource="http://creativecommons.org/ns#ShareAlike" />
      </cc:License>
    </rdf:RDF>
  </metadata>
  <g
     inkscape:label="Livello 1"
     inkscape:groupmode="layer"
     id="layer1"
     transform="translate(0,-1026.5197)">
    <g
       transform="matrix(1.1716405,0,0,1.1051188,-8.2078381,1055.4025)"
       id="g5231">
      <path
         style="display:inline;fill:#e9af76;fill-opacity:1;stroke:none;stroke-width:1.18162036"
         d="M 94.533203 9.4980469 C 93.570583 9.4559845 92.130535 10.060547 90.625 10.060547 L 5.1738281 10.060547 C 2.497322 10.060547 0.29632665 8.4695067 0.34179688 11.681641 L 1.4375 89.080078 C 1.4829704 92.292193 2.9875562 95.242188 5.6640625 95.242188 L 90.537109 95.242188 C 93.213614 95.242188 94.410952 92.291951 94.462891 89.080078 L 95.71875 11.359375 C 95.741471 9.9541749 95.281908 9.5307621 94.533203 9.4980469 z M 5.2734375 15.621094 A 1.9788169 1.7019198 0 0 1 7.2519531 17.322266 A 1.9788169 1.7019198 0 0 1 5.2734375 19.025391 A 1.9788169 1.7019198 0 0 1 3.2949219 17.322266 A 1.9788169 1.7019198 0 0 1 5.2734375 15.621094 z M 90.601562 15.621094 A 1.7797487 1.7019198 0 0 1 92.382812 17.322266 A 1.7797487 1.7019198 0 0 1 90.601562 19.025391 A 1.7797487 1.7019198 0 0 1 88.822266 17.322266 A 1.7797487 1.7019198 0 0 1 90.601562 15.621094 z M 88.566406 89.857422 A 1.7797487 1.7019198 0 0 1 90.345703 91.558594 A 1.7797487 1.7019198 0 0 1 88.566406 93.259766 A 1.7797487 1.7019198 0 0 1 86.787109 91.558594 A 1.7797487 1.7019198 0 0 1 88.566406 89.857422 z M 5.9882812 90.357422 A 1.8792828 1.7019198 0 0 1 7.8671875 92.060547 A 1.8792828 1.7019198 0 0 1 5.9882812 93.761719 A 1.8792828 1.7019198 0 0 1 4.109375 92.060547 A 1.8792828 1.7019198 0 0 1 5.9882812 90.357422 z "
         transform="matrix(0.85350413,0,0,0.90488009,7.0054237,-26.135471)"
         id="path18630" />
      <path
         sodipodi:nodetypes="sssssssss"
         inkscape:connector-curvature="0"
         id="path18476"
         d="m 11.42196,-10.82836 h 72.931102 c 2.284317,0 4.391958,-1.605948 4.347636,1.0906174 L 87.628192,55.513435 c -0.04432,2.696545 -1.065874,5.173418 -3.35019,5.173418 H 11.841619 c -2.2843162,0 -3.5690937,-2.476669 -3.6078995,-5.173418 L 7.2986473,-9.4678483 C 7.2598411,-12.164622 9.1376436,-10.82836 11.42196,-10.82836 Z"
         style="display:inline;opacity:0.78859774;fill:none;stroke:#764514;stroke-width:0.95298731;stroke-linecap:round;stroke-linejoin:bevel;stroke-miterlimit:4;stroke-dasharray:none;stroke-opacity:1"
         transform="matrix(0.99999997,0,0,1.0860371,4.2329356e-8,-5.2655764)" />
      <path
         inkscape:connector-curvature="0"
         id="path19000"
         d="m 13.344483,722.33406 1.290956,30.98295 -51.638245,3.87287 v 0"
         style="opacity:0.59762256;fill:none;stroke:#703f00;stroke-width:3;stroke-linecap:butt;stroke-linejoin:round;stroke-miterlimit:4;stroke-dasharray:none;stroke-opacity:1;filter:url(#filter18944)"
         transform="matrix(-0.01762788,0.15068646,-0.26526394,-0.04955663,278.82136,28.797444)" />
      <path
         transform="matrix(0.16387587,0,0,0.21371781,4.0255201,-164.51273)"
         sodipodi:nodetypes="sssssssss"
         inkscape:connector-curvature="0"
         id="path18566"
         d="M 111.90158,747.1372 H 421.4371 c 9.69515,0 17.83602,8.12077 17.50026,18.19442 l -7.65637,229.70467 c -0.33575,10.07361 -4.5238,19.33151 -14.21894,19.33151 H 117.37041 c -9.69514,0 -14.97695,-9.2579 -15.31272,-19.33151 L 94.40134,765.33162 c -0.335763,-10.07365 7.8051,-18.19442 17.50024,-18.19442 z"
         style="display:inline;fill:none;stroke:#ffffff;stroke-width:3.81170034;stroke-linecap:round;stroke-linejoin:round;stroke-miterlimit:4;stroke-dasharray:none;stroke-opacity:1;filter:url(#filter18574)" />
      <path
         style="opacity:0.8523985;fill:none;stroke:#703f00;stroke-width:3;stroke-linecap:butt;stroke-linejoin:round;stroke-miterlimit:4;stroke-dasharray:none;stroke-opacity:1;filter:url(#filter18944)"
         d="m 13.344483,722.33406 1.290956,30.98295 -51.638245,3.87287 v 0"
         id="path18994"
         inkscape:connector-curvature="0"
         transform="matrix(0.01753745,-0.12927403,0.24665209,0.04624393,-169.05494,19.755304)" />
      <path
         style="display:inline;opacity:0.76999996;fill:none;stroke:#603600;stroke-width:1.26493227;stroke-linecap:round;stroke-linejoin:round;stroke-miterlimit:4;stroke-dasharray:none;stroke-opacity:1;filter:url(#filter898)"
         d="m 20.143035,-1.8294527 h 55.076459 c 1.725083,0 3.173609,1.73260079 3.113868,3.8818594 L 76.971044,51.060908 c -0.05974,2.149263 -0.804932,4.124447 -2.530013,4.124447 H 21.116118 c -1.725083,0 -2.664889,-1.975184 -2.724633,-4.124447 L 17.029171,2.0524067 c -0.05974,-2.14925861 1.388782,-3.8818594 3.113864,-3.8818594 z"
         id="path18568"
         inkscape:connector-curvature="0"
         sodipodi:nodetypes="sssssssss"
         transform="matrix(0.99444005,0,0,1.0860371,0.4355375,-5.2655764)" />
      <path
         inkscape:connector-curvature="0"
         d="M 18.960533,50.382865 76.6128,50.652624 M 18.736205,40.401761 76.837127,40.941279 M 18.287549,30.150897 h 58.998235 v 0 m -59.446891,-12.139182 59.446891,0.26976 v 0 M 17.838893,7.7608514 77.73444,8.0306117"
         style="display:inline;fill:none;stroke:#000000;stroke-width:0.57166266;stroke-linecap:butt;stroke-linejoin:round;stroke-miterlimit:4;stroke-dasharray:none;stroke-opacity:1"
         id="path18608"
         transform="matrix(0.99999997,0,0,1.0860371,4.2329356e-8,-5.2655764)" />
      <path
         style="opacity:0.65556048;fill:none;stroke:#703f00;stroke-width:3;stroke-linecap:butt;stroke-linejoin:round;stroke-miterlimit:4;stroke-dasharray:none;stroke-opacity:1;filter:url(#filter18944)"
         d="m 13.344483,722.33406 1.290956,30.98295 -51.638245,3.87287 v 0"
         id="path18938"
         inkscape:connector-curvature="0"
         transform="matrix(0.17376879,0,0,0.24285803,14.808818,-191.01822)" />
      <path
         inkscape:connector-curvature="0"
         id="path18956"
         d="m 13.344483,722.33406 1.290956,30.98295 -51.638245,3.87287 v 0"
         style="opacity:0.8523985;fill:none;stroke:#703f00;stroke-width:3;stroke-linecap:butt;stroke-linejoin:round;stroke-miterlimit:4;stroke-dasharray:none;stroke-opacity:1;filter:url(#filter18944)"
         transform="matrix(-0.17350623,-0.01247067,0.00954886,-0.22659657,72.709495,223.83804)" />
      <ellipse
         cy="56.714005"
         cx="82.597359"
         inkscape:transform-center-y="-69.711632"
         id="path18738"
         style="fill:url(#linearGradient910);stroke:#4f2f01;stroke-width:0.59238732;stroke-linejoin:round;stroke-miterlimit:4;stroke-dasharray:none;stroke-opacity:1;fill-opacity:1.0"
         rx="1.5190228"
         ry="1.5400333" />
      <ellipse
         cy="-10.460073"
         cx="84.335045"
         style="fill:url(#linearGradient912);stroke:#4f2f01;stroke-width:0.59238732;stroke-linejoin:round;stroke-miterlimit:4;stroke-dasharray:none;stroke-opacity:1;fill-opacity:1.0"
         id="path18744"
         rx="1.5190228"
         ry="1.5400333" />
      <path
         transform="matrix(0.02387412,0.13875129,-0.2051369,0.01079218,185.77357,-51.102568)"
         inkscape:connector-curvature="0"
         id="path18807"
         d="m 232.71444,641.50971 c -0.86063,1.72127 -1.72127,3.44255 -2.58191,5.16382 0,0.43032 0.13608,0.88272 0,1.29096 -0.30428,0.91284 -0.98667,1.66907 -1.29095,2.58191 -0.13608,0.40824 0.19244,0.90607 0,1.29096 -0.27216,0.54431 -1.0188,0.74664 -1.29096,1.29095 -0.19244,0.38489 0,0.86064 0,1.29096 0,0.43032 0,0.86064 0,1.29095 0,1.72128 0.28298,3.46597 0,5.16383 -0.15819,0.94913 -1.10225,1.63838 -1.29096,2.58191 0,9.84824 0.57734,-1.01838 -1.29095,6.45478 -0.20874,0.83494 0,1.72128 0,2.58191 0,2.58192 0,5.16383 0,7.74574 0,2.58191 0,5.16383 0,7.74574 0,0.86064 0,1.72127 0,2.58191 0,0.43032 -0.10437,0.87349 0,1.29096 0.33004,1.32015 0.96091,2.55271 1.29095,3.87286 0.10437,0.41747 -0.19244,0.90607 0,1.29096 0.27216,0.54432 1.09852,0.71362 1.29096,1.29096 0.27216,0.81647 0,1.72127 0,2.58191 0,0.43032 -0.19244,0.90607 0,1.29096 0.54431,1.08862 2.0376,1.49328 2.58191,2.58191 0.19202,0.38402 0,7.20268 0,7.74573 0,0.43032 -0.19244,0.90607 0,1.29096 0.27216,0.54432 1.0188,0.74664 1.29096,1.29096 0.38489,0.76977 -0.27216,1.76544 0,2.58191 0.30428,0.91284 1.10225,1.63837 1.29095,2.58191 0.42197,2.10981 -0.42196,4.34497 0,6.45478 0.26688,1.33436 1.02409,2.53851 1.29096,3.87287 0.16879,0.84392 0,1.72127 0,2.58191 0,2.58191 0,5.16383 0,7.74574 0,0.67507 0.16972,4.82438 0,5.16382 -0.54431,1.08863 -2.0376,1.49329 -2.58191,2.58192 -0.19245,0.38488 0.19244,0.90606 0,1.29095 -0.34474,0.68948 -3.19323,3.19323 -3.87287,3.87287 -0.43032,0.43032 -0.86064,0.86064 -1.29096,1.29096 -0.43031,0.43031 -1.01879,0.74664 -1.29095,1.29095 -0.14467,0.28934 0,4.85706 0,5.16383 0,2.58191 0,5.16382 0,7.74573 0,1.29096 0.25317,2.60699 0,3.87287 -0.18871,0.94354 -0.9336,1.68851 -1.29096,2.58191 -1.42703,3.56759 -1.29095,2.73772 -1.29095,5.16383"
         style="fill:none;stroke:#fdc995;stroke-width:1px;stroke-linecap:butt;stroke-linejoin:miter;stroke-opacity:1;filter:url(#filter18821)" />
      <path
         transform="matrix(0.02387412,0.13875129,-0.2051369,0.01079218,185.3058,-52.094432)"
         style="fill:#653a10;stroke:#130900;stroke-width:1px;stroke-linecap:butt;stroke-linejoin:miter;stroke-opacity:1;filter:url(#filter18821);fill-opacity:0.23287672"
         d="m 236.71444,641.50971 c -0.86063,1.72127 -1.72127,3.44255 -2.58191,5.16382 0,0.43032 0.13608,0.88272 0,1.29096 -0.30428,0.91284 -0.98667,1.66907 -1.29095,2.58191 -0.13608,0.40824 0.19244,0.90607 0,1.29096 -0.27216,0.54431 -1.0188,0.74664 -1.29096,1.29095 -0.19244,0.38489 0,0.86064 0,1.29096 0,0.43032 0,0.86064 0,1.29095 0,1.72128 0.28298,3.46597 0,5.16383 -0.15819,0.94913 -1.10225,1.63838 -1.29096,2.58191 0,9.84824 0.57734,-1.01838 -1.29095,6.45478 -0.20874,0.83494 0,1.72128 0,2.58191 0,2.58192 0,5.16383 0,7.74574 0,2.58191 0,5.16383 0,7.74574 0,0.86064 0,1.72127 0,2.58191 0,0.43032 -0.10437,0.87349 0,1.29096 0.33004,1.32015 0.96091,2.55271 1.29095,3.87286 0.10437,0.41747 -0.19244,0.90607 0,1.29096 0.27216,0.54432 1.09852,0.71362 1.29096,1.29096 0.27216,0.81647 0,1.72127 0,2.58191 0,0.43032 -0.19244,0.90607 0,1.29096 0.54431,1.08862 2.0376,1.49328 2.58191,2.58191 0.19202,0.38402 0,7.20268 0,7.74573 0,0.43032 -0.19244,0.90607 0,1.29096 0.27216,0.54432 1.0188,0.74664 1.29096,1.29096 0.38489,0.76977 -0.27216,1.76544 0,2.58191 0.30428,0.91284 1.10225,1.63837 1.29095,2.58191 0.42197,2.10981 -0.42196,4.34497 0,6.45478 0.26688,1.33436 1.02409,2.53851 1.29096,3.87287 0.16879,0.84392 0,1.72127 0,2.58191 0,2.58191 0,5.16383 0,7.74574 0,0.67507 0.16972,4.82438 0,5.16382 -0.54431,1.08863 -2.0376,1.49329 -2.58191,2.58192 -0.19245,0.38488 0.19244,0.90606 0,1.29095 -0.34474,0.68948 -3.19323,3.19323 -3.87287,3.87287 -0.43032,0.43032 -0.86064,0.86064 -1.29096,1.29096 -0.43031,0.43031 -1.01879,0.74664 -1.29095,1.29095 -0.14467,0.28934 0,4.85706 0,5.16383 0,2.58191 0,5.16382 0,7.74573 0,1.29096 0.25317,2.60699 0,3.87287 -0.18871,0.94354 -0.9336,1.68851 -1.29096,2.58191 -1.42703,3.56759 -1.29095,2.73772 -1.29095,5.16383"
         id="path18825"
         inkscape:connector-curvature="0" />
      <path
         style="display:inline;fill:#c37120;fill-opacity:0.57254902;stroke:#7e5a28;stroke-width:0.49758387;stroke-miterlimit:4;stroke-dasharray:none;stroke-opacity:1"
         d="m 18.215225,-25.953743 h 59.2927 c 1.00562,0 4.06315,0.10731 4.32876,0.408509 l 6.51899,7.392289 c 0.26562,0.301197 -0.85675,0.567913 -1.86237,0.567913 H 9.368132 c -1.005625,0 -2.054992,-0.264138 -1.768038,-0.567913 l 6.982741,-7.392289 c 0.28695,-0.303782 2.62676,-0.408509 3.63239,-0.408509 z"
         id="rect17952"
         inkscape:connector-curvature="0"
         sodipodi:nodetypes="sssssssss" />
      <path
         sodipodi:nodetypes="csssscc"
         inkscape:connector-curvature="0"
         id="path4736"
         d="m 201.64722,739.67525 h 226.12949 c 10.12749,0 18.63139,8.60007 18.28066,19.26829 l -7.99779,243.26226 c -0.35072,10.6682 -4.72554,20.4724 -14.85301,20.4724 H 254.29105 C 243.58946,964.1348 214.63353,825.85433 201.64722,739.67525 Z"
         style="display:inline;fill:#ffffff;fill-opacity:0.2539683;stroke:none;stroke-width:4.00908136;stroke-linecap:round;stroke-linejoin:round;stroke-miterlimit:4;stroke-dasharray:none;stroke-opacity:1"
         transform="matrix(0.16659727,0,0,0.21529218,3.5670236,-165.86186)" />
      <g
         style="display:inline"
         transform="matrix(0.55055617,0.58369643,-0.55055616,0.58369643,48.246032,-30.880971)"
         id="layer4-7">
        <g
           id="g873">
          <path
             style="display:inline;fill:#054aad;fill-opacity:1;stroke:none"
             id="path2929"
             inkscape:connector-curvature="0"
             d="M 26.999999,59.666667 36.333333,69 48,57.333333 59.666667,69 69,59.666667 57.333333,48 69,36.333333 59.666667,27 48,38.666667 36.333333,27 26.999999,36.333333 38.666667,48 Z" />
          <path
             style="display:inline;opacity:1;fill:#ffffff;fill-opacity:1;stroke:none"
             id="path3877"
             inkscape:connector-curvature="0"
             d="m 27.5,36.84375 -0.5,0.5 11.15625,11.15625 0.5,-0.5 z m 41,0 L 57.34375,48 l 0.5,0.5 L 69,37.34375 Z M 48,57.34375 36.34375,69 27.5,60.15625 27,60.65625 36.34375,70 48,58.34375 59.65625,70 69,60.65625 68.5,60.15625 59.65625,69 Z" />
          <path
             style="display:inline;opacity:1;fill:#000000;fill-opacity:1;stroke:none"
             id="path3886"
             inkscape:connector-curvature="0"
             d="M 36.34375,27 27,36.34375 l 0.5,0.5 L 36.34375,28 48,39.65625 59.65625,28 68.5,36.84375 69,36.34375 59.65625,27 48,38.65625 Z M 38.15625,48.5 27,59.65625 l 0.5,0.5 L 38.65625,49 Z m 19.6875,0 -0.5,0.5 11.15625,11.15625 0.5,-0.5 z" />
        </g>
      </g>
      <path
         style="display:inline;fill:#ffffff;fill-opacity:0.2539683;stroke:none;stroke-width:4.00908136;stroke-linecap:round;stroke-linejoin:round;stroke-miterlimit:4;stroke-dasharray:none;stroke-opacity:1"
         d="m 201.64722,739.67525 h 226.12949 c 10.12749,0 18.63139,8.60007 18.28066,19.26829 l -7.99779,243.26226 c -0.35072,10.6682 -4.72554,20.4724 -14.85301,20.4724 H 254.29105 C 243.58946,964.1348 214.63353,825.85433 201.64722,739.67525 Z"
         id="path4894"
         inkscape:connector-curvature="0"
         sodipodi:nodetypes="csssscc"
         transform="matrix(0.16659727,0,0,0.21529218,3.5670236,-165.86186)" />
      <g
         transform="translate(-0.00443495,0.40177359)"
         id="g4925">
        <g
           id="g4923">
          <g
             id="g4909"
             style="stroke:#076c96;stroke-opacity:1;stroke-width:0.17576335;stroke-miterlimit:4;stroke-dasharray:none">
            <g
               id="g4907"
               style="stroke:#076c96;stroke-opacity:1;stroke-width:0.17576335;stroke-miterlimit:4;stroke-dasharray:none">
              <g
                 id="g894">
                <g
                   id="g900" />
              </g>
            </g>
          </g>
          <g
             id="g4921" />
        </g>
      </g>
      <ellipse
         ry="1.5400333"
         rx="1.5190228"
         style="fill:url(#linearGradient908);stroke:#4f2f01;stroke-width:0.59238732;stroke-linejoin:round;stroke-miterlimit:4;stroke-dasharray:none;stroke-opacity:1;fill-opacity:1.0"
         id="ellipse969"
         inkscape:transform-center-y="-69.711632"
         cx="12.041348"
         cy="57.292591" />
      <ellipse
         cy="-10.319467"
         cx="11.417649"
         inkscape:transform-center-y="-69.711632"
         id="ellipse971"
         style="fill:url(#linearGradient914);stroke:#4f2f01;stroke-width:0.59238732;stroke-linejoin:round;stroke-miterlimit:4;stroke-dasharray:none;stroke-opacity:1;fill-opacity:1.0"
         rx="1.5190228"
         ry="1.5400333" />
      <path
         inkscape:connector-curvature="0"
         id="path876"
         d="m 236.71444,641.50971 c -0.86063,1.72127 -1.72127,3.44255 -2.58191,5.16382 0,0.43032 0.13608,0.88272 0,1.29096 -0.30428,0.91284 -0.98667,1.66907 -1.29095,2.58191 -0.13608,0.40824 0.19244,0.90607 0,1.29096 -0.27216,0.54431 -1.0188,0.74664 -1.29096,1.29095 -0.19244,0.38489 0,0.86064 0,1.29096 0,0.43032 0,0.86064 0,1.29095 0,1.72128 0.28298,3.46597 0,5.16383 -0.15819,0.94913 -1.10225,1.63838 -1.29096,2.58191 0,9.84824 0.57734,-1.01838 -1.29095,6.45478 -0.20874,0.83494 0,1.72128 0,2.58191 0,2.58192 0,5.16383 0,7.74574 0,2.58191 0,5.16383 0,7.74574 0,0.86064 0,1.72127 0,2.58191 0,0.43032 -0.10437,0.87349 0,1.29096 0.33004,1.32015 0.96091,2.55271 1.29095,3.87286 0.10437,0.41747 -0.19244,0.90607 0,1.29096 0.27216,0.54432 1.09852,0.71362 1.29096,1.29096 0.27216,0.81647 0,1.72127 0,2.58191 0,0.43032 -0.19244,0.90607 0,1.29096 0.54431,1.08862 2.0376,1.49328 2.58191,2.58191 0.19202,0.38402 0,7.20268 0,7.74573 0,0.43032 -0.19244,0.90607 0,1.29096 0.27216,0.54432 1.0188,0.74664 1.29096,1.29096 0.38489,0.76977 -0.27216,1.76544 0,2.58191 0.30428,0.91284 1.10225,1.63837 1.29095,2.58191 0.42197,2.10981 -0.42196,4.34497 0,6.45478 0.26688,1.33436 1.02409,2.53851 1.29096,3.87287 0.16879,0.84392 0,1.72127 0,2.58191 0,2.58191 0,5.16383 0,7.74574 0,0.67507 0.16972,4.82438 0,5.16382 -0.54431,1.08863 -2.0376,1.49329 -2.58191,2.58192 -0.19245,0.38488 0.19244,0.90606 0,1.29095 -0.34474,0.68948 -3.19323,3.19323 -3.87287,3.87287 -0.43032,0.43032 -0.86064,0.86064 -1.29096,1.29096 -0.43031,0.43031 -1.01879,0.74664 -1.29095,1.29095 -0.14467,0.28934 0,4.85706 0,5.16383 0,2.58191 0,5.16382 0,7.74573 0,1.29096 0.25317,2.60699 0,3.87287 -0.18871,0.94354 -0.9336,1.68851 -1.29096,2.58191 -1.42703,3.56759 -1.29095,2.73772 -1.29095,5.16383"
         style="fill:#653a10;fill-opacity:0.23287671;stroke:#130900;stroke-width:1px;stroke-linecap:butt;stroke-linejoin:miter;stroke-opacity:1;filter:url(#filter18821)"
         transform="matrix(-0.13087347,0.0253112,-0.01017944,-0.21748494,49.855209,172.42018)" />
      <path
         transform="matrix(-0.13087347,0.0253112,-0.01017944,-0.21748494,121.03539,182.95582)"
         style="fill:#653a10;fill-opacity:0.23287671;stroke:#130900;stroke-width:1px;stroke-linecap:butt;stroke-linejoin:miter;stroke-opacity:1;filter:url(#filter18821)"
         d="m 236.71444,641.50971 c -0.86063,1.72127 -1.72127,3.44255 -2.58191,5.16382 0,0.43032 0.13608,0.88272 0,1.29096 -0.30428,0.91284 -0.98667,1.66907 -1.29095,2.58191 -0.13608,0.40824 0.19244,0.90607 0,1.29096 -0.27216,0.54431 -1.0188,0.74664 -1.29096,1.29095 -0.19244,0.38489 0,0.86064 0,1.29096 0,0.43032 0,0.86064 0,1.29095 0,1.72128 0.28298,3.46597 0,5.16383 -0.15819,0.94913 -1.10225,1.63838 -1.29096,2.58191 0,9.84824 0.57734,-1.01838 -1.29095,6.45478 -0.20874,0.83494 0,1.72128 0,2.58191 0,2.58192 0,5.16383 0,7.74574 0,2.58191 0,5.16383 0,7.74574 0,0.86064 0,1.72127 0,2.58191 0,0.43032 -0.10437,0.87349 0,1.29096 0.33004,1.32015 0.96091,2.55271 1.29095,3.87286 0.10437,0.41747 -0.19244,0.90607 0,1.29096 0.27216,0.54432 1.09852,0.71362 1.29096,1.29096 0.27216,0.81647 0,1.72127 0,2.58191 0,0.43032 -0.19244,0.90607 0,1.29096 0.54431,1.08862 2.0376,1.49328 2.58191,2.58191 0.19202,0.38402 0,7.20268 0,7.74573 0,0.43032 -0.19244,0.90607 0,1.29096 0.27216,0.54432 1.0188,0.74664 1.29096,1.29096 0.38489,0.76977 -0.27216,1.76544 0,2.58191 0.30428,0.91284 1.10225,1.63837 1.29095,2.58191 0.42197,2.10981 -0.42196,4.34497 0,6.45478 0.26688,1.33436 1.02409,2.53851 1.29096,3.87287 0.16879,0.84392 0,1.72127 0,2.58191 0,2.58191 0,5.16383 0,7.74574 0,0.67507 0.16972,4.82438 0,5.16382 -0.54431,1.08863 -2.0376,1.49329 -2.58191,2.58192 -0.19245,0.38488 0.19244,0.90606 0,1.29095 -0.34474,0.68948 -3.19323,3.19323 -3.87287,3.87287 -0.43032,0.43032 -0.86064,0.86064 -1.29096,1.29096 -0.43031,0.43031 -1.01879,0.74664 -1.29095,1.29095 -0.14467,0.28934 0,4.85706 0,5.16383 0,2.58191 0,5.16382 0,7.74573 0,1.29096 0.25317,2.60699 0,3.87287 -0.18871,0.94354 -0.9336,1.68851 -1.29096,2.58191 -1.42703,3.56759 -1.29095,2.73772 -1.29095,5.16383"
         id="path878"
         inkscape:connector-curvature="0" />
    </g>
  </g>
</svg>
