<?xml version="1.0" encoding="UTF-8" standalone="no"?>
<!-- Created with Inkscape (http://www.inkscape.org/) -->

<svg
   xmlns:dc="http://purl.org/dc/elements/1.1/"
   xmlns:cc="http://creativecommons.org/ns#"
   xmlns:rdf="http://www.w3.org/1999/02/22-rdf-syntax-ns#"
   xmlns:svg="http://www.w3.org/2000/svg"
   xmlns="http://www.w3.org/2000/svg"
   xmlns:xlink="http://www.w3.org/1999/xlink"
   xmlns:sodipodi="http://sodipodi.sourceforge.net/DTD/sodipodi-0.dtd"
   xmlns:inkscape="http://www.inkscape.org/namespaces/inkscape"
   width="96"
   height="96"
   viewBox="0 0 96.000001 96.000004"
   version="1.1"
   id="svg1072"
   inkscape:version="0.92.2 5c3e80d, 2017-08-06"
   sodipodi:docname="blueman-serial.svg">
  <defs
     id="defs1066">
    <linearGradient
       id="linearGradient1247"
       inkscape:collect="always">
      <stop
         id="stop1243"
         offset="0"
         style="stop-color:#d3dbde;stop-opacity:1" />
      <stop
         id="stop1245"
         offset="1"
         style="stop-color:#91a4ac;stop-opacity:1" />
    </linearGradient>
    <linearGradient
       inkscape:collect="always"
       id="linearGradient1237">
      <stop
         style="stop-color:#cfd7db;stop-opacity:1"
         offset="0"
         id="stop1233" />
      <stop
         style="stop-color:#8298a0;stop-opacity:0.98260868"
         offset="1"
         id="stop1235" />
    </linearGradient>
    <linearGradient
       id="linearGradient1231">
      <stop
         style="stop-color:#b2babc;stop-opacity:1"
         offset="0"
         id="stop1221" />
      <stop
         id="stop1223"
         offset="0.25"
         style="stop-color:#ffffff;stop-opacity:1;" />
      <stop
         id="stop1225"
         offset="0.5"
         style="stop-color:#96a1a4;stop-opacity:1" />
      <stop
         style="stop-color:#dce1e5;stop-opacity:1"
         offset="0.75"
         id="stop1227" />
      <stop
         style="stop-color:#b2b9bc;stop-opacity:1"
         offset="1"
         id="stop1229" />
    </linearGradient>
    <linearGradient
       id="linearGradient1219">
      <stop
         style="stop-color:#b2babc;stop-opacity:1"
         offset="0"
         id="stop1209" />
      <stop
         id="stop1211"
         offset="0.25"
         style="stop-color:#ffffff;stop-opacity:1;" />
      <stop
         id="stop1213"
         offset="0.5"
         style="stop-color:#96a1a4;stop-opacity:1" />
      <stop
         style="stop-color:#cbd5dd;stop-opacity:1"
         offset="0.75"
         id="stop1215" />
      <stop
         style="stop-color:#b2b9bc;stop-opacity:1"
         offset="1"
         id="stop1217" />
    </linearGradient>
    <linearGradient
       id="linearGradient6139-0">
      <stop
         style="stop-color:#bab4b4;stop-opacity:1"
         offset="0"
         id="stop6141-2" />
      <stop
         id="stop6151-0"
         offset="0.25"
         style="stop-color:#ffffff;stop-opacity:1;" />
      <stop
         id="stop6147-1"
         offset="0.5"
         style="stop-color:#a29898;stop-opacity:1" />
      <stop
         style="stop-color:#f9fafb;stop-opacity:1;"
         offset="0.75"
         id="stop6149-4" />
      <stop
         style="stop-color:#bab4b4;stop-opacity:1"
         offset="1"
         id="stop6143-4" />
    </linearGradient>
    <linearGradient
       id="linearGradient3832-0-6-1-1">
      <stop
         id="stop3834-6-3-7-1"
         offset="0"
         style="stop-color:#000000;stop-opacity:1;" />
      <stop
         style="stop-color:#000000;stop-opacity:0.58823532;"
         offset="0.1"
         id="stop3872-2-4" />
      <stop
         id="stop3844-6-2-7-6"
         offset="0.89999998"
         style="stop-color:#000000;stop-opacity:0.58823532;" />
      <stop
         id="stop3836-5-0-2-9"
         offset="1"
         style="stop-color:#000000;stop-opacity:1;" />
    </linearGradient>
    <linearGradient
       id="linearGradient3737">
      <stop
         id="stop3739"
         style="stop-color:#ffffff;stop-opacity:1"
         offset="0" />
      <stop
         id="stop3741"
         style="stop-color:#ffffff;stop-opacity:0"
         offset="1" />
    </linearGradient>
    <clipPath
       clipPathUnits="userSpaceOnUse"
       id="clipPath4156-4-1">
      <path
         style="opacity:0.6;fill:#ffffff;fill-opacity:1;stroke:none"
         d="m 27.046336,-55.695463 -14.21366,13.321486 h 0.06127 l 15.653407,21.770763 10.231384,-10.546177 C 38.561832,-32.30156 27.468089,-54.819245 27.046336,-55.695463 Z M 9.6468554,-39.382809 -5.2407289,-25.32124 15.987863,-7.8059573 26.372412,-18.382966 Z m 31.4906096,12.951445 -9.741259,9.713584 8.944804,12.4580526 7.780753,-7.5550056 z m -49.8397109,4.378822 -13.7541661,12.9822847 26.2830181,13.84571 0.06127,-0.0617 -0.122531,-0.0617 L 13.598503,-5.4007374 -8.7022409,-22.052595 Z m 38.0154159,7.400825 -9.802525,9.7752596 11.579232,9.5594001 7.62759,-7.40083 -8.669108,-11.0087257 z m 20.187073,5.6739697 -7.382526,7.2158 6.187844,8.54179 5.820249,-6.13651996 z m -32.195166,6.32154 -9.5574606,9.49772 13.6622686,7.1849703 7.933918,-7.6783603 z m 23.311629,2.37443004 -7.10683,6.93826996 8.362778,6.9074403 5.360756,-5.6739699 -0.06127,-0.0925 -0.0919,0.12335 -6.463539,-8.20258036 z m -8.730374,8.54178036 -7.505057,7.3391599 10.353916,5.45811 c 1.397496,-1.32103 5.67514,-6.12292 5.850882,-6.32154 z"
         id="path4158-0-8"
         inkscape:connector-curvature="0" />
    </clipPath>
    <linearGradient
       inkscape:collect="always"
       xlink:href="#linearGradient6139-0-5"
       id="linearGradient4071-7"
       gradientUnits="userSpaceOnUse"
       gradientTransform="matrix(1.1071428,0,0,1.1071426,-4.9939026,-3.620687)"
       x1="6"
       y1="47.000011"
       x2="90"
       y2="47.000011" />
    <linearGradient
       id="linearGradient6139-0-5">
      <stop
         id="stop6141-2-3"
         offset="0"
         style="stop-color:#b2babc;stop-opacity:1" />
      <stop
         style="stop-color:#ffffff;stop-opacity:1;"
         offset="0.25"
         id="stop6151-0-5" />
      <stop
         style="stop-color:#96a1a4;stop-opacity:1"
         offset="0.5"
         id="stop6147-1-6" />
      <stop
         id="stop6149-4-2"
         offset="0.75"
         style="stop-color:#fbf9f9;stop-opacity:1;" />
      <stop
         id="stop6143-4-9"
         offset="1"
         style="stop-color:#b2b9bc;stop-opacity:1" />
    </linearGradient>
    <radialGradient
       inkscape:collect="always"
       xlink:href="#linearGradient3737"
       id="radialGradient7462-9"
       gradientUnits="userSpaceOnUse"
       gradientTransform="matrix(0.97513378,0,0,0.04919072,34.047649,80.581722)"
       cx="13.948145"
       cy="44.892841"
       fx="13.948145"
       fy="44.892841"
       r="43.199203" />
    <radialGradient
       inkscape:collect="always"
       xlink:href="#linearGradient3737"
       id="radialGradient7464-0"
       gradientUnits="userSpaceOnUse"
       gradientTransform="matrix(0.88832663,0,0,0.04919072,31.959518,-90.31726)"
       cx="13.948145"
       cy="44.892841"
       fx="13.948145"
       fy="44.892841"
       r="43.199203" />
    <clipPath
       id="clipPath4156-4-1-6"
       clipPathUnits="userSpaceOnUse">
      <path
         inkscape:connector-curvature="0"
         id="path4158-0-8-2"
         d="m 27.046336,-55.695463 -14.21366,13.321486 h 0.06127 l 15.653407,21.770763 10.231384,-10.546177 C 38.561832,-32.30156 27.468089,-54.819245 27.046336,-55.695463 Z M 9.6468554,-39.382809 -5.2407289,-25.32124 15.987863,-7.8059573 26.372412,-18.382966 Z m 31.4906096,12.951445 -9.741259,9.713584 8.944804,12.4580526 7.780753,-7.5550056 z m -49.8397109,4.378822 -13.7541661,12.9822847 26.2830181,13.84571 0.06127,-0.0617 -0.122531,-0.0617 L 13.598503,-5.4007374 -8.7022409,-22.052595 Z m 38.0154159,7.400825 -9.802525,9.7752596 11.579232,9.5594001 7.62759,-7.40083 -8.669108,-11.0087257 z m 20.187073,5.6739697 -7.382526,7.2158 6.187844,8.54179 5.820249,-6.13651996 z m -32.195166,6.32154 -9.5574606,9.49772 13.6622686,7.1849703 7.933918,-7.6783603 z m 23.311629,2.37443004 -7.10683,6.93826996 8.362778,6.9074403 5.360756,-5.6739699 -0.06127,-0.0925 -0.0919,0.12335 -6.463539,-8.20258036 z m -8.730374,8.54178036 -7.505057,7.3391599 10.353916,5.45811 c 1.397496,-1.32103 5.67514,-6.12292 5.850882,-6.32154 z"
         style="opacity:0.6;fill:#ffffff;fill-opacity:1;stroke:none" />
    </clipPath>
    <linearGradient
       id="ButtonShadow-16"
       gradientTransform="scale(1.0058652,0.994169)"
       x1="45.447727"
       y1="92.539597"
       x2="45.447727"
       y2="7.0165396"
       gradientUnits="userSpaceOnUse">
      <stop
         style="stop-color:#000000;stop-opacity:1;"
         offset="0"
         id="stop3750-6" />
      <stop
         style="stop-color:#000000;stop-opacity:0.58823532;"
         offset="1"
         id="stop3752-4" />
    </linearGradient>
    <clipPath
       clipPathUnits="userSpaceOnUse"
       id="clipPath4355-7">
      <rect
         style="fill:#ffffff;fill-opacity:1;fill-rule:nonzero;stroke:none"
         id="rect4357-5"
         width="84"
         height="80"
         x="6"
         y="6"
         rx="6"
         ry="6" />
    </clipPath>
    <clipPath
       clipPathUnits="userSpaceOnUse"
       id="clipPath4355-9">
      <rect
         style="fill:#ffffff;fill-opacity:1;fill-rule:nonzero;stroke:none"
         id="rect4357-1"
         width="84"
         height="80"
         x="6"
         y="6"
         rx="6"
         ry="6" />
    </clipPath>
    <clipPath
       clipPathUnits="userSpaceOnUse"
       id="clipPath4355-1">
      <rect
         style="fill:#ffffff;fill-opacity:1;fill-rule:nonzero;stroke:none"
         id="rect4357-9"
         width="84"
         height="80"
         x="6"
         y="6"
         rx="6"
         ry="6" />
    </clipPath>
    <clipPath
       clipPathUnits="userSpaceOnUse"
       id="clipPath3943-52-0">
      <path
         id="path3945-4-1"
         d="m 69.78125,20.84375 -5,3.4375 c 5.586891,5.537137 9,13.327613 9,21.8125 0,8.434478 -3.37723,16.095981 -8.90625,21.625 l 5,3.4375 C 76.078226,64.5762 80,55.843726 80,46.09375 c 2e-6,-9.796556 -3.962955,-18.660417 -10.21875,-25.25 z M 40,24.0625 28.90625,36.21875 H 21.5 c -0.823281,0 -1.5,0.676717 -1.5,1.5 v 1 14.84375 1 c 0,0.823281 0.684121,1.610161 1.5,1.5 h 7.40625 L 40,68 V 66 26.0625 Z m 20.59375,3.28125 -5,3.4375 L 55.5,30.875 c 3.93815,3.890071 6.40625,9.25018 6.40625,15.21875 0,5.920869 -2.42961,11.148358 -6.3125,15.03125 l 0.09375,0.09375 5.09375,3.4375 c 4.475428,-4.908367 7.25,-11.402005 7.25,-18.5625 0,-7.230696 -2.87904,-13.83107 -7.4375,-18.75 z m -9.25,6.5 -5.21875,3.625 c 2.222384,2.217802 3.71875,5.239596 3.71875,8.625 0,3.336509 -1.458847,6.227712 -3.625,8.4375 l 5.21875,3.625 c 2.822412,-3.236947 4.53125,-7.43414 4.53125,-12.0625 0,-4.672601 -1.754155,-9.001351 -4.625,-12.25 z"
         style="color:#000000;display:inline;overflow:visible;visibility:visible;opacity:0.8;fill:#ff00ff;fill-opacity:1;fill-rule:nonzero;stroke:none;stroke-width:1;marker:none;enable-background:accumulate"
         inkscape:connector-curvature="0" />
    </clipPath>
    <linearGradient
       inkscape:collect="always"
       xlink:href="#linearGradient3832-0-6-1-1"
       id="linearGradient953"
       gradientUnits="userSpaceOnUse"
       gradientTransform="translate(0.1489535,0.415026)"
       x1="1.5"
       y1="88.171875"
       x2="94.5"
       y2="88.171875" />
    <linearGradient
       inkscape:collect="always"
       xlink:href="#linearGradient3737"
       id="linearGradient955"
       gradientUnits="userSpaceOnUse"
       x1="2.7713892"
       y1="-28.64156"
       x2="50.527882"
       y2="14.514202" />
    <linearGradient
       inkscape:collect="always"
       xlink:href="#linearGradient6139-0"
       id="linearGradient1166"
       gradientUnits="userSpaceOnUse"
       x1="506.15518"
       y1="1012.6934"
       x2="530.33569"
       y2="1012.6934" />
    <linearGradient
       inkscape:collect="always"
       xlink:href="#linearGradient6139-0"
       id="linearGradient1172"
       gradientUnits="userSpaceOnUse"
       x1="506.15518"
       y1="1012.6934"
       x2="530.33569"
       y2="1012.6934" />
    <radialGradient
       inkscape:collect="always"
       xlink:href="#linearGradient1247"
       id="radialGradient1239"
       cx="77.557616"
       cy="23.943511"
       fx="77.557616"
       fy="23.943511"
       r="8.9852778"
       gradientTransform="matrix(1,0,0,0.88147392,0,2.8379306)"
       gradientUnits="userSpaceOnUse" />
    <radialGradient
       inkscape:collect="always"
       xlink:href="#linearGradient1237"
       id="radialGradient1241"
       cx="19.721101"
       cy="23.943511"
       fx="19.721101"
       fy="23.943511"
       r="8.9852778"
       gradientTransform="matrix(1,0,0,0.88147392,0,2.8379306)"
       gradientUnits="userSpaceOnUse" />
  </defs>
  <sodipodi:namedview
     id="base"
     pagecolor="#ffffff"
     bordercolor="#666666"
     borderopacity="1.0"
     inkscape:pageopacity="0.0"
     inkscape:pageshadow="2"
     inkscape:zoom="2.6884789"
     inkscape:cx="48"
     inkscape:cy="48"
     inkscape:document-units="px"
     inkscape:current-layer="g2574"
     showgrid="false"
     inkscape:showpageshadow="false"
     units="px"
     inkscape:lockguides="false"
     inkscape:window-width="1280"
     inkscape:window-height="941"
     inkscape:window-x="0"
     inkscape:window-y="21"
     inkscape:window-maximized="1"
     inkscape:snap-global="false" />
  <metadata
     id="metadata1069">
    <rdf:RDF>
      <cc:Work
         rdf:about="">
        <dc:format>image/svg+xml</dc:format>
        <dc:type
           rdf:resource="http://purl.org/dc/dcmitype/StillImage" />
        <dc:title />
        <dc:date>2017</dc:date>
        <dc:creator>
          <cc:Agent>
            <dc:title>Cristian Pozzessere &quot;ilnanny&quot;</dc:title>
          </cc:Agent>
        </dc:creator>
        <dc:subject>
          <rdf:Bag>
            <rdf:li>Global language</rdf:li>
          </rdf:Bag>
        </dc:subject>
        <dc:description>Playing with Inkscape on Gnu/Linux O. S.</dc:description>
        <dc:contributor>
          <cc:Agent>
            <dc:title>In the night, alone like a dog.</dc:title>
          </cc:Agent>
        </dc:contributor>
        <cc:license
           rdf:resource="http://creativecommons.org/licenses/by-sa/4.0/" />
      </cc:Work>
      <cc:License
         rdf:about="http://creativecommons.org/licenses/by-sa/4.0/">
        <cc:permits
           rdf:resource="http://creativecommons.org/ns#Reproduction" />
        <cc:permits
           rdf:resource="http://creativecommons.org/ns#Distribution" />
        <cc:requires
           rdf:resource="http://creativecommons.org/ns#Notice" />
        <cc:requires
           rdf:resource="http://creativecommons.org/ns#Attribution" />
        <cc:permits
           rdf:resource="http://creativecommons.org/ns#DerivativeWorks" />
        <cc:requires
           rdf:resource="http://creativecommons.org/ns#ShareAlike" />
      </cc:License>
    </rdf:RDF>
  </metadata>
  <g
     inkscape:label="Livello 1"
     inkscape:groupmode="layer"
     id="layer1"
     transform="translate(0,-1026.5197)">
    <g
       transform="translate(-0.14895645,1026.1047)"
       style="display:inline"
       id="g2574">
      <path
         style="display:inline;opacity:0.15;fill:#000000;fill-opacity:1;fill-rule:nonzero;stroke:none"
         d="M 89.29181,0.415026 H 7.0060911 c -3.798848,0 -6.8571352,3.058285 -6.8571352,6.8571399 V 89.557884 c 0,3.798857 3.0582872,6.857142 6.8571352,6.857142 H 89.29181 c 3.798857,0 6.857147,-3.058285 6.857147,-6.857142 V 7.2721659 c 0,-3.7988549 -3.05829,-6.8571399 -6.857147,-6.8571399 z"
         id="path3288-9"
         inkscape:connector-curvature="0" />
      <path
         inkscape:connector-curvature="0"
         id="path4085-2"
         d="M 88.648954,1.165026 H 7.6489471 c -3.739492,0 -6.749993,3.010499 -6.749993,6.7499969 V 88.915026 c 0,3.739501 3.010501,6.75 6.749993,6.75 H 88.648954 c 3.739503,0 6.750003,-3.010499 6.750003,-6.75 V 7.9150229 c 0,-3.7394979 -3.0105,-6.7499969 -6.750003,-6.7499969 z"
         style="display:inline;opacity:0.15;fill:#000000;fill-opacity:1;fill-rule:nonzero;stroke:none" />
      <path
         style="display:inline;fill:url(#linearGradient4071-7);fill-opacity:1;fill-rule:nonzero;stroke:none"
         d="M 88.006093,1.915026 H 8.2918111 c -3.680143,0 -6.6428566,2.962713 -6.6428566,6.6428549 V 88.272171 c 0,3.680142 2.9627136,6.642856 6.6428566,6.642856 H 88.006093 c 3.680143,0 6.642854,-2.962714 6.642854,-6.642856 V 8.5578809 c 0,-3.6801419 -2.962711,-6.6428549 -6.642854,-6.6428549 z"
         id="rect4251-1-0"
         inkscape:connector-curvature="0" />
      <path
         style="display:inline;opacity:0.9;fill:#e8e8e8;fill-opacity:1;fill-rule:nonzero;stroke:none;stroke-width:1.02950251"
         d="m 11.390247,6.8021682 c -2.8564964,0 -5.1241284,2.2883782 -5.1241284,5.1710028 v 21.42734 7.239403 39.913674 c 1.0972399,1.684484 2.9688485,2.811732 5.1241284,2.811732 h 4.099303 65.588849 4.099302 c 2.155281,0 4.026889,-1.127248 5.124129,-2.811732 V 40.639914 33.400511 11.973171 c 0,-2.8826246 -2.267632,-5.1710028 -5.124129,-5.1710028 z"
         id="path3400-6-2"
         inkscape:connector-curvature="0"
         sodipodi:nodetypes="sscccsccscccsss" />
      <path
         inkscape:connector-curvature="0"
         id="path4989-3"
         d="m 9.9740341,5.1444869 c -3.116621,0 -5.667965,2.53951 -5.667965,5.6460041 v 69.277996 c 0,3.106495 2.551344,5.646004 5.667965,5.646004 H 86.765819 c 3.116621,0 5.667968,-2.539509 5.667968,-5.646004 V 10.790491 c 0,-3.1064931 -2.551347,-5.6460041 -5.667968,-5.6460041 z m 0,2.319439 H 86.765819 c 1.888099,0 3.352022,1.480095 3.352022,3.3265651 v 69.277996 c 0,1.846474 -1.463923,3.326564 -3.352022,3.326564 H 9.9740341 c -1.888099,0 -3.352022,-1.48009 -3.352022,-3.326564 V 10.790491 c 0,-1.8464701 1.463923,-3.3265651 3.352022,-3.3265651 z"
         style="color:#000000;font-style:normal;font-variant:normal;font-weight:normal;font-stretch:normal;font-size:medium;line-height:normal;font-family:Sans;-inkscape-font-specification:Sans;text-indent:0;text-align:start;text-decoration:none;text-decoration-line:none;letter-spacing:normal;word-spacing:normal;text-transform:none;writing-mode:lr-tb;direction:ltr;baseline-shift:baseline;text-anchor:start;display:inline;overflow:visible;visibility:visible;fill:#1f2224;fill-opacity:0.63265303;stroke:none;stroke-width:2.3755002;marker:none;enable-background:accumulate" />
      <path
         inkscape:connector-curvature="0"
         style="display:inline;opacity:0.65818182;fill:url(#linearGradient953);fill-opacity:1;fill-rule:nonzero;stroke:none"
         d="m 1.6489535,82.258776 v 6 c 0,3.680142 2.9761066,6.65625 6.6562496,6.65625 H 87.992703 c 3.680143,0 6.656254,-2.976108 6.656254,-6.65625 v -6 c 0,3.680142 -2.976111,6.65625 -6.656254,6.65625 H 8.3052031 c -3.680143,0 -6.6562496,-2.976108 -6.6562496,-6.65625 z"
         id="path4118-7" />
      <rect
         style="opacity:0.55;fill:url(#radialGradient7462-9);fill-opacity:1;stroke:none"
         id="rect4131-5"
         width="84.250008"
         height="4.25"
         x="5.5239539"
         y="80.665031"
         rx="4.25"
         ry="4.25" />
      <rect
         ry="4.25"
         rx="4.25"
         y="-90.233963"
         x="5.9750223"
         height="4.25"
         width="76.75"
         id="rect4141-9"
         style="opacity:0.669;fill:url(#radialGradient7464-0);fill-opacity:1;stroke:none"
         transform="rotate(90)" />
      <path
         inkscape:connector-curvature="0"
         id="path947"
         d="m 20.806,34.133904 c -2.671435,0 -5.101993,1.257976 -6.841753,3.11067 -1.739761,1.85269 -2.846618,4.358122 -2.610978,6.937918 l 1.986208,21.782276 v -0.0152 a 1.1234916,1.2965581 0 0 0 0.0077,0.153193 c 0.698638,6.786673 4.306803,11.503964 8.729774,11.698873 a 1.1234916,1.2965581 0 0 0 0.04279,0.0013 h 0.09105 0.04498 a 1.1234916,1.2965581 0 0 0 0.0011,0 l 51.332617,-0.05317 c 2.96293,-0.0029 4.966047,-1.052103 6.417195,-2.749216 1.499658,-1.752061 2.655657,-4.607497 3.036087,-8.866102 a 1.1234916,1.2965581 0 0 0 0.0055,-0.129134 v 0.0095 l 1.898446,-21.786075 a 1.1234916,1.2965581 0 0 0 0.0055,-0.129134 v -0.05318 l -0.0055,0.129769 C 85.1734,41.575724 84.072393,39.063959 82.332961,37.218013 80.593526,35.372064 78.164429,34.13393 75.493401,34.13393 H 21.485622 l 0.315403,0.695057 A 1.1234916,1.2965581 0 0 0 20.806,34.13393 Z m 0,2.592857 h 54.687398 c 2.062429,0 3.983006,0.981931 5.319047,2.399786 1.336043,1.417855 2.035891,3.213561 1.898446,4.790073 a 1.1234916,1.2965581 0 0 0 -0.0055,0.129769 v -0.01202 l -1.897895,21.785443 a 1.1234916,1.2965581 0 0 0 -0.0033,0.07216 c -0.345639,3.828295 -1.353417,6.068838 -2.395958,7.286713 a 1.1234916,1.2965581 0 0 0 -5.61e-4,6.48e-4 c -1.105498,1.292876 -2.26357,1.975157 -4.81989,1.977562 l -51.332617,0.05317 h -0.04443 -0.05156 c -3.069589,-0.137982 -5.960277,-3.491431 -6.576265,-9.382016 a 1.1234916,1.2965581 0 0 0 -0.0033,-0.0671 L 13.58742,43.910945 a 1.1234916,1.2965581 0 0 0 0,-6.48e-4 c -0.139723,-1.529695 0.559151,-3.332343 1.90009,-4.760323 1.340938,-1.427981 3.266183,-2.423207 5.318498,-2.423207 z"
         style="color:#000000;font-style:normal;font-variant:normal;font-weight:normal;font-stretch:normal;font-size:medium;line-height:normal;font-family:sans-serif;font-variant-ligatures:normal;font-variant-position:normal;font-variant-caps:normal;font-variant-numeric:normal;font-variant-alternates:normal;font-feature-settings:normal;text-indent:0;text-align:start;text-decoration:none;text-decoration-line:none;text-decoration-style:solid;text-decoration-color:#000000;letter-spacing:normal;word-spacing:normal;text-transform:none;writing-mode:lr-tb;direction:ltr;text-orientation:mixed;dominant-baseline:auto;baseline-shift:baseline;text-anchor:start;white-space:normal;shape-padding:0;clip-rule:nonzero;display:inline;overflow:visible;visibility:visible;opacity:1;isolation:auto;mix-blend-mode:normal;color-interpolation:sRGB;color-interpolation-filters:linearRGB;solid-color:#000000;solid-opacity:1;vector-effect:none;fill:#000000;fill-opacity:0.33333333;fill-rule:nonzero;stroke:none;stroke-width:2.72792745;stroke-linecap:round;stroke-linejoin:round;stroke-miterlimit:4;stroke-dasharray:none;stroke-dashoffset:0;stroke-opacity:1;color-rendering:auto;image-rendering:auto;shape-rendering:auto;text-rendering:auto;enable-background:accumulate" />
      <path
         inkscape:connector-curvature="0"
         id="path11525"
         style="fill:#ffffff;fill-opacity:1;fill-rule:nonzero;stroke:none;stroke-width:0.90814507"
         d="m 20.806326,35.43123 c -4.724869,0 -8.7115,4.508385 -8.336772,8.616255 l 1.992569,21.850514 v 0.05265 c 0.654464,6.349547 3.908093,10.390952 7.658368,10.555819 -0.0075,0 0.05385,0 0.0905,0 0.01795,0 0.01345,0 0.04488,0 l 51.332541,-0.05266 c 2.759227,-0.0016 4.33967,-0.867495 5.617932,-2.36252 1.273031,-1.486394 2.356078,-4.036226 2.718839,-8.08799 v -0.05265 l 1.903561,-21.850514 c 0,-0.01899 0,-0.03712 0,-0.05265 0.365003,-4.176062 -3.602927,-8.616255 -8.335275,-8.616255 H 20.806326" />
      <path
         d="m 20.805801,35.430358 c -4.723754,0 -8.710959,4.506599 -8.335595,8.61609 l 1.992484,21.850371 v 0.05274 c 0.653711,6.350244 3.907355,10.39139 7.657257,10.556639 -0.0067,0 0.05445,0 0.09104,0 0.01795,0 0.01345,0 0.0448,0 l 51.332954,-0.05274 c 2.759623,-0.0026 4.340184,-0.868617 5.618508,-2.363609 1.272348,-1.486333 2.355904,-4.036819 2.717834,-8.088343 v -0.05188 l 1.903681,-21.850368 c 0,-0.01899 0,-0.03721 0,-0.05274 0.364166,-4.176976 -3.602143,-8.616093 -8.335597,-8.616093 H 20.805832 Z"
         style="fill:#0084c8;fill-opacity:1;stroke:#000000;stroke-width:0.56364816;stroke-linecap:round;stroke-linejoin:round;stroke-miterlimit:4;stroke-dasharray:none;stroke-opacity:1"
         id="path11529"
         inkscape:connector-curvature="0" />
      <g
         id="g964"
         transform="matrix(0.28084482,0,0,0.32410711,-44.27026,-229.78959)"
         style="stroke-width:1.13022614">
        <path
           d="m 253.48158,846.51722 c 0,6.20988 -5.53227,11.24568 -12.36345,11.24568 -6.82482,0 -12.35707,-5.0358 -12.35707,-11.24568 0,-6.2185 5.53225,-11.25431 12.35707,-11.25431 6.83118,0 12.36345,5.03581 12.36345,11.25431 z m 43.85161,0 c 0,6.20988 -5.53227,11.24568 -12.35074,11.24568 -6.82482,0 -12.3539,-5.0358 -12.3539,-11.24568 0,-6.2185 5.52908,-11.25431 12.3539,-11.25431 6.81847,0 12.35074,5.03581 12.35074,11.25431 z m 43.86432,0 c 0,6.20988 -5.53226,11.24568 -12.35708,11.24568 -6.83118,0 -12.36026,-5.0358 -12.36026,-11.24568 0,-6.2185 5.52908,-11.25431 12.36026,-11.25431 6.82482,0 12.35708,5.03581 12.35708,11.25431 z m 44.05486,0 c 0,6.20988 -5.52908,11.24568 -12.36026,11.24568 -6.82799,0 -12.35708,-5.0358 -12.35708,-11.24568 0,-6.2185 5.52909,-11.25431 12.35708,-11.25431 6.83118,0 12.36026,5.03581 12.36026,11.25431 z m 43.85797,0 c 0,6.20988 -5.53543,11.24568 -12.36025,11.24568 -6.81847,0 -12.35074,-5.0358 -12.35074,-11.24568 0,-6.2185 5.53227,-11.25431 12.35074,-11.25431 6.82482,0 12.36025,5.03581 12.36025,11.25431 z m -175.62876,70.3258 c 0,6.21274 -5.53227,11.24855 -12.36345,11.24855 -6.82482,0 -12.35707,-5.03581 -12.35707,-11.24855 0,-6.207 5.53225,-11.25144 12.35707,-11.25144 6.83118,0 12.36345,5.04444 12.36345,11.25144 z m 43.85161,0 c 0,6.21274 -5.53227,11.24855 -12.35074,11.24855 -6.82482,0 -12.3539,-5.03581 -12.3539,-11.24855 0,-6.207 5.52908,-11.25144 12.3539,-11.25144 6.81847,0 12.35074,5.04444 12.35074,11.25144 z m 43.86432,0 c 0,6.21274 -5.53226,11.24855 -12.35708,11.24855 -6.83118,0 -12.36026,-5.03581 -12.36026,-11.24855 0,-6.207 5.52908,-11.25144 12.36026,-11.25144 6.82482,0 12.35708,5.04444 12.35708,11.25144 z m 44.05486,0 c 0,6.21274 -5.52908,11.24855 -12.36026,11.24855 -6.82799,0 -12.35708,-5.03581 -12.35708,-11.24855 0,-6.207 5.52909,-11.25144 12.35708,-11.25144 6.83118,0 12.36026,5.04444 12.36026,11.25144 z m 43.85797,0 c 0,6.21274 -5.53543,11.24855 -12.36025,11.24855 -6.81847,0 -12.35074,-5.03581 -12.35074,-11.24855 0,-6.207 5.53227,-11.25144 12.35074,-11.25144 6.82482,0 12.36025,5.04444 12.36025,11.25144 z M 275.64875,881.31035 c 0,6.20411 -5.52909,11.24855 -12.35391,11.24855 -6.82801,0 -12.36344,-5.04444 -12.36344,-11.24855 0,-6.21276 5.53543,-11.25144 12.36344,-11.25144 6.82482,0 12.35391,5.03868 12.35391,11.25144 z m 43.86432,0 c 0,6.20411 -5.5418,11.24855 -12.36027,11.24855 -6.82482,0 -12.35709,-5.04444 -12.35709,-11.24855 0,-6.21276 5.53227,-11.25144 12.35709,-11.25144 6.81847,0 12.36027,5.03868 12.36027,11.25144 z m 43.85795,0 c 0,6.20411 -5.52908,11.24855 -12.36025,11.24855 -6.828,0 -12.36026,-5.04444 -12.36026,-11.24855 0,-6.21276 5.53226,-11.25144 12.36026,-11.25144 6.83117,0 12.36025,5.03868 12.36025,11.25144 z m 44.05488,0 c 0,6.20411 -5.52909,11.24855 -12.36027,11.24855 -6.82482,0 -12.35708,-5.04444 -12.35708,-11.24855 0,-6.21276 5.53226,-11.25144 12.35708,-11.25144 6.83118,0 12.36027,5.03868 12.36027,11.25144 z"
           style="fill:#000000;fill-opacity:1;fill-rule:nonzero;stroke:none;stroke-width:3.41671205"
           id="path11531"
           inkscape:connector-curvature="0"
           sodipodi:nodetypes="ssssssssssssssssssssssssssssssssssssssssssssssssssssssssssssssssssssss" />
        <path
           style="opacity:0.48200001;fill:#ffffff;fill-opacity:1;fill-rule:nonzero;stroke:none;stroke-width:3.41671205"
           d="m 236.94393,835.26391 c -6.82482,0 -12.35544,5.03584 -12.35544,11.25435 0,6.20987 5.53062,11.2438 12.35544,11.2438 0.8167,0 1.6149,-0.0757 2.38723,-0.21314 -5.68349,-1.01149 -9.97284,-5.56316 -9.97284,-11.03066 0,-5.47511 4.28935,-10.0296 9.97284,-11.04121 -0.77233,-0.13737 -1.57053,-0.21314 -2.38723,-0.21314 z m 43.8647,0 c -6.82483,0 -12.35312,5.03584 -12.35312,11.25435 0,6.20987 5.52829,11.2438 12.35312,11.2438 0.81589,0 1.6131,-0.0755 2.38491,-0.21314 -5.6818,-1.01229 -9.9682,-5.56387 -9.9682,-11.03066 0,-5.47439 4.2864,-10.0288 9.9682,-11.04121 -0.77181,-0.13761 -1.56902,-0.21314 -2.38491,-0.21314 z m 43.85768,0 c -6.83117,0 -12.36008,5.03584 -12.36008,11.25435 0,6.20987 5.52892,11.2438 12.36008,11.2438 0.8159,0 1.61323,-0.0759 2.38493,-0.21314 -5.68725,-1.01149 -9.97519,-5.56316 -9.97519,-11.03066 0,-5.47511 4.28794,-10.0296 9.97519,-11.04121 -0.7717,-0.13735 -1.56903,-0.21314 -2.38493,-0.21314 z m 44.05335,0 c -6.82799,0 -12.35776,5.03584 -12.35776,11.25435 0,6.20987 5.52977,11.2438 12.35776,11.2438 0.81665,0 1.61271,-0.0759 2.38492,-0.21314 -5.68508,-1.01149 -9.97285,-5.56316 -9.97285,-11.03066 0,-5.47511 4.28777,-10.0296 9.97285,-11.04121 -0.77221,-0.13735 -1.56827,-0.21314 -2.38492,-0.21314 z m 43.85771,0 c -6.81847,0 -12.35078,5.03584 -12.35078,11.25435 0,6.20987 5.53231,11.2438 12.35078,11.2438 0.81666,0 1.61244,-0.0755 2.38491,-0.21314 -5.67804,-1.01229 -9.96585,-5.56387 -9.96585,-11.03066 0,-5.47439 4.28781,-10.0288 9.96585,-11.04121 -0.77247,-0.13761 -1.56825,-0.21314 -2.38491,-0.21314 z m -153.45655,34.795 c -6.828,0 -12.36242,5.03948 -12.36242,11.25224 0,6.20411 5.53442,11.24802 12.36242,11.24802 0.81588,0 1.6133,-0.0777 2.38492,-0.21525 -5.68618,-1.01308 -9.97751,-5.57039 -9.97751,-11.03277 0,-5.46999 4.29132,-10.02698 9.97751,-11.03909 -0.77161,-0.13742 -1.56905,-0.21315 -2.38492,-0.21315 z m 43.8577,0 c -6.82482,0 -12.35542,5.03948 -12.35542,11.25224 0,6.20411 5.53061,11.24802 12.35542,11.24802 0.81592,0 1.61288,-0.0775 2.38491,-0.21525 -5.68238,-1.01382 -9.97051,-5.57105 -9.97051,-11.03277 0,-5.46933 4.28812,-10.02624 9.97051,-11.03909 -0.77202,-0.13768 -1.56901,-0.21315 -2.38491,-0.21315 z m 43.85771,0 c -6.828,0 -12.36008,5.03948 -12.36008,11.25224 0,6.20411 5.53208,11.24802 12.36008,11.24802 0.81672,0 1.61498,-0.0777 2.38724,-0.21525 -5.68566,-1.01302 -9.9775,-5.57033 -9.9775,-11.03277 0,-5.47005 4.29183,-10.02704 9.9775,-11.03909 -0.77225,-0.13744 -1.57055,-0.21315 -2.38724,-0.21315 z m 44.05566,0 c -6.82482,0 -12.35776,5.03948 -12.35776,11.25224 0,6.20411 5.53294,11.24802 12.35776,11.24802 0.81744,0 1.61435,-0.0775 2.38726,-0.21525 -5.68351,-1.01302 -9.97519,-5.57033 -9.97519,-11.03277 0,-5.47005 4.29166,-10.02704 9.97519,-11.03909 -0.7729,-0.13768 -1.56983,-0.21315 -2.38726,-0.21315 z m -153.94796,35.53362 c -6.82482,0 -12.35544,5.04313 -12.35544,11.25013 0,6.21275 5.53062,11.24801 12.35544,11.24801 0.8167,0 1.6149,-0.0757 2.38723,-0.21313 -5.68349,-1.01153 -9.97284,-5.56485 -9.97284,-11.03488 0,-5.46498 4.28935,-10.02393 9.97284,-11.037 -0.77233,-0.13756 -1.57053,-0.21313 -2.38723,-0.21313 z m 43.8647,0 c -6.82483,0 -12.35312,5.04313 -12.35312,11.25013 0,6.21275 5.52829,11.24801 12.35312,11.24801 0.81589,0 1.6131,-0.0755 2.38491,-0.21313 -5.6818,-1.01233 -9.9682,-5.56556 -9.9682,-11.03488 0,-5.46426 4.2864,-10.02313 9.9682,-11.037 -0.77181,-0.1378 -1.56902,-0.21313 -2.38491,-0.21313 z m 43.85768,0 c -6.83117,0 -12.36008,5.04313 -12.36008,11.25013 0,6.21275 5.52892,11.24801 12.36008,11.24801 0.8159,0 1.61323,-0.0759 2.38493,-0.21313 -5.68725,-1.01153 -9.97519,-5.56485 -9.97519,-11.03488 0,-5.46498 4.28794,-10.02393 9.97519,-11.037 -0.7717,-0.13754 -1.56903,-0.21313 -2.38493,-0.21313 z m 44.05335,0 c -6.82799,0 -12.35776,5.04313 -12.35776,11.25013 0,6.21275 5.52977,11.24801 12.35776,11.24801 0.81665,0 1.61271,-0.0759 2.38492,-0.21313 -5.68508,-1.01153 -9.97285,-5.56485 -9.97285,-11.03488 0,-5.46498 4.28777,-10.02393 9.97285,-11.037 -0.77221,-0.13754 -1.56827,-0.21313 -2.38492,-0.21313 z m 43.85771,0 c -6.81847,0 -12.35078,5.04313 -12.35078,11.25013 0,6.21275 5.53231,11.24801 12.35078,11.24801 0.81666,0 1.61244,-0.0755 2.38491,-0.21313 -5.67804,-1.01233 -9.96585,-5.56556 -9.96585,-11.03488 0,-5.46426 4.28781,-10.02313 9.96585,-11.037 -0.77247,-0.1378 -1.56825,-0.21313 -2.38491,-0.21313 z"
           id="path934"
           inkscape:connector-curvature="0"
           sodipodi:nodetypes="ssscscsssscscsssscscsssscscsssscscsssscscsssscscsssscscsssscscsssscscsssscscsssscscsssscscsssscscs" />
        <path
           inkscape:connector-curvature="0"
           id="path951"
           d="m 421.20679,835.26391 c 6.82482,0 12.35542,5.03584 12.35542,11.25435 0,6.20987 -5.5306,11.2438 -12.35542,11.2438 -0.81672,0 -1.61492,-0.0757 -2.38725,-0.21314 5.6835,-1.01149 9.97285,-5.56316 9.97285,-11.03066 0,-5.47511 -4.28935,-10.0296 -9.97285,-11.04121 0.77233,-0.13737 1.57053,-0.21314 2.38725,-0.21314 z m -43.8647,0 c 6.82482,0 12.3531,5.03584 12.3531,11.25435 0,6.20987 -5.52828,11.2438 -12.3531,11.2438 -0.81591,0 -1.61311,-0.0755 -2.38491,-0.21314 5.68178,-1.01229 9.96818,-5.56387 9.96818,-11.03066 0,-5.47439 -4.2864,-10.0288 -9.96818,-11.04121 0.7718,-0.13761 1.569,-0.21314 2.38491,-0.21314 z m -43.8577,0 c 6.83117,0 12.36008,5.03584 12.36008,11.25435 0,6.20987 -5.52892,11.2438 -12.36008,11.2438 -0.8159,0 -1.61323,-0.0759 -2.38491,-0.21314 5.68724,-1.01149 9.97517,-5.56316 9.97517,-11.03066 0,-5.47511 -4.28793,-10.0296 -9.97517,-11.04121 0.77168,-0.13735 1.56901,-0.21314 2.38491,-0.21314 z m -44.05334,0 c 6.82799,0 12.35776,5.03584 12.35776,11.25435 0,6.20987 -5.52977,11.2438 -12.35776,11.2438 -0.81664,0 -1.61272,-0.0759 -2.38491,-0.21314 5.68507,-1.01149 9.97285,-5.56316 9.97285,-11.03066 0,-5.47511 -4.28778,-10.0296 -9.97285,-11.04121 0.77219,-0.13735 1.56827,-0.21314 2.38491,-0.21314 z m -43.85771,0 c 6.81846,0 12.35077,5.03584 12.35077,11.25435 0,6.20987 -5.53231,11.2438 -12.35077,11.2438 -0.81667,0 -1.61244,-0.0755 -2.38491,-0.21314 5.67805,-1.01229 9.96586,-5.56387 9.96586,-11.03066 0,-5.47439 -4.28781,-10.0288 -9.96586,-11.04121 0.77247,-0.13761 1.56824,-0.21314 2.38491,-0.21314 z m 153.45654,34.795 c 6.82801,0 12.36243,5.03948 12.36243,11.25224 0,6.20411 -5.53442,11.24802 -12.36243,11.24802 -0.81588,0 -1.61329,-0.0777 -2.38491,-0.21525 5.68617,-1.01308 9.97751,-5.57039 9.97751,-11.03277 0,-5.46999 -4.29133,-10.02698 -9.97751,-11.03909 0.7716,-0.13742 1.56905,-0.21315 2.38491,-0.21315 z m -43.8577,0 c 6.82483,0 12.35543,5.03948 12.35543,11.25224 0,6.20411 -5.53062,11.24802 -12.35543,11.24802 -0.8159,0 -1.61287,-0.0775 -2.38491,-0.21525 5.68238,-1.01382 9.97051,-5.57105 9.97051,-11.03277 0,-5.46933 -4.28812,-10.02624 -9.97051,-11.03909 0.77203,-0.13768 1.56902,-0.21315 2.38491,-0.21315 z m -43.8577,0 c 6.82799,0 12.36009,5.03948 12.36009,11.25224 0,6.20411 -5.5321,11.24802 -12.36009,11.24802 -0.81671,0 -1.61498,-0.0777 -2.38725,-0.21525 5.68566,-1.01302 9.97751,-5.57033 9.97751,-11.03277 0,-5.47005 -4.29184,-10.02704 -9.97751,-11.03909 0.77225,-0.13744 1.57055,-0.21315 2.38725,-0.21315 z m -44.05567,0 c 6.82482,0 12.35776,5.03948 12.35776,11.25224 0,6.20411 -5.53294,11.24802 -12.35776,11.24802 -0.81744,0 -1.61434,-0.0775 -2.38724,-0.21525 5.68349,-1.01302 9.97518,-5.57033 9.97518,-11.03277 0,-5.47005 -4.29167,-10.02704 -9.97518,-11.03909 0.77288,-0.13768 1.56981,-0.21315 2.38724,-0.21315 z m 153.94798,35.53362 c 6.82482,0 12.35542,5.04313 12.35542,11.25013 0,6.21275 -5.5306,11.24801 -12.35542,11.24801 -0.81672,0 -1.61492,-0.0757 -2.38725,-0.21313 5.6835,-1.01153 9.97285,-5.56485 9.97285,-11.03488 0,-5.46498 -4.28935,-10.02393 -9.97285,-11.037 0.77233,-0.13756 1.57053,-0.21313 2.38725,-0.21313 z m -43.8647,0 c 6.82482,0 12.3531,5.04313 12.3531,11.25013 0,6.21275 -5.52828,11.24801 -12.3531,11.24801 -0.81591,0 -1.61311,-0.0755 -2.38491,-0.21313 5.68178,-1.01233 9.96818,-5.56556 9.96818,-11.03488 0,-5.46426 -4.2864,-10.02313 -9.96818,-11.037 0.7718,-0.1378 1.569,-0.21313 2.38491,-0.21313 z m -43.8577,0 c 6.83117,0 12.36008,5.04313 12.36008,11.25013 0,6.21275 -5.52892,11.24801 -12.36008,11.24801 -0.8159,0 -1.61323,-0.0759 -2.38491,-0.21313 5.68724,-1.01153 9.97517,-5.56485 9.97517,-11.03488 0,-5.46498 -4.28793,-10.02393 -9.97517,-11.037 0.77168,-0.13754 1.56901,-0.21313 2.38491,-0.21313 z m -44.05334,0 c 6.82799,0 12.35776,5.04313 12.35776,11.25013 0,6.21275 -5.52977,11.24801 -12.35776,11.24801 -0.81664,0 -1.61272,-0.0759 -2.38491,-0.21313 5.68507,-1.01153 9.97285,-5.56485 9.97285,-11.03488 0,-5.46498 -4.28778,-10.02393 -9.97285,-11.037 0.77219,-0.13754 1.56827,-0.21313 2.38491,-0.21313 z m -43.85771,0 c 6.81846,0 12.35077,5.04313 12.35077,11.25013 0,6.21275 -5.53231,11.24801 -12.35077,11.24801 -0.81667,0 -1.61244,-0.0755 -2.38491,-0.21313 5.67805,-1.01233 9.96586,-5.56556 9.96586,-11.03488 0,-5.46426 -4.28781,-10.02313 -9.96586,-11.037 0.77247,-0.1378 1.56824,-0.21313 2.38491,-0.21313 z"
           style="opacity:0.48200001;fill:#ffffff;fill-opacity:1;fill-rule:nonzero;stroke:none;stroke-width:3.41671205"
           sodipodi:nodetypes="ssscscsssscscsssscscsssscscsssscscsssscscsssscscsssscscsssscscsssscscsssscscsssscscsssscscsssscscs" />
      </g>
      <path
         d="m 82.250866,23.942619 c 0,2.613616 -2.102069,4.733136 -4.69355,4.733136 -2.590891,0 -4.691174,-2.11952 -4.691174,-4.733136 0,-2.613689 2.100283,-4.731924 4.691174,-4.731924 2.591481,0 4.69355,2.118235 4.69355,4.731924 z m -0.485872,7.34918 h -8.412988 l -4.207677,-7.34918 4.207677,-7.347396 h 8.412988 l 4.205908,7.347396 z"
         style="fill:url(#radialGradient1239);fill-opacity:1;stroke:#1f2228;stroke-width:1.144;stroke-linecap:round;stroke-linejoin:round;stroke-miterlimit:4;stroke-dasharray:none;stroke-opacity:0.55144036"
         id="path11523"
         inkscape:connector-curvature="0" />
      <g
         style="fill:url(#linearGradient1166);fill-opacity:1;stroke-width:1.13022614"
         transform="matrix(0.58742912,0,0,0.6779187,-231.90408,-643.57872)"
         id="g959" />
      <path
         inkscape:connector-curvature="0"
         id="path1023"
         style="fill:url(#radialGradient1241);fill-opacity:1;stroke:#1f2228;stroke-width:1.144;stroke-linecap:round;stroke-linejoin:round;stroke-miterlimit:4;stroke-dasharray:none;stroke-opacity:0.55144036"
         d="m 24.414352,23.942619 c 0,2.613616 -2.102069,4.733136 -4.69355,4.733136 -2.590891,0 -4.691175,-2.11952 -4.691175,-4.733136 0,-2.613689 2.100284,-4.731924 4.691175,-4.731924 2.591481,0 4.69355,2.118235 4.69355,4.731924 z m -0.485872,7.34918 h -8.412988 l -4.207678,-7.34918 4.207678,-7.347396 h 8.412988 l 4.205907,7.347396 z" />
      <g
         id="g1025"
         transform="matrix(0.58742912,0,0,0.6779187,-279.68213,-643.57872)"
         style="fill:url(#linearGradient1172);fill-opacity:1;stroke-width:1.13022614" />
      <rect
         transform="matrix(1.0692451,0,0,1.0476829,4.4441802,38.894013)"
         style="opacity:0.65;fill:url(#linearGradient955);fill-opacity:1;stroke:none"
         id="rect4146-2"
         width="75.965775"
         height="69.024437"
         x="2"
         y="-30"
         rx="3.9569874"
         ry="3.9569881"
         clip-path="url(#clipPath4156-4-1-6)" />
    </g>
  </g>
</svg>
