<?xml version="1.0" encoding="UTF-8" standalone="no"?>
<!-- Created with Inkscape (http://www.inkscape.org/) -->

<svg
   xmlns:dc="http://purl.org/dc/elements/1.1/"
   xmlns:cc="http://creativecommons.org/ns#"
   xmlns:rdf="http://www.w3.org/1999/02/22-rdf-syntax-ns#"
   xmlns:svg="http://www.w3.org/2000/svg"
   xmlns="http://www.w3.org/2000/svg"
   xmlns:xlink="http://www.w3.org/1999/xlink"
   xmlns:sodipodi="http://sodipodi.sourceforge.net/DTD/sodipodi-0.dtd"
   xmlns:inkscape="http://www.inkscape.org/namespaces/inkscape"
   width="96"
   height="96"
   viewBox="0 0 96.000001 96.000004"
   version="1.1"
   id="svg1072"
   inkscape:version="0.92.2 5c3e80d, 2017-08-06"
   sodipodi:docname="bookmarks.svg">
  <defs
     id="defs1066">
    <radialGradient
       inkscape:collect="always"
       xlink:href="#linearGradient4133-1"
       id="radialGradient3452"
       gradientUnits="userSpaceOnUse"
       gradientTransform="matrix(0.98043701,0,0,0.08476271,33.920593,1102.6146)"
       cx="13.948145"
       cy="44.892841"
       fx="13.948145"
       fy="44.892841"
       r="43.199203" />
    <linearGradient
       inkscape:collect="always"
       id="linearGradient4133-1">
      <stop
         style="stop-color:#ffffff;stop-opacity:1;"
         offset="0"
         id="stop4135-5" />
      <stop
         style="stop-color:#ffffff;stop-opacity:0;"
         offset="1"
         id="stop4137-6" />
    </linearGradient>
    <radialGradient
       inkscape:collect="always"
       xlink:href="#linearGradient4133-1"
       id="radialGradient3450"
       gradientUnits="userSpaceOnUse"
       gradientTransform="matrix(0.94879623,0,0,0.07465962,1056.4811,-90.112083)"
       cx="13.948145"
       cy="44.892841"
       fx="13.948145"
       fy="44.892841"
       r="43.199203" />
    <linearGradient
       inkscape:collect="always"
       xlink:href="#linearGradient4133-1"
       id="linearGradient3448"
       gradientUnits="userSpaceOnUse"
       x1="2.7713892"
       y1="-28.64156"
       x2="50.527882"
       y2="14.514202" />
    <clipPath
       clipPathUnits="userSpaceOnUse"
       id="clipPath4156-4-0">
      <path
         style="opacity:0.6;fill:#ffffff;fill-opacity:1;stroke:none"
         d="m 27.046336,-55.695463 -14.21366,13.321486 h 0.06127 l 15.653407,21.770763 10.231384,-10.546177 C 38.561832,-32.30156 27.468089,-54.819245 27.046336,-55.695463 Z M 9.6468554,-39.382809 -5.2407289,-25.32124 15.987863,-7.8059573 26.372412,-18.382966 Z m 31.4906096,12.951445 -9.741259,9.713584 8.944804,12.4580526 7.780753,-7.5550056 z m -49.8397109,4.378822 -13.7541661,12.9822847 26.2830181,13.84571 0.06127,-0.0617 -0.122531,-0.0617 L 13.598503,-5.4007374 -8.7022409,-22.052595 Z m 38.0154159,7.400825 -9.802525,9.7752596 11.579232,9.5594001 7.62759,-7.40083 -8.669108,-11.0087257 z m 20.187073,5.6739697 -7.382526,7.2158 6.187844,8.54179 5.820249,-6.13651996 z m -32.195166,6.32154 -9.5574606,9.49772 13.6622686,7.1849703 7.933918,-7.6783603 z m 23.311629,2.37443004 -7.10683,6.93826996 8.362778,6.9074403 5.360756,-5.6739699 -0.06127,-0.0925 -0.0919,0.12335 -6.463539,-8.20258036 z m -8.730374,8.54178036 -7.505057,7.3391599 10.353916,5.45811 c 1.397496,-1.32103 5.67514,-6.12292 5.850882,-6.32154 z"
         id="path4158-0-3"
         inkscape:connector-curvature="0" />
    </clipPath>
    <linearGradient
       y2="96.024994"
       x2="45.5"
       y1="0.48100731"
       x1="45.5"
       gradientTransform="matrix(0.7053571,0,0,0.80159355,23.983052,1032.8388)"
       gradientUnits="userSpaceOnUse"
       id="linearGradient3346"
       xlink:href="#linearGradient3948-58"
       inkscape:collect="always" />
    <linearGradient
       id="linearGradient3948-58">
      <stop
         id="stop3950-6"
         style="stop-color:#000000;stop-opacity:0.56910568"
         offset="0" />
      <stop
         id="stop3952-2"
         style="stop-color:#000000;stop-opacity:0"
         offset="0.07017544" />
      <stop
         id="stop3954-8"
         style="stop-color:#3c3c3c;stop-opacity:0.09019608"
         offset="0.20271669" />
      <stop
         id="stop3956-4"
         style="stop-color:#888888;stop-opacity:0.13725491"
         offset="0.26648945" />
      <stop
         id="stop3958-7"
         style="stop-color:#bbbbbb;stop-opacity:0.18431373"
         offset="0.35024518" />
      <stop
         id="stop3960-2"
         style="stop-color:#757575;stop-opacity:0.13725489"
         offset="0.43899667" />
      <stop
         id="stop3962-4"
         style="stop-color:#383838;stop-opacity:0.09019608"
         offset="0.49777371" />
      <stop
         id="stop3964-0"
         style="stop-color:#8a8a8a;stop-opacity:0.19215687"
         offset="0.65896344" />
      <stop
         id="stop3966-6"
         style="stop-color:#292929;stop-opacity:0.60975611"
         offset="1" />
    </linearGradient>
    <radialGradient
       inkscape:collect="always"
       xlink:href="#linearGradient3921"
       id="radialGradient4230"
       cx="50.768951"
       cy="53.789326"
       fx="50.768951"
       fy="53.789326"
       r="43.66917"
       gradientTransform="matrix(0.93718184,-0.71824777,0.73238829,0.95563268,-32.499884,1057.8584)"
       gradientUnits="userSpaceOnUse" />
    <linearGradient
       id="linearGradient3921">
      <stop
         style="stop-color:#d1f2ff;stop-opacity:1"
         offset="0"
         id="stop3923" />
      <stop
         id="stop909"
         offset="0.20129992"
         style="stop-color:#b2d4f3;stop-opacity:1" />
      <stop
         style="stop-color:#24a8e6;stop-opacity:1"
         offset="0.71569628"
         id="stop911" />
      <stop
         style="stop-color:#0074f2;stop-opacity:1"
         offset="1"
         id="stop3925" />
    </linearGradient>
    <linearGradient
       inkscape:collect="always"
       xlink:href="#linearGradient6139-0"
       id="linearGradient4071"
       gradientUnits="userSpaceOnUse"
       gradientTransform="matrix(1.1071428,0,0,1.1071426,-5.1428571,1022.484)"
       x1="6"
       y1="47.000011"
       x2="90"
       y2="47.000011" />
    <linearGradient
       id="linearGradient6139-0">
      <stop
         id="stop6141-2"
         offset="0"
         style="stop-color:#b7b7b7;stop-opacity:1;" />
      <stop
         style="stop-color:#ffffff;stop-opacity:1;"
         offset="0.25"
         id="stop6151-0" />
      <stop
         style="stop-color:#9d9d9d;stop-opacity:1;"
         offset="0.5"
         id="stop6147-1" />
      <stop
         id="stop6149-4"
         offset="0.75"
         style="stop-color:#fafafa;stop-opacity:1;" />
      <stop
         id="stop6143-4"
         offset="1"
         style="stop-color:#b7b7b7;stop-opacity:1;" />
    </linearGradient>
    <radialGradient
       inkscape:collect="always"
       xlink:href="#linearGradient4133-1"
       id="radialGradient4073"
       gradientUnits="userSpaceOnUse"
       gradientTransform="matrix(0,1.7946159,-2.2566721,0,62.02116,753.96146)"
       cx="158"
       cy="6.2131939"
       fx="158"
       fy="6.2131939"
       r="41" />
    <radialGradient
       inkscape:collect="always"
       xlink:href="#linearGradient4091-0-3-0-7"
       id="radialGradient4075"
       gradientUnits="userSpaceOnUse"
       gradientTransform="matrix(-1.1870482,0,0,-0.96877218,104.97832,1001.8629)"
       cx="48"
       cy="-27"
       fx="48"
       fy="-27"
       r="42" />
    <linearGradient
       id="linearGradient4091-0-3-0-7">
      <stop
         style="stop-color:#ffffff;stop-opacity:1;"
         offset="0"
         id="stop4093-3-6-4-2" />
      <stop
         id="stop4099-6-1-8-3"
         offset="0.80000001"
         style="stop-color:#ffffff;stop-opacity:1;" />
      <stop
         style="stop-color:#ffffff;stop-opacity:0;"
         offset="1"
         id="stop4095-1-0-7-9" />
    </linearGradient>
    <linearGradient
       inkscape:collect="always"
       xlink:href="#linearGradient3832-0-6-1-1"
       id="linearGradient4129"
       x1="1.5"
       y1="88.171875"
       x2="94.5"
       y2="88.171875"
       gradientUnits="userSpaceOnUse"
       gradientTransform="translate(-5.3559492e-7,1026.5197)" />
    <linearGradient
       id="linearGradient3832-0-6-1-1">
      <stop
         style="stop-color:#000000;stop-opacity:1;"
         offset="0"
         id="stop3834-6-3-7-1" />
      <stop
         id="stop3872-2-4"
         offset="0.1"
         style="stop-color:#000000;stop-opacity:0.58823532;" />
      <stop
         style="stop-color:#000000;stop-opacity:0.58823532;"
         offset="0.89999998"
         id="stop3844-6-2-7-6" />
      <stop
         style="stop-color:#000000;stop-opacity:1;"
         offset="1"
         id="stop3836-5-0-2-9" />
    </linearGradient>
    <radialGradient
       inkscape:collect="always"
       xlink:href="#linearGradient4133-1"
       id="radialGradient4139"
       cx="13.948145"
       cy="44.892841"
       fx="13.948145"
       fy="44.892841"
       r="43.199203"
       gradientTransform="matrix(0.97513378,0,0,0.04919072,33.898695,1106.6864)"
       gradientUnits="userSpaceOnUse" />
    <radialGradient
       inkscape:collect="always"
       xlink:href="#linearGradient4133-1"
       id="radialGradient4143"
       gradientUnits="userSpaceOnUse"
       gradientTransform="matrix(0.88832663,0,0,0.04919072,1057.2542,-90.708305)"
       cx="13.948145"
       cy="44.892841"
       fx="13.948145"
       fy="44.892841"
       r="43.199203" />
  </defs>
  <sodipodi:namedview
     id="base"
     pagecolor="#ffffff"
     bordercolor="#666666"
     borderopacity="1.0"
     inkscape:pageopacity="0.0"
     inkscape:pageshadow="2"
     inkscape:zoom="2.5117022"
     inkscape:cx="-61.283996"
     inkscape:cy="48"
     inkscape:document-units="px"
     inkscape:current-layer="layer1"
     showgrid="false"
     inkscape:showpageshadow="false"
     units="px"
     inkscape:lockguides="true"
     inkscape:window-width="1280"
     inkscape:window-height="941"
     inkscape:window-x="0"
     inkscape:window-y="21"
     inkscape:window-maximized="1"
     inkscape:snap-global="false">
    <sodipodi:guide
       position="0,0"
       orientation="0,96"
       id="guide1621"
       inkscape:locked="true" />
    <sodipodi:guide
       position="96.000002,0"
       orientation="-96,0"
       id="guide1623"
       inkscape:locked="true" />
    <sodipodi:guide
       position="96.000002,96.000002"
       orientation="0,-96"
       id="guide1625"
       inkscape:locked="true" />
    <sodipodi:guide
       position="0,96.000002"
       orientation="96,0"
       id="guide1627"
       inkscape:locked="true" />
  </sodipodi:namedview>
  <metadata
     id="metadata1069">
    <rdf:RDF>
      <cc:Work
         rdf:about="">
        <dc:format>image/svg+xml</dc:format>
        <dc:type
           rdf:resource="http://purl.org/dc/dcmitype/StillImage" />
        <dc:title />
        <dc:date>2017</dc:date>
        <dc:creator>
          <cc:Agent>
            <dc:title>Cristian Pozzessere &quot;ilnanny&quot;</dc:title>
          </cc:Agent>
        </dc:creator>
        <dc:subject>
          <rdf:Bag>
            <rdf:li>Global language</rdf:li>
          </rdf:Bag>
        </dc:subject>
        <dc:description>Playing with Inkscape on Gnu/Linux O. S.</dc:description>
        <dc:contributor>
          <cc:Agent>
            <dc:title>In the night, alone like a dog.</dc:title>
          </cc:Agent>
        </dc:contributor>
        <cc:license
           rdf:resource="http://creativecommons.org/licenses/by-sa/4.0/" />
      </cc:Work>
      <cc:License
         rdf:about="http://creativecommons.org/licenses/by-sa/4.0/">
        <cc:permits
           rdf:resource="http://creativecommons.org/ns#Reproduction" />
        <cc:permits
           rdf:resource="http://creativecommons.org/ns#Distribution" />
        <cc:requires
           rdf:resource="http://creativecommons.org/ns#Notice" />
        <cc:requires
           rdf:resource="http://creativecommons.org/ns#Attribution" />
        <cc:permits
           rdf:resource="http://creativecommons.org/ns#DerivativeWorks" />
        <cc:requires
           rdf:resource="http://creativecommons.org/ns#ShareAlike" />
      </cc:License>
    </rdf:RDF>
  </metadata>
  <g
     inkscape:label="Livello 1"
     inkscape:groupmode="layer"
     id="layer1"
     transform="translate(0,-1026.5197)">
    <path
       style="display:inline;opacity:0.15;fill:#000000;fill-opacity:1;fill-rule:nonzero;stroke:none;stroke-width:1.00420141"
       d="M 89.142855,1026.5197 H 6.857137 c -3.798849,0 -6.857136,3.0583 -6.857136,6.8571 v 82.2858 c 0,3.7988 3.058287,6.8571 6.857136,6.8571 h 82.285718 c 3.798858,0 6.857143,-3.0583 6.857143,-6.8571 v -82.2858 c 0,-3.7988 -3.058285,-6.8571 -6.857143,-6.8571 z"
       id="path3288"
       inkscape:connector-curvature="0" />
    <path
       inkscape:connector-curvature="0"
       id="path4085"
       d="M 88.5,1027.2697 H 7.499992 c -3.739492,0 -6.749993,3.0105 -6.749993,6.75 v 81 c 0,3.7395 3.010501,6.75 6.749993,6.75 H 88.5 c 3.7395,0 6.75,-3.0105 6.75,-6.75 v -81 c 0,-3.7395 -3.0105,-6.75 -6.75,-6.75 z"
       style="display:inline;opacity:0.15;fill:#000000;fill-opacity:1;fill-rule:nonzero;stroke:none;stroke-width:1.00420141" />
    <path
       inkscape:connector-curvature="0"
       id="rect4251-1"
       d="M 87.857139,1028.0197 H 8.142857 c -3.6801432,0 -6.642857,2.9627 -6.642857,6.6429 v 79.7143 c 0,3.6801 2.9627138,6.6428 6.642857,6.6428 h 79.714282 c 3.680143,0 6.642857,-2.9627 6.642857,-6.6428 v -79.7143 c 0,-3.6802 -2.962714,-6.6429 -6.642857,-6.6429 z"
       style="display:inline;fill:url(#linearGradient4071);fill-opacity:1;fill-rule:nonzero;stroke:none;stroke-width:0.97586966" />
    <path
       sodipodi:nodetypes="sscccsccscccsss"
       inkscape:connector-curvature="0"
       id="path3400-6"
       d="m 8.1428636,1029.1269 c -3.0859391,0 -5.535714,2.4498 -5.535714,5.5357 v 22.9386 7.75 42.7288 c 1.1853735,1.8033 3.2073152,3.01 5.535714,3.01 h 4.4285714 70.857139 4.428571 c 2.328399,0 4.350341,-1.2067 5.535714,-3.01 v -42.7288 -7.75 -22.9386 c 0,-3.0859 -2.449775,-5.5357 -5.535714,-5.5357 z"
       style="display:inline;opacity:0.2;fill:url(#radialGradient4073);fill-opacity:1;fill-rule:nonzero;stroke:none;stroke-width:1.10714269" />
    <path
       inkscape:connector-curvature="0"
       id="path4236-5"
       d="m 8.1428636,1028.0197 c -3.6801427,0 -6.6428568,2.9628 -6.6428568,6.6429 v 16.6071 h 1.1071428 v -16.6071 c 0,-3.0859 2.4497749,-5.5357 5.535714,-5.5357 H 87.857145 c 3.085939,0 5.535714,2.4498 5.535714,5.5357 v 16.6071 h 1.107143 v -16.6071 c 0,-3.6801 -2.962714,-6.6429 -6.642857,-6.6429 z"
       style="display:inline;opacity:0.45;fill:url(#radialGradient4075);fill-opacity:1;fill-rule:nonzero;stroke:none;stroke-width:1.10714269" />
    <path
       id="path4118"
       d="m 1.4999995,1108.3635 v 6 c 0,3.6801 2.9761068,6.6562 6.65625,6.6562 H 87.843749 c 3.680143,0 6.65625,-2.9761 6.65625,-6.6562 v -6 c 0,3.6801 -2.976107,6.6562 -6.65625,6.6562 H 8.1562495 c -3.6801432,0 -6.65625,-2.9761 -6.65625,-6.6562 z"
       style="display:inline;opacity:0.65;fill:url(#linearGradient4129);fill-opacity:1;fill-rule:nonzero;stroke:none"
       inkscape:connector-curvature="0" />
    <rect
       ry="4.25"
       rx="0"
       y="1106.7698"
       x="5.3749995"
       height="4.25"
       width="84.250008"
       id="rect4131"
       style="opacity:0.55;fill:url(#radialGradient4139);fill-opacity:1;stroke:none;stroke-width:0.97586966" />
    <rect
       transform="rotate(90)"
       style="opacity:0.55;fill:url(#radialGradient4143);fill-opacity:1;stroke:none;stroke-width:0.97586966"
       id="rect4141"
       width="76.75"
       height="4.25"
       x="1031.2698"
       y="-90.625008"
       rx="0"
       ry="4.25" />
    <rect
       style="fill:url(#radialGradient4230);fill-opacity:1;stroke:#53768a;stroke-width:1.01058793;stroke-linecap:round;stroke-linejoin:round;stroke-miterlimit:4;stroke-dasharray:1.01058793, 1.01058793000000002;stroke-dashoffset:0;stroke-opacity:0.6"
       id="rect4222"
       width="86.327751"
       height="78.089363"
       x="5.2778649"
       y="1032.2321"
       ry="4.4449921" />
    <path
       d="m 36.2369,1032.9451 c 1.655322,2.1093 0.112937,5.6316 2.60968,5.5967 1.215718,1.6309 -2.423073,0.4865 0.204235,1.7435 1.510855,1.1291 -1.598414,1.7742 0.272644,2.7875 -2.156464,1.0559 0.349545,5.5227 1.951258,6.6407 2.636239,2.1059 1.165866,-4.4587 4.107409,-4.8002 1.598386,-1.7315 4.405697,-2.8431 6.399388,-4.5849 -1.948422,-0.1501 -3.086164,-1.3009 -1.240924,-2.0138 3.396132,3.3023 0.851582,-1.5639 -1.028362,-2.3344 1.819078,-0.5491 3.588255,-0.147 3.335851,-1.5713 1.922363,-1.3346 -1.848068,-1.7655 -3.19398,-1.4638 -4.4724,0 -8.944799,0 -13.417199,0 z m -27.8895345,1.3777 c -2.4574869,0.6643 -2.6289086,6.2373 -0.1588501,3.1427 0.6062486,-1.2707 3.4077916,-2.802 0.1588501,-3.1427 z m 11.4825915,0.1937 c -1.416711,2.108 0.205562,3.7981 1.384265,1.2269 0.834331,-1.0736 -0.619875,-1.1876 -1.384265,-1.2269 z m 3.540087,0.4736 c -2.737357,1.2039 -0.674724,4.0113 -0.606968,4.6357 2.883626,0.9466 4.487336,-0.619 5.578232,2.0567 2.743783,1.5005 -0.05399,4.1079 -1.083953,4.7869 1.855175,-1.5331 5.421203,4.1683 4.486358,1.1561 -1.115291,-0.7727 2.994572,1.2414 0.862328,-1.27 -1.96223,-2.9999 0.155763,-1.343 0.983044,-0.6429 2.813732,-2.3942 -3.183606,-2.6835 -1.686523,-5.1474 -1.311881,-1.0083 -3.032422,-4.0627 -5.355517,-3.4656 -1.55513,1.9083 -0.214828,-4.1583 -2.496452,-1.1225 -0.118264,1.697 -0.04298,3.8504 -0.707937,0.9105 -0.445472,-0.5147 0.766409,-1.7112 0.02739,-1.8975 z m -5.582445,0.022 c -1.837378,0.5812 -1.738695,2.9369 0.520594,3.1895 0.773867,-0.837 0.307456,-3.031 -0.520594,-3.1895 z m -7.170946,0.7534 c -2.386583,0.5365 -1.4124336,2.3625 -0.6817178,2.8768 -2.9542048,0.7022 4.5098698,0.8974 0.7951808,1.3422 -3.0905062,1.1712 2.97602,2.551 3.971253,1.1623 3.816389,0.8857 0.13734,-2.8989 -0.197663,-4.9504 -1.617838,-1.6476 -0.06386,3.7981 -1.526667,0.1755 -0.510392,1.0757 -2.133235,0.1585 -2.360386,-0.6064 z m 75.839565,0.2368 c -3.202518,1.1893 1.990438,5.6773 0.699841,1.5943 -0.128568,-0.4931 0.289108,-1.7957 -0.699841,-1.5943 z m -66.875883,1.8081 c -2.301316,2.0522 2.925185,3.7493 -0.660973,5.2781 -0.537709,-1.9059 -1.462873,0.9536 -3.514514,-0.5856 -3.526988,1.3936 -5.330628,-0.7258 -8.2835784,-2.1786 -1.7736055,-0.2095 -1.1072619,1.5991 -1.2247338,3.2925 0,4.6801 0,9.3601 0,14.0401 1.738956,1.7361 0.6784616,0.7659 0,0.2871 0.9544674,3.0846 -0.4208954,7.5936 3.341356,9.3878 0.6395739,1.1257 3.3233302,5.9216 3.4470572,4.4866 -1.345444,-1.337 -2.725923,-5.3452 -0.449308,-1.7727 2.039167,3.3958 4.789809,5.5984 8.808169,6.4065 2.196966,0.7091 4.003758,3.1467 5.935778,2.6104 1.092486,2.7328 -3.237594,5.3571 0.14537,7.906 1.766068,2.5804 4.731058,4.2729 3.125788,7.8956 -1.122604,3.5381 -0.641944,7.3933 -1.612858,10.6898 -0.301341,2.0065 2.947302,7.0995 2.665852,3.0212 0.948552,-2.8341 0.92354,-5.9525 3.157509,-7.9595 3.056719,0.023 0.584209,-3.1189 3.618383,-2.7085 1.851464,-2.3028 2.38774,-5.05 5.51224,-5.9644 0.373218,-2.7953 5.195152,-7.0763 0.213812,-8.1646 -1.353866,-0.6332 -4.839724,-0.8609 -4.573325,-1.1733 0.539728,-2.7737 -4.507641,-3.5633 -6.655157,-4.6981 -2.819623,-1.8991 -7.056421,3.155 -8.049821,-1.1999 -0.59274,-1.3702 -2.760004,-1.3924 -1.763976,-3.5067 -1.795031,1.6941 -5.306025,1.1792 -4.386825,-2.0923 1.395959,-2.7553 6.756883,-2.8857 7.670376,0.4284 -1.268339,-3.6551 2.451646,-6.5004 4.516728,-9.1008 0.420487,-1.2429 2.918921,-2.3107 2.059153,-0.6589 1.464759,-0.05 3.684874,-2.5583 1.082813,-1.4006 -0.0368,-2.2875 -2.280145,-1.637 -3.007452,-1.3122 1.34801,-2.0302 8.27099,-0.9202 5.371988,-4.2387 -2.246366,-0.8637 -2.059503,-5.9039 -4.331617,-3.096 0.191192,-1.73 -4.624552,-5.1166 -4.519466,-2.2155 0.587835,2.596 0.107471,5.5864 -1.14352,7.288 -0.261066,-3.8039 -7.097995,-2.9632 -6.218975,-7.0167 1.273444,-1.9319 2.761532,-4.6035 2.903307,-4.3631 2.282222,-0.8269 4.117535,-3.232 1.472458,-4.8131 -0.141361,1.378 -1.989284,4.2212 -1.729096,0.7825 -1.711174,1.9251 -1.32035,-3.0634 -2.922942,-3.5808 z m 54.621734,1.3346 c -4.008543,0.9304 -5.597665,4.5634 -7.580649,7.5725 -2.923044,1.2506 -2.811776,6.6212 0.45384,4.9059 0.874025,1.4485 -0.611431,3.7317 1.934394,1.8377 2.053454,-2.5786 0.359067,-6.7491 3.853535,-8.3751 0.254533,1.2643 -3.223472,5.9851 0.839638,5.2092 3.67311,0.1315 -2.670255,0.3472 -0.883781,2.5736 -1.856104,-1.045 -0.891634,2.8541 -3.314402,1.9467 -2.098929,1.0834 -3.475263,-0.503 -2.994449,-2.2408 -1.651149,0.914 0.519331,3.4926 -2.346957,3.6475 -0.642067,2.1635 -5.922001,1.8374 -2.919387,4.0405 1.333092,3.2784 -4.967152,0.2055 -3.178529,4.1397 1.53026,3.8903 4.737293,-1.2891 6.03842,-2.2898 2.510368,-1.8477 6.230249,3.1507 3.971252,3.3365 2.533045,-0.3225 2.012517,-2.6084 -0.01701,-3.4934 -1.096123,-2.6976 3.469941,1.3229 3.216713,2.6754 1.611012,2.8626 0.947595,-2.9308 2.586986,-0.3659 -0.191403,2.7056 6.594915,0.6362 3.354937,4.0844 -2.785635,0.5324 -5.527508,-0.6814 -7.925745,0.096 -2.232133,-0.019 -2.120139,-2.2818 -2.932805,-2.8485 -2.839293,0.2189 -6.347892,0.1941 -8.2487,2.3707 -2.055487,2.676 -5.019616,6.417 -2.779267,9.834 2.24192,5.0637 7.801706,0.2627 10.99755,3.2531 0.94992,1.2469 -0.823183,2.7291 1.300799,4.0797 0.79922,2.8771 -0.907339,5.6088 1.055585,8.3591 1.015029,2.5864 1.644951,6.4578 5.422807,4.0943 3.998341,-2.2832 2.93339,-6.4921 6.232541,-8.8234 -2.610478,-4.794 3.193655,-6.896 4.641804,-10.7878 -3.16389,0.4395 -5.982581,-2.5537 -6.746999,-5.5665 -1.329115,-1.4634 -0.986771,-3.6211 0.497891,-0.8721 2.040682,1.8764 2.084772,7.4441 5.859697,4.5799 1.725768,-0.685 6.438848,-3.2978 2.683546,-4.4869 -2.420653,1.6637 -5.091252,-4.9711 -1.53665,-1.1228 2.584166,1.0403 4.393791,1.6602 4.393791,-1.789 0,-9.293 0,-18.7118 0,-28.0677 -0.80493,0.7805 -2.872834,2.222 -3.916598,1.2642 -1.796014,0.2373 -4.166987,3.5533 -3.602568,0.3478 -1.561144,-0.098 -0.27946,2.8742 -2.424267,2.9573 -0.215961,1.5281 -2.16668,0.283 -1.433932,1.7341 -1.505385,-1.0133 -2.779415,-4.2126 0.186726,-2.2045 4.40487,-1.254 -2.904741,-4.0825 -3.468952,-4.7662 0.948437,-0.2157 -1.031853,-1.1535 -1.270801,-0.8395 z m -36.353975,0.8395 c -1.466113,1.1591 2.787298,1.3774 0,0 z m -19.583945,0.6242 c -1.639808,1.6276 2.611491,1.4963 0,0 z m 9.508311,1.6144 c -1.24177,1.9303 1.834797,0.7127 0,0 z m 27.186057,2.2817 c -1.453803,1.5882 -3.372653,-0.418 -3.403931,0.9471 0.263473,0.4125 1.318819,3.3564 3.630859,1.1839 1.240885,-0.4964 0.752324,-1.7478 -0.226928,-2.131 z m -30.953072,0.9471 c -2.757477,2.2852 4.683027,2.4957 0.584159,0.2621 z m 36.376666,6.3285 c -1.985324,1.2285 0.952431,3.8374 -0.04322,5.0629 -1.244014,2.0568 4.622859,-0.1448 1.489299,-1.7858 -0.223271,-1.4098 -1.835796,-3.13 -1.446088,-3.2771 z m -1.338879,2.4754 c -2.766089,0.7421 -0.627935,4.5734 0.351767,0.9649 0.05514,-0.2092 0.129768,-0.9719 -0.351767,-0.9649 z m -22.148239,2.7768 c -2.573314,1.6651 -0.399684,3.3271 1.486234,2.5779 -0.387174,-1.0046 -1.468786,-1.6376 -1.486234,-2.5779 z m 48.608124,2.7983 c 1.283983,0.6149 -2.352933,1.6653 -0.04999,2.7475 1.340192,1.4955 0.834937,4.7058 -1.343425,2.4337 0.404714,-2.5368 -2.952843,-4.4313 1.393412,-5.1812 z m -6.603628,0.022 c -0.174214,1.6298 3.705607,4.1631 -0.476547,3.3364 -2.211697,0.2462 -5.524335,-0.064 -2.738031,-2.6792 0.880418,-0.5016 3.192091,1.7303 1.989166,-0.3559 0.426481,-0.026 0.823669,-0.1786 1.225412,-0.3013 z m -12.776082,3.5301 c -1.613183,0.9862 1.115494,1.7424 0,0 z m -40.506769,9.1914 c -0.271959,0.861 5.102031,1.7335 1.393683,0.3541 l -0.552807,-0.1846 z m 4.175488,1.227 c -1.630041,1.5702 3.358369,0.4691 0,0 z m 54.508266,14.4005 c -3.541847,0.087 -3.070978,8.7558 -0.602023,3.6262 0.234142,-1.1131 1.172583,-2.5823 0.602023,-3.6262 z"
       inkscape:connector-curvature="0"
       id="path3522"
       style="display:inline;opacity:0.85090912;fill:#020901;fill-opacity:0.7613169;stroke:none;stroke-width:0.97818154" />
    <path
       style="display:inline;opacity:0.05;fill:#000000;fill-opacity:1;stroke:none;stroke-width:1.06603777;enable-background:new"
       id="path3859"
       inkscape:connector-curvature="0"
       d="m 66.83573,1032.1336 c -0.270091,-0.012 -0.558698,-0.01 -0.875,0.036 -0.04514,0.01 -0.07898,-0.01 -0.125,0 h -22.875 a 0.94004249,1.0682986 0 0 0 -0.15625,0 c -0.08984,0.016 -0.120369,0.048 -0.1875,0.071 h -0.5625 c -2.166473,0 -3.9375,2.0127 -3.9375,4.4748 v 0.035 a 0.94004249,1.0682986 0 0 0 0.9375,1.0654 h 2.8125 c 0.249076,0.1983 0.441516,0.3396 0.59375,0.3906 v 72.4123 c -0.0411,2.9653 3.725096,4.0501 5,1.5271 l 0.03125,0.035 0.0625,-0.1065 9.59375,-15.4129 c 3.356911,5.3429 6.65743,10.7609 10.09375,16.0521 a 0.94004249,1.0682986 0 0 0 0.09375,0.1421 c 1.748203,1.9346 4.750796,0.029 4.5,-2.628 h 0.03125 c -3.3e-5,-0.059 3.3e-5,-0.1184 0,-0.1776 -0.01346,-24.29 0.01674,-48.581 -0.03125,-72.874 a 0.94004249,1.0682986 0 0 0 0,-0.071 c -0.20656,-3.024 -2.628403,-4.8686 -5,-4.9719 z m -24.78125,1.1719 h 0.96875 23.03125 c 1.662,0 3,1.5206 3,3.4094 v 0.035 l 0.0625,56.9994 v 13.6372 2.4149 l -11.96875,-19.2484 -12,19.2484 v -16.0521 -51.3528 h -0.09375 v -5.6466 h -6 v -0.035 c 0,-1.8888 1.338,-3.4094 3,-3.4094 z" />
    <path
       style="display:inline;opacity:0.1;fill:#000000;fill-opacity:1;stroke:none;stroke-width:1.06603777;enable-background:new"
       id="path3850-2"
       inkscape:connector-curvature="0"
       d="m 66.80448,1033.199 c -0.283533,-0.012 -0.563718,-0.012 -0.84375,0.035 h -23 c -0.08803,0.016 -0.146091,0.042 -0.21875,0.071 h 0.28125 22 1.03125 c 1.662,0 3,1.5206 3,3.4094 l 0.0625,57.0349 v 13.6372 2.4149 l -11.96875,-19.2484 -12,19.2484 v -16.0521 -51.3528 h -0.09375 v -5.6821 c 0,-1.6773 -1.068604,-3.0487 -2.46875,-3.3383 -0.01026,0 -0.02095,0 -0.03125,0 -0.790565,0.5265 -0.423519,2.0622 -0.46875,2.9831 0.05117,1.1381 1.631401,0.6167 1.3125,1.8112 v 72.4478 c -0.02695,1.9446 2.531695,2.6906 3.3125,0.9589 l 10.4375,-16.7624 c 3.626016,5.7387 7.162777,11.5916 10.84375,17.2596 1.150285,1.2729 3.208531,-0.082 2.9375,-1.8467 -0.01371,-24.3506 0.01685,-48.702 -0.03125,-73.0516 -0.164674,-2.4108 -2.109022,-3.8911 -4.09375,-3.9775 z" />
    <path
       style="display:inline;opacity:0.15;fill:#000000;fill-opacity:1;stroke:none;stroke-width:1.06603777;enable-background:new"
       id="path3846"
       inkscape:connector-curvature="0"
       d="m 43.05448,1034.3709 v 1.7757 c 0.764674,0 1.34375,0.6383 1.34375,1.4916 v 56.9284 16.0166 a 0.77798469,0.8841302 0 0 0 1.40625,0.4972 l 11.34375,-18.2185 11.375,18.2185 a 0.77798469,0.8841302 0 0 0 1.40625,-0.4972 v -2.3794 -13.6372 -56.9284 c 0,-1.1595 -0.538002,-2.155 -1.34375,-2.7345 0.290526,0.5253 0.46875,1.1423 0.46875,1.8112 l 0.0625,57.0349 v 13.6372 2.4149 l -11.96875,-19.2484 -12,19.2484 v -16.0521 -51.3528 h -0.09375 v -5.6821 c 0,-0.9083 -0.306441,-1.7341 -0.8125,-2.344 z" />
    <path
       style="display:inline;opacity:0.3;fill:#000000;fill-opacity:1;stroke:none;stroke-width:1.06603777;enable-background:new"
       id="path3202"
       inkscape:connector-curvature="0"
       d="m 43.05448,1035.2588 c 0.947348,0 1.728584,0.6973 2,1.6691 v -0.213 c 0,-0.5284 -0.125282,-1.0106 -0.3125,-1.4561 z m 26,1.7046 0.0625,56.7864 v 13.6372 2.4149 l -11.96875,-19.2484 -11.96875,19.2129 v 0.8168 l 11.96875,-19.2129 12,19.2129 v -2.3794 -13.6372 -56.9284 c 0,-0.2439 -0.03485,-0.4532 -0.09375,-0.6748 z" />
    <path
       style="display:inline;fill:#d31010;fill-opacity:1;stroke:none;stroke-width:1.06603777;enable-background:new"
       id="rect3204"
       inkscape:connector-curvature="0"
       d="m 42.05448,1033.3055 c 1.662,0 3,1.5206 3,3.4094 v 5.6821 h 0.09375 v 51.3528 16.0521 l 12,-19.2484 11.96875,19.2484 v -2.4149 -13.6372 l -0.0625,-57.0349 c 0,-1.8888 -1.338,-3.4094 -3,-3.4094 h -1.03125 -22 z" />
    <path
       sodipodi:type="star"
       style="opacity:1;fill:#ffffff;fill-opacity:1;fill-rule:nonzero;stroke:#ffe57f;stroke-width:1.39999998;stroke-linecap:square;stroke-linejoin:bevel;stroke-miterlimit:4;stroke-dasharray:none;stroke-opacity:1;paint-order:markers stroke fill;enable-background:new"
       id="path955"
       sodipodi:sides="5"
       sodipodi:cx="56.816174"
       sodipodi:cy="1050.7221"
       sodipodi:r1="6.747416"
       sodipodi:r2="3.373708"
       sodipodi:arg1="-1.5707963"
       sodipodi:arg2="-0.9424778"
       inkscape:flatsided="false"
       inkscape:rounded="0"
       inkscape:randomized="0"
       d="m 56.816174,1043.9746 1.983015,4.0181 4.434159,0.6443 -3.208587,3.1276 0.757444,4.4162 -3.966031,-2.085 -3.966032,2.085 0.757445,-4.4162 -3.208587,-3.1276 4.434158,-0.6443 z"
       inkscape:transform-center-y="-0.64432166" />
    <path
       style="display:inline;fill:#dfdfdf;fill-opacity:1;stroke:none;stroke-width:1.06603777;enable-background:new"
       id="path3173"
       inkscape:connector-curvature="0"
       d="m 43.92948,1033.3055 c 1.172304,0 3.125,0.3211 3.125,2.415 v 66.446 l 10.09375,-15.4484 9.875,15.4484 v -66.446 c -2.4e-5,-1.3323 -0.952696,-2.415 -2.125,-2.415 h -1.96875 c 1.1723,0 2.125,1.0827 2.125,2.415 v 59.7339 l -7.90625,-12.8559 -8.15625,12.8559 v -59.7339 c 0,-2.2461 -1.952696,-2.415 -3.125,-2.415 z" />
    <rect
       clip-path="url(#clipPath4156-4-0)"
       ry="3.9569881"
       rx="3.9569874"
       y="-30"
       x="2"
       height="92"
       width="92"
       id="rect4146"
       style="opacity:0.48999999;fill:url(#linearGradient3448);fill-opacity:1;stroke:none"
       transform="matrix(0.92450637,0,0,0.95806143,3.04741,1060.7271)" />
    <rect
       ry="6.4504733"
       rx="0"
       y="-89.985649"
       x="1028.7277"
       height="6.4504733"
       width="81.974487"
       id="rect4141-5"
       style="opacity:0.55;fill:url(#radialGradient3450);fill-opacity:1;stroke:none;stroke-width:1.33976674"
       transform="rotate(90)" />
    <rect
       style="opacity:0.55;fill:url(#radialGradient3452);fill-opacity:1;stroke:none;stroke-width:1.38505268"
       id="rect4131-3"
       width="84.708191"
       height="7.3233619"
       x="5.2417665"
       y="1102.7582"
       rx="0"
       ry="7.3233619" />
    <path
       inkscape:connector-curvature="0"
       id="path4989"
       d="m 9.604107,1031.0347 c -3.116621,0 -5.667965,2.5395 -5.667965,5.646 v 69.278 c 0,3.1065 2.551344,5.646 5.667965,5.646 h 76.791785 c 3.116621,0 5.667966,-2.5395 5.667966,-5.646 v -69.278 c 0,-3.1065 -2.551345,-5.646 -5.667966,-5.646 z m 0,2.3194 h 76.791785 c 1.888098,0 3.352023,1.4801 3.352023,3.3266 v 69.278 c 0,1.8465 -1.463925,3.3266 -3.352023,3.3266 H 9.604107 c -1.8881,0 -3.352023,-1.4801 -3.352023,-3.3266 v -69.278 c 0,-1.8465 1.463923,-3.3266 3.352023,-3.3266 z"
       style="color:#000000;font-style:normal;font-variant:normal;font-weight:normal;font-stretch:normal;font-size:medium;line-height:normal;font-family:Sans;-inkscape-font-specification:Sans;text-indent:0;text-align:start;text-decoration:none;text-decoration-line:none;letter-spacing:normal;word-spacing:normal;text-transform:none;writing-mode:lr-tb;direction:ltr;baseline-shift:baseline;text-anchor:start;display:inline;overflow:visible;visibility:visible;fill:#000000;fill-opacity:0.87148593;stroke:none;stroke-width:2.38548064;marker:none;enable-background:accumulate" />
  </g>
</svg>
