<?xml version="1.0" encoding="UTF-8" standalone="no"?>
<!-- Created with Inkscape (http://www.inkscape.org/) -->

<svg
   xmlns:dc="http://purl.org/dc/elements/1.1/"
   xmlns:cc="http://creativecommons.org/ns#"
   xmlns:rdf="http://www.w3.org/1999/02/22-rdf-syntax-ns#"
   xmlns:svg="http://www.w3.org/2000/svg"
   xmlns="http://www.w3.org/2000/svg"
   xmlns:xlink="http://www.w3.org/1999/xlink"
   xmlns:sodipodi="http://sodipodi.sourceforge.net/DTD/sodipodi-0.dtd"
   xmlns:inkscape="http://www.inkscape.org/namespaces/inkscape"
   width="96"
   height="96"
   id="svg2"
   version="1.1"
   inkscape:version="0.91 r13725"
   sodipodi:docname="media-eject.svg">
  <script
     xlink:href=""
     id="script2985" />
  <defs
     id="defs4">
    <linearGradient
       id="linearGradient6139-0">
      <stop
         style="stop-color:#adb9c1;stop-opacity:1;"
         offset="0"
         id="stop6141-2" />
      <stop
         id="stop6151-0"
         offset="0.25"
         style="stop-color:#ffffff;stop-opacity:1;" />
      <stop
         id="stop6147-1"
         offset="0.5"
         style="stop-color:#90a2aa;stop-opacity:1;" />
      <stop
         style="stop-color:#f9fafb;stop-opacity:1;"
         offset="0.75"
         id="stop6149-4" />
      <stop
         style="stop-color:#adb9c1;stop-opacity:1;"
         offset="1"
         id="stop6143-4" />
    </linearGradient>
    <linearGradient
       id="linearGradient3888-8-4-8-6"
       inkscape:collect="always">
      <stop
         id="stop3890-4-7-9-7"
         offset="0"
         style="stop-color:#ffffff;stop-opacity:1;" />
      <stop
         id="stop3892-5-8-2-7"
         offset="1"
         style="stop-color:#ffffff;stop-opacity:0;" />
    </linearGradient>
    <linearGradient
       id="linearGradient4091-0-3-0-7">
      <stop
         id="stop4093-3-6-4-2"
         offset="0"
         style="stop-color:#ffffff;stop-opacity:1;" />
      <stop
         style="stop-color:#ffffff;stop-opacity:1;"
         offset="0.80000001"
         id="stop4099-6-1-8-3" />
      <stop
         id="stop4095-1-0-7-9"
         offset="1"
         style="stop-color:#ffffff;stop-opacity:0;" />
    </linearGradient>
    <clipPath
       id="clipPath4194-1-2-5">
      <rect
         style="fill:#ff00ff;fill-opacity:1;fill-rule:nonzero;stroke:none"
         id="rect4196-1-6-2"
         y="6"
         x="6"
         ry="6"
         rx="6"
         height="84"
         width="84" />
    </clipPath>
    <linearGradient
       id="linearGradient3832-0-6-1-1">
      <stop
         id="stop3834-6-3-7-1"
         offset="0"
         style="stop-color:#000000;stop-opacity:1;" />
      <stop
         style="stop-color:#000000;stop-opacity:0.58823532;"
         offset="0.1"
         id="stop3872-2-4" />
      <stop
         id="stop3844-6-2-7-6"
         offset="0.89999998"
         style="stop-color:#000000;stop-opacity:0.58823532;" />
      <stop
         id="stop3836-5-0-2-9"
         offset="1"
         style="stop-color:#000000;stop-opacity:1;" />
    </linearGradient>
    <linearGradient
       inkscape:collect="always"
       xlink:href="#linearGradient4213-7"
       id="linearGradient7466"
       gradientUnits="userSpaceOnUse"
       x1="2.7713892"
       y1="-28.64156"
       x2="50.527882"
       y2="14.514202" />
    <linearGradient
       id="linearGradient4213-7"
       inkscape:collect="always">
      <stop
         id="stop4215-6"
         offset="0"
         style="stop-color:#ffffff;stop-opacity:1;" />
      <stop
         id="stop4217-5"
         offset="1"
         style="stop-color:#ffffff;stop-opacity:0;" />
    </linearGradient>
    <clipPath
       id="clipPath4156-4"
       clipPathUnits="userSpaceOnUse">
      <path
         inkscape:connector-curvature="0"
         id="path4158-0"
         d="m 27.046336,-55.695463 -14.21366,13.321486 0.06127,0 15.653407,21.770763 10.231384,-10.546177 C 38.561832,-32.30156 27.468089,-54.819245 27.046336,-55.695463 z M 9.6468554,-39.382809 -5.2407289,-25.32124 15.987863,-7.8059573 26.372412,-18.382966 9.6468554,-39.382809 z m 31.4906096,12.951445 -9.741259,9.713584 8.944804,12.4580526 7.780753,-7.5550056 -6.984298,-14.616631 z m -49.8397109,4.378822 -13.7541661,12.9822847 26.2830181,13.84571 0.06127,-0.0617 -0.122531,-0.0617 L 13.598503,-5.4007374 -8.7022409,-22.052595 z m 38.0154159,7.400825 -9.802525,9.7752596 11.579232,9.5594001 7.62759,-7.40083 -8.669108,-11.0087257 -0.735189,-0.925104 z m 20.187073,5.6739697 -7.382526,7.2158 6.187844,8.54179 5.820249,-6.13651996 -4.625567,-9.62107004 z m -32.195166,6.32154 -9.5574606,9.49772 13.6622686,7.1849703 7.933918,-7.6783603 -12.038726,-9.00433 z m 23.311629,2.37443004 -7.10683,6.93826996 8.362778,6.9074403 5.360756,-5.6739699 -0.06127,-0.0925 -0.0919,0.12335 -6.463539,-8.20258036 z m -8.730374,8.54178036 -7.505057,7.3391599 10.353916,5.45811 c 1.397496,-1.32103 5.67514,-6.12292 5.850882,-6.32154 L 31.886332,8.2600031 z"
         style="opacity:0.6;fill:#ffffff;fill-opacity:1;stroke:none" />
    </clipPath>
    <linearGradient
       gradientTransform="matrix(3.5300904,0,0,2.5495098,16,18)"
       gradientUnits="userSpaceOnUse"
       xlink:href="#linearGradient4281-6-89"
       id="linearGradient4057"
       y2="19.219381"
       x2="7.9406605"
       y1="5.0990195"
       x1="7.9406605" />
    <linearGradient
       id="linearGradient4281-6-89">
      <stop
         offset="0"
         style="stop-color:#1e1e1e;stop-opacity:1"
         id="stop4283-9-4" />
      <stop
         offset="1"
         style="stop-color:#505050;stop-opacity:1"
         id="stop4285-8-1" />
    </linearGradient>
    <linearGradient
       gradientTransform="matrix(3.5300904,0,0,2.5495098,16,18)"
       gradientUnits="userSpaceOnUse"
       xlink:href="#linearGradient4281-6-89-2"
       id="linearGradient4057-3"
       y2="19.219381"
       x2="7.9406605"
       y1="5.0990195"
       x1="7.9406605" />
    <linearGradient
       id="linearGradient4281-6-89-2">
      <stop
         offset="0"
         style="stop-color:#1e1e1e;stop-opacity:1"
         id="stop4283-9-4-4" />
      <stop
         offset="1"
         style="stop-color:#505050;stop-opacity:1"
         id="stop4285-8-1-5" />
    </linearGradient>
    <linearGradient
       gradientTransform="translate(-100,0)"
       gradientUnits="userSpaceOnUse"
       xlink:href="#linearGradient4281-6-20"
       id="linearGradient3156-2"
       y2="68"
       x2="38"
       y1="28"
       x1="38" />
    <linearGradient
       id="linearGradient4281-6-20">
      <stop
         offset="0"
         style="stop-color:#1e1e1e;stop-opacity:1"
         id="stop4283-9-1" />
      <stop
         offset="1"
         style="stop-color:#505050;stop-opacity:1"
         id="stop4285-8-7" />
    </linearGradient>
    <linearGradient
       gradientTransform="scale(1.0058652,0.994169)"
       gradientUnits="userSpaceOnUse"
       id="ButtonShadow-4"
       y2="7.0165396"
       x2="45.447727"
       y1="92.539597"
       x1="45.447727">
      <stop
         offset="0"
         style="stop-color:#000000;stop-opacity:1"
         id="stop3750-15" />
      <stop
         offset="1"
         style="stop-color:#000000;stop-opacity:0.58823532"
         id="stop3752-24" />
    </linearGradient>
    <filter
       id="filter3174-80"
       color-interpolation-filters="sRGB">
      <feGaussianBlur
         stdDeviation="1.71"
         id="feGaussianBlur3176-2" />
    </filter>
    <linearGradient
       gradientUnits="userSpaceOnUse"
       xlink:href="#linearGradient3737-34"
       id="linearGradient3613-5"
       y2="138.66119"
       x2="48"
       y1="20.220806"
       x1="48" />
    <linearGradient
       id="linearGradient3737-34">
      <stop
         offset="0"
         style="stop-color:#ffffff;stop-opacity:1"
         id="stop3739-44" />
      <stop
         offset="1"
         style="stop-color:#ffffff;stop-opacity:0"
         id="stop3741-61" />
    </linearGradient>
    <clipPath
       id="clipPath3613-61">
      <rect
         style="fill:#ffffff;fill-opacity:1;fill-rule:nonzero;stroke:none"
         id="rect3615-83"
         y="6"
         x="6"
         ry="6"
         rx="6"
         height="84"
         width="84" />
    </clipPath>
    <filter
       id="filter3794-5"
       color-interpolation-filters="sRGB"
       height="1.3839999"
       width="1.3839999"
       y="-0.192"
       x="-0.192">
      <feGaussianBlur
         stdDeviation="5.28"
         id="feGaussianBlur3796-1" />
    </filter>
    <linearGradient
       inkscape:collect="always"
       xlink:href="#linearGradient4281-6-89-5"
       id="linearGradient8062"
       gradientUnits="userSpaceOnUse"
       gradientTransform="translate(-90,0)"
       x1="38"
       y1="28"
       x2="38"
       y2="68" />
    <linearGradient
       id="linearGradient4281-6-89-5">
      <stop
         offset="0"
         style="stop-color:#1e1e1e;stop-opacity:1"
         id="stop4283-9-4-47" />
      <stop
         offset="1"
         style="stop-color:#505050;stop-opacity:1"
         id="stop4285-8-1-4" />
    </linearGradient>
    <linearGradient
       gradientTransform="scale(1.0058652,0.994169)"
       gradientUnits="userSpaceOnUse"
       id="ButtonShadow"
       y2="7.0165396"
       x2="45.447727"
       y1="92.539597"
       x1="45.447727">
      <stop
         offset="0"
         style="stop-color:#000000;stop-opacity:1"
         id="stop3750" />
      <stop
         offset="1"
         style="stop-color:#000000;stop-opacity:0.58823532"
         id="stop3752" />
    </linearGradient>
    <filter
       id="filter3174"
       color-interpolation-filters="sRGB">
      <feGaussianBlur
         stdDeviation="1.71"
         id="feGaussianBlur3176" />
    </filter>
    <linearGradient
       gradientUnits="userSpaceOnUse"
       xlink:href="#linearGradient3737"
       id="linearGradient3613"
       y2="138.66119"
       x2="48"
       y1="20.220806"
       x1="48" />
    <linearGradient
       id="linearGradient3737">
      <stop
         offset="0"
         style="stop-color:#ffffff;stop-opacity:1"
         id="stop3739" />
      <stop
         offset="1"
         style="stop-color:#ffffff;stop-opacity:0"
         id="stop3741" />
    </linearGradient>
    <clipPath
       id="clipPath3613">
      <rect
         style="fill:#ffffff;fill-opacity:1;fill-rule:nonzero;stroke:none"
         id="rect3615"
         y="6"
         x="6"
         ry="6"
         rx="6"
         height="84"
         width="84" />
    </clipPath>
    <filter
       id="filter3794"
       color-interpolation-filters="sRGB"
       height="1.3839999"
       width="1.3839999"
       y="-0.192"
       x="-0.192">
      <feGaussianBlur
         stdDeviation="5.28"
         id="feGaussianBlur3796" />
    </filter>
    <linearGradient
       gradientTransform="translate(4,-4)"
       gradientUnits="userSpaceOnUse"
       xlink:href="#linearGradient4281-6"
       id="linearGradient3935"
       y2="68"
       x2="38"
       y1="36"
       x1="38" />
    <linearGradient
       id="linearGradient4281-6">
      <stop
         offset="0"
         style="stop-color:#1e1e1e;stop-opacity:1"
         id="stop4283-9" />
      <stop
         offset="1"
         style="stop-color:#505050;stop-opacity:1"
         id="stop4285-8" />
    </linearGradient>
    <linearGradient
       inkscape:collect="always"
       xlink:href="#linearGradient6139-0-3"
       id="linearGradient4071"
       gradientUnits="userSpaceOnUse"
       gradientTransform="matrix(1.1071428,0,0,1.1071426,-4.9939026,-3.620687)"
       x1="6"
       y1="47.000011"
       x2="90"
       y2="47.000011" />
    <linearGradient
       id="linearGradient6139-0-3">
      <stop
         id="stop6141-2-6"
         offset="0"
         style="stop-color:#b2babc;stop-opacity:1" />
      <stop
         style="stop-color:#ffffff;stop-opacity:1;"
         offset="0.25"
         id="stop6151-0-7" />
      <stop
         style="stop-color:#96a1a4;stop-opacity:1"
         offset="0.5"
         id="stop6147-1-5" />
      <stop
         id="stop6149-4-3"
         offset="0.75"
         style="stop-color:#f9fafb;stop-opacity:1;" />
      <stop
         id="stop6143-4-5"
         offset="1"
         style="stop-color:#b2b9bc;stop-opacity:1" />
    </linearGradient>
    <linearGradient
       gradientTransform="translate(0.1489535,0.415026)"
       inkscape:collect="always"
       xlink:href="#linearGradient3832-0-6-1-1"
       id="linearGradient4129"
       x1="1.5"
       y1="88.171875"
       x2="94.5"
       y2="88.171875"
       gradientUnits="userSpaceOnUse" />
    <radialGradient
       inkscape:collect="always"
       xlink:href="#linearGradient3888-8-4-8-6"
       id="radialGradient7462-2"
       gradientUnits="userSpaceOnUse"
       gradientTransform="matrix(0.97513378,0,0,0.04919072,34.047649,80.581722)"
       cx="13.948145"
       cy="44.892841"
       fx="13.948145"
       fy="44.892841"
       r="43.199203" />
    <radialGradient
       inkscape:collect="always"
       xlink:href="#linearGradient3888-8-4-8-6"
       id="radialGradient7464-9"
       gradientUnits="userSpaceOnUse"
       gradientTransform="matrix(0.88832663,0,0,0.04919072,31.959518,-90.31726)"
       cx="13.948145"
       cy="44.892841"
       fx="13.948145"
       fy="44.892841"
       r="43.199203" />
    <linearGradient
       inkscape:collect="always"
       xlink:href="#linearGradient3888-8-4-8-6"
       id="linearGradient4767"
       gradientUnits="userSpaceOnUse"
       x1="2.7713892"
       y1="-28.64156"
       x2="50.527882"
       y2="14.514202" />
    <clipPath
       id="clipPath4156-4-1"
       clipPathUnits="userSpaceOnUse">
      <path
         inkscape:connector-curvature="0"
         id="path4158-0-8"
         d="m 27.046336,-55.695463 -14.21366,13.321486 h 0.06127 l 15.653407,21.770763 10.231384,-10.546177 C 38.561832,-32.30156 27.468089,-54.819245 27.046336,-55.695463 Z M 9.6468554,-39.382809 -5.2407289,-25.32124 15.987863,-7.8059573 26.372412,-18.382966 Z m 31.4906096,12.951445 -9.741259,9.713584 8.944804,12.4580526 7.780753,-7.5550056 z m -49.8397109,4.378822 -13.7541661,12.9822847 26.2830181,13.84571 0.06127,-0.0617 -0.122531,-0.0617 L 13.598503,-5.4007374 -8.7022409,-22.052595 Z m 38.0154159,7.400825 -9.802525,9.7752596 11.579232,9.5594001 7.62759,-7.40083 -8.669108,-11.0087257 z m 20.187073,5.6739697 -7.382526,7.2158 6.187844,8.54179 5.820249,-6.13651996 z m -32.195166,6.32154 -9.5574606,9.49772 13.6622686,7.1849703 7.933918,-7.6783603 z m 23.311629,2.37443004 -7.10683,6.93826996 8.362778,6.9074403 5.360756,-5.6739699 -0.06127,-0.0925 -0.0919,0.12335 -6.463539,-8.20258036 z m -8.730374,8.54178036 -7.505057,7.3391599 10.353916,5.45811 c 1.397496,-1.32103 5.67514,-6.12292 5.850882,-6.32154 z"
         style="opacity:0.6;fill:#ffffff;fill-opacity:1;stroke:none" />
    </clipPath>
    <clipPath
       clipPathUnits="userSpaceOnUse"
       id="clipPath4355-7">
      <rect
         style="fill:#ffffff;fill-opacity:1;fill-rule:nonzero;stroke:none"
         id="rect4357-5"
         width="84"
         height="80"
         x="6"
         y="6"
         rx="6"
         ry="6" />
    </clipPath>
    <clipPath
       clipPathUnits="userSpaceOnUse"
       id="clipPath4355-9">
      <rect
         style="fill:#ffffff;fill-opacity:1;fill-rule:nonzero;stroke:none"
         id="rect4357-1"
         width="84"
         height="80"
         x="6"
         y="6"
         rx="6"
         ry="6" />
    </clipPath>
    <clipPath
       clipPathUnits="userSpaceOnUse"
       id="clipPath4355-1">
      <rect
         style="fill:#ffffff;fill-opacity:1;fill-rule:nonzero;stroke:none"
         id="rect4357-9"
         width="84"
         height="80"
         x="6"
         y="6"
         rx="6"
         ry="6" />
    </clipPath>
    <clipPath
       clipPathUnits="userSpaceOnUse"
       id="clipPath3943-52-0">
      <path
         id="path3945-4-1"
         d="m 69.78125,20.84375 -5,3.4375 c 5.586891,5.537137 9,13.327613 9,21.8125 0,8.434478 -3.37723,16.095981 -8.90625,21.625 l 5,3.4375 C 76.078226,64.5762 80,55.843726 80,46.09375 c 2e-6,-9.796556 -3.962955,-18.660417 -10.21875,-25.25 z M 40,24.0625 28.90625,36.21875 H 21.5 c -0.823281,0 -1.5,0.676717 -1.5,1.5 v 1 14.84375 1 c 0,0.823281 0.684121,1.610161 1.5,1.5 h 7.40625 L 40,68 V 66 26.0625 Z m 20.59375,3.28125 -5,3.4375 L 55.5,30.875 c 3.93815,3.890071 6.40625,9.25018 6.40625,15.21875 0,5.920869 -2.42961,11.148358 -6.3125,15.03125 l 0.09375,0.09375 5.09375,3.4375 c 4.475428,-4.908367 7.25,-11.402005 7.25,-18.5625 0,-7.230696 -2.87904,-13.83107 -7.4375,-18.75 z m -9.25,6.5 -5.21875,3.625 c 2.222384,2.217802 3.71875,5.239596 3.71875,8.625 0,3.336509 -1.458847,6.227712 -3.625,8.4375 l 5.21875,3.625 c 2.822412,-3.236947 4.53125,-7.43414 4.53125,-12.0625 0,-4.672601 -1.754155,-9.001351 -4.625,-12.25 z"
         style="color:#000000;display:inline;overflow:visible;visibility:visible;opacity:0.8;fill:#ff00ff;fill-opacity:1;fill-rule:nonzero;stroke:none;stroke-width:1;marker:none;enable-background:accumulate"
         inkscape:connector-curvature="0" />
    </clipPath>
    <filter
       style="color-interpolation-filters:sRGB"
       id="filter3174-3">
      <feGaussianBlur
         stdDeviation="1.71"
         id="feGaussianBlur3176-7" />
    </filter>
    <clipPath
       id="clipPath3613-8">
      <rect
         style="fill:#ffffff;fill-opacity:1;fill-rule:nonzero;stroke:none"
         id="rect3615-9"
         y="6"
         x="6"
         ry="6"
         rx="6"
         height="84"
         width="84" />
    </clipPath>
    <filter
       style="color-interpolation-filters:sRGB"
       id="filter3794-7"
       height="1.3839999"
       width="1.3839999"
       y="-0.192"
       x="-0.192">
      <feGaussianBlur
         stdDeviation="5.28"
         id="feGaussianBlur3796-3" />
    </filter>
  </defs>
  <sodipodi:namedview
     id="base"
     pagecolor="#ffffff"
     bordercolor="#666666"
     borderopacity="1.0"
     inkscape:pageopacity="0.0"
     inkscape:pageshadow="2"
     inkscape:zoom="2.882634"
     inkscape:cx="15.425383"
     inkscape:cy="29.22476"
     inkscape:current-layer="g2574"
     showgrid="true"
     inkscape:document-units="px"
     inkscape:grid-bbox="true"
     inkscape:showpageshadow="false"
     gridtolerance="1"
     guidetolerance="1"
     objecttolerance="1"
     inkscape:window-width="1280"
     inkscape:window-height="971"
     inkscape:window-x="0"
     inkscape:window-y="25"
     inkscape:window-maximized="1" />
  <metadata
     id="metadata7">
    <rdf:RDF>
      <cc:Work
         rdf:about="">
        <dc:format>image/svg+xml</dc:format>
        <dc:type
           rdf:resource="http://purl.org/dc/dcmitype/StillImage" />
        <dc:title />
      </cc:Work>
    </rdf:RDF>
  </metadata>
  <g
     id="layer1"
     inkscape:label="Layer 1"
     inkscape:groupmode="layer"
     transform="translate(0,32)">
    <g
       transform="translate(-8.0439584,-17.334439)"
       id="g7008">
      <g
         transform="translate(8.0439584,-1041.1853)"
         id="layer1-6"
         inkscape:label="Livello 1">
        <g
           id="g2574"
           style="display:inline"
           transform="translate(-0.14895645,1026.1047)">
          <path
             style="display:inline;opacity:0.15;fill:#000000;fill-opacity:1;fill-rule:nonzero;stroke:none"
             d="m 89.29181,0.415026 -82.2857189,0 c -3.798848,0 -6.8571352,3.058285 -6.8571352,6.8571399 l 0,82.2857181 c 0,3.798857 3.0582872,6.857142 6.8571352,6.857142 l 82.2857189,0 c 3.798857,0 6.857147,-3.058285 6.857147,-6.857142 l 0,-82.2857181 c 0,-3.7988549 -3.05829,-6.8571399 -6.857147,-6.8571399 z"
             id="path3288-0"
             inkscape:connector-curvature="0" />
          <path
             inkscape:connector-curvature="0"
             id="path4085-6"
             d="m 88.648954,1.165026 -81.0000069,0 c -3.739492,0 -6.749993,3.010499 -6.749993,6.7499969 l 0,81.0000031 c 0,3.739501 3.010501,6.75 6.749993,6.75 l 81.0000069,0 c 3.739503,0 6.750003,-3.010499 6.750003,-6.75 l 0,-81.0000031 c 0,-3.7394979 -3.0105,-6.7499969 -6.750003,-6.7499969 z"
             style="display:inline;opacity:0.15;fill:#000000;fill-opacity:1;fill-rule:nonzero;stroke:none" />
          <path
             style="display:inline;fill:url(#linearGradient4071);fill-opacity:1;fill-rule:nonzero;stroke:none"
             d="m 88.006093,1.915026 -79.7142819,0 c -3.680143,0 -6.6428566,2.962713 -6.6428566,6.6428549 l 0,79.7142901 c 0,3.680142 2.9627136,6.642856 6.6428566,6.642856 l 79.7142819,0 c 3.680143,0 6.642854,-2.962714 6.642854,-6.642856 l 0,-79.7142901 c 0,-3.6801419 -2.962711,-6.6428549 -6.642854,-6.6428549 z"
             id="rect4251-1-2"
             inkscape:connector-curvature="0" />
          <path
             style="display:inline;opacity:0.77864583;fill:#f5f3f3;fill-opacity:1;fill-rule:nonzero;stroke:none;stroke-width:1.02950251"
             d="m 11.390247,6.8021682 c -2.8564964,0 -5.1241284,2.2883782 -5.1241284,5.1710028 l 0,21.42734 0,7.239403 0,39.913674 c 1.0972399,1.684484 2.9688485,2.811732 5.1241284,2.811732 l 4.099303,0 65.588849,0 4.099302,0 c 2.155281,0 4.026889,-1.127248 5.124129,-2.811732 l 0,-39.913674 0,-7.239403 0,-21.42734 c 0,-2.8826246 -2.267632,-5.1710028 -5.124129,-5.1710028 z"
             id="path3400-6-6"
             inkscape:connector-curvature="0"
             sodipodi:nodetypes="sscccsccscccsss" />
          <path
             inkscape:connector-curvature="0"
             id="path4989-1"
             d="m 9.9740341,5.1444869 c -3.116621,0 -5.667965,2.53951 -5.667965,5.6460041 l 0,69.277996 c 0,3.106495 2.551344,5.646004 5.667965,5.646004 l 76.7917849,0 c 3.116621,0 5.667968,-2.539509 5.667968,-5.646004 l 0,-69.277996 c 0,-3.1064931 -2.551347,-5.6460041 -5.667968,-5.6460041 z m 0,2.319439 76.7917849,0 c 1.888099,0 3.352022,1.480095 3.352022,3.3265651 l 0,69.277996 c 0,1.846474 -1.463923,3.326564 -3.352022,3.326564 l -76.7917849,0 c -1.888099,0 -3.352022,-1.48009 -3.352022,-3.326564 l 0,-69.277996 c 0,-1.8464701 1.463923,-3.3265651 3.352022,-3.3265651 z"
             style="color:#000000;font-style:normal;font-variant:normal;font-weight:normal;font-stretch:normal;font-size:medium;line-height:normal;font-family:Sans;-inkscape-font-specification:Sans;text-indent:0;text-align:start;text-decoration:none;text-decoration-line:none;letter-spacing:normal;word-spacing:normal;text-transform:none;direction:ltr;writing-mode:lr-tb;baseline-shift:baseline;text-anchor:start;display:inline;overflow:visible;visibility:visible;fill:#1f2224;fill-opacity:0.63265303;stroke:none;stroke-width:2.3755002;marker:none;enable-background:accumulate" />
          <path
             inkscape:connector-curvature="0"
             style="display:inline;opacity:0.65818182;fill:url(#linearGradient4129);fill-opacity:1;fill-rule:nonzero;stroke:none"
             d="m 1.6489535,82.258776 0,6 c 0,3.680142 2.9761066,6.65625 6.6562496,6.65625 l 79.6874999,0 c 3.680143,0 6.656254,-2.976108 6.656254,-6.65625 l 0,-6 c 0,3.680142 -2.976111,6.65625 -6.656254,6.65625 l -79.6874999,0 c -3.680143,0 -6.6562496,-2.976108 -6.6562496,-6.65625 z"
             id="path4118-8" />
          <rect
             style="opacity:0.55;fill:url(#radialGradient7462-2);fill-opacity:1;stroke:none"
             id="rect4131-7"
             width="84.250008"
             height="4.25"
             x="5.5239539"
             y="80.665031"
             rx="0"
             ry="4.25" />
          <rect
             ry="4.25"
             rx="0"
             y="-90.233963"
             x="5.9750223"
             height="4.25"
             width="76.75"
             id="rect4141-9"
             style="opacity:0.669;fill:url(#radialGradient7464-9);fill-opacity:1;stroke:none"
             transform="matrix(0,1,-1,0,0,0)" />
          <g
             id="g3606"
             transform="matrix(1.5757033,0,0,1.5570038,482.86247,48.329228)">
            <g
               style="display:none"
               id="layer2">
              <rect
                 style="opacity:0.9;fill:url(#ButtonShadow-4);fill-opacity:1;fill-rule:nonzero;stroke:none;filter:url(#filter3174-3)"
                 id="rect3745"
                 y="7"
                 x="5"
                 ry="6"
                 rx="6"
                 height="85"
                 width="86" />
            </g>
            <g
               style="display:none"
               id="layer5">
              <rect
                 style="opacity:0.3;fill:url(#linearGradient3613-5);fill-opacity:1;fill-rule:nonzero;stroke:#ffffff;stroke-width:0.5;stroke-linecap:round;stroke-linejoin:miter;stroke-miterlimit:4;stroke-dasharray:none;stroke-dashoffset:0;stroke-opacity:1;filter:url(#filter3794-7)"
                 id="rect3171"
                 clip-path="url(#clipPath3613-8)"
                 y="15"
                 x="15"
                 ry="12"
                 rx="12"
                 height="66"
                 width="66" />
            </g>
            <g
               style="display:inline"
               id="layer4"
               transform="translate(-323.88678,-48.440545)">
              <path
                 style="color:#000000;display:inline;overflow:visible;visibility:visible;fill:url(#linearGradient3935);fill-opacity:1;fill-rule:nonzero;stroke:none;stroke-width:2;marker:none;enable-background:accumulate"
                 id="rect3156"
                 inkscape:connector-curvature="0"
                 d="m 47.8125,32 a 1.4014154,0.99727206 0 0 0 -1.03125,0.5 L 32.1875,50.5 A 1.4014154,0.99727206 0 0 0 32,50.96875 1.4014154,0.99727206 0 0 0 33.40625,52 l 29.1875,0 A 1.4014154,0.99727206 0 0 0 63.8125,50.5 L 49.21875,32.5 A 1.4014154,0.99727206 0 0 0 47.8125,32 Z M 34,56 c -1.108,0 -2,0.892 -2,2 l 0,4 c 0,1.108 0.892,2 2,2 l 28,0 c 1.108,0 2,-0.892 2,-2 l 0,-4 c 0,-1.108 -0.892,-2 -2,-2 l -28,0 z" />
              <path
                 style="color:#000000;display:inline;overflow:visible;visibility:visible;opacity:0.6;fill:#ffffff;fill-opacity:1;fill-rule:nonzero;stroke:none;stroke-width:2;marker:none;enable-background:accumulate"
                 id="path3970"
                 inkscape:connector-curvature="0"
                 d="M 32.1875,51.5 A 1.4014154,0.99727206 0 0 0 32,51.96875 1.4014154,0.99727206 0 0 0 33.40625,53 l 29.1875,0 A 1.4014154,0.99727206 0 0 0 63.8125,51.5 1.4014154,0.99727206 0 0 1 62.59375,52 l -29.1875,0 A 1.4014154,0.99727206 0 0 1 32.1875,51.5 Z M 32,62 l 0,1 c 0,1.108 0.892,2 2,2 l 28,0 c 1.108,0 2,-0.892 2,-2 l 0,-1 c 0,1.108 -0.892,2 -2,2 l -28,0 c -1.108,0 -2,-0.892 -2,-2 z" />
              <path
                 style="color:#000000;display:inline;overflow:visible;visibility:visible;opacity:0.6;fill:#000000;fill-opacity:1;fill-rule:nonzero;stroke:none;stroke-width:2;marker:none;enable-background:accumulate"
                 id="path3979"
                 inkscape:connector-curvature="0"
                 d="m 47.8125,32 a 1.4014154,0.99727206 0 0 0 -1.03125,0.5 L 32.1875,50.5 A 1.4014154,0.99727206 0 0 0 32,50.96875 1.4014154,0.99727206 0 0 0 32.1875,51.5 l 14.59375,-18 a 1.4014154,0.99727206 0 0 1 1.03125,-0.5 1.4014154,0.99727206 0 0 1 1.40625,0.5 l 14.59375,18 a 1.4014154,0.99727206 0 0 0 0,-1 L 49.21875,32.5 A 1.4014154,0.99727206 0 0 0 47.8125,32 Z M 34,56 c -1.108,0 -2,0.892 -2,2 l 0,1 c 0,-1.108 0.892,-2 2,-2 l 28,0 c 1.108,0 2,0.892 2,2 l 0,-1 c 0,-1.108 -0.892,-2 -2,-2 l -28,0 z" />
              <path
                 style="color:#000000;display:inline;overflow:visible;visibility:visible;opacity:0.2;fill:#000000;fill-opacity:1;fill-rule:nonzero;stroke:none;stroke-width:2;marker:none;enable-background:accumulate"
                 id="path3988"
                 inkscape:connector-curvature="0"
                 d="m 47.8125,32 a 1.4014154,0.99727206 0 0 0 -1.03125,0.5 L 32.1875,50.5 A 1.4014154,0.99727206 0 0 0 32,50.96875 1.4014154,0.99727206 0 0 0 33.40625,52 l 29.1875,0 A 1.4014154,0.99727206 0 0 0 63.8125,50.5 L 49.21875,32.5 A 1.4014154,0.99727206 0 0 0 47.8125,32 Z m 0.03125,1 c 0.08006,-0.01467 -0.01848,0.0079 0.0625,0 0.05227,-0.0049 0.01005,0.0022 0.0625,0 0.05245,-0.0022 -0.02124,-6.27e-4 0.03125,0 0.05249,6.27e-4 0.01011,-0.0034 0.0625,0 0.05239,0.0034 0.01036,-0.0062 0.0625,0 0.05214,0.0062 -0.02049,-0.009 0.03125,0 0.05174,0.009 0.01131,0.0194 0.0625,0.03125 0.05119,0.01185 -0.01924,-0.01472 0.03125,0 0.05049,0.01472 -0.01838,-0.01765 0.03125,0 0.04963,0.01765 -0.01736,0.01062 0.03125,0.03125 0.04861,0.02063 -0.01615,-0.02369 0.03125,0 0.0474,0.02369 -0.01474,0.0044 0.03125,0.03125 0.04599,0.02683 -0.0131,-0.03006 0.03125,0 0.04245,0.0334 -0.009,-0.0056 0.03125,0.03125 L 62.875,50.9375 c -0.04397,0.01529 0.01338,0.01824 -0.03125,0.03125 -0.04463,0.01301 0.01393,-0.01076 -0.03125,0 -0.04518,0.01076 0.01438,-0.0085 -0.03125,0 -0.09126,0.01708 -0.0013,0.02295 -0.09375,0.03125 -0.09244,0.0083 -9.49e-4,3.98e-4 -0.09375,0 l -29.1875,0 c -0.07093,2.03e-4 0.0083,0.0049 -0.0625,0 -0.07076,-0.0049 0.0077,0.01 -0.0625,0 -0.07023,-0.01 0.0068,-0.01611 -0.0625,-0.03125 -0.06935,-0.01514 0.0056,0.02038 -0.0625,0 C 33.1154,50.95652 33.12212,50.93685 33.125,50.9375 L 47.5625,33.125 c 0.03175,-0.02769 -0.0018,-0.0056 0.03125,-0.03125 0.03418,-0.02364 -0.004,0.02168 0.03125,0 0.03611,-0.01977 -0.0057,-0.01335 0.03125,-0.03125 0.03692,-0.0179 -0.0064,0.01607 0.03125,0 0.03764,-0.01607 -0.007,-0.01698 0.03125,-0.03125 0.07654,-0.02854 -0.04734,0.02152 0.03125,0 C 47.82859,33.00973 47.76369,33.01467 47.84375,33 Z M 34,56 c -1.108,0 -2,0.892 -2,2 l 0,4 c 0,1.108 0.892,2 2,2 l 28,0 c 1.108,0 2,-0.892 2,-2 l 0,-4 c 0,-1.108 -0.892,-2 -2,-2 l -28,0 z m 0,1 28,0 c 0.569084,0 1,0.430916 1,1 l 0,4 c 0,0.569084 -0.430916,1 -1,1 l -28,0 c -0.569084,0 -1,-0.430916 -1,-1 l 0,-4 c 0,-0.569084 0.430916,-1 1,-1 z" />
              <path
                 style="color:#000000;display:inline;overflow:visible;visibility:visible;opacity:0.2;fill:#000000;fill-opacity:1;fill-rule:nonzero;stroke:none;stroke-width:2;marker:none;enable-background:accumulate"
                 id="path3992"
                 inkscape:connector-curvature="0"
                 d="m 47.8125,32 a 1.4014154,0.99727206 0 0 0 -1.03125,0.5 L 32.1875,50.5 A 1.4014154,0.99727206 0 0 0 32,50.96875 1.4014154,0.99727206 0 0 0 33.40625,52 l 29.1875,0 A 1.4014154,0.99727206 0 0 0 63.8125,50.5 L 49.21875,32.5 A 1.4014154,0.99727206 0 0 0 47.8125,32 Z M 48,33.875 l 13.1875,16.28125 -26.375,0 L 48,33.875 Z M 34,56 c -1.108,0 -2,0.892 -2,2 l 0,4 c 0,1.108 0.892,2 2,2 l 28,0 c 1.108,0 2,-0.892 2,-2 l 0,-4 c 0,-1.108 -0.892,-2 -2,-2 l -28,0 z m 0,1.84375 28,0 c 0.126038,0 0.15625,0.03021 0.15625,0.15625 l 0,4 c 0,0.126038 -0.03021,0.15625 -0.15625,0.15625 l -28,0 c -0.126038,0 -0.15625,-0.03021 -0.15625,-0.15625 l 0,-4 c 0,-0.126038 0.03021,-0.15625 0.15625,-0.15625 z" />
            </g>
          </g>
          <rect
             transform="matrix(1.0692451,0,0,1.0476829,4.4441802,38.894013)"
             style="opacity:0.5078125;fill:url(#linearGradient4767);fill-opacity:1;stroke:none"
             id="rect4146-2"
             width="75.965775"
             height="69.024437"
             x="2"
             y="-30"
             rx="3.9569874"
             ry="3.9569881"
             clip-path="url(#clipPath4156-4-1)" />
        </g>
      </g>
    </g>
  </g>
</svg>
