<?xml version="1.0" encoding="UTF-8" standalone="no"?>
<!-- Created with Inkscape (http://www.inkscape.org/) -->

<svg
   xmlns:dc="http://purl.org/dc/elements/1.1/"
   xmlns:cc="http://creativecommons.org/ns#"
   xmlns:rdf="http://www.w3.org/1999/02/22-rdf-syntax-ns#"
   xmlns:svg="http://www.w3.org/2000/svg"
   xmlns="http://www.w3.org/2000/svg"
   xmlns:xlink="http://www.w3.org/1999/xlink"
   xmlns:sodipodi="http://sodipodi.sourceforge.net/DTD/sodipodi-0.dtd"
   xmlns:inkscape="http://www.inkscape.org/namespaces/inkscape"
   width="96"
   height="96"
   viewBox="0 0 96.000001 96.000004"
   version="1.1"
   id="svg1072"
   inkscape:version="0.92.1 r15371"
   sodipodi:docname="document-import.svg">
  <defs
     id="defs1066">
    <linearGradient
       y2="47.000011"
       x2="90"
       y1="47.000011"
       x1="6"
       gradientTransform="matrix(1.1071428,0,0,1.1071426,-4.9939026,-3.620687)"
       gradientUnits="userSpaceOnUse"
       id="linearGradient4071"
       xlink:href="#linearGradient6139-0"
       inkscape:collect="always" />
    <linearGradient
       id="linearGradient6139-0">
      <stop
         style="stop-color:#adb9c1;stop-opacity:1;"
         offset="0"
         id="stop6141-2" />
      <stop
         id="stop6151-0"
         offset="0.25"
         style="stop-color:#ffffff;stop-opacity:1;" />
      <stop
         id="stop6147-1"
         offset="0.5"
         style="stop-color:#90a2aa;stop-opacity:1;" />
      <stop
         style="stop-color:#f9fafb;stop-opacity:1;"
         offset="0.75"
         id="stop6149-4" />
      <stop
         style="stop-color:#adb9c1;stop-opacity:1;"
         offset="1"
         id="stop6143-4" />
    </linearGradient>
    <linearGradient
       gradientUnits="userSpaceOnUse"
       y2="88.171875"
       x2="94.5"
       y1="88.171875"
       x1="1.5"
       id="linearGradient4129"
       xlink:href="#linearGradient3832-0-6-1-1"
       inkscape:collect="always"
       gradientTransform="translate(0.1489535,0.415026)" />
    <linearGradient
       id="linearGradient3832-0-6-1-1">
      <stop
         id="stop3834-6-3-7-1"
         offset="0"
         style="stop-color:#000000;stop-opacity:1;" />
      <stop
         style="stop-color:#000000;stop-opacity:0.58823532;"
         offset="0.1"
         id="stop3872-2-4" />
      <stop
         id="stop3844-6-2-7-6"
         offset="0.89999998"
         style="stop-color:#000000;stop-opacity:0.58823532;" />
      <stop
         id="stop3836-5-0-2-9"
         offset="1"
         style="stop-color:#000000;stop-opacity:1;" />
    </linearGradient>
    <radialGradient
       r="43.199203"
       fy="44.892841"
       fx="13.948145"
       cy="44.892841"
       cx="13.948145"
       gradientTransform="matrix(0.97513378,0,0,0.04919072,34.047649,80.581722)"
       gradientUnits="userSpaceOnUse"
       id="radialGradient7462"
       xlink:href="#linearGradient3737"
       inkscape:collect="always" />
    <linearGradient
       id="linearGradient3737">
      <stop
         id="stop3739"
         style="stop-color:#ffffff;stop-opacity:1"
         offset="0" />
      <stop
         id="stop3741"
         style="stop-color:#ffffff;stop-opacity:0"
         offset="1" />
    </linearGradient>
    <radialGradient
       r="43.199203"
       fy="44.892841"
       fx="13.948145"
       cy="44.892841"
       cx="13.948145"
       gradientTransform="matrix(0.88832663,0,0,0.04919072,31.959518,-90.31726)"
       gradientUnits="userSpaceOnUse"
       id="radialGradient7464"
       xlink:href="#linearGradient3737"
       inkscape:collect="always" />
    <linearGradient
       y2="14.514202"
       x2="50.527882"
       y1="-28.64156"
       x1="2.7713892"
       gradientUnits="userSpaceOnUse"
       id="linearGradient4767"
       xlink:href="#linearGradient3737"
       inkscape:collect="always" />
    <clipPath
       clipPathUnits="userSpaceOnUse"
       id="clipPath4156-4-1">
      <path
         style="opacity:0.6;fill:#ffffff;fill-opacity:1;stroke:none"
         d="m 27.046336,-55.695463 -14.21366,13.321486 h 0.06127 l 15.653407,21.770763 10.231384,-10.546177 C 38.561832,-32.30156 27.468089,-54.819245 27.046336,-55.695463 Z M 9.6468554,-39.382809 -5.2407289,-25.32124 15.987863,-7.8059573 26.372412,-18.382966 Z m 31.4906096,12.951445 -9.741259,9.713584 8.944804,12.4580526 7.780753,-7.5550056 z m -49.8397109,4.378822 -13.7541661,12.9822847 26.2830181,13.84571 0.06127,-0.0617 -0.122531,-0.0617 L 13.598503,-5.4007374 -8.7022409,-22.052595 Z m 38.0154159,7.400825 -9.802525,9.7752596 11.579232,9.5594001 7.62759,-7.40083 -8.669108,-11.0087257 z m 20.187073,5.6739697 -7.382526,7.2158 6.187844,8.54179 5.820249,-6.13651996 z m -32.195166,6.32154 -9.5574606,9.49772 13.6622686,7.1849703 7.933918,-7.6783603 z m 23.311629,2.37443004 -7.10683,6.93826996 8.362778,6.9074403 5.360756,-5.6739699 -0.06127,-0.0925 -0.0919,0.12335 -6.463539,-8.20258036 z m -8.730374,8.54178036 -7.505057,7.3391599 10.353916,5.45811 c 1.397496,-1.32103 5.67514,-6.12292 5.850882,-6.32154 z"
         id="path4158-0-8"
         inkscape:connector-curvature="0" />
    </clipPath>
    <linearGradient
       inkscape:collect="always"
       xlink:href="#ButtonShadow-0"
       id="linearGradient1514"
       gradientUnits="userSpaceOnUse"
       x1="48"
       y1="74"
       x2="48"
       y2="21.913534"
       gradientTransform="matrix(1.1140836,0,0,1.1140836,-94.185815,-76.70417)" />
    <linearGradient
       x1="45.447727"
       y1="92.539597"
       x2="45.447727"
       y2="7.0165396"
       id="ButtonShadow-0"
       gradientUnits="userSpaceOnUse"
       gradientTransform="matrix(1.0058652,0,0,0.994169,100,0)">
      <stop
         id="stop3750-8"
         style="stop-color:#000000;stop-opacity:1"
         offset="0" />
      <stop
         id="stop3752-5"
         style="stop-color:#000000;stop-opacity:0.58823532"
         offset="1" />
    </linearGradient>
  </defs>
  <sodipodi:namedview
     id="base"
     pagecolor="#ffffff"
     bordercolor="#666666"
     borderopacity="1.0"
     inkscape:pageopacity="0.0"
     inkscape:pageshadow="2"
     inkscape:zoom="2.5117022"
     inkscape:cx="-14.498534"
     inkscape:cy="48"
     inkscape:document-units="px"
     inkscape:current-layer="g2574"
     showgrid="false"
     inkscape:showpageshadow="false"
     units="px"
     inkscape:lockguides="true"
     inkscape:window-width="1280"
     inkscape:window-height="972"
     inkscape:window-x="0"
     inkscape:window-y="26"
     inkscape:window-maximized="1">
    <sodipodi:guide
       position="0,0"
       orientation="0,96"
       id="guide1621"
       inkscape:locked="true" />
    <sodipodi:guide
       position="96.000002,0"
       orientation="-96,0"
       id="guide1623"
       inkscape:locked="true" />
    <sodipodi:guide
       position="96.000002,96.000002"
       orientation="0,-96"
       id="guide1625"
       inkscape:locked="true" />
    <sodipodi:guide
       position="0,96.000002"
       orientation="96,0"
       id="guide1627"
       inkscape:locked="true" />
  </sodipodi:namedview>
  <metadata
     id="metadata1069">
    <rdf:RDF>
      <cc:Work
         rdf:about="">
        <dc:format>image/svg+xml</dc:format>
        <dc:type
           rdf:resource="http://purl.org/dc/dcmitype/StillImage" />
        <dc:title></dc:title>
        <dc:date>2017</dc:date>
        <dc:creator>
          <cc:Agent>
            <dc:title>Cristian Pozzessere &quot;ilnanny&quot;</dc:title>
          </cc:Agent>
        </dc:creator>
        <dc:subject>
          <rdf:Bag>
            <rdf:li>Global language</rdf:li>
          </rdf:Bag>
        </dc:subject>
        <dc:description>Playing with Inkscape on Gnu/Linux O. S.</dc:description>
        <dc:contributor>
          <cc:Agent>
            <dc:title>In the night, alone like a dog.</dc:title>
          </cc:Agent>
        </dc:contributor>
        <cc:license
           rdf:resource="http://creativecommons.org/licenses/by-sa/4.0/" />
      </cc:Work>
      <cc:License
         rdf:about="http://creativecommons.org/licenses/by-sa/4.0/">
        <cc:permits
           rdf:resource="http://creativecommons.org/ns#Reproduction" />
        <cc:permits
           rdf:resource="http://creativecommons.org/ns#Distribution" />
        <cc:requires
           rdf:resource="http://creativecommons.org/ns#Notice" />
        <cc:requires
           rdf:resource="http://creativecommons.org/ns#Attribution" />
        <cc:permits
           rdf:resource="http://creativecommons.org/ns#DerivativeWorks" />
        <cc:requires
           rdf:resource="http://creativecommons.org/ns#ShareAlike" />
      </cc:License>
    </rdf:RDF>
  </metadata>
  <g
     inkscape:label="Livello 1"
     inkscape:groupmode="layer"
     id="layer1"
     transform="translate(0,-1026.5197)">
    <g
       transform="translate(-0.14895645,1026.1047)"
       style="display:inline"
       id="g2574">
      <path
         inkscape:connector-curvature="0"
         id="path3288"
         d="M 89.29181,0.415026 H 7.0060911 c -3.798848,0 -6.8571352,3.058285 -6.8571352,6.8571399 V 89.557884 c 0,3.798857 3.0582872,6.857142 6.8571352,6.857142 H 89.29181 c 3.798857,0 6.857147,-3.058285 6.857147,-6.857142 V 7.2721659 c 0,-3.7988549 -3.05829,-6.8571399 -6.857147,-6.8571399 z"
         style="display:inline;opacity:0.15;fill:#000000;fill-opacity:1;fill-rule:nonzero;stroke:none" />
      <path
         style="display:inline;opacity:0.15;fill:#000000;fill-opacity:1;fill-rule:nonzero;stroke:none"
         d="M 88.648954,1.165026 H 7.6489471 c -3.739492,0 -6.749993,3.010499 -6.749993,6.7499969 V 88.915026 c 0,3.739501 3.010501,6.75 6.749993,6.75 H 88.648954 c 3.739503,0 6.750003,-3.010499 6.750003,-6.75 V 7.9150229 c 0,-3.7394979 -3.0105,-6.7499969 -6.750003,-6.7499969 z"
         id="path4085"
         inkscape:connector-curvature="0" />
      <path
         inkscape:connector-curvature="0"
         id="rect4251-1"
         d="M 88.006093,1.915026 H 8.2918111 c -3.680143,0 -6.6428566,2.962713 -6.6428566,6.6428549 V 88.272171 c 0,3.680142 2.9627136,6.642856 6.6428566,6.642856 H 88.006093 c 3.680143,0 6.642854,-2.962714 6.642854,-6.642856 V 8.5578809 c 0,-3.6801419 -2.962711,-6.6428549 -6.642854,-6.6428549 z"
         style="display:inline;fill:url(#linearGradient4071);fill-opacity:1;fill-rule:nonzero;stroke:none" />
      <path
         sodipodi:nodetypes="sscccsccscccsss"
         inkscape:connector-curvature="0"
         id="path3400-6"
         d="m 11.390247,6.8021682 c -2.8564964,0 -5.1241284,2.2883782 -5.1241284,5.1710028 v 21.42734 7.239403 39.913674 c 1.0972399,1.684484 2.9688485,2.811732 5.1241284,2.811732 h 4.099303 65.588849 4.099302 c 2.155281,0 4.026889,-1.127248 5.124129,-2.811732 V 40.639914 33.400511 11.973171 c 0,-2.8826246 -2.267632,-5.1710028 -5.124129,-5.1710028 z"
         style="display:inline;opacity:0.77864583;fill:#f5f3f3;fill-opacity:1;fill-rule:nonzero;stroke:none;stroke-width:1.02950251" />
      <g
         transform="translate(91.058932,68.534981)"
         style="display:inline"
         id="g1122">
        <path
           sodipodi:nodetypes="cccccccccccccccccccccccccc"
           style="color:#000000;display:inline;overflow:visible;visibility:visible;opacity:0.1;fill:#000000;fill-opacity:1;fill-rule:nonzero;stroke:none;stroke-width:1.11408365;stroke-opacity:1;marker:none;enable-background:accumulate"
           id="path3994"
           inkscape:connector-curvature="0"
           d="m -60.10182,-53.273599 c -4.816317,-0.140953 -8.032595,4.78452 -7.311173,9.24754 0,5.087433 0,10.174866 0,15.262299 -1.710016,-0.175359 -4.455741,-0.165181 -4.456335,2.193352 0.17142,3.676497 -0.33816,7.456763 0.243706,11.071206 0.81174,1.589162 2.843752,1.037851 4.212629,1.183713 0.08989,5.8168165 -0.185644,11.6567615 0.148573,17.4582175 0.730806,4.344044 5.302708,6.474307 9.34046,5.902724 12.450859,-0.0255 24.904345,0.0511 37.353556,-0.03847 4.686542,-0.34966 7.211111,-5.241261 6.563793,-9.52019804 -0.02503,-15.37596246 0.05016,-30.75444846 -0.03776,-46.12882746 -0.318322,-4.679296 -5.155646,-7.299492 -9.451277,-6.631561 -12.202059,0 -24.404117,0 -36.606176,4e-6 z m 3.794847,11.071205 c 10.404713,0.02369 20.848555,-0.04709 31.229156,0.03481 -0.02331,13.375759 0.04657,26.790119 -0.03481,40.1418255 -10.404713,-0.02369 -20.848555,0.04709 -31.229156,-0.03482 0.04694,-4.072853 -0.09381,-8.3333855 0.06963,-12.2897355 0.262025,2.628292 -0.52447,5.4702295 0.382966,7.9726615 1.275066,1.760447 3.620437,0.65445 4.467023,-0.934179 4.207343,-4.7074275 8.769515,-9.2090085 12.766457,-14.0363195 0.671572,-2.488423 -2.387561,-3.651879 -3.598167,-5.381769 -3.687737,-3.536589 -7.128052,-7.455533 -10.95455,-10.772444 -2.003895,-0.901379 -3.629854,1.439316 -3.063729,3.298584 -0.04972,1.747282 0.0973,3.892816 -0.06963,5.405195 0.0242,-4.462577 -0.04782,-8.965506 0.03482,-13.403819 z" />
        <path
           sodipodi:nodetypes="sscccccssccssccssccsscccccssssssscccccccccccccc"
           inkscape:connector-curvature="0"
           style="color:#000000;display:inline;overflow:visible;visibility:visible;opacity:0.15;fill:#000000;fill-opacity:1;fill-rule:nonzero;stroke:none;stroke-width:1.11408365;stroke-opacity:1;marker:none;enable-background:accumulate"
           id="path3990"
           d="m -60.10182,-52.124701 c -3.403023,0 -6.162275,2.807535 -6.162275,6.231905 v 17.094221 c 0.0026,0.546163 0.49829,1.041869 1.044454,1.044453 h 6.684501 c 0.546164,-0.0026 1.04187,-0.49829 1.044454,-1.044453 v -12.25492 -1.114084 c 0,-0.671229 0.512484,-1.183713 1.183713,-1.183713 h 1.114084 28.966174 1.114083 c 0.67123,0 1.183714,0.512484 1.183714,1.183713 v 1.114084 37.8788425 1.114084 c 0,0.67123 -0.512484,1.18371396 -1.183714,1.18371396 h -1.114083 -28.966174 -1.114084 c -0.671229,0 -1.183713,-0.51248396 -1.183713,-1.18371396 v -1.114084 -11.1408365 c -0.0026,-0.546163 -0.49829,-1.041869 -1.044454,-1.044453 h -6.684501 c -0.546164,0.0026 -1.04187,0.49829 -1.044454,1.044453 V 1.6646485 c 0,3.42437 2.759252,6.231905 6.162275,6.231905 h 38.784035 c 3.403023,0 6.162275,-2.807535 6.162275,-6.231905 V -45.892796 c 0,-3.42437 -2.759252,-6.231905 -6.162275,-6.231905 z m 5.918569,15.597171 c -0.51039,0.05351 -0.940372,0.531265 -0.940008,1.044453 v 7.868215 h -14.552717 c -0.546164,0.0026 -1.04187,0.49829 -1.044453,1.044454 v 10.026752 c 0.0026,0.546164 0.498289,1.04187 1.044453,1.044454 h 14.552717 v 7.8682155 c 0.02045,0.824473 1.242724,1.294579 1.810386,0.696302 L -39.94387,-21.417772 c 0.346628,-0.39221 0.330522,-1.052573 -0.03481,-1.427419 l -13.369008,-13.369003 c -0.214513,-0.219957 -0.529313,-0.338007 -0.835563,-0.313336 z" />
        <path
           sodipodi:nodetypes="sscccssccssccssccsscccssssssscccccccc"
           style="color:#000000;display:inline;overflow:visible;visibility:visible;opacity:0.3;fill:#000000;fill-opacity:1;fill-rule:nonzero;stroke:none;stroke-width:1.11408365;stroke-opacity:1;marker:none;enable-background:accumulate"
           id="path3984"
           inkscape:connector-curvature="0"
           d="m -60.10182,-51.080247 c -2.828844,0 -5.117821,2.321869 -5.117821,5.187451 v 17.094221 h 6.684501 v -12.25492 -1.114084 c 0,-1.234404 0.993763,-2.228167 2.228167,-2.228167 h 1.114084 28.966174 1.114083 c 1.234405,0 2.228167,0.993763 2.228167,2.228167 v 1.114084 37.8788425 1.114084 c 0,1.23440496 -0.993762,2.22816696 -2.228167,2.22816696 h -1.114083 -28.966174 -1.114084 c -1.234404,0 -2.228167,-0.993762 -2.228167,-2.22816696 v -1.114084 -11.1408365 h -6.684501 V 1.6646485 c 0,2.865582 2.288977,5.187452 5.117821,5.187452 h 38.784035 c 2.828845,0 5.117822,-2.32187 5.117822,-5.187452 V -45.892796 c 0,-2.865582 -2.288977,-5.187451 -5.117822,-5.187451 z m 6.023015,15.59717 v 8.912669 h -15.597171 v 10.026752 h 15.597171 v 8.9126695 l 13.369003,-14.4830875 z" />
        <path
           sodipodi:nodetypes="sscccssccssccssccsscccssssssscccccccc"
           style="color:#000000;display:inline;overflow:visible;visibility:visible;fill:url(#linearGradient1514);fill-opacity:1;fill-rule:nonzero;stroke:none;stroke-width:1.11408365;stroke-opacity:1;marker:none;enable-background:accumulate"
           id="rect2957"
           inkscape:connector-curvature="0"
           d="m -60.10182,-52.194331 c -2.828844,0 -5.117821,2.321869 -5.117821,5.187452 v 17.09422 h 6.684501 v -12.25492 -1.114083 c 0,-1.234405 0.993763,-2.228167 2.228167,-2.228167 h 1.114084 28.966174 1.114083 c 1.234405,0 2.228167,0.993762 2.228167,2.228167 v 1.114083 37.8788435 1.114083 c 0,1.234405 -0.993762,2.22816796 -2.228167,2.22816796 h -1.114083 -28.966174 -1.114084 c -1.234404,0 -2.228167,-0.99376296 -2.228167,-2.22816796 v -1.114083 -11.1408365 h -6.684501 V 0.55056446 c 0,2.86558304 2.288977,5.18745204 5.117821,5.18745204 h 38.784035 c 2.828845,0 5.117822,-2.321869 5.117822,-5.18745204 V -47.006879 c 0,-2.865583 -2.288977,-5.187452 -5.117822,-5.187452 z m 6.023015,15.59717 v 8.912669 h -15.597171 v 10.026753 h 15.597171 v 8.9126685 l 13.369003,-14.4830865 z" />
        <path
           sodipodi:nodetypes="sscsscsssccccccccccccccccssccsscsccsc"
           style="color:#000000;display:inline;overflow:visible;visibility:visible;opacity:0.75;fill:#eeeeee;fill-opacity:1;fill-rule:nonzero;stroke:none;stroke-width:1.11408365;stroke-opacity:1;marker:none;enable-background:accumulate"
           id="path3198"
           inkscape:connector-curvature="0"
           d="m -60.10182,-52.194331 c -2.828844,0 -5.117821,2.321869 -5.117821,5.187452 v 1.114083 c 0,-2.865582 2.288977,-5.187451 5.117821,-5.187451 h 38.784035 c 2.828845,0 5.117822,2.321869 5.117822,5.187451 v -1.114083 c 0,-2.865583 -2.288977,-5.187452 -5.117822,-5.187452 z m 6.023015,15.59717 v 1.114084 l 12.846776,12.846777 0.522227,-0.591857 z m -15.597171,8.912669 v 1.114084 h 15.597171 v -1.114084 z m 4.456335,12.25492 v 1.114083 h 6.684501 v -1.114083 z m 6.684501,12.2549195 v 1.114084 c 0,1.23440496 0.993763,2.22816696 2.228167,2.22816696 h 1.114084 28.966174 1.114083 c 1.234405,0 2.228167,-0.993762 2.228167,-2.22816696 v -1.114084 c 0,1.234405 -0.993762,2.22816796 -2.228167,2.22816796 h -1.114083 -28.966174 -1.114084 c -1.234404,0 -2.228167,-0.99376296 -2.228167,-2.22816796 z" />
        <path
           sodipodi:nodetypes="sscsccscssccsccccccccccccccccsssscssc"
           style="color:#000000;display:inline;overflow:visible;visibility:visible;opacity:0.15;fill:#000000;fill-opacity:1;fill-rule:nonzero;stroke:none;stroke-width:1.11408365;stroke-opacity:1;marker:none;enable-background:accumulate"
           id="path3975"
           inkscape:connector-curvature="0"
           d="m -56.306973,-46.623913 c -1.234404,0 -2.228167,0.993763 -2.228167,2.228167 v 1.114084 c 0,-1.234405 0.993763,-2.228167 2.228167,-2.228167 h 1.114084 28.966174 1.114083 c 1.234405,0 2.228167,0.993762 2.228167,2.228167 v -1.114084 c 0,-1.234404 -0.993762,-2.228167 -2.228167,-2.228167 h -1.114083 -28.966174 z m -8.912668,15.59717 v 1.114084 h 6.684501 v -1.114084 z m 23.987612,7.276359 -12.846776,13.8912305 v 1.114083 l 13.369003,-14.4830865 z m -28.443947,4.978561 v 1.114084 h 15.597171 v -1.114084 z m 4.456335,18.20830446 v 1.114083 c 0,2.86558304 2.288977,5.18745204 5.117821,5.18745204 h 38.784035 c 2.828845,0 5.117822,-2.321869 5.117822,-5.18745204 v -1.114083 c 0,2.86558204 -2.288977,5.18745204 -5.117822,5.18745204 H -60.10182 c -2.828844,0 -5.117821,-2.32187 -5.117821,-5.18745204 z" />
      </g>
      <path
         style="color:#000000;font-style:normal;font-variant:normal;font-weight:normal;font-stretch:normal;font-size:medium;line-height:normal;font-family:Sans;-inkscape-font-specification:Sans;text-indent:0;text-align:start;text-decoration:none;text-decoration-line:none;letter-spacing:normal;word-spacing:normal;text-transform:none;writing-mode:lr-tb;direction:ltr;baseline-shift:baseline;text-anchor:start;display:inline;overflow:visible;visibility:visible;fill:#1f2224;fill-opacity:0.63265303;stroke:none;stroke-width:2.3755002;marker:none;enable-background:accumulate"
         d="m 9.9740341,5.1444869 c -3.116621,0 -5.667965,2.53951 -5.667965,5.6460041 v 69.277996 c 0,3.106495 2.551344,5.646004 5.667965,5.646004 H 86.765819 c 3.116621,0 5.667968,-2.539509 5.667968,-5.646004 V 10.790491 c 0,-3.1064931 -2.551347,-5.6460041 -5.667968,-5.6460041 z m 0,2.319439 H 86.765819 c 1.888099,0 3.352022,1.480095 3.352022,3.3265651 v 69.277996 c 0,1.846474 -1.463923,3.326564 -3.352022,3.326564 H 9.9740341 c -1.888099,0 -3.352022,-1.48009 -3.352022,-3.326564 V 10.790491 c 0,-1.8464701 1.463923,-3.3265651 3.352022,-3.3265651 z"
         id="path4989"
         inkscape:connector-curvature="0" />
      <path
         id="path4118"
         d="m 1.6489535,82.258776 v 6 c 0,3.680142 2.9761066,6.65625 6.6562496,6.65625 H 87.992703 c 3.680143,0 6.656254,-2.976108 6.656254,-6.65625 v -6 c 0,3.680142 -2.976111,6.65625 -6.656254,6.65625 H 8.3052031 c -3.680143,0 -6.6562496,-2.976108 -6.6562496,-6.65625 z"
         style="display:inline;opacity:0.65818182;fill:url(#linearGradient4129);fill-opacity:1;fill-rule:nonzero;stroke:none"
         inkscape:connector-curvature="0" />
      <rect
         ry="4.25"
         rx="0"
         y="80.665031"
         x="5.5239539"
         height="4.25"
         width="84.250008"
         id="rect4131"
         style="opacity:0.55;fill:url(#radialGradient7462);fill-opacity:1;stroke:none" />
      <rect
         transform="rotate(90)"
         style="opacity:0.669;fill:url(#radialGradient7464);fill-opacity:1;stroke:none"
         id="rect4141"
         width="76.75"
         height="4.25"
         x="5.9750223"
         y="-90.233963"
         rx="0"
         ry="4.25" />
      <rect
         clip-path="url(#clipPath4156-4-1)"
         ry="3.9569881"
         rx="3.9569874"
         y="-30"
         x="2"
         height="69.024437"
         width="75.965775"
         id="rect4146"
         style="opacity:0.95800003;fill:url(#linearGradient4767);fill-opacity:1;stroke:none"
         transform="matrix(1.0692451,0,0,1.0476829,4.4441802,38.894013)" />
    </g>
  </g>
</svg>
