<?xml version="1.0" encoding="UTF-8" standalone="no"?>
<!-- Created with Inkscape (http://www.inkscape.org/) -->

<svg
   xmlns:dc="http://purl.org/dc/elements/1.1/"
   xmlns:cc="http://creativecommons.org/ns#"
   xmlns:rdf="http://www.w3.org/1999/02/22-rdf-syntax-ns#"
   xmlns:svg="http://www.w3.org/2000/svg"
   xmlns="http://www.w3.org/2000/svg"
   xmlns:xlink="http://www.w3.org/1999/xlink"
   xmlns:sodipodi="http://sodipodi.sourceforge.net/DTD/sodipodi-0.dtd"
   xmlns:inkscape="http://www.inkscape.org/namespaces/inkscape"
   width="96"
   height="96"
   viewBox="0 0 96.000001 96.000004"
   version="1.1"
   id="svg1072"
   inkscape:version="0.92.1 r15371"
   sodipodi:docname="fileopen.svg">
  <defs
     id="defs1066">
    <linearGradient
       y2="47.000011"
       x2="90"
       y1="47.000011"
       x1="6"
       gradientTransform="matrix(1.1071428,0,0,1.1071426,-4.9939026,-3.620687)"
       gradientUnits="userSpaceOnUse"
       id="linearGradient4071"
       xlink:href="#linearGradient6139-0"
       inkscape:collect="always" />
    <linearGradient
       id="linearGradient6139-0">
      <stop
         style="stop-color:#c1adad;stop-opacity:1;"
         offset="0"
         id="stop6141-2" />
      <stop
         id="stop6151-0"
         offset="0.25"
         style="stop-color:#ffffff;stop-opacity:1;" />
      <stop
         id="stop6147-1"
         offset="0.5"
         style="stop-color:#aa9090;stop-opacity:1;" />
      <stop
         style="stop-color:#fbf9f9;stop-opacity:1;"
         offset="0.75"
         id="stop6149-4" />
      <stop
         style="stop-color:#c1adad;stop-opacity:1;"
         offset="1"
         id="stop6143-4" />
    </linearGradient>
    <linearGradient
       gradientUnits="userSpaceOnUse"
       y2="88.171875"
       x2="94.5"
       y1="88.171875"
       x1="1.5"
       id="linearGradient4129"
       xlink:href="#linearGradient3832-0-6-1-1"
       inkscape:collect="always"
       gradientTransform="translate(0.1489535,0.415026)" />
    <linearGradient
       id="linearGradient3832-0-6-1-1">
      <stop
         id="stop3834-6-3-7-1"
         offset="0"
         style="stop-color:#000000;stop-opacity:1;" />
      <stop
         style="stop-color:#000000;stop-opacity:0.58823532;"
         offset="0.1"
         id="stop3872-2-4" />
      <stop
         id="stop3844-6-2-7-6"
         offset="0.89999998"
         style="stop-color:#000000;stop-opacity:0.58823532;" />
      <stop
         id="stop3836-5-0-2-9"
         offset="1"
         style="stop-color:#000000;stop-opacity:1;" />
    </linearGradient>
    <radialGradient
       r="43.199203"
       fy="44.892841"
       fx="13.948145"
       cy="44.892841"
       cx="13.948145"
       gradientTransform="matrix(0.97513378,0,0,0.04919072,34.047649,80.581722)"
       gradientUnits="userSpaceOnUse"
       id="radialGradient7462"
       xlink:href="#linearGradient3737"
       inkscape:collect="always" />
    <linearGradient
       id="linearGradient3737">
      <stop
         id="stop3739"
         style="stop-color:#ffffff;stop-opacity:1"
         offset="0" />
      <stop
         id="stop3741"
         style="stop-color:#ffffff;stop-opacity:0"
         offset="1" />
    </linearGradient>
    <radialGradient
       r="43.199203"
       fy="44.892841"
       fx="13.948145"
       cy="44.892841"
       cx="13.948145"
       gradientTransform="matrix(0.88832663,0,0,0.04919072,31.959518,-90.31726)"
       gradientUnits="userSpaceOnUse"
       id="radialGradient7464"
       xlink:href="#linearGradient3737"
       inkscape:collect="always" />
    <linearGradient
       y2="14.514202"
       x2="50.527882"
       y1="-28.64156"
       x1="2.7713892"
       gradientUnits="userSpaceOnUse"
       id="linearGradient4767"
       xlink:href="#linearGradient3737"
       inkscape:collect="always" />
    <clipPath
       clipPathUnits="userSpaceOnUse"
       id="clipPath4156-4-1">
      <path
         style="opacity:0.6;fill:#ffffff;fill-opacity:1;stroke:none"
         d="m 27.046336,-55.695463 -14.21366,13.321486 h 0.06127 l 15.653407,21.770763 10.231384,-10.546177 C 38.561832,-32.30156 27.468089,-54.819245 27.046336,-55.695463 Z M 9.6468554,-39.382809 -5.2407289,-25.32124 15.987863,-7.8059573 26.372412,-18.382966 Z m 31.4906096,12.951445 -9.741259,9.713584 8.944804,12.4580526 7.780753,-7.5550056 z m -49.8397109,4.378822 -13.7541661,12.9822847 26.2830181,13.84571 0.06127,-0.0617 -0.122531,-0.0617 L 13.598503,-5.4007374 -8.7022409,-22.052595 Z m 38.0154159,7.400825 -9.802525,9.7752596 11.579232,9.5594001 7.62759,-7.40083 -8.669108,-11.0087257 z m 20.187073,5.6739697 -7.382526,7.2158 6.187844,8.54179 5.820249,-6.13651996 z m -32.195166,6.32154 -9.5574606,9.49772 13.6622686,7.1849703 7.933918,-7.6783603 z m 23.311629,2.37443004 -7.10683,6.93826996 8.362778,6.9074403 5.360756,-5.6739699 -0.06127,-0.0925 -0.0919,0.12335 -6.463539,-8.20258036 z m -8.730374,8.54178036 -7.505057,7.3391599 10.353916,5.45811 c 1.397496,-1.32103 5.67514,-6.12292 5.850882,-6.32154 z"
         id="path4158-0-8"
         inkscape:connector-curvature="0" />
    </clipPath>
    <linearGradient
       x1="48"
       y1="74"
       x2="48"
       y2="23.990002"
       id="linearGradient3161"
       xlink:href="#linearGradient3832-0-6-1-1"
       gradientUnits="userSpaceOnUse" />
    <linearGradient
       id="linearGradient4081">
      <stop
         id="stop4083"
         style="stop-color:#aaaaaa;stop-opacity:1"
         offset="0" />
      <stop
         id="stop4085"
         style="stop-color:#f0f0f0;stop-opacity:1"
         offset="1" />
    </linearGradient>
  </defs>
  <sodipodi:namedview
     id="base"
     pagecolor="#ffffff"
     bordercolor="#666666"
     borderopacity="1.0"
     inkscape:pageopacity="0.0"
     inkscape:pageshadow="2"
     inkscape:zoom="2.5117023"
     inkscape:cx="67.980523"
     inkscape:cy="48"
     inkscape:document-units="px"
     inkscape:current-layer="g695"
     showgrid="false"
     inkscape:showpageshadow="false"
     units="px"
     inkscape:lockguides="true"
     inkscape:window-width="1280"
     inkscape:window-height="972"
     inkscape:window-x="0"
     inkscape:window-y="26"
     inkscape:window-maximized="1">
    <sodipodi:guide
       position="0,0"
       orientation="0,96"
       id="guide1621"
       inkscape:locked="true" />
    <sodipodi:guide
       position="96.000002,0"
       orientation="-96,0"
       id="guide1623"
       inkscape:locked="true" />
    <sodipodi:guide
       position="96.000002,96.000002"
       orientation="0,-96"
       id="guide1625"
       inkscape:locked="true" />
    <sodipodi:guide
       position="0,96.000002"
       orientation="96,0"
       id="guide1627"
       inkscape:locked="true" />
  </sodipodi:namedview>
  <metadata
     id="metadata1069">
    <rdf:RDF>
      <cc:Work
         rdf:about="">
        <dc:format>image/svg+xml</dc:format>
        <dc:type
           rdf:resource="http://purl.org/dc/dcmitype/StillImage" />
        <dc:title></dc:title>
        <dc:date>2017</dc:date>
        <dc:creator>
          <cc:Agent>
            <dc:title>Cristian Pozzessere &quot;ilnanny&quot;</dc:title>
          </cc:Agent>
        </dc:creator>
        <dc:subject>
          <rdf:Bag>
            <rdf:li>Global language</rdf:li>
          </rdf:Bag>
        </dc:subject>
        <dc:description>Playing with Inkscape on Gnu/Linux O. S.</dc:description>
        <dc:contributor>
          <cc:Agent>
            <dc:title>In the night, alone like a dog.</dc:title>
          </cc:Agent>
        </dc:contributor>
        <cc:license
           rdf:resource="http://creativecommons.org/licenses/by-sa/4.0/" />
      </cc:Work>
      <cc:License
         rdf:about="http://creativecommons.org/licenses/by-sa/4.0/">
        <cc:permits
           rdf:resource="http://creativecommons.org/ns#Reproduction" />
        <cc:permits
           rdf:resource="http://creativecommons.org/ns#Distribution" />
        <cc:requires
           rdf:resource="http://creativecommons.org/ns#Notice" />
        <cc:requires
           rdf:resource="http://creativecommons.org/ns#Attribution" />
        <cc:permits
           rdf:resource="http://creativecommons.org/ns#DerivativeWorks" />
        <cc:requires
           rdf:resource="http://creativecommons.org/ns#ShareAlike" />
      </cc:License>
    </rdf:RDF>
  </metadata>
  <g
     inkscape:label="Livello 1"
     inkscape:groupmode="layer"
     id="layer1"
     transform="translate(0,-1026.5197)">
    <g
       transform="translate(-0.14895645,1026.1047)"
       style="display:inline"
       id="g2574">
      <path
         inkscape:connector-curvature="0"
         id="path3288"
         d="M 89.29181,0.415026 H 7.0060911 c -3.798848,0 -6.8571352,3.058285 -6.8571352,6.8571399 V 89.557884 c 0,3.798857 3.0582872,6.857142 6.8571352,6.857142 H 89.29181 c 3.798857,0 6.857147,-3.058285 6.857147,-6.857142 V 7.2721659 c 0,-3.7988549 -3.05829,-6.8571399 -6.857147,-6.8571399 z"
         style="display:inline;opacity:0.15;fill:#000000;fill-opacity:1;fill-rule:nonzero;stroke:none" />
      <path
         style="display:inline;opacity:0.15;fill:#000000;fill-opacity:1;fill-rule:nonzero;stroke:none"
         d="M 88.648954,1.165026 H 7.6489471 c -3.739492,0 -6.749993,3.010499 -6.749993,6.7499969 V 88.915026 c 0,3.739501 3.010501,6.75 6.749993,6.75 H 88.648954 c 3.739503,0 6.750003,-3.010499 6.750003,-6.75 V 7.9150229 c 0,-3.7394979 -3.0105,-6.7499969 -6.750003,-6.7499969 z"
         id="path4085"
         inkscape:connector-curvature="0" />
      <path
         inkscape:connector-curvature="0"
         id="rect4251-1"
         d="M 88.006093,1.915026 H 8.2918111 c -3.680143,0 -6.6428566,2.962713 -6.6428566,6.6428549 V 88.272171 c 0,3.680142 2.9627136,6.642856 6.6428566,6.642856 H 88.006093 c 3.680143,0 6.642854,-2.962714 6.642854,-6.642856 V 8.5578809 c 0,-3.6801419 -2.962711,-6.6428549 -6.642854,-6.6428549 z"
         style="display:inline;fill:url(#linearGradient4071);fill-opacity:1;fill-rule:nonzero;stroke:none" />
      <path
         sodipodi:nodetypes="sscccsccscccsss"
         inkscape:connector-curvature="0"
         id="path3400-6"
         d="m 11.390247,6.8021682 c -2.8564964,0 -5.1241284,2.2883782 -5.1241284,5.1710028 v 21.42734 7.239403 39.913674 c 1.0972399,1.684484 2.9688485,2.811732 5.1241284,2.811732 h 4.099303 65.588849 4.099302 c 2.155281,0 4.026889,-1.127248 5.124129,-2.811732 V 40.639914 33.400511 11.973171 c 0,-2.8826246 -2.267632,-5.1710028 -5.124129,-5.1710028 z"
         style="display:inline;opacity:0.77864583;fill:#f5f3f3;fill-opacity:1;fill-rule:nonzero;stroke:none;stroke-width:1.02950251" />
      <path
         style="color:#000000;font-style:normal;font-variant:normal;font-weight:normal;font-stretch:normal;font-size:medium;line-height:normal;font-family:Sans;-inkscape-font-specification:Sans;text-indent:0;text-align:start;text-decoration:none;text-decoration-line:none;letter-spacing:normal;word-spacing:normal;text-transform:none;writing-mode:lr-tb;direction:ltr;baseline-shift:baseline;text-anchor:start;display:inline;overflow:visible;visibility:visible;fill:#241f1f;fill-opacity:0.63265303;stroke:none;stroke-width:2.3755002;marker:none;enable-background:accumulate"
         d="m 9.9740341,5.1444869 c -3.116621,0 -5.667965,2.53951 -5.667965,5.6460041 v 69.277996 c 0,3.106495 2.551344,5.646004 5.667965,5.646004 H 86.765819 c 3.116621,0 5.667968,-2.539509 5.667968,-5.646004 V 10.790491 c 0,-3.1064931 -2.551347,-5.6460041 -5.667968,-5.6460041 z m 0,2.319439 H 86.765819 c 1.888099,0 3.352022,1.480095 3.352022,3.3265651 v 69.277996 c 0,1.846474 -1.463923,3.326564 -3.352022,3.326564 H 9.9740341 c -1.888099,0 -3.352022,-1.48009 -3.352022,-3.326564 V 10.790491 c 0,-1.8464701 1.463923,-3.3265651 3.352022,-3.3265651 z"
         id="path4989"
         inkscape:connector-curvature="0" />
      <path
         id="path4118"
         d="m 1.6489535,82.258776 v 6 c 0,3.680142 2.9761066,6.65625 6.6562496,6.65625 H 87.992703 c 3.680143,0 6.656254,-2.976108 6.656254,-6.65625 v -6 c 0,3.680142 -2.976111,6.65625 -6.656254,6.65625 H 8.3052031 c -3.680143,0 -6.6562496,-2.976108 -6.6562496,-6.65625 z"
         style="display:inline;opacity:0.65818182;fill:url(#linearGradient4129);fill-opacity:1;fill-rule:nonzero;stroke:none"
         inkscape:connector-curvature="0" />
      <rect
         ry="4.25"
         rx="0"
         y="80.665031"
         x="5.5239539"
         height="4.25"
         width="84.250008"
         id="rect4131"
         style="opacity:0.55;fill:url(#radialGradient7462);fill-opacity:1;stroke:none" />
      <rect
         transform="rotate(90)"
         style="opacity:0.669;fill:url(#radialGradient7464);fill-opacity:1;stroke:none"
         id="rect4141"
         width="76.75"
         height="4.25"
         x="5.9750223"
         y="-90.233963"
         rx="0"
         ry="4.25" />
      <g
         transform="matrix(1.2982438,0,0,1.1808501,-14.166746,-10.627505)"
         style="display:inline"
         id="g695">
        <path
           d="m 29,22.96875 c -1.367998,0 -2.65828,0.53165 -3.625,1.4375 -0.815521,0.76417 -1.222243,1.877896 -1.25,3.0625 A 1.0194844,1.0194844 0 0 0 23.96875,28 v 5 c 10e-6,-9.74e-4 0.03134,0.18847 0.03125,0.1875 -8.7e-5,-9.7e-4 0.03143,0.188457 0.03125,0.1875 -1.83e-4,-9.57e-4 0.03153,0.219684 0.03125,0.21875 -2.77e-4,-9.34e-4 0.06287,0.188402 0.0625,0.1875 -3.68e-4,-9.02e-4 0.09421,0.157111 0.09375,0.15625 -4.56e-4,-8.61e-4 0.09429,0.188311 0.09375,0.1875 -5.39e-4,-8.11e-4 0.125617,0.157004 0.125,0.15625 -1.455995,1.102497 -2.46875,2.7672 -2.46875,4.71875 v 24 c 0,3.304529 2.726721,6.03125 6.03125,6.03125 h 6.96875 V 71 c 0,3.304529 2.726721,6.03125 6.03125,6.03125 h 22 c 3.304529,0 6.03125,-2.726721 6.03125,-6.03125 v -2.1875 c 2.802812,-0.508578 5,-2.87138 5,-5.8125 V 39 c 0,-1.924027 -0.994261,-3.602668 -2.46875,-4.71875 -6.17e-4,7.54e-4 0.125539,-0.157061 0.125,-0.15625 -5.39e-4,8.11e-4 0.09421,-0.188361 0.09375,-0.1875 -4.56e-4,8.61e-4 0.09412,-0.157152 0.09375,-0.15625 -3.68e-4,9.02e-4 0.06278,-0.188434 0.0625,-0.1875 -2.77e-4,9.34e-4 0.03143,-0.219707 0.03125,-0.21875 -1.83e-4,9.57e-4 0.03134,-0.18847 0.03125,-0.1875 -8.7e-5,9.7e-4 0.03124,-0.188474 0.03125,-0.1875 0,-3.304529 -2.726721,-6.03125 -6.03125,-6.03125 H 44.8125 c -0.495748,-2.246873 -2.425927,-4 -4.8125,-4 z m 16.03125,22.0625 h 13.9375 v 21.9375 h -13.9375 z"
           id="path3960"
           style="color:#000000;display:inline;overflow:visible;visibility:visible;opacity:0.1;fill:#000000;fill-opacity:1;fill-rule:nonzero;stroke:none;stroke-width:1;marker:none;enable-background:accumulate"
           inkscape:connector-curvature="0" />
        <path
           d="m 29,24 c -1.103046,0 -2.162497,0.430046 -2.9375,1.15625 -0.731655,0.685585 -1.146217,1.733356 -1,2.84375 H 25 v 5 a 0.98998956,0.98998956 0 0 0 1,1 h 2 c -2.747277,0 -5,2.252723 -5,5 v 24 c 0,2.747277 2.252723,5 5,5 h 8 v 3 c 0,2.747277 2.252723,5 5,5 h 22 c 2.747277,0 5,-2.252723 5,-5 v -3 c 2.747277,0 5,-2.252723 5,-5 V 39 c 0,-2.689768 -2.102198,-5 -5,-5 h 2 a 0.98998956,0.98998956 0 0 0 1,-1 c 0,-2.747277 -2.252723,-5 -5,-5 H 44 c 0,-2.193277 -1.806723,-4 -4,-4 z m 15.5,20 h 15 c 0.299723,0 0.5,0.200277 0.5,0.5 v 23 c 0,0.299723 -0.200277,0.5 -0.5,0.5 h -15 C 44.200277,68 44,67.799723 44,67.5 v -23 C 44,44.200277 44.200277,44 44.5,44 Z"
           id="path3956"
           style="color:#000000;display:inline;overflow:visible;visibility:visible;opacity:0.15;fill:#000000;fill-opacity:1;fill-rule:nonzero;stroke:none;stroke-width:1;marker:none;enable-background:accumulate"
           inkscape:connector-curvature="0" />
        <path
           d="m 29,25 c -1.662,0 -3.325945,1.370275 -3,3 v 5 h 44 c 0,-2.216 -1.784,-4 -4,-4 H 43 v -1 c 0,-1.662 -1.338,-3 -3,-3 z m -1,10 c -2.216,0 -4,1.784 -4,4 v 24 c 0,2.216 1.784,4 4,4 h 9 v 4 c 0,2.216 1.784,4 4,4 h 22 c 2.216,0 4,-1.784 4,-4 v -4 h 1 c 2.216,0 4,-1.784 4,-4 V 39 c 0,-2.216 -1.590888,-4 -4,-4 H 63 41 Z m 16.5,8 h 15 c 0.831,0 1.5,0.669 1.5,1.5 v 23 c 0,0.831 -0.669,1.5 -1.5,1.5 h -15 C 43.669,69 43,68.331 43,67.5 v -23 C 43,43.669 43.669,43 44.5,43 Z"
           inkscape:connector-curvature="0"
           id="path3950"
           style="color:#000000;display:inline;overflow:visible;visibility:visible;opacity:0.3;fill:#000000;fill-opacity:1;fill-rule:nonzero;stroke:none;stroke-width:1;marker:none;enable-background:accumulate" />
        <path
           d="m 29,24 c -1.662,0 -3.325945,1.370275 -3,3 v 5 h 44 c 0,-2.216 -1.784,-4 -4,-4 H 43 v -1 c 0,-1.662 -1.338,-3 -3,-3 z m -1,10 c -2.216,0 -4,1.784 -4,4 v 24 c 0,2.216 1.784,4 4,4 h 9 v 4 c 0,2.216 1.784,4 4,4 h 22 c 2.216,0 4,-1.784 4,-4 v -4 h 1 c 2.216,0 4,-1.784 4,-4 V 38 c 0,-2.216 -1.590888,-4 -4,-4 H 63 41 Z m 16.5,8 h 15 c 0.831,0 1.5,0.669 1.5,1.5 v 23 c 0,0.831 -0.669,1.5 -1.5,1.5 h -15 C 43.669,68 43,67.331 43,66.5 v -23 C 43,42.669 43.669,42 44.5,42 Z"
           inkscape:connector-curvature="0"
           id="path3153"
           style="color:#000000;display:inline;overflow:visible;visibility:visible;fill:url(#linearGradient3161);fill-opacity:1.0;fill-rule:nonzero;stroke:none;stroke-width:1;marker:none;enable-background:accumulate" />
        <path
           d="m 29,24 c -1.662,0 -3.325945,1.370275 -3,3 v 0.25 C 26.217131,25.973665 27.603187,25 29,25 h 11 c 1.662,0 3,1.338 3,3 v -1 c 0,-1.662 -1.338,-3 -3,-3 z m 14,4 v 1 h 23 c 1.868974,0 3.400465,1.273103 3.84375,3 H 70 c 0,-2.216 -1.784,-4 -4,-4 z m -15,6 c -2.216,0 -4,1.784 -4,4 v 1 c 0,-2.216 1.784,-4 4,-4 h 13 22 5 c 2.409112,0 4,1.784 4,4 v -1 c 0,-2.216 -1.590888,-4 -4,-4 H 63 41 Z m 15,32.5 v 1 c 0,0.831 0.669,1.5 1.5,1.5 h 15 c 0.831,0 1.5,-0.669 1.5,-1.5 v -1 c 0,0.831 -0.669,1.5 -1.5,1.5 h -15 C 43.669,68 43,67.331 43,66.5 Z"
           inkscape:connector-curvature="0"
           id="path3164"
           style="color:#000000;display:inline;overflow:visible;visibility:visible;opacity:0.75;fill:#ffffff;fill-opacity:1;fill-rule:nonzero;stroke:none;stroke-width:1;marker:none;enable-background:accumulate" />
        <path
           d="m 26,26.25 c -0.04122,0.242314 -0.05201,0.489963 0,0.75 z M 26,31 v 1 h 44 c 0,-0.347026 -0.07394,-0.679355 -0.15625,-1 z M 44.5,41 C 43.669,41 43,41.669 43,42.5 v 1 C 43,42.669 43.669,42 44.5,42 h 15 c 0.831,0 1.5,0.669 1.5,1.5 v -1 C 61,41.669 60.331,41 59.5,41 Z M 24,61 v 1 c 0,2.216 1.784,4 4,4 h 9 v -1 h -9 c -2.216,0 -4,-1.784 -4,-4 z m 48,0 c 0,2.216 -1.784,4 -4,4 h -1 v 1 h 1 c 2.216,0 4,-1.784 4,-4 z m -35,8 v 1 c 0,2.216 1.784,4 4,4 h 22 c 2.216,0 4,-1.784 4,-4 v -1 c 0,2.216 -1.784,4 -4,4 H 41 c -2.216,0 -4,-1.784 -4,-4 z"
           inkscape:connector-curvature="0"
           id="path3173"
           style="color:#000000;display:inline;overflow:visible;visibility:visible;opacity:0.15;fill:#ffffff;fill-opacity:1;fill-rule:nonzero;stroke:none;stroke-width:1;marker:none;enable-background:accumulate" />
      </g>
      <rect
         clip-path="url(#clipPath4156-4-1)"
         ry="3.9569881"
         rx="3.9569874"
         y="-30"
         x="2"
         height="69.024437"
         width="75.965775"
         id="rect4146"
         style="opacity:0.5078125;fill:url(#linearGradient4767);fill-opacity:1;stroke:none"
         transform="matrix(1.0692451,0,0,1.0476829,4.4441802,38.894013)" />
    </g>
  </g>
</svg>
