<?xml version="1.0" encoding="UTF-8" standalone="no"?>
<!-- Created with Inkscape (http://www.inkscape.org/) -->

<svg
   xmlns:dc="http://purl.org/dc/elements/1.1/"
   xmlns:cc="http://creativecommons.org/ns#"
   xmlns:rdf="http://www.w3.org/1999/02/22-rdf-syntax-ns#"
   xmlns:svg="http://www.w3.org/2000/svg"
   xmlns="http://www.w3.org/2000/svg"
   xmlns:xlink="http://www.w3.org/1999/xlink"
   xmlns:sodipodi="http://sodipodi.sourceforge.net/DTD/sodipodi-0.dtd"
   xmlns:inkscape="http://www.inkscape.org/namespaces/inkscape"
   width="96"
   height="96"
   viewBox="0 0 96.000001 96.000004"
   version="1.1"
   id="svg1072"
   inkscape:version="0.92.1 r15371"
   sodipodi:docname="undo.svg">
  <defs
     id="defs1066">
    <linearGradient
       inkscape:collect="always"
       xlink:href="#linearGradient6139-0"
       id="linearGradient4071"
       gradientUnits="userSpaceOnUse"
       gradientTransform="matrix(1.1071428,0,0,1.1071426,-4.9939026,-3.620687)"
       x1="6"
       y1="47.000011"
       x2="90"
       y2="47.000011" />
    <linearGradient
       id="linearGradient6139-0">
      <stop
         id="stop6141-2"
         offset="0"
         style="stop-color:#c1adad;stop-opacity:1;" />
      <stop
         style="stop-color:#ffffff;stop-opacity:1;"
         offset="0.25"
         id="stop6151-0" />
      <stop
         style="stop-color:#aa9090;stop-opacity:1;"
         offset="0.5"
         id="stop6147-1" />
      <stop
         id="stop6149-4"
         offset="0.75"
         style="stop-color:#fbf9f9;stop-opacity:1;" />
      <stop
         id="stop6143-4"
         offset="1"
         style="stop-color:#c1adad;stop-opacity:1;" />
    </linearGradient>
    <linearGradient
       gradientTransform="translate(0.1489535,0.415026)"
       inkscape:collect="always"
       xlink:href="#linearGradient3832-0-6-1-1"
       id="linearGradient4129"
       x1="1.5"
       y1="88.171875"
       x2="94.5"
       y2="88.171875"
       gradientUnits="userSpaceOnUse" />
    <linearGradient
       id="linearGradient3832-0-6-1-1">
      <stop
         style="stop-color:#000000;stop-opacity:1;"
         offset="0"
         id="stop3834-6-3-7-1" />
      <stop
         id="stop3872-2-4"
         offset="0.1"
         style="stop-color:#000000;stop-opacity:0.58823532;" />
      <stop
         style="stop-color:#000000;stop-opacity:0.58823532;"
         offset="0.89999998"
         id="stop3844-6-2-7-6" />
      <stop
         style="stop-color:#000000;stop-opacity:1;"
         offset="1"
         id="stop3836-5-0-2-9" />
    </linearGradient>
    <radialGradient
       inkscape:collect="always"
       xlink:href="#linearGradient3737"
       id="radialGradient7462"
       gradientUnits="userSpaceOnUse"
       gradientTransform="matrix(0.97513378,0,0,0.04919072,34.047649,80.581722)"
       cx="13.948145"
       cy="44.892841"
       fx="13.948145"
       fy="44.892841"
       r="43.199203" />
    <linearGradient
       id="linearGradient3737">
      <stop
         offset="0"
         style="stop-color:#ffffff;stop-opacity:1"
         id="stop3739" />
      <stop
         offset="1"
         style="stop-color:#ffffff;stop-opacity:0"
         id="stop3741" />
    </linearGradient>
    <radialGradient
       inkscape:collect="always"
       xlink:href="#linearGradient3737"
       id="radialGradient7464"
       gradientUnits="userSpaceOnUse"
       gradientTransform="matrix(0.88832663,0,0,0.04919072,31.959518,-90.31726)"
       cx="13.948145"
       cy="44.892841"
       fx="13.948145"
       fy="44.892841"
       r="43.199203" />
    <linearGradient
       inkscape:collect="always"
       xlink:href="#linearGradient3737"
       id="linearGradient4767"
       gradientUnits="userSpaceOnUse"
       x1="2.7713892"
       y1="-28.64156"
       x2="50.527882"
       y2="14.514202" />
    <clipPath
       id="clipPath4156-4-1"
       clipPathUnits="userSpaceOnUse">
      <path
         inkscape:connector-curvature="0"
         id="path4158-0-8"
         d="m 27.046336,-55.695463 -14.21366,13.321486 h 0.06127 l 15.653407,21.770763 10.231384,-10.546177 C 38.561832,-32.30156 27.468089,-54.819245 27.046336,-55.695463 Z M 9.6468554,-39.382809 -5.2407289,-25.32124 15.987863,-7.8059573 26.372412,-18.382966 Z m 31.4906096,12.951445 -9.741259,9.713584 8.944804,12.4580526 7.780753,-7.5550056 z m -49.8397109,4.378822 -13.7541661,12.9822847 26.2830181,13.84571 0.06127,-0.0617 -0.122531,-0.0617 L 13.598503,-5.4007374 -8.7022409,-22.052595 Z m 38.0154159,7.400825 -9.802525,9.7752596 11.579232,9.5594001 7.62759,-7.40083 -8.669108,-11.0087257 z m 20.187073,5.6739697 -7.382526,7.2158 6.187844,8.54179 5.820249,-6.13651996 z m -32.195166,6.32154 -9.5574606,9.49772 13.6622686,7.1849703 7.933918,-7.6783603 z m 23.311629,2.37443004 -7.10683,6.93826996 8.362778,6.9074403 5.360756,-5.6739699 -0.06127,-0.0925 -0.0919,0.12335 -6.463539,-8.20258036 z m -8.730374,8.54178036 -7.505057,7.3391599 10.353916,5.45811 c 1.397496,-1.32103 5.67514,-6.12292 5.850882,-6.32154 z"
         style="opacity:0.6;fill:#ffffff;fill-opacity:1;stroke:none" />
    </clipPath>
    <linearGradient
       inkscape:collect="always"
       xlink:href="#linearGradient1111"
       id="linearGradient1105"
       x1="23.026602"
       y1="43.926113"
       x2="73.026604"
       y2="43.926113"
       gradientUnits="userSpaceOnUse"
       gradientTransform="matrix(1.4174343,0,0,1.4174343,-31.30758,-24.61558)" />
    <linearGradient
       id="linearGradient1111">
      <stop
         id="stop1107"
         style="stop-color:#34221f;stop-opacity:1"
         offset="0" />
      <stop
         id="stop1109"
         style="stop-color:#745b57;stop-opacity:1"
         offset="1" />
    </linearGradient>
  </defs>
  <sodipodi:namedview
     id="base"
     pagecolor="#ffffff"
     bordercolor="#666666"
     borderopacity="1.0"
     inkscape:pageopacity="0.0"
     inkscape:pageshadow="2"
     inkscape:zoom="3.5520834"
     inkscape:cx="16.750733"
     inkscape:cy="48"
     inkscape:document-units="px"
     inkscape:current-layer="g2574"
     showgrid="false"
     inkscape:showpageshadow="false"
     units="px"
     inkscape:lockguides="true"
     inkscape:window-width="1280"
     inkscape:window-height="972"
     inkscape:window-x="0"
     inkscape:window-y="26"
     inkscape:window-maximized="1">
    <sodipodi:guide
       position="0,0"
       orientation="0,96"
       id="guide1621"
       inkscape:locked="true" />
    <sodipodi:guide
       position="96.000002,0"
       orientation="-96,0"
       id="guide1623"
       inkscape:locked="true" />
    <sodipodi:guide
       position="96.000002,96.000002"
       orientation="0,-96"
       id="guide1625"
       inkscape:locked="true" />
    <sodipodi:guide
       position="0,96.000002"
       orientation="96,0"
       id="guide1627"
       inkscape:locked="true" />
  </sodipodi:namedview>
  <metadata
     id="metadata1069">
    <rdf:RDF>
      <cc:Work
         rdf:about="">
        <dc:format>image/svg+xml</dc:format>
        <dc:type
           rdf:resource="http://purl.org/dc/dcmitype/StillImage" />
        <dc:title></dc:title>
        <dc:date>2017</dc:date>
        <dc:creator>
          <cc:Agent>
            <dc:title>Cristian Pozzessere &quot;ilnanny&quot;</dc:title>
          </cc:Agent>
        </dc:creator>
        <dc:subject>
          <rdf:Bag>
            <rdf:li>Global language</rdf:li>
          </rdf:Bag>
        </dc:subject>
        <dc:description>Playing with Inkscape on Gnu/Linux O. S.</dc:description>
        <dc:contributor>
          <cc:Agent>
            <dc:title>In the night, alone like a dog.</dc:title>
          </cc:Agent>
        </dc:contributor>
        <cc:license
           rdf:resource="http://creativecommons.org/licenses/by-sa/4.0/" />
      </cc:Work>
      <cc:License
         rdf:about="http://creativecommons.org/licenses/by-sa/4.0/">
        <cc:permits
           rdf:resource="http://creativecommons.org/ns#Reproduction" />
        <cc:permits
           rdf:resource="http://creativecommons.org/ns#Distribution" />
        <cc:requires
           rdf:resource="http://creativecommons.org/ns#Notice" />
        <cc:requires
           rdf:resource="http://creativecommons.org/ns#Attribution" />
        <cc:permits
           rdf:resource="http://creativecommons.org/ns#DerivativeWorks" />
        <cc:requires
           rdf:resource="http://creativecommons.org/ns#ShareAlike" />
      </cc:License>
    </rdf:RDF>
  </metadata>
  <g
     inkscape:label="Livello 1"
     inkscape:groupmode="layer"
     id="layer1"
     transform="translate(0,-1026.5197)">
    <g
       id="layer1-9"
       inkscape:label="Livello 1"
       transform="translate(0,-2.6e-5)">
      <g
         id="g2574"
         style="display:inline"
         transform="translate(-0.14895645,1026.1047)">
        <path
           style="display:inline;opacity:0.15;fill:#000000;fill-opacity:1;fill-rule:nonzero;stroke:none"
           d="M 89.29181,0.415026 H 7.0060911 c -3.798848,0 -6.8571352,3.058285 -6.8571352,6.8571399 V 89.557884 c 0,3.798857 3.0582872,6.857142 6.8571352,6.857142 H 89.29181 c 3.798857,0 6.857147,-3.058285 6.857147,-6.857142 V 7.2721659 c 0,-3.7988549 -3.05829,-6.8571399 -6.857147,-6.8571399 z"
           id="path3288"
           inkscape:connector-curvature="0" />
        <path
           inkscape:connector-curvature="0"
           id="path4085"
           d="M 88.648954,1.165026 H 7.6489471 c -3.739492,0 -6.749993,3.010499 -6.749993,6.7499969 V 88.915026 c 0,3.739501 3.010501,6.75 6.749993,6.75 H 88.648954 c 3.739503,0 6.750003,-3.010499 6.750003,-6.75 V 7.9150229 c 0,-3.7394979 -3.0105,-6.7499969 -6.750003,-6.7499969 z"
           style="display:inline;opacity:0.15;fill:#000000;fill-opacity:1;fill-rule:nonzero;stroke:none" />
        <path
           style="display:inline;fill:url(#linearGradient4071);fill-opacity:1;fill-rule:nonzero;stroke:none"
           d="M 88.006093,1.915026 H 8.2918111 c -3.680143,0 -6.6428566,2.962713 -6.6428566,6.6428549 V 88.272171 c 0,3.680142 2.9627136,6.642856 6.6428566,6.642856 H 88.006093 c 3.680143,0 6.642854,-2.962714 6.642854,-6.642856 V 8.5578809 c 0,-3.6801419 -2.962711,-6.6428549 -6.642854,-6.6428549 z"
           id="rect4251-1"
           inkscape:connector-curvature="0" />
        <path
           style="display:inline;opacity:0.77864583;fill:#f5f3f3;fill-opacity:1;fill-rule:nonzero;stroke:none;stroke-width:1.02950251"
           d="m 11.390247,6.8021682 c -2.8564964,0 -5.1241284,2.2883782 -5.1241284,5.1710028 v 21.42734 7.239403 39.913674 c 1.0972399,1.684484 2.9688485,2.811732 5.1241284,2.811732 h 4.099303 65.588849 4.099302 c 2.155281,0 4.026889,-1.127248 5.124129,-2.811732 V 40.639914 33.400511 11.973171 c 0,-2.8826246 -2.267632,-5.1710028 -5.124129,-5.1710028 z"
           id="path3400-6"
           inkscape:connector-curvature="0"
           sodipodi:nodetypes="sscccsccscccsss" />
        <path
           inkscape:connector-curvature="0"
           id="path4989"
           d="m 9.9740341,5.1444869 c -3.116621,0 -5.667965,2.53951 -5.667965,5.6460041 v 69.277996 c 0,3.106495 2.551344,5.646004 5.667965,5.646004 H 86.765819 c 3.116621,0 5.667968,-2.539509 5.667968,-5.646004 V 10.790491 c 0,-3.1064931 -2.551347,-5.6460041 -5.667968,-5.6460041 z m 0,2.319439 H 86.765819 c 1.888099,0 3.352022,1.480095 3.352022,3.3265651 v 69.277996 c 0,1.846474 -1.463923,3.326564 -3.352022,3.326564 H 9.9740341 c -1.888099,0 -3.352022,-1.48009 -3.352022,-3.326564 V 10.790491 c 0,-1.8464701 1.463923,-3.3265651 3.352022,-3.3265651 z"
           style="color:#000000;font-style:normal;font-variant:normal;font-weight:normal;font-stretch:normal;font-size:medium;line-height:normal;font-family:Sans;-inkscape-font-specification:Sans;text-indent:0;text-align:start;text-decoration:none;text-decoration-line:none;letter-spacing:normal;word-spacing:normal;text-transform:none;writing-mode:lr-tb;direction:ltr;baseline-shift:baseline;text-anchor:start;display:inline;overflow:visible;visibility:visible;fill:#241f1f;fill-opacity:0.63265303;stroke:none;stroke-width:2.3755002;marker:none;enable-background:accumulate" />
        <path
           inkscape:connector-curvature="0"
           style="display:inline;opacity:0.65818182;fill:url(#linearGradient4129);fill-opacity:1;fill-rule:nonzero;stroke:none"
           d="m 1.6489535,82.258776 v 6 c 0,3.680142 2.9761066,6.65625 6.6562496,6.65625 H 87.992703 c 3.680143,0 6.656254,-2.976108 6.656254,-6.65625 v -6 c 0,3.680142 -2.976111,6.65625 -6.656254,6.65625 H 8.3052031 c -3.680143,0 -6.6562496,-2.976108 -6.6562496,-6.65625 z"
           id="path4118" />
        <rect
           style="opacity:0.55;fill:url(#radialGradient7462);fill-opacity:1;stroke:none"
           id="rect4131"
           width="84.250008"
           height="4.25"
           x="5.5239539"
           y="80.665031"
           rx="0"
           ry="4.25" />
        <rect
           ry="4.25"
           rx="0"
           y="-90.233963"
           x="5.9750223"
           height="4.25"
           width="76.75"
           id="rect4141"
           style="opacity:0.669;fill:url(#radialGradient7464);fill-opacity:1;stroke:none"
           transform="rotate(90)" />
        <g
           style="display:inline"
           id="g1119"
           transform="translate(11.397535,9.3126593)">
          <path
             d="M 39.741315,19.236294 C 31.232588,19.201482 22.829013,22.213201 15.9107,27.873784 L 9.3107718,21.318151 v 0.04429 c 8.221e-4,8.49e-4 -0.037973,0.0061 -0.044295,0 0,0 0.044295,-0.04429 0.044295,-0.04429 -0.031609,-0.03031 -0.1372785,-0.09255 -0.1328845,-0.08859 0.00524,0.0047 -0.1384692,-0.13725 -0.1328845,-0.132884 0.00553,0.0044 -0.1830545,-0.136854 -0.1771793,-0.132885 0.00581,0.004 -0.1390219,-0.09215 -0.1328844,-0.08859 0.00609,0.0035 -0.1835464,-0.09172 -0.1771793,-0.08859 0.00638,0.0031 -0.1837477,-0.09127 -0.1771793,-0.08859 0.00652,0.0027 -0.1839164,-0.04652 -0.1771793,-0.04429 0.0068,0.0023 -0.2283487,-0.09035 -0.2214741,-0.08859 0.00695,0.0017 -0.1841587,-0.04557 -0.1771793,-0.04429 0.00695,0.0013 -0.1842296,-7.88e-4 -0.1771793,0 0.00709,7.88e-4 -0.2285613,-0.04459 -0.2214741,-0.0443 0.00709,3e-4 -0.1842707,1.9e-4 -0.1771793,0 0.00709,-1.9e-4 -0.1842409,0.04498 -0.1771793,0.0443 0.00709,-6.78e-4 -0.2284719,0.0012 -0.2214741,0 0.00695,-0.0012 -0.1840808,0.04594 -0.1771793,0.04429 0.00695,-0.0017 -0.1839503,0.04641 -0.1771793,0.04429 0.0068,-0.0021 -0.1837887,0.09117 -0.1771792,0.08859 0.00666,-0.0026 -0.1835946,0.04733 -0.1771793,0.0443 0.00638,-0.003 -0.1833707,0.09205 -0.1771793,0.08859 0.00624,-0.0034 -0.1831169,0.136768 -0.1771793,0.132884 0.00595,-0.0038 -0.13854,0.09287 -0.1328845,0.08859 0.00567,-0.0043 -0.1825258,0.137548 -0.1771793,0.132884 0.00539,-0.0047 -0.1379021,0.137902 -0.1328844,0.132885 0.00496,-0.005 -0.1375337,0.138242 -0.1328845,0.132884 0.00468,-0.0054 -0.1371651,0.138554 -0.1328845,0.132885 0.00425,-0.0057 -0.092459,0.183122 -0.08859,0.177179 0.00383,-0.006 -0.092048,0.183376 -0.08859,0.177179 0.0034,-0.0062 -0.091609,0.1836 -0.08859,0.177179 0.00298,-0.0064 -0.091155,0.183793 -0.08859,0.17718 0.00255,-0.0067 -0.090687,0.183953 -0.08859,0.177179 0.00213,-0.0068 -0.045925,0.184084 -0.044295,0.177179 0.0017,-0.0069 -0.045443,0.184179 -0.044295,0.17718 L -1.45287,55.646638 h 0.044295 c -0.00751,0.04687 -0.044919,0.137647 -0.044295,0.132884 8.192e-4,-0.0062 -4.38e-4,0.18344 0,0.17718 4.38e-4,-0.0062 -0.044351,0.183455 -0.044295,0.177179 5.52e-5,-0.0062 3.288e-4,0.183447 0,0.177179 -3.289e-4,-0.0062 0.045003,0.183415 0.044295,0.177179 -7.102e-4,-0.0062 0.00109,0.139065 0,0.132885 -0.00109,-0.0062 0.045755,0.183283 0.044295,0.177179 -0.00142,-0.0061 0.046123,0.183181 0.044295,0.177179 -0.00184,-0.006 0.046492,0.183058 0.044295,0.17718 -0.00227,-0.0058 0.091141,0.138611 0.08859,0.132884 -0.00255,-0.0057 0.091481,0.182747 0.08859,0.17718 -0.00283,-0.0055 0.047527,0.138256 0.044295,0.132884 -0.00326,-0.0054 0.13644228,0.138058 0.13288452,0.132884 -0.003544,-0.0051 0.0924592,0.137832 0.0885896,0.132885 -0.003827,-0.005 0.0927427,0.13759 0.0885896,0.132884 -0.004111,-0.0047 0.13732103,0.137321 0.13288446,0.132885 -0.004394,-0.0044 0.13759035,0.137037 0.13288447,0.132884 -0.004678,-0.0041 0.13783131,0.09246 0.13288447,0.08859 -0.004961,-0.0038 0.1380581,0.09215 0.13288446,0.08859 -0.005103,-0.0035 0.13827072,0.136116 0.13288447,0.132884 -0.005386,-0.0033 0.13845498,0.0472 0.13288446,0.04429 -0.00552799,-0.0028 0.18291282,0.09114 0.17717929,0.08859 -0.00567,-0.0026 0.13876682,0.09079 0.13288447,0.08859 -0.005811,-0.0023 0.18318071,0.04612 0.17717929,0.04429 -0.005953,-0.0018 0.18328276,0.04575 0.17717929,0.04429 -0.006095,-0.0014 0.18336072,0.04539 0.17717929,0.0443 -0.006237,-0.0011 0.13912117,7.1e-4 0.13288446,0 -0.006237,-7.1e-4 0.1834472,0.04462 0.1771793,0.04429 -0.00624,-3.28e-4 0.1834557,-5.5e-5 0.1771793,0 -0.00624,5.6e-5 0.1834401,-0.04473 0.1771793,-0.04429 -0.00624,4.38e-4 0.1834018,-8.2e-4 0.1771792,0 -0.00482,6.26e-4 0.08601,-0.03674 0.1328845,-0.0443 v 0.0443 L 34.736,52.944654 c -0.0069,0.0012 0.184083,-0.04592 0.177179,-0.04429 -0.0069,0.0017 0.183953,-0.04641 0.177179,-0.04429 -0.0068,0.0021 0.183793,-0.09116 0.17718,-0.08859 -0.0067,0.0026 0.1836,-0.09161 0.177179,-0.08859 -0.0064,0.003 0.183376,-0.09205 0.177179,-0.08859 -0.0062,0.0034 0.183123,-0.09246 0.177179,-0.08859 -0.006,0.0038 0.182842,-0.09286 0.17718,-0.08859 -0.0057,0.0043 0.138242,-0.137534 0.132884,-0.132885 -0.0054,0.0047 0.137902,-0.137902 0.132885,-0.132884 -0.005,0.005 0.137547,-0.138228 0.132884,-0.132885 -0.0047,0.0054 0.137165,-0.182834 0.132885,-0.177179 -0.0043,0.0057 0.09247,-0.138823 0.08859,-0.132884 -0.0038,0.006 0.136343,-0.183371 0.132885,-0.17718 -0.0034,0.0062 0.09162,-0.183594 0.08859,-0.177179 -0.003,0.0064 0.04687,-0.183789 0.04429,-0.177179 -0.0026,0.0067 0.0907,-0.183951 0.08859,-0.17718 -0.0021,0.0068 0.04594,-0.18408 0.04429,-0.177179 -0.0017,0.0069 0.04546,-0.184177 0.04429,-0.177179 -0.0012,0.0069 6.78e-4,-0.228536 0,-0.221474 -6.77e-4,0.0071 0.04448,-0.184271 0.04429,-0.177179 -1.9e-4,0.0071 -3e-4,-0.184267 0,-0.17718 3.01e-4,0.0071 -0.04509,-0.228524 -0.04429,-0.221474 7.89e-4,0.0071 -0.0013,-0.184159 0,-0.177179 0.0013,0.0069 -0.04605,-0.184054 -0.04429,-0.177179 0.0017,0.0068 -0.09081,-0.228212 -0.08859,-0.221475 0.0023,0.0068 -0.04697,-0.183747 -0.0443,-0.177179 0.0027,0.0065 -0.09172,-0.183546 -0.08859,-0.177179 0.0031,0.0064 -0.09215,-0.183316 -0.08859,-0.177179 0.0035,0.0061 -0.09256,-0.138767 -0.08859,-0.132885 0.004,0.0058 -0.13725,-0.182767 -0.132884,-0.177179 0.0044,0.0055 -0.137633,-0.138158 -0.132885,-0.132885 0.004,0.0044 -0.102579,-0.05698 -0.132884,-0.08859 0,0 0.04429,-0.0443 0.04429,-0.0443 h -0.04429 L 29.90785,41.87095 c 6.8672,-4.502001 16.029219,-4.058798 22.058822,1.948972 1.95645,1.949368 3.362201,4.234176 4.208008,6.688518 -0.0031,-0.0091 0.09257,0.27457 0.08859,0.265769 -0.004,-0.0088 0.13769,0.229863 0.132885,0.221474 -0.0048,-0.0084 0.138455,0.229375 0.132884,0.221475 -0.0055,-0.0079 0.183462,0.228816 0.17718,0.221474 -0.0062,-0.0074 0.184123,0.183899 0.177179,0.177179 -0.0069,-0.0067 0.184723,0.183218 0.177179,0.177179 -0.0075,-0.0061 0.229552,0.182482 0.221474,0.17718 -0.0081,-0.0052 0.230014,0.137406 0.221474,0.132884 -0.0085,-0.0045 0.230401,0.09229 0.221474,0.08859 -0.0089,-0.0037 0.275004,0.09144 0.265769,0.08859 -0.0092,-0.0028 0.275231,0.09056 0.265769,0.08859 -0.0095,-0.002 0.275374,0.04536 0.265769,0.0443 -0.0096,-0.0011 0.27543,1.6e-4 0.265769,0 -0.0096,-1.6e-4 0.275403,-7.47e-4 0.265769,0 -0.0096,7.47e-4 0.230995,-0.04594 0.221474,-0.0443 -0.0095,0.0017 0.275093,-0.04683 0.265769,-0.04429 l 13.377036,-3.58788 c -0.0099,0.0026 0.275388,-0.09213 0.265769,-0.08859 -0.0096,0.0035 0.274987,-0.09308 0.265769,-0.08859 -0.0092,0.0045 0.230199,-0.13827 0.221474,-0.132884 -0.0088,0.0054 0.229619,-0.183403 0.221475,-0.177179 -0.0081,0.0062 0.228958,-0.184185 0.221474,-0.17718 -0.0075,0.0069 0.228224,-0.229189 0.221474,-0.221474 -0.0068,0.0077 0.138837,-0.229824 0.132884,-0.221474 -0.006,0.0084 0.182265,-0.230374 0.17718,-0.221474 -0.0051,0.0089 0.137051,-0.230836 0.132884,-0.221474 -0.0041,0.0094 0.09181,-0.275501 0.08859,-0.265769 -0.0033,0.0098 0.09083,-0.275773 0.08859,-0.265769 -0.0023,0.01006 0.04553,-0.320241 0.0443,-0.310064 -0.0012,0.01021 2.08e-4,-0.276018 0,-0.265769 -2.08e-4,0.01021 -8.14e-4,-0.275987 0,-0.265769 8.14e-4,0.01021 -0.04612,-0.32015 -0.0443,-0.310063 0.0018,0.01006 -0.04712,-0.275623 -0.04429,-0.265769 C 73.19619,39.628064 70.085364,34.326874 65.653786,29.911346 58.527093,22.810459 49.131013,19.274718 39.741315,19.236294 Z"
             id="path3949"
             style="display:inline;opacity:0.1;fill:#000000;fill-opacity:1;stroke:none;stroke-width:1.41743433"
             inkscape:connector-curvature="0" />
          <path
             d="M 39.741315,20.786613 C 31.133379,20.75139 22.566453,23.859847 15.733521,29.911346 L 8.2034012,22.425521 A 1.2467184,1.2467184 0 0 0 6.0772497,23.089944 L 0.09744875,55.912407 A 1.2467184,1.2467184 0 0 0 1.5591779,57.374136 L 34.470231,51.394335 a 1.2467184,1.2467184 0 0 0 0.664422,-2.126152 L 27.338764,41.51659 c 7.561832,-6.154856 18.693582,-5.820252 25.735292,1.19596 2.131449,2.123733 3.643621,4.642653 4.562367,7.308645 a 1.2467184,1.2467184 0 0 0 1.506024,0.797307 l 13.377036,-3.58788 a 1.2467184,1.2467184 0 0 0 0.885896,-1.550319 C 71.76353,40.310937 68.795777,35.252688 64.546415,31.018717 57.719249,24.216272 48.744608,20.823455 39.741315,20.786613 Z"
             id="path3945"
             style="display:inline;opacity:0.15;fill:#000000;fill-opacity:1;stroke:none;stroke-width:1.41743433"
             inkscape:connector-curvature="0" />
          <path
             d="M 7.3182475,23.328946 1.3311141,56.11511 34.236407,50.14965 25.455269,41.400305 c 8.028405,-7.513899 20.6507,-7.358316 28.482797,0.445421 2.271604,2.263383 3.907552,4.925251 4.885506,7.763054 L 72.20283,46.045415 C 70.619979,40.868996 67.781632,35.977005 63.677145,31.887384 50.500691,18.758647 29.042712,18.792227 15.588479,31.569214 l -8.2702315,-8.24029 z"
             inkscape:connector-curvature="0"
             id="path3939"
             style="display:inline;opacity:0.3;fill:#000000;fill-opacity:1;stroke:none;stroke-width:1.41743433" />
          <path
             d="M 7.3182475,21.911511 1.3311141,54.697675 34.236407,48.732216 25.455269,39.98287 c 8.028405,-7.513898 20.6507,-7.358315 28.482797,0.445422 2.271604,2.263383 3.907552,4.925251 4.885506,7.763054 L 72.20283,44.627981 C 70.619979,39.451562 67.781632,34.559571 63.677145,30.46995 50.500691,17.341213 29.042712,17.374793 15.588479,30.15178 L 7.3182475,21.91149 Z"
             inkscape:connector-curvature="0"
             id="path3917"
             style="display:inline;fill:url(#linearGradient1105);fill-opacity:1;stroke:none;stroke-width:1.41743433" />
          <path
             d="M 38.102406,20.609433 C 29.955795,20.95537 21.907308,24.143607 15.600637,30.13282 l -8.2831322,-8.238837 -5.979801,32.822464 0.2657689,-0.0443 5.7140321,-31.360734 8.2831322,8.238837 c 13.454232,-12.776987 34.883428,-12.774379 48.059882,0.354358 3.758901,3.745287 6.462686,8.152145 8.105952,12.845499 l 0.442948,-0.132885 C 70.626569,39.440808 67.765006,34.5768 63.660519,30.487179 56.660528,23.512537 47.335233,20.217373 38.102406,20.609433 Z M 26.231394,40.763578 c -0.255939,0.217047 -0.549824,0.388504 -0.797307,0.620127 l 7.618709,7.574415 1.195961,-0.221474 z"
             inkscape:connector-curvature="0"
             id="path3921"
             style="display:inline;opacity:0.75;fill:#ffffff;fill-opacity:1;stroke:none;stroke-width:1.41743433" />
          <path
             d="m 39.785609,33.056278 c -5.138137,-0.07512 -10.33732,1.735609 -14.351522,5.492558 l 0.797307,0.797307 c 8.04677,-6.824033 20.137893,-6.500104 27.728559,1.063076 2.271604,2.263383 3.894475,4.958086 4.87243,7.795889 l 13.377036,-3.587881 c -0.133267,-0.43584 -0.291869,-0.853052 -0.442948,-1.28455 l -12.934088,3.454996 c -0.977955,-2.837802 -2.600826,-5.532505 -4.87243,-7.795888 -3.91605,-3.90187 -9.036207,-5.860381 -14.174344,-5.935507 z M 33.052796,47.540685 1.6034727,53.254717 1.3377038,54.716447 34.248757,48.736646 Z"
             inkscape:connector-curvature="0"
             id="path3930"
             style="display:inline;opacity:0.15;fill:#000000;fill-opacity:1;stroke:none;stroke-width:1.41743433" />
        </g>
        <rect
           transform="matrix(1.0692451,0,0,1.0476829,4.4441802,38.894013)"
           style="opacity:0.95800003;fill:url(#linearGradient4767);fill-opacity:1;stroke:none"
           id="rect4146"
           width="75.965775"
           height="69.024437"
           x="2"
           y="-30"
           rx="3.9569874"
           ry="3.9569881"
           clip-path="url(#clipPath4156-4-1)" />
      </g>
    </g>
  </g>
</svg>
