<?xml version="1.0" encoding="UTF-8" standalone="no"?>
<!-- Created with Inkscape (http://www.inkscape.org/) -->

<svg
   xmlns:dc="http://purl.org/dc/elements/1.1/"
   xmlns:cc="http://creativecommons.org/ns#"
   xmlns:rdf="http://www.w3.org/1999/02/22-rdf-syntax-ns#"
   xmlns:svg="http://www.w3.org/2000/svg"
   xmlns="http://www.w3.org/2000/svg"
   xmlns:xlink="http://www.w3.org/1999/xlink"
   xmlns:sodipodi="http://sodipodi.sourceforge.net/DTD/sodipodi-0.dtd"
   xmlns:inkscape="http://www.inkscape.org/namespaces/inkscape"
   width="96"
   height="96"
   viewBox="0 0 96.000001 96.000004"
   version="1.1"
   id="svg1072"
   inkscape:version="0.92.1 r15371"
   sodipodi:docname="region.svg">
  <defs
     id="defs1066">
    <linearGradient
       y2="47.000011"
       x2="90"
       y1="47.000011"
       x1="6"
       gradientTransform="matrix(1.1071428,0,0,1.1071426,-4.9939026,-3.620687)"
       gradientUnits="userSpaceOnUse"
       id="linearGradient4071"
       xlink:href="#linearGradient6139-0"
       inkscape:collect="always" />
    <linearGradient
       id="linearGradient6139-0">
      <stop
         style="stop-color:#c1adad;stop-opacity:1;"
         offset="0"
         id="stop6141-2" />
      <stop
         id="stop6151-0"
         offset="0.25"
         style="stop-color:#ffffff;stop-opacity:1;" />
      <stop
         id="stop6147-1"
         offset="0.5"
         style="stop-color:#aa9090;stop-opacity:1;" />
      <stop
         style="stop-color:#fbf9f9;stop-opacity:1;"
         offset="0.75"
         id="stop6149-4" />
      <stop
         style="stop-color:#c1adad;stop-opacity:1;"
         offset="1"
         id="stop6143-4" />
    </linearGradient>
    <linearGradient
       gradientUnits="userSpaceOnUse"
       y2="88.171875"
       x2="94.5"
       y1="88.171875"
       x1="1.5"
       id="linearGradient4129"
       xlink:href="#linearGradient3832-0-6-1-1"
       inkscape:collect="always"
       gradientTransform="translate(0.1489535,0.415026)" />
    <linearGradient
       id="linearGradient3832-0-6-1-1">
      <stop
         id="stop3834-6-3-7-1"
         offset="0"
         style="stop-color:#000000;stop-opacity:1;" />
      <stop
         style="stop-color:#000000;stop-opacity:0.58823532;"
         offset="0.1"
         id="stop3872-2-4" />
      <stop
         id="stop3844-6-2-7-6"
         offset="0.89999998"
         style="stop-color:#000000;stop-opacity:0.58823532;" />
      <stop
         id="stop3836-5-0-2-9"
         offset="1"
         style="stop-color:#000000;stop-opacity:1;" />
    </linearGradient>
    <radialGradient
       r="43.199203"
       fy="44.892841"
       fx="13.948145"
       cy="44.892841"
       cx="13.948145"
       gradientTransform="matrix(0.97513378,0,0,0.04919072,34.047649,80.581722)"
       gradientUnits="userSpaceOnUse"
       id="radialGradient7462"
       xlink:href="#linearGradient3737"
       inkscape:collect="always" />
    <linearGradient
       id="linearGradient3737">
      <stop
         id="stop3739"
         style="stop-color:#ffffff;stop-opacity:1"
         offset="0" />
      <stop
         id="stop3741"
         style="stop-color:#ffffff;stop-opacity:0"
         offset="1" />
    </linearGradient>
    <radialGradient
       r="43.199203"
       fy="44.892841"
       fx="13.948145"
       cy="44.892841"
       cx="13.948145"
       gradientTransform="matrix(0.88832663,0,0,0.04919072,31.959518,-90.31726)"
       gradientUnits="userSpaceOnUse"
       id="radialGradient7464"
       xlink:href="#linearGradient3737"
       inkscape:collect="always" />
    <linearGradient
       y2="14.514202"
       x2="50.527882"
       y1="-28.64156"
       x1="2.7713892"
       gradientUnits="userSpaceOnUse"
       id="linearGradient4767"
       xlink:href="#linearGradient3737"
       inkscape:collect="always" />
    <clipPath
       clipPathUnits="userSpaceOnUse"
       id="clipPath4156-4-1">
      <path
         style="opacity:0.6;fill:#ffffff;fill-opacity:1;stroke:none"
         d="m 27.046336,-55.695463 -14.21366,13.321486 h 0.06127 l 15.653407,21.770763 10.231384,-10.546177 C 38.561832,-32.30156 27.468089,-54.819245 27.046336,-55.695463 Z M 9.6468554,-39.382809 -5.2407289,-25.32124 15.987863,-7.8059573 26.372412,-18.382966 Z m 31.4906096,12.951445 -9.741259,9.713584 8.944804,12.4580526 7.780753,-7.5550056 z m -49.8397109,4.378822 -13.7541661,12.9822847 26.2830181,13.84571 0.06127,-0.0617 -0.122531,-0.0617 L 13.598503,-5.4007374 -8.7022409,-22.052595 Z m 38.0154159,7.400825 -9.802525,9.7752596 11.579232,9.5594001 7.62759,-7.40083 -8.669108,-11.0087257 z m 20.187073,5.6739697 -7.382526,7.2158 6.187844,8.54179 5.820249,-6.13651996 z m -32.195166,6.32154 -9.5574606,9.49772 13.6622686,7.1849703 7.933918,-7.6783603 z m 23.311629,2.37443004 -7.10683,6.93826996 8.362778,6.9074403 5.360756,-5.6739699 -0.06127,-0.0925 -0.0919,0.12335 -6.463539,-8.20258036 z m -8.730374,8.54178036 -7.505057,7.3391599 10.353916,5.45811 c 1.397496,-1.32103 5.67514,-6.12292 5.850882,-6.32154 z"
         id="path4158-0-8"
         inkscape:connector-curvature="0" />
    </clipPath>
    <linearGradient
       x1="48"
       y1="74"
       x2="48"
       y2="21.913534"
       id="linearGradient3762"
       xlink:href="#ButtonShadow-0"
       gradientUnits="userSpaceOnUse" />
    <linearGradient
       x1="45.447727"
       y1="92.539597"
       x2="45.447727"
       y2="7.0165396"
       id="ButtonShadow-0"
       gradientUnits="userSpaceOnUse"
       gradientTransform="matrix(1.0058652,0,0,0.994169,100,0)">
      <stop
         id="stop3750-8"
         style="stop-color:#000000;stop-opacity:1"
         offset="0" />
      <stop
         id="stop3752-5"
         style="stop-color:#000000;stop-opacity:0.58823532"
         offset="1" />
    </linearGradient>
  </defs>
  <sodipodi:namedview
     id="base"
     pagecolor="#ffffff"
     bordercolor="#666666"
     borderopacity="1.0"
     inkscape:pageopacity="0.0"
     inkscape:pageshadow="2"
     inkscape:zoom="1.7760417"
     inkscape:cx="4.7800473"
     inkscape:cy="48"
     inkscape:document-units="px"
     inkscape:current-layer="g2574"
     showgrid="false"
     inkscape:showpageshadow="false"
     units="px"
     inkscape:lockguides="true"
     inkscape:window-width="1280"
     inkscape:window-height="972"
     inkscape:window-x="0"
     inkscape:window-y="26"
     inkscape:window-maximized="1">
    <sodipodi:guide
       position="0,0"
       orientation="0,96"
       id="guide1621"
       inkscape:locked="true" />
    <sodipodi:guide
       position="96.000002,0"
       orientation="-96,0"
       id="guide1623"
       inkscape:locked="true" />
    <sodipodi:guide
       position="96.000002,96.000002"
       orientation="0,-96"
       id="guide1625"
       inkscape:locked="true" />
    <sodipodi:guide
       position="0,96.000002"
       orientation="96,0"
       id="guide1627"
       inkscape:locked="true" />
  </sodipodi:namedview>
  <metadata
     id="metadata1069">
    <rdf:RDF>
      <cc:Work
         rdf:about="">
        <dc:format>image/svg+xml</dc:format>
        <dc:type
           rdf:resource="http://purl.org/dc/dcmitype/StillImage" />
        <dc:title></dc:title>
        <dc:date>2017</dc:date>
        <dc:creator>
          <cc:Agent>
            <dc:title>Cristian Pozzessere &quot;ilnanny&quot;</dc:title>
          </cc:Agent>
        </dc:creator>
        <dc:subject>
          <rdf:Bag>
            <rdf:li>Global language</rdf:li>
          </rdf:Bag>
        </dc:subject>
        <dc:description>Playing with Inkscape on Gnu/Linux O. S.</dc:description>
        <dc:contributor>
          <cc:Agent>
            <dc:title>In the night, alone like a dog.</dc:title>
          </cc:Agent>
        </dc:contributor>
        <cc:license
           rdf:resource="http://creativecommons.org/licenses/by-sa/4.0/" />
      </cc:Work>
      <cc:License
         rdf:about="http://creativecommons.org/licenses/by-sa/4.0/">
        <cc:permits
           rdf:resource="http://creativecommons.org/ns#Reproduction" />
        <cc:permits
           rdf:resource="http://creativecommons.org/ns#Distribution" />
        <cc:requires
           rdf:resource="http://creativecommons.org/ns#Notice" />
        <cc:requires
           rdf:resource="http://creativecommons.org/ns#Attribution" />
        <cc:permits
           rdf:resource="http://creativecommons.org/ns#DerivativeWorks" />
        <cc:requires
           rdf:resource="http://creativecommons.org/ns#ShareAlike" />
      </cc:License>
    </rdf:RDF>
  </metadata>
  <g
     inkscape:label="Livello 1"
     inkscape:groupmode="layer"
     id="layer1"
     transform="translate(0,-1026.5197)">
    <g
       transform="translate(-0.14895645,1026.1047)"
       style="display:inline"
       id="g2574">
      <path
         inkscape:connector-curvature="0"
         id="path3288"
         d="M 89.29181,0.415026 H 7.0060911 c -3.798848,0 -6.8571352,3.058285 -6.8571352,6.8571399 V 89.557884 c 0,3.798857 3.0582872,6.857142 6.8571352,6.857142 H 89.29181 c 3.798857,0 6.857147,-3.058285 6.857147,-6.857142 V 7.2721659 c 0,-3.7988549 -3.05829,-6.8571399 -6.857147,-6.8571399 z"
         style="display:inline;opacity:0.15;fill:#000000;fill-opacity:1;fill-rule:nonzero;stroke:none" />
      <path
         style="display:inline;opacity:0.15;fill:#000000;fill-opacity:1;fill-rule:nonzero;stroke:none"
         d="M 88.648954,1.165026 H 7.6489471 c -3.739492,0 -6.749993,3.010499 -6.749993,6.7499969 V 88.915026 c 0,3.739501 3.010501,6.75 6.749993,6.75 H 88.648954 c 3.739503,0 6.750003,-3.010499 6.750003,-6.75 V 7.9150229 c 0,-3.7394979 -3.0105,-6.7499969 -6.750003,-6.7499969 z"
         id="path4085"
         inkscape:connector-curvature="0" />
      <path
         inkscape:connector-curvature="0"
         id="rect4251-1"
         d="M 88.006093,1.915026 H 8.2918111 c -3.680143,0 -6.6428566,2.962713 -6.6428566,6.6428549 V 88.272171 c 0,3.680142 2.9627136,6.642856 6.6428566,6.642856 H 88.006093 c 3.680143,0 6.642854,-2.962714 6.642854,-6.642856 V 8.5578809 c 0,-3.6801419 -2.962711,-6.6428549 -6.642854,-6.6428549 z"
         style="display:inline;fill:url(#linearGradient4071);fill-opacity:1;fill-rule:nonzero;stroke:none" />
      <path
         sodipodi:nodetypes="sscccsccscccsss"
         inkscape:connector-curvature="0"
         id="path3400-6"
         d="m 11.390247,6.8021682 c -2.8564964,0 -5.1241284,2.2883782 -5.1241284,5.1710028 v 21.42734 7.239403 39.913674 c 1.0972399,1.684484 2.9688485,2.811732 5.1241284,2.811732 h 4.099303 65.588849 4.099302 c 2.155281,0 4.026889,-1.127248 5.124129,-2.811732 V 40.639914 33.400511 11.973171 c 0,-2.8826246 -2.267632,-5.1710028 -5.124129,-5.1710028 z"
         style="display:inline;opacity:0.77864583;fill:#f5f3f3;fill-opacity:1;fill-rule:nonzero;stroke:none;stroke-width:1.02950251" />
      <path
         style="color:#000000;font-style:normal;font-variant:normal;font-weight:normal;font-stretch:normal;font-size:medium;line-height:normal;font-family:Sans;-inkscape-font-specification:Sans;text-indent:0;text-align:start;text-decoration:none;text-decoration-line:none;letter-spacing:normal;word-spacing:normal;text-transform:none;writing-mode:lr-tb;direction:ltr;baseline-shift:baseline;text-anchor:start;display:inline;overflow:visible;visibility:visible;fill:#241f1f;fill-opacity:0.63265303;stroke:none;stroke-width:2.3755002;marker:none;enable-background:accumulate"
         d="m 9.9740341,5.1444869 c -3.116621,0 -5.667965,2.53951 -5.667965,5.6460041 v 69.277996 c 0,3.106495 2.551344,5.646004 5.667965,5.646004 H 86.765819 c 3.116621,0 5.667968,-2.539509 5.667968,-5.646004 V 10.790491 c 0,-3.1064931 -2.551347,-5.6460041 -5.667968,-5.6460041 z m 0,2.319439 H 86.765819 c 1.888099,0 3.352022,1.480095 3.352022,3.3265651 v 69.277996 c 0,1.846474 -1.463923,3.326564 -3.352022,3.326564 H 9.9740341 c -1.888099,0 -3.352022,-1.48009 -3.352022,-3.326564 V 10.790491 c 0,-1.8464701 1.463923,-3.3265651 3.352022,-3.3265651 z"
         id="path4989"
         inkscape:connector-curvature="0" />
      <path
         id="path4118"
         d="m 1.6489535,82.258776 v 6 c 0,3.680142 2.9761066,6.65625 6.6562496,6.65625 H 87.992703 c 3.680143,0 6.656254,-2.976108 6.656254,-6.65625 v -6 c 0,3.680142 -2.976111,6.65625 -6.656254,6.65625 H 8.3052031 c -3.680143,0 -6.6562496,-2.976108 -6.6562496,-6.65625 z"
         style="display:inline;opacity:0.65818182;fill:url(#linearGradient4129);fill-opacity:1;fill-rule:nonzero;stroke:none"
         inkscape:connector-curvature="0" />
      <rect
         ry="4.25"
         rx="0"
         y="80.665031"
         x="5.5239539"
         height="4.25"
         width="84.250008"
         id="rect4131"
         style="opacity:0.55;fill:url(#radialGradient7462);fill-opacity:1;stroke:none" />
      <rect
         transform="rotate(90)"
         style="opacity:0.669;fill:url(#radialGradient7464);fill-opacity:1;stroke:none"
         id="rect4141"
         width="76.75"
         height="4.25"
         x="5.9750223"
         y="-90.233963"
         rx="0"
         ry="4.25" />
      <g
         transform="matrix(1.2858119,0,0,1.2858119,-13.573315,-14.589783)"
         style="display:inline"
         id="g1082">
        <path
           style="color:#000000;display:inline;overflow:visible;visibility:visible;opacity:0.1;fill:#000000;fill-opacity:1;fill-rule:nonzero;stroke:none;stroke-width:1;marker:none;enable-background:accumulate"
           id="path3792"
           inkscape:connector-curvature="0"
           d="M 30.59375,21 C 26.746934,20.894021 23.567834,24.627571 24,28.393814 24.02259,42.602133 23.95475,56.8133 24.03402,71.019836 24.304444,74.659844 27.89644,77.438264 31.478825,77 43.012433,76.97711 54.54899,77.04592 66.080743,76.96534 69.731888,76.675963 72.427322,73.025129 72,69.458674 71.977406,55.299525 72.045246,41.137529 71.965979,26.980164 71.695555,23.340156 68.103559,20.561736 64.521174,21 53.212032,21 41.902891,21 30.59375,21 Z M 34,31 c 9.333333,0 18.666667,0 28,0 0,1.270833 0,2.541667 0,3.8125 C 61.903344,33.392351 60.373041,32.759038 59.114924,33 51.284949,33 43.454975,33 35.625,33 34.757503,33.167429 34.037723,33.946382 34,34.84375 34,33.5625 34,32.28125 34,31 Z m 0,8.1875 C 34.07973,40.105912 34.818837,40.851201 35.71875,41 34.808412,41.09408 34.039379,41.923284 34,42.84375 34,41.625 34,40.40625 34,39.1875 Z m 28,0 c 0,1.208333 0,2.416667 0,3.625 C 61.918056,41.868935 61.129466,41.083829 60.1875,41 61.141313,40.909522 61.907391,40.140626 62,39.1875 Z m -28,8 C 34.07973,48.105912 34.818837,48.851201 35.71875,49 34.808412,49.09408 34.039379,49.923284 34,50.84375 34,49.625 34,48.40625 34,47.1875 Z m 28,0 c 0,1.208333 0,2.416667 0,3.625 C 61.918056,49.868935 61.129466,49.083829 60.1875,49 61.141313,48.909522 61.907391,48.140626 62,47.1875 Z m -28,8 c 0.08194,0.943565 0.870534,1.728671 1.8125,1.8125 -0.943565,0.08194 -1.728671,0.870534 -1.8125,1.8125 0,-1.208333 0,-2.416667 0,-3.625 z m 28,0 c 0,3.9375 0,7.875 0,11.8125 -1.9375,0 -3.875,0 -5.8125,0 C 57.607649,66.90334 58.240962,65.373041 58,64.114924 58.149167,62.953405 57.92158,61.427138 56.59375,61.09375 55.691266,60.963811 57.390472,60.850975 57.521438,60.3141 58.305024,59.392293 57.900986,58.100335 58,57 c 1.295567,-0.0444 3.065154,0.357524 3.78125,-1.0625 0.09209,-0.242913 0.198799,-0.488397 0.21875,-0.75 z m -28,8 c 0.09666,1.420149 1.626959,2.053462 2.885076,1.8125 3.704975,0 7.409949,0 11.114924,0 -0.03031,1.013822 0.809966,1.915013 1.8125,2 -5.270833,0 -10.541667,0 -15.8125,0 0,-1.270833 0,-2.541667 0,-3.8125 z" />
        <path
           inkscape:connector-curvature="0"
           style="color:#000000;display:inline;overflow:visible;visibility:visible;opacity:0.15;fill:#000000;fill-opacity:1;fill-rule:nonzero;stroke:none;stroke-width:1;marker:none;enable-background:accumulate"
           id="path3788"
           d="M 30.59375,22 C 27.503638,22 25,24.54793 25,27.65625 v 42.6875 C 25,73.45207 27.503638,76 30.59375,76 h 34.8125 C 68.496362,76 71,73.45207 71,70.34375 V 27.65625 C 71,24.54793 68.496362,22 65.40625,22 Z M 34,30 h 1 26 1 c 0.567613,0 1,0.432387 1,1 v 1 34 1 c 0,0.567613 -0.432387,1 -1,1 H 61 35 34 c -0.567613,0 -1,-0.432387 -1,-1 V 66 32 31 c 0,-0.567613 0.432387,-1 1,-1 z m 1.8125,4 A 1.0069645,1.0069645 0 0 0 35,35 v 4 a 1.0069645,1.0069645 0 0 0 1,1 h 24 a 1.0069645,1.0069645 0 0 0 1,-1 V 35 A 1.0069645,1.0069645 0 0 0 60,34 H 36 a 1.0069645,1.0069645 0 0 0 -0.1875,0 z m 0,8 A 1.0069645,1.0069645 0 0 0 35,43 v 4 a 1.0069645,1.0069645 0 0 0 1,1 h 24 a 1.0069645,1.0069645 0 0 0 1,-1 V 43 A 1.0069645,1.0069645 0 0 0 60,42 H 36 a 1.0069645,1.0069645 0 0 0 -0.1875,0 z m 0,8 A 1.0069645,1.0069645 0 0 0 35,51 v 4 a 1.0069645,1.0069645 0 0 0 1,1 H 49.8125 A 1.0069645,1.0069645 0 0 0 49,57 v 1.8125 A 1.0069645,1.0069645 0 0 0 48,58 H 36 a 1.0069645,1.0069645 0 0 0 -1,1 v 4 a 1.0069645,1.0069645 0 0 0 1,1 h 12 a 1.0069645,1.0069645 0 0 0 1,-0.84375 V 65 a 1.0069645,1.0069645 0 0 0 1,1 h 6 a 1.0069645,1.0069645 0 0 0 1,-1 v -2 a 1.0069645,1.0069645 0 0 0 -1,-1 h -1 v -2 h 1 a 1.0069645,1.0069645 0 0 0 1,-1 V 57 A 1.0069645,1.0069645 0 0 0 56.15625,56 H 60 a 1.0069645,1.0069645 0 0 0 1,-1 V 51 A 1.0069645,1.0069645 0 0 0 60,50 H 36 a 1.0069645,1.0069645 0 0 0 -0.1875,0 z M 49,59.1875 A 1.0069645,1.0069645 0 0 0 50,60 h 1 v 2 h -1 a 1.0069645,1.0069645 0 0 0 -1,0.84375 z" />
        <path
           style="color:#000000;display:inline;overflow:visible;visibility:visible;opacity:0.3;fill:#000000;fill-opacity:1;fill-rule:nonzero;stroke:none;stroke-width:1;marker:none;enable-background:accumulate"
           id="path3782"
           inkscape:connector-curvature="0"
           d="M 30.59375,23 C 28.054583,23 26,25.084107 26,27.65625 v 42.6875 C 26,72.915893 28.054583,75 30.59375,75 h 34.8125 C 67.945417,75 70,72.915893 70,70.34375 V 27.65625 C 70,25.084107 67.945417,23 65.40625,23 Z M 34,29 h 1 26 1 c 1.108,0 2,0.892 2,2 v 1 34 1 c 0,1.108 -0.892,2 -2,2 H 61 35 34 c -1.108,0 -2,-0.892 -2,-2 V 66 32 31 c 0,-1.108 0.892,-2 2,-2 z m 2,6 v 4 h 24 v -4 z m 0,8 v 4 h 24 v -4 z m 0,8 v 4 h 24 v -4 z m 14,6 v 2 h 2 v 4 h -2 v 2 h 6 v -2 h -2 v -4 h 2 v -2 z m -14,2 v 4 h 12 v -4 z" />
        <path
           style="color:#000000;display:inline;overflow:visible;visibility:visible;opacity:0.71600001;fill:url(#linearGradient3762);fill-opacity:1;fill-rule:nonzero;stroke:none;stroke-width:1;marker:none;enable-background:accumulate"
           id="rect2957"
           inkscape:connector-curvature="0"
           d="M 30.59375,22 C 28.054583,22 26,24.084107 26,26.65625 v 42.6875 C 26,71.915893 28.054583,74 30.59375,74 h 34.8125 C 67.945417,74 70,71.915893 70,69.34375 V 26.65625 C 70,24.084107 67.945417,22 65.40625,22 Z M 34,28 h 1 26 1 c 1.108,0 2,0.892 2,2 v 1 34 1 c 0,1.108 -0.892,2 -2,2 H 61 35 34 c -1.108,0 -2,-0.892 -2,-2 V 65 31 30 c 0,-1.108 0.892,-2 2,-2 z m 2,6 v 4 h 24 v -4 z m 0,8 v 4 h 24 v -4 z m 0,8 v 4 h 24 v -4 z m 14,6 v 2 h 2 v 4 h -2 v 2 h 6 v -2 h -2 v -4 h 2 v -2 z m -14,2 v 4 h 12 v -4 z" />
        <path
           style="color:#000000;display:inline;overflow:visible;visibility:visible;opacity:0.75;fill:#ffffff;fill-opacity:1;fill-rule:nonzero;stroke:none;stroke-width:1;marker:none;enable-background:accumulate"
           id="path3764"
           inkscape:connector-curvature="0"
           d="M 30.59375,22 C 28.054583,22 26,24.084107 26,26.65625 v 1 C 26,25.084107 28.054583,23 30.59375,23 h 34.8125 C 67.945417,23 70,25.084107 70,27.65625 v -1 C 70,24.084107 67.945417,22 65.40625,22 Z M 36,34 v 1 h 24 v -1 z m 0,8 v 1 h 24 v -1 z m 0,8 v 1 h 24 v -1 z m 14,6 v 1 h 6 v -1 z m -14,2 v 1 h 12 v -1 z m 14,4 v 1 h 2 v -1 z m 4,0 v 1 h 2 v -1 z m -22,4 v 1 c 0,1.108 0.892,2 2,2 h 1 26 1 c 1.108,0 2,-0.892 2,-2 v -1 c 0,1.108 -0.892,2 -2,2 H 61 35 34 c -1.108,0 -2,-0.892 -2,-2 z" />
        <path
           style="color:#000000;display:inline;overflow:visible;visibility:visible;opacity:0.15;fill:#f9f9f9;fill-opacity:1;fill-rule:nonzero;stroke:none;stroke-width:1;marker:none;enable-background:accumulate"
           id="path3773"
           inkscape:connector-curvature="0"
           d="m 34,27 c -1.108,0 -2,0.892 -2,2 v 1 c 0,-1.108 0.892,-2 2,-2 h 1 26 1 c 1.108,0 2,0.892 2,2 v -1 c 0,-1.108 -0.892,-2 -2,-2 H 61 35 Z m 2,10 v 1 h 24 v -1 z m 0,8 v 1 h 24 v -1 z m 0,8 v 1 h 24 v -1 z m 14,4 v 1 h 2 v -1 z m 4,0 v 1 h 2 v -1 z m -18,4 v 1 h 12 v -1 z m 14,2 v 1 h 6 v -1 z m -24,5.34375 v 1 C 26,71.915893 28.054583,74 30.59375,74 h 34.8125 C 67.945417,74 70,71.915893 70,69.34375 v -1 C 70,70.915893 67.945417,73 65.40625,73 H 30.59375 C 28.054583,73 26,70.915893 26,68.34375 Z" />
      </g>
      <rect
         clip-path="url(#clipPath4156-4-1)"
         ry="3.9569881"
         rx="3.9569874"
         y="-30"
         x="2"
         height="69.024437"
         width="75.965775"
         id="rect4146"
         style="opacity:0.5078125;fill:url(#linearGradient4767);fill-opacity:1;stroke:none"
         transform="matrix(1.0692451,0,0,1.0476829,4.4441802,38.894013)" />
    </g>
  </g>
</svg>
