<?xml version="1.0" encoding="UTF-8" standalone="no"?>
<!-- Created with Inkscape (http://www.inkscape.org/) -->

<svg
   xmlns:dc="http://purl.org/dc/elements/1.1/"
   xmlns:cc="http://creativecommons.org/ns#"
   xmlns:rdf="http://www.w3.org/1999/02/22-rdf-syntax-ns#"
   xmlns:svg="http://www.w3.org/2000/svg"
   xmlns="http://www.w3.org/2000/svg"
   xmlns:xlink="http://www.w3.org/1999/xlink"
   xmlns:sodipodi="http://sodipodi.sourceforge.net/DTD/sodipodi-0.dtd"
   xmlns:inkscape="http://www.inkscape.org/namespaces/inkscape"
   width="96"
   height="96"
   viewBox="0 0 96.000001 96.000004"
   version="1.1"
   id="svg1072"
   inkscape:version="0.92.1 r15371"
   sodipodi:docname="gtk-justify-left.svg">
  <defs
     id="defs1066">
    <linearGradient
       gradientTransform="matrix(-1.2631579,0,0,1,114.95276,0)"
       gradientUnits="userSpaceOnUse"
       xlink:href="#ButtonShadow-0"
       id="linearGradient3965"
       y2="23.729059"
       x2="49"
       y1="72.089897"
       x1="49" />
    <linearGradient
       gradientTransform="matrix(1.0058652,0,0,0.994169,100,0)"
       gradientUnits="userSpaceOnUse"
       id="ButtonShadow-0"
       y2="7.0165396"
       x2="45.447727"
       y1="92.539597"
       x1="45.447727">
      <stop
         offset="0"
         style="stop-color:#000000;stop-opacity:1"
         id="stop3750-8" />
      <stop
         offset="1"
         style="stop-color:#000000;stop-opacity:0.58823532"
         id="stop3752-5" />
    </linearGradient>
    <linearGradient
       inkscape:collect="always"
       xlink:href="#linearGradient6139-0"
       id="linearGradient4071"
       gradientUnits="userSpaceOnUse"
       gradientTransform="matrix(1.1071428,0,0,1.1071426,-4.9939026,-3.620687)"
       x1="6"
       y1="47.000011"
       x2="90"
       y2="47.000011" />
    <linearGradient
       id="linearGradient6139-0">
      <stop
         id="stop6141-2"
         offset="0"
         style="stop-color:#adb9c1;stop-opacity:1;" />
      <stop
         style="stop-color:#ffffff;stop-opacity:1;"
         offset="0.25"
         id="stop6151-0" />
      <stop
         style="stop-color:#90a2aa;stop-opacity:1;"
         offset="0.5"
         id="stop6147-1" />
      <stop
         id="stop6149-4"
         offset="0.75"
         style="stop-color:#f9fafb;stop-opacity:1;" />
      <stop
         id="stop6143-4"
         offset="1"
         style="stop-color:#adb9c1;stop-opacity:1;" />
    </linearGradient>
    <linearGradient
       gradientTransform="translate(0.1489535,0.415026)"
       inkscape:collect="always"
       xlink:href="#linearGradient3832-0-6-1-1"
       id="linearGradient4129"
       x1="1.5"
       y1="88.171875"
       x2="94.5"
       y2="88.171875"
       gradientUnits="userSpaceOnUse" />
    <linearGradient
       id="linearGradient3832-0-6-1-1">
      <stop
         style="stop-color:#000000;stop-opacity:1;"
         offset="0"
         id="stop3834-6-3-7-1" />
      <stop
         id="stop3872-2-4"
         offset="0.1"
         style="stop-color:#000000;stop-opacity:0.58823532;" />
      <stop
         style="stop-color:#000000;stop-opacity:0.58823532;"
         offset="0.89999998"
         id="stop3844-6-2-7-6" />
      <stop
         style="stop-color:#000000;stop-opacity:1;"
         offset="1"
         id="stop3836-5-0-2-9" />
    </linearGradient>
    <radialGradient
       inkscape:collect="always"
       xlink:href="#linearGradient3737"
       id="radialGradient7462"
       gradientUnits="userSpaceOnUse"
       gradientTransform="matrix(0.97513378,0,0,0.04919072,34.047649,80.581722)"
       cx="13.948145"
       cy="44.892841"
       fx="13.948145"
       fy="44.892841"
       r="43.199203" />
    <linearGradient
       id="linearGradient3737">
      <stop
         offset="0"
         style="stop-color:#ffffff;stop-opacity:1"
         id="stop3739" />
      <stop
         offset="1"
         style="stop-color:#ffffff;stop-opacity:0"
         id="stop3741" />
    </linearGradient>
    <radialGradient
       inkscape:collect="always"
       xlink:href="#linearGradient3737"
       id="radialGradient7464"
       gradientUnits="userSpaceOnUse"
       gradientTransform="matrix(0.88832663,0,0,0.04919072,31.959518,-90.31726)"
       cx="13.948145"
       cy="44.892841"
       fx="13.948145"
       fy="44.892841"
       r="43.199203" />
    <linearGradient
       inkscape:collect="always"
       xlink:href="#linearGradient3737"
       id="linearGradient4767"
       gradientUnits="userSpaceOnUse"
       x1="2.7713892"
       y1="-28.64156"
       x2="50.527882"
       y2="14.514202" />
    <clipPath
       id="clipPath4156-4-1"
       clipPathUnits="userSpaceOnUse">
      <path
         inkscape:connector-curvature="0"
         id="path4158-0-8"
         d="m 27.046336,-55.695463 -14.21366,13.321486 h 0.06127 l 15.653407,21.770763 10.231384,-10.546177 C 38.561832,-32.30156 27.468089,-54.819245 27.046336,-55.695463 Z M 9.6468554,-39.382809 -5.2407289,-25.32124 15.987863,-7.8059573 26.372412,-18.382966 Z m 31.4906096,12.951445 -9.741259,9.713584 8.944804,12.4580526 7.780753,-7.5550056 z m -49.8397109,4.378822 -13.7541661,12.9822847 26.2830181,13.84571 0.06127,-0.0617 -0.122531,-0.0617 L 13.598503,-5.4007374 -8.7022409,-22.052595 Z m 38.0154159,7.400825 -9.802525,9.7752596 11.579232,9.5594001 7.62759,-7.40083 -8.669108,-11.0087257 z m 20.187073,5.6739697 -7.382526,7.2158 6.187844,8.54179 5.820249,-6.13651996 z m -32.195166,6.32154 -9.5574606,9.49772 13.6622686,7.1849703 7.933918,-7.6783603 z m 23.311629,2.37443004 -7.10683,6.93826996 8.362778,6.9074403 5.360756,-5.6739699 -0.06127,-0.0925 -0.0919,0.12335 -6.463539,-8.20258036 z m -8.730374,8.54178036 -7.505057,7.3391599 10.353916,5.45811 c 1.397496,-1.32103 5.67514,-6.12292 5.850882,-6.32154 z"
         style="opacity:0.6;fill:#ffffff;fill-opacity:1;stroke:none" />
    </clipPath>
  </defs>
  <sodipodi:namedview
     id="base"
     pagecolor="#ffffff"
     bordercolor="#666666"
     borderopacity="1.0"
     inkscape:pageopacity="0.0"
     inkscape:pageshadow="2"
     inkscape:zoom="5.0234044"
     inkscape:cx="16.750733"
     inkscape:cy="48"
     inkscape:document-units="px"
     inkscape:current-layer="g2574"
     showgrid="false"
     inkscape:showpageshadow="false"
     units="px"
     inkscape:lockguides="true"
     inkscape:window-width="1280"
     inkscape:window-height="972"
     inkscape:window-x="0"
     inkscape:window-y="26"
     inkscape:window-maximized="1">
    <sodipodi:guide
       position="0,0"
       orientation="0,96"
       id="guide1621"
       inkscape:locked="true" />
    <sodipodi:guide
       position="96.000002,0"
       orientation="-96,0"
       id="guide1623"
       inkscape:locked="true" />
    <sodipodi:guide
       position="96.000002,96.000002"
       orientation="0,-96"
       id="guide1625"
       inkscape:locked="true" />
    <sodipodi:guide
       position="0,96.000002"
       orientation="96,0"
       id="guide1627"
       inkscape:locked="true" />
  </sodipodi:namedview>
  <metadata
     id="metadata1069">
    <rdf:RDF>
      <cc:Work
         rdf:about="">
        <dc:format>image/svg+xml</dc:format>
        <dc:type
           rdf:resource="http://purl.org/dc/dcmitype/StillImage" />
        <dc:title></dc:title>
        <dc:date>2017</dc:date>
        <dc:creator>
          <cc:Agent>
            <dc:title>Cristian Pozzessere &quot;ilnanny&quot;</dc:title>
          </cc:Agent>
        </dc:creator>
        <dc:subject>
          <rdf:Bag>
            <rdf:li>Global language</rdf:li>
          </rdf:Bag>
        </dc:subject>
        <dc:description>Playing with Inkscape on Gnu/Linux O. S.</dc:description>
        <dc:contributor>
          <cc:Agent>
            <dc:title>In the night, alone like a dog.</dc:title>
          </cc:Agent>
        </dc:contributor>
        <cc:license
           rdf:resource="http://creativecommons.org/licenses/by-sa/4.0/" />
      </cc:Work>
      <cc:License
         rdf:about="http://creativecommons.org/licenses/by-sa/4.0/">
        <cc:permits
           rdf:resource="http://creativecommons.org/ns#Reproduction" />
        <cc:permits
           rdf:resource="http://creativecommons.org/ns#Distribution" />
        <cc:requires
           rdf:resource="http://creativecommons.org/ns#Notice" />
        <cc:requires
           rdf:resource="http://creativecommons.org/ns#Attribution" />
        <cc:permits
           rdf:resource="http://creativecommons.org/ns#DerivativeWorks" />
        <cc:requires
           rdf:resource="http://creativecommons.org/ns#ShareAlike" />
      </cc:License>
    </rdf:RDF>
  </metadata>
  <g
     inkscape:label="Livello 1"
     inkscape:groupmode="layer"
     id="layer1"
     transform="translate(0,-1026.5197)">
    <g
       id="layer1-9"
       inkscape:label="Livello 1"
       transform="translate(0,-2.6e-5)">
      <g
         id="g2574"
         style="display:inline"
         transform="translate(-0.14895645,1026.1047)">
        <path
           style="display:inline;opacity:0.15;fill:#000000;fill-opacity:1;fill-rule:nonzero;stroke:none"
           d="M 89.29181,0.415026 H 7.0060911 c -3.798848,0 -6.8571352,3.058285 -6.8571352,6.8571399 V 89.557884 c 0,3.798857 3.0582872,6.857142 6.8571352,6.857142 H 89.29181 c 3.798857,0 6.857147,-3.058285 6.857147,-6.857142 V 7.2721659 c 0,-3.7988549 -3.05829,-6.8571399 -6.857147,-6.8571399 z"
           id="path3288"
           inkscape:connector-curvature="0" />
        <path
           inkscape:connector-curvature="0"
           id="path4085"
           d="M 88.648954,1.165026 H 7.6489471 c -3.739492,0 -6.749993,3.010499 -6.749993,6.7499969 V 88.915026 c 0,3.739501 3.010501,6.75 6.749993,6.75 H 88.648954 c 3.739503,0 6.750003,-3.010499 6.750003,-6.75 V 7.9150229 c 0,-3.7394979 -3.0105,-6.7499969 -6.750003,-6.7499969 z"
           style="display:inline;opacity:0.15;fill:#000000;fill-opacity:1;fill-rule:nonzero;stroke:none" />
        <path
           style="display:inline;fill:url(#linearGradient4071);fill-opacity:1;fill-rule:nonzero;stroke:none"
           d="M 88.006093,1.915026 H 8.2918111 c -3.680143,0 -6.6428566,2.962713 -6.6428566,6.6428549 V 88.272171 c 0,3.680142 2.9627136,6.642856 6.6428566,6.642856 H 88.006093 c 3.680143,0 6.642854,-2.962714 6.642854,-6.642856 V 8.5578809 c 0,-3.6801419 -2.962711,-6.6428549 -6.642854,-6.6428549 z"
           id="rect4251-1"
           inkscape:connector-curvature="0" />
        <path
           style="display:inline;opacity:0.77864583;fill:#f5f3f3;fill-opacity:1;fill-rule:nonzero;stroke:none;stroke-width:1.02950251"
           d="m 11.390247,6.8021682 c -2.8564964,0 -5.1241284,2.2883782 -5.1241284,5.1710028 v 21.42734 7.239403 39.913674 c 1.0972399,1.684484 2.9688485,2.811732 5.1241284,2.811732 h 4.099303 65.588849 4.099302 c 2.155281,0 4.026889,-1.127248 5.124129,-2.811732 V 40.639914 33.400511 11.973171 c 0,-2.8826246 -2.267632,-5.1710028 -5.124129,-5.1710028 z"
           id="path3400-6"
           inkscape:connector-curvature="0"
           sodipodi:nodetypes="sscccsccscccsss" />
        <path
           inkscape:connector-curvature="0"
           id="path4989"
           d="m 9.9740341,5.1444869 c -3.116621,0 -5.667965,2.53951 -5.667965,5.6460041 v 69.277996 c 0,3.106495 2.551344,5.646004 5.667965,5.646004 H 86.765819 c 3.116621,0 5.667968,-2.539509 5.667968,-5.646004 V 10.790491 c 0,-3.1064931 -2.551347,-5.6460041 -5.667968,-5.6460041 z m 0,2.319439 H 86.765819 c 1.888099,0 3.352022,1.480095 3.352022,3.3265651 v 69.277996 c 0,1.846474 -1.463923,3.326564 -3.352022,3.326564 H 9.9740341 c -1.888099,0 -3.352022,-1.48009 -3.352022,-3.326564 V 10.790491 c 0,-1.8464701 1.463923,-3.3265651 3.352022,-3.3265651 z"
           style="color:#000000;font-style:normal;font-variant:normal;font-weight:normal;font-stretch:normal;font-size:medium;line-height:normal;font-family:Sans;-inkscape-font-specification:Sans;text-indent:0;text-align:start;text-decoration:none;text-decoration-line:none;letter-spacing:normal;word-spacing:normal;text-transform:none;writing-mode:lr-tb;direction:ltr;baseline-shift:baseline;text-anchor:start;display:inline;overflow:visible;visibility:visible;fill:#1f2224;fill-opacity:0.63265303;stroke:none;stroke-width:2.3755002;marker:none;enable-background:accumulate" />
        <path
           inkscape:connector-curvature="0"
           style="display:inline;opacity:0.65818182;fill:url(#linearGradient4129);fill-opacity:1;fill-rule:nonzero;stroke:none"
           d="m 1.6489535,82.258776 v 6 c 0,3.680142 2.9761066,6.65625 6.6562496,6.65625 H 87.992703 c 3.680143,0 6.656254,-2.976108 6.656254,-6.65625 v -6 c 0,3.680142 -2.976111,6.65625 -6.656254,6.65625 H 8.3052031 c -3.680143,0 -6.6562496,-2.976108 -6.6562496,-6.65625 z"
           id="path4118" />
        <rect
           style="opacity:0.55;fill:url(#radialGradient7462);fill-opacity:1;stroke:none"
           id="rect4131"
           width="84.250008"
           height="4.25"
           x="5.5239539"
           y="80.665031"
           rx="0"
           ry="4.25" />
        <rect
           ry="4.25"
           rx="0"
           y="-90.233963"
           x="5.9750223"
           height="4.25"
           width="76.75"
           id="rect4141"
           style="opacity:0.669;fill:url(#radialGradient7464);fill-opacity:1;stroke:none"
           transform="rotate(90)" />
        <g
           transform="matrix(-1.229528,0,0,1.229528,107.16962,-12.804296)"
           style="display:inline"
           id="g4959">
          <path
             d="m 72.349144,23 c 1.480885,0.200442 1.829887,1.813112 1.65625,3.060821 -0.08599,1.899617 0.171004,3.854892 -0.125,5.720429 -0.283089,0.619966 -0.868378,1.100259 -1.53125,1.21875 1.480885,0.200442 1.829887,1.813112 1.65625,3.060821 -0.08599,1.899617 0.171004,3.854892 -0.125,5.720429 -0.283089,0.619966 -0.868378,1.100259 -1.53125,1.21875 1.480885,0.200442 1.829887,1.813112 1.65625,3.060821 -0.08599,1.899617 0.171004,3.854892 -0.125,5.720429 -0.485587,1.235269 -1.902307,1.336758 -3.051652,1.21875 -9.10606,-0.02103 -18.225752,0.04194 -27.323348,-0.03125 -1.264537,-0.306481 -1.699175,-1.680095 -1.5,-2.851239 0.06548,-1.929449 -0.12945,-3.901157 0.09375,-5.805011 0.263287,-0.682305 0.890731,-1.223159 1.625,-1.3125 -6.737826,-0.02125 -13.4894,0.04223 -20.21875,-0.03125 -1.264537,-0.306481 -1.699175,-1.680095 -1.5,-2.851239 0.06548,-1.929449 -0.12945,-3.901157 0.09375,-5.805011 0.409435,-1.229987 1.795588,-1.465031 2.935821,-1.3125 2.896393,0 5.792786,0 8.689179,0 -1.299779,-0.14249 -1.955038,-1.534222 -1.71875,-2.735408 0.06555,-1.978464 -0.129527,-3.999223 0.09375,-5.952092 0.409435,-1.229987 1.795588,-1.465031 2.935821,-1.3125 12.438043,0 24.876219,0 37.314179,0 z m -8.21875,30.96875 c 1.589781,0.317477 2.397568,1.946925 3.596069,2.917524 1.98825,2.061352 4.141654,4.029492 6.028931,6.144976 0.907742,1.600994 -0.811374,2.830268 -1.715734,3.930201 -2.303783,2.543027 -4.516999,5.179571 -6.878016,7.663549 -1.343795,1.037583 -3.440281,-0.258515 -3.15625,-1.919163 0,-1.235279 0,-2.470558 0,-3.705837 -4.194296,-0.04314 -8.416447,0.08536 -12.59375,-0.0625 -1.214271,-0.345185 -1.587342,-1.684698 -1.40625,-2.819989 0.06548,-1.929449 -0.12945,-3.901157 0.09375,-5.805011 0.409435,-1.229987 1.795588,-1.465031 2.935821,-1.3125 3.656809,0 7.313619,0 10.970429,0 0.167826,-1.413302 -0.404613,-3.033274 0.4375,-4.28125 0.423237,-0.501719 1.028743,-0.767655 1.6875,-0.75 z"
             inkscape:connector-curvature="0"
             id="path3961"
             style="opacity:0.1;fill:#000000;fill-opacity:1;stroke:none" />
          <path
             inkscape:connector-curvature="0"
             d="M 23.90625,23.9375 A 1.0583464,1.0583464 0 0 0 22.9375,25 v 6 A 1.0583464,1.0583464 0 0 0 24,32.0625 H 62 A 1.0583464,1.0583464 0 0 0 63.0625,31 V 25 A 1.0583464,1.0583464 0 0 0 62,23.9375 H 24 a 1.0583464,1.0583464 0 0 0 -0.09375,0 z m 0,10 A 1.0583464,1.0583464 0 0 0 22.9375,35 v 6 A 1.0583464,1.0583464 0 0 0 24,42.0625 H 72 A 1.0583464,1.0583464 0 0 0 73.0625,41 V 35 A 1.0583464,1.0583464 0 0 0 72,33.9375 H 24 a 1.0583464,1.0583464 0 0 0 -0.09375,0 z m 0,10 A 1.0583464,1.0583464 0 0 0 22.9375,45 v 6 A 1.0583464,1.0583464 0 0 0 24,52.0625 H 52 A 1.0583464,1.0583464 0 0 0 53.0625,51 V 45 A 1.0583464,1.0583464 0 0 0 52,43.9375 H 24 a 1.0583464,1.0583464 0 0 0 -0.09375,0 z m 7.96875,11 A 1.0583464,1.0583464 0 0 0 31.25,55.25 l -8,8 a 1.0583464,1.0583464 0 0 0 -0.03125,1.4375 l 8,9 A 1.0583464,1.0583464 0 0 0 33.0625,73 V 68.0625 H 46 A 1.0583464,1.0583464 0 0 0 47.0625,67 V 61 A 1.0583464,1.0583464 0 0 0 46,59.9375 H 33.0625 V 56 A 1.0583464,1.0583464 0 0 0 31.875,54.9375 Z"
             transform="matrix(-1,0,0,1,96.005394,0)"
             id="path3957"
             style="opacity:0.15;fill:#000000;fill-opacity:1;stroke:none" />
          <path
             d="m 72.005394,25 v 6 h -38 v -6 z m 0,10 v 6 h -48 v -6 z m 0,10 v 6 h -28 v -6 z m -8,11 8,8 -8,9 v -6 h -14 v -6 h 14 z"
             inkscape:connector-curvature="0"
             id="path3951"
             style="opacity:0.3;fill:#000000;fill-opacity:1;stroke:none" />
          <path
             d="m 72.005394,24 v 6 h -38 v -6 z m 0,10 v 6 h -48 v -6 z m 0,10 v 6 h -28 v -6 z m -8,11 8,8 -8,9 v -6 h -14 v -6 h 14 z"
             inkscape:connector-curvature="0"
             id="path3724"
             style="fill:url(#linearGradient3965);fill-opacity:1;stroke:none" />
          <path
             d="m 72.005394,24 v 1 h -38 v -1 z m 0,10 v 1 h -48 v -1 z m 0,10 v 1 h -28 v -1 z m -8,11 8,8 -0.46875,0.53125 L 64.005394,56 Z m 0,5 v 1 h -14 v -1 z"
             inkscape:connector-curvature="0"
             id="path3165"
             style="opacity:0.75;fill:#ffffff;fill-opacity:1;stroke:none" />
          <path
             d="m 72.005394,29 v 1 h -38 v -1 z m 0,10 v 1 h -48 v -1 z m 0,10 v 1 h -28 v -1 z m -0.46875,13.53125 0.46875,0.46875 -8,9 V 71 Z M 64.005394,65 v 1 h -14 v -1 z"
             inkscape:connector-curvature="0"
             id="path3942"
             style="opacity:0.15;fill:#000000;fill-opacity:1;stroke:none" />
        </g>
        <rect
           transform="matrix(1.0692451,0,0,1.0476829,4.4441802,38.894013)"
           style="opacity:0.72916667;fill:url(#linearGradient4767);fill-opacity:1;stroke:none"
           id="rect4146"
           width="75.965775"
           height="69.024437"
           x="2"
           y="-30"
           rx="3.9569874"
           ry="3.9569881"
           clip-path="url(#clipPath4156-4-1)" />
      </g>
    </g>
  </g>
</svg>
