<?xml version="1.0" encoding="UTF-8" standalone="no"?>
<!-- Created with Inkscape (http://www.inkscape.org/) -->

<svg
   xmlns:dc="http://purl.org/dc/elements/1.1/"
   xmlns:cc="http://creativecommons.org/ns#"
   xmlns:rdf="http://www.w3.org/1999/02/22-rdf-syntax-ns#"
   xmlns:svg="http://www.w3.org/2000/svg"
   xmlns="http://www.w3.org/2000/svg"
   xmlns:xlink="http://www.w3.org/1999/xlink"
   xmlns:sodipodi="http://sodipodi.sourceforge.net/DTD/sodipodi-0.dtd"
   xmlns:inkscape="http://www.inkscape.org/namespaces/inkscape"
   width="96"
   height="96"
   viewBox="0 0 96.000001 96.000004"
   version="1.1"
   id="svg1072"
   inkscape:version="0.92.1 r15371"
   sodipodi:docname="gtk-sort-descending.svg">
  <defs
     id="defs1066">
    <linearGradient
       y2="47.000011"
       x2="90"
       y1="47.000011"
       x1="6"
       gradientTransform="matrix(1.1071428,0,0,1.1071426,-4.9939026,-3.620687)"
       gradientUnits="userSpaceOnUse"
       id="linearGradient4071"
       xlink:href="#linearGradient6139-0"
       inkscape:collect="always" />
    <linearGradient
       id="linearGradient6139-0">
      <stop
         style="stop-color:#adb9c1;stop-opacity:1;"
         offset="0"
         id="stop6141-2" />
      <stop
         id="stop6151-0"
         offset="0.25"
         style="stop-color:#ffffff;stop-opacity:1;" />
      <stop
         id="stop6147-1"
         offset="0.5"
         style="stop-color:#90a2aa;stop-opacity:1;" />
      <stop
         style="stop-color:#f9fafb;stop-opacity:1;"
         offset="0.75"
         id="stop6149-4" />
      <stop
         style="stop-color:#adb9c1;stop-opacity:1;"
         offset="1"
         id="stop6143-4" />
    </linearGradient>
    <linearGradient
       gradientUnits="userSpaceOnUse"
       y2="88.171875"
       x2="94.5"
       y1="88.171875"
       x1="1.5"
       id="linearGradient4129"
       xlink:href="#linearGradient3832-0-6-1-1"
       inkscape:collect="always"
       gradientTransform="translate(0.1489535,0.415026)" />
    <linearGradient
       id="linearGradient3832-0-6-1-1">
      <stop
         id="stop3834-6-3-7-1"
         offset="0"
         style="stop-color:#000000;stop-opacity:1;" />
      <stop
         style="stop-color:#000000;stop-opacity:0.58823532;"
         offset="0.1"
         id="stop3872-2-4" />
      <stop
         id="stop3844-6-2-7-6"
         offset="0.89999998"
         style="stop-color:#000000;stop-opacity:0.58823532;" />
      <stop
         id="stop3836-5-0-2-9"
         offset="1"
         style="stop-color:#000000;stop-opacity:1;" />
    </linearGradient>
    <radialGradient
       r="43.199203"
       fy="44.892841"
       fx="13.948145"
       cy="44.892841"
       cx="13.948145"
       gradientTransform="matrix(0.97513378,0,0,0.04919072,34.047649,80.581722)"
       gradientUnits="userSpaceOnUse"
       id="radialGradient7462"
       xlink:href="#linearGradient3737"
       inkscape:collect="always" />
    <linearGradient
       id="linearGradient3737">
      <stop
         id="stop3739"
         style="stop-color:#ffffff;stop-opacity:1"
         offset="0" />
      <stop
         id="stop3741"
         style="stop-color:#ffffff;stop-opacity:0"
         offset="1" />
    </linearGradient>
    <radialGradient
       r="43.199203"
       fy="44.892841"
       fx="13.948145"
       cy="44.892841"
       cx="13.948145"
       gradientTransform="matrix(0.88832663,0,0,0.04919072,31.959518,-90.31726)"
       gradientUnits="userSpaceOnUse"
       id="radialGradient7464"
       xlink:href="#linearGradient3737"
       inkscape:collect="always" />
    <linearGradient
       y2="14.514202"
       x2="50.527882"
       y1="-28.64156"
       x1="2.7713892"
       gradientUnits="userSpaceOnUse"
       id="linearGradient4767"
       xlink:href="#linearGradient3737"
       inkscape:collect="always" />
    <clipPath
       clipPathUnits="userSpaceOnUse"
       id="clipPath4156-4-1">
      <path
         style="opacity:0.6;fill:#ffffff;fill-opacity:1;stroke:none"
         d="m 27.046336,-55.695463 -14.21366,13.321486 h 0.06127 l 15.653407,21.770763 10.231384,-10.546177 C 38.561832,-32.30156 27.468089,-54.819245 27.046336,-55.695463 Z M 9.6468554,-39.382809 -5.2407289,-25.32124 15.987863,-7.8059573 26.372412,-18.382966 Z m 31.4906096,12.951445 -9.741259,9.713584 8.944804,12.4580526 7.780753,-7.5550056 z m -49.8397109,4.378822 -13.7541661,12.9822847 26.2830181,13.84571 0.06127,-0.0617 -0.122531,-0.0617 L 13.598503,-5.4007374 -8.7022409,-22.052595 Z m 38.0154159,7.400825 -9.802525,9.7752596 11.579232,9.5594001 7.62759,-7.40083 -8.669108,-11.0087257 z m 20.187073,5.6739697 -7.382526,7.2158 6.187844,8.54179 5.820249,-6.13651996 z m -32.195166,6.32154 -9.5574606,9.49772 13.6622686,7.1849703 7.933918,-7.6783603 z m 23.311629,2.37443004 -7.10683,6.93826996 8.362778,6.9074403 5.360756,-5.6739699 -0.06127,-0.0925 -0.0919,0.12335 -6.463539,-8.20258036 z m -8.730374,8.54178036 -7.505057,7.3391599 10.353916,5.45811 c 1.397496,-1.32103 5.67514,-6.12292 5.850882,-6.32154 z"
         id="path4158-0-8"
         inkscape:connector-curvature="0" />
    </clipPath>
    <linearGradient
       x1="11"
       y1="2"
       x2="10.917386"
       y2="19.380394"
       id="linearGradient3026"
       xlink:href="#linearGradient3832-0-6-1-1"
       gradientUnits="userSpaceOnUse"
       gradientTransform="matrix(-3,0,0,3,81.042576,12)" />
    <linearGradient
       id="linearGradient3637">
      <stop
         id="stop3639"
         style="stop-color:#f0f0f0;stop-opacity:1"
         offset="0" />
      <stop
         id="stop3641"
         style="stop-color:#aaaaaa;stop-opacity:1"
         offset="1" />
    </linearGradient>
    <linearGradient
       x1="13.262311"
       y1="6.7861471"
       x2="-0.53049242"
       y2="6.7861471"
       id="linearGradient3960"
       xlink:href="#ButtonShadow"
       gradientUnits="userSpaceOnUse"
       gradientTransform="matrix(0,-4.0214208,3.143659,0,24.177778,76.8)" />
    <linearGradient
       x1="45.447727"
       y1="92.539597"
       x2="45.447727"
       y2="7.0165396"
       id="ButtonShadow"
       gradientUnits="userSpaceOnUse"
       gradientTransform="scale(1.0058652,0.994169)">
      <stop
         id="stop3750"
         style="stop-color:#000000;stop-opacity:1"
         offset="0" />
      <stop
         id="stop3752"
         style="stop-color:#000000;stop-opacity:0.58823532"
         offset="1" />
    </linearGradient>
  </defs>
  <sodipodi:namedview
     id="base"
     pagecolor="#ffffff"
     bordercolor="#666666"
     borderopacity="1.0"
     inkscape:pageopacity="0.0"
     inkscape:pageshadow="2"
     inkscape:zoom="2.5117023"
     inkscape:cx="19.195486"
     inkscape:cy="48"
     inkscape:document-units="px"
     inkscape:current-layer="g2574"
     showgrid="false"
     inkscape:showpageshadow="false"
     units="px"
     inkscape:lockguides="true"
     inkscape:window-width="1280"
     inkscape:window-height="972"
     inkscape:window-x="0"
     inkscape:window-y="26"
     inkscape:window-maximized="1">
    <sodipodi:guide
       position="0,0"
       orientation="0,96"
       id="guide1621"
       inkscape:locked="true" />
    <sodipodi:guide
       position="96.000002,0"
       orientation="-96,0"
       id="guide1623"
       inkscape:locked="true" />
    <sodipodi:guide
       position="96.000002,96.000002"
       orientation="0,-96"
       id="guide1625"
       inkscape:locked="true" />
    <sodipodi:guide
       position="0,96.000002"
       orientation="96,0"
       id="guide1627"
       inkscape:locked="true" />
  </sodipodi:namedview>
  <metadata
     id="metadata1069">
    <rdf:RDF>
      <cc:Work
         rdf:about="">
        <dc:format>image/svg+xml</dc:format>
        <dc:type
           rdf:resource="http://purl.org/dc/dcmitype/StillImage" />
        <dc:title></dc:title>
        <dc:date>2017</dc:date>
        <dc:creator>
          <cc:Agent>
            <dc:title>Cristian Pozzessere &quot;ilnanny&quot;</dc:title>
          </cc:Agent>
        </dc:creator>
        <dc:subject>
          <rdf:Bag>
            <rdf:li>Global language</rdf:li>
          </rdf:Bag>
        </dc:subject>
        <dc:description>Playing with Inkscape on Gnu/Linux O. S.</dc:description>
        <dc:contributor>
          <cc:Agent>
            <dc:title>In the night, alone like a dog.</dc:title>
          </cc:Agent>
        </dc:contributor>
        <cc:license
           rdf:resource="http://creativecommons.org/licenses/by-sa/4.0/" />
      </cc:Work>
      <cc:License
         rdf:about="http://creativecommons.org/licenses/by-sa/4.0/">
        <cc:permits
           rdf:resource="http://creativecommons.org/ns#Reproduction" />
        <cc:permits
           rdf:resource="http://creativecommons.org/ns#Distribution" />
        <cc:requires
           rdf:resource="http://creativecommons.org/ns#Notice" />
        <cc:requires
           rdf:resource="http://creativecommons.org/ns#Attribution" />
        <cc:permits
           rdf:resource="http://creativecommons.org/ns#DerivativeWorks" />
        <cc:requires
           rdf:resource="http://creativecommons.org/ns#ShareAlike" />
      </cc:License>
    </rdf:RDF>
  </metadata>
  <g
     inkscape:label="Livello 1"
     inkscape:groupmode="layer"
     id="layer1"
     transform="translate(0,-1026.5197)">
    <g
       transform="translate(-0.14895645,1026.1047)"
       style="display:inline"
       id="g2574">
      <path
         inkscape:connector-curvature="0"
         id="path3288"
         d="M 89.29181,0.415026 H 7.0060911 c -3.798848,0 -6.8571352,3.058285 -6.8571352,6.8571399 V 89.557884 c 0,3.798857 3.0582872,6.857142 6.8571352,6.857142 H 89.29181 c 3.798857,0 6.857147,-3.058285 6.857147,-6.857142 V 7.2721659 c 0,-3.7988549 -3.05829,-6.8571399 -6.857147,-6.8571399 z"
         style="display:inline;opacity:0.15;fill:#000000;fill-opacity:1;fill-rule:nonzero;stroke:none" />
      <path
         style="display:inline;opacity:0.15;fill:#000000;fill-opacity:1;fill-rule:nonzero;stroke:none"
         d="M 88.648954,1.165026 H 7.6489471 c -3.739492,0 -6.749993,3.010499 -6.749993,6.7499969 V 88.915026 c 0,3.739501 3.010501,6.75 6.749993,6.75 H 88.648954 c 3.739503,0 6.750003,-3.010499 6.750003,-6.75 V 7.9150229 c 0,-3.7394979 -3.0105,-6.7499969 -6.750003,-6.7499969 z"
         id="path4085"
         inkscape:connector-curvature="0" />
      <path
         inkscape:connector-curvature="0"
         id="rect4251-1"
         d="M 88.006093,1.915026 H 8.2918111 c -3.680143,0 -6.6428566,2.962713 -6.6428566,6.6428549 V 88.272171 c 0,3.680142 2.9627136,6.642856 6.6428566,6.642856 H 88.006093 c 3.680143,0 6.642854,-2.962714 6.642854,-6.642856 V 8.5578809 c 0,-3.6801419 -2.962711,-6.6428549 -6.642854,-6.6428549 z"
         style="display:inline;fill:url(#linearGradient4071);fill-opacity:1;fill-rule:nonzero;stroke:none" />
      <path
         sodipodi:nodetypes="sscccsccscccsss"
         inkscape:connector-curvature="0"
         id="path3400-6"
         d="m 11.390247,6.8021682 c -2.8564964,0 -5.1241284,2.2883782 -5.1241284,5.1710028 v 21.42734 7.239403 39.913674 c 1.0972399,1.684484 2.9688485,2.811732 5.1241284,2.811732 h 4.099303 65.588849 4.099302 c 2.155281,0 4.026889,-1.127248 5.124129,-2.811732 V 40.639914 33.400511 11.973171 c 0,-2.8826246 -2.267632,-5.1710028 -5.124129,-5.1710028 z"
         style="display:inline;opacity:0.77864583;fill:#f5f3f3;fill-opacity:1;fill-rule:nonzero;stroke:none;stroke-width:1.02950251" />
      <path
         style="color:#000000;font-style:normal;font-variant:normal;font-weight:normal;font-stretch:normal;font-size:medium;line-height:normal;font-family:Sans;-inkscape-font-specification:Sans;text-indent:0;text-align:start;text-decoration:none;text-decoration-line:none;letter-spacing:normal;word-spacing:normal;text-transform:none;writing-mode:lr-tb;direction:ltr;baseline-shift:baseline;text-anchor:start;display:inline;overflow:visible;visibility:visible;fill:#1f2224;fill-opacity:0.63265303;stroke:none;stroke-width:2.3755002;marker:none;enable-background:accumulate"
         d="m 9.9740341,5.1444869 c -3.116621,0 -5.667965,2.53951 -5.667965,5.6460041 v 69.277996 c 0,3.106495 2.551344,5.646004 5.667965,5.646004 H 86.765819 c 3.116621,0 5.667968,-2.539509 5.667968,-5.646004 V 10.790491 c 0,-3.1064931 -2.551347,-5.6460041 -5.667968,-5.6460041 z m 0,2.319439 H 86.765819 c 1.888099,0 3.352022,1.480095 3.352022,3.3265651 v 69.277996 c 0,1.846474 -1.463923,3.326564 -3.352022,3.326564 H 9.9740341 c -1.888099,0 -3.352022,-1.48009 -3.352022,-3.326564 V 10.790491 c 0,-1.8464701 1.463923,-3.3265651 3.352022,-3.3265651 z"
         id="path4989"
         inkscape:connector-curvature="0" />
      <path
         id="path4118"
         d="m 1.6489535,82.258776 v 6 c 0,3.680142 2.9761066,6.65625 6.6562496,6.65625 H 87.992703 c 3.680143,0 6.656254,-2.976108 6.656254,-6.65625 v -6 c 0,3.680142 -2.976111,6.65625 -6.656254,6.65625 H 8.3052031 c -3.680143,0 -6.6562496,-2.976108 -6.6562496,-6.65625 z"
         style="display:inline;opacity:0.65818182;fill:url(#linearGradient4129);fill-opacity:1;fill-rule:nonzero;stroke:none"
         inkscape:connector-curvature="0" />
      <rect
         ry="4.25"
         rx="0"
         y="80.665031"
         x="5.5239539"
         height="4.25"
         width="84.250008"
         id="rect4131"
         style="opacity:0.55;fill:url(#radialGradient7462);fill-opacity:1;stroke:none" />
      <rect
         transform="rotate(90)"
         style="opacity:0.669;fill:url(#radialGradient7464);fill-opacity:1;stroke:none"
         id="rect4141"
         width="76.75"
         height="4.25"
         x="5.9750223"
         y="-90.233963"
         rx="0"
         ry="4.25" />
      <g
         id="layer6"
         style="display:inline"
         transform="matrix(1.1808099,0,0,1.1808099,-6.6734869,-5.9029408)" />
      <g
         id="layer6-6"
         style="display:inline"
         transform="matrix(1.2602563,0,0,1.2602563,-17.019981,-18.478265)">
        <path
           d="m 33.066667,22.366667 c -4.702402,-0.162952 -8.592453,4.820933 -7.269111,9.342789 0.76783,3.182098 3.831383,5.600101 7.102444,5.623877 -4.628013,-0.05355 -8.40935,4.849404 -7.102444,9.309456 0.76783,3.182098 3.831383,5.600102 7.102444,5.623878 -4.628013,-0.05355 -8.40935,4.849403 -7.102444,9.309456 0.76783,3.182098 3.831383,5.600101 7.102444,5.623877 -4.639618,-0.05418 -8.421981,4.87119 -7.096532,9.337353 1.020038,4.580347 6.781737,7.115659 10.833256,4.721882 4.16182,-2.074097 5.264103,-8.20078 2.024783,-11.55899 -0.96524,-1.641591 -4.60604,-2.547011 -5.050824,-2.518487 4.619926,-0.178632 8.149027,-5.254911 6.626268,-9.641303 -0.892472,-3.017053 -3.858484,-5.246486 -7.003618,-5.273788 4.628013,0.05355 8.409351,-4.849404 7.102444,-9.309456 -0.767829,-3.182098 -3.831382,-5.600102 -7.102444,-5.623878 4.639618,0.05418 8.421981,-4.87119 7.096533,-9.337352 -0.794396,-3.240276 -3.921062,-5.679656 -7.263199,-5.629314 z m 28.4,19.166666 c -1.832223,0.168605 -2.453068,2.228412 -3.578034,3.406429 -4.277071,5.713696 -8.617599,11.390067 -12.8553,17.126905 -0.958629,1.550855 0.626781,3.623685 2.376795,3.233333 1.929957,0 3.859915,0 5.789872,0 0.02224,5.043523 -0.04447,10.094409 0.03333,15.133333 0.305333,1.594976 2.046452,1.903937 3.404788,1.733334 3.664148,-0.02225 7.335662,0.04449 10.995212,-0.03333 1.594976,-0.305332 1.903937,-2.046451 1.733334,-3.404787 0,-4.476182 0,-8.952364 0,-13.428546 2.31954,-0.04628 4.659561,0.09155 6.966666,-0.06667 1.702993,-0.452572 2.063837,-2.784721 0.79118,-3.91299 C 72.425555,54.958047 67.829746,48.507337 63.066667,42.2 c -0.397217,-0.443157 -1.019186,-0.666122 -1.6,-0.666667 z"
           inkscape:connector-curvature="0"
           id="path3991"
           style="display:inline;opacity:0.1;fill:#000000;fill-opacity:1;stroke:none;stroke-width:1.06666672" />
        <path
           d="M 33.066667,23.5 C 29.55482,23.5 26.7,26.35482 26.7,29.866667 c 0,3.511846 2.85482,6.366666 6.366667,6.366666 3.511846,0 6.366666,-2.85482 6.366666,-6.366666 0,-3.511847 -2.85482,-6.366667 -6.366666,-6.366667 z m 0,14.933333 C 29.55482,38.433333 26.7,41.288154 26.7,44.8 c 0,3.511846 2.85482,6.366667 6.366667,6.366667 3.511846,0 6.366666,-2.854821 6.366666,-6.366667 0,-3.511846 -2.85482,-6.366667 -6.366666,-6.366667 z m 28.3,4.266667 A 1.0480061,1.0480061 0 0 0 60.7,43.1 L 46.1,62.5 a 1.0480061,1.0480061 0 0 0 0.833333,1.666667 h 7.4 V 80 a 1.0480061,1.0480061 0 0 0 1.033334,1.033333 H 67.2 A 1.0480061,1.0480061 0 0 0 68.233333,80 V 64.166667 h 7.5 A 1.0480061,1.0480061 0 0 0 76.566667,62.5 l -14.2,-19.4 a 1.0480061,1.0480061 0 0 0 -1,-0.4 z m -28.3,10.666667 C 29.55482,53.366667 26.7,56.221487 26.7,59.733333 26.7,63.24518 29.55482,66.1 33.066667,66.1 c 3.511846,0 6.366666,-2.85482 6.366666,-6.366667 0,-3.511846 -2.85482,-6.366666 -6.366666,-6.366666 z m 0,14.933333 C 29.55482,68.3 26.7,71.15482 26.7,74.666667 c 0,3.511846 2.85482,6.366666 6.366667,6.366666 3.511846,0 6.366666,-2.85482 6.366666,-6.366666 0,-3.511847 -2.85482,-6.366667 -6.366666,-6.366667 z"
           id="path3987"
           style="display:inline;opacity:0.15;fill:#000000;fill-opacity:1;stroke:none;stroke-width:1.06666672"
           inkscape:connector-curvature="0" />
        <path
           d="m 33.066667,24.533333 c -2.945518,0 -5.333334,2.387816 -5.333334,5.333334 0,2.945518 2.387816,5.333333 5.333334,5.333333 2.945518,0 5.333333,-2.387815 5.333333,-5.333333 0,-2.945518 -2.387815,-5.333334 -5.333333,-5.333334 z m 0,14.933334 c -2.945518,0 -5.333334,2.387815 -5.333334,5.333333 0,2.945518 2.387816,5.333333 5.333334,5.333333 2.945518,0 5.333333,-2.387815 5.333333,-5.333333 0,-2.945518 -2.387815,-5.333333 -5.333333,-5.333333 z m 28.466666,4.266666 -14.6,19.4 h 8.433334 V 80 H 67.2 V 63.133333 h 8.533333 z M 33.066667,54.4 c -2.945518,0 -5.333334,2.387815 -5.333334,5.333333 0,2.945518 2.387816,5.333334 5.333334,5.333334 2.945518,0 5.333333,-2.387816 5.333333,-5.333334 C 38.4,56.787815 36.012185,54.4 33.066667,54.4 Z m 0,14.933333 c -2.945518,0 -5.333334,2.387816 -5.333334,5.333334 C 27.733333,77.612185 30.121149,80 33.066667,80 36.012185,80 38.4,77.612185 38.4,74.666667 c 0,-2.945518 -2.387815,-5.333334 -5.333333,-5.333334 z"
           inkscape:connector-curvature="0"
           id="path3981"
           style="display:inline;opacity:0.3;fill:#000000;fill-opacity:1;stroke:none;stroke-width:1.06666672" />
        <path
           d="m 33.066667,23.466667 c -2.945518,0 -5.333334,2.387815 -5.333334,5.333333 0,2.945518 2.387816,5.333333 5.333334,5.333333 2.945518,0 5.333333,-2.387815 5.333333,-5.333333 0,-2.945518 -2.387815,-5.333333 -5.333333,-5.333333 z m 0,14.933333 c -2.945518,0 -5.333334,2.387815 -5.333334,5.333333 0,2.945518 2.387816,5.333334 5.333334,5.333334 2.945518,0 5.333333,-2.387816 5.333333,-5.333334 C 38.4,40.787815 36.012185,38.4 33.066667,38.4 Z m 28.466666,4.266667 -14.6,19.4 h 8.433334 V 78.933333 H 67.2 V 62.066667 h 8.533333 z M 33.066667,53.333333 c -2.945518,0 -5.333334,2.387816 -5.333334,5.333334 C 27.733333,61.612185 30.121149,64 33.066667,64 36.012185,64 38.4,61.612185 38.4,58.666667 c 0,-2.945518 -2.387815,-5.333334 -5.333333,-5.333334 z m 0,14.933334 c -2.945518,0 -5.333334,2.387815 -5.333334,5.333333 0,2.945518 2.387816,5.333333 5.333334,5.333333 2.945518,0 5.333333,-2.387815 5.333333,-5.333333 0,-2.945518 -2.387815,-5.333333 -5.333333,-5.333333 z"
           inkscape:connector-curvature="0"
           id="path3956"
           style="display:inline;fill:url(#linearGradient3960);fill-opacity:1;stroke:none;stroke-width:1.06666672" />
        <path
           d="m 33.066667,23.466667 c -2.945518,0 -5.333334,2.387815 -5.333334,5.333333 0,0.184095 0.01513,0.354043 0.03333,0.533333 0.27312,-2.689365 2.538577,-4.8 5.3,-4.8 2.761423,0 5.02688,2.110635 5.3,4.8 C 38.384875,29.154043 38.4,28.984095 38.4,28.8 c 0,-2.945518 -2.387815,-5.333333 -5.333333,-5.333333 z m 0,14.933333 c -2.945518,0 -5.333334,2.387815 -5.333334,5.333333 0,0.184095 0.01513,0.354043 0.03333,0.533334 0.27312,-2.689366 2.538577,-4.8 5.3,-4.8 2.761423,0 5.02688,2.110634 5.3,4.8 C 38.384875,44.087376 38.4,43.917428 38.4,43.733333 38.4,40.787815 36.012185,38.4 33.066667,38.4 Z m 28.466666,4.266667 -14.6,19.4 h 0.8 l 13.8,-18.333334 13.433334,18.333334 h 0.766666 z M 33.066667,53.333333 c -2.945518,0 -5.333334,2.387816 -5.333334,5.333334 0,0.184095 0.01513,0.354042 0.03333,0.533333 0.27312,-2.689365 2.538577,-4.8 5.3,-4.8 2.761423,0 5.02688,2.110635 5.3,4.8 0.01821,-0.179291 0.03333,-0.349238 0.03333,-0.533333 0,-2.945518 -2.387815,-5.333334 -5.333333,-5.333334 z m 0,14.933334 c -2.945518,0 -5.333334,2.387815 -5.333334,5.333333 0,0.184095 0.01513,0.354043 0.03333,0.533333 0.27312,-2.689365 2.538577,-4.8 5.3,-4.8 2.761423,0 5.02688,2.110635 5.3,4.8 C 38.384875,73.954043 38.4,73.784095 38.4,73.6 c 0,-2.945518 -2.387815,-5.333333 -5.333333,-5.333333 z"
           inkscape:connector-curvature="0"
           id="path3963"
           style="display:inline;opacity:0.75;fill:#ffffff;fill-opacity:1;stroke:none;stroke-width:1.06666672" />
        <path
           d="m 27.766667,28.266667 c -0.01821,0.17929 -0.03333,0.349238 -0.03333,0.533333 0,2.945518 2.387816,5.333333 5.333334,5.333333 2.945518,0 5.333333,-2.387815 5.333333,-5.333333 0,-0.184095 -0.01512,-0.354043 -0.03333,-0.533333 -0.27312,2.689365 -2.538577,4.8 -5.3,4.8 -2.761423,0 -5.02688,-2.110635 -5.3,-4.8 z m 0,14.933333 c -0.01821,0.179291 -0.03333,0.349238 -0.03333,0.533333 0,2.945518 2.387816,5.333334 5.333334,5.333334 2.945518,0 5.333333,-2.387816 5.333333,-5.333334 0,-0.184095 -0.01512,-0.354042 -0.03333,-0.533333 -0.27312,2.689365 -2.538577,4.8 -5.3,4.8 -2.761423,0 -5.02688,-2.110635 -5.3,-4.8 z m 0,14.933333 c -0.01821,0.179291 -0.03333,0.349239 -0.03333,0.533334 C 27.733333,61.612185 30.121149,64 33.066667,64 36.012185,64 38.4,61.612185 38.4,58.666667 c 0,-0.184095 -0.01512,-0.354043 -0.03333,-0.533334 -0.27312,2.689366 -2.538577,4.8 -5.3,4.8 -2.761423,0 -5.02688,-2.110634 -5.3,-4.8 z M 47.733333,61 l -0.8,1.066667 h 8.433334 V 61 Z M 67.2,61 v 1.066667 h 8.533333 L 74.966667,61 Z M 27.766667,73.066667 c -0.01821,0.17929 -0.03333,0.349238 -0.03333,0.533333 0,2.945518 2.387816,5.333333 5.333334,5.333333 2.945518,0 5.333333,-2.387815 5.333333,-5.333333 0,-0.184095 -0.01512,-0.354043 -0.03333,-0.533333 -0.27312,2.689365 -2.538577,4.8 -5.3,4.8 -2.761423,0 -5.02688,-2.110635 -5.3,-4.8 z m 27.6,4.8 v 1.066666 H 67.2 v -1.066666 z"
           inkscape:connector-curvature="0"
           id="path3972"
           style="display:inline;opacity:0.294;fill:#fdfdfd;fill-opacity:1;stroke:none;stroke-width:1.06666672" />
      </g>
      <rect
         clip-path="url(#clipPath4156-4-1)"
         ry="3.9569881"
         rx="3.9569874"
         y="-30"
         x="2"
         height="69.024437"
         width="75.965775"
         id="rect4146"
         style="opacity:0.5078125;fill:url(#linearGradient4767);fill-opacity:1;stroke:none"
         transform="matrix(1.0692451,0,0,1.0476829,4.4441802,38.894013)" />
    </g>
  </g>
</svg>
