<?xml version="1.0" encoding="UTF-8" standalone="no"?>
<!-- Created with Inkscape (http://www.inkscape.org/) -->

<svg
   xmlns:dc="http://purl.org/dc/elements/1.1/"
   xmlns:cc="http://creativecommons.org/ns#"
   xmlns:rdf="http://www.w3.org/1999/02/22-rdf-syntax-ns#"
   xmlns:svg="http://www.w3.org/2000/svg"
   xmlns="http://www.w3.org/2000/svg"
   xmlns:xlink="http://www.w3.org/1999/xlink"
   xmlns:sodipodi="http://sodipodi.sourceforge.net/DTD/sodipodi-0.dtd"
   xmlns:inkscape="http://www.inkscape.org/namespaces/inkscape"
   width="96"
   height="96"
   id="svg2"
   sodipodi:version="0.32"
   inkscape:version="0.92.2 5c3e80d, 2017-08-06"
   version="1.0"
   sodipodi:docname="im-qq.svg"
   inkscape:export-filename="/home/hbons/Desktop/Gaim Refresh/protocols/48/qq.png"
   inkscape:export-xdpi="90"
   inkscape:export-ydpi="90">
  <defs
     id="defs4">
    <linearGradient
       inkscape:collect="always"
       id="linearGradient2234">
      <stop
         style="stop-color:#ffffff;stop-opacity:1;"
         offset="0"
         id="stop2236" />
      <stop
         style="stop-color:#ffffff;stop-opacity:0;"
         offset="1"
         id="stop2238" />
    </linearGradient>
    <linearGradient
       id="linearGradient5602-7-3-9-8">
      <stop
         offset="0"
         style="stop-color:#579457;stop-opacity:1;"
         id="stop5604-6-70-0-5" />
      <stop
         offset="1"
         style="stop-color:#558455;stop-opacity:1;"
         id="stop5606-0-9-2-0" />
    </linearGradient>
    <linearGradient
       id="linearGradient13990">
      <stop
         style="stop-color:#003366;stop-opacity:1;"
         offset="0"
         id="stop13992" />
      <stop
         style="stop-color:#003366;stop-opacity:0;"
         offset="1"
         id="stop13994" />
    </linearGradient>
    <linearGradient
       id="linearGradient6139-0">
      <stop
         id="stop6141-2"
         offset="0"
         style="stop-color:#b7b7b7;stop-opacity:1;" />
      <stop
         style="stop-color:#ffffff;stop-opacity:1;"
         offset="0.25"
         id="stop6151-0" />
      <stop
         style="stop-color:#9d9d9d;stop-opacity:1;"
         offset="0.5"
         id="stop6147-1" />
      <stop
         id="stop6149-4"
         offset="0.75"
         style="stop-color:#fafafa;stop-opacity:1;" />
      <stop
         id="stop6143-4"
         offset="1"
         style="stop-color:#b7b7b7;stop-opacity:1;" />
    </linearGradient>
    <linearGradient
       id="linearGradient4091-0-3-0-7">
      <stop
         style="stop-color:#ffffff;stop-opacity:1;"
         offset="0"
         id="stop4093-3-6-4-2" />
      <stop
         id="stop4099-6-1-8-3"
         offset="0.80000001"
         style="stop-color:#ffffff;stop-opacity:1;" />
      <stop
         style="stop-color:#ffffff;stop-opacity:0;"
         offset="1"
         id="stop4095-1-0-7-9" />
    </linearGradient>
    <linearGradient
       id="linearGradient3832-0-6-1-1">
      <stop
         style="stop-color:#000000;stop-opacity:1;"
         offset="0"
         id="stop3834-6-3-7-1" />
      <stop
         id="stop3872-2-4"
         offset="0.1"
         style="stop-color:#000000;stop-opacity:0.58823532;" />
      <stop
         style="stop-color:#000000;stop-opacity:0.58823532;"
         offset="0.89999998"
         id="stop3844-6-2-7-6" />
      <stop
         style="stop-color:#000000;stop-opacity:1;"
         offset="1"
         id="stop3836-5-0-2-9" />
    </linearGradient>
    <filter
       id="filter3174-4"
       color-interpolation-filters="sRGB">
      <feGaussianBlur
         stdDeviation="1.71"
         id="feGaussianBlur3176-3" />
    </filter>
    <linearGradient
       gradientUnits="userSpaceOnUse"
       xlink:href="#linearGradient3873-7"
       id="linearGradient3879-8-8"
       y2="48"
       x2="80"
       y1="48"
       x1="16" />
    <linearGradient
       id="linearGradient3873-7">
      <stop
         offset="0"
         style="stop-color:#f0f0f0;stop-opacity:1"
         id="stop3875-0" />
      <stop
         offset="1"
         style="stop-color:#b4b4b4;stop-opacity:1"
         id="stop3877-20-4" />
    </linearGradient>
    <radialGradient
       gradientUnits="userSpaceOnUse"
       xlink:href="#linearGradient3674-5-0"
       id="radialGradient3682-9"
       fy="48"
       fx="48"
       r="32"
       cy="48"
       cx="48" />
    <linearGradient
       id="linearGradient3674-5-0">
      <stop
         offset="0"
         style="stop-color:#ffffff;stop-opacity:1"
         id="stop3676-0-2" />
      <stop
         offset="0.30000001"
         style="stop-color:#ffffff;stop-opacity:1"
         id="stop3684-9" />
      <stop
         offset="0.89999998"
         style="stop-color:#f0f0f0;stop-opacity:1"
         id="stop3925-8-3" />
      <stop
         offset="1"
         style="stop-color:#d2d2d2;stop-opacity:1"
         id="stop3678-8-8" />
    </linearGradient>
    <filter
       id="filter3944-7"
       color-interpolation-filters="sRGB">
      <feGaussianBlur
         stdDeviation="0.4359375"
         id="feGaussianBlur3946-6" />
    </filter>
    <radialGradient
       gradientUnits="userSpaceOnUse"
       xlink:href="#linearGradient3893-7"
       id="radialGradient3901-4"
       fy="46.058418"
       fx="48.000896"
       r="3"
       cy="46.058418"
       cx="48.000896" />
    <linearGradient
       id="linearGradient3893-7">
      <stop
         offset="0"
         style="stop-color:#ffffff;stop-opacity:1"
         id="stop3895-3" />
      <stop
         offset="1"
         style="stop-color:#a2a2a2;stop-opacity:1"
         id="stop3897-5" />
    </linearGradient>
    <linearGradient
       gradientTransform="matrix(0,1,-1,0,96,0)"
       gradientUnits="userSpaceOnUse"
       xlink:href="#linearGradient3899-9"
       id="linearGradient3905-4"
       y2="48"
       x2="83"
       y1="48"
       x1="13" />
    <linearGradient
       id="linearGradient3899-9">
      <stop
         offset="0"
         style="stop-color:#ffffff;stop-opacity:1"
         id="stop3901-8" />
      <stop
         offset="0.5"
         style="stop-color:#ffffff;stop-opacity:0.41221374"
         id="stop3981-6" />
      <stop
         offset="1"
         style="stop-color:#868686;stop-opacity:1"
         id="stop3903-5" />
    </linearGradient>
    <linearGradient
       gradientTransform="matrix(0,1,-1,0,96,0)"
       gradientUnits="userSpaceOnUse"
       xlink:href="#linearGradient3917-6-8"
       id="linearGradient3923-1-6"
       y2="48"
       x2="120"
       y1="48"
       x1="17" />
    <linearGradient
       id="linearGradient3917-6-8">
      <stop
         offset="0"
         style="stop-color:#000000;stop-opacity:1"
         id="stop3919-2" />
      <stop
         offset="1"
         style="stop-color:#000000;stop-opacity:0"
         id="stop3921-7" />
    </linearGradient>
    <linearGradient
       gradientUnits="userSpaceOnUse"
       xlink:href="#linearGradient3983-2"
       id="linearGradient3973-9"
       y2="60"
       x2="53"
       y1="60"
       x1="43" />
    <linearGradient
       id="linearGradient3983-2">
      <stop
         offset="0"
         style="stop-color:#ffffff;stop-opacity:1"
         id="stop3985-6" />
      <stop
         offset="1"
         style="stop-color:#868686;stop-opacity:1"
         id="stop3989-2" />
    </linearGradient>
    <radialGradient
       gradientUnits="userSpaceOnUse"
       xlink:href="#linearGradient3674-5-0"
       id="radialGradient3979-6"
       fy="60"
       fx="48"
       r="5"
       cy="60"
       cx="48" />
    <clipPath
       id="clipPath2973-9">
      <rect
         style="fill:url(#linearGradient2977);fill-opacity:1;fill-rule:nonzero;stroke:none"
         id="rect2975-6"
         y="6"
         x="6"
         ry="6"
         rx="6"
         height="84"
         width="84" />
    </clipPath>
    <linearGradient
       gradientTransform="scale(1.0058652,0.994169)"
       gradientUnits="userSpaceOnUse"
       id="ButtonShadow-5"
       y2="7.0165396"
       x2="45.447727"
       y1="92.539597"
       x1="45.447727">
      <stop
         offset="0"
         style="stop-color:#000000;stop-opacity:1"
         id="stop3750-9" />
      <stop
         offset="1"
         style="stop-color:#000000;stop-opacity:0.58823532"
         id="stop3752-0" />
    </linearGradient>
    <filter
       id="filter3174-5"
       color-interpolation-filters="sRGB">
      <feGaussianBlur
         stdDeviation="1.71"
         id="feGaussianBlur3176-1" />
    </filter>
    <linearGradient
       gradientTransform="matrix(0.31400775,0,0,0.31400775,8.6076835,9.3242921)"
       gradientUnits="userSpaceOnUse"
       xlink:href="#linearGradient3421"
       id="linearGradient3855"
       y2="78.463249"
       x2="117.66125"
       y1="151.16792"
       x1="136.3282" />
    <linearGradient
       id="linearGradient3421">
      <stop
         offset="0"
         style="stop-color:#fe7600;stop-opacity:1"
         id="stop3423" />
      <stop
         offset="1"
         style="stop-color:#f2b26d;stop-opacity:1"
         id="stop3425" />
    </linearGradient>
    <linearGradient
       gradientUnits="userSpaceOnUse"
       xlink:href="#linearGradient3865"
       id="linearGradient3871"
       y2="30.801933"
       x2="86.437103"
       y1="30.801933"
       x1="48.742641" />
    <linearGradient
       id="linearGradient3865">
      <stop
         offset="0"
         style="stop-color:#bddb4e;stop-opacity:1"
         id="stop3867" />
      <stop
         offset="1"
         style="stop-color:#52b124;stop-opacity:1"
         id="stop3869" />
    </linearGradient>
    <linearGradient
       gradientTransform="matrix(0.31400775,0,0,0.31400775,-69.663245,-106.20134)"
       gradientUnits="userSpaceOnUse"
       xlink:href="#linearGradient2234"
       id="linearGradient3851"
       y2="471.18063"
       x2="315.21729"
       y1="468.58658"
       x1="312.62323" />
    <linearGradient
       gradientTransform="matrix(0.31400775,0,0,0.31400775,-68.839441,-118.95132)"
       gradientUnits="userSpaceOnUse"
       xlink:href="#linearGradient2234"
       id="linearGradient3847"
       y2="471.18063"
       x2="315.21729"
       y1="468.58658"
       x1="312.62323" />
    <linearGradient
       gradientUnits="userSpaceOnUse"
       xlink:href="#linearGradient3865"
       id="linearGradient3879"
       y2="-98.684196"
       x2="18.554882"
       y1="-98.684196"
       x1="-19.139587" />
    <linearGradient
       inkscape:collect="always"
       xlink:href="#linearGradient6139-0-3"
       id="linearGradient4071"
       gradientUnits="userSpaceOnUse"
       gradientTransform="matrix(1.1353753,0,0,1.1336634,-40.037126,-46.787598)"
       x1="6"
       y1="47.000011"
       x2="90"
       y2="47.000011" />
    <linearGradient
       id="linearGradient6139-0-3">
      <stop
         id="stop6141-2-6"
         offset="0"
         style="stop-color:#b2babc;stop-opacity:1" />
      <stop
         style="stop-color:#ffffff;stop-opacity:1;"
         offset="0.25"
         id="stop6151-0-7" />
      <stop
         style="stop-color:#96a1a4;stop-opacity:1"
         offset="0.5"
         id="stop6147-1-5" />
      <stop
         id="stop6149-4-3"
         offset="0.75"
         style="stop-color:#fbf9f9;stop-opacity:1;" />
      <stop
         id="stop6143-4-5"
         offset="1"
         style="stop-color:#b2b9bc;stop-opacity:1" />
    </linearGradient>
    <linearGradient
       gradientTransform="matrix(1.0255003,0,0,1.0239543,-34.763125,-42.655212)"
       inkscape:collect="always"
       xlink:href="#linearGradient3832-0-6-1-1"
       id="linearGradient4129"
       x1="1.5"
       y1="88.171875"
       x2="94.5"
       y2="88.171875"
       gradientUnits="userSpaceOnUse" />
    <radialGradient
       inkscape:collect="always"
       xlink:href="#linearGradient2234"
       id="radialGradient7462"
       gradientUnits="userSpaceOnUse"
       gradientTransform="matrix(0.99999998,0,0,0.05036905,-2.7362053e-6,39.431821)"
       cx="13.948145"
       cy="44.892841"
       fx="13.948145"
       fy="44.892841"
       r="43.199203" />
    <radialGradient
       inkscape:collect="always"
       xlink:href="#linearGradient2234"
       id="radialGradient7464"
       gradientUnits="userSpaceOnUse"
       gradientTransform="matrix(0.90960587,0,0,0.0504451,-10.355094,-57.7045)"
       cx="13.948145"
       cy="44.892841"
       fx="13.948145"
       fy="44.892841"
       r="43.199203" />
    <linearGradient
       inkscape:collect="always"
       xlink:href="#linearGradient2234"
       id="linearGradient4767"
       gradientUnits="userSpaceOnUse"
       x1="2.7713892"
       y1="-28.64156"
       x2="50.527882"
       y2="14.514202" />
    <clipPath
       id="clipPath4156-4-1"
       clipPathUnits="userSpaceOnUse">
      <path
         inkscape:connector-curvature="0"
         id="path4158-0-8"
         d="m 27.046336,-55.695463 -14.21366,13.321486 h 0.06127 l 15.653407,21.770763 10.231384,-10.546177 C 38.561832,-32.30156 27.468089,-54.819245 27.046336,-55.695463 Z M 9.6468554,-39.382809 -5.2407289,-25.32124 15.987863,-7.8059573 26.372412,-18.382966 Z m 31.4906096,12.951445 -9.741259,9.713584 8.944804,12.4580526 7.780753,-7.5550056 z m -49.8397109,4.378822 -13.7541661,12.9822847 26.2830181,13.84571 0.06127,-0.0617 -0.122531,-0.0617 L 13.598503,-5.4007374 -8.7022409,-22.052595 Z m 38.0154159,7.400825 -9.802525,9.7752596 11.579232,9.5594001 7.62759,-7.40083 -8.669108,-11.0087257 z m 20.187073,5.6739697 -7.382526,7.2158 6.187844,8.54179 5.820249,-6.13651996 z m -32.195166,6.32154 -9.5574606,9.49772 13.6622686,7.1849703 7.933918,-7.6783603 z m 23.311629,2.37443004 -7.10683,6.93826996 8.362778,6.9074403 5.360756,-5.6739699 -0.06127,-0.0925 -0.0919,0.12335 -6.463539,-8.20258036 z m -8.730374,8.54178036 -7.505057,7.3391599 10.353916,5.45811 c 1.397496,-1.32103 5.67514,-6.12292 5.850882,-6.32154 z"
         style="opacity:0.6;fill:#ffffff;fill-opacity:1;stroke:none" />
    </clipPath>
    <clipPath
       clipPathUnits="userSpaceOnUse"
       id="clipPath4355-7">
      <rect
         style="fill:#ffffff;fill-opacity:1;fill-rule:nonzero;stroke:none"
         id="rect4357-5"
         width="84"
         height="80"
         x="6"
         y="6"
         rx="6"
         ry="6" />
    </clipPath>
    <clipPath
       clipPathUnits="userSpaceOnUse"
       id="clipPath4355-9">
      <rect
         style="fill:#ffffff;fill-opacity:1;fill-rule:nonzero;stroke:none"
         id="rect4357-1"
         width="84"
         height="80"
         x="6"
         y="6"
         rx="6"
         ry="6" />
    </clipPath>
    <clipPath
       clipPathUnits="userSpaceOnUse"
       id="clipPath4355-1">
      <rect
         style="fill:#ffffff;fill-opacity:1;fill-rule:nonzero;stroke:none"
         id="rect4357-9"
         width="84"
         height="80"
         x="6"
         y="6"
         rx="6"
         ry="6" />
    </clipPath>
    <clipPath
       clipPathUnits="userSpaceOnUse"
       id="clipPath3943-52-0">
      <path
         id="path3945-4-1"
         d="m 69.78125,20.84375 -5,3.4375 c 5.586891,5.537137 9,13.327613 9,21.8125 0,8.434478 -3.37723,16.095981 -8.90625,21.625 l 5,3.4375 C 76.078226,64.5762 80,55.843726 80,46.09375 c 2e-6,-9.796556 -3.962955,-18.660417 -10.21875,-25.25 z M 40,24.0625 28.90625,36.21875 H 21.5 c -0.823281,0 -1.5,0.676717 -1.5,1.5 v 1 14.84375 1 c 0,0.823281 0.684121,1.610161 1.5,1.5 h 7.40625 L 40,68 V 66 26.0625 Z m 20.59375,3.28125 -5,3.4375 L 55.5,30.875 c 3.93815,3.890071 6.40625,9.25018 6.40625,15.21875 0,5.920869 -2.42961,11.148358 -6.3125,15.03125 l 0.09375,0.09375 5.09375,3.4375 c 4.475428,-4.908367 7.25,-11.402005 7.25,-18.5625 0,-7.230696 -2.87904,-13.83107 -7.4375,-18.75 z m -9.25,6.5 -5.21875,3.625 c 2.222384,2.217802 3.71875,5.239596 3.71875,8.625 0,3.336509 -1.458847,6.227712 -3.625,8.4375 l 5.21875,3.625 c 2.822412,-3.236947 4.53125,-7.43414 4.53125,-12.0625 0,-4.672601 -1.754155,-9.001351 -4.625,-12.25 z"
         style="color:#000000;display:inline;overflow:visible;visibility:visible;opacity:0.8;fill:#ff00ff;fill-opacity:1;fill-rule:nonzero;stroke:none;stroke-width:1;marker:none;enable-background:accumulate"
         inkscape:connector-curvature="0" />
    </clipPath>
    <radialGradient
       inkscape:collect="always"
       xlink:href="#linearGradient3150"
       id="radialGradient3156"
       cx="10.748654"
       cy="10.457643"
       fx="10.748654"
       fy="10.457643"
       r="6.6449099"
       gradientTransform="matrix(-0.842757,0,0,-0.35721,19.80716,14.19321)"
       gradientUnits="userSpaceOnUse" />
    <linearGradient
       inkscape:collect="always"
       id="linearGradient3150">
      <stop
         style="stop-color:#2e3436;stop-opacity:1;"
         offset="0"
         id="stop3152" />
      <stop
         style="stop-color:#2e3436;stop-opacity:0;"
         offset="1"
         id="stop3154" />
    </linearGradient>
    <linearGradient
       inkscape:collect="always"
       xlink:href="#linearGradient2234"
       id="linearGradient2240"
       x1="23.995228"
       y1="3.6292775"
       x2="23.995228"
       y2="15.460559"
       gradientUnits="userSpaceOnUse" />
    <linearGradient
       inkscape:collect="always"
       xlink:href="#linearGradient2234"
       id="linearGradient2232"
       x1="13.296353"
       y1="9.8980713"
       x2="13.296353"
       y2="11.762599"
       gradientUnits="userSpaceOnUse" />
  </defs>
  <sodipodi:namedview
     id="base"
     pagecolor="#ffffff"
     bordercolor="#666666"
     borderopacity="1.0"
     inkscape:pageopacity="0.0"
     inkscape:pageshadow="2"
     inkscape:zoom="2.758453"
     inkscape:cx="48"
     inkscape:cy="48"
     inkscape:document-units="px"
     inkscape:current-layer="g12958"
     showgrid="true"
     showguides="true"
     inkscape:guide-bbox="true"
     fill="#f57900"
     inkscape:window-width="1280"
     inkscape:window-height="974"
     inkscape:window-x="0"
     inkscape:window-y="21"
     inkscape:window-maximized="1" />
  <metadata
     id="metadata7">
    <rdf:RDF>
      <cc:Work
         rdf:about="">
        <dc:format>image/svg+xml</dc:format>
        <dc:type
           rdf:resource="http://purl.org/dc/dcmitype/StillImage" />
        <dc:title />
      </cc:Work>
    </rdf:RDF>
  </metadata>
  <g
     inkscape:label="Layer 1"
     inkscape:groupmode="layer"
     id="layer1"
     transform="translate(0,48)">
    <g
       id="g4348"
       transform="translate(0,-48)">
      <g
         transform="translate(-0.62500009,0.082283)"
         inkscape:export-ydpi="90"
         inkscape:export-xdpi="90"
         inkscape:export-filename="folder.png"
         id="g3043" />
      <g
         style="fill:#ffffff"
         inkscape:label="#g3701"
         transform="matrix(1.0385892,0,0,1.0385892,1214.7222,1878.8121)"
         id="scalable" />
      <g
         id="layer1-6"
         inkscape:label="Layer 1"
         transform="translate(-4.4706248e-7,32)">
        <g
           transform="matrix(0.97513378,0,0,0.97660611,33.898696,9.6573789)"
           id="g12958">
          <path
             style="display:inline;opacity:0.15;fill:#000000;fill-opacity:1;fill-rule:nonzero;stroke:none;stroke-width:1.02472699"
             d="m 56.652901,-42.655212 h -84.384029 c -3.89572,0 -7.031995,3.131544 -7.031995,7.021398 V 48.623 c 0,3.889856 3.136275,7.0214 7.031995,7.0214 h 84.384029 c 3.895729,0 7.032006,-3.131544 7.032006,-7.0214 v -84.256814 c 0,-3.889854 -3.136277,-7.021398 -7.032006,-7.021398 z"
             id="path3288"
             inkscape:connector-curvature="0" />
          <path
             inkscape:connector-curvature="0"
             id="path4085"
             d="m 55.993652,-41.887247 h -83.065531 c -3.834851,0 -6.92212,3.082614 -6.92212,6.911689 v 82.940301 c 0,3.829078 3.087269,6.911692 6.92212,6.911692 h 83.065531 c 3.834861,0 6.92213,-3.082614 6.92213,-6.911692 v -82.940301 c 0,-3.829075 -3.087269,-6.911689 -6.92213,-6.911689 z"
             style="display:inline;opacity:0.15;fill:#000000;fill-opacity:1;fill-rule:nonzero;stroke:none;stroke-width:1.02472699" />
          <path
             style="display:inline;fill:url(#linearGradient4071);fill-opacity:1;fill-rule:nonzero;stroke:none;stroke-width:1.02472699"
             d="m 55.334398,-41.119281 h -81.74702 c -3.773988,0 -6.812252,3.033683 -6.812252,6.80198 v 81.62379 c 0,3.768297 3.038264,6.801981 6.812252,6.801981 h 81.74702 c 3.773988,0 6.812249,-3.033684 6.812249,-6.801981 v -81.62379 c 0,-3.768297 -3.038261,-6.80198 -6.812249,-6.80198 z"
             id="rect4251-1-0"
             inkscape:connector-curvature="0" />
          <path
             style="display:inline;opacity:0.9;fill:#e8e8e8;fill-opacity:1;fill-rule:nonzero;stroke:none;stroke-width:1.05495906"
             d="m -23.235175,-36.115071 c -2.929338,0 -5.254795,2.343195 -5.254795,5.294871 v 21.9406169 7.4128178 40.8697783 c 1.125219,1.724834 3.044555,2.879085 5.254795,2.879085 h 4.203836 67.261384 4.203836 c 2.210241,0 4.129576,-1.154251 5.254796,-2.879085 V -1.4667653 -8.8795831 -30.8202 c 0,-2.951676 -2.325458,-5.294871 -5.254796,-5.294871 z"
             id="path3400-6-9"
             inkscape:connector-curvature="0"
             sodipodi:nodetypes="sscccsccscccsss" />
          <path
             inkscape:connector-curvature="0"
             id="path4989-3"
             d="m -24.687502,-37.812461 c -3.196096,0 -5.8125,2.600343 -5.8125,5.781251 v 70.937502 c 0,3.180908 2.616404,5.78125 5.8125,5.78125 h 78.749998 c 3.196096,0 5.812503,-2.600342 5.812503,-5.78125 V -32.03121 c 0,-3.180907 -2.616407,-5.781251 -5.812503,-5.781251 z m 0,2.375 h 78.749998 c 1.936247,0 3.4375,1.51555 3.4375,3.406251 v 70.937502 c 0,1.890705 -1.501253,3.406249 -3.4375,3.406249 h -78.749998 c -1.936246,0 -3.4375,-1.515544 -3.4375,-3.406249 V -32.03121 c 0,-1.890701 1.501254,-3.406251 3.4375,-3.406251 z"
             style="color:#000000;font-style:normal;font-variant:normal;font-weight:normal;font-stretch:normal;font-size:medium;line-height:normal;font-family:Sans;-inkscape-font-specification:Sans;text-indent:0;text-align:start;text-decoration:none;text-decoration-line:none;letter-spacing:normal;word-spacing:normal;text-transform:none;writing-mode:lr-tb;direction:ltr;baseline-shift:baseline;text-anchor:start;display:inline;overflow:visible;visibility:visible;fill:#1f2224;fill-opacity:0.63265303;stroke:none;stroke-width:2.43423915;marker:none;enable-background:accumulate" />
          <g
             id="g4371"
             transform="matrix(1.6914389,0,0,1.706588,-26.147767,-35.918588)">
            <ellipse
               ry="2.3675451"
               rx="6.6449099"
               cy="10.457643"
               cx="10.748654"
               inkscape:export-ydpi="90"
               inkscape:export-xdpi="90"
               transform="matrix(2.884895,0,0,2.493965,-7.834213,14.7186)"
               id="path3140"
               style="opacity:0.6;fill:url(#radialGradient3156);fill-opacity:1;stroke:none;stroke-width:1;stroke-miterlimit:4;stroke-dasharray:none;stroke-opacity:1" />
            <path
               inkscape:connector-curvature="0"
               id="path2344"
               d="m 42.428297,39.500007 c 0,2.165617 -3.327878,3.923221 -7.428299,3.923221 -4.100421,0 -7.428299,-1.757604 -7.428299,-3.923221 0,-2.16562 3.327878,-3.923224 7.428299,-3.923224 4.100421,0 7.428299,1.757604 7.428299,3.923224 z"
               style="fill:#f57900;fill-opacity:1;stroke:#ce5c00;stroke-width:1.12731504;stroke-miterlimit:4;stroke-opacity:1" />
            <path
               d="m 35,36.773438 c -1.879042,0 -3.569313,0.418901 -4.691406,1.011718 -1.122094,0.592817 -1.539063,1.245361 -1.539063,1.714844 0,0.46948 0.416969,1.122026 1.539063,1.714844 1.122093,0.592817 2.812364,1.011719 4.691406,1.011718 1.879042,0 3.569313,-0.418901 4.691406,-1.011718 C 40.8135,40.622026 41.230469,39.96948 41.230469,39.5 c 0,-0.469483 -0.416969,-1.122027 -1.539063,-1.714844 C 38.569313,37.192339 36.879042,36.773438 35,36.773438 Z"
               inkscape:href="#path2344"
               id="path2213"
               style="opacity:0.2;fill:#f57900;fill-opacity:1;stroke:#ffffff;stroke-width:1.12731504;stroke-miterlimit:4;stroke-opacity:1"
               xlink:href="#path2344"
               inkscape:original="M 35 35.576172 C 30.899579 35.576172 27.572266 37.33438 27.572266 39.5 C 27.572266 41.665617 30.899579 43.423828 35 43.423828 C 39.100421 43.423828 42.427734 41.665617 42.427734 39.5 C 42.427734 37.33438 39.100421 35.576172 35 35.576172 z "
               inkscape:radius="-1.1975733"
               sodipodi:type="inkscape:offset" />
            <path
               inkscape:connector-curvature="0"
               id="path2340"
               d="m 20.428294,39.500007 c 0,2.165617 -3.327877,3.923221 -7.428296,3.923221 -4.1004185,0 -7.4282947,-1.757604 -7.4282947,-3.923221 0,-2.16562 3.3278762,-3.923224 7.4282947,-3.923224 4.100419,0 7.428296,1.757604 7.428296,3.923224 z"
               style="fill:#f57900;fill-opacity:1;stroke:#ce5c00;stroke-width:1.12731493;stroke-miterlimit:4;stroke-opacity:1" />
            <path
               d="m 13,36.712891 c -1.887767,0 -3.5872778,0.418774 -4.7207031,1.017578 C 7.1458715,38.329272 6.7089844,38.999252 6.7089844,39.5 c 0,0.500745 0.436887,1.170727 1.5703125,1.769531 1.1334255,0.598804 2.8329371,1.017578 4.7207031,1.017578 1.887767,0 3.587278,-0.418774 4.720703,-1.017578 1.133425,-0.598804 1.570313,-1.268785 1.570313,-1.769531 0,-0.500748 -0.436888,-1.170728 -1.570313,-1.769531 C 16.587278,37.131665 14.887767,36.712891 13,36.712891 Z"
               inkscape:href="#path2340"
               id="path2216"
               style="opacity:0.2;fill:#f57900;fill-opacity:1;stroke:#ffffff;stroke-width:1.12731493;stroke-miterlimit:4;stroke-opacity:1"
               xlink:href="#path2340"
               inkscape:original="M 13 35.576172 C 8.8995815 35.576172 5.5722656 37.33438 5.5722656 39.5 C 5.5722656 41.665617 8.8995815 43.423828 13 43.423828 C 17.100419 43.423828 20.427734 41.665617 20.427734 39.5 C 20.427734 37.33438 17.100419 35.576172 13 35.576172 z "
               inkscape:radius="-1.1365247"
               sodipodi:type="inkscape:offset" />
            <path
               inkscape:connector-curvature="0"
               id="path2346"
               d="m 16.512817,28.000001 c 0,3.046361 -2.693743,5.518771 -6.01282,5.518771 -3.3190756,0 -6.0128186,-2.47241 -6.0128186,-5.518771 0,-3.046363 2.693743,-5.518772 6.0128186,-5.518772 3.319077,0 6.01282,2.472409 6.01282,5.518772 z"
               style="fill:#555753;fill-opacity:1;stroke:#2e3436;stroke-width:0.9999994;stroke-miterlimit:4;stroke-opacity:1" />
            <path
               d="m 10.5,23.474609 c -2.8249582,0 -5.0195313,2.065579 -5.0195312,4.525391 0,2.45981 2.1945734,4.525391 5.0195312,4.525391 2.824959,0 5.019531,-2.065581 5.019531,-4.525391 0,-2.459812 -2.194571,-4.525391 -5.019531,-4.525391 z"
               inkscape:href="#path2346"
               id="path2207"
               style="opacity:0.2;fill:none;fill-opacity:1;stroke:#ffffff;stroke-width:0.9999994;stroke-miterlimit:4;stroke-opacity:1"
               xlink:href="#path2346"
               inkscape:original="M 10.5 22.480469 C 7.1809244 22.480469 4.4863281 24.953637 4.4863281 28 C 4.4863281 31.046361 7.1809244 33.519531 10.5 33.519531 C 13.819077 33.519531 16.513672 31.046361 16.513672 28 C 16.513672 24.953637 13.819077 22.480469 10.5 22.480469 z "
               inkscape:radius="-0.99468362"
               sodipodi:type="inkscape:offset" />
            <path
               inkscape:connector-curvature="0"
               id="path2348"
               d="m 43.529524,27.990624 c 0,3.041612 -2.603758,5.510167 -5.811959,5.510167 -3.208201,0 -5.811958,-2.468555 -5.811958,-5.510167 0,-3.041614 2.603757,-5.510169 5.811958,-5.510169 3.208201,0 5.811959,2.468555 5.811959,5.510169 z"
               style="fill:#555753;fill-opacity:1;stroke:#2e3436;stroke-width:0.99999982;stroke-miterlimit:4;stroke-opacity:1" />
            <path
               d="m 37.716797,23.5 c -2.68535,0 -4.791016,2.030092 -4.791016,4.490234 0,2.46014 2.105666,4.490235 4.791016,4.490235 2.68535,0 4.792969,-2.030531 4.792969,-4.490235 0,-2.459706 -2.107619,-4.490234 -4.792969,-4.490234 z"
               inkscape:href="#path2348"
               id="path2210"
               style="opacity:0.2;fill:#555753;fill-opacity:1;stroke:#ffffff;stroke-width:0.99999982;stroke-miterlimit:4;stroke-opacity:1"
               xlink:href="#path2348"
               inkscape:original="M 37.716797 22.480469 C 34.508596 22.480469 31.90625 24.94862 31.90625 27.990234 C 31.90625 31.031846 34.508596 33.5 37.716797 33.5 C 40.924998 33.5 43.529297 31.031846 43.529297 27.990234 C 43.529297 24.94862 40.924998 22.480469 37.716797 22.480469 z "
               inkscape:radius="-1.0194331"
               sodipodi:type="inkscape:offset" />
            <path
               inkscape:connector-curvature="0"
               id="path2322"
               d="m 39.499823,30.499795 c 0,6.623653 -6.943942,11.999371 -15.499869,11.999371 -8.555926,0 -15.499866,-5.375718 -15.499866,-11.999371 0,-6.623654 6.94394,-11.999372 15.499866,-11.999372 8.555927,0 15.499869,5.375718 15.499869,11.999372 z"
               style="fill:#555753;fill-opacity:1;stroke:#2e3436;stroke-width:0.99999851;stroke-miterlimit:4;stroke-opacity:1" />
            <path
               d="m 24,19.501953 c -4.068007,0 -7.735198,1.285571 -10.345703,3.306641 -2.610505,2.021069 -4.1523439,4.729867 -4.1523439,7.691406 0,2.961538 1.5418389,5.670336 4.1523439,7.691406 2.610505,2.02107 6.277696,3.306641 10.345703,3.306641 4.068007,0 7.735198,-1.285571 10.345703,-3.306641 2.610505,-2.02107 4.152344,-4.729868 4.152344,-7.691406 0,-2.961539 -1.541839,-5.670337 -4.152344,-7.691406 C 31.735198,20.787524 28.068007,19.501953 24,19.501953 Z"
               inkscape:href="#path2322"
               id="path2204"
               style="opacity:0.2;fill:#555753;fill-opacity:1;stroke:#ffffff;stroke-width:0.99999851;stroke-miterlimit:4;stroke-opacity:1"
               xlink:href="#path2322"
               inkscape:original="M 24 18.5 C 15.444074 18.5 8.5 23.876346 8.5 30.5 C 8.5 37.123653 15.444074 42.5 24 42.5 C 32.555927 42.5 39.5 37.123653 39.5 30.5 C 39.5 23.876346 32.555927 18.5 24 18.5 z "
               inkscape:radius="-1.0023749"
               sodipodi:type="inkscape:offset" />
            <path
               inkscape:connector-curvature="0"
               id="path2324"
               d="m 35.499727,31.513502 c 0,4.960146 -5.151881,8.985773 -11.499733,8.985773 -6.347853,0 -11.499733,-4.025627 -11.499733,-8.985773 0,-4.960149 5.15188,-8.985774 11.499733,-8.985774 6.347852,0 11.499733,4.025625 11.499733,8.985774 z"
               style="fill:#eeeeec;fill-opacity:1;stroke:#babdb6;stroke-width:0.99999964;stroke-miterlimit:4;stroke-opacity:1" />
            <path
               inkscape:connector-curvature="0"
               sodipodi:nodetypes="csccscc"
               id="path2338"
               d="m 39.500074,23.567769 c 0,2.663951 -6.525901,5.428834 -15.044031,5.428834 -2.129534,0 -7.719829,-1.089561 -13.408144,3.505596 -1.4484141,-1.299562 -2.8196652,-1.82001 -3.5479047,-2.95173 3.0839067,-3.042088 1.8151776,-4.736844 1.8151776,-6.06882 0,-2.663955 6.2358861,-4.046183 14.7540171,-4.046183 8.518127,0 15.430885,1.468348 15.430885,4.132303 z"
               style="fill:#ef2929;fill-opacity:1;stroke:#a40000;stroke-width:0.99999976;stroke-miterlimit:4;stroke-opacity:1" />
            <path
               d="m 24.068359,20.455078 c -4.203872,0 -7.835772,0.350475 -10.316406,0.992188 -1.240317,0.320856 -2.188405,0.722812 -2.744141,1.113281 -0.555735,0.390469 -0.673828,0.65378 -0.673828,0.921875 0,0.341981 0.334264,1.236817 0.248047,2.464844 -0.07024,1.000475 -0.6570088,2.190863 -1.7089841,3.470703 0.4889311,0.488936 1.2843591,1.070248 2.2773441,1.851562 2.752466,-2.002896 5.497412,-2.962072 7.80664,-3.255859 2.519084,-0.320486 4.607179,-0.03711 5.498047,-0.03711 4.14876,0 7.810911,-0.682181 10.355469,-1.648437 1.272279,-0.483128 2.261189,-1.042312 2.875,-1.564453 0.61381,-0.522141 0.794922,-0.945789 0.794922,-1.195313 0,-0.224849 -0.129383,-0.506462 -0.753907,-0.916015 -0.624523,-0.409553 -1.66616,-0.826758 -2.996093,-1.160156 -2.659867,-0.666798 -6.461669,-1.03711 -10.66211,-1.03711 z"
               inkscape:href="#path2338"
               id="path2352"
               style="opacity:0.2;fill:#ef2929;fill-opacity:1;stroke:#ffffff;stroke-width:1.00000036;stroke-miterlimit:4;stroke-opacity:1"
               xlink:href="#path2338"
               inkscape:original="M 24.068359 19.435547 C 15.550228 19.435547 9.3144531 20.818467 9.3144531 23.482422 C 9.3144531 24.814398 10.583907 26.508693 7.5 29.550781 C 8.2282395 30.682501 9.600414 31.202391 11.048828 32.501953 C 16.737143 27.906796 22.325544 28.996094 24.455078 28.996094 C 32.973208 28.996094 39.5 26.23231 39.5 23.568359 C 39.5 20.904404 32.586486 19.435547 24.068359 19.435547 z "
               inkscape:radius="-1.0198945"
               sodipodi:type="inkscape:offset" />
            <path
               inkscape:connector-curvature="0"
               sodipodi:nodetypes="ccsccsc"
               id="rect2317"
               d="m 21.960325,3.5010229 h 3.803882 c 5.32099,0 9.844342,5.0298335 11.185068,10.4998401 1.377175,5.618704 0.797836,10.499842 -9.110803,10.499842 h -7.754864 c -9.924695,0 -10.3891985,-4.881138 -9.012026,-10.499842 C 12.355856,8.7611743 16.639337,3.5010229 21.960325,3.5010229 Z"
               style="fill:#555753;fill-opacity:1;stroke:#2e3436;stroke-width:0.99999982;stroke-miterlimit:4;stroke-opacity:1" />
            <path
               d="m 21.960938,4.5214844 c -2.324487,0 -4.467221,1.1496127 -6.222657,2.9726562 -1.755436,1.8230435 -3.077282,4.3062414 -3.675781,6.7480474 -0.666019,2.717281 -0.789839,5.060238 0.146484,6.580078 0.936324,1.519839 3.079881,2.658203 7.875,2.658203 h 7.753907 c 4.78682,0 6.964503,-1.142285 7.925781,-2.667969 0.961277,-1.525684 0.859761,-3.859444 0.195312,-6.570312 C 34.710148,9.1470793 30.44208,4.5214844 25.763672,4.5214844 Z"
               inkscape:href="#rect2317"
               id="path2355"
               style="opacity:0.2;fill:url(#linearGradient2240);fill-opacity:1;stroke:#ffffff;stroke-width:0.9999997;stroke-miterlimit:4;stroke-opacity:1"
               xlink:href="#rect2317"
               inkscape:original="M 21.960938 3.5019531 C 16.639949 3.5019531 12.35654 8.7603113 11.072266 14 C 9.6950931 19.618704 10.159289 24.5 20.083984 24.5 L 27.837891 24.5 C 37.74653 24.5 38.326394 19.618704 36.949219 14 C 35.608493 8.5299934 31.084662 3.5019531 25.763672 3.5019531 L 21.960938 3.5019531 z "
               inkscape:radius="-1.0200312"
               sodipodi:type="inkscape:offset" />
            <ellipse
               ry="2.4871371"
               rx="1.2307483"
               cy="3.4618888"
               cx="5.5383673"
               transform="matrix(2.437541,0,0,2.010344,6.500003,5.040414)"
               id="path2326"
               style="opacity:1;fill:#eeeeec;fill-opacity:1;stroke:none;stroke-width:1;stroke-miterlimit:4;stroke-dasharray:none;stroke-opacity:1" />
            <ellipse
               ry="2.4871371"
               rx="1.2307483"
               cy="3.4618888"
               cx="5.5383673"
               transform="matrix(2.336368,0,0,1.926902,14.93582,5.121749)"
               id="path2328"
               style="opacity:1;fill:#eeeeec;fill-opacity:1;stroke:none;stroke-width:1;stroke-miterlimit:4;stroke-dasharray:none;stroke-opacity:1" />
            <path
               inkscape:connector-curvature="0"
               id="path2320"
               d="m 34.506346,21.499996 c 0,2.745842 -4.710393,4.974347 -10.514276,4.974347 -5.803879,0 -10.514274,-2.228505 -10.514274,-4.974347 0,-2.745838 4.710395,-4.974346 10.514274,-4.974346 5.803883,0 10.514276,2.228508 10.514276,4.974346 z"
               style="fill:#f57900;fill-opacity:1;stroke:#ce5c00;stroke-width:0.99999952;stroke-miterlimit:4;stroke-opacity:1" />
            <ellipse
               ry="2.4871371"
               rx="1.2307483"
               cy="3.4618888"
               cx="5.5383673"
               transform="matrix(1.218772,0,0,0.603105,19.74999,11.41212)"
               id="path2330"
               style="opacity:1;fill:#2e3436;fill-opacity:1;stroke:none;stroke-width:1;stroke-miterlimit:4;stroke-dasharray:none;stroke-opacity:1" />
            <ellipse
               ry="2.4871371"
               rx="1.2307483"
               cy="3.4618888"
               cx="5.5383673"
               transform="matrix(1.21877,0,0,0.603105,14.75,11.41212)"
               id="path2332"
               style="opacity:1;fill:#2e3436;fill-opacity:1;stroke:none;stroke-width:1;stroke-miterlimit:4;stroke-dasharray:none;stroke-opacity:1" />
            <ellipse
               ry="1.7085644"
               rx="8.2214088"
               cy="10.923561"
               cx="13.296353"
               transform="matrix(1.167356,0,0,2.333756,8.467761,-4.004284)"
               id="path2336"
               style="opacity:0.2;fill:url(#linearGradient2232);fill-opacity:1;stroke:#ffffff;stroke-width:0.60585797;stroke-miterlimit:4;stroke-dasharray:none;stroke-opacity:1" />
          </g>
          <path
             inkscape:connector-curvature="0"
             style="display:inline;opacity:0.65818182;fill:url(#linearGradient4129);fill-opacity:1;fill-rule:nonzero;stroke:none;stroke-width:1.02472699"
             d="m -33.224875,41.149047 v 6.143726 c 0,3.768297 3.051999,6.815696 6.825986,6.815696 h 81.719555 c 3.773988,0 6.825991,-3.047399 6.825991,-6.815696 v -6.143726 c 0,3.768298 -3.052003,6.815696 -6.825991,6.815696 h -81.719555 c -3.773987,0 -6.825986,-3.047398 -6.825986,-6.815696 z"
             id="path4118" />
          <rect
             style="opacity:0.55;fill:url(#radialGradient7462);fill-opacity:1;stroke:none;stroke-width:1.02472699"
             id="rect4131"
             width="86.398407"
             height="4.3518057"
             x="-29.25106"
             y="39.517124"
             rx="0"
             ry="4.3518057" />
          <rect
             ry="4.3583765"
             rx="0"
             y="-57.61908"
             x="-36.962029"
             height="4.3583765"
             width="78.588493"
             id="rect4141"
             style="opacity:0.669;fill:url(#radialGradient7464);fill-opacity:1;stroke:none;stroke-width:1.02472699"
             transform="rotate(90)" />
          <rect
             transform="matrix(1.0965112,0,0,1.0727794,-30.358369,-3.2544881)"
             style="opacity:0.65;fill:url(#linearGradient4767);fill-opacity:1;stroke:none"
             id="rect4146"
             width="75.965775"
             height="69.024437"
             x="2"
             y="-30"
             rx="3.9569874"
             ry="3.9569881"
             clip-path="url(#clipPath4156-4-1)" />
        </g>
      </g>
    </g>
  </g>
</svg>
