<?xml version="1.0" encoding="UTF-8" standalone="no"?>
<!-- Created with Inkscape (http://www.inkscape.org/) -->

<svg
   xmlns:dc="http://purl.org/dc/elements/1.1/"
   xmlns:cc="http://creativecommons.org/ns#"
   xmlns:rdf="http://www.w3.org/1999/02/22-rdf-syntax-ns#"
   xmlns:svg="http://www.w3.org/2000/svg"
   xmlns="http://www.w3.org/2000/svg"
   xmlns:xlink="http://www.w3.org/1999/xlink"
   xmlns:sodipodi="http://sodipodi.sourceforge.net/DTD/sodipodi-0.dtd"
   xmlns:inkscape="http://www.inkscape.org/namespaces/inkscape"
   width="96"
   height="96"
   id="svg2"
   version="1.1"
   inkscape:version="0.91 r13725"
   sodipodi:docname="kdenlive-zone-end.svg">
  <script
     xlink:href=""
     id="script2985" />
  <defs
     id="defs4">
    <linearGradient
       id="linearGradient6139-0">
      <stop
         style="stop-color:#c1adad;stop-opacity:1;"
         offset="0"
         id="stop6141-2" />
      <stop
         id="stop6151-0"
         offset="0.25"
         style="stop-color:#ffffff;stop-opacity:1;" />
      <stop
         id="stop6147-1"
         offset="0.5"
         style="stop-color:#aa9090;stop-opacity:1;" />
      <stop
         style="stop-color:#fbf9f9;stop-opacity:1;"
         offset="0.75"
         id="stop6149-4" />
      <stop
         style="stop-color:#c1adad;stop-opacity:1;"
         offset="1"
         id="stop6143-4" />
    </linearGradient>
    <linearGradient
       id="linearGradient3888-8-4-8-6"
       inkscape:collect="always">
      <stop
         id="stop3890-4-7-9-7"
         offset="0"
         style="stop-color:#ffffff;stop-opacity:1;" />
      <stop
         id="stop3892-5-8-2-7"
         offset="1"
         style="stop-color:#ffffff;stop-opacity:0;" />
    </linearGradient>
    <linearGradient
       id="linearGradient4091-0-3-0-7">
      <stop
         id="stop4093-3-6-4-2"
         offset="0"
         style="stop-color:#ffffff;stop-opacity:1;" />
      <stop
         style="stop-color:#ffffff;stop-opacity:1;"
         offset="0.80000001"
         id="stop4099-6-1-8-3" />
      <stop
         id="stop4095-1-0-7-9"
         offset="1"
         style="stop-color:#ffffff;stop-opacity:0;" />
    </linearGradient>
    <clipPath
       id="clipPath4194-1-2-5">
      <rect
         style="fill:#ff00ff;fill-opacity:1;fill-rule:nonzero;stroke:none"
         id="rect4196-1-6-2"
         y="6"
         x="6"
         ry="6"
         rx="6"
         height="84"
         width="84" />
    </clipPath>
    <linearGradient
       id="linearGradient3832-0-6-1-1">
      <stop
         id="stop3834-6-3-7-1"
         offset="0"
         style="stop-color:#000000;stop-opacity:1;" />
      <stop
         style="stop-color:#000000;stop-opacity:0.58823532;"
         offset="0.1"
         id="stop3872-2-4" />
      <stop
         id="stop3844-6-2-7-6"
         offset="0.89999998"
         style="stop-color:#000000;stop-opacity:0.58823532;" />
      <stop
         id="stop3836-5-0-2-9"
         offset="1"
         style="stop-color:#000000;stop-opacity:1;" />
    </linearGradient>
    <linearGradient
       inkscape:collect="always"
       xlink:href="#linearGradient4213-7"
       id="linearGradient7466"
       gradientUnits="userSpaceOnUse"
       x1="2.7713892"
       y1="-28.64156"
       x2="50.527882"
       y2="14.514202" />
    <linearGradient
       id="linearGradient4213-7"
       inkscape:collect="always">
      <stop
         id="stop4215-6"
         offset="0"
         style="stop-color:#ffffff;stop-opacity:1;" />
      <stop
         id="stop4217-5"
         offset="1"
         style="stop-color:#ffffff;stop-opacity:0;" />
    </linearGradient>
    <clipPath
       id="clipPath4156-4"
       clipPathUnits="userSpaceOnUse">
      <path
         inkscape:connector-curvature="0"
         id="path4158-0"
         d="m 27.046336,-55.695463 -14.21366,13.321486 0.06127,0 15.653407,21.770763 10.231384,-10.546177 C 38.561832,-32.30156 27.468089,-54.819245 27.046336,-55.695463 z M 9.6468554,-39.382809 -5.2407289,-25.32124 15.987863,-7.8059573 26.372412,-18.382966 9.6468554,-39.382809 z m 31.4906096,12.951445 -9.741259,9.713584 8.944804,12.4580526 7.780753,-7.5550056 -6.984298,-14.616631 z m -49.8397109,4.378822 -13.7541661,12.9822847 26.2830181,13.84571 0.06127,-0.0617 -0.122531,-0.0617 L 13.598503,-5.4007374 -8.7022409,-22.052595 z m 38.0154159,7.400825 -9.802525,9.7752596 11.579232,9.5594001 7.62759,-7.40083 -8.669108,-11.0087257 -0.735189,-0.925104 z m 20.187073,5.6739697 -7.382526,7.2158 6.187844,8.54179 5.820249,-6.13651996 -4.625567,-9.62107004 z m -32.195166,6.32154 -9.5574606,9.49772 13.6622686,7.1849703 7.933918,-7.6783603 -12.038726,-9.00433 z m 23.311629,2.37443004 -7.10683,6.93826996 8.362778,6.9074403 5.360756,-5.6739699 -0.06127,-0.0925 -0.0919,0.12335 -6.463539,-8.20258036 z m -8.730374,8.54178036 -7.505057,7.3391599 10.353916,5.45811 c 1.397496,-1.32103 5.67514,-6.12292 5.850882,-6.32154 L 31.886332,8.2600031 z"
         style="opacity:0.6;fill:#ffffff;fill-opacity:1;stroke:none" />
    </clipPath>
    <linearGradient
       gradientTransform="matrix(3.5300904,0,0,2.5495098,16,18)"
       gradientUnits="userSpaceOnUse"
       xlink:href="#linearGradient4281-6-89"
       id="linearGradient4057"
       y2="19.219381"
       x2="7.9406605"
       y1="5.0990195"
       x1="7.9406605" />
    <linearGradient
       id="linearGradient4281-6-89">
      <stop
         offset="0"
         style="stop-color:#1e1e1e;stop-opacity:1"
         id="stop4283-9-4" />
      <stop
         offset="1"
         style="stop-color:#505050;stop-opacity:1"
         id="stop4285-8-1" />
    </linearGradient>
    <linearGradient
       gradientTransform="matrix(3.5300904,0,0,2.5495098,16,18)"
       gradientUnits="userSpaceOnUse"
       xlink:href="#linearGradient4281-6-89-2"
       id="linearGradient4057-3"
       y2="19.219381"
       x2="7.9406605"
       y1="5.0990195"
       x1="7.9406605" />
    <linearGradient
       id="linearGradient4281-6-89-2">
      <stop
         offset="0"
         style="stop-color:#1e1e1e;stop-opacity:1"
         id="stop4283-9-4-4" />
      <stop
         offset="1"
         style="stop-color:#505050;stop-opacity:1"
         id="stop4285-8-1-5" />
    </linearGradient>
    <linearGradient
       gradientTransform="translate(-100,0)"
       gradientUnits="userSpaceOnUse"
       xlink:href="#linearGradient4281-6-20"
       id="linearGradient3156-2"
       y2="68"
       x2="38"
       y1="28"
       x1="38" />
    <linearGradient
       id="linearGradient4281-6-20">
      <stop
         offset="0"
         style="stop-color:#1e1e1e;stop-opacity:1"
         id="stop4283-9-1" />
      <stop
         offset="1"
         style="stop-color:#505050;stop-opacity:1"
         id="stop4285-8-7" />
    </linearGradient>
    <style
       id="current-color-scheme"
       type="text/css">
      .ColorScheme-Text {
        color:#4d4d4d;
      }
      </style>
    <linearGradient
       y2="47.000011"
       x2="90"
       y1="47.000011"
       x1="6"
       gradientTransform="matrix(1.1071428,0,0,1.1071426,-4.9939026,-3.620687)"
       gradientUnits="userSpaceOnUse"
       id="linearGradient4071"
       xlink:href="#linearGradient6139-0-3"
       inkscape:collect="always" />
    <linearGradient
       id="linearGradient6139-0-3">
      <stop
         style="stop-color:#b2babc;stop-opacity:1"
         offset="0"
         id="stop6141-2-6" />
      <stop
         id="stop6151-0-7"
         offset="0.25"
         style="stop-color:#ffffff;stop-opacity:1;" />
      <stop
         id="stop6147-1-5"
         offset="0.5"
         style="stop-color:#96a1a4;stop-opacity:1" />
      <stop
         style="stop-color:#fbf9f9;stop-opacity:1;"
         offset="0.75"
         id="stop6149-4-3" />
      <stop
         style="stop-color:#b2b9bc;stop-opacity:1"
         offset="1"
         id="stop6143-4-5" />
    </linearGradient>
    <linearGradient
       gradientUnits="userSpaceOnUse"
       y2="88.171875"
       x2="94.5"
       y1="88.171875"
       x1="1.5"
       id="linearGradient4129"
       xlink:href="#linearGradient3832-0-6-1-1"
       inkscape:collect="always"
       gradientTransform="translate(0.1489535,0.415026)" />
    <radialGradient
       r="43.199203"
       fy="44.892841"
       fx="13.948145"
       cy="44.892841"
       cx="13.948145"
       gradientTransform="matrix(0.97513378,0,0,0.04919072,34.047649,80.581722)"
       gradientUnits="userSpaceOnUse"
       id="radialGradient7462-2"
       xlink:href="#linearGradient3888-8-4-8-6"
       inkscape:collect="always" />
    <radialGradient
       r="43.199203"
       fy="44.892841"
       fx="13.948145"
       cy="44.892841"
       cx="13.948145"
       gradientTransform="matrix(0.88832663,0,0,0.04919072,31.959518,-90.31726)"
       gradientUnits="userSpaceOnUse"
       id="radialGradient7464-7"
       xlink:href="#linearGradient3888-8-4-8-6"
       inkscape:collect="always" />
    <linearGradient
       y2="14.514202"
       x2="50.527882"
       y1="-28.64156"
       x1="2.7713892"
       gradientUnits="userSpaceOnUse"
       id="linearGradient4767"
       xlink:href="#linearGradient3888-8-4-8-6"
       inkscape:collect="always" />
    <clipPath
       clipPathUnits="userSpaceOnUse"
       id="clipPath4156-4-1">
      <path
         style="opacity:0.6;fill:#ffffff;fill-opacity:1;stroke:none"
         d="m 27.046336,-55.695463 -14.21366,13.321486 h 0.06127 l 15.653407,21.770763 10.231384,-10.546177 C 38.561832,-32.30156 27.468089,-54.819245 27.046336,-55.695463 Z M 9.6468554,-39.382809 -5.2407289,-25.32124 15.987863,-7.8059573 26.372412,-18.382966 Z m 31.4906096,12.951445 -9.741259,9.713584 8.944804,12.4580526 7.780753,-7.5550056 z m -49.8397109,4.378822 -13.7541661,12.9822847 26.2830181,13.84571 0.06127,-0.0617 -0.122531,-0.0617 L 13.598503,-5.4007374 -8.7022409,-22.052595 Z m 38.0154159,7.400825 -9.802525,9.7752596 11.579232,9.5594001 7.62759,-7.40083 -8.669108,-11.0087257 z m 20.187073,5.6739697 -7.382526,7.2158 6.187844,8.54179 5.820249,-6.13651996 z m -32.195166,6.32154 -9.5574606,9.49772 13.6622686,7.1849703 7.933918,-7.6783603 z m 23.311629,2.37443004 -7.10683,6.93826996 8.362778,6.9074403 5.360756,-5.6739699 -0.06127,-0.0925 -0.0919,0.12335 -6.463539,-8.20258036 z m -8.730374,8.54178036 -7.505057,7.3391599 10.353916,5.45811 c 1.397496,-1.32103 5.67514,-6.12292 5.850882,-6.32154 z"
         id="path4158-0-8"
         inkscape:connector-curvature="0" />
    </clipPath>
  </defs>
  <sodipodi:namedview
     id="base"
     pagecolor="#ffffff"
     bordercolor="#666666"
     borderopacity="1.0"
     inkscape:pageopacity="0.0"
     inkscape:pageshadow="2"
     inkscape:zoom="8.1533202"
     inkscape:cx="44.691061"
     inkscape:cy="48.848668"
     inkscape:current-layer="g2574"
     showgrid="true"
     inkscape:document-units="px"
     inkscape:grid-bbox="true"
     inkscape:showpageshadow="false"
     gridtolerance="1"
     guidetolerance="1"
     objecttolerance="1"
     inkscape:window-width="1280"
     inkscape:window-height="971"
     inkscape:window-x="0"
     inkscape:window-y="25"
     inkscape:window-maximized="1" />
  <metadata
     id="metadata7">
    <rdf:RDF>
      <cc:Work
         rdf:about="">
        <dc:format>image/svg+xml</dc:format>
        <dc:type
           rdf:resource="http://purl.org/dc/dcmitype/StillImage" />
        <dc:title />
      </cc:Work>
    </rdf:RDF>
  </metadata>
  <g
     id="layer1"
     inkscape:label="Layer 1"
     inkscape:groupmode="layer"
     transform="translate(0,32)">
    <g
       transform="translate(-8.0439584,-17.334439)"
       id="g7008">
      <g
         inkscape:label="Livello 1"
         id="layer1-0"
         transform="translate(8.0439584,-1041.1853)">
        <g
           transform="translate(-0.14895645,1026.1047)"
           style="display:inline"
           id="g2574">
          <path
             inkscape:connector-curvature="0"
             id="path3288-9"
             d="m 89.29181,0.415026 -82.2857189,0 c -3.798848,0 -6.8571352,3.058285 -6.8571352,6.8571399 l 0,82.2857181 c 0,3.798857 3.0582872,6.857142 6.8571352,6.857142 l 82.2857189,0 c 3.798857,0 6.857147,-3.058285 6.857147,-6.857142 l 0,-82.2857181 c 0,-3.7988549 -3.05829,-6.8571399 -6.857147,-6.8571399 z"
             style="display:inline;opacity:0.15;fill:#000000;fill-opacity:1;fill-rule:nonzero;stroke:none" />
          <path
             style="display:inline;opacity:0.15;fill:#000000;fill-opacity:1;fill-rule:nonzero;stroke:none"
             d="m 88.648954,1.165026 -81.0000069,0 c -3.739492,0 -6.749993,3.010499 -6.749993,6.7499969 l 0,81.0000031 c 0,3.739501 3.010501,6.75 6.749993,6.75 l 81.0000069,0 c 3.739503,0 6.750003,-3.010499 6.750003,-6.75 l 0,-81.0000031 c 0,-3.7394979 -3.0105,-6.7499969 -6.750003,-6.7499969 z"
             id="path4085-36"
             inkscape:connector-curvature="0" />
          <path
             inkscape:connector-curvature="0"
             id="rect4251-1-0"
             d="m 88.006093,1.915026 -79.7142819,0 c -3.680143,0 -6.6428566,2.962713 -6.6428566,6.6428549 l 0,79.7142901 c 0,3.680142 2.9627136,6.642856 6.6428566,6.642856 l 79.7142819,0 c 3.680143,0 6.642854,-2.962714 6.642854,-6.642856 l 0,-79.7142901 c 0,-3.6801419 -2.962711,-6.6428549 -6.642854,-6.6428549 z"
             style="display:inline;fill:url(#linearGradient4071);fill-opacity:1;fill-rule:nonzero;stroke:none" />
          <path
             sodipodi:nodetypes="sscccsccscccsss"
             inkscape:connector-curvature="0"
             id="path3400-6-6"
             d="m 11.390247,6.8021682 c -2.8564964,0 -5.1241284,2.2883782 -5.1241284,5.1710028 l 0,21.42734 0,7.239403 0,39.913674 c 1.0972399,1.684484 2.9688485,2.811732 5.1241284,2.811732 l 4.099303,0 65.588849,0 4.099302,0 c 2.155281,0 4.026889,-1.127248 5.124129,-2.811732 l 0,-39.913674 0,-7.239403 0,-21.42734 c 0,-2.8826246 -2.267632,-5.1710028 -5.124129,-5.1710028 z"
             style="display:inline;opacity:0.77864583;fill:#f3f4f5;fill-opacity:1;fill-rule:nonzero;stroke:none;stroke-width:1.02950251" />
          <path
             style="color:#000000;font-style:normal;font-variant:normal;font-weight:normal;font-stretch:normal;font-size:medium;line-height:normal;font-family:Sans;-inkscape-font-specification:Sans;text-indent:0;text-align:start;text-decoration:none;text-decoration-line:none;letter-spacing:normal;word-spacing:normal;text-transform:none;direction:ltr;writing-mode:lr-tb;baseline-shift:baseline;text-anchor:start;display:inline;overflow:visible;visibility:visible;fill:#241f1f;fill-opacity:0.63265303;stroke:none;stroke-width:2.3755002;marker:none;enable-background:accumulate"
             d="m 9.9740341,5.1444869 c -3.116621,0 -5.667965,2.53951 -5.667965,5.6460041 l 0,69.277996 c 0,3.106495 2.551344,5.646004 5.667965,5.646004 l 76.7917849,0 c 3.116621,0 5.667968,-2.539509 5.667968,-5.646004 l 0,-69.277996 c 0,-3.1064931 -2.551347,-5.6460041 -5.667968,-5.6460041 z m 0,2.319439 76.7917849,0 c 1.888099,0 3.352022,1.480095 3.352022,3.3265651 l 0,69.277996 c 0,1.846474 -1.463923,3.326564 -3.352022,3.326564 l -76.7917849,0 c -1.888099,0 -3.352022,-1.48009 -3.352022,-3.326564 l 0,-69.277996 c 0,-1.8464701 1.463923,-3.3265651 3.352022,-3.3265651 z"
             id="path4989-2"
             inkscape:connector-curvature="0" />
          <path
             id="path4118-6"
             d="m 1.6489535,82.258776 0,6 c 0,3.680142 2.9761066,6.65625 6.6562496,6.65625 l 79.6874999,0 c 3.680143,0 6.656254,-2.976108 6.656254,-6.65625 l 0,-6 c 0,3.680142 -2.976111,6.65625 -6.656254,6.65625 l -79.6874999,0 c -3.680143,0 -6.6562496,-2.976108 -6.6562496,-6.65625 z"
             style="display:inline;opacity:0.65818182;fill:url(#linearGradient4129);fill-opacity:1;fill-rule:nonzero;stroke:none"
             inkscape:connector-curvature="0" />
          <rect
             ry="4.25"
             rx="0"
             y="80.665031"
             x="5.5239539"
             height="4.25"
             width="84.250008"
             id="rect4131-1"
             style="opacity:0.55;fill:url(#radialGradient7462-2);fill-opacity:1;stroke:none" />
          <rect
             transform="matrix(0,1,-1,0,0,0)"
             style="opacity:0.669;fill:url(#radialGradient7464-7);fill-opacity:1;stroke:none"
             id="rect4141-8"
             width="76.75"
             height="4.25"
             x="5.9750223"
             y="-90.233963"
             rx="0"
             ry="4.25" />
          <rect
             clip-path="url(#clipPath4156-4-1)"
             ry="3.9569881"
             rx="3.9569874"
             y="-30"
             x="2"
             height="69.024437"
             width="75.965775"
             id="rect4146-7"
             style="opacity:0.5078125;fill:url(#linearGradient4767);fill-opacity:1;stroke:none"
             transform="matrix(1.0692451,0,0,1.0476829,4.4441802,38.894013)" />
          <g
             transform="matrix(1.1040714,0,0,1.0761499,105.56067,-3.7782312)"
             style="display:inline"
             id="g8338">
            <path
               d="m -70,28 c -1.108,0 -2,0.892 -2,2 l 0,36 c 0,1.108 0.892,2 2,2 12,0 24,0 36,0 1.108,0 2,-0.892 2,-2 l 0,-36 c 0,-1.108 -0.892,-2 -2,-2 -12,0 -24,0 -36,0 z"
               inkscape:connector-curvature="0"
               id="path3146-4"
               style="color:#000000;display:inline;overflow:visible;visibility:visible;fill:url(#linearGradient3156-2);fill-opacity:1;fill-rule:nonzero;stroke:none;stroke-width:2;marker:none;enable-background:accumulate" />
            <path
               d="m -70,28 c -1.108,0 -2,0.892 -2,2 l 0,36 c 0,1.108 0.892,2 2,2 l 36,0 c 1.108,0 2,-0.892 2,-2 l 0,-36 c 0,-1.108 -0.892,-2 -2,-2 l -36,0 z m -0.0625,1.9375 c 0.0066,-0.0066 0.02636,0 0.0625,0 l 36,0 c 0.07229,0 0.0625,-0.0098 0.0625,0.0625 l 0,36 c 0,0.07228 0.0098,0.0625 -0.0625,0.0625 l -36,0 c -0.07229,0 -0.0625,0.0098 -0.0625,-0.0625 l 0,-36 c 0,-0.03614 -0.0066,-0.05591 0,-0.0625 z"
               inkscape:connector-curvature="0"
               id="path3148-1"
               style="color:#000000;display:inline;overflow:visible;visibility:visible;opacity:0.1;fill:#000000;fill-opacity:1;fill-rule:nonzero;stroke:none;stroke-width:2;marker:none;enable-background:accumulate" />
            <path
               d="m -72,66 0,1 c 0,1.108 0.892,2 2,2 l 36,0 c 1.108,0 2,-0.892 2,-2 l 0,-1 c 0,1.108 -0.892,2 -2,2 l -36,0 c -1.108,0 -2,-0.892 -2,-2 z"
               inkscape:connector-curvature="0"
               id="path3152-7"
               style="color:#000000;display:inline;overflow:visible;visibility:visible;opacity:0.6;fill:#ffffff;fill-opacity:1;fill-rule:nonzero;stroke:none;stroke-width:2;marker:none;enable-background:accumulate" />
            <path
               d="m -70,28 c -1.108,0 -2,0.892 -2,2 l 0,1 c 0,-1.108 0.892,-2 2,-2 l 36,0 c 1.108,0 2,0.892 2,2 l 0,-1 c 0,-1.108 -0.892,-2 -2,-2 l -36,0 z"
               inkscape:connector-curvature="0"
               id="path3154-3"
               style="color:#000000;display:inline;overflow:visible;visibility:visible;opacity:0.6;fill:#000000;fill-opacity:1;fill-rule:nonzero;stroke:none;stroke-width:2;marker:none;enable-background:accumulate" />
          </g>
        </g>
      </g>
    </g>
  </g>
</svg>
