<?xml version="1.0" encoding="UTF-8" standalone="no"?>
<!-- Created with Inkscape (http://www.inkscape.org/) -->

<svg
   xmlns:dc="http://purl.org/dc/elements/1.1/"
   xmlns:cc="http://creativecommons.org/ns#"
   xmlns:rdf="http://www.w3.org/1999/02/22-rdf-syntax-ns#"
   xmlns:svg="http://www.w3.org/2000/svg"
   xmlns="http://www.w3.org/2000/svg"
   xmlns:xlink="http://www.w3.org/1999/xlink"
   xmlns:sodipodi="http://sodipodi.sourceforge.net/DTD/sodipodi-0.dtd"
   xmlns:inkscape="http://www.inkscape.org/namespaces/inkscape"
   width="96"
   height="96"
   id="svg2"
   version="1.1"
   inkscape:version="0.91 r13725"
   sodipodi:docname="media-playlist-repeat.svg">
  <script
     xlink:href=""
     id="script2985" />
  <defs
     id="defs4">
    <linearGradient
       id="linearGradient6139-0">
      <stop
         style="stop-color:#adb9c1;stop-opacity:1;"
         offset="0"
         id="stop6141-2" />
      <stop
         id="stop6151-0"
         offset="0.25"
         style="stop-color:#ffffff;stop-opacity:1;" />
      <stop
         id="stop6147-1"
         offset="0.5"
         style="stop-color:#90a2aa;stop-opacity:1;" />
      <stop
         style="stop-color:#f9fafb;stop-opacity:1;"
         offset="0.75"
         id="stop6149-4" />
      <stop
         style="stop-color:#adb9c1;stop-opacity:1;"
         offset="1"
         id="stop6143-4" />
    </linearGradient>
    <linearGradient
       id="linearGradient3888-8-4-8-6"
       inkscape:collect="always">
      <stop
         id="stop3890-4-7-9-7"
         offset="0"
         style="stop-color:#ffffff;stop-opacity:1;" />
      <stop
         id="stop3892-5-8-2-7"
         offset="1"
         style="stop-color:#ffffff;stop-opacity:0;" />
    </linearGradient>
    <linearGradient
       id="linearGradient4091-0-3-0-7">
      <stop
         id="stop4093-3-6-4-2"
         offset="0"
         style="stop-color:#ffffff;stop-opacity:1;" />
      <stop
         style="stop-color:#ffffff;stop-opacity:1;"
         offset="0.80000001"
         id="stop4099-6-1-8-3" />
      <stop
         id="stop4095-1-0-7-9"
         offset="1"
         style="stop-color:#ffffff;stop-opacity:0;" />
    </linearGradient>
    <clipPath
       id="clipPath4194-1-2-5">
      <rect
         style="fill:#ff00ff;fill-opacity:1;fill-rule:nonzero;stroke:none"
         id="rect4196-1-6-2"
         y="6"
         x="6"
         ry="6"
         rx="6"
         height="84"
         width="84" />
    </clipPath>
    <linearGradient
       id="linearGradient3832-0-6-1-1">
      <stop
         id="stop3834-6-3-7-1"
         offset="0"
         style="stop-color:#000000;stop-opacity:1;" />
      <stop
         style="stop-color:#000000;stop-opacity:0.58823532;"
         offset="0.1"
         id="stop3872-2-4" />
      <stop
         id="stop3844-6-2-7-6"
         offset="0.89999998"
         style="stop-color:#000000;stop-opacity:0.58823532;" />
      <stop
         id="stop3836-5-0-2-9"
         offset="1"
         style="stop-color:#000000;stop-opacity:1;" />
    </linearGradient>
    <linearGradient
       inkscape:collect="always"
       xlink:href="#linearGradient4213-7"
       id="linearGradient7466"
       gradientUnits="userSpaceOnUse"
       x1="2.7713892"
       y1="-28.64156"
       x2="50.527882"
       y2="14.514202" />
    <linearGradient
       id="linearGradient4213-7"
       inkscape:collect="always">
      <stop
         id="stop4215-6"
         offset="0"
         style="stop-color:#ffffff;stop-opacity:1;" />
      <stop
         id="stop4217-5"
         offset="1"
         style="stop-color:#ffffff;stop-opacity:0;" />
    </linearGradient>
    <clipPath
       id="clipPath4156-4"
       clipPathUnits="userSpaceOnUse">
      <path
         inkscape:connector-curvature="0"
         id="path4158-0"
         d="m 27.046336,-55.695463 -14.21366,13.321486 0.06127,0 15.653407,21.770763 10.231384,-10.546177 C 38.561832,-32.30156 27.468089,-54.819245 27.046336,-55.695463 z M 9.6468554,-39.382809 -5.2407289,-25.32124 15.987863,-7.8059573 26.372412,-18.382966 9.6468554,-39.382809 z m 31.4906096,12.951445 -9.741259,9.713584 8.944804,12.4580526 7.780753,-7.5550056 -6.984298,-14.616631 z m -49.8397109,4.378822 -13.7541661,12.9822847 26.2830181,13.84571 0.06127,-0.0617 -0.122531,-0.0617 L 13.598503,-5.4007374 -8.7022409,-22.052595 z m 38.0154159,7.400825 -9.802525,9.7752596 11.579232,9.5594001 7.62759,-7.40083 -8.669108,-11.0087257 -0.735189,-0.925104 z m 20.187073,5.6739697 -7.382526,7.2158 6.187844,8.54179 5.820249,-6.13651996 -4.625567,-9.62107004 z m -32.195166,6.32154 -9.5574606,9.49772 13.6622686,7.1849703 7.933918,-7.6783603 -12.038726,-9.00433 z m 23.311629,2.37443004 -7.10683,6.93826996 8.362778,6.9074403 5.360756,-5.6739699 -0.06127,-0.0925 -0.0919,0.12335 -6.463539,-8.20258036 z m -8.730374,8.54178036 -7.505057,7.3391599 10.353916,5.45811 c 1.397496,-1.32103 5.67514,-6.12292 5.850882,-6.32154 L 31.886332,8.2600031 z"
         style="opacity:0.6;fill:#ffffff;fill-opacity:1;stroke:none" />
    </clipPath>
    <linearGradient
       gradientTransform="matrix(3.5300904,0,0,2.5495098,16,18)"
       gradientUnits="userSpaceOnUse"
       xlink:href="#linearGradient4281-6-89"
       id="linearGradient4057"
       y2="19.219381"
       x2="7.9406605"
       y1="5.0990195"
       x1="7.9406605" />
    <linearGradient
       id="linearGradient4281-6-89">
      <stop
         offset="0"
         style="stop-color:#1e1e1e;stop-opacity:1"
         id="stop4283-9-4" />
      <stop
         offset="1"
         style="stop-color:#505050;stop-opacity:1"
         id="stop4285-8-1" />
    </linearGradient>
    <linearGradient
       gradientTransform="matrix(3.5300904,0,0,2.5495098,16,18)"
       gradientUnits="userSpaceOnUse"
       xlink:href="#linearGradient4281-6-89-2"
       id="linearGradient4057-3"
       y2="19.219381"
       x2="7.9406605"
       y1="5.0990195"
       x1="7.9406605" />
    <linearGradient
       id="linearGradient4281-6-89-2">
      <stop
         offset="0"
         style="stop-color:#1e1e1e;stop-opacity:1"
         id="stop4283-9-4-4" />
      <stop
         offset="1"
         style="stop-color:#505050;stop-opacity:1"
         id="stop4285-8-1-5" />
    </linearGradient>
    <linearGradient
       gradientTransform="translate(-100,0)"
       gradientUnits="userSpaceOnUse"
       xlink:href="#linearGradient4281-6-20"
       id="linearGradient3156-2"
       y2="68"
       x2="38"
       y1="28"
       x1="38" />
    <linearGradient
       id="linearGradient4281-6-20">
      <stop
         offset="0"
         style="stop-color:#1e1e1e;stop-opacity:1"
         id="stop4283-9-1" />
      <stop
         offset="1"
         style="stop-color:#505050;stop-opacity:1"
         id="stop4285-8-7" />
    </linearGradient>
    <linearGradient
       gradientTransform="scale(1.0058652,0.994169)"
       gradientUnits="userSpaceOnUse"
       id="ButtonShadow-4"
       y2="7.0165396"
       x2="45.447727"
       y1="92.539597"
       x1="45.447727">
      <stop
         offset="0"
         style="stop-color:#000000;stop-opacity:1"
         id="stop3750-15" />
      <stop
         offset="1"
         style="stop-color:#000000;stop-opacity:0.58823532"
         id="stop3752-24" />
    </linearGradient>
    <filter
       id="filter3174-80"
       color-interpolation-filters="sRGB">
      <feGaussianBlur
         stdDeviation="1.71"
         id="feGaussianBlur3176-2" />
    </filter>
    <linearGradient
       gradientUnits="userSpaceOnUse"
       xlink:href="#linearGradient3737-34"
       id="linearGradient3613-5"
       y2="138.66119"
       x2="48"
       y1="20.220806"
       x1="48" />
    <linearGradient
       id="linearGradient3737-34">
      <stop
         offset="0"
         style="stop-color:#ffffff;stop-opacity:1"
         id="stop3739-44" />
      <stop
         offset="1"
         style="stop-color:#ffffff;stop-opacity:0"
         id="stop3741-61" />
    </linearGradient>
    <clipPath
       id="clipPath3613-61">
      <rect
         style="fill:#ffffff;fill-opacity:1;fill-rule:nonzero;stroke:none"
         id="rect3615-83"
         y="6"
         x="6"
         ry="6"
         rx="6"
         height="84"
         width="84" />
    </clipPath>
    <filter
       id="filter3794-5"
       color-interpolation-filters="sRGB"
       height="1.3839999"
       width="1.3839999"
       y="-0.192"
       x="-0.192">
      <feGaussianBlur
         stdDeviation="5.28"
         id="feGaussianBlur3796-1" />
    </filter>
    <linearGradient
       id="linearGradient4281-6-89-5">
      <stop
         offset="0"
         style="stop-color:#1e1e1e;stop-opacity:1"
         id="stop4283-9-4-47" />
      <stop
         offset="1"
         style="stop-color:#505050;stop-opacity:1"
         id="stop4285-8-1-4" />
    </linearGradient>
    <linearGradient
       gradientTransform="scale(1.0058652,0.994169)"
       gradientUnits="userSpaceOnUse"
       id="ButtonShadow"
       y2="7.0165396"
       x2="45.447727"
       y1="92.539597"
       x1="45.447727">
      <stop
         offset="0"
         style="stop-color:#000000;stop-opacity:1"
         id="stop3750" />
      <stop
         offset="1"
         style="stop-color:#000000;stop-opacity:0.58823532"
         id="stop3752" />
    </linearGradient>
    <filter
       id="filter3174"
       color-interpolation-filters="sRGB">
      <feGaussianBlur
         stdDeviation="1.71"
         id="feGaussianBlur3176" />
    </filter>
    <linearGradient
       gradientUnits="userSpaceOnUse"
       xlink:href="#linearGradient3737"
       id="linearGradient3613"
       y2="138.66119"
       x2="48"
       y1="20.220806"
       x1="48" />
    <linearGradient
       id="linearGradient3737">
      <stop
         offset="0"
         style="stop-color:#ffffff;stop-opacity:1"
         id="stop3739" />
      <stop
         offset="1"
         style="stop-color:#ffffff;stop-opacity:0"
         id="stop3741" />
    </linearGradient>
    <clipPath
       id="clipPath3613">
      <rect
         style="fill:#ffffff;fill-opacity:1;fill-rule:nonzero;stroke:none"
         id="rect3615"
         y="6"
         x="6"
         ry="6"
         rx="6"
         height="84"
         width="84" />
    </clipPath>
    <filter
       id="filter3794"
       color-interpolation-filters="sRGB"
       height="1.3839999"
       width="1.3839999"
       y="-0.192"
       x="-0.192">
      <feGaussianBlur
         stdDeviation="5.28"
         id="feGaussianBlur3796" />
    </filter>
    <linearGradient
       gradientTransform="translate(4,-4)"
       gradientUnits="userSpaceOnUse"
       xlink:href="#linearGradient4281-6"
       id="linearGradient3935"
       y2="68"
       x2="38"
       y1="36"
       x1="38" />
    <linearGradient
       id="linearGradient4281-6">
      <stop
         offset="0"
         style="stop-color:#1e1e1e;stop-opacity:1"
         id="stop4283-9" />
      <stop
         offset="1"
         style="stop-color:#505050;stop-opacity:1"
         id="stop4285-8" />
    </linearGradient>
    <linearGradient
       gradientTransform="scale(1.0058652,0.994169)"
       gradientUnits="userSpaceOnUse"
       id="ButtonShadow-7"
       y2="7.0165396"
       x2="45.447727"
       y1="92.539597"
       x1="45.447727">
      <stop
         offset="0"
         style="stop-color:#000000;stop-opacity:1"
         id="stop3750-12" />
      <stop
         offset="1"
         style="stop-color:#000000;stop-opacity:0.58823532"
         id="stop3752-25" />
    </linearGradient>
    <filter
       id="filter3174-30"
       color-interpolation-filters="sRGB">
      <feGaussianBlur
         stdDeviation="1.71"
         id="feGaussianBlur3176-29" />
    </filter>
    <linearGradient
       gradientUnits="userSpaceOnUse"
       xlink:href="#linearGradient3737-1"
       id="linearGradient3613-7"
       y2="138.66119"
       x2="48"
       y1="20.220806"
       x1="48" />
    <linearGradient
       id="linearGradient3737-1">
      <stop
         offset="0"
         style="stop-color:#ffffff;stop-opacity:1"
         id="stop3739-95" />
      <stop
         offset="1"
         style="stop-color:#ffffff;stop-opacity:0"
         id="stop3741-48" />
    </linearGradient>
    <clipPath
       id="clipPath3613-60">
      <rect
         style="fill:#ffffff;fill-opacity:1;fill-rule:nonzero;stroke:none"
         id="rect3615-0"
         y="6"
         x="6"
         ry="6"
         rx="6"
         height="84"
         width="84" />
    </clipPath>
    <filter
       id="filter3794-8"
       color-interpolation-filters="sRGB"
       height="1.3839999"
       width="1.3839999"
       y="-0.192"
       x="-0.192">
      <feGaussianBlur
         stdDeviation="5.28"
         id="feGaussianBlur3796-53" />
    </filter>
    <linearGradient
       gradientUnits="userSpaceOnUse"
       xlink:href="#SpecificGradient"
       id="linearGradient3037"
       y2="11"
       x2="18"
       y1="11"
       x1="4" />
    <linearGradient
       gradientUnits="userSpaceOnUse"
       id="SpecificGradient"
       y2="18.011395"
       x2="10.761708"
       y1="3.9999998"
       x1="10.761708">
      <stop
         offset="0"
         style="stop-color:#a50000;stop-opacity:1"
         id="stop3292" />
      <stop
         offset="1"
         style="stop-color:#e73800;stop-opacity:1"
         id="stop3294" />
    </linearGradient>
    <linearGradient
       gradientTransform="scale(1.0058652,0.994169)"
       gradientUnits="userSpaceOnUse"
       id="ButtonShadow-36"
       y2="7.0165396"
       x2="45.447727"
       y1="92.539597"
       x1="45.447727">
      <stop
         offset="0"
         style="stop-color:#000000;stop-opacity:1"
         id="stop3750-45" />
      <stop
         offset="1"
         style="stop-color:#000000;stop-opacity:0.58823532"
         id="stop3752-6" />
    </linearGradient>
    <filter
       id="filter3174-6"
       color-interpolation-filters="sRGB">
      <feGaussianBlur
         stdDeviation="1.71"
         id="feGaussianBlur3176-69" />
    </filter>
    <linearGradient
       gradientUnits="userSpaceOnUse"
       xlink:href="#linearGradient3737-87"
       id="linearGradient3613-9"
       y2="138.66119"
       x2="48"
       y1="20.220806"
       x1="48" />
    <linearGradient
       id="linearGradient3737-87">
      <stop
         offset="0"
         style="stop-color:#ffffff;stop-opacity:1"
         id="stop3739-1" />
      <stop
         offset="1"
         style="stop-color:#ffffff;stop-opacity:0"
         id="stop3741-23" />
    </linearGradient>
    <clipPath
       id="clipPath3613-9">
      <rect
         style="fill:#ffffff;fill-opacity:1;fill-rule:nonzero;stroke:none"
         id="rect3615-9"
         y="6"
         x="6"
         ry="6"
         rx="6"
         height="84"
         width="84" />
    </clipPath>
    <filter
       id="filter3794-74"
       color-interpolation-filters="sRGB"
       height="1.3839999"
       width="1.3839999"
       y="-0.192"
       x="-0.192">
      <feGaussianBlur
         stdDeviation="5.28"
         id="feGaussianBlur3796-54" />
    </filter>
    <linearGradient
       gradientTransform="matrix(3.3282012,0,0,2.7041634,-227.20273,-331.63215)"
       gradientUnits="userSpaceOnUse"
       xlink:href="#linearGradient4281-6-8"
       id="linearGradient3960"
       y2="19.983326"
       x2="9.3966265"
       y1="5.5470023"
       x1="9.3966265" />
    <linearGradient
       id="linearGradient4281-6-8">
      <stop
         offset="0"
         style="stop-color:#1e1e1e;stop-opacity:1"
         id="stop4283-9-6" />
      <stop
         offset="1"
         style="stop-color:#505050;stop-opacity:1"
         id="stop4285-8-69" />
    </linearGradient>
    <linearGradient
       inkscape:collect="always"
       xlink:href="#linearGradient6139-0-3"
       id="linearGradient4071"
       gradientUnits="userSpaceOnUse"
       gradientTransform="matrix(1.1071428,0,0,1.1071426,-4.9939026,-3.620687)"
       x1="6"
       y1="47.000011"
       x2="90"
       y2="47.000011" />
    <linearGradient
       id="linearGradient6139-0-3">
      <stop
         id="stop6141-2-6"
         offset="0"
         style="stop-color:#b2babc;stop-opacity:1" />
      <stop
         style="stop-color:#ffffff;stop-opacity:1;"
         offset="0.25"
         id="stop6151-0-7" />
      <stop
         style="stop-color:#96a1a4;stop-opacity:1"
         offset="0.5"
         id="stop6147-1-5" />
      <stop
         id="stop6149-4-3"
         offset="0.75"
         style="stop-color:#f9fafb;stop-opacity:1;" />
      <stop
         id="stop6143-4-5"
         offset="1"
         style="stop-color:#b2b9bc;stop-opacity:1" />
    </linearGradient>
    <linearGradient
       gradientTransform="translate(0.1489535,0.415026)"
       inkscape:collect="always"
       xlink:href="#linearGradient3832-0-6-1-1"
       id="linearGradient4129"
       x1="1.5"
       y1="88.171875"
       x2="94.5"
       y2="88.171875"
       gradientUnits="userSpaceOnUse" />
    <radialGradient
       inkscape:collect="always"
       xlink:href="#linearGradient3888-8-4-8-6"
       id="radialGradient7462-2"
       gradientUnits="userSpaceOnUse"
       gradientTransform="matrix(0.97513378,0,0,0.04919072,34.047649,80.581722)"
       cx="13.948145"
       cy="44.892841"
       fx="13.948145"
       fy="44.892841"
       r="43.199203" />
    <radialGradient
       inkscape:collect="always"
       xlink:href="#linearGradient3888-8-4-8-6"
       id="radialGradient7464-9"
       gradientUnits="userSpaceOnUse"
       gradientTransform="matrix(0.88832663,0,0,0.04919072,31.959518,-90.31726)"
       cx="13.948145"
       cy="44.892841"
       fx="13.948145"
       fy="44.892841"
       r="43.199203" />
    <linearGradient
       inkscape:collect="always"
       xlink:href="#linearGradient3888-8-4-8-6"
       id="linearGradient4767"
       gradientUnits="userSpaceOnUse"
       x1="2.7713892"
       y1="-28.64156"
       x2="50.527882"
       y2="14.514202" />
    <clipPath
       id="clipPath4156-4-1"
       clipPathUnits="userSpaceOnUse">
      <path
         inkscape:connector-curvature="0"
         id="path4158-0-8"
         d="m 27.046336,-55.695463 -14.21366,13.321486 h 0.06127 l 15.653407,21.770763 10.231384,-10.546177 C 38.561832,-32.30156 27.468089,-54.819245 27.046336,-55.695463 Z M 9.6468554,-39.382809 -5.2407289,-25.32124 15.987863,-7.8059573 26.372412,-18.382966 Z m 31.4906096,12.951445 -9.741259,9.713584 8.944804,12.4580526 7.780753,-7.5550056 z m -49.8397109,4.378822 -13.7541661,12.9822847 26.2830181,13.84571 0.06127,-0.0617 -0.122531,-0.0617 L 13.598503,-5.4007374 -8.7022409,-22.052595 Z m 38.0154159,7.400825 -9.802525,9.7752596 11.579232,9.5594001 7.62759,-7.40083 -8.669108,-11.0087257 z m 20.187073,5.6739697 -7.382526,7.2158 6.187844,8.54179 5.820249,-6.13651996 z m -32.195166,6.32154 -9.5574606,9.49772 13.6622686,7.1849703 7.933918,-7.6783603 z m 23.311629,2.37443004 -7.10683,6.93826996 8.362778,6.9074403 5.360756,-5.6739699 -0.06127,-0.0925 -0.0919,0.12335 -6.463539,-8.20258036 z m -8.730374,8.54178036 -7.505057,7.3391599 10.353916,5.45811 c 1.397496,-1.32103 5.67514,-6.12292 5.850882,-6.32154 z"
         style="opacity:0.6;fill:#ffffff;fill-opacity:1;stroke:none" />
    </clipPath>
    <clipPath
       clipPathUnits="userSpaceOnUse"
       id="clipPath4355-7">
      <rect
         style="fill:#ffffff;fill-opacity:1;fill-rule:nonzero;stroke:none"
         id="rect4357-5"
         width="84"
         height="80"
         x="6"
         y="6"
         rx="6"
         ry="6" />
    </clipPath>
    <clipPath
       clipPathUnits="userSpaceOnUse"
       id="clipPath4355-9">
      <rect
         style="fill:#ffffff;fill-opacity:1;fill-rule:nonzero;stroke:none"
         id="rect4357-1"
         width="84"
         height="80"
         x="6"
         y="6"
         rx="6"
         ry="6" />
    </clipPath>
    <clipPath
       clipPathUnits="userSpaceOnUse"
       id="clipPath4355-1">
      <rect
         style="fill:#ffffff;fill-opacity:1;fill-rule:nonzero;stroke:none"
         id="rect4357-9"
         width="84"
         height="80"
         x="6"
         y="6"
         rx="6"
         ry="6" />
    </clipPath>
    <clipPath
       clipPathUnits="userSpaceOnUse"
       id="clipPath3943-52-0">
      <path
         id="path3945-4-1"
         d="m 69.78125,20.84375 -5,3.4375 c 5.586891,5.537137 9,13.327613 9,21.8125 0,8.434478 -3.37723,16.095981 -8.90625,21.625 l 5,3.4375 C 76.078226,64.5762 80,55.843726 80,46.09375 c 2e-6,-9.796556 -3.962955,-18.660417 -10.21875,-25.25 z M 40,24.0625 28.90625,36.21875 H 21.5 c -0.823281,0 -1.5,0.676717 -1.5,1.5 v 1 14.84375 1 c 0,0.823281 0.684121,1.610161 1.5,1.5 h 7.40625 L 40,68 V 66 26.0625 Z m 20.59375,3.28125 -5,3.4375 L 55.5,30.875 c 3.93815,3.890071 6.40625,9.25018 6.40625,15.21875 0,5.920869 -2.42961,11.148358 -6.3125,15.03125 l 0.09375,0.09375 5.09375,3.4375 c 4.475428,-4.908367 7.25,-11.402005 7.25,-18.5625 0,-7.230696 -2.87904,-13.83107 -7.4375,-18.75 z m -9.25,6.5 -5.21875,3.625 c 2.222384,2.217802 3.71875,5.239596 3.71875,8.625 0,3.336509 -1.458847,6.227712 -3.625,8.4375 l 5.21875,3.625 c 2.822412,-3.236947 4.53125,-7.43414 4.53125,-12.0625 0,-4.672601 -1.754155,-9.001351 -4.625,-12.25 z"
         style="color:#000000;display:inline;overflow:visible;visibility:visible;opacity:0.8;fill:#ff00ff;fill-opacity:1;fill-rule:nonzero;stroke:none;stroke-width:1;marker:none;enable-background:accumulate"
         inkscape:connector-curvature="0" />
    </clipPath>
    <filter
       style="color-interpolation-filters:sRGB"
       id="filter3174-6-3">
      <feGaussianBlur
         stdDeviation="1.71"
         id="feGaussianBlur3176-69-7" />
    </filter>
    <clipPath
       id="clipPath3613-9-2">
      <rect
         style="fill:#ffffff;fill-opacity:1;fill-rule:nonzero;stroke:none"
         id="rect3615-9-8"
         y="6"
         x="6"
         ry="6"
         rx="6"
         height="84"
         width="84" />
    </clipPath>
    <filter
       style="color-interpolation-filters:sRGB"
       id="filter3794-74-9"
       height="1.3839999"
       width="1.3839999"
       y="-0.192"
       x="-0.192">
      <feGaussianBlur
         stdDeviation="5.28"
         id="feGaussianBlur3796-54-7" />
    </filter>
  </defs>
  <sodipodi:namedview
     id="base"
     pagecolor="#ffffff"
     bordercolor="#666666"
     borderopacity="1.0"
     inkscape:pageopacity="0.0"
     inkscape:pageshadow="2"
     inkscape:zoom="2.882634"
     inkscape:cx="82.031133"
     inkscape:cy="29.22476"
     inkscape:current-layer="g2574"
     showgrid="true"
     inkscape:document-units="px"
     inkscape:grid-bbox="true"
     inkscape:showpageshadow="false"
     gridtolerance="1"
     guidetolerance="1"
     objecttolerance="1"
     inkscape:window-width="1280"
     inkscape:window-height="971"
     inkscape:window-x="0"
     inkscape:window-y="25"
     inkscape:window-maximized="1" />
  <metadata
     id="metadata7">
    <rdf:RDF>
      <cc:Work
         rdf:about="">
        <dc:format>image/svg+xml</dc:format>
        <dc:type
           rdf:resource="http://purl.org/dc/dcmitype/StillImage" />
        <dc:title />
      </cc:Work>
    </rdf:RDF>
  </metadata>
  <g
     id="layer1"
     inkscape:label="Layer 1"
     inkscape:groupmode="layer"
     transform="translate(0,32)">
    <g
       transform="translate(-8.0439584,-17.334439)"
       id="g7008">
      <g
         transform="translate(8.0439584,-1041.1853)"
         id="layer1-6"
         inkscape:label="Livello 1">
        <g
           id="g2574"
           style="display:inline"
           transform="translate(-0.14895645,1026.1047)">
          <path
             style="display:inline;opacity:0.15;fill:#000000;fill-opacity:1;fill-rule:nonzero;stroke:none"
             d="m 89.29181,0.415026 -82.2857189,0 c -3.798848,0 -6.8571352,3.058285 -6.8571352,6.8571399 l 0,82.2857181 c 0,3.798857 3.0582872,6.857142 6.8571352,6.857142 l 82.2857189,0 c 3.798857,0 6.857147,-3.058285 6.857147,-6.857142 l 0,-82.2857181 c 0,-3.7988549 -3.05829,-6.8571399 -6.857147,-6.8571399 z"
             id="path3288-0"
             inkscape:connector-curvature="0" />
          <path
             inkscape:connector-curvature="0"
             id="path4085-6"
             d="m 88.648954,1.165026 -81.0000069,0 c -3.739492,0 -6.749993,3.010499 -6.749993,6.7499969 l 0,81.0000031 c 0,3.739501 3.010501,6.75 6.749993,6.75 l 81.0000069,0 c 3.739503,0 6.750003,-3.010499 6.750003,-6.75 l 0,-81.0000031 c 0,-3.7394979 -3.0105,-6.7499969 -6.750003,-6.7499969 z"
             style="display:inline;opacity:0.15;fill:#000000;fill-opacity:1;fill-rule:nonzero;stroke:none" />
          <path
             style="display:inline;fill:url(#linearGradient4071);fill-opacity:1;fill-rule:nonzero;stroke:none"
             d="m 88.006093,1.915026 -79.7142819,0 c -3.680143,0 -6.6428566,2.962713 -6.6428566,6.6428549 l 0,79.7142901 c 0,3.680142 2.9627136,6.642856 6.6428566,6.642856 l 79.7142819,0 c 3.680143,0 6.642854,-2.962714 6.642854,-6.642856 l 0,-79.7142901 c 0,-3.6801419 -2.962711,-6.6428549 -6.642854,-6.6428549 z"
             id="rect4251-1-2"
             inkscape:connector-curvature="0" />
          <path
             style="display:inline;opacity:0.77864583;fill:#f5f3f3;fill-opacity:1;fill-rule:nonzero;stroke:none;stroke-width:1.02950251"
             d="m 11.390247,6.8021682 c -2.8564964,0 -5.1241284,2.2883782 -5.1241284,5.1710028 l 0,21.42734 0,7.239403 0,39.913674 c 1.0972399,1.684484 2.9688485,2.811732 5.1241284,2.811732 l 4.099303,0 65.588849,0 4.099302,0 c 2.155281,0 4.026889,-1.127248 5.124129,-2.811732 l 0,-39.913674 0,-7.239403 0,-21.42734 c 0,-2.8826246 -2.267632,-5.1710028 -5.124129,-5.1710028 z"
             id="path3400-6-6"
             inkscape:connector-curvature="0"
             sodipodi:nodetypes="sscccsccscccsss" />
          <path
             inkscape:connector-curvature="0"
             id="path4989-1"
             d="m 9.9740341,5.1444869 c -3.116621,0 -5.667965,2.53951 -5.667965,5.6460041 l 0,69.277996 c 0,3.106495 2.551344,5.646004 5.667965,5.646004 l 76.7917849,0 c 3.116621,0 5.667968,-2.539509 5.667968,-5.646004 l 0,-69.277996 c 0,-3.1064931 -2.551347,-5.6460041 -5.667968,-5.6460041 z m 0,2.319439 76.7917849,0 c 1.888099,0 3.352022,1.480095 3.352022,3.3265651 l 0,69.277996 c 0,1.846474 -1.463923,3.326564 -3.352022,3.326564 l -76.7917849,0 c -1.888099,0 -3.352022,-1.48009 -3.352022,-3.326564 l 0,-69.277996 c 0,-1.8464701 1.463923,-3.3265651 3.352022,-3.3265651 z"
             style="color:#000000;font-style:normal;font-variant:normal;font-weight:normal;font-stretch:normal;font-size:medium;line-height:normal;font-family:Sans;-inkscape-font-specification:Sans;text-indent:0;text-align:start;text-decoration:none;text-decoration-line:none;letter-spacing:normal;word-spacing:normal;text-transform:none;direction:ltr;writing-mode:lr-tb;baseline-shift:baseline;text-anchor:start;display:inline;overflow:visible;visibility:visible;fill:#1f2224;fill-opacity:0.63265303;stroke:none;stroke-width:2.3755002;marker:none;enable-background:accumulate" />
          <path
             inkscape:connector-curvature="0"
             style="display:inline;opacity:0.65818182;fill:url(#linearGradient4129);fill-opacity:1;fill-rule:nonzero;stroke:none"
             d="m 1.6489535,82.258776 0,6 c 0,3.680142 2.9761066,6.65625 6.6562496,6.65625 l 79.6874999,0 c 3.680143,0 6.656254,-2.976108 6.656254,-6.65625 l 0,-6 c 0,3.680142 -2.976111,6.65625 -6.656254,6.65625 l -79.6874999,0 c -3.680143,0 -6.6562496,-2.976108 -6.6562496,-6.65625 z"
             id="path4118-8" />
          <rect
             style="opacity:0.55;fill:url(#radialGradient7462-2);fill-opacity:1;stroke:none"
             id="rect4131-7"
             width="84.250008"
             height="4.25"
             x="5.5239539"
             y="80.665031"
             rx="0"
             ry="4.25" />
          <rect
             ry="4.25"
             rx="0"
             y="-90.233963"
             x="5.9750223"
             height="4.25"
             width="76.75"
             id="rect4141-9"
             style="opacity:0.669;fill:url(#radialGradient7464-9);fill-opacity:1;stroke:none"
             transform="matrix(0,1,-1,0,0,0)" />
          <g
             id="g5812"
             transform="matrix(1.195134,0,0,1.195134,280.24724,402.33264)">
            <g
               style="display:none"
               id="layer2-8">
              <rect
                 style="opacity:0.9;fill:url(#ButtonShadow-4);fill-opacity:1;fill-rule:nonzero;stroke:none;filter:url(#filter3174-6-3)"
                 id="rect3745-6"
                 y="7"
                 x="5"
                 ry="6"
                 rx="6"
                 height="85"
                 width="86" />
            </g>
            <g
               style="display:none"
               id="layer5-6">
              <rect
                 style="opacity:0.3;fill:url(#linearGradient3613-5);fill-opacity:1;fill-rule:nonzero;stroke:#ffffff;stroke-width:0.5;stroke-linecap:round;stroke-linejoin:miter;stroke-miterlimit:4;stroke-dasharray:none;stroke-dashoffset:0;stroke-opacity:1;filter:url(#filter3794-74-9)"
                 id="rect3171-3"
                 clip-path="url(#clipPath3613-9-2)"
                 y="15"
                 x="15"
                 ry="12"
                 rx="12"
                 height="66"
                 width="66" />
            </g>
            <g
               style="display:inline"
               id="layer4-36">
              <path
                 style="fill:url(#linearGradient3960);fill-opacity:1;fill-rule:nonzero;stroke:none"
                 id="Symbol"
                 inkscape:connector-curvature="0"
                 d="m -210.70273,-315.63215 c -4.155,0 -7.5,3.345 -7.5,7.5 l 0,17 c 0,4.155 3.345,7.5 7.5,7.5 l 5.5,0 c 0.0318,0 0.0624,0.002 0.0937,0 1.06366,-0.0491 1.90625,-0.92377 1.90625,-2 l 0,-2 c 0,-1.108 -0.892,-2 -2,-2 l -4,0 c -1.662,0 -3,-1.338 -3,-3 l 0,-14 c 0,-1.662 1.338,-3 3,-3 l 30,0 c 1.662,0 3,1.338 3,3 l 0,14 c 0,1.662 -1.338,3 -3,3 -1.04842,-0.0489 -1.88447,0 -3,0 l 0,-6 -15,9 15,9 0,-6 4.5,0 c 4.155,0 7.5,-3.345 7.5,-7.5 l 0,-17 c 0,-4.155 -3.345,-7.5 -7.5,-7.5 l -33,0 z" />
              <path
                 style="opacity:0.2;fill:#000000;fill-opacity:1;fill-rule:nonzero;stroke:none"
                 id="path3985-8"
                 inkscape:connector-curvature="0"
                 d="m -210.70273,-315.63215 c -4.155,0 -7.5,3.345 -7.5,7.5 l 0,17 c 0,4.155 3.345,7.5 7.5,7.5 l 5.5,0 c 0.0318,0 0.0624,0.002 0.0937,0 1.06366,-0.0491 1.90625,-0.92377 1.90625,-2 l 0,-2 c 0,-1.108 -0.892,-2 -2,-2 l -4,0 c -1.662,0 -3,-1.338 -3,-3 l 0,-14 c 0,-1.662 1.338,-3 3,-3 l 30,0 c 1.662,0 3,1.338 3,3 l 0,14 c 0,1.662 -1.338,3 -3,3 -1.04842,-0.0489 -1.88447,0 -3,0 l 0,-6 -15,9 15,9 0,-6 4.5,0 c 4.155,0 7.5,-3.345 7.5,-7.5 l 0,-17 c 0,-4.155 -3.345,-7.5 -7.5,-7.5 l -33,0 z m 0,1 33,0 c 3.62322,0 6.5,2.87678 6.5,6.5 l 0,17 c 0,3.62322 -2.87678,6.5 -6.5,6.5 l -4.5,0 a 0.99092879,0.99092879 0 0 0 -1,1 l 0,4.25 -12.09375,-7.25 12.09375,-7.25 0,4.25 a 0.99092879,0.99092879 0 0 0 1,1 c 1.14446,0 1.97549,-0.0463 2.96875,0 a 0.99092879,0.99092879 0 0 0 0.0313,0 c 2.19378,0 4,-1.80622 4,-4 l 0,-14 c 0,-2.19378 -1.80622,-4 -4,-4 l -30,0 c -2.19378,0 -4,1.80622 -4,4 l 0,14 c 0,2.19378 1.80622,4 4,4 l 4,0 c 0.57622,0 1,0.42378 1,1 l 0,2 c 0,0.55907 -0.39116,0.97475 -0.9375,1 a 0.99092879,0.99092879 0 0 0 -0.0313,0 c 0.0307,-10e-4 0.0317,0 -0.0313,0 l -5.5,0 c -3.62322,0 -6.5,-2.87678 -6.5,-6.5 l 0,-17 c 0,-3.62322 2.87678,-6.5 6.5,-6.5 z" />
              <path
                 style="opacity:0.1;fill:#000000;fill-opacity:1;fill-rule:nonzero;stroke:none"
                 id="path3981-0"
                 inkscape:connector-curvature="0"
                 d="m -210.70273,-315.63215 c -4.155,0 -7.5,3.345 -7.5,7.5 l 0,17 c 0,4.155 3.345,7.5 7.5,7.5 l 5.5,0 c 0.0318,0 0.0624,0.002 0.0937,0 1.06366,-0.0491 1.90625,-0.92377 1.90625,-2 l 0,-2 c 0,-1.108 -0.892,-2 -2,-2 l -4,0 c -1.662,0 -3,-1.338 -3,-3 l 0,-14 c 0,-1.662 1.338,-3 3,-3 l 30,0 c 1.662,0 3,1.338 3,3 l 0,14 c 0,1.662 -1.338,3 -3,3 -1.04842,-0.0489 -1.88447,0 -3,0 l 0,-6 -15,9 15,9 0,-6 4.5,0 c 4.155,0 7.5,-3.345 7.5,-7.5 l 0,-17 c 0,-4.155 -3.345,-7.5 -7.5,-7.5 l -33,0 z m 0,1.96875 33,0 c 3.09144,0 5.53125,2.43981 5.53125,5.53125 l 0,17 c 0,3.09144 -2.43981,5.53125 -5.53125,5.53125 l -4.5,0 a 1.9818576,1.9818576 0 0 0 -1.96875,1.96875 l 0,2.5 -9.1875,-5.5 9.1875,-5.5 0,2.5 a 1.9818576,1.9818576 0 0 0 1.96875,1.96875 c 1.1734,0 1.96814,-0.0437 2.90625,0 a 1.9818576,1.9818576 0 0 0 0.0937,0 c 2.72556,0 4.96875,-2.24319 4.96875,-4.96875 l 0,-14 c 0,-2.72556 -2.24319,-4.96875 -4.96875,-4.96875 l -30,0 c -2.72556,0 -4.96875,2.24319 -4.96875,4.96875 l 0,14 c 0,2.72556 2.24319,4.96875 4.96875,4.96875 l 4,0 c 0.0444,0 0.0313,-0.0132 0.0313,0.0313 l 0,2 c 0,0.0419 -0.002,0.0299 -0.0313,0.0313 l -5.5,0 c -3.09144,0 -5.53125,-2.43981 -5.53125,-5.53125 l 0,-17 c 0,-3.09144 2.43981,-5.53125 5.53125,-5.53125 z" />
              <path
                 style="opacity:0.6;fill:#000000;fill-opacity:1;fill-rule:nonzero;stroke:none"
                 id="path3962-4"
                 inkscape:connector-curvature="0"
                 d="m -210.70273,-315.63215 c -4.155,0 -7.5,3.345 -7.5,7.5 l 0,1 c 0,-4.155 3.345,-7.5 7.5,-7.5 l 33,0 c 4.155,0 7.5,3.345 7.5,7.5 l 0,-1 c 0,-4.155 -3.345,-7.5 -7.5,-7.5 l -33,0 z m 28.5,20 -15,9 0.84375,0.5 14.15625,-8.5 0,-1 z m -30,3 0,1 c 0,1.662 1.338,3 3,3 l 4,0 c 1.108,0 2,0.892 2,2 l 0,-1 c 0,-1.108 -0.892,-2 -2,-2 l -4,0 c -1.662,0 -3,-1.338 -3,-3 z m 36,0 c 0,1.662 -1.338,3 -3,3 -1.04842,-0.0489 -1.88447,0 -3,0 l 0,1 c 1.11553,0 1.95158,-0.0489 3,0 1.662,0 3,-1.338 3,-3 l 0,-1 z" />
              <path
                 style="opacity:0.6;fill:#ffffff;fill-opacity:1;fill-rule:nonzero;stroke:none"
                 id="path3972-6"
                 inkscape:connector-curvature="0"
                 d="m -209.20273,-309.63215 c -1.662,0 -3,1.338 -3,3 l 0,1 c 0,-1.662 1.338,-3 3,-3 l 30,0 c 1.662,0 3,1.338 3,3 l 0,-1 c 0,-1.662 -1.338,-3 -3,-3 l -30,0 z m -9,18.5 0,1 c 0,4.155 3.345,7.5 7.5,7.5 l 5.5,0 c 0.0318,0 0.0624,0.002 0.0937,0 1.06366,-0.0491 1.90625,-0.92377 1.90625,-2 l 0,-1 c 0,1.07623 -0.84259,1.95085 -1.90625,2 -0.0314,0.002 -0.062,0 -0.0937,0 l -5.5,0 c -4.155,0 -7.5,-3.345 -7.5,-7.5 z m 48,0 c 0,4.155 -3.345,7.5 -7.5,7.5 l -4.5,0 0,1 4.5,0 c 4.155,0 7.5,-3.345 7.5,-7.5 l 0,-1 z m -26.15625,5 -0.84375,0.5 15,9 0,-1 -14.15625,-8.5 z" />
            </g>
          </g>
          <rect
             transform="matrix(1.0692451,0,0,1.0476829,4.4441802,38.894013)"
             style="opacity:0.5078125;fill:url(#linearGradient4767);fill-opacity:1;stroke:none"
             id="rect4146-2"
             width="75.965775"
             height="69.024437"
             x="2"
             y="-30"
             rx="3.9569874"
             ry="3.9569881"
             clip-path="url(#clipPath4156-4-1)" />
        </g>
      </g>
    </g>
  </g>
</svg>
