<?xml version="1.0" encoding="UTF-8" standalone="no"?>
<!-- Created with Inkscape (http://www.inkscape.org/) -->

<svg
   xmlns:dc="http://purl.org/dc/elements/1.1/"
   xmlns:cc="http://creativecommons.org/ns#"
   xmlns:rdf="http://www.w3.org/1999/02/22-rdf-syntax-ns#"
   xmlns:svg="http://www.w3.org/2000/svg"
   xmlns="http://www.w3.org/2000/svg"
   xmlns:xlink="http://www.w3.org/1999/xlink"
   xmlns:sodipodi="http://sodipodi.sourceforge.net/DTD/sodipodi-0.dtd"
   xmlns:inkscape="http://www.inkscape.org/namespaces/inkscape"
   width="96"
   height="96"
   viewBox="0 0 96.000001 96.000004"
   version="1.1"
   id="svg1072"
   inkscape:version="0.92.1 r15371"
   sodipodi:docname="object-rotate-right.svg">
  <defs
     id="defs1066">
    <linearGradient
       inkscape:collect="always"
       xlink:href="#linearGradient6139-0"
       id="linearGradient4071"
       gradientUnits="userSpaceOnUse"
       gradientTransform="matrix(1.1071428,0,0,1.1071426,-4.9939026,-3.620687)"
       x1="6"
       y1="47.000011"
       x2="90"
       y2="47.000011" />
    <linearGradient
       id="linearGradient6139-0">
      <stop
         id="stop6141-2"
         offset="0"
         style="stop-color:#adb9c1;stop-opacity:1;" />
      <stop
         style="stop-color:#ffffff;stop-opacity:1;"
         offset="0.25"
         id="stop6151-0" />
      <stop
         style="stop-color:#90a2aa;stop-opacity:1;"
         offset="0.5"
         id="stop6147-1" />
      <stop
         id="stop6149-4"
         offset="0.75"
         style="stop-color:#f9fafb;stop-opacity:1;" />
      <stop
         id="stop6143-4"
         offset="1"
         style="stop-color:#adb9c1;stop-opacity:1;" />
    </linearGradient>
    <linearGradient
       gradientTransform="translate(0.1489535,0.415026)"
       inkscape:collect="always"
       xlink:href="#linearGradient3832-0-6-1-1"
       id="linearGradient4129"
       x1="1.5"
       y1="88.171875"
       x2="94.5"
       y2="88.171875"
       gradientUnits="userSpaceOnUse" />
    <linearGradient
       id="linearGradient3832-0-6-1-1">
      <stop
         style="stop-color:#000000;stop-opacity:1;"
         offset="0"
         id="stop3834-6-3-7-1" />
      <stop
         id="stop3872-2-4"
         offset="0.1"
         style="stop-color:#000000;stop-opacity:0.58823532;" />
      <stop
         style="stop-color:#000000;stop-opacity:0.58823532;"
         offset="0.89999998"
         id="stop3844-6-2-7-6" />
      <stop
         style="stop-color:#000000;stop-opacity:1;"
         offset="1"
         id="stop3836-5-0-2-9" />
    </linearGradient>
    <radialGradient
       inkscape:collect="always"
       xlink:href="#linearGradient3737"
       id="radialGradient7462"
       gradientUnits="userSpaceOnUse"
       gradientTransform="matrix(0.97513378,0,0,0.04919072,34.047649,80.581722)"
       cx="13.948145"
       cy="44.892841"
       fx="13.948145"
       fy="44.892841"
       r="43.199203" />
    <linearGradient
       id="linearGradient3737">
      <stop
         offset="0"
         style="stop-color:#ffffff;stop-opacity:1"
         id="stop3739" />
      <stop
         offset="1"
         style="stop-color:#ffffff;stop-opacity:0"
         id="stop3741" />
    </linearGradient>
    <radialGradient
       inkscape:collect="always"
       xlink:href="#linearGradient3737"
       id="radialGradient7464"
       gradientUnits="userSpaceOnUse"
       gradientTransform="matrix(0.88832663,0,0,0.04919072,31.959518,-90.31726)"
       cx="13.948145"
       cy="44.892841"
       fx="13.948145"
       fy="44.892841"
       r="43.199203" />
    <linearGradient
       inkscape:collect="always"
       xlink:href="#linearGradient3737"
       id="linearGradient4767"
       gradientUnits="userSpaceOnUse"
       x1="2.7713892"
       y1="-28.64156"
       x2="50.527882"
       y2="14.514202" />
    <clipPath
       id="clipPath4156-4-1"
       clipPathUnits="userSpaceOnUse">
      <path
         inkscape:connector-curvature="0"
         id="path4158-0-8"
         d="m 27.046336,-55.695463 -14.21366,13.321486 h 0.06127 l 15.653407,21.770763 10.231384,-10.546177 C 38.561832,-32.30156 27.468089,-54.819245 27.046336,-55.695463 Z M 9.6468554,-39.382809 -5.2407289,-25.32124 15.987863,-7.8059573 26.372412,-18.382966 Z m 31.4906096,12.951445 -9.741259,9.713584 8.944804,12.4580526 7.780753,-7.5550056 z m -49.8397109,4.378822 -13.7541661,12.9822847 26.2830181,13.84571 0.06127,-0.0617 -0.122531,-0.0617 L 13.598503,-5.4007374 -8.7022409,-22.052595 Z m 38.0154159,7.400825 -9.802525,9.7752596 11.579232,9.5594001 7.62759,-7.40083 -8.669108,-11.0087257 z m 20.187073,5.6739697 -7.382526,7.2158 6.187844,8.54179 5.820249,-6.13651996 z m -32.195166,6.32154 -9.5574606,9.49772 13.6622686,7.1849703 7.933918,-7.6783603 z m 23.311629,2.37443004 -7.10683,6.93826996 8.362778,6.9074403 5.360756,-5.6739699 -0.06127,-0.0925 -0.0919,0.12335 -6.463539,-8.20258036 z m -8.730374,8.54178036 -7.505057,7.3391599 10.353916,5.45811 c 1.397496,-1.32103 5.67514,-6.12292 5.850882,-6.32154 z"
         style="opacity:0.6;fill:#ffffff;fill-opacity:1;stroke:none" />
    </clipPath>
  </defs>
  <sodipodi:namedview
     id="base"
     pagecolor="#ffffff"
     bordercolor="#666666"
     borderopacity="1.0"
     inkscape:pageopacity="0.0"
     inkscape:pageshadow="2"
     inkscape:zoom="3.5520834"
     inkscape:cx="16.750733"
     inkscape:cy="48"
     inkscape:document-units="px"
     inkscape:current-layer="g2574"
     showgrid="false"
     inkscape:showpageshadow="false"
     units="px"
     inkscape:lockguides="true"
     inkscape:window-width="1280"
     inkscape:window-height="972"
     inkscape:window-x="0"
     inkscape:window-y="26"
     inkscape:window-maximized="1">
    <sodipodi:guide
       position="0,0"
       orientation="0,96"
       id="guide1621"
       inkscape:locked="true" />
    <sodipodi:guide
       position="96.000002,0"
       orientation="-96,0"
       id="guide1623"
       inkscape:locked="true" />
    <sodipodi:guide
       position="96.000002,96.000002"
       orientation="0,-96"
       id="guide1625"
       inkscape:locked="true" />
    <sodipodi:guide
       position="0,96.000002"
       orientation="96,0"
       id="guide1627"
       inkscape:locked="true" />
  </sodipodi:namedview>
  <metadata
     id="metadata1069">
    <rdf:RDF>
      <cc:Work
         rdf:about="">
        <dc:format>image/svg+xml</dc:format>
        <dc:type
           rdf:resource="http://purl.org/dc/dcmitype/StillImage" />
        <dc:title></dc:title>
        <dc:date>2017</dc:date>
        <dc:creator>
          <cc:Agent>
            <dc:title>Cristian Pozzessere &quot;ilnanny&quot;</dc:title>
          </cc:Agent>
        </dc:creator>
        <dc:subject>
          <rdf:Bag>
            <rdf:li>Global language</rdf:li>
          </rdf:Bag>
        </dc:subject>
        <dc:description>Playing with Inkscape on Gnu/Linux O. S.</dc:description>
        <dc:contributor>
          <cc:Agent>
            <dc:title>In the night, alone like a dog.</dc:title>
          </cc:Agent>
        </dc:contributor>
        <cc:license
           rdf:resource="http://creativecommons.org/licenses/by-sa/4.0/" />
      </cc:Work>
      <cc:License
         rdf:about="http://creativecommons.org/licenses/by-sa/4.0/">
        <cc:permits
           rdf:resource="http://creativecommons.org/ns#Reproduction" />
        <cc:permits
           rdf:resource="http://creativecommons.org/ns#Distribution" />
        <cc:requires
           rdf:resource="http://creativecommons.org/ns#Notice" />
        <cc:requires
           rdf:resource="http://creativecommons.org/ns#Attribution" />
        <cc:permits
           rdf:resource="http://creativecommons.org/ns#DerivativeWorks" />
        <cc:requires
           rdf:resource="http://creativecommons.org/ns#ShareAlike" />
      </cc:License>
    </rdf:RDF>
  </metadata>
  <g
     inkscape:label="Livello 1"
     inkscape:groupmode="layer"
     id="layer1"
     transform="translate(0,-1026.5197)">
    <g
       id="layer1-6"
       inkscape:label="Livello 1"
       transform="translate(0,-2.6e-5)">
      <g
         id="g2574"
         style="display:inline"
         transform="translate(-0.14895645,1026.1047)">
        <path
           style="display:inline;opacity:0.15;fill:#000000;fill-opacity:1;fill-rule:nonzero;stroke:none"
           d="M 89.29181,0.415026 H 7.0060911 c -3.798848,0 -6.8571352,3.058285 -6.8571352,6.8571399 V 89.557884 c 0,3.798857 3.0582872,6.857142 6.8571352,6.857142 H 89.29181 c 3.798857,0 6.857147,-3.058285 6.857147,-6.857142 V 7.2721659 c 0,-3.7988549 -3.05829,-6.8571399 -6.857147,-6.8571399 z"
           id="path3288"
           inkscape:connector-curvature="0" />
        <path
           inkscape:connector-curvature="0"
           id="path4085"
           d="M 88.648954,1.165026 H 7.6489471 c -3.739492,0 -6.749993,3.010499 -6.749993,6.7499969 V 88.915026 c 0,3.739501 3.010501,6.75 6.749993,6.75 H 88.648954 c 3.739503,0 6.750003,-3.010499 6.750003,-6.75 V 7.9150229 c 0,-3.7394979 -3.0105,-6.7499969 -6.750003,-6.7499969 z"
           style="display:inline;opacity:0.15;fill:#000000;fill-opacity:1;fill-rule:nonzero;stroke:none" />
        <path
           style="display:inline;fill:url(#linearGradient4071);fill-opacity:1;fill-rule:nonzero;stroke:none"
           d="M 88.006093,1.915026 H 8.2918111 c -3.680143,0 -6.6428566,2.962713 -6.6428566,6.6428549 V 88.272171 c 0,3.680142 2.9627136,6.642856 6.6428566,6.642856 H 88.006093 c 3.680143,0 6.642854,-2.962714 6.642854,-6.642856 V 8.5578809 c 0,-3.6801419 -2.962711,-6.6428549 -6.642854,-6.6428549 z"
           id="rect4251-1"
           inkscape:connector-curvature="0" />
        <path
           style="display:inline;opacity:0.77864583;fill:#f5f3f3;fill-opacity:1;fill-rule:nonzero;stroke:none;stroke-width:1.02950251"
           d="m 11.390247,6.8021682 c -2.8564964,0 -5.1241284,2.2883782 -5.1241284,5.1710028 v 21.42734 7.239403 39.913674 c 1.0972399,1.684484 2.9688485,2.811732 5.1241284,2.811732 h 4.099303 65.588849 4.099302 c 2.155281,0 4.026889,-1.127248 5.124129,-2.811732 V 40.639914 33.400511 11.973171 c 0,-2.8826246 -2.267632,-5.1710028 -5.124129,-5.1710028 z"
           id="path3400-6"
           inkscape:connector-curvature="0"
           sodipodi:nodetypes="sscccsccscccsss" />
        <path
           inkscape:connector-curvature="0"
           id="path4989"
           d="m 9.9740341,5.1444869 c -3.116621,0 -5.667965,2.53951 -5.667965,5.6460041 v 69.277996 c 0,3.106495 2.551344,5.646004 5.667965,5.646004 H 86.765819 c 3.116621,0 5.667968,-2.539509 5.667968,-5.646004 V 10.790491 c 0,-3.1064931 -2.551347,-5.6460041 -5.667968,-5.6460041 z m 0,2.319439 H 86.765819 c 1.888099,0 3.352022,1.480095 3.352022,3.3265651 v 69.277996 c 0,1.846474 -1.463923,3.326564 -3.352022,3.326564 H 9.9740341 c -1.888099,0 -3.352022,-1.48009 -3.352022,-3.326564 V 10.790491 c 0,-1.8464701 1.463923,-3.3265651 3.352022,-3.3265651 z"
           style="color:#000000;font-style:normal;font-variant:normal;font-weight:normal;font-stretch:normal;font-size:medium;line-height:normal;font-family:Sans;-inkscape-font-specification:Sans;text-indent:0;text-align:start;text-decoration:none;text-decoration-line:none;letter-spacing:normal;word-spacing:normal;text-transform:none;writing-mode:lr-tb;direction:ltr;baseline-shift:baseline;text-anchor:start;display:inline;overflow:visible;visibility:visible;fill:#1f2224;fill-opacity:0.63265303;stroke:none;stroke-width:2.3755002;marker:none;enable-background:accumulate" />
        <path
           inkscape:connector-curvature="0"
           style="display:inline;opacity:0.65818182;fill:url(#linearGradient4129);fill-opacity:1;fill-rule:nonzero;stroke:none"
           d="m 1.6489535,82.258776 v 6 c 0,3.680142 2.9761066,6.65625 6.6562496,6.65625 H 87.992703 c 3.680143,0 6.656254,-2.976108 6.656254,-6.65625 v -6 c 0,3.680142 -2.976111,6.65625 -6.656254,6.65625 H 8.3052031 c -3.680143,0 -6.6562496,-2.976108 -6.6562496,-6.65625 z"
           id="path4118" />
        <g
           id="layer6"
           style="display:inline"
           transform="matrix(1.2165357,0,0,1.2165357,-8.3321583,-9.546322)">
          <path
             d="m 45.180326,17.125 c 1.523255,0.386246 2.659981,1.671174 4.017027,2.437875 4.083206,2.807694 8.204865,5.570086 12.264223,8.405875 1.025667,0.948937 0.524437,2.682998 -0.710711,3.192095 -4.87607,3.45871 -9.765001,6.902175 -14.633039,10.370405 4.842215,-1.733144 10.233365,2.864337 9.771024,7.871768 -0.08789,4.779023 -5.201442,8.543964 -9.791447,7.193354 -4.825735,-1.075845 -7.49303,-7.190993 -4.877372,-11.43368 0.206818,-1.529221 3.613376,-2.928301 3.241545,-3.412692 -1.553881,-0.467727 -1.248344,-2.294074 -1.25,-3.558406 -0.05891,-1.192848 0.478896,-3.341059 -1.400055,-1.801937 -5.327524,2.350423 -8.941699,8.239423 -8.05781,14.083074 0.542873,6.983 6.864896,12.857517 13.8676,12.896091 4.971264,0.246361 9.614284,-2.51632 12.459306,-6.477122 0.549407,-1.248 2.117354,-2.149118 3.328533,-1.208121 2.214601,1.370789 4.595302,2.54607 6.708676,4.035171 1.14043,1.097052 0.143932,2.726674 -0.628257,3.720486 C 65.702388,69.625866 59.043688,73.930785 51.799388,74.626875 43.010074,75.88074 33.707394,72.364887 28.115732,65.435554 21.311386,57.407664 20.250147,45.100889 25.709021,36.073842 29.411115,29.695709 35.96378,25.075291 43.211576,23.71875 c 0.08886,-1.794785 -0.175079,-3.64371 0.125,-5.40625 0.267869,-0.757269 1.064624,-1.214027 1.84375,-1.1875 z"
             inkscape:connector-curvature="0"
             id="path3896"
             style="display:inline;opacity:0.15;fill:#000000;fill-opacity:1;stroke:none" />
          <path
             d="m 50.875,18 a 1.0094804,1.0094804 0 0 0 -0.4375,0.15625 L 35.34375,28.46875 A 1.0094804,1.0094804 0 0 0 35.3125,30.125 L 50.40625,40.8125 A 1.0094804,1.0094804 0 0 0 52,40 v -5.5 c 5.981612,1.62628 10.576602,6.583135 11.21875,12.90625 0.04145,0.408083 0,0.965819 0,1.59375 0,8.429025 -6.762694,15.201688 -15.1875,15.21875 -0.01114,-2.25e-4 -0.02013,2.43e-4 -0.03125,0 -6.0703,-0.132758 -9.911013,-3.004051 -13.34375,-7.65625 a 1.0094804,1.0094804 0 0 0 -1.3125,-0.28125 l -6.5625,3.84375 a 1.0094804,1.0094804 0 0 0 -0.375,1.375 C 30.977453,69.529099 37.886769,74 48,74 61.800343,74 73,62.800343 73,49 73,36.572131 63.892997,26.305361 52,24.375 V 19 A 1.0094804,1.0094804 0 0 0 50.875,18 Z M 48,42 c -3.859217,0 -7,3.140783 -7,7 0,3.859217 3.140783,7 7,7 3.859217,0 7,-3.140783 7,-7 0,-3.859217 -3.140783,-7 -7,-7 z"
             transform="matrix(-1,0,0,1,96.055326,0)"
             id="path3892"
             style="display:inline;opacity:0.15;fill:#000000;fill-opacity:1;stroke:none"
             inkscape:connector-curvature="0" />
          <path
             d="M 45.042576,19 60.136326,29.3125 45.042576,40 v -6.9375 c -7.02909,1.291326 -12.486891,7.043517 -13.21875,14.25 -0.05553,0.546717 0,1.126134 0,1.6875 0,8.981865 7.236885,16.21875 16.21875,16.21875 6.409584,-0.12942 10.615178,-3.263481 14.15625,-8.0625 L 68.761326,61 c -4.440272,7.799124 -10.893224,12 -20.71875,12 -13.254834,0 -24,-10.745166 -24,-24 0,-12.234864 9.166671,-22.331067 21,-23.8125 z m 3,24 c 3.313707,0 6,2.686293 6,6 0,3.313707 -2.686293,6 -6,6 -3.313707,0 -6,-2.686293 -6,-6 0,-3.313707 2.686293,-6 6,-6 z"
             inkscape:connector-curvature="0"
             id="path3886"
             style="display:inline;opacity:0.3;fill:#000000;fill-opacity:1;stroke:none" />
          <path
             d="M 45.042576,18 60.136326,28.3125 45.042576,39 v -6.9375 c -7.02909,1.291326 -12.486891,7.043517 -13.21875,14.25 -0.05553,0.546717 0,1.126134 0,1.6875 0,8.981865 7.236885,16.21875 16.21875,16.21875 6.409584,-0.12942 10.615178,-3.263481 14.15625,-8.0625 L 68.761326,60 c -4.440272,7.799124 -10.893224,12 -20.71875,12 -13.254834,0 -24,-10.745166 -24,-24 0,-12.234864 9.166671,-22.331067 21,-23.8125 z m 3,24 c 3.313707,0 6,2.686293 6,6 0,3.313707 -2.686293,6 -6,6 -3.313707,0 -6,-2.686293 -6,-6 0,-3.313707 2.686293,-6 6,-6 z"
             inkscape:connector-curvature="0"
             id="path2856"
             style="display:inline;fill:#211c1b;fill-opacity:1;stroke:none" />
          <path
             d="m 45.055326,18 15.09375,10.3125 -0.71875,0.5 L 45.055326,19 Z m 0,6.1875 v 1 c -11.463537,1.435138 -20.451136,10.970591 -21,22.6875 0.06336,-12.177504 9.207759,-22.211211 21,-23.6875 z m 3,17.8125 c 3.313707,0 6,2.686293 6,6 0,0.124471 -0.02378,0.252409 -0.03125,0.375 C 53.716816,45.349465 51.161926,43 48.055326,43 c -3.1066,0 -5.66149,2.349465 -5.96875,5.375 -0.0075,-0.122591 -0.03125,-0.250529 -0.03125,-0.375 0,-3.313707 2.686293,-6 6,-6 z m -16.21875,5.65625 c 0.0032,0.115262 0,0.229554 0,0.34375 0,8.981865 7.236885,16.21875 16.21875,16.21875 6.409584,-0.12942 10.615178,-3.263481 14.15625,-8.0625 L 68.774076,60 c -0.143748,0.252486 -0.320737,0.473827 -0.46875,0.71875 l -6.09375,-3.5625 c -3.541072,4.799019 -7.746666,7.93308 -14.15625,8.0625 -8.981865,0 -16.21875,-7.236885 -16.21875,-16.21875 0,-0.44717 -0.01373,-0.899324 0,-1.34375 z"
             inkscape:connector-curvature="0"
             id="path3868"
             style="display:inline;opacity:0.75;fill:#ffffff;fill-opacity:1;stroke:none" />
          <path
             d="m 59.430326,27.8125 0.71875,0.5 L 45.055326,39 v -1 z m -14.375,3.25 v 1 c -7.02909,1.291326 -12.486891,7.043517 -13.21875,14.25 -0.0113,0.111216 0.0035,0.230255 0,0.34375 -0.01251,-0.451347 -0.04423,-0.908249 0,-1.34375 0.731859,-7.206483 6.18966,-12.958674 13.21875,-14.25 z m -21,15.9375 c 0,13.254834 10.745166,24 24,24 9.507438,0 15.826,-3.960657 20.25,-11.28125 L 68.774076,60 c -4.440272,7.799124 -10.893224,12 -20.71875,12 -13.254834,0 -24,-10.745166 -24,-24 0,-0.339857 -0.01401,-0.663582 0,-1 z m 29.96875,0.625 c 0.0075,0.122591 0.03125,0.250529 0.03125,0.375 0,3.313707 -2.686293,6 -6,6 -3.313707,0 -6,-2.686293 -6,-6 0,-0.124471 0.02378,-0.252409 0.03125,-0.375 0.30726,3.025535 2.86215,5.375 5.96875,5.375 3.1066,0 5.66149,-2.349465 5.96875,-5.375 z"
             inkscape:connector-curvature="0"
             id="path3877"
             style="display:inline;opacity:0.15;fill:#000000;fill-opacity:1;stroke:none" />
        </g>
        <rect
           style="opacity:0.55;fill:url(#radialGradient7462);fill-opacity:1;stroke:none"
           id="rect4131"
           width="84.250008"
           height="4.25"
           x="5.5239539"
           y="80.665031"
           rx="0"
           ry="4.25" />
        <rect
           ry="4.25"
           rx="0"
           y="-90.233963"
           x="5.9750223"
           height="4.25"
           width="76.75"
           id="rect4141"
           style="opacity:0.669;fill:url(#radialGradient7464);fill-opacity:1;stroke:none"
           transform="rotate(90)" />
        <rect
           transform="matrix(1.0692451,0,0,1.0476829,4.4441802,38.894013)"
           style="opacity:0.698;fill:url(#linearGradient4767);fill-opacity:1;stroke:none"
           id="rect4146"
           width="75.965775"
           height="69.024437"
           x="2"
           y="-30"
           rx="3.9569874"
           ry="3.9569881"
           clip-path="url(#clipPath4156-4-1)" />
      </g>
    </g>
  </g>
</svg>
