<?xml version="1.0" encoding="UTF-8" standalone="no"?>
<svg
   xmlns:dc="http://purl.org/dc/elements/1.1/"
   xmlns:cc="http://creativecommons.org/ns#"
   xmlns:rdf="http://www.w3.org/1999/02/22-rdf-syntax-ns#"
   xmlns:svg="http://www.w3.org/2000/svg"
   xmlns="http://www.w3.org/2000/svg"
   xmlns:xlink="http://www.w3.org/1999/xlink"
   xmlns:sodipodi="http://sodipodi.sourceforge.net/DTD/sodipodi-0.dtd"
   xmlns:inkscape="http://www.inkscape.org/namespaces/inkscape"
   viewBox="0 0 96 96"
   version="1.1"
   id="svg78"
   sodipodi:docname="pixelart-trace.svg"
   inkscape:version="0.92.1 r15371">
  <metadata
     id="metadata84">
    <rdf:RDF>
      <cc:Work
         rdf:about="">
        <dc:format>image/svg+xml</dc:format>
        <dc:type
           rdf:resource="http://purl.org/dc/dcmitype/StillImage" />
      </cc:Work>
    </rdf:RDF>
  </metadata>
  <defs
     id="defs82">
    <linearGradient
       inkscape:collect="always"
       xlink:href="#linearGradient6139-0"
       id="linearGradient4071"
       gradientUnits="userSpaceOnUse"
       gradientTransform="matrix(1.1071428,0,0,1.1071426,-4.9939026,-3.620687)"
       x1="6"
       y1="47.000011"
       x2="90"
       y2="47.000011" />
    <linearGradient
       id="linearGradient6139-0">
      <stop
         id="stop6141-2"
         offset="0"
         style="stop-color:#bcb2b2;stop-opacity:1" />
      <stop
         style="stop-color:#ffffff;stop-opacity:1;"
         offset="0.25"
         id="stop6151-0" />
      <stop
         style="stop-color:#a49696;stop-opacity:1"
         offset="0.5"
         id="stop6147-1" />
      <stop
         id="stop6149-4"
         offset="0.75"
         style="stop-color:#fbf9f9;stop-opacity:1;" />
      <stop
         id="stop6143-4"
         offset="1"
         style="stop-color:#bcb2b2;stop-opacity:1" />
    </linearGradient>
    <linearGradient
       gradientTransform="translate(0.1489535,0.415026)"
       inkscape:collect="always"
       xlink:href="#linearGradient3832-0-6-1-1"
       id="linearGradient4129"
       x1="1.5"
       y1="88.171875"
       x2="94.5"
       y2="88.171875"
       gradientUnits="userSpaceOnUse" />
    <linearGradient
       id="linearGradient3832-0-6-1-1">
      <stop
         style="stop-color:#000000;stop-opacity:1;"
         offset="0"
         id="stop3834-6-3-7-1" />
      <stop
         id="stop3872-2-4"
         offset="0.1"
         style="stop-color:#000000;stop-opacity:0.58823532;" />
      <stop
         style="stop-color:#000000;stop-opacity:0.58823532;"
         offset="0.89999998"
         id="stop3844-6-2-7-6" />
      <stop
         style="stop-color:#000000;stop-opacity:1;"
         offset="1"
         id="stop3836-5-0-2-9" />
    </linearGradient>
    <radialGradient
       inkscape:collect="always"
       xlink:href="#linearGradient3737"
       id="radialGradient7462"
       gradientUnits="userSpaceOnUse"
       gradientTransform="matrix(0.97513378,0,0,0.04919072,34.047649,80.581722)"
       cx="13.948145"
       cy="44.892841"
       fx="13.948145"
       fy="44.892841"
       r="43.199203" />
    <linearGradient
       id="linearGradient3737">
      <stop
         offset="0"
         style="stop-color:#ffffff;stop-opacity:1"
         id="stop3739" />
      <stop
         offset="1"
         style="stop-color:#ffffff;stop-opacity:0"
         id="stop3741" />
    </linearGradient>
    <radialGradient
       inkscape:collect="always"
       xlink:href="#linearGradient3737"
       id="radialGradient7464"
       gradientUnits="userSpaceOnUse"
       gradientTransform="matrix(0.88832663,0,0,0.04919072,31.959518,-90.31726)"
       cx="13.948145"
       cy="44.892841"
       fx="13.948145"
       fy="44.892841"
       r="43.199203" />
    <linearGradient
       inkscape:collect="always"
       xlink:href="#linearGradient3737"
       id="linearGradient4767"
       gradientUnits="userSpaceOnUse"
       x1="2.7713892"
       y1="-28.64156"
       x2="50.527882"
       y2="14.514202" />
    <clipPath
       id="clipPath4156-4-1"
       clipPathUnits="userSpaceOnUse">
      <path
         inkscape:connector-curvature="0"
         id="path4158-0-8"
         d="m 27.046336,-55.695463 -14.21366,13.321486 h 0.06127 l 15.653407,21.770763 10.231384,-10.546177 C 38.561832,-32.30156 27.468089,-54.819245 27.046336,-55.695463 Z M 9.6468554,-39.382809 -5.2407289,-25.32124 15.987863,-7.8059573 26.372412,-18.382966 Z m 31.4906096,12.951445 -9.741259,9.713584 8.944804,12.4580526 7.780753,-7.5550056 z m -49.8397109,4.378822 -13.7541661,12.9822847 26.2830181,13.84571 0.06127,-0.0617 -0.122531,-0.0617 L 13.598503,-5.4007374 -8.7022409,-22.052595 Z m 38.0154159,7.400825 -9.802525,9.7752596 11.579232,9.5594001 7.62759,-7.40083 -8.669108,-11.0087257 z m 20.187073,5.6739697 -7.382526,7.2158 6.187844,8.54179 5.820249,-6.13651996 z m -32.195166,6.32154 -9.5574606,9.49772 13.6622686,7.1849703 7.933918,-7.6783603 z m 23.311629,2.37443004 -7.10683,6.93826996 8.362778,6.9074403 5.360756,-5.6739699 -0.06127,-0.0925 -0.0919,0.12335 -6.463539,-8.20258036 z m -8.730374,8.54178036 -7.505057,7.3391599 10.353916,5.45811 c 1.397496,-1.32103 5.67514,-6.12292 5.850882,-6.32154 z"
         style="opacity:0.6;fill:#ffffff;fill-opacity:1;stroke:none" />
    </clipPath>
  </defs>
  <sodipodi:namedview
     pagecolor="#ffffff"
     bordercolor="#666666"
     borderopacity="1"
     objecttolerance="10"
     gridtolerance="10"
     guidetolerance="10"
     inkscape:pageopacity="0"
     inkscape:pageshadow="2"
     inkscape:window-width="1280"
     inkscape:window-height="972"
     id="namedview80"
     showgrid="false"
     inkscape:zoom="3.4186198"
     inkscape:cx="48"
     inkscape:cy="46.829937"
     inkscape:window-x="0"
     inkscape:window-y="26"
     inkscape:window-maximized="1"
     inkscape:current-layer="g2574" />
  <g
     transform="translate(0,-1026.5197)"
     id="layer1"
     inkscape:label="Livello 1">
    <g
       id="g2574"
       style="display:inline"
       transform="translate(-0.14895645,1026.1047)">
      <path
         style="display:inline;opacity:0.15;fill:#000000;fill-opacity:1;fill-rule:nonzero;stroke:none"
         d="M 89.29181,0.415026 H 7.0060911 c -3.798848,0 -6.8571352,3.058285 -6.8571352,6.8571399 V 89.557884 c 0,3.798857 3.0582872,6.857142 6.8571352,6.857142 H 89.29181 c 3.798857,0 6.857147,-3.058285 6.857147,-6.857142 V 7.2721659 c 0,-3.7988549 -3.05829,-6.8571399 -6.857147,-6.8571399 z"
         id="path3288"
         inkscape:connector-curvature="0" />
      <path
         inkscape:connector-curvature="0"
         id="path4085"
         d="M 88.648954,1.165026 H 7.6489471 c -3.739492,0 -6.749993,3.010499 -6.749993,6.7499969 V 88.915026 c 0,3.739501 3.010501,6.75 6.749993,6.75 H 88.648954 c 3.739503,0 6.750003,-3.010499 6.750003,-6.75 V 7.9150229 c 0,-3.7394979 -3.0105,-6.7499969 -6.750003,-6.7499969 z"
         style="display:inline;opacity:0.15;fill:#000000;fill-opacity:1;fill-rule:nonzero;stroke:none" />
      <path
         style="display:inline;fill:url(#linearGradient4071);fill-opacity:1;fill-rule:nonzero;stroke:none"
         d="M 88.006093,1.915026 H 8.2918111 c -3.680143,0 -6.6428566,2.962713 -6.6428566,6.6428549 V 88.272171 c 0,3.680142 2.9627136,6.642856 6.6428566,6.642856 H 88.006093 c 3.680143,0 6.642854,-2.962714 6.642854,-6.642856 V 8.5578809 c 0,-3.6801419 -2.962711,-6.6428549 -6.642854,-6.6428549 z"
         id="rect4251-1"
         inkscape:connector-curvature="0" />
      <path
         style="display:inline;opacity:0.77864583;fill:#f5f3f3;fill-opacity:1;fill-rule:nonzero;stroke:none;stroke-width:1.02950251"
         d="m 11.390247,6.8021682 c -2.8564964,0 -5.1241284,2.2883782 -5.1241284,5.1710028 v 21.42734 7.239403 39.913674 c 1.0972399,1.684484 2.9688485,2.811732 5.1241284,2.811732 h 4.099303 65.588849 4.099302 c 2.155281,0 4.026889,-1.127248 5.124129,-2.811732 V 40.639914 33.400511 11.973171 c 0,-2.8826246 -2.267632,-5.1710028 -5.124129,-5.1710028 z"
         id="path3400-6"
         inkscape:connector-curvature="0"
         sodipodi:nodetypes="sscccsccscccsss" />
      <path
         inkscape:connector-curvature="0"
         id="path4989"
         d="m 9.9740341,5.1444869 c -3.116621,0 -5.667965,2.53951 -5.667965,5.6460041 v 69.277996 c 0,3.106495 2.551344,5.646004 5.667965,5.646004 H 86.765819 c 3.116621,0 5.667968,-2.539509 5.667968,-5.646004 V 10.790491 c 0,-3.1064931 -2.551347,-5.6460041 -5.667968,-5.6460041 z m 0,2.319439 H 86.765819 c 1.888099,0 3.352022,1.480095 3.352022,3.3265651 v 69.277996 c 0,1.846474 -1.463923,3.326564 -3.352022,3.326564 H 9.9740341 c -1.888099,0 -3.352022,-1.48009 -3.352022,-3.326564 V 10.790491 c 0,-1.8464701 1.463923,-3.3265651 3.352022,-3.3265651 z"
         style="color:#000000;font-style:normal;font-variant:normal;font-weight:normal;font-stretch:normal;font-size:medium;line-height:normal;font-family:Sans;-inkscape-font-specification:Sans;text-indent:0;text-align:start;text-decoration:none;text-decoration-line:none;letter-spacing:normal;word-spacing:normal;text-transform:none;writing-mode:lr-tb;direction:ltr;baseline-shift:baseline;text-anchor:start;display:inline;overflow:visible;visibility:visible;fill:#241f1f;fill-opacity:0.63265303;stroke:none;stroke-width:2.3755002;marker:none;enable-background:accumulate" />
      <path
         inkscape:connector-curvature="0"
         style="display:inline;opacity:0.65818182;fill:url(#linearGradient4129);fill-opacity:1;fill-rule:nonzero;stroke:none"
         d="m 1.6489535,82.258776 v 6 c 0,3.680142 2.9761066,6.65625 6.6562496,6.65625 H 87.992703 c 3.680143,0 6.656254,-2.976108 6.656254,-6.65625 v -6 c 0,3.680142 -2.976111,6.65625 -6.656254,6.65625 H 8.3052031 c -3.680143,0 -6.6562496,-2.976108 -6.6562496,-6.65625 z"
         id="path4118" />
      <rect
         style="opacity:0.55;fill:url(#radialGradient7462);fill-opacity:1;stroke:none"
         id="rect4131"
         width="84.250008"
         height="4.25"
         x="5.5239539"
         y="80.665031"
         rx="0"
         ry="4.25" />
      <rect
         ry="4.25"
         rx="0"
         y="-90.233963"
         x="5.9750223"
         height="4.25"
         width="76.75"
         id="rect4141"
         style="opacity:0.669;fill:url(#radialGradient7464);fill-opacity:1;stroke:none"
         transform="rotate(90)" />
      <g
         transform="matrix(5.2902304,0,0,5.2902304,-2225.1159,-2810.1984)"
         id="g76"
         style="color:#000000">
        <path
           d="m 425.71,535.79 h 2 v 2 h -2 z"
           id="path2"
           inkscape:connector-curvature="0"
           style="fill:#f47750" />
        <path
           d="m 423.71,539.79 h 2 v 2 h -2 z"
           id="path4"
           inkscape:connector-curvature="0"
           style="fill:#2ecc71" />
        <path
           d="m 431.71,535.79 h 2 v 2 h -2 z"
           id="path6"
           inkscape:connector-curvature="0"
           style="fill:#fdbc4b" />
        <path
           d="m 423.71,535.79 h 2 v 2 h -2 z"
           id="path8"
           inkscape:connector-curvature="0"
           style="fill:#1d99f3" />
        <path
           d="m 429.71,535.79 h 2 v 2 h -2 z"
           id="path10"
           inkscape:connector-curvature="0"
           style="fill:#da4453" />
        <path
           d="m 427.71,535.79 h 2 v 2 h -2 z"
           id="path12"
           inkscape:connector-curvature="0"
           style="fill:#2ecc71" />
        <path
           d="m 427.71,537.79 h 2 v 2 h -2 z"
           id="path14"
           inkscape:connector-curvature="0"
           style="fill:#fdbc4b" />
        <path
           d="m 425.71,537.79 h 2 v 2 h -2 z"
           id="path16"
           inkscape:connector-curvature="0"
           style="fill:#1d99f3" />
        <path
           d="m 423.71,537.79 h 2 v 2 h -2 z"
           id="path18"
           inkscape:connector-curvature="0"
           style="fill:#da4453" />
        <path
           d="m 431.71,537.79 h 2 v 2 h -2 z"
           id="path20"
           inkscape:connector-curvature="0"
           style="fill:#2ecc71" />
        <path
           d="m 429.71,537.79 h 2 v 2 h -2 z"
           id="path22"
           inkscape:connector-curvature="0"
           style="fill:#f47750" />
        <path
           d="m 431.71,539.79 h 2 v 2 h -2 z"
           id="path24"
           inkscape:connector-curvature="0"
           style="fill:#fdbc4b" />
        <path
           d="m 429.71,539.79 h 2 v 2 h -2 z"
           id="path26"
           inkscape:connector-curvature="0"
           style="fill:#1d99f3" />
        <path
           d="m 427.71,539.79 h 2 v 2 h -2 z"
           id="path28"
           inkscape:connector-curvature="0"
           style="fill:#da4453" />
        <path
           d="m 425.71,539.79 h 2 v 2 h -2 z"
           id="path30"
           inkscape:connector-curvature="0"
           style="fill:#f47750" />
        <path
           d="m 429.71,541.79 h 2 v 2 h -2 z"
           id="path32"
           inkscape:connector-curvature="0"
           style="fill:#fdbc4b" />
        <path
           d="m 427.71,541.79 h 2 v 2 h -2 z"
           id="path34"
           inkscape:connector-curvature="0"
           style="fill:#1d99f3" />
        <path
           d="m 425.71,541.79 h 2 v 2 h -2 z"
           id="path36"
           inkscape:connector-curvature="0"
           style="fill:#da4453" />
        <path
           d="m 431.71,541.79 h 2 v 2 h -2 z"
           id="path38"
           inkscape:connector-curvature="0"
           style="fill:#2ecc71" />
        <path
           d="m 425.71,543.79 h 2 v 2 h -2 z"
           id="path40"
           inkscape:connector-curvature="0"
           style="fill:#fdbc4b" />
        <path
           d="m 423.71,543.79 h 2 v 2 h -2 z"
           id="path42"
           inkscape:connector-curvature="0"
           style="fill:#1d99f3" />
        <path
           d="m 433.71,537.79 h 2 v 2 h -2 z"
           id="path44"
           inkscape:connector-curvature="0"
           style="fill:#da4453" />
        <path
           d="m 433.71,539.79 h 2 v 2 h -2 z"
           id="path46"
           inkscape:connector-curvature="0"
           style="fill:#1d99f3" />
        <path
           d="m 423.71,541.79 h 2 v 2 h -2 z"
           id="path48"
           inkscape:connector-curvature="0"
           style="fill:#f47750" />
        <path
           d="m 433.71,535.79 h 2 v 2 h -2 z"
           id="path50"
           inkscape:connector-curvature="0"
           style="fill:#2ecc71" />
        <path
           d="m 423.71,533.79 h 2 v 2 h -2 z"
           id="path52"
           inkscape:connector-curvature="0"
           style="fill:#fdbc4b" />
        <path
           d="m 427.71,533.79 h 2 v 2 h -2 z"
           id="path54"
           inkscape:connector-curvature="0"
           style="fill:#1d99f3" />
        <path
           d="m 425.71,533.79 h 2 v 2 h -2 z"
           id="path56"
           inkscape:connector-curvature="0"
           style="fill:#da4453" />
        <path
           d="m 431.71,533.79 h 2 v 2 h -2 z"
           id="path58"
           inkscape:connector-curvature="0"
           style="fill:#2ecc71" />
        <path
           d="m 433.71,533.79 h 2 v 2 h -2 z"
           id="path60"
           inkscape:connector-curvature="0"
           style="fill:#f47750" />
        <path
           d="m 429.71,533.79 h 2 v 2 h -2 z"
           id="path62"
           inkscape:connector-curvature="0"
           style="fill:#fdbc4b" />
        <path
           d="m 433.71,541.79 h 2 v 2 h -2 z"
           id="path64"
           inkscape:connector-curvature="0"
           style="fill:#da4453" />
        <path
           d="m 431.71,543.79 h 2 v 2 h -2 z"
           id="path66"
           inkscape:connector-curvature="0"
           style="fill:#fdbc4b" />
        <path
           d="m 429.71,543.79 h 2 v 2 h -2 z"
           id="path68"
           inkscape:connector-curvature="0"
           style="fill:#da4453" />
        <g
           id="g74"
           style="fill:#2ecc71">
          <path
             d="m 427.71,543.79 h 2 v 2 h -2 z"
             id="path70"
             inkscape:connector-curvature="0" />
          <path
             d="m 433.71,543.79 h 2 v 2 h -2 z"
             id="path72"
             inkscape:connector-curvature="0" />
        </g>
      </g>
      <rect
         transform="matrix(1.0692451,0,0,1.0476829,4.4441802,38.894013)"
         style="opacity:0.5078125;fill:url(#linearGradient4767);fill-opacity:1;stroke:none"
         id="rect4146"
         width="75.965775"
         height="69.024437"
         x="2"
         y="-30"
         rx="3.9569874"
         ry="3.9569881"
         clip-path="url(#clipPath4156-4-1)" />
    </g>
  </g>
</svg>
