<?xml version="1.0" encoding="UTF-8" standalone="no"?>
<!-- Created with Inkscape (http://www.inkscape.org/) -->

<svg
   xmlns:dc="http://purl.org/dc/elements/1.1/"
   xmlns:cc="http://creativecommons.org/ns#"
   xmlns:rdf="http://www.w3.org/1999/02/22-rdf-syntax-ns#"
   xmlns:svg="http://www.w3.org/2000/svg"
   xmlns="http://www.w3.org/2000/svg"
   xmlns:xlink="http://www.w3.org/1999/xlink"
   xmlns:sodipodi="http://sodipodi.sourceforge.net/DTD/sodipodi-0.dtd"
   xmlns:inkscape="http://www.inkscape.org/namespaces/inkscape"
   width="96px"
   height="96px"
   id="svg20820"
   version="1.1"
   inkscape:version="0.92.2 5c3e80d, 2017-08-06"
   sodipodi:docname="run-build-install-root.svg">
  <defs
     id="defs20822">
    <linearGradient
       id="linearGradient6139-0">
      <stop
         id="stop6141-2"
         offset="0"
         style="stop-color:#adb9c1;stop-opacity:1;" />
      <stop
         style="stop-color:#ffffff;stop-opacity:1;"
         offset="0.25"
         id="stop6151-0" />
      <stop
         style="stop-color:#90a2aa;stop-opacity:1;"
         offset="0.5"
         id="stop6147-1" />
      <stop
         id="stop6149-4"
         offset="0.75"
         style="stop-color:#f9fafb;stop-opacity:1;" />
      <stop
         id="stop6143-4"
         offset="1"
         style="stop-color:#adb9c1;stop-opacity:1;" />
    </linearGradient>
    <linearGradient
       id="linearGradient4091-0-3-0-7">
      <stop
         style="stop-color:#ffffff;stop-opacity:1;"
         offset="0"
         id="stop4093-3-6-4-2" />
      <stop
         id="stop4099-6-1-8-3"
         offset="0.80000001"
         style="stop-color:#ffffff;stop-opacity:1;" />
      <stop
         style="stop-color:#ffffff;stop-opacity:0;"
         offset="1"
         id="stop4095-1-0-7-9" />
    </linearGradient>
    <linearGradient
       id="linearGradient3832-0-6-1-1">
      <stop
         style="stop-color:#000000;stop-opacity:1;"
         offset="0"
         id="stop3834-6-3-7-1" />
      <stop
         id="stop3872-2-4"
         offset="0.1"
         style="stop-color:#000000;stop-opacity:0.58823532;" />
      <stop
         style="stop-color:#000000;stop-opacity:0.58823532;"
         offset="0.89999998"
         id="stop3844-6-2-7-6" />
      <stop
         style="stop-color:#000000;stop-opacity:1;"
         offset="1"
         id="stop3836-5-0-2-9" />
    </linearGradient>
    <linearGradient
       x1="45.447727"
       y1="92.539597"
       x2="45.447727"
       y2="7.0165396"
       id="ButtonShadow-1"
       gradientUnits="userSpaceOnUse"
       gradientTransform="scale(1.0058652,0.994169)">
      <stop
         id="stop3750-9"
         style="stop-color:#000000;stop-opacity:1"
         offset="0" />
      <stop
         id="stop3752-9"
         style="stop-color:#000000;stop-opacity:0.58823532"
         offset="1" />
    </linearGradient>
    <filter
       color-interpolation-filters="sRGB"
       id="filter3174-3">
      <feGaussianBlur
         id="feGaussianBlur3176-6"
         stdDeviation="1.71" />
    </filter>
    <linearGradient
       id="linearGradient4281-6-5-7">
      <stop
         id="stop4283-9-08-6"
         offset="0"
         style="stop-color:#1e1e1e;stop-opacity:1;" />
      <stop
         id="stop4285-8-5-4"
         offset="1"
         style="stop-color:#505050;stop-opacity:1;" />
    </linearGradient>
    <clipPath
       id="clipPath4008-9-2"
       clipPathUnits="userSpaceOnUse">
      <path
         style="fill:#ff00ff;fill-opacity:1;fill-rule:nonzero;stroke:none;stroke-width:1;marker:none;visibility:visible;display:block;overflow:visible;enable-background:accumulate"
         d="m 44.425,20 c -1.023231,0 -1.86875,0.828036 -1.86875,1.86875 l 0,3.696875 c -1.829594,0.487474 -3.559846,1.222857 -5.159375,2.153125 L 34.75625,25.078125 C 34.388298,24.710177 33.973039,24.554035 33.496875,24.55 33.020713,24.5459 32.518012,24.716362 32.15625,25.078125 l -5.078125,5.078125 c -0.723522,0.723528 -0.695203,1.864104 0.04062,2.6 l 2.6,2.640625 c -0.930267,1.599524 -1.665639,3.329777 -2.153125,5.159375 l -3.65625,0 C 22.868662,40.55625 22,41.401775 22,42.425 l 0,7.15 c 0,1.023225 0.868662,1.86875 1.909375,1.86875 l 3.65625,0 c 0.487486,1.829599 1.222858,3.559851 2.153125,5.159375 l -2.6,2.6 c -0.735893,0.735895 -0.764213,1.917095 -0.04062,2.640625 l 5.078125,5.078125 c 0.723521,0.723528 1.864107,0.695267 2.6,-0.04063 l 2.640625,-2.6 c 1.599529,0.930272 3.329781,1.66565 5.159375,2.153125 l 0,3.65625 C 42.55625,71.131339 43.401769,72 44.425,72 l 7.15,0 c 1.023221,0 1.86875,-0.868661 1.86875,-1.909375 l 0,-3.65625 c 1.829594,-0.487475 3.559846,-1.222853 5.159375,-2.153125 l 2.640625,2.6 c 0.735893,0.735895 1.87647,0.764153 2.6,0.04063 l 5.078125,-5.078125 c 0.723522,-0.72353 0.695202,-1.90473 -0.04063,-2.640625 l -2.6,-2.6 c 0.930265,-1.599524 1.665649,-3.329776 2.153125,-5.159375 l 3.65625,0 C 73.131329,51.44375 74,50.598226 74,49.575 l 0,-7.15 c 0,-1.023222 -0.868671,-1.86875 -1.909375,-1.86875 l -3.65625,0 C 67.946903,38.726652 67.211516,36.996399 66.28125,35.396875 l 2.6,-2.640625 c 0.735892,-0.735896 0.764222,-1.876472 0.04063,-2.6 l -5.07813,-5.078125 c -0.723533,-0.723529 -1.864108,-0.735896 -2.6,0 L 58.603125,27.71875 C 57.00359,26.788476 55.273345,26.053099 53.44375,25.565625 l 0,-3.696875 C 53.44375,20.828036 52.598222,20 51.575,20 l -7.15,0 z M 48,38.11875 c 4.338971,0 7.840625,3.542285 7.840625,7.88125 0,4.338967 -3.501654,7.840625 -7.840625,7.840625 -4.33896,0 -7.840625,-3.501658 -7.840625,-7.840625 0,-4.338965 3.501665,-7.88125 7.840625,-7.88125 z"
         id="path4010-2-6"
         inkscape:connector-curvature="0" />
    </clipPath>
    <clipPath
       clipPathUnits="userSpaceOnUse"
       id="clipPath4156-4-6">
      <path
         style="opacity:0.6;fill:#ffffff;fill-opacity:1;stroke:none"
         d="m 27.046336,-55.695463 -14.21366,13.321486 0.06127,0 15.653407,21.770763 10.231384,-10.546177 C 38.561832,-32.30156 27.468089,-54.819245 27.046336,-55.695463 z M 9.6468554,-39.382809 -5.2407289,-25.32124 15.987863,-7.8059573 26.372412,-18.382966 9.6468554,-39.382809 z m 31.4906096,12.951445 -9.741259,9.713584 8.944804,12.4580526 7.780753,-7.5550056 -6.984298,-14.616631 z m -49.8397109,4.378822 -13.7541661,12.9822847 26.2830181,13.84571 0.06127,-0.0617 -0.122531,-0.0617 L 13.598503,-5.4007374 -8.7022409,-22.052595 z m 38.0154159,7.400825 -9.802525,9.7752596 11.579232,9.5594001 7.62759,-7.40083 -8.669108,-11.0087257 -0.735189,-0.925104 z m 20.187073,5.6739697 -7.382526,7.2158 6.187844,8.54179 5.820249,-6.13651996 -4.625567,-9.62107004 z m -32.195166,6.32154 -9.5574606,9.49772 13.6622686,7.1849703 7.933918,-7.6783603 -12.038726,-9.00433 z m 23.311629,2.37443004 -7.10683,6.93826996 8.362778,6.9074403 5.360756,-5.6739699 -0.06127,-0.0925 -0.0919,0.12335 -6.463539,-8.20258036 z m -8.730374,8.54178036 -7.505057,7.3391599 10.353916,5.45811 c 1.397496,-1.32103 5.67514,-6.12292 5.850882,-6.32154 L 31.886332,8.2600031 z"
         id="path4158-0-3"
         inkscape:connector-curvature="0" />
    </clipPath>
    <linearGradient
       inkscape:collect="always"
       id="linearGradient4133-5">
      <stop
         style="stop-color:#ffffff;stop-opacity:1;"
         offset="0"
         id="stop4135-4" />
      <stop
         style="stop-color:#ffffff;stop-opacity:0;"
         offset="1"
         id="stop4137-5" />
    </linearGradient>
    <radialGradient
       r="43.199203"
       fy="44.892841"
       fx="13.948145"
       cy="44.892841"
       cx="13.948145"
       gradientTransform="matrix(0.88832663,0,0,0.04919072,29.382213,-89.635221)"
       gradientUnits="userSpaceOnUse"
       id="radialGradient3833-1"
       xlink:href="#linearGradient4133-5"
       inkscape:collect="always" />
    <linearGradient
       inkscape:collect="always"
       xlink:href="#linearGradient6139-0-7"
       id="linearGradient3825"
       gradientUnits="userSpaceOnUse"
       gradientTransform="matrix(0.81986025,0,0,0.8198601,8.9033703,9.535167)"
       x1="6"
       y1="47.000011"
       x2="90"
       y2="47.000011" />
    <linearGradient
       id="linearGradient6139-0-7">
      <stop
         style="stop-color:#d6dce0;stop-opacity:1"
         offset="0"
         id="stop6141-2-5" />
      <stop
         id="stop6151-0-3"
         offset="0.25"
         style="stop-color:#ffffff;stop-opacity:1;" />
      <stop
         id="stop6147-1-5"
         offset="0.5"
         style="stop-color:#c7d0d4;stop-opacity:1" />
      <stop
         style="stop-color:#f9fafb;stop-opacity:1;"
         offset="0.75"
         id="stop6149-4-6" />
      <stop
         style="stop-color:#d4dbdf;stop-opacity:1"
         offset="1"
         id="stop6143-4-2" />
    </linearGradient>
    <radialGradient
       inkscape:collect="always"
       xlink:href="#linearGradient4091-0-3-0-7"
       id="radialGradient3827"
       gradientUnits="userSpaceOnUse"
       gradientTransform="matrix(-0.87903171,0,0,-0.71739418,90.4502,-5.7351747)"
       cx="48"
       cy="-27"
       fx="48"
       fy="-27"
       r="42" />
    <linearGradient
       inkscape:collect="always"
       xlink:href="#linearGradient3832-0-6-1-1"
       id="linearGradient3829"
       gradientUnits="userSpaceOnUse"
       gradientTransform="matrix(0.74051897,0,0,0.74051897,12.711753,12.523689)"
       x1="1.5"
       y1="88.171875"
       x2="94.5"
       y2="88.171875" />
    <filter
       id="filter3174-3-6"
       color-interpolation-filters="sRGB">
      <feGaussianBlur
         stdDeviation="1.71"
         id="feGaussianBlur3176-6-2" />
    </filter>
    <clipPath
       clipPathUnits="userSpaceOnUse"
       id="clipPath4008-9-2-8">
      <path
         inkscape:connector-curvature="0"
         id="path4010-2-6-7"
         d="m 44.425,20 c -1.023231,0 -1.86875,0.828036 -1.86875,1.86875 l 0,3.696875 c -1.829594,0.487474 -3.559846,1.222857 -5.159375,2.153125 L 34.75625,25.078125 C 34.388298,24.710177 33.973039,24.554035 33.496875,24.55 33.020713,24.5459 32.518012,24.716362 32.15625,25.078125 l -5.078125,5.078125 c -0.723522,0.723528 -0.695203,1.864104 0.04062,2.6 l 2.6,2.640625 c -0.930267,1.599524 -1.665639,3.329777 -2.153125,5.159375 l -3.65625,0 C 22.868662,40.55625 22,41.401775 22,42.425 l 0,7.15 c 0,1.023225 0.868662,1.86875 1.909375,1.86875 l 3.65625,0 c 0.487486,1.829599 1.222858,3.559851 2.153125,5.159375 l -2.6,2.6 c -0.735893,0.735895 -0.764213,1.917095 -0.04062,2.640625 l 5.078125,5.078125 c 0.723521,0.723528 1.864107,0.695267 2.6,-0.04063 l 2.640625,-2.6 c 1.599529,0.930272 3.329781,1.66565 5.159375,2.153125 l 0,3.65625 C 42.55625,71.131339 43.401769,72 44.425,72 l 7.15,0 c 1.023221,0 1.86875,-0.868661 1.86875,-1.909375 l 0,-3.65625 c 1.829594,-0.487475 3.559846,-1.222853 5.159375,-2.153125 l 2.640625,2.6 c 0.735893,0.735895 1.87647,0.764153 2.6,0.04063 l 5.078125,-5.078125 c 0.723522,-0.72353 0.695202,-1.90473 -0.04063,-2.640625 l -2.6,-2.6 c 0.930265,-1.599524 1.665649,-3.329776 2.153125,-5.159375 l 3.65625,0 C 73.131329,51.44375 74,50.598226 74,49.575 l 0,-7.15 c 0,-1.023222 -0.868671,-1.86875 -1.909375,-1.86875 l -3.65625,0 C 67.946903,38.726652 67.211516,36.996399 66.28125,35.396875 l 2.6,-2.640625 c 0.735892,-0.735896 0.764222,-1.876472 0.04063,-2.6 l -5.07813,-5.078125 c -0.723533,-0.723529 -1.864108,-0.735896 -2.6,0 L 58.603125,27.71875 C 57.00359,26.788476 55.273345,26.053099 53.44375,25.565625 l 0,-3.696875 C 53.44375,20.828036 52.598222,20 51.575,20 l -7.15,0 z M 48,38.11875 c 4.338971,0 7.840625,3.542285 7.840625,7.88125 0,4.338967 -3.501654,7.840625 -7.840625,7.840625 -4.33896,0 -7.840625,-3.501658 -7.840625,-7.840625 0,-4.338965 3.501665,-7.88125 7.840625,-7.88125 z"
         style="fill:#ff00ff;fill-opacity:1;fill-rule:nonzero;stroke:none;stroke-width:1;marker:none;visibility:visible;display:block;overflow:visible;enable-background:accumulate" />
    </clipPath>
    <filter
       inkscape:collect="always"
       id="filter4012-5-1"
       color-interpolation-filters="sRGB">
      <feGaussianBlur
         inkscape:collect="always"
         stdDeviation="0.78"
         id="feGaussianBlur4014-1-5" />
    </filter>
    <linearGradient
       y2="14.514202"
       x2="50.527882"
       y1="-28.64156"
       x1="2.7713892"
       gradientUnits="userSpaceOnUse"
       id="linearGradient4967"
       xlink:href="#linearGradient4133-5"
       inkscape:collect="always" />
    <clipPath
       id="clipPath4156-4-6-9"
       clipPathUnits="userSpaceOnUse">
      <path
         inkscape:connector-curvature="0"
         id="path4158-0-3-2"
         d="m 27.046336,-55.695463 -14.21366,13.321486 0.06127,0 15.653407,21.770763 10.231384,-10.546177 C 38.561832,-32.30156 27.468089,-54.819245 27.046336,-55.695463 z M 9.6468554,-39.382809 -5.2407289,-25.32124 15.987863,-7.8059573 26.372412,-18.382966 9.6468554,-39.382809 z m 31.4906096,12.951445 -9.741259,9.713584 8.944804,12.4580526 7.780753,-7.5550056 -6.984298,-14.616631 z m -49.8397109,4.378822 -13.7541661,12.9822847 26.2830181,13.84571 0.06127,-0.0617 -0.122531,-0.0617 L 13.598503,-5.4007374 -8.7022409,-22.052595 z m 38.0154159,7.400825 -9.802525,9.7752596 11.579232,9.5594001 7.62759,-7.40083 -8.669108,-11.0087257 -0.735189,-0.925104 z m 20.187073,5.6739697 -7.382526,7.2158 6.187844,8.54179 5.820249,-6.13651996 -4.625567,-9.62107004 z m -32.195166,6.32154 -9.5574606,9.49772 13.6622686,7.1849703 7.933918,-7.6783603 -12.038726,-9.00433 z m 23.311629,2.37443004 -7.10683,6.93826996 8.362778,6.9074403 5.360756,-5.6739699 -0.06127,-0.0925 -0.0919,0.12335 -6.463539,-8.20258036 z m -8.730374,8.54178036 -7.505057,7.3391599 10.353916,5.45811 c 1.397496,-1.32103 5.67514,-6.12292 5.850882,-6.32154 L 31.886332,8.2600031 z"
         style="opacity:0.6;fill:#ffffff;fill-opacity:1;stroke:none" />
    </clipPath>
    <radialGradient
       inkscape:collect="always"
       xlink:href="#linearGradient4133-5"
       id="radialGradient4992"
       gradientUnits="userSpaceOnUse"
       gradientTransform="matrix(0.72210511,0,0,0.03642666,36.952417,70.887262)"
       cx="13.948145"
       cy="44.892841"
       fx="13.948145"
       fy="44.892841"
       r="43.199203" />
    <radialGradient
       inkscape:collect="always"
       xlink:href="#linearGradient4133-5"
       id="radialGradient3833-1-3"
       gradientUnits="userSpaceOnUse"
       gradientTransform="matrix(0.88832663,0,0,0.04919072,29.382213,-89.635221)"
       cx="13.948145"
       cy="44.892841"
       fx="13.948145"
       fy="44.892841"
       r="43.199203" />
    <radialGradient
       inkscape:collect="always"
       xlink:href="#linearGradient4133-5"
       id="radialGradient32123"
       gradientUnits="userSpaceOnUse"
       gradientTransform="matrix(0.65782272,0,0,0.03642666,34.281775,-79.088337)"
       cx="13.948145"
       cy="44.892841"
       fx="13.948145"
       fy="44.892841"
       r="43.199203" />
  </defs>
  <sodipodi:namedview
     id="base"
     pagecolor="#ffffff"
     bordercolor="#666666"
     borderopacity="1.0"
     inkscape:pageopacity="0.0"
     inkscape:pageshadow="2"
     inkscape:zoom="1.3227539"
     inkscape:cx="-56.312822"
     inkscape:cy="24"
     inkscape:current-layer="layer6-9"
     showgrid="true"
     inkscape:grid-bbox="true"
     inkscape:document-units="px"
     inkscape:window-width="1280"
     inkscape:window-height="974"
     inkscape:window-x="0"
     inkscape:window-y="21"
     inkscape:window-maximized="1" />
  <metadata
     id="metadata20825">
    <rdf:RDF>
      <cc:Work
         rdf:about="">
        <dc:format>image/svg+xml</dc:format>
        <dc:type
           rdf:resource="http://purl.org/dc/dcmitype/StillImage" />
        <dc:title />
      </cc:Work>
    </rdf:RDF>
  </metadata>
  <g
     id="livello1"
     inkscape:label="Livello 1"
     inkscape:groupmode="livello" />
  <g
     id="g32019">
    <g
       id="layer6-9"
       inkscape:label="Symbol"
       style="display:inline"
       transform="matrix(1.3504043,0,0,1.3504043,-17.166009,-16.912043)">
      <path
         inkscape:connector-curvature="0"
         id="path3288"
         d="M 78.723729,12.523689 H 17.789593 c -2.813119,0 -5.077838,2.264718 -5.077838,5.077842 v 60.934135 c 0,2.813126 2.264719,5.077844 5.077838,5.077844 h 60.934136 c 2.813126,0 5.077848,-2.264718 5.077848,-5.077844 V 17.601531 c 0,-2.813124 -2.264722,-5.077842 -5.077848,-5.077842 z"
         style="display:inline;opacity:0.15;fill:#000000;fill-opacity:1;fill-rule:nonzero;stroke:none;stroke-width:0.74051899" />
      <path
         style="display:inline;opacity:0.15;fill:#000000;fill-opacity:1;fill-rule:nonzero;stroke:none;stroke-width:0.74051899"
         d="M 78.247682,13.079078 H 18.26564 c -2.769164,0 -4.998498,2.229332 -4.998498,4.998501 v 59.982039 c 0,2.769171 2.229334,4.998503 4.998498,4.998503 h 59.982042 c 2.769173,0 4.998506,-2.229332 4.998506,-4.998503 V 18.077579 c 0,-2.769169 -2.229333,-4.998501 -4.998506,-4.998501 z"
         id="path4085"
         inkscape:connector-curvature="0" />
      <path
         inkscape:connector-curvature="0"
         id="rect4251-1"
         d="M 77.771632,13.634467 H 18.741693 c -2.725215,0 -4.919161,2.193946 -4.919161,4.919161 v 59.029944 c 0,2.725214 2.193946,4.91916 4.919161,4.91916 h 59.029939 c 2.725215,0 4.919159,-2.193946 4.919159,-4.91916 V 18.553628 c 0,-2.725215 -2.193944,-4.919161 -4.919159,-4.919161 z"
         style="display:inline;fill:url(#linearGradient3825);fill-opacity:1;fill-rule:nonzero;stroke:none;stroke-width:0.74051899" />
      <path
         inkscape:connector-curvature="0"
         id="path4236-5"
         d="m 18.741707,13.634468 c -2.725215,0 -4.919161,2.193945 -4.919161,4.919161 V 30.85153 h 0.81986 V 18.553629 c 0,-2.285194 1.814105,-4.099301 4.099301,-4.099301 h 59.029938 c 2.285196,0 4.099301,1.814107 4.099301,4.099301 V 30.85153 h 0.819861 V 18.553629 c 0,-2.725216 -2.193946,-4.919161 -4.919162,-4.919161 z"
         style="display:inline;opacity:0.45;fill:url(#radialGradient3827);fill-opacity:1;fill-rule:nonzero;stroke:none;stroke-width:0.81986016" />
      <path
         id="path4118"
         d="m 13.822531,73.130538 v 4.443114 c 0,2.725215 2.203864,4.92908 4.929079,4.92908 h 59.010106 c 2.725216,0 4.929082,-2.203865 4.929082,-4.92908 v -4.443114 c 0,2.725215 -2.203866,4.92908 -4.929082,4.92908 H 18.75161 c -2.725215,0 -4.929079,-2.203865 -4.929079,-4.92908 z"
         style="display:inline;opacity:0.89090905;fill:url(#linearGradient3829);fill-opacity:1;fill-rule:nonzero;stroke:none;stroke-width:0.74051899"
         inkscape:connector-curvature="0" />
      <rect
         style="fill:#dbdfe2;fill-opacity:0.96330273;stroke:none;stroke-width:0.74051899"
         id="rect4117"
         width="65.165672"
         height="59.241516"
         x="15.673831"
         y="16.89275"
         ry="4.0304465"
         rx="4.601675" />
      <path
         inkscape:connector-curvature="0"
         id="path4989"
         d="m 19.823777,16.755753 c -2.307917,0 -4.197236,1.880556 -4.197236,4.180973 v 51.301671 c 0,2.300418 1.889319,4.180973 4.197236,4.180973 H 76.68955 c 2.307917,0 4.19724,-1.880555 4.19724,-4.180973 V 20.936726 c 0,-2.300416 -1.889323,-4.180973 -4.19724,-4.180973 z m 0,1.717589 H 76.68955 c 1.398175,0 2.482236,1.096038 2.482236,2.463384 v 51.301671 c 0,1.367349 -1.084061,2.463383 -2.482236,2.463383 H 19.823777 c -1.398174,0 -2.482236,-1.096034 -2.482236,-2.463383 V 20.936726 c 0,-1.367346 1.084062,-2.463384 2.482236,-2.463384 z"
         style="color:#000000;font-style:normal;font-variant:normal;font-weight:normal;font-stretch:normal;font-size:medium;line-height:normal;font-family:Sans;-inkscape-font-specification:Sans;text-indent:0;text-align:start;text-decoration:none;text-decoration-line:none;letter-spacing:normal;word-spacing:normal;text-transform:none;writing-mode:lr-tb;direction:ltr;baseline-shift:baseline;text-anchor:start;display:inline;overflow:visible;visibility:visible;fill:#342323;fill-opacity:1;stroke:none;stroke-width:1.75910294;marker:none;enable-background:accumulate" />
      <path
         style="display:block;overflow:visible;visibility:visible;opacity:0.8;fill:#d40000;fill-opacity:1;fill-rule:nonzero;stroke:none;stroke-width:0.99999994;marker:none;enable-background:accumulate"
         d="m 44.625265,21.385513 c -0.965911,0 -1.764066,0.781651 -1.764066,1.764066 v 3.489784 c -1.727104,0.460167 -3.360431,1.154355 -4.870357,2.032511 l -2.492703,-2.492702 c -0.34734,-0.347337 -0.739337,-0.494732 -1.188827,-0.498541 -0.449489,-0.0039 -0.924029,0.157043 -1.265526,0.498541 l -4.793659,4.793658 c -0.682992,0.682998 -0.656259,1.759681 0.03834,2.454354 l 2.454353,2.492702 c -0.878156,1.509922 -1.572333,3.14325 -2.032511,4.870358 h -3.451435 c -0.982409,0 -1.802411,0.79816 -1.802411,1.764066 v 6.749472 c 0,0.965906 0.820002,1.764066 1.802416,1.764066 h 3.451434 c 0.460178,1.727109 1.154356,3.360436 2.032512,4.870358 l -2.454354,2.454353 c -0.69467,0.694671 -0.721403,1.809703 -0.03834,2.492702 l 4.793658,4.793659 c 0.682991,0.682998 1.759684,0.65632 2.454354,-0.03835 l 2.492702,-2.454353 c 1.509927,0.87816 3.143254,1.572344 4.870358,2.032511 v 3.451435 c -5e-6,0.98242 0.79815,1.80242 1.764061,1.80242 h 6.749472 c 0.965902,0 1.764066,-0.82 1.764066,-1.802416 v -3.451434 c 1.727104,-0.460168 3.360431,-1.154351 4.870358,-2.032511 l 2.492702,2.454353 c 0.69467,0.694672 1.771354,0.721347 2.454354,0.03835 l 4.793658,-4.793659 c 0.682992,-0.682999 0.656259,-1.798031 -0.03835,-2.492702 L 65.257168,55.93821 c 0.878154,-1.509922 1.572343,-3.143249 2.032511,-4.870357 h 3.451435 c 0.98241,-5e-6 1.80242,-0.798164 1.80242,-1.764071 V 42.55431 c 0,-0.965903 -0.82001,-1.764066 -1.802415,-1.764066 h -3.451435 c -0.460165,-1.727108 -1.154357,-3.360436 -2.032511,-4.870358 l 2.454353,-2.492702 c 0.694669,-0.694673 0.721412,-1.771356 0.03835,-2.454354 l -4.793663,-4.793658 c -0.683002,-0.682999 -1.759685,-0.694673 -2.454354,0 l -2.492702,2.492702 C 56.499228,27.793712 54.865908,27.09953 53.138803,26.639363 v -3.489784 c 0,-0.982415 -0.798163,-1.764066 -1.764066,-1.764066 z m 3.374736,17.103774 c 4.095911,0 7.401409,3.343854 7.401409,7.439759 0,4.095907 -3.305498,7.401409 -7.401409,7.401409 -4.0959,0 -7.401409,-3.305502 -7.401409,-7.401409 0,-4.095905 3.305509,-7.439759 7.401409,-7.439759 z"
         id="path3983"
         inkscape:connector-curvature="0" />
      <path
         inkscape:connector-curvature="0"
         style="display:block;overflow:visible;visibility:visible;opacity:0.69199997;fill:#ffffff;fill-opacity:1;fill-rule:nonzero;stroke:none;stroke-width:0.99999994;marker:none;enable-background:accumulate"
         d="m 27.822385,32.654299 c -0.159386,0.582262 -8.74e-4,1.238056 0.471991,1.710967 l 2.12396,2.182958 c 0.110784,-0.206363 0.207004,-0.417472 0.324494,-0.619488 l -2.448454,-2.507452 c -0.229085,-0.229108 -0.389699,-0.4826 -0.471991,-0.766985 z m 40.355232,0 c -0.0823,0.284385 -0.242883,0.537877 -0.471991,0.766985 l -2.448453,2.507452 c 0.11749,0.202016 0.21371,0.413125 0.324494,0.619488 l 2.123959,-2.182958 c 0.47291,-0.472911 0.63139,-1.128705 0.471991,-1.710967 z m -20.177616,5.840888 c -4.0959,0 -7.404359,3.337954 -7.404359,7.433859 0,0.15768 0.01984,0.316797 0.0295,0.471991 0.241123,-3.878857 3.436639,-6.961868 7.374859,-6.961868 3.93823,0 7.133738,3.083011 7.37486,6.961868 0.0097,-0.155194 0.0295,-0.314311 0.0295,-0.471991 0,-4.095905 -3.308448,-7.433859 -7.40436,-7.433859 z M 23.456468,49.291982 v 0.943982 c 0,0.965906 0.817052,1.769966 1.799466,1.769966 h 3.451434 c 0.39861,1.496035 0.993721,2.91187 1.710968,4.24792 l 0.324494,-0.324494 c -0.878156,-1.509922 -1.575284,-3.140299 -2.035462,-4.867408 h -3.451434 c -0.982414,0 -1.799466,-0.80406 -1.799466,-1.769966 z m 49.087066,0 c 0,0.965907 -0.817055,1.769962 -1.799466,1.769966 h -3.451434 c -0.460168,1.727109 -1.157308,3.357486 -2.035461,4.867408 l 0.324494,0.324494 c 0.717248,-1.33605 1.312365,-2.751885 1.710967,-4.24792 h 3.451434 c 0.982411,-4e-6 1.799466,-0.804059 1.799466,-1.769966 z M 27.822385,60.088777 c -0.179691,0.596482 -0.02251,1.275501 0.442492,1.740466 l 4.778909,4.808409 c 0.682991,0.682997 1.753783,0.635675 2.448453,-0.059 L 37.999691,64.1302 c 1.509927,0.87816 3.140304,1.575293 4.867408,2.035461 v -0.943982 c -1.727104,-0.460168 -3.357481,-1.157301 -4.867408,-2.035461 l -2.507452,2.448453 c -0.69467,0.694674 -1.765462,0.741996 -2.448453,0.059 l -4.778909,-4.808409 c -0.225279,-0.225258 -0.370125,-0.507818 -0.442492,-0.796485 z m 40.355232,0 c -0.07236,0.288666 -0.187736,0.571226 -0.412992,0.796484 l -4.808408,4.808409 c -0.683,0.682993 -1.753784,0.635673 -2.448454,-0.059 l -2.507452,-2.448453 c -1.509927,0.87816 -3.140304,1.575293 -4.867407,2.035461 v 0.943982 c 1.727103,-0.460168 3.35748,-1.157301 4.867407,-2.035461 l 2.507452,2.448453 c 0.69467,0.694672 1.765454,0.741992 2.448454,0.059 l 4.808408,-4.808409 c 0.46496,-0.464965 0.59267,-1.143984 0.412992,-1.740466 z m -25.310518,8.584336 v 0.943982 c -5e-6,0.98242 0.804055,1.799466 1.769966,1.799466 h 6.725872 c 0.965902,0 1.769967,-0.81705 1.769967,-1.799466 v -0.943982 c 0,0.982416 -0.804065,1.799466 -1.769967,1.799466 h -6.725872 c -0.965911,0 -1.769971,-0.817046 -1.769966,-1.799466 z"
         id="path3994" />
      <path
         inkscape:connector-curvature="0"
         id="path4004"
         d="m 44.425,21 c -1.023231,0 -1.86875,0.828036 -1.86875,1.86875 v 3.696875 c -1.829594,0.487474 -3.559846,1.222857 -5.159375,2.153125 L 34.75625,26.078125 C 34.388298,25.710177 33.973039,25.554035 33.496875,25.55 33.020713,25.5459 32.518012,25.716362 32.15625,26.078125 l -5.078125,5.078125 c -0.723522,0.723528 -0.695203,1.864104 0.04062,2.6 l 2.6,2.640625 c -0.930267,1.599524 -1.665639,3.329777 -2.153125,5.159375 H 23.90937 C 22.868662,41.55625 22,42.401775 22,43.425 v 7.15 c 0,1.023225 0.868662,1.86875 1.909375,1.86875 h 3.65625 c 0.487486,1.829599 1.222858,3.559851 2.153125,5.159375 l -2.6,2.6 c -0.735893,0.735895 -0.764213,1.917095 -0.04062,2.640625 l 5.078125,5.078125 c 0.723521,0.723528 1.864107,0.695267 2.6,-0.04063 l 2.640625,-2.6 c 1.599529,0.930272 3.329781,1.66565 5.159375,2.153125 v 3.65625 C 42.55625,72.131339 43.401769,73 44.425,73 h 7.15 c 1.023221,0 1.86875,-0.868661 1.86875,-1.909375 v -3.65625 c 1.829594,-0.487475 3.559846,-1.222853 5.159375,-2.153125 l 2.640625,2.6 c 0.735893,0.735895 1.87647,0.764153 2.6,0.04063 l 5.078125,-5.078125 c 0.723522,-0.72353 0.695202,-1.90473 -0.04063,-2.640625 l -2.6,-2.6 c 0.930265,-1.599524 1.665649,-3.329776 2.153125,-5.159375 h 3.65625 C 73.131329,52.44375 74,51.598226 74,50.575 v -7.15 c 0,-1.023222 -0.868671,-1.86875 -1.909375,-1.86875 h -3.65625 C 67.946903,39.726652 67.211516,37.996399 66.28125,36.396875 l 2.6,-2.640625 c 0.735892,-0.735896 0.764222,-1.876472 0.04063,-2.6 l -5.07813,-5.078125 c -0.723533,-0.723529 -1.864108,-0.735896 -2.6,0 L 58.603125,28.71875 C 57.00359,27.788476 55.273345,27.053099 53.44375,26.565625 V 22.86875 C 53.44375,21.828036 52.598222,21 51.575,21 Z M 48,39.11875 c 4.338971,0 7.840625,3.542285 7.840625,7.88125 0,4.338967 -3.501654,7.840625 -7.840625,7.840625 -4.33896,0 -7.840625,-3.501658 -7.840625,-7.840625 0,-4.338965 3.501665,-7.88125 7.840625,-7.88125 z"
         style="display:block;overflow:visible;visibility:visible;opacity:0.553;fill:none;stroke:#000000;stroke-width:2.11868429;stroke-miterlimit:4;stroke-dasharray:none;marker:none;filter:url(#filter4012-5-1);enable-background:accumulate"
         clip-path="url(#clipPath4008-9-2-8)"
         transform="matrix(0.94398204,0,0,0.94398204,2.6888633,2.5058721)" />
      <rect
         transform="matrix(0.6784757,0,0,0.69730721,16.095312,39.376179)"
         style="display:inline;opacity:0.76999996;fill:url(#linearGradient4967);fill-opacity:1;stroke:none"
         id="rect4146"
         width="92"
         height="92"
         x="2"
         y="-30"
         rx="3.9569874"
         ry="3.9569881"
         clip-path="url(#clipPath4156-4-6-9)" />
      <rect
         style="display:inline;opacity:0.75494068;fill:url(#radialGradient4992);fill-opacity:1;stroke:none;stroke-width:0.74051899"
         id="rect4131"
         width="62.388729"
         height="3.1472056"
         x="15.83008"
         y="70.948959"
         rx="0"
         ry="3.1472056" />
      <rect
         ry="3.1472056"
         rx="0"
         y="-79.026634"
         x="15.039764"
         height="3.1472056"
         width="56.834831"
         id="rect4141"
         style="display:inline;opacity:0.7075099;fill:url(#radialGradient32123);fill-opacity:1;stroke:none;stroke-width:0.74051899"
         transform="rotate(90)" />
    </g>
  </g>
</svg>
