<?xml version="1.0" encoding="UTF-8" standalone="no"?>
<!-- Created with Inkscape (http://www.inkscape.org/) -->

<svg
   xmlns:dc="http://purl.org/dc/elements/1.1/"
   xmlns:cc="http://creativecommons.org/ns#"
   xmlns:rdf="http://www.w3.org/1999/02/22-rdf-syntax-ns#"
   xmlns:svg="http://www.w3.org/2000/svg"
   xmlns="http://www.w3.org/2000/svg"
   xmlns:xlink="http://www.w3.org/1999/xlink"
   xmlns:sodipodi="http://sodipodi.sourceforge.net/DTD/sodipodi-0.dtd"
   xmlns:inkscape="http://www.inkscape.org/namespaces/inkscape"
   width="96"
   height="96"
   viewBox="0 0 96.000001 96.000004"
   version="1.1"
   id="svg1072"
   inkscape:version="0.92.1 r15371"
   sodipodi:docname="view-restore.svg">
  <defs
     id="defs1066">
    <linearGradient
       y2="47.000011"
       x2="90"
       y1="47.000011"
       x1="6"
       gradientTransform="matrix(1.1071428,0,0,1.1071426,-4.9939026,-3.620687)"
       gradientUnits="userSpaceOnUse"
       id="linearGradient4071"
       xlink:href="#linearGradient6139-0"
       inkscape:collect="always" />
    <linearGradient
       id="linearGradient6139-0">
      <stop
         style="stop-color:#adb9c1;stop-opacity:1;"
         offset="0"
         id="stop6141-2" />
      <stop
         id="stop6151-0"
         offset="0.25"
         style="stop-color:#ffffff;stop-opacity:1;" />
      <stop
         id="stop6147-1"
         offset="0.5"
         style="stop-color:#90a2aa;stop-opacity:1;" />
      <stop
         style="stop-color:#f9fafb;stop-opacity:1;"
         offset="0.75"
         id="stop6149-4" />
      <stop
         style="stop-color:#adb9c1;stop-opacity:1;"
         offset="1"
         id="stop6143-4" />
    </linearGradient>
    <linearGradient
       gradientUnits="userSpaceOnUse"
       y2="88.171875"
       x2="94.5"
       y1="88.171875"
       x1="1.5"
       id="linearGradient4129"
       xlink:href="#linearGradient3832-0-6-1-1"
       inkscape:collect="always"
       gradientTransform="translate(0.1489535,0.415026)" />
    <linearGradient
       id="linearGradient3832-0-6-1-1">
      <stop
         id="stop3834-6-3-7-1"
         offset="0"
         style="stop-color:#000000;stop-opacity:1;" />
      <stop
         style="stop-color:#000000;stop-opacity:0.58823532;"
         offset="0.1"
         id="stop3872-2-4" />
      <stop
         id="stop3844-6-2-7-6"
         offset="0.89999998"
         style="stop-color:#000000;stop-opacity:0.58823532;" />
      <stop
         id="stop3836-5-0-2-9"
         offset="1"
         style="stop-color:#000000;stop-opacity:1;" />
    </linearGradient>
    <radialGradient
       r="43.199203"
       fy="44.892841"
       fx="13.948145"
       cy="44.892841"
       cx="13.948145"
       gradientTransform="matrix(0.97513378,0,0,0.04919072,34.047649,80.581722)"
       gradientUnits="userSpaceOnUse"
       id="radialGradient7462"
       xlink:href="#linearGradient3737"
       inkscape:collect="always" />
    <linearGradient
       id="linearGradient3737">
      <stop
         id="stop3739"
         style="stop-color:#ffffff;stop-opacity:1"
         offset="0" />
      <stop
         id="stop3741"
         style="stop-color:#ffffff;stop-opacity:0"
         offset="1" />
    </linearGradient>
    <radialGradient
       r="43.199203"
       fy="44.892841"
       fx="13.948145"
       cy="44.892841"
       cx="13.948145"
       gradientTransform="matrix(0.88832663,0,0,0.04919072,31.959518,-90.31726)"
       gradientUnits="userSpaceOnUse"
       id="radialGradient7464"
       xlink:href="#linearGradient3737"
       inkscape:collect="always" />
    <linearGradient
       y2="14.514202"
       x2="50.527882"
       y1="-28.64156"
       x1="2.7713892"
       gradientUnits="userSpaceOnUse"
       id="linearGradient4767"
       xlink:href="#linearGradient3737"
       inkscape:collect="always" />
    <clipPath
       clipPathUnits="userSpaceOnUse"
       id="clipPath4156-4-1">
      <path
         style="opacity:0.6;fill:#ffffff;fill-opacity:1;stroke:none"
         d="m 27.046336,-55.695463 -14.21366,13.321486 h 0.06127 l 15.653407,21.770763 10.231384,-10.546177 C 38.561832,-32.30156 27.468089,-54.819245 27.046336,-55.695463 Z M 9.6468554,-39.382809 -5.2407289,-25.32124 15.987863,-7.8059573 26.372412,-18.382966 Z m 31.4906096,12.951445 -9.741259,9.713584 8.944804,12.4580526 7.780753,-7.5550056 z m -49.8397109,4.378822 -13.7541661,12.9822847 26.2830181,13.84571 0.06127,-0.0617 -0.122531,-0.0617 L 13.598503,-5.4007374 -8.7022409,-22.052595 Z m 38.0154159,7.400825 -9.802525,9.7752596 11.579232,9.5594001 7.62759,-7.40083 -8.669108,-11.0087257 z m 20.187073,5.6739697 -7.382526,7.2158 6.187844,8.54179 5.820249,-6.13651996 z m -32.195166,6.32154 -9.5574606,9.49772 13.6622686,7.1849703 7.933918,-7.6783603 z m 23.311629,2.37443004 -7.10683,6.93826996 8.362778,6.9074403 5.360756,-5.6739699 -0.06127,-0.0925 -0.0919,0.12335 -6.463539,-8.20258036 z m -8.730374,8.54178036 -7.505057,7.3391599 10.353916,5.45811 c 1.397496,-1.32103 5.67514,-6.12292 5.850882,-6.32154 z"
         id="path4158-0-8"
         inkscape:connector-curvature="0" />
    </clipPath>
  </defs>
  <sodipodi:namedview
     id="base"
     pagecolor="#ffffff"
     bordercolor="#666666"
     borderopacity="1.0"
     inkscape:pageopacity="0.0"
     inkscape:pageshadow="2"
     inkscape:zoom="2.5117023"
     inkscape:cx="67.980523"
     inkscape:cy="48"
     inkscape:document-units="px"
     inkscape:current-layer="g2574"
     showgrid="false"
     inkscape:showpageshadow="false"
     units="px"
     inkscape:lockguides="true"
     inkscape:window-width="1280"
     inkscape:window-height="972"
     inkscape:window-x="0"
     inkscape:window-y="26"
     inkscape:window-maximized="1">
    <sodipodi:guide
       position="0,0"
       orientation="0,96"
       id="guide1621"
       inkscape:locked="true" />
    <sodipodi:guide
       position="96.000002,0"
       orientation="-96,0"
       id="guide1623"
       inkscape:locked="true" />
    <sodipodi:guide
       position="96.000002,96.000002"
       orientation="0,-96"
       id="guide1625"
       inkscape:locked="true" />
    <sodipodi:guide
       position="0,96.000002"
       orientation="96,0"
       id="guide1627"
       inkscape:locked="true" />
  </sodipodi:namedview>
  <metadata
     id="metadata1069">
    <rdf:RDF>
      <cc:Work
         rdf:about="">
        <dc:format>image/svg+xml</dc:format>
        <dc:type
           rdf:resource="http://purl.org/dc/dcmitype/StillImage" />
        <dc:title></dc:title>
        <dc:date>2017</dc:date>
        <dc:creator>
          <cc:Agent>
            <dc:title>Cristian Pozzessere &quot;ilnanny&quot;</dc:title>
          </cc:Agent>
        </dc:creator>
        <dc:subject>
          <rdf:Bag>
            <rdf:li>Global language</rdf:li>
          </rdf:Bag>
        </dc:subject>
        <dc:description>Playing with Inkscape on Gnu/Linux O. S.</dc:description>
        <dc:contributor>
          <cc:Agent>
            <dc:title>In the night, alone like a dog.</dc:title>
          </cc:Agent>
        </dc:contributor>
        <cc:license
           rdf:resource="http://creativecommons.org/licenses/by-sa/4.0/" />
      </cc:Work>
      <cc:License
         rdf:about="http://creativecommons.org/licenses/by-sa/4.0/">
        <cc:permits
           rdf:resource="http://creativecommons.org/ns#Reproduction" />
        <cc:permits
           rdf:resource="http://creativecommons.org/ns#Distribution" />
        <cc:requires
           rdf:resource="http://creativecommons.org/ns#Notice" />
        <cc:requires
           rdf:resource="http://creativecommons.org/ns#Attribution" />
        <cc:permits
           rdf:resource="http://creativecommons.org/ns#DerivativeWorks" />
        <cc:requires
           rdf:resource="http://creativecommons.org/ns#ShareAlike" />
      </cc:License>
    </rdf:RDF>
  </metadata>
  <g
     inkscape:label="Livello 1"
     inkscape:groupmode="layer"
     id="layer1"
     transform="translate(0,-1026.5197)">
    <g
       transform="translate(-0.14895645,1026.1047)"
       style="display:inline"
       id="g2574">
      <path
         inkscape:connector-curvature="0"
         id="path3288"
         d="M 89.29181,0.415026 H 7.0060911 c -3.798848,0 -6.8571352,3.058285 -6.8571352,6.8571399 V 89.557884 c 0,3.798857 3.0582872,6.857142 6.8571352,6.857142 H 89.29181 c 3.798857,0 6.857147,-3.058285 6.857147,-6.857142 V 7.2721659 c 0,-3.7988549 -3.05829,-6.8571399 -6.857147,-6.8571399 z"
         style="display:inline;opacity:0.15;fill:#000000;fill-opacity:1;fill-rule:nonzero;stroke:none" />
      <path
         style="display:inline;opacity:0.15;fill:#000000;fill-opacity:1;fill-rule:nonzero;stroke:none"
         d="M 88.648954,1.165026 H 7.6489471 c -3.739492,0 -6.749993,3.010499 -6.749993,6.7499969 V 88.915026 c 0,3.739501 3.010501,6.75 6.749993,6.75 H 88.648954 c 3.739503,0 6.750003,-3.010499 6.750003,-6.75 V 7.9150229 c 0,-3.7394979 -3.0105,-6.7499969 -6.750003,-6.7499969 z"
         id="path4085"
         inkscape:connector-curvature="0" />
      <path
         inkscape:connector-curvature="0"
         id="rect4251-1"
         d="M 88.006093,1.915026 H 8.2918111 c -3.680143,0 -6.6428566,2.962713 -6.6428566,6.6428549 V 88.272171 c 0,3.680142 2.9627136,6.642856 6.6428566,6.642856 H 88.006093 c 3.680143,0 6.642854,-2.962714 6.642854,-6.642856 V 8.5578809 c 0,-3.6801419 -2.962711,-6.6428549 -6.642854,-6.6428549 z"
         style="display:inline;fill:url(#linearGradient4071);fill-opacity:1;fill-rule:nonzero;stroke:none" />
      <path
         sodipodi:nodetypes="sscccsccscccsss"
         inkscape:connector-curvature="0"
         id="path3400-6"
         d="m 11.390247,6.8021682 c -2.8564964,0 -5.1241284,2.2883782 -5.1241284,5.1710028 v 21.42734 7.239403 39.913674 c 1.0972399,1.684484 2.9688485,2.811732 5.1241284,2.811732 h 4.099303 65.588849 4.099302 c 2.155281,0 4.026889,-1.127248 5.124129,-2.811732 V 40.639914 33.400511 11.973171 c 0,-2.8826246 -2.267632,-5.1710028 -5.124129,-5.1710028 z"
         style="display:inline;opacity:0.77864583;fill:#f5f3f3;fill-opacity:1;fill-rule:nonzero;stroke:none;stroke-width:1.02950251" />
      <path
         style="color:#000000;font-style:normal;font-variant:normal;font-weight:normal;font-stretch:normal;font-size:medium;line-height:normal;font-family:Sans;-inkscape-font-specification:Sans;text-indent:0;text-align:start;text-decoration:none;text-decoration-line:none;letter-spacing:normal;word-spacing:normal;text-transform:none;writing-mode:lr-tb;direction:ltr;baseline-shift:baseline;text-anchor:start;display:inline;overflow:visible;visibility:visible;fill:#1f2224;fill-opacity:0.63265303;stroke:none;stroke-width:2.3755002;marker:none;enable-background:accumulate"
         d="m 9.9740341,5.1444869 c -3.116621,0 -5.667965,2.53951 -5.667965,5.6460041 v 69.277996 c 0,3.106495 2.551344,5.646004 5.667965,5.646004 H 86.765819 c 3.116621,0 5.667968,-2.539509 5.667968,-5.646004 V 10.790491 c 0,-3.1064931 -2.551347,-5.6460041 -5.667968,-5.6460041 z m 0,2.319439 H 86.765819 c 1.888099,0 3.352022,1.480095 3.352022,3.3265651 v 69.277996 c 0,1.846474 -1.463923,3.326564 -3.352022,3.326564 H 9.9740341 c -1.888099,0 -3.352022,-1.48009 -3.352022,-3.326564 V 10.790491 c 0,-1.8464701 1.463923,-3.3265651 3.352022,-3.3265651 z"
         id="path4989"
         inkscape:connector-curvature="0" />
      <path
         id="path4118"
         d="m 1.6489535,82.258776 v 6 c 0,3.680142 2.9761066,6.65625 6.6562496,6.65625 H 87.992703 c 3.680143,0 6.656254,-2.976108 6.656254,-6.65625 v -6 c 0,3.680142 -2.976111,6.65625 -6.656254,6.65625 H 8.3052031 c -3.680143,0 -6.6562496,-2.976108 -6.6562496,-6.65625 z"
         style="display:inline;opacity:0.65818182;fill:url(#linearGradient4129);fill-opacity:1;fill-rule:nonzero;stroke:none"
         inkscape:connector-curvature="0" />
      <rect
         ry="4.25"
         rx="0"
         y="80.665031"
         x="5.5239539"
         height="4.25"
         width="84.250008"
         id="rect4131"
         style="opacity:0.55;fill:url(#radialGradient7462);fill-opacity:1;stroke:none" />
      <rect
         transform="rotate(90)"
         style="opacity:0.669;fill:url(#radialGradient7464);fill-opacity:1;stroke:none"
         id="rect4141"
         width="76.75"
         height="4.25"
         x="5.9750223"
         y="-90.233963"
         rx="0"
         ry="4.25" />
      <g
         transform="matrix(1.1591795,0,0,1.1591795,-7.4930122,-10.384795)"
         style="display:inline"
         id="g663">
        <path
           style="display:inline;opacity:0.1;fill:#000000;fill-opacity:1;stroke:none"
           id="path3999"
           inkscape:connector-curvature="0"
           d="m 38.65625,19.03125 c -1.660785,0.239368 -2.159791,2.486914 -0.944333,3.562744 3.012086,3.954822 5.951808,8.014858 9.006833,11.906006 1.135661,1.028733 2.820939,0.233681 3.384444,-1.02124 2.887431,-3.896888 5.898122,-7.730268 8.709306,-11.66626 0.696882,-1.459309 -0.779692,-3.124103 -2.321096,-2.78125 -5.945035,1e-6 -11.890195,-2e-6 -17.835154,0 z m -0.25,16 c -2.809498,-0.0832 -4.791347,2.753587 -4.375,5.392191 0.02095,6.982981 -0.04182,13.972891 0.03125,20.951559 0.327534,1.723746 2.262153,1.683561 3.632818,1.59375 7.559027,-0.0209 15.124968,0.04175 22.679682,-0.03125 1.723746,-0.327534 1.683561,-2.262153 1.59375,-3.632818 -0.01512,-6.780836 0.03028,-13.563219 -0.02276,-20.343084 -0.19969,-2.726942 -3.014635,-4.309312 -5.538958,-3.930348 -6.000259,0 -12.000518,0 -18.000777,0 z m -18.71875,3 c -1.601156,0.239753 -1.81325,2.011674 -1.65625,3.325005 0.0423,5.722609 -0.0842,11.463982 0.0625,17.174995 0.392194,1.53961 2.488202,1.89041 3.500244,0.756833 C 25.548816,56.275997 29.608852,53.336275 33.5,50.28125 34.528733,49.145589 33.733681,47.460311 32.47876,46.896806 28.559256,44.003082 24.717595,40.954156 20.75,38.15625 c -0.34247,-0.125939 -0.69698,-0.140315 -1.0625,-0.125 z m 56.0625,0 c -1.708638,0.569992 -2.948084,2.066984 -4.460448,3.02411 -2.915281,2.231812 -5.938224,4.388306 -8.789552,6.66339 -1.028733,1.135661 -0.233681,2.820939 1.02124,3.384444 3.896888,2.887431 7.730268,5.898122 11.66626,8.709306 1.459309,0.696882 3.124103,-0.779692 2.78125,-2.321096 C 77.947489,51.52728 78.010996,45.549399 77.9375,39.59375 77.728355,38.606612 76.760352,37.916199 75.75,38.03125 Z m -33.6875,6.9375 c 3.989583,0 7.979167,0 11.96875,0 0,3.34375 0,6.6875 0,10.03125 -3.989583,0 -7.979167,0 -11.96875,0 0,-3.34375 0,-6.6875 0,-10.03125 z m 5.71875,18.0625 c -1.630279,0.314512 -2.15014,2.166218 -3.208999,3.251464 -2.445823,3.309814 -5.015213,6.555834 -7.384751,9.904786 -0.696882,1.459309 0.779692,3.124103 2.321096,2.78125 6.005168,-0.04225 12.02908,0.08414 18.022654,-0.0625 1.53961,-0.392194 1.89041,-2.488202 0.756833,-3.500244 C 55.251337,71.43296 52.315477,67.334854 49.21875,63.4375 48.816972,63.10408 48.293833,62.982626 47.78125,63.03125 Z" />
        <path
           inkscape:connector-curvature="0"
           style="display:inline;opacity:0.15;fill:#000000;fill-opacity:1;stroke:none"
           id="path3995"
           d="m 38.90625,20 a 1.0027937,1.0027937 0 0 0 -0.71875,1.59375 l 9,12 a 1.0027937,1.0027937 0 0 0 1.625,0 l 9,-12 A 1.0027937,1.0027937 0 0 0 57,20 H 39 a 1.0027937,1.0027937 0 0 0 -0.09375,0 z m -0.5,16 C 36.53536,36.000003 35,37.53536 35,39.40625 V 61 a 1.0027937,1.0027937 0 0 0 1,1 h 24 a 1.0027937,1.0027937 0 0 0 1,-1 V 39.40625 C 61,37.535359 59.464641,36 57.59375,36 Z m -18.5625,3 A 1.0027937,1.0027937 0 0 0 19,40 v 18 a 1.0027937,1.0027937 0 0 0 1.59375,0.8125 l 12,-9 a 1.0027937,1.0027937 0 0 0 0,-1.625 l -12,-9 A 1.0027937,1.0027937 0 0 0 19.84375,39 Z M 75.875,39 a 1.0027937,1.0027937 0 0 0 -0.46875,0.1875 l -12,9 a 1.0027937,1.0027937 0 0 0 0,1.625 l 12,9 A 1.0027937,1.0027937 0 0 0 77,58 V 40 A 1.0027937,1.0027937 0 0 0 75.875,39 Z M 41.09375,44 H 55 V 55.96875 H 41.09375 Z m 6.71875,20 a 1.0027937,1.0027937 0 0 0 -0.625,0.40625 l -9,12 A 1.0027937,1.0027937 0 0 0 39,78 h 18 a 1.0027937,1.0027937 0 0 0 0.8125,-1.59375 l -9,-12 A 1.0027937,1.0027937 0 0 0 47.8125,64 Z" />
        <path
           style="display:inline;opacity:0.3;fill:#ffffff;fill-opacity:1;stroke:none"
           id="path3989"
           inkscape:connector-curvature="0"
           d="m 39,21 9,12 9,-12 z M 38.40625,37 C 37.076648,37.000002 36,38.07665 36,39.40625 V 61 H 60 V 39.40625 C 60,38.07665 58.92335,37 57.59375,37 Z M 49,39 c 0.554,0 1,0.446 1,1 0,0.554 -0.446,1 -1,1 -0.554,0 -1,-0.446 -1,-1 0,-0.554 0.446,-1 1,-1 z m 4,0 c 0.554,0 1,0.446 1,1 0,0.554 -0.446,1 -1,1 -0.554,0 -1,-0.446 -1,-1 0,-0.554 0.446,-1 1,-1 z m 4,0 c 0.554,0 1,0.446 1,1 0,0.554 -0.446,1 -1,1 -0.554,0 -1,-0.446 -1,-1 0,-0.554 0.446,-1 1,-1 z m -37,1 v 18 l 12,-9 z m 56,0 -12,9 12,9 z M 40.09375,43 H 56 V 56.96875 H 40.09375 Z M 48,65 39,77 h 18 z" />
        <path
           style="display:inline;fill:#404040;fill-opacity:1;stroke:none"
           id="path2887"
           inkscape:connector-curvature="0"
           d="m 39,20 9,12 9,-12 z M 38.40625,36 C 37.076648,36.000002 36,37.07665 36,38.40625 V 60 H 60 V 38.40625 C 60,37.07665 58.92335,36 57.59375,36 Z M 49,38 c 0.554,0 1,0.446 1,1 0,0.554 -0.446,1 -1,1 -0.554,0 -1,-0.446 -1,-1 0,-0.554 0.446,-1 1,-1 z m 4,0 c 0.554,0 1,0.446 1,1 0,0.554 -0.446,1 -1,1 -0.554,0 -1,-0.446 -1,-1 0,-0.554 0.446,-1 1,-1 z m 4,0 c 0.554,0 1,0.446 1,1 0,0.554 -0.446,1 -1,1 -0.554,0 -1,-0.446 -1,-1 0,-0.554 0.446,-1 1,-1 z m -37,1 v 18 l 12,-9 z m 56,0 -12,9 12,9 z M 40.09375,42 H 56 V 55.96875 H 40.09375 Z M 48,64 39,76 h 18 z" />
        <path
           style="display:inline;opacity:0.75;fill:#ffffff;fill-opacity:1;stroke:none"
           id="path3203"
           inkscape:connector-curvature="0"
           d="m 39,20 0.75,1 h 16.5 L 57,20 Z M 38.40625,36 C 37.076648,36.000002 36,37.07665 36,38.40625 v 1 C 36,38.07665 37.076648,37.000002 38.40625,37 h 19.1875 C 58.92335,37 60,38.07665 60,39.40625 v -1 C 60,37.07665 58.92335,36 57.59375,36 Z M 20,39 v 1 L 31.34375,48.5 32,48 Z m 56,0 -12,9 0.65625,0.5 L 76,40 Z M 48.15625,39.5 C 48.066824,39.649865 48,39.812099 48,40 c 0,0.554 0.446,1 1,1 0.554,0 1,-0.446 1,-1 0,-0.187901 -0.06682,-0.350135 -0.15625,-0.5 C 49.669517,39.791991 49.366099,40 49,40 48.633901,40 48.330483,39.791991 48.15625,39.5 Z m 4,0 C 52.066824,39.649865 52,39.812099 52,40 c 0,0.554 0.446,1 1,1 0.554,0 1,-0.446 1,-1 0,-0.187901 -0.06682,-0.350135 -0.15625,-0.5 C 53.669517,39.791991 53.366099,40 53,40 52.633901,40 52.330483,39.791991 52.15625,39.5 Z m 4,0 C 56.066824,39.649865 56,39.812099 56,40 c 0,0.554 0.446,1 1,1 0.554,0 1,-0.446 1,-1 0,-0.187901 -0.06682,-0.350135 -0.15625,-0.5 C 57.669517,39.791991 57.366099,40 57,40 56.633901,40 56.330483,39.791991 56.15625,39.5 Z m -16.0625,16.46875 v 1 H 56 v -1 z M 48,64 39,76 h 0.75 L 48,65 56.25,76 H 57 Z" />
        <path
           style="display:inline;opacity:0.15;fill:#000000;fill-opacity:1;stroke:none"
           id="path3980"
           inkscape:connector-curvature="0"
           d="m 39,20 9,12 9,-12 H 56.25 L 48,31 39.75,20 Z m 10,17 c -0.554,0 -1,0.446 -1,1 0,0.187901 0.06682,0.350135 0.15625,0.5 C 48.330483,38.208009 48.633901,38 49,38 c 0.366099,0 0.669517,0.208009 0.84375,0.5 C 49.933176,38.350135 50,38.187901 50,38 50,37.446 49.554,37 49,37 Z m 4,0 c -0.554,0 -1,0.446 -1,1 0,0.187901 0.06682,0.350135 0.15625,0.5 C 52.330483,38.208009 52.633901,38 53,38 c 0.366099,0 0.669517,0.208009 0.84375,0.5 C 53.933176,38.350135 54,38.187901 54,38 54,37.446 53.554,37 53,37 Z m 4,0 c -0.554,0 -1,0.446 -1,1 0,0.187901 0.06682,0.350135 0.15625,0.5 C 56.330483,38.208009 56.633901,38 57,38 c 0.366099,0 0.669517,0.208009 0.84375,0.5 C 57.933176,38.350135 58,38.187901 58,38 58,37.446 57.554,37 57,37 Z m -16.90625,4 v 1 H 56 v -1 z m -8.75,6.5 L 20,56 v 1 l 12,-9 z m 33.3125,0 L 64,48 76,57 V 56 Z M 36,59 v 1 H 60 V 59 Z M 39.75,75 39,76 h 18 l -0.75,-1 z" />
      </g>
      <rect
         clip-path="url(#clipPath4156-4-1)"
         ry="3.9569881"
         rx="3.9569874"
         y="-30"
         x="2"
         height="69.024437"
         width="75.965775"
         id="rect4146"
         style="opacity:0.5078125;fill:url(#linearGradient4767);fill-opacity:1;stroke:none"
         transform="matrix(1.0692451,0,0,1.0476829,4.4441802,38.894013)" />
    </g>
  </g>
</svg>
