<?xml version="1.0" encoding="UTF-8" standalone="no"?>
<!-- Created with Inkscape (http://www.inkscape.org/) -->

<svg
   xmlns:dc="http://purl.org/dc/elements/1.1/"
   xmlns:cc="http://creativecommons.org/ns#"
   xmlns:rdf="http://www.w3.org/1999/02/22-rdf-syntax-ns#"
   xmlns:svg="http://www.w3.org/2000/svg"
   xmlns="http://www.w3.org/2000/svg"
   xmlns:xlink="http://www.w3.org/1999/xlink"
   xmlns:sodipodi="http://sodipodi.sourceforge.net/DTD/sodipodi-0.dtd"
   xmlns:inkscape="http://www.inkscape.org/namespaces/inkscape"
   width="96"
   height="96"
   viewBox="0 0 96.000001 96.000004"
   version="1.1"
   id="svg1072"
   inkscape:version="0.92.1 r15371"
   sodipodi:docname="stock_new-text.svg">
  <defs
     id="defs1066">
    <linearGradient
       y2="47.000011"
       x2="90"
       y1="47.000011"
       x1="6"
       gradientTransform="matrix(1.1071428,0,0,1.1071426,-4.9939026,-3.620687)"
       gradientUnits="userSpaceOnUse"
       id="linearGradient4071"
       xlink:href="#linearGradient6139-0"
       inkscape:collect="always" />
    <linearGradient
       id="linearGradient6139-0">
      <stop
         style="stop-color:#c1adad;stop-opacity:1;"
         offset="0"
         id="stop6141-2" />
      <stop
         id="stop6151-0"
         offset="0.25"
         style="stop-color:#ffffff;stop-opacity:1;" />
      <stop
         id="stop6147-1"
         offset="0.5"
         style="stop-color:#aa9090;stop-opacity:1;" />
      <stop
         style="stop-color:#fbf9f9;stop-opacity:1;"
         offset="0.75"
         id="stop6149-4" />
      <stop
         style="stop-color:#c1adad;stop-opacity:1;"
         offset="1"
         id="stop6143-4" />
    </linearGradient>
    <linearGradient
       gradientUnits="userSpaceOnUse"
       y2="88.171875"
       x2="94.5"
       y1="88.171875"
       x1="1.5"
       id="linearGradient4129"
       xlink:href="#linearGradient3832-0-6-1-1"
       inkscape:collect="always"
       gradientTransform="translate(0.1489535,0.415026)" />
    <linearGradient
       id="linearGradient3832-0-6-1-1">
      <stop
         id="stop3834-6-3-7-1"
         offset="0"
         style="stop-color:#000000;stop-opacity:1;" />
      <stop
         style="stop-color:#000000;stop-opacity:0.58823532;"
         offset="0.1"
         id="stop3872-2-4" />
      <stop
         id="stop3844-6-2-7-6"
         offset="0.89999998"
         style="stop-color:#000000;stop-opacity:0.58823532;" />
      <stop
         id="stop3836-5-0-2-9"
         offset="1"
         style="stop-color:#000000;stop-opacity:1;" />
    </linearGradient>
    <radialGradient
       r="43.199203"
       fy="44.892841"
       fx="13.948145"
       cy="44.892841"
       cx="13.948145"
       gradientTransform="matrix(0.97513378,0,0,0.04919072,34.047649,80.581722)"
       gradientUnits="userSpaceOnUse"
       id="radialGradient7462"
       xlink:href="#linearGradient3737"
       inkscape:collect="always" />
    <linearGradient
       id="linearGradient3737">
      <stop
         id="stop3739"
         style="stop-color:#ffffff;stop-opacity:1"
         offset="0" />
      <stop
         id="stop3741"
         style="stop-color:#ffffff;stop-opacity:0"
         offset="1" />
    </linearGradient>
    <radialGradient
       r="43.199203"
       fy="44.892841"
       fx="13.948145"
       cy="44.892841"
       cx="13.948145"
       gradientTransform="matrix(0.88832663,0,0,0.04919072,31.959518,-90.31726)"
       gradientUnits="userSpaceOnUse"
       id="radialGradient7464"
       xlink:href="#linearGradient3737"
       inkscape:collect="always" />
    <linearGradient
       y2="14.514202"
       x2="50.527882"
       y1="-28.64156"
       x1="2.7713892"
       gradientUnits="userSpaceOnUse"
       id="linearGradient4767"
       xlink:href="#linearGradient3737"
       inkscape:collect="always" />
    <clipPath
       clipPathUnits="userSpaceOnUse"
       id="clipPath4156-4-1">
      <path
         style="opacity:0.6;fill:#ffffff;fill-opacity:1;stroke:none"
         d="m 27.046336,-55.695463 -14.21366,13.321486 h 0.06127 l 15.653407,21.770763 10.231384,-10.546177 C 38.561832,-32.30156 27.468089,-54.819245 27.046336,-55.695463 Z M 9.6468554,-39.382809 -5.2407289,-25.32124 15.987863,-7.8059573 26.372412,-18.382966 Z m 31.4906096,12.951445 -9.741259,9.713584 8.944804,12.4580526 7.780753,-7.5550056 z m -49.8397109,4.378822 -13.7541661,12.9822847 26.2830181,13.84571 0.06127,-0.0617 -0.122531,-0.0617 L 13.598503,-5.4007374 -8.7022409,-22.052595 Z m 38.0154159,7.400825 -9.802525,9.7752596 11.579232,9.5594001 7.62759,-7.40083 -8.669108,-11.0087257 z m 20.187073,5.6739697 -7.382526,7.2158 6.187844,8.54179 5.820249,-6.13651996 z m -32.195166,6.32154 -9.5574606,9.49772 13.6622686,7.1849703 7.933918,-7.6783603 z m 23.311629,2.37443004 -7.10683,6.93826996 8.362778,6.9074403 5.360756,-5.6739699 -0.06127,-0.0925 -0.0919,0.12335 -6.463539,-8.20258036 z m -8.730374,8.54178036 -7.505057,7.3391599 10.353916,5.45811 c 1.397496,-1.32103 5.67514,-6.12292 5.850882,-6.32154 z"
         id="path4158-0-8"
         inkscape:connector-curvature="0" />
    </clipPath>
    <linearGradient
       x1="45"
       y1="24"
       x2="45"
       y2="76"
       id="linearGradient3879"
       xlink:href="#linearGradient3832-0-6-1-1"
       gradientUnits="userSpaceOnUse" />
    <linearGradient
       id="linearGradient3637">
      <stop
         id="stop3639"
         style="stop-color:#f0f0f0;stop-opacity:1"
         offset="0" />
      <stop
         id="stop3641"
         style="stop-color:#aaaaaa;stop-opacity:1"
         offset="1" />
    </linearGradient>
    <linearGradient
       x1="45"
       y1="24"
       x2="45"
       y2="76"
       id="linearGradient3879-8"
       xlink:href="#linearGradient3832-0-6-1-1"
       gradientUnits="userSpaceOnUse" />
  </defs>
  <sodipodi:namedview
     id="base"
     pagecolor="#ffffff"
     bordercolor="#666666"
     borderopacity="1.0"
     inkscape:pageopacity="0.0"
     inkscape:pageshadow="2"
     inkscape:zoom="3.5520834"
     inkscape:cx="29.315803"
     inkscape:cy="44.202932"
     inkscape:document-units="px"
     inkscape:current-layer="g2574"
     showgrid="false"
     inkscape:showpageshadow="false"
     units="px"
     inkscape:lockguides="true"
     inkscape:window-width="1280"
     inkscape:window-height="972"
     inkscape:window-x="0"
     inkscape:window-y="26"
     inkscape:window-maximized="1">
    <sodipodi:guide
       position="0,0"
       orientation="0,96"
       id="guide1621"
       inkscape:locked="true" />
    <sodipodi:guide
       position="96.000002,0"
       orientation="-96,0"
       id="guide1623"
       inkscape:locked="true" />
    <sodipodi:guide
       position="96.000002,96.000002"
       orientation="0,-96"
       id="guide1625"
       inkscape:locked="true" />
    <sodipodi:guide
       position="0,96.000002"
       orientation="96,0"
       id="guide1627"
       inkscape:locked="true" />
  </sodipodi:namedview>
  <metadata
     id="metadata1069">
    <rdf:RDF>
      <cc:Work
         rdf:about="">
        <dc:format>image/svg+xml</dc:format>
        <dc:type
           rdf:resource="http://purl.org/dc/dcmitype/StillImage" />
        <dc:title></dc:title>
        <dc:date>2017</dc:date>
        <dc:creator>
          <cc:Agent>
            <dc:title>Cristian Pozzessere &quot;ilnanny&quot;</dc:title>
          </cc:Agent>
        </dc:creator>
        <dc:subject>
          <rdf:Bag>
            <rdf:li>Global language</rdf:li>
          </rdf:Bag>
        </dc:subject>
        <dc:description>Playing with Inkscape on Gnu/Linux O. S.</dc:description>
        <dc:contributor>
          <cc:Agent>
            <dc:title>In the night, alone like a dog.</dc:title>
          </cc:Agent>
        </dc:contributor>
        <cc:license
           rdf:resource="http://creativecommons.org/licenses/by-sa/4.0/" />
      </cc:Work>
      <cc:License
         rdf:about="http://creativecommons.org/licenses/by-sa/4.0/">
        <cc:permits
           rdf:resource="http://creativecommons.org/ns#Reproduction" />
        <cc:permits
           rdf:resource="http://creativecommons.org/ns#Distribution" />
        <cc:requires
           rdf:resource="http://creativecommons.org/ns#Notice" />
        <cc:requires
           rdf:resource="http://creativecommons.org/ns#Attribution" />
        <cc:permits
           rdf:resource="http://creativecommons.org/ns#DerivativeWorks" />
        <cc:requires
           rdf:resource="http://creativecommons.org/ns#ShareAlike" />
      </cc:License>
    </rdf:RDF>
  </metadata>
  <g
     inkscape:label="Livello 1"
     inkscape:groupmode="layer"
     id="layer1"
     transform="translate(0,-1026.5197)">
    <g
       transform="translate(-0.14895645,1026.1047)"
       style="display:inline"
       id="g2574">
      <path
         inkscape:connector-curvature="0"
         id="path3288"
         d="M 89.29181,0.415026 H 7.0060911 c -3.798848,0 -6.8571352,3.058285 -6.8571352,6.8571399 V 89.557884 c 0,3.798857 3.0582872,6.857142 6.8571352,6.857142 H 89.29181 c 3.798857,0 6.857147,-3.058285 6.857147,-6.857142 V 7.2721659 c 0,-3.7988549 -3.05829,-6.8571399 -6.857147,-6.8571399 z"
         style="display:inline;opacity:0.15;fill:#000000;fill-opacity:1;fill-rule:nonzero;stroke:none" />
      <path
         style="display:inline;opacity:0.15;fill:#000000;fill-opacity:1;fill-rule:nonzero;stroke:none"
         d="M 88.648954,1.165026 H 7.6489471 c -3.739492,0 -6.749993,3.010499 -6.749993,6.7499969 V 88.915026 c 0,3.739501 3.010501,6.75 6.749993,6.75 H 88.648954 c 3.739503,0 6.750003,-3.010499 6.750003,-6.75 V 7.9150229 c 0,-3.7394979 -3.0105,-6.7499969 -6.750003,-6.7499969 z"
         id="path4085"
         inkscape:connector-curvature="0" />
      <path
         inkscape:connector-curvature="0"
         id="rect4251-1"
         d="M 88.006093,1.915026 H 8.2918111 c -3.680143,0 -6.6428566,2.962713 -6.6428566,6.6428549 V 88.272171 c 0,3.680142 2.9627136,6.642856 6.6428566,6.642856 H 88.006093 c 3.680143,0 6.642854,-2.962714 6.642854,-6.642856 V 8.5578809 c 0,-3.6801419 -2.962711,-6.6428549 -6.642854,-6.6428549 z"
         style="display:inline;fill:url(#linearGradient4071);fill-opacity:1;fill-rule:nonzero;stroke:none" />
      <path
         sodipodi:nodetypes="sscccsccscccsss"
         inkscape:connector-curvature="0"
         id="path3400-6"
         d="m 11.390247,6.8021682 c -2.8564964,0 -5.1241284,2.2883782 -5.1241284,5.1710028 v 21.42734 7.239403 39.913674 c 1.0972399,1.684484 2.9688485,2.811732 5.1241284,2.811732 h 4.099303 65.588849 4.099302 c 2.155281,0 4.026889,-1.127248 5.124129,-2.811732 V 40.639914 33.400511 11.973171 c 0,-2.8826246 -2.267632,-5.1710028 -5.124129,-5.1710028 z"
         style="display:inline;opacity:0.77864583;fill:#f5f3f3;fill-opacity:1;fill-rule:nonzero;stroke:none;stroke-width:1.02950251" />
      <path
         style="color:#000000;font-style:normal;font-variant:normal;font-weight:normal;font-stretch:normal;font-size:medium;line-height:normal;font-family:Sans;-inkscape-font-specification:Sans;text-indent:0;text-align:start;text-decoration:none;text-decoration-line:none;letter-spacing:normal;word-spacing:normal;text-transform:none;writing-mode:lr-tb;direction:ltr;baseline-shift:baseline;text-anchor:start;display:inline;overflow:visible;visibility:visible;fill:#241f1f;fill-opacity:0.63265303;stroke:none;stroke-width:2.3755002;marker:none;enable-background:accumulate"
         d="m 9.9740341,5.1444869 c -3.116621,0 -5.667965,2.53951 -5.667965,5.6460041 v 69.277996 c 0,3.106495 2.551344,5.646004 5.667965,5.646004 H 86.765819 c 3.116621,0 5.667968,-2.539509 5.667968,-5.646004 V 10.790491 c 0,-3.1064931 -2.551347,-5.6460041 -5.667968,-5.6460041 z m 0,2.319439 H 86.765819 c 1.888099,0 3.352022,1.480095 3.352022,3.3265651 v 69.277996 c 0,1.846474 -1.463923,3.326564 -3.352022,3.326564 H 9.9740341 c -1.888099,0 -3.352022,-1.48009 -3.352022,-3.326564 V 10.790491 c 0,-1.8464701 1.463923,-3.3265651 3.352022,-3.3265651 z"
         id="path4989"
         inkscape:connector-curvature="0" />
      <path
         id="path4118"
         d="m 1.6489535,82.258776 v 6 c 0,3.680142 2.9761066,6.65625 6.6562496,6.65625 H 87.992703 c 3.680143,0 6.656254,-2.976108 6.656254,-6.65625 v -6 c 0,3.680142 -2.976111,6.65625 -6.656254,6.65625 H 8.3052031 c -3.680143,0 -6.6562496,-2.976108 -6.6562496,-6.65625 z"
         style="display:inline;opacity:0.65818182;fill:url(#linearGradient4129);fill-opacity:1;fill-rule:nonzero;stroke:none"
         inkscape:connector-curvature="0" />
      <rect
         ry="4.25"
         rx="0"
         y="80.665031"
         x="5.5239539"
         height="4.25"
         width="84.250008"
         id="rect4131"
         style="opacity:0.55;fill:url(#radialGradient7462);fill-opacity:1;stroke:none" />
      <rect
         transform="rotate(90)"
         style="opacity:0.669;fill:url(#radialGradient7464);fill-opacity:1;stroke:none"
         id="rect4141"
         width="76.75"
         height="4.25"
         x="5.9750223"
         y="-90.233963"
         rx="0"
         ry="4.25" />
      <g
         transform="matrix(1.3335796,0,0,1.3335796,-11.494047,-20.723744)"
         style="display:inline"
         id="g10266">
        <path
           inkscape:connector-curvature="0"
           style="color:#000000;display:inline;overflow:visible;visibility:visible;opacity:0.1;fill:#000000;fill-opacity:1;fill-rule:nonzero;stroke:none;stroke-width:2;marker:none;enable-background:accumulate"
           id="path3914"
           transform="translate(0,1)"
           d="m 33.5,21.9375 c -3.054908,0 -5.5625,2.507592 -5.5625,5.5625 V 50 c -5.3e-5,0.0039 -2.12e-4,0.12114 0,0.125 2.12e-4,0.0039 -4.77e-4,0.152414 0,0.15625 4.77e-4,0.0038 0.03051,0.121205 0.03125,0.125 7.39e-4,0.0038 0.03025,0.121265 0.03125,0.125 9.98e-4,0.0037 0.03,0.152592 0.03125,0.15625 0.0013,0.0037 0.061,0.121437 0.0625,0.125 0.0015,0.0036 0.06076,0.121548 0.0625,0.125 8.7e-4,0.0017 0.01473,0.03236 0.03125,0.0625 -0.01652,0.03014 -0.03038,0.06077 -0.03125,0.0625 -0.0017,0.0035 -0.061,0.121437 -0.0625,0.125 -0.0015,0.0036 -0.06125,0.121342 -0.0625,0.125 -0.0013,0.0037 -0.03025,0.152515 -0.03125,0.15625 -9.98e-4,0.0037 -0.03051,0.121205 -0.03125,0.125 -7.39e-4,0.0038 -0.03077,0.121164 -0.03125,0.125 -4.77e-4,0.0038 2.12e-4,0.15239 0,0.15625 -2.12e-4,0.0039 -5.3e-5,0.121135 0,0.125 v 5.9375 H 22 c -0.0028,-3e-5 -0.09095,-1.1e-4 -0.09375,0 -0.0028,1.1e-4 -0.09096,-2.49e-4 -0.09375,0 -0.0028,2.49e-4 -0.09098,-3.87e-4 -0.09375,0 -0.0028,3.87e-4 -0.12225,0.03073 -0.125,0.03125 C 21.591,57.969274 21.502721,57.99934 21.5,58 c -0.0027,6.6e-4 -0.09107,-7.95e-4 -0.09375,0 -0.0027,7.95e-4 -0.09111,0.03032 -0.09375,0.03125 -0.0026,9.27e-4 -0.09116,0.06144 -0.09375,0.0625 -0.0026,0.0011 -0.09121,0.03007 -0.09375,0.03125 -0.0025,0.0012 -0.09128,0.02994 -0.09375,0.03125 -0.0025,0.0013 -0.09134,0.06107 -0.09375,0.0625 -0.0024,0.0014 -0.09142,0.06095 -0.09375,0.0625 -0.0023,0.0015 -0.06025,0.06084 -0.0625,0.0625 -0.0023,0.0017 -0.09158,0.06073 -0.09375,0.0625 -0.0022,0.0018 -0.09167,0.06062 -0.09375,0.0625 -0.0021,0.0019 -0.06052,0.06052 -0.0625,0.0625 -0.002,0.002 -0.06062,0.06042 -0.0625,0.0625 -0.0019,0.0021 -0.06073,0.09158 -0.0625,0.09375 -0.0018,0.0022 -0.06084,0.0915 -0.0625,0.09375 -0.0017,0.0023 -0.06095,0.06017 -0.0625,0.0625 -0.0015,0.0023 -0.06107,0.09134 -0.0625,0.09375 -0.0014,0.0024 -0.06119,0.09128 -0.0625,0.09375 -0.0013,0.0025 -0.03007,0.09121 -0.03125,0.09375 -0.0012,0.0025 -0.03019,0.09116 -0.03125,0.09375 -0.0011,0.0026 -0.06157,0.09111 -0.0625,0.09375 -9.27e-4,0.0026 -0.03045,0.09107 -0.03125,0.09375 -7.95e-4,0.0027 6.6e-4,0.09103 0,0.09375 -6.6e-4,0.0027 -0.03073,0.091 -0.03125,0.09375 -5.24e-4,0.0027 -0.03086,0.122227 -0.03125,0.125 -3.87e-4,0.0028 2.49e-4,0.09096 0,0.09375 -2.49e-4,0.0028 1.1e-4,0.09095 0,0.09375 -1.1e-4,0.0028 -3e-5,0.09095 0,0.09375 v 8 c -3e-5,0.0028 -1.1e-4,0.09095 0,0.09375 1.1e-4,0.0028 -2.49e-4,0.09096 0,0.09375 2.49e-4,0.0028 -3.87e-4,0.09098 0,0.09375 3.87e-4,0.0028 0.03073,0.12225 0.03125,0.125 5.24e-4,0.0028 0.03059,0.09103 0.03125,0.09375 6.6e-4,0.0027 -7.95e-4,0.09107 0,0.09375 7.95e-4,0.0027 0.03032,0.09111 0.03125,0.09375 9.27e-4,0.0026 0.06144,0.09116 0.0625,0.09375 0.0011,0.0026 0.03007,0.09121 0.03125,0.09375 0.0012,0.0025 0.02994,0.09128 0.03125,0.09375 0.0013,0.0025 0.06107,0.09134 0.0625,0.09375 0.0014,0.0024 0.06095,0.09142 0.0625,0.09375 0.0015,0.0023 0.06084,0.06025 0.0625,0.0625 0.0017,0.0023 0.06073,0.09158 0.0625,0.09375 0.0018,0.0022 0.06062,0.09167 0.0625,0.09375 0.0019,0.0021 0.06052,0.06052 0.0625,0.0625 0.002,0.002 0.06042,0.06062 0.0625,0.0625 0.0021,0.0019 0.09158,0.06073 0.09375,0.0625 0.0022,0.0018 0.0915,0.06084 0.09375,0.0625 0.0023,0.0017 0.06017,0.06095 0.0625,0.0625 0.0023,0.0015 0.09134,0.06107 0.09375,0.0625 0.0024,0.0014 0.09128,0.06119 0.09375,0.0625 0.0025,0.0013 0.09121,0.03006 0.09375,0.03125 0.0025,0.0012 0.09116,0.03019 0.09375,0.03125 0.0026,0.0011 0.09111,0.06157 0.09375,0.0625 0.0026,9.27e-4 0.09107,0.03046 0.09375,0.03125 0.0027,7.95e-4 0.09103,-6.6e-4 0.09375,0 0.0027,6.6e-4 0.091,0.03073 0.09375,0.03125 0.0027,5.24e-4 0.122227,0.03086 0.125,0.03125 0.0028,3.87e-4 0.09096,-2.49e-4 0.09375,0 0.0028,2.49e-4 0.09095,-1.1e-4 0.09375,0 0.0028,1.1e-4 0.09095,3e-5 0.09375,0 h 5.9375 V 76 c -3e-5,0.0028 -1.1e-4,0.09095 0,0.09375 1.1e-4,0.0028 -2.49e-4,0.09096 0,0.09375 2.49e-4,0.0028 -3.87e-4,0.09098 0,0.09375 3.87e-4,0.0028 0.03073,0.12225 0.03125,0.125 5.24e-4,0.0028 0.03059,0.09103 0.03125,0.09375 6.6e-4,0.0027 -7.95e-4,0.09107 0,0.09375 7.95e-4,0.0027 0.03032,0.09111 0.03125,0.09375 9.27e-4,0.0026 0.06144,0.09116 0.0625,0.09375 0.0011,0.0026 0.03007,0.09121 0.03125,0.09375 0.0012,0.0025 0.02994,0.09128 0.03125,0.09375 0.0013,0.0025 0.06107,0.09134 0.0625,0.09375 0.0014,0.0024 0.06095,0.09142 0.0625,0.09375 0.0015,0.0023 0.06084,0.06025 0.0625,0.0625 0.0017,0.0023 0.06073,0.09158 0.0625,0.09375 0.0018,0.0022 0.06062,0.09167 0.0625,0.09375 0.0019,0.0021 0.06052,0.06052 0.0625,0.0625 0.002,0.002 0.06042,0.06062 0.0625,0.0625 0.0021,0.0019 0.09158,0.06073 0.09375,0.0625 0.0022,0.0018 0.0915,0.06084 0.09375,0.0625 0.0023,0.0017 0.06017,0.06095 0.0625,0.0625 0.0023,0.0015 0.09134,0.06107 0.09375,0.0625 0.0024,0.0014 0.09128,0.06119 0.09375,0.0625 0.0025,0.0013 0.09121,0.03006 0.09375,0.03125 0.0025,0.0012 0.09116,0.03019 0.09375,0.03125 0.0026,0.0011 0.09111,0.06157 0.09375,0.0625 0.0026,9.27e-4 0.09107,0.03046 0.09375,0.03125 0.0027,7.95e-4 0.09103,-6.6e-4 0.09375,0 0.0027,6.6e-4 0.091,0.03073 0.09375,0.03125 0.0027,5.24e-4 0.122227,0.03086 0.125,0.03125 0.0028,3.87e-4 0.09096,-2.49e-4 0.09375,0 0.0028,2.49e-4 0.09095,-1.1e-4 0.09375,0 0.0028,1.1e-4 0.09095,3e-5 0.09375,0 h 8 c 0.0028,3e-5 0.09095,1.1e-4 0.09375,0 0.0028,-1.1e-4 0.09096,2.49e-4 0.09375,0 0.0028,-2.49e-4 0.09098,3.87e-4 0.09375,0 0.0028,-3.87e-4 0.12225,-0.03073 0.125,-0.03125 C 38.409,78.030726 38.497279,78.00066 38.5,78 c 0.0027,-6.6e-4 0.09107,7.95e-4 0.09375,0 0.0027,-7.95e-4 0.09111,-0.03032 0.09375,-0.03125 0.0026,-9.27e-4 0.09116,-0.06144 0.09375,-0.0625 0.0026,-0.0011 0.09121,-0.03006 0.09375,-0.03125 0.0025,-0.0012 0.09128,-0.02994 0.09375,-0.03125 0.0025,-0.0013 0.09134,-0.06107 0.09375,-0.0625 0.0024,-0.0014 0.09142,-0.06095 0.09375,-0.0625 0.0023,-0.0015 0.06025,-0.06084 0.0625,-0.0625 0.0023,-0.0017 0.09158,-0.06073 0.09375,-0.0625 0.0022,-0.0018 0.09167,-0.06062 0.09375,-0.0625 0.0021,-0.0019 0.06052,-0.06052 0.0625,-0.0625 0.002,-0.002 0.06062,-0.06042 0.0625,-0.0625 0.0019,-0.0021 0.06073,-0.09158 0.0625,-0.09375 0.0018,-0.0022 0.06084,-0.0915 0.0625,-0.09375 0.0017,-0.0023 0.06095,-0.06017 0.0625,-0.0625 0.0015,-0.0023 0.06107,-0.09134 0.0625,-0.09375 0.0014,-0.0024 0.06119,-0.09128 0.0625,-0.09375 0.0013,-0.0025 0.03007,-0.09121 0.03125,-0.09375 0.0012,-0.0025 0.03019,-0.09116 0.03125,-0.09375 0.0011,-0.0026 0.06157,-0.09111 0.0625,-0.09375 9.27e-4,-0.0026 0.03046,-0.09107 0.03125,-0.09375 7.95e-4,-0.0027 -6.6e-4,-0.09103 0,-0.09375 6.6e-4,-0.0027 0.03073,-0.091 0.03125,-0.09375 5.24e-4,-0.0028 0.03086,-0.122227 0.03125,-0.125 3.87e-4,-0.0028 -2.49e-4,-0.09096 0,-0.09375 2.49e-4,-0.0028 -1.1e-4,-0.09095 0,-0.09375 1.1e-4,-0.0028 3e-5,-0.09095 0,-0.09375 V 70.0625 H 46 c 0.0039,5.3e-5 0.12114,2.12e-4 0.125,0 0.0039,-2.12e-4 0.152414,4.77e-4 0.15625,0 0.0038,-4.77e-4 0.121205,-0.03051 0.125,-0.03125 0.0038,-7.39e-4 0.121265,-0.03025 0.125,-0.03125 0.0037,-9.98e-4 0.152592,-0.03 0.15625,-0.03125 0.0037,-0.0013 0.121437,-0.061 0.125,-0.0625 0.0036,-0.0015 0.121548,-0.06076 0.125,-0.0625 0.0017,-8.7e-4 0.03236,-0.01473 0.0625,-0.03125 0.03014,0.01652 0.06077,0.03038 0.0625,0.03125 0.0035,0.0017 0.121437,0.061 0.125,0.0625 0.0036,0.0015 0.121342,0.06125 0.125,0.0625 0.0037,0.0013 0.152515,0.03025 0.15625,0.03125 0.0037,9.98e-4 0.121205,0.03051 0.125,0.03125 0.0038,7.39e-4 0.121164,0.03077 0.125,0.03125 0.0038,4.77e-4 0.15239,-2.12e-4 0.15625,0 0.0039,2.12e-4 0.121135,5.3e-5 0.125,0 h 14.5 c 3.054908,0 5.5625,-2.507592 5.5625,-5.5625 v -37 c 0,-3.054908 -2.507592,-5.5625 -5.5625,-5.5625 z m 4.5625,10.125 h 19.875 v 27.875 h -9.875 c -2.2e-4,-0.01485 3.7e-5,-0.03032 0,-0.03125 -1.1e-4,-0.0028 2.49e-4,-0.09096 0,-0.09375 -2.49e-4,-0.0028 3.87e-4,-0.09098 0,-0.09375 -3.87e-4,-0.0028 -0.03073,-0.12225 -0.03125,-0.125 C 48.030726,59.591 48.00066,59.502721 48,59.5 c -6.6e-4,-0.0027 7.95e-4,-0.09107 0,-0.09375 -7.95e-4,-0.0027 -0.03032,-0.09111 -0.03125,-0.09375 -9.27e-4,-0.0026 -0.06144,-0.09116 -0.0625,-0.09375 -0.0011,-0.0026 -0.03007,-0.09121 -0.03125,-0.09375 -0.0012,-0.0025 -0.02994,-0.09128 -0.03125,-0.09375 -0.0013,-0.0025 -0.06107,-0.09134 -0.0625,-0.09375 -0.0014,-0.0024 -0.06095,-0.09142 -0.0625,-0.09375 -0.0015,-0.0023 -0.06084,-0.06025 -0.0625,-0.0625 -0.0017,-0.0023 -0.06073,-0.09158 -0.0625,-0.09375 -0.0018,-0.0022 -0.06062,-0.09167 -0.0625,-0.09375 -0.0019,-0.0021 -0.06052,-0.06052 -0.0625,-0.0625 -0.002,-0.002 -0.06042,-0.06062 -0.0625,-0.0625 -0.0021,-0.0019 -0.09158,-0.06073 -0.09375,-0.0625 -0.0022,-0.0018 -0.0915,-0.06084 -0.09375,-0.0625 -0.0023,-0.0017 -0.06017,-0.06095 -0.0625,-0.0625 -0.0023,-0.0015 -0.09134,-0.06107 -0.09375,-0.0625 -0.0024,-0.0014 -0.09128,-0.06119 -0.09375,-0.0625 C 46.96625,58.15495 46.87754,58.12618 46.875,58.125 46.8725,58.1238 46.78384,58.09481 46.78125,58.09375 46.77865,58.09265 46.69014,58.03218 46.6875,58.03125 46.6849,58.030323 46.59643,58.00079 46.59375,58 c -0.0027,-7.95e-4 -0.09103,6.6e-4 -0.09375,0 -0.0027,-6.6e-4 -0.091,-0.03073 -0.09375,-0.03125 -0.0027,-5.24e-4 -0.122227,-0.03086 -0.125,-0.03125 -0.0028,-3.87e-4 -0.09096,2.49e-4 -0.09375,0 -0.0028,-2.49e-4 -0.09095,1.1e-4 -0.09375,0 -0.0028,-1.1e-4 -0.09095,-3e-5 -0.09375,0 H 40.0625 V 52 c 3e-5,-0.0028 1.1e-4,-0.09095 0,-0.09375 -1.1e-4,-0.0028 2.49e-4,-0.09096 0,-0.09375 -2.49e-4,-0.0028 3.87e-4,-0.09098 0,-0.09375 -3.87e-4,-0.0028 -0.03073,-0.12225 -0.03125,-0.125 C 40.030726,51.591 40.00066,51.502721 40,51.5 c -6.6e-4,-0.0027 7.95e-4,-0.09107 0,-0.09375 -7.95e-4,-0.0027 -0.03032,-0.09111 -0.03125,-0.09375 -9.27e-4,-0.0026 -0.06144,-0.09116 -0.0625,-0.09375 -0.0011,-0.0026 -0.03007,-0.09121 -0.03125,-0.09375 -0.0012,-0.0025 -0.02994,-0.09128 -0.03125,-0.09375 -0.0013,-0.0025 -0.06107,-0.09134 -0.0625,-0.09375 -0.0014,-0.0024 -0.06095,-0.09142 -0.0625,-0.09375 -0.0015,-0.0023 -0.06084,-0.06025 -0.0625,-0.0625 -0.0017,-0.0023 -0.06073,-0.09158 -0.0625,-0.09375 -0.0018,-0.0022 -0.06062,-0.09167 -0.0625,-0.09375 -0.0019,-0.0021 -0.06052,-0.06052 -0.0625,-0.0625 -0.002,-0.002 -0.06042,-0.06062 -0.0625,-0.0625 -0.0021,-0.0019 -0.09158,-0.06073 -0.09375,-0.0625 -0.0022,-0.0018 -0.0915,-0.06084 -0.09375,-0.0625 -0.0023,-0.0017 -0.06017,-0.06095 -0.0625,-0.0625 -0.0023,-0.0015 -0.09134,-0.06107 -0.09375,-0.0625 -0.0024,-0.0014 -0.09128,-0.06119 -0.09375,-0.0625 C 38.96625,50.15495 38.87754,50.12618 38.875,50.125 38.8725,50.1238 38.78384,50.09481 38.78125,50.09375 38.77865,50.09265 38.69014,50.03218 38.6875,50.03125 38.6849,50.030323 38.59643,50.00079 38.59375,50 c -0.0027,-7.95e-4 -0.09103,6.6e-4 -0.09375,0 -0.0027,-6.6e-4 -0.091,-0.03073 -0.09375,-0.03125 -0.0027,-5.24e-4 -0.122227,-0.03086 -0.125,-0.03125 -0.0028,-3.87e-4 -0.09096,2.49e-4 -0.09375,0 -0.0028,-2.49e-4 -0.09095,1.1e-4 -0.09375,0 -9.32e-4,-3.7e-5 -0.0164,2.2e-4 -0.03125,0 z" />
        <path
           inkscape:connector-curvature="0"
           style="color:#000000;display:inline;overflow:visible;visibility:visible;opacity:0.15;fill:#000000;fill-opacity:1;fill-rule:nonzero;stroke:none;stroke-width:2;marker:none;enable-background:accumulate"
           id="path3903"
           transform="translate(0,1)"
           d="m 33.5,22.875 c -2.536447,0 -4.625,2.088553 -4.625,4.625 V 50 a 1.1132923,1.1132923 0 0 0 0.625,1 1.1132923,1.1132923 0 0 0 -0.625,1 v 6.875 H 22 A 1.1132923,1.1132923 0 0 0 20.875,60 v 8 A 1.1132923,1.1132923 0 0 0 22,69.125 h 6.875 V 76 A 1.1132923,1.1132923 0 0 0 30,77.125 h 8 A 1.1132923,1.1132923 0 0 0 39.125,76 V 69.125 H 46 a 1.1132923,1.1132923 0 0 0 1,-0.625 1.1132923,1.1132923 0 0 0 1,0.625 h 14.5 c 2.536447,0 4.625,-2.088553 4.625,-4.625 v -37 c 0,-2.536447 -2.088553,-4.625 -4.625,-4.625 z m 4.5,8.25 h 20 c 0.510553,0 0.875,0.364447 0.875,0.875 v 28 c 0,0.510553 -0.364447,0.875 -0.875,0.875 H 48 a 1.1132923,1.1132923 0 0 0 -0.875,0.4375 V 60 A 1.1132923,1.1132923 0 0 0 46,58.875 H 39.125 V 52 A 1.1132923,1.1132923 0 0 0 38,50.875 H 36.6875 A 1.1132923,1.1132923 0 0 0 37.125,50 V 32 c 0,-0.510553 0.364447,-0.875 0.875,-0.875 z" />
        <path
           style="color:#000000;display:inline;overflow:visible;visibility:visible;opacity:0.3;fill:#000000;fill-opacity:1;fill-rule:nonzero;stroke:none;stroke-width:2;marker:none;enable-background:accumulate"
           id="path3908"
           inkscape:connector-curvature="0"
           d="M 33.5,25 C 31.561,25 30,26.561 30,28.5 V 51 h 6 V 33 c 0,-1.108 0.892,-2 2,-2 h 20 c 1.108,0 2,0.892 2,2 v 28 c 0,1.108 -0.892,2 -2,2 H 48 v 6 h 14.5 c 1.939,0 3.5,-1.561 3.5,-3.5 v -37 C 66,26.561 64.439,25 62.5,25 Z M 30,53 v 8 h -8 v 8 h 8 v 8 h 8 v -8 h 8 v -8 h -8 v -8 z" />
        <path
           style="color:#000000;display:inline;overflow:visible;visibility:visible;opacity:0.706;fill:url(#linearGradient3879-8);fill-opacity:1;fill-rule:nonzero;stroke:none;stroke-width:2;marker:none;enable-background:accumulate"
           id="rect3083"
           inkscape:connector-curvature="0"
           d="M 33.5,24 C 31.561,24 30,25.561 30,27.5 V 50 h 6 V 32 c 0,-1.108 0.892,-2 2,-2 h 20 c 1.108,0 2,0.892 2,2 v 28 c 0,1.108 -0.892,2 -2,2 H 48 v 6 h 14.5 c 1.939,0 3.5,-1.561 3.5,-3.5 v -37 C 66,25.561 64.439,24 62.5,24 Z M 30,52 v 8 h -8 v 8 h 8 v 8 h 8 v -8 h 8 v -8 h -8 v -8 z" />
        <path
           style="color:#000000;display:inline;overflow:visible;visibility:visible;opacity:0.75;fill:#ffffff;fill-opacity:1;fill-rule:nonzero;stroke:none;stroke-width:2;marker:none;enable-background:accumulate"
           id="path3881"
           inkscape:connector-curvature="0"
           d="M 33.5,24 C 31.561,24 30,25.561 30,27.5 v 1 C 30,26.561 31.561,25 33.5,25 h 29 c 1.939,0 3.5,1.561 3.5,3.5 v -1 C 66,25.561 64.439,24 62.5,24 Z M 30,52 v 1 h 8 v -1 z m -8,8 v 1 h 8 v -1 z m 16,0 v 1 h 8 v -1 z m 22,0 c 0,1.108 -0.892,2 -2,2 H 48 v 1 h 10 c 1.108,0 2,-0.892 2,-2 z" />
        <path
           style="color:#000000;display:inline;overflow:visible;visibility:visible;opacity:0.22699998;fill:#ffffff;fill-opacity:1;fill-rule:nonzero;stroke:none;stroke-width:2;marker:none;enable-background:accumulate"
           id="path3890"
           inkscape:connector-curvature="0"
           d="m 38,29 c -1.108,0 -2,0.892 -2,2 v 1 c 0,-1.108 0.892,-2 2,-2 h 20 c 1.108,0 2,0.892 2,2 v -1 c 0,-1.108 -0.892,-2 -2,-2 z m -8,20 v 1 h 6 V 49 Z M 66,63.5 C 66,65.439 64.439,67 62.5,67 H 48 v 1 H 62.5 C 64.439,68 66,66.439 66,64.5 Z M 22,67 v 1 h 8 v -1 z m 16,0 v 1 h 8 v -1 z m -8,8 v 1 h 8 v -1 z" />
      </g>
      <rect
         clip-path="url(#clipPath4156-4-1)"
         ry="3.9569881"
         rx="3.9569874"
         y="-30"
         x="2"
         height="69.024437"
         width="75.965775"
         id="rect4146"
         style="opacity:0.5078125;fill:url(#linearGradient4767);fill-opacity:1;stroke:none"
         transform="matrix(1.0692451,0,0,1.0476829,4.4441802,38.894013)" />
      <g
         id="layer6"
         style="display:inline"
         transform="matrix(1.2934514,0,0,1.2934514,20.656531,-10.372218)" />
    </g>
  </g>
</svg>
