<?xml version="1.0" encoding="UTF-8" standalone="no"?>
<!-- Created with Inkscape (http://www.inkscape.org/) -->

<svg
   xmlns:dc="http://purl.org/dc/elements/1.1/"
   xmlns:cc="http://creativecommons.org/ns#"
   xmlns:rdf="http://www.w3.org/1999/02/22-rdf-syntax-ns#"
   xmlns:svg="http://www.w3.org/2000/svg"
   xmlns="http://www.w3.org/2000/svg"
   xmlns:xlink="http://www.w3.org/1999/xlink"
   xmlns:sodipodi="http://sodipodi.sourceforge.net/DTD/sodipodi-0.dtd"
   xmlns:inkscape="http://www.inkscape.org/namespaces/inkscape"
   width="96"
   height="96"
   viewBox="0 0 96.000001 96.000004"
   version="1.1"
   id="svg1072"
   inkscape:version="0.92.1 r15371"
   sodipodi:docname="stock_yes.svg">
  <defs
     id="defs1066">
    <linearGradient
       y2="47.000011"
       x2="90"
       y1="47.000011"
       x1="6"
       gradientTransform="matrix(1.1071428,0,0,1.1071426,-4.9939026,-3.620687)"
       gradientUnits="userSpaceOnUse"
       id="linearGradient4071"
       xlink:href="#linearGradient6139-0"
       inkscape:collect="always" />
    <linearGradient
       id="linearGradient6139-0">
      <stop
         style="stop-color:#c1adad;stop-opacity:1;"
         offset="0"
         id="stop6141-2" />
      <stop
         id="stop6151-0"
         offset="0.25"
         style="stop-color:#ffffff;stop-opacity:1;" />
      <stop
         id="stop6147-1"
         offset="0.5"
         style="stop-color:#aa9090;stop-opacity:1;" />
      <stop
         style="stop-color:#fbf9f9;stop-opacity:1;"
         offset="0.75"
         id="stop6149-4" />
      <stop
         style="stop-color:#c1adad;stop-opacity:1;"
         offset="1"
         id="stop6143-4" />
    </linearGradient>
    <linearGradient
       gradientUnits="userSpaceOnUse"
       y2="88.171875"
       x2="94.5"
       y1="88.171875"
       x1="1.5"
       id="linearGradient4129"
       xlink:href="#linearGradient3832-0-6-1-1"
       inkscape:collect="always"
       gradientTransform="translate(0.1489535,0.415026)" />
    <linearGradient
       id="linearGradient3832-0-6-1-1">
      <stop
         id="stop3834-6-3-7-1"
         offset="0"
         style="stop-color:#000000;stop-opacity:1;" />
      <stop
         style="stop-color:#000000;stop-opacity:0.58823532;"
         offset="0.1"
         id="stop3872-2-4" />
      <stop
         id="stop3844-6-2-7-6"
         offset="0.89999998"
         style="stop-color:#000000;stop-opacity:0.58823532;" />
      <stop
         id="stop3836-5-0-2-9"
         offset="1"
         style="stop-color:#000000;stop-opacity:1;" />
    </linearGradient>
    <radialGradient
       r="43.199203"
       fy="44.892841"
       fx="13.948145"
       cy="44.892841"
       cx="13.948145"
       gradientTransform="matrix(0.97513378,0,0,0.04919072,34.047649,80.581722)"
       gradientUnits="userSpaceOnUse"
       id="radialGradient7462"
       xlink:href="#linearGradient3737"
       inkscape:collect="always" />
    <linearGradient
       id="linearGradient3737">
      <stop
         id="stop3739"
         style="stop-color:#ffffff;stop-opacity:1"
         offset="0" />
      <stop
         id="stop3741"
         style="stop-color:#ffffff;stop-opacity:0"
         offset="1" />
    </linearGradient>
    <radialGradient
       r="43.199203"
       fy="44.892841"
       fx="13.948145"
       cy="44.892841"
       cx="13.948145"
       gradientTransform="matrix(0.88832663,0,0,0.04919072,31.959518,-90.31726)"
       gradientUnits="userSpaceOnUse"
       id="radialGradient7464"
       xlink:href="#linearGradient3737"
       inkscape:collect="always" />
    <linearGradient
       y2="14.514202"
       x2="50.527882"
       y1="-28.64156"
       x1="2.7713892"
       gradientUnits="userSpaceOnUse"
       id="linearGradient4767"
       xlink:href="#linearGradient3737"
       inkscape:collect="always" />
    <clipPath
       clipPathUnits="userSpaceOnUse"
       id="clipPath4156-4-1">
      <path
         style="opacity:0.6;fill:#ffffff;fill-opacity:1;stroke:none"
         d="m 27.046336,-55.695463 -14.21366,13.321486 h 0.06127 l 15.653407,21.770763 10.231384,-10.546177 C 38.561832,-32.30156 27.468089,-54.819245 27.046336,-55.695463 Z M 9.6468554,-39.382809 -5.2407289,-25.32124 15.987863,-7.8059573 26.372412,-18.382966 Z m 31.4906096,12.951445 -9.741259,9.713584 8.944804,12.4580526 7.780753,-7.5550056 z m -49.8397109,4.378822 -13.7541661,12.9822847 26.2830181,13.84571 0.06127,-0.0617 -0.122531,-0.0617 L 13.598503,-5.4007374 -8.7022409,-22.052595 Z m 38.0154159,7.400825 -9.802525,9.7752596 11.579232,9.5594001 7.62759,-7.40083 -8.669108,-11.0087257 z m 20.187073,5.6739697 -7.382526,7.2158 6.187844,8.54179 5.820249,-6.13651996 z m -32.195166,6.32154 -9.5574606,9.49772 13.6622686,7.1849703 7.933918,-7.6783603 z m 23.311629,2.37443004 -7.10683,6.93826996 8.362778,6.9074403 5.360756,-5.6739699 -0.06127,-0.0925 -0.0919,0.12335 -6.463539,-8.20258036 z m -8.730374,8.54178036 -7.505057,7.3391599 10.353916,5.45811 c 1.397496,-1.32103 5.67514,-6.12292 5.850882,-6.32154 z"
         id="path4158-0-8"
         inkscape:connector-curvature="0" />
    </clipPath>
    <linearGradient
       x1="10.362526"
       y1="20.410082"
       x2="10.362526"
       y2="4.2521005"
       id="linearGradient3089"
       xlink:href="#linearGradient5408"
       gradientUnits="userSpaceOnUse"
       gradientTransform="matrix(3.0237157,0,0,2.3517789,18.666667,20)" />
    <linearGradient
       x1="10.31979"
       y1="21"
       x2="10.31979"
       y2="0.99929649"
       id="linearGradient5408"
       gradientUnits="userSpaceOnUse">
      <stop
         id="stop5410"
         style="stop-color:#6c9707;stop-opacity:1"
         offset="0" />
      <stop
         id="stop5412"
         style="stop-color:#9edb0a;stop-opacity:1"
         offset="1" />
    </linearGradient>
    <linearGradient
       x1="27"
       y1="48"
       x2="69"
       y2="48"
       id="linearGradient3089-5"
       xlink:href="#linearGradient3669"
       gradientUnits="userSpaceOnUse"
       gradientTransform="rotate(-90,48,48)" />
    <linearGradient
       id="linearGradient3669">
      <stop
         id="stop3671"
         style="stop-color:#ad4405;stop-opacity:1"
         offset="0" />
      <stop
         id="stop3673"
         style="stop-color:#e28416;stop-opacity:1"
         offset="1" />
    </linearGradient>
    <filter
       style="color-interpolation-filters:sRGB"
       id="filter3851">
      <feGaussianBlur
         id="feGaussianBlur3853"
         stdDeviation="0.15745957" />
    </filter>
    <linearGradient
       x1="10.735273"
       y1="5.3143144"
       x2="12.340249"
       y2="15.422365"
       id="linearGradient2902"
       xlink:href="#linearGradient3651"
       gradientUnits="userSpaceOnUse" />
    <linearGradient
       id="linearGradient3651">
      <stop
         id="stop3653"
         style="stop-color:#f3840c;stop-opacity:1"
         offset="0" />
      <stop
         id="stop3655"
         style="stop-color:#f9ba3f;stop-opacity:1"
         offset="1" />
    </linearGradient>
    <linearGradient
       x1="27"
       y1="48"
       x2="69"
       y2="48"
       id="linearGradient3089-5-9"
       xlink:href="#linearGradient3669"
       gradientUnits="userSpaceOnUse"
       gradientTransform="rotate(-90,48,48)" />
    <linearGradient
       x1="13"
       y1="3"
       x2="13"
       y2="19"
       id="linearGradient3022"
       xlink:href="#linearGradient5408"
       gradientUnits="userSpaceOnUse"
       gradientTransform="matrix(3.0881183,0,0,3.0881183,12.636026,15.475182)" />
    <linearGradient
       id="linearGradient3637">
      <stop
         id="stop3639"
         style="stop-color:#f0f0f0;stop-opacity:1"
         offset="0" />
      <stop
         id="stop3641"
         style="stop-color:#aaaaaa;stop-opacity:1"
         offset="1" />
    </linearGradient>
  </defs>
  <sodipodi:namedview
     id="base"
     pagecolor="#ffffff"
     bordercolor="#666666"
     borderopacity="1.0"
     inkscape:pageopacity="0.0"
     inkscape:pageshadow="2"
     inkscape:zoom="1.7760417"
     inkscape:cx="1.5537018"
     inkscape:cy="48"
     inkscape:document-units="px"
     inkscape:current-layer="g2574"
     showgrid="false"
     inkscape:showpageshadow="false"
     units="px"
     inkscape:lockguides="true"
     inkscape:window-width="1280"
     inkscape:window-height="972"
     inkscape:window-x="0"
     inkscape:window-y="26"
     inkscape:window-maximized="1">
    <sodipodi:guide
       position="0,0"
       orientation="0,96"
       id="guide1621"
       inkscape:locked="true" />
    <sodipodi:guide
       position="96.000002,0"
       orientation="-96,0"
       id="guide1623"
       inkscape:locked="true" />
    <sodipodi:guide
       position="96.000002,96.000002"
       orientation="0,-96"
       id="guide1625"
       inkscape:locked="true" />
    <sodipodi:guide
       position="0,96.000002"
       orientation="96,0"
       id="guide1627"
       inkscape:locked="true" />
  </sodipodi:namedview>
  <metadata
     id="metadata1069">
    <rdf:RDF>
      <cc:Work
         rdf:about="">
        <dc:format>image/svg+xml</dc:format>
        <dc:type
           rdf:resource="http://purl.org/dc/dcmitype/StillImage" />
        <dc:title></dc:title>
        <dc:date>2017</dc:date>
        <dc:creator>
          <cc:Agent>
            <dc:title>Cristian Pozzessere &quot;ilnanny&quot;</dc:title>
          </cc:Agent>
        </dc:creator>
        <dc:subject>
          <rdf:Bag>
            <rdf:li>Global language</rdf:li>
          </rdf:Bag>
        </dc:subject>
        <dc:description>Playing with Inkscape on Gnu/Linux O. S.</dc:description>
        <dc:contributor>
          <cc:Agent>
            <dc:title>In the night, alone like a dog.</dc:title>
          </cc:Agent>
        </dc:contributor>
        <cc:license
           rdf:resource="http://creativecommons.org/licenses/by-sa/4.0/" />
      </cc:Work>
      <cc:License
         rdf:about="http://creativecommons.org/licenses/by-sa/4.0/">
        <cc:permits
           rdf:resource="http://creativecommons.org/ns#Reproduction" />
        <cc:permits
           rdf:resource="http://creativecommons.org/ns#Distribution" />
        <cc:requires
           rdf:resource="http://creativecommons.org/ns#Notice" />
        <cc:requires
           rdf:resource="http://creativecommons.org/ns#Attribution" />
        <cc:permits
           rdf:resource="http://creativecommons.org/ns#DerivativeWorks" />
        <cc:requires
           rdf:resource="http://creativecommons.org/ns#ShareAlike" />
      </cc:License>
    </rdf:RDF>
  </metadata>
  <g
     inkscape:label="Livello 1"
     inkscape:groupmode="layer"
     id="layer1"
     transform="translate(0,-1026.5197)">
    <g
       transform="translate(-0.14895645,1026.1047)"
       style="display:inline"
       id="g2574">
      <path
         inkscape:connector-curvature="0"
         id="path3288"
         d="M 89.29181,0.415026 H 7.0060911 c -3.798848,0 -6.8571352,3.058285 -6.8571352,6.8571399 V 89.557884 c 0,3.798857 3.0582872,6.857142 6.8571352,6.857142 H 89.29181 c 3.798857,0 6.857147,-3.058285 6.857147,-6.857142 V 7.2721659 c 0,-3.7988549 -3.05829,-6.8571399 -6.857147,-6.8571399 z"
         style="display:inline;opacity:0.15;fill:#000000;fill-opacity:1;fill-rule:nonzero;stroke:none" />
      <path
         style="display:inline;opacity:0.15;fill:#000000;fill-opacity:1;fill-rule:nonzero;stroke:none"
         d="M 88.648954,1.165026 H 7.6489471 c -3.739492,0 -6.749993,3.010499 -6.749993,6.7499969 V 88.915026 c 0,3.739501 3.010501,6.75 6.749993,6.75 H 88.648954 c 3.739503,0 6.750003,-3.010499 6.750003,-6.75 V 7.9150229 c 0,-3.7394979 -3.0105,-6.7499969 -6.750003,-6.7499969 z"
         id="path4085"
         inkscape:connector-curvature="0" />
      <path
         inkscape:connector-curvature="0"
         id="rect4251-1"
         d="M 88.006093,1.915026 H 8.2918111 c -3.680143,0 -6.6428566,2.962713 -6.6428566,6.6428549 V 88.272171 c 0,3.680142 2.9627136,6.642856 6.6428566,6.642856 H 88.006093 c 3.680143,0 6.642854,-2.962714 6.642854,-6.642856 V 8.5578809 c 0,-3.6801419 -2.962711,-6.6428549 -6.642854,-6.6428549 z"
         style="display:inline;fill:url(#linearGradient4071);fill-opacity:1;fill-rule:nonzero;stroke:none" />
      <path
         sodipodi:nodetypes="sscccsccscccsss"
         inkscape:connector-curvature="0"
         id="path3400-6"
         d="m 11.390247,6.8021682 c -2.8564964,0 -5.1241284,2.2883782 -5.1241284,5.1710028 v 21.42734 7.239403 39.913674 c 1.0972399,1.684484 2.9688485,2.811732 5.1241284,2.811732 h 4.099303 65.588849 4.099302 c 2.155281,0 4.026889,-1.127248 5.124129,-2.811732 V 40.639914 33.400511 11.973171 c 0,-2.8826246 -2.267632,-5.1710028 -5.124129,-5.1710028 z"
         style="display:inline;opacity:0.77864583;fill:#f5f3f3;fill-opacity:1;fill-rule:nonzero;stroke:none;stroke-width:1.02950251" />
      <path
         style="color:#000000;font-style:normal;font-variant:normal;font-weight:normal;font-stretch:normal;font-size:medium;line-height:normal;font-family:Sans;-inkscape-font-specification:Sans;text-indent:0;text-align:start;text-decoration:none;text-decoration-line:none;letter-spacing:normal;word-spacing:normal;text-transform:none;writing-mode:lr-tb;direction:ltr;baseline-shift:baseline;text-anchor:start;display:inline;overflow:visible;visibility:visible;fill:#241f1f;fill-opacity:0.63265303;stroke:none;stroke-width:2.3755002;marker:none;enable-background:accumulate"
         d="m 9.9740341,5.1444869 c -3.116621,0 -5.667965,2.53951 -5.667965,5.6460041 v 69.277996 c 0,3.106495 2.551344,5.646004 5.667965,5.646004 H 86.765819 c 3.116621,0 5.667968,-2.539509 5.667968,-5.646004 V 10.790491 c 0,-3.1064931 -2.551347,-5.6460041 -5.667968,-5.6460041 z m 0,2.319439 H 86.765819 c 1.888099,0 3.352022,1.480095 3.352022,3.3265651 v 69.277996 c 0,1.846474 -1.463923,3.326564 -3.352022,3.326564 H 9.9740341 c -1.888099,0 -3.352022,-1.48009 -3.352022,-3.326564 V 10.790491 c 0,-1.8464701 1.463923,-3.3265651 3.352022,-3.3265651 z"
         id="path4989"
         inkscape:connector-curvature="0" />
      <g
         style="display:inline"
         id="g2581"
         transform="matrix(1.2111437,0,0,1.2111437,-8.2967917,-12.620191)">
        <path
           inkscape:connector-curvature="0"
           d="M 46.605327,23.789346 C 31.949324,23.789346 20,35.738667 20,50.394673 20,65.050679 31.949324,77 46.605327,77 61.26133,77 73.210657,65.050683 73.210654,50.394673 c 0,-14.656006 -11.949324,-26.605327 -26.605327,-26.605327 z m 9.383129,17.162812 3.444439,3.71168 -16.064154,18.261469 -9.501902,-9.412822 3.503826,-3.711681 4.780645,4.30555 c 0.0016,0.0015 0.05772,0.05799 0.05939,0.05939 0.0016,0.0014 0.08735,0.05808 0.08908,0.05939 0.0017,0.0013 0.05759,0.05816 0.05939,0.05939 0.0018,0.0012 0.08723,0.02856 0.08908,0.02969 0.0018,0.0011 0.08717,0.05835 0.08908,0.05939 0.0019,10e-4 0.08712,0.02875 0.08908,0.02969 0.002,9.36e-4 0.08708,0.05855 0.08908,0.05939 0.002,8.35e-4 0.08704,0.02896 0.08908,0.02969 0.002,7.32e-4 0.08701,0.02907 0.08908,0.02969 0.0021,6.28e-4 0.08698,0.02917 0.08908,0.02969 0.0021,5.23e-4 0.08695,-4.15e-4 0.08908,0 0.0021,4.16e-4 0.08693,0.02939 0.08908,0.02969 0.0022,3.06e-4 0.08692,-1.97e-4 0.08908,0 0.0022,1.97e-4 0.116606,0.02961 0.118773,0.02969 0.0022,8.8e-5 0.08691,2.3e-5 0.08908,0 0.0022,-2.2e-5 0.08691,-0.02956 0.08908,-0.02969 0.0022,-1.32e-4 0.08692,2.42e-4 0.08908,0 0.0022,-2.42e-4 0.08694,3.51e-4 0.08908,0 0.0022,-3.52e-4 0.08696,-0.02924 0.08908,-0.02969 0.0021,-4.59e-4 0.11668,-0.02912 0.118774,-0.02969 0.0021,-5.66e-4 0.08702,-0.02902 0.08908,-0.02969 0.0021,-6.72e-4 0.08706,-0.02891 0.08908,-0.02969 0.002,-7.75e-4 0.08709,-0.02882 0.08908,-0.02969 0.002,-8.77e-4 0.08714,-0.02872 0.08908,-0.02969 0.0019,-9.5e-4 0.05751,-0.05831 0.05939,-0.05939 0.0019,-10e-4 0.08726,-0.02852 0.08908,-0.02969 0.0018,-0.0011 0.08731,-0.05812 0.08908,-0.05939 0.0018,-0.0012 0.05769,-0.05804 0.05939,-0.05939 0.0017,-0.0013 0.08745,-0.05795 0.08908,-0.05939 0.0016,-0.0014 0.05783,-0.05788 0.05939,-0.05939 0.0015,-0.0015 0.05791,-0.08749 0.05939,-0.08908 0.0011,-0.0012 0.04223,-0.03992 0.05939,-0.05939 z"
           id="path3923"
           style="display:inline;opacity:0.1;fill:#000000;fill-opacity:1;stroke:none;stroke-width:0.95019025" />
        <path
           inkscape:connector-curvature="0"
           d="m 46.605327,24.68015 c -14.180732,0 -25.714524,11.533788 -25.714524,25.714523 0,14.180735 11.533792,25.714524 25.714524,25.714524 14.180732,0 25.714526,-11.533785 25.714523,-25.714524 0,-14.180735 -11.533791,-25.714523 -25.714523,-25.714523 z m 9.383129,14.965496 4.632177,4.988499 -17.222198,19.56798 -10.749027,-10.659947 4.661871,-4.988499 5.4339,4.899419 a 1.0047937,1.0047937 0 0 0 1.454979,-0.08908 z"
           id="path3919"
           style="display:inline;opacity:0.15;fill:#000000;fill-opacity:1;stroke:none;stroke-width:0.95019025" />
        <path
           d="m 46.605327,25.689727 c -13.637131,0 -24.704947,11.067813 -24.704947,24.704946 0,13.637133 11.067816,24.704947 24.704947,24.704947 13.63713,0 24.704949,-11.06781 24.704946,-24.704947 0,-13.637133 -11.067816,-24.704946 -24.704946,-24.704946 z m 9.360858,12.448976 5.983229,6.465748 -18.52871,21.037806 -12.159465,-12.062962 5.983229,-6.465748 6.176236,5.597215 z"
           inkscape:connector-curvature="0"
           id="path3913"
           style="display:inline;opacity:0.3;fill:#000000;fill-opacity:1;stroke:none;stroke-width:0.95019025" />
        <path
           d="m 46.605327,24.739536 c -13.637131,0 -24.704947,11.067814 -24.704947,24.704947 0,13.637133 11.067816,24.704946 24.704947,24.704946 13.63713,0 24.704949,-11.067809 24.704946,-24.704946 0,-13.637133 -11.067816,-24.704947 -24.704946,-24.704947 z m 9.360858,12.448977 5.983229,6.465748 -18.52871,21.037806 -12.159465,-12.062963 5.983229,-6.465747 6.176236,5.597215 z"
           inkscape:connector-curvature="0"
           id="path2505"
           style="display:inline;opacity:0.69800002;fill:url(#linearGradient3022);fill-opacity:1;stroke:none;stroke-width:0.95019025" />
        <path
           d="m 46.605327,24.739536 c -13.637131,0 -24.704947,11.067814 -24.704947,24.704947 0,0.158486 -0.0029,0.317317 0,0.475095 0.253128,-13.418488 11.226303,-24.229851 24.704947,-24.229851 13.478644,0 24.451818,10.811363 24.704946,24.229851 0.003,-0.157778 0,-0.316609 0,-0.475095 0,-13.637133 -11.067816,-24.704947 -24.704946,-24.704947 z M 61.54113,44.129356 43.428128,64.706914 31.699217,53.067083 31.253816,53.571872 43.428128,65.657104 61.956838,44.604451 Z"
           inkscape:connector-curvature="0"
           id="path3895"
           style="display:inline;opacity:0.75;fill:#ffffff;fill-opacity:1;stroke:none;stroke-width:0.95019025" />
        <path
           d="m 55.958762,36.2309 -12.530634,14.579481 -6.176236,-5.582367 -5.998076,6.443477 0.445401,0.445402 5.552675,-5.938689 6.176236,5.582368 12.530634,-14.579482 5.582368,5.998076 0.415708,-0.475095 z M 21.90038,48.969388 c -0.0029,0.157778 0,0.316609 0,0.475095 0,13.637133 11.067816,24.704946 24.704947,24.704946 13.63713,0 24.704949,-11.067809 24.704946,-24.704946 0,-0.158486 0.0029,-0.317317 0,-0.475095 -0.253125,13.418491 -11.226302,24.229851 -24.704946,24.229851 -13.478644,0 -24.451819,-10.811363 -24.704947,-24.229851 z"
           inkscape:connector-curvature="0"
           id="path3904"
           style="display:inline;opacity:0.15;fill:#f9f9f9;fill-opacity:1;stroke:none;stroke-width:0.95019025" />
      </g>
      <path
         id="path4118"
         d="m 1.6489535,82.258776 v 6 c 0,3.680142 2.9761066,6.65625 6.6562496,6.65625 H 87.992703 c 3.680143,0 6.656254,-2.976108 6.656254,-6.65625 v -6 c 0,3.680142 -2.976111,6.65625 -6.656254,6.65625 H 8.3052031 c -3.680143,0 -6.6562496,-2.976108 -6.6562496,-6.65625 z"
         style="display:inline;opacity:0.65818182;fill:url(#linearGradient4129);fill-opacity:1;fill-rule:nonzero;stroke:none"
         inkscape:connector-curvature="0" />
      <rect
         ry="4.25"
         rx="0"
         y="80.665031"
         x="5.5239539"
         height="4.25"
         width="84.250008"
         id="rect4131"
         style="opacity:0.55;fill:url(#radialGradient7462);fill-opacity:1;stroke:none" />
      <rect
         transform="rotate(90)"
         style="opacity:0.669;fill:url(#radialGradient7464);fill-opacity:1;stroke:none"
         id="rect4141"
         width="76.75"
         height="4.25"
         x="5.9750223"
         y="-90.233963"
         rx="0"
         ry="4.25" />
      <rect
         clip-path="url(#clipPath4156-4-1)"
         ry="3.9569881"
         rx="3.9569874"
         y="-30"
         x="2"
         height="69.024437"
         width="75.965775"
         id="rect4146"
         style="opacity:0.5078125;fill:url(#linearGradient4767);fill-opacity:1;stroke:none"
         transform="matrix(1.0692451,0,0,1.0476829,4.4441802,38.894013)" />
      <g
         transform="translate(-46.297342,-0.585)"
         id="layer6"
         style="display:inline" />
      <g
         transform="matrix(1.2111437,0,0,1.2111437,-9.9859412,-10.931041)"
         style="display:inline"
         id="g2528" />
    </g>
  </g>
</svg>
