<?xml version="1.0" encoding="UTF-8" standalone="no"?>
<svg
   xmlns:dc="http://purl.org/dc/elements/1.1/"
   xmlns:cc="http://creativecommons.org/ns#"
   xmlns:rdf="http://www.w3.org/1999/02/22-rdf-syntax-ns#"
   xmlns:svg="http://www.w3.org/2000/svg"
   xmlns="http://www.w3.org/2000/svg"
   xmlns:xlink="http://www.w3.org/1999/xlink"
   xmlns:sodipodi="http://sodipodi.sourceforge.net/DTD/sodipodi-0.dtd"
   xmlns:inkscape="http://www.inkscape.org/namespaces/inkscape"
   viewBox="0 0 96 96"
   version="1.1"
   id="svg214"
   sodipodi:docname="texlion.svg"
   inkscape:version="0.92.2 5c3e80d, 2017-08-06">
  <metadata
     id="metadata218">
    <rdf:RDF>
      <cc:Work
         rdf:about="">
        <dc:format>image/svg+xml</dc:format>
        <dc:type
           rdf:resource="http://purl.org/dc/dcmitype/StillImage" />
      </cc:Work>
    </rdf:RDF>
  </metadata>
  <sodipodi:namedview
     pagecolor="#ffffff"
     bordercolor="#666666"
     borderopacity="1"
     objecttolerance="10"
     gridtolerance="10"
     guidetolerance="10"
     inkscape:pageopacity="0"
     inkscape:pageshadow="2"
     inkscape:window-width="1280"
     inkscape:window-height="941"
     id="namedview216"
     showgrid="false"
     inkscape:zoom="2.4583333"
     inkscape:cx="-6.5084746"
     inkscape:cy="48"
     inkscape:window-x="0"
     inkscape:window-y="21"
     inkscape:window-maximized="1"
     inkscape:current-layer="svg214" />
  <defs
     id="defs3051">
    <style
       type="text/css"
       id="current-color-scheme">
      .ColorScheme-Text {
        color:#4d4d4d;
      }
      </style>
    <linearGradient
       id="linearGradient6139-0">
      <stop
         id="stop6141-2"
         offset="0"
         style="stop-color:#b2babc;stop-opacity:1" />
      <stop
         style="stop-color:#ffffff;stop-opacity:1;"
         offset="0.25"
         id="stop6151-0" />
      <stop
         style="stop-color:#96a1a4;stop-opacity:1"
         offset="0.5"
         id="stop6147-1" />
      <stop
         id="stop6149-4"
         offset="0.75"
         style="stop-color:#fbf9f9;stop-opacity:1;" />
      <stop
         id="stop6143-4"
         offset="1"
         style="stop-color:#b2b9bc;stop-opacity:1" />
    </linearGradient>
    <linearGradient
       id="linearGradient3832-0-6-1-1">
      <stop
         style="stop-color:#000000;stop-opacity:1;"
         offset="0"
         id="stop3834-6-3-7-1" />
      <stop
         id="stop3872-2-4"
         offset="0.1"
         style="stop-color:#000000;stop-opacity:0.58823532;" />
      <stop
         style="stop-color:#000000;stop-opacity:0.58823532;"
         offset="0.89999998"
         id="stop3844-6-2-7-6" />
      <stop
         style="stop-color:#000000;stop-opacity:1;"
         offset="1"
         id="stop3836-5-0-2-9" />
    </linearGradient>
    <linearGradient
       id="linearGradient3737">
      <stop
         offset="0"
         style="stop-color:#ffffff;stop-opacity:1"
         id="stop3739" />
      <stop
         offset="1"
         style="stop-color:#ffffff;stop-opacity:0"
         id="stop3741" />
    </linearGradient>
    <clipPath
       id="clipPath4156-4-1"
       clipPathUnits="userSpaceOnUse">
      <path
         inkscape:connector-curvature="0"
         id="path4158-0-8"
         d="m 27.046336,-55.695463 -14.21366,13.321486 h 0.06127 l 15.653407,21.770763 10.231384,-10.546177 C 38.561832,-32.30156 27.468089,-54.819245 27.046336,-55.695463 Z M 9.6468554,-39.382809 -5.2407289,-25.32124 15.987863,-7.8059573 26.372412,-18.382966 Z m 31.4906096,12.951445 -9.741259,9.713584 8.944804,12.4580526 7.780753,-7.5550056 z m -49.8397109,4.378822 -13.7541661,12.9822847 26.2830181,13.84571 0.06127,-0.0617 -0.122531,-0.0617 L 13.598503,-5.4007374 -8.7022409,-22.052595 Z m 38.0154159,7.400825 -9.802525,9.7752596 11.579232,9.5594001 7.62759,-7.40083 -8.669108,-11.0087257 z m 20.187073,5.6739697 -7.382526,7.2158 6.187844,8.54179 5.820249,-6.13651996 z m -32.195166,6.32154 -9.5574606,9.49772 13.6622686,7.1849703 7.933918,-7.6783603 z m 23.311629,2.37443004 -7.10683,6.93826996 8.362778,6.9074403 5.360756,-5.6739699 -0.06127,-0.0925 -0.0919,0.12335 -6.463539,-8.20258036 z m -8.730374,8.54178036 -7.505057,7.3391599 10.353916,5.45811 c 1.397496,-1.32103 5.67514,-6.12292 5.850882,-6.32154 z"
         style="opacity:0.6;fill:#ffffff;fill-opacity:1;stroke:none" />
    </clipPath>
    <linearGradient
       id="ButtonShadow-16"
       gradientTransform="scale(1.0058652,0.994169)"
       x1="45.447727"
       y1="92.539597"
       x2="45.447727"
       y2="7.0165396"
       gradientUnits="userSpaceOnUse">
      <stop
         style="stop-color:#000000;stop-opacity:1;"
         offset="0"
         id="stop3750-6" />
      <stop
         style="stop-color:#000000;stop-opacity:0.58823532;"
         offset="1"
         id="stop3752-4" />
    </linearGradient>
    <clipPath
       clipPathUnits="userSpaceOnUse"
       id="clipPath4355-7">
      <rect
         style="fill:#ffffff;fill-opacity:1;fill-rule:nonzero;stroke:none"
         id="rect4357-5"
         width="84"
         height="80"
         x="6"
         y="6"
         rx="6"
         ry="6" />
    </clipPath>
    <clipPath
       clipPathUnits="userSpaceOnUse"
       id="clipPath4355-9">
      <rect
         style="fill:#ffffff;fill-opacity:1;fill-rule:nonzero;stroke:none"
         id="rect4357-1"
         width="84"
         height="80"
         x="6"
         y="6"
         rx="6"
         ry="6" />
    </clipPath>
    <clipPath
       clipPathUnits="userSpaceOnUse"
       id="clipPath4355-1">
      <rect
         style="fill:#ffffff;fill-opacity:1;fill-rule:nonzero;stroke:none"
         id="rect4357-9"
         width="84"
         height="80"
         x="6"
         y="6"
         rx="6"
         ry="6" />
    </clipPath>
    <clipPath
       clipPathUnits="userSpaceOnUse"
       id="clipPath3943-52-0">
      <path
         id="path3945-4-1"
         d="m 69.78125,20.84375 -5,3.4375 c 5.586891,5.537137 9,13.327613 9,21.8125 0,8.434478 -3.37723,16.095981 -8.90625,21.625 l 5,3.4375 C 76.078226,64.5762 80,55.843726 80,46.09375 c 2e-6,-9.796556 -3.962955,-18.660417 -10.21875,-25.25 z M 40,24.0625 28.90625,36.21875 H 21.5 c -0.823281,0 -1.5,0.676717 -1.5,1.5 v 1 14.84375 1 c 0,0.823281 0.684121,1.610161 1.5,1.5 h 7.40625 L 40,68 V 66 26.0625 Z m 20.59375,3.28125 -5,3.4375 L 55.5,30.875 c 3.93815,3.890071 6.40625,9.25018 6.40625,15.21875 0,5.920869 -2.42961,11.148358 -6.3125,15.03125 l 0.09375,0.09375 5.09375,3.4375 c 4.475428,-4.908367 7.25,-11.402005 7.25,-18.5625 0,-7.230696 -2.87904,-13.83107 -7.4375,-18.75 z m -9.25,6.5 -5.21875,3.625 c 2.222384,2.217802 3.71875,5.239596 3.71875,8.625 0,3.336509 -1.458847,6.227712 -3.625,8.4375 l 5.21875,3.625 c 2.822412,-3.236947 4.53125,-7.43414 4.53125,-12.0625 0,-4.672601 -1.754155,-9.001351 -4.625,-12.25 z"
         style="color:#000000;display:inline;overflow:visible;visibility:visible;opacity:0.8;fill:#ff00ff;fill-opacity:1;fill-rule:nonzero;stroke:none;stroke-width:1;marker:none;enable-background:accumulate"
         inkscape:connector-curvature="0" />
    </clipPath>
    <linearGradient
       inkscape:collect="always"
       xlink:href="#linearGradient6139-0"
       id="linearGradient4071"
       gradientUnits="userSpaceOnUse"
       gradientTransform="matrix(1.1071428,0,0,1.1071426,-5.142859,-4.035687)"
       x1="6"
       y1="47.000011"
       x2="90"
       y2="47.000011" />
    <linearGradient
       gradientTransform="translate(-2.95e-6,2.6e-5)"
       inkscape:collect="always"
       xlink:href="#linearGradient3832-0-6-1-1"
       id="linearGradient4129"
       x1="1.5"
       y1="88.171875"
       x2="94.5"
       y2="88.171875"
       gradientUnits="userSpaceOnUse" />
    <radialGradient
       inkscape:collect="always"
       xlink:href="#linearGradient3737"
       id="radialGradient7462"
       gradientUnits="userSpaceOnUse"
       gradientTransform="matrix(0.97513378,0,0,0.04919072,33.898693,80.166722)"
       cx="13.948145"
       cy="44.892841"
       fx="13.948145"
       fy="44.892841"
       r="43.199203" />
    <radialGradient
       inkscape:collect="always"
       xlink:href="#linearGradient3737"
       id="radialGradient7464"
       gradientUnits="userSpaceOnUse"
       gradientTransform="matrix(0.88832663,0,0,0.04919072,31.544518,-90.168304)"
       cx="13.948145"
       cy="44.892841"
       fx="13.948145"
       fy="44.892841"
       r="43.199203" />
    <linearGradient
       inkscape:collect="always"
       xlink:href="#linearGradient3737"
       id="linearGradient4767"
       gradientUnits="userSpaceOnUse"
       x1="2.7713892"
       y1="-28.64156"
       x2="50.527882"
       y2="14.514202" />
    <clipPath
       id="clipPath4156-4-1-0"
       clipPathUnits="userSpaceOnUse">
      <path
         inkscape:connector-curvature="0"
         id="path4158-0-8-9"
         d="m 27.046336,-55.695463 -14.21366,13.321486 h 0.06127 l 15.653407,21.770763 10.231384,-10.546177 C 38.561832,-32.30156 27.468089,-54.819245 27.046336,-55.695463 Z M 9.6468554,-39.382809 -5.2407289,-25.32124 15.987863,-7.8059573 26.372412,-18.382966 Z m 31.4906096,12.951445 -9.741259,9.713584 8.944804,12.4580526 7.780753,-7.5550056 z m -49.8397109,4.378822 -13.7541661,12.9822847 26.2830181,13.84571 0.06127,-0.0617 -0.122531,-0.0617 L 13.598503,-5.4007374 -8.7022409,-22.052595 Z m 38.0154159,7.400825 -9.802525,9.7752596 11.579232,9.5594001 7.62759,-7.40083 -8.669108,-11.0087257 z m 20.187073,5.6739697 -7.382526,7.2158 6.187844,8.54179 5.820249,-6.13651996 z m -32.195166,6.32154 -9.5574606,9.49772 13.6622686,7.1849703 7.933918,-7.6783603 z m 23.311629,2.37443004 -7.10683,6.93826996 8.362778,6.9074403 5.360756,-5.6739699 -0.06127,-0.0925 -0.0919,0.12335 -6.463539,-8.20258036 z m -8.730374,8.54178036 -7.505057,7.3391599 10.353916,5.45811 c 1.397496,-1.32103 5.67514,-6.12292 5.850882,-6.32154 z"
         style="opacity:0.6;fill:#ffffff;fill-opacity:1;stroke:none" />
    </clipPath>
  </defs>
  <g
     transform="translate(-2.25e-7,-2.6e-5)"
     id="g2448">
    <path
       inkscape:connector-curvature="0"
       id="path3288"
       d="M 89.142854,2.6e-5 H 6.8571346 C 3.0582867,2.6e-5 -5.5e-7,3.058311 -5.5e-7,6.8571659 V 89.142884 c 0,3.798857 3.05828725,6.857142 6.85713515,6.857142 H 89.142854 c 3.798857,0 6.857147,-3.058285 6.857147,-6.857142 V 6.8571659 C 96.000001,3.058311 92.941711,2.6e-5 89.142854,2.6e-5 Z"
       style="display:inline;opacity:0.15;fill:#000000;fill-opacity:1;fill-rule:nonzero;stroke:none" />
    <path
       style="display:inline;opacity:0.15;fill:#000000;fill-opacity:1;fill-rule:nonzero;stroke:none"
       d="M 88.499998,0.750026 H 7.4999906 c -3.7394919,0 -6.74999295,3.010499 -6.74999295,6.7499969 V 88.500026 c 0,3.739501 3.01050105,6.75 6.74999295,6.75 H 88.499998 c 3.739503,0 6.750003,-3.010499 6.750003,-6.75 V 7.5000229 c 0,-3.7394979 -3.0105,-6.7499969 -6.750003,-6.7499969 z"
       id="path4085"
       inkscape:connector-curvature="0" />
    <path
       inkscape:connector-curvature="0"
       id="rect4251-1"
       d="M 87.857137,1.500026 H 8.1428547 c -3.6801431,0 -6.6428566,2.962713 -6.6428566,6.6428549 V 87.857171 c 0,3.680142 2.9627135,6.642856 6.6428566,6.642856 H 87.857137 c 3.680143,0 6.642854,-2.962714 6.642854,-6.642856 V 8.1428809 c 0,-3.6801419 -2.962711,-6.6428549 -6.642854,-6.6428549 z"
       style="display:inline;fill:url(#linearGradient4071);fill-opacity:1;fill-rule:nonzero;stroke:none" />
    <path
       sodipodi:nodetypes="sscccsccscccsss"
       inkscape:connector-curvature="0"
       id="path3400-6"
       d="m 11.241291,6.3871682 c -2.8564968,0 -5.1241288,2.2883782 -5.1241288,5.1710028 v 21.42734 7.239403 39.913674 c 1.0972399,1.684484 2.9688485,2.811732 5.1241288,2.811732 h 4.099303 65.588849 4.099302 c 2.155281,0 4.026889,-1.127248 5.124129,-2.811732 V 40.224914 32.985511 11.558171 c 0,-2.8826246 -2.267632,-5.1710028 -5.124129,-5.1710028 z"
       style="display:inline;opacity:0.9;fill:#e8e8e8;fill-opacity:1;fill-rule:nonzero;stroke:none;stroke-width:1.02950251" />
    <path
       style="color:#000000;font-style:normal;font-variant:normal;font-weight:normal;font-stretch:normal;font-size:medium;line-height:normal;font-family:Sans;-inkscape-font-specification:Sans;text-indent:0;text-align:start;text-decoration:none;text-decoration-line:none;letter-spacing:normal;word-spacing:normal;text-transform:none;writing-mode:lr-tb;direction:ltr;baseline-shift:baseline;text-anchor:start;display:inline;overflow:visible;visibility:visible;fill:#1f2224;fill-opacity:0.63265303;stroke:none;stroke-width:2.3755002;marker:none;enable-background:accumulate"
       d="m 9.8250777,4.7294869 c -3.116621,0 -5.667965,2.53951 -5.667965,5.6460041 v 69.277996 c 0,3.106495 2.551344,5.646004 5.667965,5.646004 H 86.616863 c 3.116621,0 5.667968,-2.539509 5.667968,-5.646004 V 10.375491 c 0,-3.1064931 -2.551347,-5.6460041 -5.667968,-5.6460041 z m 0,2.319439 H 86.616863 c 1.888099,0 3.352022,1.480095 3.352022,3.3265651 v 69.277996 c 0,1.846474 -1.463923,3.326564 -3.352022,3.326564 H 9.8250777 c -1.888099,0 -3.352022,-1.48009 -3.352022,-3.326564 V 10.375491 c 0,-1.8464701 1.463923,-3.3265651 3.352022,-3.3265651 z"
       id="path4989"
       inkscape:connector-curvature="0" />
    <path
       id="path4118"
       d="m 1.499997,81.843776 v 6 c 0,3.680142 2.9761066,6.65625 6.6562497,6.65625 H 87.843747 c 3.680143,0 6.656254,-2.976108 6.656254,-6.65625 v -6 c 0,3.680142 -2.976111,6.65625 -6.656254,6.65625 H 8.1562467 c -3.6801431,0 -6.6562496,-2.976108 -6.6562497,-6.65625 z"
       style="display:inline;opacity:0.65818182;fill:url(#linearGradient4129);fill-opacity:1;fill-rule:nonzero;stroke:none"
       inkscape:connector-curvature="0" />
    <rect
       ry="4.25"
       rx="4.25"
       y="80.250031"
       x="5.3749976"
       height="4.25"
       width="84.250008"
       id="rect4131"
       style="opacity:0.55;fill:url(#radialGradient7462);fill-opacity:1;stroke:none" />
    <rect
       transform="rotate(90)"
       style="opacity:0.669;fill:url(#radialGradient7464);fill-opacity:1;stroke:none"
       id="rect4141"
       width="76.75"
       height="4.25"
       x="5.5600224"
       y="-90.085007"
       rx="4.25"
       ry="4.25" />
    <path
       inkscape:connector-curvature="0"
       id="path222"
       class="ColorScheme-Text"
       d="m 45.614357,76.546616 c -2.32079,-3.613307 -3.153041,-4.194274 -4.2043,-2.93488 -0.392173,0.46982 -0.925007,0.854216 -1.184074,0.854216 -0.259057,0 -1.726591,-1.749377 -3.26116,-3.887499 -3.044184,-4.241478 -4.525679,-4.746802 -5.096981,-1.738535 -0.317753,1.673196 -0.47661,1.498268 -2.857456,-3.146573 -1.386543,-2.705046 -2.931725,-5.074973 -3.433731,-5.266495 -0.502006,-0.191525 -1.60127,-0.03643 -2.442806,0.344874 -0.841537,0.381226 -1.664892,0.559081 -1.829679,0.395245 -0.164789,-0.163846 0.281988,-2.603377 0.992795,-5.421193 1.538867,-6.100332 1.211128,-6.975275 -2.397906,-6.40149 -1.776727,0.282472 -2.316007,0.172228 -2.316007,-0.473612 0,-0.463004 1.720476,-3.745026 3.82328,-7.29338 3.594784,-6.06599 3.770411,-6.531779 2.938717,-7.793796 -2.170309,-3.293238 1.058517,-7.348654 5.850828,-7.348654 1.263593,0 2.297443,-0.161622 2.297443,-0.359145 0,-0.197521 -0.670963,-1.151934 -1.491028,-2.120913 -0.820065,-0.968978 -1.491025,-1.975647 -1.491025,-2.237042 0,-0.261396 1.763957,-0.1457 3.919902,0.257118 l 3.919905,0.732387 -0.370252,-1.466761 C 36.77717,20.43377 36.456913,19.009935 36.269128,18.076409 l -0.341434,-1.697318 3.759896,1.518984 3.759894,1.518985 1.055444,-1.383171 c 0.580495,-0.760747 1.511382,-2.383824 2.068637,-3.606837 0.557259,-1.223016 1.200057,-2.223662 1.428448,-2.223662 0.228397,0 0.871192,1.000646 1.428444,2.223662 0.557262,1.223013 1.488146,2.84609 2.06864,3.606837 l 1.055444,1.383171 3.759893,-1.518985 3.759894,-1.518984 -0.341437,1.697318 c -0.187774,0.933526 -0.511837,2.372374 -0.720115,3.197447 -0.411105,1.628542 -0.599346,1.625335 6.136042,0.104584 1.83671,-0.414703 1.683223,0.477812 -0.509089,2.960345 l -1.851017,2.09605 h 2.657424 c 5.154849,0 8.469282,3.921648 6.21082,7.348653 -0.831694,1.262018 -0.656059,1.727806 2.938714,7.793796 2.102808,3.548357 3.823278,6.83038 3.823278,7.29338 0,0.645809 -0.539275,0.756091 -2.316007,0.473615 -3.609032,-0.573788 -3.936774,0.301162 -2.397897,6.401487 0.710818,2.81782 1.157575,5.25736 0.992786,5.421193 -0.164792,0.163846 -0.988139,-0.01386 -1.829671,-0.395241 -0.841545,-0.381219 -1.940811,-0.536424 -2.442809,-0.344878 -0.502004,0.191525 -2.047185,2.561448 -3.433732,5.266495 -2.380839,4.644837 -2.539693,4.819765 -2.857459,3.146573 -0.571291,-3.008267 -2.052786,-2.502943 -5.096975,1.738535 -1.534576,2.138122 -3.002096,3.887499 -3.261157,3.887499 -0.259051,0 -0.791905,-0.384396 -1.184077,-0.85422 -1.051261,-1.25939 -1.883509,-0.678423 -4.204299,2.934884 -1.148087,1.787506 -2.221627,3.250004 -2.385642,3.250004 -0.164048,0 -1.237554,-1.462498 -2.385645,-3.250004 z m 7.42132,-11.70023 c 1.478278,-2.098391 1.196143,-3.425912 -0.728097,-3.425912 -0.911096,0 -2.253014,-0.415394 -2.982057,-0.923087 -1.199702,-0.835472 -1.451348,-0.835472 -2.651047,0 -0.72904,0.507693 -2.070969,0.923087 -2.982055,0.923087 -1.92425,0 -2.206381,1.327521 -0.728097,3.425912 0.80659,1.144937 1.467472,1.317898 5.035675,1.317898 3.568199,0 4.229082,-0.172971 5.035678,-1.317898 z m -7.992192,-5.218437 c 0.626965,-0.333606 1.415484,-1.118451 1.75226,-1.744091 0.511914,-0.951013 0.314376,-1.312522 -1.20489,-2.204793 -1.375958,-0.808114 -1.774755,-1.428515 -1.642367,-2.554986 0.166617,-1.41789 0.356811,-1.487717 4.051515,-1.487717 3.713652,0 3.884133,0.06374 4.054197,1.515359 0.131131,1.119411 -0.219475,1.726611 -1.341931,2.323865 -1.872147,0.996172 -1.953752,2.610308 -0.193892,3.835848 2.036719,1.418355 3.116872,1.121138 4.687763,-1.289892 0.793017,-1.217134 2.584352,-2.839189 3.980747,-3.604567 1.396398,-0.765372 2.829543,-1.931531 3.184776,-2.591453 1.084084,-2.013971 1.817534,-8.705365 1.100269,-10.037878 -0.349856,-0.64998 -3.492295,-3.436318 -6.983167,-6.191864 -8.427168,-6.652049 -8.479107,-6.652045 -16.94984,0.0017 -3.505516,2.753582 -6.660152,5.538733 -7.0103,6.189224 -0.724675,1.346266 0.01926,8.031424 1.121611,10.079374 0.367231,0.682239 1.532001,1.674666 2.588358,2.205398 2.353232,1.182293 4.604503,3.173397 4.604503,4.072369 0,1.788899 2.180029,2.559141 4.200422,1.484084 z M 40.843069,45.459521 c 0,-0.353323 -0.518493,-0.642389 -1.152208,-0.642389 -1.17101,0 -4.035751,-3.341239 -3.403615,-3.96974 0.190092,-0.188997 1.628376,0.179798 3.19622,0.81953 2.258854,0.921673 2.850632,1.451454 2.850632,2.551987 0,0.76387 -0.335465,1.500038 -0.745513,1.635931 -0.410034,0.135896 -0.745516,-0.04201 -0.745516,-0.395319 z m 12.740306,-0.345888 c -0.188788,-0.489206 -0.206666,-1.243499 -0.03968,-1.676207 0.336175,-0.871058 5.668844,-3.087317 6.187578,-2.571569 0.618545,0.61497 -2.271004,3.951289 -3.422154,3.951289 -0.63371,0 -1.152211,0.266858 -1.152211,0.592978 0,0.92183 -1.189863,0.697636 -1.573553,-0.296498 z M 32.49332,35.913404 c 0.634074,-0.413846 0.697591,-0.713416 0.21808,-1.028629 -0.372103,-0.244612 -0.777038,-0.971708 -0.899898,-1.615789 -0.278661,-1.460926 -2.585899,-2.663059 -5.133201,-2.674546 -2.530204,-0.01127 -2.509937,1.083162 0.07044,3.803382 2.034331,2.144597 3.99022,2.660619 5.744583,1.515582 z m 36.757937,-1.515582 c 2.580361,-2.72022 2.600622,-3.814795 0.07043,-3.803382 -2.547301,0.01163 -4.854531,1.21362 -5.133198,2.674546 -0.122851,0.644081 -0.527819,1.371188 -0.899902,1.615789 -0.479496,0.315211 -0.415979,0.614783 0.218089,1.028629 1.754365,1.145037 3.710253,0.629015 5.744579,-1.515582 z m -34.15148,-3.727103 c 0.881995,-0.968979 0.895879,-1.188578 0.115838,-1.832234 -1.335291,-1.101814 -5.176828,-1.412833 -7.195365,-0.582556 l -1.789232,0.735962 2.194379,0.400257 c 1.20691,0.220128 2.817221,0.831588 3.578464,1.358777 1.781323,1.233617 1.902913,1.230471 3.095927,-0.08021 z m 28.77743,0.109838 c 0.836757,-0.545109 2.504721,-1.170552 3.706583,-1.389877 l 2.185197,-0.398774 -1.789229,-0.735962 c -2.018537,-0.830277 -5.860076,-0.519258 -7.195363,0.582556 -0.780049,0.643656 -0.766169,0.863255 0.115855,1.832233 1.214785,1.334602 1.103236,1.330486 2.976984,0.109839 z"
       style="color:#4d4d4d;fill:currentColor;fill-opacity:1;stroke:none;stroke-width:0.99999994" />
    <rect
       clip-path="url(#clipPath4156-4-1-0)"
       ry="3.9569881"
       rx="3.9569874"
       y="-30"
       x="2"
       height="69.024437"
       width="75.965775"
       id="rect4146"
       style="opacity:0.65;fill:url(#linearGradient4767);fill-opacity:1;stroke:none"
       transform="matrix(1.0692451,0,0,1.0476829,4.2952237,38.479013)" />
  </g>
</svg>
