<?xml version="1.0" encoding="UTF-8" standalone="no"?>
<!-- Created with Inkscape (http://www.inkscape.org/) -->

<svg
   xmlns:dc="http://purl.org/dc/elements/1.1/"
   xmlns:cc="http://creativecommons.org/ns#"
   xmlns:rdf="http://www.w3.org/1999/02/22-rdf-syntax-ns#"
   xmlns:svg="http://www.w3.org/2000/svg"
   xmlns="http://www.w3.org/2000/svg"
   xmlns:xlink="http://www.w3.org/1999/xlink"
   xmlns:sodipodi="http://sodipodi.sourceforge.net/DTD/sodipodi-0.dtd"
   xmlns:inkscape="http://www.inkscape.org/namespaces/inkscape"
   width="96"
   height="96"
   viewBox="0 0 96.000001 96.000004"
   version="1.1"
   id="svg1072"
   inkscape:version="0.92.1 r15371"
   sodipodi:docname="text_strike.svg">
  <defs
     id="defs1066">
    <linearGradient
       y2="47.000011"
       x2="90"
       y1="47.000011"
       x1="6"
       gradientTransform="matrix(1.1071428,0,0,1.1071426,-4.9939026,-3.620687)"
       gradientUnits="userSpaceOnUse"
       id="linearGradient4071"
       xlink:href="#linearGradient6139-0"
       inkscape:collect="always" />
    <linearGradient
       id="linearGradient6139-0">
      <stop
         style="stop-color:#c1adad;stop-opacity:1;"
         offset="0"
         id="stop6141-2" />
      <stop
         id="stop6151-0"
         offset="0.25"
         style="stop-color:#ffffff;stop-opacity:1;" />
      <stop
         id="stop6147-1"
         offset="0.5"
         style="stop-color:#aa9090;stop-opacity:1;" />
      <stop
         style="stop-color:#fbf9f9;stop-opacity:1;"
         offset="0.75"
         id="stop6149-4" />
      <stop
         style="stop-color:#c1adad;stop-opacity:1;"
         offset="1"
         id="stop6143-4" />
    </linearGradient>
    <linearGradient
       gradientUnits="userSpaceOnUse"
       y2="88.171875"
       x2="94.5"
       y1="88.171875"
       x1="1.5"
       id="linearGradient4129"
       xlink:href="#linearGradient3832-0-6-1-1"
       inkscape:collect="always"
       gradientTransform="translate(0.1489535,0.415026)" />
    <linearGradient
       id="linearGradient3832-0-6-1-1">
      <stop
         id="stop3834-6-3-7-1"
         offset="0"
         style="stop-color:#000000;stop-opacity:1;" />
      <stop
         style="stop-color:#000000;stop-opacity:0.58823532;"
         offset="0.1"
         id="stop3872-2-4" />
      <stop
         id="stop3844-6-2-7-6"
         offset="0.89999998"
         style="stop-color:#000000;stop-opacity:0.58823532;" />
      <stop
         id="stop3836-5-0-2-9"
         offset="1"
         style="stop-color:#000000;stop-opacity:1;" />
    </linearGradient>
    <radialGradient
       r="43.199203"
       fy="44.892841"
       fx="13.948145"
       cy="44.892841"
       cx="13.948145"
       gradientTransform="matrix(0.97513378,0,0,0.04919072,34.047649,80.581722)"
       gradientUnits="userSpaceOnUse"
       id="radialGradient7462"
       xlink:href="#linearGradient3737"
       inkscape:collect="always" />
    <linearGradient
       id="linearGradient3737">
      <stop
         id="stop3739"
         style="stop-color:#ffffff;stop-opacity:1"
         offset="0" />
      <stop
         id="stop3741"
         style="stop-color:#ffffff;stop-opacity:0"
         offset="1" />
    </linearGradient>
    <radialGradient
       r="43.199203"
       fy="44.892841"
       fx="13.948145"
       cy="44.892841"
       cx="13.948145"
       gradientTransform="matrix(0.88832663,0,0,0.04919072,31.959518,-90.31726)"
       gradientUnits="userSpaceOnUse"
       id="radialGradient7464"
       xlink:href="#linearGradient3737"
       inkscape:collect="always" />
    <linearGradient
       y2="14.514202"
       x2="50.527882"
       y1="-28.64156"
       x1="2.7713892"
       gradientUnits="userSpaceOnUse"
       id="linearGradient4767"
       xlink:href="#linearGradient3737"
       inkscape:collect="always" />
    <clipPath
       clipPathUnits="userSpaceOnUse"
       id="clipPath4156-4-1">
      <path
         style="opacity:0.6;fill:#ffffff;fill-opacity:1;stroke:none"
         d="m 27.046336,-55.695463 -14.21366,13.321486 h 0.06127 l 15.653407,21.770763 10.231384,-10.546177 C 38.561832,-32.30156 27.468089,-54.819245 27.046336,-55.695463 Z M 9.6468554,-39.382809 -5.2407289,-25.32124 15.987863,-7.8059573 26.372412,-18.382966 Z m 31.4906096,12.951445 -9.741259,9.713584 8.944804,12.4580526 7.780753,-7.5550056 z m -49.8397109,4.378822 -13.7541661,12.9822847 26.2830181,13.84571 0.06127,-0.0617 -0.122531,-0.0617 L 13.598503,-5.4007374 -8.7022409,-22.052595 Z m 38.0154159,7.400825 -9.802525,9.7752596 11.579232,9.5594001 7.62759,-7.40083 -8.669108,-11.0087257 z m 20.187073,5.6739697 -7.382526,7.2158 6.187844,8.54179 5.820249,-6.13651996 z m -32.195166,6.32154 -9.5574606,9.49772 13.6622686,7.1849703 7.933918,-7.6783603 z m 23.311629,2.37443004 -7.10683,6.93826996 8.362778,6.9074403 5.360756,-5.6739699 -0.06127,-0.0925 -0.0919,0.12335 -6.463539,-8.20258036 z m -8.730374,8.54178036 -7.505057,7.3391599 10.353916,5.45811 c 1.397496,-1.32103 5.67514,-6.12292 5.850882,-6.32154 z"
         id="path4158-0-8"
         inkscape:connector-curvature="0" />
    </clipPath>
    <linearGradient
       x1="12.070416"
       y1="3.1332362"
       x2="12.070416"
       y2="19.05331"
       id="linearGradient3823"
       xlink:href="#linearGradient3832-0-6-1-1"
       gradientUnits="userSpaceOnUse"
       gradientTransform="matrix(3,0,0,3,15,20)" />
    <linearGradient
       id="linearGradient3637">
      <stop
         id="stop3639"
         style="stop-color:#f0f0f0;stop-opacity:1"
         offset="0" />
      <stop
         id="stop3641"
         style="stop-color:#aaaaaa;stop-opacity:1"
         offset="1" />
    </linearGradient>
  </defs>
  <sodipodi:namedview
     id="base"
     pagecolor="#ffffff"
     bordercolor="#666666"
     borderopacity="1.0"
     inkscape:pageopacity="0.0"
     inkscape:pageshadow="2"
     inkscape:zoom="2.5117023"
     inkscape:cx="67.980523"
     inkscape:cy="48"
     inkscape:document-units="px"
     inkscape:current-layer="layer6"
     showgrid="false"
     inkscape:showpageshadow="false"
     units="px"
     inkscape:lockguides="true"
     inkscape:window-width="1280"
     inkscape:window-height="972"
     inkscape:window-x="0"
     inkscape:window-y="26"
     inkscape:window-maximized="1">
    <sodipodi:guide
       position="0,0"
       orientation="0,96"
       id="guide1621"
       inkscape:locked="true" />
    <sodipodi:guide
       position="96.000002,0"
       orientation="-96,0"
       id="guide1623"
       inkscape:locked="true" />
    <sodipodi:guide
       position="96.000002,96.000002"
       orientation="0,-96"
       id="guide1625"
       inkscape:locked="true" />
    <sodipodi:guide
       position="0,96.000002"
       orientation="96,0"
       id="guide1627"
       inkscape:locked="true" />
  </sodipodi:namedview>
  <metadata
     id="metadata1069">
    <rdf:RDF>
      <cc:Work
         rdf:about="">
        <dc:format>image/svg+xml</dc:format>
        <dc:type
           rdf:resource="http://purl.org/dc/dcmitype/StillImage" />
        <dc:title></dc:title>
        <dc:date>2017</dc:date>
        <dc:creator>
          <cc:Agent>
            <dc:title>Cristian Pozzessere &quot;ilnanny&quot;</dc:title>
          </cc:Agent>
        </dc:creator>
        <dc:subject>
          <rdf:Bag>
            <rdf:li>Global language</rdf:li>
          </rdf:Bag>
        </dc:subject>
        <dc:description>Playing with Inkscape on Gnu/Linux O. S.</dc:description>
        <dc:contributor>
          <cc:Agent>
            <dc:title>In the night, alone like a dog.</dc:title>
          </cc:Agent>
        </dc:contributor>
        <cc:license
           rdf:resource="http://creativecommons.org/licenses/by-sa/4.0/" />
      </cc:Work>
      <cc:License
         rdf:about="http://creativecommons.org/licenses/by-sa/4.0/">
        <cc:permits
           rdf:resource="http://creativecommons.org/ns#Reproduction" />
        <cc:permits
           rdf:resource="http://creativecommons.org/ns#Distribution" />
        <cc:requires
           rdf:resource="http://creativecommons.org/ns#Notice" />
        <cc:requires
           rdf:resource="http://creativecommons.org/ns#Attribution" />
        <cc:permits
           rdf:resource="http://creativecommons.org/ns#DerivativeWorks" />
        <cc:requires
           rdf:resource="http://creativecommons.org/ns#ShareAlike" />
      </cc:License>
    </rdf:RDF>
  </metadata>
  <g
     inkscape:label="Livello 1"
     inkscape:groupmode="layer"
     id="layer1"
     transform="translate(0,-1026.5197)">
    <g
       transform="translate(-0.14895645,1026.1047)"
       style="display:inline"
       id="g2574">
      <path
         inkscape:connector-curvature="0"
         id="path3288"
         d="M 89.29181,0.415026 H 7.0060911 c -3.798848,0 -6.8571352,3.058285 -6.8571352,6.8571399 V 89.557884 c 0,3.798857 3.0582872,6.857142 6.8571352,6.857142 H 89.29181 c 3.798857,0 6.857147,-3.058285 6.857147,-6.857142 V 7.2721659 c 0,-3.7988549 -3.05829,-6.8571399 -6.857147,-6.8571399 z"
         style="display:inline;opacity:0.15;fill:#000000;fill-opacity:1;fill-rule:nonzero;stroke:none" />
      <path
         style="display:inline;opacity:0.15;fill:#000000;fill-opacity:1;fill-rule:nonzero;stroke:none"
         d="M 88.648954,1.165026 H 7.6489471 c -3.739492,0 -6.749993,3.010499 -6.749993,6.7499969 V 88.915026 c 0,3.739501 3.010501,6.75 6.749993,6.75 H 88.648954 c 3.739503,0 6.750003,-3.010499 6.750003,-6.75 V 7.9150229 c 0,-3.7394979 -3.0105,-6.7499969 -6.750003,-6.7499969 z"
         id="path4085"
         inkscape:connector-curvature="0" />
      <path
         inkscape:connector-curvature="0"
         id="rect4251-1"
         d="M 88.006093,1.915026 H 8.2918111 c -3.680143,0 -6.6428566,2.962713 -6.6428566,6.6428549 V 88.272171 c 0,3.680142 2.9627136,6.642856 6.6428566,6.642856 H 88.006093 c 3.680143,0 6.642854,-2.962714 6.642854,-6.642856 V 8.5578809 c 0,-3.6801419 -2.962711,-6.6428549 -6.642854,-6.6428549 z"
         style="display:inline;fill:url(#linearGradient4071);fill-opacity:1;fill-rule:nonzero;stroke:none" />
      <path
         sodipodi:nodetypes="sscccsccscccsss"
         inkscape:connector-curvature="0"
         id="path3400-6"
         d="m 11.390247,6.8021682 c -2.8564964,0 -5.1241284,2.2883782 -5.1241284,5.1710028 v 21.42734 7.239403 39.913674 c 1.0972399,1.684484 2.9688485,2.811732 5.1241284,2.811732 h 4.099303 65.588849 4.099302 c 2.155281,0 4.026889,-1.127248 5.124129,-2.811732 V 40.639914 33.400511 11.973171 c 0,-2.8826246 -2.267632,-5.1710028 -5.124129,-5.1710028 z"
         style="display:inline;opacity:0.77864583;fill:#f5f3f3;fill-opacity:1;fill-rule:nonzero;stroke:none;stroke-width:1.02950251" />
      <path
         style="color:#000000;font-style:normal;font-variant:normal;font-weight:normal;font-stretch:normal;font-size:medium;line-height:normal;font-family:Sans;-inkscape-font-specification:Sans;text-indent:0;text-align:start;text-decoration:none;text-decoration-line:none;letter-spacing:normal;word-spacing:normal;text-transform:none;writing-mode:lr-tb;direction:ltr;baseline-shift:baseline;text-anchor:start;display:inline;overflow:visible;visibility:visible;fill:#241f1f;fill-opacity:0.63265303;stroke:none;stroke-width:2.3755002;marker:none;enable-background:accumulate"
         d="m 9.9740341,5.1444869 c -3.116621,0 -5.667965,2.53951 -5.667965,5.6460041 v 69.277996 c 0,3.106495 2.551344,5.646004 5.667965,5.646004 H 86.765819 c 3.116621,0 5.667968,-2.539509 5.667968,-5.646004 V 10.790491 c 0,-3.1064931 -2.551347,-5.6460041 -5.667968,-5.6460041 z m 0,2.319439 H 86.765819 c 1.888099,0 3.352022,1.480095 3.352022,3.3265651 v 69.277996 c 0,1.846474 -1.463923,3.326564 -3.352022,3.326564 H 9.9740341 c -1.888099,0 -3.352022,-1.48009 -3.352022,-3.326564 V 10.790491 c 0,-1.8464701 1.463923,-3.3265651 3.352022,-3.3265651 z"
         id="path4989"
         inkscape:connector-curvature="0" />
      <path
         id="path4118"
         d="m 1.6489535,82.258776 v 6 c 0,3.680142 2.9761066,6.65625 6.6562496,6.65625 H 87.992703 c 3.680143,0 6.656254,-2.976108 6.656254,-6.65625 v -6 c 0,3.680142 -2.976111,6.65625 -6.656254,6.65625 H 8.3052031 c -3.680143,0 -6.6562496,-2.976108 -6.6562496,-6.65625 z"
         style="display:inline;opacity:0.65818182;fill:url(#linearGradient4129);fill-opacity:1;fill-rule:nonzero;stroke:none"
         inkscape:connector-curvature="0" />
      <rect
         ry="4.25"
         rx="0"
         y="80.665031"
         x="5.5239539"
         height="4.25"
         width="84.250008"
         id="rect4131"
         style="opacity:0.55;fill:url(#radialGradient7462);fill-opacity:1;stroke:none" />
      <rect
         transform="rotate(90)"
         style="opacity:0.669;fill:url(#radialGradient7464);fill-opacity:1;stroke:none"
         id="rect4141"
         width="76.75"
         height="4.25"
         x="5.9750223"
         y="-90.233963"
         rx="0"
         ry="4.25" />
      <g
         transform="matrix(1.4065741,0,0,1.4065741,-19.3666,-19.114098)"
         id="layer6"
         style="display:inline">
        <path
           d="M 47.71875,27.96875 C 43.208352,28.05702 38.700303,29.007902 34.5,30.625 c -1.370505,0.951835 -0.779337,2.750665 -0.90625,4.160637 0.119129,1.304324 -0.287511,2.72244 0.3125,3.933113 0.715005,1.138908 2.324995,1.115631 3.30973,0.336815 4.115456,-2.076686 8.996436,-2.835394 13.504007,-1.780074 1.857777,0.281062 4.587811,2.763134 3.72623,4.193259 -5.972574,0.05705 -12.358047,-0.521996 -17.705081,2.662577 -1.79119,1.164643 -3.282074,2.874213 -4.209886,4.837423 -2.040314,0.03851 -4.092612,-0.07909 -6.125,0.0625 -1.290847,0.371932 -1.573979,1.774023 -1.4375,2.945505 0.03834,1.870993 -0.07887,3.753923 0.0625,5.616995 0.371932,1.290847 1.774023,1.573979 2.945505,1.4375 1.247332,0 2.494663,0 3.741995,0 0.666199,3.051743 2.628109,5.74519 5.417762,7.171876 4.456571,2.373974 9.938279,2.304033 14.636814,0.692385 1.247272,-0.01536 2.951116,-2.225864 3.382924,-1.779228 -0.141534,1.14656 0.193067,2.492222 1.4375,2.852467 2.250387,0.119509 4.527264,0.0663 6.78125,0.03125 1.355037,-0.190736 1.83443,-1.654424 1.65625,-2.854661 0,-2.038029 0,-4.076059 0,-6.114089 1.519707,-0.03564 3.050629,0.07507 4.5625,-0.0625 1.290847,-0.371932 1.573979,-1.774023 1.4375,-2.945505 -0.03834,-1.870993 0.07887,-3.753923 -0.0625,-5.616995 -0.371932,-1.290847 -1.774023,-1.573979 -2.945505,-1.4375 -0.997332,0 -1.994663,0 -2.991995,0 C 65.09614,44.090822 65.10421,38.906605 62.373358,34.64746 59.350866,29.651006 53.244852,27.888773 47.71875,27.96875 Z M 44.625,59.03125 c 1.0625,0 2.125,0 3.1875,0 -1.045978,0.338031 -2.136157,0.296778 -3.1875,0 z"
           inkscape:connector-curvature="0"
           id="path4030"
           style="font-style:normal;font-variant:normal;font-weight:normal;font-stretch:normal;font-size:12px;line-height:125%;font-family:Sans;-inkscape-font-specification:Sans;text-align:start;writing-mode:lr-tb;text-anchor:start;display:inline;opacity:0.1;fill:#000000;fill-opacity:1;stroke:none" />
        <path
           inkscape:connector-curvature="0"
           d="m 47.71875,29 c -1.988692,3.8e-5 -4.036725,0.269508 -6.09375,0.6875 -2.042397,0.39434 -4.142949,0.89845 -6.34375,1.71875 a 0.98877404,0.98877404 0 0 0 -0.65625,0.9375 v 5.25 a 0.98877404,0.98877404 0 0 0 1.46875,0.875 c 1.719459,-0.908918 3.451973,-1.616171 5.28125,-2.0625 1.832916,-0.447168 3.71856,-0.624971 5.6875,-0.625 3.042132,2.9e-5 5.2497,0.690689 6.78125,1.9375 1.439858,1.141745 2.143724,2.693415 2.25,4.78125 H 48.9375 c -5.424203,2.1e-5 -9.567936,0.954296 -12.5,3.09375 a 0.98877404,0.98877404 0 0 0 0,0.03125 C 34.883644,46.767821 33.871416,48.29857 33.15625,50 H 27 a 0.98877404,0.98877404 0 0 0 -1,1 v 6 a 0.98877404,0.98877404 0 0 0 1,1 h 5.46875 c 0.466265,2.240441 1.367228,4.26983 3.03125,5.8125 a 0.98877404,0.98877404 0 0 0 0.03125,0 c 2.368511,2.151858 5.566961,3.1875 9.375,3.1875 2.994548,0 5.598194,-0.564338 7.75,-1.625 1.327177,-0.667833 2.480492,-1.618078 3.53125,-2.71875 V 66 a 0.98877404,0.98877404 0 0 0 1,1 H 63 a 0.98877404,0.98877404 0 0 0 1,-1 v -8 h 5 a 0.98877404,0.98877404 0 0 0 1,-1 V 51 A 0.98877404,0.98877404 0 0 0 69,50 H 64 V 45.5625 C 63.999966,40.17318 62.645815,35.964736 59.875,33.15625 57.109203,30.352986 53.019377,29.000037 47.71875,29 Z M 51.375,48.90625 h 4.8125 V 49.125 c -3e-6,0.307669 -0.01736,0.586734 -0.03125,0.875 h -13.25 c 1.671888,-0.665498 4.404471,-1.093737 8.46875,-1.09375 z M 41,58 h 11.46875 c -1.629289,1.429596 -3.539637,2.312505 -6.0625,2.3125 -2.160743,6e-6 -3.698458,-0.543889 -4.875,-1.53125 C 41.279953,58.561415 41.191634,58.249897 41,58 Z"
           id="path4026"
           style="font-style:normal;font-variant:normal;font-weight:normal;font-stretch:normal;font-size:12px;line-height:125%;font-family:Sans;-inkscape-font-specification:Sans;text-align:start;writing-mode:lr-tb;text-anchor:start;display:inline;opacity:0.15;fill:#000000;fill-opacity:1;stroke:none" />
        <path
           d="m 47.71875,30 c -1.902765,3.6e-5 -3.897808,0.24813 -5.90625,0.65625 -2.008467,0.387789 -4.052203,0.891615 -6.1875,1.6875 v 5.25 c 1.77589,-0.938748 3.607349,-1.686834 5.53125,-2.15625 1.923874,-0.469359 3.876636,-0.65622 5.90625,-0.65625 3.192369,3e-5 5.651469,0.72771 7.40625,2.15625 1.775874,1.408191 2.71872,3.408189 2.71875,6 V 43.5 h -8.25 c -5.306572,2.1e-5 -9.221272,0.947088 -11.90625,2.90625 C 35.434484,47.58063 34.399844,49.145337 33.75,51 H 27 v 6 h 6.1875 c 0.338093,2.441643 1.292429,4.510707 3,6.09375 C 38.343937,65.052933 41.269873,66 44.90625,66 c 2.875251,0 5.325162,-0.520407 7.3125,-1.5 1.987287,-0.999999 3.636798,-2.512113 4.96875,-4.59375 V 66 H 63 v -9 h 6 V 51 H 63 V 45.5625 C 62.999967,40.338036 61.693215,36.415206 59.15625,33.84375 56.619222,31.272354 52.856145,30.000036 47.71875,30 Z M 51.375,47.90625 h 5.8125 V 49.125 c -6e-6,0.654981 -0.0285,1.267884 -0.09375,1.875 h -17.25 c 0.429358,-0.623841 0.985678,-1.19199 1.6875,-1.59375 1.818167,-1.040814 5.129142,-1.499985 9.84375,-1.5 z M 39.1875,57 h 15.65625 c -0.22278,0.310755 -0.402099,0.649956 -0.65625,0.9375 -1.945056,2.204082 -4.546596,3.375006 -7.78125,3.375 -2.346743,6e-6 -4.157056,-0.617982 -5.53125,-1.78125 C 40.076012,58.832295 39.52408,57.985239 39.1875,57 Z"
           inkscape:connector-curvature="0"
           id="path4020"
           style="font-style:normal;font-variant:normal;font-weight:normal;font-stretch:normal;font-size:12px;line-height:125%;font-family:Sans;-inkscape-font-specification:Sans;text-align:start;writing-mode:lr-tb;text-anchor:start;display:inline;opacity:0.3;fill:#000000;fill-opacity:1;stroke:none" />
        <path
           d="m 47.71875,29 c -1.902765,3.6e-5 -3.897808,0.24813 -5.90625,0.65625 -2.008467,0.387789 -4.052203,0.891615 -6.1875,1.6875 v 5.25 c 1.77589,-0.938748 3.607349,-1.686834 5.53125,-2.15625 1.923874,-0.469359 3.876636,-0.65622 5.90625,-0.65625 3.192369,3e-5 5.651469,0.72771 7.40625,2.15625 1.775874,1.408191 2.71872,3.408189 2.71875,6 V 42.5 h -8.25 c -5.306572,2.1e-5 -9.221272,0.947088 -11.90625,2.90625 C 35.434484,46.58063 34.399844,48.145337 33.75,50 H 27 v 6 h 6.1875 c 0.338093,2.441643 1.292429,4.510707 3,6.09375 C 38.343937,64.052933 41.269873,65 44.90625,65 c 2.875251,0 5.325162,-0.520407 7.3125,-1.5 1.987287,-0.999999 3.636798,-2.512113 4.96875,-4.59375 V 65 H 63 v -9 h 6 V 50 H 63 V 44.5625 C 62.999967,39.338036 61.693215,35.415206 59.15625,32.84375 56.619222,30.272354 52.856145,29.000036 47.71875,29 Z M 51.375,46.90625 h 5.8125 V 48.125 c -6e-6,0.654981 -0.0285,1.267884 -0.09375,1.875 h -17.25 c 0.429358,-0.623841 0.985678,-1.19199 1.6875,-1.59375 1.818167,-1.040814 5.129142,-1.499985 9.84375,-1.5 z M 39.1875,56 h 15.65625 c -0.22278,0.310755 -0.402099,0.649956 -0.65625,0.9375 -1.945056,2.204082 -4.546596,3.375006 -7.78125,3.375 -2.346743,6e-6 -4.157056,-0.617982 -5.53125,-1.78125 C 40.076012,57.832295 39.52408,56.985239 39.1875,56 Z"
           inkscape:connector-curvature="0"
           id="path2871"
           style="font-style:normal;font-variant:normal;font-weight:normal;font-stretch:normal;font-size:12px;line-height:125%;font-family:Sans;-inkscape-font-specification:Sans;text-align:start;writing-mode:lr-tb;text-anchor:start;display:inline;fill:url(#linearGradient3823);fill-opacity:1;stroke:none;opacity:0.627" />
        <path
           d="m 47.71875,29 c -1.902765,3.6e-5 -3.897808,0.24813 -5.90625,0.65625 -2.008467,0.387789 -4.052203,0.891615 -6.1875,1.6875 v 1 c 2.135297,-0.795885 4.179033,-1.299711 6.1875,-1.6875 2.008442,-0.40812 4.003485,-0.656214 5.90625,-0.65625 5.137395,3.6e-5 8.900472,1.272354 11.4375,3.84375 2.536965,2.571456 3.843717,6.494286 3.84375,11.71875 v -1 C 62.999967,39.338036 61.693215,35.415206 59.15625,32.84375 56.619222,30.272354 52.856145,29.000036 47.71875,29 Z m 1.21875,13.5 c -5.306572,2.1e-5 -9.221272,0.947088 -11.90625,2.90625 C 35.434484,46.58063 34.399844,48.145337 33.75,50 H 27 v 1 h 6.75 c 0.649844,-1.854663 1.684484,-3.41937 3.28125,-4.59375 C 39.716228,44.447088 43.630928,43.500021 48.9375,43.5 h 8.25 v -0.5625 c -2e-6,-0.151021 0.0064,-0.290498 0,-0.4375 z m 8.25,5.625 c -6e-6,0.654981 -0.0285,1.267884 -0.09375,1.875 H 40.75 c -0.343102,0.305336 -0.654318,0.633952 -0.90625,1 h 17.25 C 57.159,50.392884 57.18749,49.779981 57.1875,49.125 Z M 63,50 v 1 h 6 v -1 z m -23.8125,7 c 0.33658,0.985239 0.888512,1.832295 1.6875,2.53125 1.374194,1.163268 3.184507,1.781256 5.53125,1.78125 3.234654,6e-6 5.836194,-1.170918 7.78125,-3.375 C 54.441651,57.649956 54.62097,57.310755 54.84375,57 H 54.125 c -1.93847,2.160725 -4.517089,3.312506 -7.71875,3.3125 -2.346743,6e-6 -4.157056,-0.617982 -5.53125,-1.78125 C 40.36078,58.08141 39.943007,57.569885 39.625,57 Z"
           inkscape:connector-curvature="0"
           id="path4002"
           style="font-style:normal;font-variant:normal;font-weight:normal;font-stretch:normal;font-size:12px;line-height:125%;font-family:Sans;-inkscape-font-specification:Sans;text-align:start;writing-mode:lr-tb;text-anchor:start;display:inline;opacity:0.75;fill:#ffffff;fill-opacity:1;stroke:none" />
        <path
           d="m 47.0625,32.78125 c -2.029614,3e-5 -3.982376,0.186891 -5.90625,0.65625 -1.923901,0.469416 -3.75536,1.217502 -5.53125,2.15625 v 1 c 1.77589,-0.938748 3.607349,-1.686834 5.53125,-2.15625 1.923874,-0.469359 3.876636,-0.65622 5.90625,-0.65625 3.192369,3e-5 5.651469,0.72771 7.40625,2.15625 1.672396,1.326138 2.615602,3.18666 2.71875,5.5625 v -0.5625 c -3e-5,-2.591811 -0.942876,-4.591809 -2.71875,-6 -1.754781,-1.42854 -4.213881,-2.15622 -7.40625,-2.15625 z m 4.3125,13.125 c -4.714608,1.5e-5 -8.025583,0.459186 -9.84375,1.5 C 40.829428,47.80801 40.273108,48.376159 39.84375,49 H 40.75 c 0.241633,-0.215036 0.491232,-0.427729 0.78125,-0.59375 1.818167,-1.040814 5.129142,-1.499985 9.84375,-1.5 h 5.8125 v -1 z M 27,55 v 1 h 6.1875 c 0.338093,2.441643 1.292429,4.510707 3,6.09375 C 38.343937,64.052933 41.269873,65 44.90625,65 c 2.875251,0 5.325162,-0.520407 7.3125,-1.5 1.987287,-0.999999 3.636798,-2.512113 4.96875,-4.59375 v -1 C 55.855548,59.987887 54.206037,61.500001 52.21875,62.5 50.231412,63.479593 47.781501,64 44.90625,64 41.269873,64 38.343937,63.052933 36.1875,61.09375 34.479929,59.510707 33.525593,57.441643 33.1875,55 Z m 12.1875,0 c 0.119961,0.351149 0.261392,0.684406 0.4375,1 h 14.5 c 0.01998,-0.02227 0.04266,-0.04002 0.0625,-0.0625 C 54.441651,55.649956 54.62097,55.310755 54.84375,55 Z M 63,55 v 1 h 6 v -1 z m -5.8125,9 v 1 H 63 v -1 z"
           inkscape:connector-curvature="0"
           id="path4011"
           style="font-style:normal;font-variant:normal;font-weight:normal;font-stretch:normal;font-size:12px;line-height:125%;font-family:Sans;-inkscape-font-specification:Sans;text-align:start;writing-mode:lr-tb;text-anchor:start;display:inline;opacity:0.419;fill:#ffffff;fill-opacity:1;stroke:none" />
      </g>
      <rect
         clip-path="url(#clipPath4156-4-1)"
         ry="3.9569881"
         rx="3.9569874"
         y="-30"
         x="2"
         height="69.024437"
         width="75.965775"
         id="rect4146"
         style="opacity:0.5078125;fill:url(#linearGradient4767);fill-opacity:1;stroke:none"
         transform="matrix(1.0692451,0,0,1.0476829,4.4441802,38.894013)" />
    </g>
  </g>
</svg>
