<?xml version="1.0" encoding="UTF-8" standalone="no"?>
<!-- Created with Inkscape (http://www.inkscape.org/) -->

<svg
   xmlns:dc="http://purl.org/dc/elements/1.1/"
   xmlns:cc="http://creativecommons.org/ns#"
   xmlns:rdf="http://www.w3.org/1999/02/22-rdf-syntax-ns#"
   xmlns:svg="http://www.w3.org/2000/svg"
   xmlns="http://www.w3.org/2000/svg"
   xmlns:xlink="http://www.w3.org/1999/xlink"
   xmlns:sodipodi="http://sodipodi.sourceforge.net/DTD/sodipodi-0.dtd"
   xmlns:inkscape="http://www.inkscape.org/namespaces/inkscape"
   width="96"
   height="96"
   viewBox="0 0 96.000001 96.000004"
   version="1.1"
   id="svg1072"
   inkscape:version="0.92.1 r15371"
   sodipodi:docname="text_bold.svg">
  <defs
     id="defs1066">
    <linearGradient
       y2="47.000011"
       x2="90"
       y1="47.000011"
       x1="6"
       gradientTransform="matrix(1.1071428,0,0,1.1071426,-4.9939026,-3.620687)"
       gradientUnits="userSpaceOnUse"
       id="linearGradient4071"
       xlink:href="#linearGradient6139-0"
       inkscape:collect="always" />
    <linearGradient
       id="linearGradient6139-0">
      <stop
         style="stop-color:#c1adad;stop-opacity:1;"
         offset="0"
         id="stop6141-2" />
      <stop
         id="stop6151-0"
         offset="0.25"
         style="stop-color:#ffffff;stop-opacity:1;" />
      <stop
         id="stop6147-1"
         offset="0.5"
         style="stop-color:#aa9090;stop-opacity:1;" />
      <stop
         style="stop-color:#fbf9f9;stop-opacity:1;"
         offset="0.75"
         id="stop6149-4" />
      <stop
         style="stop-color:#c1adad;stop-opacity:1;"
         offset="1"
         id="stop6143-4" />
    </linearGradient>
    <linearGradient
       gradientUnits="userSpaceOnUse"
       y2="88.171875"
       x2="94.5"
       y1="88.171875"
       x1="1.5"
       id="linearGradient4129"
       xlink:href="#linearGradient3832-0-6-1-1"
       inkscape:collect="always"
       gradientTransform="translate(0.1489535,0.415026)" />
    <linearGradient
       id="linearGradient3832-0-6-1-1">
      <stop
         id="stop3834-6-3-7-1"
         offset="0"
         style="stop-color:#000000;stop-opacity:1;" />
      <stop
         style="stop-color:#000000;stop-opacity:0.58823532;"
         offset="0.1"
         id="stop3872-2-4" />
      <stop
         id="stop3844-6-2-7-6"
         offset="0.89999998"
         style="stop-color:#000000;stop-opacity:0.58823532;" />
      <stop
         id="stop3836-5-0-2-9"
         offset="1"
         style="stop-color:#000000;stop-opacity:1;" />
    </linearGradient>
    <radialGradient
       r="43.199203"
       fy="44.892841"
       fx="13.948145"
       cy="44.892841"
       cx="13.948145"
       gradientTransform="matrix(0.97513378,0,0,0.04919072,34.047649,80.581722)"
       gradientUnits="userSpaceOnUse"
       id="radialGradient7462"
       xlink:href="#linearGradient3737"
       inkscape:collect="always" />
    <linearGradient
       id="linearGradient3737">
      <stop
         id="stop3739"
         style="stop-color:#ffffff;stop-opacity:1"
         offset="0" />
      <stop
         id="stop3741"
         style="stop-color:#ffffff;stop-opacity:0"
         offset="1" />
    </linearGradient>
    <radialGradient
       r="43.199203"
       fy="44.892841"
       fx="13.948145"
       cy="44.892841"
       cx="13.948145"
       gradientTransform="matrix(0.88832663,0,0,0.04919072,31.959518,-90.31726)"
       gradientUnits="userSpaceOnUse"
       id="radialGradient7464"
       xlink:href="#linearGradient3737"
       inkscape:collect="always" />
    <linearGradient
       y2="14.514202"
       x2="50.527882"
       y1="-28.64156"
       x1="2.7713892"
       gradientUnits="userSpaceOnUse"
       id="linearGradient4767"
       xlink:href="#linearGradient3737"
       inkscape:collect="always" />
    <clipPath
       clipPathUnits="userSpaceOnUse"
       id="clipPath4156-4-1">
      <path
         style="opacity:0.6;fill:#ffffff;fill-opacity:1;stroke:none"
         d="m 27.046336,-55.695463 -14.21366,13.321486 h 0.06127 l 15.653407,21.770763 10.231384,-10.546177 C 38.561832,-32.30156 27.468089,-54.819245 27.046336,-55.695463 Z M 9.6468554,-39.382809 -5.2407289,-25.32124 15.987863,-7.8059573 26.372412,-18.382966 Z m 31.4906096,12.951445 -9.741259,9.713584 8.944804,12.4580526 7.780753,-7.5550056 z m -49.8397109,4.378822 -13.7541661,12.9822847 26.2830181,13.84571 0.06127,-0.0617 -0.122531,-0.0617 L 13.598503,-5.4007374 -8.7022409,-22.052595 Z m 38.0154159,7.400825 -9.802525,9.7752596 11.579232,9.5594001 7.62759,-7.40083 -8.669108,-11.0087257 z m 20.187073,5.6739697 -7.382526,7.2158 6.187844,8.54179 5.820249,-6.13651996 z m -32.195166,6.32154 -9.5574606,9.49772 13.6622686,7.1849703 7.933918,-7.6783603 z m 23.311629,2.37443004 -7.10683,6.93826996 8.362778,6.9074403 5.360756,-5.6739699 -0.06127,-0.0925 -0.0919,0.12335 -6.463539,-8.20258036 z m -8.730374,8.54178036 -7.505057,7.3391599 10.353916,5.45811 c 1.397496,-1.32103 5.67514,-6.12292 5.850882,-6.32154 z"
         id="path4158-0-8"
         inkscape:connector-curvature="0" />
    </clipPath>
    <linearGradient
       x1="12.028171"
       y1="4.5631547"
       x2="12.028171"
       y2="11.477665"
       id="linearGradient3034"
       xlink:href="#linearGradient3832-0-6-1-1"
       gradientUnits="userSpaceOnUse"
       gradientTransform="matrix(4.5852854,0,0,4.5852854,-6.8882674,8.9542856)" />
    <linearGradient
       id="linearGradient3637">
      <stop
         id="stop3639"
         style="stop-color:#f0f0f0;stop-opacity:1"
         offset="0" />
      <stop
         id="stop3641"
         style="stop-color:#aaaaaa;stop-opacity:1"
         offset="1" />
    </linearGradient>
  </defs>
  <sodipodi:namedview
     id="base"
     pagecolor="#ffffff"
     bordercolor="#666666"
     borderopacity="1.0"
     inkscape:pageopacity="0.0"
     inkscape:pageshadow="2"
     inkscape:zoom="2.5117023"
     inkscape:cx="-18.215998"
     inkscape:cy="44.814909"
     inkscape:document-units="px"
     inkscape:current-layer="layer6"
     showgrid="false"
     inkscape:showpageshadow="false"
     units="px"
     inkscape:lockguides="true"
     inkscape:window-width="1280"
     inkscape:window-height="972"
     inkscape:window-x="0"
     inkscape:window-y="26"
     inkscape:window-maximized="1">
    <sodipodi:guide
       position="0,0"
       orientation="0,96"
       id="guide1621"
       inkscape:locked="true" />
    <sodipodi:guide
       position="96.000002,0"
       orientation="-96,0"
       id="guide1623"
       inkscape:locked="true" />
    <sodipodi:guide
       position="96.000002,96.000002"
       orientation="0,-96"
       id="guide1625"
       inkscape:locked="true" />
    <sodipodi:guide
       position="0,96.000002"
       orientation="96,0"
       id="guide1627"
       inkscape:locked="true" />
  </sodipodi:namedview>
  <metadata
     id="metadata1069">
    <rdf:RDF>
      <cc:Work
         rdf:about="">
        <dc:format>image/svg+xml</dc:format>
        <dc:type
           rdf:resource="http://purl.org/dc/dcmitype/StillImage" />
        <dc:title />
        <dc:date>2017</dc:date>
        <dc:creator>
          <cc:Agent>
            <dc:title>Cristian Pozzessere &quot;ilnanny&quot;</dc:title>
          </cc:Agent>
        </dc:creator>
        <dc:subject>
          <rdf:Bag>
            <rdf:li>Global language</rdf:li>
          </rdf:Bag>
        </dc:subject>
        <dc:description>Playing with Inkscape on Gnu/Linux O. S.</dc:description>
        <dc:contributor>
          <cc:Agent>
            <dc:title>In the night, alone like a dog.</dc:title>
          </cc:Agent>
        </dc:contributor>
        <cc:license
           rdf:resource="http://creativecommons.org/licenses/by-sa/4.0/" />
      </cc:Work>
      <cc:License
         rdf:about="http://creativecommons.org/licenses/by-sa/4.0/">
        <cc:permits
           rdf:resource="http://creativecommons.org/ns#Reproduction" />
        <cc:permits
           rdf:resource="http://creativecommons.org/ns#Distribution" />
        <cc:requires
           rdf:resource="http://creativecommons.org/ns#Notice" />
        <cc:requires
           rdf:resource="http://creativecommons.org/ns#Attribution" />
        <cc:permits
           rdf:resource="http://creativecommons.org/ns#DerivativeWorks" />
        <cc:requires
           rdf:resource="http://creativecommons.org/ns#ShareAlike" />
      </cc:License>
    </rdf:RDF>
  </metadata>
  <g
     inkscape:label="Livello 1"
     inkscape:groupmode="layer"
     id="layer1"
     transform="translate(0,-1026.5197)">
    <g
       transform="translate(-0.14895645,1026.1047)"
       style="display:inline"
       id="g2574">
      <path
         inkscape:connector-curvature="0"
         id="path3288"
         d="M 89.29181,0.415026 H 7.0060911 c -3.798848,0 -6.8571352,3.058285 -6.8571352,6.8571399 V 89.557884 c 0,3.798857 3.0582872,6.857142 6.8571352,6.857142 H 89.29181 c 3.798857,0 6.857147,-3.058285 6.857147,-6.857142 V 7.2721659 c 0,-3.7988549 -3.05829,-6.8571399 -6.857147,-6.8571399 z"
         style="display:inline;opacity:0.15;fill:#000000;fill-opacity:1;fill-rule:nonzero;stroke:none" />
      <path
         style="display:inline;opacity:0.15;fill:#000000;fill-opacity:1;fill-rule:nonzero;stroke:none"
         d="M 88.648954,1.165026 H 7.6489471 c -3.739492,0 -6.749993,3.010499 -6.749993,6.7499969 V 88.915026 c 0,3.739501 3.010501,6.75 6.749993,6.75 H 88.648954 c 3.739503,0 6.750003,-3.010499 6.750003,-6.75 V 7.9150229 c 0,-3.7394979 -3.0105,-6.7499969 -6.750003,-6.7499969 z"
         id="path4085"
         inkscape:connector-curvature="0" />
      <path
         inkscape:connector-curvature="0"
         id="rect4251-1"
         d="M 88.006093,1.915026 H 8.2918111 c -3.680143,0 -6.6428566,2.962713 -6.6428566,6.6428549 V 88.272171 c 0,3.680142 2.9627136,6.642856 6.6428566,6.642856 H 88.006093 c 3.680143,0 6.642854,-2.962714 6.642854,-6.642856 V 8.5578809 c 0,-3.6801419 -2.962711,-6.6428549 -6.642854,-6.6428549 z"
         style="display:inline;fill:url(#linearGradient4071);fill-opacity:1;fill-rule:nonzero;stroke:none" />
      <path
         sodipodi:nodetypes="sscccsccscccsss"
         inkscape:connector-curvature="0"
         id="path3400-6"
         d="m 11.390247,6.8021682 c -2.8564964,0 -5.1241284,2.2883782 -5.1241284,5.1710028 v 21.42734 7.239403 39.913674 c 1.0972399,1.684484 2.9688485,2.811732 5.1241284,2.811732 h 4.099303 65.588849 4.099302 c 2.155281,0 4.026889,-1.127248 5.124129,-2.811732 V 40.639914 33.400511 11.973171 c 0,-2.8826246 -2.267632,-5.1710028 -5.124129,-5.1710028 z"
         style="display:inline;opacity:0.77864583;fill:#f5f3f3;fill-opacity:1;fill-rule:nonzero;stroke:none;stroke-width:1.02950251" />
      <path
         style="color:#000000;font-style:normal;font-variant:normal;font-weight:normal;font-stretch:normal;font-size:medium;line-height:normal;font-family:Sans;-inkscape-font-specification:Sans;text-indent:0;text-align:start;text-decoration:none;text-decoration-line:none;letter-spacing:normal;word-spacing:normal;text-transform:none;writing-mode:lr-tb;direction:ltr;baseline-shift:baseline;text-anchor:start;display:inline;overflow:visible;visibility:visible;fill:#241f1f;fill-opacity:0.63265303;stroke:none;stroke-width:2.3755002;marker:none;enable-background:accumulate"
         d="m 9.9740341,5.1444869 c -3.116621,0 -5.667965,2.53951 -5.667965,5.6460041 v 69.277996 c 0,3.106495 2.551344,5.646004 5.667965,5.646004 H 86.765819 c 3.116621,0 5.667968,-2.539509 5.667968,-5.646004 V 10.790491 c 0,-3.1064931 -2.551347,-5.6460041 -5.667968,-5.6460041 z m 0,2.319439 H 86.765819 c 1.888099,0 3.352022,1.480095 3.352022,3.3265651 v 69.277996 c 0,1.846474 -1.463923,3.326564 -3.352022,3.326564 H 9.9740341 c -1.888099,0 -3.352022,-1.48009 -3.352022,-3.326564 V 10.790491 c 0,-1.8464701 1.463923,-3.3265651 3.352022,-3.3265651 z"
         id="path4989"
         inkscape:connector-curvature="0" />
      <path
         id="path4118"
         d="m 1.6489535,82.258776 v 6 c 0,3.680142 2.9761066,6.65625 6.6562496,6.65625 H 87.992703 c 3.680143,0 6.656254,-2.976108 6.656254,-6.65625 v -6 c 0,3.680142 -2.976111,6.65625 -6.656254,6.65625 H 8.3052031 c -3.680143,0 -6.6562496,-2.976108 -6.6562496,-6.65625 z"
         style="display:inline;opacity:0.65818182;fill:url(#linearGradient4129);fill-opacity:1;fill-rule:nonzero;stroke:none"
         inkscape:connector-curvature="0" />
      <rect
         ry="4.25"
         rx="0"
         y="80.665031"
         x="5.5239539"
         height="4.25"
         width="84.250008"
         id="rect4131"
         style="opacity:0.55;fill:url(#radialGradient7462);fill-opacity:1;stroke:none" />
      <rect
         transform="rotate(90)"
         style="opacity:0.669;fill:url(#radialGradient7464);fill-opacity:1;stroke:none"
         id="rect4141"
         width="76.75"
         height="4.25"
         x="5.9750223"
         y="-90.233963"
         rx="0"
         ry="4.25" />
      <g
         transform="matrix(1.5961242,0,0,1.5961242,-28.478682,-29.822483)"
         id="layer6"
         style="display:inline">
        <g
           id="g59"
           transform="translate(2.3696721,2.4490556)">
          <path
             style="font-style:normal;font-variant:normal;font-weight:bold;font-stretch:normal;font-size:12px;line-height:125%;font-family:Sans;-inkscape-font-specification:'Abandoned Bitplane Bold';text-align:start;writing-mode:lr-tb;text-anchor:start;display:inline;opacity:0.1;fill:#000000;fill-opacity:1;stroke:none;stroke-width:0.87765235"
             id="path3896"
             inkscape:connector-curvature="0"
             d="m 45.49424,29 c -4.440373,0.01144 -8.88718,0.573764 -13.192211,1.645598 -0.853616,0.405768 -1.136655,1.382017 -1.014786,2.259103 0.01884,2.344981 -0.03733,4.699198 0.02743,7.038527 0.175314,1.255774 1.82748,1.894559 2.809175,1.097302 3.850447,-1.913276 8.344147,-2.551887 12.583162,-1.872547 0.680003,-0.114946 3.373993,1.282429 1.903751,1.378631 -5.072318,0.0017 -10.447026,-0.201179 -15.006224,2.386336 -4.03814,2.268834 -5.518291,7.353202 -4.782731,11.710197 0.62598,4.479355 4.260463,8.231981 8.684179,9.097316 3.441098,0.674152 7.22943,0.50214 10.372098,-1.175132 0.960164,-0.820963 1.798756,-1.801254 1.510743,-0.02256 0.109495,1.141856 1.291612,1.738385 2.341382,1.563318 3.159088,-0.01814 6.324189,0.03638 9.479497,-0.02743 1.116911,-0.208198 1.549935,-1.39543 1.398759,-2.411635 -0.02042,-6.204429 0.04216,-12.410245 -0.03375,-18.613752 C 62.428802,39.330847 61.259999,35.479131 58.531697,32.84576 55.077482,29.601241 50.022719,29.037634 45.49424,29 Z m 0.65824,20.78939 c 1.042212,0 2.084424,0 3.126636,0 -0.0585,2.524049 -2.406646,4.761848 -4.969226,4.403611 -1.807719,0.231553 -3.224231,-1.918455 -2.064752,-3.379472 1.061337,-0.910827 2.576026,-0.98934 3.907342,-1.024139 z" />
          <path
             style="font-style:normal;font-variant:normal;font-weight:bold;font-stretch:normal;font-size:12px;line-height:125%;font-family:Sans;-inkscape-font-specification:'Abandoned Bitplane Bold';text-align:start;writing-mode:lr-tb;text-anchor:start;display:inline;opacity:0.15;fill:#000000;fill-opacity:1;stroke:none;stroke-width:0.87765235"
             id="path3892"
             d="m 45.49424,29.877652 c -2.118496,3.3e-5 -4.249466,0.138131 -6.362979,0.4114 -2.112236,0.254953 -4.214092,0.614668 -6.308126,1.124492 a 0.89057945,0.89057945 0 0 0 -0.65824,0.877652 v 7.322912 a 0.89057945,0.89057945 0 0 0 1.289052,0.795372 c 1.446482,-0.782781 3.012357,-1.359168 4.717382,-1.755304 1.702435,-0.395497 3.570869,-0.63079 5.567607,-0.630813 2.460948,2.3e-5 4.196801,0.387183 5.156207,0.959932 a 0.89057945,0.89057945 0 0 0 0.02743,0 c 0.907545,0.5283 1.283416,1.249125 1.316478,2.440971 H 45.49424 c -5.28806,1.8e-5 -9.276535,0.791605 -11.958013,2.60553 -2.662691,1.814589 -4.004291,4.771465 -4.004289,8.502257 -2e-6,3.100663 1.075345,5.772615 3.18149,7.761738 2.124716,1.968788 4.911378,2.93465 8.200564,2.93465 2.415955,0 4.540431,-0.413 6.308126,-1.316478 1.113354,-0.581428 2.1017,-1.454929 3.044357,-2.440971 v 2.879797 a 0.89057945,0.89057945 0 0 0 0.877652,0.877652 h 9.709029 a 0.89057945,0.89057945 0 0 0 0.877653,-0.877652 V 44.413769 C 61.730773,39.457122 60.466233,35.71366 57.8088,33.360835 l 0.02743,-0.02743 c -0.0054,-0.0049 -0.02193,0.0049 -0.02743,0 -2.647845,-2.360343 -6.780045,-3.455723 -12.31456,-3.455756 z m 0.65824,19.034085 h 4.113995 v 0.219413 c -2.1e-5,1.769382 -0.535752,3.133375 -1.618172,4.278556 -1.081839,1.120973 -2.336987,1.673029 -3.922008,1.673024 -1.314092,5e-6 -2.197889,-0.304782 -2.824944,-0.822799 -0.610225,-0.528855 -0.90509,-1.171505 -0.905079,-2.194131 -10e-6,-1.099033 0.345416,-1.747749 1.124492,-2.27641 0.798257,-0.532169 2.124524,-0.87764 4.031716,-0.877653 z"
             inkscape:connector-curvature="0" />
          <path
             style="font-style:normal;font-variant:normal;font-weight:bold;font-stretch:normal;font-size:12px;line-height:125%;font-family:Sans;-inkscape-font-specification:'Abandoned Bitplane Bold';text-align:start;writing-mode:lr-tb;text-anchor:start;display:inline;opacity:0.3;fill:#000000;fill-opacity:1;stroke:none;stroke-width:0.87765235"
             id="path3886"
             inkscape:connector-curvature="0"
             d="m 46.155278,48.030728 c -2.006076,1.3e-5 -3.519579,0.340328 -4.540506,1.020942 -1.003045,0.680641 -1.50456,1.683671 -1.504547,3.009094 -1.3e-5,1.217974 0.403001,2.176225 1.209012,2.874759 0.823902,0.680636 1.961268,1.020948 3.412093,1.020943 1.809018,5e-6 3.331476,-0.644801 4.567375,-1.934418 1.235855,-1.307513 1.853794,-2.937437 1.853818,-4.889778 v -1.101542 h -4.997245 m 14.696197,-3.627033 v 17.947094 h -9.698952 v -5.239048 c -1.289636,1.826954 -2.740448,3.161339 -4.352441,4.003172 -1.612028,0.823915 -3.573313,1.235876 -5.883851,1.235876 -3.116571,0 -5.651013,-0.904516 -7.603334,-2.71356 -1.934421,-1.82694 -2.901628,-4.191228 -2.901625,-7.09286 -3e-6,-3.52851 1.209007,-6.116685 3.627031,-7.764537 2.435925,-1.647818 6.251024,-2.471736 11.445303,-2.471754 h 5.668917 v -0.752276 c -2.4e-5,-1.522436 -0.600048,-2.632933 -1.800082,-3.331496 -1.200075,-0.716425 -3.071802,-1.074652 -5.615186,-1.074676 -2.059807,2.4e-5 -3.976314,0.206003 -5.749516,0.61794 -1.773224,0.411981 -3.421059,1.02992 -4.943511,1.853815 v -7.334666 c 2.059788,-0.501486 4.128539,-0.877622 6.206256,-1.128409 2.077694,-0.268638 4.155397,-0.402974 6.233122,-0.403005 5.427093,3.1e-5 9.340699,1.074707 11.74084,3.224029 2.417986,2.131466 3.626995,5.60625 3.627029,10.424359" />
          <path
             style="font-style:normal;font-variant:normal;font-weight:bold;font-stretch:normal;font-size:12px;line-height:125%;font-family:Sans;-inkscape-font-specification:'Abandoned Bitplane Bold';text-align:start;writing-mode:lr-tb;text-anchor:start;display:inline;fill:url(#linearGradient3034);fill-opacity:1;stroke:none;stroke-width:0.87765235"
             id="path2847"
             inkscape:connector-curvature="0"
             d="m 46.155278,47.153076 c -2.006076,1.3e-5 -3.519579,0.340328 -4.540506,1.020942 -1.003045,0.68064 -1.50456,1.683671 -1.504547,3.009093 -1.3e-5,1.217975 0.403001,2.176226 1.209012,2.87476 0.823902,0.680635 1.961268,1.020948 3.412093,1.020942 1.809018,6e-6 3.331476,-0.6448 4.567375,-1.934417 1.235855,-1.307514 1.853794,-2.937438 1.853818,-4.889778 v -1.101542 h -4.997245 m 14.696197,-3.627033 v 17.947093 h -9.698952 v -5.239047 c -1.289636,1.826954 -2.740448,3.161339 -4.352441,4.003172 -1.612028,0.823915 -3.573313,1.235875 -5.883851,1.235875 -3.116571,0 -5.651013,-0.904515 -7.603334,-2.713559 -1.934421,-1.826941 -2.901628,-4.191228 -2.901625,-7.09286 -3e-6,-3.52851 1.209007,-6.116686 3.627031,-7.764538 2.435925,-1.647817 6.251024,-2.471735 11.445303,-2.471754 h 5.668917 V 40.67815 c -2.4e-5,-1.522436 -0.600048,-2.632933 -1.800082,-3.331496 -1.200075,-0.716425 -3.071802,-1.074652 -5.615186,-1.074676 -2.059807,2.4e-5 -3.976314,0.206003 -5.749516,0.617939 -1.773224,0.411982 -3.421059,1.029921 -4.943511,1.853815 v -7.334665 c 2.059788,-0.501486 4.128539,-0.877622 6.206256,-1.128409 2.077694,-0.268638 4.155397,-0.402974 6.233122,-0.403006 5.427093,3.2e-5 9.340699,1.074708 11.74084,3.22403 2.417986,2.131465 3.626995,5.60625 3.627029,10.424358" />
          <path
             style="font-style:normal;font-variant:normal;font-weight:bold;font-stretch:normal;font-size:12px;line-height:125%;font-family:Sans;-inkscape-font-specification:'Abandoned Bitplane Bold';text-align:start;writing-mode:lr-tb;text-anchor:start;display:inline;opacity:0.75;fill:#ffffff;fill-opacity:1;stroke:none;stroke-width:0.87765235"
             id="path3868"
             inkscape:connector-curvature="0"
             d="m 45.49424,29.877652 c -2.077724,3.2e-5 -4.175578,0.142762 -6.253273,0.4114 -2.077717,0.250786 -4.138631,0.623006 -6.198419,1.124492 v 0.877652 c 2.059788,-0.501486 4.120702,-0.873705 6.198419,-1.124492 2.077695,-0.268638 4.175549,-0.411368 6.253273,-0.411399 5.427093,3.1e-5 9.33846,1.08702 11.7386,3.236343 2.417987,2.131465 3.620282,5.604013 3.620316,10.422121 V 43.536117 C 60.853122,38.718008 59.650827,35.245461 57.23284,33.113995 54.8327,30.964673 50.921333,29.877684 45.49424,29.877652 Z m 0,11.546614 c -5.194279,1.8e-5 -9.028408,0.820579 -11.464333,2.468397 -2.418025,1.647852 -3.620319,4.233228 -3.620316,7.761738 0,0.139612 0.02295,0.274276 0.02743,0.411399 0.106607,-3.282482 1.286642,-5.723807 3.59289,-7.295485 2.435925,-1.647817 6.270054,-2.468378 11.464333,-2.468397 h 5.649887 v -0.740519 c -1e-6,-0.04745 0.0011,-0.09048 0,-0.137133 z m 5.649887,6.829232 c -2.3e-5,1.95234 -0.60173,3.574428 -1.837584,4.881941 -1.2359,1.289617 -2.771231,1.947297 -4.580248,1.947291 -1.450826,6e-6 -2.577001,-0.33415 -3.400903,-1.014785 -0.708496,-0.614022 -1.093636,-1.45302 -1.179346,-2.468397 -0.01398,0.147512 -0.02743,0.30975 -0.02743,0.466252 -1.3e-5,1.217975 0.400761,2.181263 1.206772,2.879797 0.823902,0.680635 1.950077,1.014791 3.400903,1.014786 1.809017,5e-6 3.344348,-0.657674 4.580248,-1.947291 1.235854,-1.307514 1.837561,-2.929601 1.837584,-4.881942 z" />
          <path
             style="font-style:normal;font-variant:normal;font-weight:bold;font-stretch:normal;font-size:12px;line-height:125%;font-family:Sans;-inkscape-font-specification:'Abandoned Bitplane Bold';text-align:start;writing-mode:lr-tb;text-anchor:start;display:inline;opacity:0.23600003;fill:#fcfcfc;fill-opacity:1;stroke:none;stroke-width:0.87765235"
             id="path3877"
             inkscape:connector-curvature="0"
             d="m 43.738936,35.390406 c -2.059807,2.4e-5 -3.986391,0.218876 -5.759594,0.630813 -1.773224,0.411981 -3.414342,1.01369 -4.936794,1.837584 v 0.877653 c 1.522452,-0.823895 3.16357,-1.425604 4.936794,-1.837585 1.773203,-0.411937 3.699787,-0.630789 5.759594,-0.630813 2.543383,2.4e-5 4.422384,0.353214 5.62246,1.069639 1.162626,0.676788 1.746468,1.758819 1.782731,3.208917 v -0.74052 C 51.144104,38.283658 50.561429,37.158608 49.361396,36.460045 48.16132,35.74362 46.282319,35.39043 43.738936,35.390406 Z M 46.15248,46.27878 c -2.006077,1.4e-5 -3.504468,0.334172 -4.525395,1.014786 -1.003045,0.68064 -1.508478,1.691507 -1.508465,3.01693 -2e-6,0.137574 0.01714,0.253026 0.02743,0.383973 0.109698,-1.089222 0.603374,-1.927691 1.481039,-2.523251 1.020927,-0.680614 2.519318,-1.014772 4.525395,-1.014785 h 4.991647 V 46.27878 Z m -15.715463,4.909368 c -0.0052,0.159092 -0.02743,0.303143 -0.02743,0.466253 -3e-6,2.901632 0.972802,5.276558 2.907223,7.103498 1.952321,1.809045 4.480608,2.715237 7.597178,2.715237 2.310538,0 4.284699,-0.410283 5.896727,-1.234198 1.611994,-0.841833 3.043773,-2.177335 4.333408,-4.004289 v -0.877652 c -1.289635,1.826953 -2.721414,3.162456 -4.333408,4.004288 -1.612028,0.823916 -3.586189,1.234199 -5.896727,1.234199 -3.11657,0 -5.644857,-0.906193 -7.597178,-2.715237 -1.841347,-1.739037 -2.791203,-3.979299 -2.879797,-6.692099 z m 20.70711,9.407336 v 0.877652 h 9.709029 v -0.877652 z" />
        </g>
      </g>
      <rect
         clip-path="url(#clipPath4156-4-1)"
         ry="3.9569881"
         rx="3.9569874"
         y="-30"
         x="2"
         height="69.024437"
         width="75.965775"
         id="rect4146"
         style="opacity:0.5078125;fill:url(#linearGradient4767);fill-opacity:1;stroke:none"
         transform="matrix(1.0692451,0,0,1.0476829,4.4441802,38.894013)" />
    </g>
  </g>
</svg>
