<?xml version="1.0" encoding="UTF-8" standalone="no"?>
<!-- Created with Inkscape (http://www.inkscape.org/) -->

<svg
   xmlns:dc="http://purl.org/dc/elements/1.1/"
   xmlns:cc="http://creativecommons.org/ns#"
   xmlns:rdf="http://www.w3.org/1999/02/22-rdf-syntax-ns#"
   xmlns:svg="http://www.w3.org/2000/svg"
   xmlns="http://www.w3.org/2000/svg"
   xmlns:xlink="http://www.w3.org/1999/xlink"
   xmlns:sodipodi="http://sodipodi.sourceforge.net/DTD/sodipodi-0.dtd"
   xmlns:inkscape="http://www.inkscape.org/namespaces/inkscape"
   width="96"
   height="96"
   id="svg2"
   version="1.1"
   inkscape:version="0.48.5 r10040"
   sodipodi:docname="media-cdrw.svg">
  <script
     xlink:href=""
     id="script2985" />
  <defs
     id="defs4">
    <filter
       color-interpolation-filters="sRGB"
       id="filter3832-0">
      <feGaussianBlur
         id="feGaussianBlur3834-4"
         stdDeviation="0.7690217" />
    </filter>
    <linearGradient
       id="linearGradient4370-2">
      <stop
         id="stop4372-3"
         style="stop-color:#2a7fff;stop-opacity:1"
         offset="0" />
      <stop
         id="stop4374-7"
         style="stop-color:#003380;stop-opacity:1"
         offset="1" />
    </linearGradient>
    <linearGradient
       id="linearGradient3266-4">
      <stop
         id="stop2807-3"
         style="stop-color:#ffffff;stop-opacity:1"
         offset="0" />
      <stop
         id="stop2809-4"
         style="stop-color:#000000;stop-opacity:0"
         offset="1" />
    </linearGradient>
    <filter
       color-interpolation-filters="sRGB"
       id="filter4365">
      <feGaussianBlur
         id="feGaussianBlur4367"
         stdDeviation="0.7690217" />
    </filter>
    <linearGradient
       id="linearGradient4370">
      <stop
         id="stop4372"
         style="stop-color:#2a7fff;stop-opacity:1"
         offset="0" />
      <stop
         id="stop4374"
         style="stop-color:#003380;stop-opacity:1"
         offset="1" />
    </linearGradient>
    <linearGradient
       id="linearGradient4377">
      <stop
         id="stop4379"
         style="stop-color:#ffffff;stop-opacity:1"
         offset="0" />
      <stop
         id="stop4381"
         style="stop-color:#000000;stop-opacity:0"
         offset="1" />
    </linearGradient>
    <linearGradient
       id="linearGradient3362">
      <stop
         id="stop3364"
         style="stop-color:#4d4d4d;stop-opacity:1"
         offset="0" />
      <stop
         id="stop3366"
         style="stop-color:#ffffff;stop-opacity:1"
         offset="1" />
    </linearGradient>
    <linearGradient
       id="linearGradient3342">
      <stop
         id="stop3344"
         style="stop-color:#000000;stop-opacity:0"
         offset="0" />
      <stop
         id="stop3350"
         style="stop-color:#000000;stop-opacity:0"
         offset="0.85000002" />
      <stop
         id="stop3346"
         style="stop-color:#000000;stop-opacity:1"
         offset="1" />
    </linearGradient>
    <linearGradient
       id="linearGradient3330">
      <stop
         id="stop3332"
         style="stop-color:#ffffff;stop-opacity:0.203125"
         offset="0" />
      <stop
         id="stop3334"
         style="stop-color:#ffffff;stop-opacity:0.6796875"
         offset="1" />
    </linearGradient>
    <clipPath
       id="clipPath4031">
      <path
         d="M 48,32 C 28.117749,32 12,48.117749 12,68 12,87.882251 28.117749,104 48,104 67.882251,104 84,87.882251 84,68 84,48.117749 67.882251,32 48,32 z m 0,24 c 6.627417,0 12,5.372583 12,12 0,6.627417 -5.372583,12 -12,12 -6.627417,0 -12,-5.372583 -12,-12 0,-6.627417 5.372583,-12 12,-12 z"
         inkscape:connector-curvature="0"
         id="path4033"
         style="fill:#bbb1bf;fill-opacity:1;stroke:none" />
    </clipPath>
    <filter
       x="-0.19037074"
       y="-0.1707008"
       width="1.3807415"
       height="1.3414016"
       color-interpolation-filters="sRGB"
       id="filter4035">
      <feGaussianBlur
         id="feGaussianBlur4037"
         stdDeviation="4.9476562" />
    </filter>
    <clipPath
       id="clipPath4187">
      <path
         d="m 48,102 c -19.88225,0 -36,16.11775 -36,36 0,19.88225 16.11775,36 36,36 19.88225,0 36,-16.11775 36,-36 0,-19.88225 -16.11775,-36 -36,-36 z m 0,24 c 6.62742,0 12,5.37258 12,12 0,6.62742 -5.37258,12 -12,12 -6.62742,0 -12,-5.37258 -12,-12 0,-6.62742 5.37258,-12 12,-12 z"
         inkscape:connector-curvature="0"
         id="path4189"
         style="fill:#bbb1bf;fill-opacity:1;stroke:none" />
    </clipPath>
    <filter
       x="-0.18000001"
       y="-0.18000001"
       width="1.36"
       height="1.36"
       color-interpolation-filters="sRGB"
       id="filter4195">
      <feGaussianBlur
         id="feGaussianBlur4197"
         stdDeviation="5.2159999" />
    </filter>
    <linearGradient
       id="linearGradient4042">
      <stop
         id="stop4044"
         style="stop-color:#ff9800;stop-opacity:1"
         offset="0" />
      <stop
         id="stop4046"
         style="stop-color:#ff4600;stop-opacity:1"
         offset="1" />
    </linearGradient>
    <linearGradient
       inkscape:collect="always"
       id="linearGradient3888-8-4-8-4-6-9-0-8-7-9">
      <stop
         style="stop-color:#ffffff;stop-opacity:1;"
         offset="0"
         id="stop3890-4-7-9-5-7-0-8-8-8-6" />
      <stop
         style="stop-color:#ffffff;stop-opacity:0;"
         offset="1"
         id="stop3892-5-8-2-8-3-3-3-06-4-4" />
    </linearGradient>
    <linearGradient
       inkscape:collect="always"
       id="linearGradient3888-8-4-8-6">
      <stop
         style="stop-color:#ffffff;stop-opacity:1;"
         offset="0"
         id="stop3890-4-7-9-7" />
      <stop
         style="stop-color:#ffffff;stop-opacity:0;"
         offset="1"
         id="stop3892-5-8-2-7" />
    </linearGradient>
    <linearGradient
       id="linearGradient4091-0-3-0-7">
      <stop
         style="stop-color:#ffffff;stop-opacity:1;"
         offset="0"
         id="stop4093-3-6-4-2" />
      <stop
         id="stop4099-6-1-8-3"
         offset="0.80000001"
         style="stop-color:#ffffff;stop-opacity:1;" />
      <stop
         style="stop-color:#ffffff;stop-opacity:0;"
         offset="1"
         id="stop4095-1-0-7-9" />
    </linearGradient>
    <linearGradient
       id="linearGradient3832-0-6-1-1">
      <stop
         style="stop-color:#000000;stop-opacity:1;"
         offset="0"
         id="stop3834-6-3-7-1" />
      <stop
         id="stop3872-2-4"
         offset="0.1"
         style="stop-color:#000000;stop-opacity:0.58823532;" />
      <stop
         style="stop-color:#000000;stop-opacity:0.58823532;"
         offset="0.89999998"
         id="stop3844-6-2-7-6" />
      <stop
         style="stop-color:#000000;stop-opacity:1;"
         offset="1"
         id="stop3836-5-0-2-9" />
    </linearGradient>
    <linearGradient
       gradientTransform="matrix(1.1353753,0,0,1.1336634,-40.037124,-46.787637)"
       y2="47.000011"
       x2="90"
       y1="47.000011"
       x1="6"
       gradientUnits="userSpaceOnUse"
       id="linearGradient5021"
       xlink:href="#linearGradient6139-0"
       inkscape:collect="always" />
    <linearGradient
       id="linearGradient6139-0">
      <stop
         id="stop6141-2"
         offset="0"
         style="stop-color:#b7b7b7;stop-opacity:1;" />
      <stop
         style="stop-color:#ffffff;stop-opacity:1;"
         offset="0.25"
         id="stop6151-0" />
      <stop
         style="stop-color:#9d9d9d;stop-opacity:1;"
         offset="0.5"
         id="stop6147-1" />
      <stop
         id="stop6149-4"
         offset="0.75"
         style="stop-color:#fafafa;stop-opacity:1;" />
      <stop
         id="stop6143-4"
         offset="1"
         style="stop-color:#b7b7b7;stop-opacity:1;" />
    </linearGradient>
    <linearGradient
       inkscape:collect="always"
       xlink:href="#linearGradient6139-0"
       id="linearGradient4788"
       gradientUnits="userSpaceOnUse"
       gradientTransform="matrix(1.1392856,0,0,1.1392855,-30.578504,-29.106973)"
       x1="6"
       y1="47.000011"
       x2="90"
       y2="47.000011" />
    <radialGradient
       inkscape:collect="always"
       xlink:href="#linearGradient3888-8-4-8-6"
       id="radialGradient4790"
       gradientUnits="userSpaceOnUse"
       gradientTransform="matrix(0,1.6209438,-2.0382846,0,160.66427,-243.03657)"
       cx="158"
       cy="6.2131939"
       fx="158"
       fy="6.2131939"
       r="41" />
    <radialGradient
       inkscape:collect="always"
       xlink:href="#linearGradient4091-0-3-0-7"
       id="radialGradient4792"
       gradientUnits="userSpaceOnUse"
       gradientTransform="matrix(-1.0721726,0,0,-0.87502024,199.46429,-19.125546)"
       cx="48"
       cy="-27"
       fx="48"
       fy="-27"
       r="42" />
    <linearGradient
       inkscape:collect="always"
       xlink:href="#linearGradient3832-0-6-1-1"
       id="linearGradient4794"
       gradientUnits="userSpaceOnUse"
       gradientTransform="matrix(1,0,0,0.88905855,200,8.9431737)"
       x1="-94"
       y1="82.984398"
       x2="-10.187523"
       y2="82.984398" />
    <linearGradient
       inkscape:collect="always"
       xlink:href="#linearGradient3888-8-4-8-4-6-9-0-8-7-9"
       id="linearGradient4796"
       gradientUnits="userSpaceOnUse"
       gradientTransform="matrix(1.1897772,0,0,1.1508138,-32.76873,-28.888012)"
       x1="62"
       y1="8"
       x2="62"
       y2="68" />
    <radialGradient
       inkscape:collect="always"
       xlink:href="#linearGradient4042"
       id="radialGradient4798"
       gradientUnits="userSpaceOnUse"
       gradientTransform="matrix(1.0034441,0,0,0.89395778,9.5965125,20.256666)"
       cx="14.693458"
       cy="0.38067999"
       fx="14.693458"
       fy="0.38067999"
       r="45.056355" />
    <linearGradient
       inkscape:collect="always"
       xlink:href="#linearGradient3362"
       id="linearGradient4800"
       gradientUnits="userSpaceOnUse"
       x1="25.220379"
       y1="61.92226"
       x2="94.567612"
       y2="61.92226" />
    <radialGradient
       inkscape:collect="always"
       xlink:href="#linearGradient3342"
       id="radialGradient4802"
       gradientUnits="userSpaceOnUse"
       gradientTransform="matrix(1,0,0,0.8375435,0,10.059672)"
       cx="59.893993"
       cy="61.92226"
       fx="59.893993"
       fy="61.92226"
       r="33.71384" />
    <linearGradient
       inkscape:collect="always"
       xlink:href="#linearGradient3330"
       id="linearGradient4804"
       gradientUnits="userSpaceOnUse"
       x1="26.180153"
       y1="61.92226"
       x2="93.607834"
       y2="61.92226" />
  </defs>
  <sodipodi:namedview
     id="base"
     pagecolor="#ffffff"
     bordercolor="#666666"
     borderopacity="1.0"
     inkscape:pageopacity="0.0"
     inkscape:pageshadow="2"
     inkscape:zoom="5.7196928"
     inkscape:cx="59.650236"
     inkscape:cy="32"
     inkscape:current-layer="g3339"
     showgrid="true"
     inkscape:document-units="px"
     inkscape:grid-bbox="true"
     inkscape:showpageshadow="false"
     gridtolerance="1"
     guidetolerance="1"
     objecttolerance="1"
     inkscape:window-width="1280"
     inkscape:window-height="966"
     inkscape:window-x="0"
     inkscape:window-y="0"
     inkscape:window-maximized="1" />
  <metadata
     id="metadata7">
    <rdf:RDF>
      <cc:Work
         rdf:about="">
        <dc:format>image/svg+xml</dc:format>
        <dc:type
           rdf:resource="http://purl.org/dc/dcmitype/StillImage" />
        <dc:title></dc:title>
      </cc:Work>
    </rdf:RDF>
  </metadata>
  <g
     id="layer1"
     inkscape:label="Layer 1"
     inkscape:groupmode="layer"
     transform="translate(0,32)">
    <g
       id="g4742"
       transform="translate(23.892792,-8.4394545)">
      <path
         style="fill:url(#linearGradient4788);fill-opacity:1;fill-rule:nonzero;stroke:none;display:inline"
         d="m 65.121491,-23.410546 -82.028566,0 c -3.786986,0 -6.835714,3.048728 -6.835714,6.835712 l 0,82.028577 c 0,3.786985 3.048728,6.835712 6.835714,6.835712 l 82.028566,0 c 3.786986,0 6.835714,-3.048727 6.835714,-6.835712 l 0,-82.028577 c 0,-3.786984 -3.048728,-6.835712 -6.835714,-6.835712 z"
         id="rect4251-1"
         inkscape:connector-curvature="0" />
      <g
         id="g3272"
         transform="matrix(1.1392856,0,0,1.1392855,-144.50706,-28.53733)">
        <path
           sodipodi:nodetypes="sscccsccscccsss"
           inkscape:connector-curvature="0"
           id="path3400-6"
           d="m 112,5.5 c -2.7873,0 -5,2.2127028 -5,5 l 0,20.71875 0,7 0,38.59375 c 1.07066,1.628779 2.89693,2.71875 5,2.71875 l 4,0 64,0 4,0 c 2.10307,0 3.92934,-1.089971 5,-2.71875 l 0,-38.59375 0,-7 L 189,10.5 c 0,-2.7872972 -2.2127,-5 -5,-5 z"
           style="opacity:0.2;fill:url(#radialGradient4790);fill-opacity:1;fill-rule:nonzero;stroke:none;display:inline" />
        <path
           inkscape:connector-curvature="0"
           id="path4236-5"
           d="m 112,4.5 c -3.324,0 -6,2.6759996 -6,6 l 0,15 1,0 0,-15 c 0,-2.7872972 2.2127,-5 5,-5 l 72,0 c 2.7873,0 5,2.2127028 5,5 l 0,15 1,0 0,-15 c 0,-3.3240004 -2.676,-6 -6,-6 l -72,0 z"
           style="opacity:0.45;fill:url(#radialGradient4792);fill-opacity:1;fill-rule:nonzero;stroke:none;display:inline" />
        <path
           style="opacity:0.43092107;fill:url(#linearGradient4794);fill-opacity:1;fill-rule:nonzero;stroke:none"
           d="m 106,76.942239 0,0.889058 0,0.889059 0,0.889059 0,1.778117 0,1.778117 c 0,2.95523 2.676,5.334351 6,5.334351 l 72,0 c 3.324,0 6,-2.379121 6,-5.334351 l 0,-1.778117 0,-1.778117 0,-0.889059 0,-0.889059 0,-0.889058 c 0,2.95523 -2.676,5.334351 -6,5.334351 l -72,0 c -3.324,0 -6,-2.379121 -6,-5.334351 z"
           id="path4242-5"
           inkscape:connector-curvature="0" />
      </g>
      <path
         style="font-size:medium;font-style:normal;font-variant:normal;font-weight:normal;font-stretch:normal;text-indent:0;text-align:start;text-decoration:none;line-height:normal;letter-spacing:normal;word-spacing:normal;text-transform:none;direction:ltr;block-progression:tb;writing-mode:lr-tb;text-anchor:start;baseline-shift:baseline;opacity:0.02000002;color:#000000;fill:#000000;fill-opacity:1;fill-rule:nonzero;stroke:none;stroke-width:6;marker:none;visibility:visible;display:inline;overflow:visible;enable-background:accumulate;font-family:Sans;-inkscape-font-specification:Sans"
         d="m -16.11185,37.859181 c -1.885105,0 -3.649478,0.973799 -4.759108,2.409519 l 0,16.003503 c 0,2.550203 2.122563,4.603254 4.759108,4.603254 l 80.904853,0 c 2.636547,0 4.759108,-2.053051 4.759108,-4.603254 l 0,-16.003503 C 68.442483,38.83298 66.67811,37.859181 64.793003,37.859181 l -80.904853,0 z m 0,3.452443 80.904853,0 c 1.359428,0 2.379555,0.986719 2.379555,2.301628 l 0,12.658951 c 0,1.314909 -1.020127,2.301628 -2.379555,2.301628 l -80.904853,0 c -1.359427,0 -2.379553,-0.986719 -2.379553,-2.301628 l 0,-12.658951 c 0,-1.314909 1.020126,-2.301628 2.379553,-2.301628 z"
         id="path4972"
         inkscape:connector-curvature="0" />
      <path
         style="opacity:0.45;color:#000000;fill:url(#linearGradient4796);fill-opacity:1;fill-rule:nonzero;stroke:none;stroke-width:2;marker:none;visibility:visible;display:inline;overflow:visible;enable-background:accumulate"
         d="m 12.442805,-19.681503 c 8.329439,27.7710158 16.984796,54.887837 25.766114,80.55696 l 26.584084,0 c 2.636547,0 4.759108,-2.053051 4.759108,-4.603254 l 0,-71.350449 c 0,-2.550205 -2.122561,-4.603257 -4.759108,-4.603257 l -52.350198,0 z"
         id="path4974"
         inkscape:connector-curvature="0" />
      <path
         sodipodi:nodetypes="sssssssss"
         inkscape:connector-curvature="0"
         style="opacity:0.11842107;color:#000000;fill:url(#radialGradient4798);fill-opacity:1;fill-rule:nonzero;stroke:none;stroke-width:2;marker:none;visibility:visible;display:inline;overflow:visible;enable-background:accumulate"
         d="m -16.11185,-19.681502 80.904853,0 c 2.636547,0 4.759108,2.053051 4.759108,4.603256 l 0,71.350449 c 0,2.550203 -2.122561,4.603254 -4.759108,4.603254 l -80.904853,0 c -2.636545,0 -4.759108,-2.053051 -4.759108,-4.603254 l 0,-71.350449 c 0,-2.550205 2.122563,-4.603256 4.759108,-4.603256 z"
         id="path4970" />
      <path
         id="path4989"
         d="m -15.167692,-18.831744 79.016539,0 c 2.575009,0 4.648031,2.005869 4.648031,4.497462 l 0,69.710655 c 0,2.491596 -2.073022,4.497463 -4.648031,4.497463 l -79.016539,0 c -2.575009,0 -4.648032,-2.005867 -4.648032,-4.497463 l 0,-69.710655 c 0,-2.491593 2.073023,-4.497462 4.648032,-4.497462 z"
         style="color:#000000;fill:none;stroke:#000000;stroke-width:2.35875297;stroke-opacity:0.7758007;marker:none;visibility:visible;display:inline;overflow:visible;enable-background:accumulate"
         inkscape:connector-curvature="0"
         sodipodi:nodetypes="sssssssss" />
      <g
         transform="matrix(1.2413535,0,0,1.1890602,-35.259059,-37.617748)"
         id="g3339"
         style="display:inline">
        <path
           inkscape:connector-curvature="0"
           d="m 48,31 c -9.926037,0 -18,8.073963 -18,18 0,9.926037 8.073963,18 18,18 9.926037,0 18,-8.073963 18,-18 0,-9.926037 -8.073963,-18 -18,-18 z m 0,10 c 4.436473,0 8,3.563527 8,8 0,4.436473 -3.563527,8 -8,8 -4.436473,0 -8,-3.563527 -8,-8 0,-4.436473 3.563527,-8 8,-8 z"
           id="path3736"
           style="opacity:0.05;color:#000000;fill:#000000;fill-opacity:1;fill-rule:nonzero;stroke:none;stroke-width:1;marker:none;visibility:visible;display:inline;overflow:visible;enable-background:accumulate" />
        <path
           d="m 48,33 c -8.836556,0 -16,7.163444 -16,16 0,8.836556 7.163444,16 16,16 8.836556,0 16,-7.163444 16,-16 0,-8.836556 -7.163444,-16 -16,-16 z m 0,6 c 5.522847,0 10,4.477153 10,10 0,5.522847 -4.477153,10 -10,10 -5.522847,0 -10,-4.477153 -10,-10 0,-5.522847 4.477153,-10 10,-10 z"
           inkscape:connector-curvature="0"
           id="path3725"
           style="opacity:0.3;color:#000000;fill:#000000;fill-opacity:1;fill-rule:nonzero;stroke:none;stroke-width:1;marker:none;visibility:visible;display:inline;overflow:visible;enable-background:accumulate" />
        <path
           inkscape:connector-curvature="0"
           d="m 48,31.96875 c -9.397533,0 -17.03125,7.633717 -17.03125,17.03125 0,9.397533 7.633717,17.03125 17.03125,17.03125 9.397533,0 17.03125,-7.633717 17.03125,-17.03125 0,-9.397533 -7.633717,-17.03125 -17.03125,-17.03125 z m 0,8.0625 c 4.96187,0 8.96875,4.00688 8.96875,8.96875 0,4.96187 -4.00688,8.96875 -8.96875,8.96875 -4.96187,0 -8.96875,-4.00688 -8.96875,-8.96875 0,-4.96187 4.00688,-8.96875 8.96875,-8.96875 z"
           id="path3732"
           style="opacity:0.1;color:#000000;fill:#000000;fill-opacity:1;fill-rule:nonzero;stroke:none;stroke-width:1;marker:none;visibility:visible;display:inline;overflow:visible;enable-background:accumulate" />
        <path
           d="m 48,18.084506 c -16.521871,0 -29.915493,13.393622 -29.915493,29.915493 0,16.521871 13.393622,29.915493 29.915493,29.915493 16.521871,0 29.915493,-13.393622 29.915493,-29.915493 C 77.915493,31.478128 64.521871,18.084506 48,18.084506 z m 0,19.943662 c 5.50729,0 9.971831,4.464541 9.971831,9.971831 0,5.50729 -4.464541,9.971831 -9.971831,9.971831 -5.50729,0 -9.971831,-4.464541 -9.971831,-9.971831 0,-5.50729 4.464541,-9.971831 9.971831,-9.971831 z"
           inkscape:connector-curvature="0"
           id="path3978"
           style="fill:#bbb1bf;fill-opacity:1;stroke:none;display:inline" />
        <path
           d="m 48,38.028168 c -5.50729,0 -9.971831,4.464541 -9.971831,9.971831 0,5.50729 4.464541,9.971831 9.971831,9.971831 5.50729,0 9.971831,-4.464541 9.971831,-9.971831 0,-5.50729 -4.464541,-9.971831 -9.971831,-9.971831 z m 0,5.816901 c 2.294704,0 4.15493,1.860226 4.15493,4.15493 0,2.294704 -1.860226,4.15493 -4.15493,4.15493 -2.294704,0 -4.15493,-1.860226 -4.15493,-4.15493 0,-2.294704 1.860226,-4.15493 4.15493,-4.15493 z"
           inkscape:connector-curvature="0"
           id="path3992"
           style="opacity:0.3;fill:#ffffff;fill-opacity:1;stroke:none;display:inline" />
        <path
           inkscape:connector-curvature="0"
           d="m 92.579506,61.92226 a 32.685513,27.208481 0 1 1 -65.371025,0 32.685513,27.208481 0 1 1 65.371025,0 z"
           transform="matrix(0,0.13983022,-0.16797786,0,58.40157,39.625008)"
           id="path4002-9"
           style="opacity:0.6;fill:none;stroke:url(#linearGradient4800);stroke-width:6.52489424;stroke-linecap:round;stroke-linejoin:miter;stroke-miterlimit:4;stroke-opacity:1;stroke-dasharray:none;stroke-dashoffset:0;display:inline" />
        <path
           inkscape:connector-curvature="0"
           d="m 92.579506,61.92226 a 32.685513,27.208481 0 1 1 -65.371025,0 32.685513,27.208481 0 1 1 65.371025,0 z"
           transform="matrix(0,0.24152223,-0.29014359,0,65.966347,33.534357)"
           id="path4010"
           style="opacity:0.5;fill:url(#radialGradient4802);fill-opacity:1;fill-rule:evenodd;stroke:url(#linearGradient4804);stroke-width:3.77759123;stroke-linecap:round;stroke-linejoin:miter;stroke-miterlimit:4;stroke-opacity:1;stroke-dasharray:none;stroke-dashoffset:0;display:inline" />
        <path
           d="M 57.3125,33.21875 48,68 79.1875,50 C 74.413603,41.731368 66.53496,35.689901 57.3125,33.21875 z M 48,68 16.8125,86 c 4.773897,8.268632 12.65254,14.3101 21.875,16.78125 L 48,68 z"
           inkscape:connector-curvature="0"
           transform="matrix(0.83098592,0,0,0.83098592,8.1126759,-8.5070427)"
           clip-path="url(#clipPath4031)"
           id="path4018"
           style="opacity:0.8;fill:#ffffff;fill-opacity:1;stroke:none;display:inline;filter:url(#filter4035)" />
        <g
           transform="matrix(0.83098592,0,0,0.83098592,8.1126759,-66.676057)"
           clip-path="url(#clipPath4187)"
           id="g4175"
           style="opacity:0.6;display:inline;filter:url(#filter4195)">
          <path
             inkscape:connector-curvature="0"
             d="m 60.947452,57.784124 a 20.708128,18.814091 0 0 1 -2.615496,2.905857 L 43.689098,47.38641 z"
             transform="matrix(1.5055399,0.86922388,-0.95672979,1.6571045,27.560302,21.500167)"
             id="path4039"
             style="fill:#7137c8;fill-opacity:1;stroke:none" />
          <path
             inkscape:connector-curvature="0"
             d="m 60.779363,58.010828 a 20.708128,18.814091 0 0 1 -3.384016,3.478847 L 43.689098,47.38641 z"
             transform="matrix(1.6792116,0.4499434,-0.49523981,1.8482599,-1.8956092,30.759984)"
             id="path4041"
             style="fill:#00ccff;fill-opacity:1;stroke:none" />
          <path
             inkscape:connector-curvature="0"
             d="m 62.72377,54.795738 a 20.708128,18.814091 0 0 1 -2.259683,3.622054 L 43.689098,47.38641 z"
             transform="matrix(1.7384478,0,-6.0266211e-8,1.9134595,-27.951218,47.328031)"
             id="path4043"
             style="fill:#ffcc00;fill-opacity:1;stroke:none" />
          <path
             inkscape:connector-curvature="0"
             d="m 61.622863,56.793455 a 20.708128,18.814091 0 0 1 -1.699251,2.272761 L 43.689098,47.38641 z"
             transform="matrix(1.6792116,-0.4499434,0.4952397,1.84826,-48.830877,70.075223)"
             id="path4045"
             style="fill:#ff0000;fill-opacity:1;stroke:none" />
          <path
             inkscape:connector-curvature="0"
             d="m 63.123303,53.883448 a 20.708128,18.814091 0 0 1 -2.370014,4.161918 L 43.689098,47.38641 z"
             transform="matrix(1.6792116,0.4499434,-0.49523981,1.8482599,-1.8956092,30.759984)"
             id="path4144"
             style="fill:#00ff00;fill-opacity:1;stroke:none" />
          <path
             inkscape:connector-curvature="0"
             d="m 60.947452,57.784124 a 20.708128,18.814091 0 0 1 -2.615496,2.905857 L 43.689098,47.38641 z"
             transform="matrix(-1.5055399,-0.86922388,0.95672979,-1.6571045,68.439684,254.49984)"
             id="path4155"
             style="fill:#7137c8;fill-opacity:1;stroke:none" />
          <path
             inkscape:connector-curvature="0"
             d="m 60.779363,58.010828 a 20.708128,18.814091 0 0 1 -3.384016,3.478847 L 43.689098,47.38641 z"
             transform="matrix(-1.6792116,-0.4499434,0.49523981,-1.8482599,97.895595,245.24003)"
             id="path4157"
             style="fill:#00ccff;fill-opacity:1;stroke:none" />
          <path
             inkscape:connector-curvature="0"
             d="m 62.72377,54.795738 a 20.708128,18.814091 0 0 1 -2.259683,3.622054 L 43.689098,47.38641 z"
             transform="matrix(-1.7384478,0,6.0266211e-8,-1.9134595,123.9512,228.67198)"
             id="path4159"
             style="fill:#ffcc00;fill-opacity:1;stroke:none" />
          <path
             inkscape:connector-curvature="0"
             d="m 61.622863,56.793455 a 20.708128,18.814091 0 0 1 -1.699251,2.272761 L 43.689098,47.38641 z"
             transform="matrix(-1.6792116,0.4499434,-0.4952397,-1.84826,144.83086,205.92479)"
             id="path4161"
             style="fill:#ff0000;fill-opacity:1;stroke:none" />
          <path
             inkscape:connector-curvature="0"
             d="m 63.123303,53.883448 a 20.708128,18.814091 0 0 1 -2.370014,4.161918 L 43.689098,47.38641 z"
             transform="matrix(-1.6792116,-0.4499434,0.49523981,-1.8482599,97.895595,245.24003)"
             id="path4163"
             style="fill:#00ff00;fill-opacity:1;stroke:none" />
        </g>
        <path
           d="m 48,35.950703 c -6.654642,0 -12.049296,5.394654 -12.049296,12.049296 0,6.654642 5.394654,12.049296 12.049296,12.049296 6.654642,0 12.049296,-5.394654 12.049296,-12.049296 0,-6.654642 -5.394654,-12.049296 -12.049296,-12.049296 z m 0,2.077465 c 5.50729,0 9.971831,4.464541 9.971831,9.971831 0,5.50729 -4.464541,9.971831 -9.971831,9.971831 -5.50729,0 -9.971831,-4.464541 -9.971831,-9.971831 0,-5.50729 4.464541,-9.971831 9.971831,-9.971831 z"
           inkscape:connector-curvature="0"
           id="path3986"
           style="opacity:0.2;fill:#000000;fill-opacity:1;stroke:none;display:inline" />
        <path
           d="m 18,48.5 c -0.0028,0.168333 0,0.331004 0,0.5 0,16.568542 13.431458,30 30,30 16.568542,0 30,-13.431458 30,-30 0,-0.168996 0.0028,-0.331667 0,-0.5 C 77.729858,64.835143 64.399546,78 48,78 31.600454,78 18.270142,64.835143 18,48.5 z"
           inkscape:connector-curvature="0"
           id="path3738"
           style="opacity:0.6;color:#000000;fill:#ffffff;fill-opacity:1;fill-rule:nonzero;stroke:none;stroke-width:1;marker:none;visibility:visible;display:inline;overflow:visible;enable-background:accumulate" />
        <path
           d="M 48,18 C 31.431458,18 18,31.431458 18,48 18,64.568542 31.431458,78 48,78 64.568542,78 78,64.568542 78,48 78,31.431458 64.568542,18 48,18 z m 0,3 C 62.911688,21 75,33.088312 75,48 75,62.911688 62.911688,75 48,75 33.088312,75 21,62.911688 21,48 21,33.088312 33.088312,21 48,21 z"
           inkscape:connector-curvature="0"
           id="path3749"
           style="opacity:0.05;color:#000000;fill:#000000;fill-opacity:1;fill-rule:nonzero;stroke:none;stroke-width:1;marker:none;visibility:visible;display:inline;overflow:visible;enable-background:accumulate" />
        <path
           d="M 48,18 C 31.431458,18 18,31.431458 18,48 18,64.568542 31.431458,78 48,78 64.568542,78 78,64.568542 78,48 78,31.431458 64.568542,18 48,18 z m 0,2.03125 C 63.46938,20.03125 75.96875,32.53062 75.96875,48 75.96875,63.46938 63.46938,75.96875 48,75.96875 32.53062,75.96875 20.03125,63.46938 20.03125,48 20.03125,32.53062 32.53062,20.03125 48,20.03125 z"
           inkscape:connector-curvature="0"
           id="path3743"
           style="opacity:0.1;color:#000000;fill:#000000;fill-opacity:1;fill-rule:nonzero;stroke:none;stroke-width:1;marker:none;visibility:visible;display:inline;overflow:visible;enable-background:accumulate" />
        <path
           d="M 48,18 C 31.431457,18 18,31.431457 18,48 18,64.568543 31.431457,78 48,78 64.568543,78 78,64.568543 78,48 78,31.431457 64.568543,18 48,18 z m 0,1 C 64.016258,19 77,31.983742 77,48 77,64.016258 64.016258,77 48,77 31.983742,77 19,64.016258 19,48 19,31.983742 31.983742,19 48,19 z"
           inkscape:connector-curvature="0"
           id="path3781"
           style="opacity:0.15;color:#000000;fill:#000000;fill-opacity:1;fill-rule:nonzero;stroke:none;stroke-width:1;marker:none;visibility:visible;display:inline;overflow:visible;enable-background:accumulate" />
        <path
           d="m 48,18 c -16.568542,0 -30,13.431458 -30,30 0,0.168996 -0.0028,0.331667 0,0.5 C 18.270142,32.164857 31.600454,19 48,19 64.399546,19 77.729858,32.164857 78,48.5 78.002784,48.331667 78,48.168996 78,48 78,31.431458 64.568542,18 48,18 z"
           inkscape:connector-curvature="0"
           id="path3753"
           style="opacity:0.2;color:#000000;fill:#000000;fill-opacity:1;fill-rule:nonzero;stroke:none;stroke-width:1;marker:none;visibility:visible;display:inline;overflow:visible;enable-background:accumulate" />
        <path
           d="m 45.470412,61.037591 -3.959186,0.0093 -2.978306,0 -0.303181,1.317259 2.256023,0.0093 0.521649,0 c 1.448209,0 2.333098,0.610511 2.086597,1.680317 -0.266034,1.17238 -1.536313,1.684974 -2.875759,1.684974 l -0.499357,0 0.646489,-2.881212 -2.242647,0 -0.958587,4.207779 3.192316,0 c 2.39365,0 4.679654,-1.314715 5.073823,-3.011541 0.07863,-0.308757 0.07148,-1.08276 -0.115923,-1.545335 0,-0.02065 -0.01253,-0.02868 -0.02229,-0.06982 -0.0101,-0.01021 -0.01711,-0.08307 0.02229,-0.09309 0.01986,-0.01039 0.05711,0.03152 0.06688,0.04189 0.01953,0.05142 0.03121,0.08844 0.03121,0.08844 l 2.028637,5.985846 5.171909,-6.088248 2.184688,0 0.526107,0 c 1.448208,0 2.332248,0.610512 2.095515,1.680317 -0.275802,1.172381 -1.545066,1.684974 -2.884677,1.684974 l -0.503816,0 0.650948,-2.881212 -2.247106,0 -0.954128,4.207779 3.192316,0 c 2.393982,0 4.689753,-1.314714 5.073822,-3.011541 0.394004,-1.686714 -1.301298,-3.006886 -3.705049,-3.006886 l -4.757265,0 c 0,0 -1.261502,1.55424 -1.49807,1.852542 -1.250877,1.573253 -1.480632,1.995342 -1.520363,2.108544 0.0099,-0.113202 -0.03879,-0.532998 -0.570694,-2.127162 -0.147503,-0.431985 -0.597445,-1.833924 -0.597445,-1.833924 l -1.627368,0 0,-0.0093 z m 2.05093,7.447397 c -6.068474,0 -10.985849,0.729906 -10.985849,1.624465 0,0.905097 4.917375,1.624461 10.985849,1.624461 6.068308,0 10.990308,-0.719364 10.990308,-1.624461 0,-0.894559 -4.922,-1.624465 -10.990308,-1.624465 z m -0.396811,1.121764 c 1.389107,0 2.514619,0.237325 2.514619,0.535281 0,0.298302 -1.125512,0.544592 -2.514619,0.544592 -1.389273,0 -2.510159,-0.24629 -2.510159,-0.544592 0,-0.297956 1.120886,-0.535281 2.510159,-0.535281 z"
           inkscape:connector-curvature="0"
           id="path3745"
           style="opacity:0.6;fill-rule:evenodd;display:inline" />
      </g>
      <path
         sodipodi:nodetypes="csssscc"
         inkscape:connector-curvature="0"
         style="color:#000000;fill:#ffffff;fill-opacity:0.44961243;stroke:none;stroke-width:2.28078365;marker:none;visibility:visible;display:inline;overflow:visible;enable-background:accumulate"
         d="m -6.7442305,-17.590294 69.1599255,-0.266573 c 2.574992,-0.0099 4.648031,1.978323 4.648031,4.435701 l 0,68.753344 c 0,1.969347 0.938911,5.169499 -9.165577,4.315364 -4.802796,-0.405981 -5.699281,0.173278 -9.753409,0.120336 -55.4469615,-77.629891 0.177581,-0.05225 -54.8889705,-77.358172 z"
         id="path3816" />
    </g>
  </g>
</svg>
