<?xml version="1.0" encoding="UTF-8" standalone="no"?>
<!-- Created with Inkscape (http://www.inkscape.org/) -->

<svg
   xmlns:dc="http://purl.org/dc/elements/1.1/"
   xmlns:cc="http://creativecommons.org/ns#"
   xmlns:rdf="http://www.w3.org/1999/02/22-rdf-syntax-ns#"
   xmlns:svg="http://www.w3.org/2000/svg"
   xmlns="http://www.w3.org/2000/svg"
   xmlns:xlink="http://www.w3.org/1999/xlink"
   xmlns:sodipodi="http://sodipodi.sourceforge.net/DTD/sodipodi-0.dtd"
   xmlns:inkscape="http://www.inkscape.org/namespaces/inkscape"
   width="96"
   height="96"
   viewBox="0 0 96.000001 96.000004"
   version="1.1"
   id="svg1072"
   inkscape:version="0.92.1 r15371"
   sodipodi:docname="transform-move.svg">
  <defs
     id="defs1066">
    <linearGradient
       id="linearGradient1019">
      <stop
         offset="0"
         style="stop-color:#010101;stop-opacity:0.64748204"
         id="stop1015" />
      <stop
         offset="1"
         style="stop-color:#040404;stop-opacity:0"
         id="stop1017" />
    </linearGradient>
    <linearGradient
       y2="47.000011"
       x2="90"
       y1="47.000011"
       x1="6"
       gradientTransform="matrix(1.1071428,0,0,1.1071426,-4.9939026,-3.620687)"
       gradientUnits="userSpaceOnUse"
       id="linearGradient4071"
       xlink:href="#linearGradient6139-0"
       inkscape:collect="always" />
    <linearGradient
       id="linearGradient6139-0">
      <stop
         style="stop-color:#c1adad;stop-opacity:1;"
         offset="0"
         id="stop6141-2" />
      <stop
         id="stop6151-0"
         offset="0.25"
         style="stop-color:#ffffff;stop-opacity:1;" />
      <stop
         id="stop6147-1"
         offset="0.5"
         style="stop-color:#aa9090;stop-opacity:1;" />
      <stop
         style="stop-color:#fbf9f9;stop-opacity:1;"
         offset="0.75"
         id="stop6149-4" />
      <stop
         style="stop-color:#c1adad;stop-opacity:1;"
         offset="1"
         id="stop6143-4" />
    </linearGradient>
    <linearGradient
       gradientUnits="userSpaceOnUse"
       y2="88.171875"
       x2="94.5"
       y1="88.171875"
       x1="1.5"
       id="linearGradient4129"
       xlink:href="#linearGradient3832-0-6-1-1"
       inkscape:collect="always"
       gradientTransform="translate(0.1489535,0.415026)" />
    <linearGradient
       id="linearGradient3832-0-6-1-1">
      <stop
         id="stop3834-6-3-7-1"
         offset="0"
         style="stop-color:#000000;stop-opacity:1;" />
      <stop
         style="stop-color:#000000;stop-opacity:0.58823532;"
         offset="0.1"
         id="stop3872-2-4" />
      <stop
         id="stop3844-6-2-7-6"
         offset="0.89999998"
         style="stop-color:#000000;stop-opacity:0.58823532;" />
      <stop
         id="stop3836-5-0-2-9"
         offset="1"
         style="stop-color:#000000;stop-opacity:1;" />
    </linearGradient>
    <radialGradient
       r="43.199203"
       fy="44.892841"
       fx="13.948145"
       cy="44.892841"
       cx="13.948145"
       gradientTransform="matrix(0.97513378,0,0,0.04919072,34.047649,80.581722)"
       gradientUnits="userSpaceOnUse"
       id="radialGradient7462"
       xlink:href="#linearGradient3737"
       inkscape:collect="always" />
    <linearGradient
       id="linearGradient3737">
      <stop
         id="stop3739"
         style="stop-color:#ffffff;stop-opacity:1"
         offset="0" />
      <stop
         id="stop3741"
         style="stop-color:#ffffff;stop-opacity:0"
         offset="1" />
    </linearGradient>
    <radialGradient
       r="43.199203"
       fy="44.892841"
       fx="13.948145"
       cy="44.892841"
       cx="13.948145"
       gradientTransform="matrix(0.88832663,0,0,0.04919072,31.959518,-90.31726)"
       gradientUnits="userSpaceOnUse"
       id="radialGradient7464"
       xlink:href="#linearGradient3737"
       inkscape:collect="always" />
    <linearGradient
       y2="14.514202"
       x2="50.527882"
       y1="-28.64156"
       x1="2.7713892"
       gradientUnits="userSpaceOnUse"
       id="linearGradient4767"
       xlink:href="#linearGradient3737"
       inkscape:collect="always" />
    <clipPath
       clipPathUnits="userSpaceOnUse"
       id="clipPath4156-4-1">
      <path
         style="opacity:0.6;fill:#ffffff;fill-opacity:1;stroke:none"
         d="m 27.046336,-55.695463 -14.21366,13.321486 h 0.06127 l 15.653407,21.770763 10.231384,-10.546177 C 38.561832,-32.30156 27.468089,-54.819245 27.046336,-55.695463 Z M 9.6468554,-39.382809 -5.2407289,-25.32124 15.987863,-7.8059573 26.372412,-18.382966 Z m 31.4906096,12.951445 -9.741259,9.713584 8.944804,12.4580526 7.780753,-7.5550056 z m -49.8397109,4.378822 -13.7541661,12.9822847 26.2830181,13.84571 0.06127,-0.0617 -0.122531,-0.0617 L 13.598503,-5.4007374 -8.7022409,-22.052595 Z m 38.0154159,7.400825 -9.802525,9.7752596 11.579232,9.5594001 7.62759,-7.40083 -8.669108,-11.0087257 z m 20.187073,5.6739697 -7.382526,7.2158 6.187844,8.54179 5.820249,-6.13651996 z m -32.195166,6.32154 -9.5574606,9.49772 13.6622686,7.1849703 7.933918,-7.6783603 z m 23.311629,2.37443004 -7.10683,6.93826996 8.362778,6.9074403 5.360756,-5.6739699 -0.06127,-0.0925 -0.0919,0.12335 -6.463539,-8.20258036 z m -8.730374,8.54178036 -7.505057,7.3391599 10.353916,5.45811 c 1.397496,-1.32103 5.67514,-6.12292 5.850882,-6.32154 z"
         id="path4158-0-8"
         inkscape:connector-curvature="0" />
    </clipPath>
    <clipPath
       id="clipPath3496-4-1"
       clipPathUnits="userSpaceOnUse">
      <rect
         ry="1.171887"
         y="1.2316679"
         x="5.309958"
         height="22.63365"
         width="13.277639"
         id="rect3498-7-0"
         style="opacity:0.62633481;fill:none;fill-opacity:1;fill-rule:nonzero;stroke:#000000;stroke-width:0.19602102;stroke-linecap:round;stroke-linejoin:miter;stroke-miterlimit:4;stroke-dasharray:none;stroke-opacity:1" />
    </clipPath>
    <clipPath
       id="clipPath1688"
       clipPathUnits="userSpaceOnUse">
      <rect
         ry="1.171887"
         y="1.2316679"
         x="5.309958"
         height="22.63365"
         width="13.277639"
         id="rect1686"
         style="opacity:0.62633481;fill:none;fill-opacity:1;fill-rule:nonzero;stroke:#000000;stroke-width:0.19602102;stroke-linecap:round;stroke-linejoin:miter;stroke-miterlimit:4;stroke-dasharray:none;stroke-opacity:1" />
    </clipPath>
    <clipPath
       id="clipPath1710"
       clipPathUnits="userSpaceOnUse">
      <rect
         ry="1.171887"
         y="1.2316679"
         x="5.309958"
         height="22.63365"
         width="13.277639"
         id="rect1708"
         style="opacity:0.62633481;fill:none;fill-opacity:1;fill-rule:nonzero;stroke:#000000;stroke-width:0.19602102;stroke-linecap:round;stroke-linejoin:miter;stroke-miterlimit:4;stroke-dasharray:none;stroke-opacity:1" />
    </clipPath>
    <clipPath
       id="clipPath1732"
       clipPathUnits="userSpaceOnUse">
      <rect
         ry="1.171887"
         y="1.2316679"
         x="5.309958"
         height="22.63365"
         width="13.277639"
         id="rect1730"
         style="opacity:0.62633481;fill:none;fill-opacity:1;fill-rule:nonzero;stroke:#000000;stroke-width:0.19602102;stroke-linecap:round;stroke-linejoin:miter;stroke-miterlimit:4;stroke-dasharray:none;stroke-opacity:1" />
    </clipPath>
    <linearGradient
       inkscape:collect="always"
       xlink:href="#linearGradient3737"
       id="linearGradient5729"
       x1="18.180271"
       y1="14.206214"
       x2="15.672464"
       y2="19.299807"
       gradientUnits="userSpaceOnUse" />
    <clipPath
       id="clipPath3496-4-1-3"
       clipPathUnits="userSpaceOnUse">
      <rect
         ry="1.171887"
         y="1.2316679"
         x="5.309958"
         height="22.63365"
         width="13.277639"
         id="rect3498-7-0-6"
         style="opacity:0.62633481;fill:none;fill-opacity:1;fill-rule:nonzero;stroke:#000000;stroke-width:0.19602102;stroke-linecap:round;stroke-linejoin:miter;stroke-miterlimit:4;stroke-dasharray:none;stroke-opacity:1" />
    </clipPath>
    <filter
       id="filter3484"
       height="1.2367425"
       y="-0.11837127"
       width="1.4005716"
       x="-0.20028582"
       inkscape:collect="always">
      <feGaussianBlur
         id="feGaussianBlur3486"
         stdDeviation="0.97202214"
         inkscape:collect="always" />
    </filter>
    <linearGradient
       inkscape:collect="always"
       xlink:href="#linearGradient1019"
       id="linearGradient1013"
       gradientUnits="userSpaceOnUse"
       x1="9.1540318"
       y1="3.2489102"
       x2="7.6776314"
       y2="19.013866" />
    <clipPath
       id="clipPath1130"
       clipPathUnits="userSpaceOnUse">
      <rect
         ry="1.171887"
         y="1.2316679"
         x="5.309958"
         height="22.63365"
         width="13.277639"
         id="rect1128"
         style="opacity:0.62633481;fill:none;fill-opacity:1;fill-rule:nonzero;stroke:#000000;stroke-width:0.19602102;stroke-linecap:round;stroke-linejoin:miter;stroke-miterlimit:4;stroke-dasharray:none;stroke-opacity:1" />
    </clipPath>
    <clipPath
       id="clipPath1145"
       clipPathUnits="userSpaceOnUse">
      <rect
         ry="1.171887"
         y="1.2316679"
         x="5.309958"
         height="22.63365"
         width="13.277639"
         id="rect1143"
         style="opacity:0.62633481;fill:none;fill-opacity:1;fill-rule:nonzero;stroke:#000000;stroke-width:0.19602102;stroke-linecap:round;stroke-linejoin:miter;stroke-miterlimit:4;stroke-dasharray:none;stroke-opacity:1" />
    </clipPath>
    <clipPath
       id="clipPath1160"
       clipPathUnits="userSpaceOnUse">
      <rect
         ry="1.171887"
         y="1.2316679"
         x="5.309958"
         height="22.63365"
         width="13.277639"
         id="rect1158"
         style="opacity:0.62633481;fill:none;fill-opacity:1;fill-rule:nonzero;stroke:#000000;stroke-width:0.19602102;stroke-linecap:round;stroke-linejoin:miter;stroke-miterlimit:4;stroke-dasharray:none;stroke-opacity:1" />
    </clipPath>
    <linearGradient
       inkscape:collect="always"
       xlink:href="#linearGradient1019"
       id="linearGradient1316"
       gradientUnits="userSpaceOnUse"
       x1="9.1540318"
       y1="3.2489102"
       x2="7.6776314"
       y2="19.013866" />
    <linearGradient
       inkscape:collect="always"
       xlink:href="#linearGradient1019"
       id="linearGradient1318"
       gradientUnits="userSpaceOnUse"
       x1="9.1540318"
       y1="3.2489102"
       x2="7.6776314"
       y2="19.013866" />
    <linearGradient
       inkscape:collect="always"
       xlink:href="#linearGradient1019"
       id="linearGradient1320"
       gradientUnits="userSpaceOnUse"
       x1="9.1540318"
       y1="3.2489102"
       x2="7.6776314"
       y2="19.013866" />
  </defs>
  <sodipodi:namedview
     id="base"
     pagecolor="#ffffff"
     bordercolor="#666666"
     borderopacity="1.0"
     inkscape:pageopacity="0.0"
     inkscape:pageshadow="2"
     inkscape:zoom="3.5520834"
     inkscape:cx="29.324807"
     inkscape:cy="48"
     inkscape:document-units="px"
     inkscape:current-layer="g2574"
     showgrid="false"
     inkscape:showpageshadow="false"
     units="px"
     inkscape:lockguides="true"
     inkscape:window-width="1280"
     inkscape:window-height="972"
     inkscape:window-x="0"
     inkscape:window-y="26"
     inkscape:window-maximized="1">
    <sodipodi:guide
       position="0,0"
       orientation="0,96"
       id="guide1621"
       inkscape:locked="true" />
    <sodipodi:guide
       position="96.000002,0"
       orientation="-96,0"
       id="guide1623"
       inkscape:locked="true" />
    <sodipodi:guide
       position="96.000002,96.000002"
       orientation="0,-96"
       id="guide1625"
       inkscape:locked="true" />
    <sodipodi:guide
       position="0,96.000002"
       orientation="96,0"
       id="guide1627"
       inkscape:locked="true" />
  </sodipodi:namedview>
  <metadata
     id="metadata1069">
    <rdf:RDF>
      <cc:Work
         rdf:about="">
        <dc:format>image/svg+xml</dc:format>
        <dc:type
           rdf:resource="http://purl.org/dc/dcmitype/StillImage" />
        <dc:title></dc:title>
        <dc:date>2017</dc:date>
        <dc:creator>
          <cc:Agent>
            <dc:title>Cristian Pozzessere &quot;ilnanny&quot;</dc:title>
          </cc:Agent>
        </dc:creator>
        <dc:subject>
          <rdf:Bag>
            <rdf:li>Global language</rdf:li>
          </rdf:Bag>
        </dc:subject>
        <dc:description>Playing with Inkscape on Gnu/Linux O. S.</dc:description>
        <dc:contributor>
          <cc:Agent>
            <dc:title>In the night, alone like a dog.</dc:title>
          </cc:Agent>
        </dc:contributor>
        <cc:license
           rdf:resource="http://creativecommons.org/licenses/by-sa/4.0/" />
      </cc:Work>
      <cc:License
         rdf:about="http://creativecommons.org/licenses/by-sa/4.0/">
        <cc:permits
           rdf:resource="http://creativecommons.org/ns#Reproduction" />
        <cc:permits
           rdf:resource="http://creativecommons.org/ns#Distribution" />
        <cc:requires
           rdf:resource="http://creativecommons.org/ns#Notice" />
        <cc:requires
           rdf:resource="http://creativecommons.org/ns#Attribution" />
        <cc:permits
           rdf:resource="http://creativecommons.org/ns#DerivativeWorks" />
        <cc:requires
           rdf:resource="http://creativecommons.org/ns#ShareAlike" />
      </cc:License>
    </rdf:RDF>
  </metadata>
  <g
     inkscape:label="Livello 1"
     inkscape:groupmode="layer"
     id="layer1"
     transform="translate(0,-1026.5197)">
    <g
       transform="translate(-0.14895645,1026.1047)"
       style="display:inline"
       id="g2574">
      <path
         inkscape:connector-curvature="0"
         id="path3288"
         d="M 89.29181,0.415026 H 7.0060911 c -3.798848,0 -6.8571352,3.058285 -6.8571352,6.8571399 V 89.557884 c 0,3.798857 3.0582872,6.857142 6.8571352,6.857142 H 89.29181 c 3.798857,0 6.857147,-3.058285 6.857147,-6.857142 V 7.2721659 c 0,-3.7988549 -3.05829,-6.8571399 -6.857147,-6.8571399 z"
         style="display:inline;opacity:0.15;fill:#000000;fill-opacity:1;fill-rule:nonzero;stroke:none" />
      <path
         style="display:inline;opacity:0.15;fill:#000000;fill-opacity:1;fill-rule:nonzero;stroke:none"
         d="M 88.648954,1.165026 H 7.6489471 c -3.739492,0 -6.749993,3.010499 -6.749993,6.7499969 V 88.915026 c 0,3.739501 3.010501,6.75 6.749993,6.75 H 88.648954 c 3.739503,0 6.750003,-3.010499 6.750003,-6.75 V 7.9150229 c 0,-3.7394979 -3.0105,-6.7499969 -6.750003,-6.7499969 z"
         id="path4085"
         inkscape:connector-curvature="0" />
      <path
         inkscape:connector-curvature="0"
         id="rect4251-1"
         d="M 88.006093,1.915026 H 8.2918111 c -3.680143,0 -6.6428566,2.962713 -6.6428566,6.6428549 V 88.272171 c 0,3.680142 2.9627136,6.642856 6.6428566,6.642856 H 88.006093 c 3.680143,0 6.642854,-2.962714 6.642854,-6.642856 V 8.5578809 c 0,-3.6801419 -2.962711,-6.6428549 -6.642854,-6.6428549 z"
         style="display:inline;fill:url(#linearGradient4071);fill-opacity:1;fill-rule:nonzero;stroke:none" />
      <path
         sodipodi:nodetypes="sscccsccscccsss"
         inkscape:connector-curvature="0"
         id="path3400-6"
         d="m 11.390247,6.8021682 c -2.8564964,0 -5.1241284,2.2883782 -5.1241284,5.1710028 v 21.42734 7.239403 39.913674 c 1.0972399,1.684484 2.9688485,2.811732 5.1241284,2.811732 h 4.099303 65.588849 4.099302 c 2.155281,0 4.026889,-1.127248 5.124129,-2.811732 V 40.639914 33.400511 11.973171 c 0,-2.8826246 -2.267632,-5.1710028 -5.124129,-5.1710028 z"
         style="display:inline;opacity:0.77864583;fill:#f5f3f3;fill-opacity:1;fill-rule:nonzero;stroke:none;stroke-width:1.02950251" />
      <path
         style="color:#000000;font-style:normal;font-variant:normal;font-weight:normal;font-stretch:normal;font-size:medium;line-height:normal;font-family:Sans;-inkscape-font-specification:Sans;text-indent:0;text-align:start;text-decoration:none;text-decoration-line:none;letter-spacing:normal;word-spacing:normal;text-transform:none;writing-mode:lr-tb;direction:ltr;baseline-shift:baseline;text-anchor:start;display:inline;overflow:visible;visibility:visible;fill:#241f1f;fill-opacity:0.63265303;stroke:none;stroke-width:2.3755002;marker:none;enable-background:accumulate"
         d="m 9.9740341,5.1444869 c -3.116621,0 -5.667965,2.53951 -5.667965,5.6460041 v 69.277996 c 0,3.106495 2.551344,5.646004 5.667965,5.646004 H 86.765819 c 3.116621,0 5.667968,-2.539509 5.667968,-5.646004 V 10.790491 c 0,-3.1064931 -2.551347,-5.6460041 -5.667968,-5.6460041 z m 0,2.319439 H 86.765819 c 1.888099,0 3.352022,1.480095 3.352022,3.3265651 v 69.277996 c 0,1.846474 -1.463923,3.326564 -3.352022,3.326564 H 9.9740341 c -1.888099,0 -3.352022,-1.48009 -3.352022,-3.326564 V 10.790491 c 0,-1.8464701 1.463923,-3.3265651 3.352022,-3.3265651 z"
         id="path4989"
         inkscape:connector-curvature="0" />
      <path
         id="path4118"
         d="m 1.6489535,82.258776 v 6 c 0,3.680142 2.9761066,6.65625 6.6562496,6.65625 H 87.992703 c 3.680143,0 6.656254,-2.976108 6.656254,-6.65625 v -6 c 0,3.680142 -2.976111,6.65625 -6.656254,6.65625 H 8.3052031 c -3.680143,0 -6.6562496,-2.976108 -6.6562496,-6.65625 z"
         style="display:inline;opacity:0.65818182;fill:url(#linearGradient4129);fill-opacity:1;fill-rule:nonzero;stroke:none"
         inkscape:connector-curvature="0" />
      <rect
         ry="4.25"
         rx="0"
         y="80.665031"
         x="5.5239539"
         height="4.25"
         width="84.250008"
         id="rect4131"
         style="opacity:0.55;fill:url(#radialGradient7462);fill-opacity:1;stroke:none" />
      <rect
         transform="rotate(90)"
         style="opacity:0.669;fill:url(#radialGradient7464);fill-opacity:1;stroke:none"
         id="rect4141"
         width="76.75"
         height="4.25"
         x="5.9750223"
         y="-90.233963"
         rx="0"
         ry="4.25" />
      <g
         transform="matrix(2.3282693,0,0,2.3282692,15.832656,14.68761)"
         style="display:inline"
         id="g1110">
        <g
           transform="matrix(-0.1590039,-0.632462,-0.4099544,0.245305,29.39624,16.286159)"
           id="g4270">
          <path
             style="opacity:0.72597866;fill:#000000;fill-opacity:1;fill-rule:evenodd;stroke:#000000;stroke-width:1;stroke-linecap:butt;stroke-linejoin:miter;stroke-miterlimit:4;stroke-dasharray:none;stroke-opacity:1;filter:url(#filter3484)"
             d="M 10.3366,13.200539 6,18.477013 l 3.9136329,0.405834 2.1376721,2.71884 2.17213,-0.67208 0.03816,-4.26501 2.386024,-1.837274 z"
             id="path4272"
             sodipodi:nodetypes="cccccccc"
             transform="matrix(1.0551164,0.00539891,-0.00539891,1.0551164,-0.4968868,-2.0741232)"
             clip-path="url(#clipPath3496-4-1-3)"
             inkscape:connector-curvature="0" />
          <path
             sodipodi:nodetypes="cccccccc"
             id="path4274"
             d="m 5.9993581,1.0078665 0.030014,16.1541545 3.9334799,0.451805 2.908213,2.112222 0.94824,-0.354911 0.678912,-3.627069 2.500151,-3.271242 z"
             style="fill:#000100;fill-rule:evenodd;stroke:#010000;stroke-width:3.73373699;stroke-linecap:butt;stroke-linejoin:round;stroke-miterlimit:4;stroke-dasharray:none;stroke-opacity:0.39928056"
             inkscape:connector-curvature="0" />
          <path
             style="fill:#d3d7cf;fill-rule:evenodd;stroke:none;stroke-width:1;stroke-linecap:butt;stroke-linejoin:round;stroke-miterlimit:4;stroke-dasharray:none;stroke-opacity:1"
             d="m 5.9988381,1.0786288 -0.09398,15.9258662 4.0425806,0.358431 2.8597063,2.485045 1.089168,-0.485511 0.519387,-3.558479 2.573346,-3.273387 z"
             id="path4276"
             sodipodi:nodetypes="cccccccc"
             inkscape:connector-curvature="0" />
          <path
             sodipodi:nodetypes="cccccccc"
             id="path4278"
             d="m 5.9983584,1.1723776 -0.0935,15.8321174 4.0737621,0.344501 2.8454205,2.457434 1.168235,-0.388998 0.418708,-3.674306 2.557884,-3.173736 z"
             style="fill:#f5f1f1;fill-opacity:1;fill-rule:evenodd;stroke:none;stroke-width:1;stroke-linecap:butt;stroke-linejoin:round;stroke-miterlimit:4;stroke-dasharray:none;stroke-opacity:1"
             inkscape:connector-curvature="0" />
          <path
             sodipodi:nodetypes="ccccccc"
             id="path4280"
             d="m 6.7153305,2.9231325 0.01726,13.1471245 3.1977189,0.292396 3.0595696,2.530815 0.795495,-3.622859 2.05043,-2.739915 z"
             style="opacity:1;fill:none;fill-rule:evenodd;stroke:url(#linearGradient1316);stroke-width:1.72565639;stroke-linecap:butt;stroke-linejoin:miter;stroke-miterlimit:4;stroke-dasharray:none;stroke-opacity:1"
             inkscape:connector-curvature="0" />
        </g>
        <g
           id="g5326"
           transform="matrix(0.6718891,0,0,0.6718891,6.1431572,5.2396452)">
          <circle
             transform="matrix(1.1533459,0,0,1.1533459,-1.475166,-3.0554381)"
             style="opacity:1;fill:none;fill-opacity:0.4856115;fill-rule:nonzero;stroke:#000100;stroke-width:2.75798559;stroke-linecap:round;stroke-linejoin:round;stroke-miterlimit:4;stroke-dasharray:none;stroke-opacity:0.50719425"
             id="path5324"
             cx="11.389421"
             cy="12.480784"
             r="2.1740491" />
          <circle
             transform="matrix(1.1767003,0,0,1.1767003,-1.7411594,-3.3469196)"
             id="path4149"
             style="opacity:1;fill:#d3d7cf;fill-opacity:1;fill-rule:nonzero;stroke:none;stroke-width:0.69363403;stroke-linecap:round;stroke-linejoin:round;stroke-miterlimit:4;stroke-dasharray:none;stroke-opacity:1"
             cx="11.389421"
             cy="12.480784"
             r="2.1740491" />
          <circle
             transform="matrix(1.1716595,0,0,1.1716595,-1.6439328,-3.3039138)"
             style="opacity:1;fill:#fbf7f7;fill-opacity:1;fill-rule:nonzero;stroke:none;stroke-width:0.69363403;stroke-linecap:round;stroke-linejoin:round;stroke-miterlimit:4;stroke-dasharray:none;stroke-opacity:1"
             id="path5301"
             cx="11.389421"
             cy="12.480784"
             r="2.1740491" />
        </g>
        <g
           id="g1031"
           transform="matrix(0.1590039,-0.632462,0.4099544,0.245305,-1.6363064,16.286159)">
          <path
             inkscape:connector-curvature="0"
             clip-path="url(#clipPath3496-4-1-3)"
             transform="matrix(1.0551164,0.00539891,-0.00539891,1.0551164,-0.4968868,-2.0741232)"
             sodipodi:nodetypes="cccccccc"
             id="path1021"
             d="M 10.3366,13.200539 6,18.477013 l 3.9136329,0.405834 2.1376721,2.71884 2.17213,-0.67208 0.03816,-4.26501 2.386024,-1.837274 z"
             style="opacity:0.72597866;fill:#000000;fill-opacity:1;fill-rule:evenodd;stroke:#000000;stroke-width:1;stroke-linecap:butt;stroke-linejoin:miter;stroke-miterlimit:4;stroke-dasharray:none;stroke-opacity:1;filter:url(#filter3484)" />
          <path
             inkscape:connector-curvature="0"
             style="fill:#000100;fill-rule:evenodd;stroke:#010000;stroke-width:3.73373699;stroke-linecap:butt;stroke-linejoin:round;stroke-miterlimit:4;stroke-dasharray:none;stroke-opacity:0.39928056"
             d="m 5.9993581,1.0078665 0.030014,16.1541545 3.9334799,0.451805 2.908213,2.112222 0.94824,-0.354911 0.678912,-3.627069 2.500151,-3.271242 z"
             id="path1023"
             sodipodi:nodetypes="cccccccc" />
          <path
             inkscape:connector-curvature="0"
             sodipodi:nodetypes="cccccccc"
             id="path1025"
             d="m 5.9988381,1.0786288 -0.09398,15.9258662 4.0425806,0.358431 2.8597063,2.485045 1.089168,-0.485511 0.519387,-3.558479 2.573346,-3.273387 z"
             style="fill:#d3d7cf;fill-rule:evenodd;stroke:none;stroke-width:1;stroke-linecap:butt;stroke-linejoin:round;stroke-miterlimit:4;stroke-dasharray:none;stroke-opacity:1" />
          <path
             inkscape:connector-curvature="0"
             style="fill:#f5f1f1;fill-opacity:1;fill-rule:evenodd;stroke:none;stroke-width:1;stroke-linecap:butt;stroke-linejoin:round;stroke-miterlimit:4;stroke-dasharray:none;stroke-opacity:1"
             d="m 5.9983584,1.1723776 -0.0935,15.8321174 4.0737621,0.344501 2.8454205,2.457434 1.168235,-0.388998 0.418708,-3.674306 2.557884,-3.173736 z"
             id="path1027"
             sodipodi:nodetypes="cccccccc" />
          <path
             inkscape:connector-curvature="0"
             style="opacity:1;fill:none;fill-rule:evenodd;stroke:url(#linearGradient1318);stroke-width:1.72565639;stroke-linecap:butt;stroke-linejoin:miter;stroke-miterlimit:4;stroke-dasharray:none;stroke-opacity:1"
             d="m 6.7153305,2.9231325 0.01726,13.1471245 3.1977189,0.292396 3.0595696,2.530815 0.795495,-3.622859 2.05043,-2.739915 z"
             id="path1029"
             sodipodi:nodetypes="ccccccc" />
        </g>
        <g
           transform="rotate(90,16.74087,13.089689)"
           id="g1075">
          <g
             transform="matrix(-0.1590039,-0.632462,-0.4099544,0.245305,31.935475,19.46873)"
             id="g1045">
            <path
               style="opacity:0.72597866;fill:#000000;fill-opacity:1;fill-rule:evenodd;stroke:#000000;stroke-width:1;stroke-linecap:butt;stroke-linejoin:miter;stroke-miterlimit:4;stroke-dasharray:none;stroke-opacity:1;filter:url(#filter3484)"
               d="M 10.3366,13.200539 6,18.477013 l 3.9136329,0.405834 2.1376721,2.71884 2.17213,-0.67208 0.03816,-4.26501 2.386024,-1.837274 z"
               id="path1035"
               sodipodi:nodetypes="cccccccc"
               transform="matrix(1.0551164,0.00539891,-0.00539891,1.0551164,-0.4968868,-2.0741232)"
               clip-path="url(#clipPath3496-4-1-3)"
               inkscape:connector-curvature="0" />
            <path
               sodipodi:nodetypes="cccccccc"
               id="path1037"
               d="m 5.9993581,1.0078665 0.030014,16.1541545 3.9334799,0.451805 2.908213,2.112222 0.94824,-0.354911 0.678912,-3.627069 2.500151,-3.271242 z"
               style="fill:#000100;fill-rule:evenodd;stroke:#010000;stroke-width:3.73373699;stroke-linecap:butt;stroke-linejoin:round;stroke-miterlimit:4;stroke-dasharray:none;stroke-opacity:0.39928056"
               inkscape:connector-curvature="0" />
            <path
               style="fill:#d3d7cf;fill-rule:evenodd;stroke:none;stroke-width:1;stroke-linecap:butt;stroke-linejoin:round;stroke-miterlimit:4;stroke-dasharray:none;stroke-opacity:1"
               d="m 5.9988381,1.0786288 -0.09398,15.9258662 4.0425806,0.358431 2.8597063,2.485045 1.089168,-0.485511 0.519387,-3.558479 2.573346,-3.273387 z"
               id="path1039"
               sodipodi:nodetypes="cccccccc"
               inkscape:connector-curvature="0" />
            <path
               sodipodi:nodetypes="cccccccc"
               id="path1041"
               d="m 5.9983584,1.1723776 -0.0935,15.8321174 4.0737621,0.344501 2.8454205,2.457434 1.168235,-0.388998 0.418708,-3.674306 2.557884,-3.173736 z"
               style="fill:#f5f1f1;fill-opacity:1;fill-rule:evenodd;stroke:none;stroke-width:1;stroke-linecap:butt;stroke-linejoin:round;stroke-miterlimit:4;stroke-dasharray:none;stroke-opacity:1"
               inkscape:connector-curvature="0" />
            <path
               sodipodi:nodetypes="ccccccc"
               id="path1043"
               d="m 6.7153305,2.9231325 0.01726,13.1471245 3.1977189,0.292396 3.0595696,2.530815 0.795495,-3.622859 2.05043,-2.739915 z"
               style="opacity:1;fill:none;fill-rule:evenodd;stroke:url(#linearGradient1320);stroke-width:1.72565639;stroke-linecap:butt;stroke-linejoin:miter;stroke-miterlimit:4;stroke-dasharray:none;stroke-opacity:1"
               inkscape:connector-curvature="0" />
          </g>
          <g
             id="g1057"
             transform="matrix(0.1590039,-0.632462,0.4099544,0.245305,0.90292882,19.46873)">
            <path
               inkscape:connector-curvature="0"
               clip-path="url(#clipPath3496-4-1-3)"
               transform="matrix(1.0551164,0.00539891,-0.00539891,1.0551164,-0.4968868,-2.0741232)"
               sodipodi:nodetypes="cccccccc"
               id="path1047"
               d="M 10.3366,13.200539 6,18.477013 l 3.9136329,0.405834 2.1376721,2.71884 2.17213,-0.67208 0.03816,-4.26501 2.386024,-1.837274 z"
               style="opacity:0.72597866;fill:#000000;fill-opacity:1;fill-rule:evenodd;stroke:#000000;stroke-width:1;stroke-linecap:butt;stroke-linejoin:miter;stroke-miterlimit:4;stroke-dasharray:none;stroke-opacity:1;filter:url(#filter3484)" />
            <path
               inkscape:connector-curvature="0"
               style="fill:#000100;fill-rule:evenodd;stroke:#010000;stroke-width:3.73373699;stroke-linecap:butt;stroke-linejoin:round;stroke-miterlimit:4;stroke-dasharray:none;stroke-opacity:0.39928056"
               d="m 5.9993581,1.0078665 0.030014,16.1541545 3.9334799,0.451805 2.908213,2.112222 0.94824,-0.354911 0.678912,-3.627069 2.500151,-3.271242 z"
               id="path1049"
               sodipodi:nodetypes="cccccccc" />
            <path
               inkscape:connector-curvature="0"
               sodipodi:nodetypes="cccccccc"
               id="path1051"
               d="m 5.9988381,1.0786288 -0.09398,15.9258662 4.0425806,0.358431 2.8597063,2.485045 1.089168,-0.485511 0.519387,-3.558479 2.573346,-3.273387 z"
               style="fill:#d3d7cf;fill-rule:evenodd;stroke:none;stroke-width:1;stroke-linecap:butt;stroke-linejoin:round;stroke-miterlimit:4;stroke-dasharray:none;stroke-opacity:1" />
            <path
               inkscape:connector-curvature="0"
               style="fill:#f5f1f1;fill-opacity:1;fill-rule:evenodd;stroke:none;stroke-width:1;stroke-linecap:butt;stroke-linejoin:round;stroke-miterlimit:4;stroke-dasharray:none;stroke-opacity:1"
               d="m 5.9983584,1.1723776 -0.0935,15.8321174 4.0737621,0.344501 2.8454205,2.457434 1.168235,-0.388998 0.418708,-3.674306 2.557884,-3.173736 z"
               id="path1053"
               sodipodi:nodetypes="cccccccc" />
            <path
               inkscape:connector-curvature="0"
               style="opacity:1;fill:none;fill-rule:evenodd;stroke:url(#linearGradient1013);stroke-width:1.72565639;stroke-linecap:butt;stroke-linejoin:miter;stroke-miterlimit:4;stroke-dasharray:none;stroke-opacity:1"
               d="m 6.7153305,2.9231325 0.01726,13.1471245 3.1977189,0.292396 3.0595696,2.530815 0.795495,-3.622859 2.05043,-2.739915 z"
               id="path1055"
               sodipodi:nodetypes="ccccccc" />
          </g>
        </g>
      </g>
      <rect
         clip-path="url(#clipPath4156-4-1)"
         ry="3.9569881"
         rx="3.9569874"
         y="-30"
         x="2"
         height="69.024437"
         width="75.965775"
         id="rect4146"
         style="opacity:0.497;fill:url(#linearGradient4767);fill-opacity:1;stroke:none"
         transform="matrix(1.0692451,0,0,1.0476829,4.4441802,38.894013)" />
    </g>
    <g
       style="display:inline"
       transform="matrix(2.3282693,0,0,2.3282692,-73.97198,1057.842)"
       id="g6209">
      <circle
         r="0"
         transform="matrix(0.7904011,0,0,0.770198,3.0931091,3.1436602)"
         cy="16.75301"
         cx="17.014757"
         id="path5721"
         style="opacity:0.82206403;fill:none;fill-opacity:1;fill-rule:nonzero;stroke:url(#linearGradient5729);stroke-width:1.23586035;stroke-linecap:round;stroke-linejoin:round;stroke-miterlimit:4;stroke-dasharray:none;stroke-opacity:1" />
    </g>
  </g>
</svg>
