<?xml version="1.0" encoding="UTF-8" standalone="no"?>
<svg
   xmlns:dc="http://purl.org/dc/elements/1.1/"
   xmlns:cc="http://creativecommons.org/ns#"
   xmlns:rdf="http://www.w3.org/1999/02/22-rdf-syntax-ns#"
   xmlns:svg="http://www.w3.org/2000/svg"
   xmlns="http://www.w3.org/2000/svg"
   xmlns:xlink="http://www.w3.org/1999/xlink"
   xmlns:sodipodi="http://sodipodi.sourceforge.net/DTD/sodipodi-0.dtd"
   xmlns:inkscape="http://www.inkscape.org/namespaces/inkscape"
   viewBox="0 0 96 96"
   version="1.1"
   id="svg6"
   sodipodi:docname="username-copy.svg"
   inkscape:version="0.92.1 r15371">
  <metadata
     id="metadata10">
    <rdf:RDF>
      <cc:Work
         rdf:about="">
        <dc:format>image/svg+xml</dc:format>
        <dc:type
           rdf:resource="http://purl.org/dc/dcmitype/StillImage" />
      </cc:Work>
    </rdf:RDF>
  </metadata>
  <sodipodi:namedview
     pagecolor="#ffffff"
     bordercolor="#666666"
     borderopacity="1"
     objecttolerance="10"
     gridtolerance="10"
     guidetolerance="10"
     inkscape:pageopacity="0"
     inkscape:pageshadow="2"
     inkscape:window-width="1280"
     inkscape:window-height="972"
     id="namedview8"
     showgrid="false"
     inkscape:snap-global="false"
     inkscape:zoom="6.8372396"
     inkscape:cx="56.025332"
     inkscape:cy="46.829937"
     inkscape:window-x="0"
     inkscape:window-y="26"
     inkscape:window-maximized="1"
     inkscape:current-layer="g5011" />
  <defs
     id="defs3051">
    <style
       type="text/css"
       id="current-color-scheme">
      .ColorScheme-Text {
        color:#4d4d4d;
      }
      </style>
    <linearGradient
       id="linearGradient4133"
       inkscape:collect="always">
      <stop
         id="stop4135"
         offset="0"
         style="stop-color:#ffffff;stop-opacity:1;" />
      <stop
         id="stop4137"
         offset="1"
         style="stop-color:#ffffff;stop-opacity:0;" />
    </linearGradient>
    <linearGradient
       id="linearGradient5700">
      <stop
         style="stop-color:#ffffff;stop-opacity:0;"
         offset="0"
         id="stop5702" />
      <stop
         id="stop5704"
         offset="0.02897836"
         style="stop-color:#ffffff;stop-opacity:0.85135138;" />
      <stop
         style="stop-color:#ffffff;stop-opacity:0;"
         offset="0.05199923"
         id="stop5706" />
      <stop
         id="stop5712"
         offset="0.96583712"
         style="stop-color:#ffffff;stop-opacity:0;" />
      <stop
         id="stop5710"
         offset="0.9788844"
         style="stop-color:#ffffff;stop-opacity:0.85135138;" />
      <stop
         style="stop-color:#ffffff;stop-opacity:0;"
         offset="1"
         id="stop5708" />
    </linearGradient>
    <linearGradient
       id="linearGradient3921">
      <stop
         id="stop3923"
         offset="0"
         style="stop-color:#2cffee;stop-opacity:1;" />
      <stop
         id="stop3925"
         offset="1"
         style="stop-color:#00586e;stop-opacity:1;" />
    </linearGradient>
    <linearGradient
       id="linearGradient4091-0-3-0-7">
      <stop
         id="stop4093-3-6-4-2"
         offset="0"
         style="stop-color:#ffffff;stop-opacity:1;" />
      <stop
         style="stop-color:#ffffff;stop-opacity:1;"
         offset="0.80000001"
         id="stop4099-6-1-8-3" />
      <stop
         id="stop4095-1-0-7-9"
         offset="1"
         style="stop-color:#ffffff;stop-opacity:0;" />
    </linearGradient>
    <linearGradient
       id="linearGradient3832-0-6-1-1">
      <stop
         id="stop3834-6-3-7-1"
         offset="0"
         style="stop-color:#000000;stop-opacity:1;" />
      <stop
         style="stop-color:#000000;stop-opacity:0.58823532;"
         offset="0.1"
         id="stop3872-2-4" />
      <stop
         id="stop3844-6-2-7-6"
         offset="0.89999998"
         style="stop-color:#000000;stop-opacity:0.58823532;" />
      <stop
         id="stop3836-5-0-2-9"
         offset="1"
         style="stop-color:#000000;stop-opacity:1;" />
    </linearGradient>
    <linearGradient
       gradientUnits="userSpaceOnUse"
       y2="47.000011"
       x2="90"
       y1="47.000011"
       x1="6"
       id="linearGradient3923"
       xlink:href="#linearGradient6139-0"
       inkscape:collect="always" />
    <linearGradient
       id="linearGradient6139-0">
      <stop
         style="stop-color:#b7b7b7;stop-opacity:1;"
         offset="0"
         id="stop6141-2" />
      <stop
         id="stop6151-0"
         offset="0.25"
         style="stop-color:#ffffff;stop-opacity:1;" />
      <stop
         id="stop6147-1"
         offset="0.5"
         style="stop-color:#9d9d9d;stop-opacity:1;" />
      <stop
         style="stop-color:#fafafa;stop-opacity:1;"
         offset="0.75"
         id="stop6149-4" />
      <stop
         style="stop-color:#b7b7b7;stop-opacity:1;"
         offset="1"
         id="stop6143-4" />
    </linearGradient>
    <linearGradient
       y2="47.000011"
       x2="90"
       y1="47.000011"
       x1="6"
       gradientTransform="matrix(1.1353753,0,0,1.1336634,-40.037124,-46.787637)"
       gradientUnits="userSpaceOnUse"
       id="linearGradient4071"
       xlink:href="#linearGradient6139-0"
       inkscape:collect="always" />
    <radialGradient
       r="41"
       fy="6.2131939"
       fx="158"
       cy="6.2131939"
       cx="158"
       gradientTransform="matrix(0,1.6209438,-2.0382846,0,160.66427,-243.03657)"
       gradientUnits="userSpaceOnUse"
       id="radialGradient4073"
       xlink:href="#linearGradient4133"
       inkscape:collect="always" />
    <radialGradient
       r="42"
       fy="-27"
       fx="48"
       cy="-27"
       cx="48"
       gradientTransform="matrix(-1.0721726,0,0,-0.87502024,199.46429,-19.125546)"
       gradientUnits="userSpaceOnUse"
       id="radialGradient4075"
       xlink:href="#linearGradient4091-0-3-0-7"
       inkscape:collect="always" />
    <linearGradient
       y2="14.514202"
       x2="50.527882"
       y1="-28.64156"
       x1="2.7713892"
       gradientUnits="userSpaceOnUse"
       id="linearGradient4767"
       xlink:href="#linearGradient4133"
       inkscape:collect="always" />
    <clipPath
       id="clipPath4156-4"
       clipPathUnits="userSpaceOnUse">
      <path
         inkscape:connector-curvature="0"
         id="path4158-0"
         d="m 27.046336,-55.695463 -14.21366,13.321486 0.06127,0 15.653407,21.770763 10.231384,-10.546177 C 38.561832,-32.30156 27.468089,-54.819245 27.046336,-55.695463 z M 9.6468554,-39.382809 -5.2407289,-25.32124 15.987863,-7.8059573 26.372412,-18.382966 9.6468554,-39.382809 z m 31.4906096,12.951445 -9.741259,9.713584 8.944804,12.4580526 7.780753,-7.5550056 -6.984298,-14.616631 z m -49.8397109,4.378822 -13.7541661,12.9822847 26.2830181,13.84571 0.06127,-0.0617 -0.122531,-0.0617 L 13.598503,-5.4007374 -8.7022409,-22.052595 z m 38.0154159,7.400825 -9.802525,9.7752596 11.579232,9.5594001 7.62759,-7.40083 -8.669108,-11.0087257 -0.735189,-0.925104 z m 20.187073,5.6739697 -7.382526,7.2158 6.187844,8.54179 5.820249,-6.13651996 -4.625567,-9.62107004 z m -32.195166,6.32154 -9.5574606,9.49772 13.6622686,7.1849703 7.933918,-7.6783603 -12.038726,-9.00433 z m 23.311629,2.37443004 -7.10683,6.93826996 8.362778,6.9074403 5.360756,-5.6739699 -0.06127,-0.0925 -0.0919,0.12335 -6.463539,-8.20258036 z m -8.730374,8.54178036 -7.505057,7.3391599 10.353916,5.45811 c 1.397496,-1.32103 5.67514,-6.12292 5.850882,-6.32154 L 31.886332,8.2600031 z"
         style="opacity:0.6;fill:#ffffff;fill-opacity:1;stroke:none" />
    </clipPath>
    <linearGradient
       y2="29.454437"
       x2="76.197693"
       y1="42.063522"
       x1="45.99942"
       gradientTransform="matrix(1.1376233,0,0,1.1422854,-40.393161,-45.01103)"
       gradientUnits="userSpaceOnUse"
       id="linearGradient4112"
       xlink:href="#linearGradient4133"
       inkscape:collect="always" />
    <linearGradient
       gradientUnits="userSpaceOnUse"
       y2="88.171875"
       x2="94.5"
       y1="88.171875"
       x1="1.5"
       id="linearGradient4129"
       xlink:href="#linearGradient3832-0-6-1-1"
       inkscape:collect="always" />
    <radialGradient
       gradientUnits="userSpaceOnUse"
       gradientTransform="matrix(1,0,0,0.05036905,0,39.43178)"
       r="43.199203"
       fy="44.892843"
       fx="13.948145"
       cy="44.892843"
       cx="13.948145"
       id="radialGradient4139"
       xlink:href="#linearGradient4133"
       inkscape:collect="always" />
    <radialGradient
       r="43.199203"
       fy="44.892843"
       fx="13.948145"
       cy="44.892843"
       cx="13.948145"
       gradientTransform="matrix(0.90960585,0,0,0.0504451,-11.184537,-58.258273)"
       gradientUnits="userSpaceOnUse"
       id="radialGradient4143"
       xlink:href="#linearGradient4133"
       inkscape:collect="always" />
    <radialGradient
       inkscape:collect="always"
       xlink:href="#linearGradient3921"
       id="radialGradient959"
       cx="14.693459"
       cy="3.070312"
       fx="14.693459"
       fy="3.070312"
       r="45.056355"
       gradientTransform="matrix(1.0998666,0.01329547,-0.01218175,1.0046981,-1.4299838,-0.20978101)"
       gradientUnits="userSpaceOnUse" />
  </defs>
  <g
     transform="translate(2.418628e-7,80)"
     inkscape:label="Layer 1"
     id="layer1">
    <g
       transform="matrix(1.0034441,0,0,1.0049592,33.489303,-38.526762)"
       id="g5148">
      <g
         transform="matrix(0.88387919,0,0,0.83393165,-3.5257642,5.0081212)"
         id="g5766" />
      <path
         inkscape:connector-curvature="0"
         id="path3288"
         d="m 55.462534,-41.268579 h -82.003291 c -3.78581,0 -6.8336,3.043193 -6.8336,6.823302 v 81.87966 c 0,3.780111 3.04779,6.823304 6.8336,6.823304 h 82.003291 c 3.785819,0 6.833607,-3.043193 6.833607,-6.823304 v -81.87966 c 0,-3.780109 -3.047788,-6.823302 -6.833607,-6.823302 z"
         style="display:inline;opacity:0.15;fill:#000000;fill-opacity:1;fill-rule:nonzero;stroke:none" />
      <path
         style="display:inline;opacity:0.15;fill:#000000;fill-opacity:1;fill-rule:nonzero;stroke:none"
         d="m 54.821885,-40.52228 h -80.721993 c -3.726657,0 -6.726825,2.995643 -6.726825,6.716688 v 80.60029 c 0,3.721047 3.000168,6.71669 6.726825,6.71669 h 80.721993 c 3.726665,0 6.726832,-2.995643 6.726832,-6.71669 v -80.60029 c 0,-3.721045 -3.000167,-6.716688 -6.726832,-6.716688 z"
         id="path4085"
         inkscape:connector-curvature="0" />
      <g
         transform="matrix(0.97178685,0,0,0.97178682,0.40798707,0.18323223)"
         id="g4060">
        <path
           inkscape:connector-curvature="0"
           id="rect4251-1"
           d="M 55.334401,-41.11932 H -26.41262 c -3.773988,0 -6.812252,3.033683 -6.812252,6.80198 v 81.623788 c 0,3.768297 3.038264,6.80198 6.812252,6.80198 h 81.747021 c 3.773988,0 6.812252,-3.033683 6.812252,-6.80198 V -34.31734 c 0,-3.768297 -3.038264,-6.80198 -6.812252,-6.80198 z"
           style="display:inline;fill:url(#linearGradient4071);fill-opacity:1;fill-rule:nonzero;stroke:none" />
        <g
           transform="matrix(1.1353753,0,0,1.1336634,-153.57465,-46.220805)"
           id="g3272">
          <path
             style="display:inline;opacity:0.2;fill:url(#radialGradient4073);fill-opacity:1;fill-rule:nonzero;stroke:none"
             d="m 112,5.5 c -2.7873,0 -5,2.2127028 -5,5 v 20.71875 7 38.59375 c 1.07066,1.628779 2.89693,2.71875 5,2.71875 h 4 64 4 c 2.10307,0 3.92934,-1.089971 5,-2.71875 v -38.59375 -7 V 10.5 c 0,-2.7872972 -2.2127,-5 -5,-5 z"
             id="path3400-6"
             inkscape:connector-curvature="0"
             sodipodi:nodetypes="sscccsccscccsss" />
          <path
             style="display:inline;opacity:0.45;fill:url(#radialGradient4075);fill-opacity:1;fill-rule:nonzero;stroke:none"
             d="m 112,4.5 c -3.324,0 -6,2.6759996 -6,6 v 15 h 1 v -15 c 0,-2.7872972 2.2127,-5 5,-5 h 72 c 2.7873,0 5,2.2127028 5,5 v 15 h 1 v -15 c 0,-3.3240004 -2.676,-6 -6,-6 z"
             id="path4236-5"
             inkscape:connector-curvature="0" />
        </g>
        <path
           id="path4970"
           d="M -25.620124,-37.408678 H 55.00704 c 2.627498,0 4.742774,2.063272 4.742774,4.626172 v 71.705638 c 0,2.562899 -2.115276,4.62617 -4.742774,4.62617 h -80.627164 c -2.627496,0 -4.742773,-2.063271 -4.742773,-4.62617 v -71.705638 c 0,-2.5629 2.115277,-4.626172 4.742773,-4.626172 z"
           style="color:#000000;display:inline;overflow:visible;visibility:visible;fill:url(#radialGradient959);fill-opacity:1;fill-rule:nonzero;stroke:none;stroke-width:2;marker:none;enable-background:accumulate"
           inkscape:connector-curvature="0"
           sodipodi:nodetypes="sssssssss" />
        <g
           style="enable-background:new"
           id="g5011"
           transform="matrix(1.4656537,0,0,1.4465514,-61.98457,-69.35002)">
          <g
             id="g988"
             transform="translate(9.4951732e-7,2.1048276)">
            <path
               style="opacity:0.87272728;fill:#ffffff;fill-opacity:0.74693879;stroke:none;stroke-width:1.01314211"
               d="m 50.235161,27.752526 c -6.416936,0 -12.576129,6.588632 -12.576129,14.739184 0,2.484727 1.439252,4.528711 2.420001,6.585248 1.372316,2.877623 2.674767,5.493266 5.171888,6.851403 -0.403175,0.468999 -0.841434,1.07424 -1.353337,1.953799 -0.89774,1.542508 0.09498,1.690002 -2.145533,2.467955 -6.737886,2.339533 -13.401335,4.856748 -13.401335,7.198207 0,0.806556 -2.130929,1.997519 -0.92423,2.570788 3.353006,1.592922 13.650053,1.816689 22.34656,1.816689 8.79694,0 19.810973,0.05499 23.105749,-1.576749 1.134587,-0.561904 -0.735065,-2.347237 -1.122279,-3.016391 -1.152287,-1.991289 -4.334479,-4.388005 -12.543121,-5.621456 -0.526752,-0.07915 -2.307262,-1.169112 -3.102772,-3.873321 -0.265691,-0.903176 -0.594458,-1.508347 -0.957238,-1.953799 2.518014,-1.434306 3.689009,-3.99911 4.985862,-7.037487 0.856206,-2.005991 2.308953,-4.162159 2.308953,-6.536272 0,-8.150552 -5.796103,-14.567798 -12.213039,-14.567798 z"
               id="path5000"
               inkscape:connector-curvature="0"
               sodipodi:nodetypes="ssscssssssssscsss" />
            <g
               transform="translate(0.35374087)"
               id="g978">
              <path
                 id="path981"
                 style="color:#4d4d4d;fill:#040606;fill-opacity:0.64119604;stroke:none;stroke-width:2.30480003"
                 d="m 55.960115,55.612468 1.801988,-2.451589 H 73.717562 V 36.847151 H 66.879508 64.600157 V 34.516618 27.52502 h -9.117405 v 4.661065 c -0.110008,-4.39688 -2.24428,-5.535249 -2.279351,-2.330534 V 27.52502 25.194487 h 13.676107 l 9.117406,9.322131 v 2.330533 16.313728 2.330532 z M 50.157392,28.626347 c -3.836471,0.02291 -7.197804,2.412223 -9.097873,5.982307 1.964754,-2.983199 5.036075,-4.909856 8.487061,-4.930473 h 0.128592 c 5.781139,0.08194 10.442068,5.497925 10.608827,12.326182 0.0052,0.189012 0.08282,0.371447 0.225035,0.493048 0.404624,0.350269 0.578664,0.810676 0.578664,1.413402 0,0.612796 -0.196719,1.309082 -0.546516,2.037928 0.741943,-1.109232 1.189475,-2.184839 1.189475,-3.089762 0,-0.602725 -0.206188,-1.063133 -0.610811,-1.413402 C 60.977637,41.323975 60.900019,41.141541 60.89481,40.952529 60.728051,34.124272 56.067122,28.708293 50.285984,28.626347 Z m -10.319495,5.45639 c -1.228094,1.943829 -2.019738,4.265277 -2.250358,6.804053 0.162291,-0.204446 0.355603,-0.424064 0.578664,-0.591657 0.141799,-2.274681 0.715303,-4.373556 1.671694,-6.212396 z m -0.996587,7.36284 c -0.324217,0.269838 -0.510982,0.598146 -0.578664,1.018964 0.0742,-0.05897 0.137021,-0.110734 0.225036,-0.164349 0.187445,-0.114998 0.312433,-0.33673 0.32148,-0.558787 0.0043,-0.09992 0.02598,-0.196553 0.03215,-0.295828 z m -1.73599,0.328697 c -0.515551,0.563194 -0.803699,1.273899 -0.803699,2.136539 0,1.563652 0.865148,3.412036 2.378949,5.127692 1.045824,2.93829 2.667083,5.52311 4.597158,7.329969 -0.106158,0.439551 -0.23219,0.853402 -0.417923,1.249054 0.498777,-0.682716 0.856384,-1.454151 1.060883,-2.300888 -1.930076,-1.80686 -3.551334,-4.391679 -4.597159,-7.32997 -1.5138,-1.715656 -2.378949,-3.564038 -2.378949,-5.127691 0,-0.391784 0.05365,-0.753858 0.16074,-1.084705 z m 24.561041,4.864734 c -0.132775,0.201922 -0.266716,0.39069 -0.417923,0.591657 -0.03467,0.110129 -0.0601,0.219367 -0.09644,0.328698 0.194249,-0.305174 0.364012,-0.617345 0.514368,-0.920355 z m -1.671694,0.295829 c -0.140054,0.213599 -0.285195,0.409772 -0.450071,0.624526 -0.04787,0.06212 -0.07193,0.154747 -0.09645,0.230088 -0.37595,1.218534 -0.844233,2.372873 -1.41451,3.451331 0.796624,-1.296147 1.466168,-2.759016 1.961026,-4.305945 z m -0.93229,5.094822 c -0.870768,1.398703 -1.857853,2.617224 -2.957613,3.582809 0.02984,0.122505 0.06038,0.242464 0.09645,0.361569 1.075333,-1.094774 2.047498,-2.441768 2.861169,-3.944378 z m -4.307827,3.51707 c -0.132196,0.119476 -0.283033,0.250552 -0.417924,0.361568 -0.186148,0.153325 -0.268998,0.385286 -0.225035,0.624526 0.359374,1.917884 1.5558,4.541854 5.240117,6.179527 0.435652,0.192976 1.136077,0.336903 1.993174,0.525917 3.20211,0.708467 8.554705,1.916776 9.869423,6.935532 0.07751,0.294752 0.326403,0.493047 0.610812,0.493047 0.05556,0 0.103815,-0.01834 0.160739,-0.03287 0.345156,-0.09517 0.573999,-0.468834 0.482219,-0.821746 -0.01825,-0.06967 -0.04474,-0.12883 -0.0643,-0.197219 -0.270819,-0.01497 -0.504298,-0.210242 -0.578663,-0.493047 -1.314719,-5.018755 -6.667314,-6.227065 -9.869424,-6.935532 -0.857097,-0.189013 -1.525374,-0.332939 -1.961025,-0.525917 -3.641932,-1.618832 -4.865523,-4.202016 -5.240118,-6.113786 z m -10.866011,2.859674 c -0.8057,1.101859 -2.047743,2.173641 -3.889903,2.991154 -0.416261,0.183727 -1.054041,0.328974 -1.864582,0.525917 -2.88561,0.702812 -7.479085,1.845354 -9.387204,5.686479 2.160004,-3.012254 6.17059,-3.999982 8.776393,-4.634645 0.810541,-0.196942 1.448321,-0.34219 1.864582,-0.525917 2.429063,-1.077968 3.760054,-2.588783 4.500714,-4.042988 z m -16.299015,8.579023 c -0.560287,0.813031 -0.998929,1.731884 -1.285919,2.826804 -0.09176,0.352913 0.104851,0.726579 0.450072,0.821746 0.346452,0.08855 0.713216,-0.108591 0.803698,-0.460177 0.05638,-0.215074 0.122356,-0.4227 0.192889,-0.624527 -0.117786,0.04159 -0.255856,0.06608 -0.385776,0.03287 -0.34522,-0.09516 -0.541825,-0.468833 -0.450072,-0.821745 0.171152,-0.652976 0.399745,-1.225715 0.675108,-1.774971 z"
                 inkscape:connector-curvature="0"
                 sodipodi:nodetypes="cccccccccccccccccccccccccscscccccccccccccccscccccscccccccccccccccccccccccscccccccccccccccccccccccc" />
              <path
                 sodipodi:nodetypes="cccccccccccccccccccccccccscscccccccccccccccscccccscccccccccccccccccccccccscccccccccccccccccccccccc"
                 inkscape:connector-curvature="0"
                 d="M 56.7543,55.372541 58.604508,52.88188 H 74.986922 V 36.308154 h -7.021035 -2.340344 v -2.367675 -7.103026 h -9.36138 v 4.73535 c -0.112951,-4.466955 -2.304335,-5.623466 -2.340344,-2.367676 v -2.367674 -2.367675 h 14.042068 l 9.36138,9.470701 v 2.367675 16.573726 2.367675 z M 50.796301,27.956332 c -3.939131,0.02328 -7.390411,2.450668 -9.341324,6.07765 2.017329,-3.030744 5.170836,-4.988107 8.714168,-5.009052 h 0.132033 c 5.935837,0.08325 10.721488,5.585547 10.89271,12.522629 0.0053,0.192024 0.08504,0.377366 0.231057,0.500905 0.415451,0.355852 0.594148,0.823597 0.594148,1.435928 0,0.622563 -0.201983,1.329946 -0.56114,2.070408 0.761797,-1.126911 1.221304,-2.21966 1.221304,-3.139005 0,-0.612331 -0.211705,-1.080077 -0.627156,-1.435928 -0.146014,-0.12354 -0.225709,-0.308882 -0.231057,-0.500906 C 61.649822,33.54188 56.864171,28.039584 50.928334,27.956332 Z m -10.595636,5.543351 c -1.260956,1.974808 -2.073784,4.333254 -2.310575,6.912491 0.166633,-0.207704 0.365118,-0.430822 0.594148,-0.601086 0.145594,-2.310933 0.734444,-4.443259 1.716427,-6.311405 z m -1.023255,7.480184 c -0.332892,0.274139 -0.524655,0.607679 -0.594148,1.035204 0.07618,-0.05991 0.140687,-0.112499 0.231058,-0.166969 0.192461,-0.11683 0.320793,-0.342096 0.330082,-0.567692 0.0044,-0.101512 0.02667,-0.199686 0.03301,-0.300543 z m -1.782443,0.333936 c -0.529347,0.572169 -0.825206,1.294201 -0.825206,2.170589 0,1.588573 0.888299,3.466415 2.442608,5.209414 1.07381,2.985119 2.738452,5.611134 4.720174,7.44679 -0.108998,0.446556 -0.238403,0.867003 -0.429106,1.26896 0.512124,-0.693596 0.8793,-1.477326 1.089271,-2.337558 -1.981723,-1.835656 -3.646364,-4.461671 -4.720175,-7.44679 -1.554308,-1.742999 -2.442607,-3.62084 -2.442607,-5.209413 0,-0.398028 0.05509,-0.765873 0.165041,-1.101992 z m 25.218274,4.942265 c -0.136328,0.20514 -0.273853,0.396916 -0.429107,0.601086 -0.0356,0.111884 -0.06171,0.222863 -0.09902,0.333937 0.199447,-0.310038 0.373752,-0.627184 0.528132,-0.935023 z m -1.716427,0.300543 c -0.143802,0.217004 -0.292827,0.416303 -0.462115,0.63448 -0.04915,0.06311 -0.07386,0.157213 -0.09903,0.233755 -0.38601,1.237954 -0.866824,2.41069 -1.452361,3.506336 0.817941,-1.316804 1.505401,-2.802988 2.013501,-4.374571 z m -0.957238,5.17602 c -0.894069,1.420995 -1.907567,2.658936 -3.036756,3.63991 0.03064,0.124457 0.062,0.246328 0.09903,0.367331 1.104108,-1.112221 2.102287,-2.480683 2.937731,-4.007241 z m -4.423101,3.573123 c -0.135733,0.12138 -0.290606,0.254545 -0.429107,0.367331 -0.191129,0.155768 -0.276196,0.391426 -0.231057,0.634479 0.368991,1.94845 1.597432,4.614239 5.380339,6.278012 0.447309,0.196052 1.166477,0.342273 2.046509,0.534299 3.287796,0.719758 8.783622,1.947324 10.133521,7.046066 0.07958,0.29945 0.335137,0.500905 0.627156,0.500905 0.05705,0 0.106593,-0.01863 0.165041,-0.03339 0.354392,-0.09669 0.589358,-0.476306 0.495123,-0.834842 -0.01874,-0.07078 -0.04594,-0.130883 -0.06602,-0.200362 -0.278066,-0.01521 -0.517793,-0.213593 -0.594148,-0.500905 C 71.693933,63.998606 66.198107,62.771039 62.910311,62.051281 62.030279,61.859255 61.344119,61.713035 60.89681,61.516982 57.157423,59.87235 55.90109,57.247997 55.516471,55.305758 Z m -11.156776,2.90525 c -0.82726,1.11942 -2.102539,2.208283 -3.993993,3.038825 -0.4274,0.186655 -1.082247,0.334217 -1.914477,0.534299 -2.962827,0.714013 -7.679219,1.874764 -9.638398,5.777106 2.217804,-3.060261 6.33571,-4.063731 9.011242,-4.708509 0.83223,-0.200081 1.487077,-0.347643 1.914477,-0.534299 2.494062,-1.095148 3.86067,-2.630041 4.621149,-4.107422 z m -16.735163,8.71575 c -0.57528,0.825988 -1.025659,1.759486 -1.320329,2.871856 -0.09421,0.358537 0.107657,0.738158 0.462115,0.834842 0.355723,0.08996 0.732302,-0.110322 0.825205,-0.467511 0.05789,-0.218502 0.12563,-0.429437 0.19805,-0.63448 -0.120938,0.04225 -0.262702,0.06713 -0.396099,0.03339 -0.354458,-0.09668 -0.556323,-0.476305 -0.462115,-0.834842 0.175732,-0.663383 0.410442,-1.24525 0.693173,-1.803258 z"
                 style="color:#4d4d4d;fill:#fbfbfb;fill-opacity:0.83388702;stroke:none;stroke-width:2.35397053"
                 id="path4" />
            </g>
            <path
               id="path5008"
               d="m 27.401572,70.342655 c 0.355723,0.09159 0.719417,-0.120313 0.812321,-0.483963 1.367159,-5.253856 6.923372,-6.615512 10.244373,-7.430317 0.83223,-0.2037 1.489259,-0.365021 1.916659,-0.555053 3.782908,-1.691129 5.016002,-4.411707 5.384994,-6.396769 0.04505,-0.239247 -0.03848,-0.485329 -0.21901,-0.64665 -1.96976,-1.751286 -3.631583,-4.380263 -4.680175,-7.404341 -0.02924,-0.08615 -0.07563,-0.165422 -0.136713,-0.233779 -1.387067,-1.553052 -2.183472,-3.194968 -2.183472,-4.503305 0,-0.764223 0.280068,-1.276893 0.91056,-1.66379 0.192462,-0.118942 0.313245,-0.328109 0.322534,-0.557785 0.293348,-6.964128 5.108918,-12.446294 11.015549,-12.481838 0.0063,0 0.135394,0.0095 0.142021,0.0095 5.935842,0.08476 10.720883,5.6845 10.892105,12.747061 0.0052,0.195497 0.09028,0.378693 0.236261,0.504467 0.41545,0.362288 0.609246,0.821642 0.609246,1.445049 0,1.095068 -0.566771,2.441683 -1.594122,3.789668 -0.04917,0.06425 -0.08629,0.138079 -0.111477,0.216006 -1.061857,3.467025 -2.967911,6.528015 -5.22704,8.400974 -0.191123,0.158586 -0.281389,0.412872 -0.236251,0.660322 0.368992,1.983694 1.602081,4.702904 5.384988,6.396771 0.447315,0.199598 1.141502,0.355451 2.021526,0.550951 3.287801,0.732778 8.789592,1.961822 10.139485,7.15279 0.07958,0.304868 0.34777,0.505835 0.63978,0.505835 0.05704,0 0.114109,-0.0082 0.172553,-0.02325 0.354396,-0.09844 0.564119,-0.473026 0.469879,-0.838046 -1.559616,-5.997571 -7.792774,-7.387938 -11.140308,-8.134387 -0.776485,-0.173624 -1.446797,-0.322639 -1.773302,-0.470288 -2.468852,-1.104639 -3.989978,-2.787567 -4.527548,-5.010508 2.292304,-2.027446 4.21031,-5.155424 5.306684,-8.663464 1.164066,-1.558522 1.803846,-3.163524 1.803846,-4.534749 0,-0.914605 -0.286705,-1.677461 -0.854808,-2.273526 C 62.826804,32.754985 57.518799,26.721869 50.931234,26.624803 l -0.197767,-0.0025 c -6.468092,0.03554 -11.798668,5.910088 -12.264568,13.438838 -0.830898,0.628875 -1.253003,1.510669 -1.253003,2.630344 0,1.617307 0.887991,3.551789 2.442299,5.326315 1.07381,3.039115 2.738284,5.709107 4.720005,7.577966 -0.534915,2.231146 -2.057378,3.919543 -4.531524,5.025546 -0.319883,0.143547 -0.957005,0.300766 -1.695,0.481227 -3.372756,0.825742 -9.648386,2.363757 -11.219956,8.403708 -0.09421,0.365023 0.115421,0.738249 0.469879,0.836681 z"
               inkscape:connector-curvature="0"
               style="fill:#fefefe;fill-opacity:0.89701017" />
          </g>
        </g>
        <path
           style="color:#000000;font-style:normal;font-variant:normal;font-weight:normal;font-stretch:normal;font-size:medium;line-height:normal;font-family:Sans;-inkscape-font-specification:Sans;text-indent:0;text-align:start;text-decoration:none;text-decoration-line:none;letter-spacing:normal;word-spacing:normal;text-transform:none;writing-mode:lr-tb;direction:ltr;baseline-shift:baseline;text-anchor:start;display:inline;overflow:visible;visibility:visible;fill:#000000;fill-opacity:0.87148593;stroke:none;stroke-width:2.3755002;marker:none;enable-background:accumulate"
           d="m -24.6875,-37.8125 c -3.196096,0 -5.8125,2.600343 -5.8125,5.78125 v 70.9375 c 0,3.180909 2.616404,5.78125 5.8125,5.78125 h 78.75 c 3.196096,0 5.8125,-2.600341 5.8125,-5.78125 v -70.9375 c 0,-3.180907 -2.616404,-5.78125 -5.8125,-5.78125 z m 0,2.375 h 78.75 c 1.936246,0 3.4375,1.515549 3.4375,3.40625 v 70.9375 c 0,1.890705 -1.501254,3.40625 -3.4375,3.40625 h -78.75 c -1.936246,0 -3.4375,-1.515545 -3.4375,-3.40625 v -70.9375 c 0,-1.890701 1.501254,-3.40625 3.4375,-3.40625 z"
           id="path4989"
           inkscape:connector-curvature="0" />
        <path
           id="path4118"
           transform="matrix(1.0255003,0,0,1.0239543,-34.763123,-42.655251)"
           d="m 1.5,81.84375 v 6 C 1.5,91.523892 4.4761068,94.5 8.15625,94.5 h 79.6875 C 91.523893,94.5 94.5,91.523892 94.5,87.84375 v -6 C 94.5,85.523892 91.523893,88.5 87.84375,88.5 H 8.15625 C 4.4761068,88.5 1.5,85.523892 1.5,81.84375 Z"
           style="display:inline;opacity:0.65;fill:url(#linearGradient4129);fill-opacity:1;fill-rule:nonzero;stroke:none"
           inkscape:connector-curvature="0" />
        <rect
           ry="4.3518057"
           rx="0"
           y="39.517078"
           x="-29.251059"
           height="4.3518057"
           width="86.398407"
           id="rect4131"
           style="opacity:0.55;fill:url(#radialGradient4139);fill-opacity:1;stroke:none" />
        <rect
           transform="rotate(90)"
           style="opacity:0.55;fill:url(#radialGradient4143);fill-opacity:1;stroke:none"
           id="rect4141"
           width="78.588493"
           height="4.3583765"
           x="-37.79147"
           y="-58.172848"
           rx="0"
           ry="4.3583765" />
      </g>
      <g
         transform="matrix(0.9061837,0,0,0.92379606,-27.685003,-5.6506661)"
         id="g4324"
         style="opacity:0.7">
        <rect
           clip-path="url(#clipPath4156-4)"
           ry="3.9569881"
           rx="3.9569874"
           y="-30"
           x="2"
           height="92"
           width="92"
           id="rect4146"
           style="opacity:0.7;fill:url(#linearGradient4767);fill-opacity:1;stroke:none"
           transform="translate(-1.499875,-1.4)" />
        <path
           inkscape:connector-curvature="0"
           id="rect4190"
           d="m 4.468875,-31.4 c -2.192171,0 -3.96400836,1.776584 -3.96875,3.96875 l -0.163,75.3585 c 2.1045603,2.715549 1.8313808,2.596758 5.3354114,2.88575 1.9841699,-16.007558 40.1394806,-78.99425 85.1400886,-78.99425 0.536758,0 1.059349,0.02139 1.59375,0.03125 -0.333067,-1.850574 -1.925648,-3.25 -3.875,-3.25 z"
           style="opacity:0.3;fill:#ffffff;fill-opacity:1;stroke:none"
           sodipodi:nodetypes="ssccscss" />
      </g>
    </g>
  </g>
</svg>
