<?xml version="1.0" encoding="UTF-8" standalone="no"?>
<!-- Created with Inkscape (http://www.inkscape.org/) -->

<svg
   xmlns:dc="http://purl.org/dc/elements/1.1/"
   xmlns:cc="http://creativecommons.org/ns#"
   xmlns:rdf="http://www.w3.org/1999/02/22-rdf-syntax-ns#"
   xmlns:svg="http://www.w3.org/2000/svg"
   xmlns="http://www.w3.org/2000/svg"
   xmlns:xlink="http://www.w3.org/1999/xlink"
   xmlns:sodipodi="http://sodipodi.sourceforge.net/DTD/sodipodi-0.dtd"
   xmlns:inkscape="http://www.inkscape.org/namespaces/inkscape"
   width="96"
   height="96"
   viewBox="0 0 96.000001 96.000004"
   version="1.1"
   id="svg1072"
   inkscape:version="0.92.1 r15371"
   sodipodi:docname="view-sort-descending.svg">
  <defs
     id="defs1066">
    <linearGradient
       y2="47.000011"
       x2="90"
       y1="47.000011"
       x1="6"
       gradientTransform="matrix(1.1071428,0,0,1.1071426,-4.9939026,-3.620687)"
       gradientUnits="userSpaceOnUse"
       id="linearGradient4071"
       xlink:href="#linearGradient6139-0"
       inkscape:collect="always" />
    <linearGradient
       id="linearGradient6139-0">
      <stop
         style="stop-color:#adb9c1;stop-opacity:1;"
         offset="0"
         id="stop6141-2" />
      <stop
         id="stop6151-0"
         offset="0.25"
         style="stop-color:#ffffff;stop-opacity:1;" />
      <stop
         id="stop6147-1"
         offset="0.5"
         style="stop-color:#90a2aa;stop-opacity:1;" />
      <stop
         style="stop-color:#f9fafb;stop-opacity:1;"
         offset="0.75"
         id="stop6149-4" />
      <stop
         style="stop-color:#adb9c1;stop-opacity:1;"
         offset="1"
         id="stop6143-4" />
    </linearGradient>
    <linearGradient
       gradientUnits="userSpaceOnUse"
       y2="88.171875"
       x2="94.5"
       y1="88.171875"
       x1="1.5"
       id="linearGradient4129"
       xlink:href="#linearGradient3832-0-6-1-1"
       inkscape:collect="always"
       gradientTransform="translate(0.1489535,0.415026)" />
    <linearGradient
       id="linearGradient3832-0-6-1-1">
      <stop
         id="stop3834-6-3-7-1"
         offset="0"
         style="stop-color:#000000;stop-opacity:1;" />
      <stop
         style="stop-color:#000000;stop-opacity:0.58823532;"
         offset="0.1"
         id="stop3872-2-4" />
      <stop
         id="stop3844-6-2-7-6"
         offset="0.89999998"
         style="stop-color:#000000;stop-opacity:0.58823532;" />
      <stop
         id="stop3836-5-0-2-9"
         offset="1"
         style="stop-color:#000000;stop-opacity:1;" />
    </linearGradient>
    <radialGradient
       r="43.199203"
       fy="44.892841"
       fx="13.948145"
       cy="44.892841"
       cx="13.948145"
       gradientTransform="matrix(0.97513378,0,0,0.04919072,34.047649,80.581722)"
       gradientUnits="userSpaceOnUse"
       id="radialGradient7462"
       xlink:href="#linearGradient3737"
       inkscape:collect="always" />
    <linearGradient
       id="linearGradient3737">
      <stop
         id="stop3739"
         style="stop-color:#ffffff;stop-opacity:1"
         offset="0" />
      <stop
         id="stop3741"
         style="stop-color:#ffffff;stop-opacity:0"
         offset="1" />
    </linearGradient>
    <radialGradient
       r="43.199203"
       fy="44.892841"
       fx="13.948145"
       cy="44.892841"
       cx="13.948145"
       gradientTransform="matrix(0.88832663,0,0,0.04919072,31.959518,-90.31726)"
       gradientUnits="userSpaceOnUse"
       id="radialGradient7464"
       xlink:href="#linearGradient3737"
       inkscape:collect="always" />
    <linearGradient
       y2="14.514202"
       x2="50.527882"
       y1="-28.64156"
       x1="2.7713892"
       gradientUnits="userSpaceOnUse"
       id="linearGradient4767"
       xlink:href="#linearGradient3737"
       inkscape:collect="always" />
    <clipPath
       clipPathUnits="userSpaceOnUse"
       id="clipPath4156-4-1">
      <path
         style="opacity:0.6;fill:#ffffff;fill-opacity:1;stroke:none"
         d="m 27.046336,-55.695463 -14.21366,13.321486 h 0.06127 l 15.653407,21.770763 10.231384,-10.546177 C 38.561832,-32.30156 27.468089,-54.819245 27.046336,-55.695463 Z M 9.6468554,-39.382809 -5.2407289,-25.32124 15.987863,-7.8059573 26.372412,-18.382966 Z m 31.4906096,12.951445 -9.741259,9.713584 8.944804,12.4580526 7.780753,-7.5550056 z m -49.8397109,4.378822 -13.7541661,12.9822847 26.2830181,13.84571 0.06127,-0.0617 -0.122531,-0.0617 L 13.598503,-5.4007374 -8.7022409,-22.052595 Z m 38.0154159,7.400825 -9.802525,9.7752596 11.579232,9.5594001 7.62759,-7.40083 -8.669108,-11.0087257 z m 20.187073,5.6739697 -7.382526,7.2158 6.187844,8.54179 5.820249,-6.13651996 z m -32.195166,6.32154 -9.5574606,9.49772 13.6622686,7.1849703 7.933918,-7.6783603 z m 23.311629,2.37443004 -7.10683,6.93826996 8.362778,6.9074403 5.360756,-5.6739699 -0.06127,-0.0925 -0.0919,0.12335 -6.463539,-8.20258036 z m -8.730374,8.54178036 -7.505057,7.3391599 10.353916,5.45811 c 1.397496,-1.32103 5.67514,-6.12292 5.850882,-6.32154 z"
         id="path4158-0-8"
         inkscape:connector-curvature="0" />
    </clipPath>
    <linearGradient
       x1="13.262311"
       y1="6.7861471"
       x2="-0.53049242"
       y2="6.7861471"
       id="linearGradient3960"
       xlink:href="#linearGradient3832-0-6-1-1"
       gradientUnits="userSpaceOnUse"
       gradientTransform="matrix(0,-3.770082,2.9471803,0,22.666667,72)" />
    <linearGradient
       id="linearGradient3637">
      <stop
         id="stop3639"
         style="stop-color:#f0f0f0;stop-opacity:1"
         offset="0" />
      <stop
         id="stop3641"
         style="stop-color:#aaaaaa;stop-opacity:1"
         offset="1" />
    </linearGradient>
  </defs>
  <sodipodi:namedview
     id="base"
     pagecolor="#ffffff"
     bordercolor="#666666"
     borderopacity="1.0"
     inkscape:pageopacity="0.0"
     inkscape:pageshadow="2"
     inkscape:zoom="2.5117023"
     inkscape:cx="67.980523"
     inkscape:cy="48"
     inkscape:document-units="px"
     inkscape:current-layer="layer6"
     showgrid="false"
     inkscape:showpageshadow="false"
     units="px"
     inkscape:lockguides="true"
     inkscape:window-width="1280"
     inkscape:window-height="972"
     inkscape:window-x="0"
     inkscape:window-y="26"
     inkscape:window-maximized="1">
    <sodipodi:guide
       position="0,0"
       orientation="0,96"
       id="guide1621"
       inkscape:locked="true" />
    <sodipodi:guide
       position="96.000002,0"
       orientation="-96,0"
       id="guide1623"
       inkscape:locked="true" />
    <sodipodi:guide
       position="96.000002,96.000002"
       orientation="0,-96"
       id="guide1625"
       inkscape:locked="true" />
    <sodipodi:guide
       position="0,96.000002"
       orientation="96,0"
       id="guide1627"
       inkscape:locked="true" />
  </sodipodi:namedview>
  <metadata
     id="metadata1069">
    <rdf:RDF>
      <cc:Work
         rdf:about="">
        <dc:format>image/svg+xml</dc:format>
        <dc:type
           rdf:resource="http://purl.org/dc/dcmitype/StillImage" />
        <dc:title></dc:title>
        <dc:date>2017</dc:date>
        <dc:creator>
          <cc:Agent>
            <dc:title>Cristian Pozzessere &quot;ilnanny&quot;</dc:title>
          </cc:Agent>
        </dc:creator>
        <dc:subject>
          <rdf:Bag>
            <rdf:li>Global language</rdf:li>
          </rdf:Bag>
        </dc:subject>
        <dc:description>Playing with Inkscape on Gnu/Linux O. S.</dc:description>
        <dc:contributor>
          <cc:Agent>
            <dc:title>In the night, alone like a dog.</dc:title>
          </cc:Agent>
        </dc:contributor>
        <cc:license
           rdf:resource="http://creativecommons.org/licenses/by-sa/4.0/" />
      </cc:Work>
      <cc:License
         rdf:about="http://creativecommons.org/licenses/by-sa/4.0/">
        <cc:permits
           rdf:resource="http://creativecommons.org/ns#Reproduction" />
        <cc:permits
           rdf:resource="http://creativecommons.org/ns#Distribution" />
        <cc:requires
           rdf:resource="http://creativecommons.org/ns#Notice" />
        <cc:requires
           rdf:resource="http://creativecommons.org/ns#Attribution" />
        <cc:permits
           rdf:resource="http://creativecommons.org/ns#DerivativeWorks" />
        <cc:requires
           rdf:resource="http://creativecommons.org/ns#ShareAlike" />
      </cc:License>
    </rdf:RDF>
  </metadata>
  <g
     inkscape:label="Livello 1"
     inkscape:groupmode="layer"
     id="layer1"
     transform="translate(0,-1026.5197)">
    <g
       transform="translate(-0.14895645,1026.1047)"
       style="display:inline"
       id="g2574">
      <path
         inkscape:connector-curvature="0"
         id="path3288"
         d="M 89.29181,0.415026 H 7.0060911 c -3.798848,0 -6.8571352,3.058285 -6.8571352,6.8571399 V 89.557884 c 0,3.798857 3.0582872,6.857142 6.8571352,6.857142 H 89.29181 c 3.798857,0 6.857147,-3.058285 6.857147,-6.857142 V 7.2721659 c 0,-3.7988549 -3.05829,-6.8571399 -6.857147,-6.8571399 z"
         style="display:inline;opacity:0.15;fill:#000000;fill-opacity:1;fill-rule:nonzero;stroke:none" />
      <path
         style="display:inline;opacity:0.15;fill:#000000;fill-opacity:1;fill-rule:nonzero;stroke:none"
         d="M 88.648954,1.165026 H 7.6489471 c -3.739492,0 -6.749993,3.010499 -6.749993,6.7499969 V 88.915026 c 0,3.739501 3.010501,6.75 6.749993,6.75 H 88.648954 c 3.739503,0 6.750003,-3.010499 6.750003,-6.75 V 7.9150229 c 0,-3.7394979 -3.0105,-6.7499969 -6.750003,-6.7499969 z"
         id="path4085"
         inkscape:connector-curvature="0" />
      <path
         inkscape:connector-curvature="0"
         id="rect4251-1"
         d="M 88.006093,1.915026 H 8.2918111 c -3.680143,0 -6.6428566,2.962713 -6.6428566,6.6428549 V 88.272171 c 0,3.680142 2.9627136,6.642856 6.6428566,6.642856 H 88.006093 c 3.680143,0 6.642854,-2.962714 6.642854,-6.642856 V 8.5578809 c 0,-3.6801419 -2.962711,-6.6428549 -6.642854,-6.6428549 z"
         style="display:inline;fill:url(#linearGradient4071);fill-opacity:1;fill-rule:nonzero;stroke:none" />
      <path
         sodipodi:nodetypes="sscccsccscccsss"
         inkscape:connector-curvature="0"
         id="path3400-6"
         d="m 11.390247,6.8021682 c -2.8564964,0 -5.1241284,2.2883782 -5.1241284,5.1710028 v 21.42734 7.239403 39.913674 c 1.0972399,1.684484 2.9688485,2.811732 5.1241284,2.811732 h 4.099303 65.588849 4.099302 c 2.155281,0 4.026889,-1.127248 5.124129,-2.811732 V 40.639914 33.400511 11.973171 c 0,-2.8826246 -2.267632,-5.1710028 -5.124129,-5.1710028 z"
         style="display:inline;opacity:0.77864583;fill:#f5f3f3;fill-opacity:1;fill-rule:nonzero;stroke:none;stroke-width:1.02950251" />
      <g
         transform="matrix(1.1490209,0,0,1.1490209,-7.5543506,-9.907426)"
         id="layer6"
         style="display:inline">
        <path
           d="M 31,20.96875 C 26.591498,20.815983 22.944576,25.488375 24.185209,29.727615 24.905049,32.710832 27.77713,34.97771 30.84375,35 26.504988,34.9498 22.959984,39.546316 24.185209,43.727615 24.905049,46.710832 27.77713,48.97771 30.84375,49 26.504988,48.9498 22.959984,53.546316 24.185209,57.727615 24.905049,60.710832 27.77713,62.97771 30.84375,63 c -4.349642,-0.05079 -7.895607,4.566741 -6.652999,8.753768 0.956286,4.294076 6.357879,6.670931 10.156178,4.426765 3.901706,-1.944466 4.935096,-7.688231 1.898234,-10.836553 C 35.34025,63.804988 31.927,62.956157 31.510015,62.982898 35.841196,62.815431 39.149728,58.056419 37.722142,53.944177 36.885449,51.115689 34.104813,49.025596 31.15625,49 35.495012,49.0502 39.040016,44.453684 37.814791,40.272385 37.094951,37.289168 34.22287,35.02229 31.15625,35 35.505892,35.05079 39.051857,30.433259 37.809249,26.246232 37.064503,23.208473 34.133254,20.921555 31,20.96875 Z M 57.625,38.9375 c -1.717709,0.158067 -2.299751,2.089136 -3.354407,3.193527 -4.009754,5.35659 -8.078999,10.678188 -12.051843,16.056473 -0.898715,1.453927 0.587607,3.397205 2.228245,3.03125 1.809335,0 3.61867,0 5.428005,0 0.02085,4.728303 -0.04169,9.463508 0.03125,14.1875 0.286249,1.49529 1.918548,1.784941 3.191988,1.625 3.435139,-0.02086 6.877184,0.04171 10.308012,-0.03125 1.49529,-0.286249 1.784941,-1.918548 1.625,-3.191988 0,-4.196421 0,-8.392841 0,-12.589262 2.174569,-0.04339 4.368339,0.08583 6.53125,-0.0625 1.596556,-0.424287 1.934847,-2.610676 0.741731,-3.668428 C 67.898958,51.523169 63.590387,45.475628 59.125,39.5625 c -0.372391,-0.41546 -0.955487,-0.624489 -1.5,-0.625 z"
           inkscape:connector-curvature="0"
           id="path3991"
           style="display:inline;opacity:0.1;fill:#000000;fill-opacity:1;stroke:none" />
        <path
           inkscape:connector-curvature="0"
           d="m 31,22.03125 c -3.292356,0 -5.96875,2.676394 -5.96875,5.96875 0,3.292356 2.676394,5.96875 5.96875,5.96875 3.292356,0 5.96875,-2.676394 5.96875,-5.96875 0,-3.292356 -2.676394,-5.96875 -5.96875,-5.96875 z m 0,14 c -3.292356,0 -5.96875,2.676394 -5.96875,5.96875 0,3.292356 2.676394,5.96875 5.96875,5.96875 3.292356,0 5.96875,-2.676394 5.96875,-5.96875 0,-3.292356 -2.676394,-5.96875 -5.96875,-5.96875 z m 26.53125,4 a 0.98250569,0.98250569 0 0 0 -0.625,0.375 l -13.6875,18.1875 A 0.98250569,0.98250569 0 0 0 44,60.15625 h 6.9375 V 75 a 0.98250569,0.98250569 0 0 0 0.96875,0.96875 H 63 A 0.98250569,0.98250569 0 0 0 63.96875,75 V 60.15625 H 71 a 0.98250569,0.98250569 0 0 0 0.78125,-1.5625 l -13.3125,-18.1875 a 0.98250569,0.98250569 0 0 0 -0.9375,-0.375 z M 31,50.03125 c -3.292356,0 -5.96875,2.676394 -5.96875,5.96875 0,3.292356 2.676394,5.96875 5.96875,5.96875 3.292356,0 5.96875,-2.676394 5.96875,-5.96875 0,-3.292356 -2.676394,-5.96875 -5.96875,-5.96875 z m 0,14 c -3.292356,0 -5.96875,2.676394 -5.96875,5.96875 0,3.292356 2.676394,5.96875 5.96875,5.96875 3.292356,0 5.96875,-2.676394 5.96875,-5.96875 0,-3.292356 -2.676394,-5.96875 -5.96875,-5.96875 z"
           id="path3987"
           style="display:inline;opacity:0.15;fill:#000000;fill-opacity:1;stroke:none" />
        <path
           d="m 31,23 c -2.761423,0 -5,2.238577 -5,5 0,2.761423 2.238577,5 5,5 2.761423,0 5,-2.238577 5,-5 0,-2.761423 -2.238577,-5 -5,-5 z m 0,14 c -2.761423,0 -5,2.238577 -5,5 0,2.761423 2.238577,5 5,5 2.761423,0 5,-2.238577 5,-5 0,-2.761423 -2.238577,-5 -5,-5 z M 57.6875,41 44,59.1875 h 7.90625 V 75 H 63 V 59.1875 h 8 z M 31,51 c -2.761423,0 -5,2.238577 -5,5 0,2.761423 2.238577,5 5,5 2.761423,0 5,-2.238577 5,-5 0,-2.761423 -2.238577,-5 -5,-5 z m 0,14 c -2.761423,0 -5,2.238577 -5,5 0,2.761423 2.238577,5 5,5 2.761423,0 5,-2.238577 5,-5 0,-2.761423 -2.238577,-5 -5,-5 z"
           inkscape:connector-curvature="0"
           id="path3981"
           style="display:inline;opacity:0.3;fill:#000000;fill-opacity:1;stroke:none" />
        <path
           d="m 31,22 c -2.761423,0 -5,2.238577 -5,5 0,2.761423 2.238577,5 5,5 2.761423,0 5,-2.238577 5,-5 0,-2.761423 -2.238577,-5 -5,-5 z m 0,14 c -2.761423,0 -5,2.238577 -5,5 0,2.761423 2.238577,5 5,5 2.761423,0 5,-2.238577 5,-5 0,-2.761423 -2.238577,-5 -5,-5 z M 57.6875,40 44,58.1875 h 7.90625 V 74 H 63 V 58.1875 h 8 z M 31,50 c -2.761423,0 -5,2.238577 -5,5 0,2.761423 2.238577,5 5,5 2.761423,0 5,-2.238577 5,-5 0,-2.761423 -2.238577,-5 -5,-5 z m 0,14 c -2.761423,0 -5,2.238577 -5,5 0,2.761423 2.238577,5 5,5 2.761423,0 5,-2.238577 5,-5 0,-2.761423 -2.238577,-5 -5,-5 z"
           inkscape:connector-curvature="0"
           id="path3956"
           style="display:inline;fill:url(#linearGradient3960);fill-opacity:1.0;stroke:none" />
        <path
           d="m 31,22 c -2.761423,0 -5,2.238577 -5,5 0,0.172589 0.01418,0.331915 0.03125,0.5 C 26.2873,24.97872 28.411166,23 31,23 c 2.588834,0 4.7127,1.97872 4.96875,4.5 C 35.98582,27.331915 36,27.172589 36,27 36,24.238577 33.761423,22 31,22 Z m 0,14 c -2.761423,0 -5,2.238577 -5,5 0,0.172589 0.01418,0.331915 0.03125,0.5 C 26.2873,38.97872 28.411166,37 31,37 c 2.588834,0 4.7127,1.97872 4.96875,4.5 C 35.98582,41.331915 36,41.172589 36,41 36,38.238577 33.761423,36 31,36 Z M 57.6875,40 44,58.1875 h 0.75 L 57.6875,41 70.28125,58.1875 H 71 Z M 31,50 c -2.761423,0 -5,2.238577 -5,5 0,0.172589 0.01418,0.331915 0.03125,0.5 C 26.2873,52.97872 28.411166,51 31,51 c 2.588834,0 4.7127,1.97872 4.96875,4.5 C 35.98582,55.331915 36,55.172589 36,55 36,52.238577 33.761423,50 31,50 Z m 0,14 c -2.761423,0 -5,2.238577 -5,5 0,0.172589 0.01418,0.331915 0.03125,0.5 C 26.2873,66.97872 28.411166,65 31,65 c 2.588834,0 4.7127,1.97872 4.96875,4.5 C 35.98582,69.331915 36,69.172589 36,69 36,66.238577 33.761423,64 31,64 Z"
           inkscape:connector-curvature="0"
           id="path3963"
           style="display:inline;opacity:0.75;fill:#ffffff;fill-opacity:1;stroke:none" />
        <path
           d="M 26.03125,26.5 C 26.01418,26.668085 26,26.827411 26,27 c 0,2.761423 2.238577,5 5,5 2.761423,0 5,-2.238577 5,-5 0,-0.172589 -0.01418,-0.331915 -0.03125,-0.5 C 35.7127,29.02128 33.588834,31 31,31 28.411166,31 26.2873,29.02128 26.03125,26.5 Z m 0,14 C 26.01418,40.668085 26,40.827411 26,41 c 0,2.761423 2.238577,5 5,5 2.761423,0 5,-2.238577 5,-5 0,-0.172589 -0.01418,-0.331915 -0.03125,-0.5 C 35.7127,43.02128 33.588834,45 31,45 28.411166,45 26.2873,43.02128 26.03125,40.5 Z m 0,14 C 26.01418,54.668085 26,54.827411 26,55 c 0,2.761423 2.238577,5 5,5 2.761423,0 5,-2.238577 5,-5 0,-0.172589 -0.01418,-0.331915 -0.03125,-0.5 C 35.7127,57.02128 33.588834,59 31,59 28.411166,59 26.2873,57.02128 26.03125,54.5 Z m 18.71875,2.6875 -0.75,1 h 7.90625 v -1 z m 18.25,0 v 1 h 8 l -0.71875,-1 z M 26.03125,68.5 C 26.01418,68.668085 26,68.827411 26,69 c 0,2.761423 2.238577,5 5,5 2.761423,0 5,-2.238577 5,-5 0,-0.172589 -0.01418,-0.331915 -0.03125,-0.5 C 35.7127,71.02128 33.588834,73 31,73 28.411166,73 26.2873,71.02128 26.03125,68.5 Z m 25.875,4.5 v 1 H 63 v -1 z"
           inkscape:connector-curvature="0"
           id="path3972"
           style="display:inline;opacity:0.284;fill:#fefefe;fill-opacity:1;stroke:none" />
      </g>
      <path
         style="color:#000000;font-style:normal;font-variant:normal;font-weight:normal;font-stretch:normal;font-size:medium;line-height:normal;font-family:Sans;-inkscape-font-specification:Sans;text-indent:0;text-align:start;text-decoration:none;text-decoration-line:none;letter-spacing:normal;word-spacing:normal;text-transform:none;writing-mode:lr-tb;direction:ltr;baseline-shift:baseline;text-anchor:start;display:inline;overflow:visible;visibility:visible;fill:#1f2224;fill-opacity:0.63265303;stroke:none;stroke-width:2.3755002;marker:none;enable-background:accumulate"
         d="m 9.9740341,5.1444869 c -3.116621,0 -5.667965,2.53951 -5.667965,5.6460041 v 69.277996 c 0,3.106495 2.551344,5.646004 5.667965,5.646004 H 86.765819 c 3.116621,0 5.667968,-2.539509 5.667968,-5.646004 V 10.790491 c 0,-3.1064931 -2.551347,-5.6460041 -5.667968,-5.6460041 z m 0,2.319439 H 86.765819 c 1.888099,0 3.352022,1.480095 3.352022,3.3265651 v 69.277996 c 0,1.846474 -1.463923,3.326564 -3.352022,3.326564 H 9.9740341 c -1.888099,0 -3.352022,-1.48009 -3.352022,-3.326564 V 10.790491 c 0,-1.8464701 1.463923,-3.3265651 3.352022,-3.3265651 z"
         id="path4989"
         inkscape:connector-curvature="0" />
      <path
         id="path4118"
         d="m 1.6489535,82.258776 v 6 c 0,3.680142 2.9761066,6.65625 6.6562496,6.65625 H 87.992703 c 3.680143,0 6.656254,-2.976108 6.656254,-6.65625 v -6 c 0,3.680142 -2.976111,6.65625 -6.656254,6.65625 H 8.3052031 c -3.680143,0 -6.6562496,-2.976108 -6.6562496,-6.65625 z"
         style="display:inline;opacity:0.65818182;fill:url(#linearGradient4129);fill-opacity:1;fill-rule:nonzero;stroke:none"
         inkscape:connector-curvature="0" />
      <rect
         ry="4.25"
         rx="0"
         y="80.665031"
         x="5.5239539"
         height="4.25"
         width="84.250008"
         id="rect4131"
         style="opacity:0.55;fill:url(#radialGradient7462);fill-opacity:1;stroke:none" />
      <rect
         transform="rotate(90)"
         style="opacity:0.669;fill:url(#radialGradient7464);fill-opacity:1;stroke:none"
         id="rect4141"
         width="76.75"
         height="4.25"
         x="5.9750223"
         y="-90.233963"
         rx="0"
         ry="4.25" />
      <rect
         clip-path="url(#clipPath4156-4-1)"
         ry="3.9569881"
         rx="3.9569874"
         y="-30"
         x="2"
         height="69.024437"
         width="75.965775"
         id="rect4146"
         style="opacity:0.5078125;fill:url(#linearGradient4767);fill-opacity:1;stroke:none"
         transform="matrix(1.0692451,0,0,1.0476829,4.4441802,38.894013)" />
    </g>
  </g>
</svg>
