<?xml version="1.0" encoding="UTF-8" standalone="no"?>
<!-- Created with Inkscape (http://www.inkscape.org/) -->

<svg
   xmlns:dc="http://purl.org/dc/elements/1.1/"
   xmlns:cc="http://creativecommons.org/ns#"
   xmlns:rdf="http://www.w3.org/1999/02/22-rdf-syntax-ns#"
   xmlns:svg="http://www.w3.org/2000/svg"
   xmlns="http://www.w3.org/2000/svg"
   xmlns:xlink="http://www.w3.org/1999/xlink"
   xmlns:sodipodi="http://sodipodi.sourceforge.net/DTD/sodipodi-0.dtd"
   xmlns:inkscape="http://www.inkscape.org/namespaces/inkscape"
   width="22"
   height="22"
   viewBox="0 0 22 22.000001"
   version="1.1"
   id="svg1072"
   inkscape:version="0.92.1 r15371"
   sodipodi:docname="view-list-icons-symbolic.svg">
  <defs
     id="defs1066">
    <linearGradient
       id="linearGradient6139-0">
      <stop
         style="stop-color:#c1adad;stop-opacity:1;"
         offset="0"
         id="stop6141-2" />
      <stop
         id="stop6151-0"
         offset="0.25"
         style="stop-color:#ffffff;stop-opacity:1;" />
      <stop
         id="stop6147-1"
         offset="0.5"
         style="stop-color:#aa9090;stop-opacity:1;" />
      <stop
         style="stop-color:#fbf9f9;stop-opacity:1;"
         offset="0.75"
         id="stop6149-4" />
      <stop
         style="stop-color:#c1adad;stop-opacity:1;"
         offset="1"
         id="stop6143-4" />
    </linearGradient>
    <linearGradient
       id="linearGradient3832-0-6-1-1">
      <stop
         id="stop3834-6-3-7-1"
         offset="0"
         style="stop-color:#000000;stop-opacity:1;" />
      <stop
         style="stop-color:#000000;stop-opacity:0.58823532;"
         offset="0.1"
         id="stop3872-2-4" />
      <stop
         id="stop3844-6-2-7-6"
         offset="0.89999998"
         style="stop-color:#000000;stop-opacity:0.58823532;" />
      <stop
         id="stop3836-5-0-2-9"
         offset="1"
         style="stop-color:#000000;stop-opacity:1;" />
    </linearGradient>
    <linearGradient
       id="linearGradient3737">
      <stop
         id="stop3739"
         style="stop-color:#ffffff;stop-opacity:1"
         offset="0" />
      <stop
         id="stop3741"
         style="stop-color:#ffffff;stop-opacity:0"
         offset="1" />
    </linearGradient>
    <clipPath
       clipPathUnits="userSpaceOnUse"
       id="clipPath4156-4-1">
      <path
         style="opacity:0.6;fill:#ffffff;fill-opacity:1;stroke:none"
         d="m 27.046336,-55.695463 -14.21366,13.321486 h 0.06127 l 15.653407,21.770763 10.231384,-10.546177 C 38.561832,-32.30156 27.468089,-54.819245 27.046336,-55.695463 Z M 9.6468554,-39.382809 -5.2407289,-25.32124 15.987863,-7.8059573 26.372412,-18.382966 Z m 31.4906096,12.951445 -9.741259,9.713584 8.944804,12.4580526 7.780753,-7.5550056 z m -49.8397109,4.378822 -13.7541661,12.9822847 26.2830181,13.84571 0.06127,-0.0617 -0.122531,-0.0617 L 13.598503,-5.4007374 -8.7022409,-22.052595 Z m 38.0154159,7.400825 -9.802525,9.7752596 11.579232,9.5594001 7.62759,-7.40083 -8.669108,-11.0087257 z m 20.187073,5.6739697 -7.382526,7.2158 6.187844,8.54179 5.820249,-6.13651996 z m -32.195166,6.32154 -9.5574606,9.49772 13.6622686,7.1849703 7.933918,-7.6783603 z m 23.311629,2.37443004 -7.10683,6.93826996 8.362778,6.9074403 5.360756,-5.6739699 -0.06127,-0.0925 -0.0919,0.12335 -6.463539,-8.20258036 z m -8.730374,8.54178036 -7.505057,7.3391599 10.353916,5.45811 c 1.397496,-1.32103 5.67514,-6.12292 5.850882,-6.32154 z"
         id="path4158-0-8"
         inkscape:connector-curvature="0" />
    </clipPath>
    <linearGradient
       gradientTransform="matrix(1.7777779,0,0,1.3333334,-7.485797,33.09375)"
       gradientUnits="userSpaceOnUse"
       xlink:href="#ButtonShadow-0"
       id="linearGradient4122"
       y2="26.999998"
       x2="18.374998"
       y1="62.999996"
       x1="18.374998" />
    <linearGradient
       gradientTransform="matrix(1.0058652,0,0,0.994169,100,0)"
       gradientUnits="userSpaceOnUse"
       id="ButtonShadow-0"
       y2="7.0165396"
       x2="45.447727"
       y1="92.539597"
       x1="45.447727">
      <stop
         offset="0"
         style="stop-color:#000000;stop-opacity:1"
         id="stop3750-8" />
      <stop
         offset="1"
         style="stop-color:#000000;stop-opacity:0.58823532"
         id="stop3752-5" />
    </linearGradient>
  </defs>
  <sodipodi:namedview
     id="base"
     pagecolor="#ffffff"
     bordercolor="#666666"
     borderopacity="1.0"
     inkscape:pageopacity="0.0"
     inkscape:pageshadow="2"
     inkscape:zoom="1.7760417"
     inkscape:cx="-67.625649"
     inkscape:cy="43.495601"
     inkscape:document-units="px"
     inkscape:current-layer="g3383"
     showgrid="false"
     inkscape:showpageshadow="false"
     units="px"
     inkscape:lockguides="true"
     inkscape:window-width="1280"
     inkscape:window-height="972"
     inkscape:window-x="0"
     inkscape:window-y="26"
     inkscape:window-maximized="1">
    <sodipodi:guide
       position="0,0"
       orientation="0,96"
       id="guide1621"
       inkscape:locked="true" />
    <sodipodi:guide
       position="96.000002,0"
       orientation="-96,0"
       id="guide1623"
       inkscape:locked="true" />
    <sodipodi:guide
       position="96.000002,96.000002"
       orientation="0,-96"
       id="guide1625"
       inkscape:locked="true" />
    <sodipodi:guide
       position="0,96.000002"
       orientation="96,0"
       id="guide1627"
       inkscape:locked="true" />
  </sodipodi:namedview>
  <metadata
     id="metadata1069">
    <rdf:RDF>
      <cc:Work
         rdf:about="">
        <dc:format>image/svg+xml</dc:format>
        <dc:type
           rdf:resource="http://purl.org/dc/dcmitype/StillImage" />
        <dc:title></dc:title>
        <dc:date>2017</dc:date>
        <dc:creator>
          <cc:Agent>
            <dc:title>Cristian Pozzessere &quot;ilnanny&quot;</dc:title>
          </cc:Agent>
        </dc:creator>
        <dc:subject>
          <rdf:Bag>
            <rdf:li>Global language</rdf:li>
          </rdf:Bag>
        </dc:subject>
        <dc:description>Playing with Inkscape on Gnu/Linux O. S.</dc:description>
        <dc:contributor>
          <cc:Agent>
            <dc:title>In the night, alone like a dog.</dc:title>
          </cc:Agent>
        </dc:contributor>
        <cc:license
           rdf:resource="http://creativecommons.org/licenses/by-sa/4.0/" />
      </cc:Work>
      <cc:License
         rdf:about="http://creativecommons.org/licenses/by-sa/4.0/">
        <cc:permits
           rdf:resource="http://creativecommons.org/ns#Reproduction" />
        <cc:permits
           rdf:resource="http://creativecommons.org/ns#Distribution" />
        <cc:requires
           rdf:resource="http://creativecommons.org/ns#Notice" />
        <cc:requires
           rdf:resource="http://creativecommons.org/ns#Attribution" />
        <cc:permits
           rdf:resource="http://creativecommons.org/ns#DerivativeWorks" />
        <cc:requires
           rdf:resource="http://creativecommons.org/ns#ShareAlike" />
      </cc:License>
    </rdf:RDF>
  </metadata>
  <g
     inkscape:label="Livello 1"
     inkscape:groupmode="layer"
     id="layer1"
     transform="translate(0,-1100.5197)">
    <g
       transform="translate(-0.14895645,1026.1047)"
       style="display:inline"
       id="g2574">
      <g
         transform="matrix(0.91827812,0,0,0.91845253,-19.923836,27.410826)"
         style="display:inline"
         id="g3383">
        <g
           id="g847"
           transform="matrix(0.99090921,0,0,0.99090922,0.30761705,0.57412005)">
          <path
             style="opacity:0.1;fill:#000000;fill-opacity:1;stroke:none;stroke-width:0.45833334"
             id="path4152"
             inkscape:connector-curvature="0"
             d="m 22.754443,51.194607 c -0.719156,0.04453 -0.976048,0.81993 -0.873698,1.433213 0.0096,2.959423 -0.01912,5.921562 0.01432,8.879287 0.113435,0.710839 0.890993,0.844879 1.486545,0.773438 2.93687,-0.0096 5.876458,0.01912 8.811632,-0.01432 0.710839,-0.113435 0.844879,-0.890993 0.773437,-1.486545 -0.0096,-2.93687 0.01912,-5.876459 -0.01432,-8.811632 -0.113435,-0.71084 -0.890994,-0.844879 -1.486545,-0.773438 -2.903791,0 -5.807582,0 -8.711371,0 z m 12.833333,0 c -0.719155,0.04453 -0.976048,0.81993 -0.873698,1.433213 0.0096,2.959423 -0.01912,5.921562 0.01432,8.879287 0.113435,0.710839 0.890993,0.844879 1.486545,0.773438 2.93687,-0.0096 5.876459,0.01912 8.811632,-0.01432 0.71084,-0.113435 0.844879,-0.890993 0.773438,-1.486545 -0.0096,-2.93687 0.01912,-5.876459 -0.01432,-8.811632 -0.113435,-0.71084 -0.890993,-0.844879 -1.486545,-0.773438 -2.90379,0 -5.807581,0 -8.711372,0 z m -9.03776,4.669271 c 0.582465,0 1.164931,0 1.747396,0 0,0.582465 0,1.164931 0,1.747396 -0.582465,0 -1.164931,0 -1.747396,0 0,-0.582465 0,-1.164931 0,-1.747396 z m 12.833333,0 c 0.582465,0 1.164931,0 1.747396,0 0,0.582465 0,1.164931 0,1.747396 -0.582465,0 -1.164931,0 -1.747396,0 0,-0.582465 0,-1.164931 0,-1.747396 z M 22.754443,64.02794 c -0.719156,0.04453 -0.976048,0.819931 -0.873698,1.433214 0.0096,2.959422 -0.01912,5.921562 0.01432,8.879287 0.113435,0.710839 0.890993,0.844878 1.486545,0.773437 2.93687,-0.0096 5.876458,0.01912 8.811632,-0.01432 0.710839,-0.113435 0.844879,-0.890993 0.773437,-1.486544 -0.0096,-2.936871 0.01912,-5.876459 -0.01432,-8.811633 -0.113435,-0.710839 -0.890994,-0.844879 -1.486545,-0.773438 -2.903791,0 -5.807582,0 -8.711371,0 z m 12.833333,0 c -0.719155,0.04453 -0.976048,0.819931 -0.873698,1.433214 0.0096,2.959422 -0.01912,5.921562 0.01432,8.879287 0.113435,0.710839 0.890993,0.844878 1.486545,0.773437 2.93687,-0.0096 5.876459,0.01912 8.811632,-0.01432 0.71084,-0.113435 0.844879,-0.890993 0.773438,-1.486544 -0.0096,-2.936871 0.01912,-5.876459 -0.01432,-8.811633 -0.113435,-0.710839 -0.890993,-0.844879 -1.486545,-0.773438 -2.90379,0 -5.807581,0 -8.711372,0 z m -9.03776,4.669271 c 0.582465,0 1.164931,0 1.747396,0 0,0.582465 0,1.164931 0,1.747396 -0.582465,0 -1.164931,0 -1.747396,0 0,-0.582465 0,-1.164931 0,-1.747396 z m 12.833333,0 c 0.582465,0 1.164931,0 1.747396,0 0,0.582465 0,1.164931 0,1.747396 -0.582465,0 -1.164931,0 -1.747396,0 0,-0.582465 0,-1.164931 0,-1.747396 z" />
          <path
             style="opacity:0.15;fill:#000000;fill-opacity:1;stroke:none;stroke-width:0.45833334"
             id="path4148"
             d="m 22.84038,51.681586 a 0.46754432,0.46754432 0 0 0 -0.472656,0.472656 v 9.166667 a 0.46754432,0.46754432 0 0 0 0.472656,0.472656 h 9.166667 a 0.46754432,0.46754432 0 0 0 0.472656,-0.472656 v -9.166667 a 0.46754432,0.46754432 0 0 0 -0.472656,-0.472656 z m 12.833334,0 a 0.46754432,0.46754432 0 0 0 -0.472657,0.472656 v 9.166667 a 0.46754432,0.46754432 0 0 0 0.472657,0.472656 h 9.166666 a 0.46754432,0.46754432 0 0 0 0.472657,-0.472656 V 52.154242 A 0.46754432,0.46754432 0 0 0 44.84038,51.681586 Z m -9.610677,3.695313 h 2.721354 v 2.721354 h -2.721354 z m 12.833333,0 h 2.721354 v 2.721354 H 38.89637 Z M 22.84038,64.51492 a 0.46754432,0.46754432 0 0 0 -0.472656,0.472656 v 9.166667 a 0.46754432,0.46754432 0 0 0 0.472656,0.472656 h 9.166667 a 0.46754432,0.46754432 0 0 0 0.472656,-0.472656 V 64.987576 A 0.46754432,0.46754432 0 0 0 32.007047,64.51492 Z m 12.833334,0 a 0.46754432,0.46754432 0 0 0 -0.472657,0.472656 v 9.166667 a 0.46754432,0.46754432 0 0 0 0.472657,0.472656 h 9.166666 a 0.46754432,0.46754432 0 0 0 0.472657,-0.472656 V 64.987576 A 0.46754432,0.46754432 0 0 0 44.84038,64.51492 Z m -9.610677,3.695312 h 2.721354 v 2.721354 h -2.721354 z m 12.833333,0 h 2.721354 v 2.721354 H 38.89637 Z"
             inkscape:connector-curvature="0" />
          <path
             style="opacity:0.3;fill:#000000;fill-opacity:1;stroke:none;stroke-width:0.45833334"
             id="path4142"
             inkscape:connector-curvature="0"
             d="m 22.84038,52.154242 v 9.166667 h 9.166667 v -9.166667 z m 12.833334,0 v 9.166667 h 9.166666 v -9.166667 z m -10.083334,2.75 h 3.666667 v 3.666667 H 25.59038 Z m 12.833334,0 h 3.666666 v 3.666667 H 38.423714 Z M 22.84038,64.987576 v 9.166667 h 9.166667 v -9.166667 z m 12.833334,0 v 9.166667 h 9.166666 v -9.166667 z m -10.083334,2.75 h 3.666667 v 3.666667 H 25.59038 Z m 12.833334,0 h 3.666666 v 3.666667 h -3.666666 z" />
        </g>
      </g>
    </g>
  </g>
</svg>
