<?xml version="1.0" encoding="UTF-8" standalone="no"?>
<!-- Created with Inkscape (http://www.inkscape.org/) -->

<svg
   xmlns:dc="http://purl.org/dc/elements/1.1/"
   xmlns:cc="http://creativecommons.org/ns#"
   xmlns:rdf="http://www.w3.org/1999/02/22-rdf-syntax-ns#"
   xmlns:svg="http://www.w3.org/2000/svg"
   xmlns="http://www.w3.org/2000/svg"
   xmlns:xlink="http://www.w3.org/1999/xlink"
   xmlns:sodipodi="http://sodipodi.sourceforge.net/DTD/sodipodi-0.dtd"
   xmlns:inkscape="http://www.inkscape.org/namespaces/inkscape"
   width="96"
   height="96"
   viewBox="0 0 96.000001 96.000004"
   version="1.1"
   id="svg1072"
   inkscape:version="0.92.1 r15371"
   sodipodi:docname="zoom-x.svg">
  <title
     id="title5337">Template-icon-for-Lila-HD-Icon-Theme,</title>
  <defs
     id="defs1066">
    <linearGradient
       id="linearGradient5581">
      <stop
         offset="0"
         style="stop-color:#000000;stop-opacity:1"
         id="stop5569" />
      <stop
         id="stop5571"
         style="stop-color:#b0b0b0;stop-opacity:1"
         offset="0.53699315" />
      <stop
         offset="0.70815152"
         style="stop-color:#646464;stop-opacity:1"
         id="stop5573" />
      <stop
         offset="0.70815152"
         style="stop-color:#777777;stop-opacity:1"
         id="stop5575" />
      <stop
         offset="1"
         style="stop-color:#000000;stop-opacity:1"
         id="stop5579" />
    </linearGradient>
    <linearGradient
       inkscape:collect="always"
       xlink:href="#linearGradient4213-7"
       id="linearGradient4767"
       gradientUnits="userSpaceOnUse"
       x1="2.7713892"
       y1="-28.64156"
       x2="50.527882"
       y2="14.514202" />
    <linearGradient
       inkscape:collect="always"
       id="linearGradient4213-7">
      <stop
         style="stop-color:#ffffff;stop-opacity:1;"
         offset="0"
         id="stop4215-6" />
      <stop
         style="stop-color:#ffffff;stop-opacity:0;"
         offset="1"
         id="stop4217-5" />
    </linearGradient>
    <clipPath
       clipPathUnits="userSpaceOnUse"
       id="clipPath4156-4-6-2-1">
      <path
         style="opacity:0.6;fill:#ffffff;fill-opacity:1;stroke:none"
         d="m 27.046336,-55.695463 -14.21366,13.321486 h 0.06127 l 15.653407,21.770763 10.231384,-10.546177 C 38.561832,-32.30156 27.468089,-54.819245 27.046336,-55.695463 Z M 9.6468554,-39.382809 -5.2407289,-25.32124 15.987863,-7.8059573 26.372412,-18.382966 Z m 31.4906096,12.951445 -9.741259,9.713584 8.944804,12.4580526 7.780753,-7.5550056 z m -49.8397109,4.378822 -13.7541661,12.9822847 26.2830181,13.84571 0.06127,-0.0617 -0.122531,-0.0617 L 13.598503,-5.4007374 -8.7022409,-22.052595 Z m 38.0154159,7.400825 -9.802525,9.7752596 11.579232,9.5594001 7.62759,-7.40083 -8.669108,-11.0087257 z m 20.187073,5.6739697 -7.382526,7.2158 6.187844,8.54179 5.820249,-6.13651996 z m -32.195166,6.32154 -9.5574606,9.49772 13.6622686,7.1849703 7.933918,-7.6783603 z m 23.311629,2.37443004 -7.10683,6.93826996 8.362778,6.9074403 5.360756,-5.6739699 -0.06127,-0.0925 -0.0919,0.12335 -6.463539,-8.20258036 z m -8.730374,8.54178036 -7.505057,7.3391599 10.353916,5.45811 c 1.397496,-1.32103 5.67514,-6.12292 5.850882,-6.32154 z"
         id="path4158-0-2-0-6"
         inkscape:connector-curvature="0" />
    </clipPath>
    <radialGradient
       inkscape:collect="always"
       xlink:href="#linearGradient4213-7"
       id="radialGradient4431"
       gradientUnits="userSpaceOnUse"
       gradientTransform="matrix(0.88832663,0,0,0.04919072,1054.0167,-66.478311)"
       cx="13.948145"
       cy="44.892841"
       fx="13.948145"
       fy="44.892841"
       r="43.199203" />
    <radialGradient
       r="43.199203"
       fy="44.892841"
       fx="13.948145"
       cy="44.892841"
       cx="13.948145"
       gradientTransform="matrix(0.97513378,0,0,0.04919072,10.672886,1102.4447)"
       gradientUnits="userSpaceOnUse"
       id="radialGradient7462"
       xlink:href="#linearGradient4213-7"
       inkscape:collect="always" />
    <linearGradient
       gradientTransform="translate(-23.22581,1023.2822)"
       inkscape:collect="always"
       xlink:href="#linearGradient3832-0-6-1-1-9"
       id="linearGradient4129-8"
       x1="1.5"
       y1="88.171875"
       x2="94.5"
       y2="88.171875"
       gradientUnits="userSpaceOnUse" />
    <linearGradient
       id="linearGradient3832-0-6-1-1-9">
      <stop
         style="stop-color:#000000;stop-opacity:1;"
         offset="0"
         id="stop3834-6-3-7-1-4" />
      <stop
         id="stop3872-2-4-8"
         offset="0.1"
         style="stop-color:#000000;stop-opacity:0.58823532;" />
      <stop
         style="stop-color:#000000;stop-opacity:0.58823532;"
         offset="0.89999998"
         id="stop3844-6-2-7-6-1" />
      <stop
         style="stop-color:#000000;stop-opacity:1;"
         offset="1"
         id="stop3836-5-0-2-9-6" />
    </linearGradient>
    <linearGradient
       x1="27"
       y1="48"
       x2="69"
       y2="48"
       id="linearGradient3702"
       xlink:href="#ButtonShadow-4"
       gradientUnits="userSpaceOnUse"
       gradientTransform="matrix(0.61301107,-0.61301107,0.61301107,0.61301107,-40.955956,1063.1393)" />
    <linearGradient
       x1="45.447727"
       y1="92.539597"
       x2="45.447727"
       y2="7.0165396"
       id="ButtonShadow-4"
       gradientUnits="userSpaceOnUse"
       gradientTransform="scale(1.0058652,0.994169)">
      <stop
         id="stop3750-95"
         style="stop-color:#000000;stop-opacity:1"
         offset="0" />
      <stop
         id="stop3752-93"
         style="stop-color:#000000;stop-opacity:0.58823532"
         offset="1" />
    </linearGradient>
    <radialGradient
       r="7.3570485"
       fy="22.817865"
       fx="31.357048"
       cy="22.817865"
       cx="31.357048"
       gradientTransform="matrix(1.0827029,-0.34654901,0.24979533,0.78042098,-35.796704,1045.0587)"
       gradientUnits="userSpaceOnUse"
       id="radialGradient3419"
       xlink:href="#linearGradient4213-7"
       inkscape:collect="always" />
    <linearGradient
       gradientTransform="matrix(0.7488748,-0.23969814,0.23968543,0.74883511,-23.171459,1042.3609)"
       gradientUnits="userSpaceOnUse"
       xlink:href="#linearGradient4213-7"
       id="linearGradient3223-9-1"
       y2="48.321117"
       x2="24.880978"
       y1="-4.4534035"
       x1="31.622766" />
    <linearGradient
       gradientUnits="userSpaceOnUse"
       xlink:href="#linearGradient4213-7"
       id="linearGradient3225-7-0"
       y2="21.098124"
       x2="10.007462"
       y1="42.893944"
       x1="124.34372"
       gradientTransform="matrix(0.75407536,-0.24136272,0.24134992,0.75403539,-23.68077,1042.0997)" />
    <linearGradient
       id="linearGradient3553-2">
      <stop
         offset="0"
         style="stop-color:#5496b4;stop-opacity:0.19847329"
         id="stop3555-2" />
      <stop
         offset="1"
         style="stop-color:#dfecf2;stop-opacity:0"
         id="stop3557-6" />
    </linearGradient>
    <linearGradient
       id="linearGradient3192-0">
      <stop
         offset="0"
         style="stop-color:#404040;stop-opacity:1"
         id="stop3194-6" />
      <stop
         offset="0.5"
         style="stop-color:#b7b7b7;stop-opacity:1"
         id="stop3200-1" />
      <stop
         offset="1"
         style="stop-color:#404040;stop-opacity:1"
         id="stop3196-5" />
    </linearGradient>
    <linearGradient
       inkscape:collect="always"
       xlink:href="#linearGradient2919"
       id="linearGradient4378"
       gradientUnits="userSpaceOnUse"
       gradientTransform="matrix(0.31788221,0,0,0.31788221,-794.68286,733.90655)"
       x1="74.455246"
       y1="129.1757"
       x2="45.493565"
       y2="128.29572" />
    <linearGradient
       id="linearGradient2919">
      <stop
         id="stop2909"
         style="stop-color:#000000;stop-opacity:1"
         offset="0" />
      <stop
         offset="0.4443627"
         style="stop-color:#b0b0b0;stop-opacity:1"
         id="stop2921" />
      <stop
         id="stop2911"
         style="stop-color:#646464;stop-opacity:1"
         offset="0.70815152" />
      <stop
         id="stop2913"
         style="stop-color:#c8c8c8;stop-opacity:1"
         offset="0.70815152" />
      <stop
         id="stop2915"
         style="stop-color:#646464;stop-opacity:1"
         offset="0.70815152" />
      <stop
         id="stop2917"
         style="stop-color:#000000;stop-opacity:1"
         offset="1" />
    </linearGradient>
    <radialGradient
       r="20.6875"
       fy="95.865532"
       fx="63.937504"
       cy="95.865532"
       cx="63.937504"
       gradientTransform="matrix(0.10811794,-0.11901694,0.69546941,0.63171431,-30.075524,1034.8983)"
       gradientUnits="userSpaceOnUse"
       id="radialGradient3409"
       xlink:href="#linearGradient3405-1"
       inkscape:collect="always" />
    <linearGradient
       id="linearGradient3405-1">
      <stop
         offset="0"
         style="stop-color:#d0d0d0;stop-opacity:1"
         id="stop3407-7" />
      <stop
         offset="1"
         style="stop-color:#a1a1a1;stop-opacity:1"
         id="stop3409-2" />
    </linearGradient>
    <radialGradient
       r="42"
       fy="-27"
       fx="48"
       cy="-27"
       cx="48"
       gradientTransform="matrix(-1.1870482,0,0,-0.96877218,81.752522,998.62536)"
       gradientUnits="userSpaceOnUse"
       id="radialGradient7430"
       xlink:href="#linearGradient4091-0-3-0-7-9"
       inkscape:collect="always" />
    <linearGradient
       id="linearGradient4091-0-3-0-7-9">
      <stop
         style="stop-color:#ffffff;stop-opacity:1;"
         offset="0"
         id="stop4093-3-6-4-2-7" />
      <stop
         id="stop4099-6-1-8-3-6"
         offset="0.80000001"
         style="stop-color:#ffffff;stop-opacity:1;" />
      <stop
         style="stop-color:#ffffff;stop-opacity:0;"
         offset="1"
         id="stop4095-1-0-7-9-2" />
    </linearGradient>
    <linearGradient
       inkscape:collect="always"
       xlink:href="#linearGradient6139-0-5"
       id="linearGradient4071-6"
       gradientUnits="userSpaceOnUse"
       gradientTransform="matrix(1.1071428,0,0,1.1071426,-28.368666,1019.2465)"
       x1="6"
       y1="47.000011"
       x2="90"
       y2="47.000011" />
    <linearGradient
       id="linearGradient6139-0-5">
      <stop
         id="stop6141-2-87"
         offset="0"
         style="stop-color:#c1adad;stop-opacity:1;" />
      <stop
         style="stop-color:#ffffff;stop-opacity:1;"
         offset="0.25"
         id="stop6151-0-7" />
      <stop
         style="stop-color:#aa9090;stop-opacity:1;"
         offset="0.5"
         id="stop6147-1-0" />
      <stop
         id="stop6149-4-8"
         offset="0.75"
         style="stop-color:#fbf9f9;stop-opacity:1;" />
      <stop
         id="stop6143-4-4"
         offset="1"
         style="stop-color:#c1adad;stop-opacity:1;" />
    </linearGradient>
    <linearGradient
       gradientUnits="userSpaceOnUse"
       xlink:href="#linearGradient4213-7"
       id="linearGradient3225-7-0-6"
       y2="21.098124"
       x2="10.007462"
       y1="42.893944"
       x1="124.34372"
       gradientTransform="matrix(0.75407537,-0.24136274,0.24134992,0.75403542,-23.754726,1042.3074)" />
    <linearGradient
       gradientUnits="userSpaceOnUse"
       xlink:href="#linearGradient4213-7"
       id="linearGradient3225-7-0-6-9"
       y2="21.098124"
       x2="10.007462"
       y1="42.893944"
       x1="124.34372"
       gradientTransform="matrix(-0.74357003,0.27200959,-0.27199514,-0.74353065,56.67367,1080.0016)" />
    <filter
       inkscape:collect="always"
       style="color-interpolation-filters:sRGB"
       id="filter6745"
       x="-0.03600099"
       width="1.072002"
       y="-0.03599901"
       height="1.071998">
      <feGaussianBlur
         inkscape:collect="always"
         stdDeviation="0.78679156"
         id="feGaussianBlur6747" />
    </filter>
  </defs>
  <sodipodi:namedview
     id="base"
     pagecolor="#ffffff"
     bordercolor="#666666"
     borderopacity="1.0"
     inkscape:pageopacity="0.0"
     inkscape:pageshadow="2"
     inkscape:zoom="7.1041667"
     inkscape:cx="14.487888"
     inkscape:cy="47.788856"
     inkscape:document-units="px"
     inkscape:current-layer="g5529"
     showgrid="false"
     inkscape:showpageshadow="false"
     units="px"
     inkscape:lockguides="true"
     inkscape:window-width="1280"
     inkscape:window-height="980"
     inkscape:window-x="0"
     inkscape:window-y="26"
     inkscape:window-maximized="1"
     inkscape:snap-global="false">
    <sodipodi:guide
       position="0,0"
       orientation="0,96"
       id="guide1621"
       inkscape:locked="true" />
    <sodipodi:guide
       position="96.000002,0"
       orientation="-96,0"
       id="guide1623"
       inkscape:locked="true" />
    <sodipodi:guide
       position="96.000002,96.000002"
       orientation="0,-96"
       id="guide1625"
       inkscape:locked="true" />
    <sodipodi:guide
       position="0,96.000002"
       orientation="96,0"
       id="guide1627"
       inkscape:locked="true" />
  </sodipodi:namedview>
  <metadata
     id="metadata1069">
    <rdf:RDF>
      <cc:Work
         rdf:about="">
        <dc:format>image/svg+xml</dc:format>
        <dc:type
           rdf:resource="http://purl.org/dc/dcmitype/StillImage" />
        <dc:title>Template-icon-for-Lila-HD-Icon-Theme,</dc:title>
        <dc:date>2015.14.10</dc:date>
        <dc:creator>
          <cc:Agent>
            <dc:title>Cristian Pozzessere &quot;ilnanny&quot;</dc:title>
          </cc:Agent>
        </dc:creator>
        <dc:subject>
          <rdf:Bag>
            <rdf:li>Global language</rdf:li>
          </rdf:Bag>
        </dc:subject>
        <dc:description>Templaate for new icon theme for gnu-linux and unix-like operations-systems.</dc:description>
        <dc:contributor>
          <cc:Agent>
            <dc:title />
          </cc:Agent>
        </dc:contributor>
        <cc:license
           rdf:resource="http://creativecommons.org/licenses/by-sa/4.0/" />
        <dc:source>LFS</dc:source>
        <dc:publisher>
          <cc:Agent>
            <dc:title>ilnanny</dc:title>
          </cc:Agent>
        </dc:publisher>
        <dc:rights>
          <cc:Agent>
            <dc:title>ilnanny</dc:title>
          </cc:Agent>
        </dc:rights>
        <dc:language>it_IT-UTF8 , en_US-UTF8</dc:language>
      </cc:Work>
      <cc:License
         rdf:about="http://creativecommons.org/licenses/by-sa/4.0/">
        <cc:permits
           rdf:resource="http://creativecommons.org/ns#Reproduction" />
        <cc:permits
           rdf:resource="http://creativecommons.org/ns#Distribution" />
        <cc:requires
           rdf:resource="http://creativecommons.org/ns#Notice" />
        <cc:requires
           rdf:resource="http://creativecommons.org/ns#Attribution" />
        <cc:permits
           rdf:resource="http://creativecommons.org/ns#DerivativeWorks" />
        <cc:requires
           rdf:resource="http://creativecommons.org/ns#ShareAlike" />
      </cc:License>
    </rdf:RDF>
  </metadata>
  <g
     inkscape:label="Livello 1"
     inkscape:groupmode="layer"
     id="layer1"
     transform="translate(0,-1026.5197)">
    <g
       id="g5529"
       transform="matrix(0.99583331,0,0,0.99583333,23.329033,7.7011794)">
      <path
         inkscape:connector-curvature="0"
         id="path3288"
         d="m 65.917047,1023.2822 h -82.285719 c -3.798848,0 -6.857136,3.0583 -6.857136,6.8571 v 82.2858 c 0,3.7988 3.058288,6.8571 6.857136,6.8571 h 82.285719 c 3.798857,0 6.857147,-3.0583 6.857147,-6.8571 v -82.2858 c 0,-3.7988 -3.05829,-6.8571 -6.857147,-6.8571 z"
         style="display:inline;opacity:0.15;fill:#000000;fill-opacity:1;fill-rule:nonzero;stroke:none" />
      <path
         style="display:inline;opacity:0.15;fill:#000000;fill-opacity:1;fill-rule:nonzero;stroke:none"
         d="m 65.274191,1024.0322 h -81.000007 c -3.739492,0 -6.749993,3.0105 -6.749993,6.75 v 81 c 0,3.7395 3.010501,6.75 6.749993,6.75 h 81.000007 c 3.739503,0 6.750003,-3.0105 6.750003,-6.75 v -81 c 0,-3.7395 -3.0105,-6.75 -6.750003,-6.75 z"
         id="path4085"
         inkscape:connector-curvature="0" />
      <path
         inkscape:connector-curvature="0"
         id="rect4251-1"
         d="m 64.63133,1024.7822 h -79.714282 c -3.680143,0 -6.642857,2.9627 -6.642857,6.6429 v 79.7142 c 0,3.6802 2.962714,6.6429 6.642857,6.6429 H 64.63133 c 3.680143,0 6.642854,-2.9627 6.642854,-6.6429 v -79.7142 c 0,-3.6802 -2.962711,-6.6429 -6.642854,-6.6429 z"
         style="display:inline;fill:url(#linearGradient4071-6);fill-opacity:1;fill-rule:nonzero;stroke:none" />
      <path
         style="opacity:1;fill:#d3c4bf;fill-opacity:0.66187048;fill-rule:nonzero;stroke:none;stroke-width:3.03836679;stroke-linecap:square;stroke-linejoin:bevel;stroke-miterlimit:4;stroke-dasharray:none;stroke-opacity:1;paint-order:markers stroke fill"
         d="m -13.033394,1029.9598 h 76.004685 c 2.282441,0 4.11993,1.899 4.11993,4.2579 v 68.005 c 0,2.3589 -1.837489,4.2579 -4.11993,4.2579 h -76.004685 c -2.282441,0 -4.11993,-1.899 -4.11993,-4.2579 v -68.005 c 0,-2.3589 1.837489,-4.2579 4.11993,-4.2579 z"
         id="rect5550" />
      <path
         inkscape:connector-curvature="0"
         id="path4236-5"
         d="m -15.082934,1024.7822 c -3.680143,0 -6.642857,2.9627 -6.642857,6.6429 v 16.6071 h 1.107143 v -16.6071 c 0,-3.086 2.449775,-5.5358 5.535714,-5.5358 h 79.714281 c 3.085939,0 5.535714,2.4498 5.535714,5.5358 v 16.6071 h 1.107143 v -16.6071 c 0,-3.6802 -2.962714,-6.6429 -6.642857,-6.6429 z"
         style="display:inline;opacity:0.45;fill:url(#radialGradient7430);fill-opacity:1;fill-rule:nonzero;stroke:none;stroke-width:1.10714269" />
      <g
         id="g5600"
         transform="rotate(-2.3446007,85.379217,993.93528)">
        <path
           inkscape:connector-curvature="0"
           id="path5553"
           d="m 13.568486,1030.2768 c -16.9881605,0.8157 -30.122717,15.2745 -29.30458,32.2618 0.813021,16.9874 15.27146902,30.1221 32.25963,29.3065 16.988161,-0.8156 30.122717,-15.2744 29.304582,-32.2616 -0.813023,-16.9875 -15.27147,-30.1223 -32.259632,-29.3067 z m 0.11178,2.3109 c 15.738847,-0.7557 29.081804,11.3675 29.835026,27.1055 0.757962,15.7378 -11.362656,29.0835 -27.101503,29.8391 -15.73884721,0.7556 -29.083836,-11.3675 -29.837059,-27.1056 -0.757961,-15.7378 11.3646893,-29.0834 27.103536,-29.839 z"
           style="color:#000000;font-style:normal;font-variant:normal;font-weight:normal;font-stretch:normal;font-size:medium;line-height:normal;font-family:sans-serif;font-variant-ligatures:normal;font-variant-position:normal;font-variant-caps:normal;font-variant-numeric:normal;font-variant-alternates:normal;font-feature-settings:normal;text-indent:0;text-align:start;text-decoration:none;text-decoration-line:none;text-decoration-style:solid;text-decoration-color:#000000;letter-spacing:normal;word-spacing:normal;text-transform:none;writing-mode:lr-tb;direction:ltr;text-orientation:mixed;dominant-baseline:auto;baseline-shift:baseline;text-anchor:start;white-space:normal;shape-padding:0;clip-rule:nonzero;display:inline;overflow:visible;visibility:visible;opacity:1;isolation:auto;mix-blend-mode:normal;color-interpolation:sRGB;color-interpolation-filters:linearRGB;solid-color:#000000;solid-opacity:1;vector-effect:none;fill:#000000;fill-opacity:0.23381294;fill-rule:nonzero;stroke:none;stroke-width:2.31422257;stroke-linecap:butt;stroke-linejoin:miter;stroke-miterlimit:4;stroke-dasharray:none;stroke-dashoffset:0;stroke-opacity:1;color-rendering:auto;image-rendering:auto;shape-rendering:auto;text-rendering:auto;enable-background:accumulate;" />
        <path
           sodipodi:nodetypes="cccccc"
           style="display:inline;fill:url(#radialGradient3409);fill-opacity:1;fill-rule:evenodd;stroke:#404141;stroke-width:1;stroke-linecap:butt;stroke-linejoin:miter;stroke-miterlimit:4;stroke-dasharray:none;stroke-opacity:1"
           id="path3310"
           inkscape:connector-curvature="0"
           d="m 21.59188,1089.3231 c 0,0 12.358602,-5.7933 20.494838,1.597 l 4.415084,-4.7167 c -8.218768,-7.4654 -3.121195,-19.5078 -3.121195,-19.5078 -1.479304,5.1711 -1.951864,8.4579 -7.297593,14.3425 -5.378097,5.9203 -14.491134,8.285 -14.491134,8.285 z" />
        <rect
           width="7.3007574"
           height="22.426895"
           rx="0.63576436"
           ry="0.63576436"
           x="-779.255"
           y="762.18188"
           transform="matrix(0.67206331,-0.74049369,0.73991216,0.67270349,0,0)"
           id="rect3361"
           style="display:inline;fill:url(#linearGradient4378);fill-opacity:1;stroke:#000000;stroke-width:0.62315953;stroke-linecap:butt;stroke-linejoin:miter;stroke-miterlimit:4;stroke-dasharray:none;stroke-opacity:1" />
        <path
           style="display:inline;opacity:1;fill:#ffffff;fill-opacity:0.38129497;stroke:#000000;stroke-width:2.22399998;stroke-linecap:butt;stroke-linejoin:miter;stroke-miterlimit:4;stroke-dasharray:none;stroke-opacity:0.61510788"
           id="path2420"
           d="m -13.42934,1057.3 a 28.5034,28.501886 7.4379124 1 0 56.527129,7.3796 28.5034,28.501886 7.4379124 1 0 -56.527129,-7.3796 z"
           inkscape:connector-curvature="0" />
        <path
           style="color:#000000;font-style:normal;font-variant:normal;font-weight:normal;font-stretch:normal;font-size:medium;line-height:normal;font-family:sans-serif;font-variant-ligatures:normal;font-variant-position:normal;font-variant-caps:normal;font-variant-numeric:normal;font-variant-alternates:normal;font-feature-settings:normal;text-indent:0;text-align:start;text-decoration:none;text-decoration-line:none;text-decoration-style:solid;text-decoration-color:#000000;letter-spacing:normal;word-spacing:normal;text-transform:none;writing-mode:lr-tb;direction:ltr;text-orientation:mixed;dominant-baseline:auto;baseline-shift:baseline;text-anchor:start;white-space:normal;shape-padding:0;clip-rule:nonzero;display:inline;overflow:visible;visibility:visible;opacity:1;isolation:auto;mix-blend-mode:normal;color-interpolation:sRGB;color-interpolation-filters:linearRGB;solid-color:#000000;solid-opacity:1;vector-effect:none;fill:#ffffff;fill-opacity:0.85251796;fill-rule:nonzero;stroke:none;stroke-width:1.96926785;stroke-linecap:butt;stroke-linejoin:miter;stroke-miterlimit:4;stroke-dasharray:none;stroke-dashoffset:0;stroke-opacity:1;color-rendering:auto;image-rendering:auto;shape-rendering:auto;text-rendering:auto;enable-background:accumulate;filter:url(#filter6745)"
           d="m 13.85934,1034.8683 c -14.45592983,0.6941 -25.632668,12.9977 -24.936481,27.4529 0.691833,14.4554 12.9951254,25.6322 27.451056,24.9382 14.455932,-0.6941 25.63267,-12.9977 24.936485,-27.4528 -0.691835,-14.4553 -12.995127,-25.6323 -27.45106,-24.9383 z m 0.09512,1.9665 c 13.392838,-0.6431 24.746913,9.6731 25.387861,23.0651 0.644982,13.392 -9.668955,24.7485 -23.061792,25.3913 -13.3928389,0.643 -24.7486432,-9.6729 -25.3895922,-23.0652 -0.6449805,-13.3919 9.67068559,-24.7482 23.0635232,-25.3912 z"
           id="path6727"
           inkscape:connector-curvature="0" />
      </g>
      <g
         id="g6651"
         transform="matrix(-0.64970722,0.64970721,0.64970723,0.64970722,-662.24717,362.33297)">
        <path
           inkscape:connector-curvature="0"
           d="m 11.818959,1049.4499 a 6.0285363,8.3635806 72.251291 1 1 -15.9309934,5.0991 6.0285363,8.3635806 72.251291 1 1 15.9309934,-5.0991 z"
           id="path3278"
           style="display:inline;opacity:0.41557378;fill:url(#radialGradient3419);fill-opacity:1;stroke:none;stroke-width:1.13678181;stroke-opacity:1" />
        <path
           style="display:inline;opacity:0.1;fill:#000000;fill-opacity:1;stroke:none;stroke-width:0.86692858"
           id="path3734"
           d="m 38.428978,1056.6644 a 0.85672124,0.85672124 0 0 0 -0.01916,0.019 c -2.05e-4,-2e-4 -0.11472,-0.1148 -0.114939,-0.115 -2.2e-4,-1e-4 -0.133862,-0.057 -0.134096,-0.057 -2.32e-4,-2e-4 -0.153012,-0.077 -0.153253,-0.077 -2.42e-4,-1e-4 -0.133844,-0.057 -0.134096,-0.057 -2.51e-4,-10e-5 -0.152996,-0.038 -0.153253,-0.038 -2.57e-4,0 -0.152993,-0.038 -0.153253,-0.038 -2.61e-4,0 -0.133835,-0.019 -0.134096,-0.019 -2.31e-4,0 -0.104562,0.019 -0.134096,0.019 -0.0042,0 -0.01912,-0.019 -0.01916,-0.019 l -12.54757,0.019 v -12.5667 c 0,-2e-4 0.01917,-0.096 0.01916,-0.096 -10e-6,-10e-5 -0.01914,-0.096 -0.01916,-0.096 -2e-5,-10e-5 -0.01913,-0.096 -0.01916,-0.096 -2.9e-5,-2e-4 -0.01911,-0.096 -0.01916,-0.096 -4e-5,-2e-4 -0.01911,-0.096 -0.01916,-0.096 -4.9e-5,-2e-4 -0.03825,-0.1148 -0.03831,-0.1149 -5.8e-5,-2e-4 -0.03825,-0.076 -0.03831,-0.077 -6.8e-5,-10e-5 -0.01908,-0.096 -0.01916,-0.096 -7.6e-5,-2e-4 -0.05738,-0.096 -0.05747,-0.096 -8.5e-5,-2e-4 -0.05738,-0.096 -0.05747,-0.096 -9.3e-5,-10e-5 -0.05737,-0.057 -0.05747,-0.057 -1.02e-4,-10e-5 -0.05736,-0.096 -0.05747,-0.096 -1.09e-4,-10e-5 -0.05735,-0.057 -0.05747,-0.057 -1.16e-4,-1e-4 -0.0765,-0.077 -0.07663,-0.077 -1.24e-4,-1e-4 -0.0765,-0.077 -0.07663,-0.077 -9e-5,-1e-4 -0.03468,-9e-4 -0.05747,-0.019 -0.0098,-0.01 -0.01911,-0.019 -0.01916,-0.019 -0.02688,-0.02 -0.09561,-0.096 -0.09578,-0.096 -2.05e-4,-1e-4 -0.133879,-0.057 -0.134096,-0.057 -2.16e-4,-10e-5 -0.114715,-0.077 -0.11494,-0.077 -2.25e-4,-10e-5 -0.133864,-0.057 -0.134096,-0.057 -2.33e-4,0 -0.153016,-0.038 -0.153253,-0.038 -2.39e-4,0 -0.133854,-0.019 -0.134096,-0.019 -2.44e-4,-10e-5 -0.133852,-0.019 -0.134096,-0.019 -2.47e-4,0 -0.133849,-0.019 -0.134096,-0.019 a 0.85672124,0.85672124 0 0 0 -0.01916,0.019 l -11.436487,-0.019 -0.01916,0.019 c -0.02361,2e-4 -0.07651,0 -0.07663,0 -1.48e-4,0 -0.07648,0 -0.07663,0 -1.48e-4,0 -0.07648,0 -0.07663,0 -1.48e-4,0 -0.09564,0.019 -0.09578,0.019 -1.46e-4,0 -0.09564,0.019 -0.09578,0.019 -1.45e-4,10e-5 -0.07649,0 -0.07663,0 -1.42e-4,10e-5 -0.07649,0.038 -0.07663,0.038 -1.41e-4,10e-5 -0.07649,0.038 -0.07663,0.038 -1.37e-4,0 -0.09565,0.019 -0.09578,0.019 -1.35e-4,10e-5 -0.0765,0.038 -0.07663,0.038 -1.31e-4,10e-5 -0.05734,0.057 -0.05747,0.058 -1.28e-4,10e-5 -0.0765,0.038 -0.07663,0.038 -1.24e-4,10e-5 -0.0765,0.038 -0.07663,0.038 -1.2e-4,10e-5 -0.07651,0.076 -0.07663,0.077 -1.14e-4,10e-5 -0.05736,0.057 -0.05747,0.058 -1.1e-4,10e-5 -0.05737,0.057 -0.05747,0.057 -1.05e-4,10e-5 -0.05737,0.057 -0.05747,0.058 -9.9e-5,10e-5 -0.05738,0.057 -0.05747,0.057 -9.4e-5,1e-4 -0.07654,0.076 -0.07663,0.077 -8.8e-5,1e-4 -0.03823,0.076 -0.03831,0.077 -8.2e-5,1e-4 -0.03823,0.077 -0.03831,0.077 -7.5e-5,1e-4 -0.0574,0.057 -0.05747,0.057 -6.8e-5,1e-4 -0.03825,0.077 -0.03831,0.077 -6.2e-5,2e-4 -0.0191,0.096 -0.01916,0.096 -5.5e-5,1e-4 -0.03826,0.076 -0.03831,0.077 -4.8e-5,2e-4 -0.03827,0.077 -0.03831,0.077 -4.1e-5,1e-4 3.7e-5,0.076 0,0.077 -3.4e-5,1e-4 -0.01913,0.096 -0.01916,0.096 -2.7e-5,1e-4 -0.01913,0.096 -0.01916,0.096 -2e-5,2e-4 1.2e-5,0.076 0,0.077 -1.2e-5,1e-4 0,0.077 0,0.077 -4e-6,1e-4 1.59e-4,0.053 0,0.077 -6.1e-5,0.01 -0.01915,0.019 -0.01916,0.019 l 0.01916,12.5476 -12.5475699,-0.019 -0.01916,0.019 c -0.02361,10e-5 -0.07651,0 -0.07663,0 -1.49e-4,0 -0.07648,0 -0.07663,0 -1.47e-4,0 -0.07648,-10e-5 -0.07663,0 -1.47e-4,0 -0.09564,0.019 -0.09578,0.019 -1.46e-4,10e-5 -0.09564,0.019 -0.09578,0.019 -1.45e-4,0 -0.07649,-10e-5 -0.07663,0 -1.43e-4,0 -0.07649,0.038 -0.07663,0.038 -1.4e-4,0 -0.07649,0.038 -0.07663,0.038 -1.37e-4,10e-5 -0.09565,0.019 -0.09578,0.019 -1.35e-4,0 -0.0765,0.038 -0.07663,0.038 -1.32e-4,0 -0.05734,0.057 -0.05747,0.057 -1.28e-4,10e-5 -0.0765,0.038 -0.07663,0.038 -1.23e-4,0 -0.0765,0.038 -0.07663,0.038 -1.2e-4,10e-5 -0.07651,0.076 -0.07663,0.077 -1.15e-4,10e-5 -0.05736,0.057 -0.05747,0.058 -1.11e-4,10e-5 -0.05737,0.057 -0.05747,0.057 -1.05e-4,10e-5 -0.05737,0.057 -0.05747,0.058 -9.9e-5,10e-5 -0.05738,0.057 -0.05747,0.057 -9.3e-5,1e-4 -0.07654,0.077 -0.07663,0.077 -8.8e-5,10e-5 -0.03823,0.076 -0.03831,0.077 -8.2e-5,2e-4 -0.03823,0.077 -0.03831,0.077 -7.6e-5,10e-5 -0.0574,0.057 -0.05747,0.057 -6.9e-5,2e-4 -0.03825,0.077 -0.03831,0.077 -6.3e-5,1e-4 -0.0191,0.096 -0.01916,0.096 -5.5e-5,2e-4 -0.03826,0.076 -0.03831,0.077 -4.9e-5,1e-4 -0.03827,0.077 -0.03831,0.077 -4.2e-5,1e-4 3.7e-5,0.076 0,0.077 -3.5e-5,2e-4 -0.01913,0.096 -0.01916,0.096 -2.7e-5,2e-4 -0.01913,0.096 -0.01916,0.096 -2e-5,1e-4 1.2e-5,0.076 0,0.077 -1.2e-5,2e-4 0,0.077 0,0.077 -4e-6,1e-4 1.59e-4,0.053 0,0.077 -6.2e-5,0.01 -0.01916,0.019 -0.01916,0.019 l 0.01924,11.4365 c 1.59e-4,0.024 -7e-6,0.076 0,0.077 4e-6,10e-5 -1.3e-5,0.077 0,0.077 1.1e-5,2e-4 -2.5e-5,0.076 0,0.077 1.9e-5,10e-5 0.01913,0.096 0.01916,0.096 2.7e-5,2e-4 0.01912,0.096 0.01916,0.096 3.4e-5,2e-4 -4.3e-5,0.076 0,0.077 4.1e-5,10e-5 0.03826,0.076 0.03831,0.077 4.8e-5,10e-5 0.03826,0.077 0.03831,0.077 5.5e-5,10e-5 0.0191,0.096 0.01916,0.096 6.2e-5,10e-5 0.03824,0.076 0.03831,0.077 6.9e-5,2e-4 0.05739,0.057 0.05747,0.058 7.5e-5,10e-5 0.03823,0.076 0.03831,0.077 8.2e-5,10e-5 0.03823,0.077 0.03831,0.077 8.8e-5,10e-5 0.07653,0.076 0.07663,0.077 9.4e-5,1e-4 0.05737,0.057 0.05747,0.058 10e-5,1e-4 0.05737,0.057 0.05747,0.057 1.05e-4,10e-5 0.05736,0.057 0.05747,0.058 1.1e-4,10e-5 0.05735,0.057 0.05747,0.057 1.14e-4,10e-5 0.07651,0.077 0.07663,0.077 1.2e-4,10e-5 0.0765,0.038 0.07663,0.038 1.24e-4,10e-5 0.0765,0.038 0.07663,0.038 1.28e-4,10e-5 0.05734,0.057 0.05747,0.058 1.31e-4,0 0.07649,0.038 0.07663,0.038 1.35e-4,10e-5 0.09564,0.019 0.09578,0.019 1.37e-4,0 0.07649,0.038 0.07663,0.038 1.41e-4,0 0.07649,0.038 0.07663,0.038 1.42e-4,0 0.07648,-10e-5 0.07663,0 1.45e-4,0 0.09564,0.019 0.09578,0.019 1.46e-4,10e-5 0.09564,0.019 0.09578,0.019 1.47e-4,0 0.07648,0 0.07663,0 1.48e-4,0 0.07648,0 0.07663,0 1.14e-4,0 0.05301,-2e-4 0.07663,0 l 0.01916,0.019 12.5475699,-0.019 v 12.5667 c 1.59e-4,0.024 -6e-6,0.076 0,0.077 5e-6,2e-4 -1.2e-5,0.077 0,0.077 1.2e-5,10e-5 -2.4e-5,0.076 0,0.077 2e-5,2e-4 0.01913,0.096 0.01916,0.096 2.7e-5,10e-5 0.01912,0.096 0.01916,0.096 3.5e-5,10e-5 -4.3e-5,0.076 0,0.077 4.2e-5,10e-5 0.03826,0.076 0.03831,0.077 4.9e-5,2e-4 0.03826,0.077 0.03831,0.077 5.5e-5,10e-5 0.0191,0.096 0.01916,0.096 6.3e-5,2e-4 0.03825,0.076 0.03831,0.077 6.9e-5,10e-5 0.05739,0.057 0.05747,0.057 7.6e-5,2e-4 0.03823,0.076 0.03831,0.077 8.3e-5,10e-5 0.03823,0.077 0.03831,0.077 8.7e-5,10e-5 0.07653,0.076 0.07663,0.077 9.4e-5,10e-5 0.05737,0.057 0.05747,0.058 9.9e-5,10e-5 0.05736,0.057 0.05747,0.057 1.04e-4,10e-5 0.05736,0.057 0.05747,0.057 1.11e-4,10e-5 0.05736,0.057 0.05747,0.057 1.15e-4,1e-4 0.07651,0.077 0.07663,0.077 1.19e-4,1e-4 0.0765,0.038 0.07663,0.038 1.24e-4,1e-4 0.0765,0.038 0.07663,0.038 1.28e-4,0 0.05734,0.057 0.05747,0.057 1.31e-4,10e-5 0.07649,0.038 0.07663,0.038 1.34e-4,10e-5 0.09564,0.019 0.09578,0.019 1.38e-4,10e-5 0.07649,0.038 0.07663,0.038 1.4e-4,10e-5 0.07648,0.038 0.07663,0.038 1.42e-4,10e-5 0.07648,0 0.07663,0 1.44e-4,10e-5 0.09564,0.019 0.09578,0.019 1.46e-4,0 0.09564,0.019 0.09578,0.019 1.47e-4,10e-5 0.07648,0 0.07663,0 1.48e-4,0 0.07648,0 0.07663,0 1.14e-4,0 0.05301,-10e-5 0.07663,0 l 0.01916,0.019 h 11.417331 l 0.01916,-0.019 c 0.02361,-10e-5 0.07651,0 0.07663,0 1.49e-4,0 0.07648,0 0.07663,0 1.48e-4,0 0.07648,10e-5 0.07663,0 1.47e-4,0 0.09564,-0.019 0.09578,-0.019 1.46e-4,0 0.09564,-0.019 0.09578,-0.019 1.45e-4,0 0.07649,10e-5 0.07663,0 1.42e-4,0 0.07649,-0.038 0.07663,-0.038 1.4e-4,0 0.07649,-0.038 0.07663,-0.038 1.38e-4,-10e-5 0.09565,-0.019 0.09578,-0.019 1.35e-4,0 0.0765,-0.038 0.07663,-0.038 1.31e-4,0 0.05734,-0.057 0.05747,-0.057 1.28e-4,-10e-5 0.0765,-0.038 0.07663,-0.038 1.24e-4,0 0.0765,-0.038 0.07663,-0.038 1.2e-4,-10e-5 0.07651,-0.077 0.07663,-0.077 1.14e-4,-10e-5 0.05736,-0.057 0.05747,-0.057 1.11e-4,-1e-4 0.05737,-0.057 0.05747,-0.057 1.05e-4,-1e-4 0.05737,-0.057 0.05747,-0.057 9.9e-5,-10e-5 0.05738,-0.057 0.05747,-0.058 9.4e-5,-10e-5 0.07654,-0.076 0.07663,-0.077 8.8e-5,-10e-5 0.03823,-0.077 0.03831,-0.077 8.3e-5,-2e-4 0.03823,-0.076 0.03831,-0.077 7.5e-5,-10e-5 0.0574,-0.057 0.05747,-0.057 6.9e-5,-2e-4 0.03825,-0.076 0.03831,-0.077 6.2e-5,-10e-5 0.0191,-0.096 0.01916,-0.096 5.5e-5,-2e-4 0.03826,-0.077 0.03831,-0.077 4.9e-5,-10e-5 0.03827,-0.076 0.03831,-0.077 4.1e-5,-10e-5 -3.7e-5,-0.077 0,-0.077 3.4e-5,-2e-4 0.01913,-0.096 0.01916,-0.096 2.7e-5,-2e-4 0.01913,-0.096 0.01916,-0.096 1.9e-5,-10e-5 -1.3e-5,-0.077 0,-0.077 1.1e-5,-2e-4 0,-0.076 0,-0.077 3e-6,-10e-5 -1.6e-4,-0.053 0,-0.077 v -12.5667 h 12.566727 c 0.02361,-2e-4 0.07651,0 0.07663,0 1.48e-4,0 0.07648,0 0.07663,0 1.48e-4,0 0.07648,0 0.07663,0 1.47e-4,-10e-5 0.09564,-0.019 0.09578,-0.019 1.46e-4,0 0.09564,-0.019 0.09578,-0.019 1.44e-4,0 0.07648,10e-5 0.07663,0 1.42e-4,0 0.07649,-0.038 0.07663,-0.038 1.4e-4,0 0.07648,-0.038 0.07663,-0.038 1.37e-4,0 0.09565,-0.019 0.09578,-0.019 1.35e-4,-10e-5 0.0765,-0.038 0.07663,-0.038 1.31e-4,-10e-5 0.05734,-0.057 0.05747,-0.058 1.28e-4,-10e-5 0.0765,-0.038 0.07663,-0.038 1.24e-4,-10e-5 0.0765,-0.038 0.07663,-0.038 1.19e-4,-10e-5 0.07651,-0.077 0.07663,-0.077 1.15e-4,-10e-5 0.05736,-0.057 0.05747,-0.057 1.1e-4,-10e-5 0.05737,-0.057 0.05747,-0.058 1.05e-4,-10e-5 0.05737,-0.057 0.05747,-0.057 9.9e-5,-10e-5 0.05738,-0.057 0.05747,-0.057 9.4e-5,-2e-4 0.07654,-0.077 0.07663,-0.077 8.7e-5,-10e-5 0.03823,-0.077 0.03831,-0.077 8.2e-5,-10e-5 0.03823,-0.076 0.03831,-0.077 7.6e-5,-2e-4 0.0574,-0.057 0.05747,-0.058 6.9e-5,-10e-5 0.03825,-0.076 0.03831,-0.077 6.3e-5,-2e-4 0.0191,-0.096 0.01916,-0.096 5.5e-5,-2e-4 0.03826,-0.077 0.03831,-0.077 4.8e-5,-2e-4 0.03827,-0.076 0.03831,-0.077 4.2e-5,-10e-5 -3.7e-5,-0.076 0,-0.077 3.4e-5,-2e-4 0.01913,-0.096 0.01916,-0.096 2.7e-5,-10e-5 0.01913,-0.096 0.01916,-0.096 2e-5,-10e-5 -1.2e-5,-0.076 0,-0.077 1.2e-5,-10e-5 0,-0.077 0,-0.077 4e-6,-10e-5 -1.59e-4,-0.053 0,-0.077 l 0.01916,-11.4364 c 10e-7,-10e-5 -0.01923,-0.01 -0.01916,-0.019 1.29e-4,-0.027 0.01916,-0.057 0.01916,-0.058 -4e-6,-10e-5 1.2e-5,-0.1147 0,-0.1149 -1.3e-5,-2e-4 -0.01914,-0.096 -0.01916,-0.096 -2.2e-5,-2e-4 -0.01913,-0.096 -0.01916,-0.096 -3.2e-5,-10e-5 -0.01911,-0.096 -0.01916,-0.096 -4.1e-5,-10e-5 -0.01911,-0.096 -0.01916,-0.096 -5e-5,-2e-4 -0.03826,-0.076 -0.03831,-0.077 -5.9e-5,-10e-5 -0.0574,-0.096 -0.05747,-0.096 -6.8e-5,-2e-4 -0.01908,-0.096 -0.01916,-0.096 -7.6e-5,-2e-4 -0.03823,-0.076 -0.03831,-0.077 -8.5e-5,-10e-5 -0.07653,-0.076 -0.07663,-0.077 -9.2e-5,-10e-5 -0.03822,-0.076 -0.03831,-0.077 -1e-4,-10e-5 -0.05737,-0.096 -0.05747,-0.096 -1.07e-4,-10e-5 -0.05736,-0.057 -0.05747,-0.058 -1.14e-4,-10e-5 -0.07651,-0.076 -0.07663,-0.077 -1.21e-4,-10e-5 -0.0765,-0.077 -0.07663,-0.077 z"
           inkscape:connector-curvature="0" />
        <path
           style="display:inline;opacity:0.15;fill:#000000;fill-opacity:1;stroke:none;stroke-width:0.86692858"
           id="path3730"
           d="m 23.544303,1043.0441 a 0.86549334,0.86549334 0 0 0 -0.536385,-0.1916 H 11.552275 a 0.86549334,0.86549334 0 0 0 -0.881204,0.8812 v 13.4096 H -2.7385464 a 0.86549334,0.86549334 0 0 0 -0.881203,0.8812 v 11.4557 a 0.86549334,0.86549334 0 0 0 0.881203,0.8812 H 10.671071 v 13.4096 a 0.86549334,0.86549334 0 0 0 0.881204,0.8812 h 11.455643 a 0.86549334,0.86549334 0 0 0 0.881204,-0.8812 v -13.4096 h 13.409617 a 0.86549334,0.86549334 0 0 0 0.881203,-0.8812 v -11.4557 a 0.86549334,0.86549334 0 0 0 -0.881203,-0.8812 H 23.889122 v -13.4096 a 0.86549334,0.86549334 0 0 0 -0.344819,-0.6896 z"
           inkscape:connector-curvature="0" />
        <path
           style="display:inline;opacity:0.3;fill:#000000;fill-opacity:1;stroke:none;stroke-width:0.86692858"
           id="path3724"
           inkscape:connector-curvature="0"
           d="m -2.7449324,1058.0309 v 11.4429 H 11.55866 v 14.3036 h 11.442872 v -14.3036 h 14.303592 v -11.4429 H 23.001532 v -14.3036 H 11.55866 v 14.3036 z" />
        <path
           style="display:inline;opacity:0.73799995;fill:url(#linearGradient3702);fill-opacity:1;stroke:none;stroke-width:0.86692858"
           id="path2929"
           inkscape:connector-curvature="0"
           d="m -2.1319214,1057.4179 1e-6,11.4429 H 12.171671 v 14.3036 h 11.442872 v -14.3036 h 14.303592 v -11.4429 H 23.614543 v -14.3036 H 12.17167 l 10e-7,14.3036 z" />
        <path
           style="display:inline;opacity:0.3;fill:#ffffff;fill-opacity:1;stroke:none;stroke-width:0.86692858"
           id="path3704"
           inkscape:connector-curvature="0"
           d="M 23.620929,1043.1207 H 12.165284 v 0.613 h 10.842634 v 14.2908 h 14.290821 v 10.8427 h 0.613011 v -11.4557 H 23.620929 Z m -12.068654,14.2908 H -2.1255354 v 0.613 H 11.552275 Z m 12.068654,12.0687 h -0.613011 v 13.6778 h 0.613011 z" />
      </g>
      <path
         style="color:#000000;font-style:normal;font-variant:normal;font-weight:normal;font-stretch:normal;font-size:medium;line-height:normal;font-family:Sans;-inkscape-font-specification:Sans;text-indent:0;text-align:start;text-decoration:none;text-decoration-line:none;letter-spacing:normal;word-spacing:normal;text-transform:none;writing-mode:lr-tb;direction:ltr;baseline-shift:baseline;text-anchor:start;display:inline;overflow:visible;visibility:visible;fill:#241f1f;fill-opacity:0.63265303;stroke:none;stroke-width:2.3755002;marker:none;enable-background:accumulate"
         d="m -13.400729,1028.0117 c -3.116621,0 -5.667965,2.5395 -5.667965,5.646 v 69.278 c 0,3.1065 2.551344,5.646 5.667965,5.646 h 76.791785 c 3.116621,0 5.667968,-2.5395 5.667968,-5.646 v -69.278 c 0,-3.1065 -2.551347,-5.646 -5.667968,-5.646 z m 0,2.3194 h 76.791785 c 1.888099,0 3.352022,1.4801 3.352022,3.3266 v 69.278 c 0,1.8464 -1.463923,3.3265 -3.352022,3.3265 h -76.791785 c -1.888099,0 -3.352022,-1.4801 -3.352022,-3.3265 v -69.278 c 0,-1.8465 1.463923,-3.3266 3.352022,-3.3266 z"
         id="path4989"
         inkscape:connector-curvature="0" />
      <path
         id="path4118"
         d="m -21.72581,1105.126 v 6 c 0,3.6801 2.976107,6.6562 6.65625,6.6562 h 79.6875 c 3.680143,0 6.656254,-2.9761 6.656254,-6.6562 v -6 c 0,3.6801 -2.976111,6.6562 -6.656254,6.6562 h -79.6875 c -3.680143,0 -6.65625,-2.9761 -6.65625,-6.6562 z"
         style="display:inline;opacity:0.716;fill:url(#linearGradient4129-8);fill-opacity:1;fill-rule:nonzero;stroke:none"
         inkscape:connector-curvature="0" />
      <rect
         ry="4.25"
         rx="0"
         y="1102.528"
         x="-17.850809"
         height="4.25"
         width="84.250008"
         id="rect4131"
         style="display:inline;opacity:0.55;fill:url(#radialGradient7462);fill-opacity:1;stroke:none" />
      <rect
         transform="rotate(90)"
         style="display:inline;opacity:0.55;fill:url(#radialGradient4431);fill-opacity:1;stroke:none"
         id="rect4141"
         width="76.75"
         height="4.25"
         x="1028.0321"
         y="-66.395012"
         rx="0"
         ry="4.25" />
      <path
         inkscape:connector-curvature="0"
         id="rect4190"
         d="m -13.453289,1029.9257 c -1.993352,0 -3.604492,1.6493 -3.608803,3.6845 l -0.148217,69.9611 c 1.913686,2.5211 1.665283,2.4108 4.851514,2.6791 1.804215,-14.8611 36.499018,-73.3365 77.418282,-73.3365 0.488076,0 0.963271,0.02 1.449204,0.029 -0.302859,-1.718 -1.751,-3.0172 -3.523555,-3.0172 z"
         style="display:inline;opacity:0.03800001;fill:#ffffff;fill-opacity:1;stroke:none"
         sodipodi:nodetypes="ssccscss" />
      <rect
         clip-path="url(#clipPath4156-4-6-2-1)"
         ry="3.9569881"
         rx="3.9569874"
         y="-30"
         x="2"
         height="80.51683"
         width="93.099747"
         id="rect4146-9"
         style="display:inline;opacity:0.8;fill:url(#linearGradient4767);fill-opacity:1;stroke:none"
         transform="matrix(0.99281006,0,0,0.98982165,-18.558812,1060.0932)" />
    </g>
  </g>
</svg>
