<?xml version="1.0" encoding="UTF-8" standalone="no"?>
<!-- Created with Inkscape (http://www.inkscape.org/) -->

<svg
   xmlns:dc="http://purl.org/dc/elements/1.1/"
   xmlns:cc="http://creativecommons.org/ns#"
   xmlns:rdf="http://www.w3.org/1999/02/22-rdf-syntax-ns#"
   xmlns:svg="http://www.w3.org/2000/svg"
   xmlns="http://www.w3.org/2000/svg"
   xmlns:xlink="http://www.w3.org/1999/xlink"
   xmlns:sodipodi="http://sodipodi.sourceforge.net/DTD/sodipodi-0.dtd"
   xmlns:inkscape="http://www.inkscape.org/namespaces/inkscape"
   width="96"
   height="96"
   id="svg5023"
   version="1.1"
   inkscape:version="0.92.2 5c3e80d, 2017-08-06"
   sodipodi:docname="avatar-default.svg">
  <defs
     id="defs5025">
    <linearGradient
       inkscape:collect="always"
       id="linearGradient906">
      <stop
         style="stop-color:#afcdec;stop-opacity:1"
         offset="0"
         id="stop902" />
      <stop
         style="stop-color:#186bc1;stop-opacity:1"
         offset="1"
         id="stop904" />
    </linearGradient>
    <linearGradient
       inkscape:collect="always"
       id="linearGradient4133">
      <stop
         style="stop-color:#ffffff;stop-opacity:1;"
         offset="0"
         id="stop4135" />
      <stop
         style="stop-color:#ffffff;stop-opacity:0;"
         offset="1"
         id="stop4137" />
    </linearGradient>
    <linearGradient
       id="linearGradient5700">
      <stop
         id="stop5702"
         offset="0"
         style="stop-color:#ffffff;stop-opacity:0;" />
      <stop
         style="stop-color:#ffffff;stop-opacity:0.85135138;"
         offset="0.02897836"
         id="stop5704" />
      <stop
         id="stop5706"
         offset="0.05199923"
         style="stop-color:#ffffff;stop-opacity:0;" />
      <stop
         style="stop-color:#ffffff;stop-opacity:0;"
         offset="0.96583712"
         id="stop5712" />
      <stop
         style="stop-color:#ffffff;stop-opacity:0.85135138;"
         offset="0.9788844"
         id="stop5710" />
      <stop
         id="stop5708"
         offset="1"
         style="stop-color:#ffffff;stop-opacity:0;" />
    </linearGradient>
    <linearGradient
       inkscape:collect="always"
       id="linearGradient3888-8-4-8-4-6-9-0-8-7-9">
      <stop
         style="stop-color:#ffffff;stop-opacity:1;"
         offset="0"
         id="stop3890-4-7-9-5-7-0-8-8-8-6" />
      <stop
         style="stop-color:#ffffff;stop-opacity:0;"
         offset="1"
         id="stop3892-5-8-2-8-3-3-3-06-4-4" />
    </linearGradient>
    <linearGradient
       id="linearGradient3921">
      <stop
         style="stop-color:#2cffee;stop-opacity:1;"
         offset="0"
         id="stop3923" />
      <stop
         style="stop-color:#00586e;stop-opacity:1;"
         offset="1"
         id="stop3925" />
    </linearGradient>
    <linearGradient
       inkscape:collect="always"
       id="linearGradient3888-8-4-8-6">
      <stop
         style="stop-color:#ffffff;stop-opacity:1;"
         offset="0"
         id="stop3890-4-7-9-7" />
      <stop
         style="stop-color:#ffffff;stop-opacity:0;"
         offset="1"
         id="stop3892-5-8-2-7" />
    </linearGradient>
    <linearGradient
       id="linearGradient4091-0-3-0-7">
      <stop
         style="stop-color:#ffffff;stop-opacity:1;"
         offset="0"
         id="stop4093-3-6-4-2" />
      <stop
         id="stop4099-6-1-8-3"
         offset="0.80000001"
         style="stop-color:#ffffff;stop-opacity:1;" />
      <stop
         style="stop-color:#ffffff;stop-opacity:0;"
         offset="1"
         id="stop4095-1-0-7-9" />
    </linearGradient>
    <linearGradient
       id="linearGradient3832-0-6-1-1">
      <stop
         style="stop-color:#000000;stop-opacity:1;"
         offset="0"
         id="stop3834-6-3-7-1" />
      <stop
         id="stop3872-2-4"
         offset="0.1"
         style="stop-color:#000000;stop-opacity:0.58823532;" />
      <stop
         style="stop-color:#000000;stop-opacity:0.58823532;"
         offset="0.89999998"
         id="stop3844-6-2-7-6" />
      <stop
         style="stop-color:#000000;stop-opacity:1;"
         offset="1"
         id="stop3836-5-0-2-9" />
    </linearGradient>
    <linearGradient
       inkscape:collect="always"
       xlink:href="#linearGradient6139-0"
       id="linearGradient3923"
       x1="6"
       y1="47.000011"
       x2="90"
       y2="47.000011"
       gradientUnits="userSpaceOnUse" />
    <linearGradient
       id="linearGradient6139-0">
      <stop
         id="stop6141-2"
         offset="0"
         style="stop-color:#b7b7b7;stop-opacity:1;" />
      <stop
         style="stop-color:#ffffff;stop-opacity:1;"
         offset="0.25"
         id="stop6151-0" />
      <stop
         style="stop-color:#9d9d9d;stop-opacity:1;"
         offset="0.5"
         id="stop6147-1" />
      <stop
         id="stop6149-4"
         offset="0.75"
         style="stop-color:#fafafa;stop-opacity:1;" />
      <stop
         id="stop6143-4"
         offset="1"
         style="stop-color:#b7b7b7;stop-opacity:1;" />
    </linearGradient>
    <linearGradient
       inkscape:collect="always"
       xlink:href="#linearGradient6139-0"
       id="linearGradient4071"
       gradientUnits="userSpaceOnUse"
       gradientTransform="matrix(1.1033428,0,0,1.1016792,-38.499564,-45.284377)"
       x1="6"
       y1="47.000011"
       x2="90"
       y2="47.000011" />
    <radialGradient
       inkscape:collect="always"
       xlink:href="#linearGradient3888-8-4-8-6"
       id="radialGradient4073"
       gradientUnits="userSpaceOnUse"
       gradientTransform="matrix(0,1.7857601,-2.2489266,0,28.433926,-312.48187)"
       cx="158"
       cy="6.2131939"
       fx="158"
       fy="6.2131939"
       r="41" />
    <radialGradient
       inkscape:collect="always"
       xlink:href="#linearGradient4091-0-3-0-7"
       id="radialGradient4075"
       gradientUnits="userSpaceOnUse"
       gradientTransform="matrix(-1.1829739,0,0,-0.9639916,71.243648,-65.803753)"
       cx="48"
       cy="-27"
       fx="48"
       fy="-27"
       r="42" />
    <linearGradient
       inkscape:collect="always"
       xlink:href="#linearGradient4213-7"
       id="linearGradient4767"
       gradientUnits="userSpaceOnUse"
       x1="2.7713892"
       y1="-28.64156"
       x2="50.527882"
       y2="14.514202" />
    <linearGradient
       inkscape:collect="always"
       id="linearGradient4213-7">
      <stop
         style="stop-color:#ffffff;stop-opacity:1;"
         offset="0"
         id="stop4215-6" />
      <stop
         style="stop-color:#ffffff;stop-opacity:0;"
         offset="1"
         id="stop4217-5" />
    </linearGradient>
    <clipPath
       clipPathUnits="userSpaceOnUse"
       id="clipPath4156-4">
      <path
         style="opacity:0.6;fill:#ffffff;fill-opacity:1;stroke:none"
         d="m 27.046336,-55.695463 -14.21366,13.321486 0.06127,0 15.653407,21.770763 10.231384,-10.546177 C 38.561832,-32.30156 27.468089,-54.819245 27.046336,-55.695463 z M 9.6468554,-39.382809 -5.2407289,-25.32124 15.987863,-7.8059573 26.372412,-18.382966 9.6468554,-39.382809 z m 31.4906096,12.951445 -9.741259,9.713584 8.944804,12.4580526 7.780753,-7.5550056 -6.984298,-14.616631 z m -49.8397109,4.378822 -13.7541661,12.9822847 26.2830181,13.84571 0.06127,-0.0617 -0.122531,-0.0617 L 13.598503,-5.4007374 -8.7022409,-22.052595 z m 38.0154159,7.400825 -9.802525,9.7752596 11.579232,9.5594001 7.62759,-7.40083 -8.669108,-11.0087257 -0.735189,-0.925104 z m 20.187073,5.6739697 -7.382526,7.2158 6.187844,8.54179 5.820249,-6.13651996 -4.625567,-9.62107004 z m -32.195166,6.32154 -9.5574606,9.49772 13.6622686,7.1849703 7.933918,-7.6783603 -12.038726,-9.00433 z m 23.311629,2.37443004 -7.10683,6.93826996 8.362778,6.9074403 5.360756,-5.6739699 -0.06127,-0.0925 -0.0919,0.12335 -6.463539,-8.20258036 z m -8.730374,8.54178036 -7.505057,7.3391599 10.353916,5.45811 c 1.397496,-1.32103 5.67514,-6.12292 5.850882,-6.32154 L 31.886332,8.2600031 z"
         id="path4158-0"
         inkscape:connector-curvature="0" />
    </clipPath>
    <linearGradient
       inkscape:collect="always"
       xlink:href="#linearGradient3888-8-4-8-4-6-9-0-8-7-9"
       id="linearGradient4112"
       gradientUnits="userSpaceOnUse"
       gradientTransform="matrix(1.1376233,0,0,1.1422854,-40.393161,-45.01103)"
       x1="45.99942"
       y1="42.063522"
       x2="76.197693"
       y2="29.454437" />
    <linearGradient
       inkscape:collect="always"
       xlink:href="#linearGradient3832-0-6-1-1"
       id="linearGradient4129"
       x1="1.5"
       y1="88.171875"
       x2="94.5"
       y2="88.171875"
       gradientUnits="userSpaceOnUse"
       gradientTransform="matrix(0.99656771,0,0,0.99506529,-33.374359,-41.268578)" />
    <radialGradient
       inkscape:collect="always"
       xlink:href="#linearGradient4133"
       id="radialGradient4139"
       cx="13.948145"
       cy="44.892843"
       fx="13.948145"
       fy="44.892843"
       r="43.199203"
       gradientTransform="matrix(0.97178685,0,0,0.04894798,0.40798707,38.502516)"
       gradientUnits="userSpaceOnUse" />
    <radialGradient
       inkscape:collect="always"
       xlink:href="#linearGradient4133"
       id="radialGradient4143"
       gradientUnits="userSpaceOnUse"
       gradientTransform="matrix(0.88394298,0,0,0.04902188,-10.685753,-57.022611)"
       cx="13.948145"
       cy="44.892843"
       fx="13.948145"
       fy="44.892843"
       r="43.199203" />
    <radialGradient
       inkscape:collect="always"
       xlink:href="#linearGradient906"
       id="radialGradient908"
       cx="-11.666025"
       cy="1.762298"
       fx="-11.666025"
       fy="1.762298"
       r="43.785174"
       gradientTransform="matrix(-1.0968166,1.2379051,-1.0343038,-0.91365925,-23.286686,-5.8152774)"
       gradientUnits="userSpaceOnUse" />
  </defs>
  <sodipodi:namedview
     id="base"
     pagecolor="#ffffff"
     bordercolor="#666666"
     borderopacity="1.0"
     inkscape:pageopacity="0.0"
     inkscape:pageshadow="2"
     inkscape:zoom="4"
     inkscape:cx="40.434313"
     inkscape:cy="44.039604"
     inkscape:current-layer="g5148"
     showgrid="true"
     inkscape:grid-bbox="true"
     inkscape:document-units="px"
     inkscape:window-width="1280"
     inkscape:window-height="976"
     inkscape:window-x="0"
     inkscape:window-y="20"
     inkscape:window-maximized="1"
     showguides="true"
     inkscape:guide-bbox="true">
    <sodipodi:guide
       orientation="0,1"
       position="74,7.75"
       id="guide4116"
       inkscape:locked="false" />
  </sodipodi:namedview>
  <metadata
     id="metadata5028">
    <rdf:RDF>
      <cc:Work
         rdf:about="">
        <dc:format>image/svg+xml</dc:format>
        <dc:type
           rdf:resource="http://purl.org/dc/dcmitype/StillImage" />
        <dc:title />
      </cc:Work>
    </rdf:RDF>
  </metadata>
  <g
     id="layer1"
     inkscape:label="Layer 1"
     inkscape:groupmode="layer"
     transform="translate(0,80)">
    <g
       id="g5148"
       transform="matrix(1.0034441,0,0,1.0049592,33.489303,-38.526762)">
      <g
         id="g5766"
         transform="matrix(0.88387919,0,0,0.83393165,-3.5257642,5.0081212)" />
      <path
         style="opacity:0.15;fill:#000000;fill-opacity:1;fill-rule:nonzero;stroke:none;display:inline"
         d="m 55.462534,-41.268579 -82.003291,0 c -3.78581,0 -6.8336,3.043193 -6.8336,6.823302 l 0,81.87966 c 0,3.780111 3.04779,6.823304 6.8336,6.823304 l 82.003291,0 c 3.785819,0 6.833607,-3.043193 6.833607,-6.823304 l 0,-81.87966 c 0,-3.780109 -3.047788,-6.823302 -6.833607,-6.823302 z"
         id="path3288"
         inkscape:connector-curvature="0" />
      <path
         inkscape:connector-curvature="0"
         id="path4085"
         d="m 54.821885,-40.52228 -80.721993,0 c -3.726657,0 -6.726825,2.995643 -6.726825,6.716688 l 0,80.60029 c 0,3.721047 3.000168,6.71669 6.726825,6.71669 l 80.721993,0 c 3.726665,0 6.726832,-2.995643 6.726832,-6.71669 l 0,-80.60029 c 0,-3.721045 -3.000167,-6.716688 -6.726832,-6.716688 z"
         style="opacity:0.15;fill:#000000;fill-opacity:1;fill-rule:nonzero;stroke:none;display:inline" />
      <path
         inkscape:connector-curvature="0"
         id="rect4251-1"
         d="m 54.18123,-39.775981 h -79.44068 c -3.667512,0 -6.620057,2.948093 -6.620057,6.610075 v 79.320921 c 0,3.661981 2.952545,6.610074 6.620057,6.610074 h 79.44068 c 3.667512,0 6.620057,-2.948093 6.620057,-6.610074 v -79.320921 c 0,-3.661982 -2.952545,-6.610075 -6.620057,-6.610075 z"
         style="display:inline;fill:url(#linearGradient4071);fill-opacity:1;fill-rule:nonzero;stroke:none;stroke-width:0.97178686" />
      <path
         sodipodi:nodetypes="sscccsccscccsss"
         inkscape:connector-curvature="0"
         id="path3400-6"
         d="m -25.259446,-38.674301 c -3.075348,0 -5.516714,2.437688 -5.516714,5.508396 v 22.825416 7.7117539 42.5179321 c 1.181305,1.794391 3.196306,2.99519 5.516714,2.99519 h 4.413371 70.613939 4.413371 c 2.320407,0 4.335409,-1.200799 5.516714,-2.99519 V -2.6287351 -10.340489 -33.165905 c 0,-3.070708 -2.441366,-5.508396 -5.516714,-5.508396 z"
         style="display:inline;opacity:0.2;fill:url(#radialGradient4073);fill-opacity:1;fill-rule:nonzero;stroke:none;stroke-width:1.10251069" />
      <path
         inkscape:connector-curvature="0"
         id="path4236-5"
         d="m -25.259446,-39.775981 c -3.667512,0 -6.620057,2.948093 -6.620057,6.610076 v 16.525188 h 1.103343 v -16.525188 c 0,-3.070708 2.441366,-5.508396 5.516714,-5.508396 h 79.440681 c 3.075348,0 5.516714,2.437688 5.516714,5.508396 v 16.525188 h 1.103343 v -16.525188 c 0,-3.661983 -2.952545,-6.610076 -6.620057,-6.610076 z"
         style="display:inline;opacity:0.45;fill:url(#radialGradient4075);fill-opacity:1;fill-rule:nonzero;stroke:none;stroke-width:1.10251069" />
      <path
         id="path4970"
         d="m -24.489313,-36.170028 h 78.352418 c 2.553368,0 4.608966,2.005061 4.608966,4.495653 v 69.682594 c 0,2.490591 -2.055598,4.495651 -4.608966,4.495651 h -78.352418 c -2.553366,0 -4.608964,-2.00506 -4.608964,-4.495651 v -69.682594 c 0,-2.490592 2.055598,-4.495653 4.608964,-4.495653 z"
         style="color:#000000;display:inline;overflow:visible;visibility:visible;fill:url(#radialGradient908);fill-opacity:1;fill-rule:nonzero;stroke:none;stroke-width:1.94357371;marker:none;enable-background:accumulate"
         inkscape:connector-curvature="0"
         sodipodi:nodetypes="sssssssss" />
      <path
         style="opacity:0.87272728;fill:#ffffff;fill-opacity:0.74693879;stroke:none;stroke-width:1.52343583"
         d="m 14.337081,-26.352021 c -9.8401252,0 -19.2850118,9.714712 -19.2850118,21.7324228 0,3.66364464 2.2070378,6.6774286 3.7109789,9.7097224 2.104394,4.2429562 4.1016527,8.0996328 7.9308921,10.1021588 -0.6182534,0.691524 -1.2903068,1.583931 -2.0752904,2.88081 -1.3766499,2.274376 0.1456482,2.49185 -3.2900927,3.638916 -10.3322901,3.449561 -20.5504341,7.161108 -20.5504341,10.61351 0,1.189239 -3.267698,2.945273 -1.417271,3.790539 5.141706,2.348708 20.93183333,2.678646 34.267594,2.678646 13.48977,0 30.379368,0.08108 35.431781,-2.324864 1.739846,-0.828508 -1.127194,-3.460921 -1.720972,-4.447564 -1.766988,-2.936089 -6.646758,-6.469963 -19.234396,-8.288645 -0.807754,-0.116704 -3.538098,-1.723815 -4.757982,-5.711079 -0.407427,-1.331702 -0.911578,-2.224007 -1.467887,-2.88081 3.861278,-2.114835 5.656954,-5.8965507 7.645628,-10.3765338 1.312959,-2.9577657 3.540691,-6.1369604 3.540691,-9.6375099 0,-12.0177093 -8.888102,-21.4797193 -18.728228,-21.4797193 z"
         id="path5000"
         inkscape:connector-curvature="0"
         sodipodi:nodetypes="ssscssssssssscsss" />
      <path
         style="fill:#444444;fill-opacity:0.73061224;stroke-width:1.52343583"
         d="m 15.197568,-27.767156 c -6.0405064,0.03523 -11.3329121,3.709027 -14.3245625,9.198375 3.0934968,-4.586957 7.929279,-7.549378 13.3628425,-7.581078 0.01012,0 0.192306,0 0.202468,0 9.102379,0.125997 16.440991,8.453589 16.703554,18.9526938 0.0081,0.2906236 0.130405,0.5711342 0.354317,0.7581075 0.637078,0.5385733 0.911103,1.2464939 0.911103,2.173242 0,0.9422339 -0.309733,2.0128408 -0.860487,3.133512 1.168187,-1.7055523 1.872823,-3.3594013 1.872823,-4.7508075 0,-0.926748 -0.324642,-1.6346702 -0.96172,-2.173242 C 32.233999,-8.243328 32.11179,-8.5238386 32.103589,-8.8144622 31.841027,-19.313565 24.502414,-27.641156 15.400036,-27.767156 c -0.01012,0 -0.192338,0 -0.202468,0 z m -16.2480019,8.389727 c -1.9336277,2.988824 -3.1800683,6.558274 -3.5431783,10.4618863 0.2555253,-0.3143549 0.5598945,-0.6520386 0.9111032,-0.909729 0.2232628,-3.4975403 1.1262418,-6.7247643 2.6320751,-9.5521573 z m -1.5691224,11.3210758 c -0.5104771,0.4149027 -0.8045383,0.9197073 -0.9111032,1.566756 0.1168192,-0.090672 0.2157382,-0.1702645 0.3543186,-0.2527035 0.2951316,-0.1768194 0.4919238,-0.517754 0.5061681,-0.859188 0.00675,-0.1536359 0.040897,-0.3022199 0.05062,-0.4548645 z m -2.733308,0.505404 c -0.8117334,0.8659638 -1.2654218,1.9587416 -1.2654218,3.2851335 0,2.4042664 1.3621725,5.24633449 3.7456458,7.884321 C -1.2259938,8.13641 1.3266709,12.11082 4.3655657,14.88904 4.1984215,15.564892 3.9999839,16.201228 3.7075481,16.80958 4.4928707,15.75984 5.055921,14.573683 5.3779035,13.271743 2.3390072,10.493523 -0.21365606,6.519113 -1.8603041,2.0012083 c -2.3834718,-2.6379865 -3.7456443,-5.480053 -3.7456443,-7.8843195 0,-0.6024057 0.084478,-1.1591301 0.2530841,-1.667838 z M 33.318393,-0.07095173 C 33.109339,0.23952265 32.89845,0.52977095 32.660374,0.83877726 32.605783,1.008111 32.565744,1.176075 32.50853,1.3441828 32.814375,0.87494782 33.081665,0.39495509 33.318401,-0.07095173 Z m -2.632075,0.4548645 c -0.220515,0.32843026 -0.449039,0.63006443 -0.708636,0.96027003 -0.07537,0.095515 -0.113261,0.237938 -0.151858,0.3537825 -0.591932,1.8736131 -1.329242,3.6485204 -2.22714,5.3067539 1.254281,-1.9929507 2.308474,-4.2422539 3.087626,-6.62080643 z M 29.21843,8.2176927 c -1.37102,2.1506413 -2.925181,4.0242353 -4.656749,5.5089153 0.04698,0.188362 0.09508,0.372811 0.151859,0.555946 1.693107,-1.683319 3.223776,-3.754453 4.504898,-6.0648613 z m -6.782656,5.4078343 c -0.208141,0.183706 -0.445633,0.385248 -0.658019,0.555947 -0.293089,0.235751 -0.423536,0.592413 -0.354317,0.960268 0.565833,2.948932 2.449601,6.983538 8.250544,9.501618 0.685931,0.29672 1.788748,0.518022 3.138243,0.808649 5.041709,1.089336 13.469348,2.947227 15.539366,10.664049 0.122033,0.45321 0.51392,0.758107 0.96172,0.758107 0.08748,0 0.163456,-0.0282 0.253084,-0.05053 0.543447,-0.146338 0.903758,-0.720877 0.759252,-1.263513 -0.02874,-0.107124 -0.07045,-0.198088 -0.101239,-0.303243 -0.426404,-0.02302 -0.794016,-0.323268 -0.911103,-0.758107 C 47.243286,26.781952 38.815648,24.924059 33.773938,23.834723 32.424443,23.544096 31.372243,23.322796 30.686312,23.026074 24.952105,20.536964 23.025567,16.56507 22.435768,13.625538 Z M 5.3272854,18.022552 c -1.2685715,1.694215 -3.224163,3.342183 -6.12463526,4.599188 -0.65540154,0.282497 -1.65958434,0.505829 -2.93577714,0.808648 -4.5433817,1.080641 -11.775788,2.83741 -14.780114,8.743509 3.400917,-4.63163 9.7155684,-6.150358 13.8183943,-7.126213 1.2761928,-0.302818 2.2803756,-0.52615 2.9357771,-0.808649 3.8245486,-1.65748 5.9201896,-3.980503 7.086355,-6.216483 z M -20.335446,31.213627 c -0.88217,1.250113 -1.572809,2.662939 -2.024674,4.346484 -0.144467,0.542637 0.165088,1.117184 0.708636,1.263513 0.545487,0.136152 1.122957,-0.16697 1.26542,-0.707566 0.08877,-0.330698 0.192649,-0.649943 0.303702,-0.96027 -0.185454,0.06394 -0.402843,0.101599 -0.607403,0.05053 -0.543547,-0.146323 -0.8531,-0.720876 -0.708635,-1.263513 0.269478,-1.004014 0.629397,-1.884656 1.062954,-2.729187 z"
         id="path3437"
         inkscape:connector-curvature="0" />
      <path
         id="path5008"
         d="m -20.677353,36.38351 c 0.545488,0.138619 1.103199,-0.182091 1.245663,-0.732466 2.096486,-7.951583 10.6167261,-10.012416 15.709354,-11.245604 1.2761928,-0.308295 2.2837216,-0.55245 2.93912313,-0.840059 C 5.0177317,21.005899 6.9086341,16.88837 7.4744692,13.884027 7.5435516,13.521933 7.4154616,13.149494 7.1386257,12.905338 4.1180742,10.25481 1.5697323,6.2759172 -0.03824338,1.6990489 -0.0830818,1.568663 -0.15421909,1.4486867 -0.24788753,1.3452301 -2.3749016,-1.0052762 -3.5961582,-3.490276 -3.5961582,-5.4704121 c 0,-1.1566329 0.4294735,-1.9325464 1.3963089,-2.5181056 0.2951331,-0.1800158 0.4803492,-0.496585 0.4945935,-0.844194 0.4498379,-10.5400383 7.8343301,-18.8371623 16.8919228,-18.8909573 0.0097,0 0.207621,0.01438 0.217783,0.01438 9.102387,0.128282 16.440064,8.603352 16.702626,19.2923659 0.008,0.2958799 0.138441,0.5731426 0.362298,0.7634985 0.637076,0.548314 0.934255,1.2435351 0.934255,2.1870464 0,1.6573587 -0.869122,3.6954276 -2.444525,5.73557 -0.0754,0.0972408 -0.132323,0.2089792 -0.170946,0.32691981 C 29.159841,5.8433674 26.23698,10.476101 22.772693,13.310779 c -0.29308,0.240016 -0.4315,0.624871 -0.362282,0.999381 0.565835,3.002272 2.45673,7.11773 8.257673,9.681357 0.68594,0.302087 1.750449,0.537966 3.099932,0.833851 5.041717,1.109041 13.478503,2.969169 15.548512,10.825573 0.122033,0.46141 0.533292,0.765569 0.981078,0.765569 0.08747,0 0.174982,-0.01241 0.264604,-0.03519 0.543452,-0.148986 0.865055,-0.715913 0.720541,-1.268362 -2.391611,-9.077177 -11.94992,-11.181464 -17.083236,-12.311196 -1.19071,-0.262776 -2.218607,-0.488306 -2.71929,-0.711769 -3.78589,-1.671845 -6.118479,-4.218915 -6.942822,-7.583282 3.515161,-3.06849 6.456349,-7.8026084 8.137597,-13.1119413 1.785051,-2.35878503 2.766129,-4.7879164 2.766129,-6.863232 0,-1.3842323 -0.439651,-2.5387963 -1.310816,-3.4409261 C 33.645884,-20.504511 25.506261,-29.635485 15.404483,-29.782392 l -0.303268,-0.0038 c -9.9185718,0.05379 -18.0928059,8.944774 -18.8072457,20.3393534 -1.2741503,0.951787 -1.9214322,2.2863607 -1.9214322,3.9809615 0,2.4477547 1.3617002,5.37554596 3.745172,8.0612478 1.64664653,4.5996264 4.1990537,8.6405943 7.2379469,11.4690663 -0.8202717,3.376785 -3.1549104,5.932133 -6.9489185,7.606042 -0.4905283,0.217254 -1.4675305,0.455202 -2.5992176,0.728325 -5.1719921,1.24974 -14.7954299,3.577488 -17.2053729,12.718807 -0.144467,0.552453 0.176994,1.117322 0.720542,1.266296 z"
         inkscape:connector-curvature="0"
         style="fill:#fefefe;fill-opacity:0.75102042;stroke-width:1.52343583" />
      <path
         style="color:#000000;font-style:normal;font-variant:normal;font-weight:normal;font-stretch:normal;font-size:medium;line-height:normal;font-family:Sans;-inkscape-font-specification:Sans;text-indent:0;text-align:start;text-decoration:none;text-decoration-line:none;letter-spacing:normal;word-spacing:normal;text-transform:none;writing-mode:lr-tb;direction:ltr;baseline-shift:baseline;text-anchor:start;display:inline;overflow:visible;visibility:visible;fill:#000000;fill-opacity:0.87148593;stroke:none;stroke-width:2.30847979;marker:none;enable-background:accumulate"
         d="m -23.583001,-36.562457 c -3.105924,0 -5.648511,2.526979 -5.648511,5.618143 v 68.936127 c 0,3.091166 2.542587,5.618143 5.648511,5.618143 h 76.528215 c 3.105924,0 5.648511,-2.526977 5.648511,-5.618143 v -68.936127 c 0,-3.091164 -2.542587,-5.618143 -5.648511,-5.618143 z m 0,2.307994 h 76.528215 c 1.881618,0 3.340517,1.47279 3.340517,3.310149 v 68.936127 c 0,1.837362 -1.458899,3.310149 -3.340517,3.310149 h -76.528215 c -1.881618,0 -3.340517,-1.472787 -3.340517,-3.310149 v -68.936127 c 0,-1.837359 1.458899,-3.310149 3.340517,-3.310149 z"
         id="path4989"
         inkscape:connector-curvature="0" />
      <path
         inkscape:connector-curvature="0"
         id="path4118"
         d="m -31.879507,40.171297 v 5.970392 c 0,3.661981 2.965892,6.623403 6.633403,6.623403 h 79.41399 c 3.667511,0 6.633404,-2.961422 6.633404,-6.623403 v -5.970392 c 0,3.661981 -2.965893,6.623403 -6.633404,6.623403 h -79.41399 c -3.667511,0 -6.633403,-2.961422 -6.633403,-6.623403 z"
         style="display:inline;opacity:0.65;fill:url(#linearGradient4129);fill-opacity:1;fill-rule:nonzero;stroke:none;stroke-width:0.99581623" />
      <rect
         ry="4.2290273"
         rx="0"
         y="38.585407"
         x="-28.017807"
         height="4.2290273"
         width="83.960838"
         id="rect4131"
         style="opacity:0.55;fill:url(#radialGradient4139);fill-opacity:1;stroke:none;stroke-width:0.97178686" />
      <rect
         transform="rotate(90)"
         style="opacity:0.55;fill:url(#radialGradient4143);fill-opacity:1;stroke:none;stroke-width:0.97178686"
         id="rect4141"
         width="76.371262"
         height="4.2354131"
         x="-36.542019"
         y="-56.939594"
         rx="0"
         ry="4.2354131" />
      <rect
         clip-path="url(#clipPath4156-4)"
         ry="3.9569881"
         rx="3.9569874"
         y="-30"
         x="2"
         height="92"
         width="92"
         id="rect4146"
         style="opacity:0.48999999;fill:url(#linearGradient4767);fill-opacity:1;stroke:none"
         transform="matrix(0.9061837,0,0,0.92379606,-29.044165,-6.9439806)" />
    </g>
  </g>
</svg>
