<?xml version="1.0" encoding="UTF-8" standalone="no"?>
<!-- Created with Inkscape (http://www.inkscape.org/) -->

<svg
   xmlns:dc="http://purl.org/dc/elements/1.1/"
   xmlns:cc="http://creativecommons.org/ns#"
   xmlns:rdf="http://www.w3.org/1999/02/22-rdf-syntax-ns#"
   xmlns:svg="http://www.w3.org/2000/svg"
   xmlns="http://www.w3.org/2000/svg"
   xmlns:xlink="http://www.w3.org/1999/xlink"
   xmlns:sodipodi="http://sodipodi.sourceforge.net/DTD/sodipodi-0.dtd"
   xmlns:inkscape="http://www.inkscape.org/namespaces/inkscape"
   version="1.0"
   width="96"
   height="96"
   id="svg2408"
   inkscape:version="0.48.5 r10040"
   sodipodi:docname="dialog-question.svg">
  <sodipodi:namedview
     pagecolor="#ffffff"
     bordercolor="#666666"
     borderopacity="1"
     objecttolerance="10"
     gridtolerance="10"
     guidetolerance="10"
     inkscape:pageopacity="0"
     inkscape:pageshadow="2"
     inkscape:window-width="1280"
     inkscape:window-height="966"
     id="namedview67"
     showgrid="false"
     inkscape:zoom="1.8005371"
     inkscape:cx="-73.121103"
     inkscape:cy="47.791729"
     inkscape:window-x="0"
     inkscape:window-y="0"
     inkscape:window-maximized="1"
     inkscape:current-layer="layer3" />
  <defs
     id="defs2410">
    <linearGradient
       id="linearGradient3731">
      <stop
         id="stop3733"
         style="stop-color:#dcdcdc;stop-opacity:1"
         offset="0" />
      <stop
         id="stop3757"
         style="stop-color:#ebebeb;stop-opacity:1"
         offset="0.30654153" />
      <stop
         id="stop3737"
         style="stop-color:#ffffff;stop-opacity:1"
         offset="0.70706075" />
      <stop
         id="stop3759"
         style="stop-color:#fafafa;stop-opacity:1"
         offset="0.84501493" />
      <stop
         id="stop3735"
         style="stop-color:#f0f0f0;stop-opacity:1"
         offset="1" />
    </linearGradient>
    <linearGradient
       id="linearGradient2881">
      <stop
         id="stop2883"
         style="stop-color:#1e57ae;stop-opacity:1"
         offset="0" />
      <stop
         id="stop2885"
         style="stop-color:#7da8e9;stop-opacity:1"
         offset="1" />
    </linearGradient>
    <linearGradient
       x1="45.447727"
       y1="92.539597"
       x2="45.447727"
       y2="7.0165396"
       id="ButtonShadow"
       gradientUnits="userSpaceOnUse"
       gradientTransform="scale(1.0058652,0.994169)">
      <stop
         id="stop3750"
         style="stop-color:#000000;stop-opacity:1"
         offset="0" />
      <stop
         id="stop3752"
         style="stop-color:#000000;stop-opacity:0.58823532"
         offset="1" />
    </linearGradient>
    <linearGradient
       id="linearGradient3737">
      <stop
         id="stop3739"
         style="stop-color:#ffffff;stop-opacity:1"
         offset="0" />
      <stop
         id="stop3741"
         style="stop-color:#ffffff;stop-opacity:0"
         offset="1" />
    </linearGradient>
    <filter
       color-interpolation-filters="sRGB"
       id="filter3174">
      <feGaussianBlur
         id="feGaussianBlur3176"
         stdDeviation="1.71" />
    </filter>
    <linearGradient
       x1="36.357143"
       y1="6"
       x2="36.357143"
       y2="63.893143"
       id="linearGradient3188"
       xlink:href="#linearGradient3737"
       gradientUnits="userSpaceOnUse" />
    <filter
       x="-0.192"
       y="-0.192"
       width="1.3839999"
       height="1.3839999"
       color-interpolation-filters="sRGB"
       id="filter3794">
      <feGaussianBlur
         id="feGaussianBlur3796"
         stdDeviation="5.28" />
    </filter>
    <linearGradient
       x1="48"
       y1="20.220806"
       x2="48"
       y2="138.66119"
       id="linearGradient3613"
       xlink:href="#linearGradient3737"
       gradientUnits="userSpaceOnUse" />
    <radialGradient
       cx="48"
       cy="90.171875"
       r="42"
       fx="48"
       fy="90.171875"
       id="radialGradient3619"
       xlink:href="#linearGradient3737"
       gradientUnits="userSpaceOnUse"
       gradientTransform="matrix(1.1573129,0,0,0.99590774,-7.5510206,0.19713193)" />
    <clipPath
       id="clipPath3613">
      <rect
         width="84"
         height="84"
         rx="6"
         ry="6"
         x="6"
         y="6"
         id="rect3615"
         style="fill:#ffffff;fill-opacity:1;fill-rule:nonzero;stroke:none" />
    </clipPath>
    <linearGradient
       x1="48"
       y1="90"
       x2="48"
       y2="5.9877172"
       id="linearGradient3617"
       xlink:href="#linearGradient2881"
       gradientUnits="userSpaceOnUse" />
    <linearGradient
       x1="48.082497"
       y1="75.561722"
       x2="46.654823"
       y2="16.972879"
       id="linearGradient4886"
       xlink:href="#linearGradient3731"
       gradientUnits="userSpaceOnUse"
       gradientTransform="translate(0,5)" />
    <linearGradient
       x1="45.447727"
       y1="92.539597"
       x2="45.447727"
       y2="7.0165396"
       id="ButtonShadow-0"
       gradientUnits="userSpaceOnUse"
       gradientTransform="matrix(1.0058652,0,0,0.994169,100,0)">
      <stop
         id="stop3750-8"
         style="stop-color:#000000;stop-opacity:1"
         offset="0" />
      <stop
         id="stop3752-5"
         style="stop-color:#000000;stop-opacity:0.58823532"
         offset="1" />
    </linearGradient>
    <linearGradient
       x1="32.251034"
       y1="6.1317081"
       x2="32.251034"
       y2="90.238609"
       id="linearGradient3780"
       xlink:href="#ButtonShadow-0"
       gradientUnits="userSpaceOnUse"
       gradientTransform="matrix(1.0238095,0,0,1.0119048,-1.1428571,-98.071429)" />
    <linearGradient
       x1="32.251034"
       y1="6.1317081"
       x2="32.251034"
       y2="90.238609"
       id="linearGradient3772"
       xlink:href="#ButtonShadow-0"
       gradientUnits="userSpaceOnUse"
       gradientTransform="matrix(1.0238095,0,0,1.0119048,-1.1428571,-98.071429)" />
    <linearGradient
       x1="32.251034"
       y1="6.1317081"
       x2="32.251034"
       y2="90.238609"
       id="linearGradient3725"
       xlink:href="#ButtonShadow-0"
       gradientUnits="userSpaceOnUse"
       gradientTransform="matrix(1.0238095,0,0,1.0119048,-1.1428571,-98.071429)" />
    <linearGradient
       x1="32.251034"
       y1="6.1317081"
       x2="32.251034"
       y2="90.238609"
       id="linearGradient3721"
       xlink:href="#ButtonShadow-0"
       gradientUnits="userSpaceOnUse"
       gradientTransform="translate(0,-97)" />
    <linearGradient
       x1="32.251034"
       y1="6.1317081"
       x2="32.251034"
       y2="90.238609"
       id="linearGradient2918"
       xlink:href="#ButtonShadow-0"
       gradientUnits="userSpaceOnUse"
       gradientTransform="matrix(1.0238095,0,0,1.0119048,-1.1428571,-98.071429)" />
    <clipPath
       id="clipPath4157"
       clipPathUnits="userSpaceOnUse">
      <path
         style="fill:#f9f8f2;fill-opacity:1;stroke-width:1.00658333"
         inkscape:connector-curvature="0"
         id="path4159"
         d="m 27.642964,3.2951379 13.085584,13.0855841 -11.072418,0 c -0.977824,0 -2.013166,-1.035372 -2.013166,-2.013167 l 0,-11.0724171 z" />
    </clipPath>
    <linearGradient
       y2="22.252237"
       x2="48.640831"
       y1="22.252237"
       x1="47.056839"
       gradientTransform="matrix(1.0233135,0,0,0.991319,-19.522111,9.636111)"
       gradientUnits="userSpaceOnUse"
       id="linearGradient3355"
       xlink:href="#linearGradient13484"
       inkscape:collect="always" />
    <linearGradient
       id="linearGradient3325">
      <stop
         offset="0"
         style="stop-color:#778aa6;stop-opacity:1"
         id="stop3327" />
      <stop
         offset="1"
         style="stop-color:#a0afc5;stop-opacity:1"
         id="stop3329" />
    </linearGradient>
    <linearGradient
       gradientTransform="scale(0.99771653,1.0022887)"
       gradientUnits="userSpaceOnUse"
       xlink:href="#linearGradient3742"
       id="linearGradient4484"
       y2="15.617862"
       x2="57.801022"
       y1="69.276306"
       x1="57.801022" />
    <linearGradient
       id="linearGradient3742">
      <stop
         offset="0"
         style="stop-color:#778aa6;stop-opacity:1"
         id="stop3744" />
      <stop
         offset="1"
         style="stop-color:#a0afc5;stop-opacity:1"
         id="stop3746" />
    </linearGradient>
    <linearGradient
       gradientTransform="scale(0.99771653,1.0022887)"
       gradientUnits="userSpaceOnUse"
       xlink:href="#linearGradient3742"
       id="linearGradient4458"
       y2="15.617862"
       x2="57.801022"
       y1="69.276306"
       x1="57.801022" />
    <radialGradient
       gradientUnits="userSpaceOnUse"
       gradientTransform="matrix(1,0,0,1.0063099,0,-0.30287626)"
       r="29.315023"
       fy="48"
       fx="47.815025"
       cy="48"
       cx="47.815025"
       id="radialGradient4137"
       xlink:href="#linearGradient4360"
       inkscape:collect="always" />
    <linearGradient
       id="linearGradient4360">
      <stop
         offset="0"
         style="stop-color:#1af900;stop-opacity:1;"
         id="stop4362" />
      <stop
         id="stop4135"
         style="stop-color:#0dbb02;stop-opacity:1;"
         offset="0.5" />
      <stop
         offset="1"
         style="stop-color:#007e04;stop-opacity:1;"
         id="stop4364" />
    </linearGradient>
    <linearGradient
       gradientTransform="matrix(0.7525584,0,0,0.8008702,1.2389688,-3.2556953)"
       gradientUnits="userSpaceOnUse"
       xlink:href="#linearGradient4360"
       id="linearGradient3759"
       y2="24.043467"
       x2="62.136082"
       y1="103.95654"
       x1="62.136082" />
    <filter
       id="filter3798"
       color-interpolation-filters="sRGB">
      <feGaussianBlur
         stdDeviation="1.7644507"
         id="feGaussianBlur3800" />
    </filter>
    <clipPath
       id="clipPath3794">
      <path
         style="fill:#ff00ff;fill-opacity:1;fill-rule:nonzero;stroke:none"
         id="path3796"
         inkscape:connector-curvature="0"
         d="m -98,6 c -3.324,0 -6,2.676 -6,6 l 0,72 c 0,3.324 2.676,6 6,6 l 72,0 c 3.324,0 6,-2.676 6,-6 l 0,-72 c 0,-3.324 -2.676,-6 -6,-6 l -72,0 z m 46.03125,12.5 c 2.804915,0.267979 4.168695,1.994294 5.65625,4.375 l 2.21875,4.21875 3.5,-2.34375 -6.5625,12.375 -14.0625,0.03125 4.40625,-2.5625 c -1.242015,-3.116045 -2.893578,-6.682146 -4.96875,-9.78125 -1.857877,-2.774583 -4.111923,-5.19971 -5.8125,-6.28125 L -51.96875,18.5 z M -72.3125,20 c 4.13398,0.08768 6.75215,3.937752 8.53125,6.5625 l -5.4375,11.15625 -12,-8.03125 5.8125,-9.09375 C -74.283247,20.148648 -73.266495,19.97977 -72.3125,20 z M -38.34375,36.15625 -32.875,48 c 0.177104,2.984596 -4.345754,7.126059 -7.15625,7.09375 l -4.8125,-0.03125 -5.59375,-11.125 12.09375,-7.78125 z M -78.4375,39.1875 -70.96875,50.8125 -74.75,48.84375 -80.78125,61.75 c -0.850549,2.429145 -0.908893,4.937462 0.0625,7.28125 -6.79777,-9.441049 -12.538331,-14.172415 -8,-23.875 L -87.3125,42.1875 -91.5,39.90625 -78.4375,39.1875 z m 25.65625,13.90625 0.03125,4.46875 13.5625,-0.03125 c 2.422356,-0.273241 4.555757,-1.310685 6.09375,-3.28125 -4.908571,10.685489 -6.315635,18.2454 -16.5,18.25 l -3.15625,0 -0.03125,5 -6.4375,-12.125 6.4375,-12.28125 z m -10.15625,4 -0.09375,15 -12.34375,0 c -2.589165,-1.162418 -4.061887,-7.337428 -2.78125,-10 l 2.1875,-4.53125 13.03125,-0.46875 z" />
    </clipPath>
    <linearGradient
       id="linearGradient3778">
      <stop
         offset="0"
         style="stop-color:#205e8a;stop-opacity:1;"
         id="stop3780" />
      <stop
         offset="1"
         style="stop-color:#258dd6;stop-opacity:1;"
         id="stop3782" />
    </linearGradient>
    <linearGradient
       gradientUnits="userSpaceOnUse"
       xlink:href="#linearGradient3778"
       id="linearGradient3188-6"
       y2="72.785713"
       x2="90.714287"
       y1="72.785713"
       x1="51.42857" />
    <linearGradient
       id="linearGradient3737-2">
      <stop
         offset="0"
         style="stop-color:#ffffff;stop-opacity:1"
         id="stop3739-5" />
      <stop
         offset="1"
         style="stop-color:#ffffff;stop-opacity:0"
         id="stop3741-1" />
    </linearGradient>
    <linearGradient
       gradientTransform="matrix(0.83333333,0,0,0.83333333,-8.6666651,-6.3333307)"
       gradientUnits="userSpaceOnUse"
       xlink:href="#linearGradient3737-2"
       id="linearGradient3858"
       y2="43.780487"
       x2="65.262688"
       y1="64.205269"
       x1="65.262688" />
    <linearGradient
       id="linearGradient3344">
      <stop
         offset="0"
         style="stop-color:#000000;stop-opacity:1"
         id="stop3346" />
      <stop
         offset="1"
         style="stop-color:#000000;stop-opacity:0"
         id="stop3348" />
    </linearGradient>
    <linearGradient
       gradientTransform="matrix(0.83333333,0,0,0.83333333,-8.6666651,-5.3333307)"
       gradientUnits="userSpaceOnUse"
       xlink:href="#linearGradient3746"
       id="linearGradient3861"
       y2="43.591393"
       x2="65.262688"
       y1="86.849419"
       x1="65.262688" />
    <linearGradient
       id="linearGradient3337">
      <stop
         offset="0"
         style="stop-color:#000000;stop-opacity:1"
         id="stop3339" />
      <stop
         offset="1"
         style="stop-color:#000000;stop-opacity:0"
         id="stop3341" />
    </linearGradient>
    <linearGradient
       gradientTransform="matrix(0.83333333,0,0,0.83333333,-8.6666651,-5.3333307)"
       gradientUnits="userSpaceOnUse"
       xlink:href="#linearGradient3746"
       id="linearGradient3864"
       y2="42.399998"
       x2="65.599998"
       y1="86.849419"
       x1="65.262688" />
    <linearGradient
       id="linearGradient3746">
      <stop
         offset="0"
         style="stop-color:#000000;stop-opacity:1"
         id="stop3748" />
      <stop
         offset="1"
         style="stop-color:#000000;stop-opacity:0"
         id="stop3754" />
    </linearGradient>
    <linearGradient
       gradientTransform="matrix(0.83333333,0,0,0.83333333,-8.6666651,-5.3333307)"
       gradientUnits="userSpaceOnUse"
       xlink:href="#linearGradient3746"
       id="linearGradient3849"
       y2="42.399998"
       x2="65.599998"
       y1="86.849419"
       x1="65.262688" />
    <linearGradient
       y2="11.140625"
       x2="93.5"
       y1="11.140625"
       x1="2.5"
       gradientTransform="translate(-17.652364,-22.601697)"
       gradientUnits="userSpaceOnUse"
       id="linearGradient4555"
       xlink:href="#linearGradient4160"
       inkscape:collect="always" />
    <radialGradient
       r="41.470058"
       fy="55.411221"
       fx="47.699135"
       cy="55.411221"
       cx="47.699135"
       gradientTransform="matrix(1.0772109,0,0,0.06481785,-21.162394,64.974669)"
       gradientUnits="userSpaceOnUse"
       id="radialGradient4553"
       xlink:href="#linearGradient4348"
       inkscape:collect="always" />
    <linearGradient
       y2="54.296875"
       x2="93.5"
       y1="54.296875"
       x1="2.5"
       gradientTransform="translate(-17.652364,-22.601697)"
       gradientUnits="userSpaceOnUse"
       id="linearGradient4549"
       xlink:href="#linearGradient4160"
       inkscape:collect="always" />
    <linearGradient
       y2="23.167999"
       x2="27.952002"
       y1="-69.456512"
       x1="53.8978"
       spreadMethod="reflect"
       gradientTransform="matrix(0.98921206,0,0,0.98706256,-17.134546,-9.704219)"
       gradientUnits="userSpaceOnUse"
       id="linearGradient4545"
       xlink:href="#linearGradient4135"
       inkscape:collect="always" />
    <radialGradient
       r="44.543999"
       fy="-16.128"
       fx="48"
       cy="-16.128"
       cx="48"
       gradientTransform="matrix(1,0,0,0.04885057,-16.372364,-3.861835)"
       gradientUnits="userSpaceOnUse"
       id="radialGradient4543"
       xlink:href="#linearGradient4050"
       inkscape:collect="always" />
    <linearGradient
       id="linearGradient4050"
       inkscape:collect="always">
      <stop
         id="stop4052"
         offset="0"
         style="stop-color:#ffffff;stop-opacity:1;" />
      <stop
         id="stop4054"
         offset="1"
         style="stop-color:#ffffff;stop-opacity:0;" />
    </linearGradient>
    <radialGradient
       gradientUnits="userSpaceOnUse"
       gradientTransform="matrix(1,0,0,0.04885057,-16.372364,-3.861835)"
       r="44.543999"
       fy="-16.128"
       fx="48"
       cy="-16.128"
       cx="48"
       id="radialGradient4056"
       xlink:href="#linearGradient4050"
       inkscape:collect="always" />
    <linearGradient
       id="linearGradient4135">
      <stop
         id="stop4137"
         offset="0"
         style="stop-color:#e3e9e9;stop-opacity:1;" />
      <stop
         id="stop4139"
         offset="0.21971546"
         style="stop-color:#eef2f2;stop-opacity:1;" />
      <stop
         id="stop4141"
         offset="0.47877571"
         style="stop-color:#f9fbfb;stop-opacity:1;" />
      <stop
         id="stop4143"
         offset="1"
         style="stop-color:#ffffff;stop-opacity:1;" />
    </linearGradient>
    <linearGradient
       y2="23.167999"
       x2="27.952002"
       y1="-69.456512"
       x1="53.8978"
       spreadMethod="reflect"
       gradientTransform="matrix(0.98921206,0,0,0.98706256,-17.134546,-9.704219)"
       gradientUnits="userSpaceOnUse"
       id="linearGradient4334"
       xlink:href="#linearGradient4135"
       inkscape:collect="always" />
    <linearGradient
       id="linearGradient13492"
       inkscape:collect="always">
      <stop
         id="stop13494"
         offset="0"
         style="stop-color:#516467;stop-opacity:1;" />
      <stop
         id="stop13496"
         offset="1"
         style="stop-color:#516467;stop-opacity:0;" />
    </linearGradient>
    <radialGradient
       gradientUnits="userSpaceOnUse"
       gradientTransform="matrix(0.00664983,-1.4155821,1.7836413,0.00815867,-2.7114916,65.575076)"
       r="17.263121"
       fy="10.81943"
       fx="34.164101"
       cy="10.81943"
       cx="34.164101"
       id="radialGradient13510"
       xlink:href="#linearGradient13492"
       inkscape:collect="always" />
    <linearGradient
       id="linearGradient3564">
      <stop
         style="stop-color:#000000;stop-opacity:0;"
         offset="0"
         id="stop3566" />
      <stop
         id="stop3568"
         offset="0.03175623"
         style="stop-color:#000000;stop-opacity:0.96470588;" />
      <stop
         id="stop3570"
         offset="0.09425623"
         style="stop-color:#000000;stop-opacity:0;" />
      <stop
         id="stop3572"
         offset="0.49595019"
         style="stop-color:#000000;stop-opacity:0;" />
      <stop
         id="stop3574"
         offset="0.90525883"
         style="stop-color:#000000;stop-opacity:0;" />
      <stop
         style="stop-color:#000000;stop-opacity:0.98823529;"
         offset="0.96241152"
         id="stop3576" />
      <stop
         style="stop-color:#000000;stop-opacity:0;"
         offset="1"
         id="stop3578" />
    </linearGradient>
    <linearGradient
       gradientTransform="translate(-17.652364,-22.601697)"
       gradientUnits="userSpaceOnUse"
       y2="54.296875"
       x2="93.5"
       y1="54.296875"
       x1="2.5"
       id="linearGradient4388"
       xlink:href="#linearGradient4160"
       inkscape:collect="always" />
    <linearGradient
       id="linearGradient13484">
      <stop
         id="stop13486"
         offset="0"
         style="stop-color:#849699;stop-opacity:1" />
      <stop
         id="stop13488"
         offset="1"
         style="stop-color:#0b0d0d;stop-opacity:0" />
    </linearGradient>
    <linearGradient
       gradientUnits="userSpaceOnUse"
       y2="22.252237"
       x2="48.640831"
       y1="22.252237"
       x1="47.056839"
       id="linearGradient13490"
       xlink:href="#linearGradient13484"
       inkscape:collect="always"
       gradientTransform="matrix(1.0000468,0,0,0.991319,-17.353732,9.636111)" />
    <linearGradient
       id="linearGradient4348"
       inkscape:collect="always">
      <stop
         id="stop4350"
         offset="0"
         style="stop-color:#000000;stop-opacity:1;" />
      <stop
         id="stop4352"
         offset="1"
         style="stop-color:#000000;stop-opacity:0;" />
    </linearGradient>
    <radialGradient
       gradientUnits="userSpaceOnUse"
       gradientTransform="matrix(1.0772109,0,0,0.06481785,-21.162394,64.974669)"
       r="41.470058"
       fy="55.411221"
       fx="47.699135"
       cy="55.411221"
       cx="47.699135"
       id="radialGradient4354"
       xlink:href="#linearGradient4348"
       inkscape:collect="always" />
    <linearGradient
       id="linearGradient4160">
      <stop
         style="stop-color:#000000;stop-opacity:0;"
         offset="0"
         id="stop4170" />
      <stop
         id="stop4186"
         offset="0.03175623"
         style="stop-color:#000000;stop-opacity:0.96470588;" />
      <stop
         id="stop4182"
         offset="0.09425623"
         style="stop-color:#000000;stop-opacity:0;" />
      <stop
         id="stop4180"
         offset="0.49595019"
         style="stop-color:#000000;stop-opacity:0;" />
      <stop
         id="stop4178"
         offset="0.90525883"
         style="stop-color:#000000;stop-opacity:0;" />
      <stop
         style="stop-color:#000000;stop-opacity:0.98823529;"
         offset="0.96241152"
         id="stop4184" />
      <stop
         style="stop-color:#000000;stop-opacity:0;"
         offset="1"
         id="stop4168" />
    </linearGradient>
    <linearGradient
       gradientTransform="translate(-17.652364,-22.601697)"
       gradientUnits="userSpaceOnUse"
       y2="11.140625"
       x2="93.5"
       y1="11.140625"
       x1="2.5"
       id="linearGradient4369"
       xlink:href="#linearGradient4160"
       inkscape:collect="always" />
    <radialGradient
       inkscape:collect="always"
       xlink:href="#linearGradient3778"
       id="radialGradient4287"
       cx="33.915852"
       cy="43.123482"
       fx="33.915852"
       fy="43.123482"
       r="33"
       gradientTransform="matrix(2.0013384,0.20253561,-0.18985186,1.8760051,-26.130159,-34.380805)"
       gradientUnits="userSpaceOnUse" />
  </defs>
  <metadata
     id="metadata2413">
    <rdf:RDF>
      <cc:Work
         rdf:about="">
        <dc:format>image/svg+xml</dc:format>
        <dc:type
           rdf:resource="http://purl.org/dc/dcmitype/StillImage" />
      </cc:Work>
    </rdf:RDF>
  </metadata>
  <g
     id="layer2"
     style="display:none">
    <rect
       width="86"
       height="85"
       rx="6"
       ry="6"
       x="5"
       y="7"
       id="rect3745"
       style="opacity:0.9;fill:url(#ButtonShadow);fill-opacity:1;fill-rule:nonzero;stroke:none;filter:url(#filter3174)" />
  </g>
  <g
     id="layer5"
     style="display:inline">
    <rect
       width="66"
       height="66"
       rx="12"
       ry="12"
       x="15"
       y="15"
       clip-path="url(#clipPath3613)"
       id="rect3171"
       style="opacity:0.1;fill:url(#linearGradient3613);fill-opacity:1;fill-rule:nonzero;stroke:#ffffff;stroke-width:0.5;stroke-linecap:round;stroke-linejoin:miter;stroke-miterlimit:4;stroke-opacity:1;stroke-dasharray:none;stroke-dashoffset:0;filter:url(#filter3794)" />
  </g>
  <g
     id="layer3">
    <g
       transform="translate(-1.7651368e-7,32)"
       inkscape:label="Layer 1"
       id="layer1">
      <g
         transform="translate(17.652363,-9.3983002)"
         id="g4327">
        <rect
           style="opacity:0.15;fill:#000000;fill-opacity:1;stroke:none"
           id="rect4113"
           width="96"
           height="96"
           x="-17.652363"
           y="-73.3983"
           rx="4.1290321"
           ry="4.1290321"
           transform="scale(1,-1)" />
        <rect
           ry="4.0645151"
           rx="4.0645151"
           y="-72.6483"
           x="-16.902363"
           height="94.5"
           width="94.5"
           id="rect4129"
           style="opacity:0.15;fill:#000000;fill-opacity:1;stroke:none"
           transform="scale(1,-1)" />
        <rect
           style="opacity:0.15;fill:#000000;fill-opacity:1;stroke:none"
           id="rect4131"
           width="93"
           height="93"
           x="-16.152363"
           y="-71.8983"
           rx="3.9999986"
           ry="3.999999"
           transform="scale(1,-1)" />
        <rect
           style="opacity:0.65090906;fill:url(#radialGradient4543);fill-opacity:1;stroke:none"
           id="rect4048"
           width="89.087997"
           height="4.3519998"
           x="-12.916362"
           y="-6.8256979"
           rx="3.9569874"
           ry="3.0576727" />
        <path
           inkscape:connector-curvature="0"
           style="opacity:0;fill:#000000;fill-opacity:1;stroke:none"
           d="m -11.527364,-20.414197 c -2.182681,0 -3.9375,1.754819 -3.9375,3.9375 l 0,12 c 0,-2.182681 1.754819,-3.9375 3.9375,-3.9375 l 83.75,0 c 2.182681,0 3.9375,1.754819 3.9375,3.9375 l 0,-12 c 0,-2.182681 -1.754819,-3.9375 -3.9375,-3.9375 l -83.75,0 z"
           id="rect4080" />
        <rect
           transform="scale(1,-1)"
           style="fill:url(#linearGradient4545);fill-opacity:1;stroke:#738589;stroke-width:0.99243301;stroke-miterlimit:4;stroke-opacity:1;stroke-dasharray:none"
           id="rect4133"
           width="91.007515"
           height="90.809761"
           x="-15.156122"
           y="-70.902092"
           rx="3.9142997"
           ry="3.9057946" />
        <path
           inkscape:connector-curvature="0"
           style="fill:#e4e8e8;fill-opacity:1;stroke:#738589;stroke-width:0.99243301;stroke-miterlimit:4;stroke-opacity:1;stroke-dasharray:none"
           d="m -11.229786,-20.105492 c -2.168501,0 -3.925898,1.761406 -3.925898,3.934855 l 0,3.965838 c 0,-2.173448 1.757397,-3.934854 3.925898,-3.934854 l 83.154841,0 c 2.168502,0 3.925898,1.761406 3.925898,3.934854 l 0,-3.965838 c 0,-2.173449 -1.757396,-3.934855 -3.925898,-3.934855 l -83.154841,0 z"
           id="path4058" />
        <path
           id="path4060"
           d="m -11.229786,-12.17466 c -2.168501,0 -3.925898,1.761407 -3.925898,3.934856 l 0,3.965839 c 0,-2.173449 1.757397,-3.934856 3.925898,-3.934856 l 83.154841,0 c 2.168502,0 3.925898,1.761407 3.925898,3.934856 l 0,-3.965839 c 0,-2.173449 -1.757396,-3.934856 -3.925898,-3.934856 l -83.154841,0 z"
           style="fill:#e4e8e8;fill-opacity:1;stroke:#738589;stroke-width:0.99243301;stroke-miterlimit:4;stroke-opacity:1;stroke-dasharray:none"
           inkscape:connector-curvature="0" />
        <path
           inkscape:connector-curvature="0"
           style="fill:#e4e8e8;fill-opacity:1;stroke:#738589;stroke-width:0.99243301;stroke-miterlimit:4;stroke-opacity:1;stroke-dasharray:none"
           d="m -11.229786,-16.140075 c -2.168501,0 -3.925898,1.761406 -3.925898,3.934854 l 0,3.965839 c 0,-2.173449 1.757397,-3.934855 3.925898,-3.934855 l 83.154841,0 c 2.168502,0 3.925898,1.761406 3.925898,3.934855 l 0,-3.965839 c 0,-2.173448 -1.757396,-3.934854 -3.925898,-3.934854 l -83.154841,0 z"
           id="path4062" />
        <path
           style="opacity:0.27999998;fill:url(#linearGradient3355);fill-opacity:1;stroke:none"
           d="m 28.631783,-7.507947 0,78.406249 43.125776,0 c 2.270571,0 4.090077,-1.742441 4.090077,-3.906251 l 0,-70.593748 c 0,-2.16381 -1.819506,-3.90625 -4.090077,-3.90625 l -43.125776,0 z"
           id="path13457"
           inkscape:connector-curvature="0" />
        <rect
           style="opacity:0.6;fill:url(#radialGradient4553);fill-opacity:1;stroke:none"
           id="rect4338"
           width="89.343994"
           height="5.3759999"
           x="-14.452364"
           y="65.878304" />
        <path
           style="opacity:0.25818182;fill:url(#linearGradient4555);fill-opacity:1;stroke:none"
           d="m -11.246114,-19.914197 c -2.168522,0 -3.90625,1.74244 -3.90625,3.90625 l 0,13 c 0,-2.16381 2.087258,-4.784629 4.255776,-4.780063 l 83.012737,0.174762 c 2.168517,0.00457 3.731487,2.441491 3.731487,4.605301 l 0,-13 c 0,-2.16381 -1.737728,-3.90625 -3.90625,-3.90625 z"
           id="rect4358"
           inkscape:connector-curvature="0"
           sodipodi:nodetypes="sscsscsss" />
        <path
           inkscape:connector-curvature="0"
           style="opacity:0.27999998;fill:url(#linearGradient4549);fill-opacity:1;stroke:none"
           d="m -11.246114,-7.507947 c -2.168522,0 -3.90625,1.74244 -3.90625,3.90625 l 0,70.59375 c 0,2.16381 1.737728,3.90625 3.90625,3.90625 l 83.1875,0 c 2.168522,0 3.90625,-1.74244 3.90625,-3.90625 l 0,-70.59375 c 0,-2.16381 -1.737728,-3.90625 -3.90625,-3.90625 l -83.1875,0 z"
           id="rect4371" />
      </g>
    </g>
    <path
       d="m 48,19 c -13.668213,-0.122972 -28.134228,6.639237 -34.40625,19.53125 -4.8e-5,9.8e-5 0.0014,0.0275 0,0.03125 l 0.03125,0 c -0.02958,0.05976 -0.03345,0.127566 -0.0625,0.1875 -0.01361,0.0443 -0.02745,0.06682 -0.03125,0.09375 C 8.7540427,48.803885 11.180507,61.138789 18.875,68.875 a 0.99107323,0.99107323 0 0 0 0.125,0.15625 0.99107323,0.99107323 0 0 0 0.03125,0.0625 c 0.0053,0.0056 0.0259,-0.0056 0.03125,0 1.904014,1.993391 4.060354,3.675768 6.34375,5.15625 -0.95348,2.624367 -3.334465,4.838332 -6.0625,5.40625 a 0.99107323,0.99107323 0 0 0 -0.03125,0 c -7.18e-4,1.66e-4 -0.124295,0.03104 -0.125,0.03125 -7.05e-4,2.13e-4 -0.12431,0.06224 -0.125,0.0625 -6.9e-4,2.59e-4 -0.124329,0.03095 -0.125,0.03125 -6.71e-4,3.03e-4 -0.12435,0.06215 -0.125,0.0625 -6.5e-4,3.47e-4 -0.124374,0.06211 -0.125,0.0625 -6.26e-4,3.88e-4 -0.09315,0.06207 -0.09375,0.0625 -5.99e-4,4.29e-4 -0.09318,0.09328 -0.09375,0.09375 -4.79e-4,3.92e-4 -0.07123,0.074 -0.09375,0.09375 -0.0043,0.0038 -0.03116,-8.1e-5 -0.03125,0 l 0.03125,0.03125 c -1.13113,1.03444 -1.956457,2.364201 -1.6875,3.84375 0.265243,1.459122 1.389037,2.32146 2.375,2.8125 1.687895,0.840624 3.655477,1.016327 5.4375,0.65625 0.03021,-0.0061 0.06367,0.0064 0.09375,0 a 0.99107323,0.99107323 0 0 0 0.21875,0.03125 C 31.011112,87.178764 36.917065,84.562797 41.4375,80.375 56.411673,82.857264 73.239855,77.025086 81.34375,63.5 87.164806,53.663477 85.820936,40.494158 78.125,32.03125 c -0.0056,-0.0062 0.0056,-0.02509 0,-0.03125 -0.0056,-0.0052 -0.04521,-0.08405 0,-0.03125 C 70.660652,23.252823 59.135588,18.979043 48,19 z"
       id="path4916"
       style="opacity:0.05;fill:#000000;fill-opacity:1;stroke:none;display:inline"
       inkscape:connector-curvature="0" />
    <path
       d="m 48,20 c -13.334192,-0.119967 -27.431817,6.495725 -33.5,18.96875 -0.004,0.0082 0.004,0.02308 0,0.03125 -4.7896768,9.677085 -2.366289,21.88797 5.25,29.375 l 0,0.03125 c 2.038632,2.137561 4.375635,3.950187 6.875,5.5 -0.871458,3.283906 -3.756936,6.024098 -7.09375,6.71875 a 1.024681,1.024681 0 0 0 -0.46875,0.25 c -1.003984,0.912142 -1.563124,1.933867 -1.375,2.96875 0.188124,1.034883 1.008429,1.708984 1.84375,2.125 1.594471,0.794096 3.616533,0.970857 5.25,0.53125 l 0,0.03125 C 30.865075,86.183538 36.732688,83.565189 41.125,79.34375 55.849091,81.972458 72.557258,76.256128 80.5,63 86.092097,53.550376 84.807187,40.778329 77.40625,32.65625 77.396678,32.645041 77.384586,32.636194 77.375,32.625 70.135457,24.171572 58.87975,19.979524 48,20 z m -6.3125,17 c -0.2145,0.498914 -0.446641,1.037306 -0.625,1.40625 -0.261108,0.540114 -0.485372,0.700416 -0.4375,0.6875 0.02394,-0.0065 0.03212,0.0098 -0.125,-0.0625 C 40.378032,38.97509 40.129285,38.784225 39.875,38.5625 39.752022,38.306829 39.702204,38.184052 39.8125,38 39.940986,37.785594 40.314193,37.487538 40.84375,37.21875 41.113818,37.081671 41.368819,37.105575 41.6875,37 z m 11.875,0.59375 c 2.30894,1.643849 3.491541,4.899896 1.9375,7.46875 a 1.024681,1.024681 0 0 0 -0.0625,0.125 c -0.310084,0.7463 -1.382663,1.738587 -2.53125,2.5625 1.586336,-3.128742 1.767915,-6.821775 0.65625,-10.15625 z M 46.65625,64.1875 a 1.024681,1.024681 0 0 0 0.21875,0.03125 c 0.748094,-0.05321 0.795434,0.08503 0.875,0.25 0.07957,0.164967 0.09191,0.618006 -0.09375,1.03125 -0.185657,0.413244 -0.523576,0.713842 -0.75,0.78125 -0.212273,0.0632 -0.463373,0.01994 -0.9375,-0.46875 -0.276753,-0.381761 -0.30184,-0.864623 -0.15625,-1.1875 0.149358,-0.331233 0.287778,-0.524859 0.84375,-0.4375 z"
       id="path4912"
       style="opacity:0.05;fill:#000000;fill-opacity:1;stroke:none;display:inline"
       inkscape:connector-curvature="0" />
    <path
       d="m 48,21.03125 c -12.99631,-0.116927 -26.751452,6.34699 -32.600605,18.39813 -4.594297,9.252659 -2.233768,21.091506 5.079203,28.26642 2.163332,2.271601 4.665098,4.211691 7.365152,5.8042 -0.725524,4.01633 -4.13181,7.30021 -8.09375,8.125 -3.466166,3.14909 2.425547,4.687796 4.973112,3.88203 C 30.726459,85.163918 36.567765,82.540295 40.8125,78.28125 55.260982,81.054546 71.859964,75.444553 79.628419,62.479304 84.984455,53.428581 83.712608,41.086259 76.609683,33.320329 69.60548,25.11867 58.629386,21.011245 48,21.03125 z m -3.84375,14.3125 c -2.217717,0.980407 -1.831805,7.0921 -5.189718,3.808974 -1.406459,-2.537046 3.475604,-3.83092 5.189718,-3.808974 z m 7,0.21875 c 4.526142,0.565749 7.694324,5.962559 5.231297,10.033983 -1.060568,2.552538 -5.904388,4.970918 -6.889663,5.031749 C 53.3575,47.228016 54.411309,41.151783 52.215557,36.559421 51.931732,36.159074 51.532258,35.867665 51.15625,35.5625 z m -3.1875,16.0625 c -0.987736,1.395473 -0.996825,4.729028 -1.321647,1.22995 -0.01609,-0.715112 0.70706,-1.12512 1.321647,-1.22995 z M 46.8125,63.1875 c 4.079886,-0.290212 1.225394,6.470536 -1.661272,3.294216 C 44.081211,65.09673 44.900093,62.887005 46.8125,63.1875 z"
       inkscape:connector-curvature="0"
       id="path4906"
       style="opacity:0.12000002;fill:#000000;fill-opacity:1;stroke:none;display:inline" />
    <path
       d="m 48,21.96875 c -18.677872,0 -34.03125,12.443643 -34.03125,28.03125 0,9.670475 6.039004,18.080745 14.96875,23.09375 -0.209889,1.188842 -0.655323,2.836938 -1.75,4.53125 -1.250505,1.935498 -3.268212,3.797044 -6.75,4.78125 a 1.0233884,1.0233884 0 0 0 0.15625,2.03125 c 9.705127,1.054758 16.302566,-3.521642 19.90625,-7.15625 2.422168,0.451366 4.911133,0.75 7.5,0.75 C 66.677872,78.03125 82.03125,65.587607 82.03125,50 82.03125,34.412393 66.677872,21.96875 48,21.96875 z m -0.90625,12.125 c 1.646806,3.4e-5 3.159921,0.206238 4.53125,0.59375 1.368006,0.371777 2.537618,0.889962 3.5,1.59375 a 1.0233884,1.0233884 0 0 0 0,0.03125 c 0.954698,0.684005 1.684781,1.516437 2.21875,2.5 0.520952,0.95971 0.781228,2.030162 0.78125,3.3125 -2.3e-5,1.204459 -0.170053,2.253229 -0.53125,3.15625 a 1.0233884,1.0233884 0 0 0 -0.03125,0 c -0.352174,0.915619 -0.860459,1.754821 -1.59375,2.53125 -0.74421,0.787985 -1.680947,1.524094 -2.84375,2.21875 -1.164432,0.689472 -2.528736,1.373975 -4.125,2.03125 a 1.0233884,1.0233884 0 0 0 -0.625,0.71875 l -0.8125,3.65625 -1.3125,0 -0.75,-4.5 c 1.122361,-0.51412 2.195022,-1.043136 3,-1.71875 0.960077,-0.822914 1.760132,-1.70265 2.34375,-2.6875 0.578745,-0.964577 1.00096,-2.004865 1.21875,-3.09375 0.206126,-1.030693 0.312482,-2.054834 0.3125,-3.09375 -1.8e-5,-0.849404 -0.08593,-1.645669 -0.25,-2.375 C 51.96291,38.230454 51.714475,37.531583 51.3125,36.9375 51.3042,36.92439 51.28969,36.91922 51.28125,36.90625 50.874717,36.2811 50.30729,35.819941 49.6875,35.5 49.028625,35.148655 48.29296,35.000039 47.5,35 c -0.888175,4e-5 -1.714873,0.219182 -2.40625,0.6875 -0.624111,0.422816 -1.179585,0.982144 -1.5625,1.6875 -0.370642,0.682776 -0.592367,1.458037 -0.75,2.28125 a 1.0233884,1.0233884 0 0 0 0,0.03125 c -0.07905,0.464399 -0.09273,0.953081 -0.125,1.4375 C 42.06707,41.09314 41.442984,41.08585 40.9375,41 c -0.769611,-0.130664 -1.373595,-0.332876 -1.90625,-0.5625 -0.0097,-0.0046 -0.02168,0.0046 -0.03125,0 -0.479672,-0.230612 -0.803333,-0.480061 -1.03125,-0.75 -0.0078,-0.0092 -0.02368,-0.02195 -0.03125,-0.03125 -0.191855,-0.258764 -0.281251,-0.543726 -0.28125,-0.875 -2e-6,-0.622627 0.139759,-1.143377 0.46875,-1.6875 0.317342,-0.537019 0.834794,-1.060604 1.5625,-1.5 0.730378,-0.43279 1.725902,-0.789648 2.96875,-1.0625 1.221156,-0.28292 2.690316,-0.437465 4.4375,-0.4375 z M 46.8125,62.25 c 0.469901,6e-6 0.897856,0.05402 1.28125,0.15625 0.36111,0.0932 0.66197,0.235716 0.90625,0.4375 0.236222,0.195152 0.44376,0.443324 0.59375,0.8125 a 1.0233884,1.0233884 0 0 0 0,0.03125 c 0.132788,0.294054 0.218736,0.796335 0.21875,1.46875 -1.4e-5,0.654667 -0.08273,1.13629 -0.21875,1.4375 C 49.4413,66.957258 49.222621,67.253588 49,67.4375 c -0.217747,0.179871 -0.506156,0.302996 -0.90625,0.40625 A 1.0233884,1.0233884 0 0 0 48.0625,67.875 c -0.383846,0.11515 -0.799207,0.156249 -1.25,0.15625 -0.469499,-10e-7 -0.872803,-0.03767 -1.28125,-0.15625 A 1.0233884,1.0233884 0 0 0 45.5,67.84375 c -0.400115,-0.103254 -0.688545,-0.226402 -0.90625,-0.40625 -0.206587,-0.178411 -0.403192,-0.463844 -0.5625,-0.84375 -0.139504,-0.332649 -0.218757,-0.797678 -0.21875,-1.4375 -7e-6,-0.657882 0.08213,-1.142978 0.21875,-1.46875 a 1.0233884,1.0233884 0 0 0 0,-0.03125 c 0.156517,-0.385285 0.342462,-0.622468 0.5625,-0.8125 0.244237,-0.201762 0.545118,-0.344301 0.90625,-0.4375 0.407591,-0.105181 0.824437,-0.156244 1.3125,-0.15625 z"
       id="path4902"
       style="opacity:0.23999999;fill:#000000;fill-opacity:1;stroke:none;display:inline"
       inkscape:connector-curvature="0" />
    <path
       d="m 48,22 c -18.225397,0 -33,12.088312 -33,27 0,9.498438 5.99976,17.843462 15.0625,22.65625 -0.344625,2.508754 -1.914014,8.649817 -9.34375,10.75 9.622915,1.045823 16.013601,-3.646306 19.40625,-7.1875 C 42.648507,75.724251 45.286067,76 48,76 66.225397,76 81,63.911688 81,49 81,34.088312 66.225397,22 48,22 z m -0.90625,10.0625 c 1.729139,3.6e-5 3.339502,0.208758 4.8125,0.625 1.472964,0.400301 2.739765,0.996761 3.8125,1.78125 1.072693,0.768544 1.922822,1.723034 2.53125,2.84375 0.608382,1.120776 0.906225,2.387578 0.90625,3.8125 -2.5e-5,1.3129 -0.208746,2.490581 -0.625,3.53125 -0.40029,1.040716 -0.995978,1.979194 -1.8125,2.84375 -0.816565,0.864596 -1.829698,1.669777 -3.0625,2.40625 C 52.439421,50.626747 51.008073,51.327568 49.375,52 l -1,4.46875 -3,0 -0.96875,-6.0625 c 1.408928,-0.560356 2.54089,-1.21623 3.4375,-1.96875 0.896584,-0.768492 1.612644,-1.572903 2.125,-2.4375 0.528337,-0.880564 0.901606,-1.789336 1.09375,-2.75 0.192111,-0.960615 0.281233,-1.929572 0.28125,-2.90625 C 51.343733,39.559255 51.269074,38.827956 51.125,38.1875 50.980888,37.531093 50.757698,36.96434 50.4375,36.5 50.133282,36.019711 49.715066,35.662453 49.21875,35.40625 48.738416,35.150112 48.172435,35.031283 47.5,35.03125 c -0.736503,3.3e-5 -1.34743,0.163808 -1.84375,0.5 -0.496341,0.336256 -0.914558,0.783407 -1.21875,1.34375 -0.304213,0.560404 -0.512163,1.216278 -0.65625,1.96875 -0.128094,0.752529 -0.187509,1.542472 -0.1875,2.375 -1.00868,2.6e-5 -1.963941,-0.07463 -2.8125,-0.21875 -0.848571,-0.14407 -1.563088,-0.352791 -2.1875,-0.625 -0.608409,-0.288164 -1.085268,-0.630184 -1.4375,-1.0625 -0.336226,-0.432259 -0.531252,-0.954836 -0.53125,-1.53125 -2e-6,-0.800503 0.208721,-1.530259 0.625,-2.21875 0.416275,-0.704437 1.057681,-1.331375 1.90625,-1.84375 0.864571,-0.512307 1.968368,-0.899273 3.28125,-1.1875 1.312866,-0.304168 2.847033,-0.468714 4.65625,-0.46875 z M 46.8125,60.21875 c 0.54435,7e-6 1.050917,0.05942 1.53125,0.1875 0.496317,0.128093 0.94424,0.352054 1.3125,0.65625 0.36823,0.304209 0.666846,0.706414 0.875,1.21875 0.224134,0.496336 0.312484,1.122502 0.3125,1.875 -1.6e-5,0.736494 -0.08837,1.347421 -0.3125,1.84375 -0.208154,0.496332 -0.50677,0.914548 -0.875,1.21875 -0.36826,0.304203 -0.816183,0.496914 -1.3125,0.625 -0.480333,0.144095 -0.9869,0.218749 -1.53125,0.21875 -0.560385,-10e-7 -1.06618,-0.07466 -1.5625,-0.21875 -0.496341,-0.128086 -0.944264,-0.320797 -1.3125,-0.625 C 43.585257,66.914548 43.30188,66.496332 43.09375,66 c -0.208147,-0.496329 -0.312508,-1.107256 -0.3125,-1.84375 -8e-6,-0.752498 0.104353,-1.378664 0.3125,-1.875 0.20813,-0.512336 0.491507,-0.914541 0.84375,-1.21875 0.368236,-0.304196 0.816159,-0.528157 1.3125,-0.65625 0.49632,-0.128078 1.002115,-0.187493 1.5625,-0.1875 z"
       inkscape:connector-curvature="0"
       id="path3620"
       style="fill:url(#radialGradient4287);fill-opacity:1;stroke:none;display:inline" />
    <path
       d="m 48,22 c -18.225397,0 -33,12.088312 -33,27 0,0.135228 -0.0024,0.271497 0,0.40625 C 15.391133,34.772476 30.020415,23 48,23 66.018397,23 80.669643,34.822263 81,49.5 81.003795,49.331378 81,49.169364 81,49 81,34.088312 66.225397,22 48,22 z m -0.5,13.03125 c -0.736503,3.3e-5 -1.34743,0.163808 -1.84375,0.5 -0.496341,0.336256 -0.914558,0.783407 -1.21875,1.34375 -0.304213,0.560404 -0.512163,1.216278 -0.65625,1.96875 -0.128094,0.752529 -0.187509,1.542472 -0.1875,2.375 -1.00868,2.6e-5 -1.963941,-0.07463 -2.8125,-0.21875 -0.848571,-0.14407 -1.563088,-0.352791 -2.1875,-0.625 -0.608409,-0.288164 -1.085268,-0.630184 -1.4375,-1.0625 -0.25217,-0.324194 -0.429389,-0.714588 -0.5,-1.125 -0.02607,0.191743 -0.03125,0.393624 -0.03125,0.59375 -2e-6,0.576414 0.195024,1.098991 0.53125,1.53125 0.352232,0.432316 0.829091,0.774336 1.4375,1.0625 0.624412,0.272209 1.338929,0.48093 2.1875,0.625 0.848559,0.14412 1.80382,0.218776 2.8125,0.21875 -9e-6,-0.832528 0.05941,-1.622471 0.1875,-2.375 0.144087,-0.752472 0.352037,-1.408346 0.65625,-1.96875 0.304192,-0.560343 0.722409,-1.007494 1.21875,-1.34375 0.49632,-0.336192 1.107247,-0.499967 1.84375,-0.5 0.672435,3.3e-5 1.238416,0.118862 1.71875,0.375 0.496316,0.256203 0.914532,0.613461 1.21875,1.09375 0.320198,0.46434 0.543388,1.031093 0.6875,1.6875 0.116035,0.515813 0.164247,1.104754 0.1875,1.71875 0.0066,-0.186556 0.03125,-0.375373 0.03125,-0.5625 C 51.343733,39.559255 51.269074,38.827956 51.125,38.1875 50.980888,37.531093 50.757698,36.96434 50.4375,36.5 50.133282,36.019711 49.715066,35.662453 49.21875,35.40625 48.738416,35.150112 48.172435,35.031283 47.5,35.03125 z m 11.625,6.75 c -0.05873,1.052343 -0.248026,2.010661 -0.59375,2.875 -0.40029,1.040716 -0.995978,1.979194 -1.8125,2.84375 -0.816565,0.864596 -1.829698,1.669777 -3.0625,2.40625 C 52.439421,50.626747 51.008073,51.327568 49.375,52 l -1,4.46875 -3,0 -0.8125,-5.125 c -0.05346,0.02187 -0.101972,0.04091 -0.15625,0.0625 l 0.96875,6.0625 3,0 1,-4.46875 c 1.633073,-0.672432 3.064421,-1.373253 4.28125,-2.09375 1.232802,-0.736473 2.245935,-1.541654 3.0625,-2.40625 0.816522,-0.864556 1.41221,-1.803034 1.8125,-2.84375 0.416254,-1.040669 0.624975,-2.21835 0.625,-3.53125 -2e-6,-0.118961 -0.02709,-0.226986 -0.03125,-0.34375 z m -16.3125,22.875 c -0.01219,0.167134 -0.03125,0.318044 -0.03125,0.5 -8e-6,0.736494 0.104353,1.347421 0.3125,1.84375 0.20813,0.496332 0.491507,0.914548 0.84375,1.21875 0.368236,0.304203 0.816159,0.496914 1.3125,0.625 0.49632,0.14409 1.002115,0.218749 1.5625,0.21875 0.54435,-10e-7 1.050917,-0.07466 1.53125,-0.21875 0.496317,-0.128086 0.94424,-0.320797 1.3125,-0.625 0.36823,-0.304202 0.666846,-0.722418 0.875,-1.21875 0.22413,-0.496329 0.312484,-1.107256 0.3125,-1.84375 -4e-6,-0.182445 -0.02018,-0.332458 -0.03125,-0.5 -0.03536,0.505797 -0.113149,0.971503 -0.28125,1.34375 -0.208154,0.496332 -0.50677,0.914548 -0.875,1.21875 -0.36826,0.304203 -0.816183,0.496914 -1.3125,0.625 -0.480333,0.144095 -0.9869,0.218749 -1.53125,0.21875 -0.560385,-10e-7 -1.06618,-0.07466 -1.5625,-0.21875 -0.496341,-0.128086 -0.944264,-0.320797 -1.3125,-0.625 C 43.585257,66.914548 43.30188,66.496332 43.09375,66 42.937489,65.627393 42.851529,65.162671 42.8125,64.65625 z M 29.90625,72.5625 c -0.580973,2.849645 -2.527399,7.961122 -9.1875,9.84375 0.790772,0.08594 1.565252,0.112731 2.3125,0.125 5.455217,-2.588194 6.725848,-7.651773 7.03125,-9.875 -0.05421,-0.02879 -0.102256,-0.06471 -0.15625,-0.09375 z"
       inkscape:connector-curvature="0"
       id="path4889"
       style="opacity:0.8;fill:#ffffff;fill-opacity:1;stroke:none;display:inline" />
  </g>
</svg>
