<?xml version="1.0" encoding="UTF-8" standalone="no"?>
<!-- Created with Inkscape (http://www.inkscape.org/) -->

<svg
   xmlns:dc="http://purl.org/dc/elements/1.1/"
   xmlns:cc="http://creativecommons.org/ns#"
   xmlns:rdf="http://www.w3.org/1999/02/22-rdf-syntax-ns#"
   xmlns:svg="http://www.w3.org/2000/svg"
   xmlns="http://www.w3.org/2000/svg"
   xmlns:xlink="http://www.w3.org/1999/xlink"
   xmlns:sodipodi="http://sodipodi.sourceforge.net/DTD/sodipodi-0.dtd"
   xmlns:inkscape="http://www.inkscape.org/namespaces/inkscape"
   width="96"
   height="96"
   viewBox="0 0 96.000001 96.000004"
   version="1.1"
   id="svg1072"
   inkscape:version="0.92.2 2405546, 2018-03-11"
   sodipodi:docname="blueman-mouse.svg">
  <defs
     id="defs1066">
    <linearGradient
       y2="47.000011"
       x2="90"
       y1="47.000011"
       x1="6"
       gradientTransform="matrix(1.1059871,0,0,1.1059869,-4.9885342,-3.5162653)"
       gradientUnits="userSpaceOnUse"
       id="linearGradient4071"
       xlink:href="#linearGradient6139-0"
       inkscape:collect="always" />
    <linearGradient
       id="linearGradient6139-0">
      <stop
         style="stop-color:#b2babc;stop-opacity:1"
         offset="0"
         id="stop6141-2" />
      <stop
         id="stop6151-0"
         offset="0.25"
         style="stop-color:#ffffff;stop-opacity:1;" />
      <stop
         id="stop6147-1"
         offset="0.5"
         style="stop-color:#969fa4;stop-opacity:1" />
      <stop
         style="stop-color:#ffffff;stop-opacity:1"
         offset="0.75"
         id="stop6149-4" />
      <stop
         style="stop-color:#b2b9bc;stop-opacity:1"
         offset="1"
         id="stop6143-4" />
    </linearGradient>
    <linearGradient
       inkscape:collect="always"
       xlink:href="#linearGradient897"
       id="linearGradient1090"
       x1="56.999847"
       y1="4.0840449"
       x2="56.668919"
       y2="81.602806"
       gradientUnits="userSpaceOnUse"
       gradientTransform="matrix(0.99895615,0,0,0.99895616,1.5548704e-4,0.10064231)" />
    <linearGradient
       gradientTransform="matrix(1.0466307,0,0,1.0466307,-4.3818389,-2.308219)"
       x1="48"
       y1="14"
       x2="48"
       gradientUnits="userSpaceOnUse"
       y2="42"
       id="linearGradient897">
      <stop
         style="stop-color:#4b6d89;stop-opacity:1"
         id="stop889"
         offset="0"
         stop-color="#949494" />
      <stop
         style="stop-color:#b4c2cd;stop-opacity:1"
         id="stop891"
         offset="0.26250428"
         stop-color="#aeaeae" />
      <stop
         style="stop-color:#40596a;stop-opacity:1"
         id="stop893"
         offset="0.5373525"
         stop-color="#828282" />
      <stop
         style="stop-color:#243943;stop-opacity:1"
         id="stop895"
         offset="1"
         stop-color="#4d4d4d" />
    </linearGradient>
    <linearGradient
       inkscape:collect="always"
       xlink:href="#ae"
       id="linearGradient1082"
       gradientUnits="userSpaceOnUse"
       gradientTransform="matrix(1.068142,0,0,1.0466307,-80.8879,115.47489)"
       x1="48"
       y1="90"
       x2="48"
       y2="5.9877" />
    <linearGradient
       id="ae"
       y2="5.9877"
       gradientUnits="userSpaceOnUse"
       x2="48"
       y1="90"
       x1="48"
       gradientTransform="matrix(1.0466307,0,0,1.0466307,-4.3818389,-2.308219)">
      <stop
         stop-color="#c8c4b7"
         offset="0"
         id="stop28"
         style="stop-color:#daddde;stop-opacity:1" />
      <stop
         stop-color="#e3e2db"
         offset="1"
         id="stop30"
         style="stop-color:#dbe2e3;stop-opacity:1" />
    </linearGradient>
    <linearGradient
       inkscape:collect="always"
       xlink:href="#z"
       id="linearGradient4426"
       gradientUnits="userSpaceOnUse"
       gradientTransform="matrix(1.068142,0,0,1.0466307,-80.8879,115.47489)"
       x1="48"
       y1="8"
       x2="48"
       y2="48" />
    <linearGradient
       id="z"
       y2="48"
       gradientUnits="userSpaceOnUse"
       x2="48"
       y1="8"
       x1="48"
       gradientTransform="matrix(1.0466307,0,0,1.0466307,-4.3818389,-2.308219)">
      <stop
         stop-color="#a49e89"
         offset="0"
         id="stop67"
         style="stop-color:#899da4;stop-opacity:1" />
      <stop
         stop-color="#fff"
         offset="1"
         id="stop69" />
    </linearGradient>
    <linearGradient
       inkscape:collect="always"
       xlink:href="#linearGradient894"
       id="linearGradient4428"
       gradientUnits="userSpaceOnUse"
       gradientTransform="matrix(1.068142,0,0,1.0466307,-80.8879,115.47489)"
       x1="48"
       y1="14"
       x2="48"
       y2="42" />
    <linearGradient
       id="linearGradient894"
       y2="42"
       gradientUnits="userSpaceOnUse"
       x2="48"
       y1="14"
       x1="48"
       gradientTransform="matrix(1.0466307,0,0,1.0466307,-4.3818389,-2.308219)">
      <stop
         stop-color="#949494"
         offset="0"
         id="stop886"
         style="stop-color:#566c7e;stop-opacity:1" />
      <stop
         stop-color="#aeaeae"
         offset="0.26250428"
         id="stop888"
         style="stop-color:#a8b4bd;stop-opacity:1" />
      <stop
         stop-color="#828282"
         offset="0.5373525"
         id="stop890"
         style="stop-color:#435b67;stop-opacity:1" />
      <stop
         stop-color="#4d4d4d"
         offset="1"
         id="stop892"
         style="stop-color:#243943;stop-opacity:1" />
    </linearGradient>
    <linearGradient
       inkscape:collect="always"
       xlink:href="#ab"
       id="linearGradient4430"
       gradientUnits="userSpaceOnUse"
       gradientTransform="matrix(1.068142,0,0,1.0466307,-80.8879,115.47489)"
       spreadMethod="reflect"
       x1="41.844002"
       y1="28"
       x2="48"
       y2="28" />
    <linearGradient
       id="ab"
       y2="28"
       spreadMethod="reflect"
       gradientUnits="userSpaceOnUse"
       x2="48"
       y1="28"
       x1="41.844002"
       gradientTransform="matrix(1.0466307,0,0,1.0466307,-4.3818389,-2.308219)">
      <stop
         offset="0"
         id="stop51"
         style="stop-color:#122335;stop-opacity:1;" />
      <stop
         stop-opacity=".16279"
         offset="0.5"
         id="stop53"
         style="stop-color:#1c2d42;stop-opacity:0.16279;" />
      <stop
         stop-opacity="0"
         offset="1"
         id="stop55"
         style="stop-color:#18232f;stop-opacity:0;" />
    </linearGradient>
    <linearGradient
       inkscape:collect="always"
       xlink:href="#b"
       id="linearGradient4468"
       gradientUnits="userSpaceOnUse"
       gradientTransform="matrix(1.068142,0,0,1.0466307,-80.8879,115.47489)"
       x1="40"
       y1="8"
       x2="40"
       y2="64" />
    <linearGradient
       id="b"
       stop-color="#fff">
      <stop
         offset="0"
         id="stop12" />
      <stop
         stop-opacity="0"
         offset="1"
         id="stop14"
         style="stop-color:#ffffff;stop-opacity:0.1724138;" />
    </linearGradient>
    <linearGradient
       gradientUnits="userSpaceOnUse"
       y2="88.171875"
       x2="94.5"
       y1="88.171875"
       x1="1.5"
       id="linearGradient4129"
       xlink:href="#linearGradient3832-0-6-1-1"
       inkscape:collect="always"
       gradientTransform="matrix(0.99895615,0,0,0.99895616,0.1489535,0.51523509)" />
    <linearGradient
       id="linearGradient3832-0-6-1-1">
      <stop
         id="stop3834-6-3-7-1"
         offset="0"
         style="stop-color:#000000;stop-opacity:1;" />
      <stop
         style="stop-color:#000000;stop-opacity:0.58823532;"
         offset="0.1"
         id="stop3872-2-4" />
      <stop
         id="stop3844-6-2-7-6"
         offset="0.89999998"
         style="stop-color:#000000;stop-opacity:0.58823532;" />
      <stop
         id="stop3836-5-0-2-9"
         offset="1"
         style="stop-color:#000000;stop-opacity:1;" />
    </linearGradient>
    <radialGradient
       r="43.199203"
       fy="44.892841"
       fx="13.948145"
       cy="44.892841"
       cx="13.948145"
       gradientTransform="matrix(0.97411589,0,0,0.04913937,34.012264,80.59825)"
       gradientUnits="userSpaceOnUse"
       id="radialGradient7462"
       xlink:href="#linearGradient3737"
       inkscape:collect="always" />
    <linearGradient
       id="linearGradient3737">
      <stop
         id="stop3739"
         style="stop-color:#ffffff;stop-opacity:1"
         offset="0" />
      <stop
         id="stop3741"
         style="stop-color:#ffffff;stop-opacity:0"
         offset="1" />
    </linearGradient>
    <radialGradient
       r="43.199203"
       fy="44.892841"
       fx="13.948145"
       cy="44.892841"
       cx="13.948145"
       gradientTransform="matrix(0.88739936,0,0,0.04913937,32.0268,-90.223138)"
       gradientUnits="userSpaceOnUse"
       id="radialGradient7464"
       xlink:href="#linearGradient3737"
       inkscape:collect="always" />
    <linearGradient
       y2="14.514202"
       x2="50.527882"
       y1="-28.64156"
       x1="2.7713892"
       gradientUnits="userSpaceOnUse"
       id="linearGradient4767"
       xlink:href="#linearGradient3737"
       inkscape:collect="always" />
    <clipPath
       clipPathUnits="userSpaceOnUse"
       id="clipPath4156-4-1">
      <path
         style="opacity:0.6;fill:#ffffff;fill-opacity:1;stroke:none"
         d="m 27.046336,-55.695463 -14.21366,13.321486 h 0.06127 l 15.653407,21.770763 10.231384,-10.546177 C 38.561832,-32.30156 27.468089,-54.819245 27.046336,-55.695463 Z M 9.6468554,-39.382809 -5.2407289,-25.32124 15.987863,-7.8059573 26.372412,-18.382966 Z m 31.4906096,12.951445 -9.741259,9.713584 8.944804,12.4580526 7.780753,-7.5550056 z m -49.8397109,4.378822 -13.7541661,12.9822847 26.2830181,13.84571 0.06127,-0.0617 -0.122531,-0.0617 L 13.598503,-5.4007374 -8.7022409,-22.052595 Z m 38.0154159,7.400825 -9.802525,9.7752596 11.579232,9.5594001 7.62759,-7.40083 -8.669108,-11.0087257 z m 20.187073,5.6739697 -7.382526,7.2158 6.187844,8.54179 5.820249,-6.13651996 z m -32.195166,6.32154 -9.5574606,9.49772 13.6622686,7.1849703 7.933918,-7.6783603 z m 23.311629,2.37443004 -7.10683,6.93826996 8.362778,6.9074403 5.360756,-5.6739699 -0.06127,-0.0925 -0.0919,0.12335 -6.463539,-8.20258036 z m -8.730374,8.54178036 -7.505057,7.3391599 10.353916,5.45811 c 1.397496,-1.32103 5.67514,-6.12292 5.850882,-6.32154 z"
         id="path4158-0-8"
         inkscape:connector-curvature="0" />
    </clipPath>
    <linearGradient
       inkscape:collect="always"
       xlink:href="#ae"
       id="linearGradient911"
       gradientUnits="userSpaceOnUse"
       gradientTransform="matrix(1.068142,0,0,1.0466307,-80.8879,115.47489)"
       x1="48"
       y1="90"
       x2="48"
       y2="5.9877" />
  </defs>
  <sodipodi:namedview
     id="base"
     pagecolor="#ffffff"
     bordercolor="#666666"
     borderopacity="1.0"
     inkscape:pageopacity="0.0"
     inkscape:pageshadow="2"
     inkscape:zoom="2.4103423"
     inkscape:cx="-49.69644"
     inkscape:cy="44.680969"
     inkscape:document-units="px"
     inkscape:current-layer="g920"
     showgrid="false"
     inkscape:showpageshadow="false"
     units="px"
     inkscape:lockguides="true"
     inkscape:window-width="1920"
     inkscape:window-height="1018"
     inkscape:window-x="0"
     inkscape:window-y="28"
     inkscape:window-maximized="1">
    <sodipodi:guide
       position="0,0"
       orientation="0,96"
       id="guide1621"
       inkscape:locked="true" />
    <sodipodi:guide
       position="96.000002,0"
       orientation="-96,0"
       id="guide1623"
       inkscape:locked="true" />
    <sodipodi:guide
       position="96.000002,96.000002"
       orientation="0,-96"
       id="guide1625"
       inkscape:locked="true" />
    <sodipodi:guide
       position="0,96.000002"
       orientation="96,0"
       id="guide1627"
       inkscape:locked="true" />
  </sodipodi:namedview>
  <metadata
     id="metadata1069">
    <rdf:RDF>
      <cc:Work
         rdf:about="">
        <dc:format>image/svg+xml</dc:format>
        <dc:type
           rdf:resource="http://purl.org/dc/dcmitype/StillImage" />
        <dc:title></dc:title>
        <dc:date>2017</dc:date>
        <dc:creator>
          <cc:Agent>
            <dc:title>Cristian Pozzessere &quot;ilnanny&quot;</dc:title>
          </cc:Agent>
        </dc:creator>
        <dc:subject>
          <rdf:Bag>
            <rdf:li>Global language</rdf:li>
          </rdf:Bag>
        </dc:subject>
        <dc:description>Playing with Inkscape on Gnu/Linux O. S.</dc:description>
        <dc:contributor>
          <cc:Agent>
            <dc:title>In the night, alone like a dog.</dc:title>
          </cc:Agent>
        </dc:contributor>
        <cc:license
           rdf:resource="http://creativecommons.org/licenses/by-sa/4.0/" />
      </cc:Work>
      <cc:License
         rdf:about="http://creativecommons.org/licenses/by-sa/4.0/">
        <cc:permits
           rdf:resource="http://creativecommons.org/ns#Reproduction" />
        <cc:permits
           rdf:resource="http://creativecommons.org/ns#Distribution" />
        <cc:requires
           rdf:resource="http://creativecommons.org/ns#Notice" />
        <cc:requires
           rdf:resource="http://creativecommons.org/ns#Attribution" />
        <cc:permits
           rdf:resource="http://creativecommons.org/ns#DerivativeWorks" />
        <cc:requires
           rdf:resource="http://creativecommons.org/ns#ShareAlike" />
      </cc:License>
    </rdf:RDF>
  </metadata>
  <g
     inkscape:label="Livello 1"
     inkscape:groupmode="layer"
     id="layer1"
     transform="translate(0,-1026.5197)">
    <g
       transform="matrix(0.99791666,0,0,0.99791667,-0.0486458,1026.2055)"
       style="display:inline"
       id="g920">
      <g
         id="g909"
         transform="translate(0.0501045,-0.05006599)">
        <path
           style="display:inline;opacity:0.15;fill:#000000;fill-opacity:1;fill-rule:nonzero;stroke:none;stroke-width:0.99895614"
           d="M 89.198759,0.51523509 H 6.9989333 c -3.7948826,0 -6.8499774,3.05509261 -6.8499774,6.84998211 V 89.565042 c 0,3.794891 3.0550948,6.849984 6.8499774,6.849984 H 89.198759 c 3.794891,0 6.849989,-3.055093 6.849989,-6.849984 V 7.3652172 c 0,-3.7948895 -3.055098,-6.84998211 -6.849989,-6.84998211 z"
           id="path3288"
           inkscape:connector-curvature="0" />
        <path
           inkscape:connector-curvature="0"
           id="path4085"
           d="M 88.556574,1.2644522 H 7.6411183 c -3.7355886,0 -6.74294708,3.0073565 -6.74294708,6.742951 V 88.922855 c 0,3.735597 3.00735848,6.742954 6.74294708,6.742954 H 88.556574 c 3.735599,0 6.742957,-3.007357 6.742957,-6.742954 V 8.0074032 c 0,-3.7355945 -3.007358,-6.742951 -6.742957,-6.742951 z"
           style="display:inline;opacity:0.15;fill:#000000;fill-opacity:1;fill-rule:nonzero;stroke:none;stroke-width:0.99895614" />
        <path
           style="display:inline;fill:url(#linearGradient4071);fill-opacity:1;fill-rule:nonzero;stroke:none;stroke-width:0.99895614"
           d="M 87.914384,2.0136693 H 8.2833112 c -3.6763015,0 -6.6359225,2.9596204 -6.6359225,6.6359208 V 88.280671 c 0,3.6763 2.959621,6.635922 6.6359225,6.635922 H 87.914384 c 3.676301,0 6.63592,-2.959622 6.63592,-6.635922 V 8.6495901 c 0,-3.6763004 -2.959619,-6.6359208 -6.63592,-6.6359208 z"
           id="rect4251-1"
           inkscape:connector-curvature="0" />
        <path
           style="display:inline;opacity:0.77864583;fill:url(#linearGradient1090);fill-opacity:1;fill-rule:nonzero;stroke:none;stroke-width:1.03432298"
           d="m 11.378513,6.8957101 c -2.8535148,0 -5.1187798,2.3122714 -5.1187798,5.2249939 v 21.651066 7.31499 40.330419 c 1.0960946,1.702071 2.9657495,2.841089 5.1187798,2.841089 h 4.095024 65.520384 4.095023 c 2.153031,0 4.022686,-1.139018 5.11878,-2.841089 V 41.08676 33.77177 12.120704 c 0,-2.9127225 -2.265265,-5.2249939 -5.11878,-5.2249939 z"
           id="path3400-6"
           inkscape:connector-curvature="0"
           sodipodi:nodetypes="sscccsccscccsss" />
        <g
           transform="matrix(0.99895615,0,0,0.88778448,77.685021,-101.64923)"
           id="g980"
           style="display:inline">
          <path
             inkscape:connector-curvature="0"
             style="fill:url(#linearGradient911);stroke-width:1.01022422"
             id="path88"
             d="m -58.456918,121.75468 c -2.949568,0 -5.34071,2.34298 -5.34071,5.23315 v 21.97924 c 0,14.76482 10.681419,25.11914 10.681419,46.05175 v 14.65283 h 46.9982475 v -14.65283 c 0,-20.93261 10.68142,-31.28693 10.68142,-46.05175 v -21.97924 c 0,-2.89017 -2.39157,-5.23315 -5.34070901,-5.23315 z"
             sodipodi:nodetypes="ssssccsssss" />
          <path
             style="opacity:0.6;fill:#ffffff;stroke-width:1.01022422"
             inkscape:connector-curvature="0"
             id="path90"
             d="m -32.174217,121.75468 v 49.15919 c 8.4e-5,0.0116 0,0.039 0,0.0327 0,1.18981 1.022148,2.19144 2.236475,2.19144 1.214264,0 2.236476,-1.00157 2.236476,-2.19144 0,0.006 -8.4e-5,-0.0211 0,-0.0327 8.4e-5,-0.0116 9.22e-4,-0.004 0,-0.0327 v -49.12675 h -4.472844 z" />
          <path
             inkscape:connector-curvature="0"
             style="opacity:0.9;fill:url(#linearGradient4426);stroke-width:1.01022422"
             id="path92"
             d="m -29.617085,125.90854 c -5.906826,0 -10.714532,4.7111 -10.714532,10.49875 v 16.7461 c 0,5.78776 4.808134,10.49875 10.714532,10.49875 5.906718,0 10.714531,-4.71131 10.714531,-10.49875 v -16.7461 c 0,-5.78786 -4.807706,-10.49875 -10.714531,-10.49875 z" />
          <path
             style="opacity:0.9;stroke-width:1.01022422"
             inkscape:connector-curvature="0"
             id="path94"
             d="m -31.00567,121.75468 v 49.15919 c -3.65e-4,0.0113 0,0.0214 0,0.0327 0,0.57803 0.478229,1.04663 1.068142,1.04663 0.589913,0 1.068141,-0.4686 1.068141,-1.04663 0,-0.0113 3.66e-4,-0.0215 0,-0.0327 v -49.15919 z" />
          <rect
             style="opacity:0.9;stroke-width:1.01022422"
             id="rect96"
             x="-38.16222"
             y="128.03445"
             width="17.090273"
             height="33.492184"
             ry="8.3730459"
             rx="8.5451365" />
          <path
             inkscape:connector-curvature="0"
             style="opacity:0.98999999;fill:url(#linearGradient4428);fill-opacity:1;stroke-width:1.01022422"
             id="path98"
             d="m -29.617085,129.96445 c -3.673661,0 -6.575696,2.84359 -6.575696,6.44326 v 16.74609 c 0,3.59968 2.902035,6.44327 6.575696,6.44327 3.67366,0 6.575695,-2.84359 6.575695,-6.44327 v -16.74609 c 0,-3.59936 -2.902142,-6.44305 -6.575482,-6.44305 z" />
          <path
             inkscape:connector-curvature="0"
             style="opacity:0.5;fill:url(#linearGradient4430);stroke-width:1.01022422"
             id="path100"
             d="m -29.617085,129.96445 c -3.673661,0 -6.575696,2.84359 -6.575696,6.44326 v 16.74609 c 0,3.59968 2.902035,6.44327 6.575696,6.44327 3.67366,0 6.575695,-2.84359 6.575695,-6.44327 v -16.74609 c 0,-3.59936 -2.902142,-6.44305 -6.575482,-6.44305 z" />
          <path
             d="m -34.957681,132.22064 v 1.04688 1.04687 h 10.681641 v -1.04687 -1.04688 z m 0,3.14063 v 1.04687 1.04688 h 10.681641 v -1.04688 -1.04687 z m 0,3.13867 v 1.04688 1.04687 h 10.681641 v -1.04687 -1.04688 z m 0,3.14062 v 1.04688 1.04688 h 10.681641 v -1.04688 -1.04688 z m 0,3.14063 v 1.04687 1.04493 h 10.681641 v -1.04493 -1.04687 z m 0,3.13867 v 1.04688 1.04687 h 10.681641 v -1.04687 -1.04688 z m 0,3.14063 v 1.04687 1.04688 h 10.681641 v -1.04688 -1.04687 z m 0,3.14062 v 1.04492 1.04688 h 10.681641 v -1.04688 -1.04492 z"
             style="opacity:0.36855038;fill:#ffffff;fill-opacity:1;stroke-width:1.01022422"
             id="rect102"
             inkscape:connector-curvature="0" />
          <path
             style="opacity:0.6;fill:#ffffff;stroke-width:1.01022422"
             inkscape:connector-curvature="0"
             id="path138"
             d="m -58.456918,121.75468 c -2.949568,0 -5.34071,2.34298 -5.34071,5.23315 v 21.97924 c 0,14.76482 10.681419,25.11914 10.681419,46.05175 v 14.65283 h 1.068142 v -14.65283 c 0,-20.93261 -10.681419,-31.28693 -10.681419,-46.05175 v -21.97924 c 0,-2.89017 2.391143,-5.23315 5.34071,-5.23315 z" />
          <path
             style="opacity:0.6;fill:#ffffff;stroke-width:1.01022422"
             inkscape:connector-curvature="0"
             id="path140"
             d="m -0.77725051,121.75468 c 2.94956601,0 5.34070901,2.34298 5.34070901,5.23315 v 21.97924 c 0,14.76482 -10.68142,25.11914 -10.68142,46.05175 v 14.65283 h -1.068142 v -14.65283 c 0,-20.93261 10.68142,-31.28693 10.68142,-46.05175 v -21.97924 c 0,-2.89017 -2.39157,-5.23315 -5.34071,-5.23315 z" />
          <path
             inkscape:connector-curvature="0"
             style="opacity:0.5;fill:url(#linearGradient4468);stroke-width:1.01022422"
             id="path142"
             d="m -57.388776,121.75468 c -1.920092,0 -3.634033,0.82338 -4.806639,2.12591 H 2.9612455 c -1.17282,-1.30253 -2.88611901,-2.12591 -4.806639,-2.12591 z m -0.667589,87.88453 c 0.215765,0.0209 0.445416,0.0324 0.667589,0.0324 h 55.5433825 c 0.221906,0 0.451621,-0.0113 0.667589,-0.0327 H -58.056365 Z" />
        </g>
        <path
           inkscape:connector-curvature="0"
           id="path4989"
           d="m 9.9637782,5.2397592 c -3.1133677,0 -5.6620485,2.5368591 -5.6620485,5.6401108 v 69.20568 c 0,3.103253 2.5486808,5.640111 5.6620485,5.640111 H 86.675404 c 3.113368,0 5.662052,-2.536858 5.662052,-5.640111 V 10.87987 c 0,-3.1032507 -2.548684,-5.6401108 -5.662052,-5.6401108 z m 0,2.3170178 H 86.675404 c 1.886128,0 3.348523,1.47855 3.348523,3.323093 v 69.20568 c 0,1.844547 -1.462395,3.323092 -3.348523,3.323092 H 9.9637782 c -1.8861281,0 -3.348523,-1.478545 -3.348523,-3.323092 V 10.87987 c 0,-1.844543 1.4623949,-3.323093 3.348523,-3.323093 z"
           style="color:#000000;font-style:normal;font-variant:normal;font-weight:normal;font-stretch:normal;font-size:medium;line-height:normal;font-family:Sans;-inkscape-font-specification:Sans;text-indent:0;text-align:start;text-decoration:none;text-decoration-line:none;letter-spacing:normal;word-spacing:normal;text-transform:none;writing-mode:lr-tb;direction:ltr;baseline-shift:baseline;text-anchor:start;display:inline;overflow:visible;visibility:visible;fill:#1f2224;fill-opacity:1;stroke:none;stroke-width:2.37302041;marker:none;enable-background:accumulate" />
        <path
           inkscape:connector-curvature="0"
           style="display:inline;opacity:0.65818182;fill:url(#linearGradient4129);fill-opacity:1;fill-rule:nonzero;stroke:none;stroke-width:0.99895614"
           d="m 1.6473877,82.273553 v 5.993737 c 0,3.6763 2.973,6.649302 6.6493015,6.649302 H 87.901008 c 3.676301,0 6.649306,-2.973002 6.649306,-6.649302 v -5.993737 c 0,3.6763 -2.973005,6.649302 -6.649306,6.649302 H 8.2966892 c -3.6763015,0 -6.6493015,-2.973002 -6.6493015,-6.649302 z"
           id="path4118" />
        <rect
           style="opacity:0.55;fill:url(#radialGradient7462);fill-opacity:1;stroke:none;stroke-width:0.99895614"
           id="rect4131"
           width="84.162064"
           height="4.2455635"
           x="5.5183434"
           y="80.681473"
           rx="0"
           ry="4.2455635" />
        <rect
           ry="4.2455635"
           rx="0"
           y="-90.139931"
           x="6.0694275"
           height="4.2455635"
           width="76.669884"
           id="rect4141"
           style="opacity:0.669;fill:url(#radialGradient7464);fill-opacity:1;stroke:none;stroke-width:0.99895614"
           transform="rotate(90)" />
        <rect
           transform="matrix(1.068129,0,0,1.0465893,4.4396966,38.954056)"
           style="opacity:0.5078125;fill:url(#linearGradient4767);fill-opacity:1;stroke:none"
           id="rect4146"
           width="75.965775"
           height="69.024437"
           x="2"
           y="-30"
           rx="3.9569874"
           ry="3.9569881"
           clip-path="url(#clipPath4156-4-1)" />
      </g>
    </g>
  </g>
</svg>
