<?xml version="1.0" encoding="UTF-8" standalone="no"?>
<!-- Created with Inkscape (http://www.inkscape.org/) -->

<svg
   width="96"
   height="96"
   viewBox="0 0 96.000001 96.000004"
   version="1.1"
   id="svg1072"
   inkscape:version="1.1 (c4e8f9ed74, 2021-05-24)"
   sodipodi:docname="pda.svg"
   xmlns:inkscape="http://www.inkscape.org/namespaces/inkscape"
   xmlns:sodipodi="http://sodipodi.sourceforge.net/DTD/sodipodi-0.dtd"
   xmlns:xlink="http://www.w3.org/1999/xlink"
   xmlns="http://www.w3.org/2000/svg"
   xmlns:svg="http://www.w3.org/2000/svg"
   xmlns:rdf="http://www.w3.org/1999/02/22-rdf-syntax-ns#"
   xmlns:cc="http://creativecommons.org/ns#"
   xmlns:dc="http://purl.org/dc/elements/1.1/">
  <defs
     id="defs1066">
    <linearGradient
       inkscape:collect="always"
       id="linearGradient4738">
      <stop
         style="stop-color:#d0effa;stop-opacity:1"
         offset="0"
         id="stop4734" />
      <stop
         id="stop4746"
         offset="0.45615751"
         style="stop-color:#bfdbd7;stop-opacity:1" />
      <stop
         id="stop4742"
         offset="0.53911948"
         style="stop-color:#9ea2a5;stop-opacity:0.99215686" />
      <stop
         style="stop-color:#d0e6ee;stop-opacity:1"
         offset="0.66273332"
         id="stop4744" />
      <stop
         style="stop-color:#def1f3;stop-opacity:1"
         offset="1"
         id="stop4736" />
    </linearGradient>
    <linearGradient
       id="linearGradient6139-0">
      <stop
         id="stop6141-2"
         offset="0"
         style="stop-color:#b7b7b7;stop-opacity:1;" />
      <stop
         style="stop-color:#ffffff;stop-opacity:1;"
         offset="0.25"
         id="stop6151-0" />
      <stop
         style="stop-color:#9d9d9d;stop-opacity:1;"
         offset="0.5"
         id="stop6147-1" />
      <stop
         id="stop6149-4"
         offset="0.75"
         style="stop-color:#fafafa;stop-opacity:1;" />
      <stop
         id="stop6143-4"
         offset="1"
         style="stop-color:#b7b7b7;stop-opacity:1;" />
    </linearGradient>
    <linearGradient
       id="linearGradient4091-0-3-0-7">
      <stop
         style="stop-color:#ffffff;stop-opacity:1;"
         offset="0"
         id="stop4093-3-6-4-2" />
      <stop
         id="stop4099-6-1-8-3"
         offset="0.80000001"
         style="stop-color:#ffffff;stop-opacity:1;" />
      <stop
         style="stop-color:#ffffff;stop-opacity:0;"
         offset="1"
         id="stop4095-1-0-7-9" />
    </linearGradient>
    <linearGradient
       inkscape:collect="always"
       xlink:href="#linearGradient3832-0-6-1-1"
       id="linearGradient3120"
       gradientUnits="userSpaceOnUse"
       gradientTransform="matrix(1.1353753,0,0,1.0078931,73.50041,-36.082189)"
       x1="-94"
       y1="82.984398"
       x2="-10.187523"
       y2="82.984398" />
    <linearGradient
       id="linearGradient3832-0-6-1-1">
      <stop
         style="stop-color:#000000;stop-opacity:1;"
         offset="0"
         id="stop3834-6-3-7-1" />
      <stop
         id="stop3872-2-4"
         offset="0.1"
         style="stop-color:#000000;stop-opacity:0.58823532;" />
      <stop
         style="stop-color:#000000;stop-opacity:0.58823532;"
         offset="0.89999998"
         id="stop3844-6-2-7-6" />
      <stop
         style="stop-color:#000000;stop-opacity:1;"
         offset="1"
         id="stop3836-5-0-2-9" />
    </linearGradient>
    <linearGradient
       id="linearGradient5700">
      <stop
         id="stop5702"
         offset="0"
         style="stop-color:#ffffff;stop-opacity:0.40969163" />
      <stop
         style="stop-color:#ffffff;stop-opacity:0.85135138;"
         offset="0.03681535"
         id="stop5704" />
      <stop
         id="stop5706"
         offset="0.06506088"
         style="stop-color:#ffffff;stop-opacity:0;" />
      <stop
         style="stop-color:#ffffff;stop-opacity:0;"
         offset="0.94493848"
         id="stop5712" />
      <stop
         style="stop-color:#ffffff;stop-opacity:0.85135138;"
         offset="0.96582276"
         id="stop5710" />
      <stop
         id="stop5708"
         offset="1"
         style="stop-color:#ffffff;stop-opacity:0.56387663" />
    </linearGradient>
    <linearGradient
       id="linearGradient1218">
      <stop
         id="stop1212"
         offset="0"
         style="stop-color:#ffffff;stop-opacity:0.01677852" />
      <stop
         style="stop-color:#ffffff;stop-opacity:1;"
         offset="0.17869484"
         id="stop1220" />
      <stop
         style="stop-color:#ffffff;stop-opacity:1;"
         offset="0.80000001"
         id="stop1214" />
      <stop
         id="stop1216"
         offset="1"
         style="stop-color:#ffffff;stop-opacity:0.02348993" />
    </linearGradient>
    <linearGradient
       id="linearGradient6139-0-75">
      <stop
         id="stop6141-2-3"
         offset="0"
         style="stop-color:#bdb1b1;stop-opacity:1" />
      <stop
         style="stop-color:#ffffff;stop-opacity:1;"
         offset="0.25"
         id="stop6151-0-5" />
      <stop
         style="stop-color:#a49696;stop-opacity:1"
         offset="0.5"
         id="stop6147-1-6" />
      <stop
         id="stop6149-4-2"
         offset="0.75"
         style="stop-color:#fbf9f9;stop-opacity:1;" />
      <stop
         id="stop6143-4-9"
         offset="1"
         style="stop-color:#bdb1b1;stop-opacity:1" />
    </linearGradient>
    <clipPath
       id="clipPath4156-4-1"
       clipPathUnits="userSpaceOnUse">
      <path
         inkscape:connector-curvature="0"
         id="path4158-0-8"
         d="m 27.046336,-55.695463 -14.21366,13.321486 h 0.06127 l 15.653407,21.770763 10.231384,-10.546177 C 38.561832,-32.30156 27.468089,-54.819245 27.046336,-55.695463 Z M 9.6468554,-39.382809 -5.2407289,-25.32124 15.987863,-7.8059573 26.372412,-18.382966 Z m 31.4906096,12.951445 -9.741259,9.713584 8.944804,12.4580526 7.780753,-7.5550056 z m -49.8397109,4.378822 -13.7541661,12.9822847 26.2830181,13.84571 0.06127,-0.0617 -0.122531,-0.0617 L 13.598503,-5.4007374 -8.7022409,-22.052595 Z m 38.0154159,7.400825 -9.802525,9.7752596 11.579232,9.5594001 7.62759,-7.40083 -8.669108,-11.0087257 z m 20.187073,5.6739697 -7.382526,7.2158 6.187844,8.54179 5.820249,-6.13651996 z m -32.195166,6.32154 -9.5574606,9.49772 13.6622686,7.1849703 7.933918,-7.6783603 z m 23.311629,2.37443004 -7.10683,6.93826996 8.362778,6.9074403 5.360756,-5.6739699 -0.06127,-0.0925 -0.0919,0.12335 -6.463539,-8.20258036 z m -8.730374,8.54178036 -7.505057,7.3391599 10.353916,5.45811 c 1.397496,-1.32103 5.67514,-6.12292 5.850882,-6.32154 z"
         style="opacity:0.6;fill:#ffffff;fill-opacity:1;stroke:none" />
    </clipPath>
    <linearGradient
       gradientTransform="matrix(-1.3783144,1.2009005,-1.2251361,-1.3503034,1354.9038,-244.77384)"
       gradientUnits="userSpaceOnUse"
       xlink:href="#linearGradient3832-0-6-1-1"
       id="linearGradient3811"
       y2="357.89178"
       x2="639.46515"
       y1="349.10172"
       x1="647.27832" />
    <linearGradient
       id="linearGradient3183-0">
      <stop
         offset="0"
         style="stop-color:#c80000;stop-opacity:1"
         id="stop3185-9" />
      <stop
         offset="1"
         style="stop-color:#f3604d;stop-opacity:1"
         id="stop3187-6" />
    </linearGradient>
    <clipPath
       clipPathUnits="userSpaceOnUse"
       id="clipPath4156-4-1-0">
      <path
         style="opacity:0.6;fill:#ffffff;fill-opacity:1;stroke:none"
         d="m 27.046336,-55.695463 -14.21366,13.321486 h 0.06127 l 15.653407,21.770763 10.231384,-10.546177 C 38.561832,-32.30156 27.468089,-54.819245 27.046336,-55.695463 Z M 9.6468554,-39.382809 -5.2407289,-25.32124 15.987863,-7.8059573 26.372412,-18.382966 Z m 31.4906096,12.951445 -9.741259,9.713584 8.944804,12.4580526 7.780753,-7.5550056 z m -49.8397109,4.378822 -13.7541661,12.9822847 26.2830181,13.84571 0.06127,-0.0617 -0.122531,-0.0617 L 13.598503,-5.4007374 -8.7022409,-22.052595 Z m 38.0154159,7.400825 -9.802525,9.7752596 11.579232,9.5594001 7.62759,-7.40083 -8.669108,-11.0087257 z m 20.187073,5.6739697 -7.382526,7.2158 6.187844,8.54179 5.820249,-6.13651996 z m -32.195166,6.32154 -9.5574606,9.49772 13.6622686,7.1849703 7.933918,-7.6783603 z m 23.311629,2.37443004 -7.10683,6.93826996 8.362778,6.9074403 5.360756,-5.6739699 -0.06127,-0.0925 -0.0919,0.12335 -6.463539,-8.20258036 z m -8.730374,8.54178036 -7.505057,7.3391599 10.353916,5.45811 c 1.397496,-1.32103 5.67514,-6.12292 5.850882,-6.32154 z"
         id="path4158-0-8-9"
         inkscape:connector-curvature="0" />
    </clipPath>
    <clipPath
       id="clipPath4156-4-1-06"
       clipPathUnits="userSpaceOnUse">
      <path
         inkscape:connector-curvature="0"
         id="path4158-0-8-2"
         d="m 27.046336,-55.695463 -14.21366,13.321486 h 0.06127 l 15.653407,21.770763 10.231384,-10.546177 C 38.561832,-32.30156 27.468089,-54.819245 27.046336,-55.695463 Z M 9.6468554,-39.382809 -5.2407289,-25.32124 15.987863,-7.8059573 26.372412,-18.382966 Z m 31.4906096,12.951445 -9.741259,9.713584 8.944804,12.4580526 7.780753,-7.5550056 z m -49.8397109,4.378822 -13.7541661,12.9822847 26.2830181,13.84571 0.06127,-0.0617 -0.122531,-0.0617 L 13.598503,-5.4007374 -8.7022409,-22.052595 Z m 38.0154159,7.400825 -9.802525,9.7752596 11.579232,9.5594001 7.62759,-7.40083 -8.669108,-11.0087257 z m 20.187073,5.6739697 -7.382526,7.2158 6.187844,8.54179 5.820249,-6.13651996 z m -32.195166,6.32154 -9.5574606,9.49772 13.6622686,7.1849703 7.933918,-7.6783603 z m 23.311629,2.37443004 -7.10683,6.93826996 8.362778,6.9074403 5.360756,-5.6739699 -0.06127,-0.0925 -0.0919,0.12335 -6.463539,-8.20258036 z m -8.730374,8.54178036 -7.505057,7.3391599 10.353916,5.45811 c 1.397496,-1.32103 5.67514,-6.12292 5.850882,-6.32154 z"
         style="opacity:0.6;fill:#ffffff;fill-opacity:1;stroke:none" />
    </clipPath>
    <linearGradient
       gradientTransform="matrix(1.1353753,0,0,1.1336634,-40.037123,-46.787627)"
       y2="47.000011"
       x2="90"
       y1="47.000011"
       x1="6"
       gradientUnits="userSpaceOnUse"
       id="linearGradient5021-8"
       xlink:href="#linearGradient6139-0-7"
       inkscape:collect="always" />
    <linearGradient
       id="linearGradient6139-0-7">
      <stop
         id="stop6141-2-5"
         offset="0"
         style="stop-color:#adbac1;stop-opacity:1" />
      <stop
         style="stop-color:#ffffff;stop-opacity:1;"
         offset="0.25"
         id="stop6151-0-3" />
      <stop
         style="stop-color:#adbac1;stop-opacity:1"
         offset="0.5"
         id="stop6147-1-5" />
      <stop
         id="stop6149-4-6"
         offset="0.75"
         style="stop-color:#ffffff;stop-opacity:1" />
      <stop
         id="stop6143-4-2"
         offset="1"
         style="stop-color:#adbac1;stop-opacity:1" />
    </linearGradient>
    <radialGradient
       inkscape:collect="always"
       xlink:href="#linearGradient4091-0-3-0-7"
       id="radialGradient3118"
       gradientUnits="userSpaceOnUse"
       gradientTransform="matrix(-1.2173183,0,0,-0.99197842,72.892178,-67.90267)"
       cx="48"
       cy="-27"
       fx="48"
       fy="-27"
       r="42" />
    <linearGradient
       inkscape:collect="always"
       xlink:href="#linearGradient5700"
       id="linearGradient5698-0"
       gradientUnits="userSpaceOnUse"
       gradientTransform="matrix(1.1353753,0,0,1.1336634,-40.037126,-46.78767)"
       x1="6"
       y1="47.000011"
       x2="90"
       y2="47.000011" />
    <linearGradient
       inkscape:collect="always"
       xlink:href="#linearGradient1218"
       id="linearGradient1210"
       x1="4.1612563"
       y1="42.203571"
       x2="24.760529"
       y2="42.203571"
       gradientUnits="userSpaceOnUse"
       gradientTransform="matrix(0.90319219,0,0,0.86167332,1.3999288,5.0375613)" />
    <clipPath
       clipPathUnits="userSpaceOnUse"
       id="clipPath4156-4-1-0-3">
      <path
         style="opacity:0.6;fill:#ffffff;fill-opacity:1;stroke:none"
         d="m 27.046336,-55.695463 -14.21366,13.321486 h 0.06127 l 15.653407,21.770763 10.231384,-10.546177 C 38.561832,-32.30156 27.468089,-54.819245 27.046336,-55.695463 Z M 9.6468554,-39.382809 -5.2407289,-25.32124 15.987863,-7.8059573 26.372412,-18.382966 Z m 31.4906096,12.951445 -9.741259,9.713584 8.944804,12.4580526 7.780753,-7.5550056 z m -49.8397109,4.378822 -13.7541661,12.9822847 26.2830181,13.84571 0.06127,-0.0617 -0.122531,-0.0617 L 13.598503,-5.4007374 -8.7022409,-22.052595 Z m 38.0154159,7.400825 -9.802525,9.7752596 11.579232,9.5594001 7.62759,-7.40083 -8.669108,-11.0087257 z m 20.187073,5.6739697 -7.382526,7.2158 6.187844,8.54179 5.820249,-6.13651996 z m -32.195166,6.32154 -9.5574606,9.49772 13.6622686,7.1849703 7.933918,-7.6783603 z m 23.311629,2.37443004 -7.10683,6.93826996 8.362778,6.9074403 5.360756,-5.6739699 -0.06127,-0.0925 -0.0919,0.12335 -6.463539,-8.20258036 z m -8.730374,8.54178036 -7.505057,7.3391599 10.353916,5.45811 c 1.397496,-1.32103 5.67514,-6.12292 5.850882,-6.32154 z"
         id="path4158-0-8-9-6"
         inkscape:connector-curvature="0" />
    </clipPath>
    <linearGradient
       inkscape:collect="always"
       xlink:href="#linearGradient6139-0-7"
       id="linearGradient1043"
       gradientUnits="userSpaceOnUse"
       gradientTransform="matrix(1.1353753,0,0,1.1336634,-40.037123,-46.787627)"
       x1="6"
       y1="47.000011"
       x2="90"
       y2="47.000011" />
    <clipPath
       id="clipPath4156-4-1-6"
       clipPathUnits="userSpaceOnUse">
      <path
         inkscape:connector-curvature="0"
         id="path4158-0-8-8"
         d="m 27.046336,-55.695463 -14.21366,13.321486 h 0.06127 l 15.653407,21.770763 10.231384,-10.546177 C 38.561832,-32.30156 27.468089,-54.819245 27.046336,-55.695463 Z M 9.6468554,-39.382809 -5.2407289,-25.32124 15.987863,-7.8059573 26.372412,-18.382966 Z m 31.4906096,12.951445 -9.741259,9.713584 8.944804,12.4580526 7.780753,-7.5550056 z m -49.8397109,4.378822 -13.7541661,12.9822847 26.2830181,13.84571 0.06127,-0.0617 -0.122531,-0.0617 L 13.598503,-5.4007374 -8.7022409,-22.052595 Z m 38.0154159,7.400825 -9.802525,9.7752596 11.579232,9.5594001 7.62759,-7.40083 -8.669108,-11.0087257 z m 20.187073,5.6739697 -7.382526,7.2158 6.187844,8.54179 5.820249,-6.13651996 z m -32.195166,6.32154 -9.5574606,9.49772 13.6622686,7.1849703 7.933918,-7.6783603 z m 23.311629,2.37443004 -7.10683,6.93826996 8.362778,6.9074403 5.360756,-5.6739699 -0.06127,-0.0925 -0.0919,0.12335 -6.463539,-8.20258036 z m -8.730374,8.54178036 -7.505057,7.3391599 10.353916,5.45811 c 1.397496,-1.32103 5.67514,-6.12292 5.850882,-6.32154 z"
         style="opacity:0.6;fill:#ffffff;fill-opacity:1;stroke:none" />
    </clipPath>
    <clipPath
       clipPathUnits="userSpaceOnUse"
       id="clipPath4156-4-1-0-7">
      <path
         style="opacity:0.6;fill:#ffffff;fill-opacity:1;stroke:none"
         d="m 27.046336,-55.695463 -14.21366,13.321486 h 0.06127 l 15.653407,21.770763 10.231384,-10.546177 C 38.561832,-32.30156 27.468089,-54.819245 27.046336,-55.695463 Z M 9.6468554,-39.382809 -5.2407289,-25.32124 15.987863,-7.8059573 26.372412,-18.382966 Z m 31.4906096,12.951445 -9.741259,9.713584 8.944804,12.4580526 7.780753,-7.5550056 z m -49.8397109,4.378822 -13.7541661,12.9822847 26.2830181,13.84571 0.06127,-0.0617 -0.122531,-0.0617 L 13.598503,-5.4007374 -8.7022409,-22.052595 Z m 38.0154159,7.400825 -9.802525,9.7752596 11.579232,9.5594001 7.62759,-7.40083 -8.669108,-11.0087257 z m 20.187073,5.6739697 -7.382526,7.2158 6.187844,8.54179 5.820249,-6.13651996 z m -32.195166,6.32154 -9.5574606,9.49772 13.6622686,7.1849703 7.933918,-7.6783603 z m 23.311629,2.37443004 -7.10683,6.93826996 8.362778,6.9074403 5.360756,-5.6739699 -0.06127,-0.0925 -0.0919,0.12335 -6.463539,-8.20258036 z m -8.730374,8.54178036 -7.505057,7.3391599 10.353916,5.45811 c 1.397496,-1.32103 5.67514,-6.12292 5.850882,-6.32154 z"
         id="path4158-0-8-9-2"
         inkscape:connector-curvature="0" />
    </clipPath>
    <linearGradient
       inkscape:collect="always"
       xlink:href="#linearGradient4738"
       id="linearGradient4740"
       x1="-18.107407"
       y1="-33.164921"
       x2="39.041641"
       y2="31.472052"
       gradientUnits="userSpaceOnUse"
       gradientTransform="matrix(0.95684011,0,0,0.47988138,0.99354594,-16.281461)" />
    <linearGradient
       inkscape:collect="always"
       xlink:href="#linearGradient3832-0-6-1-1"
       id="linearGradient3198"
       gradientUnits="userSpaceOnUse"
       gradientTransform="matrix(0.9534489,0,0,0.5469959,0.768087,13.945503)"
       x1="-18.107407"
       y1="-33.164921"
       x2="39.041641"
       y2="31.472052" />
  </defs>
  <sodipodi:namedview
     id="base"
     pagecolor="#ffffff"
     bordercolor="#666666"
     borderopacity="1.0"
     inkscape:pageopacity="0.0"
     inkscape:pageshadow="2"
     inkscape:zoom="4.9013006"
     inkscape:cx="18.362473"
     inkscape:cy="15.81213"
     inkscape:document-units="px"
     inkscape:current-layer="g1298"
     showgrid="false"
     inkscape:showpageshadow="false"
     units="px"
     inkscape:lockguides="true"
     inkscape:window-width="1920"
     inkscape:window-height="1025"
     inkscape:window-x="0"
     inkscape:window-y="27"
     inkscape:window-maximized="1"
     inkscape:snap-global="false"
     inkscape:pagecheckerboard="1">
    <sodipodi:guide
       position="0,0"
       orientation="0,96"
       id="guide1621"
       inkscape:locked="true" />
    <sodipodi:guide
       position="96.000002,0"
       orientation="-96,0"
       id="guide1623"
       inkscape:locked="true" />
    <sodipodi:guide
       position="96.000002,96.000002"
       orientation="0,-96"
       id="guide1625"
       inkscape:locked="true" />
    <sodipodi:guide
       position="0,96.000002"
       orientation="96,0"
       id="guide1627"
       inkscape:locked="true" />
  </sodipodi:namedview>
  <metadata
     id="metadata1069">
    <rdf:RDF>
      <cc:Work
         rdf:about="">
        <dc:format>image/svg+xml</dc:format>
        <dc:type
           rdf:resource="http://purl.org/dc/dcmitype/StillImage" />
        <dc:date>2017</dc:date>
        <dc:creator>
          <cc:Agent>
            <dc:title>Cristian Pozzessere &quot;ilnanny&quot;</dc:title>
          </cc:Agent>
        </dc:creator>
        <dc:subject>
          <rdf:Bag>
            <rdf:li>Global language</rdf:li>
          </rdf:Bag>
        </dc:subject>
        <dc:description>Playing with Inkscape on Gnu/Linux O. S.</dc:description>
        <dc:contributor>
          <cc:Agent>
            <dc:title>In the night, alone like a dog.</dc:title>
          </cc:Agent>
        </dc:contributor>
        <cc:license
           rdf:resource="http://creativecommons.org/licenses/by-sa/4.0/" />
      </cc:Work>
      <cc:License
         rdf:about="http://creativecommons.org/licenses/by-sa/4.0/">
        <cc:permits
           rdf:resource="http://creativecommons.org/ns#Reproduction" />
        <cc:permits
           rdf:resource="http://creativecommons.org/ns#Distribution" />
        <cc:requires
           rdf:resource="http://creativecommons.org/ns#Notice" />
        <cc:requires
           rdf:resource="http://creativecommons.org/ns#Attribution" />
        <cc:permits
           rdf:resource="http://creativecommons.org/ns#DerivativeWorks" />
        <cc:requires
           rdf:resource="http://creativecommons.org/ns#ShareAlike" />
      </cc:License>
    </rdf:RDF>
  </metadata>
  <g
     inkscape:label="Livello 1"
     inkscape:groupmode="layer"
     id="layer1"
     transform="translate(0,-1026.5197)">
    <g
       transform="matrix(1.0034441,0,0,1.0049592,33.489303,1067.9929)"
       id="g1298">
      <path
         style="display:inline;opacity:1;fill:url(#linearGradient1043);fill-opacity:1;fill-rule:nonzero;stroke:none;stroke-width:1"
         d="m 55.334402,-41.119238 h -81.747021 c -3.773988,0 -6.812252,3.033656 -6.812252,6.801968 v 81.623811 c 0,3.768213 3.038264,6.801968 6.812252,6.801968 h 81.747021 c 3.773988,0 6.812252,-3.033755 6.812252,-6.801968 V -34.31727 c 0,-3.768312 -3.038264,-6.801968 -6.812252,-6.801968 z"
         id="rect4251-1"
         inkscape:connector-curvature="0" />
      <path
         inkscape:connector-curvature="0"
         id="path968"
         d="m 55.334402,-41.119238 h -81.747021 c -3.773988,0 -6.812252,3.033656 -6.812252,6.801968 v 81.623811 c 0,3.768213 3.038264,6.801968 6.812252,6.801968 h 81.747021 c 3.773988,0 6.812252,-3.033755 6.812252,-6.801968 V -34.31727 c 0,-3.768312 -3.038264,-6.801968 -6.812252,-6.801968 z"
         style="display:inline;opacity:1;fill:url(#linearGradient5021-8);fill-opacity:1;fill-rule:nonzero;stroke:none;stroke-width:1" />
      <path
         style="display:inline;opacity:0.25;fill:#132639;fill-opacity:1;fill-rule:nonzero;stroke:none;stroke-width:1"
         d="m 55.334402,-40.506347 h -81.747021 c -3.773988,0 -6.812252,3.033656 -6.812252,6.801968 v 81.623811 c 0,3.768213 3.038264,6.801968 6.812252,6.801968 h 81.747021 c 3.773988,0 6.812252,-3.033755 6.812252,-6.801968 v -81.623811 c 0,-3.768312 -3.038264,-6.801968 -6.812252,-6.801968 z"
         id="path4748"
         inkscape:connector-curvature="0" />
      <path
         sodipodi:nodetypes="sssssssss"
         inkscape:connector-curvature="0"
         style="color:#000000;display:inline;overflow:visible;visibility:visible;opacity:1;fill:url(#linearGradient3198);fill-opacity:1.0;fill-rule:nonzero;stroke:none;stroke-width:1.29665;marker:none;enable-background:accumulate"
         d="m -18.426446,-5.3307955 h 65.964427 c 2.149666,0 3.880261,0.989577 3.880261,2.2187925 v 34.391261 c 0,1.229217 -1.730595,2.218793 -3.880261,2.218793 h -65.964427 c -2.149663,0 -3.88026,-0.989576 -3.88026,-2.218793 V -3.112003 c 0,-1.2292155 1.730597,-2.2187925 3.88026,-2.2187925 z"
         id="path3196" />
      <path
         sodipodi:nodetypes="sssccss"
         inkscape:connector-curvature="0"
         style="color:#000000;display:inline;overflow:visible;visibility:visible;opacity:1;fill:url(#linearGradient4740);fill-opacity:1;fill-rule:nonzero;stroke:none;stroke-width:1.21667;marker:none;enable-background:accumulate"
         d="m -18.269258,-33.192628 h 66.199049 c 2.157313,0 3.894063,0.868159 3.894063,1.946555 v 30.1715712 c -73.993616,0.53633738 -0.0015,0.29955818 -73.987173,0 V -31.246073 c 0,-1.078396 1.736752,-1.946555 3.894061,-1.946555 z"
         id="path4970" />
      <path
         style="display:inline;opacity:0.45;fill:url(#radialGradient3118);fill-opacity:1;fill-rule:nonzero;stroke:none;stroke-width:1.13451898"
         d="m -26.412616,-41.119253 c -3.773988,0 -6.812252,3.033683 -6.812252,6.801981 v 17.004951 h 1.135375 v -17.004951 c 0,-3.159857 2.512245,-5.668317 5.676877,-5.668317 h 81.747021 c 3.164632,0 5.676877,2.50846 5.676877,5.668317 v 17.004951 h 1.135375 v -17.004951 c 0,-3.768298 -3.038264,-6.801981 -6.812252,-6.801981 z"
         id="path4236-5"
         inkscape:connector-curvature="0" />
      <path
         inkscape:connector-curvature="0"
         id="path4242-5"
         d="m -33.224868,41.005862 v 1.007893 1.007893 1.007894 2.015786 2.015786 c 0,3.350236 3.038264,6.047359 6.812252,6.047359 h 81.747021 c 3.773988,0 6.812252,-2.697123 6.812252,-6.047359 v -2.015786 -2.015786 -1.007894 -1.007893 -1.007893 c 0,3.350236 -3.038264,6.047359 -6.812252,6.047359 h -81.747021 c -3.773988,0 -6.812252,-2.697123 -6.812252,-6.047359 z"
         style="opacity:0.58899997;fill:url(#linearGradient3120);fill-opacity:1;fill-rule:nonzero;stroke:none;stroke-width:1.13451898" />
      <rect
         ry="4.5701809"
         rx="3.8082807"
         y="38.570503"
         x="5.2093325"
         height="5.6654792"
         width="18.503119"
         id="rect1074"
         style="opacity:1;fill:url(#linearGradient1210);fill-opacity:1;fill-rule:evenodd;stroke:#3f3f3f;stroke-width:1.06561768;stroke-linecap:square;stroke-linejoin:round;stroke-miterlimit:4;stroke-dasharray:none;stroke-dashoffset:0;stroke-opacity:1;paint-order:fill markers stroke" />
      <path
         style="color:#000000;display:inline;overflow:visible;visibility:visible;opacity:1;fill:#0d1625;fill-opacity:0.59808613;fill-rule:nonzero;stroke:none;stroke-width:1.7954812;marker:none;enable-background:accumulate"
         d="m -20.131685,-35.240306 c -2.254621,0 -4.068603,1.80873 -4.068603,4.055943 v 62.872978 c 0,2.247213 1.813982,4.055943 4.068603,4.055943 H 49.05458 c 2.254619,0 4.0686,-1.80873 4.0686,-4.055943 v -62.872978 c 0,-2.247213 -1.813981,-4.055943 -4.0686,-4.055943 z m 2.024279,2.075384 H 47.0303 c 2.122739,0 3.831433,1.703803 3.831433,3.819595 v 59.194906 c 0,2.115792 -1.708694,3.8195 -3.831433,3.8195 h -65.137706 c -2.12274,0 -3.831434,-1.703708 -3.831434,-3.8195 v -59.194906 c 0,-2.115792 1.708694,-3.819595 3.831434,-3.819595 z"
         id="path904-4"
         inkscape:connector-curvature="0" />
      <path
         inkscape:connector-curvature="0"
         id="path5696-5"
         d="m 55.334403,-41.119281 h -81.747019 c -3.774,0 -6.81225,3.033656 -6.81225,6.801968 v 81.623811 c 0,3.768213 3.03825,6.801968 6.81225,6.801968 h 81.747019 c 3.773982,0 6.812248,-3.033755 6.812248,-6.801968 v -81.623811 c 0,-3.768312 -3.038266,-6.801968 -6.812248,-6.801968 z"
         style="display:inline;opacity:1;fill:url(#linearGradient5698-0);fill-opacity:1;fill-rule:nonzero;stroke:none;stroke-width:1" />
      <path
         style="fill:#e1e7e9;fill-opacity:1;stroke:#fdfdfd;stroke-width:0.296802;stroke-miterlimit:4;stroke-dasharray:none;stroke-opacity:1"
         d="m -5.7609397,5.4955904 h -5.8059733 c -0.801592,0 -1.451576,0.6661514 -1.451576,1.4875858 v 5.9501868 c 0,0.821434 0.649984,1.487586 1.451576,1.487586 h 5.8059733 c 0.8015872,0 1.4515753,-0.666152 1.4515753,-1.487586 V 6.9831762 c 0,-0.8214344 -0.6498214,-1.4875858 -1.4515753,-1.4875858 z"
         id="path20-5-6"
         inkscape:connector-curvature="0" />
      <path
         style="fill:#ffdc69;stroke:#fdfdfd;stroke-width:0.400465;stroke-miterlimit:4;stroke-dasharray:none;stroke-opacity:1"
         d="m 11.40118,-3.8887428 h 8.817691 c 1.217394,0 2.204545,-0.8010028 2.204545,-1.7889843 v -7.1556259 c 0,-0.987903 -0.987151,-1.788984 -2.204545,-1.788984 H 11.40118 c -1.217394,0 -2.2045432,0.801081 -2.2045432,1.788984 v 7.1556259 c 0,0.9879815 0.9871492,1.7889843 2.2045432,1.7889843 z"
         id="path22-9-1"
         inkscape:connector-curvature="0" />
      <path
         style="fill:#4abf40;fill-opacity:1;stroke:#fdfdfd;stroke-width:0.400465;stroke-miterlimit:4;stroke-dasharray:none;stroke-opacity:1"
         d="m 32.322229,-3.8887428 h 8.817684 c 1.2174,0 2.20455,-0.8010028 2.20455,-1.7889843 v -7.1556259 c 0,-0.987903 -0.98715,-1.788984 -2.20455,-1.788984 h -8.817684 c -1.217394,0 -2.204544,0.801081 -2.204544,1.788984 v 7.1556259 c 0,0.9879815 0.986895,1.7889843 2.204544,1.7889843 z m 0,-5.366797 c 0,-0.9879032 0.987148,-1.7889852 2.204545,-1.7889852 h 4.408846 c 1.217395,0 2.204542,0.801082 2.204542,1.7889852 v 0 c 0,0.9879816 -0.987147,1.7890625 -2.204542,1.7890625 h -4.408846 c -1.217644,0 -2.204545,-0.8010809 -2.204545,-1.7890625 z"
         id="path24-2-0"
         inkscape:connector-curvature="0" />
      <path
         style="fill:#468cbe;stroke:#fdfdfd;stroke-width:0.400465;stroke-miterlimit:4;stroke-dasharray:none;stroke-opacity:1"
         d="m -9.5198622,-3.8887428 h 8.81768919 c 1.21739204,0 2.20454711,-0.8010028 2.20454711,-1.7889843 v -7.1556259 c 0,-0.987903 -0.98715507,-1.788984 -2.20454711,-1.788984 H -9.5198622 c -1.2173938,0 -2.2045458,0.801081 -2.2045458,1.788984 v 7.1556259 c 2.48e-4,0.9879815 0.987152,1.7889843 2.2045458,1.7889843 z m 0,-5.366797 c 0,-0.9879032 0.9871544,-1.7889852 2.2045492,-1.7889852 h 4.4088421 c 1.2173939,0 2.20454356,0.801082 2.20454356,1.7889852 v 0 c 0,0.9879816 -0.98714966,1.7890625 -2.20454356,1.7890625 H -7.315313 c -1.2173948,0 -2.2045492,-0.8010809 -2.2045492,-1.7890625 z"
         id="path26-2-6"
         inkscape:connector-curvature="0" />
      <path
         style="fill:#cdb0c9;fill-opacity:1;stroke:#fdfdfd;stroke-width:0.400465;stroke-miterlimit:4;stroke-dasharray:none;stroke-opacity:1"
         d="m 11.40118,-18.20015 h 8.817691 c 1.217394,0 2.204545,-0.801158 2.204545,-1.789061 v -7.155627 c 0,-0.987903 -0.987151,-1.788983 -2.204545,-1.788983 H 11.40118 c -1.217394,0 -2.2045432,0.80108 -2.2045432,1.788983 v 7.155627 c 0,0.988137 0.9871492,1.789061 2.2045432,1.789061 z m 0,-5.366875 c 0,-0.987903 0.987153,-1.788985 2.204552,-1.788985 h 4.408843 c 1.217391,0 2.204544,0.801082 2.204544,1.788985 v 0 c 0,0.987904 -0.987153,1.789064 -2.204544,1.789064 h -4.408843 c -1.217649,0 -2.204552,-0.800926 -2.204552,-1.789064 z"
         id="path28-8-3"
         inkscape:connector-curvature="0" />
      <path
         style="fill:#00ffff;stroke:#fdfdfd;stroke-width:0.400465;stroke-miterlimit:4;stroke-dasharray:none;stroke-opacity:1"
         d="m 32.322229,-18.20015 h 8.817684 c 1.2174,0 2.20455,-0.801158 2.20455,-1.789061 v -7.155627 c 0,-0.987903 -0.98715,-1.788983 -2.20455,-1.788983 h -8.817684 c -1.217394,0 -2.204544,0.80108 -2.204544,1.788983 v 7.155627 c 0,0.988137 0.986895,1.789061 2.204544,1.789061 z"
         id="path30-9-2"
         inkscape:connector-curvature="0" />
      <path
         style="fill:#d7788b;fill-opacity:1;stroke:#fdfdfd;stroke-width:0.400465;stroke-miterlimit:4;stroke-dasharray:none;stroke-opacity:1"
         d="m -9.5198622,-18.20015 h 8.81768919 c 1.21739204,0 2.20454711,-0.801158 2.20454711,-1.789061 v -7.155627 c 0,-0.987903 -0.98715507,-1.788983 -2.20454711,-1.788983 H -9.5198622 c -1.2173938,0 -2.2045458,0.80108 -2.2045458,1.788983 v 7.155627 c 2.48e-4,0.988137 0.987152,1.789061 2.2045458,1.789061 z m 4.4088443,-8.944688 c 2.4350442,0 4.40884489,1.601773 4.40884489,3.577813 0,1.975886 -1.97380069,3.577814 -4.40884489,3.577814 -2.4350406,0 -4.4088443,-1.601928 -4.4088443,-3.577814 0,-1.97604 1.9738037,-3.577813 4.4088443,-3.577813 z"
         id="path32-7-0"
         inkscape:connector-curvature="0" />
      <ellipse
         id="circle40-9-6"
         cy="-23.566906"
         cx="-5.1110191"
         style="fill:#ffdc69;stroke:#fdfdfd;stroke-width:0.400465;stroke-miterlimit:4;stroke-dasharray:none;stroke-opacity:1"
         rx="4.408844"
         ry="3.5778201" />
      <path
         style="fill:#468cbe;stroke:#fdfdfd;stroke-width:0.400465;stroke-miterlimit:4;stroke-dasharray:none;stroke-opacity:1"
         d="m 13.605479,-21.777961 h 4.408844 c 1.217394,0 2.204548,-0.80116 2.204548,-1.789064 v 0 c 0,-0.987903 -0.987154,-1.788985 -2.204548,-1.788985 h -4.408844 c -1.217396,0 -2.204545,0.801082 -2.204545,1.788985 v 0 c 2.46e-4,0.988138 0.987149,1.789064 2.204545,1.789064 z"
         id="path48-9-5"
         inkscape:connector-curvature="0" />
      <path
         style="fill:#ff6469;stroke:#fdfdfd;stroke-width:0.400465;stroke-miterlimit:4;stroke-dasharray:none;stroke-opacity:1"
         d="m 34.526523,-7.4664773 h 4.408844 c 1.217393,0 2.204546,-0.8010809 2.204546,-1.7890625 v 0 c 0,-0.9879032 -0.987153,-1.7889852 -2.204546,-1.7889852 h -4.408844 c -1.217393,0 -2.204545,0.801082 -2.204545,1.7889852 v 0 c 2.51e-4,0.9879816 0.987152,1.7890625 2.204545,1.7890625 z"
         id="path50-4-5"
         inkscape:connector-curvature="0" />
      <path
         style="fill:#ffffff;stroke:#fdfdfd;stroke-width:0.400465;stroke-miterlimit:4;stroke-dasharray:none;stroke-opacity:1"
         d="m -7.315313,-7.4664773 h 4.4088421 c 1.2173939,0 2.20454356,-0.8010809 2.20454356,-1.7890625 v 0 c 0,-0.9879032 -0.98714966,-1.7889852 -2.20454356,-1.7889852 H -7.315313 c -1.2173948,0 -2.2045492,0.801082 -2.2045492,1.7889852 v 0 c 0,0.9879816 0.9871544,1.7890625 2.2045492,1.7890625 z"
         id="path52-7-4"
         inkscape:connector-curvature="0" />
      <path
         sodipodi:type="star"
         style="opacity:1;fill:#ffffff;fill-opacity:1;stroke:#fdfdfd;stroke-width:0.5;stroke-miterlimit:4;stroke-dasharray:none;stroke-opacity:1"
         id="path1195-6"
         sodipodi:sides="5"
         sodipodi:cx="71.823952"
         sodipodi:cy="1043.6605"
         sodipodi:r1="5.5943375"
         sodipodi:r2="2.7971687"
         sodipodi:arg1="-0.26179939"
         sodipodi:arg2="0.36651914"
         inkscape:flatsided="false"
         inkscape:rounded="0"
         inkscape:randomized="0"
         d="m 77.227667,1042.2126 -2.792333,2.4503 0.435512,3.6894 -3.193287,-1.8984 -3.374238,1.5542 0.818773,-3.6236 -2.520906,-2.7288 3.699316,-0.3411 1.816233,-3.2407 1.46753,3.4128 z"
         inkscape:transform-center-x="-0.079597797"
         inkscape:transform-center-y="-0.37114105"
         transform="matrix(0.82135478,0,0,0.78101469,-22.276337,-838.30041)" />
      <path
         style="fill:#e1e7e9;fill-opacity:1;stroke:#fdfdfd;stroke-width:0.296802;stroke-miterlimit:4;stroke-dasharray:none;stroke-opacity:1"
         d="m -5.7609397,18.967991 h -5.8059733 c -0.801592,0 -1.451576,0.666152 -1.451576,1.487585 v 5.950189 c 0,0.821433 0.649984,1.487585 1.451576,1.487585 h 5.8059733 c 0.8015872,0 1.4515753,-0.666152 1.4515753,-1.487585 v -5.950189 c 0,-0.821433 -0.6498214,-1.487585 -1.4515753,-1.487585 z"
         id="path2951"
         inkscape:connector-curvature="0" />
      <path
         style="fill:#e1e7e9;fill-opacity:1;stroke:#fdfdfd;stroke-width:0.296802;stroke-miterlimit:4;stroke-dasharray:none;stroke-opacity:1"
         d="M 8.2450701,5.4955904 H 2.4390946 c -0.801589,0 -1.45157527,0.6661514 -1.45157527,1.4875858 v 5.9501868 c 0,0.821434 0.64998627,1.487586 1.45157527,1.487586 h 5.8059755 c 0.8015879,0 1.4515743,-0.666152 1.4515743,-1.487586 V 6.9831762 c 0,-0.8214344 -0.6498204,-1.4875858 -1.4515743,-1.4875858 z"
         id="path2953"
         inkscape:connector-curvature="0" />
      <path
         style="fill:#e1e7e9;fill-opacity:1;stroke:#fdfdfd;stroke-width:0.296802;stroke-miterlimit:4;stroke-dasharray:none;stroke-opacity:1"
         d="M 8.2450701,18.967991 H 2.4390946 c -0.801589,0 -1.45157527,0.666152 -1.45157527,1.487585 v 5.950189 c 0,0.821433 0.64998627,1.487585 1.45157527,1.487585 h 5.8059755 c 0.8015879,0 1.4515743,-0.666152 1.4515743,-1.487585 v -5.950189 c 0,-0.821433 -0.6498204,-1.487585 -1.4515743,-1.487585 z"
         id="path2955"
         inkscape:connector-curvature="0" />
      <path
         style="fill:#e1e7e9;fill-opacity:1;stroke:#fdfdfd;stroke-width:0.296802;stroke-miterlimit:4;stroke-dasharray:none;stroke-opacity:1"
         d="m 24.043098,5.4955904 h -5.805974 c -0.801588,0 -1.451574,0.6661514 -1.451574,1.4875858 v 5.9501868 c 0,0.821434 0.649986,1.487586 1.451574,1.487586 h 5.805974 c 0.801586,0 1.451575,-0.666152 1.451575,-1.487586 V 6.9831762 c 0,-0.8214344 -0.649822,-1.4875858 -1.451575,-1.4875858 z"
         id="path2957"
         inkscape:connector-curvature="0" />
      <path
         style="fill:#e1e7e9;fill-opacity:1;stroke:#fdfdfd;stroke-width:0.296802;stroke-miterlimit:4;stroke-dasharray:none;stroke-opacity:1"
         d="m 24.043098,18.967991 h -5.805974 c -0.801588,0 -1.451574,0.666152 -1.451574,1.487585 v 5.950189 c 0,0.821433 0.649986,1.487585 1.451574,1.487585 h 5.805974 c 0.801586,0 1.451575,-0.666152 1.451575,-1.487585 v -5.950189 c 0,-0.821433 -0.649822,-1.487585 -1.451575,-1.487585 z"
         id="path2959"
         inkscape:connector-curvature="0" />
      <path
         style="fill:#e1e7e9;fill-opacity:1;stroke:#fdfdfd;stroke-width:0.296802;stroke-miterlimit:4;stroke-dasharray:none;stroke-opacity:1"
         d="m 39.31058,5.4955904 h -5.805973 c -0.801588,0 -1.451574,0.6661514 -1.451574,1.4875858 v 5.9501868 c 0,0.821434 0.649986,1.487586 1.451574,1.487586 h 5.805973 c 0.801589,0 1.451576,-0.666152 1.451576,-1.487586 V 6.9831762 c 0,-0.8214344 -0.649821,-1.4875858 -1.451576,-1.4875858 z"
         id="path2961"
         inkscape:connector-curvature="0" />
      <path
         style="fill:#e1e7e9;fill-opacity:1;stroke:#fdfdfd;stroke-width:0.296802;stroke-miterlimit:4;stroke-dasharray:none;stroke-opacity:1"
         d="m 39.31058,18.967991 h -5.805973 c -0.801588,0 -1.451574,0.666152 -1.451574,1.487585 v 5.950189 c 0,0.821433 0.649986,1.487585 1.451574,1.487585 h 5.805973 c 0.801589,0 1.451576,-0.666152 1.451576,-1.487585 v -5.950189 c 0,-0.821433 -0.649821,-1.487585 -1.451576,-1.487585 z"
         id="path2963"
         inkscape:connector-curvature="0" />
    </g>
  </g>
</svg>
