<?xml version="1.0" encoding="UTF-8" standalone="no"?>
<!-- Created with Inkscape (http://www.inkscape.org/) -->

<svg
   xmlns:dc="http://purl.org/dc/elements/1.1/"
   xmlns:cc="http://creativecommons.org/ns#"
   xmlns:rdf="http://www.w3.org/1999/02/22-rdf-syntax-ns#"
   xmlns:svg="http://www.w3.org/2000/svg"
   xmlns="http://www.w3.org/2000/svg"
   xmlns:xlink="http://www.w3.org/1999/xlink"
   xmlns:sodipodi="http://sodipodi.sourceforge.net/DTD/sodipodi-0.dtd"
   xmlns:inkscape="http://www.inkscape.org/namespaces/inkscape"
   width="96px"
   height="96px"
   id="svg15917"
   version="1.1"
   inkscape:version="0.48.5 r10040"
   sodipodi:docname="Nuovo documento 7">
  <defs
     id="defs15919">
    <radialGradient
       r="43.199203"
       fy="44.892841"
       fx="13.948145"
       cy="44.892841"
       cx="13.948145"
       gradientTransform="matrix(0.88832663,0,0,0.04919072,32.127379,-91.738788)"
       gradientUnits="userSpaceOnUse"
       id="radialGradient3833-1"
       xlink:href="#linearGradient4133-5"
       inkscape:collect="always" />
    <linearGradient
       inkscape:collect="always"
       id="linearGradient4133-5">
      <stop
         style="stop-color:#ffffff;stop-opacity:1;"
         offset="0"
         id="stop4135-4" />
      <stop
         style="stop-color:#ffffff;stop-opacity:0;"
         offset="1"
         id="stop4137-5" />
    </linearGradient>
    <radialGradient
       r="43.199203"
       fy="44.892841"
       fx="13.948145"
       cy="44.892841"
       cx="13.948145"
       gradientTransform="matrix(0.97513384,0,0,0.04919072,34.838261,81.559586)"
       gradientUnits="userSpaceOnUse"
       id="radialGradient4992"
       xlink:href="#linearGradient4133-5"
       inkscape:collect="always" />
    <linearGradient
       inkscape:collect="always"
       xlink:href="#linearGradient4213-7-8"
       id="linearGradient4967"
       gradientUnits="userSpaceOnUse"
       x1="2.7713892"
       y1="-28.64156"
       x2="50.527882"
       y2="14.514202" />
    <linearGradient
       inkscape:collect="always"
       id="linearGradient4213-7-8">
      <stop
         style="stop-color:#ffffff;stop-opacity:1;"
         offset="0"
         id="stop4215-6-5" />
      <stop
         style="stop-color:#ffffff;stop-opacity:0;"
         offset="1"
         id="stop4217-5-2" />
    </linearGradient>
    <clipPath
       clipPathUnits="userSpaceOnUse"
       id="clipPath4156-4-6">
      <path
         style="opacity:0.6;fill:#ffffff;fill-opacity:1;stroke:none"
         d="m 27.046336,-55.695463 -14.21366,13.321486 0.06127,0 15.653407,21.770763 10.231384,-10.546177 C 38.561832,-32.30156 27.468089,-54.819245 27.046336,-55.695463 z M 9.6468554,-39.382809 -5.2407289,-25.32124 15.987863,-7.8059573 26.372412,-18.382966 9.6468554,-39.382809 z m 31.4906096,12.951445 -9.741259,9.713584 8.944804,12.4580526 7.780753,-7.5550056 -6.984298,-14.616631 z m -49.8397109,4.378822 -13.7541661,12.9822847 26.2830181,13.84571 0.06127,-0.0617 -0.122531,-0.0617 L 13.598503,-5.4007374 -8.7022409,-22.052595 z m 38.0154159,7.400825 -9.802525,9.7752596 11.579232,9.5594001 7.62759,-7.40083 -8.669108,-11.0087257 -0.735189,-0.925104 z m 20.187073,5.6739697 -7.382526,7.2158 6.187844,8.54179 5.820249,-6.13651996 -4.625567,-9.62107004 z m -32.195166,6.32154 -9.5574606,9.49772 13.6622686,7.1849703 7.933918,-7.6783603 -12.038726,-9.00433 z m 23.311629,2.37443004 -7.10683,6.93826996 8.362778,6.9074403 5.360756,-5.6739699 -0.06127,-0.0925 -0.0919,0.12335 -6.463539,-8.20258036 z m -8.730374,8.54178036 -7.505057,7.3391599 10.353916,5.45811 c 1.397496,-1.32103 5.67514,-6.12292 5.850882,-6.32154 L 31.886332,8.2600031 z"
         id="path4158-0-3"
         inkscape:connector-curvature="0" />
    </clipPath>
    <linearGradient
       y2="45.017357"
       x2="20.758585"
       y1="-19.425636"
       x1="20.758585"
       gradientTransform="matrix(1.2092989,0,0,1.2092989,18.976817,18.182027)"
       gradientUnits="userSpaceOnUse"
       id="linearGradient3992-8-2"
       xlink:href="#linearGradient4281-6-7-0"
       inkscape:collect="always" />
    <linearGradient
       id="linearGradient4281-6-7-0">
      <stop
         id="stop4283-9-8-6"
         offset="0"
         style="stop-color:#1e1e1e;stop-opacity:1;" />
      <stop
         id="stop4285-8-3-1"
         offset="1"
         style="stop-color:#505050;stop-opacity:1;" />
    </linearGradient>
    <linearGradient
       gradientUnits="userSpaceOnUse"
       y2="20"
       x2="48"
       y1="50"
       x1="48"
       id="linearGradient3984-6"
       xlink:href="#linearGradient3963-86-4"
       inkscape:collect="always" />
    <linearGradient
       id="linearGradient3963-86-4"
       x1="10.406627"
       y1="2"
       x2="10.406627"
       y2="18.000771"
       gradientUnits="userSpaceOnUse">
      <stop
         style="stop-color:#ff381d;stop-opacity:1;"
         offset="0"
         id="stop3965-0-5" />
      <stop
         style="stop-color:#a00000;stop-opacity:1;"
         offset="1"
         id="stop3967-2-1" />
    </linearGradient>
    <clipPath
       id="clipPath4014-0-3"
       clipPathUnits="userSpaceOnUse">
      <path
         inkscape:connector-curvature="0"
         style="opacity:0.8;fill:#ff00ff;fill-opacity:1;fill-rule:nonzero;stroke:none;stroke-width:1;marker:none;visibility:visible;display:block;overflow:visible;enable-background:accumulate"
         d="m 46,20 c -1.108,0 -2,0.892 -2,2 l 0,16 c 0,1.108 0.892,2 2,2 l 4,0 c 1.108,0 2,-0.892 2,-2 l 0,-16 c 0,-1.108 -0.892,-2 -2,-2 l -4,0 z m 16.5625,4.53125 c -0.467572,-0.0015 -0.944554,0.163302 -1.3125,0.53125 l -2.65625,2.65625 c -1.43328,-0.833582 -2.973132,-1.51753 -4.59375,-2 l 0,15.21875 c 1.151244,1.373146 1.84375,3.132409 1.84375,5.0625 0,4.338967 -3.504779,7.84375 -7.84375,7.84375 -4.33896,0 -7.84375,-3.504783 -7.84375,-7.84375 0,-1.930091 0.692505,-3.689354 1.84375,-5.0625 l 0,-15.21875 c -1.620618,0.482471 -3.160475,1.166424 -4.59375,2 L 34.75,25.0625 c -0.367952,-0.367948 -0.773836,-0.495965 -1.25,-0.5 -0.476162,-0.0041 -0.981988,0.138237 -1.34375,0.5 l -5.09375,5.09375 c -0.723522,0.723528 -0.673323,1.857854 0.0625,2.59375 l 2.59375,2.65625 c -0.930267,1.599524 -1.668764,3.326652 -2.15625,5.15625 l -3.65625,0 C 22.865542,40.5625 22,41.414275 22,42.4375 l 0,7.125 c 0,1.023225 0.865537,1.875 1.90625,1.875 l 3.65625,0 c 0.487486,1.829599 1.225983,3.556726 2.15625,5.15625 L 27.125,59.1875 c -0.735893,0.735895 -0.754843,1.93272 -0.03125,2.65625 l 5.0625,5.09375 c 0.723521,0.723528 1.857857,0.673397 2.59375,-0.0625 l 2.65625,-2.59375 c 1.599529,0.930272 3.326656,1.668775 5.15625,2.15625 l 0,3.65625 C 42.562495,71.134469 43.414269,72 44.4375,72 l 7.125,0 c 1.023221,0 1.875,-0.865536 1.875,-1.90625 l 0,-3.65625 c 1.829594,-0.487475 3.556721,-1.225978 5.15625,-2.15625 L 61.25,66.875 c 0.735893,0.735895 1.87022,0.786023 2.59375,0.0625 l 5.09375,-5.09375 c 0.723522,-0.72353 0.673332,-1.889105 -0.0625,-2.625 l -2.59375,-2.625 c 0.930265,-1.599524 1.668774,-3.326651 2.15625,-5.15625 l 3.65625,0 C 73.134459,51.437495 74,50.585726 74,49.5625 l 0,-7.125 c 0,-1.023222 -0.865546,-1.875 -1.90625,-1.875 l -3.65625,0 C 67.950028,38.732902 67.211516,37.005774 66.28125,35.40625 L 68.875,32.75 c 0.735892,-0.735896 0.786092,-1.870222 0.0625,-2.59375 L 63.84375,25.0625 C 63.481983,24.700736 63.030072,24.532796 62.5625,24.53125 z M 48,42 c -2.209139,0 -4,1.790861 -4,4 0,2.209139 1.790861,4 4,4 2.209139,0 4,-1.790861 4,-4 0,-2.209139 -1.790861,-4 -4,-4 z"
         id="path4016-2-3" />
    </clipPath>
    <filter
       color-interpolation-filters="sRGB"
       id="filter4010-9"
       inkscape:collect="always">
      <feGaussianBlur
         id="feGaussianBlur4012-6"
         stdDeviation="0.78"
         inkscape:collect="always" />
    </filter>
    <linearGradient
       y2="47.000011"
       x2="90"
       y1="47.000011"
       x1="6"
       gradientTransform="matrix(1.1071428,0,0,1.1071426,2.9011003,-18.701274)"
       gradientUnits="userSpaceOnUse"
       id="linearGradient3825"
       xlink:href="#linearGradient6139-0"
       inkscape:collect="always" />
    <linearGradient
       id="linearGradient6139-0">
      <stop
         id="stop6141-2"
         offset="0"
         style="stop-color:#c1adad;stop-opacity:1;" />
      <stop
         style="stop-color:#ffffff;stop-opacity:1;"
         offset="0.25"
         id="stop6151-0" />
      <stop
         style="stop-color:#aa9090;stop-opacity:1;"
         offset="0.5"
         id="stop6147-1" />
      <stop
         id="stop6149-4"
         offset="0.75"
         style="stop-color:#fbf9f9;stop-opacity:1;" />
      <stop
         id="stop6143-4"
         offset="1"
         style="stop-color:#c1adad;stop-opacity:1;" />
    </linearGradient>
    <radialGradient
       r="42"
       fy="-27"
       fx="48"
       cy="-27"
       cx="48"
       gradientTransform="matrix(-1.0721726,0,0,-0.87502024,199.46429,-19.125546)"
       gradientUnits="userSpaceOnUse"
       id="radialGradient3827"
       xlink:href="#linearGradient4091-0-3-0-7"
       inkscape:collect="always" />
    <linearGradient
       id="linearGradient4091-0-3-0-7">
      <stop
         style="stop-color:#ffffff;stop-opacity:1;"
         offset="0"
         id="stop4093-3-6-4-2" />
      <stop
         id="stop4099-6-1-8-3"
         offset="0.80000001"
         style="stop-color:#ffffff;stop-opacity:1;" />
      <stop
         style="stop-color:#ffffff;stop-opacity:0;"
         offset="1"
         id="stop4095-1-0-7-9" />
    </linearGradient>
    <linearGradient
       y2="88.171875"
       x2="94.5"
       y1="88.171875"
       x1="1.5"
       gradientTransform="translate(8.0439564,-14.665561)"
       gradientUnits="userSpaceOnUse"
       id="linearGradient3829"
       xlink:href="#linearGradient3832-0-6-1-1"
       inkscape:collect="always" />
    <linearGradient
       id="linearGradient3832-0-6-1-1">
      <stop
         style="stop-color:#000000;stop-opacity:1;"
         offset="0"
         id="stop3834-6-3-7-1" />
      <stop
         id="stop3872-2-4"
         offset="0.1"
         style="stop-color:#000000;stop-opacity:0.58823532;" />
      <stop
         style="stop-color:#000000;stop-opacity:0.58823532;"
         offset="0.89999998"
         id="stop3844-6-2-7-6" />
      <stop
         style="stop-color:#000000;stop-opacity:1;"
         offset="1"
         id="stop3836-5-0-2-9" />
    </linearGradient>
    <linearGradient
       y2="7.0165396"
       x2="45.447727"
       y1="92.539597"
       x1="45.447727"
       gradientTransform="scale(1.0058652,0.994169)"
       gradientUnits="userSpaceOnUse"
       id="linearGradient3835"
       xlink:href="#ButtonShadow-1"
       inkscape:collect="always" />
    <linearGradient
       x1="45.447727"
       y1="92.539597"
       x2="45.447727"
       y2="7.0165396"
       id="ButtonShadow-1"
       gradientUnits="userSpaceOnUse"
       gradientTransform="scale(1.0058652,0.994169)">
      <stop
         id="stop3750-9"
         style="stop-color:#000000;stop-opacity:1"
         offset="0" />
      <stop
         id="stop3752-9"
         style="stop-color:#000000;stop-opacity:0.58823532"
         offset="1" />
    </linearGradient>
    <filter
       color-interpolation-filters="sRGB"
       id="filter3174-3">
      <feGaussianBlur
         id="feGaussianBlur3176-6"
         stdDeviation="1.71" />
    </filter>
    <linearGradient
       inkscape:collect="always"
       xlink:href="#linearGradient6139-0"
       id="linearGradient23275"
       gradientUnits="userSpaceOnUse"
       gradientTransform="matrix(1.1071428,0,0,1.1071426,2.9011003,-18.701274)"
       x1="6"
       y1="47.000011"
       x2="90"
       y2="47.000011" />
    <radialGradient
       inkscape:collect="always"
       xlink:href="#linearGradient4091-0-3-0-7"
       id="radialGradient23277"
       gradientUnits="userSpaceOnUse"
       gradientTransform="matrix(-1.0721726,0,0,-0.87502024,199.46429,-19.125546)"
       cx="48"
       cy="-27"
       fx="48"
       fy="-27"
       r="42" />
    <linearGradient
       inkscape:collect="always"
       xlink:href="#linearGradient3832-0-6-1-1"
       id="linearGradient23279"
       gradientUnits="userSpaceOnUse"
       gradientTransform="translate(8.0439564,-14.665561)"
       x1="1.5"
       y1="88.171875"
       x2="94.5"
       y2="88.171875" />
    <linearGradient
       inkscape:collect="always"
       xlink:href="#ButtonShadow-1"
       id="linearGradient23281"
       gradientUnits="userSpaceOnUse"
       gradientTransform="scale(1.0058652,0.994169)"
       x1="45.447727"
       y1="92.539597"
       x2="45.447727"
       y2="7.0165396" />
    <linearGradient
       inkscape:collect="always"
       xlink:href="#linearGradient4281-6-7-0"
       id="linearGradient23283"
       gradientUnits="userSpaceOnUse"
       gradientTransform="matrix(1.2092989,0,0,1.2092989,18.976817,18.182027)"
       x1="20.758585"
       y1="-19.425636"
       x2="20.758585"
       y2="45.017357" />
    <linearGradient
       inkscape:collect="always"
       xlink:href="#linearGradient3963-86-4"
       id="linearGradient23285"
       gradientUnits="userSpaceOnUse"
       x1="48"
       y1="50"
       x2="48"
       y2="20" />
    <linearGradient
       inkscape:collect="always"
       xlink:href="#linearGradient4213-7-8"
       id="linearGradient23287"
       gradientUnits="userSpaceOnUse"
       x1="2.7713892"
       y1="-28.64156"
       x2="50.527882"
       y2="14.514202" />
    <radialGradient
       inkscape:collect="always"
       xlink:href="#linearGradient4133-5"
       id="radialGradient23289"
       gradientUnits="userSpaceOnUse"
       gradientTransform="matrix(0.97513384,0,0,0.04919072,34.838261,81.559586)"
       cx="13.948145"
       cy="44.892841"
       fx="13.948145"
       fy="44.892841"
       r="43.199203" />
    <radialGradient
       inkscape:collect="always"
       xlink:href="#linearGradient4133-5"
       id="radialGradient23291"
       gradientUnits="userSpaceOnUse"
       gradientTransform="matrix(0.88832663,0,0,0.04919072,32.127379,-91.738788)"
       cx="13.948145"
       cy="44.892841"
       fx="13.948145"
       fy="44.892841"
       r="43.199203" />
  </defs>
  <sodipodi:namedview
     id="base"
     pagecolor="#ffffff"
     bordercolor="#666666"
     borderopacity="1.0"
     inkscape:pageopacity="0.0"
     inkscape:pageshadow="2"
     inkscape:zoom="2.4748737"
     inkscape:cx="6.4285714"
     inkscape:cy="40.162441"
     inkscape:current-layer="svg15917"
     showgrid="true"
     inkscape:grid-bbox="true"
     inkscape:document-units="px"
     inkscape:window-width="1280"
     inkscape:window-height="969"
     inkscape:window-x="0"
     inkscape:window-y="0"
     inkscape:window-maximized="1" />
  <metadata
     id="metadata15922">
    <rdf:RDF>
      <cc:Work
         rdf:about="">
        <dc:format>image/svg+xml</dc:format>
        <dc:type
           rdf:resource="http://purl.org/dc/dcmitype/StillImage" />
        <dc:title></dc:title>
      </cc:Work>
    </rdf:RDF>
  </metadata>
  <g
     id="livello1"
     inkscape:label="Livello 1"
     inkscape:groupmode="livello" />
  <g
     id="g23251"
     transform="translate(-2.1035662,-2.745166)">
    <g
       id="g7390"
       transform="translate(-5.9403932,17.410727)"
       style="display:inline">
      <path
         inkscape:connector-curvature="0"
         id="path3288"
         d="m 97.186813,-14.665561 -82.285719,0 c -3.798848,0 -6.8571352,3.058285 -6.8571352,6.8571399 l 0,82.2857181 c 0,3.798857 3.0582872,6.857142 6.8571352,6.857142 l 82.285719,0 c 3.798857,0 6.857147,-3.058285 6.857147,-6.857142 l 0,-82.2857181 c 0,-3.7988549 -3.05829,-6.8571399 -6.857147,-6.8571399 z"
         style="opacity:0.15;fill:#000000;fill-opacity:1;fill-rule:nonzero;stroke:none;display:inline" />
      <path
         style="opacity:0.15;fill:#000000;fill-opacity:1;fill-rule:nonzero;stroke:none;display:inline"
         d="m 96.543957,-13.915561 -81.000007,0 c -3.739492,0 -6.749993,3.010499 -6.749993,6.7499969 l 0,81.0000031 c 0,3.739501 3.010501,6.75 6.749993,6.75 l 81.000007,0 c 3.739503,0 6.750003,-3.010499 6.750003,-6.75 l 0,-81.0000031 c 0,-3.7394979 -3.0105,-6.7499969 -6.750003,-6.7499969 z"
         id="path4085"
         inkscape:connector-curvature="0" />
      <path
         inkscape:connector-curvature="0"
         id="rect4251-1"
         d="m 95.901096,-13.165561 -79.714282,0 c -3.680143,0 -6.6428566,2.962713 -6.6428566,6.6428549 l 0,79.7142901 c 0,3.680142 2.9627136,6.642856 6.6428566,6.642856 l 79.714282,0 c 3.680143,0 6.642854,-2.962714 6.642854,-6.642856 l 0,-79.7142901 c 0,-3.6801419 -2.962711,-6.6428549 -6.642854,-6.6428549 z"
         style="fill:url(#linearGradient23275);fill-opacity:1;fill-rule:nonzero;stroke:none;display:inline" />
      <g
         transform="matrix(1.1071428,0,0,1.1071426,-107.81316,-18.147702)"
         id="g3272">
        <path
           style="opacity:0.45;fill:url(#radialGradient23277);fill-opacity:1;fill-rule:nonzero;stroke:none;display:inline"
           d="m 112,4.5 c -3.324,0 -6,2.6759996 -6,6 l 0,15 1,0 0,-15 c 0,-2.7872972 2.2127,-5 5,-5 l 72,0 c 2.7873,0 5,2.2127028 5,5 l 0,15 1,0 0,-15 c 0,-3.3240004 -2.676,-6 -6,-6 l -72,0 z"
           id="path4236-5"
           inkscape:connector-curvature="0" />
      </g>
      <path
         id="path4118"
         d="m 9.5439564,67.178189 0,6 c 0,3.680142 2.9761066,6.65625 6.6562496,6.65625 l 79.6875,0 c 3.680143,0 6.656254,-2.976108 6.656254,-6.65625 l 0,-6 c 0,3.680142 -2.976111,6.65625 -6.656254,6.65625 l -79.6875,0 c -3.680143,0 -6.6562496,-2.976108 -6.6562496,-6.65625 z"
         style="opacity:0.89090905;fill:url(#linearGradient23279);fill-opacity:1;fill-rule:nonzero;stroke:none;display:inline"
         inkscape:connector-curvature="0" />
      <g
         id="g4615"
         transform="translate(251.28797,-104.89729)">
        <g
           style="display:none"
           id="layer2-8">
          <rect
             style="opacity:0.9;fill:url(#linearGradient23281);fill-opacity:1;fill-rule:nonzero;stroke:none;filter:url(#filter3174-3)"
             id="rect3745-9"
             y="7"
             x="5"
             ry="6"
             rx="6"
             height="85"
             width="86" />
        </g>
      </g>
    </g>
    <rect
       rx="6.2141218"
       ry="5.4427323"
       y="8.6451654"
       x="6.1035662"
       height="80"
       width="88"
       id="rect4117"
       style="fill:#cec7c7;fill-opacity:0.74774774;stroke:none" />
    <path
       style="font-size:medium;font-style:normal;font-variant:normal;font-weight:normal;font-stretch:normal;text-indent:0;text-align:start;text-decoration:none;line-height:normal;letter-spacing:normal;word-spacing:normal;text-transform:none;direction:ltr;block-progression:tb;writing-mode:lr-tb;text-anchor:start;baseline-shift:baseline;color:#000000;fill:#342323;fill-opacity:1;stroke:none;stroke-width:2.3755002;marker:none;visibility:visible;display:inline;overflow:visible;enable-background:accumulate;font-family:Sans;-inkscape-font-specification:Sans"
       d="m 11.707671,8.4601639 c -3.1166213,0 -5.6679653,2.5395101 -5.6679653,5.6460041 l 0,69.277996 c 0,3.106495 2.551344,5.646004 5.6679653,5.646004 l 76.791786,0 c 3.116621,0 5.66797,-2.539509 5.66797,-5.646004 l 0,-69.277996 c 0,-3.106493 -2.55135,-5.6460041 -5.66797,-5.6460041 l -76.791786,0 z m 0,2.3194391 76.791786,0 c 1.888101,0 3.352021,1.480095 3.352021,3.326565 l 0,69.277996 c 0,1.846474 -1.46392,3.326564 -3.352021,3.326564 l -76.791786,0 c -1.8880993,0 -3.3520223,-1.48009 -3.3520223,-3.326564 l 0,-69.277996 c 0,-1.84647 1.463923,-3.326565 3.3520223,-3.326565 z"
       id="path4989"
       inkscape:connector-curvature="0" />
    <g
       id="layer6-32"
       inkscape:label="Symbol"
       style="display:inline"
       transform="translate(2.1035662,4.245163)">
      <path
         inkscape:connector-curvature="0"
         style="opacity:0.8;fill:url(#linearGradient23283);fill-opacity:1;fill-rule:nonzero;stroke:none;stroke-width:1;marker:none;visibility:visible;display:block;overflow:visible;enable-background:accumulate"
         d="m 62.5625,24.53125 c -0.467572,-0.0015 -0.944554,0.163302 -1.3125,0.53125 l -2.65625,2.65625 c -1.43328,-0.833582 -2.973132,-1.51753 -4.59375,-2 l 0,15.21875 c 1.151244,1.373146 1.84375,3.132409 1.84375,5.0625 0,4.338967 -3.504779,7.84375 -7.84375,7.84375 -4.33896,0 -7.84375,-3.504783 -7.84375,-7.84375 0,-1.930091 0.692505,-3.689354 1.84375,-5.0625 l 0,-15.21875 c -1.620618,0.482471 -3.160475,1.166424 -4.59375,2 L 34.75,25.0625 c -0.367952,-0.367948 -0.773836,-0.495965 -1.25,-0.5 -0.476162,-0.0041 -0.981988,0.138237 -1.34375,0.5 l -5.09375,5.09375 c -0.723522,0.723528 -0.673323,1.857854 0.0625,2.59375 l 2.59375,2.65625 c -0.930267,1.599524 -1.668764,3.326652 -2.15625,5.15625 l -3.65625,0 C 22.865542,40.5625 22,41.414275 22,42.4375 l 0,7.125 c 0,1.023225 0.865537,1.875 1.90625,1.875 l 3.65625,0 c 0.487486,1.829599 1.225983,3.556726 2.15625,5.15625 L 27.125,59.1875 c -0.735893,0.735895 -0.754843,1.93272 -0.03125,2.65625 l 5.0625,5.09375 c 0.723521,0.723528 1.857857,0.673397 2.59375,-0.0625 l 2.65625,-2.59375 c 1.599529,0.930272 3.326656,1.668775 5.15625,2.15625 l 0,3.65625 C 42.562495,71.134469 43.414269,72 44.4375,72 l 7.125,0 c 1.023221,0 1.875,-0.865536 1.875,-1.90625 l 0,-3.65625 c 1.829594,-0.487475 3.556721,-1.225978 5.15625,-2.15625 L 61.25,66.875 c 0.735893,0.735895 1.87022,0.786023 2.59375,0.0625 l 5.09375,-5.09375 c 0.723522,-0.72353 0.673332,-1.889105 -0.0625,-2.625 l -2.59375,-2.625 c 0.930265,-1.599524 1.668774,-3.326651 2.15625,-5.15625 l 3.65625,0 C 73.134459,51.437495 74,50.585726 74,49.5625 l 0,-7.125 c 0,-1.023222 -0.865546,-1.875 -1.90625,-1.875 l -3.65625,0 C 67.950028,38.732902 67.211516,37.005774 66.28125,35.40625 L 68.875,32.75 c 0.735892,-0.735896 0.786092,-1.870222 0.0625,-2.59375 L 63.84375,25.0625 C 63.481983,24.700736 63.030072,24.532796 62.5625,24.53125 z"
         id="path3983" />
      <path
         inkscape:connector-curvature="0"
         style="opacity:0.8;color:#000000;fill:url(#linearGradient23285);fill-opacity:1;fill-rule:nonzero;stroke:none;stroke-width:0.30000001;marker:none;visibility:visible;display:inline;overflow:visible;enable-background:accumulate"
         d="m 46,20 c -1.108,0 -2,0.892 -2,2 l 0,16 c 0,1.108 0.892,2 2,2 l 4,0 c 1.108,0 2,-0.892 2,-2 l 0,-16 c 0,-1.108 -0.892,-2 -2,-2 l -4,0 z m 2,22 c -2.209139,0 -4,1.790861 -4,4 0,2.209139 1.790861,4 4,4 2.209139,0 4,-1.790861 4,-4 0,-2.209139 -1.790861,-4 -4,-4 z"
         id="rect3970" />
      <path
         inkscape:connector-curvature="0"
         style="opacity:0.6;fill:#ffffff;fill-opacity:1;fill-rule:nonzero;stroke:none;stroke-width:1;marker:none;visibility:visible;display:block;overflow:visible;enable-background:accumulate"
         d="m 26.625,31.875 c -0.193403,0.631185 -0.01861,1.356335 0.5,1.875 l 2.25,2.3125 c 0.117455,-0.218512 0.219288,-0.442246 0.34375,-0.65625 L 27.125,32.75 c -0.250463,-0.250488 -0.411887,-0.564101 -0.5,-0.875 z m 42.75,0 c -0.08812,0.310899 -0.249514,0.624512 -0.5,0.875 l -2.59375,2.65625 c 0.124462,0.214004 0.226295,0.437738 0.34375,0.65625 l 2.25,-2.3125 c 0.518662,-0.518665 0.693423,-1.243815 0.5,-1.875 z M 44,38 l 0,1 c 0,1.108 0.892,2 2,2 l 4,0 c 1.108,0 2,-0.892 2,-2 l 0,-1 c 0,1.108 -0.892,2 -2,2 l -4,0 c -1.108,0 -2,-0.892 -2,-2 z m -2,2.9375 c -1.151245,1.373146 -1.84375,3.132409 -1.84375,5.0625 0,0.177452 0.01971,0.356771 0.03125,0.53125 C 40.289869,44.785584 40.942701,43.198592 42,41.9375 l 0,-1 z m 12,0 0,1 c 1.057298,1.261092 1.710131,2.848084 1.8125,4.59375 C 55.82404,46.356771 55.84375,46.177452 55.84375,46 55.84375,44.069909 55.151244,42.310646 54,40.9375 z M 44.0625,46.5 C 44.041887,46.664532 44,46.82988 44,47 c 0,2.209139 1.790861,4 4,4 2.209139,0 4,-1.790861 4,-4 0,-0.17012 -0.04189,-0.335468 -0.0625,-0.5 C 51.690434,48.472046 50.039019,50 48,50 45.960981,50 44.309566,48.472046 44.0625,46.5 z M 22,49.5625 l 0,1 c 0,1.023225 0.865537,1.875 1.90625,1.875 l 3.65625,0 c 0.422264,1.584813 1.052063,3.085293 1.8125,4.5 l 0.34375,-0.34375 C 28.788483,54.994226 28.049986,53.267099 27.5625,51.4375 l -3.65625,0 C 22.865537,51.4375 22,50.585725 22,49.5625 z m 52,0 c 0,1.023226 -0.865541,1.874995 -1.90625,1.875 l -3.65625,0 c -0.487476,1.829599 -1.225985,3.556726 -2.15625,5.15625 L 66.625,56.9375 c 0.760438,-1.414707 1.390244,-2.915187 1.8125,-4.5 l 3.65625,0 C 73.134459,52.437495 74,51.585726 74,50.5625 l 0,-1 z M 26.625,61.03125 c -0.172667,0.627824 -0.01519,1.328606 0.46875,1.8125 l 5.0625,5.09375 c 0.723521,0.723528 1.857857,0.673397 2.59375,-0.0625 l 2.65625,-2.59375 c 1.599529,0.930272 3.326656,1.668775 5.15625,2.15625 l 0,-1 C 40.732906,65.950025 39.005779,65.211522 37.40625,64.28125 L 34.75,66.875 c -0.735893,0.735897 -1.870229,0.786028 -2.59375,0.0625 l -5.0625,-5.09375 C 26.862757,61.612777 26.705483,61.328296 26.625,61.03125 z m 42.75,0.0625 c -0.081,0.268196 -0.223922,0.53642 -0.4375,0.75 L 63.84375,66.9375 C 63.12022,67.661023 61.985893,67.610895 61.25,66.875 l -2.65625,-2.59375 c -1.599529,0.930272 -3.326656,1.668775 -5.15625,2.15625 l 0,1 c 1.829594,-0.487475 3.556721,-1.225978 5.15625,-2.15625 L 61.25,67.875 c 0.735893,0.735895 1.87022,0.786023 2.59375,0.0625 l 5.09375,-5.09375 c 0.477246,-0.477252 0.608251,-1.138267 0.4375,-1.75 z m -26.8125,9 0,1 C 42.562495,72.134469 43.414269,73 44.4375,73 l 7.125,0 c 1.023221,0 1.875,-0.865536 1.875,-1.90625 l 0,-1 C 53.4375,71.134464 52.585721,72 51.5625,72 l -7.125,0 c -1.023231,0 -1.875005,-0.865531 -1.875,-1.90625 z"
         id="path3986-3" />
      <path
         style="opacity:0.4;fill:none;stroke:#000000;stroke-width:2;stroke-miterlimit:4;stroke-dasharray:none;marker:none;visibility:visible;display:block;overflow:visible;filter:url(#filter4010-9);enable-background:accumulate"
         d="m 46,21 c -1.108,0 -2,0.892 -2,2 l 0,16 c 0,1.108 0.892,2 2,2 l 4,0 c 1.108,0 2,-0.892 2,-2 l 0,-16 c 0,-1.108 -0.892,-2 -2,-2 l -4,0 z m 16.5625,4.53125 c -0.467572,-0.0015 -0.944554,0.163302 -1.3125,0.53125 l -2.65625,2.65625 c -1.43328,-0.833582 -2.973132,-1.51753 -4.59375,-2 l 0,15.21875 c 1.151244,1.373146 1.84375,3.132409 1.84375,5.0625 0,4.338967 -3.504779,7.84375 -7.84375,7.84375 -4.33896,0 -7.84375,-3.504783 -7.84375,-7.84375 0,-1.930091 0.692505,-3.689354 1.84375,-5.0625 l 0,-15.21875 c -1.620618,0.482471 -3.160475,1.166424 -4.59375,2 L 34.75,26.0625 c -0.367952,-0.367948 -0.773836,-0.495965 -1.25,-0.5 -0.476162,-0.0041 -0.981988,0.138237 -1.34375,0.5 l -5.09375,5.09375 c -0.723522,0.723528 -0.673323,1.857854 0.0625,2.59375 l 2.59375,2.65625 c -0.930267,1.599524 -1.668764,3.326652 -2.15625,5.15625 l -3.65625,0 C 22.865542,41.5625 22,42.414275 22,43.4375 l 0,7.125 c 0,1.023225 0.865537,1.875 1.90625,1.875 l 3.65625,0 c 0.487486,1.829599 1.225983,3.556726 2.15625,5.15625 L 27.125,60.1875 c -0.735893,0.735895 -0.754843,1.93272 -0.03125,2.65625 l 5.0625,5.09375 c 0.723521,0.723528 1.857857,0.673397 2.59375,-0.0625 l 2.65625,-2.59375 c 1.599529,0.930272 3.326656,1.668775 5.15625,2.15625 l 0,3.65625 C 42.562495,72.134469 43.414269,73 44.4375,73 l 7.125,0 c 1.023221,0 1.875,-0.865536 1.875,-1.90625 l 0,-3.65625 c 1.829594,-0.487475 3.556721,-1.225978 5.15625,-2.15625 L 61.25,67.875 c 0.735893,0.735895 1.87022,0.786023 2.59375,0.0625 l 5.09375,-5.09375 c 0.723522,-0.72353 0.673332,-1.889105 -0.0625,-2.625 l -2.59375,-2.625 c 0.930265,-1.599524 1.668774,-3.326651 2.15625,-5.15625 l 3.65625,0 C 73.134459,52.437495 74,51.585726 74,50.5625 l 0,-7.125 c 0,-1.023222 -0.865546,-1.875 -1.90625,-1.875 l -3.65625,0 C 67.950028,39.732902 67.211516,38.005774 66.28125,36.40625 L 68.875,33.75 c 0.735892,-0.735896 0.786092,-1.870222 0.0625,-2.59375 L 63.84375,26.0625 C 63.481983,25.700736 63.030072,25.532796 62.5625,25.53125 z M 48,43 c -2.209139,0 -4,1.790861 -4,4 0,2.209139 1.790861,4 4,4 2.209139,0 4,-1.790861 4,-4 0,-2.209139 -1.790861,-4 -4,-4 z"
         id="path4000"
         inkscape:connector-curvature="0"
         clip-path="url(#clipPath4014-0-3)" />
    </g>
    <g
       transform="matrix(1.0076012,0,0,1.014293,1.052329,3.3505031)"
       id="g4963">
      <path
         sodipodi:nodetypes="ssccscss"
         style="opacity:0.3;fill:#ffffff;fill-opacity:1;stroke:none;display:inline"
         d="m 10.49504,6.668839 c -1.9933517,0 -3.6044917,1.649341 -3.6088027,3.684498 l -0.148217,69.961124 c 1.913686,2.521055 1.665283,2.410772 4.8515137,2.679065 C 13.393749,68.132472 48.088552,9.657054 89.00782,9.657054 c 0.48807,0 0.96327,0.01986 1.4492,0.02901 -0.30286,-1.718031 -1.751,-3.017226 -3.52355,-3.017226 z"
         id="rect4190"
         inkscape:connector-curvature="0" />
      <rect
         transform="matrix(0.90930469,0,0,0.92837735,5.5780073,35.153926)"
         style="fill:url(#linearGradient23287);fill-opacity:1;stroke:none;display:inline"
         id="rect4146"
         width="92"
         height="92"
         x="2"
         y="-30"
         rx="3.9569874"
         ry="3.9569881"
         clip-path="url(#clipPath4156-4-6)" />
    </g>
    <rect
       ry="4.25"
       rx="0"
       y="81.642899"
       x="6.3145661"
       height="4.25"
       width="84.250008"
       id="rect4131"
       style="opacity:0.75494068;fill:url(#radialGradient23289);fill-opacity:1;stroke:none;display:inline" />
    <rect
       transform="matrix(0,1,-1,0,0,0)"
       style="opacity:0.7075099;fill:url(#radialGradient23291);fill-opacity:1;stroke:none;display:inline"
       id="rect4141"
       width="76.75"
       height="4.25"
       x="6.1428857"
       y="-91.655472"
       rx="0"
       ry="4.25" />
  </g>
</svg>
