<?xml version="1.0" encoding="UTF-8" standalone="no"?>
<!-- Created with Inkscape (http://www.inkscape.org/) -->

<svg
   xmlns:dc="http://purl.org/dc/elements/1.1/"
   xmlns:cc="http://creativecommons.org/ns#"
   xmlns:rdf="http://www.w3.org/1999/02/22-rdf-syntax-ns#"
   xmlns:svg="http://www.w3.org/2000/svg"
   xmlns="http://www.w3.org/2000/svg"
   xmlns:xlink="http://www.w3.org/1999/xlink"
   xmlns:sodipodi="http://sodipodi.sourceforge.net/DTD/sodipodi-0.dtd"
   xmlns:inkscape="http://www.inkscape.org/namespaces/inkscape"
   width="96"
   height="96"
   id="svg5189"
   version="1.1"
   inkscape:version="0.92.2 5c3e80d, 2017-08-06"
   sodipodi:docname="weather-clear-night.svg">
  <defs
     id="defs5191">
    <linearGradient
       id="linearGradient1084">
      <stop
         style="stop-color:#adbbc1;stop-opacity:1"
         offset="0"
         id="stop1074" />
      <stop
         id="stop1076"
         offset="0.25"
         style="stop-color:#ffffff;stop-opacity:1;" />
      <stop
         id="stop1078"
         offset="0.5"
         style="stop-color:#90a1aa;stop-opacity:1" />
      <stop
         style="stop-color:#f9fafb;stop-opacity:1"
         offset="0.75"
         id="stop1080" />
      <stop
         style="stop-color:#adb9c1;stop-opacity:1"
         offset="1"
         id="stop1082" />
    </linearGradient>
    <radialGradient
       r="43.199203"
       fy="44.892841"
       fx="13.948145"
       cy="44.892841"
       cx="13.948145"
       gradientTransform="matrix(0.88832663,0,0,0.04919072,462.31582,-567.34951)"
       gradientUnits="userSpaceOnUse"
       id="radialGradient3833-1"
       xlink:href="#linearGradient4133-5"
       inkscape:collect="always" />
    <linearGradient
       inkscape:collect="always"
       id="linearGradient4133-5">
      <stop
         style="stop-color:#ffffff;stop-opacity:1;"
         offset="0"
         id="stop4135-4" />
      <stop
         style="stop-color:#ffffff;stop-opacity:0;"
         offset="1"
         id="stop4137-5" />
    </linearGradient>
    <radialGradient
       r="43.199203"
       fy="44.892841"
       fx="13.948145"
       cy="44.892841"
       cx="13.948145"
       gradientTransform="matrix(0.97513384,0,0,0.04919072,510.44898,511.74803)"
       gradientUnits="userSpaceOnUse"
       id="radialGradient4992"
       xlink:href="#linearGradient4133-5"
       inkscape:collect="always" />
    <clipPath
       clipPathUnits="userSpaceOnUse"
       id="clipPath4156-4-6">
      <path
         style="opacity:0.6;fill:#ffffff;fill-opacity:1;stroke:none"
         d="m 27.046336,-55.695463 -14.21366,13.321486 0.06127,0 15.653407,21.770763 10.231384,-10.546177 C 38.561832,-32.30156 27.468089,-54.819245 27.046336,-55.695463 z M 9.6468554,-39.382809 -5.2407289,-25.32124 15.987863,-7.8059573 26.372412,-18.382966 9.6468554,-39.382809 z m 31.4906096,12.951445 -9.741259,9.713584 8.944804,12.4580526 7.780753,-7.5550056 -6.984298,-14.616631 z m -49.8397109,4.378822 -13.7541661,12.9822847 26.2830181,13.84571 0.06127,-0.0617 -0.122531,-0.0617 L 13.598503,-5.4007374 -8.7022409,-22.052595 z m 38.0154159,7.400825 -9.802525,9.7752596 11.579232,9.5594001 7.62759,-7.40083 -8.669108,-11.0087257 -0.735189,-0.925104 z m 20.187073,5.6739697 -7.382526,7.2158 6.187844,8.54179 5.820249,-6.13651996 -4.625567,-9.62107004 z m -32.195166,6.32154 -9.5574606,9.49772 13.6622686,7.1849703 7.933918,-7.6783603 -12.038726,-9.00433 z m 23.311629,2.37443004 -7.10683,6.93826996 8.362778,6.9074403 5.360756,-5.6739699 -0.06127,-0.0925 -0.0919,0.12335 -6.463539,-8.20258036 z m -8.730374,8.54178036 -7.505057,7.3391599 10.353916,5.45811 c 1.397496,-1.32103 5.67514,-6.12292 5.850882,-6.32154 L 31.886332,8.2600031 z"
         id="path4158-0-3"
         inkscape:connector-curvature="0" />
    </clipPath>
    <linearGradient
       gradientUnits="userSpaceOnUse"
       y2="7.0165396"
       x2="45.447727"
       y1="92.539597"
       x1="45.447727"
       gradientTransform="scale(1.0058652,0.994169)"
       id="ButtonShadow-25">
      <stop
         id="stop3750-96"
         offset="0"
         style="stop-color:#000000;stop-opacity:1;" />
      <stop
         id="stop3752-7"
         offset="1"
         style="stop-color:#000000;stop-opacity:0.58823532;" />
    </linearGradient>
    <filter
       color-interpolation-filters="sRGB"
       id="filter3174-58"
       inkscape:collect="always">
      <feGaussianBlur
         id="feGaussianBlur3176-3"
         stdDeviation="1.71"
         inkscape:collect="always" />
    </filter>
    <radialGradient
       r="32"
       fy="32"
       fx="64"
       cy="32"
       cx="64"
       gradientUnits="userSpaceOnUse"
       id="radialGradient3891-1"
       xlink:href="#linearGradient3752-3-5-4"
       inkscape:collect="always" />
    <linearGradient
       id="linearGradient3752-3-5-4">
      <stop
         style="stop-color:#ffffff;stop-opacity:1;"
         offset="0"
         id="stop3754-6-9-8" />
      <stop
         id="stop3756-2-8-2"
         offset="0.77642262"
         style="stop-color:#ffffff;stop-opacity:1;" />
      <stop
         style="stop-color:#bebdc7;stop-opacity:0;"
         offset="1"
         id="stop3758-7-4-3" />
    </linearGradient>
    <radialGradient
       gradientTransform="matrix(1.2641518,-5.24248e-8,5.304999e-8,1.2792274,-13.775027,-12.244636)"
       r="32"
       fy="43.851852"
       fx="52.148148"
       cy="43.851852"
       cx="52.148148"
       gradientUnits="userSpaceOnUse"
       id="radialGradient3897-9"
       xlink:href="#linearGradient3899-2"
       inkscape:collect="always" />
    <linearGradient
       id="linearGradient3899-2">
      <stop
         id="stop3901-9"
         offset="0"
         style="stop-color:#f7edc4;stop-opacity:1;" />
      <stop
         style="stop-color:#c7b586;stop-opacity:1;"
         offset="0.80000001"
         id="stop3903-2" />
      <stop
         id="stop3905-6"
         offset="1"
         style="stop-color:#9d8c64;stop-opacity:1;" />
    </linearGradient>
    <linearGradient
       gradientTransform="matrix(0,1,-1,0,91.000004,-4.999996)"
       gradientUnits="userSpaceOnUse"
       y2="43.000004"
       x2="75"
       y1="43.000004"
       x1="21"
       id="linearGradient3818-2"
       xlink:href="#linearGradient3812-9"
       inkscape:collect="always" />
    <linearGradient
       id="linearGradient3812-9">
      <stop
         id="stop3814-1"
         offset="0"
         style="stop-color:#a49265;stop-opacity:1;" />
      <stop
         id="stop3816-6"
         offset="1"
         style="stop-color:#ece8df;stop-opacity:1;" />
    </linearGradient>
    <linearGradient
       gradientUnits="userSpaceOnUse"
       y2="87.367798"
       x2="28.571617"
       y1="22.91832"
       x1="59.578266"
       id="linearGradient4031-7"
       xlink:href="#linearGradient4025-0"
       inkscape:collect="always" />
    <linearGradient
       id="linearGradient4025-0"
       inkscape:collect="always">
      <stop
         id="stop4027-0"
         offset="0"
         style="stop-color:#a18a56;stop-opacity:1;" />
      <stop
         id="stop4029-2"
         offset="1"
         style="stop-color:#a18a56;stop-opacity:0;" />
    </linearGradient>
    <linearGradient
       inkscape:collect="always"
       xlink:href="#linearGradient4090-8-5"
       id="linearGradient3191-4"
       gradientUnits="userSpaceOnUse"
       x1="64.995598"
       y1="-0.90906203"
       x2="64.995598"
       y2="55.535763" />
    <linearGradient
       id="linearGradient4090-8-5"
       inkscape:collect="always">
      <stop
         id="stop4092-1-3-4"
         offset="0"
         style="stop-color:#ffffff;stop-opacity:1;" />
      <stop
         id="stop4094-0-9"
         offset="1"
         style="stop-color:#ffffff;stop-opacity:0;" />
    </linearGradient>
    <radialGradient
       inkscape:collect="always"
       xlink:href="#linearGradient4263-5"
       id="radialGradient3309-2"
       gradientUnits="userSpaceOnUse"
       cx="18"
       cy="18"
       fx="18"
       fy="18"
       r="2" />
    <linearGradient
       id="linearGradient4263-5">
      <stop
         id="stop4265-2"
         offset="0"
         style="stop-color:#ffffff;stop-opacity:1;" />
      <stop
         style="stop-color:#ffffff;stop-opacity:0.24031007;"
         offset="0.5"
         id="stop4279-5" />
      <stop
         id="stop4267-9"
         offset="1"
         style="stop-color:#ffffff;stop-opacity:0;" />
    </linearGradient>
    <radialGradient
       r="2"
       fy="18"
       fx="18"
       cy="18"
       cx="18"
       gradientUnits="userSpaceOnUse"
       id="radialGradient4283-0"
       xlink:href="#linearGradient4263-5"
       inkscape:collect="always" />
    <linearGradient
       id="linearGradient5263">
      <stop
         id="stop5265"
         offset="0"
         style="stop-color:#ffffff;stop-opacity:1;" />
      <stop
         style="stop-color:#ffffff;stop-opacity:0.24031007;"
         offset="0.5"
         id="stop5267" />
      <stop
         id="stop5269"
         offset="1"
         style="stop-color:#ffffff;stop-opacity:0;" />
    </linearGradient>
    <radialGradient
       r="2"
       fy="18"
       fx="18"
       cy="18"
       cx="18"
       gradientUnits="userSpaceOnUse"
       id="radialGradient4287-9"
       xlink:href="#linearGradient4263-5"
       inkscape:collect="always" />
    <linearGradient
       id="linearGradient5272">
      <stop
         id="stop5274"
         offset="0"
         style="stop-color:#ffffff;stop-opacity:1;" />
      <stop
         style="stop-color:#ffffff;stop-opacity:0.24031007;"
         offset="0.5"
         id="stop5276" />
      <stop
         id="stop5278"
         offset="1"
         style="stop-color:#ffffff;stop-opacity:0;" />
    </linearGradient>
    <radialGradient
       r="2"
       fy="18"
       fx="18"
       cy="18"
       cx="18"
       gradientUnits="userSpaceOnUse"
       id="radialGradient4316-4"
       xlink:href="#linearGradient4263-5"
       inkscape:collect="always" />
    <linearGradient
       id="linearGradient5281">
      <stop
         id="stop5283"
         offset="0"
         style="stop-color:#ffffff;stop-opacity:1;" />
      <stop
         style="stop-color:#ffffff;stop-opacity:0.24031007;"
         offset="0.5"
         id="stop5285" />
      <stop
         id="stop5287"
         offset="1"
         style="stop-color:#ffffff;stop-opacity:0;" />
    </linearGradient>
    <linearGradient
       gradientTransform="translate(477.71429,464.93361)"
       inkscape:collect="always"
       xlink:href="#linearGradient3806-0"
       id="linearGradient13189"
       x1="38.969643"
       y1="52.983719"
       x2="43.659611"
       y2="-28.269278"
       gradientUnits="userSpaceOnUse" />
    <linearGradient
       id="linearGradient3806-0">
      <stop
         id="stop3808-48"
         offset="0"
         style="stop-color:#9e9cb2;stop-opacity:1;" />
      <stop
         id="stop3810-7"
         offset="1"
         style="stop-color:#484373;stop-opacity:1;" />
    </linearGradient>
    <linearGradient
       y2="47.000011"
       x2="90"
       y1="47.000011"
       x1="6"
       gradientTransform="matrix(1.1071428,0,0,1.1071426,2.9011003,-18.701274)"
       gradientUnits="userSpaceOnUse"
       id="linearGradient3825"
       xlink:href="#linearGradient6139-0"
       inkscape:collect="always" />
    <linearGradient
       id="linearGradient6139-0">
      <stop
         id="stop6141-2"
         offset="0"
         style="stop-color:#c1adad;stop-opacity:1;" />
      <stop
         style="stop-color:#ffffff;stop-opacity:1;"
         offset="0.25"
         id="stop6151-0" />
      <stop
         style="stop-color:#aa9090;stop-opacity:1;"
         offset="0.5"
         id="stop6147-1" />
      <stop
         id="stop6149-4"
         offset="0.75"
         style="stop-color:#fbf9f9;stop-opacity:1;" />
      <stop
         id="stop6143-4"
         offset="1"
         style="stop-color:#c1adad;stop-opacity:1;" />
    </linearGradient>
    <radialGradient
       r="42"
       fy="-27"
       fx="48"
       cy="-27"
       cx="48"
       gradientTransform="matrix(-1.0721726,0,0,-0.87502024,199.46429,-19.125546)"
       gradientUnits="userSpaceOnUse"
       id="radialGradient3827"
       xlink:href="#linearGradient4091-0-3-0-7"
       inkscape:collect="always" />
    <linearGradient
       id="linearGradient4091-0-3-0-7">
      <stop
         style="stop-color:#ffffff;stop-opacity:1;"
         offset="0"
         id="stop4093-3-6-4-2" />
      <stop
         id="stop4099-6-1-8-3"
         offset="0.80000001"
         style="stop-color:#ffffff;stop-opacity:1;" />
      <stop
         style="stop-color:#ffffff;stop-opacity:0;"
         offset="1"
         id="stop4095-1-0-7-9" />
    </linearGradient>
    <linearGradient
       y2="88.171875"
       x2="94.5"
       y1="88.171875"
       x1="1.5"
       gradientTransform="translate(8.0439564,-14.665561)"
       gradientUnits="userSpaceOnUse"
       id="linearGradient3829"
       xlink:href="#linearGradient3832-0-6-1-1"
       inkscape:collect="always" />
    <linearGradient
       id="linearGradient3832-0-6-1-1">
      <stop
         style="stop-color:#000000;stop-opacity:1;"
         offset="0"
         id="stop3834-6-3-7-1" />
      <stop
         id="stop3872-2-4"
         offset="0.1"
         style="stop-color:#000000;stop-opacity:0.58823532;" />
      <stop
         style="stop-color:#000000;stop-opacity:0.58823532;"
         offset="0.89999998"
         id="stop3844-6-2-7-6" />
      <stop
         style="stop-color:#000000;stop-opacity:1;"
         offset="1"
         id="stop3836-5-0-2-9" />
    </linearGradient>
    <linearGradient
       y2="7.0165396"
       x2="45.447727"
       y1="92.539597"
       x1="45.447727"
       gradientTransform="scale(1.0058652,0.994169)"
       gradientUnits="userSpaceOnUse"
       id="linearGradient3835"
       xlink:href="#ButtonShadow-1"
       inkscape:collect="always" />
    <linearGradient
       x1="45.447727"
       y1="92.539597"
       x2="45.447727"
       y2="7.0165396"
       id="ButtonShadow-1"
       gradientUnits="userSpaceOnUse"
       gradientTransform="scale(1.0058652,0.994169)">
      <stop
         id="stop3750-9"
         style="stop-color:#000000;stop-opacity:1"
         offset="0" />
      <stop
         id="stop3752-9"
         style="stop-color:#000000;stop-opacity:0.58823532"
         offset="1" />
    </linearGradient>
    <filter
       color-interpolation-filters="sRGB"
       id="filter3174-3">
      <feGaussianBlur
         id="feGaussianBlur3176-6"
         stdDeviation="1.71" />
    </filter>
    <linearGradient
       inkscape:collect="always"
       xlink:href="#ButtonShadow-25"
       id="linearGradient5664"
       gradientUnits="userSpaceOnUse"
       gradientTransform="matrix(1.0058652,0,0,0.994169,19.251325,705.67531)"
       x1="45.447727"
       y1="92.539597"
       x2="45.447727"
       y2="7.0165396" />
    <linearGradient
       id="linearGradient6139-0-2">
      <stop
         id="stop6141-2-9"
         offset="0"
         style="stop-color:#b2babc;stop-opacity:1" />
      <stop
         style="stop-color:#ffffff;stop-opacity:1;"
         offset="0.25"
         id="stop6151-0-3" />
      <stop
         style="stop-color:#96a1a4;stop-opacity:1"
         offset="0.5"
         id="stop6147-1-1" />
      <stop
         id="stop6149-4-9"
         offset="0.75"
         style="stop-color:#fbf9f9;stop-opacity:1;" />
      <stop
         id="stop6143-4-4"
         offset="1"
         style="stop-color:#b2b9bc;stop-opacity:1" />
    </linearGradient>
    <clipPath
       id="clipPath4156-4-1"
       clipPathUnits="userSpaceOnUse">
      <path
         inkscape:connector-curvature="0"
         id="path4158-0-8"
         d="m 27.046336,-55.695463 -14.21366,13.321486 h 0.06127 l 15.653407,21.770763 10.231384,-10.546177 C 38.561832,-32.30156 27.468089,-54.819245 27.046336,-55.695463 Z M 9.6468554,-39.382809 -5.2407289,-25.32124 15.987863,-7.8059573 26.372412,-18.382966 Z m 31.4906096,12.951445 -9.741259,9.713584 8.944804,12.4580526 7.780753,-7.5550056 z m -49.8397109,4.378822 -13.7541661,12.9822847 26.2830181,13.84571 0.06127,-0.0617 -0.122531,-0.0617 L 13.598503,-5.4007374 -8.7022409,-22.052595 Z m 38.0154159,7.400825 -9.802525,9.7752596 11.579232,9.5594001 7.62759,-7.40083 -8.669108,-11.0087257 z m 20.187073,5.6739697 -7.382526,7.2158 6.187844,8.54179 5.820249,-6.13651996 z m -32.195166,6.32154 -9.5574606,9.49772 13.6622686,7.1849703 7.933918,-7.6783603 z m 23.311629,2.37443004 -7.10683,6.93826996 8.362778,6.9074403 5.360756,-5.6739699 -0.06127,-0.0925 -0.0919,0.12335 -6.463539,-8.20258036 z m -8.730374,8.54178036 -7.505057,7.3391599 10.353916,5.45811 c 1.397496,-1.32103 5.67514,-6.12292 5.850882,-6.32154 z"
         style="opacity:0.6;fill:#ffffff;fill-opacity:1;stroke:none" />
    </clipPath>
    <clipPath
       clipPathUnits="userSpaceOnUse"
       id="clipPath4355-7">
      <rect
         style="fill:#ffffff;fill-opacity:1;fill-rule:nonzero;stroke:none"
         id="rect4357-5"
         width="84"
         height="80"
         x="6"
         y="6"
         rx="6"
         ry="6" />
    </clipPath>
    <clipPath
       clipPathUnits="userSpaceOnUse"
       id="clipPath4355-9">
      <rect
         style="fill:#ffffff;fill-opacity:1;fill-rule:nonzero;stroke:none"
         id="rect4357-1"
         width="84"
         height="80"
         x="6"
         y="6"
         rx="6"
         ry="6" />
    </clipPath>
    <clipPath
       clipPathUnits="userSpaceOnUse"
       id="clipPath4355-1">
      <rect
         style="fill:#ffffff;fill-opacity:1;fill-rule:nonzero;stroke:none"
         id="rect4357-9"
         width="84"
         height="80"
         x="6"
         y="6"
         rx="6"
         ry="6" />
    </clipPath>
    <clipPath
       clipPathUnits="userSpaceOnUse"
       id="clipPath3943-52-0">
      <path
         id="path3945-4-1"
         d="m 69.78125,20.84375 -5,3.4375 c 5.586891,5.537137 9,13.327613 9,21.8125 0,8.434478 -3.37723,16.095981 -8.90625,21.625 l 5,3.4375 C 76.078226,64.5762 80,55.843726 80,46.09375 c 2e-6,-9.796556 -3.962955,-18.660417 -10.21875,-25.25 z M 40,24.0625 28.90625,36.21875 H 21.5 c -0.823281,0 -1.5,0.676717 -1.5,1.5 v 1 14.84375 1 c 0,0.823281 0.684121,1.610161 1.5,1.5 h 7.40625 L 40,68 V 66 26.0625 Z m 20.59375,3.28125 -5,3.4375 L 55.5,30.875 c 3.93815,3.890071 6.40625,9.25018 6.40625,15.21875 0,5.920869 -2.42961,11.148358 -6.3125,15.03125 l 0.09375,0.09375 5.09375,3.4375 c 4.475428,-4.908367 7.25,-11.402005 7.25,-18.5625 0,-7.230696 -2.87904,-13.83107 -7.4375,-18.75 z m -9.25,6.5 -5.21875,3.625 c 2.222384,2.217802 3.71875,5.239596 3.71875,8.625 0,3.336509 -1.458847,6.227712 -3.625,8.4375 l 5.21875,3.625 c 2.822412,-3.236947 4.53125,-7.43414 4.53125,-12.0625 0,-4.672601 -1.754155,-9.001351 -4.625,-12.25 z"
         style="color:#000000;display:inline;overflow:visible;visibility:visible;opacity:0.8;fill:#ff00ff;fill-opacity:1;fill-rule:nonzero;stroke:none;stroke-width:1;marker:none;enable-background:accumulate"
         inkscape:connector-curvature="0" />
    </clipPath>
    <clipPath
       id="clipPath4156-4-1-5"
       clipPathUnits="userSpaceOnUse">
      <path
         inkscape:connector-curvature="0"
         id="path4158-0-8-2"
         d="m 27.046336,-55.695463 -14.21366,13.321486 h 0.06127 l 15.653407,21.770763 10.231384,-10.546177 C 38.561832,-32.30156 27.468089,-54.819245 27.046336,-55.695463 Z M 9.6468554,-39.382809 -5.2407289,-25.32124 15.987863,-7.8059573 26.372412,-18.382966 Z m 31.4906096,12.951445 -9.741259,9.713584 8.944804,12.4580526 7.780753,-7.5550056 z m -49.8397109,4.378822 -13.7541661,12.9822847 26.2830181,13.84571 0.06127,-0.0617 -0.122531,-0.0617 L 13.598503,-5.4007374 -8.7022409,-22.052595 Z m 38.0154159,7.400825 -9.802525,9.7752596 11.579232,9.5594001 7.62759,-7.40083 -8.669108,-11.0087257 z m 20.187073,5.6739697 -7.382526,7.2158 6.187844,8.54179 5.820249,-6.13651996 z m -32.195166,6.32154 -9.5574606,9.49772 13.6622686,7.1849703 7.933918,-7.6783603 z m 23.311629,2.37443004 -7.10683,6.93826996 8.362778,6.9074403 5.360756,-5.6739699 -0.06127,-0.0925 -0.0919,0.12335 -6.463539,-8.20258036 z m -8.730374,8.54178036 -7.505057,7.3391599 10.353916,5.45811 c 1.397496,-1.32103 5.67514,-6.12292 5.850882,-6.32154 z"
         style="opacity:0.6;fill:#ffffff;fill-opacity:1;stroke:none" />
    </clipPath>
    <clipPath
       clipPathUnits="userSpaceOnUse"
       id="clipPath4355-7-5">
      <rect
         style="fill:#ffffff;fill-opacity:1;fill-rule:nonzero;stroke:none"
         id="rect4357-5-4"
         width="84"
         height="80"
         x="6"
         y="6"
         rx="6"
         ry="6" />
    </clipPath>
    <clipPath
       clipPathUnits="userSpaceOnUse"
       id="clipPath4355-9-7">
      <rect
         style="fill:#ffffff;fill-opacity:1;fill-rule:nonzero;stroke:none"
         id="rect4357-1-4"
         width="84"
         height="80"
         x="6"
         y="6"
         rx="6"
         ry="6" />
    </clipPath>
    <clipPath
       clipPathUnits="userSpaceOnUse"
       id="clipPath4355-1-4">
      <rect
         style="fill:#ffffff;fill-opacity:1;fill-rule:nonzero;stroke:none"
         id="rect4357-9-3"
         width="84"
         height="80"
         x="6"
         y="6"
         rx="6"
         ry="6" />
    </clipPath>
    <clipPath
       clipPathUnits="userSpaceOnUse"
       id="clipPath3943-52-0-0">
      <path
         id="path3945-4-1-7"
         d="m 69.78125,20.84375 -5,3.4375 c 5.586891,5.537137 9,13.327613 9,21.8125 0,8.434478 -3.37723,16.095981 -8.90625,21.625 l 5,3.4375 C 76.078226,64.5762 80,55.843726 80,46.09375 c 2e-6,-9.796556 -3.962955,-18.660417 -10.21875,-25.25 z M 40,24.0625 28.90625,36.21875 H 21.5 c -0.823281,0 -1.5,0.676717 -1.5,1.5 v 1 14.84375 1 c 0,0.823281 0.684121,1.610161 1.5,1.5 h 7.40625 L 40,68 V 66 26.0625 Z m 20.59375,3.28125 -5,3.4375 L 55.5,30.875 c 3.93815,3.890071 6.40625,9.25018 6.40625,15.21875 0,5.920869 -2.42961,11.148358 -6.3125,15.03125 l 0.09375,0.09375 5.09375,3.4375 c 4.475428,-4.908367 7.25,-11.402005 7.25,-18.5625 0,-7.230696 -2.87904,-13.83107 -7.4375,-18.75 z m -9.25,6.5 -5.21875,3.625 c 2.222384,2.217802 3.71875,5.239596 3.71875,8.625 0,3.336509 -1.458847,6.227712 -3.625,8.4375 l 5.21875,3.625 c 2.822412,-3.236947 4.53125,-7.43414 4.53125,-12.0625 0,-4.672601 -1.754155,-9.001351 -4.625,-12.25 z"
         style="color:#000000;display:inline;overflow:visible;visibility:visible;opacity:0.8;fill:#ff00ff;fill-opacity:1;fill-rule:nonzero;stroke:none;stroke-width:1;marker:none;enable-background:accumulate"
         inkscape:connector-curvature="0" />
    </clipPath>
    <linearGradient
       inkscape:collect="always"
       xlink:href="#linearGradient6139-0-2"
       id="linearGradient4071"
       gradientUnits="userSpaceOnUse"
       gradientTransform="matrix(1.1071428,0,0,1.1071426,-4.9939026,-3.620687)"
       x1="6"
       y1="47.000011"
       x2="90"
       y2="47.000011" />
    <linearGradient
       gradientTransform="translate(0.1489535,0.415026)"
       inkscape:collect="always"
       xlink:href="#linearGradient3832-0-6-1-1"
       id="linearGradient4129"
       x1="1.5"
       y1="88.171875"
       x2="94.5"
       y2="88.171875"
       gradientUnits="userSpaceOnUse" />
    <radialGradient
       inkscape:collect="always"
       xlink:href="#linearGradient4133-5"
       id="radialGradient7462"
       gradientUnits="userSpaceOnUse"
       gradientTransform="matrix(0.97513378,0,0,0.04919072,34.047649,80.581722)"
       cx="13.948145"
       cy="44.892841"
       fx="13.948145"
       fy="44.892841"
       r="43.199203" />
    <radialGradient
       inkscape:collect="always"
       xlink:href="#linearGradient4133-5"
       id="radialGradient7464"
       gradientUnits="userSpaceOnUse"
       gradientTransform="matrix(0.88832663,0,0,0.04919072,31.959518,-90.31726)"
       cx="13.948145"
       cy="44.892841"
       fx="13.948145"
       fy="44.892841"
       r="43.199203" />
    <linearGradient
       inkscape:collect="always"
       xlink:href="#linearGradient4133-5"
       id="linearGradient4767"
       gradientUnits="userSpaceOnUse"
       x1="2.7713892"
       y1="-28.64156"
       x2="50.527882"
       y2="14.514202" />
    <clipPath
       id="clipPath4156-4-1-2"
       clipPathUnits="userSpaceOnUse">
      <path
         inkscape:connector-curvature="0"
         id="path4158-0-8-7"
         d="m 27.046336,-55.695463 -14.21366,13.321486 h 0.06127 l 15.653407,21.770763 10.231384,-10.546177 C 38.561832,-32.30156 27.468089,-54.819245 27.046336,-55.695463 Z M 9.6468554,-39.382809 -5.2407289,-25.32124 15.987863,-7.8059573 26.372412,-18.382966 Z m 31.4906096,12.951445 -9.741259,9.713584 8.944804,12.4580526 7.780753,-7.5550056 z m -49.8397109,4.378822 -13.7541661,12.9822847 26.2830181,13.84571 0.06127,-0.0617 -0.122531,-0.0617 L 13.598503,-5.4007374 -8.7022409,-22.052595 Z m 38.0154159,7.400825 -9.802525,9.7752596 11.579232,9.5594001 7.62759,-7.40083 -8.669108,-11.0087257 z m 20.187073,5.6739697 -7.382526,7.2158 6.187844,8.54179 5.820249,-6.13651996 z m -32.195166,6.32154 -9.5574606,9.49772 13.6622686,7.1849703 7.933918,-7.6783603 z m 23.311629,2.37443004 -7.10683,6.93826996 8.362778,6.9074403 5.360756,-5.6739699 -0.06127,-0.0925 -0.0919,0.12335 -6.463539,-8.20258036 z m -8.730374,8.54178036 -7.505057,7.3391599 10.353916,5.45811 c 1.397496,-1.32103 5.67514,-6.12292 5.850882,-6.32154 z"
         style="opacity:0.6;fill:#ffffff;fill-opacity:1;stroke:none" />
    </clipPath>
    <clipPath
       clipPathUnits="userSpaceOnUse"
       id="clipPath4355-7-0">
      <rect
         style="fill:#ffffff;fill-opacity:1;fill-rule:nonzero;stroke:none"
         id="rect4357-5-9"
         width="84"
         height="80"
         x="6"
         y="6"
         rx="6"
         ry="6" />
    </clipPath>
    <clipPath
       clipPathUnits="userSpaceOnUse"
       id="clipPath4355-9-3">
      <rect
         style="fill:#ffffff;fill-opacity:1;fill-rule:nonzero;stroke:none"
         id="rect4357-1-6"
         width="84"
         height="80"
         x="6"
         y="6"
         rx="6"
         ry="6" />
    </clipPath>
    <clipPath
       clipPathUnits="userSpaceOnUse"
       id="clipPath4355-1-0">
      <rect
         style="fill:#ffffff;fill-opacity:1;fill-rule:nonzero;stroke:none"
         id="rect4357-9-6"
         width="84"
         height="80"
         x="6"
         y="6"
         rx="6"
         ry="6" />
    </clipPath>
    <clipPath
       clipPathUnits="userSpaceOnUse"
       id="clipPath3943-52-0-2">
      <path
         id="path3945-4-1-6"
         d="m 69.78125,20.84375 -5,3.4375 c 5.586891,5.537137 9,13.327613 9,21.8125 0,8.434478 -3.37723,16.095981 -8.90625,21.625 l 5,3.4375 C 76.078226,64.5762 80,55.843726 80,46.09375 c 2e-6,-9.796556 -3.962955,-18.660417 -10.21875,-25.25 z M 40,24.0625 28.90625,36.21875 H 21.5 c -0.823281,0 -1.5,0.676717 -1.5,1.5 v 1 14.84375 1 c 0,0.823281 0.684121,1.610161 1.5,1.5 h 7.40625 L 40,68 V 66 26.0625 Z m 20.59375,3.28125 -5,3.4375 L 55.5,30.875 c 3.93815,3.890071 6.40625,9.25018 6.40625,15.21875 0,5.920869 -2.42961,11.148358 -6.3125,15.03125 l 0.09375,0.09375 5.09375,3.4375 c 4.475428,-4.908367 7.25,-11.402005 7.25,-18.5625 0,-7.230696 -2.87904,-13.83107 -7.4375,-18.75 z m -9.25,6.5 -5.21875,3.625 c 2.222384,2.217802 3.71875,5.239596 3.71875,8.625 0,3.336509 -1.458847,6.227712 -3.625,8.4375 l 5.21875,3.625 c 2.822412,-3.236947 4.53125,-7.43414 4.53125,-12.0625 0,-4.672601 -1.754155,-9.001351 -4.625,-12.25 z"
         style="color:#000000;display:inline;overflow:visible;visibility:visible;opacity:0.8;fill:#ff00ff;fill-opacity:1;fill-rule:nonzero;stroke:none;stroke-width:1;marker:none;enable-background:accumulate"
         inkscape:connector-curvature="0" />
    </clipPath>
    <radialGradient
       inkscape:collect="always"
       xlink:href="#linearGradient3752-3-5-4"
       id="radialGradient5666"
       gradientUnits="userSpaceOnUse"
       cx="64"
       cy="32"
       fx="64"
       fy="32"
       r="32"
       gradientTransform="matrix(1.03125,0,0,1.03125,-18.000003,965.09023)" />
    <radialGradient
       inkscape:collect="always"
       xlink:href="#linearGradient3899-2"
       id="radialGradient5668"
       gradientUnits="userSpaceOnUse"
       gradientTransform="matrix(1.0666281,-4.4233427e-8,4.4760931e-8,1.0793482,-17.62269,960.7588)"
       cx="52.148148"
       cy="43.851852"
       fx="52.148148"
       fy="43.851852"
       r="32" />
    <linearGradient
       inkscape:collect="always"
       xlink:href="#linearGradient3812-9"
       id="linearGradient5670"
       gradientUnits="userSpaceOnUse"
       gradientTransform="rotate(90,-429.54511,520.54511)"
       x1="21"
       y1="43.000004"
       x2="75"
       y2="43.000004" />
    <linearGradient
       inkscape:collect="always"
       xlink:href="#linearGradient4025-0"
       id="linearGradient5672"
       gradientUnits="userSpaceOnUse"
       x1="59.578266"
       y1="22.91832"
       x2="28.571617"
       y2="87.367798"
       gradientTransform="translate(-7e-6,955.09021)" />
    <filter
       style="color-interpolation-filters:sRGB"
       id="filter4045-1"
       inkscape:collect="always">
      <feGaussianBlur
         id="feGaussianBlur4047-9"
         stdDeviation="0.46710064"
         inkscape:collect="always" />
    </filter>
    <filter
       style="color-interpolation-filters:sRGB"
       id="filter4057-4"
       inkscape:collect="always">
      <feGaussianBlur
         id="feGaussianBlur4059-7"
         stdDeviation="0.4121875"
         inkscape:collect="always" />
    </filter>
    <filter
       style="color-interpolation-filters:sRGB"
       id="filter4082-3"
       inkscape:collect="always">
      <feGaussianBlur
         id="feGaussianBlur4084-0"
         stdDeviation="0.3846875"
         inkscape:collect="always" />
    </filter>
    <linearGradient
       inkscape:collect="always"
       xlink:href="#linearGradient4133-5"
       id="linearGradient5674"
       gradientUnits="userSpaceOnUse"
       x1="64.995598"
       y1="-0.90906203"
       x2="64.995598"
       y2="55.535763"
       gradientTransform="matrix(0.58747152,0,0,0.37002308,10.401817,973.82385)" />
    <radialGradient
       inkscape:collect="always"
       xlink:href="#linearGradient4263-5"
       id="radialGradient5676"
       gradientUnits="userSpaceOnUse"
       cx="18"
       cy="18"
       fx="18"
       fy="18"
       r="2"
       gradientTransform="translate(-0.408289,954.51861)" />
    <radialGradient
       inkscape:collect="always"
       xlink:href="#linearGradient4263-5"
       id="radialGradient5678"
       gradientUnits="userSpaceOnUse"
       cx="18"
       cy="18"
       fx="18"
       fy="18"
       r="2"
       gradientTransform="matrix(1.5,0,0,1.5,54.022674,955.18844)" />
    <radialGradient
       inkscape:collect="always"
       xlink:href="#linearGradient4263-5"
       id="radialGradient5680"
       gradientUnits="userSpaceOnUse"
       cx="18"
       cy="18"
       fx="18"
       fy="18"
       r="2"
       gradientTransform="translate(-5.264734,965.39076)" />
    <radialGradient
       inkscape:collect="always"
       xlink:href="#linearGradient4263-5"
       id="radialGradient5682"
       gradientUnits="userSpaceOnUse"
       cx="18"
       cy="18"
       fx="18"
       fy="18"
       r="2"
       gradientTransform="translate(39.486099,947.6342)" />
  </defs>
  <sodipodi:namedview
     id="base"
     pagecolor="#ffffff"
     bordercolor="#666666"
     borderopacity="1.0"
     inkscape:pageopacity="0.0"
     inkscape:pageshadow="2"
     inkscape:zoom="3.959798"
     inkscape:cx="85.648055"
     inkscape:cy="37.468716"
     inkscape:document-units="px"
     inkscape:current-layer="g2574"
     showgrid="false"
     inkscape:window-width="1280"
     inkscape:window-height="947"
     inkscape:window-x="0"
     inkscape:window-y="19"
     inkscape:window-maximized="1" />
  <metadata
     id="metadata5194">
    <rdf:RDF>
      <cc:Work
         rdf:about="">
        <dc:format>image/svg+xml</dc:format>
        <dc:type
           rdf:resource="http://purl.org/dc/dcmitype/StillImage" />
        <dc:title />
      </cc:Work>
    </rdf:RDF>
  </metadata>
  <g
     inkscape:label="Livello 1"
     inkscape:groupmode="layer"
     id="layer1"
     transform="translate(0,-956.36218)">
    <rect
       style="opacity:0.9;fill:url(#linearGradient5664);fill-opacity:1;fill-rule:nonzero;stroke:none;filter:url(#filter3174-58)"
       id="rect3745-61"
       width="86"
       height="85"
       x="24.251326"
       y="712.67529"
       rx="6"
       ry="6" />
    <g
       id="g994"
       transform="translate(118.44039,-77.529207)" />
    <g
       transform="translate(0,-70.157546)"
       id="layer1-8"
       inkscape:label="Livello 1">
      <g
         id="g2574"
         style="display:inline"
         transform="translate(-0.14895645,1026.1047)">
        <path
           style="display:inline;opacity:0.15;fill:#000000;fill-opacity:1;fill-rule:nonzero;stroke:none"
           d="M 89.29181,0.415026 H 7.0060911 c -3.798848,0 -6.8571352,3.058285 -6.8571352,6.8571399 V 89.557884 c 0,3.798857 3.0582872,6.857142 6.8571352,6.857142 H 89.29181 c 3.798857,0 6.857147,-3.058285 6.857147,-6.857142 V 7.2721659 c 0,-3.7988549 -3.05829,-6.8571399 -6.857147,-6.8571399 z"
           id="path3288-7"
           inkscape:connector-curvature="0" />
        <path
           inkscape:connector-curvature="0"
           id="path4085-9"
           d="M 88.648954,1.165026 H 7.6489471 c -3.739492,0 -6.749993,3.010499 -6.749993,6.7499969 V 88.915026 c 0,3.739501 3.010501,6.75 6.749993,6.75 H 88.648954 c 3.739503,0 6.750003,-3.010499 6.750003,-6.75 V 7.9150229 c 0,-3.7394979 -3.0105,-6.7499969 -6.750003,-6.7499969 z"
           style="display:inline;opacity:0.15;fill:#000000;fill-opacity:1;fill-rule:nonzero;stroke:none" />
        <path
           style="display:inline;fill:url(#linearGradient4071);fill-opacity:1;fill-rule:nonzero;stroke:none"
           d="M 88.006093,1.915026 H 8.2918111 c -3.680143,0 -6.6428566,2.962713 -6.6428566,6.6428549 V 88.272171 c 0,3.680142 2.9627136,6.642856 6.6428566,6.642856 H 88.006093 c 3.680143,0 6.642854,-2.962714 6.642854,-6.642856 V 8.5578809 c 0,-3.6801419 -2.962711,-6.6428549 -6.642854,-6.6428549 z"
           id="rect4251-1-2"
           inkscape:connector-curvature="0" />
        <path
           style="display:inline;opacity:0.77864583;fill:#2491d7;fill-opacity:1;fill-rule:nonzero;stroke:none;stroke-width:1.04755962"
           d="m 11.451842,6.8021682 c -2.8908333,0 -5.1857234,2.3412146 -5.1857234,5.2903958 v 21.922076 7.406554 40.835241 c 1.1104293,1.723377 3.0045356,2.876652 5.1857234,2.876652 h 4.148578 66.377261 4.148578 c 2.181188,0 4.075294,-1.153275 5.185724,-2.876652 V 41.421194 34.01464 12.092564 c 0,-2.9491812 -2.294891,-5.2903958 -5.185724,-5.2903958 z"
           id="path3400-6"
           inkscape:connector-curvature="0"
           sodipodi:nodetypes="sscccsccscccsss" />
        <g
           transform="translate(0.99095886,-951.93272)"
           id="g1084">
          <circle
             style="color:#000000;display:inline;overflow:visible;visibility:visible;opacity:0.25;fill:url(#radialGradient5666);fill-opacity:1;fill-rule:nonzero;stroke:none;stroke-width:1.546875;marker:none;enable-background:accumulate"
             id="path3651"
             cx="47.999996"
             cy="998.09021"
             r="33" />
          <circle
             id="path3695"
             style="color:#000000;display:inline;overflow:visible;visibility:visible;fill:url(#radialGradient5668);fill-opacity:1;fill-rule:nonzero;stroke:none;stroke-width:1.265625;marker:none;enable-background:accumulate"
             cx="47.999989"
             cy="998.09021"
             r="27.000002" />
          <path
             style="color:#000000;display:inline;overflow:visible;visibility:visible;opacity:0.6;fill:url(#linearGradient5670);fill-opacity:1;fill-rule:nonzero;stroke:none;stroke-width:1.5;marker:none;enable-background:accumulate"
             d="m 74.999993,998.09021 c 0,-14.91169 -12.088311,-27 -27,-27 -14.911689,0 -27,12.08831 -27,27 0,14.91169 12.088311,26.99999 27,26.99999 14.911689,0 27,-12.0883 27,-26.99999 z m -1,0 c 0,14.35939 -11.640597,25.99999 -26,25.99999 -14.359403,0 -26,-11.6406 -26,-25.99999 0,-14.3594 11.640597,-26 26,-26 14.359403,0 26,11.6406 26,26 z"
             id="path3695-8"
             inkscape:connector-curvature="0" />
          <path
             style="opacity:0.4;fill:url(#linearGradient5672);fill-opacity:1;stroke:none;filter:url(#filter4045-1)"
             d="m 41.124993,971.96521 c -2.630101,0.69019 -5.091436,1.78825 -7.34375,3.1875 -0.685588,0.94401 -1.324069,1.90927 -2,2.8125 -0.448353,0.97474 -1.840597,0.83498 -3,1.1875 -0.06669,0.0677 -0.152773,0.11913 -0.21875,0.1875 -1.587159,2.08613 -3.499806,4.03099 -4.5,6.46875 -1.285455,2.53335 4.17355,2.00344 1.4375,4.5 -1.040132,1.50918 -0.613715,4.81376 1.25,5.875 1.601016,1.56141 -3.18156,3.17042 -1,5.15624 2.037804,0.7359 4.28976,-0.9882 6.21875,-0.25 1.305401,1.4218 -0.798205,3.0113 0.59375,4.3438 -1.770141,-0.073 -3.575367,0.4308 -2.96875,2.6562 -0.291967,2.7503 4.47922,2.6209 3.875,-0.3125 0.109805,-1.3721 1.504925,-2.7989 2.34375,-0.8437 -0.121232,2.0713 3.797242,0.9239 2.03125,3.25 -3.679952,0.04 -1.412164,5.5623 0.84375,3.625 0.197855,-2.1793 2.263653,-1.9169 3.53125,-1.0625 3.159889,-0.7472 -0.339503,-4.4046 0.78125,-6.0625 1.160505,0.027 1.328428,2.549 2.375,0.3125 1.465887,-2.6601 -0.733259,-4.8961 -3.15625,-5.625 -2.39905,-0.8352 -0.764095,-3.14851 -1,-4.56254 -2.174892,-1.68835 -3.151208,0.84977 -2.96875,2.59375 -2.624287,0.40125 -1.980251,-3.00043 -3.9375,-4.09375 -1.35872,-0.98452 -4.425029,-0.96683 -2.5625,-3.5625 1.882879,-0.8553 4.158864,-1.60003 3.46875,-4.25 0.902932,-2.52175 -4.201748,-1.52945 -2.0625,-3.8125 2.726854,-0.0431 4.493802,-2.20369 3.78125,-4.90625 0.618601,-1.87616 3.381203,-1.41566 4.28125,-2.9375 0.24257,0.33937 0.515761,0.67548 0.875,0.90625 0.517494,0.48859 1.331487,0.075 1.84375,-0.25 0.03671,-0.5471 0.08066,-1.44506 0.9375,-1.25 0.894583,0.0875 1.805269,0.0497 2.65625,-0.1875 0.132435,-0.62698 -0.828572,-1.41793 -1.59375,-1.34375 -0.690888,0.2469 -1.575433,-0.2789 -2.125,0.25 -0.683608,5.9e-4 -1.378892,1.8e-4 -2.0625,0 0.03031,-0.71965 -0.215572,-1.43403 -0.625,-2 z m 12.15625,2.875 c -0.49783,0.14127 -0.77761,0.55806 -0.6875,1.09375 0.281817,0.50293 0.655379,0.80476 1,1.46875 0.725532,0.77285 1.171906,1.60618 1.5625,2.5625 0.679147,0.63615 0.924962,2.05822 2.125,1.78125 0.892259,-0.13706 1.751122,0.0442 2.625,0.1875 0.817318,-0.11595 1.519086,1.01144 2.34375,0.5625 1.218771,0.20939 1.179599,-1.24506 0.53125,-1.875 -0.727645,-0.82903 -2.018925,-0.21868 -3,-0.40625 -0.674295,0.40594 -2.768203,0.25916 -1.96875,-0.8125 0.06822,-1.34483 -0.958201,-2.07848 -2.21875,-2.21875 -0.71555,-0.33913 -0.21076,-0.62154 0.21875,-0.84375 0.154304,-1.3035 -1.634884,-1.24261 -2.53125,-1.5 z m -2.90625,2.8125 c -1.769141,0.20815 -1.56966,3.32082 -2.53125,4.46875 -1.781415,0.71071 -2.789571,-1.27095 -2.53125,-2.625 -0.953571,-0.68666 -1.393914,-0.9838 -1.625,0.28125 -1.481128,0.99581 -2.779537,-1.90183 -4.40625,-1.28125 1.650433,-0.29336 -2.379296,1.44113 -0.96875,2.65625 0.882566,1.33371 0.547806,2.80962 -1.21875,2.78125 -1.7682,0.77981 -0.9348,2.37155 0.625,2.375 1.927772,2.2716 -2.146198,3.93859 -0.96875,6.40625 0.829099,2.81372 4.293621,-0.0828 2.75,-2.125 -0.63476,-3.10378 3.516721,-2.05191 3.1875,0.46875 1.097519,0.71463 4.24373,0.75757 2.8125,3.125 -1.989848,0.41359 -1.634938,3.00685 0,3.65625 -1.273387,0.81022 -1.070396,4.52119 0.6875,2.59379 2.55027,-2.29401 2.238448,3.3449 5.03125,1.8125 1.476046,-2.1551 -1.922476,-3.29371 -2.9375,-4.71879 -1.695694,-2.32024 3.513393,-1.25811 1.46875,-3.21875 -2.216777,-1.07442 -0.915227,-3.66248 1.28125,-2.625 2.597876,0.48816 -1.249792,-3.77524 1.46875,-2.65625 0.214769,1.83537 3.629602,1.42583 1.59375,-0.375 -0.552584,-2.03868 2.837465,-3.72511 0.75,-5.875 -2.49896,-0.74292 -1.953184,-3.63335 -3.59375,-5.03125 -0.342826,-0.1033 -0.622266,-0.12349 -0.875,-0.0937 z m 14.5,9.1875 c -0.159178,0.006 -0.352477,0.0451 -0.53125,0.0937 -1.136166,1.20097 -2.450606,1.57763 -4.0625,1.125 -0.453339,-0.25339 -1.492458,-0.72051 -1.90625,-0.5625 -1.601394,-0.15718 -1.201009,1.58483 -1.375,2.40625 -1.083557,0.16903 -1.858615,0.98938 -0.90625,1.96875 0.594657,1.888 -1.750095,0.54745 -2.5625,0.75 -1.542901,0.59052 0.945234,1.32363 -0.34375,2.1875 -1.148895,0.11566 -3.084109,1.53881 -1.625,2.46875 1.059642,0.31895 3.365937,-0.85616 3,1.28125 -0.631074,1.45769 2.555896,3.10349 1.90625,0.90625 -0.553648,-1.03096 -1.964814,-3.64948 0.34375,-3.125 0.43383,0.71075 0.811435,1.16193 1.875,0.78125 0.294337,-1.51199 2.424562,-1.1232 3.4375,-0.40625 1.814834,0.38138 0.407292,-2.75393 2.3125,-2.9375 1.284082,-1.05279 0.568742,-3.00455 -0.75,-3.625 0.192352,-1.51722 2.591074,-1.41863 3.6875,-1.6875 -0.73147,-0.75719 -1.385752,-1.66821 -2.5,-1.625 z m 9.78125,7 c -0.25994,0.0287 -0.53625,0.30012 -0.6875,0.5 -0.290975,0.5982 -1.000971,0.52622 -1.21875,0.9375 -0.141526,0.37803 -0.495053,0.10317 -0.6875,0.46875 -0.190992,-0.13956 -1.307323,-0.0257 -0.8125,0.25 -0.686197,0.34335 -0.160287,1.29903 -0.3125,1.90625 -0.173032,0.70354 0.449682,1.05817 0.65625,1.625 0.164894,0.17637 0.424371,-0.0474 0.53125,0.3125 0.0051,0.32449 0.591153,0.0243 0.625,0.37499 -0.435588,0.2083 0.822731,0.4871 0.875,0 0.285348,-0.36318 0.636657,-1.01464 0.96875,-1.40624 0.06325,-0.14652 0.229071,-0.2018 0.40625,-0.25 0.0027,-0.15813 0,-0.30997 0,-0.46875 0,-1.44284 -0.125795,-2.86842 -0.34375,-4.25 z m -8.1875,0.875 c -0.379961,0.047 -0.733594,0.29326 -0.875,0.75 -0.497161,0.76901 -0.637857,2.06655 -1.75,2.09375 -0.565353,0.2637 -1.069569,0.83367 -1.75,0.75 -0.853113,-0.52783 -2.050569,-0.57879 -2.90625,-0.0312 -0.979637,0.62659 0.920951,1.64524 -0.28125,2.00004 -1.181569,0.049 -1.29007,1.3638 -0.53125,2.0312 0.782696,0.6982 2.146893,0.7128 2.5625,1.8125 0.276152,0.7293 0.987013,1.4635 0.65625,2.3125 -0.472508,0.9026 -1.536122,0.1331 -2.25,0.4375 -1.029882,0.431 -0.523316,1.8332 0.53125,1.5 1.213637,0.1383 1.873078,1.525 1.53125,2.625 -0.05927,0.9616 -1.450639,1.4808 -0.96875,2.5 0.355822,0.6983 1.623059,1.1316 2.03125,0.2813 0.0049,-0.9348 0.773269,-1.6486 0.875,-2.5938 0.161083,-0.8826 0.162057,-1.9097 -0.3125,-2.6875 -0.954862,-0.7097 -0.233236,-1.9177 0.46875,-2.5 0.579353,-0.4108 1.08788,-1.2862 1.625,-1.5 0.57674,0.3542 1.476139,1.6638 1.8125,0.3438 0.423086,-1.0331 0.172364,-2.3017 0.9375,-3.1875 0.510831,-0.5136 2.083862,-0.1073 1.65625,-1.25 -0.526004,-0.73334 -1.842617,-0.1401 -1.84375,-1.28129 -0.244023,-1.28825 0.356421,-2.65997 -0.1875,-3.90625 -0.247692,-0.40748 -0.651289,-0.54703 -1.03125,-0.5 z m 8.21875,7.43749 c -0.09061,0.075 -0.09338,0.093 -0.3125,0.25 l 0.1875,-0.062 c -0.07924,0.071 -0.07566,0.052 -0.1875,0.1563 -1.076962,0.9946 -1.656361,2.5292 -2.84375,3.1875 -1.889048,0.059 -0.738358,-2.5351 -2,-3 -1.647316,0.063 -0.882766,2.2333 -1.8125,3.0312 -1.08203,0.629 -2.498698,1.7262 -1.15625,2.9375 0.876005,1.0468 0.495851,2.4916 0.34375,3.7188 -0.571705,0.7173 -0.305346,2.4182 0.84375,1.5625 0.395003,-1.2407 -0.227373,-2.9685 1,-3.9063 0.759731,-1.1887 2.482549,-0.5402 3.59375,-1.1562 0.141322,0.042 0.251629,0.05 0.375,0.062 0.922843,-2.1 1.605799,-4.3171 1.96875,-6.6563 l -0.09375,0.031 c 0.0398,-0.035 0.05177,-0.052 0.09375,-0.094 0.003,-0.02 -0.003,-0.043 0,-0.062 z"
             id="path3907"
             inkscape:connector-curvature="0" />
          <path
             style="color:#000000;display:inline;overflow:visible;visibility:visible;opacity:0.4;fill:#a18a56;fill-opacity:1;fill-rule:nonzero;stroke:none;stroke-width:1.5;marker:none;filter:url(#filter4057-4);enable-background:accumulate"
             d="m 62.249993,979.18396 c -0.762098,0 -1.375,0.6129 -1.375,1.375 0,0.7621 0.612902,1.375 1.375,1.375 0.762098,0 1.375,-0.6129 1.375,-1.375 0,-0.7621 -0.612902,-1.375 -1.375,-1.375 z m -20.40625,1.625 c -0.628797,0.12867 -1.09375,0.70816 -1.09375,1.375 0,0.7621 0.612902,1.375 1.375,1.375 0.762098,0 1.375,-0.6129 1.375,-1.375 0,-0.7621 -0.612902,-1.375 -1.375,-1.375 -0.09526,0 -0.191422,-0.0184 -0.28125,0 z m -9.9375,0.15625 c -0.493122,0 -0.90625,0.38188 -0.90625,0.875 0,0.49312 0.413128,0.90625 0.90625,0.90625 0.493122,0 0.875,-0.41313 0.875,-0.90625 0,-0.49312 -0.381878,-0.875 -0.875,-0.875 z m 28,2.59375 c -0.806927,0 -1.46875,0.66182 -1.46875,1.46875 0,0.80693 0.661823,1.4375 1.46875,1.4375 0.806927,0 1.46875,-0.63057 1.46875,-1.4375 0,-0.80693 -0.661823,-1.46875 -1.46875,-1.46875 z m -3.96875,2.75 c -0.403464,0 -0.75,0.34654 -0.75,0.75 0,0.40346 0.346536,0.71875 0.75,0.71875 0.403464,0 0.71875,-0.31529 0.71875,-0.71875 0,-0.40346 -0.315286,-0.75 -0.71875,-0.75 z m -10.0625,0.15625 c -0.403464,0 -0.75,0.34654 -0.75,0.75 0,0.40346 0.346536,0.71875 0.75,0.71875 0.403464,0 0.71875,-0.31529 0.71875,-0.71875 0,-0.40346 -0.315286,-0.75 -0.71875,-0.75 z m -15.4375,0.5 c -1.031074,0 -1.875,0.84393 -1.875,1.875 0,1.03107 0.843926,1.84375 1.875,1.84375 1.031074,0 1.875,-0.81268 1.875,-1.84375 0,-1.03107 -0.843926,-1.875 -1.875,-1.875 z m 38,4.875 c -0.582781,0 -1.0625,0.47972 -1.0625,1.0625 0,0.58278 0.479719,1.03125 1.0625,1.03125 0.582781,0 1.03125,-0.44847 1.03125,-1.03125 0,-0.58278 -0.448469,-1.0625 -1.03125,-1.0625 z m -31.09375,2.75 c -0.62761,0 -1.15625,0.52864 -1.15625,1.15625 0,0.62761 0.52864,1.125 1.15625,1.125 0.62761,0 1.125,-0.49739 1.125,-1.125 0,-0.62761 -0.49739,-1.15625 -1.125,-1.15625 z m 26.375,0.65625 c -0.851757,0 -1.53125,0.67949 -1.53125,1.53125 0,0.85176 0.679493,1.5625 1.53125,1.5625 0.851757,0 1.53125,-0.71074 1.53125,-1.5625 0,-0.85176 -0.679493,-1.53125 -1.53125,-1.53125 z m -34.6875,3.25 c -0.435212,0 -0.78125,0.19977 -0.78125,0.46875 0,0.26898 0.346038,0.5 0.78125,0.5 0.435212,0 0.78125,-0.23102 0.78125,-0.5 0,-0.26898 -0.346038,-0.46875 -0.78125,-0.46875 z m 9.59375,2.75004 c -0.717269,0 -1.28125,0.5952 -1.28125,1.3125 0,0.7172 0.563981,1.2812 1.28125,1.2812 0.717269,0 1.3125,-0.564 1.3125,-1.2812 0,-0.7173 -0.595231,-1.3125 -1.3125,-1.3125 z m -10.125,1.7812 c -0.493122,0 -0.90625,0.4131 -0.90625,0.9063 0,0.4931 0.413128,0.875 0.90625,0.875 0.493122,0 0.875,-0.3819 0.875,-0.875 0,-0.4932 -0.381878,-0.9063 -0.875,-0.9063 z m 29.375,0 c -0.493122,0 -0.90625,0.4131 -0.90625,0.9063 0,0.4931 0.413128,0.875 0.90625,0.875 0.493122,0 0.90625,-0.3819 0.90625,-0.875 0,-0.4932 -0.413128,-0.9063 -0.90625,-0.9063 z m -4.3125,0.5 c -0.806927,0 -1.4375,0.6618 -1.4375,1.4688 0,0.8069 0.630573,1.4375 1.4375,1.4375 0.806927,0 1.46875,-0.6306 1.46875,-1.4375 0,-0.807 -0.661823,-1.4688 -1.46875,-1.4688 z m 4.0625,6.1563 c -0.448293,0 -0.8125,0.3642 -0.8125,0.8125 0,0.4483 0.364207,0.8125 0.8125,0.8125 0.448293,0 0.8125,-0.3642 0.8125,-0.8125 0,-0.4483 -0.364207,-0.8125 -0.8125,-0.8125 z m -27.84375,0.6562 c -0.851757,0 -1.53125,0.6795 -1.53125,1.5313 0,0.8517 0.679493,1.5625 1.53125,1.5625 0.851757,0 1.5625,-0.7108 1.5625,-1.5625 0,-0.8518 -0.710743,-1.5313 -1.5625,-1.5313 z m 5.375,3.0938 c -0.403464,0 -0.75,0.3153 -0.75,0.7187 0,0.4035 0.346536,0.75 0.75,0.75 0.403464,0 0.71875,-0.3465 0.71875,-0.75 0,-0.4034 -0.315286,-0.7187 -0.71875,-0.7187 z m 17.6875,3.875 c -0.672439,0 -1.21875,0.5463 -1.21875,1.2187 0,0.6725 0.546311,1.2188 1.21875,1.2188 0.672439,0 1.21875,-0.5463 1.21875,-1.2188 0,-0.6724 -0.546311,-1.2187 -1.21875,-1.2187 z"
             id="path3986-7"
             inkscape:connector-curvature="0" />
          <path
             style="color:#000000;display:inline;overflow:visible;visibility:visible;opacity:0.5;fill:#ffffff;fill-opacity:1;fill-rule:nonzero;stroke:none;stroke-width:1.5;marker:none;filter:url(#filter4082-3);enable-background:accumulate"
             d="m 57.468743,983.55896 c -0.537952,0 -0.96875,0.4308 -0.96875,0.96875 0,0.53795 0.430798,0.96875 0.96875,0.96875 0.537952,0 0.96875,-0.4308 0.96875,-0.96875 0,-0.53795 -0.430798,-0.96875 -0.96875,-0.96875 z m -15.03125,7.78125 c -1.210391,0 -2.1875,0.97711 -2.1875,2.1875 0,1.21039 0.977109,2.21875 2.1875,2.21875 1.210391,0 2.21875,-1.00836 2.21875,-2.21875 0,-1.21039 -1.008359,-2.1875 -2.21875,-2.1875 z m -7.9375,0.5 c -0.582781,0 -1.0625,0.47972 -1.0625,1.0625 0,0.58278 0.479719,1.03125 1.0625,1.03125 0.582781,0 1.0625,-0.44847 1.0625,-1.03125 0,-0.58278 -0.479719,-1.0625 -1.0625,-1.0625 z m -10.40625,3.09375 c -1.031074,0 -1.84375,0.81268 -1.84375,1.84375 0,1.03107 0.812676,1.875 1.84375,1.875 1.031074,0 1.875,-0.84393 1.875,-1.875 0,-1.03107 -0.843926,-1.84375 -1.875,-1.84375 z m 0.65625,5.34374 c -0.672439,0 -1.21875,0.5463 -1.21875,1.2188 0,0.6724 0.546311,1.2187 1.21875,1.2187 0.672439,0 1.21875,-0.5463 1.21875,-1.2187 0,-0.6725 -0.546311,-1.2188 -1.21875,-1.2188 z m 30.4375,0.1563 c -0.537952,0 -0.96875,0.4308 -0.96875,0.9687 0,0.538 0.430798,1 0.96875,1 0.537952,0 0.96875,-0.462 0.96875,-1 0,-0.5379 -0.430798,-0.9687 -0.96875,-0.9687 z m -5.84375,7 c -0.806927,0 -1.4375,0.6305 -1.4375,1.4375 0,0.8069 0.630573,1.4687 1.4375,1.4687 0.806927,0 1.46875,-0.6618 1.46875,-1.4687 0,-0.807 -0.661823,-1.4375 -1.46875,-1.4375 z m -3.96875,6.8125 c -1.389708,0 -2.53125,1.1103 -2.53125,2.5 0,1.3897 1.141542,2.5312 2.53125,2.5312 1.389708,0 2.53125,-1.1415 2.53125,-2.5312 0,-1.3897 -1.141542,-2.5 -2.53125,-2.5 z m 15.5,0.4687 c -0.806927,0 -1.46875,0.6618 -1.46875,1.4688 0,0.8069 0.661823,1.4687 1.46875,1.4687 0.806927,0 1.46875,-0.6618 1.46875,-1.4687 0,-0.807 -0.661823,-1.4688 -1.46875,-1.4688 z m -21.09375,1.7813 c -1.075903,0 -1.96875,0.8928 -1.96875,1.9687 0,1.0759 0.892847,1.9375 1.96875,1.9375 1.075903,0 1.9375,-0.8616 1.9375,-1.9375 0,-1.0759 -0.861597,-1.9687 -1.9375,-1.9687 z"
             id="path4061"
             inkscape:connector-curvature="0" />
          <ellipse
             id="path4086"
             style="color:#000000;display:inline;overflow:visible;visibility:visible;opacity:0.5;fill:url(#linearGradient5674);fill-opacity:1;fill-rule:nonzero;stroke:none;stroke-width:0.69935721;marker:none;enable-background:accumulate"
             cx="47.999992"
             cy="985.66461"
             rx="18.799089"
             ry="11.840738" />
          <circle
             r="2"
             cy="972.51862"
             cx="17.591713"
             style="color:#000000;display:inline;overflow:visible;visibility:visible;fill:url(#radialGradient5676);fill-opacity:1;fill-rule:nonzero;stroke:none;stroke-width:1.5;marker:none;enable-background:accumulate"
             id="path4261" />
          <circle
             r="3"
             cy="982.18848"
             cx="81.022675"
             style="color:#000000;display:inline;overflow:visible;visibility:visible;fill:url(#radialGradient5678);fill-opacity:1;fill-rule:nonzero;stroke:none;stroke-width:2.25;marker:none;enable-background:accumulate"
             id="path4281" />
          <circle
             r="2"
             cy="983.39075"
             cx="12.735264"
             id="path4285"
             style="color:#000000;display:inline;overflow:visible;visibility:visible;fill:url(#radialGradient5680);fill-opacity:1;fill-rule:nonzero;stroke:none;stroke-width:1.5;marker:none;enable-background:accumulate" />
          <circle
             r="2"
             cy="965.63422"
             cx="57.486099"
             style="color:#000000;display:inline;overflow:visible;visibility:visible;fill:url(#radialGradient5682);fill-opacity:1;fill-rule:nonzero;stroke:none;stroke-width:1.5;marker:none;enable-background:accumulate"
             id="path4314" />
        </g>
        <path
           inkscape:connector-curvature="0"
           id="path4989-0"
           d="m 9.9740341,5.1444869 c -3.116621,0 -5.667965,2.53951 -5.667965,5.6460041 v 69.277996 c 0,3.106495 2.551344,5.646004 5.667965,5.646004 H 86.765819 c 3.116621,0 5.667968,-2.539509 5.667968,-5.646004 V 10.790491 c 0,-3.1064931 -2.551347,-5.6460041 -5.667968,-5.6460041 z m 0,2.319439 H 86.765819 c 1.888099,0 3.352022,1.480095 3.352022,3.3265651 v 69.277996 c 0,1.846474 -1.463923,3.326564 -3.352022,3.326564 H 9.9740341 c -1.888099,0 -3.352022,-1.48009 -3.352022,-3.326564 V 10.790491 c 0,-1.8464701 1.463923,-3.3265651 3.352022,-3.3265651 z"
           style="color:#000000;font-style:normal;font-variant:normal;font-weight:normal;font-stretch:normal;font-size:medium;line-height:normal;font-family:Sans;-inkscape-font-specification:Sans;text-indent:0;text-align:start;text-decoration:none;text-decoration-line:none;letter-spacing:normal;word-spacing:normal;text-transform:none;writing-mode:lr-tb;direction:ltr;baseline-shift:baseline;text-anchor:start;display:inline;overflow:visible;visibility:visible;fill:#241f1f;fill-opacity:0.63265303;stroke:none;stroke-width:2.3755002;marker:none;enable-background:accumulate" />
        <path
           inkscape:connector-curvature="0"
           style="display:inline;opacity:0.65818182;fill:url(#linearGradient4129);fill-opacity:1;fill-rule:nonzero;stroke:none"
           d="m 1.6489535,82.258776 v 6 c 0,3.680142 2.9761066,6.65625 6.6562496,6.65625 H 87.992703 c 3.680143,0 6.656254,-2.976108 6.656254,-6.65625 v -6 c 0,3.680142 -2.976111,6.65625 -6.656254,6.65625 H 8.3052031 c -3.680143,0 -6.6562496,-2.976108 -6.6562496,-6.65625 z"
           id="path4118-2" />
        <rect
           style="opacity:0.55;fill:url(#radialGradient7462);fill-opacity:1;stroke:none"
           id="rect4131-3"
           width="84.250008"
           height="4.25"
           x="5.5239539"
           y="80.665031"
           rx="0"
           ry="4.25" />
        <rect
           ry="4.25"
           rx="0"
           y="-90.233963"
           x="5.9750223"
           height="4.25"
           width="76.75"
           id="rect4141-7"
           style="opacity:0.669;fill:url(#radialGradient7464);fill-opacity:1;stroke:none"
           transform="rotate(90)" />
        <rect
           transform="matrix(1.0692451,0,0,1.0476829,4.4441802,38.894013)"
           style="opacity:0.689;fill:url(#linearGradient4767);fill-opacity:1;stroke:none"
           id="rect4146-5"
           width="75.965775"
           height="69.024437"
           x="2"
           y="-30"
           rx="3.9569874"
           ry="3.9569881"
           clip-path="url(#clipPath4156-4-1-2)" />
      </g>
    </g>
  </g>
</svg>
