<?xml version="1.0" encoding="UTF-8" standalone="no"?>
<!-- Created with Inkscape (http://www.inkscape.org/) -->

<svg
   xmlns:dc="http://purl.org/dc/elements/1.1/"
   xmlns:cc="http://creativecommons.org/ns#"
   xmlns:rdf="http://www.w3.org/1999/02/22-rdf-syntax-ns#"
   xmlns:svg="http://www.w3.org/2000/svg"
   xmlns="http://www.w3.org/2000/svg"
   xmlns:xlink="http://www.w3.org/1999/xlink"
   xmlns:sodipodi="http://sodipodi.sourceforge.net/DTD/sodipodi-0.dtd"
   xmlns:inkscape="http://www.inkscape.org/namespaces/inkscape"
   width="96px"
   height="96px"
   id="svg13011"
   version="1.1"
   inkscape:version="0.48.5 r10040"
   sodipodi:docname="Nuovo documento 2">
  <defs
     id="defs13013">
    <linearGradient
       y2="47.000011"
       x2="90"
       y1="47.000011"
       x1="6"
       gradientTransform="matrix(1.1071428,0,0,1.1071426,2.9011003,-18.701274)"
       gradientUnits="userSpaceOnUse"
       id="linearGradient3825"
       xlink:href="#linearGradient6139-0"
       inkscape:collect="always" />
    <linearGradient
       id="linearGradient6139-0">
      <stop
         id="stop6141-2"
         offset="0"
         style="stop-color:#c1adad;stop-opacity:1;" />
      <stop
         style="stop-color:#ffffff;stop-opacity:1;"
         offset="0.25"
         id="stop6151-0" />
      <stop
         style="stop-color:#aa9090;stop-opacity:1;"
         offset="0.5"
         id="stop6147-1" />
      <stop
         id="stop6149-4"
         offset="0.75"
         style="stop-color:#fbf9f9;stop-opacity:1;" />
      <stop
         id="stop6143-4"
         offset="1"
         style="stop-color:#c1adad;stop-opacity:1;" />
    </linearGradient>
    <radialGradient
       r="42"
       fy="-27"
       fx="48"
       cy="-27"
       cx="48"
       gradientTransform="matrix(-1.0721726,0,0,-0.87502024,199.46429,-19.125546)"
       gradientUnits="userSpaceOnUse"
       id="radialGradient3827"
       xlink:href="#linearGradient4091-0-3-0-7"
       inkscape:collect="always" />
    <linearGradient
       id="linearGradient4091-0-3-0-7">
      <stop
         style="stop-color:#ffffff;stop-opacity:1;"
         offset="0"
         id="stop4093-3-6-4-2" />
      <stop
         id="stop4099-6-1-8-3"
         offset="0.80000001"
         style="stop-color:#ffffff;stop-opacity:1;" />
      <stop
         style="stop-color:#ffffff;stop-opacity:0;"
         offset="1"
         id="stop4095-1-0-7-9" />
    </linearGradient>
    <linearGradient
       y2="88.171875"
       x2="94.5"
       y1="88.171875"
       x1="1.5"
       gradientTransform="translate(8.0439564,-14.665561)"
       gradientUnits="userSpaceOnUse"
       id="linearGradient3829"
       xlink:href="#linearGradient3832-0-6-1-1"
       inkscape:collect="always" />
    <linearGradient
       id="linearGradient3832-0-6-1-1">
      <stop
         style="stop-color:#000000;stop-opacity:1;"
         offset="0"
         id="stop3834-6-3-7-1" />
      <stop
         id="stop3872-2-4"
         offset="0.1"
         style="stop-color:#000000;stop-opacity:0.58823532;" />
      <stop
         style="stop-color:#000000;stop-opacity:0.58823532;"
         offset="0.89999998"
         id="stop3844-6-2-7-6" />
      <stop
         style="stop-color:#000000;stop-opacity:1;"
         offset="1"
         id="stop3836-5-0-2-9" />
    </linearGradient>
    <linearGradient
       y2="7.0165396"
       x2="45.447727"
       y1="92.539597"
       x1="45.447727"
       gradientTransform="scale(1.0058652,0.994169)"
       gradientUnits="userSpaceOnUse"
       id="linearGradient3835"
       xlink:href="#ButtonShadow-1"
       inkscape:collect="always" />
    <linearGradient
       x1="45.447727"
       y1="92.539597"
       x2="45.447727"
       y2="7.0165396"
       id="ButtonShadow-1"
       gradientUnits="userSpaceOnUse"
       gradientTransform="scale(1.0058652,0.994169)">
      <stop
         id="stop3750-9"
         style="stop-color:#000000;stop-opacity:1"
         offset="0" />
      <stop
         id="stop3752-9"
         style="stop-color:#000000;stop-opacity:0.58823532"
         offset="1" />
    </linearGradient>
    <filter
       color-interpolation-filters="sRGB"
       id="filter3174-3">
      <feGaussianBlur
         id="feGaussianBlur3176-6"
         stdDeviation="1.71" />
    </filter>
    <linearGradient
       inkscape:collect="always"
       xlink:href="#linearGradient3806-0"
       id="linearGradient13189"
       x1="38.969643"
       y1="52.983719"
       x2="43.659611"
       y2="-28.269278"
       gradientUnits="userSpaceOnUse" />
    <linearGradient
       id="linearGradient3806-0">
      <stop
         id="stop3808-48"
         offset="0"
         style="stop-color:#9e9cb2;stop-opacity:1;" />
      <stop
         id="stop3810-7"
         offset="1"
         style="stop-color:#484373;stop-opacity:1;" />
    </linearGradient>
    <linearGradient
       gradientUnits="userSpaceOnUse"
       y2="7.0165396"
       x2="45.447727"
       y1="92.539597"
       x1="45.447727"
       gradientTransform="scale(1.0058652,0.994169)"
       id="ButtonShadow-25">
      <stop
         id="stop3750-96"
         offset="0"
         style="stop-color:#000000;stop-opacity:1;" />
      <stop
         id="stop3752-7"
         offset="1"
         style="stop-color:#000000;stop-opacity:0.58823532;" />
    </linearGradient>
    <filter
       color-interpolation-filters="sRGB"
       id="filter3174-58"
       inkscape:collect="always">
      <feGaussianBlur
         id="feGaussianBlur3176-3"
         stdDeviation="1.71"
         inkscape:collect="always" />
    </filter>
    <radialGradient
       r="32"
       fy="32"
       fx="64"
       cy="32"
       cx="64"
       gradientUnits="userSpaceOnUse"
       id="radialGradient3891-1"
       xlink:href="#linearGradient3752-3-5-4"
       inkscape:collect="always" />
    <linearGradient
       id="linearGradient3752-3-5-4">
      <stop
         style="stop-color:#ffffff;stop-opacity:1;"
         offset="0"
         id="stop3754-6-9-8" />
      <stop
         id="stop3756-2-8-2"
         offset="0.77642262"
         style="stop-color:#ffffff;stop-opacity:1;" />
      <stop
         style="stop-color:#bebdc7;stop-opacity:0;"
         offset="1"
         id="stop3758-7-4-3" />
    </linearGradient>
    <radialGradient
       gradientTransform="matrix(1.2641518,-5.24248e-8,5.304999e-8,1.2792274,-13.775027,-12.244636)"
       r="32"
       fy="43.851852"
       fx="52.148148"
       cy="43.851852"
       cx="52.148148"
       gradientUnits="userSpaceOnUse"
       id="radialGradient3897-9"
       xlink:href="#linearGradient3899-2"
       inkscape:collect="always" />
    <linearGradient
       id="linearGradient3899-2">
      <stop
         id="stop3901-9"
         offset="0"
         style="stop-color:#f7edc4;stop-opacity:1;" />
      <stop
         style="stop-color:#c7b586;stop-opacity:1;"
         offset="0.80000001"
         id="stop3903-2" />
      <stop
         id="stop3905-6"
         offset="1"
         style="stop-color:#9d8c64;stop-opacity:1;" />
    </linearGradient>
    <linearGradient
       gradientTransform="matrix(0,1,-1,0,91.000004,-4.999996)"
       gradientUnits="userSpaceOnUse"
       y2="43.000004"
       x2="75"
       y1="43.000004"
       x1="21"
       id="linearGradient3818-2"
       xlink:href="#linearGradient3812-9"
       inkscape:collect="always" />
    <linearGradient
       id="linearGradient3812-9">
      <stop
         id="stop3814-1"
         offset="0"
         style="stop-color:#a49265;stop-opacity:1;" />
      <stop
         id="stop3816-6"
         offset="1"
         style="stop-color:#ece8df;stop-opacity:1;" />
    </linearGradient>
    <linearGradient
       gradientUnits="userSpaceOnUse"
       y2="87.367798"
       x2="28.571617"
       y1="22.91832"
       x1="59.578266"
       id="linearGradient4031-7"
       xlink:href="#linearGradient4025-0"
       inkscape:collect="always" />
    <linearGradient
       id="linearGradient4025-0"
       inkscape:collect="always">
      <stop
         id="stop4027-0"
         offset="0"
         style="stop-color:#a18a56;stop-opacity:1;" />
      <stop
         id="stop4029-2"
         offset="1"
         style="stop-color:#a18a56;stop-opacity:0;" />
    </linearGradient>
    <filter
       id="filter4045-1"
       inkscape:collect="always"
       color-interpolation-filters="sRGB">
      <feGaussianBlur
         id="feGaussianBlur4047-9"
         stdDeviation="0.46710064"
         inkscape:collect="always" />
    </filter>
    <filter
       id="filter4057-4"
       inkscape:collect="always"
       color-interpolation-filters="sRGB">
      <feGaussianBlur
         id="feGaussianBlur4059-7"
         stdDeviation="0.4121875"
         inkscape:collect="always" />
    </filter>
    <filter
       id="filter4082-3"
       inkscape:collect="always"
       color-interpolation-filters="sRGB">
      <feGaussianBlur
         id="feGaussianBlur4084-0"
         stdDeviation="0.3846875"
         inkscape:collect="always" />
    </filter>
    <linearGradient
       inkscape:collect="always"
       xlink:href="#linearGradient4090-8-5"
       id="linearGradient3191-4"
       gradientUnits="userSpaceOnUse"
       x1="64.995598"
       y1="-0.90906203"
       x2="64.995598"
       y2="55.535763" />
    <linearGradient
       id="linearGradient4090-8-5"
       inkscape:collect="always">
      <stop
         id="stop4092-1-3-4"
         offset="0"
         style="stop-color:#ffffff;stop-opacity:1;" />
      <stop
         id="stop4094-0-9"
         offset="1"
         style="stop-color:#ffffff;stop-opacity:0;" />
    </linearGradient>
    <radialGradient
       inkscape:collect="always"
       xlink:href="#linearGradient4263-5"
       id="radialGradient3309-2"
       gradientUnits="userSpaceOnUse"
       cx="18"
       cy="18"
       fx="18"
       fy="18"
       r="2" />
    <linearGradient
       id="linearGradient4263-5">
      <stop
         id="stop4265-2"
         offset="0"
         style="stop-color:#ffffff;stop-opacity:1;" />
      <stop
         style="stop-color:#ffffff;stop-opacity:0.24031007;"
         offset="0.5"
         id="stop4279-5" />
      <stop
         id="stop4267-9"
         offset="1"
         style="stop-color:#ffffff;stop-opacity:0;" />
    </linearGradient>
    <radialGradient
       r="2"
       fy="18"
       fx="18"
       cy="18"
       cx="18"
       gradientUnits="userSpaceOnUse"
       id="radialGradient4283-0"
       xlink:href="#linearGradient4263-5"
       inkscape:collect="always" />
    <linearGradient
       id="linearGradient12892">
      <stop
         id="stop12894"
         offset="0"
         style="stop-color:#ffffff;stop-opacity:1;" />
      <stop
         style="stop-color:#ffffff;stop-opacity:0.24031007;"
         offset="0.5"
         id="stop12896" />
      <stop
         id="stop12898"
         offset="1"
         style="stop-color:#ffffff;stop-opacity:0;" />
    </linearGradient>
    <radialGradient
       r="2"
       fy="18"
       fx="18"
       cy="18"
       cx="18"
       gradientUnits="userSpaceOnUse"
       id="radialGradient4287-9"
       xlink:href="#linearGradient4263-5"
       inkscape:collect="always" />
    <linearGradient
       id="linearGradient12901">
      <stop
         id="stop12903"
         offset="0"
         style="stop-color:#ffffff;stop-opacity:1;" />
      <stop
         style="stop-color:#ffffff;stop-opacity:0.24031007;"
         offset="0.5"
         id="stop12905" />
      <stop
         id="stop12907"
         offset="1"
         style="stop-color:#ffffff;stop-opacity:0;" />
    </linearGradient>
    <radialGradient
       r="2"
       fy="18"
       fx="18"
       cy="18"
       cx="18"
       gradientUnits="userSpaceOnUse"
       id="radialGradient4316-4"
       xlink:href="#linearGradient4263-5"
       inkscape:collect="always" />
    <linearGradient
       id="linearGradient12910">
      <stop
         id="stop12912"
         offset="0"
         style="stop-color:#ffffff;stop-opacity:1;" />
      <stop
         style="stop-color:#ffffff;stop-opacity:0.24031007;"
         offset="0.5"
         id="stop12914" />
      <stop
         id="stop12916"
         offset="1"
         style="stop-color:#ffffff;stop-opacity:0;" />
    </linearGradient>
    <clipPath
       id="clipPath3974-2-3"
       clipPathUnits="userSpaceOnUse">
      <rect
         ry="6"
         rx="6"
         y="6"
         x="6"
         height="84"
         width="84"
         id="rect3976-55-7"
         style="fill:#ff00ff;fill-opacity:1;fill-rule:nonzero;stroke:none" />
    </clipPath>
    <linearGradient
       y2="29.471077"
       x2="44.586384"
       y1="13.055696"
       x1="39.819206"
       gradientTransform="matrix(-0.96032399,0.27888679,0.27888679,0.96032399,111.43916,15.295347)"
       gradientUnits="userSpaceOnUse"
       id="linearGradient3982-8-7"
       xlink:href="#linearGradient3814-9-9-5"
       inkscape:collect="always" />
    <linearGradient
       id="linearGradient3814-9-9-5">
      <stop
         id="stop3816-9-0-2"
         offset="0"
         style="stop-color:#e2e1ed;stop-opacity:1;" />
      <stop
         id="stop3818-8-4-2"
         offset="1"
         style="stop-color:#e2e1ed;stop-opacity:0;" />
    </linearGradient>
    <linearGradient
       y2="89.995026"
       x2="35.83757"
       y1="56.923836"
       x1="35.83757"
       gradientTransform="translate(-10,-3)"
       gradientUnits="userSpaceOnUse"
       id="linearGradient3980-2-2"
       xlink:href="#linearGradient3814-9-9-5"
       inkscape:collect="always" />
    <linearGradient
       id="linearGradient12925">
      <stop
         id="stop12927"
         offset="0"
         style="stop-color:#e2e1ed;stop-opacity:1;" />
      <stop
         id="stop12929"
         offset="1"
         style="stop-color:#e2e1ed;stop-opacity:0;" />
    </linearGradient>
    <linearGradient
       y2="48.086025"
       x2="45.966625"
       y1="28.94561"
       x1="45.966625"
       gradientTransform="translate(44.277498,16.233172)"
       gradientUnits="userSpaceOnUse"
       id="linearGradient3929-2-8"
       xlink:href="#linearGradient3814-9-9-5"
       inkscape:collect="always" />
    <linearGradient
       id="linearGradient12932">
      <stop
         id="stop12934"
         offset="0"
         style="stop-color:#e2e1ed;stop-opacity:1;" />
      <stop
         id="stop12936"
         offset="1"
         style="stop-color:#e2e1ed;stop-opacity:0;" />
    </linearGradient>
    <linearGradient
       y2="56.865051"
       x2="76.75824"
       y1="27.409969"
       x1="76.75824"
       gradientTransform="matrix(-1,0,0,1,80.94186,38.325122)"
       gradientUnits="userSpaceOnUse"
       id="linearGradient3926-3-2"
       xlink:href="#linearGradient3814-9-9-5"
       inkscape:collect="always" />
    <linearGradient
       id="linearGradient12939">
      <stop
         id="stop12941"
         offset="0"
         style="stop-color:#e2e1ed;stop-opacity:1;" />
      <stop
         id="stop12943"
         offset="1"
         style="stop-color:#e2e1ed;stop-opacity:0;" />
    </linearGradient>
    <linearGradient
       inkscape:collect="always"
       xlink:href="#linearGradient3862-9-0-1"
       id="linearGradient4117-7"
       gradientUnits="userSpaceOnUse"
       gradientTransform="matrix(-1,0,0,1,85.59375,12.000001)"
       x1="75.917961"
       y1="63.13913"
       x2="75.917961"
       y2="76.550301" />
    <linearGradient
       id="linearGradient3862-9-0-1"
       inkscape:collect="always">
      <stop
         id="stop3864-9-68-2"
         offset="0"
         style="stop-color:#ffffff;stop-opacity:1;" />
      <stop
         id="stop3866-2-1-2"
         offset="1"
         style="stop-color:#ffffff;stop-opacity:0;" />
    </linearGradient>
    <linearGradient
       inkscape:collect="always"
       xlink:href="#linearGradient4213-7-8"
       id="linearGradient4967"
       gradientUnits="userSpaceOnUse"
       x1="2.7713892"
       y1="-28.64156"
       x2="50.527882"
       y2="14.514202" />
    <linearGradient
       inkscape:collect="always"
       id="linearGradient4213-7-8">
      <stop
         style="stop-color:#ffffff;stop-opacity:1;"
         offset="0"
         id="stop4215-6-5" />
      <stop
         style="stop-color:#ffffff;stop-opacity:0;"
         offset="1"
         id="stop4217-5-2" />
    </linearGradient>
    <clipPath
       clipPathUnits="userSpaceOnUse"
       id="clipPath4156-4-6">
      <path
         style="opacity:0.6;fill:#ffffff;fill-opacity:1;stroke:none"
         d="m 27.046336,-55.695463 -14.21366,13.321486 0.06127,0 15.653407,21.770763 10.231384,-10.546177 C 38.561832,-32.30156 27.468089,-54.819245 27.046336,-55.695463 z M 9.6468554,-39.382809 -5.2407289,-25.32124 15.987863,-7.8059573 26.372412,-18.382966 9.6468554,-39.382809 z m 31.4906096,12.951445 -9.741259,9.713584 8.944804,12.4580526 7.780753,-7.5550056 -6.984298,-14.616631 z m -49.8397109,4.378822 -13.7541661,12.9822847 26.2830181,13.84571 0.06127,-0.0617 -0.122531,-0.0617 L 13.598503,-5.4007374 -8.7022409,-22.052595 z m 38.0154159,7.400825 -9.802525,9.7752596 11.579232,9.5594001 7.62759,-7.40083 -8.669108,-11.0087257 -0.735189,-0.925104 z m 20.187073,5.6739697 -7.382526,7.2158 6.187844,8.54179 5.820249,-6.13651996 -4.625567,-9.62107004 z m -32.195166,6.32154 -9.5574606,9.49772 13.6622686,7.1849703 7.933918,-7.6783603 -12.038726,-9.00433 z m 23.311629,2.37443004 -7.10683,6.93826996 8.362778,6.9074403 5.360756,-5.6739699 -0.06127,-0.0925 -0.0919,0.12335 -6.463539,-8.20258036 z m -8.730374,8.54178036 -7.505057,7.3391599 10.353916,5.45811 c 1.397496,-1.32103 5.67514,-6.12292 5.850882,-6.32154 L 31.886332,8.2600031 z"
         id="path4158-0-3"
         inkscape:connector-curvature="0" />
    </clipPath>
    <radialGradient
       r="43.199203"
       fy="44.892841"
       fx="13.948145"
       cy="44.892841"
       cx="13.948145"
       gradientTransform="matrix(0.97513384,0,0,0.04919072,32.734694,78.81442)"
       gradientUnits="userSpaceOnUse"
       id="radialGradient4992"
       xlink:href="#linearGradient4133-5"
       inkscape:collect="always" />
    <linearGradient
       inkscape:collect="always"
       id="linearGradient4133-5">
      <stop
         style="stop-color:#ffffff;stop-opacity:1;"
         offset="0"
         id="stop4135-4" />
      <stop
         style="stop-color:#ffffff;stop-opacity:0;"
         offset="1"
         id="stop4137-5" />
    </linearGradient>
    <radialGradient
       r="43.199203"
       fy="44.892841"
       fx="13.948145"
       cy="44.892841"
       cx="13.948145"
       gradientTransform="matrix(0.88832663,0,0,0.04919072,29.382213,-89.635221)"
       gradientUnits="userSpaceOnUse"
       id="radialGradient3833-1"
       xlink:href="#linearGradient4133-5"
       inkscape:collect="always" />
    <radialGradient
       r="43.199203"
       fy="44.892841"
       fx="13.948145"
       cy="44.892841"
       cx="13.948145"
       gradientTransform="matrix(0.88832663,0,0,0.04919072,29.382213,-89.635221)"
       gradientUnits="userSpaceOnUse"
       id="radialGradient13009"
       xlink:href="#linearGradient4133-5"
       inkscape:collect="always" />
  </defs>
  <sodipodi:namedview
     id="base"
     pagecolor="#ffffff"
     bordercolor="#666666"
     borderopacity="1.0"
     inkscape:pageopacity="0.0"
     inkscape:pageshadow="2"
     inkscape:zoom="3.5"
     inkscape:cx="-11.142857"
     inkscape:cy="24"
     inkscape:current-layer="svg13011"
     showgrid="true"
     inkscape:grid-bbox="true"
     inkscape:document-units="px"
     inkscape:window-width="600"
     inkscape:window-height="490"
     inkscape:window-x="525"
     inkscape:window-y="462"
     inkscape:window-maximized="0" />
  <metadata
     id="metadata13016">
    <rdf:RDF>
      <cc:Work
         rdf:about="">
        <dc:format>image/svg+xml</dc:format>
        <dc:type
           rdf:resource="http://purl.org/dc/dcmitype/StillImage" />
        <dc:title></dc:title>
      </cc:Work>
    </rdf:RDF>
  </metadata>
  <g
     id="livello1"
     inkscape:label="Livello 1"
     inkscape:groupmode="livello" />
  <g
     id="g12771">
    <g
       id="g7390"
       transform="translate(-8.0439594,14.665561)"
       style="display:inline">
      <path
         inkscape:connector-curvature="0"
         id="path3288"
         d="m 97.186813,-14.665561 -82.285719,0 c -3.798848,0 -6.8571352,3.058285 -6.8571352,6.8571399 l 0,82.2857181 c 0,3.798857 3.0582872,6.857142 6.8571352,6.857142 l 82.285719,0 c 3.798857,0 6.857147,-3.058285 6.857147,-6.857142 l 0,-82.2857181 c 0,-3.7988549 -3.05829,-6.8571399 -6.857147,-6.8571399 z"
         style="opacity:0.15;fill:#000000;fill-opacity:1;fill-rule:nonzero;stroke:none;display:inline" />
      <path
         style="opacity:0.15;fill:#000000;fill-opacity:1;fill-rule:nonzero;stroke:none;display:inline"
         d="m 96.543957,-13.915561 -81.000007,0 c -3.739492,0 -6.749993,3.010499 -6.749993,6.7499969 l 0,81.0000031 c 0,3.739501 3.010501,6.75 6.749993,6.75 l 81.000007,0 c 3.739503,0 6.750003,-3.010499 6.750003,-6.75 l 0,-81.0000031 c 0,-3.7394979 -3.0105,-6.7499969 -6.750003,-6.7499969 z"
         id="path4085"
         inkscape:connector-curvature="0" />
      <path
         inkscape:connector-curvature="0"
         id="rect4251-1"
         d="m 95.901096,-13.165561 -79.714282,0 c -3.680143,0 -6.6428566,2.962713 -6.6428566,6.6428549 l 0,79.7142901 c 0,3.680142 2.9627136,6.642856 6.6428566,6.642856 l 79.714282,0 c 3.680143,0 6.642854,-2.962714 6.642854,-6.642856 l 0,-79.7142901 c 0,-3.6801419 -2.962711,-6.6428549 -6.642854,-6.6428549 z"
         style="fill:url(#linearGradient3825);fill-opacity:1;fill-rule:nonzero;stroke:none;display:inline" />
      <g
         transform="matrix(1.1071428,0,0,1.1071426,-107.81316,-18.147702)"
         id="g3272">
        <path
           style="opacity:0.45;fill:url(#radialGradient3827);fill-opacity:1;fill-rule:nonzero;stroke:none;display:inline"
           d="m 112,4.5 c -3.324,0 -6,2.6759996 -6,6 l 0,15 1,0 0,-15 c 0,-2.7872972 2.2127,-5 5,-5 l 72,0 c 2.7873,0 5,2.2127028 5,5 l 0,15 1,0 0,-15 c 0,-3.3240004 -2.676,-6 -6,-6 l -72,0 z"
           id="path4236-5"
           inkscape:connector-curvature="0" />
      </g>
      <path
         id="path4118"
         d="m 9.5439564,67.178189 0,6 c 0,3.680142 2.9761066,6.65625 6.6562496,6.65625 l 79.6875,0 c 3.680143,0 6.656254,-2.976108 6.656254,-6.65625 l 0,-6 c 0,3.680142 -2.976111,6.65625 -6.656254,6.65625 l -79.6875,0 c -3.680143,0 -6.6562496,-2.976108 -6.6562496,-6.65625 z"
         style="opacity:0.89090905;fill:url(#linearGradient3829);fill-opacity:1;fill-rule:nonzero;stroke:none;display:inline"
         inkscape:connector-curvature="0" />
      <g
         id="g4615"
         transform="translate(251.28797,-104.89729)">
        <g
           style="display:none"
           id="layer2-8">
          <rect
             style="opacity:0.9;fill:url(#linearGradient3835);fill-opacity:1;fill-rule:nonzero;stroke:none;filter:url(#filter3174-3)"
             id="rect3745-9"
             y="7"
             x="5"
             ry="6"
             rx="6"
             height="85"
             width="86" />
        </g>
      </g>
    </g>
    <rect
       rx="6.2141218"
       ry="5.4427323"
       y="-26.1"
       x="4"
       height="80"
       width="88"
       id="rect4117"
       style="fill:url(#linearGradient13189);fill-opacity:1;stroke:none"
       transform="translate(0,32)" />
    <path
       style="font-size:medium;font-style:normal;font-variant:normal;font-weight:normal;font-stretch:normal;text-indent:0;text-align:start;text-decoration:none;line-height:normal;letter-spacing:normal;word-spacing:normal;text-transform:none;direction:ltr;block-progression:tb;writing-mode:lr-tb;text-anchor:start;baseline-shift:baseline;color:#000000;fill:#342323;fill-opacity:1;stroke:none;stroke-width:2.3755002;marker:none;visibility:visible;display:inline;overflow:visible;enable-background:accumulate;font-family:Sans;-inkscape-font-specification:Sans"
       d="m 9.6041045,5.7149979 c -3.116621,0 -5.667965,2.5395101 -5.667965,5.6460041 l 0,69.277996 c 0,3.106495 2.551344,5.646004 5.667965,5.646004 l 76.7917855,0 c 3.116621,0 5.66797,-2.539509 5.66797,-5.646004 l 0,-69.277996 c 0,-3.106493 -2.55135,-5.6460041 -5.66797,-5.6460041 l -76.7917855,0 z m 0,2.3194391 76.7917855,0 c 1.888101,0 3.352021,1.480095 3.352021,3.326565 l 0,69.277996 c 0,1.846474 -1.46392,3.326564 -3.352021,3.326564 l -76.7917855,0 c -1.888099,0 -3.352022,-1.48009 -3.352022,-3.326564 l 0,-69.277996 c 0,-1.84647 1.463923,-3.326565 3.352022,-3.326565 z"
       id="path4989"
       inkscape:connector-curvature="0" />
    <g
       transform="matrix(0.98993631,0,0,0.92330519,0.48305712,0.97140639)"
       id="g12952"
       style="display:inline">
      <g
         transform="matrix(1.010166,0,0,1.0830655,99.062176,-238.6465)"
         id="g14356">
        <g
           id="layer2-70"
           inkscape:label="Blur Shadow"
           style="display:none">
          <rect
             style="opacity:0.9;fill:url(#ButtonShadow-25);fill-opacity:1;fill-rule:nonzero;stroke:none;filter:url(#filter3174-58)"
             id="rect3745-61"
             width="86"
             height="85"
             x="5"
             y="7"
             rx="6"
             ry="6" />
        </g>
        <g
           id="g14401"
           style="display:inline"
           transform="translate(-29.123273,199.07255)">
          <g
             inkscape:label="Moon"
             id="layer6-2"
             transform="translate(-69.425029,19.027601)">
            <g
               id="g4105">
              <path
                 sodipodi:type="arc"
                 style="opacity:0.25;color:#000000;fill:url(#radialGradient3891-1);fill-opacity:1;fill-rule:nonzero;stroke:none;stroke-width:1.5;marker:none;visibility:visible;display:inline;overflow:visible;enable-background:accumulate"
                 id="path3651"
                 sodipodi:cx="64"
                 sodipodi:cy="32"
                 sodipodi:rx="32"
                 sodipodi:ry="32"
                 d="M 96,32 C 96,49.673112 81.673112,64 64,64 46.326888,64 32,49.673112 32,32 32,14.326888 46.326888,0 64,0 81.673112,0 96,14.326888 96,32 z"
                 transform="matrix(1.03125,0,0,1.03125,-17.999996,10.000006)" />
              <path
                 transform="matrix(0.84375003,0,0,0.84375003,-6.000004,16.000003)"
                 d="M 96,32 C 96,49.673112 81.673112,64 64,64 46.326888,64 32,49.673112 32,32 32,14.326888 46.326888,0 64,0 81.673112,0 96,14.326888 96,32 z"
                 sodipodi:ry="32"
                 sodipodi:rx="32"
                 sodipodi:cy="32"
                 sodipodi:cx="64"
                 id="path3695"
                 style="color:#000000;fill:url(#radialGradient3897-9);fill-opacity:1;fill-rule:nonzero;stroke:none;stroke-width:1.5;marker:none;visibility:visible;display:inline;overflow:visible;enable-background:accumulate"
                 sodipodi:type="arc" />
              <path
                 style="opacity:0.6;color:#000000;fill:url(#linearGradient3818-2);fill-opacity:1;fill-rule:nonzero;stroke:none;stroke-width:1.5;marker:none;visibility:visible;display:inline;overflow:visible;enable-background:accumulate"
                 d="m 75,43.000004 c 0,-14.911689 -12.088311,-27 -27,-27 -14.911689,0 -27,12.088311 -27,27 0,14.911689 12.088311,27 27,27 14.911689,0 27,-12.088311 27,-27 z m -1,0 c 0,14.359403 -11.640597,26 -26,26 -14.359403,0 -26,-11.640597 -26,-26 0,-14.359403 11.640597,-26 26,-26 14.359403,0 26,11.640597 26,26 z"
                 id="path3695-8"
                 inkscape:connector-curvature="0" />
              <path
                 style="opacity:0.4;fill:url(#linearGradient4031-7);fill-opacity:1;stroke:none;filter:url(#filter4045-1)"
                 d="m 41.125,16.875 c -2.630101,0.690191 -5.091436,1.788247 -7.34375,3.1875 -0.685588,0.944015 -1.324069,1.909274 -2,2.8125 -0.448353,0.974739 -1.840597,0.834982 -3,1.1875 -0.06669,0.06767 -0.152773,0.119135 -0.21875,0.1875 -1.587159,2.086129 -3.499806,4.030995 -4.5,6.46875 -1.285455,2.533351 4.17355,2.003438 1.4375,4.5 -1.040132,1.50918 -0.613715,4.813765 1.25,5.875 1.601016,1.56141 -3.18156,3.170417 -1,5.15625 2.037804,0.735887 4.28976,-0.988193 6.21875,-0.25 1.305401,1.421772 -0.798205,3.011322 0.59375,4.34375 -1.770141,-0.07326 -3.575367,0.430797 -2.96875,2.65625 -0.291967,2.750305 4.47922,2.620909 3.875,-0.3125 0.109805,-1.372076 1.504925,-2.798878 2.34375,-0.84375 -0.121232,2.071337 3.797242,0.923911 2.03125,3.25 -3.679952,0.0401 -1.412164,5.562321 0.84375,3.625 0.197855,-2.179228 2.263653,-1.916895 3.53125,-1.0625 3.159889,-0.747172 -0.339503,-4.40457 0.78125,-6.0625 1.160505,0.02707 1.328428,2.549015 2.375,0.3125 1.465887,-2.6601 -0.733259,-4.89604 -3.15625,-5.625 -2.39905,-0.835181 -0.764095,-3.148469 -1,-4.5625 -2.174892,-1.68835 -3.151208,0.849775 -2.96875,2.59375 -2.624287,0.401248 -1.980251,-3.000432 -3.9375,-4.09375 -1.35872,-0.98452 -4.425029,-0.966831 -2.5625,-3.5625 1.882879,-0.8553 4.158864,-1.600028 3.46875,-4.25 0.902932,-2.521754 -4.201748,-1.529453 -2.0625,-3.8125 2.726854,-0.04313 4.493802,-2.20369 3.78125,-4.90625 0.618601,-1.876155 3.381203,-1.415663 4.28125,-2.9375 0.24257,0.339366 0.515761,0.675485 0.875,0.90625 0.517494,0.488587 1.331487,0.07499 1.84375,-0.25 0.03671,-0.5471 0.08066,-1.44506 0.9375,-1.25 0.894583,0.08748 1.805269,0.04968 2.65625,-0.1875 0.132435,-0.626976 -0.828572,-1.41793 -1.59375,-1.34375 -0.690888,0.2469 -1.575433,-0.278904 -2.125,0.25 -0.683608,5.91e-4 -1.378892,1.85e-4 -2.0625,0 0.03031,-0.719645 -0.215572,-1.434032 -0.625,-2 z m 12.15625,2.875 c -0.49783,0.141269 -0.77761,0.558057 -0.6875,1.09375 0.281817,0.502926 0.655379,0.804761 1,1.46875 0.725532,0.77285 1.171906,1.606179 1.5625,2.5625 0.679147,0.636154 0.924962,2.058217 2.125,1.78125 0.892259,-0.137057 1.751122,0.04415 2.625,0.1875 0.817318,-0.115946 1.519086,1.011445 2.34375,0.5625 1.218771,0.20939 1.179599,-1.245059 0.53125,-1.875 -0.727645,-0.829026 -2.018925,-0.218679 -3,-0.40625 -0.674295,0.40594 -2.768203,0.259163 -1.96875,-0.8125 0.06822,-1.344825 -0.958201,-2.078481 -2.21875,-2.21875 C 54.8782,21.754621 55.38299,21.472207 55.8125,21.25 55.966804,19.946504 54.177616,20.00739 53.28125,19.75 z M 50.375,22.5625 c -1.769141,0.208149 -1.56966,3.320817 -2.53125,4.46875 -1.781415,0.710714 -2.789571,-1.270952 -2.53125,-2.625 -0.953571,-0.686659 -1.393914,-0.983804 -1.625,0.28125 -1.481128,0.995809 -2.779537,-1.901827 -4.40625,-1.28125 1.650433,-0.293359 -2.379296,1.441133 -0.96875,2.65625 0.882566,1.33371 0.547806,2.809625 -1.21875,2.78125 -1.7682,0.779809 -0.9348,2.371552 0.625,2.375 1.927772,2.271602 -2.146198,3.93859 -0.96875,6.40625 0.829099,2.813717 4.293621,-0.08276 2.75,-2.125 -0.63476,-3.10378 3.516721,-2.051905 3.1875,0.46875 1.097519,0.714628 4.24373,0.757575 2.8125,3.125 -1.989848,0.413595 -1.634938,3.006853 0,3.65625 -1.273387,0.81022 -1.070396,4.5212 0.6875,2.59375 2.55027,-2.293965 2.238448,3.344948 5.03125,1.8125 1.476046,-2.155094 -1.922476,-3.293673 -2.9375,-4.71875 -1.695694,-2.320236 3.513393,-1.258113 1.46875,-3.21875 -2.216777,-1.074422 -0.915227,-3.662476 1.28125,-2.625 2.597876,0.488165 -1.249792,-3.775239 1.46875,-2.65625 0.214769,1.835369 3.629602,1.425826 1.59375,-0.375 -0.552584,-2.038676 2.837465,-3.72511 0.75,-5.875 C 52.34479,26.944576 52.890566,24.054146 51.25,22.65625 50.907174,22.552954 50.627734,22.532764 50.375,22.5625 z m 14.5,9.1875 c -0.159178,0.0062 -0.352477,0.04505 -0.53125,0.09375 -1.136166,1.200973 -2.450606,1.577632 -4.0625,1.125 -0.453339,-0.253393 -1.492458,-0.720511 -1.90625,-0.5625 -1.601394,-0.157183 -1.201009,1.584828 -1.375,2.40625 -1.083557,0.169035 -1.858615,0.989385 -0.90625,1.96875 0.594657,1.888 -1.750095,0.547452 -2.5625,0.75 -1.542901,0.590516 0.945234,1.323628 -0.34375,2.1875 -1.148895,0.115664 -3.084109,1.538809 -1.625,2.46875 1.059642,0.318947 3.365937,-0.856163 3,1.28125 -0.631074,1.457681 2.555896,3.103532 1.90625,0.90625 -0.553648,-1.030964 -1.964814,-3.649478 0.34375,-3.125 0.43383,0.710752 0.811435,1.161934 1.875,0.78125 0.294337,-1.511991 2.424562,-1.123197 3.4375,-0.40625 1.814834,0.381382 0.407292,-2.753929 2.3125,-2.9375 1.284082,-1.052793 0.568742,-3.004553 -0.75,-3.625 0.192352,-1.517215 2.591074,-1.418626 3.6875,-1.6875 -0.73147,-0.757193 -1.385752,-1.668208 -2.5,-1.625 z m 9.78125,7 c -0.25994,0.02868 -0.53625,0.300121 -0.6875,0.5 -0.290975,0.598198 -1.000971,0.52622 -1.21875,0.9375 -0.141526,0.378034 -0.495053,0.103173 -0.6875,0.46875 -0.190992,-0.139558 -1.307323,-0.02574 -0.8125,0.25 -0.686197,0.343353 -0.160287,1.299026 -0.3125,1.90625 -0.173032,0.703538 0.449682,1.058172 0.65625,1.625 0.164894,0.176371 0.424371,-0.04738 0.53125,0.3125 0.0051,0.324459 0.591153,0.02429 0.625,0.375 -0.435588,0.208293 0.822731,0.487097 0.875,0 0.285348,-0.363186 0.636657,-1.014653 0.96875,-1.40625 C 74.657,43.572231 74.822821,43.516955 75,43.46875 75.0027,43.310623 75,43.158778 75,43 75,41.557164 74.874205,40.131577 74.65625,38.75 z m -8.1875,0.875 c -0.379961,0.04703 -0.733594,0.293261 -0.875,0.75 -0.497161,0.769009 -0.637857,2.066548 -1.75,2.09375 -0.565353,0.263697 -1.069569,0.833672 -1.75,0.75 -0.853113,-0.527825 -2.050569,-0.578786 -2.90625,-0.03125 -0.979637,0.626591 0.920951,1.64524 -0.28125,2 -1.181569,0.04876 -1.29007,1.363851 -0.53125,2.03125 0.782696,0.698177 2.146893,0.712795 2.5625,1.8125 0.276152,0.729315 0.987013,1.463438 0.65625,2.3125 -0.472508,0.902539 -1.536122,0.133068 -2.25,0.4375 -1.029882,0.430939 -0.523316,1.833188 0.53125,1.5 1.213637,0.138306 1.873078,1.52494 1.53125,2.625 -0.05927,0.961604 -1.450639,1.480801 -0.96875,2.5 0.355822,0.698291 1.623059,1.131583 2.03125,0.28125 0.0049,-0.93472 0.773269,-1.64856 0.875,-2.59375 0.161083,-0.882589 0.162057,-1.909684 -0.3125,-2.6875 -0.954862,-0.70967 -0.233236,-1.917683 0.46875,-2.5 0.579353,-0.410831 1.08788,-1.286263 1.625,-1.5 0.57674,0.354217 1.476139,1.663795 1.8125,0.34375 0.423086,-1.033062 0.172364,-2.301686 0.9375,-3.1875 0.510831,-0.513588 2.083862,-0.107235 1.65625,-1.25 C 69.005246,44.579198 67.688633,45.172395 67.6875,44.03125 67.443477,42.743005 68.043921,41.371278 67.5,40.125 c -0.247692,-0.407483 -0.651289,-0.547031 -1.03125,-0.5 z m 8.21875,7.4375 c -0.09061,0.0746 -0.09338,0.09269 -0.3125,0.25 L 74.5625,47.25 c -0.07924,0.07122 -0.07566,0.05184 -0.1875,0.15625 -1.076962,0.994669 -1.656361,2.529228 -2.84375,3.1875 -1.889048,0.0592 -0.738358,-2.535049 -2,-3 -1.647316,0.06331 -0.882766,2.233296 -1.8125,3.03125 -1.08203,0.629022 -2.498698,1.726224 -1.15625,2.9375 0.876005,1.046739 0.495851,2.491589 0.34375,3.71875 -0.571705,0.717294 -0.305346,2.418257 0.84375,1.5625 0.395003,-1.24068 -0.227373,-2.968437 1,-3.90625 0.759731,-1.188761 2.482549,-0.540261 3.59375,-1.15625 0.141322,0.04149 0.251629,0.04979 0.375,0.0625 0.922843,-2.099956 1.605799,-4.317103 1.96875,-6.65625 l -0.09375,0.03125 c 0.0398,-0.03553 0.05177,-0.05233 0.09375,-0.09375 0.003,-0.01994 -0.003,-0.04254 0,-0.0625 z"
                 id="path3907"
                 inkscape:connector-curvature="0" />
              <path
                 style="opacity:0.4;color:#000000;fill:#a18a56;fill-opacity:1;fill-rule:nonzero;stroke:none;stroke-width:1.5;marker:none;visibility:visible;display:inline;overflow:visible;filter:url(#filter4057-4);enable-background:accumulate"
                 d="m 62.25,24.09375 c -0.762098,0 -1.375,0.612902 -1.375,1.375 0,0.762098 0.612902,1.375 1.375,1.375 0.762098,0 1.375,-0.612902 1.375,-1.375 0,-0.762098 -0.612902,-1.375 -1.375,-1.375 z m -20.40625,1.625 c -0.628797,0.128671 -1.09375,0.708164 -1.09375,1.375 0,0.762098 0.612902,1.375 1.375,1.375 0.762098,0 1.375,-0.612902 1.375,-1.375 0,-0.762098 -0.612902,-1.375 -1.375,-1.375 -0.09526,0 -0.191422,-0.01838 -0.28125,0 z M 31.90625,25.875 C 31.413128,25.875 31,26.256878 31,26.75 c 0,0.493122 0.413128,0.90625 0.90625,0.90625 0.493122,0 0.875,-0.413128 0.875,-0.90625 0,-0.493122 -0.381878,-0.875 -0.875,-0.875 z m 28,2.59375 c -0.806927,0 -1.46875,0.661823 -1.46875,1.46875 0,0.806927 0.661823,1.4375 1.46875,1.4375 0.806927,0 1.46875,-0.630573 1.46875,-1.4375 0,-0.806927 -0.661823,-1.46875 -1.46875,-1.46875 z m -3.96875,2.75 c -0.403464,0 -0.75,0.346536 -0.75,0.75 0,0.403464 0.346536,0.71875 0.75,0.71875 0.403464,0 0.71875,-0.315286 0.71875,-0.71875 0,-0.403464 -0.315286,-0.75 -0.71875,-0.75 z M 45.875,31.375 c -0.403464,0 -0.75,0.346536 -0.75,0.75 0,0.403464 0.346536,0.71875 0.75,0.71875 0.403464,0 0.71875,-0.315286 0.71875,-0.71875 0,-0.403464 -0.315286,-0.75 -0.71875,-0.75 z m -15.4375,0.5 c -1.031074,0 -1.875,0.843926 -1.875,1.875 0,1.031074 0.843926,1.84375 1.875,1.84375 1.031074,0 1.875,-0.812676 1.875,-1.84375 0,-1.031074 -0.843926,-1.875 -1.875,-1.875 z m 38,4.875 c -0.582781,0 -1.0625,0.479719 -1.0625,1.0625 0,0.582781 0.479719,1.03125 1.0625,1.03125 0.582781,0 1.03125,-0.448469 1.03125,-1.03125 0,-0.582781 -0.448469,-1.0625 -1.03125,-1.0625 z M 37.34375,39.5 c -0.62761,0 -1.15625,0.52864 -1.15625,1.15625 0,0.62761 0.52864,1.125 1.15625,1.125 0.62761,0 1.125,-0.49739 1.125,-1.125 0,-0.62761 -0.49739,-1.15625 -1.125,-1.15625 z m 26.375,0.65625 c -0.851757,0 -1.53125,0.679493 -1.53125,1.53125 0,0.851757 0.679493,1.5625 1.53125,1.5625 0.851757,0 1.53125,-0.710743 1.53125,-1.5625 0,-0.851757 -0.679493,-1.53125 -1.53125,-1.53125 z m -34.6875,3.25 c -0.435212,0 -0.78125,0.199774 -0.78125,0.46875 0,0.268976 0.346038,0.5 0.78125,0.5 0.435212,0 0.78125,-0.231024 0.78125,-0.5 0,-0.268976 -0.346038,-0.46875 -0.78125,-0.46875 z m 9.59375,2.75 c -0.717269,0 -1.28125,0.595231 -1.28125,1.3125 0,0.717269 0.563981,1.28125 1.28125,1.28125 0.717269,0 1.3125,-0.563981 1.3125,-1.28125 0,-0.717269 -0.595231,-1.3125 -1.3125,-1.3125 z M 28.5,47.9375 c -0.493122,0 -0.90625,0.413128 -0.90625,0.90625 0,0.493122 0.413128,0.875 0.90625,0.875 0.493122,0 0.875,-0.381878 0.875,-0.875 0,-0.493122 -0.381878,-0.90625 -0.875,-0.90625 z m 29.375,0 c -0.493122,0 -0.90625,0.413128 -0.90625,0.90625 0,0.493122 0.413128,0.875 0.90625,0.875 0.493122,0 0.90625,-0.381878 0.90625,-0.875 0,-0.493122 -0.413128,-0.90625 -0.90625,-0.90625 z m -4.3125,0.5 c -0.806927,0 -1.4375,0.661823 -1.4375,1.46875 0,0.806927 0.630573,1.4375 1.4375,1.4375 0.806927,0 1.46875,-0.630573 1.46875,-1.4375 0,-0.806927 -0.661823,-1.46875 -1.46875,-1.46875 z m 4.0625,6.15625 c -0.448293,0 -0.8125,0.364207 -0.8125,0.8125 0,0.448293 0.364207,0.8125 0.8125,0.8125 0.448293,0 0.8125,-0.364207 0.8125,-0.8125 0,-0.448293 -0.364207,-0.8125 -0.8125,-0.8125 z M 29.78125,55.25 c -0.851757,0 -1.53125,0.679493 -1.53125,1.53125 0,0.851757 0.679493,1.5625 1.53125,1.5625 0.851757,0 1.5625,-0.710743 1.5625,-1.5625 0,-0.851757 -0.710743,-1.53125 -1.5625,-1.53125 z m 5.375,3.09375 c -0.403464,0 -0.75,0.315286 -0.75,0.71875 0,0.403464 0.346536,0.75 0.75,0.75 0.403464,0 0.71875,-0.346536 0.71875,-0.75 0,-0.403464 -0.315286,-0.71875 -0.71875,-0.71875 z m 17.6875,3.875 c -0.672439,0 -1.21875,0.546311 -1.21875,1.21875 0,0.672439 0.546311,1.21875 1.21875,1.21875 0.672439,0 1.21875,-0.546311 1.21875,-1.21875 0,-0.672439 -0.546311,-1.21875 -1.21875,-1.21875 z"
                 id="path3986-7"
                 inkscape:connector-curvature="0" />
              <path
                 style="opacity:0.5;color:#000000;fill:#ffffff;fill-opacity:1;fill-rule:nonzero;stroke:none;stroke-width:1.5;marker:none;visibility:visible;display:inline;overflow:visible;filter:url(#filter4082-3);enable-background:accumulate"
                 d="m 57.46875,28.46875 c -0.537952,0 -0.96875,0.430798 -0.96875,0.96875 0,0.537952 0.430798,0.96875 0.96875,0.96875 0.537952,0 0.96875,-0.430798 0.96875,-0.96875 0,-0.537952 -0.430798,-0.96875 -0.96875,-0.96875 z M 42.4375,36.25 c -1.210391,0 -2.1875,0.977109 -2.1875,2.1875 0,1.210391 0.977109,2.21875 2.1875,2.21875 1.210391,0 2.21875,-1.008359 2.21875,-2.21875 0,-1.210391 -1.008359,-2.1875 -2.21875,-2.1875 z M 34.5,36.75 c -0.582781,0 -1.0625,0.479719 -1.0625,1.0625 0,0.582781 0.479719,1.03125 1.0625,1.03125 0.582781,0 1.0625,-0.448469 1.0625,-1.03125 0,-0.582781 -0.479719,-1.0625 -1.0625,-1.0625 z m -10.40625,3.09375 c -1.031074,0 -1.84375,0.812676 -1.84375,1.84375 0,1.031074 0.812676,1.875 1.84375,1.875 1.031074,0 1.875,-0.843926 1.875,-1.875 0,-1.031074 -0.843926,-1.84375 -1.875,-1.84375 z M 24.75,45.1875 c -0.672439,0 -1.21875,0.546311 -1.21875,1.21875 0,0.672439 0.546311,1.21875 1.21875,1.21875 0.672439,0 1.21875,-0.546311 1.21875,-1.21875 0,-0.672439 -0.546311,-1.21875 -1.21875,-1.21875 z m 30.4375,0.15625 c -0.537952,0 -0.96875,0.430798 -0.96875,0.96875 0,0.537952 0.430798,1 0.96875,1 0.537952,0 0.96875,-0.462048 0.96875,-1 0,-0.537952 -0.430798,-0.96875 -0.96875,-0.96875 z m -5.84375,7 c -0.806927,0 -1.4375,0.630573 -1.4375,1.4375 0,0.806927 0.630573,1.46875 1.4375,1.46875 0.806927,0 1.46875,-0.661823 1.46875,-1.46875 0,-0.806927 -0.661823,-1.4375 -1.46875,-1.4375 z m -3.96875,6.8125 c -1.389708,0 -2.53125,1.110292 -2.53125,2.5 0,1.389708 1.141542,2.53125 2.53125,2.53125 1.389708,0 2.53125,-1.141542 2.53125,-2.53125 0,-1.389708 -1.141542,-2.5 -2.53125,-2.5 z m 15.5,0.46875 c -0.806927,0 -1.46875,0.661823 -1.46875,1.46875 0,0.806927 0.661823,1.46875 1.46875,1.46875 0.806927,0 1.46875,-0.661823 1.46875,-1.46875 0,-0.806927 -0.661823,-1.46875 -1.46875,-1.46875 z m -21.09375,1.78125 c -1.075903,0 -1.96875,0.892847 -1.96875,1.96875 0,1.075903 0.892847,1.9375 1.96875,1.9375 1.075903,0 1.9375,-0.861597 1.9375,-1.9375 0,-1.075903 -0.861597,-1.96875 -1.9375,-1.96875 z"
                 id="path4061"
                 inkscape:connector-curvature="0" />
              <path
                 transform="matrix(0.58747152,0,0,0.37002308,10.401824,18.73364)"
                 d="M 96,32 C 96,49.673112 81.673112,64 64,64 46.326888,64 32,49.673112 32,32 32,14.326888 46.326888,0 64,0 81.673112,0 96,14.326888 96,32 z"
                 sodipodi:ry="32"
                 sodipodi:rx="32"
                 sodipodi:cy="32"
                 sodipodi:cx="64"
                 id="path4086"
                 style="opacity:0.5;color:#000000;fill:url(#linearGradient3191-4);fill-opacity:1;fill-rule:nonzero;stroke:none;stroke-width:1.5;marker:none;visibility:visible;display:inline;overflow:visible;enable-background:accumulate"
                 sodipodi:type="arc" />
            </g>
            <path
               transform="translate(-0.408282,-0.5715955)"
               d="m 20,18 c 0,1.104569 -0.895431,2 -2,2 -1.104569,0 -2,-0.895431 -2,-2 0,-1.104569 0.895431,-2 2,-2 1.104569,0 2,0.895431 2,2 z"
               sodipodi:ry="2"
               sodipodi:rx="2"
               sodipodi:cy="18"
               sodipodi:cx="18"
               id="path4261"
               style="color:#000000;fill:url(#radialGradient3309-2);fill-opacity:1;fill-rule:nonzero;stroke:none;stroke-width:1.5;marker:none;visibility:visible;display:inline;overflow:visible;enable-background:accumulate"
               sodipodi:type="arc" />
            <path
               d="m 20,18 c 0,1.104569 -0.895431,2 -2,2 -1.104569,0 -2,-0.895431 -2,-2 0,-1.104569 0.895431,-2 2,-2 1.104569,0 2,0.895431 2,2 z"
               sodipodi:ry="2"
               sodipodi:rx="2"
               sodipodi:cy="18"
               sodipodi:cx="18"
               id="path4281"
               style="color:#000000;fill:url(#radialGradient4283-0);fill-opacity:1;fill-rule:nonzero;stroke:none;stroke-width:1.5;marker:none;visibility:visible;display:inline;overflow:visible;enable-background:accumulate"
               sodipodi:type="arc"
               transform="matrix(1.5,0,0,1.5,54.022681,0.0982334)" />
            <path
               transform="translate(-5.264727,10.300552)"
               sodipodi:type="arc"
               style="color:#000000;fill:url(#radialGradient4287-9);fill-opacity:1;fill-rule:nonzero;stroke:none;stroke-width:1.5;marker:none;visibility:visible;display:inline;overflow:visible;enable-background:accumulate"
               id="path4285"
               sodipodi:cx="18"
               sodipodi:cy="18"
               sodipodi:rx="2"
               sodipodi:ry="2"
               d="m 20,18 c 0,1.104569 -0.895431,2 -2,2 -1.104569,0 -2,-0.895431 -2,-2 0,-1.104569 0.895431,-2 2,-2 1.104569,0 2,0.895431 2,2 z" />
            <path
               d="m 20,18 c 0,1.104569 -0.895431,2 -2,2 -1.104569,0 -2,-0.895431 -2,-2 0,-1.104569 0.895431,-2 2,-2 1.104569,0 2,0.895431 2,2 z"
               sodipodi:ry="2"
               sodipodi:rx="2"
               sodipodi:cy="18"
               sodipodi:cx="18"
               id="path4314"
               style="color:#000000;fill:url(#radialGradient4316-4);fill-opacity:1;fill-rule:nonzero;stroke:none;stroke-width:1.5;marker:none;visibility:visible;display:inline;overflow:visible;enable-background:accumulate"
               sodipodi:type="arc"
               transform="translate(39.486106,-7.456013)" />
          </g>
        </g>
      </g>
    </g>
    <g
       id="layer8-1"
       inkscape:label="Clouds"
       transform="translate(0,-3.348282)"
       style="display:inline">
      <g
         id="g3963"
         clip-path="url(#clipPath3974-2-3)">
        <path
           style="color:#000000;fill:url(#linearGradient3982-8-7);fill-opacity:1;fill-rule:nonzero;stroke:none;stroke-width:1.5;marker:none;visibility:visible;display:inline;overflow:visible;enable-background:accumulate"
           d="m 63.175794,37.576905 c 1.369476,-0.397707 2.807779,0.367992 3.205487,1.737469 0.262772,0.904832 0.01648,1.836087 -0.581625,2.479326 0.586553,0.478664 1.089738,1.056139 1.505518,1.710498 0.675277,-0.471862 1.39641,-0.882052 2.192631,-1.189959 -0.06956,-0.139988 -0.145615,-0.277311 -0.190748,-0.432721 -0.408457,-1.406491 0.403578,-2.883197 1.810068,-3.291654 1.030523,-0.299273 2.089976,0.06539 2.74654,0.829435 0.716458,-1.339395 1.929589,-2.411629 3.485864,-2.899711 -0.365462,-1.258437 0.359975,-2.577663 1.618413,-2.943125 1.184938,-0.344117 2.406347,0.292537 2.852109,1.417058 0.324269,-0.235887 0.702109,-0.431687 1.109389,-0.549965 1.887657,-0.548192 3.866495,0.539963 4.414688,2.42762 0.01796,0.06184 0.0078,0.126802 0.02228,0.188776 0.561904,-0.244831 1.133537,-0.459353 1.735737,-0.634238 1.602475,-0.465372 3.198285,-0.632208 4.779415,-0.574459 0.79208,-1.35483 2.08729,-2.428468 3.71337,-2.900697 3.36817,-0.978147 6.88309,0.954696 7.86124,4.322868 0.14672,0.505224 0.22646,1.01969 0.24699,1.522786 2.14913,-0.330399 4.24991,0.963796 4.87265,3.108152 0.12227,0.421021 0.17183,0.835673 0.16855,1.252696 0.2622,0.121854 0.51679,0.249167 0.76579,0.395888 0.63234,-0.964536 1.59387,-1.731977 2.81117,-2.085493 2.62791,-0.76317 5.33539,0.66766 6.06631,3.184536 0.73092,2.516876 -0.78897,5.175372 -3.41689,5.938542 -0.39479,0.114651 -0.79196,0.161401 -1.18396,0.181128 0.12908,3.889379 -2.36252,7.519728 -6.27254,8.655233 -1.22894,0.356896 -2.47953,0.422032 -3.66904,0.251997 -1.92,2.790095 -4.74823,4.958448 -8.25444,5.976689 -4.73744,1.37579 -9.602786,0.33061 -13.287237,-2.389162 -0.585007,0.617655 -1.333104,1.103049 -2.209076,1.35744 -2.331035,0.676952 -4.754739,-0.41753 -5.805842,-2.511733 -0.02951,0.0088 -0.06039,0.01754 -0.09003,0.02614 -3.469958,1.007707 -7.019558,0.122007 -9.602656,-2.027384 -0.854661,1.601925 -2.336349,2.85875 -4.217701,3.405112 -3.396856,0.986478 -6.953971,-0.707802 -8.344283,-3.857177 -0.398342,0.22718 -0.808409,0.430016 -1.268154,0.56353 -3.146095,0.913654 -6.444159,-0.899938 -7.357814,-4.046033 -0.913654,-3.146096 0.899938,-6.44416 4.046034,-7.357814 0.328869,-0.09551 0.658222,-0.151626 0.986469,-0.188857 0.336169,-0.608133 0.871585,-1.066644 1.552717,-1.26445 0.704334,-0.204545 1.442393,-0.08217 2.065929,0.278645 -0.128873,-3.224369 1.928678,-6.254798 5.167095,-7.195264 0.70473,-0.20466 1.409116,-0.264071 2.106545,-0.253808 -0.06387,-1.172217 0.667285,-2.276416 1.843037,-2.617865 z"
           id="path3870-2"
           inkscape:connector-curvature="0" />
        <path
           id="path3739-6"
           d="m 20.5,50.3125 c -0.950448,0 -1.828481,0.305591 -2.53125,0.8125 -0.580044,-0.08942 -1.176174,-0.15625 -1.78125,-0.15625 -2.643739,0 -5.050411,0.91554 -7,2.40625 C 8.962304,53.33941 8.735827,53.3125 8.5,53.3125 c -2.312525,0 -4.1875,1.771853 -4.1875,3.96875 0,0.823837 0.267268,1.583883 0.71875,2.21875 -0.267997,0.977691 -0.40625,1.999741 -0.40625,3.0625 0,1.073475 0.133008,2.107256 0.40625,3.09375 C 4.411327,65.37723 3.723921,65.21875 3,65.21875 c -2.736488,0 -4.9375,2.201013 -4.9375,4.9375 0,2.736488 2.201012,4.96875 4.9375,4.96875 0.36612,0 0.719001,-0.04965 1.0625,-0.125 -6.43e-4,0.04129 0,0.08355 0,0.125 0,4.316713 3.495787,7.8125 7.8125,7.8125 2.785961,0 5.209665,-1.462067 6.59375,-3.65625 2.041092,1.840971 4.753634,2.96875 7.71875,2.96875 4.014997,0 7.532983,-2.07204 9.59375,-5.1875 1.294164,0.971148 2.882433,1.5625 4.625,1.5625 2.724975,0 5.119177,-1.435314 6.5,-3.5625 0.693167,0.556164 1.542148,0.90625 2.5,0.90625 1.309291,0 2.478909,-0.629504 3.21875,-1.59375 0.322673,0.203233 0.71549,0.34375 1.125,0.34375 1.156262,0 2.09375,-0.937488 2.09375,-2.09375 0,-1.156262 -0.937488,-2.09375 -2.09375,-2.09375 -0.180666,0 -0.364014,0.01947 -0.53125,0.0625 C 52.711419,69.137709 51.398958,68.067364 49.8125,67.90625 49.72627,66.558185 48.619837,65.5 47.25,65.5 c -0.381196,0 -0.736814,0.07047 -1.0625,0.21875 -1.418341,-1.583489 -3.488111,-2.59375 -5.78125,-2.59375 -1.024452,0 -1.979942,0.201263 -2.875,0.5625 -0.224258,-2.373424 -2.22414,-4.25 -4.65625,-4.25 -0.280177,0 -0.545883,0.04651 -0.8125,0.09375 0.03207,-0.217664 0.0625,-0.429674 0.0625,-0.65625 0,-2.505235 -2.057265,-4.53125 -4.5625,-4.53125 -0.939463,0 -1.807279,0.260895 -2.53125,0.75 -0.124657,-0.147579 -0.243234,-0.296374 -0.375,-0.4375 0.01212,-0.123274 0.03125,-0.248717 0.03125,-0.375 0,-2.196897 -1.874975,-3.96875 -4.1875,-3.96875 z"
           style="color:#000000;fill:url(#linearGradient3980-2-2);fill-opacity:1;fill-rule:nonzero;stroke:none;stroke-width:1.5;marker:none;visibility:visible;display:inline;overflow:visible;enable-background:accumulate"
           inkscape:connector-curvature="0" />
        <path
           id="path3772-3"
           d="m 94.09,34.889421 c -1.79508,0 -3.28711,1.334802 -3.53125,3.0625 -0.99024,0.397809 -1.89622,0.908493 -2.71875,1.5625 -0.48316,-0.508483 -1.14945,-0.84375 -1.90625,-0.84375 -1.4646,0 -2.65625,1.191651 -2.65625,2.65625 0,0.01073 -1.3e-4,0.02055 0,0.03125 -1.03573,0.06809 -2.02712,0.266793 -2.96875,0.59375 -0.550274,-0.637053 -1.373388,-1.03125 -2.281252,-1.03125 -1.636798,0 -2.967312,1.308529 -3,2.9375 -0.04347,-0.0022 -0.08097,-0.03125 -0.125,-0.03125 -1.203669,0 -2.223302,0.869855 -2.46875,2 -2.45358,0.166046 -4.562623,1.519821 -5.78125,3.5 -0.4926,-0.208352 -1.025254,-0.3125 -1.59375,-0.3125 -2.273983,0 -4.125,1.851017 -4.125,4.125 0,2.273983 1.851017,4.09375 4.125,4.09375 0.534254,0 1.0316,-0.09607 1.5,-0.28125 1.286055,2.183281 3.657764,3.625 6.375,3.625 0.877767,0 1.718823,-0.156911 2.5,-0.4375 2.085815,2.410336 5.156042,3.9375 8.593752,3.9375 3.57421,0 6.75837,-1.640646 8.84375,-4.21875 1.21505,1.383268 2.98292,2.28125 4.96875,2.28125 1.54469,0 2.96664,-0.551752 4.09375,-1.4375 1.05752,0.549176 2.2573,0.875 3.53125,0.875 1.54894,0 2.98131,-0.460945 4.1875,-1.25 0.49805,0.257126 1.05711,0.40625 1.65625,0.40625 1.74332,0 3.21295,-1.235953 3.5625,-2.875 0.23611,1.540136 1.55007,2.71875 3.15625,2.71875 1.77293,0 3.21875,-1.414564 3.21875,-3.1875 0,-1.615065 -1.19735,-2.962289 -2.75,-3.1875 0.0458,-0.258658 0.0937,-0.540686 0.0937,-0.8125 0,-2.505235 -2.02602,-4.53125 -4.53125,-4.53125 -0.84008,0 -1.63779,0.258215 -2.3125,0.65625 -0.22398,-0.319863 -0.44981,-0.655928 -0.71875,-0.9375 0.10594,-0.250475 0.15625,-0.523434 0.15625,-0.8125 0,-1.156262 -0.93749,-2.09375 -2.09375,-2.09375 -0.0932,0 -0.1913,0.01945 -0.28125,0.03125 -0.0172,-1.796731 -1.48046,-3.25 -3.28125,-3.25 -0.47744,0 -0.93457,0.09784 -1.34375,0.28125 -1.42514,-2.522984 -3.82747,-4.414808 -6.6875,-5.1875 -0.40134,-1.525904 -1.75435,-2.65625 -3.40625,-2.65625 z"
           style="color:#000000;fill:url(#linearGradient3929-2-8);fill-opacity:1;fill-rule:nonzero;stroke:none;stroke-width:1.5;marker:none;visibility:visible;display:inline;overflow:visible;enable-background:accumulate"
           inkscape:connector-curvature="0" />
        <path
           id="path3671-9"
           d="m 10.66061,61.762622 c 3.026368,0.307343 5.375,2.892545 5.375,5.999999 0,0.502248 -0.07128,0.971235 -0.1875,1.4375 1.355555,-0.829233 2.950813,-1.3125 4.65625,-1.3125 0.697126,0 1.380076,0.09893 2.03125,0.25 0.475056,-1.362518 1.756773,-2.34375 3.28125,-2.34375 1.927104,0 3.46875,1.572896 3.46875,3.5 0,0.923053 -0.352247,1.75095 -0.9375,2.375 0.196494,-0.02238 0.391268,0 0.59375,0 2.890656,0 5.25,2.328094 5.25,5.21875 0,2.890656 -2.359344,5.25 -5.25,5.25 -0.403981,0 -0.778551,-0.06962 -1.15625,-0.15625 -1.011736,1.427012 -2.435578,2.519337 -4.09375,3.15625 0.0042,0.11543 0.03125,0.227305 0.03125,0.34375 0,5.241723 -4.258277,9.46875 -9.5,9.46875 -1.530417,0 -2.969848,-0.356599 -4.25,-1 -2.624598,1.783448 -5.806379,2.84375 -9.21875,2.84375 -6.838671,0 -12.693371,-4.205133 -15.156251,-10.15625 -4.78516,-0.596606 -8.5,-4.646976 -8.5,-9.59375 0,-5.357349 4.33015,-9.71875 9.6875,-9.71875 1.15953,0 2.28176,0.220606 3.3125,0.59375 0.85422,-0.731187 1.78936,-1.393203 2.78125,-1.9375 -0.0827,-0.233328 -0.15625,-0.488331 -0.15625,-0.75 0,-1.233347 1.01665,-2.21875 2.25,-2.21875 0.94828,0 1.76987,0.572443 2.09375,1.40625 1.05684,-0.242785 2.15727,-0.406213 3.281251,-0.4375 0.31043,-1.285581 1.462817,-2.21875 2.84375,-2.21875 1.174447,0 2.188572,0.690101 2.65625,1.6875 1.078785,-1.054211 2.554466,-1.6875 4.1875,-1.6875 0.207164,0 0.423242,-0.02049 0.625,0 z"
           style="opacity:0.8;color:#000000;fill:url(#linearGradient3926-3-2);fill-opacity:1;fill-rule:nonzero;stroke:none;stroke-width:1.5;marker:none;visibility:visible;display:inline;overflow:visible;enable-background:accumulate"
           inkscape:connector-curvature="0" />
        <path
           id="path3713-4"
           d="m 7.65625,74.65625 c 3.500466,0 6.464046,2.18625 7.625,5.28125 2.922683,0.05208 5.28125,2.439881 5.28125,5.375 0,2.96774 -2.40726,5.375 -5.375,5.375 -1.175339,0 -2.240467,-0.391098 -3.125,-1.03125 -1.273613,0.821117 -2.778216,1.3125 -4.40625,1.3125 -0.412169,0 -0.822986,-0.03481 -1.21875,-0.09375 -0.460796,0.558357 -1.157023,0.9375 -1.9375,0.9375 -1.110012,0 -2.04265,-0.720393 -2.375,-1.71875 -0.573002,0.172103 -1.183445,0.28125 -1.8125,0.28125 -3.468787,0 -6.28125,-2.812463 -6.28125,-6.28125 0,-2.905109 1.97757,-5.344769 4.65625,-6.0625 -0.02473,-0.153233 -0.0625,-0.308535 -0.0625,-0.46875 0,-1.618767 1.318733,-2.90625 2.9375,-2.90625 0.866194,0 1.650919,0.371372 2.1875,0.96875 1.15693,-0.628482 2.497055,-0.96875 3.90625,-0.96875 z"
           style="opacity:0.8;color:#000000;fill:url(#linearGradient4117-7);fill-opacity:1;fill-rule:nonzero;stroke:none;stroke-width:1.5;marker:none;visibility:visible;display:inline;overflow:visible;enable-background:accumulate"
           inkscape:connector-curvature="0" />
      </g>
    </g>
    <g
       transform="matrix(1.0076012,0,0,1.014293,-1.0512372,0.60533708)"
       id="g4963">
      <path
         sodipodi:nodetypes="ssccscss"
         style="opacity:0.3;fill:#ffffff;fill-opacity:1;stroke:none;display:inline"
         d="m 10.49504,6.668839 c -1.9933517,0 -3.6044917,1.649341 -3.6088027,3.684498 l -0.148217,69.961124 c 1.913686,2.521055 1.665283,2.410772 4.8515137,2.679065 C 13.393749,68.132472 48.088552,9.657054 89.00782,9.657054 c 0.48807,0 0.96327,0.01986 1.4492,0.02901 -0.30286,-1.718031 -1.751,-3.017226 -3.52355,-3.017226 z"
         id="rect4190"
         inkscape:connector-curvature="0" />
      <rect
         transform="matrix(0.90930469,0,0,0.92837735,5.5780073,35.153926)"
         style="fill:url(#linearGradient4967);fill-opacity:1;stroke:none;display:inline"
         id="rect4146"
         width="92"
         height="92"
         x="2"
         y="-30"
         rx="3.9569874"
         ry="3.9569881"
         clip-path="url(#clipPath4156-4-6)" />
    </g>
    <rect
       ry="4.25"
       rx="0"
       y="78.897736"
       x="4.211"
       height="4.25"
       width="84.250008"
       id="rect4131"
       style="opacity:0.75494068;fill:url(#radialGradient4992);fill-opacity:1;stroke:none;display:inline" />
    <rect
       transform="matrix(0,1,-1,0,0,0)"
       style="opacity:0.7075099;fill:url(#radialGradient13009);fill-opacity:1;stroke:none;display:inline"
       id="rect4141"
       width="76.75"
       height="4.25"
       x="3.3977196"
       y="-89.551903"
       rx="0"
       ry="4.25" />
  </g>
</svg>
