<?xml version="1.0" encoding="UTF-8" standalone="no"?>
<!-- Created with Inkscape (http://www.inkscape.org/) -->

<svg
   xmlns:dc="http://purl.org/dc/elements/1.1/"
   xmlns:cc="http://creativecommons.org/ns#"
   xmlns:rdf="http://www.w3.org/1999/02/22-rdf-syntax-ns#"
   xmlns:svg="http://www.w3.org/2000/svg"
   xmlns="http://www.w3.org/2000/svg"
   xmlns:xlink="http://www.w3.org/1999/xlink"
   xmlns:sodipodi="http://sodipodi.sourceforge.net/DTD/sodipodi-0.dtd"
   xmlns:inkscape="http://www.inkscape.org/namespaces/inkscape"
   width="96"
   height="96"
   id="svg2"
   version="1.1"
   inkscape:version="0.92.2 2405546, 2018-03-11"
   sodipodi:docname="folder-dropbox.svg">
  <script
     xlink:href=""
     id="script2985" />
  <defs
     id="defs4">
    <linearGradient
       y2="34.832417"
       x2="22.635189"
       y1="59.74646"
       x1="44.725632"
       gradientTransform="matrix(0.9926597,0,0,0.98120132,2.7642561,10.347807)"
       gradientUnits="userSpaceOnUse"
       id="linearGradient3477"
       xlink:href="#linearGradient4125"
       inkscape:collect="always" />
    <linearGradient
       inkscape:collect="always"
       id="linearGradient4125">
      <stop
         style="stop-color:#ffffff;stop-opacity:1;"
         offset="0"
         id="stop4127" />
      <stop
         style="stop-color:#ffffff;stop-opacity:0;"
         offset="1"
         id="stop4129" />
    </linearGradient>
    <linearGradient
       gradientTransform="matrix(0.9926597,0,0,0.98120132,2.9552756,10.430685)"
       inkscape:collect="always"
       xlink:href="#linearGradient3298"
       id="linearGradient3893"
       gradientUnits="userSpaceOnUse"
       x1="1.1209135"
       y1="84.062775"
       x2="95.495911"
       y2="84.062775" />
    <linearGradient
       id="linearGradient3298">
      <stop
         style="stop-color:#000000;stop-opacity:1;"
         offset="0"
         id="stop3300" />
      <stop
         id="stop3302"
         offset="0.05"
         style="stop-color:#ffffff;stop-opacity:1;" />
      <stop
         style="stop-color:#000000;stop-opacity:1;"
         offset="0.1"
         id="stop3304" />
      <stop
         id="stop3306"
         offset="0.5"
         style="stop-color:#000000;stop-opacity:0.49803922;" />
      <stop
         style="stop-color:#000000;stop-opacity:1;"
         offset="0.89999998"
         id="stop3308" />
      <stop
         id="stop3310"
         offset="0.94999999"
         style="stop-color:#ffffff;stop-opacity:1;" />
      <stop
         style="stop-color:#000000;stop-opacity:1;"
         offset="1"
         id="stop3312" />
    </linearGradient>
    <linearGradient
       inkscape:collect="always"
       xlink:href="#linearGradient4188"
       id="linearGradient3891"
       gradientUnits="userSpaceOnUse"
       gradientTransform="matrix(1.115042,0,0,1.1151028,-2.6129269,-1.5370885)"
       x1="6.25"
       y1="80.625"
       x2="89.75"
       y2="80.625" />
    <linearGradient
       id="linearGradient4188">
      <stop
         style="stop-color:#ffffff;stop-opacity:0;"
         offset="0"
         id="stop4190" />
      <stop
         id="stop4198"
         offset="0.15000001"
         style="stop-color:#ffffff;stop-opacity:1;" />
      <stop
         id="stop4196"
         offset="0.85000002"
         style="stop-color:#ffffff;stop-opacity:1;" />
      <stop
         style="stop-color:#ffffff;stop-opacity:0;"
         offset="1"
         id="stop4192" />
    </linearGradient>
    <linearGradient
       inkscape:collect="always"
       xlink:href="#linearGradient3832"
       id="linearGradient3889"
       gradientUnits="userSpaceOnUse"
       gradientTransform="matrix(1.115042,0,0,1.0364664,-2.612926,6.7413165)"
       x1="6.0759845"
       y1="47.472744"
       x2="89.924011"
       y2="47.472744" />
    <linearGradient
       id="linearGradient3832">
      <stop
         style="stop-color:#d8d8d8;stop-opacity:0;"
         offset="0"
         id="stop3834" />
      <stop
         id="stop3842"
         offset="0.05"
         style="stop-color:#ffffff;stop-opacity:1;" />
      <stop
         style="stop-color:#d8d8d8;stop-opacity:0;"
         offset="0.1"
         id="stop3846" />
      <stop
         id="stop3840"
         offset="0.5"
         style="stop-color:#d8d8d8;stop-opacity:0;" />
      <stop
         style="stop-color:#d8d8d8;stop-opacity:0;"
         offset="0.89999998"
         id="stop3844" />
      <stop
         id="stop3848"
         offset="0.94999999"
         style="stop-color:#ffffff;stop-opacity:1;" />
      <stop
         style="stop-color:#d8d8d8;stop-opacity:0;"
         offset="1"
         id="stop3836" />
    </linearGradient>
    <radialGradient
       inkscape:collect="always"
       xlink:href="#linearGradient3414"
       id="radialGradient3882"
       cx="48.308414"
       cy="46.87989"
       fx="48.308414"
       fy="46.87989"
       r="47.087845"
       gradientTransform="matrix(0.9926597,0,0,0.77953801,2.9552756,19.884639)"
       gradientUnits="userSpaceOnUse" />
    <linearGradient
       id="linearGradient3414">
      <stop
         style="stop-color:#0cbaff;stop-opacity:1;"
         offset="0"
         id="stop3416" />
      <stop
         id="stop3418"
         offset="1"
         style="stop-color:#0585d6;stop-opacity:1;" />
    </linearGradient>
    <radialGradient
       inkscape:collect="always"
       xlink:href="#linearGradient3904"
       id="radialGradient3885"
       gradientUnits="userSpaceOnUse"
       gradientTransform="matrix(1.6991473,0.00433809,-9.9578932e-5,0.01373135,-31.241655,-184.99247)"
       cx="44.658661"
       cy="-187.51126"
       fx="44.658661"
       fy="-187.51126"
       r="36.915546" />
    <linearGradient
       inkscape:collect="always"
       id="linearGradient3904">
      <stop
         style="stop-color:#ffffff;stop-opacity:1;"
         offset="0"
         id="stop3906" />
      <stop
         style="stop-color:#ffffff;stop-opacity:0;"
         offset="1"
         id="stop3908" />
    </linearGradient>
    <radialGradient
       gradientTransform="matrix(1.115042,0,0,1.1151028,-2.6129269,0.69311755)"
       inkscape:collect="always"
       xlink:href="#linearGradient3414"
       id="radialGradient3883"
       gradientUnits="userSpaceOnUse"
       cx="48"
       cy="46.50005"
       fx="48"
       fy="46.50005"
       r="42.150002" />
    <linearGradient
       id="linearGradient4441">
      <stop
         style="stop-color:#0cbaff;stop-opacity:1;"
         offset="0"
         id="stop4443" />
      <stop
         id="stop4445"
         offset="1"
         style="stop-color:#0585d6;stop-opacity:1;" />
    </linearGradient>
    <radialGradient
       inkscape:collect="always"
       xlink:href="#linearGradient3904"
       id="radialGradient4652"
       gradientUnits="userSpaceOnUse"
       gradientTransform="matrix(1.6991473,0.00433809,-9.9578932e-5,0.01373135,-31.241655,-184.99247)"
       cx="44.658661"
       cy="-187.51126"
       fx="44.658661"
       fy="-187.51126"
       r="36.915546" />
    <linearGradient
       inkscape:collect="always"
       xlink:href="#linearGradient3832"
       id="linearGradient4656"
       gradientUnits="userSpaceOnUse"
       gradientTransform="matrix(1.1119612,0,0,1.0332275,94.657501,44.307177)"
       x1="6.0759845"
       y1="47.472744"
       x2="89.924011"
       y2="47.472744" />
    <linearGradient
       inkscape:collect="always"
       xlink:href="#linearGradient4188"
       id="linearGradient4658"
       gradientUnits="userSpaceOnUse"
       gradientTransform="matrix(1.1119612,0,0,1.1116181,94.6575,36.054642)"
       x1="6.25"
       y1="80.625"
       x2="89.75"
       y2="80.625" />
    <linearGradient
       inkscape:collect="always"
       xlink:href="#linearGradient3298"
       id="linearGradient4660"
       gradientUnits="userSpaceOnUse"
       gradientTransform="matrix(0.98991706,0,0,0.97813512,100.21032,47.985017)"
       x1="1.1209135"
       y1="84.062775"
       x2="95.495911"
       y2="84.062775" />
    <linearGradient
       inkscape:collect="always"
       xlink:href="#linearGradient4125"
       id="linearGradient4662"
       gradientUnits="userSpaceOnUse"
       gradientTransform="matrix(0.98991706,0,0,0.97813512,100.01983,47.902398)"
       x1="44.725632"
       y1="59.74646"
       x2="22.635189"
       y2="34.832417" />
  </defs>
  <sodipodi:namedview
     id="base"
     pagecolor="#ffffff"
     bordercolor="#666666"
     borderopacity="1.0"
     inkscape:pageopacity="0.0"
     inkscape:pageshadow="2"
     inkscape:zoom="5.5"
     inkscape:cx="76.56976"
     inkscape:cy="-114.60508"
     inkscape:current-layer="g4620"
     showgrid="true"
     inkscape:document-units="px"
     inkscape:grid-bbox="true"
     inkscape:showpageshadow="false"
     gridtolerance="1"
     guidetolerance="1"
     objecttolerance="1"
     inkscape:window-width="1920"
     inkscape:window-height="1023"
     inkscape:window-x="0"
     inkscape:window-y="28"
     inkscape:window-maximized="1" />
  <metadata
     id="metadata7">
    <rdf:RDF>
      <cc:Work
         rdf:about="">
        <dc:format>image/svg+xml</dc:format>
        <dc:type
           rdf:resource="http://purl.org/dc/dcmitype/StillImage" />
        <dc:title></dc:title>
        <dc:date>2015</dc:date>
        <dc:creator>
          <cc:Agent>
            <dc:title>Cristian Pozzessere &lt; ilnanny &gt;</dc:title>
          </cc:Agent>
        </dc:creator>
        <dc:subject>
          <rdf:Bag>
            <rdf:li>ilnanny</rdf:li>
            <rdf:li>inkscape</rdf:li>
            <rdf:li>vectorart</rdf:li>
            <rdf:li>svg</rdf:li>
          </rdf:Bag>
        </dc:subject>
        <dc:coverage>Italy</dc:coverage>
        <dc:description>..when I have nothing to do, I scribble and have fun with inkscape.</dc:description>
      </cc:Work>
    </rdf:RDF>
  </metadata>
  <g
     id="layer1"
     inkscape:label="Layer 1"
     inkscape:groupmode="layer"
     transform="translate(0,32)">
    <g
       id="g4620"
       transform="translate(-2.9090909,-36.545452)">
      <g
         id="g918"
         transform="translate(-97.122554,-37.422726)">
        <path
           style="display:inline;opacity:0.15;fill:#000000;fill-opacity:1;fill-rule:nonzero;stroke:none;stroke-width:0.99705607;enable-background:new"
           d="m 189.06083,42.118177 h -82.05837 c -3.78836,0 -6.8382,3.048729 -6.8382,6.835715 v 82.028578 c 0,3.78699 3.04984,6.83571 6.8382,6.83571 h 82.05837 c 3.78836,0 6.8382,-3.04872 6.8382,-6.83571 V 48.953892 c 0,-3.786986 -3.04984,-6.835715 -6.8382,-6.835715 z"
           id="path3897"
           inkscape:connector-curvature="0" />
        <path
           inkscape:connector-curvature="0"
           id="path3895"
           d="m 188.63344,42.616615 h -81.20359 c -3.7489,0 -6.76697,3.016971 -6.76697,6.76451 v 81.174115 c 0,3.74753 3.01807,6.7645 6.76697,6.7645 h 81.20359 c 3.7489,0 6.76697,-3.01697 6.76697,-6.7645 V 49.381125 c 0,-3.747539 -3.01807,-6.76451 -6.76697,-6.76451 z"
           style="display:inline;opacity:0.25;fill:#000000;fill-opacity:1;fill-rule:nonzero;stroke:none;stroke-width:0.99705607;enable-background:new" />
        <path
           style="display:inline;fill:#19aeff;fill-opacity:1;fill-rule:nonzero;stroke:#6f5327;stroke-width:0.33353692;stroke-miterlimit:4;stroke-dasharray:none;stroke-opacity:1;enable-background:new"
           d="m 188.06225,43.280215 h -80.06122 c -3.69615,0 -6.67176,2.974692 -6.67176,6.669709 v 80.036506 c 0,3.69502 2.97561,6.66971 6.67176,6.66971 h 80.06122 c 3.69616,0 6.67177,-2.97469 6.67177,-6.66971 V 49.949924 c 0,-3.695018 -2.97561,-6.669709 -6.67177,-6.669709 z"
           id="rect2419-1"
           inkscape:connector-curvature="0" />
        <g
           style="enable-background:new"
           id="g4855"
           transform="matrix(0,-1.0824925,1.1119614,0,99.105345,247.95866)">
          <path
             sodipodi:nodetypes="sssssssss"
             inkscape:connector-curvature="0"
             id="path4843"
             d="m 117.21875,6.0978533 c -3.921,0 -7.125,3.2039995 -7.125,7.1250017 v 60.5625 c 0,3.921001 3.204,7.125 7.125,7.125 h 61.5625 c 3.921,0 7.125,-3.203999 7.125,-7.125 v -60.5625 c 0,-3.9210022 -3.204,-7.1250017 -7.125,-7.1250017 z"
             style="color:#000000;font-style:normal;font-variant:normal;font-weight:normal;font-stretch:normal;font-size:medium;line-height:normal;font-family:Sans;-inkscape-font-specification:Sans;text-indent:0;text-align:start;text-decoration:none;text-decoration-line:none;letter-spacing:normal;word-spacing:normal;text-transform:none;writing-mode:lr-tb;direction:ltr;baseline-shift:baseline;text-anchor:start;display:inline;overflow:visible;visibility:visible;opacity:0.13718411;fill:#000000;fill-opacity:1;fill-rule:nonzero;stroke:none;stroke-width:2;marker:none;enable-background:accumulate" />
          <path
             style="color:#000000;font-style:normal;font-variant:normal;font-weight:normal;font-stretch:normal;font-size:medium;line-height:normal;font-family:Sans;-inkscape-font-specification:Sans;text-indent:0;text-align:start;text-decoration:none;text-decoration-line:none;letter-spacing:normal;word-spacing:normal;text-transform:none;writing-mode:lr-tb;direction:ltr;baseline-shift:baseline;text-anchor:start;display:inline;overflow:visible;visibility:visible;opacity:0.24548735;fill:#000000;fill-opacity:1;fill-rule:nonzero;stroke:none;stroke-width:2;marker:none;enable-background:accumulate"
             d="m 117.21875,6.8132616 c -3.37935,0 -6.125,2.745652 -6.125,6.1250004 v 61.5625 c 0,3.379348 2.74565,6.125 6.125,6.125 h 61.5625 c 3.37935,0 6.125,-2.745652 6.125,-6.125 v -61.5625 c 0,-3.3793484 -2.74565,-6.1250004 -6.125,-6.1250004 z"
             id="path4849"
             inkscape:connector-curvature="0"
             sodipodi:nodetypes="sssssssss" />
          <path
             style="display:inline;fill:#f9fff5;fill-opacity:1;fill-rule:nonzero;stroke:#b4b4b4;stroke-width:0.43740079;stroke-miterlimit:4;stroke-dasharray:none;stroke-opacity:1"
             d="m 183.704,12.924914 c 0,-2.842793 -2.24202,-5.1189045 -5.02625,-5.1189045 h -30.72224 c 2.78423,0 5.02625,2.2761115 5.02625,5.1189045 v 61.59377 c 0,2.842793 -2.24202,5.118904 -5.02625,5.118904 h 30.72224 c 2.78423,0 5.02625,-2.276111 5.02625,-5.118904 z"
             id="path4046"
             inkscape:connector-curvature="0" />
          <path
             inkscape:connector-curvature="0"
             id="path4815"
             d="m 115.70813,79.153964 v 1 c 0.26183,2.593688 2.46002,4.59375 5.125,4.59375 h 61.5625 c 2.66498,0 4.86317,-2.000062 5.125,-4.59375 v -1 c -0.26183,2.593688 -2.46002,4.59375 -5.125,4.59375 h -61.5625 c -2.66498,0 -4.86317,-2.000062 -5.125,-4.59375 z"
             style="display:inline;opacity:0.4;fill:#ffffff;fill-opacity:1;fill-rule:nonzero;stroke:none" />
          <path
             inkscape:connector-curvature="0"
             id="path4820"
             d="m 116.6875,7.8132616 c -2.59369,0.2618304 -4.59375,2.4600194 -4.59375,5.1250004 v 0.46875 c 0.26183,-2.593688 2.46002,-4.5937504 5.125,-4.5937504 h 61.5625 c 2.66498,0 4.86317,2.0000624 5.125,4.5937504 v -0.46875 c 0,-2.842646 -2.28235,-5.1250004 -5.125,-5.1250004 h -61.5625 c -0.17767,0 -0.35834,-0.017455 -0.53125,0 z"
             style="display:inline;opacity:0.5;fill:#ffffff;fill-opacity:1;fill-rule:nonzero;stroke:none" />
          <path
             style="display:inline;opacity:0.4;fill:#ffffff;fill-opacity:1;fill-rule:nonzero;stroke:none"
             d="m 115.70813,8.642517 v -1 c 0.26183,-2.593688 2.46002,-4.59375 5.125,-4.59375 h 61.5625 c 2.66498,0 4.86317,2.000062 5.125,4.59375 v 1 c -0.26183,-2.593688 -2.46002,-4.59375 -5.125,-4.59375 h -61.5625 c -2.66498,0 -4.86317,2.000062 -5.125,4.59375 z"
             id="path3896"
             inkscape:connector-curvature="0" />
          <rect
             style="opacity:0.42599278;fill:url(#radialGradient4652);fill-opacity:1;stroke:none"
             id="rect3902"
             width="73.831093"
             height="0.90709358"
             x="7.7431121"
             y="-187.82706"
             transform="rotate(90)" />
          <path
             inkscape:connector-curvature="0"
             id="path3899"
             d="m 183.73251,12.934304 c 0,-2.842793 -2.24202,-5.1189033 -5.02625,-5.1189033 h -5.42158 c 2.78424,0 5.02625,2.2761103 5.02625,5.1189033 v 61.593771 c 0,2.842793 -2.24201,5.118904 -5.02625,5.118904 h 5.42158 c 2.78423,0 5.02625,-2.276111 5.02625,-5.118904 z"
             style="display:inline;fill:#e9ffdb;fill-opacity:1;fill-rule:nonzero;stroke:#b4b4b4;stroke-width:0.43740079;stroke-miterlimit:4;stroke-dasharray:none;stroke-opacity:1" />
          <path
             style="display:inline;fill:#ffecfe;fill-opacity:1;fill-rule:nonzero;stroke:#b4b4b4;stroke-width:0.43733743;stroke-miterlimit:4;stroke-dasharray:none;stroke-opacity:1"
             d="m 180.04889,12.895838 c 0,-2.84197 -2.24202,-5.1174216 -5.02625,-5.1174216 h -5.42158 c 2.78424,0 5.02625,2.2754516 5.02625,5.1174216 v 61.575928 c 0,2.84197 -2.24201,5.117422 -5.02625,5.117422 h 5.42158 c 2.78423,0 5.02625,-2.275452 5.02625,-5.117422 z"
             id="path3086"
             inkscape:connector-curvature="0" />
          <path
             inkscape:connector-curvature="0"
             id="path4810"
             d="m 127.61761,73.032012 v 1.46875 c 0,2.842646 1.78897,5.125 4.01712,5.125 h 48.2544 c 2.22815,0 4.01712,-2.282354 4.01712,-5.125 v -1.46875 c -0.20523,2.593688 -1.92823,4.59375 -4.01712,4.59375 h -48.2544 c -2.08888,0 -3.81189,-2.000062 -4.01712,-4.59375 z"
             style="display:inline;opacity:0.1;fill:#000000;fill-opacity:1;fill-rule:nonzero;stroke:none" />
          <path
             style="display:inline;opacity:0.1;fill:#000000;fill-opacity:1;fill-rule:nonzero;stroke:none"
             d="m 112.09375,13.747703 v -1.46875 c 0,-2.8426464 2.28235,-5.1250008 5.125,-5.1250008 h 61.5625 c 2.84265,0 5.125,2.2823544 5.125,5.1250008 v 1.46875 c -0.26183,-2.593688 -2.46002,-4.5937504 -5.125,-4.5937504 h -61.5625 c -2.66498,0 -4.86317,2.0000624 -5.125,4.5937504 z"
             id="path3898"
             inkscape:connector-curvature="0" />
        </g>
        <path
           sodipodi:nodetypes="ssssssccssss"
           inkscape:connector-curvature="0"
           id="path4187"
           d="m 101.57138,125.07509 c 0,2.88405 3.03238,5.20587 6.79906,5.20587 h 79.32241 c 3.76668,0 6.79906,-2.32182 6.79906,-5.20587 V 71.281125 c 0,-2.884053 -3.03238,-5.20587 -6.79906,-5.20587 h -43.27321 l -4.67435,-5.965053 c -1.14869,-1.623069 -3.395,-2.711392 -5.98459,-2.711392 h -25.39026 c -3.76668,0 -6.79906,2.321818 -6.79906,5.205867 z"
           style="display:inline;fill:#19aeff;fill-opacity:1;fill-rule:nonzero;stroke:#6f5327;stroke-width:0.30377916;stroke-miterlimit:4;stroke-dasharray:none;stroke-opacity:1;enable-background:new" />
        <path
           style="display:inline;opacity:0.53793102;fill:url(#linearGradient4656);fill-opacity:1;fill-rule:nonzero;stroke:none;stroke-width:0.99705607;enable-background:new"
           d="m 101.57138,124.61297 c 0,2.88594 3.03239,5.20928 6.79907,5.20928 h 79.32239 c 3.76668,0 6.79906,-2.32334 6.79906,-5.20928 V 70.783793 c 0,-2.885937 -3.03238,-5.209274 -6.79906,-5.209274 h -43.2732 l -4.67435,-5.968962 c -1.14869,-1.624132 -3.395,-2.713166 -5.98459,-2.713166 h -25.39025 c -3.76668,0 -6.79907,2.323338 -6.79907,5.209278 z"
           id="path3262"
           inkscape:connector-curvature="0"
           sodipodi:nodetypes="ssssssccssss" />
        <path
           style="display:inline;opacity:0.82758622;fill:url(#linearGradient4658);fill-opacity:1;fill-rule:nonzero;stroke:none;stroke-width:0.99705607;enable-background:new"
           d="m 101.60726,121.44081 v 2.22324 c 0,3.4796 3.04715,6.25285 6.81076,6.25285 h 79.22724 c 3.76362,0 6.81077,-2.77325 6.81077,-6.25285 v -2.22324 c 0,3.4796 -3.04715,6.25285 -6.81077,6.25285 h -79.22724 c -3.76361,0 -6.81076,-2.77325 -6.81076,-6.25285 z"
           id="path4045"
           inkscape:connector-curvature="0" />
        <path
           inkscape:connector-curvature="0"
           id="path4114"
           d="m 106.50382,125.00462 h 83.05564 v 0 0"
           style="opacity:0.375;fill:none;stroke:#000000;stroke-width:1.72225785px;stroke-linecap:butt;stroke-linejoin:miter;stroke-opacity:1;enable-background:new" />
        <path
           style="opacity:0.43500001;fill:none;stroke:#ffffff;stroke-width:1.72225785px;stroke-linecap:butt;stroke-linejoin:miter;stroke-opacity:1;enable-background:new"
           d="m 106.50382,124.19024 h 83.05564 v 0 0"
           id="path4110"
           inkscape:connector-curvature="0" />
        <path
           style="opacity:0.375;fill:none;stroke:#000000;stroke-width:1.72225785px;stroke-linecap:butt;stroke-linejoin:miter;stroke-opacity:1;enable-background:new"
           d="m 106.50382,120.93024 h 83.05564 v 0 0"
           id="path4116"
           inkscape:connector-curvature="0" />
        <path
           inkscape:connector-curvature="0"
           id="path4112"
           d="m 106.50382,120.11586 h 83.05564 v 0 0"
           style="opacity:0.43500001;fill:none;stroke:#ffffff;stroke-width:1.72225785px;stroke-linecap:butt;stroke-linejoin:miter;stroke-opacity:1;enable-background:new" />
        <path
           style="display:inline;opacity:0.3;fill:#000000;fill-opacity:1;fill-rule:nonzero;stroke:none;stroke-width:0.99705607;enable-background:new"
           d="m 101.31993,123.79431 v 6.21829 c 0,3.66678 2.98578,6.61263 6.68194,6.61263 h 80.05955 c 3.69616,0 6.68194,-2.94585 6.68194,-6.61263 v -6.21829 c 0,3.66678 -2.98578,6.64296 -6.68194,6.64296 h -80.05955 c -3.69616,0 -6.68194,-2.97618 -6.68194,-6.64296 z"
           id="path3871"
           inkscape:connector-curvature="0" />
        <path
           inkscape:connector-curvature="0"
           id="path3876"
           d="m 101.31993,123.79431 v 6.21829 c 0,3.66678 2.98578,6.61263 6.68194,6.61263 h 80.05955 c 3.69616,0 6.68194,-2.94585 6.68194,-6.61263 v -6.21829 c 0,3.66678 -2.98578,6.64296 -6.68194,6.64296 h -80.05955 c -3.69616,0 -6.68194,-2.97618 -6.68194,-6.64296 z"
           style="display:inline;opacity:0.5;fill:url(#linearGradient4660);fill-opacity:1;fill-rule:nonzero;stroke:none;stroke-width:0.99705607;enable-background:new" />
        <path
           sodipodi:nodetypes="sccccssss"
           inkscape:connector-curvature="0"
           id="path3355"
           d="m 101.38089,125.11141 c 0,2.88594 3.03238,5.20927 6.79906,5.20927 49.46355,-39.900444 39.0638,-32.005412 79.3224,-64.247726 h -43.2732 l -4.67435,-5.968962 c -1.14869,-1.624132 -3.39501,-2.713165 -5.9846,-2.713165 h -25.39025 c -3.76668,0 -6.79906,2.323337 -6.79906,5.209277 z"
           style="display:inline;opacity:0.29861109;fill:url(#linearGradient4662);fill-opacity:1;fill-rule:nonzero;stroke:none;stroke-width:0.99705607;enable-background:new" />
        <path
           id="path3322"
           d="m 127.86654,97.881173 17.80539,8.761717 3.17881,-8.761717 -17.80393,-8.296326 z m 21.38302,0 3.02075,8.683917 18.44056,-8.761719 -3.57762,-8.218524 z m -24.31071,-15.301667 6.12126,6.977964 17.80391,-8.838085 -5.80218,-7.211379 z m 47.99806,0.15417 -17.7271,-9.22567 -6.04149,7.211379 17.96493,8.838085 z m -42.94329,17.339014 -0.0605,8.41303 18.77882,8.49085 v -15.82038 l -2.68249,6.8238 z m 19.37412,1.0835 v 15.81894 l 18.72122,-8.49085 v -8.3554 l -16.23373,7.86696 z"
           inkscape:connector-curvature="0"
           style="fill:#ffffff;fill-opacity:0.89867841;stroke-width:0.99705607;enable-background:new" />
        <path
           style="fill:#000000;fill-opacity:0.70204079;stroke-width:0.99705607;enable-background:new"
           d="m 154.16839,73.851064 -5.07967,6.079564 0.12465,0.182385 -0.46745,0.243183 -0.62328,0.729548 17.70096,8.663376 0.65444,-0.303978 0.59211,-0.668754 -17.54514,-8.663375 5.04851,-6.049164 z m -6.48204,7.021895 -16.26743,8.085817 -5.98342,-6.778712 -1.52702,0.759946 6.10808,6.961098 1.24654,-0.638354 0.12466,-0.27358 0.2493,0.121591 16.20511,-8.025021 z m -17.66979,9.058546 -3.1787,8.298603 3.49033,1.702277 V 99.47642 l 14.45994,7.11309 0.3428,-0.97273 -16.92187,-8.329003 2.68008,-6.9611 z m 19.66427,7.629852 -0.71677,0.334374 -0.43629,1.215914 0.52978,1.489495 v 0.0608 l 0.65444,1.88466 v -1.97586 l 2.21262,6.04917 17.76329,-8.450597 -0.12466,-0.273581 -16.95303,8.085818 -2.92938,-8.420192 z m -20.72384,2.857393 -0.0623,8.42019 18.79169,8.48099 v -1.55029 l -17.42049,-7.87303 0.0623,-6.80911 z m 18.72936,1.09432 -0.49862,1.24631 -1.18422,3.28297 -0.0935,-0.0304 -0.37396,0.94233 0.84142,0.42557 1.30887,-3.31336 v -2.55342 z m 0.65444,0 v 0.88154 l 0.15582,-0.42557 z m 0.71676,1.97586 v 12.88867 l -0.71676,-0.33438 v 1.27671 l 18.72936,-8.48099 v -0.33437 l -17.35816,7.87303 v -11.0952 z"
           id="path4279"
           inkscape:connector-curvature="0" />
      </g>
    </g>
  </g>
</svg>
