<?xml version="1.0" encoding="UTF-8" standalone="no"?>
<!-- Created with Inkscape (http://www.inkscape.org/) -->

<svg
   xmlns:dc="http://purl.org/dc/elements/1.1/"
   xmlns:cc="http://creativecommons.org/ns#"
   xmlns:rdf="http://www.w3.org/1999/02/22-rdf-syntax-ns#"
   xmlns:svg="http://www.w3.org/2000/svg"
   xmlns="http://www.w3.org/2000/svg"
   xmlns:xlink="http://www.w3.org/1999/xlink"
   xmlns:sodipodi="http://sodipodi.sourceforge.net/DTD/sodipodi-0.dtd"
   xmlns:inkscape="http://www.inkscape.org/namespaces/inkscape"
   width="96"
   height="96"
   viewBox="0 0 96.000001 96.000002"
   id="svg3506"
   version="1.1"
   inkscape:version="0.91 r13725"
   sodipodi:docname="folder.svg">
  <title
     id="title4910">Folders-Lila-HD</title>
  <defs
     id="defs3508">
    <linearGradient
       id="linearGradient3832-2">
      <stop
         style="stop-color:#d8d8d8;stop-opacity:0;"
         offset="0"
         id="stop3834-7" />
      <stop
         id="stop3842-3"
         offset="0.05"
         style="stop-color:#ffffff;stop-opacity:1;" />
      <stop
         style="stop-color:#d8d8d8;stop-opacity:0;"
         offset="0.1"
         id="stop3846-7" />
      <stop
         id="stop3840-7"
         offset="0.5"
         style="stop-color:#d8d8d8;stop-opacity:0;" />
      <stop
         style="stop-color:#d8d8d8;stop-opacity:0;"
         offset="0.89999998"
         id="stop3844-4" />
      <stop
         id="stop3848-1"
         offset="0.94999999"
         style="stop-color:#ffffff;stop-opacity:1;" />
      <stop
         style="stop-color:#d8d8d8;stop-opacity:0;"
         offset="1"
         id="stop3836-3" />
    </linearGradient>
    <inkscape:path-effect
       is_visible="true"
       id="path-effect4110"
       effect="spiro" />
    <inkscape:path-effect
       effect="spiro"
       id="path-effect4115"
       is_visible="true" />
    <inkscape:path-effect
       effect="spiro"
       id="path-effect4123"
       is_visible="true" />
    <linearGradient
       y2="34.832417"
       x2="22.635189"
       y1="59.74646"
       x1="44.725632"
       gradientTransform="matrix(0.9926597,0,0,0.98120132,-0.54487,962.26471)"
       gradientUnits="userSpaceOnUse"
       id="linearGradient7781"
       xlink:href="#linearGradient4125"
       inkscape:collect="always" />
    <linearGradient
       inkscape:collect="always"
       id="linearGradient4125">
      <stop
         style="stop-color:#ffffff;stop-opacity:1;"
         offset="0"
         id="stop4127" />
      <stop
         style="stop-color:#ffffff;stop-opacity:0;"
         offset="1"
         id="stop4129" />
    </linearGradient>
    <linearGradient
       id="linearGradient3298">
      <stop
         style="stop-color:#000000;stop-opacity:1;"
         offset="0"
         id="stop3300" />
      <stop
         id="stop3302"
         offset="0.05"
         style="stop-color:#ffffff;stop-opacity:1;" />
      <stop
         style="stop-color:#000000;stop-opacity:1;"
         offset="0.1"
         id="stop3304" />
      <stop
         id="stop3306"
         offset="0.5"
         style="stop-color:#000000;stop-opacity:0.49803922;" />
      <stop
         style="stop-color:#000000;stop-opacity:1;"
         offset="0.89999998"
         id="stop3308" />
      <stop
         id="stop3310"
         offset="0.94999999"
         style="stop-color:#ffffff;stop-opacity:1;" />
      <stop
         style="stop-color:#000000;stop-opacity:1;"
         offset="1"
         id="stop3312" />
    </linearGradient>
    <linearGradient
       inkscape:collect="always"
       xlink:href="#linearGradient4188"
       id="linearGradient3891"
       gradientUnits="userSpaceOnUse"
       gradientTransform="matrix(1.115042,0,0,1.1151028,-6.2310146,949.36549)"
       x1="6.25"
       y1="80.625"
       x2="89.75"
       y2="80.625" />
    <linearGradient
       id="linearGradient4188">
      <stop
         style="stop-color:#ffffff;stop-opacity:0;"
         offset="0"
         id="stop4190" />
      <stop
         id="stop4198"
         offset="0.15000001"
         style="stop-color:#ffffff;stop-opacity:1;" />
      <stop
         id="stop4196"
         offset="0.85000002"
         style="stop-color:#ffffff;stop-opacity:1;" />
      <stop
         style="stop-color:#ffffff;stop-opacity:0;"
         offset="1"
         id="stop4192" />
    </linearGradient>
    <linearGradient
       gradientTransform="matrix(0.9926597,0,0,0.98120132,-0.66281458,961.33319)"
       inkscape:collect="always"
       xlink:href="#linearGradient3298"
       id="linearGradient3893"
       gradientUnits="userSpaceOnUse"
       x1="1.1209135"
       y1="84.062775"
       x2="95.495911"
       y2="84.062775" />
    <radialGradient
       inkscape:collect="always"
       xlink:href="#linearGradient4188"
       id="radialGradient4678"
       cx="48.39286"
       cy="959.505"
       fx="48.39286"
       fy="959.505"
       r="38.214287"
       gradientTransform="matrix(1,0,0,0.01869159,0,940.87018)"
       gradientUnits="userSpaceOnUse" />
    <filter
       inkscape:collect="always"
       style="color-interpolation-filters:sRGB"
       id="filter4819"
       x="-0.016435522"
       width="1.032871"
       y="-0.02008786"
       height="1.0401757">
      <feGaussianBlur
         inkscape:collect="always"
         stdDeviation="0.6026358"
         id="feGaussianBlur4821" />
    </filter>
    <linearGradient
       y2="47.472744"
       x2="89.924011"
       y1="47.472744"
       x1="6.0759845"
       gradientTransform="matrix(1.115042,0,0,1.0364664,-5.522015,2.7961551)"
       gradientUnits="userSpaceOnUse"
       id="linearGradient4763"
       xlink:href="#linearGradient3832-2"
       inkscape:collect="always" />
    <inkscape:path-effect
       is_visible="true"
       id="path-effect4110-8"
       effect="spiro" />
    <inkscape:path-effect
       effect="spiro"
       id="path-effect4115-3"
       is_visible="true" />
    <inkscape:path-effect
       effect="spiro"
       id="path-effect4123-7"
       is_visible="true" />
    <linearGradient
       id="linearGradient6719-4">
      <stop
         id="stop6721-4"
         style="stop-color:#8cab2a;stop-opacity:1"
         offset="0" />
      <stop
         id="stop6723-4"
         style="stop-color:#d7e866;stop-opacity:1"
         offset="1" />
    </linearGradient>
    <linearGradient
       id="linearGradient6699-3">
      <stop
         id="stop6701-7"
         style="stop-color:#f764d1;stop-opacity:1;"
         offset="0" />
      <stop
         id="stop6295"
         style="stop-color:#e11cc6;stop-opacity:1;"
         offset="1" />
    </linearGradient>
    <linearGradient
       x1="-26.43412"
       y1="14.381306"
       x2="-15.630386"
       y2="30.013348"
       id="linearGradient4154"
       xlink:href="#linearGradient6699-3"
       gradientUnits="userSpaceOnUse"
       gradientTransform="matrix(1.9955406,0,0,1.9955406,95.19107,14.107146)" />
    <linearGradient
       id="linearGradient6711-3">
      <stop
         id="stop6713-9"
         style="stop-color:#8badea;stop-opacity:1"
         offset="0" />
      <stop
         id="stop6715-2"
         style="stop-color:#3b7caf;stop-opacity:1"
         offset="1" />
    </linearGradient>
    <linearGradient
       x1="-19.536037"
       y1="21.99547"
       x2="-8.7596264"
       y2="30.070206"
       id="linearGradient4156"
       xlink:href="#linearGradient6711-3"
       gradientUnits="userSpaceOnUse"
       gradientTransform="matrix(1.9955406,0,0,1.9955406,95.19107,14.107146)" />
    <linearGradient
       x1="-17.863041"
       y1="30.827509"
       x2="-20.821646"
       y2="25.015009"
       id="linearGradient4158"
       xlink:href="#linearGradient6719-4"
       gradientUnits="userSpaceOnUse"
       gradientTransform="matrix(1.9955406,0,0,1.9955406,95.19107,14.107146)" />
  </defs>
  <sodipodi:namedview
     id="base"
     pagecolor="#ffffff"
     bordercolor="#666666"
     borderopacity="1.0"
     inkscape:pageopacity="0.00784314"
     inkscape:pageshadow="2"
     inkscape:zoom="5.6"
     inkscape:cx="31.249653"
     inkscape:cy="41.473359"
     inkscape:document-units="px"
     inkscape:current-layer="layer7"
     showgrid="false"
     units="px"
     inkscape:showpageshadow="false"
     showguides="true"
     inkscape:guide-bbox="true"
     inkscape:snap-global="true"
     inkscape:snap-to-guides="false"
     inkscape:window-width="1280"
     inkscape:window-height="966"
     inkscape:window-x="0"
     inkscape:window-y="0"
     inkscape:window-maximized="1">
    <sodipodi:guide
       position="51.607144,1.0714286"
       orientation="0,1"
       id="guide4528" />
    <sodipodi:guide
       position="37.628183,7.7024133"
       orientation="0,1"
       id="guide4542" />
  </sodipodi:namedview>
  <metadata
     id="metadata3511">
    <rdf:RDF>
      <cc:Work
         rdf:about="">
        <dc:format>image/svg+xml</dc:format>
        <dc:type
           rdf:resource="http://purl.org/dc/dcmitype/StillImage" />
        <dc:title>Folders-Lila-HD</dc:title>
        <cc:license
           rdf:resource="http://creativecommons.org/licenses/by-nc-nd/3.0/" />
        <dc:date>Gennaio 2016</dc:date>
        <dc:creator>
          <cc:Agent>
            <dc:title>Cristian Pozzessere</dc:title>
          </cc:Agent>
        </dc:creator>
        <dc:rights>
          <cc:Agent>
            <dc:title>Cristian Pozzessere</dc:title>
          </cc:Agent>
        </dc:rights>
        <dc:language>Italiano</dc:language>
        <dc:subject>
          <rdf:Bag>
            <rdf:li>Lila HD</rdf:li>
            <rdf:li>Icon-Theme</rdf:li>
            <rdf:li>icon theme</rdf:li>
            <rdf:li>Linux</rdf:li>
            <rdf:li>Gnu-Linux</rdf:li>
            <rdf:li>Debian</rdf:li>
            <rdf:li>Fedora</rdf:li>
            <rdf:li>Ubuntu;Archlinux</rdf:li>
            <rdf:li>Manjaro</rdf:li>
            <rdf:li>Kaos;Gentoo</rdf:li>
            <rdf:li>lfs</rdf:li>
            <rdf:li>Linux mint</rdf:li>
            <rdf:li>svg</rdf:li>
            <rdf:li>iccon</rdf:li>
            <rdf:li>icons</rdf:li>
            <rdf:li>vector</rdf:li>
            <rdf:li>vectoricons</rdf:li>
          </rdf:Bag>
        </dc:subject>
        <dc:description>Cartelle per il tema di icone Lila Hd per sistemi operativi gnu linux</dc:description>
      </cc:Work>
      <cc:License
         rdf:about="http://creativecommons.org/licenses/by-nc-nd/3.0/">
        <cc:permits
           rdf:resource="http://creativecommons.org/ns#Reproduction" />
        <cc:permits
           rdf:resource="http://creativecommons.org/ns#Distribution" />
        <cc:requires
           rdf:resource="http://creativecommons.org/ns#Notice" />
        <cc:requires
           rdf:resource="http://creativecommons.org/ns#Attribution" />
        <cc:prohibits
           rdf:resource="http://creativecommons.org/ns#CommercialUse" />
      </cc:License>
    </rdf:RDF>
  </metadata>
  <g
     inkscape:groupmode="layer"
     id="layer2"
     inkscape:label="ultimo"
     style="display:inline"
     sodipodi:insensitive="true">
    <path
       inkscape:connector-curvature="0"
       id="path3897"
       d="m 89.142865,-2e-5 -82.28572,0 C 3.058285,-2e-5 5e-6,3.05828 5e-6,6.85708 l 0,82.28574 c 0,3.7989 3.05828,6.8572 6.85714,6.8572 l 82.28572,0 c 3.79885,0 6.85713,-3.0583 6.85713,-6.8572 l 0,-82.28574 c 0,-3.7988 -3.05828,-6.8571 -6.85713,-6.8571 z"
       style="display:inline;opacity:0.15;fill:#000000;fill-opacity:1;fill-rule:nonzero;stroke:none;enable-background:new" />
    <path
       style="display:inline;opacity:0.25;fill:#000000;fill-opacity:1;fill-rule:nonzero;stroke:none;enable-background:new"
       d="m 88.628575,0.6 -81.25715,0 C 3.6200589,0.6 0.6,3.6200273 0.6,7.3714115 l 0,81.2571775 C 0.6,92.379973 3.6200589,95.4 7.371425,95.4 l 81.25715,0 C 92.379952,95.4 95.4,92.379973 95.4,88.628589 l 0,-81.2571775 C 95.4,3.6200273 92.379951,0.6 88.628575,0.6 Z"
       id="path3895"
       inkscape:connector-curvature="0" />
  </g>
  <g
     inkscape:groupmode="layer"
     id="layer3"
     inkscape:label="colore-sotto"
     style="display:inline"
     sodipodi:insensitive="true">
    <path
       inkscape:connector-curvature="0"
       id="rect2419-1"
       d="m 88.05694,1.266904 -80.1138808,0 c -3.6985839,0 -6.6761551,2.9775507 -6.6761551,6.6761609 l 0,80.1138651 c 0,3.698614 2.9775712,6.676166 6.6761551,6.676166 l 80.1138808,0 c 3.698592,0 6.676156,-2.977552 6.676156,-6.676166 l 0,-80.1138651 c 0,-3.6986102 -2.977564,-6.6761609 -6.676156,-6.6761609 z"
       style="display:inline;fill:#008000;fill-opacity:1;fill-rule:nonzero;stroke:none;stroke-width:0.33380803;stroke-miterlimit:4;stroke-dasharray:none;stroke-opacity:1;enable-background:new" />
  </g>
  <g
     inkscape:groupmode="layer"
     id="layer4"
     inkscape:label="interno"
     sodipodi:insensitive="true">
    <g
       transform="translate(0.70899929,-955.4203)"
       style="display:inline"
       id="g4577">
      <path
         style="display:inline;opacity:0.5;fill:#ffffff;fill-opacity:1;fill-rule:nonzero;stroke:none;enable-background:new"
         d="m 115.70813,79.153964 0,1 c 0.26183,2.593688 2.46002,4.59375 5.125,4.59375 l 61.5625,0 c 2.66498,0 4.86317,-2.000062 5.125,-4.59375 l 0,-1 c -0.26183,2.593688 -2.46002,4.59375 -5.125,4.59375 l -61.5625,0 c -2.66498,0 -4.86317,-2.000062 -5.125,-4.59375 z"
         id="path4815"
         inkscape:connector-curvature="0"
         transform="matrix(0,-1.0858858,1.115042,0,-1.6573817,1162.1823)" />
      <path
         inkscape:connector-curvature="0"
         id="path3896"
         d="m 115.70813,8.642517 0,-1 c 0.26183,-2.593688 2.46002,-4.59375 5.125,-4.59375 l 61.5625,0 c 2.66498,0 4.86317,2.000062 5.125,4.59375 l 0,1 c -0.26183,-2.593688 -2.46002,-4.59375 -5.125,-4.59375 l -61.5625,0 c -2.66498,0 -4.86317,2.000062 -5.125,4.59375 z"
         style="display:inline;opacity:0.5;fill:#ffffff;fill-opacity:1;fill-rule:nonzero;stroke:none;enable-background:new"
         transform="matrix(0,-1.0858858,1.115042,0,-1.6573817,1162.1823)" />
      <path
         sodipodi:nodetypes="sssssssss"
         inkscape:connector-curvature="0"
         id="path4849"
         d="m 243.29049,55.017723 c -3.37935,0 -6.125,2.745652 -6.125,6.125 l 0,61.562497 c 0,3.37935 2.74565,6.125 6.125,6.125 l 61.5625,0 c 3.37935,0 6.125,-2.74565 6.125,-6.125 l 0,-61.562497 c 0,-3.379348 -2.74565,-6.125 -6.125,-6.125 z"
         style="color:#000000;font-style:normal;font-variant:normal;font-weight:normal;font-stretch:normal;font-size:medium;line-height:normal;font-family:Sans;-inkscape-font-specification:Sans;text-indent:0;text-align:start;text-decoration:none;text-decoration-line:none;letter-spacing:normal;word-spacing:normal;text-transform:none;direction:ltr;block-progression:tb;writing-mode:lr-tb;baseline-shift:baseline;text-anchor:start;display:inline;overflow:visible;visibility:visible;opacity:0.24548735;fill:#000000;fill-opacity:1;fill-rule:nonzero;stroke:none;stroke-width:2;marker:none;enable-background:accumulate"
         transform="matrix(0,-1.0858858,1.115042,0,-55.208088,1296.7167)" />
      <path
         style="display:inline;fill:#f9fff5;fill-opacity:1;fill-rule:nonzero;stroke:#b4b4b4;stroke-width:0.43740079;stroke-miterlimit:4;stroke-dasharray:none;stroke-opacity:1;enable-background:new"
         d="m 214.62017,85.156229 c 0,-2.842793 -2.24202,-5.118904 -5.02625,-5.118904 l -30.72224,0 c 2.78423,0 5.02625,2.276111 5.02625,5.118904 l 0,61.593771 c 0,2.84279 -2.24202,5.1189 -5.02625,5.1189 l 30.72224,0 c 2.78423,0 5.02625,-2.27611 5.02625,-5.1189 l 0,-61.593771 z"
         id="path4046"
         inkscape:connector-curvature="0"
         transform="matrix(0,-1.0858858,1.115042,0,-81.636659,1192.4309)" />
      <path
         inkscape:connector-curvature="0"
         id="path3899"
         d="m 208.39967,85.156226 c 0,-2.842793 -2.24202,-5.118903 -5.02625,-5.118903 l -5.42158,0 c 2.78424,0 5.02625,2.27611 5.02625,5.118903 l 0,61.593774 c 0,2.84279 -2.24201,5.1189 -5.02625,5.1189 l 5.42158,0 c 2.78423,0 5.02625,-2.27611 5.02625,-5.1189 l 0,-61.593774 z"
         style="display:inline;fill:#e9ffdb;fill-opacity:1;fill-rule:nonzero;stroke:#b4b4b4;stroke-width:0.43740079;stroke-miterlimit:4;stroke-dasharray:none;stroke-opacity:1;enable-background:new"
         transform="matrix(0,-1.0858858,1.115042,0,-81.636659,1192.4309)" />
      <path
         style="display:inline;fill:#ffecfe;fill-opacity:1;fill-rule:nonzero;stroke:#b4b4b4;stroke-width:0.43733743;stroke-miterlimit:4;stroke-dasharray:none;stroke-opacity:1;enable-background:new"
         d="m 203.07157,85.165144 c 0,-2.84197 -2.24202,-5.117421 -5.02625,-5.117421 l -5.42158,0 c 2.78424,0 5.02625,2.275451 5.02625,5.117421 l 0,61.575926 c 0,2.84197 -2.24201,5.11743 -5.02625,5.11743 l 5.42158,0 c 2.78423,0 5.02625,-2.27546 5.02625,-5.11743 l 0,-61.575926 z"
         id="path3086"
         inkscape:connector-curvature="0"
         transform="matrix(0,-1.0858858,1.115042,0,-81.636659,1192.4309)" />
      <path
         style="display:inline;opacity:0.1;fill:#000000;fill-opacity:1;fill-rule:nonzero;stroke:none;enable-background:new"
         d="m 127.61761,73.032012 0,1.46875 c 0,2.842646 1.78897,5.125 4.01712,5.125 l 48.2544,0 c 2.22815,0 4.01712,-2.282354 4.01712,-5.125 l 0,-1.46875 c -0.20523,2.593688 -1.92823,4.59375 -4.01712,4.59375 l -48.2544,0 c -2.08888,0 -3.81189,-2.000062 -4.01712,-4.59375 z"
         id="path4810"
         inkscape:connector-curvature="0"
         transform="matrix(0,-1.0858858,1.115042,0,-1.0905122,1158.0911)" />
      <path
         inkscape:connector-curvature="0"
         id="path3898"
         d="m 112.09375,13.747703 0,-1.46875 c 0,-2.8426464 2.28235,-5.1250008 5.125,-5.1250008 l 61.5625,0 c 2.84265,0 5.125,2.2823544 5.125,5.1250008 l 0,1.46875 c -0.26183,-2.593688 -2.46002,-4.5937504 -5.125,-4.5937504 l -61.5625,0 c -2.66498,0 -4.86317,2.0000624 -5.125,4.5937504 z"
         style="display:inline;opacity:0.1;fill:#000000;fill-opacity:1;fill-rule:nonzero;stroke:none;enable-background:new"
         transform="matrix(0,-1.0858858,1.115042,0,-1.0905122,1158.0911)" />
      <path
         style="display:inline;opacity:0.3;fill:#000000;fill-opacity:1;fill-rule:nonzero;stroke:none;enable-background:new"
         d="m 0.44987542,1037.3801 0,6.2378 c 0,3.6783 2.99404998,6.6334 6.70044998,6.6334 l 80.2813506,0 c 3.7064,0 6.70045,-2.9551 6.70045,-6.6334 l 0,-6.2378 c 0,3.6783 -2.99405,6.6638 -6.70045,6.6638 l -80.2813506,0 c -3.7064,0 -6.70044998,-2.9855 -6.70044998,-6.6638 z"
         id="path3871"
         inkscape:connector-curvature="0" />
      <path
         inkscape:connector-curvature="0"
         id="path3876"
         d="m 0.44987542,1037.3801 0,6.2378 c 0,3.6783 2.99404998,6.6334 6.70044998,6.6334 l 80.2813506,0 c 3.7064,0 6.70045,-2.9551 6.70045,-6.6334 l 0,-6.2378 c 0,3.6783 -2.99405,6.6638 -6.70045,6.6638 l -80.2813506,0 c -3.7064,0 -6.70044998,-2.9855 -6.70044998,-6.6638 z"
         style="display:inline;opacity:0.5;fill:url(#linearGradient3893);fill-opacity:1;fill-rule:nonzero;stroke:none;enable-background:new" />
    </g>
  </g>
  <g
     inkscape:groupmode="layer"
     id="layer5"
     inkscape:label="colore-sopra"
     sodipodi:insensitive="true">
    <path
       style="display:inline;fill:#008000;fill-opacity:1;fill-rule:nonzero;stroke:none;stroke-width:0.30467615;stroke-miterlimit:4;stroke-dasharray:none;stroke-opacity:1;enable-background:new"
       d="m 1.4110235,83.3328 c 0,2.8931 3.04078,5.2222 6.8179,5.2222 l 79.5421625,0 c 3.77712,0 6.81789,-2.3291 6.81789,-5.2222 l 0,-53.9626 c 0,-2.893 -3.040769,-5.2221 -6.81789,-5.2221 l -43.393092,0 -4.68731,-5.98378 c -1.15187,-1.6281 -3.4044,-2.7199 -6.00117,-2.7199 l -25.4605905,0 c -3.77712,0 -6.8179,2.3291 -6.8179,5.2222 z"
       id="path4187"
       inkscape:connector-curvature="0"
       sodipodi:nodetypes="ssssssccssss" />
  </g>
  <g
     inkscape:label="ombreggiature "
     inkscape:groupmode="layer"
     id="layer1"
     transform="translate(0,-956.36216)"
     style="display:inline"
     sodipodi:insensitive="true">
    <path
       style="display:inline;opacity:0.29861109;fill:url(#linearGradient7781);fill-opacity:1;fill-rule:nonzero;stroke:none;enable-background:new"
       d="m 0.81997,1039.7158 c 0,2.895 3.04078,5.2256 6.8179,5.2256 49.60059,-40.0255 39.17202,-32.1058 79.54216,-64.44909 l -43.39309,0 -4.6873,-5.9877 c -1.15188,-1.6292 -3.40441,-2.7217 -6.00118,-2.7217 l -25.46059,0 c -3.77712,0 -6.8179,2.3306 -6.8179,5.2256 z"
       id="path3355"
       inkscape:connector-curvature="0"
       sodipodi:nodetypes="sccccssss" />
    <g
       id="g3696"
       transform="translate(137.13757,34.961974)">
      <g
         id="g4518"
         transform="translate(4.01e-6,0.98214282)">
        <g
           id="g4560"
           transform="translate(-136.42857,-34.642857)">
          <g
             id="g4553">
            <path
               inkscape:connector-curvature="0"
               id="path4045"
               d="m 0.73799542,1035.0193 0,2.2302 c 0,3.4905 3.05559998,6.2724 6.82963998,6.2724 l 79.4467406,0 c 3.77404,0 6.82963,-2.7819 6.82963,-6.2724 l 0,-2.2302 c 0,3.4905 -3.05559,6.2724 -6.82963,6.2724 l -79.4467406,0 c -3.77404,0 -6.82963998,-2.7819 -6.82963998,-6.2724 z"
               style="display:inline;opacity:0.82758622;fill:url(#linearGradient3891);fill-opacity:1;fill-rule:nonzero;stroke:none;enable-background:new" />
            <path
               style="display:inline;opacity:0.375;fill:none;stroke:#000000;stroke-width:1.72734308px;stroke-linecap:butt;stroke-linejoin:miter;stroke-opacity:1;enable-background:new"
               d="m 5.6481254,1038.5943 83.2857506,0 0,0 0,0"
               id="path4114"
               inkscape:connector-curvature="0" />
            <path
               inkscape:connector-curvature="0"
               id="path4110"
               d="m 5.6481254,1037.7773 83.2857506,0 0,0 0,0"
               style="display:inline;opacity:0.5;fill:none;stroke:#ffffff;stroke-width:1.72734308px;stroke-linecap:butt;stroke-linejoin:miter;stroke-opacity:1;enable-background:new" />
            <path
               inkscape:connector-curvature="0"
               id="path4116"
               d="m 5.6481254,1034.5071 83.2857506,0 0,0 0,0"
               style="display:inline;opacity:0.375;fill:none;stroke:#000000;stroke-width:1.72734308px;stroke-linecap:butt;stroke-linejoin:miter;stroke-opacity:1;enable-background:new" />
            <path
               style="display:inline;opacity:0.5;fill:none;stroke:#ffffff;stroke-width:1.72734308px;stroke-linecap:butt;stroke-linejoin:miter;stroke-opacity:1;enable-background:new"
               d="m 5.6481254,1033.6902 83.2857506,0 0,0 0,0"
               id="path4112"
               inkscape:connector-curvature="0" />
          </g>
          <path
             inkscape:connector-curvature="0"
             style="display:inline;opacity:0.34100001;fill:#ffffff;fill-opacity:1;fill-rule:nonzero;stroke:none;filter:url(#filter4819);enable-background:new"
             d="M 10.4375,12 C 6.8702763,12 4,14.307107 4,17.15625 l 0,61.6875 C 4,81.692893 6.8702763,84 10.4375,84 l 75.125,0 C 89.129721,84 92,81.692893 92,78.84375 l 0,-53.125 C 92,22.869608 89.129721,20.5625 85.5625,20.5625 l -43,-0.21875 L 38.59375,15.125 C 37.505888,13.521573 36.952461,12 34.5,12 L 10.4375,12 Z M 33.75,13.875 c 1.448641,-0.0075 1.875677,-0.06824 3.375,2.40625 L 40.90625,22 83.84375,22.09375 C 87.248825,22.09375 90,24.246643 90,26.9375 l 0,50.21875 C 90,79.847107 87.248825,82 83.84375,82 l -71.6875,0 C 8.7511736,82 6,79.847107 6,77.15625 L 6,18.84375 C 6,16.152893 8.7512194,14.017581 12.15625,14 L 33.75,13.875 Z"
             id="path4118"
             transform="matrix(1.0221218,0,0,0.94911071,-1.7708487,961.27568)" />
        </g>
      </g>
    </g>
    <rect
       style="opacity:0.56499999;fill:url(#radialGradient4678);fill-opacity:1;stroke:none;stroke-width:2;stroke-linecap:round;stroke-linejoin:round;stroke-miterlimit:4;stroke-dasharray:none;stroke-dashoffset:0;stroke-opacity:1"
       id="rect4670"
       width="76.428574"
       height="1.4285715"
       x="10.178572"
       y="958.09058" />
  </g>
  <g
     inkscape:groupmode="layer"
     id="layer7"
     inkscape:label="simboli" />
  <g
     inkscape:groupmode="layer"
     id="layer6"
     inkscape:label="luce-sopra"
     style="display:inline"
     sodipodi:insensitive="true">
    <path
       sodipodi:nodetypes="ssssssccssss"
       inkscape:connector-curvature="0"
       id="path3262"
       d="m 1.411025,83.353645 c 0,2.895 3.04078,5.2256 6.8179,5.2256 l 79.54216,0 c 3.77712,0 6.81789,-2.3306 6.81789,-5.2256 l 0,-53.99789 c 0,-2.895 -3.04077,-5.2256 -6.81789,-5.2256 l -43.393094,0 -4.687299,-5.9877 c -1.15188,-1.6292 -3.40441,-2.7217 -6.00118,-2.7217 l -25.460587,0 c -3.77712,0 -6.8179,2.3306 -6.8179,5.2256 z"
       style="display:inline;opacity:0.53793102;fill:url(#linearGradient4763);fill-opacity:1;fill-rule:nonzero;stroke:none;enable-background:new" />
  </g>
</svg>
