<?xml version="1.0" encoding="UTF-8" standalone="no"?>
<!-- Created with Inkscape (http://www.inkscape.org/) -->

<svg
   xmlns:dc="http://purl.org/dc/elements/1.1/"
   xmlns:cc="http://creativecommons.org/ns#"
   xmlns:rdf="http://www.w3.org/1999/02/22-rdf-syntax-ns#"
   xmlns:svg="http://www.w3.org/2000/svg"
   xmlns="http://www.w3.org/2000/svg"
   xmlns:xlink="http://www.w3.org/1999/xlink"
   xmlns:sodipodi="http://sodipodi.sourceforge.net/DTD/sodipodi-0.dtd"
   xmlns:inkscape="http://www.inkscape.org/namespaces/inkscape"
   width="96"
   version="1.1"
   height="96"
   id="svg43"
   sodipodi:docname="folder-onedrive.svg"
   inkscape:version="0.92.2 2405546, 2018-03-11">
  <sodipodi:namedview
     pagecolor="#ffffff"
     bordercolor="#666666"
     borderopacity="1"
     objecttolerance="10"
     gridtolerance="10"
     guidetolerance="10"
     inkscape:pageopacity="0"
     inkscape:pageshadow="2"
     inkscape:window-width="1920"
     inkscape:window-height="994"
     id="namedview45"
     showgrid="false"
     inkscape:snap-global="false"
     inkscape:zoom="7.8020833"
     inkscape:cx="21.789052"
     inkscape:cy="48"
     inkscape:window-x="0"
     inkscape:window-y="21"
     inkscape:window-maximized="1"
     inkscape:current-layer="g1124" />
  <defs
     id="defs5455">
    <linearGradient
       id="linearGradient4125"
       inkscape:collect="always">
      <stop
         id="stop4127"
         offset="0"
         style="stop-color:#ffffff;stop-opacity:1;" />
      <stop
         id="stop4129"
         offset="1"
         style="stop-color:#ffffff;stop-opacity:0;" />
    </linearGradient>
    <linearGradient
       id="linearGradient3298">
      <stop
         id="stop3300"
         offset="0"
         style="stop-color:#ffffff;stop-opacity:0.03137255" />
      <stop
         style="stop-color:#ffffff;stop-opacity:1;"
         offset="0.05"
         id="stop3302" />
      <stop
         id="stop3304"
         offset="0.1"
         style="stop-color:#ffffff;stop-opacity:0.02352941" />
      <stop
         style="stop-color:#ffffff;stop-opacity:0.28057554"
         offset="0.5"
         id="stop3306" />
      <stop
         id="stop3308"
         offset="0.89999998"
         style="stop-color:#fefefe;stop-opacity:0.01568628" />
      <stop
         style="stop-color:#ffffff;stop-opacity:1;"
         offset="0.94999999"
         id="stop3310" />
      <stop
         id="stop3312"
         offset="1"
         style="stop-color:#fdfdfd;stop-opacity:0" />
    </linearGradient>
    <linearGradient
       id="linearGradient4188">
      <stop
         id="stop4190"
         offset="0"
         style="stop-color:#ffffff;stop-opacity:0;" />
      <stop
         style="stop-color:#ffffff;stop-opacity:1;"
         offset="0.15000001"
         id="stop4198" />
      <stop
         style="stop-color:#ffffff;stop-opacity:1;"
         offset="0.85000002"
         id="stop4196" />
      <stop
         id="stop4192"
         offset="1"
         style="stop-color:#ffffff;stop-opacity:0;" />
    </linearGradient>
    <linearGradient
       id="linearGradient3832">
      <stop
         id="stop3834"
         offset="0"
         style="stop-color:#d8d8d8;stop-opacity:0;" />
      <stop
         style="stop-color:#ffffff;stop-opacity:1;"
         offset="0.05"
         id="stop3842" />
      <stop
         id="stop3846"
         offset="0.1"
         style="stop-color:#d8d8d8;stop-opacity:0;" />
      <stop
         style="stop-color:#d8d8d8;stop-opacity:0;"
         offset="0.5"
         id="stop3840" />
      <stop
         id="stop3844"
         offset="0.89999998"
         style="stop-color:#d8d8d8;stop-opacity:0;" />
      <stop
         style="stop-color:#ffffff;stop-opacity:1;"
         offset="0.94999999"
         id="stop3848" />
      <stop
         id="stop3836"
         offset="1"
         style="stop-color:#d8d8d8;stop-opacity:0;" />
    </linearGradient>
    <linearGradient
       id="linearGradient4012">
      <stop
         id="stop4014"
         offset="0"
         style="stop-color:#9a9a9a;stop-opacity:1;" />
      <stop
         id="stop4016"
         offset="1"
         style="stop-color:#6e6e6e;stop-opacity:1;" />
    </linearGradient>
    <linearGradient
       y2="80.625"
       x2="89.75"
       y1="80.625"
       x1="6.25"
       gradientTransform="matrix(1.115042,0,0,1.0405556,379.22751,452.30065)"
       gradientUnits="userSpaceOnUse"
       id="linearGradient3891"
       xlink:href="#linearGradient4188"
       inkscape:collect="always" />
    <linearGradient
       y2="84.062775"
       x2="95.495911"
       y1="84.062775"
       x1="1.1209135"
       gradientUnits="userSpaceOnUse"
       id="linearGradient3893"
       xlink:href="#linearGradient3298"
       inkscape:collect="always"
       gradientTransform="matrix(0.9926597,0,0,0.91560576,384.79572,463.46828)" />
    <linearGradient
       inkscape:collect="always"
       xlink:href="#linearGradient4125"
       id="linearGradient3391"
       gradientUnits="userSpaceOnUse"
       x1="44.725632"
       y1="59.74646"
       x2="22.635189"
       y2="34.832417"
       gradientTransform="matrix(0.9926597,0,0,0.91560576,384.4587,463.06768)" />
    <linearGradient
       y2="47.472744"
       x2="89.924011"
       y1="47.472744"
       x1="6.0759845"
       gradientTransform="matrix(1.115042,0,0,0.96717625,379.04941,460.7343)"
       gradientUnits="userSpaceOnUse"
       id="linearGradient3889"
       xlink:href="#linearGradient3832"
       inkscape:collect="always" />
    <radialGradient
       r="36.915546"
       fy="-187.51126"
       fx="44.658661"
       cy="-187.51126"
       cx="44.658661"
       gradientTransform="matrix(1.8946206,0.00471067,-1.1103469e-4,0.01491068,348.78729,457.67129)"
       gradientUnits="userSpaceOnUse"
       id="radialGradient3885"
       xlink:href="#linearGradient4125"
       inkscape:collect="always" />
  </defs>
  <metadata
     id="metadata5458">
    <rdf:RDF>
      <cc:Work
         rdf:about="">
        <dc:format>image/svg+xml</dc:format>
        <dc:type
           rdf:resource="http://purl.org/dc/dcmitype/StillImage" />
        <dc:title />
        <cc:license
           rdf:resource="http://creativecommons.org/licenses/by-sa/4.0/" />
        <dc:date>2019</dc:date>
        <dc:creator>
          <cc:Agent>
            <dc:title>Cristian Pozzessere  &lt; ilnanny &gt;</dc:title>
          </cc:Agent>
        </dc:creator>
        <dc:subject>
          <rdf:Bag>
            <rdf:li>ilnanny</rdf:li>
          </rdf:Bag>
        </dc:subject>
      </cc:Work>
      <cc:License
         rdf:about="http://creativecommons.org/licenses/by-sa/4.0/">
        <cc:permits
           rdf:resource="http://creativecommons.org/ns#Reproduction" />
        <cc:permits
           rdf:resource="http://creativecommons.org/ns#Distribution" />
        <cc:requires
           rdf:resource="http://creativecommons.org/ns#Notice" />
        <cc:requires
           rdf:resource="http://creativecommons.org/ns#Attribution" />
        <cc:permits
           rdf:resource="http://creativecommons.org/ns#DerivativeWorks" />
        <cc:requires
           rdf:resource="http://creativecommons.org/ns#ShareAlike" />
      </cc:License>
    </rdf:RDF>
  </metadata>
  <g
     inkscape:label="LIVELLO"
     inkscape:groupmode="layer"
     id="layer1"
     transform="translate(-384.57143,-451.798)">
    <path
       style="display:inline;opacity:0.15;fill:#000000;fill-opacity:1;fill-rule:nonzero;stroke:none;stroke-width:0.98691386;enable-background:new"
       d="m 473.71429,451.798 h -82.28572 c -3.79885,0 -6.85714,3.0583 -6.85714,6.8571 v 82.2858 c 0,3.7988 3.05829,6.8571 6.85714,6.8571 h 82.28572 c 3.79886,0 6.85714,-3.0583 6.85714,-6.8571 v -82.2858 c 0,-3.7988 -3.05828,-6.8571 -6.85714,-6.8571 z"
       id="path3897"
       inkscape:connector-curvature="0" />
    <path
       inkscape:connector-curvature="0"
       id="path3895"
       d="m 473.28572,452.298 h -81.42858 c -3.75928,0 -6.78571,3.0264 -6.78571,6.7857 v 81.4286 c 0,3.7593 3.02643,6.7857 6.78571,6.7857 h 81.42858 c 3.75928,0 6.78571,-3.0264 6.78571,-6.7857 v -81.4286 c 0,-3.7593 -3.02643,-6.7857 -6.78571,-6.7857 z"
       style="display:inline;opacity:0.25;fill:#000000;fill-opacity:1;fill-rule:nonzero;stroke:none;stroke-width:0.98691386;enable-background:new" />
    <path
       inkscape:connector-curvature="0"
       id="rect2419-1"
       d="m 472.71294,452.9637 h -80.28303 c -3.70639,0 -6.69025,2.984 -6.69025,6.6906 v 80.2874 c 0,3.7066 2.98386,6.6906 6.69025,6.6906 h 80.28303 c 3.7064,0 6.69026,-2.984 6.69026,-6.6906 v -80.2874 c 0,-3.7066 -2.98386,-6.6906 -6.69026,-6.6906 z"
       style="display:inline;fill:#2e8d13;fill-opacity:1;fill-rule:nonzero;stroke:#6d6d6d;stroke-width:0.33452174;stroke-miterlimit:4;stroke-dasharray:none;stroke-opacity:1;enable-background:new" />
    <path
       sodipodi:nodetypes="sssssssss"
       inkscape:connector-curvature="0"
       id="path4843"
       d="m 390.42241,531.26581 c 0,4.25776 3.5726,7.73694 7.94468,7.73694 h 67.52973 c 4.37208,0 7.94467,-3.47918 7.94467,-7.73694 v -66.84984 c 0,-4.25776 -3.57259,-7.73694 -7.94467,-7.73694 h -67.52973 c -4.37208,0 -7.94468,3.47918 -7.94468,7.73694 z"
       style="color:#000000;font-style:normal;font-variant:normal;font-weight:normal;font-stretch:normal;font-size:medium;line-height:normal;font-family:Sans;-inkscape-font-specification:Sans;text-indent:0;text-align:start;text-decoration:none;text-decoration-line:none;letter-spacing:normal;word-spacing:normal;text-transform:none;writing-mode:lr-tb;direction:ltr;baseline-shift:baseline;text-anchor:start;display:inline;overflow:visible;visibility:visible;opacity:0.13718411;fill:#000000;fill-opacity:1;fill-rule:nonzero;stroke:none;stroke-width:2.20073462;marker:none;enable-background:accumulate" />
    <path
       style="color:#000000;font-style:normal;font-variant:normal;font-weight:normal;font-stretch:normal;font-size:medium;line-height:normal;font-family:Sans;-inkscape-font-specification:Sans;text-indent:0;text-align:start;text-decoration:none;text-decoration-line:none;letter-spacing:normal;word-spacing:normal;text-transform:none;writing-mode:lr-tb;direction:ltr;baseline-shift:baseline;text-anchor:start;display:inline;overflow:visible;visibility:visible;opacity:0.24548735;fill:#000000;fill-opacity:1;fill-rule:nonzero;stroke:none;stroke-width:2.20073462;marker:none;enable-background:accumulate"
       d="m 391.22012,531.26581 c 0,3.66959 3.06152,6.65105 6.82964,6.65105 h 68.64477 c 3.76811,0 6.82963,-2.98146 6.82963,-6.65105 v -66.84984 c 0,-3.66959 -3.06152,-6.65105 -6.82963,-6.65105 h -68.64477 c -3.76812,0 -6.82964,2.98146 -6.82964,6.65105 z"
       id="path4849"
       inkscape:connector-curvature="0"
       sodipodi:nodetypes="sssssssss" />
    <path
       style="display:inline;fill:#fdffeb;fill-opacity:1;fill-rule:nonzero;stroke:#b4b4b4;stroke-width:0.48130155;stroke-miterlimit:4;stroke-dasharray:none;stroke-opacity:1"
       d="m 398.03487,459.07042 c -3.16983,0 -5.70779,2.43458 -5.70779,5.45794 v 33.36084 c 0,-3.02335 2.53796,-5.45793 5.70779,-5.45793 h 68.67964 c 3.16984,0 5.7078,2.43458 5.7078,5.45793 v -33.36084 c 0,-3.02336 -2.53796,-5.45794 -5.7078,-5.45794 z"
       id="path4046"
       inkscape:connector-curvature="0" />
    <path
       inkscape:connector-curvature="0"
       id="path4815"
       d="m 471.88304,532.90617 h 1.11505 c 2.89207,-0.28431 5.12222,-2.6713 5.12222,-5.56516 v -66.84984 c 0,-2.89387 -2.23015,-5.28085 -5.12222,-5.56517 h -1.11505 c 2.89208,0.28432 5.12223,2.6713 5.12223,5.56517 v 66.84984 c 0,2.89386 -2.23015,5.28085 -5.12223,5.56516 z"
       style="display:inline;opacity:0.4;fill:#ffffff;fill-opacity:1;fill-rule:nonzero;stroke:none;stroke-width:1.10036731" />
    <path
       inkscape:connector-curvature="0"
       id="path4820"
       d="m 392.33516,531.84269 c 0.29196,2.81645 2.74303,4.98829 5.7146,4.98829 h 0.52267 c -2.89207,-0.28432 -5.12222,-2.6713 -5.12222,-5.56517 v -66.84984 c 0,-2.89386 2.23015,-5.28085 5.12222,-5.56517 h -0.52267 c -3.16967,0 -5.7146,2.47838 -5.7146,5.56517 v 66.84984 c 0,0.19293 -0.0195,0.38912 0,0.57688 z"
       style="display:inline;opacity:0.5;fill:#ffffff;fill-opacity:1;fill-rule:nonzero;stroke:none;stroke-width:1.10036731" />
    <path
       style="display:inline;opacity:0.4;fill:#ffffff;fill-opacity:1;fill-rule:nonzero;stroke:none;stroke-width:1.10036731"
       d="m 393.25982,532.90617 h -1.11504 c -2.89207,-0.28431 -5.12223,-2.6713 -5.12223,-5.56516 v -66.84984 c 0,-2.89387 2.23016,-5.28085 5.12223,-5.56517 h 1.11504 c -2.89207,0.28432 -5.12222,2.6713 -5.12222,5.56517 v 66.84984 c 0,2.89386 2.23015,5.28085 5.12222,5.56516 z"
       id="path3896"
       inkscape:connector-curvature="0" />
    <rect
       style="opacity:0.42599278;fill:url(#radialGradient3885);fill-opacity:1;stroke:none;stroke-width:1.10036731"
       id="rect3902"
       width="82.324768"
       height="0.98500001"
       x="392.25696"
       y="454.59326" />
    <path
       inkscape:connector-curvature="0"
       id="path3899"
       d="m 398.04534,459.03947 c -3.16983,0 -5.70779,2.43457 -5.70779,5.45793 v 5.88722 c 0,-3.02337 2.53796,-5.45794 5.70779,-5.45794 h 68.67964 c 3.16984,0 5.7078,2.43457 5.7078,5.45794 v -5.88722 c 0,-3.02336 -2.53796,-5.45793 -5.7078,-5.45793 z"
       style="display:inline;fill:#e9ffdb;fill-opacity:1;fill-rule:nonzero;stroke:#b4b4b4;stroke-width:0.48130155;stroke-miterlimit:4;stroke-dasharray:none;stroke-opacity:1" />
    <path
       style="display:inline;fill:#ffecfe;fill-opacity:1;fill-rule:nonzero;stroke:#b4b4b4;stroke-width:0.48123181;stroke-miterlimit:4;stroke-dasharray:none;stroke-opacity:1"
       d="m 398.00245,463.03946 c -3.16891,0 -5.70614,2.43457 -5.70614,5.45793 v 5.88722 c 0,-3.02337 2.53723,-5.45794 5.70614,-5.45794 h 68.65975 c 3.16891,0 5.70614,2.43457 5.70614,5.45794 v -5.88722 c 0,-3.02336 -2.53723,-5.45793 -5.70614,-5.45793 z"
       id="path3086"
       inkscape:connector-curvature="0" />
    <path
       inkscape:connector-curvature="0"
       id="path4810"
       d="m 465.05681,519.97384 h 1.63772 c 3.16967,0 5.71459,-1.94262 5.71459,-4.36213 v -52.39877 c 0,-2.41952 -2.54492,-4.36214 -5.71459,-4.36214 h -1.63772 c 2.89207,0.22286 5.12222,2.09384 5.12222,4.36214 v 52.39877 c 0,2.26828 -2.23015,4.13927 -5.12222,4.36213 z"
       style="display:inline;opacity:0.13800001;fill:#000000;fill-opacity:1;fill-rule:nonzero;stroke:none;stroke-width:1.10036731" />
    <path
       style="display:inline;opacity:0.169;fill:#000000;fill-opacity:1;fill-rule:nonzero;stroke:none;stroke-width:1.10036731"
       d="m 398.95232,536.83098 h -1.63772 c -3.16967,0 -5.71459,-2.47837 -5.71459,-5.56517 v -66.84984 c 0,-3.08679 2.54492,-5.56517 5.71459,-5.56517 h 1.63772 c -2.89207,0.28432 -5.12223,2.67131 -5.12223,5.56517 v 66.84984 c 0,2.89387 2.23016,5.28085 5.12223,5.56517 z"
       id="path3898"
       inkscape:connector-curvature="0" />
    <path
       style="display:inline;fill:#2e8d13;fill-opacity:1;fill-rule:nonzero;stroke:#6d6d6d;stroke-width:0.29431584;stroke-miterlimit:4;stroke-dasharray:none;stroke-opacity:1;enable-background:new"
       d="m 385.98245,535.64809 c 0,2.69969 3.04078,4.87309 6.8179,4.87309 h 79.54216 c 3.77712,0 6.8179,-2.1734 6.8179,-4.87309 v -50.35507 c 0,-2.69969 -3.04078,-4.87309 -6.8179,-4.87309 h -43.39309 l -4.6873,-5.58377 c -1.15188,-1.51925 -3.40441,-2.53807 -6.00118,-2.53807 h -25.46059 c -3.77712,0 -6.8179,2.1734 -6.8179,4.87309 z"
       id="path4187"
       inkscape:connector-curvature="0"
       sodipodi:nodetypes="ssssssccssss" />
    <path
       inkscape:connector-curvature="0"
       id="path4045"
       d="m 386.19653,532.22829 v 2.08111 c 0,3.25715 3.05559,5.85317 6.82963,5.85317 h 79.44674 c 3.77404,0 6.82964,-2.59602 6.82964,-5.85317 v -2.08111 c 0,3.25716 -3.0556,5.85308 -6.82964,5.85308 h -79.44674 c -3.77404,0 -6.82963,-2.59592 -6.82963,-5.85308 z"
       style="display:inline;opacity:0.83103446;fill:url(#linearGradient3891);fill-opacity:1;fill-rule:nonzero;stroke:none;stroke-width:1.07715511;enable-background:new" />
    <path
       style="opacity:0.375;fill:none;stroke:#000000;stroke-width:1.66860604px;stroke-linecap:butt;stroke-linejoin:miter;stroke-opacity:1;enable-background:new"
       d="m 391.10666,535.5643 h 83.28574 v 0 0"
       id="path4114"
       inkscape:connector-curvature="0" />
    <path
       inkscape:connector-curvature="0"
       id="path4110"
       d="m 391.10666,534.80191 h 83.28574 v 0 0"
       style="opacity:0.43500001;fill:none;stroke:#ffffff;stroke-width:1.66860604px;stroke-linecap:butt;stroke-linejoin:miter;stroke-opacity:1;enable-background:new" />
    <path
       inkscape:connector-curvature="0"
       id="path4116"
       d="m 391.10666,531.75033 h 83.28574 v 0 0"
       style="opacity:0.375;fill:none;stroke:#000000;stroke-width:1.66860604px;stroke-linecap:butt;stroke-linejoin:miter;stroke-opacity:1;enable-background:new" />
    <path
       style="opacity:0.43500001;fill:none;stroke:#ffffff;stroke-width:1.66860604px;stroke-linecap:butt;stroke-linejoin:miter;stroke-opacity:1;enable-background:new"
       d="m 391.10666,530.98805 h 83.28574 v 0 0"
       id="path4112"
       inkscape:connector-curvature="0" />
    <path
       inkscape:connector-curvature="0"
       id="path3871"
       d="m 385.9084,534.43136 v 5.82079 c 0,3.4323 2.99406,6.18985 6.70045,6.18985 h 80.28136 c 3.7064,0 6.70045,-2.75755 6.70045,-6.18985 v -5.82079 c 0,3.43231 -2.99405,6.21822 -6.70045,6.21822 h -80.28136 c -3.70639,0 -6.70045,-2.78591 -6.70045,-6.21822 z"
       style="display:inline;opacity:0.3;fill:#000000;fill-opacity:1;fill-rule:nonzero;stroke:none;stroke-width:0.95335454;enable-background:new" />
    <path
       style="display:inline;opacity:0.95052083;fill:url(#linearGradient3893);fill-opacity:1;fill-rule:nonzero;stroke:none;stroke-width:0.95335454;enable-background:new"
       d="m 385.9084,534.43136 v 5.82079 c 0,3.4323 2.99406,6.18985 6.70045,6.18985 h 80.28136 c 3.7064,0 6.70045,-2.75755 6.70045,-6.18985 v -5.82079 c 0,3.43231 -2.99405,6.21822 -6.70045,6.21822 h -80.28136 c -3.70639,0 -6.70045,-2.78591 -6.70045,-6.21822 z"
       id="path3876"
       inkscape:connector-curvature="0" />
    <path
       style="display:inline;opacity:0.33200001;fill:url(#linearGradient3391);fill-opacity:1;fill-rule:nonzero;stroke:none;stroke-width:0.95335454;enable-background:new"
       d="m 385.82353,535.3409 c 0,2.70146 3.04079,4.87626 6.8179,4.87626 49.60059,-37.34971 39.17202,-29.95936 79.54215,-60.14053 H 428.7905 l -4.6873,-5.58741 c -1.15188,-1.52029 -3.40441,-2.53966 -6.00118,-2.53966 h -25.46059 c -3.77711,0 -6.8179,2.1748 -6.8179,4.87626 z"
       id="path3355"
       inkscape:connector-curvature="0"
       sodipodi:nodetypes="sccccssss" />
    <path
       sodipodi:nodetypes="ssssssccssss"
       inkscape:connector-curvature="0"
       id="path3262"
       d="m 385.98245,535.90644 c 0,2.70146 3.04078,4.87625 6.8179,4.87625 h 79.54216 c 3.77712,0 6.8179,-2.17479 6.8179,-4.87625 v -50.38802 c 0,-2.70146 -3.04078,-4.87635 -6.8179,-4.87635 h -43.39309 l -4.6873,-5.58731 c -1.15188,-1.52029 -3.40441,-2.53975 -6.00118,-2.53975 h -25.46059 c -3.77712,0 -6.8179,2.17479 -6.8179,4.87625 z"
       style="display:inline;opacity:0.38100011;fill:url(#linearGradient3889);fill-opacity:1;fill-rule:nonzero;stroke:none;stroke-width:0.95335454;enable-background:new" />
    <rect
       width="0"
       x="352.95316"
       y="492.91455"
       height="14.668059"
       style="fill:#4d4d4d"
       id="rect4035" />
    <rect
       width="0"
       x="359.91373"
       y="515.48517"
       height="14.668059"
       style="fill:#4d4d4d"
       id="rect4035-8" />
    <rect
       width="0"
       x="361.72702"
       y="514.42444"
       height="14.668059"
       style="fill:#4d4d4d"
       id="rect4035-0" />
    <rect
       width="0"
       x="335.79691"
       y="489.1333"
       height="14.668059"
       style="fill:#4d4d4d"
       id="rect4035-06" />
    <rect
       width="0"
       x="342.75748"
       y="511.70392"
       height="14.668059"
       style="fill:#4d4d4d"
       id="rect4035-8-7" />
    <rect
       width="0"
       x="344.57077"
       y="510.64319"
       height="14.668059"
       style="fill:#4d4d4d"
       id="rect4035-0-42" />
    <rect
       width="0"
       x="335.79691"
       y="489.1333"
       height="14.668059"
       style="fill:#4d4d4d"
       id="rect4035-3" />
    <rect
       width="0"
       x="342.75748"
       y="511.70392"
       height="14.668059"
       style="fill:#4d4d4d"
       id="rect4035-8-9" />
    <rect
       width="0"
       x="344.57077"
       y="510.64319"
       height="14.668059"
       style="fill:#4d4d4d"
       id="rect4035-0-4" />
    <rect
       width="0"
       x="335.79691"
       y="489.1333"
       height="14.668059"
       style="fill:#4d4d4d"
       id="rect4035-2" />
    <rect
       width="0"
       x="342.75748"
       y="511.70392"
       height="14.668059"
       style="fill:#4d4d4d"
       id="rect4035-8-99" />
    <rect
       width="0"
       x="344.57077"
       y="510.64319"
       height="14.668059"
       style="fill:#4d4d4d"
       id="rect4035-0-43" />
    <rect
       width="0"
       x="335.79691"
       y="489.1333"
       height="14.668059"
       style="fill:#4d4d4d"
       id="rect4035-3-9" />
    <rect
       width="0"
       x="342.75748"
       y="511.70392"
       height="14.668059"
       style="fill:#4d4d4d"
       id="rect4035-8-9-9" />
    <rect
       width="0"
       x="344.57077"
       y="510.64319"
       height="14.668059"
       style="fill:#4d4d4d"
       id="rect4035-0-4-4" />
    <rect
       width="0"
       x="406.06702"
       y="510.42273"
       height="10.999983"
       style="fill:#4d4d4d"
       id="rect4035-5" />
    <rect
       width="0"
       x="401.51501"
       y="512.94183"
       height="10.999983"
       style="fill:#4d4d4d"
       id="rect4035-7" />
    <rect
       width="0"
       x="397.00723"
       y="500.52325"
       height="10.999983"
       style="fill:#4d4d4d"
       id="rect4035-9" />
    <rect
       width="0"
       x="397.85126"
       y="512.76068"
       height="10.999983"
       style="fill:#4d4d4d"
       id="rect4035-96" />
    <rect
       width="0"
       x="393.29926"
       y="515.27979"
       height="10.999983"
       style="fill:#4d4d4d"
       id="rect4035-7-0" />
    <rect
       width="0"
       x="388.79147"
       y="502.86121"
       height="10.999983"
       style="fill:#4d4d4d"
       id="rect4035-9-6" />
    <rect
       width="0"
       x="406.06702"
       y="510.42273"
       height="10.999983"
       style="fill:#4d4d4d"
       id="rect4035-1" />
    <rect
       width="0"
       x="401.51501"
       y="512.94183"
       height="10.999983"
       style="fill:#4d4d4d"
       id="rect4035-7-2" />
    <rect
       width="0"
       x="397.00723"
       y="500.52325"
       height="10.999983"
       style="fill:#4d4d4d"
       id="rect4035-9-0" />
    <rect
       width="0"
       x="397.85126"
       y="512.76068"
       height="10.999983"
       style="fill:#4d4d4d"
       id="rect4035-96-9" />
    <rect
       width="0"
       x="393.29926"
       y="515.27979"
       height="10.999983"
       style="fill:#4d4d4d"
       id="rect4035-7-0-9" />
    <rect
       width="0"
       x="388.79147"
       y="502.86121"
       height="10.999983"
       style="fill:#4d4d4d"
       id="rect4035-9-6-9" />
    <g
       id="g1124">
      <path
         style="fill:#ffffff;fill-opacity:1;stroke-width:2;stroke-linejoin:round;stroke:#000000;stroke-opacity:0.20229007;stroke-miterlimit:4;stroke-dasharray:none;opacity:1"
         id="path1126"
         d="m 433.34046,484.50577 a 16.579668,16.579668 0 0 0 -16.57967,16.57968 16.579668,16.579668 0 0 0 0.18972,2.37314 11.84262,11.84262 0 0 0 -0.18972,-0.005 11.84262,11.84262 0 0 0 -11.84262,11.84263 11.84262,11.84262 0 0 0 11.84262,11.84262 H 447.5516 A 14.211144,14.211144 0 0 0 461.76275,512.9276 14.211144,14.211144 0 0 0 449.75821,498.90149 16.579668,16.579668 0 0 0 433.34046,484.5053 Z m 0,2.36854 a 14.211144,14.211144 0 0 1 1.42019,0.0694 14.211144,14.211144 0 0 1 6.60134,2.41479 14.211144,14.211144 0 0 1 0.005,0 14.211144,14.211144 0 0 1 3.10408,2.89128 14.211144,14.211144 0 0 1 0,0.005 14.211144,14.211144 0 0 1 2.87737,6.47181 14.211144,14.211144 0 0 1 0.20346,2.35914 11.84262,11.84262 0 0 1 2.35929,0.23592 11.84262,11.84262 0 0 1 1.14263,0.29145 11.84262,11.84262 0 0 1 0.005,0 11.84262,11.84262 0 0 1 1.10563,0.40707 11.84262,11.84262 0 0 1 0.005,0 11.84262,11.84262 0 0 1 1.05934,0.51349 11.84262,11.84262 0 0 1 0.009,0.005 11.84262,11.84262 0 0 1 0.99922,0.61528 11.84262,11.84262 0 0 1 0.009,0.005 11.84262,11.84262 0 0 1 0.93444,0.7124 11.84262,11.84262 0 0 1 0.005,0.005 11.84262,11.84262 0 0 1 0.86043,0.80029 11.84262,11.84262 0 0 1 0.005,0.005 11.84262,11.84262 0 0 1 1.46645,1.85042 11.84262,11.84262 0 0 1 0.005,0.005 11.84262,11.84262 0 0 1 0.58287,1.02237 11.84262,11.84262 0 0 1 0.005,0.005 11.84262,11.84262 0 0 1 0.4811,1.07322 11.84262,11.84262 0 0 1 0.005,0.005 11.84262,11.84262 0 0 1 0.37008,1.11951 11.84262,11.84262 0 0 1 0,0.005 11.84262,11.84262 0 0 1 0.25904,1.15188 11.84262,11.84262 0 0 1 0,0.005 11.84262,11.84262 0 0 1 0.14353,1.17038 11.84262,11.84262 0 0 1 0.027,0.83631 11.84262,11.84262 0 0 1 -11.84263,11.84261 h -30.7908 a 9.4740959,9.4740959 0 0 1 -9.4741,-9.4741 9.4740959,9.4740959 0 0 1 0.0462,-0.9437 9.4740959,9.4740959 0 0 1 9.42783,-8.5304 9.4740959,9.4740959 0 0 1 0.7078,0.0325 9.4740959,9.4740959 0 0 1 0,0.005 9.4740959,9.4740959 0 0 1 2.7386,0.61988 14.211144,14.211144 0 0 1 -0.80955,-2.71546 14.211144,14.211144 0 0 1 -0.17575,-1.20279 14.211144,14.211144 0 0 1 -0.0324,-0.27292 14.211144,14.211144 0 0 1 -0.0602,-1.20288 14.211144,14.211144 0 0 1 0.0695,-1.42019 14.211144,14.211144 0 0 1 14.14175,-12.79095 z"
         inkscape:connector-curvature="0" />
      <path
         inkscape:connector-curvature="0"
         d="m 433.34046,484.50577 a 16.579668,16.579668 0 0 0 -16.57967,16.57968 16.579668,16.579668 0 0 0 0.18972,2.37314 11.84262,11.84262 0 0 0 -0.18972,-0.005 11.84262,11.84262 0 0 0 -11.84262,11.84263 11.84262,11.84262 0 0 0 11.84262,11.84262 H 447.5516 A 14.211144,14.211144 0 0 0 461.76275,512.9276 14.211144,14.211144 0 0 0 449.75821,498.90149 16.579668,16.579668 0 0 0 433.34046,484.5053 Z m 0,2.36854 a 14.211144,14.211144 0 0 1 1.42019,0.0694 14.211144,14.211144 0 0 1 6.60134,2.41479 14.211144,14.211144 0 0 1 0.005,0 14.211144,14.211144 0 0 1 3.10408,2.89128 14.211144,14.211144 0 0 1 0,0.005 14.211144,14.211144 0 0 1 2.87737,6.47181 14.211144,14.211144 0 0 1 0.20346,2.35914 11.84262,11.84262 0 0 1 2.35929,0.23592 11.84262,11.84262 0 0 1 1.14263,0.29145 11.84262,11.84262 0 0 1 0.005,0 11.84262,11.84262 0 0 1 1.10563,0.40707 11.84262,11.84262 0 0 1 0.005,0 11.84262,11.84262 0 0 1 1.05934,0.51349 11.84262,11.84262 0 0 1 0.009,0.005 11.84262,11.84262 0 0 1 0.99922,0.61528 11.84262,11.84262 0 0 1 0.009,0.005 11.84262,11.84262 0 0 1 0.93444,0.7124 11.84262,11.84262 0 0 1 0.005,0.005 11.84262,11.84262 0 0 1 0.86043,0.80029 11.84262,11.84262 0 0 1 0.005,0.005 11.84262,11.84262 0 0 1 1.46645,1.85042 11.84262,11.84262 0 0 1 0.005,0.005 11.84262,11.84262 0 0 1 0.58287,1.02237 11.84262,11.84262 0 0 1 0.005,0.005 11.84262,11.84262 0 0 1 0.4811,1.07322 11.84262,11.84262 0 0 1 0.005,0.005 11.84262,11.84262 0 0 1 0.37008,1.11951 11.84262,11.84262 0 0 1 0,0.005 11.84262,11.84262 0 0 1 0.25904,1.15188 11.84262,11.84262 0 0 1 0,0.005 11.84262,11.84262 0 0 1 0.14353,1.17038 11.84262,11.84262 0 0 1 0.027,0.83631 11.84262,11.84262 0 0 1 -11.84263,11.84261 h -30.7908 a 9.4740959,9.4740959 0 0 1 -9.4741,-9.4741 9.4740959,9.4740959 0 0 1 0.0462,-0.9437 9.4740959,9.4740959 0 0 1 9.42783,-8.5304 9.4740959,9.4740959 0 0 1 0.7078,0.0325 9.4740959,9.4740959 0 0 1 0,0.005 9.4740959,9.4740959 0 0 1 2.7386,0.61988 14.211144,14.211144 0 0 1 -0.80955,-2.71546 14.211144,14.211144 0 0 1 -0.17575,-1.20279 14.211144,14.211144 0 0 1 -0.0324,-0.27292 14.211144,14.211144 0 0 1 -0.0602,-1.20288 14.211144,14.211144 0 0 1 0.0695,-1.42019 14.211144,14.211144 0 0 1 14.14175,-12.79095 z"
         id="path4225"
         style="fill:#ffffff;fill-opacity:1;stroke-width:2.36852407;stroke-linejoin:round" />
      <path
         sodipodi:nodetypes="ccccccccccccccccccccccccccccccccccccccccccccccccc"
         inkscape:connector-curvature="0"
         id="rect1102"
         d="m 433.33843,486.87343 0.002,0.004 c -7.29876,-10e-4 -13.41156,5.52716 -14.14181,12.78929 -0.0469,0.47192 -0.0702,0.9459 -0.0697,1.42015 0.003,0.40177 0.0228,0.80325 0.0597,1.20334 0.0104,0.0909 0.0217,0.18178 0.0338,0.2725 0.0411,0.40342 0.0995,0.80491 0.17504,1.20334 0.17872,0.9297 0.44991,1.83922 0.80952,2.715 -0.87716,-0.34109 -1.80025,-0.54957 -2.73887,-0.61858 v -0.006 c -0.23554,-0.0195 -0.47173,-0.03 -0.70808,-0.0318 -4.86744,-4.3e-4 -8.94326,3.68758 -9.42787,8.53083 -0.0309,0.31332 -0.0461,0.62796 -0.0457,0.94279 2.5e-4,5.23203 4.24159,9.47336 9.47361,9.47363 h 30.79176 c 6.54042,-5e-5 11.84247,-5.3021 11.84252,-11.84253 5.5e-4,-0.2787 -0.009,-0.55733 -0.0278,-0.83538 -0.0282,-0.39264 -0.0761,-0.78363 -0.14321,-1.17152 v -0.004 c -0.067,-0.38794 -0.15329,-0.77229 -0.25857,-1.15164 v -0.006 c -0.10464,-0.37918 -0.22811,-0.75291 -0.36996,-1.11981 l -0.006,-0.004 c -0.14254,-0.36578 -0.30319,-0.72424 -0.48133,-1.07406 l -0.004,-0.004 c -0.17719,-0.35023 -0.37169,-0.69143 -0.58278,-1.02234 l -0.006,-0.006 c -0.42581,-0.66386 -0.91688,-1.28353 -1.46589,-1.84978 l -0.006,-0.006 c -0.27302,-0.28056 -0.5598,-0.54741 -0.85925,-0.79957 l -0.006,-0.006 c -0.29963,-0.25268 -0.61163,-0.49032 -0.93483,-0.71206 l -0.008,-0.006 c -0.32312,-0.22128 -0.65702,-0.4264 -1.00047,-0.61461 l -0.008,-0.004 c -0.34462,-0.18921 -0.69843,-0.36114 -1.06015,-0.51516 h -0.004 c -0.36166,-0.15351 -0.73075,-0.28893 -1.10589,-0.40575 h -0.006 c -0.37547,-0.11635 -0.7565,-0.21393 -1.14168,-0.29239 -0.77649,-0.15694 -1.56676,-0.23557 -2.35896,-0.2347 -0.002,-0.79132 -0.071,-1.58104 -0.20487,-2.36095 -0.39744,-2.36486 -1.38684,-4.59069 -2.8761,-6.47022 v -0.006 c -0.88438,-1.11394 -1.93099,-2.08882 -3.10482,-2.89202 h -0.004 c -1.96359,-1.34498 -4.23353,-2.17525 -6.60151,-2.41464 -0.47196,-0.0462 -0.94594,-0.0687 -1.42015,-0.0676 z"
         style="opacity:1;fill:#ffffff;fill-opacity:0.55839413;stroke:none;stroke-width:2.01634812;stroke-linecap:butt;stroke-linejoin:round;stroke-miterlimit:4;stroke-dasharray:4.03269599, 4.03269598999999968;stroke-dashoffset:0;stroke-opacity:1;paint-order:stroke fill markers" />
    </g>
  </g>
</svg>
