<?xml version="1.0" encoding="UTF-8" standalone="no"?>
<!-- Created with Inkscape (http://www.inkscape.org/) -->

<svg
   xmlns:dc="http://purl.org/dc/elements/1.1/"
   xmlns:cc="http://creativecommons.org/ns#"
   xmlns:rdf="http://www.w3.org/1999/02/22-rdf-syntax-ns#"
   xmlns:svg="http://www.w3.org/2000/svg"
   xmlns="http://www.w3.org/2000/svg"
   xmlns:xlink="http://www.w3.org/1999/xlink"
   xmlns:sodipodi="http://sodipodi.sourceforge.net/DTD/sodipodi-0.dtd"
   xmlns:inkscape="http://www.inkscape.org/namespaces/inkscape"
   width="96"
   height="96"
   id="svg2"
   version="1.1"
   inkscape:version="0.48.5 r10040"
   sodipodi:docname="folder-apple.svg">
  <script
     xlink:href=""
     id="script2985" />
  <defs
     id="defs4">
    <linearGradient
       id="linearGradient3832">
      <stop
         id="stop3834"
         offset="0"
         style="stop-color:#d8d8d8;stop-opacity:0;" />
      <stop
         style="stop-color:#ffffff;stop-opacity:1;"
         offset="0.05"
         id="stop3842" />
      <stop
         id="stop3846"
         offset="0.1"
         style="stop-color:#d8d8d8;stop-opacity:0;" />
      <stop
         style="stop-color:#d8d8d8;stop-opacity:0;"
         offset="0.5"
         id="stop3840" />
      <stop
         id="stop3844"
         offset="0.89999998"
         style="stop-color:#d8d8d8;stop-opacity:0;" />
      <stop
         style="stop-color:#ffffff;stop-opacity:1;"
         offset="0.94999999"
         id="stop3848" />
      <stop
         id="stop3836"
         offset="1"
         style="stop-color:#d8d8d8;stop-opacity:0;" />
    </linearGradient>
    <linearGradient
       id="linearGradient3298">
      <stop
         id="stop3300"
         offset="0"
         style="stop-color:#000000;stop-opacity:1;" />
      <stop
         style="stop-color:#ffffff;stop-opacity:1;"
         offset="0.05"
         id="stop3302" />
      <stop
         id="stop3304"
         offset="0.1"
         style="stop-color:#000000;stop-opacity:1;" />
      <stop
         style="stop-color:#000000;stop-opacity:0.49803922;"
         offset="0.5"
         id="stop3306" />
      <stop
         id="stop3308"
         offset="0.89999998"
         style="stop-color:#000000;stop-opacity:1;" />
      <stop
         style="stop-color:#ffffff;stop-opacity:1;"
         offset="0.94999999"
         id="stop3310" />
      <stop
         id="stop3312"
         offset="1"
         style="stop-color:#000000;stop-opacity:1;" />
    </linearGradient>
    <linearGradient
       id="linearGradient4188">
      <stop
         id="stop4190"
         offset="0"
         style="stop-color:#ffffff;stop-opacity:0;" />
      <stop
         style="stop-color:#ffffff;stop-opacity:1;"
         offset="0.15000001"
         id="stop4198" />
      <stop
         style="stop-color:#ffffff;stop-opacity:1;"
         offset="0.85000002"
         id="stop4196" />
      <stop
         id="stop4192"
         offset="1"
         style="stop-color:#ffffff;stop-opacity:0;" />
    </linearGradient>
    <linearGradient
       id="linearGradient4103-4">
      <stop
         style="stop-color:#bdecfb;stop-opacity:1"
         offset="0"
         id="stop4105-4" />
      <stop
         style="stop-color:#f5feff;stop-opacity:1"
         offset="1"
         id="stop4107-2" />
    </linearGradient>
    <linearGradient
       id="linearGradient4314-5">
      <stop
         style="stop-color:#ff4b00;stop-opacity:1"
         offset="0"
         id="stop4316-5" />
      <stop
         style="stop-color:#ff5500;stop-opacity:1"
         offset="1"
         id="stop4318-8" />
    </linearGradient>
    <linearGradient
       id="linearGradient3414">
      <stop
         id="stop3416"
         offset="0"
         style="stop-color:#e28929;stop-opacity:1;" />
      <stop
         style="stop-color:#ca7414;stop-opacity:1;"
         offset="1"
         id="stop3418" />
    </linearGradient>
    <linearGradient
       id="linearGradient3872">
      <stop
         id="stop3874"
         offset="0"
         style="stop-color:#e28929;stop-opacity:1;" />
      <stop
         style="stop-color:#ca7414;stop-opacity:1;"
         offset="1"
         id="stop3880" />
    </linearGradient>
    <linearGradient
       id="linearGradient3832-1">
      <stop
         id="stop3834-8"
         offset="0"
         style="stop-color:#d8d8d8;stop-opacity:0;" />
      <stop
         style="stop-color:#ffffff;stop-opacity:1;"
         offset="0.05"
         id="stop3842-5" />
      <stop
         id="stop3846-7"
         offset="0.1"
         style="stop-color:#d8d8d8;stop-opacity:0;" />
      <stop
         style="stop-color:#d8d8d8;stop-opacity:0;"
         offset="0.5"
         id="stop3840-2" />
      <stop
         id="stop3844-0"
         offset="0.89999998"
         style="stop-color:#d8d8d8;stop-opacity:0;" />
      <stop
         style="stop-color:#ffffff;stop-opacity:1;"
         offset="0.94999999"
         id="stop3848-7" />
      <stop
         id="stop3836-6"
         offset="1"
         style="stop-color:#d8d8d8;stop-opacity:0;" />
    </linearGradient>
    <linearGradient
       id="linearGradient4125-7"
       inkscape:collect="always">
      <stop
         id="stop4127-1"
         offset="0"
         style="stop-color:#ffffff;stop-opacity:1;" />
      <stop
         id="stop4129-1"
         offset="1"
         style="stop-color:#ffffff;stop-opacity:0;" />
    </linearGradient>
    <linearGradient
       id="linearGradient3298-8">
      <stop
         id="stop3300-4"
         offset="0"
         style="stop-color:#000000;stop-opacity:1;" />
      <stop
         style="stop-color:#ffffff;stop-opacity:1;"
         offset="0.05"
         id="stop3302-8" />
      <stop
         id="stop3304-2"
         offset="0.1"
         style="stop-color:#000000;stop-opacity:1;" />
      <stop
         style="stop-color:#000000;stop-opacity:0.49803922;"
         offset="0.5"
         id="stop3306-5" />
      <stop
         id="stop3308-2"
         offset="0.89999998"
         style="stop-color:#000000;stop-opacity:1;" />
      <stop
         style="stop-color:#ffffff;stop-opacity:1;"
         offset="0.94999999"
         id="stop3310-3" />
      <stop
         id="stop3312-5"
         offset="1"
         style="stop-color:#000000;stop-opacity:1;" />
    </linearGradient>
    <linearGradient
       id="linearGradient4188-8">
      <stop
         id="stop4190-9"
         offset="0"
         style="stop-color:#ffffff;stop-opacity:0;" />
      <stop
         style="stop-color:#ffffff;stop-opacity:1;"
         offset="0.15000001"
         id="stop4198-0" />
      <stop
         style="stop-color:#ffffff;stop-opacity:1;"
         offset="0.85000002"
         id="stop4196-3" />
      <stop
         id="stop4192-5"
         offset="1"
         style="stop-color:#ffffff;stop-opacity:0;" />
    </linearGradient>
    <filter
       id="filter4139-5"
       inkscape:collect="always"
       color-interpolation-filters="sRGB">
      <feGaussianBlur
         id="feGaussianBlur4141-3"
         stdDeviation="0.79365079"
         inkscape:collect="always" />
    </filter>
    <linearGradient
       inkscape:collect="always"
       id="linearGradient5020-3">
      <stop
         style="stop-color:#282828;stop-opacity:1"
         offset="0"
         id="stop5022-4" />
      <stop
         style="stop-color:#3b3c3d;stop-opacity:1"
         offset="1"
         id="stop5024-01" />
    </linearGradient>
    <linearGradient
       id="linearGradient4103">
      <stop
         style="stop-color:#c0c0c0;stop-opacity:1;"
         offset="0"
         id="stop4105" />
      <stop
         id="stop6115"
         offset="0.5"
         style="stop-color:#f4f5f5;stop-opacity:1;" />
      <stop
         style="stop-color:#c9c9c9;stop-opacity:1;"
         offset="1"
         id="stop4107" />
    </linearGradient>
    <linearGradient
       id="linearGradient3904-7"
       inkscape:collect="always">
      <stop
         id="stop3906-0"
         offset="0"
         style="stop-color:#ffffff;stop-opacity:1;" />
      <stop
         id="stop3908-9"
         offset="1"
         style="stop-color:#ffffff;stop-opacity:0;" />
    </linearGradient>
    <linearGradient
       id="linearGradient6264">
      <stop
         style="stop-color:#c0c0c0;stop-opacity:1;"
         offset="0"
         id="stop6266" />
      <stop
         id="stop6268"
         offset="0.5"
         style="stop-color:#f4f5f5;stop-opacity:1;" />
      <stop
         style="stop-color:#c9c9c9;stop-opacity:1;"
         offset="1"
         id="stop6270" />
    </linearGradient>
    <radialGradient
       inkscape:collect="always"
       xlink:href="#linearGradient4103"
       id="radialGradient6491"
       gradientUnits="userSpaceOnUse"
       gradientTransform="matrix(1.115042,0,0,1.1151028,-14.431109,-35.125064)"
       cx="48"
       cy="46.50005"
       fx="48"
       fy="46.50005"
       r="42.150002" />
    <radialGradient
       inkscape:collect="always"
       xlink:href="#linearGradient3904-7"
       id="radialGradient6493"
       gradientUnits="userSpaceOnUse"
       gradientTransform="matrix(1.6991473,0.00433809,-9.9578932e-5,0.01373135,-31.241655,-184.99247)"
       cx="44.658661"
       cy="-187.51126"
       fx="44.658661"
       fy="-187.51126"
       r="36.915546" />
    <radialGradient
       inkscape:collect="always"
       xlink:href="#linearGradient4103"
       id="radialGradient6495"
       gradientUnits="userSpaceOnUse"
       gradientTransform="matrix(0.9926597,0,0,0.77953801,-8.8629062,-15.933543)"
       cx="48.308414"
       cy="46.87989"
       fx="48.308414"
       fy="46.87989"
       r="47.087845" />
    <linearGradient
       inkscape:collect="always"
       xlink:href="#linearGradient5020-3"
       id="linearGradient6497"
       gradientUnits="userSpaceOnUse"
       x1="25"
       y1="1044.3622"
       x2="25"
       y2="1026.3622" />
    <linearGradient
       inkscape:collect="always"
       xlink:href="#linearGradient4188-8"
       id="linearGradient6499"
       gradientUnits="userSpaceOnUse"
       gradientTransform="matrix(1.115042,0,0,1.1151028,-14.431109,-37.35527)"
       x1="6.25"
       y1="80.625"
       x2="89.75"
       y2="80.625" />
    <linearGradient
       inkscape:collect="always"
       xlink:href="#linearGradient3298-8"
       id="linearGradient6501"
       gradientUnits="userSpaceOnUse"
       gradientTransform="matrix(0.9926597,0,0,0.98120132,-8.8629062,-25.387497)"
       x1="1.1209135"
       y1="84.062775"
       x2="95.495911"
       y2="84.062775" />
    <linearGradient
       inkscape:collect="always"
       xlink:href="#linearGradient4125-7"
       id="linearGradient6503"
       gradientUnits="userSpaceOnUse"
       gradientTransform="matrix(0.9926597,0,0,0.98120132,-9.383986,-26.000244)"
       x1="44.725632"
       y1="59.74646"
       x2="22.635189"
       y2="34.832417" />
    <linearGradient
       inkscape:collect="always"
       xlink:href="#linearGradient3832-1"
       id="linearGradient6505"
       gradientUnits="userSpaceOnUse"
       gradientTransform="matrix(1.115042,0,0,1.0364664,-14.431108,-28.476628)"
       x1="6.0759845"
       y1="47.472744"
       x2="89.924011"
       y2="47.472744" />
    <linearGradient
       y2="47.472744"
       x2="89.924011"
       y1="47.472744"
       x1="6.0759845"
       gradientTransform="matrix(1.115042,0,0,1.0364664,-18.24929,-32.29481)"
       gradientUnits="userSpaceOnUse"
       id="linearGradient3889"
       xlink:href="#linearGradient3832-0"
       inkscape:collect="always" />
    <linearGradient
       id="linearGradient3832-0">
      <stop
         id="stop3834-4"
         offset="0"
         style="stop-color:#d8d8d8;stop-opacity:0;" />
      <stop
         style="stop-color:#ffffff;stop-opacity:1;"
         offset="0.05"
         id="stop3842-1" />
      <stop
         id="stop3846-8"
         offset="0.1"
         style="stop-color:#d8d8d8;stop-opacity:0;" />
      <stop
         style="stop-color:#d8d8d8;stop-opacity:0;"
         offset="0.5"
         id="stop3840-9" />
      <stop
         id="stop3844-8"
         offset="0.89999998"
         style="stop-color:#d8d8d8;stop-opacity:0;" />
      <stop
         style="stop-color:#ffffff;stop-opacity:1;"
         offset="0.94999999"
         id="stop3848-0" />
      <stop
         id="stop3836-2"
         offset="1"
         style="stop-color:#d8d8d8;stop-opacity:0;" />
    </linearGradient>
    <linearGradient
       inkscape:collect="always"
       xlink:href="#linearGradient4125"
       id="linearGradient3477"
       gradientUnits="userSpaceOnUse"
       gradientTransform="matrix(0.9926597,0,0,0.98120132,-13.202168,-29.818426)"
       x1="44.725632"
       y1="59.74646"
       x2="22.635189"
       y2="34.832417" />
    <linearGradient
       id="linearGradient4125"
       inkscape:collect="always">
      <stop
         id="stop4127"
         offset="0"
         style="stop-color:#ffffff;stop-opacity:1;" />
      <stop
         id="stop4129"
         offset="1"
         style="stop-color:#ffffff;stop-opacity:0;" />
    </linearGradient>
    <linearGradient
       gradientTransform="matrix(0.9926597,0,0,0.98120132,-12.681088,-29.205679)"
       y2="84.062775"
       x2="95.495911"
       y1="84.062775"
       x1="1.1209135"
       gradientUnits="userSpaceOnUse"
       id="linearGradient3893"
       xlink:href="#linearGradient3298-7"
       inkscape:collect="always" />
    <linearGradient
       id="linearGradient3298-7">
      <stop
         id="stop3300-9"
         offset="0"
         style="stop-color:#000000;stop-opacity:1;" />
      <stop
         style="stop-color:#ffffff;stop-opacity:1;"
         offset="0.05"
         id="stop3302-1" />
      <stop
         id="stop3304-8"
         offset="0.1"
         style="stop-color:#000000;stop-opacity:1;" />
      <stop
         style="stop-color:#000000;stop-opacity:0.49803922;"
         offset="0.5"
         id="stop3306-2" />
      <stop
         id="stop3308-1"
         offset="0.89999998"
         style="stop-color:#000000;stop-opacity:1;" />
      <stop
         style="stop-color:#ffffff;stop-opacity:1;"
         offset="0.94999999"
         id="stop3310-30" />
      <stop
         id="stop3312-3"
         offset="1"
         style="stop-color:#000000;stop-opacity:1;" />
    </linearGradient>
    <linearGradient
       y2="80.625"
       x2="89.75"
       y1="80.625"
       x1="6.25"
       gradientTransform="matrix(1.115042,0,0,1.1151028,-18.249291,-41.173452)"
       gradientUnits="userSpaceOnUse"
       id="linearGradient3891"
       xlink:href="#linearGradient4188-0"
       inkscape:collect="always" />
    <linearGradient
       id="linearGradient4188-0">
      <stop
         id="stop4190-4"
         offset="0"
         style="stop-color:#ffffff;stop-opacity:0;" />
      <stop
         style="stop-color:#ffffff;stop-opacity:1;"
         offset="0.15000001"
         id="stop4198-8" />
      <stop
         style="stop-color:#ffffff;stop-opacity:1;"
         offset="0.85000002"
         id="stop4196-8" />
      <stop
         id="stop4192-2"
         offset="1"
         style="stop-color:#ffffff;stop-opacity:0;" />
    </linearGradient>
    <filter
       id="filter4139"
       inkscape:collect="always"
       color-interpolation-filters="sRGB">
      <feGaussianBlur
         id="feGaussianBlur4141"
         stdDeviation="0.79365079"
         inkscape:collect="always" />
    </filter>
    <radialGradient
       inkscape:collect="always"
       xlink:href="#linearGradient4314-5-8"
       id="radialGradient6117"
       cx="48.308414"
       cy="46.87989"
       fx="48.308414"
       fy="46.87989"
       r="47.087845"
       gradientTransform="matrix(0.9926597,0,0,0.77953801,-12.681088,-19.751725)"
       gradientUnits="userSpaceOnUse" />
    <linearGradient
       id="linearGradient4314-5-8">
      <stop
         style="stop-color:#ff4b00;stop-opacity:1"
         offset="0"
         id="stop4316-5-8" />
      <stop
         style="stop-color:#ff5500;stop-opacity:1"
         offset="1"
         id="stop4318-8-7" />
    </linearGradient>
    <radialGradient
       r="36.915546"
       fy="-187.51126"
       fx="44.658661"
       cy="-187.51126"
       cx="44.658661"
       gradientTransform="matrix(1.6991473,0.00433809,-9.9578932e-5,0.01373135,-31.241655,-184.99247)"
       gradientUnits="userSpaceOnUse"
       id="radialGradient3885"
       xlink:href="#linearGradient3904"
       inkscape:collect="always" />
    <linearGradient
       id="linearGradient3904"
       inkscape:collect="always">
      <stop
         id="stop3906"
         offset="0"
         style="stop-color:#ffffff;stop-opacity:1;" />
      <stop
         id="stop3908"
         offset="1"
         style="stop-color:#ffffff;stop-opacity:0;" />
    </linearGradient>
    <radialGradient
       gradientTransform="matrix(1.115042,0,0,1.1151028,-18.249291,-38.943246)"
       r="42.150002"
       fy="46.50005"
       fx="48"
       cy="46.50005"
       cx="48"
       gradientUnits="userSpaceOnUse"
       id="radialGradient3883"
       xlink:href="#linearGradient4314-5-8"
       inkscape:collect="always" />
    <linearGradient
       id="linearGradient6695">
      <stop
         style="stop-color:#ff4b00;stop-opacity:1"
         offset="0"
         id="stop6697" />
      <stop
         style="stop-color:#ff5500;stop-opacity:1"
         offset="1"
         id="stop6699" />
    </linearGradient>
    <radialGradient
       inkscape:collect="always"
       xlink:href="#linearGradient4314-5-8"
       id="radialGradient6936"
       gradientUnits="userSpaceOnUse"
       gradientTransform="matrix(1.115042,0,0,1.1151028,-18.249291,-38.943246)"
       cx="48"
       cy="46.50005"
       fx="48"
       fy="46.50005"
       r="42.150002" />
    <radialGradient
       inkscape:collect="always"
       xlink:href="#linearGradient3904"
       id="radialGradient6938"
       gradientUnits="userSpaceOnUse"
       gradientTransform="matrix(1.6991473,0.00433809,-9.9578932e-5,0.01373135,-31.241655,-184.99247)"
       cx="44.658661"
       cy="-187.51126"
       fx="44.658661"
       fy="-187.51126"
       r="36.915546" />
    <radialGradient
       inkscape:collect="always"
       xlink:href="#linearGradient4314-5-8"
       id="radialGradient6940"
       gradientUnits="userSpaceOnUse"
       gradientTransform="matrix(0.9926597,0,0,0.77953801,-12.681088,-19.751725)"
       cx="48.308414"
       cy="46.87989"
       fx="48.308414"
       fy="46.87989"
       r="47.087845" />
    <linearGradient
       inkscape:collect="always"
       xlink:href="#linearGradient4188-0"
       id="linearGradient6942"
       gradientUnits="userSpaceOnUse"
       gradientTransform="matrix(1.115042,0,0,1.1151028,-18.249291,-41.173452)"
       x1="6.25"
       y1="80.625"
       x2="89.75"
       y2="80.625" />
    <linearGradient
       inkscape:collect="always"
       xlink:href="#linearGradient3298-7"
       id="linearGradient6944"
       gradientUnits="userSpaceOnUse"
       gradientTransform="matrix(0.9926597,0,0,0.98120132,-12.681088,-29.205679)"
       x1="1.1209135"
       y1="84.062775"
       x2="95.495911"
       y2="84.062775" />
    <linearGradient
       inkscape:collect="always"
       xlink:href="#linearGradient4125"
       id="linearGradient6946"
       gradientUnits="userSpaceOnUse"
       gradientTransform="matrix(0.9926597,0,0,0.98120132,-13.202168,-29.818426)"
       x1="44.725632"
       y1="59.74646"
       x2="22.635189"
       y2="34.832417" />
    <linearGradient
       inkscape:collect="always"
       xlink:href="#linearGradient3832-0"
       id="linearGradient6948"
       gradientUnits="userSpaceOnUse"
       gradientTransform="matrix(1.115042,0,0,1.0364664,-18.24929,-32.29481)"
       x1="6.0759845"
       y1="47.472744"
       x2="89.924011"
       y2="47.472744" />
  </defs>
  <sodipodi:namedview
     id="base"
     pagecolor="#ffffff"
     bordercolor="#666666"
     borderopacity="1.0"
     inkscape:pageopacity="0.0"
     inkscape:pageshadow="2"
     inkscape:zoom="5.5"
     inkscape:cx="6.7272727"
     inkscape:cy="32"
     inkscape:current-layer="layer1"
     showgrid="true"
     inkscape:document-units="px"
     inkscape:grid-bbox="true"
     inkscape:showpageshadow="false"
     gridtolerance="1"
     guidetolerance="1"
     objecttolerance="1"
     inkscape:window-width="1280"
     inkscape:window-height="966"
     inkscape:window-x="0"
     inkscape:window-y="0"
     inkscape:window-maximized="1" />
  <metadata
     id="metadata7">
    <rdf:RDF>
      <cc:Work
         rdf:about="">
        <dc:format>image/svg+xml</dc:format>
        <dc:type
           rdf:resource="http://purl.org/dc/dcmitype/StillImage" />
        <dc:title></dc:title>
      </cc:Work>
    </rdf:RDF>
  </metadata>
  <g
     id="layer1"
     inkscape:label="Layer 1"
     inkscape:groupmode="layer"
     transform="translate(0,32)">
    <g
       id="g6898"
       transform="translate(12.727273,3.090909)">
      <path
         inkscape:connector-curvature="0"
         id="path3897"
         d="m 76.415584,-35.090909 -82.2857139,0 c -3.7988571,0 -6.8571431,3.058286 -6.8571431,6.857143 l 0,82.285715 c 0,3.798857 3.058286,6.857142 6.8571431,6.857142 l 82.2857139,0 c 3.798857,0 6.857143,-3.058285 6.857143,-6.857142 l 0,-82.285715 c 0,-3.798857 -3.058286,-6.857143 -6.857143,-6.857143 z"
         style="opacity:0.15;fill:#000000;fill-opacity:1;fill-rule:nonzero;stroke:none;display:inline;enable-background:new" />
      <path
         style="opacity:0.25;fill:#000000;fill-opacity:1;fill-rule:nonzero;stroke:none;display:inline;enable-background:new"
         d="m 75.987012,-34.590909 -81.4285707,0 c -3.7592858,0 -6.7857143,3.026429 -6.7857143,6.785714 l 0,81.428573 c 0,3.759285 3.0264285,6.785713 6.7857143,6.785713 l 81.4285707,0 c 3.759286,0 6.785715,-3.026428 6.785715,-6.785713 l 0,-81.428573 c 0,-3.759285 -3.026429,-6.785714 -6.785715,-6.785714 z"
         id="path3895"
         inkscape:connector-curvature="0" />
      <path
         inkscape:connector-curvature="0"
         id="rect2419-1"
         d="m 75.414237,-33.925228 -80.2830235,0 c -3.7063996,0 -6.6902525,2.984016 -6.6902525,6.690617 l 0,80.287402 c 0,3.706601 2.9838529,6.690617 6.6902525,6.690617 l 80.2830235,0 c 3.7064,0 6.690252,-2.984016 6.690252,-6.690617 l 0,-80.287402 c 0,-3.706602 -2.983852,-6.690617 -6.690252,-6.690617 z"
         style="fill:url(#radialGradient6936);fill-opacity:1;fill-rule:nonzero;stroke:#6f5327;stroke-width:0.33452174;stroke-miterlimit:4;stroke-opacity:1;stroke-dasharray:none;display:inline;enable-background:new" />
      <g
         transform="matrix(0,-1.0858858,1.115042,0,-13.789122,171.39483)"
         id="g4855"
         style="enable-background:new">
        <path
           style="font-size:medium;font-style:normal;font-variant:normal;font-weight:normal;font-stretch:normal;text-indent:0;text-align:start;text-decoration:none;line-height:normal;letter-spacing:normal;word-spacing:normal;text-transform:none;direction:ltr;block-progression:tb;writing-mode:lr-tb;text-anchor:start;baseline-shift:baseline;opacity:0.13718411;color:#000000;fill:#000000;fill-opacity:1;fill-rule:nonzero;stroke:none;stroke-width:2;marker:none;visibility:visible;display:inline;overflow:visible;enable-background:accumulate;font-family:Sans;-inkscape-font-specification:Sans"
           d="m 117.21875,6.0978533 c -3.921,0 -7.125,3.2039995 -7.125,7.1250017 l 0,60.5625 c 0,3.921001 3.204,7.125 7.125,7.125 l 61.5625,0 c 3.921,0 7.125,-3.203999 7.125,-7.125 l 0,-60.5625 c 0,-3.9210022 -3.204,-7.1250017 -7.125,-7.1250017 z"
           id="path4843"
           inkscape:connector-curvature="0"
           sodipodi:nodetypes="sssssssss" />
        <path
           sodipodi:nodetypes="sssssssss"
           inkscape:connector-curvature="0"
           id="path4849"
           d="m 117.21875,6.8132616 c -3.37935,0 -6.125,2.745652 -6.125,6.1250004 l 0,61.5625 c 0,3.379348 2.74565,6.125 6.125,6.125 l 61.5625,0 c 3.37935,0 6.125,-2.745652 6.125,-6.125 l 0,-61.5625 c 0,-3.3793484 -2.74565,-6.1250004 -6.125,-6.1250004 z"
           style="font-size:medium;font-style:normal;font-variant:normal;font-weight:normal;font-stretch:normal;text-indent:0;text-align:start;text-decoration:none;line-height:normal;letter-spacing:normal;word-spacing:normal;text-transform:none;direction:ltr;block-progression:tb;writing-mode:lr-tb;text-anchor:start;baseline-shift:baseline;opacity:0.24548735;color:#000000;fill:#000000;fill-opacity:1;fill-rule:nonzero;stroke:none;stroke-width:2;marker:none;visibility:visible;display:inline;overflow:visible;enable-background:accumulate;font-family:Sans;-inkscape-font-specification:Sans" />
        <path
           inkscape:connector-curvature="0"
           id="path4046"
           d="m 183.704,12.924914 c 0,-2.842793 -2.24202,-5.1189045 -5.02625,-5.1189045 l -30.72224,0 c 2.78423,0 5.02625,2.2761115 5.02625,5.1189045 l 0,61.59377 c 0,2.842793 -2.24202,5.118904 -5.02625,5.118904 l 30.72224,0 c 2.78423,0 5.02625,-2.276111 5.02625,-5.118904 l 0,-61.59377 z"
           style="fill:#f9fff5;fill-opacity:1;fill-rule:nonzero;stroke:#b4b4b4;stroke-width:0.43740079;stroke-miterlimit:4;stroke-opacity:1;stroke-dasharray:none;display:inline" />
        <path
           style="opacity:0.4;fill:#ffffff;fill-opacity:1;fill-rule:nonzero;stroke:none;display:inline"
           d="m 115.70813,79.153964 0,1 c 0.26183,2.593688 2.46002,4.59375 5.125,4.59375 l 61.5625,0 c 2.66498,0 4.86317,-2.000062 5.125,-4.59375 l 0,-1 c -0.26183,2.593688 -2.46002,4.59375 -5.125,4.59375 l -61.5625,0 c -2.66498,0 -4.86317,-2.000062 -5.125,-4.59375 z"
           id="path4815"
           inkscape:connector-curvature="0" />
        <path
           style="opacity:0.5;fill:#ffffff;fill-opacity:1;fill-rule:nonzero;stroke:none;display:inline"
           d="m 116.6875,7.8132616 c -2.59369,0.2618304 -4.59375,2.4600194 -4.59375,5.1250004 l 0,0.46875 c 0.26183,-2.593688 2.46002,-4.5937504 5.125,-4.5937504 l 61.5625,0 c 2.66498,0 4.86317,2.0000624 5.125,4.5937504 l 0,-0.46875 c 0,-2.842646 -2.28235,-5.1250004 -5.125,-5.1250004 l -61.5625,0 c -0.17767,0 -0.35834,-0.017455 -0.53125,0 z"
           id="path4820"
           inkscape:connector-curvature="0" />
        <path
           inkscape:connector-curvature="0"
           id="path3896"
           d="m 115.70813,8.642517 0,-1 c 0.26183,-2.593688 2.46002,-4.59375 5.125,-4.59375 l 61.5625,0 c 2.66498,0 4.86317,2.000062 5.125,4.59375 l 0,1 c -0.26183,-2.593688 -2.46002,-4.59375 -5.125,-4.59375 l -61.5625,0 c -2.66498,0 -4.86317,2.000062 -5.125,4.59375 z"
           style="opacity:0.4;fill:#ffffff;fill-opacity:1;fill-rule:nonzero;stroke:none;display:inline" />
        <rect
           transform="matrix(0,1,-1,0,0,0)"
           y="-187.82706"
           x="7.7431121"
           height="0.90709358"
           width="73.831093"
           id="rect3902"
           style="opacity:0.42599278;fill:url(#radialGradient6938);fill-opacity:1;stroke:none" />
        <path
           style="fill:#e9ffdb;fill-opacity:1;fill-rule:nonzero;stroke:#b4b4b4;stroke-width:0.43740079;stroke-miterlimit:4;stroke-opacity:1;stroke-dasharray:none;display:inline"
           d="m 183.73251,12.934304 c 0,-2.842793 -2.24202,-5.1189033 -5.02625,-5.1189033 l -5.42158,0 c 2.78424,0 5.02625,2.2761103 5.02625,5.1189033 l 0,61.593771 c 0,2.842793 -2.24201,5.118904 -5.02625,5.118904 l 5.42158,0 c 2.78423,0 5.02625,-2.276111 5.02625,-5.118904 l 0,-61.593771 z"
           id="path3899"
           inkscape:connector-curvature="0" />
        <path
           inkscape:connector-curvature="0"
           id="path3086"
           d="m 180.04889,12.895838 c 0,-2.84197 -2.24202,-5.1174216 -5.02625,-5.1174216 l -5.42158,0 c 2.78424,0 5.02625,2.2754516 5.02625,5.1174216 l 0,61.575928 c 0,2.84197 -2.24201,5.117422 -5.02625,5.117422 l 5.42158,0 c 2.78423,0 5.02625,-2.275452 5.02625,-5.117422 l 0,-61.575928 z"
           style="fill:#ffecfe;fill-opacity:1;fill-rule:nonzero;stroke:#b4b4b4;stroke-width:0.43733743;stroke-miterlimit:4;stroke-opacity:1;stroke-dasharray:none;display:inline" />
        <path
           style="opacity:0.1;fill:#000000;fill-opacity:1;fill-rule:nonzero;stroke:none;display:inline"
           d="m 127.61761,73.032012 0,1.46875 c 0,2.842646 1.78897,5.125 4.01712,5.125 l 48.2544,0 c 2.22815,0 4.01712,-2.282354 4.01712,-5.125 l 0,-1.46875 c -0.20523,2.593688 -1.92823,4.59375 -4.01712,4.59375 l -48.2544,0 c -2.08888,0 -3.81189,-2.000062 -4.01712,-4.59375 z"
           id="path4810"
           inkscape:connector-curvature="0" />
        <path
           inkscape:connector-curvature="0"
           id="path3898"
           d="m 112.09375,13.747703 0,-1.46875 c 0,-2.8426464 2.28235,-5.1250008 5.125,-5.1250008 l 61.5625,0 c 2.84265,0 5.125,2.2823544 5.125,5.1250008 l 0,1.46875 c -0.26183,-2.593688 -2.46002,-4.5937504 -5.125,-4.5937504 l -61.5625,0 c -2.66498,0 -4.86317,2.0000624 -5.125,4.5937504 z"
           style="opacity:0.1;fill:#000000;fill-opacity:1;fill-rule:nonzero;stroke:none;display:inline" />
      </g>
      <path
         style="fill:url(#radialGradient6940);fill-opacity:1;fill-rule:nonzero;stroke:#6f5327;stroke-width:0.30467615;stroke-miterlimit:4;stroke-opacity:1;stroke-dasharray:none;display:inline;enable-background:new"
         d="m -11.316254,48.126054 c 0,2.893093 3.0407839,5.222187 6.8178993,5.222187 l 79.5421647,0 c 3.777117,0 6.817898,-2.329094 6.817898,-5.222187 l 0,-53.9625981 c 0,-2.893092 -3.040781,-5.2221869 -6.817898,-5.2221869 l -43.393092,0 -4.687305,-5.983754 c -1.151872,-1.628157 -3.404408,-2.719891 -6.001172,-2.719891 l -25.4605957,0 c -3.7771154,0 -6.8178993,2.329096 -6.8178993,5.222187 z"
         id="path4187"
         inkscape:connector-curvature="0"
         sodipodi:nodetypes="ssssssccssss" />
      <g
         id="g6590"
         transform="matrix(2.578435,0,0,2.5784348,166.47904,-2582.3836)"
         style="enable-background:new">
        <path
           style="fill:#000000;fill-opacity:0.23529412"
           d="m -51.600875,1000.3618 -6.90039,3.8906 3.33594,1.8789 3.56445,-2.0058 0,-3.7637 z m 1.435549,0 0,3.7637 3.5625,2.0117 3.335938,-1.8789 -6.898438,-3.8965 z m -0.71875,4.4863 -4.001949,2.2559 -0.002,4.5137 4,2.2578 4.001996,-2.2559 0,-4.5137 -3.998047,-2.2578 z m -8.335939,0.6211 -0.002,7.7793 3.33599,-1.8769 0,-4.0235 -3.33399,-1.8789 z m 16.669924,0.01 -3.335938,1.8789 0,4.0215 3.333984,1.8789 0.002,-7.7793 z m -12.619144,7.1094 -3.33594,1.8808 6.9004,3.8965 0,-3.7637 -3.56446,-2.0136 z m 8.562503,0.01 -3.560547,2.0059 0,3.7636 6.896484,-3.8886 -3.335937,-1.8809 z"
           id="path4205"
           inkscape:connector-curvature="0" />
        <g
           id="g3836"
           transform="matrix(1.7642214,0,0,1.7331402,-87.232945,996.6228)">
          <path
             id="path3834"
             d="m 20.196803,1.5804437 -3.911406,2.2446471 1.890868,1.0839605 2.020538,-1.1574217 0,-2.1711859 z"
             style="fill:#3795bd;fill-opacity:1"
             inkscape:connector-curvature="0" />
          <path
             id="path3832"
             d="m 21.010926,1.5804437 0,2.1711859 2.018896,1.1606866 1.890868,-1.0839605 -3.909764,-2.247912 z"
             style="fill:#8fb635;fill-opacity:1"
             inkscape:connector-curvature="0" />
          <path
             id="path3830"
             d="m 15.878335,4.5270532 -0.0016,4.4892939 1.890868,-1.08396 0,-2.3213735 -1.889227,-1.0839604 z"
             style="fill:#3840be;fill-opacity:1"
             inkscape:connector-curvature="0" />
          <path
             id="path3828"
             d="m 25.327752,4.5303132 -1.890869,1.0839604 0,2.3213736 1.889227,1.0839605 0.0016,-4.4892945 z"
             style="fill:#d18c3b;fill-opacity:1"
             inkscape:connector-curvature="0" />
          <path
             id="path3826"
             d="m 18.174624,8.632712 -1.890868,1.0855932 3.911405,2.2479118 0,-2.1711858 -2.020537,-1.1623192 z"
             style="fill:#ba3a83;fill-opacity:1"
             inkscape:connector-curvature="0" />
          <path
             id="path3025"
             d="m 23.02818,8.635982 -2.018895,1.1574218 0,2.1711862 L 24.919048,9.7215762 23.02818,8.635983 z"
             style="fill:#a02c34;fill-opacity:1"
             inkscape:connector-curvature="0" />
          <path
             inkscape:connector-curvature="0"
             d="M 22.870031,5.4720502 22.869033,8.0763628 20.601152,9.3776591 18.33427,8.074643 18.335268,5.4703305 20.603149,4.1690341 z"
             id="path3029"
             style="fill:#f8c300;fill-opacity:1" />
        </g>
      </g>
      <path
         transform="matrix(1.0221218,0,0,0.94911071,-13.789122,-28.727444)"
         id="path4118"
         d="M 10.4375,12 C 6.8702763,12 4,14.307107 4,17.15625 l 0,61.6875 C 4,81.692893 6.8702763,84 10.4375,84 l 75.125,0 C 89.129721,84 92,81.692893 92,78.84375 l 0,-53.125 C 92,22.869608 89.129721,20.5625 85.5625,20.5625 l -43,-0.21875 L 38.59375,15.125 C 37.505888,13.521573 36.952461,12 34.5,12 L 10.4375,12 z M 33.75,13.875 c 1.448641,-0.0075 1.875677,-0.06824 3.375,2.40625 L 40.90625,22 83.84375,22.09375 C 87.248825,22.09375 90,24.246643 90,26.9375 l 0,50.21875 C 90,79.847107 87.248825,82 83.84375,82 l -71.6875,0 C 8.7511736,82 6,79.847107 6,77.15625 L 6,18.84375 C 6,16.152893 8.7512194,14.017581 12.15625,14 L 33.75,13.875 z"
         style="opacity:0.33064515;fill:#fffafa;fill-opacity:1;fill-rule:nonzero;stroke:none;display:inline;filter:url(#filter4139);enable-background:new"
         inkscape:connector-curvature="0" />
      <path
         inkscape:connector-curvature="0"
         id="path4045"
         d="m -11.280278,44.480382 0,2.230206 c 0,3.490504 3.0555936,6.272453 6.8296323,6.272453 l 79.4467417,0 c 3.77404,0 6.829633,-2.781949 6.829633,-6.272453 l 0,-2.230206 c 0,3.490504 -3.055593,6.272453 -6.829633,6.272453 l -79.4467417,0 c -3.7740387,0 -6.8296323,-2.781949 -6.8296323,-6.272453 z"
         style="opacity:0.82758622;fill:url(#linearGradient6942);fill-opacity:1;fill-rule:nonzero;stroke:none;display:inline;enable-background:new" />
      <path
         style="opacity:0.375;fill:none;stroke:#000000;stroke-width:1.72734308px;stroke-linecap:butt;stroke-linejoin:miter;stroke-opacity:1;enable-background:new"
         d="m -6.3701471,48.05536 83.2857431,0 0,0 0,0"
         id="path4114"
         inkscape:connector-curvature="0" />
      <path
         inkscape:connector-curvature="0"
         id="path4110"
         d="m -6.3701471,47.238432 83.2857431,0 0,0 0,0"
         style="opacity:0.43500001;fill:none;stroke:#ffffff;stroke-width:1.72734308px;stroke-linecap:butt;stroke-linejoin:miter;stroke-opacity:1;enable-background:new" />
      <path
         inkscape:connector-curvature="0"
         id="path4116"
         d="m -6.3701471,43.968209 83.2857431,0 0,0 0,0"
         style="opacity:0.375;fill:none;stroke:#000000;stroke-width:1.72734308px;stroke-linecap:butt;stroke-linejoin:miter;stroke-opacity:1;enable-background:new" />
      <path
         style="opacity:0.43500001;fill:none;stroke:#ffffff;stroke-width:1.72734308px;stroke-linecap:butt;stroke-linejoin:miter;stroke-opacity:1;enable-background:new"
         d="m -6.3701471,43.15128 83.2857431,0 0,0 0,0"
         id="path4112"
         inkscape:connector-curvature="0" />
      <path
         inkscape:connector-curvature="0"
         id="path3871"
         d="m -11.568402,46.841255 0,6.237787 c 0,3.678276 2.994053,6.633352 6.7004527,6.633352 l 80.2813523,0 c 3.7064,0 6.700453,-2.955076 6.700453,-6.633352 l 0,-6.237787 c 0,3.678277 -2.994053,6.663781 -6.700453,6.663781 l -80.2813523,0 c -3.7063997,0 -6.7004527,-2.985504 -6.7004527,-6.663781 z"
         style="opacity:0.3;fill:#000000;fill-opacity:1;fill-rule:nonzero;stroke:none;display:inline;enable-background:new" />
      <path
         style="opacity:0.5;fill:url(#linearGradient6944);fill-opacity:1;fill-rule:nonzero;stroke:none;display:inline;enable-background:new"
         d="m -11.568402,46.841255 0,6.237787 c 0,3.678276 2.994053,6.633352 6.7004527,6.633352 l 80.2813523,0 c 3.7064,0 6.700453,-2.955076 6.700453,-6.633352 l 0,-6.237787 c 0,3.678277 -2.994053,6.663781 -6.700453,6.663781 l -80.2813523,0 c -3.7063997,0 -6.7004527,-2.985504 -6.7004527,-6.663781 z"
         id="path3876"
         inkscape:connector-curvature="0" />
      <path
         style="opacity:0.29861109;fill:url(#linearGradient6946);fill-opacity:1;fill-rule:nonzero;stroke:none;display:inline;enable-background:new"
         d="m -11.837333,47.632623 c 0,2.894975 3.0407835,5.225593 6.8178992,5.225593 C 44.581156,12.832699 34.152589,20.752475 74.522727,-11.59091 l -43.393089,0 -4.687304,-5.987671 c -1.151873,-1.629223 -3.404409,-2.72167 -6.001172,-2.72167 l -25.4605958,0 c -3.7771157,0 -6.8178992,2.33062 -6.8178992,5.225604 z"
         id="path3355"
         inkscape:connector-curvature="0"
         sodipodi:nodetypes="sccccssss" />
      <path
         sodipodi:nodetypes="ssssssccssss"
         inkscape:connector-curvature="0"
         id="path3262"
         d="m -11.316253,48.262724 c 0,2.894985 3.040785,5.225603 6.8178998,5.225603 l 79.5421602,0 c 3.777118,0 6.8179,-2.330618 6.8179,-5.225603 l 0,-53.9979191 c 0,-2.894985 -3.040782,-5.2256049 -6.8179,-5.2256049 l -43.393088,0 -4.687305,-5.987674 c -1.151873,-1.629223 -3.404409,-2.721671 -6.001172,-2.721671 l -25.4605952,0 c -3.7771148,0 -6.8178998,2.330621 -6.8178998,5.225608 z"
         style="opacity:0.53793102;fill:url(#linearGradient6948);fill-opacity:1;fill-rule:nonzero;stroke:none;display:inline;enable-background:new" />
    </g>
  </g>
</svg>
