<?xml version="1.0" encoding="UTF-8" standalone="no"?>
<!-- Created with Inkscape (http://www.inkscape.org/) -->

<svg
   xmlns:dc="http://purl.org/dc/elements/1.1/"
   xmlns:cc="http://creativecommons.org/ns#"
   xmlns:rdf="http://www.w3.org/1999/02/22-rdf-syntax-ns#"
   xmlns:svg="http://www.w3.org/2000/svg"
   xmlns="http://www.w3.org/2000/svg"
   xmlns:xlink="http://www.w3.org/1999/xlink"
   xmlns:sodipodi="http://sodipodi.sourceforge.net/DTD/sodipodi-0.dtd"
   xmlns:inkscape="http://www.inkscape.org/namespaces/inkscape"
   width="96"
   height="96"
   id="svg2"
   version="1.1"
   inkscape:version="0.48.5 r10040"
   sodipodi:docname="emblem-generic.svg">
  <script
     xlink:href=""
     id="script2985" />
  <defs
     id="defs4">
    <radialGradient
       inkscape:collect="always"
       xlink:href="#linearGradient4050"
       id="radialGradient4543"
       gradientUnits="userSpaceOnUse"
       gradientTransform="matrix(1,0,0,0.04885057,-16.372364,-3.861835)"
       cx="48"
       cy="-16.128"
       fx="48"
       fy="-16.128"
       r="44.543999" />
    <linearGradient
       inkscape:collect="always"
       id="linearGradient4050">
      <stop
         style="stop-color:#ffffff;stop-opacity:1;"
         offset="0"
         id="stop4052" />
      <stop
         style="stop-color:#ffffff;stop-opacity:0;"
         offset="1"
         id="stop4054" />
    </linearGradient>
    <linearGradient
       inkscape:collect="always"
       xlink:href="#linearGradient4160"
       id="linearGradient4549"
       gradientUnits="userSpaceOnUse"
       gradientTransform="matrix(1,0,0,1.160558,-17.652363,-37.714316)"
       x1="2.5"
       y1="54.296875"
       x2="93.5"
       y2="54.296875" />
    <linearGradient
       id="linearGradient4160">
      <stop
         id="stop4170"
         offset="0"
         style="stop-color:#000000;stop-opacity:0;" />
      <stop
         style="stop-color:#000000;stop-opacity:0.96470588;"
         offset="0.03175623"
         id="stop4186" />
      <stop
         style="stop-color:#000000;stop-opacity:0;"
         offset="0.09425623"
         id="stop4182" />
      <stop
         style="stop-color:#000000;stop-opacity:0;"
         offset="0.49595019"
         id="stop4180" />
      <stop
         style="stop-color:#000000;stop-opacity:0;"
         offset="0.90525883"
         id="stop4178" />
      <stop
         id="stop4184"
         offset="0.96241152"
         style="stop-color:#000000;stop-opacity:0.98823529;" />
      <stop
         id="stop4168"
         offset="1"
         style="stop-color:#000000;stop-opacity:0;" />
    </linearGradient>
    <radialGradient
       inkscape:collect="always"
       xlink:href="#linearGradient4348"
       id="radialGradient4553"
       gradientUnits="userSpaceOnUse"
       gradientTransform="matrix(1.0772109,0,0,0.06481785,-21.162394,64.974669)"
       cx="47.699135"
       cy="55.411221"
       fx="47.699135"
       fy="55.411221"
       r="41.470058" />
    <linearGradient
       id="linearGradient4348">
      <stop
         style="stop-color:#ffffff;stop-opacity:1;"
         offset="0"
         id="stop4350" />
      <stop
         style="stop-color:#ffffff;stop-opacity:0;"
         offset="1"
         id="stop4352" />
    </linearGradient>
    <linearGradient
       gradientUnits="userSpaceOnUse"
       xlink:href="#linearGradient3737-4-3"
       id="linearGradient3146"
       y2="109.10714"
       x2="48"
       y1="6"
       x1="48"
       gradientTransform="translate(-165.48898,109.3749)" />
    <linearGradient
       id="linearGradient3737-4-3">
      <stop
         offset="0"
         style="stop-color:#ffffff;stop-opacity:1;"
         id="stop3739-4-1" />
      <stop
         offset="1"
         style="stop-color:#ffffff;stop-opacity:0"
         id="stop3741-3-0" />
    </linearGradient>
    <filter
       color-interpolation-filters="sRGB"
       inkscape:collect="always"
       id="filter4929">
      <feGaussianBlur
         inkscape:collect="always"
         stdDeviation="0.42000919"
         id="feGaussianBlur4931" />
    </filter>
    <radialGradient
       inkscape:collect="always"
       xlink:href="#linearGradient4913"
       id="radialGradient4919"
       cx="47.197647"
       cy="90.887909"
       fx="47.197647"
       fy="90.887909"
       r="41.015587"
       gradientTransform="matrix(1.0927536,0,0,0.03478262,-21.554573,13.733863)"
       gradientUnits="userSpaceOnUse" />
    <linearGradient
       id="linearGradient4913">
      <stop
         style="stop-color:#0f0a0a;stop-opacity:1;"
         offset="0"
         id="stop4915" />
      <stop
         style="stop-color:#0f0a0a;stop-opacity:0.35632184;"
         offset="1"
         id="stop4917" />
    </linearGradient>
    <filter
       color-interpolation-filters="sRGB"
       inkscape:collect="always"
       id="filter4925"
       x="-0.012381963"
       width="1.0247639"
       y="-0.38899997"
       height="1.778">
      <feGaussianBlur
         inkscape:collect="always"
         stdDeviation="0.4624656"
         id="feGaussianBlur4927" />
    </filter>
    <radialGradient
       r="41.015587"
       fy="90.887909"
       fx="47.197647"
       cy="90.887909"
       cx="47.197647"
       gradientTransform="matrix(1.0927536,0,0,0.03478262,-21.554573,13.733863)"
       gradientUnits="userSpaceOnUse"
       id="radialGradient4998"
       xlink:href="#linearGradient4913"
       inkscape:collect="always" />
    <clipPath
       id="clipPath3647">
      <path
         style="opacity:0.3;color:#000000;fill:#ff0000;fill-opacity:1;fill-rule:nonzero;stroke:none;stroke-width:4;marker:none;visibility:visible;display:inline;overflow:visible;enable-background:accumulate"
         id="path3649-0"
         inkscape:connector-curvature="0"
         d="m -100,-74 0,96 96,0 0,-96 -96,0 z m 39.875,20.3125 16.125,0 0,19.75 19.6875,0 0,16.1875 -19.6875,0 0,19.4375 -16.125,0 0,-19.4375 -19.5625,0 0,-16.1875 19.5625,0 0,-19.75 z" />
    </clipPath>
    <filter
       id="filter3651"
       color-interpolation-filters="sRGB">
      <feGaussianBlur
         stdDeviation="0.83069354"
         id="feGaussianBlur3653" />
    </filter>
    <linearGradient
       gradientTransform="matrix(4,0,0,4,4,-70)"
       gradientUnits="userSpaceOnUse"
       xlink:href="#linearGradient3972"
       id="linearGradient2862"
       y2="17.924156"
       x2="11.640054"
       y1="4.0775533"
       x1="11.640054" />
    <linearGradient
       gradientUnits="userSpaceOnUse"
       id="linearGradient3972"
       y2="17.924156"
       x2="11.640054"
       y1="4.0775533"
       x1="11.640054">
      <stop
         offset="0"
         style="stop-color:#323232;stop-opacity:1"
         id="stop3974" />
      <stop
         offset="1"
         style="stop-color:#787878;stop-opacity:1"
         id="stop3976" />
    </linearGradient>
    <filter
       id="filter3970"
       color-interpolation-filters="sRGB">
      <feGaussianBlur
         stdDeviation="0.96000046"
         id="feGaussianBlur3972" />
    </filter>
    <linearGradient
       gradientTransform="matrix(1.4883689,0,0,1.4883689,12.279154,-60.232443)"
       gradientUnits="userSpaceOnUse"
       xlink:href="#linearGradient3904-4"
       id="linearGradient4427"
       y2="45.017357"
       x2="20.758585"
       y1="1"
       x1="20.758585" />
    <linearGradient
       gradientUnits="userSpaceOnUse"
       id="linearGradient3904-4"
       y2="18.083122"
       x2="11"
       y1="3.9374998"
       x1="11">
      <stop
         offset="0"
         style="stop-color:#323232;stop-opacity:1"
         id="stop3906-1" />
      <stop
         offset="1"
         style="stop-color:#787878;stop-opacity:1"
         id="stop3908-2" />
    </linearGradient>
    <linearGradient
       gradientTransform="matrix(4,0,0,4,19.217378,-172.7173)"
       gradientUnits="userSpaceOnUse"
       xlink:href="#linearGradient3904-77"
       id="linearGradient3634"
       y2="18.083122"
       x2="11"
       y1="3.9374998"
       x1="11" />
    <linearGradient
       gradientUnits="userSpaceOnUse"
       id="linearGradient3904-77"
       y2="18.083122"
       x2="11"
       y1="3.9374998"
       x1="11">
      <stop
         offset="0"
         style="stop-color:#323232;stop-opacity:1"
         id="stop3906-8" />
      <stop
         offset="1"
         style="stop-color:#787878;stop-opacity:1"
         id="stop3908-9" />
    </linearGradient>
    <filter
       id="filter3986"
       color-interpolation-filters="sRGB">
      <feGaussianBlur
         stdDeviation="0.87773437"
         id="feGaussianBlur3988" />
    </filter>
    <linearGradient
       gradientUnits="userSpaceOnUse"
       xlink:href="#linearGradient3904"
       id="linearGradient3928"
       y2="68"
       x2="32"
       y1="36"
       x1="32" />
    <linearGradient
       gradientUnits="userSpaceOnUse"
       id="linearGradient3904"
       y2="18.083122"
       x2="11"
       y1="3.9374998"
       x1="11">
      <stop
         offset="0"
         style="stop-color:#323232;stop-opacity:1"
         id="stop3906" />
      <stop
         offset="1"
         style="stop-color:#787878;stop-opacity:1"
         id="stop3908" />
    </linearGradient>
    <linearGradient
       gradientUnits="userSpaceOnUse"
       xlink:href="#linearGradient3904"
       id="linearGradient3930"
       y2="72"
       x2="64"
       y1="24"
       x1="64" />
    <linearGradient
       gradientUnits="userSpaceOnUse"
       id="linearGradient7582"
       y2="18.083122"
       x2="11"
       y1="3.9374998"
       x1="11">
      <stop
         offset="0"
         style="stop-color:#323232;stop-opacity:1"
         id="stop7584" />
      <stop
         offset="1"
         style="stop-color:#787878;stop-opacity:1"
         id="stop7586" />
    </linearGradient>
    <clipPath
       id="clipPath2986">
      <path
         style="opacity:0.3;color:#000000;fill:#ff0000;fill-opacity:1;fill-rule:nonzero;stroke:none;stroke-width:4;marker:none;visibility:visible;display:inline;overflow:visible;enable-background:accumulate"
         id="path2988"
         inkscape:connector-curvature="0"
         d="m -100,-74 0,96 96,0 0,-96 -96,0 z m 48,16 c 17.673112,0 32,14.326888 32,32 0,17.673112 -14.326888,32 -32,32 -17.673112,0 -32,-14.326888 -32,-32 0,-17.673112 14.326888,-32 32,-32 z m 0,8 c -13.254834,0 -24,10.745166 -24,24 0,13.254832 10.745166,24 24,24 13.254832,0 24,-10.745168 24,-24 0,-13.254834 -10.745168,-24 -24,-24 z m 0,4 c 2.216,0 4,1.784 4,4 l 0,9 7.875,-4.5 c 1.919112,-1.108 4.392,-0.419112 5.5,1.5 1.108,1.919112 0.419112,4.392 -1.5,5.5 l -7.75,4.5 7.75,4.5 c 1.919112,1.108 2.608,3.580888 1.5,5.5 -1.108,1.919112 -3.580888,2.608 -5.5,1.5 L -48,-19 l 0,9 c 0,2.216 -1.784,4 -4,4 -2.216,0 -4,-1.784 -4,-4 l 0,-9 -7.875,4.5 c -1.919112,1.108 -4.392,0.419112 -5.5,-1.5 -1.108,-1.919112 -0.419112,-4.392 1.5,-5.5 l 7.75,-4.5 -7.75,-4.5 c -1.919112,-1.108 -2.608,-3.580888 -1.5,-5.5 1.108,-1.919112 3.580888,-2.608 5.5,-1.5 l 7.875,4.5 0,-9 c 0,-2.216 1.784,-4 4,-4 z" />
    </clipPath>
    <filter
       id="filter3762"
       color-interpolation-filters="sRGB">
      <feGaussianBlur
         stdDeviation="0.96"
         id="feGaussianBlur3764" />
    </filter>
    <linearGradient
       gradientTransform="matrix(4,0,0,4,4,-70)"
       gradientUnits="userSpaceOnUse"
       xlink:href="#linearGradient5004"
       id="linearGradient2975"
       y2="19.031219"
       x2="8"
       y1="3"
       x1="8" />
    <linearGradient
       gradientTransform="scale(1.1467263,0.8720476)"
       gradientUnits="userSpaceOnUse"
       id="linearGradient5004"
       y2="18.319494"
       x2="7.1904788"
       y1="6.9551144"
       x1="7.1904788">
      <stop
         offset="0"
         style="stop-color:#323232;stop-opacity:1"
         id="stop5006" />
      <stop
         offset="1"
         style="stop-color:#787878;stop-opacity:1"
         id="stop5008" />
    </linearGradient>
  </defs>
  <sodipodi:namedview
     id="base"
     pagecolor="#ffffff"
     bordercolor="#666666"
     borderopacity="1.0"
     inkscape:pageopacity="0.0"
     inkscape:pageshadow="2"
     inkscape:zoom="8.4226962"
     inkscape:cx="8.7659942"
     inkscape:cy="32"
     inkscape:current-layer="layer1"
     showgrid="true"
     inkscape:document-units="px"
     inkscape:grid-bbox="true"
     inkscape:showpageshadow="false"
     gridtolerance="1"
     guidetolerance="1"
     objecttolerance="1"
     inkscape:window-width="1280"
     inkscape:window-height="966"
     inkscape:window-x="0"
     inkscape:window-y="0"
     inkscape:window-maximized="1" />
  <metadata
     id="metadata7">
    <rdf:RDF>
      <cc:Work
         rdf:about="">
        <dc:format>image/svg+xml</dc:format>
        <dc:type
           rdf:resource="http://purl.org/dc/dcmitype/StillImage" />
        <dc:title />
      </cc:Work>
    </rdf:RDF>
  </metadata>
  <g
     id="layer1"
     inkscape:label="Layer 1"
     inkscape:groupmode="layer"
     transform="translate(0,32)">
    <g
       style="display:inline"
       id="g3637"
       transform="translate(-108.42382,-107.1358)">
      <g
         id="layer1-91"
         transform="translate(108.42382,149.1358)">
        <path
           style="opacity:0.2;color:#000000;fill:none;stroke:#ffffff;stroke-width:4;stroke-miterlimit:4;stroke-dasharray:none;marker:none;visibility:visible;display:inline;overflow:visible;filter:url(#filter3762);enable-background:accumulate"
           id="path2977"
           clip-path="url(#clipPath2986)"
           transform="translate(100,0)"
           inkscape:connector-curvature="0"
           d="m -52,-58 c -17.673112,0 -32,14.326888 -32,32 0,17.673112 14.326888,32 32,32 17.673112,0 32,-14.326888 32,-32 0,-17.673112 -14.326888,-32 -32,-32 z m 0,8 c 13.254832,0 24,10.745166 24,24 0,13.254832 -10.745168,24 -24,24 -13.254834,0 -24,-10.745168 -24,-24 0,-13.254834 10.745166,-24 24,-24 z m 0,4 c -2.216,0 -4,1.784 -4,4 l 0,9 -7.875,-4.5 c -1.919112,-1.108 -4.392,-0.419112 -5.5,1.5 -1.108,1.919112 -0.419112,4.392 1.5,5.5 l 7.75,4.5 -7.75,4.5 c -1.919112,1.108 -2.608,3.580888 -1.5,5.5 1.108,1.919112 3.580888,2.608 5.5,1.5 L -56,-19 l 0,9 c 0,2.216 1.784,4 4,4 2.216,0 4,-1.784 4,-4 l 0,-9 7.875,4.5 c 1.919112,1.108 4.392,0.419112 5.5,-1.5 1.108,-1.919112 0.419112,-4.392 -1.5,-5.5 l -7.75,-4.5 7.75,-4.5 c 1.919112,-1.108 2.608,-3.580888 1.5,-5.5 -1.108,-1.919112 -3.580888,-2.608 -5.5,-1.5 L -48,-33 l 0,-9 c 0,-2.216 -1.784,-4 -4,-4 z" />
        <path
           style="color:#000000;fill:url(#linearGradient2975);fill-opacity:1;stroke:none;stroke-width:1;marker:none;visibility:visible;display:inline;overflow:visible;enable-background:accumulate"
           id="path2932"
           inkscape:connector-curvature="0"
           d="M 48,-58 C 30.326888,-58 16,-43.673112 16,-26 16,-8.326888 30.326888,6 48,6 65.673112,6 80,-8.326888 80,-26 80,-43.673112 65.673112,-58 48,-58 z m 0,8 c 13.254832,0 24,10.745166 24,24 0,13.254832 -10.745168,24 -24,24 -13.254834,0 -24,-10.745168 -24,-24 0,-13.254834 10.745166,-24 24,-24 z m 0,4 c -2.216,0 -4,1.784 -4,4 l 0,9 -7.875,-4.5 c -1.919112,-1.108 -4.392,-0.419112 -5.5,1.5 -1.108,1.919112 -0.419112,4.392 1.5,5.5 l 7.75,4.5 -7.75,4.5 c -1.919112,1.108 -2.608,3.580888 -1.5,5.5 1.108,1.919112 3.580888,2.608 5.5,1.5 L 44,-19 l 0,9 c 0,2.216 1.784,4 4,4 2.216,0 4,-1.784 4,-4 l 0,-9 7.875,4.5 c 1.919112,1.108 4.392,0.419112 5.5,-1.5 1.108,-1.919112 0.419112,-4.392 -1.5,-5.5 l -7.75,-4.5 7.75,-4.5 c 1.919112,-1.108 2.608,-3.580888 1.5,-5.5 -1.108,-1.919112 -3.580888,-2.608 -5.5,-1.5 L 52,-33 l 0,-9 c 0,-2.216 -1.784,-4 -4,-4 z" />
        <path
           style="opacity:0.1;color:#000000;fill:#000000;fill-opacity:1;stroke:none;stroke-width:1;marker:none;visibility:visible;display:inline;overflow:visible;enable-background:accumulate"
           id="path3766"
           transform="translate(0,-74)"
           inkscape:connector-curvature="0"
           d="M 48,16 C 30.326888,16 16,30.326888 16,48 16,65.673112 30.326888,80 48,80 65.673112,80 80,65.673112 80,48 80,30.326888 65.673112,16 48,16 z m 0,1.96875 C 64.604051,17.96875 78.03125,31.395949 78.03125,48 78.03125,64.604051 64.604051,78.03125 48,78.03125 31.395949,78.03125 17.96875,64.604051 17.96875,48 17.96875,31.395949 31.395949,17.96875 48,17.96875 z m 0,4.0625 C 33.676105,22.03125 22.03125,33.676105 22.03125,48 22.03125,62.323893 33.676105,73.96875 48,73.96875 62.323893,73.96875 73.96875,62.323893 73.96875,48 73.96875,33.676105 62.323893,22.03125 48,22.03125 z M 48,24 C 61.254832,24 72,34.745166 72,48 72,61.254832 61.254832,72 48,72 34.745166,72 24,61.254832 24,48 24,34.745166 34.745166,24 48,24 z m 0,4 c -2.216,0 -4,1.784 -4,4 l 0,9 -7.875,-4.5 c -1.919112,-1.108 -4.392,-0.419112 -5.5,1.5 -1.108,1.919112 -0.419112,4.392 1.5,5.5 l 7.75,4.5 -7.75,4.5 c -1.919112,1.108 -2.608,3.580888 -1.5,5.5 1.108,1.919112 3.580888,2.608 5.5,1.5 L 44,55 l 0,9 c 0,2.216 1.784,4 4,4 2.216,0 4,-1.784 4,-4 l 0,-9 7.875,4.5 c 1.919112,1.108 4.392,0.419112 5.5,-1.5 1.108,-1.919112 0.419112,-4.392 -1.5,-5.5 l -7.75,-4.5 7.75,-4.5 c 1.919112,-1.108 2.608,-3.580888 1.5,-5.5 -1.108,-1.919112 -3.580888,-2.608 -5.5,-1.5 L 52,41 52,32 c 0,-2.216 -1.784,-4 -4,-4 z m 0,1.96875 c 1.154332,0 2.03125,0.876918 2.03125,2.03125 l 0,9 a 1.9783274,1.9783274 0 0 0 2.9375,1.71875 l 7.875,-4.5 a 1.9783274,1.9783274 0 0 0 0.03125,0 c 0.974407,-0.562574 2.207994,-0.211659 2.78125,0.78125 0.562574,0.974407 0.211659,2.207994 -0.78125,2.78125 l -7.75,4.5 a 1.9783274,1.9783274 0 0 0 0,3.4375 l 7.75,4.5 c 0.992909,0.573256 1.343824,1.806843 0.78125,2.78125 -0.573256,0.992909 -1.806843,1.343824 -2.78125,0.78125 a 1.9783274,1.9783274 0 0 0 -0.03125,0 l -7.875,-4.5 A 1.9783274,1.9783274 0 0 0 50.03125,55 l 0,9 c 0,1.154332 -0.876918,2.03125 -2.03125,2.03125 -1.154332,0 -2.03125,-0.876918 -2.03125,-2.03125 l 0,-9 a 1.9783274,1.9783274 0 0 0 -2.9375,-1.71875 l -7.875,4.5 a 1.9783274,1.9783274 0 0 0 -0.03125,0 C 34.150593,58.343824 32.917006,57.992909 32.34375,57 31.781176,56.025593 32.132091,54.792006 33.125,54.21875 l 7.75,-4.5 a 1.9783274,1.9783274 0 0 0 0,-3.4375 l -7.75,-4.5 C 32.132091,41.207994 31.781176,39.974407 32.34375,39 32.917006,38.007091 34.150593,37.656176 35.125,38.21875 a 1.9783274,1.9783274 0 0 0 0.03125,0 l 7.875,4.5 A 1.9783274,1.9783274 0 0 0 45.96875,41 l 0,-9 c 0,-1.154332 0.876918,-2.03125 2.03125,-2.03125 z" />
        <path
           style="opacity:0.2;color:#000000;fill:#000000;fill-opacity:1;stroke:none;stroke-width:1;marker:none;visibility:visible;display:inline;overflow:visible;enable-background:accumulate"
           id="path4087"
           transform="translate(0,-74)"
           inkscape:connector-curvature="0"
           d="M 48,16 C 30.326888,16 16,30.326888 16,48 16,65.673112 30.326888,80 48,80 65.673112,80 80,65.673112 80,48 80,30.326888 65.673112,16 48,16 z m 0,1.03125 C 65.118494,17.03125 78.96875,30.881506 78.96875,48 78.96875,65.118494 65.118494,78.96875 48,78.96875 30.881506,78.96875 17.03125,65.118494 17.03125,48 17.03125,30.881506 30.881506,17.03125 48,17.03125 z m 0,5.9375 C 34.190548,22.96875 22.96875,34.190548 22.96875,48 22.96875,61.80945 34.190548,73.03125 48,73.03125 61.80945,73.03125 73.03125,61.80945 73.03125,48 73.03125,34.190548 61.80945,22.96875 48,22.96875 z M 48,24 C 61.254832,24 72,34.745166 72,48 72,61.254832 61.254832,72 48,72 34.745166,72 24,61.254832 24,48 24,34.745166 34.745166,24 48,24 z m 0,4 c -2.216,0 -4,1.784 -4,4 l 0,9 -7.875,-4.5 c -1.919112,-1.108 -4.392,-0.419112 -5.5,1.5 -1.108,1.919112 -0.419112,4.392 1.5,5.5 l 7.75,4.5 -7.75,4.5 c -1.919112,1.108 -2.608,3.580888 -1.5,5.5 1.108,1.919112 3.580888,2.608 5.5,1.5 L 44,55 l 0,9 c 0,2.216 1.784,4 4,4 2.216,0 4,-1.784 4,-4 l 0,-9 7.875,4.5 c 1.919112,1.108 4.392,0.419112 5.5,-1.5 1.108,-1.919112 0.419112,-4.392 -1.5,-5.5 l -7.75,-4.5 7.75,-4.5 c 1.919112,-1.108 2.608,-3.580888 1.5,-5.5 -1.108,-1.919112 -3.580888,-2.608 -5.5,-1.5 L 52,41 52,32 c 0,-2.216 -1.784,-4 -4,-4 z m 0,1.03125 c 1.665217,0 2.96875,1.303533 2.96875,2.96875 l 0,9 A 1.0263368,1.0263368 0 0 0 52.5,41.90625 l 7.875,-4.5 a 1.0263368,1.0263368 0 0 0 0,-0.03125 c 1.429009,-0.825039 3.29442,-0.313607 4.125,1.125 0.825039,1.429009 0.313607,3.29442 -1.125,4.125 l -7.75,4.5 a 1.0263368,1.0263368 0 0 0 0,1.75 l 7.75,4.5 c 1.438607,0.83058 1.950039,2.695991 1.125,4.125 -0.83058,1.438607 -2.695991,1.950039 -4.125,1.125 a 1.0263368,1.0263368 0 0 0 0,-0.03125 l -7.875,-4.5 A 1.0263368,1.0263368 0 0 0 50.96875,55 l 0,9 c 0,1.665217 -1.303533,2.96875 -2.96875,2.96875 -1.665217,0 -2.96875,-1.303533 -2.96875,-2.96875 l 0,-9 A 1.0263368,1.0263368 0 0 0 43.5,54.09375 l -7.875,4.5 a 1.0263368,1.0263368 0 0 0 0,0.03125 C 34.195991,59.450039 32.33058,58.938607 31.5,57.5 30.674961,56.070991 31.186393,54.20558 32.625,53.375 l 7.75,-4.5 a 1.0263368,1.0263368 0 0 0 0,-1.75 l -7.75,-4.5 C 31.186393,41.79442 30.674961,39.929009 31.5,38.5 c 0.83058,-1.438607 2.695991,-1.950039 4.125,-1.125 a 1.0263368,1.0263368 0 0 0 0,0.03125 l 7.875,4.5 A 1.0263368,1.0263368 0 0 0 45.03125,41 l 0,-9 c 0,-1.665217 1.303533,-2.96875 2.96875,-2.96875 z" />
        <path
           style="opacity:0.3;color:#000000;fill:#000000;fill-opacity:1;stroke:none;stroke-width:1;marker:none;visibility:visible;display:inline;overflow:visible;enable-background:accumulate"
           id="path4100"
           transform="translate(0,-74)"
           inkscape:connector-curvature="0"
           d="m 48,16 c -17.673112,0 -32,14.326888 -32,32 0,0.166668 -0.0025,0.333936 0,0.5 C 16.266707,31.057042 30.493556,17 48,17 65.506444,17 79.733293,31.057042 80,48.5 80.002539,48.333936 80,48.166668 80,48 80,30.326888 65.673112,16 48,16 z m 0,12 c -2.216,0 -4,1.784 -4,4 l 0,1 c 0,-2.216 1.784,-4 4,-4 2.216,0 4,1.784 4,4 l 0,-1 c 0,-2.216 -1.784,-4 -4,-4 z M 33.84375,35.96875 C 32.553355,36.068737 31.3175,36.800555 30.625,38 c -0.448527,0.776871 -0.602793,1.637661 -0.5,2.46875 0.06407,-0.508465 0.228531,-0.998552 0.5,-1.46875 1.108,-1.919112 3.580888,-2.608 5.5,-1.5 L 44,42 44,41 36.125,36.5 c -0.719667,-0.4155 -1.507013,-0.591242 -2.28125,-0.53125 z m 28.3125,0 C 61.382013,35.908758 60.594667,36.0845 59.875,36.5 L 52,41 l 0,1 7.875,-4.5 c 1.919112,-1.108 4.392,-0.419112 5.5,1.5 0.271469,0.470198 0.435928,0.960285 0.5,1.46875 C 65.977793,39.637661 65.823527,38.776871 65.375,38 64.6825,36.800555 63.446645,36.068737 62.15625,35.96875 z M 24,48.5 c -0.0033,0.164783 0,0.334418 0,0.5 0,13.254832 10.745166,24 24,24 13.254832,0 24,-10.745168 24,-24 0,-0.165582 0.0033,-0.335217 0,-0.5 C 71.736161,61.526062 61.08925,72 48,72 34.910748,72 24.263839,61.526062 24,48.5 z m 15,0 -6.875,4 c -1.439334,0.831 -2.183729,2.442937 -2,4 0.158807,-1.210796 0.866986,-2.345854 2,-3 L 39.875,49 39,48.5 z m 18,0 -0.875,0.5 7.75,4.5 c 1.133014,0.654146 1.841193,1.789204 2,3 0.183729,-1.557063 -0.560666,-3.169 -2,-4 L 57,48.5 z" />
        <path
           style="opacity:0.5;color:#000000;fill:#ffffff;fill-opacity:1;stroke:none;stroke-width:1;marker:none;visibility:visible;display:inline;overflow:visible;enable-background:accumulate"
           id="path4109"
           transform="translate(0,-74)"
           inkscape:connector-curvature="0"
           d="m 48,24 c -13.254834,0 -24,10.745166 -24,24 0,0.165582 -0.0033,0.335217 0,0.5 C 24.263839,35.473936 34.910748,25 48,25 61.08925,25 71.736161,35.473936 72,48.5 72.003338,48.335217 72,48.165582 72,48 72,34.745166 61.254832,24 48,24 z M 30.125,40.5 c -0.183729,1.557063 0.560666,3.169 2,4 l 6.875,4 0.875,-0.5 -7.75,-4.5 c -1.133014,-0.654146 -1.841193,-1.789204 -2,-3 z m 35.75,0 c -0.158807,1.210796 -0.866986,2.345854 -2,3 l -7.75,4.5 0.875,0.5 6.875,-4 c 1.439334,-0.831 2.183729,-2.442937 2,-4 z M 16,48.5 c -0.0025,0.166064 0,0.333332 0,0.5 0,17.673112 14.326888,32 32,32 17.673112,0 32,-14.326888 32,-32 0,-0.166668 0.0025,-0.333936 0,-0.5 C 79.733293,65.942958 65.506444,80 48,80 30.493556,80 16.266707,65.942958 16,48.5 z m 28,6.5 -7.875,4.5 c -1.919112,1.108 -4.392,0.419112 -5.5,-1.5 -0.271469,-0.470198 -0.435928,-0.960285 -0.5,-1.46875 -0.102793,0.831089 0.05147,1.691879 0.5,2.46875 1.108,1.919112 3.580888,2.608 5.5,1.5 L 44,56 44,55 z m 8,0 0,1 7.875,4.5 c 1.919112,1.108 4.392,0.419112 5.5,-1.5 0.448527,-0.776871 0.602793,-1.637661 0.5,-2.46875 -0.06407,0.508465 -0.228531,0.998552 -0.5,1.46875 -1.108,1.919112 -3.580888,2.608 -5.5,1.5 L 52,55 z m -8,9 0,1 c 0,2.216 1.784,4 4,4 2.216,0 4,-1.784 4,-4 l 0,-1 c 0,2.216 -1.784,4 -4,4 -2.216,0 -4,-1.784 -4,-4 z" />
      </g>
    </g>
  </g>
</svg>
