<?xml version="1.0" encoding="UTF-8" standalone="no"?>
<!-- Created with Inkscape (http://www.inkscape.org/) -->

<svg
   xmlns:dc="http://purl.org/dc/elements/1.1/"
   xmlns:cc="http://creativecommons.org/ns#"
   xmlns:rdf="http://www.w3.org/1999/02/22-rdf-syntax-ns#"
   xmlns:svg="http://www.w3.org/2000/svg"
   xmlns="http://www.w3.org/2000/svg"
   xmlns:xlink="http://www.w3.org/1999/xlink"
   xmlns:sodipodi="http://sodipodi.sourceforge.net/DTD/sodipodi-0.dtd"
   xmlns:inkscape="http://www.inkscape.org/namespaces/inkscape"
   width="96"
   height="96"
   id="svg5023"
   version="1.1"
   inkscape:version="0.92.2 2405546, 2018-03-11"
   sodipodi:docname="emblem-new-user.svg">
  <defs
     id="defs5025">
    <linearGradient
       inkscape:collect="always"
       id="linearGradient1039">
      <stop
         style="stop-color:#ffffff;stop-opacity:1;"
         offset="0"
         id="stop1035" />
      <stop
         style="stop-color:#ffffff;stop-opacity:0;"
         offset="1"
         id="stop1037" />
    </linearGradient>
    <linearGradient
       inkscape:collect="always"
       id="linearGradient4133">
      <stop
         style="stop-color:#ffffff;stop-opacity:1;"
         offset="0"
         id="stop4135" />
      <stop
         style="stop-color:#ffffff;stop-opacity:0;"
         offset="1"
         id="stop4137" />
    </linearGradient>
    <linearGradient
       id="linearGradient5700">
      <stop
         id="stop5702"
         offset="0"
         style="stop-color:#ffffff;stop-opacity:0;" />
      <stop
         style="stop-color:#ffffff;stop-opacity:0.85135138;"
         offset="0.02897836"
         id="stop5704" />
      <stop
         id="stop5706"
         offset="0.05199923"
         style="stop-color:#ffffff;stop-opacity:0;" />
      <stop
         style="stop-color:#ffffff;stop-opacity:0;"
         offset="0.96583712"
         id="stop5712" />
      <stop
         style="stop-color:#ffffff;stop-opacity:0.85135138;"
         offset="0.9788844"
         id="stop5710" />
      <stop
         id="stop5708"
         offset="1"
         style="stop-color:#ffffff;stop-opacity:0;" />
    </linearGradient>
    <linearGradient
       inkscape:collect="always"
       id="linearGradient3888-8-4-8-4-6-9-0-8-7-9">
      <stop
         style="stop-color:#ffffff;stop-opacity:1;"
         offset="0"
         id="stop3890-4-7-9-5-7-0-8-8-8-6" />
      <stop
         style="stop-color:#ffffff;stop-opacity:0;"
         offset="1"
         id="stop3892-5-8-2-8-3-3-3-06-4-4" />
    </linearGradient>
    <linearGradient
       id="linearGradient3921">
      <stop
         style="stop-color:#aee2ff;stop-opacity:1"
         offset="0"
         id="stop3923" />
      <stop
         style="stop-color:#0075e5;stop-opacity:1"
         offset="1"
         id="stop3925" />
    </linearGradient>
    <linearGradient
       inkscape:collect="always"
       id="linearGradient3888-8-4-8-6">
      <stop
         style="stop-color:#ffffff;stop-opacity:1;"
         offset="0"
         id="stop3890-4-7-9-7" />
      <stop
         style="stop-color:#ffffff;stop-opacity:0;"
         offset="1"
         id="stop3892-5-8-2-7" />
    </linearGradient>
    <linearGradient
       id="linearGradient4091-0-3-0-7">
      <stop
         style="stop-color:#ffffff;stop-opacity:1;"
         offset="0"
         id="stop4093-3-6-4-2" />
      <stop
         id="stop4099-6-1-8-3"
         offset="0.80000001"
         style="stop-color:#ffffff;stop-opacity:1;" />
      <stop
         style="stop-color:#ffffff;stop-opacity:0;"
         offset="1"
         id="stop4095-1-0-7-9" />
    </linearGradient>
    <linearGradient
       id="linearGradient3832-0-6-1-1">
      <stop
         style="stop-color:#000000;stop-opacity:1;"
         offset="0"
         id="stop3834-6-3-7-1" />
      <stop
         id="stop3872-2-4"
         offset="0.1"
         style="stop-color:#000000;stop-opacity:0.58823532;" />
      <stop
         style="stop-color:#000000;stop-opacity:0.58823532;"
         offset="0.89999998"
         id="stop3844-6-2-7-6" />
      <stop
         style="stop-color:#000000;stop-opacity:1;"
         offset="1"
         id="stop3836-5-0-2-9" />
    </linearGradient>
    <linearGradient
       inkscape:collect="always"
       xlink:href="#linearGradient6139-0"
       id="linearGradient3923"
       x1="6"
       y1="47.000011"
       x2="90"
       y2="47.000011"
       gradientUnits="userSpaceOnUse" />
    <linearGradient
       id="linearGradient6139-0">
      <stop
         id="stop6141-2"
         offset="0"
         style="stop-color:#b7b7b7;stop-opacity:1;" />
      <stop
         style="stop-color:#ffffff;stop-opacity:1;"
         offset="0.25"
         id="stop6151-0" />
      <stop
         style="stop-color:#9d9d9d;stop-opacity:1;"
         offset="0.5"
         id="stop6147-1" />
      <stop
         id="stop6149-4"
         offset="0.75"
         style="stop-color:#fafafa;stop-opacity:1;" />
      <stop
         id="stop6143-4"
         offset="1"
         style="stop-color:#b7b7b7;stop-opacity:1;" />
    </linearGradient>
    <linearGradient
       inkscape:collect="always"
       xlink:href="#linearGradient6139-0"
       id="linearGradient4071"
       gradientUnits="userSpaceOnUse"
       gradientTransform="matrix(1.1353753,0,0,1.1336634,-40.037124,-46.787637)"
       x1="6"
       y1="47.000011"
       x2="90"
       y2="47.000011" />
    <radialGradient
       inkscape:collect="always"
       xlink:href="#linearGradient3888-8-4-8-6"
       id="radialGradient4073"
       gradientUnits="userSpaceOnUse"
       gradientTransform="matrix(0,1.8376047,-2.314218,0,28.839594,-321.74247)"
       cx="158"
       cy="6.2131939"
       fx="158"
       fy="6.2131939"
       r="41" />
    <radialGradient
       inkscape:collect="always"
       xlink:href="#linearGradient4091-0-3-0-7"
       id="radialGradient4075"
       gradientUnits="userSpaceOnUse"
       gradientTransform="matrix(-1.2173183,0,0,-0.99197842,72.892178,-67.902737)"
       cx="48"
       cy="-27"
       fx="48"
       fy="-27"
       r="42" />
    <linearGradient
       inkscape:collect="always"
       xlink:href="#linearGradient4213-7"
       id="linearGradient4767"
       gradientUnits="userSpaceOnUse"
       x1="2.7713892"
       y1="-28.64156"
       x2="50.527882"
       y2="14.514202" />
    <linearGradient
       inkscape:collect="always"
       id="linearGradient4213-7">
      <stop
         style="stop-color:#ffffff;stop-opacity:1;"
         offset="0"
         id="stop4215-6" />
      <stop
         style="stop-color:#ffffff;stop-opacity:0;"
         offset="1"
         id="stop4217-5" />
    </linearGradient>
    <clipPath
       clipPathUnits="userSpaceOnUse"
       id="clipPath4156-4">
      <path
         style="opacity:0.6;fill:#ffffff;fill-opacity:1;stroke:none"
         d="m 27.046336,-55.695463 -14.21366,13.321486 0.06127,0 15.653407,21.770763 10.231384,-10.546177 C 38.561832,-32.30156 27.468089,-54.819245 27.046336,-55.695463 z M 9.6468554,-39.382809 -5.2407289,-25.32124 15.987863,-7.8059573 26.372412,-18.382966 9.6468554,-39.382809 z m 31.4906096,12.951445 -9.741259,9.713584 8.944804,12.4580526 7.780753,-7.5550056 -6.984298,-14.616631 z m -49.8397109,4.378822 -13.7541661,12.9822847 26.2830181,13.84571 0.06127,-0.0617 -0.122531,-0.0617 L 13.598503,-5.4007374 -8.7022409,-22.052595 z m 38.0154159,7.400825 -9.802525,9.7752596 11.579232,9.5594001 7.62759,-7.40083 -8.669108,-11.0087257 -0.735189,-0.925104 z m 20.187073,5.6739697 -7.382526,7.2158 6.187844,8.54179 5.820249,-6.13651996 -4.625567,-9.62107004 z m -32.195166,6.32154 -9.5574606,9.49772 13.6622686,7.1849703 7.933918,-7.6783603 -12.038726,-9.00433 z m 23.311629,2.37443004 -7.10683,6.93826996 8.362778,6.9074403 5.360756,-5.6739699 -0.06127,-0.0925 -0.0919,0.12335 -6.463539,-8.20258036 z m -8.730374,8.54178036 -7.505057,7.3391599 10.353916,5.45811 c 1.397496,-1.32103 5.67514,-6.12292 5.850882,-6.32154 L 31.886332,8.2600031 z"
         id="path4158-0"
         inkscape:connector-curvature="0" />
    </clipPath>
    <linearGradient
       inkscape:collect="always"
       xlink:href="#linearGradient3888-8-4-8-4-6-9-0-8-7-9"
       id="linearGradient4112"
       gradientUnits="userSpaceOnUse"
       gradientTransform="matrix(1.1376233,0,0,1.1422854,-40.393161,-45.01103)"
       x1="45.99942"
       y1="42.063522"
       x2="76.197693"
       y2="29.454437" />
    <linearGradient
       inkscape:collect="always"
       xlink:href="#linearGradient3832-0-6-1-1"
       id="linearGradient4129"
       x1="1.5"
       y1="88.171875"
       x2="94.5"
       y2="88.171875"
       gradientUnits="userSpaceOnUse" />
    <radialGradient
       inkscape:collect="always"
       xlink:href="#linearGradient4133"
       id="radialGradient4139"
       cx="13.948145"
       cy="44.892843"
       fx="13.948145"
       fy="44.892843"
       r="43.199203"
       gradientTransform="matrix(1,0,0,0.05036905,0,39.43178)"
       gradientUnits="userSpaceOnUse" />
    <radialGradient
       inkscape:collect="always"
       xlink:href="#linearGradient4133"
       id="radialGradient4143"
       gradientUnits="userSpaceOnUse"
       gradientTransform="matrix(0.90960585,0,0,0.0504451,-11.184537,-58.258273)"
       cx="13.948145"
       cy="44.892843"
       fx="13.948145"
       fy="44.892843"
       r="43.199203" />
    <radialGradient
       inkscape:collect="always"
       xlink:href="#linearGradient3921"
       id="radialGradient888"
       cx="14.693458"
       cy="3.070312"
       fx="14.693458"
       fy="3.070312"
       r="45.056355"
       gradientTransform="matrix(0.96336272,-0.21217441,0.1961943,0.88812228,-0.0640498,3.4610751)"
       gradientUnits="userSpaceOnUse" />
    <radialGradient
       inkscape:collect="always"
       xlink:href="#linearGradient1039"
       id="radialGradient1041"
       cx="15.851378"
       cy="-17.791395"
       fx="15.851378"
       fy="-17.791395"
       r="36.438006"
       gradientTransform="matrix(1,0,0,0.91989685,0,0.49772676)"
       gradientUnits="userSpaceOnUse" />
  </defs>
  <sodipodi:namedview
     id="base"
     pagecolor="#ffffff"
     bordercolor="#666666"
     borderopacity="1.0"
     inkscape:pageopacity="0.0"
     inkscape:pageshadow="2"
     inkscape:zoom="1.5410156"
     inkscape:cx="-228.71205"
     inkscape:cy="37.550377"
     inkscape:current-layer="g1070"
     showgrid="true"
     inkscape:grid-bbox="true"
     inkscape:document-units="px"
     inkscape:window-width="1920"
     inkscape:window-height="1023"
     inkscape:window-x="0"
     inkscape:window-y="28"
     inkscape:window-maximized="1"
     showguides="true"
     inkscape:guide-bbox="true">
    <sodipodi:guide
       orientation="0,1"
       position="74,7.75"
       id="guide4116"
       inkscape:locked="false" />
  </sodipodi:namedview>
  <metadata
     id="metadata5028">
    <rdf:RDF>
      <cc:Work
         rdf:about="">
        <dc:format>image/svg+xml</dc:format>
        <dc:type
           rdf:resource="http://purl.org/dc/dcmitype/StillImage" />
        <dc:title />
      </cc:Work>
    </rdf:RDF>
  </metadata>
  <g
     id="layer1"
     inkscape:label="Layer 1"
     inkscape:groupmode="layer"
     transform="translate(0,80)">
    <g
       id="g5148"
       transform="matrix(1.0034441,0,0,1.0049592,33.489303,-38.526762)">
      <g
         id="g5766"
         transform="matrix(0.88387919,0,0,0.83393165,-3.5257642,5.0081212)" />
      <g
         id="g4060"
         transform="matrix(0.97178685,0,0,0.97178682,0.40798707,0.18323223)" />
      <g
         id="g1070"
         transform="matrix(0.99687503,0,0,0.996875,0.04519009,0.02029569)">
        <path
           inkscape:connector-curvature="0"
           id="path3288"
           d="m 55.462534,-41.268579 h -82.003291 c -3.78581,0 -6.8336,3.043193 -6.8336,6.823302 v 81.87966 c 0,3.780111 3.04779,6.823304 6.8336,6.823304 h 82.003291 c 3.785819,0 6.833607,-3.043193 6.833607,-6.823304 v -81.87966 c 0,-3.780109 -3.047788,-6.823302 -6.833607,-6.823302 z"
           style="display:inline;opacity:0.15;fill:#000000;fill-opacity:1;fill-rule:nonzero;stroke:none" />
        <path
           style="display:inline;opacity:0.15;fill:#000000;fill-opacity:1;fill-rule:nonzero;stroke:none"
           d="m 54.821885,-40.52228 h -80.721993 c -3.726657,0 -6.726825,2.995643 -6.726825,6.716688 v 80.60029 c 0,3.721047 3.000168,6.71669 6.726825,6.71669 h 80.721993 c 3.726665,0 6.726832,-2.995643 6.726832,-6.71669 v -80.60029 c 0,-3.721045 -3.000167,-6.716688 -6.726832,-6.716688 z"
           id="path4085"
           inkscape:connector-curvature="0" />
        <path
           inkscape:connector-curvature="0"
           id="rect4251-1"
           d="M 55.334401,-41.11932 H -26.41262 c -3.773988,0 -6.812252,3.033683 -6.812252,6.80198 v 81.623788 c 0,3.768297 3.038264,6.80198 6.812252,6.80198 h 81.747021 c 3.773988,0 6.812252,-3.033683 6.812252,-6.80198 V -34.31734 c 0,-3.768297 -3.038264,-6.80198 -6.812252,-6.80198 z"
           style="display:inline;fill:url(#linearGradient4071);fill-opacity:1;fill-rule:nonzero;stroke:none"
           transform="matrix(0.97178685,0,0,0.97178682,0.40798685,0.18323231)" />
        <path
           sodipodi:nodetypes="sscccsccscccsss"
           inkscape:connector-curvature="0"
           id="path3400-6"
           d="m -26.412616,-39.985656 c -3.164632,0 -5.676877,2.50846 -5.676877,5.668317 v 23.488088 7.9356441 43.7523219 c 1.215601,1.846487 3.289103,3.082147 5.676877,3.082147 h 4.541501 72.664019 4.541501 c 2.387774,0 4.461276,-1.23566 5.676877,-3.082147 V -2.8936069 -10.829251 -34.317339 c 0,-3.159857 -2.512245,-5.668317 -5.676877,-5.668317 z"
           style="display:inline;opacity:0.2;fill:url(#radialGradient4073);fill-opacity:1;fill-rule:nonzero;stroke:none;stroke-width:1.13451898"
           transform="matrix(0.97178685,0,0,0.97178682,0.40798685,0.18323231)" />
        <path
           inkscape:connector-curvature="0"
           id="path4236-5"
           d="m -26.412616,-41.11932 c -3.773988,0 -6.812252,3.033683 -6.812252,6.801981 v 17.004951 h 1.135375 v -17.004951 c 0,-3.159857 2.512245,-5.668317 5.676877,-5.668317 h 81.747021 c 3.164632,0 5.676877,2.50846 5.676877,5.668317 v 17.004951 h 1.135375 v -17.004951 c 0,-3.768298 -3.038264,-6.801981 -6.812252,-6.801981 z"
           style="display:inline;opacity:0.45;fill:url(#radialGradient4075);fill-opacity:1;fill-rule:nonzero;stroke:none;stroke-width:1.13451898"
           transform="matrix(0.97178685,0,0,0.97178682,0.40798685,0.18323231)" />
        <path
           id="path4970"
           d="M -25.620124,-37.408678 H 55.00704 c 2.627498,0 4.742774,2.063272 4.742774,4.626172 v 71.705638 c 0,2.562899 -2.115276,4.62617 -4.742774,4.62617 h -80.627164 c -2.627496,0 -4.742773,-2.063271 -4.742773,-4.62617 v -71.705638 c 0,-2.5629 2.115277,-4.626172 4.742773,-4.626172 z"
           style="color:#000000;display:inline;overflow:visible;visibility:visible;fill:url(#radialGradient888);fill-opacity:1;fill-rule:nonzero;stroke:none;stroke-width:2;marker:none;enable-background:accumulate"
           inkscape:connector-curvature="0"
           sodipodi:nodetypes="sssssssss"
           transform="matrix(0.97178685,0,0,0.97178682,0.40798685,0.18323231)" />
        <path
           style="opacity:0.87272728;fill:#ffffff;fill-opacity:0.74693879;stroke:none;stroke-width:1.56766462"
           d="m 14.333486,-27.305634 c -10.1258066,0 -19.8448992,9.996753 -19.8448992,22.3633645 0,3.7700085 2.271113,6.8712894 3.8187168,9.9916174 2.16548927,4.3661388 4.2207329,8.3347831 8.1611436,10.3954471 -0.6362027,0.711601 -1.3277673,1.629916 -2.1355408,2.964447 -1.4166171,2.340405 0.1498767,2.564194 -3.38561133,3.744562 -10.63225947,3.549709 -21.14705907,7.369011 -21.14705907,10.921643 0,1.223766 -3.362566,3.030782 -1.458417,3.900587 5.290981,2.416897 21.53953063,2.756413 35.262458,2.756413 13.881408,0 31.261349,0.08343 36.460444,-2.392359 1.790358,-0.852562 -1.159919,-3.561399 -1.770935,-4.576688 -1.818288,-3.021329 -6.839728,-6.6578 -19.792813,-8.529282 -0.831205,-0.120092 -3.640817,-1.773862 -4.896117,-5.876885 -0.419255,-1.370365 -0.938044,-2.288574 -1.510504,-2.964446 3.97338,-2.176234 5.821188,-6.067741 7.867598,-10.6777881 1.351077,-3.0436363 3.643485,-6.3151302 3.643485,-9.9173085 0,-12.3666104 -9.146143,-22.1033244 -19.271949,-22.1033244 z"
           id="path5000"
           inkscape:connector-curvature="0"
           sodipodi:nodetypes="ssscssssssssscsss"
           transform="matrix(0.97178685,0,0,0.97178682,0.40798685,0.18323231)" />
        <path
           style="fill:#444444;fill-opacity:0.73061224;stroke-width:1.56766462"
           d="m 15.218954,-28.761853 c -6.2158756,0.03626 -11.6619316,3.816708 -14.74043621,9.465425 3.18330781,-4.720127 8.15948351,-7.768554 13.75079621,-7.801174 0.01041,0 0.197888,0 0.208345,0 9.366641,0.129655 16.91831,8.699016 17.188495,19.5029329 0.0084,0.2990611 0.134192,0.5877156 0.364604,0.7801171 0.655574,0.5542093 0.937554,1.2826825 0.937554,2.2363361 0,0.969589 -0.318725,2.0712781 -0.885468,3.2244849 1.202101,-1.7550684 1.927195,-3.4569323 1.927195,-4.8887341 0,-0.9536537 -0.334067,-1.6821284 -0.989641,-2.2363361 C 32.749991,-8.6712043 32.624234,-8.9598588 32.615795,-9.2589199 32.34561,-20.062835 24.793941,-28.632195 15.4273,-28.761853 c -0.01042,0 -0.197922,0 -0.208346,0 z m -16.7197173,8.633299 c -1.9897653,3.075596 -3.2723928,6.748676 -3.6460446,10.7656191 0.2629437,-0.3234814 0.5761494,-0.6709691 0.9375545,-0.9361401 0.2297446,-3.599083 1.1589391,-6.92 2.7084901,-9.829479 z m -1.6146775,11.6497528 c -0.5252974,0.4269482 -0.8278959,0.9464085 -0.9375546,1.6122424 0.1202107,-0.093305 0.2220015,-0.1752076 0.3646053,-0.2600401 0.3036999,-0.1819528 0.5062054,-0.5327855 0.5208633,-0.8841321 0.00694,-0.1580963 0.042085,-0.310994 0.052089,-0.4680702 z m -2.8126621,0.520077 c -0.8352998,0.8911047 -1.3021598,2.0156083 -1.3021598,3.3805083 0,2.4740677 1.4017194,5.39864737 3.8543903,8.1132205 C -1.6814201,8.1840743 0.94535415,12.27387 4.0724748,15.132749 3.900478,15.828222 3.6962793,16.483032 3.3953535,17.109046 4.2034757,16.028829 4.7828726,14.808236 5.114203,13.468498 1.9870807,10.609619 -0.63969198,6.5198235 -2.3341459,1.8707538 c -2.4526692,-2.71457309 -3.8543886,-5.6391512 -3.8543886,-8.1132189 0,-0.6198949 0.086931,-1.1927823 0.2604316,-1.7162591 z m 39.7939699,7.6971586 c -0.215123,0.31948815 -0.432135,0.61816301 -0.677123,0.93614047 -0.05618,0.17424984 -0.09738,0.34709023 -0.156252,0.52007853 0.314724,-0.48285787 0.589774,-0.97678587 0.833383,-1.456219 z m -2.70849,0.46807023 C 30.93046,0.54446996 30.695301,0.85486125 30.428168,1.1946534 30.35061,1.2929419 30.311618,1.4394993 30.2719,1.558707 29.662784,3.4867154 28.904068,5.3131523 27.980102,7.019528 29.270797,4.9687174 30.355597,2.6541119 31.157369,0.20650463 Z M 29.646873,8.2677169 c -1.410824,2.2130791 -3.010105,4.1410671 -4.791945,5.6688511 0.04835,0.193831 0.09783,0.383635 0.156268,0.572087 1.742262,-1.73219 3.31737,-3.863454 4.635685,-6.2409381 z m -6.979572,5.5648361 c -0.214184,0.189039 -0.45857,0.396432 -0.677122,0.572087 -0.301598,0.242595 -0.435833,0.609613 -0.364604,0.988147 0.582261,3.034546 2.520718,7.186286 8.490075,9.777471 0.705846,0.305335 1.840679,0.533062 3.229354,0.832126 5.188081,1.120962 13.860393,3.032792 15.990508,10.97365 0.125576,0.466368 0.52884,0.780117 0.989641,0.780117 0.09002,0 0.168202,-0.02902 0.260432,-0.052 0.559224,-0.150586 0.929996,-0.741806 0.781294,-1.300196 -0.02957,-0.110233 -0.07249,-0.203839 -0.104178,-0.312046 -0.438783,-0.02369 -0.817068,-0.332653 -0.937554,-0.780118 C 48.195031,27.370933 39.522719,25.459101 34.334638,24.338139 32.945964,24.039075 31.863216,23.81135 31.157371,23.506014 25.256687,20.944639 23.274217,16.857432 22.667295,13.832559 Z m -17.6051856,4.52468 c -1.305401,1.743402 -3.3177677,3.439214 -6.3024471,4.732713 -0.6744293,0.290699 -1.7077657,0.520514 -3.0210093,0.832125 -4.6752862,1.112015 -12.117666,2.919786 -15.209214,8.997353 3.499654,-4.766097 9.9976334,-6.328917 14.2195734,-7.333104 1.3132436,-0.311609 2.34658,-0.541424 3.0210093,-0.832125 3.9355837,-1.7056 6.0920659,-4.096066 7.2920877,-6.396962 z M -21.345662,31.931275 c -0.907781,1.286406 -1.618471,2.74025 -2.083455,4.472672 -0.148662,0.558391 0.169881,1.149619 0.729209,1.300196 0.561324,0.140105 1.155559,-0.171817 1.302158,-0.728109 0.09135,-0.340298 0.198242,-0.668812 0.312519,-0.988149 -0.190838,0.0658 -0.414538,0.10455 -0.625036,0.052 -0.559329,-0.150571 -0.877868,-0.741804 -0.729209,-1.300195 0.277301,-1.033163 0.647669,-1.939372 1.093814,-2.808422 z"
           id="path3437"
           inkscape:connector-curvature="0"
           transform="matrix(0.97178685,0,0,0.97178682,0.40798685,0.18323231)" />
        <path
           id="path5008"
           d="m -21.697495,37.251251 c 0.561324,0.142644 1.135226,-0.187377 1.281827,-0.753731 2.157352,-8.182435 10.9249531,-10.303099 16.1654313,-11.572089 1.3132435,-0.317245 2.3500231,-0.568489 3.0244524,-0.864448 5.9693589,-2.63379 7.9151584,-6.870859 8.4974209,-9.962425 C 7.3427247,13.725951 7.2109159,13.342699 6.9260429,13.091455 3.8177981,10.363976 1.1954721,6.2695672 -0.45918667,1.5598221 -0.50532685,1.4256508 -0.57852941,1.3021914 -0.67491726,1.1957312 -2.8636833,-1.2230156 -4.1203957,-3.7801606 -4.1203957,-5.8177845 c 0,-1.1902125 0.4419421,-1.9886526 1.4368469,-2.5912118 0.3037014,-0.1852421 0.4942948,-0.511002 0.5089526,-0.8687029 0.4628978,-10.8460388 8.0617781,-19.3840478 17.3823322,-19.4394038 0.0099,0 0.21365,0.0148 0.224107,0.0148 9.366649,0.132007 16.917355,8.853127 17.18754,19.8524666 0.0082,0.30447 0.14246,0.5897822 0.372816,0.7856646 0.655572,0.5642328 0.961378,1.2796377 0.961378,2.2505413 0,1.7054755 -0.894354,3.8027142 -2.515495,5.9020865 -0.07759,0.10006393 -0.136164,0.21504634 -0.175908,0.33641103 C 29.586583,5.8244595 26.578865,10.591692 23.014001,13.508667 c -0.301588,0.246984 -0.444026,0.643013 -0.372799,1.028395 0.582262,3.089435 2.528054,7.324374 8.497411,9.962429 0.705855,0.310856 1.801269,0.553584 3.189931,0.858059 5.188089,1.14124 13.869813,3.055371 15.99992,11.139864 0.125575,0.474806 0.548774,0.787795 1.009561,0.787795 0.09001,0 0.180061,-0.01277 0.272285,-0.03621 0.55923,-0.153312 0.890169,-0.736698 0.74146,-1.305185 C 49.890725,26.603105 40.054917,24.437727 34.77257,23.275196 33.547291,23.004791 32.489551,22.772713 31.974333,22.542762 28.07853,20.82238 25.678221,18.201363 24.829946,14.739321 28.447159,11.581745 31.473737,6.7101848 33.203795,1.24671 c 1.836874,-2.4272658 2.846435,-4.9269203 2.846435,-7.062487 0,-1.4244197 -0.452415,-2.6125032 -1.348871,-3.5408239 C 34.202865,-21.288357 25.826932,-30.684424 15.431876,-30.835596 l -0.312073,-0.0039 c -10.2065292,0.05535 -18.6180795,9.204461 -19.3532611,20.9298509 -1.3111416,0.9794195 -1.9772155,2.3527389 -1.9772155,4.0965377 0,2.5188186 1.4012334,5.53161023 3.8539026,8.295284 1.69445235,4.7331639 4.3209615,8.8914504 7.4480806,11.8020394 -0.844086,3.474821 -3.2465044,6.104356 -7.150661,7.826862 -0.5047695,0.223562 -1.5101362,0.468417 -2.6746787,0.74947 -5.3221469,1.286023 -15.2249749,3.681351 -17.7048829,13.088063 -0.148662,0.568492 0.182132,1.14976 0.74146,1.303059 z"
           inkscape:connector-curvature="0"
           style="fill:#fefefe;fill-opacity:0.75102042;stroke-width:1.56766462"
           transform="matrix(0.97178685,0,0,0.97178682,0.40798685,0.18323231)" />
        <path
           style="color:#000000;font-style:normal;font-variant:normal;font-weight:normal;font-stretch:normal;font-size:medium;line-height:normal;font-family:Sans;-inkscape-font-specification:Sans;text-indent:0;text-align:start;text-decoration:none;text-decoration-line:none;letter-spacing:normal;word-spacing:normal;text-transform:none;writing-mode:lr-tb;direction:ltr;baseline-shift:baseline;text-anchor:start;display:inline;overflow:visible;visibility:visible;fill:#000000;fill-opacity:0.87148593;stroke:none;stroke-width:2.3755002;marker:none;enable-background:accumulate"
           d="m -24.6875,-37.8125 c -3.196096,0 -5.8125,2.600343 -5.8125,5.78125 v 70.9375 c 0,3.180909 2.616404,5.78125 5.8125,5.78125 h 78.75 c 3.196096,0 5.8125,-2.600341 5.8125,-5.78125 v -70.9375 c 0,-3.180907 -2.616404,-5.78125 -5.8125,-5.78125 z m 0,2.375 h 78.75 c 1.936246,0 3.4375,1.515549 3.4375,3.40625 v 70.9375 c 0,1.890705 -1.501254,3.40625 -3.4375,3.40625 h -78.75 c -1.936246,0 -3.4375,-1.515545 -3.4375,-3.40625 v -70.9375 c 0,-1.890701 1.501254,-3.40625 3.4375,-3.40625 z"
           id="path4989"
           inkscape:connector-curvature="0"
           transform="matrix(0.97178685,0,0,0.97178682,0.40798685,0.18323231)" />
        <path
           transform="matrix(0.99656772,0,0,0.99506527,-33.374358,-41.268579)"
           id="path4118"
           d="m 1.5,81.84375 v 6 C 1.5,91.523892 4.4761068,94.5 8.15625,94.5 h 79.6875 C 91.523893,94.5 94.5,91.523892 94.5,87.84375 v -6 C 94.5,85.523892 91.523893,88.5 87.84375,88.5 H 8.15625 C 4.4761068,88.5 1.5,85.523892 1.5,81.84375 Z"
           style="display:inline;opacity:0.65;fill:url(#linearGradient4129);fill-opacity:1;fill-rule:nonzero;stroke:none"
           inkscape:connector-curvature="0" />
        <rect
           ry="4.3518057"
           rx="0"
           y="39.517078"
           x="-29.251059"
           height="4.3518057"
           width="86.398407"
           id="rect4131"
           style="opacity:0.55;fill:url(#radialGradient4139);fill-opacity:1;stroke:none"
           transform="matrix(0.97178685,0,0,0.97178682,0.40798685,0.18323231)" />
        <rect
           transform="matrix(0,0.97178682,-0.97178685,0,0.40798685,0.18323231)"
           style="opacity:0.55;fill:url(#radialGradient4143);fill-opacity:1;stroke:none"
           id="rect4141"
           width="78.588493"
           height="4.3583765"
           x="-37.79147"
           y="-58.172848"
           rx="0"
           ry="4.3583765" />
        <path
           sodipodi:nodetypes="ssscssssssssscsss"
           inkscape:connector-curvature="0"
           id="path1033"
           d="m 14.333486,-27.305634 c -10.1258066,0 -19.8448992,9.996753 -19.8448992,22.3633645 0,3.7700085 2.271113,6.8712894 3.8187168,9.9916174 2.16548927,4.3661388 4.2207329,8.3347831 8.1611436,10.3954471 -0.6362027,0.711601 -1.3277673,1.629916 -2.1355408,2.964447 -1.4166171,2.340405 0.1498767,2.564194 -3.38561133,3.744562 -10.63225947,3.549709 -21.14705907,7.369011 -21.14705907,10.921643 0,1.223766 -3.362566,3.030782 -1.458417,3.900587 5.290981,2.416897 21.53953063,2.756413 35.262458,2.756413 13.881408,0 31.261349,0.08343 36.460444,-2.392359 1.790358,-0.852562 -1.159919,-3.561399 -1.770935,-4.576688 -1.818288,-3.021329 -6.839728,-6.6578 -19.792813,-8.529282 -0.831205,-0.120092 -3.640817,-1.773862 -4.896117,-5.876885 -0.419255,-1.370365 -0.938044,-2.288574 -1.510504,-2.964446 3.97338,-2.176234 5.821188,-6.067741 7.867598,-10.6777881 1.351077,-3.0436363 3.643485,-6.3151302 3.643485,-9.9173085 0,-12.3666104 -9.146143,-22.1033244 -19.271949,-22.1033244 z"
           style="opacity:0.87272728;fill:url(#radialGradient1041);fill-opacity:1;stroke:none;stroke-width:1.56766462"
           transform="matrix(0.97178685,0,0,0.97178682,0.40798685,0.18323231)" />
        <rect
           transform="matrix(0.9061837,0,0,0.92379606,-29.044165,-6.9439806)"
           style="opacity:0.48999999;fill:url(#linearGradient4767);fill-opacity:1;stroke:none"
           id="rect4146"
           width="92"
           height="92"
           x="2"
           y="-30"
           rx="3.9569874"
           ry="3.9569881"
           clip-path="url(#clipPath4156-4)" />
      </g>
    </g>
  </g>
</svg>
