<?xml version="1.0" encoding="UTF-8" standalone="no"?>
<!-- Created with Inkscape (http://www.inkscape.org/) -->

<svg
   xmlns:dc="http://purl.org/dc/elements/1.1/"
   xmlns:cc="http://creativecommons.org/ns#"
   xmlns:rdf="http://www.w3.org/1999/02/22-rdf-syntax-ns#"
   xmlns:svg="http://www.w3.org/2000/svg"
   xmlns="http://www.w3.org/2000/svg"
   xmlns:xlink="http://www.w3.org/1999/xlink"
   xmlns:sodipodi="http://sodipodi.sourceforge.net/DTD/sodipodi-0.dtd"
   xmlns:inkscape="http://www.inkscape.org/namespaces/inkscape"
   width="96"
   height="96"
   viewBox="0 0 96.000001 96.000004"
   version="1.1"
   id="svg1072"
   inkscape:version="0.92.1 r15371"
   sodipodi:docname="comix.svg">
  <defs
     id="defs1066">
    <linearGradient
       y2="47.000011"
       x2="90"
       y1="47.000011"
       x1="6"
       gradientTransform="matrix(1.1071428,0,0,1.1071426,-4.9939026,-3.620687)"
       gradientUnits="userSpaceOnUse"
       id="linearGradient4071"
       xlink:href="#linearGradient6139-0"
       inkscape:collect="always" />
    <linearGradient
       id="linearGradient6139-0">
      <stop
         style="stop-color:#b2bcb2;stop-opacity:1"
         offset="0"
         id="stop6141-2" />
      <stop
         id="stop6151-0"
         offset="0.25"
         style="stop-color:#ffffff;stop-opacity:1;" />
      <stop
         id="stop6147-1"
         offset="0.5"
         style="stop-color:#96a497;stop-opacity:1" />
      <stop
         style="stop-color:#fbf9f9;stop-opacity:1;"
         offset="0.75"
         id="stop6149-4" />
      <stop
         style="stop-color:#b3bcb2;stop-opacity:1"
         offset="1"
         id="stop6143-4" />
    </linearGradient>
    <linearGradient
       gradientUnits="userSpaceOnUse"
       y2="88.171875"
       x2="94.5"
       y1="88.171875"
       x1="1.5"
       id="linearGradient4129"
       xlink:href="#linearGradient3832-0-6-1-1"
       inkscape:collect="always"
       gradientTransform="translate(0.1489535,0.415026)" />
    <linearGradient
       id="linearGradient3832-0-6-1-1">
      <stop
         id="stop3834-6-3-7-1"
         offset="0"
         style="stop-color:#000000;stop-opacity:1;" />
      <stop
         style="stop-color:#000000;stop-opacity:0.58823532;"
         offset="0.1"
         id="stop3872-2-4" />
      <stop
         id="stop3844-6-2-7-6"
         offset="0.89999998"
         style="stop-color:#000000;stop-opacity:0.58823532;" />
      <stop
         id="stop3836-5-0-2-9"
         offset="1"
         style="stop-color:#000000;stop-opacity:1;" />
    </linearGradient>
    <radialGradient
       r="43.199203"
       fy="44.892841"
       fx="13.948145"
       cy="44.892841"
       cx="13.948145"
       gradientTransform="matrix(0.97513378,0,0,0.04919072,34.047649,80.581722)"
       gradientUnits="userSpaceOnUse"
       id="radialGradient7462"
       xlink:href="#linearGradient3737"
       inkscape:collect="always" />
    <linearGradient
       id="linearGradient3737">
      <stop
         id="stop3739"
         style="stop-color:#ffffff;stop-opacity:1"
         offset="0" />
      <stop
         id="stop3741"
         style="stop-color:#ffffff;stop-opacity:0"
         offset="1" />
    </linearGradient>
    <radialGradient
       r="43.199203"
       fy="44.892841"
       fx="13.948145"
       cy="44.892841"
       cx="13.948145"
       gradientTransform="matrix(0.88832663,0,0,0.04919072,31.959518,-90.31726)"
       gradientUnits="userSpaceOnUse"
       id="radialGradient7464"
       xlink:href="#linearGradient3737"
       inkscape:collect="always" />
    <linearGradient
       y2="14.514202"
       x2="50.527882"
       y1="-28.64156"
       x1="2.7713892"
       gradientUnits="userSpaceOnUse"
       id="linearGradient4767"
       xlink:href="#linearGradient3737"
       inkscape:collect="always" />
    <clipPath
       clipPathUnits="userSpaceOnUse"
       id="clipPath4156-4-1">
      <path
         style="opacity:0.6;fill:#ffffff;fill-opacity:1;stroke:none"
         d="m 27.046336,-55.695463 -14.21366,13.321486 h 0.06127 l 15.653407,21.770763 10.231384,-10.546177 C 38.561832,-32.30156 27.468089,-54.819245 27.046336,-55.695463 Z M 9.6468554,-39.382809 -5.2407289,-25.32124 15.987863,-7.8059573 26.372412,-18.382966 Z m 31.4906096,12.951445 -9.741259,9.713584 8.944804,12.4580526 7.780753,-7.5550056 z m -49.8397109,4.378822 -13.7541661,12.9822847 26.2830181,13.84571 0.06127,-0.0617 -0.122531,-0.0617 L 13.598503,-5.4007374 -8.7022409,-22.052595 Z m 38.0154159,7.400825 -9.802525,9.7752596 11.579232,9.5594001 7.62759,-7.40083 -8.669108,-11.0087257 z m 20.187073,5.6739697 -7.382526,7.2158 6.187844,8.54179 5.820249,-6.13651996 z m -32.195166,6.32154 -9.5574606,9.49772 13.6622686,7.1849703 7.933918,-7.6783603 z m 23.311629,2.37443004 -7.10683,6.93826996 8.362778,6.9074403 5.360756,-5.6739699 -0.06127,-0.0925 -0.0919,0.12335 -6.463539,-8.20258036 z m -8.730374,8.54178036 -7.505057,7.3391599 10.353916,5.45811 c 1.397496,-1.32103 5.67514,-6.12292 5.850882,-6.32154 z"
         id="path4158-0-8"
         inkscape:connector-curvature="0" />
    </clipPath>
    <clipPath
       id="clipPath11530-6">
      <path
         d="m 118.625,209.5 c 2.58333,-0.38773 5.16667,-0.51062 7.75,0.75 0,0 0.28209,5.48132 -1.625,5.625 -2.37827,0.17918 -6.125,-6.375 -6.125,-6.375 z"
         inkscape:connector-curvature="0"
         id="path11532-2"
         style="display:inline;overflow:visible;visibility:visible;fill:none;stroke:#000000;stroke-width:0.0875215;stroke-linecap:butt;stroke-linejoin:miter;stroke-miterlimit:4;stroke-dasharray:none;stroke-dashoffset:0;stroke-opacity:1;marker:none" />
    </clipPath>
    <linearGradient
       inkscape:collect="always"
       xlink:href="#linearGradient11579-4"
       id="linearGradient5285-5"
       gradientUnits="userSpaceOnUse"
       gradientTransform="matrix(-0.86543676,0.74774436,0.74774436,0.86543676,94.23431,-91.961844)"
       x1="182.1021"
       y1="187.81308"
       x2="183.49422"
       y2="191.96733" />
    <linearGradient
       id="linearGradient11579-4">
      <stop
         id="stop11581-2"
         style="stop-color:#000000;stop-opacity:1"
         offset="0" />
      <stop
         id="stop11583-1"
         style="stop-color:#000000;stop-opacity:0"
         offset="1" />
    </linearGradient>
    <clipPath
       id="clipPath1790">
      <path
         d="m 118.625,209.5 c 2.58333,-0.38773 5.16667,-0.51062 7.75,0.75 0,0 0.28209,5.48132 -1.625,5.625 -2.37827,0.17918 -6.125,-6.375 -6.125,-6.375 z"
         inkscape:connector-curvature="0"
         id="path1788"
         style="display:inline;overflow:visible;visibility:visible;fill:none;stroke:#000000;stroke-width:0.0875215;stroke-linecap:butt;stroke-linejoin:miter;stroke-miterlimit:4;stroke-dasharray:none;stroke-dashoffset:0;stroke-opacity:1;marker:none" />
    </clipPath>
    <linearGradient
       inkscape:collect="always"
       xlink:href="#linearGradient11579-4"
       id="linearGradient5287-1"
       gradientUnits="userSpaceOnUse"
       gradientTransform="matrix(0.85380785,0.69535044,-0.69535044,0.85380785,86.870018,-80.098661)"
       x1="182.1021"
       y1="187.81308"
       x2="183.49422"
       y2="191.96733" />
    <linearGradient
       inkscape:collect="always"
       xlink:href="#linearGradient3737"
       id="linearGradient5289-2"
       gradientUnits="userSpaceOnUse"
       x1="312.3125"
       y1="175.375"
       x2="316.6875"
       y2="175.375" />
    <clipPath
       id="clipPath5690-5">
      <path
         inkscape:connector-curvature="0"
         d="m 314.96875,169.4375 c -4.64751,0 -8.40625,3.75874 -8.40625,8.40625 0,4.64751 3.75874,8.40625 8.40625,8.40625 4.64751,0 8.40625,-3.75874 8.40625,-8.40625 0,-4.64751 -3.75874,-8.40625 -8.40625,-8.40625 z"
         transform="matrix(0.70852,0,0,0.709344,91.3497,52.938)"
         id="path5692-8"
         style="display:inline;overflow:visible;visibility:visible;fill:#e9b96e;fill-opacity:1;fill-rule:nonzero;stroke:url(#radialGradient5694) #000000;stroke-width:0.61879402;stroke-linecap:round;stroke-linejoin:round;stroke-miterlimit:4;stroke-dasharray:none;stroke-dashoffset:0;stroke-opacity:1;marker:none" />
    </clipPath>
    <radialGradient
       inkscape:collect="always"
       xlink:href="#linearGradient3737"
       id="radialGradient5291-8"
       gradientUnits="userSpaceOnUse"
       gradientTransform="matrix(0.33853402,0,0,0.18079585,46.680807,174.25056)"
       cx="140.19348"
       cy="273.69705"
       fx="140.19348"
       fy="273.69705"
       r="81.986084" />
    <radialGradient
       inkscape:collect="always"
       xlink:href="#linearGradient6499-0"
       id="radialGradient5293-0"
       gradientUnits="userSpaceOnUse"
       gradientTransform="matrix(5.2169068,0,-1.8961885e-4,-5.6316712,-1549.146,1178.0608)"
       cx="315.07254"
       cy="169.69044"
       fx="315.07254"
       fy="169.69044"
       r="8.6255913" />
    <linearGradient
       id="linearGradient6499-0">
      <stop
         id="stop6501-2"
         style="stop-color:#ffffff;stop-opacity:1"
         offset="0" />
      <stop
         id="stop6503-0"
         style="stop-color:#a7cc5c;stop-opacity:0.24193548"
         offset="1" />
    </linearGradient>
    <radialGradient
       inkscape:collect="always"
       xlink:href="#linearGradient11579-4"
       id="radialGradient5295-5"
       gradientUnits="userSpaceOnUse"
       gradientTransform="matrix(-0.35243819,0.3536772,0.25146574,0.21253275,117.72375,95.775528)"
       cx="177.5556"
       cy="69.5896"
       fx="177.5556"
       fy="69.5896"
       r="9.4960012" />
    <radialGradient
       inkscape:collect="always"
       xlink:href="#linearGradient11579-4"
       id="radialGradient5297-6"
       gradientUnits="userSpaceOnUse"
       gradientTransform="matrix(-0.42567967,0.45078909,0.32424097,0.28822875,125.26662,73.999696)"
       cx="177.5556"
       cy="69.5896"
       fx="177.5556"
       fy="69.5896"
       r="9.4960012" />
    <radialGradient
       inkscape:collect="always"
       xlink:href="#linearGradient6820-0"
       id="radialGradient5299-4"
       gradientUnits="userSpaceOnUse"
       gradientTransform="matrix(-3.9564777,3.7718441,15.708979,14.473367,-1348.1295,-3496.0057)"
       cx="318.60828"
       cy="170.59293"
       fx="318.60828"
       fy="170.59293"
       r="0.82419753" />
    <linearGradient
       id="linearGradient6820-0">
      <stop
         id="stop6822-0"
         style="stop-color:#063a42;stop-opacity:1;"
         offset="0" />
      <stop
         id="stop6824-4"
         style="stop-color:#131f23;stop-opacity:1;"
         offset="1" />
    </linearGradient>
    <linearGradient
       inkscape:collect="always"
       xlink:href="#linearGradient6597-7"
       id="linearGradient5301-3"
       gradientUnits="userSpaceOnUse"
       x1="169.5137"
       y1="55.164879"
       x2="180.91669"
       y2="57.766956" />
    <linearGradient
       id="linearGradient6597-7">
      <stop
         id="stop6599-7"
         style="stop-color:#eeeeec;stop-opacity:0"
         offset="0" />
      <stop
         id="stop6605-7"
         style="stop-color:#ffffff;stop-opacity:1"
         offset="0.52820206" />
      <stop
         id="stop6601-3"
         style="stop-color:#eeeeec;stop-opacity:0"
         offset="1" />
    </linearGradient>
    <filter
       style="color-interpolation-filters:sRGB"
       x="-0.31940347"
       y="-0.062722519"
       width="1.6388071"
       height="1.125445"
       id="filter6531-9">
      <feGaussianBlur
         stdDeviation="0.6221794"
         id="feGaussianBlur6533-2" />
    </filter>
    <radialGradient
       inkscape:collect="always"
       xlink:href="#linearGradient11579-4"
       id="radialGradient5305-5"
       gradientUnits="userSpaceOnUse"
       gradientTransform="matrix(0.35073526,0.33746706,-0.21535531,0.23565138,69.124739,96.606807)"
       cx="177.5556"
       cy="69.5896"
       fx="177.5556"
       fy="69.5896"
       r="9.4960012" />
    <radialGradient
       inkscape:collect="always"
       xlink:href="#linearGradient11579-4"
       id="radialGradient5307-5"
       gradientUnits="userSpaceOnUse"
       gradientTransform="matrix(0.44856765,0.43067475,-0.29168291,0.31756334,57.456502,75.529647)"
       cx="177.5556"
       cy="69.5896"
       fx="177.5556"
       fy="69.5896"
       r="9.4960012" />
    <radialGradient
       inkscape:collect="always"
       xlink:href="#linearGradient6820-0"
       id="radialGradient5309-4"
       gradientUnits="userSpaceOnUse"
       gradientTransform="matrix(4.4134844,3.4220802,-15.076304,15.262721,1284.1407,-3519.1974)"
       cx="318.60828"
       cy="170.59293"
       fx="318.60828"
       fy="170.59293"
       r="0.82419753" />
    <radialGradient
       inkscape:collect="always"
       xlink:href="#linearGradient3737"
       id="radialGradient5311-8"
       gradientUnits="userSpaceOnUse"
       gradientTransform="matrix(1.30576,0.343183,-2.81145,10.6971,110.55,-617.947)"
       cx="173.32843"
       cy="58.523705"
       fx="173.32843"
       fy="58.523705"
       r="4.8357935" />
    <filter
       style="color-interpolation-filters:sRGB"
       x="-0.26855683"
       y="-0.089254402"
       width="1.5371137"
       height="1.1785088"
       id="filter6444-3">
      <feGaussianBlur
         stdDeviation="1.0822378"
         id="feGaussianBlur6446-7" />
    </filter>
    <radialGradient
       inkscape:collect="always"
       xlink:href="#linearGradient12297-2"
       id="radialGradient5315-6"
       gradientUnits="userSpaceOnUse"
       gradientTransform="matrix(1,0,0,0.492308,0,89.6458)"
       cx="142.75"
       cy="172.86737"
       fx="142.75"
       fy="172.86737"
       r="16.25" />
    <linearGradient
       id="linearGradient12297-2">
      <stop
         id="stop12299-9"
         style="stop-color:#fdd6bc;stop-opacity:1;"
         offset="0" />
      <stop
         id="stop12301-0"
         style="stop-color:#fdccbc;stop-opacity:0;"
         offset="1" />
    </linearGradient>
    <filter
       style="color-interpolation-filters:sRGB"
       x="-0.10702404"
       y="-0.081841066"
       width="1.2140481"
       height="1.1636821"
       id="filter12325-0">
      <feGaussianBlur
         stdDeviation="1.4492839"
         id="feGaussianBlur12327-7" />
    </filter>
    <radialGradient
       inkscape:collect="always"
       xlink:href="#linearGradient12477-2"
       id="radialGradient5317-7"
       gradientUnits="userSpaceOnUse"
       gradientTransform="matrix(0.24342852,-5.7791579e-8,2.1152466e-7,0.16093322,70.51342,175.52287)"
       cx="172.5"
       cy="104.07143"
       fx="172.5"
       fy="104.07143"
       r="8.5" />
    <linearGradient
       id="linearGradient12477-2">
      <stop
         id="stop12479-7"
         style="stop-color:#616161;stop-opacity:1"
         offset="0" />
      <stop
         id="stop12481-1"
         style="stop-color:#000000;stop-opacity:1"
         offset="1" />
    </linearGradient>
    <radialGradient
       inkscape:collect="always"
       xlink:href="#linearGradient12297-2"
       id="radialGradient5321-7"
       gradientUnits="userSpaceOnUse"
       gradientTransform="matrix(1,0,0,0.492308,0,89.6458)"
       cx="142.75"
       cy="172.86737"
       fx="142.75"
       fy="172.86737"
       r="16.25" />
    <filter
       style="color-interpolation-filters:sRGB"
       x="-0.10702404"
       y="-0.081841066"
       width="1.2140481"
       height="1.1636821"
       id="filter1884">
      <feGaussianBlur
         stdDeviation="1.4492839"
         id="feGaussianBlur1882" />
    </filter>
    <radialGradient
       inkscape:collect="always"
       xlink:href="#linearGradient12477-2"
       id="radialGradient5323-9"
       gradientUnits="userSpaceOnUse"
       gradientTransform="matrix(0.24342852,-5.7791579e-8,2.1152466e-7,0.16093322,34.556342,175.52287)"
       cx="172.5"
       cy="104.07143"
       fx="172.5"
       fy="104.07143"
       r="8.5" />
  </defs>
  <sodipodi:namedview
     id="base"
     pagecolor="#ffffff"
     bordercolor="#666666"
     borderopacity="1.0"
     inkscape:pageopacity="0.0"
     inkscape:pageshadow="2"
     inkscape:zoom="3.2706063"
     inkscape:cx="9.1567148"
     inkscape:cy="44.557005"
     inkscape:document-units="px"
     inkscape:current-layer="g2574"
     showgrid="false"
     inkscape:showpageshadow="false"
     units="px"
     inkscape:lockguides="false"
     inkscape:window-width="1280"
     inkscape:window-height="972"
     inkscape:window-x="0"
     inkscape:window-y="26"
     inkscape:window-maximized="1" />
  <metadata
     id="metadata1069">
    <rdf:RDF>
      <cc:Work
         rdf:about="">
        <dc:format>image/svg+xml</dc:format>
        <dc:type
           rdf:resource="http://purl.org/dc/dcmitype/StillImage" />
        <dc:title></dc:title>
        <dc:date>2017</dc:date>
        <dc:creator>
          <cc:Agent>
            <dc:title>Cristian Pozzessere &quot;ilnanny&quot;</dc:title>
          </cc:Agent>
        </dc:creator>
        <dc:subject>
          <rdf:Bag>
            <rdf:li>Global language</rdf:li>
          </rdf:Bag>
        </dc:subject>
        <dc:description>Playing with Inkscape on Gnu/Linux O. S.</dc:description>
        <dc:contributor>
          <cc:Agent>
            <dc:title>In the night, alone like a dog.</dc:title>
          </cc:Agent>
        </dc:contributor>
        <cc:license
           rdf:resource="http://creativecommons.org/licenses/by-sa/4.0/" />
      </cc:Work>
      <cc:License
         rdf:about="http://creativecommons.org/licenses/by-sa/4.0/">
        <cc:permits
           rdf:resource="http://creativecommons.org/ns#Reproduction" />
        <cc:permits
           rdf:resource="http://creativecommons.org/ns#Distribution" />
        <cc:requires
           rdf:resource="http://creativecommons.org/ns#Notice" />
        <cc:requires
           rdf:resource="http://creativecommons.org/ns#Attribution" />
        <cc:permits
           rdf:resource="http://creativecommons.org/ns#DerivativeWorks" />
        <cc:requires
           rdf:resource="http://creativecommons.org/ns#ShareAlike" />
      </cc:License>
    </rdf:RDF>
  </metadata>
  <g
     inkscape:label="Livello 1"
     inkscape:groupmode="layer"
     id="layer1"
     transform="translate(0,-1026.5197)">
    <g
       transform="translate(-0.14895645,1026.1047)"
       style="display:inline"
       id="g2574">
      <path
         inkscape:connector-curvature="0"
         id="path3288"
         d="M 89.29181,0.415026 H 7.0060911 c -3.798848,0 -6.8571352,3.058285 -6.8571352,6.8571399 V 89.557884 c 0,3.798857 3.0582872,6.857142 6.8571352,6.857142 H 89.29181 c 3.798857,0 6.857147,-3.058285 6.857147,-6.857142 V 7.2721659 c 0,-3.7988549 -3.05829,-6.8571399 -6.857147,-6.8571399 z"
         style="display:inline;opacity:0.15;fill:#000000;fill-opacity:1;fill-rule:nonzero;stroke:none" />
      <path
         style="display:inline;opacity:0.15;fill:#000000;fill-opacity:1;fill-rule:nonzero;stroke:none"
         d="M 88.648954,1.165026 H 7.6489471 c -3.739492,0 -6.749993,3.010499 -6.749993,6.7499969 V 88.915026 c 0,3.739501 3.010501,6.75 6.749993,6.75 H 88.648954 c 3.739503,0 6.750003,-3.010499 6.750003,-6.75 V 7.9150229 c 0,-3.7394979 -3.0105,-6.7499969 -6.750003,-6.7499969 z"
         id="path4085"
         inkscape:connector-curvature="0" />
      <path
         inkscape:connector-curvature="0"
         id="rect4251-1"
         d="M 88.006093,1.915026 H 8.2918111 c -3.680143,0 -6.6428566,2.962713 -6.6428566,6.6428549 V 88.272171 c 0,3.680142 2.9627136,6.642856 6.6428566,6.642856 H 88.006093 c 3.680143,0 6.642854,-2.962714 6.642854,-6.642856 V 8.5578809 c 0,-3.6801419 -2.962711,-6.6428549 -6.642854,-6.6428549 z"
         style="display:inline;fill:url(#linearGradient4071);fill-opacity:1;fill-rule:nonzero;stroke:none" />
      <path
         sodipodi:nodetypes="sscccsccscccsss"
         inkscape:connector-curvature="0"
         id="path3400-6"
         d="m 11.390247,6.8021682 c -2.8564964,0 -5.1241284,2.3146876 -5.1241284,5.2304538 v 21.67369 7.322634 40.372561 c 1.0972399,1.70385 2.9688485,2.844058 5.1241284,2.844058 h 4.099303 65.588849 4.099302 c 2.155281,0 4.026889,-1.140208 5.124129,-2.844058 V 41.028946 33.706312 12.032622 c 0,-2.9157662 -2.267632,-5.2304538 -5.124129,-5.2304538 z"
         style="display:inline;opacity:0.77864583;fill:#f3f5f3;fill-opacity:1;fill-rule:nonzero;stroke:none;stroke-width:1.03540373" />
      <path
         style="color:#000000;font-style:normal;font-variant:normal;font-weight:normal;font-stretch:normal;font-size:medium;line-height:normal;font-family:Sans;-inkscape-font-specification:Sans;text-indent:0;text-align:start;text-decoration:none;text-decoration-line:none;letter-spacing:normal;word-spacing:normal;text-transform:none;writing-mode:lr-tb;direction:ltr;baseline-shift:baseline;text-anchor:start;display:inline;overflow:visible;visibility:visible;fill:#241f1f;fill-opacity:0.63265303;stroke:none;stroke-width:2.3755002;marker:none;enable-background:accumulate"
         d="m 9.9740341,5.1444869 c -3.116621,0 -5.667965,2.53951 -5.667965,5.6460041 v 69.277996 c 0,3.106495 2.551344,5.646004 5.667965,5.646004 H 86.765819 c 3.116621,0 5.667968,-2.539509 5.667968,-5.646004 V 10.790491 c 0,-3.1064931 -2.551347,-5.6460041 -5.667968,-5.6460041 z m 0,2.319439 H 86.765819 c 1.888099,0 3.352022,1.480095 3.352022,3.3265651 v 69.277996 c 0,1.846474 -1.463923,3.326564 -3.352022,3.326564 H 9.9740341 c -1.888099,0 -3.352022,-1.48009 -3.352022,-3.326564 V 10.790491 c 0,-1.8464701 1.463923,-3.3265651 3.352022,-3.3265651 z"
         id="path4989"
         inkscape:connector-curvature="0" />
      <path
         id="path4118"
         d="m 1.6489535,82.258776 v 6 c 0,3.680142 2.9761066,6.65625 6.6562496,6.65625 H 87.992703 c 3.680143,0 6.656254,-2.976108 6.656254,-6.65625 v -6 c 0,3.680142 -2.976111,6.65625 -6.656254,6.65625 H 8.3052031 c -3.680143,0 -6.6562496,-2.976108 -6.6562496,-6.65625 z"
         style="display:inline;opacity:0.65818182;fill:url(#linearGradient4129);fill-opacity:1;fill-rule:nonzero;stroke:none"
         inkscape:connector-curvature="0" />
      <rect
         ry="4.25"
         rx="0"
         y="80.665031"
         x="5.5239539"
         height="4.25"
         width="84.250008"
         id="rect4131"
         style="opacity:0.55;fill:url(#radialGradient7462);fill-opacity:1;stroke:none" />
      <rect
         transform="rotate(90)"
         style="opacity:0.669;fill:url(#radialGradient7464);fill-opacity:1;stroke:none"
         id="rect4141"
         width="76.75"
         height="4.25"
         x="5.9750223"
         y="-90.233963"
         rx="0"
         ry="4.25" />
      <g
         transform="matrix(1.0277664,0,0,1.0277664,-49.002023,-152.79155)"
         style="display:inline"
         id="g1772">
        <path
           inkscape:connector-curvature="0"
           style="display:inline;overflow:visible;visibility:visible;fill:#9ade00;fill-opacity:1;fill-rule:nonzero;stroke:#009100;stroke-width:1.21664536;stroke-linecap:round;stroke-linejoin:round;stroke-miterlimit:4;stroke-dasharray:none;stroke-dashoffset:0;stroke-opacity:1;marker:none"
           id="path6824"
           d="m 126.57457,193.24852 a 32.048248,32.048248 0 1 0 -64.096492,0 32.048248,32.048248 0 0 0 64.096492,0 z" />
        <path
           d="m 72.924349,207.05264 c 2.892306,-0.74835 5.816186,-1.19648 8.905044,-0.0694 0,0 0.974034,6.20135 -1.178415,6.59194 -2.683917,0.48739 -7.726561,-6.52188 -7.726561,-6.52188 z"
           inkscape:connector-curvature="0"
           id="path5839"
           style="display:inline;overflow:visible;visibility:visible;fill:#a4ac9b;fill-opacity:1;fill-rule:nonzero;stroke:none;stroke-width:65.33953094;marker:none" />
        <path
           d="m 118.625,209.5 c 2.58333,-0.38773 5.16667,-0.51062 7.75,0.75 0,0 0.28209,5.48132 -1.625,5.625 -2.37827,0.17918 -6.125,-6.375 -6.125,-6.375 z"
           inkscape:connector-curvature="0"
           transform="matrix(1.1375011,-0.11913497,0.11913497,1.1375011,-86.969737,-17.121479)"
           clip-path="url(#clipPath11530-6)"
           id="path5841"
           style="display:inline;overflow:visible;visibility:visible;opacity:0.6;fill:none;stroke:#000000;stroke-width:1.45190108;stroke-linecap:butt;stroke-linejoin:miter;stroke-miterlimit:4;stroke-dasharray:none;stroke-dashoffset:0;stroke-opacity:1;marker:none" />
        <path
           d="m 79.963036,212.49661 c -2.178222,-0.92813 -3.891274,-3.09541 -5.47465,-5.60778 l 2.971052,-0.45439 c 0.243573,2.28926 1.163447,4.2713 2.503653,6.06269 z"
           inkscape:connector-curvature="0"
           id="path5843"
           style="display:inline;overflow:visible;visibility:visible;fill:#ffffff;fill-opacity:1;fill-rule:nonzero;stroke:none;stroke-width:13.06790733;marker:none" />
        <path
           style="display:inline;overflow:visible;visibility:visible;opacity:0.30830042;fill:url(#linearGradient5285-5);fill-opacity:1;fill-rule:nonzero;stroke:none;stroke-width:13.06790924;marker:none"
           id="path5845"
           inkscape:connector-curvature="0"
           d="m 81.818837,207.01886 0.252725,2.92115 c -4.320778,-2.713 -6.616067,-2.7551 -7.101387,-0.41053 l -2.108467,-2.52028 c 2.755437,-0.49449 5.408343,-1.2104 8.958414,0.009 z" />
        <path
           d="m 115.75509,207.0631 c -2.8044,-0.63915 -5.63077,-0.9885 -8.57168,0.18144 0,0 -0.76363,5.99519 1.31873,6.31078 2.59654,0.39384 7.25299,-6.49285 7.25299,-6.49285 z"
           inkscape:connector-curvature="0"
           id="path5827"
           style="display:inline;overflow:visible;visibility:visible;fill:#a4ac9b;fill-opacity:1;fill-rule:nonzero;stroke:none;stroke-width:62.90658188;marker:none" />
        <path
           d="m 118.625,209.5 c 2.58333,-0.38773 5.16667,-0.51062 7.75,0.75 0,0 0.28209,5.48132 -1.625,5.625 -2.37827,0.17918 -6.125,-6.375 -6.125,-6.375 z"
           inkscape:connector-curvature="0"
           transform="matrix(-1.0980195,-0.08278178,-0.08278178,1.0980195,263.3497,-13.152009)"
           clip-path="url(#clipPath11530-6)"
           id="path5829"
           style="display:inline;overflow:visible;visibility:visible;opacity:0.6;fill:none;stroke:#000000;stroke-width:1.62595987;stroke-linecap:butt;stroke-linejoin:miter;stroke-miterlimit:4;stroke-dasharray:none;stroke-dashoffset:0;stroke-opacity:1;marker:none" />
        <path
           d="m 109.13388,212.49934 c 2.07022,-0.95422 3.65807,-3.08791 5.11145,-5.55007 l -2.87194,-0.35404 c -0.17027,2.2099 -0.99998,4.14311 -2.23955,5.90461 z"
           inkscape:connector-curvature="0"
           id="path5831"
           style="display:inline;overflow:visible;visibility:visible;fill:#ffffff;fill-opacity:1;fill-rule:nonzero;stroke:none;stroke-width:12.58131599;marker:none" />
        <path
           style="display:inline;overflow:visible;visibility:visible;opacity:0.15810278;fill:url(#linearGradient5287-1);fill-opacity:1;fill-rule:nonzero;stroke:none;stroke-width:12.5813179;marker:none"
           id="path5833"
           inkscape:connector-curvature="0"
           d="m 107.19446,207.27958 -0.16145,2.81837 c 4.0822,-2.73203 6.28991,-2.83685 6.82274,-0.59405 l 1.95849,-2.48449 c -2.66565,-0.39858 -5.23867,-1.01331 -8.62105,0.25913 z" />
        <path
           style="fill:none;stroke:#000000;stroke-width:1.21654737;stroke-linecap:butt;stroke-linejoin:miter;stroke-miterlimit:4;stroke-dasharray:none;stroke-opacity:1"
           id="path2591"
           inkscape:connector-curvature="0"
           d="M 66.808599,206.53661 H 122.30719" />
        <path
           inkscape:connector-curvature="0"
           style="display:inline;overflow:visible;visibility:visible;opacity:0.8;fill:url(#linearGradient5289-2);fill-opacity:1;fill-rule:nonzero;stroke:none;stroke-width:0.46252999;marker:none"
           id="path6826"
           clip-path="url(#clipPath5690-5)"
           transform="matrix(0,5.7829777,-10.041555,0,1855.4107,-1642.2902)"
           d="m 316.6875,175.375 a 2.1875,2.1875 0 1 1 -4.375,0 2.1875,2.1875 0 1 1 4.375,0 z" />
        <path
           style="opacity:0.399015;fill:url(#radialGradient5291-8);fill-opacity:1;fill-rule:evenodd;stroke:none"
           id="path6840"
           inkscape:connector-curvature="0"
           d="m 66.389835,194.08837 c -0.541371,39.60028 56.275075,38.37903 55.498425,3.18727 -0.73384,33.40369 -54.691207,34.45231 -55.487846,-3.18727 z" />
        <path
           inkscape:connector-curvature="0"
           style="display:inline;overflow:visible;visibility:visible;fill:none;stroke:url(#radialGradient5293-0);stroke-width:0.94574559;stroke-linecap:round;stroke-linejoin:round;stroke-miterlimit:4;stroke-dasharray:none;stroke-dashoffset:0;stroke-opacity:1;marker:none"
           id="path7025"
           d="m 94.522484,224.35547 c -17.183294,0 -31.080527,-13.89723 -31.080527,-31.08052 0,-17.1833 13.897233,-31.08053 31.080527,-31.08053 17.183296,0 31.080526,13.89723 31.080526,31.08053 0,17.18329 -13.89723,31.08052 -31.080526,31.08052 z" />
        <path
           inkscape:connector-curvature="0"
           style="display:inline;overflow:visible;visibility:visible;fill:url(#radialGradient5295-5);fill-opacity:1;fill-rule:nonzero;stroke:none;stroke-width:0.50021809;marker:none"
           id="path5884"
           d="m 69.299006,176.72147 a 3.1081279,4.7534503 48.441389 1 0 6.693507,-6.71703 3.1081279,4.7534503 48.441389 1 0 -6.693507,6.71703 z" />
        <path
           inkscape:connector-curvature="0"
           style="display:inline;overflow:visible;visibility:visible;opacity:0.60395998;fill:url(#radialGradient5297-6);fill-opacity:1;fill-rule:nonzero;stroke:none;stroke-width:0.64077765;marker:none"
           id="path5886"
           d="m 68.206343,178.37823 a 4.1159988,5.8901794 45.007099 1 0 8.084508,-8.56139 4.1159988,5.8901794 45.007099 1 0 -8.084508,8.56139 z" />
        <path
           d="m 74.268654,168.70043 c 4.12799,1.77941 -1.167809,9.59188 -5.158345,6.72573 -4.464991,-3.20692 -4.962645,-10.40507 -3.658748,-14.3511 0.285943,-0.86835 1.871822,-0.86429 2.073465,-0.0568 0.848639,3.3982 4.040294,6.517 6.743628,7.68215 z"
           inkscape:connector-curvature="0"
           id="path5888"
           style="display:inline;overflow:visible;visibility:visible;fill:url(#radialGradient5299-4);fill-opacity:1;fill-rule:nonzero;stroke:none;stroke-width:2.48510885;marker:none" />
        <path
           d="m 174.77724,40.6145 c 0.70089,7.224853 0.0346,13.617072 -5.26353,23.170447 1.29167,2.459055 2.65061,4.881692 6.54732,5.930312 5.59619,-12.023014 2.73915,-21.291555 -1.28379,-29.100759 z"
           inkscape:connector-curvature="0"
           transform="matrix(-0.44074326,0.20898529,0.22298849,0.41306552,135.02273,108.68424)"
           id="path5890"
           style="display:inline;overflow:visible;visibility:visible;opacity:0.44554497;fill:url(#linearGradient5301-3);fill-opacity:1;fill-rule:nonzero;stroke:none;stroke-width:1;marker:none;filter:url(#filter6531-9)" />
        <path
           inkscape:connector-curvature="0"
           style="display:inline;overflow:visible;visibility:visible;fill:url(#radialGradient5305-5);fill-opacity:1;fill-rule:nonzero;stroke:none;stroke-width:0.48704514;marker:none"
           id="path5869"
           d="m 119.74385,176.12943 a 4.6230722,3.0296799 45.004759 1 1 -6.66116,-6.40917 4.6230722,3.0296799 45.004759 1 1 6.66116,6.40917 z" />
        <path
           inkscape:connector-curvature="0"
           style="display:inline;overflow:visible;visibility:visible;opacity:0.60395998;fill:url(#radialGradient5307-5);fill-opacity:1;fill-rule:nonzero;stroke:none;stroke-width:0.6398375;marker:none"
           id="path5871"
           d="m 121.06372,178.18714 a 5.9063966,4.0926644 45.005038 1 1 -8.5192,-8.17938 5.9063966,4.0926644 45.005038 1 1 8.5192,8.17938 z" />
        <path
           d="m 114.65951,169.06864 c -4.13001,2.02795 2.00715,9.31607 5.90437,6.23287 4.36053,-3.44971 4.27789,-10.53572 2.59888,-14.31156 -0.36848,-0.83087 -2.01171,-0.71706 -2.15339,0.0875 -0.59693,3.38769 -3.6453,6.66327 -6.34986,7.99122 z"
           inkscape:connector-curvature="0"
           id="path5873"
           style="display:inline;overflow:visible;visibility:visible;fill:url(#radialGradient5309-4);fill-opacity:1;fill-rule:nonzero;stroke:none;stroke-width:2.41700983;marker:none" />
        <path
           d="m 174.77724,40.6145 c 0.70089,7.224853 0.0346,13.617072 -5.26353,23.170447 1.29167,2.459055 2.65061,4.881692 6.54732,5.930312 5.59619,-12.023014 2.73915,-21.291555 -1.28379,-29.100759 z"
           inkscape:connector-curvature="0"
           transform="matrix(0.47410325,0.17432054,-0.196755,0.42004489,46.713467,114.46597)"
           id="path5876"
           style="display:inline;overflow:visible;visibility:visible;opacity:0.66831701;fill:url(#radialGradient5311-8);fill-opacity:1;fill-rule:nonzero;stroke:none;stroke-width:1;marker:none;filter:url(#filter6444-3)" />
        <path
           style="display:inline;opacity:0.99459498;fill:url(#radialGradient5315-6);fill-opacity:1;fill-rule:evenodd;stroke:none;filter:url(#filter12325-0)"
           id="path3893"
           transform="matrix(0.24051565,0,0,-0.20231391,78.171243,233.62856)"
           inkscape:connector-curvature="0"
           d="m 126.5,187 c 0,0 2.21085,-41.34679 15.5,-41.5 13.73126,-0.15831 17,42.5 17,42.5 -15.30721,-21.80794 -23.64549,-10.16504 -32.5,-1 z" />
        <path
           inkscape:connector-curvature="0"
           style="display:inline;overflow:visible;visibility:visible;fill:url(#radialGradient5317-7);fill-opacity:1;fill-rule:nonzero;stroke:none;stroke-width:0.32513422;marker:none"
           id="path13214"
           d="m 116.41323,194.03019 a 3.9083784,3.9083782 0 1 1 -7.81675,0 3.9083784,3.9083782 0 1 1 7.81675,0 z" />
        <path
           d="m 113.22902,191.86339 a 0.724135,0.71716158 0 1 1 -1.44827,0 0.724135,0.71716158 0 1 1 1.44827,0 z"
           id="path2658"
           style="display:inline;overflow:visible;visibility:visible;fill:#eeeeec;fill-opacity:1;fill-rule:nonzero;stroke:none;stroke-width:1.77387929;marker:none"
           inkscape:connector-curvature="0" />
        <path
           style="display:inline;opacity:0.99459498;fill:url(#radialGradient5321-7);fill-opacity:1;fill-rule:evenodd;stroke:none;filter:url(#filter12325-0)"
           id="path2762"
           transform="matrix(0.24051565,0,0,-0.20231391,42.214165,233.62856)"
           inkscape:connector-curvature="0"
           d="m 126.5,187 c 0,0 2.21085,-41.34679 15.5,-41.5 13.73126,-0.15831 17,42.5 17,42.5 -15.30721,-21.80794 -23.64549,-10.16504 -32.5,-1 z" />
        <path
           inkscape:connector-curvature="0"
           style="display:inline;overflow:visible;visibility:visible;fill:url(#radialGradient5323-9);fill-opacity:1;fill-rule:nonzero;stroke:none;stroke-width:0.32513422;marker:none"
           id="path2768"
           d="m 80.456153,194.03019 a 3.9083784,3.9083782 0 1 1 -7.816756,0 3.9083784,3.9083782 0 1 1 7.816756,0 z" />
        <path
           d="m 77.271928,191.86339 a 0.7241336,0.71716019 0 1 1 -1.448267,0 0.7241336,0.71716019 0 1 1 1.448267,0 z"
           id="path2772"
           style="display:inline;overflow:visible;visibility:visible;fill:#eeeeec;fill-opacity:1;fill-rule:nonzero;stroke:none;stroke-width:1.77387929;marker:none"
           inkscape:connector-curvature="0" />
      </g>
      <rect
         clip-path="url(#clipPath4156-4-1)"
         ry="3.9569881"
         rx="3.9569874"
         y="-30"
         x="2"
         height="69.024437"
         width="75.965775"
         id="rect4146"
         style="opacity:0.5078125;fill:url(#linearGradient4767);fill-opacity:1;stroke:none"
         transform="matrix(1.0692451,0,0,1.0476829,4.4441802,38.894013)" />
    </g>
  </g>
</svg>
