<?xml version="1.0" encoding="UTF-8" standalone="no"?>
<svg
   xmlns:dc="http://purl.org/dc/elements/1.1/"
   xmlns:cc="http://creativecommons.org/ns#"
   xmlns:rdf="http://www.w3.org/1999/02/22-rdf-syntax-ns#"
   xmlns:svg="http://www.w3.org/2000/svg"
   xmlns="http://www.w3.org/2000/svg"
   xmlns:xlink="http://www.w3.org/1999/xlink"
   xmlns:sodipodi="http://sodipodi.sourceforge.net/DTD/sodipodi-0.dtd"
   xmlns:inkscape="http://www.inkscape.org/namespaces/inkscape"
   sodipodi:docname="emblem-text.svg"
   inkscape:version="1.0beta2 (2b71d25d45, 2019-12-03)"
   id="svg1072"
   version="1.1"
   viewBox="0 0 32 32"
   height="32"
   width="32">
  <defs
     id="defs1066">
    <linearGradient
       inkscape:collect="always"
       xlink:href="#linearGradient6139-0"
       id="linearGradient4071"
       gradientUnits="userSpaceOnUse"
       gradientTransform="matrix(1.1071428,0,0,1.1071426,-4.9939026,-3.620687)"
       x1="6"
       y1="47.000011"
       x2="90"
       y2="47.000011" />
    <linearGradient
       id="linearGradient6139-0">
      <stop
         id="stop6141-2"
         offset="0"
         style="stop-color:#adbfc1;stop-opacity:1" />
      <stop
         style="stop-color:#ffffff;stop-opacity:1;"
         offset="0.25"
         id="stop6151-0" />
      <stop
         style="stop-color:#90a5aa;stop-opacity:1"
         offset="0.5"
         id="stop6147-1" />
      <stop
         id="stop6149-4"
         offset="0.75"
         style="stop-color:#f9fbfb;stop-opacity:1" />
      <stop
         id="stop6143-4"
         offset="1"
         style="stop-color:#adbfc1;stop-opacity:1" />
    </linearGradient>
    <linearGradient
       y2="23.167999"
       x2="27.952002"
       y1="-69.456512"
       x1="53.8978"
       spreadMethod="reflect"
       gradientTransform="matrix(0.98921206,0,0,0.98706256,-17.134546,-9.704219)"
       gradientUnits="userSpaceOnUse"
       id="linearGradient4545"
       xlink:href="#linearGradient4135"
       inkscape:collect="always" />
    <linearGradient
       id="linearGradient4135">
      <stop
         id="stop4137-6"
         offset="0"
         style="stop-color:#e3e9e9;stop-opacity:1;" />
      <stop
         id="stop4139"
         offset="0.21971546"
         style="stop-color:#eef2f2;stop-opacity:1;" />
      <stop
         id="stop4141"
         offset="0.47877571"
         style="stop-color:#f9fbfb;stop-opacity:1;" />
      <stop
         id="stop4143"
         offset="1"
         style="stop-color:#ffffff;stop-opacity:1;" />
    </linearGradient>
    <radialGradient
       r="17.263121"
       fy="10.81943"
       fx="34.164101"
       cy="10.81943"
       cx="34.164101"
       gradientTransform="matrix(0.00664983,-1.4155821,1.7836413,0.00815867,-2.7114916,65.575076)"
       gradientUnits="userSpaceOnUse"
       id="radialGradient4547"
       xlink:href="#linearGradient13492"
       inkscape:collect="always" />
    <linearGradient
       id="linearGradient13492"
       inkscape:collect="always">
      <stop
         id="stop13494"
         offset="0"
         style="stop-color:#516467;stop-opacity:1;" />
      <stop
         id="stop13496"
         offset="1"
         style="stop-color:#516467;stop-opacity:0;" />
    </linearGradient>
    <linearGradient
       y2="54.296875"
       x2="93.5"
       y1="54.296875"
       x1="2.5"
       gradientTransform="translate(-17.652364,-22.601697)"
       gradientUnits="userSpaceOnUse"
       id="linearGradient4549"
       xlink:href="#linearGradient4160"
       inkscape:collect="always" />
    <linearGradient
       id="linearGradient4160">
      <stop
         style="stop-color:#000000;stop-opacity:0;"
         offset="0"
         id="stop4170" />
      <stop
         id="stop4186"
         offset="0.03175623"
         style="stop-color:#000000;stop-opacity:0.96470588;" />
      <stop
         id="stop4182"
         offset="0.09425623"
         style="stop-color:#000000;stop-opacity:0;" />
      <stop
         id="stop4180"
         offset="0.49595019"
         style="stop-color:#000000;stop-opacity:0;" />
      <stop
         id="stop4178"
         offset="0.90525883"
         style="stop-color:#000000;stop-opacity:0;" />
      <stop
         style="stop-color:#000000;stop-opacity:0.98823529;"
         offset="0.96241152"
         id="stop4184" />
      <stop
         style="stop-color:#000000;stop-opacity:0;"
         offset="1"
         id="stop4168" />
    </linearGradient>
    <linearGradient
       y2="22.252237"
       x2="48.640831"
       y1="22.252237"
       x1="47.056839"
       gradientTransform="matrix(1.0000468,0,0,0.991319,-17.353732,9.636111)"
       gradientUnits="userSpaceOnUse"
       id="linearGradient4551"
       xlink:href="#linearGradient13484"
       inkscape:collect="always" />
    <linearGradient
       id="linearGradient13484">
      <stop
         id="stop13486"
         offset="0"
         style="stop-color:#849699;stop-opacity:1" />
      <stop
         id="stop13488"
         offset="1"
         style="stop-color:#b9e0e4;stop-opacity:0.20689656;" />
    </linearGradient>
    <radialGradient
       r="41.470058"
       fy="55.411221"
       fx="47.699135"
       cy="55.411221"
       cx="47.699135"
       gradientTransform="matrix(1.0772109,0,0,0.06481785,-21.162394,64.974669)"
       gradientUnits="userSpaceOnUse"
       id="radialGradient4553"
       xlink:href="#linearGradient4348"
       inkscape:collect="always" />
    <linearGradient
       id="linearGradient4348"
       inkscape:collect="always">
      <stop
         id="stop4350"
         offset="0"
         style="stop-color:#000000;stop-opacity:1;" />
      <stop
         id="stop4352"
         offset="1"
         style="stop-color:#000000;stop-opacity:0;" />
    </linearGradient>
    <linearGradient
       y2="11.140625"
       x2="93.5"
       y1="11.140625"
       x1="2.5"
       gradientTransform="translate(-17.652364,-22.601697)"
       gradientUnits="userSpaceOnUse"
       id="linearGradient4555"
       xlink:href="#linearGradient4160"
       inkscape:collect="always" />
    <linearGradient
       gradientTransform="translate(0.1489535,0.415026)"
       inkscape:collect="always"
       xlink:href="#linearGradient3832-0-6-1-1"
       id="linearGradient4129"
       x1="1.5"
       y1="88.171875"
       x2="94.5"
       y2="88.171875"
       gradientUnits="userSpaceOnUse" />
    <linearGradient
       id="linearGradient3832-0-6-1-1">
      <stop
         style="stop-color:#000000;stop-opacity:1;"
         offset="0"
         id="stop3834-6-3-7-1" />
      <stop
         id="stop3872-2-4"
         offset="0.1"
         style="stop-color:#000000;stop-opacity:0.58823532;" />
      <stop
         style="stop-color:#000000;stop-opacity:0.58823532;"
         offset="0.89999998"
         id="stop3844-6-2-7-6" />
      <stop
         style="stop-color:#000000;stop-opacity:1;"
         offset="1"
         id="stop3836-5-0-2-9" />
    </linearGradient>
    <radialGradient
       inkscape:collect="always"
       xlink:href="#linearGradient3737"
       id="radialGradient7462"
       gradientUnits="userSpaceOnUse"
       gradientTransform="matrix(0.97513378,0,0,0.04919072,34.047649,80.581722)"
       cx="13.948145"
       cy="44.892841"
       fx="13.948145"
       fy="44.892841"
       r="43.199203" />
    <linearGradient
       id="linearGradient3737">
      <stop
         offset="0"
         style="stop-color:#ffffff;stop-opacity:1"
         id="stop3739" />
      <stop
         offset="1"
         style="stop-color:#ffffff;stop-opacity:0"
         id="stop3741" />
    </linearGradient>
    <radialGradient
       inkscape:collect="always"
       xlink:href="#linearGradient3737"
       id="radialGradient7464"
       gradientUnits="userSpaceOnUse"
       gradientTransform="matrix(0.88832663,0,0,0.04919072,31.959518,-90.31726)"
       cx="13.948145"
       cy="44.892841"
       fx="13.948145"
       fy="44.892841"
       r="43.199203" />
  </defs>
  <sodipodi:namedview
     inkscape:document-rotation="0"
     inkscape:window-maximized="1"
     inkscape:window-y="21"
     inkscape:window-x="0"
     inkscape:window-height="1027"
     inkscape:window-width="1920"
     inkscape:lockguides="true"
     units="px"
     inkscape:showpageshadow="false"
     showgrid="false"
     inkscape:current-layer="g2706"
     inkscape:document-units="px"
     inkscape:cy="46.8739"
     inkscape:cx="86.599429"
     inkscape:zoom="6.8174774"
     inkscape:pageshadow="2"
     inkscape:pageopacity="0.0"
     borderopacity="1.0"
     bordercolor="#666666"
     pagecolor="#ffffff"
     id="base">
    <sodipodi:guide
       inkscape:locked="true"
       id="guide1621"
       orientation="0,96"
       position="0,0" />
    <sodipodi:guide
       inkscape:locked="true"
       id="guide1623"
       orientation="-96,0"
       position="96.000002,0" />
    <sodipodi:guide
       inkscape:locked="true"
       id="guide1625"
       orientation="0,-96"
       position="96.000002,96.000002" />
    <sodipodi:guide
       inkscape:locked="true"
       id="guide1627"
       orientation="96,0"
       position="0,96.000002" />
  </sodipodi:namedview>
  <metadata
     id="metadata1069">
    <rdf:RDF>
      <cc:Work
         rdf:about="">
        <dc:format>image/svg+xml</dc:format>
        <dc:type
           rdf:resource="http://purl.org/dc/dcmitype/StillImage" />
        <dc:title />
        <dc:date>2017</dc:date>
        <dc:creator>
          <cc:Agent>
            <dc:title>Cristian Pozzessere &quot;ilnanny&quot;</dc:title>
          </cc:Agent>
        </dc:creator>
        <dc:subject>
          <rdf:Bag>
            <rdf:li>Global language</rdf:li>
          </rdf:Bag>
        </dc:subject>
        <dc:description>Playing with Inkscape on Gnu/Linux O. S.</dc:description>
        <dc:contributor>
          <cc:Agent>
            <dc:title>In the night, alone like a dog.</dc:title>
          </cc:Agent>
        </dc:contributor>
        <cc:license
           rdf:resource="http://creativecommons.org/licenses/by-sa/4.0/" />
      </cc:Work>
      <cc:License
         rdf:about="http://creativecommons.org/licenses/by-sa/4.0/">
        <cc:permits
           rdf:resource="http://creativecommons.org/ns#Reproduction" />
        <cc:permits
           rdf:resource="http://creativecommons.org/ns#Distribution" />
        <cc:requires
           rdf:resource="http://creativecommons.org/ns#Notice" />
        <cc:requires
           rdf:resource="http://creativecommons.org/ns#Attribution" />
        <cc:permits
           rdf:resource="http://creativecommons.org/ns#DerivativeWorks" />
        <cc:requires
           rdf:resource="http://creativecommons.org/ns#ShareAlike" />
      </cc:License>
    </rdf:RDF>
  </metadata>
  <g
     transform="translate(0,-1026.5197)"
     id="layer1"
     inkscape:groupmode="layer"
     inkscape:label="Livello 1">
    <g
       id="g2706"
       style="display:inline"
       transform="translate(-0.14895645,1026.1047)">
      <g
         transform="matrix(0.32291666,0,0,0.32291667,0.60085625,0.78098103)"
         id="g933">
        <path
           inkscape:connector-curvature="0"
           id="path3288"
           d="M 89.29181,0.415026 H 7.0060911 c -3.798848,0 -6.8571352,3.058285 -6.8571352,6.8571399 V 89.557884 c 0,3.798857 3.0582872,6.857142 6.8571352,6.857142 H 89.29181 c 3.798857,0 6.857147,-3.058285 6.857147,-6.857142 V 7.2721659 c 0,-3.7988549 -3.05829,-6.8571399 -6.857147,-6.8571399 z"
           style="display:inline;opacity:0.15;fill:#000000;fill-opacity:1;fill-rule:nonzero;stroke:none" />
        <path
           style="display:inline;opacity:0.15;fill:#000000;fill-opacity:1;fill-rule:nonzero;stroke:none"
           d="M 88.648954,1.165026 H 7.6489471 c -3.739492,0 -6.749993,3.010499 -6.749993,6.7499969 V 88.915026 c 0,3.739501 3.010501,6.75 6.749993,6.75 H 88.648954 c 3.739503,0 6.750003,-3.010499 6.750003,-6.75 V 7.9150229 c 0,-3.7394979 -3.0105,-6.7499969 -6.750003,-6.7499969 z"
           id="path4085"
           inkscape:connector-curvature="0" />
        <path
           inkscape:connector-curvature="0"
           id="rect4251-1"
           d="M 88.006093,1.915026 H 8.2918111 c -3.680143,0 -6.6428566,2.962713 -6.6428566,6.6428549 V 88.272171 c 0,3.680142 2.9627136,6.642856 6.6428566,6.642856 H 88.006093 c 3.680143,0 6.642854,-2.962714 6.642854,-6.642856 V 8.5578809 c 0,-3.6801419 -2.962711,-6.6428549 -6.642854,-6.6428549 z"
           style="display:inline;fill:url(#linearGradient4071);fill-opacity:1;fill-rule:nonzero;stroke:none" />
        <path
           sodipodi:nodetypes="sscccsccscccsss"
           inkscape:connector-curvature="0"
           id="path3400-6"
           d="m 11.390247,6.8021682 c -2.8564964,0 -5.1241284,2.2883782 -5.1241284,5.1710028 v 21.42734 7.239403 39.913674 c 1.0972399,1.684484 2.9688485,2.811732 5.1241284,2.811732 h 4.099303 65.588849 4.099302 c 2.155281,0 4.026889,-1.127248 5.124129,-2.811732 V 40.639914 33.400511 11.973171 c 0,-2.8826246 -2.267632,-5.1710028 -5.124129,-5.1710028 z"
           style="display:inline;opacity:0.778646;fill:#f5f3f3;fill-opacity:1;fill-rule:nonzero;stroke:none;stroke-width:1.0295" />
        <path
           inkscape:connector-curvature="0"
           style="display:inline;opacity:0;fill:#000000;fill-opacity:1;stroke:none"
           d="m -11.527364,-20.414197 c -2.182681,0 -3.9375,1.754819 -3.9375,3.9375 v 12 c 0,-2.182681 1.754819,-3.9375 3.9375,-3.9375 h 83.75 c 2.182681,0 3.9375,1.754819 3.9375,3.9375 v -12 c 0,-2.182681 -1.754819,-3.9375 -3.9375,-3.9375 z"
           id="rect4080"
           transform="matrix(0.95254318,0,0,0.86137972,19.241523,24.518681)" />
        <rect
           transform="matrix(0.95254318,0,0,-0.86137972,19.241523,24.518681)"
           style="display:inline;fill:url(#linearGradient4545);fill-opacity:1;stroke:#738589;stroke-width:0.992433;stroke-miterlimit:4;stroke-dasharray:none;stroke-opacity:1"
           id="rect4133"
           width="91.007515"
           height="90.809761"
           x="-15.156122"
           y="-70.902092"
           rx="3.9142997"
           ry="3.9057946" />
        <path
           inkscape:connector-curvature="0"
           style="display:inline;fill:#e4e8e8;fill-opacity:1;stroke:#738589;stroke-width:0.992433;stroke-miterlimit:4;stroke-dasharray:none;stroke-opacity:1"
           d="m -11.229786,-20.105492 c -2.168501,0 -3.925898,1.761406 -3.925898,3.934855 v 3.965838 c 0,-2.173448 1.757397,-3.934854 3.925898,-3.934854 h 83.154841 c 2.168502,0 3.925898,1.761406 3.925898,3.934854 v -3.965838 c 0,-2.173449 -1.757396,-3.934855 -3.925898,-3.934855 z"
           id="path4058"
           transform="matrix(0.95254318,0,0,0.86137972,19.241523,24.518681)" />
        <path
           id="path4060"
           d="m -11.229786,-12.17466 c -2.168501,0 -3.925898,1.761407 -3.925898,3.934856 v 3.965839 c 0,-2.173449 1.757397,-3.934856 3.925898,-3.934856 h 83.154841 c 2.168502,0 3.925898,1.761407 3.925898,3.934856 v -3.965839 c 0,-2.173449 -1.757396,-3.934856 -3.925898,-3.934856 z"
           style="display:inline;fill:#e4e8e8;fill-opacity:1;stroke:#738589;stroke-width:0.992433;stroke-miterlimit:4;stroke-dasharray:none;stroke-opacity:1"
           inkscape:connector-curvature="0"
           transform="matrix(0.95254318,0,0,0.86137972,19.241523,24.518681)" />
        <path
           inkscape:connector-curvature="0"
           style="display:inline;fill:#e4e8e8;fill-opacity:1;stroke:#738589;stroke-width:0.992433;stroke-miterlimit:4;stroke-dasharray:none;stroke-opacity:1"
           d="m -11.229786,-16.140075 c -2.168501,0 -3.925898,1.761406 -3.925898,3.934854 v 3.965839 c 0,-2.173449 1.757397,-3.934855 3.925898,-3.934855 h 83.154841 c 2.168502,0 3.925898,1.761406 3.925898,3.934855 v -3.965839 c 0,-2.173448 -1.757396,-3.934854 -3.925898,-3.934854 z"
           id="path4062"
           transform="matrix(0.95254318,0,0,0.86137972,19.241523,24.518681)" />
        <path
           transform="matrix(0.95254318,0,0,0.86137972,19.241523,24.518681)"
           sodipodi:nodetypes="cssccc"
           inkscape:connector-curvature="0"
           id="path4107"
           d="m 18.724603,-7.780813 v 22.165882 c 0,2.135439 -1.743637,3.852277 -3.912409,3.852277 h -29.622517 v 0 C 15.911421,-7.885658 -5.7880536,10.478192 15.903859,-7.582896"
           style="display:inline;fill:#b0bcbc;fill-opacity:0.465753;stroke:url(#radialGradient4547);stroke-width:0.58814;stroke-linejoin:round;stroke-miterlimit:4;stroke-dasharray:none;stroke-opacity:0.53876" />
        <path
           transform="matrix(0.95254318,0,0,0.86137972,19.241523,24.518681)"
           inkscape:connector-curvature="0"
           style="display:inline;opacity:0.28;fill:url(#linearGradient4549);fill-opacity:1;stroke:none"
           d="m -11.246114,-7.507947 c -2.168522,0 -3.90625,1.74244 -3.90625,3.90625 v 70.59375 c 0,2.16381 1.737728,3.90625 3.90625,3.90625 h 83.1875 c 2.168522,0 3.90625,-1.74244 3.90625,-3.90625 v -70.59375 c 0,-2.16381 -1.737728,-3.90625 -3.90625,-3.90625 z"
           id="rect4371" />
        <path
           style="display:inline;opacity:0.467105;fill:url(#linearGradient4551);fill-opacity:1;stroke:none"
           d="m 29.705309,-7.507947 v 78.406249 h 42.145244 c 2.218947,0 3.997083,-1.742441 3.997083,-3.906251 V -3.601697 c 0,-2.16381 -1.778136,-3.90625 -3.997083,-3.90625 z"
           id="path13457"
           inkscape:connector-curvature="0"
           transform="matrix(0.95254318,0,0,0.86137972,19.241523,24.518681)" />
        <rect
           style="display:inline;opacity:0.6;fill:url(#radialGradient4553);fill-opacity:1;stroke:none"
           id="rect4338"
           width="89.343994"
           height="5.3759999"
           x="-14.452364"
           y="65.878304"
           transform="matrix(0.95254318,0,0,0.86137972,19.241523,24.518681)" />
        <path
           style="display:inline;opacity:0.258182;fill:url(#linearGradient4555);fill-opacity:1;stroke:none"
           d="m -11.246114,-19.914197 c -2.168522,0 -3.90625,1.74244 -3.90625,3.90625 v 13 c 0,-2.16381 2.087258,-4.784629 4.255776,-4.780063 l 83.012737,0.174762 c 2.168517,0.00457 3.731487,2.441491 3.731487,4.605301 v -13 c 0,-2.16381 -1.737728,-3.90625 -3.90625,-3.90625 z"
           id="rect4358"
           inkscape:connector-curvature="0"
           sodipodi:nodetypes="sscsscsss"
           transform="matrix(0.95254318,0,0,0.86137972,19.241523,24.518681)" />
        <g
           style="display:inline"
           id="g1768"
           transform="matrix(-0.38366055,0.19265794,-0.20614425,-0.49382464,105.38302,93.368961)">
          <path
             d="m 78.377031,83.969237 6.5,-24 6.5,24 v 71.999993 h -13 z"
             inkscape:connector-curvature="0"
             id="rect2480"
             style="fill:#ffd910;fill-opacity:1;stroke:#77401a;stroke-width:1.29511;stroke-linecap:butt;stroke-linejoin:round;stroke-miterlimit:4;stroke-dasharray:none;stroke-opacity:1" />
          <path
             d="m 83.355376,67.541272 -3.76756,13.909848 c 0,0 -0.46779,1.653465 -0.698,2.60832 -0.19122,0.64228 1.95886,1.611283 3.0182,-1.60832 1.21534,4.513809 5.57589,3.437953 5.98831,0.01105 0.3425,1.701476 1.75396,2.949961 2.98863,1.521937 -0.23478,-0.908743 -0.43641,-1.521937 -0.43641,-1.521937 l -4.02168,-14.920897 z"
             inkscape:connector-curvature="0"
             id="path3274"
             style="fill:#e0995a;fill-opacity:1;fill-rule:evenodd;stroke:#160904;stroke-width:0.657243;stroke-miterlimit:4;stroke-dasharray:none;stroke-opacity:0.883562" />
          <path
             inkscape:connector-curvature="0"
             id="path1759"
             d="m 87.761572,84.064356 -0.0197,70.858544"
             style="fill:none;fill-rule:evenodd;stroke:#785800;stroke-width:1.25333;stroke-linecap:butt;stroke-linejoin:miter;stroke-miterlimit:4;stroke-dasharray:none;stroke-opacity:1" />
          <path
             style="fill:none;fill-rule:evenodd;stroke:#785800;stroke-width:1.25333;stroke-linecap:butt;stroke-linejoin:miter;stroke-miterlimit:4;stroke-dasharray:none;stroke-opacity:1"
             d="m 81.962877,83.456848 0.01298,71.698682"
             id="path1761"
             inkscape:connector-curvature="0" />
          <path
             sodipodi:nodetypes="cacccc"
             inkscape:connector-curvature="0"
             id="rect1748"
             d="m -158.5136,-119.61185 c 0,0 2.46979,-2.6433 4.21127,-3.39299 2.02438,-0.87147 6.73331,-1.06187 6.73331,-1.06187 l 3.65137,6.38884 -11.53609,4.75975 z"
             style="opacity:0.876;fill:#c53900;fill-opacity:1;fill-rule:nonzero;stroke:#702d15;stroke-width:1.77999;stroke-linecap:square;stroke-linejoin:bevel;stroke-miterlimit:4;stroke-dasharray:none;stroke-opacity:0.883562;paint-order:markers stroke fill"
             transform="matrix(-0.93161218,-0.3634539,0.47331252,-0.88089458,0,0)" />
          <path
             style="fill:#473025;fill-opacity:1;fill-rule:evenodd;stroke:none;stroke-width:2.08889px;stroke-linecap:butt;stroke-linejoin:miter;stroke-opacity:1"
             d="m 83.355375,67.541276 1.521654,-7.572034 1.549834,7.572035 z"
             id="path3537"
             inkscape:connector-curvature="0" />
        </g>
        <path
           transform="matrix(0.97513378,0,0,0.97660611,89.430457,-67.96401)"
           inkscape:connector-curvature="0"
           d="m -19.374811,90.487259 c -10e-4,0.810805 7.04e-4,1.621019 0,2.431892 0.459289,1.319966 -1.626244,0.672767 -1.642404,1.729922 -0.451446,1.355313 1.044263,1.295373 1.806644,1.86592 -0.695674,0.002 -1.449081,-0.001 -2.167171,0 -0.708108,-0.21861 -0.707129,0.10303 -0.767122,0.43998 h 4.053931 c -0.405329,-0.60402 -0.223358,-1.359128 -0.630924,-1.909917 -0.01005,-0.953371 0.0061,-1.908072 0,-2.861873 -0.04008,-0.629804 0.256764,-1.656153 -0.652954,-1.695924 z m 1.283878,6.467714 c 0.03322,0.0495 0.06228,0.10076 0.104152,0.14799 -0.0113,0.87957 1.062177,0.73293 1.802638,0.73397 0.564769,-0.002 1.16431,0.003 1.706496,0 -0.447086,-0.23966 -1.234385,-0.44411 -1.664434,-0.88196 z m 1.948852,0 h 2.171176 c -0.136131,-0.48529 0.299048,-1.193382 0.146213,-1.751924 0.137684,-0.68646 -0.09265,-1.311274 -1.065558,-1.051953 -1.137706,0.1572 -1.483543,1.384712 -1.546263,2.229897 0.02894,0.23064 0.13982,0.41656 0.294432,0.57398 z m 2.171176,0 c 0.05233,0.18657 0.182323,0.34364 0.472691,0.44198 0.390253,0.0195 0.782588,-0.16917 1.04553,-0.44198 z m 1.518221,0 h 5.1575456 c 0.1772731,-0.13785 0.3426124,-0.26885 0.3965794,-0.35599 0.4829276,-0.35274 0.7653822,-0.752653 0.9634094,-1.229942 0.7115454,-0.508775 -0.4659669,-0.1863 -0.8712744,0.115995 -0.9357813,0.111494 -1.7269907,-0.369767 -2.6558858,-0.293987 -1.0370742,-0.127995 -0.1056788,0.188068 -0.1221781,0.721968 0.2862797,0.277176 0.2960855,0.749896 0.6809948,0.895956 -0.4003553,5.5e-4 -0.8015977,0.002 -1.1977519,0 -1.032521,0.0178 -2.146948,-0.32347 -1.776598,-1.499928 0.290693,-0.569934 0.139257,-1.222365 0.176258,-1.841919 0.09946,-0.785036 -0.286694,-1.461739 -0.15022,-2.249899 -0.76663,-0.855357 -0.566429,1.018235 -1.003468,1.393938 -0.03169,1.099369 0.411231,2.106197 0.500732,3.167858 0.346516,0.38829 0.220467,0.84537 -0.09814,1.17595 z m 5.1575456,0 c -0.3689771,0.28691 -0.7957175,0.59873 -0.4166095,0.58797 0.7525141,0.0295 1.3397433,-0.33787 2.0289667,-0.42198 0.091885,-0.0532 -0.1416493,-0.14649 -0.144211,-0.16599 z m -14.8497256,0 h -0.644943 c 0.0261,0.19513 0.07743,0.3815 0.224328,0.53397 0.322868,-0.0878 0.381438,-0.31394 0.420615,-0.53397 z m -0.644943,0 c -0.05044,-0.37715 0.03637,-0.80227 0.0021,-1.17795 -0.538603,-1.23912 -1.976547,-0.240199 -1.482169,0.81796 0.200334,0.1349 0.266878,0.25538 0.246361,0.35999 z m -1.233806,0 h -3.324864 c 0.252139,0.4596 1.249358,0.55091 1.928821,0.44798 0.503377,0.0282 1.335566,-0.13965 1.396043,-0.44798 z m -3.324864,0 c -0.10174,-0.18546 -0.09571,-0.42345 0.122179,-0.74397 0.955993,-0.388343 1.886211,-1.166762 2.956323,-1.165947 0.02224,-0.34842 -1.709897,0.0489 -2.287344,-0.287987 -1.163161,-0.398031 -2.406443,-0.298004 -3.619295,-0.44798 -0.3514,-0.0047 -1.18441,0.0034 -0.370543,0 0.71369,0.279775 2.328842,-0.119153 2.032974,1.029953 -0.360453,1.104931 -2.102808,-0.405029 -2.307376,1.083951 0.248343,0.16626 0.396442,0.35989 0.432633,0.53198 z m -3.040449,0 h -3.068488 c 0.205478,0.28196 0.522265,0.4552 1.099609,0.35598 0.276351,0.20328 0.913705,0.0293 1.363995,0.086 0.481146,-0.005 0.655313,-0.20219 0.604884,-0.44198 z m -3.068488,0 c -0.276677,-0.37967 -0.345504,-0.962225 -0.524768,-1.39594 -0.224416,-0.664386 0.09438,-0.483934 -0.278407,0.028 0.388071,0.234567 -0.737608,0.431145 -1.07958,0.339984 -0.442258,0.0907 -0.80638,-0.09477 -1.165705,-0.279987 -0.276916,0.138105 -0.498688,0.315399 -0.546801,0.585983 -0.279615,-0.0763 -0.271079,0.35151 -0.262383,0.72195 z m -3.857644,0 h -0.330483 c 0.02067,0.15725 0.06022,0.30824 0.154225,0.44198 0.192723,0.16289 0.183832,-0.1193 0.176258,-0.44198 z m -0.330483,0 c -0.04725,-0.35951 0.03183,-0.75998 -0.01005,-1.121953 -0.01087,-0.180774 -0.01382,-0.365974 -0.02404,-0.547975 -0.167784,-0.0826 -0.385544,-0.156054 -0.62892,-0.22399 9.6e-5,0.116748 6.07e-4,0.231597 0,0.345985 -0.0956,0.500724 0.30905,1.241343 -0.482706,1.399933 -0.353712,-0.29687 -1.562639,-0.707117 -1.311919,-1.173943 0.0086,-0.930553 -0.0055,-1.862761 0,-2.793876 0.07792,-0.924036 -0.1128,-0.331683 -0.16424,0.293988 -0.328644,0.524285 -0.355118,1.112483 -0.326477,1.711922 0.0094,0.759873 -0.548701,1.309309 -0.650953,2.109909 z m -0.662971,-1.893918 c -2.87e-4,-0.352943 -0.0013,-0.707545 0,-1.045953 -0.271789,-3.34e-4 -0.543635,-9.95e-4 -0.815192,0 -0.715667,0.637228 0.08736,0.842786 0.815192,1.045953 z m 0,-1.045953 c 0.05676,7e-5 0.113482,-8.6e-5 0.17025,0 -0.05221,-0.05069 -0.104979,-0.10045 -0.17025,-0.145993 -3.5e-4,0.04634 1.86e-4,0.09876 0,0.145993 z m 0.17025,0 c 0.355272,0.344863 0.432231,0.798591 0.45867,1.269943 0.0468,0.02304 0.103193,0.04425 0.138203,0.07 0.381721,-0.04739 0.706772,0.122534 1.035515,0.291987 0.793239,-0.395612 2.057353,-0.45357 1.135662,-1.33794 -0.384897,-0.501864 -1.12141,-0.225969 -1.704495,-0.293987 -0.354571,8.82e-4 -0.708929,5.35e-4 -1.063555,0 z m -4.083975,4.783791 40.308972,0.01 z m 14.689491,3.975817 c -0.909719,0.0398 -0.612882,1.06612 -0.652956,1.69592 -0.006,0.9538 0.01005,1.9085 0,2.86187 -0.407565,0.55079 -0.223591,1.3059 -0.62892,1.90992 h 4.051928 c -0.05995,-0.33688 -0.05714,-0.65855 -0.765119,-0.43998 -0.71809,-0.001 -1.471497,0.002 -2.167172,0 0.762382,-0.57055 2.256087,-0.51061 1.804641,-1.86592 -0.01616,-1.05715 -2.101694,-0.40995 -1.642402,-1.72992 -7.06e-4,-0.81087 0.001,-1.62109 0,-2.43189 z m 2.770052,6.46771 c 0.03918,0.22009 0.09966,0.44616 0.422618,0.53398 0.146906,-0.1525 0.198233,-0.33882 0.224328,-0.53398 z m 0.646946,0 h 1.233805 c -0.02052,-0.10461 0.04603,-0.22509 0.246361,-0.35998 0.494377,-1.05817 -0.943565,-2.05709 -1.482168,-0.81797 -0.03439,0.37566 0.05243,0.80082 0.0021,1.17795 z m 1.233805,0 c 0.06047,0.30833 0.890664,0.47617 1.39404,0.44798 0.679465,0.10293 1.678684,0.0116 1.930824,-0.44798 z m 3.324864,0 h 3.038446 c 0.03646,-0.17193 0.186618,-0.36593 0.434636,-0.53198 -0.204567,-1.48898 -1.946923,0.021 -2.307376,-1.08395 -0.295868,-1.14911 1.319285,-0.75018 2.032975,-1.02995 0.813866,0.003 -0.01915,-0.005 -0.370542,0 -1.212853,0.14997 -2.456135,0.0499 -3.619296,0.44798 -0.577447,0.33688 -2.309592,-0.0604 -2.287346,0.28798 1.070114,-8.1e-4 1.998329,0.77761 2.954322,1.16595 0.217885,0.32052 0.225925,0.55851 0.124181,0.74397 z m 3.038446,0 c -0.05091,0.2401 0.123287,0.43656 0.604885,0.44198 0.45029,-0.0567 1.087645,0.11728 1.363996,-0.086 0.577342,0.0992 0.894129,-0.074 1.099609,-0.35599 z m 3.06849,0 h 3.8596457 c 0.00872,-0.37044 0.017228,-0.79821 -0.2623835,-0.72197 -0.048106,-0.27057 -0.2698852,-0.44787 -0.5468002,-0.58597 -0.35986,0.18549 -0.722778,0.37082 -1.165705,0.27998 -0.341972,0.0912 -1.46765,-0.10541 -1.079579,-0.33998 -0.372783,-0.51193 -0.05399,-0.69238 -0.278408,-0.028 -0.179265,0.43371 -0.250094,1.01627 -0.52677,1.39593 z m 3.050462,-1.30794 c 0.328189,-0.16917 0.6544254,-0.3393 1.0355147,-0.29199 0.035226,-0.0259 0.091054,-0.0468 0.1382025,-0.07 0.026417,-0.47099 0.1020989,-0.92517 0.4566676,-1.26994 -0.3539575,5.4e-4 -0.7076495,8.8e-4 -1.0615528,0 -0.583085,0.068 -1.321601,-0.20788 -1.706496,0.29399 -0.921691,0.88437 0.344425,0.94234 1.137664,1.33794 z m 1.6303848,-1.63193 c 0.056772,-9e-5 0.113487,7e-5 0.1702495,0 -1.856e-4,-0.0472 3.518e-4,-0.0996 0,-0.14599 -0.065611,0.0458 -0.117829,0.095 -0.1702495,0.14599 z m 0.1702495,0 c 0.00133,0.33906 2.8e-4,0.69436 0,1.04795 0.7283842,-0.20335 1.5335455,-0.41011 0.8171945,-1.04795 -0.2722231,-10e-4 -0.5447365,-3.4e-4 -0.8171945,0 z m 0,1.04795 c -0.2422242,0.0676 -0.4596682,0.13982 -0.6269171,0.22199 -0.010255,0.182 -0.015167,0.36721 -0.026037,0.54798 -0.041851,0.36198 0.037246,0.76243 -0.01005,1.12195 h 3.60127 c -0.1022527,-0.8006 -0.662422,-1.35003 -0.6529556,-2.10991 0.028642,-0.59944 0.00215,-1.18763 -0.3264783,-1.71192 -0.051439,-0.62567 -0.2401516,-1.21802 -0.1622372,-0.29399 0.00554,0.93112 -0.00861,1.86333 0,2.79388 0.2507205,0.46682 -0.9602088,0.87707 -1.3139223,1.17395 -0.7917559,-0.1586 -0.3871058,-0.89922 -0.482706,-1.39994 -6.041e-4,-0.11373 -9.13e-5,-0.22792 0,-0.34399 z m -0.6629695,1.89192 h -0.3284811 c -0.00759,0.32268 -0.016459,0.60487 0.1762578,0.44198 0.094008,-0.13373 0.1315512,-0.28474 0.1522233,-0.44198 z m -19.5526058,0 h -1.950854 c -0.430077,0.43776 -1.217392,0.64232 -1.664435,0.88196 0.542186,0.003 1.143729,-0.002 1.7085,0 0.740459,-0.001 1.813936,0.1456 1.802636,-0.73397 0.04188,-0.0472 0.07093,-0.0985 0.104153,-0.14799 z m -1.950854,0 c 0.154675,-0.15744 0.265483,-0.34328 0.29443,-0.57398 -0.06272,-0.84518 -0.406554,-2.0727 -1.544259,-2.2299 -0.972906,-0.25932 -1.205245,0.3655 -1.067562,1.05196 -0.152841,0.55857 0.282408,1.26663 0.146214,1.75192 z m -2.171177,0 h -1.51822 c 0.262941,0.27281 0.655277,0.46148 1.045529,0.44198 0.290331,-0.0983 0.420341,-0.25544 0.472691,-0.44198 z m -1.51822,0 c -0.318611,-0.33057 -0.442657,-0.78766 -0.09614,-1.17595 0.08949,-1.06166 0.530414,-2.06849 0.498729,-3.16786 -0.437039,-0.3757 -0.234836,-2.24929 -1.001465,-1.39393 0.136474,0.78815 -0.249687,1.46486 -0.15022,2.24989 0.037,0.61956 -0.114435,1.27199 0.176258,1.84192 0.370349,1.17646 -0.746081,1.51771 -1.778602,1.49994 -0.395925,0.002 -0.795611,5.4e-4 -1.19575,0 0.383514,-0.1467 0.395066,-0.61913 0.680997,-0.89596 -0.0165,-0.5339 0.914896,-0.84997 -0.122179,-0.72197 -0.928895,-0.0758 -1.722107,0.40548 -2.657888,0.29398 -0.405307,-0.30229 -1.580818,-0.62477 -0.869272,-0.11599 0.198028,0.47729 0.480483,0.8772 0.963409,1.22994 0.05393,0.0871 0.217449,0.21825 0.394578,0.35599 z m -5.157546,0 h -1.468148 c -0.0026,0.0195 -0.236081,0.11284 -0.144211,0.16599 0.689225,0.0841 1.276453,0.45144 2.028969,0.42198 0.379235,0.0108 -0.04755,-0.30098 -0.41661,-0.58797 z m -2.609818,1.84392 40.308972,0.01 z m 22.715232,27.86675 c -0.322257,0.0631 -0.551723,0.616 -0.66297,0.86796 -0.0241,0.29136 -0.07555,0.59836 0.03405,0.87997 0.03139,0.0807 0.192646,0.34541 0.208305,0.42998 0.01893,0.10219 -10e-4,0.20807 -0.0021,0.31198 -3.07e-4,0.57898 0.04208,1.15799 0.0021,1.73593 -0.106309,0.86252 -0.185643,1.31588 0.332487,2.0999 0.0078,0.0901 0.03527,0.18021 0.02404,0.26999 -0.03906,0.31237 -1.01338,0.81918 -1.141671,1.19395 -0.0579,0.1125 -0.129318,0.21971 -0.174255,0.33798 -0.203318,0.53513 0.143082,1.06874 0.490718,1.44594 0.312773,0.41366 0.610918,0.78938 1.065557,1.06195 0.06305,0.0378 0.126272,0.081 0.19028,0.11999 -0.25937,-0.004 -0.518024,-0.0147 -0.777138,-0.044 -0.290575,0.002 -0.282899,-0.0183 -0.534783,0.046 -0.289544,0.0739 -0.62984,0.23944 -0.93737,0.17799 -0.09,-0.018 -0.161637,-0.0884 -0.242354,-0.13199 -0.07157,-0.10065 -0.156086,-0.1931 -0.214313,-0.30199 -0.199246,-0.37261 -0.06157,-0.80657 -0.10015,-1.20794 -0.02089,-0.44265 -0.06356,-0.87303 0.07411,-1.30595 0.01731,-0.24253 0.06899,-0.50856 -0.05006,-0.74196 -0.286498,-0.56168 -0.793746,-0.18979 -0.680998,0.29398 0.0051,0.43631 -0.0645,0.8695 -0.03005,1.30395 0.182989,0.82965 0.386252,1.30682 -0.390571,1.96591 -0.102963,0.0245 -0.203704,0.0872 -0.308451,0.072 -0.540685,-0.0784 -0.387173,-0.75115 -0.400587,-1.11995 0.0026,-0.43744 4.36e-4,-0.87474 -0.01603,-1.31194 -0.0016,-0.39943 0.120446,-1.02981 0.05208,-1.37994 -0.02184,-0.11188 -0.08806,-0.21085 -0.132192,-0.31598 -0.06194,0.0193 -0.142771,0.01 -0.186273,0.058 -0.15945,0.17626 -0.09684,0.50919 -0.168246,0.72197 -0.02891,0.0861 -0.07322,0.16655 -0.104153,0.25199 -0.03299,0.0911 -0.05725,0.18546 -0.08612,0.27799 0.01731,0.0575 0.06708,0.10592 0.0681,0.16599 0.0024,0.13611 -0.09491,0.2569 -0.138202,0.38598 -0.228688,0.68181 -0.172588,0.55651 -0.288422,1.34594 l 0.220322,0.036 c 0.106962,-0.76706 0.0526,-0.6723 0.268393,-1.32194 0.04393,-0.13228 0.139078,-0.25461 0.140206,-0.39398 4.3e-4,-0.0539 -0.05484,-0.22712 -0.0701,-0.27799 0.126338,-0.20135 0.213928,-0.42585 0.248364,-0.66197 0.01267,-0.0868 -0.0037,-0.178 0.01402,-0.26398 0.01407,-0.0684 0.04705,-0.13047 0.08012,-0.192 0.01159,-0.0216 -0.0089,0.0481 -0.01402,0.072 -0.01745,0.0489 -0.04582,0.0944 -0.05206,0.14599 -0.01282,0.10612 -0.0012,0.21321 -0.0061,0.31999 -0.01551,0.34318 -0.05703,0.6819 -0.05607,1.02595 0.01978,0.43652 0.0086,0.87326 0.0061,1.30994 0.0029,0.46493 -0.111167,1.13992 0.490718,1.31595 0.151013,0.0442 0.313809,-0.0237 0.470687,-0.036 0.130707,-0.1011 0.287916,-0.17618 0.392575,-0.30398 0.529482,-0.64656 0.347329,-1.23419 0.176259,-1.94192 -0.03107,-0.41832 0.03476,-0.83498 0.03005,-1.25594 -0.0017,-0.0766 -0.02239,-0.15518 -0.0061,-0.22999 0.07333,-0.33508 0.261965,-0.1181 0.308451,0.064 0.06375,0.24974 0.03111,0.3435 0.008,0.59797 -0.138679,0.43974 -0.107355,0.88246 -0.08612,1.33394 0.02485,0.4288 -0.08023,0.86412 0.112164,1.26794 0.06157,0.12924 0.155151,0.24141 0.232341,0.36199 0.105461,0.067 0.19622,0.16588 0.316463,0.19999 0.473106,0.13419 0.871419,-0.1567 1.321933,-0.19199 0.08954,-0.007 0.17858,0.001 0.268393,0.002 0.470702,0.0539 0.941562,0.0535 1.41407,0.042 -0.04974,-0.0572 -0.101012,-0.11213 -0.148218,-0.17199 0.04753,-0.0218 0.09412,-0.0452 0.142208,-0.06 -0.06485,0.002 -0.1295,-0.001 -0.194284,0 -0.03158,-0.0359 -0.05624,-0.0788 -0.09414,-0.10799 -0.388016,-0.19671 -0.465325,-0.20835 -0.799169,-0.48398 -0.249533,-0.20603 -0.428018,-0.46479 -0.620909,-0.71997 -0.295864,-0.326 -0.652513,-0.80386 -0.462677,-1.27394 0.03994,-0.0989 0.103064,-0.18638 0.154226,-0.27999 0.150179,-0.35727 0.776693,-0.65944 1.033512,-0.99196 -3.99e-4,0.23005 -3.3e-5,0.45992 0,0.68997 -0.04976,0.66599 0.06506,1.31045 0.398583,1.89192 0.08152,0.075 0.158124,0.15648 0.244357,0.22599 0.08217,0.0662 0.182987,0.10825 0.260382,0.17999 0.124562,0.11546 0.36173,0.45486 0.45867,0.58197 0.243193,0.3189 0.185675,0.24594 0.444651,0.52998 0.439432,0.18655 0.952434,0.1871 1.317928,-0.15799 0.08324,-0.0786 0.178927,-0.15786 0.216317,-0.26599 0.02321,-0.0672 0.01801,-0.13766 0.01005,-0.20999 0.12684,0.12759 0.301166,0.26976 0.39658,0.34798 0.102498,0.0477 0.195629,0.13632 0.308452,0.144 0.421117,0.0287 0.923559,-0.62368 1.299901,-0.80597 0.08797,-0.0426 0.189259,-0.0456 0.284416,-0.068 0.317667,0.0575 0.517657,-0.36527 0.797167,-0.39198 0.164969,-0.0158 0.11839,0.38059 0.106156,0.64997 -0.04693,0.40277 -0.399405,1.41926 0.432632,1.30394 0.211613,-0.0293 0.390966,-0.17085 0.586858,-0.25599 0.304897,-0.14265 1.104004,-1.12809 1.380019,-1.16394 0.03148,-0.004 0.05283,0.0358 0.08012,0.052 0.04805,0.0285 0.09767,0.0543 0.146212,0.082 0.474004,0.0329 0.7852167,-0.20635 1.0895944,-0.54198 0.089167,-0.0983 0.1560934,-0.21486 0.2443582,-0.31398 0.011034,-0.0124 0.051039,-0.0323 0.048065,-0.016 -0.016234,0.0876 -0.059776,0.16825 -0.090131,0.25199 0.1043765,0.40636 0.4397458,1.27862 1.0375171,0.94196 0.1948113,-0.10971 0.4353895,-0.49808 0.5548121,-0.66997 0.079138,-0.14671 0.1739372,-0.28625 0.2383499,-0.43998 0.1272656,-0.30371 0.1394208,-0.49416 0.112162,-0.81996 -0.011691,-0.14049 -0.1283485,-0.34309 -0.00605,-0.48398 0.041348,-0.0476 0.1078652,-0.064 0.1622372,-0.096 0.06835,-0.006 0.1410812,-0.0394 0.206302,-0.018 0.066637,0.0219 0.1128327,0.0846 0.1582316,0.138 0.2556081,0.30064 0.2612955,0.52965 0.1422083,0.88196 -0.1169543,0.4656 -0.1299413,0.57375 0.062094,1.02395 l 0.4246217,-0.25399 c -0.0382,-0.0314 -0.093423,-0.0492 -0.1141679,-0.094 -0.072144,-0.15593 0.048434,-0.40071 0.1021501,-0.53397 0.1488083,-0.54425 0.1165686,-1.09908 -0.4466526,-1.40794 -0.129735,-0.0711 -0.2786131,-0.12274 -0.4266256,-0.12199 -0.1254125,6.3e-4 -0.234494,0.0836 -0.3525157,0.12599 -0.077015,0.0918 -0.1778454,0.16927 -0.2323394,0.27599 -0.1270462,0.2487 -0.03378,0.32234 -0.01005,0.56797 0.02773,0.28655 0.019351,0.39268 -0.082122,0.66797 -0.053972,0.14644 -0.1285259,0.28552 -0.1922803,0.42798 -0.053798,0.0942 -0.3242263,0.72388 -0.524768,0.69597 -0.3335336,-0.0464 -0.5191912,-0.63268 -0.5768438,-0.86796 -0.085332,-0.13425 -0.1348144,-0.29926 -0.2563751,-0.40198 -0.038395,-0.0324 -0.095279,0.0399 -0.1301914,0.076 -0.3102313,0.32114 -0.5222945,0.75203 -1.0254998,0.79196 -0.145008,-0.0752 -0.272898,-0.1711 -0.452662,-0.13599 -0.203233,0.0397 -0.412761,0.30248 -0.534783,0.41598 -0.282752,0.26301 -0.548227,0.49009 -0.839227,0.74397 -0.146407,0.0784 -0.282394,0.18543 -0.440646,0.23599 -0.05391,0.0172 -0.327557,0.0381 -0.360527,-0.1 -0.06348,-0.26591 0.200275,-0.69768 0.124182,-0.95996 -0.0015,-0.31776 0.06345,-0.90956 -0.456668,-0.85796 -0.262069,0.026 -0.446852,0.43677 -0.74509,0.37198 -0.121771,0.0353 -0.250317,0.051 -0.364533,0.106 -0.09763,0.047 -0.172362,0.13282 -0.26038,0.19599 -0.108153,0.0776 -0.222246,0.14577 -0.328482,0.22599 -0.02654,0.02 -0.396757,0.35331 -0.474694,0.35198 -0.0923,-0.002 -0.170983,-0.071 -0.256374,-0.10599 -0.10887,-0.0888 -0.481026,-0.31334 -0.514754,-0.48798 -0.01234,-0.0639 0.01469,-0.12897 0.01202,-0.19399 -0.0083,-0.20549 -0.06277,-0.36629 -0.114167,-0.56798 -0.257615,-0.93972 -0.01061,0.0183 -0.168248,-0.82996 0.0021,-0.0265 0.002,-0.0406 0.004,-0.068 0.02204,-0.51647 -0.0096,-1.033 -0.01402,-1.54993 0.02568,-0.18155 -0.02894,-0.37118 0.004,-0.55198 0.01757,-0.0964 0.07504,-0.18108 0.106155,-0.27398 0.132151,-0.39446 0.266474,-0.78892 0.384563,-1.18795 0.06805,-0.50855 -0.08608,-1.00452 -0.0681,-1.51593 0.01414,-0.28282 0.156204,-1.1413 -0.412603,-0.97796 -0.133553,0.0384 -0.227264,0.15956 -0.340498,0.23999 -0.06523,0.12146 -0.154612,0.2346 -0.196288,0.36598 -0.111725,0.35216 0.0442,0.76796 0.08813,1.11595 0.05372,0.42511 0.04037,0.39398 0.04407,0.81997 -0.04733,0.70476 -0.05039,1.40999 -0.03806,2.1159 -0.07373,0.51108 0.117121,0.9792 0.214312,1.46994 -0.05545,0.6639 -0.165761,1.18663 0.222325,1.78792 0.01727,0.0627 0.06877,0.12571 0.05007,0.18799 -0.02743,0.0914 -0.108335,0.15692 -0.174255,0.22599 -0.259388,0.27177 -0.665265,0.27879 -1.005471,0.18399 -0.331136,-0.36169 -0.583532,-0.81825 -0.947386,-1.14595 -0.07082,-0.0638 -0.163511,-0.0976 -0.24035,-0.15399 -0.07102,-0.0521 -0.135333,-0.11476 -0.202298,-0.17199 -0.326618,-0.54152 -0.404806,-1.15647 -0.378553,-1.77993 0,-0.51652 8.13e-4,-1.03343 -0.004,-1.54993 -0.0038,-0.61515 -0.01392,-1.23086 0.0061,-1.84591 0.0054,-0.5297 -0.134289,-1.05422 -0.03806,-1.58393 0.03091,-0.0915 0.05553,-0.18462 0.09213,-0.27399 0.0359,-0.0877 0.09896,-0.16468 0.124182,-0.25599 0.02814,-0.10199 0.02046,-0.20906 0.03405,-0.31399 0.05666,-0.4375 0.160233,-0.86975 0.08813,-1.31394 -0.05777,-0.10604 -0.08524,-0.23631 -0.174254,-0.31798 -0.127228,-0.11673 -0.245099,-0.15103 -0.352517,-0.13 z m 0.03205,0.162 c 0.07925,-0.02 0.161265,0.009 0.242356,0.11799 0.05195,0.0696 0.06543,0.1616 0.09814,0.24199 0.04514,0.41049 -0.06192,0.80827 -0.114167,1.21195 -0.0139,0.10735 -0.0057,0.21951 -0.03405,0.32398 -0.01912,0.0704 -0.07763,0.12481 -0.106156,0.19199 -0.04116,0.0969 -0.06782,0.19845 -0.10215,0.29799 -0.123332,0.54624 0.0249,1.09209 0.01803,1.63993 -0.02011,0.61612 -0.02182,1.23354 -0.01803,1.84991 -1.25e-4,0.026 1.18e-4,0.052 0,0.078 -0.145544,-0.28258 -0.300784,-0.56626 -0.334489,-0.88596 -0.03358,-0.31858 0.05133,-0.6655 0.09013,-0.97996 0.04425,-0.58606 -0.01246,-1.17274 -0.01202,-1.75992 9.23e-4,-0.10342 0.02102,-0.21033 0.0021,-0.31199 -0.04653,-0.24869 -0.256338,-0.4386 -0.284418,-0.68997 -0.01702,-0.15238 0.01771,-0.46026 0.03005,-0.60597 0.07552,-0.15294 0.287012,-0.65986 0.524767,-0.71997 z m 3.228724,2.31789 c 0.216685,-0.0233 0.07267,0.49565 0.08813,0.81397 -0.01636,0.49456 0.108436,0.97496 0.0701,1.46593 -0.122758,0.39487 -0.264687,0.78017 -0.390572,1.17395 -0.03697,0.11564 -0.09844,0.22454 -0.120176,0.34398 -0.03294,0.18108 0.02387,0.37016 -0.0021,0.55198 -0.0023,0.20129 -0.0032,0.4028 0,0.60397 -0.01953,-0.14917 -0.02933,-0.3001 -0.01005,-0.45598 -0.01235,-0.70559 -0.01339,-1.41135 0.03205,-2.1159 -0.0095,-0.39866 7.07e-4,-0.45015 -0.05209,-0.84597 -0.06241,-0.4681 -0.243909,-0.86683 0.02804,-1.30394 0.171336,-0.15613 0.284294,-0.2242 0.356522,-0.23199 z m -0.186273,6.8757 c 0.07869,0.13473 0.08554,0.28266 0.08612,0.42998 -0.04882,-0.14869 -0.07725,-0.28857 -0.08612,-0.42998 z m -9.980601,3.69383 21.829937,0.018 z"
           style="display:inline;fill:none;fill-opacity:1;stroke:#314156;stroke-width:0.400212;stroke-linecap:butt;stroke-linejoin:miter;stroke-miterlimit:4;stroke-dasharray:none;stroke-opacity:0.883562"
           id="path4231" />
        <path
           style="color:#000000;font-style:normal;font-variant:normal;font-weight:normal;font-stretch:normal;font-size:medium;line-height:normal;font-family:Sans;-inkscape-font-specification:Sans;text-indent:0;text-align:start;text-decoration:none;text-decoration-line:none;letter-spacing:normal;word-spacing:normal;text-transform:none;writing-mode:lr-tb;direction:ltr;baseline-shift:baseline;text-anchor:start;display:inline;overflow:visible;visibility:visible;fill:#414141;fill-opacity:1;stroke:none;stroke-width:2.3755;marker:none;enable-background:accumulate"
           d="m 9.9740341,5.1444869 c -3.116621,0 -5.667965,2.53951 -5.667965,5.6460041 v 69.277996 c 0,3.106495 2.551344,5.646004 5.667965,5.646004 H 86.765819 c 3.116621,0 5.667968,-2.539509 5.667968,-5.646004 V 10.790491 c 0,-3.1064931 -2.551347,-5.6460041 -5.667968,-5.6460041 z m 0,2.319439 H 86.765819 c 1.888099,0 3.352022,1.480095 3.352022,3.3265651 v 69.277996 c 0,1.846474 -1.463923,3.326564 -3.352022,3.326564 H 9.9740341 c -1.888099,0 -3.352022,-1.48009 -3.352022,-3.326564 V 10.790491 c 0,-1.8464701 1.463923,-3.3265651 3.352022,-3.3265651 z"
           id="path4989"
           inkscape:connector-curvature="0" />
        <path
           id="path4118"
           d="m 1.6489535,82.258776 v 6 c 0,3.680142 2.9761066,6.65625 6.6562496,6.65625 H 87.992703 c 3.680143,0 6.656254,-2.976108 6.656254,-6.65625 v -6 c 0,3.680142 -2.976111,6.65625 -6.656254,6.65625 H 8.3052031 c -3.680143,0 -6.6562496,-2.976108 -6.6562496,-6.65625 z"
           style="display:inline;opacity:0.658182;fill:url(#linearGradient4129);fill-opacity:1;fill-rule:nonzero;stroke:none"
           inkscape:connector-curvature="0" />
        <rect
           ry="4.25"
           rx="0"
           y="80.665031"
           x="5.5239539"
           height="4.25"
           width="84.250008"
           id="rect4131"
           style="opacity:0.55;fill:url(#radialGradient7462);fill-opacity:1;stroke:none" />
        <rect
           transform="rotate(90)"
           style="opacity:0.669;fill:url(#radialGradient7464);fill-opacity:1;stroke:none"
           id="rect4141"
           width="76.75"
           height="4.25"
           x="5.9750223"
           y="-90.233963"
           rx="0"
           ry="4.25" />
      </g>
    </g>
  </g>
</svg>
