<?xml version="1.0" encoding="UTF-8" standalone="no"?>
<svg
   xmlns:dc="http://purl.org/dc/elements/1.1/"
   xmlns:cc="http://creativecommons.org/ns#"
   xmlns:rdf="http://www.w3.org/1999/02/22-rdf-syntax-ns#"
   xmlns:svg="http://www.w3.org/2000/svg"
   xmlns="http://www.w3.org/2000/svg"
   xmlns:xlink="http://www.w3.org/1999/xlink"
   xmlns:sodipodi="http://sodipodi.sourceforge.net/DTD/sodipodi-0.dtd"
   xmlns:inkscape="http://www.inkscape.org/namespaces/inkscape"
   sodipodi:docname="emblem-git.svg"
   inkscape:version="1.0beta2 (2b71d25d45, 2019-12-03)"
   id="svg1072"
   version="1.1"
   viewBox="0 0 32 32.000001"
   height="32"
   width="32">
  <defs
     id="defs1066">
    <linearGradient
       inkscape:collect="always"
       xlink:href="#linearGradient6139-0"
       id="linearGradient4071"
       gradientUnits="userSpaceOnUse"
       gradientTransform="matrix(0.36328122,0,0,0.36328118,-1.5385445,-0.90919232)"
       x1="6"
       y1="47.000011"
       x2="90"
       y2="47.000011" />
    <linearGradient
       id="linearGradient6139-0">
      <stop
         id="stop6141-2"
         offset="0"
         style="stop-color:#c1c7c9;stop-opacity:1" />
      <stop
         style="stop-color:#ffffff;stop-opacity:1;"
         offset="0.25"
         id="stop6151-0" />
      <stop
         style="stop-color:#b8c0c1;stop-opacity:1"
         offset="0.5"
         id="stop6147-1" />
      <stop
         id="stop6149-4"
         offset="0.75"
         style="stop-color:#fbf9f9;stop-opacity:1;" />
      <stop
         id="stop6143-4"
         offset="1"
         style="stop-color:#b7bec0;stop-opacity:1" />
    </linearGradient>
    <linearGradient
       gradientTransform="matrix(0.32812498,0,0,0.32812498,0.1489551,0.415026)"
       inkscape:collect="always"
       xlink:href="#linearGradient3832-0-6-1-1"
       id="linearGradient4129"
       x1="1.5"
       y1="88.171875"
       x2="94.5"
       y2="88.171875"
       gradientUnits="userSpaceOnUse" />
    <linearGradient
       id="linearGradient3832-0-6-1-1">
      <stop
         style="stop-color:#000000;stop-opacity:1;"
         offset="0"
         id="stop3834-6-3-7-1" />
      <stop
         id="stop3872-2-4"
         offset="0.1"
         style="stop-color:#000000;stop-opacity:0.58823532;" />
      <stop
         style="stop-color:#000000;stop-opacity:0.58823532;"
         offset="0.89999998"
         id="stop3844-6-2-7-6" />
      <stop
         style="stop-color:#000000;stop-opacity:1;"
         offset="1"
         id="stop3836-5-0-2-9" />
    </linearGradient>
    <radialGradient
       inkscape:collect="always"
       xlink:href="#linearGradient3737"
       id="radialGradient7462"
       gradientUnits="userSpaceOnUse"
       gradientTransform="matrix(0.31996575,0,0,0.01614071,11.271965,26.55565)"
       cx="13.948145"
       cy="44.892841"
       fx="13.948145"
       fy="44.892841"
       r="43.199203" />
    <linearGradient
       id="linearGradient3737">
      <stop
         offset="0"
         style="stop-color:#ffffff;stop-opacity:1"
         id="stop3739" />
      <stop
         offset="1"
         style="stop-color:#ffffff;stop-opacity:0"
         id="stop3741" />
    </linearGradient>
    <radialGradient
       inkscape:collect="always"
       xlink:href="#linearGradient3737"
       id="radialGradient7464"
       gradientUnits="userSpaceOnUse"
       gradientTransform="matrix(0.29148217,0,0,0.01614071,10.765562,-29.735432)"
       cx="13.948145"
       cy="44.892841"
       fx="13.948145"
       fy="44.892841"
       r="43.199203" />
    <linearGradient
       inkscape:collect="always"
       xlink:href="#linearGradient3737"
       id="linearGradient4767"
       gradientUnits="userSpaceOnUse"
       x1="2.7713892"
       y1="-28.64156"
       x2="50.527882"
       y2="14.514202" />
    <clipPath
       id="clipPath4156-4-1"
       clipPathUnits="userSpaceOnUse">
      <path
         inkscape:connector-curvature="0"
         id="path4158-0-8"
         d="m 27.046336,-55.695463 -14.21366,13.321486 h 0.06127 l 15.653407,21.770763 10.231384,-10.546177 C 38.561832,-32.30156 27.468089,-54.819245 27.046336,-55.695463 Z M 9.6468554,-39.382809 -5.2407289,-25.32124 15.987863,-7.8059573 26.372412,-18.382966 Z m 31.4906096,12.951445 -9.741259,9.713584 8.944804,12.4580526 7.780753,-7.5550056 z m -49.8397109,4.378822 -13.7541661,12.9822847 26.2830181,13.84571 0.06127,-0.0617 -0.122531,-0.0617 L 13.598503,-5.4007374 -8.7022409,-22.052595 Z m 38.0154159,7.400825 -9.802525,9.7752596 11.579232,9.5594001 7.62759,-7.40083 -8.669108,-11.0087257 z m 20.187073,5.6739697 -7.382526,7.2158 6.187844,8.54179 5.820249,-6.13651996 z m -32.195166,6.32154 -9.5574606,9.49772 13.6622686,7.1849703 7.933918,-7.6783603 z m 23.311629,2.37443004 -7.10683,6.93826996 8.362778,6.9074403 5.360756,-5.6739699 -0.06127,-0.0925 -0.0919,0.12335 -6.463539,-8.20258036 z m -8.730374,8.54178036 -7.505057,7.3391599 10.353916,5.45811 c 1.397496,-1.32103 5.67514,-6.12292 5.850882,-6.32154 z"
         style="opacity:0.6;fill:#ffffff;fill-opacity:1;stroke:none" />
    </clipPath>
  </defs>
  <sodipodi:namedview
     inkscape:document-rotation="0"
     inkscape:window-maximized="1"
     inkscape:window-y="21"
     inkscape:window-x="0"
     inkscape:window-height="1029"
     inkscape:window-width="1920"
     inkscape:lockguides="true"
     units="px"
     inkscape:showpageshadow="false"
     showgrid="false"
     inkscape:current-layer="g2574"
     inkscape:document-units="px"
     inkscape:cy="48"
     inkscape:cx="48"
     inkscape:zoom="5.6190044"
     inkscape:pageshadow="2"
     inkscape:pageopacity="0.0"
     borderopacity="1.0"
     bordercolor="#666666"
     pagecolor="#ffffff"
     id="base">
    <sodipodi:guide
       inkscape:locked="true"
       id="guide1621"
       orientation="0,96"
       position="0,0" />
    <sodipodi:guide
       inkscape:locked="true"
       id="guide1623"
       orientation="-96,0"
       position="96.000002,0" />
    <sodipodi:guide
       inkscape:locked="true"
       id="guide1625"
       orientation="0,-96"
       position="96.000002,96.000002" />
    <sodipodi:guide
       inkscape:locked="true"
       id="guide1627"
       orientation="96,0"
       position="0,96.000002" />
  </sodipodi:namedview>
  <metadata
     id="metadata1069">
    <rdf:RDF>
      <cc:Work
         rdf:about="">
        <dc:format>image/svg+xml</dc:format>
        <dc:type
           rdf:resource="http://purl.org/dc/dcmitype/StillImage" />
        <dc:title></dc:title>
        <dc:date>2017</dc:date>
        <dc:creator>
          <cc:Agent>
            <dc:title>Cristian Pozzessere &quot;ilnanny&quot;</dc:title>
          </cc:Agent>
        </dc:creator>
        <dc:subject>
          <rdf:Bag>
            <rdf:li>Global language</rdf:li>
          </rdf:Bag>
        </dc:subject>
        <dc:description>Playing with Inkscape on Gnu/Linux O. S.</dc:description>
        <dc:contributor>
          <cc:Agent>
            <dc:title>In the night, alone like a dog.</dc:title>
          </cc:Agent>
        </dc:contributor>
        <cc:license
           rdf:resource="http://creativecommons.org/licenses/by-sa/4.0/" />
      </cc:Work>
      <cc:License
         rdf:about="http://creativecommons.org/licenses/by-sa/4.0/">
        <cc:permits
           rdf:resource="http://creativecommons.org/ns#Reproduction" />
        <cc:permits
           rdf:resource="http://creativecommons.org/ns#Distribution" />
        <cc:requires
           rdf:resource="http://creativecommons.org/ns#Notice" />
        <cc:requires
           rdf:resource="http://creativecommons.org/ns#Attribution" />
        <cc:permits
           rdf:resource="http://creativecommons.org/ns#DerivativeWorks" />
        <cc:requires
           rdf:resource="http://creativecommons.org/ns#ShareAlike" />
      </cc:License>
    </rdf:RDF>
  </metadata>
  <g
     transform="translate(0,-1026.5197)"
     id="layer1"
     inkscape:groupmode="layer"
     inkscape:label="Livello 1">
    <g
       id="g2574"
       style="display:inline"
       transform="translate(-0.14895645,1026.1047)">
      <g
         transform="translate(0.2500005,0.249974)"
         id="g890">
        <path
           inkscape:connector-curvature="0"
           id="path3288"
           d="M 29.398955,0.415026 H 2.3989531 c -1.2464966,0 -2.2499972,1.0034998 -2.2499972,2.2499988 V 29.665027 c 0,1.246501 1.0035006,2.249999 2.2499972,2.249999 H 29.398955 c 1.246501,0 2.250001,-1.003498 2.250001,-2.249999 V 2.6650248 c 0,-1.246499 -1.0035,-2.2499988 -2.250001,-2.2499988 z"
           style="display:inline;opacity:0.15;fill:#000000;fill-opacity:1;fill-rule:nonzero;stroke:none;stroke-width:0.328124" />
        <path
           style="display:inline;opacity:0.15;fill:#000000;fill-opacity:1;fill-rule:nonzero;stroke:none;stroke-width:0.328124"
           d="M 29.188015,0.66111975 H 2.6098904 c -1.2270208,0 -2.21484135,0.98781995 -2.21484135,2.21484275 V 29.454088 c 0,1.227023 0.98782055,2.214843 2.21484135,2.214843 H 29.188015 c 1.227026,0 2.214846,-0.98782 2.214846,-2.214843 V 2.8759625 c 0,-1.2270228 -0.98782,-2.21484275 -2.214846,-2.21484275 z"
           id="path4085"
           inkscape:connector-curvature="0" />
        <path
           inkscape:connector-curvature="0"
           id="rect4251-1"
           d="M 28.977078,0.9072135 H 2.8208304 c -1.2075473,0 -2.17968747,0.97214 -2.17968747,2.179687 V 29.243151 c 0,1.207549 0.97214017,2.179687 2.17968747,2.179687 H 28.977078 c 1.207549,0 2.179685,-0.972138 2.179685,-2.179687 V 3.0869005 c 0,-1.207547 -0.972136,-2.179687 -2.179685,-2.179687 z"
           style="display:inline;fill:url(#linearGradient4071);fill-opacity:1;fill-rule:nonzero;stroke:none;stroke-width:0.328124" />
        <path
           sodipodi:nodetypes="sscccsccscccsss"
           inkscape:connector-curvature="0"
           id="path3400-6"
           d="m 3.8375044,2.5108069 c -0.937288,0 -1.6813548,0.4446041 -1.6813548,1.4049646 v 7.4564025 2.411846 13.297438 c 0.3600321,0.561192 0.9741537,0.936741 1.6813548,0.936741 h 1.3450838 21.5213388 1.345084 c 0.707202,0 1.321326,-0.375549 1.681358,-0.936741 V 13.78402 11.372174 3.9157715 c 0,-0.9603605 -0.744068,-1.4049646 -1.681358,-1.4049646 z"
           style="display:inline;opacity:1;fill:#db0505;fill-opacity:1;fill-rule:nonzero;stroke:none;stroke-width:0.340386" />
        <path
           style="color:#000000;font-style:normal;font-variant:normal;font-weight:normal;font-stretch:normal;font-size:medium;line-height:normal;font-family:Sans;-inkscape-font-specification:Sans;text-indent:0;text-align:start;text-decoration:none;text-decoration-line:none;letter-spacing:normal;word-spacing:normal;text-transform:none;writing-mode:lr-tb;direction:ltr;baseline-shift:baseline;text-anchor:start;display:inline;overflow:visible;visibility:visible;fill:#1f2024;fill-opacity:1;stroke:none;stroke-width:0.779465;marker:none;enable-background:accumulate"
           d="m 3.3728094,1.9668805 c -1.0226411,0 -1.8598006,0.8332768 -1.8598006,1.8525948 V 26.55132 c 0,1.019318 0.8371595,1.852591 1.8598006,1.852591 H 28.570113 c 1.022644,0 1.859803,-0.833273 1.859803,-1.852591 V 3.8194753 c 0,-1.0193177 -0.837159,-1.8525948 -1.859803,-1.8525948 z m 0,0.7610658 H 28.570113 c 0.619532,0 1.099881,0.485656 1.099881,1.091529 V 26.55132 c 0,0.605871 -0.480349,1.091524 -1.099881,1.091524 H 3.3728094 c -0.6195323,0 -1.0998821,-0.485653 -1.0998821,-1.091524 V 3.8194753 c 0,-0.605873 0.4803498,-1.091529 1.0998821,-1.091529 z"
           id="path4989"
           inkscape:connector-curvature="0" />
        <path
           id="path4118"
           d="m 0.64114259,27.270006 v 1.96875 c 0,1.207549 0.97653501,2.184083 2.18408181,2.184083 H 28.972685 c 1.207549,0 2.184081,-0.976534 2.184081,-2.184083 v -1.96875 c 0,1.207549 -0.976532,2.184083 -2.184081,2.184083 H 2.8252244 c -1.2075468,0 -2.18408181,-0.976534 -2.18408181,-2.184083 z"
           style="display:inline;opacity:0.658182;fill:url(#linearGradient4129);fill-opacity:1;fill-rule:nonzero;stroke:none;stroke-width:0.328124"
           inkscape:connector-curvature="0" />
        <rect
           ry="1.3945312"
           rx="0"
           y="26.582987"
           x="1.9126272"
           height="1.3945312"
           width="27.644531"
           id="rect4131"
           style="opacity:0.726;fill:url(#radialGradient7462);fill-opacity:1;stroke:none;stroke-width:0.328124" />
        <rect
           transform="rotate(90)"
           style="opacity:0.904;fill:url(#radialGradient7464);fill-opacity:1;stroke:none;stroke-width:0.328124"
           id="rect4141"
           width="25.183592"
           height="1.3945312"
           x="2.2393997"
           y="-29.708103"
           rx="0"
           ry="1.3945312" />
        <g
           transform="matrix(0.32812498,0,0,0.32812498,-97.73805,-120.20025)"
           id="layer1-2"
           inkscape:label="Capa 1">
          <g
             id="g4215"
             transform="matrix(2.0485521,0,0,2.0485521,-490.65754,-659.66679)">
            <path
               id="path4138"
               style="fill:#000000;fill-opacity:0.0588235;fill-rule:nonzero;stroke:none"
               d="m 423.39078,523.62615 -13.44821,-13.44727 c -0.77383,-0.7745 -2.02991,-0.7745 -2.80482,0 l -2.79243,2.79267 3.54226,3.54239 c 0.82348,-0.27803 1.76737,-0.0916 2.42346,0.56461 0.6595,0.66032 0.8446,1.61225 0.55957,2.4385 l 3.41408,3.41394 c 0.82598,-0.28462 1.77895,-0.10074 2.43849,0.55998 0.92209,0.92182 0.92209,2.41551 0,3.33763 -0.92222,0.92237 -2.41592,0.92237 -3.33854,0 -0.69334,-0.69387 -0.86481,-1.71258 -0.51365,-2.56684 l -3.18397,-3.18407 -2.7e-4,8.37869 c 0.2248,0.11129 0.43696,0.25982 0.62429,0.44633 0.92182,0.92172 0.92182,2.41514 0,3.33831 -0.92209,0.92169 -2.41646,0.92169 -3.33764,0 -0.92195,-0.92317 -0.92195,-2.41659 0,-3.33831 0.22785,-0.22744 0.49148,-0.39959 0.77279,-0.51497 v -8.45645 c -0.28131,-0.115 -0.54454,-0.28594 -0.77279,-0.515 -0.69833,-0.69779 -0.86653,-1.72272 -0.50837,-2.58026 l -3.49181,-3.49249 -9.22095,9.22042 c -0.77477,0.77516 -0.77477,2.03124 0,2.80588 l 13.44806,13.44728 c 0.77424,0.77451 2.02992,0.77451 2.80524,0 l 13.38522,-13.38496 c 0.7745,-0.77491 0.7745,-2.03137 0,-2.80601"
               inkscape:connector-curvature="0" />
            <path
               inkscape:connector-curvature="0"
               d="m 423.39078,523.22615 -13.44821,-13.44727 c -0.77383,-0.7745 -2.02991,-0.7745 -2.80482,0 l -2.79243,2.79267 3.54226,3.54239 c 0.82348,-0.27803 1.76737,-0.0916 2.42346,0.56461 0.6595,0.66032 0.8446,1.61225 0.55957,2.4385 l 3.41408,3.41394 c 0.82598,-0.28462 1.77895,-0.10074 2.43849,0.55998 0.92209,0.92182 0.92209,2.41551 0,3.33763 -0.92222,0.92237 -2.41592,0.92237 -3.33854,0 -0.69334,-0.69387 -0.86481,-1.71258 -0.51365,-2.56684 l -3.18397,-3.18407 -2.7e-4,8.37869 c 0.2248,0.11129 0.43696,0.25982 0.62429,0.44633 0.92182,0.92172 0.92182,2.41514 0,3.33831 -0.92209,0.92169 -2.41646,0.92169 -3.33764,0 -0.92195,-0.92317 -0.92195,-2.41659 0,-3.33831 0.22785,-0.22744 0.49148,-0.39959 0.77279,-0.51497 v -8.45645 c -0.28131,-0.115 -0.54454,-0.28594 -0.77279,-0.515 -0.69833,-0.69779 -0.86653,-1.72272 -0.50837,-2.58026 l -3.49181,-3.49249 -9.22095,9.22042 c -0.77477,0.77516 -0.77477,2.03124 0,2.80588 l 13.44806,13.44728 c 0.77424,0.77451 2.02992,0.77451 2.80524,0 l 13.38522,-13.38496 c 0.7745,-0.77491 0.7745,-2.03137 0,-2.80601"
               style="fill:#000000;fill-opacity:0.211454;fill-rule:nonzero;stroke:none"
               id="path4136" />
            <path
               id="path4132"
               style="fill:#000000;fill-opacity:0.235294;fill-rule:nonzero;stroke:none"
               d="m 423.39078,522.82615 -13.44821,-13.44727 c -0.77383,-0.7745 -2.02991,-0.7745 -2.80482,0 l -2.79243,2.79267 3.54226,3.54239 c 0.82348,-0.27803 1.76737,-0.0916 2.42346,0.56461 0.6595,0.66032 0.8446,1.61225 0.55957,2.4385 l 3.41408,3.41394 c 0.82598,-0.28462 1.77895,-0.10074 2.43849,0.55998 0.92209,0.92182 0.92209,2.41551 0,3.33763 -0.92222,0.92237 -2.41592,0.92237 -3.33854,0 -0.69334,-0.69387 -0.86481,-1.71258 -0.51365,-2.56684 l -3.18397,-3.18407 -2.7e-4,8.37869 c 0.2248,0.11129 0.43696,0.25982 0.62429,0.44633 0.92182,0.92172 0.92182,2.41514 0,3.33831 -0.92209,0.92169 -2.41646,0.92169 -3.33764,0 -0.92195,-0.92317 -0.92195,-2.41659 0,-3.33831 0.22785,-0.22744 0.49148,-0.39959 0.77279,-0.51497 v -8.45645 c -0.28131,-0.115 -0.54454,-0.28594 -0.77279,-0.515 -0.69833,-0.69779 -0.86653,-1.72272 -0.50837,-2.58026 l -3.49181,-3.49249 -9.22095,9.22042 c -0.77477,0.77516 -0.77477,2.03124 0,2.80588 l 13.44806,13.44728 c 0.77424,0.77451 2.02992,0.77451 2.80524,0 l 13.38522,-13.38496 c 0.7745,-0.77491 0.7745,-2.03137 0,-2.80601"
               inkscape:connector-curvature="0" />
            <path
               inkscape:connector-curvature="0"
               d="m 423.39078,522.42615 -13.44821,-13.44727 c -0.77383,-0.7745 -2.02991,-0.7745 -2.80482,0 l -2.79243,2.79267 3.54226,3.54239 c 0.82348,-0.27803 1.76737,-0.0916 2.42346,0.56461 0.6595,0.66032 0.8446,1.61225 0.55957,2.4385 l 3.41408,3.41394 c 0.82598,-0.28462 1.77895,-0.10074 2.43849,0.55998 0.92209,0.92182 0.92209,2.41551 0,3.33763 -0.92222,0.92237 -2.41592,0.92237 -3.33854,0 -0.69334,-0.69387 -0.86481,-1.71258 -0.51365,-2.56684 l -3.18397,-3.18407 -2.7e-4,8.37869 c 0.2248,0.11129 0.43696,0.25982 0.62429,0.44633 0.92182,0.92172 0.92182,2.41514 0,3.33831 -0.92209,0.92169 -2.41646,0.92169 -3.33764,0 -0.92195,-0.92317 -0.92195,-2.41659 0,-3.33831 0.22785,-0.22744 0.49148,-0.39959 0.77279,-0.51497 v -8.45645 c -0.28131,-0.115 -0.54454,-0.28594 -0.77279,-0.515 -0.69833,-0.69779 -0.86653,-1.72272 -0.50837,-2.58026 l -3.49181,-3.49249 -9.22095,9.22042 c -0.77477,0.77516 -0.77477,2.03124 0,2.80588 l 13.44806,13.44728 c 0.77424,0.77451 2.02992,0.77451 2.80524,0 l 13.38522,-13.38496 c 0.7745,-0.77491 0.7745,-2.03137 0,-2.80601"
               style="fill:#f3ebec;fill-opacity:1;fill-rule:nonzero;stroke:none"
               id="path14" />
            <path
               inkscape:connector-curvature="0"
               style="fill:#fffbfb;fill-opacity:1;fill-rule:nonzero;stroke:none"
               d="m 20.173828,11.574219 -0.40039,0.398437 3.542968,3.542969 c 0.82348,-0.27803 1.767738,-0.09176 2.423828,0.564453 0.34824,0.348672 0.55435,0.780619 0.638672,1.230469 0.112711,-0.718654 -0.08487,-1.474808 -0.638672,-2.029297 -0.65609,-0.65621 -1.600348,-0.842483 -2.423828,-0.564453 z m 1.556641,5.099609 c -0.0266,0.226151 -0.01916,0.455023 0.01953,0.679688 0.02981,-0.175731 0.0749,-0.348914 0.144531,-0.515625 l -0.164062,-0.164063 z m 4.689453,1.166016 c -0.0091,0.230308 -0.04508,0.459341 -0.121094,0.679687 l 3.414063,3.414063 c 0.82598,-0.28462 1.779913,-0.102126 2.439453,0.558594 0.358734,0.358629 0.572737,0.80512 0.652344,1.269531 0.125014,-0.72935 -0.08899,-1.505169 -0.652344,-2.06836 -0.65954,-0.66072 -1.613473,-0.845167 -2.439453,-0.560547 z m 1.71875,5.263672 c -0.02412,0.220516 -0.01445,0.443161 0.02344,0.662109 0.02901,-0.17053 0.07011,-0.339917 0.136719,-0.501953 z M 8.6425781,23.570312 c -0.1288692,0.630953 0.04967,1.311471 0.5390625,1.800782 L 22.628906,38.818359 c 0.77424,0.77451 2.029368,0.77451 2.804688,0 L 38.820312,25.433594 c 0.489697,-0.489956 0.666659,-1.171265 0.53711,-1.802735 -0.07533,0.367322 -0.252279,0.718925 -0.53711,1.003907 L 25.433594,38.019531 c -0.77532,0.77451 -2.030448,0.77451 -2.804688,0 L 9.1816406,24.572266 C 8.8967381,24.287411 8.7179489,23.937517 8.6425781,23.570312 Z m 14.5312499,4.019532 c -0.28131,0.11538 -0.543634,0.288185 -0.771484,0.515625 -0.56327,0.563129 -0.777339,1.338858 -0.652344,2.068359 0.0796,-0.464408 0.293664,-0.910941 0.652344,-1.269531 0.22785,-0.22744 0.490174,-0.398292 0.771484,-0.513672 z m 1.941406,0.06836 v 0.800781 c 0.2248,0.11129 0.43767,0.258803 0.625,0.445313 0.35863,0.35859 0.572761,0.805123 0.652344,1.269531 0.124978,-0.729501 -0.08915,-1.50523 -0.652344,-2.068359 -0.18733,-0.18651 -0.4002,-0.335976 -0.625,-0.447266 z"
               transform="translate(384.57143,499.798)"
               id="path4075" />
            <path
               transform="translate(384.57143,499.798)"
               inkscape:connector-curvature="0"
               style="fill:#ffffff;fill-opacity:0.991189;fill-rule:nonzero;stroke:none"
               d="m 23.96875,8.5996094 c -0.507613,0 -1.014889,0.1947812 -1.402344,0.5820312 l -2.792968,2.7910154 0.199218,0.199219 2.59375,-2.5917969 c 0.77491,-0.7745 2.030858,-0.7745 2.804688,0 L 38.820312,23.027344 c 0.335854,0.335914 0.515973,0.76456 0.560547,1.203125 0.05759,-0.572214 -0.122395,-1.163332 -0.560547,-1.601563 L 25.371094,9.1816406 C 24.984179,8.7943906 24.476363,8.5996094 23.96875,8.5996094 Z m -5.566406,4.7460936 -9.2207034,9.220703 c -0.4383046,0.438526 -0.6201128,1.029448 -0.5625,1.601563 0.04459,-0.438534 0.2265292,-0.865032 0.5625,-1.201172 l 9.2207034,-9.220703 3.390625,3.390625 c 0.02713,-0.101249 0.06078,-0.201189 0.101562,-0.298828 z m 3.335937,4.484375 c -0.09622,0.705623 0.121107,1.445745 0.664063,1.988281 0.22825,0.22906 0.490174,0.400625 0.771484,0.515625 v -0.40039 c -0.28131,-0.115 -0.543234,-0.286565 -0.771484,-0.515625 -0.440441,-0.4401 -0.644436,-1.011597 -0.664063,-1.587891 z m 4.66211,0.167969 c -0.01891,0.176081 -0.04322,0.352356 -0.101563,0.521484 l 0.06641,0.06641 c 0.03702,-0.195209 0.0476,-0.390254 0.03516,-0.587891 z m -1.285157,2.082031 v 0.400391 l 3.083985,3.083984 c 0.02653,-0.101583 0.05933,-0.202788 0.09961,-0.300781 l -3.183594,-3.183594 z m 3.033204,4.166016 c -0.09489,0.704569 0.12302,1.442919 0.664062,1.984375 0.92262,0.92237 2.417624,0.92237 3.339844,0 0.511953,-0.51197 0.728404,-1.198533 0.671875,-1.867188 -0.04567,0.535013 -0.262233,1.057141 -0.671875,1.466797 -0.92222,0.92237 -2.417224,0.92237 -3.339844,0 -0.438817,-0.439152 -0.643525,-1.008636 -0.664062,-1.583984 z m -6.417969,6.527344 c -0.05679,0.668948 0.15978,1.356368 0.671875,1.86914 0.92118,0.92169 2.4158,0.92169 3.33789,0 0.512023,-0.512772 0.728656,-1.200192 0.671875,-1.86914 -0.04544,0.535464 -0.262077,1.058352 -0.671875,1.46875 -0.92209,0.92169 -2.41671,0.92169 -3.33789,0 -0.409856,-0.410398 -0.626424,-0.933286 -0.671875,-1.46875 z"
               id="path4080" />
          </g>
        </g>
        <rect
           clip-path="url(#clipPath4156-4-1)"
           ry="3.9569881"
           rx="3.9569874"
           y="-30"
           x="2"
           height="69.024437"
           width="75.965775"
           id="rect4146"
           style="opacity:0.507812;fill:url(#linearGradient4767);fill-opacity:1;stroke:none"
           transform="matrix(0.35084603,0,0,0.34377093,1.5583263,13.040945)" />
      </g>
    </g>
  </g>
</svg>
