<?xml version="1.0" encoding="UTF-8" standalone="no"?>
<!-- Created with Inkscape (http://www.inkscape.org/) -->

<svg
   xmlns:dc="http://purl.org/dc/elements/1.1/"
   xmlns:cc="http://creativecommons.org/ns#"
   xmlns:rdf="http://www.w3.org/1999/02/22-rdf-syntax-ns#"
   xmlns:svg="http://www.w3.org/2000/svg"
   xmlns="http://www.w3.org/2000/svg"
   xmlns:xlink="http://www.w3.org/1999/xlink"
   xmlns:sodipodi="http://sodipodi.sourceforge.net/DTD/sodipodi-0.dtd"
   xmlns:inkscape="http://www.inkscape.org/namespaces/inkscape"
   width="32"
   height="32"
   viewBox="0 0 32 32"
   version="1.1"
   id="svg1072"
   inkscape:version="0.92.1 r15371"
   sodipodi:docname="libreoffice-impress.svg">
  <defs
     id="defs1066">
    <linearGradient
       y2="47.000011"
       x2="90"
       y1="47.000011"
       x1="6"
       gradientTransform="matrix(1.1071428,0,0,1.1071426,-4.9939026,-3.620687)"
       gradientUnits="userSpaceOnUse"
       id="linearGradient4071"
       xlink:href="#linearGradient6139-0"
       inkscape:collect="always" />
    <linearGradient
       id="linearGradient6139-0">
      <stop
         style="stop-color:#beb0b0;stop-opacity:1"
         offset="0"
         id="stop6141-2" />
      <stop
         id="stop6151-0"
         offset="0.25"
         style="stop-color:#ffffff;stop-opacity:1;" />
      <stop
         id="stop6147-1"
         offset="0.5"
         style="stop-color:#a69494;stop-opacity:1" />
      <stop
         style="stop-color:#fbf9f9;stop-opacity:1;"
         offset="0.75"
         id="stop6149-4" />
      <stop
         style="stop-color:#bdb1b1;stop-opacity:1"
         offset="1"
         id="stop6143-4" />
    </linearGradient>
    <linearGradient
       gradientUnits="userSpaceOnUse"
       y2="88.171875"
       x2="94.5"
       y1="88.171875"
       x1="1.5"
       id="linearGradient4129"
       xlink:href="#linearGradient3832-0-6-1-1"
       inkscape:collect="always"
       gradientTransform="translate(0.1489535,0.415026)" />
    <linearGradient
       id="linearGradient3832-0-6-1-1">
      <stop
         id="stop3834-6-3-7-1"
         offset="0"
         style="stop-color:#000000;stop-opacity:1;" />
      <stop
         style="stop-color:#000000;stop-opacity:0.58823532;"
         offset="0.1"
         id="stop3872-2-4" />
      <stop
         id="stop3844-6-2-7-6"
         offset="0.89999998"
         style="stop-color:#000000;stop-opacity:0.58823532;" />
      <stop
         id="stop3836-5-0-2-9"
         offset="1"
         style="stop-color:#000000;stop-opacity:1;" />
    </linearGradient>
    <radialGradient
       r="43.199203"
       fy="44.892841"
       fx="13.948145"
       cy="44.892841"
       cx="13.948145"
       gradientTransform="matrix(0.97513378,0,0,0.04919072,34.047649,80.581722)"
       gradientUnits="userSpaceOnUse"
       id="radialGradient7462"
       xlink:href="#linearGradient3737"
       inkscape:collect="always" />
    <linearGradient
       id="linearGradient3737">
      <stop
         id="stop3739"
         style="stop-color:#ffffff;stop-opacity:1"
         offset="0" />
      <stop
         id="stop3741"
         style="stop-color:#ffffff;stop-opacity:0"
         offset="1" />
    </linearGradient>
    <radialGradient
       r="43.199203"
       fy="44.892841"
       fx="13.948145"
       cy="44.892841"
       cx="13.948145"
       gradientTransform="matrix(0.88832663,0,0,0.04919072,31.959518,-90.31726)"
       gradientUnits="userSpaceOnUse"
       id="radialGradient7464"
       xlink:href="#linearGradient3737"
       inkscape:collect="always" />
    <linearGradient
       y2="14.514202"
       x2="50.527882"
       y1="-28.64156"
       x1="2.7713892"
       gradientUnits="userSpaceOnUse"
       id="linearGradient4767"
       xlink:href="#linearGradient3737"
       inkscape:collect="always" />
    <clipPath
       clipPathUnits="userSpaceOnUse"
       id="clipPath4156-4-1">
      <path
         style="opacity:0.6;fill:#ffffff;fill-opacity:1;stroke:none"
         d="m 27.046336,-55.695463 -14.21366,13.321486 h 0.06127 l 15.653407,21.770763 10.231384,-10.546177 C 38.561832,-32.30156 27.468089,-54.819245 27.046336,-55.695463 Z M 9.6468554,-39.382809 -5.2407289,-25.32124 15.987863,-7.8059573 26.372412,-18.382966 Z m 31.4906096,12.951445 -9.741259,9.713584 8.944804,12.4580526 7.780753,-7.5550056 z m -49.8397109,4.378822 -13.7541661,12.9822847 26.2830181,13.84571 0.06127,-0.0617 -0.122531,-0.0617 L 13.598503,-5.4007374 -8.7022409,-22.052595 Z m 38.0154159,7.400825 -9.802525,9.7752596 11.579232,9.5594001 7.62759,-7.40083 -8.669108,-11.0087257 z m 20.187073,5.6739697 -7.382526,7.2158 6.187844,8.54179 5.820249,-6.13651996 z m -32.195166,6.32154 -9.5574606,9.49772 13.6622686,7.1849703 7.933918,-7.6783603 z m 23.311629,2.37443004 -7.10683,6.93826996 8.362778,6.9074403 5.360756,-5.6739699 -0.06127,-0.0925 -0.0919,0.12335 -6.463539,-8.20258036 z m -8.730374,8.54178036 -7.505057,7.3391599 10.353916,5.45811 c 1.397496,-1.32103 5.67514,-6.12292 5.850882,-6.32154 z"
         id="path4158-0-8"
         inkscape:connector-curvature="0" />
    </clipPath>
    <radialGradient
       r="43.199203"
       fy="44.892841"
       fx="13.948145"
       cy="44.892841"
       cx="13.948145"
       gradientTransform="matrix(1.0353919,0,0,0.05736347,3.9849628,117.73412)"
       gradientUnits="userSpaceOnUse"
       id="radialGradient5867"
       xlink:href="#linearGradient3737"
       inkscape:collect="always" />
    <linearGradient
       y2="-19.957712"
       x2="2.2660911"
       y1="-18.925377"
       x1="93.39798"
       spreadMethod="reflect"
       gradientTransform="matrix(1.0004943,0,0,0.99149733,-29.066079,-60.494183)"
       gradientUnits="userSpaceOnUse"
       id="linearGradient5871"
       xlink:href="#linearGradient3984-9-6"
       inkscape:collect="always" />
    <linearGradient
       gradientUnits="userSpaceOnUse"
       id="linearGradient3984-9-6"
       y2="33.101307"
       x2="59.729176"
       y1="33.425831"
       x1="0.29404691">
      <stop
         offset="0"
         style="stop-color:#ebeced;stop-opacity:1;"
         id="stop3099-9-8" />
      <stop
         offset="0.67870468"
         style="stop-color:#ebeeef;stop-opacity:1;"
         id="stop3875-8-5" />
      <stop
         offset="0.68910319"
         style="stop-color:#ff6600;stop-opacity:1;"
         id="stop3873-1-8" />
      <stop
         offset="1"
         style="stop-color:#9e4c00;stop-opacity:1;"
         id="stop3101-7-8" />
    </linearGradient>
    <linearGradient
       y2="11.140625"
       x2="93.5"
       y1="11.140625"
       x1="2.5"
       gradientTransform="matrix(1.0114053,0,0,1.0044929,-29.589803,28.043121)"
       gradientUnits="userSpaceOnUse"
       id="linearGradient5875"
       xlink:href="#linearGradient4160-1"
       inkscape:collect="always" />
    <linearGradient
       id="linearGradient4160-1">
      <stop
         style="stop-color:#000000;stop-opacity:0;"
         offset="0"
         id="stop4170-6" />
      <stop
         id="stop4186-6"
         offset="0.03175623"
         style="stop-color:#000000;stop-opacity:0.96470588;" />
      <stop
         id="stop4182-5"
         offset="0.09425623"
         style="stop-color:#000000;stop-opacity:0;" />
      <stop
         id="stop4180-0"
         offset="0.49595019"
         style="stop-color:#000000;stop-opacity:0;" />
      <stop
         id="stop4178-2"
         offset="0.90525883"
         style="stop-color:#000000;stop-opacity:0;" />
      <stop
         style="stop-color:#000000;stop-opacity:0.98823529;"
         offset="0.96241152"
         id="stop4184-0" />
      <stop
         style="stop-color:#000000;stop-opacity:0;"
         offset="1"
         id="stop4168-2" />
    </linearGradient>
    <radialGradient
       gradientUnits="userSpaceOnUse"
       gradientTransform="matrix(1.0646477,0,0,0.03274241,2.9252433,33.925137)"
       r="29.024296"
       fy="35.073528"
       fx="-48.731873"
       cy="35.073528"
       cx="-48.731873"
       id="radialGradient4210"
       xlink:href="#linearGradient3737"
       inkscape:collect="always" />
    <radialGradient
       r="14.16129"
       cy="47.141338"
       cx="48.30785"
       gradientTransform="matrix(0.80018438,0.67652515,-1.5307737,1.9035151,3.7912682,-48.144492)"
       gradientUnits="userSpaceOnUse"
       id="radialGradient3333-6"
       xlink:href="#radialGradient3996-3-3"
       inkscape:collect="always" />
    <radialGradient
       gradientTransform="matrix(0.93962333,0.77477937,-1.7975241,2.1799696,88.130548,-93.365748)"
       gradientUnits="userSpaceOnUse"
       id="radialGradient3996-3-3"
       r="14.16129"
       cy="47.141338"
       cx="48.30785">
      <stop
         offset="0"
         style="stop-color:#000000;stop-opacity:0.22264875"
         id="stop3954-3-6" />
      <stop
         offset="0.5"
         style="stop-color:#000000;stop-opacity:0.0678183"
         id="stop3958-3-6" />
      <stop
         offset="1"
         style="stop-color:#000000;stop-opacity:0.02431222"
         id="stop3956-4-0" />
    </radialGradient>
    <linearGradient
       gradientTransform="matrix(0.95958619,0,0,1,-75.741251,27.019518)"
       y2="4"
       x2="73"
       y1="52"
       x1="45"
       gradientUnits="userSpaceOnUse"
       id="linearGradient3335-7"
       xlink:href="#linearGradient4308-6-4"
       inkscape:collect="always" />
    <linearGradient
       gradientUnits="userSpaceOnUse"
       id="linearGradient4308-6-4"
       y2="4"
       x2="73"
       y1="52"
       x1="45">
      <stop
         offset="0"
         style="stop-color:#000000;stop-opacity:0.10677083"
         id="stop4304-4-4" />
      <stop
         offset="1"
         style="stop-color:#000000;stop-opacity:0"
         id="stop4306-3-9" />
    </linearGradient>
    <linearGradient
       gradientTransform="translate(-75.954866,24.617783)"
       y2="36"
       x2="37"
       y1="46.124821"
       x1="48.992088"
       gradientUnits="userSpaceOnUse"
       id="linearGradient3341-2"
       xlink:href="#linearGradient4280-6-9"
       inkscape:collect="always" />
    <linearGradient
       gradientUnits="userSpaceOnUse"
       id="linearGradient4280-6-9"
       y2="36"
       x2="37"
       y1="46.124821"
       x1="48.992088">
      <stop
         offset="0"
         style="stop-color:#cfcfcf;stop-opacity:1"
         id="stop4293-95-9" />
      <stop
         offset="0.2098622"
         style="stop-color:#b7b7b7;stop-opacity:1"
         id="stop4295-8-1" />
      <stop
         offset="1"
         style="stop-color:#c9c9c9;stop-opacity:1"
         id="stop4297-0-3" />
    </linearGradient>
    <inkscape:path-effect
       effect="spiro"
       id="path-effect7288"
       is_visible="true" />
    <inkscape:path-effect
       is_visible="true"
       id="path-effect7296"
       effect="spiro" />
    <inkscape:path-effect
       is_visible="true"
       id="path-effect7294"
       effect="spiro" />
    <inkscape:path-effect
       is_visible="true"
       id="path-effect7300"
       effect="spiro" />
    <linearGradient
       y2="54.296875"
       x2="93.5"
       y1="54.296875"
       x1="2.5"
       gradientTransform="translate(-5e-7,-0.2968777)"
       gradientUnits="userSpaceOnUse"
       id="linearGradient4136"
       xlink:href="#linearGradient4160-1"
       inkscape:collect="always" />
  </defs>
  <sodipodi:namedview
     id="base"
     pagecolor="#ffffff"
     bordercolor="#666666"
     borderopacity="1.0"
     inkscape:pageopacity="0.0"
     inkscape:pageshadow="2"
     inkscape:zoom="2.9071883"
     inkscape:cx="-0.20407788"
     inkscape:cy="45.143835"
     inkscape:document-units="px"
     inkscape:current-layer="g1033"
     showgrid="false"
     inkscape:showpageshadow="false"
     units="px"
     inkscape:lockguides="true"
     inkscape:window-width="1280"
     inkscape:window-height="972"
     inkscape:window-x="0"
     inkscape:window-y="26"
     inkscape:window-maximized="1"
     inkscape:snap-global="false">
    <sodipodi:guide
       position="0,0"
       orientation="0,96"
       id="guide1621"
       inkscape:locked="true" />
    <sodipodi:guide
       position="96.000002,0"
       orientation="-96,0"
       id="guide1623"
       inkscape:locked="true" />
    <sodipodi:guide
       position="96.000002,96.000002"
       orientation="0,-96"
       id="guide1625"
       inkscape:locked="true" />
    <sodipodi:guide
       position="0,96.000002"
       orientation="96,0"
       id="guide1627"
       inkscape:locked="true" />
  </sodipodi:namedview>
  <metadata
     id="metadata1069">
    <rdf:RDF>
      <cc:Work
         rdf:about="">
        <dc:format>image/svg+xml</dc:format>
        <dc:type
           rdf:resource="http://purl.org/dc/dcmitype/StillImage" />
        <dc:title></dc:title>
        <dc:date>2017</dc:date>
        <dc:creator>
          <cc:Agent>
            <dc:title>Cristian Pozzessere &quot;ilnanny&quot;</dc:title>
          </cc:Agent>
        </dc:creator>
        <dc:subject>
          <rdf:Bag>
            <rdf:li>Global language</rdf:li>
          </rdf:Bag>
        </dc:subject>
        <dc:description>Playing with Inkscape on Gnu/Linux O. S.</dc:description>
        <dc:contributor>
          <cc:Agent>
            <dc:title>In the night, alone like a dog.</dc:title>
          </cc:Agent>
        </dc:contributor>
        <cc:license
           rdf:resource="http://creativecommons.org/licenses/by-sa/4.0/" />
      </cc:Work>
      <cc:License
         rdf:about="http://creativecommons.org/licenses/by-sa/4.0/">
        <cc:permits
           rdf:resource="http://creativecommons.org/ns#Reproduction" />
        <cc:permits
           rdf:resource="http://creativecommons.org/ns#Distribution" />
        <cc:requires
           rdf:resource="http://creativecommons.org/ns#Notice" />
        <cc:requires
           rdf:resource="http://creativecommons.org/ns#Attribution" />
        <cc:permits
           rdf:resource="http://creativecommons.org/ns#DerivativeWorks" />
        <cc:requires
           rdf:resource="http://creativecommons.org/ns#ShareAlike" />
      </cc:License>
    </rdf:RDF>
  </metadata>
  <g
     inkscape:label="Livello 1"
     inkscape:groupmode="layer"
     id="layer1"
     transform="translate(0,-1026.5197)">
    <g
       transform="translate(-0.14895645,1026.1047)"
       style="display:inline"
       id="g2574">
      <path
         inkscape:connector-curvature="0"
         id="path3288"
         d="M 89.29181,0.415026 H 7.0060911 c -3.798848,0 -6.8571352,3.058285 -6.8571352,6.8571399 V 89.557884 c 0,3.798857 3.0582872,6.857142 6.8571352,6.857142 H 89.29181 c 3.798857,0 6.857147,-3.058285 6.857147,-6.857142 V 7.2721659 c 0,-3.7988549 -3.05829,-6.8571399 -6.857147,-6.8571399 z"
         style="display:inline;opacity:0.15;fill:#000000;fill-opacity:1;fill-rule:nonzero;stroke:none" />
      <path
         style="display:inline;opacity:0.15;fill:#000000;fill-opacity:1;fill-rule:nonzero;stroke:none"
         d="M 88.648954,1.165026 H 7.6489471 c -3.739492,0 -6.749993,3.010499 -6.749993,6.7499969 V 88.915026 c 0,3.739501 3.010501,6.75 6.749993,6.75 H 88.648954 c 3.739503,0 6.750003,-3.010499 6.750003,-6.75 V 7.9150229 c 0,-3.7394979 -3.0105,-6.7499969 -6.750003,-6.7499969 z"
         id="path4085"
         inkscape:connector-curvature="0" />
      <path
         inkscape:connector-curvature="0"
         id="rect4251-1"
         d="M 88.006093,1.915026 H 8.2918111 c -3.680143,0 -6.6428566,2.962713 -6.6428566,6.6428549 V 88.272171 c 0,3.680142 2.9627136,6.642856 6.6428566,6.642856 H 88.006093 c 3.680143,0 6.642854,-2.962714 6.642854,-6.642856 V 8.5578809 c 0,-3.6801419 -2.962711,-6.6428549 -6.642854,-6.6428549 z"
         style="display:inline;fill:url(#linearGradient4071);fill-opacity:1;fill-rule:nonzero;stroke:none" />
      <path
         sodipodi:nodetypes="sscccsccscccsss"
         inkscape:connector-curvature="0"
         id="path3400-6"
         d="m 11.390247,6.8021682 c -2.8564964,0 -5.1241284,2.2883782 -5.1241284,5.1710028 v 21.42734 7.239403 39.913674 c 1.0972399,1.684484 2.9688485,2.811732 5.1241284,2.811732 h 4.099303 65.588849 4.099302 c 2.155281,0 4.026889,-1.127248 5.124129,-2.811732 V 40.639914 33.400511 11.973171 c 0,-2.8826246 -2.267632,-5.1710028 -5.124129,-5.1710028 z"
         style="display:inline;opacity:0.77864583;fill:#f5f3f3;fill-opacity:1;fill-rule:nonzero;stroke:none;stroke-width:1.02950251" />
      <path
         style="color:#000000;font-style:normal;font-variant:normal;font-weight:normal;font-stretch:normal;font-size:medium;line-height:normal;font-family:Sans;-inkscape-font-specification:Sans;text-indent:0;text-align:start;text-decoration:none;text-decoration-line:none;letter-spacing:normal;word-spacing:normal;text-transform:none;writing-mode:lr-tb;direction:ltr;baseline-shift:baseline;text-anchor:start;display:inline;overflow:visible;visibility:visible;fill:#241f1f;fill-opacity:0.63265303;stroke:none;stroke-width:2.3755002;marker:none;enable-background:accumulate"
         d="m 9.9740341,5.1444869 c -3.116621,0 -5.667965,2.53951 -5.667965,5.6460041 v 69.277996 c 0,3.106495 2.551344,5.646004 5.667965,5.646004 H 86.765819 c 3.116621,0 5.667968,-2.539509 5.667968,-5.646004 V 10.790491 c 0,-3.1064931 -2.551347,-5.6460041 -5.667968,-5.6460041 z m 0,2.319439 H 86.765819 c 1.888099,0 3.352022,1.480095 3.352022,3.3265651 v 69.277996 c 0,1.846474 -1.463923,3.326564 -3.352022,3.326564 H 9.9740341 c -1.888099,0 -3.352022,-1.48009 -3.352022,-3.326564 V 10.790491 c 0,-1.8464701 1.463923,-3.3265651 3.352022,-3.3265651 z"
         id="path4989"
         inkscape:connector-curvature="0" />
      <g
         style="display:inline"
         id="g1033"
         transform="matrix(0.91045749,0,0,0.84170913,4.1764229,5.0203854)">
        <g
           id="g960"
           transform="translate(29.042338,-28.287372)">
          <rect
             style="opacity:0.55;fill:url(#radialGradient5867);fill-opacity:1;stroke:none"
             id="rect4131-3"
             width="89.456207"
             height="4.9561129"
             x="-26.301346"
             y="117.83126"
             rx="0"
             ry="4.9561129" />
          <path
             inkscape:connector-curvature="0"
             style="opacity:0;fill:#000000;fill-opacity:1;stroke:none"
             d="m -23.394945,30.240449 c -2.207575,0 -3.982409,1.762703 -3.982409,3.95519 v 12.053915 c 0,-2.192488 1.774834,-3.955191 3.982409,-3.955191 h 84.705191 c 2.207572,0 3.982412,1.762703 3.982412,3.955191 V 34.195639 c 0,-2.192487 -1.77484,-3.95519 -3.982412,-3.95519 z"
             id="rect4080" />
          <rect
             transform="scale(1,-1)"
             style="fill:url(#linearGradient5871);fill-opacity:1;stroke:#738589;stroke-width:1.00031602;stroke-miterlimit:4;stroke-dasharray:none;stroke-opacity:1"
             id="rect4133"
             width="92.045486"
             height="91.217758"
             x="-27.065086"
             y="-121.96702"
             rx="3.9589436"
             ry="3.9233429" />
          <path
             id="path4060"
             d="m -23.093973,38.517005 c -2.193234,0 -3.970674,1.769321 -3.970674,3.952535 v 3.983657 c 0,-2.183214 1.77744,-3.952535 3.970674,-3.952535 h 84.103249 c 2.19323,0 3.970672,1.769321 3.970672,3.952535 V 42.46954 c 0,-2.183214 -1.777442,-3.952535 -3.970672,-3.952535 z"
             style="fill:#e4e8e8;fill-opacity:1;stroke:#738589;stroke-width:1.00031602;stroke-miterlimit:4;stroke-dasharray:none;stroke-opacity:1"
             inkscape:connector-curvature="0" />
          <path
             inkscape:connector-curvature="0"
             style="fill:#e4e8e8;fill-opacity:1;stroke:#738589;stroke-width:1.00031602;stroke-miterlimit:4;stroke-dasharray:none;stroke-opacity:1"
             d="m -23.093973,34.533774 c -2.193234,0 -3.970674,1.76932 -3.970674,3.952533 v 3.983656 c 0,-2.183213 1.77744,-3.952533 3.970674,-3.952533 h 84.103249 c 2.19323,0 3.970672,1.76932 3.970672,3.952533 v -3.983656 c 0,-2.183213 -1.777442,-3.952533 -3.970672,-3.952533 z"
             id="path4062" />
          <path
             id="path4351"
             d="m -23.093973,30.533774 c -2.193234,0 -3.970674,1.76932 -3.970674,3.952533 v 3.983656 c 0,-2.183213 1.77744,-3.952533 3.970674,-3.952533 h 84.103249 c 2.19323,0 3.970672,1.76932 3.970672,3.952533 v -3.983656 c 0,-2.183213 -1.777442,-3.952533 -3.970672,-3.952533 z"
             style="fill:#e4e8e8;fill-opacity:1;stroke:#738589;stroke-width:1.00031602;stroke-miterlimit:4;stroke-dasharray:none;stroke-opacity:1"
             inkscape:connector-curvature="0" />
          <path
             style="opacity:0.25818182;fill:url(#linearGradient5875);fill-opacity:1;stroke:none"
             d="m -23.110487,30.742695 c -2.193255,0 -3.950802,1.750269 -3.950802,3.923801 v 13.058407 c 0,-2.173532 2.111063,-4.806126 4.304314,-4.80154 l 83.959531,0.175548 c 2.19324,0.0046 3.774032,2.45246 3.774032,4.625992 V 34.666496 c 0,-2.173532 -1.757552,-3.923801 -3.950802,-3.923801 z"
             id="rect4358"
             inkscape:connector-curvature="0"
             sodipodi:nodetypes="sscsscsss" />
          <g
             id="g4111"
             transform="matrix(1.4386579,0,0,1.4386579,89.26212,-6.3241435)">
            <path
               style="fill:url(#radialGradient4210);fill-opacity:1;fill-rule:nonzero"
               id="path4253"
               d="m -79.857685,34.123204 h 61.801301 v 1.900651 h -61.801301 z"
               inkscape:connector-curvature="0" />
            <g
               id="g4178">
              <path
                 inkscape:connector-curvature="0"
                 d="m -20.164741,62.19609 3.406405,3.492737 V 87.518433 H -40.87788 Z"
                 id="path3934"
                 style="fill:url(#radialGradient3333-6);fill-rule:nonzero" />
              <path
                 inkscape:connector-curvature="0"
                 d="m -18.166079,29.019518 v 31 l -23.989655,29 h 1.919172 l 22.820159,-28.34375 0.20991,-0.28125 v -0.375 -30 z"
                 id="path3922"
                 style="fill:url(#linearGradient3335-7);fill-rule:nonzero" />
              <path
                 inkscape:connector-curvature="0"
                 d="m -41.954866,88.617783 26,-31 c -2.328567,2.776369 -4.36141,3 -11,3 h -12 v 15 c 0,6.644068 0.04437,9.370179 -3,13 z"
                 id="path4278"
                 style="fill:url(#linearGradient3341-2);fill-rule:nonzero" />
              <path
                 d="m -16.054215,57.668542 c -2.328567,2.776369 -4.36141,3 -11,3 h -12 v 15 c 0,6.644068 0.04437,9.370179 -3,13 4,-5 4.000382,-8.356667 4,-13 v -14 h 11 c 5,0 8.041405,-0.381883 11,-4 z"
                 id="path4282"
                 style="fill:#ffffff;fill-opacity:0.77120146;fill-rule:nonzero"
                 inkscape:connector-curvature="0" />
            </g>
          </g>
        </g>
        <g
           id="text6006"
           style="font-style:normal;font-variant:normal;font-weight:bold;font-stretch:normal;font-size:32.52197647px;line-height:125%;font-family:'Courier New';-inkscape-font-specification:'Courier New Bold';letter-spacing:0px;word-spacing:0px;opacity:0.89000005;fill:#000000;fill-opacity:0.11836733;stroke:#f7f9fc;stroke-width:1.07043731;stroke-miterlimit:4;stroke-opacity:1"
           transform="scale(1.1049827,0.90499151)">
          <g
             transform="translate(0,4.419931)"
             id="g7232">
            <rect
               style="opacity:0.77454541;fill:#e73647;fill-opacity:0.57959182;stroke:#22303c;stroke-width:0.38897705;stroke-linecap:round;stroke-linejoin:round;stroke-miterlimit:4;stroke-dasharray:none;stroke-dashoffset:0;stroke-opacity:1"
               id="rect6811"
               width="10.544089"
               height="7.0679049"
               x="32.212582"
               y="69.809845"
               ry="0" />
            <rect
               ry="0"
               y="69.809845"
               x="43.066986"
               height="7.0679049"
               width="8.7373304"
               id="rect6813"
               style="opacity:0.77454541;fill:#e73647;fill-opacity:0.57959182;stroke:#22303c;stroke-width:0.35408607;stroke-linecap:round;stroke-linejoin:round;stroke-miterlimit:4;stroke-dasharray:none;stroke-dashoffset:0;stroke-opacity:1" />
            <g
               transform="matrix(1.0144766,0,0,1.2665335,-34.879529,47.452826)"
               style="font-size:4px;line-height:125%;font-family:Impact;-inkscape-font-specification:'Impact Bold';opacity:0.77454541;fill:#000000;fill-opacity:1;stroke:none"
               id="text6827">
              <path
                 d="m 68.872955,19.548569 v 1.054687 c -2e-6,0.239584 -0.01302,0.414063 -0.03906,0.523438 -0.02604,0.109375 -0.08008,0.211589 -0.16211,0.30664 -0.08203,0.09505 -0.180991,0.163412 -0.296875,0.205078 -0.115886,0.04167 -0.245444,0.0625 -0.388671,0.0625 -0.188803,0 -0.345704,-0.02148 -0.470704,-0.06445 -0.125,-0.04427 -0.224609,-0.11263 -0.298828,-0.205078 -0.07422,-0.09245 -0.126953,-0.189453 -0.158203,-0.291015 -0.03125,-0.102864 -0.04687,-0.265625 -0.04687,-0.488282 v -1.103515 c 0,-0.290362 0.02474,-0.50781 0.07422,-0.652344 0.05078,-0.144528 0.15039,-0.260414 0.298828,-0.347656 0.149739,-0.08724 0.330728,-0.130856 0.542969,-0.13086 0.173176,4e-6 0.328123,0.0306 0.464844,0.0918 0.136717,0.0599 0.23893,0.133467 0.30664,0.220703 0.06771,0.08724 0.11328,0.18555 0.136719,0.294922 0.02474,0.109378 0.03711,0.283857 0.03711,0.523438 M 68.083902,19.28295 c -10e-7,-0.167966 -0.0085,-0.272784 -0.02539,-0.314453 -0.01563,-0.04297 -0.05339,-0.06445 -0.113281,-0.06445 -0.05859,3e-6 -0.09766,0.02279 -0.117188,0.06836 -0.01823,0.04427 -0.02734,0.147789 -0.02734,0.310547 v 1.542968 c -10e-7,0.183595 0.0085,0.294272 0.02539,0.332032 0.01823,0.03776 0.05664,0.05664 0.115235,0.05664 0.05859,10e-7 0.097,-0.02213 0.115234,-0.06641 0.01823,-0.04427 0.02734,-0.143879 0.02734,-0.298828 V 19.28295"
                 id="path6841"
                 inkscape:connector-curvature="0" />
              <path
                 d="m 71.021393,19.548569 v 1.054687 c -2e-6,0.239584 -0.01302,0.414063 -0.03906,0.523438 -0.02604,0.109375 -0.08008,0.211589 -0.162109,0.30664 -0.08203,0.09505 -0.180991,0.163412 -0.296875,0.205078 -0.115887,0.04167 -0.245444,0.0625 -0.388672,0.0625 -0.188803,0 -0.345704,-0.02148 -0.470703,-0.06445 -0.125001,-0.04427 -0.22461,-0.11263 -0.298828,-0.205078 -0.07422,-0.09245 -0.126954,-0.189453 -0.158203,-0.291015 -0.03125,-0.102864 -0.04687,-0.265625 -0.04687,-0.488282 v -1.103515 c 0,-0.290362 0.02474,-0.50781 0.07422,-0.652344 0.05078,-0.144528 0.150391,-0.260414 0.298829,-0.347656 0.149738,-0.08724 0.330728,-0.130856 0.542968,-0.13086 0.173176,4e-6 0.328124,0.0306 0.464844,0.0918 0.136717,0.0599 0.238931,0.133467 0.306641,0.220703 0.06771,0.08724 0.113279,0.18555 0.136718,0.294922 0.02474,0.109378 0.03711,0.283857 0.03711,0.523438 M 70.23233,19.282944 c -1e-6,-0.167966 -0.0085,-0.272784 -0.02539,-0.314453 -0.01563,-0.04297 -0.05339,-0.06445 -0.113282,-0.06445 -0.05859,3e-6 -0.09766,0.02279 -0.117187,0.06836 -0.01823,0.04427 -0.02734,0.147789 -0.02734,0.310547 v 1.542968 c -10e-7,0.183595 0.0085,0.294272 0.02539,0.332032 0.01823,0.03776 0.05664,0.05664 0.115234,0.05664 0.05859,1e-6 0.097,-0.02213 0.115235,-0.06641 0.01823,-0.04427 0.02734,-0.143879 0.02734,-0.298828 v -1.566406"
                 id="path6843"
                 inkscape:connector-curvature="0" />
              <path
                 d="m 72.917877,18.478256 v 2.066406 h 0.22461 v 0.539063 h -0.22461 v 0.556641 h -0.789062 v -0.556641 h -0.9375 v -0.539063 l 0.68164,-2.066406 h 1.044922 m -0.789062,2.066406 v -1.345703 l -0.347657,1.345703 h 0.347657"
                 id="path6845"
                 inkscape:connector-curvature="0" />
            </g>
            <g
               transform="matrix(1.0144766,0,0,1.2665335,-34.372295,47.452826)"
               style="font-size:4px;line-height:125%;font-family:Impact;-inkscape-font-specification:'Impact Bold';opacity:0.77454541;fill:#000000;fill-opacity:1;stroke:none"
               id="text6831">
              <path
                 d="m 80.872955,19.548569 v 1.054687 c -2e-6,0.239584 -0.01302,0.414063 -0.03906,0.523438 -0.02604,0.109375 -0.08008,0.211589 -0.16211,0.30664 -0.08203,0.09505 -0.180991,0.163412 -0.296875,0.205078 -0.115886,0.04167 -0.245444,0.0625 -0.388671,0.0625 -0.188803,0 -0.345704,-0.02148 -0.470704,-0.06445 -0.125,-0.04427 -0.224609,-0.11263 -0.298828,-0.205078 -0.07422,-0.09245 -0.126953,-0.189453 -0.158203,-0.291015 -0.03125,-0.102864 -0.04687,-0.265625 -0.04687,-0.488282 v -1.103515 c 0,-0.290362 0.02474,-0.50781 0.07422,-0.652344 0.05078,-0.144528 0.15039,-0.260414 0.298828,-0.347656 0.149739,-0.08724 0.330728,-0.130856 0.542969,-0.13086 0.173176,4e-6 0.328123,0.0306 0.464844,0.0918 0.136717,0.0599 0.23893,0.133467 0.30664,0.220703 0.06771,0.08724 0.11328,0.18555 0.136719,0.294922 0.02474,0.109378 0.03711,0.283857 0.03711,0.523438 M 80.083902,19.28295 c -10e-7,-0.167966 -0.0085,-0.272784 -0.02539,-0.314453 -0.01563,-0.04297 -0.05339,-0.06445 -0.113281,-0.06445 -0.05859,3e-6 -0.09766,0.02279 -0.117188,0.06836 -0.01823,0.04427 -0.02734,0.147789 -0.02734,0.310547 v 1.542968 c -10e-7,0.183595 0.0085,0.294272 0.02539,0.332032 0.01823,0.03776 0.05664,0.05664 0.115235,0.05664 0.05859,10e-7 0.097,-0.02213 0.115234,-0.06641 0.01823,-0.04427 0.02734,-0.143879 0.02734,-0.298828 V 19.28295"
                 id="path6836"
                 inkscape:connector-curvature="0" />
              <path
                 d="m 82.882721,18.478256 v 0.50586 h -0.978516 v 0.537109 c 0.122395,-0.144529 0.279947,-0.216795 0.472657,-0.216797 0.217446,2e-6 0.381508,0.0612 0.492187,0.183594 0.111977,0.121096 0.167967,0.354819 0.167969,0.701172 v 0.451172 c -2e-6,0.223959 -0.01107,0.388672 -0.0332,0.49414 -0.02084,0.104167 -0.06641,0.201172 -0.136719,0.291016 -0.07031,0.08854 -0.168622,0.156901 -0.294922,0.205078 -0.125001,0.04687 -0.277996,0.07031 -0.458984,0.07031 -0.203126,0 -0.382162,-0.03516 -0.53711,-0.105468 -0.154948,-0.07162 -0.264974,-0.177734 -0.330078,-0.31836 -0.0651,-0.140624 -0.09766,-0.358072 -0.09766,-0.652343 v -0.171875 h 0.789062 v 0.197265 c 0,0.204428 0.0072,0.34961 0.02148,0.435547 0.01432,0.08594 0.0638,0.128907 0.148437,0.128906 0.03906,1e-6 0.07031,-0.01237 0.09375,-0.03711 0.02474,-0.02474 0.03776,-0.05143 0.03906,-0.08008 0.0026,-0.02865 0.0052,-0.152994 0.0078,-0.373047 v -0.626953 c -10e-7,-0.118488 -0.01237,-0.199217 -0.03711,-0.242188 -0.02474,-0.04297 -0.06576,-0.06445 -0.123047,-0.06445 -0.03646,2e-6 -0.06706,0.01107 -0.0918,0.0332 -0.02474,0.02214 -0.04102,0.04623 -0.04883,0.07227 -0.0065,0.02474 -0.0098,0.08333 -0.0098,0.175781 h -0.78125 l 0.0332,-1.59375 h 1.693359"
                 id="path6838"
                 inkscape:connector-curvature="0" />
            </g>
            <path
               inkscape:transform-center-y="0.438461"
               transform="matrix(0.75607463,0,0,0.94392893,8.7885311,54.139282)"
               d="m 42.195511,22.60185 -0.908928,-1.551314 -0.889013,-1.562811 1.797941,-0.0115 1.797941,0.0115 -0.889013,1.562811 z"
               inkscape:randomized="0"
               inkscape:rounded="0"
               inkscape:flatsided="false"
               sodipodi:arg2="2.6179939"
               sodipodi:arg1="1.5707963"
               sodipodi:r2="1.0495394"
               sodipodi:r1="2.0760834"
               sodipodi:cy="20.525766"
               sodipodi:cx="42.195511"
               sodipodi:sides="3"
               id="path6874"
               style="opacity:0.77454541;fill:#000000;fill-opacity:0.57959182;stroke:none"
               sodipodi:type="star" />
            <g
               style="opacity:0.82909091"
               transform="matrix(1.0790509,0,0,1.0790509,-1.8568831,-6.2263974)"
               id="g7271">
              <circle
                 r="20.858912"
                 cy="55.874458"
                 cx="32.801037"
                 style="fill:#64e736;fill-opacity:1;stroke:none"
                 id="path7262"
                 transform="matrix(0.74267755,0,0,0.90679947,20.093972,-10.852935)" />
              <path
                 transform="matrix(0.74267755,0,0,0.90679947,20.093972,-10.852935)"
                 d="M 53.132892,60.533842 A 20.858912,20.858912 0 0 1 28.352108,76.253399 20.858912,20.858912 0 0 1 12.377189,51.63646 20.858912,20.858912 0 0 1 36.827652,35.407887 l -4.026615,20.466571 z"
                 sodipodi:ry="20.858912"
                 sodipodi:rx="20.858912"
                 sodipodi:cy="55.874458"
                 sodipodi:cx="32.801037"
                 id="path7269"
                 style="fill:#d80000;fill-opacity:1;stroke:none"
                 sodipodi:type="arc"
                 sodipodi:start="0.2252768"
                 sodipodi:end="4.906649" />
              <path
                 style="fill:#272727;fill-opacity:1;stroke:none"
                 d="m 59.106428,33.673354 c 0.273574,1.387206 0.417756,2.845898 0.417756,4.335635 0,10.167281 -6.735327,18.391026 -15.062429,18.391026 -8.327102,0 -15.085638,-8.223745 -15.085638,-18.391026 0,-1.449761 0.135045,-2.86912 0.394548,-4.222285 -0.520333,1.892221 -0.812304,3.929652 -0.812304,6.035883 0,10.446383 6.947705,18.901102 15.503394,18.901102 8.55569,0 15.480185,-8.454719 15.480185,-18.901102 0,-2.148843 -0.29483,-4.224268 -0.835512,-6.149233 z"
                 id="path7264"
                 inkscape:connector-curvature="0" />
            </g>
            <path
               inkscape:connector-curvature="0"
               inkscape:original-d="m 63.834954,27.069414 13.980687,-0.023"
               inkscape:path-effect="#path-effect7288"
               id="path7286"
               d="m 63.834954,27.069414 13.980687,-0.023"
               style="opacity:0.7309091;fill:none;stroke:#252e35;stroke-width:0.60000002;stroke-linecap:butt;stroke-linejoin:miter;stroke-miterlimit:4;stroke-dasharray:none;stroke-opacity:1" />
            <path
               style="opacity:0.7309091;fill:none;stroke:#252e35;stroke-width:0.60000002;stroke-linecap:butt;stroke-linejoin:miter;stroke-miterlimit:4;stroke-dasharray:none;stroke-opacity:1"
               d="m 63.834954,40.329204 13.980687,-0.023"
               id="path7290"
               inkscape:path-effect="#path-effect7296"
               inkscape:original-d="m 63.834954,40.329204 13.980687,-0.023"
               inkscape:connector-curvature="0" />
            <path
               inkscape:connector-curvature="0"
               inkscape:original-d="m 63.834954,33.699309 13.980687,-0.023"
               inkscape:path-effect="#path-effect7294"
               id="path7292"
               d="m 63.834954,33.699309 13.980687,-0.023"
               style="opacity:0.7309091;fill:none;stroke:#252e35;stroke-width:0.60000002;stroke-linecap:butt;stroke-linejoin:miter;stroke-miterlimit:4;stroke-dasharray:none;stroke-opacity:1" />
            <path
               style="opacity:0.7309091;fill:none;stroke:#252e35;stroke-width:0.60000002;stroke-linecap:butt;stroke-linejoin:miter;stroke-miterlimit:4;stroke-dasharray:none;stroke-opacity:1"
               d="m 63.834954,20.439519 13.980687,-0.023"
               id="path7298"
               inkscape:path-effect="#path-effect7300"
               inkscape:original-d="m 63.834954,20.439519 13.980687,-0.023"
               inkscape:connector-curvature="0" />
          </g>
        </g>
        <path
           inkscape:connector-curvature="0"
           style="opacity:0.27999998;fill:url(#linearGradient4136);fill-opacity:1;stroke:none"
           d="m 6.4062495,14.796873 c -2.168522,0 -3.90625,1.74244 -3.90625,3.90625 v 70.593754 c 0,2.16381 1.737728,3.90625 3.90625,3.90625 H 89.59375 c 2.16852,0 3.90625,-1.74244 3.90625,-3.90625 V 18.703123 c 0,-2.16381 -1.73773,-3.90625 -3.90625,-3.90625 z"
           id="rect4371"
           inkscape:transform-center-x="-35.678407"
           inkscape:transform-center-y="-102.51261" />
      </g>
      <path
         id="path4118"
         d="m 1.6489535,82.258776 v 6 c 0,3.680142 2.9761066,6.65625 6.6562496,6.65625 H 87.992703 c 3.680143,0 6.656254,-2.976108 6.656254,-6.65625 v -6 c 0,3.680142 -2.976111,6.65625 -6.656254,6.65625 H 8.3052031 c -3.680143,0 -6.6562496,-2.976108 -6.6562496,-6.65625 z"
         style="display:inline;opacity:0.65818182;fill:url(#linearGradient4129);fill-opacity:1;fill-rule:nonzero;stroke:none"
         inkscape:connector-curvature="0" />
      <rect
         ry="4.25"
         rx="0"
         y="80.665031"
         x="5.5239539"
         height="4.25"
         width="84.250008"
         id="rect4131"
         style="opacity:0.55;fill:url(#radialGradient7462);fill-opacity:1;stroke:none" />
      <rect
         transform="rotate(90)"
         style="opacity:0.669;fill:url(#radialGradient7464);fill-opacity:1;stroke:none"
         id="rect4141"
         width="76.75"
         height="4.25"
         x="5.9750223"
         y="-90.233963"
         rx="0"
         ry="4.25" />
      <rect
         clip-path="url(#clipPath4156-4-1)"
         ry="3.9569881"
         rx="3.9569874"
         y="-30"
         x="2"
         height="69.024437"
         width="75.965775"
         id="rect4146"
         style="opacity:0.5078125;fill:url(#linearGradient4767);fill-opacity:1;stroke:none"
         transform="matrix(1.0692451,0,0,1.0476829,4.4441802,38.894013)" />
    </g>
  </g>
</svg>
