<?xml version="1.0" encoding="UTF-8" standalone="no"?>
<!-- Created with Inkscape (http://www.inkscape.org/) -->

<svg
   xmlns:dc="http://purl.org/dc/elements/1.1/"
   xmlns:cc="http://creativecommons.org/ns#"
   xmlns:rdf="http://www.w3.org/1999/02/22-rdf-syntax-ns#"
   xmlns:svg="http://www.w3.org/2000/svg"
   xmlns="http://www.w3.org/2000/svg"
   xmlns:xlink="http://www.w3.org/1999/xlink"
   xmlns:sodipodi="http://sodipodi.sourceforge.net/DTD/sodipodi-0.dtd"
   xmlns:inkscape="http://www.inkscape.org/namespaces/inkscape"
   width="96"
   height="96"
   viewBox="0 0 96.000001 96.000004"
   version="1.1"
   id="svg1072"
   inkscape:version="0.92.2 5c3e80d, 2017-08-06"
   sodipodi:docname="emblem-documentinfo.svg">
  <defs
     id="defs1066">
    <linearGradient
       y2="47.000011"
       x2="90"
       y1="47.000011"
       x1="6"
       gradientTransform="matrix(1.1071428,0,0,1.1071426,-4.9939026,-3.620687)"
       gradientUnits="userSpaceOnUse"
       id="linearGradient4071"
       xlink:href="#linearGradient6139-0"
       inkscape:collect="always" />
    <linearGradient
       id="linearGradient6139-0">
      <stop
         style="stop-color:#adbbc1;stop-opacity:1"
         offset="0"
         id="stop6141-2" />
      <stop
         id="stop6151-0"
         offset="0.25"
         style="stop-color:#ffffff;stop-opacity:1;" />
      <stop
         id="stop6147-1"
         offset="0.5"
         style="stop-color:#90a2aa;stop-opacity:1" />
      <stop
         style="stop-color:#f9fafb;stop-opacity:1"
         offset="0.75"
         id="stop6149-4" />
      <stop
         style="stop-color:#adbcc1;stop-opacity:1"
         offset="1"
         id="stop6143-4" />
    </linearGradient>
    <linearGradient
       gradientUnits="userSpaceOnUse"
       y2="88.171875"
       x2="94.5"
       y1="88.171875"
       x1="1.5"
       id="linearGradient4129"
       xlink:href="#linearGradient3832-0-6-1-1"
       inkscape:collect="always"
       gradientTransform="translate(0.1489535,0.415026)" />
    <linearGradient
       id="linearGradient3832-0-6-1-1">
      <stop
         id="stop3834-6-3-7-1"
         offset="0"
         style="stop-color:#000000;stop-opacity:1;" />
      <stop
         style="stop-color:#000000;stop-opacity:0.58823532;"
         offset="0.1"
         id="stop3872-2-4" />
      <stop
         id="stop3844-6-2-7-6"
         offset="0.89999998"
         style="stop-color:#000000;stop-opacity:0.58823532;" />
      <stop
         id="stop3836-5-0-2-9"
         offset="1"
         style="stop-color:#000000;stop-opacity:1;" />
    </linearGradient>
    <radialGradient
       r="43.199203"
       fy="44.892841"
       fx="13.948145"
       cy="44.892841"
       cx="13.948145"
       gradientTransform="matrix(0.97513378,0,0,0.04919072,34.047649,80.581722)"
       gradientUnits="userSpaceOnUse"
       id="radialGradient7462"
       xlink:href="#linearGradient3737"
       inkscape:collect="always" />
    <linearGradient
       id="linearGradient3737">
      <stop
         id="stop3739"
         style="stop-color:#ffffff;stop-opacity:1"
         offset="0" />
      <stop
         id="stop3741"
         style="stop-color:#ffffff;stop-opacity:0"
         offset="1" />
    </linearGradient>
    <radialGradient
       r="43.199203"
       fy="44.892841"
       fx="13.948145"
       cy="44.892841"
       cx="13.948145"
       gradientTransform="matrix(0.88832663,0,0,0.04919072,31.959518,-90.31726)"
       gradientUnits="userSpaceOnUse"
       id="radialGradient7464"
       xlink:href="#linearGradient3737"
       inkscape:collect="always" />
    <linearGradient
       y2="14.514202"
       x2="50.527882"
       y1="-28.64156"
       x1="2.7713892"
       gradientUnits="userSpaceOnUse"
       id="linearGradient4767"
       xlink:href="#linearGradient3737"
       inkscape:collect="always" />
    <clipPath
       clipPathUnits="userSpaceOnUse"
       id="clipPath4156-4-1">
      <path
         style="opacity:0.6;fill:#ffffff;fill-opacity:1;stroke:none"
         d="m 27.046336,-55.695463 -14.21366,13.321486 h 0.06127 l 15.653407,21.770763 10.231384,-10.546177 C 38.561832,-32.30156 27.468089,-54.819245 27.046336,-55.695463 Z M 9.6468554,-39.382809 -5.2407289,-25.32124 15.987863,-7.8059573 26.372412,-18.382966 Z m 31.4906096,12.951445 -9.741259,9.713584 8.944804,12.4580526 7.780753,-7.5550056 z m -49.8397109,4.378822 -13.7541661,12.9822847 26.2830181,13.84571 0.06127,-0.0617 -0.122531,-0.0617 L 13.598503,-5.4007374 -8.7022409,-22.052595 Z m 38.0154159,7.400825 -9.802525,9.7752596 11.579232,9.5594001 7.62759,-7.40083 -8.669108,-11.0087257 z m 20.187073,5.6739697 -7.382526,7.2158 6.187844,8.54179 5.820249,-6.13651996 z m -32.195166,6.32154 -9.5574606,9.49772 13.6622686,7.1849703 7.933918,-7.6783603 z m 23.311629,2.37443004 -7.10683,6.93826996 8.362778,6.9074403 5.360756,-5.6739699 -0.06127,-0.0925 -0.0919,0.12335 -6.463539,-8.20258036 z m -8.730374,8.54178036 -7.505057,7.3391599 10.353916,5.45811 c 1.397496,-1.32103 5.67514,-6.12292 5.850882,-6.32154 z"
         id="path4158-0-8"
         inkscape:connector-curvature="0" />
    </clipPath>
    <linearGradient
       gradientTransform="translate(0,1)"
       gradientUnits="userSpaceOnUse"
       xlink:href="#linearGradient3731-5"
       id="linearGradient3664-2"
       y2="16.972879"
       x2="46.654823"
       y1="75.561722"
       x1="48.082497" />
    <linearGradient
       id="linearGradient3731-5">
      <stop
         offset="0"
         style="stop-color:#eaecee;stop-opacity:1;"
         id="stop3733-2" />
      <stop
         offset="0.30654153"
         style="stop-color:#eaedee;stop-opacity:1;"
         id="stop3757-7" />
      <stop
         offset="0.70706075"
         style="stop-color:#f8f9fa;stop-opacity:1;"
         id="stop3737-1" />
      <stop
         offset="0.84501493"
         style="stop-color:#e5e8ea;stop-opacity:1;"
         id="stop3759-0" />
      <stop
         offset="1"
         style="stop-color:#ecf0f4;stop-opacity:1;"
         id="stop3735-2" />
    </linearGradient>
  </defs>
  <sodipodi:namedview
     id="base"
     pagecolor="#ffffff"
     bordercolor="#666666"
     borderopacity="1.0"
     inkscape:pageopacity="0.0"
     inkscape:pageshadow="2"
     inkscape:zoom="1.7760417"
     inkscape:cx="-128.8189"
     inkscape:cy="48"
     inkscape:document-units="px"
     inkscape:current-layer="g2574"
     showgrid="false"
     inkscape:showpageshadow="false"
     units="px"
     inkscape:lockguides="true"
     inkscape:window-width="1280"
     inkscape:window-height="941"
     inkscape:window-x="0"
     inkscape:window-y="22"
     inkscape:window-maximized="1">
    <sodipodi:guide
       position="0,0"
       orientation="0,96"
       id="guide1621"
       inkscape:locked="true" />
    <sodipodi:guide
       position="96.000002,0"
       orientation="-96,0"
       id="guide1623"
       inkscape:locked="true" />
    <sodipodi:guide
       position="96.000002,96.000002"
       orientation="0,-96"
       id="guide1625"
       inkscape:locked="true" />
    <sodipodi:guide
       position="0,96.000002"
       orientation="96,0"
       id="guide1627"
       inkscape:locked="true" />
  </sodipodi:namedview>
  <metadata
     id="metadata1069">
    <rdf:RDF>
      <cc:Work
         rdf:about="">
        <dc:format>image/svg+xml</dc:format>
        <dc:type
           rdf:resource="http://purl.org/dc/dcmitype/StillImage" />
        <dc:title />
        <dc:date>2017</dc:date>
        <dc:creator>
          <cc:Agent>
            <dc:title>Cristian Pozzessere &quot;ilnanny&quot;</dc:title>
          </cc:Agent>
        </dc:creator>
        <dc:subject>
          <rdf:Bag>
            <rdf:li>Global language</rdf:li>
          </rdf:Bag>
        </dc:subject>
        <dc:description>Playing with Inkscape on Gnu/Linux O. S.</dc:description>
        <dc:contributor>
          <cc:Agent>
            <dc:title>In the night, alone like a dog.</dc:title>
          </cc:Agent>
        </dc:contributor>
        <cc:license
           rdf:resource="http://creativecommons.org/licenses/by-sa/4.0/" />
      </cc:Work>
      <cc:License
         rdf:about="http://creativecommons.org/licenses/by-sa/4.0/">
        <cc:permits
           rdf:resource="http://creativecommons.org/ns#Reproduction" />
        <cc:permits
           rdf:resource="http://creativecommons.org/ns#Distribution" />
        <cc:requires
           rdf:resource="http://creativecommons.org/ns#Notice" />
        <cc:requires
           rdf:resource="http://creativecommons.org/ns#Attribution" />
        <cc:permits
           rdf:resource="http://creativecommons.org/ns#DerivativeWorks" />
        <cc:requires
           rdf:resource="http://creativecommons.org/ns#ShareAlike" />
      </cc:License>
    </rdf:RDF>
  </metadata>
  <g
     inkscape:label="Livello 1"
     inkscape:groupmode="layer"
     id="layer1"
     transform="translate(0,-1026.5197)">
    <g
       transform="translate(-0.14895645,1026.1047)"
       style="display:inline"
       id="g2574">
      <path
         inkscape:connector-curvature="0"
         id="path3288"
         d="M 89.29181,0.415026 H 7.0060911 c -3.798848,0 -6.8571352,3.058285 -6.8571352,6.8571399 V 89.557884 c 0,3.798857 3.0582872,6.857142 6.8571352,6.857142 H 89.29181 c 3.798857,0 6.857147,-3.058285 6.857147,-6.857142 V 7.2721659 c 0,-3.7988549 -3.05829,-6.8571399 -6.857147,-6.8571399 z"
         style="display:inline;opacity:0.15;fill:#000000;fill-opacity:1;fill-rule:nonzero;stroke:none" />
      <path
         style="display:inline;opacity:0.15;fill:#000000;fill-opacity:1;fill-rule:nonzero;stroke:none"
         d="M 88.648954,1.165026 H 7.6489471 c -3.739492,0 -6.749993,3.010499 -6.749993,6.7499969 V 88.915026 c 0,3.739501 3.010501,6.75 6.749993,6.75 H 88.648954 c 3.739503,0 6.750003,-3.010499 6.750003,-6.75 V 7.9150229 c 0,-3.7394979 -3.0105,-6.7499969 -6.750003,-6.7499969 z"
         id="path4085"
         inkscape:connector-curvature="0" />
      <path
         inkscape:connector-curvature="0"
         id="rect4251-1"
         d="M 88.006093,1.915026 H 8.2918111 c -3.680143,0 -6.6428566,2.962713 -6.6428566,6.6428549 V 88.272171 c 0,3.680142 2.9627136,6.642856 6.6428566,6.642856 H 88.006093 c 3.680143,0 6.642854,-2.962714 6.642854,-6.642856 V 8.5578809 c 0,-3.6801419 -2.962711,-6.6428549 -6.642854,-6.6428549 z"
         style="display:inline;fill:url(#linearGradient4071);fill-opacity:1;fill-rule:nonzero;stroke:none" />
      <path
         sodipodi:nodetypes="sscccsccscccsss"
         inkscape:connector-curvature="0"
         id="path3400-6"
         d="m 11.390247,6.8021682 c -2.8564964,0 -5.1241284,2.2883782 -5.1241284,5.1710028 v 21.42734 7.239403 39.913674 c 1.0972399,1.684484 2.9688485,2.811732 5.1241284,2.811732 h 4.099303 65.588849 4.099302 c 2.155281,0 4.026889,-1.127248 5.124129,-2.811732 V 40.639914 33.400511 11.973171 c 0,-2.8826246 -2.267632,-5.1710028 -5.124129,-5.1710028 z"
         style="display:inline;opacity:0.927;fill:#75b2ef;fill-opacity:1;fill-rule:nonzero;stroke:none;stroke-width:1.02950251" />
      <path
         style="color:#000000;font-style:normal;font-variant:normal;font-weight:normal;font-stretch:normal;font-size:medium;line-height:normal;font-family:Sans;-inkscape-font-specification:Sans;text-indent:0;text-align:start;text-decoration:none;text-decoration-line:none;letter-spacing:normal;word-spacing:normal;text-transform:none;writing-mode:lr-tb;direction:ltr;baseline-shift:baseline;text-anchor:start;display:inline;overflow:visible;visibility:visible;fill:#241f1f;fill-opacity:0.63265303;stroke:none;stroke-width:2.3755002;marker:none;enable-background:accumulate"
         d="m 9.9740341,5.1444869 c -3.116621,0 -5.667965,2.53951 -5.667965,5.6460041 v 69.277996 c 0,3.106495 2.551344,5.646004 5.667965,5.646004 H 86.765819 c 3.116621,0 5.667968,-2.539509 5.667968,-5.646004 V 10.790491 c 0,-3.1064931 -2.551347,-5.6460041 -5.667968,-5.6460041 z m 0,2.319439 H 86.765819 c 1.888099,0 3.352022,1.480095 3.352022,3.3265651 v 69.277996 c 0,1.846474 -1.463923,3.326564 -3.352022,3.326564 H 9.9740341 c -1.888099,0 -3.352022,-1.48009 -3.352022,-3.326564 V 10.790491 c 0,-1.8464701 1.463923,-3.3265651 3.352022,-3.3265651 z"
         id="path4989"
         inkscape:connector-curvature="0" />
      <path
         id="path4118"
         d="m 1.6489535,82.258776 v 6 c 0,3.680142 2.9761066,6.65625 6.6562496,6.65625 H 87.992703 c 3.680143,0 6.656254,-2.976108 6.656254,-6.65625 v -6 c 0,3.680142 -2.976111,6.65625 -6.656254,6.65625 H 8.3052031 c -3.680143,0 -6.6562496,-2.976108 -6.6562496,-6.65625 z"
         style="display:inline;opacity:0.65818182;fill:url(#linearGradient4129);fill-opacity:1;fill-rule:nonzero;stroke:none"
         inkscape:connector-curvature="0" />
      <g
         style="display:inline"
         id="g3629"
         transform="translate(0.14895645,-1.8274463)">
        <path
           d="m 48,13.75 c -20.116904,0 -37.25,13.555598 -37.25,31.25 0,10.082276 5.917985,18.697557 14.34375,24.28125 -0.156911,0.525325 -0.266588,1.03901 -0.625,1.59375 -0.919882,1.423768 -2.132056,2.647096 -4.84375,3.4375 -0.01115,0.0032 -0.02005,-0.0032 -0.03125,0 -0.01706,0.0041 -0.01361,-0.0051 -0.03125,0 -0.06018,0.01709 -0.127309,0.03202 -0.125,0.03125 0.0027,-9.11e-4 -0.10648,0.04343 -0.15625,0.0625 -0.01244,0.0048 -0.03191,0.03154 -0.03125,0.03125 l -0.125,0.03125 a 1.2011555,1.2011555 0 0 0 -0.03125,0 V 74.5 a 1.2011555,1.2011555 0 0 0 -0.0625,0 1.2011555,1.2011555 0 0 0 0,0.03125 1.2011555,1.2011555 0 0 0 -0.03125,0 1.2011555,1.2011555 0 0 0 -0.125,0.0625 1.2011555,1.2011555 0 0 0 -0.09375,0.03125 c 0,0 -0.04304,0.06225 -0.09375,0.09375 a 1.2011555,1.2011555 0 0 0 -0.03125,0 c -0.01203,0.0075 -0.0194,0.02387 -0.03125,0.03125 -0.0071,0.0044 -0.02439,-0.0043 -0.03125,0 3.11e-4,-0.0016 -0.02944,4.53e-4 -0.03125,0 -0.01135,0.0055 0.0064,0.02802 0,0.03125 -0.0064,0.0032 -0.02556,-0.0029 -0.03125,0 -0.0173,0.0078 -0.0138,-0.0022 -0.0625,0.03125 a 1.2011555,1.2011555 0 0 0 -0.0625,0.03125 c -0.02259,0.01561 -0.0032,0.01018 -0.03125,0.03125 -0.08339,0.05003 -0.01856,0.02974 -0.0625,0.0625 2.55e-4,-0.0016 -0.02938,4.14e-4 -0.03125,0 A 1.2011555,1.2011555 0 0 0 18.21875,75 c -0.02131,0.01331 0.0037,0.0063 -0.03125,0.03125 -0.02227,0.01587 -0.0025,-0.0216 -0.03125,0 a 1.2011555,1.2011555 0 0 0 -0.0625,0.03125 c -2e-4,9.87e-4 -0.0036,0.03323 0,0.03125 0.0036,-0.002 -0.035,0.0024 -0.03125,0 a 1.2011555,1.2011555 0 0 0 -0.21875,0.1875 c 0,0 -0.03924,0.06292 -0.09375,0.125 -0.02725,0.03104 -0.07117,0.03661 -0.09375,0.0625 -0.0056,0.0065 0.0051,0.02544 0,0.03125 -0.0051,0.0058 -0.02656,-0.0054 -0.03125,0 -0.0011,6.63e-4 0.0026,0.02921 0,0.03125 -0.0076,0.0071 0.0073,0.02449 0,0.03125 a 1.2011555,1.2011555 0 0 0 -0.03125,0.03125 1.2011555,1.2011555 0 0 0 -0.03125,0 c -0.0052,0.0048 0.0042,0.02735 0,0.03125 a 1.2011555,1.2011555 0 0 0 -0.03125,0 c -0.0029,0.0027 0.0016,0.02973 0,0.03125 -0.0018,0.0017 -0.03125,-5e-6 -0.03125,0 a 1.2011555,1.2011555 0 0 0 -0.0625,0.0625 c 0,0 -0.05453,0.07039 -0.09375,0.125 -0.01961,0.02731 -0.01399,0.03821 -0.03125,0.0625 -0.0048,0.0068 -0.03376,0.03711 -0.03125,0.03125 A 1.2011555,1.2011555 0 0 0 17.25,75.96875 1.2011555,1.2011555 0 0 0 17.25,76 c -0.01159,0.01821 0.0056,-0.03024 -0.03125,0.03125 A 1.2011555,1.2011555 0 0 0 17.1875,76.0625 c 0.0076,-0.01071 -0.03409,0.08806 0,0.03125 -0.0066,0.01 -0.02415,-0.01127 -0.03125,0 -0.006,0.0091 0.0056,0.02198 0,0.03125 a 1.2011555,1.2011555 0 0 0 -0.0625,0.0625 1.2011555,1.2011555 0 0 0 -0.0625,0.125 c -0.0021,0.0039 1.5e-5,0.03121 0,0.03125 -0.0078,0.01754 -0.03697,0.06771 -0.0625,0.125 -0.01543,0.03462 -0.01866,0.06536 -0.03125,0.09375 -0.01259,0.02839 -0.0061,-0.04717 -0.0625,0.09375 0.103876,-0.259716 0.05856,-0.162006 -0.03125,0.0625 -0.01017,0.0212 -0.02229,0.0089 -0.03125,0.03125 -0.008,0.02004 0.0069,0.01183 0,0.03125 L 16.75,76.9375 a 1.2011555,1.2011555 0 0 0 -0.0625,0.3125 1.2011555,1.2011555 0 0 0 0,0.03125 c -0.0082,0.01102 -0.0625,0.06249 -0.0625,0.0625 -0.0055,0.02756 0.004,0.0078 0,0.03125 -0.0027,0.01126 0.0023,0.01981 0,0.03125 -0.0042,0.01621 -0.02797,0.01485 -0.03125,0.03125 -0.0042,0.02103 0.0032,0.01174 0,0.03125 L 16.5625,77.625 a 1.2011555,1.2011555 0 0 0 0,0.03125 c -0.0055,0.02741 0.004,0.0079 0,0.03125 -0.0027,0.01126 0.0023,0.01981 0,0.03125 -0.0046,0.02317 0.0033,0.01139 0,0.03125 -0.0014,0.0065 -0.02995,-0.0065 -0.03125,0 -0.02535,0.126737 -0.001,0.114057 0,0.1875 A 1.2011555,1.2011555 0 0 0 16.5,78.25 v 0.1875 a 1.2011555,1.2011555 0 0 0 0,0.09375 1.2011555,1.2011555 0 0 0 0,0.03125 v 0.03125 a 1.2011555,1.2011555 0 0 0 0,0.09375 1.2011555,1.2011555 0 0 0 0,0.0625 c 0,0 -0.0077,0.06251 0,0.125 0.0038,0.03125 0.02777,0.03514 0.03125,0.0625 0.0035,0.02736 -0.04918,-0.08964 0,0.15625 0.0033,0.01647 0.02708,0.01498 0.03125,0.03125 0.0025,0.0098 -0.0028,0.02148 0,0.03125 0.004,0.02339 -0.0055,0.0038 0,0.03125 a 1.2011555,1.2011555 0 0 0 0,0.03125 l 0.03125,0.15625 a 1.2011555,1.2011555 0 0 0 0.125,0.28125 1.2011555,1.2011555 0 0 0 0,0.03125 c -7.1e-4,0.01656 -2e-6,0.09374 0,0.09375 0.009,0.02249 0.02105,0.01 0.03125,0.03125 0.0102,0.02126 0.02005,0.01121 0.03125,0.03125 -5.37e-4,-0.0043 0.0414,0.134781 0,0.03125 a 1.2011555,1.2011555 0 0 0 0,0.03125 l 0.0625,0.15625 a 1.2011555,1.2011555 0 0 0 0,0.03125 c 0.009,0.02239 0.02108,0.01006 0.03125,0.03125 0.01017,0.02119 0.02007,0.01127 0.03125,0.03125 0.0044,0.009 -0.0048,0.02234 0,0.03125 a 1.2011555,1.2011555 0 0 0 0,0.03125 1.2011555,1.2011555 0 0 0 0.03125,0.03125 1.2011555,1.2011555 0 0 0 0,0.03125 1.2011555,1.2011555 0 0 0 0.03125,0.03125 1.2011555,1.2011555 0 0 0 0.0625,0.125 1.2011555,1.2011555 0 0 0 0,0.03125 1.2011555,1.2011555 0 0 0 0.03125,0.09375 l 0.09375,0.15625 c -0.0021,-0.0035 0.127451,0.190791 0.125,0.1875 l 0.09375,0.125 a 1.2011555,1.2011555 0 0 0 0.25,0.25 1.2011555,1.2011555 0 0 0 0.0625,0.03125 c 0.03396,0.03875 -0.01591,0.01534 0.03125,0.0625 a 1.2011555,1.2011555 0 0 0 0.09375,0.09375 c 0,0 0.02413,0.03173 0.0625,0.0625 0.0061,0.0049 0.02927,-0.0018 0.03125,0 l 0.03125,0.03125 c 0.0017,0.0018 0.01733,0.02046 0.03125,0.03125 A 1.2011555,1.2011555 0 0 0 18,81.625 c 4.4e-5,3.7e-5 0.02773,-0.0024 0.03125,0 0.0022,0.0015 -0.0033,0.02902 0,0.03125 A 1.2011555,1.2011555 0 0 0 18.125,81.75 h 0.03125 A 1.2011555,1.2011555 0 0 0 18.25,81.84375 c -0.261615,-0.196184 -0.1894,-0.134223 0.03125,0.03125 0.04616,0.03462 0.03062,0.0106 0.0625,0.03125 a 1.2011555,1.2011555 0 0 0 0.21875,0.15625 c 0,0 0.08702,0.03165 0.15625,0.0625 0.03462,0.01543 0.06536,0.01866 0.09375,0.03125 0.02839,0.01259 -0.04735,0.0061 0.09375,0.0625 -0.260051,-0.10401 -0.161888,-0.05853 0.0625,0.03125 0.02117,0.01016 0.0089,0.0223 0.03125,0.03125 0.02002,0.008 0.01185,-0.0069 0.03125,0 l 0.15625,0.0625 0.15625,0.0625 a 1.2011555,1.2011555 0 0 0 0.3125,0.0625 c 0.0039,0.0028 0.02816,-0.0023 0.03125,0 0.01094,0.008 0.06249,0.0625 0.0625,0.0625 0.02753,0.0055 0.0078,-0.004 0.03125,0 0.0097,0.0028 0.02143,-0.0025 0.03125,0 0.01622,0.0042 0.01484,0.02797 0.03125,0.03125 0.02105,0.0042 0.01174,-0.0032 0.03125,0 l 0.15625,0.03125 a 1.2011555,1.2011555 0 0 0 0.1875,0 c -0.0023,-1.31e-4 0.127276,0 0.125,0 -0.0017,0 0.05646,0.0011 0.09375,0 0.01122,0.0012 0.02004,-0.0011 0.03125,0 -2.2e-5,8.21e-4 1.8e-5,0.03125 0,0.03125 0.0087,-2e-6 0.01947,0 0.03125,0 0.01178,0 0.05383,-2e-6 0.0625,0 v -0.03125 c 9.75377,0.958306 16.717111,-3.140306 20.90625,-6.9375 C 43.560015,75.990982 45.704673,76.25 48,76.25 68.116904,76.25 85.25,62.694402 85.25,45 85.25,27.305598 68.116904,13.75 48,13.75 Z m -27.5625,68.5 a 1.2011555,1.2011555 0 0 0 0.03125,0 v 0.15625 z"
           transform="translate(0,1)"
           id="path3724"
           style="display:inline;opacity:0.05;fill:#000000;fill-opacity:1;stroke:none"
           inkscape:connector-curvature="0" />
        <path
           d="m 48,14.9375 c -19.579201,0 -36.0625,13.148394 -36.0625,30.0625 0,9.944956 5.976427,18.49076 14.59375,23.875 -0.219981,0.833558 -0.436479,1.687311 -1.0625,2.65625 -1.031358,1.596307 -2.547994,3.075738 -5.53125,3.9375 -0.01077,0.0031 -0.02044,-0.0031 -0.03125,0 a 1.0827956,1.0827956 0 0 0 -0.1875,0.0625 l -0.15625,0.0625 0.40625,1 c -0.21083,-0.498642 -0.430172,-1.002932 -0.4375,-1 -0.01466,0.0059 -0.01172,0.02344 -0.03125,0.03125 -0.01953,0.0078 -0.0479,0.02541 -0.0625,0.03125 -0.0146,0.0058 -0.03125,0 -0.03125,0 0,0 -0.238337,0.147502 -0.25,0.15625 -0.01166,0.0087 -0.04687,0.01953 -0.0625,0.03125 0.01466,-0.0088 -0.0625,0.03125 -0.0625,0.03125 C 19.02,75.8817 19.00877,75.90099 19,75.90625 c -0.01461,0.0088 -0.03125,0 -0.03125,0 0,0 -0.08203,0.08496 -0.09375,0.09375 -0.01172,0.0088 -0.04687,0.01953 -0.0625,0.03125 -0.01563,0.01172 -0.01957,0.02249 -0.03125,0.03125 -0.01168,0.0088 -0.03125,0 -0.03125,0 0,0 -0.210012,0.238349 -0.21875,0.25 -0.0087,0.01165 -0.01953,0.01562 -0.03125,0.03125 -0.006,0.006 0.0063,0.025 0,0.03125 -0.0023,0.003 -0.02911,-0.0028 -0.03125,0 -0.01328,0.01555 -0.03125,0.03125 -0.03125,0.03125 -0.01168,0.01168 -0.03125,0.03125 -0.03125,0.03125 0,0 -0.147484,0.20414 -0.15625,0.21875 -0.0088,0.01461 -0.01953,0.04296 -0.03125,0.0625 -0.01172,0.01954 -0.02245,0.01659 -0.03125,0.03125 -0.0088,0.01466 -0.03125,0.03125 -0.03125,0.03125 -0.0043,0.0057 0.0035,0.02658 0,0.03125 -0.0087,0.01166 -0.03125,0 -0.03125,0 0,0 -0.119159,0.266646 -0.125,0.28125 -0.0058,0.0146 -0.02343,0.04296 -0.03125,0.0625 -0.0078,0.01954 -0.02538,0.01659 -0.03125,0.03125 -0.0059,0.01466 0,0.03125 0,0.03125 l -0.0625,0.15625 1,0.40625 1.03125,0.34375 c 0,0 -2.090832,-0.545842 -2.09375,-0.53125 -0.0029,0.01459 0.0039,0.04297 0,0.0625 -0.0039,0.01953 -0.02832,0.01659 -0.03125,0.03125 -0.0029,0.01466 0,0.03125 0,0.03125 L 17.75,77.875 l 0.71875,0.15625 c -0.324382,-0.05392 -0.717756,-0.12997 -0.71875,-0.125 -0.0029,0.01467 0.0039,0.04296 0,0.0625 -0.0039,0.01954 -0.02833,0.01666 -0.03125,0.03125 -0.0029,0.01459 0,0.03125 0,0.03125 L 18.78125,78.25 H 17.6875 v 0.1875 h 1.09375 c -0.541299,0.0092 -1.09375,0.02392 -1.09375,0.03125 1e-6,0.01466 -1e-6,0.04296 0,0.0625 1e-6,0.01954 0,0.01665 0,0.03125 0,0.0146 0,0.03125 0,0.03125 0,0 0.02833,0.235394 0.03125,0.25 0.0029,0.01461 0.02734,0.01171 0.03125,0.03125 0.0039,0.01954 -0.0029,0.04785 0,0.0625 0.0029,0.01465 0,0.03125 0,0.03125 L 17.78125,79.125 18.84375,78.90625 19.875,78.625 c 0,0 -2.037092,0.704147 -2.03125,0.71875 0.0058,0.0146 0.02344,0.01171 0.03125,0.03125 0.0078,0.01954 0.02539,0.04784 0.03125,0.0625 0.0059,0.01466 0,0.03125 0,0.03125 l 0.0625,0.15625 0.8125,-0.34375 c -0.399535,0.176421 -0.814937,0.368909 -0.8125,0.375 0.0059,0.01467 0.02343,0.01172 0.03125,0.03125 0.0078,0.01953 0.02541,0.04791 0.03125,0.0625 0.0058,0.01459 0,0.03125 0,0.03125 l 1,-0.40625 -0.9375,0.5625 0.09375,0.15625 A 1.0827956,1.0827956 0 0 0 18.25,80.1875 l 0.09375,0.125 0.875,-0.65625 0.84375,-0.6875 c 0,0 -1.605441,1.457059 -1.59375,1.46875 0.01169,0.01169 0.04687,0.01562 0.0625,0.03125 0.01563,0.01563 0.01953,0.05078 0.03125,0.0625 0,0 0.144588,0.116254 0.15625,0.125 0.01166,0.0087 0.01562,0.01953 0.03125,0.03125 0.0073,0.0073 0.02343,0.02344 0.03125,0.03125 0.0078,0.0066 0.02631,-0.0042 0.03125,0 0.0073,0.0073 -0.0058,0.02541 0,0.03125 0.01168,0.01167 0.03125,0.03125 0.03125,0.03125 0,0 0.113277,0.08496 0.125,0.09375 0.01172,0.0088 0.01562,0.01953 0.03125,0.03125 0.01563,0.01172 0.05082,0.02249 0.0625,0.03125 0.01168,0.0088 0,0.03125 0,0.03125 0,0 0.266666,0.119167 0.28125,0.125 0.01458,0.0058 0.04297,0.02343 0.0625,0.03125 0.01953,0.0078 0.01657,0.02538 0.03125,0.03125 0.01468,0.0059 0.03125,0 0.03125,0 l 0.15625,0.0625 0.15625,0.0625 0.40625,-1 L 20.5,79.25 c 0,0 -0.514605,2.090829 -0.5,2.09375 0.0146,0.0029 0.04297,-0.0039 0.0625,0 0.01953,0.0039 0.0166,0.02832 0.03125,0.03125 0.01465,0.0029 0.03125,0 0.03125,0 l 0.15625,0.03125 a 1.0827956,1.0827956 0 0 0 0.125,0 1.0827956,1.0827956 0 0 0 0.0625,0.03125 c -0.001,-1.6e-5 0.09477,-1.6e-5 0.09375,0 v -0.03125 c 9.746199,1.001679 16.579987,-3.248053 20.5625,-7 C 43.339899,74.775808 45.613708,75.0625 48,75.0625 67.579201,75.0625 84.0625,61.914106 84.0625,45 84.0625,28.085894 67.579201,14.9375 48,14.9375 Z m 2.78125,15.125 c 0.601492,1.8e-5 0.591443,-0.0134 1,0.375 0.01551,0.01474 0.01445,0.01533 0.03125,0.03125 A 1.0827956,1.0827956 0 0 0 51.84375,30.5 c 0.463223,0.436524 0.343742,0.171276 0.34375,0.71875 -8e-6,0.557567 0.08353,0.363778 -0.3125,0.71875 -0.01407,0.01289 -0.018,0.01916 -0.03125,0.03125 -0.371618,0.3389 -0.460744,0.375013 -1.0625,0.375 -0.606796,1.3e-5 -0.712996,-0.03482 -1.09375,-0.375 -0.02392,-0.02227 -0.01031,-0.01248 -0.03125,-0.03125 -0.396024,-0.354961 -0.312504,-0.16122 -0.3125,-0.71875 -4e-6,-0.586962 -0.132661,-0.306432 0.34375,-0.75 0.438907,-0.408625 0.474466,-0.406232 1.09375,-0.40625 z m -3.46875,12.375 c 0.514692,0.09218 1.135785,0.141612 1.34375,0.3125 -0.0015,-0.0015 0.09538,0.09517 0.09375,0.09375 0.258519,0.226709 0.335859,0.316591 0.375,0.40625 0.03914,0.08966 0.06249,0.270104 0.0625,0.6875 -1.5e-5,0.223264 0.03249,0.606727 -0.03125,1.21875 A 1.0827956,1.0827956 0 0 0 49.125,45.1875 c -0.04207,0.504726 -0.122106,0.979916 -0.25,1.40625 a 1.0827956,1.0827956 0 0 0 0,0.03125 L 47,53.25 v 0.03125 c -0.177163,0.622333 -0.362116,1.318089 -0.5,2.09375 -0.137008,0.770579 -0.250022,1.45564 -0.25,2.125 -9e-6,0.71305 0.158687,1.541706 0.46875,2.34375 -0.700229,-0.09323 -1.172679,-0.239501 -1.4375,-0.46875 -0.521995,-0.47649 -0.468752,-0.371786 -0.46875,-1.09375 -3e-6,-0.354768 0.0018,-0.781776 0.0625,-1.21875 0.06073,-0.449377 0.197846,-1.014862 0.34375,-1.625 A 1.0827956,1.0827956 0 0 0 45.25,55.125 l 1.65625,-5.9375 a 1.0827956,1.0827956 0 0 0 0.03125,-0.03125 1.0827956,1.0827956 0 0 0 0.09375,-0.28125 1.0827956,1.0827956 0 0 0 0,-0.0625 h 0.03125 a 1.0827956,1.0827956 0 0 0 0,-0.03125 c 0.01001,-0.03975 0.02612,-0.07392 0.03125,-0.09375 a 1.0827956,1.0827956 0 0 0 0,-0.0625 c 0.149008,-0.576676 0.295766,-1.171453 0.40625,-1.75 0.08351,-0.437337 0.07905,-0.449033 0,-0.03125 0.147035,-0.717231 0.249992,-1.423741 0.25,-2.125 -4e-6,-0.694917 -0.153355,-1.49643 -0.4375,-2.28125 z"
           transform="translate(0,1)"
           id="path3720"
           style="display:inline;opacity:0.05;fill:#000000;fill-opacity:1;stroke:none"
           inkscape:connector-curvature="0" />
        <path
           d="m 48,16.03125 c -19.096863,0 -34.96875,12.7615 -34.96875,28.96875 0,9.812619 6.015233,18.310203 14.8125,23.5 -0.227788,1.047432 -0.613208,2.300814 -1.46875,3.625 -1.149033,1.778442 -2.947053,3.481431 -6.21875,4.40625 a 0.98625776,0.98625776 0 0 0 -0.03125,0 c 1.04e-4,-3.5e-5 -0.156351,0.06254 -0.15625,0.0625 1.01e-4,-4.3e-5 -0.156347,0.06255 -0.15625,0.0625 9.7e-5,-5.2e-5 -0.125092,0.09381 -0.125,0.09375 9.2e-5,-6e-5 -0.156337,0.09382 -0.15625,0.09375 8.7e-5,-6.7e-5 -0.125081,0.09382 -0.125,0.09375 8.1e-5,-7.4e-5 -0.09382,0.125081 -0.09375,0.125 7.4e-5,-8.1e-5 -0.125067,0.125087 -0.125,0.125 6.7e-5,-8.7e-5 -0.09381,0.156342 -0.09375,0.15625 6e-5,-9.2e-5 -0.0938,0.125097 -0.09375,0.125 5.2e-5,-9.7e-5 -0.06254,0.156351 -0.0625,0.15625 4.4e-5,-1.01e-4 -0.06254,0.156354 -0.0625,0.15625 3.5e-5,-1.04e-4 -0.03128,0.156357 -0.03125,0.15625 2.6e-5,-1.07e-4 -0.03127,0.156359 -0.03125,0.15625 1.7e-5,-1.09e-4 -0.03126,0.15636 -0.03125,0.15625 8e-6,-1.1e-4 2e-6,0.18761 0,0.1875 -2e-6,-1.1e-4 1.1e-5,0.156359 0,0.15625 -1.1e-5,-1.09e-4 0.03127,0.156358 0.03125,0.15625 -2e-5,-1.08e-4 0.03128,0.156356 0.03125,0.15625 -2.9e-5,-1.06e-4 0.06254,0.156353 0.0625,0.15625 -3.8e-5,-1.03e-4 0.06255,0.15635 0.0625,0.15625 -4.6e-5,-1e-4 0.06255,0.156345 0.0625,0.15625 -5.5e-5,-9.5e-5 0.09381,0.156341 0.09375,0.15625 -6.2e-5,-9.1e-5 0.09382,0.125085 0.09375,0.125 -7e-5,-8.5e-5 0.125077,0.125079 0.125,0.125 -7.7e-5,-7.9e-5 0.125083,0.09382 0.125,0.09375 -8.3e-5,-7.2e-5 0.125089,0.125065 0.125,0.125 -8.9e-5,-6.5e-5 0.125094,0.09381 0.125,0.09375 -9.4e-5,-5.7e-5 0.156348,0.06255 0.15625,0.0625 -9.8e-5,-4.9e-5 0.156352,0.06254 0.15625,0.0625 -1.02e-4,-4.1e-5 0.156355,0.06253 0.15625,0.0625 -1.05e-4,-3.2e-5 0.156358,0.03127 0.15625,0.03125 -1.08e-4,-2.3e-5 0.156359,0.03126 0.15625,0.03125 a 0.98625776,0.98625776 0 0 0 0.03125,0 c 9.754627,1.060137 16.452148,-3.359222 20.25,-7.0625 2.330745,0.410391 4.727971,0.6875 7.21875,0.6875 C 67.096863,73.96875 82.96875,61.20725 82.96875,45 82.96875,28.79275 67.096863,16.03125 48,16.03125 Z m 2.78125,12.9375 c 0.790393,2.3e-5 1.214533,0.181891 1.78125,0.71875 a 0.98625776,0.98625776 0 0 0 0.03125,0 0.98625776,0.98625776 0 0 0 0,0.03125 c 0.542535,0.511264 0.68749,0.802522 0.6875,1.5 -1e-5,0.709605 -0.120504,1.003367 -0.6875,1.53125 -0.538375,0.493462 -1.013887,0.687517 -1.8125,0.6875 -0.800256,1.7e-5 -1.292584,-0.191183 -1.84375,-0.6875 -0.567006,-0.527879 -0.687505,-0.821669 -0.6875,-1.53125 -5e-6,-0.709505 0.12045,-1.003291 0.6875,-1.53125 0.568597,-0.529367 1.051877,-0.718727 1.84375,-0.71875 z m -4.1875,12.1875 c 1.400402,1.8e-5 2.209121,0.305553 2.75,0.75 a 0.98625776,0.98625776 0 0 0 0.03125,0.03125 0.98625776,0.98625776 0 0 0 0.09375,0.09375 c 0.625004,0.5481 0.812489,0.93249 0.8125,1.90625 -1.3e-5,0.19526 0.0075,0.671378 -0.0625,1.34375 -0.04926,0.591107 -0.16629,1.13761 -0.3125,1.625 l -1.875,6.65625 c -0.172996,0.605448 -0.336813,1.257794 -0.46875,2 -0.132655,0.746095 -0.218768,1.379571 -0.21875,1.9375 -1.5e-5,1.152626 0.245066,2.481629 1.3125,3.34375 -0.381048,0.05711 -0.658677,0.1875 -1.125,0.1875 -1.51633,0 -2.384567,-0.338037 -2.96875,-0.84375 -0.634059,-0.578784 -0.843752,-1.014548 -0.84375,-1.90625 -3e-6,-0.399671 0.02486,-0.879022 0.09375,-1.375 0.06933,-0.513038 0.194313,-1.093836 0.34375,-1.71875 H 44.125 l 1.84375,-6.5625 a 0.98625776,0.98625776 0 0 0 0,-0.03125 H 46 a 0.98625776,0.98625776 0 0 0 0,-0.0625 c 0.0114,-0.04369 0.02002,-0.08155 0.03125,-0.125 0.153963,-0.595707 0.300977,-1.167493 0.40625,-1.71875 0.0018,-0.0095 -0.0018,-0.02175 0,-0.03125 0.139511,-0.672961 0.218743,-1.318439 0.21875,-1.9375 -7e-6,-1.102116 -0.198175,-2.332154 -1.125,-3.21875 -0.06479,-0.06197 -0.151112,-0.06987 -0.21875,-0.125 0.425564,-0.0802 0.914036,-0.218742 1.28125,-0.21875 z"
           transform="translate(0,1)"
           id="path3716"
           style="display:inline;opacity:0.12000002;fill:#000000;fill-opacity:1;stroke:none"
           inkscape:connector-curvature="0" />
        <path
           d="m 48,17.03125 c -18.659679,0 -33.96875,12.408319 -33.96875,27.96875 0,9.666704 5.998045,18.089309 14.9375,23.09375 -0.210518,1.192634 -0.651323,2.861997 -1.75,4.5625 -1.255074,1.94257 -3.29009,3.825645 -6.78125,4.8125 A 0.98224108,0.98224108 0 0 0 20.625,79.375 C 30.315483,80.428166 36.870683,75.879082 40.46875,72.25 42.897609,72.704466 45.403113,72.96875 48,72.96875 66.659679,72.96875 81.96875,60.560431 81.96875,45 81.96875,29.439569 66.659679,17.03125 48,17.03125 Z m 2.78125,10.9375 c 1.007695,2.9e-5 1.764782,0.333122 2.46875,1 a 0.98224108,0.98224108 0 0 0 0.03125,0 c 0.712832,0.66371 0.999987,1.334309 1,2.25 -1.3e-5,0.915768 -0.287194,1.586365 -1,2.25 -0.700314,0.65118 -1.483838,0.968771 -2.5,0.96875 -1.01619,2.1e-5 -1.816168,-0.315283 -2.53125,-0.96875 -0.712825,-0.663635 -1.000006,-1.334243 -1,-2.25 -6e-6,-0.91568 0.287149,-1.586291 1,-2.25 0.718676,-0.669091 1.523526,-0.999971 2.53125,-1 z m -4.1875,12.1875 c 1.647252,2.1e-5 2.776659,0.409927 3.53125,1.09375 a 0.98224108,0.98224108 0 0 0 0,0.03125 c 0.789201,0.692093 1.156237,1.477741 1.15625,2.65625 -1.7e-5,0.249936 -0.02084,0.737446 -0.09375,1.4375 -0.05533,0.663875 -0.17974,1.265775 -0.34375,1.8125 l -1.875,6.65625 c -0.164118,0.574377 -0.311318,1.196418 -0.4375,1.90625 -0.126455,0.711223 -0.187515,1.276958 -0.1875,1.75 -1.3e-5,1.030183 0.191839,1.960261 0.9375,2.5625 0.714754,0.577327 1.612385,0.6875 2.6875,0.6875 0.324083,0 0.702325,-0.09895 1.0625,-0.15625 -1.020855,0.390272 -2.02344,0.774891 -2.6875,1 a 0.98224108,0.98224108 0 0 0 -0.03125,0 c -0.764788,0.272213 -1.67463,0.4375 -2.78125,0.4375 -1.675076,0 -2.828761,-0.404465 -3.625,-1.09375 -0.804047,-0.726863 -1.187502,-1.53025 -1.1875,-2.65625 -3e-6,-0.473409 0.05309,-0.98231 0.125,-1.5 0.07417,-0.548821 0.187114,-1.157481 0.34375,-1.8125 L 45.03125,48.375 a 0.98224108,0.98224108 0 0 0 0,-0.03125 c 0.174272,-0.66541 0.327326,-1.292663 0.4375,-1.875 0.131268,-0.623531 0.187494,-1.186692 0.1875,-1.75 -6e-6,-0.992024 -0.166131,-1.881687 -0.8125,-2.5 -0.65672,-0.628122 -1.567463,-0.781227 -2.6875,-0.78125 -0.336656,1.4e-5 -0.648276,0.09628 -0.96875,0.15625 0.855793,-0.325289 1.706705,-0.659671 2.5,-0.90625 a 0.98224108,0.98224108 0 0 0 0.03125,0 c 1.055102,-0.342176 1.997377,-0.53123 2.875,-0.53125 z"
           transform="translate(0,1)"
           id="path3712"
           style="display:inline;opacity:0.23999999;fill:#000000;fill-opacity:1;stroke:none"
           inkscape:connector-curvature="0" />
        <path
           d="m 48,18 c -18.225397,0 -33,12.088312 -33,27 0,9.498438 5.99976,17.843462 15.0625,22.65625 -0.344625,2.508754 -1.914014,8.649817 -9.34375,10.75 9.622915,1.045823 16.013601,-3.646306 19.40625,-7.1875 C 42.648507,71.724251 45.286067,72 48,72 66.225397,72 81,59.911688 81,45 81,30.088312 66.225397,18 48,18 Z m 2.78125,9 c 1.234272,3.5e-5 2.287664,0.427178 3.15625,1.25 0.883793,0.82289 1.312484,1.810687 1.3125,2.96875 -1.6e-5,1.158126 -0.428707,2.145922 -1.3125,2.96875 -0.868586,0.807646 -1.921978,1.218776 -3.15625,1.21875 -1.234296,2.6e-5 -2.303701,-0.411104 -3.1875,-1.21875 -0.883818,-0.822828 -1.312508,-1.810624 -1.3125,-2.96875 -8e-6,-1.158063 0.428682,-2.14586 1.3125,-2.96875 0.883799,-0.822822 1.953204,-1.249965 3.1875,-1.25 z m -4.1875,12.1875 c 1.813322,2.3e-5 3.21225,0.459962 4.1875,1.34375 0.990463,0.868591 1.468735,2.004366 1.46875,3.40625 -2e-5,0.289543 -0.01757,0.799839 -0.09375,1.53125 -0.06096,0.731444 -0.192156,1.390491 -0.375,2 l -1.875,6.65625 c -0.152392,0.533338 -0.284356,1.126791 -0.40625,1.8125 -0.12192,0.685719 -0.187511,1.212028 -0.1875,1.5625 -1.1e-5,0.883819 0.197549,1.492505 0.59375,1.8125 0.396179,0.320005 1.087249,0.46875 2.0625,0.46875 0.457129,0 0.983438,-0.06635 1.5625,-0.21875 0.579032,-0.167624 0.990935,-0.315585 1.25,-0.4375 l -0.5,2.0625 c -1.508586,0.594281 -2.725966,1.038988 -3.625,1.34375 C 49.757191,62.851255 48.719812,63 47.53125,63 45.702672,63 44.270947,62.57131 43.25,61.6875 c -1.005718,-0.899043 -1.500003,-2.034821 -1.5,-3.40625 -3e-6,-0.533328 0.0488,-1.076419 0.125,-1.625 0.07619,-0.563795 0.176128,-1.205288 0.34375,-1.90625 l 1.875,-6.65625 c 0.167613,-0.639985 0.299578,-1.248675 0.40625,-1.8125 0.1219,-0.579031 0.187495,-1.090102 0.1875,-1.5625 -5e-6,-0.853315 -0.18078,-1.445992 -0.53125,-1.78125 -0.350481,-0.335219 -1.009529,-0.53123 -2,-0.53125 -0.487622,2e-5 -0.981907,0.09765 -1.5,0.25 -0.502858,0.152401 -0.946787,0.300377 -1.3125,0.4375 l 0.5,-2.0625 c 1.234283,-0.502836 2.434878,-0.930752 3.5625,-1.28125 1.127613,-0.365692 2.181778,-0.562477 3.1875,-0.5625 z"
           inkscape:connector-curvature="0"
           id="path3620"
           style="display:inline;opacity:0.96727277;fill:url(#linearGradient3664-2);fill-opacity:1;stroke:none" />
        <path
           d="m 48,18 c -18.225397,0 -33,12.088312 -33,27 0,0.208408 0.0255,0.417728 0.03125,0.625 C 15.915093,31.359014 30.344147,20 48,20 65.811103,20 80.318034,31.557401 80.96875,46 80.983886,45.664059 81,45.338968 81,45 81,30.088312 66.225397,18 48,18 Z m -1.59375,14.21875 c -0.07734,0.315923 -0.125002,0.653784 -0.125,1 -8e-6,1.158126 0.428682,2.145922 1.3125,2.96875 0.883799,0.807646 1.953204,1.218776 3.1875,1.21875 1.234272,2.6e-5 2.287664,-0.411104 3.15625,-1.21875 0.883793,-0.822828 1.312484,-1.810624 1.3125,-2.96875 -5e-6,-0.346216 -0.04766,-0.684077 -0.125,-1 -0.181353,0.74083 -0.567927,1.391916 -1.1875,1.96875 -0.868586,0.807646 -1.921978,1.218776 -3.15625,1.21875 -1.234296,2.6e-5 -2.303701,-0.411104 -3.1875,-1.21875 -0.619591,-0.576834 -1.006154,-1.22792 -1.1875,-1.96875 z m -4.25,10.1875 c -0.31552,1.3e-5 -0.643006,0.05487 -0.96875,0.125 -0.44524,0.165332 -0.887309,0.31405 -1.34375,0.5 l -0.5,2.0625 c 0.365713,-0.137123 0.809642,-0.285099 1.3125,-0.4375 0.518093,-0.15235 1.012378,-0.24998 1.5,-0.25 0.990471,2e-5 1.649519,0.196031 2,0.53125 0.197387,0.18882 0.349747,0.459797 0.4375,0.8125 0.05642,-0.361246 0.09375,-0.713815 0.09375,-1.03125 -5e-6,-0.853315 -0.18078,-1.445992 -0.53125,-1.78125 -0.350481,-0.335219 -1.009529,-0.53123 -2,-0.53125 z m 10.03125,2.75 c -0.01103,0.131118 -0.01567,0.162879 -0.03125,0.3125 -0.06096,0.731444 -0.192156,1.390491 -0.375,2 l -1.875,6.65625 c -0.152392,0.533338 -0.284356,1.126791 -0.40625,1.8125 -0.12192,0.685719 -0.187511,1.212028 -0.1875,1.5625 -5e-6,0.373673 0.05429,0.694464 0.125,0.96875 0.02578,-0.172785 0.02686,-0.330815 0.0625,-0.53125 0.121894,-0.685709 0.253858,-1.279162 0.40625,-1.8125 l 1.875,-6.65625 c 0.182844,-0.609509 0.31404,-1.268556 0.375,-2 0.07618,-0.731411 0.09373,-1.241707 0.09375,-1.53125 -3e-6,-0.273456 -0.02585,-0.528053 -0.0625,-0.78125 z M 41.8125,59.0625 c -0.04575,0.408569 -0.0625,0.819338 -0.0625,1.21875 -3e-6,1.371429 0.494282,2.507207 1.5,3.40625 1.020947,0.88381 2.452672,1.3125 4.28125,1.3125 1.188562,0 2.225941,-0.148745 3.125,-0.46875 0.899034,-0.304762 2.116414,-0.749469 3.625,-1.34375 l 0.5,-2.0625 c -0.259065,0.121915 -0.670968,0.269876 -1.25,0.4375 -0.188753,0.04968 -0.354276,0.06168 -0.53125,0.09375 -0.841033,0.317027 -1.761977,0.677786 -2.34375,0.875 C 49.757191,62.851255 48.719812,63 47.53125,63 45.702672,63 44.270947,62.57131 43.25,61.6875 42.446722,60.969424 41.971987,60.082069 41.8125,59.0625 Z m -12.125,10.375 c -0.788875,2.925833 -2.942108,7.265183 -8.96875,8.96875 1.438598,0.156348 2.798846,0.170865 4.09375,0.09375 3.95088,-2.735394 4.981412,-6.888521 5.25,-8.84375 -0.129197,-0.06861 -0.247056,-0.148711 -0.375,-0.21875 z"
           inkscape:connector-curvature="0"
           id="path3666"
           style="display:inline;fill:#ffffff;fill-opacity:1;stroke:none" />
      </g>
      <rect
         ry="4.25"
         rx="0"
         y="80.665031"
         x="5.5239539"
         height="4.25"
         width="84.250008"
         id="rect4131"
         style="opacity:0.55;fill:url(#radialGradient7462);fill-opacity:1;stroke:none" />
      <rect
         transform="rotate(90)"
         style="opacity:0.669;fill:url(#radialGradient7464);fill-opacity:1;stroke:none"
         id="rect4141"
         width="76.75"
         height="4.25"
         x="5.9750223"
         y="-90.233963"
         rx="0"
         ry="4.25" />
      <rect
         clip-path="url(#clipPath4156-4-1)"
         ry="3.9569881"
         rx="3.9569874"
         y="-30"
         x="2"
         height="69.024437"
         width="75.965775"
         id="rect4146"
         style="opacity:0.5078125;fill:url(#linearGradient4767);fill-opacity:1;stroke:none"
         transform="matrix(1.0692451,0,0,1.0476829,4.4441802,38.894013)" />
    </g>
  </g>
</svg>
