<?xml version="1.0" encoding="UTF-8" standalone="no"?>
<!-- Created with Inkscape (http://www.inkscape.org/) -->

<svg
   xmlns:dc="http://purl.org/dc/elements/1.1/"
   xmlns:cc="http://creativecommons.org/ns#"
   xmlns:rdf="http://www.w3.org/1999/02/22-rdf-syntax-ns#"
   xmlns:svg="http://www.w3.org/2000/svg"
   xmlns="http://www.w3.org/2000/svg"
   xmlns:xlink="http://www.w3.org/1999/xlink"
   xmlns:sodipodi="http://sodipodi.sourceforge.net/DTD/sodipodi-0.dtd"
   xmlns:inkscape="http://www.inkscape.org/namespaces/inkscape"
   width="96"
   height="96"
   id="svg2"
   version="1.1"
   inkscape:version="0.48.5 r10040"
   sodipodi:docname="emblem-readonly.svg">
  <script
     xlink:href=""
     id="script2985" />
  <defs
     id="defs4">
    <radialGradient
       inkscape:collect="always"
       xlink:href="#linearGradient4050"
       id="radialGradient4543"
       gradientUnits="userSpaceOnUse"
       gradientTransform="matrix(1,0,0,0.04885057,-16.372364,-3.861835)"
       cx="48"
       cy="-16.128"
       fx="48"
       fy="-16.128"
       r="44.543999" />
    <linearGradient
       inkscape:collect="always"
       id="linearGradient4050">
      <stop
         style="stop-color:#ffffff;stop-opacity:1;"
         offset="0"
         id="stop4052" />
      <stop
         style="stop-color:#ffffff;stop-opacity:0;"
         offset="1"
         id="stop4054" />
    </linearGradient>
    <linearGradient
       inkscape:collect="always"
       xlink:href="#linearGradient4160"
       id="linearGradient4549"
       gradientUnits="userSpaceOnUse"
       gradientTransform="matrix(1,0,0,1.160558,-17.652363,-37.714316)"
       x1="2.5"
       y1="54.296875"
       x2="93.5"
       y2="54.296875" />
    <linearGradient
       id="linearGradient4160">
      <stop
         id="stop4170"
         offset="0"
         style="stop-color:#000000;stop-opacity:0;" />
      <stop
         style="stop-color:#000000;stop-opacity:0.96470588;"
         offset="0.03175623"
         id="stop4186" />
      <stop
         style="stop-color:#000000;stop-opacity:0;"
         offset="0.09425623"
         id="stop4182" />
      <stop
         style="stop-color:#000000;stop-opacity:0;"
         offset="0.49595019"
         id="stop4180" />
      <stop
         style="stop-color:#000000;stop-opacity:0;"
         offset="0.90525883"
         id="stop4178" />
      <stop
         id="stop4184"
         offset="0.96241152"
         style="stop-color:#000000;stop-opacity:0.98823529;" />
      <stop
         id="stop4168"
         offset="1"
         style="stop-color:#000000;stop-opacity:0;" />
    </linearGradient>
    <radialGradient
       inkscape:collect="always"
       xlink:href="#linearGradient4348"
       id="radialGradient4553"
       gradientUnits="userSpaceOnUse"
       gradientTransform="matrix(1.0772109,0,0,0.06481785,-21.162394,64.974669)"
       cx="47.699135"
       cy="55.411221"
       fx="47.699135"
       fy="55.411221"
       r="41.470058" />
    <linearGradient
       id="linearGradient4348">
      <stop
         style="stop-color:#ffffff;stop-opacity:1;"
         offset="0"
         id="stop4350" />
      <stop
         style="stop-color:#ffffff;stop-opacity:0;"
         offset="1"
         id="stop4352" />
    </linearGradient>
    <linearGradient
       gradientUnits="userSpaceOnUse"
       xlink:href="#linearGradient3737-4-3"
       id="linearGradient3146"
       y2="109.10714"
       x2="48"
       y1="6"
       x1="48"
       gradientTransform="translate(-165.48898,109.3749)" />
    <linearGradient
       id="linearGradient3737-4-3">
      <stop
         offset="0"
         style="stop-color:#ffffff;stop-opacity:1;"
         id="stop3739-4-1" />
      <stop
         offset="1"
         style="stop-color:#ffffff;stop-opacity:0"
         id="stop3741-3-0" />
    </linearGradient>
    <filter
       color-interpolation-filters="sRGB"
       inkscape:collect="always"
       id="filter4929">
      <feGaussianBlur
         inkscape:collect="always"
         stdDeviation="0.42000919"
         id="feGaussianBlur4931" />
    </filter>
    <radialGradient
       inkscape:collect="always"
       xlink:href="#linearGradient4913"
       id="radialGradient4919"
       cx="47.197647"
       cy="90.887909"
       fx="47.197647"
       fy="90.887909"
       r="41.015587"
       gradientTransform="matrix(1.0927536,0,0,0.03478262,-21.554573,13.733863)"
       gradientUnits="userSpaceOnUse" />
    <linearGradient
       id="linearGradient4913">
      <stop
         style="stop-color:#0f0a0a;stop-opacity:1;"
         offset="0"
         id="stop4915" />
      <stop
         style="stop-color:#0f0a0a;stop-opacity:0.35632184;"
         offset="1"
         id="stop4917" />
    </linearGradient>
    <filter
       color-interpolation-filters="sRGB"
       inkscape:collect="always"
       id="filter4925"
       x="-0.012381963"
       width="1.0247639"
       y="-0.38899997"
       height="1.778">
      <feGaussianBlur
         inkscape:collect="always"
         stdDeviation="0.4624656"
         id="feGaussianBlur4927" />
    </filter>
    <radialGradient
       r="41.015587"
       fy="90.887909"
       fx="47.197647"
       cy="90.887909"
       cx="47.197647"
       gradientTransform="matrix(1.0927536,0,0,0.03478262,-21.554573,13.733863)"
       gradientUnits="userSpaceOnUse"
       id="radialGradient4998"
       xlink:href="#linearGradient4913"
       inkscape:collect="always" />
    <clipPath
       id="clipPath3647">
      <path
         style="opacity:0.3;color:#000000;fill:#ff0000;fill-opacity:1;fill-rule:nonzero;stroke:none;stroke-width:4;marker:none;visibility:visible;display:inline;overflow:visible;enable-background:accumulate"
         id="path3649-0"
         inkscape:connector-curvature="0"
         d="m -100,-74 0,96 96,0 0,-96 -96,0 z m 39.875,20.3125 16.125,0 0,19.75 19.6875,0 0,16.1875 -19.6875,0 0,19.4375 -16.125,0 0,-19.4375 -19.5625,0 0,-16.1875 19.5625,0 0,-19.75 z" />
    </clipPath>
    <filter
       id="filter3651"
       color-interpolation-filters="sRGB">
      <feGaussianBlur
         stdDeviation="0.83069354"
         id="feGaussianBlur3653" />
    </filter>
    <linearGradient
       gradientTransform="matrix(4,0,0,4,4,-70)"
       gradientUnits="userSpaceOnUse"
       xlink:href="#linearGradient3972"
       id="linearGradient2862"
       y2="17.924156"
       x2="11.640054"
       y1="4.0775533"
       x1="11.640054" />
    <linearGradient
       gradientUnits="userSpaceOnUse"
       id="linearGradient3972"
       y2="17.924156"
       x2="11.640054"
       y1="4.0775533"
       x1="11.640054">
      <stop
         offset="0"
         style="stop-color:#323232;stop-opacity:1"
         id="stop3974" />
      <stop
         offset="1"
         style="stop-color:#787878;stop-opacity:1"
         id="stop3976" />
    </linearGradient>
    <filter
       id="filter3970"
       color-interpolation-filters="sRGB">
      <feGaussianBlur
         stdDeviation="0.96000046"
         id="feGaussianBlur3972" />
    </filter>
    <linearGradient
       gradientTransform="matrix(1.4883689,0,0,1.4883689,12.279154,-60.232443)"
       gradientUnits="userSpaceOnUse"
       xlink:href="#linearGradient3904-4"
       id="linearGradient4427"
       y2="45.017357"
       x2="20.758585"
       y1="1"
       x1="20.758585" />
    <linearGradient
       gradientUnits="userSpaceOnUse"
       id="linearGradient3904-4"
       y2="18.083122"
       x2="11"
       y1="3.9374998"
       x1="11">
      <stop
         offset="0"
         style="stop-color:#323232;stop-opacity:1"
         id="stop3906-1" />
      <stop
         offset="1"
         style="stop-color:#787878;stop-opacity:1"
         id="stop3908-2" />
    </linearGradient>
    <linearGradient
       gradientTransform="matrix(4,0,0,4,19.217378,-172.7173)"
       gradientUnits="userSpaceOnUse"
       xlink:href="#linearGradient3904-77"
       id="linearGradient3634"
       y2="18.083122"
       x2="11"
       y1="3.9374998"
       x1="11" />
    <linearGradient
       gradientUnits="userSpaceOnUse"
       id="linearGradient3904-77"
       y2="18.083122"
       x2="11"
       y1="3.9374998"
       x1="11">
      <stop
         offset="0"
         style="stop-color:#323232;stop-opacity:1"
         id="stop3906-8" />
      <stop
         offset="1"
         style="stop-color:#787878;stop-opacity:1"
         id="stop3908-9" />
    </linearGradient>
    <filter
       id="filter3986"
       color-interpolation-filters="sRGB">
      <feGaussianBlur
         stdDeviation="0.87773437"
         id="feGaussianBlur3988" />
    </filter>
    <linearGradient
       gradientUnits="userSpaceOnUse"
       xlink:href="#linearGradient3904"
       id="linearGradient3928"
       y2="68"
       x2="32"
       y1="36"
       x1="32" />
    <linearGradient
       gradientUnits="userSpaceOnUse"
       id="linearGradient3904"
       y2="18.083122"
       x2="11"
       y1="3.9374998"
       x1="11">
      <stop
         offset="0"
         style="stop-color:#323232;stop-opacity:1"
         id="stop3906" />
      <stop
         offset="1"
         style="stop-color:#787878;stop-opacity:1"
         id="stop3908" />
    </linearGradient>
    <linearGradient
       gradientUnits="userSpaceOnUse"
       xlink:href="#linearGradient3904"
       id="linearGradient3930"
       y2="72"
       x2="64"
       y1="24"
       x1="64" />
    <linearGradient
       gradientUnits="userSpaceOnUse"
       id="linearGradient7582"
       y2="18.083122"
       x2="11"
       y1="3.9374998"
       x1="11">
      <stop
         offset="0"
         style="stop-color:#323232;stop-opacity:1"
         id="stop7584" />
      <stop
         offset="1"
         style="stop-color:#787878;stop-opacity:1"
         id="stop7586" />
    </linearGradient>
    <clipPath
       id="clipPath2986">
      <path
         style="opacity:0.3;color:#000000;fill:#ff0000;fill-opacity:1;fill-rule:nonzero;stroke:none;stroke-width:4;marker:none;visibility:visible;display:inline;overflow:visible;enable-background:accumulate"
         id="path2988"
         inkscape:connector-curvature="0"
         d="m -100,-74 0,96 96,0 0,-96 -96,0 z m 48,16 c 17.673112,0 32,14.326888 32,32 0,17.673112 -14.326888,32 -32,32 -17.673112,0 -32,-14.326888 -32,-32 0,-17.673112 14.326888,-32 32,-32 z m 0,8 c -13.254834,0 -24,10.745166 -24,24 0,13.254832 10.745166,24 24,24 13.254832,0 24,-10.745168 24,-24 0,-13.254834 -10.745168,-24 -24,-24 z m 0,4 c 2.216,0 4,1.784 4,4 l 0,9 7.875,-4.5 c 1.919112,-1.108 4.392,-0.419112 5.5,1.5 1.108,1.919112 0.419112,4.392 -1.5,5.5 l -7.75,4.5 7.75,4.5 c 1.919112,1.108 2.608,3.580888 1.5,5.5 -1.108,1.919112 -3.580888,2.608 -5.5,1.5 L -48,-19 l 0,9 c 0,2.216 -1.784,4 -4,4 -2.216,0 -4,-1.784 -4,-4 l 0,-9 -7.875,4.5 c -1.919112,1.108 -4.392,0.419112 -5.5,-1.5 -1.108,-1.919112 -0.419112,-4.392 1.5,-5.5 l 7.75,-4.5 -7.75,-4.5 c -1.919112,-1.108 -2.608,-3.580888 -1.5,-5.5 1.108,-1.919112 3.580888,-2.608 5.5,-1.5 l 7.875,4.5 0,-9 c 0,-2.216 1.784,-4 4,-4 z" />
    </clipPath>
    <filter
       id="filter3762"
       color-interpolation-filters="sRGB">
      <feGaussianBlur
         stdDeviation="0.96"
         id="feGaussianBlur3764" />
    </filter>
    <linearGradient
       gradientTransform="matrix(4,0,0,4,4,-70)"
       gradientUnits="userSpaceOnUse"
       xlink:href="#linearGradient5004"
       id="linearGradient2975"
       y2="19.031219"
       x2="8"
       y1="3"
       x1="8" />
    <linearGradient
       gradientTransform="scale(1.1467263,0.8720476)"
       gradientUnits="userSpaceOnUse"
       id="linearGradient5004"
       y2="18.319494"
       x2="7.1904788"
       y1="6.9551144"
       x1="7.1904788">
      <stop
         offset="0"
         style="stop-color:#323232;stop-opacity:1"
         id="stop5006" />
      <stop
         offset="1"
         style="stop-color:#787878;stop-opacity:1"
         id="stop5008" />
    </linearGradient>
    <clipPath
       id="clipPath2883">
      <path
         style="opacity:0.3;color:#000000;fill:#ff0000;fill-opacity:1;fill-rule:nonzero;stroke:none;stroke-width:4;marker:none;visibility:visible;display:inline;overflow:visible;enable-background:accumulate"
         id="path2885"
         inkscape:connector-curvature="0"
         d="m -100,-74 0,96 96,0 0,-96 -96,0 z m 48,16 c 17.664,0 32,14.335995 32,32 4e-6,17.664008 -14.336,32 -32,32 -17.664002,0 -32,-14.335996 -32,-32 0,-17.664005 14.335998,-32 32,-32 z m 12.125,16.125 -16.25,18.875 -8,-7.25 -7.75,8.375 15.75,15.625 24,-27.25 -7.75,-8.375 z" />
    </clipPath>
    <filter
       id="filter3663"
       color-interpolation-filters="sRGB">
      <feGaussianBlur
         stdDeviation="0.96"
         id="feGaussianBlur3665" />
    </filter>
    <radialGradient
       gradientTransform="matrix(0.900984,0,0,1.1428576,-9.6629932,-131.37237)"
       gradientUnits="userSpaceOnUse"
       xlink:href="#linearGradient3625"
       id="radialGradient2872"
       fy="120.20078"
       fx="64"
       r="56"
       cy="120.20078"
       cx="64" />
    <linearGradient
       id="linearGradient3625">
      <stop
         offset="0"
         style="stop-color:#787878;stop-opacity:1"
         id="stop3627" />
      <stop
         offset="1"
         style="stop-color:#323232;stop-opacity:1"
         id="stop3629" />
    </linearGradient>
    <filter
       id="filter3851"
       color-interpolation-filters="sRGB">
      <feGaussianBlur
         stdDeviation="0.15745957"
         id="feGaussianBlur3853" />
    </filter>
    <linearGradient
       gradientUnits="userSpaceOnUse"
       xlink:href="#linearGradient3651"
       id="linearGradient2902"
       y2="15.422365"
       x2="12.340249"
       y1="5.3143144"
       x1="10.735273" />
    <linearGradient
       id="linearGradient3651">
      <stop
         offset="0"
         style="stop-color:#f3840c;stop-opacity:1"
         id="stop3653" />
      <stop
         offset="1"
         style="stop-color:#f9ba3f;stop-opacity:1"
         id="stop3655" />
    </linearGradient>
    <filter
       id="filter3983"
       color-interpolation-filters="sRGB">
      <feGaussianBlur
         stdDeviation="0.8690625"
         id="feGaussianBlur3985" />
    </filter>
    <linearGradient
       gradientTransform="matrix(3.6988916,0,0,4.3488388,-48.240224,-88.009431)"
       gradientUnits="userSpaceOnUse"
       xlink:href="#linearGradient5520"
       id="linearGradient2956"
       y2="21.617134"
       x2="26.018665"
       y1="6.9005618"
       x1="26.018665" />
    <linearGradient
       gradientTransform="scale(0.9219544,1.0846523)"
       gradientUnits="userSpaceOnUse"
       id="linearGradient5520"
       y2="19.387045"
       x2="11.998966"
       y1="0.92195445"
       x1="11.998966">
      <stop
         offset="0"
         style="stop-color:#323232;stop-opacity:1"
         id="stop5522" />
      <stop
         offset="1"
         style="stop-color:#787878;stop-opacity:1"
         id="stop5524" />
    </linearGradient>
    <linearGradient
       gradientTransform="scale(1.0058652,0.994169)"
       gradientUnits="userSpaceOnUse"
       id="ButtonShadow"
       y2="7.0165396"
       x2="45.447727"
       y1="92.539597"
       x1="45.447727">
      <stop
         offset="0"
         style="stop-color:#000000;stop-opacity:1"
         id="stop3750" />
      <stop
         offset="1"
         style="stop-color:#000000;stop-opacity:0.58823532"
         id="stop3752" />
    </linearGradient>
    <filter
       id="filter3174"
       color-interpolation-filters="sRGB">
      <feGaussianBlur
         stdDeviation="1.71"
         id="feGaussianBlur3176" />
    </filter>
    <linearGradient
       gradientTransform="matrix(0.88888883,0,0,0.88888883,5.3333362,71.111107)"
       gradientUnits="userSpaceOnUse"
       xlink:href="#linearGradient4088"
       id="linearGradient4053"
       y2="8.8750048"
       x2="37.875"
       y1="-62"
       x1="37.875" />
    <linearGradient
       id="linearGradient4088">
      <stop
         offset="0"
         style="stop-color:#d5b742;stop-opacity:1"
         id="stop4090" />
      <stop
         offset="0.34920636"
         style="stop-color:#f5e6aa;stop-opacity:1"
         id="stop4094" />
      <stop
         offset="0.5714286"
         style="stop-color:#e0bf55;stop-opacity:1"
         id="stop4096" />
      <stop
         offset="1"
         style="stop-color:#8a6e24;stop-opacity:1"
         id="stop4092" />
    </linearGradient>
    <clipPath
       id="clipPath3703">
      <path
         style="opacity:0.3;color:#000000;fill:#ff0000;stroke:none;stroke-width:4;marker:none;visibility:visible;display:inline;overflow:visible;enable-background:accumulate"
         id="path3705"
         inkscape:connector-curvature="0"
         d="m -100,-74 0,96 96,0 0,-96 -96,0 z M -71.6875,-54.15625 -28.03125,-54 -28,-10.5 -42.09375,-24.59375 c -14.967412,6.310412 -22.381278,18.460048 -24.9375,28 -9.605951,-14.408924 -4.606056,-31.867968 9.4375,-43.46875 L -71.6875,-54.15625 z" />
    </clipPath>
    <filter
       id="filter3707"
       color-interpolation-filters="sRGB">
      <feGaussianBlur
         stdDeviation="0.76172645"
         id="feGaussianBlur3709" />
    </filter>
    <linearGradient
       gradientTransform="matrix(1.3690757,0,0,-1.3690757,28.199165,-112.91297)"
       gradientUnits="userSpaceOnUse"
       xlink:href="#linearGradient4012"
       id="linearGradient2884"
       y2="-84.79258"
       x2="17.506266"
       y1="-42.696442"
       x1="17.506266" />
    <linearGradient
       gradientTransform="scale(1.1467263,0.8720476)"
       gradientUnits="userSpaceOnUse"
       id="linearGradient4012"
       y2="18.319494"
       x2="7.1904788"
       y1="6.9551144"
       x1="7.1904788">
      <stop
         offset="0"
         style="stop-color:#323232;stop-opacity:1"
         id="stop4014" />
      <stop
         offset="1"
         style="stop-color:#787878;stop-opacity:1"
         id="stop4016" />
    </linearGradient>
    <filter
       id="filter3899"
       color-interpolation-filters="sRGB">
      <feGaussianBlur
         stdDeviation="0.57"
         id="feGaussianBlur3901" />
    </filter>
    <linearGradient
       gradientTransform="matrix(4,0,0,4,0,-82)"
       gradientUnits="userSpaceOnUse"
       xlink:href="#linearGradient3655"
       id="linearGradient3182"
       y2="20.5"
       x2="12"
       y1="4.5"
       x1="12" />
    <linearGradient
       id="linearGradient3655">
      <stop
         offset="0"
         style="stop-color:#ad0707;stop-opacity:1"
         id="stop3657" />
      <stop
         offset="1"
         style="stop-color:#f75535;stop-opacity:1"
         id="stop3659" />
    </linearGradient>
    <clipPath
       id="clipPath3732">
      <path
         style="opacity:0.3;color:#000000;fill:#ff0000;fill-opacity:1;fill-rule:nonzero;stroke:none;stroke-width:4;marker:none;visibility:visible;display:inline;overflow:visible;enable-background:accumulate"
         id="path3734"
         inkscape:connector-curvature="0"
         d="m -100,-74 0,96 96,0 0,-96 -96,0 z m 40,16 16,0 c 4.432,0 8,3.568 8,8 l 0,16 c 4.432,0 8,3.568 8,8 l 0,24 c 0,4.432 -3.568,8 -8,8 l -32,0 c -4.432,0 -8,-3.568 -8,-8 l 0,-24 c 0,-4.432 3.568,-8 8,-8 l 0,-16 c 0,-4.432 3.568,-8 8,-8 z m 4,8 c -2.216,0 -4,1.784 -4,4 l 0,12 16,0 0,-12 c 0,-2.216 -1.784,-4 -4,-4 l -8,0 z" />
    </clipPath>
    <filter
       id="filter3736"
       color-interpolation-filters="sRGB">
      <feGaussianBlur
         stdDeviation="0.84"
         id="feGaussianBlur3738" />
    </filter>
    <linearGradient
       gradientTransform="matrix(4,0,0,4,4,-70)"
       gradientUnits="userSpaceOnUse"
       xlink:href="#linearGradient5560"
       id="linearGradient3729"
       y2="19"
       x2="11"
       y1="3"
       x1="11" />
    <linearGradient
       gradientTransform="scale(1.1467263,0.8720476)"
       gradientUnits="userSpaceOnUse"
       id="linearGradient5560"
       y2="18.319494"
       x2="7.1904788"
       y1="6.9551144"
       x1="7.1904788">
      <stop
         offset="0"
         style="stop-color:#323232;stop-opacity:1"
         id="stop5562" />
      <stop
         offset="1"
         style="stop-color:#787878;stop-opacity:1"
         id="stop5564" />
    </linearGradient>
  </defs>
  <sodipodi:namedview
     id="base"
     pagecolor="#ffffff"
     bordercolor="#666666"
     borderopacity="1.0"
     inkscape:pageopacity="0.0"
     inkscape:pageshadow="2"
     inkscape:zoom="8.4226962"
     inkscape:cx="8.7659942"
     inkscape:cy="32"
     inkscape:current-layer="layer1"
     showgrid="true"
     inkscape:document-units="px"
     inkscape:grid-bbox="true"
     inkscape:showpageshadow="false"
     gridtolerance="1"
     guidetolerance="1"
     objecttolerance="1"
     inkscape:window-width="1280"
     inkscape:window-height="966"
     inkscape:window-x="0"
     inkscape:window-y="0"
     inkscape:window-maximized="1" />
  <metadata
     id="metadata7">
    <rdf:RDF>
      <cc:Work
         rdf:about="">
        <dc:format>image/svg+xml</dc:format>
        <dc:type
           rdf:resource="http://purl.org/dc/dcmitype/StillImage" />
        <dc:title />
      </cc:Work>
    </rdf:RDF>
  </metadata>
  <g
     id="layer1"
     inkscape:label="Layer 1"
     inkscape:groupmode="layer"
     transform="translate(0,32)">
    <g
       style="display:inline"
       id="g4237"
       transform="translate(267.2552,124.92921)">
      <g
         id="layer1-0"
         transform="translate(-267.2552,-82.929208)">
        <path
           style="opacity:0.2;color:#000000;fill:none;stroke:#ffffff;stroke-width:4;stroke-miterlimit:4;stroke-dasharray:none;marker:none;visibility:visible;display:inline;overflow:visible;filter:url(#filter3736);enable-background:accumulate"
           id="path3725"
           clip-path="url(#clipPath3732)"
           transform="translate(100,0)"
           inkscape:connector-curvature="0"
           d="m -60,-58 c -4.432,0 -8,3.568 -8,8 l 0,16 c -4.432,0 -8,3.568 -8,8 l 0,24 c 0,4.432 3.568,8 8,8 l 32,0 c 4.432,0 8,-3.568 8,-8 l 0,-24 c 0,-4.432 -3.568,-8 -8,-8 l 0,-16 c 0,-4.432 -3.568,-8 -8,-8 l -16,0 z m 4,8 8,0 c 2.216,0 4,1.784 4,4 l 0,12 -16,0 0,-12 c 0,-2.216 1.784,-4 4,-4 z" />
        <path
           style="color:#000000;fill:url(#linearGradient3729);fill-opacity:1;stroke:none;stroke-width:1;marker:none;visibility:visible;display:inline;overflow:visible;enable-background:accumulate"
           id="rect2941"
           inkscape:connector-curvature="0"
           d="m 40,-58 c -4.432,0 -8,3.568 -8,8 l 0,16 c -4.432,0 -8,3.568 -8,8 l 0,24 c 0,4.432 3.568,8 8,8 l 32,0 c 4.432,0 8,-3.568 8,-8 l 0,-24 c 0,-4.432 -3.568,-8 -8,-8 l 0,-16 c 0,-4.432 -3.568,-8 -8,-8 l -16,0 z m 4,8 8,0 c 2.216,0 4,1.784 4,4 l 0,12 -16,0 0,-12 c 0,-2.216 1.784,-4 4,-4 z" />
        <path
           style="opacity:0.1;color:#000000;fill:#000000;fill-opacity:1;stroke:none;stroke-width:1;marker:none;visibility:visible;display:inline;overflow:visible;enable-background:accumulate"
           id="path3741"
           transform="translate(0,-74)"
           inkscape:connector-curvature="0"
           d="m 40,16 c -4.432,0 -8,3.568 -8,8 l 0,16 c -4.432,0 -8,3.568 -8,8 l 0,24 c 0,4.432 3.568,8 8,8 l 32,0 c 4.432,0 8,-3.568 8,-8 l 0,-24 c 0,-4.432 -3.568,-8 -8,-8 l 0,-16 c 0,-4.432 -3.568,-8 -8,-8 l -16,0 z m 0,2.0625 16,0 c 3.329948,0 5.9375,2.607552 5.9375,5.9375 l 0,16 A 2.0535799,2.0535799 0 0 0 64,42.0625 c 3.329948,0 5.9375,2.607552 5.9375,5.9375 l 0,24 c 0,3.329948 -2.607552,5.9375 -5.9375,5.9375 l -32,0 c -3.329948,0 -5.9375,-2.607552 -5.9375,-5.9375 l 0,-24 c 0,-3.329948 2.607552,-5.9375 5.9375,-5.9375 A 2.0535799,2.0535799 0 0 0 34.0625,40 l 0,-16 c 0,-3.329948 2.607552,-5.9375 5.9375,-5.9375 z m 4,3.875 c -3.318052,0 -6.0625,2.744448 -6.0625,6.0625 l 0,12 A 2.0535799,2.0535799 0 0 0 40,42.0625 l 16,0 A 2.0535799,2.0535799 0 0 0 58.0625,40 l 0,-12 c 0,-3.318052 -2.744448,-6.0625 -6.0625,-6.0625 l -8,0 z M 44,24 l 8,0 c 2.216,0 4,1.784 4,4 l 0,12 -16,0 0,-12 c 0,-2.216 1.784,-4 4,-4 z" />
        <path
           style="opacity:0.2;color:#000000;fill:#000000;fill-opacity:1;stroke:none;stroke-width:1;marker:none;visibility:visible;display:inline;overflow:visible;enable-background:accumulate"
           id="path3956-9"
           transform="translate(0,-74)"
           inkscape:connector-curvature="0"
           d="m 40,16 c -4.432,0 -8,3.568 -8,8 l 0,16 c -4.432,0 -8,3.568 -8,8 l 0,24 c 0,4.432 3.568,8 8,8 l 32,0 c 4.432,0 8,-3.568 8,-8 l 0,-24 c 0,-4.432 -3.568,-8 -8,-8 l 0,-16 c 0,-4.432 -3.568,-8 -8,-8 l -16,0 z m 0,1 16,0 c 3.893843,0 7,3.106157 7,7 l 0,16 a 1.0028092,1.0028092 0 0 0 1,1 c 3.893843,0 7,3.106157 7,7 l 0,24 c 0,3.893843 -3.106157,7 -7,7 l -32,0 c -3.893843,0 -7,-3.106157 -7,-7 l 0,-24 c 0,-3.893843 3.106157,-7 7,-7 a 1.0028092,1.0028092 0 0 0 1,-1 l 0,-16 c 0,-3.893843 3.106157,-7 7,-7 z m 4,6 c -2.754157,0 -5,2.245843 -5,5 l 0,12 a 1.0028092,1.0028092 0 0 0 1,1 l 16,0 a 1.0028092,1.0028092 0 0 0 1,-1 l 0,-12 c 0,-2.754157 -2.245843,-5 -5,-5 l -8,0 z m 0,1 8,0 c 2.216,0 4,1.784 4,4 l 0,12 -16,0 0,-12 c 0,-2.216 1.784,-4 4,-4 z" />
        <path
           style="opacity:0.3;color:#000000;fill:#000000;fill-opacity:1;stroke:none;stroke-width:1;marker:none;visibility:visible;display:inline;overflow:visible;enable-background:accumulate"
           id="path3963-7"
           transform="translate(0,-74)"
           inkscape:connector-curvature="0"
           d="m 40,16 c -4.432,0 -8,3.568 -8,8 l 0,1 c 0,-4.432 3.568,-8 8,-8 l 16,0 c 4.432,0 8,3.568 8,8 l 0,-1 c 0,-4.432 -3.568,-8 -8,-8 l -16,0 z m -8,24 c -4.432,0 -8,3.568 -8,8 l 0,1 c 0,-4.432 3.568,-8 8,-8 l 0,-1 z m 8,0 0,1 16,0 0,-1 -16,0 z m 24,0 0,1 c 4.432,0 8,3.568 8,8 l 0,-1 c 0,-4.432 -3.568,-8 -8,-8 z" />
        <path
           style="opacity:0.5;color:#000000;fill:#ffffff;fill-opacity:1;stroke:none;stroke-width:1;marker:none;visibility:visible;display:inline;overflow:visible;enable-background:accumulate"
           id="path3972-7"
           transform="translate(0,-74)"
           inkscape:connector-curvature="0"
           d="m 44,24 c -2.216,0 -4,1.784 -4,4 l 0,1 c 0,-2.216 1.784,-4 4,-4 l 8,0 c 2.216,0 4,1.784 4,4 l 0,-1 c 0,-2.216 -1.784,-4 -4,-4 l -8,0 z m -20,48 0,1 c 0,4.432 3.568,8 8,8 l 32,0 c 4.432,0 8,-3.568 8,-8 l 0,-1 c 0,4.432 -3.568,8 -8,8 l -32,0 c -4.432,0 -8,-3.568 -8,-8 z" />
      </g>
    </g>
  </g>
</svg>
