<?xml version="1.0" encoding="UTF-8" standalone="no"?>
<svg
   xmlns:dc="http://purl.org/dc/elements/1.1/"
   xmlns:cc="http://creativecommons.org/ns#"
   xmlns:rdf="http://www.w3.org/1999/02/22-rdf-syntax-ns#"
   xmlns:svg="http://www.w3.org/2000/svg"
   xmlns="http://www.w3.org/2000/svg"
   xmlns:xlink="http://www.w3.org/1999/xlink"
   xmlns:sodipodi="http://sodipodi.sourceforge.net/DTD/sodipodi-0.dtd"
   xmlns:inkscape="http://www.inkscape.org/namespaces/inkscape"
   sodipodi:docname="emblem-weather.svg"
   inkscape:version="1.0beta2 (2b71d25d45, 2019-12-03)"
   id="svg1072"
   version="1.1"
   viewBox="0 0 32 32"
   height="32"
   width="32">
  <defs
     id="defs1066">
    <linearGradient
       inkscape:collect="always"
       xlink:href="#linearGradient6139-0"
       id="linearGradient4071"
       gradientUnits="userSpaceOnUse"
       gradientTransform="matrix(0.35751486,0,0,0.3575148,-1.5117588,-0.888173)"
       x1="6"
       y1="47.000011"
       x2="90"
       y2="47.000011" />
    <linearGradient
       id="linearGradient6139-0">
      <stop
         id="stop6141-2"
         offset="0"
         style="stop-color:#b4b9ba;stop-opacity:1" />
      <stop
         style="stop-color:#ffffff;stop-opacity:1;"
         offset="0.25"
         id="stop6151-0" />
      <stop
         style="stop-color:#98a0a2;stop-opacity:1"
         offset="0.5"
         id="stop6147-1" />
      <stop
         id="stop6149-4"
         offset="0.75"
         style="stop-color:#fbf9f9;stop-opacity:1;" />
      <stop
         id="stop6143-4"
         offset="1"
         style="stop-color:#b4b8ba;stop-opacity:1" />
    </linearGradient>
    <linearGradient
       gradientTransform="matrix(0.32291666,0,0,0.32291667,0.14895513,0.415026)"
       inkscape:collect="always"
       xlink:href="#linearGradient3832-0-6-1-1"
       id="linearGradient4129"
       x1="1.5"
       y1="88.171875"
       x2="94.5"
       y2="88.171875"
       gradientUnits="userSpaceOnUse" />
    <linearGradient
       id="linearGradient3832-0-6-1-1">
      <stop
         style="stop-color:#000000;stop-opacity:1;"
         offset="0"
         id="stop3834-6-3-7-1" />
      <stop
         id="stop3872-2-4"
         offset="0.1"
         style="stop-color:#000000;stop-opacity:0.58823532;" />
      <stop
         style="stop-color:#000000;stop-opacity:0.58823532;"
         offset="0.89999998"
         id="stop3844-6-2-7-6" />
      <stop
         style="stop-color:#000000;stop-opacity:1;"
         offset="1"
         id="stop3836-5-0-2-9" />
    </linearGradient>
    <radialGradient
       inkscape:collect="always"
       xlink:href="#linearGradient3737"
       id="radialGradient7462"
       gradientUnits="userSpaceOnUse"
       gradientTransform="matrix(0.31488694,0,0,0.0158845,11.095409,26.302189)"
       cx="13.948145"
       cy="44.892841"
       fx="13.948145"
       fy="44.892841"
       r="43.199203" />
    <linearGradient
       id="linearGradient3737">
      <stop
         offset="0"
         style="stop-color:#ffffff;stop-opacity:1"
         id="stop3739" />
      <stop
         offset="1"
         style="stop-color:#ffffff;stop-opacity:0"
         id="stop3741" />
    </linearGradient>
    <radialGradient
       inkscape:collect="always"
       xlink:href="#linearGradient3737"
       id="radialGradient7464"
       gradientUnits="userSpaceOnUse"
       gradientTransform="matrix(0.28685548,0,0,0.0158845,10.601268,-29.265803)"
       cx="13.948145"
       cy="44.892841"
       fx="13.948145"
       fy="44.892841"
       r="43.199203" />
    <linearGradient
       inkscape:collect="always"
       xlink:href="#linearGradient3737"
       id="linearGradient4767"
       gradientUnits="userSpaceOnUse"
       x1="2.7713892"
       y1="-28.64156"
       x2="50.527882"
       y2="14.514202" />
    <clipPath
       id="clipPath4156-4-1"
       clipPathUnits="userSpaceOnUse">
      <path
         inkscape:connector-curvature="0"
         id="path4158-0-8"
         d="m 27.046336,-55.695463 -14.21366,13.321486 h 0.06127 l 15.653407,21.770763 10.231384,-10.546177 C 38.561832,-32.30156 27.468089,-54.819245 27.046336,-55.695463 Z M 9.6468554,-39.382809 -5.2407289,-25.32124 15.987863,-7.8059573 26.372412,-18.382966 Z m 31.4906096,12.951445 -9.741259,9.713584 8.944804,12.4580526 7.780753,-7.5550056 z m -49.8397109,4.378822 -13.7541661,12.9822847 26.2830181,13.84571 0.06127,-0.0617 -0.122531,-0.0617 L 13.598503,-5.4007374 -8.7022409,-22.052595 Z m 38.0154159,7.400825 -9.802525,9.7752596 11.579232,9.5594001 7.62759,-7.40083 -8.669108,-11.0087257 z m 20.187073,5.6739697 -7.382526,7.2158 6.187844,8.54179 5.820249,-6.13651996 z m -32.195166,6.32154 -9.5574606,9.49772 13.6622686,7.1849703 7.933918,-7.6783603 z m 23.311629,2.37443004 -7.10683,6.93826996 8.362778,6.9074403 5.360756,-5.6739699 -0.06127,-0.0925 -0.0919,0.12335 -6.463539,-8.20258036 z m -8.730374,8.54178036 -7.505057,7.3391599 10.353916,5.45811 c 1.397496,-1.32103 5.67514,-6.12292 5.850882,-6.32154 z"
         style="opacity:0.6;fill:#ffffff;fill-opacity:1;stroke:none" />
    </clipPath>
    <radialGradient
       r="32"
       fy="43.851852"
       fx="52.148148"
       cy="43.851852"
       cx="52.148148"
       gradientTransform="matrix(1.0666281,-4.4233427e-8,4.4760931e-8,1.0793482,-17.622683,5.668591)"
       gradientUnits="userSpaceOnUse"
       id="radialGradient5037"
       xlink:href="#linearGradient4519"
       inkscape:collect="always" />
    <linearGradient
       id="linearGradient4519">
      <stop
         offset="0"
         style="stop-color:#e4bc7a;stop-opacity:1;"
         id="stop4521" />
      <stop
         offset="1"
         style="stop-color:#342a1b;stop-opacity:1;"
         id="stop4523" />
    </linearGradient>
    <linearGradient
       y2="43.000004"
       x2="75"
       y1="43.000004"
       x1="21"
       gradientTransform="rotate(90,48,43.000004)"
       gradientUnits="userSpaceOnUse"
       id="linearGradient5039"
       xlink:href="#linearGradient3812-3"
       inkscape:collect="always" />
    <linearGradient
       id="linearGradient3812-3">
      <stop
         id="stop3814-7"
         style="stop-color:#a49265;stop-opacity:1"
         offset="0" />
      <stop
         id="stop3816-2"
         style="stop-color:#ece8df;stop-opacity:1"
         offset="1" />
    </linearGradient>
    <filter
       id="filter4057-4"
       style="color-interpolation-filters:sRGB">
      <feGaussianBlur
         id="feGaussianBlur4059-9"
         stdDeviation="0.4121875" />
    </filter>
    <filter
       id="filter4082-7"
       style="color-interpolation-filters:sRGB">
      <feGaussianBlur
         id="feGaussianBlur4084-2"
         stdDeviation="0.3846875" />
    </filter>
    <linearGradient
       gradientTransform="matrix(0.58747152,0,0,0.37002308,10.401824,18.73364)"
       y2="55.535763"
       x2="64.995598"
       y1="-0.90906203"
       x1="64.995598"
       gradientUnits="userSpaceOnUse"
       id="linearGradient5043"
       xlink:href="#linearGradient3737"
       inkscape:collect="always" />
    <linearGradient
       y2="89.995026"
       x2="35.83757"
       y1="56.923836"
       x1="35.83757"
       gradientTransform="matrix(0.4631574,0,0,0.25552508,-4.8344441,4.9751399)"
       gradientUnits="userSpaceOnUse"
       id="linearGradient5047"
       xlink:href="#linearGradient3814-9"
       inkscape:collect="always" />
    <linearGradient
       id="linearGradient3814-9">
      <stop
         id="stop3816-9"
         style="stop-color:#e2e1ed;stop-opacity:1"
         offset="0" />
      <stop
         id="stop3818-8"
         style="stop-color:#e2e1ed;stop-opacity:0"
         offset="1" />
    </linearGradient>
    <linearGradient
       y2="89.995026"
       x2="35.83757"
       y1="56.923836"
       x1="35.83757"
       gradientTransform="matrix(-0.3090427,0,0,0.30904271,34.093327,-13.239366)"
       gradientUnits="userSpaceOnUse"
       id="linearGradient900"
       xlink:href="#linearGradient3814-9"
       inkscape:collect="always" />
  </defs>
  <sodipodi:namedview
     inkscape:document-rotation="0"
     inkscape:window-maximized="1"
     inkscape:window-y="21"
     inkscape:window-x="0"
     inkscape:window-height="1027"
     inkscape:window-width="1920"
     inkscape:lockguides="false"
     units="px"
     inkscape:showpageshadow="false"
     showgrid="false"
     inkscape:current-layer="g2574"
     inkscape:document-units="px"
     inkscape:cy="44.557005"
     inkscape:cx="-63.805271"
     inkscape:zoom="3.0119614"
     inkscape:pageshadow="2"
     inkscape:pageopacity="0.0"
     borderopacity="1.0"
     bordercolor="#666666"
     pagecolor="#ffffff"
     id="base" />
  <metadata
     id="metadata1069">
    <rdf:RDF>
      <cc:Work
         rdf:about="">
        <dc:format>image/svg+xml</dc:format>
        <dc:type
           rdf:resource="http://purl.org/dc/dcmitype/StillImage" />
        <dc:title />
        <dc:date>2017</dc:date>
        <dc:creator>
          <cc:Agent>
            <dc:title>Cristian Pozzessere &quot;ilnanny&quot;</dc:title>
          </cc:Agent>
        </dc:creator>
        <dc:subject>
          <rdf:Bag>
            <rdf:li>Global language</rdf:li>
          </rdf:Bag>
        </dc:subject>
        <dc:description>Playing with Inkscape on Gnu/Linux O. S.</dc:description>
        <dc:contributor>
          <cc:Agent>
            <dc:title>In the night, alone like a dog.</dc:title>
          </cc:Agent>
        </dc:contributor>
        <cc:license
           rdf:resource="http://creativecommons.org/licenses/by-sa/4.0/" />
      </cc:Work>
      <cc:License
         rdf:about="http://creativecommons.org/licenses/by-sa/4.0/">
        <cc:permits
           rdf:resource="http://creativecommons.org/ns#Reproduction" />
        <cc:permits
           rdf:resource="http://creativecommons.org/ns#Distribution" />
        <cc:requires
           rdf:resource="http://creativecommons.org/ns#Notice" />
        <cc:requires
           rdf:resource="http://creativecommons.org/ns#Attribution" />
        <cc:permits
           rdf:resource="http://creativecommons.org/ns#DerivativeWorks" />
        <cc:requires
           rdf:resource="http://creativecommons.org/ns#ShareAlike" />
      </cc:License>
    </rdf:RDF>
  </metadata>
  <g
     transform="translate(0,-1026.5197)"
     id="layer1"
     inkscape:groupmode="layer"
     inkscape:label="Livello 1">
    <g
       id="g2574"
       style="display:inline"
       transform="translate(-0.14895645,1026.1047)">
      <g
         transform="translate(0.5000005,0.499974)"
         id="g81">
        <path
           inkscape:connector-curvature="0"
           id="path3288"
           d="M 28.934669,0.415026 H 2.3632391 c -1.2267113,0 -2.2142832,0.9875712 -2.2142832,2.2142848 V 29.200741 c 0,1.226714 0.9875719,2.214285 2.2142832,2.214285 H 28.934669 c 1.226714,0 2.214287,-0.987571 2.214287,-2.214285 V 2.6293108 c 0,-1.2267136 -0.987573,-2.2142848 -2.214287,-2.2142848 z"
           style="display:inline;opacity:0.15;fill:#000000;fill-opacity:1;fill-rule:nonzero;stroke:none;stroke-width:0.322917" />
        <path
           style="display:inline;opacity:0.15;fill:#000000;fill-opacity:1;fill-rule:nonzero;stroke:none;stroke-width:0.322917"
           d="M 28.72708,0.6572135 H 2.570828 c -1.2075442,0 -2.17968518,0.9721403 -2.17968518,2.1796865 v 26.156251 c 0,1.207547 0.97214098,2.179687 2.17968518,2.179687 H 28.72708 c 1.207548,0 2.179688,-0.97214 2.179688,-2.179687 V 2.8369 c 0,-1.2075462 -0.97214,-2.1796865 -2.179688,-2.1796865 z"
           id="path4085"
           inkscape:connector-curvature="0" />
        <path
           inkscape:connector-curvature="0"
           id="rect4251-1"
           d="M 28.519489,0.899401 H 2.7784195 c -1.1883795,0 -2.14508906,0.9567094 -2.14508906,2.1450886 V 28.785562 c 0,1.18838 0.95670956,2.145089 2.14508906,2.145089 H 28.519489 c 1.18838,0 2.145089,-0.956709 2.145089,-2.145089 V 3.0444896 c 0,-1.1883792 -0.956709,-2.1450886 -2.145089,-2.1450886 z"
           style="display:inline;fill:url(#linearGradient4071);fill-opacity:1;fill-rule:nonzero;stroke:none;stroke-width:0.322917" />
        <path
           sodipodi:nodetypes="sscccsccscccsss"
           inkscape:connector-curvature="0"
           id="path3400-6"
           d="m 3.7789561,2.4775407 c -0.9224103,0 -1.6546664,0.7474512 -1.6546664,1.6890007 v 6.9987956 2.364601 13.036972 c 0.354317,0.550202 0.9586906,0.918394 1.6546664,0.918394 h 1.3237333 21.1797326 1.323733 c 0.695976,0 1.300349,-0.368192 1.654666,-0.918394 V 13.529938 11.165337 4.1665414 c 0,-0.9415495 -0.732256,-1.6890007 -1.654666,-1.6890007 z"
           style="display:inline;opacity:0.778646;fill:#3082dd;fill-opacity:1;fill-rule:nonzero;stroke:none;stroke-width:0.334349" />
        <path
           sodipodi:nodetypes="ccscsscscssscsscscscscsssccscscscssccscc"
           d="m 24.667526,3.2364755 c 0.293729,0 0.565079,0.09444 0.782265,0.2510968 0.179258,-0.027642 0.363489,-0.048289 0.550483,-0.048289 0.817028,0 1.560792,0.2829428 2.163297,0.7436351 0.06959,-0.011011 0.139587,-0.01931 0.212469,-0.01931 0.714666,0 1.294115,0.5475763 1.294115,1.2265118 0,0.2546004 -0.0826,0.48949 -0.222125,0.6856909 0.08282,0.3021467 0.12555,0.6180044 0.12555,0.9464429 0,0.3317485 -0.04111,0.6512325 -0.12555,0.9561014 0.191583,-0.086228 0.40402,-0.1352052 0.627743,-0.1352052 0.845693,0 -0.365618,0.6802046 -0.365618,1.5258975 0,0.8456923 1.211311,1.5355553 0.365618,1.5355553 -0.113146,0 -0.222202,-0.01534 -0.328357,-0.03863 1.97e-4,0.01276 0,0.02583 0,0.03863 0,1.33405 -1.080347,2.414396 -2.414397,2.414396 -0.860979,0 -1.610007,-0.451841 -2.03775,-1.129937 -0.630785,0.568938 -1.469076,0.917471 -2.385423,0.917471 -1.240806,0 -2.328014,-0.64035 -2.964879,-1.603158 -0.399952,0.300125 -0.890794,0.482876 -1.429322,0.482876 -0.842134,0 -1.582044,-0.443571 -2.008777,-1.100961 -0.214219,0.171875 -0.47659,0.280068 -0.772607,0.280068 -0.404627,0 -0.766089,-0.194544 -0.994732,-0.492538 -0.09972,0.06281 -0.221116,0.106233 -0.347673,0.106233 -0.357334,0 -0.647058,-0.289724 -0.647058,-0.647057 0,-0.3573327 0.289724,-0.6470568 0.647058,-0.6470568 0.05583,0 0.112496,0.00601 0.164179,0.01931 0.156787,-0.449978 0.562394,-0.7807609 1.052677,-0.8305514 0.02665,-0.4166109 0.368584,-0.7436351 0.791922,-0.7436351 0.117806,0 0.227707,0.021765 0.328358,0.067603 0.438328,-0.4893641 1.077975,-0.8015793 1.786653,-0.8015793 0.316599,0 0.611887,0.0622 0.888498,0.1738358 0.0693,-0.7334891 0.687354,-1.3134313 1.43898,-1.3134313 0.08659,0 0.168701,0.01437 0.251097,0.028966 -0.0099,-0.067267 -0.01932,-0.1327865 -0.01932,-0.2028078 0,-0.774225 0.635783,-1.4003507 1.410008,-1.4003507 0.290334,0 0.558526,0.080629 0.782264,0.2317831 0.03852,-0.045609 0.07517,-0.091592 0.115891,-0.1352084 -0.0037,-0.038094 -0.0097,-0.076864 -0.0097,-0.1158916 0,-0.6789323 0.579448,-1.2265118 1.294117,-1.2265118 z"
           inkscape:connector-curvature="0"
           id="path898"
           style="color:#000000;display:inline;overflow:visible;visibility:visible;fill:url(#linearGradient900);fill-opacity:1;fill-rule:nonzero;stroke:none;stroke-width:0.463564;marker:none;enable-background:accumulate" />
        <g
           id="g1016"
           transform="matrix(0.3090427,0,0,0.3090427,0.81490674,2.6261801)">
          <path
             style="color:#000000;display:inline;overflow:visible;visibility:visible;fill:url(#radialGradient5037);fill-opacity:1;fill-rule:nonzero;stroke:none;stroke-width:1.26562;marker:none;enable-background:accumulate"
             id="path3695"
             d="m 74.999999,43.000004 a 27.000001,27.000001 0 1 1 -54.000002,0 27.000001,27.000001 0 1 1 54.000002,0 z"
             inkscape:connector-curvature="0" />
          <path
             style="color:#000000;display:inline;overflow:visible;visibility:visible;opacity:0.6;fill:url(#linearGradient5039);fill-opacity:1;fill-rule:nonzero;stroke:none;stroke-width:1.5;marker:none;enable-background:accumulate"
             id="path3695-8"
             inkscape:connector-curvature="0"
             d="m 75,43.000004 c 0,-14.911689 -12.088311,-27 -27,-27 -14.911689,0 -27,12.088311 -27,27 0,14.911689 12.088311,27 27,27 14.911689,0 27,-12.088311 27,-27 z m -1,0 c 0,14.359403 -11.640597,26 -26,26 -14.359403,0 -26,-11.640597 -26,-26 0,-14.359403 11.640597,-26 26,-26 14.359403,0 26,11.640597 26,26 z" />
          <path
             style="color:#000000;display:inline;overflow:visible;visibility:visible;opacity:0.4;fill:#a18a56;fill-opacity:1;fill-rule:nonzero;stroke:none;stroke-width:1.5;marker:none;filter:url(#filter4057-4);enable-background:accumulate"
             id="path3986"
             inkscape:connector-curvature="0"
             d="m 62.25,24.09375 c -0.762098,0 -1.375,0.612902 -1.375,1.375 0,0.762098 0.612902,1.375 1.375,1.375 0.762098,0 1.375,-0.612902 1.375,-1.375 0,-0.762098 -0.612902,-1.375 -1.375,-1.375 z m -20.40625,1.625 c -0.628797,0.128671 -1.09375,0.708164 -1.09375,1.375 0,0.762098 0.612902,1.375 1.375,1.375 0.762098,0 1.375,-0.612902 1.375,-1.375 0,-0.762098 -0.612902,-1.375 -1.375,-1.375 -0.09526,0 -0.191422,-0.01838 -0.28125,0 z M 31.90625,25.875 C 31.413128,25.875 31,26.256878 31,26.75 c 0,0.493122 0.413128,0.90625 0.90625,0.90625 0.493122,0 0.875,-0.413128 0.875,-0.90625 0,-0.493122 -0.381878,-0.875 -0.875,-0.875 z m 28,2.59375 c -0.806927,0 -1.46875,0.661823 -1.46875,1.46875 0,0.806927 0.661823,1.4375 1.46875,1.4375 0.806927,0 1.46875,-0.630573 1.46875,-1.4375 0,-0.806927 -0.661823,-1.46875 -1.46875,-1.46875 z m -3.96875,2.75 c -0.403464,0 -0.75,0.346536 -0.75,0.75 0,0.403464 0.346536,0.71875 0.75,0.71875 0.403464,0 0.71875,-0.315286 0.71875,-0.71875 0,-0.403464 -0.315286,-0.75 -0.71875,-0.75 z M 45.875,31.375 c -0.403464,0 -0.75,0.346536 -0.75,0.75 0,0.403464 0.346536,0.71875 0.75,0.71875 0.403464,0 0.71875,-0.315286 0.71875,-0.71875 0,-0.403464 -0.315286,-0.75 -0.71875,-0.75 z m -15.4375,0.5 c -1.031074,0 -1.875,0.843926 -1.875,1.875 0,1.031074 0.843926,1.84375 1.875,1.84375 1.031074,0 1.875,-0.812676 1.875,-1.84375 0,-1.031074 -0.843926,-1.875 -1.875,-1.875 z m 38,4.875 c -0.582781,0 -1.0625,0.479719 -1.0625,1.0625 0,0.582781 0.479719,1.03125 1.0625,1.03125 0.582781,0 1.03125,-0.448469 1.03125,-1.03125 0,-0.582781 -0.448469,-1.0625 -1.03125,-1.0625 z M 37.34375,39.5 c -0.62761,0 -1.15625,0.52864 -1.15625,1.15625 0,0.62761 0.52864,1.125 1.15625,1.125 0.62761,0 1.125,-0.49739 1.125,-1.125 0,-0.62761 -0.49739,-1.15625 -1.125,-1.15625 z m 26.375,0.65625 c -0.851757,0 -1.53125,0.679493 -1.53125,1.53125 0,0.851757 0.679493,1.5625 1.53125,1.5625 0.851757,0 1.53125,-0.710743 1.53125,-1.5625 0,-0.851757 -0.679493,-1.53125 -1.53125,-1.53125 z m -34.6875,3.25 c -0.435212,0 -0.78125,0.199774 -0.78125,0.46875 0,0.268976 0.346038,0.5 0.78125,0.5 0.435212,0 0.78125,-0.231024 0.78125,-0.5 0,-0.268976 -0.346038,-0.46875 -0.78125,-0.46875 z m 9.59375,2.75 c -0.717269,0 -1.28125,0.595231 -1.28125,1.3125 0,0.717269 0.563981,1.28125 1.28125,1.28125 0.717269,0 1.3125,-0.563981 1.3125,-1.28125 0,-0.717269 -0.595231,-1.3125 -1.3125,-1.3125 z M 28.5,47.9375 c -0.493122,0 -0.90625,0.413128 -0.90625,0.90625 0,0.493122 0.413128,0.875 0.90625,0.875 0.493122,0 0.875,-0.381878 0.875,-0.875 0,-0.493122 -0.381878,-0.90625 -0.875,-0.90625 z m 29.375,0 c -0.493122,0 -0.90625,0.413128 -0.90625,0.90625 0,0.493122 0.413128,0.875 0.90625,0.875 0.493122,0 0.90625,-0.381878 0.90625,-0.875 0,-0.493122 -0.413128,-0.90625 -0.90625,-0.90625 z m -4.3125,0.5 c -0.806927,0 -1.4375,0.661823 -1.4375,1.46875 0,0.806927 0.630573,1.4375 1.4375,1.4375 0.806927,0 1.46875,-0.630573 1.46875,-1.4375 0,-0.806927 -0.661823,-1.46875 -1.46875,-1.46875 z m 4.0625,6.15625 c -0.448293,0 -0.8125,0.364207 -0.8125,0.8125 0,0.448293 0.364207,0.8125 0.8125,0.8125 0.448293,0 0.8125,-0.364207 0.8125,-0.8125 0,-0.448293 -0.364207,-0.8125 -0.8125,-0.8125 z M 29.78125,55.25 c -0.851757,0 -1.53125,0.679493 -1.53125,1.53125 0,0.851757 0.679493,1.5625 1.53125,1.5625 0.851757,0 1.5625,-0.710743 1.5625,-1.5625 0,-0.851757 -0.710743,-1.53125 -1.5625,-1.53125 z m 5.375,3.09375 c -0.403464,0 -0.75,0.315286 -0.75,0.71875 0,0.403464 0.346536,0.75 0.75,0.75 0.403464,0 0.71875,-0.346536 0.71875,-0.75 0,-0.403464 -0.315286,-0.71875 -0.71875,-0.71875 z m 17.6875,3.875 c -0.672439,0 -1.21875,0.546311 -1.21875,1.21875 0,0.672439 0.546311,1.21875 1.21875,1.21875 0.672439,0 1.21875,-0.546311 1.21875,-1.21875 0,-0.672439 -0.546311,-1.21875 -1.21875,-1.21875 z" />
          <path
             style="color:#000000;display:inline;overflow:visible;visibility:visible;opacity:0.5;fill:#ffffff;fill-opacity:1;fill-rule:nonzero;stroke:none;stroke-width:1.5;marker:none;filter:url(#filter4082-7);enable-background:accumulate"
             id="path4061"
             inkscape:connector-curvature="0"
             d="m 57.46875,28.46875 c -0.537952,0 -0.96875,0.430798 -0.96875,0.96875 0,0.537952 0.430798,0.96875 0.96875,0.96875 0.537952,0 0.96875,-0.430798 0.96875,-0.96875 0,-0.537952 -0.430798,-0.96875 -0.96875,-0.96875 z M 42.4375,36.25 c -1.210391,0 -2.1875,0.977109 -2.1875,2.1875 0,1.210391 0.977109,2.21875 2.1875,2.21875 1.210391,0 2.21875,-1.008359 2.21875,-2.21875 0,-1.210391 -1.008359,-2.1875 -2.21875,-2.1875 z M 34.5,36.75 c -0.582781,0 -1.0625,0.479719 -1.0625,1.0625 0,0.582781 0.479719,1.03125 1.0625,1.03125 0.582781,0 1.0625,-0.448469 1.0625,-1.03125 0,-0.582781 -0.479719,-1.0625 -1.0625,-1.0625 z m -10.40625,3.09375 c -1.031074,0 -1.84375,0.812676 -1.84375,1.84375 0,1.031074 0.812676,1.875 1.84375,1.875 1.031074,0 1.875,-0.843926 1.875,-1.875 0,-1.031074 -0.843926,-1.84375 -1.875,-1.84375 z M 24.75,45.1875 c -0.672439,0 -1.21875,0.546311 -1.21875,1.21875 0,0.672439 0.546311,1.21875 1.21875,1.21875 0.672439,0 1.21875,-0.546311 1.21875,-1.21875 0,-0.672439 -0.546311,-1.21875 -1.21875,-1.21875 z m 30.4375,0.15625 c -0.537952,0 -0.96875,0.430798 -0.96875,0.96875 0,0.537952 0.430798,1 0.96875,1 0.537952,0 0.96875,-0.462048 0.96875,-1 0,-0.537952 -0.430798,-0.96875 -0.96875,-0.96875 z m -5.84375,7 c -0.806927,0 -1.4375,0.630573 -1.4375,1.4375 0,0.806927 0.630573,1.46875 1.4375,1.46875 0.806927,0 1.46875,-0.661823 1.46875,-1.46875 0,-0.806927 -0.661823,-1.4375 -1.46875,-1.4375 z m -3.96875,6.8125 c -1.389708,0 -2.53125,1.110292 -2.53125,2.5 0,1.389708 1.141542,2.53125 2.53125,2.53125 1.389708,0 2.53125,-1.141542 2.53125,-2.53125 0,-1.389708 -1.141542,-2.5 -2.53125,-2.5 z m 15.5,0.46875 c -0.806927,0 -1.46875,0.661823 -1.46875,1.46875 0,0.806927 0.661823,1.46875 1.46875,1.46875 0.806927,0 1.46875,-0.661823 1.46875,-1.46875 0,-0.806927 -0.661823,-1.46875 -1.46875,-1.46875 z m -21.09375,1.78125 c -1.075903,0 -1.96875,0.892847 -1.96875,1.96875 0,1.075903 0.892847,1.9375 1.96875,1.9375 1.075903,0 1.9375,-0.861597 1.9375,-1.9375 0,-1.075903 -0.861597,-1.96875 -1.9375,-1.96875 z" />
          <path
             style="color:#000000;display:inline;overflow:visible;visibility:visible;opacity:0.5;fill:url(#linearGradient5043);fill-opacity:1;fill-rule:nonzero;stroke:none;stroke-width:0.699357;marker:none;enable-background:accumulate"
             id="path4086"
             d="m 66.79909,30.574379 a 18.799089,11.840739 0 1 1 -37.598177,0 18.799089,11.840739 0 1 1 37.598177,0 z"
             inkscape:connector-curvature="0" />
        </g>
        <path
           style="color:#000000;display:inline;overflow:visible;visibility:visible;fill:url(#linearGradient5047);fill-opacity:1;fill-rule:nonzero;stroke:none;stroke-width:0.516027;marker:none;enable-background:accumulate"
           id="path3739"
           inkscape:connector-curvature="0"
           d="m 9.2918556,18.597822 c -0.4402068,0 -0.8468745,0.07809 -1.1723671,0.207614 -0.2686524,-0.02286 -0.5447555,-0.03993 -0.8250013,-0.03993 -1.2244664,0 -2.3391341,0.233944 -3.2420975,0.614857 -0.1043011,-0.0091 -0.2091974,-0.01597 -0.3184249,-0.01597 -1.0710589,0 -1.9394686,0.452752 -1.9394686,1.014114 0,0.210511 0.1237847,0.404724 0.3328947,0.566949 -0.1241235,0.249823 -0.1881598,0.510983 -0.1881598,0.782545 0,0.274299 0.061607,0.538457 0.1881598,0.790531 -0.2871227,-0.0713 -0.605499,-0.111791 -0.9407893,-0.111791 -1.26742659,0 0.5479462,0.562412 0.5479462,1.261654 0,0.699242 -1.81537279,1.26964 -0.5479462,1.26964 0.1695713,0 0.3330109,-0.01268 0.4921047,-0.03194 -2.952e-4,0.01055 0,0.02136 0,0.03194 0,1.103029 1.6190986,1.99629 3.6184173,1.99629 1.2903366,0 2.4128927,-0.373595 3.0539437,-0.934263 0.9453472,0.470413 2.2016807,0.75859 3.5749967,0.75859 1.859575,0 3.488957,-0.529459 4.443416,-1.325536 0.599402,0.248152 1.33502,0.399256 2.142103,0.399256 1.262092,0 2.370985,-0.366757 3.010523,-0.910306 0.321046,0.142112 0.714258,0.231569 1.157894,0.231569 0.606408,0 1.148125,-0.160855 1.490788,-0.407244 0.149448,0.05193 0.331384,0.08784 0.521052,0.08784 0.535531,0 0.969736,-0.239552 0.969736,-0.535005 0,-0.295453 -0.434205,-0.535005 -0.969736,-0.535005 -0.08368,0 -0.168596,0.005 -0.246052,0.01597 -0.234975,-0.372055 -0.842851,-0.645555 -1.57763,-0.686723 -0.03994,-0.344466 -0.552391,-0.614859 -1.186842,-0.614859 -0.176553,0 -0.34126,0.018 -0.492104,0.0559 -0.656915,-0.40462 -1.615545,-0.662768 -2.677629,-0.662768 -0.474483,0 -0.917025,0.05143 -1.331577,0.143732 -0.103867,-0.606469 -1.030127,-1.085981 -2.156577,-1.085981 -0.129766,0 -0.25283,0.01188 -0.376316,0.02395 0.01485,-0.05562 0.02895,-0.109792 0.02895,-0.167687 0,-0.640151 -0.952838,-1.157849 -2.113156,-1.157849 -0.435119,0 -0.837055,0.06667 -1.172368,0.191645 -0.05774,-0.03771 -0.112655,-0.07573 -0.173683,-0.111795 0.0056,-0.0315 0.01448,-0.06355 0.01448,-0.09582 0,-0.56136 -0.868408,-1.014114 -1.9394716,-1.014114 z"
           sodipodi:nodetypes="ccscsscscssscsscscscscsssccscscscssccscc" />
        <path
           style="color:#000000;font-style:normal;font-variant:normal;font-weight:normal;font-stretch:normal;font-size:medium;line-height:normal;font-family:Sans;-inkscape-font-specification:Sans;text-indent:0;text-align:start;text-decoration:none;text-decoration-line:none;letter-spacing:normal;word-spacing:normal;text-transform:none;writing-mode:lr-tb;direction:ltr;baseline-shift:baseline;text-anchor:start;display:inline;overflow:visible;visibility:visible;fill:#241f1f;fill-opacity:0.632653;stroke:none;stroke-width:0.767091;marker:none;enable-background:accumulate"
           d="m 3.3216374,1.9422477 c -1.0064089,0 -1.8302804,0.8200502 -1.8302804,1.8231889 V 26.136456 c 0,1.003139 0.8238715,1.823189 1.8302804,1.823189 H 28.118984 c 1.006409,0 1.830282,-0.82005 1.830282,-1.823189 V 3.7654366 c 0,-1.0031384 -0.823873,-1.8231889 -1.830282,-1.8231889 z m 0,0.7489856 H 28.118984 c 0.609699,0 1.082424,0.4779473 1.082424,1.0742033 V 26.136456 c 0,0.596257 -0.472725,1.074203 -1.082424,1.074203 H 3.3216374 c -0.6096987,0 -1.0824238,-0.477946 -1.0824238,-1.074203 V 3.7654366 c 0,-0.596256 0.4727251,-1.0742033 1.0824238,-1.0742033 z"
           id="path4989"
           inkscape:connector-curvature="0" />
        <path
           id="path4118"
           d="m 0.63333012,26.843737 v 1.9375 c 0,1.188379 0.96103438,2.149414 2.14941388,2.149414 h 25.732422 c 1.188379,0 2.149415,-0.961035 2.149415,-2.149414 v -1.9375 c 0,1.188379 -0.961036,2.149414 -2.149415,2.149414 H 2.782744 c -1.1883795,0 -2.14941388,-0.961035 -2.14941388,-2.149414 z"
           style="display:inline;opacity:0.658182;fill:url(#linearGradient4129);fill-opacity:1;fill-rule:nonzero;stroke:none;stroke-width:0.322917"
           inkscape:connector-curvature="0" />
        <rect
           ry="1.3723959"
           rx="0"
           y="26.32909"
           x="1.8846323"
           height="1.3723959"
           width="27.20573"
           id="rect4131"
           style="opacity:0.55;fill:url(#radialGradient7462);fill-opacity:1;stroke:none;stroke-width:0.322917" />
        <rect
           transform="rotate(90)"
           style="opacity:0.669;fill:url(#radialGradient7464);fill-opacity:1;stroke:none;stroke-width:0.322917"
           id="rect4141"
           width="24.783854"
           height="1.3723959"
           x="2.2104416"
           y="-29.238905"
           rx="0"
           ry="1.3723959" />
        <rect
           clip-path="url(#clipPath4156-4-1)"
           ry="3.9569881"
           rx="3.9569874"
           y="-30"
           x="2"
           height="69.024437"
           width="75.965775"
           id="rect4146"
           style="opacity:0.507812;fill:url(#linearGradient4767);fill-opacity:1;stroke:none"
           transform="matrix(0.34527706,0,0,0.33831427,1.5359554,12.840532)" />
      </g>
    </g>
  </g>
</svg>
