<?xml version="1.0" encoding="UTF-8" standalone="no"?>
<svg
   xmlns:dc="http://purl.org/dc/elements/1.1/"
   xmlns:cc="http://creativecommons.org/ns#"
   xmlns:rdf="http://www.w3.org/1999/02/22-rdf-syntax-ns#"
   xmlns:svg="http://www.w3.org/2000/svg"
   xmlns="http://www.w3.org/2000/svg"
   xmlns:xlink="http://www.w3.org/1999/xlink"
   xmlns:sodipodi="http://sodipodi.sourceforge.net/DTD/sodipodi-0.dtd"
   xmlns:inkscape="http://www.inkscape.org/namespaces/inkscape"
   sodipodi:docname="emblem-python.svg"
   inkscape:version="1.0beta2 (2b71d25d45, 2019-12-03)"
   id="svg1072"
   version="1.1"
   viewBox="0 0 32 32"
   height="32"
   width="32">
  <defs
     id="defs1066">
    <radialGradient
       cx="48.30785"
       cy="47.141338"
       r="14.16129"
       id="radialGradient966"
       gradientUnits="userSpaceOnUse"
       gradientTransform="matrix(0.93962333,0.77477937,-1.7975241,2.1799696,88.130548,-93.365748)">
      <stop
         id="stop960"
         style="stop-color:#000000;stop-opacity:0.85273975"
         offset="0" />
      <stop
         id="stop962"
         style="stop-color:#000000;stop-opacity:0.28082192"
         offset="0.5" />
      <stop
         id="stop964"
         style="stop-color:#000000;stop-opacity:0.02431222"
         offset="1" />
    </radialGradient>
    <linearGradient
       inkscape:collect="always"
       xlink:href="#linearGradient6139-0"
       id="linearGradient4071"
       gradientUnits="userSpaceOnUse"
       gradientTransform="matrix(1.1071428,0,0,1.1071426,-4.9939026,-3.620687)"
       x1="6"
       y1="47.000011"
       x2="90"
       y2="47.000011" />
    <linearGradient
       id="linearGradient6139-0">
      <stop
         id="stop6141-2"
         offset="0"
         style="stop-color:#b2babc;stop-opacity:1" />
      <stop
         style="stop-color:#ffffff;stop-opacity:1;"
         offset="0.25"
         id="stop6151-0" />
      <stop
         style="stop-color:#96a1a4;stop-opacity:1"
         offset="0.5"
         id="stop6147-1" />
      <stop
         id="stop6149-4"
         offset="0.75"
         style="stop-color:#fbf9f9;stop-opacity:1;" />
      <stop
         id="stop6143-4"
         offset="1"
         style="stop-color:#b2b9bc;stop-opacity:1" />
    </linearGradient>
    <linearGradient
       gradientTransform="translate(0.1489535,0.415026)"
       inkscape:collect="always"
       xlink:href="#linearGradient3832-0-6-1-1"
       id="linearGradient4129"
       x1="1.5"
       y1="88.171875"
       x2="94.5"
       y2="88.171875"
       gradientUnits="userSpaceOnUse" />
    <linearGradient
       id="linearGradient3832-0-6-1-1">
      <stop
         style="stop-color:#000000;stop-opacity:1;"
         offset="0"
         id="stop3834-6-3-7-1" />
      <stop
         id="stop3872-2-4"
         offset="0.1"
         style="stop-color:#000000;stop-opacity:0.58823532;" />
      <stop
         style="stop-color:#000000;stop-opacity:0.58823532;"
         offset="0.89999998"
         id="stop3844-6-2-7-6" />
      <stop
         style="stop-color:#000000;stop-opacity:1;"
         offset="1"
         id="stop3836-5-0-2-9" />
    </linearGradient>
    <radialGradient
       inkscape:collect="always"
       xlink:href="#radialGradient966"
       id="radialGradient7462"
       gradientUnits="userSpaceOnUse"
       gradientTransform="matrix(0.97513378,0,0,0.04919072,34.047649,80.581722)"
       cx="13.948145"
       cy="44.892841"
       fx="13.948145"
       fy="44.892841"
       r="43.199203" />
    <linearGradient
       id="linearGradient3737">
      <stop
         offset="0"
         style="stop-color:#ffffff;stop-opacity:1"
         id="stop3739" />
      <stop
         offset="1"
         style="stop-color:#ffffff;stop-opacity:0"
         id="stop3741" />
    </linearGradient>
    <linearGradient
       inkscape:collect="always"
       xlink:href="#linearGradient3737"
       id="linearGradient4767"
       gradientUnits="userSpaceOnUse"
       x1="2.7713892"
       y1="-28.64156"
       x2="50.527882"
       y2="14.514202" />
    <clipPath
       id="clipPath4156-4-1"
       clipPathUnits="userSpaceOnUse">
      <path
         inkscape:connector-curvature="0"
         id="path4158-0-8"
         d="m 27.046336,-55.695463 -14.21366,13.321486 h 0.06127 l 15.653407,21.770763 10.231384,-10.546177 C 38.561832,-32.30156 27.468089,-54.819245 27.046336,-55.695463 Z M 9.6468554,-39.382809 -5.2407289,-25.32124 15.987863,-7.8059573 26.372412,-18.382966 Z m 31.4906096,12.951445 -9.741259,9.713584 8.944804,12.4580526 7.780753,-7.5550056 z m -49.8397109,4.378822 -13.7541661,12.9822847 26.2830181,13.84571 0.06127,-0.0617 -0.122531,-0.0617 L 13.598503,-5.4007374 -8.7022409,-22.052595 Z m 38.0154159,7.400825 -9.802525,9.7752596 11.579232,9.5594001 7.62759,-7.40083 -8.669108,-11.0087257 z m 20.187073,5.6739697 -7.382526,7.2158 6.187844,8.54179 5.820249,-6.13651996 z m -32.195166,6.32154 -9.5574606,9.49772 13.6622686,7.1849703 7.933918,-7.6783603 z m 23.311629,2.37443004 -7.10683,6.93826996 8.362778,6.9074403 5.360756,-5.6739699 -0.06127,-0.0925 -0.0919,0.12335 -6.463539,-8.20258036 z m -8.730374,8.54178036 -7.505057,7.3391599 10.353916,5.45811 c 1.397496,-1.32103 5.67514,-6.12292 5.850882,-6.32154 z"
         style="opacity:0.6;fill:#ffffff;fill-opacity:1;stroke:none" />
    </clipPath>
    <radialGradient
       r="43.199203"
       fy="44.892841"
       fx="13.948145"
       cy="44.892841"
       cx="13.948145"
       gradientTransform="matrix(1.0353919,0,0,0.05736347,-158.00432,177.86602)"
       gradientUnits="userSpaceOnUse"
       id="radialGradient5867"
       xlink:href="#linearGradient3737"
       inkscape:collect="always" />
    <linearGradient
       y2="-19.957712"
       x2="2.2660911"
       y1="-18.925377"
       x1="93.39798"
       spreadMethod="reflect"
       gradientTransform="matrix(1.0004943,0,0,0.99149733,-191.05536,-124.40889)"
       gradientUnits="userSpaceOnUse"
       id="linearGradient5871"
       xlink:href="#linearGradient3984-9-6"
       inkscape:collect="always" />
    <linearGradient
       gradientUnits="userSpaceOnUse"
       id="linearGradient3984-9-6"
       y2="33.101307"
       x2="59.729176"
       y1="33.425831"
       x1="0.29404691">
      <stop
         offset="0"
         style="stop-color:#ececec;stop-opacity:1;"
         id="stop3099-9-8" />
      <stop
         offset="0.4866482"
         style="stop-color:#e9e4e4;stop-opacity:1"
         id="stop3875-8-5" />
      <stop
         offset="0.51168245"
         style="stop-color:#d3dbdc;stop-opacity:1"
         id="stop3873-1-8" />
      <stop
         offset="1"
         style="stop-color:#f2f2f2;stop-opacity:1;"
         id="stop3101-7-8" />
    </linearGradient>
    <linearGradient
       y2="11.140625"
       x2="93.5"
       y1="11.140625"
       x1="2.5"
       gradientTransform="matrix(1.0114053,0,0,1.0044929,-192.20955,91.327357)"
       gradientUnits="userSpaceOnUse"
       id="linearGradient965"
       xlink:href="#linearGradient4160-1"
       inkscape:collect="always" />
    <linearGradient
       id="linearGradient4160-1">
      <stop
         style="stop-color:#000000;stop-opacity:0;"
         offset="0"
         id="stop4170-6" />
      <stop
         id="stop4186-6"
         offset="0.03175623"
         style="stop-color:#000000;stop-opacity:0.96470588;" />
      <stop
         id="stop4182-5"
         offset="0.09425623"
         style="stop-color:#000000;stop-opacity:0;" />
      <stop
         id="stop4180-0"
         offset="0.49595019"
         style="stop-color:#000000;stop-opacity:0;" />
      <stop
         id="stop4178-2"
         offset="0.90525883"
         style="stop-color:#000000;stop-opacity:0;" />
      <stop
         style="stop-color:#000000;stop-opacity:0.98823529;"
         offset="0.96241152"
         id="stop4184-0" />
      <stop
         style="stop-color:#000000;stop-opacity:0;"
         offset="1"
         id="stop4168-2" />
    </linearGradient>
    <radialGradient
       r="14.16129"
       cy="47.141338"
       cx="48.30785"
       gradientTransform="matrix(1.054918,0.89189267,-2.0180859,2.5094871,-71.64631,4.879983)"
       gradientUnits="userSpaceOnUse"
       id="radialGradient3333-6"
       xlink:href="#radialGradient3996-3-3"
       inkscape:collect="always" />
    <radialGradient
       gradientTransform="matrix(0.93962333,0.77477937,-1.7975241,2.1799696,88.130548,-93.365748)"
       gradientUnits="userSpaceOnUse"
       id="radialGradient3996-3-3"
       r="14.16129"
       cy="47.141338"
       cx="48.30785">
      <stop
         offset="0"
         style="stop-color:#000000;stop-opacity:0.22264875"
         id="stop3954-3-6" />
      <stop
         offset="0.5"
         style="stop-color:#000000;stop-opacity:0.0678183"
         id="stop3958-3-6" />
      <stop
         offset="1"
         style="stop-color:#000000;stop-opacity:0.02431222"
         id="stop3956-4-0" />
    </radialGradient>
    <linearGradient
       gradientTransform="matrix(1.2650644,0,0,1.3183437,-176.4975,103.97198)"
       y2="4"
       x2="73"
       y1="52"
       x1="45"
       gradientUnits="userSpaceOnUse"
       id="linearGradient3335-7"
       xlink:href="#linearGradient4308-6-4"
       inkscape:collect="always" />
    <linearGradient
       gradientUnits="userSpaceOnUse"
       id="linearGradient4308-6-4"
       y2="4"
       x2="73"
       y1="52"
       x1="45">
      <stop
         offset="0"
         style="stop-color:#000000;stop-opacity:0.10677083"
         id="stop4304-4-4" />
      <stop
         offset="1"
         style="stop-color:#000000;stop-opacity:0"
         id="stop4306-3-9" />
    </linearGradient>
    <linearGradient
       gradientTransform="matrix(1.3183437,0,0,1.3183437,-176.77912,100.80567)"
       y2="36"
       x2="37"
       y1="46.124821"
       x1="48.992088"
       gradientUnits="userSpaceOnUse"
       id="linearGradient3341-2"
       xlink:href="#linearGradient4280-6-9"
       inkscape:collect="always" />
    <linearGradient
       gradientUnits="userSpaceOnUse"
       id="linearGradient4280-6-9"
       y2="36"
       x2="37"
       y1="46.124821"
       x1="48.992088">
      <stop
         offset="0"
         style="stop-color:#cfcfcf;stop-opacity:1"
         id="stop4293-95-9" />
      <stop
         offset="0.2098622"
         style="stop-color:#b7b7b7;stop-opacity:1"
         id="stop4295-8-1" />
      <stop
         offset="1"
         style="stop-color:#c9c9c9;stop-opacity:1"
         id="stop4297-0-3" />
    </linearGradient>
    <linearGradient
       gradientTransform="matrix(0.53835545,0,0,0.530938,-220.78554,84.113306)"
       gradientUnits="userSpaceOnUse"
       xlink:href="#linearGradient4076"
       id="linearGradient8399"
       y2="120.67539"
       x2="135.83893"
       y1="165.98375"
       x1="114.99662" />
    <linearGradient
       id="linearGradient4076">
      <stop
         offset="0"
         style="stop-color:#ffe45d;stop-opacity:1"
         id="stop4078" />
      <stop
         offset="1"
         style="stop-color:#ffb01c;stop-opacity:1"
         id="stop4080" />
    </linearGradient>
    <linearGradient
       gradientTransform="matrix(0.53835545,0,0,0.530938,-219.49454,84.630459)"
       gradientUnits="userSpaceOnUse"
       xlink:href="#linearGradient4092"
       id="linearGradient8345"
       y2="118.20246"
       x2="77.087646"
       y1="58.201862"
       x1="116.53692" />
    <linearGradient
       id="linearGradient4092">
      <stop
         offset="0"
         style="stop-color:#2b5d87;stop-opacity:1"
         id="stop4094" />
      <stop
         offset="1"
         style="stop-color:#4182b8;stop-opacity:1"
         id="stop4096" />
    </linearGradient>
  </defs>
  <sodipodi:namedview
     inkscape:document-rotation="0"
     inkscape:snap-global="false"
     inkscape:window-maximized="1"
     inkscape:window-y="21"
     inkscape:window-x="0"
     inkscape:window-height="1027"
     inkscape:window-width="1920"
     inkscape:lockguides="true"
     units="px"
     inkscape:showpageshadow="false"
     showgrid="false"
     inkscape:current-layer="g2574"
     inkscape:document-units="px"
     inkscape:cy="43.79539"
     inkscape:cx="-7.3107144"
     inkscape:zoom="3.5638574"
     inkscape:pageshadow="2"
     inkscape:pageopacity="0.0"
     borderopacity="1.0"
     bordercolor="#666666"
     pagecolor="#ffffff"
     id="base">
    <sodipodi:guide
       inkscape:locked="true"
       id="guide1621"
       orientation="0,96"
       position="0,0" />
    <sodipodi:guide
       inkscape:locked="true"
       id="guide1623"
       orientation="-96,0"
       position="96.000002,0" />
    <sodipodi:guide
       inkscape:locked="true"
       id="guide1625"
       orientation="0,-96"
       position="96.000002,96.000002" />
    <sodipodi:guide
       inkscape:locked="true"
       id="guide1627"
       orientation="96,0"
       position="0,96.000002" />
  </sodipodi:namedview>
  <metadata
     id="metadata1069">
    <rdf:RDF>
      <cc:Work
         rdf:about="">
        <dc:format>image/svg+xml</dc:format>
        <dc:type
           rdf:resource="http://purl.org/dc/dcmitype/StillImage" />
        <dc:title />
        <dc:date>2017</dc:date>
        <dc:creator>
          <cc:Agent>
            <dc:title>Cristian Pozzessere &quot;ilnanny&quot;</dc:title>
          </cc:Agent>
        </dc:creator>
        <dc:subject>
          <rdf:Bag>
            <rdf:li>Global language</rdf:li>
          </rdf:Bag>
        </dc:subject>
        <dc:description>Playing with Inkscape on Gnu/Linux O. S.</dc:description>
        <dc:contributor>
          <cc:Agent>
            <dc:title>In the night, alone like a dog.</dc:title>
          </cc:Agent>
        </dc:contributor>
        <cc:license
           rdf:resource="http://creativecommons.org/licenses/by-sa/4.0/" />
      </cc:Work>
      <cc:License
         rdf:about="http://creativecommons.org/licenses/by-sa/4.0/">
        <cc:permits
           rdf:resource="http://creativecommons.org/ns#Reproduction" />
        <cc:permits
           rdf:resource="http://creativecommons.org/ns#Distribution" />
        <cc:requires
           rdf:resource="http://creativecommons.org/ns#Notice" />
        <cc:requires
           rdf:resource="http://creativecommons.org/ns#Attribution" />
        <cc:permits
           rdf:resource="http://creativecommons.org/ns#DerivativeWorks" />
        <cc:requires
           rdf:resource="http://creativecommons.org/ns#ShareAlike" />
      </cc:License>
    </rdf:RDF>
  </metadata>
  <g
     transform="translate(0,-1026.5197)"
     id="layer1"
     inkscape:groupmode="layer"
     inkscape:label="Livello 1">
    <g
       id="g2574"
       style="display:inline"
       transform="translate(-0.14895645,1026.1047)">
      <g
         transform="matrix(0.32291666,0,0,0.32291667,0.60085625,0.78098103)"
         id="g118">
        <path
           inkscape:connector-curvature="0"
           id="path3288"
           d="M 89.29181,0.415026 H 7.0060911 c -3.798848,0 -6.8571352,3.058285 -6.8571352,6.8571399 V 89.557884 c 0,3.798857 3.0582872,6.857142 6.8571352,6.857142 H 89.29181 c 3.798857,0 6.857147,-3.058285 6.857147,-6.857142 V 7.2721659 c 0,-3.7988549 -3.05829,-6.8571399 -6.857147,-6.8571399 z"
           style="display:inline;opacity:0.15;fill:#000000;fill-opacity:1;fill-rule:nonzero;stroke:none" />
        <path
           style="display:inline;opacity:0.15;fill:#000000;fill-opacity:1;fill-rule:nonzero;stroke:none"
           d="M 88.648954,1.165026 H 7.6489471 c -3.739492,0 -6.749993,3.010499 -6.749993,6.7499969 V 88.915026 c 0,3.739501 3.010501,6.75 6.749993,6.75 H 88.648954 c 3.739503,0 6.750003,-3.010499 6.750003,-6.75 V 7.9150229 c 0,-3.7394979 -3.0105,-6.7499969 -6.750003,-6.7499969 z"
           id="path4085"
           inkscape:connector-curvature="0" />
        <path
           inkscape:connector-curvature="0"
           id="rect4251-1"
           d="M 88.006093,1.915026 H 8.2918111 c -3.680143,0 -6.6428566,2.962713 -6.6428566,6.6428549 V 88.272171 c 0,3.680142 2.9627136,6.642856 6.6428566,6.642856 H 88.006093 c 3.680143,0 6.642854,-2.962714 6.642854,-6.642856 V 8.5578809 c 0,-3.6801419 -2.962711,-6.6428549 -6.642854,-6.6428549 z"
           style="display:inline;fill:url(#linearGradient4071);fill-opacity:1;fill-rule:nonzero;stroke:none" />
        <g
           transform="matrix(0.92055534,0,0,0.85821017,180.47297,-74.858625)"
           id="g999">
          <rect
             style="opacity:0.55;fill:url(#radialGradient5867);fill-opacity:1;stroke:none"
             id="rect4131-3"
             width="89.456207"
             height="4.9561129"
             x="-188.29063"
             y="177.96317"
             rx="0"
             ry="4.9561129" />
          <path
             inkscape:connector-curvature="0"
             style="opacity:0;fill:#000000;fill-opacity:1;stroke:none"
             d="m -185.38422,90.372348 c -2.20758,0 -3.98241,1.762703 -3.98241,3.95519 v 12.053912 c 0,-2.19249 1.77483,-3.95519 3.98241,-3.95519 h 84.70518 c 2.207576,0 3.982416,1.7627 3.982416,3.95519 V 94.327538 c 0,-2.192487 -1.77484,-3.95519 -3.982416,-3.95519 z"
             id="rect4080" />
          <rect
             transform="scale(1,-1)"
             style="fill:url(#linearGradient5871);fill-opacity:1;stroke:#738589;stroke-width:1.00032;stroke-miterlimit:4;stroke-dasharray:none;stroke-opacity:1"
             id="rect4133"
             width="92.045486"
             height="91.217758"
             x="-189.05438"
             y="-185.88171"
             rx="3.9589436"
             ry="3.9233429" />
          <path
             id="path4060"
             d="m -185.08325,98.648904 c -2.19324,0 -3.97068,1.769316 -3.97068,3.952536 v 3.98366 c 0,-2.18322 1.77744,-3.95254 3.97068,-3.95254 h 84.10324 c 2.193234,0 3.970676,1.76932 3.970676,3.95254 v -3.98366 c 0,-2.18322 -1.777442,-3.952536 -3.970676,-3.952536 z"
             style="fill:#e4e8e8;fill-opacity:1;stroke:#738589;stroke-width:1.00032;stroke-miterlimit:4;stroke-dasharray:none;stroke-opacity:1"
             inkscape:connector-curvature="0" />
          <path
             inkscape:connector-curvature="0"
             style="fill:#e4e8e8;fill-opacity:1;stroke:#738589;stroke-width:1.00032;stroke-miterlimit:4;stroke-dasharray:none;stroke-opacity:1"
             d="m -185.08325,94.665673 c -2.19324,0 -3.97068,1.76932 -3.97068,3.952533 v 3.983654 c 0,-2.18321 1.77744,-3.952531 3.97068,-3.952531 h 84.10324 c 2.193234,0 3.970676,1.769321 3.970676,3.952531 v -3.983654 c 0,-2.183213 -1.777442,-3.952533 -3.970676,-3.952533 z"
             id="path4062" />
          <path
             style="opacity:0.258182;fill:url(#linearGradient965);fill-opacity:1;stroke:none"
             d="m -185.73023,94.026931 c -2.19326,0 -3.95081,1.750269 -3.95081,3.923801 v 13.058408 c 0,-2.17353 2.11107,-4.80613 4.30432,-4.80154 l 83.95953,0.17555 c 2.193237,0.005 3.774029,2.45246 3.774029,4.62599 V 97.950732 c 0,-2.173532 -1.757552,-3.923801 -3.950799,-3.923801 z"
             id="rect4358"
             inkscape:connector-curvature="0"
             sodipodi:nodetypes="sscsscsss" />
          <path
             inkscape:connector-curvature="0"
             d="m -103.22856,150.34679 4.490808,4.60463 v 28.77893 H -130.5356 Z"
             id="path3934"
             style="fill:url(#radialGradient3333-6);fill-rule:nonzero;stroke-width:1.31834" />
          <path
             inkscape:connector-curvature="0"
             d="m -100.59364,106.60867 v 40.86865 l -31.62661,38.23198 h 2.53013 l 30.08481,-37.36681 0.276733,-0.37079 v -0.49438 -39.55031 z"
             id="path3922"
             style="fill:url(#linearGradient3335-7);fill-rule:nonzero;stroke-width:1.31834" />
          <path
             inkscape:connector-curvature="0"
             d="m -131.95544,185.17967 34.276938,-40.86866 c -3.069848,3.66021 -5.749838,3.95503 -14.501778,3.95503 h -15.82013 v 19.77516 c 0,8.75916 0.0585,12.35312 -3.95503,17.13847 z"
             id="path4278"
             style="fill:url(#linearGradient3341-2);fill-rule:nonzero;stroke-width:1.31834" />
          <path
             d="m -97.809478,144.37793 c -3.069852,3.66021 -5.749842,3.95503 -14.501782,3.95503 h -15.82012 v 19.77516 c 0,8.75916 0.0585,12.35312 -3.95503,17.13847 5.27337,-6.59172 5.27387,-11.01696 5.27337,-17.13847 V 149.6513 h 14.50178 c 6.59172,0 10.60134,-0.50345 14.501782,-5.27337 z"
             id="path4282"
             style="fill:#ffffff;fill-opacity:0.771201;fill-rule:nonzero;stroke-width:1.31834"
             inkscape:connector-curvature="0" />
          <path
             d="m -144.00528,167.49712 c 0,4.09884 -3.60699,6.17481 -7.2678,7.21013 -5.50737,1.56097 -9.92727,1.32204 -14.53021,0 -3.84387,-1.10434 -7.2678,-3.36083 -7.2678,-7.21013 v -13.52299 c 0,-3.89178 3.28934,-7.21545 7.2678,-7.21545 l 14.29781,-0.91678 c 4.83981,0 8.00293,-2.97941 8.00293,-7.86935 l 1.31691,-6.53674 h 5.44816 c 4.23147,0 6.22339,3.10068 7.26779,7.21014 1.45356,5.70758 1.51817,9.97632 0,14.42558 -1.4697,4.32184 -3.0417,7.21014 -7.26779,7.21014 h -7.2678 -14.53022 v -0.0283 h 14.53022 v 7.24382 z"
             inkscape:connector-curvature="0"
             id="path2732"
             style="fill:url(#linearGradient8399);fill-opacity:1;stroke:none;stroke-width:1.32736" />
          <path
             d="m -156.19087,166.16314 c 0,-1.49194 1.22208,-2.70247 2.72409,-2.70247 1.5074,0 2.72407,1.21053 2.72407,2.70247 0,1.49724 -1.21667,2.70778 -2.72407,2.70778 -1.50201,0 -2.72409,-1.21054 -2.72409,-2.70778 z"
             inkscape:connector-curvature="0"
             id="path2736"
             style="fill:#ffffff;stroke-width:1.32736" />
          <path
             d="m -171.78011,124.73752 c 0,-4.09885 1.1144,-6.32879 7.2678,-7.39066 4.17765,-0.72208 9.53427,-0.81234 14.53022,0 3.94613,0.64243 7.26779,3.54136 7.26779,7.39066 v 13.52299 c 0,3.9661 -3.22475,7.21544 -7.26779,7.21544 l -13.17746,0.71837 c -4.93133,0 -10.02396,4.24926 -10.02396,8.93744 l -0.41625,5.66706 h -4.99593 c -4.22609,0 -6.68637,-3.00511 -7.72002,-7.21013 -1.39433,-5.64918 -1.33512,-9.01533 0,-14.42559 1.15747,-4.72004 4.85597,-7.21014 9.08205,-7.21014 h 5.45355 14.5356 v -0.048 h -14.5356 z"
             inkscape:connector-curvature="0"
             id="path2730"
             style="fill:url(#linearGradient8345);fill-opacity:1;stroke:none;stroke-width:1.32736" />
          <path
             d="m -165.7527,125.07668 c 0,-1.41918 1.18046,-2.56659 2.64296,-2.56659 1.45729,0 2.64295,1.14741 2.64295,2.56659 0,1.41413 -1.18566,2.56155 -2.64295,2.56155 -1.4625,0 -2.64296,-1.14742 -2.64296,-2.56155 z"
             inkscape:connector-curvature="0"
             id="path2734"
             style="fill:#ffffff;stroke-width:1.32736" />
        </g>
        <path
           style="color:#000000;font-style:normal;font-variant:normal;font-weight:normal;font-stretch:normal;font-size:medium;line-height:normal;font-family:Sans;-inkscape-font-specification:Sans;text-indent:0;text-align:start;text-decoration:none;text-decoration-line:none;letter-spacing:normal;word-spacing:normal;text-transform:none;writing-mode:lr-tb;direction:ltr;baseline-shift:baseline;text-anchor:start;display:inline;overflow:visible;visibility:visible;fill:#241f1f;fill-opacity:0.632653;stroke:none;stroke-width:2.3755;marker:none;enable-background:accumulate"
           d="m 9.9740341,5.1444869 c -3.116621,0 -5.667965,2.53951 -5.667965,5.6460041 v 69.277996 c 0,3.106495 2.551344,5.646004 5.667965,5.646004 H 86.765819 c 3.116621,0 5.667968,-2.539509 5.667968,-5.646004 V 10.790491 c 0,-3.1064931 -2.551347,-5.6460041 -5.667968,-5.6460041 z m 0,2.319439 H 86.765819 c 1.888099,0 3.352022,1.480095 3.352022,3.3265651 v 69.277996 c 0,1.846474 -1.463923,3.326564 -3.352022,3.326564 H 9.9740341 c -1.888099,0 -3.352022,-1.48009 -3.352022,-3.326564 V 10.790491 c 0,-1.8464701 1.463923,-3.3265651 3.352022,-3.3265651 z"
           id="path4989"
           inkscape:connector-curvature="0" />
        <path
           id="path4118"
           d="m 1.6489535,82.258776 v 6 c 0,3.680142 2.9761066,6.65625 6.6562496,6.65625 H 87.992703 c 3.680143,0 6.656254,-2.976108 6.656254,-6.65625 v -6 c 0,3.680142 -2.976111,6.65625 -6.656254,6.65625 H 8.3052031 c -3.680143,0 -6.6562496,-2.976108 -6.6562496,-6.65625 z"
           style="display:inline;opacity:0.658182;fill:url(#linearGradient4129);fill-opacity:1;fill-rule:nonzero;stroke:none"
           inkscape:connector-curvature="0" />
        <rect
           ry="4.25"
           rx="0"
           y="80.665031"
           x="5.5239539"
           height="4.25"
           width="84.250008"
           id="rect4131"
           style="opacity:0.55;fill:url(#radialGradient7462);fill-opacity:1;stroke:none" />
        <rect
           clip-path="url(#clipPath4156-4-1)"
           ry="3.9569881"
           rx="3.9569874"
           y="-30"
           x="2"
           height="69.024437"
           width="75.965775"
           id="rect4146"
           style="opacity:0.523;fill:url(#linearGradient4767);fill-opacity:1;stroke:none"
           transform="matrix(1.0692451,0,0,1.0476829,4.4441802,38.894013)" />
      </g>
    </g>
  </g>
</svg>
