<?xml version="1.0" encoding="UTF-8" standalone="no"?>
<svg
   xmlns:dc="http://purl.org/dc/elements/1.1/"
   xmlns:cc="http://creativecommons.org/ns#"
   xmlns:rdf="http://www.w3.org/1999/02/22-rdf-syntax-ns#"
   xmlns:svg="http://www.w3.org/2000/svg"
   xmlns="http://www.w3.org/2000/svg"
   xmlns:xlink="http://www.w3.org/1999/xlink"
   xmlns:sodipodi="http://sodipodi.sourceforge.net/DTD/sodipodi-0.dtd"
   xmlns:inkscape="http://www.inkscape.org/namespaces/inkscape"
   sodipodi:docname="emblem-base.svg"
   inkscape:version="1.0beta2 (2b71d25d45, 2019-12-03)"
   id="svg1072"
   version="1.1"
   viewBox="0 0 32.000000 32.000000"
   height="32"
   width="32">
  <defs
     id="defs1066">
    <linearGradient
       inkscape:collect="always"
       xlink:href="#linearGradient6139-0"
       id="linearGradient4071"
       gradientUnits="userSpaceOnUse"
       gradientTransform="matrix(1.1071428,0,0,1.1071426,-4.9939026,-3.620687)"
       x1="6"
       y1="47.000011"
       x2="90"
       y2="47.000011" />
    <linearGradient
       id="linearGradient6139-0">
      <stop
         id="stop6141-2"
         offset="0"
         style="stop-color:#bec6c9;stop-opacity:1" />
      <stop
         style="stop-color:#ffffff;stop-opacity:1;"
         offset="0.25"
         id="stop6151-0" />
      <stop
         style="stop-color:#acb6ba;stop-opacity:1"
         offset="0.5"
         id="stop6147-1" />
      <stop
         id="stop6149-4"
         offset="0.75"
         style="stop-color:#f9fbfb;stop-opacity:1" />
      <stop
         id="stop6143-4"
         offset="1"
         style="stop-color:#bfc6c9;stop-opacity:1" />
    </linearGradient>
    <linearGradient
       gradientTransform="translate(0.1489535,0.415026)"
       inkscape:collect="always"
       xlink:href="#linearGradient3832-0-6-1-1"
       id="linearGradient4129"
       x1="1.5"
       y1="88.171875"
       x2="94.5"
       y2="88.171875"
       gradientUnits="userSpaceOnUse" />
    <linearGradient
       id="linearGradient3832-0-6-1-1">
      <stop
         style="stop-color:#000000;stop-opacity:1;"
         offset="0"
         id="stop3834-6-3-7-1" />
      <stop
         id="stop3872-2-4"
         offset="0.1"
         style="stop-color:#000000;stop-opacity:0.58823532;" />
      <stop
         style="stop-color:#000000;stop-opacity:0.58823532;"
         offset="0.89999998"
         id="stop3844-6-2-7-6" />
      <stop
         style="stop-color:#000000;stop-opacity:1;"
         offset="1"
         id="stop3836-5-0-2-9" />
    </linearGradient>
    <radialGradient
       inkscape:collect="always"
       xlink:href="#linearGradient3737"
       id="radialGradient7462"
       gradientUnits="userSpaceOnUse"
       gradientTransform="matrix(0.97513378,0,0,0.04919072,34.047649,80.581722)"
       cx="13.948145"
       cy="44.892841"
       fx="13.948145"
       fy="44.892841"
       r="43.199203" />
    <linearGradient
       id="linearGradient3737">
      <stop
         offset="0"
         style="stop-color:#ffffff;stop-opacity:1"
         id="stop3739" />
      <stop
         offset="1"
         style="stop-color:#ffffff;stop-opacity:0"
         id="stop3741" />
    </linearGradient>
    <linearGradient
       inkscape:collect="always"
       xlink:href="#linearGradient3737"
       id="linearGradient4767"
       gradientUnits="userSpaceOnUse"
       x1="2.7713892"
       y1="-28.64156"
       x2="50.527882"
       y2="14.514202" />
    <clipPath
       id="clipPath4156-4-1"
       clipPathUnits="userSpaceOnUse">
      <path
         inkscape:connector-curvature="0"
         id="path4158-0-8"
         d="m 27.046336,-55.695463 -14.21366,13.321486 h 0.06127 l 15.653407,21.770763 10.231384,-10.546177 C 38.561832,-32.30156 27.468089,-54.819245 27.046336,-55.695463 Z M 9.6468554,-39.382809 -5.2407289,-25.32124 15.987863,-7.8059573 26.372412,-18.382966 Z m 31.4906096,12.951445 -9.741259,9.713584 8.944804,12.4580526 7.780753,-7.5550056 z m -49.8397109,4.378822 -13.7541661,12.9822847 26.2830181,13.84571 0.06127,-0.0617 -0.122531,-0.0617 L 13.598503,-5.4007374 -8.7022409,-22.052595 Z m 38.0154159,7.400825 -9.802525,9.7752596 11.579232,9.5594001 7.62759,-7.40083 -8.669108,-11.0087257 z m 20.187073,5.6739697 -7.382526,7.2158 6.187844,8.54179 5.820249,-6.13651996 z m -32.195166,6.32154 -9.5574606,9.49772 13.6622686,7.1849703 7.933918,-7.6783603 z m 23.311629,2.37443004 -7.10683,6.93826996 8.362778,6.9074403 5.360756,-5.6739699 -0.06127,-0.0925 -0.0919,0.12335 -6.463539,-8.20258036 z m -8.730374,8.54178036 -7.505057,7.3391599 10.353916,5.45811 c 1.397496,-1.32103 5.67514,-6.12292 5.850882,-6.32154 z"
         style="opacity:0.6;fill:#ffffff;fill-opacity:1;stroke:none" />
    </clipPath>
    <radialGradient
       inkscape:collect="always"
       xlink:href="#linearGradient3737"
       id="radialGradient5867"
       gradientUnits="userSpaceOnUse"
       gradientTransform="matrix(0.93687944,0,0,0.04759097,34.600845,79.653491)"
       cx="13.948145"
       cy="44.892841"
       fx="13.948145"
       fy="44.892841"
       r="43.199203" />
    <linearGradient
       inkscape:collect="always"
       xlink:href="#linearGradient3984-9-6"
       id="linearGradient5871"
       gradientUnits="userSpaceOnUse"
       gradientTransform="matrix(0.90530218,0,0,0.82258477,4.6944477,-32.165012)"
       spreadMethod="reflect"
       x1="93.39798"
       y1="-18.925377"
       x2="2.2660911"
       y2="-19.957712" />
    <linearGradient
       x1="0.29404691"
       y1="33.425831"
       x2="59.729176"
       y2="33.101307"
       id="linearGradient3984-9-6"
       gradientUnits="userSpaceOnUse">
      <stop
         id="stop3099-9-8"
         style="stop-color:#edebed;stop-opacity:1;"
         offset="0" />
      <stop
         id="stop3875-8-5"
         style="stop-color:#ebeeef;stop-opacity:1;"
         offset="0.67519277" />
      <stop
         id="stop3873-1-8"
         style="stop-color:#a51691;stop-opacity:1;"
         offset="0.68910319" />
      <stop
         id="stop3101-7-8"
         style="stop-color:#951e85;stop-opacity:1;"
         offset="1" />
    </linearGradient>
    <linearGradient
       inkscape:collect="always"
       xlink:href="#linearGradient4160-1"
       id="linearGradient5875"
       gradientUnits="userSpaceOnUse"
       gradientTransform="matrix(0.91517505,0,0,0.8333664,4.2205535,5.2423476)"
       x1="2.5"
       y1="11.140625"
       x2="93.5"
       y2="11.140625" />
    <linearGradient
       id="linearGradient4160-1">
      <stop
         id="stop4170-6"
         offset="0"
         style="stop-color:#000000;stop-opacity:0;" />
      <stop
         style="stop-color:#000000;stop-opacity:0.96470588;"
         offset="0.03175623"
         id="stop4186-6" />
      <stop
         style="stop-color:#000000;stop-opacity:0;"
         offset="0.09425623"
         id="stop4182-5" />
      <stop
         style="stop-color:#000000;stop-opacity:0;"
         offset="0.49595019"
         id="stop4180-0" />
      <stop
         style="stop-color:#000000;stop-opacity:0;"
         offset="0.90525883"
         id="stop4178-2" />
      <stop
         id="stop4184-0"
         offset="0.96241152"
         style="stop-color:#000000;stop-opacity:0.98823529;" />
      <stop
         id="stop4168-2"
         offset="1"
         style="stop-color:#000000;stop-opacity:0;" />
    </linearGradient>
    <radialGradient
       inkscape:collect="always"
       xlink:href="#linearGradient3737"
       id="radialGradient4210"
       cx="-48.731873"
       cy="35.073528"
       fx="-48.731873"
       fy="35.073528"
       r="29.024296"
       gradientTransform="matrix(1.3859336,0,0,0.03908025,114.25939,17.307869)"
       gradientUnits="userSpaceOnUse" />
    <radialGradient
       inkscape:collect="always"
       xlink:href="#radialGradient3996-3-3"
       id="radialGradient3333-6"
       gradientUnits="userSpaceOnUse"
       gradientTransform="matrix(1.0416614,0.80747782,-1.9927255,2.271972,115.38676,-80.647699)"
       cx="48.30785"
       cy="47.141338"
       r="14.16129" />
    <radialGradient
       cx="48.30785"
       cy="47.141338"
       r="14.16129"
       id="radialGradient3996-3-3"
       gradientUnits="userSpaceOnUse"
       gradientTransform="matrix(0.93962333,0.77477937,-1.7975241,2.1799696,88.130548,-93.365748)">
      <stop
         id="stop3954-3-6"
         style="stop-color:#000000;stop-opacity:0.22264875"
         offset="0" />
      <stop
         id="stop3958-3-6"
         style="stop-color:#000000;stop-opacity:0.0678183"
         offset="0.5" />
      <stop
         id="stop3956-4-0"
         style="stop-color:#000000;stop-opacity:0.02431222"
         offset="1" />
    </radialGradient>
    <linearGradient
       inkscape:collect="always"
       xlink:href="#linearGradient4308-6-4"
       id="linearGradient3335-7"
       gradientUnits="userSpaceOnUse"
       x1="45"
       y1="52"
       x2="73"
       y2="4"
       gradientTransform="matrix(1.2491669,0,0,1.1935666,11.853184,9.0655532)" />
    <linearGradient
       x1="45"
       y1="52"
       x2="73"
       y2="4"
       id="linearGradient4308-6-4"
       gradientUnits="userSpaceOnUse">
      <stop
         id="stop4304-4-4"
         style="stop-color:#000000;stop-opacity:0.10677083"
         offset="0" />
      <stop
         id="stop4306-3-9"
         style="stop-color:#000000;stop-opacity:0"
         offset="1" />
    </linearGradient>
    <linearGradient
       inkscape:collect="always"
       xlink:href="#linearGradient4280-6-9"
       id="linearGradient3341-2"
       gradientUnits="userSpaceOnUse"
       x1="48.992088"
       y1="46.124821"
       x2="37"
       y2="36"
       gradientTransform="matrix(1.3017767,0,0,1.1935666,11.575105,6.1989226)" />
    <linearGradient
       x1="48.992088"
       y1="46.124821"
       x2="37"
       y2="36"
       id="linearGradient4280-6-9"
       gradientUnits="userSpaceOnUse">
      <stop
         id="stop4293-95-9"
         style="stop-color:#cfcfcf;stop-opacity:1"
         offset="0" />
      <stop
         id="stop4295-8-1"
         style="stop-color:#b7b7b7;stop-opacity:1"
         offset="0.2098622" />
      <stop
         id="stop4297-0-3"
         style="stop-color:#c9c9c9;stop-opacity:1"
         offset="1" />
    </linearGradient>
    <linearGradient
       gradientTransform="matrix(0.39278174,0,0,3.5772052,-543.24306,-814.95639)"
       gradientUnits="userSpaceOnUse"
       xlink:href="#linearGradient8742"
       id="linearGradient4323"
       y2="184"
       x2="1542.0002"
       y1="184"
       x1="1559.5" />
    <linearGradient
       id="linearGradient8742">
      <stop
         offset="0"
         style="stop-color:#9200ff;stop-opacity:1"
         id="stop8744" />
      <stop
         offset="1"
         style="stop-color:#ff00ff;stop-opacity:0"
         id="stop8746" />
    </linearGradient>
    <linearGradient
       gradientTransform="matrix(0.48777826,0,0,0.5867518,-162.56284,-537.71371)"
       gradientUnits="userSpaceOnUse"
       xlink:href="#linearGradient8663"
       id="linearGradient4482"
       y2="970.5"
       x2="404.49997"
       y1="970.5"
       x1="453.50003" />
    <linearGradient
       id="linearGradient8663">
      <stop
         offset="0"
         style="stop-color:#9207a7;stop-opacity:1"
         id="stop8665" />
      <stop
         offset="0.27254906"
         style="stop-color:#c658bc;stop-opacity:1"
         id="stop8667" />
      <stop
         offset="0.50966245"
         style="stop-color:#a42eb6;stop-opacity:1"
         id="stop8669" />
      <stop
         offset="0.83376038"
         style="stop-color:#b415cd;stop-opacity:1"
         id="stop8671" />
      <stop
         offset="1"
         style="stop-color:#950ba8;stop-opacity:1"
         id="stop8673" />
    </linearGradient>
    <radialGradient
       gradientTransform="matrix(0.86205751,0,0,0.25119317,5.2521718,14.777764)"
       gradientUnits="userSpaceOnUse"
       xlink:href="#linearGradient14494"
       id="radialGradient4484"
       fy="46.440277"
       fx="47.995335"
       r="13.995334"
       cy="46.440277"
       cx="47.995335" />
    <linearGradient
       id="linearGradient14494">
      <stop
         offset="0"
         style="stop-color:#dc85e9;stop-opacity:1"
         id="stop14496" />
      <stop
         offset="1"
         style="stop-color:#f2cbf8;stop-opacity:1"
         id="stop14498" />
    </linearGradient>
    <linearGradient
       gradientTransform="matrix(0.51339554,0,0,0.5867518,-173.61977,-537.10142)"
       gradientUnits="userSpaceOnUse"
       xlink:href="#linearGradient8964"
       id="linearGradient4462"
       y2="970.5"
       x2="404.49997"
       y1="970.5"
       x1="453.50003" />
    <linearGradient
       id="linearGradient8964">
      <stop
         offset="0"
         style="stop-color:#e196fb;stop-opacity:1"
         id="stop8966" />
      <stop
         offset="0.13010512"
         style="stop-color:#f4c7fa;stop-opacity:1"
         id="stop8968" />
      <stop
         offset="0.31360075"
         style="stop-color:#e091f3;stop-opacity:1"
         id="stop8970" />
      <stop
         offset="0.44078669"
         style="stop-color:#d764e9;stop-opacity:1"
         id="stop8972" />
      <stop
         offset="0.68364757"
         style="stop-color:#e7adf0;stop-opacity:1"
         id="stop8974" />
      <stop
         offset="0.75620717"
         style="stop-color:#e6a9f8;stop-opacity:1"
         id="stop8976" />
      <stop
         offset="0.88021636"
         style="stop-color:#e595f2;stop-opacity:1"
         id="stop8978" />
      <stop
         offset="1"
         style="stop-color:#f2cbf8;stop-opacity:1"
         id="stop8980" />
    </linearGradient>
    <linearGradient
       gradientTransform="matrix(0.51339554,0,0,0.5867518,-173.61977,-536.47078)"
       gradientUnits="userSpaceOnUse"
       xlink:href="#linearGradient8964"
       id="linearGradient4460"
       y2="970.5"
       x2="404.49997"
       y1="970.5"
       x1="453.50003" />
    <linearGradient
       gradientTransform="matrix(0.51339554,0,0,0.5867518,-173.61977,-535.84016)"
       gradientUnits="userSpaceOnUse"
       xlink:href="#linearGradient8964"
       id="linearGradient4448"
       y2="970.5"
       x2="404.49997"
       y1="970.5"
       x1="453.50003" />
    <linearGradient
       gradientTransform="matrix(-0.39278174,0,0,3.5772052,645.77718,-814.95639)"
       gradientUnits="userSpaceOnUse"
       xlink:href="#linearGradient8742"
       id="linearGradient4328"
       y2="184"
       x2="1542.0002"
       y1="184"
       x1="1559.5" />
    <linearGradient
       gradientTransform="matrix(0.33802177,0,0,0.30314825,-459.23409,-28.482244)"
       gradientUnits="userSpaceOnUse"
       xlink:href="#linearGradient3737"
       id="linearGradient4488"
       y2="193.9996"
       x2="1485.8766"
       y1="169.00002"
       x1="1510.4767" />
    <linearGradient
       gradientTransform="matrix(0.86205751,0,0,0.98523221,5.2521718,-19.311217)"
       gradientUnits="userSpaceOnUse"
       xlink:href="#linearGradient3737"
       id="linearGradient4514"
       y2="50.26075"
       x2="62"
       y1="50.26075"
       x1="34" />
    <linearGradient
       gradientTransform="matrix(0.86205751,0,0,0.98523221,5.2521718,-13.399824)"
       gradientUnits="userSpaceOnUse"
       xlink:href="#linearGradient3737"
       id="linearGradient4518"
       y2="50.26075"
       x2="62"
       y1="50.26075"
       x1="34" />
    <linearGradient
       gradientTransform="matrix(0.86205751,0,0,0.98523221,5.2521718,-7.4884294)"
       gradientUnits="userSpaceOnUse"
       xlink:href="#linearGradient3737"
       id="linearGradient4522"
       y2="50.26075"
       x2="62"
       y1="50.26075"
       x1="34" />
    <linearGradient
       y2="184"
       x2="1542.0002"
       y1="184"
       x1="1559.5"
       gradientTransform="matrix(0.43988397,0,0,3.5475587,-627.60184,-778.18184)"
       gradientUnits="userSpaceOnUse"
       id="linearGradient3539"
       xlink:href="#linearGradient8742"
       inkscape:collect="always" />
    <linearGradient
       y2="184"
       x2="1542.0002"
       y1="184"
       x1="1559.5"
       gradientTransform="matrix(-0.43988397,0,0,3.5475587,721.84846,-778.18184)"
       gradientUnits="userSpaceOnUse"
       id="linearGradient3541"
       xlink:href="#linearGradient8742"
       inkscape:collect="always" />
    <linearGradient
       y2="184"
       x2="1542.0002"
       y1="184"
       x1="1559.5"
       gradientTransform="matrix(0.43988397,0,0,3.5475587,-605.8854,-808.04869)"
       gradientUnits="userSpaceOnUse"
       id="linearGradient3545"
       xlink:href="#linearGradient8742"
       inkscape:collect="always" />
    <linearGradient
       inkscape:collect="always"
       xlink:href="#linearGradient4160-1"
       id="linearGradient4136"
       gradientUnits="userSpaceOnUse"
       gradientTransform="matrix(0.90485491,0,0,0.82536691,4.7159293,4.1211685)"
       x1="2.5"
       y1="54.296875"
       x2="93.5"
       y2="54.296875" />
    <linearGradient
       y2="47.000011"
       x2="90"
       y1="47.000011"
       x1="6"
       gradientTransform="matrix(1.1071428,0,0,1.1071426,-4.9939026,-3.620687)"
       gradientUnits="userSpaceOnUse"
       id="linearGradient1422"
       xlink:href="#linearGradient6139-0"
       inkscape:collect="always" />
  </defs>
  <sodipodi:namedview
     inkscape:document-rotation="0"
     inkscape:snap-global="false"
     inkscape:window-maximized="1"
     inkscape:window-y="21"
     inkscape:window-x="0"
     inkscape:window-height="1029"
     inkscape:window-width="1920"
     inkscape:lockguides="true"
     units="px"
     inkscape:showpageshadow="false"
     showgrid="false"
     inkscape:current-layer="g2574"
     inkscape:document-units="px"
     inkscape:cy="45.143835"
     inkscape:cx="-7.030658"
     inkscape:zoom="2.796698"
     inkscape:pageshadow="2"
     inkscape:pageopacity="0.0"
     borderopacity="1.0"
     bordercolor="#666666"
     pagecolor="#ffffff"
     id="base">
    <sodipodi:guide
       inkscape:locked="true"
       id="guide1621"
       orientation="0,96"
       position="0,0" />
    <sodipodi:guide
       inkscape:locked="true"
       id="guide1623"
       orientation="-96,0"
       position="96.000002,0" />
    <sodipodi:guide
       inkscape:locked="true"
       id="guide1625"
       orientation="0,-96"
       position="96.000002,96.000002" />
    <sodipodi:guide
       inkscape:locked="true"
       id="guide1627"
       orientation="96,0"
       position="0,96.000002" />
  </sodipodi:namedview>
  <metadata
     id="metadata1069">
    <rdf:RDF>
      <cc:Work
         rdf:about="">
        <dc:format>image/svg+xml</dc:format>
        <dc:type
           rdf:resource="http://purl.org/dc/dcmitype/StillImage" />
        <dc:title />
        <dc:date>2017</dc:date>
        <dc:creator>
          <cc:Agent>
            <dc:title>Cristian Pozzessere &quot;ilnanny&quot;</dc:title>
          </cc:Agent>
        </dc:creator>
        <dc:subject>
          <rdf:Bag>
            <rdf:li>Global language</rdf:li>
          </rdf:Bag>
        </dc:subject>
        <dc:description>Playing with Inkscape on Gnu/Linux O. S.</dc:description>
        <dc:contributor>
          <cc:Agent>
            <dc:title>In the night, alone like a dog.</dc:title>
          </cc:Agent>
        </dc:contributor>
        <cc:license
           rdf:resource="http://creativecommons.org/licenses/by-sa/4.0/" />
      </cc:Work>
      <cc:License
         rdf:about="http://creativecommons.org/licenses/by-sa/4.0/">
        <cc:permits
           rdf:resource="http://creativecommons.org/ns#Reproduction" />
        <cc:permits
           rdf:resource="http://creativecommons.org/ns#Distribution" />
        <cc:requires
           rdf:resource="http://creativecommons.org/ns#Notice" />
        <cc:requires
           rdf:resource="http://creativecommons.org/ns#Attribution" />
        <cc:permits
           rdf:resource="http://creativecommons.org/ns#DerivativeWorks" />
        <cc:requires
           rdf:resource="http://creativecommons.org/ns#ShareAlike" />
      </cc:License>
    </rdf:RDF>
  </metadata>
  <g
     transform="translate(0,-1026.5197)"
     id="layer1"
     inkscape:groupmode="layer"
     inkscape:label="Livello 1">
    <g
       id="g2574"
       style="display:inline"
       transform="translate(-0.14895645,1026.1047)">
      <g
         transform="matrix(0.32291666,0,0,0.32291667,0.60085625,0.78098103)"
         id="g1420">
        <path
           inkscape:connector-curvature="0"
           id="path3288"
           d="M 89.29181,0.415026 H 7.0060911 c -3.798848,0 -6.8571352,3.058285 -6.8571352,6.8571399 V 89.557884 c 0,3.798857 3.0582872,6.857142 6.8571352,6.857142 H 89.29181 c 3.798857,0 6.857147,-3.058285 6.857147,-6.857142 V 7.2721659 c 0,-3.7988549 -3.05829,-6.8571399 -6.857147,-6.8571399 z"
           style="display:inline;opacity:0.15;fill:#000000;fill-opacity:1;fill-rule:nonzero;stroke:none" />
        <path
           style="display:inline;opacity:0.15;fill:#000000;fill-opacity:1;fill-rule:nonzero;stroke:none"
           d="M 88.648954,1.165026 H 7.6489471 c -3.739492,0 -6.749993,3.010499 -6.749993,6.7499969 V 88.915026 c 0,3.739501 3.010501,6.75 6.749993,6.75 H 88.648954 c 3.739503,0 6.750003,-3.010499 6.750003,-6.75 V 7.9150229 c 0,-3.7394979 -3.0105,-6.7499969 -6.750003,-6.7499969 z"
           id="path4085"
           inkscape:connector-curvature="0" />
        <path
           inkscape:connector-curvature="0"
           id="rect4251-1"
           d="M 88.006093,1.915026 H 8.2918111 c -3.680143,0 -6.6428566,2.962713 -6.6428566,6.6428549 V 88.272171 c 0,3.680142 2.9627136,6.642856 6.6428566,6.642856 H 88.006093 c 3.680143,0 6.642854,-2.962714 6.642854,-6.642856 V 8.5578809 c 0,-3.6801419 -2.962711,-6.6428549 -6.642854,-6.6428549 z"
           style="display:inline;fill:url(#linearGradient1422);fill-opacity:1;fill-rule:nonzero;stroke:none" />
        <path
           style="color:#000000;font-style:normal;font-variant:normal;font-weight:normal;font-stretch:normal;font-size:medium;line-height:normal;font-family:Sans;-inkscape-font-specification:Sans;text-indent:0;text-align:start;text-decoration:none;text-decoration-line:none;letter-spacing:normal;word-spacing:normal;text-transform:none;writing-mode:lr-tb;direction:ltr;baseline-shift:baseline;text-anchor:start;display:inline;overflow:visible;visibility:visible;fill:#241f1f;fill-opacity:0.632653;stroke:none;stroke-width:2.3755;marker:none;enable-background:accumulate"
           d="m 9.9740341,5.1444869 c -3.116621,0 -5.667965,2.53951 -5.667965,5.6460041 v 69.277996 c 0,3.106495 2.551344,5.646004 5.667965,5.646004 H 86.765819 c 3.116621,0 5.667968,-2.539509 5.667968,-5.646004 V 10.790491 c 0,-3.1064931 -2.551347,-5.6460041 -5.667968,-5.6460041 z m 0,2.319439 H 86.765819 c 1.888099,0 3.352022,1.480095 3.352022,3.3265651 v 69.277996 c 0,1.846474 -1.463923,3.326564 -3.352022,3.326564 H 9.9740341 c -1.888099,0 -3.352022,-1.48009 -3.352022,-3.326564 V 10.790491 c 0,-1.8464701 1.463923,-3.3265651 3.352022,-3.3265651 z"
           id="path4989"
           inkscape:connector-curvature="0" />
        <path
           id="path4118"
           d="m 1.6489535,82.258776 v 6 c 0,3.680142 2.9761066,6.65625 6.6562496,6.65625 H 87.992703 c 3.680143,0 6.656254,-2.976108 6.656254,-6.65625 v -6 c 0,3.680142 -2.976111,6.65625 -6.656254,6.65625 H 8.3052031 c -3.680143,0 -6.6562496,-2.976108 -6.6562496,-6.65625 z"
           style="display:inline;opacity:0.658182;fill:url(#linearGradient4129);fill-opacity:1;fill-rule:nonzero;stroke:none"
           inkscape:connector-curvature="0" />
        <rect
           ry="4.111784"
           rx="0"
           y="79.734085"
           x="7.1961303"
           height="4.111784"
           width="80.944885"
           id="rect4131-3"
           style="opacity:0.55;fill:url(#radialGradient5867);fill-opacity:1;stroke:none;stroke-width:0.866431" />
        <path
           id="rect4080"
           d="m 9.8260011,7.0653364 c -1.997535,0 -3.6035023,1.4624071 -3.6035023,3.2813796 v 10.000397 c 0,-1.818973 1.6059673,-3.28138 3.6035023,-3.28138 H 86.471909 c 1.997532,0 3.603505,1.462407 3.603505,3.28138 V 10.346716 c 0,-1.8189725 -1.605973,-3.2813796 -3.603505,-3.2813796 z"
           style="opacity:0;fill:#000000;fill-opacity:1;stroke:none;stroke-width:0.866431"
           inkscape:connector-curvature="0" />
        <rect
           ry="3.2549579"
           rx="3.5822697"
           y="-83.165268"
           x="6.5050559"
           height="75.677803"
           width="83.287811"
           id="rect4133"
           style="fill:url(#linearGradient5871);fill-opacity:1;stroke:#738589;stroke-width:0.866708;stroke-miterlimit:4;stroke-dasharray:none;stroke-opacity:1"
           transform="scale(1,-1)" />
        <path
           inkscape:connector-curvature="0"
           style="fill:#e4e8e8;fill-opacity:1;stroke:#738589;stroke-width:0.866708;stroke-miterlimit:4;stroke-dasharray:none;stroke-opacity:1"
           d="m 10.098337,13.931889 c -1.9845584,0 -3.5928837,1.467898 -3.5928837,3.279177 v 3.304997 c 0,-1.811279 1.6083253,-3.279177 3.5928837,-3.279177 h 76.101238 c 1.984555,0 3.592882,1.467898 3.592882,3.279177 v -3.304997 c 0,-1.811279 -1.608327,-3.279177 -3.592882,-3.279177 z"
           id="path4060" />
        <path
           id="path4062"
           d="m 10.098337,10.627246 c -1.9845584,0 -3.5928837,1.467897 -3.5928837,3.279175 v 3.304996 c 0,-1.811278 1.6083253,-3.279175 3.5928837,-3.279175 h 76.101238 c 1.984555,0 3.592882,1.467897 3.592882,3.279175 v -3.304996 c 0,-1.811278 -1.608327,-3.279175 -3.592882,-3.279175 z"
           style="fill:#e4e8e8;fill-opacity:1;stroke:#738589;stroke-width:0.866708;stroke-miterlimit:4;stroke-dasharray:none;stroke-opacity:1"
           inkscape:connector-curvature="0" />
        <path
           inkscape:connector-curvature="0"
           style="fill:#e4e8e8;fill-opacity:1;stroke:#738589;stroke-width:0.866708;stroke-miterlimit:4;stroke-dasharray:none;stroke-opacity:1"
           d="m 10.098337,7.3086903 c -1.9845584,0 -3.5928837,1.4678967 -3.5928837,3.2791747 v 3.304997 c 0,-1.811279 1.6083253,-3.279176 3.5928837,-3.279176 h 76.101238 c 1.984555,0 3.592882,1.467897 3.592882,3.279176 v -3.304997 c 0,-1.811278 -1.608327,-3.2791747 -3.592882,-3.2791747 z"
           id="path4351" />
        <path
           sodipodi:nodetypes="sscsscsss"
           inkscape:connector-curvature="0"
           id="rect4358"
           d="m 10.083394,7.4820193 c -1.9845772,0 -3.5749022,1.4520913 -3.5749022,3.2553377 V 21.57112 c 0,-1.803247 1.9102057,-3.987349 3.8947792,-3.983544 l 75.971194,0.145641 c 1.984564,0.0038 3.414952,2.034656 3.414952,3.837903 V 10.737357 c 0,-1.8032464 -1.59033,-3.2553377 -3.574903,-3.2553377 z"
           style="opacity:0.258182;fill:url(#linearGradient5875);fill-opacity:1;stroke:none;stroke-width:0.866431" />
        <path
           style="fill:url(#radialGradient4210);fill-opacity:1;fill-rule:nonzero;stroke-width:1.2465"
           id="path4253"
           d="M 6.4945064,17.544276 H 86.946 v 2.268553 H 6.4945064 Z"
           inkscape:connector-curvature="0" />
        <path
           style="fill:url(#radialGradient3333-6);fill-rule:nonzero;stroke-width:1.2465"
           id="path3934"
           d="m 84.20139,51.051135 4.434379,4.168814 V 81.275038 H 57.237508 Z"
           inkscape:connector-curvature="0" />
        <path
           style="fill:url(#linearGradient3335-7);fill-rule:nonzero;stroke-width:1.2465"
           id="path3922"
           d="M 86.803202,11.452686 V 48.453251 L 55.574028,83.066682 h 2.498333 l 29.706751,-33.830153 0.273256,-0.33569 V 48.453251 12.646253 Z"
           inkscape:connector-curvature="0" />
        <path
           style="fill:url(#linearGradient3341-2);fill-rule:nonzero;stroke-width:1.2465"
           id="path4278"
           d="M 55.835513,82.587185 89.681707,45.58662 c -3.031274,3.313782 -5.677582,3.5807 -14.319544,3.5807 h -15.62132 v 17.903499 c 0,7.930138 0.05776,11.183933 -3.90533,15.516366 z"
           inkscape:connector-curvature="0" />
        <path
           inkscape:connector-curvature="0"
           style="fill:#ffffff;fill-opacity:0.771201;fill-rule:nonzero;stroke-width:1.2465"
           id="path4282"
           d="m 89.552377,45.647205 c -3.031274,3.313781 -5.677582,3.580699 -14.319544,3.580699 h -15.62132 v 17.903499 c 0,7.930138 0.05776,11.183933 -3.90533,15.516366 5.207107,-5.967833 5.207604,-9.974238 5.207107,-15.516366 V 50.421471 h 14.319543 c 6.508884,0 10.468114,-0.455803 14.319544,-4.774266 z" />
        <path
           d="m 62.819208,18.540277 v 1.683391 h 5.891726 v -1.683391 z m 0,3.366781 v 1.683391 h 5.891726 v -1.683391 z m 0,3.366782 v 1.68339 h 5.891726 v -1.68339 z m 0,3.366781 v 1.683391 h 5.891726 v -1.683391 z m 0,3.366781 v 1.683391 h 5.891726 v -1.683391 z m 0,3.366782 v 1.68339 h 5.891726 v -1.68339 z m 0,3.366781 v 1.683391 h 5.891726 v -1.683391 z m 0,3.366781 v 1.683391 h 5.891726 v -1.683391 z m 0,3.366783 v 1.683389 h 5.891726 v -1.683389 z"
           inkscape:connector-curvature="0"
           id="path4307"
           style="color:#000000;display:inline;overflow:visible;visibility:visible;opacity:0.2;fill:url(#linearGradient4323);fill-opacity:1;fill-rule:nonzero;stroke:none;stroke-width:0.60462;marker:none" />
        <path
           d="m 46.697843,20.960153 c -0.381173,0 -0.686887,0.02438 -0.947018,0.03079 a 1.6499757,1.9847671 0 0 0 -0.02559,0 c -2.321271,0.07931 -4.936283,0.392035 -7.601742,1.108385 -1.271281,0.341661 -2.270558,0.939824 -2.96903,1.477849 -0.449567,0.346256 -0.870733,0.701801 -1.228565,1.416272 a 1.6499757,1.9847671 0 0 0 -0.07678,0.153942 c -0.03666,0.06707 -0.031,-3.08e-4 -0.102381,0.21552 -0.112672,0.340747 -0.15357,0.798204 -0.15357,1.0776 0,-0.124781 -0.04188,-0.03611 0,0.369461 a 1.6499757,1.9847671 0 0 0 0,0.03079 c 0.0055,0.05098 -0.01026,-0.01549 0,0.06158 a 1.6499757,1.9847671 0 0 0 0.05119,0.184731 c 0.02378,0.112719 0.07157,0.175501 0.10238,0.277096 a 1.6499757,1.9847671 0 0 0 0,0.03079 1.6499757,1.9847671 0 0 0 -0.15357,0.862081 v 3.786987 c 0,0.04921 -0.07807,0.425206 0.07679,1.077598 0.02031,0.08556 0.07784,0.106404 0.102381,0.184732 a 1.6499757,1.9847671 0 0 0 -0.179166,0.892866 c 0,1.34378 -0.0087,2.690217 0,4.064083 0.0014,0.223782 0.0075,0.439082 0.102379,0.800502 0.01342,0.05122 0.06145,0.07361 0.07679,0.123153 a 1.6499757,1.9847671 0 0 0 -0.179166,0.923656 V 44.1747 c 0,1.47112 0.787272,2.29796 1.5613,2.894119 0.791972,0.610022 1.746005,1.042872 2.892244,1.416272 2.29339,0.747164 5.314526,1.169964 8.65114,1.169964 3.336601,0 6.357758,-0.422845 8.651141,-1.169964 1.146139,-0.373409 2.100168,-0.806126 2.892244,-1.416272 0.774084,-0.59616 1.561301,-1.423002 1.561301,-2.894119 V 43.866821 40.110623 A 1.6499757,1.9847671 0 0 0 59.62337,39.186968 c 0.02607,-0.09088 0.106718,-0.115557 0.127976,-0.215519 0.0022,-0.01029 -0.0021,-0.02041 0,-0.03079 0.11556,-0.583383 0.05119,-0.863904 0.05119,-0.985235 v -3.756198 a 1.6499757,1.9847671 0 0 0 -0.179163,-0.923655 c 0.0253,-0.08836 0.107576,-0.119592 0.127976,-0.21552 0.0021,-0.0099 -0.002,-0.02084 0,-0.03079 0.115563,-0.583389 0.05119,-0.863903 0.05119,-0.985234 V 28.25704 a 1.6499757,1.9847671 0 0 0 -0.153563,-0.831288 c 0.0053,-0.01682 0.02036,-0.01366 0.0256,-0.03079 a 1.6499757,1.9847671 0 0 0 0.05119,-0.153943 c 1.5e-5,-6e-5 -5.46e-4,-0.02749 0,-0.03078 0.0024,-0.01107 -0.0023,-0.01983 0,-0.03079 0.01127,-0.06882 0.04697,-0.266757 0.05119,-0.338673 0.0011,-0.0099 -8.56e-4,-0.02096 0,-0.03079 0.0032,-0.0629 3.85e-4,-0.08989 0,-0.123154 -2.99e-4,-0.02019 4.37e-4,-0.01668 0,-0.03079 -0.0012,-0.07133 -2.51e-4,-0.09665 0,-0.09236 0.0012,-0.03888 0.02559,-0.0847 0.02559,-0.123162 0,-0.267972 -0.10272,-0.396151 -0.153571,-0.61577 0.0031,0.0843 0.02941,0.180998 0.0256,0.246308 0.01444,-0.256039 -0.07517,-0.737172 -0.255951,-1.139175 l 0.02559,-0.03079 c -0.04201,-0.08435 -0.01755,-0.03392 -0.0512,-0.09237 -0.01207,-0.0222 -0.01256,-0.03996 -0.0256,-0.06158 l -0.02559,0.03079 c -0.04696,-0.07377 -0.04779,-0.123389 -0.07679,-0.153943 -0.0082,-0.01226 -0.01732,-0.01874 -0.0256,-0.03079 -0.294952,-0.430244 -0.618759,-0.743451 -0.972612,-1.016021 -0.781497,-0.601938 -1.753377,-1.067682 -2.91784,-1.44706 -1.418572,-0.462158 -3.144541,-0.820797 -5.042233,-1.016021 -0.08467,-0.0088 0.0065,0.0023 -0.02559,0 -0.06412,-0.0048 -0.191846,-0.0138 -0.05119,0 -0.327565,-0.03129 -0.69208,-0.06711 -1.074994,-0.09237 -0.110392,-0.0073 -0.01655,-2.48e-4 -0.02559,0 -0.0091,2.5e-4 -0.120889,-0.0063 -0.02559,0 a 1.6499757,1.9847671 0 0 0 -0.02559,0 c -0.43203,-0.02715 -0.786511,-0.01998 -1.126184,-0.03079 -0.107811,-0.0035 -0.11621,-0.0029 -0.02559,0 -0.370141,-0.01154 -0.789522,-0.03079 -1.228566,-0.03079 z"
           id="path4480"
           style="color:#000000;display:inline;overflow:visible;visibility:visible;opacity:0.729167;fill:url(#linearGradient4482);fill-opacity:1;fill-rule:nonzero;stroke:none;stroke-width:1.20924;marker:none"
           inkscape:connector-curvature="0" />
        <path
           d="m 46.626924,22.927711 c -0.32993,0 -0.655418,0.01076 -0.97866,0.01833 -2.343307,0.07607 -4.982118,0.407002 -7.660823,1.090992 -1.112528,0.284075 -1.985726,0.760576 -2.574999,1.191838 -0.368314,0.26952 -0.621976,0.537898 -0.75405,0.788448 -0.01057,0.02502 -0.02333,0.04818 -0.03209,0.07334 -0.04118,0.118355 -0.06418,0.236037 -0.06418,0.357558 0,0.0377 0.004,0.07275 0.008,0.110017 0.0012,0.0059 -0.0012,0.01244 0,0.01833 7.95e-4,0.0062 -8.56e-4,0.01218 0,0.01833 0.13839,0.623295 0.82419,1.098317 1.339641,1.393537 0.617923,0.353898 1.243355,0.619154 1.965342,0.834286 3.111408,0.912693 6.486843,1.190066 9.890887,1.127665 2.460166,-0.07208 5.018582,-0.34928 7.580606,-1.109327 0.750378,-0.222615 1.582311,-0.564471 2.278193,-1.017648 0.370666,-0.241423 0.869769,-0.605595 1.034812,-1.118497 0.0015,-0.0064 0.0065,-0.01185 0.008,-0.01833 0.01858,-0.07934 0.02405,-0.157151 0.02405,-0.238368 0,-0.171972 -0.03868,-0.338865 -0.120326,-0.50424 -0.0053,-0.0089 -0.0104,-0.01868 -0.01605,-0.02751 -0.01008,-0.01925 -0.02896,-0.03586 -0.04012,-0.055 -0.144701,-0.205519 -0.363152,-0.416962 -0.657789,-0.632592 -0.589275,-0.431235 -1.474717,-0.85126 -2.575,-1.191842 -1.375371,-0.425724 -3.088754,-0.758655 -5.005606,-0.944301 -0.02107,-0.0021 -0.04303,-0.0072 -0.06417,-0.0092 -0.362104,-0.03287 -0.731167,-0.0596 -1.107008,-0.08251 -0.0157,-9.95e-4 -0.03239,9.96e-4 -0.04813,0 -0.384803,-0.02298 -0.773989,-0.043 -1.171185,-0.055 -0.0079,-2.4e-4 -0.01614,2.39e-4 -0.02407,0 -0.405558,-0.01202 -0.818882,-0.01833 -1.235333,-0.01833 z"
           inkscape:connector-curvature="0"
           id="path4458"
           style="color:#000000;display:inline;overflow:visible;visibility:visible;fill:url(#radialGradient4484);fill-opacity:1;fill-rule:nonzero;stroke:none;stroke-width:1.20924;marker:none" />
        <path
           d="m 34.570151,28.270688 v 3.777216 c 0,0.175056 -0.0094,0.338101 0.03208,0.504239 0.04584,0.183508 0.150732,0.397305 0.336915,0.59592 0.808623,0.852843 1.930034,1.201096 3.048286,1.6044 2.605971,0.779236 5.706802,1.083511 8.647507,1.109328 2.725,-0.0045 5.72427,-0.296398 8.607397,-1.10016 0.811396,-0.25069 1.729142,-0.59432 2.566978,-1.155168 0.506978,-0.339377 0.788203,-0.730051 0.858333,-1.05432 0.03209,-0.146071 0.03209,-0.333525 0.03209,-0.504239 v -3.777216 c -0.841686,0.938011 -2.107219,1.403056 -3.296961,1.787761 -2.404231,0.777358 -5.024988,0.997316 -7.620716,1.090991 -3.21056,0.107522 -6.550943,-0.199159 -9.914941,-1.090991 -0.835346,-0.232826 -1.866835,-0.670321 -2.71137,-1.256016 -0.228129,-0.158218 -0.423102,-0.34545 -0.585593,-0.531745 z"
           inkscape:connector-curvature="0"
           id="path4456"
           style="color:#000000;display:inline;overflow:visible;visibility:visible;fill:url(#linearGradient4462);fill-opacity:1;fill-rule:nonzero;stroke:none;stroke-width:1.20924;marker:none" />
        <path
           d="m 34.570151,34.191252 c 0,1.353812 -0.009,2.707639 0,4.061423 4.12e-4,0.06343 0.01284,0.141157 0.03208,0.210863 0.05018,0.18204 0.149218,0.399182 0.336915,0.595921 0.277028,0.290382 0.62203,0.563648 0.994704,0.760943 2.186655,1.147305 4.479351,1.41815 7.059188,1.778591 1.148981,0.123746 2.372274,0.174192 3.641901,0.174192 2.510221,-0.0041 4.953908,-0.233617 7.620715,-0.82512 1.147567,-0.285044 2.452811,-0.692103 3.55366,-1.430208 0.498405,-0.355571 0.788203,-0.73005 0.858333,-1.054319 0.03209,-0.146073 0.03209,-0.333523 0.03209,-0.50424 v -3.768046 c -0.112329,0.118465 -0.572719,0.545298 -0.866354,0.715104 -0.771787,0.446282 -1.792469,0.86248 -2.743458,1.145998 -2.685829,0.788066 -5.540591,0.958517 -8.454983,1.026817 -2.897143,-0.0064 -5.507682,-0.262249 -8.454983,-1.026817 -1.065502,-0.302646 -2.289026,-0.754049 -3.272896,-1.531055 -0.122599,-0.105763 -0.237291,-0.217391 -0.336916,-0.330047 z"
           inkscape:connector-curvature="0"
           id="path4454"
           style="color:#000000;display:inline;overflow:visible;visibility:visible;fill:url(#linearGradient4460);fill-opacity:1;fill-rule:nonzero;stroke:none;stroke-width:1.20924;marker:none" />
        <path
           d="m 34.570151,40.102644 v 4.061423 c 0,0.380244 0.262576,0.807592 0.850312,1.23768 0.587735,0.430118 1.468003,0.833364 2.566978,1.173502 2.197949,0.680339 5.263793,1.109329 8.647505,1.109329 3.383688,0 6.449532,-0.429019 8.647507,-1.109329 1.098949,-0.340168 1.979242,-0.743355 2.566977,-1.173502 0.587736,-0.43006 0.850312,-0.857436 0.850312,-1.23768 v -0.293376 -3.768047 c -0.18875,0.200112 -0.377898,0.387345 -0.617679,0.550079 -0.895003,0.604033 -1.909202,0.974933 -2.992133,1.311025 -2.692323,0.766767 -5.536664,0.972893 -8.454984,1.026815 -1.173955,3.82e-4 -2.41518,-0.05523 -3.682008,-0.174192 -2.100327,-0.2019 -4.73592,-0.631519 -6.962927,-1.686911 -0.486031,-0.233293 -1.017973,-0.574724 -1.41986,-1.026816 z"
           inkscape:connector-curvature="0"
           id="path11957"
           style="color:#000000;display:inline;overflow:visible;visibility:visible;fill:url(#linearGradient4448);fill-opacity:1;fill-rule:nonzero;stroke:none;stroke-width:1.20924;marker:none" />
        <path
           d="m 33.823173,18.540277 v 1.683391 h 5.891726 v -1.683391 z m 0,3.366781 v 1.683391 h 5.891726 v -1.683391 z m 0,3.366782 v 1.68339 h 5.891726 v -1.68339 z m 0,3.366781 v 1.683391 h 5.891726 v -1.683391 z m 0,3.366781 v 1.683391 h 5.891726 v -1.683391 z m 0,3.366782 v 1.68339 h 5.891726 v -1.68339 z m 0,3.366781 v 1.683391 h 5.891726 v -1.683391 z m 0,3.366781 v 1.683391 h 5.891726 v -1.683391 z m 0,3.366783 v 1.683389 h 5.891726 v -1.683389 z"
           inkscape:connector-curvature="0"
           id="path4326"
           style="color:#000000;display:inline;overflow:visible;visibility:visible;opacity:0.2;fill:url(#linearGradient4328);fill-opacity:1;fill-rule:nonzero;stroke:none;stroke-width:0.60462;marker:none" />
        <path
           d="m 41.620225,23.330868 c -1.187361,0.174657 -2.407975,0.394362 -3.636804,0.708136 -0.501887,0.128152 -0.946586,0.277172 -1.346965,0.461827 l 9.805905,1.908888 z m 4.822136,3.078851 5.064588,3.232792 h 0.02694 c 1.2588,-0.173299 2.553215,-0.4231 3.825381,-0.8005 0.411847,-0.122182 0.841146,-0.299904 1.266148,-0.492616 L 46.442363,26.409719 Z"
           inkscape:connector-curvature="0"
           id="path4486"
           style="display:inline;opacity:0.3;fill:url(#linearGradient4488);fill-opacity:1;stroke:none;stroke-width:0.60462" />
        <path
           d="m 34.56213,28.257028 v 0.985233 c 0.16249,0.186295 0.364536,0.395975 0.592664,0.554193 0.844535,0.585695 1.885524,1.029505 2.720869,1.262329 3.363999,0.891832 6.703093,1.185119 9.913663,1.077598 2.595728,-0.09367 5.219591,-0.300239 7.623821,-1.077598 1.189744,-0.384705 2.444909,-0.878511 3.286595,-1.816522 v -0.985233 c -0.841686,0.938013 -2.096851,1.431818 -3.286595,1.816523 -2.40423,0.777358 -5.028093,0.983923 -7.623821,1.077598 -3.21057,0.107521 -6.549664,-0.185765 -9.913663,-1.077598 -0.835345,-0.232824 -1.876334,-0.676634 -2.720869,-1.262329 -0.228128,-0.158218 -0.430174,-0.367899 -0.592664,-0.554194 z"
           inkscape:connector-curvature="0"
           id="path4499"
           style="color:#000000;display:inline;overflow:visible;visibility:visible;opacity:0.5;fill:url(#linearGradient4514);fill-opacity:1;fill-rule:nonzero;stroke:none;stroke-width:1.20924;marker:none" />
        <path
           d="m 34.56213,34.168423 v 0.985232 c 0.16249,0.186295 0.364536,0.395975 0.592664,0.554193 0.844535,0.585695 1.885524,1.029504 2.720869,1.262329 3.363999,0.891833 6.703093,1.185119 9.913663,1.077597 2.595728,-0.09367 5.219591,-0.300239 7.623821,-1.077597 1.189744,-0.384705 2.444909,-0.87851 3.286595,-1.816522 v -0.985232 c -0.841686,0.938011 -2.096851,1.431818 -3.286595,1.816521 -2.40423,0.777359 -5.028093,0.983923 -7.623821,1.077599 -3.21057,0.107521 -6.549664,-0.185766 -9.913663,-1.077599 C 37.040318,35.75212 35.999329,35.30831 35.154794,34.722616 34.926666,34.564398 34.72462,34.354718 34.56213,34.168423 Z"
           inkscape:connector-curvature="0"
           id="path4516"
           style="color:#000000;display:inline;overflow:visible;visibility:visible;opacity:0.5;fill:url(#linearGradient4518);fill-opacity:1;fill-rule:nonzero;stroke:none;stroke-width:1.20924;marker:none" />
        <path
           d="m 34.56213,40.079816 v 0.985232 c 0.16249,0.186295 0.364536,0.395976 0.592664,0.554194 0.844535,0.585694 1.885524,1.029504 2.720869,1.262329 3.363999,0.891832 6.703093,1.185119 9.913663,1.077597 2.595728,-0.09367 5.219591,-0.30024 7.623821,-1.077597 1.189744,-0.384705 2.444909,-0.878511 3.286595,-1.816523 v -0.985232 c -0.841686,0.938011 -2.096851,1.431818 -3.286595,1.816522 -2.40423,0.777359 -5.028093,0.983922 -7.623821,1.077598 -3.21057,0.107521 -6.549664,-0.185765 -9.913663,-1.077598 C 37.040318,41.663514 35.999329,41.219704 35.154794,40.63401 34.926666,40.47579 34.72462,40.266111 34.56213,40.079816 Z"
           inkscape:connector-curvature="0"
           id="path4520"
           style="color:#000000;display:inline;overflow:visible;visibility:visible;opacity:0.5;fill:url(#linearGradient4522);fill-opacity:1;fill-rule:nonzero;stroke:none;stroke-width:1.20924;marker:none" />
        <path
           d="m 46.630936,21.945385 c -0.32993,0 -0.646573,0.02321 -0.969815,0.03079 -2.343308,0.07607 -4.998995,0.393608 -7.6777,1.077598 -1.112528,0.284075 -1.96996,0.769488 -2.559234,1.200751 -0.368314,0.269521 -0.622226,0.519164 -0.754301,0.769713 -0.01057,0.02502 -0.04512,0.0672 -0.05388,0.09237 -0.04118,0.118356 -0.05388,0.217153 -0.05388,0.338675 0,0.0377 -0.004,0.08588 0,0.123154 7.95e-4,0.0062 -8.56e-4,0.02463 0,0.03079 0.02736,0.123184 0.09706,0.227315 0.161636,0.338674 0.140064,-0.23076 0.365317,-0.462915 0.700422,-0.708135 0.589274,-0.431263 1.446706,-0.916678 2.559232,-1.200752 2.678706,-0.683989 5.334395,-1.001529 7.677702,-1.077598 0.323242,-0.0076 0.639885,-0.03079 0.969814,-0.03079 0.416451,0 0.83365,0.01877 1.239208,0.03079 0.0079,2.37e-4 0.01909,-2.41e-4 0.02694,0 0.397197,0.01201 0.773589,0.0078 1.15839,0.03079 0.01574,9.96e-4 0.03816,-9.95e-4 0.05388,0 0.37584,0.02291 0.742406,0.0595 1.104512,0.09237 0.02114,0.002 0.03279,-0.0021 0.05388,0 1.916852,0.185647 3.635339,0.52872 5.01071,0.954445 1.100283,0.340581 1.996897,0.769518 2.586173,1.200753 0.294638,0.21563 0.501842,0.41025 0.646543,0.615768 0.01114,0.01915 0.0438,0.04233 0.05388,0.06158 0.03436,-0.06528 0.08494,-0.113829 0.107757,-0.18473 0.0016,-0.0064 -0.0015,-0.02429 0,-0.03079 0.01858,-0.07934 0.02694,-0.16509 0.02694,-0.246307 0,-0.17197 -0.05304,-0.327241 -0.134695,-0.492615 -0.0053,-0.0089 0.0056,-0.02196 0,-0.03079 -0.01008,-0.01925 -0.04273,-0.04243 -0.05388,-0.06158 -0.1447,-0.205518 -0.351906,-0.400139 -0.646544,-0.61577 -0.589276,-0.431235 -1.485889,-0.860171 -2.586172,-1.200752 -1.375371,-0.425725 -3.093858,-0.768797 -5.01071,-0.954444 -0.02108,-0.0021 -0.03275,0.002 -0.05388,0 -0.362105,-0.03287 -0.728671,-0.06945 -1.104511,-0.09237 -0.01571,-9.96e-4 -0.03815,9.96e-4 -0.05388,0 -0.384801,-0.02298 -0.761194,-0.01878 -1.158392,-0.03079 -0.0078,-2.4e-4 -0.019,2.36e-4 -0.02694,0 -0.405557,-0.01202 -0.822757,-0.03079 -1.239207,-0.03079 z"
           inkscape:connector-curvature="0"
           id="path4524"
           style="color:#000000;display:inline;overflow:visible;visibility:visible;opacity:0.2;fill:#ffffff;fill-opacity:1;fill-rule:nonzero;stroke:none;stroke-width:1.20924;marker:none" />
        <path
           style="color:#000000;display:inline;overflow:visible;visibility:visible;opacity:0.2;fill:url(#linearGradient3539);fill-opacity:1;fill-rule:nonzero;stroke:none;stroke-width:0.637189;marker:none"
           id="path3535"
           inkscape:connector-curvature="0"
           d="m 51.13912,48.407281 v 1.66944 h 6.59826 v -1.66944 z m 0,3.338879 v 1.66944 h 6.59826 v -1.66944 z m 0,3.338879 v 1.669439 h 6.59826 v -1.669439 z m 0,3.338878 v 1.66944 h 6.59826 v -1.66944 z m 0,3.338876 v 1.669441 h 6.59826 v -1.669441 z m 0,3.338876 v 1.669441 h 6.59826 v -1.669441 z m 0,3.338875 v 1.669441 h 6.59826 v -1.669441 z m 0,3.338876 v 1.669441 h 6.59826 V 71.77942 Z m 0,3.338875 v 1.669435 h 6.59826 v -1.669435 z" />
        <path
           style="color:#000000;display:inline;overflow:visible;visibility:visible;opacity:0.2;fill:url(#linearGradient3541);fill-opacity:1;fill-rule:nonzero;stroke:none;stroke-width:0.637189;marker:none"
           id="path3537"
           inkscape:connector-curvature="0"
           d="m 36.509196,48.407281 v 1.66944 h 6.598259 v -1.66944 z m 0,3.338879 v 1.66944 h 6.598259 v -1.66944 z m 0,3.338879 v 1.669439 h 6.598259 v -1.669439 z m 0,3.338878 v 1.66944 h 6.598259 v -1.66944 z m 0,3.338876 v 1.669441 h 6.598259 v -1.669441 z m 0,3.338876 v 1.669441 h 6.598259 v -1.669441 z m 0,3.338875 v 1.669441 h 6.598259 v -1.669441 z m 0,3.338876 v 1.669441 h 6.598259 V 71.77942 Z m 0,3.338875 v 1.669435 h 6.598259 v -1.669435 z" />
        <path
           d="m 72.85564,18.540277 v 1.66944 h 6.598259 v -1.66944 z m 0,3.338879 v 1.669439 h 6.598259 v -1.669439 z m 0,3.338879 v 1.669439 h 6.598259 v -1.669439 z m 0,3.338878 v 1.66944 h 6.598259 v -1.66944 z m 0,3.338876 v 1.669443 h 6.598259 v -1.669443 z m 0,3.33888 v 1.669443 h 6.598259 v -1.669443 z m 0,3.338879 v 1.669443 h 6.598259 v -1.669443 z m 0,3.33888 v 1.669443 h 6.598259 v -1.669443 z m 0,3.338879 v 1.669436 h 6.598259 v -1.669436 z"
           inkscape:connector-curvature="0"
           id="path3543"
           style="color:#000000;display:inline;overflow:visible;visibility:visible;opacity:0.2;fill:url(#linearGradient3545);fill-opacity:1;fill-rule:nonzero;stroke:none;stroke-width:0.637189;marker:none" />
        <path
           inkscape:transform-center-y="-96.439647"
           inkscape:transform-center-x="-35.678407"
           id="rect4371"
           d="m 10.512656,16.579051 c -1.9621977,0 -3.5345894,1.438152 -3.5345894,3.224089 v 58.265748 c 0,1.785938 1.5723917,3.224091 3.5345894,3.224091 h 75.272618 c 1.962196,0 3.53459,-1.438153 3.53459,-3.224091 V 19.80314 c 0,-1.785937 -1.572394,-3.224089 -3.53459,-3.224089 z"
           style="opacity:0.28;fill:url(#linearGradient4136);fill-opacity:1;stroke:none;stroke-width:0.864197"
           inkscape:connector-curvature="0" />
        <rect
           ry="4.25"
           rx="0"
           y="80.665031"
           x="5.5239539"
           height="4.25"
           width="84.250008"
           id="rect4131"
           style="opacity:0.55;fill:url(#radialGradient7462);fill-opacity:1;stroke:none" />
        <rect
           clip-path="url(#clipPath4156-4-1)"
           ry="3.9569881"
           rx="3.9569874"
           y="-30"
           x="2"
           height="69.024437"
           width="75.965775"
           id="rect4146"
           style="opacity:0.507812;fill:url(#linearGradient4767);fill-opacity:1;stroke:none"
           transform="matrix(1.0692451,0,0,1.0476829,4.4441802,38.894013)" />
      </g>
    </g>
  </g>
</svg>
