<?xml version="1.0" encoding="UTF-8" standalone="no"?>
<svg
   xmlns:osb="http://www.openswatchbook.org/uri/2009/osb"
   xmlns:dc="http://purl.org/dc/elements/1.1/"
   xmlns:cc="http://creativecommons.org/ns#"
   xmlns:rdf="http://www.w3.org/1999/02/22-rdf-syntax-ns#"
   xmlns:svg="http://www.w3.org/2000/svg"
   xmlns="http://www.w3.org/2000/svg"
   xmlns:xlink="http://www.w3.org/1999/xlink"
   xmlns:sodipodi="http://sodipodi.sourceforge.net/DTD/sodipodi-0.dtd"
   xmlns:inkscape="http://www.inkscape.org/namespaces/inkscape"
   height="32"
   width="32"
   inkscape:version="1.0beta2 (2b71d25d45, 2019-12-03)"
   sodipodi:docname="emblem-heart.svg"
   id="svg6"
   version="1.1"
   viewBox="0 0 32 32">
  <metadata
     id="metadata10">
    <rdf:RDF>
      <cc:Work
         rdf:about="">
        <dc:format>image/svg+xml</dc:format>
        <dc:type
           rdf:resource="http://purl.org/dc/dcmitype/StillImage" />
        <dc:title></dc:title>
        <dc:creator>
          <cc:Agent>
            <dc:title>Cristian Pozzessere &quot;ilnanny&quot;</dc:title>
          </cc:Agent>
        </dc:creator>
        <dc:subject>
          <rdf:Bag>
            <rdf:li>Global language</rdf:li>
          </rdf:Bag>
        </dc:subject>
        <dc:description>Playing with Inkscape on Gnu/Linux O. S.</dc:description>
        <dc:contributor>
          <cc:Agent>
            <dc:title>In the night, alone like a dog.</dc:title>
          </cc:Agent>
        </dc:contributor>
        <cc:license
           rdf:resource="http://creativecommons.org/licenses/by-sa/4.0/" />
      </cc:Work>
      <cc:License
         rdf:about="http://creativecommons.org/licenses/by-sa/4.0/">
        <cc:permits
           rdf:resource="http://creativecommons.org/ns#Reproduction" />
        <cc:permits
           rdf:resource="http://creativecommons.org/ns#Distribution" />
        <cc:requires
           rdf:resource="http://creativecommons.org/ns#Notice" />
        <cc:requires
           rdf:resource="http://creativecommons.org/ns#Attribution" />
        <cc:permits
           rdf:resource="http://creativecommons.org/ns#DerivativeWorks" />
        <cc:requires
           rdf:resource="http://creativecommons.org/ns#ShareAlike" />
      </cc:License>
    </rdf:RDF>
  </metadata>
  <sodipodi:namedview
     inkscape:document-rotation="0"
     inkscape:current-layer="g2574"
     inkscape:window-maximized="1"
     inkscape:window-y="21"
     inkscape:window-x="0"
     inkscape:cy="48.000026"
     inkscape:cx="48"
     inkscape:zoom="4.1510417"
     showgrid="false"
     id="namedview8"
     inkscape:window-height="1027"
     inkscape:window-width="1920"
     inkscape:pageshadow="2"
     inkscape:pageopacity="0"
     guidetolerance="10"
     gridtolerance="10"
     objecttolerance="10"
     borderopacity="1"
     bordercolor="#666666"
     pagecolor="#ffffff" />
  <defs
     id="defs3051">
    <style
       id="current-color-scheme"
       type="text/css">
      .ColorScheme-Text {
        color:#4d4d4d;
      }
      </style>
    <linearGradient
       y2="47.000011"
       x2="90"
       y1="47.000011"
       x1="6"
       gradientTransform="matrix(1.1071428,0,0,1.1071426,-4.9939026,-3.620687)"
       gradientUnits="userSpaceOnUse"
       id="linearGradient4071"
       xlink:href="#linearGradient6139-0"
       inkscape:collect="always" />
    <linearGradient
       id="linearGradient6139-0">
      <stop
         style="stop-color:#b2b7bc;stop-opacity:1"
         offset="0"
         id="stop6141-2" />
      <stop
         id="stop6151-0"
         offset="0.25"
         style="stop-color:#ffffff;stop-opacity:1;" />
      <stop
         id="stop6147-1"
         offset="0.5"
         style="stop-color:#969fa4;stop-opacity:1" />
      <stop
         style="stop-color:#f9fafb;stop-opacity:1"
         offset="0.75"
         id="stop6149-4" />
      <stop
         style="stop-color:#b2b7bc;stop-opacity:1"
         offset="1"
         id="stop6143-4" />
    </linearGradient>
    <linearGradient
       gradientUnits="userSpaceOnUse"
       y2="88.171875"
       x2="94.5"
       y1="88.171875"
       x1="1.5"
       id="linearGradient4129"
       xlink:href="#linearGradient3832-0-6-1-1"
       inkscape:collect="always"
       gradientTransform="translate(0.1489535,0.415026)" />
    <linearGradient
       id="linearGradient3832-0-6-1-1">
      <stop
         id="stop3834-6-3-7-1"
         offset="0"
         style="stop-color:#000000;stop-opacity:1;" />
      <stop
         style="stop-color:#000000;stop-opacity:0.58823532;"
         offset="0.1"
         id="stop3872-2-4" />
      <stop
         id="stop3844-6-2-7-6"
         offset="0.89999998"
         style="stop-color:#000000;stop-opacity:0.58823532;" />
      <stop
         id="stop3836-5-0-2-9"
         offset="1"
         style="stop-color:#000000;stop-opacity:1;" />
    </linearGradient>
    <radialGradient
       r="43.199203"
       fy="44.892841"
       fx="13.948145"
       cy="44.892841"
       cx="13.948145"
       gradientTransform="matrix(0.97513378,0,0,0.04919072,34.047649,80.581722)"
       gradientUnits="userSpaceOnUse"
       id="radialGradient7462"
       xlink:href="#linearGradient3737"
       inkscape:collect="always" />
    <linearGradient
       id="linearGradient3737">
      <stop
         id="stop3739"
         style="stop-color:#ffffff;stop-opacity:1"
         offset="0" />
      <stop
         id="stop3741"
         style="stop-color:#ffffff;stop-opacity:0"
         offset="1" />
    </linearGradient>
    <radialGradient
       r="43.199203"
       fy="44.892841"
       fx="13.948145"
       cy="44.892841"
       cx="13.948145"
       gradientTransform="matrix(0.88832663,0,0,0.04919072,31.959518,-90.31726)"
       gradientUnits="userSpaceOnUse"
       id="radialGradient7464"
       xlink:href="#linearGradient3737"
       inkscape:collect="always" />
    <linearGradient
       y2="14.514202"
       x2="50.527882"
       y1="-28.64156"
       x1="2.7713892"
       gradientUnits="userSpaceOnUse"
       id="linearGradient4767"
       xlink:href="#linearGradient3737"
       inkscape:collect="always" />
    <clipPath
       clipPathUnits="userSpaceOnUse"
       id="clipPath4156-4-1">
      <path
         style="opacity:0.6;fill:#ffffff;fill-opacity:1;stroke:none"
         d="m 27.046336,-55.695463 -14.21366,13.321486 h 0.06127 l 15.653407,21.770763 10.231384,-10.546177 C 38.561832,-32.30156 27.468089,-54.819245 27.046336,-55.695463 Z M 9.6468554,-39.382809 -5.2407289,-25.32124 15.987863,-7.8059573 26.372412,-18.382966 Z m 31.4906096,12.951445 -9.741259,9.713584 8.944804,12.4580526 7.780753,-7.5550056 z m -49.8397109,4.378822 -13.7541661,12.9822847 26.2830181,13.84571 0.06127,-0.0617 -0.122531,-0.0617 L 13.598503,-5.4007374 -8.7022409,-22.052595 Z m 38.0154159,7.400825 -9.802525,9.7752596 11.579232,9.5594001 7.62759,-7.40083 -8.669108,-11.0087257 z m 20.187073,5.6739697 -7.382526,7.2158 6.187844,8.54179 5.820249,-6.13651996 z m -32.195166,6.32154 -9.5574606,9.49772 13.6622686,7.1849703 7.933918,-7.6783603 z m 23.311629,2.37443004 -7.10683,6.93826996 8.362778,6.9074403 5.360756,-5.6739699 -0.06127,-0.0925 -0.0919,0.12335 -6.463539,-8.20258036 z m -8.730374,8.54178036 -7.505057,7.3391599 10.353916,5.45811 c 1.397496,-1.32103 5.67514,-6.12292 5.850882,-6.32154 z"
         id="path4158-0-8"
         inkscape:connector-curvature="0" />
    </clipPath>
    <linearGradient
       id="linearGradient5606"
       osb:paint="solid">
      <stop
         id="stop5608"
         offset="0"
         style="stop-color:#000000;stop-opacity:1;" />
    </linearGradient>
    <radialGradient
       gradientUnits="userSpaceOnUse"
       gradientTransform="matrix(5.3738064,0,0,4.6061198,-3568.4249,1055.1708)"
       r="7"
       fy="-221.13448"
       fx="672.9491"
       cy="-221.13448"
       cx="672.9491"
       id="radialGradient1082"
       xlink:href="#linearGradient1080"
       inkscape:collect="always" />
    <linearGradient
       id="linearGradient1080"
       inkscape:collect="always">
      <stop
         id="stop1076"
         offset="0"
         style="stop-color:#ff7d7d;stop-opacity:1" />
      <stop
         id="stop1078"
         offset="1"
         style="stop-color:#b50000;stop-opacity:1" />
    </linearGradient>
  </defs>
  <g
     inkscape:label="Livello 1"
     id="layer1"
     transform="translate(0,-1026.5197)">
    <g
       transform="translate(-0.14895645,1026.1047)"
       style="display:inline"
       id="g2574">
      <g
         transform="matrix(0.32291666,0,0,0.32291667,0.60085625,0.78098103)"
         id="g1084">
        <path
           inkscape:connector-curvature="0"
           style="fill:#ffffff;fill-opacity:0.5189;stroke:none;stroke-width:5.37381"
           d="m 30.852061,14.172833 c -11.187351,0 -20.320313,9.000012 -20.320313,20.150391 0,0.330557 0.01162,0.659276 0.02734,0.986328 0.533481,-10.677227 9.446685,-19.136719 20.292969,-19.136719 7.369208,0 13.75328,3.875531 17.296875,9.740235 3.543595,-5.86465 9.927667,-9.740235 17.296875,-9.740235 10.846284,0 19.759488,8.459492 20.292969,19.136719 0.01572,-0.327079 0.02734,-0.65574 0.02734,-0.986328 0,-11.150379 -9.132962,-20.150391 -20.320313,-20.150391 -7.369208,0 -13.75328,3.875585 -17.296875,9.740235 -3.543595,-5.864704 -9.927667,-9.740235 -17.296875,-9.740235 z"
           id="path1003" />
        <path
           style="display:inline;opacity:0.15;fill:#000000;fill-opacity:1;fill-rule:nonzero;stroke:none"
           d="M 89.29181,0.415026 H 7.0060911 c -3.798848,0 -6.8571352,3.058285 -6.8571352,6.8571399 V 89.557884 c 0,3.798857 3.0582872,6.857142 6.8571352,6.857142 H 89.29181 c 3.798857,0 6.857147,-3.058285 6.857147,-6.857142 V 7.2721659 c 0,-3.7988549 -3.05829,-6.8571399 -6.857147,-6.8571399 z"
           id="path3288"
           inkscape:connector-curvature="0" />
        <path
           inkscape:connector-curvature="0"
           id="path4085"
           d="M 88.648954,1.165026 H 7.6489471 c -3.739492,0 -6.749993,3.010499 -6.749993,6.7499969 V 88.915026 c 0,3.739501 3.010501,6.75 6.749993,6.75 H 88.648954 c 3.739503,0 6.750003,-3.010499 6.750003,-6.75 V 7.9150229 c 0,-3.7394979 -3.0105,-6.7499969 -6.750003,-6.7499969 z"
           style="display:inline;opacity:0.15;fill:#000000;fill-opacity:1;fill-rule:nonzero;stroke:none" />
        <path
           style="display:inline;fill:url(#linearGradient4071);fill-opacity:1;fill-rule:nonzero;stroke:none"
           d="M 88.006093,1.915026 H 8.2918111 c -3.680143,0 -6.6428566,2.962713 -6.6428566,6.6428549 V 88.272171 c 0,3.680142 2.9627136,6.642856 6.6428566,6.642856 H 88.006093 c 3.680143,0 6.642854,-2.962714 6.642854,-6.642856 V 8.5578809 c 0,-3.6801419 -2.962711,-6.6428549 -6.642854,-6.6428549 z"
           id="rect4251-1"
           inkscape:connector-curvature="0" />
        <path
           style="display:inline;opacity:0.778646;fill:#f3f4f5;fill-opacity:1;fill-rule:nonzero;stroke:none;stroke-width:1.0295"
           d="m 11.390247,6.8021682 c -2.8564964,0 -5.1241284,2.2883782 -5.1241284,5.1710028 v 21.42734 7.239403 39.913674 c 1.0972399,1.684484 2.9688485,2.811732 5.1241284,2.811732 h 4.099303 65.588849 4.099302 c 2.155281,0 4.026889,-1.127248 5.124129,-2.811732 V 40.639914 33.400511 11.973171 c 0,-2.8826246 -2.267632,-5.1710028 -5.124129,-5.1710028 z"
           id="path3400-6"
           inkscape:connector-curvature="0"
           sodipodi:nodetypes="sscccsccscccsss" />
        <path
           inkscape:connector-curvature="0"
           id="path4989"
           d="m 9.9740341,5.1444869 c -3.116621,0 -5.667965,2.53951 -5.667965,5.6460041 v 69.277996 c 0,3.106495 2.551344,5.646004 5.667965,5.646004 H 86.765819 c 3.116621,0 5.667968,-2.539509 5.667968,-5.646004 V 10.790491 c 0,-3.1064931 -2.551347,-5.6460041 -5.667968,-5.6460041 z m 0,2.319439 H 86.765819 c 1.888099,0 3.352022,1.480095 3.352022,3.3265651 v 69.277996 c 0,1.846474 -1.463923,3.326564 -3.352022,3.326564 H 9.9740341 c -1.888099,0 -3.352022,-1.48009 -3.352022,-3.326564 V 10.790491 c 0,-1.8464701 1.463923,-3.3265651 3.352022,-3.3265651 z"
           style="color:#000000;font-style:normal;font-variant:normal;font-weight:normal;font-stretch:normal;font-size:medium;line-height:normal;font-family:Sans;-inkscape-font-specification:Sans;text-indent:0;text-align:start;text-decoration:none;text-decoration-line:none;letter-spacing:normal;word-spacing:normal;text-transform:none;writing-mode:lr-tb;direction:ltr;baseline-shift:baseline;text-anchor:start;display:inline;overflow:visible;visibility:visible;fill:#454545;fill-opacity:1;stroke:none;stroke-width:2.3755;marker:none;enable-background:accumulate" />
        <path
           inkscape:connector-curvature="0"
           style="display:inline;opacity:0.658182;fill:url(#linearGradient4129);fill-opacity:1;fill-rule:nonzero;stroke:none"
           d="m 1.6489535,82.258776 v 6 c 0,3.680142 2.9761066,6.65625 6.6562496,6.65625 H 87.992703 c 3.680143,0 6.656254,-2.976108 6.656254,-6.65625 v -6 c 0,3.680142 -2.976111,6.65625 -6.656254,6.65625 H 8.3052031 c -3.680143,0 -6.6562496,-2.976108 -6.6562496,-6.65625 z"
           id="path4118" />
        <rect
           style="opacity:0.55;fill:url(#radialGradient7462);fill-opacity:1;stroke:none"
           id="rect4131"
           width="84.250008"
           height="4.25"
           x="5.5239539"
           y="80.665031"
           rx="0"
           ry="4.25" />
        <rect
           ry="4.25"
           rx="0"
           y="-90.233963"
           x="5.9750223"
           height="4.25"
           width="76.75"
           id="rect4141"
           style="opacity:0.669;fill:url(#radialGradient7464);fill-opacity:1;stroke:none"
           transform="rotate(90)" />
        <path
           inkscape:connector-curvature="0"
           d="m 30.852017,14.172204 c -11.187351,0 -20.319705,9.001394 -20.319705,20.151774 0,5.801991 2.449058,11.095459 6.381395,14.777968 L 47.645162,78.657881 79.384206,49.101946 c 3.932874,-3.681971 6.381396,-8.975439 6.381396,-14.777968 0,-11.15038 -9.132355,-20.151774 -20.319706,-20.151774 -7.369208,0 -13.753344,3.875374 -17.296939,9.740024 -3.543596,-5.864704 -9.927731,-9.740024 -17.29694,-9.740024 z"
           id="path891"
           sodipodi:nodetypes="sscccsscs"
           style="fill:url(#radialGradient1082);fill-opacity:1;stroke:none;stroke-width:5.37381" />
        <g
           id="g984">
          <path
             inkscape:connector-curvature="0"
             style="display:inline;fill:#000000;fill-opacity:0.233677;stroke:none;stroke-width:5.37381;enable-background:new"
             d="m 10.484375,33.902344 c -0.06587,0.660214 -0.101563,1.328234 -0.101563,2.005859 0,5.801991 2.450476,11.096789 6.382813,14.779297 L 47.496094,80.242188 79.234375,50.6875 c 3.932874,-3.681971 6.382813,-8.976768 6.382813,-14.779297 0,-0.677625 -0.0357,-1.345645 -0.101563,-2.005859 -0.490199,5.012858 -2.804046,9.529785 -6.28125,12.785156 L 47.496094,76.242188 16.765625,46.6875 c -3.476729,-3.255846 -5.79096,-7.772663 -6.28125,-12.785156 z"
             transform="translate(0.14895522,-1.585021)"
             id="path913" />
          <rect
             clip-path="url(#clipPath4156-4-1)"
             ry="3.9569881"
             rx="3.9569874"
             y="-30"
             x="2"
             height="69.024437"
             width="75.965775"
             id="rect4146"
             style="opacity:0.507812;fill:url(#linearGradient4767);fill-opacity:1;stroke:none"
             transform="matrix(1.0692451,0,0,1.0476829,4.4441802,38.894013)" />
        </g>
      </g>
    </g>
  </g>
</svg>
