<?xml version="1.0" encoding="UTF-8" standalone="no"?>
<!-- Created with Inkscape (http://www.inkscape.org/) -->

<svg
   xmlns:dc="http://purl.org/dc/elements/1.1/"
   xmlns:cc="http://creativecommons.org/ns#"
   xmlns:rdf="http://www.w3.org/1999/02/22-rdf-syntax-ns#"
   xmlns:svg="http://www.w3.org/2000/svg"
   xmlns="http://www.w3.org/2000/svg"
   xmlns:xlink="http://www.w3.org/1999/xlink"
   xmlns:sodipodi="http://sodipodi.sourceforge.net/DTD/sodipodi-0.dtd"
   xmlns:inkscape="http://www.inkscape.org/namespaces/inkscape"
   width="32"
   height="32"
   viewBox="0 0 32 32"
   version="1.1"
   id="svg1072"
   inkscape:version="0.92.2 5c3e80d, 2017-08-06"
   sodipodi:docname="emblem-recent.svg">
  <defs
     id="defs1066">
    <linearGradient
       inkscape:collect="always"
       xlink:href="#linearGradient6139-0"
       id="linearGradient4071"
       gradientUnits="userSpaceOnUse"
       gradientTransform="matrix(1.1071428,0,0,1.1071426,-4.9939026,-3.620687)"
       x1="6"
       y1="47.000011"
       x2="90"
       y2="47.000011" />
    <linearGradient
       id="linearGradient6139-0">
      <stop
         id="stop6141-2"
         offset="0"
         style="stop-color:#b2bbc5;stop-opacity:1" />
      <stop
         style="stop-color:#ffffff;stop-opacity:1;"
         offset="0.25"
         id="stop6151-0" />
      <stop
         style="stop-color:#a2abb7;stop-opacity:1"
         offset="0.5"
         id="stop6147-1" />
      <stop
         id="stop6149-4"
         offset="0.75"
         style="stop-color:#fbf9f9;stop-opacity:1;" />
      <stop
         id="stop6143-4"
         offset="1"
         style="stop-color:#adb6c1;stop-opacity:1" />
    </linearGradient>
    <linearGradient
       gradientTransform="translate(0.1489535,0.415026)"
       inkscape:collect="always"
       xlink:href="#linearGradient3832-0-6-1-1"
       id="linearGradient4129"
       x1="1.5"
       y1="88.171875"
       x2="94.5"
       y2="88.171875"
       gradientUnits="userSpaceOnUse" />
    <linearGradient
       id="linearGradient3832-0-6-1-1">
      <stop
         style="stop-color:#000000;stop-opacity:1;"
         offset="0"
         id="stop3834-6-3-7-1" />
      <stop
         id="stop3872-2-4"
         offset="0.1"
         style="stop-color:#000000;stop-opacity:0.58823532;" />
      <stop
         style="stop-color:#000000;stop-opacity:0.58823532;"
         offset="0.89999998"
         id="stop3844-6-2-7-6" />
      <stop
         style="stop-color:#000000;stop-opacity:1;"
         offset="1"
         id="stop3836-5-0-2-9" />
    </linearGradient>
    <radialGradient
       inkscape:collect="always"
       xlink:href="#linearGradient3737"
       id="radialGradient7462"
       gradientUnits="userSpaceOnUse"
       gradientTransform="matrix(0.97513378,0,0,0.04919072,34.047649,80.581722)"
       cx="13.948145"
       cy="44.892841"
       fx="13.948145"
       fy="44.892841"
       r="43.199203" />
    <linearGradient
       id="linearGradient3737">
      <stop
         offset="0"
         style="stop-color:#ffffff;stop-opacity:1"
         id="stop3739" />
      <stop
         offset="1"
         style="stop-color:#ffffff;stop-opacity:0"
         id="stop3741" />
    </linearGradient>
    <radialGradient
       inkscape:collect="always"
       xlink:href="#linearGradient3737"
       id="radialGradient7464"
       gradientUnits="userSpaceOnUse"
       gradientTransform="matrix(0.88832663,0,0,0.04919072,31.959518,-90.31726)"
       cx="13.948145"
       cy="44.892841"
       fx="13.948145"
       fy="44.892841"
       r="43.199203" />
    <linearGradient
       inkscape:collect="always"
       xlink:href="#linearGradient3737"
       id="linearGradient4767"
       gradientUnits="userSpaceOnUse"
       x1="2.7713892"
       y1="-28.64156"
       x2="50.527882"
       y2="14.514202" />
    <clipPath
       id="clipPath4156-4-1"
       clipPathUnits="userSpaceOnUse">
      <path
         inkscape:connector-curvature="0"
         id="path4158-0-8"
         d="m 27.046336,-55.695463 -14.21366,13.321486 h 0.06127 l 15.653407,21.770763 10.231384,-10.546177 C 38.561832,-32.30156 27.468089,-54.819245 27.046336,-55.695463 Z M 9.6468554,-39.382809 -5.2407289,-25.32124 15.987863,-7.8059573 26.372412,-18.382966 Z m 31.4906096,12.951445 -9.741259,9.713584 8.944804,12.4580526 7.780753,-7.5550056 z m -49.8397109,4.378822 -13.7541661,12.9822847 26.2830181,13.84571 0.06127,-0.0617 -0.122531,-0.0617 L 13.598503,-5.4007374 -8.7022409,-22.052595 Z m 38.0154159,7.400825 -9.802525,9.7752596 11.579232,9.5594001 7.62759,-7.40083 -8.669108,-11.0087257 z m 20.187073,5.6739697 -7.382526,7.2158 6.187844,8.54179 5.820249,-6.13651996 z m -32.195166,6.32154 -9.5574606,9.49772 13.6622686,7.1849703 7.933918,-7.6783603 z m 23.311629,2.37443004 -7.10683,6.93826996 8.362778,6.9074403 5.360756,-5.6739699 -0.06127,-0.0925 -0.0919,0.12335 -6.463539,-8.20258036 z m -8.730374,8.54178036 -7.505057,7.3391599 10.353916,5.45811 c 1.397496,-1.32103 5.67514,-6.12292 5.850882,-6.32154 z"
         style="opacity:0.6;fill:#ffffff;fill-opacity:1;stroke:none" />
    </clipPath>
  </defs>
  <sodipodi:namedview
     id="base"
     pagecolor="#ffffff"
     bordercolor="#666666"
     borderopacity="1.0"
     inkscape:pageopacity="0.0"
     inkscape:pageshadow="2"
     inkscape:zoom="2.636919"
     inkscape:cx="48"
     inkscape:cy="48"
     inkscape:document-units="px"
     inkscape:current-layer="g2574"
     showgrid="false"
     inkscape:showpageshadow="false"
     units="px"
     inkscape:lockguides="true"
     inkscape:window-width="1280"
     inkscape:window-height="948"
     inkscape:window-x="0"
     inkscape:window-y="17"
     inkscape:window-maximized="1">
    <sodipodi:guide
       position="0,0"
       orientation="0,96"
       id="guide1621"
       inkscape:locked="true" />
    <sodipodi:guide
       position="96.000002,0"
       orientation="-96,0"
       id="guide1623"
       inkscape:locked="true" />
    <sodipodi:guide
       position="96.000002,96.000002"
       orientation="0,-96"
       id="guide1625"
       inkscape:locked="true" />
    <sodipodi:guide
       position="0,96.000002"
       orientation="96,0"
       id="guide1627"
       inkscape:locked="true" />
  </sodipodi:namedview>
  <metadata
     id="metadata1069">
    <rdf:RDF>
      <cc:Work
         rdf:about="">
        <dc:format>image/svg+xml</dc:format>
        <dc:type
           rdf:resource="http://purl.org/dc/dcmitype/StillImage" />
        <dc:title />
        <dc:date>2017</dc:date>
        <dc:creator>
          <cc:Agent>
            <dc:title>Cristian Pozzessere &quot;ilnanny&quot;</dc:title>
          </cc:Agent>
        </dc:creator>
        <dc:subject>
          <rdf:Bag>
            <rdf:li>Global language</rdf:li>
          </rdf:Bag>
        </dc:subject>
        <dc:description>Playing with Inkscape on Gnu/Linux O. S.</dc:description>
        <dc:contributor>
          <cc:Agent>
            <dc:title>In the night, alone like a dog.</dc:title>
          </cc:Agent>
        </dc:contributor>
        <cc:license
           rdf:resource="http://creativecommons.org/licenses/by-sa/4.0/" />
      </cc:Work>
      <cc:License
         rdf:about="http://creativecommons.org/licenses/by-sa/4.0/">
        <cc:permits
           rdf:resource="http://creativecommons.org/ns#Reproduction" />
        <cc:permits
           rdf:resource="http://creativecommons.org/ns#Distribution" />
        <cc:requires
           rdf:resource="http://creativecommons.org/ns#Notice" />
        <cc:requires
           rdf:resource="http://creativecommons.org/ns#Attribution" />
        <cc:permits
           rdf:resource="http://creativecommons.org/ns#DerivativeWorks" />
        <cc:requires
           rdf:resource="http://creativecommons.org/ns#ShareAlike" />
      </cc:License>
    </rdf:RDF>
  </metadata>
  <g
     inkscape:label="Livello 1"
     inkscape:groupmode="layer"
     id="layer1"
     transform="translate(0,-1026.5197)">
    <g
       id="layer1-9"
       inkscape:label="Livello 1"
       transform="translate(0,-2.6e-5)">
      <g
         id="g2574"
         style="display:inline"
         transform="translate(-0.14895645,1026.1047)">
        <path
           style="display:inline;opacity:0.15;fill:#000000;fill-opacity:1;fill-rule:nonzero;stroke:none"
           d="M 89.29181,0.415026 H 7.0060911 c -3.798848,0 -6.8571352,3.058285 -6.8571352,6.8571399 V 89.557884 c 0,3.798857 3.0582872,6.857142 6.8571352,6.857142 H 89.29181 c 3.798857,0 6.857147,-3.058285 6.857147,-6.857142 V 7.2721659 c 0,-3.7988549 -3.05829,-6.8571399 -6.857147,-6.8571399 z"
           id="path3288"
           inkscape:connector-curvature="0" />
        <path
           inkscape:connector-curvature="0"
           id="path4085"
           d="M 88.648954,1.165026 H 7.6489471 c -3.739492,0 -6.749993,3.010499 -6.749993,6.7499969 V 88.915026 c 0,3.739501 3.010501,6.75 6.749993,6.75 H 88.648954 c 3.739503,0 6.750003,-3.010499 6.750003,-6.75 V 7.9150229 c 0,-3.7394979 -3.0105,-6.7499969 -6.750003,-6.7499969 z"
           style="display:inline;opacity:0.15;fill:#000000;fill-opacity:1;fill-rule:nonzero;stroke:none" />
        <path
           style="display:inline;fill:url(#linearGradient4071);fill-opacity:1;fill-rule:nonzero;stroke:none"
           d="M 88.006093,1.915026 H 8.2918111 c -3.680143,0 -6.6428566,2.962713 -6.6428566,6.6428549 V 88.272171 c 0,3.680142 2.9627136,6.642856 6.6428566,6.642856 H 88.006093 c 3.680143,0 6.642854,-2.962714 6.642854,-6.642856 V 8.5578809 c 0,-3.6801419 -2.962711,-6.6428549 -6.642854,-6.6428549 z"
           id="rect4251-1"
           inkscape:connector-curvature="0" />
        <path
           style="display:inline;opacity:0.77864583;fill:#f3f4f5;fill-opacity:1;fill-rule:nonzero;stroke:none;stroke-width:1.02950251"
           d="m 11.390247,6.8021682 c -2.8564964,0 -5.1241284,2.2883782 -5.1241284,5.1710028 v 21.42734 7.239403 39.913674 c 1.0972399,1.684484 2.9688485,2.811732 5.1241284,2.811732 h 4.099303 65.588849 4.099302 c 2.155281,0 4.026889,-1.127248 5.124129,-2.811732 V 40.639914 33.400511 11.973171 c 0,-2.8826246 -2.267632,-5.1710028 -5.124129,-5.1710028 z"
           id="path3400-6"
           inkscape:connector-curvature="0"
           sodipodi:nodetypes="sscccsccscccsss" />
        <path
           inkscape:connector-curvature="0"
           id="path4989"
           d="m 9.9740341,5.1444869 c -3.116621,0 -5.667965,2.53951 -5.667965,5.6460041 v 69.277996 c 0,3.106495 2.551344,5.646004 5.667965,5.646004 H 86.765819 c 3.116621,0 5.667968,-2.539509 5.667968,-5.646004 V 10.790491 c 0,-3.1064931 -2.551347,-5.6460041 -5.667968,-5.6460041 z m 0,2.319439 H 86.765819 c 1.888099,0 3.352022,1.480095 3.352022,3.3265651 v 69.277996 c 0,1.846474 -1.463923,3.326564 -3.352022,3.326564 H 9.9740341 c -1.888099,0 -3.352022,-1.48009 -3.352022,-3.326564 V 10.790491 c 0,-1.8464701 1.463923,-3.3265651 3.352022,-3.3265651 z"
           style="color:#000000;font-style:normal;font-variant:normal;font-weight:normal;font-stretch:normal;font-size:medium;line-height:normal;font-family:Sans;-inkscape-font-specification:Sans;text-indent:0;text-align:start;text-decoration:none;text-decoration-line:none;letter-spacing:normal;word-spacing:normal;text-transform:none;writing-mode:lr-tb;direction:ltr;baseline-shift:baseline;text-anchor:start;display:inline;overflow:visible;visibility:visible;fill:#241f1f;fill-opacity:0.63265303;stroke:none;stroke-width:2.3755002;marker:none;enable-background:accumulate" />
        <path
           inkscape:connector-curvature="0"
           style="display:inline;opacity:0.65818182;fill:url(#linearGradient4129);fill-opacity:1;fill-rule:nonzero;stroke:none"
           d="m 1.6489535,82.258776 v 6 c 0,3.680142 2.9761066,6.65625 6.6562496,6.65625 H 87.992703 c 3.680143,0 6.656254,-2.976108 6.656254,-6.65625 v -6 c 0,3.680142 -2.976111,6.65625 -6.656254,6.65625 H 8.3052031 c -3.680143,0 -6.6562496,-2.976108 -6.6562496,-6.65625 z"
           id="path4118" />
        <rect
           style="opacity:0.55;fill:url(#radialGradient7462);fill-opacity:1;stroke:none"
           id="rect4131"
           width="84.250008"
           height="4.25"
           x="5.5239539"
           y="80.665031"
           rx="0"
           ry="4.25" />
        <rect
           ry="4.25"
           rx="0"
           y="-90.233963"
           x="5.9750223"
           height="4.25"
           width="76.75"
           id="rect4141"
           style="opacity:0.669;fill:url(#radialGradient7464);fill-opacity:1;stroke:none"
           transform="rotate(90)" />
        <path
           d="m 52.487445,16.908833 c -15.422342,-4e-6 -28.036019,11.542957 -30.056704,26.421758 h -6.800866 c -2.21e-4,2e-6 -0.156123,-1.8e-5 -0.156342,0 -2.19e-4,1.7e-5 -0.156124,0.03905 -0.156342,0.03909 -2.18e-4,3.1e-5 -0.156127,-4.6e-5 -0.156342,0 -2.15e-4,4.6e-5 -0.15613,0.03902 -0.156342,0.03909 -2.11e-4,6e-5 -0.156134,0.03901 -0.156341,0.03909 -2.08e-4,7.5e-5 -0.156141,0.07808 -0.156342,0.07817 -2.01e-4,8.9e-5 -0.156147,0.07807 -0.156342,0.07817 -1.95e-4,1.01e-4 -0.117069,0.07806 -0.117256,0.07817 -1.88e-4,1.13e-4 -0.117081,0.07804 -0.117256,0.07817 -1.81e-4,1.26e-4 -0.156171,0.07803 -0.156342,0.07817 -1.72e-4,1.39e-4 -0.117094,0.117107 -0.117257,0.117257 -1.61e-4,1.5e-4 -0.117106,0.117093 -0.117256,0.117256 -1.51e-4,1.6e-4 -0.07803,0.117081 -0.07817,0.117256 -1.4e-4,1.7e-4 -0.117131,0.117082 -0.117256,0.117257 -1.29e-4,1.79e-4 -0.07806,0.117068 -0.07817,0.117256 -1.16e-4,1.86e-4 -0.07807,0.156148 -0.07817,0.156342 -1.04e-4,1.94e-4 -0.07808,0.15614 -0.07817,0.156342 -9e-5,2.01e-4 -0.03901,0.117043 -0.03908,0.117256 -7.6e-5,2.06e-4 -0.07811,0.15613 -0.07817,0.156342 -6.3e-5,2.11e-4 -0.03904,0.156126 -0.03909,0.156341 -4.9e-5,2.16e-4 3.3e-5,0.156125 0,0.156342 -3.4e-5,2.18e-4 -0.03906,0.156123 -0.03909,0.156342 -1.9e-5,2.19e-4 5e-6,0.156122 0,0.156342 -5e-6,2.2e-4 -10e-6,0.156121 0,0.156341 10e-6,2.21e-4 -2.5e-5,0.156123 0,0.156342 2.5e-5,2.19e-4 0.03905,0.156126 0.03909,0.156342 4e-5,2.16e-4 0.03904,0.156128 0.03909,0.156342 5.4e-5,2.14e-4 0.03902,0.156133 0.03909,0.156342 6.8e-5,2.08e-4 0.039,0.156137 0.03909,0.156341 8.2e-5,2.04e-4 0.07807,0.156143 0.07817,0.156342 9.5e-5,1.99e-4 0.07806,0.117069 0.07817,0.117256 1.08e-4,1.92e-4 0.07805,0.156158 0.07817,0.156342 l 14.070759,21.067053 c 1.13e-4,1.63e-4 0.07805,0.117093 0.07817,0.117256 1.23e-4,1.58e-4 0.117119,0.117106 0.117256,0.117256 1.32e-4,1.49e-4 0.07803,0.07803 0.07817,0.07817 1.4e-4,1.41e-4 0.117106,0.117119 0.117257,0.117256 1.48e-4,1.33e-4 0.117093,0.07805 0.117256,0.07817 1.56e-4,1.23e-4 0.117094,0.07806 0.117256,0.07817 1.64e-4,1.14e-4 0.117081,0.07807 0.117256,0.07817 1.71e-4,1.04e-4 0.117082,0.07808 0.117257,0.07817 1.76e-4,9.3e-5 0.117081,0.07808 0.117256,0.07817 1.81e-4,8.2e-5 0.156156,0.03901 0.156342,0.03909 1.86e-4,7.2e-5 0.117069,0.03902 0.117256,0.03909 1.9e-4,5.9e-5 0.156148,0.03903 0.156342,0.03909 1.94e-4,4.8e-5 0.117056,0.03905 0.117256,0.03909 1.97e-4,3.6e-5 0.156144,0.03906 0.156342,0.03909 1.98e-4,2.4e-5 0.117056,-1.2e-5 0.117256,0 1.99e-4,1.3e-5 0.156143,0 0.156342,0 1.99e-4,0 0.156143,1.3e-5 0.156342,0 1.99e-4,-1.2e-5 0.117056,2.4e-5 0.117256,0 1.98e-4,-2.4e-5 0.156146,-0.03905 0.156342,-0.03909 1.96e-4,-3.7e-5 0.117069,-0.03904 0.117256,-0.03909 1.94e-4,-4.7e-5 0.156152,-0.03902 0.156342,-0.03909 1.9e-4,-5.9e-5 0.117069,-0.03901 0.117256,-0.03909 1.87e-4,-7.1e-5 0.156161,-0.039 0.156342,-0.03909 1.81e-4,-8.3e-5 0.117081,-0.07808 0.117256,-0.07817 1.77e-4,-9.3e-5 0.117082,-0.07807 0.117257,-0.07817 1.7e-4,-1.04e-4 0.117094,-0.07806 0.117256,-0.07817 1.64e-4,-1.14e-4 0.117106,-0.07805 0.117256,-0.07817 1.57e-4,-1.22e-4 0.117107,-0.07803 0.117257,-0.07817 1.49e-4,-1.32e-4 0.117118,-0.117118 0.117256,-0.117256 1.4e-4,-1.41e-4 0.07805,-0.07802 0.07817,-0.07817 1.31e-4,-1.49e-4 0.117131,-0.117093 0.117256,-0.117256 1.23e-4,-1.58e-4 0.07806,-0.117094 0.07817,-0.117256 L 45.764749,47.004622 c 1.22e-4,-1.84e-4 0.07806,-0.15615 0.07817,-0.156342 1.09e-4,-1.91e-4 0.07807,-0.117056 0.07817,-0.117256 9.5e-5,-1.99e-4 0.07808,-0.156138 0.07817,-0.156342 8.2e-5,-2.04e-4 0.03902,-0.156133 0.03909,-0.156341 6.8e-5,-2.09e-4 0.03904,-0.156128 0.03909,-0.156342 5.4e-5,-2.14e-4 0.03905,-0.156126 0.03909,-0.156342 4e-5,-2.16e-4 0.03906,-0.156123 0.03909,-0.156342 2.5e-5,-2.19e-4 -1e-5,-0.156121 0,-0.156342 10e-6,-2.2e-4 5e-6,-0.156121 0,-0.156341 -5e-6,-2.2e-4 1.8e-5,-0.156123 0,-0.156342 -1.9e-5,-2.19e-4 -0.03905,-0.156124 -0.03909,-0.156342 -3.4e-5,-2.17e-4 4.9e-5,-0.156126 0,-0.156342 -4.9e-5,-2.15e-4 -0.03902,-0.15613 -0.03909,-0.156341 -6.3e-5,-2.12e-4 -0.0781,-0.156136 -0.07817,-0.156342 -7.6e-5,-2.06e-4 -0.039,-0.117056 -0.03909,-0.117256 -9e-5,-2.02e-4 -0.07807,-0.156148 -0.07817,-0.156342 -1.04e-4,-1.94e-4 -0.07806,-0.156156 -0.07817,-0.156342 -1.17e-4,-1.86e-4 -0.07805,-0.117081 -0.07817,-0.117256 -1.29e-4,-1.79e-4 -0.117119,-0.117082 -0.117257,-0.117257 -1.4e-4,-1.7e-4 -0.07802,-0.117093 -0.07817,-0.117256 -1.52e-4,-1.6e-4 -0.117094,-0.117106 -0.117257,-0.117256 -1.61e-4,-1.5e-4 -0.117081,-0.117119 -0.117256,-0.117257 -1.71e-4,-1.38e-4 -0.156162,-0.07805 -0.156342,-0.07817 -1.8e-4,-1.27e-4 -0.117069,-0.07806 -0.117256,-0.07817 -1.88e-4,-1.14e-4 -0.117056,-0.07807 -0.117256,-0.07817 -1.96e-4,-1.02e-4 -0.156141,-0.07808 -0.156342,-0.07817 -2.02e-4,-8.9e-5 -0.156134,-0.0781 -0.156342,-0.07817 -2.08e-4,-7.5e-5 -0.15613,-0.03902 -0.156342,-0.03909 -2.11e-4,-6e-5 -0.156126,-0.03904 -0.156342,-0.03909 -2.15e-4,-4.6e-5 -0.156124,3.1e-5 -0.156341,0 -2.18e-4,-3.1e-5 -0.156123,-0.03907 -0.156342,-0.03909 -2.19e-4,-1.8e-5 -0.156122,2e-6 -0.156342,0 h -6.918123 c 1.823445,-7.049796 7.941818,-12.311914 15.595091,-12.311914 9.093235,4e-6 16.415885,7.322648 16.415885,16.415885 0,9.093468 -7.316333,16.3768 -16.415885,16.3768 -3.19e-4,3e-6 -0.234196,-3.4e-5 -0.234513,0 -3.16e-4,3.3e-5 -0.234201,0.03902 -0.234512,0.03909 -3.12e-4,6.5e-5 -0.234209,0.07807 -0.234513,0.07817 -3.04e-4,9.5e-5 -0.195133,0.07805 -0.195427,0.07817 -2.94e-4,1.24e-4 -0.195147,0.07802 -0.195427,0.07817 -2.8e-4,1.51e-4 -0.195164,0.117081 -0.195428,0.117256 -2.63e-4,1.78e-4 -0.19518,0.156139 -0.195427,0.156342 -2.46e-4,2.02e-4 -0.156116,0.156116 -0.156341,0.156342 -2.26e-4,2.25e-4 -0.15614,0.156095 -0.156342,0.156341 -2.03e-4,2.47e-4 -0.156164,0.195164 -0.156342,0.195427 -1.78e-4,2.64e-4 -0.117106,0.195148 -0.117256,0.195428 -1.52e-4,2.8e-4 -0.07805,0.195133 -0.07817,0.195427 -1.24e-4,2.94e-4 -0.07807,0.195123 -0.07817,0.195427 -9.5e-5,3.04e-4 -0.07811,0.234201 -0.07817,0.234513 -6.5e-5,3.11e-4 -0.03905,0.234196 -0.03909,0.234512 -3.4e-5,3.17e-4 3e-6,0.234194 0,0.234513 v 9.419591 c 3e-6,3.19e-4 -3.4e-5,0.234196 0,0.234513 3.3e-5,3.16e-4 0.03902,0.234201 0.03909,0.234513 6.5e-5,3.11e-4 0.07807,0.234208 0.07817,0.234512 9.5e-5,3.04e-4 0.07805,0.195133 0.07817,0.195427 1.24e-4,2.94e-4 0.07802,0.195147 0.07817,0.195428 1.51e-4,2.8e-4 0.117081,0.195163 0.117256,0.195427 1.78e-4,2.64e-4 0.156139,0.195181 0.156342,0.195427 2.02e-4,2.46e-4 0.156116,0.156117 0.156342,0.156342 2.25e-4,2.25e-4 0.156095,0.156139 0.156341,0.156341 2.47e-4,2.03e-4 0.195164,0.156165 0.195427,0.156342 2.64e-4,1.78e-4 0.195148,0.117106 0.195428,0.117257 2.8e-4,1.51e-4 0.195133,0.07804 0.195427,0.07817 2.94e-4,1.24e-4 0.195123,0.07807 0.195427,0.07817 3.04e-4,9.5e-5 0.234201,0.07811 0.234513,0.07817 3.11e-4,6.5e-5 0.234196,0.03905 0.234512,0.03909 3.17e-4,3.3e-5 0.234194,-4e-6 0.234513,0 16.824414,0 30.525729,-13.658339 30.525729,-30.486644 4e-6,-16.828213 -13.697517,-30.525729 -30.525729,-30.525729 z"
           id="path3894"
           style="display:inline;opacity:0.1;fill:#000000;fill-opacity:1;stroke:none;stroke-width:1.25073409"
           inkscape:connector-curvature="0" />
        <path
           d="m 52.487445,18.081396 c -15.195771,-4e-6 -27.599976,11.608911 -29.079568,26.421758 h -7.778002 a 1.185176,1.185176 0 0 0 -0.977137,1.837016 l 14.070759,21.067052 a 1.185176,1.185176 0 0 0 1.954272,0 L 44.787613,46.34017 a 1.185176,1.185176 0 0 0 -0.977136,-1.837016 h -8.559711 c 1.381359,-8.323394 8.501558,-14.65704 17.236679,-14.65704 9.726564,3e-6 17.588448,7.861882 17.588448,17.588448 0,9.726559 -7.858907,17.549363 -17.588448,17.549363 a 1.185176,1.185176 0 0 0 -1.172563,1.172563 v 9.419591 a 1.185176,1.185176 0 0 0 1.172563,1.172563 c 16.189285,0 29.353166,-13.122814 29.353166,-29.31408 4e-6,-16.191271 -13.161897,-29.353166 -29.353166,-29.353166 z"
           id="path3890"
           style="display:inline;opacity:0.15;fill:#000000;fill-opacity:1;stroke:none;stroke-width:1.25073409"
           inkscape:connector-curvature="0" />
        <path
           d="m 15.629875,45.664203 14.0847,21.097191 14.084699,-21.097191 h -9.94214 c 0.866083,-9.557645 8.85506,-16.984495 18.641515,-16.984495 10.366337,3e-6 18.745078,8.378741 18.745078,18.745082 0,10.366333 -8.378741,18.745078 -18.745078,18.745078 v 9.42432 c 15.54951,0 28.169399,-12.619892 28.169399,-28.169398 3e-6,-15.54951 -12.619889,-28.169402 -28.169399,-28.169402 -14.958974,-4e-6 -27.157139,11.677351 -28.065836,26.408815 z"
           inkscape:connector-curvature="0"
           id="path3884"
           style="display:inline;opacity:0.3;fill:#000000;fill-opacity:1;stroke:none;stroke-width:1.25073409" />
        <path
           d="m 15.629875,44.413469 14.0847,21.097191 14.084699,-21.097191 h -9.94214 c 0.866083,-9.557645 8.85506,-16.984495 18.641515,-16.984495 10.366337,3e-6 18.745078,8.378741 18.745078,18.745082 0,10.366333 -8.378741,18.745078 -18.745078,18.745078 v 9.42432 c 15.54951,0 28.169399,-12.619892 28.169399,-28.169398 3e-6,-15.549511 -12.619889,-28.169403 -28.169399,-28.169403 -14.958974,-3e-6 -27.157139,11.677352 -28.065836,26.408816 z"
           inkscape:connector-curvature="0"
           id="Symbol"
           style="display:inline;fill:#323232;fill-opacity:1;stroke:none;stroke-width:1.25073409" />
        <path
           d="m 52.487445,18.003225 c -14.958974,-4e-6 -27.154649,11.690294 -28.063346,26.421758 h -8.794224 l 0.820794,1.250734 h 7.97343 c 0.908697,-14.731464 13.104372,-26.421762 28.063346,-26.421758 15.339535,0 27.846123,12.295497 28.180603,27.555236 0.0046,-0.208883 0,-0.415393 0,-0.625367 3e-6,-15.549511 -12.631093,-28.180603 -28.180603,-28.180603 z M 34.039117,44.424983 c -0.06618,0.415944 -0.156931,0.825905 -0.195427,1.250734 h 9.145993 l 0.820794,-1.250734 z m 37.170254,2.384212 C 70.876943,56.881869 62.642208,64.905754 52.487445,64.905754 v 1.250734 c 10.366337,0 18.761012,-8.355593 18.761012,-18.721926 0,-0.211574 -0.03216,-0.415503 -0.03909,-0.625367 z"
           inkscape:connector-curvature="0"
           id="path3866"
           style="display:inline;opacity:0.75;fill:#ffffff;fill-opacity:1;stroke:none;stroke-width:1.25073409" />
        <path
           d="m 52.487445,26.172082 c -9.786455,0 -17.777672,7.444522 -18.643755,17.002167 h 0.195427 c 1.4226,-8.941813 9.096872,-15.751433 18.448328,-15.751433 10.154763,4e-6 18.389498,8.062964 18.721926,18.135645 0.0069,-0.209865 0.03909,-0.413793 0.03909,-0.625367 0,-10.366341 -8.394675,-18.761008 -18.761012,-18.761012 z M 15.629875,44.424983 29.700633,65.492035 43.810477,44.424983 H 42.989683 L 29.700633,64.241301 16.450669,44.424983 Z m 65.038173,1.133478 C 80.333564,60.818196 67.82698,73.074611 52.487445,73.074611 v 1.250734 c 15.54951,0 28.180603,-12.592011 28.180603,-28.141517 0,-0.209976 0.0046,-0.416485 0,-0.625367 z"
           inkscape:connector-curvature="0"
           id="path3875"
           style="display:inline;opacity:0.15;fill:#000000;fill-opacity:1;stroke:none;stroke-width:1.25073409" />
        <rect
           transform="matrix(1.0692451,0,0,1.0476829,4.4441802,38.894013)"
           style="opacity:0.95800003;fill:url(#linearGradient4767);fill-opacity:1;stroke:none"
           id="rect4146"
           width="75.965775"
           height="69.024437"
           x="2"
           y="-30"
           rx="3.9569874"
           ry="3.9569881"
           clip-path="url(#clipPath4156-4-1)" />
      </g>
    </g>
  </g>
</svg>
