<?xml version="1.0" encoding="UTF-8" standalone="no"?>
<!-- Created with Inkscape (http://www.inkscape.org/) -->

<svg
   xmlns:dc="http://purl.org/dc/elements/1.1/"
   xmlns:cc="http://creativecommons.org/ns#"
   xmlns:rdf="http://www.w3.org/1999/02/22-rdf-syntax-ns#"
   xmlns:svg="http://www.w3.org/2000/svg"
   xmlns="http://www.w3.org/2000/svg"
   xmlns:xlink="http://www.w3.org/1999/xlink"
   xmlns:sodipodi="http://sodipodi.sourceforge.net/DTD/sodipodi-0.dtd"
   xmlns:inkscape="http://www.inkscape.org/namespaces/inkscape"
   width="96"
   height="96"
   id="svg2"
   version="1.1"
   inkscape:version="0.48.5 r10040"
   sodipodi:docname="soldi.svg">
  <script
     xlink:href=""
     id="script2985" />
  <defs
     id="defs4">
    <linearGradient
       id="linearGradient13990">
      <stop
         style="stop-color:#003366;stop-opacity:1;"
         offset="0"
         id="stop13992" />
      <stop
         style="stop-color:#003366;stop-opacity:0;"
         offset="1"
         id="stop13994" />
    </linearGradient>
    <linearGradient
       inkscape:collect="always"
       xlink:href="#linearGradient6139-0"
       id="linearGradient4098"
       gradientUnits="userSpaceOnUse"
       gradientTransform="matrix(1.1353753,0,0,1.1336634,-40.037124,-46.787637)"
       x1="6"
       y1="47.000011"
       x2="90"
       y2="47.000011" />
    <linearGradient
       id="linearGradient6139-0">
      <stop
         id="stop6141-2"
         offset="0"
         style="stop-color:#b7b7b7;stop-opacity:1;" />
      <stop
         style="stop-color:#ffffff;stop-opacity:1;"
         offset="0.25"
         id="stop6151-0" />
      <stop
         style="stop-color:#9d9d9d;stop-opacity:1;"
         offset="0.5"
         id="stop6147-1" />
      <stop
         id="stop6149-4"
         offset="0.75"
         style="stop-color:#fafafa;stop-opacity:1;" />
      <stop
         id="stop6143-4"
         offset="1"
         style="stop-color:#b7b7b7;stop-opacity:1;" />
    </linearGradient>
    <radialGradient
       inkscape:collect="always"
       xlink:href="#linearGradient4091-0-3-0-7"
       id="radialGradient4102"
       gradientUnits="userSpaceOnUse"
       gradientTransform="matrix(-1.0721726,0,0,-0.87502024,199.46429,-19.125546)"
       cx="48"
       cy="-27"
       fx="48"
       fy="-27"
       r="42" />
    <linearGradient
       id="linearGradient4091-0-3-0-7">
      <stop
         style="stop-color:#ffffff;stop-opacity:1;"
         offset="0"
         id="stop4093-3-6-4-2" />
      <stop
         id="stop4099-6-1-8-3"
         offset="0.80000001"
         style="stop-color:#ffffff;stop-opacity:1;" />
      <stop
         style="stop-color:#ffffff;stop-opacity:0;"
         offset="1"
         id="stop4095-1-0-7-9" />
    </linearGradient>
    <linearGradient
       inkscape:collect="always"
       xlink:href="#linearGradient3832-0-6-1-1"
       id="linearGradient4104"
       gradientUnits="userSpaceOnUse"
       gradientTransform="matrix(1,0,0,0.73089097,200,23.096697)"
       x1="-94"
       y1="82.984398"
       x2="-10.187523"
       y2="82.984398" />
    <linearGradient
       id="linearGradient3832-0-6-1-1">
      <stop
         style="stop-color:#000000;stop-opacity:1;"
         offset="0"
         id="stop3834-6-3-7-1" />
      <stop
         id="stop3872-2-4"
         offset="0.1"
         style="stop-color:#000000;stop-opacity:0.58823532;" />
      <stop
         style="stop-color:#000000;stop-opacity:0.58823532;"
         offset="0.89999998"
         id="stop3844-6-2-7-6" />
      <stop
         style="stop-color:#000000;stop-opacity:1;"
         offset="1"
         id="stop3836-5-0-2-9" />
    </linearGradient>
    <filter
       id="filter3174-4"
       color-interpolation-filters="sRGB">
      <feGaussianBlur
         stdDeviation="1.71"
         id="feGaussianBlur3176-3" />
    </filter>
    <linearGradient
       gradientUnits="userSpaceOnUse"
       xlink:href="#linearGradient3873-7"
       id="linearGradient3879-8-8"
       y2="48"
       x2="80"
       y1="48"
       x1="16" />
    <linearGradient
       id="linearGradient3873-7">
      <stop
         offset="0"
         style="stop-color:#f0f0f0;stop-opacity:1"
         id="stop3875-0" />
      <stop
         offset="1"
         style="stop-color:#b4b4b4;stop-opacity:1"
         id="stop3877-20-4" />
    </linearGradient>
    <radialGradient
       gradientUnits="userSpaceOnUse"
       xlink:href="#linearGradient3674-5-0"
       id="radialGradient3682-9"
       fy="48"
       fx="48"
       r="32"
       cy="48"
       cx="48" />
    <linearGradient
       id="linearGradient3674-5-0">
      <stop
         offset="0"
         style="stop-color:#ffffff;stop-opacity:1"
         id="stop3676-0-2" />
      <stop
         offset="0.30000001"
         style="stop-color:#ffffff;stop-opacity:1"
         id="stop3684-9" />
      <stop
         offset="0.89999998"
         style="stop-color:#f0f0f0;stop-opacity:1"
         id="stop3925-8-3" />
      <stop
         offset="1"
         style="stop-color:#d2d2d2;stop-opacity:1"
         id="stop3678-8-8" />
    </linearGradient>
    <filter
       id="filter3944-7"
       color-interpolation-filters="sRGB">
      <feGaussianBlur
         stdDeviation="0.4359375"
         id="feGaussianBlur3946-6" />
    </filter>
    <radialGradient
       gradientUnits="userSpaceOnUse"
       xlink:href="#linearGradient3893-7"
       id="radialGradient3901-4"
       fy="46.058418"
       fx="48.000896"
       r="3"
       cy="46.058418"
       cx="48.000896" />
    <linearGradient
       id="linearGradient3893-7">
      <stop
         offset="0"
         style="stop-color:#ffffff;stop-opacity:1"
         id="stop3895-3" />
      <stop
         offset="1"
         style="stop-color:#a2a2a2;stop-opacity:1"
         id="stop3897-5" />
    </linearGradient>
    <linearGradient
       gradientTransform="matrix(0,1,-1,0,96,0)"
       gradientUnits="userSpaceOnUse"
       xlink:href="#linearGradient3899-9"
       id="linearGradient3905-4"
       y2="48"
       x2="83"
       y1="48"
       x1="13" />
    <linearGradient
       id="linearGradient3899-9">
      <stop
         offset="0"
         style="stop-color:#ffffff;stop-opacity:1"
         id="stop3901-8" />
      <stop
         offset="0.5"
         style="stop-color:#ffffff;stop-opacity:0.41221374"
         id="stop3981-6" />
      <stop
         offset="1"
         style="stop-color:#868686;stop-opacity:1"
         id="stop3903-5" />
    </linearGradient>
    <linearGradient
       gradientTransform="matrix(0,1,-1,0,96,0)"
       gradientUnits="userSpaceOnUse"
       xlink:href="#linearGradient3917-6-8"
       id="linearGradient3923-1-6"
       y2="48"
       x2="120"
       y1="48"
       x1="17" />
    <linearGradient
       id="linearGradient3917-6-8">
      <stop
         offset="0"
         style="stop-color:#000000;stop-opacity:1"
         id="stop3919-2" />
      <stop
         offset="1"
         style="stop-color:#000000;stop-opacity:0"
         id="stop3921-7" />
    </linearGradient>
    <linearGradient
       gradientUnits="userSpaceOnUse"
       xlink:href="#linearGradient3983-2"
       id="linearGradient3973-9"
       y2="60"
       x2="53"
       y1="60"
       x1="43" />
    <linearGradient
       id="linearGradient3983-2">
      <stop
         offset="0"
         style="stop-color:#ffffff;stop-opacity:1"
         id="stop3985-6" />
      <stop
         offset="1"
         style="stop-color:#868686;stop-opacity:1"
         id="stop3989-2" />
    </linearGradient>
    <radialGradient
       gradientUnits="userSpaceOnUse"
       xlink:href="#linearGradient3674-5-0"
       id="radialGradient3979-6"
       fy="60"
       fx="48"
       r="5"
       cy="60"
       cx="48" />
    <linearGradient
       id="linearGradient13087">
      <stop
         offset="0"
         style="stop-color:#ffffff;stop-opacity:1"
         id="stop13089" />
      <stop
         offset="0.30000001"
         style="stop-color:#ffffff;stop-opacity:1"
         id="stop13091" />
      <stop
         offset="0.89999998"
         style="stop-color:#f0f0f0;stop-opacity:1"
         id="stop13093" />
      <stop
         offset="1"
         style="stop-color:#d2d2d2;stop-opacity:1"
         id="stop13095" />
    </linearGradient>
    <clipPath
       id="clipPath2973-9">
      <rect
         style="fill:url(#linearGradient2977);fill-opacity:1;fill-rule:nonzero;stroke:none"
         id="rect2975-6"
         y="6"
         x="6"
         ry="6"
         rx="6"
         height="84"
         width="84" />
    </clipPath>
    <linearGradient
       inkscape:collect="always"
       xlink:href="#linearGradient12946"
       id="linearGradient12954"
       x1="9.0784369"
       y1="3.0126896"
       x2="56.280174"
       y2="-34.779079"
       gradientUnits="userSpaceOnUse" />
    <linearGradient
       inkscape:collect="always"
       id="linearGradient12946">
      <stop
         style="stop-color:#ffffff;stop-opacity:1;"
         offset="0"
         id="stop12948" />
      <stop
         style="stop-color:#ffffff;stop-opacity:0;"
         offset="1"
         id="stop12950" />
    </linearGradient>
    <linearGradient
       y2="-34.779079"
       x2="56.280174"
       y1="3.0126896"
       x1="9.0784369"
       gradientUnits="userSpaceOnUse"
       id="linearGradient13171"
       xlink:href="#linearGradient12946"
       inkscape:collect="always" />
    <linearGradient
       inkscape:collect="always"
       xlink:href="#linearGradient3833"
       id="linearGradient13996"
       x1="110.0558"
       y1="43.984097"
       x2="186.4998"
       y2="43.984097"
       gradientUnits="userSpaceOnUse" />
    <linearGradient
       gradientTransform="scale(1.0058652,0.994169)"
       gradientUnits="userSpaceOnUse"
       id="ButtonShadow-6"
       y2="7.0165396"
       x2="45.447727"
       y1="92.539597"
       x1="45.447727">
      <stop
         offset="0"
         style="stop-color:#000000;stop-opacity:1"
         id="stop3750-96" />
      <stop
         offset="1"
         style="stop-color:#000000;stop-opacity:0.58823532"
         id="stop3752-31" />
    </linearGradient>
    <filter
       id="filter3174-43"
       color-interpolation-filters="sRGB">
      <feGaussianBlur
         stdDeviation="1.71"
         id="feGaussianBlur3176-8" />
    </filter>
    <linearGradient
       gradientTransform="matrix(0.74079567,0,0,0.74079567,-44.275459,-471.72857)"
       gradientUnits="userSpaceOnUse"
       xlink:href="#linearGradient4560"
       id="linearGradient3286"
       y2="675.35034"
       x2="141"
       y1="723.34747"
       x1="141.70711" />
    <linearGradient
       id="linearGradient4560">
      <stop
         offset="0"
         style="stop-color:#444444;stop-opacity:1"
         id="stop4562" />
      <stop
         offset="1"
         style="stop-color:#888888;stop-opacity:1"
         id="stop4564" />
    </linearGradient>
    <linearGradient
       gradientTransform="matrix(0.7266958,0,0,0.72620414,-42.885771,-460.97774)"
       gradientUnits="userSpaceOnUse"
       xlink:href="#linearGradient3833"
       id="linearGradient3282"
       y2="678.83179"
       x2="120.5"
       y1="706.87787"
       x1="120.5" />
    <linearGradient
       id="linearGradient3833">
      <stop
         offset="0"
         style="stop-color:#8fd400;stop-opacity:1"
         id="stop3835" />
      <stop
         offset="1"
         style="stop-color:#daff31;stop-opacity:1"
         id="stop3837" />
    </linearGradient>
  </defs>
  <sodipodi:namedview
     id="base"
     pagecolor="#ffffff"
     bordercolor="#666666"
     borderopacity="1.0"
     inkscape:pageopacity="0.0"
     inkscape:pageshadow="2"
     inkscape:zoom="2.9347153"
     inkscape:cx="63.624586"
     inkscape:cy="118.15413"
     inkscape:current-layer="g3272"
     showgrid="true"
     inkscape:document-units="px"
     inkscape:grid-bbox="true"
     inkscape:showpageshadow="false"
     gridtolerance="1"
     guidetolerance="1"
     objecttolerance="1"
     inkscape:window-width="1280"
     inkscape:window-height="964"
     inkscape:window-x="0"
     inkscape:window-y="0"
     inkscape:window-maximized="1" />
  <metadata
     id="metadata7">
    <rdf:RDF>
      <cc:Work
         rdf:about="">
        <dc:format>image/svg+xml</dc:format>
        <dc:type
           rdf:resource="http://purl.org/dc/dcmitype/StillImage" />
        <dc:title></dc:title>
      </cc:Work>
    </rdf:RDF>
  </metadata>
  <g
     id="layer1"
     inkscape:label="Layer 1"
     inkscape:groupmode="layer"
     transform="translate(0,32)">
    <g
       transform="matrix(0.97513378,0,0,0.97660611,33.898696,9.6573789)"
       id="g12958">
      <path
         inkscape:connector-curvature="0"
         id="path3315"
         d="m 55.462537,-41.268579 -82.003288,0 c -3.785818,0 -6.833607,3.043193 -6.833607,6.823301 l 0,81.879661 c 0,3.780111 3.047789,6.823304 6.833607,6.823304 l 82.003288,0 c 3.785818,0 6.833606,-3.043193 6.833606,-6.823304 l 0,-81.879661 c 0,-3.780108 -3.047788,-6.823301 -6.833606,-6.823301 z"
         style="opacity:0.15;fill:#000000;fill-opacity:1;fill-rule:nonzero;stroke:none;display:inline"
         transform="matrix(1.0290322,0,0,1.0290323,-0.41983185,-0.18855188)" />
      <path
         style="opacity:0.15;fill:#000000;fill-opacity:1;fill-rule:nonzero;stroke:none;display:inline"
         d="m 54.821891,-40.52228 -80.72199,0 c -3.72667,0 -6.726834,2.995643 -6.726834,6.716685 l 0,80.600295 c 0,3.721045 3.000164,6.716688 6.726834,6.716688 l 80.72199,0 c 3.72666,0 6.726826,-2.995643 6.726826,-6.716688 l 0,-80.600295 c 0,-3.721042 -3.000166,-6.716685 -6.726826,-6.716685 z"
         id="path4112"
         inkscape:connector-curvature="0"
         transform="matrix(1.0290322,0,0,1.0290323,-0.41983185,-0.18855188)" />
      <path
         inkscape:connector-curvature="0"
         id="rect4251-1"
         d="m 55.334401,-41.11932 -81.747021,0 c -3.773988,0 -6.812252,3.033683 -6.812252,6.80198 l 0,81.623788 c 0,3.768297 3.038264,6.80198 6.812252,6.80198 l 81.747021,0 c 3.773988,0 6.812252,-3.033683 6.812252,-6.80198 l 0,-81.623788 c 0,-3.768297 -3.038264,-6.80198 -6.812252,-6.80198 z"
         style="fill:url(#linearGradient4098);fill-opacity:1;fill-rule:nonzero;stroke:none;display:inline" />
      <g
         transform="matrix(1.1353753,0,0,1.1336634,-153.57465,-46.220805)"
         id="g3272">
        <path
           style="opacity:0.87972508000000005;fill:url(#linearGradient13996);fill-opacity:1.0;fill-rule:nonzero;stroke:none;display:inline"
           d="m 114.71702,8.436941 c -2.59845,0 -4.66122,2.124921 -4.66122,4.801641 l 0,19.896804 0,6.722299 0,37.062672 c 0.99812,1.564163 2.70064,2.610893 4.66122,2.610893 l 3.72897,0 59.66361,0 3.72898,0 c 1.96058,0 3.66311,-1.04673 4.66122,-2.610893 l 0,-37.062672 0,-6.722299 0,-19.896804 c 0,-2.67672 -2.06277,-4.801641 -4.66122,-4.801641 z"
           id="path3400-6"
           inkscape:connector-curvature="0"
           sodipodi:nodetypes="sscccsccscccsss" />
        <path
           style="opacity:0.45;fill:url(#radialGradient4102);fill-opacity:1;fill-rule:nonzero;stroke:none;display:inline"
           d="m 112,4.5 c -3.324,0 -6,2.6759996 -6,6 l 0,15 1,0 0,-15 c 0,-2.7872972 2.2127,-5 5,-5 l 72,0 c 2.7873,0 5,2.2127028 5,5 l 0,15 1,0 0,-15 c 0,-3.3240004 -2.676,-6 -6,-6 l -72,0 z"
           id="path4236-5"
           inkscape:connector-curvature="0" />
        <path
           inkscape:connector-curvature="0"
           id="path4242-5"
           d="m 106,78.998418 0,0.73089 0,0.730891 0,0.730892 0,1.461782 0,1.461781 C 106,86.544135 108.676,88.5 112,88.5 l 72,0 c 3.324,0 6,-1.955865 6,-4.385346 l 0,-1.461781 0,-1.461782 0,-0.730892 0,-0.730891 0,-0.73089 c 0,2.429481 -2.676,4.385345 -6,4.385345 l -72,0 c -3.324,0 -6,-1.955864 -6,-4.385345 z"
           style="opacity:0.46964859;fill:url(#linearGradient4104);fill-opacity:1;fill-rule:nonzero;stroke:none" />
        <g
           id="g4937"
           transform="matrix(0.90322585,0,0,0.90322601,90.199573,214.9349)">
          <g
             style="display:none"
             id="layer2-7">
            <rect
               style="opacity:0.9;fill:url(#ButtonShadow-6);fill-opacity:1;fill-rule:nonzero;stroke:none;filter:url(#filter3174-43)"
               id="rect3745-6"
               y="7"
               x="5"
               ry="6"
               rx="6"
               height="85"
               width="86" />
          </g>
          <g
             id="layer4-6"
             transform="translate(15.993324,-234.97883)">
            <path
               style="fill:url(#linearGradient3286);fill-opacity:1;stroke:none"
               id="path3610"
               inkscape:connector-curvature="0"
               d="M 10,55.188223 C 11.654145,57.341359 25.758496,67.367756 44.297073,67.367756 62.835651,67.367756 81.52915,58.788651 86,54.461192 83.22964,50.313639 67.289585,28.242676 44.417814,28.637476 19.831925,29.061834 10.352302,53.613285 10,55.188223 z" />
            <path
               style="opacity:0.05;fill:#000000;fill-opacity:1;stroke:none"
               id="path4159"
               inkscape:connector-curvature="0"
               d="M 44.40625,28.625 C 19.820361,29.049358 10.352302,53.612562 10,55.1875 11.654145,57.340636 25.773923,67.375 44.3125,67.375 62.851078,67.375 81.52915,58.796209 86,54.46875 83.22964,50.321197 67.278021,28.2302 44.40625,28.625 z m 0.0625,3 c 10.461395,-0.180579 19.485145,4.818097 26.34375,10.53125 5.395035,4.494013 8.806651,8.778912 10.875,11.59375 -2.505007,1.676679 -6.570482,3.947322 -12.25,5.96875 -7.287884,2.593871 -16.317056,4.65625 -25.125,4.65625 -8.729666,0 -16.501988,-2.362678 -22.25,-5 -2.874006,-1.318661 -5.231666,-2.694668 -6.9375,-3.84375 -0.967298,-0.651591 -1.075177,-0.797368 -1.5625,-1.21875 0.299379,-0.696671 0.631425,-1.494736 1.15625,-2.5 1.235989,-2.367447 3.098555,-5.394578 5.65625,-8.375 5.11539,-5.960844 12.789774,-11.617391 24.09375,-11.8125 z" />
            <path
               style="opacity:0.2;fill:#ffffff;fill-opacity:1;stroke:none"
               id="path4093"
               inkscape:connector-curvature="0"
               d="M 85.5625,54.84375 C 80.46391,59.270251 62.340818,67.375 44.3125,67.375 26.409862,67.375 12.663164,58.049317 10.25,55.46875 10.126705,55.805369 10.025488,56.07356 10,56.1875 11.654145,58.340636 25.773923,68.375 44.3125,68.375 62.851078,68.375 81.529146,59.796209 86,55.46875 c -0.09288,-0.139044 -0.315258,-0.44719 -0.4375,-0.625 z" />
            <path
               style="opacity:0.07999998;fill:#000000;fill-opacity:1;fill-rule:nonzero;stroke:none;stroke-width:1;marker:none;visibility:visible;display:inline;overflow:visible;enable-background:accumulate"
               id="path4080"
               inkscape:connector-curvature="0"
               d="m 44,31 c -1.290359,0.145423 -2.78906,-0.04181 -3.925209,0.686094 -1.156808,0.859072 -0.703171,2.423923 -0.793541,3.657656 -0.909005,0.412201 -1.759823,0.944425 -2.3545,-0.13575 -0.636866,-0.736587 -1.496895,-1.540194 -2.558438,-1.22251 -1.460203,0.495148 -2.509769,1.851979 -3.604016,2.887828 -0.806986,0.999859 -2.240374,2.175694 -1.670546,3.626682 0.4316,0.875468 1.308181,1.427733 1.9375,2.15625 -0.38389,0.926526 -0.610381,1.943095 -1.807557,1.59375 -1.030449,-0.09815 -2.259271,0.06375 -2.744831,1.118563 -0.663613,2.325481 -0.601817,4.879518 -0.04136,7.225187 0.44781,1.022674 1.609242,1.306488 2.627087,1.1875 1.000751,-0.192354 1.612181,0.13209 1.778961,1.204887 0.431918,0.66955 -0.709829,1.071874 -1.036298,1.612863 -0.986155,0.698473 -1.122833,2.203824 -0.265412,3.061944 1.289268,1.667916 2.796665,3.266691 4.645662,4.307806 0.99024,0.358995 1.941189,-0.239078 2.53525,-1.004 0.565258,-0.666816 1.119469,-1.294721 1.948082,-0.513119 1.003226,0.07559 0.484903,1.18838 0.610418,1.865043 -0.183915,1.221803 0.779132,2.445062 2.046894,2.431059 2.130373,0.332345 4.420238,0.422471 6.484356,-0.278983 0.996911,-0.529842 1.076786,-1.736864 1,-2.736984 -0.3494,-1.160965 0.63635,-1.352814 1.53125,-1.700516 0.924226,0.823452 1.724839,2.205008 3.15625,2 1.523616,-0.474211 2.604091,-1.84415 3.752313,-2.882918 0.833883,-0.992824 2.288586,-2.181677 1.716437,-3.648332 -0.42236,-0.864086 -1.28657,-1.407537 -1.90625,-2.125 0.38389,-0.926526 0.610382,-1.943095 1.807557,-1.59375 1.005075,0.103929 2.181708,-0.104312 2.651081,-1.118563 0.660311,-2.325709 0.605225,-4.879776 0.04136,-7.225187 -0.44781,-1.022674 -1.609242,-1.306488 -2.627087,-1.1875 -1.109028,0.291458 -1.499944,-0.410558 -1.778088,-1.400007 -0.05633,-0.572687 0.855625,-0.984024 1.201175,-1.489743 0.925521,-0.700742 0.963055,-2.147484 0.163136,-2.959504 C 57.23178,36.725083 55.728179,35.110617 53.875,34.0625 c -0.99024,-0.358995 -1.941189,0.239078 -2.53525,1.004 -0.585168,0.837108 -1.244616,1.096708 -2.118419,0.399727 C 48.442807,35.2822 48.962972,34.200241 48.8125,33.581503 48.97457,32.392525 48.010632,31.265778 46.806275,31.248194 45.878544,31.099159 44.940408,31.000374 44,31 z m 0,12.625 c 3.193919,-0.120072 5.906686,3.065978 5.31374,6.199468 -0.367442,3.169617 -3.921928,5.344455 -6.922547,4.311079 -3.16721,-0.85851 -4.756483,-4.888711 -3.123126,-7.70891 C 40.173263,44.709077 42.061338,43.601515 44,43.625 z" />
            <path
               style="opacity:0.15;fill:#000000;fill-opacity:1;fill-rule:nonzero;stroke:none;stroke-width:1;marker:none;visibility:visible;display:inline;overflow:visible;enable-background:accumulate"
               id="path4076"
               d="m 44,32 c -0.997686,0 -1.950178,0.122918 -2.875,0.28125 A 0.99153139,0.99153139 0 0 0 40.28125,33.25 l 0,2.71875 c -0.986176,0.288632 -1.90554,0.699155 -2.78125,1.1875 l -2,-1.96875 a 0.99153139,0.99153139 0 0 0 -1.25,-0.09375 c -1.617548,1.134035 -2.998618,2.561108 -4.125,4.15625 a 0.99153139,0.99153139 0 0 0 0.125,1.25 l 1.9375,1.9375 C 31.692451,43.320755 31.291258,44.254783 31,45.25 l -2.75,0 a 0.99153139,0.99153139 0 0 0 -0.96875,0.84375 C 27.117451,47.035347 27,47.993412 27,49 c 0,1.006607 0.116786,1.992066 0.28125,2.9375 A 0.99153139,0.99153139 0 0 0 28.25,52.78125 l 2.75,0 c 0.291258,0.995227 0.692449,1.929251 1.1875,2.8125 l -1.9375,1.9375 a 0.99153139,0.99153139 0 0 0 -0.125,1.25 c 1.13655,1.609524 2.54819,2.998954 4.15625,4.125 a 0.99153139,0.99153139 0 0 0 1.25,-0.125 l 1.9375,-1.9375 c 0.882909,0.494702 1.816911,0.896114 2.8125,1.1875 l 0,2.71875 A 0.99153139,0.99153139 0 0 0 41.125,65.71875 C 42.049806,65.877068 43.002297,66 44,66 c 1.016049,-1e-5 2.038407,-0.11191 3,-0.28125 A 0.99153139,0.99153139 0 0 0 47.8125,64.75 l 0,-2.71875 c 0.986181,-0.288628 1.905539,-0.699149 2.78125,-1.1875 l 1.875,1.90625 A 0.99153139,0.99153139 0 0 0 53.75,62.875 c 1.593688,-1.123829 3.047251,-2.498857 4.1875,-4.125 a 0.99153139,0.99153139 0 0 0 -0.125,-1.25 l -1.90625,-1.90625 c 0.495045,-0.883249 0.896239,-1.817278 1.1875,-2.8125 l 2.65625,0 A 0.99153139,0.99153139 0 0 0 60.71875,51.9375 C 60.883217,50.992064 61,50.006582 61,49 61,47.993422 60.882524,47.03533 60.71875,46.09375 A 0.99153139,0.99153139 0 0 0 59.75,45.25 l -2.65625,0 c -0.291261,-0.995223 -0.692454,-1.929252 -1.1875,-2.8125 l 1.90625,-1.90625 a 0.99153139,0.99153139 0 0 0 0.125,-1.25 C 56.807259,37.66937 55.384639,36.256898 53.78125,35.125 a 0.99153139,0.99153139 0 0 0 -1.25,0.125 L 50.625,37.15625 c -0.882913,-0.494704 -1.816915,-0.896115 -2.8125,-1.1875 l 0,-2.71875 A 0.99153139,0.99153139 0 0 0 47,32.28125 C 46.038423,32.11192 45.016066,32 44,32 z m 0,10.625 c 3.53008,1.6e-5 6.375,2.847595 6.375,6.375 0,3.527415 -2.844924,6.375 -6.375,6.375 -3.530069,1.6e-5 -6.375,-2.847594 -6.375,-6.375 0,-3.527383 2.844929,-6.375 6.375,-6.375 z"
               inkscape:connector-curvature="0" />
            <path
               style="opacity:0.3;fill:#000000;fill-opacity:1;fill-rule:nonzero;stroke:none;stroke-width:1;marker:none;visibility:visible;display:inline;overflow:visible;enable-background:accumulate"
               id="path4061"
               inkscape:connector-curvature="0"
               d="m 44.010832,33 c -0.927405,0 -1.845609,0.08677 -2.729859,0.238156 l 0,3.399187 c -1.457327,0.32356 -2.808453,0.91135 -4.029785,1.688767 l -2.426546,-2.424894 c -1.515453,1.062458 -2.832573,2.385794 -3.899796,3.897158 l 2.426544,2.424895 c -0.777943,1.220524 -1.366148,2.570727 -1.68991,4.027068 l -3.423164,0 C 28.082469,47.146222 28,48.059586 28,49 c 0,0.940434 0.08247,1.875413 0.238316,2.771307 l 3.423164,0 c 0.323762,1.456359 0.911967,2.806569 1.68991,4.027067 l -2.426544,2.424896 c 1.068937,1.513774 2.402971,2.812191 3.921462,3.875516 l 2.40488,-2.403253 c 1.221332,0.7774 2.572458,1.365224 4.029785,1.688767 l 0,3.377536 C 42.165223,64.913211 43.083418,65 44.010832,65 c 0.953586,-9e-6 1.887078,-0.0783 2.794859,-0.238164 l 0,-3.377536 c 1.457326,-0.323543 2.808452,-0.911341 4.029784,-1.688767 l 2.361548,2.381593 c 1.514799,-1.068198 2.857419,-2.379686 3.921462,-3.89715 l -2.383204,-2.381602 c 0.777935,-1.220514 1.366131,-2.570708 1.689902,-4.027067 l 3.336499,0 C 59.91753,50.87542 60,49.940408 60,49 60,48.059611 59.91751,47.146231 59.761682,46.250337 l -3.336499,0 c -0.323771,-1.45636 -0.911967,-2.806561 -1.689902,-4.027068 l 2.383204,-2.381593 C 56.056014,38.326445 54.73067,36.990243 53.21868,35.922867 l -2.383205,2.403243 c -1.221332,-0.777408 -2.572458,-1.365215 -4.029784,-1.688767 l 0,-3.377535 C 45.89791,33.099951 44.964418,33 44.010832,33 z m -0.02167,8.638701 c 4.06787,1.8e-5 7.387949,3.296182 7.387949,7.361299 0,4.065126 -3.320079,7.3613 -7.387949,7.3613 -4.06787,1.8e-5 -7.366283,-3.296182 -7.366283,-7.3613 0,-4.065098 3.298413,-7.361299 7.366283,-7.361299 z" />
            <path
               style="fill:url(#linearGradient3282);fill-opacity:1;fill-rule:nonzero;stroke:none;stroke-width:1;marker:none;visibility:visible;display:inline;overflow:visible;enable-background:accumulate"
               id="path3614"
               inkscape:connector-curvature="0"
               d="m 44.010832,32 c -0.927405,0 -1.845609,0.08677 -2.729859,0.238156 l 0,3.399187 c -1.457327,0.32356 -2.808453,0.91135 -4.029785,1.688767 l -2.426546,-2.424894 c -1.515453,1.062458 -2.832573,2.385794 -3.899796,3.897158 l 2.426544,2.424895 c -0.777943,1.220524 -1.366148,2.570727 -1.68991,4.027068 l -3.423164,0 C 28.082469,46.146222 28,47.059586 28,48 c 0,0.940434 0.08247,1.875413 0.238316,2.771307 l 3.423164,0 c 0.323762,1.456359 0.911967,2.806569 1.68991,4.027067 l -2.426544,2.424896 c 1.068937,1.513774 2.402971,2.812191 3.921462,3.875516 l 2.40488,-2.403253 c 1.221332,0.7774 2.572458,1.365224 4.029785,1.688767 l 0,3.377536 C 42.165223,63.913211 43.083418,64 44.010832,64 c 0.953586,-9e-6 1.887078,-0.0783 2.794859,-0.238164 l 0,-3.377536 c 1.457326,-0.323543 2.808452,-0.911341 4.029784,-1.688767 l 2.361548,2.381593 c 1.514799,-1.068198 2.857419,-2.379686 3.921462,-3.89715 l -2.383204,-2.381602 c 0.777935,-1.220514 1.366131,-2.570708 1.689902,-4.027067 l 3.336499,0 C 59.91753,49.87542 60,48.940408 60,48 60,47.059611 59.91751,46.146231 59.761682,45.250337 l -3.336499,0 c -0.323771,-1.45636 -0.911967,-2.806561 -1.689902,-4.027068 l 2.383204,-2.381593 C 56.056014,37.326445 54.73067,35.990243 53.21868,34.922867 l -2.383205,2.403243 c -1.221332,-0.777408 -2.572458,-1.365215 -4.029784,-1.688767 l 0,-3.377535 C 45.89791,32.099951 44.964418,32 44.010832,32 z m -0.02167,8.638701 c 4.06787,1.8e-5 7.387949,3.296182 7.387949,7.361299 0,4.065126 -3.320079,7.3613 -7.387949,7.3613 -4.06787,1.8e-5 -7.366283,-3.296182 -7.366283,-7.3613 0,-4.065098 3.298413,-7.361299 7.366283,-7.361299 z" />
            <path
               style="opacity:0.07999998;fill:#000000;fill-opacity:1;stroke:none"
               id="path4149"
               inkscape:connector-curvature="0"
               d="M 44.40625,28.625 C 19.820361,29.049358 10.352302,53.612562 10,55.1875 11.654145,57.340636 25.773923,67.375 44.3125,67.375 62.851078,67.375 81.52915,58.796209 86,54.46875 83.22964,50.321197 67.278021,28.2302 44.40625,28.625 z m 0.03125,1.9375 C 55.239636,30.376039 64.52441,35.53315 71.5,41.34375 77.516593,46.355515 81.290635,51.327438 83.1875,54 c -2.405437,1.798173 -7.041287,4.453361 -13.40625,6.71875 -7.378031,2.625955 -16.499492,4.71875 -25.46875,4.71875 -8.918351,0 -16.832484,-2.438581 -22.6875,-5.125 -2.927508,-1.343209 -5.338903,-2.755401 -7.09375,-3.9375 -1.316136,-0.886574 -1.812396,-1.379677 -2.25,-1.78125 0.05187,-0.137333 0.03148,-0.09951 0.09375,-0.25 0.318199,-0.769002 0.773336,-1.787699 1.40625,-3 1.265829,-2.424602 3.19031,-5.538174 5.8125,-8.59375 5.244379,-6.111152 13.19397,-11.986422 24.84375,-12.1875 z" />
            <path
               style="opacity:0.4;fill:#ffffff;fill-opacity:1;fill-rule:nonzero;stroke:none;stroke-width:1;marker:none;visibility:visible;display:inline;overflow:visible;enable-background:accumulate"
               id="path4065"
               inkscape:connector-curvature="0"
               d="m 44,32 c -0.927405,0 -1.8345,0.09861 -2.71875,0.25 l 0,1 C 42.1655,33.098614 43.072595,33 44,33 c 0.953586,0 1.904719,0.09014 2.8125,0.25 l 0,-1 C 45.904719,32.090143 44.953586,32 44,32 z m -9.1875,2.90625 c -1.515453,1.062458 -2.807777,2.394886 -3.875,3.90625 L 31.375,39.25 c 0.986607,-1.277304 2.114004,-2.41587 3.4375,-3.34375 L 37.25,38.3125 c 1.221332,-0.777417 2.573923,-1.36394 4.03125,-1.6875 l 0,-1 c -1.457327,0.32356 -2.809918,0.910083 -4.03125,1.6875 l -2.4375,-2.40625 z m 18.40625,0.03125 -2.375,2.375 C 49.622418,36.535092 48.269826,35.948552 46.8125,35.625 l 0,1 c 1.457326,0.323552 2.809918,0.910092 4.03125,1.6875 l 2.375,-2.375 c 1.316994,0.929721 2.485347,2.065456 3.46875,3.34375 l 0.4375,-0.4375 C 56.062529,37.328519 54.73074,36.004876 53.21875,34.9375 z m -20.25,6.90625 c -0.591352,1.050068 -1.04347,2.196103 -1.3125,3.40625 l -3.40625,0 C 28.094153,46.145885 28,47.059586 28,48 c 0,0.167322 0.02608,0.333213 0.03125,0.5 0.02389,-0.765432 0.09063,-1.513511 0.21875,-2.25 l 3.40625,0 c 0.323762,-1.456341 0.909557,-2.810726 1.6875,-4.03125 l -0.375,-0.375 z m 22.15625,0 -0.375,0.375 c 0.777935,1.220507 1.363729,2.57489 1.6875,4.03125 l 3.3125,0 c 0.128103,0.736496 0.194857,1.484578 0.21875,2.25 C 59.97392,48.333214 60,48.167318 60,48 60,47.059611 59.90583,46.145894 59.75,45.25 l -3.3125,0 C 56.168462,44.039837 55.716346,42.893809 55.125,41.84375 z M 36.65625,48.5 C 36.64496,48.666668 36.625,48.830474 36.625,49 c 0,4.065118 3.30713,7.375018 7.375,7.375 4.06787,0 7.375,-3.309874 7.375,-7.375 0,-0.169527 -0.01989,-0.333331 -0.03125,-0.5 C 51.082672,52.329927 47.898229,55.375 44,55.375 40.101771,55.375017 36.915669,52.329922 36.65625,48.5 z M 33,55.15625 l -2.0625,2.0625 c 0.137857,0.195226 0.290998,0.37448 0.4375,0.5625 L 33.34375,55.8125 C 33.213367,55.607945 33.119372,55.367982 33,55.15625 z m 22.09375,0 C 54.974379,55.367983 54.880382,55.607942 54.75,55.8125 l 1.9375,1.9375 c 0.146264,-0.18877 0.300274,-0.366798 0.4375,-0.5625 l -2.03125,-2.03125 z" />
            <path
               style="opacity:0.3;fill:#000000;fill-opacity:1;stroke:none"
               id="path4136"
               inkscape:connector-curvature="0"
               d="M 44.40625,28.625 C 19.820361,29.049358 10.352302,53.612562 10,55.1875 c 0.05674,0.07386 0.164279,0.189583 0.25,0.28125 C 11.830949,51.152455 21.599049,30.018657 44.40625,29.625 66.511258,29.243435 82.03838,49.717656 85.5625,54.84375 85.706807,54.718466 85.876943,54.58786 86,54.46875 83.22964,50.321197 67.278021,28.2302 44.40625,28.625 z" />
            <path
               style="opacity:0.15;fill:#000000;fill-opacity:1;stroke:none"
               id="path4145"
               inkscape:connector-curvature="0"
               d="M 44.40625,28.625 C 19.820361,29.049358 10.352302,53.612562 10,55.1875 11.654145,57.340636 25.773923,67.375 44.3125,67.375 62.851078,67.375 81.52915,58.796209 86,54.46875 83.22964,50.321197 67.278021,28.2302 44.40625,28.625 z m 0.03125,0.96875 c 11.124089,-0.192018 20.601376,5.097326 27.6875,11 6.618327,5.513003 10.837015,11.237327 12.5,13.65625 -2.305291,1.953437 -7.517831,4.921188 -14.5,7.40625 -7.463207,2.656271 -16.690822,4.75 -25.8125,4.75 -9.096632,0 -17.13763,-2.454693 -23.09375,-5.1875 -2.97806,-1.366404 -5.417592,-2.786706 -7.21875,-4 -1.590728,-1.071544 -2.475916,-1.892056 -2.875,-2.3125 0.08281,-0.247018 0.129,-0.418508 0.34375,-0.9375 0.329593,-0.796538 0.790489,-1.854447 1.4375,-3.09375 1.294023,-2.478606 3.254372,-5.654664 5.9375,-8.78125 5.366256,-6.253173 13.617234,-12.293283 25.59375,-12.5 z" />
          </g>
        </g>
      </g>
      <path
         style="font-size:medium;font-style:normal;font-variant:normal;font-weight:normal;font-stretch:normal;text-indent:0;text-align:start;text-decoration:none;line-height:normal;letter-spacing:normal;word-spacing:normal;text-transform:none;direction:ltr;block-progression:tb;writing-mode:lr-tb;text-anchor:start;baseline-shift:baseline;color:#000000;fill:#000000;fill-opacity:0.87148593;stroke:none;stroke-width:2.3755002;marker:none;visibility:visible;display:inline;overflow:visible;enable-background:accumulate;font-family:Sans;-inkscape-font-specification:Sans"
         d="m -24.6875,-37.8125 c -3.196096,0 -5.8125,2.600343 -5.8125,5.78125 l 0,70.9375 c 0,3.180909 2.616404,5.78125 5.8125,5.78125 l 78.75,0 c 3.196096,0 5.8125,-2.600341 5.8125,-5.78125 l 0,-70.9375 c 0,-3.180907 -2.616404,-5.78125 -5.8125,-5.78125 l -78.75,0 z m 0,2.375 78.75,0 c 1.936246,0 3.4375,1.515549 3.4375,3.40625 l 0,70.9375 c 0,1.890705 -1.501254,3.40625 -3.4375,3.40625 l -78.75,0 c -1.936246,0 -3.4375,-1.515545 -3.4375,-3.40625 l 0,-70.9375 c 0,-1.890701 1.501254,-3.40625 3.4375,-3.40625 z"
         id="path4989"
         inkscape:connector-curvature="0" />
      <path
         sodipodi:nodetypes="cscccsscc"
         inkscape:connector-curvature="0"
         id="path12926"
         d="m 48.331182,42.928895 4.233791,0 c 2.225994,0 4.159005,-1.175383 5.292234,-2.931794 l 0,-41.6179931 0,-7.5485261 0,-22.3422938 c 0,-3.005712 -2.342018,-5.391804 -5.292234,-5.391804 l -70.296123,0 C 7.6324902,10.08658 30.391443,27.576446 48.331182,42.928895 z"
         style="opacity:0.39930558;fill:url(#linearGradient13171);fill-opacity:1;fill-rule:nonzero;stroke:none;display:inline" />
    </g>
  </g>
</svg>
