<?xml version="1.0" encoding="UTF-8" standalone="no"?>
<!-- Created with Inkscape (http://www.inkscape.org/) -->

<svg
   xmlns:dc="http://purl.org/dc/elements/1.1/"
   xmlns:cc="http://creativecommons.org/ns#"
   xmlns:rdf="http://www.w3.org/1999/02/22-rdf-syntax-ns#"
   xmlns:svg="http://www.w3.org/2000/svg"
   xmlns="http://www.w3.org/2000/svg"
   xmlns:xlink="http://www.w3.org/1999/xlink"
   xmlns:sodipodi="http://sodipodi.sourceforge.net/DTD/sodipodi-0.dtd"
   xmlns:inkscape="http://www.inkscape.org/namespaces/inkscape"
   width="96"
   height="96"
   viewBox="0 0 96.000001 96.000004"
   version="1.1"
   id="svg1072"
   inkscape:version="0.92.1 r15371"
   sodipodi:docname="gdebi.svg">
  <defs
     id="defs1066">
    <filter
       style="color-interpolation-filters:sRGB"
       id="filter18944"
       inkscape:collect="always">
      <feGaussianBlur
         id="feGaussianBlur18946"
         stdDeviation="0.2358929"
         inkscape:collect="always" />
    </filter>
    <filter
       style="color-interpolation-filters:sRGB"
       id="filter18574"
       inkscape:collect="always">
      <feGaussianBlur
         id="feGaussianBlur18576"
         stdDeviation="2.7808487"
         inkscape:collect="always" />
    </filter>
    <filter
       style="color-interpolation-filters:sRGB"
       height="1.0331082"
       y="-0.0165541"
       width="1.3946178"
       x="-0.19730891"
       id="filter18821"
       inkscape:collect="always">
      <feGaussianBlur
         id="feGaussianBlur18823"
         stdDeviation="0.96167774"
         inkscape:collect="always" />
    </filter>
    <linearGradient
       inkscape:collect="always"
       id="linearGradient4672">
      <stop
         style="stop-color:#727e7f;stop-opacity:1"
         offset="0"
         id="stop4668" />
      <stop
         id="stop4680"
         offset="0.4035714"
         style="stop-color:#eaeced;stop-opacity:1" />
      <stop
         id="stop4676"
         offset="0.56774592"
         style="stop-color:#f6f7f8;stop-opacity:1" />
      <stop
         style="stop-color:#e6e9ea;stop-opacity:1"
         offset="0.71367884"
         id="stop4678" />
      <stop
         style="stop-color:#828b8c;stop-opacity:1"
         offset="1"
         id="stop4670" />
    </linearGradient>
    <linearGradient
       inkscape:collect="always"
       xlink:href="#linearGradient4672"
       id="linearGradient6970"
       gradientUnits="userSpaceOnUse"
       x1="9.5135345"
       y1="28.111004"
       x2="16.099648"
       y2="28.111004" />
    <filter
       inkscape:collect="always"
       style="color-interpolation-filters:sRGB"
       id="filter898"
       x="-0.011575642"
       width="1.0231513"
       y="-0.012447235"
       height="1.0248945">
      <feGaussianBlur
         inkscape:collect="always"
         stdDeviation="0.29569863"
         id="feGaussianBlur900" />
    </filter>
    <linearGradient
       inkscape:collect="always"
       xlink:href="#linearGradient4672"
       id="linearGradient908"
       x1="10.226132"
       y1="57.292591"
       x2="13.856565"
       y2="57.292591"
       gradientUnits="userSpaceOnUse" />
    <linearGradient
       inkscape:collect="always"
       xlink:href="#linearGradient4672"
       id="linearGradient910"
       x1="80.782143"
       y1="56.714005"
       x2="84.412575"
       y2="56.714005"
       gradientUnits="userSpaceOnUse" />
    <linearGradient
       inkscape:collect="always"
       xlink:href="#linearGradient4672"
       id="linearGradient912"
       x1="82.519829"
       y1="-10.460073"
       x2="86.150261"
       y2="-10.460073"
       gradientUnits="userSpaceOnUse" />
    <linearGradient
       inkscape:collect="always"
       xlink:href="#linearGradient4672"
       id="linearGradient914"
       x1="9.6024332"
       y1="-10.319467"
       x2="13.232866"
       y2="-10.319467"
       gradientUnits="userSpaceOnUse" />
  </defs>
  <sodipodi:namedview
     id="base"
     pagecolor="#ffffff"
     bordercolor="#666666"
     borderopacity="1.0"
     inkscape:pageopacity="0.0"
     inkscape:pageshadow="2"
     inkscape:zoom="6.7951784"
     inkscape:cx="89.1228"
     inkscape:cy="48.578309"
     inkscape:document-units="px"
     inkscape:current-layer="g919"
     showgrid="false"
     inkscape:showpageshadow="false"
     units="px"
     inkscape:lockguides="true"
     inkscape:window-width="1280"
     inkscape:window-height="972"
     inkscape:window-x="0"
     inkscape:window-y="26"
     inkscape:window-maximized="1"
     inkscape:snap-global="false">
    <sodipodi:guide
       position="0,0"
       orientation="0,96"
       id="guide1621"
       inkscape:locked="true" />
    <sodipodi:guide
       position="96.000002,96.000002"
       orientation="0,-96"
       id="guide1625"
       inkscape:locked="true" />
    <sodipodi:guide
       position="0,96.000002"
       orientation="96,0"
       id="guide1627"
       inkscape:locked="true" />
  </sodipodi:namedview>
  <metadata
     id="metadata1069">
    <rdf:RDF>
      <cc:Work
         rdf:about="">
        <dc:format>image/svg+xml</dc:format>
        <dc:type
           rdf:resource="http://purl.org/dc/dcmitype/StillImage" />
        <dc:title />
        <dc:date>2017</dc:date>
        <dc:creator>
          <cc:Agent>
            <dc:title>Cristian Pozzessere &quot;ilnanny&quot;</dc:title>
          </cc:Agent>
        </dc:creator>
        <dc:subject>
          <rdf:Bag>
            <rdf:li>Global language</rdf:li>
          </rdf:Bag>
        </dc:subject>
        <dc:description>Playing with Inkscape on Gnu/Linux O. S.</dc:description>
        <dc:contributor>
          <cc:Agent>
            <dc:title>In the night, alone like a dog.</dc:title>
          </cc:Agent>
        </dc:contributor>
        <cc:license
           rdf:resource="http://creativecommons.org/licenses/by-sa/4.0/" />
      </cc:Work>
      <cc:License
         rdf:about="http://creativecommons.org/licenses/by-sa/4.0/">
        <cc:permits
           rdf:resource="http://creativecommons.org/ns#Reproduction" />
        <cc:permits
           rdf:resource="http://creativecommons.org/ns#Distribution" />
        <cc:requires
           rdf:resource="http://creativecommons.org/ns#Notice" />
        <cc:requires
           rdf:resource="http://creativecommons.org/ns#Attribution" />
        <cc:permits
           rdf:resource="http://creativecommons.org/ns#DerivativeWorks" />
        <cc:requires
           rdf:resource="http://creativecommons.org/ns#ShareAlike" />
      </cc:License>
    </rdf:RDF>
  </metadata>
  <g
     inkscape:label="Livello 1"
     inkscape:groupmode="layer"
     id="layer1"
     transform="translate(0,-1026.5197)">
    <g
       transform="matrix(1.1716405,0,0,1.1051188,-8.2078381,1055.4025)"
       id="g5231">
      <g
         id="g919"
         transform="matrix(1.0044197,0,0,1.0010528,-0.23803051,-0.06391376)">
        <path
           id="path18630"
           transform="matrix(0.85350413,0,0,0.90488009,7.0054237,-26.135471)"
           d="M 94.533203,9.4980469 C 93.570583,9.4559845 92.130535,10.060547 90.625,10.060547 H 5.1738281 c -2.6765061,0 -4.87750145,-1.5910403 -4.83203122,1.621094 L 1.4375,89.080078 c 0.04547,3.212115 1.5500562,6.16211 4.2265625,6.16211 H 90.537109 c 2.676505,0 3.873843,-2.950237 3.925782,-6.16211 L 95.71875,11.359375 C 95.741471,9.9541749 95.281908,9.5307621 94.533203,9.4980469 Z M 5.2734375,15.621094 a 1.9788169,1.7019198 0 0 1 1.9785156,1.701172 1.9788169,1.7019198 0 0 1 -1.9785156,1.703125 1.9788169,1.7019198 0 0 1 -1.9785156,-1.703125 1.9788169,1.7019198 0 0 1 1.9785156,-1.701172 z m 85.3281245,0 a 1.7797487,1.7019198 0 0 1 1.78125,1.701172 1.7797487,1.7019198 0 0 1 -1.78125,1.703125 1.7797487,1.7019198 0 0 1 -1.779296,-1.703125 1.7797487,1.7019198 0 0 1 1.779296,-1.701172 z m -2.035156,74.236328 a 1.7797487,1.7019198 0 0 1 1.779297,1.701172 1.7797487,1.7019198 0 0 1 -1.779297,1.701172 1.7797487,1.7019198 0 0 1 -1.779297,-1.701172 1.7797487,1.7019198 0 0 1 1.779297,-1.701172 z m -82.5781248,0.5 A 1.8792828,1.7019198 0 0 1 7.8671875,92.060547 1.8792828,1.7019198 0 0 1 5.9882812,93.761719 1.8792828,1.7019198 0 0 1 4.109375,92.060547 1.8792828,1.7019198 0 0 1 5.9882812,90.357422 Z"
           style="display:inline;fill:#e9af76;fill-opacity:1;stroke:none;stroke-width:1.18162036"
           inkscape:connector-curvature="0" />
        <path
           transform="matrix(0.99999997,0,0,1.0860371,4.2329356e-8,-5.2655764)"
           style="display:inline;opacity:0.78859774;fill:none;stroke:#764514;stroke-width:0.95298731;stroke-linecap:round;stroke-linejoin:bevel;stroke-miterlimit:4;stroke-dasharray:none;stroke-opacity:1"
           d="m 11.42196,-10.82836 h 72.931102 c 2.284317,0 4.391958,-1.605948 4.347636,1.0906174 L 87.628192,55.513435 c -0.04432,2.696545 -1.065874,5.173418 -3.35019,5.173418 H 11.841619 c -2.2843162,0 -3.5690937,-2.476669 -3.6078995,-5.173418 L 7.2986473,-9.4678483 C 7.2598411,-12.164622 9.1376436,-10.82836 11.42196,-10.82836 Z"
           id="path18476"
           inkscape:connector-curvature="0"
           sodipodi:nodetypes="sssssssss" />
        <path
           transform="matrix(-0.01762788,0.15068646,-0.26526394,-0.04955663,278.82136,28.797444)"
           style="opacity:0.59762256;fill:none;stroke:#703f00;stroke-width:3;stroke-linecap:butt;stroke-linejoin:round;stroke-miterlimit:4;stroke-dasharray:none;stroke-opacity:1;filter:url(#filter18944)"
           d="m 13.344483,722.33406 1.290956,30.98295 -51.638245,3.87287 v 0"
           id="path19000"
           inkscape:connector-curvature="0" />
        <path
           style="display:inline;fill:none;stroke:#ffffff;stroke-width:3.81170034;stroke-linecap:round;stroke-linejoin:round;stroke-miterlimit:4;stroke-dasharray:none;stroke-opacity:1;filter:url(#filter18574)"
           d="M 111.90158,747.1372 H 421.4371 c 9.69515,0 17.83602,8.12077 17.50026,18.19442 l -7.65637,229.70467 c -0.33575,10.07361 -4.5238,19.33151 -14.21894,19.33151 H 117.37041 c -9.69514,0 -14.97695,-9.2579 -15.31272,-19.33151 L 94.40134,765.33162 c -0.335763,-10.07365 7.8051,-18.19442 17.50024,-18.19442 z"
           id="path18566"
           inkscape:connector-curvature="0"
           sodipodi:nodetypes="sssssssss"
           transform="matrix(0.16387587,0,0,0.21371781,4.0255201,-164.51273)" />
        <path
           transform="matrix(0.01753745,-0.12927403,0.24665209,0.04624393,-169.05494,19.755304)"
           inkscape:connector-curvature="0"
           id="path18994"
           d="m 13.344483,722.33406 1.290956,30.98295 -51.638245,3.87287 v 0"
           style="opacity:0.8523985;fill:none;stroke:#703f00;stroke-width:3;stroke-linecap:butt;stroke-linejoin:round;stroke-miterlimit:4;stroke-dasharray:none;stroke-opacity:1;filter:url(#filter18944)" />
        <path
           transform="matrix(0.99444005,0,0,1.0860371,0.4355375,-5.2655764)"
           sodipodi:nodetypes="sssssssss"
           inkscape:connector-curvature="0"
           id="path18568"
           d="m 20.143035,-1.8294527 h 55.076459 c 1.725083,0 3.173609,1.73260079 3.113868,3.8818594 L 76.971044,51.060908 c -0.05974,2.149263 -0.804932,4.124447 -2.530013,4.124447 H 21.116118 c -1.725083,0 -2.664889,-1.975184 -2.724633,-4.124447 L 17.029171,2.0524067 c -0.05974,-2.14925861 1.388782,-3.8818594 3.113864,-3.8818594 z"
           style="display:inline;opacity:0.76999996;fill:none;stroke:#603600;stroke-width:1.26493227;stroke-linecap:round;stroke-linejoin:round;stroke-miterlimit:4;stroke-dasharray:none;stroke-opacity:1;filter:url(#filter898)" />
        <path
           id="path18608"
           transform="matrix(0.99999997,0,0,1.0860371,4.2329356e-8,-5.2655764)"
           style="display:inline;fill:none;stroke:#000000;stroke-width:0.57166266;stroke-linecap:butt;stroke-linejoin:round;stroke-miterlimit:4;stroke-dasharray:none;stroke-opacity:1"
           d="M 18.960533,50.382865 76.6128,50.652624 M 18.736205,40.401761 76.837127,40.941279 M 18.287549,30.150897 h 58.998235 v 0 m -59.446891,-12.139182 59.446891,0.26976 v 0 M 17.838893,7.7608514 77.73444,8.0306117"
           inkscape:connector-curvature="0" />
        <path
           transform="matrix(0.17376879,0,0,0.24285803,14.808818,-191.01822)"
           inkscape:connector-curvature="0"
           id="path18938"
           d="m 13.344483,722.33406 1.290956,30.98295 -51.638245,3.87287 v 0"
           style="opacity:0.65556048;fill:none;stroke:#703f00;stroke-width:3;stroke-linecap:butt;stroke-linejoin:round;stroke-miterlimit:4;stroke-dasharray:none;stroke-opacity:1;filter:url(#filter18944)" />
        <path
           transform="matrix(-0.17350623,-0.01247067,0.00954886,-0.22659657,72.709495,223.83804)"
           style="opacity:0.8523985;fill:none;stroke:#703f00;stroke-width:3;stroke-linecap:butt;stroke-linejoin:round;stroke-miterlimit:4;stroke-dasharray:none;stroke-opacity:1;filter:url(#filter18944)"
           d="m 13.344483,722.33406 1.290956,30.98295 -51.638245,3.87287 v 0"
           id="path18956"
           inkscape:connector-curvature="0" />
        <ellipse
           ry="1.5400333"
           rx="1.5190228"
           style="fill:url(#linearGradient910);fill-opacity:1;stroke:#4f2f01;stroke-width:0.59238732;stroke-linejoin:round;stroke-miterlimit:4;stroke-dasharray:none;stroke-opacity:1"
           id="path18738"
           inkscape:transform-center-y="-69.711632"
           cx="82.597359"
           cy="56.714005" />
        <ellipse
           ry="1.5400333"
           rx="1.5190228"
           id="path18744"
           style="fill:url(#linearGradient912);fill-opacity:1;stroke:#4f2f01;stroke-width:0.59238732;stroke-linejoin:round;stroke-miterlimit:4;stroke-dasharray:none;stroke-opacity:1"
           cx="84.335045"
           cy="-10.460073" />
        <path
           style="fill:none;stroke:#fdc995;stroke-width:1px;stroke-linecap:butt;stroke-linejoin:miter;stroke-opacity:1;filter:url(#filter18821)"
           d="m 232.71444,641.50971 c -0.86063,1.72127 -1.72127,3.44255 -2.58191,5.16382 0,0.43032 0.13608,0.88272 0,1.29096 -0.30428,0.91284 -0.98667,1.66907 -1.29095,2.58191 -0.13608,0.40824 0.19244,0.90607 0,1.29096 -0.27216,0.54431 -1.0188,0.74664 -1.29096,1.29095 -0.19244,0.38489 0,0.86064 0,1.29096 0,0.43032 0,0.86064 0,1.29095 0,1.72128 0.28298,3.46597 0,5.16383 -0.15819,0.94913 -1.10225,1.63838 -1.29096,2.58191 0,9.84824 0.57734,-1.01838 -1.29095,6.45478 -0.20874,0.83494 0,1.72128 0,2.58191 0,2.58192 0,5.16383 0,7.74574 0,2.58191 0,5.16383 0,7.74574 0,0.86064 0,1.72127 0,2.58191 0,0.43032 -0.10437,0.87349 0,1.29096 0.33004,1.32015 0.96091,2.55271 1.29095,3.87286 0.10437,0.41747 -0.19244,0.90607 0,1.29096 0.27216,0.54432 1.09852,0.71362 1.29096,1.29096 0.27216,0.81647 0,1.72127 0,2.58191 0,0.43032 -0.19244,0.90607 0,1.29096 0.54431,1.08862 2.0376,1.49328 2.58191,2.58191 0.19202,0.38402 0,7.20268 0,7.74573 0,0.43032 -0.19244,0.90607 0,1.29096 0.27216,0.54432 1.0188,0.74664 1.29096,1.29096 0.38489,0.76977 -0.27216,1.76544 0,2.58191 0.30428,0.91284 1.10225,1.63837 1.29095,2.58191 0.42197,2.10981 -0.42196,4.34497 0,6.45478 0.26688,1.33436 1.02409,2.53851 1.29096,3.87287 0.16879,0.84392 0,1.72127 0,2.58191 0,2.58191 0,5.16383 0,7.74574 0,0.67507 0.16972,4.82438 0,5.16382 -0.54431,1.08863 -2.0376,1.49329 -2.58191,2.58192 -0.19245,0.38488 0.19244,0.90606 0,1.29095 -0.34474,0.68948 -3.19323,3.19323 -3.87287,3.87287 -0.43032,0.43032 -0.86064,0.86064 -1.29096,1.29096 -0.43031,0.43031 -1.01879,0.74664 -1.29095,1.29095 -0.14467,0.28934 0,4.85706 0,5.16383 0,2.58191 0,5.16382 0,7.74573 0,1.29096 0.25317,2.60699 0,3.87287 -0.18871,0.94354 -0.9336,1.68851 -1.29096,2.58191 -1.42703,3.56759 -1.29095,2.73772 -1.29095,5.16383"
           id="path18807"
           inkscape:connector-curvature="0"
           transform="matrix(0.02387412,0.13875129,-0.2051369,0.01079218,185.77357,-51.102568)" />
        <path
           inkscape:connector-curvature="0"
           id="path18825"
           d="m 236.71444,641.50971 c -0.86063,1.72127 -1.72127,3.44255 -2.58191,5.16382 0,0.43032 0.13608,0.88272 0,1.29096 -0.30428,0.91284 -0.98667,1.66907 -1.29095,2.58191 -0.13608,0.40824 0.19244,0.90607 0,1.29096 -0.27216,0.54431 -1.0188,0.74664 -1.29096,1.29095 -0.19244,0.38489 0,0.86064 0,1.29096 0,0.43032 0,0.86064 0,1.29095 0,1.72128 0.28298,3.46597 0,5.16383 -0.15819,0.94913 -1.10225,1.63838 -1.29096,2.58191 0,9.84824 0.57734,-1.01838 -1.29095,6.45478 -0.20874,0.83494 0,1.72128 0,2.58191 0,2.58192 0,5.16383 0,7.74574 0,2.58191 0,5.16383 0,7.74574 0,0.86064 0,1.72127 0,2.58191 0,0.43032 -0.10437,0.87349 0,1.29096 0.33004,1.32015 0.96091,2.55271 1.29095,3.87286 0.10437,0.41747 -0.19244,0.90607 0,1.29096 0.27216,0.54432 1.09852,0.71362 1.29096,1.29096 0.27216,0.81647 0,1.72127 0,2.58191 0,0.43032 -0.19244,0.90607 0,1.29096 0.54431,1.08862 2.0376,1.49328 2.58191,2.58191 0.19202,0.38402 0,7.20268 0,7.74573 0,0.43032 -0.19244,0.90607 0,1.29096 0.27216,0.54432 1.0188,0.74664 1.29096,1.29096 0.38489,0.76977 -0.27216,1.76544 0,2.58191 0.30428,0.91284 1.10225,1.63837 1.29095,2.58191 0.42197,2.10981 -0.42196,4.34497 0,6.45478 0.26688,1.33436 1.02409,2.53851 1.29096,3.87287 0.16879,0.84392 0,1.72127 0,2.58191 0,2.58191 0,5.16383 0,7.74574 0,0.67507 0.16972,4.82438 0,5.16382 -0.54431,1.08863 -2.0376,1.49329 -2.58191,2.58192 -0.19245,0.38488 0.19244,0.90606 0,1.29095 -0.34474,0.68948 -3.19323,3.19323 -3.87287,3.87287 -0.43032,0.43032 -0.86064,0.86064 -1.29096,1.29096 -0.43031,0.43031 -1.01879,0.74664 -1.29095,1.29095 -0.14467,0.28934 0,4.85706 0,5.16383 0,2.58191 0,5.16382 0,7.74573 0,1.29096 0.25317,2.60699 0,3.87287 -0.18871,0.94354 -0.9336,1.68851 -1.29096,2.58191 -1.42703,3.56759 -1.29095,2.73772 -1.29095,5.16383"
           style="fill:#653a10;fill-opacity:0.23287671;stroke:#130900;stroke-width:1px;stroke-linecap:butt;stroke-linejoin:miter;stroke-opacity:1;filter:url(#filter18821)"
           transform="matrix(0.02387412,0.13875129,-0.2051369,0.01079218,185.3058,-52.094432)" />
        <path
           sodipodi:nodetypes="sssssssss"
           inkscape:connector-curvature="0"
           id="rect17952"
           d="m 18.215225,-25.953743 h 59.2927 c 1.00562,0 4.06315,0.10731 4.32876,0.408509 l 6.51899,7.392289 c 0.26562,0.301197 -0.85675,0.567913 -1.86237,0.567913 H 9.368132 c -1.005625,0 -2.054992,-0.264138 -1.768038,-0.567913 l 6.982741,-7.392289 c 0.28695,-0.303782 2.62676,-0.408509 3.63239,-0.408509 z"
           style="display:inline;fill:#c37120;fill-opacity:0.57254902;stroke:#7e5a28;stroke-width:0.49758387;stroke-miterlimit:4;stroke-dasharray:none;stroke-opacity:1" />
        <g
           transform="matrix(0.09228894,0,0,0.0978442,-164.45524,17.859178)"
           id="g7966"
           style="opacity:1;stroke:#4f2c00;stroke-width:4.62408686;stroke-miterlimit:4;stroke-dasharray:none;stroke-opacity:1">
          <path
             transform="matrix(0.69372678,0,0,0.69372678,3066.7144,8.875483)"
             style="fill:#d70751;fill-opacity:1;fill-rule:nonzero;stroke:#4f2c00;stroke-width:6.66557312;stroke-miterlimit:4;stroke-dasharray:none;stroke-opacity:1"
             id="path4894-3"
             d="m -733.62329,72.267944 c 0,203.804876 -165.21649,369.021366 -369.02141,369.021366 -203.8048,0 -369.0213,-165.21649 -369.0213,-369.021366 0,-203.804874 165.2165,-369.021364 369.0213,-369.021364 203.80492,0 369.02141,165.21649 369.02141,369.021364 z"
             inkscape:connector-curvature="0" />
          <path
             style="fill:#ffffff;fill-opacity:1;stroke:#4f2c00;stroke-width:0.92481732;stroke-miterlimit:4;stroke-dasharray:none;stroke-opacity:1"
             id="path14-1"
             d="m 2417.7934,47.543579 c 0.3781,10.152391 -2.9626,15.085679 -5.9841,23.80935 l -5.4331,2.701981 c -4.4417,8.631213 0.4408,5.479594 -2.7398,12.341712 -6.9422,6.164541 -21.0359,19.283618 -25.5492,20.485448 -3.2988,-0.0714 2.2314,-3.89122 2.9542,-5.38297 -9.2828,6.37046 -7.4506,9.56411 -21.6496,13.44268 l -0.4117,-0.9287 c -35.0037,16.47242 -83.6311,-16.165636 -82.9924,-60.691553 -0.3698,2.823863 -1.0632,2.117889 -1.8363,3.252442 -1.807,-22.905854 10.5812,-45.912606 31.4739,-55.321192 20.435,-10.1103611 44.3915,-5.9670413 59.0196,7.6857085 -8.0347,-10.5305756 -24.0407,-21.6956605 -42.9965,-20.6619405 -18.5776,0.302554 -35.9624,12.10636887 -41.7609,24.92713 -9.5139,5.988046 -10.6232,23.094957 -14.7667,26.229771 -5.5844,41.01294 10.4931,58.72496 37.6936,79.571804 4.2691,2.88265 1.2019,3.32388 1.7732,5.5174 -9.0347,-4.22736 -17.3047,-10.61462 -24.1118,-18.43481 3.614,5.28209 7.5088,10.41713 12.5474,14.45118 -8.526,-2.87848 -19.9097,-20.64513 -23.2254,-21.367909 14.6868,26.296999 59.578,46.118549 83.0975,36.281299 -10.8834,0.40342 -24.7045,0.22271 -36.9242,-4.29455 -5.1478,-2.64317 -12.1188,-8.11015 -10.8712,-9.13128 32.0878,11.9803 65.2258,9.06824 92.9853,-13.18212 7.0682,-5.50483 14.783,-14.862985 17.0145,-14.989053 -3.3576,5.050992 0.5756,2.42884 -2.0046,6.887333 7.0262,-11.350024 -3.0633,-4.622372 7.2699,-19.598832 l 3.8157,5.252714 c -1.4289,-9.429645 11.7027,-20.867871 10.3664,-35.768679 3.013,-4.555093 3.3576,4.908119 0.1639,15.388277 4.4334,-11.627329 1.1724,-13.497323 2.3071,-23.095011 1.2227,3.227271 2.8491,6.65201 3.6769,10.059933 -2.8911,-11.240715 2.9541,-18.922225 4.4082,-25.456564 -1.4373,-0.630333 -4.4587,4.96691 -5.1562,-8.303445 0.1047,-5.765331 1.6095,-3.021352 2.1852,-4.441675 -1.1262,-0.651337 -4.0973,-5.0719643 -5.9,-13.5476961 1.2985,-1.9960081 3.4963,5.1644218 5.278,5.4543689 -1.1472,-6.73604917 -3.1181,-11.8752466 -3.2021,-17.0480658 -5.2108,-10.883568 -1.8448,1.4539343 -6.0638,-4.672808 -5.5469,-17.287629 4.5972,-4.013042 5.2865,-11.86264 8.3961,12.165205 13.182,31.0328037 15.3881,38.844625 -1.6809,-9.5262902 -4.3914,-18.75838 -7.7064,-27.687948 2.5586,1.07997 -4.1141,-19.594588 3.3234,-5.904007 -7.9376,-29.183868 -33.9446,-56.4558 -57.8761,-69.247138 2.9207,2.676779 6.6144,6.038473 5.295,6.567961 -11.9089,-7.0806 -9.816,-7.63949 -11.5223,-10.631441 -9.686,-3.945809 -10.333,0.32358 -16.7416,0.0087 -18.2793,-9.698549 -21.8007,-8.668999 -38.6218,-14.736899 l 0.7648,3.58022 c -12.1061,-4.03406 -14.1065,1.52116 -27.1876,0.009 -0.7942,-0.61773 4.1934,-2.25234 8.3032,-2.84487 -11.7069,1.54643 -11.1608,-2.31118 -22.616,0.42444 2.8197,-1.97923 5.8117,-3.29447 8.8205,-4.97531 -9.5432,0.57985 -22.7924,5.55522 -18.7037,1.0253 -15.5688,6.95037 -43.2234,16.703522 -58.7418,31.255558 l -0.4874,-3.260894 c -7.1102,8.534568 -31.0079,25.49023 -32.9114,36.554449 l -1.9037,0.44124 c -3.6934,6.265396 -6.0928,13.362803 -9.0259,19.804695 -4.8369,8.248808 -7.0935,3.176844 -6.4042,4.471088 -9.5177,19.2962319 -14.2535,35.5081 -18.334,48.812099 2.908,4.349229 0.072,26.187763 1.1682,43.664462 -4.7737,86.328833 60.5865,170.140603 132.0317,189.487263 10.4716,3.75255 26.0404,3.61807 39.2858,3.98782 -15.6238,-4.47104 -17.641,-2.36577 -32.8695,-7.67311 -10.98,-5.17702 -13.3838,-11.08102 -21.1661,-17.83388 l 3.0802,5.44176 c -15.2537,-5.39974 -8.8705,-6.68137 -21.284,-10.61037 l 3.2904,-4.2904 c -4.946,-0.3782 -13.0979,-8.32865 -15.325,-12.74511 l -5.4126,0.21431 c -6.4966,-8.00928 -9.9631,-13.79563 -9.7067,-18.27933 l -1.7482,3.11803 c -1.9792,-3.39958 -23.9144,-30.07899 -12.5352,-23.86823 -2.1137,-1.92457 -4.925,-3.13898 -7.9712,-8.6816 l 2.3155,-2.64316 c -5.4671,-7.04702 -10.077,-16.0774 -9.724,-19.08615 2.9205,3.94161 4.9459,4.68119 6.9546,5.35776 -13.8295,-34.30629 -14.6069,-1.88677 -25.0743,-34.91982 l 2.2104,-0.17649 c -1.6934,-2.56753 -2.7314,-5.33671 -4.093,-8.06392 l 0.9666,-9.601889 c -9.9509,-11.497095 -2.782,-48.93397 -1.3406,-69.461444 0.9875,-8.345464 8.3078,-17.23298 13.8669,-31.1714785 l -3.3865,-0.579916 c 6.4795,-11.2953735 36.9872,-45.3789635 51.1232,-43.6308725 6.8454,-8.597569 -1.3616,-0.03359 -2.7021,-2.19353 15.0394,-15.56052 19.7668,-10.992776 29.9152,-13.795634 10.938,-6.492266 -9.392,2.538114 -4.2063,-2.475026 18.9221,-4.828278 13.4047,-10.984422 38.0839,-13.434277 2.6054,1.479147 -6.0386,2.285965 -8.207,4.206354 15.7584,-7.715132 49.8755,-5.954434 72.0461,4.277775 25.7045,12.02233 54.6025,47.543037 55.7455,80.962705 l 1.2985,0.348793 c -0.6556,13.28715 2.0338,28.654412 -2.6349,42.765219 l 3.156,-6.685622"
             inkscape:connector-curvature="0" />
        </g>
        <path
           transform="matrix(0.16659727,0,0,0.21529218,3.5670236,-165.86186)"
           sodipodi:nodetypes="csssscc"
           inkscape:connector-curvature="0"
           id="path4894"
           d="m 201.64722,739.67525 h 226.12949 c 10.12749,0 18.63139,8.60007 18.28066,19.26829 l -7.99779,243.26226 c -0.35072,10.6682 -4.72554,20.4724 -14.85301,20.4724 H 254.29105 C 243.58946,964.1348 214.63353,825.85433 201.64722,739.67525 Z"
           style="display:inline;fill:#ffffff;fill-opacity:0.2539683;stroke:none;stroke-width:4.00908136;stroke-linecap:round;stroke-linejoin:round;stroke-miterlimit:4;stroke-dasharray:none;stroke-opacity:1" />
        <ellipse
           cy="57.292591"
           cx="12.041348"
           inkscape:transform-center-y="-69.711632"
           id="ellipse969"
           style="fill:url(#linearGradient908);fill-opacity:1;stroke:#4f2f01;stroke-width:0.59238732;stroke-linejoin:round;stroke-miterlimit:4;stroke-dasharray:none;stroke-opacity:1"
           rx="1.5190228"
           ry="1.5400333" />
        <ellipse
           ry="1.5400333"
           rx="1.5190228"
           style="fill:url(#linearGradient914);fill-opacity:1;stroke:#4f2f01;stroke-width:0.59238732;stroke-linejoin:round;stroke-miterlimit:4;stroke-dasharray:none;stroke-opacity:1"
           id="ellipse971"
           inkscape:transform-center-y="-69.711632"
           cx="11.417649"
           cy="-10.319467" />
        <path
           transform="matrix(-0.12727043,0.0429409,-0.03257386,-0.25869726,65.152371,197.81888)"
           style="fill:#653a10;fill-opacity:0.23287671;stroke:#130900;stroke-width:1px;stroke-linecap:butt;stroke-linejoin:miter;stroke-opacity:1;filter:url(#filter18821);opacity:0.81999998"
           d="m 236.71444,641.50971 c -0.86063,1.72127 -1.72127,3.44255 -2.58191,5.16382 0,0.43032 0.13608,0.88272 0,1.29096 -0.30428,0.91284 -0.98667,1.66907 -1.29095,2.58191 -0.13608,0.40824 0.19244,0.90607 0,1.29096 -0.27216,0.54431 -1.0188,0.74664 -1.29096,1.29095 -0.19244,0.38489 0,0.86064 0,1.29096 0,0.43032 0,0.86064 0,1.29095 0,1.72128 0.28298,3.46597 0,5.16383 -0.15819,0.94913 -1.10225,1.63838 -1.29096,2.58191 0,9.84824 0.57734,-1.01838 -1.29095,6.45478 -0.20874,0.83494 0,1.72128 0,2.58191 0,2.58192 0,5.16383 0,7.74574 0,2.58191 0,5.16383 0,7.74574 0,0.86064 0,1.72127 0,2.58191 0,0.43032 -0.10437,0.87349 0,1.29096 0.33004,1.32015 0.96091,2.55271 1.29095,3.87286 0.10437,0.41747 -0.19244,0.90607 0,1.29096 0.27216,0.54432 1.09852,0.71362 1.29096,1.29096 0.27216,0.81647 0,1.72127 0,2.58191 0,0.43032 -0.19244,0.90607 0,1.29096 0.54431,1.08862 2.0376,1.49328 2.58191,2.58191 0.19202,0.38402 0,7.20268 0,7.74573 0,0.43032 -0.19244,0.90607 0,1.29096 0.27216,0.54432 1.0188,0.74664 1.29096,1.29096 0.38489,0.76977 -0.27216,1.76544 0,2.58191 0.30428,0.91284 1.10225,1.63837 1.29095,2.58191 0.42197,2.10981 -0.42196,4.34497 0,6.45478 0.26688,1.33436 1.02409,2.53851 1.29096,3.87287 0.16879,0.84392 0,1.72127 0,2.58191 0,2.58191 0,5.16383 0,7.74574 0,0.67507 0.16972,4.82438 0,5.16382 -0.54431,1.08863 -2.0376,1.49329 -2.58191,2.58192 -0.19245,0.38488 0.19244,0.90606 0,1.29095 -0.34474,0.68948 -3.19323,3.19323 -3.87287,3.87287 -0.43032,0.43032 -0.86064,0.86064 -1.29096,1.29096 -0.43031,0.43031 -1.01879,0.74664 -1.29095,1.29095 -0.14467,0.28934 0,4.85706 0,5.16383 0,2.58191 0,5.16382 0,7.74573 0,1.29096 0.25317,2.60699 0,3.87287 -0.18871,0.94354 -0.9336,1.68851 -1.29096,2.58191 -1.42703,3.56759 -1.29095,2.73772 -1.29095,5.16383"
           id="path879"
           inkscape:connector-curvature="0" />
        <path
           inkscape:connector-curvature="0"
           id="path881"
           d="m 236.71444,641.50971 c -0.86063,1.72127 -1.72127,3.44255 -2.58191,5.16382 0,0.43032 0.13608,0.88272 0,1.29096 -0.30428,0.91284 -0.98667,1.66907 -1.29095,2.58191 -0.13608,0.40824 0.19244,0.90607 0,1.29096 -0.27216,0.54431 -1.0188,0.74664 -1.29096,1.29095 -0.19244,0.38489 0,0.86064 0,1.29096 0,0.43032 0,0.86064 0,1.29095 0,1.72128 0.28298,3.46597 0,5.16383 -0.15819,0.94913 -1.10225,1.63838 -1.29096,2.58191 0,9.84824 0.57734,-1.01838 -1.29095,6.45478 -0.20874,0.83494 0,1.72128 0,2.58191 0,2.58192 0,5.16383 0,7.74574 0,2.58191 0,5.16383 0,7.74574 0,0.86064 0,1.72127 0,2.58191 0,0.43032 -0.10437,0.87349 0,1.29096 0.33004,1.32015 0.96091,2.55271 1.29095,3.87286 0.10437,0.41747 -0.19244,0.90607 0,1.29096 0.27216,0.54432 1.09852,0.71362 1.29096,1.29096 0.27216,0.81647 0,1.72127 0,2.58191 0,0.43032 -0.19244,0.90607 0,1.29096 0.54431,1.08862 2.0376,1.49328 2.58191,2.58191 0.19202,0.38402 0,7.20268 0,7.74573 0,0.43032 -0.19244,0.90607 0,1.29096 0.27216,0.54432 1.0188,0.74664 1.29096,1.29096 0.38489,0.76977 -0.27216,1.76544 0,2.58191 0.30428,0.91284 1.10225,1.63837 1.29095,2.58191 0.42197,2.10981 -0.42196,4.34497 0,6.45478 0.26688,1.33436 1.02409,2.53851 1.29096,3.87287 0.16879,0.84392 0,1.72127 0,2.58191 0,2.58191 0,5.16383 0,7.74574 0,0.67507 0.16972,4.82438 0,5.16382 -0.54431,1.08863 -2.0376,1.49329 -2.58191,2.58192 -0.19245,0.38488 0.19244,0.90606 0,1.29095 -0.34474,0.68948 -3.19323,3.19323 -3.87287,3.87287 -0.43032,0.43032 -0.86064,0.86064 -1.29096,1.29096 -0.43031,0.43031 -1.01879,0.74664 -1.29095,1.29095 -0.14467,0.28934 0,4.85706 0,5.16383 0,2.58191 0,5.16382 0,7.74573 0,1.29096 0.25317,2.60699 0,3.87287 -0.18871,0.94354 -0.9336,1.68851 -1.29096,2.58191 -1.42703,3.56759 -1.29095,2.73772 -1.29095,5.16383"
           style="opacity:0.81999984;fill:#653a10;fill-opacity:0.23287671;stroke:#130900;stroke-width:1px;stroke-linecap:butt;stroke-linejoin:miter;stroke-opacity:1;filter:url(#filter18821)"
           transform="matrix(-0.12727043,0.03574429,-0.03257386,-0.21534133,136.68193,167.85145)" />
      </g>
    </g>
  </g>
</svg>
