<?xml version="1.0" encoding="UTF-8" standalone="no"?>
<!-- Created with Inkscape (http://www.inkscape.org/) -->

<svg
   xmlns:dc="http://purl.org/dc/elements/1.1/"
   xmlns:cc="http://creativecommons.org/ns#"
   xmlns:rdf="http://www.w3.org/1999/02/22-rdf-syntax-ns#"
   xmlns:svg="http://www.w3.org/2000/svg"
   xmlns="http://www.w3.org/2000/svg"
   xmlns:xlink="http://www.w3.org/1999/xlink"
   xmlns:sodipodi="http://sodipodi.sourceforge.net/DTD/sodipodi-0.dtd"
   xmlns:inkscape="http://www.inkscape.org/namespaces/inkscape"
   version="1.0"
   width="96"
   height="96"
   id="svg2408"
   inkscape:version="0.92.2 5c3e80d, 2017-08-06"
   sodipodi:docname="blogilo.svg">
  <sodipodi:namedview
     pagecolor="#ffffff"
     bordercolor="#666666"
     borderopacity="1"
     objecttolerance="10"
     gridtolerance="10"
     guidetolerance="10"
     inkscape:pageopacity="0"
     inkscape:pageshadow="2"
     inkscape:window-width="1280"
     inkscape:window-height="947"
     id="namedview3378"
     showgrid="false"
     inkscape:zoom="2.5395538"
     inkscape:cx="-8.2640606"
     inkscape:cy="47.791172"
     inkscape:window-x="0"
     inkscape:window-y="19"
     inkscape:window-maximized="1"
     inkscape:current-layer="g2574"
     inkscape:snap-global="false" />
  <defs
     id="defs2410">
    <linearGradient
       id="linearGradient5409">
      <stop
         style="stop-color:#f44800;stop-opacity:1;"
         offset="0"
         id="stop5411" />
      <stop
         style="stop-color:#bc3700;stop-opacity:1;"
         offset="1"
         id="stop5413" />
    </linearGradient>
    <linearGradient
       id="linearGradient3941">
      <stop
         id="stop3943"
         style="stop-color:#ffffff;stop-opacity:1"
         offset="0" />
      <stop
         id="stop3945"
         style="stop-color:#ffffff;stop-opacity:0"
         offset="1" />
    </linearGradient>
    <linearGradient
       x1="45.447727"
       y1="92.539597"
       x2="45.447727"
       y2="7.0165396"
       id="ButtonShadow"
       gradientUnits="userSpaceOnUse"
       gradientTransform="scale(1.0058652,0.994169)">
      <stop
         id="stop3750"
         style="stop-color:#000000;stop-opacity:1"
         offset="0" />
      <stop
         id="stop3752"
         style="stop-color:#000000;stop-opacity:0.58823532"
         offset="1" />
    </linearGradient>
    <linearGradient
       id="linearGradient3737">
      <stop
         id="stop3739"
         style="stop-color:#ffffff;stop-opacity:1"
         offset="0" />
      <stop
         id="stop3741"
         style="stop-color:#ffffff;stop-opacity:0"
         offset="1" />
    </linearGradient>
    <linearGradient
       id="linearGradient3700">
      <stop
         id="stop3702"
         style="stop-color:#f57900;stop-opacity:1"
         offset="0" />
      <stop
         id="stop3704"
         style="stop-color:#f89d44;stop-opacity:1"
         offset="1" />
    </linearGradient>
    <filter
       color-interpolation-filters="sRGB"
       id="filter3174">
      <feGaussianBlur
         id="feGaussianBlur3176"
         stdDeviation="1.71" />
    </filter>
    <linearGradient
       x1="36.357143"
       y1="6"
       x2="36.357143"
       y2="63.893143"
       id="linearGradient3188"
       xlink:href="#linearGradient3737"
       gradientUnits="userSpaceOnUse" />
    <filter
       x="-0.192"
       y="-0.192"
       width="1.3839999"
       height="1.3839999"
       color-interpolation-filters="sRGB"
       id="filter3794">
      <feGaussianBlur
         id="feGaussianBlur3796"
         stdDeviation="5.28" />
    </filter>
    <linearGradient
       x1="48"
       y1="20.220806"
       x2="48"
       y2="138.66119"
       id="linearGradient3613"
       xlink:href="#linearGradient3737"
       gradientUnits="userSpaceOnUse" />
    <radialGradient
       cx="48"
       cy="90.171875"
       r="42"
       fx="48"
       fy="90.171875"
       id="radialGradient3619"
       xlink:href="#linearGradient3737"
       gradientUnits="userSpaceOnUse"
       gradientTransform="matrix(1.1573129,0,0,0.99590774,-7.5510206,0.19713193)" />
    <clipPath
       id="clipPath3613">
      <rect
         width="84"
         height="84"
         rx="6"
         ry="6"
         x="6"
         y="6"
         id="rect3615"
         style="fill:#ffffff;fill-opacity:1;fill-rule:nonzero;stroke:none" />
    </clipPath>
    <linearGradient
       x1="48"
       y1="90"
       x2="48"
       y2="5.9877172"
       id="linearGradient3617"
       xlink:href="#linearGradient3700"
       gradientUnits="userSpaceOnUse" />
    <linearGradient
       x1="45.447727"
       y1="92.539597"
       x2="45.447727"
       y2="7.0165396"
       id="ButtonShadow-0"
       gradientUnits="userSpaceOnUse"
       gradientTransform="matrix(1.0058652,0,0,0.994169,100,0)">
      <stop
         id="stop3750-8"
         style="stop-color:#000000;stop-opacity:1"
         offset="0" />
      <stop
         id="stop3752-5"
         style="stop-color:#000000;stop-opacity:0.58823532"
         offset="1" />
    </linearGradient>
    <linearGradient
       x1="32.251034"
       y1="6.1317081"
       x2="32.251034"
       y2="90.238609"
       id="linearGradient3780"
       xlink:href="#ButtonShadow-0"
       gradientUnits="userSpaceOnUse"
       gradientTransform="matrix(1.0238095,0,0,1.0119048,-1.1428571,-98.071429)" />
    <linearGradient
       x1="32.251034"
       y1="6.1317081"
       x2="32.251034"
       y2="90.238609"
       id="linearGradient3772"
       xlink:href="#ButtonShadow-0"
       gradientUnits="userSpaceOnUse"
       gradientTransform="matrix(1.0238095,0,0,1.0119048,-1.1428571,-98.071429)" />
    <linearGradient
       x1="32.251034"
       y1="6.1317081"
       x2="32.251034"
       y2="90.238609"
       id="linearGradient3725"
       xlink:href="#ButtonShadow-0"
       gradientUnits="userSpaceOnUse"
       gradientTransform="matrix(1.0238095,0,0,1.0119048,-1.1428571,-98.071429)" />
    <linearGradient
       x1="32.251034"
       y1="6.1317081"
       x2="32.251034"
       y2="90.238609"
       id="linearGradient3721"
       xlink:href="#ButtonShadow-0"
       gradientUnits="userSpaceOnUse"
       gradientTransform="translate(0,-97)" />
    <linearGradient
       x1="32.251034"
       y1="6.1317081"
       x2="32.251034"
       y2="90.238609"
       id="linearGradient3026"
       xlink:href="#ButtonShadow-0"
       gradientUnits="userSpaceOnUse"
       gradientTransform="matrix(1.0238095,0,0,1.0119048,-1.1428571,-98.071429)" />
    <linearGradient
       x1="49.983868"
       y1="63.414215"
       x2="49.983868"
       y2="-2.3158617"
       id="linearGradient3947"
       xlink:href="#linearGradient3941"
       gradientUnits="userSpaceOnUse" />
    <linearGradient
       id="linearGradient3936">
      <stop
         id="stop3938"
         style="stop-color:#000000;stop-opacity:1"
         offset="0" />
      <stop
         id="stop3940"
         style="stop-color:#000000;stop-opacity:0"
         offset="1" />
    </linearGradient>
    <linearGradient
       id="linearGradient3294">
      <stop
         id="stop3296"
         style="stop-color:#a1bfe1;stop-opacity:1"
         offset="0" />
      <stop
         id="stop3302"
         style="stop-color:#407dc1;stop-opacity:1"
         offset="0.50094414" />
      <stop
         id="stop3298"
         style="stop-color:#224367;stop-opacity:1"
         offset="1" />
    </linearGradient>
    <linearGradient
       id="linearGradient3202">
      <stop
         id="stop3204"
         style="stop-color:#2b2b2b;stop-opacity:1"
         offset="0" />
      <stop
         id="stop3250"
         style="stop-color:#828383;stop-opacity:1"
         offset="0.5" />
      <stop
         id="stop3206"
         style="stop-color:#dadbdb;stop-opacity:1"
         offset="1" />
    </linearGradient>
    <linearGradient
       id="linearGradient3242">
      <stop
         id="stop3244"
         style="stop-color:#282828;stop-opacity:1"
         offset="0" />
      <stop
         id="stop3252"
         style="stop-color:#969696;stop-opacity:1"
         offset="0.39253417" />
      <stop
         id="stop3246"
         style="stop-color:#e3e3e3;stop-opacity:1"
         offset="1" />
    </linearGradient>
    <linearGradient
       x1="103.94804"
       y1="79.295097"
       x2="134.48746"
       y2="41.356407"
       id="linearGradient3946"
       xlink:href="#linearGradient3936"
       gradientUnits="userSpaceOnUse"
       gradientTransform="matrix(0.84815852,0.52974252,-0.52974252,0.84815852,-2.1584295,-41.320509)" />
    <linearGradient
       x1="102.76233"
       y1="78.680206"
       x2="142.16823"
       y2="30.335871"
       id="linearGradient3176"
       xlink:href="#linearGradient3936"
       gradientUnits="userSpaceOnUse"
       gradientTransform="matrix(0.98565429,0.16877686,-0.16877686,0.98565429,-45.008735,-15.895389)" />
    <radialGradient
       cx="418.45551"
       cy="181.18982"
       r="63.068935"
       fx="418.45551"
       fy="181.18982"
       id="radialGradient4034"
       xlink:href="#linearGradient3242"
       gradientUnits="userSpaceOnUse"
       gradientTransform="matrix(-0.01234502,-0.01124481,0.3176589,-0.34873903,38.557637,90.465077)" />
    <radialGradient
       cx="283.50717"
       cy="382.14804"
       r="17.67668"
       fx="283.50717"
       fy="382.14804"
       id="radialGradient4037"
       xlink:href="#linearGradient3202"
       gradientUnits="userSpaceOnUse"
       gradientTransform="matrix(0.07808342,0.06214543,-0.09525431,0.11968356,90.619342,-23.620235)" />
    <radialGradient
       cx="289.44067"
       cy="390.45248"
       r="17.67668"
       fx="289.44067"
       fy="390.45248"
       id="radialGradient4040"
       xlink:href="#linearGradient3202"
       gradientUnits="userSpaceOnUse"
       gradientTransform="matrix(0.07808342,0.06214543,-0.09525431,0.11968356,71.51635,-1.9903031)" />
    <radialGradient
       cx="425.51019"
       cy="356.62274"
       r="143.34167"
       fx="425.51019"
       fy="356.62274"
       id="radialGradient4043"
       xlink:href="#linearGradient3294"
       gradientUnits="userSpaceOnUse"
       gradientTransform="matrix(-0.01898241,-0.01522718,0.20231986,-0.25221475,8.796203,136.45939)" />
    <linearGradient
       id="linearGradient12946"
       inkscape:collect="always">
      <stop
         id="stop12948"
         offset="0"
         style="stop-color:#ffffff;stop-opacity:1;" />
      <stop
         id="stop12950"
         offset="1"
         style="stop-color:#ffffff;stop-opacity:0;" />
    </linearGradient>
    <linearGradient
       gradientUnits="userSpaceOnUse"
       y2="-34.779079"
       x2="56.280174"
       y1="3.0126896"
       x1="9.0784369"
       id="linearGradient12954"
       xlink:href="#linearGradient12946"
       inkscape:collect="always" />
    <clipPath
       id="clipPath2973-9">
      <rect
         width="84"
         height="84"
         rx="6"
         ry="6"
         x="6"
         y="6"
         id="rect2975-6"
         style="fill:url(#linearGradient2977);fill-opacity:1;fill-rule:nonzero;stroke:none" />
    </clipPath>
    <linearGradient
       id="linearGradient13087">
      <stop
         id="stop13089"
         style="stop-color:#ffffff;stop-opacity:1"
         offset="0" />
      <stop
         id="stop13091"
         style="stop-color:#ffffff;stop-opacity:1"
         offset="0.30000001" />
      <stop
         id="stop13093"
         style="stop-color:#f0f0f0;stop-opacity:1"
         offset="0.89999998" />
      <stop
         id="stop13095"
         style="stop-color:#d2d2d2;stop-opacity:1"
         offset="1" />
    </linearGradient>
    <radialGradient
       cx="48"
       cy="60"
       r="5"
       fx="48"
       fy="60"
       id="radialGradient3979-6"
       xlink:href="#linearGradient3674-5-0"
       gradientUnits="userSpaceOnUse" />
    <linearGradient
       id="linearGradient3983-2">
      <stop
         id="stop3985-6"
         style="stop-color:#ffffff;stop-opacity:1"
         offset="0" />
      <stop
         id="stop3989-2"
         style="stop-color:#868686;stop-opacity:1"
         offset="1" />
    </linearGradient>
    <linearGradient
       x1="43"
       y1="60"
       x2="53"
       y2="60"
       id="linearGradient3973-9"
       xlink:href="#linearGradient3983-2"
       gradientUnits="userSpaceOnUse" />
    <linearGradient
       id="linearGradient3917-6-8">
      <stop
         id="stop3919-2"
         style="stop-color:#000000;stop-opacity:1"
         offset="0" />
      <stop
         id="stop3921-7"
         style="stop-color:#000000;stop-opacity:0"
         offset="1" />
    </linearGradient>
    <linearGradient
       x1="17"
       y1="48"
       x2="120"
       y2="48"
       id="linearGradient3923-1-6"
       xlink:href="#linearGradient3917-6-8"
       gradientUnits="userSpaceOnUse"
       gradientTransform="matrix(0,1,-1,0,96,0)" />
    <linearGradient
       id="linearGradient3899-9">
      <stop
         id="stop3901-8"
         style="stop-color:#ffffff;stop-opacity:1"
         offset="0" />
      <stop
         id="stop3981-6"
         style="stop-color:#ffffff;stop-opacity:0.41221374"
         offset="0.5" />
      <stop
         id="stop3903-5"
         style="stop-color:#868686;stop-opacity:1"
         offset="1" />
    </linearGradient>
    <linearGradient
       x1="13"
       y1="48"
       x2="83"
       y2="48"
       id="linearGradient3905-4"
       xlink:href="#linearGradient3899-9"
       gradientUnits="userSpaceOnUse"
       gradientTransform="matrix(0,1,-1,0,96,0)" />
    <linearGradient
       id="linearGradient3893-7">
      <stop
         id="stop3895-3"
         style="stop-color:#ffffff;stop-opacity:1"
         offset="0" />
      <stop
         id="stop3897-5"
         style="stop-color:#a2a2a2;stop-opacity:1"
         offset="1" />
    </linearGradient>
    <radialGradient
       cx="48.000896"
       cy="46.058418"
       r="3"
       fx="48.000896"
       fy="46.058418"
       id="radialGradient3901-4"
       xlink:href="#linearGradient3893-7"
       gradientUnits="userSpaceOnUse" />
    <filter
       color-interpolation-filters="sRGB"
       id="filter3944-7">
      <feGaussianBlur
         id="feGaussianBlur3946-6"
         stdDeviation="0.4359375" />
    </filter>
    <linearGradient
       id="linearGradient3674-5-0">
      <stop
         id="stop3676-0-2"
         style="stop-color:#ffffff;stop-opacity:1"
         offset="0" />
      <stop
         id="stop3684-9"
         style="stop-color:#ffffff;stop-opacity:1"
         offset="0.30000001" />
      <stop
         id="stop3925-8-3"
         style="stop-color:#f0f0f0;stop-opacity:1"
         offset="0.89999998" />
      <stop
         id="stop3678-8-8"
         style="stop-color:#d2d2d2;stop-opacity:1"
         offset="1" />
    </linearGradient>
    <radialGradient
       cx="48"
       cy="48"
       r="32"
       fx="48"
       fy="48"
       id="radialGradient3682-9"
       xlink:href="#linearGradient3674-5-0"
       gradientUnits="userSpaceOnUse" />
    <linearGradient
       id="linearGradient3873-7">
      <stop
         id="stop3875-0"
         style="stop-color:#f0f0f0;stop-opacity:1"
         offset="0" />
      <stop
         id="stop3877-20-4"
         style="stop-color:#b4b4b4;stop-opacity:1"
         offset="1" />
    </linearGradient>
    <linearGradient
       x1="16"
       y1="48"
       x2="80"
       y2="48"
       id="linearGradient3879-8-8"
       xlink:href="#linearGradient3873-7"
       gradientUnits="userSpaceOnUse" />
    <filter
       color-interpolation-filters="sRGB"
       id="filter3174-4">
      <feGaussianBlur
         id="feGaussianBlur3176-3"
         stdDeviation="1.71" />
    </filter>
    <linearGradient
       id="linearGradient3832-0-6-1-1">
      <stop
         id="stop3834-6-3-7-1"
         offset="0"
         style="stop-color:#000000;stop-opacity:1;" />
      <stop
         style="stop-color:#000000;stop-opacity:0.58823532;"
         offset="0.1"
         id="stop3872-2-4" />
      <stop
         id="stop3844-6-2-7-6"
         offset="0.89999998"
         style="stop-color:#000000;stop-opacity:0.58823532;" />
      <stop
         id="stop3836-5-0-2-9"
         offset="1"
         style="stop-color:#000000;stop-opacity:1;" />
    </linearGradient>
    <linearGradient
       id="linearGradient4091-0-3-0-7">
      <stop
         id="stop4093-3-6-4-2"
         offset="0"
         style="stop-color:#ffffff;stop-opacity:1;" />
      <stop
         style="stop-color:#ffffff;stop-opacity:1;"
         offset="0.80000001"
         id="stop4099-6-1-8-3" />
      <stop
         id="stop4095-1-0-7-9"
         offset="1"
         style="stop-color:#ffffff;stop-opacity:0;" />
    </linearGradient>
    <linearGradient
       id="linearGradient6139-0">
      <stop
         style="stop-color:#b7b7b7;stop-opacity:1;"
         offset="0"
         id="stop6141-2" />
      <stop
         id="stop6151-0"
         offset="0.25"
         style="stop-color:#ffffff;stop-opacity:1;" />
      <stop
         id="stop6147-1"
         offset="0.5"
         style="stop-color:#9d9d9d;stop-opacity:1;" />
      <stop
         style="stop-color:#fafafa;stop-opacity:1;"
         offset="0.75"
         id="stop6149-4" />
      <stop
         style="stop-color:#b7b7b7;stop-opacity:1;"
         offset="1"
         id="stop6143-4" />
    </linearGradient>
    <linearGradient
       x1="49.983868"
       y1="63.414215"
       x2="49.983868"
       y2="-2.3158617"
       id="linearGradient3947-7"
       xlink:href="#linearGradient3941-2"
       gradientUnits="userSpaceOnUse" />
    <linearGradient
       id="linearGradient3941-2">
      <stop
         id="stop3943-5"
         style="stop-color:#ffffff;stop-opacity:1"
         offset="0" />
      <stop
         id="stop3945-2"
         style="stop-color:#ffffff;stop-opacity:0"
         offset="1" />
    </linearGradient>
    <linearGradient
       x1="102.76233"
       y1="78.680206"
       x2="142.16823"
       y2="30.335871"
       id="linearGradient3176-6"
       xlink:href="#linearGradient3936-0"
       gradientUnits="userSpaceOnUse"
       gradientTransform="rotate(9.7167107,71.000007,-272.71085)" />
    <linearGradient
       id="linearGradient3936-0">
      <stop
         id="stop3938-3"
         style="stop-color:#000000;stop-opacity:1"
         offset="0" />
      <stop
         id="stop3940-3"
         style="stop-color:#000000;stop-opacity:0"
         offset="1" />
    </linearGradient>
    <radialGradient
       cx="425.51019"
       cy="356.62274"
       r="143.34167"
       fx="425.51019"
       fy="356.62274"
       id="radialGradient4043-2"
       xlink:href="#linearGradient3294-5"
       gradientUnits="userSpaceOnUse"
       gradientTransform="matrix(-0.01898241,-0.01522718,0.20231986,-0.25221475,8.796203,136.45939)" />
    <linearGradient
       id="linearGradient3294-5">
      <stop
         id="stop3296-7"
         style="stop-color:#a1bfe1;stop-opacity:1"
         offset="0" />
      <stop
         id="stop3302-8"
         style="stop-color:#407dc1;stop-opacity:1"
         offset="0.50094414" />
      <stop
         id="stop3298-0"
         style="stop-color:#224367;stop-opacity:1"
         offset="1" />
    </linearGradient>
    <radialGradient
       cx="289.44067"
       cy="390.45248"
       r="17.67668"
       fx="289.44067"
       fy="390.45248"
       id="radialGradient4040-7"
       xlink:href="#linearGradient3202-7"
       gradientUnits="userSpaceOnUse"
       gradientTransform="matrix(0.07808342,0.06214543,-0.09525431,0.11968356,71.51635,-1.9903031)" />
    <linearGradient
       id="linearGradient3202-7">
      <stop
         id="stop3204-4"
         style="stop-color:#2b2b2b;stop-opacity:1"
         offset="0" />
      <stop
         id="stop3250-6"
         style="stop-color:#828383;stop-opacity:1"
         offset="0.5" />
      <stop
         id="stop3206-9"
         style="stop-color:#dadbdb;stop-opacity:1"
         offset="1" />
    </linearGradient>
    <radialGradient
       cx="283.50717"
       cy="382.14804"
       r="17.67668"
       fx="283.50717"
       fy="382.14804"
       id="radialGradient4037-3"
       xlink:href="#linearGradient3202-7"
       gradientUnits="userSpaceOnUse"
       gradientTransform="matrix(0.07808342,0.06214543,-0.09525431,0.11968356,90.619342,-23.620235)" />
    <linearGradient
       id="linearGradient5446">
      <stop
         id="stop5448"
         style="stop-color:#2b2b2b;stop-opacity:1"
         offset="0" />
      <stop
         id="stop5450"
         style="stop-color:#828383;stop-opacity:1"
         offset="0.5" />
      <stop
         id="stop5452"
         style="stop-color:#dadbdb;stop-opacity:1"
         offset="1" />
    </linearGradient>
    <radialGradient
       cx="418.45551"
       cy="181.18982"
       r="63.068935"
       fx="418.45551"
       fy="181.18982"
       id="radialGradient4034-8"
       xlink:href="#linearGradient3242-4"
       gradientUnits="userSpaceOnUse"
       gradientTransform="matrix(-0.01234502,-0.01124481,0.3176589,-0.34873903,38.557637,90.465077)" />
    <linearGradient
       id="linearGradient3242-4">
      <stop
         id="stop3244-2"
         style="stop-color:#282828;stop-opacity:1"
         offset="0" />
      <stop
         id="stop3252-8"
         style="stop-color:#969696;stop-opacity:1"
         offset="0.39253417" />
      <stop
         id="stop3246-8"
         style="stop-color:#e3e3e3;stop-opacity:1"
         offset="1" />
    </linearGradient>
    <linearGradient
       x1="103.94804"
       y1="79.295097"
       x2="134.48746"
       y2="41.356407"
       id="linearGradient3946-1"
       xlink:href="#linearGradient3936-0"
       gradientUnits="userSpaceOnUse"
       gradientTransform="rotate(31.988059,71.000001,-24.425403)" />
    <linearGradient
       id="linearGradient5460">
      <stop
         id="stop5462"
         style="stop-color:#000000;stop-opacity:1"
         offset="0" />
      <stop
         id="stop5464"
         style="stop-color:#000000;stop-opacity:0"
         offset="1" />
    </linearGradient>
    <linearGradient
       inkscape:collect="always"
       xlink:href="#linearGradient6139-0-3"
       id="linearGradient4071"
       gradientUnits="userSpaceOnUse"
       gradientTransform="matrix(1.1071428,0,0,1.1071426,-4.9939026,-3.620687)"
       x1="6"
       y1="47.000011"
       x2="90"
       y2="47.000011" />
    <linearGradient
       id="linearGradient6139-0-3">
      <stop
         id="stop6141-2-6"
         offset="0"
         style="stop-color:#b2babc;stop-opacity:1" />
      <stop
         style="stop-color:#ffffff;stop-opacity:1;"
         offset="0.25"
         id="stop6151-0-7" />
      <stop
         style="stop-color:#96a1a4;stop-opacity:1"
         offset="0.5"
         id="stop6147-1-5" />
      <stop
         id="stop6149-4-3"
         offset="0.75"
         style="stop-color:#fbf9f9;stop-opacity:1;" />
      <stop
         id="stop6143-4-5"
         offset="1"
         style="stop-color:#b2b9bc;stop-opacity:1" />
    </linearGradient>
    <linearGradient
       gradientTransform="translate(0.1489535,0.415026)"
       inkscape:collect="always"
       xlink:href="#linearGradient3832-0-6-1-1"
       id="linearGradient4129"
       x1="1.5"
       y1="88.171875"
       x2="94.5"
       y2="88.171875"
       gradientUnits="userSpaceOnUse" />
    <radialGradient
       inkscape:collect="always"
       xlink:href="#linearGradient3941"
       id="radialGradient7462"
       gradientUnits="userSpaceOnUse"
       gradientTransform="matrix(0.97513378,0,0,0.04919072,34.047649,80.581722)"
       cx="13.948145"
       cy="44.892841"
       fx="13.948145"
       fy="44.892841"
       r="43.199203" />
    <radialGradient
       inkscape:collect="always"
       xlink:href="#linearGradient3941"
       id="radialGradient7464"
       gradientUnits="userSpaceOnUse"
       gradientTransform="matrix(0.88832663,0,0,0.04919072,31.959518,-90.31726)"
       cx="13.948145"
       cy="44.892841"
       fx="13.948145"
       fy="44.892841"
       r="43.199203" />
    <linearGradient
       inkscape:collect="always"
       xlink:href="#linearGradient3941"
       id="linearGradient4767"
       gradientUnits="userSpaceOnUse"
       x1="2.7713892"
       y1="-28.64156"
       x2="50.527882"
       y2="14.514202" />
    <clipPath
       id="clipPath4156-4-1"
       clipPathUnits="userSpaceOnUse">
      <path
         inkscape:connector-curvature="0"
         id="path4158-0-8"
         d="m 27.046336,-55.695463 -14.21366,13.321486 h 0.06127 l 15.653407,21.770763 10.231384,-10.546177 C 38.561832,-32.30156 27.468089,-54.819245 27.046336,-55.695463 Z M 9.6468554,-39.382809 -5.2407289,-25.32124 15.987863,-7.8059573 26.372412,-18.382966 Z m 31.4906096,12.951445 -9.741259,9.713584 8.944804,12.4580526 7.780753,-7.5550056 z m -49.8397109,4.378822 -13.7541661,12.9822847 26.2830181,13.84571 0.06127,-0.0617 -0.122531,-0.0617 L 13.598503,-5.4007374 -8.7022409,-22.052595 Z m 38.0154159,7.400825 -9.802525,9.7752596 11.579232,9.5594001 7.62759,-7.40083 -8.669108,-11.0087257 z m 20.187073,5.6739697 -7.382526,7.2158 6.187844,8.54179 5.820249,-6.13651996 z m -32.195166,6.32154 -9.5574606,9.49772 13.6622686,7.1849703 7.933918,-7.6783603 z m 23.311629,2.37443004 -7.10683,6.93826996 8.362778,6.9074403 5.360756,-5.6739699 -0.06127,-0.0925 -0.0919,0.12335 -6.463539,-8.20258036 z m -8.730374,8.54178036 -7.505057,7.3391599 10.353916,5.45811 c 1.397496,-1.32103 5.67514,-6.12292 5.850882,-6.32154 z"
         style="opacity:0.6;fill:#ffffff;fill-opacity:1;stroke:none" />
    </clipPath>
    <clipPath
       clipPathUnits="userSpaceOnUse"
       id="clipPath4355-7">
      <rect
         style="fill:#ffffff;fill-opacity:1;fill-rule:nonzero;stroke:none"
         id="rect4357-5"
         width="84"
         height="80"
         x="6"
         y="6"
         rx="6"
         ry="6" />
    </clipPath>
    <clipPath
       clipPathUnits="userSpaceOnUse"
       id="clipPath4355-9">
      <rect
         style="fill:#ffffff;fill-opacity:1;fill-rule:nonzero;stroke:none"
         id="rect4357-1"
         width="84"
         height="80"
         x="6"
         y="6"
         rx="6"
         ry="6" />
    </clipPath>
    <clipPath
       clipPathUnits="userSpaceOnUse"
       id="clipPath4355-1">
      <rect
         style="fill:#ffffff;fill-opacity:1;fill-rule:nonzero;stroke:none"
         id="rect4357-9"
         width="84"
         height="80"
         x="6"
         y="6"
         rx="6"
         ry="6" />
    </clipPath>
    <clipPath
       clipPathUnits="userSpaceOnUse"
       id="clipPath3943-52-0">
      <path
         id="path3945-4-1"
         d="m 69.78125,20.84375 -5,3.4375 c 5.586891,5.537137 9,13.327613 9,21.8125 0,8.434478 -3.37723,16.095981 -8.90625,21.625 l 5,3.4375 C 76.078226,64.5762 80,55.843726 80,46.09375 c 2e-6,-9.796556 -3.962955,-18.660417 -10.21875,-25.25 z M 40,24.0625 28.90625,36.21875 H 21.5 c -0.823281,0 -1.5,0.676717 -1.5,1.5 v 1 14.84375 1 c 0,0.823281 0.684121,1.610161 1.5,1.5 h 7.40625 L 40,68 V 66 26.0625 Z m 20.59375,3.28125 -5,3.4375 L 55.5,30.875 c 3.93815,3.890071 6.40625,9.25018 6.40625,15.21875 0,5.920869 -2.42961,11.148358 -6.3125,15.03125 l 0.09375,0.09375 5.09375,3.4375 c 4.475428,-4.908367 7.25,-11.402005 7.25,-18.5625 0,-7.230696 -2.87904,-13.83107 -7.4375,-18.75 z m -9.25,6.5 -5.21875,3.625 c 2.222384,2.217802 3.71875,5.239596 3.71875,8.625 0,3.336509 -1.458847,6.227712 -3.625,8.4375 l 5.21875,3.625 c 2.822412,-3.236947 4.53125,-7.43414 4.53125,-12.0625 0,-4.672601 -1.754155,-9.001351 -4.625,-12.25 z"
         style="color:#000000;display:inline;overflow:visible;visibility:visible;opacity:0.8;fill:#ff00ff;fill-opacity:1;fill-rule:nonzero;stroke:none;stroke-width:1;marker:none;enable-background:accumulate"
         inkscape:connector-curvature="0" />
    </clipPath>
    <radialGradient
       cx="425.51019"
       cy="356.62274"
       r="143.34167"
       fx="425.51019"
       fy="356.62274"
       id="radialGradient4043-2-0"
       xlink:href="#linearGradient3294"
       gradientUnits="userSpaceOnUse"
       gradientTransform="matrix(-0.01898241,-0.01522718,0.20231986,-0.25221475,8.796203,136.45939)" />
    <radialGradient
       cx="289.44067"
       cy="390.45248"
       r="17.67668"
       fx="289.44067"
       fy="390.45248"
       id="radialGradient4040-7-0"
       xlink:href="#linearGradient3202"
       gradientUnits="userSpaceOnUse"
       gradientTransform="matrix(0.07808342,0.06214543,-0.09525431,0.11968356,71.51635,-1.9903031)" />
    <radialGradient
       cx="283.50717"
       cy="382.14804"
       r="17.67668"
       fx="283.50717"
       fy="382.14804"
       id="radialGradient4037-3-1"
       xlink:href="#linearGradient3202"
       gradientUnits="userSpaceOnUse"
       gradientTransform="matrix(0.07808342,0.06214543,-0.09525431,0.11968356,90.619342,-23.620235)" />
    <radialGradient
       cx="418.45551"
       cy="181.18982"
       r="63.068935"
       fx="418.45551"
       fy="181.18982"
       id="radialGradient4034-8-8"
       xlink:href="#linearGradient3242"
       gradientUnits="userSpaceOnUse"
       gradientTransform="matrix(-0.01234502,-0.01124481,0.3176589,-0.34873903,38.557637,90.465077)" />
    <linearGradient
       inkscape:collect="always"
       xlink:href="#linearGradient3700"
       id="linearGradient1189"
       x1="14.119529"
       y1="47.955292"
       x2="75.156403"
       y2="47.955292"
       gradientUnits="userSpaceOnUse" />
  </defs>
  <metadata
     id="metadata2413">
    <rdf:RDF>
      <cc:Work
         rdf:about="">
        <dc:format>image/svg+xml</dc:format>
        <dc:type
           rdf:resource="http://purl.org/dc/dcmitype/StillImage" />
        <dc:title />
      </cc:Work>
    </rdf:RDF>
  </metadata>
  <g
     id="layer2"
     style="display:none">
    <rect
       width="86"
       height="85"
       rx="6"
       ry="6"
       x="5"
       y="7"
       id="rect3745"
       style="opacity:0.9;fill:url(#ButtonShadow);fill-opacity:1;fill-rule:nonzero;stroke:none;filter:url(#filter3174)" />
  </g>
  <g
     id="layer5"
     style="display:none">
    <rect
       width="66"
       height="66"
       rx="12"
       ry="12"
       x="15"
       y="15"
       clip-path="url(#clipPath3613)"
       id="rect3171"
       style="opacity:0.1;fill:url(#linearGradient3613);fill-opacity:1;fill-rule:nonzero;stroke:#ffffff;stroke-width:0.5;stroke-linecap:round;stroke-linejoin:miter;stroke-miterlimit:4;stroke-opacity:1;stroke-dasharray:none;stroke-dashoffset:0;filter:url(#filter3794)" />
  </g>
  <g
     transform="translate(-4.4706249e-7,32)"
     inkscape:label="Layer 1"
     id="layer1-8">
    <g
       id="g12958"
       transform="matrix(0.97513378,0,0,0.97660611,33.898696,9.6573789)">
      <g
         id="g3272"
         transform="matrix(1.1353753,0,0,1.1336634,-330.44396,-55.494461)">
        <g
           transform="matrix(0.90322585,0,0,0.90322601,227.15938,13.265553)"
           id="g5393">
          <g
             transform="translate(-116.94968,-90.960863)"
             id="layer6">
            <g
               transform="translate(153.78018,-937.70687)"
               id="layer1"
               inkscape:label="Livello 1">
              <g
                 id="g2574"
                 style="display:inline"
                 transform="translate(-0.14895645,1026.1047)">
                <path
                   style="display:inline;opacity:0.15;fill:#000000;fill-opacity:1;fill-rule:nonzero;stroke:none"
                   d="M 89.29181,0.415026 H 7.0060911 c -3.798848,0 -6.8571352,3.058285 -6.8571352,6.8571399 V 89.557884 c 0,3.798857 3.0582872,6.857142 6.8571352,6.857142 H 89.29181 c 3.798857,0 6.857147,-3.058285 6.857147,-6.857142 V 7.2721659 c 0,-3.7988549 -3.05829,-6.8571399 -6.857147,-6.8571399 z"
                   id="path3288"
                   inkscape:connector-curvature="0" />
                <path
                   inkscape:connector-curvature="0"
                   id="path4085"
                   d="M 88.648954,1.165026 H 7.6489471 c -3.739492,0 -6.749993,3.010499 -6.749993,6.7499969 V 88.915026 c 0,3.739501 3.010501,6.75 6.749993,6.75 H 88.648954 c 3.739503,0 6.750003,-3.010499 6.750003,-6.75 V 7.9150229 c 0,-3.7394979 -3.0105,-6.7499969 -6.750003,-6.7499969 z"
                   style="display:inline;opacity:0.15;fill:#000000;fill-opacity:1;fill-rule:nonzero;stroke:none" />
                <path
                   style="display:inline;fill:url(#linearGradient4071);fill-opacity:1;fill-rule:nonzero;stroke:none"
                   d="M 88.006093,1.915026 H 8.2918111 c -3.680143,0 -6.6428566,2.962713 -6.6428566,6.6428549 V 88.272171 c 0,3.680142 2.9627136,6.642856 6.6428566,6.642856 H 88.006093 c 3.680143,0 6.642854,-2.962714 6.642854,-6.642856 V 8.5578809 c 0,-3.6801419 -2.962711,-6.6428549 -6.642854,-6.6428549 z"
                   id="rect4251-1"
                   inkscape:connector-curvature="0" />
                <path
                   style="display:inline;opacity:0.77864583;fill:#f5f3f3;fill-opacity:1;fill-rule:nonzero;stroke:none;stroke-width:1.02950251"
                   d="m 11.390247,6.8021682 c -2.8564964,0 -5.1241284,2.2883782 -5.1241284,5.1710028 v 21.42734 7.239403 39.913674 c 1.0972399,1.684484 2.9688485,2.811732 5.1241284,2.811732 h 4.099303 65.588849 4.099302 c 2.155281,0 4.026889,-1.127248 5.124129,-2.811732 V 40.639914 33.400511 11.973171 c 0,-2.8826246 -2.267632,-5.1710028 -5.124129,-5.1710028 z"
                   id="path3400-6"
                   inkscape:connector-curvature="0"
                   sodipodi:nodetypes="sscccsccscccsss" />
                <path
                   inkscape:connector-curvature="0"
                   id="path4989"
                   d="m 9.9740341,5.1444869 c -3.116621,0 -5.667965,2.53951 -5.667965,5.6460041 v 69.277996 c 0,3.106495 2.551344,5.646004 5.667965,5.646004 H 86.765819 c 3.116621,0 5.667968,-2.539509 5.667968,-5.646004 V 10.790491 c 0,-3.1064931 -2.551347,-5.6460041 -5.667968,-5.6460041 z m 0,2.319439 H 86.765819 c 1.888099,0 3.352022,1.480095 3.352022,3.3265651 v 69.277996 c 0,1.846474 -1.463923,3.326564 -3.352022,3.326564 H 9.9740341 c -1.888099,0 -3.352022,-1.48009 -3.352022,-3.326564 V 10.790491 c 0,-1.8464701 1.463923,-3.3265651 3.352022,-3.3265651 z"
                   style="color:#000000;font-style:normal;font-variant:normal;font-weight:normal;font-stretch:normal;font-size:medium;line-height:normal;font-family:Sans;-inkscape-font-specification:Sans;text-indent:0;text-align:start;text-decoration:none;text-decoration-line:none;letter-spacing:normal;word-spacing:normal;text-transform:none;writing-mode:lr-tb;direction:ltr;baseline-shift:baseline;text-anchor:start;display:inline;overflow:visible;visibility:visible;fill:#241f1f;fill-opacity:0.63265303;stroke:none;stroke-width:2.3755002;marker:none;enable-background:accumulate" />
                <path
                   inkscape:connector-curvature="0"
                   style="display:inline;opacity:0.65818182;fill:url(#linearGradient4129);fill-opacity:1;fill-rule:nonzero;stroke:none"
                   d="m 1.6489535,82.258776 v 6 c 0,3.680142 2.9761066,6.65625 6.6562496,6.65625 H 87.992703 c 3.680143,0 6.656254,-2.976108 6.656254,-6.65625 v -6 c 0,3.680142 -2.976111,6.65625 -6.656254,6.65625 H 8.3052031 c -3.680143,0 -6.6562496,-2.976108 -6.6562496,-6.65625 z"
                   id="path4118" />
                <rect
                   style="opacity:0.55;fill:url(#radialGradient7462);fill-opacity:1;stroke:none"
                   id="rect4131"
                   width="84.250008"
                   height="4.25"
                   x="5.5239539"
                   y="80.665031"
                   rx="0"
                   ry="4.25" />
                <g
                   transform="translate(-6.7132671,-5.1213545)"
                   id="g1088">
                  <g
                     id="layer4"
                     transform="translate(-1.1500472e-6)"
                     style="fill:url(#linearGradient1189);fill-opacity:1.0">
                    <path
                       d="m 47.9375,20.9375 c -11.495625,-0.0624 -22.308884,7.982906 -25.59375,19 -0.0028,0.0093 0.0028,0.0219 0,0.03125 -1.105404,3.144799 -1.104761,6.351885 -1.375,9.34375 -0.187896,1.067439 -0.776742,1.616187 -1.71875,2.09375 -0.942008,0.477563 -2.183675,0.757704 -3.34375,1.03125 a 0.97291882,0.97291882 0 0 0 -0.3125,0.125 c -1.103523,0.732375 -1.435454,1.976796 -1.46875,2.96875 -0.0333,0.991954 0.09911,1.879599 0.03125,2.46875 a 0.97291882,0.97291882 0 0 0 0,0.125 c 0.04166,4.571092 -0.08484,9.187993 0.0625,13.8125 a 0.97291882,0.97291882 0 0 0 0,0.125 c 0.101838,0.666935 0.436034,1.257982 0.875,1.65625 0.438966,0.398268 0.961464,0.601161 1.46875,0.71875 0.980377,0.227252 1.93894,0.125563 2.6875,0.03125 0.02611,-0.0033 0.06822,0.0033 0.09375,0 0.0018,-9.1e-5 -0.0018,-0.03116 0,-0.03125 7.617994,-0.385714 14.890917,-4.32746 19.34375,-10.5625 -0.01645,2.883579 -0.101409,5.788945 0.0625,8.71875 a 0.97291882,0.97291882 0 0 0 0.03125,0.21875 c 0.201863,0.647907 0.6101,1.195511 1.09375,1.53125 0.48365,0.335739 1.028891,0.49018 1.53125,0.5625 1.004718,0.14464 1.967428,0.007 2.59375,0.03125 4.619863,0.07778 9.488833,0.06634 14.03125,-1.875 0.0088,-0.0034 0.02244,0.0034 0.03125,0 10.474298,-3.993882 17.629124,-14.921278 17.0625,-26.125 -2.45e-4,-0.01047 2.58e-4,-0.02078 0,-0.03125 -0.285854,-11.593494 -8.782234,-22.2393 -20.03125,-25.0625 -0.0099,-0.0028 -0.02132,0.0028 -0.03125,0 -2.356734,-0.671352 -4.792507,-0.841179 -7.09375,-0.90625 a 0.97291882,0.97291882 0 0 0 -0.03125,0 z m 0.4375,22.46875 c 2.415134,0.155207 4.562554,2.525544 4.21875,4.96875 a 0.97291882,0.97291882 0 0 0 0,0.0625 c -0.161934,2.523663 -2.786322,4.311914 -5.25,4 a 0.97291882,0.97291882 0 0 0 -0.125,0 H 43.4375 c 0.161485,-1.273048 0.171232,-2.536145 0.1875,-3.65625 0.02159,-1.48665 0.189422,-2.693634 1.0625,-3.71875 a 0.97291882,0.97291882 0 0 0 0,-0.03125 c 0.837401,-1.06192 2.207965,-1.52407 3.6875,-1.625 z"
                       id="path3902"
                       style="color:#000000;display:inline;overflow:visible;visibility:visible;opacity:0.1;fill:#4d4d4d;fill-opacity:1;fill-rule:nonzero;stroke:none;stroke-width:1.5;marker:none;enable-background:accumulate"
                       inkscape:connector-curvature="0" />
                    <path
                       d="M 47.9375,21.90625 C 36.890027,21.84628 26.397855,29.648798 23.257831,40.244273 22.208235,43.21054 22.213079,46.373017 21.930121,49.455874 21.43949,52.243152 18.409572,52.836297 16.125,53.375 c -1.587123,1.053326 -0.817455,3.15714 -1,4.74187 0.04187,4.594719 -0.08362,9.203289 0.0625,13.78938 0.29088,1.90497 2.606342,1.77378 4.046683,1.588715 8.338221,-0.38991 16.467229,-5.086886 20.390817,-12.557465 0.06002,3.862321 -0.121644,7.74368 0.09375,11.59375 0.584378,1.875645 2.796102,1.379251 4.299503,1.4375 4.612976,0.07766 9.353074,0.04439 13.671345,-1.809182 C 67.7707,68.328856 74.727996,57.73103 74.169207,46.956203 73.908641,35.806755 65.622626,25.484452 54.801951,22.782845 52.56644,22.141827 50.219254,21.97077 47.9375,21.90625 Z M 48.375,42.4375 c 3.019959,0.147433 5.624464,2.981471 5.191391,6.059056 -0.201499,3.140266 -3.35443,5.289574 -6.354942,4.909694 -1.622566,0 -3.245133,0 -4.867699,0 0.841127,-2.947262 -0.585997,-6.411826 1.579591,-8.954528 1.079434,-1.368846 2.782696,-1.912295 4.451659,-2.014222 z"
                       inkscape:connector-curvature="0"
                       id="path3893"
                       style="color:#000000;display:inline;overflow:visible;visibility:visible;opacity:0.15;fill:#4d4d4d;fill-opacity:1;fill-rule:nonzero;stroke:none;stroke-width:1.5;marker:none;enable-background:accumulate" />
                    <path
                       d="M 47.9375,23.03125 C 34.29,23.146198 23.21875,34.262964 23.21875,47.9375 c 0,0.07206 -8.43e-4,0.154626 0,0.25 1.05e-4,0.01192 -1.74e-4,0.01922 0,0.03125 -0.126881,2.927839 -1.58247,4.288037 -3.09375,5.09375 -1.517243,0.808892 -3.03125,0.90625 -3.03125,0.90625 A 0.9018185,0.9018185 0 0 0 16.25,55.125 v 16.40625 a 0.9018185,0.9018185 0 0 0 0.90625,0.90625 c 8.761837,0 14.923763,-3.5763 18.8125,-8.125 3.888737,-4.5487 5.5625,-10.010524 5.5625,-14.03125 v -2.34375 -0.125 -0.03125 c 0.09208,-3.506159 2.925238,-6.310212 6.4375,-6.40625 a 0.9018185,0.9018185 0 0 0 0.46875,-0.15625 0.9018185,0.9018185 0 0 0 0.5,0.21875 c 3.279468,0.387746 5.78125,3.108839 5.78125,6.5 0,3.614428 -2.874743,6.524906 -6.46875,6.59375 -0.03125,5.78e-4 -0.03384,0 -0.09375,0 h -6.5 A 0.9018185,0.9018185 0 0 0 40.75,55.4375 v 16.5 a 0.9018185,0.9018185 0 0 0 0.90625,0.90625 h 6.1875 c 0.111859,0.0013 0.222485,0 0.3125,0 13.745173,0 24.90625,-11.161075 24.90625,-24.90625 0,-13.43796 -10.67754,-24.392014 -24,-24.875 A 0.9018185,0.9018185 0 0 0 48.5,23.21875 0.9018185,0.9018185 0 0 0 47.9375,23.03125 Z"
                       id="path3889"
                       style="color:#000000;display:inline;overflow:visible;visibility:visible;opacity:0.3;fill:#4d4d4d;fill-opacity:1;fill-rule:nonzero;stroke:none;stroke-width:1.5;marker:none;enable-background:accumulate"
                       inkscape:connector-curvature="0" />
                    <path
                       d="m 47.938834,23.95191 c -13.16298,0.110867 -23.804602,10.801116 -23.804602,23.990254 0,0.08977 -0.0013,0.17847 0,0.268163 C 23.87634,54.729775 17.162,55.120675 17.162,55.120675 v 16.399184 c 17.039567,0 23.474555,-13.718692 23.474555,-21.246742 v -2.330953 -0.165023 c 0.08612,-3.99671 3.310426,-7.193126 7.302279,-7.302278 z m 1.093279,0.02063 v 16.54358 c 3.720329,0.439871 6.600929,3.585154 6.600929,7.426045 0,4.094313 -3.268173,7.430494 -7.343534,7.508558 -0.04864,8.99e-4 -0.09555,0 -0.144395,0 h -6.477162 c 0,5.500774 0,11.001549 0,16.502324 h 6.188371 c 0.09657,0.0011 0.191948,0 0.288791,0 13.258112,0 24.010881,-10.752768 24.010881,-24.010882 0,-12.961287 -10.276308,-23.503855 -23.123881,-23.969625 z"
                       inkscape:connector-curvature="0"
                       id="path3864"
                       style="color:#000000;display:inline;overflow:visible;visibility:visible;fill:url(#linearGradient1189);fill-opacity:1.0;fill-rule:nonzero;stroke:none;stroke-width:1.5;marker:none;enable-background:accumulate" />
                  </g>
                  <path
                     d="m 58.811305,64.806923 c -0.0013,-7.53e-4 -1.401983,-0.774234 -3.163969,-2.146656 v 0 C 54.125603,61.476885 53.09831,60.360533 53.097181,60.359404 v 0 l -0.02297,-0.02504 0.686493,-0.879111 0.02956,-0.0386 0.03182,0.03709 c 0.0032,0.0019 1.016749,1.185264 2.584235,2.406304 v 0 c 1.489913,1.159281 3.124429,1.993202 3.127818,1.994897 v 0 l 0.04312,0.02203 -0.736389,0.946329 -0.02956,-0.01638 v 0 z m -3.114638,-2.20992 c 1.608909,1.253236 2.912606,2.004123 3.123487,2.122932 v 0 L 59.455057,63.9039 C 59.187125,63.764003 57.71284,62.977718 56.357176,61.922936 v 0 c -1.412903,-1.100535 -2.379378,-2.17151 -2.563335,-2.380885 v 0 l -0.614567,0.787792 c 0.159855,0.170399 1.131603,1.189972 2.517393,2.26716 z"
                     inkscape:connector-curvature="0"
                     id="path4824"
                     style="fill:#4d4d4d" />
                  <path
                     d="m 58.800638,64.465415 c 0,0 10.021885,-10.75183 19.831506,-22.591302 l 0.428489,0.132305 c 0,0 20.344107,-22.295585 15.367847,-24.100695 0,0 -2.48812,-4.927466 -22.002856,18.782933 l -0.03753,0.355809 C 63.384249,47.428206 53.379974,60.088795 53.379974,60.088795 45.652535,71.196981 41.064367,79.407388 41.44384,80.200834 41.959655,81.279353 58.83058,64.573465 58.800638,64.465415 Z"
                     inkscape:connector-curvature="0"
                     id="path3254"
                     style="fill:url(#radialGradient4043-2-0);fill-opacity:1;fill-rule:evenodd;stroke:#13345c;stroke-width:0.5;stroke-linecap:butt;stroke-linejoin:miter;stroke-miterlimit:4;stroke-dasharray:none;stroke-opacity:1" />
                  <path
                     d="m 53.052249,60.295772 c 2.190592,2.242344 5.761083,4.519174 5.761083,4.519174 l 0.707197,-0.896934 C 57.097641,62.651764 53.72495,59.433343 53.72495,59.433343 Z"
                     inkscape:connector-curvature="0"
                     id="path2430"
                     style="fill:url(#radialGradient4040-7-0);fill-opacity:1;fill-rule:evenodd;stroke:none" />
                  <path
                     d="m 72.000002,36.975464 c 3.86372,2.466573 6.8995,5.450604 6.8995,5.450604 l 0.517461,-0.603703 C 77.356299,39.64193 72.509451,36.343176 72.509451,36.343176 Z"
                     inkscape:connector-curvature="0"
                     id="path3236"
                     style="fill:url(#radialGradient4037-3-1);fill-opacity:1;fill-rule:evenodd;stroke:none" />
                  <path
                     d="m 93.224586,17.277397 c 2.035353,0.17248 2.380329,1.966357 2.380329,1.966357 -9.279829,9.659296 -22.871843,23.699783 -22.871843,23.699783 l -0.68995,-0.586461 C 84.013755,28.006116 93.224586,17.277397 93.224586,17.277397"
                     inkscape:connector-curvature="0"
                     id="path3240"
                     style="fill:url(#radialGradient4034-8-8);fill-opacity:1;fill-rule:evenodd;stroke:none" />
                </g>
                <rect
                   ry="4.25"
                   rx="0"
                   y="-90.233963"
                   x="5.9750223"
                   height="4.25"
                   width="76.75"
                   id="rect4141"
                   style="opacity:0.669;fill:url(#radialGradient7464);fill-opacity:1;stroke:none"
                   transform="rotate(90)" />
                <rect
                   transform="matrix(1.0692451,0,0,1.0476829,4.4441802,38.894013)"
                   style="opacity:0.63461538;fill:url(#linearGradient4767);fill-opacity:1;stroke:none"
                   id="rect4146"
                   width="75.965775"
                   height="69.024437"
                   x="2"
                   y="-30"
                   rx="3.9569874"
                   ry="3.9569881"
                   clip-path="url(#clipPath4156-4-1)" />
              </g>
            </g>
          </g>
        </g>
      </g>
    </g>
  </g>
</svg>
