<?xml version="1.0" encoding="UTF-8" standalone="no"?>
<!-- Created with Inkscape (http://www.inkscape.org/) -->

<svg
   xmlns:dc="http://purl.org/dc/elements/1.1/"
   xmlns:cc="http://creativecommons.org/ns#"
   xmlns:rdf="http://www.w3.org/1999/02/22-rdf-syntax-ns#"
   xmlns:svg="http://www.w3.org/2000/svg"
   xmlns="http://www.w3.org/2000/svg"
   xmlns:xlink="http://www.w3.org/1999/xlink"
   xmlns:sodipodi="http://sodipodi.sourceforge.net/DTD/sodipodi-0.dtd"
   xmlns:inkscape="http://www.inkscape.org/namespaces/inkscape"
   width="96"
   height="96"
   id="svg2"
   version="1.1"
   inkscape:version="0.48.5 r10040"
   sodipodi:docname="emblem-new.svg">
  <script
     xlink:href=""
     id="script2985" />
  <defs
     id="defs4">
    <linearGradient
       inkscape:collect="always"
       id="linearGradient6769">
      <stop
         style="stop-color:#000000;stop-opacity:1;"
         offset="0"
         id="stop6771" />
      <stop
         style="stop-color:#000000;stop-opacity:0;"
         offset="1"
         id="stop6773" />
    </linearGradient>
    <radialGradient
       inkscape:collect="always"
       xlink:href="#linearGradient4050"
       id="radialGradient4543"
       gradientUnits="userSpaceOnUse"
       gradientTransform="matrix(1,0,0,0.04885057,-16.372364,-3.861835)"
       cx="48"
       cy="-16.128"
       fx="48"
       fy="-16.128"
       r="44.543999" />
    <linearGradient
       inkscape:collect="always"
       id="linearGradient4050">
      <stop
         style="stop-color:#ffffff;stop-opacity:1;"
         offset="0"
         id="stop4052" />
      <stop
         style="stop-color:#ffffff;stop-opacity:0;"
         offset="1"
         id="stop4054" />
    </linearGradient>
    <linearGradient
       inkscape:collect="always"
       xlink:href="#linearGradient4160"
       id="linearGradient4549"
       gradientUnits="userSpaceOnUse"
       gradientTransform="matrix(1,0,0,1.160558,-17.652363,-37.714316)"
       x1="2.5"
       y1="54.296875"
       x2="93.5"
       y2="54.296875" />
    <linearGradient
       id="linearGradient4160">
      <stop
         id="stop4170"
         offset="0"
         style="stop-color:#000000;stop-opacity:0;" />
      <stop
         style="stop-color:#000000;stop-opacity:0.96470588;"
         offset="0.03175623"
         id="stop4186" />
      <stop
         style="stop-color:#000000;stop-opacity:0;"
         offset="0.09425623"
         id="stop4182" />
      <stop
         style="stop-color:#000000;stop-opacity:0;"
         offset="0.49595019"
         id="stop4180" />
      <stop
         style="stop-color:#000000;stop-opacity:0;"
         offset="0.90525883"
         id="stop4178" />
      <stop
         id="stop4184"
         offset="0.96241152"
         style="stop-color:#000000;stop-opacity:0.98823529;" />
      <stop
         id="stop4168"
         offset="1"
         style="stop-color:#000000;stop-opacity:0;" />
    </linearGradient>
    <radialGradient
       inkscape:collect="always"
       xlink:href="#linearGradient4348"
       id="radialGradient4553"
       gradientUnits="userSpaceOnUse"
       gradientTransform="matrix(1.0772109,0,0,0.06481785,-21.162394,64.974669)"
       cx="47.699135"
       cy="55.411221"
       fx="47.699135"
       fy="55.411221"
       r="41.470058" />
    <linearGradient
       id="linearGradient4348">
      <stop
         style="stop-color:#ffffff;stop-opacity:1;"
         offset="0"
         id="stop4350" />
      <stop
         style="stop-color:#ffffff;stop-opacity:0;"
         offset="1"
         id="stop4352" />
    </linearGradient>
    <linearGradient
       gradientUnits="userSpaceOnUse"
       xlink:href="#linearGradient3737-4-3"
       id="linearGradient3146"
       y2="109.10714"
       x2="48"
       y1="6"
       x1="48"
       gradientTransform="translate(-165.48898,109.3749)" />
    <linearGradient
       id="linearGradient3737-4-3">
      <stop
         offset="0"
         style="stop-color:#ffffff;stop-opacity:1;"
         id="stop3739-4-1" />
      <stop
         offset="1"
         style="stop-color:#ffffff;stop-opacity:0"
         id="stop3741-3-0" />
    </linearGradient>
    <filter
       color-interpolation-filters="sRGB"
       inkscape:collect="always"
       id="filter4929">
      <feGaussianBlur
         inkscape:collect="always"
         stdDeviation="0.42000919"
         id="feGaussianBlur4931" />
    </filter>
    <radialGradient
       inkscape:collect="always"
       xlink:href="#linearGradient4913"
       id="radialGradient4919"
       cx="47.197647"
       cy="90.887909"
       fx="47.197647"
       fy="90.887909"
       r="41.015587"
       gradientTransform="matrix(1.0927536,0,0,0.03478262,-21.554573,13.733863)"
       gradientUnits="userSpaceOnUse" />
    <linearGradient
       id="linearGradient4913">
      <stop
         style="stop-color:#0f0a0a;stop-opacity:1;"
         offset="0"
         id="stop4915" />
      <stop
         style="stop-color:#0f0a0a;stop-opacity:0.35632184;"
         offset="1"
         id="stop4917" />
    </linearGradient>
    <filter
       color-interpolation-filters="sRGB"
       inkscape:collect="always"
       id="filter4925"
       x="-0.012381963"
       width="1.0247639"
       y="-0.38899997"
       height="1.778">
      <feGaussianBlur
         inkscape:collect="always"
         stdDeviation="0.4624656"
         id="feGaussianBlur4927" />
    </filter>
    <radialGradient
       r="41.015587"
       fy="90.887909"
       fx="47.197647"
       cy="90.887909"
       cx="47.197647"
       gradientTransform="matrix(1.0927536,0,0,0.03478262,-21.554573,13.733863)"
       gradientUnits="userSpaceOnUse"
       id="radialGradient4998"
       xlink:href="#linearGradient4913"
       inkscape:collect="always" />
    <linearGradient
       inkscape:collect="always"
       xlink:href="#linearGradient6769"
       id="linearGradient6775"
       x1="-64.524323"
       y1="-23.682206"
       x2="-36.078117"
       y2="-23.682206"
       gradientUnits="userSpaceOnUse" />
    <clipPath
       id="clipPath3647">
      <path
         style="opacity:0.3;color:#000000;fill:#ff0000;fill-opacity:1;fill-rule:nonzero;stroke:none;stroke-width:4;marker:none;visibility:visible;display:inline;overflow:visible;enable-background:accumulate"
         id="path3649-0"
         inkscape:connector-curvature="0"
         d="m -100,-74 0,96 96,0 0,-96 -96,0 z m 39.875,20.3125 16.125,0 0,19.75 19.6875,0 0,16.1875 -19.6875,0 0,19.4375 -16.125,0 0,-19.4375 -19.5625,0 0,-16.1875 19.5625,0 0,-19.75 z" />
    </clipPath>
    <filter
       id="filter3651"
       color-interpolation-filters="sRGB">
      <feGaussianBlur
         stdDeviation="0.83069354"
         id="feGaussianBlur3653" />
    </filter>
    <linearGradient
       gradientTransform="matrix(4,0,0,4,4,-70)"
       gradientUnits="userSpaceOnUse"
       xlink:href="#linearGradient3972"
       id="linearGradient2862"
       y2="17.924156"
       x2="11.640054"
       y1="4.0775533"
       x1="11.640054" />
    <linearGradient
       gradientUnits="userSpaceOnUse"
       id="linearGradient3972"
       y2="17.924156"
       x2="11.640054"
       y1="4.0775533"
       x1="11.640054">
      <stop
         offset="0"
         style="stop-color:#323232;stop-opacity:1"
         id="stop3974" />
      <stop
         offset="1"
         style="stop-color:#787878;stop-opacity:1"
         id="stop3976" />
    </linearGradient>
  </defs>
  <sodipodi:namedview
     id="base"
     pagecolor="#ffffff"
     bordercolor="#666666"
     borderopacity="1.0"
     inkscape:pageopacity="0.0"
     inkscape:pageshadow="2"
     inkscape:zoom="8.4226962"
     inkscape:cx="8.7659942"
     inkscape:cy="32"
     inkscape:current-layer="layer1"
     showgrid="true"
     inkscape:document-units="px"
     inkscape:grid-bbox="true"
     inkscape:showpageshadow="false"
     gridtolerance="1"
     guidetolerance="1"
     objecttolerance="1"
     inkscape:window-width="1280"
     inkscape:window-height="966"
     inkscape:window-x="0"
     inkscape:window-y="0"
     inkscape:window-maximized="1" />
  <metadata
     id="metadata7">
    <rdf:RDF>
      <cc:Work
         rdf:about="">
        <dc:format>image/svg+xml</dc:format>
        <dc:type
           rdf:resource="http://purl.org/dc/dcmitype/StillImage" />
        <dc:title />
      </cc:Work>
    </rdf:RDF>
  </metadata>
  <g
     id="layer1"
     inkscape:label="Layer 1"
     inkscape:groupmode="layer"
     transform="translate(0,32)">
    <g
       id="g3954"
       transform="translate(-300.54321,-55.777152)">
      <g
         style="display:inline"
         id="layer3-0"
         transform="translate(300.54321,97.777153)">
        <path
           style="opacity:0.2;fill:none;stroke:#ffffff;stroke-width:4;stroke-miterlimit:4;stroke-dasharray:none;display:inline;filter:url(#filter3651)"
           id="path3638"
           clip-path="url(#clipPath3647)"
           transform="translate(100,0)"
           inkscape:connector-curvature="0"
           d="m -60.119657,-53.689786 0,19.741424 -19.570128,0 0,16.190394 19.570128,0 0,19.447752 16.119657,0 0,-19.447752 19.689784,0 0,-16.190394 -19.689784,0 0,-19.741424 -16.119657,0 z" />
        <path
           style="fill:url(#linearGradient2862);fill-opacity:1;stroke:none;display:inline"
           id="Symbol-4"
           inkscape:connector-curvature="0"
           d="m 39.880343,-53.689786 0,19.741424 -19.570128,0 0,16.190394 19.570128,0 0,19.447752 16.119657,0 0,-19.447752 19.689784,0 0,-16.190394 -19.689784,0 0,-19.741424 -16.119657,0 z" />
        <path
           style="opacity:0.1;fill:#000000;fill-opacity:1;stroke:none;display:inline"
           id="path3655"
           transform="translate(0,-74)"
           inkscape:connector-curvature="0"
           d="m 39.875,20.3125 0,19.75 -19.5625,0 0,16.1875 19.5625,0 0,19.4375 16.125,0 0,-19.4375 19.6875,0 0,-16.1875 -19.6875,0 0,-19.75 -16.125,0 z m 2.03125,2.03125 12.0625,0 0,17.71875 A 2.0173931,2.0173931 0 0 0 56,42.09375 l 17.65625,0 0,12.125 -17.65625,0 A 2.0173931,2.0173931 0 0 0 53.96875,56.25 l 0,17.40625 -12.0625,0 0,-17.40625 A 2.0173931,2.0173931 0 0 0 39.875,54.21875 l -17.53125,0 0,-12.125 17.53125,0 a 2.0173931,2.0173931 0 0 0 2.03125,-2.03125 l 0,-17.71875 z" />
        <path
           style="opacity:0.5;fill:#ffffff;fill-opacity:1;stroke:none;display:inline"
           id="path3104-3"
           transform="translate(0,-74)"
           inkscape:connector-curvature="0"
           d="m 20.3125,56.25 0,1 19.5625,0 0,-1 -19.5625,0 z m 35.6875,0 0,1 19.6875,0 0,-1 -19.6875,0 z m -16.125,19.4375 0,1 16.125,0 0,-1 -16.125,0 z" />
        <path
           style="opacity:0.2;fill:#000000;fill-opacity:1;stroke:none;display:inline"
           id="path3881"
           transform="translate(0,-74)"
           inkscape:connector-curvature="0"
           d="m 39.875,20.3125 0,19.75 -19.5625,0 0,16.1875 19.5625,0 0,19.4375 16.125,0 0,-19.4375 19.6875,0 0,-16.1875 -19.6875,0 0,-19.75 -16.125,0 z m 0.84375,0.84375 14.4375,0 0,18.90625 A 0.83841571,0.83841571 0 0 0 56,40.90625 l 18.84375,0 0,14.5 -18.84375,0 A 0.83841571,0.83841571 0 0 0 55.15625,56.25 l 0,18.59375 -14.4375,0 0,-18.59375 A 0.83841571,0.83841571 0 0 0 39.875,55.40625 l -18.71875,0 0,-14.5 18.71875,0 a 0.83841571,0.83841571 0 0 0 0.84375,-0.84375 l 0,-18.90625 z" />
        <path
           style="opacity:0.3;fill:#000000;fill-opacity:1;stroke:none;display:inline"
           id="path3894"
           transform="translate(0,-74)"
           inkscape:connector-curvature="0"
           d="m 39.875,20.3125 0,1 16.125,0 0,-1 -16.125,0 z m -19.5625,19.75 0,1 19.5625,0 0,-1 -19.5625,0 z m 35.6875,0 0,1 19.6875,0 0,-1 -19.6875,0 z" />
      </g>
    </g>
  </g>
</svg>
