<?xml version="1.0" encoding="UTF-8" standalone="no"?>
<!-- Created with Inkscape (http://www.inkscape.org/) -->

<svg
   xmlns:dc="http://purl.org/dc/elements/1.1/"
   xmlns:cc="http://creativecommons.org/ns#"
   xmlns:rdf="http://www.w3.org/1999/02/22-rdf-syntax-ns#"
   xmlns:svg="http://www.w3.org/2000/svg"
   xmlns="http://www.w3.org/2000/svg"
   xmlns:xlink="http://www.w3.org/1999/xlink"
   xmlns:sodipodi="http://sodipodi.sourceforge.net/DTD/sodipodi-0.dtd"
   xmlns:inkscape="http://www.inkscape.org/namespaces/inkscape"
   width="96"
   height="96"
   id="svg5453"
   version="1.1"
   inkscape:version="0.48.5 r10040"
   sodipodi:docname="deviantart.svg">
  <defs
     id="defs5455">
    <linearGradient
       id="linearGradient4097"
       inkscape:collect="always">
      <stop
         id="stop4099"
         offset="0"
         style="stop-color:#d8e0de;stop-opacity:1" />
      <stop
         id="stop4101"
         offset="1"
         style="stop-color:#f9fbfa;stop-opacity:1" />
    </linearGradient>
    <linearGradient
       id="linearGradient3281">
      <stop
         style="stop-color:#69827d;stop-opacity:1;"
         offset="0"
         id="stop3283" />
      <stop
         style="stop-color:#435550;stop-opacity:1;"
         offset="1"
         id="stop3285" />
    </linearGradient>
    <linearGradient
       inkscape:collect="always"
       xlink:href="#linearGradient3281"
       id="linearGradient3287"
       x1="423.76923"
       y1="-547.8006"
       x2="423.76923"
       y2="-499.79724"
       gradientUnits="userSpaceOnUse"
       gradientTransform="translate(27.753941,13.788582)" />
    <linearGradient
       inkscape:collect="always"
       xlink:href="#linearGradient4097"
       id="linearGradient4095"
       x1="418.63394"
       y1="533.48547"
       x2="418.63394"
       y2="514.29797"
       gradientUnits="userSpaceOnUse"
       gradientTransform="translate(1.4893425e-6,0)" />
    <linearGradient
       inkscape:collect="always"
       xlink:href="#linearGradient4097"
       id="linearGradient3008"
       gradientUnits="userSpaceOnUse"
       gradientTransform="translate(1.4893425e-6,0)"
       x1="418.63394"
       y1="533.48547"
       x2="418.63394"
       y2="514.29797" />
    <radialGradient
       gradientUnits="userSpaceOnUse"
       gradientTransform="matrix(1,0,0,0.91365451,0,3.9718926)"
       r="42.423195"
       fy="46"
       fx="48"
       cy="46"
       cx="48"
       id="radialGradient5037"
       xlink:href="#linearGradient3281"
       inkscape:collect="always" />
    <radialGradient
       inkscape:collect="always"
       xlink:href="#linearGradient4133-5"
       id="radialGradient4992"
       gradientUnits="userSpaceOnUse"
       gradientTransform="matrix(0.97513384,0,0,0.04919072,32.734694,78.81442)"
       cx="13.948145"
       cy="44.892841"
       fx="13.948145"
       fy="44.892841"
       r="43.199203" />
    <radialGradient
       inkscape:collect="always"
       xlink:href="#linearGradient4133-5"
       id="radialGradient3831-7"
       gradientUnits="userSpaceOnUse"
       gradientTransform="matrix(0.97513378,0,0,0.04919072,-4.148257,101.31932)"
       cx="13.948145"
       cy="44.892841"
       fx="13.948145"
       fy="44.892841"
       r="43.199203" />
    <linearGradient
       id="linearGradient4133-5"
       inkscape:collect="always">
      <stop
         id="stop4135-4"
         offset="0"
         style="stop-color:#ffffff;stop-opacity:1;" />
      <stop
         id="stop4137-5"
         offset="1"
         style="stop-color:#ffffff;stop-opacity:0;" />
    </linearGradient>
    <radialGradient
       inkscape:collect="always"
       xlink:href="#linearGradient4133-5"
       id="radialGradient3833-1"
       gradientUnits="userSpaceOnUse"
       gradientTransform="matrix(0.88832663,0,0,0.04919072,29.382213,-89.635221)"
       cx="13.948145"
       cy="44.892841"
       fx="13.948145"
       fy="44.892841"
       r="43.199203" />
    <linearGradient
       y2="14.514202"
       x2="50.527882"
       y1="-28.64156"
       x1="2.7713892"
       gradientUnits="userSpaceOnUse"
       id="linearGradient4967"
       xlink:href="#linearGradient4213-7-8"
       inkscape:collect="always" />
    <clipPath
       id="clipPath4156-4-6"
       clipPathUnits="userSpaceOnUse">
      <path
         inkscape:connector-curvature="0"
         id="path4158-0-3"
         d="m 27.046336,-55.695463 -14.21366,13.321486 0.06127,0 15.653407,21.770763 10.231384,-10.546177 C 38.561832,-32.30156 27.468089,-54.819245 27.046336,-55.695463 z M 9.6468554,-39.382809 -5.2407289,-25.32124 15.987863,-7.8059573 26.372412,-18.382966 9.6468554,-39.382809 z m 31.4906096,12.951445 -9.741259,9.713584 8.944804,12.4580526 7.780753,-7.5550056 -6.984298,-14.616631 z m -49.8397109,4.378822 -13.7541661,12.9822847 26.2830181,13.84571 0.06127,-0.0617 -0.122531,-0.0617 L 13.598503,-5.4007374 -8.7022409,-22.052595 z m 38.0154159,7.400825 -9.802525,9.7752596 11.579232,9.5594001 7.62759,-7.40083 -8.669108,-11.0087257 -0.735189,-0.925104 z m 20.187073,5.6739697 -7.382526,7.2158 6.187844,8.54179 5.820249,-6.13651996 -4.625567,-9.62107004 z m -32.195166,6.32154 -9.5574606,9.49772 13.6622686,7.1849703 7.933918,-7.6783603 -12.038726,-9.00433 z m 23.311629,2.37443004 -7.10683,6.93826996 8.362778,6.9074403 5.360756,-5.6739699 -0.06127,-0.0925 -0.0919,0.12335 -6.463539,-8.20258036 z m -8.730374,8.54178036 -7.505057,7.3391599 10.353916,5.45811 c 1.397496,-1.32103 5.67514,-6.12292 5.850882,-6.32154 L 31.886332,8.2600031 z"
         style="opacity:0.6;fill:#ffffff;fill-opacity:1;stroke:none" />
    </clipPath>
    <linearGradient
       id="linearGradient4213-7-8"
       inkscape:collect="always">
      <stop
         id="stop4215-6-5"
         offset="0"
         style="stop-color:#ffffff;stop-opacity:1;" />
      <stop
         id="stop4217-5-2"
         offset="1"
         style="stop-color:#ffffff;stop-opacity:0;" />
    </linearGradient>
    <linearGradient
       inkscape:collect="always"
       xlink:href="#linearGradient4213-7-8"
       id="linearGradient3837-7"
       gradientUnits="userSpaceOnUse"
       x1="2.7713892"
       y1="-28.64156"
       x2="50.527882"
       y2="14.514202" />
    <clipPath
       id="clipPath4156-4"
       clipPathUnits="userSpaceOnUse">
      <path
         inkscape:connector-curvature="0"
         id="path4158-0"
         d="m 27.046336,-55.695463 -14.21366,13.321486 0.06127,0 15.653407,21.770763 10.231384,-10.546177 C 38.561832,-32.30156 27.468089,-54.819245 27.046336,-55.695463 z M 9.6468554,-39.382809 -5.2407289,-25.32124 15.987863,-7.8059573 26.372412,-18.382966 9.6468554,-39.382809 z m 31.4906096,12.951445 -9.741259,9.713584 8.944804,12.4580526 7.780753,-7.5550056 -6.984298,-14.616631 z m -49.8397109,4.378822 -13.7541661,12.9822847 26.2830181,13.84571 0.06127,-0.0617 -0.122531,-0.0617 L 13.598503,-5.4007374 -8.7022409,-22.052595 z m 38.0154159,7.400825 -9.802525,9.7752596 11.579232,9.5594001 7.62759,-7.40083 -8.669108,-11.0087257 -0.735189,-0.925104 z m 20.187073,5.6739697 -7.382526,7.2158 6.187844,8.54179 5.820249,-6.13651996 -4.625567,-9.62107004 z m -32.195166,6.32154 -9.5574606,9.49772 13.6622686,7.1849703 7.933918,-7.6783603 -12.038726,-9.00433 z m 23.311629,2.37443004 -7.10683,6.93826996 8.362778,6.9074403 5.360756,-5.6739699 -0.06127,-0.0925 -0.0919,0.12335 -6.463539,-8.20258036 z m -8.730374,8.54178036 -7.505057,7.3391599 10.353916,5.45811 c 1.397496,-1.32103 5.67514,-6.12292 5.850882,-6.32154 L 31.886332,8.2600031 z"
         style="opacity:0.6;fill:#ffffff;fill-opacity:1;stroke:none" />
    </clipPath>
    <linearGradient
       id="linearGradient4213-7"
       inkscape:collect="always">
      <stop
         id="stop4215-6"
         offset="0"
         style="stop-color:#ffffff;stop-opacity:1;" />
      <stop
         id="stop4217-5"
         offset="1"
         style="stop-color:#ffffff;stop-opacity:0;" />
    </linearGradient>
    <linearGradient
       inkscape:collect="always"
       xlink:href="#linearGradient4213-7"
       id="linearGradient3837"
       gradientUnits="userSpaceOnUse"
       x1="2.7713892"
       y1="-28.64156"
       x2="50.527882"
       y2="14.514202" />
    <filter
       id="filter3174-3"
       color-interpolation-filters="sRGB">
      <feGaussianBlur
         stdDeviation="1.71"
         id="feGaussianBlur3176-6" />
    </filter>
    <linearGradient
       gradientTransform="scale(1.0058652,0.994169)"
       gradientUnits="userSpaceOnUse"
       id="ButtonShadow-1"
       y2="7.0165396"
       x2="45.447727"
       y1="92.539597"
       x1="45.447727">
      <stop
         offset="0"
         style="stop-color:#000000;stop-opacity:1"
         id="stop3750-9" />
      <stop
         offset="1"
         style="stop-color:#000000;stop-opacity:0.58823532"
         id="stop3752-9" />
    </linearGradient>
    <linearGradient
       inkscape:collect="always"
       xlink:href="#ButtonShadow-1"
       id="linearGradient3835"
       gradientUnits="userSpaceOnUse"
       gradientTransform="scale(1.0058652,0.994169)"
       x1="45.447727"
       y1="92.539597"
       x2="45.447727"
       y2="7.0165396" />
    <radialGradient
       inkscape:collect="always"
       xlink:href="#linearGradient4133"
       id="radialGradient3833"
       gradientUnits="userSpaceOnUse"
       gradientTransform="matrix(0.88832663,0,0,0.04919072,51.887113,-52.752262)"
       cx="13.948145"
       cy="44.892841"
       fx="13.948145"
       fy="44.892841"
       r="43.199203" />
    <linearGradient
       id="linearGradient4133"
       inkscape:collect="always">
      <stop
         id="stop4135"
         offset="0"
         style="stop-color:#ffffff;stop-opacity:1;" />
      <stop
         id="stop4137"
         offset="1"
         style="stop-color:#ffffff;stop-opacity:0;" />
    </linearGradient>
    <radialGradient
       inkscape:collect="always"
       xlink:href="#linearGradient4133"
       id="radialGradient3831"
       gradientUnits="userSpaceOnUse"
       gradientTransform="matrix(0.97513378,0,0,0.04919072,-4.148257,101.31932)"
       cx="13.948145"
       cy="44.892841"
       fx="13.948145"
       fy="44.892841"
       r="43.199203" />
    <linearGradient
       id="linearGradient3832-0-6-1-1">
      <stop
         id="stop3834-6-3-7-1"
         offset="0"
         style="stop-color:#000000;stop-opacity:1;" />
      <stop
         style="stop-color:#000000;stop-opacity:0.58823532;"
         offset="0.1"
         id="stop3872-2-4" />
      <stop
         id="stop3844-6-2-7-6"
         offset="0.89999998"
         style="stop-color:#000000;stop-opacity:0.58823532;" />
      <stop
         id="stop3836-5-0-2-9"
         offset="1"
         style="stop-color:#000000;stop-opacity:1;" />
    </linearGradient>
    <linearGradient
       inkscape:collect="always"
       xlink:href="#linearGradient3832-0-6-1-1"
       id="linearGradient3829"
       gradientUnits="userSpaceOnUse"
       gradientTransform="translate(8.0439564,-14.665561)"
       x1="1.5"
       y1="88.171875"
       x2="94.5"
       y2="88.171875" />
    <linearGradient
       id="linearGradient4091-0-3-0-7">
      <stop
         id="stop4093-3-6-4-2"
         offset="0"
         style="stop-color:#ffffff;stop-opacity:1;" />
      <stop
         style="stop-color:#ffffff;stop-opacity:1;"
         offset="0.80000001"
         id="stop4099-6-1-8-3" />
      <stop
         id="stop4095-1-0-7-9"
         offset="1"
         style="stop-color:#ffffff;stop-opacity:0;" />
    </linearGradient>
    <radialGradient
       inkscape:collect="always"
       xlink:href="#linearGradient4091-0-3-0-7"
       id="radialGradient3827"
       gradientUnits="userSpaceOnUse"
       gradientTransform="matrix(-1.0721726,0,0,-0.87502024,199.46429,-19.125546)"
       cx="48"
       cy="-27"
       fx="48"
       fy="-27"
       r="42" />
    <linearGradient
       id="linearGradient6139-0">
      <stop
         style="stop-color:#adb4c1;stop-opacity:1;"
         offset="0"
         id="stop6141-2" />
      <stop
         id="stop6151-0"
         offset="0.25"
         style="stop-color:#ffffff;stop-opacity:1;" />
      <stop
         id="stop6147-1"
         offset="0.5"
         style="stop-color:#9095aa;stop-opacity:1;" />
      <stop
         style="stop-color:#fbf9f9;stop-opacity:1;"
         offset="0.75"
         id="stop6149-4" />
      <stop
         style="stop-color:#adb3c1;stop-opacity:1;"
         offset="1"
         id="stop6143-4" />
    </linearGradient>
    <linearGradient
       inkscape:collect="always"
       xlink:href="#linearGradient6139-0"
       id="linearGradient3825"
       gradientUnits="userSpaceOnUse"
       gradientTransform="matrix(1.1071428,0,0,1.1071426,2.9011003,-18.701274)"
       x1="6"
       y1="47.000011"
       x2="90"
       y2="47.000011" />
    <linearGradient
       id="linearGradient5029">
      <stop
         id="stop5031"
         offset="0"
         style="stop-color:#0a9aff;stop-opacity:1;" />
      <stop
         id="stop5033"
         offset="1"
         style="stop-color:#0070c0;stop-opacity:1;" />
    </linearGradient>
    <linearGradient
       id="linearGradient5039">
      <stop
         style="stop-color:#ff0a0a;stop-opacity:1;"
         offset="0"
         id="stop5041" />
      <stop
         style="stop-color:#c00000;stop-opacity:1;"
         offset="1"
         id="stop5043" />
    </linearGradient>
    <linearGradient
       id="linearGradient5045">
      <stop
         id="stop5047"
         offset="0"
         style="stop-color:#2fff0a;stop-opacity:1;" />
      <stop
         id="stop5049"
         offset="1"
         style="stop-color:#16b50b;stop-opacity:1;" />
    </linearGradient>
    <linearGradient
       id="linearGradient5051">
      <stop
         style="stop-color:#c60aff;stop-opacity:1;"
         offset="0"
         id="stop5053" />
      <stop
         style="stop-color:#9b0bb5;stop-opacity:1;"
         offset="1"
         id="stop5055" />
    </linearGradient>
    <linearGradient
       id="linearGradient5057">
      <stop
         id="stop5059"
         offset="0"
         style="stop-color:#ff830a;stop-opacity:1;" />
      <stop
         id="stop5061"
         offset="1"
         style="stop-color:#b55f0b;stop-opacity:1;" />
    </linearGradient>
    <linearGradient
       id="linearGradient5063">
      <stop
         style="stop-color:#6b9ab0;stop-opacity:1;"
         offset="0"
         id="stop5065" />
      <stop
         style="stop-color:#466b7a;stop-opacity:1;"
         offset="1"
         id="stop5067" />
    </linearGradient>
    <linearGradient
       inkscape:collect="always"
       xlink:href="#linearGradient4097-0"
       id="linearGradient3008-5"
       gradientUnits="userSpaceOnUse"
       gradientTransform="translate(1.4893425e-6,0)"
       x1="418.63394"
       y1="533.48547"
       x2="418.63394"
       y2="514.29797" />
    <linearGradient
       id="linearGradient4097-0"
       inkscape:collect="always">
      <stop
         id="stop4099-3"
         offset="0"
         style="stop-color:#d8e0de;stop-opacity:1" />
      <stop
         id="stop4101-1"
         offset="1"
         style="stop-color:#f9fbfa;stop-opacity:1" />
    </linearGradient>
  </defs>
  <sodipodi:namedview
     id="base"
     pagecolor="#ffffff"
     bordercolor="#666666"
     borderopacity="1.0"
     inkscape:pageopacity="0"
     inkscape:pageshadow="2"
     inkscape:zoom="5.6568543"
     inkscape:cx="55.17555"
     inkscape:cy="32.269944"
     inkscape:document-units="px"
     inkscape:current-layer="layer7"
     showgrid="false"
     fit-margin-top="0"
     fit-margin-left="0"
     fit-margin-right="0"
     fit-margin-bottom="0"
     inkscape:window-width="1280"
     inkscape:window-height="969"
     inkscape:window-x="0"
     inkscape:window-y="0"
     inkscape:window-maximized="1"
     inkscape:showpageshadow="false" />
  <metadata
     id="metadata5458">
    <rdf:RDF>
      <cc:Work
         rdf:about="">
        <dc:format>image/svg+xml</dc:format>
        <dc:type
           rdf:resource="http://purl.org/dc/dcmitype/StillImage" />
        <dc:title></dc:title>
      </cc:Work>
    </rdf:RDF>
  </metadata>
  <g
     inkscape:label="Capa 1"
     inkscape:groupmode="layer"
     id="layer1"
     transform="translate(-384.57143,-451.798)">
    <g
       id="g3169"
       transform="translate(384.57143,451.798)">
      <g
         transform="translate(0,32)"
         inkscape:label="icona"
         id="layer1-1">
        <g
           id="g7390"
           transform="translate(-8.0439594,-17.334439)"
           style="display:inline">
          <path
             inkscape:connector-curvature="0"
             id="path3288"
             d="m 97.186813,-14.665561 -82.285719,0 c -3.798848,0 -6.8571352,3.058285 -6.8571352,6.8571399 l 0,82.2857181 c 0,3.798857 3.0582872,6.857142 6.8571352,6.857142 l 82.285719,0 c 3.798857,0 6.857147,-3.058285 6.857147,-6.857142 l 0,-82.2857181 c 0,-3.7988549 -3.05829,-6.8571399 -6.857147,-6.8571399 z"
             style="opacity:0.15;fill:#000000;fill-opacity:1;fill-rule:nonzero;stroke:none;display:inline" />
          <path
             style="opacity:0.15;fill:#000000;fill-opacity:1;fill-rule:nonzero;stroke:none;display:inline"
             d="m 96.543957,-13.915561 -81.000007,0 c -3.739492,0 -6.749993,3.010499 -6.749993,6.7499969 l 0,81.0000031 c 0,3.739501 3.010501,6.75 6.749993,6.75 l 81.000007,0 c 3.739503,0 6.750003,-3.010499 6.750003,-6.75 l 0,-81.0000031 c 0,-3.7394979 -3.0105,-6.7499969 -6.750003,-6.7499969 z"
             id="path4085"
             inkscape:connector-curvature="0" />
          <path
             inkscape:connector-curvature="0"
             id="rect4251-1"
             d="m 95.901096,-13.165561 -79.714282,0 c -3.680143,0 -6.6428566,2.962713 -6.6428566,6.6428549 l 0,79.7142901 c 0,3.680142 2.9627136,6.642856 6.6428566,6.642856 l 79.714282,0 c 3.680143,0 6.642854,-2.962714 6.642854,-6.642856 l 0,-79.7142901 c 0,-3.6801419 -2.962711,-6.6428549 -6.642854,-6.6428549 z"
             style="fill:url(#linearGradient3825);fill-opacity:1;fill-rule:nonzero;stroke:none;display:inline" />
          <g
             transform="matrix(1.1071428,0,0,1.1071426,-107.81316,-18.147702)"
             id="g3272">
            <path
               style="opacity:0.45;fill:url(#radialGradient3827);fill-opacity:1;fill-rule:nonzero;stroke:none;display:inline"
               d="m 112,4.5 c -3.324,0 -6,2.6759996 -6,6 l 0,15 1,0 0,-15 c 0,-2.7872972 2.2127,-5 5,-5 l 72,0 c 2.7873,0 5,2.2127028 5,5 l 0,15 1,0 0,-15 c 0,-3.3240004 -2.676,-6 -6,-6 l -72,0 z"
               id="path4236-5"
               inkscape:connector-curvature="0" />
          </g>
          <path
             id="path4118"
             d="m 9.5439564,67.178189 0,6 c 0,3.680142 2.9761066,6.65625 6.6562496,6.65625 l 79.6875,0 c 3.680143,0 6.656254,-2.976108 6.656254,-6.65625 l 0,-6 c 0,3.680142 -2.976111,6.65625 -6.656254,6.65625 l -79.6875,0 c -3.680143,0 -6.6562496,-2.976108 -6.6562496,-6.65625 z"
             style="opacity:0.89090905;fill:url(#linearGradient3829);fill-opacity:1;fill-rule:nonzero;stroke:none;display:inline"
             inkscape:connector-curvature="0" />
          <g
             id="g4615"
             transform="translate(251.28797,-104.89729)">
            <g
               style="display:none"
               id="layer2-8">
              <rect
                 style="opacity:0.9;fill:url(#linearGradient3835);fill-opacity:1;fill-rule:nonzero;stroke:none;filter:url(#filter3174-3)"
                 id="rect3745-9"
                 y="7"
                 x="5"
                 ry="6"
                 rx="6"
                 height="85"
                 width="86" />
            </g>
          </g>
        </g>
      </g>
      <g
         style="display:inline"
         inkscape:label="colori"
         id="layer7">
        <rect
           style="fill:url(#radialGradient5037);fill-opacity:1.0;stroke:none;display:inline"
           id="rect4301"
           width="84.84639"
           height="77.520287"
           x="5.5768051"
           y="7.2398567"
           ry="4.25" />
        <g
           id="g3000"
           transform="matrix(1.753087,-0.73912887,0.68430774,1.89353,-1033.6136,-648.96978)">
          <path
             style="fill:#000000;fill-opacity:0.05882353"
             d="m 387.67523,534.15491 c -0.0654,-0.28945 -0.10717,-0.99216 -0.10358,-1.74724 0.003,-1.08921 0.0364,-1.37868 0.22993,-2.10313 1.19834,-4.49299 6.09964,-8.37097 12.71361,-10.05925 0.70283,-0.17939 1.38204,-0.34939 1.50942,-0.37775 l 0.23153,-0.0517 0,-1.93013 c 0,-1.11676 0.0335,-1.9508 0.0794,-1.97916 0.23407,-0.14468 4.07402,-0.55031 5.20925,-0.55031 l 0.4373,0 0,1.92352 0,1.92358 1.62093,0.0525 c 6.03706,0.19525 11.5088,1.937 15.31677,4.8756 2.23619,1.72567 3.82826,3.94837 4.42166,6.17307 0.19321,0.72439 0.22482,1.0139 0.2299,2.10313 0.002,0.75504 -0.0381,1.45779 -0.1036,1.74722 l -0.10957,0.48414 -10.09853,0 -10.09853,0 0,-5.44423 0,-5.44417 1.11571,0.0547 c 1.51011,0.074 2.82227,0.27187 4.12602,0.6215 l 0.48415,0.12988 0,2.89396 0,2.89397 3.50117,0 3.50117,0 -0.0537,-0.27366 c -0.10097,-0.51567 -0.48538,-1.62093 -0.73932,-2.12618 -1.74943,-3.4806 -5.76309,-5.34239 -11.74694,-5.44888 l -1.36946,-0.0246 0.002,6.08376 0.002,6.08374 -10.0996,0 -10.0996,0 -0.10958,-0.48417 z m 14.58078,-7.34682 c 0,-2.09746 -0.0315,-3.53658 -0.0776,-3.53658 -0.0424,0 -0.41206,0.11796 -0.82098,0.26229 -2.46382,0.86923 -4.29806,2.39283 -5.31036,4.41107 -0.27263,0.54349 -0.6518,1.61608 -0.7428,2.10105 l -0.0563,0.29874 3.50383,0 3.50384,0 0,-3.53657 z"
             id="path4109"
             inkscape:connector-curvature="0" />
          <path
             inkscape:connector-curvature="0"
             id="path4107"
             d="m 387.67523,533.75491 c -0.0654,-0.28945 -0.10717,-0.99216 -0.10358,-1.74724 0.003,-1.08921 0.0364,-1.37868 0.22993,-2.10313 1.19834,-4.49299 6.09964,-8.37097 12.71361,-10.05925 0.70283,-0.17939 1.38204,-0.34939 1.50942,-0.37775 l 0.23153,-0.0517 0,-1.93013 c 0,-1.11676 0.0335,-1.9508 0.0794,-1.97916 0.23407,-0.14468 4.07402,-0.55031 5.20925,-0.55031 l 0.4373,0 0,1.92352 0,1.92358 1.62093,0.0525 c 6.03706,0.19525 11.5088,1.937 15.31677,4.8756 2.23619,1.72567 3.82826,3.94837 4.42166,6.17307 0.19321,0.72439 0.22482,1.0139 0.2299,2.10313 0.002,0.75504 -0.0381,1.45779 -0.1036,1.74722 l -0.10957,0.48414 -10.09853,0 -10.09853,0 0,-5.44423 0,-5.44417 1.11571,0.0547 c 1.51011,0.074 2.82227,0.27187 4.12602,0.6215 l 0.48415,0.12988 0,2.89396 0,2.89397 3.50117,0 3.50117,0 -0.0537,-0.27366 c -0.10097,-0.51567 -0.48538,-1.62093 -0.73932,-2.12618 -1.74943,-3.4806 -5.76309,-5.34239 -11.74694,-5.44888 l -1.36946,-0.0246 0.002,6.08376 0.002,6.08374 -10.0996,0 -10.0996,0 -0.10958,-0.48417 z m 14.58078,-7.34682 c 0,-2.09746 -0.0315,-3.53658 -0.0776,-3.53658 -0.0424,0 -0.41206,0.11796 -0.82098,0.26229 -2.46382,0.86923 -4.29806,2.39283 -5.31036,4.41107 -0.27263,0.54349 -0.6518,1.61608 -0.7428,2.10105 l -0.0563,0.29874 3.50383,0 3.50384,0 0,-3.53657 z"
             style="fill:#000000;fill-opacity:0.11764706" />
          <path
             style="fill:#000000;fill-opacity:0.23529412"
             d="m 387.67523,533.35491 c -0.0654,-0.28945 -0.10717,-0.99216 -0.10358,-1.74724 0.003,-1.08921 0.0364,-1.37868 0.22993,-2.10313 1.19834,-4.49299 6.09964,-8.37097 12.71361,-10.05925 0.70283,-0.17939 1.38204,-0.34939 1.50942,-0.37775 l 0.23153,-0.0517 0,-1.93013 c 0,-1.11676 0.0335,-1.9508 0.0794,-1.97916 0.23407,-0.14468 4.07402,-0.55031 5.20925,-0.55031 l 0.4373,0 0,1.92352 0,1.92358 1.62093,0.0525 c 6.03706,0.19525 11.5088,1.937 15.31677,4.8756 2.23619,1.72567 3.82826,3.94837 4.42166,6.17307 0.19321,0.72439 0.22482,1.0139 0.2299,2.10313 0.002,0.75504 -0.0381,1.45779 -0.1036,1.74722 l -0.10957,0.48414 -10.09853,0 -10.09853,0 0,-5.44423 0,-5.44417 1.11571,0.0547 c 1.51011,0.074 2.82227,0.27187 4.12602,0.6215 l 0.48415,0.12988 0,2.89396 0,2.89397 3.50117,0 3.50117,0 -0.0537,-0.27366 c -0.10097,-0.51567 -0.48538,-1.62093 -0.73932,-2.12618 -1.74943,-3.4806 -5.76309,-5.34239 -11.74694,-5.44888 l -1.36946,-0.0246 0.002,6.08376 0.002,6.08374 -10.0996,0 -10.0996,0 -0.10958,-0.48417 z m 14.58078,-7.34682 c 0,-2.09746 -0.0315,-3.53658 -0.0776,-3.53658 -0.0424,0 -0.41206,0.11796 -0.82098,0.26229 -2.46382,0.86923 -4.29806,2.39283 -5.31036,4.41107 -0.27263,0.54349 -0.6518,1.61608 -0.7428,2.10105 l -0.0563,0.29874 3.50383,0 3.50384,0 0,-3.53657 z"
             id="path4103"
             inkscape:connector-curvature="0" />
          <path
             inkscape:connector-curvature="0"
             id="path3268"
             d="m 387.67523,532.95529 c -0.0654,-0.28945 -0.10717,-0.99216 -0.10358,-1.74724 0.003,-1.08921 0.0364,-1.37868 0.22993,-2.10313 1.19834,-4.49299 6.09964,-8.37097 12.71361,-10.05925 0.70283,-0.17939 1.38204,-0.34939 1.50942,-0.37775 l 0.23153,-0.0517 0,-1.93013 c 0,-1.11676 0.0335,-1.9508 0.0794,-1.97916 0.23407,-0.14468 4.07402,-0.55031 5.20925,-0.55031 l 0.4373,0 0,1.92352 0,1.92358 1.62093,0.0525 c 6.03706,0.19525 11.5088,1.937 15.31677,4.8756 2.23619,1.72567 3.82826,3.94837 4.42166,6.17307 0.19321,0.72439 0.22482,1.0139 0.2299,2.10313 0.002,0.75504 -0.0381,1.45779 -0.1036,1.74722 l -0.10957,0.48414 -10.09853,0 -10.09853,0 0,-5.44423 0,-5.44417 1.11571,0.0547 c 1.51011,0.074 2.82227,0.27187 4.12602,0.6215 l 0.48415,0.12988 0,2.89396 0,2.89397 3.50117,0 3.50117,0 -0.0537,-0.27366 c -0.10097,-0.51567 -0.48538,-1.62093 -0.73932,-2.12618 -1.74943,-3.4806 -5.76309,-5.34239 -11.74694,-5.44888 l -1.36946,-0.0246 0.002,6.08376 0.002,6.08374 -10.0996,0 -10.0996,0 -0.10958,-0.48417 z m 14.58078,-7.34682 c 0,-2.09746 -0.0315,-3.53658 -0.0776,-3.53658 -0.0424,0 -0.41206,0.11796 -0.82098,0.26229 -2.46382,0.86923 -4.29806,2.39283 -5.31036,4.41107 -0.27263,0.54349 -0.6518,1.61608 -0.7428,2.10105 l -0.0563,0.29874 3.50383,0 3.50384,0 0,-3.53657 z"
             style="fill:url(#linearGradient3008-5);fill-opacity:1" />
          <path
             inkscape:connector-curvature="0"
             id="path4111"
             transform="translate(384.57143,499.798)"
             d="m 23.408203,20.673828 0,0.800781 1.369141,0.02344 c 5.98385,0.10649 9.998617,1.968619 11.748047,5.449219 0.191266,0.380551 0.421545,1.046587 0.583984,1.599609 l 0.208984,0 -0.05469,-0.273437 c -0.10097,-0.515671 -0.484341,-1.621704 -0.738281,-2.126954 -1.74943,-3.4806 -5.764197,-5.342728 -11.748047,-5.449218 L 23.4082,20.673828 z m -5.800781,0.798828 c -0.0424,0 -0.413346,0.119342 -0.822266,0.263672 -2.46382,0.86923 -4.296294,2.391916 -5.308594,4.410156 -0.272629,0.54349 -0.65314,1.616593 -0.74414,2.101563 l -0.05664,0.298828 0.205078,0 c 0.15734,-0.533178 0.389579,-1.188698 0.595703,-1.599609 1.0123,-2.01824 2.844774,-3.540927 5.308594,-4.410157 0.40892,-0.14433 0.779866,-0.263671 0.822266,-0.263671 0.04418,0 0.07368,1.368027 0.07617,3.324218 l 0,-0.58789 0.002,0 c 0,-2.09746 -0.03203,-3.53711 -0.07813,-3.53711 z m 27.380859,9.611328 c -0.01253,0.551606 -0.04112,1.049491 -0.0918,1.273438 l -0.109375,0.484375 -10.099609,0 -10.097656,0 0,0.798828 10.097656,0 10.099609,0 0.109375,-0.482422 C 44.961984,32.868773 45.002,32.165196 45,31.410156 c -6.96e-4,-0.149334 -0.0097,-0.20372 -0.01172,-0.326172 z m -41.9765622,0.0059 C 3.0098899,31.21068 3.0004046,31.263254 3,31.410156 c -0.00359,0.754039 0.038271,1.457859 0.1035156,1.748047 l 0.109375,0.482422 10.0996094,0 10.099609,0 0,-0.800781 -10.099609,0 -10.0996094,0 -0.109375,-0.482422 c -0.05042,-0.223151 -0.079424,-0.718543 -0.091797,-1.267578 z"
             style="fill:#3f4e4b;fill-opacity:0.31372549" />
          <path
             inkscape:connector-curvature="0"
             id="path4116"
             transform="translate(384.57143,499.798)"
             d="m 22.972656,14.359375 c -1.13523,0 -4.974914,0.404148 -5.208984,0.548828 -0.0459,0.02836 -0.07813,0.863709 -0.07813,1.980469 l 0,0.398437 c 0,-1.11676 0.03223,-1.950155 0.07813,-1.978515 0.23407,-0.14468 4.073754,-0.550782 5.208984,-0.550782 l 0.4375,0 0,-0.398437 -0.4375,0 z m 0.4375,3.845703 0,0.400391 1.621094,0.05273 c 6.03706,0.19525 11.508436,1.9364 15.316406,4.875 2.23619,1.72567 3.828475,3.949128 4.421875,6.173828 0.179886,0.674436 0.215875,1.022562 0.22461,1.939453 8.19e-4,-0.08322 0.0061,-0.151266 0.0059,-0.236328 -0.0051,-1.08923 -0.03726,-1.379125 -0.230469,-2.103515 -0.5934,-2.2247 -2.185685,-4.446205 -4.421875,-6.171875 -3.80797,-2.9386 -9.279346,-4.681704 -15.316406,-4.876954 l -1.621094,-0.05273 z m -5.724609,0.613281 -0.232422,0.05078 c -0.12738,0.02836 -0.806936,0.199516 -1.509766,0.378906 C 9.3293894,20.936327 4.4288087,24.813651 3.2304688,29.306641 3.0369387,30.031091 3.003,30.320946 3,31.410156 c -4.111e-4,0.08648 0.00511,0.155674 0.00586,0.240235 0.00716,-0.920665 0.044109,-1.267683 0.2246094,-1.94336 1.1983399,-4.49299 6.0989206,-8.372267 12.7128906,-10.060547 0.70283,-0.17939 1.382386,-0.348593 1.509766,-0.376953 l 0.232422,-0.05078 0,-0.400391 z m 6.904297,3.935547 0,0.398438 1.115234,0.05469 c 1.51011,0.074 2.823203,0.271464 4.126953,0.621094 l 0.484375,0.130859 0,-0.40039 -0.484375,-0.128906 c -1.30375,-0.34963 -2.616843,-0.547094 -4.126953,-0.621094 l -1.115234,-0.05469 z m -6.90625,3.244141 0,0.212891 0.002,0 c 0,-0.08733 -0.0018,-0.127902 -0.002,-0.212891 z m -6.921875,3.349609 c -0.0057,0.02614 -0.02489,0.0761 -0.0293,0.09961 l -0.05664,0.298828 3.503907,0 3.503906,0 0,-0.398438 -3.503906,0 -3.417969,0 z m 19.554687,0 0,0.398438 3.5,0 3.501953,0 -0.05469,-0.273438 c -0.0059,-0.03025 -0.02932,-0.09093 -0.03711,-0.125 l -3.410156,0 -3.5,0 z"
             style="fill:#ffffff;fill-opacity:0.23529412" />
        </g>
        <path
           style="font-size:medium;font-style:normal;font-variant:normal;font-weight:normal;font-stretch:normal;text-indent:0;text-align:start;text-decoration:none;line-height:normal;letter-spacing:normal;word-spacing:normal;text-transform:none;direction:ltr;block-progression:tb;writing-mode:lr-tb;text-anchor:start;baseline-shift:baseline;color:#000000;fill:#241f1f;fill-opacity:0.63265303;stroke:none;stroke-width:2.3755002;marker:none;visibility:visible;display:inline;overflow:visible;enable-background:accumulate;font-family:Sans;-inkscape-font-specification:Sans"
           d="m 9.6041045,5.7149979 c -3.116621,0 -5.667965,2.5395101 -5.667965,5.6460041 l 0,69.277996 c 0,3.106495 2.551344,5.646004 5.667965,5.646004 l 76.7917855,0 c 3.116621,0 5.66797,-2.539509 5.66797,-5.646004 l 0,-69.277996 c 0,-3.106493 -2.55135,-5.6460041 -5.66797,-5.6460041 l -76.7917855,0 z m 0,2.3194391 76.7917855,0 c 1.888101,0 3.352021,1.480095 3.352021,3.326565 l 0,69.277996 c 0,1.846474 -1.46392,3.326564 -3.352021,3.326564 l -76.7917855,0 c -1.888099,0 -3.352022,-1.48009 -3.352022,-3.326564 l 0,-69.277996 c 0,-1.84647 1.463923,-3.326565 3.352022,-3.326565 z"
           id="path4989"
           inkscape:connector-curvature="0" />
      </g>
      <g
         inkscape:label="simboli"
         id="layer5" />
      <g
         inkscape:label="luci-superiori"
         id="layer4">
        <g
           transform="matrix(1.0076012,0,0,1.014293,-1.0512372,0.60533708)"
           id="g4963">
          <path
             sodipodi:nodetypes="ssccscss"
             style="opacity:0.3;fill:#ffffff;fill-opacity:1;stroke:none;display:inline"
             d="m 10.49504,6.668839 c -1.9933517,0 -3.6044917,1.649341 -3.6088027,3.684498 l -0.148217,69.961124 c 1.913686,2.521055 1.665283,2.410772 4.8515137,2.679065 C 13.393749,68.132472 48.088552,9.657054 89.00782,9.657054 c 0.48807,0 0.96327,0.01986 1.4492,0.02901 -0.30286,-1.718031 -1.751,-3.017226 -3.52355,-3.017226 z"
             id="rect4190"
             inkscape:connector-curvature="0" />
          <rect
             transform="matrix(0.90930469,0,0,0.92837735,5.0676273,34.52016)"
             style="fill:url(#linearGradient4967);fill-opacity:1;stroke:none;display:inline"
             id="rect4146"
             width="92"
             height="92"
             x="2"
             y="-30"
             rx="3.9569874"
             ry="3.9569881"
             clip-path="url(#clipPath4156-4-6)" />
        </g>
        <rect
           ry="4.25"
           rx="0"
           y="78.897736"
           x="4.211"
           height="4.25"
           width="84.250008"
           id="rect4131"
           style="opacity:0.55;fill:url(#radialGradient4992);fill-opacity:1;stroke:none;display:inline" />
        <rect
           transform="matrix(0,1,-1,0,0,0)"
           style="opacity:0.55;fill:url(#radialGradient3833-1);fill-opacity:1;stroke:none;display:inline"
           id="rect4141"
           width="76.75"
           height="4.25"
           x="3.3977196"
           y="-89.551903"
           rx="0"
           ry="4.25" />
      </g>
    </g>
  </g>
</svg>
