<?xml version="1.0" encoding="UTF-8" standalone="no"?>
<svg
   xmlns:dc="http://purl.org/dc/elements/1.1/"
   xmlns:cc="http://creativecommons.org/ns#"
   xmlns:rdf="http://www.w3.org/1999/02/22-rdf-syntax-ns#"
   xmlns:svg="http://www.w3.org/2000/svg"
   xmlns="http://www.w3.org/2000/svg"
   xmlns:xlink="http://www.w3.org/1999/xlink"
   xmlns:sodipodi="http://sodipodi.sourceforge.net/DTD/sodipodi-0.dtd"
   xmlns:inkscape="http://www.inkscape.org/namespaces/inkscape"
   sodipodi:docname="emblem-calc.svg"
   inkscape:version="1.0beta2 (2b71d25d45, 2019-12-03)"
   id="svg1072"
   version="1.1"
   viewBox="0 0 32.000000 32.000000"
   height="32"
   width="32">
  <defs
     id="defs1066">
    <linearGradient
       inkscape:collect="always"
       xlink:href="#linearGradient6139-0"
       id="linearGradient4071"
       gradientUnits="userSpaceOnUse"
       gradientTransform="matrix(1.1071428,0,0,1.1071426,-4.9939026,-3.620687)"
       x1="6"
       y1="47.000011"
       x2="90"
       y2="47.000011" />
    <linearGradient
       id="linearGradient6139-0">
      <stop
         id="stop6141-2"
         offset="0"
         style="stop-color:#b1beb0;stop-opacity:1" />
      <stop
         style="stop-color:#ffffff;stop-opacity:1;"
         offset="0.25"
         id="stop6151-0" />
      <stop
         style="stop-color:#94a694;stop-opacity:1"
         offset="0.5"
         id="stop6147-1" />
      <stop
         id="stop6149-4"
         offset="0.75"
         style="stop-color:#fbf9f9;stop-opacity:1;" />
      <stop
         id="stop6143-4"
         offset="1"
         style="stop-color:#b2bdb1;stop-opacity:1" />
    </linearGradient>
    <linearGradient
       gradientTransform="translate(0.1489535,0.415026)"
       inkscape:collect="always"
       xlink:href="#linearGradient3832-0-6-1-1"
       id="linearGradient4129"
       x1="1.5"
       y1="88.171875"
       x2="94.5"
       y2="88.171875"
       gradientUnits="userSpaceOnUse" />
    <linearGradient
       id="linearGradient3832-0-6-1-1">
      <stop
         style="stop-color:#000000;stop-opacity:1;"
         offset="0"
         id="stop3834-6-3-7-1" />
      <stop
         id="stop3872-2-4"
         offset="0.1"
         style="stop-color:#000000;stop-opacity:0.58823532;" />
      <stop
         style="stop-color:#000000;stop-opacity:0.58823532;"
         offset="0.89999998"
         id="stop3844-6-2-7-6" />
      <stop
         style="stop-color:#000000;stop-opacity:1;"
         offset="1"
         id="stop3836-5-0-2-9" />
    </linearGradient>
    <radialGradient
       inkscape:collect="always"
       xlink:href="#linearGradient3737"
       id="radialGradient7462"
       gradientUnits="userSpaceOnUse"
       gradientTransform="matrix(0.97513378,0,0,0.04919072,34.047649,80.581722)"
       cx="13.948145"
       cy="44.892841"
       fx="13.948145"
       fy="44.892841"
       r="43.199203" />
    <linearGradient
       id="linearGradient3737">
      <stop
         offset="0"
         style="stop-color:#ffffff;stop-opacity:1"
         id="stop3739" />
      <stop
         offset="1"
         style="stop-color:#ffffff;stop-opacity:0"
         id="stop3741" />
    </linearGradient>
    <radialGradient
       inkscape:collect="always"
       xlink:href="#linearGradient3737"
       id="radialGradient7464"
       gradientUnits="userSpaceOnUse"
       gradientTransform="matrix(0.88832663,0,0,0.04919072,31.959518,-90.31726)"
       cx="13.948145"
       cy="44.892841"
       fx="13.948145"
       fy="44.892841"
       r="43.199203" />
    <linearGradient
       inkscape:collect="always"
       xlink:href="#linearGradient3737"
       id="linearGradient4767"
       gradientUnits="userSpaceOnUse"
       x1="2.7713892"
       y1="-28.64156"
       x2="50.527882"
       y2="14.514202" />
    <clipPath
       id="clipPath4156-4-1"
       clipPathUnits="userSpaceOnUse">
      <path
         inkscape:connector-curvature="0"
         id="path4158-0-8"
         d="m 27.046336,-55.695463 -14.21366,13.321486 h 0.06127 l 15.653407,21.770763 10.231384,-10.546177 C 38.561832,-32.30156 27.468089,-54.819245 27.046336,-55.695463 Z M 9.6468554,-39.382809 -5.2407289,-25.32124 15.987863,-7.8059573 26.372412,-18.382966 Z m 31.4906096,12.951445 -9.741259,9.713584 8.944804,12.4580526 7.780753,-7.5550056 z m -49.8397109,4.378822 -13.7541661,12.9822847 26.2830181,13.84571 0.06127,-0.0617 -0.122531,-0.0617 L 13.598503,-5.4007374 -8.7022409,-22.052595 Z m 38.0154159,7.400825 -9.802525,9.7752596 11.579232,9.5594001 7.62759,-7.40083 -8.669108,-11.0087257 z m 20.187073,5.6739697 -7.382526,7.2158 6.187844,8.54179 5.820249,-6.13651996 z m -32.195166,6.32154 -9.5574606,9.49772 13.6622686,7.1849703 7.933918,-7.6783603 z m 23.311629,2.37443004 -7.10683,6.93826996 8.362778,6.9074403 5.360756,-5.6739699 -0.06127,-0.0925 -0.0919,0.12335 -6.463539,-8.20258036 z m -8.730374,8.54178036 -7.505057,7.3391599 10.353916,5.45811 c 1.397496,-1.32103 5.67514,-6.12292 5.850882,-6.32154 z"
         style="opacity:0.6;fill:#ffffff;fill-opacity:1;stroke:none" />
    </clipPath>
    <linearGradient
       inkscape:collect="always"
       xlink:href="#linearGradient3984-9-6"
       id="linearGradient5871"
       gradientUnits="userSpaceOnUse"
       gradientTransform="matrix(0.94890916,0,0,0.88707089,-28.979009,-57.3078)"
       spreadMethod="reflect"
       x1="93.39798"
       y1="-18.925377"
       x2="2.2660911"
       y2="-19.957712" />
    <linearGradient
       x1="0.29404691"
       y1="33.425831"
       x2="59.729176"
       y2="33.101307"
       id="linearGradient3984-9-6"
       gradientUnits="userSpaceOnUse">
      <stop
         id="stop3099-9-8"
         style="stop-color:#ebeced;stop-opacity:1;"
         offset="0" />
      <stop
         id="stop3875-8-5"
         style="stop-color:#ebeeef;stop-opacity:1;"
         offset="0.67519277" />
      <stop
         id="stop3873-1-8"
         style="stop-color:#16a51b;stop-opacity:1;"
         offset="0.68910319" />
      <stop
         id="stop3101-7-8"
         style="stop-color:#125b12;stop-opacity:1;"
         offset="1" />
    </linearGradient>
    <linearGradient
       inkscape:collect="always"
       xlink:href="#linearGradient4160-1"
       id="linearGradient5875"
       gradientUnits="userSpaceOnUse"
       gradientTransform="matrix(0.9592576,0,0,0.89869774,-29.47573,28.274548)"
       x1="2.5"
       y1="11.140625"
       x2="93.5"
       y2="11.140625" />
    <linearGradient
       id="linearGradient4160-1">
      <stop
         id="stop4170-6"
         offset="0"
         style="stop-color:#000000;stop-opacity:0;" />
      <stop
         style="stop-color:#000000;stop-opacity:0.96470588;"
         offset="0.03175623"
         id="stop4186-6" />
      <stop
         style="stop-color:#000000;stop-opacity:0;"
         offset="0.09425623"
         id="stop4182-5" />
      <stop
         style="stop-color:#000000;stop-opacity:0;"
         offset="0.49595019"
         id="stop4180-0" />
      <stop
         style="stop-color:#000000;stop-opacity:0;"
         offset="0.90525883"
         id="stop4178-2" />
      <stop
         id="stop4184-0"
         offset="0.96241152"
         style="stop-color:#000000;stop-opacity:0.98823529;" />
      <stop
         id="stop4168-2"
         offset="1"
         style="stop-color:#000000;stop-opacity:0;" />
    </linearGradient>
    <radialGradient
       inkscape:collect="always"
       xlink:href="#linearGradient3737"
       id="radialGradient4210"
       cx="-48.731873"
       cy="35.073528"
       fx="-48.731873"
       fy="35.073528"
       r="29.024296"
       gradientTransform="matrix(1.0646477,0,0,0.03274241,2.9252433,33.925137)"
       gradientUnits="userSpaceOnUse" />
    <radialGradient
       inkscape:collect="always"
       xlink:href="#radialGradient3996-3-3"
       id="radialGradient3333-6"
       gradientUnits="userSpaceOnUse"
       gradientTransform="matrix(0.80018438,0.67652515,-1.5307737,1.9035151,3.7912682,-48.144492)"
       cx="48.30785"
       cy="47.141338"
       r="14.16129" />
    <radialGradient
       cx="48.30785"
       cy="47.141338"
       r="14.16129"
       id="radialGradient3996-3-3"
       gradientUnits="userSpaceOnUse"
       gradientTransform="matrix(0.93962333,0.77477937,-1.7975241,2.1799696,88.130548,-93.365748)">
      <stop
         id="stop3954-3-6"
         style="stop-color:#000000;stop-opacity:0.22264875"
         offset="0" />
      <stop
         id="stop3958-3-6"
         style="stop-color:#000000;stop-opacity:0.0678183"
         offset="0.5" />
      <stop
         id="stop3956-4-0"
         style="stop-color:#000000;stop-opacity:0.02431222"
         offset="1" />
    </radialGradient>
    <linearGradient
       inkscape:collect="always"
       xlink:href="#linearGradient4308-6-4"
       id="linearGradient3335-7"
       gradientUnits="userSpaceOnUse"
       x1="45"
       y1="52"
       x2="73"
       y2="4"
       gradientTransform="matrix(0.95958619,0,0,1,-75.741251,27.019518)" />
    <linearGradient
       x1="45"
       y1="52"
       x2="73"
       y2="4"
       id="linearGradient4308-6-4"
       gradientUnits="userSpaceOnUse">
      <stop
         id="stop4304-4-4"
         style="stop-color:#000000;stop-opacity:0.10677083"
         offset="0" />
      <stop
         id="stop4306-3-9"
         style="stop-color:#000000;stop-opacity:0"
         offset="1" />
    </linearGradient>
    <linearGradient
       inkscape:collect="always"
       xlink:href="#linearGradient4280-6-9"
       id="linearGradient3341-2"
       gradientUnits="userSpaceOnUse"
       x1="48.992088"
       y1="46.124821"
       x2="37"
       y2="36"
       gradientTransform="translate(-75.954866,24.617783)" />
    <linearGradient
       x1="48.992088"
       y1="46.124821"
       x2="37"
       y2="36"
       id="linearGradient4280-6-9"
       gradientUnits="userSpaceOnUse">
      <stop
         id="stop4293-95-9"
         style="stop-color:#cfcfcf;stop-opacity:1"
         offset="0" />
      <stop
         id="stop4295-8-1"
         style="stop-color:#b7b7b7;stop-opacity:1"
         offset="0.2098622" />
      <stop
         id="stop4297-0-3"
         style="stop-color:#c9c9c9;stop-opacity:1"
         offset="1" />
    </linearGradient>
    <linearGradient
       inkscape:collect="always"
       xlink:href="#linearGradient4160-1"
       id="linearGradient4136"
       gradientUnits="userSpaceOnUse"
       gradientTransform="matrix(0.94844035,0,0,0.89467804,0.08584552,-0.05990806)"
       x1="2.5"
       y1="54.296875"
       x2="93.5"
       y2="54.296875" />
  </defs>
  <sodipodi:namedview
     inkscape:document-rotation="0"
     inkscape:snap-global="false"
     inkscape:window-maximized="1"
     inkscape:window-y="21"
     inkscape:window-x="0"
     inkscape:window-height="1029"
     inkscape:window-width="1920"
     inkscape:lockguides="true"
     units="px"
     inkscape:showpageshadow="false"
     showgrid="false"
     inkscape:current-layer="g2574"
     inkscape:document-units="px"
     inkscape:cy="44.239521"
     inkscape:cx="2.1816987"
     inkscape:zoom="4.2551323"
     inkscape:pageshadow="2"
     inkscape:pageopacity="0.0"
     borderopacity="1.0"
     bordercolor="#666666"
     pagecolor="#ffffff"
     id="base">
    <sodipodi:guide
       inkscape:locked="true"
       id="guide1621"
       orientation="0,96"
       position="0,0" />
    <sodipodi:guide
       inkscape:locked="true"
       id="guide1623"
       orientation="-96,0"
       position="96.000002,0" />
    <sodipodi:guide
       inkscape:locked="true"
       id="guide1625"
       orientation="0,-96"
       position="96.000002,96.000002" />
    <sodipodi:guide
       inkscape:locked="true"
       id="guide1627"
       orientation="96,0"
       position="0,96.000002" />
  </sodipodi:namedview>
  <metadata
     id="metadata1069">
    <rdf:RDF>
      <cc:Work
         rdf:about="">
        <dc:format>image/svg+xml</dc:format>
        <dc:type
           rdf:resource="http://purl.org/dc/dcmitype/StillImage" />
        <dc:title />
        <dc:date>2017</dc:date>
        <dc:creator>
          <cc:Agent>
            <dc:title>Cristian Pozzessere &quot;ilnanny&quot;</dc:title>
          </cc:Agent>
        </dc:creator>
        <dc:subject>
          <rdf:Bag>
            <rdf:li>Global language</rdf:li>
          </rdf:Bag>
        </dc:subject>
        <dc:description>Playing with Inkscape on Gnu/Linux O. S.</dc:description>
        <dc:contributor>
          <cc:Agent>
            <dc:title>In the night, alone like a dog.</dc:title>
          </cc:Agent>
        </dc:contributor>
        <cc:license
           rdf:resource="http://creativecommons.org/licenses/by-sa/4.0/" />
      </cc:Work>
      <cc:License
         rdf:about="http://creativecommons.org/licenses/by-sa/4.0/">
        <cc:permits
           rdf:resource="http://creativecommons.org/ns#Reproduction" />
        <cc:permits
           rdf:resource="http://creativecommons.org/ns#Distribution" />
        <cc:requires
           rdf:resource="http://creativecommons.org/ns#Notice" />
        <cc:requires
           rdf:resource="http://creativecommons.org/ns#Attribution" />
        <cc:permits
           rdf:resource="http://creativecommons.org/ns#DerivativeWorks" />
        <cc:requires
           rdf:resource="http://creativecommons.org/ns#ShareAlike" />
      </cc:License>
    </rdf:RDF>
  </metadata>
  <g
     transform="translate(0,-1026.5197)"
     id="layer1"
     inkscape:groupmode="layer"
     inkscape:label="Livello 1">
    <g
       id="g2574"
       style="display:inline"
       transform="translate(-0.14895645,1026.1047)">
      <g
         transform="matrix(0.32291666,0,0,0.32291667,0.60085625,0.78098103)"
         id="g180">
        <path
           inkscape:connector-curvature="0"
           id="path3288"
           d="M 89.29181,0.415026 H 7.0060911 c -3.798848,0 -6.8571352,3.058285 -6.8571352,6.8571399 V 89.557884 c 0,3.798857 3.0582872,6.857142 6.8571352,6.857142 H 89.29181 c 3.798857,0 6.857147,-3.058285 6.857147,-6.857142 V 7.2721659 c 0,-3.7988549 -3.05829,-6.8571399 -6.857147,-6.8571399 z"
           style="display:inline;opacity:0.15;fill:#000000;fill-opacity:1;fill-rule:nonzero;stroke:none" />
        <path
           style="display:inline;opacity:0.15;fill:#000000;fill-opacity:1;fill-rule:nonzero;stroke:none"
           d="M 88.648954,1.165026 H 7.6489471 c -3.739492,0 -6.749993,3.010499 -6.749993,6.7499969 V 88.915026 c 0,3.739501 3.010501,6.75 6.749993,6.75 H 88.648954 c 3.739503,0 6.750003,-3.010499 6.750003,-6.75 V 7.9150229 c 0,-3.7394979 -3.0105,-6.7499969 -6.750003,-6.7499969 z"
           id="path4085"
           inkscape:connector-curvature="0" />
        <path
           inkscape:connector-curvature="0"
           id="rect4251-1"
           d="M 88.006093,1.915026 H 8.2918111 c -3.680143,0 -6.6428566,2.962713 -6.6428566,6.6428549 V 88.272171 c 0,3.680142 2.9627136,6.642856 6.6428566,6.642856 H 88.006093 c 3.680143,0 6.642854,-2.962714 6.642854,-6.642856 V 8.5578809 c 0,-3.6801419 -2.962711,-6.6428549 -6.642854,-6.6428549 z"
           style="display:inline;fill:url(#linearGradient4071);fill-opacity:1;fill-rule:nonzero;stroke:none" />
        <g
           transform="matrix(0.96905476,0,0,0.95244842,3.4825871,4.2758652)"
           style="display:inline"
           id="g1607">
          <path
             id="rect4080"
             d="m -23.600277,30.240449 c -2.093753,0 -3.777077,1.577052 -3.777077,3.538622 v 10.784373 c 0,-1.961571 1.683324,-3.538623 3.777077,-3.538623 h 80.337822 c 2.09375,0 3.77708,1.577052 3.77708,3.538623 V 33.779071 c 0,-1.96157 -1.68333,-3.538622 -3.77708,-3.538622 z"
             style="opacity:0;fill:#000000;fill-opacity:1;stroke:none;stroke-width:0.921167"
             inkscape:connector-curvature="0"
             transform="translate(29.042338,-28.287372)" />
          <rect
             ry="3.5101287"
             rx="3.7548218"
             y="-112.3062"
             x="-27.081186"
             height="81.610527"
             width="87.299652"
             id="rect4133"
             style="fill:url(#linearGradient5871);fill-opacity:1;stroke:#738589;stroke-width:0.921458;stroke-miterlimit:4;stroke-dasharray:none;stroke-opacity:1"
             transform="matrix(1,0,0,-1,29.042338,-28.287372)" />
          <path
             inkscape:connector-curvature="0"
             style="fill:#e4e8e8;fill-opacity:1;stroke:#738589;stroke-width:0.921458;stroke-miterlimit:4;stroke-dasharray:none;stroke-opacity:1"
             d="m -23.314823,37.645302 c -2.080151,0 -3.765947,1.582973 -3.765947,3.536246 v 3.564091 c 0,-1.953274 1.685796,-3.536247 3.765947,-3.536247 h 79.766915 c 2.080148,0 3.765946,1.582973 3.765946,3.536247 v -3.564091 c 0,-1.953273 -1.685798,-3.536246 -3.765946,-3.536246 z"
             id="path4060"
             transform="translate(29.042338,-28.287372)" />
          <path
             id="path4062"
             d="m -23.314823,34.081593 c -2.080151,0 -3.765947,1.582971 -3.765947,3.536244 v 3.56409 c 0,-1.953273 1.685796,-3.536245 3.765947,-3.536245 h 79.766915 c 2.080148,0 3.765946,1.582972 3.765946,3.536245 v -3.56409 c 0,-1.953273 -1.685798,-3.536244 -3.765946,-3.536244 z"
             style="fill:#e4e8e8;fill-opacity:1;stroke:#738589;stroke-width:0.921458;stroke-miterlimit:4;stroke-dasharray:none;stroke-opacity:1"
             inkscape:connector-curvature="0"
             transform="translate(29.042338,-28.287372)" />
          <path
             inkscape:connector-curvature="0"
             style="fill:#e4e8e8;fill-opacity:1;stroke:#738589;stroke-width:0.921458;stroke-miterlimit:4;stroke-dasharray:none;stroke-opacity:1"
             d="m -23.314823,30.50288 c -2.080151,0 -3.765947,1.582972 -3.765947,3.536245 v 3.564089 c 0,-1.953272 1.685796,-3.536244 3.765947,-3.536244 h 79.766915 c 2.080148,0 3.765946,1.582972 3.765946,3.536244 v -3.564089 c 0,-1.953273 -1.685798,-3.536245 -3.765946,-3.536245 z"
             id="path4351"
             transform="translate(29.042338,-28.287372)" />
          <path
             sodipodi:nodetypes="sscsscsss"
             inkscape:connector-curvature="0"
             id="rect4358"
             d="m -23.330485,30.689797 c -2.080172,0 -3.7471,1.565928 -3.7471,3.510539 v 11.68307 c 0,-1.944611 2.002217,-4.299935 4.082385,-4.295832 l 79.630607,0.157059 c 2.080157,0.0041 3.579444,2.194162 3.579444,4.138773 v -11.68307 c 0,-1.944611 -1.666933,-3.510539 -3.7471,-3.510539 z"
             style="opacity:0.258182;fill:url(#linearGradient5875);fill-opacity:1;stroke:none;stroke-width:0.921167"
             transform="translate(29.042338,-28.287372)" />
          <g
             transform="matrix(1.3644812,0,0,1.2871356,112.29057,-30.760461)"
             id="g4111">
            <path
               inkscape:connector-curvature="0"
               d="m -79.857685,34.123204 h 61.801301 v 1.900651 h -61.801301 z"
               id="path4253"
               style="fill:url(#radialGradient4210);fill-opacity:1;fill-rule:nonzero" />
            <g
               id="g4178">
              <path
                 style="fill:url(#radialGradient3333-6);fill-rule:nonzero"
                 id="path3934"
                 d="m -20.164741,62.19609 3.406405,3.492737 V 87.518433 H -40.87788 Z"
                 inkscape:connector-curvature="0" />
              <path
                 style="fill:url(#linearGradient3335-7);fill-rule:nonzero"
                 id="path3922"
                 d="m -18.166079,29.019518 v 31 l -23.989655,29 h 1.919172 l 22.820159,-28.34375 0.20991,-0.28125 v -0.375 -30 z"
                 inkscape:connector-curvature="0" />
              <path
                 style="fill:url(#linearGradient3341-2);fill-rule:nonzero"
                 id="path4278"
                 d="m -41.954866,88.617783 26,-31 c -2.328567,2.776369 -4.36141,3 -11,3 h -12 v 15 c 0,6.644068 0.04437,9.370179 -3,13 z"
                 inkscape:connector-curvature="0" />
              <path
                 inkscape:connector-curvature="0"
                 style="fill:#ffffff;fill-opacity:0.771201;fill-rule:nonzero"
                 id="path4282"
                 d="m -16.054215,57.668542 c -2.328567,2.776369 -4.36141,3 -11,3 h -12 v 15 c 0,6.644068 0.04437,9.370179 -3,13 4,-5 4.000382,-8.356667 4,-13 v -14 h 11 c 5,0 8.041405,-0.381883 11,-4 z" />
            </g>
          </g>
          <g
             style="opacity:0.785454"
             transform="matrix(0.83059452,0,0,1.0850574,7.342086,-13.235287)"
             id="g5958">
            <g
               id="g5969">
              <g
                 transform="matrix(1.0218766,0,0,1.2049625,-0.65071416,-16.393755)"
                 id="g6727">
                <g
                   id="g6750">
                  <path
                     inkscape:connector-curvature="0"
                     id="path6746"
                     d="m 29.53125,42.8125 v 0.625 c 14.50027,-8.75e-4 21.738311,-9.7e-4 25.375,0 1.818345,4.85e-4 2.729381,-0.0013 3.1875,0 0.22906,6.71e-4 0.350803,0.03037 0.40625,0.03125 0.0052,5.51e-4 0.03004,-8e-5 0.03125,0 0.0062,7.22e-4 0.02658,-4.17e-4 0.03125,0 0.02334,0.0021 0.0312,-8.51e-4 0.0625,0 0.06259,0.0017 0.179102,-0.0019 0.40625,0 0.454297,0.0039 1.349818,-0.0055 3.15625,0 0.236396,7.23e-4 1.387925,-7.53e-4 1.65625,0 -0.0013,3.033741 -8.98e-4,4.186231 0,5.375 -0.251966,-7.18e-4 -1.339172,6.9e-4 -1.5625,0 -1.795571,-0.0055 -2.707456,0.0039 -3.15625,0 -0.224397,-0.0019 -0.322692,0.0014 -0.375,0 -0.01057,-0.004 -0.02431,0.0014 -0.03125,0 -0.02948,-0.0061 -0.02058,-0.03054 -0.03125,-0.03125 -0.02134,-0.0014 -0.03121,5.01e-4 -0.0625,0 -0.06258,-10e-4 -0.17767,6.77e-4 -0.40625,0 -0.457161,-0.0014 -1.379507,4.88e-4 -3.1875,0 -0.277464,-7.5e-5 -1.615993,5.8e-5 -1.9375,0 2.15e-4,-2.105768 -4.06e-4,-2.293896 0,-5.34375 h -0.625 c -4.06e-4,3.049853 2.15e-4,3.237983 0,5.34375 -1.871943,-2.95e-4 -7.182856,-1.15e-4 -10.78125,0 2.15e-4,-2.105768 -4.06e-4,-2.293896 0,-5.34375 h -0.625 c -4.06e-4,3.049853 2.15e-4,3.237983 0,5.34375 -3.715648,1.33e-4 -4.746774,-3.67e-4 -10.78125,0 2.15e-4,-2.105768 -4.06e-4,-2.293896 0,-5.34375 H 29.625 c -0.0012,9.006875 -0.0016,13.521864 0,15.78125 8.1e-4,1.129693 -0.0022,1.712749 0,2 0.0011,0.143625 -0.0019,0.203678 0,0.25 9.47e-4,0.02316 0.02486,0.02496 0.03125,0.0625 7.99e-4,0.0047 -0.0013,0.02522 0,0.03125 0.0019,0.0082 -0.0058,0.01551 0,0.03125 0.0017,0.03169 -0.0026,0.06853 0,0.1875 0.0061,0.277596 0.02242,0.847376 0.03125,1.96875 0.01759,2.233831 0.03178,6.751082 0.0625,15.65625 -0.105719,-4.21e-4 -0.08041,4.26e-4 -0.1875,0 v 0.65625 c 8.317567,0.03312 12.476618,0.05293 14.5625,0.0625 1.042941,0.0048 1.55079,-0.0025 1.8125,0 0.09814,9.36e-4 0.151207,-7.77e-4 0.1875,0 0.0121,2.59e-4 0.05574,-2.27e-4 0.0625,0 0.01467,0.0017 0.04843,-7.68e-4 0.0625,0 0.04223,0.0023 0.08753,-0.0026 0.21875,0 0.262447,0.0052 0.776006,0.02112 1.8125,0.03125 2.072988,0.02025 6.241479,0.07054 14.53125,0.125 V 79.65625 C 54.522999,79.60179 50.383869,79.58273 48.3125,79.5625 47.276816,79.55238 46.757112,79.53638 46.5,79.53125 c -0.09183,-0.0018 -0.121144,0.0013 -0.15625,0 -2.01e-4,-7.8e-5 -0.02007,0.0034 -0.03125,0 -0.01222,-0.0033 -0.02539,9.95e-4 -0.03125,0 -0.01224,-0.0026 -0.02412,9.02e-4 -0.03125,0 -0.02851,-0.0036 -0.04208,6.84e-4 -0.0625,0 -0.04084,-0.0014 -0.08633,0.0013 -0.21875,0 C 45.703918,79.52875 45.168202,79.50479 44.125,79.5 c -0.389515,-0.0018 -2.170881,0.0023 -2.71875,0 l 0.40625,-0.03125 c -0.01114,-3.23666 -0.02197,-3.481608 -0.03125,-5.65625 0.548804,0.0023 2.328893,-0.0018 2.71875,0 1.041865,0.0048 1.582313,0.02875 1.84375,0.03125 0.112044,0.0011 0.15423,-8.44e-4 0.1875,0 0.0055,1.41e-4 0.02739,-1.29e-4 0.03125,0 0.03244,0.0055 0.0414,-0.0012 0.0625,0 0.0422,0.0023 0.118909,-0.0026 0.25,0 0.262183,0.0052 0.777074,0.02112 1.8125,0.03125 0.55461,0.0054 2.983837,0.02388 3.875,0.03125 0.0092,2.158457 0.02025,2.39935 0.03125,5.59375 l 0.625,-0.03125 c -0.01096,-3.183015 -0.0221,-3.40828 -0.03125,-5.5625 2.451445,0.01986 4.263077,0.05622 9.96875,0.09375 l 0.03125,-0.65625 c -5.710991,-0.03757 -7.549268,-0.04264 -10,-0.0625 -0.0092,-2.097245 -0.02379,-4.430371 -0.03125,-5.6875 2.451706,0.01985 4.275418,0.02505 9.96875,0.0625 v -0.625 c -5.705441,-0.03753 -7.517893,-0.04264 -9.96875,-0.0625 -0.0041,-0.660114 0.0036,-2.731354 0,-3.1875 -0.0084,-1.069057 -0.02519,-1.577896 -0.03125,-1.875 C 55.570102,61.9261 57.364916,61.96276 63,62 v -0.65625 c -5.652682,-0.03736 -7.462025,-0.04264 -9.90625,-0.0625 -2.97e-4,-0.02679 2.65e-4,-0.02768 0,-0.0625 -0.0021,-0.282913 8.1e-4,-0.839421 0,-1.96875 -3.88e-4,-0.541183 1.5e-4,-2.950708 0,-3.78125 0.332989,1.45e-4 1.713894,-1.52e-4 2,0 1.808282,9.63e-4 2.700722,-0.0015 3.15625,0 0.210243,7.08e-4 0.315452,-8.6e-4 0.375,0 0.005,7.2e-5 0.02703,-7.2e-5 0.03125,0 0.0091,0.0014 0.02518,-5.78e-4 0.03125,0 0.02426,0.0023 0.06245,-9.13e-4 0.09375,0 0.06259,0.0018 0.149057,0.02914 0.375,0.03125 0.451885,0.0042 1.359794,-0.0063 3.15625,0 0.241014,8.44e-4 1.413087,-8.87e-4 1.6875,0 0.02347,1.210457 0.03014,1.871487 0.0625,4.375 h 0.625 C 64.65527,57.381468 64.64845,56.712011 64.625,55.5 c 1.851725,0.0058 7.267,0.02345 10.875,0.03125 0.02336,1.209353 0.03037,1.858115 0.0625,4.34375 h 0.625 c -0.032,-2.475726 -0.03916,-3.132928 -0.0625,-4.34375 3.694472,0.0079 4.758979,0.02111 10.78125,0.03125 0.02325,1.208164 0.0306,1.844743 0.0625,4.3125 h 0.625 c -0.05319,-4.114544 -0.09447,-6.186205 -0.125,-7.21875 -0.01526,-0.516273 -0.01948,-0.763564 -0.03125,-0.90625 -0.0059,-0.07134 -0.01551,-0.09643 -0.03125,-0.15625 0.0028,0.01805 0.0018,-0.03251 0,-0.09375 -0.0035,-0.122483 -0.0298,-0.389292 -0.03125,-0.90625 -4.27e-4,-0.152178 2.69e-4,-0.862282 0,-1.0625 0.01785,2.4e-5 0.01338,-2.4e-5 0.03125,0 v -0.625 c -0.01787,-2.4e-5 -0.0134,2.4e-5 -0.03125,0 -9.37e-4,-1.171306 -0.0013,-2.367582 0,-5.375 0.07101,9.5e-5 0.05363,-9.5e-5 0.125,0 v -0.625 c -14.451392,-0.01927 -21.700508,-0.05146 -25.3125,-0.0625 -1.805996,-0.0055 -2.704828,0.0039 -3.15625,0 -0.225711,-0.0019 -0.322308,-0.02982 -0.375,-0.03125 0,0 -0.03125,0.03125 -0.03125,0.03125 -0.01462,-0.003 0.0078,-0.03042 0,-0.03125 -0.0078,-8.31e-4 -0.02594,3.51e-4 -0.03125,0 -0.02125,-0.0014 -0.03106,4.98e-4 -0.0625,0 -0.06289,-9.96e-4 -0.17635,6.74e-4 -0.40625,0 -0.459801,-0.0013 -1.400265,4.85e-4 -3.21875,0 -3.636971,-9.7e-4 -10.874731,-8.75e-4 -25.375,0 z m 34.9375,0.65625 c 1.844418,0.005 7.290455,0.02478 10.875,0.03125 -0.0013,3.020553 -9.18e-4,4.194467 0,5.375 -3.591033,-0.0065 -9.03821,-0.02618 -10.875,-0.03125 -8.96e-4,-1.187781 -0.0013,-2.341242 0,-5.375 z M 76,43.5 c 3.665289,0.0065 4.793109,0.02318 10.75,0.03125 -0.0013,3.007393 -9.39e-4,4.202674 0,5.375 C 80.762062,48.89805 79.672842,48.88156 76,48.875 75.999084,47.695471 75.9987,46.520573 76,43.5 Z m -45.71875,5.96875 c 6.034477,-3.67e-4 7.06561,1.33e-4 10.78125,0 -1.82e-4,2.001858 -1.61e-4,4.090042 0,5.34375 -3.72048,-7.83e-4 -4.745129,0.0011 -10.78125,0 -1.61e-4,-1.253606 -1.82e-4,-3.341897 0,-5.34375 z m 11.40625,0 c 3.598383,-1.15e-4 8.909399,-2.95e-4 10.78125,0 -1.83e-4,2.013565 -1.65e-4,4.117845 0,5.375 -1.878035,-7.74e-4 -7.177886,-0.03048 -10.78125,-0.03125 -1.61e-4,-1.253606 -1.82e-4,-3.341897 0,-5.34375 z m 11.40625,0 c 0.321489,5.8e-5 1.660058,-7.5e-5 1.9375,0 1.807851,4.88e-4 2.732038,-0.0013 3.1875,0 0.227731,6.74e-4 0.319933,-8.82e-4 0.375,0 0.02753,4.41e-4 0.03628,3.36e-4 0.03125,0 0.0088,0.0012 0.02539,-5.29e-4 0.03125,0 0.02345,0.0021 0.03135,-8.56e-4 0.0625,0 0.06231,0.0017 0.180401,-0.0019 0.40625,0 0.451698,0.0039 1.360239,0.0257 3.15625,0.03125 0.223384,6.9e-4 1.310484,-7.18e-4 1.5625,0 2.73e-4,0.207937 -4.4e-4,0.936678 0,1.09375 0.0015,0.518337 -0.004,0.798672 0,0.9375 0.002,0.06941 0.02327,0.104515 0.03125,0.15625 0.002,0.01293 -0.006,0.01013 0,0.03125 0.003,0.01056 -0.0061,0.01656 0,0.03125 0.0061,0.01469 0.03088,0.06192 0.03125,0.0625 0.0095,0.115145 0.01611,0.362935 0.03125,0.875 0.0092,0.311675 0.0201,1.655801 0.03125,2.1875 -0.268652,-8.69e-4 -1.419759,8.28e-4 -1.65625,0 -1.795992,-0.0063 -2.676174,-0.02706 -3.125,-0.03125 -0.207151,-0.0019 -0.318031,0.0015 -0.375,0 -0.009,-0.0034 -0.0251,0.0014 -0.03125,0 -0.03077,-0.0068 -0.05149,7.76e-4 -0.0625,0 -0.02203,-0.0016 -0.0311,5.37e-4 -0.0625,0 -0.0628,-0.0011 -0.177592,7.7e-4 -0.40625,0 -0.457316,-0.0015 -1.347819,9.63e-4 -3.15625,0 -0.28613,-1.52e-4 -1.666992,1.45e-4 -2,0 -1.65e-4,-1.257052 -1.83e-4,-3.361441 0,-5.375 z M 64.46875,49.5 c 1.837117,0.0051 7.283838,0.0247 10.875,0.03125 2.7e-4,0.200487 -4.28e-4,0.909916 0,1.0625 0.0015,0.518337 0.02725,0.798672 0.03125,0.9375 0.002,0.06941 -0.008,0.104515 0,0.15625 0.002,0.01293 -0.006,0.01013 0,0.03125 0.003,0.01056 0.02514,0.01656 0.03125,0.03125 -0.0071,-0.027 -0.0048,0.0049 0,0.0625 0.0095,0.115145 0.01611,0.362935 0.03125,0.875 0.0093,0.316126 0.01991,1.675845 0.03125,2.21875 C 71.866748,54.89845 66.440931,54.88081 64.59375,54.875 64.58244,54.334175 64.57188,52.973595 64.5625,52.65625 64.54724,52.139977 64.54302,51.892686 64.53125,51.75 64.52535,51.67866 64.51574,51.65357 64.5,51.59375 c 0.0028,0.01805 0.0018,-0.03251 0,-0.09375 -0.0035,-0.122483 -0.0298,-0.389292 -0.03125,-0.90625 -4.39e-4,-0.156654 2.72e-4,-0.886087 0,-1.09375 z M 76,49.53125 c 3.672949,0.0066 4.762016,-0.0082 10.75,0 2.7e-4,0.200487 -4.28e-4,0.909916 0,1.0625 0.0015,0.518337 -0.004,0.798672 0,0.9375 0.002,0.06941 0.02327,0.104515 0.03125,0.15625 0.002,0.01293 -0.006,0.01013 0,0.03125 0.003,0.01056 -0.0061,0.01656 0,0.03125 0.0061,0.01469 0.03088,0.06192 0.03125,0.0625 0.0095,0.115145 0.01611,0.362935 0.03125,0.875 0.0093,0.316126 0.01991,1.675845 0.03125,2.21875 -6.014624,-0.01014 -7.092824,0.0078 -10.78125,0 -0.0115,-0.552066 -0.02174,-1.928187 -0.03125,-2.25 C 76.04724,52.139977 76.04302,51.892686 76.03125,51.75 76.02535,51.67866 76.01574,51.65357 76,51.59375 c -0.0014,-0.0052 0.0015,-0.02523 0,-0.03125 -5.33e-4,-0.0089 0.0012,-0.02167 0,-0.0625 -0.0035,-0.122483 0.0015,-0.389292 0,-0.90625 -4.27e-4,-0.152178 2.69e-4,-0.862282 0,-1.0625 z m -45.71875,5.9375 c 6.036132,0.0011 7.060776,-7.83e-4 10.78125,0 1.5e-4,0.830627 -3.88e-4,3.239892 0,3.78125 7.85e-4,1.09439 -0.0021,1.642037 0,1.9375 -2.328358,-0.0099 -4.792836,-0.03851 -10.78125,-0.0625 -0.002,-0.295814 7.71e-4,-0.799449 0,-1.875 -3.88e-4,-0.541183 1.5e-4,-2.950708 0,-3.78125 z m 11.40625,0 c 3.603342,7.73e-4 8.903315,-7.74e-4 10.78125,0 1.5e-4,0.830627 -3.88e-4,3.239892 0,3.78125 8.1e-4,1.129693 -0.0022,1.712749 0,2 1.36e-4,0.01795 -1.39e-4,0.01545 0,0.03125 -0.908748,-0.0075 -3.376067,-0.02573 -3.9375,-0.03125 -1.031512,-0.01014 -1.525199,-0.02611 -1.78125,-0.03125 -0.09145,-0.0018 -0.121321,0.0013 -0.15625,0 -2.01e-4,-7.8e-5 -0.02002,0.0035 -0.03125,0 -0.01228,-0.0033 -0.02535,10e-4 -0.03125,0 -0.0123,-0.0026 -0.02409,9.12e-4 -0.03125,0 -0.02862,-0.0036 -0.04213,6.87e-4 -0.0625,0 -0.04075,-0.0014 -0.08686,0.0013 -0.21875,0 -0.263782,-0.0025 -0.804745,-0.02645 -1.84375,-0.03125 -0.385141,-0.0018 -2.147011,0.0023 -2.6875,0 -0.0021,-0.287369 7.97e-4,-0.826097 0,-1.9375 -3.88e-4,-0.541183 1.5e-4,-2.950708 0,-3.78125 z m -11.40625,6.3125 c 6.005747,0.02406 8.485754,0.02137 10.8125,0.03125 0.0061,0.277596 -0.0088,0.847376 0,1.96875 0.0035,0.441426 0.02731,2.461337 0.03125,3.09375 -2.336486,-0.0099 -4.813802,-0.03859 -10.8125,-0.0625 -0.0039,-0.617411 0.0034,-2.597464 0,-3.03125 -0.0088,-1.122496 -0.02499,-1.683758 -0.03125,-1.96875 -3.48e-4,-0.01583 3.35e-4,-0.01711 0,-0.03125 z m 11.4375,0.03125 c 0.532222,0.0023 2.275678,-0.0018 2.65625,0 1.038743,0.0048 1.583109,0.02875 1.84375,0.03125 0.111703,0.0011 0.154364,-8.44e-4 0.1875,0 0.0055,1.41e-4 0.02741,-1.29e-4 0.03125,0 0.03255,0.0056 0.04143,-0.0012 0.0625,0 0.04215,0.0023 0.08804,-0.0026 0.21875,0 0.261418,0.0052 0.780174,0.0211 1.8125,0.03125 0.566326,0.0056 3.049441,0.02363 3.96875,0.03125 0.0059,0.290677 0.02284,0.807011 0.03125,1.875 0.0036,0.454785 -0.0041,2.529445 0,3.1875 -0.89093,-0.0074 -3.320816,-0.02583 -3.875,-0.03125 -1.034615,-0.01012 -1.555659,-0.02612 -1.8125,-0.03125 -0.09173,-0.0018 -0.121189,0.0013 -0.15625,0 -2.01e-4,-7.8e-5 -0.02006,0.0034 -0.03125,0 -0.01223,-0.0033 -0.02538,9.98e-4 -0.03125,0 -0.01225,-0.0026 -0.02412,9.04e-4 -0.03125,0 -0.02853,-0.0036 -0.04209,6.85e-4 -0.0625,0 -0.04081,-0.0014 -0.08647,-0.02999 -0.21875,-0.03125 -0.264562,-0.0025 -0.801623,0.0048 -1.84375,0 -0.389113,-0.0018 -2.171446,0.0023 -2.71875,0 -0.0039,-0.634354 0.0035,-2.65102 0,-3.09375 -0.0088,-1.122496 -0.02499,-1.683758 -0.03125,-1.96875 z M 30.3125,67.46875 c 5.998674,0.02391 8.476208,0.02139 10.8125,0.03125 0.0074,1.241153 0.02214,3.613294 0.03125,5.6875 -2.343386,-0.0099 -4.788167,-0.03848 -10.8125,-0.0625 -0.0091,-2.059923 -0.02387,-4.421997 -0.03125,-5.65625 z M 41.75,67.5 c 0.547257,0.0023 2.329729,-0.0018 2.71875,0 1.041865,0.0048 1.551063,0.02875 1.8125,0.03125 0.09804,9.36e-4 0.151251,-7.77e-4 0.1875,0 0.01208,2.59e-4 0.05575,-2.26e-4 0.0625,0 0.03244,0.0055 0.0414,-0.0012 0.0625,0 0.0422,0.0023 0.08766,-0.0026 0.21875,0 0.262183,0.0052 0.777074,0.02112 1.8125,0.03125 0.557886,0.0055 3.007585,0.02382 3.90625,0.03125 0.0074,1.253156 0.02211,3.597772 0.03125,5.6875 -0.8882,-0.0074 -3.32201,-0.02584 -3.875,-0.03125 -1.034615,-0.01012 -1.555659,-0.02612 -1.8125,-0.03125 -0.09173,-0.0018 -0.121188,0.0013 -0.15625,0 -0.01402,-5.11e-4 -0.05568,3.73e-4 -0.0625,0 -0.01225,-0.0026 -0.02412,9.04e-4 -0.03125,0 -0.02853,-0.0036 -0.01084,6.85e-4 -0.03125,0 -0.04081,-0.0014 -0.117719,0.0013 -0.25,0 -0.264562,-0.0025 -0.801623,-0.02646 -1.84375,-0.03125 -0.38995,-0.0018 -2.169899,0.0023 -2.71875,0 C 41.772118,71.105839 41.757432,68.745076 41.75,67.5 Z m -11.40625,6.28125 c 6.024308,0.02402 8.469308,0.02136 10.8125,0.03125 0.0093,2.178721 0.02007,2.439593 0.03125,5.6875 -2.234276,-0.0095 -4.976061,-0.03926 -10.8125,-0.0625 -0.01113,-3.230214 -0.02198,-3.48689 -0.03125,-5.65625 z"
                     style="color:#000000;font-style:normal;font-variant:normal;font-weight:normal;font-stretch:normal;font-size:medium;line-height:normal;font-family:Sans;-inkscape-font-specification:Sans;text-indent:0;text-align:start;text-decoration:none;text-decoration-line:none;letter-spacing:normal;word-spacing:normal;text-transform:none;writing-mode:lr-tb;direction:ltr;baseline-shift:baseline;text-anchor:start;display:inline;overflow:visible;visibility:visible;fill:#000000;fill-opacity:0.330612;fill-rule:nonzero;stroke:none;stroke-width:0.633789;marker:none;enable-background:accumulate" />
                  <path
                     style="color:#000000;font-style:normal;font-variant:normal;font-weight:normal;font-stretch:normal;font-size:medium;line-height:normal;font-family:Sans;-inkscape-font-specification:Sans;text-indent:0;text-align:start;text-decoration:none;text-decoration-line:none;letter-spacing:normal;word-spacing:normal;text-transform:none;writing-mode:lr-tb;direction:ltr;baseline-shift:baseline;text-anchor:start;display:inline;overflow:visible;visibility:visible;fill:#2a3c4b;fill-opacity:1;fill-rule:nonzero;stroke:none;stroke-width:0.633789;marker:none;enable-background:accumulate"
                     d="m 30.065032,42.267708 v 0.625 c 14.50027,-8.75e-4 21.738311,-9.7e-4 25.375,0 1.818345,4.85e-4 2.729381,-0.0013 3.1875,0 0.22906,6.71e-4 0.350803,0.03037 0.40625,0.03125 0.0052,5.51e-4 0.03004,-8e-5 0.03125,0 0.0062,7.22e-4 0.02658,-4.17e-4 0.03125,0 0.02334,0.0021 0.0312,-8.51e-4 0.0625,0 0.06259,0.0017 0.179102,-0.0019 0.40625,0 0.454297,0.0039 1.349818,-0.0055 3.15625,0 0.236396,7.23e-4 1.387925,-7.53e-4 1.65625,0 -0.0013,3.033741 -8.98e-4,4.186231 0,5.375 -0.251966,-7.18e-4 -1.339172,6.9e-4 -1.5625,0 -1.795571,-0.0055 -2.707456,0.0039 -3.15625,0 -0.224397,-0.0019 -0.322692,0.0014 -0.375,0 -0.01057,-0.004 -0.02431,0.0014 -0.03125,0 -0.02948,-0.0061 -0.02058,-0.03054 -0.03125,-0.03125 -0.02134,-0.0014 -0.03121,5.01e-4 -0.0625,0 -0.06258,-10e-4 -0.17767,6.77e-4 -0.40625,0 -0.457161,-0.0014 -1.379507,4.88e-4 -3.1875,0 -0.277464,-7.5e-5 -1.615993,5.8e-5 -1.9375,0 2.15e-4,-2.105768 -4.06e-4,-2.293896 0,-5.34375 h -0.625 c -4.06e-4,3.049853 2.15e-4,3.237983 0,5.34375 -1.871943,-2.95e-4 -7.182856,-1.15e-4 -10.78125,0 2.15e-4,-2.105768 -4.06e-4,-2.293896 0,-5.34375 h -0.625 c -4.06e-4,3.049853 2.15e-4,3.237983 0,5.34375 -3.715648,1.33e-4 -4.746774,-3.67e-4 -10.78125,0 2.15e-4,-2.105768 -4.06e-4,-2.293896 0,-5.34375 h -0.65625 c -0.0012,9.006875 -0.0016,13.521864 0,15.78125 8.1e-4,1.129693 -0.0022,1.712749 0,2 0.0011,0.143625 -0.0019,0.203678 0,0.25 9.47e-4,0.02316 0.02486,0.02496 0.03125,0.0625 7.99e-4,0.0047 -0.0013,0.02522 0,0.03125 0.0019,0.0082 -0.0058,0.01551 0,0.03125 0.0017,0.03169 -0.0026,0.06853 0,0.1875 0.0061,0.277596 0.02242,0.847376 0.03125,1.96875 0.01759,2.233831 0.03178,6.751082 0.0625,15.65625 -0.105719,-4.21e-4 -0.08041,4.26e-4 -0.1875,0 v 0.65625 c 8.317567,0.03312 12.476618,0.05293 14.5625,0.0625 1.042941,0.0048 1.55079,-0.0025 1.8125,0 0.09814,9.36e-4 0.151207,-7.77e-4 0.1875,0 0.0121,2.59e-4 0.05574,-2.27e-4 0.0625,0 0.01467,0.0017 0.04843,-7.68e-4 0.0625,0 0.04223,0.0023 0.08753,-0.0026 0.21875,0 0.262447,0.0052 0.776006,0.02112 1.8125,0.03125 2.072988,0.02025 6.241479,0.07054 14.53125,0.125 v -0.65625 c -8.289501,-0.05446 -12.428631,-0.07352 -14.5,-0.09375 -1.035684,-0.01012 -1.555388,-0.02612 -1.8125,-0.03125 -0.09183,-0.0018 -0.121144,0.0013 -0.15625,0 -2.01e-4,-7.8e-5 -0.02007,0.0034 -0.03125,0 -0.01222,-0.0033 -0.02539,9.95e-4 -0.03125,0 -0.01224,-0.0026 -0.02412,9.02e-4 -0.03125,0 -0.02851,-0.0036 -0.04208,6.84e-4 -0.0625,0 -0.04084,-0.0014 -0.08633,0.0013 -0.21875,0 -0.264832,-0.0025 -0.800548,-0.02646 -1.84375,-0.03125 -0.389515,-0.0018 -2.170881,0.0023 -2.71875,0 l 0.40625,-0.03125 c -0.01114,-3.23666 -0.02197,-3.481608 -0.03125,-5.65625 0.548804,0.0023 2.328893,-0.0018 2.71875,0 1.041865,0.0048 1.582313,0.02875 1.84375,0.03125 0.112044,0.0011 0.15423,-8.44e-4 0.1875,0 0.0055,1.41e-4 0.02739,-1.29e-4 0.03125,0 0.03244,0.0055 0.0414,-0.0012 0.0625,0 0.0422,0.0023 0.118909,-0.0026 0.25,0 0.262183,0.0052 0.777074,0.02112 1.8125,0.03125 0.55461,0.0054 2.983837,0.02388 3.875,0.03125 0.0092,2.158457 0.02025,2.39935 0.03125,5.59375 l 0.625,-0.03125 c -0.01096,-3.183015 -0.0221,-3.40828 -0.03125,-5.5625 2.451445,0.01986 4.263077,0.05622 9.96875,0.09375 l 0.03125,-0.65625 c -5.710991,-0.03757 -7.549268,-0.04264 -10,-0.0625 -0.0092,-2.097245 -0.02379,-4.430371 -0.03125,-5.6875 2.451706,0.01985 4.275418,0.02505 9.96875,0.0625 v -0.625 c -5.705441,-0.03753 -7.517893,-0.04264 -9.96875,-0.0625 -0.0041,-0.660114 0.0036,-2.731354 0,-3.1875 -0.0084,-1.069057 -0.02519,-1.577896 -0.03125,-1.875 2.445102,0.01985 4.239916,0.05651 9.875,0.09375 v -0.65625 c -5.652682,-0.03736 -7.462025,-0.04264 -9.90625,-0.0625 -2.97e-4,-0.02679 2.65e-4,-0.02768 0,-0.0625 -0.0021,-0.282913 8.1e-4,-0.839421 0,-1.96875 -3.88e-4,-0.541183 1.5e-4,-2.950708 0,-3.78125 0.332989,1.45e-4 1.713894,-1.52e-4 2,0 1.808282,9.63e-4 2.700722,-0.0015 3.15625,0 0.210243,7.08e-4 0.315452,-8.6e-4 0.375,0 0.005,7.2e-5 0.02703,-7.2e-5 0.03125,0 0.0091,0.0014 0.02518,-5.78e-4 0.03125,0 0.02426,0.0023 0.06245,-9.13e-4 0.09375,0 0.06259,0.0018 0.149057,0.02914 0.375,0.03125 0.451885,0.0042 1.359794,-0.0063 3.15625,0 0.241014,8.44e-4 1.413087,-8.87e-4 1.6875,0 0.02347,1.210457 0.03014,1.871487 0.0625,4.375 h 0.625 c -0.03223,-2.493532 -0.03905,-3.162989 -0.0625,-4.375 1.851725,0.0058 7.267,0.02345 10.875,0.03125 0.02336,1.209353 0.03037,1.858115 0.0625,4.34375 h 0.625 c -0.032,-2.475726 -0.03916,-3.132928 -0.0625,-4.34375 3.694472,0.0079 4.758979,0.02111 10.78125,0.03125 0.02325,1.208164 0.0306,1.844743 0.0625,4.3125 h 0.625 c -0.05319,-4.114544 -0.09447,-6.186205 -0.125,-7.21875 -0.01526,-0.516273 -0.01948,-0.763564 -0.03125,-0.90625 -0.0059,-0.07134 -0.01551,-0.09643 -0.03125,-0.15625 0.0028,0.01805 0.0018,-0.03251 0,-0.09375 -0.0035,-0.122483 -0.0298,-0.389292 -0.03125,-0.90625 -4.27e-4,-0.152178 2.69e-4,-0.862282 0,-1.0625 0.01785,2.4e-5 0.01338,-2.4e-5 0.03125,0 v -0.625 c -0.01787,-2.4e-5 -0.0134,2.4e-5 -0.03125,0 -9.37e-4,-1.171306 -0.0013,-2.367582 0,-5.375 0.07101,9.5e-5 0.05363,-9.5e-5 0.125,0 v -0.625 c -14.451392,-0.01927 -21.700508,-0.05146 -25.3125,-0.0625 -1.805996,-0.0055 -2.704828,0.0039 -3.15625,0 -0.225711,-0.0019 -0.322308,-0.02982 -0.375,-0.03125 0,0 -0.03125,0.03125 -0.03125,0.03125 -0.01462,-0.003 0.0078,-0.03042 0,-0.03125 -0.0078,-8.31e-4 -0.02594,3.51e-4 -0.03125,0 -0.02125,-0.0014 -0.03106,4.98e-4 -0.0625,0 -0.06289,-9.96e-4 -0.17635,6.74e-4 -0.40625,0 -0.459801,-0.0013 -1.400265,4.85e-4 -3.21875,0 -3.636971,-9.7e-4 -10.874731,-8.75e-4 -25.375,0 z m 34.9375,0.65625 c 1.844418,0.005 7.290455,0.02478 10.875,0.03125 -0.0013,3.020553 -9.18e-4,4.194467 0,5.375 -3.591033,-0.0065 -9.03821,-0.02618 -10.875,-0.03125 -8.96e-4,-1.187781 -0.0013,-2.341242 0,-5.375 z m 11.53125,0.03125 c 3.665289,0.0065 4.793109,0.02318 10.75,0.03125 -0.0013,3.007393 -9.39e-4,4.202674 0,5.375 -5.987938,-0.0082 -7.077158,-0.02469 -10.75,-0.03125 -9.16e-4,-1.179529 -0.0013,-2.354427 0,-5.375 z m -45.71875,5.96875 c 6.034477,-3.67e-4 7.06561,1.33e-4 10.78125,0 -1.82e-4,2.001858 -1.61e-4,4.090042 0,5.34375 -3.72048,-7.83e-4 -4.745129,0.0011 -10.78125,0 -1.61e-4,-1.253606 -1.82e-4,-3.341897 0,-5.34375 z m 11.40625,0 c 3.598383,-1.15e-4 8.909399,-2.95e-4 10.78125,0 -1.83e-4,2.013565 -1.65e-4,4.117845 0,5.375 -1.878035,-7.74e-4 -7.177886,-0.03048 -10.78125,-0.03125 -1.61e-4,-1.253606 -1.82e-4,-3.341897 0,-5.34375 z m 11.40625,0 c 0.321489,5.8e-5 1.660058,-7.5e-5 1.9375,0 1.807851,4.88e-4 2.732038,-0.0013 3.1875,0 0.227731,6.74e-4 0.319933,-8.82e-4 0.375,0 0.02753,4.41e-4 0.03628,3.36e-4 0.03125,0 0.0088,0.0012 0.02539,-5.29e-4 0.03125,0 0.02345,0.0021 0.03135,-8.56e-4 0.0625,0 0.06231,0.0017 0.180401,-0.0019 0.40625,0 0.451698,0.0039 1.360239,0.0257 3.15625,0.03125 0.223384,6.9e-4 1.310484,-7.18e-4 1.5625,0 2.73e-4,0.207937 -4.4e-4,0.936678 0,1.09375 0.0015,0.518337 -0.004,0.798672 0,0.9375 0.002,0.06941 0.02327,0.104515 0.03125,0.15625 0.002,0.01293 -0.006,0.01013 0,0.03125 0.003,0.01056 -0.0061,0.01656 0,0.03125 0.0061,0.01469 0.03088,0.06192 0.03125,0.0625 0.0095,0.115145 0.01611,0.362935 0.03125,0.875 0.0092,0.311675 0.0201,1.655801 0.03125,2.1875 -0.268652,-8.69e-4 -1.419759,8.28e-4 -1.65625,0 -1.795992,-0.0063 -2.676174,-0.02706 -3.125,-0.03125 -0.207151,-0.0019 -0.318031,0.0015 -0.375,0 -0.009,-0.0034 -0.0251,0.0014 -0.03125,0 -0.03077,-0.0068 -0.05149,7.76e-4 -0.0625,0 -0.02203,-0.0016 -0.0311,5.37e-4 -0.0625,0 -0.0628,-0.0011 -0.177592,7.7e-4 -0.40625,0 -0.457316,-0.0015 -1.347819,9.63e-4 -3.15625,0 -0.28613,-1.52e-4 -1.666992,1.45e-4 -2,0 -1.65e-4,-1.257052 -1.83e-4,-3.361441 0,-5.375 z m 11.375,0.03125 c 1.837117,0.0051 7.283838,0.0247 10.875,0.03125 2.7e-4,0.200487 -4.28e-4,0.909916 0,1.0625 0.0015,0.518337 0.02725,0.798672 0.03125,0.9375 0.002,0.06941 -0.008,0.104515 0,0.15625 0.002,0.01293 -0.006,0.01013 0,0.03125 0.003,0.01056 0.02514,0.01656 0.03125,0.03125 -0.0071,-0.027 -0.0048,0.0049 0,0.0625 0.0095,0.115145 0.01611,0.362935 0.03125,0.875 0.0093,0.316126 0.01991,1.675845 0.03125,2.21875 -3.602002,-0.0078 -9.027819,-0.02544 -10.875,-0.03125 -0.01131,-0.540825 -0.02187,-1.901405 -0.03125,-2.21875 -0.01526,-0.516273 -0.01948,-0.763564 -0.03125,-0.90625 -0.0059,-0.07134 -0.01551,-0.09643 -0.03125,-0.15625 0.0028,0.01805 0.0018,-0.03251 0,-0.09375 -0.0035,-0.122483 -0.0298,-0.389292 -0.03125,-0.90625 -4.39e-4,-0.156654 2.72e-4,-0.886087 0,-1.09375 z m 11.53125,0.03125 c 3.672949,0.0066 4.762016,-0.0082 10.75,0 2.7e-4,0.200487 -4.28e-4,0.909916 0,1.0625 0.0015,0.518337 -0.004,0.798672 0,0.9375 0.002,0.06941 0.02327,0.104515 0.03125,0.15625 0.002,0.01293 -0.006,0.01013 0,0.03125 0.003,0.01056 -0.0061,0.01656 0,0.03125 0.0061,0.01469 0.03088,0.06192 0.03125,0.0625 0.0095,0.115145 0.01611,0.362935 0.03125,0.875 0.0093,0.316126 0.01991,1.675845 0.03125,2.21875 -6.014624,-0.01014 -7.092824,0.0078 -10.78125,0 -0.0115,-0.552066 -0.02174,-1.928187 -0.03125,-2.25 -0.01526,-0.516273 -0.01948,-0.763564 -0.03125,-0.90625 -0.0059,-0.07134 -0.01551,-0.09643 -0.03125,-0.15625 -0.0014,-0.0052 0.0015,-0.02523 0,-0.03125 -5.33e-4,-0.0089 0.0012,-0.02167 0,-0.0625 -0.0035,-0.122483 0.0015,-0.389292 0,-0.90625 -4.27e-4,-0.152178 2.69e-4,-0.862282 0,-1.0625 z m -45.71875,5.9375 c 6.036132,0.0011 7.060776,-7.83e-4 10.78125,0 1.5e-4,0.830627 -3.88e-4,3.239892 0,3.78125 7.85e-4,1.09439 -0.0021,1.642037 0,1.9375 -2.328358,-0.0099 -4.792836,-0.03851 -10.78125,-0.0625 -0.002,-0.295814 7.71e-4,-0.799449 0,-1.875 -3.88e-4,-0.541183 1.5e-4,-2.950708 0,-3.78125 z m 11.40625,0 c 3.603342,7.73e-4 8.903315,-7.74e-4 10.78125,0 1.5e-4,0.830627 -3.88e-4,3.239892 0,3.78125 8.1e-4,1.129693 -0.0022,1.712749 0,2 1.36e-4,0.01795 -1.39e-4,0.01545 0,0.03125 -0.908748,-0.0075 -3.376067,-0.02573 -3.9375,-0.03125 -1.031512,-0.01014 -1.525199,-0.02611 -1.78125,-0.03125 -0.09145,-0.0018 -0.121321,0.0013 -0.15625,0 -2.01e-4,-7.8e-5 -0.02002,0.0035 -0.03125,0 -0.01228,-0.0033 -0.02535,10e-4 -0.03125,0 -0.0123,-0.0026 -0.02409,9.12e-4 -0.03125,0 -0.02862,-0.0036 -0.04213,6.87e-4 -0.0625,0 -0.04075,-0.0014 -0.08686,0.0013 -0.21875,0 -0.263782,-0.0025 -0.804745,-0.02645 -1.84375,-0.03125 -0.385141,-0.0018 -2.147011,0.0023 -2.6875,0 -0.0021,-0.287369 7.97e-4,-0.826097 0,-1.9375 -3.88e-4,-0.541183 1.5e-4,-2.950708 0,-3.78125 z m -11.40625,6.3125 c 6.005747,0.02406 8.485754,0.02137 10.8125,0.03125 0.0061,0.277596 -0.0088,0.847376 0,1.96875 0.0035,0.441426 0.02731,2.461337 0.03125,3.09375 -2.336486,-0.0099 -4.813802,-0.03859 -10.8125,-0.0625 -0.0039,-0.617411 0.0034,-2.597464 0,-3.03125 -0.0088,-1.122496 -0.02499,-1.683758 -0.03125,-1.96875 -3.48e-4,-0.01583 3.35e-4,-0.01711 0,-0.03125 z m 11.4375,0.03125 c 0.532222,0.0023 2.275678,-0.0018 2.65625,0 1.038743,0.0048 1.583109,0.02875 1.84375,0.03125 0.111703,0.0011 0.154364,-8.44e-4 0.1875,0 0.0055,1.41e-4 0.02741,-1.29e-4 0.03125,0 0.03255,0.0056 0.04143,-0.0012 0.0625,0 0.04215,0.0023 0.08804,-0.0026 0.21875,0 0.261418,0.0052 0.780174,0.0211 1.8125,0.03125 0.566326,0.0056 3.049441,0.02363 3.96875,0.03125 0.0059,0.290677 0.02284,0.807011 0.03125,1.875 0.0036,0.454785 -0.0041,2.529445 0,3.1875 -0.89093,-0.0074 -3.320816,-0.02583 -3.875,-0.03125 -1.034615,-0.01012 -1.555659,-0.02612 -1.8125,-0.03125 -0.09173,-0.0018 -0.121189,0.0013 -0.15625,0 -2.01e-4,-7.8e-5 -0.02006,0.0034 -0.03125,0 -0.01223,-0.0033 -0.02538,9.98e-4 -0.03125,0 -0.01225,-0.0026 -0.02412,9.04e-4 -0.03125,0 -0.02853,-0.0036 -0.04209,6.85e-4 -0.0625,0 -0.04081,-0.0014 -0.08647,-0.02999 -0.21875,-0.03125 -0.264562,-0.0025 -0.801623,0.0048 -1.84375,0 -0.389113,-0.0018 -2.171446,0.0023 -2.71875,0 -0.0039,-0.634354 0.0035,-2.65102 0,-3.09375 -0.0088,-1.122496 -0.02499,-1.683758 -0.03125,-1.96875 z m -11.40625,5.65625 c 5.998674,0.02391 8.476208,0.02139 10.8125,0.03125 0.0074,1.241153 0.02214,3.613294 0.03125,5.6875 -2.343386,-0.0099 -4.788167,-0.03848 -10.8125,-0.0625 -0.0091,-2.059923 -0.02387,-4.421997 -0.03125,-5.65625 z m 11.4375,0.03125 c 0.547257,0.0023 2.329729,-0.0018 2.71875,0 1.041865,0.0048 1.551063,0.02875 1.8125,0.03125 0.09804,9.36e-4 0.151251,-7.77e-4 0.1875,0 0.01208,2.59e-4 0.05575,-2.26e-4 0.0625,0 0.03244,0.0055 0.0414,-0.0012 0.0625,0 0.0422,0.0023 0.08766,-0.0026 0.21875,0 0.262183,0.0052 0.777074,0.02112 1.8125,0.03125 0.557886,0.0055 3.007585,0.02382 3.90625,0.03125 0.0074,1.253156 0.02211,3.597772 0.03125,5.6875 -0.8882,-0.0074 -3.32201,-0.02584 -3.875,-0.03125 -1.034615,-0.01012 -1.555659,-0.02612 -1.8125,-0.03125 -0.09173,-0.0018 -0.121188,0.0013 -0.15625,0 -0.01402,-5.11e-4 -0.05568,3.73e-4 -0.0625,0 -0.01225,-0.0026 -0.02412,9.04e-4 -0.03125,0 -0.02853,-0.0036 -0.01084,6.85e-4 -0.03125,0 -0.04081,-0.0014 -0.117719,0.0013 -0.25,0 -0.264562,-0.0025 -0.801623,-0.02646 -1.84375,-0.03125 -0.38995,-0.0018 -2.169899,0.0023 -2.71875,0 -0.0091,-2.081661 -0.02382,-4.442424 -0.03125,-5.6875 z m -11.40625,6.28125 c 6.024308,0.02402 8.469308,0.02136 10.8125,0.03125 0.0093,2.178721 0.02007,2.439593 0.03125,5.6875 -2.234276,-0.0095 -4.976061,-0.03926 -10.8125,-0.0625 -0.01113,-3.230214 -0.02198,-3.48689 -0.03125,-5.65625 z"
                     id="path6796"
                     inkscape:connector-curvature="0" />
                </g>
              </g>
            </g>
          </g>
          <g
             id="text6006"
             style="font-style:normal;font-variant:normal;font-weight:bold;font-stretch:normal;font-size:32.522px;line-height:125%;font-family:'Courier New';-inkscape-font-specification:'Courier New Bold';letter-spacing:0px;word-spacing:0px;opacity:0.89;fill:#000000;fill-opacity:0.118367;stroke:#f7f9fc;stroke-width:1.07044;stroke-miterlimit:4;stroke-opacity:1"
             transform="matrix(1.0480102,0,0,0.80967603,0.08584599,0.2057019)">
            <rect
               ry="0"
               y="20.168045"
               x="30.981564"
               height="6.166369"
               width="9.4061422"
               id="rect6805"
               style="fill:#dee736;fill-opacity:0.579592;stroke:#22303c;stroke-width:0.343158;stroke-linecap:round;stroke-linejoin:round;stroke-miterlimit:4;stroke-dasharray:none;stroke-dashoffset:0;stroke-opacity:1" />
            <rect
               style="fill:#dee736;fill-opacity:0.579592;stroke:#22303c;stroke-width:0.343158;stroke-linecap:round;stroke-linejoin:round;stroke-miterlimit:4;stroke-dasharray:none;stroke-dashoffset:0;stroke-opacity:1"
               id="rect6807"
               width="9.4061422"
               height="6.166369"
               x="40.574917"
               y="20.168045"
               ry="0" />
            <rect
               style="fill:#dee736;fill-opacity:0.579592;stroke:#22303c;stroke-width:0.343158;stroke-linecap:round;stroke-linejoin:round;stroke-miterlimit:4;stroke-dasharray:none;stroke-dashoffset:0;stroke-opacity:1"
               id="rect6809"
               width="9.4061422"
               height="6.166369"
               x="50.258324"
               y="20.168045"
               ry="0" />
            <rect
               ry="0"
               y="20.168045"
               x="59.851677"
               height="6.166369"
               width="9.4061422"
               id="rect6811"
               style="fill:#dee736;fill-opacity:0.579592;stroke:#22303c;stroke-width:0.343158;stroke-linecap:round;stroke-linejoin:round;stroke-miterlimit:4;stroke-dasharray:none;stroke-dashoffset:0;stroke-opacity:1" />
            <rect
               style="fill:#dee736;fill-opacity:0.579592;stroke:#22303c;stroke-width:0.312377;stroke-linecap:round;stroke-linejoin:round;stroke-miterlimit:4;stroke-dasharray:none;stroke-dashoffset:0;stroke-opacity:1"
               id="rect6813"
               width="7.7943735"
               height="6.166369"
               x="69.534645"
               y="20.168045"
               ry="0" />
            <g
               id="text6815"
               style="font-size:4px;line-height:125%;font-family:Impact;-inkscape-font-specification:'Impact Bold';opacity:0.789091;fill:#000000;fill-opacity:1;stroke:none"
               transform="matrix(0.90499154,0,0,1.1049827,0.09082691,0.66274052)">
              <path
                 inkscape:connector-curvature="0"
                 id="path6855"
                 d="m 36.872959,19.548569 v 1.054687 c -2e-6,0.239584 -0.01302,0.414063 -0.03906,0.523438 -0.02604,0.109375 -0.08008,0.211589 -0.16211,0.30664 -0.08203,0.09505 -0.180991,0.163412 -0.296875,0.205078 -0.115887,0.04167 -0.245444,0.0625 -0.388672,0.0625 -0.188803,0 -0.345704,-0.02148 -0.470703,-0.06445 -0.125,-0.04427 -0.22461,-0.11263 -0.298828,-0.205078 -0.07422,-0.09245 -0.126953,-0.189453 -0.158203,-0.291015 -0.03125,-0.102864 -0.04687,-0.265625 -0.04687,-0.488282 v -1.103515 c 0,-0.290362 0.02474,-0.50781 0.07422,-0.652344 0.05078,-0.144528 0.15039,-0.260414 0.298828,-0.347656 0.149739,-0.08724 0.330728,-0.130856 0.542969,-0.13086 0.173175,4e-6 0.328123,0.0306 0.464843,0.0918 0.136717,0.0599 0.238931,0.133467 0.306641,0.220703 0.06771,0.08724 0.113279,0.18555 0.136719,0.294922 0.02474,0.109378 0.03711,0.283857 0.03711,0.523438 M 36.083906,19.28295 c -2e-6,-0.167966 -0.0085,-0.272784 -0.02539,-0.314453 -0.01563,-0.04297 -0.05339,-0.06445 -0.113281,-0.06445 -0.0586,3e-6 -0.09766,0.02279 -0.117188,0.06836 -0.01823,0.04427 -0.02734,0.147789 -0.02734,0.310547 v 1.542968 c -1e-6,0.183595 0.0085,0.294272 0.02539,0.332032 0.01823,0.03776 0.05664,0.05664 0.115235,0.05664 0.05859,10e-7 0.097,-0.02213 0.115234,-0.06641 0.01823,-0.04427 0.02734,-0.143879 0.02734,-0.298828 V 19.28295" />
              <path
                 inkscape:connector-curvature="0"
                 id="path6857"
                 d="m 39.021397,19.548569 v 1.054687 c -2e-6,0.239584 -0.01302,0.414063 -0.03906,0.523438 -0.02604,0.109375 -0.08008,0.211589 -0.162109,0.30664 -0.08203,0.09505 -0.180991,0.163412 -0.296875,0.205078 -0.115887,0.04167 -0.245444,0.0625 -0.388672,0.0625 -0.188803,0 -0.345704,-0.02148 -0.470703,-0.06445 -0.125001,-0.04427 -0.22461,-0.11263 -0.298828,-0.205078 -0.07422,-0.09245 -0.126954,-0.189453 -0.158203,-0.291015 -0.03125,-0.102864 -0.04688,-0.265625 -0.04687,-0.488282 v -1.103515 c -1e-6,-0.290362 0.02474,-0.50781 0.07422,-0.652344 0.05078,-0.144528 0.150391,-0.260414 0.298828,-0.347656 0.149739,-0.08724 0.330729,-0.130856 0.542969,-0.13086 0.173176,4e-6 0.328124,0.0306 0.464844,0.0918 0.136717,0.0599 0.23893,0.133467 0.306641,0.220703 0.06771,0.08724 0.113279,0.18555 0.136718,0.294922 0.02474,0.109378 0.03711,0.283857 0.03711,0.523438 M 38.232344,19.28295 c -10e-7,-0.167966 -0.0085,-0.272784 -0.02539,-0.314453 -0.01563,-0.04297 -0.05339,-0.06445 -0.113282,-0.06445 -0.0586,3e-6 -0.09766,0.02279 -0.117187,0.06836 -0.01823,0.04427 -0.02735,0.147789 -0.02734,0.310547 v 1.542968 c -1e-6,0.183595 0.0085,0.294272 0.02539,0.332032 0.01823,0.03776 0.05664,0.05664 0.115234,0.05664 0.05859,10e-7 0.097,-0.02213 0.115234,-0.06641 0.01823,-0.04427 0.02734,-0.143879 0.02734,-0.298828 V 19.28295" />
              <path
                 inkscape:connector-curvature="0"
                 id="path6859"
                 d="m 40.525303,18.478256 v 3.16211 H 39.73624 v -1.695313 c 0,-0.24479 -0.0059,-0.391925 -0.01758,-0.441406 -0.01172,-0.04948 -0.04427,-0.08659 -0.09766,-0.111328 -0.05208,-0.02604 -0.169271,-0.03906 -0.351562,-0.03906 h -0.07813 v -0.36914 c 0.38151,-0.08203 0.671223,-0.250649 0.86914,-0.50586 h 0.464844" />
            </g>
            <g
               id="text6819"
               style="font-size:4px;line-height:125%;font-family:Impact;-inkscape-font-specification:'Impact Bold';opacity:0.789091;fill:#000000;fill-opacity:1;stroke:none"
               transform="matrix(0.90499154,0,0,1.1049827,-1.3571596,0.66274052)">
              <path
                 inkscape:connector-curvature="0"
                 id="path6862"
                 d="m 48.872959,19.548569 v 1.054687 c -2e-6,0.239584 -0.01302,0.414063 -0.03906,0.523438 -0.02604,0.109375 -0.08008,0.211589 -0.16211,0.30664 -0.08203,0.09505 -0.180991,0.163412 -0.296875,0.205078 -0.115887,0.04167 -0.245444,0.0625 -0.388672,0.0625 -0.188803,0 -0.345704,-0.02148 -0.470703,-0.06445 -0.125,-0.04427 -0.22461,-0.11263 -0.298828,-0.205078 -0.07422,-0.09245 -0.126953,-0.189453 -0.158203,-0.291015 -0.03125,-0.102864 -0.04687,-0.265625 -0.04687,-0.488282 v -1.103515 c 0,-0.290362 0.02474,-0.50781 0.07422,-0.652344 0.05078,-0.144528 0.15039,-0.260414 0.298828,-0.347656 0.149739,-0.08724 0.330728,-0.130856 0.542969,-0.13086 0.173175,4e-6 0.328123,0.0306 0.464843,0.0918 0.136717,0.0599 0.238931,0.133467 0.306641,0.220703 0.06771,0.08724 0.113279,0.18555 0.136719,0.294922 0.02474,0.109378 0.03711,0.283857 0.03711,0.523438 M 48.083906,19.28295 c -2e-6,-0.167966 -0.0085,-0.272784 -0.02539,-0.314453 -0.01563,-0.04297 -0.05339,-0.06445 -0.113281,-0.06445 -0.0586,3e-6 -0.09766,0.02279 -0.117188,0.06836 -0.01823,0.04427 -0.02734,0.147789 -0.02734,0.310547 v 1.542968 c -1e-6,0.183595 0.0085,0.294272 0.02539,0.332032 0.01823,0.03776 0.05664,0.05664 0.115235,0.05664 0.05859,10e-7 0.097,-0.02213 0.115234,-0.06641 0.01823,-0.04427 0.02734,-0.143879 0.02734,-0.298828 V 19.28295" />
              <path
                 inkscape:connector-curvature="0"
                 id="path6864"
                 d="m 51.021397,19.548569 v 1.054687 c -2e-6,0.239584 -0.01302,0.414063 -0.03906,0.523438 -0.02604,0.109375 -0.08008,0.211589 -0.162109,0.30664 -0.08203,0.09505 -0.180991,0.163412 -0.296875,0.205078 -0.115887,0.04167 -0.245444,0.0625 -0.388672,0.0625 -0.188803,0 -0.345704,-0.02148 -0.470703,-0.06445 -0.125001,-0.04427 -0.22461,-0.11263 -0.298828,-0.205078 -0.07422,-0.09245 -0.126954,-0.189453 -0.158203,-0.291015 -0.03125,-0.102864 -0.04688,-0.265625 -0.04687,-0.488282 v -1.103515 c -1e-6,-0.290362 0.02474,-0.50781 0.07422,-0.652344 0.05078,-0.144528 0.150391,-0.260414 0.298828,-0.347656 0.149739,-0.08724 0.330729,-0.130856 0.542969,-0.13086 0.173176,4e-6 0.328124,0.0306 0.464844,0.0918 0.136717,0.0599 0.23893,0.133467 0.306641,0.220703 0.06771,0.08724 0.113279,0.18555 0.136718,0.294922 0.02474,0.109378 0.03711,0.283857 0.03711,0.523438 M 50.232344,19.28295 c -10e-7,-0.167966 -0.0085,-0.272784 -0.02539,-0.314453 -0.01563,-0.04297 -0.05339,-0.06445 -0.113282,-0.06445 -0.0586,3e-6 -0.09766,0.02279 -0.117187,0.06836 -0.01823,0.04427 -0.02735,0.147789 -0.02734,0.310547 v 1.542968 c -1e-6,0.183595 0.0085,0.294272 0.02539,0.332032 0.01823,0.03776 0.05664,0.05664 0.115234,0.05664 0.05859,10e-7 0.097,-0.02213 0.115234,-0.06641 0.01823,-0.04427 0.02734,-0.143879 0.02734,-0.298828 V 19.28295" />
              <path
                 inkscape:connector-curvature="0"
                 id="path6866"
                 d="m 53.009678,21.101303 v 0.539063 H 51.27335 v -0.451172 c 0.514322,-0.841145 0.81966,-1.361327 0.916015,-1.560547 0.09766,-0.200519 0.146484,-0.356769 0.146485,-0.46875 -10e-7,-0.08593 -0.01497,-0.149737 -0.04492,-0.191406 -0.02865,-0.04297 -0.07292,-0.06445 -0.132813,-0.06445 -0.0599,3e-6 -0.104818,0.02344 -0.134765,0.07031 -0.02865,0.04688 -0.04297,0.139976 -0.04297,0.279297 v 0.300781 h -0.707031 v -0.115234 c 0,-0.177081 0.0091,-0.316404 0.02734,-0.417969 0.01823,-0.102862 0.06315,-0.203773 0.134765,-0.302734 0.07161,-0.09896 0.164713,-0.173825 0.279297,-0.22461 0.114583,-0.05078 0.251952,-0.07617 0.412109,-0.07617 0.313801,4e-6 0.55078,0.07813 0.710938,0.234375 0.161456,0.154951 0.242185,0.351565 0.242187,0.589844 -2e-6,0.180992 -0.04557,0.372398 -0.136718,0.574219 -0.08985,0.201824 -0.356122,0.630209 -0.798828,1.285156 h 0.865234" />
            </g>
            <g
               id="text6823"
               style="font-size:4px;line-height:125%;font-family:Impact;-inkscape-font-specification:'Impact Bold';opacity:0.789091;fill:#000000;fill-opacity:1;stroke:none"
               transform="matrix(0.90499154,0,0,1.1049827,-0.63316623,0.66274052)">
              <path
                 inkscape:connector-curvature="0"
                 id="path6848"
                 d="m 58.872959,19.548569 v 1.054687 c -2e-6,0.239584 -0.01302,0.414063 -0.03906,0.523438 -0.02604,0.109375 -0.08008,0.211589 -0.16211,0.30664 -0.08203,0.09505 -0.180991,0.163412 -0.296875,0.205078 -0.115887,0.04167 -0.245444,0.0625 -0.388672,0.0625 -0.188803,0 -0.345704,-0.02148 -0.470703,-0.06445 -0.125,-0.04427 -0.22461,-0.11263 -0.298828,-0.205078 -0.07422,-0.09245 -0.126953,-0.189453 -0.158203,-0.291015 -0.03125,-0.102864 -0.04687,-0.265625 -0.04687,-0.488282 v -1.103515 c 0,-0.290362 0.02474,-0.50781 0.07422,-0.652344 0.05078,-0.144528 0.15039,-0.260414 0.298828,-0.347656 0.149739,-0.08724 0.330728,-0.130856 0.542969,-0.13086 0.173175,4e-6 0.328123,0.0306 0.464843,0.0918 0.136717,0.0599 0.238931,0.133467 0.306641,0.220703 0.06771,0.08724 0.113279,0.18555 0.136719,0.294922 0.02474,0.109378 0.03711,0.283857 0.03711,0.523438 M 58.083906,19.28295 c -2e-6,-0.167966 -0.0085,-0.272784 -0.02539,-0.314453 -0.01563,-0.04297 -0.05339,-0.06445 -0.113281,-0.06445 -0.0586,3e-6 -0.09766,0.02279 -0.117188,0.06836 -0.01823,0.04427 -0.02734,0.147789 -0.02734,0.310547 v 1.542968 c -1e-6,0.183595 0.0085,0.294272 0.02539,0.332032 0.01823,0.03776 0.05664,0.05664 0.115235,0.05664 0.05859,10e-7 0.097,-0.02213 0.115234,-0.06641 0.01823,-0.04427 0.02734,-0.143879 0.02734,-0.298828 V 19.28295" />
              <path
                 inkscape:connector-curvature="0"
                 id="path6850"
                 d="m 61.021397,19.548569 v 1.054687 c -2e-6,0.239584 -0.01302,0.414063 -0.03906,0.523438 -0.02604,0.109375 -0.08008,0.211589 -0.162109,0.30664 -0.08203,0.09505 -0.180991,0.163412 -0.296875,0.205078 -0.115887,0.04167 -0.245444,0.0625 -0.388672,0.0625 -0.188803,0 -0.345704,-0.02148 -0.470703,-0.06445 -0.125001,-0.04427 -0.22461,-0.11263 -0.298828,-0.205078 -0.07422,-0.09245 -0.126954,-0.189453 -0.158203,-0.291015 -0.03125,-0.102864 -0.04688,-0.265625 -0.04687,-0.488282 v -1.103515 c -1e-6,-0.290362 0.02474,-0.50781 0.07422,-0.652344 0.05078,-0.144528 0.150391,-0.260414 0.298828,-0.347656 0.149739,-0.08724 0.330729,-0.130856 0.542969,-0.13086 0.173176,4e-6 0.328124,0.0306 0.464844,0.0918 0.136717,0.0599 0.23893,0.133467 0.306641,0.220703 0.06771,0.08724 0.113279,0.18555 0.136718,0.294922 0.02474,0.109378 0.03711,0.283857 0.03711,0.523438 M 60.232344,19.28295 c -10e-7,-0.167966 -0.0085,-0.272784 -0.02539,-0.314453 -0.01563,-0.04297 -0.05339,-0.06445 -0.113282,-0.06445 -0.0586,3e-6 -0.09766,0.02279 -0.117187,0.06836 -0.01823,0.04427 -0.02735,0.147789 -0.02734,0.310547 v 1.542968 c -1e-6,0.183595 0.0085,0.294272 0.02539,0.332032 0.01823,0.03776 0.05664,0.05664 0.115234,0.05664 0.05859,10e-7 0.097,-0.02213 0.115234,-0.06641 0.01823,-0.04427 0.02734,-0.143879 0.02734,-0.298828 V 19.28295" />
              <path
                 inkscape:connector-curvature="0"
                 id="path6852"
                 d="m 62.790928,19.84935 c 0.11979,0.04037 0.208982,0.106772 0.267578,0.199219 0.05859,0.09115 0.08789,0.305991 0.08789,0.644531 -2e-6,0.251303 -0.02865,0.446615 -0.08594,0.585937 -0.05729,0.138022 -0.156252,0.24349 -0.296875,0.316407 -0.140626,0.07161 -0.320965,0.107422 -0.541015,0.107422 -0.250001,0 -0.446616,-0.04167 -0.589844,-0.125 -0.141928,-0.08464 -0.235678,-0.1875 -0.28125,-0.308594 -0.04427,-0.122395 -0.06641,-0.333984 -0.06641,-0.634766 v -0.25 h 0.789062 v 0.513672 c -10e-7,0.136719 0.0078,0.223959 0.02344,0.261719 0.01693,0.03646 0.05338,0.05469 0.109375,0.05469 0.0612,10e-7 0.101561,-0.02344 0.121093,-0.07031 0.01953,-0.04687 0.0293,-0.16927 0.0293,-0.367188 v -0.21875 c -10e-7,-0.121092 -0.01367,-0.209634 -0.04102,-0.265625 -0.02734,-0.05599 -0.06771,-0.09245 -0.121094,-0.109375 -0.05339,-0.01823 -0.156902,-0.02864 -0.310547,-0.03125 v -0.458984 c 0.187499,2e-6 0.303384,-0.0072 0.347656,-0.02148 0.04427,-0.01432 0.07617,-0.04557 0.0957,-0.09375 0.01953,-0.04818 0.0293,-0.123696 0.0293,-0.226563 v -0.175781 c -10e-7,-0.110675 -0.01172,-0.183591 -0.03516,-0.21875 -0.02214,-0.03515 -0.05729,-0.05273 -0.105469,-0.05274 -0.05469,3e-6 -0.09245,0.01888 -0.113281,0.05664 -0.01953,0.03646 -0.0293,0.115237 -0.0293,0.236328 v 0.259766 h -0.789062 v -0.269531 c -10e-7,-0.302081 0.06901,-0.505857 0.207031,-0.611329 0.13802,-0.106767 0.357421,-0.160153 0.658203,-0.160156 0.376301,3e-6 0.631509,0.07357 0.765625,0.220703 0.134113,0.147139 0.20117,0.351566 0.201172,0.613282 -2e-6,0.177085 -0.02409,0.30534 -0.07227,0.384765 -0.04818,0.07813 -0.132814,0.149742 -0.253906,0.214844" />
            </g>
            <g
               id="text6827"
               style="font-size:4px;line-height:125%;font-family:Impact;-inkscape-font-specification:'Impact Bold';opacity:0.789091;fill:#000000;fill-opacity:1;stroke:none"
               transform="matrix(0.90499154,0,0,1.1049827,3.3150913e-4,0.66274052)">
              <path
                 inkscape:connector-curvature="0"
                 id="path6841"
                 d="m 68.872955,19.548569 v 1.054687 c -2e-6,0.239584 -0.01302,0.414063 -0.03906,0.523438 -0.02604,0.109375 -0.08008,0.211589 -0.16211,0.30664 -0.08203,0.09505 -0.180991,0.163412 -0.296875,0.205078 -0.115886,0.04167 -0.245444,0.0625 -0.388671,0.0625 -0.188803,0 -0.345704,-0.02148 -0.470704,-0.06445 -0.125,-0.04427 -0.224609,-0.11263 -0.298828,-0.205078 -0.07422,-0.09245 -0.126953,-0.189453 -0.158203,-0.291015 -0.03125,-0.102864 -0.04687,-0.265625 -0.04687,-0.488282 v -1.103515 c 0,-0.290362 0.02474,-0.50781 0.07422,-0.652344 0.05078,-0.144528 0.15039,-0.260414 0.298828,-0.347656 0.149739,-0.08724 0.330728,-0.130856 0.542969,-0.13086 0.173176,4e-6 0.328123,0.0306 0.464844,0.0918 0.136717,0.0599 0.23893,0.133467 0.30664,0.220703 0.06771,0.08724 0.11328,0.18555 0.136719,0.294922 0.02474,0.109378 0.03711,0.283857 0.03711,0.523438 M 68.083902,19.28295 c -10e-7,-0.167966 -0.0085,-0.272784 -0.02539,-0.314453 -0.01563,-0.04297 -0.05339,-0.06445 -0.113281,-0.06445 -0.05859,3e-6 -0.09766,0.02279 -0.117188,0.06836 -0.01823,0.04427 -0.02734,0.147789 -0.02734,0.310547 v 1.542968 c -10e-7,0.183595 0.0085,0.294272 0.02539,0.332032 0.01823,0.03776 0.05664,0.05664 0.115235,0.05664 0.05859,10e-7 0.097,-0.02213 0.115234,-0.06641 0.01823,-0.04427 0.02734,-0.143879 0.02734,-0.298828 V 19.28295" />
              <path
                 inkscape:connector-curvature="0"
                 id="path6843"
                 d="m 71.021393,19.548569 v 1.054687 c -2e-6,0.239584 -0.01302,0.414063 -0.03906,0.523438 -0.02604,0.109375 -0.08008,0.211589 -0.162109,0.30664 -0.08203,0.09505 -0.180991,0.163412 -0.296875,0.205078 -0.115887,0.04167 -0.245444,0.0625 -0.388672,0.0625 -0.188803,0 -0.345704,-0.02148 -0.470703,-0.06445 -0.125001,-0.04427 -0.22461,-0.11263 -0.298828,-0.205078 -0.07422,-0.09245 -0.126954,-0.189453 -0.158203,-0.291015 -0.03125,-0.102864 -0.04687,-0.265625 -0.04687,-0.488282 v -1.103515 c 0,-0.290362 0.02474,-0.50781 0.07422,-0.652344 0.05078,-0.144528 0.150391,-0.260414 0.298829,-0.347656 0.149738,-0.08724 0.330728,-0.130856 0.542968,-0.13086 0.173176,4e-6 0.328124,0.0306 0.464844,0.0918 0.136717,0.0599 0.238931,0.133467 0.306641,0.220703 0.06771,0.08724 0.113279,0.18555 0.136718,0.294922 0.02474,0.109378 0.03711,0.283857 0.03711,0.523438 M 70.23233,19.282944 c -1e-6,-0.167966 -0.0085,-0.272784 -0.02539,-0.314453 -0.01563,-0.04297 -0.05339,-0.06445 -0.113282,-0.06445 -0.05859,3e-6 -0.09766,0.02279 -0.117187,0.06836 -0.01823,0.04427 -0.02734,0.147789 -0.02734,0.310547 v 1.542968 c -10e-7,0.183595 0.0085,0.294272 0.02539,0.332032 0.01823,0.03776 0.05664,0.05664 0.115234,0.05664 0.05859,1e-6 0.097,-0.02213 0.115235,-0.06641 0.01823,-0.04427 0.02734,-0.143879 0.02734,-0.298828 v -1.566406" />
              <path
                 inkscape:connector-curvature="0"
                 id="path6845"
                 d="m 72.917877,18.478256 v 2.066406 h 0.22461 v 0.539063 h -0.22461 v 0.556641 h -0.789062 v -0.556641 h -0.9375 v -0.539063 l 0.68164,-2.066406 h 1.044922 m -0.789062,2.066406 v -1.345703 l -0.347657,1.345703 h 0.347657" />
            </g>
            <g
               id="text6831"
               style="font-size:4px;line-height:125%;font-family:Impact;-inkscape-font-specification:'Impact Bold';opacity:0.789091;fill:#000000;fill-opacity:1;stroke:none"
               transform="matrix(0.90499154,0,0,1.1049827,0.45282353,0.66274052)">
              <path
                 inkscape:connector-curvature="0"
                 id="path6836"
                 d="m 80.872955,19.548569 v 1.054687 c -2e-6,0.239584 -0.01302,0.414063 -0.03906,0.523438 -0.02604,0.109375 -0.08008,0.211589 -0.16211,0.30664 -0.08203,0.09505 -0.180991,0.163412 -0.296875,0.205078 -0.115886,0.04167 -0.245444,0.0625 -0.388671,0.0625 -0.188803,0 -0.345704,-0.02148 -0.470704,-0.06445 -0.125,-0.04427 -0.224609,-0.11263 -0.298828,-0.205078 -0.07422,-0.09245 -0.126953,-0.189453 -0.158203,-0.291015 -0.03125,-0.102864 -0.04687,-0.265625 -0.04687,-0.488282 v -1.103515 c 0,-0.290362 0.02474,-0.50781 0.07422,-0.652344 0.05078,-0.144528 0.15039,-0.260414 0.298828,-0.347656 0.149739,-0.08724 0.330728,-0.130856 0.542969,-0.13086 0.173176,4e-6 0.328123,0.0306 0.464844,0.0918 0.136717,0.0599 0.23893,0.133467 0.30664,0.220703 0.06771,0.08724 0.11328,0.18555 0.136719,0.294922 0.02474,0.109378 0.03711,0.283857 0.03711,0.523438 M 80.083902,19.28295 c -10e-7,-0.167966 -0.0085,-0.272784 -0.02539,-0.314453 -0.01563,-0.04297 -0.05339,-0.06445 -0.113281,-0.06445 -0.05859,3e-6 -0.09766,0.02279 -0.117188,0.06836 -0.01823,0.04427 -0.02734,0.147789 -0.02734,0.310547 v 1.542968 c -10e-7,0.183595 0.0085,0.294272 0.02539,0.332032 0.01823,0.03776 0.05664,0.05664 0.115235,0.05664 0.05859,10e-7 0.097,-0.02213 0.115234,-0.06641 0.01823,-0.04427 0.02734,-0.143879 0.02734,-0.298828 V 19.28295" />
              <path
                 inkscape:connector-curvature="0"
                 id="path6838"
                 d="m 82.882721,18.478256 v 0.50586 h -0.978516 v 0.537109 c 0.122395,-0.144529 0.279947,-0.216795 0.472657,-0.216797 0.217446,2e-6 0.381508,0.0612 0.492187,0.183594 0.111977,0.121096 0.167967,0.354819 0.167969,0.701172 v 0.451172 c -2e-6,0.223959 -0.01107,0.388672 -0.0332,0.49414 -0.02084,0.104167 -0.06641,0.201172 -0.136719,0.291016 -0.07031,0.08854 -0.168622,0.156901 -0.294922,0.205078 -0.125001,0.04687 -0.277996,0.07031 -0.458984,0.07031 -0.203126,0 -0.382162,-0.03516 -0.53711,-0.105468 -0.154948,-0.07162 -0.264974,-0.177734 -0.330078,-0.31836 -0.0651,-0.140624 -0.09766,-0.358072 -0.09766,-0.652343 v -0.171875 h 0.789062 v 0.197265 c 0,0.204428 0.0072,0.34961 0.02148,0.435547 0.01432,0.08594 0.0638,0.128907 0.148437,0.128906 0.03906,1e-6 0.07031,-0.01237 0.09375,-0.03711 0.02474,-0.02474 0.03776,-0.05143 0.03906,-0.08008 0.0026,-0.02865 0.0052,-0.152994 0.0078,-0.373047 v -0.626953 c -10e-7,-0.118488 -0.01237,-0.199217 -0.03711,-0.242188 -0.02474,-0.04297 -0.06576,-0.06445 -0.123047,-0.06445 -0.03646,2e-6 -0.06706,0.01107 -0.0918,0.0332 -0.02474,0.02214 -0.04102,0.04623 -0.04883,0.07227 -0.0065,0.02474 -0.0098,0.08333 -0.0098,0.175781 h -0.78125 l 0.0332,-1.59375 h 1.693359" />
            </g>
            <path
               inkscape:transform-center-y="0.38253356"
               transform="matrix(0.674477,0,0,0.82352749,10.176829,6.4963152)"
               d="m 42.195511,22.60185 -0.908928,-1.551314 -0.889013,-1.562811 1.797941,-0.0115 1.797941,0.0115 -0.889013,1.562811 z"
               inkscape:randomized="0"
               inkscape:rounded="0"
               inkscape:flatsided="false"
               sodipodi:arg2="2.6179939"
               sodipodi:arg1="1.5707963"
               sodipodi:r2="1.0495394"
               sodipodi:r1="2.0760834"
               sodipodi:cy="20.525766"
               sodipodi:cx="42.195511"
               sodipodi:sides="3"
               id="path6868"
               style="fill:#000000;fill-opacity:0.579592;stroke:none"
               sodipodi:type="star" />
            <path
               sodipodi:type="star"
               style="fill:#000000;fill-opacity:0.579592;stroke:none"
               id="path6870"
               sodipodi:sides="3"
               sodipodi:cx="42.195511"
               sodipodi:cy="20.525766"
               sodipodi:r1="2.0760834"
               sodipodi:r2="1.0495394"
               sodipodi:arg1="1.5707963"
               sodipodi:arg2="2.6179939"
               inkscape:flatsided="false"
               inkscape:rounded="0"
               inkscape:randomized="0"
               d="m 42.195511,22.60185 -0.908928,-1.551314 -0.889013,-1.562811 1.797941,-0.0115 1.797941,0.0115 -0.889013,1.562811 z"
               transform="matrix(0.674477,0,0,0.82352749,19.588796,6.4963152)"
               inkscape:transform-center-y="0.38253356" />
            <path
               inkscape:transform-center-y="0.38253356"
               transform="matrix(0.674477,0,0,0.82352749,29.362704,6.4963152)"
               d="m 42.195511,22.60185 -0.908928,-1.551314 -0.889013,-1.562811 1.797941,-0.0115 1.797941,0.0115 -0.889013,1.562811 z"
               inkscape:randomized="0"
               inkscape:rounded="0"
               inkscape:flatsided="false"
               sodipodi:arg2="2.6179939"
               sodipodi:arg1="1.5707963"
               sodipodi:r2="1.0495394"
               sodipodi:r1="2.0760834"
               sodipodi:cy="20.525766"
               sodipodi:cx="42.195511"
               sodipodi:sides="3"
               id="path6872"
               style="fill:#000000;fill-opacity:0.579592;stroke:none"
               sodipodi:type="star" />
            <path
               sodipodi:type="star"
               style="fill:#000000;fill-opacity:0.579592;stroke:none"
               id="path6874"
               sodipodi:sides="3"
               sodipodi:cx="42.195511"
               sodipodi:cy="20.525766"
               sodipodi:r1="2.0760834"
               sodipodi:r2="1.0495394"
               sodipodi:arg1="1.5707963"
               sodipodi:arg2="2.6179939"
               inkscape:flatsided="false"
               inkscape:rounded="0"
               inkscape:randomized="0"
               d="m 42.195511,22.60185 -0.908928,-1.551314 -0.889013,-1.562811 1.797941,-0.0115 1.797941,0.0115 -0.889013,1.562811 z"
               transform="matrix(0.674477,0,0,0.82352749,38.955615,6.4963152)"
               inkscape:transform-center-y="0.38253356" />
          </g>
          <path
             inkscape:connector-curvature="0"
             style="opacity:0.28;fill:url(#linearGradient4136);fill-opacity:1;stroke:none;stroke-width:0.921167"
             d="m 6.1617915,13.444139 c -2.0567138,0 -3.7048451,1.558923 -3.7048451,3.494836 v 63.158682 c 0,1.935913 1.6481313,3.494836 3.7048451,3.494836 H 85.060174 c 2.056712,0 3.704845,-1.558923 3.704845,-3.494836 V 16.938975 c 0,-1.935913 -1.648133,-3.494836 -3.704845,-3.494836 z"
             id="rect4371"
             inkscape:transform-center-x="-33.838841"
             inkscape:transform-center-y="-91.715781" />
        </g>
        <path
           style="color:#000000;font-style:normal;font-variant:normal;font-weight:normal;font-stretch:normal;font-size:medium;line-height:normal;font-family:Sans;-inkscape-font-specification:Sans;text-indent:0;text-align:start;text-decoration:none;text-decoration-line:none;letter-spacing:normal;word-spacing:normal;text-transform:none;writing-mode:lr-tb;direction:ltr;baseline-shift:baseline;text-anchor:start;display:inline;overflow:visible;visibility:visible;fill:#241f1f;fill-opacity:0.632653;stroke:none;stroke-width:2.3755;marker:none;enable-background:accumulate"
           d="m 9.9740341,5.1444869 c -3.116621,0 -5.667965,2.53951 -5.667965,5.6460041 v 69.277996 c 0,3.106495 2.551344,5.646004 5.667965,5.646004 H 86.765819 c 3.116621,0 5.667968,-2.539509 5.667968,-5.646004 V 10.790491 c 0,-3.1064931 -2.551347,-5.6460041 -5.667968,-5.6460041 z m 0,2.319439 H 86.765819 c 1.888099,0 3.352022,1.480095 3.352022,3.3265651 v 69.277996 c 0,1.846474 -1.463923,3.326564 -3.352022,3.326564 H 9.9740341 c -1.888099,0 -3.352022,-1.48009 -3.352022,-3.326564 V 10.790491 c 0,-1.8464701 1.463923,-3.3265651 3.352022,-3.3265651 z"
           id="path4989"
           inkscape:connector-curvature="0" />
        <path
           id="path4118"
           d="m 1.6489535,82.258776 v 6 c 0,3.680142 2.9761066,6.65625 6.6562496,6.65625 H 87.992703 c 3.680143,0 6.656254,-2.976108 6.656254,-6.65625 v -6 c 0,3.680142 -2.976111,6.65625 -6.656254,6.65625 H 8.3052031 c -3.680143,0 -6.6562496,-2.976108 -6.6562496,-6.65625 z"
           style="display:inline;opacity:0.658182;fill:url(#linearGradient4129);fill-opacity:1;fill-rule:nonzero;stroke:none"
           inkscape:connector-curvature="0" />
        <rect
           ry="4.25"
           rx="0"
           y="80.665031"
           x="5.5239539"
           height="4.25"
           width="84.250008"
           id="rect4131"
           style="opacity:0.55;fill:url(#radialGradient7462);fill-opacity:1;stroke:none" />
        <rect
           transform="rotate(90)"
           style="opacity:0.669;fill:url(#radialGradient7464);fill-opacity:1;stroke:none"
           id="rect4141"
           width="76.75"
           height="4.25"
           x="5.9750223"
           y="-90.233963"
           rx="0"
           ry="4.25" />
        <rect
           clip-path="url(#clipPath4156-4-1)"
           ry="3.9569881"
           rx="3.9569874"
           y="-30"
           x="2"
           height="69.024437"
           width="75.965775"
           id="rect4146"
           style="opacity:0.507812;fill:url(#linearGradient4767);fill-opacity:1;stroke:none"
           transform="matrix(1.0692451,0,0,1.0476829,4.4441802,38.894013)" />
      </g>
    </g>
  </g>
</svg>
