<?xml version="1.0" encoding="UTF-8" standalone="no"?>
<svg
   xmlns:dc="http://purl.org/dc/elements/1.1/"
   xmlns:cc="http://creativecommons.org/ns#"
   xmlns:rdf="http://www.w3.org/1999/02/22-rdf-syntax-ns#"
   xmlns:svg="http://www.w3.org/2000/svg"
   xmlns="http://www.w3.org/2000/svg"
   xmlns:xlink="http://www.w3.org/1999/xlink"
   xmlns:sodipodi="http://sodipodi.sourceforge.net/DTD/sodipodi-0.dtd"
   xmlns:inkscape="http://www.inkscape.org/namespaces/inkscape"
   height="32"
   width="32"
   inkscape:version="1.0beta2 (2b71d25d45, 2019-12-03)"
   sodipodi:docname="emblem-user.svg"
   id="svg6"
   version="1.1"
   viewBox="0 0 32 32">
  <metadata
     id="metadata10">
    <rdf:RDF>
      <cc:Work
         rdf:about="">
        <dc:format>image/svg+xml</dc:format>
        <dc:type
           rdf:resource="http://purl.org/dc/dcmitype/StillImage" />
        <dc:title></dc:title>
        <dc:creator>
          <cc:Agent>
            <dc:title>Cristian Pozzessere &quot;ilnanny&quot;</dc:title>
          </cc:Agent>
        </dc:creator>
        <dc:subject>
          <rdf:Bag>
            <rdf:li>Global language</rdf:li>
          </rdf:Bag>
        </dc:subject>
        <dc:description>Playing with Inkscape on Gnu/Linux O. S.</dc:description>
        <dc:contributor>
          <cc:Agent>
            <dc:title>In the night, alone like a dog.</dc:title>
          </cc:Agent>
        </dc:contributor>
        <cc:license
           rdf:resource="http://creativecommons.org/licenses/by-sa/4.0/" />
      </cc:Work>
      <cc:License
         rdf:about="http://creativecommons.org/licenses/by-sa/4.0/">
        <cc:permits
           rdf:resource="http://creativecommons.org/ns#Reproduction" />
        <cc:permits
           rdf:resource="http://creativecommons.org/ns#Distribution" />
        <cc:requires
           rdf:resource="http://creativecommons.org/ns#Notice" />
        <cc:requires
           rdf:resource="http://creativecommons.org/ns#Attribution" />
        <cc:permits
           rdf:resource="http://creativecommons.org/ns#DerivativeWorks" />
        <cc:requires
           rdf:resource="http://creativecommons.org/ns#ShareAlike" />
      </cc:License>
    </rdf:RDF>
  </metadata>
  <sodipodi:namedview
     inkscape:document-rotation="0"
     inkscape:current-layer="g5148"
     inkscape:window-maximized="1"
     inkscape:window-y="21"
     inkscape:window-x="0"
     inkscape:cy="16"
     inkscape:cx="16"
     inkscape:zoom="12.453125"
     showgrid="false"
     id="namedview8"
     inkscape:window-height="1027"
     inkscape:window-width="1920"
     inkscape:pageshadow="2"
     inkscape:pageopacity="0"
     guidetolerance="10"
     gridtolerance="10"
     objecttolerance="10"
     borderopacity="1"
     bordercolor="#666666"
     pagecolor="#ffffff" />
  <defs
     id="defs3051">
    <style
       id="current-color-scheme"
       type="text/css">
      .ColorScheme-Text {
        color:#4d4d4d;
      }
      </style>
    <linearGradient
       inkscape:collect="always"
       id="linearGradient4133">
      <stop
         style="stop-color:#ffffff;stop-opacity:1;"
         offset="0"
         id="stop4135" />
      <stop
         style="stop-color:#ffffff;stop-opacity:0;"
         offset="1"
         id="stop4137" />
    </linearGradient>
    <linearGradient
       id="linearGradient5700">
      <stop
         id="stop5702"
         offset="0"
         style="stop-color:#ffffff;stop-opacity:0;" />
      <stop
         style="stop-color:#ffffff;stop-opacity:0.85135138;"
         offset="0.02897836"
         id="stop5704" />
      <stop
         id="stop5706"
         offset="0.05199923"
         style="stop-color:#ffffff;stop-opacity:0;" />
      <stop
         style="stop-color:#ffffff;stop-opacity:0;"
         offset="0.96583712"
         id="stop5712" />
      <stop
         style="stop-color:#ffffff;stop-opacity:0.85135138;"
         offset="0.9788844"
         id="stop5710" />
      <stop
         id="stop5708"
         offset="1"
         style="stop-color:#ffffff;stop-opacity:0;" />
    </linearGradient>
    <linearGradient
       id="linearGradient3921">
      <stop
         style="stop-color:#2cffee;stop-opacity:1;"
         offset="0"
         id="stop3923" />
      <stop
         style="stop-color:#00586e;stop-opacity:1;"
         offset="1"
         id="stop3925" />
    </linearGradient>
    <linearGradient
       id="linearGradient4091-0-3-0-7">
      <stop
         style="stop-color:#ffffff;stop-opacity:1;"
         offset="0"
         id="stop4093-3-6-4-2" />
      <stop
         id="stop4099-6-1-8-3"
         offset="0.80000001"
         style="stop-color:#ffffff;stop-opacity:1;" />
      <stop
         style="stop-color:#ffffff;stop-opacity:0;"
         offset="1"
         id="stop4095-1-0-7-9" />
    </linearGradient>
    <linearGradient
       id="linearGradient3832-0-6-1-1">
      <stop
         style="stop-color:#000000;stop-opacity:1;"
         offset="0"
         id="stop3834-6-3-7-1" />
      <stop
         id="stop3872-2-4"
         offset="0.1"
         style="stop-color:#000000;stop-opacity:0.58823532;" />
      <stop
         style="stop-color:#000000;stop-opacity:0.58823532;"
         offset="0.89999998"
         id="stop3844-6-2-7-6" />
      <stop
         style="stop-color:#000000;stop-opacity:1;"
         offset="1"
         id="stop3836-5-0-2-9" />
    </linearGradient>
    <linearGradient
       inkscape:collect="always"
       xlink:href="#linearGradient6139-0"
       id="linearGradient3923"
       x1="6"
       y1="47.000011"
       x2="90"
       y2="47.000011"
       gradientUnits="userSpaceOnUse" />
    <linearGradient
       id="linearGradient6139-0">
      <stop
         id="stop6141-2"
         offset="0"
         style="stop-color:#b7b7b7;stop-opacity:1;" />
      <stop
         style="stop-color:#ffffff;stop-opacity:1;"
         offset="0.25"
         id="stop6151-0" />
      <stop
         style="stop-color:#9d9d9d;stop-opacity:1;"
         offset="0.5"
         id="stop6147-1" />
      <stop
         id="stop6149-4"
         offset="0.75"
         style="stop-color:#fafafa;stop-opacity:1;" />
      <stop
         id="stop6143-4"
         offset="1"
         style="stop-color:#b7b7b7;stop-opacity:1;" />
    </linearGradient>
    <linearGradient
       inkscape:collect="always"
       xlink:href="#linearGradient6139-0"
       id="linearGradient4071"
       gradientUnits="userSpaceOnUse"
       gradientTransform="matrix(1.1033428,0,0,1.1016792,-38.499564,-45.284377)"
       x1="6"
       y1="47.000011"
       x2="90"
       y2="47.000011" />
    <radialGradient
       inkscape:collect="always"
       xlink:href="#linearGradient4133"
       id="radialGradient4073"
       gradientUnits="userSpaceOnUse"
       gradientTransform="matrix(0,1.7857601,-2.2489266,0,28.433926,-312.48187)"
       cx="158"
       cy="6.2131939"
       fx="158"
       fy="6.2131939"
       r="41" />
    <radialGradient
       inkscape:collect="always"
       xlink:href="#linearGradient4091-0-3-0-7"
       id="radialGradient4075"
       gradientUnits="userSpaceOnUse"
       gradientTransform="matrix(-1.1829739,0,0,-0.9639916,71.243648,-65.803753)"
       cx="48"
       cy="-27"
       fx="48"
       fy="-27"
       r="42" />
    <linearGradient
       inkscape:collect="always"
       xlink:href="#linearGradient4133"
       id="linearGradient4767"
       gradientUnits="userSpaceOnUse"
       x1="2.7713892"
       y1="-28.64156"
       x2="50.527882"
       y2="14.514202" />
    <clipPath
       clipPathUnits="userSpaceOnUse"
       id="clipPath4156-4">
      <path
         style="opacity:0.6;fill:#ffffff;fill-opacity:1;stroke:none"
         d="m 27.046336,-55.695463 -14.21366,13.321486 h 0.06127 l 15.653407,21.770763 10.231384,-10.546177 C 38.561832,-32.30156 27.468089,-54.819245 27.046336,-55.695463 Z M 9.6468554,-39.382809 -5.2407289,-25.32124 15.987863,-7.8059573 26.372412,-18.382966 Z m 31.4906096,12.951445 -9.741259,9.713584 8.944804,12.4580526 7.780753,-7.5550056 z m -49.8397109,4.378822 -13.7541661,12.9822847 26.2830181,13.84571 0.06127,-0.0617 -0.122531,-0.0617 L 13.598503,-5.4007374 -8.7022409,-22.052595 Z m 38.0154159,7.400825 -9.802525,9.7752596 11.579232,9.5594001 7.62759,-7.40083 -8.669108,-11.0087257 z m 20.187073,5.6739697 -7.382526,7.2158 6.187844,8.54179 5.820249,-6.13651996 z m -32.195166,6.32154 -9.5574606,9.49772 13.6622686,7.1849703 7.933918,-7.6783603 z m 23.311629,2.37443004 -7.10683,6.93826996 8.362778,6.9074403 5.360756,-5.6739699 -0.06127,-0.0925 -0.0919,0.12335 -6.463539,-8.20258036 z m -8.730374,8.54178036 -7.505057,7.3391599 10.353916,5.45811 c 1.397496,-1.32103 5.67514,-6.12292 5.850882,-6.32154 z"
         id="path4158-0"
         inkscape:connector-curvature="0" />
    </clipPath>
    <linearGradient
       inkscape:collect="always"
       xlink:href="#linearGradient4133"
       id="linearGradient4112"
       gradientUnits="userSpaceOnUse"
       gradientTransform="matrix(1.1376233,0,0,1.1422854,-40.393161,-45.01103)"
       x1="45.99942"
       y1="42.063522"
       x2="76.197693"
       y2="29.454437" />
    <linearGradient
       gradientTransform="matrix(0.99656771,0,0,0.99506529,-33.374359,-41.268578)"
       inkscape:collect="always"
       xlink:href="#linearGradient3832-0-6-1-1"
       id="linearGradient4129"
       x1="1.5"
       y1="88.171875"
       x2="94.5"
       y2="88.171875"
       gradientUnits="userSpaceOnUse" />
    <radialGradient
       inkscape:collect="always"
       xlink:href="#linearGradient4133"
       id="radialGradient4139"
       cx="13.948145"
       cy="44.892841"
       fx="13.948145"
       fy="44.892841"
       r="43.199203"
       gradientTransform="matrix(0.97178685,0,0,0.04894798,0.40798707,38.502516)"
       gradientUnits="userSpaceOnUse" />
    <radialGradient
       inkscape:collect="always"
       xlink:href="#linearGradient4133"
       id="radialGradient4143"
       gradientUnits="userSpaceOnUse"
       gradientTransform="matrix(0.88394298,0,0,0.04902188,-10.685753,-57.022611)"
       cx="13.948145"
       cy="44.892841"
       fx="13.948145"
       fy="44.892841"
       r="43.199203" />
    <radialGradient
       gradientUnits="userSpaceOnUse"
       gradientTransform="matrix(0.97178685,0,0,0.87306104,0.40798707,0.48635115)"
       r="45.056355"
       fy="3.070312"
       fx="14.693459"
       cy="3.070312"
       cx="14.693459"
       id="radialGradient961"
       xlink:href="#linearGradient3921"
       inkscape:collect="always" />
  </defs>
  <g
     id="layer1"
     inkscape:label="Layer 1"
     transform="translate(2.418628e-7,80)">
    <g
       id="g5148"
       transform="matrix(1.0034441,0,0,1.0049592,33.489303,-38.526762)">
      <g
         id="g5766"
         transform="matrix(0.88387919,0,0,0.83393165,-3.5257642,5.0081212)" />
      <g
         transform="matrix(0.32291668,0,0,0.32291667,-22.098938,-27.444734)"
         id="g1090">
        <path
           inkscape:connector-curvature="0"
           id="path3288"
           d="m 55.462534,-41.268579 h -82.003291 c -3.78581,0 -6.8336,3.043193 -6.8336,6.823302 v 81.87966 c 0,3.780111 3.04779,6.823304 6.8336,6.823304 h 82.003291 c 3.785819,0 6.833607,-3.043193 6.833607,-6.823304 v -81.87966 c 0,-3.780109 -3.047788,-6.823302 -6.833607,-6.823302 z"
           style="display:inline;opacity:0.15;fill:#000000;fill-opacity:1;fill-rule:nonzero;stroke:none" />
        <path
           style="display:inline;opacity:0.15;fill:#000000;fill-opacity:1;fill-rule:nonzero;stroke:none"
           d="m 54.821885,-40.52228 h -80.721993 c -3.726657,0 -6.726825,2.995643 -6.726825,6.716688 v 80.60029 c 0,3.721047 3.000168,6.71669 6.726825,6.71669 h 80.721993 c 3.726665,0 6.726832,-2.995643 6.726832,-6.71669 v -80.60029 c 0,-3.721045 -3.000167,-6.716688 -6.726832,-6.716688 z"
           id="path4085"
           inkscape:connector-curvature="0" />
        <path
           style="display:inline;fill:url(#linearGradient4071);fill-opacity:1;fill-rule:nonzero;stroke:none;stroke-width:0.971787"
           d="m 54.18123,-39.775981 h -79.44068 c -3.667512,0 -6.620057,2.948093 -6.620057,6.610075 v 79.320921 c 0,3.661981 2.952545,6.610074 6.620057,6.610074 h 79.44068 c 3.667512,0 6.620057,-2.948093 6.620057,-6.610074 v -79.320921 c 0,-3.661982 -2.952545,-6.610075 -6.620057,-6.610075 z"
           id="rect4251-1"
           inkscape:connector-curvature="0" />
        <path
           style="display:inline;opacity:0.2;fill:url(#radialGradient4073);fill-opacity:1;fill-rule:nonzero;stroke:none;stroke-width:1.10251"
           d="m -25.259446,-38.674301 c -3.075348,0 -5.516714,2.437688 -5.516714,5.508396 v 22.825416 7.7117539 42.5179321 c 1.181305,1.794391 3.196306,2.99519 5.516714,2.99519 h 4.413371 70.613939 4.413371 c 2.320407,0 4.335409,-1.200799 5.516714,-2.99519 V -2.6287351 -10.340489 -33.165905 c 0,-3.070708 -2.441366,-5.508396 -5.516714,-5.508396 z"
           id="path3400-6"
           inkscape:connector-curvature="0"
           sodipodi:nodetypes="sscccsccscccsss" />
        <path
           style="display:inline;opacity:0.45;fill:url(#radialGradient4075);fill-opacity:1;fill-rule:nonzero;stroke:none;stroke-width:1.10251"
           d="m -25.259446,-39.775981 c -3.667512,0 -6.620057,2.948093 -6.620057,6.610076 v 16.525188 h 1.103343 v -16.525188 c 0,-3.070708 2.441366,-5.508396 5.516714,-5.508396 h 79.440681 c 3.075348,0 5.516714,2.437688 5.516714,5.508396 v 16.525188 h 1.103343 v -16.525188 c 0,-3.661983 -2.952545,-6.610076 -6.620057,-6.610076 z"
           id="path4236-5"
           inkscape:connector-curvature="0" />
        <path
           sodipodi:nodetypes="sssssssss"
           inkscape:connector-curvature="0"
           style="color:#000000;display:inline;overflow:visible;visibility:visible;fill:#23acdc;fill-opacity:1;fill-rule:nonzero;stroke:none;stroke-width:1.94357;marker:none;enable-background:accumulate"
           d="m -24.489313,-36.170028 h 78.352418 c 2.553368,0 4.608966,2.005061 4.608966,4.495653 v 69.682594 c 0,2.490591 -2.055598,4.495651 -4.608966,4.495651 h -78.352418 c -2.553366,0 -4.608964,-2.00506 -4.608964,-4.495651 v -69.682594 c 0,-2.490592 2.055598,-4.495653 4.608964,-4.495653 z"
           id="path4970" />
        <path
           sodipodi:nodetypes="ssscssssssssscsss"
           inkscape:connector-curvature="0"
           id="path5000"
           d="m 9.6041811,-24.524865 c -9.37314908,0 -18.3698158,9.253688 -18.3698158,20.701082 0,3.48978155 2.1022999,6.3605424 3.5348693,9.2489346 2.0045272,4.0416011 3.9070033,7.7152534 7.554521,9.6227474 -0.5889134,0.658707 -1.2290736,1.508764 -1.97680475,2.744098 -1.31131912,2.166442 0.13873627,2.373595 -3.13395685,3.466226 -9.841957,3.285857 -19.575185,6.821268 -19.575185,10.109831 0,1.132802 -3.112625,2.805502 -1.350013,3.610654 4.8977,2.237247 19.9384849,2.551527 32.6413787,2.551527 12.8495953,0 28.9376743,0.07723 33.7503183,-2.214534 1.657279,-0.78919 -1.073702,-3.296678 -1.639301,-4.236499 C 39.357059,28.28245 34.708865,24.91628 22.718591,23.183906 21.94917,23.07274 19.348398,21.541897 18.186405,17.743854 17.798313,16.475349 17.318087,15.62539 16.788178,14.999757 c 3.678036,-2.014473 5.388495,-5.6167225 7.282795,-9.884102 1.25065,-2.817401 3.372662,-5.84572283 3.372662,-9.1801491 0,-11.4473929 -8.466305,-20.4603709 -17.8394539,-20.4603709 z"
           style="opacity:0.872727;fill:#ffffff;fill-opacity:0.746939;stroke:none;stroke-width:1.45114" />
        <path
           inkscape:connector-curvature="0"
           id="path3437"
           d="m 10.423832,-25.872842 c -5.7538458,0.03356 -10.79509326,3.533009 -13.6447708,8.761854 2.94669067,-4.369277 7.5529843,-7.191113 12.7286911,-7.221308 0.00964,0 0.1831792,0 0.1928592,0 8.6704125,0.120017 15.6607615,8.052413 15.9108635,18.0532679 0.0077,0.2768317 0.124217,0.5440303 0.337503,0.7221305 0.606845,0.5130146 0.867865,1.1873399 0.867865,2.0701079 0,0.8975189 -0.295034,1.9173188 -0.819651,2.98480701 1.112749,-1.62461301 1.783946,-3.19997641 1.783946,-4.52535161 0,-0.8827679 -0.309235,-1.5570947 -0.91608,-2.0701079 -0.213281,-0.1781016 -0.329691,-0.4453002 -0.337503,-0.7221319 -0.250102,-10.0008539 -7.240451,-17.9332479 -15.910864,-18.0532679 -0.0096,0 -0.183209,0 -0.192859,0 z m -15.4769308,7.991581 c -1.8418648,2.846985 -3.0291539,6.247042 -3.3750319,9.9654033 0.243399,-0.2994368 0.5333239,-0.6210952 0.8678655,-0.8665566 0.2126676,-3.3315607 1.0727944,-6.4056317 2.5071664,-9.0988467 z m -1.4946575,10.7838188 c -0.4862518,0.395213 -0.7663579,0.8760614 -0.8678656,1.4924035 0.1112753,-0.086369 0.2055,-0.1621843 0.3375039,-0.2407111 0.2811257,-0.1684282 0.4685789,-0.4931832 0.4821472,-0.8184141 0.00643,-0.1463449 0.038957,-0.2878776 0.048217,-0.4332783 z m -2.6035953,0.4814194 c -0.7732114,0.8248684 -1.2053694,1.8657869 -1.2053694,3.1292331 0,2.2901688 1.2975287,4.9973627 3.5678911,7.51016 1.5685026,4.3035016 4.0000272,8.0893007 6.89470715,10.7356767 -0.1592122,0.643778 -0.34823269,1.249916 -0.6267905,1.829398 0.74805399,-0.999924 1.28438401,-2.129789 1.59108635,-3.369944 -2.8946813,-2.646376 -5.3262045,-6.4321751 -6.8947086,-10.7356767 -2.2703609,-2.51279728 -3.5678897,-5.2199898 -3.5678897,-7.5101586 0,-0.5738177 0.080469,-1.104122 0.2410736,-1.5886885 z M 27.684709,0.50900144 C 27.485576,0.80474185 27.284695,1.081216 27.057917,1.375558 c -0.052,0.1612978 -0.09014,0.3212908 -0.144637,0.4814208 0.29133,-0.4469667 0.545935,-0.90418077 0.771436,-1.34797736 z m -2.507166,0.4332783 C 24.967492,1.2551239 24.749813,1.5424436 24.502536,1.8569788 24.430743,1.9479615 24.39465,2.0836252 24.357884,2.1939721 23.794043,3.9786705 23.091724,5.6693472 22.236436,7.248887 23.431194,5.3505144 24.435359,3.2079549 25.177535,0.94227974 Z M 23.779315,8.4042973 c -1.305957,2.0485797 -2.786362,3.8332597 -4.435756,5.2474817 0.04476,0.179424 0.09056,0.355119 0.144652,0.529564 1.612758,-1.603436 3.070788,-3.576281 4.291112,-5.7770457 z m -6.460776,5.1511987 c -0.198263,0.174987 -0.424485,0.366965 -0.626792,0.529563 -0.27918,0.224563 -0.403436,0.5643 -0.337502,0.914698 0.538981,2.808986 2.333352,6.652125 7.859003,9.050706 0.65338,0.282638 1.70386,0.493438 2.989314,0.770273 4.802448,1.03764 12.830141,2.807363 14.801924,10.157972 0.116242,0.431703 0.489531,0.722131 0.91608,0.722131 0.08333,0 0.1557,-0.02686 0.241074,-0.04814 0.517657,-0.139393 0.860869,-0.686667 0.723221,-1.203551 -0.02737,-0.102041 -0.0671,-0.188688 -0.09643,-0.288853 -0.406168,-0.02193 -0.756335,-0.307926 -0.867865,-0.72213 C 40.948783,26.087557 32.921089,24.317833 28.118641,23.280193 26.833188,23.003358 25.830921,22.79256 25.177542,22.50992 19.715459,20.138933 17.880347,16.35553 17.318539,13.555499 Z M 1.0219572,17.743854 c -1.2083697,1.613814 -3.071156,3.183575 -5.8339824,4.380927 -0.6242986,0.269091 -1.5808265,0.481824 -2.7964559,0.770273 -4.3277689,1.029358 -11.2169519,2.702757 -14.0787039,8.328574 3.239522,-4.41183 9.254503,-5.858484 13.1626239,-6.788029 1.2156294,-0.288448 2.1721573,-0.501181 2.7964559,-0.770273 3.6430494,-1.578822 5.63923898,-3.791603 6.7500624,-5.921472 z M -23.422915,30.308929 c -0.840305,1.190787 -1.498169,2.536566 -1.92859,4.140216 -0.137611,0.516885 0.157253,1.064166 0.675006,1.203551 0.519601,0.129691 1.069666,-0.159046 1.205369,-0.673988 0.08456,-0.315004 0.183506,-0.619098 0.289289,-0.914699 -0.176653,0.06091 -0.383726,0.09678 -0.578578,0.04814 -0.517753,-0.139379 -0.812615,-0.686666 -0.675006,-1.203552 0.25669,-0.956367 0.599528,-1.795216 1.01251,-2.599669 z"
           style="fill:#444444;fill-opacity:0.730612;stroke-width:1.45114" />
        <path
           style="fill:#fefefe;fill-opacity:0.75102;stroke-width:1.45114"
           inkscape:connector-curvature="0"
           d="m -23.748596,35.233468 c 0.519601,0.132041 1.050845,-0.173449 1.186549,-0.697706 1.996994,-7.57423 10.112895,-9.537263 14.9638448,-10.711928 1.2156294,-0.293665 2.1753445,-0.526233 2.7996431,-0.800193 5.52565286,-2.438019 7.3268199,-6.360145 7.8658026,-9.221913 0.065804,-0.34491 -0.056207,-0.699675 -0.3199056,-0.932244 -2.87720712,-2.524744 -5.304614,-6.3148128 -6.836281,-10.6744797 -0.042711,-0.1241982 -0.110472,-0.2384809 -0.1996952,-0.3370278 -2.0260738,-2.23895993 -3.189374,-4.6060308 -3.189374,-6.4921969 0,-1.1017433 0.4090923,-1.8408348 1.3300451,-2.3986055 0.2811272,-0.1714729 0.4575536,-0.4730189 0.471122,-0.8041316 0.4284902,-10.0398465 7.4625413,-17.9432195 16.0902932,-17.9944615 0.0092,0 0.197769,0.0137 0.207449,0.0137 8.67042,0.122195 15.659878,8.195069 15.90998,18.3768213 0.0076,0.2818386 0.131871,0.5459434 0.345104,0.7272657 0.606843,0.522293 0.889919,1.1845215 0.889919,2.0832572 0,1.5787065 -0.827876,3.5200562 -2.328517,5.46338091 -0.07182,0.0926261 -0.126043,0.19906179 -0.162833,0.31140539 -1.551043,4.9982421 -4.335196,9.4111235 -7.635081,12.1112775 -0.279171,0.228626 -0.411022,0.595218 -0.345089,0.951954 0.538982,2.859796 2.340142,6.779949 7.865793,9.221916 0.653389,0.28775 1.66738,0.512436 2.952822,0.794279 4.802455,1.05641 12.838862,2.828264 14.810636,10.311831 0.116242,0.439514 0.507984,0.729238 0.93452,0.729238 0.08332,0 0.166677,-0.01182 0.252046,-0.03352 0.517662,-0.141917 0.824002,-0.681939 0.686347,-1.208171 C 42.51843,25.376805 33.413723,23.372381 28.524017,22.296261 27.389813,22.045956 26.410696,21.831128 25.933773,21.61827 c -3.606225,-1.592505 -5.828117,-4.018701 -6.61334,-7.223407 3.348344,-2.922871 6.149954,-7.4323255 7.751416,-12.4896969 1.700339,-2.24684578 2.634858,-4.5606995 2.634858,-6.5375282 0,-1.3185418 -0.418787,-2.4183143 -1.248608,-3.2776324 C 27.996658,-18.954856 20.243312,-27.652508 10.620927,-27.792443 l -0.288876,-0.0036 c -9.4478718,0.05124 -17.2341866,8.520288 -17.9147217,19.374122 -1.2136837,0.9066187 -1.8302479,2.1778584 -1.8302479,3.7920397 0,2.3315932 1.2970788,5.12044225 3.5674397,7.6786905 1.5685027,4.381345 3.9997819,8.2305428 6.8944604,10.9247868 -0.78134461,3.216535 -3.0051899,5.650615 -6.6191482,7.245086 -0.4672497,0.206945 -1.3978869,0.4336 -2.4758682,0.693762 -4.9265481,1.190432 -14.0932931,3.407714 -16.3888681,12.115219 -0.137612,0.526236 0.168594,1.064298 0.686347,1.206203 z"
           id="path5008" />
        <path
           style="color:#000000;font-style:normal;font-variant:normal;font-weight:normal;font-stretch:normal;font-size:medium;line-height:normal;font-family:sans-serif;font-variant-ligatures:normal;font-variant-position:normal;font-variant-caps:normal;font-variant-numeric:normal;font-variant-alternates:normal;font-feature-settings:normal;text-indent:0;text-align:start;text-decoration:none;text-decoration-line:none;text-decoration-style:solid;text-decoration-color:#000000;letter-spacing:normal;word-spacing:normal;text-transform:none;writing-mode:lr-tb;direction:ltr;text-orientation:mixed;dominant-baseline:auto;baseline-shift:baseline;text-anchor:start;white-space:normal;shape-padding:0;clip-rule:nonzero;display:inline;overflow:visible;visibility:visible;opacity:0.224;isolation:auto;mix-blend-mode:normal;color-interpolation:sRGB;color-interpolation-filters:linearRGB;solid-color:#000000;solid-opacity:1;vector-effect:none;fill:#010101;fill-opacity:1;fill-rule:evenodd;stroke:none;stroke-width:2.87718;stroke-linecap:butt;stroke-linejoin:miter;stroke-miterlimit:4;stroke-dasharray:none;stroke-dashoffset:0;stroke-opacity:1;color-rendering:auto;image-rendering:auto;shape-rendering:auto;text-rendering:auto;enable-background:accumulate"
           d="m 27.183621,-22.719075 -0.02745,2.967704 27.359234,0.291523 0.02745,-2.967704 z"
           id="path988"
           inkscape:connector-curvature="0" />
        <path
           inkscape:connector-curvature="0"
           id="path963"
           d="m 27.183621,-23.71414 -0.02745,2.967704 27.359234,0.291523 0.02745,-2.967704 z"
           style="color:#000000;font-style:normal;font-variant:normal;font-weight:normal;font-stretch:normal;font-size:medium;line-height:normal;font-family:sans-serif;font-variant-ligatures:normal;font-variant-position:normal;font-variant-caps:normal;font-variant-numeric:normal;font-variant-alternates:normal;font-feature-settings:normal;text-indent:0;text-align:start;text-decoration:none;text-decoration-line:none;text-decoration-style:solid;text-decoration-color:#000000;letter-spacing:normal;word-spacing:normal;text-transform:none;writing-mode:lr-tb;direction:ltr;text-orientation:mixed;dominant-baseline:auto;baseline-shift:baseline;text-anchor:start;white-space:normal;shape-padding:0;clip-rule:nonzero;display:inline;overflow:visible;visibility:visible;opacity:0.685504;isolation:auto;mix-blend-mode:normal;color-interpolation:sRGB;color-interpolation-filters:linearRGB;solid-color:#000000;solid-opacity:1;vector-effect:none;fill:#ffffff;fill-opacity:1;fill-rule:evenodd;stroke:none;stroke-width:2.87718;stroke-linecap:butt;stroke-linejoin:miter;stroke-miterlimit:4;stroke-dasharray:none;stroke-dashoffset:0;stroke-opacity:1;color-rendering:auto;image-rendering:auto;shape-rendering:auto;text-rendering:auto;enable-background:accumulate" />
        <path
           inkscape:connector-curvature="0"
           id="path990"
           d="m 30.368484,-9.451544 -0.02334,2.9677047 23.177772,0.2915237 0.02334,-2.967706 z"
           style="color:#000000;font-style:normal;font-variant:normal;font-weight:normal;font-stretch:normal;font-size:medium;line-height:normal;font-family:sans-serif;font-variant-ligatures:normal;font-variant-position:normal;font-variant-caps:normal;font-variant-numeric:normal;font-variant-alternates:normal;font-feature-settings:normal;text-indent:0;text-align:start;text-decoration:none;text-decoration-line:none;text-decoration-style:solid;text-decoration-color:#000000;letter-spacing:normal;word-spacing:normal;text-transform:none;writing-mode:lr-tb;direction:ltr;text-orientation:mixed;dominant-baseline:auto;baseline-shift:baseline;text-anchor:start;white-space:normal;shape-padding:0;clip-rule:nonzero;display:inline;overflow:visible;visibility:visible;opacity:0.224;isolation:auto;mix-blend-mode:normal;color-interpolation:sRGB;color-interpolation-filters:linearRGB;solid-color:#000000;solid-opacity:1;vector-effect:none;fill:#010101;fill-opacity:1;fill-rule:evenodd;stroke:none;stroke-width:2.6482;stroke-linecap:butt;stroke-linejoin:miter;stroke-miterlimit:4;stroke-dasharray:none;stroke-dashoffset:0;stroke-opacity:1;color-rendering:auto;image-rendering:auto;shape-rendering:auto;text-rendering:auto;enable-background:accumulate" />
        <path
           inkscape:connector-curvature="0"
           id="path4989"
           d="m -23.583001,-36.562457 c -3.105924,0 -5.648511,2.526979 -5.648511,5.618143 v 68.936127 c 0,3.091166 2.542587,5.618143 5.648511,5.618143 h 76.528215 c 3.105924,0 5.648511,-2.526977 5.648511,-5.618143 v -68.936127 c 0,-3.091164 -2.542587,-5.618143 -5.648511,-5.618143 z m 0,2.307994 h 76.528215 c 1.881618,0 3.340517,1.47279 3.340517,3.310149 v 68.936127 c 0,1.837362 -1.458899,3.310149 -3.340517,3.310149 h -76.528215 c -1.881618,0 -3.340517,-1.472787 -3.340517,-3.310149 v -68.936127 c 0,-1.837359 1.458899,-3.310149 3.340517,-3.310149 z"
           style="color:#000000;font-style:normal;font-variant:normal;font-weight:normal;font-stretch:normal;font-size:medium;line-height:normal;font-family:Sans;-inkscape-font-specification:Sans;text-indent:0;text-align:start;text-decoration:none;text-decoration-line:none;letter-spacing:normal;word-spacing:normal;text-transform:none;writing-mode:lr-tb;direction:ltr;baseline-shift:baseline;text-anchor:start;display:inline;overflow:visible;visibility:visible;fill:#000000;fill-opacity:0.871486;stroke:none;stroke-width:2.30848;marker:none;enable-background:accumulate" />
        <path
           inkscape:connector-curvature="0"
           style="display:inline;opacity:0.65;fill:url(#linearGradient4129);fill-opacity:1;fill-rule:nonzero;stroke:none;stroke-width:0.995816"
           d="m -31.879507,40.171297 v 5.970392 c 0,3.661981 2.965892,6.623403 6.633403,6.623403 h 79.41399 c 3.667511,0 6.633404,-2.961422 6.633404,-6.623403 v -5.970392 c 0,3.661981 -2.965893,6.623403 -6.633404,6.623403 h -79.41399 c -3.667511,0 -6.633403,-2.961422 -6.633403,-6.623403 z"
           id="path4118" />
        <rect
           style="opacity:0.55;fill:url(#radialGradient4139);fill-opacity:1;stroke:none;stroke-width:0.971787"
           id="rect4131"
           width="83.960838"
           height="4.2290273"
           x="-28.017807"
           y="38.585407"
           rx="0"
           ry="4.2290273" />
        <path
           style="color:#000000;font-style:normal;font-variant:normal;font-weight:normal;font-stretch:normal;font-size:medium;line-height:normal;font-family:sans-serif;font-variant-ligatures:normal;font-variant-position:normal;font-variant-caps:normal;font-variant-numeric:normal;font-variant-alternates:normal;font-feature-settings:normal;text-indent:0;text-align:start;text-decoration:none;text-decoration-line:none;text-decoration-style:solid;text-decoration-color:#000000;letter-spacing:normal;word-spacing:normal;text-transform:none;writing-mode:lr-tb;direction:ltr;text-orientation:mixed;dominant-baseline:auto;baseline-shift:baseline;text-anchor:start;white-space:normal;shape-padding:0;clip-rule:nonzero;display:inline;overflow:visible;visibility:visible;opacity:0.224;isolation:auto;mix-blend-mode:normal;color-interpolation:sRGB;color-interpolation-filters:linearRGB;solid-color:#000000;solid-opacity:1;vector-effect:none;fill:#010101;fill-opacity:1;fill-rule:evenodd;stroke:none;stroke-width:2.72113;stroke-linecap:butt;stroke-linejoin:miter;stroke-miterlimit:4;stroke-dasharray:none;stroke-dashoffset:0;stroke-opacity:1;color-rendering:auto;image-rendering:auto;shape-rendering:auto;text-rendering:auto;enable-background:accumulate"
           d="m 29.373218,3.8159918 -0.02461,2.9677046 24.472034,0.2915237 0.02461,-2.9677057 z"
           id="path992"
           inkscape:connector-curvature="0" />
        <rect
           ry="4.2354131"
           rx="0"
           y="-56.939594"
           x="-36.542019"
           height="4.2354131"
           width="76.371262"
           id="rect4141"
           style="opacity:0.55;fill:url(#radialGradient4143);fill-opacity:1;stroke:none;stroke-width:0.971787"
           transform="rotate(90)" />
        <path
           inkscape:connector-curvature="0"
           id="path994"
           d="m 30.367886,17.083529 -0.02273,2.967704 22.580437,0.291523 0.02273,-2.967704 z"
           style="color:#000000;font-style:normal;font-variant:normal;font-weight:normal;font-stretch:normal;font-size:medium;line-height:normal;font-family:sans-serif;font-variant-ligatures:normal;font-variant-position:normal;font-variant-caps:normal;font-variant-numeric:normal;font-variant-alternates:normal;font-feature-settings:normal;text-indent:0;text-align:start;text-decoration:none;text-decoration-line:none;text-decoration-style:solid;text-decoration-color:#000000;letter-spacing:normal;word-spacing:normal;text-transform:none;writing-mode:lr-tb;direction:ltr;text-orientation:mixed;dominant-baseline:auto;baseline-shift:baseline;text-anchor:start;white-space:normal;shape-padding:0;clip-rule:nonzero;display:inline;overflow:visible;visibility:visible;opacity:0.224;isolation:auto;mix-blend-mode:normal;color-interpolation:sRGB;color-interpolation-filters:linearRGB;solid-color:#000000;solid-opacity:1;vector-effect:none;fill:#010101;fill-opacity:1;fill-rule:evenodd;stroke:none;stroke-width:2.61385;stroke-linecap:butt;stroke-linejoin:miter;stroke-miterlimit:4;stroke-dasharray:none;stroke-dashoffset:0;stroke-opacity:1;color-rendering:auto;image-rendering:auto;shape-rendering:auto;text-rendering:auto;enable-background:accumulate" />
        <path
           style="color:#000000;font-style:normal;font-variant:normal;font-weight:normal;font-stretch:normal;font-size:medium;line-height:normal;font-family:sans-serif;font-variant-ligatures:normal;font-variant-position:normal;font-variant-caps:normal;font-variant-numeric:normal;font-variant-alternates:normal;font-feature-settings:normal;text-indent:0;text-align:start;text-decoration:none;text-decoration-line:none;text-decoration-style:solid;text-decoration-color:#000000;letter-spacing:normal;word-spacing:normal;text-transform:none;writing-mode:lr-tb;direction:ltr;text-orientation:mixed;dominant-baseline:auto;baseline-shift:baseline;text-anchor:start;white-space:normal;shape-padding:0;clip-rule:nonzero;display:inline;overflow:visible;visibility:visible;opacity:0.685504;isolation:auto;mix-blend-mode:normal;color-interpolation:sRGB;color-interpolation-filters:linearRGB;solid-color:#000000;solid-opacity:1;vector-effect:none;fill:#ffffff;fill-opacity:1;fill-rule:evenodd;stroke:none;stroke-width:2.6482;stroke-linecap:butt;stroke-linejoin:miter;stroke-miterlimit:4;stroke-dasharray:none;stroke-dashoffset:0;stroke-opacity:1;color-rendering:auto;image-rendering:auto;shape-rendering:auto;text-rendering:auto;enable-background:accumulate"
           d="m 30.368484,-10.446609 -0.02334,2.9677044 23.177772,0.2915237 0.02334,-2.9677061 z"
           id="path982"
           inkscape:connector-curvature="0" />
        <path
           inkscape:connector-curvature="0"
           id="path984"
           d="m 29.373218,2.8209265 -0.02461,2.9677046 24.472034,0.2915237 0.02461,-2.9677057 z"
           style="color:#000000;font-style:normal;font-variant:normal;font-weight:normal;font-stretch:normal;font-size:medium;line-height:normal;font-family:sans-serif;font-variant-ligatures:normal;font-variant-position:normal;font-variant-caps:normal;font-variant-numeric:normal;font-variant-alternates:normal;font-feature-settings:normal;text-indent:0;text-align:start;text-decoration:none;text-decoration-line:none;text-decoration-style:solid;text-decoration-color:#000000;letter-spacing:normal;word-spacing:normal;text-transform:none;writing-mode:lr-tb;direction:ltr;text-orientation:mixed;dominant-baseline:auto;baseline-shift:baseline;text-anchor:start;white-space:normal;shape-padding:0;clip-rule:nonzero;display:inline;overflow:visible;visibility:visible;opacity:0.685504;isolation:auto;mix-blend-mode:normal;color-interpolation:sRGB;color-interpolation-filters:linearRGB;solid-color:#000000;solid-opacity:1;vector-effect:none;fill:#ffffff;fill-opacity:1;fill-rule:evenodd;stroke:none;stroke-width:2.72113;stroke-linecap:butt;stroke-linejoin:miter;stroke-miterlimit:4;stroke-dasharray:none;stroke-dashoffset:0;stroke-opacity:1;color-rendering:auto;image-rendering:auto;shape-rendering:auto;text-rendering:auto;enable-background:accumulate" />
        <path
           style="color:#000000;font-style:normal;font-variant:normal;font-weight:normal;font-stretch:normal;font-size:medium;line-height:normal;font-family:sans-serif;font-variant-ligatures:normal;font-variant-position:normal;font-variant-caps:normal;font-variant-numeric:normal;font-variant-alternates:normal;font-feature-settings:normal;text-indent:0;text-align:start;text-decoration:none;text-decoration-line:none;text-decoration-style:solid;text-decoration-color:#000000;letter-spacing:normal;word-spacing:normal;text-transform:none;writing-mode:lr-tb;direction:ltr;text-orientation:mixed;dominant-baseline:auto;baseline-shift:baseline;text-anchor:start;white-space:normal;shape-padding:0;clip-rule:nonzero;display:inline;overflow:visible;visibility:visible;opacity:0.685504;isolation:auto;mix-blend-mode:normal;color-interpolation:sRGB;color-interpolation-filters:linearRGB;solid-color:#000000;solid-opacity:1;vector-effect:none;fill:#ffffff;fill-opacity:1;fill-rule:evenodd;stroke:none;stroke-width:2.61385;stroke-linecap:butt;stroke-linejoin:miter;stroke-miterlimit:4;stroke-dasharray:none;stroke-dashoffset:0;stroke-opacity:1;color-rendering:auto;image-rendering:auto;shape-rendering:auto;text-rendering:auto;enable-background:accumulate"
           d="m 30.367886,16.088464 -0.02273,2.967704 22.580437,0.291523 0.02273,-2.967704 z"
           id="path986"
           inkscape:connector-curvature="0" />
        <g
           transform="matrix(0.9061837,0,0,0.92379606,-27.685003,-5.6506661)"
           id="g4324"
           style="opacity:0.7">
          <rect
             clip-path="url(#clipPath4156-4)"
             ry="3.9569881"
             rx="3.9569874"
             y="-30"
             x="2"
             height="92"
             width="92"
             id="rect4146"
             style="opacity:0.7;fill:url(#linearGradient4767);fill-opacity:1;stroke:none"
             transform="translate(-1.499875,-1.4)" />
        </g>
      </g>
    </g>
  </g>
</svg>
