<?xml version="1.0" encoding="UTF-8" standalone="no"?>
<svg
   xmlns:dc="http://purl.org/dc/elements/1.1/"
   xmlns:cc="http://creativecommons.org/ns#"
   xmlns:rdf="http://www.w3.org/1999/02/22-rdf-syntax-ns#"
   xmlns:svg="http://www.w3.org/2000/svg"
   xmlns="http://www.w3.org/2000/svg"
   xmlns:xlink="http://www.w3.org/1999/xlink"
   xmlns:sodipodi="http://sodipodi.sourceforge.net/DTD/sodipodi-0.dtd"
   xmlns:inkscape="http://www.inkscape.org/namespaces/inkscape"
   sodipodi:docname="emblem-scale.svg"
   inkscape:version="1.0beta2 (2b71d25d45, 2019-12-03)"
   id="svg1072"
   version="1.1"
   viewBox="0 0 32 32"
   height="32"
   width="32">
  <title
     id="title5337">Template-icon-for-Lila-HD-Icon-Theme,</title>
  <defs
     id="defs1066">
    <linearGradient
       id="linearGradient5581">
      <stop
         id="stop5569"
         style="stop-color:#000000;stop-opacity:1"
         offset="0" />
      <stop
         offset="0.53699315"
         style="stop-color:#b0b0b0;stop-opacity:1"
         id="stop5571" />
      <stop
         id="stop5573"
         style="stop-color:#646464;stop-opacity:1"
         offset="0.70815152" />
      <stop
         id="stop5575"
         style="stop-color:#777777;stop-opacity:1"
         offset="0.70815152" />
      <stop
         id="stop5579"
         style="stop-color:#000000;stop-opacity:1"
         offset="1" />
    </linearGradient>
    <linearGradient
       id="linearGradient4213-7"
       inkscape:collect="always">
      <stop
         id="stop4215-6"
         offset="0"
         style="stop-color:#ffffff;stop-opacity:1;" />
      <stop
         id="stop4217-5"
         offset="1"
         style="stop-color:#ffffff;stop-opacity:0;" />
    </linearGradient>
    <clipPath
       id="clipPath4156-4-6-2-1"
       clipPathUnits="userSpaceOnUse">
      <path
         inkscape:connector-curvature="0"
         id="path4158-0-2-0-6"
         d="m 27.046336,-55.695463 -14.21366,13.321486 h 0.06127 l 15.653407,21.770763 10.231384,-10.546177 C 38.561832,-32.30156 27.468089,-54.819245 27.046336,-55.695463 Z M 9.6468554,-39.382809 -5.2407289,-25.32124 15.987863,-7.8059573 26.372412,-18.382966 Z m 31.4906096,12.951445 -9.741259,9.713584 8.944804,12.4580526 7.780753,-7.5550056 z m -49.8397109,4.378822 -13.7541661,12.9822847 26.2830181,13.84571 0.06127,-0.0617 -0.122531,-0.0617 L 13.598503,-5.4007374 -8.7022409,-22.052595 Z m 38.0154159,7.400825 -9.802525,9.7752596 11.579232,9.5594001 7.62759,-7.40083 -8.669108,-11.0087257 z m 20.187073,5.6739697 -7.382526,7.2158 6.187844,8.54179 5.820249,-6.13651996 z m -32.195166,6.32154 -9.5574606,9.49772 13.6622686,7.1849703 7.933918,-7.6783603 z m 23.311629,2.37443004 -7.10683,6.93826996 8.362778,6.9074403 5.360756,-5.6739699 -0.06127,-0.0925 -0.0919,0.12335 -6.463539,-8.20258036 z m -8.730374,8.54178036 -7.505057,7.3391599 10.353916,5.45811 c 1.397496,-1.32103 5.67514,-6.12292 5.850882,-6.32154 z"
         style="opacity:0.6;fill:#ffffff;fill-opacity:1;stroke:none" />
    </clipPath>
    <linearGradient
       id="linearGradient3832-0-6-1-1-9">
      <stop
         id="stop3834-6-3-7-1-4"
         offset="0"
         style="stop-color:#000000;stop-opacity:1;" />
      <stop
         style="stop-color:#000000;stop-opacity:0.58823532;"
         offset="0.1"
         id="stop3872-2-4-8" />
      <stop
         id="stop3844-6-2-7-6-1"
         offset="0.89999998"
         style="stop-color:#000000;stop-opacity:0.58823532;" />
      <stop
         id="stop3836-5-0-2-9-6"
         offset="1"
         style="stop-color:#000000;stop-opacity:1;" />
    </linearGradient>
    <linearGradient
       gradientTransform="matrix(0.61301107,-0.61301107,0.61301107,0.61301107,-40.955956,1063.1393)"
       gradientUnits="userSpaceOnUse"
       xlink:href="#ButtonShadow-4"
       id="linearGradient3702"
       y2="48"
       x2="69"
       y1="48"
       x1="27" />
    <linearGradient
       gradientTransform="scale(1.0058652,0.994169)"
       gradientUnits="userSpaceOnUse"
       id="ButtonShadow-4"
       y2="7.0165396"
       x2="45.447727"
       y1="92.539597"
       x1="45.447727">
      <stop
         offset="0"
         style="stop-color:#000000;stop-opacity:1"
         id="stop3750-95" />
      <stop
         offset="1"
         style="stop-color:#000000;stop-opacity:0.58823532"
         id="stop3752-93" />
    </linearGradient>
    <linearGradient
       x1="31.622766"
       y1="-4.4534035"
       x2="24.880978"
       y2="48.321117"
       id="linearGradient3223-9-1"
       xlink:href="#linearGradient4213-7"
       gradientUnits="userSpaceOnUse"
       gradientTransform="matrix(0.7488748,-0.23969814,0.23968543,0.74883511,-23.171459,1042.3609)" />
    <linearGradient
       gradientTransform="matrix(0.75407536,-0.24136272,0.24134992,0.75403539,-23.68077,1042.0997)"
       x1="124.34372"
       y1="42.893944"
       x2="10.007462"
       y2="21.098124"
       id="linearGradient3225-7-0"
       xlink:href="#linearGradient4213-7"
       gradientUnits="userSpaceOnUse" />
    <linearGradient
       id="linearGradient3553-2">
      <stop
         id="stop3555-2"
         style="stop-color:#5496b4;stop-opacity:0.19847329"
         offset="0" />
      <stop
         id="stop3557-6"
         style="stop-color:#dfecf2;stop-opacity:0"
         offset="1" />
    </linearGradient>
    <linearGradient
       id="linearGradient3192-0">
      <stop
         id="stop3194-6"
         style="stop-color:#404040;stop-opacity:1"
         offset="0" />
      <stop
         id="stop3200-1"
         style="stop-color:#b7b7b7;stop-opacity:1"
         offset="0.5" />
      <stop
         id="stop3196-5"
         style="stop-color:#404040;stop-opacity:1"
         offset="1" />
    </linearGradient>
    <linearGradient
       id="linearGradient2919">
      <stop
         offset="0"
         style="stop-color:#000000;stop-opacity:1"
         id="stop2909" />
      <stop
         id="stop2921"
         style="stop-color:#b0b0b0;stop-opacity:1"
         offset="0.4443627" />
      <stop
         offset="0.70815152"
         style="stop-color:#646464;stop-opacity:1"
         id="stop2911" />
      <stop
         offset="0.70815152"
         style="stop-color:#c8c8c8;stop-opacity:1"
         id="stop2913" />
      <stop
         offset="0.70815152"
         style="stop-color:#646464;stop-opacity:1"
         id="stop2915" />
      <stop
         offset="1"
         style="stop-color:#000000;stop-opacity:1"
         id="stop2917" />
    </linearGradient>
    <linearGradient
       id="linearGradient3405-1">
      <stop
         id="stop3407-7"
         style="stop-color:#d0d0d0;stop-opacity:1"
         offset="0" />
      <stop
         id="stop3409-2"
         style="stop-color:#a1a1a1;stop-opacity:1"
         offset="1" />
    </linearGradient>
    <linearGradient
       id="linearGradient4091-0-3-0-7-9">
      <stop
         id="stop4093-3-6-4-2-7"
         offset="0"
         style="stop-color:#ffffff;stop-opacity:1;" />
      <stop
         style="stop-color:#ffffff;stop-opacity:1;"
         offset="0.80000001"
         id="stop4099-6-1-8-3-6" />
      <stop
         id="stop4095-1-0-7-9-2"
         offset="1"
         style="stop-color:#ffffff;stop-opacity:0;" />
    </linearGradient>
    <linearGradient
       id="linearGradient6139-0-5">
      <stop
         style="stop-color:#c1adad;stop-opacity:1;"
         offset="0"
         id="stop6141-2-87" />
      <stop
         id="stop6151-0-7"
         offset="0.25"
         style="stop-color:#ffffff;stop-opacity:1;" />
      <stop
         id="stop6147-1-0"
         offset="0.5"
         style="stop-color:#aa9090;stop-opacity:1;" />
      <stop
         style="stop-color:#fbf9f9;stop-opacity:1;"
         offset="0.75"
         id="stop6149-4-8" />
      <stop
         style="stop-color:#c1adad;stop-opacity:1;"
         offset="1"
         id="stop6143-4-4" />
    </linearGradient>
    <linearGradient
       gradientTransform="matrix(0.75407537,-0.24136274,0.24134992,0.75403542,-23.754726,1042.3074)"
       x1="124.34372"
       y1="42.893944"
       x2="10.007462"
       y2="21.098124"
       id="linearGradient3225-7-0-6"
       xlink:href="#linearGradient4213-7"
       gradientUnits="userSpaceOnUse" />
    <linearGradient
       gradientTransform="matrix(-0.74357003,0.27200959,-0.27199514,-0.74353065,56.67367,1080.0016)"
       x1="124.34372"
       y1="42.893944"
       x2="10.007462"
       y2="21.098124"
       id="linearGradient3225-7-0-6-9"
       xlink:href="#linearGradient4213-7"
       gradientUnits="userSpaceOnUse" />
    <linearGradient
       inkscape:collect="always"
       xlink:href="#linearGradient6139-0"
       id="linearGradient4071"
       gradientUnits="userSpaceOnUse"
       gradientTransform="matrix(1.1071428,0,0,1.1071426,-4.9939026,-3.620687)"
       x1="6"
       y1="47.000011"
       x2="90"
       y2="47.000011" />
    <linearGradient
       id="linearGradient6139-0">
      <stop
         id="stop6141-2"
         offset="0"
         style="stop-color:#b2babc;stop-opacity:1" />
      <stop
         style="stop-color:#ffffff;stop-opacity:1;"
         offset="0.25"
         id="stop6151-0" />
      <stop
         style="stop-color:#96a1a4;stop-opacity:1"
         offset="0.5"
         id="stop6147-1" />
      <stop
         id="stop6149-4"
         offset="0.75"
         style="stop-color:#fbf9f9;stop-opacity:1;" />
      <stop
         id="stop6143-4"
         offset="1"
         style="stop-color:#b2b9bc;stop-opacity:1" />
    </linearGradient>
    <linearGradient
       gradientTransform="translate(0.1489535,0.415026)"
       inkscape:collect="always"
       xlink:href="#linearGradient3832-0-6-1-1-9"
       id="linearGradient4129"
       x1="1.5"
       y1="88.171875"
       x2="94.5"
       y2="88.171875"
       gradientUnits="userSpaceOnUse" />
    <radialGradient
       inkscape:collect="always"
       xlink:href="#linearGradient4213-7"
       id="radialGradient7462"
       gradientUnits="userSpaceOnUse"
       gradientTransform="matrix(0.97513378,0,0,0.04919072,34.047649,80.581722)"
       cx="13.948145"
       cy="44.892841"
       fx="13.948145"
       fy="44.892841"
       r="43.199203" />
    <radialGradient
       inkscape:collect="always"
       xlink:href="#linearGradient4213-7"
       id="radialGradient7464"
       gradientUnits="userSpaceOnUse"
       gradientTransform="matrix(0.88832663,0,0,0.04919072,31.959518,-90.31726)"
       cx="13.948145"
       cy="44.892841"
       fx="13.948145"
       fy="44.892841"
       r="43.199203" />
    <linearGradient
       inkscape:collect="always"
       xlink:href="#linearGradient4213-7"
       id="linearGradient4767"
       gradientUnits="userSpaceOnUse"
       x1="2.7713892"
       y1="-28.64156"
       x2="50.527882"
       y2="14.514202" />
    <clipPath
       id="clipPath4156-4-1"
       clipPathUnits="userSpaceOnUse">
      <path
         inkscape:connector-curvature="0"
         id="path4158-0-8"
         d="m 27.046336,-55.695463 -14.21366,13.321486 h 0.06127 l 15.653407,21.770763 10.231384,-10.546177 C 38.561832,-32.30156 27.468089,-54.819245 27.046336,-55.695463 Z M 9.6468554,-39.382809 -5.2407289,-25.32124 15.987863,-7.8059573 26.372412,-18.382966 Z m 31.4906096,12.951445 -9.741259,9.713584 8.944804,12.4580526 7.780753,-7.5550056 z m -49.8397109,4.378822 -13.7541661,12.9822847 26.2830181,13.84571 0.06127,-0.0617 -0.122531,-0.0617 L 13.598503,-5.4007374 -8.7022409,-22.052595 Z m 38.0154159,7.400825 -9.802525,9.7752596 11.579232,9.5594001 7.62759,-7.40083 -8.669108,-11.0087257 z m 20.187073,5.6739697 -7.382526,7.2158 6.187844,8.54179 5.820249,-6.13651996 z m -32.195166,6.32154 -9.5574606,9.49772 13.6622686,7.1849703 7.933918,-7.6783603 z m 23.311629,2.37443004 -7.10683,6.93826996 8.362778,6.9074403 5.360756,-5.6739699 -0.06127,-0.0925 -0.0919,0.12335 -6.463539,-8.20258036 z m -8.730374,8.54178036 -7.505057,7.3391599 10.353916,5.45811 c 1.397496,-1.32103 5.67514,-6.12292 5.850882,-6.32154 z"
         style="opacity:0.6;fill:#ffffff;fill-opacity:1;stroke:none" />
    </clipPath>
    <radialGradient
       inkscape:collect="always"
       xlink:href="#linearGradient3405-1"
       id="radialGradient3409"
       gradientUnits="userSpaceOnUse"
       gradientTransform="matrix(0.10811794,-0.11901694,0.69546941,0.63171431,-30.075524,1034.8983)"
       cx="63.937504"
       cy="95.865532"
       fx="63.937504"
       fy="95.865532"
       r="20.6875" />
    <linearGradient
       y2="128.29572"
       x2="45.493565"
       y1="129.1757"
       x1="74.455246"
       gradientTransform="matrix(0.31788221,0,0,0.31788221,-794.68286,733.90655)"
       gradientUnits="userSpaceOnUse"
       id="linearGradient4378"
       xlink:href="#linearGradient2919"
       inkscape:collect="always" />
    <filter
       height="1.071998"
       y="-0.035999011"
       width="1.0720021"
       x="-0.036000989"
       id="filter6745"
       style="color-interpolation-filters:sRGB"
       inkscape:collect="always">
      <feGaussianBlur
         id="feGaussianBlur6747"
         stdDeviation="0.78679156"
         inkscape:collect="always" />
    </filter>
    <radialGradient
       gradientUnits="userSpaceOnUse"
       r="13.999384"
       fy="1073.0848"
       fx="28.743431"
       cy="1073.0848"
       cx="28.743431"
       id="radialGradient4817"
       xlink:href="#ButtonShadow-4"
       inkscape:collect="always" />
  </defs>
  <sodipodi:namedview
     inkscape:document-rotation="0"
     inkscape:snap-page="true"
     inkscape:snap-object-midpoints="true"
     inkscape:snap-global="true"
     inkscape:window-maximized="1"
     inkscape:window-y="21"
     inkscape:window-x="0"
     inkscape:window-height="1029"
     inkscape:window-width="1920"
     inkscape:lockguides="true"
     units="px"
     inkscape:showpageshadow="false"
     showgrid="false"
     inkscape:current-layer="g1602"
     inkscape:document-units="px"
     inkscape:cy="56.324032"
     inkscape:cx="3.210025"
     inkscape:zoom="2.4693766"
     inkscape:pageshadow="2"
     inkscape:pageopacity="0.0"
     borderopacity="1.0"
     bordercolor="#666666"
     pagecolor="#ffffff"
     id="base">
    <sodipodi:guide
       inkscape:locked="true"
       id="guide1621"
       orientation="0,96"
       position="0,0" />
    <sodipodi:guide
       inkscape:locked="true"
       id="guide1623"
       orientation="-96,0"
       position="96.000002,0" />
    <sodipodi:guide
       inkscape:locked="true"
       id="guide1625"
       orientation="0,-96"
       position="96.000002,96.000002" />
    <sodipodi:guide
       inkscape:locked="true"
       id="guide1627"
       orientation="96,0"
       position="0,96.000002" />
  </sodipodi:namedview>
  <metadata
     id="metadata1069">
    <rdf:RDF>
      <cc:Work
         rdf:about="">
        <dc:format>image/svg+xml</dc:format>
        <dc:type
           rdf:resource="http://purl.org/dc/dcmitype/StillImage" />
        <dc:title>Template-icon-for-Lila-HD-Icon-Theme,</dc:title>
        <dc:date>2015.14.10</dc:date>
        <dc:creator>
          <cc:Agent>
            <dc:title>Cristian Pozzessere &quot;ilnanny&quot;</dc:title>
          </cc:Agent>
        </dc:creator>
        <dc:subject>
          <rdf:Bag>
            <rdf:li>Global language</rdf:li>
          </rdf:Bag>
        </dc:subject>
        <dc:description>Templaate for new icon theme for gnu-linux and unix-like operations-systems.</dc:description>
        <dc:contributor>
          <cc:Agent>
            <dc:title />
          </cc:Agent>
        </dc:contributor>
        <cc:license
           rdf:resource="http://creativecommons.org/licenses/by-sa/4.0/" />
        <dc:source>LFS</dc:source>
        <dc:publisher>
          <cc:Agent>
            <dc:title>ilnanny</dc:title>
          </cc:Agent>
        </dc:publisher>
        <dc:rights>
          <cc:Agent>
            <dc:title>ilnanny</dc:title>
          </cc:Agent>
        </dc:rights>
        <dc:language>it_IT-UTF8 , en_US-UTF8</dc:language>
      </cc:Work>
      <cc:License
         rdf:about="http://creativecommons.org/licenses/by-sa/4.0/">
        <cc:permits
           rdf:resource="http://creativecommons.org/ns#Reproduction" />
        <cc:permits
           rdf:resource="http://creativecommons.org/ns#Distribution" />
        <cc:requires
           rdf:resource="http://creativecommons.org/ns#Notice" />
        <cc:requires
           rdf:resource="http://creativecommons.org/ns#Attribution" />
        <cc:permits
           rdf:resource="http://creativecommons.org/ns#DerivativeWorks" />
        <cc:requires
           rdf:resource="http://creativecommons.org/ns#ShareAlike" />
      </cc:License>
    </rdf:RDF>
  </metadata>
  <g
     transform="translate(0,-1026.5197)"
     id="layer1"
     inkscape:groupmode="layer"
     inkscape:label="Livello 1">
    <g
       transform="matrix(0.99583331,0,0,0.99583333,23.329033,7.7011794)"
       id="g5529">
      <g
         id="g1602"
         style="display:inline"
         transform="matrix(1.0041841,0,0,1.0041841,-23.576223,1022.6646)">
        <g
           transform="matrix(0.32291667,0,0,0.32291667,0.60085489,0.7810076)"
           id="g123">
          <path
             style="display:inline;opacity:0.15;fill:#000000;fill-opacity:1;fill-rule:nonzero;stroke:none"
             d="M 89.29181,0.415026 H 7.0060911 c -3.798848,0 -6.8571352,3.058285 -6.8571352,6.8571399 V 89.557884 c 0,3.798857 3.0582872,6.857142 6.8571352,6.857142 H 89.29181 c 3.798857,0 6.857147,-3.058285 6.857147,-6.857142 V 7.2721659 c 0,-3.7988549 -3.05829,-6.8571399 -6.857147,-6.8571399 z"
             id="path3288"
             inkscape:connector-curvature="0" />
          <path
             inkscape:connector-curvature="0"
             id="path4085"
             d="M 88.648954,1.165026 H 7.6489471 c -3.739492,0 -6.749993,3.010499 -6.749993,6.7499969 V 88.915026 c 0,3.739501 3.010501,6.75 6.749993,6.75 H 88.648954 c 3.739503,0 6.750003,-3.010499 6.750003,-6.75 V 7.9150229 c 0,-3.7394979 -3.0105,-6.7499969 -6.750003,-6.7499969 z"
             style="display:inline;opacity:0.15;fill:#000000;fill-opacity:1;fill-rule:nonzero;stroke:none" />
          <path
             style="display:inline;fill:url(#linearGradient4071);fill-opacity:1;fill-rule:nonzero;stroke:none"
             d="M 88.006093,1.915026 H 8.2918111 c -3.680143,0 -6.6428566,2.962713 -6.6428566,6.6428549 V 88.272171 c 0,3.680142 2.9627136,6.642856 6.6428566,6.642856 H 88.006093 c 3.680143,0 6.642854,-2.962714 6.642854,-6.642856 V 8.5578809 c 0,-3.6801419 -2.962711,-6.6428549 -6.642854,-6.6428549 z"
             id="rect4251-1"
             inkscape:connector-curvature="0" />
          <path
             style="display:inline;opacity:0.778646;fill:#f5f3f3;fill-opacity:1;fill-rule:nonzero;stroke:none;stroke-width:1.0295"
             d="m 11.390247,6.8021682 c -2.8564964,0 -5.1241284,2.2883782 -5.1241284,5.1710028 v 21.42734 7.239403 39.913674 c 1.0972399,1.684484 2.9688485,2.811732 5.1241284,2.811732 h 4.099303 65.588849 4.099302 c 2.155281,0 4.026889,-1.127248 5.124129,-2.811732 V 40.639914 33.400511 11.973171 c 0,-2.8826246 -2.267632,-5.1710028 -5.124129,-5.1710028 z"
             id="path3400-6"
             inkscape:connector-curvature="0"
             sodipodi:nodetypes="sscccsccscccsss" />
          <path
             inkscape:connector-curvature="0"
             id="path4989"
             d="m 9.9740341,5.1444869 c -3.116621,0 -5.667965,2.53951 -5.667965,5.6460041 v 69.277996 c 0,3.106495 2.551344,5.646004 5.667965,5.646004 H 86.765819 c 3.116621,0 5.667968,-2.539509 5.667968,-5.646004 V 10.790491 c 0,-3.1064931 -2.551347,-5.6460041 -5.667968,-5.6460041 z m 0,2.319439 H 86.765819 c 1.888099,0 3.352022,1.480095 3.352022,3.3265651 v 69.277996 c 0,1.846474 -1.463923,3.326564 -3.352022,3.326564 H 9.9740341 c -1.888099,0 -3.352022,-1.48009 -3.352022,-3.326564 V 10.790491 c 0,-1.8464701 1.463923,-3.3265651 3.352022,-3.3265651 z"
             style="color:#000000;font-style:normal;font-variant:normal;font-weight:normal;font-stretch:normal;font-size:medium;line-height:normal;font-family:Sans;-inkscape-font-specification:Sans;text-indent:0;text-align:start;text-decoration:none;text-decoration-line:none;letter-spacing:normal;word-spacing:normal;text-transform:none;writing-mode:lr-tb;direction:ltr;baseline-shift:baseline;text-anchor:start;display:inline;overflow:visible;visibility:visible;fill:#241f1f;fill-opacity:0.632653;stroke:none;stroke-width:2.3755;marker:none;enable-background:accumulate" />
          <path
             inkscape:connector-curvature="0"
             style="display:inline;opacity:0.658182;fill:url(#linearGradient4129);fill-opacity:1;fill-rule:nonzero;stroke:none"
             d="m 1.6489535,82.258776 v 6 c 0,3.680142 2.9761066,6.65625 6.6562496,6.65625 H 87.992703 c 3.680143,0 6.656254,-2.976108 6.656254,-6.65625 v -6 c 0,3.680142 -2.976111,6.65625 -6.656254,6.65625 H 8.3052031 c -3.680143,0 -6.6562496,-2.976108 -6.6562496,-6.65625 z"
             id="path4118" />
          <rect
             style="opacity:0.55;fill:url(#radialGradient7462);fill-opacity:1;stroke:none"
             id="rect4131"
             width="84.250008"
             height="4.25"
             x="5.5239539"
             y="80.665031"
             rx="0"
             ry="4.25" />
          <rect
             ry="4.25"
             rx="0"
             y="-90.233963"
             x="5.9750223"
             height="4.25"
             width="76.75"
             id="rect4141"
             style="opacity:0.669;fill:url(#radialGradient7464);fill-opacity:1;stroke:none"
             transform="rotate(90)" />
          <g
             transform="matrix(0.99583333,0,0,0.99583333,145.79558,-1020.6925)"
             id="g914">
            <g
               transform="rotate(-2.3446007,77.211004,4036.5506)"
               id="g5600">
              <path
                 style="color:#000000;font-style:normal;font-variant:normal;font-weight:normal;font-stretch:normal;font-size:medium;line-height:normal;font-family:sans-serif;font-variant-ligatures:normal;font-variant-position:normal;font-variant-caps:normal;font-variant-numeric:normal;font-variant-alternates:normal;font-feature-settings:normal;text-indent:0;text-align:start;text-decoration:none;text-decoration-line:none;text-decoration-style:solid;text-decoration-color:#000000;letter-spacing:normal;word-spacing:normal;text-transform:none;writing-mode:lr-tb;direction:ltr;text-orientation:mixed;dominant-baseline:auto;baseline-shift:baseline;text-anchor:start;white-space:normal;shape-padding:0;clip-rule:nonzero;display:inline;overflow:visible;visibility:visible;opacity:1;isolation:auto;mix-blend-mode:normal;color-interpolation:sRGB;color-interpolation-filters:linearRGB;solid-color:#000000;solid-opacity:1;vector-effect:none;fill:#000000;fill-opacity:0.233813;fill-rule:nonzero;stroke:none;stroke-width:2.31422;stroke-linecap:butt;stroke-linejoin:miter;stroke-miterlimit:4;stroke-dasharray:none;stroke-dashoffset:0;stroke-opacity:1;color-rendering:auto;image-rendering:auto;shape-rendering:auto;text-rendering:auto;enable-background:accumulate"
                 d="m 13.568486,1030.2768 c -16.9881605,0.8157 -30.122717,15.2745 -29.30458,32.2618 0.813021,16.9874 15.27146902,30.1221 32.25963,29.3065 16.988161,-0.8156 30.122717,-15.2744 29.304582,-32.2616 -0.813023,-16.9875 -15.27147,-30.1223 -32.259632,-29.3067 z m 0.11178,2.3109 c 15.738847,-0.7557 29.081804,11.3675 29.835026,27.1055 0.757962,15.7378 -11.362656,29.0835 -27.101503,29.8391 -15.73884721,0.7556 -29.083836,-11.3675 -29.837059,-27.1056 -0.757961,-15.7378 11.3646893,-29.0834 27.103536,-29.839 z"
                 id="path5553"
                 inkscape:connector-curvature="0" />
              <path
                 d="m 21.59188,1089.3231 c 0,0 12.358602,-5.7933 20.494838,1.597 l 4.415084,-4.7167 c -8.218768,-7.4654 -3.121195,-19.5078 -3.121195,-19.5078 -1.479304,5.1711 -1.951864,8.4579 -7.297593,14.3425 -5.378097,5.9203 -14.491134,8.285 -14.491134,8.285 z"
                 inkscape:connector-curvature="0"
                 id="path3310"
                 style="display:inline;fill:url(#radialGradient3409);fill-opacity:1;fill-rule:evenodd;stroke:#404141;stroke-width:1;stroke-linecap:butt;stroke-linejoin:miter;stroke-miterlimit:4;stroke-dasharray:none;stroke-opacity:1"
                 sodipodi:nodetypes="cccccc" />
              <rect
                 style="display:inline;fill:url(#linearGradient4378);fill-opacity:1;stroke:#000000;stroke-width:0.62316;stroke-linecap:butt;stroke-linejoin:miter;stroke-miterlimit:4;stroke-dasharray:none;stroke-opacity:1"
                 id="rect3361"
                 transform="matrix(0.67206331,-0.74049369,0.73991216,0.67270349,0,0)"
                 y="762.18188"
                 x="-779.255"
                 ry="0.63576436"
                 rx="0.63576436"
                 height="22.426895"
                 width="7.3007574" />
              <path
                 inkscape:connector-curvature="0"
                 d="m -13.42934,1057.3 a 28.5034,28.501886 7.4379124 1 0 56.527129,7.3796 28.5034,28.501886 7.4379124 1 0 -56.527129,-7.3796 z"
                 id="path2420"
                 style="display:inline;opacity:1;fill:#ffffff;fill-opacity:0.381295;stroke:#000000;stroke-width:2.224;stroke-linecap:butt;stroke-linejoin:miter;stroke-miterlimit:4;stroke-dasharray:none;stroke-opacity:0.615108" />
              <path
                 inkscape:connector-curvature="0"
                 id="path6727"
                 d="m 13.85934,1034.8683 c -14.45592983,0.6941 -25.632668,12.9977 -24.936481,27.4529 0.691833,14.4554 12.9951254,25.6322 27.451056,24.9382 14.455932,-0.6941 25.63267,-12.9977 24.936485,-27.4528 -0.691835,-14.4553 -12.995127,-25.6323 -27.45106,-24.9383 z m 0.09512,1.9665 c 13.392838,-0.6431 24.746913,9.6731 25.387861,23.0651 0.644982,13.392 -9.668955,24.7485 -23.061792,25.3913 -13.3928389,0.643 -24.7486432,-9.6729 -25.3895922,-23.0652 -0.6449805,-13.3919 9.67068559,-24.7482 23.0635232,-25.3912 z"
                 style="color:#000000;font-style:normal;font-variant:normal;font-weight:normal;font-stretch:normal;font-size:medium;line-height:normal;font-family:sans-serif;font-variant-ligatures:normal;font-variant-position:normal;font-variant-caps:normal;font-variant-numeric:normal;font-variant-alternates:normal;font-feature-settings:normal;text-indent:0;text-align:start;text-decoration:none;text-decoration-line:none;text-decoration-style:solid;text-decoration-color:#000000;letter-spacing:normal;word-spacing:normal;text-transform:none;writing-mode:lr-tb;direction:ltr;text-orientation:mixed;dominant-baseline:auto;baseline-shift:baseline;text-anchor:start;white-space:normal;shape-padding:0;clip-rule:nonzero;display:inline;overflow:visible;visibility:visible;opacity:1;isolation:auto;mix-blend-mode:normal;color-interpolation:sRGB;color-interpolation-filters:linearRGB;solid-color:#000000;solid-opacity:1;vector-effect:none;fill:#ffffff;fill-opacity:0.852518;fill-rule:nonzero;stroke:none;stroke-width:1.96927;stroke-linecap:butt;stroke-linejoin:miter;stroke-miterlimit:4;stroke-dasharray:none;stroke-dashoffset:0;stroke-opacity:1;filter:url(#filter6745);color-rendering:auto;image-rendering:auto;shape-rendering:auto;text-rendering:auto;enable-background:accumulate" />
            </g>
            <g
               transform="matrix(0.91882476,0,0,0.91882476,-139.66754,176.57747)"
               id="g6651">
              <g
                 transform="matrix(0.79099783,0,0,0.79099783,13.251109,119.45459)"
                 id="g4801">
                <rect
                   ry="2.3169293"
                   rx="2.1970792"
                   y="1059.0854"
                   x="14.744047"
                   height="27.998768"
                   width="27.998768"
                   id="rect4778"
                   style="opacity:1;fill:url(#radialGradient4817);fill-opacity:1;fill-rule:nonzero;stroke:none;stroke-width:0.734286;stroke-linecap:square;stroke-linejoin:bevel;stroke-miterlimit:4;stroke-dasharray:none;stroke-opacity:0.989556;paint-order:markers stroke fill" />
                <path
                   inkscape:connector-curvature="0"
                   style="opacity:1;fill:none;fill-opacity:0.997389;fill-rule:nonzero;stroke:#515151;stroke-width:1.8;stroke-linecap:square;stroke-linejoin:bevel;stroke-miterlimit:4;stroke-dasharray:none;stroke-opacity:0.989556;paint-order:markers stroke fill"
                   d="m 11.144531,112.75 c -0.403875,0 -0.728515,0.34362 -0.728515,0.76953 v 7.75195 c 0,0.42591 0.32464,0.76954 0.728515,0.76954 H 15.0625 v 25.19726 h -3.917969 c -0.403875,0 -0.728515,0.34167 -0.728515,0.76758 v 7.75391 c 0,0.4259 0.32464,0.76757 0.728515,0.76757 h 7.833985 c 0.403875,0 0.728515,-0.34167 0.728515,-0.76757 v -3.87696 h 25.195313 v 3.87696 c 0,0.4259 0.326593,0.76757 0.730468,0.76757 h 7.832032 c 0.403875,0 0.728515,-0.34167 0.728515,-0.76757 v -7.75391 c 0,-0.42591 -0.32464,-0.76758 -0.728515,-0.76758 h -3.916016 v -25.19726 h 3.916016 c 0.403875,0 0.728515,-0.34363 0.728515,-0.76954 v -7.75195 c 0,-0.42591 -0.32464,-0.76953 -0.728515,-0.76953 h -7.832032 c -0.403875,0 -0.730468,0.34362 -0.730468,0.76953 v 3.87695 H 19.707031 v -3.87695 c 0,-0.42591 -0.32464,-0.76953 -0.728515,-0.76953 z"
                   id="rect4768"
                   transform="matrix(1.0929006,0,0,1.0929006,-6.639628,926.01433)" />
              </g>
            </g>
          </g>
          <rect
             transform="matrix(1.0692451,0,0,1.0476829,4.4441802,38.894013)"
             style="opacity:0.507812;fill:url(#linearGradient4767);fill-opacity:1;stroke:none"
             id="rect4146"
             width="75.965775"
             height="69.024437"
             x="2"
             y="-30"
             rx="3.9569874"
             ry="3.9569881"
             clip-path="url(#clipPath4156-4-1)" />
        </g>
      </g>
    </g>
  </g>
</svg>
