<?xml version="1.0" encoding="UTF-8" standalone="no"?>
<svg
   xmlns:dc="http://purl.org/dc/elements/1.1/"
   xmlns:cc="http://creativecommons.org/ns#"
   xmlns:rdf="http://www.w3.org/1999/02/22-rdf-syntax-ns#"
   xmlns:svg="http://www.w3.org/2000/svg"
   xmlns="http://www.w3.org/2000/svg"
   xmlns:xlink="http://www.w3.org/1999/xlink"
   xmlns:sodipodi="http://sodipodi.sourceforge.net/DTD/sodipodi-0.dtd"
   xmlns:inkscape="http://www.inkscape.org/namespaces/inkscape"
   sodipodi:docname="emblem-artist.svg"
   inkscape:version="1.0beta2 (2b71d25d45, 2019-12-03)"
   version="1.1"
   id="svg5023"
   viewBox="0 0 32 32"
   height="32"
   width="32">
  <defs
     id="defs5025">
    <linearGradient
       id="linearGradient4133"
       inkscape:collect="always">
      <stop
         id="stop4135"
         offset="0"
         style="stop-color:#ffffff;stop-opacity:1;" />
      <stop
         id="stop4137"
         offset="1"
         style="stop-color:#ffffff;stop-opacity:0;" />
    </linearGradient>
    <linearGradient
       id="linearGradient5700">
      <stop
         style="stop-color:#ffffff;stop-opacity:0;"
         offset="0"
         id="stop5702" />
      <stop
         id="stop5704"
         offset="0.02897836"
         style="stop-color:#ffffff;stop-opacity:0.85135138;" />
      <stop
         style="stop-color:#ffffff;stop-opacity:0;"
         offset="0.05199923"
         id="stop5706" />
      <stop
         id="stop5712"
         offset="0.96583712"
         style="stop-color:#ffffff;stop-opacity:0;" />
      <stop
         id="stop5710"
         offset="0.9788844"
         style="stop-color:#ffffff;stop-opacity:0.85135138;" />
      <stop
         style="stop-color:#ffffff;stop-opacity:0;"
         offset="1"
         id="stop5708" />
    </linearGradient>
    <linearGradient
       id="linearGradient3888-8-4-8-4-6-9-0-8-7-9"
       inkscape:collect="always">
      <stop
         id="stop3890-4-7-9-5-7-0-8-8-8-6"
         offset="0"
         style="stop-color:#ffffff;stop-opacity:1;" />
      <stop
         id="stop3892-5-8-2-8-3-3-3-06-4-4"
         offset="1"
         style="stop-color:#ffffff;stop-opacity:0;" />
    </linearGradient>
    <linearGradient
       id="linearGradient3921">
      <stop
         id="stop3923"
         offset="0"
         style="stop-color:#2cffee;stop-opacity:1;" />
      <stop
         id="stop3925"
         offset="1"
         style="stop-color:#00586e;stop-opacity:1;" />
    </linearGradient>
    <linearGradient
       id="linearGradient3888-8-4-8-6"
       inkscape:collect="always">
      <stop
         id="stop3890-4-7-9-7"
         offset="0"
         style="stop-color:#ffffff;stop-opacity:1;" />
      <stop
         id="stop3892-5-8-2-7"
         offset="1"
         style="stop-color:#ffffff;stop-opacity:0;" />
    </linearGradient>
    <linearGradient
       id="linearGradient4091-0-3-0-7">
      <stop
         id="stop4093-3-6-4-2"
         offset="0"
         style="stop-color:#ffffff;stop-opacity:1;" />
      <stop
         style="stop-color:#ffffff;stop-opacity:1;"
         offset="0.80000001"
         id="stop4099-6-1-8-3" />
      <stop
         id="stop4095-1-0-7-9"
         offset="1"
         style="stop-color:#ffffff;stop-opacity:0;" />
    </linearGradient>
    <linearGradient
       id="linearGradient3832-0-6-1-1">
      <stop
         id="stop3834-6-3-7-1"
         offset="0"
         style="stop-color:#000000;stop-opacity:1;" />
      <stop
         style="stop-color:#000000;stop-opacity:0.58823532;"
         offset="0.1"
         id="stop3872-2-4" />
      <stop
         id="stop3844-6-2-7-6"
         offset="0.89999998"
         style="stop-color:#000000;stop-opacity:0.58823532;" />
      <stop
         id="stop3836-5-0-2-9"
         offset="1"
         style="stop-color:#000000;stop-opacity:1;" />
    </linearGradient>
    <linearGradient
       gradientUnits="userSpaceOnUse"
       y2="47.000011"
       x2="90"
       y1="47.000011"
       x1="6"
       id="linearGradient3923"
       xlink:href="#linearGradient6139-0"
       inkscape:collect="always" />
    <linearGradient
       id="linearGradient6139-0">
      <stop
         style="stop-color:#b7b7b7;stop-opacity:1;"
         offset="0"
         id="stop6141-2" />
      <stop
         id="stop6151-0"
         offset="0.25"
         style="stop-color:#ffffff;stop-opacity:1;" />
      <stop
         id="stop6147-1"
         offset="0.5"
         style="stop-color:#9d9d9d;stop-opacity:1;" />
      <stop
         style="stop-color:#fafafa;stop-opacity:1;"
         offset="0.75"
         id="stop6149-4" />
      <stop
         style="stop-color:#b7b7b7;stop-opacity:1;"
         offset="1"
         id="stop6143-4" />
    </linearGradient>
    <linearGradient
       y2="47.000011"
       x2="90"
       y1="47.000011"
       x1="6"
       gradientTransform="matrix(1.1353753,0,0,1.1336634,-40.037124,-46.787637)"
       gradientUnits="userSpaceOnUse"
       id="linearGradient4071"
       xlink:href="#linearGradient6139-0"
       inkscape:collect="always" />
    <radialGradient
       r="41"
       fy="6.2131939"
       fx="158"
       cy="6.2131939"
       cx="158"
       gradientTransform="matrix(0,1.6209438,-2.0382846,0,160.66427,-243.03657)"
       gradientUnits="userSpaceOnUse"
       id="radialGradient4073"
       xlink:href="#linearGradient3888-8-4-8-6"
       inkscape:collect="always" />
    <radialGradient
       r="42"
       fy="-27"
       fx="48"
       cy="-27"
       cx="48"
       gradientTransform="matrix(-1.0721726,0,0,-0.87502024,199.46429,-19.125546)"
       gradientUnits="userSpaceOnUse"
       id="radialGradient4075"
       xlink:href="#linearGradient4091-0-3-0-7"
       inkscape:collect="always" />
    <linearGradient
       y2="14.514202"
       x2="50.527882"
       y1="-28.64156"
       x1="2.7713892"
       gradientUnits="userSpaceOnUse"
       id="linearGradient4767"
       xlink:href="#linearGradient4213-7"
       inkscape:collect="always" />
    <linearGradient
       id="linearGradient4213-7"
       inkscape:collect="always">
      <stop
         id="stop4215-6"
         offset="0"
         style="stop-color:#ffffff;stop-opacity:1;" />
      <stop
         id="stop4217-5"
         offset="1"
         style="stop-color:#ffffff;stop-opacity:0;" />
    </linearGradient>
    <clipPath
       id="clipPath4156-4"
       clipPathUnits="userSpaceOnUse">
      <path
         inkscape:connector-curvature="0"
         id="path4158-0"
         d="m 27.046336,-55.695463 -14.21366,13.321486 0.06127,0 15.653407,21.770763 10.231384,-10.546177 C 38.561832,-32.30156 27.468089,-54.819245 27.046336,-55.695463 z M 9.6468554,-39.382809 -5.2407289,-25.32124 15.987863,-7.8059573 26.372412,-18.382966 9.6468554,-39.382809 z m 31.4906096,12.951445 -9.741259,9.713584 8.944804,12.4580526 7.780753,-7.5550056 -6.984298,-14.616631 z m -49.8397109,4.378822 -13.7541661,12.9822847 26.2830181,13.84571 0.06127,-0.0617 -0.122531,-0.0617 L 13.598503,-5.4007374 -8.7022409,-22.052595 z m 38.0154159,7.400825 -9.802525,9.7752596 11.579232,9.5594001 7.62759,-7.40083 -8.669108,-11.0087257 -0.735189,-0.925104 z m 20.187073,5.6739697 -7.382526,7.2158 6.187844,8.54179 5.820249,-6.13651996 -4.625567,-9.62107004 z m -32.195166,6.32154 -9.5574606,9.49772 13.6622686,7.1849703 7.933918,-7.6783603 -12.038726,-9.00433 z m 23.311629,2.37443004 -7.10683,6.93826996 8.362778,6.9074403 5.360756,-5.6739699 -0.06127,-0.0925 -0.0919,0.12335 -6.463539,-8.20258036 z m -8.730374,8.54178036 -7.505057,7.3391599 10.353916,5.45811 c 1.397496,-1.32103 5.67514,-6.12292 5.850882,-6.32154 L 31.886332,8.2600031 z"
         style="opacity:0.6;fill:#ffffff;fill-opacity:1;stroke:none" />
    </clipPath>
    <linearGradient
       y2="29.454437"
       x2="76.197693"
       y1="42.063522"
       x1="45.99942"
       gradientTransform="matrix(1.1376233,0,0,1.1422854,-40.393161,-45.01103)"
       gradientUnits="userSpaceOnUse"
       id="linearGradient4112"
       xlink:href="#linearGradient3888-8-4-8-4-6-9-0-8-7-9"
       inkscape:collect="always" />
    <linearGradient
       gradientUnits="userSpaceOnUse"
       y2="88.171875"
       x2="94.5"
       y1="88.171875"
       x1="1.5"
       id="linearGradient4129"
       xlink:href="#linearGradient3832-0-6-1-1"
       inkscape:collect="always" />
    <radialGradient
       gradientUnits="userSpaceOnUse"
       gradientTransform="matrix(1,0,0,0.05036905,0,39.43178)"
       r="43.199203"
       fy="44.892843"
       fx="13.948145"
       cy="44.892843"
       cx="13.948145"
       id="radialGradient4139"
       xlink:href="#linearGradient4133"
       inkscape:collect="always" />
    <radialGradient
       r="43.199203"
       fy="44.892843"
       fx="13.948145"
       cy="44.892843"
       cx="13.948145"
       gradientTransform="matrix(0.90960585,0,0,0.0504451,-11.184537,-58.258273)"
       gradientUnits="userSpaceOnUse"
       id="radialGradient4143"
       xlink:href="#linearGradient4133"
       inkscape:collect="always" />
    <clipPath
       id="clipPath4158"
       clipPathUnits="userSpaceOnUse">
      <path
         id="path4160"
         d="m 195.02981,258.16503 78.62227,0 c 2.56217,0 4.62484,2.01501 4.62484,4.51795 l 0,70.02816 c 0,2.50295 -2.06267,4.51795 -4.62484,4.51795 l -78.62227,0 c -2.56216,0 -4.62484,-2.015 -4.62484,-4.51795 l 0,-70.02816 c 0,-2.50294 2.06268,-4.51795 4.62484,-4.51795 z"
         style="color:#000000;fill:#000000;fill-opacity:1;fill-rule:nonzero;stroke:none;stroke-width:2;marker:none;visibility:visible;display:inline;overflow:visible;enable-background:accumulate"
         inkscape:connector-curvature="0"
         sodipodi:nodetypes="sssssssss" />
    </clipPath>
  </defs>
  <sodipodi:namedview
     inkscape:document-rotation="0"
     inkscape:snap-global="false"
     inkscape:guide-bbox="true"
     showguides="true"
     inkscape:window-maximized="1"
     inkscape:window-y="28"
     inkscape:window-x="1"
     inkscape:window-height="1016"
     inkscape:window-width="1919"
     inkscape:document-units="px"
     inkscape:grid-bbox="true"
     showgrid="true"
     inkscape:current-layer="g4324"
     inkscape:cy="63.348333"
     inkscape:cx="29.295771"
     inkscape:zoom="4.1432038"
     inkscape:pageshadow="2"
     inkscape:pageopacity="0.0"
     borderopacity="1.0"
     bordercolor="#666666"
     pagecolor="#ffffff"
     id="base">
    <sodipodi:guide
       id="guide4116"
       position="74,7.75"
       orientation="0,1" />
  </sodipodi:namedview>
  <metadata
     id="metadata5028">
    <rdf:RDF>
      <cc:Work
         rdf:about="">
        <dc:format>image/svg+xml</dc:format>
        <dc:type
           rdf:resource="http://purl.org/dc/dcmitype/StillImage" />
        <dc:title />
      </cc:Work>
    </rdf:RDF>
  </metadata>
  <g
     transform="translate(0,80)"
     inkscape:groupmode="layer"
     inkscape:label="Layer 1"
     id="layer1">
    <g
       transform="matrix(1.0034441,0,0,1.0049592,33.489303,-38.526762)"
       id="g5148">
      <g
         transform="matrix(0.88387919,0,0,0.83393165,-3.5257642,5.0081212)"
         id="g5766" />
      <g
         transform="matrix(0.9061837,0,0,0.92379606,-27.685003,-5.6506661)"
         id="g4324"
         style="opacity:0.7">
        <g
           transform="translate(0.54986891,0.53857437)"
           id="g7584">
          <path
             transform="matrix(1.103529,0,0,1.08249,30.551204,6.1167896)"
             style="display:inline;opacity:0.15;fill:#000000;fill-opacity:1;fill-rule:nonzero;stroke:none;stroke-width:0.322917"
             d="M -4.6874433,-41.268579 H -31.167674 c -1.222501,0 -2.206683,0.982698 -2.206683,2.203358 v 26.440307 c 0,1.220661 0.984182,2.203358 2.206683,2.203358 h 26.4802307 c 1.2225041,0 2.2066857,-0.982697 2.2066857,-2.203358 v -26.440307 c 0,-1.22066 -0.9841816,-2.203358 -2.2066857,-2.203358 z"
             id="path3288"
             inkscape:connector-curvature="0" />
          <path
             transform="matrix(1.103529,0,0,1.08249,30.551204,6.1167896)"
             inkscape:connector-curvature="0"
             id="path4085"
             d="M -4.8943196,-41.027587 H -30.960797 c -1.2034,0 -2.172204,0.967343 -2.172204,2.168931 v 26.027177 c 0,1.201588 0.968804,2.168931 2.172204,2.168931 h 26.0664774 c 1.2034023,0 2.1722063,-0.967343 2.1722063,-2.168931 v -26.027177 c 0,-1.201588 -0.968804,-2.168931 -2.1722063,-2.168931 z"
             style="display:inline;opacity:0.15;fill:#000000;fill-opacity:1;fill-rule:nonzero;stroke:none;stroke-width:0.322917" />
          <g
             id="g4060"
             transform="matrix(0.34629422,0,0,0.33969203,5.7599009,-24.066385)">
            <path
               style="display:inline;fill:url(#linearGradient4071);fill-opacity:1;fill-rule:nonzero;stroke:none"
               d="M 55.334401,-41.11932 H -26.41262 c -3.773988,0 -6.812252,3.033683 -6.812252,6.80198 v 81.623788 c 0,3.768297 3.038264,6.80198 6.812252,6.80198 h 81.747021 c 3.773988,0 6.812252,-3.033683 6.812252,-6.80198 V -34.31734 c 0,-3.768297 -3.038264,-6.80198 -6.812252,-6.80198 z"
               id="rect4251-1"
               inkscape:connector-curvature="0" />
            <g
               transform="matrix(1.005783,0,0,1.0145768,-221.35901,-299.26709)"
               id="g3326"
               clip-path="url(#clipPath4158)">
              <path
                 style="fill:#00df16;fill-opacity:1;stroke:none"
                 id="path3675"
                 inkscape:connector-curvature="0"
                 d="m 234.50705,301.69706 c -11.12023,19.26082 -10.36163,42.12017 0,60.09108 10.94388,0 21.20767,-2.96304 30.04554,-8.07475 -17.959,-10.39061 -30.04554,-29.77584 -30.04554,-52.01633 z" />
              <path
                 style="fill:#04abcf;fill-opacity:1;stroke:none"
                 id="path3677"
                 inkscape:connector-curvature="0"
                 d="m 234.4848,301.78012 c -19.26082,11.12023 -30.03352,31.29631 -30.04554,52.04039 9.47769,5.47194 19.8479,8.03778 30.05757,8.02985 -10.35764,-17.97804 -11.13227,-40.80942 -0.012,-60.07024 z" />
              <path
                 style="fill:#1a36d8;fill-opacity:1;stroke:none"
                 id="path3679"
                 inkscape:connector-curvature="0"
                 d="m 234.424,301.84092 c -22.24048,0 -41.65795,12.08663 -52.0404,30.04553 5.47194,9.47769 13.1699,16.88486 22.0157,21.98283 0.0189,-20.74825 10.76387,-40.90812 30.02471,-52.02836 z" />
              <path
                 style="fill:#370099;fill-opacity:1;stroke:none"
                 id="path3681"
                 inkscape:connector-curvature="0"
                 d="m 234.34094,301.86317 c -19.26081,-11.12023 -42.12015,-10.36164 -60.09107,0 0,10.94389 2.96304,21.20767 8.07473,30.04554 10.39058,-17.95903 29.77586,-30.04555 52.01635,-30.04554 z" />
              <path
                 style="fill:#650199;fill-opacity:1;stroke:none"
                 id="path3683"
                 inkscape:connector-curvature="0"
                 d="m 234.25788,301.84092 c -11.12024,-19.26081 -31.29629,-30.03353 -52.04039,-30.04553 -5.47194,9.47768 -8.03776,19.84788 -8.02984,30.05756 17.97802,-10.35769 40.80942,-11.13228 60.07024,-0.012 z" />
              <path
                 style="fill:#9c009b;fill-opacity:1;stroke:none"
                 id="path3685"
                 inkscape:connector-curvature="0"
                 d="m 234.19708,301.78012 c 0,-22.24047 -12.08662,-41.65795 -30.04553,-52.0404 -9.47769,5.47195 -16.88485,13.1699 -21.98283,22.01569 20.74826,0.019 40.90813,10.76388 52.02836,30.02472 z" />
              <path
                 style="fill:#d10737;fill-opacity:1;stroke:none"
                 id="path3687"
                 inkscape:connector-curvature="0"
                 d="m 234.17482,301.69706 c 11.12024,-19.26082 10.36166,-42.12016 10e-6,-60.09108 -10.94389,1e-5 -21.20766,2.96306 -30.04553,8.07474 17.95903,10.39057 30.04554,29.77585 30.04552,52.01635 z" />
              <path
                 style="fill:#fd0005;fill-opacity:1;stroke:none"
                 id="path3689"
                 inkscape:connector-curvature="0"
                 d="m 234.19708,301.61401 c 19.26082,-11.12026 30.03354,-31.29631 30.04554,-52.04041 -9.47769,-5.47193 -19.84789,-8.03775 -30.05756,-8.02984 10.35769,17.97803 11.13228,40.80943 0.012,60.07026 z" />
              <path
                 style="fill:#ff6500;fill-opacity:1;stroke:none"
                 id="path3691"
                 inkscape:connector-curvature="0"
                 d="m 234.25788,301.5532 c 22.24049,-1e-5 41.65796,-12.08663 52.04042,-30.04554 -5.47197,-9.47767 -13.16992,-16.88483 -22.0157,-21.98283 -0.019,20.74828 -10.76387,40.90814 -30.02472,52.02837 z" />
              <path
                 style="fill:#fdad00;fill-opacity:1;stroke:none"
                 id="path3693"
                 inkscape:connector-curvature="0"
                 d="m 234.34094,301.53095 c 19.26083,11.12024 42.12017,10.36164 60.0911,0 -3e-5,-10.94389 -2.96308,-21.20766 -8.07475,-30.04554 -10.39058,17.95905 -29.77585,30.04555 -52.01635,30.04554 z" />
              <path
                 style="fill:#fffd01;fill-opacity:1;stroke:none"
                 id="path3695"
                 inkscape:connector-curvature="0"
                 d="m 234.424,301.55319 c 11.12024,19.26084 31.29631,30.03354 52.04041,30.04555 5.47192,-9.47769 8.03774,-19.84789 8.02984,-30.05756 -17.97804,10.3577 -40.80942,11.13227 -60.07025,0.012 z" />
              <path
                 style="fill:#b6fd00;fill-opacity:1;stroke:none"
                 id="path3697"
                 inkscape:connector-curvature="0"
                 d="m 234.48481,301.614 c 0,22.24049 12.08663,41.65796 30.04554,52.04041 9.47766,-5.47195 16.88483,-13.16991 21.98283,-22.01569 -20.74829,-0.0189 -40.90814,-10.76388 -52.02837,-30.02472 z" />
            </g>
            <g
               id="g3272"
               transform="matrix(1.1353753,0,0,1.1336634,-153.57465,-46.220805)">
              <path
                 sodipodi:nodetypes="sscccsccscccsss"
                 inkscape:connector-curvature="0"
                 id="path3400-6"
                 d="m 112,5.5 c -2.7873,0 -5,2.2127028 -5,5 v 20.71875 7 38.59375 c 1.07066,1.628779 2.89693,2.71875 5,2.71875 h 4 64 4 c 2.10307,0 3.92934,-1.089971 5,-2.71875 v -38.59375 -7 V 10.5 c 0,-2.7872972 -2.2127,-5 -5,-5 z"
                 style="display:inline;opacity:0.2;fill:url(#radialGradient4073);fill-opacity:1;fill-rule:nonzero;stroke:none" />
              <path
                 inkscape:connector-curvature="0"
                 id="path4236-5"
                 d="m 112,4.5 c -3.324,0 -6,2.6759996 -6,6 v 15 h 1 v -15 c 0,-2.7872972 2.2127,-5 5,-5 h 72 c 2.7873,0 5,2.2127028 5,5 v 15 h 1 v -15 c 0,-3.3240004 -2.676,-6 -6,-6 z"
                 style="display:inline;opacity:0.45;fill:url(#radialGradient4075);fill-opacity:1;fill-rule:nonzero;stroke:none" />
            </g>
            <path
               inkscape:connector-curvature="0"
               id="path4989"
               d="m -24.6875,-37.8125 c -3.196096,0 -5.8125,2.600343 -5.8125,5.78125 v 70.9375 c 0,3.180909 2.616404,5.78125 5.8125,5.78125 h 78.75 c 3.196096,0 5.8125,-2.600341 5.8125,-5.78125 v -70.9375 c 0,-3.180907 -2.616404,-5.78125 -5.8125,-5.78125 z m 0,2.375 h 78.75 c 1.936246,0 3.4375,1.515549 3.4375,3.40625 v 70.9375 c 0,1.890705 -1.501254,3.40625 -3.4375,3.40625 h -78.75 c -1.936246,0 -3.4375,-1.515545 -3.4375,-3.40625 v -70.9375 c 0,-1.890701 1.501254,-3.40625 3.4375,-3.40625 z"
               style="color:#000000;font-style:normal;font-variant:normal;font-weight:normal;font-stretch:normal;font-size:medium;line-height:normal;font-family:Sans;-inkscape-font-specification:Sans;text-indent:0;text-align:start;text-decoration:none;text-decoration-line:none;letter-spacing:normal;word-spacing:normal;text-transform:none;writing-mode:lr-tb;direction:ltr;baseline-shift:baseline;text-anchor:start;display:inline;overflow:visible;visibility:visible;fill:#000000;fill-opacity:0.871486;stroke:none;stroke-width:2.3755;marker:none;enable-background:accumulate" />
            <path
               style="display:inline;opacity:0.65;fill:url(#linearGradient4129);fill-opacity:1;fill-rule:nonzero;stroke:none"
               d="m 1.5,81.84375 v 6 C 1.5,91.523892 4.4761068,94.5 8.15625,94.5 h 79.6875 C 91.523893,94.5 94.5,91.523892 94.5,87.84375 v -6 C 94.5,85.523892 91.523893,88.5 87.84375,88.5 H 8.15625 C 4.4761068,88.5 1.5,85.523892 1.5,81.84375 Z"
               transform="matrix(1.0255003,0,0,1.0239543,-34.763123,-42.655251)"
               id="path4118"
               inkscape:connector-curvature="0" />
            <rect
               style="opacity:0.55;fill:url(#radialGradient4139);fill-opacity:1;stroke:none"
               id="rect4131"
               width="86.398407"
               height="4.3518057"
               x="-29.251059"
               y="39.517078"
               rx="0"
               ry="4.3518057" />
            <rect
               ry="4.3583765"
               rx="0"
               y="-58.172848"
               x="-37.79147"
               height="4.3583765"
               width="78.588493"
               id="rect4141"
               style="opacity:0.55;fill:url(#radialGradient4143);fill-opacity:1;stroke:none"
               transform="rotate(90)" />
          </g>
          <rect
             transform="matrix(0.32291668,0,0,0.32291667,-4.7353124,-26.557732)"
             style="opacity:0.938144;fill:url(#linearGradient4767);fill-opacity:1;stroke:none"
             id="rect4146"
             width="92"
             height="92"
             x="2"
             y="-30"
             rx="3.9569874"
             ry="3.9569881"
             clip-path="url(#clipPath4156-4)" />
          <path
             sodipodi:nodetypes="ssccscss"
             style="opacity:0.152727;fill:#ffffff;fill-opacity:1;stroke:none;stroke-width:0.322917"
             d="m -2.8079034,-36.245232 c -0.7078886,0 -1.2800445,0.573689 -1.2815756,1.281576 l -0.052635,24.334515 c 0.6795976,0.8768964 0.5913834,0.8385368 1.7228933,0.9318572 0.6407216,-5.1691072 12.9617077,-25.5085602 27.4931537,-25.5085602 0.173329,0 0.342082,0.0069 0.514649,0.01009 -0.107553,-0.597581 -0.621824,-1.049479 -1.251302,-1.049479 z"
             id="rect4190"
             inkscape:connector-curvature="0" />
        </g>
      </g>
    </g>
  </g>
</svg>
