<?xml version="1.0" encoding="UTF-8" standalone="no"?>
<!-- Created with Inkscape (http://www.inkscape.org/) -->

<svg
   xmlns:dc="http://purl.org/dc/elements/1.1/"
   xmlns:cc="http://creativecommons.org/ns#"
   xmlns:rdf="http://www.w3.org/1999/02/22-rdf-syntax-ns#"
   xmlns:svg="http://www.w3.org/2000/svg"
   xmlns="http://www.w3.org/2000/svg"
   xmlns:xlink="http://www.w3.org/1999/xlink"
   xmlns:sodipodi="http://sodipodi.sourceforge.net/DTD/sodipodi-0.dtd"
   xmlns:inkscape="http://www.inkscape.org/namespaces/inkscape"
   width="96"
   height="96"
   viewBox="0 0 96.000001 96.000004"
   version="1.1"
   id="svg1072"
   inkscape:version="0.92.2 2405546, 2018-03-11"
   sodipodi:docname="emblem-syncing.svg">
  <defs
     id="defs1066">
    <linearGradient
       y2="47.000011"
       x2="90"
       y1="47.000011"
       x1="6"
       gradientTransform="matrix(1.1071428,0,0,1.1071426,-4.9939026,-3.620687)"
       gradientUnits="userSpaceOnUse"
       id="linearGradient4071"
       xlink:href="#linearGradient6139-0"
       inkscape:collect="always" />
    <linearGradient
       id="linearGradient6139-0">
      <stop
         style="stop-color:#b4b9ba;stop-opacity:1"
         offset="0"
         id="stop6141-2" />
      <stop
         id="stop6151-0"
         offset="0.25"
         style="stop-color:#ffffff;stop-opacity:1;" />
      <stop
         id="stop6147-1"
         offset="0.5"
         style="stop-color:#98a0a2;stop-opacity:1" />
      <stop
         style="stop-color:#fbf9f9;stop-opacity:1;"
         offset="0.75"
         id="stop6149-4" />
      <stop
         style="stop-color:#b4b8ba;stop-opacity:1"
         offset="1"
         id="stop6143-4" />
    </linearGradient>
    <linearGradient
       gradientUnits="userSpaceOnUse"
       y2="88.171875"
       x2="94.5"
       y1="88.171875"
       x1="1.5"
       id="linearGradient4129"
       xlink:href="#linearGradient3832-0-6-1-1"
       inkscape:collect="always"
       gradientTransform="translate(0.1489535,0.415026)" />
    <linearGradient
       id="linearGradient3832-0-6-1-1">
      <stop
         id="stop3834-6-3-7-1"
         offset="0"
         style="stop-color:#000000;stop-opacity:1;" />
      <stop
         style="stop-color:#000000;stop-opacity:0.58823532;"
         offset="0.1"
         id="stop3872-2-4" />
      <stop
         id="stop3844-6-2-7-6"
         offset="0.89999998"
         style="stop-color:#000000;stop-opacity:0.58823532;" />
      <stop
         id="stop3836-5-0-2-9"
         offset="1"
         style="stop-color:#000000;stop-opacity:1;" />
    </linearGradient>
    <radialGradient
       r="43.199203"
       fy="44.892841"
       fx="13.948145"
       cy="44.892841"
       cx="13.948145"
       gradientTransform="matrix(0.97513378,0,0,0.04919072,34.047649,80.581722)"
       gradientUnits="userSpaceOnUse"
       id="radialGradient7462"
       xlink:href="#linearGradient3737"
       inkscape:collect="always" />
    <linearGradient
       id="linearGradient3737">
      <stop
         id="stop3739"
         style="stop-color:#ffffff;stop-opacity:1"
         offset="0" />
      <stop
         id="stop3741"
         style="stop-color:#ffffff;stop-opacity:0"
         offset="1" />
    </linearGradient>
    <radialGradient
       r="43.199203"
       fy="44.892841"
       fx="13.948145"
       cy="44.892841"
       cx="13.948145"
       gradientTransform="matrix(0.88832663,0,0,0.04919072,31.959518,-90.31726)"
       gradientUnits="userSpaceOnUse"
       id="radialGradient7464"
       xlink:href="#linearGradient3737"
       inkscape:collect="always" />
    <linearGradient
       y2="14.514202"
       x2="50.527882"
       y1="-28.64156"
       x1="2.7713892"
       gradientUnits="userSpaceOnUse"
       id="linearGradient4767"
       xlink:href="#linearGradient3737"
       inkscape:collect="always" />
    <clipPath
       clipPathUnits="userSpaceOnUse"
       id="clipPath4156-4-1">
      <path
         style="opacity:0.6;fill:#ffffff;fill-opacity:1;stroke:none"
         d="m 27.046336,-55.695463 -14.21366,13.321486 h 0.06127 l 15.653407,21.770763 10.231384,-10.546177 C 38.561832,-32.30156 27.468089,-54.819245 27.046336,-55.695463 Z M 9.6468554,-39.382809 -5.2407289,-25.32124 15.987863,-7.8059573 26.372412,-18.382966 Z m 31.4906096,12.951445 -9.741259,9.713584 8.944804,12.4580526 7.780753,-7.5550056 z m -49.8397109,4.378822 -13.7541661,12.9822847 26.2830181,13.84571 0.06127,-0.0617 -0.122531,-0.0617 L 13.598503,-5.4007374 -8.7022409,-22.052595 Z m 38.0154159,7.400825 -9.802525,9.7752596 11.579232,9.5594001 7.62759,-7.40083 -8.669108,-11.0087257 z m 20.187073,5.6739697 -7.382526,7.2158 6.187844,8.54179 5.820249,-6.13651996 z m -32.195166,6.32154 -9.5574606,9.49772 13.6622686,7.1849703 7.933918,-7.6783603 z m 23.311629,2.37443004 -7.10683,6.93826996 8.362778,6.9074403 5.360756,-5.6739699 -0.06127,-0.0925 -0.0919,0.12335 -6.463539,-8.20258036 z m -8.730374,8.54178036 -7.505057,7.3391599 10.353916,5.45811 c 1.397496,-1.32103 5.67514,-6.12292 5.850882,-6.32154 z"
         id="path4158-0-8"
         inkscape:connector-curvature="0" />
    </clipPath>
    <linearGradient
       x1="40"
       y1="32"
       x2="40"
       y2="80"
       id="linearGradient4081-0-1-1"
       xlink:href="#linearGradient4012-0-6-3"
       gradientUnits="userSpaceOnUse"
       gradientTransform="translate(0,-90)" />
    <linearGradient
       id="linearGradient4012-0-6-3">
      <stop
         id="stop4014-0-8-1"
         style="stop-color:#f5f5f5;stop-opacity:1"
         offset="0" />
      <stop
         id="stop4016-0-0-4"
         style="stop-color:#d7d7d7;stop-opacity:1"
         offset="1" />
    </linearGradient>
  </defs>
  <sodipodi:namedview
     id="base"
     pagecolor="#ffffff"
     bordercolor="#666666"
     borderopacity="1.0"
     inkscape:pageopacity="0.0"
     inkscape:pageshadow="2"
     inkscape:zoom="1.5693104"
     inkscape:cx="-48.263979"
     inkscape:cy="61.693518"
     inkscape:document-units="px"
     inkscape:current-layer="g2574"
     showgrid="false"
     inkscape:showpageshadow="false"
     units="px"
     inkscape:lockguides="false"
     inkscape:window-width="1920"
     inkscape:window-height="1023"
     inkscape:window-x="0"
     inkscape:window-y="28"
     inkscape:window-maximized="1"
     showguides="true"
     inkscape:guide-bbox="true"
     inkscape:snap-global="false">
    <sodipodi:guide
       position="50.240162,50.690748"
       orientation="0.70710678,0.70710678"
       id="guide871"
       inkscape:locked="false" />
    <sodipodi:guide
       position="50.240161,50.690749"
       orientation="0,1"
       id="guide875"
       inkscape:locked="false" />
  </sodipodi:namedview>
  <metadata
     id="metadata1069">
    <rdf:RDF>
      <cc:Work
         rdf:about="">
        <dc:format>image/svg+xml</dc:format>
        <dc:type
           rdf:resource="http://purl.org/dc/dcmitype/StillImage" />
        <dc:title />
        <dc:date>2017</dc:date>
        <dc:creator>
          <cc:Agent>
            <dc:title>Cristian Pozzessere &quot;ilnanny&quot;</dc:title>
          </cc:Agent>
        </dc:creator>
        <dc:subject>
          <rdf:Bag>
            <rdf:li>Global language</rdf:li>
          </rdf:Bag>
        </dc:subject>
        <dc:description>Playing with Inkscape on Gnu/Linux O. S.</dc:description>
        <dc:contributor>
          <cc:Agent>
            <dc:title>In the night, alone like a dog.</dc:title>
          </cc:Agent>
        </dc:contributor>
        <cc:license
           rdf:resource="http://creativecommons.org/licenses/by-sa/4.0/" />
      </cc:Work>
      <cc:License
         rdf:about="http://creativecommons.org/licenses/by-sa/4.0/">
        <cc:permits
           rdf:resource="http://creativecommons.org/ns#Reproduction" />
        <cc:permits
           rdf:resource="http://creativecommons.org/ns#Distribution" />
        <cc:requires
           rdf:resource="http://creativecommons.org/ns#Notice" />
        <cc:requires
           rdf:resource="http://creativecommons.org/ns#Attribution" />
        <cc:permits
           rdf:resource="http://creativecommons.org/ns#DerivativeWorks" />
        <cc:requires
           rdf:resource="http://creativecommons.org/ns#ShareAlike" />
      </cc:License>
    </rdf:RDF>
  </metadata>
  <g
     inkscape:label="Livello 1"
     inkscape:groupmode="layer"
     id="layer1"
     transform="translate(0,-1026.5197)">
    <g
       transform="translate(-0.14895645,1026.1047)"
       style="display:inline"
       id="g2574">
      <path
         inkscape:connector-curvature="0"
         id="path3288"
         d="M 89.29181,0.415026 H 7.0060911 c -3.798848,0 -6.8571352,3.058285 -6.8571352,6.8571399 V 89.557884 c 0,3.798857 3.0582872,6.857142 6.8571352,6.857142 H 89.29181 c 3.798857,0 6.857147,-3.058285 6.857147,-6.857142 V 7.2721659 c 0,-3.7988549 -3.05829,-6.8571399 -6.857147,-6.8571399 z"
         style="display:inline;opacity:0.15;fill:#000000;fill-opacity:1;fill-rule:nonzero;stroke:none" />
      <path
         style="display:inline;opacity:0.15;fill:#000000;fill-opacity:1;fill-rule:nonzero;stroke:none"
         d="M 88.648954,1.165026 H 7.6489471 c -3.739492,0 -6.749993,3.010499 -6.749993,6.7499969 V 88.915026 c 0,3.739501 3.010501,6.75 6.749993,6.75 H 88.648954 c 3.739503,0 6.750003,-3.010499 6.750003,-6.75 V 7.9150229 c 0,-3.7394979 -3.0105,-6.7499969 -6.750003,-6.7499969 z"
         id="path4085"
         inkscape:connector-curvature="0" />
      <path
         inkscape:connector-curvature="0"
         id="rect4251-1"
         d="M 88.006093,1.915026 H 8.2918111 c -3.680143,0 -6.6428566,2.962713 -6.6428566,6.6428549 V 88.272171 c 0,3.680142 2.9627136,6.642856 6.6428566,6.642856 H 88.006093 c 3.680143,0 6.642854,-2.962714 6.642854,-6.642856 V 8.5578809 c 0,-3.6801419 -2.962711,-6.6428549 -6.642854,-6.6428549 z"
         style="display:inline;fill:url(#linearGradient4071);fill-opacity:1;fill-rule:nonzero;stroke:none" />
      <g
         id="g904"
         transform="translate(15.319261,-118.053)">
        <path
           inkscape:connector-curvature="0"
           id="path890"
           d="m 0.5703125,162.30469 -0.0488281,1.42187 c -0.004056,0.11797 -0.006998,0.23551 -0.009766,0.35352 v 0.0176 0.0176 c -5.6256e-4,18.14722 14.9469086,32.86807 33.3203126,32.86719 8.633732,-0.006 16.836609,-3.41051 23.027344,-9.29883 l 5.357422,5.29883 2.693359,-22.68945 -22.658203,2.93945 5.337891,5.2832 c -3.723441,3.4584 -8.600523,5.48746 -13.759766,5.49805 -11.182773,5.2e-4 -20.194888,-8.89406 -20.203125,-19.88281 0.0045,-0.0859 0.01,-0.17197 0.01563,-0.25781 l 0.101563,-1.56836 z m 3,2.94336 h 7.2265625 c 0.612,12.07314 10.670842,21.70955 23.035156,21.70898 h 0.002 c 5.940378,-0.0116 11.564557,-2.35935 15.84375,-6.37695 l 0.05664,0.0566 5.035156,4.97851 c -5.634326,5.32738 -13.087064,8.41806 -20.939453,8.42383 C 17.419806,194.03985 4.1865463,181.2436 3.5703125,165.24805 Z m 57.9707035,8.44922 -1.53711,12.95312 -1.019531,-1.00781 L 59,185.625 l -9.175781,-9.17578 -0.06836,0.0664 -0.05078,-0.0508 -1.099609,-1.08789 z"
           style="color:#000000;font-style:normal;font-variant:normal;font-weight:normal;font-stretch:normal;font-size:medium;line-height:normal;font-family:sans-serif;font-variant-ligatures:normal;font-variant-position:normal;font-variant-caps:normal;font-variant-numeric:normal;font-variant-alternates:normal;font-feature-settings:normal;text-indent:0;text-align:start;text-decoration:none;text-decoration-line:none;text-decoration-style:solid;text-decoration-color:#000000;letter-spacing:normal;word-spacing:normal;text-transform:none;writing-mode:lr-tb;direction:ltr;text-orientation:mixed;dominant-baseline:auto;baseline-shift:baseline;text-anchor:start;white-space:normal;shape-padding:0;clip-rule:nonzero;display:inline;overflow:visible;visibility:visible;opacity:1;isolation:auto;mix-blend-mode:normal;color-interpolation:sRGB;color-interpolation-filters:linearRGB;solid-color:#000000;solid-opacity:1;vector-effect:none;fill:#020202;fill-opacity:0.99551571;fill-rule:nonzero;stroke:none;stroke-width:2.94395447;stroke-linecap:butt;stroke-linejoin:miter;stroke-miterlimit:4;stroke-dasharray:none;stroke-dashoffset:0;stroke-opacity:1;color-rendering:auto;image-rendering:auto;shape-rendering:auto;text-rendering:auto;enable-background:accumulate" />
        <path
           inkscape:connector-curvature="0"
           id="path892"
           d="m 34.873047,129.30664 c -8.633323,0.006 -16.834751,3.41299 -23.025391,9.30078 l -5.3593748,-5.30078 -2.6933593,22.68945 22.6582031,-2.9375 -5.339844,-5.2832 c 3.723676,-3.45957 8.60154,-5.48941 13.761719,-5.5 11.183446,-5.2e-4 20.195973,8.8951 20.203125,19.88477 -0.0045,0.0853 -0.0081,0.17067 -0.01367,0.25586 l -0.103515,1.56836 h 13.173828 l 0.04883,-1.42188 c 0.0041,-0.11797 0.007,-0.23551 0.0098,-0.35352 l 0.002,-0.0176 v -0.0176 C 68.195875,144.02661 53.248405,129.30576 34.875,129.30664 Z m 0.002,2.94336 c 16.410272,-7.9e-4 29.643532,12.79546 30.259766,28.79102 h -7.22661 C 57.295373,148.96864 47.238758,139.33146 34.875,139.33203 h -0.002 -0.002 c -5.940856,0.0116 -11.564439,2.3607 -15.84375,6.37891 l -0.05664,-0.0566 -5.035156,-4.98047 c 5.63451,-5.3279 13.086771,-8.4181 20.939546,-8.42387 z m -26.1738281,7.38672 0.9980469,0.98633 0.023437,0.0234 -0.017578,0.0176 9.1777342,9.17578 0.06836,-0.0664 0.05078,0.0508 1.099609,1.08789 -12.9374998,1.67969 z"
           style="color:#000000;font-style:normal;font-variant:normal;font-weight:normal;font-stretch:normal;font-size:medium;line-height:normal;font-family:sans-serif;font-variant-ligatures:normal;font-variant-position:normal;font-variant-caps:normal;font-variant-numeric:normal;font-variant-alternates:normal;font-feature-settings:normal;text-indent:0;text-align:start;text-decoration:none;text-decoration-line:none;text-decoration-style:solid;text-decoration-color:#000000;letter-spacing:normal;word-spacing:normal;text-transform:none;writing-mode:lr-tb;direction:ltr;text-orientation:mixed;dominant-baseline:auto;baseline-shift:baseline;text-anchor:start;white-space:normal;shape-padding:0;clip-rule:nonzero;display:inline;overflow:visible;visibility:visible;opacity:1;isolation:auto;mix-blend-mode:normal;color-interpolation:sRGB;color-interpolation-filters:linearRGB;solid-color:#000000;solid-opacity:1;vector-effect:none;fill:#020202;fill-opacity:0.99551571;fill-rule:nonzero;stroke:none;stroke-width:2.94395447;stroke-linecap:butt;stroke-linejoin:miter;stroke-miterlimit:4;stroke-dasharray:none;stroke-dashoffset:0;stroke-opacity:1;color-rendering:auto;image-rendering:auto;shape-rendering:auto;text-rendering:auto;enable-background:accumulate" />
      </g>
      <path
         sodipodi:nodetypes="sscccsccscccsss"
         inkscape:connector-curvature="0"
         id="path3400-6"
         d="m 11.390247,6.8021682 c -2.8564964,0 -5.1241284,2.3146876 -5.1241284,5.2304538 v 21.67369 7.322634 40.372561 c 1.0972399,1.70385 2.9688485,2.844058 5.1241284,2.844058 h 4.099303 65.588849 4.099302 c 2.155281,0 4.026889,-1.140208 5.124129,-2.844058 V 41.028946 33.706312 12.032622 c 0,-2.9157662 -2.267632,-5.2304538 -5.124129,-5.2304538 z"
         style="display:inline;opacity:0.77864583;fill:#00df97;fill-opacity:1;fill-rule:nonzero;stroke:none;stroke-width:1.03540373" />
      <path
         style="color:#000000;font-style:normal;font-variant:normal;font-weight:normal;font-stretch:normal;font-size:medium;line-height:normal;font-family:Sans;-inkscape-font-specification:Sans;text-indent:0;text-align:start;text-decoration:none;text-decoration-line:none;letter-spacing:normal;word-spacing:normal;text-transform:none;writing-mode:lr-tb;direction:ltr;baseline-shift:baseline;text-anchor:start;display:inline;overflow:visible;visibility:visible;fill:#1f2024;fill-opacity:1;stroke:none;stroke-width:2.3755002;marker:none;enable-background:accumulate"
         d="m 9.9740341,5.1444869 c -3.116621,0 -5.667965,2.53951 -5.667965,5.6460041 v 69.277996 c 0,3.106495 2.551344,5.646004 5.667965,5.646004 H 86.765819 c 3.116621,0 5.667968,-2.539509 5.667968,-5.646004 V 10.790491 c 0,-3.1064931 -2.551347,-5.6460041 -5.667968,-5.6460041 z m 0,2.319439 H 86.765819 c 1.888099,0 3.352022,1.480095 3.352022,3.3265651 v 69.277996 c 0,1.846474 -1.463923,3.326564 -3.352022,3.326564 H 9.9740341 c -1.888099,0 -3.352022,-1.48009 -3.352022,-3.326564 V 10.790491 c 0,-1.8464701 1.463923,-3.3265651 3.352022,-3.3265651 z"
         id="path4989"
         inkscape:connector-curvature="0" />
      <path
         id="path4118"
         d="m 1.6489535,82.258776 v 6 c 0,3.680142 2.9761066,6.65625 6.6562496,6.65625 H 87.992703 c 3.680143,0 6.656254,-2.976108 6.656254,-6.65625 v -6 c 0,3.680142 -2.976111,6.65625 -6.656254,6.65625 H 8.3052031 c -3.680143,0 -6.6562496,-2.976108 -6.6562496,-6.65625 z"
         style="display:inline;opacity:0.65818182;fill:url(#linearGradient4129);fill-opacity:1;fill-rule:nonzero;stroke:none"
         inkscape:connector-curvature="0" />
      <rect
         ry="4.25"
         rx="0"
         y="80.665031"
         x="5.5239539"
         height="4.25"
         width="84.250008"
         id="rect4131"
         style="opacity:0.641;fill:url(#radialGradient7462);fill-opacity:1;stroke:none" />
      <rect
         transform="rotate(90)"
         style="opacity:0.752;fill:url(#radialGradient7464);fill-opacity:1;stroke:none"
         id="rect4141"
         width="76.75"
         height="4.25"
         x="5.9750223"
         y="-90.233963"
         rx="0"
         ry="4.25" />
      <rect
         clip-path="url(#clipPath4156-4-1)"
         ry="3.9569881"
         rx="6.2747087"
         y="-30"
         x="2"
         height="47.950661"
         width="50.049416"
         id="rect4146"
         style="opacity:0.5078125;fill:url(#linearGradient4767);fill-opacity:1;stroke:none"
         transform="matrix(1.0692451,0,0,1.0476829,3.9741711,38.504725)" />
      <g
         id="g900"
         transform="translate(-0.09419972)">
        <path
           id="path867"
           d="m 17.164062,45.308594 a 31.395521,31.846106 89.999971 0 0 -0.0098,0.33789 31.395521,31.846106 89.999971 0 0 31.847656,31.396485 31.395521,31.846106 89.999971 0 0 23.109375,-9.81836 l -7.193359,-7.115234 a 21.676718,21.370018 5.7535436e-5 0 1 -15.916016,6.908203 21.676718,21.370018 5.7535436e-5 0 1 -21.677734,-21.371094 21.676718,21.370018 5.7535436e-5 0 1 0.01953,-0.33789 z m 47.753907,14.800781 a 21.676718,21.370018 5.7535436e-5 0 0 0.0625,-0.06055 l 7.152343,7.152344 a 31.395521,31.846106 89.999971 0 1 -0.02148,0.02344 l 4.169922,4.125 2.115234,-17.822265 -17.796875,2.308594 z"
           style="opacity:0.95999995;fill:#edf5f4;fill-opacity:1;stroke:none;stroke-width:2.94395447;stroke-miterlimit:4;stroke-dasharray:none;stroke-opacity:0.29147985"
           inkscape:connector-curvature="0"
           transform="translate(0.14895645,0.415)" />
        <path
           inkscape:connector-curvature="0"
           style="opacity:0.95999995;fill:#edf5f4;fill-opacity:1;stroke:none;stroke-width:2.94395447;stroke-miterlimit:4;stroke-dasharray:none;stroke-opacity:0.29147985"
           d="m 82.032585,44.459518 a 31.395521,31.846106 89.999971 0 0 0.0098,-0.33789 31.395521,31.846106 89.999971 0 0 -31.847656,-31.396485 31.395521,31.846106 89.999971 0 0 -23.109375,9.81836 l 7.193324,7.115234 a 21.676718,21.370018 5.7535436e-5 0 1 15.916016,-6.908203 21.676718,21.370018 5.7535436e-5 0 1 21.677734,21.371094 21.676718,21.370018 5.7535436e-5 0 1 -0.01953,0.33789 z M 34.278678,29.658737 a 21.676718,21.370018 5.7535436e-5 0 0 -0.0625,0.06055 l -7.152343,-7.152344 a 31.395521,31.846106 89.999971 0 1 0.02148,-0.02344 l -4.169922,-4.125 -2.115234,17.822265 17.796879,-2.308594 z"
           id="path888" />
      </g>
      <g
         id="g910"
         transform="translate(-41.679058,125.03718)">
        <path
           style="opacity:0.95999995;fill:#fefefe;fill-opacity:1;stroke:none;stroke-width:2.94395447;stroke-miterlimit:4;stroke-dasharray:none;stroke-opacity:0.29147985"
           d="m 91.780047,-112.09862 a 31.395521,31.846106 89.999971 0 0 -23.109375,9.81836 l 1.033204,1.02148 a 31.395521,31.846106 89.999971 0 1 22.076171,-8.83984 31.395521,31.846106 89.999971 0 1 31.763673,29.734376 h 0.0742 a 31.395521,31.846106 89.999971 0 0 0.01,-0.33789 31.395521,31.846106 89.999971 0 0 -31.847653,-31.396486 z m -23.109375,9.81836 -4.169921,-4.125 -2.115235,17.822266 0.240235,-0.03125 1.875,-15.791016 4.169921,4.125 a 31.395521,31.846106 89.999971 0 1 1.003907,-0.95118 l -1.025391,-1.02539 a 31.395521,31.846106 89.999971 0 1 0.02148,-0.0234 z m 0,2 a 31.395521,31.846106 89.999971 0 0 -0.02148,0.0234 l 7.152343,7.152356 a 21.676718,21.370018 5.7535436e-5 0 1 0.0625,-0.06055 z m 7.193359,7.115236 2.53125,2.50586 1.78711,-0.23242 -3.298828,-3.26367 a 21.676718,21.370018 5.7535436e-5 0 0 -1.019532,0.99023 z m -16.966796,14.06445 a 31.395521,31.846106 89.999971 0 0 -0.0098,0.33789 31.395521,31.846106 89.999971 0 0 0.08399,1.66211 h 10.105468 a 21.676718,21.370018 5.7535436e-5 0 0 -0.01953,0.33789 21.676718,21.370018 5.7535436e-5 0 0 21.677734,21.3711 21.676718,21.370018 5.7535436e-5 0 0 15.916013,-6.90821 l -1.01953,-1.00976 a 21.676718,21.370018 5.7535436e-5 0 1 -14.896483,5.91797 21.676718,21.370018 5.7535436e-5 0 1 -21.677734,-21.3711 21.676718,21.370018 5.7535436e-5 0 1 0.01953,-0.33789 z m 47.753905,16.80078 6.16211,6.09375 a 31.395521,31.846106 89.999971 0 0 0.0293,-0.02539 l -6.12891,-6.1289 a 21.676718,21.370018 5.7535436e-5 0 1 -0.0625,0.06054 z m 13.47852,-8.58203 -17.79688,2.3086 1.78711,1.76757 15.76953,-2.04492 z"
           id="path908"
           inkscape:connector-curvature="0" />
        <path
           inkscape:connector-curvature="0"
           id="path916"
           d="m 90.735312,-47.426302 a 31.395521,31.846106 89.999971 0 0 23.109368,-9.81836 l -1.0332,-1.02148 a 31.395521,31.846106 89.999971 0 1 -22.076168,8.83984 31.395521,31.846106 89.999971 0 1 -31.763677,-29.734376 h -0.0742 a 31.395521,31.846106 89.999971 0 0 -0.01,0.33789 31.395521,31.846106 89.999971 0 0 31.847657,31.396486 z m 23.109368,-9.81836 4.16992,4.125 2.11524,-17.822266 -0.24024,0.03125 -1.875,15.791016 -4.16992,-4.125 a 31.395521,31.846106 89.999971 0 1 -1.0039,0.95118 l 1.02539,1.02539 a 31.395521,31.846106 89.999971 0 1 -0.0215,0.0234 z m 0,-2 a 31.395521,31.846106 89.999971 0 0 0.0215,-0.0234 l -7.15234,-7.152356 a 21.676718,21.370018 5.8e-5 0 1 -0.0625,0.06055 z m -7.19336,-7.115236 -2.53125,-2.50586 -1.78711,0.23242 3.29883,3.26367 a 21.676718,21.370018 5.8e-5 0 0 1.01953,-0.99023 z m 16.9668,-14.06445 a 31.395521,31.846106 89.999971 0 0 0.01,-0.33789 31.395521,31.846106 89.999971 0 0 -0.084,-1.66211 h -10.10547 a 21.676718,21.370018 5.8e-5 0 0 0.0195,-0.33789 21.676718,21.370018 5.8e-5 0 0 -21.677728,-21.371102 21.676718,21.370018 5.8e-5 0 0 -15.916017,6.908212 l 1.01953,1.00976 a 21.676718,21.370018 5.8e-5 0 1 14.896487,-5.917972 21.676718,21.370018 5.8e-5 0 1 21.677728,21.371102 21.676718,21.370018 5.8e-5 0 1 -0.0195,0.33789 z m -47.753905,-16.80078 -6.16211,-6.093752 a 31.395521,31.846106 89.999971 0 0 -0.0293,0.0254 l 6.12891,6.128902 a 21.676718,21.370018 5.8e-5 0 1 0.0625,-0.0605 z m -13.47852,8.58203 17.79688,-2.3086 -1.78711,-1.76757 -15.76953,2.04492 z"
           style="opacity:0.95999995;fill:#000000;fill-opacity:0.20179372;stroke:none;stroke-width:2.94395447;stroke-miterlimit:4;stroke-dasharray:none;stroke-opacity:0.29147985" />
      </g>
    </g>
  </g>
</svg>
