<?xml version="1.0" encoding="UTF-8" standalone="no"?>
<!-- Created with Inkscape (http://www.inkscape.org/) -->

<svg
   xmlns:dc="http://purl.org/dc/elements/1.1/"
   xmlns:cc="http://creativecommons.org/ns#"
   xmlns:rdf="http://www.w3.org/1999/02/22-rdf-syntax-ns#"
   xmlns:svg="http://www.w3.org/2000/svg"
   xmlns="http://www.w3.org/2000/svg"
   xmlns:xlink="http://www.w3.org/1999/xlink"
   xmlns:sodipodi="http://sodipodi.sourceforge.net/DTD/sodipodi-0.dtd"
   xmlns:inkscape="http://www.inkscape.org/namespaces/inkscape"
   width="96"
   height="96"
   id="svg2"
   version="1.1"
   inkscape:version="0.48.5 r10040"
   sodipodi:docname="clamtk.svg">
  <defs
     id="defs4">
    <linearGradient
       id="linearGradient3795">
      <stop
         style="stop-color:#e28c05;stop-opacity:1;"
         offset="0"
         id="stop3797" />
      <stop
         style="stop-color:#e2bc05;stop-opacity:1;"
         offset="1"
         id="stop3799" />
    </linearGradient>
    <linearGradient
       inkscape:collect="always"
       xlink:href="#linearGradient3795"
       id="linearGradient3801"
       x1="45"
       y1="1047.3622"
       x2="45"
       y2="957.36218"
       gradientUnits="userSpaceOnUse" />
    <radialGradient
       gradientUnits="userSpaceOnUse"
       gradientTransform="matrix(1,0,0,0.91365451,0,3.9718926)"
       r="42.423195"
       fy="46"
       fx="48"
       cy="46"
       cx="48"
       id="radialGradient5037"
       xlink:href="#linearGradient5057"
       inkscape:collect="always" />
    <radialGradient
       inkscape:collect="always"
       xlink:href="#linearGradient4133-5"
       id="radialGradient4992"
       gradientUnits="userSpaceOnUse"
       gradientTransform="matrix(0.97513384,0,0,0.04919072,32.734694,78.81442)"
       cx="13.948145"
       cy="44.892841"
       fx="13.948145"
       fy="44.892841"
       r="43.199203" />
    <radialGradient
       inkscape:collect="always"
       xlink:href="#linearGradient4133-5"
       id="radialGradient3831-7"
       gradientUnits="userSpaceOnUse"
       gradientTransform="matrix(0.97513378,0,0,0.04919072,-4.148257,101.31932)"
       cx="13.948145"
       cy="44.892841"
       fx="13.948145"
       fy="44.892841"
       r="43.199203" />
    <linearGradient
       id="linearGradient4133-5"
       inkscape:collect="always">
      <stop
         id="stop4135-4"
         offset="0"
         style="stop-color:#ffffff;stop-opacity:1;" />
      <stop
         id="stop4137-5"
         offset="1"
         style="stop-color:#ffffff;stop-opacity:0;" />
    </linearGradient>
    <radialGradient
       inkscape:collect="always"
       xlink:href="#linearGradient4133-5"
       id="radialGradient3833-1"
       gradientUnits="userSpaceOnUse"
       gradientTransform="matrix(0.88832663,0,0,0.04919072,29.382213,-89.635221)"
       cx="13.948145"
       cy="44.892841"
       fx="13.948145"
       fy="44.892841"
       r="43.199203" />
    <linearGradient
       y2="14.514202"
       x2="50.527882"
       y1="-28.64156"
       x1="2.7713892"
       gradientUnits="userSpaceOnUse"
       id="linearGradient4967"
       xlink:href="#linearGradient4213-7-8"
       inkscape:collect="always" />
    <clipPath
       id="clipPath4156-4-6"
       clipPathUnits="userSpaceOnUse">
      <path
         inkscape:connector-curvature="0"
         id="path4158-0-3"
         d="m 27.046336,-55.695463 -14.21366,13.321486 0.06127,0 15.653407,21.770763 10.231384,-10.546177 C 38.561832,-32.30156 27.468089,-54.819245 27.046336,-55.695463 z M 9.6468554,-39.382809 -5.2407289,-25.32124 15.987863,-7.8059573 26.372412,-18.382966 9.6468554,-39.382809 z m 31.4906096,12.951445 -9.741259,9.713584 8.944804,12.4580526 7.780753,-7.5550056 -6.984298,-14.616631 z m -49.8397109,4.378822 -13.7541661,12.9822847 26.2830181,13.84571 0.06127,-0.0617 -0.122531,-0.0617 L 13.598503,-5.4007374 -8.7022409,-22.052595 z m 38.0154159,7.400825 -9.802525,9.7752596 11.579232,9.5594001 7.62759,-7.40083 -8.669108,-11.0087257 -0.735189,-0.925104 z m 20.187073,5.6739697 -7.382526,7.2158 6.187844,8.54179 5.820249,-6.13651996 -4.625567,-9.62107004 z m -32.195166,6.32154 -9.5574606,9.49772 13.6622686,7.1849703 7.933918,-7.6783603 -12.038726,-9.00433 z m 23.311629,2.37443004 -7.10683,6.93826996 8.362778,6.9074403 5.360756,-5.6739699 -0.06127,-0.0925 -0.0919,0.12335 -6.463539,-8.20258036 z m -8.730374,8.54178036 -7.505057,7.3391599 10.353916,5.45811 c 1.397496,-1.32103 5.67514,-6.12292 5.850882,-6.32154 L 31.886332,8.2600031 z"
         style="opacity:0.6;fill:#ffffff;fill-opacity:1;stroke:none" />
    </clipPath>
    <linearGradient
       id="linearGradient4213-7-8"
       inkscape:collect="always">
      <stop
         id="stop4215-6-5"
         offset="0"
         style="stop-color:#ffffff;stop-opacity:1;" />
      <stop
         id="stop4217-5-2"
         offset="1"
         style="stop-color:#ffffff;stop-opacity:0;" />
    </linearGradient>
    <linearGradient
       inkscape:collect="always"
       xlink:href="#linearGradient4213-7-8"
       id="linearGradient3837-7"
       gradientUnits="userSpaceOnUse"
       x1="2.7713892"
       y1="-28.64156"
       x2="50.527882"
       y2="14.514202" />
    <clipPath
       id="clipPath4156-4"
       clipPathUnits="userSpaceOnUse">
      <path
         inkscape:connector-curvature="0"
         id="path4158-0"
         d="m 27.046336,-55.695463 -14.21366,13.321486 0.06127,0 15.653407,21.770763 10.231384,-10.546177 C 38.561832,-32.30156 27.468089,-54.819245 27.046336,-55.695463 z M 9.6468554,-39.382809 -5.2407289,-25.32124 15.987863,-7.8059573 26.372412,-18.382966 9.6468554,-39.382809 z m 31.4906096,12.951445 -9.741259,9.713584 8.944804,12.4580526 7.780753,-7.5550056 -6.984298,-14.616631 z m -49.8397109,4.378822 -13.7541661,12.9822847 26.2830181,13.84571 0.06127,-0.0617 -0.122531,-0.0617 L 13.598503,-5.4007374 -8.7022409,-22.052595 z m 38.0154159,7.400825 -9.802525,9.7752596 11.579232,9.5594001 7.62759,-7.40083 -8.669108,-11.0087257 -0.735189,-0.925104 z m 20.187073,5.6739697 -7.382526,7.2158 6.187844,8.54179 5.820249,-6.13651996 -4.625567,-9.62107004 z m -32.195166,6.32154 -9.5574606,9.49772 13.6622686,7.1849703 7.933918,-7.6783603 -12.038726,-9.00433 z m 23.311629,2.37443004 -7.10683,6.93826996 8.362778,6.9074403 5.360756,-5.6739699 -0.06127,-0.0925 -0.0919,0.12335 -6.463539,-8.20258036 z m -8.730374,8.54178036 -7.505057,7.3391599 10.353916,5.45811 c 1.397496,-1.32103 5.67514,-6.12292 5.850882,-6.32154 L 31.886332,8.2600031 z"
         style="opacity:0.6;fill:#ffffff;fill-opacity:1;stroke:none" />
    </clipPath>
    <linearGradient
       id="linearGradient4213-7"
       inkscape:collect="always">
      <stop
         id="stop4215-6"
         offset="0"
         style="stop-color:#ffffff;stop-opacity:1;" />
      <stop
         id="stop4217-5"
         offset="1"
         style="stop-color:#ffffff;stop-opacity:0;" />
    </linearGradient>
    <linearGradient
       inkscape:collect="always"
       xlink:href="#linearGradient4213-7"
       id="linearGradient3837"
       gradientUnits="userSpaceOnUse"
       x1="2.7713892"
       y1="-28.64156"
       x2="50.527882"
       y2="14.514202" />
    <filter
       id="filter3174-3"
       color-interpolation-filters="sRGB">
      <feGaussianBlur
         stdDeviation="1.71"
         id="feGaussianBlur3176-6" />
    </filter>
    <linearGradient
       gradientTransform="scale(1.0058652,0.994169)"
       gradientUnits="userSpaceOnUse"
       id="ButtonShadow-1"
       y2="7.0165396"
       x2="45.447727"
       y1="92.539597"
       x1="45.447727">
      <stop
         offset="0"
         style="stop-color:#000000;stop-opacity:1"
         id="stop3750-9" />
      <stop
         offset="1"
         style="stop-color:#000000;stop-opacity:0.58823532"
         id="stop3752-9" />
    </linearGradient>
    <linearGradient
       inkscape:collect="always"
       xlink:href="#ButtonShadow-1"
       id="linearGradient3835"
       gradientUnits="userSpaceOnUse"
       gradientTransform="scale(1.0058652,0.994169)"
       x1="45.447727"
       y1="92.539597"
       x2="45.447727"
       y2="7.0165396" />
    <radialGradient
       inkscape:collect="always"
       xlink:href="#linearGradient4133"
       id="radialGradient3833"
       gradientUnits="userSpaceOnUse"
       gradientTransform="matrix(0.88832663,0,0,0.04919072,51.887113,-52.752262)"
       cx="13.948145"
       cy="44.892841"
       fx="13.948145"
       fy="44.892841"
       r="43.199203" />
    <linearGradient
       id="linearGradient4133"
       inkscape:collect="always">
      <stop
         id="stop4135"
         offset="0"
         style="stop-color:#ffffff;stop-opacity:1;" />
      <stop
         id="stop4137"
         offset="1"
         style="stop-color:#ffffff;stop-opacity:0;" />
    </linearGradient>
    <radialGradient
       inkscape:collect="always"
       xlink:href="#linearGradient4133"
       id="radialGradient3831"
       gradientUnits="userSpaceOnUse"
       gradientTransform="matrix(0.97513378,0,0,0.04919072,-4.148257,101.31932)"
       cx="13.948145"
       cy="44.892841"
       fx="13.948145"
       fy="44.892841"
       r="43.199203" />
    <linearGradient
       id="linearGradient3832-0-6-1-1">
      <stop
         id="stop3834-6-3-7-1"
         offset="0"
         style="stop-color:#000000;stop-opacity:1;" />
      <stop
         style="stop-color:#000000;stop-opacity:0.58823532;"
         offset="0.1"
         id="stop3872-2-4" />
      <stop
         id="stop3844-6-2-7-6"
         offset="0.89999998"
         style="stop-color:#000000;stop-opacity:0.58823532;" />
      <stop
         id="stop3836-5-0-2-9"
         offset="1"
         style="stop-color:#000000;stop-opacity:1;" />
    </linearGradient>
    <linearGradient
       inkscape:collect="always"
       xlink:href="#linearGradient3832-0-6-1-1"
       id="linearGradient3829"
       gradientUnits="userSpaceOnUse"
       gradientTransform="translate(8.0439564,-14.665561)"
       x1="1.5"
       y1="88.171875"
       x2="94.5"
       y2="88.171875" />
    <linearGradient
       id="linearGradient4091-0-3-0-7">
      <stop
         id="stop4093-3-6-4-2"
         offset="0"
         style="stop-color:#ffffff;stop-opacity:1;" />
      <stop
         style="stop-color:#ffffff;stop-opacity:1;"
         offset="0.80000001"
         id="stop4099-6-1-8-3" />
      <stop
         id="stop4095-1-0-7-9"
         offset="1"
         style="stop-color:#ffffff;stop-opacity:0;" />
    </linearGradient>
    <radialGradient
       inkscape:collect="always"
       xlink:href="#linearGradient4091-0-3-0-7"
       id="radialGradient3827"
       gradientUnits="userSpaceOnUse"
       gradientTransform="matrix(-1.0721726,0,0,-0.87502024,199.46429,-19.125546)"
       cx="48"
       cy="-27"
       fx="48"
       fy="-27"
       r="42" />
    <linearGradient
       id="linearGradient6139-0">
      <stop
         style="stop-color:#adb4c1;stop-opacity:1;"
         offset="0"
         id="stop6141-2" />
      <stop
         id="stop6151-0"
         offset="0.25"
         style="stop-color:#ffffff;stop-opacity:1;" />
      <stop
         id="stop6147-1"
         offset="0.5"
         style="stop-color:#9095aa;stop-opacity:1;" />
      <stop
         style="stop-color:#fbf9f9;stop-opacity:1;"
         offset="0.75"
         id="stop6149-4" />
      <stop
         style="stop-color:#adb3c1;stop-opacity:1;"
         offset="1"
         id="stop6143-4" />
    </linearGradient>
    <linearGradient
       inkscape:collect="always"
       xlink:href="#linearGradient6139-0"
       id="linearGradient3825"
       gradientUnits="userSpaceOnUse"
       gradientTransform="matrix(1.1071428,0,0,1.1071426,2.9011003,-18.701274)"
       x1="6"
       y1="47.000011"
       x2="90"
       y2="47.000011" />
    <linearGradient
       id="linearGradient5029">
      <stop
         id="stop5031"
         offset="0"
         style="stop-color:#0a9aff;stop-opacity:1;" />
      <stop
         id="stop5033"
         offset="1"
         style="stop-color:#0070c0;stop-opacity:1;" />
    </linearGradient>
    <linearGradient
       id="linearGradient5039">
      <stop
         style="stop-color:#ff0a0a;stop-opacity:1;"
         offset="0"
         id="stop5041" />
      <stop
         style="stop-color:#c00000;stop-opacity:1;"
         offset="1"
         id="stop5043" />
    </linearGradient>
    <linearGradient
       id="linearGradient5045">
      <stop
         id="stop5047"
         offset="0"
         style="stop-color:#2fff0a;stop-opacity:1;" />
      <stop
         id="stop5049"
         offset="1"
         style="stop-color:#16b50b;stop-opacity:1;" />
    </linearGradient>
    <linearGradient
       id="linearGradient5051">
      <stop
         style="stop-color:#c60aff;stop-opacity:1;"
         offset="0"
         id="stop5053" />
      <stop
         style="stop-color:#9b0bb5;stop-opacity:1;"
         offset="1"
         id="stop5055" />
    </linearGradient>
    <linearGradient
       id="linearGradient5057">
      <stop
         id="stop5059"
         offset="0"
         style="stop-color:#ff830a;stop-opacity:1;" />
      <stop
         id="stop5061"
         offset="1"
         style="stop-color:#b55f0b;stop-opacity:1;" />
    </linearGradient>
    <linearGradient
       id="linearGradient5063">
      <stop
         style="stop-color:#6b9ab0;stop-opacity:1;"
         offset="0"
         id="stop5065" />
      <stop
         style="stop-color:#466b7a;stop-opacity:1;"
         offset="1"
         id="stop5067" />
    </linearGradient>
  </defs>
  <sodipodi:namedview
     id="base"
     pagecolor="#ffffff"
     bordercolor="#666666"
     borderopacity="1.0"
     inkscape:pageopacity="0.0"
     inkscape:pageshadow="2"
     inkscape:zoom="2.953125"
     inkscape:cx="-13.460317"
     inkscape:cy="-6.1798942"
     inkscape:document-units="px"
     inkscape:current-layer="g3003"
     showgrid="true"
     inkscape:snap-page="true"
     inkscape:snap-global="false"
     inkscape:snap-center="true"
     inkscape:snap-object-midpoints="false"
     showguides="true"
     inkscape:guide-bbox="true"
     inkscape:snap-bbox="true"
     inkscape:object-paths="true"
     inkscape:object-nodes="true"
     inkscape:window-width="1280"
     inkscape:window-height="969"
     inkscape:window-x="0"
     inkscape:window-y="0"
     inkscape:window-maximized="1"
     inkscape:snap-midpoints="false"
     inkscape:snap-grids="true"
     inkscape:snap-to-guides="false">
    <inkscape:grid
       type="xygrid"
       id="grid3002"
       empspacing="5"
       visible="true"
       enabled="true"
       snapvisiblegridlinesonly="true" />
  </sodipodi:namedview>
  <metadata
     id="metadata7">
    <rdf:RDF>
      <cc:Work
         rdf:about="">
        <dc:format>image/svg+xml</dc:format>
        <dc:type
           rdf:resource="http://purl.org/dc/dcmitype/StillImage" />
        <dc:title />
      </cc:Work>
    </rdf:RDF>
  </metadata>
  <g
     inkscape:label="Layer 1"
     inkscape:groupmode="layer"
     id="layer1"
     transform="translate(0,-956.36218)">
    <g
       id="g3193"
       transform="translate(0,956.36218)">
      <g
         transform="translate(0,32)"
         inkscape:label="icona"
         id="layer1-6">
        <g
           id="g7390"
           transform="translate(-8.0439594,-17.334439)"
           style="display:inline">
          <path
             inkscape:connector-curvature="0"
             id="path3288"
             d="m 97.186813,-14.665561 -82.285719,0 c -3.798848,0 -6.8571352,3.058285 -6.8571352,6.8571399 l 0,82.2857181 c 0,3.798857 3.0582872,6.857142 6.8571352,6.857142 l 82.285719,0 c 3.798857,0 6.857147,-3.058285 6.857147,-6.857142 l 0,-82.2857181 c 0,-3.7988549 -3.05829,-6.8571399 -6.857147,-6.8571399 z"
             style="opacity:0.15;fill:#000000;fill-opacity:1;fill-rule:nonzero;stroke:none;display:inline" />
          <path
             style="opacity:0.15;fill:#000000;fill-opacity:1;fill-rule:nonzero;stroke:none;display:inline"
             d="m 96.543957,-13.915561 -81.000007,0 c -3.739492,0 -6.749993,3.010499 -6.749993,6.7499969 l 0,81.0000031 c 0,3.739501 3.010501,6.75 6.749993,6.75 l 81.000007,0 c 3.739503,0 6.750003,-3.010499 6.750003,-6.75 l 0,-81.0000031 c 0,-3.7394979 -3.0105,-6.7499969 -6.750003,-6.7499969 z"
             id="path4085"
             inkscape:connector-curvature="0" />
          <path
             inkscape:connector-curvature="0"
             id="rect4251-1"
             d="m 95.901096,-13.165561 -79.714282,0 c -3.680143,0 -6.6428566,2.962713 -6.6428566,6.6428549 l 0,79.7142901 c 0,3.680142 2.9627136,6.642856 6.6428566,6.642856 l 79.714282,0 c 3.680143,0 6.642854,-2.962714 6.642854,-6.642856 l 0,-79.7142901 c 0,-3.6801419 -2.962711,-6.6428549 -6.642854,-6.6428549 z"
             style="fill:url(#linearGradient3825);fill-opacity:1;fill-rule:nonzero;stroke:none;display:inline" />
          <g
             transform="matrix(1.1071428,0,0,1.1071426,-107.81316,-18.147702)"
             id="g3272">
            <path
               style="opacity:0.45;fill:url(#radialGradient3827);fill-opacity:1;fill-rule:nonzero;stroke:none;display:inline"
               d="m 112,4.5 c -3.324,0 -6,2.6759996 -6,6 l 0,15 1,0 0,-15 c 0,-2.7872972 2.2127,-5 5,-5 l 72,0 c 2.7873,0 5,2.2127028 5,5 l 0,15 1,0 0,-15 c 0,-3.3240004 -2.676,-6 -6,-6 l -72,0 z"
               id="path4236-5"
               inkscape:connector-curvature="0" />
          </g>
          <path
             id="path4118"
             d="m 9.5439564,67.178189 0,6 c 0,3.680142 2.9761066,6.65625 6.6562496,6.65625 l 79.6875,0 c 3.680143,0 6.656254,-2.976108 6.656254,-6.65625 l 0,-6 c 0,3.680142 -2.976111,6.65625 -6.656254,6.65625 l -79.6875,0 c -3.680143,0 -6.6562496,-2.976108 -6.6562496,-6.65625 z"
             style="opacity:0.89090905;fill:url(#linearGradient3829);fill-opacity:1;fill-rule:nonzero;stroke:none;display:inline"
             inkscape:connector-curvature="0" />
          <g
             id="g4615"
             transform="translate(251.28797,-104.89729)">
            <g
               style="display:none"
               id="layer2-8">
              <rect
                 style="opacity:0.9;fill:url(#linearGradient3835);fill-opacity:1;fill-rule:nonzero;stroke:none;filter:url(#filter3174-3)"
                 id="rect3745-9"
                 y="7"
                 x="5"
                 ry="6"
                 rx="6"
                 height="85"
                 width="86" />
            </g>
          </g>
        </g>
      </g>
      <g
         style="display:inline"
         inkscape:label="colori"
         id="layer7">
        <rect
           style="fill:url(#radialGradient5037);fill-opacity:1.0;stroke:none;display:inline"
           id="rect4301"
           width="84.84639"
           height="77.520287"
           x="5.5768051"
           y="7.2398567"
           ry="4.25" />
        <path
           style="font-size:medium;font-style:normal;font-variant:normal;font-weight:normal;font-stretch:normal;text-indent:0;text-align:start;text-decoration:none;line-height:normal;letter-spacing:normal;word-spacing:normal;text-transform:none;direction:ltr;block-progression:tb;writing-mode:lr-tb;text-anchor:start;baseline-shift:baseline;color:#000000;fill:#241f1f;fill-opacity:0.63265303;stroke:none;stroke-width:2.3755002;marker:none;visibility:visible;display:inline;overflow:visible;enable-background:accumulate;font-family:Sans;-inkscape-font-specification:Sans"
           d="m 9.6041045,5.7149979 c -3.116621,0 -5.667965,2.5395101 -5.667965,5.6460041 l 0,69.277996 c 0,3.106495 2.551344,5.646004 5.667965,5.646004 l 76.7917855,0 c 3.116621,0 5.66797,-2.539509 5.66797,-5.646004 l 0,-69.277996 c 0,-3.106493 -2.55135,-5.6460041 -5.66797,-5.6460041 l -76.7917855,0 z m 0,2.3194391 76.7917855,0 c 1.888101,0 3.352021,1.480095 3.352021,3.326565 l 0,69.277996 c 0,1.846474 -1.46392,3.326564 -3.352021,3.326564 l -76.7917855,0 c -1.888099,0 -3.352022,-1.48009 -3.352022,-3.326564 l 0,-69.277996 c 0,-1.84647 1.463923,-3.326565 3.352022,-3.326565 z"
           id="path4989"
           inkscape:connector-curvature="0" />
        <g
           id="g3003"
           transform="translate(0.5961585,-951.36214)">
          <path
             style="fill:#000000;fill-opacity:0.35159816;fill-rule:nonzero;stroke:none"
             d="M 47.403842,972.36218 C 38.910723,975.9044 29.845116,978.74003 20,980.61359 c 1.888311,32.87151 5.685245,40.68871 27.403842,51.74851 21.718596,-11.0598 25.51553,-18.877 27.403841,-51.74851 -9.845116,-1.87356 -18.910711,-4.70919 -27.403841,-8.25141 z"
             id="path3807"
             inkscape:connector-curvature="0" />
          <path
             inkscape:connector-curvature="0"
             id="path3805"
             d="M 47.403842,970.36218 C 38.910723,973.9044 29.845116,976.74003 20,978.61359 c 1.888311,32.87151 5.685245,40.68871 27.403842,51.74851 21.718596,-11.0598 25.51553,-18.877 27.403841,-51.74851 -9.845116,-1.87356 -18.910711,-4.70919 -27.403841,-8.25141 z"
             style="fill:#000000;fill-opacity:0.35159816;fill-rule:nonzero;stroke:none" />
          <path
             style="fill:#000000;fill-opacity:0.35159816;fill-rule:nonzero;stroke:none"
             d="M 47.403842,968.36218 C 38.910723,971.9044 29.845116,974.74003 20,976.61359 c 1.888311,32.87151 5.685245,40.68871 27.403842,51.74851 21.718596,-11.0598 25.51553,-18.877 27.403841,-51.74851 -9.845116,-1.87356 -18.910711,-4.70919 -27.403841,-8.25141 z"
             id="path3803"
             inkscape:connector-curvature="0" />
          <path
             inkscape:connector-curvature="0"
             id="rect2987"
             d="M 47.403842,966.36218 C 38.910723,969.9044 29.845116,972.74003 20,974.61359 c 1.888311,32.87151 5.685245,40.68871 27.403842,51.74851 21.718596,-11.0598 25.51553,-18.877 27.403841,-51.74851 -9.845116,-1.87356 -18.910711,-4.70919 -27.403841,-8.25141 z"
             style="fill:#e8f8fc;fill-opacity:1;fill-rule:nonzero;stroke:none" />
          <path
             transform="matrix(0.62682154,0,0,0.51396135,115.62617,481.723)"
             d="m -108.84375,953.46875 c -10.71319,5.14937 -22.04911,9.45258 -34.0625,12.75 1.52508,26.92062 3.93519,44.12005 8.8125,55.43745 4.74948,11.0208 12.01326,18.196 25.25,26.9063 13.236735,-8.7103 20.500519,-15.8855 25.25,-26.9063 4.877307,-11.3174 7.287418,-28.51683 8.8125,-55.43745 -12.01339,-3.29742 -23.349315,-7.60063 -34.0625,-12.75 z"
             id="path2995"
             style="fill:#e26605;fill-opacity:1;fill-rule:nonzero;stroke:none"
             inkscape:original="M -108.84375 943.28125 C -122.39326 950.1497 -136.85608 955.64818 -152.5625 959.28125 C -149.54998 1023.0211 -143.49253 1038.1791 -108.84375 1059.625 C -74.194972 1038.1791 -68.13752 1023.0211 -65.125 959.28125 C -80.83142 955.64818 -95.294242 950.1497 -108.84375 943.28125 z "
             inkscape:radius="-9.213686"
             sodipodi:type="inkscape:offset" />
          <path
             inkscape:connector-curvature="0"
             id="path3007"
             d="m 47.400562,993.0368 0,27.6068 c 2.074268,-1.1231 3.922897,-2.188 5.563047,-3.2554 1.640126,-1.0674 3.074789,-2.1248 4.34856,-3.2232 1.273773,-1.0985 2.374443,-2.2326 3.349574,-3.4488 0.975144,-1.2164 1.821781,-2.5276 2.566048,-3.9485 0.764309,-1.4591 1.43111,-3.0945 2.017591,-4.9637 0.58648,-1.8693 1.088213,-3.9601 1.527867,-6.3013 0.138671,-0.7384 0.226499,-1.67641 0.352586,-2.4659 l -19.725273,0 z"
             style="fill:#ffd078;fill-opacity:1;fill-rule:nonzero;stroke:none" />
          <path
             inkscape:connector-curvature="0"
             id="path3005"
             d="m 47.400562,971.60252 c -3.357629,1.32773 -6.805057,2.55902 -10.36215,3.65837 -3.557079,1.09924 -7.223836,2.06675 -10.988958,2.91698 0.238995,3.47072 0.518467,6.63343 0.842297,9.50846 0.221685,1.96838 0.509825,3.63694 0.783524,5.35047 l 19.725287,0 0,-21.43428 z"
             style="fill:#ffd078;fill-opacity:1;fill-rule:nonzero;stroke:none" />
          <path
             d="m 48.59375,980.15625 c -1.731653,2e-5 -3.41248,0.41471 -4.9375,1.1875 l 0,-0.0313 c -1.531281,0.76215 -2.823802,1.87182 -3.875,3.21875 -1.069155,1.37024 -1.874952,2.94907 -2.4375,4.71875 a 2.2198575,2.2198575 0 0 0 0,0.0313 c -0.56025,1.78067 -0.843751,3.71016 -0.84375,5.75 -10e-7,2.04966 0.284183,3.95296 0.84375,5.71875 a 2.2198575,2.2198575 0 0 0 0,0.031 c 0.548488,1.7183 1.309851,3.2538 2.375,4.5626 1.063168,1.3076 2.363619,2.3281 3.8125,3.0312 1.449625,0.6896 3.062268,1.0624 4.71875,1.0625 1.351676,0 2.609395,-0.255 3.71875,-0.7187 l 0,0.031 c 0.01246,-0.01 0.01878,-0.026 0.03125,-0.031 0.980461,-0.4135 1.98926,-0.9884 2.875,-1.7813 l 0,-0.031 c 0.803982,-0.7263 1.477812,-1.5701 2.03125,-2.4687 a 2.2198575,2.2198575 0 0 0 0.03125,0 c 0.557695,-0.9185 1.000251,-1.9248 1.40625,-3 A 2.2198575,2.2198575 0 0 0 57.625,998.90625 l -1.09375,-0.84375 a 2.2198575,2.2198575 0 0 0 -3.375,0.84375 c -0.678303,1.50185 -1.399982,2.49815 -2.03125,3.06255 a 2.2198575,2.2198575 0 0 0 -0.03125,0 c -0.579469,0.5228 -0.993203,0.6874 -1.6875,0.6874 -0.506978,0 -0.846338,-0.1035 -1.15625,-0.2812 -0.253275,-0.1564 -0.567609,-0.4712 -0.90625,-1.0312 -0.0044,-0.01 -0.02681,-0.023 -0.03125,-0.031 -0.297797,-0.5295 -0.619519,-1.37413 -0.875,-2.53125 -0.242451,-1.14084 -0.375007,-2.56309 -0.375,-4.3125 -7e-6,-3.1282 0.439184,-5.42321 1.0625,-6.78125 a 2.2198575,2.2198575 0 0 0 0,-0.0313 c 0.611113,-1.33952 0.884946,-1.43749 1.65625,-1.4375 0.589294,10e-6 0.897895,0.11386 1.5,0.9375 0.60411,0.82644 1.333482,2.53016 1.9375,5 a 2.2198575,2.2198575 0 0 0 2.15625,1.6875 l 1.125,0 a 2.2198575,2.2198575 0 0 0 2.21875,-2.25 l -0.125,-8.625 a 2.2198575,2.2198575 0 0 0 -2.21875,-2.1875 l -1.125,0 a 2.2198575,2.2198575 0 0 0 -1.28125,0.40625 c -0.271626,-0.1233 -0.489603,-0.29633 -0.78125,-0.40625 -0.0096,-0.004 -0.02159,0.004 -0.03125,0 -1.134759,-0.43408 -2.346698,-0.62498 -3.5625,-0.625 z"
             id="path3816"
             style="font-size:35.36501312000000041px;font-style:normal;font-variant:normal;font-weight:normal;font-stretch:normal;text-align:end;line-height:125%;letter-spacing:0px;word-spacing:0px;text-anchor:end;fill:#e0f4f7;fill-opacity:1;stroke:none;font-family:Andale Mono;-inkscape-font-specification:Andale Mono"
             inkscape:original="M 48.59375 982.375 C 47.198499 982.37502 45.880287 982.69223 44.65625 983.3125 C 43.432197 983.92174 42.404341 984.78753 41.53125 985.90625 C 40.641032 987.04716 39.965214 988.37571 39.46875 989.9375 C 38.980843 991.48824 38.718749 993.20362 38.71875 995.03125 C 38.718749 996.86998 38.980843 998.55414 39.46875 1000.0938 C 39.956655 1001.6223 40.590081 1002.8963 41.4375 1003.9375 C 42.302031 1005.0008 43.335868 1005.8101 44.5 1006.375 C 45.66412 1006.9288 46.914669 1007.2187 48.25 1007.2188 C 49.362758 1007.2188 50.311811 1007.0309 51.125 1006.6875 C 51.946723 1006.3441 52.730014 1005.8904 53.40625 1005.2812 C 54.022537 1004.7274 54.560446 1004.0456 55.03125 1003.2812 C 55.502019 1002.5059 55.913163 1001.631 56.28125 1000.6562 L 55.1875 999.8125 C 54.417105 1001.5183 53.535308 1002.7832 52.59375 1003.625 C 51.660723 1004.4668 50.604603 1004.875 49.40625 1004.875 C 48.584502 1004.875 47.832461 1004.7002 47.15625 1004.3125 C 46.480021 1003.9137 45.902709 1003.2793 45.40625 1002.4375 C 44.944016 1001.6289 44.572275 1000.5681 44.28125 999.25 C 43.998771 997.92081 43.843743 996.34071 43.84375 994.46875 C 43.843743 991.15685 44.254887 988.57766 45.09375 986.75 C 45.932598 984.9113 47.172006 984.00002 48.78125 984 C 50.073761 984.00002 51.163711 984.61427 52.0625 985.84375 C 52.961259 987.07328 53.733003 988.99986 54.375 991.625 L 55.5 991.625 L 55.375 983 L 54.25 983 L 53.46875 983.90625 C 52.895231 983.50751 52.205283 983.15392 51.375 982.84375 C 50.54469 982.52255 49.60379 982.37502 48.59375 982.375 z "
             inkscape:radius="2.2196355"
             sodipodi:type="inkscape:offset" />
          <path
             inkscape:connector-curvature="0"
             id="text3809"
             d="m 48.606673,982.36218 c -1.395251,2e-5 -2.710799,0.31723 -3.934836,0.9375 -1.224053,0.60924 -2.256893,1.47503 -3.129984,2.59375 -0.890218,1.14091 -1.58274,2.46946 -2.079204,4.03125 -0.487907,1.55074 -0.737782,3.26612 -0.737781,5.09375 -10e-7,1.83873 0.249874,3.52286 0.737781,5.06247 0.487905,1.5286 1.142357,2.8026 1.989776,3.8438 0.864531,1.0633 1.876423,1.8726 3.040555,2.4375 1.16412,0.5538 2.420649,0.8437 3.75598,0.8437 1.112758,0 2.070867,-0.1878 2.884056,-0.5312 0.821723,-0.3434 1.581824,-0.7971 2.25806,-1.4063 0.616287,-0.5538 1.161259,-1.2357 1.632063,-2 0.470769,-0.7753 0.883906,-1.6502 1.251993,-2.625 l -1.095494,-0.84372 c -0.770395,1.70582 -1.6295,2.97072 -2.571058,3.81252 -0.933027,0.8418 -1.998701,1.25 -3.197054,1.25 -0.821748,0 -1.581849,-0.1748 -2.25806,-0.5625 -0.676229,-0.3988 -1.247389,-1.0332 -1.743848,-1.875 -0.462234,-0.8086 -0.849183,-1.8694 -1.140208,-3.18752 -0.282479,-1.32919 -0.42479,-2.90929 -0.424783,-4.78125 -7e-6,-3.3119 0.41313,-5.89109 1.251993,-7.71875 0.838848,-1.8387 2.079665,-2.74998 3.688909,-2.75 1.292511,2e-5 2.387694,0.61427 3.286483,1.84375 0.898759,1.22953 1.660776,3.15611 2.302773,5.78125 l 1.140208,0 -0.134141,-8.625 -1.117852,0 -0.782496,0.90625 c -0.573519,-0.39874 -1.271277,-0.75233 -2.10156,-1.0625 -0.83031,-0.3212 -1.762231,-0.46873 -2.772271,-0.46875 z"
             style="font-size:35.36501312px;font-style:normal;font-variant:normal;font-weight:normal;font-stretch:normal;text-align:end;line-height:125%;letter-spacing:0px;word-spacing:0px;text-anchor:end;fill:#000000;fill-opacity:1;stroke:none;font-family:Andale Mono;-inkscape-font-specification:Andale Mono" />
        </g>
      </g>
      <g
         inkscape:label="simboli"
         id="layer5" />
      <g
         inkscape:label="luci-superiori"
         id="layer4">
        <g
           transform="matrix(1.0076012,0,0,1.014293,-1.0512372,0.60533708)"
           id="g4963">
          <path
             sodipodi:nodetypes="ssccscss"
             style="opacity:0.3;fill:#ffffff;fill-opacity:1;stroke:none;display:inline"
             d="m 10.49504,6.668839 c -1.9933517,0 -3.6044917,1.649341 -3.6088027,3.684498 l -0.148217,69.961124 c 1.913686,2.521055 1.665283,2.410772 4.8515137,2.679065 C 13.393749,68.132472 48.088552,9.657054 89.00782,9.657054 c 0.48807,0 0.96327,0.01986 1.4492,0.02901 -0.30286,-1.718031 -1.751,-3.017226 -3.52355,-3.017226 z"
             id="rect4190"
             inkscape:connector-curvature="0" />
          <rect
             transform="matrix(0.90930469,0,0,0.92837735,5.0676273,34.52016)"
             style="fill:url(#linearGradient4967);fill-opacity:1;stroke:none;display:inline"
             id="rect4146"
             width="92"
             height="92"
             x="2"
             y="-30"
             rx="3.9569874"
             ry="3.9569881"
             clip-path="url(#clipPath4156-4-6)" />
        </g>
        <rect
           ry="4.25"
           rx="0"
           y="78.897736"
           x="4.211"
           height="4.25"
           width="84.250008"
           id="rect4131"
           style="opacity:0.55;fill:url(#radialGradient4992);fill-opacity:1;stroke:none;display:inline" />
        <rect
           transform="matrix(0,1,-1,0,0,0)"
           style="opacity:0.55;fill:url(#radialGradient3833-1);fill-opacity:1;stroke:none;display:inline"
           id="rect4141"
           width="76.75"
           height="4.25"
           x="3.3977196"
           y="-89.551903"
           rx="0"
           ry="4.25" />
      </g>
    </g>
  </g>
</svg>
