<?xml version="1.0" encoding="UTF-8" standalone="no"?>
<svg
   xmlns:dc="http://purl.org/dc/elements/1.1/"
   xmlns:cc="http://creativecommons.org/ns#"
   xmlns:rdf="http://www.w3.org/1999/02/22-rdf-syntax-ns#"
   xmlns:svg="http://www.w3.org/2000/svg"
   xmlns="http://www.w3.org/2000/svg"
   xmlns:xlink="http://www.w3.org/1999/xlink"
   xmlns:sodipodi="http://sodipodi.sourceforge.net/DTD/sodipodi-0.dtd"
   xmlns:inkscape="http://www.inkscape.org/namespaces/inkscape"
   sodipodi:docname="emblem-comix.svg"
   inkscape:version="1.0beta2 (2b71d25d45, 2019-12-03)"
   id="svg1072"
   version="1.1"
   viewBox="0 0 32.000000 32.000000"
   height="32"
   width="32">
  <defs
     id="defs1066">
    <linearGradient
       inkscape:collect="always"
       xlink:href="#linearGradient6139-0"
       id="linearGradient4071"
       gradientUnits="userSpaceOnUse"
       gradientTransform="matrix(1.1071428,0,0,1.1071426,-4.9939026,-3.620687)"
       x1="6"
       y1="47.000011"
       x2="90"
       y2="47.000011" />
    <linearGradient
       id="linearGradient6139-0">
      <stop
         id="stop6141-2"
         offset="0"
         style="stop-color:#b2bcb2;stop-opacity:1" />
      <stop
         style="stop-color:#ffffff;stop-opacity:1;"
         offset="0.25"
         id="stop6151-0" />
      <stop
         style="stop-color:#96a497;stop-opacity:1"
         offset="0.5"
         id="stop6147-1" />
      <stop
         id="stop6149-4"
         offset="0.75"
         style="stop-color:#fbf9f9;stop-opacity:1;" />
      <stop
         id="stop6143-4"
         offset="1"
         style="stop-color:#b3bcb2;stop-opacity:1" />
    </linearGradient>
    <linearGradient
       gradientTransform="translate(0.1489535,0.415026)"
       inkscape:collect="always"
       xlink:href="#linearGradient3832-0-6-1-1"
       id="linearGradient4129"
       x1="1.5"
       y1="88.171875"
       x2="94.5"
       y2="88.171875"
       gradientUnits="userSpaceOnUse" />
    <linearGradient
       id="linearGradient3832-0-6-1-1">
      <stop
         style="stop-color:#000000;stop-opacity:1;"
         offset="0"
         id="stop3834-6-3-7-1" />
      <stop
         id="stop3872-2-4"
         offset="0.1"
         style="stop-color:#000000;stop-opacity:0.58823532;" />
      <stop
         style="stop-color:#000000;stop-opacity:0.58823532;"
         offset="0.89999998"
         id="stop3844-6-2-7-6" />
      <stop
         style="stop-color:#000000;stop-opacity:1;"
         offset="1"
         id="stop3836-5-0-2-9" />
    </linearGradient>
    <radialGradient
       inkscape:collect="always"
       xlink:href="#linearGradient3737"
       id="radialGradient7462"
       gradientUnits="userSpaceOnUse"
       gradientTransform="matrix(0.97513378,0,0,0.04919072,34.047649,80.581722)"
       cx="13.948145"
       cy="44.892841"
       fx="13.948145"
       fy="44.892841"
       r="43.199203" />
    <linearGradient
       id="linearGradient3737">
      <stop
         offset="0"
         style="stop-color:#ffffff;stop-opacity:1"
         id="stop3739" />
      <stop
         offset="1"
         style="stop-color:#ffffff;stop-opacity:0"
         id="stop3741" />
    </linearGradient>
    <radialGradient
       inkscape:collect="always"
       xlink:href="#linearGradient3737"
       id="radialGradient7464"
       gradientUnits="userSpaceOnUse"
       gradientTransform="matrix(0.88832663,0,0,0.04919072,31.959518,-90.31726)"
       cx="13.948145"
       cy="44.892841"
       fx="13.948145"
       fy="44.892841"
       r="43.199203" />
    <linearGradient
       inkscape:collect="always"
       xlink:href="#linearGradient3737"
       id="linearGradient4767"
       gradientUnits="userSpaceOnUse"
       x1="2.7713892"
       y1="-28.64156"
       x2="50.527882"
       y2="14.514202" />
    <clipPath
       id="clipPath4156-4-1"
       clipPathUnits="userSpaceOnUse">
      <path
         inkscape:connector-curvature="0"
         id="path4158-0-8"
         d="m 27.046336,-55.695463 -14.21366,13.321486 h 0.06127 l 15.653407,21.770763 10.231384,-10.546177 C 38.561832,-32.30156 27.468089,-54.819245 27.046336,-55.695463 Z M 9.6468554,-39.382809 -5.2407289,-25.32124 15.987863,-7.8059573 26.372412,-18.382966 Z m 31.4906096,12.951445 -9.741259,9.713584 8.944804,12.4580526 7.780753,-7.5550056 z m -49.8397109,4.378822 -13.7541661,12.9822847 26.2830181,13.84571 0.06127,-0.0617 -0.122531,-0.0617 L 13.598503,-5.4007374 -8.7022409,-22.052595 Z m 38.0154159,7.400825 -9.802525,9.7752596 11.579232,9.5594001 7.62759,-7.40083 -8.669108,-11.0087257 z m 20.187073,5.6739697 -7.382526,7.2158 6.187844,8.54179 5.820249,-6.13651996 z m -32.195166,6.32154 -9.5574606,9.49772 13.6622686,7.1849703 7.933918,-7.6783603 z m 23.311629,2.37443004 -7.10683,6.93826996 8.362778,6.9074403 5.360756,-5.6739699 -0.06127,-0.0925 -0.0919,0.12335 -6.463539,-8.20258036 z m -8.730374,8.54178036 -7.505057,7.3391599 10.353916,5.45811 c 1.397496,-1.32103 5.67514,-6.12292 5.850882,-6.32154 z"
         style="opacity:0.6;fill:#ffffff;fill-opacity:1;stroke:none" />
    </clipPath>
    <clipPath
       id="clipPath11530-6">
      <path
         style="display:inline;overflow:visible;visibility:visible;fill:none;stroke:#000000;stroke-width:0.0875215;stroke-linecap:butt;stroke-linejoin:miter;stroke-miterlimit:4;stroke-dasharray:none;stroke-dashoffset:0;stroke-opacity:1;marker:none"
         id="path11532-2"
         inkscape:connector-curvature="0"
         d="m 118.625,209.5 c 2.58333,-0.38773 5.16667,-0.51062 7.75,0.75 0,0 0.28209,5.48132 -1.625,5.625 -2.37827,0.17918 -6.125,-6.375 -6.125,-6.375 z" />
    </clipPath>
    <linearGradient
       y2="191.96733"
       x2="183.49422"
       y1="187.81308"
       x1="182.1021"
       gradientTransform="matrix(-0.88946682,0.76850653,0.76850653,0.88946682,47.848835,-247.30684)"
       gradientUnits="userSpaceOnUse"
       id="linearGradient5285-5"
       xlink:href="#linearGradient11579-4"
       inkscape:collect="always" />
    <linearGradient
       id="linearGradient11579-4">
      <stop
         offset="0"
         style="stop-color:#000000;stop-opacity:1"
         id="stop11581-2" />
      <stop
         offset="1"
         style="stop-color:#000000;stop-opacity:0"
         id="stop11583-1" />
    </linearGradient>
    <clipPath
       id="clipPath1790">
      <path
         style="display:inline;overflow:visible;visibility:visible;fill:none;stroke:#000000;stroke-width:0.0875215;stroke-linecap:butt;stroke-linejoin:miter;stroke-miterlimit:4;stroke-dasharray:none;stroke-dashoffset:0;stroke-opacity:1;marker:none"
         id="path1788"
         inkscape:connector-curvature="0"
         d="m 118.625,209.5 c 2.58333,-0.38773 5.16667,-0.51062 7.75,0.75 0,0 0.28209,5.48132 -1.625,5.625 -2.37827,0.17918 -6.125,-6.375 -6.125,-6.375 z" />
    </clipPath>
    <linearGradient
       y2="191.96733"
       x2="183.49422"
       y1="187.81308"
       x1="182.1021"
       gradientTransform="matrix(0.87751502,0.71465782,-0.71465782,0.87751502,40.280063,-235.11426)"
       gradientUnits="userSpaceOnUse"
       id="linearGradient5287-1"
       xlink:href="#linearGradient11579-4"
       inkscape:collect="always" />
    <linearGradient
       y2="175.375"
       x2="316.6875"
       y1="175.375"
       x1="312.3125"
       gradientUnits="userSpaceOnUse"
       id="linearGradient5289-2"
       xlink:href="#linearGradient3737"
       inkscape:collect="always" />
    <clipPath
       id="clipPath5690-5">
      <path
         style="display:inline;overflow:visible;visibility:visible;fill:#e9b96e;fill-opacity:1;fill-rule:nonzero;stroke:url(#radialGradient5694) #000000;stroke-width:0.61879402;stroke-linecap:round;stroke-linejoin:round;stroke-miterlimit:4;stroke-dasharray:none;stroke-dashoffset:0;stroke-opacity:1;marker:none"
         id="path5692-8"
         transform="matrix(0.70852,0,0,0.709344,91.3497,52.938)"
         d="m 314.96875,169.4375 c -4.64751,0 -8.40625,3.75874 -8.40625,8.40625 0,4.64751 3.75874,8.40625 8.40625,8.40625 4.64751,0 8.40625,-3.75874 8.40625,-8.40625 0,-4.64751 -3.75874,-8.40625 -8.40625,-8.40625 z"
         inkscape:connector-curvature="0" />
    </clipPath>
    <radialGradient
       r="81.986084"
       fy="273.69705"
       fx="140.19348"
       cy="273.69705"
       cx="140.19348"
       gradientTransform="matrix(0.34793389,0,0,0.1858159,-1.025058,26.297321)"
       gradientUnits="userSpaceOnUse"
       id="radialGradient5291-8"
       xlink:href="#linearGradient3737"
       inkscape:collect="always" />
    <radialGradient
       r="8.6255913"
       fy="169.69044"
       fx="315.07254"
       cy="169.69044"
       cx="315.07254"
       gradientTransform="matrix(5.3617615,0,-1.9488388e-4,-5.7880424,-1641.1622,1057.9798)"
       gradientUnits="userSpaceOnUse"
       id="radialGradient5293-0"
       xlink:href="#linearGradient6499-0"
       inkscape:collect="always" />
    <linearGradient
       id="linearGradient6499-0">
      <stop
         offset="0"
         style="stop-color:#ffffff;stop-opacity:1"
         id="stop6501-2" />
      <stop
         offset="1"
         style="stop-color:#a7cc5c;stop-opacity:0.24193548"
         id="stop6503-0" />
    </linearGradient>
    <radialGradient
       r="9.4960012"
       fy="69.5896"
       fx="177.5556"
       cy="69.5896"
       cx="177.5556"
       gradientTransform="matrix(-0.36222413,0.36349754,0.25844804,0.21843402,71.990492,-54.35668)"
       gradientUnits="userSpaceOnUse"
       id="radialGradient5295-5"
       xlink:href="#linearGradient11579-4"
       inkscape:collect="always" />
    <radialGradient
       r="9.4960012"
       fy="69.5896"
       fx="177.5556"
       cy="69.5896"
       cx="177.5556"
       gradientTransform="matrix(-0.43749926,0.46330588,0.33324397,0.29623182,79.7428,-76.737149)"
       gradientUnits="userSpaceOnUse"
       id="radialGradient5297-6"
       xlink:href="#linearGradient11579-4"
       inkscape:collect="always" />
    <radialGradient
       r="0.82419753"
       fy="170.59293"
       fx="318.60828"
       cy="170.59293"
       cx="318.60828"
       gradientTransform="matrix(-4.0663348,3.8765746,16.145161,14.87524,-1434.5642,-3745.8687)"
       gradientUnits="userSpaceOnUse"
       id="radialGradient5299-4"
       xlink:href="#linearGradient6820-0"
       inkscape:collect="always" />
    <linearGradient
       id="linearGradient6820-0">
      <stop
         offset="0"
         style="stop-color:#063a42;stop-opacity:1;"
         id="stop6822-0" />
      <stop
         offset="1"
         style="stop-color:#131f23;stop-opacity:1;"
         id="stop6824-4" />
    </linearGradient>
    <linearGradient
       y2="57.766956"
       x2="180.91669"
       y1="55.164879"
       x1="169.5137"
       gradientUnits="userSpaceOnUse"
       id="linearGradient5301-3"
       xlink:href="#linearGradient6597-7"
       inkscape:collect="always" />
    <linearGradient
       id="linearGradient6597-7">
      <stop
         offset="0"
         style="stop-color:#eeeeec;stop-opacity:0"
         id="stop6599-7" />
      <stop
         offset="0.52820206"
         style="stop-color:#ffffff;stop-opacity:1"
         id="stop6605-7" />
      <stop
         offset="1"
         style="stop-color:#eeeeec;stop-opacity:0"
         id="stop6601-3" />
    </linearGradient>
    <filter
       id="filter6531-9"
       height="1.125445"
       width="1.6388071"
       y="-0.062722519"
       x="-0.31940347"
       style="color-interpolation-filters:sRGB">
      <feGaussianBlur
         id="feGaussianBlur6533-2"
         stdDeviation="0.6221794" />
    </filter>
    <radialGradient
       r="9.4960012"
       fy="69.5896"
       fx="177.5556"
       cy="69.5896"
       cx="177.5556"
       gradientTransform="matrix(0.36047392,0.34683731,-0.22133495,0.24219457,22.042061,-53.50232)"
       gradientUnits="userSpaceOnUse"
       id="radialGradient5305-5"
       xlink:href="#linearGradient11579-4"
       inkscape:collect="always" />
    <radialGradient
       r="9.4960012"
       fy="69.5896"
       fx="177.5556"
       cy="69.5896"
       cx="177.5556"
       gradientTransform="matrix(0.46102276,0.44263304,-0.29978189,0.32638093,10.049839,-75.164717)"
       gradientUnits="userSpaceOnUse"
       id="radialGradient5307-5"
       xlink:href="#linearGradient11579-4"
       inkscape:collect="always" />
    <radialGradient
       r="0.82419753"
       fy="170.59293"
       fx="318.60828"
       cy="170.59293"
       cx="318.60828"
       gradientTransform="matrix(4.536031,3.517099,-15.494919,15.686512,1270.7946,-3769.7044)"
       gradientUnits="userSpaceOnUse"
       id="radialGradient5309-4"
       xlink:href="#linearGradient6820-0"
       inkscape:collect="always" />
    <radialGradient
       r="4.8357935"
       fy="58.523705"
       fx="173.32843"
       cy="58.523705"
       cx="173.32843"
       gradientTransform="matrix(1.30576,0.343183,-2.81145,10.6971,110.55,-617.947)"
       gradientUnits="userSpaceOnUse"
       id="radialGradient5311-8"
       xlink:href="#linearGradient3737"
       inkscape:collect="always" />
    <filter
       id="filter6444-3"
       height="1.1785088"
       width="1.5371137"
       y="-0.089254402"
       x="-0.26855683"
       style="color-interpolation-filters:sRGB">
      <feGaussianBlur
         id="feGaussianBlur6446-7"
         stdDeviation="1.0822378" />
    </filter>
    <radialGradient
       r="16.25"
       fy="172.86737"
       fx="142.75"
       cy="172.86737"
       cx="142.75"
       gradientTransform="matrix(1,0,0,0.492308,0,89.6458)"
       gradientUnits="userSpaceOnUse"
       id="radialGradient5315-6"
       xlink:href="#linearGradient12297-2"
       inkscape:collect="always" />
    <linearGradient
       id="linearGradient12297-2">
      <stop
         offset="0"
         style="stop-color:#fdd6bc;stop-opacity:1;"
         id="stop12299-9" />
      <stop
         offset="1"
         style="stop-color:#fdccbc;stop-opacity:0;"
         id="stop12301-0" />
    </linearGradient>
    <filter
       id="filter12325-0"
       height="1.1636821"
       width="1.2140481"
       y="-0.081841066"
       x="-0.10702404"
       style="color-interpolation-filters:sRGB">
      <feGaussianBlur
         id="feGaussianBlur12327-7"
         stdDeviation="1.4492839" />
    </filter>
    <radialGradient
       r="8.5"
       fy="104.07143"
       fx="172.5"
       cy="104.07143"
       cx="172.5"
       gradientTransform="matrix(0.25018765,-5.9396243e-8,2.1739794e-7,0.16540176,23.469301,27.604958)"
       gradientUnits="userSpaceOnUse"
       id="radialGradient5317-7"
       xlink:href="#linearGradient12477-2"
       inkscape:collect="always" />
    <linearGradient
       id="linearGradient12477-2">
      <stop
         offset="0"
         style="stop-color:#616161;stop-opacity:1"
         id="stop12479-7" />
      <stop
         offset="1"
         style="stop-color:#000000;stop-opacity:1"
         id="stop12481-1" />
    </linearGradient>
    <radialGradient
       r="16.25"
       fy="172.86737"
       fx="142.75"
       cy="172.86737"
       cx="142.75"
       gradientTransform="matrix(1,0,0,0.492308,0,89.6458)"
       gradientUnits="userSpaceOnUse"
       id="radialGradient5321-7"
       xlink:href="#linearGradient12297-2"
       inkscape:collect="always" />
    <filter
       id="filter1884"
       height="1.1636821"
       width="1.2140481"
       y="-0.081841066"
       x="-0.10702404"
       style="color-interpolation-filters:sRGB">
      <feGaussianBlur
         id="feGaussianBlur1882"
         stdDeviation="1.4492839" />
    </filter>
    <radialGradient
       r="8.5"
       fy="104.07143"
       fx="172.5"
       cy="104.07143"
       cx="172.5"
       gradientTransform="matrix(0.25018765,-5.9396243e-8,2.1739794e-7,0.16540176,-13.486176,27.604958)"
       gradientUnits="userSpaceOnUse"
       id="radialGradient5323-9"
       xlink:href="#linearGradient12477-2"
       inkscape:collect="always" />
  </defs>
  <sodipodi:namedview
     inkscape:document-rotation="0"
     inkscape:window-maximized="1"
     inkscape:window-y="21"
     inkscape:window-x="0"
     inkscape:window-height="1029"
     inkscape:window-width="1920"
     inkscape:lockguides="false"
     units="px"
     inkscape:showpageshadow="false"
     showgrid="false"
     inkscape:current-layer="g2574"
     inkscape:document-units="px"
     inkscape:cy="44.557005"
     inkscape:cx="9.1567148"
     inkscape:zoom="4.4495458"
     inkscape:pageshadow="2"
     inkscape:pageopacity="0.0"
     borderopacity="1.0"
     bordercolor="#666666"
     pagecolor="#ffffff"
     id="base" />
  <metadata
     id="metadata1069">
    <rdf:RDF>
      <cc:Work
         rdf:about="">
        <dc:format>image/svg+xml</dc:format>
        <dc:type
           rdf:resource="http://purl.org/dc/dcmitype/StillImage" />
        <dc:title />
        <dc:date>2017</dc:date>
        <dc:creator>
          <cc:Agent>
            <dc:title>Cristian Pozzessere &quot;ilnanny&quot;</dc:title>
          </cc:Agent>
        </dc:creator>
        <dc:subject>
          <rdf:Bag>
            <rdf:li>Global language</rdf:li>
          </rdf:Bag>
        </dc:subject>
        <dc:description>Playing with Inkscape on Gnu/Linux O. S.</dc:description>
        <dc:contributor>
          <cc:Agent>
            <dc:title>In the night, alone like a dog.</dc:title>
          </cc:Agent>
        </dc:contributor>
        <cc:license
           rdf:resource="http://creativecommons.org/licenses/by-sa/4.0/" />
      </cc:Work>
      <cc:License
         rdf:about="http://creativecommons.org/licenses/by-sa/4.0/">
        <cc:permits
           rdf:resource="http://creativecommons.org/ns#Reproduction" />
        <cc:permits
           rdf:resource="http://creativecommons.org/ns#Distribution" />
        <cc:requires
           rdf:resource="http://creativecommons.org/ns#Notice" />
        <cc:requires
           rdf:resource="http://creativecommons.org/ns#Attribution" />
        <cc:permits
           rdf:resource="http://creativecommons.org/ns#DerivativeWorks" />
        <cc:requires
           rdf:resource="http://creativecommons.org/ns#ShareAlike" />
      </cc:License>
    </rdf:RDF>
  </metadata>
  <g
     transform="translate(0,-1026.5197)"
     id="layer1"
     inkscape:groupmode="layer"
     inkscape:label="Livello 1">
    <g
       id="g2574"
       style="display:inline"
       transform="translate(-0.14895645,1026.1047)">
      <g
         transform="matrix(0.32291666,0,0,0.32291667,0.60085625,0.78098103)"
         id="g1002">
        <path
           inkscape:connector-curvature="0"
           id="path3288"
           d="M 89.29181,0.415026 H 7.0060911 c -3.798848,0 -6.8571352,3.058285 -6.8571352,6.8571399 V 89.557884 c 0,3.798857 3.0582872,6.857142 6.8571352,6.857142 H 89.29181 c 3.798857,0 6.857147,-3.058285 6.857147,-6.857142 V 7.2721659 c 0,-3.7988549 -3.05829,-6.8571399 -6.857147,-6.8571399 z"
           style="display:inline;opacity:0.15;fill:#000000;fill-opacity:1;fill-rule:nonzero;stroke:none" />
        <path
           style="display:inline;opacity:0.15;fill:#000000;fill-opacity:1;fill-rule:nonzero;stroke:none"
           d="M 88.648954,1.165026 H 7.6489471 c -3.739492,0 -6.749993,3.010499 -6.749993,6.7499969 V 88.915026 c 0,3.739501 3.010501,6.75 6.749993,6.75 H 88.648954 c 3.739503,0 6.750003,-3.010499 6.750003,-6.75 V 7.9150229 c 0,-3.7394979 -3.0105,-6.7499969 -6.750003,-6.7499969 z"
           id="path4085"
           inkscape:connector-curvature="0" />
        <path
           inkscape:connector-curvature="0"
           id="rect4251-1"
           d="M 88.006093,1.915026 H 8.2918111 c -3.680143,0 -6.6428566,2.962713 -6.6428566,6.6428549 V 88.272171 c 0,3.680142 2.9627136,6.642856 6.6428566,6.642856 H 88.006093 c 3.680143,0 6.642854,-2.962714 6.642854,-6.642856 V 8.5578809 c 0,-3.6801419 -2.962711,-6.6428549 -6.642854,-6.6428549 z"
           style="display:inline;fill:url(#linearGradient4071);fill-opacity:1;fill-rule:nonzero;stroke:none" />
        <path
           sodipodi:nodetypes="sscccsccscccsss"
           inkscape:connector-curvature="0"
           id="path3400-6"
           d="m 11.390247,6.8021682 c -2.8564964,0 -5.1241284,2.3146876 -5.1241284,5.2304538 v 21.67369 7.322634 40.372561 c 1.0972399,1.70385 2.9688485,2.844058 5.1241284,2.844058 h 4.099303 65.588849 4.099302 c 2.155281,0 4.026889,-1.140208 5.124129,-2.844058 V 41.028946 33.706312 12.032622 c 0,-2.9157662 -2.267632,-5.2304538 -5.124129,-5.2304538 z"
           style="display:inline;opacity:0.778646;fill:#f3f5f3;fill-opacity:1;fill-rule:nonzero;stroke:none;stroke-width:1.0354" />
        <path
           style="color:#000000;font-style:normal;font-variant:normal;font-weight:normal;font-stretch:normal;font-size:medium;line-height:normal;font-family:Sans;-inkscape-font-specification:Sans;text-indent:0;text-align:start;text-decoration:none;text-decoration-line:none;letter-spacing:normal;word-spacing:normal;text-transform:none;writing-mode:lr-tb;direction:ltr;baseline-shift:baseline;text-anchor:start;display:inline;overflow:visible;visibility:visible;fill:#241f1f;fill-opacity:0.632653;stroke:none;stroke-width:2.3755;marker:none;enable-background:accumulate"
           d="m 9.9740341,5.1444869 c -3.116621,0 -5.667965,2.53951 -5.667965,5.6460041 v 69.277996 c 0,3.106495 2.551344,5.646004 5.667965,5.646004 H 86.765819 c 3.116621,0 5.667968,-2.539509 5.667968,-5.646004 V 10.790491 c 0,-3.1064931 -2.551347,-5.6460041 -5.667968,-5.6460041 z m 0,2.319439 H 86.765819 c 1.888099,0 3.352022,1.480095 3.352022,3.3265651 v 69.277996 c 0,1.846474 -1.463923,3.326564 -3.352022,3.326564 H 9.9740341 c -1.888099,0 -3.352022,-1.48009 -3.352022,-3.326564 V 10.790491 c 0,-1.8464701 1.463923,-3.3265651 3.352022,-3.3265651 z"
           id="path4989"
           inkscape:connector-curvature="0" />
        <path
           id="path4118"
           d="m 1.6489535,82.258776 v 6 c 0,3.680142 2.9761066,6.65625 6.6562496,6.65625 H 87.992703 c 3.680143,0 6.656254,-2.976108 6.656254,-6.65625 v -6 c 0,3.680142 -2.976111,6.65625 -6.656254,6.65625 H 8.3052031 c -3.680143,0 -6.6562496,-2.976108 -6.6562496,-6.65625 z"
           style="display:inline;opacity:0.658182;fill:url(#linearGradient4129);fill-opacity:1;fill-rule:nonzero;stroke:none"
           inkscape:connector-curvature="0" />
        <rect
           ry="4.25"
           rx="0"
           y="80.665031"
           x="5.5239539"
           height="4.25"
           width="84.250008"
           id="rect4131"
           style="opacity:0.55;fill:url(#radialGradient7462);fill-opacity:1;stroke:none" />
        <rect
           transform="rotate(90)"
           style="opacity:0.669;fill:url(#radialGradient7464);fill-opacity:1;stroke:none"
           id="rect4141"
           width="76.75"
           height="4.25"
           x="5.9750223"
           y="-90.233963"
           rx="0"
           ry="4.25" />
        <path
           d="m 81.087067,45.822786 a 32.938112,32.938112 0 1 0 -65.876221,0 32.938112,32.938112 0 0 0 65.876221,0 z"
           id="path6824"
           style="display:inline;overflow:visible;visibility:visible;fill:#9ade00;fill-opacity:1;fill-rule:nonzero;stroke:#009100;stroke-width:1.25043;stroke-linecap:round;stroke-linejoin:round;stroke-miterlimit:4;stroke-dasharray:none;stroke-dashoffset:0;stroke-opacity:1;marker:none"
           inkscape:connector-curvature="0" />
        <path
           style="display:inline;overflow:visible;visibility:visible;fill:#a4ac9b;fill-opacity:1;fill-rule:nonzero;stroke:none;stroke-width:67.1537;marker:none"
           id="path5839"
           inkscape:connector-curvature="0"
           d="m 25.947173,60.010196 c 2.972615,-0.769129 5.97768,-1.229702 9.152305,-0.07133 0,0 1.001079,6.37354 -1.211136,6.774975 -2.758439,0.500923 -7.941099,-6.702969 -7.941099,-6.702969 z" />
        <path
           style="display:inline;overflow:visible;visibility:visible;opacity:0.6;fill:none;stroke:#000000;stroke-width:1.4519;stroke-linecap:butt;stroke-linejoin:miter;stroke-miterlimit:4;stroke-dasharray:none;stroke-dashoffset:0;stroke-opacity:1;marker:none"
           id="path5841"
           clip-path="url(#clipPath11530-6)"
           transform="matrix(1.1690854,-0.12244292,0.12244292,1.1690854,-138.3866,-170.38843)"
           inkscape:connector-curvature="0"
           d="m 118.625,209.5 c 2.58333,-0.38773 5.16667,-0.51062 7.75,0.75 0,0 0.28209,5.48132 -1.625,5.625 -2.37827,0.17918 -6.125,-6.375 -6.125,-6.375 z" />
        <path
           style="display:inline;overflow:visible;visibility:visible;fill:#ffffff;fill-opacity:1;fill-rule:nonzero;stroke:none;stroke-width:13.4307;marker:none"
           id="path5843"
           inkscape:connector-curvature="0"
           d="m 33.181299,65.605326 c -2.238704,-0.953901 -3.999321,-3.181359 -5.626662,-5.763488 l 3.053548,-0.467007 c 0.250336,2.352825 1.195751,4.389899 2.57317,6.231029 z" />
        <path
           d="m 35.088629,59.975478 0.259742,3.00226 C 30.90762,60.189408 28.548599,60.146139 28.049804,62.555809 L 25.882792,59.96555 c 2.831946,-0.50822 5.558514,-1.244008 9.207157,0.0093 z"
           inkscape:connector-curvature="0"
           id="path5845"
           style="display:inline;overflow:visible;visibility:visible;opacity:0.3083;fill:url(#linearGradient5285-5);fill-opacity:1;fill-rule:nonzero;stroke:none;stroke-width:13.4307;marker:none" />
        <path
           style="display:inline;overflow:visible;visibility:visible;fill:#a4ac9b;fill-opacity:1;fill-rule:nonzero;stroke:none;stroke-width:64.6533;marker:none"
           id="path5827"
           inkscape:connector-curvature="0"
           d="M 69.967169,60.020947 C 67.084901,59.36405 64.180053,59.005 61.157484,60.207425 c 0,0 -0.784833,6.161655 1.355347,6.486007 2.668636,0.404776 7.454379,-6.673133 7.454379,-6.673133 z" />
        <path
           style="display:inline;overflow:visible;visibility:visible;opacity:0.6;fill:none;stroke:#000000;stroke-width:1.62596;stroke-linecap:butt;stroke-linejoin:miter;stroke-miterlimit:4;stroke-dasharray:none;stroke-dashoffset:0;stroke-opacity:1;marker:none"
           id="path5829"
           clip-path="url(#clipPath11530-6)"
           transform="matrix(-1.1285075,-0.08508033,-0.08508033,1.1285075,221.65995,-166.30874)"
           inkscape:connector-curvature="0"
           d="m 118.625,209.5 c 2.58333,-0.38773 5.16667,-0.51062 7.75,0.75 0,0 0.28209,5.48132 -1.625,5.625 -2.37827,0.17918 -6.125,-6.375 -6.125,-6.375 z" />
        <path
           style="display:inline;overflow:visible;visibility:visible;fill:#ffffff;fill-opacity:1;fill-rule:nonzero;stroke:none;stroke-width:12.9306;marker:none"
           id="path5831"
           inkscape:connector-curvature="0"
           d="m 63.162112,65.608132 c 2.127703,-0.980716 3.759641,-3.17365 5.253377,-5.704176 l -2.951684,-0.36387 c -0.174998,2.271261 -1.027746,4.258149 -2.301734,6.06856 z" />
        <path
           d="m 61.168841,60.243438 -0.165933,2.896626 c 4.195548,-2.807889 6.464559,-2.915619 7.012183,-0.610545 l 2.012871,-2.553475 c -2.739666,-0.409647 -5.384129,-1.041446 -8.860426,0.266325 z"
           inkscape:connector-curvature="0"
           id="path5833"
           style="display:inline;overflow:visible;visibility:visible;opacity:0.158103;fill:url(#linearGradient5287-1);fill-opacity:1;fill-rule:nonzero;stroke:none;stroke-width:12.9306;marker:none" />
        <path
           d="M 19.66161,59.479838 H 76.701197"
           inkscape:connector-curvature="0"
           id="path2591"
           style="fill:none;stroke:#000000;stroke-width:1.25033;stroke-linecap:butt;stroke-linejoin:miter;stroke-miterlimit:4;stroke-dasharray:none;stroke-opacity:1" />
        <path
           d="m 316.6875,175.375 a 2.1875,2.1875 0 1 1 -4.375,0 2.1875,2.1875 0 1 1 4.375,0 z"
           transform="matrix(0,5.9435502,-10.320373,0,1857.9268,-1840.6822)"
           clip-path="url(#clipPath5690-5)"
           id="path6826"
           style="display:inline;overflow:visible;visibility:visible;opacity:0.8;fill:url(#linearGradient5289-2);fill-opacity:1;fill-rule:nonzero;stroke:none;stroke-width:0.46253;marker:none"
           inkscape:connector-curvature="0" />
        <path
           d="M 19.231219,46.685955 C 18.674816,87.385793 77.06885,86.130633 76.270635,49.961724 75.516419,84.292915 20.06085,85.370651 19.242091,46.685955 Z"
           inkscape:connector-curvature="0"
           id="path6840"
           style="opacity:0.399015;fill:url(#radialGradient5291-8);fill-opacity:1;fill-rule:evenodd;stroke:none;stroke-width:1.02777" />
        <path
           d="m 48.14501,77.793464 c -17.660412,0 -31.943521,-14.283106 -31.943521,-31.943514 0,-17.660419 14.283109,-31.943525 31.943521,-31.943525 17.660414,0 31.94352,14.283106 31.94352,31.943525 0,17.660408 -14.283106,31.943514 -31.94352,31.943514 z"
           id="path7025"
           style="display:inline;overflow:visible;visibility:visible;fill:none;stroke:url(#radialGradient5293-0);stroke-width:0.972006;stroke-linecap:round;stroke-linejoin:round;stroke-miterlimit:4;stroke-dasharray:none;stroke-dashoffset:0;stroke-opacity:1;marker:none"
           inkscape:connector-curvature="0" />
        <path
           d="m 22.221167,28.836839 a 3.1944294,4.8854365 48.441389 1 0 6.879362,-6.903538 3.1944294,4.8854365 48.441389 1 0 -6.879362,6.903538 z"
           id="path5884"
           style="display:inline;overflow:visible;visibility:visible;fill:url(#radialGradient5295-5);fill-opacity:1;fill-rule:nonzero;stroke:none;stroke-width:0.514107;marker:none"
           inkscape:connector-curvature="0" />
        <path
           d="m 21.098165,30.539601 a 4.2302853,6.0537285 45.007099 1 0 8.308985,-8.799109 4.2302853,6.0537285 45.007099 1 0 -8.308985,8.799109 z"
           id="path5886"
           style="display:inline;overflow:visible;visibility:visible;opacity:0.60396;fill:url(#radialGradient5297-6);fill-opacity:1;fill-rule:nonzero;stroke:none;stroke-width:0.65857;marker:none"
           inkscape:connector-curvature="0" />
        <path
           style="display:inline;overflow:visible;visibility:visible;fill:url(#radialGradient5299-4);fill-opacity:1;fill-rule:nonzero;stroke:none;stroke-width:2.55411;marker:none"
           id="path5888"
           inkscape:connector-curvature="0"
           d="m 27.328804,20.593084 c 4.24261,1.828817 -1.200235,9.858212 -5.301574,6.912479 -4.588967,-3.295965 -5.100439,-10.693981 -3.760338,-14.749578 0.293883,-0.892461 1.923796,-0.888289 2.131038,-0.05838 0.872203,3.492556 4.152478,6.697954 6.930874,7.895456 z" />
        <path
           style="display:inline;overflow:visible;visibility:visible;opacity:0.445545;fill:url(#linearGradient5301-3);fill-opacity:1;fill-rule:nonzero;stroke:none;stroke-width:1;marker:none;filter:url(#filter6531-9)"
           id="path5890"
           transform="matrix(-0.45298111,0.21478806,0.22918008,0.42453486,89.769802,-41.08954)"
           inkscape:connector-curvature="0"
           d="m 174.77724,40.6145 c 0.70089,7.224853 0.0346,13.617072 -5.26353,23.170447 1.29167,2.459055 2.65061,4.881692 6.54732,5.930312 5.59619,-12.023014 2.73915,-21.291555 -1.28379,-29.100759 z" />
        <path
           d="m 74.066683,28.22836 a 4.7514383,3.1138032 45.004759 1 1 -6.846117,-6.587129 4.7514383,3.1138032 45.004759 1 1 6.846117,6.587129 z"
           id="path5869"
           style="display:inline;overflow:visible;visibility:visible;fill:url(#radialGradient5305-5);fill-opacity:1;fill-rule:nonzero;stroke:none;stroke-width:0.500568;marker:none"
           inkscape:connector-curvature="0" />
        <path
           d="m 75.423201,30.343205 a 6.0703962,4.2063031 45.005038 1 1 -8.755748,-8.406492 6.0703962,4.2063031 45.005038 1 1 8.755748,8.406492 z"
           id="path5871"
           style="display:inline;overflow:visible;visibility:visible;opacity:0.60396;fill:url(#radialGradient5307-5);fill-opacity:1;fill-rule:nonzero;stroke:none;stroke-width:0.657604;marker:none"
           inkscape:connector-curvature="0" />
        <path
           style="display:inline;overflow:visible;visibility:visible;fill:url(#radialGradient5309-4);fill-opacity:1;fill-rule:nonzero;stroke:none;stroke-width:2.48412;marker:none"
           id="path5873"
           inkscape:connector-curvature="0"
           d="m 68.841169,20.971517 c -4.244686,2.084259 2.062881,9.574744 6.068313,6.405935 4.481606,-3.545496 4.396672,-10.828259 2.671041,-14.708941 -0.378711,-0.85394 -2.067567,-0.73697 -2.213181,0.08993 -0.613505,3.481754 -3.746517,6.848285 -6.526173,8.213107 z" />
        <path
           style="display:inline;overflow:visible;visibility:visible;opacity:0.668317;fill:url(#radialGradient5311-8);fill-opacity:1;fill-rule:nonzero;stroke:none;stroke-width:1;marker:none;filter:url(#filter6444-3)"
           id="path5876"
           transform="matrix(0.48726739,0.17916079,-0.20221818,0.43170802,-0.99149119,-35.147272)"
           inkscape:connector-curvature="0"
           d="m 174.77724,40.6145 c 0.70089,7.224853 0.0346,13.617072 -5.26353,23.170447 1.29167,2.459055 2.65061,4.881692 6.54732,5.930312 5.59619,-12.023014 2.73915,-21.291555 -1.28379,-29.100759 z" />
        <path
           d="m 126.5,187 c 0,0 2.21085,-41.34679 15.5,-41.5 13.73126,-0.15831 17,42.5 17,42.5 -15.30721,-21.80794 -23.64549,-10.16504 -32.5,-1 z"
           inkscape:connector-curvature="0"
           transform="matrix(0.2471939,0,0,-0.20793144,31.339754,87.324034)"
           id="path3893"
           style="display:inline;opacity:0.994595;fill:url(#radialGradient5315-6);fill-opacity:1;fill-rule:evenodd;stroke:none;filter:url(#filter12325-0)" />
        <path
           d="m 70.643583,46.62616 a 4.0169,4.0168998 0 1 1 -8.033793,0 4.0169,4.0168998 0 1 1 8.033793,0 z"
           id="path13214"
           style="display:inline;overflow:visible;visibility:visible;fill:url(#radialGradient5317-7);fill-opacity:1;fill-rule:nonzero;stroke:none;stroke-width:0.334162;marker:none"
           inkscape:connector-curvature="0" />
        <path
           inkscape:connector-curvature="0"
           style="display:inline;overflow:visible;visibility:visible;fill:#eeeeec;fill-opacity:1;fill-rule:nonzero;stroke:none;stroke-width:1.82313;marker:none"
           id="path2658"
           d="m 67.370959,44.399196 a 0.74424162,0.73707458 0 1 1 -1.488483,0 0.74424162,0.73707458 0 1 1 1.488483,0 z" />
        <path
           d="m 126.5,187 c 0,0 2.21085,-41.34679 15.5,-41.5 13.73126,-0.15831 17,42.5 17,42.5 -15.30721,-21.80794 -23.64549,-10.16504 -32.5,-1 z"
           inkscape:connector-curvature="0"
           transform="matrix(0.2471939,0,0,-0.20793144,-5.6157226,87.324034)"
           id="path2762"
           style="display:inline;opacity:0.994595;fill:url(#radialGradient5321-7);fill-opacity:1;fill-rule:evenodd;stroke:none;filter:url(#filter12325-0)" />
        <path
           d="m 33.688108,46.62616 a 4.0169,4.0168998 0 1 1 -8.033799,0 4.0169,4.0168998 0 1 1 8.033799,0 z"
           id="path2768"
           style="display:inline;overflow:visible;visibility:visible;fill:url(#radialGradient5323-9);fill-opacity:1;fill-rule:nonzero;stroke:none;stroke-width:0.334162;marker:none"
           inkscape:connector-curvature="0" />
        <path
           inkscape:connector-curvature="0"
           style="display:inline;overflow:visible;visibility:visible;fill:#eeeeec;fill-opacity:1;fill-rule:nonzero;stroke:none;stroke-width:1.82313;marker:none"
           id="path2772"
           d="m 30.415468,44.399196 a 0.74424018,0.73707315 0 1 1 -1.48848,0 0.74424018,0.73707315 0 1 1 1.48848,0 z" />
        <rect
           clip-path="url(#clipPath4156-4-1)"
           ry="3.9569881"
           rx="3.9569874"
           y="-30"
           x="2"
           height="69.024437"
           width="75.965775"
           id="rect4146"
           style="opacity:0.507812;fill:url(#linearGradient4767);fill-opacity:1;stroke:none"
           transform="matrix(1.0692451,0,0,1.0476829,4.4441802,38.894013)" />
      </g>
    </g>
  </g>
</svg>
