<?xml version="1.0" encoding="UTF-8" standalone="no"?>
<!-- Created with Inkscape (http://www.inkscape.org/) -->

<svg
   xmlns:dc="http://purl.org/dc/elements/1.1/"
   xmlns:cc="http://creativecommons.org/ns#"
   xmlns:rdf="http://www.w3.org/1999/02/22-rdf-syntax-ns#"
   xmlns:svg="http://www.w3.org/2000/svg"
   xmlns="http://www.w3.org/2000/svg"
   xmlns:xlink="http://www.w3.org/1999/xlink"
   xmlns:sodipodi="http://sodipodi.sourceforge.net/DTD/sodipodi-0.dtd"
   xmlns:inkscape="http://www.inkscape.org/namespaces/inkscape"
   width="96"
   height="96"
   id="svg1307"
   sodipodi:version="0.32"
   inkscape:version="0.92.1 r15371"
   version="1.0"
   sodipodi:docname="audio-headphones.svg"
   inkscape:output_extension="org.inkscape.output.svg.inkscape">
  <defs
     id="defs1309">
    <linearGradient
       inkscape:collect="always"
       id="linearGradient63013">
      <stop
         style="stop-color:#ffffff;stop-opacity:1;"
         offset="0"
         id="stop63015" />
      <stop
         style="stop-color:#ffffff;stop-opacity:0;"
         offset="1"
         id="stop63017" />
    </linearGradient>
    <linearGradient
       id="linearGradient12658">
      <stop
         style="stop-color:#ffffff;stop-opacity:1;"
         offset="0"
         id="stop12660" />
      <stop
         style="stop-color:#000000;stop-opacity:0;"
         offset="1"
         id="stop12662" />
    </linearGradient>
    <linearGradient
       id="linearGradient2803">
      <stop
         style="stop-color:#e2dcdc;stop-opacity:1;"
         offset="0"
         id="stop2809" />
      <stop
         id="stop2811"
         offset="0.39074388"
         style="stop-color:#ffffff;stop-opacity:1;" />
      <stop
         id="stop2813"
         offset="0.82692307"
         style="stop-color:#dfd9df;stop-opacity:1;" />
      <stop
         id="stop2815"
         offset="1"
         style="stop-color:#c3c3c3;stop-opacity:1;" />
    </linearGradient>
    <linearGradient
       id="linearGradient2334">
      <stop
         id="stop2346"
         offset="0"
         style="stop-color:#dfe1e1;stop-opacity:1;" />
      <stop
         style="stop-color:#554141;stop-opacity:1;"
         offset="0"
         id="stop20557" />
      <stop
         id="stop2342"
         offset="0.5"
         style="stop-color:#e2dcdc;stop-opacity:1;" />
      <stop
         style="stop-color:#ffffff;stop-opacity:1;"
         offset="0.78201604"
         id="stop2348" />
      <stop
         style="stop-color:#dfd9df;stop-opacity:1;"
         offset="1"
         id="stop2344" />
    </linearGradient>
    <linearGradient
       id="linearGradient2270">
      <stop
         style="stop-color:#000000;stop-opacity:1;"
         offset="0"
         id="stop2272" />
      <stop
         id="stop2286"
         offset="0.11893105"
         style="stop-color:#141414;stop-opacity:1;" />
      <stop
         id="stop2282"
         offset="0.17597927"
         style="stop-color:#282828;stop-opacity:1;" />
      <stop
         style="stop-color:#363636;stop-opacity:1;"
         offset="0.50941366"
         id="stop2284" />
      <stop
         style="stop-color:#303030;stop-opacity:1;"
         offset="0.84284806"
         id="stop2280" />
      <stop
         id="stop2288"
         offset="0.88084084"
         style="stop-color:#141414;stop-opacity:1;" />
      <stop
         style="stop-color:#000000;stop-opacity:1;"
         offset="1"
         id="stop2274" />
    </linearGradient>
    <linearGradient
       y2="47.000011"
       x2="90"
       y1="47.000011"
       x1="6"
       gradientTransform="matrix(1.1415064,0,0,1.1415062,7.0693383,-16.1436)"
       gradientUnits="userSpaceOnUse"
       id="linearGradient7426"
       xlink:href="#linearGradient6139-0"
       inkscape:collect="always" />
    <linearGradient
       id="linearGradient6139-0">
      <stop
         id="stop6141-2"
         offset="0"
         style="stop-color:#e5dddd;stop-opacity:1" />
      <stop
         style="stop-color:#fcf9f9;stop-opacity:1"
         offset="0.25"
         id="stop6151-0" />
      <stop
         style="stop-color:#f8f6f6;stop-opacity:1"
         offset="0.5"
         id="stop6147-1" />
      <stop
         id="stop6149-4"
         offset="0.75"
         style="stop-color:#fcf8f8;stop-opacity:1" />
      <stop
         id="stop6143-4"
         offset="1"
         style="stop-color:#e5dddd;stop-opacity:1" />
    </linearGradient>
    <radialGradient
       r="42"
       fy="-27"
       fx="48"
       cy="-27"
       cx="48"
       gradientTransform="matrix(-1.1436508,0,0,-0.93335492,212.76191,-20.400582)"
       gradientUnits="userSpaceOnUse"
       id="radialGradient7430"
       xlink:href="#linearGradient4091-0-3-0-7"
       inkscape:collect="always" />
    <linearGradient
       id="linearGradient4091-0-3-0-7">
      <stop
         style="stop-color:#ffffff;stop-opacity:1;"
         offset="0"
         id="stop4093-3-6-4-2" />
      <stop
         id="stop4099-6-1-8-3"
         offset="0.80000001"
         style="stop-color:#ffffff;stop-opacity:1;" />
      <stop
         style="stop-color:#ffffff;stop-opacity:0;"
         offset="1"
         id="stop4095-1-0-7-9" />
    </linearGradient>
    <linearGradient
       y2="88.171875"
       x2="94.5"
       y1="88.171875"
       x1="1.5"
       gradientTransform="matrix(1.0310382,0,0,1.0310382,12.371819,-11.982625)"
       gradientUnits="userSpaceOnUse"
       id="linearGradient7460"
       xlink:href="#linearGradient3832-0-6-1-1"
       inkscape:collect="always" />
    <linearGradient
       id="linearGradient3832-0-6-1-1">
      <stop
         style="stop-color:#000000;stop-opacity:1;"
         offset="0"
         id="stop3834-6-3-7-1" />
      <stop
         id="stop3872-2-4"
         offset="0.1"
         style="stop-color:#000000;stop-opacity:0.58823532;" />
      <stop
         style="stop-color:#000000;stop-opacity:0.58823532;"
         offset="0.89999998"
         id="stop3844-6-2-7-6" />
      <stop
         style="stop-color:#000000;stop-opacity:1;"
         offset="1"
         id="stop3836-5-0-2-9" />
    </linearGradient>
    <radialGradient
       r="43.199203"
       fy="44.892841"
       fx="13.948145"
       cy="44.892841"
       cx="13.948145"
       gradientTransform="matrix(1.0054001,0,0,0.05071751,47.322667,70.672296)"
       gradientUnits="userSpaceOnUse"
       id="radialGradient7462"
       xlink:href="#linearGradient63013"
       inkscape:collect="always" />
    <radialGradient
       r="43.199203"
       fy="44.892841"
       fx="13.948145"
       cy="44.892841"
       cx="13.948145"
       gradientTransform="matrix(0.91589864,0,0,0.05071751,19.705808,-105.89555)"
       gradientUnits="userSpaceOnUse"
       id="radialGradient7464"
       xlink:href="#linearGradient63013"
       inkscape:collect="always" />
    <linearGradient
       inkscape:collect="always"
       xlink:href="#linearGradient63013"
       id="linearGradient7128"
       gradientUnits="userSpaceOnUse"
       x1="2.7713892"
       y1="-28.64156"
       x2="50.527882"
       y2="14.514202" />
    <clipPath
       clipPathUnits="userSpaceOnUse"
       id="clipPath4156-4">
      <path
         style="opacity:0.6;fill:#ffffff;fill-opacity:1;stroke:none"
         d="m 27.046336,-55.695463 -14.21366,13.321486 h 0.06127 l 15.653407,21.770763 10.231384,-10.546177 C 38.561832,-32.30156 27.468089,-54.819245 27.046336,-55.695463 Z M 9.6468554,-39.382809 -5.2407289,-25.32124 15.987863,-7.8059573 26.372412,-18.382966 Z m 31.4906096,12.951445 -9.741259,9.713584 8.944804,12.4580526 7.780753,-7.5550056 z m -49.8397109,4.378822 -13.7541661,12.9822847 26.2830181,13.84571 0.06127,-0.0617 -0.122531,-0.0617 L 13.598503,-5.4007374 -8.7022409,-22.052595 Z m 38.0154159,7.400825 -9.802525,9.7752596 11.579232,9.5594001 7.62759,-7.40083 -8.669108,-11.0087257 z m 20.187073,5.6739697 -7.382526,7.2158 6.187844,8.54179 5.820249,-6.13651996 z m -32.195166,6.32154 -9.5574606,9.49772 13.6622686,7.1849703 7.933918,-7.6783603 z m 23.311629,2.37443004 -7.10683,6.93826996 8.362778,6.9074403 5.360756,-5.6739699 -0.06127,-0.0925 -0.0919,0.12335 -6.463539,-8.20258036 z m -8.730374,8.54178036 -7.505057,7.3391599 10.353916,5.45811 c 1.397496,-1.32103 5.67514,-6.12292 5.850882,-6.32154 z"
         id="path4158-0"
         inkscape:connector-curvature="0" />
    </clipPath>
    <radialGradient
       r="42"
       fy="-27"
       fx="48"
       cy="-27"
       cx="48"
       gradientTransform="matrix(-1.1436508,0,0,-0.93335492,212.76191,-20.400582)"
       gradientUnits="userSpaceOnUse"
       id="radialGradient1031"
       xlink:href="#linearGradient4091-0-3-0-7"
       inkscape:collect="always" />
    <radialGradient
       inkscape:collect="always"
       xlink:href="#linearGradient4091-0-3-0-7"
       id="radialGradient1064"
       gradientUnits="userSpaceOnUse"
       gradientTransform="matrix(-1.1436508,0,0,-0.93335492,212.76191,-20.400582)"
       cx="48"
       cy="-27"
       fx="48"
       fy="-27"
       r="42" />
    <radialGradient
       inkscape:collect="always"
       xlink:href="#linearGradient63013"
       id="radialGradient3252"
       gradientUnits="userSpaceOnUse"
       gradientTransform="matrix(-0.985355,0.0170886,-0.04043097,-2.3130607,68.197275,119.38103)"
       cx="38.784943"
       cy="62.149143"
       fx="38.784943"
       fy="62.149143"
       r="6.09375" />
    <linearGradient
       inkscape:collect="always"
       xlink:href="#linearGradient12658"
       id="linearGradient4511"
       gradientUnits="userSpaceOnUse"
       gradientTransform="translate(0.176776)"
       x1="16.596193"
       y1="32.796188"
       x2="16.255606"
       y2="46.164215" />
    <radialGradient
       inkscape:collect="always"
       xlink:href="#linearGradient2890"
       id="radialGradient4513"
       gradientUnits="userSpaceOnUse"
       gradientTransform="matrix(1,0,0,1.239918,0,-7.868381)"
       cx="25.353127"
       cy="28.091335"
       fx="25.353127"
       fy="28.091335"
       r="9.6408129" />
    <linearGradient
       inkscape:collect="always"
       id="linearGradient2890">
      <stop
         style="stop-color:#000000;stop-opacity:1;"
         offset="0"
         id="stop2892" />
      <stop
         style="stop-color:#000000;stop-opacity:0;"
         offset="1"
         id="stop2894" />
    </linearGradient>
    <radialGradient
       inkscape:collect="always"
       xlink:href="#linearGradient2803"
       id="radialGradient4515"
       gradientUnits="userSpaceOnUse"
       gradientTransform="matrix(-0.00932017,1.394366,-2.178833,-0.01456373,90.68496,15.71249)"
       cx="14.509778"
       cy="35.00518"
       fx="14.509778"
       fy="35.00518"
       r="2.8726213" />
    <radialGradient
       inkscape:collect="always"
       xlink:href="#linearGradient2334"
       id="radialGradient4517"
       gradientUnits="userSpaceOnUse"
       gradientTransform="matrix(1.666942,0,0,1.506876,-15.01094,-18.679)"
       cx="22.408136"
       cy="37.070213"
       fx="22.408136"
       fy="37.070213"
       r="3.0923135" />
    <radialGradient
       inkscape:collect="always"
       xlink:href="#linearGradient2803"
       id="radialGradient4519"
       gradientUnits="userSpaceOnUse"
       gradientTransform="matrix(2.915571,0.0290238,-0.01252409,1.258101,-25.00843,-10.75595)"
       cx="13.379482"
       cy="38.20137"
       fx="13.379482"
       fy="38.20137"
       r="3.0453751" />
    <radialGradient
       inkscape:collect="always"
       xlink:href="#linearGradient2890"
       id="radialGradient4521"
       gradientUnits="userSpaceOnUse"
       gradientTransform="translate(-24.34109,-0.719346)"
       cx="23.744551"
       cy="34.788834"
       fx="23.744551"
       fy="34.788834"
       r="3.0923135" />
    <linearGradient
       inkscape:collect="always"
       xlink:href="#linearGradient2890"
       id="linearGradient4523"
       gradientUnits="userSpaceOnUse"
       x1="23.744551"
       y1="38.748631"
       x2="25.186951"
       y2="34.788834" />
    <linearGradient
       inkscape:collect="always"
       xlink:href="#linearGradient2890"
       id="linearGradient3234"
       gradientUnits="userSpaceOnUse"
       gradientTransform="matrix(0.9855048,0,0,0.9816395,-1.6434687,-78.275187)"
       x1="37.07943"
       y1="99.367859"
       x2="36.783859"
       y2="58.492859" />
    <radialGradient
       inkscape:collect="always"
       xlink:href="#linearGradient63013"
       id="radialGradient3231"
       gradientUnits="userSpaceOnUse"
       gradientTransform="matrix(-1.3112467,-0.02214187,0.18706359,-10.991094,41.484823,780.12149)"
       cx="13.351931"
       cy="73.529305"
       fx="13.351931"
       fy="73.529305"
       r="2.8294306" />
    <radialGradient
       inkscape:collect="always"
       xlink:href="#linearGradient2890"
       id="radialGradient4529"
       gradientUnits="userSpaceOnUse"
       gradientTransform="matrix(0.999906,-0.01373107,0.07333252,5.340124,-4.800057,-268.5467)"
       cx="9.3238058"
       cy="65.46804"
       fx="9.3238058"
       fy="65.46804"
       r="5.1136932" />
    <radialGradient
       inkscape:collect="always"
       xlink:href="#linearGradient63013"
       id="radialGradient4531"
       gradientUnits="userSpaceOnUse"
       gradientTransform="matrix(-1,0,0,-5.684198,23.39761,332.1682)"
       cx="12.698806"
       cy="51.895706"
       fx="12.698806"
       fy="51.895706"
       r="5.1136932" />
    <filter
       inkscape:collect="always"
       id="filter4041">
      <feGaussianBlur
         inkscape:collect="always"
         stdDeviation="0.10824507"
         id="feGaussianBlur4043" />
    </filter>
    <radialGradient
       inkscape:collect="always"
       xlink:href="#linearGradient2803"
       id="radialGradient3222"
       gradientUnits="userSpaceOnUse"
       gradientTransform="matrix(-0.98542497,0.0125157,-0.10039436,-7.8427008,41.562628,470.73375)"
       cx="8.4597883"
       cy="64.232155"
       fx="8.4597883"
       fy="64.232155"
       r="2.3488126" />
    <radialGradient
       inkscape:collect="always"
       xlink:href="#linearGradient63013"
       id="radialGradient3219"
       gradientUnits="userSpaceOnUse"
       gradientTransform="matrix(-1.1509366,0.01087124,-0.0488793,-5.1343594,268.18769,375.04599)"
       cx="116.15437"
       cy="78.578934"
       fx="116.15437"
       fy="78.578934"
       r="4.21875" />
    <linearGradient
       inkscape:collect="always"
       xlink:href="#linearGradient12658"
       id="linearGradient3213"
       gradientUnits="userSpaceOnUse"
       gradientTransform="matrix(-0.9855048,0,0,0.9816395,144.30964,-79.175215)"
       x1="16.596193"
       y1="32.796188"
       x2="16.255606"
       y2="46.164215" />
    <radialGradient
       inkscape:collect="always"
       xlink:href="#linearGradient2890"
       id="radialGradient3210"
       gradientUnits="userSpaceOnUse"
       gradientTransform="matrix(-0.9855048,0,0,1.2171525,144.48387,-86.899128)"
       cx="14.478127"
       cy="29.50272"
       fx="14.478127"
       fy="29.50272"
       r="9.6408129" />
    <radialGradient
       inkscape:collect="always"
       xlink:href="#linearGradient2803"
       id="radialGradient4541"
       gradientUnits="userSpaceOnUse"
       gradientTransform="matrix(-0.01414125,2.1073366,-3.3058851,-0.02201049,-12.174971,-75.027765)"
       cx="14.509778"
       cy="35.00518"
       fx="14.509778"
       fy="35.00518"
       r="2.8726213" />
    <radialGradient
       inkscape:collect="always"
       xlink:href="#linearGradient2334"
       id="radialGradient4543"
       gradientUnits="userSpaceOnUse"
       gradientTransform="matrix(1.7601214,0,0,1.5848674,-168.96081,-95.83736)"
       cx="22.408136"
       cy="37.070213"
       fx="22.408136"
       fy="37.070213"
       r="3.0923135" />
    <radialGradient
       inkscape:collect="always"
       xlink:href="#linearGradient2803"
       id="radialGradient3202"
       gradientUnits="userSpaceOnUse"
       gradientTransform="matrix(2.8734028,-0.0167358,-0.01564293,-2.6649147,86.152345,62.167051)"
       cx="13.775342"
       cy="40.040668"
       fx="13.775342"
       fy="40.040668"
       r="3.0453751" />
    <radialGradient
       inkscape:collect="always"
       xlink:href="#linearGradient2890"
       id="radialGradient3204"
       gradientUnits="userSpaceOnUse"
       gradientTransform="matrix(0.70498776,0.68593042,0.68863133,-0.70222269,70.854088,-38.857239)"
       cx="23.744551"
       cy="34.788834"
       fx="23.744551"
       fy="34.788834"
       r="3.0923135" />
    <linearGradient
       inkscape:collect="always"
       xlink:href="#linearGradient2890"
       id="linearGradient4549"
       gradientUnits="userSpaceOnUse"
       x1="26.836864"
       y1="37.881145"
       x2="23.744551"
       y2="34.788834"
       gradientTransform="matrix(1.0558984,0,0,1.051757,-152.81227,-76.102642)" />
    <linearGradient
       inkscape:collect="always"
       xlink:href="#linearGradient2890"
       id="linearGradient3197"
       gradientUnits="userSpaceOnUse"
       gradientTransform="matrix(-0.9855048,0,0,0.9816395,164.7561,-78.26729)"
       x1="37.07943"
       y1="99.367859"
       x2="36.783859"
       y2="58.492859" />
    <radialGradient
       inkscape:collect="always"
       xlink:href="#linearGradient63013"
       id="radialGradient3194"
       gradientUnits="userSpaceOnUse"
       gradientTransform="matrix(1.3112467,-0.02214187,-0.18706359,-10.991094,121.58429,779.99918)"
       cx="13.351931"
       cy="73.529305"
       fx="13.351931"
       fy="73.529305"
       r="2.8294306" />
    <radialGradient
       inkscape:collect="always"
       xlink:href="#linearGradient2890"
       id="radialGradient4555"
       gradientUnits="userSpaceOnUse"
       gradientTransform="matrix(0.999906,-0.01373107,0.07333252,5.340124,-4.800057,-268.5467)"
       cx="9.3238058"
       cy="65.46804"
       fx="9.3238058"
       fy="65.46804"
       r="5.1136932" />
    <radialGradient
       inkscape:collect="always"
       xlink:href="#linearGradient63013"
       id="radialGradient4557"
       gradientUnits="userSpaceOnUse"
       gradientTransform="matrix(-1,0,0,-5.684198,23.39761,332.1682)"
       cx="12.698806"
       cy="51.895706"
       fx="12.698806"
       fy="51.895706"
       r="5.1136932" />
    <filter
       inkscape:collect="always"
       id="filter4037">
      <feGaussianBlur
         inkscape:collect="always"
         stdDeviation="0.14071859"
         id="feGaussianBlur4039" />
    </filter>
    <radialGradient
       inkscape:collect="always"
       xlink:href="#linearGradient2803"
       id="radialGradient3185"
       gradientUnits="userSpaceOnUse"
       gradientTransform="matrix(0.98547819,0.00720712,0.02622348,-3.5576432,126.18275,195.6015)"
       cx="7.258028"
       cy="63.070908"
       fx="7.258028"
       fy="63.070908"
       r="2.3488126" />
    <radialGradient
       inkscape:collect="always"
       xlink:href="#linearGradient63013"
       id="radialGradient3182"
       gradientUnits="userSpaceOnUse"
       gradientTransform="matrix(-0.9855048,-1.2115169e-8,9.1037317e-8,-7.3474293,74.119647,423.76829)"
       cx="38.92181"
       cy="60.765884"
       fx="38.92181"
       fy="60.765884"
       r="2.8281901" />
    <radialGradient
       inkscape:collect="always"
       xlink:href="#linearGradient63013"
       id="radialGradient3179"
       gradientUnits="userSpaceOnUse"
       gradientTransform="matrix(2.9121243,-0.02214187,-0.08424289,-10.99235,93.438162,780.39586)"
       cx="12.865432"
       cy="73.830261"
       fx="12.865432"
       fy="73.830261"
       r="2.8294306" />
    <radialGradient
       inkscape:collect="always"
       xlink:href="#linearGradient2890"
       id="radialGradient3176"
       gradientUnits="userSpaceOnUse"
       gradientTransform="matrix(0.9855048,0,0,1.9102901,18.628825,-122.09674)"
       cx="16.369699"
       cy="44.139114"
       fx="16.369699"
       fy="44.139114"
       r="1.7509805" />
    <radialGradient
       inkscape:collect="always"
       xlink:href="#linearGradient2890"
       id="radialGradient3173"
       gradientUnits="userSpaceOnUse"
       gradientTransform="matrix(-1.1256613,0,0,1.9102901,146.73565,-121.69622)"
       cx="16.369699"
       cy="44.139114"
       fx="16.369699"
       fy="44.139114"
       r="1.7509805" />
    <radialGradient
       inkscape:collect="always"
       xlink:href="#linearGradient63013"
       id="radialGradient3170"
       gradientUnits="userSpaceOnUse"
       gradientTransform="matrix(0.9855048,0,0,10.023717,18.715932,-764.03749)"
       cx="20.668358"
       cy="74.121422"
       fx="20.668358"
       fy="74.121422"
       r="2.4470251" />
    <radialGradient
       inkscape:collect="always"
       xlink:href="#linearGradient63013"
       id="radialGradient3167"
       gradientUnits="userSpaceOnUse"
       gradientTransform="matrix(0.9855048,0,0,10.023717,36.65037,-756.32671)"
       cx="85.977142"
       cy="73.204399"
       fx="85.977142"
       fy="73.204399"
       r="2.4470251" />
    <radialGradient
       inkscape:collect="always"
       xlink:href="#linearGradient2890"
       id="radialGradient3164"
       gradientUnits="userSpaceOnUse"
       gradientTransform="matrix(1.3378986,-1.0974995e-5,8.2874952e-5,10.023717,-19.295013,-766.34925)"
       cx="107.35215"
       cy="78.328499"
       fx="107.35215"
       fy="78.328499"
       r="2.4470251" />
    <radialGradient
       inkscape:collect="always"
       xlink:href="#linearGradient2890"
       id="radialGradient3161"
       gradientUnits="userSpaceOnUse"
       gradientTransform="matrix(1.5910551,-1.6329514e-6,1.4535782e-5,13.708792,7.0386067,-1055.1243)"
       cx="19.281994"
       cy="78.556969"
       fx="19.281994"
       fy="78.556969"
       r="2.4470251" />
    <radialGradient
       inkscape:collect="always"
       xlink:href="#linearGradient63013"
       id="radialGradient3158"
       gradientUnits="userSpaceOnUse"
       gradientTransform="matrix(0.00808799,0.25735348,-1.6114423,0.05024734,15.551455,-83.814094)"
       cx="26.145737"
       cy="-17.76833"
       fx="26.145737"
       fy="-17.76833"
       r="34.541763" />
  </defs>
  <sodipodi:namedview
     id="base"
     pagecolor="#ffffff"
     bordercolor="#666666"
     borderopacity="1.0"
     inkscape:pageopacity="0.0"
     inkscape:pageshadow="2"
     inkscape:zoom="2.8284271"
     inkscape:cx="35.784051"
     inkscape:cy="60.482902"
     inkscape:current-layer="g986"
     showgrid="false"
     inkscape:document-units="px"
     inkscape:grid-bbox="true"
     showguides="true"
     inkscape:guide-bbox="true"
     inkscape:window-width="1280"
     inkscape:window-height="980"
     inkscape:window-x="0"
     inkscape:window-y="26"
     inkscape:window-maximized="1"
     inkscape:pagecheckerboard="true"
     inkscape:showpageshadow="false" />
  <metadata
     id="metadata1312">
    <rdf:RDF>
      <cc:Work
         rdf:about="">
        <dc:format>image/svg+xml</dc:format>
        <dc:type
           rdf:resource="http://purl.org/dc/dcmitype/StillImage" />
        <dc:title></dc:title>
        <cc:license
           rdf:resource="http://creativecommons.org/licenses/by-sa/4.0/" />
        <dc:date>2017</dc:date>
        <dc:creator>
          <cc:Agent>
            <dc:title>Cristian Pozzessere &quot;ilnanny&quot;</dc:title>
          </cc:Agent>
        </dc:creator>
        <dc:subject>
          <rdf:Bag>
            <rdf:li>Global language</rdf:li>
          </rdf:Bag>
        </dc:subject>
        <dc:description>Playing with Inkscape on Gnu/Linux O. S.</dc:description>
        <dc:contributor>
          <cc:Agent>
            <dc:title>In the night, alone like a dog.</dc:title>
          </cc:Agent>
        </dc:contributor>
      </cc:Work>
      <cc:License
         rdf:about="http://creativecommons.org/licenses/by-sa/4.0/">
        <cc:permits
           rdf:resource="http://creativecommons.org/ns#Reproduction" />
        <cc:permits
           rdf:resource="http://creativecommons.org/ns#Distribution" />
        <cc:requires
           rdf:resource="http://creativecommons.org/ns#Notice" />
        <cc:requires
           rdf:resource="http://creativecommons.org/ns#Attribution" />
        <cc:permits
           rdf:resource="http://creativecommons.org/ns#DerivativeWorks" />
        <cc:requires
           rdf:resource="http://creativecommons.org/ns#ShareAlike" />
      </cc:License>
    </rdf:RDF>
  </metadata>
  <g
     transform="translate(3.9847239e-7,-1026.5197)"
     id="layer1-6"
     inkscape:label="Livello 1">
    <g
       id="g986"
       transform="matrix(0.96989623,0,0,0.96989623,-11.999382,1038.1416)">
      <path
         style="display:inline;opacity:0.15;fill:#000000;fill-opacity:1;fill-rule:nonzero;stroke:none;stroke-width:1.03103817"
         d="M 104.2815,-11.982625 H 19.441789 c -3.916756,0 -7.069968,3.1532086 -7.069968,7.0699725 V 79.927061 c 0,3.916767 3.153212,7.069975 7.069968,7.069975 H 104.2815 c 3.91677,0 7.06998,-3.153208 7.06998,-7.069975 V -4.9126525 c 0,-3.9167639 -3.15321,-7.0699725 -7.06998,-7.0699725 z"
         id="path3288"
         inkscape:connector-curvature="0" />
      <path
         inkscape:connector-curvature="0"
         id="path4085"
         d="M 103.61869,-11.209347 H 20.104598 c -3.855558,0 -6.9595,3.1039398 -6.9595,6.9595046 V 79.26425 c 0,3.855568 3.103942,6.959508 6.9595,6.959508 h 83.514092 c 3.85557,0 6.95951,-3.10394 6.95951,-6.959508 V -4.2498424 c 0,-3.8555648 -3.10394,-6.9595046 -6.95951,-6.9595046 z"
         style="display:inline;opacity:0.15;fill:#000000;fill-opacity:1;fill-rule:nonzero;stroke:none;stroke-width:1.03103817" />
      <path
         style="display:inline;opacity:1;fill:url(#linearGradient7426);fill-opacity:1;fill-rule:nonzero;stroke:none;stroke-width:1.03103817"
         d="M 102.95588,-10.436068 H 20.767416 c -3.794368,0 -6.849039,3.0546699 -6.849039,6.8490367 V 78.601442 c 0,3.794367 3.054671,6.849038 6.849039,6.849038 h 82.188464 c 3.79437,0 6.84903,-3.054671 6.84903,-6.849038 V -3.5870313 c 0,-3.7943668 -3.05466,-6.8490367 -6.84903,-6.8490367 z"
         id="rect4251-1"
         inkscape:connector-curvature="0" />
      <path
         style="display:inline;opacity:0.96300001;fill:#e6dfdf;fill-opacity:1;fill-rule:nonzero;stroke:none;stroke-width:1.07682776"
         d="m 23.96891,-5.5050965 c -2.99258,0 -5.368255,2.389748 -5.368255,5.40006498 v 22.37651852 7.560091 41.68175 c 1.149525,1.7591 3.110309,2.93628 5.368255,2.93628 h 4.294615 68.713733 4.294592 c 2.25797,0 4.21875,-1.17718 5.36827,-2.93628 V 29.831578 22.271487 -0.10503152 c 0,-3.01031698 -2.37568,-5.40006498 -5.36827,-5.40006498 z"
         id="path1100"
         inkscape:connector-curvature="0"
         sodipodi:nodetypes="sscccsccscccsss" />
      <g
         id="g3272"
         transform="matrix(1.0701623,0,0,1.0701621,-107.08128,-15.572846)">
        <path
           inkscape:connector-curvature="0"
           id="path4236-5"
           d="m 119.46667,4.8 c -3.5456,0 -6.4,2.8543996 -6.4,6.4 v 16 h 1.06666 v -16 c 0,-2.973117 2.36022,-5.3333333 5.33334,-5.3333333 h 76.8 c 2.97312,0 5.33333,2.3602163 5.33333,5.3333333 v 16 h 1.06667 v -16 c 0,-3.5456004 -2.8544,-6.4 -6.4,-6.4 z"
           style="display:inline;opacity:0.45;fill:url(#radialGradient1064);fill-opacity:1;fill-rule:nonzero;stroke:none;stroke-width:1.06666672" />
      </g>
      <g
         id="g1130"
         transform="matrix(0.63288191,0,0,0.67607285,10.246112,51.958175)">
        <path
           sodipodi:nodetypes="cscccsc"
           inkscape:r_cy="true"
           inkscape:r_cx="true"
           id="path8165"
           d="m 35.508846,-23.820996 c -10.318715,-0.06418 -11.952497,9.450167 -11.952497,18.3569442 0,8.878694 1.764701,17.6712428 11.883602,17.9796528 -0.0042,-0.0555 0,-0.11494 0,-0.17156 v -35.410169 c 0,-0.264231 0.0521,-0.520887 0.137788,-0.754868 -0.02637,0.008 -0.04257,-0.0082 -0.0689,0 z"
           style="fill:#000000;fill-opacity:1;fill-rule:nonzero;stroke:none"
           inkscape:connector-curvature="0" />
        <path
           inkscape:r_cy="true"
           inkscape:r_cx="true"
           sodipodi:nodetypes="cscsccccscs"
           id="rect1971"
           d="m 39.255929,-29.062814 c 0.383331,-0.301229 1.244133,-1.039198 2.651514,-1.086487 0.355154,-0.01193 0.634095,0.480863 0.634095,0.83487 0,0 -0.927521,12.483666 -0.927521,24.2319312 0,11.748264 0.428515,22.6040608 0.428515,22.6040608 0,0.354 0.01873,1.29988 -1.267911,1.38549 l -0.544794,-0.009 c -0.939738,-0.0388 -2.316619,-1.33267 -2.316619,-1.68667 0,0 -0.19478,-10.4677678 -0.19478,-22.2160328 0,-11.7482642 0.740164,-22.9920882 0.740164,-22.9920882 0,-0.354005 0.531546,-0.856968 0.797337,-1.065831 z"
           style="fill:#555753;fill-opacity:1;fill-rule:nonzero;stroke:none"
           inkscape:connector-curvature="0" />
        <path
           style="fill:#000000;fill-opacity:1;fill-rule:nonzero;stroke:none"
           d="m 44.653277,-30.056137 h 0.457145 c 1.787788,0 3.836844,1.272759 3.947029,6.07171 0,0 -0.220368,8.968241 -0.220368,17.9364822 0,8.96824 0.220368,17.9364758 0.220368,17.9364758 -0.05509,4.63433 -2.63078,6.82384 -5.153509,6.91019 l -0.588271,0.0153 c -1.08383,-0.0468 -1.269441,-0.80956 -1.269441,-1.16356 0,0 -0.771288,-11.6297198 -0.661105,-23.2594388 0.110185,-11.6297212 1.101841,-23.2594412 1.101841,-23.2594412 0,-0.847888 1.223468,-1.234568 2.166311,-1.187757 z"
           id="path3731"
           sodipodi:nodetypes="cccsccccscc"
           inkscape:r_cx="true"
           inkscape:r_cy="true"
           inkscape:connector-curvature="0" />
        <path
           inkscape:r_cy="true"
           inkscape:r_cx="true"
           id="path55989"
           d="m 35.259218,-23.709952 c -9.997582,0.157057 -11.579681,9.572664 -11.579681,18.3750642 0,3.100606 0.243648,6.17417102 0.954708,8.896108 -0.06849,-0.778745 -0.09239,-1.559591 -0.09239,-2.36207 0,-9.197298 4.63952,-16.9811802 11.025335,-19.6634662 v -4.47873 c -10e-7,-0.26423 0.0375,-0.532924 0.123188,-0.766906 -0.0029,-1.34e-4 -0.0281,4.14e-4 -0.0308,0 -0.0029,-1.2e-4 -0.02778,-3.58e-4 -0.0308,0 -0.120923,-7.52e-4 -0.251016,-0.0019 -0.369565,0 z"
           style="opacity:0.79587157;fill:url(#radialGradient3252);fill-opacity:1;fill-rule:nonzero;stroke:none"
           inkscape:connector-curvature="0" />
        <path
           sodipodi:nodetypes="cccscsccc"
           id="rect3735"
           d="m 37.708717,-28.940298 0.239146,0.01331 c 0.56517,-0.0033 0.57248,0.485096 0.57248,1.552485 0,0 -0.308773,5.15832 -0.484623,16.208515 -0.175848,11.05019322 -0.08585,27.727459 -0.08585,27.727459 0,0.54802 -0.296951,0.97232 -0.638094,0.98141 -1.684385,0.0443 -4.387642,-3.07882 -4.368162,-6.34306 l 0.01613,-34.678137 c 0,-0.354002 2.373498,-5.500792 4.74897,-5.461987 z"
           style="fill:#b5b5b5;fill-opacity:1;fill-rule:nonzero;stroke:#000000;stroke-width:0.46424517;stroke-linecap:round;stroke-linejoin:round;stroke-miterlimit:4;stroke-dasharray:none;stroke-opacity:0.48309183"
           inkscape:r_cx="true"
           inkscape:r_cy="true"
           inkscape:connector-curvature="0" />
        <path
           style="fill:none;stroke:#000000;stroke-width:0.75931627;stroke-linecap:round;stroke-linejoin:round;stroke-miterlimit:4;stroke-dasharray:none;stroke-opacity:0.56763288"
           d="m 81.321791,-78.705186 c -20.291008,0.4541 -33.930634,11.639491 -38.554435,21.503651 -0.914731,1.951435 -0.229311,3.674166 2.024812,5.997598 9.975742,-10.418327 19.487419,-16.045696 36.980321,-16.045696 17.492901,0 27.301621,5.984167 36.856731,16.285578 2.58569,-2.73176 2.57416,-3.861969 1.77045,-5.959347 -3.3205,-8.66525 -17.01175,-21.781785 -37.865397,-21.781784 -0.407297,0 -0.808278,-0.009 -1.212482,0 z"
           id="path61265"
           sodipodi:nodetypes="cscscssc"
           inkscape:r_cx="true"
           inkscape:r_cy="true"
           inkscape:connector-curvature="0" />
        <g
           inkscape:r_cy="true"
           inkscape:r_cx="true"
           transform="matrix(0.9855048,0,0,0.9816395,18.628825,-79.356641)"
           id="g44343">
          <path
             inkscape:r_cy="true"
             inkscape:r_cx="true"
             style="opacity:0.49311924;fill:none;stroke:#000000;stroke-width:0.972;stroke-linecap:round;stroke-linejoin:round;stroke-miterlimit:4;stroke-dasharray:none;stroke-opacity:1"
             d="m 29.25,20.84375 c -0.0074,0.0017 -0.02389,0.02936 -0.03125,0.03125 -0.01452,0.0041 -0.04839,-0.0048 -0.0625,0 -0.01389,0.0051 -0.04907,0.02545 -0.0625,0.03125 -0.01319,0.0061 -0.04981,0.02444 -0.0625,0.03125 C 29.02505,20.9411 29.00608,20.96501 29,20.96875 28.98811,20.97655 28.94881,20.9915 28.9375,21 c -0.0055,0.0044 -0.02589,0.02666 -0.03125,0.03125 -0.0208,0.01902 -0.04436,0.04079 -0.0625,0.0625 0,0 -3.240088,3.084277 -6,6.625 -2.759912,3.540723 -5.234354,7.82957 -5.304687,7.8125 -0.123687,-0.03002 -0.436514,-0.0625 -0.726563,-0.0625 -2.65188,0 -4.8125,2.095814 -4.8125,4.65625 0,2.560436 2.160619,4.625 4.8125,4.625 2.65188,0 4.781251,-2.064565 4.78125,-4.625 0,-1.320225 -0.550872,-2.53003 -1.46875,-3.375 0.227525,-0.43628 2.131332,-4.024322 4.71875,-7.34375 2.759912,-3.540724 6.3125,-6.781251 6.3125,-6.78125 0.0044,-0.0056 -0.0041,-0.02556 0,-0.03125 0.0039,-0.0058 0.02757,-0.02537 0.03125,-0.03125 0.0138,-0.02387 0.02103,-0.0686 0.03125,-0.09375 0.0023,-0.0064 0.02913,-0.02482 0.03125,-0.03125 0.0038,-0.01299 -0.0029,-0.04927 0,-0.0625 0.0062,-0.03335 0.0303,-0.09051 0.03125,-0.125 -3.6e-5,-0.01387 8.63e-4,-0.0485 0,-0.0625 -0.0013,-0.01405 -0.02916,-0.04837 -0.03125,-0.0625 -0.0025,-0.01417 0.0033,-0.04828 0,-0.0625 C 31.2463,22.04827 31.22322,22.01424 31.21875,22 31.19686,21.93596 31.16224,21.843746 31.125,21.78125 31.10771,21.75361 31.08269,21.71444 31.0625,21.6875 c -0.0627,-0.0802 -0.162652,-0.180263 -0.25,-0.25 -0.02977,-0.02287 -0.0614,-0.04126 -0.09375,-0.0625 l -0.4375,-0.3125 c -0.07279,-0.04779 -0.173666,-0.0912 -0.25,-0.125 -0.170135,-0.07167 -0.366608,-0.09064 -0.53125,-0.09375 -0.03272,6.1e-5 -0.09327,-0.0028 -0.125,0 -0.02358,0.0026 -0.07088,-0.0041 -0.09375,0 -0.0075,0.0015 -0.0238,-0.0017 -0.03125,0 z"
             id="path17051"
             sodipodi:nodetypes="cssssssscsssssscscsssssssssssssccssssc"
             inkscape:connector-curvature="0" />
          <path
             inkscape:r_cy="true"
             inkscape:r_cx="true"
             style="fill:#babdb6;fill-opacity:1;fill-rule:nonzero;stroke:none"
             d="m 29.25,20.84375 c -0.0074,0.0017 -0.02389,0.02936 -0.03125,0.03125 -0.01452,0.0041 -0.04839,-0.0048 -0.0625,0 -0.01389,0.0051 -0.04907,0.02545 -0.0625,0.03125 -0.01319,0.0061 -0.04981,0.02444 -0.0625,0.03125 C 29.02505,20.9411 29.00608,20.96501 29,20.96875 28.98811,20.97655 28.94881,20.9915 28.9375,21 c -0.0055,0.0044 -0.02589,0.02666 -0.03125,0.03125 -0.0208,0.01902 -0.04436,0.04079 -0.0625,0.0625 0,0 -3.240088,3.084277 -6,6.625 -2.759912,3.540723 -5.234354,7.82957 -5.304687,7.8125 -0.123687,-0.03002 -0.436514,-0.0625 -0.726563,-0.0625 -2.65188,0 -4.8125,2.095814 -4.8125,4.65625 0,2.560436 2.160619,4.625 4.8125,4.625 2.65188,0 4.781251,-2.064565 4.78125,-4.625 0,-1.320225 -0.550872,-2.53003 -1.46875,-3.375 0.227525,-0.43628 2.131332,-4.024322 4.71875,-7.34375 2.759912,-3.540724 6.3125,-6.781251 6.3125,-6.78125 0.0044,-0.0056 -0.0041,-0.02556 0,-0.03125 0.0039,-0.0058 0.02757,-0.02537 0.03125,-0.03125 0.0138,-0.02387 0.02103,-0.0686 0.03125,-0.09375 0.0023,-0.0064 0.02913,-0.02482 0.03125,-0.03125 0.0038,-0.01299 -0.0029,-0.04927 0,-0.0625 0.0062,-0.03335 0.0303,-0.09051 0.03125,-0.125 -3.6e-5,-0.01387 8.63e-4,-0.0485 0,-0.0625 -0.0013,-0.01405 -0.02916,-0.04837 -0.03125,-0.0625 -0.0025,-0.01417 0.0033,-0.04828 0,-0.0625 C 31.2463,22.04827 31.22322,22.01424 31.21875,22 31.19686,21.93596 31.16224,21.843746 31.125,21.78125 31.10771,21.75361 31.08269,21.71444 31.0625,21.6875 c -0.0627,-0.0802 -0.162652,-0.180263 -0.25,-0.25 -0.02977,-0.02287 -0.0614,-0.04126 -0.09375,-0.0625 l -0.4375,-0.3125 c -0.07279,-0.04779 -0.173666,-0.0912 -0.25,-0.125 -0.170135,-0.07167 -0.366608,-0.09064 -0.53125,-0.09375 -0.03272,6.1e-5 -0.09327,-0.0028 -0.125,0 -0.02358,0.0026 -0.07088,-0.0041 -0.09375,0 -0.0075,0.0015 -0.0238,-0.0017 -0.03125,0 z"
             id="rect8188"
             sodipodi:nodetypes="cssssssscsssssscscsssssssssssssccssssc"
             inkscape:connector-curvature="0" />
          <path
             style="fill:url(#linearGradient4511);fill-opacity:1;fill-rule:nonzero;stroke:none"
             d="m 29.426776,20.84375 c -0.0074,0.0017 -0.02389,0.02936 -0.03125,0.03125 -0.01452,0.0041 -0.04839,-0.0048 -0.0625,0 -0.01389,0.0051 -0.04907,0.02545 -0.0625,0.03125 -0.01319,0.0061 -0.04981,0.02444 -0.0625,0.03125 -0.0062,0.0036 -0.02517,0.02751 -0.03125,0.03125 -0.01189,0.0078 -0.05119,0.02275 -0.0625,0.03125 -0.0055,0.0044 -0.02589,0.02666 -0.03125,0.03125 -0.0208,0.01902 -0.04436,0.04079 -0.0625,0.0625 0,0 -3.240088,3.084277 -6,6.625 -2.759912,3.540723 -5.234353,7.82957 -5.304686,7.8125 -0.123687,-0.03002 -0.436514,-0.0625 -0.726563,-0.0625 -2.65188,0 -4.8125,2.095814 -4.8125,4.65625 0,2.560436 2.160619,4.625 4.8125,4.625 2.65188,0 4.78125,-2.064565 4.781249,-4.625 0,-1.320225 -0.550872,-2.53003 -1.46875,-3.375 0.227525,-0.43628 2.131332,-4.024322 4.71875,-7.34375 2.759912,-3.540724 6.3125,-6.781251 6.3125,-6.78125 0.0044,-0.0056 -0.0041,-0.02556 0,-0.03125 0.0039,-0.0058 0.02757,-0.02537 0.03125,-0.03125 0.0138,-0.02387 0.02103,-0.0686 0.03125,-0.09375 0.0023,-0.0064 0.02913,-0.02482 0.03125,-0.03125 0.0038,-0.01299 -0.0029,-0.04927 0,-0.0625 0.0062,-0.03335 0.0303,-0.09051 0.03125,-0.125 -3.6e-5,-0.01387 8.63e-4,-0.0485 0,-0.0625 -0.0013,-0.01405 -0.02916,-0.04837 -0.03125,-0.0625 -0.0025,-0.01417 0.0033,-0.04828 0,-0.0625 -0.0037,-0.01423 -0.02678,-0.04826 -0.03125,-0.0625 -0.02189,-0.06404 -0.05651,-0.156254 -0.09375,-0.21875 -0.01729,-0.02764 -0.04231,-0.06681 -0.0625,-0.09375 -0.0627,-0.0802 -0.162652,-0.180263 -0.25,-0.25 -0.02977,-0.02287 -0.0614,-0.04126 -0.09375,-0.0625 l -0.4375,-0.3125 c -0.07279,-0.04779 -0.173666,-0.0912 -0.25,-0.125 -0.170135,-0.07167 -0.366608,-0.09064 -0.53125,-0.09375 -0.03272,6.1e-5 -0.09327,-0.0028 -0.125,0 -0.02358,0.0026 -0.07088,-0.0041 -0.09375,0 -0.0075,0.0015 -0.0238,-0.0017 -0.03125,0 z"
             id="path12666"
             sodipodi:nodetypes="cssssssscsssssscscsssssssssssssccssssc"
             inkscape:r_cx="true"
             inkscape:r_cy="true"
             inkscape:connector-curvature="0" />
          <path
             inkscape:r_cy="true"
             inkscape:r_cx="true"
             sodipodi:nodetypes="cssssssscsssssscscsssssssssssssccssssc"
             id="path11783"
             d="m 29.25,20.84375 c -0.0074,0.0017 -0.02389,0.02936 -0.03125,0.03125 -0.01452,0.0041 -0.04839,-0.0048 -0.0625,0 -0.01389,0.0051 -0.04907,0.02545 -0.0625,0.03125 -0.01319,0.0061 -0.04981,0.02444 -0.0625,0.03125 C 29.02505,20.9411 29.00608,20.96501 29,20.96875 28.98811,20.97655 28.94881,20.9915 28.9375,21 c -0.0055,0.0044 -0.02589,0.02666 -0.03125,0.03125 -0.0208,0.01902 -0.04436,0.04079 -0.0625,0.0625 0,0 -3.240088,3.084277 -6,6.625 -2.759912,3.540723 -5.234354,7.82957 -5.304687,7.8125 -0.123687,-0.03002 -0.436514,-0.0625 -0.726563,-0.0625 -2.65188,0 -4.8125,2.095814 -4.8125,4.65625 0,2.560436 2.160619,4.625 4.8125,4.625 2.65188,0 4.781251,-2.064565 4.78125,-4.625 0,-1.320225 -0.550872,-2.53003 -1.46875,-3.375 0.227525,-0.43628 2.131332,-4.024322 4.71875,-7.34375 2.759912,-3.540724 6.3125,-6.781251 6.3125,-6.78125 0.0044,-0.0056 -0.0041,-0.02556 0,-0.03125 0.0039,-0.0058 0.02757,-0.02537 0.03125,-0.03125 0.0138,-0.02387 0.02103,-0.0686 0.03125,-0.09375 0.0023,-0.0064 0.02913,-0.02482 0.03125,-0.03125 0.0038,-0.01299 -0.0029,-0.04927 0,-0.0625 0.0062,-0.03335 0.0303,-0.09051 0.03125,-0.125 -3.6e-5,-0.01387 8.63e-4,-0.0485 0,-0.0625 -0.0013,-0.01405 -0.02916,-0.04837 -0.03125,-0.0625 -0.0025,-0.01417 0.0033,-0.04828 0,-0.0625 C 31.2463,22.04827 31.22322,22.01424 31.21875,22 31.19686,21.93596 31.16224,21.843746 31.125,21.78125 31.10771,21.75361 31.08269,21.71444 31.0625,21.6875 c -0.0627,-0.0802 -0.162652,-0.180263 -0.25,-0.25 -0.02977,-0.02287 -0.0614,-0.04126 -0.09375,-0.0625 l -0.4375,-0.3125 c -0.07279,-0.04779 -0.173666,-0.0912 -0.25,-0.125 -0.170135,-0.07167 -0.366608,-0.09064 -0.53125,-0.09375 -0.03272,6.1e-5 -0.09327,-0.0028 -0.125,0 -0.02358,0.0026 -0.07088,-0.0041 -0.09375,0 -0.0075,0.0015 -0.0238,-0.0017 -0.03125,0 z"
             style="opacity:0.66972477;fill:url(#radialGradient4513);fill-opacity:1;fill-rule:nonzero;stroke:none"
             inkscape:connector-curvature="0" />
          <circle
             r="2.8726213"
             cy="39.037128"
             cx="14.451495"
             style="opacity:0.66972477;fill:url(#radialGradient4515);fill-opacity:1;fill-rule:nonzero;stroke:none"
             id="path16168"
             inkscape:r_cx="true"
             inkscape:r_cy="true"
             transform="matrix(1.53959,0,0,1.53959,-5.362676,-19.96577)" />
          <circle
             r="3.0923135"
             cy="34.788834"
             cx="23.744551"
             style="opacity:0.67431192;fill:#2e3436;fill-opacity:1;fill-rule:nonzero;stroke:#000000;stroke-width:0.43866649;stroke-linecap:round;stroke-linejoin:round;stroke-miterlimit:4;stroke-dasharray:none;stroke-opacity:1"
             id="path8195"
             inkscape:r_cx="true"
             inkscape:r_cy="true"
             transform="matrix(1.071429,0,0,1.071429,-8.753795,3.039429)" />
          <circle
             r="3.0923135"
             cy="34.788834"
             cx="23.744551"
             transform="matrix(1.071429,0,0,1.071429,-8.753795,3.039429)"
             inkscape:r_cy="true"
             inkscape:r_cx="true"
             id="path18799"
             style="opacity:0.39678901;fill:url(#radialGradient4517);fill-opacity:1;fill-rule:nonzero;stroke:none" />
          <path
             style="opacity:0.39678901;fill:url(#radialGradient4519);fill-opacity:1;fill-rule:nonzero;stroke:url(#radialGradient4521);stroke-width:1.37199998;stroke-linecap:round;stroke-linejoin:round;stroke-miterlimit:4;stroke-dasharray:none;stroke-opacity:1"
             d="m 16.190153,37.030654 c -1.629955,0.207392 -2.906249,1.626498 -2.90625,3.3125 0,1.297364 0.75675,2.425021 1.84375,2.96875 0.01437,0.0072 0.04802,-0.007 0.0625,0 1.678216,-0.847515 2.812499,-2.599596 2.8125,-4.59375 0,-0.508487 -0.07948,-1.004923 -0.21875,-1.46875 -0.0036,-0.0121 -0.02753,-0.01919 -0.03125,-0.03125 -0.355161,-0.130123 -0.756181,-0.1875 -1.15625,-0.1875 -0.142882,0 -0.268118,-0.01758 -0.40625,0 z"
             id="path20559"
             inkscape:r_cx="true"
             inkscape:r_cy="true"
             inkscape:connector-curvature="0" />
          <circle
             r="3.0923135"
             cy="34.788834"
             cx="23.744551"
             style="opacity:0.95412843;fill:url(#linearGradient4523);fill-opacity:1;fill-rule:nonzero;stroke:none"
             id="path22328"
             inkscape:r_cx="true"
             inkscape:r_cy="true"
             transform="matrix(1.071429,0,0,1.071429,-8.753795,3.039429)" />
        </g>
        <path
           style="fill:#000000;fill-opacity:1;fill-rule:nonzero;stroke:none"
           d="m 127.60385,-23.63957 c 10.31871,-0.06418 11.9525,9.450167 11.9525,18.3569452 0,8.878693 -1.76471,17.6712458 -11.88361,17.9796558 0.004,-0.0555 0,-0.11494 0,-0.17156 v -35.410173 c 0,-0.26423 -0.0521,-0.520886 -0.13779,-0.754868 0.0264,0.008 0.0426,-0.0082 0.0689,0 z"
           id="path44361"
           inkscape:r_cx="true"
           inkscape:r_cy="true"
           sodipodi:nodetypes="cscccsc"
           inkscape:connector-curvature="0" />
        <path
           style="fill:#555753;fill-opacity:1;fill-rule:nonzero;stroke:none"
           d="m 123.85676,-29.054917 c -0.38333,-0.30123 -1.24413,-1.039198 -2.65152,-1.086488 -0.35514,-0.01193 -0.63409,0.480863 -0.63409,0.83487 0,0 0.92753,12.483666 0.92753,24.2319312 0,11.748264 -0.42852,22.6040648 -0.42852,22.6040648 0,0.354 -0.0187,1.29989 1.26791,1.38549 l 0.5448,-0.009 c 0.93974,-0.0388 2.31661,-1.33268 2.31661,-1.68668 0,0 0.19478,-10.4677618 0.19478,-22.2160258 0,-11.7482652 -0.74016,-22.9920882 -0.74016,-22.9920882 0,-0.354006 -0.53155,-0.856969 -0.79734,-1.065832 z"
           id="path44363"
           sodipodi:nodetypes="cscsccccscs"
           inkscape:r_cx="true"
           inkscape:r_cy="true"
           inkscape:connector-curvature="0" />
        <path
           inkscape:r_cy="true"
           inkscape:r_cx="true"
           sodipodi:nodetypes="cccsccccscc"
           id="path44365"
           d="m 118.45941,-30.04824 h -0.45715 c -1.78779,0 -3.83684,1.272758 -3.94703,6.071709 0,0 0.22037,8.968242 0.22037,17.9364832 0,8.968239 -0.22037,17.9364788 -0.22037,17.9364788 0.0551,4.63432 2.63078,6.82385 5.15352,6.91019 l 0.58827,0.0153 c 1.08383,-0.0468 1.26944,-0.80955 1.26944,-1.16357 0,0 0.77129,-11.6297128 0.6611,-23.2594328 -0.11018,-11.6297212 -1.10183,-23.2594402 -1.10183,-23.2594402 0,-0.847889 -1.22348,-1.234568 -2.16632,-1.187758 z"
           style="fill:#000000;fill-opacity:1;fill-rule:nonzero;stroke:none"
           inkscape:connector-curvature="0" />
        <path
           inkscape:r_cy="true"
           inkscape:r_cx="true"
           style="opacity:0.66284407;fill:url(#linearGradient3234);fill-opacity:1;fill-rule:nonzero;stroke:none"
           d="m 37.614401,-29.005293 0.239146,0.01331 c 0.56517,-0.0033 0.572481,0.485095 0.572481,1.552485 0,0 -0.308774,5.158319 -0.484623,16.208514 -0.175849,11.05019322 -0.08585,27.727465 -0.08585,27.727465 0,0.54802 -0.296951,0.97231 -0.638093,0.9814 -1.684386,0.0443 -4.387643,-3.07881 -4.368163,-6.34305 l 0.01613,-34.678142 c 0,-0.354003 2.373499,-5.500793 4.74897,-5.461987 z"
           id="path37315"
           sodipodi:nodetypes="cccscsccc"
           inkscape:connector-curvature="0" />
        <path
           sodipodi:nodetypes="cccscsccc"
           id="path39944"
           d="m 37.614401,-29.005293 0.239146,0.01331 c 0.56517,-0.0033 0.572481,0.485095 0.572481,1.552485 0,0 -0.308774,5.158319 -0.484623,16.208514 -0.175849,11.05019322 -0.08585,27.727465 -0.08585,27.727465 0,0.54802 -0.296951,0.97231 -0.638093,0.9814 -1.684386,0.0443 -4.387643,-3.07881 -4.368163,-6.34305 l 0.01613,-34.678142 c 0,-0.354003 2.373499,-5.500793 4.74897,-5.461987 z"
           style="opacity:0.66284407;fill:url(#radialGradient3231);fill-opacity:1;fill-rule:nonzero;stroke:none"
           inkscape:r_cx="true"
           inkscape:r_cy="true"
           inkscape:connector-curvature="0" />
        <g
           inkscape:r_cy="true"
           inkscape:r_cx="true"
           transform="matrix(0.9855048,0,0,0.9816395,18.628825,-79.356641)"
           id="g44354">
          <circle
             r="2.8894303"
             cy="63.885883"
             cx="16.946117"
             style="fill:#babdb6;fill-opacity:1;fill-rule:nonzero;stroke:none"
             id="path8174"
             inkscape:r_cx="true"
             inkscape:r_cy="true"
             transform="translate(-6.624738,9.564268)" />
          <path
             inkscape:r_cy="true"
             inkscape:r_cx="true"
             sodipodi:nodetypes="cscccsccsssssscccssssz"
             id="path43468"
             d="m 16.396488,42.000005 c -0.438461,7.92e-4 -0.743512,0.105763 -1.054688,0.546875 -0.05535,0.07846 -0.08532,0.182284 -0.09375,0.28125 0,0 7.9e-5,1.678661 0,1.78125 -0.139663,0.109293 -6.1874999,4.75 -6.1874999,4.75 -0.546424,0.439661 -1.430863,1.022319 -1.625,1.71875 -0.177485,0.636697 -0.074518,1.123098 -0.03125,1.84375 l 1.1875,19.875 c 0.00103,0.01716 -0.00134,0.04547 0,0.0625 -0.00179,0.0054 0.00174,0.02584 0,0.03125 -0.039105,0.121813 -0.051365,0.242103 -0.0625,0.375 -0.079179,0.945046 0.617454,1.76457 1.5624999,1.84375 0.945046,0.07918 1.76457,-0.617457 1.84375,-1.5625 0.03959,-0.472523 -0.122334,-0.914158 -0.40625,-1.25 -0.0089,-0.0105 0.0091,-0.02097 0,-0.03125 L 10.37305,52.73438 c -0.07795,-0.648 0.04286,-0.886309 0.5625,-1.21875 0,-1e-6 4.62026,-3.514978 6.34375,-4.8125 0.07324,-0.05514 0.273069,-0.17073 0.28125,-0.46875 0.0041,-0.145964 6.18e-4,-3.391978 0,-3.40625 -4.91e-4,-0.0056 -0.003,-0.158597 -0.109375,-0.300781 -0.329969,-0.44098 -0.616227,-0.528136 -1.054687,-0.527344 z"
             style="fill:none;stroke:#000000;stroke-width:0.472;stroke-linecap:round;stroke-linejoin:round;stroke-miterlimit:4;stroke-dasharray:none;stroke-opacity:0.70772944"
             inkscape:connector-curvature="0" />
          <path
             style="fill:#555555;fill-opacity:1;fill-rule:nonzero;stroke:none"
             d="m 16.396488,42.000005 c -0.438461,7.92e-4 -0.743512,0.105763 -1.054688,0.546875 -0.05535,0.07846 -0.08532,0.182284 -0.09375,0.28125 0,0 7.9e-5,1.678661 0,1.78125 -0.139663,0.109293 -6.1874999,4.75 -6.1874999,4.75 -0.546424,0.439661 -1.430863,1.022319 -1.625,1.71875 -0.177485,0.636697 -0.074518,1.123098 -0.03125,1.84375 l 1.1875,19.875 c 0.00103,0.01716 -0.00134,0.04547 0,0.0625 -0.00179,0.0054 0.00174,0.02584 0,0.03125 -0.039105,0.121813 -0.051365,0.242103 -0.0625,0.375 -0.079179,0.945046 0.617454,1.76457 1.5624999,1.84375 0.945046,0.07918 1.76457,-0.617457 1.84375,-1.5625 0.03959,-0.472523 -0.122334,-0.914158 -0.40625,-1.25 -0.0089,-0.0105 0.0091,-0.02097 0,-0.03125 L 10.37305,52.73438 c -0.07795,-0.648 0.04286,-0.886309 0.5625,-1.21875 0,-1e-6 4.62026,-3.514978 6.34375,-4.8125 0.07324,-0.05514 0.273069,-0.17073 0.28125,-0.46875 0.0041,-0.145964 6.18e-4,-3.391978 0,-3.40625 -4.91e-4,-0.0056 -0.003,-0.158597 -0.109375,-0.300781 -0.329969,-0.44098 -0.616227,-0.528136 -1.054687,-0.527344 z"
             id="path8178"
             sodipodi:nodetypes="cscccsccsssssscccssssz"
             inkscape:r_cx="true"
             inkscape:r_cy="true"
             inkscape:connector-curvature="0" />
          <path
             inkscape:r_cy="true"
             inkscape:r_cx="true"
             sodipodi:nodetypes="cscccsccsssssscccssssz"
             id="path40827"
             d="m 16.396488,42.000005 c -0.438461,7.92e-4 -0.743512,0.105763 -1.054688,0.546875 -0.05535,0.07846 -0.08532,0.182284 -0.09375,0.28125 0,0 7.9e-5,1.678661 0,1.78125 -0.139663,0.109293 -6.1874999,4.75 -6.1874999,4.75 -0.546424,0.439661 -1.430863,1.022319 -1.625,1.71875 -0.177485,0.636697 -0.074518,1.123098 -0.03125,1.84375 l 1.1875,19.875 c 0.00103,0.01716 -0.00134,0.04547 0,0.0625 -0.00179,0.0054 0.00174,0.02584 0,0.03125 -0.039105,0.121813 -0.051365,0.242103 -0.0625,0.375 -0.079179,0.945046 0.617454,1.76457 1.5624999,1.84375 0.945046,0.07918 1.76457,-0.617457 1.84375,-1.5625 0.03959,-0.472523 -0.122334,-0.914158 -0.40625,-1.25 -0.0089,-0.0105 0.0091,-0.02097 0,-0.03125 L 10.37305,52.73438 c -0.07795,-0.648 0.04286,-0.886309 0.5625,-1.21875 0,-1e-6 4.62026,-3.514978 6.34375,-4.8125 0.07324,-0.05514 0.273069,-0.17073 0.28125,-0.46875 0.0041,-0.145964 6.18e-4,-3.391978 0,-3.40625 -4.91e-4,-0.0056 -0.003,-0.158597 -0.109375,-0.300781 -0.329969,-0.44098 -0.616227,-0.528136 -1.054687,-0.527344 z"
             style="fill:url(#radialGradient4529);fill-opacity:1;fill-rule:nonzero;stroke:none"
             inkscape:connector-curvature="0" />
          <path
             style="fill:url(#radialGradient4531);fill-opacity:1;fill-rule:nonzero;stroke:none;filter:url(#filter4041)"
             d="m 16.396488,42.000005 c -0.438461,7.92e-4 -0.743512,0.105763 -1.054688,0.546875 -0.05535,0.07846 -0.08532,0.182284 -0.09375,0.28125 0,0 7.9e-5,1.678661 0,1.78125 -0.139663,0.109293 -6.1874999,4.75 -6.1874999,4.75 -0.546424,0.439661 -1.430863,1.022319 -1.625,1.71875 -0.177485,0.636697 -0.074518,1.123098 -0.03125,1.84375 l 1.1875,19.875 c 0.00103,0.01716 -0.00134,0.04547 0,0.0625 -0.00179,0.0054 0.00174,0.02584 0,0.03125 -0.039105,0.121813 -0.051365,0.242103 -0.0625,0.375 -0.079179,0.945046 0.617454,1.76457 1.5624999,1.84375 0.945046,0.07918 1.76457,-0.617457 1.84375,-1.5625 0.03959,-0.472523 -0.122334,-0.914158 -0.40625,-1.25 -0.0089,-0.0105 0.0091,-0.02097 0,-0.03125 L 10.37305,52.73438 c -0.07795,-0.648 0.04286,-0.886309 0.5625,-1.21875 0,-1e-6 4.62026,-3.514978 6.34375,-4.8125 0.07324,-0.05514 0.273069,-0.17073 0.28125,-0.46875 0.0041,-0.145964 6.18e-4,-3.391978 0,-3.40625 -4.91e-4,-0.0056 -0.003,-0.158597 -0.109375,-0.300781 -0.329969,-0.44098 -0.616227,-0.528136 -1.054687,-0.527344 z"
             id="path41710"
             sodipodi:nodetypes="cscccsccsssssscccssssz"
             inkscape:r_cx="true"
             inkscape:r_cy="true"
             inkscape:connector-curvature="0" />
        </g>
        <path
           inkscape:r_cy="true"
           inkscape:r_cx="true"
           sodipodi:nodetypes="csccsssssscss"
           id="path45344"
           d="m 27.309949,-30.260537 c -0.634713,0.0065 -1.227529,0.615284 -1.418852,1.298928 -0.174912,0.625007 0.04975,0.673011 0.09239,1.380431 l 1.170287,19.5100852 c 9.86e-4,0.01685 -0.0013,0.04463 0,0.06135 -0.0018,0.0053 0.0017,0.02537 0,0.03068 -0.03854,0.119576 -0.05063,0.237658 -0.06159,0.368115 -0.07803,0.927694 0.608504,1.732171 1.539852,1.809897 0.931347,0.07773 1.738992,-0.60612 1.817024,-1.533811 0.03902,-0.463848 -0.120561,-0.897374 -0.400361,-1.22705 -0.0088,-0.0103 0.009,-0.02058 0,-0.03068 0,0 -1.063473,-14.4333102 -1.266414,-20.1902262 -0.03026,-0.858351 -0.720101,-1.48537 -1.472336,-1.477719 z"
           style="fill:url(#radialGradient3222);fill-opacity:1;fill-rule:nonzero;stroke:none"
           inkscape:connector-curvature="0" />
        <path
           inkscape:r_cy="true"
           inkscape:r_cx="true"
           id="path57748"
           d="m 127.72241,-23.297333 c 0.0857,0.233982 0.12317,0.502674 0.12318,0.766906 V 8.5752752 c 4.82264,-3.5656 8.19201,-12.045347 8.19201,-21.9028322 0,-2.553752 -0.22537,-4.995847 -0.64673,-7.300943 -1.7648,-1.681652 -4.22105,-2.689891 -7.60687,-2.668833 -0.003,-3.58e-4 -0.028,-1.19e-4 -0.0309,0 -0.003,5.06e-4 -0.0281,-4.14e-4 -0.0308,0 z"
           style="opacity:0.8;fill:url(#radialGradient3219);fill-opacity:1;fill-rule:nonzero;stroke:none"
           inkscape:connector-curvature="0" />
        <path
           inkscape:r_cy="true"
           inkscape:r_cx="true"
           style="fill:#b5b5b5;fill-opacity:1;fill-rule:nonzero;stroke:#000000;stroke-width:0.46424517;stroke-linecap:round;stroke-linejoin:round;stroke-miterlimit:4;stroke-dasharray:none;stroke-opacity:0.48309183"
           d="m 125.40398,-28.932402 -0.23916,0.01331 c -0.56516,-0.0033 -0.57248,0.485096 -0.57248,1.552486 0,0 0.30878,5.158319 0.48463,16.208514 0.17585,11.05019322 0.0858,27.727463 0.0858,27.727463 0,0.54802 0.29696,0.97231 0.6381,0.9814 1.68438,0.0443 4.38763,-3.07881 4.36816,-6.34305 l -0.0162,-34.67814 c 0,-0.354003 -2.3735,-5.500793 -4.74897,-5.461988 z"
           id="path44367"
           sodipodi:nodetypes="cccscsccc"
           inkscape:connector-curvature="0" />
        <path
           style="opacity:0.49311924;fill:none;stroke:#000000;stroke-width:0.95603031;stroke-linecap:round;stroke-linejoin:round;stroke-miterlimit:4;stroke-dasharray:none;stroke-opacity:1"
           d="m 115.65786,-58.714166 c 0.007,0.0017 0.0236,0.02882 0.0308,0.03068 0.0143,0.004 0.0477,-0.0047 0.0616,0 0.0137,0.005 0.0484,0.02498 0.0616,0.03068 0.013,0.006 0.0491,0.02399 0.0616,0.03068 0.006,0.0035 0.0248,0.02699 0.0308,0.03068 0.0117,0.0077 0.0505,0.02233 0.0616,0.03068 0.006,0.0043 0.0255,0.02617 0.0308,0.03068 0.0205,0.01867 0.0438,0.04004 0.0616,0.06135 0,0 3.19313,3.027648 5.91303,6.503361 2.71991,3.475714 5.15848,7.685815 5.2278,7.669059 0.12189,-0.02947 0.43018,-0.06135 0.71603,-0.06135 2.61344,0 4.74274,2.057334 4.74274,4.570759 0,2.513425 -2.1293,4.540083 -4.74274,4.540083 -2.61344,0 -4.71194,-2.026659 -4.71194,-4.540083 0,-1.295985 0.54288,-2.483577 1.44746,-3.313033 -0.22423,-0.42827 -2.10044,-3.950433 -4.65035,-7.208915 -2.71991,-3.475715 -6.22101,-6.656744 -6.22101,-6.656743 -0.004,-0.0055 0.004,-0.02509 0,-0.03068 -0.004,-0.0057 -0.0272,-0.0249 -0.0308,-0.03068 -0.0136,-0.02343 -0.0207,-0.06734 -0.0308,-0.09203 -0.002,-0.0063 -0.0287,-0.02436 -0.0308,-0.03068 -0.004,-0.01275 0.003,-0.04837 0,-0.06135 -0.006,-0.03274 -0.0299,-0.08885 -0.0308,-0.122705 3e-5,-0.01362 -8.5e-4,-0.04762 0,-0.06135 10e-4,-0.01379 0.0287,-0.04748 0.0308,-0.06135 0.002,-0.01391 -0.003,-0.04739 0,-0.06135 0.004,-0.01397 0.0264,-0.04737 0.0308,-0.06135 0.0216,-0.06286 0.0557,-0.153385 0.0924,-0.214733 0.017,-0.02713 0.0417,-0.06558 0.0616,-0.09203 0.0618,-0.07873 0.16029,-0.176953 0.24637,-0.24541 0.0293,-0.02245 0.0605,-0.0405 0.0924,-0.06135 l 0.43116,-0.306763 c 0.0717,-0.04691 0.17115,-0.08952 0.24638,-0.122705 0.16767,-0.07035 0.36129,-0.08897 0.52355,-0.09203 0.0322,6e-5 0.0919,-0.0027 0.12318,0 0.0232,0.0026 0.0699,-0.004 0.0923,0 0.008,0.0015 0.0235,-0.0017 0.0308,0 z"
           id="path44371"
           sodipodi:nodetypes="cssssssscsssssscscsssssssssssssccssssc"
           inkscape:r_cx="true"
           inkscape:r_cy="true"
           inkscape:connector-curvature="0" />
        <path
           style="fill:#babdb6;fill-opacity:1;fill-rule:nonzero;stroke:none"
           d="m 115.65786,-58.714166 c 0.007,0.0017 0.0236,0.02882 0.0308,0.03068 0.0143,0.004 0.0477,-0.0047 0.0616,0 0.0137,0.005 0.0484,0.02498 0.0616,0.03068 0.013,0.006 0.0491,0.02399 0.0616,0.03068 0.006,0.0035 0.0248,0.02699 0.0308,0.03068 0.0117,0.0077 0.0505,0.02233 0.0616,0.03068 0.006,0.0043 0.0255,0.02617 0.0308,0.03068 0.0205,0.01867 0.0438,0.04004 0.0616,0.06135 0,0 3.19313,3.027648 5.91303,6.503361 2.71991,3.475714 5.15848,7.685815 5.2278,7.669059 0.12189,-0.02947 0.43018,-0.06135 0.71603,-0.06135 2.61344,0 4.74274,2.057334 4.74274,4.570759 0,2.513425 -2.1293,4.540083 -4.74274,4.540083 -2.61344,0 -4.71194,-2.026659 -4.71194,-4.540083 0,-1.295985 0.54288,-2.483577 1.44746,-3.313033 -0.22423,-0.42827 -2.10044,-3.950433 -4.65035,-7.208915 -2.71991,-3.475715 -6.22101,-6.656744 -6.22101,-6.656743 -0.004,-0.0055 0.004,-0.02509 0,-0.03068 -0.004,-0.0057 -0.0272,-0.0249 -0.0308,-0.03068 -0.0136,-0.02343 -0.0207,-0.06734 -0.0308,-0.09203 -0.002,-0.0063 -0.0287,-0.02436 -0.0308,-0.03068 -0.004,-0.01275 0.003,-0.04837 0,-0.06135 -0.006,-0.03274 -0.0299,-0.08885 -0.0308,-0.122705 3e-5,-0.01362 -8.5e-4,-0.04762 0,-0.06135 10e-4,-0.01379 0.0287,-0.04748 0.0308,-0.06135 0.002,-0.01391 -0.003,-0.04739 0,-0.06135 0.004,-0.01397 0.0264,-0.04737 0.0308,-0.06135 0.0216,-0.06286 0.0557,-0.153385 0.0924,-0.214733 0.017,-0.02713 0.0417,-0.06558 0.0616,-0.09203 0.0618,-0.07873 0.16029,-0.176953 0.24637,-0.24541 0.0293,-0.02245 0.0605,-0.0405 0.0924,-0.06135 l 0.43116,-0.306763 c 0.0717,-0.04691 0.17115,-0.08952 0.24638,-0.122705 0.16767,-0.07035 0.36129,-0.08897 0.52355,-0.09203 0.0322,6e-5 0.0919,-0.0027 0.12318,0 0.0232,0.0026 0.0699,-0.004 0.0923,0 0.008,0.0015 0.0235,-0.0017 0.0308,0 z"
           id="path44373"
           sodipodi:nodetypes="cssssssscsssssscscsssssssssssssccssssc"
           inkscape:r_cx="true"
           inkscape:r_cy="true"
           inkscape:connector-curvature="0" />
        <path
           style="fill:url(#linearGradient3213);fill-opacity:1;fill-rule:nonzero;stroke:none"
           d="m 115.48365,-58.714166 c 0.007,0.0017 0.0236,0.02882 0.0309,0.03068 0.0143,0.004 0.0477,-0.0047 0.0616,0 0.0137,0.005 0.0484,0.02498 0.0616,0.03068 0.013,0.006 0.0491,0.02399 0.0616,0.03068 0.006,0.0035 0.0248,0.02699 0.0308,0.03068 0.0117,0.0077 0.0505,0.02233 0.0616,0.03068 0.006,0.0043 0.0255,0.02617 0.0308,0.03068 0.0205,0.01867 0.0437,0.04004 0.0616,0.06135 0,0 3.19312,3.027648 5.91303,6.503361 2.71991,3.475714 5.15848,7.685815 5.22779,7.669059 0.1219,-0.02947 0.43019,-0.06135 0.71603,-0.06135 2.61344,0 4.74274,2.057334 4.74274,4.570759 0,2.513425 -2.1293,4.540083 -4.74274,4.540083 -2.61344,0 -4.71194,-2.026659 -4.71194,-4.540083 0,-1.295985 0.54289,-2.483577 1.44746,-3.313033 -0.22422,-0.42827 -2.10044,-3.950433 -4.65035,-7.208915 -2.71991,-3.475715 -6.22101,-6.656744 -6.22101,-6.656743 -0.004,-0.0055 0.004,-0.02509 0,-0.03068 -0.004,-0.0057 -0.0272,-0.0249 -0.0308,-0.03068 -0.0136,-0.02343 -0.0207,-0.06734 -0.0308,-0.09203 -0.002,-0.0063 -0.0287,-0.02436 -0.0308,-0.03068 -0.004,-0.01275 0.003,-0.04837 0,-0.06135 -0.006,-0.03274 -0.0299,-0.08885 -0.0308,-0.122705 4e-5,-0.01362 -8.5e-4,-0.04762 0,-0.06135 0.001,-0.01379 0.0287,-0.04748 0.0308,-0.06135 0.002,-0.01391 -0.003,-0.04739 0,-0.06135 0.004,-0.01397 0.0264,-0.04737 0.0308,-0.06135 0.0216,-0.06286 0.0557,-0.153385 0.0924,-0.214733 0.017,-0.02713 0.0417,-0.06558 0.0616,-0.09203 0.0618,-0.07873 0.16029,-0.176953 0.24638,-0.24541 0.0293,-0.02245 0.0605,-0.0405 0.0924,-0.06135 l 0.43116,-0.306763 c 0.0717,-0.04691 0.17114,-0.08952 0.24638,-0.122705 0.16766,-0.07035 0.36129,-0.08897 0.52355,-0.09203 0.0322,6e-5 0.0919,-0.0027 0.12318,0 0.0233,0.0026 0.0699,-0.004 0.0923,0 0.008,0.0015 0.0234,-0.0017 0.0309,0 z"
           id="path44375"
           sodipodi:nodetypes="cssssssscsssssscscsssssssssssssccssssc"
           inkscape:r_cx="true"
           inkscape:r_cy="true"
           inkscape:connector-curvature="0" />
        <path
           sodipodi:nodetypes="cssssssscsssssscscsssssssssssssccssssc"
           id="path44377"
           d="m 115.65786,-58.714166 c 0.007,0.0017 0.0236,0.02882 0.0308,0.03068 0.0143,0.004 0.0477,-0.0047 0.0616,0 0.0137,0.005 0.0484,0.02498 0.0616,0.03068 0.013,0.006 0.0491,0.02399 0.0616,0.03068 0.006,0.0035 0.0248,0.02699 0.0308,0.03068 0.0117,0.0077 0.0505,0.02233 0.0616,0.03068 0.006,0.0043 0.0255,0.02617 0.0308,0.03068 0.0205,0.01867 0.0438,0.04004 0.0616,0.06135 0,0 3.19313,3.027648 5.91303,6.503361 2.71991,3.475714 5.15848,7.685815 5.2278,7.669059 0.12189,-0.02947 0.43018,-0.06135 0.71603,-0.06135 2.61344,0 4.74274,2.057334 4.74274,4.570759 0,2.513425 -2.1293,4.540083 -4.74274,4.540083 -2.61344,0 -4.71194,-2.026659 -4.71194,-4.540083 0,-1.295985 0.54288,-2.483577 1.44746,-3.313033 -0.22423,-0.42827 -2.10044,-3.950433 -4.65035,-7.208915 -2.71991,-3.475715 -6.22101,-6.656744 -6.22101,-6.656743 -0.004,-0.0055 0.004,-0.02509 0,-0.03068 -0.004,-0.0057 -0.0272,-0.0249 -0.0308,-0.03068 -0.0136,-0.02343 -0.0207,-0.06734 -0.0308,-0.09203 -0.002,-0.0063 -0.0287,-0.02436 -0.0308,-0.03068 -0.004,-0.01275 0.003,-0.04837 0,-0.06135 -0.006,-0.03274 -0.0299,-0.08885 -0.0308,-0.122705 3e-5,-0.01362 -8.5e-4,-0.04762 0,-0.06135 10e-4,-0.01379 0.0287,-0.04748 0.0308,-0.06135 0.002,-0.01391 -0.003,-0.04739 0,-0.06135 0.004,-0.01397 0.0264,-0.04737 0.0308,-0.06135 0.0216,-0.06286 0.0557,-0.153385 0.0924,-0.214733 0.017,-0.02713 0.0417,-0.06558 0.0616,-0.09203 0.0618,-0.07873 0.16029,-0.176953 0.24637,-0.24541 0.0293,-0.02245 0.0605,-0.0405 0.0924,-0.06135 l 0.43116,-0.306763 c 0.0717,-0.04691 0.17115,-0.08952 0.24638,-0.122705 0.16767,-0.07035 0.36129,-0.08897 0.52355,-0.09203 0.0322,6e-5 0.0919,-0.0027 0.12318,0 0.0232,0.0026 0.0699,-0.004 0.0923,0 0.008,0.0015 0.0235,-0.0017 0.0308,0 z"
           style="opacity:0.66972477;fill:url(#radialGradient3210);fill-opacity:1;fill-rule:nonzero;stroke:none"
           inkscape:r_cx="true"
           inkscape:r_cy="true"
           inkscape:connector-curvature="0" />
        <ellipse
           ry="4.3414569"
           rx="4.3585515"
           cy="-39.776714"
           cx="-127.84197"
           style="opacity:0.66972477;fill:url(#radialGradient4541);fill-opacity:1;fill-rule:nonzero;stroke:none;stroke-width:1.51429498"
           id="path44379"
           inkscape:r_cx="true"
           inkscape:r_cy="true"
           transform="scale(-1,1)" />
        <ellipse
           ry="3.2523625"
           rx="3.2651689"
           cy="-39.602192"
           cx="-128.03894"
           style="opacity:0.67431192;fill:#2e3436;fill-opacity:1;fill-rule:nonzero;stroke:#000000;stroke-width:0.46227801;stroke-linecap:round;stroke-linejoin:round;stroke-miterlimit:4;stroke-dasharray:none;stroke-opacity:1"
           id="path44381"
           inkscape:r_cx="true"
           inkscape:r_cy="true"
           transform="scale(-1,1)" />
        <ellipse
           ry="3.2523625"
           rx="3.2651689"
           cy="-39.602192"
           cx="-128.03894"
           transform="scale(-1,1)"
           inkscape:r_cy="true"
           inkscape:r_cx="true"
           id="path44383"
           style="opacity:0.39678901;fill:url(#radialGradient4543);fill-opacity:1;fill-rule:nonzero;stroke:none;stroke-width:1.05382562" />
        <path
           style="opacity:0.39678901;fill:url(#radialGradient3202);fill-opacity:1;fill-rule:nonzero;stroke:url(#radialGradient3204);stroke-width:1.34945834;stroke-linecap:round;stroke-linejoin:round;stroke-miterlimit:4;stroke-dasharray:none;stroke-opacity:1"
           d="m 125.42388,-37.564569 c -1.00628,-1.263666 -0.9288,-3.135647 0.23223,-4.319595 0.8934,-0.911038 2.20344,-1.183826 3.34419,-0.820039 0.0151,0.0048 0.0291,0.03784 0.044,0.04287 0.5995,1.746285 0.19262,3.754672 -1.18062,5.155011 -0.35016,0.357071 -0.74805,0.651162 -1.16565,0.881342 -0.0108,0.006 -0.0326,-0.0054 -0.0436,5.1e-4 -0.33999,-0.152241 -0.66221,-0.38702 -0.94426,-0.661441 -0.10073,-0.09801 -0.20112,-0.171568 -0.2864,-0.278658 z"
           id="path44385"
           inkscape:r_cx="true"
           inkscape:r_cy="true"
           inkscape:connector-curvature="0" />
        <ellipse
           ry="3.2523625"
           rx="3.2651689"
           cy="-39.513241"
           cx="-127.74043"
           style="opacity:0.95412843;fill:url(#linearGradient4549);fill-opacity:1;fill-rule:nonzero;stroke:none;stroke-width:1.05382562"
           id="path44387"
           inkscape:r_cx="true"
           inkscape:r_cy="true"
           transform="scale(-1,1)" />
        <path
           inkscape:r_cy="true"
           inkscape:r_cx="true"
           sodipodi:nodetypes="cscscssc"
           id="path6407"
           d="m 81.321791,-78.705186 c -20.291008,0.4541 -33.930634,11.639491 -38.554435,21.503651 -0.914731,1.951435 -0.229311,3.674166 2.024812,5.997598 9.975742,-10.418327 19.487419,-16.045696 36.980321,-16.045696 17.492901,0 27.301621,5.984167 36.856731,16.285578 2.58569,-2.73176 2.57416,-3.861969 1.77045,-5.959347 -3.3205,-8.66525 -17.01175,-21.781785 -37.865397,-21.781784 -0.407297,0 -0.808278,-0.009 -1.212482,0 z"
           style="fill:#030000;fill-opacity:1;fill-rule:nonzero;stroke:none"
           inkscape:connector-curvature="0" />
        <path
           sodipodi:nodetypes="cccscsccc"
           id="path44389"
           d="m 125.49829,-28.997397 -0.23914,0.01331 c -0.56518,-0.0033 -0.57248,0.485096 -0.57248,1.552485 0,0 0.30877,5.15832 0.48462,16.208515 0.17584,11.05019322 0.0858,27.727458 0.0858,27.727458 0,0.54802 0.29695,0.97232 0.63809,0.98141 1.68439,0.0443 4.38765,-3.07882 4.36816,-6.34305 l -0.0162,-34.678146 c 0,-0.354002 -2.3735,-5.500792 -4.74897,-5.461987 z"
           style="opacity:0.66284407;fill:url(#linearGradient3197);fill-opacity:1;fill-rule:nonzero;stroke:none"
           inkscape:r_cx="true"
           inkscape:r_cy="true"
           inkscape:connector-curvature="0" />
        <path
           inkscape:r_cy="true"
           inkscape:r_cx="true"
           style="opacity:0.66284407;fill:url(#radialGradient3194);fill-opacity:1;fill-rule:nonzero;stroke:none"
           d="m 125.45474,-29.127546 -0.23914,0.01331 c -0.56518,-0.0033 -0.57248,0.485096 -0.57248,1.552486 0,0 0.30877,5.158319 0.48462,16.208514 0.17584,11.05019322 0.0858,27.727457 0.0858,27.727457 0,0.54803 0.29695,0.97232 0.63809,0.98141 1.68439,0.0443 4.38765,-3.07882 4.36816,-6.34305 l -0.0162,-34.678144 c 0,-0.354003 -2.3735,-5.500793 -4.74897,-5.461988 z"
           id="path44391"
           sodipodi:nodetypes="cccscsccc"
           inkscape:connector-curvature="0" />
        <g
           inkscape:r_cy="true"
           inkscape:r_cx="true"
           transform="matrix(-0.9855048,0,0,0.9816395,144.48387,-79.175215)"
           id="g44393">
          <circle
             r="2.8894303"
             cy="63.885883"
             cx="16.946117"
             transform="translate(-6.624738,9.564268)"
             inkscape:r_cy="true"
             inkscape:r_cx="true"
             id="path44395"
             style="fill:#babdb6;fill-opacity:1;fill-rule:nonzero;stroke:none" />
          <path
             style="fill:none;stroke:#000000;stroke-width:0.472;stroke-linecap:round;stroke-linejoin:round;stroke-miterlimit:4;stroke-dasharray:none;stroke-opacity:0.70772944"
             d="m 16.396488,42.000005 c -0.438461,7.92e-4 -0.743512,0.105763 -1.054688,0.546875 -0.05535,0.07846 -0.08532,0.182284 -0.09375,0.28125 0,0 7.9e-5,1.678661 0,1.78125 -0.139663,0.109293 -6.1874999,4.75 -6.1874999,4.75 -0.546424,0.439661 -1.430863,1.022319 -1.625,1.71875 -0.177485,0.636697 -0.074518,1.123098 -0.03125,1.84375 l 1.1875,19.875 c 0.00103,0.01716 -0.00134,0.04547 0,0.0625 -0.00179,0.0054 0.00174,0.02584 0,0.03125 -0.039105,0.121813 -0.051365,0.242103 -0.0625,0.375 -0.079179,0.945046 0.617454,1.76457 1.5624999,1.84375 0.945046,0.07918 1.76457,-0.617457 1.84375,-1.5625 0.03959,-0.472523 -0.122334,-0.914158 -0.40625,-1.25 -0.0089,-0.0105 0.0091,-0.02097 0,-0.03125 L 10.37305,52.73438 c -0.07795,-0.648 0.04286,-0.886309 0.5625,-1.21875 0,-1e-6 4.62026,-3.514978 6.34375,-4.8125 0.07324,-0.05514 0.273069,-0.17073 0.28125,-0.46875 0.0041,-0.145964 6.18e-4,-3.391978 0,-3.40625 -4.91e-4,-0.0056 -0.003,-0.158597 -0.109375,-0.300781 -0.329969,-0.44098 -0.616227,-0.528136 -1.054687,-0.527344 z"
             id="path44397"
             sodipodi:nodetypes="cscccsccsssssscccssssz"
             inkscape:r_cx="true"
             inkscape:r_cy="true"
             inkscape:connector-curvature="0" />
          <path
             inkscape:r_cy="true"
             inkscape:r_cx="true"
             sodipodi:nodetypes="cscccsccsssssscccssssz"
             id="path44399"
             d="m 16.396488,42.000005 c -0.438461,7.92e-4 -0.743512,0.105763 -1.054688,0.546875 -0.05535,0.07846 -0.08532,0.182284 -0.09375,0.28125 0,0 7.9e-5,1.678661 0,1.78125 -0.139663,0.109293 -6.1874999,4.75 -6.1874999,4.75 -0.546424,0.439661 -1.430863,1.022319 -1.625,1.71875 -0.177485,0.636697 -0.074518,1.123098 -0.03125,1.84375 l 1.1875,19.875 c 0.00103,0.01716 -0.00134,0.04547 0,0.0625 -0.00179,0.0054 0.00174,0.02584 0,0.03125 -0.039105,0.121813 -0.051365,0.242103 -0.0625,0.375 -0.079179,0.945046 0.617454,1.76457 1.5624999,1.84375 0.945046,0.07918 1.76457,-0.617457 1.84375,-1.5625 0.03959,-0.472523 -0.122334,-0.914158 -0.40625,-1.25 -0.0089,-0.0105 0.0091,-0.02097 0,-0.03125 L 10.37305,52.73438 c -0.07795,-0.648 0.04286,-0.886309 0.5625,-1.21875 0,-1e-6 4.62026,-3.514978 6.34375,-4.8125 0.07324,-0.05514 0.273069,-0.17073 0.28125,-0.46875 0.0041,-0.145964 6.18e-4,-3.391978 0,-3.40625 -4.91e-4,-0.0056 -0.003,-0.158597 -0.109375,-0.300781 -0.329969,-0.44098 -0.616227,-0.528136 -1.054687,-0.527344 z"
             style="fill:#555555;fill-opacity:1;fill-rule:nonzero;stroke:none"
             inkscape:connector-curvature="0" />
          <path
             style="fill:url(#radialGradient4555);fill-opacity:1;fill-rule:nonzero;stroke:none"
             d="m 16.396488,42.000005 c -0.438461,7.92e-4 -0.743512,0.105763 -1.054688,0.546875 -0.05535,0.07846 -0.08532,0.182284 -0.09375,0.28125 0,0 7.9e-5,1.678661 0,1.78125 -0.139663,0.109293 -6.1874999,4.75 -6.1874999,4.75 -0.546424,0.439661 -1.430863,1.022319 -1.625,1.71875 -0.177485,0.636697 -0.074518,1.123098 -0.03125,1.84375 l 1.1875,19.875 c 0.00103,0.01716 -0.00134,0.04547 0,0.0625 -0.00179,0.0054 0.00174,0.02584 0,0.03125 -0.039105,0.121813 -0.051365,0.242103 -0.0625,0.375 -0.079179,0.945046 0.617454,1.76457 1.5624999,1.84375 0.945046,0.07918 1.76457,-0.617457 1.84375,-1.5625 0.03959,-0.472523 -0.122334,-0.914158 -0.40625,-1.25 -0.0089,-0.0105 0.0091,-0.02097 0,-0.03125 L 10.37305,52.73438 c -0.07795,-0.648 0.04286,-0.886309 0.5625,-1.21875 0,-1e-6 4.62026,-3.514978 6.34375,-4.8125 0.07324,-0.05514 0.273069,-0.17073 0.28125,-0.46875 0.0041,-0.145964 6.18e-4,-3.391978 0,-3.40625 -4.91e-4,-0.0056 -0.003,-0.158597 -0.109375,-0.300781 -0.329969,-0.44098 -0.616227,-0.528136 -1.054687,-0.527344 z"
             id="path44401"
             sodipodi:nodetypes="cscccsccsssssscccssssz"
             inkscape:r_cx="true"
             inkscape:r_cy="true"
             inkscape:connector-curvature="0" />
          <path
             inkscape:r_cy="true"
             inkscape:r_cx="true"
             sodipodi:nodetypes="cscccsccsssssscccssssz"
             id="path44403"
             d="m 16.396488,42.000005 c -0.438461,7.92e-4 -0.743512,0.105763 -1.054688,0.546875 -0.05535,0.07846 -0.08532,0.182284 -0.09375,0.28125 0,0 7.9e-5,1.678661 0,1.78125 -0.139663,0.109293 -6.1874999,4.75 -6.1874999,4.75 -0.546424,0.439661 -1.430863,1.022319 -1.625,1.71875 -0.177485,0.636697 -0.074518,1.123098 -0.03125,1.84375 l 1.1875,19.875 c 0.00103,0.01716 -0.00134,0.04547 0,0.0625 -0.00179,0.0054 0.00174,0.02584 0,0.03125 -0.039105,0.121813 -0.051365,0.242103 -0.0625,0.375 -0.079179,0.945046 0.617454,1.76457 1.5624999,1.84375 0.945046,0.07918 1.76457,-0.617457 1.84375,-1.5625 0.03959,-0.472523 -0.122334,-0.914158 -0.40625,-1.25 -0.0089,-0.0105 0.0091,-0.02097 0,-0.03125 L 10.37305,52.73438 c -0.07795,-0.648 0.04286,-0.886309 0.5625,-1.21875 0,-1e-6 4.62026,-3.514978 6.34375,-4.8125 0.07324,-0.05514 0.273069,-0.17073 0.28125,-0.46875 0.0041,-0.145964 6.18e-4,-3.391978 0,-3.40625 -4.91e-4,-0.0056 -0.003,-0.158597 -0.109375,-0.300781 -0.329969,-0.44098 -0.616227,-0.528136 -1.054687,-0.527344 z"
             style="fill:url(#radialGradient4557);fill-opacity:1;fill-rule:nonzero;stroke:none;filter:url(#filter4037)"
             inkscape:connector-curvature="0" />
        </g>
        <path
           style="fill:url(#radialGradient3185);fill-opacity:1;fill-rule:nonzero;stroke:none"
           d="m 135.67172,-30.199184 c 0.63369,-0.03643 1.27108,0.485135 1.46241,1.168779 0.17491,0.625007 0.25512,0.933308 0.21248,1.640728 0,0 -1.2566,19.4558402 -1.27234,19.6866992 -0.013,0.191307 0.14257,0.362543 0.1179,0.717356 -0.0645,0.928721 -0.90317,1.638967 -1.83769,1.626292 -1.03914,-0.0143 -1.65144,-0.833108 -1.72947,-1.7608 -0.039,-0.463847 0.2043,-0.772317 0.36956,-1.104344 0.0698,-0.140117 0.0601,-0.29667 0.0691,-0.306762 0,0 0.93282,-14.4333102 1.13575,-20.1902262 0.0303,-0.858355 0.85076,-1.441991 1.47233,-1.477722 z"
           id="path47133"
           sodipodi:nodetypes="cscssssscss"
           inkscape:r_cx="true"
           inkscape:r_cy="true"
           inkscape:connector-curvature="0" />
        <path
           inkscape:r_cy="true"
           inkscape:r_cx="true"
           id="path48010"
           d="m 37.47132,-28.177253 c -2.241997,0.331893 -4.426798,4.95577 -4.496366,5.429693 -2.89e-4,0.0033 0,0.02791 0,0.03068 v 17.2707202 c 1.11961,-4.167855 2.913904,-7.8378522 5.204697,-10.7060062 0.170001,-7.099037 0.369565,-10.460597 0.369565,-10.460596 0,-0.633762 -0.0028,-1.075276 -0.123188,-1.319078 -0.0067,-0.01232 -0.02345,-0.05006 -0.0308,-0.06135 -0.0038,-0.0054 -0.02676,-0.02554 -0.0308,-0.03068 -0.0042,-0.0049 -0.02638,-0.02604 -0.0308,-0.03068 -0.0093,-0.0087 -0.02077,-0.02292 -0.0308,-0.03068 -0.0052,-0.0036 -0.02537,-0.0273 -0.0308,-0.03068 -0.02822,-0.01563 -0.08926,-0.02122 -0.123188,-0.03068 -0.01405,-0.0033 -0.04655,-0.02836 -0.06159,-0.03068 -0.0311,-0.0036 -0.08787,-2.08e-4 -0.123188,0 h -0.215579 c -0.09279,-0.0015 -0.184529,-0.01371 -0.277173,0 z"
           style="opacity:0.66284407;fill:url(#radialGradient3182);fill-opacity:1;fill-rule:nonzero;stroke:none"
           inkscape:connector-curvature="0" />
        <path
           inkscape:r_cy="true"
           inkscape:r_cx="true"
           id="path48898"
           d="m 125.14618,-28.815442 c -0.0151,0.0024 -0.0475,0.02739 -0.0616,0.03068 -0.0339,0.0094 -0.095,0.01505 -0.12318,0.03068 -0.006,0.0033 -0.0256,0.02705 -0.0309,0.03068 -0.005,0.0038 -0.026,0.02655 -0.0309,0.03068 -0.004,0.0046 -0.0266,0.0258 -0.0308,0.03068 -0.004,0.0051 -0.0269,0.02529 -0.0309,0.03068 -0.007,0.01129 -0.0241,0.04903 -0.0308,0.06135 -0.1204,0.243802 -0.12319,0.685316 -0.12319,1.319079 0,-1e-6 0.3169,5.146856 0.49275,16.197051 0.12304,7.7321322 0.10775,18.2038572 0.0923,23.804753 1.68643,-6.7419168 2.74094,-16.3030178 2.74094,-26.903052 0,-4.849939 -0.21519,-9.498206 -0.61594,-13.742953 -0.60077,-0.560822 -1.25988,-0.930898 -1.90942,-0.920287 h -0.21558 c -0.0353,-2.09e-4 -0.092,-0.0036 -0.12319,0 z"
           style="opacity:0.66284407;fill:url(#radialGradient3179);fill-opacity:1;fill-rule:nonzero;stroke:none"
           inkscape:connector-curvature="0" />
        <path
           sodipodi:nodetypes="cssssscssssssssssssssc"
           inkscape:r_cy="true"
           inkscape:r_cx="true"
           id="path48913"
           d="m 34.581695,-38.344947 c -0.351212,0.02616 -0.624782,0.173285 -0.893114,0.552172 -0.0097,0.015 -0.02287,0.04493 -0.0308,0.06135 -0.0099,0.02242 -0.0239,0.06812 -0.0308,0.09203 -0.0016,0.006 0.0014,0.0246 0,0.03068 -0.0024,0.01221 -0.02908,0.04912 -0.0308,0.06135 -6.86e-4,0.0061 5.19e-4,0.0246 0,0.03068 0,0 7.8e-5,1.64784 0,1.748545 -0.03676,0.02865 -0.527396,0.367259 -1.170287,0.858935 0,0.0099 -2.5e-5,0.02083 0,0.03068 0.0029,1.159575 0.161691,2.264831 0.461955,3.221005 7.65e-4,0.0025 0.03003,-0.0025 0.0308,0 1.0425,-0.78803 2.04637,-1.580648 2.679341,-2.055308 0.03158,-0.02368 0.100913,-0.06628 0.153986,-0.122705 0.01878,-0.02126 0.0451,-0.06467 0.06159,-0.09203 0.0126,-0.02295 0.02134,-0.06453 0.0308,-0.09203 0.0064,-0.02153 0.02698,-0.06766 0.0308,-0.09203 0.0019,-0.01691 -5.04e-4,-0.04306 0,-0.06135 0.004,-0.143284 0.151768,-3.169606 0.06929,-3.297695 -0.07636,-0.118583 -0.191902,-0.267515 -0.307969,-0.368115 -0.210131,-0.182126 -0.468709,-0.506935 -0.900813,-0.506157 -0.05402,9.7e-5 -0.103812,-0.0037 -0.153985,0 z"
           style="fill:url(#radialGradient3176);fill-opacity:1;fill-rule:nonzero;stroke:none"
           inkscape:connector-curvature="0" />
        <path
           sodipodi:nodetypes="csssssssc"
           style="fill:url(#radialGradient3173);fill-opacity:1;fill-rule:nonzero;stroke:none"
           d="m 128.51398,-37.944428 c 0.40116,0.02616 0.71364,0.173286 1.02013,0.552173 0.011,0.015 0.10358,0.233174 0.10554,0.245409 7.9e-4,0.0061 0.004,0.404742 -1.28477,2.749961 -0.0208,0.03774 -1.31775,0.642709 -1.31833,0.624425 -0.005,-0.143284 -7e-4,-3.329699 0,-3.343709 5.5e-4,-0.0074 0.10179,-0.302401 0.10553,-0.306763 0.37144,-0.432882 0.70246,-0.522273 1.19602,-0.521496 0.0617,9.7e-5 0.11858,-0.0037 0.17588,0 z"
           id="path49816"
           inkscape:r_cx="true"
           inkscape:r_cy="true"
           inkscape:connector-curvature="0" />
        <path
           style="opacity:0.56880739;fill:url(#radialGradient3170);fill-opacity:1;fill-rule:nonzero;stroke:none"
           d="m 39.440711,-28.990935 c 0.383331,-0.30123 0.936163,-0.671083 2.343543,-0.718373 0.355155,-0.01193 -1.279697,6.180476 -0.540569,2.73063 0,0 -1.415895,9.790324 -1.415895,21.5385892 l 0.340443,24.0416598 c -0.939738,-0.0388 -2.008648,-1.39403 -2.008648,-1.74803 0,0 0.297972,-10.3450538 0.297972,-22.0933188 0,-11.7482642 0.370599,-22.5626202 0.370599,-22.5626202 0,-0.354006 0.346765,-0.979674 0.612555,-1.188537 z"
           id="path49820"
           sodipodi:nodetypes="cscsccscs"
           inkscape:r_cx="true"
           inkscape:r_cy="true"
           inkscape:connector-curvature="0" />
        <path
           inkscape:r_cy="true"
           inkscape:r_cx="true"
           sodipodi:nodetypes="cscsccccscs"
           id="path52457"
           d="m 123.97995,-29.177622 c -0.38333,-0.30123 -1.24413,-1.039198 -2.65152,-1.086488 -0.35514,-0.01193 -0.63409,0.480863 -0.63409,0.83487 0,0 0.92753,12.483667 0.92753,24.2319312 0,11.748265 -0.42852,22.6040598 -0.42852,22.6040598 0,0.354 -0.0187,1.29989 1.26791,1.3855 l 0.5448,-0.009 c 0.93973,-0.0388 2.31661,-1.33267 2.31661,-1.68667 0,0 0.19478,-10.4677668 0.19478,-22.2160308 0,-11.7482652 -0.74017,-22.9920882 -0.74017,-22.9920882 0,-0.354006 -0.53154,-0.856969 -0.79733,-1.065832 z"
           style="fill:url(#radialGradient3167);fill-opacity:1;fill-rule:nonzero;stroke:none"
           inkscape:connector-curvature="0" />
        <path
           style="fill:url(#radialGradient3164);fill-opacity:1;fill-rule:nonzero;stroke:none"
           d="m 123.97995,-29.177622 c -0.38333,-0.30123 -1.24413,-1.039198 -2.65152,-1.086488 -0.35514,-0.01193 -0.63409,0.480863 -0.63409,0.83487 0,0 0.92753,12.483667 0.92753,24.2319312 0,11.748265 -0.42852,22.6040598 -0.42852,22.6040598 0,0.354 -0.0187,1.29989 1.26791,1.3855 l 0.5448,-0.009 c 0.93973,-0.0388 2.31661,-1.33267 2.31661,-1.68667 0,0 0.19478,-10.4677668 0.19478,-22.2160308 0,-11.7482652 -0.74017,-22.9920882 -0.74017,-22.9920882 0,-0.354006 -0.53154,-0.856969 -0.79733,-1.065832 z"
           id="path53340"
           sodipodi:nodetypes="cscsccccscs"
           inkscape:r_cx="true"
           inkscape:r_cy="true"
           inkscape:connector-curvature="0" />
        <path
           style="fill:url(#radialGradient3161);fill-opacity:1;fill-rule:nonzero;stroke:none"
           d="m 39.255929,-29.062814 c 0.383331,-0.301229 1.244133,-1.039198 2.651514,-1.086487 0.355154,-0.01193 0.634095,0.480863 0.634095,0.83487 0,0 -0.927521,12.483666 -0.927521,24.2319312 0,11.748264 0.428515,22.6040608 0.428515,22.6040608 0,0.354 0.01873,1.29988 -1.267911,1.38549 l -0.544794,-0.009 c -0.939738,-0.0388 -2.316619,-1.33267 -2.316619,-1.68667 0,0 -0.19478,-10.4677678 -0.19478,-22.2160328 0,-11.7482642 0.740164,-22.9920882 0.740164,-22.9920882 0,-0.354005 0.531546,-0.856968 0.797337,-1.065831 z"
           id="path55098"
           sodipodi:nodetypes="cscsccccscs"
           inkscape:r_cx="true"
           inkscape:r_cy="true"
           inkscape:connector-curvature="0" />
        <path
           sodipodi:nodetypes="cscsscssc"
           inkscape:r_cy="true"
           inkscape:r_cx="true"
           id="path59507"
           d="m 81.085191,-78.95785 c -20.159951,0.535655 -33.705759,11.678413 -38.311499,21.50404 -0.879856,1.877038 -0.266859,3.544503 1.786228,5.736456 -0.171968,-0.869657 -0.236385,-1.775769 -0.215579,-2.668832 0.280328,-12.032847 17.745544,-22.924598 39.862824,-22.390942 9.762704,0.235559 19.378525,3.939175 26.258385,7.267558 -6.63227,-5.217599 -16.131199,-9.448281 -27.932898,-9.44828 -0.407301,10e-7 -0.796881,-0.009 -1.201084,0 -0.07926,0.0018 -0.167318,-0.0021 -0.246377,0 z"
           style="fill:url(#radialGradient3158);fill-opacity:1;fill-rule:nonzero;stroke:none"
           inkscape:connector-curvature="0" />
      </g>
      <path
         inkscape:connector-curvature="0"
         id="path4989"
         d="m 22.501852,-7.1063709 c -3.213356,0 -5.843888,2.6183319 -5.843888,5.8212457 V 70.143131 c 0,3.202915 2.630532,5.821246 5.843888,5.821246 h 79.175258 c 3.21336,0 5.8439,-2.618331 5.8439,-5.821246 V -1.2851252 c 0,-3.2029127 -2.63054,-5.8212457 -5.8439,-5.8212457 z m 0,2.3914303 h 79.175258 c 1.94671,0 3.45606,1.5260344 3.45606,3.4298154 V 70.143131 c 0,1.903785 -1.50935,3.429815 -3.45606,3.429815 H 22.501852 c -1.946702,0 -3.456063,-1.52603 -3.456063,-3.429815 V -1.2851252 c 0,-1.903781 1.509361,-3.4298154 3.456063,-3.4298154 z"
         style="color:#000000;font-style:normal;font-variant:normal;font-weight:normal;font-stretch:normal;font-size:medium;line-height:normal;font-family:Sans;-inkscape-font-specification:Sans;text-indent:0;text-align:start;text-decoration:none;text-decoration-line:none;letter-spacing:normal;word-spacing:normal;text-transform:none;writing-mode:lr-tb;direction:ltr;baseline-shift:baseline;text-anchor:start;display:inline;overflow:visible;visibility:visible;opacity:0.581;fill:#241f1f;fill-opacity:0.63265303;stroke:none;stroke-width:2.44923139;marker:none;enable-background:accumulate" />
      <path
         inkscape:connector-curvature="0"
         style="display:inline;opacity:0.65818182;fill:url(#linearGradient7460);fill-opacity:1;fill-rule:nonzero;stroke:none;stroke-width:1.03103817"
         d="m 13.918376,72.401403 v 6.186229 c 0,3.794366 3.06848,6.862847 6.862848,6.862847 h 82.160856 c 3.79437,0 6.86284,-3.068481 6.86284,-6.862847 v -6.186229 c 0,3.794367 -3.06847,6.862847 -6.86284,6.862847 H 20.781224 c -3.794368,0 -6.862848,-3.06848 -6.862848,-6.862847 z"
         id="path4118" />
      <rect
         style="opacity:0.55;fill:url(#radialGradient7462);fill-opacity:1;stroke:none;stroke-width:1.03103817"
         id="rect4131"
         width="86.864975"
         height="4.3819122"
         x="17.913649"
         y="70.758194"
         rx="0"
         ry="4.3819122" />
      <rect
         ry="4.3819122"
         rx="0"
         y="-105.80965"
         x="-7.0851936"
         height="4.3819122"
         width="79.132179"
         id="rect4141"
         style="opacity:0.55;fill:url(#radialGradient7464);fill-opacity:1;stroke:none;stroke-width:1.03103817"
         transform="rotate(90)" />
      <path
         sodipodi:nodetypes="ssccscss"
         style="opacity:0.14322917;fill:#ffffff;fill-opacity:1;stroke:none;stroke-width:1.03103817"
         d="m 22.44766,-5.1329235 c -2.055221,0 -3.716368,1.7005335 -3.720813,3.798858 L 18.574029,70.798522 c 1.973084,2.599303 1.716971,2.485598 5.002096,2.762218 1.860215,-15.322314 37.63188,-75.6126998 79.821195,-75.6126998 0.50323,0 0.99317,0.020476 1.49419,0.02991 -0.31226,-1.7713555 -1.80534,-3.1108751 -3.63292,-3.1108751 z"
         id="rect4190"
         inkscape:connector-curvature="0" />
      <rect
         transform="matrix(0.93752781,0,0,0.95719245,17.02736,24.015666)"
         style="opacity:0.66699997;fill:url(#linearGradient7128);fill-opacity:1;stroke:none"
         id="rect4146"
         width="92"
         height="92"
         x="2"
         y="-30"
         rx="3.9569874"
         ry="3.9569881"
         clip-path="url(#clipPath4156-4)" />
      <g
         transform="matrix(1.0701623,0,0,1.0701621,-107.08128,-15.572846)"
         id="g1094">
        <path
           style="display:inline;opacity:0.45;fill:url(#radialGradient7430);fill-opacity:1;fill-rule:nonzero;stroke:none;stroke-width:1.06666672"
           d="m 119.46667,4.8 c -3.5456,0 -6.4,2.8543996 -6.4,6.4 v 16 h 1.06666 v -16 c 0,-2.973117 2.36022,-5.3333333 5.33334,-5.3333333 h 76.8 c 2.97312,0 5.33333,2.3602163 5.33333,5.3333333 v 16 h 1.06667 v -16 c 0,-3.5456004 -2.8544,-6.4 -6.4,-6.4 z"
           id="path1092"
           inkscape:connector-curvature="0" />
      </g>
    </g>
  </g>
  <g
     id="layer1"
     inkscape:label="Layer 1"
     inkscape:groupmode="layer"
     transform="translate(0,-32)" />
</svg>
