<?xml version="1.0" encoding="UTF-8" standalone="no"?>
<!-- Created with Inkscape (http://www.inkscape.org/) -->

<svg
   xmlns:dc="http://purl.org/dc/elements/1.1/"
   xmlns:cc="http://creativecommons.org/ns#"
   xmlns:rdf="http://www.w3.org/1999/02/22-rdf-syntax-ns#"
   xmlns:svg="http://www.w3.org/2000/svg"
   xmlns="http://www.w3.org/2000/svg"
   xmlns:xlink="http://www.w3.org/1999/xlink"
   xmlns:sodipodi="http://sodipodi.sourceforge.net/DTD/sodipodi-0.dtd"
   xmlns:inkscape="http://www.inkscape.org/namespaces/inkscape"
   width="96"
   height="96"
   viewBox="0 0 96.000001 96.000004"
   version="1.1"
   id="svg1072"
   inkscape:version="0.92.2 5c3e80d, 2017-08-06"
   sodipodi:docname="blueman-loudspeaker.svg">
  <defs
     id="defs1066">
    <linearGradient
       id="linearGradient6139-0">
      <stop
         style="stop-color:#bcb2b2;stop-opacity:1"
         offset="0"
         id="stop6141-2" />
      <stop
         id="stop6151-0"
         offset="0.25"
         style="stop-color:#ffffff;stop-opacity:1;" />
      <stop
         id="stop6147-1"
         offset="0.5"
         style="stop-color:#a49696;stop-opacity:1" />
      <stop
         style="stop-color:#fbf9f9;stop-opacity:1"
         offset="0.75"
         id="stop6149-4" />
      <stop
         style="stop-color:#bcb2b2;stop-opacity:1"
         offset="1"
         id="stop6143-4" />
    </linearGradient>
    <linearGradient
       id="linearGradient3832-0-6-1-1">
      <stop
         id="stop3834-6-3-7-1"
         offset="0"
         style="stop-color:#000000;stop-opacity:1;" />
      <stop
         style="stop-color:#000000;stop-opacity:0.58823532;"
         offset="0.1"
         id="stop3872-2-4" />
      <stop
         id="stop3844-6-2-7-6"
         offset="0.89999998"
         style="stop-color:#000000;stop-opacity:0.58823532;" />
      <stop
         id="stop3836-5-0-2-9"
         offset="1"
         style="stop-color:#000000;stop-opacity:1;" />
    </linearGradient>
    <linearGradient
       id="linearGradient3737">
      <stop
         id="stop3739"
         style="stop-color:#ffffff;stop-opacity:1"
         offset="0" />
      <stop
         id="stop3741"
         style="stop-color:#ffffff;stop-opacity:0"
         offset="1" />
    </linearGradient>
    <clipPath
       clipPathUnits="userSpaceOnUse"
       id="clipPath4156-4-1">
      <path
         style="opacity:0.6;fill:#ffffff;fill-opacity:1;stroke:none"
         d="m 27.046336,-55.695463 -14.21366,13.321486 h 0.06127 l 15.653407,21.770763 10.231384,-10.546177 C 38.561832,-32.30156 27.468089,-54.819245 27.046336,-55.695463 Z M 9.6468554,-39.382809 -5.2407289,-25.32124 15.987863,-7.8059573 26.372412,-18.382966 Z m 31.4906096,12.951445 -9.741259,9.713584 8.944804,12.4580526 7.780753,-7.5550056 z m -49.8397109,4.378822 -13.7541661,12.9822847 26.2830181,13.84571 0.06127,-0.0617 -0.122531,-0.0617 L 13.598503,-5.4007374 -8.7022409,-22.052595 Z m 38.0154159,7.400825 -9.802525,9.7752596 11.579232,9.5594001 7.62759,-7.40083 -8.669108,-11.0087257 z m 20.187073,5.6739697 -7.382526,7.2158 6.187844,8.54179 5.820249,-6.13651996 z m -32.195166,6.32154 -9.5574606,9.49772 13.6622686,7.1849703 7.933918,-7.6783603 z m 23.311629,2.37443004 -7.10683,6.93826996 8.362778,6.9074403 5.360756,-5.6739699 -0.06127,-0.0925 -0.0919,0.12335 -6.463539,-8.20258036 z m -8.730374,8.54178036 -7.505057,7.3391599 10.353916,5.45811 c 1.397496,-1.32103 5.67514,-6.12292 5.850882,-6.32154 z"
         id="path4158-0-8"
         inkscape:connector-curvature="0" />
    </clipPath>
    <linearGradient
       id="linearGradient3981">
      <stop
         style="stop-color:#ffffff;stop-opacity:0.42798355"
         offset="0"
         id="stop3983" />
      <stop
         id="stop3989"
         offset="0.5"
         style="stop-color:#ffffff;stop-opacity:0.23251028" />
      <stop
         style="stop-color:#ffffff;stop-opacity:0.1090535"
         offset="0.75"
         id="stop3991" />
      <stop
         id="stop3993"
         offset="0.875"
         style="stop-color:#ffffff;stop-opacity:0.06378601" />
      <stop
         style="stop-color:#ffffff;stop-opacity:0;"
         offset="1"
         id="stop3985" />
    </linearGradient>
    <linearGradient
       y2="47.000011"
       x2="90"
       y1="47.000011"
       x1="6"
       gradientTransform="matrix(1.1071428,0,0,1.1071426,-4.9939026,-3.620687)"
       gradientUnits="userSpaceOnUse"
       id="linearGradient4071"
       xlink:href="#linearGradient6139-0-3"
       inkscape:collect="always" />
    <linearGradient
       id="linearGradient6139-0-3">
      <stop
         style="stop-color:#b2babc;stop-opacity:1"
         offset="0"
         id="stop6141-2-6" />
      <stop
         id="stop6151-0-7"
         offset="0.25"
         style="stop-color:#ffffff;stop-opacity:1;" />
      <stop
         id="stop6147-1-5"
         offset="0.5"
         style="stop-color:#96a1a4;stop-opacity:1" />
      <stop
         style="stop-color:#fbf9f9;stop-opacity:1;"
         offset="0.75"
         id="stop6149-4-3" />
      <stop
         style="stop-color:#b2b9bc;stop-opacity:1"
         offset="1"
         id="stop6143-4-5" />
    </linearGradient>
    <linearGradient
       gradientUnits="userSpaceOnUse"
       y2="88.171875"
       x2="94.5"
       y1="88.171875"
       x1="1.5"
       id="linearGradient4129"
       xlink:href="#linearGradient3832-0-6-1-1"
       inkscape:collect="always"
       gradientTransform="translate(0.1489535,0.415026)" />
    <radialGradient
       r="43.199203"
       fy="44.892841"
       fx="13.948145"
       cy="44.892841"
       cx="13.948145"
       gradientTransform="matrix(0.97513378,0,0,0.04919072,34.047649,80.581722)"
       gradientUnits="userSpaceOnUse"
       id="radialGradient7462"
       xlink:href="#linearGradient3737"
       inkscape:collect="always" />
    <radialGradient
       r="43.199203"
       fy="44.892841"
       fx="13.948145"
       cy="44.892841"
       cx="13.948145"
       gradientTransform="matrix(0.88832663,0,0,0.04919072,31.959518,-90.31726)"
       gradientUnits="userSpaceOnUse"
       id="radialGradient7464"
       xlink:href="#linearGradient3737"
       inkscape:collect="always" />
    <linearGradient
       y2="14.514202"
       x2="50.527882"
       y1="-28.64156"
       x1="2.7713892"
       gradientUnits="userSpaceOnUse"
       id="linearGradient4767"
       xlink:href="#linearGradient3737"
       inkscape:collect="always" />
    <clipPath
       clipPathUnits="userSpaceOnUse"
       id="clipPath4156-4-1-0">
      <path
         style="opacity:0.6;fill:#ffffff;fill-opacity:1;stroke:none"
         d="m 27.046336,-55.695463 -14.21366,13.321486 h 0.06127 l 15.653407,21.770763 10.231384,-10.546177 C 38.561832,-32.30156 27.468089,-54.819245 27.046336,-55.695463 Z M 9.6468554,-39.382809 -5.2407289,-25.32124 15.987863,-7.8059573 26.372412,-18.382966 Z m 31.4906096,12.951445 -9.741259,9.713584 8.944804,12.4580526 7.780753,-7.5550056 z m -49.8397109,4.378822 -13.7541661,12.9822847 26.2830181,13.84571 0.06127,-0.0617 -0.122531,-0.0617 L 13.598503,-5.4007374 -8.7022409,-22.052595 Z m 38.0154159,7.400825 -9.802525,9.7752596 11.579232,9.5594001 7.62759,-7.40083 -8.669108,-11.0087257 z m 20.187073,5.6739697 -7.382526,7.2158 6.187844,8.54179 5.820249,-6.13651996 z m -32.195166,6.32154 -9.5574606,9.49772 13.6622686,7.1849703 7.933918,-7.6783603 z m 23.311629,2.37443004 -7.10683,6.93826996 8.362778,6.9074403 5.360756,-5.6739699 -0.06127,-0.0925 -0.0919,0.12335 -6.463539,-8.20258036 z m -8.730374,8.54178036 -7.505057,7.3391599 10.353916,5.45811 c 1.397496,-1.32103 5.67514,-6.12292 5.850882,-6.32154 z"
         id="path4158-0-8-9"
         inkscape:connector-curvature="0" />
    </clipPath>
    <radialGradient
       inkscape:collect="always"
       xlink:href="#linearGradient3981"
       id="radialGradient4654"
       gradientUnits="userSpaceOnUse"
       gradientTransform="matrix(0.99918692,0.05437177,-0.01746804,0.58382117,0.29443774,4.6622626)"
       cx="31.904716"
       cy="15.370745"
       fx="31.904716"
       fy="15.370745"
       r="9.171628" />
    <radialGradient
       inkscape:collect="always"
       xlink:href="#linearGradient3981"
       id="radialGradient4001"
       gradientUnits="userSpaceOnUse"
       cx="31.904716"
       cy="15.370745"
       fx="31.904716"
       fy="15.370745"
       r="9.171628" />
    <filter
       inkscape:collect="always"
       style="color-interpolation-filters:sRGB"
       id="filter1042"
       x="-0.035999998"
       width="1.072"
       y="-0.035999998"
       height="1.072">
      <feGaussianBlur
         inkscape:collect="always"
         stdDeviation="0.51"
         id="feGaussianBlur1044" />
    </filter>
    <radialGradient
       inkscape:collect="always"
       xlink:href="#linearGradient3832-0-6-1-1"
       id="radialGradient1003"
       cx="32"
       cy="34"
       fx="32"
       fy="34"
       r="17"
       gradientUnits="userSpaceOnUse" />
    <radialGradient
       inkscape:collect="always"
       xlink:href="#linearGradient4681"
       id="radialGradient4683"
       cx="32"
       cy="34"
       fx="32"
       fy="34"
       r="17"
       gradientUnits="userSpaceOnUse" />
    <linearGradient
       inkscape:collect="always"
       id="linearGradient4681">
      <stop
         style="stop-color:#848484;stop-opacity:1"
         offset="0"
         id="stop4677" />
      <stop
         style="stop-color:#545454;stop-opacity:0;"
         offset="1"
         id="stop4679" />
    </linearGradient>
    <radialGradient
       inkscape:collect="always"
       xlink:href="#linearGradient3981"
       id="radialGradient3987"
       cx="31.904716"
       cy="15.370745"
       fx="31.904716"
       fy="15.370745"
       r="9.171628"
       gradientUnits="userSpaceOnUse" />
    <radialGradient
       inkscape:collect="always"
       xlink:href="#linearGradient3832-0-6-1-1"
       id="radialGradient891"
       cx="31.979183"
       cy="33.979183"
       fx="31.979183"
       fy="33.979183"
       r="22.652805"
       gradientUnits="userSpaceOnUse" />
  </defs>
  <sodipodi:namedview
     id="base"
     pagecolor="#ffffff"
     bordercolor="#666666"
     borderopacity="1.0"
     inkscape:pageopacity="0.0"
     inkscape:pageshadow="2"
     inkscape:zoom="4.9840989"
     inkscape:cx="36.689414"
     inkscape:cy="53.622989"
     inkscape:document-units="px"
     inkscape:current-layer="g2780"
     showgrid="false"
     inkscape:showpageshadow="false"
     units="px"
     inkscape:lockguides="true"
     inkscape:window-width="1280"
     inkscape:window-height="977"
     inkscape:window-x="0"
     inkscape:window-y="19"
     inkscape:window-maximized="1"
     inkscape:snap-global="false">
    <sodipodi:guide
       position="0,0"
       orientation="0,96"
       id="guide1621"
       inkscape:locked="true" />
    <sodipodi:guide
       position="96.000002,0"
       orientation="-96,0"
       id="guide1623"
       inkscape:locked="true" />
    <sodipodi:guide
       position="96.000002,96.000002"
       orientation="0,-96"
       id="guide1625"
       inkscape:locked="true" />
    <sodipodi:guide
       position="0,96.000002"
       orientation="96,0"
       id="guide1627"
       inkscape:locked="true" />
  </sodipodi:namedview>
  <metadata
     id="metadata1069">
    <rdf:RDF>
      <cc:Work
         rdf:about="">
        <dc:format>image/svg+xml</dc:format>
        <dc:type
           rdf:resource="http://purl.org/dc/dcmitype/StillImage" />
        <dc:title />
        <dc:date>2017</dc:date>
        <dc:creator>
          <cc:Agent>
            <dc:title>Cristian Pozzessere &quot;ilnanny&quot;</dc:title>
          </cc:Agent>
        </dc:creator>
        <dc:subject>
          <rdf:Bag>
            <rdf:li>Global language</rdf:li>
          </rdf:Bag>
        </dc:subject>
        <dc:description>Playing with Inkscape on Gnu/Linux O. S.</dc:description>
        <dc:contributor>
          <cc:Agent>
            <dc:title>In the night, alone like a dog.</dc:title>
          </cc:Agent>
        </dc:contributor>
        <cc:license
           rdf:resource="http://creativecommons.org/licenses/by-sa/4.0/" />
      </cc:Work>
      <cc:License
         rdf:about="http://creativecommons.org/licenses/by-sa/4.0/">
        <cc:permits
           rdf:resource="http://creativecommons.org/ns#Reproduction" />
        <cc:permits
           rdf:resource="http://creativecommons.org/ns#Distribution" />
        <cc:requires
           rdf:resource="http://creativecommons.org/ns#Notice" />
        <cc:requires
           rdf:resource="http://creativecommons.org/ns#Attribution" />
        <cc:permits
           rdf:resource="http://creativecommons.org/ns#DerivativeWorks" />
        <cc:requires
           rdf:resource="http://creativecommons.org/ns#ShareAlike" />
      </cc:License>
    </rdf:RDF>
  </metadata>
  <g
     inkscape:label="Livello 1"
     inkscape:groupmode="layer"
     id="layer1"
     transform="translate(0,-1026.5197)">
    <g
       transform="translate(-0.14895645,1026.1047)"
       style="display:inline"
       id="g2574">
      <g
         transform="translate(0,-2.6e-5)"
         style="display:inline"
         id="g2780">
        <path
           inkscape:connector-curvature="0"
           id="path3288"
           d="M 89.29181,0.415026 H 7.0060911 c -3.798848,0 -6.8571352,3.058285 -6.8571352,6.8571399 V 89.557884 c 0,3.798857 3.0582872,6.857142 6.8571352,6.857142 H 89.29181 c 3.798857,0 6.857147,-3.058285 6.857147,-6.857142 V 7.2721659 c 0,-3.7988549 -3.05829,-6.8571399 -6.857147,-6.8571399 z"
           style="display:inline;opacity:0.15;fill:#000000;fill-opacity:1;fill-rule:nonzero;stroke:none" />
        <path
           style="display:inline;opacity:0.15;fill:#000000;fill-opacity:1;fill-rule:nonzero;stroke:none"
           d="M 88.648954,1.165026 H 7.6489471 c -3.739492,0 -6.749993,3.010499 -6.749993,6.7499969 V 88.915026 c 0,3.739501 3.010501,6.75 6.749993,6.75 H 88.648954 c 3.739503,0 6.750003,-3.010499 6.750003,-6.75 V 7.9150229 c 0,-3.7394979 -3.0105,-6.7499969 -6.750003,-6.7499969 z"
           id="path4085"
           inkscape:connector-curvature="0" />
        <path
           inkscape:connector-curvature="0"
           id="rect4251-1"
           d="M 88.006093,1.915026 H 8.2918111 c -3.680143,0 -6.6428566,2.962713 -6.6428566,6.6428549 V 88.272171 c 0,3.680142 2.9627136,6.642856 6.6428566,6.642856 H 88.006093 c 3.680143,0 6.642854,-2.962714 6.642854,-6.642856 V 8.5578809 c 0,-3.6801419 -2.962711,-6.6428549 -6.642854,-6.6428549 z"
           style="display:inline;fill:url(#linearGradient4071);fill-opacity:1;fill-rule:nonzero;stroke:none" />
        <path
           sodipodi:nodetypes="sscccsccscccsss"
           inkscape:connector-curvature="0"
           id="path3400-6"
           d="m 11.390247,6.8021682 c -2.8564964,0 -5.1241284,2.2883782 -5.1241284,5.1710028 v 21.42734 7.239403 39.913674 c 1.0972399,1.684484 2.9688485,2.811732 5.1241284,2.811732 h 4.099303 65.588849 4.099302 c 2.155281,0 4.026889,-1.127248 5.124129,-2.811732 V 40.639914 33.400511 11.973171 c 0,-2.8826246 -2.267632,-5.1710028 -5.124129,-5.1710028 z"
           style="display:inline;opacity:0.9;fill:#f2f5f8;fill-opacity:1;fill-rule:nonzero;stroke:none;stroke-width:1.02950251" />
        <path
           style="color:#000000;font-style:normal;font-variant:normal;font-weight:normal;font-stretch:normal;font-size:medium;line-height:normal;font-family:Sans;-inkscape-font-specification:Sans;text-indent:0;text-align:start;text-decoration:none;text-decoration-line:none;letter-spacing:normal;word-spacing:normal;text-transform:none;writing-mode:lr-tb;direction:ltr;baseline-shift:baseline;text-anchor:start;display:inline;overflow:visible;visibility:visible;fill:#1f2224;fill-opacity:0.63265303;stroke:none;stroke-width:2.3755002;marker:none;enable-background:accumulate"
           d="m 9.9740341,5.1444869 c -3.116621,0 -5.667965,2.53951 -5.667965,5.6460041 v 69.277996 c 0,3.106495 2.551344,5.646004 5.667965,5.646004 H 86.765819 c 3.116621,0 5.667968,-2.539509 5.667968,-5.646004 V 10.790491 c 0,-3.1064931 -2.551347,-5.6460041 -5.667968,-5.6460041 z m 0,2.319439 H 86.765819 c 1.888099,0 3.352022,1.480095 3.352022,3.3265651 v 69.277996 c 0,1.846474 -1.463923,3.326564 -3.352022,3.326564 H 9.9740341 c -1.888099,0 -3.352022,-1.48009 -3.352022,-3.326564 V 10.790491 c 0,-1.8464701 1.463923,-3.3265651 3.352022,-3.3265651 z"
           id="path4989"
           inkscape:connector-curvature="0" />
        <path
           id="path4118"
           d="m 1.6489535,82.258776 v 6 c 0,3.680142 2.9761066,6.65625 6.6562496,6.65625 H 87.992703 c 3.680143,0 6.656254,-2.976108 6.656254,-6.65625 v -6 c 0,3.680142 -2.976111,6.65625 -6.656254,6.65625 H 8.3052031 c -3.680143,0 -6.6562496,-2.976108 -6.6562496,-6.65625 z"
           style="display:inline;opacity:0.65818182;fill:url(#linearGradient4129);fill-opacity:1;fill-rule:nonzero;stroke:none"
           inkscape:connector-curvature="0" />
        <rect
           ry="4.25"
           rx="0"
           y="80.665031"
           x="5.5239539"
           height="4.25"
           width="84.250008"
           id="rect4131"
           style="opacity:0.55;fill:url(#radialGradient7462);fill-opacity:1;stroke:none" />
        <rect
           transform="rotate(90)"
           style="opacity:0.669;fill:url(#radialGradient7464);fill-opacity:1;stroke:none"
           id="rect4141"
           width="76.75"
           height="4.25"
           x="5.9750223"
           y="-90.233963"
           rx="0"
           ry="4.25" />
        <g
           style="display:inline"
           transform="matrix(0,1.4552072,-1.4552072,0,97.526641,-1.4129405)"
           id="g4779">
          <circle
             style="opacity:0.98699999;fill:#c4bbb9;fill-opacity:0.98630138;fill-rule:nonzero;stroke:#182024;stroke-width:0.87516153;stroke-linecap:square;stroke-linejoin:round;stroke-miterlimit:4;stroke-dasharray:none;stroke-opacity:0.9794521;paint-order:fill markers stroke"
             id="path901"
             cx="-33.979183"
             cy="32.189526"
             r="24.323601"
             transform="rotate(-90)" />
          <path
             transform="matrix(1.9115166,0,0,1.4174145,-26.986394,-4.7867181)"
             style="color:#000000;display:inline;overflow:visible;visibility:visible;fill:url(#radialGradient4654);fill-opacity:1;fill-rule:nonzero;stroke:none;stroke-width:1;marker:none;enable-background:accumulate"
             d="m 41.076344,15.370745 a 9.171628,4.8504534 0 0 1 -9.171628,4.850453 9.171628,4.8504534 0 0 1 -9.171628,-4.850453 9.171628,4.8504534 0 0 1 9.171628,-4.850454 9.171628,4.8504534 0 0 1 9.171628,4.850454 z"
             id="path3995"
             inkscape:connector-curvature="0" />
          <path
             transform="matrix(0.93022949,0,0,1.4174145,-14.678708,16.213286)"
             style="color:#000000;display:inline;overflow:visible;visibility:visible;fill:url(#radialGradient4001);fill-opacity:1;fill-rule:nonzero;stroke:none;stroke-width:1;marker:none;enable-background:accumulate"
             d="m 38.991321,15.370745 a 7.0866046,9.171628 0 0 1 -7.086605,9.171628 7.0866046,9.171628 0 0 1 -7.086604,-9.171628 7.0866046,9.171628 0 0 1 7.086604,-9.1716283 7.0866046,9.171628 0 0 1 7.086605,9.1716283 z"
             id="path3999"
             inkscape:connector-curvature="0" />
          <path
             id="path4233"
             style="color:#000000;display:inline;overflow:visible;visibility:visible;opacity:0.60310615;fill:#3b3332;fill-opacity:0.89726024;fill-rule:nonzero;stroke:#a3aeb3;stroke-width:0.2;stroke-miterlimit:4;stroke-dasharray:none;stroke-opacity:1;marker:none;enable-background:accumulate"
             d="m 31.979184,16.979184 c -1.399298,0 -2.761487,0.181187 -4.0625,0.5 h 8.125 c -1.301013,-0.318813 -2.663202,-0.5 -4.0625,-0.5 z m -6.9375,1.5 c -0.6536,0.292715 -1.26824,0.630275 -1.875,1 h 17.625 c -0.60676,-0.369725 -1.2214,-0.707285 -1.875,-1 z m -3.375,2 c -0.411135,0.314706 -0.807162,0.649824 -1.1875,1 h 23 c -0.380338,-0.350176 -0.776365,-0.685294 -1.1875,-1 z m -2.1875,2 c -0.29515,0.320573 -0.573662,0.657412 -0.84375,1 h 26.6875 c -0.270088,-0.342588 -0.5486,-0.679427 -0.84375,-1 z m -1.59375,2 c -0.216647,0.32068 -0.398919,0.664249 -0.59375,1 h 29.375 c -0.194831,-0.335751 -0.377103,-0.67932 -0.59375,-1 z m -1.125,2 c -0.165799,0.33583 -0.356181,0.652089 -0.5,1 h 31.4375 c -0.143819,-0.347911 -0.334201,-0.66417 -0.5,-1 z m -0.875,2 c -0.111674,0.327035 -0.189297,0.664329 -0.28125,1 h 32.75 c -0.09195,-0.335671 -0.169576,-0.672965 -0.28125,-1 z m -0.53125,2 c -0.06868,0.328803 -0.106867,0.664521 -0.15625,1 h 33.5625 c -0.04938,-0.335479 -0.08757,-0.671197 -0.15625,-1 z m -0.28125,2 c -0.02855,0.328068 -0.05285,0.66686 -0.0625,1 h 33.9375 c -0.0097,-0.33314 -0.03395,-0.671932 -0.0625,-1 z m -0.0625,2 c 0.0097,0.33314 0.03395,0.671932 0.0625,1 h 33.8125 c 0.02855,-0.328068 0.05285,-0.66686 0.0625,-1 z m 0.1875,2 c 0.04938,0.335479 0.08757,0.671197 0.15625,1 h 33.25 c 0.06868,-0.328803 0.106867,-0.664521 0.15625,-1 z m 0.40625,2 c 0.09195,0.335671 0.169576,0.672965 0.28125,1 h 32.1875 c 0.111674,-0.327035 0.189297,-0.664329 0.28125,-1 z m 0.65625,2 c 0.143819,0.347911 0.334201,0.66417 0.5,1 h 30.4375 c 0.165799,-0.33583 0.356181,-0.652089 0.5,-1 z m 1.03125,2 c 0.194831,0.335751 0.377103,0.67932 0.59375,1 h 28.1875 c 0.216647,-0.32068 0.398919,-0.664249 0.59375,-1 z m 1.34375,2 c 0.270088,0.342588 0.5486,0.679427 0.84375,1 h 25 c 0.29515,-0.320573 0.573662,-0.657412 0.84375,-1 z m 1.84375,2 c 0.380338,0.350176 0.776365,0.685294 1.1875,1 h 20.625 c 0.411135,-0.314706 0.807162,-0.649824 1.1875,-1 z m 2.6875,2 c 0.60676,0.369725 1.2214,0.707285 1.875,1 h 13.875 c 0.6536,-0.292715 1.26824,-0.630275 1.875,-1 z m 4.75,2 c 1.301013,0.318813 2.663202,0.5 4.0625,0.5 1.399298,0 2.761487,-0.181187 4.0625,-0.5 z m 3.5625,-33.46875 c -0.33314,0.0097 -0.671932,0.03395 -1,0.0625 v 33.8125 c 0.328068,0.02855 0.66686,0.05285 1,0.0625 z m 1,0 v 33.9375 c 0.33314,-0.0097 0.671932,-0.03395 1,-0.0625 v -33.8125 c -0.328068,-0.02855 -0.66686,-0.05285 -1,-0.0625 z m -3,0.1875 c -0.335479,0.04938 -0.671197,0.08757 -1,0.15625 v 33.25 c 0.328803,0.06868 0.664521,0.106867 1,0.15625 z m 5,0 v 33.5625 c 0.335479,-0.04938 0.671197,-0.08757 1,-0.15625 v -33.25 c -0.328803,-0.06868 -0.664521,-0.106867 -1,-0.15625 z m -7,0.40625 c -0.335671,0.09195 -0.672965,0.169576 -1,0.28125 v 32.1875 c 0.327035,0.111674 0.664329,0.189297 1,0.28125 z m 9,0 v 32.75 c 0.335671,-0.09195 0.672965,-0.169576 1,-0.28125 v -32.1875 c -0.327035,-0.111674 -0.664329,-0.189297 -1,-0.28125 z m -11,0.65625 c -0.347911,0.143819 -0.66417,0.334201 -1,0.5 v 30.4375 c 0.33583,0.165799 0.652089,0.356181 1,0.5 z m 13,0 v 31.4375 c 0.347911,-0.143819 0.66417,-0.334201 1,-0.5 v -30.4375 c -0.33583,-0.165799 -0.652089,-0.356181 -1,-0.5 z m -15,1.03125 c -0.335751,0.194831 -0.67932,0.377103 -1,0.59375 v 28.1875 c 0.32068,0.216647 0.664249,0.398919 1,0.59375 z m 17,0 v 29.375 c 0.335751,-0.194831 0.67932,-0.377103 1,-0.59375 v -28.1875 c -0.32068,-0.216647 -0.664249,-0.398919 -1,-0.59375 z m -19,1.34375 c -0.342588,0.270088 -0.679427,0.5486 -1,0.84375 v 25 c 0.320573,0.29515 0.657412,0.573662 1,0.84375 z m 21,0 v 26.6875 c 0.342588,-0.270088 0.679427,-0.5486 1,-0.84375 v -25 c -0.320573,-0.29515 -0.657412,-0.573662 -1,-0.84375 z m -23,1.84375 c -0.350176,0.380338 -0.685294,0.776365 -1,1.1875 v 20.625 c 0.314706,0.411135 0.649824,0.807162 1,1.1875 z m 25,0 v 23 c 0.350176,-0.380338 0.685294,-0.776365 1,-1.1875 v -20.625 c -0.314706,-0.411135 -0.649824,-0.807162 -1,-1.1875 z m -27,2.6875 c -0.369725,0.60676 -0.707285,1.2214 -1,1.875 v 13.875 c 0.292715,0.6536 0.630275,1.26824 1,1.875 z m 29,0 v 17.625 c 0.369725,-0.60676 0.707285,-1.2214 1,-1.875 v -13.875 c -0.292715,-0.6536 -0.630275,-1.26824 -1,-1.875 z m -31,4.75 c -0.318813,1.301013 -0.5,2.663202 -0.5,4.0625 0,1.399298 0.181187,2.761487 0.5,4.0625 z m 33,0 v 8.125 c 0.318813,-1.301013 0.5,-2.663202 0.5,-4.0625 0,-1.399298 -0.181187,-2.761487 -0.5,-4.0625 z"
             inkscape:connector-curvature="0" />
          <path
             style="color:#000000;display:inline;overflow:visible;visibility:visible;fill:none;fill-opacity:1;fill-rule:nonzero;stroke:#1d120d;stroke-width:1;stroke-opacity:0.71575341;marker:none;filter:url(#filter1042);enable-background:accumulate"
             d="M 49,34 A 17,17 0 0 1 32,51 17,17 0 0 1 15,34 17,17 0 0 1 32,17 17,17 0 0 1 49,34 Z"
             id="path4248"
             inkscape:connector-curvature="0"
             transform="translate(1.4e-6,2e-6)" />
          <path
             style="color:#000000;display:inline;overflow:visible;visibility:visible;fill:url(#radialGradient1003);fill-opacity:1;fill-rule:nonzero;stroke:none;stroke-width:1;marker:none;enable-background:accumulate"
             d="M 49,34 A 17,17 0 0 1 32,51 17,17 0 0 1 15,34 17,17 0 0 1 32,17 17,17 0 0 1 49,34 Z"
             id="path4159"
             inkscape:connector-curvature="0"
             transform="matrix(0.52941166,0,0,0.52941166,15.058829,16.000006)" />
          <g
             id="g4608"
             transform="matrix(1.2798953,0,0,1.3341694,-9.9711925,-12.330954)"
             style="fill:#f2f3f4;fill-opacity:0.98630138;stroke:#1c2124;stroke-width:0.80367506;stroke-miterlimit:4;stroke-dasharray:none;stroke-opacity:0.9794521">
            <path
               style="color:#000000;display:inline;overflow:visible;visibility:visible;fill:#f2f3f4;fill-opacity:0.98630138;fill-rule:nonzero;stroke:#1c2124;stroke-width:0.80367506;stroke-miterlimit:4;stroke-dasharray:none;stroke-opacity:0.9794521;marker:none;enable-background:accumulate"
               d="M 16.062383,17.031191 A 1.0311916,1.0311916 0 0 1 15.031192,18.062382 1.0311916,1.0311916 0 0 1 14,17.031191 a 1.0311916,1.0311916 0 0 1 1.031192,-1.031192 1.0311916,1.0311916 0 0 1 1.031191,1.031192 z"
               id="path4165"
               inkscape:connector-curvature="0" />
            <path
               transform="rotate(90)"
               style="color:#000000;display:inline;overflow:visible;visibility:visible;fill:#f2f3f4;fill-opacity:0.98630138;fill-rule:nonzero;stroke:#1c2124;stroke-width:0.80367506;stroke-miterlimit:4;stroke-dasharray:none;stroke-opacity:0.9794521;marker:none;enable-background:accumulate"
               d="m 18.062382,-50.091705 a 1.0311916,1.0311916 0 0 1 -1.031191,1.031191 1.0311916,1.0311916 0 0 1 -1.031192,-1.031191 1.0311916,1.0311916 0 0 1 1.031192,-1.031192 1.0311916,1.0311916 0 0 1 1.031191,1.031192 z"
               id="path4163"
               inkscape:connector-curvature="0" />
            <path
               style="color:#000000;display:inline;overflow:visible;visibility:visible;fill:#f2f3f4;fill-opacity:0.98630138;fill-rule:nonzero;stroke:#1c2124;stroke-width:0.80367506;stroke-miterlimit:4;stroke-dasharray:none;stroke-opacity:0.9794521;marker:none;enable-background:accumulate"
               d="m 51.122897,52.091705 a 1.0311916,1.0311916 0 0 1 -1.031192,1.031192 1.0311916,1.0311916 0 0 1 -1.031191,-1.031192 1.0311916,1.0311916 0 0 1 1.031191,-1.031191 1.0311916,1.0311916 0 0 1 1.031192,1.031191 z"
               id="path4167"
               inkscape:connector-curvature="0" />
            <path
               transform="rotate(90)"
               style="color:#000000;display:inline;overflow:visible;visibility:visible;fill:#f2f3f4;fill-opacity:0.98630138;fill-rule:nonzero;stroke:#1c2124;stroke-width:0.80367506;stroke-miterlimit:4;stroke-dasharray:none;stroke-opacity:0.9794521;marker:none;enable-background:accumulate"
               d="M 53.122897,-15.031192 A 1.0311916,1.0311916 0 0 1 52.091705,-14 a 1.0311916,1.0311916 0 0 1 -1.031191,-1.031192 1.0311916,1.0311916 0 0 1 1.031191,-1.031191 1.0311916,1.0311916 0 0 1 1.031192,1.031191 z"
               id="path3377"
               inkscape:connector-curvature="0" />
          </g>
          <path
             style="color:#000000;display:inline;overflow:visible;visibility:visible;fill:url(#radialGradient4683);fill-opacity:1;fill-rule:nonzero;stroke:none;stroke-width:1;marker:none;enable-background:accumulate"
             d="M 49,34 A 17,17 0 0 1 32,51 17,17 0 0 1 15,34 17,17 0 0 1 32,17 17,17 0 0 1 49,34 Z"
             id="path5840"
             inkscape:connector-curvature="0"
             transform="matrix(0.41176458,0,0,0.41176458,18.823535,20.000007)" />
          <path
             transform="matrix(0,0.2180638,-0.9138523,0,46.046592,44.023692)"
             style="color:#000000;display:inline;overflow:visible;visibility:visible;fill:url(#radialGradient3987);fill-opacity:1;fill-rule:nonzero;stroke:none;stroke-width:1;marker:none;enable-background:accumulate"
             d="m 41.076344,15.370745 a 9.171628,9.171628 0 0 1 -9.171628,9.171628 9.171628,9.171628 0 0 1 -9.171628,-9.171628 9.171628,9.171628 0 0 1 9.171628,-9.1716283 9.171628,9.171628 0 0 1 9.171628,9.1716283 z"
             id="path3979"
             inkscape:connector-curvature="0" />
          <path
             inkscape:connector-curvature="0"
             id="circle4685"
             d="M 31.980161,11.601255 A 22.378101,22.378101 0 0 0 9.6012546,33.980161 22.378101,22.378101 0 0 0 31.980161,56.357114 22.378101,22.378101 0 0 0 54.357114,33.980161 22.378101,22.378101 0 0 0 31.980161,11.601255 Z m -0.05078,5.001953 A 17.427147,17.427147 0 0 1 49.355161,34.030942 17.427147,17.427147 0 0 1 31.929379,51.456724 17.427147,17.427147 0 0 1 14.501645,34.030942 17.427147,17.427147 0 0 1 31.929379,16.603208 Z"
             style="color:#000000;display:inline;overflow:visible;visibility:visible;opacity:0.94899998;fill:url(#radialGradient891);fill-opacity:1;fill-rule:nonzero;stroke:#2e120e;stroke-width:0.54974991;stroke-miterlimit:4;stroke-dasharray:none;stroke-opacity:0.9794521;marker:none;enable-background:accumulate" />
        </g>
        <rect
           clip-path="url(#clipPath4156-4-1-0)"
           ry="3.9569881"
           rx="3.9569874"
           y="-30"
           x="2"
           height="69.024437"
           width="75.965775"
           id="rect4146"
           style="opacity:0.65;fill:url(#linearGradient4767);fill-opacity:1;stroke:none"
           transform="matrix(1.0692451,0,0,1.0476829,4.4441802,38.894013)" />
      </g>
    </g>
  </g>
</svg>
