<?xml version="1.0" encoding="UTF-8" standalone="no"?>
<!-- Created with Inkscape (http://www.inkscape.org/) -->

<svg
   xmlns:dc="http://purl.org/dc/elements/1.1/"
   xmlns:cc="http://creativecommons.org/ns#"
   xmlns:rdf="http://www.w3.org/1999/02/22-rdf-syntax-ns#"
   xmlns:svg="http://www.w3.org/2000/svg"
   xmlns="http://www.w3.org/2000/svg"
   xmlns:xlink="http://www.w3.org/1999/xlink"
   xmlns:sodipodi="http://sodipodi.sourceforge.net/DTD/sodipodi-0.dtd"
   xmlns:inkscape="http://www.inkscape.org/namespaces/inkscape"
   width="96"
   height="96"
   id="svg5023"
   version="1.1"
   inkscape:version="0.92.2 2405546, 2018-03-11"
   sodipodi:docname="computer-fail.svg">
  <defs
     id="defs5025">
    <linearGradient
       id="linearGradient5700">
      <stop
         id="stop5702"
         offset="0"
         style="stop-color:#ffffff;stop-opacity:0;" />
      <stop
         style="stop-color:#ffffff;stop-opacity:0.85135138;"
         offset="0.03681535"
         id="stop5704" />
      <stop
         id="stop5706"
         offset="0.06506088"
         style="stop-color:#ffffff;stop-opacity:0;" />
      <stop
         style="stop-color:#ffffff;stop-opacity:0;"
         offset="0.94493848"
         id="stop5712" />
      <stop
         style="stop-color:#ffffff;stop-opacity:0.85135138;"
         offset="0.96582276"
         id="stop5710" />
      <stop
         id="stop5708"
         offset="1"
         style="stop-color:#ffffff;stop-opacity:0;" />
    </linearGradient>
    <linearGradient
       inkscape:collect="always"
       xlink:href="#linearGradient3888-8-4-8-4-6-9-0-8-7-9"
       id="linearGradient4987"
       gradientUnits="userSpaceOnUse"
       gradientTransform="matrix(1.1832157,0,0,1.0774396,-42.201035,-45.836935)"
       x1="62"
       y1="8"
       x2="62"
       y2="68" />
    <linearGradient
       inkscape:collect="always"
       id="linearGradient3888-8-4-8-4-6-9-0-8-7-9">
      <stop
         style="stop-color:#ffffff;stop-opacity:1;"
         offset="0"
         id="stop3890-4-7-9-5-7-0-8-8-8-6" />
      <stop
         style="stop-color:#ffffff;stop-opacity:0;"
         offset="1"
         id="stop3892-5-8-2-8-3-3-3-06-4-4" />
    </linearGradient>
    <radialGradient
       inkscape:collect="always"
       xlink:href="#linearGradient3921"
       id="radialGradient4985"
       gradientUnits="userSpaceOnUse"
       gradientTransform="matrix(1.1832157,0,0,0.9923785,-42.201035,-42.179311)"
       cx="48"
       cy="43"
       fx="48"
       fy="43"
       r="38" />
    <linearGradient
       id="linearGradient3921">
      <stop
         style="stop-color:#a2aaac;stop-opacity:1"
         offset="0"
         id="stop3923" />
      <stop
         style="stop-color:#3e494e;stop-opacity:1"
         offset="1"
         id="stop3925" />
    </linearGradient>
    <radialGradient
       inkscape:collect="always"
       xlink:href="#linearGradient4948"
       id="radialGradient4954"
       cx="48.943821"
       cy="88.44944"
       fx="48.943821"
       fy="88.44944"
       r="42.471912"
       gradientTransform="matrix(1.0666666,0,0,0.03809524,-36.704294,40.651629)"
       gradientUnits="userSpaceOnUse" />
    <linearGradient
       inkscape:collect="always"
       id="linearGradient4948">
      <stop
         style="stop-color:#ffffff;stop-opacity:1;"
         offset="0"
         id="stop4950" />
      <stop
         style="stop-color:#ffffff;stop-opacity:0;"
         offset="1"
         id="stop4952" />
    </linearGradient>
    <radialGradient
       inkscape:collect="always"
       xlink:href="#linearGradient3888-8-4-8-6"
       id="radialGradient3114"
       gradientUnits="userSpaceOnUse"
       gradientTransform="matrix(0,1.6209438,-2.0382846,0,160.66427,-243.03657)"
       cx="158"
       cy="6.2131939"
       fx="158"
       fy="6.2131939"
       r="41" />
    <linearGradient
       inkscape:collect="always"
       id="linearGradient3888-8-4-8-6">
      <stop
         style="stop-color:#ffffff;stop-opacity:1;"
         offset="0"
         id="stop3890-4-7-9-7" />
      <stop
         style="stop-color:#ffffff;stop-opacity:0;"
         offset="1"
         id="stop3892-5-8-2-7" />
    </linearGradient>
    <radialGradient
       inkscape:collect="always"
       xlink:href="#linearGradient4091-0-3-0-7"
       id="radialGradient3118"
       gradientUnits="userSpaceOnUse"
       gradientTransform="matrix(-1.0721726,0,0,-0.87502024,199.46429,-19.125546)"
       cx="48"
       cy="-27"
       fx="48"
       fy="-27"
       r="42" />
    <linearGradient
       id="linearGradient4091-0-3-0-7">
      <stop
         style="stop-color:#ffffff;stop-opacity:1;"
         offset="0"
         id="stop4093-3-6-4-2" />
      <stop
         id="stop4099-6-1-8-3"
         offset="0.80000001"
         style="stop-color:#ffffff;stop-opacity:1;" />
      <stop
         style="stop-color:#ffffff;stop-opacity:0;"
         offset="1"
         id="stop4095-1-0-7-9" />
    </linearGradient>
    <linearGradient
       inkscape:collect="always"
       xlink:href="#linearGradient3832-0-6-1-1"
       id="linearGradient3120"
       gradientUnits="userSpaceOnUse"
       gradientTransform="matrix(1,0,0,0.88905855,200,8.9431737)"
       x1="-94"
       y1="82.984398"
       x2="-10.187523"
       y2="82.984398" />
    <linearGradient
       id="linearGradient3832-0-6-1-1">
      <stop
         style="stop-color:#000000;stop-opacity:1;"
         offset="0"
         id="stop3834-6-3-7-1" />
      <stop
         id="stop3872-2-4"
         offset="0.1"
         style="stop-color:#000000;stop-opacity:0.58823532;" />
      <stop
         style="stop-color:#000000;stop-opacity:0.58823532;"
         offset="0.89999998"
         id="stop3844-6-2-7-6" />
      <stop
         style="stop-color:#000000;stop-opacity:1;"
         offset="1"
         id="stop3836-5-0-2-9" />
    </linearGradient>
    <linearGradient
       inkscape:collect="always"
       xlink:href="#linearGradient6139-0"
       id="linearGradient3923"
       x1="6"
       y1="47.000011"
       x2="90"
       y2="47.000011"
       gradientUnits="userSpaceOnUse" />
    <linearGradient
       id="linearGradient6139-0">
      <stop
         id="stop6141-2"
         offset="0"
         style="stop-color:#b7b7b7;stop-opacity:1;" />
      <stop
         style="stop-color:#ffffff;stop-opacity:1;"
         offset="0.25"
         id="stop6151-0" />
      <stop
         style="stop-color:#9d9d9d;stop-opacity:1;"
         offset="0.5"
         id="stop6147-1" />
      <stop
         id="stop6149-4"
         offset="0.75"
         style="stop-color:#fafafa;stop-opacity:1;" />
      <stop
         id="stop6143-4"
         offset="1"
         style="stop-color:#b7b7b7;stop-opacity:1;" />
    </linearGradient>
    <linearGradient
       gradientTransform="matrix(1.1330025,0,0,1.1312942,-40.022888,-46.576777)"
       y2="47.000011"
       x2="90"
       y1="47.000011"
       x1="6"
       gradientUnits="userSpaceOnUse"
       id="linearGradient5021"
       xlink:href="#linearGradient6139-0"
       inkscape:collect="always" />
    <linearGradient
       inkscape:collect="always"
       xlink:href="#linearGradient5700"
       id="linearGradient5698"
       gradientUnits="userSpaceOnUse"
       gradientTransform="matrix(1.1330025,0,0,1.1312942,-40.022883,-46.576774)"
       x1="6"
       y1="47.000011"
       x2="90"
       y2="47.000011" />
    <radialGradient
       inkscape:collect="always"
       xlink:href="#linearGradient6139-0"
       id="radialGradient3828"
       cx="46.786518"
       cy="85.213486"
       fx="46.786518"
       fy="85.213486"
       r="6.5870786"
       gradientTransform="matrix(4.7896743,-0.09300881,0.0414706,2.1291779,-180.83952,-91.869626)"
       gradientUnits="userSpaceOnUse" />
    <radialGradient
       inkscape:collect="always"
       xlink:href="#linearGradient3832-0-6-1-1"
       id="radialGradient3836"
       cx="70.373131"
       cy="79.208954"
       fx="70.373131"
       fy="79.208954"
       r="2.7910447"
       gradientUnits="userSpaceOnUse" />
    <radialGradient
       inkscape:collect="always"
       xlink:href="#linearGradient3832-0-6-1-1"
       id="radialGradient3844"
       cx="70.373131"
       cy="79.208954"
       fx="70.373131"
       fy="79.208954"
       r="2.7910447"
       gradientUnits="userSpaceOnUse" />
  </defs>
  <sodipodi:namedview
     id="base"
     pagecolor="#ffffff"
     bordercolor="#666666"
     borderopacity="1.0"
     inkscape:pageopacity="0.0"
     inkscape:pageshadow="2"
     inkscape:zoom="3.9240541"
     inkscape:cx="-33.785556"
     inkscape:cy="44.039604"
     inkscape:current-layer="g897"
     showgrid="true"
     inkscape:grid-bbox="true"
     inkscape:document-units="px"
     inkscape:window-width="1920"
     inkscape:window-height="1026"
     inkscape:window-x="0"
     inkscape:window-y="28"
     inkscape:window-maximized="1" />
  <metadata
     id="metadata5028">
    <rdf:RDF>
      <cc:Work
         rdf:about="">
        <dc:format>image/svg+xml</dc:format>
        <dc:type
           rdf:resource="http://purl.org/dc/dcmitype/StillImage" />
        <dc:title></dc:title>
      </cc:Work>
    </rdf:RDF>
  </metadata>
  <g
     id="layer1"
     inkscape:label="Layer 1"
     inkscape:groupmode="layer"
     transform="translate(0,80)">
    <g
       id="g5148"
       transform="matrix(1.0034441,0,0,1.0049592,33.489303,-38.526762)">
      <g
         id="g897"
         transform="translate(0.09965924,-0.09950679)">
        <path
           style="display:inline;fill:url(#linearGradient5021);fill-opacity:1;fill-rule:nonzero;stroke:none;stroke-width:0.9979102"
           d="m 55.149324,-40.920306 h -81.57618 c -3.766102,0 -6.798016,3.027344 -6.798016,6.787765 v 81.453205 c 0,3.760421 3.031914,6.787764 6.798016,6.787764 h 81.57618 c 3.766102,0 6.798016,-3.027343 6.798016,-6.787764 v -81.453205 c 0,-3.760421 -3.031914,-6.787765 -6.798016,-6.787765 z"
           id="rect4251-1"
           inkscape:connector-curvature="0" />
        <g
           id="g3272"
           transform="matrix(1.1330025,0,0,1.1312942,-153.32314,-46.011129)">
          <path
             sodipodi:nodetypes="sscccsccscccsss"
             inkscape:connector-curvature="0"
             id="path3400-6"
             d="m 112,5.5 c -2.7873,0 -5,2.2127028 -5,5 v 20.71875 7 38.59375 c 1.07066,1.628779 2.89693,2.71875 5,2.71875 h 4 64 4 c 2.10307,0 3.92934,-1.089971 5,-2.71875 v -38.59375 -7 V 10.5 c 0,-2.7872972 -2.2127,-5 -5,-5 z"
             style="display:inline;opacity:0.2;fill:url(#radialGradient3114);fill-opacity:1;fill-rule:nonzero;stroke:none" />
          <path
             inkscape:connector-curvature="0"
             id="path4236-5"
             d="m 112,4.5 c -3.324,0 -6,2.6759996 -6,6 v 15 h 1 v -15 c 0,-2.7872972 2.2127,-5 5,-5 h 72 c 2.7873,0 5,2.2127028 5,5 v 15 h 1 v -15 c 0,-3.3240004 -2.676,-6 -6,-6 z"
             style="display:inline;opacity:0.45;fill:url(#radialGradient3118);fill-opacity:1;fill-rule:nonzero;stroke:none" />
          <path
             style="opacity:0.46964859;fill:url(#linearGradient3120);fill-opacity:1;fill-rule:nonzero;stroke:none"
             d="m 106,76.942239 v 0.889058 0.889059 0.889059 1.778117 1.778117 c 0,2.95523 2.676,5.334351 6,5.334351 h 72 c 3.324,0 6,-2.379121 6,-5.334351 v -1.778117 -1.778117 -0.889059 -0.889059 -0.889058 c 0,2.95523 -2.676,5.334351 -6,5.334351 h -72 c -3.324,0 -6,-2.379121 -6,-5.334351 z"
             id="path4242-5"
             inkscape:connector-curvature="0" />
        </g>
        <g
           transform="matrix(0.98415401,0,0,1.0481667,-36.444465,-38.368422)"
           id="g4021">
          <circle
             r="2.7910447"
             cy="79.208954"
             cx="70.373131"
             style="opacity:0.71000001;fill:#1c1c1c;fill-opacity:1;fill-rule:nonzero;stroke:none"
             id="path4002"
             transform="matrix(1.2467442,0,0,1.0633819,-54.589655,-6.556752)" />
          <circle
             r="2.7910447"
             cy="79.208954"
             cx="70.373131"
             transform="matrix(1.0373872,0,0,0.91041754,-39.856546,5.3629056)"
             id="path3854"
             style="fill:#ffffff;fill-opacity:1;fill-rule:nonzero;stroke:none" />
          <circle
             r="2.7910447"
             cy="79.208954"
             cx="70.373131"
             style="fill:url(#radialGradient3844);fill-opacity:1;fill-rule:nonzero;stroke:none"
             id="path3856"
             transform="matrix(0.70316741,0,0,0.61710417,-16.33646,28.595951)" />
          <circle
             r="2.7910447"
             cy="79.208954"
             cx="70.373131"
             transform="matrix(1.2467442,0,0,1.0633819,-20.11442,-6.556752)"
             id="path4170"
             style="opacity:0.71000001;fill:#1c1c1c;fill-opacity:1;fill-rule:nonzero;stroke:none" />
          <circle
             r="2.7910447"
             cy="79.208954"
             cx="70.373131"
             style="fill:#ffffff;fill-opacity:1;fill-rule:nonzero;stroke:none"
             id="path4172"
             transform="matrix(1.0373872,0,0,0.91041754,-5.3813104,5.3629056)" />
          <circle
             r="2.7910447"
             cy="79.208954"
             cx="70.373131"
             transform="matrix(0.70316741,0,0,0.61710417,18.138777,28.595951)"
             id="path4174"
             style="fill:url(#radialGradient3836);fill-opacity:1;fill-rule:nonzero;stroke:none" />
          <rect
             style="opacity:0.96219931;fill:url(#radialGradient3828);fill-opacity:1;stroke:#000000;stroke-width:0.5;stroke-miterlimit:4;stroke-dasharray:none;stroke-opacity:1"
             id="rect4176"
             width="12.674157"
             height="3.235955"
             x="40.44944"
             y="83.595505"
             transform="matrix(1.0139776,0,0,0.95205283,3.1886202,-2.9106418)"
             rx="1.1481457"
             ry="1.1481457" />
        </g>
        <path
           style="color:#000000;font-style:normal;font-variant:normal;font-weight:normal;font-stretch:normal;font-size:medium;line-height:normal;font-family:Sans;-inkscape-font-specification:Sans;text-indent:0;text-align:start;text-decoration:none;text-decoration-line:none;letter-spacing:normal;word-spacing:normal;text-transform:none;writing-mode:lr-tb;direction:ltr;baseline-shift:baseline;text-anchor:start;display:inline;overflow:visible;visibility:visible;opacity:0.02000002;fill:#000000;fill-opacity:1;fill-rule:nonzero;stroke:none;stroke-width:5.98746061;marker:none;enable-background:accumulate"
           d="m -25.636017,16.654556 c -1.874708,0 -3.629351,0.91171 -4.732862,2.255891 V 33.89359 c 0,2.387606 2.110857,4.309758 4.732862,4.309758 h 80.458664 c 2.622008,0 4.732863,-1.922152 4.732863,-4.309758 V 18.910447 c -1.103509,-1.344181 -2.858152,-2.255891 -4.732863,-2.255891 z m 0,3.23232 h 80.458664 c 1.351933,0 2.366433,0.923807 2.366433,2.154879 V 33.89359 c 0,1.231073 -1.0145,2.154879 -2.366433,2.154879 h -80.458664 c -1.35193,0 -2.36643,-0.923806 -2.36643,-2.154879 V 22.041755 c 0,-1.231072 1.0145,-2.154879 2.36643,-2.154879 z"
           id="path4972"
           inkscape:connector-curvature="0" />
        <path
           style="color:#000000;display:inline;overflow:visible;visibility:visible;opacity:0.45;fill:url(#linearGradient4987);fill-opacity:1;fill-rule:nonzero;stroke:none;stroke-width:1.9958204;marker:none;enable-background:accumulate"
           d="M 2.7611594,-37.217419 C 11.044662,-11.217042 19.652284,14.17085 28.385174,38.203348 h 26.437473 c 2.622008,0 4.732863,-1.922152 4.732863,-4.309758 v -66.801249 c 0,-2.387608 -2.110855,-4.30976 -4.732863,-4.30976 z"
           id="path4974"
           inkscape:connector-curvature="0" />
        <path
           sodipodi:nodetypes="sssssssss"
           inkscape:connector-curvature="0"
           style="color:#000000;display:inline;overflow:visible;visibility:visible;fill:url(#radialGradient4985);fill-opacity:1;fill-rule:nonzero;stroke:none;stroke-width:1.9958204;marker:none;enable-background:accumulate"
           d="m -25.636017,-37.217418 h 80.458664 c 2.622008,0 4.732863,1.922151 4.732863,4.309759 V 33.89359 c 0,2.387606 -2.110855,4.309758 -4.732863,4.309758 h -80.458664 c -2.622005,0 -4.732862,-1.922152 -4.732862,-4.309758 v -66.801249 c 0,-2.387608 2.110857,-4.309759 4.732862,-4.309759 z"
           id="path4970" />
        <path
           id="path912"
           style="fill:#f9c849;stroke:#000000;stroke-width:1.19199419px;stroke-linecap:butt;stroke-linejoin:miter;stroke-opacity:1;fill-opacity:0.7811321"
           d="M 57.954926,-22.418573 53.440827,-26.067332 18.83274,9.3471066 31.30026,-30.145376 l -58.468339,58.380185 4.299142,3.863398 v 0 m 0,0 L 19.047698,-9.7552385 6.5801898,29.737245 57.954926,-22.418573 v 0"
           inkscape:connector-curvature="0" />
        <path
           sodipodi:nodetypes="cssscc"
           inkscape:connector-curvature="0"
           style="color:#000000;display:inline;overflow:visible;visibility:visible;fill:#ffffff;fill-opacity:0.14693879;stroke:none;stroke-width:2.27601719;marker:none;enable-background:accumulate"
           d="M -2.8881072,-36.521322 H 52.458451 c 2.560808,0 4.622398,1.877977 4.622398,4.21071 v 65.266006 c 0,2.332735 -2.06159,4.210712 -4.622398,4.210712 -55.1411732,-73.692313 -0.583698,-0.302645 -55.3465582,-73.687428 z"
           id="path3816" />
        <path
           id="path4989"
           d="m -24.697066,-36.42184 h 78.580765 c 2.560808,0 4.622397,1.877978 4.622397,4.210711 v 65.266006 c 0,2.332735 -2.061589,4.210711 -4.622397,4.210711 h -78.580765 c -2.560808,0 -4.622397,-1.877976 -4.622397,-4.210711 v -65.266006 c 0,-2.332733 2.061589,-4.210711 4.622397,-4.210711 z"
           style="color:#000000;display:inline;overflow:visible;visibility:visible;fill:none;stroke:#000000;stroke-width:2.27601719;stroke-opacity:0.7758007;marker:none;enable-background:accumulate"
           inkscape:connector-curvature="0"
           sodipodi:nodetypes="sssssssss" />
        <path
           inkscape:connector-curvature="0"
           id="path5696"
           d="m 55.149325,-40.920303 h -81.57618 c -3.766104,0 -6.798014,3.027344 -6.798014,6.787765 v 81.453209 c 0,3.760414 3.03191,6.787754 6.798014,6.787754 h 81.57618 c 3.766102,0 6.798016,-3.02734 6.798016,-6.787754 v -81.453209 c 0,-3.760421 -3.031914,-6.787765 -6.798016,-6.787765 z"
           style="display:inline;opacity:0.76288656;fill:url(#linearGradient5698);fill-opacity:1;fill-rule:nonzero;stroke:none;stroke-width:0.9979102" />
      </g>
    </g>
  </g>
</svg>
