<?xml version="1.0" encoding="UTF-8" standalone="no"?>
<!-- Created with Inkscape (http://www.inkscape.org/) -->

<svg
   xmlns:dc="http://purl.org/dc/elements/1.1/"
   xmlns:cc="http://creativecommons.org/ns#"
   xmlns:rdf="http://www.w3.org/1999/02/22-rdf-syntax-ns#"
   xmlns:svg="http://www.w3.org/2000/svg"
   xmlns="http://www.w3.org/2000/svg"
   xmlns:xlink="http://www.w3.org/1999/xlink"
   xmlns:sodipodi="http://sodipodi.sourceforge.net/DTD/sodipodi-0.dtd"
   xmlns:inkscape="http://www.inkscape.org/namespaces/inkscape"
   width="96"
   height="96"
   viewBox="0 0 96.000001 96.000004"
   version="1.1"
   id="svg1072"
   inkscape:version="0.92.2 2405546, 2018-03-11"
   sodipodi:docname="ebook-reader.svg">
  <defs
     id="defs1066">
    <linearGradient
       inkscape:collect="always"
       id="linearGradient4738">
      <stop
         style="stop-color:#172640;stop-opacity:1;"
         offset="0"
         id="stop4734" />
      <stop
         id="stop4746"
         offset="0.0923312"
         style="stop-color:#010101;stop-opacity:0.99215686" />
      <stop
         id="stop4742"
         offset="0.28218448"
         style="stop-color:#596097;stop-opacity:0.99215686" />
      <stop
         style="stop-color:#172640;stop-opacity:1"
         offset="0.73932117"
         id="stop4744" />
      <stop
         style="stop-color:#172640;stop-opacity:1"
         offset="1"
         id="stop4736" />
    </linearGradient>
    <linearGradient
       id="linearGradient6139-0">
      <stop
         id="stop6141-2"
         offset="0"
         style="stop-color:#b7b7b7;stop-opacity:1;" />
      <stop
         style="stop-color:#ffffff;stop-opacity:1;"
         offset="0.25"
         id="stop6151-0" />
      <stop
         style="stop-color:#9d9d9d;stop-opacity:1;"
         offset="0.5"
         id="stop6147-1" />
      <stop
         id="stop6149-4"
         offset="0.75"
         style="stop-color:#fafafa;stop-opacity:1;" />
      <stop
         id="stop6143-4"
         offset="1"
         style="stop-color:#b7b7b7;stop-opacity:1;" />
    </linearGradient>
    <linearGradient
       id="linearGradient4091-0-3-0-7">
      <stop
         style="stop-color:#ffffff;stop-opacity:1;"
         offset="0"
         id="stop4093-3-6-4-2" />
      <stop
         id="stop4099-6-1-8-3"
         offset="0.80000001"
         style="stop-color:#ffffff;stop-opacity:1;" />
      <stop
         style="stop-color:#ffffff;stop-opacity:0;"
         offset="1"
         id="stop4095-1-0-7-9" />
    </linearGradient>
    <linearGradient
       inkscape:collect="always"
       xlink:href="#linearGradient3832-0-6-1-1"
       id="linearGradient3120"
       gradientUnits="userSpaceOnUse"
       gradientTransform="matrix(1.1330025,0,0,1.0057863,73.277373,-35.893662)"
       x1="-94"
       y1="82.984398"
       x2="-10.187523"
       y2="82.984398" />
    <linearGradient
       id="linearGradient3832-0-6-1-1">
      <stop
         style="stop-color:#000000;stop-opacity:1;"
         offset="0"
         id="stop3834-6-3-7-1" />
      <stop
         id="stop3872-2-4"
         offset="0.1"
         style="stop-color:#000000;stop-opacity:0.58823532;" />
      <stop
         style="stop-color:#000000;stop-opacity:0.58823532;"
         offset="0.89999998"
         id="stop3844-6-2-7-6" />
      <stop
         style="stop-color:#000000;stop-opacity:1;"
         offset="1"
         id="stop3836-5-0-2-9" />
    </linearGradient>
    <linearGradient
       id="linearGradient5700">
      <stop
         id="stop5702"
         offset="0"
         style="stop-color:#ffffff;stop-opacity:0.40969163" />
      <stop
         style="stop-color:#ffffff;stop-opacity:0.85135138;"
         offset="0.03681535"
         id="stop5704" />
      <stop
         id="stop5706"
         offset="0.06506088"
         style="stop-color:#ffffff;stop-opacity:0;" />
      <stop
         style="stop-color:#ffffff;stop-opacity:0;"
         offset="0.94493848"
         id="stop5712" />
      <stop
         style="stop-color:#ffffff;stop-opacity:0.85135138;"
         offset="0.96582276"
         id="stop5710" />
      <stop
         id="stop5708"
         offset="1"
         style="stop-color:#ffffff;stop-opacity:0.56387663" />
    </linearGradient>
    <linearGradient
       id="linearGradient1218">
      <stop
         id="stop1212"
         offset="0"
         style="stop-color:#ffffff;stop-opacity:0.01677852" />
      <stop
         style="stop-color:#ffffff;stop-opacity:1;"
         offset="0.17869484"
         id="stop1220" />
      <stop
         style="stop-color:#ffffff;stop-opacity:1;"
         offset="0.80000001"
         id="stop1214" />
      <stop
         id="stop1216"
         offset="1"
         style="stop-color:#ffffff;stop-opacity:0.02348993" />
    </linearGradient>
    <linearGradient
       id="linearGradient6139-0-75">
      <stop
         id="stop6141-2-3"
         offset="0"
         style="stop-color:#bdb1b1;stop-opacity:1" />
      <stop
         style="stop-color:#ffffff;stop-opacity:1;"
         offset="0.25"
         id="stop6151-0-5" />
      <stop
         style="stop-color:#a49696;stop-opacity:1"
         offset="0.5"
         id="stop6147-1-6" />
      <stop
         id="stop6149-4-2"
         offset="0.75"
         style="stop-color:#fbf9f9;stop-opacity:1;" />
      <stop
         id="stop6143-4-9"
         offset="1"
         style="stop-color:#bdb1b1;stop-opacity:1" />
    </linearGradient>
    <clipPath
       id="clipPath4156-4-1"
       clipPathUnits="userSpaceOnUse">
      <path
         inkscape:connector-curvature="0"
         id="path4158-0-8"
         d="m 27.046336,-55.695463 -14.21366,13.321486 h 0.06127 l 15.653407,21.770763 10.231384,-10.546177 C 38.561832,-32.30156 27.468089,-54.819245 27.046336,-55.695463 Z M 9.6468554,-39.382809 -5.2407289,-25.32124 15.987863,-7.8059573 26.372412,-18.382966 Z m 31.4906096,12.951445 -9.741259,9.713584 8.944804,12.4580526 7.780753,-7.5550056 z m -49.8397109,4.378822 -13.7541661,12.9822847 26.2830181,13.84571 0.06127,-0.0617 -0.122531,-0.0617 L 13.598503,-5.4007374 -8.7022409,-22.052595 Z m 38.0154159,7.400825 -9.802525,9.7752596 11.579232,9.5594001 7.62759,-7.40083 -8.669108,-11.0087257 z m 20.187073,5.6739697 -7.382526,7.2158 6.187844,8.54179 5.820249,-6.13651996 z m -32.195166,6.32154 -9.5574606,9.49772 13.6622686,7.1849703 7.933918,-7.6783603 z m 23.311629,2.37443004 -7.10683,6.93826996 8.362778,6.9074403 5.360756,-5.6739699 -0.06127,-0.0925 -0.0919,0.12335 -6.463539,-8.20258036 z m -8.730374,8.54178036 -7.505057,7.3391599 10.353916,5.45811 c 1.397496,-1.32103 5.67514,-6.12292 5.850882,-6.32154 z"
         style="opacity:0.6;fill:#ffffff;fill-opacity:1;stroke:none" />
    </clipPath>
    <linearGradient
       gradientTransform="matrix(-1.3783144,1.2009005,-1.2251361,-1.3503034,1354.9038,-244.77384)"
       gradientUnits="userSpaceOnUse"
       xlink:href="#linearGradient3832-0-6-1-1"
       id="linearGradient3811"
       y2="357.89178"
       x2="639.46515"
       y1="349.10172"
       x1="647.27832" />
    <linearGradient
       id="linearGradient3183-0">
      <stop
         offset="0"
         style="stop-color:#c80000;stop-opacity:1"
         id="stop3185-9" />
      <stop
         offset="1"
         style="stop-color:#f3604d;stop-opacity:1"
         id="stop3187-6" />
    </linearGradient>
    <clipPath
       clipPathUnits="userSpaceOnUse"
       id="clipPath4156-4-1-0">
      <path
         style="opacity:0.6;fill:#ffffff;fill-opacity:1;stroke:none"
         d="m 27.046336,-55.695463 -14.21366,13.321486 h 0.06127 l 15.653407,21.770763 10.231384,-10.546177 C 38.561832,-32.30156 27.468089,-54.819245 27.046336,-55.695463 Z M 9.6468554,-39.382809 -5.2407289,-25.32124 15.987863,-7.8059573 26.372412,-18.382966 Z m 31.4906096,12.951445 -9.741259,9.713584 8.944804,12.4580526 7.780753,-7.5550056 z m -49.8397109,4.378822 -13.7541661,12.9822847 26.2830181,13.84571 0.06127,-0.0617 -0.122531,-0.0617 L 13.598503,-5.4007374 -8.7022409,-22.052595 Z m 38.0154159,7.400825 -9.802525,9.7752596 11.579232,9.5594001 7.62759,-7.40083 -8.669108,-11.0087257 z m 20.187073,5.6739697 -7.382526,7.2158 6.187844,8.54179 5.820249,-6.13651996 z m -32.195166,6.32154 -9.5574606,9.49772 13.6622686,7.1849703 7.933918,-7.6783603 z m 23.311629,2.37443004 -7.10683,6.93826996 8.362778,6.9074403 5.360756,-5.6739699 -0.06127,-0.0925 -0.0919,0.12335 -6.463539,-8.20258036 z m -8.730374,8.54178036 -7.505057,7.3391599 10.353916,5.45811 c 1.397496,-1.32103 5.67514,-6.12292 5.850882,-6.32154 z"
         id="path4158-0-8-9"
         inkscape:connector-curvature="0" />
    </clipPath>
    <clipPath
       id="clipPath4156-4-1-06"
       clipPathUnits="userSpaceOnUse">
      <path
         inkscape:connector-curvature="0"
         id="path4158-0-8-2"
         d="m 27.046336,-55.695463 -14.21366,13.321486 h 0.06127 l 15.653407,21.770763 10.231384,-10.546177 C 38.561832,-32.30156 27.468089,-54.819245 27.046336,-55.695463 Z M 9.6468554,-39.382809 -5.2407289,-25.32124 15.987863,-7.8059573 26.372412,-18.382966 Z m 31.4906096,12.951445 -9.741259,9.713584 8.944804,12.4580526 7.780753,-7.5550056 z m -49.8397109,4.378822 -13.7541661,12.9822847 26.2830181,13.84571 0.06127,-0.0617 -0.122531,-0.0617 L 13.598503,-5.4007374 -8.7022409,-22.052595 Z m 38.0154159,7.400825 -9.802525,9.7752596 11.579232,9.5594001 7.62759,-7.40083 -8.669108,-11.0087257 z m 20.187073,5.6739697 -7.382526,7.2158 6.187844,8.54179 5.820249,-6.13651996 z m -32.195166,6.32154 -9.5574606,9.49772 13.6622686,7.1849703 7.933918,-7.6783603 z m 23.311629,2.37443004 -7.10683,6.93826996 8.362778,6.9074403 5.360756,-5.6739699 -0.06127,-0.0925 -0.0919,0.12335 -6.463539,-8.20258036 z m -8.730374,8.54178036 -7.505057,7.3391599 10.353916,5.45811 c 1.397496,-1.32103 5.67514,-6.12292 5.850882,-6.32154 z"
         style="opacity:0.6;fill:#ffffff;fill-opacity:1;stroke:none" />
    </clipPath>
    <linearGradient
       gradientTransform="matrix(1.1330025,0,0,1.1312937,-40.022887,-46.576722)"
       y2="47.000011"
       x2="90"
       y1="47.000011"
       x1="6"
       gradientUnits="userSpaceOnUse"
       id="linearGradient5021-8"
       xlink:href="#linearGradient6139-0-7"
       inkscape:collect="always" />
    <linearGradient
       id="linearGradient6139-0-7">
      <stop
         id="stop6141-2-5"
         offset="0"
         style="stop-color:#adbac1;stop-opacity:1" />
      <stop
         style="stop-color:#ffffff;stop-opacity:1;"
         offset="0.25"
         id="stop6151-0-3" />
      <stop
         style="stop-color:#adbac1;stop-opacity:1"
         offset="0.5"
         id="stop6147-1-5" />
      <stop
         id="stop6149-4-6"
         offset="0.75"
         style="stop-color:#ffffff;stop-opacity:1" />
      <stop
         id="stop6143-4-2"
         offset="1"
         style="stop-color:#adbac1;stop-opacity:1" />
    </linearGradient>
    <radialGradient
       inkscape:collect="always"
       xlink:href="#linearGradient4091-0-3-0-7"
       id="radialGradient3118"
       gradientUnits="userSpaceOnUse"
       gradientTransform="matrix(-1.2147743,0,0,-0.98990488,72.670411,-67.647628)"
       cx="48"
       cy="-27"
       fx="48"
       fy="-27"
       r="42" />
    <linearGradient
       inkscape:collect="always"
       xlink:href="#linearGradient5700"
       id="linearGradient5698-0"
       gradientUnits="userSpaceOnUse"
       gradientTransform="matrix(1.1330025,0,0,1.1312937,-40.022892,-46.576765)"
       x1="6"
       y1="47.000011"
       x2="90"
       y2="47.000011" />
    <linearGradient
       inkscape:collect="always"
       xlink:href="#linearGradient1218"
       id="linearGradient1210"
       x1="4.1612563"
       y1="42.203571"
       x2="24.760529"
       y2="42.203571"
       gradientUnits="userSpaceOnUse"
       gradientTransform="matrix(0.67083404,0,0,0.63999613,4.6603793,15.278484)" />
    <clipPath
       clipPathUnits="userSpaceOnUse"
       id="clipPath4156-4-1-0-3">
      <path
         style="opacity:0.6;fill:#ffffff;fill-opacity:1;stroke:none"
         d="m 27.046336,-55.695463 -14.21366,13.321486 h 0.06127 l 15.653407,21.770763 10.231384,-10.546177 C 38.561832,-32.30156 27.468089,-54.819245 27.046336,-55.695463 Z M 9.6468554,-39.382809 -5.2407289,-25.32124 15.987863,-7.8059573 26.372412,-18.382966 Z m 31.4906096,12.951445 -9.741259,9.713584 8.944804,12.4580526 7.780753,-7.5550056 z m -49.8397109,4.378822 -13.7541661,12.9822847 26.2830181,13.84571 0.06127,-0.0617 -0.122531,-0.0617 L 13.598503,-5.4007374 -8.7022409,-22.052595 Z m 38.0154159,7.400825 -9.802525,9.7752596 11.579232,9.5594001 7.62759,-7.40083 -8.669108,-11.0087257 z m 20.187073,5.6739697 -7.382526,7.2158 6.187844,8.54179 5.820249,-6.13651996 z m -32.195166,6.32154 -9.5574606,9.49772 13.6622686,7.1849703 7.933918,-7.6783603 z m 23.311629,2.37443004 -7.10683,6.93826996 8.362778,6.9074403 5.360756,-5.6739699 -0.06127,-0.0925 -0.0919,0.12335 -6.463539,-8.20258036 z m -8.730374,8.54178036 -7.505057,7.3391599 10.353916,5.45811 c 1.397496,-1.32103 5.67514,-6.12292 5.850882,-6.32154 z"
         id="path4158-0-8-9-6"
         inkscape:connector-curvature="0" />
    </clipPath>
    <linearGradient
       inkscape:collect="always"
       xlink:href="#linearGradient6139-0-7"
       id="linearGradient1043"
       gradientUnits="userSpaceOnUse"
       gradientTransform="matrix(1.1330025,0,0,1.1312937,-40.022887,-46.576722)"
       x1="6"
       y1="47.000011"
       x2="90"
       y2="47.000011" />
    <clipPath
       id="clipPath4156-4-1-6"
       clipPathUnits="userSpaceOnUse">
      <path
         inkscape:connector-curvature="0"
         id="path4158-0-8-8"
         d="m 27.046336,-55.695463 -14.21366,13.321486 h 0.06127 l 15.653407,21.770763 10.231384,-10.546177 C 38.561832,-32.30156 27.468089,-54.819245 27.046336,-55.695463 Z M 9.6468554,-39.382809 -5.2407289,-25.32124 15.987863,-7.8059573 26.372412,-18.382966 Z m 31.4906096,12.951445 -9.741259,9.713584 8.944804,12.4580526 7.780753,-7.5550056 z m -49.8397109,4.378822 -13.7541661,12.9822847 26.2830181,13.84571 0.06127,-0.0617 -0.122531,-0.0617 L 13.598503,-5.4007374 -8.7022409,-22.052595 Z m 38.0154159,7.400825 -9.802525,9.7752596 11.579232,9.5594001 7.62759,-7.40083 -8.669108,-11.0087257 z m 20.187073,5.6739697 -7.382526,7.2158 6.187844,8.54179 5.820249,-6.13651996 z m -32.195166,6.32154 -9.5574606,9.49772 13.6622686,7.1849703 7.933918,-7.6783603 z m 23.311629,2.37443004 -7.10683,6.93826996 8.362778,6.9074403 5.360756,-5.6739699 -0.06127,-0.0925 -0.0919,0.12335 -6.463539,-8.20258036 z m -8.730374,8.54178036 -7.505057,7.3391599 10.353916,5.45811 c 1.397496,-1.32103 5.67514,-6.12292 5.850882,-6.32154 z"
         style="opacity:0.6;fill:#ffffff;fill-opacity:1;stroke:none" />
    </clipPath>
    <clipPath
       clipPathUnits="userSpaceOnUse"
       id="clipPath4156-4-1-0-7">
      <path
         style="opacity:0.6;fill:#ffffff;fill-opacity:1;stroke:none"
         d="m 27.046336,-55.695463 -14.21366,13.321486 h 0.06127 l 15.653407,21.770763 10.231384,-10.546177 C 38.561832,-32.30156 27.468089,-54.819245 27.046336,-55.695463 Z M 9.6468554,-39.382809 -5.2407289,-25.32124 15.987863,-7.8059573 26.372412,-18.382966 Z m 31.4906096,12.951445 -9.741259,9.713584 8.944804,12.4580526 7.780753,-7.5550056 z m -49.8397109,4.378822 -13.7541661,12.9822847 26.2830181,13.84571 0.06127,-0.0617 -0.122531,-0.0617 L 13.598503,-5.4007374 -8.7022409,-22.052595 Z m 38.0154159,7.400825 -9.802525,9.7752596 11.579232,9.5594001 7.62759,-7.40083 -8.669108,-11.0087257 z m 20.187073,5.6739697 -7.382526,7.2158 6.187844,8.54179 5.820249,-6.13651996 z m -32.195166,6.32154 -9.5574606,9.49772 13.6622686,7.1849703 7.933918,-7.6783603 z m 23.311629,2.37443004 -7.10683,6.93826996 8.362778,6.9074403 5.360756,-5.6739699 -0.06127,-0.0925 -0.0919,0.12335 -6.463539,-8.20258036 z m -8.730374,8.54178036 -7.505057,7.3391599 10.353916,5.45811 c 1.397496,-1.32103 5.67514,-6.12292 5.850882,-6.32154 z"
         id="path4158-0-8-9-2"
         inkscape:connector-curvature="0" />
    </clipPath>
    <linearGradient
       inkscape:collect="always"
       xlink:href="#linearGradient4738"
       id="linearGradient4740"
       x1="-38.207661"
       y1="-9.3251791"
       x2="63.859303"
       y2="-10.883994"
       gradientUnits="userSpaceOnUse"
       gradientTransform="matrix(1.1981274,0,0,1.0601289,-3.333367,-0.14797765)" />
    <linearGradient
       inkscape:collect="always"
       xlink:href="#linearGradient4738"
       id="linearGradient923"
       gradientUnits="userSpaceOnUse"
       gradientTransform="matrix(1.1981274,0,0,1.0601289,-3.333367,-0.14797765)"
       x1="-38.207661"
       y1="-9.3251791"
       x2="63.859303"
       y2="-10.883994" />
    <linearGradient
       inkscape:collect="always"
       xlink:href="#linearGradient5700"
       id="linearGradient925"
       gradientUnits="userSpaceOnUse"
       gradientTransform="matrix(1.1330025,0,0,1.1312937,-40.022892,-46.576765)"
       x1="6"
       y1="47.000011"
       x2="90"
       y2="47.000011" />
  </defs>
  <sodipodi:namedview
     id="base"
     pagecolor="#ffffff"
     bordercolor="#666666"
     borderopacity="1.0"
     inkscape:pageopacity="0.0"
     inkscape:pageshadow="2"
     inkscape:zoom="4.046875"
     inkscape:cx="48"
     inkscape:cy="48"
     inkscape:document-units="px"
     inkscape:current-layer="g1298"
     showgrid="false"
     inkscape:showpageshadow="false"
     units="px"
     inkscape:lockguides="true"
     inkscape:window-width="1920"
     inkscape:window-height="1026"
     inkscape:window-x="0"
     inkscape:window-y="28"
     inkscape:window-maximized="1"
     inkscape:snap-global="false">
    <sodipodi:guide
       position="0,0"
       orientation="0,96"
       id="guide1621"
       inkscape:locked="true" />
    <sodipodi:guide
       position="96.000002,0"
       orientation="-96,0"
       id="guide1623"
       inkscape:locked="true" />
    <sodipodi:guide
       position="96.000002,96.000002"
       orientation="0,-96"
       id="guide1625"
       inkscape:locked="true" />
    <sodipodi:guide
       position="0,96.000002"
       orientation="96,0"
       id="guide1627"
       inkscape:locked="true" />
  </sodipodi:namedview>
  <metadata
     id="metadata1069">
    <rdf:RDF>
      <cc:Work
         rdf:about="">
        <dc:format>image/svg+xml</dc:format>
        <dc:type
           rdf:resource="http://purl.org/dc/dcmitype/StillImage" />
        <dc:title></dc:title>
        <dc:date>2017</dc:date>
        <dc:creator>
          <cc:Agent>
            <dc:title>Cristian Pozzessere &quot;ilnanny&quot;</dc:title>
          </cc:Agent>
        </dc:creator>
        <dc:subject>
          <rdf:Bag>
            <rdf:li>Global language</rdf:li>
          </rdf:Bag>
        </dc:subject>
        <dc:description>Playing with Inkscape on Gnu/Linux O. S.</dc:description>
        <dc:contributor>
          <cc:Agent>
            <dc:title>In the night, alone like a dog.</dc:title>
          </cc:Agent>
        </dc:contributor>
        <cc:license
           rdf:resource="http://creativecommons.org/licenses/by-sa/4.0/" />
      </cc:Work>
      <cc:License
         rdf:about="http://creativecommons.org/licenses/by-sa/4.0/">
        <cc:permits
           rdf:resource="http://creativecommons.org/ns#Reproduction" />
        <cc:permits
           rdf:resource="http://creativecommons.org/ns#Distribution" />
        <cc:requires
           rdf:resource="http://creativecommons.org/ns#Notice" />
        <cc:requires
           rdf:resource="http://creativecommons.org/ns#Attribution" />
        <cc:permits
           rdf:resource="http://creativecommons.org/ns#DerivativeWorks" />
        <cc:requires
           rdf:resource="http://creativecommons.org/ns#ShareAlike" />
      </cc:License>
    </rdf:RDF>
  </metadata>
  <g
     inkscape:label="Livello 1"
     inkscape:groupmode="layer"
     id="layer1"
     transform="translate(0,-1026.5197)">
    <g
       transform="matrix(1.0034441,0,0,1.0049592,33.489303,1067.9929)"
       id="g1298">
      <g
         id="g921"
         transform="translate(0.09965474,-0.09954998)">
        <path
           inkscape:connector-curvature="0"
           id="rect4251-1"
           d="m 55.149328,-40.920182 h -81.576183 c -3.766102,0 -6.798016,3.027315 -6.798016,6.78775 V 47.32076 c 0,3.760335 3.031914,6.787749 6.798016,6.787749 h 81.576183 c 3.766101,0 6.798015,-3.027414 6.798015,-6.787749 v -81.453192 c 0,-3.760435 -3.031914,-6.78775 -6.798015,-6.78775 z"
           style="display:inline;opacity:1;fill:url(#linearGradient1043);fill-opacity:1;fill-rule:nonzero;stroke:none;stroke-width:0.99790996" />
        <path
           style="display:inline;opacity:1;fill:url(#linearGradient5021-8);fill-opacity:1;fill-rule:nonzero;stroke:none;stroke-width:0.99790996"
           d="m 55.149328,-40.920182 h -81.576183 c -3.766102,0 -6.798016,3.027315 -6.798016,6.78775 V 47.32076 c 0,3.760335 3.031914,6.787749 6.798016,6.787749 h 81.576183 c 3.766101,0 6.798015,-3.027414 6.798015,-6.787749 v -81.453192 c 0,-3.760435 -3.031914,-6.78775 -6.798015,-6.78775 z"
           id="path968"
           inkscape:connector-curvature="0" />
        <path
           inkscape:connector-curvature="0"
           id="path4748"
           d="m 55.149328,-40.920182 h -81.576183 c -3.766102,0 -6.798016,3.027315 -6.798016,6.78775 V 47.32076 c 0,3.760335 3.031914,6.787749 6.798016,6.787749 h 81.576183 c 3.766101,0 6.798015,-3.027414 6.798015,-6.787749 v -81.453192 c 0,-3.760435 -3.031914,-6.78775 -6.798015,-6.78775 z"
           style="display:inline;opacity:0.25;fill:#132639;fill-opacity:1;fill-rule:nonzero;stroke:none;stroke-width:0.99790996" />
        <path
           inkscape:connector-curvature="0"
           id="path4236-5"
           d="m -26.426852,-40.920197 c -3.766102,0 -6.798016,3.027342 -6.798016,6.787763 v 16.969405 h 1.133003 v -16.969405 c 0,-3.153251 2.506994,-5.656468 5.665013,-5.656468 h 81.576183 c 3.158019,0 5.665013,2.503217 5.665013,5.656468 v 16.969405 h 1.133002 v -16.969405 c 0,-3.760421 -3.031914,-6.787763 -6.798015,-6.787763 z"
           style="display:inline;opacity:0.45;fill:url(#radialGradient3118);fill-opacity:1;fill-rule:nonzero;stroke:none;stroke-width:1.13214779" />
        <path
           style="opacity:0.58899997;fill:url(#linearGradient3120);fill-opacity:1;fill-rule:nonzero;stroke:none;stroke-width:1.13214779"
           d="m -33.224868,41.03325 v 1.005787 1.005786 1.005787 2.011572 2.011573 c 0,3.343233 3.031914,6.034718 6.798016,6.034718 h 81.576183 c 3.766101,0 6.798015,-2.691485 6.798015,-6.034718 V 46.062182 44.05061 43.044823 42.039037 41.03325 c 0,3.343234 -3.031914,6.034719 -6.798015,6.034719 h -81.576183 c -3.766102,0 -6.798016,-2.691485 -6.798016,-6.034719 z"
           id="path4242-5"
           inkscape:connector-curvature="0" />
        <rect
           style="opacity:1;fill:url(#linearGradient1210);fill-opacity:1;fill-rule:evenodd;stroke:#3f3f3f;stroke-width:0.79147321;stroke-linecap:square;stroke-linejoin:round;stroke-miterlimit:4;stroke-dasharray:none;stroke-dashoffset:0;stroke-opacity:1;paint-order:fill markers stroke"
           id="rect1074"
           width="13.742946"
           height="4.2079573"
           x="7.4897633"
           y="40.18462"
           rx="2.8285501"
           ry="3.3944397" />
        <path
           inkscape:connector-curvature="0"
           id="path904-4"
           d="m -27.45369,-37.507247 c -2.701324,0 -4.874706,1.917487 -4.874706,4.299822 v 66.653467 c 0,2.382335 2.173382,4.299823 4.874706,4.299823 h 82.893961 c 2.70132,0 4.8747,-1.917488 4.8747,-4.299823 v -66.653467 c 0,-2.382335 -2.17338,-4.299822 -4.8747,-4.299822 z m 2.425344,2.200175 h 78.043271 c 2.543312,0 4.590544,1.806251 4.590544,4.049263 v 62.754235 c 0,2.243013 -2.047232,4.049163 -4.590544,4.049163 h -78.043271 c -2.543313,0 -4.590547,-1.80615 -4.590547,-4.049163 v -62.754235 c 0,-2.243012 2.047234,-4.049263 4.590547,-4.049263 z"
           style="color:#000000;display:inline;overflow:visible;visibility:visible;opacity:1;fill:#0d1625;fill-opacity:0.59808613;fill-rule:nonzero;stroke:none;stroke-width:2.02353978;marker:none;enable-background:accumulate" />
        <path
           id="path4970"
           d="m -27.45369,-37.507247 h 82.892526 c 2.701323,0 4.876031,1.91789 4.876031,4.300227 v 66.653465 c 0,2.382336 -2.174708,4.300227 -4.876031,4.300227 H -27.45369 c -2.70132,0 -4.87603,-1.917891 -4.87603,-4.300227 V -33.20702 c 0,-2.382337 2.17471,-4.300227 4.87603,-4.300227 z"
           style="color:#000000;display:inline;overflow:visible;visibility:visible;opacity:1;fill:url(#linearGradient923);fill-opacity:1;fill-rule:nonzero;stroke:none;stroke-width:2.02353978;marker:none;enable-background:accumulate"
           inkscape:connector-curvature="0"
           sodipodi:nodetypes="sssssssss" />
        <path
           style="display:inline;opacity:1;fill:url(#linearGradient925);fill-opacity:1;fill-rule:nonzero;stroke:none;stroke-width:0.99790996"
           d="m 55.14933,-40.920225 h -81.576184 c -3.766114,0 -6.798014,3.027316 -6.798014,6.78775 v 81.453192 c 0,3.760335 3.0319,6.787749 6.798014,6.787749 H 55.14933 c 3.766095,0 6.798011,-3.027414 6.798011,-6.787749 v -81.453192 c 0,-3.760434 -3.031916,-6.78775 -6.798011,-6.78775 z"
           id="path5696-5"
           inkscape:connector-curvature="0" />
      </g>
    </g>
  </g>
</svg>
