<?xml version="1.0" encoding="UTF-8" standalone="no"?>
<!-- Created with Inkscape (http://www.inkscape.org/) -->

<svg
   xmlns:dc="http://purl.org/dc/elements/1.1/"
   xmlns:cc="http://creativecommons.org/ns#"
   xmlns:rdf="http://www.w3.org/1999/02/22-rdf-syntax-ns#"
   xmlns:svg="http://www.w3.org/2000/svg"
   xmlns="http://www.w3.org/2000/svg"
   xmlns:xlink="http://www.w3.org/1999/xlink"
   xmlns:sodipodi="http://sodipodi.sourceforge.net/DTD/sodipodi-0.dtd"
   xmlns:inkscape="http://www.inkscape.org/namespaces/inkscape"
   width="96"
   height="96"
   viewBox="0 0 96.000001 96.000004"
   version="1.1"
   id="svg1072"
   inkscape:version="0.92.1 r15371"
   sodipodi:docname="media-flash-sd-mmc.svg">
  <defs
     id="defs1066">
    <linearGradient
       y2="47.000011"
       x2="90"
       y1="47.000011"
       x1="6"
       gradientTransform="matrix(1.1415064,0,0,1.1415062,7.0693383,-16.1436)"
       gradientUnits="userSpaceOnUse"
       id="linearGradient7426"
       xlink:href="#linearGradient6139-0"
       inkscape:collect="always" />
    <linearGradient
       id="linearGradient6139-0">
      <stop
         id="stop6141-2"
         offset="0"
         style="stop-color:#e5dddd;stop-opacity:1" />
      <stop
         style="stop-color:#fcf9f9;stop-opacity:1"
         offset="0.25"
         id="stop6151-0" />
      <stop
         style="stop-color:#f8f6f6;stop-opacity:1"
         offset="0.5"
         id="stop6147-1" />
      <stop
         id="stop6149-4"
         offset="0.75"
         style="stop-color:#fcf8f8;stop-opacity:1" />
      <stop
         id="stop6143-4"
         offset="1"
         style="stop-color:#e5dddd;stop-opacity:1" />
    </linearGradient>
    <radialGradient
       inkscape:collect="always"
       xlink:href="#linearGradient4091-0-3-0-7"
       id="radialGradient1064"
       gradientUnits="userSpaceOnUse"
       gradientTransform="matrix(-1.1436508,0,0,-0.93335492,212.76191,-20.400582)"
       cx="48"
       cy="-27"
       fx="48"
       fy="-27"
       r="42" />
    <linearGradient
       id="linearGradient4091-0-3-0-7">
      <stop
         style="stop-color:#ffffff;stop-opacity:1;"
         offset="0"
         id="stop4093-3-6-4-2" />
      <stop
         id="stop4099-6-1-8-3"
         offset="0.80000001"
         style="stop-color:#ffffff;stop-opacity:1;" />
      <stop
         style="stop-color:#ffffff;stop-opacity:0;"
         offset="1"
         id="stop4095-1-0-7-9" />
    </linearGradient>
    <linearGradient
       y2="88.171875"
       x2="94.5"
       y1="88.171875"
       x1="1.5"
       gradientTransform="matrix(1.0310382,0,0,1.0310382,12.371819,-11.982625)"
       gradientUnits="userSpaceOnUse"
       id="linearGradient7460"
       xlink:href="#linearGradient3832-0-6-1-1"
       inkscape:collect="always" />
    <linearGradient
       id="linearGradient3832-0-6-1-1">
      <stop
         style="stop-color:#000000;stop-opacity:1;"
         offset="0"
         id="stop3834-6-3-7-1" />
      <stop
         id="stop3872-2-4"
         offset="0.1"
         style="stop-color:#000000;stop-opacity:0.58823532;" />
      <stop
         style="stop-color:#000000;stop-opacity:0.58823532;"
         offset="0.89999998"
         id="stop3844-6-2-7-6" />
      <stop
         style="stop-color:#000000;stop-opacity:1;"
         offset="1"
         id="stop3836-5-0-2-9" />
    </linearGradient>
    <radialGradient
       r="43.199203"
       fy="44.892841"
       fx="13.948145"
       cy="44.892841"
       cx="13.948145"
       gradientTransform="matrix(1.0054001,0,0,0.05071751,47.322667,70.672296)"
       gradientUnits="userSpaceOnUse"
       id="radialGradient7462"
       xlink:href="#linearGradient5544"
       inkscape:collect="always" />
    <linearGradient
       inkscape:collect="always"
       id="linearGradient5544">
      <stop
         style="stop-color:#ffffff;stop-opacity:1;"
         offset="0"
         id="stop5546" />
      <stop
         style="stop-color:#ffffff;stop-opacity:0;"
         offset="1"
         id="stop5548" />
    </linearGradient>
    <radialGradient
       r="43.199203"
       fy="44.892841"
       fx="13.948145"
       cy="44.892841"
       cx="13.948145"
       gradientTransform="matrix(0.91589864,0,0,0.05071751,19.705808,-105.89555)"
       gradientUnits="userSpaceOnUse"
       id="radialGradient7464"
       xlink:href="#linearGradient5544"
       inkscape:collect="always" />
    <linearGradient
       inkscape:collect="always"
       xlink:href="#XMLID_13_"
       id="linearGradient3937"
       gradientUnits="userSpaceOnUse"
       x1="25.040001"
       y1="35.74897"
       x2="25.040001"
       y2="41.868782"
       gradientTransform="matrix(0.98425197,0,0,0.98042215,0.35433032,-30.049081)" />
    <linearGradient
       id="XMLID_13_"
       gradientUnits="userSpaceOnUse"
       x1="21.132799"
       y1="42.0396"
       x2="28.8344"
       y2="38.188702">
      <stop
         offset="0"
         style="stop-color:#EEEEEE"
         id="stop30" />
      <stop
         offset="1"
         style="stop-color:#BBBBBB"
         id="stop32" />
    </linearGradient>
    <filter
       inkscape:collect="always"
       id="filter3933"
       x="-0.66144085"
       width="2.3228817"
       y="-0.086859539"
       height="1.173719">
      <feGaussianBlur
         inkscape:collect="always"
         stdDeviation="0.39810622"
         id="feGaussianBlur3935" />
    </filter>
    <linearGradient
       inkscape:collect="always"
       xlink:href="#XMLID_20_"
       id="linearGradient3069"
       gradientUnits="userSpaceOnUse"
       x1="64.234901"
       y1="121.3604"
       x2="64.234901"
       y2="116.0661"
       gradientTransform="translate(0,-32)" />
    <linearGradient
       id="XMLID_20_"
       gradientUnits="userSpaceOnUse"
       x1="64.234901"
       y1="121.3604"
       x2="64.234901"
       y2="116.0661">
      <stop
         offset="0"
         style="stop-color:#6193CF"
         id="stop83" />
      <stop
         offset="1"
         style="stop-color:#00316E"
         id="stop85" />
    </linearGradient>
    <linearGradient
       inkscape:collect="always"
       xlink:href="#XMLID_21_"
       id="linearGradient3063"
       gradientUnits="userSpaceOnUse"
       x1="73.1035"
       y1="57.806599"
       x2="73.1035"
       y2="29.909594"
       gradientTransform="translate(0,-32)" />
    <linearGradient
       id="XMLID_21_"
       gradientUnits="userSpaceOnUse"
       x1="29.1035"
       y1="30.306601"
       x2="99.859398"
       y2="30.306601">
      <stop
         offset="0"
         style="stop-color:#EEEEEE"
         id="stop96" />
      <stop
         offset="1"
         style="stop-color:#FFFFFF"
         id="stop98" />
    </linearGradient>
    <linearGradient
       inkscape:collect="always"
       xlink:href="#XMLID_22_"
       id="linearGradient3013"
       gradientUnits="userSpaceOnUse"
       x1="95.443398"
       y1="35.625999"
       x2="89.812103"
       y2="29.994699" />
    <linearGradient
       id="XMLID_22_"
       gradientUnits="userSpaceOnUse"
       x1="95.443398"
       y1="35.625999"
       x2="89.812103"
       y2="29.994699">
      <stop
         offset="0"
         style="stop-color:#E20800"
         id="stop129" />
      <stop
         offset="1"
         style="stop-color:#E85752"
         id="stop131" />
    </linearGradient>
    <linearGradient
       inkscape:collect="always"
       xlink:href="#XMLID_15_"
       id="linearGradient3964"
       gradientUnits="userSpaceOnUse"
       gradientTransform="translate(-0.03125,-32)"
       x1="14.5835"
       y1="20.999001"
       x2="94.487701"
       y2="100.9032" />
    <linearGradient
       id="XMLID_15_"
       gradientUnits="userSpaceOnUse"
       x1="14.5835"
       y1="20.999001"
       x2="94.487701"
       y2="100.9032">
      <stop
         offset="0"
         style="stop-color:#A4C0E4"
         id="stop46" />
      <stop
         offset="1"
         style="stop-color:#6193CF"
         id="stop48" />
    </linearGradient>
    <filter
       inkscape:collect="always"
       id="filter5552">
      <feGaussianBlur
         inkscape:collect="always"
         stdDeviation="0.34138033"
         id="feGaussianBlur5554" />
    </filter>
    <linearGradient
       inkscape:collect="always"
       xlink:href="#linearGradient5544"
       id="linearGradient7128"
       gradientUnits="userSpaceOnUse"
       x1="2.7713892"
       y1="-28.64156"
       x2="50.527882"
       y2="14.514202" />
    <clipPath
       clipPathUnits="userSpaceOnUse"
       id="clipPath4156-4">
      <path
         style="opacity:0.6;fill:#ffffff;fill-opacity:1;stroke:none"
         d="m 27.046336,-55.695463 -14.21366,13.321486 h 0.06127 l 15.653407,21.770763 10.231384,-10.546177 C 38.561832,-32.30156 27.468089,-54.819245 27.046336,-55.695463 Z M 9.6468554,-39.382809 -5.2407289,-25.32124 15.987863,-7.8059573 26.372412,-18.382966 Z m 31.4906096,12.951445 -9.741259,9.713584 8.944804,12.4580526 7.780753,-7.5550056 z m -49.8397109,4.378822 -13.7541661,12.9822847 26.2830181,13.84571 0.06127,-0.0617 -0.122531,-0.0617 L 13.598503,-5.4007374 -8.7022409,-22.052595 Z m 38.0154159,7.400825 -9.802525,9.7752596 11.579232,9.5594001 7.62759,-7.40083 -8.669108,-11.0087257 z m 20.187073,5.6739697 -7.382526,7.2158 6.187844,8.54179 5.820249,-6.13651996 z m -32.195166,6.32154 -9.5574606,9.49772 13.6622686,7.1849703 7.933918,-7.6783603 z m 23.311629,2.37443004 -7.10683,6.93826996 8.362778,6.9074403 5.360756,-5.6739699 -0.06127,-0.0925 -0.0919,0.12335 -6.463539,-8.20258036 z m -8.730374,8.54178036 -7.505057,7.3391599 10.353916,5.45811 c 1.397496,-1.32103 5.67514,-6.12292 5.850882,-6.32154 z"
         id="path4158-0"
         inkscape:connector-curvature="0" />
    </clipPath>
    <radialGradient
       r="42"
       fy="-27"
       fx="48"
       cy="-27"
       cx="48"
       gradientTransform="matrix(-1.1436508,0,0,-0.93335492,212.76191,-20.400582)"
       gradientUnits="userSpaceOnUse"
       id="radialGradient7430"
       xlink:href="#linearGradient4091-0-3-0-7"
       inkscape:collect="always" />
  </defs>
  <sodipodi:namedview
     id="base"
     pagecolor="#ffffff"
     bordercolor="#666666"
     borderopacity="1.0"
     inkscape:pageopacity="0.0"
     inkscape:pageshadow="2"
     inkscape:zoom="7.1041667"
     inkscape:cx="16.750733"
     inkscape:cy="48"
     inkscape:document-units="px"
     inkscape:current-layer="layer1"
     showgrid="false"
     inkscape:showpageshadow="false"
     units="px"
     inkscape:lockguides="true"
     inkscape:window-width="1280"
     inkscape:window-height="980"
     inkscape:window-x="0"
     inkscape:window-y="26"
     inkscape:window-maximized="1">
    <sodipodi:guide
       position="0,0"
       orientation="0,96"
       id="guide1621"
       inkscape:locked="true" />
    <sodipodi:guide
       position="96.000002,0"
       orientation="-96,0"
       id="guide1623"
       inkscape:locked="true" />
    <sodipodi:guide
       position="96.000002,96.000002"
       orientation="0,-96"
       id="guide1625"
       inkscape:locked="true" />
    <sodipodi:guide
       position="0,96.000002"
       orientation="96,0"
       id="guide1627"
       inkscape:locked="true" />
  </sodipodi:namedview>
  <metadata
     id="metadata1069">
    <rdf:RDF>
      <cc:Work
         rdf:about="">
        <dc:format>image/svg+xml</dc:format>
        <dc:type
           rdf:resource="http://purl.org/dc/dcmitype/StillImage" />
        <dc:title></dc:title>
        <dc:date>2017</dc:date>
        <dc:creator>
          <cc:Agent>
            <dc:title>Cristian Pozzessere &quot;ilnanny&quot;</dc:title>
          </cc:Agent>
        </dc:creator>
        <dc:subject>
          <rdf:Bag>
            <rdf:li>Global language</rdf:li>
          </rdf:Bag>
        </dc:subject>
        <dc:description>Playing with Inkscape on Gnu/Linux O. S.</dc:description>
        <dc:contributor>
          <cc:Agent>
            <dc:title>In the night, alone like a dog.</dc:title>
          </cc:Agent>
        </dc:contributor>
        <cc:license
           rdf:resource="http://creativecommons.org/licenses/by-sa/4.0/" />
      </cc:Work>
      <cc:License
         rdf:about="http://creativecommons.org/licenses/by-sa/4.0/">
        <cc:permits
           rdf:resource="http://creativecommons.org/ns#Reproduction" />
        <cc:permits
           rdf:resource="http://creativecommons.org/ns#Distribution" />
        <cc:requires
           rdf:resource="http://creativecommons.org/ns#Notice" />
        <cc:requires
           rdf:resource="http://creativecommons.org/ns#Attribution" />
        <cc:permits
           rdf:resource="http://creativecommons.org/ns#DerivativeWorks" />
        <cc:requires
           rdf:resource="http://creativecommons.org/ns#ShareAlike" />
      </cc:License>
    </rdf:RDF>
  </metadata>
  <g
     inkscape:label="Livello 1"
     inkscape:groupmode="layer"
     id="layer1"
     transform="translate(0,-1026.5197)">
    <g
       transform="matrix(0.96989623,0,0,0.96989623,-11.999382,1038.1416)"
       style="overflow:visible"
       id="g2294">
      <path
         inkscape:connector-curvature="0"
         id="path3288"
         d="M 104.2815,-11.982625 H 19.441789 c -3.916756,0 -7.069968,3.1532086 -7.069968,7.0699725 V 79.927061 c 0,3.916767 3.153212,7.069975 7.069968,7.069975 H 104.2815 c 3.91677,0 7.06998,-3.153208 7.06998,-7.069975 V -4.9126525 c 0,-3.9167639 -3.15321,-7.0699725 -7.06998,-7.0699725 z"
         style="display:inline;opacity:0.15;fill:#000000;fill-opacity:1;fill-rule:nonzero;stroke:none;stroke-width:1.03103817" />
      <path
         style="display:inline;opacity:0.15;fill:#000000;fill-opacity:1;fill-rule:nonzero;stroke:none;stroke-width:1.03103817"
         d="M 103.61869,-11.209347 H 20.104598 c -3.855558,0 -6.9595,3.1039398 -6.9595,6.9595046 V 79.26425 c 0,3.855568 3.103942,6.959508 6.9595,6.959508 h 83.514092 c 3.85557,0 6.95951,-3.10394 6.95951,-6.959508 V -4.2498424 c 0,-3.8555648 -3.10394,-6.9595046 -6.95951,-6.9595046 z"
         id="path4085"
         inkscape:connector-curvature="0" />
      <path
         inkscape:connector-curvature="0"
         id="rect4251-1"
         d="M 102.95588,-10.436068 H 20.767416 c -3.794368,0 -6.849039,3.0546699 -6.849039,6.8490367 V 78.601442 c 0,3.794367 3.054671,6.849038 6.849039,6.849038 h 82.188464 c 3.79437,0 6.84903,-3.054671 6.84903,-6.849038 V -3.5870313 c 0,-3.7943668 -3.05466,-6.8490367 -6.84903,-6.8490367 z"
         style="display:inline;opacity:1;fill:url(#linearGradient7426);fill-opacity:1;fill-rule:nonzero;stroke:none;stroke-width:1.03103817" />
      <path
         sodipodi:nodetypes="sscccsccscccsss"
         inkscape:connector-curvature="0"
         id="path1100"
         d="m 23.96891,-5.5050965 c -2.99258,0 -5.368255,2.389748 -5.368255,5.40006498 v 22.37651852 7.560091 41.68175 c 1.149525,1.7591 3.110309,2.93628 5.368255,2.93628 h 4.294615 68.713733 4.294592 c 2.25797,0 4.21875,-1.17718 5.36827,-2.93628 V 29.831578 22.271487 -0.10503152 c 0,-3.01031698 -2.37568,-5.40006498 -5.36827,-5.40006498 z"
         style="display:inline;opacity:0.96300001;fill:#e6dfdf;fill-opacity:1;fill-rule:nonzero;stroke:none;stroke-width:1.07682776" />
      <g
         transform="matrix(1.0701623,0,0,1.0701621,-107.08128,-15.572846)"
         id="g3272">
        <path
           style="display:inline;opacity:0.45;fill:url(#radialGradient1064);fill-opacity:1;fill-rule:nonzero;stroke:none;stroke-width:1.06666672"
           d="m 119.46667,4.8 c -3.5456,0 -6.4,2.8543996 -6.4,6.4 v 16 h 1.06666 v -16 c 0,-2.973117 2.36022,-5.3333333 5.33334,-5.3333333 h 76.8 c 2.97312,0 5.33333,2.3602163 5.33333,5.3333333 v 16 h 1.06667 v -16 c 0,-3.5456004 -2.8544,-6.4 -6.4,-6.4 z"
           id="path4236-5"
           inkscape:connector-curvature="0" />
      </g>
      <path
         style="color:#000000;font-style:normal;font-variant:normal;font-weight:normal;font-stretch:normal;font-size:medium;line-height:normal;font-family:Sans;-inkscape-font-specification:Sans;text-indent:0;text-align:start;text-decoration:none;text-decoration-line:none;letter-spacing:normal;word-spacing:normal;text-transform:none;writing-mode:lr-tb;direction:ltr;baseline-shift:baseline;text-anchor:start;display:inline;overflow:visible;visibility:visible;opacity:0.581;fill:#241f1f;fill-opacity:0.63265303;stroke:none;stroke-width:2.44923139;marker:none;enable-background:accumulate"
         d="m 22.501852,-7.1063709 c -3.213356,0 -5.843888,2.6183319 -5.843888,5.8212457 V 70.143131 c 0,3.202915 2.630532,5.821246 5.843888,5.821246 h 79.175258 c 3.21336,0 5.8439,-2.618331 5.8439,-5.821246 V -1.2851252 c 0,-3.2029127 -2.63054,-5.8212457 -5.8439,-5.8212457 z m 0,2.3914303 h 79.175258 c 1.94671,0 3.45606,1.5260344 3.45606,3.4298154 V 70.143131 c 0,1.903785 -1.50935,3.429815 -3.45606,3.429815 H 22.501852 c -1.946702,0 -3.456063,-1.52603 -3.456063,-3.429815 V -1.2851252 c 0,-1.903781 1.509361,-3.4298154 3.456063,-3.4298154 z"
         id="path4989"
         inkscape:connector-curvature="0" />
      <path
         id="path4118"
         d="m 13.918376,72.401403 v 6.186229 c 0,3.794366 3.06848,6.862847 6.862848,6.862847 h 82.160856 c 3.79437,0 6.86284,-3.068481 6.86284,-6.862847 v -6.186229 c 0,3.794367 -3.06847,6.862847 -6.86284,6.862847 H 20.781224 c -3.794368,0 -6.862848,-3.06848 -6.862848,-6.862847 z"
         style="display:inline;opacity:0.65818182;fill:url(#linearGradient7460);fill-opacity:1;fill-rule:nonzero;stroke:none;stroke-width:1.03103817"
         inkscape:connector-curvature="0" />
      <rect
         ry="4.3819122"
         rx="0"
         y="70.758194"
         x="17.913649"
         height="4.3819122"
         width="86.864975"
         id="rect4131"
         style="opacity:0.55;fill:url(#radialGradient7462);fill-opacity:1;stroke:none;stroke-width:1.03103817" />
      <rect
         transform="rotate(90)"
         style="opacity:0.55;fill:url(#radialGradient7464);fill-opacity:1;stroke:none;stroke-width:1.03103817"
         id="rect4141"
         width="79.132179"
         height="4.3819122"
         x="-7.0851936"
         y="-105.80965"
         rx="0"
         ry="4.3819122" />
      <g
         id="g2125"
         style="overflow:visible"
         transform="matrix(0.67947285,0,0,0.64300659,18.140857,14.187309)">
        <path
           inkscape:connector-curvature="0"
           sodipodi:nodetypes="cccccccccccccccccccccccccc"
           style="fill:#4d80a3;fill-opacity:1;stroke:#ededed;stroke-opacity:1"
           id="path27"
           d="M 94.083,-26 H 21.884 c -1.063,0 -1.925,0.862 -1.925,1.925 V 0.169 c 0,0.966 0.79,1.837 2.72,1.835 L 25,2 v 25 h -3 c -0.882452,0 -2,0.82491 -2,2 l -0.041,59.073 c 0,1.063 0.862,1.926 1.925,1.926 h 34.47 c 0.584,0 1.29,-0.486 1.655,-0.943 l 0.027,-0.034 12.943,0.015 C 71.345,89.493 72.025,90 72.609,90 h 33.507 c 1.062,0 1.926,-0.862 1.926,-1.926 L 108,18 c 0,-0.897125 -0.8657,-2 -2.037,-2 H 104 V 9 l 1.999,-0.018 C 107.407,8.949 108,8 108,7 l 0.042,-18.56 z" />
        <path
           inkscape:connector-curvature="0"
           style="fill:url(#linearGradient3937)"
           id="path34"
           d="m 29,13.114004 c 0,1.04219 -0.848425,1.887313 -1.894685,1.887313 h -5.21063 C 20.848425,15.001317 20,14.156194 20,13.114004 V 5.887313 C 20,4.845123 20.848425,4 21.894685,4 h 5.21063 C 28.151575,4 29,4.845123 29,5.887313 Z" />
        <path
           inkscape:connector-curvature="0"
           style="fill:#ffffff;fill-opacity:1"
           id="path36"
           d="M 21.963,5 C 21.432,5 21,5.418244 21,5.931368 v 7.136296 C 21,13.581756 21.432,14 21.963,14 h 5.294 c 0.531,0 0.963,-0.418244 0.963,-0.932336 V 5.931368 C 28.22,5.418244 27.788,5 27.257,5 Z" />
        <rect
           y="3"
           x="24.700003"
           height="11"
           width="1.4445055"
           id="rect3923"
           style="opacity:0.30697674;fill:#000000;fill-opacity:1;stroke:#000000;stroke-width:0.69999999;stroke-linecap:square;stroke-linejoin:bevel;stroke-miterlimit:4;stroke-dasharray:none;stroke-dashoffset:0;stroke-opacity:1;filter:url(#filter3933)" />
        <path
           inkscape:connector-curvature="0"
           id="path3912"
           d="m 32,-14 c -3.363912,0 -6,2.636088 -6,6 v 84 c 0,3.3638 2.637346,6 6,6 h 65 c 3.36254,0 6,-2.63746 6,-6 V -8 c 0,-3.362654 -2.6362,-6 -6,-6 z m 0,0.46875 h 65 c 3.0873,0 5.53125,2.445072 5.53125,5.53125 v 84 c 0,3.08624 -2.44501,5.53125 -5.53125,5.53125 H 32 C 28.913822,81.53125 26.46875,79.0873 26.46875,76 V -8 c 0,-3.08724 2.44401,-5.53125 5.53125,-5.53125 z"
           style="fill:#000000;fill-opacity:1;stroke:#ededed;stroke-opacity:1" />
        <path
           inkscape:connector-curvature="0"
           style="fill:url(#linearGradient3069)"
           id="path87"
           d="m 92.71,85.511 c 0,0.931 -0.753,1.684 -1.684,1.684 H 37.444 c -0.93,0 -1.685,-0.753 -1.685,-1.684 v 0 c 0,-0.932 0.755,-1.686 1.685,-1.686 h 53.582 c 0.931,0 1.684,0.754 1.684,1.686 z" />
        <path
           inkscape:connector-curvature="0"
           sodipodi:nodetypes="ccccccc"
           style="fill:url(#linearGradient3063)"
           id="path100"
           d="M 100,7 V -8 c 0,-1.592 -1.407,-3 -3,-3 H 32 c -1.592,0 -3,1.408 -3,3 l 0.104,15 z" />
        <g
           transform="matrix(1.0288362,0,0,1.0288362,-0.79503672,-33.502682)"
           id="g116">
          <path
             inkscape:connector-curvature="0"
             style="fill:#ffffff"
             id="path118"
             d="m 36.71,50.24 h 0.878 v 3.154 h 1.548 v 0.739 H 36.71 Z" />
          <path
             inkscape:connector-curvature="0"
             style="fill:#ffffff"
             id="path120"
             d="m 40.875,54.196 c -0.826,0 -1.461,-0.543 -1.461,-1.456 0,-0.913 0.601,-1.496 1.514,-1.496 0.861,0 1.438,0.595 1.438,1.449 0,1.029 -0.734,1.502 -1.484,1.502 h -0.007 z m 0.023,-0.629 c 0.347,0 0.56,-0.341 0.56,-0.849 0,-0.416 -0.162,-0.844 -0.56,-0.844 -0.416,0 -0.578,0.428 -0.578,0.85 0,0.479 0.202,0.843 0.572,0.843 z" />
          <path
             inkscape:connector-curvature="0"
             style="fill:#ffffff"
             id="path122"
             d="m 45.028,54.058 c -0.156,0.075 -0.45,0.133 -0.786,0.133 -0.912,0 -1.496,-0.561 -1.496,-1.444 0,-0.82 0.566,-1.496 1.617,-1.496 0.231,0 0.485,0.041 0.67,0.11 l -0.138,0.652 c -0.104,-0.046 -0.26,-0.086 -0.491,-0.086 -0.462,0 -0.762,0.329 -0.757,0.785 0,0.52 0.347,0.792 0.774,0.792 0.208,0 0.37,-0.035 0.502,-0.093 z" />
          <path
             inkscape:connector-curvature="0"
             style="fill:#ffffff"
             id="path124"
             d="m 46.391,52.498 h 0.012 c 0.063,-0.121 0.133,-0.236 0.202,-0.341 l 0.572,-0.849 h 1.056 l -1.01,1.144 1.155,1.681 h -1.08 l -0.688,-1.161 -0.22,0.277 v 0.884 h -0.877 v -4.107 h 0.877 v 2.472 z" />
        </g>
        <polygon
           transform="matrix(1.0288362,0,0,1.0288362,-0.79503672,-33.502682)"
           style="fill:#ffffff"
           id="polygon126"
           points="32.473,50.764 35.361,50.764 33.917,53.651 " />
        <polygon
           transform="translate(0,-32)"
           style="fill:url(#linearGradient3013)"
           id="polygon133"
           points="90.221,36.035 92.628,27.178 95.034,36.035 " />
        <path
           inkscape:connector-curvature="0"
           id="path3955"
           d="m 21.84375,-26 c -1.063,0 -1.90625,0.8745 -1.90625,1.9375 v 1 c 0,-1.063 0.84325,-1.9375 1.90625,-1.9375 H 94.0625 L 108,-10.5625 v -1 L 94.0625,-26 Z m 83.125,42 v 1 h 0.96875 c 1.063,0 2.03125,0.937 2.03125,2 v -1 c 0,-1.063 -0.96825,-2 -2.03125,-2 z m -83,11 c -1.062,0.002 -2,0.938 -2,2 v 1 c 0,-1.062 0.938,-1.998 2,-2 h 2 v -1 z"
           style="opacity:0.77777782;fill:url(#linearGradient3964);fill-opacity:1" />
        <g
           transform="translate(33.854,-31.969)"
           id="g89">
          <path
             inkscape:connector-curvature="0"
             style="fill:#ffffff"
             id="path91"
             d="m 43.835,97.712 c -0.453,1.075 -1.316,1.944 -2.589,2.603 -1.273,0.659 -2.719,0.988 -4.336,0.988 -1.658,0 -2.977,-0.375 -3.956,-1.126 l 2.126,-2.012 c 0.54,0.589 1.262,0.881 2.168,0.881 0.494,0 0.96,-0.108 1.399,-0.328 0.439,-0.22 0.731,-0.504 0.877,-0.85 0.137,-0.323 0.113,-0.666 -0.068,-1.025 -0.13,-0.231 -0.462,-0.657 -0.998,-1.282 -0.338,-0.37 -0.763,-0.862 -1.278,-1.476 -0.415,-0.658 -0.459,-1.377 -0.133,-2.15 0.403,-0.96 1.182,-1.73 2.333,-2.308 1.151,-0.579 2.468,-0.868 3.95,-0.868 1.294,0 2.416,0.271 3.362,0.813 l -1.919,1.903 c -0.605,-0.307 -1.173,-0.461 -1.706,-0.461 -0.879,0 -1.426,0.256 -1.641,0.763 -0.082,0.198 -0.076,0.396 0.022,0.591 0.096,0.197 0.358,0.521 0.782,0.972 0.497,0.532 0.954,1.111 1.372,1.735 0.55,0.821 0.627,1.7 0.233,2.637 z" />
          <path
             inkscape:connector-curvature="0"
             style="fill:#ffffff"
             id="path93"
             d="m 60.945,94.719 c -0.977,2.321 -2.727,4.064 -5.246,5.23 -1.656,0.764 -3.652,1.143 -5.988,1.143 h -4.667 l 5.102,-12.123 h 4.427 c 1.508,0 2.569,0.053 3.178,0.156 1.633,0.278 2.729,0.91 3.289,1.897 0.557,0.987 0.527,2.219 -0.095,3.697 z m -4.448,0.071 c 0.605,-1.438 0.52,-2.446 -0.257,-3.022 -0.428,-0.32 -1.152,-0.481 -2.17,-0.481 h -0.724 l -3.153,7.49 h 0.644 c 1.274,0 2.325,-0.265 3.15,-0.794 1.068,-0.691 1.905,-1.754 2.51,-3.193 z" />
        </g>
        <path
           inkscape:connector-curvature="0"
           id="path5455"
           d="M 100,33.84375 29,61.75 v 2 l 71,-27.90625 z"
           style="opacity:0.57004831;fill:#ffffff;fill-opacity:1;stroke-width:1px" />
        <path
           inkscape:connector-curvature="0"
           sodipodi:nodetypes="ccccccccc"
           style="fill:#ffffff;fill-opacity:1;filter:url(#filter5552)"
           d="m 21.84375,-26 c -1.063,0 -1.90625,0.8745 -1.90625,1.9375 v 1 c 0,-1.063 0.84325,-1.9375 1.90625,-1.9375 H 94.0625 L 108,-10.5625 v -1 L 94.0625,-26 Z"
           id="path5542" />
      </g>
      <path
         inkscape:connector-curvature="0"
         id="rect4190"
         d="m 22.44766,-5.1329235 c -2.055221,0 -3.716368,1.7005335 -3.720813,3.798858 L 18.574029,70.798522 c 1.973084,2.599303 1.716971,2.485598 5.002096,2.762218 1.860215,-15.322314 37.63188,-75.6126998 79.821195,-75.6126998 0.50323,0 0.99317,0.020476 1.49419,0.02991 -0.31226,-1.7713555 -1.80534,-3.1108751 -3.63292,-3.1108751 z"
         style="opacity:0.14322917;fill:#ffffff;fill-opacity:1;stroke:none;stroke-width:1.03103817"
         sodipodi:nodetypes="ssccscss" />
      <rect
         clip-path="url(#clipPath4156-4)"
         ry="3.9569881"
         rx="3.9569874"
         y="-30"
         x="2"
         height="92"
         width="92"
         id="rect4146"
         style="opacity:0.66699997;fill:url(#linearGradient7128);fill-opacity:1;stroke:none"
         transform="matrix(0.93752781,0,0,0.95719245,17.02736,24.015666)" />
      <g
         id="g1094"
         transform="matrix(1.0701623,0,0,1.0701621,-107.08128,-15.572846)">
        <path
           inkscape:connector-curvature="0"
           id="path1092"
           d="m 119.46667,4.8 c -3.5456,0 -6.4,2.8543996 -6.4,6.4 v 16 h 1.06666 v -16 c 0,-2.973117 2.36022,-5.3333333 5.33334,-5.3333333 h 76.8 c 2.97312,0 5.33333,2.3602163 5.33333,5.3333333 v 16 h 1.06667 v -16 c 0,-3.5456004 -2.8544,-6.4 -6.4,-6.4 z"
           style="display:inline;opacity:0.45;fill:url(#radialGradient7430);fill-opacity:1;fill-rule:nonzero;stroke:none;stroke-width:1.06666672" />
      </g>
    </g>
  </g>
</svg>
