<?xml version="1.0" encoding="UTF-8" standalone="no"?>
<!-- Created with Inkscape (http://www.inkscape.org/) -->

<svg
   xmlns:dc="http://purl.org/dc/elements/1.1/"
   xmlns:cc="http://creativecommons.org/ns#"
   xmlns:rdf="http://www.w3.org/1999/02/22-rdf-syntax-ns#"
   xmlns:svg="http://www.w3.org/2000/svg"
   xmlns="http://www.w3.org/2000/svg"
   xmlns:xlink="http://www.w3.org/1999/xlink"
   xmlns:sodipodi="http://sodipodi.sourceforge.net/DTD/sodipodi-0.dtd"
   xmlns:inkscape="http://www.inkscape.org/namespaces/inkscape"
   width="96"
   height="96"
   viewBox="0 0 96.000001 96.000004"
   version="1.1"
   id="svg1072"
   inkscape:version="0.92.1 r15371"
   sodipodi:docname="face-raspberry.svg">
  <defs
     id="defs1066">
    <linearGradient
       inkscape:collect="always"
       id="linearGradient4658">
      <stop
         style="stop-color:#ffe03e;stop-opacity:1"
         offset="0"
         id="stop4654" />
      <stop
         style="stop-color:#ffc100;stop-opacity:1"
         offset="1"
         id="stop4656" />
    </linearGradient>
    <linearGradient
       y2="47.000011"
       x2="90"
       y1="47.000011"
       x1="6"
       gradientTransform="matrix(1.1071428,0,0,1.1071426,-4.9939026,-3.620687)"
       gradientUnits="userSpaceOnUse"
       id="linearGradient4071"
       xlink:href="#linearGradient6139-0"
       inkscape:collect="always" />
    <linearGradient
       id="linearGradient6139-0">
      <stop
         style="stop-color:#b4b9ba;stop-opacity:1"
         offset="0"
         id="stop6141-2" />
      <stop
         id="stop6151-0"
         offset="0.25"
         style="stop-color:#ffffff;stop-opacity:1;" />
      <stop
         id="stop6147-1"
         offset="0.5"
         style="stop-color:#98a0a2;stop-opacity:1" />
      <stop
         style="stop-color:#fbf9f9;stop-opacity:1;"
         offset="0.75"
         id="stop6149-4" />
      <stop
         style="stop-color:#b4b8ba;stop-opacity:1"
         offset="1"
         id="stop6143-4" />
    </linearGradient>
    <linearGradient
       gradientUnits="userSpaceOnUse"
       y2="88.171875"
       x2="94.5"
       y1="88.171875"
       x1="1.5"
       id="linearGradient4129"
       xlink:href="#linearGradient3832-0-6-1-1"
       inkscape:collect="always"
       gradientTransform="translate(0.1489535,0.415026)" />
    <linearGradient
       id="linearGradient3832-0-6-1-1">
      <stop
         id="stop3834-6-3-7-1"
         offset="0"
         style="stop-color:#000000;stop-opacity:1;" />
      <stop
         style="stop-color:#000000;stop-opacity:0.58823532;"
         offset="0.1"
         id="stop3872-2-4" />
      <stop
         id="stop3844-6-2-7-6"
         offset="0.89999998"
         style="stop-color:#000000;stop-opacity:0.58823532;" />
      <stop
         id="stop3836-5-0-2-9"
         offset="1"
         style="stop-color:#000000;stop-opacity:1;" />
    </linearGradient>
    <radialGradient
       r="43.199203"
       fy="44.892841"
       fx="13.948145"
       cy="44.892841"
       cx="13.948145"
       gradientTransform="matrix(0.97513378,0,0,0.04919072,34.047649,80.581722)"
       gradientUnits="userSpaceOnUse"
       id="radialGradient7462"
       xlink:href="#linearGradient3737"
       inkscape:collect="always" />
    <linearGradient
       id="linearGradient3737">
      <stop
         id="stop3739"
         style="stop-color:#ffffff;stop-opacity:1"
         offset="0" />
      <stop
         id="stop3741"
         style="stop-color:#ffffff;stop-opacity:0"
         offset="1" />
    </linearGradient>
    <radialGradient
       r="43.199203"
       fy="2085.6401"
       fx="-80.232796"
       cy="2085.6401"
       cx="-80.232796"
       gradientTransform="matrix(0.00737545,-0.0368769,0.04823545,0.00964718,-139.32345,-10.802405)"
       gradientUnits="userSpaceOnUse"
       id="radialGradient7464"
       xlink:href="#linearGradient3737"
       inkscape:collect="always" />
    <linearGradient
       y2="14.514202"
       x2="50.527882"
       y1="-28.64156"
       x1="2.7713892"
       gradientUnits="userSpaceOnUse"
       id="linearGradient4767"
       xlink:href="#linearGradient3737"
       inkscape:collect="always" />
    <clipPath
       clipPathUnits="userSpaceOnUse"
       id="clipPath4156-4-1">
      <path
         style="opacity:0.6;fill:#ffffff;fill-opacity:1;stroke:none"
         d="m 27.046336,-55.695463 -14.21366,13.321486 h 0.06127 l 15.653407,21.770763 10.231384,-10.546177 C 38.561832,-32.30156 27.468089,-54.819245 27.046336,-55.695463 Z M 9.6468554,-39.382809 -5.2407289,-25.32124 15.987863,-7.8059573 26.372412,-18.382966 Z m 31.4906096,12.951445 -9.741259,9.713584 8.944804,12.4580526 7.780753,-7.5550056 z m -49.8397109,4.378822 -13.7541661,12.9822847 26.2830181,13.84571 0.06127,-0.0617 -0.122531,-0.0617 L 13.598503,-5.4007374 -8.7022409,-22.052595 Z m 38.0154159,7.400825 -9.802525,9.7752596 11.579232,9.5594001 7.62759,-7.40083 -8.669108,-11.0087257 z m 20.187073,5.6739697 -7.382526,7.2158 6.187844,8.54179 5.820249,-6.13651996 z m -32.195166,6.32154 -9.5574606,9.49772 13.6622686,7.1849703 7.933918,-7.6783603 z m 23.311629,2.37443004 -7.10683,6.93826996 8.362778,6.9074403 5.360756,-5.6739699 -0.06127,-0.0925 -0.0919,0.12335 -6.463539,-8.20258036 z m -8.730374,8.54178036 -7.505057,7.3391599 10.353916,5.45811 c 1.397496,-1.32103 5.67514,-6.12292 5.850882,-6.32154 z"
         id="path4158-0-8"
         inkscape:connector-curvature="0" />
    </clipPath>
    <radialGradient
       inkscape:collect="always"
       xlink:href="#linearGradient4658"
       id="radialGradient4660"
       cx="48.283974"
       cy="45.523867"
       fx="48.283974"
       fy="45.523867"
       r="42.017856"
       gradientTransform="matrix(1,0,0,0.92155341,0,3.5711919)"
       gradientUnits="userSpaceOnUse" />
    <filter
       inkscape:collect="always"
       id="filter4235"
       x="-0.14367451"
       width="1.287349"
       y="-0.50430864"
       height="2.0086174">
      <feGaussianBlur
         inkscape:collect="always"
         stdDeviation="4.2354048"
         id="feGaussianBlur4237" />
    </filter>
    <radialGradient
       inkscape:collect="always"
       xlink:href="#linearGradient3572"
       id="radialGradient4941"
       gradientUnits="userSpaceOnUse"
       gradientTransform="matrix(1.1017974,0,0,0.2535719,-13.030069,105.90239)"
       cx="128"
       cy="156.06021"
       fx="128"
       fy="156.06021"
       r="49.96875" />
    <linearGradient
       id="linearGradient3572">
      <stop
         id="stop3574"
         offset="0"
         style="stop-color:#fffcca;stop-opacity:1" />
      <stop
         style="stop-color:#ffd81b;stop-opacity:1"
         offset="0.29983425"
         id="stop3576" />
      <stop
         id="stop3578"
         offset="0.74958563"
         style="stop-color:#f9d93b;stop-opacity:1" />
      <stop
         id="stop3580"
         offset="1"
         style="stop-color:#f49b23;stop-opacity:1" />
    </linearGradient>
    <filter
       inkscape:collect="always"
       id="filter4271">
      <feGaussianBlur
         inkscape:collect="always"
         stdDeviation="0.83821023"
         id="feGaussianBlur4273" />
    </filter>
    <filter
       inkscape:collect="always"
       id="filter4925"
       x="-0.050723389"
       width="1.1014467"
       y="-0.21143112"
       height="1.4228622">
      <feGaussianBlur
         inkscape:collect="always"
         stdDeviation="1.923003"
         id="feGaussianBlur4927" />
    </filter>
    <radialGradient
       inkscape:collect="always"
       xlink:href="#linearGradient4412"
       id="radialGradient4943"
       gradientUnits="userSpaceOnUse"
       gradientTransform="matrix(1.1034085,0,0,0.2185252,-13.236287,115.02877)"
       cx="128"
       cy="145.79698"
       fx="128"
       fy="145.79698"
       r="47.96875" />
    <linearGradient
       inkscape:collect="always"
       id="linearGradient4412">
      <stop
         style="stop-color:#590000;stop-opacity:1;"
         offset="0"
         id="stop4414" />
      <stop
         style="stop-color:#191104;stop-opacity:1"
         offset="1"
         id="stop4416" />
    </linearGradient>
    <radialGradient
       inkscape:collect="always"
       xlink:href="#linearGradient4445"
       id="radialGradient4945"
       gradientUnits="userSpaceOnUse"
       cx="84.75"
       cy="141.75"
       fx="83.194443"
       fy="138.63889"
       r="5.25" />
    <linearGradient
       inkscape:collect="always"
       id="linearGradient4445">
      <stop
         style="stop-color:#382509;stop-opacity:1;"
         offset="0"
         id="stop4447" />
      <stop
         style="stop-color:#382509;stop-opacity:0;"
         offset="1"
         id="stop4449" />
    </linearGradient>
    <filter
       inkscape:collect="always"
       id="filter3404"
       x="-0.21272726"
       width="1.4254545"
       y="-0.21272726"
       height="1.4254545">
      <feGaussianBlur
         inkscape:collect="always"
         stdDeviation="0.93068182"
         id="feGaussianBlur3406" />
    </filter>
    <radialGradient
       inkscape:collect="always"
       xlink:href="#linearGradient4445"
       id="radialGradient4947"
       gradientUnits="userSpaceOnUse"
       cx="84.75"
       cy="141.75"
       fx="83.194443"
       fy="138.63889"
       r="5.25" />
    <filter
       inkscape:collect="always"
       id="filter3773"
       x="-0.078804836"
       width="1.1576097"
       y="-0.14015447"
       height="1.2803088">
      <feGaussianBlur
         inkscape:collect="always"
         stdDeviation="1.0388816"
         id="feGaussianBlur3775" />
    </filter>
    <radialGradient
       inkscape:collect="always"
       xlink:href="#linearGradient4034"
       id="radialGradient4821"
       gradientUnits="userSpaceOnUse"
       gradientTransform="matrix(1.9774429,0,0,1.1118594,-107.58639,-330.31424)"
       cx="107"
       cy="381.53125"
       fx="107"
       fy="381.53125"
       r="8.0000095" />
    <linearGradient
       id="linearGradient4034"
       inkscape:collect="always">
      <stop
         id="stop4036"
         offset="0"
         style="stop-color:#170c03;stop-opacity:1" />
      <stop
         id="stop4038"
         offset="1"
         style="stop-color:#4e330c;stop-opacity:1" />
    </linearGradient>
    <radialGradient
       inkscape:collect="always"
       xlink:href="#linearGradient3737"
       id="radialGradient4823"
       gradientUnits="userSpaceOnUse"
       gradientTransform="matrix(1.6361647,0,0,0.8629962,-71.069626,-236.32516)"
       cx="107"
       cy="373.49469"
       fx="107"
       fy="373.49469"
       r="8.0000095" />
    <radialGradient
       inkscape:collect="always"
       xlink:href="#linearGradient4445"
       id="radialGradient4825"
       gradientUnits="userSpaceOnUse"
       gradientTransform="matrix(1.9024825,0,0,1.1757985,-95.572162,-14.860661)"
       cx="105.89919"
       cy="96.836876"
       fx="105.89919"
       fy="89.717529"
       r="8.8991871" />
    <radialGradient
       inkscape:collect="always"
       xlink:href="#linearGradient4034"
       id="radialGradient1121"
       gradientUnits="userSpaceOnUse"
       gradientTransform="matrix(1.9774429,0,0,1.1118594,-107.58639,-330.31424)"
       cx="107"
       cy="381.53125"
       fx="107"
       fy="381.53125"
       r="8.0000095" />
    <radialGradient
       inkscape:collect="always"
       xlink:href="#linearGradient3737"
       id="radialGradient1129"
       gradientUnits="userSpaceOnUse"
       gradientTransform="matrix(1.6361647,0,0,0.8629962,-71.069626,-236.32516)"
       cx="107"
       cy="373.49469"
       fx="107"
       fy="373.49469"
       r="8.0000095" />
    <radialGradient
       inkscape:collect="always"
       xlink:href="#linearGradient4445"
       id="radialGradient1137"
       gradientUnits="userSpaceOnUse"
       gradientTransform="matrix(1.9024825,0,0,1.1757985,-95.572162,-14.860661)"
       cx="105.89919"
       cy="96.836876"
       fx="105.89919"
       fy="89.717529"
       r="8.8991871" />
    <radialGradient
       inkscape:collect="always"
       xlink:href="#linearGradient4034"
       id="radialGradient1149"
       gradientUnits="userSpaceOnUse"
       gradientTransform="matrix(1.9774429,0,0,1.1118594,-107.58639,-330.31424)"
       cx="107"
       cy="381.53125"
       fx="107"
       fy="381.53125"
       r="8.0000095" />
    <radialGradient
       inkscape:collect="always"
       xlink:href="#linearGradient3737"
       id="radialGradient1157"
       gradientUnits="userSpaceOnUse"
       gradientTransform="matrix(1.6361647,0,0,0.8629962,-71.069626,-236.32516)"
       cx="107"
       cy="373.49469"
       fx="107"
       fy="373.49469"
       r="8.0000095" />
    <radialGradient
       inkscape:collect="always"
       xlink:href="#linearGradient4445"
       id="radialGradient1165"
       gradientUnits="userSpaceOnUse"
       gradientTransform="matrix(1.9024825,0,0,1.1757985,-95.572162,-14.860661)"
       cx="105.89919"
       cy="96.836876"
       fx="105.89919"
       fy="89.717529"
       r="8.8991871" />
    <radialGradient
       inkscape:collect="always"
       xlink:href="#linearGradient4889"
       id="radialGradient4895"
       cx="128.5"
       cy="163.93529"
       fx="128.5"
       fy="163.93529"
       r="25.2694"
       gradientTransform="matrix(6.6189897,0,0,1.1858231,-722.04018,-29.784516)"
       gradientUnits="userSpaceOnUse" />
    <linearGradient
       inkscape:collect="always"
       id="linearGradient4889">
      <stop
         style="stop-color:#2c0100;stop-opacity:1;"
         offset="0"
         id="stop4891" />
      <stop
         style="stop-color:#2c0100;stop-opacity:0;"
         offset="1"
         id="stop4893" />
    </linearGradient>
    <filter
       inkscape:collect="always"
       id="filter4885">
      <feGaussianBlur
         inkscape:collect="always"
         stdDeviation="1.4121934"
         id="feGaussianBlur4887" />
    </filter>
    <radialGradient
       inkscape:collect="always"
       xlink:href="#linearGradient3711"
       id="radialGradient4739"
       gradientUnits="userSpaceOnUse"
       gradientTransform="matrix(1.3446852,7.2452216e-8,-9.3095523e-8,1.2553676,-44.292016,-44.695528)"
       spreadMethod="reflect"
       cx="128.5"
       cy="161.42487"
       fx="128.49998"
       fy="172.69209"
       r="23.87755" />
    <linearGradient
       id="linearGradient3711"
       inkscape:collect="always">
      <stop
         id="stop3713"
         offset="0"
         style="stop-color:#ff0000;stop-opacity:1" />
      <stop
         id="stop3715"
         offset="1"
         style="stop-color:#730400;stop-opacity:1" />
    </linearGradient>
    <filter
       inkscape:collect="always"
       id="filter4531"
       x="-0.54835588"
       width="2.0967119"
       y="-0.088718511"
       height="1.1774369">
      <feGaussianBlur
         inkscape:collect="always"
         stdDeviation="1.3423295"
         id="feGaussianBlur4533" />
    </filter>
    <radialGradient
       inkscape:collect="always"
       xlink:href="#linearGradient4793"
       id="radialGradient4799"
       cx="123.5"
       cy="156.5"
       fx="123.5"
       fy="156.5"
       r="5.5"
       gradientUnits="userSpaceOnUse" />
    <linearGradient
       inkscape:collect="always"
       id="linearGradient4793">
      <stop
         style="stop-color:#ff0000;stop-opacity:1;"
         offset="0"
         id="stop4795" />
      <stop
         style="stop-color:#ff0000;stop-opacity:0;"
         offset="1"
         id="stop4797" />
    </linearGradient>
    <filter
       inkscape:collect="always"
       id="filter4673">
      <feGaussianBlur
         inkscape:collect="always"
         stdDeviation="1.4897935"
         id="feGaussianBlur4675" />
    </filter>
    <radialGradient
       inkscape:collect="always"
       xlink:href="#linearGradient3737"
       id="radialGradient4741"
       gradientUnits="userSpaceOnUse"
       gradientTransform="matrix(1.0207237,0.3054817,-0.2489183,1.0375983,44.012259,-41.598193)"
       cx="128.5"
       cy="187.51241"
       fx="128.5"
       fy="187.51241"
       r="19.59375" />
    <radialGradient
       inkscape:collect="always"
       xlink:href="#linearGradient3413"
       id="radialGradient5034"
       gradientUnits="userSpaceOnUse"
       gradientTransform="matrix(2.8484607,0,0,0.2598198,-236.60297,111.03827)"
       cx="128"
       cy="84.526772"
       fx="128"
       fy="84.526772"
       r="47.96875" />
    <linearGradient
       id="linearGradient3413"
       inkscape:collect="always">
      <stop
         id="stop3415"
         offset="0"
         style="stop-color:#000000;stop-opacity:1;" />
      <stop
         id="stop3417"
         offset="1"
         style="stop-color:#000000;stop-opacity:0;" />
    </linearGradient>
    <radialGradient
       inkscape:collect="always"
       xlink:href="#linearGradient4034"
       id="radialGradient6335"
       gradientUnits="userSpaceOnUse"
       gradientTransform="matrix(1.9774429,0,0,1.1118594,-107.58639,-330.31424)"
       cx="107"
       cy="381.53125"
       fx="107"
       fy="381.53125"
       r="8.0000095" />
    <radialGradient
       inkscape:collect="always"
       xlink:href="#linearGradient3737"
       id="radialGradient6337"
       gradientUnits="userSpaceOnUse"
       gradientTransform="matrix(1.6361647,0,0,0.8629962,-71.069626,-236.32516)"
       cx="107"
       cy="373.49469"
       fx="107"
       fy="373.49469"
       r="8.0000095" />
    <radialGradient
       inkscape:collect="always"
       xlink:href="#linearGradient4445"
       id="radialGradient6339"
       gradientUnits="userSpaceOnUse"
       gradientTransform="matrix(1.9024825,0,0,1.1757985,-95.572162,-14.860661)"
       cx="105.89919"
       cy="96.836876"
       fx="105.89919"
       fy="89.717529"
       r="8.8991871" />
  </defs>
  <sodipodi:namedview
     id="base"
     pagecolor="#ffffff"
     bordercolor="#666666"
     borderopacity="1.0"
     inkscape:pageopacity="0.0"
     inkscape:pageshadow="2"
     inkscape:zoom="3.1386207"
     inkscape:cx="24.090139"
     inkscape:cy="44.557005"
     inkscape:document-units="px"
     inkscape:current-layer="g2574"
     showgrid="false"
     inkscape:showpageshadow="false"
     units="px"
     inkscape:lockguides="false"
     inkscape:window-width="1280"
     inkscape:window-height="972"
     inkscape:window-x="0"
     inkscape:window-y="26"
     inkscape:window-maximized="1"
     inkscape:snap-global="false" />
  <metadata
     id="metadata1069">
    <rdf:RDF>
      <cc:Work
         rdf:about="">
        <dc:format>image/svg+xml</dc:format>
        <dc:type
           rdf:resource="http://purl.org/dc/dcmitype/StillImage" />
        <dc:title></dc:title>
        <dc:date>2017</dc:date>
        <dc:creator>
          <cc:Agent>
            <dc:title>Cristian Pozzessere &quot;ilnanny&quot;</dc:title>
          </cc:Agent>
        </dc:creator>
        <dc:subject>
          <rdf:Bag>
            <rdf:li>Global language</rdf:li>
          </rdf:Bag>
        </dc:subject>
        <dc:description>Playing with Inkscape on Gnu/Linux O. S.</dc:description>
        <dc:contributor>
          <cc:Agent>
            <dc:title>In the night, alone like a dog.</dc:title>
          </cc:Agent>
        </dc:contributor>
        <cc:license
           rdf:resource="http://creativecommons.org/licenses/by-sa/4.0/" />
      </cc:Work>
      <cc:License
         rdf:about="http://creativecommons.org/licenses/by-sa/4.0/">
        <cc:permits
           rdf:resource="http://creativecommons.org/ns#Reproduction" />
        <cc:permits
           rdf:resource="http://creativecommons.org/ns#Distribution" />
        <cc:requires
           rdf:resource="http://creativecommons.org/ns#Notice" />
        <cc:requires
           rdf:resource="http://creativecommons.org/ns#Attribution" />
        <cc:permits
           rdf:resource="http://creativecommons.org/ns#DerivativeWorks" />
        <cc:requires
           rdf:resource="http://creativecommons.org/ns#ShareAlike" />
      </cc:License>
    </rdf:RDF>
  </metadata>
  <g
     inkscape:label="Livello 1"
     inkscape:groupmode="layer"
     id="layer1"
     transform="translate(0,-1026.5197)">
    <g
       transform="translate(-0.14895645,1026.1047)"
       style="display:inline"
       id="g2574">
      <path
         inkscape:connector-curvature="0"
         id="path3288"
         d="M 89.29181,0.415026 H 7.0060911 c -3.798848,0 -6.8571352,3.058285 -6.8571352,6.8571399 V 89.557884 c 0,3.798857 3.0582872,6.857142 6.8571352,6.857142 H 89.29181 c 3.798857,0 6.857147,-3.058285 6.857147,-6.857142 V 7.2721659 c 0,-3.7988549 -3.05829,-6.8571399 -6.857147,-6.8571399 z"
         style="display:inline;opacity:0.15;fill:#000000;fill-opacity:1;fill-rule:nonzero;stroke:none" />
      <path
         style="display:inline;opacity:0.15;fill:#000000;fill-opacity:1;fill-rule:nonzero;stroke:none"
         d="M 88.648954,1.165026 H 7.6489471 c -3.739492,0 -6.749993,3.010499 -6.749993,6.7499969 V 88.915026 c 0,3.739501 3.010501,6.75 6.749993,6.75 H 88.648954 c 3.739503,0 6.750003,-3.010499 6.750003,-6.75 V 7.9150229 c 0,-3.7394979 -3.0105,-6.7499969 -6.750003,-6.7499969 z"
         id="path4085"
         inkscape:connector-curvature="0" />
      <path
         inkscape:connector-curvature="0"
         id="rect4251-1"
         d="M 88.006093,1.915026 H 8.2918111 c -3.680143,0 -6.6428566,2.962713 -6.6428566,6.6428549 V 88.272171 c 0,3.680142 2.9627136,6.642856 6.6428566,6.642856 H 88.006093 c 3.680143,0 6.642854,-2.962714 6.642854,-6.642856 V 8.5578809 c 0,-3.6801419 -2.962711,-6.6428549 -6.642854,-6.6428549 z"
         style="display:inline;fill:url(#linearGradient4071);fill-opacity:1;fill-rule:nonzero;stroke:none" />
      <path
         sodipodi:nodetypes="sscccsccscccsss"
         inkscape:connector-curvature="0"
         id="path3400-6"
         d="m 11.390247,6.8021682 c -2.8564964,0 -5.1241284,2.3146876 -5.1241284,5.2304538 v 21.67369 7.322634 40.372561 c 1.0972399,1.70385 2.9688485,2.844058 5.1241284,2.844058 h 4.099303 65.588849 4.099302 c 2.155281,0 4.026889,-1.140208 5.124129,-2.844058 V 41.028946 33.706312 12.032622 c 0,-2.9157662 -2.267632,-5.2304538 -5.124129,-5.2304538 z"
         style="display:inline;opacity:0.969;fill:url(#radialGradient4660);fill-opacity:1;fill-rule:nonzero;stroke:none;stroke-width:1.03540373" />
      <path
         style="color:#000000;font-style:normal;font-variant:normal;font-weight:normal;font-stretch:normal;font-size:medium;line-height:normal;font-family:Sans;-inkscape-font-specification:Sans;text-indent:0;text-align:start;text-decoration:none;text-decoration-line:none;letter-spacing:normal;word-spacing:normal;text-transform:none;writing-mode:lr-tb;direction:ltr;baseline-shift:baseline;text-anchor:start;display:inline;overflow:visible;visibility:visible;fill:#241f1f;fill-opacity:0.63265303;stroke:none;stroke-width:2.3755002;marker:none;enable-background:accumulate"
         d="m 9.9740341,5.1444869 c -3.116621,0 -5.667965,2.53951 -5.667965,5.6460041 v 69.277996 c 0,3.106495 2.551344,5.646004 5.667965,5.646004 H 86.765819 c 3.116621,0 5.667968,-2.539509 5.667968,-5.646004 V 10.790491 c 0,-3.1064931 -2.551347,-5.6460041 -5.667968,-5.6460041 z m 0,2.319439 H 86.765819 c 1.888099,0 3.352022,1.480095 3.352022,3.3265651 v 69.277996 c 0,1.846474 -1.463923,3.326564 -3.352022,3.326564 H 9.9740341 c -1.888099,0 -3.352022,-1.48009 -3.352022,-3.326564 V 10.790491 c 0,-1.8464701 1.463923,-3.3265651 3.352022,-3.3265651 z"
         id="path4989"
         inkscape:connector-curvature="0" />
      <path
         id="path4118"
         d="m 1.6489535,82.258776 v 6 c 0,3.680142 2.9761066,6.65625 6.6562496,6.65625 H 87.992703 c 3.680143,0 6.656254,-2.976108 6.656254,-6.65625 v -6 c 0,3.680142 -2.976111,6.65625 -6.656254,6.65625 H 8.3052031 c -3.680143,0 -6.6562496,-2.976108 -6.6562496,-6.65625 z"
         style="display:inline;opacity:0.65818182;fill:url(#linearGradient4129);fill-opacity:1;fill-rule:nonzero;stroke:none"
         inkscape:connector-curvature="0" />
      <rect
         ry="4.25"
         rx="0"
         y="80.665031"
         x="5.5239539"
         height="4.25"
         width="84.250008"
         id="rect4131"
         style="opacity:0.55;fill:url(#radialGradient7462);fill-opacity:1;stroke:none" />
      <rect
         transform="rotate(90)"
         style="opacity:0.669;fill:url(#radialGradient7464);fill-opacity:1;stroke:none"
         id="rect4141"
         width="76.75"
         height="4.25"
         x="5.9750223"
         y="-90.233963"
         rx="0"
         ry="4.25" />
      <g
         transform="matrix(0.66104508,0,0,0.66104508,-36.229136,-40.777803)"
         id="g1060">
        <g
           transform="translate(0,-0.5)"
           id="g4931">
          <path
             inkscape:connector-curvature="0"
             transform="matrix(1.1699055,0,0,1,-21.684192,0)"
             id="path4145"
             d="m 127.96875,124.5 c -13.68533,0 -26.20855,13.69592 -35.71875,12.21875 0.276178,2.73506 0.76862,5.37603 1.40625,7.9375 9.57115,-5.57594 21.83879,-8.9375 35.21875,-8.9375 12.38041,0 23.80949,2.87268 33.03125,7.71875 0.48492,-2.15739 0.86116,-4.38094 1.09375,-6.65625 C 153.57445,137.56526 141.34318,124.5 127.96875,124.5 Z"
             style="opacity:1;fill:#ffffff;fill-opacity:1;stroke:none;stroke-width:0;stroke-linecap:square;stroke-linejoin:miter;stroke-miterlimit:4;stroke-dasharray:none;stroke-opacity:1;filter:url(#filter4235)" />
          <path
             inkscape:connector-curvature="0"
             sodipodi:nodetypes="cscsc"
             id="path4239"
             d="M 80.03125,135.9375 C 89.24529,145.79224 107.2715,152.5 128,152.5 c 20.7285,0 38.75471,-6.70776 47.96875,-16.5625 C 164.69444,139.93504 147.40114,133.5 128,133.5 c -19.40114,0 -36.69444,6.43504 -47.96875,2.4375 z"
             style="opacity:1;fill:none;fill-opacity:1;stroke:url(#radialGradient4941);stroke-width:4;stroke-linecap:square;stroke-linejoin:round;stroke-miterlimit:4;stroke-dasharray:none;stroke-opacity:1;filter:url(#filter4271)" />
          <path
             inkscape:connector-curvature="0"
             sodipodi:nodetypes="cscsc"
             id="path4901"
             d="M 82.506124,137.47193 C 91.24478,148.79369 108.34096,156.5 128,156.5 c 19.65904,0 36.75522,-7.70631 45.49388,-19.02807 -10.69263,4.59263 -27.09371,-2.80035 -45.49388,-2.80035 -18.40017,0 -34.801247,7.39298 -45.493876,2.80035 z"
             style="opacity:1;fill:#ffffff;fill-opacity:1;stroke:none;stroke-width:0;stroke-linecap:square;stroke-linejoin:miter;stroke-miterlimit:4;stroke-dasharray:none;stroke-opacity:1;filter:url(#filter4925)" />
          <path
             inkscape:connector-curvature="0"
             style="opacity:1;fill:url(#radialGradient4943);fill-opacity:1;stroke:none;stroke-width:0;stroke-linecap:square;stroke-linejoin:miter;stroke-miterlimit:4;stroke-dasharray:none;stroke-opacity:1"
             d="M 80.03125,135.9375 C 89.24529,145.79224 107.2715,152.5 128,152.5 c 20.7285,0 38.75471,-6.70776 47.96875,-16.5625 C 164.69444,139.93504 147.40114,133.5 128,133.5 c -19.40114,0 -36.69444,6.43504 -47.96875,2.4375 z"
             id="path2519"
             sodipodi:nodetypes="cscsc" />
          <circle
             r="5.25"
             cy="141.75"
             cx="84.75"
             style="opacity:0.84722218;fill:url(#radialGradient4945);fill-opacity:1;stroke:none;stroke-width:0;stroke-linecap:square;stroke-linejoin:miter;stroke-miterlimit:4;stroke-dasharray:none;stroke-opacity:1;filter:url(#filter3404)"
             id="path3296"
             transform="matrix(1.2857143,0,0,1.2857143,-28.214286,-45)" />
          <circle
             r="5.25"
             cy="141.75"
             cx="84.75"
             transform="matrix(-1.2857143,0,0,1.2857143,282.18304,-45)"
             id="path3410"
             style="opacity:0.84722218;fill:url(#radialGradient4947);fill-opacity:1;stroke:none;stroke-width:0;stroke-linecap:square;stroke-linejoin:miter;stroke-miterlimit:4;stroke-dasharray:none;stroke-opacity:1;filter:url(#filter3404)" />
        </g>
        <g
           style="display:inline"
           transform="matrix(1.1578947,0,0,1.1578947,-21.36841,-22.336092)"
           id="g3783">
          <g
             id="g3744">
            <path
               inkscape:connector-curvature="0"
               transform="matrix(0.966592,0,0,0.8875759,3.4744385,10.337114)"
               style="opacity:1;fill:#ffffff;fill-opacity:1;stroke:none;stroke-width:2;stroke-linecap:round;stroke-linejoin:round;stroke-miterlimit:4;stroke-dasharray:none;stroke-opacity:1;filter:url(#filter3773)"
               d="m 104,87.5 c -8.732388,0 -15.819543,7.153297 -15.819543,15.98064 0,0.60422 -0.0029,1.22225 0.06179,1.80913 C 89.109867,98.898497 95.855961,93.93246 104,93.93246 c 8.14405,-1.6e-5 14.89013,4.966052 15.75774,11.35731 0.0647,-0.58688 0.0618,-1.20491 0.0618,-1.80913 C 119.81954,94.653314 112.73238,87.499984 104,87.5 Z"
               id="path3716" />
            <path
               inkscape:connector-curvature="0"
               id="path2927"
               d="m 104,85 c -8.732388,0 -15.819543,7.153297 -15.819543,15.98064 0,0.60422 -0.0029,1.22225 0.06179,1.80913 C 89.109867,96.398497 95.855961,91.43246 104,91.43246 c 8.14405,-1.6e-5 14.89013,4.966052 15.75774,11.35731 0.0647,-0.58688 0.0618,-1.20491 0.0618,-1.80913 C 119.81954,92.153314 112.73238,84.999984 104,85 Z"
               style="opacity:1;fill:url(#radialGradient6335);fill-opacity:1;stroke:none;stroke-width:2;stroke-linecap:round;stroke-linejoin:round;stroke-miterlimit:4;stroke-dasharray:none;stroke-opacity:1" />
            <path
               inkscape:connector-curvature="0"
               id="path3706"
               d="m 104,86 c -2.81807,10e-7 -5.30531,0.906191 -6.84375,2.25 0.611664,0.281597 1.273692,0.514039 1.96875,0.71875 1.38228,-0.492833 3.05965,-0.78125 4.875,-0.78125 1.87337,-10e-7 3.59373,0.321838 5,0.84375 0.696,-0.194127 1.35276,-0.41689 1.96875,-0.6875 C 109.44148,86.942261 106.88882,85.999997 104,86 Z"
               style="opacity:1;fill:url(#radialGradient6337);fill-opacity:1;stroke:none;stroke-width:2;stroke-linecap:round;stroke-linejoin:round;stroke-miterlimit:4;stroke-dasharray:none;stroke-opacity:1" />
            <ellipse
               ry="5.5"
               rx="8.8991871"
               cy="102.5"
               cx="105.89919"
               style="opacity:0.04954954;fill:url(#radialGradient6339);fill-opacity:1;stroke:none;stroke-width:2;stroke-linecap:round;stroke-linejoin:round;stroke-miterlimit:4;stroke-dasharray:none;stroke-opacity:1"
               id="path3777"
               transform="translate(-1.9999993,-3.9999994)" />
          </g>
          <use
             x="0"
             y="0"
             xlink:href="#g3744"
             id="use3781"
             transform="translate(50)"
             width="256"
             height="336" />
        </g>
        <g
           transform="matrix(1.0762059,0,0,1.0762059,-9.7924632,-15.07995)"
           id="g4703">
          <path
             inkscape:connector-curvature="0"
             sodipodi:nodetypes="ccszc"
             id="path4833"
             d="m 153.7694,161.40084 c 0,-17.28643 -17.13554,-13.96506 -25.2694,-12.34192 -8.41845,-1.67992 -25.2694,-4.94451 -25.2694,12.34192 0,17.28641 11.32069,31.31597 25.2694,31.31597 13.94871,0 25.2694,-14.02956 25.2694,-31.31597 z"
             style="opacity:0.60185182;fill:url(#radialGradient4895);fill-opacity:1;stroke:none;stroke-width:0;stroke-linecap:square;stroke-linejoin:miter;stroke-miterlimit:4;stroke-opacity:1;filter:url(#filter4885)" />
          <path
             inkscape:connector-curvature="0"
             style="fill:url(#radialGradient4739);fill-opacity:1;stroke:none;stroke-width:0;stroke-linecap:square;stroke-linejoin:miter;stroke-miterlimit:4;stroke-opacity:1"
             d="m 152.9877,154.8404 c 0,-20.13843 -16.60546,-16.26908 -24.4877,-14.37814 -8.15803,-1.95709 -24.4877,-5.76029 -24.4877,14.37814 0,20.1384 10.97049,36.48262 24.4877,36.48262 13.51721,0 24.4877,-16.34422 24.4877,-36.48262 z"
             id="path3416"
             sodipodi:nodetypes="ccszc" />
          <path
             inkscape:connector-curvature="0"
             id="path4291"
             d="M 125.0625,139.6875 128,176 l 2.9375,-36.09375 c -0.85381,0.18735 -1.7118,0.38841 -2.4375,0.5625 -1.02798,-0.24661 -2.19905,-0.52761 -3.4375,-0.78125 z"
             style="fill:#590000;fill-opacity:1;fill-rule:evenodd;stroke:none;stroke-width:1px;stroke-linecap:butt;stroke-linejoin:miter;stroke-opacity:1;filter:url(#filter4531)" />
          <circle
             r="5.5"
             cy="156.5"
             cx="123.5"
             transform="matrix(3.4084668,0,0,2.585207,-292.90556,-240.09309)"
             id="path4791"
             style="opacity:1;fill:url(#radialGradient4799);fill-opacity:1;stroke:none;stroke-width:4;stroke-linecap:square;stroke-linejoin:round;stroke-miterlimit:4;stroke-dasharray:none;stroke-opacity:1" />
          <g
             transform="matrix(0.9551814,0,0,0.9551814,5.7591951,7.3986547)"
             id="g4709">
            <g
               transform="matrix(1.0255532,0,0,0.9181916,-3.2835849,10.898368)"
               style="filter:url(#filter4673)"
               id="g4542">
              <path
                 d="m 117.5625,143.62695 c -2.57935,0.0757 -4.40379,0.66887 -5.83398,2.2461 -1.4302,1.57723 -2.81836,4.70087 -2.81836,10.9082 0,10.26983 2.55732,19.51344 6.38281,25.87695 3.82549,6.36352 8.54436,9.55664 13.20703,9.55664 4.66267,0 9.38154,-3.19312 13.20703,-9.55664 3.82549,-6.36351 6.38281,-15.60712 6.38281,-25.87695 0,-4.956 -0.931,-7.98792 -2.01367,-9.74609 -1.08267,-1.75817 -2.26488,-2.49583 -3.93945,-2.97657 -3.34915,-0.96148 -8.7099,0.15095 -12.52734,1.17383 a 4.2856496,4.2856496 0 0 1 -2.21876,0 c -2.95223,-0.79104 -6.71877,-1.69668 -9.82812,-1.60547 z"
                 id="path4281"
                 style="opacity:1;fill:url(#radialGradient4741);fill-opacity:1;stroke:none;stroke-width:0;stroke-linecap:square;stroke-linejoin:miter;stroke-miterlimit:4;stroke-opacity:1"
                 inkscape:original="M 117.4375 139.34375 C 110.83054 139.53756 104.625 143.07331 104.625 156.78125 C 104.625 178.71393 115.31959 196.5 128.5 196.5 C 141.68041 196.5 152.375 178.71393 152.375 156.78125 C 152.375 134.84854 136.18584 139.03433 128.5 141.09375 C 125.51696 140.29445 121.40168 139.22746 117.4375 139.34375 z "
                 inkscape:radius="-4.2852211"
                 sodipodi:type="inkscape:offset" />
            </g>
          </g>
        </g>
        <path
           inkscape:connector-curvature="0"
           style="fill:url(#radialGradient5034);fill-opacity:1;stroke:none;stroke-width:0;stroke-linecap:square;stroke-linejoin:miter;stroke-miterlimit:4;stroke-dasharray:none;stroke-opacity:1"
           d="M 80.03125,135.4375 C 89.24529,145.29224 107.2715,152 128,152 c 20.7285,0 38.75471,-6.70776 47.96875,-16.5625 C 164.69444,139.43504 147.40114,133 128,133 c -19.40114,0 -36.69444,6.43504 -47.96875,2.4375 z"
           id="path4929"
           sodipodi:nodetypes="cscsc" />
      </g>
      <rect
         clip-path="url(#clipPath4156-4-1)"
         ry="3.9569881"
         rx="3.9569874"
         y="-30"
         x="2"
         height="69.024437"
         width="75.965775"
         id="rect4146"
         style="opacity:0.5078125;fill:url(#linearGradient4767);fill-opacity:1;stroke:none"
         transform="matrix(1.0692451,0,0,1.0476829,4.4441802,38.894013)" />
    </g>
  </g>
</svg>
