<?xml version="1.0" encoding="UTF-8" standalone="no"?>
<!-- Created with Inkscape (http://www.inkscape.org/) -->

<svg
   xmlns:dc="http://purl.org/dc/elements/1.1/"
   xmlns:cc="http://creativecommons.org/ns#"
   xmlns:rdf="http://www.w3.org/1999/02/22-rdf-syntax-ns#"
   xmlns:svg="http://www.w3.org/2000/svg"
   xmlns="http://www.w3.org/2000/svg"
   xmlns:xlink="http://www.w3.org/1999/xlink"
   xmlns:sodipodi="http://sodipodi.sourceforge.net/DTD/sodipodi-0.dtd"
   xmlns:inkscape="http://www.inkscape.org/namespaces/inkscape"
   version="1.0"
   width="96"
   height="96"
   id="svg2"
   inkscape:version="0.91 r13725"
   sodipodi:docname="im-mxit.svg">
  <metadata
     id="metadata23">
    <rdf:RDF>
      <cc:Work
         rdf:about="">
        <dc:format>image/svg+xml</dc:format>
        <dc:type
           rdf:resource="http://purl.org/dc/dcmitype/StillImage" />
        <dc:title></dc:title>
      </cc:Work>
    </rdf:RDF>
  </metadata>
  <sodipodi:namedview
     pagecolor="#ffffff"
     bordercolor="#666666"
     borderopacity="1"
     objecttolerance="10"
     gridtolerance="10"
     guidetolerance="10"
     inkscape:pageopacity="0"
     inkscape:pageshadow="2"
     inkscape:window-width="1280"
     inkscape:window-height="959"
     id="namedview21"
     showgrid="false"
     inkscape:zoom="4.9166667"
     inkscape:cx="24"
     inkscape:cy="10.875631"
     inkscape:window-x="0"
     inkscape:window-y="0"
     inkscape:window-maximized="1"
     inkscape:current-layer="svg2" />
  <defs
     id="defs3">
    <linearGradient
       id="linearGradient3653">
      <stop
         id="stop3655"
         style="stop-color:#eeeeec;stop-opacity:1"
         offset="0" />
      <stop
         id="stop3657"
         style="stop-color:#ffffff;stop-opacity:1"
         offset="1" />
    </linearGradient>
    <linearGradient
       id="linearGradient3606">
      <stop
         id="stop3608"
         style="stop-color:#888a85;stop-opacity:1"
         offset="0" />
      <stop
         id="stop3610"
         style="stop-color:#555753;stop-opacity:1"
         offset="1" />
    </linearGradient>
    <linearGradient
       id="linearGradient5702">
      <stop
         id="stop5704"
         style="stop-color:#000000;stop-opacity:1"
         offset="0" />
      <stop
         id="stop5706"
         style="stop-color:#000000;stop-opacity:0"
         offset="1" />
    </linearGradient>
    <radialGradient
       cx="15.625"
       cy="29.767857"
       r="13.839286"
       fx="15.625"
       fy="29.767857"
       id="radialGradient5708"
       xlink:href="#linearGradient5702"
       gradientUnits="userSpaceOnUse"
       gradientTransform="matrix(1,0,0,0.07096774,0,27.655299)" />
    <radialGradient
       cx="9.5995932"
       cy="8.0008602"
       r="20.000126"
       fx="9.5995932"
       fy="8.0008602"
       id="radialGradient3614"
       xlink:href="#linearGradient3606"
       gradientUnits="userSpaceOnUse"
       gradientTransform="matrix(1.6999893,0,0,1.0000541,-7.3192065,-0.00129309)" />
    <linearGradient
       x1="20"
       y1="40"
       x2="20"
       y2="2"
       id="linearGradient3659"
       xlink:href="#linearGradient3653"
       gradientUnits="userSpaceOnUse"
       gradientTransform="translate(43.322034,-7.3220339)" />
    <linearGradient
       id="linearGradient5602-7-3-9-8">
      <stop
         offset="0"
         style="stop-color:#579457;stop-opacity:1;"
         id="stop5604-6-70-0-5" />
      <stop
         offset="1"
         style="stop-color:#558455;stop-opacity:1;"
         id="stop5606-0-9-2-0" />
    </linearGradient>
    <linearGradient
       id="linearGradient13990">
      <stop
         style="stop-color:#003366;stop-opacity:1;"
         offset="0"
         id="stop13992" />
      <stop
         style="stop-color:#003366;stop-opacity:0;"
         offset="1"
         id="stop13994" />
    </linearGradient>
    <linearGradient
       inkscape:collect="always"
       xlink:href="#linearGradient6139-0"
       id="linearGradient4098"
       gradientUnits="userSpaceOnUse"
       gradientTransform="matrix(1.1353753,0,0,1.1336634,-40.037124,-46.787637)"
       x1="6"
       y1="47.000011"
       x2="90"
       y2="47.000011" />
    <linearGradient
       id="linearGradient6139-0">
      <stop
         id="stop6141-2"
         offset="0"
         style="stop-color:#b7b7b7;stop-opacity:1;" />
      <stop
         style="stop-color:#ffffff;stop-opacity:1;"
         offset="0.25"
         id="stop6151-0" />
      <stop
         style="stop-color:#9d9d9d;stop-opacity:1;"
         offset="0.5"
         id="stop6147-1" />
      <stop
         id="stop6149-4"
         offset="0.75"
         style="stop-color:#fafafa;stop-opacity:1;" />
      <stop
         id="stop6143-4"
         offset="1"
         style="stop-color:#b7b7b7;stop-opacity:1;" />
    </linearGradient>
    <radialGradient
       inkscape:collect="always"
       xlink:href="#linearGradient4091-0-3-0-7"
       id="radialGradient4102"
       gradientUnits="userSpaceOnUse"
       gradientTransform="matrix(-1.0721726,0,0,-0.87502024,199.46429,-19.125546)"
       cx="48"
       cy="-27"
       fx="48"
       fy="-27"
       r="42" />
    <linearGradient
       id="linearGradient4091-0-3-0-7">
      <stop
         style="stop-color:#ffffff;stop-opacity:1;"
         offset="0"
         id="stop4093-3-6-4-2" />
      <stop
         id="stop4099-6-1-8-3"
         offset="0.80000001"
         style="stop-color:#ffffff;stop-opacity:1;" />
      <stop
         style="stop-color:#ffffff;stop-opacity:0;"
         offset="1"
         id="stop4095-1-0-7-9" />
    </linearGradient>
    <linearGradient
       inkscape:collect="always"
       xlink:href="#linearGradient3832-0-6-1-1"
       id="linearGradient4104"
       gradientUnits="userSpaceOnUse"
       gradientTransform="matrix(1,0,0,0.73089097,200,23.096697)"
       x1="-94"
       y1="82.984398"
       x2="-10.187523"
       y2="82.984398" />
    <linearGradient
       id="linearGradient3832-0-6-1-1">
      <stop
         style="stop-color:#000000;stop-opacity:1;"
         offset="0"
         id="stop3834-6-3-7-1" />
      <stop
         id="stop3872-2-4"
         offset="0.1"
         style="stop-color:#000000;stop-opacity:0.58823532;" />
      <stop
         style="stop-color:#000000;stop-opacity:0.58823532;"
         offset="0.89999998"
         id="stop3844-6-2-7-6" />
      <stop
         style="stop-color:#000000;stop-opacity:1;"
         offset="1"
         id="stop3836-5-0-2-9" />
    </linearGradient>
    <filter
       id="filter3174-4"
       style="color-interpolation-filters:sRGB">
      <feGaussianBlur
         stdDeviation="1.71"
         id="feGaussianBlur3176-3" />
    </filter>
    <linearGradient
       gradientUnits="userSpaceOnUse"
       xlink:href="#linearGradient3873-7"
       id="linearGradient3879-8-8"
       y2="48"
       x2="80"
       y1="48"
       x1="16" />
    <linearGradient
       id="linearGradient3873-7">
      <stop
         offset="0"
         style="stop-color:#f0f0f0;stop-opacity:1"
         id="stop3875-0" />
      <stop
         offset="1"
         style="stop-color:#b4b4b4;stop-opacity:1"
         id="stop3877-20-4" />
    </linearGradient>
    <radialGradient
       gradientUnits="userSpaceOnUse"
       xlink:href="#linearGradient3674-5-0"
       id="radialGradient3682-9"
       fy="48"
       fx="48"
       r="32"
       cy="48"
       cx="48" />
    <linearGradient
       id="linearGradient3674-5-0">
      <stop
         offset="0"
         style="stop-color:#ffffff;stop-opacity:1"
         id="stop3676-0-2" />
      <stop
         offset="0.30000001"
         style="stop-color:#ffffff;stop-opacity:1"
         id="stop3684-9" />
      <stop
         offset="0.89999998"
         style="stop-color:#f0f0f0;stop-opacity:1"
         id="stop3925-8-3" />
      <stop
         offset="1"
         style="stop-color:#d2d2d2;stop-opacity:1"
         id="stop3678-8-8" />
    </linearGradient>
    <filter
       id="filter3944-7"
       style="color-interpolation-filters:sRGB">
      <feGaussianBlur
         stdDeviation="0.4359375"
         id="feGaussianBlur3946-6" />
    </filter>
    <radialGradient
       gradientUnits="userSpaceOnUse"
       xlink:href="#linearGradient3893-7"
       id="radialGradient3901-4"
       fy="46.058418"
       fx="48.000896"
       r="3"
       cy="46.058418"
       cx="48.000896" />
    <linearGradient
       id="linearGradient3893-7">
      <stop
         offset="0"
         style="stop-color:#ffffff;stop-opacity:1"
         id="stop3895-3" />
      <stop
         offset="1"
         style="stop-color:#a2a2a2;stop-opacity:1"
         id="stop3897-5" />
    </linearGradient>
    <linearGradient
       gradientTransform="matrix(0,1,-1,0,96,0)"
       gradientUnits="userSpaceOnUse"
       xlink:href="#linearGradient3899-9"
       id="linearGradient3905-4"
       y2="48"
       x2="83"
       y1="48"
       x1="13" />
    <linearGradient
       id="linearGradient3899-9">
      <stop
         offset="0"
         style="stop-color:#ffffff;stop-opacity:1"
         id="stop3901-8" />
      <stop
         offset="0.5"
         style="stop-color:#ffffff;stop-opacity:0.41221374"
         id="stop3981-6" />
      <stop
         offset="1"
         style="stop-color:#868686;stop-opacity:1"
         id="stop3903-5" />
    </linearGradient>
    <linearGradient
       gradientTransform="matrix(0,1,-1,0,96,0)"
       gradientUnits="userSpaceOnUse"
       xlink:href="#linearGradient5702"
       id="linearGradient3923-1-6"
       y2="48"
       x2="120"
       y1="48"
       x1="17" />
    <linearGradient
       gradientUnits="userSpaceOnUse"
       xlink:href="#linearGradient3983-2"
       id="linearGradient3973-9"
       y2="60"
       x2="53"
       y1="60"
       x1="43" />
    <linearGradient
       id="linearGradient3983-2">
      <stop
         offset="0"
         style="stop-color:#ffffff;stop-opacity:1"
         id="stop3985-6" />
      <stop
         offset="1"
         style="stop-color:#868686;stop-opacity:1"
         id="stop3989-2" />
    </linearGradient>
    <radialGradient
       gradientUnits="userSpaceOnUse"
       xlink:href="#linearGradient3674-5-0"
       id="radialGradient3979-6"
       fy="60"
       fx="48"
       r="5"
       cy="60"
       cx="48" />
    <clipPath
       id="clipPath2973-9">
      <rect
         style="fill:url(#linearGradient2977);fill-opacity:1;fill-rule:nonzero;stroke:none"
         id="rect2975-6"
         y="6"
         x="6"
         ry="6"
         rx="6"
         height="84"
         width="84" />
    </clipPath>
    <linearGradient
       inkscape:collect="always"
       xlink:href="#linearGradient12946"
       id="linearGradient12954"
       x1="9.0784369"
       y1="3.0126896"
       x2="56.280174"
       y2="-34.779079"
       gradientUnits="userSpaceOnUse" />
    <linearGradient
       inkscape:collect="always"
       id="linearGradient12946">
      <stop
         style="stop-color:#ffffff;stop-opacity:1;"
         offset="0"
         id="stop12948" />
      <stop
         style="stop-color:#ffffff;stop-opacity:0;"
         offset="1"
         id="stop12950" />
    </linearGradient>
    <linearGradient
       gradientTransform="scale(1.0058652,0.994169)"
       gradientUnits="userSpaceOnUse"
       id="ButtonShadow-5"
       y2="7.0165396"
       x2="45.447727"
       y1="92.539597"
       x1="45.447727">
      <stop
         offset="0"
         style="stop-color:#000000;stop-opacity:1"
         id="stop3750-9" />
      <stop
         offset="1"
         style="stop-color:#000000;stop-opacity:0.58823532"
         id="stop3752-0" />
    </linearGradient>
    <filter
       id="filter3174-5"
       style="color-interpolation-filters:sRGB">
      <feGaussianBlur
         stdDeviation="1.71"
         id="feGaussianBlur3176-1" />
    </filter>
    <linearGradient
       gradientTransform="matrix(0.31400775,0,0,0.31400775,8.6076835,9.3242921)"
       gradientUnits="userSpaceOnUse"
       xlink:href="#linearGradient3421"
       id="linearGradient3855"
       y2="78.463249"
       x2="117.66125"
       y1="151.16792"
       x1="136.3282" />
    <linearGradient
       id="linearGradient3421">
      <stop
         offset="0"
         style="stop-color:#fe7600;stop-opacity:1"
         id="stop3423" />
      <stop
         offset="1"
         style="stop-color:#f2b26d;stop-opacity:1"
         id="stop3425" />
    </linearGradient>
    <linearGradient
       gradientUnits="userSpaceOnUse"
       xlink:href="#linearGradient3865"
       id="linearGradient3871"
       y2="30.801933"
       x2="86.437103"
       y1="30.801933"
       x1="48.742641" />
    <linearGradient
       id="linearGradient3865">
      <stop
         offset="0"
         style="stop-color:#bddb4e;stop-opacity:1"
         id="stop3867" />
      <stop
         offset="1"
         style="stop-color:#52b124;stop-opacity:1"
         id="stop3869" />
    </linearGradient>
    <linearGradient
       gradientTransform="matrix(0.31400775,0,0,0.31400775,-69.663245,-106.20134)"
       gradientUnits="userSpaceOnUse"
       xlink:href="#linearGradient12946"
       id="linearGradient3851"
       y2="471.18063"
       x2="315.21729"
       y1="468.58658"
       x1="312.62323" />
    <linearGradient
       gradientTransform="matrix(0.31400775,0,0,0.31400775,-68.839441,-118.95132)"
       gradientUnits="userSpaceOnUse"
       xlink:href="#linearGradient12946"
       id="linearGradient3847"
       y2="471.18063"
       x2="315.21729"
       y1="468.58658"
       x1="312.62323" />
    <linearGradient
       gradientUnits="userSpaceOnUse"
       xlink:href="#linearGradient3865"
       id="linearGradient3879"
       y2="-98.684196"
       x2="18.554882"
       y1="-98.684196"
       x1="-19.139587" />
    <linearGradient
       x1="20"
       y1="40"
       x2="20"
       y2="2"
       id="linearGradient3659-6"
       xlink:href="#linearGradient3653"
       gradientUnits="userSpaceOnUse"
       gradientTransform="matrix(2.2764485,0,0,2.286798,-39.548144,-58.025817)" />
  </defs>
  <g
     id="g4332">
    <g
       transform="translate(-0.62500009,0.082283)"
       inkscape:export-ydpi="90"
       inkscape:export-xdpi="90"
       inkscape:export-filename="folder.png"
       id="g3043" />
    <g
       style="fill:#ffffff"
       inkscape:label="#g3701"
       transform="matrix(1.0385892,0,0,1.0385892,1214.7222,1878.8121)"
       id="scalable" />
    <g
       id="layer1-3"
       inkscape:label="Layer 1"
       transform="translate(-4.4706248e-7,32)">
      <g
         transform="matrix(0.97513378,0,0,0.97660611,33.898696,9.6573789)"
         id="g12958">
        <path
           inkscape:connector-curvature="0"
           id="path3315"
           d="m 55.462537,-41.268579 -82.003288,0 c -3.785818,0 -6.833607,3.043193 -6.833607,6.823301 l 0,81.879661 c 0,3.780111 3.047789,6.823304 6.833607,6.823304 l 82.003288,0 c 3.785818,0 6.833606,-3.043193 6.833606,-6.823304 l 0,-81.879661 c 0,-3.780108 -3.047788,-6.823301 -6.833606,-6.823301 z"
           style="display:inline;opacity:0.15;fill:#000000;fill-opacity:1;fill-rule:nonzero;stroke:none"
           transform="matrix(1.0290322,0,0,1.0290323,-0.41983185,-0.18855188)" />
        <path
           style="display:inline;opacity:0.15;fill:#000000;fill-opacity:1;fill-rule:nonzero;stroke:none"
           d="m 54.821891,-40.52228 -80.72199,0 c -3.72667,0 -6.726834,2.995643 -6.726834,6.716685 l 0,80.600295 c 0,3.721045 3.000164,6.716688 6.726834,6.716688 l 80.72199,0 c 3.72666,0 6.726826,-2.995643 6.726826,-6.716688 l 0,-80.600295 c 0,-3.721042 -3.000166,-6.716685 -6.726826,-6.716685 z"
           id="path4112"
           inkscape:connector-curvature="0"
           transform="matrix(1.0290322,0,0,1.0290323,-0.41983185,-0.18855188)" />
        <path
           inkscape:connector-curvature="0"
           id="rect4251-1"
           d="m 55.334401,-41.11932 -81.747021,0 c -3.773988,0 -6.812252,3.033683 -6.812252,6.80198 l 0,81.623788 c 0,3.768297 3.038264,6.80198 6.812252,6.80198 l 81.747021,0 c 3.773988,0 6.812252,-3.033683 6.812252,-6.80198 l 0,-81.623788 c 0,-3.768297 -3.038264,-6.80198 -6.812252,-6.80198 z"
           style="display:inline;fill:url(#linearGradient4098);fill-opacity:1;fill-rule:nonzero;stroke:none" />
        <g
           transform="matrix(1.1353753,0,0,1.1336634,-153.57465,-46.220805)"
           id="g3272">
          <path
             style="display:inline;opacity:0.87972508;fill:#4a5358;fill-opacity:1;fill-rule:nonzero;stroke:none"
             d="m 114.71702,8.436941 c -2.59845,0 -4.66122,2.124921 -4.66122,4.801641 l 0,19.896804 0,6.722299 0,37.062672 c 0.99812,1.564163 2.70064,2.610893 4.66122,2.610893 l 3.72897,0 59.66361,0 3.72898,0 c 1.96058,0 3.66311,-1.04673 4.66122,-2.610893 l 0,-37.062672 0,-6.722299 0,-19.896804 c 0,-2.67672 -2.06277,-4.801641 -4.66122,-4.801641 z"
             id="path3400-6"
             inkscape:connector-curvature="0"
             sodipodi:nodetypes="sscccsccscccsss" />
          <path
             style="display:inline;opacity:0.45;fill:url(#radialGradient4102);fill-opacity:1;fill-rule:nonzero;stroke:none"
             d="m 112,4.5 c -3.324,0 -6,2.6759996 -6,6 l 0,15 1,0 0,-15 c 0,-2.7872972 2.2127,-5 5,-5 l 72,0 c 2.7873,0 5,2.2127028 5,5 l 0,15 1,0 0,-15 c 0,-3.3240004 -2.676,-6 -6,-6 l -72,0 z"
             id="path4236-5"
             inkscape:connector-curvature="0" />
          <path
             inkscape:connector-curvature="0"
             id="path4242-5"
             d="m 106,78.998418 0,0.73089 0,0.730891 0,0.730892 0,1.461782 0,1.461781 C 106,86.544135 108.676,88.5 112,88.5 l 72,0 c 3.324,0 6,-1.955865 6,-4.385346 l 0,-1.461781 0,-1.461782 0,-0.730892 0,-0.730891 0,-0.73089 c 0,2.429481 -2.676,4.385345 -6,4.385345 l -72,0 c -3.324,0 -6,-1.955864 -6,-4.385345 z"
             style="opacity:0.46964859;fill:url(#linearGradient4104);fill-opacity:1;fill-rule:nonzero;stroke:none" />
          <g
             id="g4279"
             transform="matrix(0.85217462,0,0,0.85217477,43.137701,-57.853554)">
            <g
               style="display:none"
               id="layer2-1">
              <rect
                 style="opacity:0.9;fill:url(#ButtonShadow-5);fill-opacity:1;fill-rule:nonzero;stroke:none;filter:url(#filter3174-5)"
                 id="rect3745-3"
                 y="7"
                 x="5"
                 ry="6"
                 rx="6"
                 height="85"
                 width="86" />
            </g>
          </g>
        </g>
        <path
           d="m 1.4279315,38.019698 13.6586915,0 0,-41.1623633 -13.6586915,0 0,41.1623633 z m -27.3173845,0 13.658693,0 0,-41.1623633 -13.658693,0 0,41.1623633 z M 28.745314,19.725314 c 0,9.147192 6.829343,18.294384 15.935137,18.294384 l 11.382244,0 0,-13.720788 c -13.658692,0 -13.658692,-2.286798 -13.658692,-9.147192 l 0,-21.7245794 c 0,-14.8641876 -11.382241,-24.0113796 -20.488034,-24.0113796 l -47.805422,0 0,13.720786 43.252524,0 c 6.829345,0 11.382243,4.573597 11.382243,11.4339923 l 0,25.1547767 z"
           id="path3616"
           style="fill:url(#linearGradient3659-6);fill-opacity:1;stroke:#4594cf;stroke-width:1.01834965;stroke-opacity:1"
           inkscape:connector-curvature="0" />
        <path
           style="color:#000000;font-style:normal;font-variant:normal;font-weight:normal;font-stretch:normal;font-size:medium;line-height:normal;font-family:Sans;-inkscape-font-specification:Sans;text-indent:0;text-align:start;text-decoration:none;text-decoration-line:none;letter-spacing:normal;word-spacing:normal;text-transform:none;direction:ltr;block-progression:tb;writing-mode:lr-tb;baseline-shift:baseline;text-anchor:start;display:inline;overflow:visible;visibility:visible;fill:#000000;fill-opacity:0.87148593;stroke:none;stroke-width:2.3755002;marker:none;enable-background:accumulate"
           d="m -24.6875,-37.8125 c -3.196096,0 -5.8125,2.600343 -5.8125,5.78125 l 0,70.9375 c 0,3.180909 2.616404,5.78125 5.8125,5.78125 l 78.75,0 c 3.196096,0 5.8125,-2.600341 5.8125,-5.78125 l 0,-70.9375 c 0,-3.180907 -2.616404,-5.78125 -5.8125,-5.78125 l -78.75,0 z m 0,2.375 78.75,0 c 1.936246,0 3.4375,1.515549 3.4375,3.40625 l 0,70.9375 c 0,1.890705 -1.501254,3.40625 -3.4375,3.40625 l -78.75,0 c -1.936246,0 -3.4375,-1.515545 -3.4375,-3.40625 l 0,-70.9375 c 0,-1.890701 1.501254,-3.40625 3.4375,-3.40625 z"
           id="path4989"
           inkscape:connector-curvature="0" />
        <path
           sodipodi:nodetypes="cscccsscc"
           inkscape:connector-curvature="0"
           id="path12926"
           d="m 48.331182,42.928895 4.233791,0 c 2.225994,0 4.159005,-1.175383 5.292234,-2.931794 l 0,-41.6179931 0,-7.5485261 0,-22.3422938 c 0,-3.005712 -2.342018,-5.391804 -5.292234,-5.391804 l -70.296123,0 C 7.6324902,10.08658 30.391443,27.576446 48.331182,42.928895 Z"
           style="display:inline;opacity:0.39930558;fill:url(#linearGradient12954);fill-opacity:1;fill-rule:nonzero;stroke:none" />
      </g>
    </g>
  </g>
</svg>
