<?xml version="1.0" encoding="UTF-8" standalone="no"?>
<!-- Created with Inkscape (http://www.inkscape.org/) -->

<svg
   xmlns:dc="http://purl.org/dc/elements/1.1/"
   xmlns:cc="http://creativecommons.org/ns#"
   xmlns:rdf="http://www.w3.org/1999/02/22-rdf-syntax-ns#"
   xmlns:svg="http://www.w3.org/2000/svg"
   xmlns="http://www.w3.org/2000/svg"
   xmlns:xlink="http://www.w3.org/1999/xlink"
   xmlns:sodipodi="http://sodipodi.sourceforge.net/DTD/sodipodi-0.dtd"
   xmlns:inkscape="http://www.inkscape.org/namespaces/inkscape"
   width="96"
   height="96"
   id="svg5023"
   version="1.1"
   inkscape:version="0.48.5 r10040"
   sodipodi:docname="video-display.svg">
  <defs
     id="defs5025">
    <linearGradient
       id="linearGradient5700">
      <stop
         id="stop5702"
         offset="0"
         style="stop-color:#ffffff;stop-opacity:0;" />
      <stop
         style="stop-color:#ffffff;stop-opacity:0.85135138;"
         offset="0.03681535"
         id="stop5704" />
      <stop
         id="stop5706"
         offset="0.06506088"
         style="stop-color:#ffffff;stop-opacity:0;" />
      <stop
         style="stop-color:#ffffff;stop-opacity:0;"
         offset="0.94493848"
         id="stop5712" />
      <stop
         style="stop-color:#ffffff;stop-opacity:0.85135138;"
         offset="0.96582276"
         id="stop5710" />
      <stop
         id="stop5708"
         offset="1"
         style="stop-color:#ffffff;stop-opacity:0;" />
    </linearGradient>
    <linearGradient
       inkscape:collect="always"
       xlink:href="#linearGradient3888-8-4-8-4-6-9-0-8-7-9"
       id="linearGradient4987"
       gradientUnits="userSpaceOnUse"
       gradientTransform="matrix(1.1856936,0,0,1.079696,-42.219833,-46.046246)"
       x1="62"
       y1="8"
       x2="62"
       y2="68" />
    <linearGradient
       inkscape:collect="always"
       id="linearGradient3888-8-4-8-4-6-9-0-8-7-9">
      <stop
         style="stop-color:#ffffff;stop-opacity:1;"
         offset="0"
         id="stop3890-4-7-9-5-7-0-8-8-8-6" />
      <stop
         style="stop-color:#ffffff;stop-opacity:0;"
         offset="1"
         id="stop3892-5-8-2-8-3-3-3-06-4-4" />
    </linearGradient>
    <radialGradient
       inkscape:collect="always"
       xlink:href="#linearGradient3921"
       id="radialGradient4985"
       gradientUnits="userSpaceOnUse"
       gradientTransform="matrix(1.1856936,0,0,0.99445679,-42.219833,-42.380962)"
       cx="48"
       cy="43"
       fx="48"
       fy="43"
       r="38" />
    <linearGradient
       id="linearGradient3921">
      <stop
         style="stop-color:#2cd5ff;stop-opacity:1;"
         offset="0"
         id="stop3923" />
      <stop
         style="stop-color:#004c75;stop-opacity:1;"
         offset="1"
         id="stop3925" />
    </linearGradient>
    <radialGradient
       inkscape:collect="always"
       xlink:href="#linearGradient4948"
       id="radialGradient4954"
       cx="48.943821"
       cy="88.44944"
       fx="48.943821"
       fy="88.44944"
       r="42.471912"
       gradientTransform="matrix(1.0666666,0,0,0.03809524,-36.704294,40.651629)"
       gradientUnits="userSpaceOnUse" />
    <linearGradient
       inkscape:collect="always"
       id="linearGradient4948">
      <stop
         style="stop-color:#ffffff;stop-opacity:1;"
         offset="0"
         id="stop4950" />
      <stop
         style="stop-color:#ffffff;stop-opacity:0;"
         offset="1"
         id="stop4952" />
    </linearGradient>
    <radialGradient
       inkscape:collect="always"
       xlink:href="#linearGradient3888-8-4-8-6"
       id="radialGradient3114"
       gradientUnits="userSpaceOnUse"
       gradientTransform="matrix(0,1.6209438,-2.0382846,0,160.66427,-243.03657)"
       cx="158"
       cy="6.2131939"
       fx="158"
       fy="6.2131939"
       r="41" />
    <linearGradient
       inkscape:collect="always"
       id="linearGradient3888-8-4-8-6">
      <stop
         style="stop-color:#ffffff;stop-opacity:1;"
         offset="0"
         id="stop3890-4-7-9-7" />
      <stop
         style="stop-color:#ffffff;stop-opacity:0;"
         offset="1"
         id="stop3892-5-8-2-7" />
    </linearGradient>
    <radialGradient
       inkscape:collect="always"
       xlink:href="#linearGradient4091-0-3-0-7"
       id="radialGradient3118"
       gradientUnits="userSpaceOnUse"
       gradientTransform="matrix(-1.0721726,0,0,-0.87502024,199.46429,-19.125546)"
       cx="48"
       cy="-27"
       fx="48"
       fy="-27"
       r="42" />
    <linearGradient
       id="linearGradient4091-0-3-0-7">
      <stop
         style="stop-color:#ffffff;stop-opacity:1;"
         offset="0"
         id="stop4093-3-6-4-2" />
      <stop
         id="stop4099-6-1-8-3"
         offset="0.80000001"
         style="stop-color:#ffffff;stop-opacity:1;" />
      <stop
         style="stop-color:#ffffff;stop-opacity:0;"
         offset="1"
         id="stop4095-1-0-7-9" />
    </linearGradient>
    <linearGradient
       inkscape:collect="always"
       xlink:href="#linearGradient3832-0-6-1-1"
       id="linearGradient3120"
       gradientUnits="userSpaceOnUse"
       gradientTransform="matrix(1,0,0,0.88905855,200,8.9431737)"
       x1="-94"
       y1="82.984398"
       x2="-10.187523"
       y2="82.984398" />
    <linearGradient
       id="linearGradient3832-0-6-1-1">
      <stop
         style="stop-color:#000000;stop-opacity:1;"
         offset="0"
         id="stop3834-6-3-7-1" />
      <stop
         id="stop3872-2-4"
         offset="0.1"
         style="stop-color:#000000;stop-opacity:0.58823532;" />
      <stop
         style="stop-color:#000000;stop-opacity:0.58823532;"
         offset="0.89999998"
         id="stop3844-6-2-7-6" />
      <stop
         style="stop-color:#000000;stop-opacity:1;"
         offset="1"
         id="stop3836-5-0-2-9" />
    </linearGradient>
    <linearGradient
       inkscape:collect="always"
       xlink:href="#linearGradient6139-0"
       id="linearGradient3923"
       x1="6"
       y1="47.000011"
       x2="90"
       y2="47.000011"
       gradientUnits="userSpaceOnUse" />
    <linearGradient
       id="linearGradient6139-0">
      <stop
         id="stop6141-2"
         offset="0"
         style="stop-color:#b7b7b7;stop-opacity:1;" />
      <stop
         style="stop-color:#ffffff;stop-opacity:1;"
         offset="0.25"
         id="stop6151-0" />
      <stop
         style="stop-color:#9d9d9d;stop-opacity:1;"
         offset="0.5"
         id="stop6147-1" />
      <stop
         id="stop6149-4"
         offset="0.75"
         style="stop-color:#fafafa;stop-opacity:1;" />
      <stop
         id="stop6143-4"
         offset="1"
         style="stop-color:#b7b7b7;stop-opacity:1;" />
    </linearGradient>
    <linearGradient
       gradientTransform="matrix(1.1353753,0,0,1.1336634,-40.037124,-46.787637)"
       y2="47.000011"
       x2="90"
       y1="47.000011"
       x1="6"
       gradientUnits="userSpaceOnUse"
       id="linearGradient5021"
       xlink:href="#linearGradient6139-0"
       inkscape:collect="always" />
    <linearGradient
       inkscape:collect="always"
       xlink:href="#linearGradient5700"
       id="linearGradient5698"
       gradientUnits="userSpaceOnUse"
       gradientTransform="matrix(1.1353753,0,0,1.1336634,-40.037119,-46.787634)"
       x1="6"
       y1="47.000011"
       x2="90"
       y2="47.000011" />
    <radialGradient
       inkscape:collect="always"
       xlink:href="#linearGradient6139-0"
       id="radialGradient3828"
       cx="46.786518"
       cy="85.213486"
       fx="46.786518"
       fy="85.213486"
       r="6.5870786"
       gradientTransform="matrix(4.7896743,-0.09300881,0.0414706,2.1291779,-180.83952,-91.869626)"
       gradientUnits="userSpaceOnUse" />
    <radialGradient
       inkscape:collect="always"
       xlink:href="#linearGradient3832-0-6-1-1"
       id="radialGradient3836"
       cx="70.373131"
       cy="79.208954"
       fx="70.373131"
       fy="79.208954"
       r="2.7910447"
       gradientUnits="userSpaceOnUse" />
    <radialGradient
       inkscape:collect="always"
       xlink:href="#linearGradient3832-0-6-1-1"
       id="radialGradient3844"
       cx="70.373131"
       cy="79.208954"
       fx="70.373131"
       fy="79.208954"
       r="2.7910447"
       gradientUnits="userSpaceOnUse" />
    <linearGradient
       x1="48"
       y1="36"
       x2="56.96875"
       y2="36"
       id="linearGradient3983"
       xlink:href="#linearGradient3977"
       gradientUnits="userSpaceOnUse"
       spreadMethod="reflect" />
    <linearGradient
       id="linearGradient3977">
      <stop
         id="stop3979"
         style="stop-color:#cbcbcb;stop-opacity:1"
         offset="0" />
      <stop
         id="stop3981"
         style="stop-color:#efefef;stop-opacity:1"
         offset="1" />
    </linearGradient>
    <linearGradient
       x1="39.03125"
       y1="35.984375"
       x2="47.230457"
       y2="24.974846"
       id="linearGradient4011"
       xlink:href="#linearGradient4005"
       gradientUnits="userSpaceOnUse" />
    <linearGradient
       id="linearGradient4005">
      <stop
         id="stop4007"
         style="stop-color:#000000;stop-opacity:1"
         offset="0" />
      <stop
         id="stop4009"
         style="stop-color:#000000;stop-opacity:0"
         offset="1" />
    </linearGradient>
    <linearGradient
       x1="56.727566"
       y1="37.282234"
       x2="48.758419"
       y2="23.479269"
       id="linearGradient4039"
       xlink:href="#linearGradient4033"
       gradientUnits="userSpaceOnUse" />
    <linearGradient
       id="linearGradient4033">
      <stop
         id="stop4035"
         style="stop-color:#000000;stop-opacity:1"
         offset="0" />
      <stop
         id="stop4037"
         style="stop-color:#000000;stop-opacity:0"
         offset="1" />
    </linearGradient>
    <linearGradient
       x1="48"
       y1="41"
       x2="60"
       y2="41"
       id="linearGradient3933"
       xlink:href="#linearGradient3956"
       gradientUnits="userSpaceOnUse"
       spreadMethod="reflect" />
    <linearGradient
       id="linearGradient3956">
      <stop
         id="stop3958"
         style="stop-color:#e6c94c;stop-opacity:1"
         offset="0" />
      <stop
         id="stop3966"
         style="stop-color:#e7ce5f;stop-opacity:1"
         offset="0.57832253" />
      <stop
         id="stop3960"
         style="stop-color:#f0de93;stop-opacity:1"
         offset="0.83333331" />
      <stop
         id="stop3962"
         style="stop-color:#d0b64c;stop-opacity:1"
         offset="0.91666669" />
      <stop
         id="stop3964"
         style="stop-color:#907d2e;stop-opacity:1"
         offset="1" />
    </linearGradient>
    <linearGradient
       x1="48"
       y1="41"
       x2="60"
       y2="41"
       id="linearGradient3945"
       xlink:href="#linearGradient3956"
       gradientUnits="userSpaceOnUse"
       gradientTransform="translate(0,6)"
       spreadMethod="reflect" />
    <linearGradient
       id="linearGradient3434">
      <stop
         id="stop3436"
         style="stop-color:#e6c94c;stop-opacity:1"
         offset="0" />
      <stop
         id="stop3438"
         style="stop-color:#e7ce5f;stop-opacity:1"
         offset="0.57832253" />
      <stop
         id="stop3440"
         style="stop-color:#f0de93;stop-opacity:1"
         offset="0.83333331" />
      <stop
         id="stop3442"
         style="stop-color:#d0b64c;stop-opacity:1"
         offset="0.91666669" />
      <stop
         id="stop3444"
         style="stop-color:#907d2e;stop-opacity:1"
         offset="1" />
    </linearGradient>
    <linearGradient
       x1="48"
       y1="41"
       x2="60"
       y2="41"
       id="linearGradient3954"
       xlink:href="#linearGradient3956"
       gradientUnits="userSpaceOnUse"
       gradientTransform="translate(0,12)"
       spreadMethod="reflect" />
    <linearGradient
       id="linearGradient3447">
      <stop
         id="stop3449"
         style="stop-color:#e6c94c;stop-opacity:1"
         offset="0" />
      <stop
         id="stop3451"
         style="stop-color:#e7ce5f;stop-opacity:1"
         offset="0.57832253" />
      <stop
         id="stop3453"
         style="stop-color:#f0de93;stop-opacity:1"
         offset="0.83333331" />
      <stop
         id="stop3455"
         style="stop-color:#d0b64c;stop-opacity:1"
         offset="0.91666669" />
      <stop
         id="stop3457"
         style="stop-color:#907d2e;stop-opacity:1"
         offset="1" />
    </linearGradient>
  </defs>
  <sodipodi:namedview
     id="base"
     pagecolor="#ffffff"
     bordercolor="#666666"
     borderopacity="1.0"
     inkscape:pageopacity="0.0"
     inkscape:pageshadow="2"
     inkscape:zoom="4.1133134"
     inkscape:cx="-6.9326532"
     inkscape:cy="44.039604"
     inkscape:current-layer="g5148"
     showgrid="true"
     inkscape:grid-bbox="true"
     inkscape:document-units="px"
     inkscape:window-width="1264"
     inkscape:window-height="971"
     inkscape:window-x="0"
     inkscape:window-y="0"
     inkscape:window-maximized="1" />
  <metadata
     id="metadata5028">
    <rdf:RDF>
      <cc:Work
         rdf:about="">
        <dc:format>image/svg+xml</dc:format>
        <dc:type
           rdf:resource="http://purl.org/dc/dcmitype/StillImage" />
        <dc:title></dc:title>
      </cc:Work>
    </rdf:RDF>
  </metadata>
  <g
     id="layer1"
     inkscape:label="Layer 1"
     inkscape:groupmode="layer"
     transform="translate(0,80)">
    <g
       id="g5148"
       transform="matrix(1.0034441,0,0,1.0049592,33.489303,-38.526762)">
      <path
         inkscape:connector-curvature="0"
         id="rect4251-1"
         d="m 55.334401,-41.11932 -81.747021,0 c -3.773988,0 -6.812252,3.033683 -6.812252,6.80198 l 0,81.623788 c 0,3.768297 3.038264,6.80198 6.812252,6.80198 l 81.747021,0 c 3.773988,0 6.812252,-3.033683 6.812252,-6.80198 l 0,-81.623788 c 0,-3.768297 -3.038264,-6.80198 -6.812252,-6.80198 z"
         style="fill:url(#linearGradient5021);fill-opacity:1;fill-rule:nonzero;stroke:none;display:inline" />
      <g
         transform="matrix(1.1353753,0,0,1.1336634,-153.57465,-46.220805)"
         id="g3272">
        <path
           style="opacity:0.2;fill:url(#radialGradient3114);fill-opacity:1;fill-rule:nonzero;stroke:none;display:inline"
           d="m 112,5.5 c -2.7873,0 -5,2.2127028 -5,5 l 0,20.71875 0,7 0,38.59375 c 1.07066,1.628779 2.89693,2.71875 5,2.71875 l 4,0 64,0 4,0 c 2.10307,0 3.92934,-1.089971 5,-2.71875 l 0,-38.59375 0,-7 L 189,10.5 c 0,-2.7872972 -2.2127,-5 -5,-5 z"
           id="path3400-6"
           inkscape:connector-curvature="0"
           sodipodi:nodetypes="sscccsccscccsss" />
        <path
           style="opacity:0.45;fill:url(#radialGradient3118);fill-opacity:1;fill-rule:nonzero;stroke:none;display:inline"
           d="m 112,4.5 c -3.324,0 -6,2.6759996 -6,6 l 0,15 1,0 0,-15 c 0,-2.7872972 2.2127,-5 5,-5 l 72,0 c 2.7873,0 5,2.2127028 5,5 l 0,15 1,0 0,-15 c 0,-3.3240004 -2.676,-6 -6,-6 l -72,0 z"
           id="path4236-5"
           inkscape:connector-curvature="0" />
        <path
           inkscape:connector-curvature="0"
           id="path4242-5"
           d="m 106,76.942239 0,0.889058 0,0.889059 0,0.889059 0,1.778117 0,1.778117 c 0,2.95523 2.676,5.334351 6,5.334351 l 72,0 c 3.324,0 6,-2.379121 6,-5.334351 l 0,-1.778117 0,-1.778117 0,-0.889059 0,-0.889059 0,-0.889058 c 0,2.95523 -2.676,5.334351 -6,5.334351 l -72,0 c -3.324,0 -6,-2.379121 -6,-5.334351 z"
           style="opacity:0.46964859;fill:url(#linearGradient3120);fill-opacity:1;fill-rule:nonzero;stroke:none" />
      </g>
      <g
         id="g4021"
         transform="matrix(0.98621506,0,0,1.0503619,-36.451207,-38.562092)">
        <path
           transform="matrix(1.2467442,0,0,1.0633819,-54.589655,-6.556752)"
           d="m 73.164176,79.208954 c 0,1.541451 -1.249594,2.791045 -2.791045,2.791045 -1.541452,0 -2.791045,-1.249594 -2.791045,-2.791045 0,-1.541452 1.249593,-2.791045 2.791045,-2.791045 1.541451,0 2.791045,1.249593 2.791045,2.791045 z"
           sodipodi:ry="2.7910447"
           sodipodi:rx="2.7910447"
           sodipodi:cy="79.208954"
           sodipodi:cx="70.373131"
           id="path4002"
           style="opacity:0.71000001;fill:#1c1c1c;fill-opacity:1;fill-rule:nonzero;stroke:none"
           sodipodi:type="arc" />
        <path
           sodipodi:type="arc"
           style="fill:#ffffff;fill-opacity:1;fill-rule:nonzero;stroke:none"
           id="path3854"
           sodipodi:cx="70.373131"
           sodipodi:cy="79.208954"
           sodipodi:rx="2.7910447"
           sodipodi:ry="2.7910447"
           d="m 73.164176,79.208954 c 0,1.541451 -1.249594,2.791045 -2.791045,2.791045 -1.541452,0 -2.791045,-1.249594 -2.791045,-2.791045 0,-1.541452 1.249593,-2.791045 2.791045,-2.791045 1.541451,0 2.791045,1.249593 2.791045,2.791045 z"
           transform="matrix(1.0373872,0,0,0.91041754,-39.856546,5.3629056)" />
        <path
           transform="matrix(0.70316741,0,0,0.61710417,-16.33646,28.595951)"
           d="m 73.164176,79.208954 c 0,1.541451 -1.249594,2.791045 -2.791045,2.791045 -1.541452,0 -2.791045,-1.249594 -2.791045,-2.791045 0,-1.541452 1.249593,-2.791045 2.791045,-2.791045 1.541451,0 2.791045,1.249593 2.791045,2.791045 z"
           sodipodi:ry="2.7910447"
           sodipodi:rx="2.7910447"
           sodipodi:cy="79.208954"
           sodipodi:cx="70.373131"
           id="path3856"
           style="fill:url(#radialGradient3844);fill-opacity:1.0;fill-rule:nonzero;stroke:none"
           sodipodi:type="arc" />
        <path
           sodipodi:type="arc"
           style="opacity:0.71000001;fill:#1c1c1c;fill-opacity:1;fill-rule:nonzero;stroke:none"
           id="path4170"
           sodipodi:cx="70.373131"
           sodipodi:cy="79.208954"
           sodipodi:rx="2.7910447"
           sodipodi:ry="2.7910447"
           d="m 73.164176,79.208954 c 0,1.541451 -1.249594,2.791045 -2.791045,2.791045 -1.541452,0 -2.791045,-1.249594 -2.791045,-2.791045 0,-1.541452 1.249593,-2.791045 2.791045,-2.791045 1.541451,0 2.791045,1.249593 2.791045,2.791045 z"
           transform="matrix(1.2467442,0,0,1.0633819,-20.11442,-6.556752)" />
        <path
           transform="matrix(1.0373872,0,0,0.91041754,-5.3813104,5.3629056)"
           d="m 73.164176,79.208954 c 0,1.541451 -1.249594,2.791045 -2.791045,2.791045 -1.541452,0 -2.791045,-1.249594 -2.791045,-2.791045 0,-1.541452 1.249593,-2.791045 2.791045,-2.791045 1.541451,0 2.791045,1.249593 2.791045,2.791045 z"
           sodipodi:ry="2.7910447"
           sodipodi:rx="2.7910447"
           sodipodi:cy="79.208954"
           sodipodi:cx="70.373131"
           id="path4172"
           style="fill:#ffffff;fill-opacity:1;fill-rule:nonzero;stroke:none"
           sodipodi:type="arc" />
        <path
           sodipodi:type="arc"
           style="fill:url(#radialGradient3836);fill-opacity:1.0;fill-rule:nonzero;stroke:none"
           id="path4174"
           sodipodi:cx="70.373131"
           sodipodi:cy="79.208954"
           sodipodi:rx="2.7910447"
           sodipodi:ry="2.7910447"
           d="m 73.164176,79.208954 c 0,1.541451 -1.249594,2.791045 -2.791045,2.791045 -1.541452,0 -2.791045,-1.249594 -2.791045,-2.791045 0,-1.541452 1.249593,-2.791045 2.791045,-2.791045 1.541451,0 2.791045,1.249593 2.791045,2.791045 z"
           transform="matrix(0.70316741,0,0,0.61710417,18.138777,28.595951)" />
        <rect
           ry="1.1481457"
           rx="1.1481457"
           transform="matrix(1.0139776,0,0,0.95205283,3.1886202,-2.9106418)"
           y="83.595505"
           x="40.44944"
           height="3.235955"
           width="12.674157"
           id="rect4176"
           style="opacity:0.96219931000000003;fill:url(#radialGradient3828);fill-opacity:1;stroke:#000000;stroke-width:0.50000000000000000;stroke-miterlimit:4;stroke-opacity:1;stroke-dasharray:none" />
      </g>
      <path
         inkscape:connector-curvature="0"
         id="path4972"
         d="m -25.620124,16.576118 c -1.878635,0 -3.636952,0.913619 -4.742773,2.260615 l 0,15.014522 c 0,2.392606 2.115277,4.318783 4.742773,4.318783 l 80.627164,0 c 2.627498,0 4.742774,-1.926177 4.742774,-4.318783 l 0,-15.014522 c -1.10582,-1.346996 -2.864137,-2.260615 -4.742774,-2.260615 l -80.627164,0 z m 0,3.239089 80.627164,0 c 1.354763,0 2.371388,0.925742 2.371388,2.159392 l 0,11.876656 c 0,1.233651 -1.016625,2.159392 -2.371388,2.159392 l -80.627164,0 c -1.354761,0 -2.371386,-0.925741 -2.371386,-2.159392 l 0,-11.876656 c 0,-1.23365 1.016625,-2.159392 2.371386,-2.159392 z"
         style="font-size:medium;font-style:normal;font-variant:normal;font-weight:normal;font-stretch:normal;text-indent:0;text-align:start;text-decoration:none;line-height:normal;letter-spacing:normal;word-spacing:normal;text-transform:none;direction:ltr;block-progression:tb;writing-mode:lr-tb;text-anchor:start;baseline-shift:baseline;opacity:0.02000002;color:#000000;fill:#000000;fill-opacity:1;fill-rule:nonzero;stroke:none;stroke-width:6;marker:none;visibility:visible;display:inline;overflow:visible;enable-background:accumulate;font-family:Sans;-inkscape-font-specification:Sans" />
      <path
         inkscape:connector-curvature="0"
         id="path4974"
         d="M 2.8365227,-37.408679 C 11.137373,-11.353851 19.763022,14.087211 28.5142,38.170038 l 26.49284,0 c 2.627498,0 4.742774,-1.926177 4.742774,-4.318783 l 0,-66.941148 c 0,-2.392608 -2.115276,-4.318786 -4.742774,-4.318786 l -52.1705173,0 z"
         style="opacity:0.45;color:#000000;fill:url(#linearGradient4987);fill-opacity:1;fill-rule:nonzero;stroke:none;stroke-width:2;marker:none;visibility:visible;display:inline;overflow:visible;enable-background:accumulate" />
      <path
         id="path4970"
         d="m -25.620124,-37.408678 80.627164,0 c 2.627498,0 4.742774,1.926177 4.742774,4.318785 l 0,66.941148 c 0,2.392606 -2.115276,4.318783 -4.742774,4.318783 l -80.627164,0 c -2.627496,0 -4.742773,-1.926177 -4.742773,-4.318783 l 0,-66.941148 c 0,-2.392608 2.115277,-4.318785 4.742773,-4.318785 z"
         style="color:#000000;fill:url(#radialGradient4985);fill-opacity:1;fill-rule:nonzero;stroke:none;stroke-width:2;marker:none;visibility:visible;display:inline;overflow:visible;enable-background:accumulate"
         inkscape:connector-curvature="0"
         sodipodi:nodetypes="sssssssss" />
      <g
         transform="matrix(1.2887787,0,0,1.2868356,-47.400485,-49.622656)"
         id="layer6"
         style="display:inline">
        <path
           inkscape:connector-curvature="0"
           d="m 48,21.03125 c -6.579909,0 -11.96875,5.388841 -11.96875,11.96875 l 0,3.1875 C 34.306446,36.631743 33,38.145149 33,40 l 0,4 c 0,0.536999 0.181979,0.734018 0.34375,1 C 33.181979,45.265982 33,45.463001 33,46 l 0,4 c 0,0.536999 0.181979,0.734018 0.34375,1 C 33.181979,51.265982 33,51.463001 33,52 l 0,4 c 0,2.194591 1.805409,4 4,4 l 22,0 c 2.194591,0 4,-1.805409 4,-4 l 0,-4 C 63,51.463001 62.818021,51.265982 62.65625,51 62.818021,50.734018 63,50.536999 63,50 l 0,-4 C 63,45.463001 62.818021,45.265982 62.65625,45 62.818021,44.734018 63,44.536999 63,44 l 0,-4 c 0,-1.854851 -1.306446,-3.368257 -3.03125,-3.8125 l 0,-3.1875 C 59.96875,26.420091 54.579909,21.03125 48,21.03125 z m 0,9 c 1.85377,0 2.96875,1.11498 2.96875,2.96875 l 0,3 -5.9375,0 0,-3 c 0,-1.85377 1.11498,-2.96875 2.96875,-2.96875 z"
           id="path4087"
           style="opacity:0.05;color:#000000;fill:#000000;fill-opacity:1;fill-rule:nonzero;stroke:none;stroke-width:2;marker:none;visibility:visible;display:inline;overflow:visible;enable-background:accumulate" />
        <path
           d="m 48,22 c -6.050387,0 -11,4.949613 -11,11 l 0,3.96875 c -1.659643,0 -3.03125,1.371607 -3.03125,3.03125 l 0,4 c 0,0.512118 0.234212,0.716009 0.40625,1 -0.172038,0.283991 -0.40625,0.487882 -0.40625,1 l 0,4 c 0,0.512118 0.234212,0.716009 0.40625,1 -0.172038,0.283991 -0.40625,0.487882 -0.40625,1 l 0,4 c 0,1.659643 1.371607,3.03125 3.03125,3.03125 l 22,0 c 1.659643,0 3.03125,-1.371607 3.03125,-3.03125 l 0,-4 c 0,-0.512118 -0.234212,-0.716009 -0.40625,-1 0.172038,-0.283991 0.40625,-0.487882 0.40625,-1 l 0,-4 c 0,-0.512118 -0.234212,-0.716009 -0.40625,-1 0.172038,-0.283991 0.40625,-0.487882 0.40625,-1 l 0,-4 c 0,-1.659643 -1.371607,-3.03125 -3.03125,-3.03125 L 59,33 C 59,26.949613 54.050387,22 48,22 z m 0,7.0625 c 2.309873,0 3.9375,1.627627 3.9375,3.9375 l 0,3.96875 -7.875,0 0,-3.96875 c 0,-2.309873 1.627627,-3.9375 3.9375,-3.9375 z"
           inkscape:connector-curvature="0"
           id="path4082"
           style="opacity:0.07999998;color:#000000;fill:#000000;fill-opacity:1;fill-rule:nonzero;stroke:none;stroke-width:2;marker:none;visibility:visible;display:inline;overflow:visible;enable-background:accumulate" />
        <path
           inkscape:connector-curvature="0"
           d="m 48,23.0625 c -5.477877,0 -9.9375,4.459623 -9.9375,9.9375 l 0,5.03125 -1.0625,0 c -1.0751,0 -1.96875,0.89365 -1.96875,1.96875 l 0,4 c 0,0.391754 0.234275,0.690522 0.4375,1 -0.203225,0.309478 -0.4375,0.608246 -0.4375,1 l 0,4 c 0,0.391754 0.234275,0.690522 0.4375,1 -0.203225,0.309478 -0.4375,0.608246 -0.4375,1 l 0,4 c 0,1.0751 0.89365,1.96875 1.96875,1.96875 l 22,0 c 1.0751,0 1.96875,-0.89365 1.96875,-1.96875 l 0,-4 c 0,-0.391754 -0.234275,-0.690522 -0.4375,-1 0.203225,-0.309478 0.4375,-0.608246 0.4375,-1 l 0,-4 c 0,-0.391754 -0.234275,-0.690522 -0.4375,-1 0.203225,-0.309478 0.4375,-0.608246 0.4375,-1 l 0,-4 c 0,-1.0751 -0.89365,-1.96875 -1.96875,-1.96875 l -1.0625,0 0,-5.03125 c 0,-5.477877 -4.459623,-9.9375 -9.9375,-9.9375 z M 48,28 c 2.843291,0 5,2.156709 5,5 l 0,5.03125 -10,0 L 43,33 c 0,-2.843291 2.156709,-5 5,-5 z"
           id="path4078"
           style="opacity:0.12000002;color:#000000;fill:#000000;fill-opacity:1;fill-rule:nonzero;stroke:none;stroke-width:2;marker:none;visibility:visible;display:inline;overflow:visible;enable-background:accumulate" />
        <path
           d="m 48,24.03125 c -4.9531,0 -8.96875,4.01565 -8.96875,8.96875 l 0,6 L 37,39 c -0.554,0 -1,0.446 -1,1 l 0,4 c 0,0.554 0.446,1 1,1 -0.554,0 -1,0.446 -1,1 l 0,4 c 0,0.554 0.446,1 1,1 -0.554,0 -1,0.446 -1,1 l 0,4 c 0,0.554 0.446,1 1,1 l 22,0 c 0.554,0 1,-0.446 1,-1 l 0,-4 c 0,-0.554 -0.446,-1 -1,-1 0.554,0 1,-0.446 1,-1 l 0,-4 c 0,-0.554 -0.446,-1 -1,-1 0.554,0 1,-0.446 1,-1 l 0,-4 c 0,-0.554 -0.446,-1 -1,-1 l -2.03125,0 0,-6 c 0,-4.9531 -4.01565,-8.96875 -8.96875,-8.96875 z m 0,3 c 3.349468,0 5.96875,2.619282 5.96875,5.96875 l 0,6 -11.9375,0 0,-6 c 0,-3.349468 2.619282,-5.96875 5.96875,-5.96875 z"
           inkscape:connector-curvature="0"
           id="path4063"
           style="opacity:0.3;color:#000000;fill:#000000;fill-opacity:1;fill-rule:nonzero;stroke:none;stroke-width:2;marker:none;visibility:visible;display:inline;overflow:visible;enable-background:accumulate" />
        <path
           d="m 48,23.03125 c -4.9531,0 -8.96875,4.01565 -8.96875,8.96875 l 0,8 c 0,4.9531 4.01565,8.96875 8.96875,8.96875 4.9531,0 8.96875,-4.01565 8.96875,-8.96875 l 0,-8 c 0,-4.9531 -4.01565,-8.96875 -8.96875,-8.96875 z m 0,3 c 3.349468,0 5.96875,2.619282 5.96875,5.96875 l 0,8 c 0,3.349468 -2.619282,5.96875 -5.96875,5.96875 -3.349468,0 -5.96875,-2.619282 -5.96875,-5.96875 l 0,-8 c 0,-3.349468 2.619282,-5.96875 5.96875,-5.96875 z"
           inkscape:connector-curvature="0"
           id="path3974"
           style="color:#000000;fill:url(#linearGradient3983);fill-opacity:1;fill-rule:nonzero;stroke:none;stroke-width:2;marker:none;visibility:visible;display:inline;overflow:visible;enable-background:accumulate" />
        <path
           d="m 48,25 c -3.878,0 -7,3.122 -7,7 l 0,12 c 0,0.661889 0.11112,1.300171 0.28125,1.90625 1.643856,1.874098 4.03012,3.0625 6.71875,3.0625 2.68863,0 5.074894,-1.188402 6.71875,-3.0625 C 54.88888,45.300171 55,44.661889 55,44 l 0,-12 c 0,-3.878 -3.122,-7 -7,-7 z m 0,1.03125 c 3.349468,0 5.96875,2.619282 5.96875,5.96875 l 0,8 c 0,3.349468 -2.619282,5.96875 -5.96875,5.96875 -3.349468,0 -5.96875,-2.619282 -5.96875,-5.96875 l 0,-8 c 0,-3.349468 2.619282,-5.96875 5.96875,-5.96875 z"
           inkscape:connector-curvature="0"
           id="rect3985"
           style="opacity:0.1;color:#000000;fill:#000000;fill-opacity:1;fill-rule:nonzero;stroke:none;stroke-width:2;marker:none;visibility:visible;display:inline;overflow:visible;enable-background:accumulate" />
        <path
           inkscape:connector-curvature="0"
           d="m 48,25.3125 c -3.70276,0 -6.6875,2.98474 -6.6875,6.6875 l 0,12 c 0,0.59376 0.131289,1.161696 0.28125,1.71875 1.583964,1.778496 3.838102,2.9375 6.40625,2.9375 2.568148,0 4.822286,-1.159004 6.40625,-2.9375 C 54.556211,45.161696 54.6875,44.59376 54.6875,44 l 0,-12 c 0,-3.70276 -2.98474,-6.6875 -6.6875,-6.6875 z m 0,0.40625 c 3.51969,0 6.28125,2.76156 6.28125,6.28125 l 0,8 c 0,3.51969 -2.76156,6.28125 -6.28125,6.28125 -3.51969,0 -6.28125,-2.76156 -6.28125,-6.28125 l 0,-8 c 0,-3.51969 2.76156,-6.28125 6.28125,-6.28125 z"
           transform="matrix(0.95522388,0,0,0.9875956,2.1492537,0.60355158)"
           id="path3993"
           style="opacity:0.2;color:#000000;fill:#000000;fill-opacity:1;fill-rule:nonzero;stroke:none;stroke-width:2;marker:none;visibility:visible;display:inline;overflow:visible;enable-background:accumulate" />
        <path
           d="m 48,23.03125 c -4.9531,0 -8.96875,4.01565 -8.96875,8.96875 l 0,8 c 0,4.803463 3.785443,8.704923 8.53125,8.9375 C 43.040099,48.485235 39.5,44.69729 39.5,40.125 l 0,-7.875 c 0,-4.87711 4.01565,-8.8125 8.96875,-8.8125 1.961522,0 3.773702,0.604265 5.25,1.65625 C 52.168406,23.814278 50.166981,23.03125 48,23.03125 z m 3.84375,4.34375 c 1.310757,1.085979 2.125,2.749544 2.125,4.625 l 0,8 c 0,3.349468 -2.619282,5.96875 -5.96875,5.96875 -0.178019,0 -0.35764,-0.01674 -0.53125,-0.03125 0.324528,0.05172 0.658264,0.0625 1,0.0625 3.349468,0 5.96875,-2.57692 5.96875,-5.875 l 0,-7.875 c 0,-2.061301 -1.008641,-3.829535 -2.59375,-4.875 z"
           inkscape:connector-curvature="0"
           id="path3995"
           style="opacity:0.2;color:#000000;fill:url(#linearGradient4011);fill-opacity:1;fill-rule:nonzero;stroke:none;stroke-width:2;marker:none;visibility:visible;display:inline;overflow:visible;enable-background:accumulate" />
        <path
           d="m 48,23.03125 c -4.9531,0 -8.96875,4.01565 -8.96875,8.96875 l 0,8 0.78125,0 0,-8 c 0,-4.814493 3.801349,-8.752635 8.5625,-8.96875 -0.126641,-0.0053 -0.247055,0 -0.375,0 z"
           inkscape:connector-curvature="0"
           id="path4013"
           style="opacity:0.1;color:#000000;fill:#000000;fill-opacity:1;fill-rule:nonzero;stroke:none;stroke-width:2;marker:none;visibility:visible;display:inline;overflow:visible;enable-background:accumulate" />
        <path
           d="m 48,23.03125 c -0.170961,0 -0.331399,0.02181 -0.5,0.03125 4.716118,0.2641 8.46875,4.155361 8.46875,8.9375 l 0,8 c 0,4.782139 -3.752632,8.6734 -8.46875,8.9375 0.168601,0.0094 0.329039,0.03125 0.5,0.03125 4.9531,0 8.96875,-4.01565 8.96875,-8.96875 l 0,-8 c 0,-4.9531 -4.01565,-8.96875 -8.96875,-8.96875 z m -1,3 c -3.349468,0 -5.96875,2.619282 -5.96875,5.96875 l 0,8 c 0,3.349468 2.619282,5.96875 5.96875,5.96875 0.125814,0 0.251347,-0.02396 0.375,-0.03125 C 44.32736,45.637471 42.03125,43.140126 42.03125,40 l 0,-8 c 0,-3.140126 2.29611,-5.637471 5.34375,-5.9375 C 47.251347,26.0552 47.125814,26.03125 47,26.03125 z"
           inkscape:connector-curvature="0"
           id="path4024"
           style="opacity:0.15;color:#000000;fill:url(#linearGradient4039);fill-opacity:1;fill-rule:nonzero;stroke:none;stroke-width:2;marker:none;visibility:visible;display:inline;overflow:visible;enable-background:accumulate" />
        <path
           d="m 47.75,23.03125 c 4.820388,0.151447 8.6875,4.111609 8.6875,8.96875 l 0,8 c 0,4.857141 -3.867112,8.817303 -8.6875,8.96875 0.08472,0.0024 0.164703,0 0.25,0 4.9531,0 8.96875,-4.01565 8.96875,-8.96875 l 0,-8 c 0,-4.9531 -4.01565,-8.96875 -8.96875,-8.96875 -0.0853,0 -0.165275,-0.0024 -0.25,0 z m -0.28125,3 C 44.119282,26.03125 41.5,28.650532 41.5,32 l 0,8 c 0,3.349468 2.619282,5.96875 5.96875,5.96875 0.09397,0 0.188472,0.0041 0.28125,0 C 44.520715,45.842516 42.03125,43.26594 42.03125,40 l 0,-8 c 0,-3.26594 2.489465,-5.842516 5.71875,-5.96875 -0.09278,-0.0041 -0.187281,0 -0.28125,0 z"
           inkscape:connector-curvature="0"
           id="path4041"
           style="opacity:0.2;color:#000000;fill:#000000;fill-opacity:1;fill-rule:nonzero;stroke:none;stroke-width:2;marker:none;visibility:visible;display:inline;overflow:visible;enable-background:accumulate" />
        <path
           d="m 47.96875,24.5 0.78125,0.03125 0.03125,0 0.71875,0.125 0.03125,0 0.6875,0.1875 0.03125,0 0.65625,0.21875 0.03125,0.03125 0.625,0.28125 0.03125,0.03125 0.59375,0.34375 0.03125,0.03125 0.15625,0.125 L 52.84375,26 53.15625,25.65625 53.0625,25.1875 52.96875,25.125 52.78125,24.96875 52.75,24.9375 52.09375,24.53125 52.03125,24.5 51.34375,24.1875 51.28125,24.15625 50.5625,23.875 l -0.0625,0 -0.75,-0.1875 -0.0625,-0.03125 -0.78125,-0.125 -0.0625,0 L 48.03125,23.5 c -0.956312,-0.06672 -1.152251,1.088959 -0.0625,1 z m -4,0 -0.0625,0.03125 -0.65625,0.40625 -0.03125,0.03125 -0.625,0.4375 L 42.5625,25.4375 42,25.96875 41.96875,26 l -0.53125,0.5625 -0.03125,0.03125 -0.4375,0.625 -0.03125,0.03125 -0.40625,0.65625 -0.03125,0.0625 -0.28125,0.625 0,0.46875 0.40625,0.25 L 41.0625,29.125 41.125,29 41.375,28.4375 41.40625,28.40625 41.75,27.8125 41.78125,27.78125 42.1875,27.25 l 0.03125,-0.03125 0.46875,-0.5 0.03125,0 0,-0.03125 0.5,-0.46875 L 43.25,26.1875 43.78125,25.78125 43.8125,25.75 44.40625,25.40625 44.4375,25.375 45.03125,25.125 C 45.742924,24.657964 45,24 44.59375,24.21875 z"
           inkscape:connector-curvature="0"
           id="rect4052"
           style="font-size:medium;font-style:normal;font-variant:normal;font-weight:normal;font-stretch:normal;text-indent:0;text-align:start;text-decoration:none;line-height:normal;letter-spacing:normal;word-spacing:normal;text-transform:none;direction:ltr;block-progression:tb;writing-mode:lr-tb;text-anchor:start;baseline-shift:baseline;opacity:0.3;color:#000000;fill:#ffffff;fill-opacity:1;stroke:none;stroke-width:1;marker:none;visibility:visible;display:inline;overflow:visible;enable-background:accumulate;font-family:Sans;-inkscape-font-specification:Sans" />
        <path
           inkscape:connector-curvature="0"
           d="m 48.03125,23.6875 c -0.399301,-0.02786 -0.575897,0.194836 -0.59375,0.34375 -0.0089,0.07446 -0.0071,0.132508 0.0625,0.1875 0.06958,0.05499 0.198694,0.113244 0.4375,0.09375 a 0.19490146,0.19490146 0 0 1 0.03125,0 l 0.78125,0.03125 0.03125,0 a 0.19490146,0.19490146 0 0 1 0.03125,0 l 0.6875,0.125 0.03125,0 a 0.19490146,0.19490146 0 0 1 0.03125,0 0.19490146,0.19490146 0 0 1 0.03125,0 l 0.625,0.1875 0.0625,0 a 0.19490146,0.19490146 0 0 1 0.03125,0 l 0.65625,0.21875 a 0.19490146,0.19490146 0 0 1 0.0625,0.03125 l 0.625,0.28125 a 0.19490146,0.19490146 0 0 1 0.03125,0.03125 0.19490146,0.19490146 0 0 1 0,0.03125 l 0.03125,0.03125 0.5625,0.3125 a 0.19490146,0.19490146 0 0 1 0.03125,0 0.19490146,0.19490146 0 0 1 0,0.03125 l 0.03125,0 0.125,0.09375 L 52.5,25.75 l 0.25,0.03125 0.1875,-0.1875 -0.0625,-0.3125 a 0.19490146,0.19490146 0 0 1 -0.03125,0 L 52.65625,25.125 a 0.19490146,0.19490146 0 0 1 0,-0.03125 L 52.625,25.0625 52,24.6875 52,24.71875 51.9375,24.6875 51.25,24.375 l -0.03125,-0.03125 -0.03125,0 L 50.5,24.0625 a 0.19490146,0.19490146 0 0 1 -0.03125,0 0.19490146,0.19490146 0 0 1 -0.03125,0 l -0.75,-0.1875 a 0.19490146,0.19490146 0 0 1 -0.03125,0 l -0.0625,-0.03125 -0.6875,-0.125 -0.03125,0 -0.03125,0 -0.8125,-0.03125 z M 44.6875,24.375 a 0.19490146,0.19490146 0 0 1 0,0.03125 L 44.0625,24.6875 44,24.71875 l 0,-0.03125 -0.625,0.375 -0.03125,0.03125 a 0.19490146,0.19490146 0 0 1 0,0.03125 l -0.625,0.4375 -0.03125,0 a 0.19490146,0.19490146 0 0 1 0,0.03125 L 42.125,26.125 41.59375,26.6875 a 0.19490146,0.19490146 0 0 1 -0.03125,0 l 0,0.03125 -0.4375,0.625 a 0.19490146,0.19490146 0 0 1 -0.03125,0 L 41.0625,27.375 40.6875,28 l 0.03125,0 -0.03125,0.0625 -0.28125,0.625 0,0.28125 0.21875,0.125 0.28125,-0.125 0.03125,-0.0625 0.25,-0.5625 a 0.19490146,0.19490146 0 0 1 0.03125,-0.03125 0.19490146,0.19490146 0 0 1 0.03125,0 l 0.03125,-0.03125 0.3125,-0.5625 a 0.19490146,0.19490146 0 0 1 0,-0.03125 0.19490146,0.19490146 0 0 1 0.03125,0 l 0,-0.03125 0.40625,-0.53125 a 0.19490146,0.19490146 0 0 1 0.03125,0 l 0,-0.03125 0.46875,-0.46875 a 0.19490146,0.19490146 0 0 1 0,-0.03125 0.19490146,0.19490146 0 0 1 0.03125,-0.03125 0.19490146,0.19490146 0 0 1 0.03125,0 0.19490146,0.19490146 0 0 1 0,-0.03125 l 0.03125,0 0.46875,-0.46875 0.03125,0 a 0.19490146,0.19490146 0 0 1 0,-0.03125 l 0.53125,-0.40625 0.03125,0 a 0.19490146,0.19490146 0 0 1 0.03125,-0.03125 l 0.5625,-0.3125 L 44.3125,25.25 a 0.19490146,0.19490146 0 0 1 0.0625,-0.0625 l 0.5625,-0.21875 c 0.02063,-0.01354 0.01444,-0.01822 0.03125,-0.03125 0.103282,-0.08006 0.145812,-0.16503 0.15625,-0.21875 0.01214,-0.06247 -0.01479,-0.124279 -0.0625,-0.1875 -0.04771,-0.06322 -0.110698,-0.13087 -0.1875,-0.15625 -0.0768,-0.02538 -0.143675,-0.0236 -0.1875,0 z"
           id="path4061"
           style="font-size:medium;font-style:normal;font-variant:normal;font-weight:normal;font-stretch:normal;text-indent:0;text-align:start;text-decoration:none;line-height:normal;letter-spacing:normal;word-spacing:normal;text-transform:none;direction:ltr;block-progression:tb;writing-mode:lr-tb;text-anchor:start;baseline-shift:baseline;opacity:0.6;color:#000000;fill:#ffffff;fill-opacity:1;stroke:none;stroke-width:1;marker:none;visibility:visible;display:inline;overflow:visible;enable-background:accumulate;font-family:Sans;-inkscape-font-specification:Sans" />
        <rect
           width="24"
           height="6"
           rx="1"
           ry="1"
           x="36"
           y="38"
           id="rect3138"
           style="color:#000000;fill:url(#linearGradient3933);fill-opacity:1;fill-rule:nonzero;stroke:none;stroke-width:2;marker:none;visibility:visible;display:inline;overflow:visible;enable-background:accumulate" />
        <path
           d="m 37,38 c -0.554,0 -1,0.446 -1,1 l 0,1 c 0,-0.554 0.446,-1 1,-1 l 22,0 c 0.554,0 1,0.446 1,1 l 0,-1 c 0,-0.554 -0.446,-1 -1,-1 l -22,0 z"
           inkscape:connector-curvature="0"
           id="rect3148"
           style="opacity:0.3;color:#000000;fill:#ffffff;fill-opacity:1;fill-rule:nonzero;stroke:none;stroke-width:2;marker:none;visibility:visible;display:inline;overflow:visible;enable-background:accumulate" />
        <path
           d="m 36,42 0,1 c 0,0.554 0.446,1 1,1 l 22,0 c 0.554,0 1,-0.446 1,-1 l 0,-1 c 0,0.554 -0.446,1 -1,1 l -22,0 c -0.554,0 -1,-0.446 -1,-1 z"
           inkscape:connector-curvature="0"
           id="rect3921"
           style="opacity:0.15;color:#000000;fill:#a05a2c;fill-opacity:1;fill-rule:nonzero;stroke:none;stroke-width:2;marker:none;visibility:visible;display:inline;overflow:visible;enable-background:accumulate" />
        <rect
           width="24"
           height="6"
           rx="1"
           ry="1"
           x="36"
           y="44"
           id="rect3939"
           style="color:#000000;fill:url(#linearGradient3945);fill-opacity:1;fill-rule:nonzero;stroke:none;stroke-width:2;marker:none;visibility:visible;display:inline;overflow:visible;enable-background:accumulate" />
        <path
           d="m 37,44 c -0.554,0 -1,0.446 -1,1 l 0,1 c 0,-0.554 0.446,-1 1,-1 l 22,0 c 0.554,0 1,0.446 1,1 l 0,-1 c 0,-0.554 -0.446,-1 -1,-1 l -22,0 z"
           inkscape:connector-curvature="0"
           id="path3941"
           style="opacity:0.3;color:#000000;fill:#ffffff;fill-opacity:1;fill-rule:nonzero;stroke:none;stroke-width:2;marker:none;visibility:visible;display:inline;overflow:visible;enable-background:accumulate" />
        <path
           d="m 36,48 0,1 c 0,0.554 0.446,1 1,1 l 22,0 c 0.554,0 1,-0.446 1,-1 l 0,-1 c 0,0.554 -0.446,1 -1,1 l -22,0 c -0.554,0 -1,-0.446 -1,-1 z"
           inkscape:connector-curvature="0"
           id="path3943"
           style="opacity:0.15;color:#000000;fill:#a05a2c;fill-opacity:1;fill-rule:nonzero;stroke:none;stroke-width:2;marker:none;visibility:visible;display:inline;overflow:visible;enable-background:accumulate" />
        <rect
           width="24"
           height="6"
           rx="1"
           ry="1"
           x="36"
           y="50"
           id="rect3947"
           style="color:#000000;fill:url(#linearGradient3954);fill-opacity:1;fill-rule:nonzero;stroke:none;stroke-width:2;marker:none;visibility:visible;display:inline;overflow:visible;enable-background:accumulate" />
        <path
           d="m 37,50 c -0.554,0 -1,0.446 -1,1 l 0,1 c 0,-0.554 0.446,-1 1,-1 l 22,0 c 0.554,0 1,0.446 1,1 l 0,-1 c 0,-0.554 -0.446,-1 -1,-1 l -22,0 z"
           inkscape:connector-curvature="0"
           id="path3949"
           style="opacity:0.3;color:#000000;fill:#ffffff;fill-opacity:1;fill-rule:nonzero;stroke:none;stroke-width:2;marker:none;visibility:visible;display:inline;overflow:visible;enable-background:accumulate" />
        <path
           d="m 36,54 0,1 c 0,0.554 0.446,1 1,1 l 22,0 c 0.554,0 1,-0.446 1,-1 l 0,-1 c 0,0.554 -0.446,1 -1,1 l -22,0 c -0.554,0 -1,-0.446 -1,-1 z"
           inkscape:connector-curvature="0"
           id="path3952"
           style="opacity:0.15;color:#000000;fill:#a05a2c;fill-opacity:1;fill-rule:nonzero;stroke:none;stroke-width:2;marker:none;visibility:visible;display:inline;overflow:visible;enable-background:accumulate" />
      </g>
      <path
         sodipodi:nodetypes="sssssssss"
         inkscape:connector-curvature="0"
         style="color:#000000;fill:none;stroke:#000000;stroke-width:2.28078365;stroke-opacity:0.7758007;marker:none;visibility:visible;display:inline;overflow:visible;enable-background:accumulate"
         d="m -24.679207,-36.611433 78.745332,0 c 2.566171,0 4.632078,1.88191 4.632078,4.219529 l 0,65.402689 c 0,2.337621 -2.065907,4.21953 -4.632078,4.21953 l -78.745332,0 c -2.566171,0 -4.632078,-1.881909 -4.632078,-4.21953 l 0,-65.402689 c 0,-2.337619 2.065907,-4.219529 4.632078,-4.219529 z"
         id="path4989" />
      <path
         style="opacity:0.7628866;fill:url(#linearGradient5698);fill-opacity:1;fill-rule:nonzero;stroke:none;display:inline"
         d="m 55.334402,-41.119317 -81.747021,0 c -3.77399,0 -6.81225,3.033683 -6.81225,6.80198 l 0,81.623792 c 0,3.76829 3.03826,6.80197 6.81225,6.80197 l 81.747021,0 c 3.773988,0 6.812252,-3.03368 6.812252,-6.80197 l 0,-81.623792 c 0,-3.768297 -3.038264,-6.80198 -6.812252,-6.80198 z"
         id="path5696"
         inkscape:connector-curvature="0" />
      <path
         id="path3816"
         d="m -2.8245749,-36.711124 55.4624669,0 c 2.566171,0 4.632078,1.88191 4.632078,4.219529 l 0,65.402689 c 0,2.337621 -2.065907,4.21953 -4.632078,4.21953 -55.2566517,-73.846643 -0.58492,-0.303279 -55.4624669,-73.841748 z"
         style="color:#000000;fill:#ffffff;fill-opacity:0.14693879;stroke:none;stroke-width:2.28078365;marker:none;visibility:visible;display:inline;overflow:visible;enable-background:accumulate"
         inkscape:connector-curvature="0"
         sodipodi:nodetypes="cssscc" />
    </g>
  </g>
</svg>
