<?xml version="1.0" encoding="UTF-8" standalone="no"?>
<svg
   xmlns:dc="http://purl.org/dc/elements/1.1/"
   xmlns:cc="http://creativecommons.org/ns#"
   xmlns:rdf="http://www.w3.org/1999/02/22-rdf-syntax-ns#"
   xmlns:svg="http://www.w3.org/2000/svg"
   xmlns="http://www.w3.org/2000/svg"
   xmlns:xlink="http://www.w3.org/1999/xlink"
   xmlns:sodipodi="http://sodipodi.sourceforge.net/DTD/sodipodi-0.dtd"
   xmlns:inkscape="http://www.inkscape.org/namespaces/inkscape"
   viewBox="0 0 96 96"
   version="1.1"
   id="svg31"
   sodipodi:docname="distributor-logo-blag.svg"
   width="96"
   height="96"
   inkscape:version="0.92.2 2405546, 2018-03-11">
  <metadata
     id="metadata35">
    <rdf:RDF>
      <cc:Work
         rdf:about="">
        <dc:format>image/svg+xml</dc:format>
        <dc:type
           rdf:resource="http://purl.org/dc/dcmitype/StillImage" />
        <dc:title></dc:title>
        <dc:date>2018</dc:date>
        <dc:creator>
          <cc:Agent>
            <dc:title>Cristian Pozzessere  ==  ilnanny  ==</dc:title>
          </cc:Agent>
        </dc:creator>
        <dc:description>Fun is Fun Inkscape is Fun =  #InkscapeFun</dc:description>
        <cc:license
           rdf:resource="http://creativecommons.org/licenses/by-sa/4.0/" />
      </cc:Work>
      <cc:License
         rdf:about="http://creativecommons.org/licenses/by-sa/4.0/">
        <cc:permits
           rdf:resource="http://creativecommons.org/ns#Reproduction" />
        <cc:permits
           rdf:resource="http://creativecommons.org/ns#Distribution" />
        <cc:requires
           rdf:resource="http://creativecommons.org/ns#Notice" />
        <cc:requires
           rdf:resource="http://creativecommons.org/ns#Attribution" />
        <cc:permits
           rdf:resource="http://creativecommons.org/ns#DerivativeWorks" />
        <cc:requires
           rdf:resource="http://creativecommons.org/ns#ShareAlike" />
      </cc:License>
    </rdf:RDF>
  </metadata>
  <sodipodi:namedview
     pagecolor="#ffffff"
     bordercolor="#666666"
     borderopacity="1"
     objecttolerance="10"
     gridtolerance="10"
     guidetolerance="10"
     inkscape:pageopacity="0"
     inkscape:pageshadow="2"
     inkscape:window-width="1920"
     inkscape:window-height="994"
     id="namedview33"
     showgrid="false"
     inkscape:zoom="2.6040611"
     inkscape:cx="-20.737814"
     inkscape:cy="23.45692"
     inkscape:window-x="0"
     inkscape:window-y="21"
     inkscape:window-maximized="1"
     inkscape:current-layer="svg31" />
  <defs
     id="defs25">
    <linearGradient
       y2="517.79999"
       x2="0"
       y1="545.79999"
       gradientUnits="userSpaceOnUse"
       id="linearGradient6">
      <stop
         stop-color="#3889e9"
         id="stop2" />
      <stop
         offset="1"
         stop-color="#5ea5fb"
         id="stop4" />
    </linearGradient>
    <linearGradient
       x1="-324.94"
       y1="649.73999"
       x2="-328.20999"
       y2="307.75"
       gradientUnits="userSpaceOnUse"
       id="linearGradient12">
      <stop
         stop-color="#016ed4"
         id="stop8" />
      <stop
         offset="1"
         stop-color="#00b1ff"
         id="stop10" />
    </linearGradient>
    <linearGradient
       gradientUnits="userSpaceOnUse"
       x1="346.57001"
       y1="513.79999"
       x2="361.57001"
       y2="528.79999"
       id="linearGradient18">
      <stop
         stop-color="#2e5d89"
         id="stop14" />
      <stop
         offset="1"
         stop-color="#1b92f4"
         id="stop16" />
    </linearGradient>
    <linearGradient
       gradientUnits="userSpaceOnUse"
       y2="516.47998"
       x2="0"
       y1="546.92999"
       id="0"
       gradientTransform="matrix(2.6606177,0,0,2.6606177,-1871.0357,-2037.1893)">
      <stop
         stop-color="#9662ff"
         id="stop20" />
      <stop
         offset="1"
         stop-color="#bc9bff"
         id="stop22" />
    </linearGradient>
    <linearGradient
       id="linearGradient5700-9">
      <stop
         style="stop-color:#ffffff;stop-opacity:0;"
         offset="0"
         id="stop5702-6" />
      <stop
         id="stop5704-6"
         offset="0.03681535"
         style="stop-color:#ffffff;stop-opacity:0.85135138;" />
      <stop
         style="stop-color:#ffffff;stop-opacity:0;"
         offset="0.06506088"
         id="stop5706-4" />
      <stop
         id="stop5712-0"
         offset="0.94493848"
         style="stop-color:#ffffff;stop-opacity:0;" />
      <stop
         id="stop5710-1"
         offset="0.96582276"
         style="stop-color:#ffffff;stop-opacity:0.85135138;" />
      <stop
         style="stop-color:#ffffff;stop-opacity:0;"
         offset="1"
         id="stop5708-7" />
    </linearGradient>
    <linearGradient
       id="linearGradient15653">
      <stop
         id="stop15655"
         offset="0"
         style="stop-color:#22a7dc;stop-opacity:1;" />
      <stop
         id="stop15657"
         offset="1"
         style="stop-color:#1d73bb;stop-opacity:1;" />
    </linearGradient>
    <linearGradient
       id="linearGradient4091-0-3-0-7-0">
      <stop
         id="stop4093-3-6-4-2-5"
         offset="0"
         style="stop-color:#ffffff;stop-opacity:1;" />
      <stop
         style="stop-color:#ffffff;stop-opacity:1;"
         offset="0.80000001"
         id="stop4099-6-1-8-3-2" />
      <stop
         id="stop4095-1-0-7-9-7"
         offset="1"
         style="stop-color:#ffffff;stop-opacity:0;" />
    </linearGradient>
    <linearGradient
       id="linearGradient3832-0-6-1-1-0">
      <stop
         id="stop3834-6-3-7-1-2"
         offset="0"
         style="stop-color:#000000;stop-opacity:1;" />
      <stop
         style="stop-color:#000000;stop-opacity:0.58823532;"
         offset="0.1"
         id="stop3872-2-4-7" />
      <stop
         id="stop3844-6-2-7-6-3"
         offset="0.89999998"
         style="stop-color:#000000;stop-opacity:0.58823532;" />
      <stop
         id="stop3836-5-0-2-9-1"
         offset="1"
         style="stop-color:#000000;stop-opacity:1;" />
    </linearGradient>
    <linearGradient
       inkscape:collect="always"
       xlink:href="#linearGradient6139-0-0"
       id="linearGradient5021-2"
       gradientUnits="userSpaceOnUse"
       x1="6"
       y1="47.000011"
       x2="90"
       y2="47.000011"
       gradientTransform="matrix(1.1353753,0,0,1.1336634,-40.037124,-46.787637)" />
    <linearGradient
       id="linearGradient6139-0-0">
      <stop
         style="stop-color:#b7b7b7;stop-opacity:1;"
         offset="0"
         id="stop6141-2-9" />
      <stop
         id="stop6151-0-8"
         offset="0.25"
         style="stop-color:#ffffff;stop-opacity:1;" />
      <stop
         id="stop6147-1-4"
         offset="0.5"
         style="stop-color:#9d9d9d;stop-opacity:1;" />
      <stop
         style="stop-color:#fafafa;stop-opacity:1;"
         offset="0.75"
         id="stop6149-4-9" />
      <stop
         style="stop-color:#b7b7b7;stop-opacity:1;"
         offset="1"
         id="stop6143-4-8" />
    </linearGradient>
    <linearGradient
       id="linearGradient3700">
      <stop
         id="stop3702"
         style="stop-color:#78a1bd;stop-opacity:1"
         offset="0" />
      <stop
         id="stop3704"
         style="stop-color:#afc8d8;stop-opacity:1"
         offset="1" />
    </linearGradient>
    <linearGradient
       x1="45.447727"
       y1="92.539597"
       x2="45.447727"
       y2="7.0165396"
       id="ButtonShadow-3"
       gradientUnits="userSpaceOnUse"
       gradientTransform="scale(1.0058652,0.994169)">
      <stop
         id="stop3750-3"
         style="stop-color:#000000;stop-opacity:1"
         offset="0" />
      <stop
         id="stop3752-9"
         style="stop-color:#000000;stop-opacity:0.58823532"
         offset="1" />
    </linearGradient>
    <filter
       id="filter3174-0"
       style="color-interpolation-filters:sRGB">
      <feGaussianBlur
         id="feGaussianBlur3176-0"
         stdDeviation="1.71" />
    </filter>
    <linearGradient
       id="linearGradient3752">
      <stop
         id="stop3754"
         style="stop-color:#0e4688;stop-opacity:1"
         offset="0" />
      <stop
         id="stop3756"
         style="stop-color:#135eb7;stop-opacity:1"
         offset="1" />
    </linearGradient>
    <linearGradient
       id="linearGradient3816">
      <stop
         id="stop3818"
         style="stop-color:#ffffff;stop-opacity:1"
         offset="0" />
      <stop
         id="stop3820"
         style="stop-color:#ffffff;stop-opacity:0"
         offset="1" />
    </linearGradient>
    <linearGradient
       y2="47.000011"
       x2="90"
       y1="47.000011"
       x1="6"
       gradientTransform="matrix(1.1392856,0,0,1.1392855,488.22035,-310.97553)"
       gradientUnits="userSpaceOnUse"
       id="linearGradient18211"
       xlink:href="#linearGradient5700-9"
       inkscape:collect="always" />
    <linearGradient
       x1="783.86316"
       y1="-313.5238"
       x2="1099.6853"
       y2="1340.5599"
       id="linearGradient2994-7-6"
       xlink:href="#linearGradient3004-7-1"
       gradientUnits="userSpaceOnUse"
       gradientTransform="matrix(1.237124,0,0,1.237124,-1037.425,-1010.413)" />
    <linearGradient
       id="linearGradient3004-7-1">
      <stop
         id="stop3006-7-4"
         style="stop-color:#ffffff;stop-opacity:1"
         offset="0" />
      <stop
         id="stop7609-6-7"
         style="stop-color:#ffffff;stop-opacity:1"
         offset="0.34214258" />
      <stop
         id="stop7599-5-0"
         style="stop-color:#bebdf3;stop-opacity:1"
         offset="0.51998252" />
      <stop
         id="stop7611-6-8"
         style="stop-color:#8f82f9;stop-opacity:1"
         offset="0.75408828" />
      <stop
         id="stop7613-3-8"
         style="stop-color:#9f99c7;stop-opacity:1"
         offset="0.8711412" />
      <stop
         id="stop3008-5-5"
         style="stop-color:#524c76;stop-opacity:1"
         offset="1" />
    </linearGradient>
    <linearGradient
       x1="464.01675"
       y1="697.43707"
       x2="368.62137"
       y2="269.70941"
       id="linearGradient2986-6-4"
       xlink:href="#linearGradient3004-7-1"
       gradientUnits="userSpaceOnUse"
       gradientTransform="matrix(1.237124,0,0,1.237124,-161.0905,-377.3414)" />
    <radialGradient
       cx="49.529819"
       cy="320.08572"
       r="31.94874"
       fx="49.529819"
       fy="320.08572"
       id="radialGradient5851-1-2"
       xlink:href="#linearGradient3004-7-1"
       gradientUnits="userSpaceOnUse"
       gradientTransform="matrix(3.287367,0,0,2.519654,111.6891,-642.7214)" />
    <radialGradient
       cx="332.72311"
       cy="590.5899"
       r="218.02184"
       fx="332.72311"
       fy="590.5899"
       id="radialGradient3228-2-2"
       xlink:href="#linearGradient3004-7-1"
       gradientUnits="userSpaceOnUse"
       gradientTransform="matrix(-0.0660395,4.190266,-3.573754,-0.05626827,2168.154,-1171.421)" />
    <linearGradient
       id="linearGradient4108">
      <stop
         id="stop4110"
         style="stop-color:#8983ac;stop-opacity:1"
         offset="0" />
      <stop
         id="stop4112"
         style="stop-color:#ceccdd;stop-opacity:1"
         offset="1" />
    </linearGradient>
    <linearGradient
       y2="47.000011"
       x2="90"
       y1="47.000011"
       x1="6"
       gradientTransform="matrix(1.1392856,0,0,1.1392855,488.22036,-310.97552)"
       gradientUnits="userSpaceOnUse"
       id="linearGradient18191-2"
       xlink:href="#linearGradient6139-0-0"
       inkscape:collect="always" />
    <linearGradient
       y2="47.000011"
       x2="90"
       y1="47.000011"
       x1="6"
       gradientTransform="matrix(1.1392856,0,0,1.1392855,-7.5947959,-40.091876)"
       gradientUnits="userSpaceOnUse"
       id="linearGradient19498"
       xlink:href="#linearGradient6139-0-0"
       inkscape:collect="always" />
    <radialGradient
       r="41"
       fy="6.2131939"
       fx="158"
       cy="6.2131939"
       cx="158"
       gradientTransform="matrix(0,1.6209438,-2.0382846,0,160.66427,-243.03657)"
       gradientUnits="userSpaceOnUse"
       id="radialGradient19500"
       xlink:href="#linearGradient3816"
       inkscape:collect="always" />
    <radialGradient
       r="42"
       fy="-27"
       fx="48"
       cy="-27"
       cx="48"
       gradientTransform="matrix(-1.0721726,0,0,-0.87502024,199.46429,-19.125546)"
       gradientUnits="userSpaceOnUse"
       id="radialGradient19502"
       xlink:href="#linearGradient4091-0-3-0-7-0"
       inkscape:collect="always" />
    <linearGradient
       y2="82.984398"
       x2="-10.187523"
       y1="82.984398"
       x1="-94"
       gradientTransform="matrix(1,0,0,0.88905855,200,8.9431737)"
       gradientUnits="userSpaceOnUse"
       id="linearGradient19504"
       xlink:href="#linearGradient3832-0-6-1-1-0"
       inkscape:collect="always" />
    <radialGradient
       r="45.211536"
       fy="-263.57327"
       fx="543.1394"
       cy="-263.57327"
       cx="543.1394"
       gradientTransform="matrix(1,0,0,0.83997955,-495.81516,228.70653)"
       gradientUnits="userSpaceOnUse"
       id="radialGradient19506"
       xlink:href="#linearGradient4108"
       inkscape:collect="always" />
    <radialGradient
       r="31.94874"
       fy="320.08572"
       fx="49.529819"
       cy="320.08572"
       cx="49.529819"
       gradientTransform="matrix(3.287367,0,0,2.519654,111.6891,-642.7214)"
       gradientUnits="userSpaceOnUse"
       id="radialGradient19512"
       xlink:href="#linearGradient3004-7-1"
       inkscape:collect="always" />
    <radialGradient
       r="218.02184"
       fy="590.5899"
       fx="332.72311"
       cy="590.5899"
       cx="332.72311"
       gradientTransform="matrix(-0.0660395,4.190266,-3.573754,-0.05626827,2168.154,-1171.421)"
       gradientUnits="userSpaceOnUse"
       id="radialGradient19514"
       xlink:href="#linearGradient3004-7-1"
       inkscape:collect="always" />
    <linearGradient
       y2="0.27861649"
       x2="59.378193"
       y1="0.27861649"
       x1="2.4652066"
       gradientTransform="matrix(1.0034441,0,0,1.0049592,32.580214,6.9277846)"
       gradientUnits="userSpaceOnUse"
       id="linearGradient19516"
       xlink:href="#linearGradient3816"
       inkscape:collect="always" />
    <linearGradient
       y2="47.000011"
       x2="90"
       y1="47.000011"
       x1="6"
       gradientTransform="matrix(1.1392856,0,0,1.1392855,-7.5948059,-40.091885)"
       gradientUnits="userSpaceOnUse"
       id="linearGradient19518"
       xlink:href="#linearGradient5700-9"
       inkscape:collect="always" />
    <clipPath
       id="clipPath3625">
      <path
         d="M 0,0 V 96 H 96 V 0 Z m 12,6 h 72 c 3.324,0 6,2.676 6,6 v 72 c 0,3.324 -2.676,6 -6,6 H 12 C 8.676,90 6,87.324 6,84 V 12 C 6,8.676 8.676,6 12,6 Z"
         inkscape:connector-curvature="0"
         id="path3627"
         style="fill:#ffffff;fill-opacity:1;stroke:none" />
    </clipPath>
    <filter
       id="filter3174-20"
       style="color-interpolation-filters:sRGB">
      <feGaussianBlur
         id="feGaussianBlur3176-3"
         stdDeviation="1.71" />
    </filter>
    <linearGradient
       x1="44.512066"
       y1="6"
       x2="44.512066"
       y2="90.015434"
       id="linearGradient3643"
       xlink:href="#linearGradient3637"
       gradientUnits="userSpaceOnUse" />
    <linearGradient
       id="linearGradient3637">
      <stop
         id="stop3639"
         style="stop-color:#f0f0f0;stop-opacity:1"
         offset="0" />
      <stop
         id="stop3641"
         style="stop-color:#dcdcdc;stop-opacity:1"
         offset="1" />
    </linearGradient>
    <linearGradient
       x1="36.357143"
       y1="6"
       x2="36.357143"
       y2="63.893143"
       id="linearGradient3188-83"
       xlink:href="#linearGradient3816"
       gradientUnits="userSpaceOnUse" />
    <radialGradient
       cx="48"
       cy="90.171875"
       r="42"
       fx="48"
       fy="90.171875"
       id="radialGradient3619-1"
       xlink:href="#linearGradient3816"
       gradientUnits="userSpaceOnUse"
       gradientTransform="matrix(1.1573129,0,0,0.99590774,-7.5510206,0.19713193)" />
    <linearGradient
       x1="48"
       y1="90"
       x2="48"
       y2="5.9877172"
       id="linearGradient2843"
       xlink:href="#linearGradient3700-24"
       gradientUnits="userSpaceOnUse"
       gradientTransform="translate(0,100)" />
    <linearGradient
       id="linearGradient3700-24">
      <stop
         id="stop3702-5"
         style="stop-color:#2276c5;stop-opacity:1"
         offset="0" />
      <stop
         id="stop3704-8"
         style="stop-color:#68baf4;stop-opacity:1"
         offset="1" />
    </linearGradient>
    <clipPath
       id="clipPath3649">
      <rect
         width="76"
         height="76"
         rx="4"
         ry="4"
         x="10"
         y="10"
         id="rect3651"
         style="fill:#ffffff;fill-opacity:1;fill-rule:nonzero;stroke:none" />
    </clipPath>
    <filter
       id="filter3657"
       style="color-interpolation-filters:sRGB">
      <feGaussianBlur
         id="feGaussianBlur3659"
         stdDeviation="1.14" />
    </filter>
    <linearGradient
       x1="48"
       y1="20.220806"
       x2="48"
       y2="138.66119"
       id="linearGradient3613-9"
       xlink:href="#linearGradient3816"
       gradientUnits="userSpaceOnUse" />
    <clipPath
       id="clipPath3613-8">
      <rect
         width="84"
         height="84"
         rx="6"
         ry="6"
         x="6"
         y="6"
         id="rect3615-25"
         style="fill:#ffffff;fill-opacity:1;fill-rule:nonzero;stroke:none" />
    </clipPath>
    <filter
       x="-0.192"
       y="-0.192"
       width="1.3839999"
       height="1.3839999"
       id="filter3794-1"
       style="color-interpolation-filters:sRGB">
      <feGaussianBlur
         id="feGaussianBlur3796-5"
         stdDeviation="5.28" />
    </filter>
    <linearGradient
       x1="50.578938"
       y1="79.951607"
       x2="50.578938"
       y2="16.361158"
       id="linearGradient3680-4"
       xlink:href="#linearGradient4081-9"
       gradientUnits="userSpaceOnUse" />
    <linearGradient
       id="linearGradient4081-9">
      <stop
         id="stop4083-8"
         style="stop-color:#aaaaaa;stop-opacity:1"
         offset="0" />
      <stop
         id="stop4085-0"
         style="stop-color:#f0f0f0;stop-opacity:1"
         offset="1" />
    </linearGradient>
    <linearGradient
       y2="47.000011"
       x2="90"
       y1="47.000011"
       x1="6"
       gradientTransform="matrix(1.1392856,0,0,1.1392855,-9.5948059,-9.5464309)"
       gradientUnits="userSpaceOnUse"
       id="linearGradient18211-7"
       xlink:href="#linearGradient5700-9"
       inkscape:collect="always" />
    <linearGradient
       y2="0.27861649"
       x2="59.378193"
       y1="0.27861649"
       x1="2.4652066"
       gradientTransform="matrix(1.0034441,0,0,1.0049592,33.489305,41.473239)"
       gradientUnits="userSpaceOnUse"
       id="linearGradient18209"
       xlink:href="#linearGradient3816"
       inkscape:collect="always" />
    <linearGradient
       gradientUnits="userSpaceOnUse"
       y2="-263.57327"
       x2="588.35095"
       y1="-263.57327"
       x1="497.92789"
       id="linearGradient20151"
       xlink:href="#ButtonShadow-3"
       inkscape:collect="always"
       gradientTransform="translate(-497.81516,301.4291)" />
    <radialGradient
       r="41"
       fy="6.2131939"
       fx="158"
       cy="6.2131939"
       cx="158"
       gradientTransform="matrix(0,1.6209438,-2.0382846,0,160.66427,-243.03657)"
       gradientUnits="userSpaceOnUse"
       id="radialGradient18193"
       xlink:href="#linearGradient3816"
       inkscape:collect="always" />
    <radialGradient
       r="42"
       fy="-27"
       fx="48"
       cy="-27"
       cx="48"
       gradientTransform="matrix(-1.0721726,0,0,-0.87502024,199.46429,-19.125546)"
       gradientUnits="userSpaceOnUse"
       id="radialGradient18195"
       xlink:href="#linearGradient4091-0-3-0-7-0"
       inkscape:collect="always" />
    <linearGradient
       inkscape:collect="always"
       xlink:href="#linearGradient6139-0-0"
       id="linearGradient20287"
       gradientUnits="userSpaceOnUse"
       gradientTransform="matrix(1.1392856,0,0,1.1392855,-6.6857047,-5.5464219)"
       x1="6"
       y1="47.000011"
       x2="90"
       y2="47.000011" />
    <radialGradient
       r="41"
       fy="6.2131939"
       fx="158"
       cy="6.2131939"
       cx="158"
       gradientTransform="matrix(0,1.6209438,-2.0382846,0,160.66427,-243.03657)"
       gradientUnits="userSpaceOnUse"
       id="radialGradient20577"
       xlink:href="#linearGradient3816"
       inkscape:collect="always" />
    <radialGradient
       r="42"
       fy="-27"
       fx="48"
       cy="-27"
       cx="48"
       gradientTransform="matrix(-1.0721726,0,0,-0.87502024,199.46429,-19.125546)"
       gradientUnits="userSpaceOnUse"
       id="radialGradient20579"
       xlink:href="#linearGradient4091-0-3-0-7-0"
       inkscape:collect="always" />
    <linearGradient
       y2="47.000011"
       x2="90"
       y1="47.000011"
       x1="6"
       gradientTransform="matrix(1.1392856,0,0,1.1392855,-6.68571,-5.5464315)"
       gradientUnits="userSpaceOnUse"
       id="linearGradient20587"
       xlink:href="#linearGradient5700-9"
       inkscape:collect="always" />
    <linearGradient
       y2="7.0165396"
       x2="45.447727"
       y1="92.539597"
       x1="45.447727"
       gradientTransform="scale(1.0058652,0.994169)"
       gradientUnits="userSpaceOnUse"
       id="linearGradient20589"
       xlink:href="#ButtonShadow-3"
       inkscape:collect="always" />
  </defs>
  <path
     inkscape:connector-curvature="0"
     id="rect4251-1"
     d="M 89.014285,0.1500091 H 6.9857253 c -3.78699,0 -6.83572,3.04872 -6.83572,6.83571 V 89.014289 c 0,3.78699 3.04873,6.83572 6.83572,6.83572 H 89.014285 c 3.78699,0 6.83572,-3.04873 6.83572,-6.83572 V 6.9857191 c 0,-3.78699 -3.04873,-6.83571 -6.83572,-6.83571 z"
     style="display:inline;fill:url(#linearGradient20287);fill-opacity:1;fill-rule:nonzero;stroke:none" />
  <g
     transform="matrix(1.1392856,0,0,1.1392855,-120.61428,-4.9767939)"
     id="g3272">
    <path
       style="display:inline;opacity:0.2;fill:url(#radialGradient20577);fill-opacity:1;fill-rule:nonzero;stroke:none"
       d="m 112,5.5 c -2.7873,0 -5,2.2127028 -5,5 v 20.71875 7 38.59375 c 1.07066,1.628779 2.89693,2.71875 5,2.71875 h 4 64 4 c 2.10307,0 3.92934,-1.089971 5,-2.71875 v -38.59375 -7 V 10.5 c 0,-2.7872972 -2.2127,-5 -5,-5 z"
       id="path3400-6"
       inkscape:connector-curvature="0"
       sodipodi:nodetypes="sscccsccscccsss" />
    <path
       style="display:inline;opacity:0.45;fill:url(#radialGradient20579);fill-opacity:1;fill-rule:nonzero;stroke:none"
       d="m 112,4.5 c -3.324,0 -6,2.6759996 -6,6 v 15 h 1 v -15 c 0,-2.7872972 2.2127,-5 5,-5 h 72 c 2.7873,0 5,2.2127028 5,5 v 15 h 1 v -15 c 0,-3.3240004 -2.676,-6 -6,-6 z"
       id="path4236-5"
       inkscape:connector-curvature="0" />
    <path
       inkscape:connector-curvature="0"
       id="path4242-5"
       d="m 106,76.942239 v 0.889058 0.889059 0.889059 1.778117 1.778117 c 0,2.95523 2.676,5.334351 6,5.334351 h 72 c 3.324,0 6,-2.379121 6,-5.334351 v -1.778117 -1.778117 -0.889059 -0.889059 -0.889058 c 0,2.95523 -2.676,5.334351 -6,5.334351 h -72 c -3.324,0 -6,-2.379121 -6,-5.334351 z"
       style="opacity:0.46964859;fill:url(#linearGradient19504);fill-opacity:1;fill-rule:nonzero;stroke:none" />
  </g>
  <g
     id="g4021"
     transform="matrix(0.98961168,0,0,1.0555709,-3.0874496,2.7199061)">
    <circle
       transform="matrix(1.2467442,0,0,1.0633819,-54.589655,-6.556752)"
       id="path4002"
       style="opacity:0.71000001;fill:#1c1c1c;fill-opacity:1;fill-rule:nonzero;stroke:none"
       cx="70.373131"
       cy="79.208954"
       r="2.7910447" />
    <circle
       style="fill:#ffffff;fill-opacity:1;fill-rule:nonzero;stroke:none"
       id="path3854"
       transform="matrix(1.0373872,0,0,0.91041754,-39.856546,5.3629056)"
       cx="70.373131"
       cy="79.208954"
       r="2.7910447" />
    <circle
       transform="matrix(0.70316741,0,0,0.61710417,-16.33646,28.595951)"
       id="path3856"
       style="fill:#114751;fill-opacity:1;fill-rule:nonzero;stroke:none"
       cx="70.373131"
       cy="79.208954"
       r="2.7910447" />
    <circle
       style="opacity:0.71000001;fill:#1c1c1c;fill-opacity:1;fill-rule:nonzero;stroke:none"
       id="path4170"
       transform="matrix(1.2467442,0,0,1.0633819,-20.11442,-6.556752)"
       cx="70.373131"
       cy="79.208954"
       r="2.7910447" />
    <circle
       transform="matrix(1.0373872,0,0,0.91041754,-5.3813104,5.3629056)"
       id="path4172"
       style="fill:#ffffff;fill-opacity:1;fill-rule:nonzero;stroke:none"
       cx="70.373131"
       cy="79.208954"
       r="2.7910447" />
    <circle
       style="fill:#114751;fill-opacity:1;fill-rule:nonzero;stroke:none"
       id="path4174"
       transform="matrix(0.70316741,0,0,0.61710417,18.138777,28.595951)"
       cx="70.373131"
       cy="79.208954"
       r="2.7910447" />
    <rect
       ry="1.1481457"
       rx="1.1481457"
       transform="matrix(1.0139776,0,0,0.95205283,3.1886202,-2.9106418)"
       y="83.595505"
       x="40.44944"
       height="3.235955"
       width="12.674157"
       id="rect4176"
       style="opacity:0.75097273;fill:#0c2f31;fill-opacity:0.90454544;stroke:#ffffff;stroke-width:0.49989974;stroke-miterlimit:4;stroke-dasharray:none;stroke-opacity:1" />
  </g>
  <path
     inkscape:connector-curvature="0"
     id="path4972"
     d="m 7.7809453,58.131569 c -1.8851,0 -3.64948,0.91815 -4.75911,2.27182 v 15.08898 c 0,2.40448 2.12257,4.34021 4.75911,4.34021 H 88.685795 c 2.63655,0 4.75911,-1.93573 4.75911,-4.34021 v -15.08898 c -1.10963,-1.35367 -2.874,-2.27182 -4.75911,-2.27182 z m 0,3.25515 H 88.685795 c 1.35943,0 2.37956,0.93033 2.37956,2.1701 v 11.93555 c 0,1.23977 -1.02013,2.17011 -2.37956,2.17011 H 7.7809453 c -1.35942,0 -2.37955,-0.93034 -2.37955,-2.17011 v -11.93555 c 0,-1.23977 1.02013,-2.1701 2.37955,-2.1701 z"
     style="color:#000000;font-style:normal;font-variant:normal;font-weight:normal;font-stretch:normal;font-size:medium;line-height:normal;font-family:Sans;-inkscape-font-specification:Sans;text-indent:0;text-align:start;text-decoration:none;text-decoration-line:none;letter-spacing:normal;word-spacing:normal;text-transform:none;writing-mode:lr-tb;direction:ltr;baseline-shift:baseline;text-anchor:start;display:inline;overflow:visible;visibility:visible;opacity:0.02000002;fill:#000000;fill-opacity:1;fill-rule:nonzero;stroke:none;stroke-width:6;marker:none;enable-background:accumulate" />
  <path
     id="path4970"
     d="M 7.7809453,3.8790481 H 88.685795 c 2.63655,0 4.75911,1.93573 4.75911,4.3402 V 75.492369 c 0,2.40448 -2.12256,4.34021 -4.75911,4.34021 H 7.7809453 c -2.63654,0 -4.75911,-1.93573 -4.75911,-4.34021 V 8.2192491 c 0,-2.40447 2.12257,-4.3402 4.75911,-4.340201 z"
     style="color:#000000;display:inline;overflow:visible;visibility:visible;opacity:0.82114784;fill:#a57ff1;fill-opacity:1;fill-rule:nonzero;stroke:none;stroke-width:2;marker:none;enable-background:accumulate"
     inkscape:connector-curvature="0"
     sodipodi:nodetypes="sssssssss" />
  <path
     id="path4989-5"
     d="M 8.4917253,4.6958681 H 87.508265 c 2.57501,0 4.64803,1.89124 4.64803,4.24046 V 74.663359 c 0,2.34921 -2.07302,4.24046 -4.64803,4.24046 H 8.4917253 c -2.57501,0 -4.64803,-1.89125 -4.64803,-4.24046 V 8.9363291 c 0,-2.34922 2.07302,-4.24046 4.64803,-4.240461 z"
     style="color:#000000;display:inline;overflow:visible;visibility:visible;fill:none;stroke:#000000;stroke-width:2.29036617;stroke-opacity:0.7758007;marker:none;enable-background:accumulate"
     inkscape:connector-curvature="0"
     sodipodi:nodetypes="sssssssss" />
  <g
     id="g4653"
     transform="translate(0,-1.599626)">
    <path
       d="m 80.790299,36.132627 c 0,-0.972066 -0.734899,-1.576657 -2.207303,-1.813798 L 58.800666,31.44177 49.932365,13.509726 c -0.497751,-1.0763 -1.144044,-1.615748 -1.931063,-1.615748 -0.78702,0 -1.430707,0.539448 -1.931066,1.615748 l -8.8683,17.932044 -19.784934,2.877059 c -1.469798,0.237189 -2.207301,0.841732 -2.207301,1.813798 0,0.552463 0.328357,1.183132 0.985076,1.891956 L 30.54094,51.974642 27.153109,71.678795 c -0.05212,0.367452 -0.07818,0.630645 -0.07818,0.789628 0,0.552463 0.138131,1.01895 0.414359,1.399416 0.276235,0.380488 0.690594,0.57072 1.240467,0.57072 0.474296,0 0.998106,-0.156361 1.576643,-0.471684 l 17.694906,-9.300888 17.69751,9.300888 c 0.552478,0.315323 1.078897,0.471684 1.576646,0.471684 0.526415,0 0.927743,-0.19028 1.201377,-0.57072 0.276238,-0.380466 0.414356,-0.846953 0.414356,-1.399416 0,-0.341398 -0.01295,-0.604616 -0.03909,-0.789628 L 65.461665,51.974642 79.76613,38.024583 c 0.682781,-0.682772 1.024169,-1.313417 1.024169,-1.891956"
       id="path4649"
       inkscape:connector-curvature="0"
       style="fill:#a57ff1;fill-opacity:1;stroke:#000000;stroke-width:3.43213391;stroke-opacity:0.15648858" />
    <path
       style="fill-opacity:0.58999999;stroke-width:3.43213391"
       inkscape:connector-curvature="0"
       id="path29"
       d="m 80.790299,36.132627 c 0,-0.972066 -0.734899,-1.576657 -2.207303,-1.813798 L 58.800666,31.44177 49.932365,13.509726 c -0.497751,-1.0763 -1.144044,-1.615748 -1.931063,-1.615748 -0.78702,0 -1.430707,0.539448 -1.931066,1.615748 l -8.8683,17.932044 -19.784934,2.877059 c -1.469798,0.237189 -2.207301,0.841732 -2.207301,1.813798 0,0.552463 0.328357,1.183132 0.985076,1.891956 L 30.54094,51.974642 27.153109,71.678795 c -0.05212,0.367452 -0.07818,0.630645 -0.07818,0.789628 0,0.552463 0.138131,1.01895 0.414359,1.399416 0.276235,0.380488 0.690594,0.57072 1.240467,0.57072 0.474296,0 0.998106,-0.156361 1.576643,-0.471684 l 17.694906,-9.300888 17.69751,9.300888 c 0.552478,0.315323 1.078897,0.471684 1.576646,0.471684 0.526415,0 0.927743,-0.19028 1.201377,-0.57072 0.276238,-0.380466 0.414356,-0.846953 0.414356,-1.399416 0,-0.341398 -0.01295,-0.604616 -0.03909,-0.789628 L 65.461665,51.974642 79.76613,38.024583 c 0.682781,-0.682772 1.024169,-1.313417 1.024169,-1.891956" />
  </g>
  <path
     inkscape:connector-curvature="0"
     id="path4974"
     d="m 35.963005,3.7764781 c 8.3294,26.1840409 16.98471,51.7512709 25.76598,75.9535309 h 26.58394 c 2.63654,0 4.75908,-1.93573 4.75908,-4.3402 V 8.1166791 c 0,-2.40447 -2.12254,-4.3402 -4.75908,-4.3402 z"
     style="color:#000000;display:inline;overflow:visible;visibility:visible;opacity:0.30882353;fill:url(#linearGradient18209);fill-opacity:1;fill-rule:nonzero;stroke:none;stroke-width:2;marker:none;enable-background:accumulate" />
  <path
     style="display:inline;opacity:0.72794118;fill:url(#linearGradient20587);fill-opacity:1;fill-rule:nonzero;stroke:none"
     d="M 89.01428,0.14999855 H 6.98573 C 3.19874,0.14999855 0.15,3.1987174 0.15,6.9857084 V 89.014278 c 0,3.786993 3.04874,6.835723 6.83573,6.835723 h 82.02855 c 3.78699,0 6.83572,-3.04873 6.83572,-6.835723 V 6.9857084 c 0,-3.7869911 -3.04873,-6.83570985 -6.83572,-6.83570985 z"
     id="path5696"
     inkscape:connector-curvature="0" />
  <g
     style="display:inline;fill:#364e59"
     transform="matrix(0.34960906,0,0,0.34960906,-148.10731,-124.73473)"
     id="g4043"
     inkscape:label="Layer 1" />
  <g
     inkscape:label="Layer 1"
     id="g4048"
     transform="matrix(0.34960906,0,0,0.34960906,-143.84249,-3.0549961)"
     style="display:inline;fill:#804d00" />
</svg>
