<?xml version="1.0" encoding="UTF-8" standalone="no"?>
<!-- Created with Inkscape (http://www.inkscape.org/) -->

<svg
   xmlns:dc="http://purl.org/dc/elements/1.1/"
   xmlns:cc="http://creativecommons.org/ns#"
   xmlns:rdf="http://www.w3.org/1999/02/22-rdf-syntax-ns#"
   xmlns:svg="http://www.w3.org/2000/svg"
   xmlns="http://www.w3.org/2000/svg"
   xmlns:xlink="http://www.w3.org/1999/xlink"
   xmlns:sodipodi="http://sodipodi.sourceforge.net/DTD/sodipodi-0.dtd"
   xmlns:inkscape="http://www.inkscape.org/namespaces/inkscape"
   width="96"
   height="96"
   id="svg2"
   version="1.1"
   inkscape:version="0.48.5 r10040"
   sodipodi:docname="start-here-fedora.svg">
  <script
     xlink:href=""
     id="script2985" />
  <defs
     id="defs4">
    <linearGradient
       inkscape:collect="always"
       id="linearGradient3888-8-4-8-4-6-9-0-8-7-9">
      <stop
         style="stop-color:#ffffff;stop-opacity:1;"
         offset="0"
         id="stop3890-4-7-9-5-7-0-8-8-8-6" />
      <stop
         style="stop-color:#ffffff;stop-opacity:0;"
         offset="1"
         id="stop3892-5-8-2-8-3-3-3-06-4-4" />
    </linearGradient>
    <linearGradient
       id="linearGradient5700">
      <stop
         id="stop5702"
         offset="0"
         style="stop-color:#ffffff;stop-opacity:0;" />
      <stop
         style="stop-color:#ffffff;stop-opacity:0.85135138;"
         offset="0.03681535"
         id="stop5704" />
      <stop
         id="stop5706"
         offset="0.06506088"
         style="stop-color:#ffffff;stop-opacity:0;" />
      <stop
         style="stop-color:#ffffff;stop-opacity:0;"
         offset="0.94493848"
         id="stop5712" />
      <stop
         style="stop-color:#ffffff;stop-opacity:0.85135138;"
         offset="0.96582276"
         id="stop5710" />
      <stop
         id="stop5708"
         offset="1"
         style="stop-color:#ffffff;stop-opacity:0;" />
    </linearGradient>
    <linearGradient
       gradientTransform="scale(1.0058652,0.994169)"
       gradientUnits="userSpaceOnUse"
       id="ButtonShadow"
       y2="7.0165396"
       x2="45.447727"
       y1="92.539597"
       x1="45.447727">
      <stop
         offset="0"
         style="stop-color:#000000;stop-opacity:1"
         id="stop3750" />
      <stop
         offset="1"
         style="stop-color:#000000;stop-opacity:0.58823532"
         id="stop3752" />
    </linearGradient>
    <filter
       id="filter3174"
       color-interpolation-filters="sRGB">
      <feGaussianBlur
         stdDeviation="1.71"
         id="feGaussianBlur3176" />
    </filter>
    <radialGradient
       gradientTransform="matrix(0.25364919,0,0,0.25365619,16,16.000007)"
       gradientUnits="userSpaceOnUse"
       xlink:href="#radialGradient3897-3"
       id="radialGradient2877"
       fy="133.10451"
       fx="115.8989"
       r="154.62019"
       cy="133.10451"
       cx="115.8989" />
    <radialGradient
       gradientUnits="userSpaceOnUse"
       id="radialGradient3897-3"
       fy="133.10451"
       fx="115.8989"
       r="154.62019"
       cy="133.10451"
       cx="115.8989">
      <stop
         offset="0"
         style="stop-color:#294172;stop-opacity:0.52941179;"
         id="stop3899-4" />
      <stop
         offset="1"
         style="stop-color:#244463;stop-opacity:1;"
         id="stop3901-7" />
    </radialGradient>
    <radialGradient
       cx="115.8989"
       cy="133.10451"
       r="154.62019"
       fx="115.8989"
       fy="133.10451"
       id="radialGradient4257"
       gradientUnits="userSpaceOnUse">
      <stop
         id="stop4259"
         style="stop-color:#329adc;stop-opacity:1;"
         offset="0" />
      <stop
         id="stop4261"
         style="stop-color:#145e94;stop-opacity:1;"
         offset="1" />
    </radialGradient>
    <linearGradient
       inkscape:collect="always"
       id="linearGradient3888-8-4-8-6">
      <stop
         style="stop-color:#ffffff;stop-opacity:1;"
         offset="0"
         id="stop3890-4-7-9-7" />
      <stop
         style="stop-color:#ffffff;stop-opacity:0;"
         offset="1"
         id="stop3892-5-8-2-7" />
    </linearGradient>
    <linearGradient
       id="linearGradient4091-0-3-0-7">
      <stop
         style="stop-color:#ffffff;stop-opacity:1;"
         offset="0"
         id="stop4093-3-6-4-2" />
      <stop
         id="stop4099-6-1-8-3"
         offset="0.80000001"
         style="stop-color:#ffffff;stop-opacity:1;" />
      <stop
         style="stop-color:#ffffff;stop-opacity:0;"
         offset="1"
         id="stop4095-1-0-7-9" />
    </linearGradient>
    <linearGradient
       id="linearGradient3832-0-6-1-1">
      <stop
         style="stop-color:#000000;stop-opacity:1;"
         offset="0"
         id="stop3834-6-3-7-1" />
      <stop
         id="stop3872-2-4"
         offset="0.1"
         style="stop-color:#000000;stop-opacity:0.58823532;" />
      <stop
         style="stop-color:#000000;stop-opacity:0.58823532;"
         offset="0.89999998"
         id="stop3844-6-2-7-6" />
      <stop
         style="stop-color:#000000;stop-opacity:1;"
         offset="1"
         id="stop3836-5-0-2-9" />
    </linearGradient>
    <linearGradient
       gradientTransform="matrix(1.1353753,0,0,1.1336634,-40.037124,-46.787637)"
       y2="47.000011"
       x2="90"
       y1="47.000011"
       x1="6"
       gradientUnits="userSpaceOnUse"
       id="linearGradient5021"
       xlink:href="#linearGradient6139-0"
       inkscape:collect="always" />
    <linearGradient
       id="linearGradient6139-0">
      <stop
         id="stop6141-2"
         offset="0"
         style="stop-color:#b7b7b7;stop-opacity:1;" />
      <stop
         style="stop-color:#ffffff;stop-opacity:1;"
         offset="0.25"
         id="stop6151-0" />
      <stop
         style="stop-color:#9d9d9d;stop-opacity:1;"
         offset="0.5"
         id="stop6147-1" />
      <stop
         id="stop6149-4"
         offset="0.75"
         style="stop-color:#fafafa;stop-opacity:1;" />
      <stop
         id="stop6143-4"
         offset="1"
         style="stop-color:#b7b7b7;stop-opacity:1;" />
    </linearGradient>
    <linearGradient
       inkscape:collect="always"
       xlink:href="#linearGradient6139-0"
       id="linearGradient4533"
       gradientUnits="userSpaceOnUse"
       gradientTransform="matrix(1.1392856,0,0,1.1392855,-13.958438,-31.910064)"
       x1="6"
       y1="47.000011"
       x2="90"
       y2="47.000011" />
    <radialGradient
       inkscape:collect="always"
       xlink:href="#linearGradient3888-8-4-8-6"
       id="radialGradient4535"
       gradientUnits="userSpaceOnUse"
       gradientTransform="matrix(0,1.6209438,-2.0382846,0,160.66427,-243.03657)"
       cx="158"
       cy="6.2131939"
       fx="158"
       fy="6.2131939"
       r="41" />
    <radialGradient
       inkscape:collect="always"
       xlink:href="#linearGradient4091-0-3-0-7"
       id="radialGradient4537"
       gradientUnits="userSpaceOnUse"
       gradientTransform="matrix(-1.0721726,0,0,-0.87502024,199.46429,-19.125546)"
       cx="48"
       cy="-27"
       fx="48"
       fy="-27"
       r="42" />
    <linearGradient
       inkscape:collect="always"
       xlink:href="#linearGradient3832-0-6-1-1"
       id="linearGradient4539"
       gradientUnits="userSpaceOnUse"
       gradientTransform="matrix(1,0,0,0.88905855,200,8.9431737)"
       x1="-94"
       y1="82.984398"
       x2="-10.187523"
       y2="82.984398" />
    <radialGradient
       inkscape:collect="always"
       xlink:href="#radialGradient4257"
       id="radialGradient4541"
       gradientUnits="userSpaceOnUse"
       gradientTransform="matrix(1.0034441,0,0,0.8428725,26.216578,15.171305)"
       cx="14.693458"
       cy="0.38067999"
       fx="14.693458"
       fy="0.38067999"
       r="45.056355" />
    <linearGradient
       inkscape:collect="always"
       xlink:href="#ButtonShadow"
       id="linearGradient4543"
       gradientUnits="userSpaceOnUse"
       gradientTransform="scale(1.0058652,0.994169)"
       x1="45.447727"
       y1="92.539597"
       x2="45.447727"
       y2="7.0165396" />
    <radialGradient
       inkscape:collect="always"
       xlink:href="#radialGradient3897-3"
       id="radialGradient4545"
       gradientUnits="userSpaceOnUse"
       gradientTransform="matrix(0.25364919,0,0,0.25365619,16,16.000007)"
       cx="115.8989"
       cy="133.10451"
       fx="115.8989"
       fy="133.10451"
       r="154.62019" />
    <linearGradient
       inkscape:collect="always"
       xlink:href="#linearGradient5700"
       id="linearGradient4547"
       gradientUnits="userSpaceOnUse"
       gradientTransform="matrix(1.1392856,0,0,1.1392855,-13.958432,-31.910062)"
       x1="6"
       y1="47.000011"
       x2="90"
       y2="47.000011" />
    <linearGradient
       inkscape:collect="always"
       xlink:href="#linearGradient3888-8-4-8-4-6-9-0-8-7-9"
       id="linearGradient4549"
       gradientUnits="userSpaceOnUse"
       gradientTransform="matrix(1.0034441,0,0,1.0049592,26.216578,15.109602)"
       x1="2.4652066"
       y1="0.27861649"
       x2="59.378193"
       y2="0.27861649" />
    <linearGradient
       gradientTransform="matrix(1.0034441,0,0,1.0049592,33.125669,20.018693)"
       inkscape:collect="always"
       xlink:href="#linearGradient3888-8-4-8-4-6-9-0-8-7-9-8"
       id="linearGradient3980"
       x1="2.4652066"
       y1="0.27861649"
       x2="59.378193"
       y2="0.27861649"
       gradientUnits="userSpaceOnUse" />
    <linearGradient
       inkscape:collect="always"
       id="linearGradient3888-8-4-8-4-6-9-0-8-7-9-8">
      <stop
         style="stop-color:#ffffff;stop-opacity:1;"
         offset="0"
         id="stop3890-4-7-9-5-7-0-8-8-8-6-6" />
      <stop
         style="stop-color:#ffffff;stop-opacity:0;"
         offset="1"
         id="stop3892-5-8-2-8-3-3-3-06-4-4-6" />
    </linearGradient>
    <linearGradient
       inkscape:collect="always"
       xlink:href="#linearGradient5700-3"
       id="linearGradient5698"
       gradientUnits="userSpaceOnUse"
       gradientTransform="matrix(1.1392856,0,0,1.1392855,-7.0493415,-27.000971)"
       x1="6"
       y1="47.000011"
       x2="90"
       y2="47.000011" />
    <linearGradient
       id="linearGradient5700-3">
      <stop
         id="stop5702-1"
         offset="0"
         style="stop-color:#ffffff;stop-opacity:0;" />
      <stop
         style="stop-color:#ffffff;stop-opacity:0.85135138;"
         offset="0.03681535"
         id="stop5704-9" />
      <stop
         id="stop5706-5"
         offset="0.06506088"
         style="stop-color:#ffffff;stop-opacity:0;" />
      <stop
         style="stop-color:#ffffff;stop-opacity:0;"
         offset="0.94493848"
         id="stop5712-8" />
      <stop
         style="stop-color:#ffffff;stop-opacity:0.85135138;"
         offset="0.96582276"
         id="stop5710-6" />
      <stop
         id="stop5708-2"
         offset="1"
         style="stop-color:#ffffff;stop-opacity:0;" />
    </linearGradient>
    <linearGradient
       gradientTransform="scale(1.0058652,0.994169)"
       gradientUnits="userSpaceOnUse"
       id="ButtonShadow-5"
       y2="7.0165396"
       x2="45.447727"
       y1="92.539597"
       x1="45.447727">
      <stop
         offset="0"
         style="stop-color:#000000;stop-opacity:1"
         id="stop3750-6" />
      <stop
         offset="1"
         style="stop-color:#000000;stop-opacity:0.58823532"
         id="stop3752-0" />
    </linearGradient>
    <filter
       id="filter3174-4"
       color-interpolation-filters="sRGB">
      <feGaussianBlur
         stdDeviation="1.71"
         id="feGaussianBlur3176-6" />
    </filter>
    <radialGradient
       gradientTransform="matrix(1,0,0,1.0001879,0,-0.00901697)"
       gradientUnits="userSpaceOnUse"
       xlink:href="#linearGradient3919"
       id="radialGradient3925"
       fy="71.995491"
       fx="48"
       r="32.993801"
       cy="71.995491"
       cx="48" />
    <linearGradient
       id="linearGradient3919">
      <stop
         offset="0"
         style="stop-color:#fafafa;stop-opacity:1"
         id="stop3921" />
      <stop
         offset="1"
         style="stop-color:#f0f0f0;stop-opacity:1"
         id="stop3923-7" />
    </linearGradient>
    <linearGradient
       gradientTransform="matrix(-0.13677913,0,0,0.13677146,122.19582,8.5219823)"
       gradientUnits="userSpaceOnUse"
       xlink:href="#path1082_2_-8"
       id="linearGradient3060-4"
       y2="303.14029"
       x2="606.91248"
       y1="104.50665"
       x1="541.33502" />
    <linearGradient
       gradientTransform="translate(287,-83)"
       gradientUnits="userSpaceOnUse"
       id="path1082_2_-8"
       y2="129.3468"
       x2="112.49853"
       y1="6.1372099"
       x1="112.49854">
      <stop
         offset="0"
         style="stop-color:#ffffff;stop-opacity:0"
         id="stop193-9" />
      <stop
         offset="1"
         style="stop-color:#ffffff;stop-opacity:0.60465115"
         id="stop195-6" />
      <midPointStop
         offset="0"
         style="stop-color:#FFFFFF"
         id="midPointStop197-7" />
      <midPointStop
         offset="0.5"
         style="stop-color:#FFFFFF"
         id="midPointStop199-4" />
      <midPointStop
         offset="1"
         style="stop-color:#000000"
         id="midPointStop201-8" />
    </linearGradient>
    <radialGradient
       inkscape:collect="always"
       xlink:href="#radialGradient4257-0"
       id="radialGradient3974"
       cx="14.693458"
       cy="0.38067999"
       fx="14.693458"
       fy="0.38067999"
       r="45.056355"
       gradientTransform="matrix(1.0034441,0,0,0.8428725,33.125669,20.080396)"
       gradientUnits="userSpaceOnUse" />
    <radialGradient
       cx="115.8989"
       cy="133.10451"
       r="154.62019"
       fx="115.8989"
       fy="133.10451"
       id="radialGradient4257-0"
       gradientUnits="userSpaceOnUse">
      <stop
         id="stop4259-5"
         style="stop-color:#329adc;stop-opacity:1;"
         offset="0" />
      <stop
         id="stop4261-2"
         style="stop-color:#145e94;stop-opacity:1;"
         offset="1" />
    </radialGradient>
    <radialGradient
       inkscape:collect="always"
       xlink:href="#linearGradient3888-8-4-8-6-0"
       id="radialGradient3114"
       gradientUnits="userSpaceOnUse"
       gradientTransform="matrix(0,1.6209438,-2.0382846,0,160.66427,-243.03657)"
       cx="158"
       cy="6.2131939"
       fx="158"
       fy="6.2131939"
       r="41" />
    <linearGradient
       inkscape:collect="always"
       id="linearGradient3888-8-4-8-6-0">
      <stop
         style="stop-color:#ffffff;stop-opacity:1;"
         offset="0"
         id="stop3890-4-7-9-7-2" />
      <stop
         style="stop-color:#ffffff;stop-opacity:0;"
         offset="1"
         id="stop3892-5-8-2-7-8" />
    </linearGradient>
    <radialGradient
       inkscape:collect="always"
       xlink:href="#linearGradient4091-0-3-0-7-4"
       id="radialGradient3118"
       gradientUnits="userSpaceOnUse"
       gradientTransform="matrix(-1.0721726,0,0,-0.87502024,199.46429,-19.125546)"
       cx="48"
       cy="-27"
       fx="48"
       fy="-27"
       r="42" />
    <linearGradient
       id="linearGradient4091-0-3-0-7-4">
      <stop
         style="stop-color:#ffffff;stop-opacity:1;"
         offset="0"
         id="stop4093-3-6-4-2-4" />
      <stop
         id="stop4099-6-1-8-3-3"
         offset="0.80000001"
         style="stop-color:#ffffff;stop-opacity:1;" />
      <stop
         style="stop-color:#ffffff;stop-opacity:0;"
         offset="1"
         id="stop4095-1-0-7-9-7" />
    </linearGradient>
    <linearGradient
       inkscape:collect="always"
       xlink:href="#linearGradient3832-0-6-1-1-2"
       id="linearGradient3120"
       gradientUnits="userSpaceOnUse"
       gradientTransform="matrix(1,0,0,0.88905855,200,8.9431737)"
       x1="-94"
       y1="82.984398"
       x2="-10.187523"
       y2="82.984398" />
    <linearGradient
       id="linearGradient3832-0-6-1-1-2">
      <stop
         style="stop-color:#000000;stop-opacity:1;"
         offset="0"
         id="stop3834-6-3-7-1-2" />
      <stop
         id="stop3872-2-4-0"
         offset="0.1"
         style="stop-color:#000000;stop-opacity:0.58823532;" />
      <stop
         style="stop-color:#000000;stop-opacity:0.58823532;"
         offset="0.89999998"
         id="stop3844-6-2-7-6-7" />
      <stop
         style="stop-color:#000000;stop-opacity:1;"
         offset="1"
         id="stop3836-5-0-2-9-3" />
    </linearGradient>
    <linearGradient
       gradientTransform="matrix(1.1353753,0,0,1.1336634,-40.037124,-46.787637)"
       y2="47.000011"
       x2="90"
       y1="47.000011"
       x1="6"
       gradientUnits="userSpaceOnUse"
       id="linearGradient5021-0"
       xlink:href="#linearGradient6139-0-4"
       inkscape:collect="always" />
    <linearGradient
       id="linearGradient6139-0-4">
      <stop
         id="stop6141-2-3"
         offset="0"
         style="stop-color:#b7b7b7;stop-opacity:1;" />
      <stop
         style="stop-color:#ffffff;stop-opacity:1;"
         offset="0.25"
         id="stop6151-0-7" />
      <stop
         style="stop-color:#9d9d9d;stop-opacity:1;"
         offset="0.5"
         id="stop6147-1-9" />
      <stop
         id="stop6149-4-7"
         offset="0.75"
         style="stop-color:#fafafa;stop-opacity:1;" />
      <stop
         id="stop6143-4-5"
         offset="1"
         style="stop-color:#b7b7b7;stop-opacity:1;" />
    </linearGradient>
    <linearGradient
       y2="47.000011"
       x2="90"
       y1="47.000011"
       x1="6"
       gradientTransform="matrix(1.1392856,0,0,1.1392855,-7.0493475,-27.000973)"
       gradientUnits="userSpaceOnUse"
       id="linearGradient5411"
       xlink:href="#linearGradient6139-0-4"
       inkscape:collect="always" />
    <linearGradient
       inkscape:collect="always"
       xlink:href="#linearGradient6139-0-4"
       id="linearGradient5617"
       gradientUnits="userSpaceOnUse"
       gradientTransform="matrix(1.1392856,0,0,1.1392855,-7.0493475,-27.000973)"
       x1="6"
       y1="47.000011"
       x2="90"
       y2="47.000011" />
    <radialGradient
       inkscape:collect="always"
       xlink:href="#linearGradient3888-8-4-8-6-0"
       id="radialGradient5619"
       gradientUnits="userSpaceOnUse"
       gradientTransform="matrix(0,1.6209438,-2.0382846,0,160.66427,-243.03657)"
       cx="158"
       cy="6.2131939"
       fx="158"
       fy="6.2131939"
       r="41" />
    <radialGradient
       inkscape:collect="always"
       xlink:href="#linearGradient4091-0-3-0-7-4"
       id="radialGradient5621"
       gradientUnits="userSpaceOnUse"
       gradientTransform="matrix(-1.0721726,0,0,-0.87502024,199.46429,-19.125546)"
       cx="48"
       cy="-27"
       fx="48"
       fy="-27"
       r="42" />
    <linearGradient
       inkscape:collect="always"
       xlink:href="#linearGradient3832-0-6-1-1-2"
       id="linearGradient5623"
       gradientUnits="userSpaceOnUse"
       gradientTransform="matrix(1,0,0,0.88905855,200,8.9431737)"
       x1="-94"
       y1="82.984398"
       x2="-10.187523"
       y2="82.984398" />
    <radialGradient
       inkscape:collect="always"
       xlink:href="#radialGradient4257-0"
       id="radialGradient5625"
       gradientUnits="userSpaceOnUse"
       gradientTransform="matrix(1.0034441,0,0,0.8428725,33.125669,20.080396)"
       cx="14.693458"
       cy="0.38067999"
       fx="14.693458"
       fy="0.38067999"
       r="45.056355" />
    <linearGradient
       inkscape:collect="always"
       xlink:href="#ButtonShadow-5"
       id="linearGradient5627"
       gradientUnits="userSpaceOnUse"
       gradientTransform="scale(1.0058652,0.994169)"
       x1="45.447727"
       y1="92.539597"
       x2="45.447727"
       y2="7.0165396" />
    <radialGradient
       inkscape:collect="always"
       xlink:href="#linearGradient3919"
       id="radialGradient5629"
       gradientUnits="userSpaceOnUse"
       gradientTransform="matrix(1,0,0,1.0001879,0,-0.00901697)"
       cx="48"
       cy="71.995491"
       fx="48"
       fy="71.995491"
       r="32.993801" />
    <linearGradient
       inkscape:collect="always"
       xlink:href="#path1082_2_-8"
       id="linearGradient5631"
       gradientUnits="userSpaceOnUse"
       gradientTransform="matrix(-0.13677913,0,0,0.13677146,122.19582,8.5219823)"
       x1="541.33502"
       y1="104.50665"
       x2="606.91248"
       y2="303.14029" />
    <linearGradient
       inkscape:collect="always"
       xlink:href="#linearGradient5700-3"
       id="linearGradient5633"
       gradientUnits="userSpaceOnUse"
       gradientTransform="matrix(1.1392856,0,0,1.1392855,-7.0493415,-27.000971)"
       x1="6"
       y1="47.000011"
       x2="90"
       y2="47.000011" />
    <linearGradient
       inkscape:collect="always"
       xlink:href="#linearGradient3888-8-4-8-4-6-9-0-8-7-9-8"
       id="linearGradient5635"
       gradientUnits="userSpaceOnUse"
       gradientTransform="matrix(1.0034441,0,0,1.0049592,33.125669,20.018693)"
       x1="2.4652066"
       y1="0.27861649"
       x2="59.378193"
       y2="0.27861649" />
  </defs>
  <sodipodi:namedview
     id="base"
     pagecolor="#ffffff"
     bordercolor="#666666"
     borderopacity="1.0"
     inkscape:pageopacity="0.0"
     inkscape:pageshadow="2"
     inkscape:zoom="5.5"
     inkscape:cx="44.838148"
     inkscape:cy="32"
     inkscape:current-layer="layer1"
     showgrid="true"
     inkscape:document-units="px"
     inkscape:grid-bbox="true"
     inkscape:showpageshadow="false"
     gridtolerance="1"
     guidetolerance="1"
     objecttolerance="1"
     inkscape:window-width="1280"
     inkscape:window-height="959"
     inkscape:window-x="0"
     inkscape:window-y="0"
     inkscape:window-maximized="1" />
  <metadata
     id="metadata7">
    <rdf:RDF>
      <cc:Work
         rdf:about="">
        <dc:format>image/svg+xml</dc:format>
        <dc:type
           rdf:resource="http://purl.org/dc/dcmitype/StillImage" />
        <dc:title></dc:title>
      </cc:Work>
    </rdf:RDF>
  </metadata>
  <g
     id="layer1"
     inkscape:label="Layer 1"
     inkscape:groupmode="layer"
     transform="translate(0,32)">
    <g
       id="g5586"
       transform="translate(0.36363468,-10.545455)">
      <path
         style="fill:url(#linearGradient5617);fill-opacity:1;fill-rule:nonzero;stroke:none;display:inline"
         d="m 88.650647,-21.304546 -82.0285663,0 c -3.786986,0 -6.83571406,3.048728 -6.83571406,6.835712 l 0,82.028577 c 0,3.786985 3.04872806,6.835712 6.83571406,6.835712 l 82.0285663,0 c 3.786986,0 6.835714,-3.048727 6.835714,-6.835712 l 0,-82.028577 c 0,-3.786984 -3.048728,-6.835712 -6.835714,-6.835712 z"
         id="rect4251-1"
         inkscape:connector-curvature="0" />
      <g
         id="g3272"
         transform="matrix(1.1392856,0,0,1.1392855,-120.9779,-26.43133)">
        <path
           sodipodi:nodetypes="sscccsccscccsss"
           inkscape:connector-curvature="0"
           id="path3400-6"
           d="m 112,5.5 c -2.7873,0 -5,2.2127028 -5,5 l 0,20.71875 0,7 0,38.59375 c 1.07066,1.628779 2.89693,2.71875 5,2.71875 l 4,0 64,0 4,0 c 2.10307,0 3.92934,-1.089971 5,-2.71875 l 0,-38.59375 0,-7 L 189,10.5 c 0,-2.7872972 -2.2127,-5 -5,-5 z"
           style="opacity:0.2;fill:url(#radialGradient5619);fill-opacity:1;fill-rule:nonzero;stroke:none;display:inline" />
        <path
           inkscape:connector-curvature="0"
           id="path4236-5"
           d="m 112,4.5 c -3.324,0 -6,2.6759996 -6,6 l 0,15 1,0 0,-15 c 0,-2.7872972 2.2127,-5 5,-5 l 72,0 c 2.7873,0 5,2.2127028 5,5 l 0,15 1,0 0,-15 c 0,-3.3240004 -2.676,-6 -6,-6 l -72,0 z"
           style="opacity:0.45;fill:url(#radialGradient5621);fill-opacity:1;fill-rule:nonzero;stroke:none;display:inline" />
        <path
           style="opacity:0.46964859;fill:url(#linearGradient5623);fill-opacity:1;fill-rule:nonzero;stroke:none"
           d="m 106,76.942239 0,0.889058 0,0.889059 0,0.889059 0,1.778117 0,1.778117 c 0,2.95523 2.676,5.334351 6,5.334351 l 72,0 c 3.324,0 6,-2.379121 6,-5.334351 l 0,-1.778117 0,-1.778117 0,-0.889059 0,-0.889059 0,-0.889058 c 0,2.95523 -2.676,5.334351 -6,5.334351 l -72,0 c -3.324,0 -6,-2.379121 -6,-5.334351 z"
           id="path4242-5"
           inkscape:connector-curvature="0" />
      </g>
      <g
         transform="matrix(0.98961168,0,0,1.0555709,-3.4510802,-18.734636)"
         id="g4021">
        <path
           sodipodi:type="arc"
           style="opacity:0.71000001;fill:#1c1c1c;fill-opacity:1;fill-rule:nonzero;stroke:none"
           id="path4002"
           sodipodi:cx="70.373131"
           sodipodi:cy="79.208954"
           sodipodi:rx="2.7910447"
           sodipodi:ry="2.7910447"
           d="m 73.164176,79.208954 c 0,1.541451 -1.249594,2.791045 -2.791045,2.791045 -1.541452,0 -2.791045,-1.249594 -2.791045,-2.791045 0,-1.541452 1.249593,-2.791045 2.791045,-2.791045 1.541451,0 2.791045,1.249593 2.791045,2.791045 z"
           transform="matrix(1.2467442,0,0,1.0633819,-54.589655,-6.556752)" />
        <path
           transform="matrix(1.0373872,0,0,0.91041754,-39.856546,5.3629056)"
           d="m 73.164176,79.208954 c 0,1.541451 -1.249594,2.791045 -2.791045,2.791045 -1.541452,0 -2.791045,-1.249594 -2.791045,-2.791045 0,-1.541452 1.249593,-2.791045 2.791045,-2.791045 1.541451,0 2.791045,1.249593 2.791045,2.791045 z"
           sodipodi:ry="2.7910447"
           sodipodi:rx="2.7910447"
           sodipodi:cy="79.208954"
           sodipodi:cx="70.373131"
           id="path3854"
           style="fill:#ffffff;fill-opacity:1;fill-rule:nonzero;stroke:none"
           sodipodi:type="arc" />
        <path
           sodipodi:type="arc"
           style="fill:#114751;fill-opacity:1;fill-rule:nonzero;stroke:none"
           id="path3856"
           sodipodi:cx="70.373131"
           sodipodi:cy="79.208954"
           sodipodi:rx="2.7910447"
           sodipodi:ry="2.7910447"
           d="m 73.164176,79.208954 c 0,1.541451 -1.249594,2.791045 -2.791045,2.791045 -1.541452,0 -2.791045,-1.249594 -2.791045,-2.791045 0,-1.541452 1.249593,-2.791045 2.791045,-2.791045 1.541451,0 2.791045,1.249593 2.791045,2.791045 z"
           transform="matrix(0.70316741,0,0,0.61710417,-16.33646,28.595951)" />
        <path
           transform="matrix(1.2467442,0,0,1.0633819,-20.11442,-6.556752)"
           d="m 73.164176,79.208954 c 0,1.541451 -1.249594,2.791045 -2.791045,2.791045 -1.541452,0 -2.791045,-1.249594 -2.791045,-2.791045 0,-1.541452 1.249593,-2.791045 2.791045,-2.791045 1.541451,0 2.791045,1.249593 2.791045,2.791045 z"
           sodipodi:ry="2.7910447"
           sodipodi:rx="2.7910447"
           sodipodi:cy="79.208954"
           sodipodi:cx="70.373131"
           id="path4170"
           style="opacity:0.71000001;fill:#1c1c1c;fill-opacity:1;fill-rule:nonzero;stroke:none"
           sodipodi:type="arc" />
        <path
           sodipodi:type="arc"
           style="fill:#ffffff;fill-opacity:1;fill-rule:nonzero;stroke:none"
           id="path4172"
           sodipodi:cx="70.373131"
           sodipodi:cy="79.208954"
           sodipodi:rx="2.7910447"
           sodipodi:ry="2.7910447"
           d="m 73.164176,79.208954 c 0,1.541451 -1.249594,2.791045 -2.791045,2.791045 -1.541452,0 -2.791045,-1.249594 -2.791045,-2.791045 0,-1.541452 1.249593,-2.791045 2.791045,-2.791045 1.541451,0 2.791045,1.249593 2.791045,2.791045 z"
           transform="matrix(1.0373872,0,0,0.91041754,-5.3813104,5.3629056)" />
        <path
           transform="matrix(0.70316741,0,0,0.61710417,18.138777,28.595951)"
           d="m 73.164176,79.208954 c 0,1.541451 -1.249594,2.791045 -2.791045,2.791045 -1.541452,0 -2.791045,-1.249594 -2.791045,-2.791045 0,-1.541452 1.249593,-2.791045 2.791045,-2.791045 1.541451,0 2.791045,1.249593 2.791045,2.791045 z"
           sodipodi:ry="2.7910447"
           sodipodi:rx="2.7910447"
           sodipodi:cy="79.208954"
           sodipodi:cx="70.373131"
           id="path4174"
           style="fill:#114751;fill-opacity:1;fill-rule:nonzero;stroke:none"
           sodipodi:type="arc" />
        <rect
           style="opacity:0.75097273;fill:#0c2f31;fill-opacity:0.90454544;stroke:#ffffff;stroke-width:0.49989974;stroke-miterlimit:4;stroke-opacity:1;stroke-dasharray:none"
           id="rect4176"
           width="12.674157"
           height="3.235955"
           x="40.44944"
           y="83.595505"
           transform="matrix(1.0139776,0,0,0.95205283,3.1886202,-2.9106418)"
           rx="1.1481457"
           ry="1.1481457" />
      </g>
      <path
         style="font-size:medium;font-style:normal;font-variant:normal;font-weight:normal;font-stretch:normal;text-indent:0;text-align:start;text-decoration:none;line-height:normal;letter-spacing:normal;word-spacing:normal;text-transform:none;direction:ltr;block-progression:tb;writing-mode:lr-tb;text-anchor:start;baseline-shift:baseline;opacity:0.02000002;color:#000000;fill:#000000;fill-opacity:1;fill-rule:nonzero;stroke:none;stroke-width:6;marker:none;visibility:visible;display:inline;overflow:visible;enable-background:accumulate;font-family:Sans;-inkscape-font-specification:Sans"
         d="m 7.4173061,36.677015 c -1.8851052,0 -3.649478,0.91815 -4.7591076,2.271826 l 0,15.088982 c 0,2.404471 2.1225623,4.340201 4.7591076,4.340201 l 80.9048529,0 c 2.636547,0 4.759108,-1.93573 4.759108,-4.340201 l 0,-15.088982 c -1.109628,-1.353676 -2.874001,-2.271826 -4.759108,-2.271826 l -80.9048529,0 z m 0,3.255153 80.9048529,0 c 1.359428,0 2.379555,0.930332 2.379555,2.1701 l 0,11.935555 c 0,1.239769 -1.020127,2.170101 -2.379555,2.170101 l -80.9048529,0 c -1.3594269,0 -2.3795533,-0.930332 -2.3795533,-2.170101 l 0,-11.935555 c 0,-1.239768 1.0201264,-2.1701 2.3795533,-2.1701 z"
         id="path4972"
         inkscape:connector-curvature="0" />
      <path
         sodipodi:nodetypes="sssssssss"
         inkscape:connector-curvature="0"
         style="color:#000000;fill:url(#radialGradient5625);fill-opacity:1;fill-rule:nonzero;stroke:none;stroke-width:2;marker:none;visibility:visible;display:inline;overflow:visible;enable-background:accumulate"
         d="m 7.4173061,-17.575502 80.9048529,0 c 2.636547,0 4.759108,1.935729 4.759108,4.340202 l 0,67.273123 c 0,2.404471 -2.122561,4.340201 -4.759108,4.340201 l -80.9048529,0 c -2.6365453,0 -4.7591076,-1.93573 -4.7591076,-4.340201 l 0,-67.273123 c 0,-2.404473 2.1225623,-4.340202 4.7591076,-4.340202 z"
         id="path4970" />
      <g
         transform="matrix(1.0318556,0,0,1.0318556,80.712514,79.160684)"
         id="g5294">
        <g
           id="layer2-5"
           style="display:none">
          <rect
             width="86"
             height="85"
             rx="6"
             ry="6"
             x="5"
             y="7"
             id="rect3745-0"
             style="opacity:0.9;fill:url(#linearGradient5627);fill-opacity:1;fill-rule:nonzero;stroke:none;filter:url(#filter3174-4)" />
        </g>
        <g
           transform="translate(-80.019285,-104.99346)"
           id="layer4-2">
          <path
             inkscape:connector-curvature="0"
             d="M 47.625,13.03125 A 0.96731774,0.96731774 0 0 0 47.5,13.0625 c -1.510801,0.341459 -2.272193,1.610036 -2.6875,2.71875 -0.415307,1.108714 -0.673467,2.196368 -1.03125,2.75 a 0.96731774,0.96731774 0 0 0 -0.09375,0.1875 C 41.667922,23.930878 39.353895,29.080525 37.15625,34.25 a 0.96731774,0.96731774 0 0 0 -0.09375,0.4375 c 0.0035,0.0611 -0.05822,0.19336 -0.40625,0.59375 -0.290026,0.333658 -0.679351,0.879381 -0.84375,1.59375 l -0.03125,0 C 28.458908,51.872645 20.137298,66.412941 12.1875,81.125 a 0.96731774,0.96731774 0 0 0 -0.09375,0.1875 c -0.730785,2.511648 2.276519,4.630944 4.375,3.28125 0.02116,-0.01361 0.04153,-0.01693 0.0625,-0.03125 8.160276,-4.677217 16.558683,-9.158522 25.6875,-11.03125 A 0.96731774,0.96731774 0 0 0 42.5,73.4375 c 0.673941,-0.363419 1.153964,-0.921292 1.375,-1.53125 0.221036,-0.609958 0.22015,-1.202881 0.15625,-1.75 C 43.903451,69.062012 43.57451,68.042808 43.59375,67.5 a 0.96731774,0.96731774 0 0 0 0,-0.0625 c -0.05185,-1.879445 0.106179,-3.935785 0.6875,-5.71875 0.571568,-1.753052 1.538902,-3.184746 3.0625,-4.125 0.57001,-0.146858 1.058221,-0.11849 1.5,0.0625 0.487726,0.199813 0.966653,0.590944 1.40625,1.125 0.879193,1.068112 1.543514,2.681126 1.875,3.9375 a 0.96731774,0.96731774 0 0 0 0,0.03125 c 0.826062,2.604244 0.454595,5.488938 0.125,8.40625 a 0.96731774,0.96731774 0 0 0 0.03125,0.375 c 0.231597,0.810127 0.751405,1.422659 1.34375,1.8125 0.592345,0.389841 1.227099,0.591443 1.84375,0.71875 1.233303,0.254615 2.423916,0.338321 3,0.65625 a 0.96731774,0.96731774 0 0 0 0.1875,0.09375 c 7.46845,2.243605 14.458902,6.192115 21.3125,9.96875 a 0.96731774,0.96731774 0 0 0 0.125,0.0625 c 2.480511,0.896288 4.829298,-2.086831 3.4375,-4.28125 L 83.5625,80.53125 C 83.54422,80.49963 83.51823,80.46917 83.5,80.4375 81.506469,76.973485 79.802561,73.164349 77.5625,69.6875 A 0.96731774,0.96731774 0 0 0 77.1875,69.375 C 76.399319,68.960689 76.129067,68.649274 76,68.375 75.870933,68.100726 75.842955,67.685558 75.9375,66.90625 a 0.96731774,0.96731774 0 0 0 -0.125,-0.5625 C 67.461519,50.444206 58.783988,34.648045 52.09375,18.03125 A 0.96731774,0.96731774 0 0 0 52,17.90625 C 51.692121,17.408124 51.424557,16.218018 50.90625,15.125 50.647097,14.578491 50.297065,14.050178 49.75,13.625 49.202935,13.199822 48.439819,12.948492 47.625,13.03125 z"
             id="path3943"
             style="opacity:0.05;fill:#000000;fill-opacity:1;fill-rule:evenodd;stroke:none" />
          <path
             d="m 47.71875,14 c -2.211314,0.499783 -2.082924,3.478653 -3.113519,5.073392 -2.032642,5.245844 -4.382306,10.396176 -6.573981,15.551608 0.05853,1.015208 -1.33246,1.496264 -1.38112,2.680985 C 29.308959,52.342195 20.973283,66.896061 13.03125,81.59375 12.547302,83.25704 14.689354,84.644747 16,83.75 c 8.196386,-4.699629 16.698145,-9.241613 26.03125,-11.15625 2.002702,-1.079946 0.535907,-3.437 0.595463,-5.117226 -0.107782,-3.907254 0.670616,-8.624004 4.289574,-10.786369 3.417179,-1.086915 5.429869,3.05173 6.145407,5.763713 0.911297,2.872957 0.484492,5.897928 0.157056,8.796132 0.691107,2.417496 3.931666,1.631658 5.708914,2.612486 C 66.536651,76.14831 73.591629,80.165123 80.4375,83.9375 82.090069,84.534626 83.737226,82.441448 82.71875,81 80.668176,77.452485 78.957061,73.644379 76.75,70.21875 74.992466,69.294893 74.764704,68.463141 74.96875,66.78125 66.623973,50.893518 57.904927,35.102572 51.185428,18.413101 50.266818,16.926855 50.146615,13.75341 47.71875,14 z"
             inkscape:connector-curvature="0"
             id="path3937"
             style="opacity:0.1;fill:#000000;fill-opacity:1;fill-rule:evenodd;stroke:none" />
          <path
             inkscape:connector-curvature="0"
             d="m 47.78125,15.125 a 0.88630073,0.88630073 0 0 0 -0.59375,0.53125 c -2.941104,7.210805 -4.741571,11.912959 -8,18.875 A 0.88630073,0.88630073 0 0 0 39.34375,35.5 c 0.522256,0.553591 1.235327,1.206238 1.84375,1.8125 -0.499682,-0.362231 -1.129232,-0.729374 -1.5625,-1.09375 a 0.88630073,0.88630073 0 0 0 -1.375,0.3125 C 34.078545,45.235625 27.52362,57.656342 14.21875,81.5625 a 0.88630073,0.88630073 0 0 0 1.21875,1.21875 C 25.862304,76.762831 33.888339,73.077301 41.28125,71.6875 A 0.88630073,0.88630073 0 0 0 42,70.625 c -0.303206,-1.304081 -0.503629,-2.722873 -0.5,-4.1875 l 0,-0.0625 c 6.6e-5,-0.0108 -8.6e-5,-0.02045 0,-0.03125 l 0.03125,-0.25 a 0.88630073,0.88630073 0 0 0 0,-0.0625 c 0.07932,-3.202748 0.960788,-6.032509 2.25,-7.9375 1.289212,-1.904991 2.91427,-2.861054 4.59375,-2.71875 1.678383,0.142211 3.268234,1.415122 4.46875,3.5625 1.200516,2.147378 1.954347,5.108705 1.875,8.3125 -0.03012,1.215755 -0.172886,2.380997 -0.40625,3.4375 a 0.88630073,0.88630073 0 0 0 0.71875,1.0625 c 7.314758,1.430896 15.247363,5.094183 25.53125,11.03125 A 0.88630073,0.88630073 0 0 0 81.78125,81.5625 C 79.747395,77.818034 77.921672,74.465682 76.1875,71.25 a 0.88630073,0.88630073 0 0 0 -0.25,-0.28125 C 74.775197,70.067888 73.484095,68.954088 72,67.8125 c 0.190002,0.106789 0.444024,0.203839 0.625,0.3125 a 0.88630073,0.88630073 0 0 0 1.25,-1.15625 C 56.248666,34.151666 54.86515,29.860093 48.8125,15.65625 A 0.88630073,0.88630073 0 0 0 47.78125,15.125 z"
             id="path3933-2"
             style="opacity:0.15;fill:#000000;fill-opacity:1;fill-rule:evenodd;stroke:none" />
          <path
             d="m 47.99379,16 c -2.937605,7.202226 -4.70943,11.913332 -7.980071,18.901467 2.005311,2.125629 4.466737,4.601031 8.464082,7.396765 C 44.180266,40.52982 41.24881,38.754378 39.058094,36.911997 34.872297,45.6463 28.314361,58.087925 15.006198,82 c 10.459768,-6.038604 18.568,-9.761477 26.124483,-11.182028 -0.324478,-1.39557 -0.508959,-2.905166 -0.49643,-4.480256 l 0.01243,-0.335082 c 0.165968,-6.701299 3.651978,-11.8546 7.781489,-11.504702 4.129521,0.349897 7.339343,6.069283 7.173375,12.770593 -0.03124,1.260963 -0.173448,2.47401 -0.42196,3.59909 C 62.654019,72.329746 70.675549,76.043093 80.993802,82 78.959242,78.254236 77.14323,74.877709 75.408991,71.661903 72.677295,69.544656 69.828009,66.789046 64.015995,63.805945 c 3.994836,1.038026 6.8551,2.235629 9.084613,3.574274 C 55.468158,34.551748 54.040314,30.189518 47.993768,16 z"
             inkscape:connector-curvature="0"
             id="path3927"
             style="opacity:0.3;fill:#000000;fill-opacity:1;fill-rule:evenodd;stroke:none" />
          <path
             d="m 47.99379,15 c -2.937605,7.202226 -4.70943,11.913332 -7.980071,18.901467 2.005311,2.125629 4.466737,4.601031 8.464082,7.396765 C 44.180266,39.52982 41.24881,37.754378 39.058094,35.911997 34.872297,44.6463 28.314361,57.087925 15.006198,81 c 10.459768,-6.038604 18.568,-9.761477 26.124483,-11.182028 -0.324478,-1.39557 -0.508959,-2.905166 -0.49643,-4.480256 l 0.01243,-0.335082 c 0.165968,-6.701299 3.651978,-11.8546 7.781489,-11.504702 4.129521,0.349897 7.339343,6.069283 7.173375,12.770593 -0.03124,1.260963 -0.173448,2.47401 -0.42196,3.59909 C 62.654019,71.329746 70.675549,75.043093 80.993802,81 78.959242,77.254236 77.14323,73.877709 75.408991,70.661903 72.677295,68.544656 69.828009,65.789046 64.015995,62.805945 c 3.994836,1.038026 6.8551,2.235629 9.084613,3.574274 C 55.468158,33.551748 54.040314,29.189518 47.993768,15 z"
             inkscape:connector-curvature="0"
             id="path2518"
             style="fill:url(#radialGradient5629);fill-opacity:1;fill-rule:evenodd;stroke:none" />
          <path
             d="M 66.576189,54.223835 C 52.271646,34.808435 48.955993,19.160219 48.116154,15.424302 55.746623,33.02426 55.694505,33.240091 66.576189,54.223835 z"
             inkscape:connector-curvature="0"
             id="path2522"
             style="fill:#ffffff;fill-opacity:1;fill-rule:evenodd;stroke:none" />
          <path
             d="m 48.117892,15.297856 c -0.364265,0.895511 -0.71819,1.766658 -1.054911,2.593833 -0.37554,0.92252 -0.737198,1.80487 -1.092135,2.668296 -0.354903,0.863434 -0.706189,1.700089 -1.05491,2.531779 -0.348734,0.831726 -0.69795,1.654786 -1.054901,2.482136 -0.356938,0.827317 -0.724988,1.656673 -1.104554,2.506958 -0.379565,0.850308 -0.77485,1.730442 -1.19142,2.631063 -0.416615,0.900627 -0.84755,1.826547 -1.315534,2.804815 -0.06347,0.132768 -0.133958,0.287475 -0.198572,0.421963 1.99892,2.117253 4.452899,4.580164 8.426847,7.359533 -4.284225,-1.762932 -7.206364,-3.537568 -9.39488,-5.373824 -0.114653,0.234075 -0.216942,0.442849 -0.335093,0.682587 -0.412731,0.83752 -0.868208,1.741145 -1.327942,2.655885 -0.01914,0.03864 -0.03036,0.07292 -0.04961,0.111697 -0.116523,0.231688 -0.215281,0.433028 -0.335082,0.670177 -0.01815,0.03642 -0.04378,0.07513 -0.06204,0.111696 -1.901603,3.814293 -4.252094,8.370211 -7.27265,14.024069 8.365126,-4.715261 17.393629,-11.510991 33.78187,-5.659271 -0.822218,-1.557255 -1.573671,-3.007943 -2.283567,-4.38097 -0.709885,-1.373074 -1.373295,-2.668629 -1.985709,-3.884543 -0.61237,-1.215893 -1.183006,-2.351909 -1.712678,-3.437759 C 56.970759,35.732148 56.485274,34.698232 56.023549,33.715307 55.561802,32.732396 55.129007,31.79276 54.720434,30.885671 54.311828,29.978588 53.9241,29.10053 53.553829,28.242196 53.183525,27.383814 52.833219,26.5471 52.48651,25.710417 52.139768,24.873707 51.794357,24.045634 51.456426,23.20346 51.343379,22.921803 51.222082,22.63141 51.108925,22.347123 50.176785,20.160084 49.223624,17.895247 48.117948,15.297856 z"
             inkscape:connector-curvature="0"
             id="path2520"
             style="fill:url(#linearGradient5631);fill-opacity:1;fill-rule:evenodd;stroke:none" />
        </g>
      </g>
      <path
         id="path4989"
         d="m 8.3614637,-16.774304 79.0165393,0 c 2.575009,0 4.648031,1.891243 4.648031,4.240455 l 0,65.727034 c 0,2.349214 -2.073022,4.240456 -4.648031,4.240456 l -79.0165393,0 c -2.5750091,0 -4.6480313,-1.891242 -4.6480313,-4.240456 l 0,-65.727034 c 0,-2.349212 2.0730222,-4.240455 4.6480313,-4.240455 z"
         style="color:#000000;fill:none;stroke:#000000;stroke-width:2.29036617;stroke-opacity:0.7758007;marker:none;visibility:visible;display:inline;overflow:visible;enable-background:accumulate"
         inkscape:connector-curvature="0"
         sodipodi:nodetypes="sssssssss" />
      <path
         inkscape:connector-curvature="0"
         id="path5696"
         d="m 88.650648,-21.304544 -82.0285553,0 c -3.786988,0 -6.83572205,3.048728 -6.83572205,6.835712 l 0,82.028577 c 0,3.786985 3.04873405,6.835709 6.83572205,6.835709 l 82.0285553,0 c 3.786988,0 6.835712,-3.048724 6.835712,-6.835709 l 0,-82.028577 c 0,-3.786984 -3.048724,-6.835712 -6.835712,-6.835712 z"
         style="opacity:0.72794118;fill:url(#linearGradient5633);fill-opacity:1;fill-rule:nonzero;stroke:none;display:inline" />
      <path
         style="opacity:0.30882353;color:#000000;fill:url(#linearGradient5635);fill-opacity:1;fill-rule:nonzero;stroke:none;stroke-width:2;marker:none;visibility:visible;display:inline;overflow:visible;enable-background:accumulate"
         d="m 35.599366,-17.678072 c 8.329396,26.184039 16.984706,51.751268 25.765978,75.953527 l 26.583944,0 c 2.636535,0 4.759079,-1.93573 4.759079,-4.340201 l 0,-67.273123 c 0,-2.404473 -2.122544,-4.340203 -4.759079,-4.340203 l -52.349922,0 z"
         id="path4974"
         inkscape:connector-curvature="0" />
    </g>
  </g>
</svg>
