<?xml version="1.0" encoding="UTF-8" standalone="no"?>
<!-- Created with Inkscape (http://www.inkscape.org/) -->

<svg
   xmlns:dc="http://purl.org/dc/elements/1.1/"
   xmlns:cc="http://creativecommons.org/ns#"
   xmlns:rdf="http://www.w3.org/1999/02/22-rdf-syntax-ns#"
   xmlns:svg="http://www.w3.org/2000/svg"
   xmlns="http://www.w3.org/2000/svg"
   xmlns:xlink="http://www.w3.org/1999/xlink"
   xmlns:sodipodi="http://sodipodi.sourceforge.net/DTD/sodipodi-0.dtd"
   xmlns:inkscape="http://www.inkscape.org/namespaces/inkscape"
   version="1.0"
   width="96"
   height="96"
   id="svg2408"
   inkscape:version="0.48.5 r10040"
   sodipodi:docname="altro.svg">
  <sodipodi:namedview
     pagecolor="#ffffff"
     bordercolor="#666666"
     borderopacity="1"
     objecttolerance="10"
     gridtolerance="10"
     guidetolerance="10"
     inkscape:pageopacity="0"
     inkscape:pageshadow="2"
     inkscape:window-width="1280"
     inkscape:window-height="966"
     id="namedview59"
     showgrid="false"
     inkscape:zoom="2.7120398"
     inkscape:cx="47.1896"
     inkscape:cy="22.179633"
     inkscape:window-x="0"
     inkscape:window-y="0"
     inkscape:window-maximized="1"
     inkscape:current-layer="g4592" />
  <defs
     id="defs2410">
    <linearGradient
       id="linearGradient3825">
      <stop
         id="stop3827"
         style="stop-color:#501616;stop-opacity:1"
         offset="0" />
      <stop
         id="stop3829"
         style="stop-color:#501616;stop-opacity:0"
         offset="1" />
    </linearGradient>
    <linearGradient
       id="linearGradient3694">
      <stop
         id="stop3696"
         style="stop-color:#e6e6e6;stop-opacity:1"
         offset="0" />
      <stop
         id="stop3698"
         style="stop-color:#f5f5f5;stop-opacity:1"
         offset="1" />
    </linearGradient>
    <linearGradient
       id="linearGradient3688">
      <stop
         id="stop3690"
         style="stop-color:#b30707;stop-opacity:1"
         offset="0" />
      <stop
         id="stop3692"
         style="stop-color:#e42c0d;stop-opacity:1"
         offset="1" />
    </linearGradient>
    <linearGradient
       x1="45.447727"
       y1="92.539597"
       x2="45.447727"
       y2="7.0165396"
       id="ButtonShadow"
       gradientUnits="userSpaceOnUse"
       gradientTransform="scale(1.0058652,0.994169)">
      <stop
         id="stop3750"
         style="stop-color:#000000;stop-opacity:1"
         offset="0" />
      <stop
         id="stop3752"
         style="stop-color:#000000;stop-opacity:0.58823532"
         offset="1" />
    </linearGradient>
    <linearGradient
       id="linearGradient3737">
      <stop
         id="stop3739"
         style="stop-color:#ffffff;stop-opacity:1"
         offset="0" />
      <stop
         id="stop3741"
         style="stop-color:#ffffff;stop-opacity:0"
         offset="1" />
    </linearGradient>
    <filter
       color-interpolation-filters="sRGB"
       id="filter3174">
      <feGaussianBlur
         id="feGaussianBlur3176"
         stdDeviation="1.71" />
    </filter>
    <linearGradient
       x1="36.357143"
       y1="6"
       x2="36.357143"
       y2="63.893143"
       id="linearGradient3188"
       xlink:href="#linearGradient3737"
       gradientUnits="userSpaceOnUse" />
    <filter
       x="-0.192"
       y="-0.192"
       width="1.3839999"
       height="1.3839999"
       color-interpolation-filters="sRGB"
       id="filter3794">
      <feGaussianBlur
         id="feGaussianBlur3796"
         stdDeviation="5.28" />
    </filter>
    <linearGradient
       x1="48"
       y1="20.220806"
       x2="48"
       y2="138.66119"
       id="linearGradient3613"
       xlink:href="#linearGradient3737"
       gradientUnits="userSpaceOnUse" />
    <radialGradient
       cx="48"
       cy="90.171875"
       r="42"
       fx="48"
       fy="90.171875"
       id="radialGradient3619"
       xlink:href="#linearGradient3737"
       gradientUnits="userSpaceOnUse"
       gradientTransform="matrix(1.1573129,0,0,0.99590774,-7.5510206,0.19713193)" />
    <clipPath
       id="clipPath3613">
      <rect
         width="84"
         height="84"
         rx="6"
         ry="6"
         x="6"
         y="6"
         id="rect3615"
         style="fill:#ffffff;fill-opacity:1;fill-rule:nonzero;stroke:none" />
    </clipPath>
    <linearGradient
       x1="48"
       y1="90"
       x2="48"
       y2="5.9877172"
       id="linearGradient3617"
       xlink:href="#linearGradient3688"
       gradientUnits="userSpaceOnUse" />
    <linearGradient
       x1="45.447727"
       y1="92.539597"
       x2="45.447727"
       y2="7.0165396"
       id="ButtonShadow-0"
       gradientUnits="userSpaceOnUse"
       gradientTransform="matrix(1.0058652,0,0,0.994169,100,0)">
      <stop
         id="stop3750-8"
         style="stop-color:#000000;stop-opacity:1"
         offset="0" />
      <stop
         id="stop3752-5"
         style="stop-color:#000000;stop-opacity:0.58823532"
         offset="1" />
    </linearGradient>
    <linearGradient
       x1="32.251034"
       y1="6.1317081"
       x2="32.251034"
       y2="90.238609"
       id="linearGradient3780"
       xlink:href="#ButtonShadow-0"
       gradientUnits="userSpaceOnUse"
       gradientTransform="matrix(1.0238095,0,0,1.0119048,-1.1428571,-98.071429)" />
    <linearGradient
       x1="32.251034"
       y1="6.1317081"
       x2="32.251034"
       y2="90.238609"
       id="linearGradient3772"
       xlink:href="#ButtonShadow-0"
       gradientUnits="userSpaceOnUse"
       gradientTransform="matrix(1.0238095,0,0,1.0119048,-1.1428571,-98.071429)" />
    <linearGradient
       x1="32.251034"
       y1="6.1317081"
       x2="32.251034"
       y2="90.238609"
       id="linearGradient3725"
       xlink:href="#ButtonShadow-0"
       gradientUnits="userSpaceOnUse"
       gradientTransform="matrix(1.0238095,0,0,1.0119048,-1.1428571,-98.071429)" />
    <linearGradient
       x1="32.251034"
       y1="6.1317081"
       x2="32.251034"
       y2="90.238609"
       id="linearGradient3721"
       xlink:href="#ButtonShadow-0"
       gradientUnits="userSpaceOnUse"
       gradientTransform="translate(0,-97)" />
    <linearGradient
       x1="32.251034"
       y1="6.1317081"
       x2="32.251034"
       y2="90.238609"
       id="linearGradient3026"
       xlink:href="#ButtonShadow-0"
       gradientUnits="userSpaceOnUse"
       gradientTransform="matrix(1.0238095,0,0,1.0119048,-1.1428571,-98.071429)" />
    <linearGradient
       x1="62.336792"
       y1="79.015236"
       x2="62.336792"
       y2="12.797539"
       id="linearGradient2936"
       xlink:href="#linearGradient3694"
       gradientUnits="userSpaceOnUse"
       gradientTransform="matrix(0.87485882,0,0,0.90698611,2.762671,6.33428)" />
    <linearGradient
       x1="55"
       y1="18"
       x2="55"
       y2="112"
       id="linearGradient3831"
       xlink:href="#linearGradient3825"
       gradientUnits="userSpaceOnUse" />
    <clipPath
       clipPathUnits="userSpaceOnUse"
       id="clipPath4156-4">
      <path
         style="opacity:0.6;fill:#ffffff;fill-opacity:1;stroke:none"
         d="m 27.046336,-55.695463 -14.21366,13.321486 0.06127,0 15.653407,21.770763 10.231384,-10.546177 C 38.561832,-32.30156 27.468089,-54.819245 27.046336,-55.695463 z M 9.6468554,-39.382809 -5.2407289,-25.32124 15.987863,-7.8059573 26.372412,-18.382966 9.6468554,-39.382809 z m 31.4906096,12.951445 -9.741259,9.713584 8.944804,12.4580526 7.780753,-7.5550056 -6.984298,-14.616631 z m -49.8397109,4.378822 -13.7541661,12.9822847 26.2830181,13.84571 0.06127,-0.0617 -0.122531,-0.0617 L 13.598503,-5.4007374 -8.7022409,-22.052595 z m 38.0154159,7.400825 -9.802525,9.7752596 11.579232,9.5594001 7.62759,-7.40083 -8.669108,-11.0087257 -0.735189,-0.925104 z m 20.187073,5.6739697 -7.382526,7.2158 6.187844,8.54179 5.820249,-6.13651996 -4.625567,-9.62107004 z m -32.195166,6.32154 -9.5574606,9.49772 13.6622686,7.1849703 7.933918,-7.6783603 -12.038726,-9.00433 z m 23.311629,2.37443004 -7.10683,6.93826996 8.362778,6.9074403 5.360756,-5.6739699 -0.06127,-0.0925 -0.0919,0.12335 -6.463539,-8.20258036 z m -8.730374,8.54178036 -7.505057,7.3391599 10.353916,5.45811 c 1.397496,-1.32103 5.67514,-6.12292 5.850882,-6.32154 L 31.886332,8.2600031 z"
         id="path4158-0"
         inkscape:connector-curvature="0" />
    </clipPath>
    <linearGradient
       inkscape:collect="always"
       id="linearGradient4213-7">
      <stop
         style="stop-color:#ffffff;stop-opacity:1;"
         offset="0"
         id="stop4215-6" />
      <stop
         style="stop-color:#ffffff;stop-opacity:0;"
         offset="1"
         id="stop4217-5" />
    </linearGradient>
    <linearGradient
       y2="14.514202"
       x2="50.527882"
       y1="-28.64156"
       x1="2.7713892"
       gradientUnits="userSpaceOnUse"
       id="linearGradient4707"
       xlink:href="#linearGradient4213-7"
       inkscape:collect="always" />
    <linearGradient
       id="linearGradient4746">
      <stop
         style="stop-color:#ffffff;stop-opacity:0;"
         offset="0"
         id="stop4748" />
      <stop
         id="stop4750"
         offset="0.30000001"
         style="stop-color:#ffffff;stop-opacity:1;" />
      <stop
         style="stop-color:#ffffff;stop-opacity:1;"
         offset="0.69999999"
         id="stop4752" />
      <stop
         style="stop-color:#ffffff;stop-opacity:0;"
         offset="1"
         id="stop4754" />
    </linearGradient>
    <linearGradient
       y2="48.399288"
       x2="83.68869"
       y1="49.026676"
       x1="6.9722528"
       gradientTransform="matrix(1,0,0,0.94706844,0,0.7239241)"
       gradientUnits="userSpaceOnUse"
       id="linearGradient4705"
       xlink:href="#linearGradient4341-9-4-5-2"
       inkscape:collect="always" />
    <linearGradient
       id="linearGradient4341-9-4-5-2">
      <stop
         style="stop-color:#ffffff;stop-opacity:0;"
         offset="0"
         id="stop4343-2-5-2-4" />
      <stop
         id="stop3954-0-91"
         offset="0.30000001"
         style="stop-color:#ffffff;stop-opacity:1;" />
      <stop
         style="stop-color:#ffffff;stop-opacity:1;"
         offset="0.69999999"
         id="stop3956-8-3" />
      <stop
         style="stop-color:#ffffff;stop-opacity:0;"
         offset="1"
         id="stop4347-6-0-8-7" />
    </linearGradient>
    <linearGradient
       y2="90.120811"
       x2="45.093063"
       y1="5.2661309"
       x1="46.03289"
       gradientUnits="userSpaceOnUse"
       id="linearGradient4703"
       xlink:href="#linearGradient4341-9-4-5-2"
       inkscape:collect="always" />
    <linearGradient
       id="linearGradient4727">
      <stop
         style="stop-color:#adb9c1;stop-opacity:1;"
         offset="0"
         id="stop4729" />
      <stop
         id="stop4731"
         offset="0.25"
         style="stop-color:#ffffff;stop-opacity:1;" />
      <stop
         id="stop4733"
         offset="0.5"
         style="stop-color:#909eaa;stop-opacity:1;" />
      <stop
         style="stop-color:#f9fafb;stop-opacity:1;"
         offset="0.75"
         id="stop4735" />
      <stop
         style="stop-color:#adb3c1;stop-opacity:1;"
         offset="1"
         id="stop4737" />
    </linearGradient>
    <linearGradient
       y2="48"
       x2="94.43325"
       y1="48"
       x1="1.5667458"
       gradientUnits="userSpaceOnUse"
       id="linearGradient4699"
       xlink:href="#linearGradient6139-0"
       inkscape:collect="always" />
    <linearGradient
       id="linearGradient6139-0">
      <stop
         style="stop-color:#c1adad;stop-opacity:1;"
         offset="0"
         id="stop6141-2" />
      <stop
         id="stop6151-0"
         offset="0.25"
         style="stop-color:#ffffff;stop-opacity:1;" />
      <stop
         id="stop6147-1"
         offset="0.5"
         style="stop-color:#aa9090;stop-opacity:1;" />
      <stop
         style="stop-color:#fbf9f9;stop-opacity:1;"
         offset="0.75"
         id="stop6149-4" />
      <stop
         style="stop-color:#c1adad;stop-opacity:1;"
         offset="1"
         id="stop6143-4" />
    </linearGradient>
    <linearGradient
       y2="48"
       x2="94.43325"
       y1="48"
       x1="1.5667458"
       gradientUnits="userSpaceOnUse"
       id="linearGradient4701"
       xlink:href="#linearGradient6139-0"
       inkscape:collect="always" />
    <linearGradient
       x1="62.336792"
       y1="79.015236"
       x2="62.336792"
       y2="12.797539"
       id="linearGradient2936-5"
       xlink:href="#linearGradient3694-3"
       gradientUnits="userSpaceOnUse"
       gradientTransform="matrix(0.87485882,0,0,0.90698611,2.762671,6.33428)" />
    <linearGradient
       id="linearGradient3694-3">
      <stop
         id="stop3696-7"
         style="stop-color:#e6e6e6;stop-opacity:1"
         offset="0" />
      <stop
         id="stop3698-6"
         style="stop-color:#f5f5f5;stop-opacity:1"
         offset="1" />
    </linearGradient>
    <linearGradient
       x1="55"
       y1="18"
       x2="55"
       y2="112"
       id="linearGradient3831-5"
       xlink:href="#linearGradient3825-2"
       gradientUnits="userSpaceOnUse" />
    <linearGradient
       id="linearGradient3825-2">
      <stop
         id="stop3827-3"
         style="stop-color:#501616;stop-opacity:1"
         offset="0" />
      <stop
         id="stop3829-5"
         style="stop-color:#501616;stop-opacity:0"
         offset="1" />
    </linearGradient>
    <linearGradient
       gradientUnits="userSpaceOnUse"
       xlink:href="#linearGradient4085"
       id="linearGradient4091"
       y2="120"
       x2="58"
       y1="19"
       x1="58" />
    <linearGradient
       gradientTransform="matrix(0.59136097,-0.15844727,-0.15844727,-0.59136097,103.35407,109.29989)"
       gradientUnits="userSpaceOnUse"
       xlink:href="#linearGradient3694-5"
       id="linearGradient4071"
       y2="159.47563"
       x2="-50.243786"
       y1="72.699486"
       x1="-73.494293" />
    <linearGradient
       gradientTransform="matrix(0.59136097,-0.15844727,-0.15844727,-0.59136097,103.35407,108.29989)"
       gradientUnits="userSpaceOnUse"
       xlink:href="#linearGradient3694-5"
       id="linearGradient4018"
       y2="159.47563"
       x2="-50.243786"
       y1="72.699486"
       x1="-73.494293" />
    <linearGradient
       gradientTransform="matrix(1.0238095,0,0,1.0119048,-1.1428571,-98.071429)"
       gradientUnits="userSpaceOnUse"
       xlink:href="#ButtonShadow-0-0"
       id="linearGradient3026-2"
       y2="90.238609"
       x2="32.251034"
       y1="6.1317081"
       x1="32.251034" />
    <linearGradient
       gradientTransform="translate(0,-97)"
       gradientUnits="userSpaceOnUse"
       xlink:href="#ButtonShadow-0-0"
       id="linearGradient3721-2"
       y2="90.238609"
       x2="32.251034"
       y1="6.1317081"
       x1="32.251034" />
    <linearGradient
       gradientTransform="matrix(1.0238095,0,0,1.0119048,-1.1428571,-98.071429)"
       gradientUnits="userSpaceOnUse"
       xlink:href="#ButtonShadow-0-0"
       id="linearGradient3725-7"
       y2="90.238609"
       x2="32.251034"
       y1="6.1317081"
       x1="32.251034" />
    <linearGradient
       gradientTransform="matrix(1.0238095,0,0,1.0119048,-1.1428571,-98.071429)"
       gradientUnits="userSpaceOnUse"
       xlink:href="#ButtonShadow-0-0"
       id="linearGradient3772-8"
       y2="90.238609"
       x2="32.251034"
       y1="6.1317081"
       x1="32.251034" />
    <linearGradient
       gradientTransform="matrix(1.0238095,0,0,1.0119048,-1.1428571,-98.071429)"
       gradientUnits="userSpaceOnUse"
       xlink:href="#ButtonShadow-0-0"
       id="linearGradient3780-0"
       y2="90.238609"
       x2="32.251034"
       y1="6.1317081"
       x1="32.251034" />
    <linearGradient
       gradientTransform="matrix(1.0058652,0,0,0.994169,100,0)"
       gradientUnits="userSpaceOnUse"
       id="ButtonShadow-0-0"
       y2="7.0165396"
       x2="45.447727"
       y1="92.539597"
       x1="45.447727">
      <stop
         offset="0"
         style="stop-color:#000000;stop-opacity:1"
         id="stop3750-8-7" />
      <stop
         offset="1"
         style="stop-color:#000000;stop-opacity:0.58823532"
         id="stop3752-5-5" />
    </linearGradient>
    <linearGradient
       gradientUnits="userSpaceOnUse"
       xlink:href="#linearGradient3688-5"
       id="linearGradient3617-6"
       y2="5.9877172"
       x2="48"
       y1="90"
       x1="48" />
    <clipPath
       id="clipPath3613-3">
      <rect
         style="fill:#ffffff;fill-opacity:1;fill-rule:nonzero;stroke:none"
         id="rect3615-8"
         y="6"
         x="6"
         ry="6"
         rx="6"
         height="84"
         width="84" />
    </clipPath>
    <radialGradient
       gradientTransform="matrix(1.1573129,0,0,0.99590774,-7.5510206,0.19713193)"
       gradientUnits="userSpaceOnUse"
       xlink:href="#linearGradient3737-5"
       id="radialGradient3619-0"
       fy="90.171875"
       fx="48"
       r="42"
       cy="90.171875"
       cx="48" />
    <linearGradient
       gradientUnits="userSpaceOnUse"
       xlink:href="#linearGradient3737-5"
       id="linearGradient3613-6"
       y2="138.66119"
       x2="48"
       y1="20.220806"
       x1="48" />
    <filter
       id="filter3794-8"
       color-interpolation-filters="sRGB"
       height="1.3839999"
       width="1.3839999"
       y="-0.192"
       x="-0.192">
      <feGaussianBlur
         stdDeviation="5.28"
         id="feGaussianBlur3796-2" />
    </filter>
    <linearGradient
       gradientUnits="userSpaceOnUse"
       xlink:href="#linearGradient3737-5"
       id="linearGradient3188-1"
       y2="63.893143"
       x2="36.357143"
       y1="6"
       x1="36.357143" />
    <filter
       id="filter3174-6"
       color-interpolation-filters="sRGB">
      <feGaussianBlur
         stdDeviation="1.71"
         id="feGaussianBlur3176-1" />
    </filter>
    <linearGradient
       id="linearGradient3737-5">
      <stop
         offset="0"
         style="stop-color:#ffffff;stop-opacity:1"
         id="stop3739-6" />
      <stop
         offset="1"
         style="stop-color:#ffffff;stop-opacity:0"
         id="stop3741-9" />
    </linearGradient>
    <linearGradient
       gradientTransform="scale(1.0058652,0.994169)"
       gradientUnits="userSpaceOnUse"
       id="ButtonShadow-6"
       y2="7.0165396"
       x2="45.447727"
       y1="92.539597"
       x1="45.447727">
      <stop
         offset="0"
         style="stop-color:#000000;stop-opacity:1"
         id="stop3750-7" />
      <stop
         offset="1"
         style="stop-color:#000000;stop-opacity:0.58823532"
         id="stop3752-1" />
    </linearGradient>
    <linearGradient
       id="linearGradient3688-5">
      <stop
         offset="0"
         style="stop-color:#ad0d0d;stop-opacity:1"
         id="stop3690-6" />
      <stop
         offset="1"
         style="stop-color:#e02f11;stop-opacity:1"
         id="stop3692-4" />
    </linearGradient>
    <linearGradient
       id="linearGradient3694-5">
      <stop
         offset="0"
         style="stop-color:#e6e6e6;stop-opacity:1"
         id="stop3696-3" />
      <stop
         offset="1"
         style="stop-color:#f5f5f5;stop-opacity:1"
         id="stop3698-7" />
    </linearGradient>
    <linearGradient
       id="linearGradient4085">
      <stop
         offset="0"
         style="stop-color:#782121;stop-opacity:1"
         id="stop4087" />
      <stop
         offset="1"
         style="stop-color:#782121;stop-opacity:0"
         id="stop4089" />
    </linearGradient>
    <linearGradient
       gradientTransform="matrix(0.59136097,-0.15844727,-0.15844727,-0.59136097,103.35407,108.29989)"
       gradientUnits="userSpaceOnUse"
       xlink:href="#linearGradient3694-5-5"
       id="linearGradient4018-4"
       y2="159.47563"
       x2="-50.243786"
       y1="72.699486"
       x1="-73.494293" />
    <linearGradient
       id="linearGradient3694-5-5">
      <stop
         offset="0"
         style="stop-color:#e6e6e6;stop-opacity:1"
         id="stop3696-3-1" />
      <stop
         offset="1"
         style="stop-color:#f5f5f5;stop-opacity:1"
         id="stop3698-7-3" />
    </linearGradient>
    <linearGradient
       gradientTransform="matrix(0.59136097,-0.15844727,-0.15844727,-0.59136097,103.35407,109.29989)"
       gradientUnits="userSpaceOnUse"
       xlink:href="#linearGradient3694-5-5"
       id="linearGradient4071-6"
       y2="159.47563"
       x2="-50.243786"
       y1="72.699486"
       x1="-73.494293" />
    <linearGradient
       id="linearGradient4256">
      <stop
         offset="0"
         style="stop-color:#e6e6e6;stop-opacity:1"
         id="stop4258" />
      <stop
         offset="1"
         style="stop-color:#f5f5f5;stop-opacity:1"
         id="stop4260" />
    </linearGradient>
    <linearGradient
       gradientUnits="userSpaceOnUse"
       xlink:href="#linearGradient4085-9"
       id="linearGradient4091-9"
       y2="120"
       x2="58"
       y1="19"
       x1="58" />
    <linearGradient
       id="linearGradient4085-9">
      <stop
         offset="0"
         style="stop-color:#782121;stop-opacity:1"
         id="stop4087-8" />
      <stop
         offset="1"
         style="stop-color:#782121;stop-opacity:0"
         id="stop4089-7" />
    </linearGradient>
    <linearGradient
       y2="120"
       x2="58"
       y1="19"
       x1="58"
       gradientUnits="userSpaceOnUse"
       id="linearGradient4271"
       xlink:href="#linearGradient4085-9"
       inkscape:collect="always" />
    <linearGradient
       inkscape:collect="always"
       xlink:href="#linearGradient3688-5"
       id="linearGradient4171"
       x1="20.405415"
       y1="23.17643"
       x2="71.538597"
       y2="71.848282"
       gradientUnits="userSpaceOnUse" />
    <linearGradient
       gradientUnits="userSpaceOnUse"
       y2="508.39551"
       x2="413.23141"
       y1="539.18976"
       x1="413.23141"
       id="linearGradient4130"
       xlink:href="#linearGradient4120"
       inkscape:collect="always" />
    <linearGradient
       gradientTransform="translate(384.57142,504.56413)"
       inkscape:collect="always"
       xlink:href="#linearGradient5555"
       id="linearGradient5561"
       x1="27.223612"
       y1="-1052.3843"
       x2="27.223612"
       y2="-1004.3317"
       gradientUnits="userSpaceOnUse" />
    <linearGradient
       inkscape:collect="always"
       id="linearGradient5555">
      <stop
         style="stop-color:#ec4d39;stop-opacity:1"
         offset="0"
         id="stop5557" />
      <stop
         style="stop-color:#ef6858;stop-opacity:1"
         offset="1"
         id="stop5559" />
    </linearGradient>
    <linearGradient
       id="linearGradient4120"
       inkscape:collect="always">
      <stop
         id="stop4122"
         offset="0"
         style="stop-color:#fbaca9;stop-opacity:1" />
      <stop
         id="stop4124"
         offset="1"
         style="stop-color:#fef7f6;stop-opacity:1" />
    </linearGradient>
    <linearGradient
       inkscape:collect="always"
       xlink:href="#linearGradient4120"
       id="linearGradient4223"
       gradientUnits="userSpaceOnUse"
       x1="413.23141"
       y1="539.18976"
       x2="413.23141"
       y2="508.39551" />
  </defs>
  <metadata
     id="metadata2413">
    <rdf:RDF>
      <cc:Work
         rdf:about="">
        <dc:format>image/svg+xml</dc:format>
        <dc:type
           rdf:resource="http://purl.org/dc/dcmitype/StillImage" />
        <dc:title></dc:title>
      </cc:Work>
    </rdf:RDF>
  </metadata>
  <g
     transform="translate(0,32)"
     inkscape:label="Layer 1"
     id="layer1">
    <g
       transform="translate(0,-32)"
       id="g4592">
      <g
         inkscape:label="ombre-base"
         id="layer2-5">
        <rect
           style="opacity:0.15;fill:#000000;fill-opacity:1;stroke:none"
           id="rect4266"
           width="96"
           height="96"
           x="0"
           y="0"
           rx="4.0634928"
           ry="4.0634933" />
        <rect
           ry="4.0211644"
           rx="4.0211644"
           y="0.5"
           x="0.5"
           height="95"
           width="95"
           id="rect4240"
           style="opacity:0.15;fill:#000000;fill-opacity:1;stroke:none" />
        <rect
           style="opacity:0.15;fill:#000000;fill-opacity:1;stroke:none"
           id="rect4264"
           width="94"
           height="94"
           x="1"
           y="1"
           rx="3.9788361"
           ry="3.9788361" />
      </g>
      <g
         inkscape:label="colore-globale"
         id="layer4-1"
         style="fill:url(#linearGradient4701);fill-opacity:1">
        <rect
           ry="4.381073"
           rx="4.4314661"
           y="1.5482712"
           x="1.5667458"
           height="92.903458"
           width="92.866508"
           id="rect4476"
           style="fill:url(#linearGradient4699);fill-opacity:1;stroke:none;display:inline" />
      </g>
      <rect
         style="opacity:0.83999999000000003;fill:url(#linearGradient4171);fill-opacity:1;stroke:none"
         id="rect4564"
         width="81"
         height="77"
         x="7.5"
         y="6.8000002" />
      <g
         style="display:inline"
         transform="translate(0,48)"
         inkscape:label="struttura"
         id="layer1-1">
        <g
           id="g3540"
           transform="matrix(1.1078665,0,0,1.0952682,-3.7110067,-52.373354)">
          <g
             id="g4426"
             transform="matrix(1.0052356,0,0,1.0052432,-0.09130939,-0.47285394)">
            <g
               id="g4403"
               transform="matrix(1.0000054,0,0,0.99791236,-18.811946,8.9081587)">
              <g
                 transform="matrix(-0.93513772,0,0,0.50741219,164.9173,-44.868776)"
                 id="g3430">
                <g
                   transform="matrix(-0.6357251,0.0421819,-0.02490483,-1.0515558,92.671979,115.53352)"
                   id="g3446" />
              </g>
              <g
                 id="g4362"
                 transform="matrix(0.55214779,0,0,0.60391504,38.00101,36.337639)" />
              <g
                 id="g4370"
                 transform="matrix(1.0020877,0,0,0.50741219,-77.166961,-44.966244)">
                <g
                   id="g4372"
                   transform="matrix(-0.6357251,0.0421819,-0.02490483,-1.0515558,92.671979,115.53352)" />
              </g>
              <g
                 transform="matrix(-0.54985887,0,0,0.60140527,73.748586,27.648602)"
                 id="g4395">
                <path
                   id="path4397"
                   style="font-size:medium;font-style:normal;font-variant:normal;font-weight:normal;font-stretch:normal;text-indent:0;text-align:start;text-decoration:none;line-height:normal;letter-spacing:normal;word-spacing:normal;text-transform:none;direction:ltr;block-progression:tb;writing-mode:lr-tb;text-anchor:start;baseline-shift:baseline;color:#000000;fill:none;stroke:#000000;stroke-width:0.91645002;stroke-miterlimit:4;stroke-opacity:1;stroke-dasharray:none;marker:none;visibility:visible;display:inline;overflow:visible;enable-background:accumulate;font-family:Sans;-inkscape-font-specification:Sans"
                   d="m 81.416281,73.57243 7.015717,6.674207 c -0.04232,3.967765 0.267984,3.842136 0.209905,6.856172 l -0.233189,-6.885985 -6.851206,-6.554195 c 0.06319,0.02357 -0.14122,-0.0902 -0.141227,-0.0902 z m 0.128518,-116.84693 -132.42878,0 0,116.886744 132.42878,0 z m -0.0068,0.182069 c -0.06596,-0.193099 0.133853,0.166431 -0.130188,-0.06464 l 6.96657,-5.577062 c -3.856986,3.163036 -3.790312,3.114807 -6.836382,5.641697 z M -57.451698,87.684046 c -0.04912,-2.679077 -0.07535,-3.505172 -0.194086,-7.549371 l 6.716657,-6.538949 c -2.13931,2.072124 -2.544718,2.569935 -6.730646,6.617394 0.146859,4.794939 0.163153,4.762112 0.208075,7.470926 z m 6.62685,-131.022557 c -3.898951,-2.68663 -3.781384,-2.595646 -7.538651,-5.119524 3.56574,2.36666 3.494875,2.295153 7.538651,5.119524 z m 133.851173,-7.36451 -135.391831,0 c -4.284327,0 -7.73344,2.768522 -7.73344,6.207448 l 0,127.44745 c 0,3.438927 3.449113,6.207449 7.73344,6.207449 l 135.391831,0 c 4.284326,0 7.73344,-2.768522 7.73344,-6.207449 l 0,-127.44745 c 0,-3.438926 -3.449114,-6.207448 -7.73344,-6.207448 z"
                   inkscape:connector-curvature="0"
                   sodipodi:nodetypes="cccccccccccccccccccccccsssssssss" />
              </g>
            </g>
          </g>
          <path
             style="opacity:0.75605636;fill:url(#linearGradient4703);fill-opacity:1;stroke:none"
             d="m 8.8575421,5.6172779 c -2.2421114,0 -4.0553236,1.7633849 -4.0553236,3.9269464 l 0,76.7690367 c 0,2.163561 1.8132122,3.926947 4.0553236,3.926947 l 75.7359079,0 c 2.242112,0 4.055324,-1.763386 4.055324,-3.926947 l 0,-76.7690367 c 0,-2.1635615 -1.813212,-3.9269464 -4.055324,-3.9269464 l -75.7359079,0 z m -2.5208768,1.7698914 80.7776617,0 0,76.9902727 -80.7776617,0 0,-76.9902727 z"
             id="rect4474"
             inkscape:connector-curvature="0" />
          <path
             inkscape:connector-curvature="0"
             id="path4520"
             d="m 8.8575421,6.0438707 c -2.2421114,0 -4.0553236,1.6700462 -4.0553236,3.7190869 l 0,72.7055314 c 0,2.04904 1.8132122,3.719088 4.0553236,3.719088 l 75.7359079,0 c 2.242112,0 4.055324,-1.670048 4.055324,-3.719088 l 0,-72.7055314 c 0,-2.0490407 -1.813212,-3.7190869 -4.055324,-3.7190869 l -75.7359079,0 z m -2.5208768,1.6762083 80.7776617,0 0,72.915057 -80.7776617,0 0,-72.915057 z"
             style="opacity:0.90363638;fill:url(#linearGradient4705);fill-opacity:1;stroke:none" />
          <path
             style="fill:#000000;fill-opacity:0.51937986;stroke:none"
             d="m 4.8570204,80.162841 0,5.640899 c 0,2.40151 1.924933,4.336651 4.3293319,4.336651 l 75.0782877,0 c 2.404399,0 4.329332,-1.935141 4.329332,-4.336651 l 0,-5.640899 c 0,2.401505 -1.924933,4.336646 -4.329332,4.336646 l -75.0782877,0 c -2.4043989,0 -4.3293319,-1.935141 -4.3293319,-4.336646 z"
             id="rect4466"
             inkscape:connector-curvature="0" />
        </g>
      </g>
      <g
         inkscape:label="luci-superiori"
         id="layer7">
        <rect
           clip-path="url(#clipPath4156-4)"
           ry="3.9569881"
           rx="3.9569874"
           y="-30"
           x="2"
           height="92"
           width="92"
           id="rect4146"
           style="opacity:0.8;fill:url(#linearGradient4707);fill-opacity:1;stroke:none"
           transform="matrix(0.99891115,0,0,1,0.0021777,32.042727)" />
        <path
           inkscape:connector-curvature="0"
           id="rect4190"
           d="M 5.7458937,1.787 C 3.5462186,1.787 1.7683159,3.6473696 1.763558,5.9429206 L 1.6,84.85541 c 2.1117646,2.843617 1.83765,2.719224 5.3536755,3.021845 C 8.0064488,79.013649 16.427783,56.045295 34.331254,36.838908 49.801067,20.243287 71.107267,5.1575498 92.385215,5.1575498 c 0.538595,0 1.062975,0.022399 1.599205,0.032724 C 93.650213,3.2524245 92.052181,1.787 90.096156,1.787 z"
           style="opacity:0.2;fill:#ffffff;fill-opacity:1;stroke:none"
           sodipodi:nodetypes="ssccsscss" />
      </g>
      <g
         id="g4213"
         transform="translate(-129.88896,59.239351)">
        <g
           style="display:none"
           id="layer2-8">
          <rect
             style="opacity:0.9;fill:url(#ButtonShadow-6);fill-opacity:1;fill-rule:nonzero;stroke:none;filter:url(#filter3174-6)"
             id="rect3745-8"
             y="7"
             x="5"
             ry="6"
             rx="6"
             height="85"
             width="86" />
        </g>
      </g>
      <g
         transform="translate(-298.32232,-366.58944)"
         id="layer1-2"
         inkscape:label="Capa 1">
        <g
           id="g4215"
           transform="matrix(2.0485521,0,0,2.0485521,-490.65754,-659.66679)">
          <path
             id="path4138"
             style="fill:#000000;fill-opacity:0.05882353;fill-rule:nonzero;stroke:none"
             d="m 423.39078,523.62615 -13.44821,-13.44727 c -0.77383,-0.7745 -2.02991,-0.7745 -2.80482,0 l -2.79243,2.79267 3.54226,3.54239 c 0.82348,-0.27803 1.76737,-0.0916 2.42346,0.56461 0.6595,0.66032 0.8446,1.61225 0.55957,2.4385 l 3.41408,3.41394 c 0.82598,-0.28462 1.77895,-0.10074 2.43849,0.55998 0.92209,0.92182 0.92209,2.41551 0,3.33763 -0.92222,0.92237 -2.41592,0.92237 -3.33854,0 -0.69334,-0.69387 -0.86481,-1.71258 -0.51365,-2.56684 l -3.18397,-3.18407 -2.7e-4,8.37869 c 0.2248,0.11129 0.43696,0.25982 0.62429,0.44633 0.92182,0.92172 0.92182,2.41514 0,3.33831 -0.92209,0.92169 -2.41646,0.92169 -3.33764,0 -0.92195,-0.92317 -0.92195,-2.41659 0,-3.33831 0.22785,-0.22744 0.49148,-0.39959 0.77279,-0.51497 l 0,-8.45645 c -0.28131,-0.115 -0.54454,-0.28594 -0.77279,-0.515 -0.69833,-0.69779 -0.86653,-1.72272 -0.50837,-2.58026 l -3.49181,-3.49249 -9.22095,9.22042 c -0.77477,0.77516 -0.77477,2.03124 0,2.80588 l 13.44806,13.44728 c 0.77424,0.77451 2.02992,0.77451 2.80524,0 l 13.38522,-13.38496 c 0.7745,-0.77491 0.7745,-2.03137 0,-2.80601"
             inkscape:connector-curvature="0" />
          <path
             inkscape:connector-curvature="0"
             d="m 423.39078,523.22615 -13.44821,-13.44727 c -0.77383,-0.7745 -2.02991,-0.7745 -2.80482,0 l -2.79243,2.79267 3.54226,3.54239 c 0.82348,-0.27803 1.76737,-0.0916 2.42346,0.56461 0.6595,0.66032 0.8446,1.61225 0.55957,2.4385 l 3.41408,3.41394 c 0.82598,-0.28462 1.77895,-0.10074 2.43849,0.55998 0.92209,0.92182 0.92209,2.41551 0,3.33763 -0.92222,0.92237 -2.41592,0.92237 -3.33854,0 -0.69334,-0.69387 -0.86481,-1.71258 -0.51365,-2.56684 l -3.18397,-3.18407 -2.7e-4,8.37869 c 0.2248,0.11129 0.43696,0.25982 0.62429,0.44633 0.92182,0.92172 0.92182,2.41514 0,3.33831 -0.92209,0.92169 -2.41646,0.92169 -3.33764,0 -0.92195,-0.92317 -0.92195,-2.41659 0,-3.33831 0.22785,-0.22744 0.49148,-0.39959 0.77279,-0.51497 l 0,-8.45645 c -0.28131,-0.115 -0.54454,-0.28594 -0.77279,-0.515 -0.69833,-0.69779 -0.86653,-1.72272 -0.50837,-2.58026 l -3.49181,-3.49249 -9.22095,9.22042 c -0.77477,0.77516 -0.77477,2.03124 0,2.80588 l 13.44806,13.44728 c 0.77424,0.77451 2.02992,0.77451 2.80524,0 l 13.38522,-13.38496 c 0.7745,-0.77491 0.7745,-2.03137 0,-2.80601"
             style="fill:#000000;fill-opacity:0.11764706;fill-rule:nonzero;stroke:none"
             id="path4136" />
          <path
             id="path4132"
             style="fill:#000000;fill-opacity:0.23529412;fill-rule:nonzero;stroke:none"
             d="m 423.39078,522.82615 -13.44821,-13.44727 c -0.77383,-0.7745 -2.02991,-0.7745 -2.80482,0 l -2.79243,2.79267 3.54226,3.54239 c 0.82348,-0.27803 1.76737,-0.0916 2.42346,0.56461 0.6595,0.66032 0.8446,1.61225 0.55957,2.4385 l 3.41408,3.41394 c 0.82598,-0.28462 1.77895,-0.10074 2.43849,0.55998 0.92209,0.92182 0.92209,2.41551 0,3.33763 -0.92222,0.92237 -2.41592,0.92237 -3.33854,0 -0.69334,-0.69387 -0.86481,-1.71258 -0.51365,-2.56684 l -3.18397,-3.18407 -2.7e-4,8.37869 c 0.2248,0.11129 0.43696,0.25982 0.62429,0.44633 0.92182,0.92172 0.92182,2.41514 0,3.33831 -0.92209,0.92169 -2.41646,0.92169 -3.33764,0 -0.92195,-0.92317 -0.92195,-2.41659 0,-3.33831 0.22785,-0.22744 0.49148,-0.39959 0.77279,-0.51497 l 0,-8.45645 c -0.28131,-0.115 -0.54454,-0.28594 -0.77279,-0.515 -0.69833,-0.69779 -0.86653,-1.72272 -0.50837,-2.58026 l -3.49181,-3.49249 -9.22095,9.22042 c -0.77477,0.77516 -0.77477,2.03124 0,2.80588 l 13.44806,13.44728 c 0.77424,0.77451 2.02992,0.77451 2.80524,0 l 13.38522,-13.38496 c 0.7745,-0.77491 0.7745,-2.03137 0,-2.80601"
             inkscape:connector-curvature="0" />
          <path
             inkscape:connector-curvature="0"
             d="m 423.39078,522.42615 -13.44821,-13.44727 c -0.77383,-0.7745 -2.02991,-0.7745 -2.80482,0 l -2.79243,2.79267 3.54226,3.54239 c 0.82348,-0.27803 1.76737,-0.0916 2.42346,0.56461 0.6595,0.66032 0.8446,1.61225 0.55957,2.4385 l 3.41408,3.41394 c 0.82598,-0.28462 1.77895,-0.10074 2.43849,0.55998 0.92209,0.92182 0.92209,2.41551 0,3.33763 -0.92222,0.92237 -2.41592,0.92237 -3.33854,0 -0.69334,-0.69387 -0.86481,-1.71258 -0.51365,-2.56684 l -3.18397,-3.18407 -2.7e-4,8.37869 c 0.2248,0.11129 0.43696,0.25982 0.62429,0.44633 0.92182,0.92172 0.92182,2.41514 0,3.33831 -0.92209,0.92169 -2.41646,0.92169 -3.33764,0 -0.92195,-0.92317 -0.92195,-2.41659 0,-3.33831 0.22785,-0.22744 0.49148,-0.39959 0.77279,-0.51497 l 0,-8.45645 c -0.28131,-0.115 -0.54454,-0.28594 -0.77279,-0.515 -0.69833,-0.69779 -0.86653,-1.72272 -0.50837,-2.58026 l -3.49181,-3.49249 -9.22095,9.22042 c -0.77477,0.77516 -0.77477,2.03124 0,2.80588 l 13.44806,13.44728 c 0.77424,0.77451 2.02992,0.77451 2.80524,0 l 13.38522,-13.38496 c 0.7745,-0.77491 0.7745,-2.03137 0,-2.80601"
             style="fill:url(#linearGradient4223);fill-opacity:1;fill-rule:nonzero;stroke:none"
             id="path14" />
          <path
             inkscape:connector-curvature="0"
             style="fill:#ec513d;fill-opacity:0.31372549;fill-rule:nonzero;stroke:none"
             d="m 20.173828,11.574219 -0.40039,0.398437 3.542968,3.542969 c 0.82348,-0.27803 1.767738,-0.09176 2.423828,0.564453 0.34824,0.348672 0.55435,0.780619 0.638672,1.230469 0.112711,-0.718654 -0.08487,-1.474808 -0.638672,-2.029297 -0.65609,-0.65621 -1.600348,-0.842483 -2.423828,-0.564453 l -3.142578,-3.142578 z m 1.556641,5.099609 c -0.0266,0.226151 -0.01916,0.455023 0.01953,0.679688 0.02981,-0.175731 0.0749,-0.348914 0.144531,-0.515625 l -0.164062,-0.164063 z m 4.689453,1.166016 c -0.0091,0.230308 -0.04508,0.459341 -0.121094,0.679687 l 3.414063,3.414063 c 0.82598,-0.28462 1.779913,-0.102126 2.439453,0.558594 0.358734,0.358629 0.572737,0.80512 0.652344,1.269531 0.125014,-0.72935 -0.08899,-1.505169 -0.652344,-2.06836 -0.65954,-0.66072 -1.613473,-0.845167 -2.439453,-0.560547 l -3.292969,-3.292968 z m 1.71875,5.263672 c -0.02412,0.220516 -0.01445,0.443161 0.02344,0.662109 0.02901,-0.17053 0.07011,-0.339917 0.136719,-0.501953 L 28.138672,23.103516 z M 8.6425781,23.570312 c -0.1288692,0.630953 0.04967,1.311471 0.5390625,1.800782 L 22.628906,38.818359 c 0.77424,0.77451 2.029368,0.77451 2.804688,0 L 38.820312,25.433594 c 0.489697,-0.489956 0.666659,-1.171265 0.53711,-1.802735 -0.07533,0.367322 -0.252279,0.718925 -0.53711,1.003907 L 25.433594,38.019531 c -0.77532,0.77451 -2.030448,0.77451 -2.804688,0 L 9.1816406,24.572266 C 8.8967381,24.287411 8.7179489,23.937517 8.6425781,23.570312 z m 14.5312499,4.019532 c -0.28131,0.11538 -0.543634,0.288185 -0.771484,0.515625 -0.56327,0.563129 -0.777339,1.338858 -0.652344,2.068359 0.0796,-0.464408 0.293664,-0.910941 0.652344,-1.269531 0.22785,-0.22744 0.490174,-0.398292 0.771484,-0.513672 l 0,-0.800781 z m 1.941406,0.06836 0,0.800781 c 0.2248,0.11129 0.43767,0.258803 0.625,0.445313 0.35863,0.35859 0.572761,0.805123 0.652344,1.269531 0.124978,-0.729501 -0.08915,-1.50523 -0.652344,-2.068359 -0.18733,-0.18651 -0.4002,-0.335976 -0.625,-0.447266 z"
             transform="translate(384.57143,499.798)"
             id="path4075" />
          <path
             transform="translate(384.57143,499.798)"
             inkscape:connector-curvature="0"
             style="fill:#ffffff;fill-opacity:0.23529412;fill-rule:nonzero;stroke:none"
             d="m 23.96875,8.5996094 c -0.507613,0 -1.014889,0.1947812 -1.402344,0.5820312 l -2.792968,2.7910154 0.199218,0.199219 2.59375,-2.5917969 c 0.77491,-0.7745 2.030858,-0.7745 2.804688,0 L 38.820312,23.027344 c 0.335854,0.335914 0.515973,0.76456 0.560547,1.203125 0.05759,-0.572214 -0.122395,-1.163332 -0.560547,-1.601563 L 25.371094,9.1816406 C 24.984179,8.7943906 24.476363,8.5996094 23.96875,8.5996094 z m -5.566406,4.7460936 -9.2207034,9.220703 c -0.4383046,0.438526 -0.6201128,1.029448 -0.5625,1.601563 0.04459,-0.438534 0.2265292,-0.865032 0.5625,-1.201172 l 9.2207034,-9.220703 3.390625,3.390625 c 0.02713,-0.101249 0.06078,-0.201189 0.101562,-0.298828 l -3.492187,-3.492188 z m 3.335937,4.484375 c -0.09622,0.705623 0.121107,1.445745 0.664063,1.988281 0.22825,0.22906 0.490174,0.400625 0.771484,0.515625 l 0,-0.40039 c -0.28131,-0.115 -0.543234,-0.286565 -0.771484,-0.515625 -0.440441,-0.4401 -0.644436,-1.011597 -0.664063,-1.587891 z m 4.66211,0.167969 c -0.01891,0.176081 -0.04322,0.352356 -0.101563,0.521484 l 0.06641,0.06641 c 0.03702,-0.195209 0.0476,-0.390254 0.03516,-0.587891 z m -1.285157,2.082031 0,0.400391 3.083985,3.083984 c 0.02653,-0.101583 0.05933,-0.202788 0.09961,-0.300781 l -3.183594,-3.183594 z m 3.033204,4.166016 c -0.09489,0.704569 0.12302,1.442919 0.664062,1.984375 0.92262,0.92237 2.417624,0.92237 3.339844,0 0.511953,-0.51197 0.728404,-1.198533 0.671875,-1.867188 -0.04567,0.535013 -0.262233,1.057141 -0.671875,1.466797 -0.92222,0.92237 -2.417224,0.92237 -3.339844,0 -0.438817,-0.439152 -0.643525,-1.008636 -0.664062,-1.583984 z m -6.417969,6.527344 c -0.05679,0.668948 0.15978,1.356368 0.671875,1.86914 0.92118,0.92169 2.4158,0.92169 3.33789,0 0.512023,-0.512772 0.728656,-1.200192 0.671875,-1.86914 -0.04544,0.535464 -0.262077,1.058352 -0.671875,1.46875 -0.92209,0.92169 -2.41671,0.92169 -3.33789,0 -0.409856,-0.410398 -0.626424,-0.933286 -0.671875,-1.46875 z"
             id="path4080" />
        </g>
      </g>
    </g>
  </g>
  <g
     id="layer2"
     style="display:none">
    <rect
       width="86"
       height="85"
       rx="6"
       ry="6"
       x="5"
       y="7"
       id="rect3745"
       style="opacity:0.9;fill:url(#ButtonShadow);fill-opacity:1;fill-rule:nonzero;stroke:none;filter:url(#filter3174)" />
  </g>
  <g
     id="layer5" />
</svg>
