<?xml version="1.0" encoding="UTF-8" standalone="no"?>
<!-- Created with Inkscape (http://www.inkscape.org/) -->

<svg
   xmlns:dc="http://purl.org/dc/elements/1.1/"
   xmlns:cc="http://creativecommons.org/ns#"
   xmlns:rdf="http://www.w3.org/1999/02/22-rdf-syntax-ns#"
   xmlns:svg="http://www.w3.org/2000/svg"
   xmlns="http://www.w3.org/2000/svg"
   xmlns:xlink="http://www.w3.org/1999/xlink"
   xmlns:sodipodi="http://sodipodi.sourceforge.net/DTD/sodipodi-0.dtd"
   xmlns:inkscape="http://www.inkscape.org/namespaces/inkscape"
   width="96"
   height="96"
   viewBox="0 0 96.000001 96.000004"
   version="1.1"
   id="svg1072"
   inkscape:version="0.92.1 r15371"
   sodipodi:docname="supertux.svg">
  <defs
     id="defs1066">
    <linearGradient
       y2="47.000011"
       x2="90"
       y1="47.000011"
       x1="6"
       gradientTransform="matrix(1.1071428,0,0,1.1071426,-4.9939026,-3.620687)"
       gradientUnits="userSpaceOnUse"
       id="linearGradient4071"
       xlink:href="#linearGradient6139-0"
       inkscape:collect="always" />
    <linearGradient
       id="linearGradient6139-0">
      <stop
         style="stop-color:#bab4b4;stop-opacity:1"
         offset="0"
         id="stop6141-2" />
      <stop
         id="stop6151-0"
         offset="0.25"
         style="stop-color:#ffffff;stop-opacity:1;" />
      <stop
         id="stop6147-1"
         offset="0.5"
         style="stop-color:#a29898;stop-opacity:1" />
      <stop
         style="stop-color:#fbf9f9;stop-opacity:1;"
         offset="0.75"
         id="stop6149-4" />
      <stop
         style="stop-color:#bab4b4;stop-opacity:1"
         offset="1"
         id="stop6143-4" />
    </linearGradient>
    <linearGradient
       gradientUnits="userSpaceOnUse"
       y2="88.171875"
       x2="94.5"
       y1="88.171875"
       x1="1.5"
       id="linearGradient4129"
       xlink:href="#linearGradient3832-0-6-1-1"
       inkscape:collect="always"
       gradientTransform="translate(0.1489535,0.415026)" />
    <linearGradient
       id="linearGradient3832-0-6-1-1">
      <stop
         id="stop3834-6-3-7-1"
         offset="0"
         style="stop-color:#000000;stop-opacity:1;" />
      <stop
         style="stop-color:#000000;stop-opacity:0.58823532;"
         offset="0.1"
         id="stop3872-2-4" />
      <stop
         id="stop3844-6-2-7-6"
         offset="0.89999998"
         style="stop-color:#000000;stop-opacity:0.58823532;" />
      <stop
         id="stop3836-5-0-2-9"
         offset="1"
         style="stop-color:#000000;stop-opacity:1;" />
    </linearGradient>
    <radialGradient
       r="43.199203"
       fy="44.892841"
       fx="13.948145"
       cy="44.892841"
       cx="13.948145"
       gradientTransform="matrix(0.97513378,0,0,0.04919072,34.047649,80.581722)"
       gradientUnits="userSpaceOnUse"
       id="radialGradient7462"
       xlink:href="#linearGradient3737"
       inkscape:collect="always" />
    <linearGradient
       id="linearGradient3737">
      <stop
         id="stop3739"
         style="stop-color:#ffffff;stop-opacity:1"
         offset="0" />
      <stop
         id="stop3741"
         style="stop-color:#ffffff;stop-opacity:0"
         offset="1" />
    </linearGradient>
    <radialGradient
       r="43.199203"
       fy="44.892841"
       fx="13.948145"
       cy="44.892841"
       cx="13.948145"
       gradientTransform="matrix(0.88832663,0,0,0.04919072,31.959518,-90.31726)"
       gradientUnits="userSpaceOnUse"
       id="radialGradient7464"
       xlink:href="#linearGradient3737"
       inkscape:collect="always" />
    <linearGradient
       y2="14.514202"
       x2="50.527882"
       y1="-28.64156"
       x1="2.7713892"
       gradientUnits="userSpaceOnUse"
       id="linearGradient4767"
       xlink:href="#linearGradient3737"
       inkscape:collect="always" />
    <clipPath
       clipPathUnits="userSpaceOnUse"
       id="clipPath4156-4-1">
      <path
         style="opacity:0.6;fill:#ffffff;fill-opacity:1;stroke:none"
         d="m 27.046336,-55.695463 -14.21366,13.321486 h 0.06127 l 15.653407,21.770763 10.231384,-10.546177 C 38.561832,-32.30156 27.468089,-54.819245 27.046336,-55.695463 Z M 9.6468554,-39.382809 -5.2407289,-25.32124 15.987863,-7.8059573 26.372412,-18.382966 Z m 31.4906096,12.951445 -9.741259,9.713584 8.944804,12.4580526 7.780753,-7.5550056 z m -49.8397109,4.378822 -13.7541661,12.9822847 26.2830181,13.84571 0.06127,-0.0617 -0.122531,-0.0617 L 13.598503,-5.4007374 -8.7022409,-22.052595 Z m 38.0154159,7.400825 -9.802525,9.7752596 11.579232,9.5594001 7.62759,-7.40083 -8.669108,-11.0087257 z m 20.187073,5.6739697 -7.382526,7.2158 6.187844,8.54179 5.820249,-6.13651996 z m -32.195166,6.32154 -9.5574606,9.49772 13.6622686,7.1849703 7.933918,-7.6783603 z m 23.311629,2.37443004 -7.10683,6.93826996 8.362778,6.9074403 5.360756,-5.6739699 -0.06127,-0.0925 -0.0919,0.12335 -6.463539,-8.20258036 z m -8.730374,8.54178036 -7.505057,7.3391599 10.353916,5.45811 c 1.397496,-1.32103 5.67514,-6.12292 5.850882,-6.32154 z"
         id="path4158-0-8"
         inkscape:connector-curvature="0" />
    </clipPath>
    <linearGradient
       inkscape:collect="always"
       xlink:href="#linearGradient10039-2"
       id="linearGradient3717-2"
       gradientUnits="userSpaceOnUse"
       x1="193.53125"
       y1="221.91426"
       x2="193.53125"
       y2="347.07217"
       gradientTransform="matrix(0.38144581,0,0,0.20265825,-182.06636,3.9623715)" />
    <linearGradient
       id="linearGradient10039-2">
      <stop
         offset="0"
         style="stop-color:#efefef;stop-opacity:1"
         id="stop10041-0" />
      <stop
         offset="1"
         style="stop-color:#bcbcbc;stop-opacity:1"
         id="stop10043-4" />
    </linearGradient>
    <linearGradient
       inkscape:collect="always"
       xlink:href="#linearGradient10031-4"
       id="linearGradient3719-1"
       gradientUnits="userSpaceOnUse"
       x1="202"
       y1="29.969534"
       x2="202"
       y2="103.63979"
       gradientTransform="matrix(0.80966714,0,0,0.69001626,-269.96484,-36.094431)" />
    <linearGradient
       id="linearGradient10031-4">
      <stop
         offset="0"
         style="stop-color:#ffffff;stop-opacity:0.90196079"
         id="stop10033-6" />
      <stop
         offset="0.5"
         style="stop-color:#ffffff;stop-opacity:0.50196081"
         id="stop10370-9" />
      <stop
         offset="1"
         style="stop-color:#ffffff;stop-opacity:0"
         id="stop10035-8" />
    </linearGradient>
    <filter
       style="color-interpolation-filters:sRGB"
       id="filter12102-3"
       height="1.6799877"
       width="1.2914308"
       y="-0.33999386"
       x="-0.14571542">
      <feGaussianBlur
         stdDeviation="9.3045363"
         id="feGaussianBlur12104-6" />
    </filter>
    <radialGradient
       inkscape:collect="always"
       xlink:href="#linearGradient11291-2"
       id="radialGradient3728-4"
       gradientUnits="userSpaceOnUse"
       gradientTransform="matrix(-0.76218454,-0.01248958,0.01159071,-0.6928068,87.231389,62.625338)"
       cx="232.90625"
       cy="51.545879"
       fx="232.90625"
       fy="51.545879"
       r="36.125" />
    <linearGradient
       id="linearGradient11291-2">
      <stop
         offset="0"
         style="stop-color:#ffffff;stop-opacity:0.90196079"
         id="stop11293-4" />
      <stop
         offset="0.32802752"
         style="stop-color:#ffffff;stop-opacity:0.50196081"
         id="stop11295-2" />
      <stop
         offset="1"
         style="stop-color:#ffffff;stop-opacity:0"
         id="stop11297-4" />
    </linearGradient>
    <filter
       style="color-interpolation-filters:sRGB"
       id="filter11252-9"
       height="1.3996418"
       width="1.3721279"
       y="-0.19982085"
       x="-0.18606396">
      <feGaussianBlur
         stdDeviation="5.2752828"
         id="feGaussianBlur11254-6" />
    </filter>
    <filter
       style="color-interpolation-filters:sRGB"
       id="filter11182-5"
       height="1.2505243"
       width="1.3386598"
       y="-0.12526216"
       x="-0.1693299">
      <feGaussianBlur
         stdDeviation="4.0317543"
         id="feGaussianBlur11184-3" />
    </filter>
    <linearGradient
       inkscape:collect="always"
       xlink:href="#linearGradient10031-4"
       id="linearGradient3730-0"
       gradientUnits="userSpaceOnUse"
       x1="128.40625"
       y1="94.96875"
       x2="179.78125"
       y2="130.46875"
       gradientTransform="matrix(0.42982351,0,0,0.42538716,-189.7976,-23.816311)" />
    <radialGradient
       inkscape:collect="always"
       xlink:href="#linearGradient11121-5"
       id="radialGradient3732-5"
       gradientUnits="userSpaceOnUse"
       gradientTransform="matrix(-0.69781847,0.76530979,-0.6663253,-0.59508686,53.363875,2.5862789)"
       cx="113.13426"
       cy="125.41722"
       fx="113.13426"
       fy="125.41722"
       r="35.125" />
    <linearGradient
       id="linearGradient11121-5">
      <stop
         offset="0"
         style="stop-color:#ffffff;stop-opacity:0.90196079"
         id="stop11123-4" />
      <stop
         offset="0.45320001"
         style="stop-color:#ffffff;stop-opacity:0.50196081"
         id="stop11125-1" />
      <stop
         offset="1"
         style="stop-color:#ffffff;stop-opacity:0"
         id="stop11127-3" />
    </linearGradient>
    <linearGradient
       inkscape:collect="always"
       xlink:href="#linearGradient10031-4"
       id="linearGradient3734-3"
       gradientUnits="userSpaceOnUse"
       x1="155.01221"
       y1="55.221191"
       x2="155.01221"
       y2="88.420464"
       gradientTransform="matrix(0.42982351,0,0,0.42538716,-189.7976,-23.816311)" />
    <linearGradient
       inkscape:collect="always"
       xlink:href="#linearGradient10031-4"
       id="linearGradient3736-0"
       gradientUnits="userSpaceOnUse"
       x1="233.84886"
       y1="72.522697"
       x2="233.84886"
       y2="91.96846"
       gradientTransform="matrix(0.42982351,0,0,0.42538716,-189.7976,-23.816311)" />
    <linearGradient
       inkscape:collect="always"
       xlink:href="#linearGradient11360-8"
       id="linearGradient3738-6"
       gradientUnits="userSpaceOnUse"
       x1="223.03125"
       y1="91.015617"
       x2="258.875"
       y2="130.01561"
       gradientTransform="matrix(0.42982351,0,0,0.42538716,-189.7976,-23.816311)" />
    <linearGradient
       id="linearGradient11360-8">
      <stop
         offset="0"
         style="stop-color:#ffffff;stop-opacity:0.90196079"
         id="stop11362-2" />
      <stop
         offset="0.31528139"
         style="stop-color:#ffffff;stop-opacity:0.50196081"
         id="stop11364-1" />
      <stop
         offset="1"
         style="stop-color:#ffffff;stop-opacity:0"
         id="stop11366-3" />
    </linearGradient>
    <linearGradient
       inkscape:collect="always"
       xlink:href="#linearGradient11532-4"
       id="linearGradient3740-1"
       gradientUnits="userSpaceOnUse"
       x1="173.5625"
       y1="158.78125"
       x2="183.0625"
       y2="99.135406"
       gradientTransform="matrix(0.42982351,0,0,0.42538716,-189.7976,-23.816311)" />
    <linearGradient
       id="linearGradient11532-4">
      <stop
         offset="0"
         style="stop-color:#ffffff;stop-opacity:0.90196079"
         id="stop11534-9" />
      <stop
         offset="0.17569453"
         style="stop-color:#ffffff;stop-opacity:0.50196081"
         id="stop11536-0" />
      <stop
         offset="1"
         style="stop-color:#ffffff;stop-opacity:0"
         id="stop11538-0" />
    </linearGradient>
    <linearGradient
       inkscape:collect="always"
       xlink:href="#linearGradient10433-4"
       id="linearGradient3742-3"
       gradientUnits="userSpaceOnUse"
       x1="156.37009"
       y1="169.46875"
       x2="228.69044"
       y2="169.46875"
       gradientTransform="matrix(0.42982351,0,0,0.42538716,-189.7976,-23.816311)" />
    <linearGradient
       id="linearGradient10433-4">
      <stop
         offset="0"
         style="stop-color:#d99600;stop-opacity:1"
         id="stop10435-7" />
      <stop
         offset="1"
         style="stop-color:#dfa800;stop-opacity:1"
         id="stop10437-6" />
    </linearGradient>
    <filter
       style="color-interpolation-filters:sRGB"
       id="filter10487-8">
      <feGaussianBlur
         stdDeviation="1.3416777"
         id="feGaussianBlur10489-9" />
    </filter>
    <filter
       style="color-interpolation-filters:sRGB"
       id="filter10857-2"
       height="1.3654251"
       width="1.2722038"
       y="-0.18271257"
       x="-0.13610192">
      <feGaussianBlur
         stdDeviation="3.20761"
         id="feGaussianBlur10859-0" />
    </filter>
    <linearGradient
       inkscape:collect="always"
       xlink:href="#linearGradient10762-4"
       id="linearGradient3744-4"
       gradientUnits="userSpaceOnUse"
       x1="215.9375"
       y1="142.375"
       x2="196.81396"
       y2="174.625"
       gradientTransform="matrix(0.42982351,0,0,0.42538716,-189.7976,-23.816311)" />
    <linearGradient
       id="linearGradient10762-4">
      <stop
         offset="0"
         style="stop-color:#ffffff;stop-opacity:1"
         id="stop10764-8" />
      <stop
         offset="1"
         style="stop-color:#ffffff;stop-opacity:0.19607843"
         id="stop10766-1" />
    </linearGradient>
    <linearGradient
       inkscape:collect="always"
       xlink:href="#linearGradient10762-4"
       id="linearGradient3746-7"
       gradientUnits="userSpaceOnUse"
       x1="177.01546"
       y1="182.03799"
       x2="183.34375"
       y2="176.04688"
       gradientTransform="matrix(0.42982351,0,0,0.42538716,-189.7976,-23.816311)" />
    <linearGradient
       inkscape:collect="always"
       xlink:href="#linearGradient11524-7"
       id="linearGradient3750-0"
       gradientUnits="userSpaceOnUse"
       x1="204.4375"
       y1="154.97546"
       x2="204.4375"
       y2="109.71875"
       gradientTransform="matrix(0.42982351,0,0,0.42538716,-189.7976,-23.816311)" />
    <linearGradient
       id="linearGradient11524-7">
      <stop
         offset="0"
         style="stop-color:#ffffff;stop-opacity:0.90196079"
         id="stop11526-8" />
      <stop
         offset="0.23175907"
         style="stop-color:#ffffff;stop-opacity:0.50196081"
         id="stop11528-2" />
      <stop
         offset="1"
         style="stop-color:#ffffff;stop-opacity:0"
         id="stop11530-4" />
    </linearGradient>
    <linearGradient
       inkscape:collect="always"
       xlink:href="#linearGradient10031-4"
       id="linearGradient3752-6"
       gradientUnits="userSpaceOnUse"
       x1="183.1875"
       y1="105.875"
       x2="183.1875"
       y2="127.13049"
       gradientTransform="matrix(0.42982351,0,0,0.42538716,-189.7976,-23.816311)" />
    <linearGradient
       inkscape:collect="always"
       xlink:href="#linearGradient11633-7"
       id="linearGradient3754-6"
       gradientUnits="userSpaceOnUse"
       x1="208.34375"
       y1="108.34375"
       x2="207.0625"
       y2="140.17188"
       gradientTransform="matrix(0.42982351,0,0,0.42538716,-189.7976,-23.816311)" />
    <linearGradient
       id="linearGradient11633-7">
      <stop
         offset="0"
         style="stop-color:#ffffff;stop-opacity:0.90196079"
         id="stop11635-2" />
      <stop
         offset="0.3093777"
         style="stop-color:#ffffff;stop-opacity:0.50196081"
         id="stop11637-9" />
      <stop
         offset="1"
         style="stop-color:#ffffff;stop-opacity:0"
         id="stop11639-3" />
    </linearGradient>
  </defs>
  <sodipodi:namedview
     id="base"
     pagecolor="#ffffff"
     bordercolor="#666666"
     borderopacity="1.0"
     inkscape:pageopacity="0.0"
     inkscape:pageshadow="2"
     inkscape:zoom="1.5693104"
     inkscape:cx="-76.201845"
     inkscape:cy="44.557005"
     inkscape:document-units="px"
     inkscape:current-layer="g2574"
     showgrid="false"
     inkscape:showpageshadow="false"
     units="px"
     inkscape:lockguides="false"
     inkscape:window-width="1280"
     inkscape:window-height="972"
     inkscape:window-x="0"
     inkscape:window-y="26"
     inkscape:window-maximized="1" />
  <metadata
     id="metadata1069">
    <rdf:RDF>
      <cc:Work
         rdf:about="">
        <dc:format>image/svg+xml</dc:format>
        <dc:type
           rdf:resource="http://purl.org/dc/dcmitype/StillImage" />
        <dc:title></dc:title>
        <dc:date>2017</dc:date>
        <dc:creator>
          <cc:Agent>
            <dc:title>Cristian Pozzessere &quot;ilnanny&quot;</dc:title>
          </cc:Agent>
        </dc:creator>
        <dc:subject>
          <rdf:Bag>
            <rdf:li>Global language</rdf:li>
          </rdf:Bag>
        </dc:subject>
        <dc:description>Playing with Inkscape on Gnu/Linux O. S.</dc:description>
        <dc:contributor>
          <cc:Agent>
            <dc:title>In the night, alone like a dog.</dc:title>
          </cc:Agent>
        </dc:contributor>
        <cc:license
           rdf:resource="http://creativecommons.org/licenses/by-sa/4.0/" />
      </cc:Work>
      <cc:License
         rdf:about="http://creativecommons.org/licenses/by-sa/4.0/">
        <cc:permits
           rdf:resource="http://creativecommons.org/ns#Reproduction" />
        <cc:permits
           rdf:resource="http://creativecommons.org/ns#Distribution" />
        <cc:requires
           rdf:resource="http://creativecommons.org/ns#Notice" />
        <cc:requires
           rdf:resource="http://creativecommons.org/ns#Attribution" />
        <cc:permits
           rdf:resource="http://creativecommons.org/ns#DerivativeWorks" />
        <cc:requires
           rdf:resource="http://creativecommons.org/ns#ShareAlike" />
      </cc:License>
    </rdf:RDF>
  </metadata>
  <g
     inkscape:label="Livello 1"
     inkscape:groupmode="layer"
     id="layer1"
     transform="translate(0,-1026.5197)">
    <g
       transform="translate(-0.14895645,1026.1047)"
       style="display:inline"
       id="g2574">
      <path
         inkscape:connector-curvature="0"
         id="path3288"
         d="M 89.29181,0.415026 H 7.0060911 c -3.798848,0 -6.8571352,3.058285 -6.8571352,6.8571399 V 89.557884 c 0,3.798857 3.0582872,6.857142 6.8571352,6.857142 H 89.29181 c 3.798857,0 6.857147,-3.058285 6.857147,-6.857142 V 7.2721659 c 0,-3.7988549 -3.05829,-6.8571399 -6.857147,-6.8571399 z"
         style="display:inline;opacity:0.15;fill:#000000;fill-opacity:1;fill-rule:nonzero;stroke:none" />
      <path
         style="display:inline;opacity:0.15;fill:#000000;fill-opacity:1;fill-rule:nonzero;stroke:none"
         d="M 88.648954,1.165026 H 7.6489471 c -3.739492,0 -6.749993,3.010499 -6.749993,6.7499969 V 88.915026 c 0,3.739501 3.010501,6.75 6.749993,6.75 H 88.648954 c 3.739503,0 6.750003,-3.010499 6.750003,-6.75 V 7.9150229 c 0,-3.7394979 -3.0105,-6.7499969 -6.750003,-6.7499969 z"
         id="path4085"
         inkscape:connector-curvature="0" />
      <path
         inkscape:connector-curvature="0"
         id="rect4251-1"
         d="M 88.006093,1.915026 H 8.2918111 c -3.680143,0 -6.6428566,2.962713 -6.6428566,6.6428549 V 88.272171 c 0,3.680142 2.9627136,6.642856 6.6428566,6.642856 H 88.006093 c 3.680143,0 6.642854,-2.962714 6.642854,-6.642856 V 8.5578809 c 0,-3.6801419 -2.962711,-6.6428549 -6.642854,-6.6428549 z"
         style="display:inline;fill:url(#linearGradient4071);fill-opacity:1;fill-rule:nonzero;stroke:none" />
      <path
         sodipodi:nodetypes="sscccsccscccsss"
         inkscape:connector-curvature="0"
         id="path3400-6"
         d="m 11.390247,6.8021682 c -2.8564964,0 -5.1241284,2.3234574 -5.1241284,5.2502708 v 21.755806 7.350378 40.525523 c 1.0972399,1.710306 2.9688485,2.854834 5.1241284,2.854834 h 4.099303 65.588849 4.099302 c 2.155281,0 4.026889,-1.144528 5.124129,-2.854834 V 41.158623 33.808245 12.052439 c 0,-2.9268134 -2.267632,-5.2502708 -5.124129,-5.2502708 z"
         style="display:inline;opacity:0.77864583;fill:#f5f3f3;fill-opacity:1;fill-rule:nonzero;stroke:none;stroke-width:1.03736329" />
      <path
         style="color:#000000;font-style:normal;font-variant:normal;font-weight:normal;font-stretch:normal;font-size:medium;line-height:normal;font-family:Sans;-inkscape-font-specification:Sans;text-indent:0;text-align:start;text-decoration:none;text-decoration-line:none;letter-spacing:normal;word-spacing:normal;text-transform:none;writing-mode:lr-tb;direction:ltr;baseline-shift:baseline;text-anchor:start;display:inline;overflow:visible;visibility:visible;fill:#241f1f;fill-opacity:0.63265303;stroke:none;stroke-width:2.3755002;marker:none;enable-background:accumulate"
         d="m 9.9740341,5.1444869 c -3.116621,0 -5.667965,2.53951 -5.667965,5.6460041 v 69.277996 c 0,3.106495 2.551344,5.646004 5.667965,5.646004 H 86.765819 c 3.116621,0 5.667968,-2.539509 5.667968,-5.646004 V 10.790491 c 0,-3.1064931 -2.551347,-5.6460041 -5.667968,-5.6460041 z m 0,2.319439 H 86.765819 c 1.888099,0 3.352022,1.480095 3.352022,3.3265651 v 69.277996 c 0,1.846474 -1.463923,3.326564 -3.352022,3.326564 H 9.9740341 c -1.888099,0 -3.352022,-1.48009 -3.352022,-3.326564 V 10.790491 c 0,-1.8464701 1.463923,-3.3265651 3.352022,-3.3265651 z"
         id="path4989"
         inkscape:connector-curvature="0" />
      <path
         id="path4118"
         d="m 1.6489535,82.258776 v 6 c 0,3.680142 2.9761066,6.65625 6.6562496,6.65625 H 87.992703 c 3.680143,0 6.656254,-2.976108 6.656254,-6.65625 v -6 c 0,3.680142 -2.976111,6.65625 -6.656254,6.65625 H 8.3052031 c -3.680143,0 -6.6562496,-2.976108 -6.6562496,-6.65625 z"
         style="display:inline;opacity:0.65818182;fill:url(#linearGradient4129);fill-opacity:1;fill-rule:nonzero;stroke:none"
         inkscape:connector-curvature="0" />
      <g
         transform="matrix(0.73596276,0,0,0.73596276,126.69641,23.261545)"
         id="g1752"
         style="stroke:none">
        <path
           sodipodi:nodetypes="csccscc"
           inkscape:connector-curvature="0"
           d="m -107.17746,-18.844599 c -25.72472,0.443903 -44.20348,19.84162896 -46.4881,38.683645 -2.31121,19.06131 -0.96073,22.87177 -5.77575,38.311431 21.95758,28.68787 81.173308,25.713108 105.427643,0 -4.815025,-15.439661 -3.464541,-19.250121 -5.775753,-38.311431 -2.28462,-18.84201817 -20.763386,-38.239742 -46.4881,-38.683645 z"
           id="path3536"
           style="fill:#000000;stroke:none;stroke-width:2.56559753;stroke-linecap:butt;stroke-linejoin:miter;stroke-miterlimit:4;stroke-dasharray:none;stroke-opacity:1" />
        <path
           inkscape:connector-curvature="0"
           d="m -108.4354,32.866504 c -29.80438,0 -41.12463,15.764273 -41.12463,26.225246 0,13.756284 18.25164,19.955502 40.99351,19.955502 0.27063,0 0.37694,0 0.64369,0 22.741875,0 40.993501,-6.199218 40.993501,-19.955502 0,-10.460973 -11.332163,-26.225246 -41.136551,-26.225246 -0.1262,0 -0.21343,0 -0.36952,0 z"
           id="path3540"
           style="fill:url(#linearGradient3717-2);fill-opacity:1;stroke:none;stroke-width:0.27803439" />
        <path
           inkscape:connector-curvature="0"
           d="m -71.596391,11.171683 a 34.815687,29.670699 0 1 1 -69.631369,0 34.815687,29.670699 0 1 1 69.631369,0 z"
           id="path3542"
           style="color:#000000;display:inline;overflow:visible;visibility:visible;fill:url(#linearGradient3719-1);fill-opacity:1;stroke:none;stroke-width:0.85519809;marker:none;enable-background:accumulate" />
        <path
           transform="matrix(0.42982351,0,0,0.42538716,-189.7976,-23.816311)"
           inkscape:connector-curvature="0"
           d="m 117.21875,133 c 3.86328,15.28234 13.55573,28.89702 28.4375,33.9375 4.88727,1.71766 9.86999,2.04823 14.6875,1.3125 1.40518,1.76541 2.91584,3.38972 4.1875,4.78125 7.82566,7.97672 13.86312,18.16465 23.03125,24.59375 6.38583,2.99458 13.20452,-0.8042 16.875,-6.125 7.67576,-9.63597 17.21378,-18.03335 23.65625,-28.5 1.00969,-1.75724 1.28581,-3.57044 1.0625,-5.3125 3.50296,0.2916 7.036,0.11556 10.5,-0.5625 13.59576,-1.77777 25.78588,-11.56212 30.8125,-24.125 H 194.625 c 1.0648,2.75486 2.48586,5.33579 4.1875,7.71875 -2.22604,-0.27085 -4.47175,-0.39284 -6.71875,-0.375 0.9466,-2.37615 1.71886,-4.83848 2.34375,-7.34375 z"
           id="path3548"
           style="color:#000000;display:inline;overflow:visible;visibility:visible;fill:#000000;fill-opacity:1;stroke:none;stroke-width:1.96890533;marker:none;filter:url(#filter12102-3);enable-background:accumulate" />
        <path
           inkscape:connector-curvature="0"
           d="m -122.772,0.86943763 c -0.21369,0.001829 -0.4308,0.004313 -0.64473,0.0132934 a 2.7941322,2.765293 0 0 0 -0.0134,0 C -135.17733,1.43388 -143.10256,11.774337 -144.29001,21.819755 c -0.002,0.01302 0.002,0.02689 0,0.03986 -0.002,0.01791 -0.0115,0.03526 -0.0134,0.05317 h 0.0134 c -0.50723,3.590693 -0.2601,7.36013 0.71189,10.95372 h 5.09072 c -0.5518,-2.067007 -0.85964,-4.280424 -0.85964,-6.580208 0,-11.441792 7.40757,-20.7110372 16.53477,-20.7110372 6.82439,0 12.66989,5.1895002 15.19157,12.5888012 0.008,0.02277 0.0192,0.04365 0.0269,0.06647 0.0162,0.045 0.0378,0.08781 0.0537,0.132933 -0.003,0.0052 -0.0104,0.0081 -0.0134,0.01329 0.80616,2.440301 1.2626,5.10391 1.2626,7.909542 0,2.299784 -0.30785,4.513201 -0.85965,6.580208 h 1.97451 c -0.71924,-1.685771 -1.11486,-3.519386 -1.11486,-5.43698 0,-8.287103 7.362973,-15.008191 16.454183,-15.008191 4.662811,0 8.878791,1.773024 11.873874,4.612792 1.689379,1.361926 3.085936,3.049048 4.002732,4.9983 a 2.7941322,2.765293 0 0 0 0.05373,0.106346 c 1.736839,3.323597 1.520784,7.255935 0.02686,10.727733 h 6.084689 c 1.269595,-4.259593 1.082407,-8.913103 -1.101423,-13.160415 -0.01762,-0.03429 -0.02239,-0.0721 -0.04027,-0.106347 l -0.01341,0.01327 C -72.76859,11.610545 -81.595553,7.1790803 -90.226212,7.7819364 v -0.013293 c -0.03172,0.00128 -0.06234,0.011864 -0.09402,0.013293 -4.954159,0.2236639 -9.633923,2.3614266 -13.203648,5.6363796 -2.13966,-4.2254861 -5.47825,-7.8864943 -10.02026,-10.342225 a 2.7941322,2.765293 0 0 0 -0.0537,-0.013293 c -2.80501,-1.4516945 -5.96876,-2.22090592 -9.17414,-2.19335997 z"
           id="path3562"
           style="color:#000000;font-style:normal;font-variant:normal;font-weight:normal;font-stretch:normal;font-size:medium;line-height:normal;font-family:AlArabiya;-inkscape-font-specification:AlArabiya;text-indent:0;text-align:start;text-decoration:none;text-decoration-line:none;letter-spacing:normal;word-spacing:normal;text-transform:none;writing-mode:lr-tb;direction:ltr;text-anchor:start;display:inline;overflow:visible;visibility:visible;fill:#000000;fill-opacity:1;stroke:none;stroke-width:5.5587945;marker:none;enable-background:accumulate" />
        <path
           inkscape:connector-curvature="0"
           d="m -73.369124,27.432601 a 16.4611,15.005123 0 1 1 -32.922196,0 16.4611,15.005123 0 1 1 32.922196,0 z"
           id="path3564"
           style="color:#000000;display:inline;overflow:visible;visibility:visible;fill:#838383;fill-opacity:1;stroke:none;stroke-width:0.85519922;stroke-linecap:round;stroke-linejoin:round;stroke-miterlimit:4;stroke-dasharray:none;stroke-dashoffset:0;stroke-opacity:1;marker:none;enable-background:accumulate" />
        <path
           inkscape:connector-curvature="0"
           d="m -74.161644,32.04234 c -3.576995,2.812239 -9.417596,4.652673 -16.024358,4.652673 -6.022618,0 -11.414408,-1.522002 -15.030388,-3.921538 2.36255,5.648103 8.353751,9.664264 15.37962,9.664264 7.326544,0 13.540906,-4.364123 15.675126,-10.395399 z"
           id="path3566"
           style="color:#000000;display:inline;overflow:visible;visibility:visible;fill:url(#radialGradient3728-4);fill-opacity:1;stroke:none;stroke-width:0.85519928;marker:none;enable-background:accumulate" />
        <path
           inkscape:connector-curvature="0"
           d="M 230.5625,89.15625 C 209.8308,88.739692 191.20134,112.31236 200.59375,132 c 9.83037,23.32855 46.5842,26.90158 60.65625,5.78125 9.87539,-13.04031 6.23537,-33.71256 -7.875,-42.25 -6.64233,-4.600103 -14.80406,-6.737157 -22.8125,-6.375 z"
           transform="matrix(0.4183382,-0.09768038,0.0881164,0.36962826,-197.73958,3.637836)"
           id="path3568"
           style="color:#000000;display:inline;overflow:visible;visibility:visible;fill:#d7d7d7;fill-opacity:1;stroke:none;stroke-width:2.1166954;stroke-linecap:round;stroke-linejoin:round;stroke-miterlimit:4;stroke-dasharray:none;stroke-dashoffset:0;stroke-opacity:1;marker:none;filter:url(#filter11252-9);enable-background:accumulate" />
        <path
           inkscape:connector-curvature="0"
           d="m -97.060884,28.566691 a 4.1030591,6.2978478 0 1 1 -8.206116,0 4.1030591,6.2978478 0 1 1 8.206116,0 z"
           id="path3570"
           style="color:#000000;display:inline;overflow:visible;visibility:visible;fill:#000000;stroke:none;stroke-width:0.855196;stroke-linecap:round;stroke-linejoin:round;stroke-miterlimit:4;stroke-dasharray:none;stroke-dashoffset:0;stroke-opacity:1;marker:none;enable-background:accumulate" />
        <path
           inkscape:connector-curvature="0"
           d="m -106.29253,26.292431 a 16.526255,20.717294 0 1 1 -33.0525,0 16.526255,20.717294 0 1 1 33.0525,0 z"
           id="path3572"
           style="color:#000000;display:inline;overflow:visible;visibility:visible;fill:#bababa;fill-opacity:1;stroke:none;stroke-width:0.85520118;marker:none;enable-background:accumulate" />
        <path
           transform="matrix(0.42982351,0,0,0.42538716,-189.7976,-23.816311)"
           inkscape:connector-curvature="0"
           d="m 155.3125,79.1875 c -16.57248,1.28785 -26.6628,18.248439 -27.75,33.5 -2.08524,17.82731 6.52494,39.67223 25.625,43.625 16.19611,1.48155 28.44978,-14.64357 30.34375,-29.5 3.55413,-17.92454 -3.7612,-40.379181 -22.25,-46.9375 -1.94311,-0.505938 -3.95464,-0.811933 -5.96875,-0.6875 z"
           id="path3574"
           style="color:#000000;display:inline;overflow:visible;visibility:visible;fill:#d7d7d7;fill-opacity:1;stroke:none;stroke-width:1.96890533;marker:none;filter:url(#filter11182-5);enable-background:accumulate" />
        <path
           inkscape:connector-curvature="0"
           d="m -122.81229,5.5752831 c -4.62015,0 -8.37639,1.77513 -11.37538,5.6064049 0.60791,-0.07468 1.22981,-0.11964 1.85361,-0.11964 12.66731,0 18.03765,10.821609 18.03765,23.426269 0,3.976604 -0.80996,7.711405 -2.25658,10.967012 6.0174,-3.096184 10.26204,-10.509938 10.26204,-19.169009 0,-11.441792 -7.39414,-20.7110369 -16.52134,-20.7110369 z"
           id="path3576"
           style="color:#000000;display:inline;overflow:visible;visibility:visible;fill:url(#linearGradient3730-0);fill-opacity:1;stroke:none;stroke-width:0.85519916;marker:none;enable-background:accumulate" />
        <path
           inkscape:connector-curvature="0"
           d="m -133.55788,10.560289 c -3.53878,3.799672 -5.78919,9.427034 -5.78919,15.726031 0,11.441792 7.40758,20.724331 16.53478,20.724331 5.67733,0 10.68509,-3.586128 13.66033,-9.05277 -2.37428,2.126965 -5.10083,3.33663 -8.00547,3.33663 -9.15867,0 -16.5885,-12.031816 -16.5885,-26.879151 0,-1.309402 0.0765,-2.595726 0.18805,-3.855071 z"
           id="path3578"
           style="color:#000000;display:inline;overflow:visible;visibility:visible;fill:url(#radialGradient3732-5);fill-opacity:1;stroke:none;stroke-width:0.84190309;marker:none;enable-background:accumulate" />
        <path
           inkscape:connector-curvature="0"
           d="m -107.85016,28.322558 a 4.25504,7.1062675 0 1 1 -8.51008,0 4.25504,7.1062675 0 1 1 8.51008,0 z"
           id="path3580"
           style="color:#000000;display:inline;overflow:visible;visibility:visible;fill:#000000;stroke:none;stroke-width:0.8551994;stroke-linecap:round;stroke-linejoin:round;stroke-miterlimit:4;stroke-dasharray:none;stroke-dashoffset:0;stroke-opacity:1;marker:none;enable-background:accumulate" />
        <path
           inkscape:connector-curvature="0"
           d="m -122.40988,1.721386 c -8.91544,0 -17.21782,6.6892731 -19.76609,14.98043 h 0.0263 c 2.78899,-6.521765 10.35484,-12.2943908 18.84563,-12.2943908 8.49079,0 16.32258,5.7726258 19.11158,12.2943908 h 0.029 c -2.54828,-8.2911569 -9.331,-14.98043 -18.24644,-14.98043 z"
           id="path3582"
           style="color:#000000;display:inline;overflow:visible;visibility:visible;fill:url(#linearGradient3734-3);fill-opacity:1;stroke:none;stroke-width:0.42759958;marker:none;enable-background:accumulate" />
        <path
           inkscape:connector-curvature="0"
           d="m -88.581952,8.8321535 c -6.549139,0 -12.277488,2.5896165 -15.379618,6.4472745 3.71601,-2.185054 8.405856,-4.161925 13.893671,-4.161925 8.102354,0 15.422076,3.549995 18.853503,7.804302 -1.845116,-5.782381 -8.919886,-10.0896515 -17.367556,-10.0896515 z"
           id="path3584"
           style="color:#000000;display:inline;overflow:visible;visibility:visible;fill:url(#linearGradient3736-0);fill-opacity:1;stroke:none;stroke-width:0.42759958;marker:none;enable-background:accumulate" />
        <path
           inkscape:connector-curvature="0"
           d="m -106.29253,26.292431 a 16.526255,20.717294 0 1 1 -33.0525,0 16.526255,20.717294 0 1 1 33.0525,0 z"
           id="path3586"
           style="color:#000000;display:inline;overflow:visible;visibility:visible;fill:none;stroke:none;stroke-width:0.85520118;stroke-opacity:1;marker:none;enable-background:accumulate" />
        <path
           inkscape:connector-curvature="0"
           d="m -89.83677,12.421358 c -3.250699,0 -6.272496,0.870474 -8.824814,2.352922 9.413569,0.340134 16.937733,7.546381 16.937733,16.403993 0,4.171274 -1.671416,7.976379 -4.419123,10.873959 7.314169,-1.527289 12.773817,-7.492263 12.773817,-14.622684 0,-8.287103 -7.376403,-15.00819 -16.467613,-15.00819 z"
           id="path3588"
           style="color:#000000;display:inline;overflow:visible;visibility:visible;fill:url(#linearGradient3738-6);fill-opacity:1;stroke:none;stroke-width:0.85519928;marker:none;enable-background:accumulate" />
        <path
           inkscape:connector-curvature="0"
           d="m -113.61138,21.686822 c -1.6051,1.01702 -2.75356,3.596176 -2.75356,6.633381 0,3.924681 1.90795,7.111941 4.25794,7.111941 0.97467,0 1.87496,-0.554943 2.59237,-1.475561 -0.22516,0.04612 -0.45115,0.07976 -0.68503,0.07976 -2.71509,0 -4.91611,-3.213881 -4.91611,-7.178409 0,-2.031142 0.57579,-3.86528 1.50439,-5.171112 z"
           id="path3590"
           style="color:#000000;display:inline;overflow:visible;visibility:visible;fill:url(#linearGradient3740-1);fill-opacity:1;stroke:none;stroke-width:0.85519916;stroke-linecap:round;stroke-linejoin:round;stroke-miterlimit:4;stroke-dasharray:none;stroke-dashoffset:0;stroke-opacity:1;marker:none;enable-background:accumulate" />
        <path
           inkscape:connector-curvature="0"
           d="m -73.369124,27.432597 a 16.4611,15.005123 0 1 1 -32.922196,0 16.4611,15.005123 0 1 1 32.922196,0 z"
           id="path3592"
           style="color:#000000;display:inline;overflow:visible;visibility:visible;fill:none;stroke:none;stroke-width:0.85519922;stroke-linecap:round;stroke-linejoin:round;stroke-miterlimit:4;stroke-dasharray:none;stroke-dashoffset:0;stroke-opacity:1;marker:none;enable-background:accumulate" />
        <path
           inkscape:connector-curvature="0"
           d="m -107.41924,36.748186 c -6.64849,0 -13.87574,4.021482 -14.41252,5.942127 -0.49389,1.767169 0.80722,3.512069 1.41036,4.240578 0.6087,0.735231 9.24048,10.642693 10.11429,11.43228 0.8738,0.789582 1.53159,1.435682 3.05124,1.435682 0.69678,0 -0.24707,0 0.44682,0 1.51966,0 2.15608,-0.6461 3.02988,-1.435682 0.8738,-0.789587 9.492149,-10.697049 10.100852,-11.43228 0.603137,-0.728509 1.91768,-2.473409 1.423791,-4.240578 -0.536781,-1.920645 -7.764023,-5.942127 -14.412523,-5.942127 z"
           id="path3594"
           style="fill:url(#linearGradient3742-3);fill-opacity:1;stroke:none;stroke-width:0.42759958" />
        <path
           transform="matrix(0.42982351,0,0,0.42538716,-189.7976,-23.816311)"
           inkscape:connector-curvature="0"
           d="m 190.46875,146.40625 c -10.0719,1.02056 -21.93918,3.59082 -28.46875,11.78125 1.07068,6.92565 8.09176,10.76871 11.80545,16.20154 6.01442,6.00067 10.15503,14.78691 18.13205,18.20471 6.97769,-0.23548 9.5786,-8.39931 14.28125,-12.28125 5.24669,-7.49453 14.34439,-13.17431 16.875,-22.1875 -1.91389,-4.69162 -8.20296,-5.61012 -12.125,-8.0625 -6.54536,-2.58051 -13.39616,-4.00879 -20.5,-3.65625 z"
           id="path3596"
           style="fill:none;stroke:none;filter:url(#filter10487-8)" />
        <path
           transform="matrix(0.42982351,0,0,0.42538716,-189.7976,-23.816311)"
           inkscape:connector-curvature="0"
           d="m 191.875,148.375 c -9.70584,0.82299 -21.16815,2.70516 -27.65625,10.5625 2.80676,7.24924 10.01313,11.52765 14.375,17.8125 4.28562,4.91679 7.76716,11.61396 14.1875,13.75 6.28769,-2.10329 8.86169,-9.26767 13.4375,-13.53125 4.85666,-6.18905 12.59902,-11.22248 14.5625,-18.9375 -4.08056,-4.29524 -10.90995,-5.9918 -16.5625,-8.09375 -4.00816,-1.11091 -8.18402,-1.64444 -12.34375,-1.5625 z"
           id="path3598"
           style="fill:#ecd000;fill-opacity:1;stroke:none;filter:url(#filter10857-2)" />
        <path
           inkscape:connector-curvature="0"
           d="m -107.41924,36.748186 c -3.9094,0 -8.0079,1.38834 -10.83961,2.924537 12.5451,2.635358 17.83847,5.509461 21.504608,10.794199 1.530503,-1.755054 2.859792,-3.274975 3.075924,-3.536031 0.603137,-0.728509 1.91768,-2.473409 1.423791,-4.240578 -0.536781,-1.920645 -7.764023,-5.942127 -14.412523,-5.942127 z"
           id="path3600"
           style="fill:url(#linearGradient3744-4);fill-opacity:1;stroke:none;stroke-width:0.42759958" />
        <path
           inkscape:connector-curvature="0"
           d="m -120.16619,40.855831 c -0.92332,0.679105 -1.52538,1.332895 -1.66557,1.834482 -0.49389,1.767169 0.80722,3.512069 1.41036,4.240578 0.6087,0.735231 9.24048,10.642693 10.11429,11.43228 0.8738,0.789582 1.5294,1.435682 3.04906,1.435682 h 0.44325 c 1.51966,0 2.16183,-0.6461 3.03563,-1.435682 0.0422,-0.03812 0.17873,-0.187341 0.25521,-0.265867 -1.66074,-0.643611 -3.20662,-1.551732 -4.48629,-2.81819 -1.25371,-1.240773 -6.50049,-7.031603 -10.03369,-10.528332 -1.15289,-1.140991 -1.78975,-2.530228 -2.12225,-3.894951 z"
           id="path3602"
           style="fill:url(#linearGradient3746-7);fill-opacity:1;stroke:none;stroke-width:0.42759958" />
        <path
           inkscape:connector-curvature="0"
           d="m -107.41924,36.748186 c -6.64849,0 -13.87574,4.021482 -14.41252,5.942127 -0.49389,1.767169 0.80722,3.512069 1.41036,4.240578 0.6087,0.735231 9.24048,10.642693 10.11429,11.43228 0.8738,0.789582 1.53159,1.435682 3.05124,1.435682 0.69678,0 -0.24707,0 0.44682,0 1.51966,0 2.15608,-0.6461 3.02988,-1.435682 0.8738,-0.789587 9.492149,-10.697049 10.100852,-11.43228 0.603137,-0.728509 1.91768,-2.473409 1.423791,-4.240578 -0.536781,-1.920645 -7.764023,-5.942127 -14.412523,-5.942127 z"
           id="path3604"
           style="fill:none;stroke:none;stroke-width:1.28279877;stroke-miterlimit:4;stroke-dasharray:none;stroke-opacity:1" />
        <path
           inkscape:connector-curvature="0"
           d="m -103.38964,23.282024 c -1.12911,1.121963 -1.88048,3.072516 -1.88048,5.290752 0,3.478221 1.84412,6.287754 4.11019,6.287754 0.9771,0 1.874251,-0.520563 2.578938,-1.395801 -0.258586,0.05567 -0.522029,0.09305 -0.792487,0.09305 -2.715091,0 -4.916111,-2.916301 -4.916111,-6.513741 0,-1.401752 0.33139,-2.699332 0.89995,-3.762017 z"
           id="path3606"
           style="color:#000000;display:inline;overflow:visible;visibility:visible;fill:url(#linearGradient3750-0);fill-opacity:1;stroke:none;stroke-width:0.8551991;stroke-linecap:round;stroke-linejoin:round;stroke-miterlimit:4;stroke-dasharray:none;stroke-dashoffset:0;stroke-opacity:1;marker:none;enable-background:accumulate" />
        <path
           inkscape:connector-curvature="0"
           d="m -112.107,21.221555 c -0.62873,0 -1.22252,0.229296 -1.75959,0.63808 2.07888,2.874273 2.0148,4.812193 2.0148,4.812193 l 3.59977,-1.342629 c -0.67672,-2.427722 -2.14585,-4.107644 -3.85498,-4.107644 z"
           id="path3608"
           style="fill:url(#linearGradient3752-6);fill-opacity:1;stroke:none;stroke-width:0.42759958" />
        <path
           inkscape:connector-curvature="0"
           d="m -101.15993,22.271729 c -0.67189,0 -1.03866,0.118883 -1.59841,0.558321 1.68381,2.10077 1.61184,4.506445 1.61184,4.506445 l 3.680363,-1.475562 c -0.659986,-2.121784 -2.059856,-3.589204 -3.693793,-3.589204 z"
           id="path3610"
           style="fill:url(#linearGradient3754-6);fill-opacity:1;stroke:none;stroke-width:0.42759958" />
      </g>
      <rect
         ry="4.25"
         rx="0"
         y="80.665031"
         x="5.5239539"
         height="4.25"
         width="84.250008"
         id="rect4131"
         style="opacity:0.55;fill:url(#radialGradient7462);fill-opacity:1;stroke:none" />
      <rect
         transform="rotate(90)"
         style="opacity:0.669;fill:url(#radialGradient7464);fill-opacity:1;stroke:none"
         id="rect4141"
         width="76.75"
         height="4.25"
         x="5.9750223"
         y="-90.233963"
         rx="0"
         ry="4.25" />
      <rect
         clip-path="url(#clipPath4156-4-1)"
         ry="3.9569881"
         rx="3.9569874"
         y="-30"
         x="2"
         height="69.024437"
         width="75.965775"
         id="rect4146"
         style="opacity:0.5078125;fill:url(#linearGradient4767);fill-opacity:1;stroke:none"
         transform="matrix(1.0692451,0,0,1.0476829,4.4441802,38.894013)" />
    </g>
  </g>
</svg>
