<?xml version="1.0" encoding="UTF-8" standalone="no"?>
<!-- Created with Inkscape (http://www.inkscape.org/) -->

<svg
   xmlns:dc="http://purl.org/dc/elements/1.1/"
   xmlns:cc="http://creativecommons.org/ns#"
   xmlns:rdf="http://www.w3.org/1999/02/22-rdf-syntax-ns#"
   xmlns:svg="http://www.w3.org/2000/svg"
   xmlns="http://www.w3.org/2000/svg"
   xmlns:xlink="http://www.w3.org/1999/xlink"
   xmlns:sodipodi="http://sodipodi.sourceforge.net/DTD/sodipodi-0.dtd"
   xmlns:inkscape="http://www.inkscape.org/namespaces/inkscape"
   width="96"
   height="96"
   id="svg7783"
   version="1.1"
   inkscape:version="0.92.2 5c3e80d, 2017-08-06"
   sodipodi:docname="document-open-recent.svg">
  <defs
     id="defs7785">
    <linearGradient
       id="linearGradient1617">
      <stop
         id="stop1607"
         offset="0"
         style="stop-color:#adb4c1;stop-opacity:1;" />
      <stop
         style="stop-color:#ffffff;stop-opacity:1;"
         offset="0.25"
         id="stop1609" />
      <stop
         style="stop-color:#9095aa;stop-opacity:1;"
         offset="0.5"
         id="stop1611" />
      <stop
         id="stop1613"
         offset="0.75"
         style="stop-color:#f9fafb;stop-opacity:1" />
      <stop
         id="stop1615"
         offset="1"
         style="stop-color:#adb3c1;stop-opacity:1;" />
    </linearGradient>
    <linearGradient
       inkscape:collect="always"
       id="linearGradient6651">
      <stop
         style="stop-color:#000000;stop-opacity:1;"
         offset="0"
         id="stop6653" />
      <stop
         style="stop-color:#000000;stop-opacity:0;"
         offset="1"
         id="stop6655" />
    </linearGradient>
    <linearGradient
       id="linearGradient3832">
      <stop
         style="stop-color:#d8d8d8;stop-opacity:0;"
         offset="0"
         id="stop3834" />
      <stop
         id="stop3842"
         offset="0.05"
         style="stop-color:#ffffff;stop-opacity:1;" />
      <stop
         style="stop-color:#d8d8d8;stop-opacity:0;"
         offset="0.1"
         id="stop3846" />
      <stop
         id="stop3840"
         offset="0.5"
         style="stop-color:#d8d8d8;stop-opacity:0;" />
      <stop
         style="stop-color:#d8d8d8;stop-opacity:0;"
         offset="0.89999998"
         id="stop3844" />
      <stop
         id="stop3848"
         offset="0.94999999"
         style="stop-color:#ffffff;stop-opacity:1;" />
      <stop
         style="stop-color:#d8d8d8;stop-opacity:0;"
         offset="1"
         id="stop3836" />
    </linearGradient>
    <linearGradient
       id="linearGradient4188">
      <stop
         style="stop-color:#ffffff;stop-opacity:0;"
         offset="0"
         id="stop4190" />
      <stop
         id="stop4198"
         offset="0.15000001"
         style="stop-color:#ffffff;stop-opacity:1;" />
      <stop
         id="stop4196"
         offset="0.85000002"
         style="stop-color:#ffffff;stop-opacity:1;" />
      <stop
         style="stop-color:#ffffff;stop-opacity:0;"
         offset="1"
         id="stop4192" />
    </linearGradient>
    <linearGradient
       id="linearGradient3298">
      <stop
         style="stop-color:#000000;stop-opacity:1;"
         offset="0"
         id="stop3300" />
      <stop
         id="stop3302"
         offset="0.05"
         style="stop-color:#ffffff;stop-opacity:1;" />
      <stop
         style="stop-color:#000000;stop-opacity:1;"
         offset="0.1"
         id="stop3304" />
      <stop
         id="stop3306"
         offset="0.5"
         style="stop-color:#000000;stop-opacity:0.49803922;" />
      <stop
         style="stop-color:#000000;stop-opacity:1;"
         offset="0.89999998"
         id="stop3308" />
      <stop
         id="stop3310"
         offset="0.94999999"
         style="stop-color:#ffffff;stop-opacity:1;" />
      <stop
         style="stop-color:#000000;stop-opacity:1;"
         offset="1"
         id="stop3312" />
    </linearGradient>
    <linearGradient
       y2="34.832417"
       x2="22.635189"
       y1="59.74646"
       x1="44.725632"
       gradientTransform="translate(-0.19243203,-0.08446595)"
       gradientUnits="userSpaceOnUse"
       id="linearGradient3477"
       xlink:href="#linearGradient4125"
       inkscape:collect="always" />
    <linearGradient
       inkscape:collect="always"
       id="linearGradient4125">
      <stop
         style="stop-color:#ffffff;stop-opacity:1;"
         offset="0"
         id="stop4127" />
      <stop
         style="stop-color:#ffffff;stop-opacity:0;"
         offset="1"
         id="stop4129" />
    </linearGradient>
    <linearGradient
       inkscape:collect="always"
       xlink:href="#linearGradient3832"
       id="linearGradient8856"
       gradientUnits="userSpaceOnUse"
       gradientTransform="matrix(1.1232873,0,0,1.0563239,-34.102798,11.318071)"
       x1="6.0759845"
       y1="47.472744"
       x2="89.924011"
       y2="47.472744" />
    <linearGradient
       inkscape:collect="always"
       xlink:href="#linearGradient3832-2"
       id="linearGradient8856-7"
       gradientUnits="userSpaceOnUse"
       gradientTransform="matrix(1.1232873,0,0,1.0563239,-34.102798,11.318071)"
       x1="6.0759845"
       y1="47.472744"
       x2="89.924011"
       y2="47.472744" />
    <linearGradient
       id="linearGradient3832-2">
      <stop
         style="stop-color:#d8d8d8;stop-opacity:0;"
         offset="0"
         id="stop3834-7" />
      <stop
         id="stop3842-3"
         offset="0.05"
         style="stop-color:#ffffff;stop-opacity:1;" />
      <stop
         style="stop-color:#d8d8d8;stop-opacity:0;"
         offset="0.1"
         id="stop3846-7" />
      <stop
         id="stop3840-7"
         offset="0.5"
         style="stop-color:#d8d8d8;stop-opacity:0;" />
      <stop
         style="stop-color:#d8d8d8;stop-opacity:0;"
         offset="0.89999998"
         id="stop3844-4" />
      <stop
         id="stop3848-1"
         offset="0.94999999"
         style="stop-color:#ffffff;stop-opacity:1;" />
      <stop
         style="stop-color:#d8d8d8;stop-opacity:0;"
         offset="1"
         id="stop3836-3" />
    </linearGradient>
    <linearGradient
       inkscape:collect="always"
       xlink:href="#linearGradient6651"
       id="linearGradient6657"
       x1="39.750837"
       y1="50.967323"
       x2="55.744087"
       y2="50.967323"
       gradientUnits="userSpaceOnUse" />
    <inkscape:path-effect
       is_visible="true"
       id="path-effect4110"
       effect="spiro" />
    <inkscape:path-effect
       effect="spiro"
       id="path-effect4115"
       is_visible="true" />
    <inkscape:path-effect
       effect="spiro"
       id="path-effect4123"
       is_visible="true" />
    <linearGradient
       id="linearGradient4334">
      <stop
         id="stop4336"
         offset="0"
         style="stop-color:#f5f5f5;stop-opacity:1;" />
      <stop
         id="stop4338"
         offset="1"
         style="stop-color:#d2d2d2;stop-opacity:1;" />
    </linearGradient>
    <linearGradient
       id="linearGradient5063">
      <stop
         style="stop-color:#6b9ab0;stop-opacity:1;"
         offset="0"
         id="stop5065" />
      <stop
         style="stop-color:#466b7a;stop-opacity:1;"
         offset="1"
         id="stop5067" />
    </linearGradient>
    <linearGradient
       id="linearGradient5057">
      <stop
         id="stop5059"
         offset="0"
         style="stop-color:#ff830a;stop-opacity:1;" />
      <stop
         id="stop5061"
         offset="1"
         style="stop-color:#b55f0b;stop-opacity:1;" />
    </linearGradient>
    <linearGradient
       id="linearGradient5051">
      <stop
         style="stop-color:#c60aff;stop-opacity:1;"
         offset="0"
         id="stop5053" />
      <stop
         style="stop-color:#9b0bb5;stop-opacity:1;"
         offset="1"
         id="stop5055" />
    </linearGradient>
    <linearGradient
       id="linearGradient5045">
      <stop
         id="stop5047"
         offset="0"
         style="stop-color:#2fff0a;stop-opacity:1;" />
      <stop
         id="stop5049"
         offset="1"
         style="stop-color:#16b50b;stop-opacity:1;" />
    </linearGradient>
    <linearGradient
       id="linearGradient5039">
      <stop
         style="stop-color:#ff0a0a;stop-opacity:1;"
         offset="0"
         id="stop5041" />
      <stop
         style="stop-color:#c00000;stop-opacity:1;"
         offset="1"
         id="stop5043" />
    </linearGradient>
    <linearGradient
       id="linearGradient5029">
      <stop
         id="stop5031"
         offset="0"
         style="stop-color:#0a9aff;stop-opacity:1;" />
      <stop
         id="stop5033"
         offset="1"
         style="stop-color:#0070c0;stop-opacity:1;" />
    </linearGradient>
    <linearGradient
       id="linearGradient6139-0">
      <stop
         style="stop-color:#adb4c1;stop-opacity:1;"
         offset="0"
         id="stop6141-2" />
      <stop
         id="stop6151-0"
         offset="0.25"
         style="stop-color:#ffffff;stop-opacity:1;" />
      <stop
         id="stop6147-1"
         offset="0.5"
         style="stop-color:#9095aa;stop-opacity:1;" />
      <stop
         style="stop-color:#fbf9f9;stop-opacity:1;"
         offset="0.75"
         id="stop6149-4" />
      <stop
         style="stop-color:#adb3c1;stop-opacity:1;"
         offset="1"
         id="stop6143-4" />
    </linearGradient>
    <linearGradient
       id="linearGradient4091-0-3-0-7">
      <stop
         id="stop4093-3-6-4-2"
         offset="0"
         style="stop-color:#ffffff;stop-opacity:1;" />
      <stop
         style="stop-color:#ffffff;stop-opacity:1;"
         offset="0.80000001"
         id="stop4099-6-1-8-3" />
      <stop
         id="stop4095-1-0-7-9"
         offset="1"
         style="stop-color:#ffffff;stop-opacity:0;" />
    </linearGradient>
    <linearGradient
       id="linearGradient3832-0-6-1-1">
      <stop
         id="stop3834-6-3-7-1"
         offset="0"
         style="stop-color:#000000;stop-opacity:1;" />
      <stop
         style="stop-color:#000000;stop-opacity:0.58823532;"
         offset="0.1"
         id="stop3872-2-4" />
      <stop
         id="stop3844-6-2-7-6"
         offset="0.89999998"
         style="stop-color:#000000;stop-opacity:0.58823532;" />
      <stop
         id="stop3836-5-0-2-9"
         offset="1"
         style="stop-color:#000000;stop-opacity:1;" />
    </linearGradient>
    <radialGradient
       inkscape:collect="always"
       xlink:href="#linearGradient4125"
       id="radialGradient3831"
       gradientUnits="userSpaceOnUse"
       gradientTransform="matrix(0.97513378,0,0,0.04919072,-4.148257,101.31932)"
       cx="13.948145"
       cy="44.892841"
       fx="13.948145"
       fy="44.892841"
       r="43.199203" />
    <radialGradient
       inkscape:collect="always"
       xlink:href="#linearGradient4125"
       id="radialGradient3833"
       gradientUnits="userSpaceOnUse"
       gradientTransform="matrix(0.88832663,0,0,0.04919072,51.887113,-52.752262)"
       cx="13.948145"
       cy="44.892841"
       fx="13.948145"
       fy="44.892841"
       r="43.199203" />
    <linearGradient
       gradientTransform="scale(1.0058652,0.994169)"
       gradientUnits="userSpaceOnUse"
       id="ButtonShadow-1"
       y2="7.0165396"
       x2="45.447727"
       y1="92.539597"
       x1="45.447727">
      <stop
         offset="0"
         style="stop-color:#000000;stop-opacity:1"
         id="stop3750-9" />
      <stop
         offset="1"
         style="stop-color:#000000;stop-opacity:0.58823532"
         id="stop3752-9" />
    </linearGradient>
    <filter
       id="filter3174-3"
       color-interpolation-filters="sRGB">
      <feGaussianBlur
         stdDeviation="1.71"
         id="feGaussianBlur3176-6" />
    </filter>
    <linearGradient
       inkscape:collect="always"
       xlink:href="#linearGradient4125"
       id="linearGradient3837"
       gradientUnits="userSpaceOnUse"
       x1="2.7713892"
       y1="-28.64156"
       x2="50.527882"
       y2="14.514202" />
    <clipPath
       id="clipPath4156-4"
       clipPathUnits="userSpaceOnUse">
      <path
         inkscape:connector-curvature="0"
         id="path4158-0"
         d="m 27.046336,-55.695463 -14.21366,13.321486 0.06127,0 15.653407,21.770763 10.231384,-10.546177 C 38.561832,-32.30156 27.468089,-54.819245 27.046336,-55.695463 z M 9.6468554,-39.382809 -5.2407289,-25.32124 15.987863,-7.8059573 26.372412,-18.382966 9.6468554,-39.382809 z m 31.4906096,12.951445 -9.741259,9.713584 8.944804,12.4580526 7.780753,-7.5550056 -6.984298,-14.616631 z m -49.8397109,4.378822 -13.7541661,12.9822847 26.2830181,13.84571 0.06127,-0.0617 -0.122531,-0.0617 L 13.598503,-5.4007374 -8.7022409,-22.052595 z m 38.0154159,7.400825 -9.802525,9.7752596 11.579232,9.5594001 7.62759,-7.40083 -8.669108,-11.0087257 -0.735189,-0.925104 z m 20.187073,5.6739697 -7.382526,7.2158 6.187844,8.54179 5.820249,-6.13651996 -4.625567,-9.62107004 z m -32.195166,6.32154 -9.5574606,9.49772 13.6622686,7.1849703 7.933918,-7.6783603 -12.038726,-9.00433 z m 23.311629,2.37443004 -7.10683,6.93826996 8.362778,6.9074403 5.360756,-5.6739699 -0.06127,-0.0925 -0.0919,0.12335 -6.463539,-8.20258036 z m -8.730374,8.54178036 -7.505057,7.3391599 10.353916,5.45811 c 1.397496,-1.32103 5.67514,-6.12292 5.850882,-6.32154 L 31.886332,8.2600031 z"
         style="opacity:0.6;fill:#ffffff;fill-opacity:1;stroke:none" />
    </clipPath>
    <linearGradient
       inkscape:collect="always"
       xlink:href="#linearGradient4125"
       id="linearGradient3837-7"
       gradientUnits="userSpaceOnUse"
       x1="2.7713892"
       y1="-28.64156"
       x2="50.527882"
       y2="14.514202" />
    <clipPath
       id="clipPath4156-4-6"
       clipPathUnits="userSpaceOnUse">
      <path
         inkscape:connector-curvature="0"
         id="path4158-0-3"
         d="m 27.046336,-55.695463 -14.21366,13.321486 0.06127,0 15.653407,21.770763 10.231384,-10.546177 C 38.561832,-32.30156 27.468089,-54.819245 27.046336,-55.695463 z M 9.6468554,-39.382809 -5.2407289,-25.32124 15.987863,-7.8059573 26.372412,-18.382966 9.6468554,-39.382809 z m 31.4906096,12.951445 -9.741259,9.713584 8.944804,12.4580526 7.780753,-7.5550056 -6.984298,-14.616631 z m -49.8397109,4.378822 -13.7541661,12.9822847 26.2830181,13.84571 0.06127,-0.0617 -0.122531,-0.0617 L 13.598503,-5.4007374 -8.7022409,-22.052595 z m 38.0154159,7.400825 -9.802525,9.7752596 11.579232,9.5594001 7.62759,-7.40083 -8.669108,-11.0087257 -0.735189,-0.925104 z m 20.187073,5.6739697 -7.382526,7.2158 6.187844,8.54179 5.820249,-6.13651996 -4.625567,-9.62107004 z m -32.195166,6.32154 -9.5574606,9.49772 13.6622686,7.1849703 7.933918,-7.6783603 -12.038726,-9.00433 z m 23.311629,2.37443004 -7.10683,6.93826996 8.362778,6.9074403 5.360756,-5.6739699 -0.06127,-0.0925 -0.0919,0.12335 -6.463539,-8.20258036 z m -8.730374,8.54178036 -7.505057,7.3391599 10.353916,5.45811 c 1.397496,-1.32103 5.67514,-6.12292 5.850882,-6.32154 L 31.886332,8.2600031 z"
         style="opacity:0.6;fill:#ffffff;fill-opacity:1;stroke:none" />
    </clipPath>
    <radialGradient
       inkscape:collect="always"
       xlink:href="#linearGradient4125"
       id="radialGradient3831-7"
       gradientUnits="userSpaceOnUse"
       gradientTransform="matrix(0.97513378,0,0,0.04919072,-4.148257,101.31932)"
       cx="13.948145"
       cy="44.892841"
       fx="13.948145"
       fy="44.892841"
       r="43.199203" />
    <linearGradient
       id="linearGradient3795">
      <stop
         id="stop3797"
         offset="0"
         style="stop-color:#d9d9d9;stop-opacity:1" />
      <stop
         id="stop3799"
         offset="1"
         style="stop-color:#f3f3f3;stop-opacity:1" />
    </linearGradient>
    <linearGradient
       id="linearGradient839">
      <stop
         style="stop-color:#871e82;stop-opacity:1"
         offset="0"
         id="stop841" />
      <stop
         style="stop-color:#d535d9;stop-opacity:1"
         offset="1"
         id="stop843" />
    </linearGradient>
    <linearGradient
       id="linearGradient4294">
      <stop
         id="stop4296"
         offset="0"
         style="stop-color:#f2c6f0;stop-opacity:1" />
      <stop
         id="stop4298"
         offset="1"
         style="stop-color:#fdf7fd;stop-opacity:1" />
    </linearGradient>
    <linearGradient
       inkscape:collect="always"
       xlink:href="#linearGradient4294"
       id="linearGradient4173"
       x1="34.825008"
       y1="38.100506"
       x2="34.825008"
       y2="10.169787"
       gradientUnits="userSpaceOnUse"
       gradientTransform="matrix(1.1000244,0,0,1.0999714,-2.4005861,1001.9629)" />
    <linearGradient
       inkscape:collect="always"
       xlink:href="#linearGradient839"
       id="linearGradient859"
       x1="25.102289"
       y1="-1052.3608"
       x2="25.102289"
       y2="-1004.3648"
       gradientUnits="userSpaceOnUse" />
    <linearGradient
       inkscape:collect="always"
       xlink:href="#linearGradient1617"
       id="linearGradient3825"
       gradientUnits="userSpaceOnUse"
       gradientTransform="matrix(1.099583,0,0,1.0995828,-4.4522315,-4.0081562)"
       x1="6"
       y1="47.000011"
       x2="90"
       y2="47.000011" />
    <linearGradient
       inkscape:collect="always"
       xlink:href="#linearGradient3832-0-6-1-1"
       id="linearGradient3829"
       gradientUnits="userSpaceOnUse"
       gradientTransform="matrix(0.99317176,0,0,0.99317176,0.65550791,0)"
       x1="1.5"
       y1="88.171875"
       x2="94.5"
       y2="88.171875" />
    <radialGradient
       inkscape:collect="always"
       xlink:href="#linearGradient4125"
       id="radialGradient3831-75"
       gradientUnits="userSpaceOnUse"
       gradientTransform="matrix(0.97513378,0,0,0.04919072,-4.148257,101.31932)"
       cx="13.948145"
       cy="44.892841"
       fx="13.948145"
       fy="44.892841"
       r="43.199203" />
    <radialGradient
       inkscape:collect="always"
       xlink:href="#linearGradient4125"
       id="radialGradient3833-9"
       gradientUnits="userSpaceOnUse"
       gradientTransform="matrix(0.88832663,0,0,0.04919072,51.887113,-52.752262)"
       cx="13.948145"
       cy="44.892841"
       fx="13.948145"
       fy="44.892841"
       r="43.199203" />
    <linearGradient
       inkscape:collect="always"
       xlink:href="#ButtonShadow-1"
       id="linearGradient3835"
       gradientUnits="userSpaceOnUse"
       gradientTransform="matrix(1.0058652,0,0,0.994169,243.24401,-90.231729)"
       x1="45.447727"
       y1="92.539597"
       x2="45.447727"
       y2="7.0165396" />
    <filter
       id="filter3174-3-8"
       color-interpolation-filters="sRGB">
      <feGaussianBlur
         stdDeviation="1.71"
         id="feGaussianBlur3176-6-9" />
    </filter>
    <clipPath
       id="clipPath4156-4-7"
       clipPathUnits="userSpaceOnUse">
      <path
         inkscape:connector-curvature="0"
         id="path4158-0-36"
         d="m 27.046336,-55.695463 -14.21366,13.321486 0.06127,0 15.653407,21.770763 10.231384,-10.546177 C 38.561832,-32.30156 27.468089,-54.819245 27.046336,-55.695463 z M 9.6468554,-39.382809 -5.2407289,-25.32124 15.987863,-7.8059573 26.372412,-18.382966 9.6468554,-39.382809 z m 31.4906096,12.951445 -9.741259,9.713584 8.944804,12.4580526 7.780753,-7.5550056 -6.984298,-14.616631 z m -49.8397109,4.378822 -13.7541661,12.9822847 26.2830181,13.84571 0.06127,-0.0617 -0.122531,-0.0617 L 13.598503,-5.4007374 -8.7022409,-22.052595 z m 38.0154159,7.400825 -9.802525,9.7752596 11.579232,9.5594001 7.62759,-7.40083 -8.669108,-11.0087257 -0.735189,-0.925104 z m 20.187073,5.6739697 -7.382526,7.2158 6.187844,8.54179 5.820249,-6.13651996 -4.625567,-9.62107004 z m -32.195166,6.32154 -9.5574606,9.49772 13.6622686,7.1849703 7.933918,-7.6783603 -12.038726,-9.00433 z m 23.311629,2.37443004 -7.10683,6.93826996 8.362778,6.9074403 5.360756,-5.6739699 -0.06127,-0.0925 -0.0919,0.12335 -6.463539,-8.20258036 z m -8.730374,8.54178036 -7.505057,7.3391599 10.353916,5.45811 c 1.397496,-1.32103 5.67514,-6.12292 5.850882,-6.32154 L 31.886332,8.2600031 z"
         style="opacity:0.6;fill:#ffffff;fill-opacity:1;stroke:none" />
    </clipPath>
    <clipPath
       id="clipPath4156-4-6-1"
       clipPathUnits="userSpaceOnUse">
      <path
         inkscape:connector-curvature="0"
         id="path4158-0-3-2"
         d="m 27.046336,-55.695463 -14.21366,13.321486 0.06127,0 15.653407,21.770763 10.231384,-10.546177 C 38.561832,-32.30156 27.468089,-54.819245 27.046336,-55.695463 z M 9.6468554,-39.382809 -5.2407289,-25.32124 15.987863,-7.8059573 26.372412,-18.382966 9.6468554,-39.382809 z m 31.4906096,12.951445 -9.741259,9.713584 8.944804,12.4580526 7.780753,-7.5550056 -6.984298,-14.616631 z m -49.8397109,4.378822 -13.7541661,12.9822847 26.2830181,13.84571 0.06127,-0.0617 -0.122531,-0.0617 L 13.598503,-5.4007374 -8.7022409,-22.052595 z m 38.0154159,7.400825 -9.802525,9.7752596 11.579232,9.5594001 7.62759,-7.40083 -8.669108,-11.0087257 -0.735189,-0.925104 z m 20.187073,5.6739697 -7.382526,7.2158 6.187844,8.54179 5.820249,-6.13651996 -4.625567,-9.62107004 z m -32.195166,6.32154 -9.5574606,9.49772 13.6622686,7.1849703 7.933918,-7.6783603 -12.038726,-9.00433 z m 23.311629,2.37443004 -7.10683,6.93826996 8.362778,6.9074403 5.360756,-5.6739699 -0.06127,-0.0925 -0.0919,0.12335 -6.463539,-8.20258036 z m -8.730374,8.54178036 -7.505057,7.3391599 10.353916,5.45811 c 1.397496,-1.32103 5.67514,-6.12292 5.850882,-6.32154 L 31.886332,8.2600031 z"
         style="opacity:0.6;fill:#ffffff;fill-opacity:1;stroke:none" />
    </clipPath>
    <linearGradient
       y2="14.514202"
       x2="50.527882"
       y1="-28.64156"
       x1="2.7713892"
       gradientUnits="userSpaceOnUse"
       id="linearGradient4967"
       xlink:href="#linearGradient4125"
       inkscape:collect="always" />
    <radialGradient
       inkscape:collect="always"
       xlink:href="#linearGradient4125"
       id="radialGradient3833-1"
       gradientUnits="userSpaceOnUse"
       gradientTransform="matrix(0.87268624,0,0,0.04885483,29.878067,-89.678681)"
       cx="13.948145"
       cy="44.892841"
       fx="13.948145"
       fy="44.892841"
       r="43.199203" />
    <radialGradient
       inkscape:collect="always"
       xlink:href="#linearGradient4125"
       id="radialGradient3831-7-9"
       gradientUnits="userSpaceOnUse"
       gradientTransform="matrix(0.97513378,0,0,0.04919072,-4.148257,101.31932)"
       cx="13.948145"
       cy="44.892841"
       fx="13.948145"
       fy="44.892841"
       r="43.199203" />
    <radialGradient
       inkscape:collect="always"
       xlink:href="#linearGradient4125"
       id="radialGradient4992"
       gradientUnits="userSpaceOnUse"
       gradientTransform="matrix(0.96847539,0,0,0.04832464,33.166685,78.439942)"
       cx="13.948145"
       cy="44.892841"
       fx="13.948145"
       fy="44.892841"
       r="43.199203" />
    <linearGradient
       inkscape:collect="always"
       xlink:href="#linearGradient4294"
       id="linearGradient4595"
       x1="34.825008"
       y1="38.100506"
       x2="34.825008"
       y2="10.169787"
       gradientUnits="userSpaceOnUse"
       gradientTransform="matrix(1.1000244,0,0,1.0999714,-2.4005861,1001.9629)" />
    <linearGradient
       inkscape:collect="always"
       xlink:href="#linearGradient839"
       id="linearGradient4597"
       x1="25.102289"
       y1="-1052.3608"
       x2="25.102289"
       y2="-1004.3648"
       gradientUnits="userSpaceOnUse" />
    <linearGradient
       inkscape:collect="always"
       xlink:href="#linearGradient1617"
       id="linearGradient1605"
       x1="67.850204"
       y1="111.95739"
       x2="106.82378"
       y2="111.95739"
       gradientUnits="userSpaceOnUse" />
    <linearGradient
       inkscape:collect="always"
       xlink:href="#linearGradient1617"
       id="linearGradient1658"
       gradientUnits="userSpaceOnUse"
       x1="67.850204"
       y1="111.95739"
       x2="106.82378"
       y2="111.95739"
       gradientTransform="matrix(1.6095128,0,0,1.5667384,-136.90943,-18.089277)" />
  </defs>
  <sodipodi:namedview
     id="base"
     pagecolor="#ffffff"
     bordercolor="#666666"
     borderopacity="1.0"
     inkscape:pageopacity="0.0"
     inkscape:pageshadow="2"
     inkscape:zoom="3.0510553"
     inkscape:cx="-23.603983"
     inkscape:cy="24.863943"
     inkscape:document-units="px"
     inkscape:current-layer="g4600"
     showgrid="false"
     inkscape:showpageshadow="false"
     inkscape:window-width="1920"
     inkscape:window-height="1000"
     inkscape:window-x="0"
     inkscape:window-y="21"
     inkscape:window-maximized="1"
     showguides="true"
     inkscape:guide-bbox="true"
     inkscape:snap-to-guides="false">
    <sodipodi:guide
       orientation="0,1"
       position="52.022856,19.445437"
       id="guide5453"
       inkscape:locked="false" />
  </sodipodi:namedview>
  <metadata
     id="metadata7788">
    <rdf:RDF>
      <cc:Work
         rdf:about="">
        <dc:format>image/svg+xml</dc:format>
        <dc:type
           rdf:resource="http://purl.org/dc/dcmitype/StillImage" />
        <dc:title />
      </cc:Work>
    </rdf:RDF>
  </metadata>
  <g
     inkscape:groupmode="layer"
     id="layer7"
     inkscape:label="simboli" />
  <g
     inkscape:groupmode="layer"
     id="layer2"
     inkscape:label="simboli 1">
    <g
       id="g4600">
      <rect
         style="opacity:0.9;fill:url(#linearGradient3835);fill-opacity:1;fill-rule:nonzero;stroke:none;filter:url(#filter3174-3-8)"
         id="rect3745-9"
         y="-83.231728"
         x="248.244"
         ry="6"
         rx="6"
         height="85"
         width="86" />
      <g
         style="display:inline"
         inkscape:label="colori"
         id="layer7-5">
        <g
           transform="translate(44.195095,-111.08921)"
           style="display:inline"
           id="g1850" />
        <g
           inkscape:label="Capa 1"
           id="layer1-2"
           transform="translate(124.10673,-941.61886)" />
      </g>
      <g
         id="g1915"
         transform="translate(-0.32775565,0.3277555)">
        <path
           style="display:inline;opacity:0.15;fill:#000000;fill-opacity:1;fill-rule:nonzero;stroke:none;stroke-width:0.99317175"
           d="M 89.189676,0 H 7.4658233 C 3.6929148,0 0.6555103,3.0374023 0.6555103,6.8103177 V 88.534169 c 0,3.772918 3.0374045,6.81032 6.810313,6.81032 H 89.189676 c 3.772918,0 6.810325,-3.037402 6.810325,-6.81032 V 6.8103177 C 96.000001,3.0374023 92.962594,0 89.189676,0 Z"
           id="path3288"
           inkscape:connector-curvature="0" />
        <path
           inkscape:connector-curvature="0"
           id="path4085"
           d="M 88.55121,0.74487882 H 8.1042898 c -3.7139579,0 -6.7039025,2.98994258 -6.7039025,6.70390628 V 87.895701 c 0,3.713967 2.9899446,6.703909 6.7039025,6.703909 H 88.55121 c 3.713969,0 6.703912,-2.989942 6.703912,-6.703909 V 7.4487851 c 0,-3.7139637 -2.989943,-6.70390628 -6.703912,-6.70390628 z"
           style="display:inline;opacity:0.15;fill:#000000;fill-opacity:1;fill-rule:nonzero;stroke:none;stroke-width:0.99317175" />
        <path
           style="display:inline;fill:url(#linearGradient3825);fill-opacity:1;fill-rule:nonzero;stroke:none;stroke-width:0.99317175"
           d="M 87.912738,1.4897576 H 8.7427641 c -3.6550141,0 -6.5974975,2.9424829 -6.5974975,6.5974959 V 87.257235 c 0,3.655014 2.9424834,6.597497 6.5974975,6.597497 H 87.912738 c 3.655015,0 6.597495,-2.942483 6.597495,-6.597497 V 8.0872535 c 0,-3.655013 -2.94248,-6.5974959 -6.597495,-6.5974959 z"
           id="rect4251-1"
           inkscape:connector-curvature="0" />
        <path
           inkscape:connector-curvature="0"
           style="display:inline;opacity:0.89090905;fill:url(#linearGradient3829);fill-opacity:1;fill-rule:nonzero;stroke:none;stroke-width:0.99317175"
           d="m 2.1452656,81.284901 v 5.959031 c 0,3.655013 2.955785,6.610799 6.6107991,6.610799 H 87.89944 c 3.655014,0 6.610803,-2.955786 6.610803,-6.610799 v -5.959031 c 0,3.655013 -2.955789,6.6108 -6.610803,6.6108 H 8.7560647 c -3.6550141,0 -6.6107991,-2.955787 -6.6107991,-6.6108 z"
           id="path4118" />
        <rect
           ry="4.2209802"
           y="7.1904211"
           x="6.1942363"
           height="76.990959"
           width="84.267036"
           id="rect4301"
           style="display:inline;opacity:1;fill:#dee4ea;fill-opacity:1;stroke:none;stroke-width:0.99317175" />
        <path
           style="color:#000000;font-style:normal;font-variant:normal;font-weight:normal;font-stretch:normal;font-size:medium;line-height:normal;font-family:sans-serif;font-variant-ligatures:normal;font-variant-position:normal;font-variant-caps:normal;font-variant-numeric:normal;font-variant-alternates:normal;font-feature-settings:normal;text-indent:0;text-align:start;text-decoration:none;text-decoration-line:none;text-decoration-style:solid;text-decoration-color:#000000;letter-spacing:normal;word-spacing:normal;text-transform:none;writing-mode:lr-tb;direction:ltr;text-orientation:mixed;dominant-baseline:auto;baseline-shift:baseline;text-anchor:start;white-space:normal;shape-padding:0;clip-rule:nonzero;display:inline;overflow:visible;visibility:visible;opacity:0.83972234;isolation:auto;mix-blend-mode:normal;color-interpolation:sRGB;color-interpolation-filters:linearRGB;solid-color:#000000;solid-opacity:1;vector-effect:none;fill:#193a53;fill-opacity:1;fill-rule:nonzero;stroke:none;stroke-width:3.97268677;stroke-linecap:butt;stroke-linejoin:miter;stroke-miterlimit:4;stroke-dasharray:none;stroke-dashoffset:0;stroke-opacity:1;color-rendering:auto;image-rendering:auto;shape-rendering:auto;text-rendering:auto;enable-background:new"
           d="m 37.037406,121.65951 -11.32318,11.15382 c -5.891709,-5.13379 -13.575498,-8.34166 -22.0522064,-8.34166 -18.4226896,0 -33.3785306,14.74105 -33.3785306,32.84643 0,18.1054 14.955843,32.84643 33.3785306,32.84643 10.0079794,0 19.0181144,-4.32995 25.1329114,-11.20586 l 1.304591,-1.46576 -8.943482,-7.68068 -1.332879,1.49023 c -0.293325,0.32848 -0.608627,0.64644 -0.974508,1.00675 -4.075455,4.01526 -9.4332995,6.2027 -15.1866334,6.20271 -5.7529155,0 -11.1117159,-2.1915 -15.1897766,-6.20576 -4.077271,-4.01348 -6.309166,-9.30439 -6.309166,-14.98806 0,-5.68325 2.232881,-10.972 6.309166,-14.98807 4.0754549,-4.01524 9.4364379,-6.20574 15.1897766,-6.20574 5.0799765,0 9.7948484,1.79686 13.6494224,4.96032 L 6.6924296,151.54381 H 37.037406 Z m -33.3753864,6.73207 c 8.1120474,0 15.4483684,3.2159 20.7602024,8.44877 l 1.430326,1.41067 7.157938,-7.04726 v 16.42015 H 16.336933 l 6.774413,-6.67088 -1.398893,-1.38008 c -4.809279,-4.73404 -11.23874,-7.3655 -18.0504334,-7.3655 -6.8112732,0 -13.2456253,2.63164 -18.0535786,7.36856 -4.807162,4.73616 -7.472289,11.05185 -7.472289,17.74209 0,6.68984 2.662183,13.0103 7.472289,17.74515 4.8092772,4.73405 11.2418838,7.36857 18.0535786,7.36857 6.6918154,0 12.9977084,-2.5671 17.7769414,-7.14825 l 2.848078,2.44498 c -5.310206,5.21313 -12.526215,8.51606 -20.6250194,8.51606 -16.2211456,0 -29.3516046,-12.91496 -29.3516046,-28.92651 0,-16.01153 13.130462,-28.92652 29.3516046,-28.92652 z"
           id="path1591"
           inkscape:connector-curvature="0"
           transform="translate(44.195095,-111.08921)" />
        <path
           inkscape:connector-curvature="0"
           id="path1595"
           d="m 3.6605726,126.43143 c -17.3219166,0 -31.3642366,13.82877 -31.3642366,30.88723 0,17.05847 14.04232,30.88723 31.3642366,30.88723 9.4126784,0 17.8627064,-4.06386 23.6118554,-10.52861 l -5.928303,-5.08964 c -0.343022,0.38414 -0.693582,0.73292 -1.064053,1.09777 -4.441703,4.37608 -10.3371975,6.7862 -16.6194994,6.7862 -6.2823051,0 -12.1758275,-2.41204 -16.6194976,-6.7862 -4.443688,-4.37417 -6.891012,-10.17999 -6.891012,-16.36675 0,-6.18675 2.449289,-11.99064 6.891012,-16.36674 4.4417049,-4.3761 10.3371925,-6.78621 16.6194976,-6.78621 6.2823019,0 12.1758274,2.41205 16.6194994,6.78621 l -8.765773,8.63246 h 23.510508 v -23.15295 l -9.171117,9.03165 c -5.674648,-5.59029 -13.53314,-9.03165 -22.1931174,-9.03165 z"
           style="display:inline;fill:url(#linearGradient1658);fill-opacity:1;stroke:none;stroke-width:1.42619467;stroke-miterlimit:4;stroke-dasharray:none;stroke-opacity:1;enable-background:new"
           transform="translate(44.195095,-111.08921)" />
        <path
           style="display:inline;fill:#17679d;fill-opacity:0.29464291;stroke:none;stroke-width:1.42619467;stroke-miterlimit:4;stroke-dasharray:none;stroke-opacity:1;enable-background:new"
           d="m 3.6605726,126.43143 c -17.3219166,0 -31.3642366,13.82877 -31.3642366,30.88723 0,17.05847 14.04232,30.88723 31.3642366,30.88723 9.4126784,0 17.8627064,-4.06386 23.6118554,-10.52861 l -5.928303,-5.08964 c -0.343022,0.38414 -0.693582,0.73292 -1.064053,1.09777 -4.441703,4.37608 -10.3371975,6.7862 -16.6194994,6.7862 -6.2823051,0 -12.1758275,-2.41204 -16.6194976,-6.7862 -4.443688,-4.37417 -6.891012,-10.17999 -6.891012,-16.36675 0,-6.18675 2.449289,-11.99064 6.891012,-16.36674 4.4417049,-4.3761 10.3371925,-6.78621 16.6194976,-6.78621 6.2823019,0 12.1758274,2.41205 16.6194994,6.78621 l -8.765773,8.63246 h 23.510508 v -23.15295 l -9.171117,9.03165 c -5.674648,-5.59029 -13.53314,-9.03165 -22.1931174,-9.03165 z"
           id="path1888"
           inkscape:connector-curvature="0"
           transform="translate(44.195095,-111.08921)" />
        <path
           inkscape:connector-curvature="0"
           id="path4989"
           d="m 10.194036,5.6759745 c -3.0953397,0 -5.6292625,2.5221698 -5.6292625,5.6074515 v 68.80495 c 0,3.085283 2.5339228,5.607451 5.6292625,5.607451 h 76.267433 c 3.09534,0 5.629268,-2.522168 5.629268,-5.607451 v -68.80495 c 0,-3.0852808 -2.533929,-5.6074515 -5.629268,-5.6074515 z m 0,2.3036014 h 76.267433 c 1.875209,0 3.329133,1.4699886 3.329133,3.3038501 v 68.80495 c 0,1.833866 -1.453924,3.303849 -3.329133,3.303849 H 10.194036 c -1.8752063,0 -3.3291333,-1.469983 -3.3291333,-3.303849 v -68.80495 c 0,-1.8338615 1.453927,-3.3038501 3.3291333,-3.3038501 z"
           style="color:#000000;font-style:normal;font-variant:normal;font-weight:normal;font-stretch:normal;font-size:medium;line-height:normal;font-family:Sans;-inkscape-font-specification:Sans;text-indent:0;text-align:start;text-decoration:none;text-decoration-line:none;letter-spacing:normal;word-spacing:normal;text-transform:none;writing-mode:lr-tb;direction:ltr;baseline-shift:baseline;text-anchor:start;display:inline;overflow:visible;visibility:visible;fill:#241f1f;fill-opacity:0.63265303;stroke:none;stroke-width:2.35927963;marker:none;enable-background:accumulate" />
        <rect
           clip-path="url(#clipPath4156-4-6-1)"
           ry="3.9569881"
           rx="3.9569874"
           y="-30"
           x="2"
           height="92"
           width="92"
           id="rect4146"
           style="display:inline;fill:url(#linearGradient4967);fill-opacity:1;stroke:none"
           transform="matrix(0.90996036,0,0,0.92506743,4.6827331,36.004939)" />
        <rect
           ry="4.1751719"
           rx="0"
           y="78.521797"
           x="4.8377571"
           height="4.1751719"
           width="83.674728"
           id="rect4131"
           style="display:inline;opacity:0.55;fill:url(#radialGradient4992);fill-opacity:1;stroke:none;stroke-width:0.98776788" />
        <rect
           transform="rotate(90)"
           style="display:inline;opacity:0.55;fill:url(#radialGradient3833-1);fill-opacity:1;stroke:none;stroke-width:0.98776788"
           id="rect4141"
           width="75.398697"
           height="4.2209802"
           x="4.3510714"
           y="-89.595932"
           rx="0"
           ry="4.2209802" />
      </g>
    </g>
  </g>
</svg>
