<?xml version="1.0" encoding="UTF-8" standalone="no"?>
<!-- Created with Inkscape (http://www.inkscape.org/) -->

<svg
   xmlns:dc="http://purl.org/dc/elements/1.1/"
   xmlns:cc="http://creativecommons.org/ns#"
   xmlns:rdf="http://www.w3.org/1999/02/22-rdf-syntax-ns#"
   xmlns:svg="http://www.w3.org/2000/svg"
   xmlns="http://www.w3.org/2000/svg"
   xmlns:xlink="http://www.w3.org/1999/xlink"
   xmlns:sodipodi="http://sodipodi.sourceforge.net/DTD/sodipodi-0.dtd"
   xmlns:inkscape="http://www.inkscape.org/namespaces/inkscape"
   width="96"
   height="96"
   id="svg2"
   version="1.1"
   inkscape:version="0.48.5 r10040"
   sodipodi:docname="start-here-slackware.svg">
  <script
     xlink:href=""
     id="script2985" />
  <defs
     id="defs4">
    <linearGradient
       gradientTransform="matrix(1.1353753,0,0,1.1336634,-40.037124,-46.787637)"
       y2="47.000011"
       x2="90"
       y1="47.000011"
       x1="6"
       gradientUnits="userSpaceOnUse"
       id="linearGradient5021"
       xlink:href="#linearGradient6139-0"
       inkscape:collect="always" />
    <linearGradient
       id="linearGradient6139-0">
      <stop
         id="stop6141-2"
         offset="0"
         style="stop-color:#b7b7b7;stop-opacity:1;" />
      <stop
         style="stop-color:#ffffff;stop-opacity:1;"
         offset="0.25"
         id="stop6151-0" />
      <stop
         style="stop-color:#9d9d9d;stop-opacity:1;"
         offset="0.5"
         id="stop6147-1" />
      <stop
         id="stop6149-4"
         offset="0.75"
         style="stop-color:#fafafa;stop-opacity:1;" />
      <stop
         id="stop6143-4"
         offset="1"
         style="stop-color:#b7b7b7;stop-opacity:1;" />
    </linearGradient>
    <radialGradient
       inkscape:collect="always"
       xlink:href="#linearGradient3888-8-4-8-6"
       id="radialGradient3114"
       gradientUnits="userSpaceOnUse"
       gradientTransform="matrix(0,1.6209438,-2.0382846,0,160.66427,-243.03657)"
       cx="158"
       cy="6.2131939"
       fx="158"
       fy="6.2131939"
       r="41" />
    <linearGradient
       inkscape:collect="always"
       id="linearGradient3888-8-4-8-6">
      <stop
         style="stop-color:#ffffff;stop-opacity:1;"
         offset="0"
         id="stop3890-4-7-9-7" />
      <stop
         style="stop-color:#ffffff;stop-opacity:0;"
         offset="1"
         id="stop3892-5-8-2-7" />
    </linearGradient>
    <radialGradient
       inkscape:collect="always"
       xlink:href="#linearGradient4091-0-3-0-7"
       id="radialGradient3118"
       gradientUnits="userSpaceOnUse"
       gradientTransform="matrix(-1.0721726,0,0,-0.87502024,199.46429,-19.125546)"
       cx="48"
       cy="-27"
       fx="48"
       fy="-27"
       r="42" />
    <linearGradient
       id="linearGradient4091-0-3-0-7">
      <stop
         style="stop-color:#ffffff;stop-opacity:1;"
         offset="0"
         id="stop4093-3-6-4-2" />
      <stop
         id="stop4099-6-1-8-3"
         offset="0.80000001"
         style="stop-color:#ffffff;stop-opacity:1;" />
      <stop
         style="stop-color:#ffffff;stop-opacity:0;"
         offset="1"
         id="stop4095-1-0-7-9" />
    </linearGradient>
    <linearGradient
       inkscape:collect="always"
       xlink:href="#linearGradient3832-0-6-1-1"
       id="linearGradient3120"
       gradientUnits="userSpaceOnUse"
       gradientTransform="matrix(1,0,0,0.88905855,200,8.9431737)"
       x1="-94"
       y1="82.984398"
       x2="-10.187523"
       y2="82.984398" />
    <linearGradient
       id="linearGradient3832-0-6-1-1">
      <stop
         style="stop-color:#000000;stop-opacity:1;"
         offset="0"
         id="stop3834-6-3-7-1" />
      <stop
         id="stop3872-2-4"
         offset="0.1"
         style="stop-color:#000000;stop-opacity:0.58823532;" />
      <stop
         style="stop-color:#000000;stop-opacity:0.58823532;"
         offset="0.89999998"
         id="stop3844-6-2-7-6" />
      <stop
         style="stop-color:#000000;stop-opacity:1;"
         offset="1"
         id="stop3836-5-0-2-9" />
    </linearGradient>
    <linearGradient
       inkscape:collect="always"
       xlink:href="#linearGradient3700"
       id="linearGradient9234"
       x1="-30.362898"
       y1="0.38067999"
       x2="59.749813"
       y2="0.38067999"
       gradientUnits="userSpaceOnUse" />
    <linearGradient
       id="linearGradient3700">
      <stop
         offset="0"
         style="stop-color:#4b61ac;stop-opacity:1"
         id="stop3702" />
      <stop
         offset="1"
         style="stop-color:#93a0d0;stop-opacity:1"
         id="stop3704" />
    </linearGradient>
    <linearGradient
       gradientTransform="matrix(0.44930767,0,0,0.44741484,-116.00993,-161.73218)"
       gradientUnits="userSpaceOnUse"
       xlink:href="#linearGradient3785-5"
       id="linearGradient4004-5"
       y2="520.1709"
       x2="365.97757"
       y1="408.39655"
       x1="365.51193" />
    <linearGradient
       id="linearGradient3785-5">
      <stop
         offset="0"
         style="stop-color:#384880;stop-opacity:1"
         id="stop3787-2" />
      <stop
         offset="1"
         style="stop-color:#000000;stop-opacity:1"
         id="stop3789-3" />
    </linearGradient>
    <linearGradient
       inkscape:collect="always"
       xlink:href="#linearGradient5700"
       id="linearGradient5698"
       gradientUnits="userSpaceOnUse"
       gradientTransform="matrix(1.1353753,0,0,1.1336634,-40.037119,-46.787635)"
       x1="6"
       y1="47.000011"
       x2="90"
       y2="47.000011" />
    <linearGradient
       id="linearGradient5700">
      <stop
         id="stop5702"
         offset="0"
         style="stop-color:#ffffff;stop-opacity:0;" />
      <stop
         style="stop-color:#ffffff;stop-opacity:0.85135138;"
         offset="0.03681535"
         id="stop5704" />
      <stop
         id="stop5706"
         offset="0.06506088"
         style="stop-color:#ffffff;stop-opacity:0;" />
      <stop
         style="stop-color:#ffffff;stop-opacity:0;"
         offset="0.94493848"
         id="stop5712" />
      <stop
         style="stop-color:#ffffff;stop-opacity:0.85135138;"
         offset="0.96582276"
         id="stop5710" />
      <stop
         id="stop5708"
         offset="1"
         style="stop-color:#ffffff;stop-opacity:0;" />
    </linearGradient>
    <linearGradient
       y2="0.27861649"
       x2="59.378193"
       y1="0.27861649"
       x1="2.4652066"
       gradientUnits="userSpaceOnUse"
       id="linearGradient7786"
       xlink:href="#linearGradient3888-8-4-8-4-6-9-0-8-7-9"
       inkscape:collect="always" />
    <linearGradient
       inkscape:collect="always"
       id="linearGradient3888-8-4-8-4-6-9-0-8-7-9">
      <stop
         style="stop-color:#ffffff;stop-opacity:1;"
         offset="0"
         id="stop3890-4-7-9-5-7-0-8-8-8-6" />
      <stop
         style="stop-color:#ffffff;stop-opacity:0;"
         offset="1"
         id="stop3892-5-8-2-8-3-3-3-06-4-4" />
    </linearGradient>
    <linearGradient
       y2="0.27861649"
       x2="59.378193"
       y1="0.27861649"
       x1="2.4652066"
       gradientUnits="userSpaceOnUse"
       id="linearGradient9930"
       xlink:href="#linearGradient3888-8-4-8-4-6-9-0-8-7-9"
       inkscape:collect="always" />
  </defs>
  <sodipodi:namedview
     id="base"
     pagecolor="#ffffff"
     bordercolor="#666666"
     borderopacity="1.0"
     inkscape:pageopacity="0.0"
     inkscape:pageshadow="2"
     inkscape:zoom="5.5"
     inkscape:cx="60.117302"
     inkscape:cy="32"
     inkscape:current-layer="layer1"
     showgrid="true"
     inkscape:document-units="px"
     inkscape:grid-bbox="true"
     inkscape:showpageshadow="false"
     gridtolerance="1"
     guidetolerance="1"
     objecttolerance="1"
     inkscape:window-width="1280"
     inkscape:window-height="959"
     inkscape:window-x="0"
     inkscape:window-y="0"
     inkscape:window-maximized="1" />
  <metadata
     id="metadata7">
    <rdf:RDF>
      <cc:Work
         rdf:about="">
        <dc:format>image/svg+xml</dc:format>
        <dc:type
           rdf:resource="http://purl.org/dc/dcmitype/StillImage" />
        <dc:title></dc:title>
      </cc:Work>
    </rdf:RDF>
  </metadata>
  <g
     id="layer1"
     inkscape:label="Layer 1"
     inkscape:groupmode="layer"
     transform="translate(0,32)">
    <g
       transform="matrix(1.0034441,0,0,1.0049592,33.489303,9.4732382)"
       id="g9825">
      <path
         inkscape:connector-curvature="0"
         id="rect4251-1"
         d="m 55.334401,-41.11932 -81.747021,0 c -3.773988,0 -6.812252,3.033683 -6.812252,6.80198 l 0,81.623788 c 0,3.768297 3.038264,6.80198 6.812252,6.80198 l 81.747021,0 c 3.773988,0 6.812252,-3.033683 6.812252,-6.80198 l 0,-81.623788 c 0,-3.768297 -3.038264,-6.80198 -6.812252,-6.80198 z"
         style="fill:url(#linearGradient5021);fill-opacity:1;fill-rule:nonzero;stroke:none;display:inline" />
      <g
         transform="matrix(1.1353753,0,0,1.1336634,-153.57465,-46.220805)"
         id="g3272">
        <path
           style="opacity:0.2;fill:url(#radialGradient3114);fill-opacity:1;fill-rule:nonzero;stroke:none;display:inline"
           d="m 112,5.5 c -2.7873,0 -5,2.2127028 -5,5 l 0,20.71875 0,7 0,38.59375 c 1.07066,1.628779 2.89693,2.71875 5,2.71875 l 4,0 64,0 4,0 c 2.10307,0 3.92934,-1.089971 5,-2.71875 l 0,-38.59375 0,-7 L 189,10.5 c 0,-2.7872972 -2.2127,-5 -5,-5 z"
           id="path3400-6"
           inkscape:connector-curvature="0"
           sodipodi:nodetypes="sscccsccscccsss" />
        <path
           style="opacity:0.45;fill:url(#radialGradient3118);fill-opacity:1;fill-rule:nonzero;stroke:none;display:inline"
           d="m 112,4.5 c -3.324,0 -6,2.6759996 -6,6 l 0,15 1,0 0,-15 c 0,-2.7872972 2.2127,-5 5,-5 l 72,0 c 2.7873,0 5,2.2127028 5,5 l 0,15 1,0 0,-15 c 0,-3.3240004 -2.676,-6 -6,-6 l -72,0 z"
           id="path4236-5"
           inkscape:connector-curvature="0" />
        <path
           inkscape:connector-curvature="0"
           id="path4242-5"
           d="m 106,76.942239 0,0.889058 0,0.889059 0,0.889059 0,1.778117 0,1.778117 c 0,2.95523 2.676,5.334351 6,5.334351 l 72,0 c 3.324,0 6,-2.379121 6,-5.334351 l 0,-1.778117 0,-1.778117 0,-0.889059 0,-0.889059 0,-0.889058 c 0,2.95523 -2.676,5.334351 -6,5.334351 l -72,0 c -3.324,0 -6,-2.379121 -6,-5.334351 z"
           style="opacity:0.46964859;fill:url(#linearGradient3120);fill-opacity:1;fill-rule:nonzero;stroke:none" />
      </g>
      <g
         id="g4021"
         transform="matrix(0.98621506,0,0,1.0503619,-36.451207,-38.562092)">
        <path
           transform="matrix(1.2467442,0,0,1.0633819,-54.589655,-6.556752)"
           d="m 73.164176,79.208954 c 0,1.541451 -1.249594,2.791045 -2.791045,2.791045 -1.541452,0 -2.791045,-1.249594 -2.791045,-2.791045 0,-1.541452 1.249593,-2.791045 2.791045,-2.791045 1.541451,0 2.791045,1.249593 2.791045,2.791045 z"
           sodipodi:ry="2.7910447"
           sodipodi:rx="2.7910447"
           sodipodi:cy="79.208954"
           sodipodi:cx="70.373131"
           id="path4002"
           style="opacity:0.71000001;fill:#1c1c1c;fill-opacity:1;fill-rule:nonzero;stroke:none"
           sodipodi:type="arc" />
        <path
           sodipodi:type="arc"
           style="fill:#ffffff;fill-opacity:1;fill-rule:nonzero;stroke:none"
           id="path3854"
           sodipodi:cx="70.373131"
           sodipodi:cy="79.208954"
           sodipodi:rx="2.7910447"
           sodipodi:ry="2.7910447"
           d="m 73.164176,79.208954 c 0,1.541451 -1.249594,2.791045 -2.791045,2.791045 -1.541452,0 -2.791045,-1.249594 -2.791045,-2.791045 0,-1.541452 1.249593,-2.791045 2.791045,-2.791045 1.541451,0 2.791045,1.249593 2.791045,2.791045 z"
           transform="matrix(1.0373872,0,0,0.91041754,-39.856546,5.3629056)" />
        <path
           transform="matrix(0.70316741,0,0,0.61710417,-16.33646,28.595951)"
           d="m 73.164176,79.208954 c 0,1.541451 -1.249594,2.791045 -2.791045,2.791045 -1.541452,0 -2.791045,-1.249594 -2.791045,-2.791045 0,-1.541452 1.249593,-2.791045 2.791045,-2.791045 1.541451,0 2.791045,1.249593 2.791045,2.791045 z"
           sodipodi:ry="2.7910447"
           sodipodi:rx="2.7910447"
           sodipodi:cy="79.208954"
           sodipodi:cx="70.373131"
           id="path3856"
           style="fill:#114751;fill-opacity:1;fill-rule:nonzero;stroke:none"
           sodipodi:type="arc" />
        <path
           sodipodi:type="arc"
           style="opacity:0.71000001;fill:#1c1c1c;fill-opacity:1;fill-rule:nonzero;stroke:none"
           id="path4170"
           sodipodi:cx="70.373131"
           sodipodi:cy="79.208954"
           sodipodi:rx="2.7910447"
           sodipodi:ry="2.7910447"
           d="m 73.164176,79.208954 c 0,1.541451 -1.249594,2.791045 -2.791045,2.791045 -1.541452,0 -2.791045,-1.249594 -2.791045,-2.791045 0,-1.541452 1.249593,-2.791045 2.791045,-2.791045 1.541451,0 2.791045,1.249593 2.791045,2.791045 z"
           transform="matrix(1.2467442,0,0,1.0633819,-20.11442,-6.556752)" />
        <path
           transform="matrix(1.0373872,0,0,0.91041754,-5.3813104,5.3629056)"
           d="m 73.164176,79.208954 c 0,1.541451 -1.249594,2.791045 -2.791045,2.791045 -1.541452,0 -2.791045,-1.249594 -2.791045,-2.791045 0,-1.541452 1.249593,-2.791045 2.791045,-2.791045 1.541451,0 2.791045,1.249593 2.791045,2.791045 z"
           sodipodi:ry="2.7910447"
           sodipodi:rx="2.7910447"
           sodipodi:cy="79.208954"
           sodipodi:cx="70.373131"
           id="path4172"
           style="fill:#ffffff;fill-opacity:1;fill-rule:nonzero;stroke:none"
           sodipodi:type="arc" />
        <path
           sodipodi:type="arc"
           style="fill:#114751;fill-opacity:1;fill-rule:nonzero;stroke:none"
           id="path4174"
           sodipodi:cx="70.373131"
           sodipodi:cy="79.208954"
           sodipodi:rx="2.7910447"
           sodipodi:ry="2.7910447"
           d="m 73.164176,79.208954 c 0,1.541451 -1.249594,2.791045 -2.791045,2.791045 -1.541452,0 -2.791045,-1.249594 -2.791045,-2.791045 0,-1.541452 1.249593,-2.791045 2.791045,-2.791045 1.541451,0 2.791045,1.249593 2.791045,2.791045 z"
           transform="matrix(0.70316741,0,0,0.61710417,18.138777,28.595951)" />
        <rect
           ry="1.1481457"
           rx="1.1481457"
           transform="matrix(1.0139776,0,0,0.95205283,3.1886202,-2.9106418)"
           y="83.595505"
           x="40.44944"
           height="3.235955"
           width="12.674157"
           id="rect4176"
           style="opacity:0.75097273;fill:#0c2f31;fill-opacity:0.90454544;stroke:#ffffff;stroke-width:0.49989974;stroke-miterlimit:4;stroke-opacity:1;stroke-dasharray:none" />
      </g>
      <path
         inkscape:connector-curvature="0"
         id="path4972"
         d="m -25.620124,16.576118 c -1.878635,0 -3.636952,0.913619 -4.742773,2.260615 l 0,15.014522 c 0,2.392606 2.115277,4.318783 4.742773,4.318783 l 80.627164,0 c 2.627498,0 4.742774,-1.926177 4.742774,-4.318783 l 0,-15.014522 c -1.10582,-1.346996 -2.864137,-2.260615 -4.742774,-2.260615 l -80.627164,0 z m 0,3.239089 80.627164,0 c 1.354763,0 2.371388,0.925742 2.371388,2.159392 l 0,11.876656 c 0,1.233651 -1.016625,2.159392 -2.371388,2.159392 l -80.627164,0 c -1.354761,0 -2.371386,-0.925741 -2.371386,-2.159392 l 0,-11.876656 c 0,-1.23365 1.016625,-2.159392 2.371386,-2.159392 z"
         style="font-size:medium;font-style:normal;font-variant:normal;font-weight:normal;font-stretch:normal;text-indent:0;text-align:start;text-decoration:none;line-height:normal;letter-spacing:normal;word-spacing:normal;text-transform:none;direction:ltr;block-progression:tb;writing-mode:lr-tb;text-anchor:start;baseline-shift:baseline;opacity:0.02000002;color:#000000;fill:#000000;fill-opacity:1;fill-rule:nonzero;stroke:none;stroke-width:6;marker:none;visibility:visible;display:inline;overflow:visible;enable-background:accumulate;font-family:Sans;-inkscape-font-specification:Sans" />
      <path
         id="path4970"
         d="m -25.620124,-37.408678 80.627164,0 c 2.627498,0 4.742774,1.926177 4.742774,4.318785 l 0,66.941148 c 0,2.392606 -2.115276,4.318783 -4.742774,4.318783 l -80.627164,0 c -2.627496,0 -4.742773,-1.926177 -4.742773,-4.318783 l 0,-66.941148 c 0,-2.392608 2.115277,-4.318785 4.742773,-4.318785 z"
         style="color:#000000;fill:url(#linearGradient9234);fill-opacity:1;fill-rule:nonzero;stroke:none;stroke-width:2;marker:none;visibility:visible;display:inline;overflow:visible;enable-background:accumulate"
         inkscape:connector-curvature="0"
         sodipodi:nodetypes="sssssssss" />
      <g
         id="layer4"
         transform="matrix(1.1234589,0,0,1.1217652,-39.377646,-54.134142)">
        <path
           inkscape:connector-curvature="0"
           d="m 48.125,19.09375 c -4.703116,0 -10.318355,1.052602 -15.09375,3.65625 -4.80954,2.622265 -8.875,7.189484 -8.875,13.5 0,6.102777 3.944951,10.456625 8.5625,12.84375 4.576137,2.365717 9.897554,3.1875 14.1875,3.1875 3.794284,0 7.416889,0.537542 9.65625,1.53125 1.150435,0.5105 1.915796,1.073836 2.375,1.65625 0.470987,0.597358 0.6875,1.165734 0.6875,2.1875 0,1.004766 -0.221477,1.727715 -0.6875,2.375 -0.466023,0.647285 -1.213963,1.222064 -2.34375,1.8125 -2.175939,1.137164 -5.705793,1.875 -9.53125,1.875 -4.087919,0 -6.866724,-1.329646 -8.6875,-2.875 -0.881622,-0.748262 -1.526227,-1.603906 -1.9375,-2.34375 -0.198674,-0.357398 -0.319744,-0.70134 -0.40625,-0.96875 -0.08651,-0.26741 -0.125,-0.50896 -0.125,-0.4375 0,-1.948773 -1.290508,-3.306039 -2.46875,-4.0625 -1.194812,-0.7671 -2.655995,-1.1875 -4.21875,-1.1875 -1.514575,0 -2.98287,0.37767 -4.15625,1.28125 -1.219594,0.939168 -1.96875,2.400175 -1.96875,3.96875 l 0,10.21875 c -0.0021,0.139678 -0.0021,-0.108428 0,0.03125 4e-6,0.01976 1.3e-5,0.06325 0,0.0625 0.0531,1.533541 0.380345,3.282247 1.46875,4.8125 0.556847,0.782905 1.303893,1.406538 2.1875,1.875 l -5.84375,0 0,-11.09375 c 0.0013,0.117813 -2.7e-5,-0.0081 0,-0.03125 2e-5,-0.01739 4.94e-4,-0.0696 0,-0.09375 3.2e-5,-0.01159 2e-6,-0.05166 0,-0.0625 -2e-6,-0.01084 8.2e-5,-0.09298 0,-0.09375 -4e-6,-4.1e-5 -0.02636,-0.03481 -0.03125,-0.0625 6e-6,-0.0063 1.16e-4,-0.02097 0,-0.03125 -5.8e-5,-0.0051 4.18e-4,-0.01827 0,-0.03125 -2.09e-4,-0.0065 0.001,-0.01467 0,-0.03125 -2.61e-4,-0.0041 0.0017,-0.01799 0,-0.03125 -0.0038,-0.01294 0.0016,-0.02619 0,-0.03125 -0.0043,-0.03121 10e-6,-0.06245 0,-0.0625 -7.7e-5,-3.8e-4 -0.02902,-0.118144 -0.03125,-0.125 -0.0022,-0.0069 -0.02943,0.0055 -0.03125,0 -0.0036,-0.0109 0.0039,-0.01967 0,-0.03125 -3.81e-4,-0.0015 -0.02349,-0.07059 -0.03125,-0.09375 -0.0078,-0.02316 4.53e-4,-0.02976 0,-0.03125 -9.05e-4,-0.003 -0.06145,-0.122075 -0.0625,-0.125 -10e-5,-2.8e-4 -0.01873,-0.06433 -0.03125,-0.09375 0.0077,0.0232 -5.91e-4,-0.03269 0,-0.03125 5.91e-4,0.0014 -0.03911,-0.04679 -0.03125,-0.03125 -2.68e-4,-7.92e-4 0.01117,-0.03491 0,-0.0625 -0.0019,-0.0058 0.0028,-0.02297 0,-0.03125 -7.1e-4,-0.0021 -0.03026,0.0028 -0.03125,0 -9.92e-4,-0.0028 0.0018,-0.02635 0,-0.03125 -0.0035,-0.0098 -0.03116,-0.124828 -0.03125,-0.125 -2e-5,-3.8e-5 -0.0389,-0.02703 -0.0625,-0.0625 -0.0041,-0.0097 -0.03121,-0.03117 -0.03125,-0.03125 -2e-5,-4.1e-5 -0.01527,-0.03419 -0.03125,-0.0625 -1.55e-4,-1.89e-4 -0.02463,-0.02394 -0.03125,-0.03125 -0.0041,-0.0072 5e-6,-0.03124 0,-0.03125 -4.5e-5,-6.8e-5 -0.07121,-0.0648 -0.09375,-0.09375 2.6e-5,3.6e-5 0.0063,-0.02366 0,-0.03125 C 20.33865,61.27355 20.32462,61.26719 20.3125,61.25 20.2978,61.2323 20.28372,61.22135 20.28125,61.21875 20.27485,61.21195 20.25132,61.18884 20.25,61.1875 20.249515,61.186894 20.19496,61.10122 20.1875,61.09375 20.18,61.08625 20.16401,61.07021 20.15625,61.0625 20.15415,61.0602 20.06466,60.97098 20.0625,60.96875 19.97557,60.87917 20.04672,60.95298 20.03125,60.9375 c -0.01547,-0.01548 -0.06137,-0.06144 -0.0625,-0.0625 -0.01029,-0.01034 -0.0393,-0.04064 -0.0625,-0.0625 0.01542,0.01553 -0.03243,-0.03226 -0.03125,-0.03125 -0.0054,-0.0054 -0.09344,-0.09351 -0.09375,-0.09375 -0.0025,-0.0019 -0.122455,-0.09197 -0.125,-0.09375 -1.59e-4,-1.11e-4 -0.08375,-0.02586 -0.09375,-0.03125 -0.01,-0.0054 -0.02715,-0.02914 -0.03125,-0.03125 -0.01203,-0.0071 -0.03749,-0.0031 -0.03125,0 -0.03333,-0.02145 -0.09267,-0.06189 -0.09375,-0.0625 -0.001,-5.89e-4 -0.0024,-0.01653 -0.03125,-0.03125 -0.01155,-0.0078 -0.02023,-0.0239 -0.03125,-0.03125 -0.0055,-0.0037 -0.02407,0.0047 -0.03125,0 -0.0042,-0.0026 -0.02018,-0.02459 -0.03125,-0.03125 -0.01107,-0.0067 -0.09366,-0.03121 -0.09375,-0.03125 -0.0012,-5.25e-4 -0.0849,-0.048 -0.125,-0.0625 -0.01242,-0.0053 -0.03183,-2.26e-4 -0.03125,0 -0.03217,-0.0134 -0.09346,-0.0624 -0.09375,-0.0625 -0.0454,-0.01532 -0.122013,-0.0304 -0.125,-0.03125 -4.7e-5,-1.3e-5 -0.156163,-0.03124 -0.15625,-0.03125 0.0021,6.86e-4 -0.02808,0.0011 -0.03125,0 -0.02291,-0.002 -0.05367,3.89e-4 -0.0625,0 -0.006,-0.002 0.0091,-0.02832 0,-0.03125 -0.0045,-0.0015 -0.02,0.0034 -0.03125,0 -0.0056,-0.0017 -0.01663,0.004 -0.03125,0 -0.01462,-0.004 -0.124904,-0.03124 -0.125,-0.03125 -1.92e-4,-2.6e-5 -0.08475,2e-4 -0.09375,0 -0.009,-2e-4 -0.02734,3.1e-5 -0.03125,0 -0.0015,-1.36e-4 -0.133061,-5.1e-5 -0.15625,0 l -2.03125,-0.0625 -0.0625,0 c -0.01636,-5.69e-4 -0.01818,3.98e-4 -0.03125,0 -0.01307,-3.98e-4 -0.0291,-7.6e-5 -0.03125,0 -0.0033,-1.7e-4 -0.217247,0 -0.1875,0 0.0238,0 -0.08078,-3.68e-4 -0.125,0 -0.0046,-1.3e-5 -0.02035,-3.13e-4 -0.03125,0 -0.0436,0.0013 -0.123673,-1.36e-4 -0.125,0 a 0.97326897,0.97326897 0 0 0 -0.15625,0 c -3.49e-4,6.6e-5 -0.08514,0.02857 -0.09375,0.03125 -0.0086,0.0027 -0.02643,-0.0016 -0.03125,0 -0.0096,0.0031 -0.0214,0.02797 -0.03125,0.03125 -0.01971,0.0066 -0.03936,-0.0078 -0.0625,0 -0.04628,0.01557 -0.02852,0.03048 -0.03125,0.03125 -0.01936,0.0038 -0.04451,-0.0036 -0.0625,0 -0.009,0.0018 -0.02032,-0.0023 -0.03125,0 -0.0055,0.0012 -0.01983,0.02862 -0.03125,0.03125 -0.01142,0.0026 -0.124668,0.03113 -0.125,0.03125 -0.07733,0.02917 -0.01623,-0.006 -0.03125,0 -0.01502,0.006 -0.04316,0.02353 -0.0625,0.03125 -0.03867,0.01543 -0.122439,0.06127 -0.125,0.0625 -1.6e-4,7.7e-5 -0.110895,0.05332 -0.125,0.0625 -0.01411,0.0092 -0.02553,-0.004 -0.03125,0 -0.01145,0.008 -0.02618,0.02755 -0.03125,0.03125 -0.01013,0.0074 0.0075,0.0256 0,0.03125 -0.01506,0.01129 -0.04708,0.01955 -0.0625,0.03125 -0.01178,0.007 -0.01192,0.01969 -0.03125,0.03125 -0.03865,0.02313 -0.15394,0.0921 -0.15625,0.09375 -0.0704,0.05039 -0.01913,0.0222 -0.03125,0.03125 -0.01212,0.009 -0.04701,0.01965 -0.0625,0.03125 -0.03098,0.0232 -0.09159,0.06065 -0.09375,0.0625 -0.0022,0.0018 -0.09413,0.09406 -0.125,0.125 -0.03087,0.03094 -0.01248,0.01151 -0.0625,0.0625 0.170906,-0.174213 -0.183888,0.183114 -0.1875,0.1875 -0.0036,0.0044 -0.153032,0.182817 -0.15625,0.1875 -0.0016,0.0023 -0.03935,0.08636 -0.0625,0.125 -0.01158,0.01932 -0.02226,0.04745 -0.03125,0.0625 -0.009,0.01505 0.02727,-0.04086 -0.03125,0.0625 -1.75e-4,3.09e-4 -0.05871,0.08488 -0.0625,0.09375 -0.0038,0.0093 0.0034,0.02269 0,0.03125 -6.03e-4,10e-4 0.0039,0.02483 0,0.03125 -0.0075,0.01452 -0.02367,0.01667 -0.03125,0.03125 -0.01534,0.03871 0.0012,0.02867 0,0.03125 -0.007,0.01149 -0.02487,0.02061 -0.03125,0.03125 -0.0053,0.0089 -0.02503,0.0206 -0.03125,0.03125 -0.0031,0.0053 0.0064,0.01983 0,0.03125 -0.0032,0.0057 -0.02376,0.01685 -0.03125,0.03125 -0.0075,0.0144 -0.03119,0.124833 -0.03125,0.125 -1.19e-4,3.35e-4 -0.02892,0.08352 -0.03125,0.09375 -0.0023,0.01023 -0.03018,0.02616 -0.03125,0.03125 -0.0021,0.01018 0.0018,0.02245 0,0.03125 -0.0035,0.0176 0.0038,0.04314 0,0.0625 -7.16e-4,0.0027 -0.02353,0.08631 -0.03125,0.125 -0.0039,0.01935 0.003,0.04724 0,0.0625 -0.003,0.01526 -0.01089,-0.0577 -0.03125,0.0625 -0.0012,0.007 -0.03079,0.244337 -0.03125,0.25 -2.29e-4,0.0028 -5.5e-5,0.148794 0,0.1875 5.5e-5,0.03871 -1.68e-4,0.03442 0,0.0625 L 13.09375,79 c -0.0014,-0.123449 2.9e-5,0.0081 0,0.03125 -2.9e-5,0.0232 -9.4e-5,0.123421 0,0.125 -1.2e-5,0.0058 -10e-7,0.02579 0,0.03125 2e-6,0.01093 -8.5e-5,0.09296 0,0.09375 5e-6,4.2e-5 0.02641,0.03532 0.03125,0.0625 -6e-6,0.0064 -1.24e-4,0.02068 0,0.03125 6.2e-5,0.0053 -4.48e-4,0.01785 0,0.03125 0.0019,0.0096 -8.52e-4,0.028 0,0.03125 0.0044,0.01691 -0.0019,0.02477 0,0.03125 0.0038,0.01296 -0.0016,0.02617 0,0.03125 8.55e-4,0.0038 0.03039,-0.0038 0.03125,0 0.0042,0.02947 -9e-6,0.06245 0,0.0625 9.82e-4,0.0029 10e-4,0.03434 0,0.03125 0.0076,0.02885 -0.0017,0.08867 0,0.09375 0.0022,0.0068 0.02944,-0.0054 0.03125,0 0.0036,0.01086 -0.0039,0.01967 0,0.03125 7.93e-4,0.0031 0.03031,0.121979 0.03125,0.125 9.4e-4,0.003 0.06142,0.153278 0.0625,0.15625 0.0077,0.0232 0.03064,0.123542 0.03125,0.125 0.0018,0.0055 -0.0024,0.02422 0,0.03125 0.0024,0.007 0.06233,0.09339 0.0625,0.09375 0.04635,0.09677 0.02346,0.04691 0.03125,0.0625 0.0078,0.01559 0.0305,0.06111 0.03125,0.0625 7.52e-4,0.0014 0.04702,0.101875 0.0625,0.125 2.9e-5,4.7e-5 0.03833,0.02869 0.0625,0.0625 0.0069,0.0097 -0.0062,0.02269 0,0.03125 10e-6,1.9e-5 0.02413,0.01986 0.03125,0.03125 0.01334,0.01566 0.02575,0.02527 0.03125,0.03125 0.02216,0.03546 0.03123,0.09373 0.03125,0.09375 5.9e-5,7.9e-5 0.01309,0.0096 0.03125,0.03125 0.0049,0.0074 0.02357,0.01964 0.03125,0.03125 0.01297,0.01726 0.0315,0.03155 0.03125,0.03125 0.0023,0.0033 -0.0051,0.02388 0,0.03125 0.004,0.004 0.02736,-0.0039 0.03125,0 0.01996,0.02538 0.06239,0.09363 0.0625,0.09375 0.0021,0.0023 0.113661,0.113661 0.09375,0.09375 -0.01991,-0.01991 0.09141,0.09162 0.09375,0.09375 1.46e-4,1.33e-4 0.08638,0.08861 0.09375,0.09375 0.004,0.004 0.02724,-0.004 0.03125,0 0.003,0.003 0.02397,0.02433 0.03125,0.03125 0.01161,0.0077 0.02384,0.02634 0.03125,0.03125 0.02165,0.01815 0.03117,0.03119 0.03125,0.03125 2.1e-5,1.6e-5 0.05829,0.0091 0.09375,0.03125 0.006,0.0055 0.01559,0.01791 0.03125,0.03125 0.01139,0.0071 0.03123,0.03124 0.03125,0.03125 0.0086,0.0062 0.02159,-0.0069 0.03125,0 0.0338,0.02417 0.06245,0.06247 0.0625,0.0625 0.02313,0.01548 0.123608,0.06175 0.125,0.0625 0.0014,7.52e-4 0.04691,0.02346 0.0625,0.03125 0.01559,0.0078 -0.03427,-0.0151 0.0625,0.03125 3.57e-4,1.71e-4 0.08672,0.0601 0.09375,0.0625 0.007,0.0024 0.02575,-0.0018 0.03125,0 0.0015,6.14e-4 0.101805,0.02356 0.125,0.03125 0.003,0.0011 0.153229,0.06156 0.15625,0.0625 0.003,9.4e-4 0.121937,0.03046 0.125,0.03125 0.01158,0.0039 0.02039,-0.0036 0.03125,0 0.0054,0.0018 -0.0068,0.02904 0,0.03125 0.0068,0.0022 0.124613,-8e-5 0.125,0 0.0087,0.0027 0.125195,0.03128 0.125,0.03125 -1.47e-4,-2.3e-5 0.0566,-0.0033 0.09375,0 0.02718,0.0048 0.06246,0.03124 0.0625,0.03125 7.87e-4,8.5e-5 0.08282,-2e-6 0.09375,0 0.01093,2e-6 0.0509,3.4e-5 0.0625,0 0.02465,5.25e-4 0.07635,2.2e-5 0.09375,0 0.02319,-2.9e-5 0.154699,0.0014 0.03125,0 l 64,0 c -0.123449,0.0014 0.0081,-2.9e-5 0.03125,0 0.0232,2.9e-5 0.123421,9.5e-5 0.125,0 0.0058,1.2e-5 0.02579,10e-7 0.03125,0 0.01093,-2e-6 0.09296,8.5e-5 0.09375,0 4.2e-5,-5e-6 0.03532,-0.02641 0.0625,-0.03125 0.03715,-0.0033 0.0939,-2.3e-5 0.09375,0 0.008,-5.24e-4 0.03256,0.0042 0.0625,0 0.01016,-0.0033 -0.0063,-0.02915 0,-0.03125 0.02947,-0.0042 0.06245,9e-6 0.0625,0 0.0087,-0.0027 0.0297,5.05e-4 0.03125,0 0.02885,-0.0076 0.08867,0.0017 0.09375,0 0.0068,-0.0022 -0.0054,-0.02944 0,-0.03125 0.01086,-0.0036 0.01967,0.0039 0.03125,0 0.0031,-7.93e-4 0.121979,-0.03031 0.125,-0.03125 0.003,-9.4e-4 0.153278,-0.06141 0.15625,-0.0625 0.0232,-0.0077 0.123542,-0.03064 0.125,-0.03125 0.0055,-0.0018 0.02422,0.0024 0.03125,0 0.007,-0.0024 0.09339,-0.06233 0.09375,-0.0625 0.09677,-0.04635 0.04691,-0.02346 0.0625,-0.03125 0.01559,-0.0078 0.06111,-0.0305 0.0625,-0.03125 0.0014,-7.52e-4 0.101875,-0.04702 0.125,-0.0625 4.7e-5,-2.9e-5 0.02869,-0.03833 0.0625,-0.0625 0.01285,-0.0074 0.02419,0.0041 0.03125,0 1.9e-5,-1e-5 0.01986,-0.02413 0.03125,-0.03125 0.0068,-0.0051 0.01833,-0.02139 0.03125,-0.03125 0.03546,-0.02216 0.09373,-0.03123 0.09375,-0.03125 1.59e-4,-1.18e-4 0.05522,-0.05558 0.0625,-0.0625 0.01726,-0.01297 0.03155,-0.0315 0.03125,-0.03125 -0.0012,0.001 0.04666,-0.0468 0.03125,-0.03125 0.02538,-0.01996 0.09363,-0.06239 0.09375,-0.0625 0.0023,-0.0021 0.113661,-0.113661 0.09375,-0.09375 -0.01991,0.01991 0.09162,-0.09141 0.09375,-0.09375 1.11e-4,-1.22e-4 0.04254,-0.06837 0.0625,-0.09375 0.0078,-0.0077 0.02322,-0.02323 0.03125,-0.03125 0.003,-0.003 0.02433,-0.02397 0.03125,-0.03125 0.01297,-0.01726 0.03371,-0.03495 0.03125,-0.03125 0.01815,-0.02165 0.03119,-0.03117 0.03125,-0.03125 1.6e-5,-2.1e-5 0.0091,-0.05829 0.03125,-0.09375 0.0099,-0.01292 0.02612,-0.02449 0.03125,-0.03125 0.0071,-0.01139 0.03124,-0.03123 0.03125,-0.03125 4.2e-5,-8.1e-5 -0.0053,-0.01936 0,-0.03125 0.02417,-0.03381 0.06247,-0.06245 0.0625,-0.0625 0.01548,-0.02312 0.06175,-0.123608 0.0625,-0.125 7.52e-4,-0.0014 0.02346,-0.04691 0.03125,-0.0625 0.0078,-0.01559 -0.0151,0.03427 0.03125,-0.0625 1.71e-4,-3.57e-4 0.0601,-0.08672 0.0625,-0.09375 0.0024,-0.007 -0.0018,-0.02575 0,-0.03125 -6.14e-4,0.0015 0.0076,-0.05445 0,-0.03125 0.01003,-0.02744 0.02537,-0.07601 0.03125,-0.09375 0.0011,-0.003 0.06156,-0.153229 0.0625,-0.15625 9.4e-4,-0.003 0.03046,-0.121937 0.03125,-0.125 0.0039,-0.01158 -0.0036,-0.02039 0,-0.03125 0.0018,-0.0054 0.02904,0.0068 0.03125,0 0.0017,-0.0051 -0.0076,-0.0649 0,-0.09375 5.05e-4,-0.0015 -0.0027,-0.02257 0,-0.03125 0.0039,-0.01157 -0.0042,-0.04993 0,-0.0625 0.0078,-0.03405 0.03127,-0.0626 0.03125,-0.0625 -2.3e-5,1.47e-4 -0.0033,-0.0566 0,-0.09375 0.0048,-0.02718 0.03124,-0.06246 0.03125,-0.0625 8.5e-5,-7.87e-4 -2e-6,-0.08282 0,-0.09375 2e-6,-0.01093 3.4e-5,-0.0509 0,-0.0625 5.25e-4,-0.02465 2.2e-5,-0.07635 0,-0.09375 -2.9e-5,-0.0232 0.0014,-0.154699 0,-0.03125 l 0,-2 c 0.0014,0.123449 -2.9e-5,-0.0081 0,-0.03125 2.2e-5,-0.0174 5.25e-4,-0.0691 0,-0.09375 -6.8e-5,0.02319 -9.5e-5,-0.03283 0,-0.03125 1.2e-5,-0.0058 10e-7,-0.02579 0,-0.03125 -2e-6,-0.01093 8.5e-5,-0.09296 0,-0.09375 -5e-6,-4.2e-5 -0.02641,-0.03532 -0.03125,-0.0625 6e-6,-0.0064 1.24e-4,-0.02068 0,-0.03125 -6.2e-5,-0.0053 4.48e-4,-0.01785 0,-0.03125 -2.24e-4,-0.0067 0.0011,-0.0142 0,-0.03125 -2.62e-4,-0.004 0.0016,-0.01891 0,-0.03125 -0.0038,-0.01296 0.0016,-0.02617 0,-0.03125 -8.55e-4,-0.0038 -0.03039,0.0038 -0.03125,0 -0.0042,-0.01257 0.0039,-0.05093 0,-0.0625 -8e-5,-3.87e-4 0.0022,-0.118225 0,-0.125 -0.0022,-0.0068 -0.02944,0.0054 -0.03125,0 -0.0036,-0.01086 0.0039,-0.01967 0,-0.03125 -7.93e-4,-0.0031 -0.03031,-0.121979 -0.03125,-0.125 -9.4e-4,-0.003 -0.06141,-0.153278 -0.0625,-0.15625 -0.0059,-0.01774 -0.02122,-0.06631 -0.03125,-0.09375 0.0076,0.0232 -6.14e-4,-0.03271 0,-0.03125 -0.0018,-0.0055 0.0024,-0.02422 0,-0.03125 C 82.6851,75.83675 82.62517,75.75036 82.625,75.75 82.57865,75.65323 82.60154,75.70309 82.59375,75.6875 82.58595,75.67191 82.56325,75.62639 82.5625,75.625 82.561748,75.6236 82.51548,75.523125 82.5,75.5 c -2.9e-5,-4.7e-5 -0.03833,-0.02869 -0.0625,-0.0625 -0.0053,-0.01189 4.2e-5,-0.03117 0,-0.03125 -0.0047,-0.0064 -0.02757,0.005 -0.03125,0 9e-6,1.3e-5 0.0029,-0.02739 0,-0.03125 C 82.39291,75.35934 82.3805,75.34973 82.375,75.34375 82.35284,75.30829 82.34377,75.25002 82.34375,75.25 c -5.9e-5,-7.9e-5 -0.0131,-0.0096 -0.03125,-0.03125 0.0025,0.0037 -0.01828,-0.01399 -0.03125,-0.03125 -0.0077,-0.01161 -0.02404,-0.02044 -0.03125,-0.03125 -0.0023,-0.0033 0.0051,-0.02388 0,-0.03125 -0.01082,-0.01246 -0.03902,-0.0077 -0.03125,0 -0.01996,-0.02538 -0.06239,-0.09363 -0.0625,-0.09375 -0.0021,-0.0023 -0.113661,-0.113661 -0.09375,-0.09375 0.01991,0.01991 -0.09141,-0.09162 -0.09375,-0.09375 -1.22e-4,-1.11e-4 -0.06837,-0.04254 -0.09375,-0.0625 0.0077,0.0078 0.01246,-0.02043 0,-0.03125 -0.004,-0.004 -0.02724,0.004 -0.03125,0 -0.003,-0.003 -0.02397,-0.02433 -0.03125,-0.03125 -0.0073,-0.0069 -0.06234,-0.06238 -0.0625,-0.0625 -2.1e-5,-1.6e-5 -0.05829,-0.0091 -0.09375,-0.03125 -0.006,-0.0055 -0.01559,-0.01791 -0.03125,-0.03125 -0.0025,-0.0021 -0.02464,0.0049 -0.03125,0 C 81.58219,74.58515 81.5794,74.57458 81.5625,74.5625 81.52869,74.53833 81.50005,74.50003 81.5,74.5 c -0.02312,-0.01548 -0.123608,-0.06175 -0.125,-0.0625 -0.0014,-7.52e-4 -0.04691,-0.02346 -0.0625,-0.03125 -0.01559,-0.0078 0.03427,0.0151 -0.0625,-0.03125 -3.57e-4,-1.71e-4 -0.08672,-0.0601 -0.09375,-0.0625 -0.007,-0.0024 -0.02575,0.0018 -0.03125,0 0.0015,6.14e-4 -0.05445,-0.0076 -0.03125,0 C 81.06631,74.30247 81.01774,74.28713 81,74.28125 c -0.003,-0.0011 -0.153229,-0.06156 -0.15625,-0.0625 -0.003,-9.4e-4 -0.121937,-0.03046 -0.125,-0.03125 -0.01158,-0.0039 -0.02039,0.0036 -0.03125,0 -0.0054,-0.0018 0.0068,-0.02904 0,-0.03125 -0.0051,-0.0017 -0.0649,0.0076 -0.09375,0 -0.0015,-5.05e-4 -0.02257,0.0027 -0.03125,0 -0.0041,-0.0013 -0.03223,0.0069 -0.0625,0 -0.0063,-0.0021 0.01016,-0.02799 0,-0.03125 -0.03002,-0.0068 -0.06259,-1.5e-5 -0.0625,0 -0.0098,-0.0026 -0.05669,0.0066 -0.09375,0 -0.02718,-0.0048 -0.06246,-0.03124 -0.0625,-0.03125 -7.87e-4,-8.5e-5 -0.08282,2e-6 -0.09375,0 -0.0055,-10e-7 -0.02549,-1.2e-5 -0.03125,0 -0.0016,-9.5e-5 -0.101805,-2.9e-5 -0.125,0 -0.0232,2.9e-5 -0.154699,-0.0014 -0.03125,0 l -24,0 c 3.690399,-0.758041 6.977975,-2.000779 9.65625,-3.8125 4.426034,-2.993994 7.281879,-7.483169 7.25,-12.5625 -0.04801,-7.649081 -5.00054,-12.474236 -10.5,-14.75 C 56.965266,40.717185 50.906287,40.40625 47,40.40625 43.620432,40.37083 41.210157,39.527783 39.75,38.5625 c -1.464584,-0.968209 -1.84375,-2.015133 -1.84375,-2.375 0,-1.542478 1.913177,-5.90625 9.96875,-5.90625 4.627419,0 7.091167,1.192295 8.46875,2.34375 1.367676,1.143174 1.706343,2.423048 1.75,2.65625 a 0.97326897,0.97326897 0 0 0 0.03125,0.0625 c -4.65e-4,-0.0017 0.03181,0.09543 0.03125,0.09375 -5.61e-4,-0.0017 0.0319,0.0954 0.03125,0.09375 0.06823,0.245587 0.04762,0.135352 0.03125,0.0625 -0.007,-0.03122 0.02618,0.120046 0,0.03125 0.853929,2.896588 3.738828,4.25 6.40625,4.25 1.396868,0 2.845601,-0.307766 4.03125,-1.1875 1.2495,-0.927112 2,-2.417021 2,-4.03125 l 0,-9.53125 c 0,-1.916915 -1.183301,-3.319614 -2.3125,-4.1875 -1.178707,-0.905937 -2.726295,-1.53125 -4.46875,-1.53125 -1.1478,0 -2.477664,0.147999 -3.75,0.84375 -0.431605,0.236014 -0.608174,0.507926 -0.84375,0.78125 -0.954144,-0.393356 -1.906628,-0.780893 -3.21875,-1.0625 -2.43514,-0.522628 -5.253866,-0.875 -7.9375,-0.875 z M 35.71875,72.375 c 1.792848,0.709464 3.604277,1.303147 5.46875,1.71875 l -7.21875,0 c 0.299605,-0.150766 0.621485,-0.177414 0.90625,-0.40625 0.475778,-0.382332 0.60644,-0.855374 0.84375,-1.3125 z"
           id="path4020"
           style="opacity:0.05;fill:#ffffff;fill-opacity:1;stroke:none" />
        <path
           inkscape:connector-curvature="0"
           d="m 48.125,20.0625 c -4.556488,0 -10.037025,1.029788 -14.625,3.53125 -4.600022,2.508031 -8.375,6.761189 -8.375,12.65625 0,5.68832 3.633833,9.695426 8.03125,11.96875 4.382766,2.26575 9.58916,3.09375 13.75,3.09375 3.883105,0 7.598517,0.531617 10.0625,1.625 1.248882,0.554186 2.133093,1.194704 2.71875,1.9375 0.585657,0.742796 0.90625,1.585534 0.90625,2.78125 0,2.327349 -1.140093,3.79653 -3.5625,5.0625 -2.398213,1.253326 -6.025582,1.96875 -9.96875,1.96875 -4.300051,0 -7.323932,-1.405985 -9.3125,-3.09375 -0.985373,-0.836319 -1.693861,-1.793202 -2.15625,-2.625 -0.462389,-0.831798 -0.65625,-1.584687 -0.65625,-1.875 0,-1.511375 -1.018946,-2.600075 -2.03125,-3.25 -1.027693,-0.659805 -2.298205,-1.03125 -3.6875,-1.03125 -1.347524,0 -2.592733,0.346966 -3.5625,1.09375 -0.990683,0.762891 -1.59375,1.930086 -1.59375,3.1875 l 0,10.21875 c -2.8e-5,0.0019 -2.8e-5,0.02935 0,0.03125 a 0.87865633,0.87865633 0 0 0 0,0.03125 c 0.04929,1.423424 0.344688,2.964482 1.28125,4.28125 0.962549,1.353305 2.626342,2.28125 4.59375,2.28125 1.55937,0 3.061935,0.0049 4.3125,-1 0.574428,-0.461607 0.869584,-1.082712 1.09375,-1.71875 4.159666,1.743026 8.47956,2.71875 13.03125,2.71875 6.749945,0 12.539759,-1.62073 16.75,-4.46875 4.215488,-2.85157 6.842088,-7.035737 6.8125,-11.75 C 71.892069,50.480093 67.284753,46.048983 62.03125,43.875 56.798308,41.709526 50.849913,41.375 47,41.375 c -3.534331,-0.03705 -6.128616,-0.907474 -7.78125,-2 -1.655088,-1.094148 -2.28125,-2.345284 -2.28125,-3.1875 0,-2.265861 2.526406,-6.875 10.9375,-6.875 4.796552,0 7.524006,1.250427 9.09375,2.5625 1.569744,1.312073 2.008017,2.760792 2.09375,3.21875 a 0.87865633,0.87865633 0 0 0 0.03125,0.09375 c 9.6e-4,0.0034 0.01558,0.04682 0.03125,0.09375 0.0067,0.02394 0.02426,0.0388 0.03125,0.0625 0.708417,2.403001 3.121864,3.5625 5.46875,3.5625 1.251717,0 2.467193,-0.280046 3.4375,-1 1.000806,-0.742584 1.625,-1.946429 1.625,-3.25 l 0,-9.53125 c 0,-1.515052 -0.938441,-2.638388 -1.9375,-3.40625 -1.028079,-0.790166 -2.37141,-1.34375 -3.875,-1.34375 -1.06685,0 -2.210283,0.133114 -3.28125,0.71875 -0.435762,0.238287 -0.739675,0.656154 -1.0625,1.03125 -1.066184,-0.463191 -2.201602,-0.899847 -3.6875,-1.21875 C 53.473814,20.397616 50.725012,20.0625 48.125,20.0625 z M 15.5,61 c -0.0056,0.0011 -0.18203,0.06096 -0.1875,0.0625 -0.0055,0.0015 -0.150934,0.02925 -0.15625,0.03125 -0.0053,0.002 -0.151128,0.06004 -0.15625,0.0625 -0.0051,0.0025 -0.120111,0.09086 -0.125,0.09375 -0.0049,0.0029 -0.15163,0.09044 -0.15625,0.09375 -0.0046,0.0033 -0.120684,0.09005 -0.125,0.09375 -0.0043,0.0037 -0.121021,0.120944 -0.125,0.125 -0.004,0.0041 -0.121388,0.120614 -0.125,0.125 -0.0036,0.0044 -0.09053,0.120317 -0.09375,0.125 -0.0032,0.0047 -0.09095,0.151306 -0.09375,0.15625 -0.0028,0.0049 -0.06014,0.151082 -0.0625,0.15625 -0.0024,0.0052 -0.09185,0.150896 -0.09375,0.15625 -0.0019,0.0054 -0.02982,0.150751 -0.03125,0.15625 -0.0014,0.0055 -0.0303,0.150648 -0.03125,0.15625 -9.49e-4,0.0056 -0.03079,0.181837 -0.03125,0.1875 -4.59e-4,0.0057 -3.4e-5,0.150568 0,0.15625 L 14.0625,79 c 3.6e-5,0.0032 -1.89e-4,0.09059 0,0.09375 1.89e-4,0.0032 -3.41e-4,0.0906 0,0.09375 3.41e-4,0.0031 0.03076,0.09062 0.03125,0.09375 4.93e-4,0.0031 -6.44e-4,0.09065 0,0.09375 6.44e-4,0.0031 0.03046,0.09069 0.03125,0.09375 7.93e-4,0.0031 0.03031,0.09073 0.03125,0.09375 9.4e-4,0.003 0.03017,0.09078 0.03125,0.09375 0.0011,0.003 0.03002,0.09083 0.03125,0.09375 0.0012,0.0029 0.02988,0.0909 0.03125,0.09375 0.0014,0.0029 0.02975,0.05972 0.03125,0.0625 0.0015,0.0028 0.06086,0.09104 0.0625,0.09375 0.0016,0.0027 0.06073,0.05987 0.0625,0.0625 0.0018,0.0026 0.02936,0.09121 0.03125,0.09375 0.0019,0.0025 0.06049,0.06006 0.0625,0.0625 0.002,0.0024 0.06037,0.09141 0.0625,0.09375 0.0021,0.0023 0.06026,0.06026 0.0625,0.0625 0.0022,0.0022 0.06016,0.06037 0.0625,0.0625 0.0023,0.0021 0.09131,0.06049 0.09375,0.0625 0.0024,0.002 0.05996,0.06061 0.0625,0.0625 0.0025,0.0019 0.09112,0.02948 0.09375,0.03125 0.0026,0.0018 0.05979,0.06086 0.0625,0.0625 0.0027,0.0016 0.09097,0.061 0.09375,0.0625 0.0028,0.0015 0.05965,0.02988 0.0625,0.03125 0.0029,0.0014 0.09083,0.03002 0.09375,0.03125 0.0029,0.0012 0.09078,0.03016 0.09375,0.03125 0.003,0.0011 0.09073,0.03031 0.09375,0.03125 0.003,9.4e-4 0.09069,0.03046 0.09375,0.03125 0.0031,7.93e-4 0.09065,0.03061 0.09375,0.03125 0.0031,6.44e-4 0.09062,-4.93e-4 0.09375,0 0.0031,4.93e-4 0.0906,0.03091 0.09375,0.03125 0.0031,3.41e-4 0.09059,-1.89e-4 0.09375,0 0.0032,1.89e-4 0.09059,-3.6e-5 0.09375,0 l 64,0 c 0.0032,-3.6e-5 0.09059,1.89e-4 0.09375,0 0.0032,-1.89e-4 0.0906,3.41e-4 0.09375,0 0.0031,-3.41e-4 0.09062,-0.03076 0.09375,-0.03125 0.0031,-4.93e-4 0.09065,6.44e-4 0.09375,0 0.0031,-6.44e-4 0.09069,-0.03046 0.09375,-0.03125 0.0031,-7.93e-4 0.09073,-0.03031 0.09375,-0.03125 0.003,-9.4e-4 0.09078,-0.03016 0.09375,-0.03125 0.003,-0.0011 0.09083,-0.03002 0.09375,-0.03125 0.0029,-0.0012 0.0909,-0.02988 0.09375,-0.03125 0.0029,-0.0014 0.05972,-0.02975 0.0625,-0.03125 0.0028,-0.0015 0.09104,-0.06086 0.09375,-0.0625 0.0027,-0.0016 0.05987,-0.06073 0.0625,-0.0625 0.0026,-0.0018 0.09121,-0.02936 0.09375,-0.03125 0.0025,-0.0019 0.06006,-0.06049 0.0625,-0.0625 0.0024,-0.002 0.09141,-0.06037 0.09375,-0.0625 0.0023,-0.0021 0.06026,-0.06026 0.0625,-0.0625 0.0022,-0.0022 0.06037,-0.06016 0.0625,-0.0625 0.0021,-0.0023 0.06049,-0.09131 0.0625,-0.09375 0.002,-0.0024 0.06061,-0.05996 0.0625,-0.0625 0.0019,-0.0025 0.02948,-0.09112 0.03125,-0.09375 0.0018,-0.0026 0.06086,-0.05979 0.0625,-0.0625 0.0016,-0.0027 0.061,-0.09097 0.0625,-0.09375 0.0015,-0.0028 0.02988,-0.05965 0.03125,-0.0625 0.0014,-0.0029 0.03002,-0.09083 0.03125,-0.09375 0.0012,-0.0029 0.03016,-0.09078 0.03125,-0.09375 0.0011,-0.003 0.03031,-0.09073 0.03125,-0.09375 9.4e-4,-0.003 0.03046,-0.09069 0.03125,-0.09375 7.93e-4,-0.0031 0.03061,-0.09065 0.03125,-0.09375 6.44e-4,-0.0031 -4.93e-4,-0.09062 0,-0.09375 4.93e-4,-0.0031 0.03091,-0.0906 0.03125,-0.09375 3.41e-4,-0.0031 -1.89e-4,-0.09059 0,-0.09375 1.89e-4,-0.0032 -3.6e-5,-0.09059 0,-0.09375 l 0,-2 c -3.6e-5,-0.0032 1.89e-4,-0.09059 0,-0.09375 -1.89e-4,-0.0032 3.41e-4,-0.0906 0,-0.09375 -3.41e-4,-0.0031 -0.03076,-0.09062 -0.03125,-0.09375 -4.93e-4,-0.0031 6.44e-4,-0.09065 0,-0.09375 -6.44e-4,-0.0031 -0.03046,-0.09069 -0.03125,-0.09375 -7.93e-4,-0.0031 -0.03031,-0.09073 -0.03125,-0.09375 -9.4e-4,-0.003 -0.03016,-0.09078 -0.03125,-0.09375 C 81.8114,76.34075 81.78248,76.25292 81.78125,76.25 81.78005,76.2471 81.75137,76.1591 81.75,76.15625 81.7486,76.15335 81.72025,76.09653 81.71875,76.09375 81.71725,76.09095 81.65789,76.00271 81.65625,76 81.65465,75.9973 81.59552,75.94013 81.59375,75.9375 81.59195,75.9349 81.56439,75.84629 81.5625,75.84375 81.5606,75.84125 81.50201,75.78369 81.5,75.78125 81.498,75.77885 81.43963,75.68984 81.4375,75.6875 81.4354,75.6852 81.37724,75.62724 81.375,75.625 81.3728,75.6228 81.31484,75.56463 81.3125,75.5625 81.3102,75.5604 81.22119,75.50201 81.21875,75.5 81.21635,75.498 81.15879,75.43939 81.15625,75.4375 81.15375,75.4356 81.06513,75.40802 81.0625,75.40625 81.0599,75.40445 81.00271,75.34539 81,75.34375 c -0.0027,-0.0016 -0.09097,-0.061 -0.09375,-0.0625 -0.0028,-0.0015 -0.05965,-0.02988 -0.0625,-0.03125 -0.0029,-0.0014 -0.09083,-0.03002 -0.09375,-0.03125 -0.0029,-0.0012 -0.09078,-0.03016 -0.09375,-0.03125 -0.003,-0.0011 -0.09073,-0.03031 -0.09375,-0.03125 -0.003,-9.4e-4 -0.09069,-0.03046 -0.09375,-0.03125 -0.0031,-7.93e-4 -0.09065,-0.03061 -0.09375,-0.03125 -0.0031,-6.44e-4 -0.09062,4.93e-4 -0.09375,0 -0.0031,-4.93e-4 -0.0906,-0.03091 -0.09375,-0.03125 -0.0031,-3.41e-4 -0.09059,1.89e-4 -0.09375,0 -0.0032,-1.89e-4 -0.09059,3.6e-5 -0.09375,0 l -60.0625,0 0,-12.0625 c -3.3e-5,-0.0031 1.8e-4,-0.09065 0,-0.09375 -1.8e-4,-0.0031 3.27e-4,-0.09066 0,-0.09375 -3.27e-4,-0.0031 -0.03078,-0.09068 -0.03125,-0.09375 -4.74e-4,-0.0031 6.19e-4,-0.09071 0,-0.09375 -6.19e-4,-0.003 -0.03049,-0.09074 -0.03125,-0.09375 -7.63e-4,-0.003 -0.03035,-0.09078 -0.03125,-0.09375 -9.05e-4,-0.003 -0.0302,-0.09083 -0.03125,-0.09375 -0.001,-0.0029 -0.03007,-0.05963 -0.03125,-0.0625 -0.0012,-0.0029 -0.02993,-0.09094 -0.03125,-0.09375 -0.0013,-0.0028 -0.0298,-0.091 -0.03125,-0.09375 -0.0014,-0.0027 -0.06092,-0.05982 -0.0625,-0.0625 C 19.65465,62.02855 19.6267,61.9401 19.625,61.9375 19.6233,61.9349 19.56433,61.87751 19.5625,61.875 19.5607,61.8725 19.50194,61.78367 19.5,61.78125 c -0.0019,-0.0024 -0.06045,-0.06017 -0.0625,-0.0625 -0.0021,-0.0023 -0.06034,-0.06027 -0.0625,-0.0625 -0.0022,-0.0022 -0.06023,-0.06038 -0.0625,-0.0625 -0.0023,-0.0021 -0.06013,-0.06049 -0.0625,-0.0625 -0.0024,-0.002 -0.06004,-0.0606 -0.0625,-0.0625 -0.0025,-0.0019 -0.0912,-0.06072 -0.09375,-0.0625 -0.0025,-0.0018 -0.05987,-0.02959 -0.0625,-0.03125 -0.0026,-0.0017 -0.09105,-0.06097 -0.09375,-0.0625 -0.0027,-0.0015 -0.05973,-0.02985 -0.0625,-0.03125 -0.0028,-0.0014 -0.09091,-0.06123 -0.09375,-0.0625 -0.0028,-0.0013 -0.09086,-0.03012 -0.09375,-0.03125 -0.0029,-0.0011 -0.05956,-0.03026 -0.0625,-0.03125 -0.0029,-9.93e-4 -0.09076,-0.0304 -0.09375,-0.03125 -0.003,-8.52e-4 -0.09073,7.09e-4 -0.09375,0 -0.003,-7.09e-4 -0.0907,-0.03068 -0.09375,-0.03125 -0.0031,-5.65e-4 -0.09067,-0.03083 -0.09375,-0.03125 -0.0031,-4.19e-4 -0.09066,2.73e-4 -0.09375,0 -0.0031,-2.73e-4 -0.09065,1.26e-4 -0.09375,0 L 15.96875,61 c -0.0022,-2.26e-4 -0.03383,0.0022 -0.0625,0 -0.01434,-0.0011 -0.03014,5.7e-5 -0.03125,0 -0.0033,-1.7e-4 -0.121666,0 -0.125,0 -0.0033,0 -0.09042,-1.7e-4 -0.09375,0 -0.0033,1.7e-4 -0.09043,-3.39e-4 -0.09375,0 A 0.87865633,0.87865633 0 0 0 15.5,61 z"
           id="path4016"
           style="opacity:0.07999998;fill:#ffffff;fill-opacity:1;stroke:none" />
        <path
           inkscape:connector-curvature="0"
           d="m 48.125,20.9375 c -4.420101,0 -9.801734,1.029248 -14.21875,3.4375 C 29.489234,26.783252 26,30.724826 26,36.25 c 0,5.318711 3.356325,9.013042 7.5625,11.1875 4.206175,2.174458 9.30256,3 13.34375,3 3.958067,0 7.744972,0.506568 10.40625,1.6875 2.661278,1.180932 4.15625,2.817193 4.15625,5.53125 0,2.645556 -1.437285,4.488122 -4.03125,5.84375 -2.593965,1.355628 -6.32949,2.0625 -10.375,2.0625 -4.494948,0 -7.734402,-1.495702 -9.875,-3.3125 -2.140598,-1.816798 -3.125,-4.053005 -3.125,-5.15625 0,-1.122473 -0.745301,-1.935211 -1.625,-2.5 -0.879699,-0.564789 -1.99256,-0.90625 -3.21875,-0.90625 -1.198821,0 -2.249643,0.304361 -3.03125,0.90625 -0.781607,0.601889 -1.25,1.523544 -1.25,2.5 l 0,10.21875 a 1.0747975,1.0747975 0 0 0 0,0.03125 c 0.04569,1.319358 0.328061,2.692036 1.125,3.8125 0.796939,1.120464 2.178955,1.90625 3.875,1.90625 1.549975,0 2.769856,-0.02486 3.75,-0.8125 0.490072,-0.393819 0.797211,-0.949704 0.96875,-1.5625 0.05118,-0.18284 0.03087,-0.429734 0.0625,-0.625 4.357164,1.976124 8.869889,3 13.65625,3 6.609219,0 12.222306,-1.587964 16.25,-4.3125 4.027694,-2.724536 6.465024,-6.645778 6.4375,-11.03125 C 71.019348,50.843228 66.730818,46.774505 61.6875,44.6875 56.644182,42.600495 50.79583,42.25 47,42.25 43.32514,42.21148 40.544139,41.300481 38.71875,40.09375 36.893361,38.887019 36.0625,37.423456 36.0625,36.1875 c 0,-2.889325 3.075553,-7.75 11.8125,-7.75 9.899825,0 11.816181,5.18425 12.0625,6.5 a 1.0747975,1.0747975 0 0 0 0.03125,0.09375 c 0.554535,1.996078 2.56777,3 4.65625,3 1.112673,0 2.125091,-0.264141 2.90625,-0.84375 0.781159,-0.579609 1.28125,-1.516264 1.28125,-2.53125 l 0,-9.53125 c 0,-1.158924 -0.704655,-2.035405 -1.59375,-2.71875 C 66.329655,21.722905 65.163646,21.25 63.875,21.25 c -0.984202,0 -1.986015,0.138877 -2.875,0.625 -0.489755,0.267812 -0.931921,0.70855 -1.25,1.21875 C 58.639172,22.564679 57.32305,22.107728 55.65625,21.75 53.348373,21.254685 50.651479,20.9375 48.125,20.9375 z M 15.65625,61.875 a 1.0747975,1.0747975 0 0 0 -0.875,1.0625 L 14.9375,79 A 1.0747975,1.0747975 0 0 0 16,80.0625 l 64,0 A 1.0747975,1.0747975 0 0 0 81.0625,79 l 0,-2 A 1.0747975,1.0747975 0 0 0 80,75.9375 l -60.9375,0 0,-12.9375 A 1.0747975,1.0747975 0 0 0 18.03125,61.9375 L 15.875,61.875 a 1.0747975,1.0747975 0 0 0 -0.21875,0 z"
           id="path4012"
           style="opacity:0.15;fill:#ffffff;fill-opacity:1;stroke:none" />
        <path
           d="m 48.125,22 c -8.495667,0 -21.0625,4.085438 -21.0625,14.25 0,9.750327 12.072493,13.125 19.84375,13.125 8.092727,0 15.625,1.994704 15.625,8.28125 0,6.125458 -7.133338,8.96875 -15.46875,8.96875 C 37.595488,66.625 33,60.320585 33,57.09375 33,55.962896 31.241528,54.75 29.21875,54.75 27.194354,54.75 26,55.804627 26,57.09375 L 26,67.3125 C 26.080911,69.649035 27.149577,72 29.9375,72 c 3.002372,0 3.875,-0.408911 3.875,-3.40625 C 38.435948,70.957465 43.228072,72 48.375,72 61.242377,72 70.05006,65.695048 70,57.71875 69.91909,44.827052 54.445927,43.3125 47,43.3125 39.313447,43.23193 35,39.572409 35,36.1875 c 0,-3.626555 3.731688,-8.8125 12.875,-8.8125 10.284575,0 12.778286,5.522974 13.125,7.375 0.404556,1.456222 1.843117,2.21875 3.625,2.21875 1.862712,0 3.125,-0.942807 3.125,-2.3125 l 0,-9.53125 c 0,-1.208553 -1.871201,-2.8125 -3.875,-2.8125 -1.699133,0 -3.45033,0.638594 -3.53125,2.25 C 58.644616,23.273375 52.990447,22 48.125,22 z M 15.84375,62.9375 16,79 l 64,0 0,-2 -62,0 0,-14 -2.15625,-0.0625 z"
           inkscape:connector-curvature="0"
           id="path4006"
           style="opacity:0.2;fill:#ffffff;fill-opacity:1;stroke:none" />
        <path
           d="m 48.125,21 c -8.495667,0 -21.0625,4.085438 -21.0625,14.25 0,9.750327 12.072493,13.125 19.84375,13.125 8.092727,0 15.625,1.994704 15.625,8.28125 0,6.125458 -7.133338,8.96875 -15.46875,8.96875 C 37.595488,65.625 33,59.320585 33,56.09375 33,54.962896 31.241528,53.75 29.21875,53.75 27.194354,53.75 26,54.804627 26,56.09375 L 26,66.3125 C 26.080911,68.649035 27.149577,71 29.9375,71 c 3.002372,0 3.875,-0.408911 3.875,-3.40625 C 38.435948,69.957465 43.228072,71 48.375,71 61.242377,71 70.05006,64.695048 70,56.71875 69.91909,43.827052 54.445927,42.3125 47,42.3125 39.313447,42.23193 35,38.572409 35,35.1875 c 0,-3.626555 3.731688,-8.8125 12.875,-8.8125 10.284575,0 12.778286,5.522974 13.125,7.375 0.404556,1.456222 1.843117,2.21875 3.625,2.21875 1.862712,0 3.125,-0.942807 3.125,-2.3125 l 0,-9.53125 c 0,-1.208553 -1.871201,-2.8125 -3.875,-2.8125 -1.699133,0 -3.45033,0.638594 -3.53125,2.25 C 58.644616,22.273375 52.990447,21 48.125,21 z M 15.84375,61.9375 16,78 l 64,0 0,-2 -62,0 0,-14 -2.15625,-0.0625 z"
           inkscape:connector-curvature="0"
           id="path3052"
           style="fill:url(#linearGradient4004-5);fill-opacity:1;stroke:none" />
        <path
           d="m 48.125,21 c -8.495667,0 -21.0625,4.085438 -21.0625,14.25 0,0.168271 0.02414,0.335511 0.03125,0.5 C 27.501503,25.953917 39.771065,22 48.125,22 c 4.865447,0 10.519616,1.273375 12.21875,2.5625 0.08092,-1.611406 1.832117,-2.25 3.53125,-2.25 2.003799,0 3.875,1.603947 3.875,2.8125 l 0,-1 c 0,-1.208553 -1.871201,-2.8125 -3.875,-2.8125 -1.699133,0 -3.45033,0.638594 -3.53125,2.25 C 58.644616,22.273375 52.990447,21 48.125,21 z M 35.03125,35.5 C 35.001686,35.737196 35,35.96084 35,36.1875 c 0,3.384909 4.313447,7.04443 12,7.125 7.360116,0 22.541159,1.483538 22.96875,13.96875 C 69.97725,57.096096 70.00117,56.905802 70,56.71875 69.91909,43.827052 54.445927,42.3125 47,42.3125 39.553652,42.234448 35.291526,38.792112 35.03125,35.5 z m -5.8125,18.25 C 27.194354,53.75 26,54.804627 26,56.09375 l 0,1 C 26,55.804627 27.194354,54.75 29.21875,54.75 31.241528,54.75 33,55.962896 33,57.09375 c 0,3.226835 4.595488,9.53125 14.0625,9.53125 8.335412,0 15.46875,-2.843292 15.46875,-8.96875 0,-0.174325 -0.01982,-0.332226 -0.03125,-0.5 C 62.119791,62.935197 55.166772,65.625 47.0625,65.625 37.595488,65.625 33,59.320585 33,56.09375 33,54.962896 31.241528,53.75 29.21875,53.75 z m -13.375,8.1875 0,1 L 18,63 18,62 15.84375,61.9375 z M 18,76 l 0,1 62,0 0,-1 -62,0 z"
           inkscape:connector-curvature="0"
           id="path4022"
           style="opacity:0.5;fill:#000000;fill-opacity:1;stroke:none" />
      </g>
      <path
         sodipodi:nodetypes="sssssssss"
         inkscape:connector-curvature="0"
         style="color:#000000;fill:none;stroke:#000000;stroke-width:2.28078365;stroke-opacity:0.7758007;marker:none;visibility:visible;display:inline;overflow:visible;enable-background:accumulate"
         d="m -24.679207,-36.611433 78.745332,0 c 2.566171,0 4.632078,1.88191 4.632078,4.219529 l 0,65.402689 c 0,2.337621 -2.065907,4.21953 -4.632078,4.21953 l -78.745332,0 c -2.566171,0 -4.632078,-1.881909 -4.632078,-4.21953 l 0,-65.402689 c 0,-2.337619 2.065907,-4.219529 4.632078,-4.219529 z"
         id="path4989" />
      <path
         style="opacity:0.72794118;fill:url(#linearGradient5698);fill-opacity:1;fill-rule:nonzero;stroke:none;display:inline"
         d="m 55.334401,-41.119318 -81.74701,0 c -3.77399,0 -6.81226,3.033683 -6.81226,6.80198 l 0,81.623788 c 0,3.768297 3.03827,6.801977 6.81226,6.801977 l 81.74701,0 c 3.773992,0 6.812252,-3.03368 6.812252,-6.801977 l 0,-81.623788 c 0,-3.768297 -3.03826,-6.80198 -6.812252,-6.80198 z"
         id="path5696"
         inkscape:connector-curvature="0" />
      <path
         inkscape:connector-curvature="0"
         id="path4974"
         d="m 2.4652066,-37.510742 c 8.3008074,26.054828 16.9264104,51.49589 25.6775424,75.578717 l 26.4927,0 c 2.627486,0 4.742745,-1.926177 4.742745,-4.318783 l 0,-66.941148 c 0,-2.392608 -2.115259,-4.318786 -4.742745,-4.318786 l -52.1702424,0 z"
         style="opacity:0.30882353;color:#000000;fill:url(#linearGradient9930);fill-opacity:1;fill-rule:nonzero;stroke:none;stroke-width:2;marker:none;visibility:visible;display:inline;overflow:visible;enable-background:accumulate" />
    </g>
  </g>
</svg>
