<?xml version="1.0" encoding="UTF-8" standalone="no"?>
<svg
   xmlns:dc="http://purl.org/dc/elements/1.1/"
   xmlns:cc="http://creativecommons.org/ns#"
   xmlns:rdf="http://www.w3.org/1999/02/22-rdf-syntax-ns#"
   xmlns:svg="http://www.w3.org/2000/svg"
   xmlns="http://www.w3.org/2000/svg"
   xmlns:xlink="http://www.w3.org/1999/xlink"
   xmlns:sodipodi="http://sodipodi.sourceforge.net/DTD/sodipodi-0.dtd"
   xmlns:inkscape="http://www.inkscape.org/namespaces/inkscape"
   viewBox="0 0 96 96"
   version="1.1"
   id="svg31"
   sodipodi:docname="start-here-guix.svg"
   width="96"
   height="96"
   inkscape:version="0.92.1 r15371">
  <title
     id="title4646">Lila-HD-Icon-Theme</title>
  <metadata
     id="metadata35">
    <rdf:RDF>
      <cc:Work
         rdf:about="">
        <dc:format>image/svg+xml</dc:format>
        <dc:type
           rdf:resource="http://purl.org/dc/dcmitype/StillImage" />
        <dc:title>Lila-HD-Icon-Theme</dc:title>
        <dc:date>2015-2019</dc:date>
        <dc:creator>
          <cc:Agent>
            <dc:title>Cristian Pozzessere  == ilnanny ==</dc:title>
          </cc:Agent>
        </dc:creator>
        <dc:description>Playing with Inkscape on Gnu/Linux O. S.</dc:description>
        <dc:subject>
          <rdf:Bag>
            <rdf:li>ilnanny</rdf:li>
            <rdf:li>lila_hd</rdf:li>
            <rdf:li>lila-hd</rdf:li>
            <rdf:li>lila hd icon theme</rdf:li>
            <rdf:li>Lila-HD-Icon-Theme lila hd icon lila icon</rdf:li>
          </rdf:Bag>
        </dc:subject>
        <dc:coverage>CC-BY-SA</dc:coverage>
        <dc:contributor>
          <cc:Agent>
            <dc:title>In the night, alone like a dog.</dc:title>
          </cc:Agent>
        </dc:contributor>
        <cc:license
           rdf:resource="http://creativecommons.org/licenses/by-sa/4.0/" />
      </cc:Work>
      <cc:License
         rdf:about="http://creativecommons.org/licenses/by-sa/4.0/">
        <cc:permits
           rdf:resource="http://creativecommons.org/ns#Reproduction" />
        <cc:permits
           rdf:resource="http://creativecommons.org/ns#Distribution" />
        <cc:requires
           rdf:resource="http://creativecommons.org/ns#Notice" />
        <cc:requires
           rdf:resource="http://creativecommons.org/ns#Attribution" />
        <cc:permits
           rdf:resource="http://creativecommons.org/ns#DerivativeWorks" />
        <cc:requires
           rdf:resource="http://creativecommons.org/ns#ShareAlike" />
      </cc:License>
    </rdf:RDF>
  </metadata>
  <sodipodi:namedview
     pagecolor="#ffffff"
     bordercolor="#666666"
     borderopacity="1"
     objecttolerance="10"
     gridtolerance="10"
     guidetolerance="10"
     inkscape:pageopacity="0"
     inkscape:pageshadow="2"
     inkscape:window-width="1920"
     inkscape:window-height="994"
     id="namedview33"
     showgrid="false"
     inkscape:zoom="5.6200258"
     inkscape:cx="6.0864011"
     inkscape:cy="64.061471"
     inkscape:window-x="0"
     inkscape:window-y="21"
     inkscape:window-maximized="1"
     inkscape:current-layer="svg31" />
  <defs
     id="defs25">
    <linearGradient
       y2="517.79999"
       x2="0"
       y1="545.79999"
       gradientUnits="userSpaceOnUse"
       id="linearGradient6">
      <stop
         stop-color="#3889e9"
         id="stop2" />
      <stop
         offset="1"
         stop-color="#5ea5fb"
         id="stop4" />
    </linearGradient>
    <linearGradient
       x1="-324.94"
       y1="649.73999"
       x2="-328.20999"
       y2="307.75"
       gradientUnits="userSpaceOnUse"
       id="linearGradient12">
      <stop
         stop-color="#016ed4"
         id="stop8" />
      <stop
         offset="1"
         stop-color="#00b1ff"
         id="stop10" />
    </linearGradient>
    <linearGradient
       gradientUnits="userSpaceOnUse"
       x1="346.57001"
       y1="513.79999"
       x2="361.57001"
       y2="528.79999"
       id="linearGradient18">
      <stop
         stop-color="#2e5d89"
         id="stop14" />
      <stop
         offset="1"
         stop-color="#1b92f4"
         id="stop16" />
    </linearGradient>
    <linearGradient
       gradientUnits="userSpaceOnUse"
       y2="516.47998"
       x2="0"
       y1="546.92999"
       id="0"
       gradientTransform="matrix(2.6603567,0,0,2.6606177,-1655.8576,-2123.2087)">
      <stop
         stop-color="#ff9300"
         id="stop20" />
      <stop
         offset="1"
         stop-color="#ffd702"
         id="stop22" />
    </linearGradient>
    <linearGradient
       id="linearGradient5700-9">
      <stop
         style="stop-color:#ffffff;stop-opacity:0;"
         offset="0"
         id="stop5702-6" />
      <stop
         id="stop5704-6"
         offset="0.03681535"
         style="stop-color:#ffffff;stop-opacity:0.85135138;" />
      <stop
         style="stop-color:#ffffff;stop-opacity:0;"
         offset="0.06506088"
         id="stop5706-4" />
      <stop
         id="stop5712-0"
         offset="0.94493848"
         style="stop-color:#ffffff;stop-opacity:0;" />
      <stop
         id="stop5710-1"
         offset="0.96582276"
         style="stop-color:#ffffff;stop-opacity:0.85135138;" />
      <stop
         style="stop-color:#ffffff;stop-opacity:0;"
         offset="1"
         id="stop5708-7" />
    </linearGradient>
    <linearGradient
       id="linearGradient15653">
      <stop
         id="stop15655"
         offset="0"
         style="stop-color:#22a7dc;stop-opacity:1;" />
      <stop
         id="stop15657"
         offset="1"
         style="stop-color:#1d73bb;stop-opacity:1;" />
    </linearGradient>
    <linearGradient
       id="linearGradient4091-0-3-0-7-0">
      <stop
         id="stop4093-3-6-4-2-5"
         offset="0"
         style="stop-color:#ffffff;stop-opacity:1;" />
      <stop
         style="stop-color:#ffffff;stop-opacity:1;"
         offset="0.80000001"
         id="stop4099-6-1-8-3-2" />
      <stop
         id="stop4095-1-0-7-9-7"
         offset="1"
         style="stop-color:#ffffff;stop-opacity:0;" />
    </linearGradient>
    <linearGradient
       id="linearGradient3832-0-6-1-1-0">
      <stop
         id="stop3834-6-3-7-1-2"
         offset="0"
         style="stop-color:#000000;stop-opacity:1;" />
      <stop
         style="stop-color:#000000;stop-opacity:0.58823532;"
         offset="0.1"
         id="stop3872-2-4-7" />
      <stop
         id="stop3844-6-2-7-6-3"
         offset="0.89999998"
         style="stop-color:#000000;stop-opacity:0.58823532;" />
      <stop
         id="stop3836-5-0-2-9-1"
         offset="1"
         style="stop-color:#000000;stop-opacity:1;" />
    </linearGradient>
    <linearGradient
       inkscape:collect="always"
       xlink:href="#linearGradient6139-0-0"
       id="linearGradient5021-2"
       gradientUnits="userSpaceOnUse"
       x1="6"
       y1="47.000011"
       x2="90"
       y2="47.000011"
       gradientTransform="matrix(1.1353753,0,0,1.1336634,-40.037124,-46.787637)" />
    <linearGradient
       id="linearGradient6139-0-0">
      <stop
         style="stop-color:#b7b7b7;stop-opacity:1;"
         offset="0"
         id="stop6141-2-9" />
      <stop
         id="stop6151-0-8"
         offset="0.25"
         style="stop-color:#ffffff;stop-opacity:1;" />
      <stop
         id="stop6147-1-4"
         offset="0.5"
         style="stop-color:#9d9d9d;stop-opacity:1;" />
      <stop
         style="stop-color:#fafafa;stop-opacity:1;"
         offset="0.75"
         id="stop6149-4-9" />
      <stop
         style="stop-color:#b7b7b7;stop-opacity:1;"
         offset="1"
         id="stop6143-4-8" />
    </linearGradient>
    <linearGradient
       id="linearGradient3700">
      <stop
         id="stop3702"
         style="stop-color:#78a1bd;stop-opacity:1"
         offset="0" />
      <stop
         id="stop3704"
         style="stop-color:#afc8d8;stop-opacity:1"
         offset="1" />
    </linearGradient>
    <linearGradient
       x1="45.447727"
       y1="92.539597"
       x2="45.447727"
       y2="7.0165396"
       id="ButtonShadow-3"
       gradientUnits="userSpaceOnUse"
       gradientTransform="scale(1.0058652,0.994169)">
      <stop
         id="stop3750-3"
         style="stop-color:#000000;stop-opacity:1"
         offset="0" />
      <stop
         id="stop3752-9"
         style="stop-color:#000000;stop-opacity:0.58823532"
         offset="1" />
    </linearGradient>
    <filter
       id="filter3174-0"
       style="color-interpolation-filters:sRGB">
      <feGaussianBlur
         id="feGaussianBlur3176-0"
         stdDeviation="1.71" />
    </filter>
    <linearGradient
       id="linearGradient3752">
      <stop
         id="stop3754"
         style="stop-color:#0e4688;stop-opacity:1"
         offset="0" />
      <stop
         id="stop3756"
         style="stop-color:#135eb7;stop-opacity:1"
         offset="1" />
    </linearGradient>
    <linearGradient
       id="linearGradient3816">
      <stop
         id="stop3818"
         style="stop-color:#ffffff;stop-opacity:1"
         offset="0" />
      <stop
         id="stop3820"
         style="stop-color:#ffffff;stop-opacity:0"
         offset="1" />
    </linearGradient>
    <linearGradient
       y2="47.000011"
       x2="90"
       y1="47.000011"
       x1="6"
       gradientTransform="matrix(1.1392856,0,0,1.1392855,488.22035,-310.97553)"
       gradientUnits="userSpaceOnUse"
       id="linearGradient18211"
       xlink:href="#linearGradient5700-9"
       inkscape:collect="always" />
    <linearGradient
       x1="783.86316"
       y1="-313.5238"
       x2="1099.6853"
       y2="1340.5599"
       id="linearGradient2994-7-6"
       xlink:href="#linearGradient3004-7-1"
       gradientUnits="userSpaceOnUse"
       gradientTransform="matrix(1.237124,0,0,1.237124,-1037.425,-1010.413)" />
    <linearGradient
       id="linearGradient3004-7-1">
      <stop
         id="stop3006-7-4"
         style="stop-color:#ffffff;stop-opacity:1"
         offset="0" />
      <stop
         id="stop7609-6-7"
         style="stop-color:#ffffff;stop-opacity:1"
         offset="0.34214258" />
      <stop
         id="stop7599-5-0"
         style="stop-color:#bebdf3;stop-opacity:1"
         offset="0.51998252" />
      <stop
         id="stop7611-6-8"
         style="stop-color:#8f82f9;stop-opacity:1"
         offset="0.75408828" />
      <stop
         id="stop7613-3-8"
         style="stop-color:#9f99c7;stop-opacity:1"
         offset="0.8711412" />
      <stop
         id="stop3008-5-5"
         style="stop-color:#524c76;stop-opacity:1"
         offset="1" />
    </linearGradient>
    <linearGradient
       x1="464.01675"
       y1="697.43707"
       x2="368.62137"
       y2="269.70941"
       id="linearGradient2986-6-4"
       xlink:href="#linearGradient3004-7-1"
       gradientUnits="userSpaceOnUse"
       gradientTransform="matrix(1.237124,0,0,1.237124,-161.0905,-377.3414)" />
    <radialGradient
       cx="49.529819"
       cy="320.08572"
       r="31.94874"
       fx="49.529819"
       fy="320.08572"
       id="radialGradient5851-1-2"
       xlink:href="#linearGradient3004-7-1"
       gradientUnits="userSpaceOnUse"
       gradientTransform="matrix(3.287367,0,0,2.519654,111.6891,-642.7214)" />
    <radialGradient
       cx="332.72311"
       cy="590.5899"
       r="218.02184"
       fx="332.72311"
       fy="590.5899"
       id="radialGradient3228-2-2"
       xlink:href="#linearGradient3004-7-1"
       gradientUnits="userSpaceOnUse"
       gradientTransform="matrix(-0.0660395,4.190266,-3.573754,-0.05626827,2168.154,-1171.421)" />
    <linearGradient
       id="linearGradient4108">
      <stop
         id="stop4110"
         style="stop-color:#8983ac;stop-opacity:1"
         offset="0" />
      <stop
         id="stop4112"
         style="stop-color:#ceccdd;stop-opacity:1"
         offset="1" />
    </linearGradient>
    <linearGradient
       y2="47.000011"
       x2="90"
       y1="47.000011"
       x1="6"
       gradientTransform="matrix(1.1392856,0,0,1.1392855,488.22036,-310.97552)"
       gradientUnits="userSpaceOnUse"
       id="linearGradient18191-2"
       xlink:href="#linearGradient6139-0-0"
       inkscape:collect="always" />
    <linearGradient
       y2="47.000011"
       x2="90"
       y1="47.000011"
       x1="6"
       gradientTransform="matrix(1.1392856,0,0,1.1392855,-7.5947959,-40.091876)"
       gradientUnits="userSpaceOnUse"
       id="linearGradient19498"
       xlink:href="#linearGradient6139-0-0"
       inkscape:collect="always" />
    <radialGradient
       r="41"
       fy="6.2131939"
       fx="158"
       cy="6.2131939"
       cx="158"
       gradientTransform="matrix(0,1.6209438,-2.0382846,0,160.66427,-243.03657)"
       gradientUnits="userSpaceOnUse"
       id="radialGradient19500"
       xlink:href="#linearGradient3816"
       inkscape:collect="always" />
    <radialGradient
       r="42"
       fy="-27"
       fx="48"
       cy="-27"
       cx="48"
       gradientTransform="matrix(-1.0721726,0,0,-0.87502024,199.46429,-19.125546)"
       gradientUnits="userSpaceOnUse"
       id="radialGradient19502"
       xlink:href="#linearGradient4091-0-3-0-7-0"
       inkscape:collect="always" />
    <linearGradient
       y2="82.984398"
       x2="-10.187523"
       y1="82.984398"
       x1="-94"
       gradientTransform="matrix(1,0,0,0.88905855,200,8.9431737)"
       gradientUnits="userSpaceOnUse"
       id="linearGradient19504"
       xlink:href="#linearGradient3832-0-6-1-1-0"
       inkscape:collect="always" />
    <radialGradient
       r="45.211536"
       fy="-263.57327"
       fx="543.1394"
       cy="-263.57327"
       cx="543.1394"
       gradientTransform="matrix(1,0,0,0.83997955,-495.81516,228.70653)"
       gradientUnits="userSpaceOnUse"
       id="radialGradient19506"
       xlink:href="#linearGradient4108"
       inkscape:collect="always" />
    <radialGradient
       r="31.94874"
       fy="320.08572"
       fx="49.529819"
       cy="320.08572"
       cx="49.529819"
       gradientTransform="matrix(3.287367,0,0,2.519654,111.6891,-642.7214)"
       gradientUnits="userSpaceOnUse"
       id="radialGradient19512"
       xlink:href="#linearGradient3004-7-1"
       inkscape:collect="always" />
    <radialGradient
       r="218.02184"
       fy="590.5899"
       fx="332.72311"
       cy="590.5899"
       cx="332.72311"
       gradientTransform="matrix(-0.0660395,4.190266,-3.573754,-0.05626827,2168.154,-1171.421)"
       gradientUnits="userSpaceOnUse"
       id="radialGradient19514"
       xlink:href="#linearGradient3004-7-1"
       inkscape:collect="always" />
    <linearGradient
       y2="0.27861649"
       x2="59.378193"
       y1="0.27861649"
       x1="2.4652066"
       gradientTransform="matrix(1.0034441,0,0,1.0049592,32.580214,6.9277846)"
       gradientUnits="userSpaceOnUse"
       id="linearGradient19516"
       xlink:href="#linearGradient3816"
       inkscape:collect="always" />
    <linearGradient
       y2="47.000011"
       x2="90"
       y1="47.000011"
       x1="6"
       gradientTransform="matrix(1.1392856,0,0,1.1392855,-7.5948059,-40.091885)"
       gradientUnits="userSpaceOnUse"
       id="linearGradient19518"
       xlink:href="#linearGradient5700-9"
       inkscape:collect="always" />
    <clipPath
       id="clipPath3625">
      <path
         d="M 0,0 V 96 H 96 V 0 Z m 12,6 h 72 c 3.324,0 6,2.676 6,6 v 72 c 0,3.324 -2.676,6 -6,6 H 12 C 8.676,90 6,87.324 6,84 V 12 C 6,8.676 8.676,6 12,6 Z"
         inkscape:connector-curvature="0"
         id="path3627"
         style="fill:#ffffff;fill-opacity:1;stroke:none" />
    </clipPath>
    <filter
       id="filter3174-20"
       style="color-interpolation-filters:sRGB">
      <feGaussianBlur
         id="feGaussianBlur3176-3"
         stdDeviation="1.71" />
    </filter>
    <linearGradient
       x1="44.512066"
       y1="6"
       x2="44.512066"
       y2="90.015434"
       id="linearGradient3643"
       xlink:href="#linearGradient3637"
       gradientUnits="userSpaceOnUse" />
    <linearGradient
       id="linearGradient3637">
      <stop
         id="stop3639"
         style="stop-color:#f0f0f0;stop-opacity:1"
         offset="0" />
      <stop
         id="stop3641"
         style="stop-color:#dcdcdc;stop-opacity:1"
         offset="1" />
    </linearGradient>
    <linearGradient
       x1="36.357143"
       y1="6"
       x2="36.357143"
       y2="63.893143"
       id="linearGradient3188-83"
       xlink:href="#linearGradient3816"
       gradientUnits="userSpaceOnUse" />
    <radialGradient
       cx="48"
       cy="90.171875"
       r="42"
       fx="48"
       fy="90.171875"
       id="radialGradient3619-1"
       xlink:href="#linearGradient3816"
       gradientUnits="userSpaceOnUse"
       gradientTransform="matrix(1.1573129,0,0,0.99590774,-7.5510206,0.19713193)" />
    <linearGradient
       x1="48"
       y1="90"
       x2="48"
       y2="5.9877172"
       id="linearGradient2843"
       xlink:href="#linearGradient3700-24"
       gradientUnits="userSpaceOnUse"
       gradientTransform="translate(0,100)" />
    <linearGradient
       id="linearGradient3700-24">
      <stop
         id="stop3702-5"
         style="stop-color:#2276c5;stop-opacity:1"
         offset="0" />
      <stop
         id="stop3704-8"
         style="stop-color:#68baf4;stop-opacity:1"
         offset="1" />
    </linearGradient>
    <clipPath
       id="clipPath3649">
      <rect
         width="76"
         height="76"
         rx="4"
         ry="4"
         x="10"
         y="10"
         id="rect3651"
         style="fill:#ffffff;fill-opacity:1;fill-rule:nonzero;stroke:none" />
    </clipPath>
    <filter
       id="filter3657"
       style="color-interpolation-filters:sRGB">
      <feGaussianBlur
         id="feGaussianBlur3659"
         stdDeviation="1.14" />
    </filter>
    <linearGradient
       x1="48"
       y1="20.220806"
       x2="48"
       y2="138.66119"
       id="linearGradient3613-9"
       xlink:href="#linearGradient3816"
       gradientUnits="userSpaceOnUse" />
    <clipPath
       id="clipPath3613-8">
      <rect
         width="84"
         height="84"
         rx="6"
         ry="6"
         x="6"
         y="6"
         id="rect3615-25"
         style="fill:#ffffff;fill-opacity:1;fill-rule:nonzero;stroke:none" />
    </clipPath>
    <filter
       x="-0.192"
       y="-0.192"
       width="1.3839999"
       height="1.3839999"
       id="filter3794-1"
       style="color-interpolation-filters:sRGB">
      <feGaussianBlur
         id="feGaussianBlur3796-5"
         stdDeviation="5.28" />
    </filter>
    <linearGradient
       x1="50.578938"
       y1="79.951607"
       x2="50.578938"
       y2="16.361158"
       id="linearGradient3680-4"
       xlink:href="#linearGradient4081-9"
       gradientUnits="userSpaceOnUse" />
    <linearGradient
       id="linearGradient4081-9">
      <stop
         id="stop4083-8"
         style="stop-color:#aaaaaa;stop-opacity:1"
         offset="0" />
      <stop
         id="stop4085-0"
         style="stop-color:#f0f0f0;stop-opacity:1"
         offset="1" />
    </linearGradient>
    <linearGradient
       y2="47.000011"
       x2="90"
       y1="47.000011"
       x1="6"
       gradientTransform="matrix(1.1392856,0,0,1.1392855,-9.5948059,-9.5464309)"
       gradientUnits="userSpaceOnUse"
       id="linearGradient18211-7"
       xlink:href="#linearGradient5700-9"
       inkscape:collect="always" />
    <linearGradient
       y2="0.27861649"
       x2="59.378193"
       y1="0.27861649"
       x1="2.4652066"
       gradientTransform="matrix(1.0034441,0,0,1.0049592,33.489305,41.473239)"
       gradientUnits="userSpaceOnUse"
       id="linearGradient18209"
       xlink:href="#linearGradient3816"
       inkscape:collect="always" />
    <linearGradient
       gradientUnits="userSpaceOnUse"
       y2="-263.57327"
       x2="588.35095"
       y1="-263.57327"
       x1="497.92789"
       id="linearGradient20151"
       xlink:href="#ButtonShadow-3"
       inkscape:collect="always"
       gradientTransform="translate(-497.81516,301.4291)" />
    <radialGradient
       r="41"
       fy="6.2131939"
       fx="158"
       cy="6.2131939"
       cx="158"
       gradientTransform="matrix(0,1.6209438,-2.0382846,0,160.66427,-243.03657)"
       gradientUnits="userSpaceOnUse"
       id="radialGradient18193"
       xlink:href="#linearGradient3816"
       inkscape:collect="always" />
    <radialGradient
       r="42"
       fy="-27"
       fx="48"
       cy="-27"
       cx="48"
       gradientTransform="matrix(-1.0721726,0,0,-0.87502024,199.46429,-19.125546)"
       gradientUnits="userSpaceOnUse"
       id="radialGradient18195"
       xlink:href="#linearGradient4091-0-3-0-7-0"
       inkscape:collect="always" />
    <linearGradient
       inkscape:collect="always"
       xlink:href="#linearGradient6139-0-0"
       id="linearGradient20287"
       gradientUnits="userSpaceOnUse"
       gradientTransform="matrix(1.1392856,0,0,1.1392855,-6.6857047,-5.5464218)"
       x1="6"
       y1="47.000011"
       x2="90"
       y2="47.000011" />
    <radialGradient
       r="41"
       fy="6.2131939"
       fx="158"
       cy="6.2131939"
       cx="158"
       gradientTransform="matrix(0,1.6209438,-2.0382846,0,160.66427,-243.03657)"
       gradientUnits="userSpaceOnUse"
       id="radialGradient20577"
       xlink:href="#linearGradient3816"
       inkscape:collect="always" />
    <radialGradient
       r="42"
       fy="-27"
       fx="48"
       cy="-27"
       cx="48"
       gradientTransform="matrix(-1.0721726,0,0,-0.87502024,199.46429,-19.125546)"
       gradientUnits="userSpaceOnUse"
       id="radialGradient20579"
       xlink:href="#linearGradient4091-0-3-0-7-0"
       inkscape:collect="always" />
    <linearGradient
       y2="47.000011"
       x2="90"
       y1="47.000011"
       x1="6"
       gradientTransform="matrix(1.1392856,0,0,1.1392855,-6.685712,-5.5464295)"
       gradientUnits="userSpaceOnUse"
       id="linearGradient20587"
       xlink:href="#linearGradient5700-9"
       inkscape:collect="always" />
    <linearGradient
       y2="7.0165396"
       x2="45.447727"
       y1="92.539597"
       x1="45.447727"
       gradientTransform="scale(1.0058652,0.994169)"
       gradientUnits="userSpaceOnUse"
       id="linearGradient20589"
       xlink:href="#ButtonShadow-3"
       inkscape:collect="always" />
    <linearGradient
       gradientUnits="userSpaceOnUse"
       y2="516.47998"
       x2="0"
       y1="546.92999"
       id="0-3"
       gradientTransform="matrix(2.6603567,0,0,2.6606177,-1806.7116,-2199.4079)">
      <stop
         stop-color="#ff9300"
         id="stop20-6" />
      <stop
         offset="1"
         stop-color="#ffd702"
         id="stop22-7" />
    </linearGradient>
    <linearGradient
       gradientUnits="userSpaceOnUse"
       y2="516.47998"
       x2="0"
       y1="546.92999"
       id="linearGradient1319"
       gradientTransform="matrix(2.6603567,0,0,2.6606177,-1655.8576,-2123.2087)">
      <stop
         stop-color="#ff9300"
         id="stop1315" />
      <stop
         offset="1"
         stop-color="#ffd702"
         id="stop1317" />
    </linearGradient>
  </defs>
  <path
     inkscape:connector-curvature="0"
     id="rect4251-1"
     d="M 89.014285,0.1500092 H 6.9857253 c -3.78699,0 -6.83572,3.04872 -6.83572,6.83571 V 89.014289 c 0,3.78699 3.04873,6.83572 6.83572,6.83572 H 89.014285 c 3.78699,0 6.83572,-3.04873 6.83572,-6.83572 V 6.9857192 c 0,-3.78699 -3.04873,-6.83571 -6.83572,-6.83571 z"
     style="display:inline;fill:url(#linearGradient20287);fill-opacity:1;fill-rule:nonzero;stroke:none" />
  <g
     transform="matrix(1.1392856,0,0,1.1392855,-120.61428,-4.9767938)"
     id="g3272">
    <path
       style="display:inline;opacity:0.2;fill:url(#radialGradient20577);fill-opacity:1;fill-rule:nonzero;stroke:none"
       d="m 112,5.5 c -2.7873,0 -5,2.2127028 -5,5 v 20.71875 7 38.59375 c 1.07066,1.628779 2.89693,2.71875 5,2.71875 h 4 64 4 c 2.10307,0 3.92934,-1.089971 5,-2.71875 v -38.59375 -7 V 10.5 c 0,-2.7872972 -2.2127,-5 -5,-5 z"
       id="path3400-6"
       inkscape:connector-curvature="0"
       sodipodi:nodetypes="sscccsccscccsss" />
    <path
       style="display:inline;opacity:0.45;fill:url(#radialGradient20579);fill-opacity:1;fill-rule:nonzero;stroke:none"
       d="m 112,4.5 c -3.324,0 -6,2.6759996 -6,6 v 15 h 1 v -15 c 0,-2.7872972 2.2127,-5 5,-5 h 72 c 2.7873,0 5,2.2127028 5,5 v 15 h 1 v -15 c 0,-3.3240004 -2.676,-6 -6,-6 z"
       id="path4236-5"
       inkscape:connector-curvature="0" />
    <path
       inkscape:connector-curvature="0"
       id="path4242-5"
       d="m 106,76.942239 v 0.889058 0.889059 0.889059 1.778117 1.778117 c 0,2.95523 2.676,5.334351 6,5.334351 h 72 c 3.324,0 6,-2.379121 6,-5.334351 v -1.778117 -1.778117 -0.889059 -0.889059 -0.889058 c 0,2.95523 -2.676,5.334351 -6,5.334351 h -72 c -3.324,0 -6,-2.379121 -6,-5.334351 z"
       style="opacity:0.46964859;fill:url(#linearGradient19504);fill-opacity:1;fill-rule:nonzero;stroke:none" />
  </g>
  <g
     id="g4021"
     transform="matrix(0.98961168,0,0,1.0555709,-3.0874496,2.7199062)">
    <circle
       transform="matrix(1.2467442,0,0,1.0633819,-54.589655,-6.556752)"
       id="path4002"
       style="opacity:0.71000001;fill:#1c1c1c;fill-opacity:1;fill-rule:nonzero;stroke:none"
       cx="70.373131"
       cy="79.208954"
       r="2.7910447" />
    <circle
       style="fill:#ffffff;fill-opacity:1;fill-rule:nonzero;stroke:none"
       id="path3854"
       transform="matrix(1.0373872,0,0,0.91041754,-39.856546,5.3629056)"
       cx="70.373131"
       cy="79.208954"
       r="2.7910447" />
    <circle
       transform="matrix(0.70316741,0,0,0.61710417,-16.33646,28.595951)"
       id="path3856"
       style="fill:#114751;fill-opacity:1;fill-rule:nonzero;stroke:none"
       cx="70.373131"
       cy="79.208954"
       r="2.7910447" />
    <circle
       style="opacity:0.71000001;fill:#1c1c1c;fill-opacity:1;fill-rule:nonzero;stroke:none"
       id="path4170"
       transform="matrix(1.2467442,0,0,1.0633819,-20.11442,-6.556752)"
       cx="70.373131"
       cy="79.208954"
       r="2.7910447" />
    <circle
       transform="matrix(1.0373872,0,0,0.91041754,-5.3813104,5.3629056)"
       id="path4172"
       style="fill:#ffffff;fill-opacity:1;fill-rule:nonzero;stroke:none"
       cx="70.373131"
       cy="79.208954"
       r="2.7910447" />
    <circle
       style="fill:#114751;fill-opacity:1;fill-rule:nonzero;stroke:none"
       id="path4174"
       transform="matrix(0.70316741,0,0,0.61710417,18.138777,28.595951)"
       cx="70.373131"
       cy="79.208954"
       r="2.7910447" />
    <rect
       ry="1.1481457"
       rx="1.1481457"
       transform="matrix(1.0139776,0,0,0.95205283,3.1886202,-2.9106418)"
       y="83.595505"
       x="40.44944"
       height="3.235955"
       width="12.674157"
       id="rect4176"
       style="opacity:0.75097273;fill:#0c2f31;fill-opacity:0.90454544;stroke:#ffffff;stroke-width:0.49989974;stroke-miterlimit:4;stroke-dasharray:none;stroke-opacity:1" />
  </g>
  <path
     inkscape:connector-curvature="0"
     id="path4972"
     d="m 7.7809453,58.131569 c -1.8851,0 -3.64948,0.91815 -4.75911,2.27182 v 15.08898 c 0,2.40448 2.12257,4.34021 4.75911,4.34021 H 88.685795 c 2.63655,0 4.75911,-1.93573 4.75911,-4.34021 v -15.08898 c -1.10963,-1.35367 -2.874,-2.27182 -4.75911,-2.27182 z m 0,3.25515 H 88.685795 c 1.35943,0 2.37956,0.93033 2.37956,2.1701 v 11.93555 c 0,1.23977 -1.02013,2.17011 -2.37956,2.17011 H 7.7809453 c -1.35942,0 -2.37955,-0.93034 -2.37955,-2.17011 v -11.93555 c 0,-1.23977 1.02013,-2.1701 2.37955,-2.1701 z"
     style="color:#000000;font-style:normal;font-variant:normal;font-weight:normal;font-stretch:normal;font-size:medium;line-height:normal;font-family:Sans;-inkscape-font-specification:Sans;text-indent:0;text-align:start;text-decoration:none;text-decoration-line:none;letter-spacing:normal;word-spacing:normal;text-transform:none;writing-mode:lr-tb;direction:ltr;baseline-shift:baseline;text-anchor:start;display:inline;overflow:visible;visibility:visible;opacity:0.02000002;fill:#000000;fill-opacity:1;fill-rule:nonzero;stroke:none;stroke-width:6;marker:none;enable-background:accumulate" />
  <path
     id="path4970"
     d="M 7.7809453,3.8790482 H 88.685795 c 2.63655,0 4.75911,1.93573 4.75911,4.3402 V 75.492369 c 0,2.40448 -2.12256,4.34021 -4.75911,4.34021 H 7.7809453 c -2.63654,0 -4.75911,-1.93573 -4.75911,-4.34021 V 8.2192492 c 0,-2.40447 2.12257,-4.3402 4.75911,-4.340201 z"
     style="color:#000000;display:inline;overflow:visible;visibility:visible;opacity:0.82114784;fill:#ff9300;fill-opacity:1;fill-rule:nonzero;stroke:none;stroke-width:2;marker:none;enable-background:accumulate"
     inkscape:connector-curvature="0"
     sodipodi:nodetypes="sssssssss" />
  <path
     id="path4989-5"
     d="M 8.4917253,4.6958682 H 87.508265 c 2.57501,0 4.64803,1.89124 4.64803,4.24046 V 74.663359 c 0,2.34921 -2.07302,4.24046 -4.64803,4.24046 H 8.4917253 c -2.57501,0 -4.64803,-1.89125 -4.64803,-4.24046 V 8.9363292 c 0,-2.34922 2.07302,-4.24046 4.64803,-4.240461 z"
     style="color:#000000;display:inline;overflow:visible;visibility:visible;fill:none;stroke:#000000;stroke-width:2.29036617;stroke-opacity:0.7758007;marker:none;enable-background:accumulate"
     inkscape:connector-curvature="0"
     sodipodi:nodetypes="sssssssss" />
  <path
     inkscape:connector-curvature="0"
     id="path4974"
     d="m 35.963005,3.7764782 c 8.3294,26.1840408 16.98471,51.7512708 25.76598,75.9535308 h 26.58394 c 2.63654,0 4.75908,-1.93573 4.75908,-4.3402 V 8.1166792 c 0,-2.40447 -2.12254,-4.3402 -4.75908,-4.3402 z"
     style="color:#000000;display:inline;overflow:visible;visibility:visible;opacity:0.30882353;fill:url(#linearGradient18209);fill-opacity:1;fill-rule:nonzero;stroke:none;stroke-width:2;marker:none;enable-background:accumulate" />
  <path
     style="display:inline;opacity:0.72794118;fill:url(#linearGradient20587);fill-opacity:1;fill-rule:nonzero;stroke:none"
     d="M 89.014282,0.1500005 H 6.985728 c -3.78699,0 -6.83573,3.048719 -6.83573,6.83571 V 89.014279 c 0,3.78699 3.04874,6.83572 6.83573,6.83572 h 82.028554 c 3.78699,0 6.83572,-3.04873 6.83572,-6.83572 V 6.9857105 c 0,-3.786991 -3.04873,-6.83571 -6.83572,-6.83571 z"
     id="path5696"
     inkscape:connector-curvature="0" />
  <g
     style="display:inline;fill:#364e59"
     transform="matrix(0.34960906,0,0,0.34960906,-148.10731,-124.73473)"
     id="g4043"
     inkscape:label="Layer 1" />
  <g
     inkscape:label="Layer 1"
     id="g4048"
     transform="matrix(0.34960906,0,0,0.34960906,-143.84249,-3.054996)"
     style="display:inline;fill:#804d00" />
  <path
     style="color:#000000;font-style:normal;font-variant:normal;font-weight:normal;font-stretch:normal;font-size:medium;line-height:normal;font-family:sans-serif;font-variant-ligatures:normal;font-variant-position:normal;font-variant-caps:normal;font-variant-numeric:normal;font-variant-alternates:normal;font-feature-settings:normal;text-indent:0;text-align:start;text-decoration:none;text-decoration-line:none;text-decoration-style:solid;text-decoration-color:#000000;letter-spacing:normal;word-spacing:normal;text-transform:none;writing-mode:lr-tb;direction:ltr;text-orientation:mixed;dominant-baseline:auto;baseline-shift:baseline;text-anchor:start;white-space:normal;shape-padding:0;clip-rule:nonzero;display:inline;overflow:visible;visibility:visible;opacity:1;isolation:auto;mix-blend-mode:normal;color-interpolation:sRGB;color-interpolation-filters:linearRGB;solid-color:#000000;solid-opacity:1;vector-effect:none;fill:none;fill-opacity:0.54074073;fill-rule:nonzero;stroke:#000000;stroke-width:1.3;stroke-linecap:round;stroke-linejoin:bevel;stroke-miterlimit:4;stroke-dasharray:none;stroke-dashoffset:0;stroke-opacity:0.35925925;paint-order:stroke fill markers;color-rendering:auto;image-rendering:auto;shape-rendering:auto;text-rendering:auto;enable-background:accumulate"
     d="m 83.624884,23.038235 -0.3837,0.700748 c -0.768375,1.402774 -1.53619,2.524222 -2.298599,3.386651 -0.733029,0.832644 -1.524912,1.488171 -2.383266,1.977948 -7.03e-4,4.02e-4 -0.0011,0.0014 -0.0018,0.0018 -0.829831,0.462029 -1.78577,0.800507 -2.866043,1.003386 -1.081158,0.179642 -2.346482,0.275616 -3.80638,0.275616 -1.077564,0 -2.036701,-0.05473 -2.864243,-0.156723 l -0.05765,-0.0072 h -0.02522 c -0.01698,-0.0028 -0.24967,-0.03617 -0.480976,-0.07206 -0.251059,-0.03878 -0.491365,-0.07509 -0.879088,-0.145914 h -0.0018 c -3.902747,-0.721231 -6.690329,0.293722 -8.475635,1.729353 -1.785601,1.435868 -2.589894,3.215728 -2.889463,4.015344 -0.09242,0.24568 -0.144112,0.417927 -0.144112,0.417927 l -8.066716,22.488805 -8.072119,-22.512223 -0.009,-0.02342 c -0.0058,-0.01754 -0.04969,-0.148801 -0.133304,-0.37109 h 0.0018 c -0.299567,-0.799617 -1.103861,-2.579476 -2.889462,-4.015344 -1.7856,-1.435867 -4.575482,-2.451273 -8.479238,-1.729354 h -0.0018 c -0.386738,0.07227 -0.622114,0.106174 -0.877286,0.145915 -0.231296,0.03587 -0.462985,0.06942 -0.477374,0.07206 h -0.02882 l -0.05585,0.0072 c -0.827536,0.101997 -1.788481,0.156722 -2.866043,0.156722 -1.460585,0 -2.724885,-0.09581 -3.80638,-0.275616 -1.079328,-0.200856 -2.031784,-0.541182 -2.864243,-1.005187 -0.859978,-0.49303 -1.654451,-1.148043 -2.385067,-1.977948 -0.739994,-0.839151 -1.487329,-1.943909 -2.233748,-3.291177 a 0.92241427,0.92241427 0 0 0 -1.068243,-0.567444 0.92241427,0.92241427 0 0 0 -0.0092,0.0018 0.92241427,0.92241427 0 0 0 -0.05765,0.01621 0.92241427,0.92241427 0 0 0 -0.06124,0.01981 0.92241427,0.92241427 0 0 0 -0.05764,0.02162 l -3.3290018,1.244774 0.3548726,0.877287 c 0.9437661,2.331533 1.9483592,4.345466 3.0209642,6.04193 4.8e-4,7.76e-4 9.23e-4,10e-4 0.0018,0.0018 1.052763,1.706839 2.24872,3.142706 3.59021,4.280151 l 0.0036,0.0036 0.0054,0.0036 c 1.345945,1.112908 2.859231,1.93442 4.525143,2.460726 1.66771,0.526874 3.523492,0.767401 5.564556,0.767401 1.373036,0 2.486501,-0.07012 3.48753,-0.189148 0.659055,0.323635 1.789203,1.717432 2.849831,3.955897 1.095113,2.311242 2.205552,5.390154 3.312794,8.735038 2.154247,6.507796 4.297479,13.932584 6.533715,19.064325 l -0.704351,1.057428 h 1.734758 10.089698 1.462746 l 0.244992,-0.544008 c 2.305658,-5.133629 4.505059,-12.875129 6.721061,-19.566918 1.108001,-3.345895 2.218844,-6.425683 3.314595,-8.736839 1.061579,-2.239085 2.193709,-3.632992 2.851632,-3.954096 1.000449,0.119101 2.112122,0.190949 3.485729,0.190949 2.039743,0 3.899352,-0.242925 5.566358,-0.767401 l 0.0018,-0.0018 c 1.666353,-0.526446 3.176349,-1.346638 4.52154,-2.458924 l 0.0036,-0.0036 0.0054,-0.0036 c 1.340551,-1.136647 2.536185,-2.571288 3.58841,-4.276549 1.075616,-1.697387 2.081975,-3.716316 3.026369,-6.047334 l 0.356679,-0.879088 z m -72.032992,2.249961 c 0.678247,1.151144 1.359849,2.239631 2.08063,3.056993 0.853415,0.969173 1.808387,1.761463 2.857037,2.361649 l 0.0054,0.0036 0.0036,0.0018 c 1.02233,0.570446 2.173627,0.979928 3.438892,1.21415 l 0.009,0.0018 h 0.0072 c 1.210476,0.201741 2.576474,0.300835 4.118024,0.300835 1.138488,0 2.170313,-0.05763 3.09122,-0.171134 l -0.111688,0.0072 h 0.05044 l 0.03423,-0.0018 c 0.229795,-0.01703 0.420158,-0.05644 0.648508,-0.09187 0.240895,-0.03752 0.512973,-0.07675 0.93133,-0.154921 3.462075,-0.64024 5.577001,0.219937 6.985869,1.352859 1.408867,1.132922 2.089383,2.614989 2.318415,3.226326 0.07778,0.20678 0.11529,0.320651 0.11529,0.320651 l 0.0036,0.01261 9.821288,27.388641 9.826693,-27.401251 0.0072,-0.02342 c 0,0 0.03018,-0.0997 0.104482,-0.297232 0.229031,-0.611337 0.909547,-2.093404 2.318415,-3.226326 1.408867,-1.132919 3.523794,-1.993096 6.985868,-1.352855 h 0.0018 c 0.411937,0.07528 0.680951,0.116524 0.929527,0.15492 0.217078,0.03368 0.404392,0.06839 0.619685,0.08647 0.01193,0.001 0.02212,0.0045 0.03423,0.0054 l 0.03423,0.0018 h 0.04504 c 0.894925,0.105272 1.881056,0.163929 2.977731,0.163929 1.541547,0 2.907543,-0.09909 4.118023,-0.300836 h 0.009 l 0.009,-0.0018 c 1.26286,-0.235967 2.418269,-0.642647 3.442494,-1.214151 l 0.0036,-0.0018 0.0036,-0.0018 c 1.051926,-0.599821 2.003066,-1.395474 2.855235,-2.36345 0.720742,-0.815452 1.39989,-1.900443 2.075225,-3.046185 l 0.866478,0.322453 c -0.790388,1.836248 -1.597155,3.558376 -2.449918,4.903437 l -0.0036,0.0054 -0.0036,0.0054 c -0.966294,1.567069 -2.039597,2.84494 -3.208312,3.837003 -1.167176,0.964694 -2.452532,1.662949 -3.900052,2.12026 -1.447312,0.455145 -3.11997,0.682735 -5.011524,0.682735 -1.474582,0 -2.678431,-0.06343 -3.617232,-0.194553 l -0.241389,-0.03243 -0.226978,0.08827 c -1.669923,0.663424 -2.758122,2.509124 -3.918067,4.955679 -1.159945,2.446556 -2.282062,5.573934 -3.399261,8.947605 -2.166889,6.543481 -4.318343,13.933262 -6.452651,18.846354 h -0.225 -9.448396 C 41.026841,64.870749 38.875697,57.475 36.708956,50.929463 35.592523,47.556814 34.470683,44.430129 33.311497,41.983659 32.15231,39.53719 31.064759,37.692683 29.397032,37.026178 l -0.226977,-0.09007 -0.243191,0.03243 c -0.938459,0.131083 -2.146252,0.194553 -3.620835,0.194553 -1.894967,0 -3.560958,-0.225602 -5.00792,-0.682735 -1.44665,-0.457029 -2.736256,-1.155731 -3.901855,-2.118452 -1.169403,-0.992278 -2.245128,-2.270939 -3.211914,-3.838805 l -0.0018,-0.0054 -0.0036,-0.0036 c -0.85118,-1.345181 -1.660087,-3.06662 -2.449964,-4.903483 z"
     id="path4622"
     inkscape:connector-curvature="0" />
  <path
     d="m 11.948493,24.065382 -2.4986533,0.933181 c 0.9291193,2.295341 1.9131263,4.26539 2.9499913,5.904048 1.010438,1.638658 2.146928,2.996752 3.403368,4.062084 1.25644,1.0389 2.659261,1.79927 4.216596,2.291274 1.557336,0.492004 3.317978,0.725807 5.285994,0.725807 1.500409,0 2.744651,-0.06302 3.74899,-0.203306 4.629309,1.850096 8.957725,22.776534 13.460986,32.813822 l -0.0081,0.0122 h 0.0122 10.090149 0.86609 c 4.505292,-10.031189 8.837775,-30.973891 13.469118,-32.813823 1.00434,0.140282 2.244514,0.203307 3.744924,0.203307 1.965983,0 3.732725,-0.235836 5.29006,-0.725807 1.557334,-0.492005 2.95609,-1.252374 4.21253,-2.291276 1.25644,-1.06533 2.39293,-2.423424 3.403366,-4.062082 1.038902,-1.638659 2.024942,-3.610741 2.954058,-5.904048 l -2.50068,-0.933182 c -0.7929,1.447549 -1.593932,2.6247 -2.415293,3.553815 -0.7929,0.900651 -1.665088,1.626459 -2.620635,2.171323 -0.929114,0.518434 -1.986312,0.89252 -3.161429,1.112092 -1.146655,0.191109 -2.464088,0.286664 -3.966528,0.286664 -1.108028,0 -2.104234,-0.0549 -2.978455,-0.162646 -0.0041,0 -0.0081,0 -0.0122,0 -0.111819,-0.0081 -0.34359,-0.04676 -0.579427,-0.08336 -0.250067,-0.03863 -0.504202,-0.07725 -0.904717,-0.150447 -7.365829,-1.362161 -9.807552,3.751023 -10.336151,5.161976 -0.08336,0.221605 -0.124017,0.357822 -0.124017,0.357822 l -8.949586,24.955986 -8.949594,-24.95599 c 0,0 -0.04472,-0.136216 -0.128084,-0.357821 -0.528599,-1.410954 -2.970322,-6.524137 -10.336151,-5.161977 -0.402548,0.07523 -0.656684,0.111819 -0.904717,0.150448 -0.235838,0.0366 -0.465574,0.07522 -0.575361,0.08336 -0.0041,0 -0.0122,0 -0.01626,0 -0.874222,0.107753 -1.870429,0.162647 -2.978454,0.162647 -1.502443,0 -2.819875,-0.09556 -3.966529,-0.286664 -1.175161,-0.217538 -2.228294,-0.593657 -3.157409,-1.112091 -0.955544,-0.546897 -1.8318,-1.270672 -2.624699,-2.171324 -0.819329,-0.929115 -1.622394,-2.106265 -2.415291,-3.553814"
     id="path29"
     inkscape:connector-curvature="0"
     style="fill-opacity:0.628;stroke-width:2.03307462" />
</svg>
