<?xml version="1.0" encoding="UTF-8" standalone="no"?>
<!-- Created with Inkscape (http://www.inkscape.org/) -->

<svg
   xmlns:dc="http://purl.org/dc/elements/1.1/"
   xmlns:cc="http://creativecommons.org/ns#"
   xmlns:rdf="http://www.w3.org/1999/02/22-rdf-syntax-ns#"
   xmlns:svg="http://www.w3.org/2000/svg"
   xmlns="http://www.w3.org/2000/svg"
   xmlns:xlink="http://www.w3.org/1999/xlink"
   xmlns:sodipodi="http://sodipodi.sourceforge.net/DTD/sodipodi-0.dtd"
   xmlns:inkscape="http://www.inkscape.org/namespaces/inkscape"
   width="96"
   height="96"
   id="svg2"
   version="1.1"
   inkscape:version="0.48.5 r10040"
   sodipodi:docname="start-here-korora.svg">
  <script
     xlink:href=""
     id="script2985" />
  <defs
     id="defs4">
    <linearGradient
       id="linearGradient4231-30">
      <stop
         style="stop-color:#bccffc;stop-opacity:0.99607843"
         offset="0"
         id="stop4233-8" />
      <stop
         style="stop-color:#f6f9fe;stop-opacity:1"
         offset="1"
         id="stop4235-2" />
    </linearGradient>
    <linearGradient
       id="linearGradient5700-9">
      <stop
         id="stop5702-6"
         offset="0"
         style="stop-color:#ffffff;stop-opacity:0;" />
      <stop
         style="stop-color:#ffffff;stop-opacity:0.85135138;"
         offset="0.03681535"
         id="stop5704-6" />
      <stop
         id="stop5706-4"
         offset="0.06506088"
         style="stop-color:#ffffff;stop-opacity:0;" />
      <stop
         style="stop-color:#ffffff;stop-opacity:0;"
         offset="0.94493848"
         id="stop5712-0" />
      <stop
         style="stop-color:#ffffff;stop-opacity:0.85135138;"
         offset="0.96582276"
         id="stop5710-1" />
      <stop
         id="stop5708-7"
         offset="1"
         style="stop-color:#ffffff;stop-opacity:0;" />
    </linearGradient>
    <linearGradient
       id="linearGradient4142-7">
      <stop
         id="stop4144-6"
         offset="0"
         style="stop-color:#0a47d6;stop-opacity:0.99607843" />
      <stop
         id="stop4146-6"
         offset="1"
         style="stop-color:#296aed;stop-opacity:1" />
    </linearGradient>
    <linearGradient
       id="linearGradient4091-0-3-0-7-0">
      <stop
         style="stop-color:#ffffff;stop-opacity:1;"
         offset="0"
         id="stop4093-3-6-4-2-5" />
      <stop
         id="stop4099-6-1-8-3-2"
         offset="0.80000001"
         style="stop-color:#ffffff;stop-opacity:1;" />
      <stop
         style="stop-color:#ffffff;stop-opacity:0;"
         offset="1"
         id="stop4095-1-0-7-9-7" />
    </linearGradient>
    <linearGradient
       id="linearGradient3832-0-6-1-1-0">
      <stop
         style="stop-color:#000000;stop-opacity:1;"
         offset="0"
         id="stop3834-6-3-7-1-2" />
      <stop
         id="stop3872-2-4-7"
         offset="0.1"
         style="stop-color:#000000;stop-opacity:0.58823532;" />
      <stop
         style="stop-color:#000000;stop-opacity:0.58823532;"
         offset="0.89999998"
         id="stop3844-6-2-7-6-3" />
      <stop
         style="stop-color:#000000;stop-opacity:1;"
         offset="1"
         id="stop3836-5-0-2-9-1" />
    </linearGradient>
    <linearGradient
       inkscape:collect="always"
       xlink:href="#linearGradient6139-0-0"
       id="linearGradient15935"
       gradientUnits="userSpaceOnUse"
       gradientTransform="matrix(1.1392856,0,0,1.1392855,-12.503893,-39.00097)"
       x1="6"
       y1="47.000011"
       x2="90"
       y2="47.000011" />
    <linearGradient
       id="linearGradient6139-0-0">
      <stop
         id="stop6141-2-9"
         offset="0"
         style="stop-color:#b7b7b7;stop-opacity:1;" />
      <stop
         style="stop-color:#ffffff;stop-opacity:1;"
         offset="0.25"
         id="stop6151-0-8" />
      <stop
         style="stop-color:#9d9d9d;stop-opacity:1;"
         offset="0.5"
         id="stop6147-1-4" />
      <stop
         id="stop6149-4-9"
         offset="0.75"
         style="stop-color:#fafafa;stop-opacity:1;" />
      <stop
         id="stop6143-4-8"
         offset="1"
         style="stop-color:#b7b7b7;stop-opacity:1;" />
    </linearGradient>
    <linearGradient
       id="linearGradient5700-9-2">
      <stop
         id="stop5702-6-5"
         offset="0"
         style="stop-color:#ffffff;stop-opacity:0;" />
      <stop
         style="stop-color:#ffffff;stop-opacity:0.85135138;"
         offset="0.03681535"
         id="stop5704-6-8" />
      <stop
         id="stop5706-4-1"
         offset="0.06506088"
         style="stop-color:#ffffff;stop-opacity:0;" />
      <stop
         style="stop-color:#ffffff;stop-opacity:0;"
         offset="0.94493848"
         id="stop5712-0-6" />
      <stop
         style="stop-color:#ffffff;stop-opacity:0.85135138;"
         offset="0.96582276"
         id="stop5710-1-7" />
      <stop
         id="stop5708-7-6"
         offset="1"
         style="stop-color:#ffffff;stop-opacity:0;" />
    </linearGradient>
    <linearGradient
       id="linearGradient5485">
      <stop
         style="stop-color:#4b5670;stop-opacity:1;"
         offset="0"
         id="stop5487" />
      <stop
         style="stop-color:#2b304a;stop-opacity:1;"
         offset="1"
         id="stop5489" />
    </linearGradient>
    <linearGradient
       id="linearGradient4091-0-3-0-7-0-9">
      <stop
         style="stop-color:#ffffff;stop-opacity:1;"
         offset="0"
         id="stop4093-3-6-4-2-5-0" />
      <stop
         id="stop4099-6-1-8-3-2-6"
         offset="0.80000001"
         style="stop-color:#ffffff;stop-opacity:1;" />
      <stop
         style="stop-color:#ffffff;stop-opacity:0;"
         offset="1"
         id="stop4095-1-0-7-9-7-0" />
    </linearGradient>
    <linearGradient
       id="linearGradient3832-0-6-1-1-0-5">
      <stop
         style="stop-color:#000000;stop-opacity:1;"
         offset="0"
         id="stop3834-6-3-7-1-2-7" />
      <stop
         id="stop3872-2-4-7-7"
         offset="0.1"
         style="stop-color:#000000;stop-opacity:0.58823532;" />
      <stop
         style="stop-color:#000000;stop-opacity:0.58823532;"
         offset="0.89999998"
         id="stop3844-6-2-7-6-3-7" />
      <stop
         style="stop-color:#000000;stop-opacity:1;"
         offset="1"
         id="stop3836-5-0-2-9-1-5" />
    </linearGradient>
    <linearGradient
       inkscape:collect="always"
       xlink:href="#linearGradient6139-0-0-9"
       id="linearGradient15935-0"
       gradientUnits="userSpaceOnUse"
       gradientTransform="matrix(1.1392856,0,0,1.1392855,-12.503893,-39.00097)"
       x1="6"
       y1="47.000011"
       x2="90"
       y2="47.000011" />
    <linearGradient
       id="linearGradient6139-0-0-9">
      <stop
         id="stop6141-2-9-3"
         offset="0"
         style="stop-color:#b7b7b7;stop-opacity:1;" />
      <stop
         style="stop-color:#ffffff;stop-opacity:1;"
         offset="0.25"
         id="stop6151-0-8-5" />
      <stop
         style="stop-color:#9d9d9d;stop-opacity:1;"
         offset="0.5"
         id="stop6147-1-4-1" />
      <stop
         id="stop6149-4-9-9"
         offset="0.75"
         style="stop-color:#fafafa;stop-opacity:1;" />
      <stop
         id="stop6143-4-8-5"
         offset="1"
         style="stop-color:#b7b7b7;stop-opacity:1;" />
    </linearGradient>
    <linearGradient
       id="linearGradient5700-9-5">
      <stop
         id="stop5702-6-1"
         offset="0"
         style="stop-color:#ffffff;stop-opacity:0;" />
      <stop
         style="stop-color:#ffffff;stop-opacity:0.85135138;"
         offset="0.03681535"
         id="stop5704-6-7" />
      <stop
         id="stop5706-4-3"
         offset="0.06506088"
         style="stop-color:#ffffff;stop-opacity:0;" />
      <stop
         style="stop-color:#ffffff;stop-opacity:0;"
         offset="0.94493848"
         id="stop5712-0-2" />
      <stop
         style="stop-color:#ffffff;stop-opacity:0.85135138;"
         offset="0.96582276"
         id="stop5710-1-5" />
      <stop
         id="stop5708-7-0"
         offset="1"
         style="stop-color:#ffffff;stop-opacity:0;" />
    </linearGradient>
    <linearGradient
       inkscape:collect="always"
       id="linearGradient3888-8-4-8-4-6-9-0-8-7-9-5">
      <stop
         style="stop-color:#ffffff;stop-opacity:1;"
         offset="0"
         id="stop3890-4-7-9-5-7-0-8-8-8-6-8" />
      <stop
         style="stop-color:#ffffff;stop-opacity:0;"
         offset="1"
         id="stop3892-5-8-2-8-3-3-3-06-4-4-7" />
    </linearGradient>
    <linearGradient
       inkscape:collect="always"
       id="linearGradient4254-1">
      <stop
         style="stop-color:#d2d8e6;stop-opacity:1"
         offset="0"
         id="stop4256-9" />
      <stop
         style="stop-color:#f9f9fb;stop-opacity:1"
         offset="1"
         id="stop4258-0" />
    </linearGradient>
    <linearGradient
       id="linearGradient5485-9">
      <stop
         style="stop-color:#4b5670;stop-opacity:1;"
         offset="0"
         id="stop5487-9" />
      <stop
         style="stop-color:#2b304a;stop-opacity:1;"
         offset="1"
         id="stop5489-2" />
    </linearGradient>
    <linearGradient
       inkscape:collect="always"
       id="linearGradient3888-8-4-8-6-7">
      <stop
         style="stop-color:#ffffff;stop-opacity:1;"
         offset="0"
         id="stop3890-4-7-9-7-0" />
      <stop
         style="stop-color:#ffffff;stop-opacity:0;"
         offset="1"
         id="stop3892-5-8-2-7-0" />
    </linearGradient>
    <linearGradient
       id="linearGradient4091-0-3-0-7-0-1">
      <stop
         style="stop-color:#ffffff;stop-opacity:1;"
         offset="0"
         id="stop4093-3-6-4-2-5-8" />
      <stop
         id="stop4099-6-1-8-3-2-4"
         offset="0.80000001"
         style="stop-color:#ffffff;stop-opacity:1;" />
      <stop
         style="stop-color:#ffffff;stop-opacity:0;"
         offset="1"
         id="stop4095-1-0-7-9-7-9" />
    </linearGradient>
    <linearGradient
       id="linearGradient3832-0-6-1-1-0-0">
      <stop
         style="stop-color:#000000;stop-opacity:1;"
         offset="0"
         id="stop3834-6-3-7-1-2-9" />
      <stop
         id="stop3872-2-4-7-9"
         offset="0.1"
         style="stop-color:#000000;stop-opacity:0.58823532;" />
      <stop
         style="stop-color:#000000;stop-opacity:0.58823532;"
         offset="0.89999998"
         id="stop3844-6-2-7-6-3-79" />
      <stop
         style="stop-color:#000000;stop-opacity:1;"
         offset="1"
         id="stop3836-5-0-2-9-1-4" />
    </linearGradient>
    <linearGradient
       inkscape:collect="always"
       xlink:href="#linearGradient6139-0-0-0"
       id="linearGradient15935-9"
       gradientUnits="userSpaceOnUse"
       gradientTransform="matrix(1.1392856,0,0,1.1392855,-12.503893,-39.00097)"
       x1="6"
       y1="47.000011"
       x2="90"
       y2="47.000011" />
    <linearGradient
       id="linearGradient6139-0-0-0">
      <stop
         id="stop6141-2-9-9"
         offset="0"
         style="stop-color:#b7b7b7;stop-opacity:1;" />
      <stop
         style="stop-color:#ffffff;stop-opacity:1;"
         offset="0.25"
         id="stop6151-0-8-4" />
      <stop
         style="stop-color:#9d9d9d;stop-opacity:1;"
         offset="0.5"
         id="stop6147-1-4-4" />
      <stop
         id="stop6149-4-9-8"
         offset="0.75"
         style="stop-color:#fafafa;stop-opacity:1;" />
      <stop
         id="stop6143-4-8-0"
         offset="1"
         style="stop-color:#b7b7b7;stop-opacity:1;" />
    </linearGradient>
    <linearGradient
       inkscape:collect="always"
       xlink:href="#linearGradient6139-0-0-0"
       id="linearGradient6482"
       gradientUnits="userSpaceOnUse"
       gradientTransform="matrix(1.1392856,0,0,1.1392855,-12.140257,-18.091878)"
       x1="6"
       y1="47.000011"
       x2="90"
       y2="47.000011" />
    <radialGradient
       inkscape:collect="always"
       xlink:href="#linearGradient3888-8-4-8-6-7"
       id="radialGradient6484"
       gradientUnits="userSpaceOnUse"
       gradientTransform="matrix(0,1.6209438,-2.0382846,0,160.66427,-243.03657)"
       cx="158"
       cy="6.2131939"
       fx="158"
       fy="6.2131939"
       r="41" />
    <radialGradient
       inkscape:collect="always"
       xlink:href="#linearGradient4091-0-3-0-7-0-1"
       id="radialGradient6486"
       gradientUnits="userSpaceOnUse"
       gradientTransform="matrix(-1.0721726,0,0,-0.87502024,199.46429,-19.125546)"
       cx="48"
       cy="-27"
       fx="48"
       fy="-27"
       r="42" />
    <linearGradient
       inkscape:collect="always"
       xlink:href="#linearGradient3832-0-6-1-1-0-0"
       id="linearGradient6488"
       gradientUnits="userSpaceOnUse"
       gradientTransform="matrix(1,0,0,0.88905855,200,8.9431737)"
       x1="-94"
       y1="82.984398"
       x2="-10.187523"
       y2="82.984398" />
    <radialGradient
       inkscape:collect="always"
       xlink:href="#linearGradient5485-9"
       id="radialGradient6490"
       gradientUnits="userSpaceOnUse"
       gradientTransform="matrix(1,0,0,0.83997953,0.36363645,22.253466)"
       cx="42.415188"
       cy="8.4012642"
       fx="42.415188"
       fy="8.4012642"
       r="45.211533" />
    <linearGradient
       inkscape:collect="always"
       xlink:href="#linearGradient4254-1"
       id="linearGradient6492"
       gradientUnits="userSpaceOnUse"
       x1="409.57144"
       y1="539.79797"
       x2="409.57144"
       y2="507.798" />
    <linearGradient
       inkscape:collect="always"
       xlink:href="#linearGradient3888-8-4-8-4-6-9-0-8-7-9-5"
       id="linearGradient6494"
       gradientUnits="userSpaceOnUse"
       gradientTransform="matrix(1.0034441,0,0,1.0049592,28.03476,28.927788)"
       x1="2.4652066"
       y1="0.27861649"
       x2="59.378193"
       y2="0.27861649" />
    <linearGradient
       inkscape:collect="always"
       xlink:href="#linearGradient5700-9-5"
       id="linearGradient6496"
       gradientUnits="userSpaceOnUse"
       gradientTransform="matrix(1.1392856,0,0,1.1392855,-12.140254,-18.091883)"
       x1="6"
       y1="47.000011"
       x2="90"
       y2="47.000011" />
    <linearGradient
       inkscape:collect="always"
       xlink:href="#linearGradient3888-8-4-8-4-6-9-0-8-7-9-5-7"
       id="linearGradient15947"
       gradientUnits="userSpaceOnUse"
       gradientTransform="matrix(1.0034441,0,0,1.0049592,6.2165777,-1.0722124)"
       x1="2.4652066"
       y1="0.27861649"
       x2="59.378193"
       y2="0.27861649" />
    <linearGradient
       inkscape:collect="always"
       id="linearGradient3888-8-4-8-4-6-9-0-8-7-9-5-7">
      <stop
         style="stop-color:#ffffff;stop-opacity:1;"
         offset="0"
         id="stop3890-4-7-9-5-7-0-8-8-8-6-8-2" />
      <stop
         style="stop-color:#ffffff;stop-opacity:0;"
         offset="1"
         id="stop3892-5-8-2-8-3-3-3-06-4-4-7-6" />
    </linearGradient>
    <linearGradient
       inkscape:collect="always"
       xlink:href="#linearGradient5700-9-26"
       id="linearGradient15945"
       gradientUnits="userSpaceOnUse"
       gradientTransform="matrix(1.1392856,0,0,1.1392855,-33.958437,-48.091883)"
       x1="6"
       y1="47.000011"
       x2="90"
       y2="47.000011" />
    <linearGradient
       id="linearGradient5700-9-26">
      <stop
         id="stop5702-6-2"
         offset="0"
         style="stop-color:#ffffff;stop-opacity:0;" />
      <stop
         style="stop-color:#ffffff;stop-opacity:0.85135138;"
         offset="0.03681535"
         id="stop5704-6-5" />
      <stop
         id="stop5706-4-7"
         offset="0.06506088"
         style="stop-color:#ffffff;stop-opacity:0;" />
      <stop
         style="stop-color:#ffffff;stop-opacity:0;"
         offset="0.94493848"
         id="stop5712-0-1" />
      <stop
         style="stop-color:#ffffff;stop-opacity:0.85135138;"
         offset="0.96582276"
         id="stop5710-1-70" />
      <stop
         id="stop5708-7-1"
         offset="1"
         style="stop-color:#ffffff;stop-opacity:0;" />
    </linearGradient>
    <linearGradient
       gradientUnits="userSpaceOnUse"
       y2="8.9999743"
       x2="25.013903"
       y1="38.999973"
       x1="25.013903"
       id="linearGradient4122-7"
       xlink:href="#linearGradient4124-9"
       inkscape:collect="always" />
    <linearGradient
       inkscape:collect="always"
       id="linearGradient4124-9">
      <stop
         style="stop-color:#c9ddef;stop-opacity:1"
         offset="0"
         id="stop4126-1" />
      <stop
         style="stop-color:#f7fafd;stop-opacity:1"
         offset="1"
         id="stop4128-9" />
    </linearGradient>
    <radialGradient
       inkscape:collect="always"
       xlink:href="#linearGradient15653"
       id="radialGradient15943"
       gradientUnits="userSpaceOnUse"
       gradientTransform="matrix(1.0034441,0,0,0.8428725,6.2165777,-1.0105094)"
       cx="14.693458"
       cy="0.38067999"
       fx="14.693458"
       fy="0.38067999"
       r="45.056355" />
    <linearGradient
       id="linearGradient15653">
      <stop
         style="stop-color:#22a7dc;stop-opacity:1;"
         offset="0"
         id="stop15655" />
      <stop
         style="stop-color:#1d73bb;stop-opacity:1;"
         offset="1"
         id="stop15657" />
    </linearGradient>
    <radialGradient
       inkscape:collect="always"
       xlink:href="#linearGradient3888-8-4-8-6-7-4"
       id="radialGradient15937"
       gradientUnits="userSpaceOnUse"
       gradientTransform="matrix(0,1.6209438,-2.0382846,0,160.66427,-243.03657)"
       cx="158"
       cy="6.2131939"
       fx="158"
       fy="6.2131939"
       r="41" />
    <linearGradient
       inkscape:collect="always"
       id="linearGradient3888-8-4-8-6-7-4">
      <stop
         style="stop-color:#ffffff;stop-opacity:1;"
         offset="0"
         id="stop3890-4-7-9-7-0-0" />
      <stop
         style="stop-color:#ffffff;stop-opacity:0;"
         offset="1"
         id="stop3892-5-8-2-7-0-4" />
    </linearGradient>
    <radialGradient
       inkscape:collect="always"
       xlink:href="#linearGradient4091-0-3-0-7-0-5"
       id="radialGradient15939"
       gradientUnits="userSpaceOnUse"
       gradientTransform="matrix(-1.0721726,0,0,-0.87502024,199.46429,-19.125546)"
       cx="48"
       cy="-27"
       fx="48"
       fy="-27"
       r="42" />
    <linearGradient
       id="linearGradient4091-0-3-0-7-0-5">
      <stop
         style="stop-color:#ffffff;stop-opacity:1;"
         offset="0"
         id="stop4093-3-6-4-2-5-9" />
      <stop
         id="stop4099-6-1-8-3-2-1"
         offset="0.80000001"
         style="stop-color:#ffffff;stop-opacity:1;" />
      <stop
         style="stop-color:#ffffff;stop-opacity:0;"
         offset="1"
         id="stop4095-1-0-7-9-7-6" />
    </linearGradient>
    <linearGradient
       inkscape:collect="always"
       xlink:href="#linearGradient3832-0-6-1-1-0-51"
       id="linearGradient15941"
       gradientUnits="userSpaceOnUse"
       gradientTransform="matrix(1,0,0,0.88905855,200,8.9431737)"
       x1="-94"
       y1="82.984398"
       x2="-10.187523"
       y2="82.984398" />
    <linearGradient
       id="linearGradient3832-0-6-1-1-0-51">
      <stop
         style="stop-color:#000000;stop-opacity:1;"
         offset="0"
         id="stop3834-6-3-7-1-2-74" />
      <stop
         id="stop3872-2-4-7-5"
         offset="0.1"
         style="stop-color:#000000;stop-opacity:0.58823532;" />
      <stop
         style="stop-color:#000000;stop-opacity:0.58823532;"
         offset="0.89999998"
         id="stop3844-6-2-7-6-3-3" />
      <stop
         style="stop-color:#000000;stop-opacity:1;"
         offset="1"
         id="stop3836-5-0-2-9-1-3" />
    </linearGradient>
    <linearGradient
       inkscape:collect="always"
       xlink:href="#linearGradient6139-0-0-2"
       id="linearGradient15935-7"
       gradientUnits="userSpaceOnUse"
       gradientTransform="matrix(1.1392856,0,0,1.1392855,-12.503893,-39.00097)"
       x1="6"
       y1="47.000011"
       x2="90"
       y2="47.000011" />
    <linearGradient
       id="linearGradient6139-0-0-2">
      <stop
         id="stop6141-2-9-4"
         offset="0"
         style="stop-color:#b7b7b7;stop-opacity:1;" />
      <stop
         style="stop-color:#ffffff;stop-opacity:1;"
         offset="0.25"
         id="stop6151-0-8-0" />
      <stop
         style="stop-color:#9d9d9d;stop-opacity:1;"
         offset="0.5"
         id="stop6147-1-4-2" />
      <stop
         id="stop6149-4-9-3"
         offset="0.75"
         style="stop-color:#fafafa;stop-opacity:1;" />
      <stop
         id="stop6143-4-8-4"
         offset="1"
         style="stop-color:#b7b7b7;stop-opacity:1;" />
    </linearGradient>
    <linearGradient
       y2="47.000011"
       x2="90"
       y1="47.000011"
       x1="6"
       gradientTransform="matrix(1.1392856,0,0,1.1392855,-33.958438,-48.091878)"
       gradientUnits="userSpaceOnUse"
       id="linearGradient6904"
       xlink:href="#linearGradient6139-0-0-2"
       inkscape:collect="always" />
    <linearGradient
       inkscape:collect="always"
       xlink:href="#linearGradient6139-0-0-2"
       id="linearGradient7074"
       gradientUnits="userSpaceOnUse"
       gradientTransform="matrix(1.1392856,0,0,1.1392855,-33.958438,-48.091878)"
       x1="6"
       y1="47.000011"
       x2="90"
       y2="47.000011" />
    <radialGradient
       inkscape:collect="always"
       xlink:href="#linearGradient3888-8-4-8-6-7-4"
       id="radialGradient7076"
       gradientUnits="userSpaceOnUse"
       gradientTransform="matrix(0,1.6209438,-2.0382846,0,160.66427,-243.03657)"
       cx="158"
       cy="6.2131939"
       fx="158"
       fy="6.2131939"
       r="41" />
    <radialGradient
       inkscape:collect="always"
       xlink:href="#linearGradient4091-0-3-0-7-0-5"
       id="radialGradient7078"
       gradientUnits="userSpaceOnUse"
       gradientTransform="matrix(-1.0721726,0,0,-0.87502024,199.46429,-19.125546)"
       cx="48"
       cy="-27"
       fx="48"
       fy="-27"
       r="42" />
    <linearGradient
       inkscape:collect="always"
       xlink:href="#linearGradient3832-0-6-1-1-0-51"
       id="linearGradient7080"
       gradientUnits="userSpaceOnUse"
       gradientTransform="matrix(1,0,0,0.88905855,200,8.9431737)"
       x1="-94"
       y1="82.984398"
       x2="-10.187523"
       y2="82.984398" />
    <radialGradient
       inkscape:collect="always"
       xlink:href="#linearGradient15653"
       id="radialGradient7082"
       gradientUnits="userSpaceOnUse"
       gradientTransform="matrix(1.0034441,0,0,0.8428725,6.2165777,-1.0105094)"
       cx="14.693458"
       cy="0.38067999"
       fx="14.693458"
       fy="0.38067999"
       r="45.056355" />
    <linearGradient
       inkscape:collect="always"
       xlink:href="#linearGradient4124-9"
       id="linearGradient7084"
       gradientUnits="userSpaceOnUse"
       x1="25.013903"
       y1="38.999973"
       x2="25.013903"
       y2="8.9999743" />
    <linearGradient
       inkscape:collect="always"
       xlink:href="#linearGradient5700-9-26"
       id="linearGradient7086"
       gradientUnits="userSpaceOnUse"
       gradientTransform="matrix(1.1392856,0,0,1.1392855,-33.958437,-48.091883)"
       x1="6"
       y1="47.000011"
       x2="90"
       y2="47.000011" />
    <linearGradient
       inkscape:collect="always"
       xlink:href="#linearGradient3888-8-4-8-4-6-9-0-8-7-9-5-7"
       id="linearGradient7088"
       gradientUnits="userSpaceOnUse"
       gradientTransform="matrix(1.0034441,0,0,1.0049592,6.2165777,-1.0722124)"
       x1="2.4652066"
       y1="0.27861649"
       x2="59.378193"
       y2="0.27861649" />
  </defs>
  <sodipodi:namedview
     id="base"
     pagecolor="#ffffff"
     bordercolor="#666666"
     borderopacity="1.0"
     inkscape:pageopacity="0.0"
     inkscape:pageshadow="2"
     inkscape:zoom="5.5"
     inkscape:cx="6.7272727"
     inkscape:cy="32"
     inkscape:current-layer="layer1"
     showgrid="true"
     inkscape:document-units="px"
     inkscape:grid-bbox="true"
     inkscape:showpageshadow="false"
     gridtolerance="1"
     guidetolerance="1"
     objecttolerance="1"
     inkscape:window-width="1280"
     inkscape:window-height="966"
     inkscape:window-x="0"
     inkscape:window-y="0"
     inkscape:window-maximized="1" />
  <metadata
     id="metadata7">
    <rdf:RDF>
      <cc:Work
         rdf:about="">
        <dc:format>image/svg+xml</dc:format>
        <dc:type
           rdf:resource="http://purl.org/dc/dcmitype/StillImage" />
        <dc:title></dc:title>
      </cc:Work>
    </rdf:RDF>
  </metadata>
  <g
     id="layer1"
     inkscape:label="Layer 1"
     inkscape:groupmode="layer"
     transform="translate(0,32)">
    <g
       id="g7047"
       transform="translate(27.272727,10.545454)">
      <path
         style="fill:url(#linearGradient7074);fill-opacity:1;fill-rule:nonzero;stroke:none;display:inline"
         d="m 61.741556,-42.395451 -82.028566,0 c -3.786986,0 -6.835714,3.048728 -6.835714,6.835712 l 0,82.028577 c 0,3.786985 3.048728,6.835712 6.835714,6.835712 l 82.028566,0 c 3.786986,0 6.835714,-3.048727 6.835714,-6.835712 l 0,-82.028577 c 0,-3.786984 -3.048728,-6.835712 -6.835714,-6.835712 z"
         id="rect4251-1"
         inkscape:connector-curvature="0" />
      <g
         id="g3272"
         transform="matrix(1.1392856,0,0,1.1392855,-147.887,-47.522243)">
        <path
           sodipodi:nodetypes="sscccsccscccsss"
           inkscape:connector-curvature="0"
           id="path3400-6"
           d="m 112,5.5 c -2.7873,0 -5,2.2127028 -5,5 l 0,20.71875 0,7 0,38.59375 c 1.07066,1.628779 2.89693,2.71875 5,2.71875 l 4,0 64,0 4,0 c 2.10307,0 3.92934,-1.089971 5,-2.71875 l 0,-38.59375 0,-7 L 189,10.5 c 0,-2.7872972 -2.2127,-5 -5,-5 z"
           style="opacity:0.2;fill:url(#radialGradient7076);fill-opacity:1;fill-rule:nonzero;stroke:none;display:inline" />
        <path
           inkscape:connector-curvature="0"
           id="path4236-5"
           d="m 112,4.5 c -3.324,0 -6,2.6759996 -6,6 l 0,15 1,0 0,-15 c 0,-2.7872972 2.2127,-5 5,-5 l 72,0 c 2.7873,0 5,2.2127028 5,5 l 0,15 1,0 0,-15 c 0,-3.3240004 -2.676,-6 -6,-6 l -72,0 z"
           style="opacity:0.45;fill:url(#radialGradient7078);fill-opacity:1;fill-rule:nonzero;stroke:none;display:inline" />
        <path
           style="opacity:0.46964859;fill:url(#linearGradient7080);fill-opacity:1;fill-rule:nonzero;stroke:none"
           d="m 106,76.942239 0,0.889058 0,0.889059 0,0.889059 0,1.778117 0,1.778117 c 0,2.95523 2.676,5.334351 6,5.334351 l 72,0 c 3.324,0 6,-2.379121 6,-5.334351 l 0,-1.778117 0,-1.778117 0,-0.889059 0,-0.889059 0,-0.889058 c 0,2.95523 -2.676,5.334351 -6,5.334351 l -72,0 c -3.324,0 -6,-2.379121 -6,-5.334351 z"
           id="path4242-5"
           inkscape:connector-curvature="0" />
      </g>
      <g
         transform="matrix(0.98961168,0,0,1.0555709,-30.360172,-39.825543)"
         id="g4021">
        <path
           sodipodi:type="arc"
           style="opacity:0.71000001;fill:#1c1c1c;fill-opacity:1;fill-rule:nonzero;stroke:none"
           id="path4002"
           sodipodi:cx="70.373131"
           sodipodi:cy="79.208954"
           sodipodi:rx="2.7910447"
           sodipodi:ry="2.7910447"
           d="m 73.164176,79.208954 c 0,1.541451 -1.249594,2.791045 -2.791045,2.791045 -1.541452,0 -2.791045,-1.249594 -2.791045,-2.791045 0,-1.541452 1.249593,-2.791045 2.791045,-2.791045 1.541451,0 2.791045,1.249593 2.791045,2.791045 z"
           transform="matrix(1.2467442,0,0,1.0633819,-54.589655,-6.556752)" />
        <path
           transform="matrix(1.0373872,0,0,0.91041754,-39.856546,5.3629056)"
           d="m 73.164176,79.208954 c 0,1.541451 -1.249594,2.791045 -2.791045,2.791045 -1.541452,0 -2.791045,-1.249594 -2.791045,-2.791045 0,-1.541452 1.249593,-2.791045 2.791045,-2.791045 1.541451,0 2.791045,1.249593 2.791045,2.791045 z"
           sodipodi:ry="2.7910447"
           sodipodi:rx="2.7910447"
           sodipodi:cy="79.208954"
           sodipodi:cx="70.373131"
           id="path3854"
           style="fill:#ffffff;fill-opacity:1;fill-rule:nonzero;stroke:none"
           sodipodi:type="arc" />
        <path
           sodipodi:type="arc"
           style="fill:#114751;fill-opacity:1;fill-rule:nonzero;stroke:none"
           id="path3856"
           sodipodi:cx="70.373131"
           sodipodi:cy="79.208954"
           sodipodi:rx="2.7910447"
           sodipodi:ry="2.7910447"
           d="m 73.164176,79.208954 c 0,1.541451 -1.249594,2.791045 -2.791045,2.791045 -1.541452,0 -2.791045,-1.249594 -2.791045,-2.791045 0,-1.541452 1.249593,-2.791045 2.791045,-2.791045 1.541451,0 2.791045,1.249593 2.791045,2.791045 z"
           transform="matrix(0.70316741,0,0,0.61710417,-16.33646,28.595951)" />
        <path
           transform="matrix(1.2467442,0,0,1.0633819,-20.11442,-6.556752)"
           d="m 73.164176,79.208954 c 0,1.541451 -1.249594,2.791045 -2.791045,2.791045 -1.541452,0 -2.791045,-1.249594 -2.791045,-2.791045 0,-1.541452 1.249593,-2.791045 2.791045,-2.791045 1.541451,0 2.791045,1.249593 2.791045,2.791045 z"
           sodipodi:ry="2.7910447"
           sodipodi:rx="2.7910447"
           sodipodi:cy="79.208954"
           sodipodi:cx="70.373131"
           id="path4170"
           style="opacity:0.71000001;fill:#1c1c1c;fill-opacity:1;fill-rule:nonzero;stroke:none"
           sodipodi:type="arc" />
        <path
           sodipodi:type="arc"
           style="fill:#ffffff;fill-opacity:1;fill-rule:nonzero;stroke:none"
           id="path4172"
           sodipodi:cx="70.373131"
           sodipodi:cy="79.208954"
           sodipodi:rx="2.7910447"
           sodipodi:ry="2.7910447"
           d="m 73.164176,79.208954 c 0,1.541451 -1.249594,2.791045 -2.791045,2.791045 -1.541452,0 -2.791045,-1.249594 -2.791045,-2.791045 0,-1.541452 1.249593,-2.791045 2.791045,-2.791045 1.541451,0 2.791045,1.249593 2.791045,2.791045 z"
           transform="matrix(1.0373872,0,0,0.91041754,-5.3813104,5.3629056)" />
        <path
           transform="matrix(0.70316741,0,0,0.61710417,18.138777,28.595951)"
           d="m 73.164176,79.208954 c 0,1.541451 -1.249594,2.791045 -2.791045,2.791045 -1.541452,0 -2.791045,-1.249594 -2.791045,-2.791045 0,-1.541452 1.249593,-2.791045 2.791045,-2.791045 1.541451,0 2.791045,1.249593 2.791045,2.791045 z"
           sodipodi:ry="2.7910447"
           sodipodi:rx="2.7910447"
           sodipodi:cy="79.208954"
           sodipodi:cx="70.373131"
           id="path4174"
           style="fill:#114751;fill-opacity:1;fill-rule:nonzero;stroke:none"
           sodipodi:type="arc" />
        <rect
           style="opacity:0.75097273;fill:#0c2f31;fill-opacity:0.90454544;stroke:#ffffff;stroke-width:0.49989974;stroke-miterlimit:4;stroke-opacity:1;stroke-dasharray:none"
           id="rect4176"
           width="12.674157"
           height="3.235955"
           x="40.44944"
           y="83.595505"
           transform="matrix(1.0139776,0,0,0.95205283,3.1886202,-2.9106418)"
           rx="1.1481457"
           ry="1.1481457" />
      </g>
      <path
         style="font-size:medium;font-style:normal;font-variant:normal;font-weight:normal;font-stretch:normal;text-indent:0;text-align:start;text-decoration:none;line-height:normal;letter-spacing:normal;word-spacing:normal;text-transform:none;direction:ltr;block-progression:tb;writing-mode:lr-tb;text-anchor:start;baseline-shift:baseline;opacity:0.02000002;color:#000000;fill:#000000;fill-opacity:1;fill-rule:nonzero;stroke:none;stroke-width:6;marker:none;visibility:visible;display:inline;overflow:visible;enable-background:accumulate;font-family:Sans;-inkscape-font-specification:Sans"
         d="m -19.491785,15.58611 c -1.885105,0 -3.649478,0.91815 -4.759107,2.271826 l 0,15.088982 c 0,2.404471 2.122562,4.340201 4.759107,4.340201 l 80.904853,0 c 2.636547,0 4.759108,-1.93573 4.759108,-4.340201 l 0,-15.088982 C 65.062548,16.50426 63.298175,15.58611 61.413068,15.58611 l -80.904853,0 z m 0,3.255152 80.904853,0 c 1.359429,0 2.379555,0.930333 2.379555,2.170101 l 0,11.935555 c 0,1.239769 -1.020126,2.170101 -2.379555,2.170101 l -80.904853,0 c -1.359426,0 -2.379553,-0.930332 -2.379553,-2.170101 l 0,-11.935555 c 0,-1.239768 1.020127,-2.170101 2.379553,-2.170101 z"
         id="path4972"
         inkscape:connector-curvature="0" />
      <path
         sodipodi:nodetypes="sssssssss"
         inkscape:connector-curvature="0"
         style="opacity:0.7311478;color:#000000;fill:url(#radialGradient7082);fill-opacity:1;fill-rule:nonzero;stroke:none;stroke-width:2;marker:none;visibility:visible;display:inline;overflow:visible;enable-background:accumulate"
         d="m -19.491785,-38.666407 80.904853,0 c 2.636547,0 4.759108,1.935729 4.759108,4.340203 l 0,67.273122 c 0,2.404471 -2.122561,4.340201 -4.759108,4.340201 l -80.904853,0 c -2.636545,0 -4.759107,-1.93573 -4.759107,-4.340201 l 0,-67.273122 c 0,-2.404474 2.122562,-4.340203 4.759107,-4.340203 z"
         id="path4970" />
      <g
         id="g6771"
         transform="matrix(1.9951049,0,0,1.9951049,-792.68833,-1046.5709)">
        <path
           inkscape:connector-curvature="0"
           style="fill:#000000;fill-opacity:0.05882353;stroke:none"
           d="m 412.57143,509.998 a 11.000001,11.000001 0 0 0 -10.66406,8.3418 11.000001,11.000001 0 0 0 -8.33594,10.6582 l 0,11 11,0 a 11.000001,11.000001 0 0 0 10.66406,-8.3418 11.000001,11.000001 0 0 0 8.33594,-10.6582 l 0,-11 -11,0 z m 0,1.57227 9.42773,0 0,9.42773 a 9.4285782,9.4285782 0 0 1 -6.4746,8.94141 11.000001,11.000001 0 0 0 0.0469,-0.94141 11.000001,11.000001 0 0 0 -11,-11 11.000001,11.000001 0 0 0 -0.94727,0.0469 9.4285782,9.4285782 0 0 1 8.94727,-6.47461 z m -8,8 a 9.4285782,9.4285782 0 0 1 9.42773,9.42773 9.4285782,9.4285782 0 0 1 -0.10546,1.32422 9.4285782,9.4285782 0 0 1 -1.32227,0.10351 9.4285782,9.4285782 0 0 1 -9.42773,-9.42773 9.4285782,9.4285782 0 0 1 0.10546,-1.32422 9.4285782,9.4285782 0 0 1 1.32227,-0.10351 z m -2.95312,0.48632 a 11.000001,11.000001 0 0 0 -0.0469,0.94141 11.000001,11.000001 0 0 0 11,11 11.000001,11.000001 0 0 0 0.94727,-0.0469 9.4285782,9.4285782 0 0 1 -8.94727,6.4746 l -9.42773,0 0,-9.42773 a 9.4285782,9.4285782 0 0 1 6.47461,-8.94141 z"
           id="path4136" />
        <path
           id="path4134"
           d="m 412.57143,509.598 a 11.000001,11.000001 0 0 0 -10.66406,8.3418 11.000001,11.000001 0 0 0 -8.33594,10.6582 l 0,11 11,0 a 11.000001,11.000001 0 0 0 10.66406,-8.3418 11.000001,11.000001 0 0 0 8.33594,-10.6582 l 0,-11 -11,0 z m 0,1.57227 9.42773,0 0,9.42773 a 9.4285782,9.4285782 0 0 1 -6.4746,8.94141 11.000001,11.000001 0 0 0 0.0469,-0.94141 11.000001,11.000001 0 0 0 -11,-11 11.000001,11.000001 0 0 0 -0.94727,0.0469 9.4285782,9.4285782 0 0 1 8.94727,-6.47461 z m -8,8 a 9.4285782,9.4285782 0 0 1 9.42773,9.42773 9.4285782,9.4285782 0 0 1 -0.10546,1.32422 9.4285782,9.4285782 0 0 1 -1.32227,0.10351 9.4285782,9.4285782 0 0 1 -9.42773,-9.42773 9.4285782,9.4285782 0 0 1 0.10546,-1.32422 9.4285782,9.4285782 0 0 1 1.32227,-0.10351 z m -2.95312,0.48632 a 11.000001,11.000001 0 0 0 -0.0469,0.94141 11.000001,11.000001 0 0 0 11,11 11.000001,11.000001 0 0 0 0.94727,-0.0469 9.4285782,9.4285782 0 0 1 -8.94727,6.4746 l -9.42773,0 0,-9.42773 a 9.4285782,9.4285782 0 0 1 6.47461,-8.94141 z"
           style="fill:#000000;fill-opacity:0.11764706;stroke:none"
           inkscape:connector-curvature="0" />
        <path
           inkscape:connector-curvature="0"
           style="fill:#000000;fill-opacity:0.23529412;stroke:none"
           d="m 412.57143,509.198 a 11.000001,11.000001 0 0 0 -10.66406,8.3418 11.000001,11.000001 0 0 0 -8.33594,10.6582 l 0,11 11,0 a 11.000001,11.000001 0 0 0 10.66406,-8.3418 11.000001,11.000001 0 0 0 8.33594,-10.6582 l 0,-11 -11,0 z m 0,1.57227 9.42773,0 0,9.42773 a 9.4285782,9.4285782 0 0 1 -6.4746,8.94141 11.000001,11.000001 0 0 0 0.0469,-0.94141 11.000001,11.000001 0 0 0 -11,-11 11.000001,11.000001 0 0 0 -0.94727,0.0469 9.4285782,9.4285782 0 0 1 8.94727,-6.47461 z m -8,8 a 9.4285782,9.4285782 0 0 1 9.42773,9.42773 9.4285782,9.4285782 0 0 1 -0.10546,1.32422 9.4285782,9.4285782 0 0 1 -1.32227,0.10351 9.4285782,9.4285782 0 0 1 -9.42773,-9.42773 9.4285782,9.4285782 0 0 1 0.10546,-1.32422 9.4285782,9.4285782 0 0 1 1.32227,-0.10351 z m -2.95312,0.48632 a 11.000001,11.000001 0 0 0 -0.0469,0.94141 11.000001,11.000001 0 0 0 11,11 11.000001,11.000001 0 0 0 0.94727,-0.0469 9.4285782,9.4285782 0 0 1 -8.94727,6.4746 l -9.42773,0 0,-9.42773 a 9.4285782,9.4285782 0 0 1 6.47461,-8.94141 z"
           id="path4130" />
        <path
           id="rect4108"
           transform="translate(384.57143,499.798)"
           d="M 28,9 A 11.000001,11.000001 0 0 0 17.335938,17.341797 11.000001,11.000001 0 0 0 9,28 l 0,11 11,0 A 11.000001,11.000001 0 0 0 30.664062,30.658203 11.000001,11.000001 0 0 0 39,20 L 39,9 28,9 z m 0,1.572266 9.427734,0 0,9.427734 A 9.4285782,9.4285782 0 0 1 30.953125,28.941406 11.000001,11.000001 0 0 0 31,28 11.000001,11.000001 0 0 0 20,17 11.000001,11.000001 0 0 0 19.052734,17.046875 9.4285782,9.4285782 0 0 1 28,10.572266 z m -8,8 A 9.4285782,9.4285782 0 0 1 29.427734,28 9.4285782,9.4285782 0 0 1 29.322266,29.324219 9.4285782,9.4285782 0 0 1 28,29.427734 9.4285782,9.4285782 0 0 1 18.572266,20 9.4285782,9.4285782 0 0 1 18.677734,18.675781 9.4285782,9.4285782 0 0 1 20,18.572266 z m -2.953125,0.486328 A 11.000001,11.000001 0 0 0 17,20 11.000001,11.000001 0 0 0 28,31 11.000001,11.000001 0 0 0 28.947266,30.953125 9.4285782,9.4285782 0 0 1 20,37.427734 l -9.427734,0 0,-9.427734 a 9.4285782,9.4285782 0 0 1 6.474609,-8.941406 z"
           style="fill:url(#linearGradient7084);fill-opacity:1;stroke:none"
           inkscape:connector-curvature="0" />
        <path
           id="path4138"
           transform="translate(384.57143,499.798)"
           d="M 28,9.7714844 A 9.4285782,9.4285782 0 0 0 19.052734,16.246094 11.000001,11.000001 0 0 1 19.369141,16.230469 9.4285782,9.4285782 0 0 1 28,10.572266 l 9.427734,0 0,-0.8007816 -9.427734,0 z m -8,7.9999996 a 9.4285782,9.4285782 0 0 0 -1.322266,0.103516 9.4285782,9.4285782 0 0 0 -0.105468,1.324219 9.4285782,9.4285782 0 0 0 0.01758,0.498047 9.4285782,9.4285782 0 0 1 0.08789,-1.021485 A 9.4285782,9.4285782 0 0 1 20,18.572266 9.4285782,9.4285782 0 0 1 29.410156,27.501953 9.4285782,9.4285782 0 0 0 29.427734,27.199219 9.4285782,9.4285782 0 0 0 20,17.771484 z m -2.953125,0.486328 a 9.4285782,9.4285782 0 0 0 -6.474609,8.941407 l 0,0.800781 a 9.4285782,9.4285782 0 0 1 6.433593,-8.927734 11.000001,11.000001 0 0 1 0.04102,-0.814454 z M 39,19.199219 A 11.000001,11.000001 0 0 1 30.664062,29.857422 11.000001,11.000001 0 0 1 20,38.199219 l -11,0 L 9,39 20,39 A 11.000001,11.000001 0 0 0 30.664062,30.658203 11.000001,11.000001 0 0 0 39,20 l 0,-0.800781 z m -21.980469,0.40039 A 11.000001,11.000001 0 0 0 17,20 11.000001,11.000001 0 0 0 28,31 11.000001,11.000001 0 0 0 28.632812,30.96875 9.4285782,9.4285782 0 0 0 28.947266,30.152344 11.000001,11.000001 0 0 1 28,30.199219 11.000001,11.000001 0 0 1 17.019531,19.599609 z m 13.960938,8 a 11.000001,11.000001 0 0 1 -0.02734,0.541016 9.4285782,9.4285782 0 0 0 0.04102,-0.01367 A 11.000001,11.000001 0 0 0 31,28 11.000001,11.000001 0 0 0 30.980469,27.599609 z"
           style="fill:#326ea2;fill-opacity:0.31372549;stroke:none"
           inkscape:connector-curvature="0" />
        <path
           id="path4143"
           transform="translate(384.57143,499.798)"
           d="M 28,9 A 11.000001,11.000001 0 0 0 17.335938,17.341797 11.000001,11.000001 0 0 0 9,28 l 0,0.400391 A 11.000001,11.000001 0 0 1 17.335938,17.742188 11.000001,11.000001 0 0 1 28,9.4003906 l 11,0 L 39,9 28,9 z m -8,8 A 11.000001,11.000001 0 0 0 19.210938,17.03906 9.4285782,9.4285782 0 0 0 19.052734,17.447264 11.000001,11.000001 0 0 1 20,17.400391 11.000001,11.000001 0 0 1 30.990234,28.201172 11.000001,11.000001 0 0 0 31,28 11.000001,11.000001 0 0 0 20,17 z m -2.953125,2.458984 a 9.4285782,9.4285782 0 0 0 -0.01953,0.0078 A 11.000001,11.000001 0 0 0 17,20 a 11.000001,11.000001 0 0 0 0.0098,0.199219 11.000001,11.000001 0 0 1 0.03711,-0.740235 z M 37.427734,20 a 9.4285782,9.4285782 0 0 1 -6.455078,8.933594 11.000001,11.000001 0 0 1 -0.01953,0.408203 9.4285782,9.4285782 0 0 0 6.474609,-8.941406 l 0,-0.400391 z m -18.847656,0.25 a 9.4285782,9.4285782 0 0 0 -0.0078,0.150391 A 9.4285782,9.4285782 0 0 0 28,29.828125 a 9.4285782,9.4285782 0 0 0 1.322266,-0.103516 9.4285782,9.4285782 0 0 0 0.105468,-1.324218 9.4285782,9.4285782 0 0 0 -0.0078,-0.25 9.4285782,9.4285782 0 0 1 -0.09766,1.173828 A 9.4285782,9.4285782 0 0 1 28,29.427734 9.4285782,9.4285782 0 0 1 18.580078,20.25 z m 10.367188,11.103516 a 11.000001,11.000001 0 0 1 -0.158204,0.0078 A 9.4285782,9.4285782 0 0 1 20,37.427734 l -9.427734,0 0,0.400391 9.427734,0 a 9.4285782,9.4285782 0 0 0 8.947266,-6.474609 z"
           style="fill:#ffffff;fill-opacity:0.23529412;stroke:none"
           inkscape:connector-curvature="0" />
      </g>
      <path
         id="path4989"
         d="m -18.547627,-37.865209 79.016539,0 c 2.575009,0 4.648031,1.891243 4.648031,4.240455 l 0,65.727034 c 0,2.349214 -2.073022,4.240455 -4.648031,4.240455 l -79.016539,0 c -2.575009,0 -4.648031,-1.891241 -4.648031,-4.240455 l 0,-65.727034 c 0,-2.349212 2.073022,-4.240455 4.648031,-4.240455 z"
         style="color:#000000;fill:none;stroke:#000000;stroke-width:2.29036617;stroke-opacity:0.7758007;marker:none;visibility:visible;display:inline;overflow:visible;enable-background:accumulate"
         inkscape:connector-curvature="0"
         sodipodi:nodetypes="sssssssss" />
      <path
         inkscape:connector-curvature="0"
         id="path5696"
         d="m 61.741553,-42.395453 -82.02855,0 c -3.78699,0 -6.83573,3.04872 -6.83573,6.83571 l 0,82.02857 c 0,3.78699 3.04874,6.83572 6.83573,6.83572 l 82.02855,0 c 3.78699,0 6.83572,-3.04873 6.83572,-6.83572 l 0,-82.02857 c 0,-3.78699 -3.04873,-6.83571 -6.83572,-6.83571 z"
         style="opacity:0.72794118;fill:url(#linearGradient7086);fill-opacity:1;fill-rule:nonzero;stroke:none;display:inline" />
      <path
         style="opacity:0.30882353;color:#000000;fill:url(#linearGradient7088);fill-opacity:1;fill-rule:nonzero;stroke:none;stroke-width:2;marker:none;visibility:visible;display:inline;overflow:visible;enable-background:accumulate"
         d="M 8.6902747,-38.768977 C 17.019671,-12.584938 25.674982,12.982291 34.456253,37.18455 l 26.583944,0 c 2.636535,0 4.759079,-1.93573 4.759079,-4.340201 l 0,-67.273123 c 0,-2.404473 -2.122544,-4.340203 -4.759079,-4.340203 l -52.3499223,0 z"
         id="path4974"
         inkscape:connector-curvature="0" />
    </g>
  </g>
</svg>
