<?xml version="1.0" encoding="UTF-8" standalone="no"?>
<!-- Created with Inkscape (http://www.inkscape.org/) -->

<svg
   xmlns:dc="http://purl.org/dc/elements/1.1/"
   xmlns:cc="http://creativecommons.org/ns#"
   xmlns:rdf="http://www.w3.org/1999/02/22-rdf-syntax-ns#"
   xmlns:svg="http://www.w3.org/2000/svg"
   xmlns="http://www.w3.org/2000/svg"
   xmlns:xlink="http://www.w3.org/1999/xlink"
   xmlns:sodipodi="http://sodipodi.sourceforge.net/DTD/sodipodi-0.dtd"
   xmlns:inkscape="http://www.inkscape.org/namespaces/inkscape"
   width="96"
   height="96"
   id="svg2"
   version="1.1"
   inkscape:version="0.48.5 r10040"
   sodipodi:docname="folder-development.svg">
  <script
     xlink:href=""
     id="script2985" />
  <defs
     id="defs4">
    <radialGradient
       inkscape:collect="always"
       xlink:href="#linearGradient3872"
       id="radialGradient3883"
       gradientUnits="userSpaceOnUse"
       cx="48"
       cy="46.50005"
       fx="48"
       fy="46.50005"
       r="42.150002" />
    <linearGradient
       id="linearGradient3872">
      <stop
         style="stop-color:#e28929;stop-opacity:1;"
         offset="0"
         id="stop3874" />
      <stop
         id="stop3880"
         offset="1"
         style="stop-color:#ca7414;stop-opacity:1;" />
    </linearGradient>
    <radialGradient
       inkscape:collect="always"
       xlink:href="#linearGradient3904"
       id="radialGradient3885"
       gradientUnits="userSpaceOnUse"
       gradientTransform="matrix(1.6991473,0.00433809,-9.9578932e-5,0.01373135,-31.241655,-184.99247)"
       cx="44.658661"
       cy="-187.51126"
       fx="44.658661"
       fy="-187.51126"
       r="36.915546" />
    <linearGradient
       inkscape:collect="always"
       id="linearGradient3904">
      <stop
         style="stop-color:#ffffff;stop-opacity:1;"
         offset="0"
         id="stop3906" />
      <stop
         style="stop-color:#ffffff;stop-opacity:0;"
         offset="1"
         id="stop3908" />
    </linearGradient>
    <radialGradient
       inkscape:collect="always"
       xlink:href="#linearGradient3414"
       id="radialGradient3882"
       cx="48.308414"
       cy="46.87989"
       fx="48.308414"
       fy="46.87989"
       r="47.087845"
       gradientTransform="matrix(1,0,0,0.79447305,0,9.6350811)"
       gradientUnits="userSpaceOnUse" />
    <linearGradient
       id="linearGradient3414">
      <stop
         style="stop-color:#e28929;stop-opacity:1;"
         offset="0"
         id="stop3416" />
      <stop
         id="stop3418"
         offset="1"
         style="stop-color:#ca7414;stop-opacity:1;" />
    </linearGradient>
    <linearGradient
       inkscape:collect="always"
       xlink:href="#linearGradient3832"
       id="linearGradient3889"
       gradientUnits="userSpaceOnUse"
       gradientTransform="matrix(1.1232873,0,0,1.0563239,-5.6093769,-3.1660074)"
       x1="6.0759845"
       y1="47.472744"
       x2="89.924011"
       y2="47.472744" />
    <linearGradient
       id="linearGradient3832">
      <stop
         style="stop-color:#d8d8d8;stop-opacity:0;"
         offset="0"
         id="stop3834" />
      <stop
         id="stop3842"
         offset="0.05"
         style="stop-color:#ffffff;stop-opacity:1;" />
      <stop
         style="stop-color:#d8d8d8;stop-opacity:0;"
         offset="0.1"
         id="stop3846" />
      <stop
         id="stop3840"
         offset="0.5"
         style="stop-color:#d8d8d8;stop-opacity:0;" />
      <stop
         style="stop-color:#d8d8d8;stop-opacity:0;"
         offset="0.89999998"
         id="stop3844" />
      <stop
         id="stop3848"
         offset="0.94999999"
         style="stop-color:#ffffff;stop-opacity:1;" />
      <stop
         style="stop-color:#d8d8d8;stop-opacity:0;"
         offset="1"
         id="stop3836" />
    </linearGradient>
    <filter
       color-interpolation-filters="sRGB"
       inkscape:collect="always"
       id="filter4139">
      <feGaussianBlur
         inkscape:collect="always"
         stdDeviation="0.79365079"
         id="feGaussianBlur4141" />
    </filter>
    <linearGradient
       inkscape:collect="always"
       xlink:href="#linearGradient4188"
       id="linearGradient3891"
       gradientUnits="userSpaceOnUse"
       gradientTransform="translate(0,-2)"
       x1="6.25"
       y1="80.625"
       x2="89.75"
       y2="80.625" />
    <linearGradient
       id="linearGradient4188">
      <stop
         style="stop-color:#ffffff;stop-opacity:0;"
         offset="0"
         id="stop4190" />
      <stop
         id="stop4198"
         offset="0.15000001"
         style="stop-color:#ffffff;stop-opacity:1;" />
      <stop
         id="stop4196"
         offset="0.85000002"
         style="stop-color:#ffffff;stop-opacity:1;" />
      <stop
         style="stop-color:#ffffff;stop-opacity:0;"
         offset="1"
         id="stop4192" />
    </linearGradient>
    <linearGradient
       inkscape:collect="always"
       xlink:href="#linearGradient3298"
       id="linearGradient3893"
       gradientUnits="userSpaceOnUse"
       x1="1.1209135"
       y1="84.062775"
       x2="95.495911"
       y2="84.062775" />
    <linearGradient
       id="linearGradient3298">
      <stop
         style="stop-color:#000000;stop-opacity:1;"
         offset="0"
         id="stop3300" />
      <stop
         id="stop3302"
         offset="0.05"
         style="stop-color:#ffffff;stop-opacity:1;" />
      <stop
         style="stop-color:#000000;stop-opacity:1;"
         offset="0.1"
         id="stop3304" />
      <stop
         id="stop3306"
         offset="0.5"
         style="stop-color:#000000;stop-opacity:0.49803922;" />
      <stop
         style="stop-color:#000000;stop-opacity:1;"
         offset="0.89999998"
         id="stop3308" />
      <stop
         id="stop3310"
         offset="0.94999999"
         style="stop-color:#ffffff;stop-opacity:1;" />
      <stop
         style="stop-color:#000000;stop-opacity:1;"
         offset="1"
         id="stop3312" />
    </linearGradient>
    <linearGradient
       gradientTransform="translate(-0.19243203,-0.08446595)"
       y2="34.832417"
       x2="22.635189"
       y1="59.74646"
       x1="44.725632"
       gradientUnits="userSpaceOnUse"
       id="linearGradient3391"
       xlink:href="#linearGradient4125"
       inkscape:collect="always" />
    <linearGradient
       inkscape:collect="always"
       id="linearGradient4125">
      <stop
         style="stop-color:#ffffff;stop-opacity:1;"
         offset="0"
         id="stop4127" />
      <stop
         style="stop-color:#ffffff;stop-opacity:0;"
         offset="1"
         id="stop4129" />
    </linearGradient>
    <linearGradient
       y2="34.832417"
       x2="22.635189"
       y1="59.74646"
       x1="44.725632"
       gradientTransform="translate(-0.19243203,-0.08446595)"
       gradientUnits="userSpaceOnUse"
       id="linearGradient3477"
       xlink:href="#linearGradient4125"
       inkscape:collect="always" />
  </defs>
  <sodipodi:namedview
     id="base"
     pagecolor="#ffffff"
     bordercolor="#666666"
     borderopacity="1.0"
     inkscape:pageopacity="0.0"
     inkscape:pageshadow="2"
     inkscape:zoom="0.6875"
     inkscape:cx="25.651684"
     inkscape:cy="23.831367"
     inkscape:current-layer="g3367"
     showgrid="true"
     inkscape:document-units="px"
     inkscape:grid-bbox="true"
     inkscape:showpageshadow="false"
     gridtolerance="1"
     guidetolerance="1"
     objecttolerance="1"
     inkscape:window-width="1280"
     inkscape:window-height="966"
     inkscape:window-x="0"
     inkscape:window-y="0"
     inkscape:window-maximized="1"
     showguides="true"
     inkscape:guide-bbox="true" />
  <metadata
     id="metadata7">
    <rdf:RDF>
      <cc:Work
         rdf:about="">
        <dc:format>image/svg+xml</dc:format>
        <dc:type
           rdf:resource="http://purl.org/dc/dcmitype/StillImage" />
        <dc:title></dc:title>
      </cc:Work>
    </rdf:RDF>
  </metadata>
  <g
     id="layer1"
     inkscape:label="Layer 1"
     inkscape:groupmode="layer"
     transform="translate(0,32)">
    <g
       transform="matrix(0.9926597,0,0,0.98120132,0.04618485,-26.11477)"
       style="enable-background:new"
       id="g3367">
      <path
         style="opacity:0.15;fill:#000000;fill-opacity:1;fill-rule:nonzero;stroke:none;display:inline"
         d="m 89.755505,-5.9979838 -82.8941827,0 c -3.8269481,0 -6.9078485,3.1168788 -6.9078485,6.98851783 l 0,83.86221397 c 0,3.871639 3.0809004,6.988517 6.9078485,6.988517 l 82.8941827,0 c 3.826948,0 6.907848,-3.116878 6.907848,-6.988517 l 0,-83.86221397 c 0,-3.87163903 -3.0809,-6.98851783 -6.907848,-6.98851783 z"
         id="path3897"
         inkscape:connector-curvature="0" />
      <path
         inkscape:connector-curvature="0"
         id="path3895"
         d="m 89.323764,-5.4884044 -82.0307014,0 c -3.7870841,0 -6.8358918,3.0844114 -6.8358918,6.9157208 l 0,82.9886496 c 0,3.831309 3.0488077,6.91572 6.8358918,6.91572 l 82.0307014,0 c 3.787084,0 6.835892,-3.084411 6.835892,-6.91572 l 0,-82.9886496 c 0,-3.8313094 -3.048808,-6.9157208 -6.835892,-6.9157208 z"
         style="opacity:0.25;fill:#000000;fill-opacity:1;fill-rule:nonzero;stroke:none;display:inline" />
      <path
         style="fill:url(#radialGradient3883);fill-opacity:1;fill-rule:nonzero;stroke:#6f5327;stroke-width:0.30000001;stroke-miterlimit:4;stroke-opacity:1;stroke-dasharray:none;display:inline"
         d="m 84,4.50005 -72,0 c -3.324,0 -6,2.676 -6,6 l 0,72 c 0,3.324 2.676,6 6,6 l 72,0 c 3.324,0 6,-2.676 6,-6 l 0,-72 c 0,-3.324 -2.676,-6 -6,-6 z"
         id="rect2419-1"
         inkscape:connector-curvature="0"
         transform="matrix(1.1232873,0,0,1.1364669,-5.609377,-9.9241271)" />
      <g
         id="g4855"
         transform="matrix(0,-1.1066901,1.1232873,0,-1.1162278,204.44378)">
        <path
           sodipodi:nodetypes="sssssssss"
           inkscape:connector-curvature="0"
           id="path4843"
           d="m 117.21875,6.0978533 c -3.921,0 -7.125,3.2039995 -7.125,7.1250017 l 0,60.5625 c 0,3.921001 3.204,7.125 7.125,7.125 l 61.5625,0 c 3.921,0 7.125,-3.203999 7.125,-7.125 l 0,-60.5625 c 0,-3.9210022 -3.204,-7.1250017 -7.125,-7.1250017 z"
           style="font-size:medium;font-style:normal;font-variant:normal;font-weight:normal;font-stretch:normal;text-indent:0;text-align:start;text-decoration:none;line-height:normal;letter-spacing:normal;word-spacing:normal;text-transform:none;direction:ltr;block-progression:tb;writing-mode:lr-tb;text-anchor:start;baseline-shift:baseline;opacity:0.13718411;color:#000000;fill:#000000;fill-opacity:1;fill-rule:nonzero;stroke:none;stroke-width:2;marker:none;visibility:visible;display:inline;overflow:visible;enable-background:accumulate;font-family:Sans;-inkscape-font-specification:Sans" />
        <path
           style="font-size:medium;font-style:normal;font-variant:normal;font-weight:normal;font-stretch:normal;text-indent:0;text-align:start;text-decoration:none;line-height:normal;letter-spacing:normal;word-spacing:normal;text-transform:none;direction:ltr;block-progression:tb;writing-mode:lr-tb;text-anchor:start;baseline-shift:baseline;opacity:0.24548735;color:#000000;fill:#000000;fill-opacity:1;fill-rule:nonzero;stroke:none;stroke-width:2;marker:none;visibility:visible;display:inline;overflow:visible;enable-background:accumulate;font-family:Sans;-inkscape-font-specification:Sans"
           d="m 117.21875,6.8132616 c -3.37935,0 -6.125,2.745652 -6.125,6.1250004 l 0,61.5625 c 0,3.379348 2.74565,6.125 6.125,6.125 l 61.5625,0 c 3.37935,0 6.125,-2.745652 6.125,-6.125 l 0,-61.5625 c 0,-3.3793484 -2.74565,-6.1250004 -6.125,-6.1250004 z"
           id="path4849"
           inkscape:connector-curvature="0"
           sodipodi:nodetypes="sssssssss" />
        <path
           style="fill:#f9fff5;fill-opacity:1;fill-rule:nonzero;stroke:#b4b4b4;stroke-width:0.43740079;stroke-miterlimit:4;stroke-opacity:1;stroke-dasharray:none;display:inline"
           d="m 183.704,12.924914 c 0,-2.842793 -2.24202,-5.1189045 -5.02625,-5.1189045 l -30.72224,0 c 2.78423,0 5.02625,2.2761115 5.02625,5.1189045 l 0,61.59377 c 0,2.842793 -2.24202,5.118904 -5.02625,5.118904 l 30.72224,0 c 2.78423,0 5.02625,-2.276111 5.02625,-5.118904 l 0,-61.59377 z"
           id="path4046"
           inkscape:connector-curvature="0" />
        <path
           inkscape:connector-curvature="0"
           id="path4815"
           d="m 115.70813,79.153964 0,1 c 0.26183,2.593688 2.46002,4.59375 5.125,4.59375 l 61.5625,0 c 2.66498,0 4.86317,-2.000062 5.125,-4.59375 l 0,-1 c -0.26183,2.593688 -2.46002,4.59375 -5.125,4.59375 l -61.5625,0 c -2.66498,0 -4.86317,-2.000062 -5.125,-4.59375 z"
           style="opacity:0.4;fill:#ffffff;fill-opacity:1;fill-rule:nonzero;stroke:none;display:inline" />
        <path
           inkscape:connector-curvature="0"
           id="path4820"
           d="m 116.6875,7.8132616 c -2.59369,0.2618304 -4.59375,2.4600194 -4.59375,5.1250004 l 0,0.46875 c 0.26183,-2.593688 2.46002,-4.5937504 5.125,-4.5937504 l 61.5625,0 c 2.66498,0 4.86317,2.0000624 5.125,4.5937504 l 0,-0.46875 c 0,-2.842646 -2.28235,-5.1250004 -5.125,-5.1250004 l -61.5625,0 c -0.17767,0 -0.35834,-0.017455 -0.53125,0 z"
           style="opacity:0.5;fill:#ffffff;fill-opacity:1;fill-rule:nonzero;stroke:none;display:inline" />
        <path
           style="opacity:0.4;fill:#ffffff;fill-opacity:1;fill-rule:nonzero;stroke:none;display:inline"
           d="m 115.70813,8.642517 0,-1 c 0.26183,-2.593688 2.46002,-4.59375 5.125,-4.59375 l 61.5625,0 c 2.66498,0 4.86317,2.000062 5.125,4.59375 l 0,1 c -0.26183,-2.593688 -2.46002,-4.59375 -5.125,-4.59375 l -61.5625,0 c -2.66498,0 -4.86317,2.000062 -5.125,4.59375 z"
           id="path3896"
           inkscape:connector-curvature="0" />
        <rect
           style="opacity:0.42599278;fill:url(#radialGradient3885);fill-opacity:1;stroke:none"
           id="rect3902"
           width="73.831093"
           height="0.90709358"
           x="7.7431121"
           y="-187.82706"
           transform="matrix(0,1,-1,0,0,0)" />
        <path
           inkscape:connector-curvature="0"
           id="path3899"
           d="m 183.73251,12.934304 c 0,-2.842793 -2.24202,-5.1189033 -5.02625,-5.1189033 l -5.42158,0 c 2.78424,0 5.02625,2.2761103 5.02625,5.1189033 l 0,61.593771 c 0,2.842793 -2.24201,5.118904 -5.02625,5.118904 l 5.42158,0 c 2.78423,0 5.02625,-2.276111 5.02625,-5.118904 l 0,-61.593771 z"
           style="fill:#e9ffdb;fill-opacity:1;fill-rule:nonzero;stroke:#b4b4b4;stroke-width:0.43740079;stroke-miterlimit:4;stroke-opacity:1;stroke-dasharray:none;display:inline" />
        <path
           style="fill:#ffecfe;fill-opacity:1;fill-rule:nonzero;stroke:#b4b4b4;stroke-width:0.43733743;stroke-miterlimit:4;stroke-opacity:1;stroke-dasharray:none;display:inline"
           d="m 180.04889,12.895838 c 0,-2.84197 -2.24202,-5.1174216 -5.02625,-5.1174216 l -5.42158,0 c 2.78424,0 5.02625,2.2754516 5.02625,5.1174216 l 0,61.575928 c 0,2.84197 -2.24201,5.117422 -5.02625,5.117422 l 5.42158,0 c 2.78423,0 5.02625,-2.275452 5.02625,-5.117422 l 0,-61.575928 z"
           id="path3086"
           inkscape:connector-curvature="0" />
        <path
           inkscape:connector-curvature="0"
           id="path4810"
           d="m 127.61761,73.032012 0,1.46875 c 0,2.842646 1.78897,5.125 4.01712,5.125 l 48.2544,0 c 2.22815,0 4.01712,-2.282354 4.01712,-5.125 l 0,-1.46875 c -0.20523,2.593688 -1.92823,4.59375 -4.01712,4.59375 l -48.2544,0 c -2.08888,0 -3.81189,-2.000062 -4.01712,-4.59375 z"
           style="opacity:0.1;fill:#000000;fill-opacity:1;fill-rule:nonzero;stroke:none;display:inline" />
        <path
           style="opacity:0.1;fill:#000000;fill-opacity:1;fill-rule:nonzero;stroke:none;display:inline"
           d="m 112.09375,13.747703 0,-1.46875 c 0,-2.8426464 2.28235,-5.1250008 5.125,-5.1250008 l 61.5625,0 c 2.84265,0 5.125,2.2823544 5.125,5.1250008 l 0,1.46875 c -0.26183,-2.593688 -2.46002,-4.5937504 -5.125,-4.5937504 l -61.5625,0 c -2.66498,0 -4.86317,2.0000624 -5.125,4.5937504 z"
           id="path3898"
           inkscape:connector-curvature="0" />
      </g>
      <path
         sodipodi:nodetypes="ssssssccssss"
         inkscape:connector-curvature="0"
         id="path4187"
         d="m 1.3749267,78.81332 c 0,2.948521 3.0632689,5.322238 6.8683145,5.322238 l 80.1303458,0 c 3.805047,0 6.868313,-2.373717 6.868313,-5.322238 l 0,-54.996459 c 0,-2.94852 -3.063266,-5.322238 -6.868313,-5.322238 l -43.713966,0 -4.721965,-6.098396 C 38.777266,10.736876 36.508074,9.6242265 33.892108,9.6242265 l -25.6488668,0 c -3.8050456,0 -6.8683145,2.3737185 -6.8683145,5.3222375 z"
         style="fill:url(#radialGradient3882);fill-opacity:1.0;fill-rule:nonzero;stroke:#6f5327;stroke-width:0.30871602999999997;stroke-miterlimit:4;stroke-opacity:1;stroke-dasharray:none;display:inline" />
      <rect
         style="opacity:0.76727270999999997;fill:#ffffff;fill-opacity:0.77959186;stroke:none"
         id="rect7857"
         width="14.505742"
         height="53.459431"
         x="40.362328"
         y="23.968748"
         rx="2.7846849"
         ry="2.2987792" />
      <path
         style="fill:#0b0b0b;fill-opacity:0.6122449;stroke:#ffffff;stroke-opacity:0.70612246000000001;stroke-width:0.59478341000000001;stroke-miterlimit:4;stroke-dasharray:none"
         d="m 39.742699,23.986127 0.03148,6.114952 -0.03148,0 0.03148,6.114953 -0.03148,0 0.314811,41.785511 c 0.700053,-0.0057 1.371109,-0.02585 2.014789,-0.03185 4.94069,-0.04266 8.266283,-0.06275 10.451719,-0.09555 6.74856,-0.101294 2.738854,-0.159244 2.738854,-0.159244 l 0,-41.498872 0,-6.114953 0,-6.114952 -4.564757,0 0,3.057476 -3.053665,0 0,3.057476 -3.053665,0 0,-3.057476 3.053665,0 0,-3.057476 -7.901751,0 z m 7.901751,6.146801 3.053665,0 0,3.025628 -3.053665,0 0,3.057476 -3.053665,0 0,-3.057476 3.053665,0 0,-3.025628 z m 0,6.114953 3.053665,0 0,3.025628 -3.053665,0 0,3.089325 3.053665,0 0,3.089325 -3.053665,0 0,3.089325 3.053665,0 0,3.057476 -3.053665,0 0,3.089325 3.053665,0 0,3.089325 -3.053665,0 0,-3.089325 -3.053665,0 0,-3.089325 3.053665,0 0,-3.057476 -3.053665,0 0,-3.089325 3.053665,0 0,-3.089325 -3.053665,0 0,-3.089325 3.053665,0 0,-3.025628 z m -3.053665,23.058468 6.10733,0 0,10.796713 -6.10733,0 0,-10.796713 z m 1.542573,6.083104 0,3.089325 3.053665,0 0,-3.089325 -3.053665,0 z"
         id="path7849"
         inkscape:connector-curvature="0" />
      <path
         style="opacity:0.53793102;fill:url(#linearGradient3889);fill-opacity:1;fill-rule:nonzero;stroke:none;display:inline"
         d="m 1.3749271,78.934919 c 0,2.950451 3.0632691,5.325721 6.8683146,5.325721 l 80.1303413,0 c 3.805048,0 6.868315,-2.37527 6.868315,-5.325721 l 0,-55.032462 c 0,-2.95045 -3.063267,-5.325722 -6.868315,-5.325722 l -43.713962,0 -4.721965,-6.102389 C 38.777265,10.81391 36.508073,9.700532 33.892108,9.700532 l -25.6488663,0 c -3.8050455,0 -6.8683146,2.375272 -6.8683146,5.325722 z"
         id="path3262"
         inkscape:connector-curvature="0"
         sodipodi:nodetypes="ssssssccssss" />
      <path
         inkscape:connector-curvature="0"
         style="opacity:0.33064515;fill:#fffafa;fill-opacity:1;fill-rule:nonzero;stroke:none;display:inline;filter:url(#filter4139)"
         d="M 10.4375,12 C 6.8702763,12 4,14.307107 4,17.15625 l 0,61.6875 C 4,81.692893 6.8702763,84 10.4375,84 l 75.125,0 C 89.129721,84 92,81.692893 92,78.84375 l 0,-53.125 C 92,22.869608 89.129721,20.5625 85.5625,20.5625 l -43,-0.21875 L 38.59375,15.125 C 37.505888,13.521573 36.952461,12 34.5,12 L 10.4375,12 z M 33.75,13.875 c 1.448641,-0.0075 1.875677,-0.06824 3.375,2.40625 L 40.90625,22 83.84375,22.09375 C 87.248825,22.09375 90,24.246643 90,26.9375 l 0,50.21875 C 90,79.847107 87.248825,82 83.84375,82 l -71.6875,0 C 8.7511736,82 6,79.847107 6,77.15625 L 6,18.84375 C 6,16.152893 8.7512194,14.017581 12.15625,14 L 33.75,13.875 z"
         id="path4118"
         transform="matrix(1.02968,0,0,0.96729457,-1.1162274,0.48739751)" />
      <path
         style="opacity:0.82758622;fill:url(#linearGradient3891);fill-opacity:1;fill-rule:nonzero;stroke:none;display:inline"
         d="m 6.25,74.8125 0,2 c 0,3.130208 2.7403394,5.625 6.125,5.625 l 71.25,0 c 3.384661,0 6.125,-2.494792 6.125,-5.625 l 0,-2 c 0,3.130208 -2.740339,5.625 -6.125,5.625 l -71.25,0 c -3.3846606,0 -6.125,-2.494792 -6.125,-5.625 z"
         id="path4045"
         inkscape:connector-curvature="0"
         transform="matrix(1.1232873,0,0,1.1364669,-5.609377,-9.9241271)" />
      <path
         inkscape:connector-curvature="0"
         id="path4114"
         d="m 7.2584059,81.296392 81.4831881,0 0,0 0,0"
         style="opacity:0.375;fill:none;stroke:#000000;stroke-width:1.6902343px;stroke-linecap:butt;stroke-linejoin:miter;stroke-opacity:1"
         transform="matrix(1.02968,0,0,1.0413642,-1.1162274,-5.9178784)" />
      <path
         style="opacity:0.43500001;fill:none;stroke:#ffffff;stroke-width:1.6902343px;stroke-linecap:butt;stroke-linejoin:miter;stroke-opacity:1"
         d="m 7.2584059,80.496883 81.4831881,0 0,0 0,0"
         id="path4110"
         inkscape:connector-curvature="0"
         transform="matrix(1.02968,0,0,1.0413642,-1.1162274,-5.9178784)" />
      <path
         style="opacity:0.375;fill:none;stroke:#000000;stroke-width:1.6902343px;stroke-linecap:butt;stroke-linejoin:miter;stroke-opacity:1"
         d="m 7.2584059,77.296392 81.4831881,0 0,0 0,0"
         id="path4116"
         inkscape:connector-curvature="0"
         transform="matrix(1.02968,0,0,1.0413642,-1.1162274,-5.9178784)" />
      <path
         inkscape:connector-curvature="0"
         id="path4112"
         d="m 7.2584059,76.496883 81.4831881,0 0,0 0,0"
         style="opacity:0.43500001;fill:none;stroke:#ffffff;stroke-width:1.6902343px;stroke-linecap:butt;stroke-linejoin:miter;stroke-opacity:1"
         transform="matrix(1.02968,0,0,1.0413642,-1.1162274,-5.9178784)" />
      <path
         style="opacity:0.3;fill:#000000;fill-opacity:1;fill-rule:nonzero;stroke:none;display:inline"
         d="m 1.1209135,77.503906 0,6.357295 c 0,3.748748 3.0161931,6.76044 6.7500001,6.76044 l 80.8749994,0 c 3.733807,0 6.75,-3.011692 6.75,-6.76044 l 0,-6.357295 c 0,3.748748 -3.016193,6.791451 -6.75,6.791451 l -80.8749994,0 c -3.733807,0 -6.7500001,-3.042703 -6.7500001,-6.791451 z"
         id="path3871"
         inkscape:connector-curvature="0" />
      <path
         inkscape:connector-curvature="0"
         id="path3876"
         d="m 1.1209135,77.503906 0,6.357295 c 0,3.748748 3.0161931,6.76044 6.7500001,6.76044 l 80.8749994,0 c 3.733807,0 6.75,-3.011692 6.75,-6.76044 l 0,-6.357295 c 0,3.748748 -3.016193,6.791451 -6.75,6.791451 l -80.8749994,0 c -3.733807,0 -6.7500001,-3.042703 -6.7500001,-6.791451 z"
         style="opacity:0.5;fill:url(#linearGradient3893);fill-opacity:1;fill-rule:nonzero;stroke:none;display:inline" />
      <path
         sodipodi:nodetypes="sccccssss"
         inkscape:connector-curvature="0"
         id="path3355"
         d="m 1.182495,78.850453 c 0,2.950448 3.063269,5.325718 6.8683151,5.325718 C 58.018175,43.383802 47.512494,51.455316 88.181152,18.492269 l -43.713963,0 -4.721964,-6.102389 C 38.584834,10.729443 36.315641,9.6160662 33.699676,9.6160662 l -25.6488659,0 c -3.8050461,0 -6.8683151,2.3752718 -6.8683151,5.3257218 z"
         style="opacity:0.29861109;fill:url(#linearGradient3477);fill-opacity:1;fill-rule:nonzero;stroke:none;display:inline;enable-background:new" />
    </g>
  </g>
</svg>
