<?xml version="1.0" encoding="UTF-8" standalone="no"?>
<!-- Created with Inkscape (http://www.inkscape.org/) -->

<svg
   xmlns:dc="http://purl.org/dc/elements/1.1/"
   xmlns:cc="http://creativecommons.org/ns#"
   xmlns:rdf="http://www.w3.org/1999/02/22-rdf-syntax-ns#"
   xmlns:svg="http://www.w3.org/2000/svg"
   xmlns="http://www.w3.org/2000/svg"
   xmlns:xlink="http://www.w3.org/1999/xlink"
   xmlns:sodipodi="http://sodipodi.sourceforge.net/DTD/sodipodi-0.dtd"
   xmlns:inkscape="http://www.inkscape.org/namespaces/inkscape"
   width="96"
   height="96"
   id="svg2"
   version="1.1"
   inkscape:version="0.48.5 r10040"
   sodipodi:docname="distributor-logo-manjaro.svg">
  <script
     xlink:href=""
     id="script2985" />
  <defs
     id="defs4">
    <linearGradient
       id="linearGradient5700-9">
      <stop
         id="stop5702-6"
         offset="0"
         style="stop-color:#ffffff;stop-opacity:0;" />
      <stop
         style="stop-color:#ffffff;stop-opacity:0.85135138;"
         offset="0.03681535"
         id="stop5704-6" />
      <stop
         id="stop5706-4"
         offset="0.06506088"
         style="stop-color:#ffffff;stop-opacity:0;" />
      <stop
         style="stop-color:#ffffff;stop-opacity:0;"
         offset="0.94493848"
         id="stop5712-0" />
      <stop
         style="stop-color:#ffffff;stop-opacity:0.85135138;"
         offset="0.96582276"
         id="stop5710-1" />
      <stop
         id="stop5708-7"
         offset="1"
         style="stop-color:#ffffff;stop-opacity:0;" />
    </linearGradient>
    <linearGradient
       inkscape:collect="always"
       id="linearGradient3888-8-4-8-4-6-9-0-8-7-9-5">
      <stop
         style="stop-color:#ffffff;stop-opacity:1;"
         offset="0"
         id="stop3890-4-7-9-5-7-0-8-8-8-6-8" />
      <stop
         style="stop-color:#ffffff;stop-opacity:0;"
         offset="1"
         id="stop3892-5-8-2-8-3-3-3-06-4-4-7" />
    </linearGradient>
    <linearGradient
       id="linearGradient4266">
      <stop
         offset="0"
         style="stop-color:#47761a;stop-opacity:1"
         id="stop4268" />
      <stop
         offset="1"
         style="stop-color:#61a224;stop-opacity:1"
         id="stop4270" />
    </linearGradient>
    <linearGradient
       inkscape:collect="always"
       id="linearGradient3888-8-4-8-6-7">
      <stop
         style="stop-color:#ffffff;stop-opacity:1;"
         offset="0"
         id="stop3890-4-7-9-7-0" />
      <stop
         style="stop-color:#ffffff;stop-opacity:0;"
         offset="1"
         id="stop3892-5-8-2-7-0" />
    </linearGradient>
    <linearGradient
       id="linearGradient4091-0-3-0-7-0">
      <stop
         style="stop-color:#ffffff;stop-opacity:1;"
         offset="0"
         id="stop4093-3-6-4-2-5" />
      <stop
         id="stop4099-6-1-8-3-2"
         offset="0.80000001"
         style="stop-color:#ffffff;stop-opacity:1;" />
      <stop
         style="stop-color:#ffffff;stop-opacity:0;"
         offset="1"
         id="stop4095-1-0-7-9-7" />
    </linearGradient>
    <linearGradient
       id="linearGradient3832-0-6-1-1-0">
      <stop
         style="stop-color:#000000;stop-opacity:1;"
         offset="0"
         id="stop3834-6-3-7-1-2" />
      <stop
         id="stop3872-2-4-7"
         offset="0.1"
         style="stop-color:#000000;stop-opacity:0.58823532;" />
      <stop
         style="stop-color:#000000;stop-opacity:0.58823532;"
         offset="0.89999998"
         id="stop3844-6-2-7-6-3" />
      <stop
         style="stop-color:#000000;stop-opacity:1;"
         offset="1"
         id="stop3836-5-0-2-9-1" />
    </linearGradient>
    <linearGradient
       gradientTransform="matrix(1.1353753,0,0,1.1336634,-40.037124,-46.787637)"
       y2="47.000011"
       x2="90"
       y1="47.000011"
       x1="6"
       gradientUnits="userSpaceOnUse"
       id="linearGradient5021-2"
       xlink:href="#linearGradient6139-0-0"
       inkscape:collect="always" />
    <linearGradient
       id="linearGradient6139-0-0">
      <stop
         id="stop6141-2-9"
         offset="0"
         style="stop-color:#b7b7b7;stop-opacity:1;" />
      <stop
         style="stop-color:#ffffff;stop-opacity:1;"
         offset="0.25"
         id="stop6151-0-8" />
      <stop
         style="stop-color:#9d9d9d;stop-opacity:1;"
         offset="0.5"
         id="stop6147-1-4" />
      <stop
         id="stop6149-4-9"
         offset="0.75"
         style="stop-color:#fafafa;stop-opacity:1;" />
      <stop
         id="stop6143-4-8"
         offset="1"
         style="stop-color:#b7b7b7;stop-opacity:1;" />
    </linearGradient>
    <linearGradient
       inkscape:collect="always"
       xlink:href="#linearGradient6139-0-0"
       id="linearGradient5633"
       gradientUnits="userSpaceOnUse"
       gradientTransform="matrix(1.1392856,0,0,1.1392855,-14.86753,-23.728246)"
       x1="6"
       y1="47.000011"
       x2="90"
       y2="47.000011" />
    <radialGradient
       inkscape:collect="always"
       xlink:href="#linearGradient3888-8-4-8-6-7"
       id="radialGradient5635"
       gradientUnits="userSpaceOnUse"
       gradientTransform="matrix(0,1.6209438,-2.0382846,0,160.66427,-243.03657)"
       cx="158"
       cy="6.2131939"
       fx="158"
       fy="6.2131939"
       r="41" />
    <radialGradient
       inkscape:collect="always"
       xlink:href="#linearGradient4091-0-3-0-7-0"
       id="radialGradient5637"
       gradientUnits="userSpaceOnUse"
       gradientTransform="matrix(-1.0721726,0,0,-0.87502024,199.46429,-19.125546)"
       cx="48"
       cy="-27"
       fx="48"
       fy="-27"
       r="42" />
    <linearGradient
       inkscape:collect="always"
       xlink:href="#linearGradient3832-0-6-1-1-0"
       id="linearGradient5639"
       gradientUnits="userSpaceOnUse"
       gradientTransform="matrix(1,0,0,0.88905855,200,8.9431737)"
       x1="-94"
       y1="82.984398"
       x2="-10.187523"
       y2="82.984398" />
    <radialGradient
       inkscape:collect="always"
       xlink:href="#linearGradient4266"
       id="radialGradient5641"
       gradientUnits="userSpaceOnUse"
       gradientTransform="matrix(1.0034441,0,0,0.8428725,25.307486,23.353123)"
       cx="14.693458"
       cy="0.38067999"
       fx="14.693458"
       fy="0.38067999"
       r="45.056355" />
    <linearGradient
       inkscape:collect="always"
       xlink:href="#linearGradient3888-8-4-8-4-6-9-0-8-7-9-5"
       id="linearGradient5643"
       gradientUnits="userSpaceOnUse"
       gradientTransform="matrix(1.0034441,0,0,1.0049592,25.307486,23.29142)"
       x1="2.4652066"
       y1="0.27861649"
       x2="59.378193"
       y2="0.27861649" />
    <linearGradient
       inkscape:collect="always"
       xlink:href="#linearGradient5700-9"
       id="linearGradient5645"
       gradientUnits="userSpaceOnUse"
       gradientTransform="matrix(1.1392856,0,0,1.1392855,-14.867526,-23.728246)"
       x1="6"
       y1="47.000011"
       x2="90"
       y2="47.000011" />
    <linearGradient
       inkscape:collect="always"
       xlink:href="#linearGradient5700-9-3"
       id="linearGradient5698"
       gradientUnits="userSpaceOnUse"
       gradientTransform="matrix(1.1392856,0,0,1.1392855,-26.685708,-24.455519)"
       x1="6"
       y1="47.000011"
       x2="90"
       y2="47.000011" />
    <linearGradient
       id="linearGradient5700-9-3">
      <stop
         id="stop5702-6-7"
         offset="0"
         style="stop-color:#ffffff;stop-opacity:0;" />
      <stop
         style="stop-color:#ffffff;stop-opacity:0.85135138;"
         offset="0.03681535"
         id="stop5704-6-9" />
      <stop
         id="stop5706-4-3"
         offset="0.06506088"
         style="stop-color:#ffffff;stop-opacity:0;" />
      <stop
         style="stop-color:#ffffff;stop-opacity:0;"
         offset="0.94493848"
         id="stop5712-0-2" />
      <stop
         style="stop-color:#ffffff;stop-opacity:0.85135138;"
         offset="0.96582276"
         id="stop5710-1-1" />
      <stop
         id="stop5708-7-3"
         offset="1"
         style="stop-color:#ffffff;stop-opacity:0;" />
    </linearGradient>
    <linearGradient
       gradientTransform="matrix(1.0034441,0,0,1.0049592,13.489305,22.564147)"
       y2="0.27861649"
       x2="59.378193"
       y1="0.27861649"
       x1="2.4652066"
       gradientUnits="userSpaceOnUse"
       id="linearGradient12593"
       xlink:href="#linearGradient3888-8-4-8-4-6-9-0-8-7-9-5-5"
       inkscape:collect="always" />
    <linearGradient
       inkscape:collect="always"
       id="linearGradient3888-8-4-8-4-6-9-0-8-7-9-5-5">
      <stop
         style="stop-color:#ffffff;stop-opacity:1;"
         offset="0"
         id="stop3890-4-7-9-5-7-0-8-8-8-6-8-3" />
      <stop
         style="stop-color:#ffffff;stop-opacity:0;"
         offset="1"
         id="stop3892-5-8-2-8-3-3-3-06-4-4-7-2" />
    </linearGradient>
    <radialGradient
       inkscape:collect="always"
       xlink:href="#linearGradient3888-8-4-8-6-7-0"
       id="radialGradient3114"
       gradientUnits="userSpaceOnUse"
       gradientTransform="matrix(0,1.6209438,-2.0382846,0,160.66427,-243.03657)"
       cx="158"
       cy="6.2131939"
       fx="158"
       fy="6.2131939"
       r="41" />
    <linearGradient
       inkscape:collect="always"
       id="linearGradient3888-8-4-8-6-7-0">
      <stop
         style="stop-color:#ffffff;stop-opacity:1;"
         offset="0"
         id="stop3890-4-7-9-7-0-0" />
      <stop
         style="stop-color:#ffffff;stop-opacity:0;"
         offset="1"
         id="stop3892-5-8-2-7-0-3" />
    </linearGradient>
    <radialGradient
       inkscape:collect="always"
       xlink:href="#linearGradient4091-0-3-0-7-0-1"
       id="radialGradient3118"
       gradientUnits="userSpaceOnUse"
       gradientTransform="matrix(-1.0721726,0,0,-0.87502024,199.46429,-19.125546)"
       cx="48"
       cy="-27"
       fx="48"
       fy="-27"
       r="42" />
    <linearGradient
       id="linearGradient4091-0-3-0-7-0-1">
      <stop
         style="stop-color:#ffffff;stop-opacity:1;"
         offset="0"
         id="stop4093-3-6-4-2-5-4" />
      <stop
         id="stop4099-6-1-8-3-2-8"
         offset="0.80000001"
         style="stop-color:#ffffff;stop-opacity:1;" />
      <stop
         style="stop-color:#ffffff;stop-opacity:0;"
         offset="1"
         id="stop4095-1-0-7-9-7-2" />
    </linearGradient>
    <linearGradient
       inkscape:collect="always"
       xlink:href="#linearGradient3832-0-6-1-1-0-5"
       id="linearGradient3120"
       gradientUnits="userSpaceOnUse"
       gradientTransform="matrix(1,0,0,0.88905855,200,8.9431737)"
       x1="-94"
       y1="82.984398"
       x2="-10.187523"
       y2="82.984398" />
    <linearGradient
       id="linearGradient3832-0-6-1-1-0-5">
      <stop
         style="stop-color:#000000;stop-opacity:1;"
         offset="0"
         id="stop3834-6-3-7-1-2-1" />
      <stop
         id="stop3872-2-4-7-1"
         offset="0.1"
         style="stop-color:#000000;stop-opacity:0.58823532;" />
      <stop
         style="stop-color:#000000;stop-opacity:0.58823532;"
         offset="0.89999998"
         id="stop3844-6-2-7-6-3-8" />
      <stop
         style="stop-color:#000000;stop-opacity:1;"
         offset="1"
         id="stop3836-5-0-2-9-1-2" />
    </linearGradient>
    <linearGradient
       gradientTransform="matrix(1.1353753,0,0,1.1336634,-40.037124,-46.787637)"
       y2="47.000011"
       x2="90"
       y1="47.000011"
       x1="6"
       gradientUnits="userSpaceOnUse"
       id="linearGradient5021-2-0"
       xlink:href="#linearGradient6139-0-0-2"
       inkscape:collect="always" />
    <linearGradient
       id="linearGradient6139-0-0-2">
      <stop
         id="stop6141-2-9-8"
         offset="0"
         style="stop-color:#b7b7b7;stop-opacity:1;" />
      <stop
         style="stop-color:#ffffff;stop-opacity:1;"
         offset="0.25"
         id="stop6151-0-8-1" />
      <stop
         style="stop-color:#9d9d9d;stop-opacity:1;"
         offset="0.5"
         id="stop6147-1-4-2" />
      <stop
         id="stop6149-4-9-0"
         offset="0.75"
         style="stop-color:#fafafa;stop-opacity:1;" />
      <stop
         id="stop6143-4-8-0"
         offset="1"
         style="stop-color:#b7b7b7;stop-opacity:1;" />
    </linearGradient>
    <linearGradient
       y2="47.000011"
       x2="90"
       y1="47.000011"
       x1="6"
       gradientTransform="matrix(1.1392856,0,0,1.1392855,-26.685712,-24.455519)"
       gradientUnits="userSpaceOnUse"
       id="linearGradient6019"
       xlink:href="#linearGradient6139-0-0-2"
       inkscape:collect="always" />
    <linearGradient
       inkscape:collect="always"
       xlink:href="#linearGradient6139-0-0-2"
       id="linearGradient6161"
       gradientUnits="userSpaceOnUse"
       gradientTransform="matrix(1.1392856,0,0,1.1392855,-26.685712,-24.455519)"
       x1="6"
       y1="47.000011"
       x2="90"
       y2="47.000011" />
    <radialGradient
       inkscape:collect="always"
       xlink:href="#linearGradient3888-8-4-8-6-7-0"
       id="radialGradient6163"
       gradientUnits="userSpaceOnUse"
       gradientTransform="matrix(0,1.6209438,-2.0382846,0,160.66427,-243.03657)"
       cx="158"
       cy="6.2131939"
       fx="158"
       fy="6.2131939"
       r="41" />
    <radialGradient
       inkscape:collect="always"
       xlink:href="#linearGradient4091-0-3-0-7-0-1"
       id="radialGradient6165"
       gradientUnits="userSpaceOnUse"
       gradientTransform="matrix(-1.0721726,0,0,-0.87502024,199.46429,-19.125546)"
       cx="48"
       cy="-27"
       fx="48"
       fy="-27"
       r="42" />
    <linearGradient
       inkscape:collect="always"
       xlink:href="#linearGradient3832-0-6-1-1-0-5"
       id="linearGradient6167"
       gradientUnits="userSpaceOnUse"
       gradientTransform="matrix(1,0,0,0.88905855,200,8.9431737)"
       x1="-94"
       y1="82.984398"
       x2="-10.187523"
       y2="82.984398" />
    <linearGradient
       inkscape:collect="always"
       xlink:href="#linearGradient3888-8-4-8-4-6-9-0-8-7-9-5-5"
       id="linearGradient6169"
       gradientUnits="userSpaceOnUse"
       gradientTransform="matrix(1.0034441,0,0,1.0049592,13.489305,22.564147)"
       x1="2.4652066"
       y1="0.27861649"
       x2="59.378193"
       y2="0.27861649" />
    <linearGradient
       inkscape:collect="always"
       xlink:href="#linearGradient5700-9-3"
       id="linearGradient6171"
       gradientUnits="userSpaceOnUse"
       gradientTransform="matrix(1.1392856,0,0,1.1392855,-26.685708,-24.455519)"
       x1="6"
       y1="47.000011"
       x2="90"
       y2="47.000011" />
  </defs>
  <sodipodi:namedview
     id="base"
     pagecolor="#ffffff"
     bordercolor="#666666"
     borderopacity="1.0"
     inkscape:pageopacity="0.0"
     inkscape:pageshadow="2"
     inkscape:zoom="5.5"
     inkscape:cx="7"
     inkscape:cy="32"
     inkscape:current-layer="layer1"
     showgrid="true"
     inkscape:document-units="px"
     inkscape:grid-bbox="true"
     inkscape:showpageshadow="false"
     gridtolerance="1"
     guidetolerance="1"
     objecttolerance="1"
     inkscape:window-width="1280"
     inkscape:window-height="959"
     inkscape:window-x="0"
     inkscape:window-y="0"
     inkscape:window-maximized="1" />
  <metadata
     id="metadata7">
    <rdf:RDF>
      <cc:Work
         rdf:about="">
        <dc:format>image/svg+xml</dc:format>
        <dc:type
           rdf:resource="http://purl.org/dc/dcmitype/StillImage" />
        <dc:title></dc:title>
      </cc:Work>
    </rdf:RDF>
  </metadata>
  <g
     id="layer1"
     inkscape:label="Layer 1"
     inkscape:groupmode="layer"
     transform="translate(0,32)">
    <g
       id="g6138"
       transform="translate(19.999999,-13.090909)">
      <path
         style="fill:url(#linearGradient6161);fill-opacity:1;fill-rule:nonzero;stroke:none;display:inline"
         d="m 69.014283,-18.759092 -82.028566,0 c -3.786986,0 -6.835714,3.048728 -6.835714,6.835712 l 0,82.028577 c 0,3.786985 3.048728,6.835712 6.835714,6.835712 l 82.028566,0 c 3.786986,0 6.835714,-3.048727 6.835714,-6.835712 l 0,-82.028577 c 0,-3.786984 -3.048728,-6.835712 -6.835714,-6.835712 z"
         id="rect4251-1"
         inkscape:connector-curvature="0" />
      <g
         id="g3272"
         transform="matrix(1.1392856,0,0,1.1392855,-140.61427,-23.885876)">
        <path
           sodipodi:nodetypes="sscccsccscccsss"
           inkscape:connector-curvature="0"
           id="path3400-6"
           d="m 112,5.5 c -2.7873,0 -5,2.2127028 -5,5 l 0,20.71875 0,7 0,38.59375 c 1.07066,1.628779 2.89693,2.71875 5,2.71875 l 4,0 64,0 4,0 c 2.10307,0 3.92934,-1.089971 5,-2.71875 l 0,-38.59375 0,-7 L 189,10.5 c 0,-2.7872972 -2.2127,-5 -5,-5 z"
           style="opacity:0.2;fill:url(#radialGradient6163);fill-opacity:1;fill-rule:nonzero;stroke:none;display:inline" />
        <path
           inkscape:connector-curvature="0"
           id="path4236-5"
           d="m 112,4.5 c -3.324,0 -6,2.6759996 -6,6 l 0,15 1,0 0,-15 c 0,-2.7872972 2.2127,-5 5,-5 l 72,0 c 2.7873,0 5,2.2127028 5,5 l 0,15 1,0 0,-15 c 0,-3.3240004 -2.676,-6 -6,-6 l -72,0 z"
           style="opacity:0.45;fill:url(#radialGradient6165);fill-opacity:1;fill-rule:nonzero;stroke:none;display:inline" />
        <path
           style="opacity:0.46964859;fill:url(#linearGradient6167);fill-opacity:1;fill-rule:nonzero;stroke:none"
           d="m 106,76.942239 0,0.889058 0,0.889059 0,0.889059 0,1.778117 0,1.778117 c 0,2.95523 2.676,5.334351 6,5.334351 l 72,0 c 3.324,0 6,-2.379121 6,-5.334351 l 0,-1.778117 0,-1.778117 0,-0.889059 0,-0.889059 0,-0.889058 c 0,2.95523 -2.676,5.334351 -6,5.334351 l -72,0 c -3.324,0 -6,-2.379121 -6,-5.334351 z"
           id="path4242-5"
           inkscape:connector-curvature="0" />
      </g>
      <g
         transform="matrix(0.98961168,0,0,1.0555709,-23.087444,-16.189182)"
         id="g4021">
        <path
           sodipodi:type="arc"
           style="opacity:0.71000001;fill:#1c1c1c;fill-opacity:1;fill-rule:nonzero;stroke:none"
           id="path4002"
           sodipodi:cx="70.373131"
           sodipodi:cy="79.208954"
           sodipodi:rx="2.7910447"
           sodipodi:ry="2.7910447"
           d="m 73.164176,79.208954 c 0,1.541451 -1.249594,2.791045 -2.791045,2.791045 -1.541452,0 -2.791045,-1.249594 -2.791045,-2.791045 0,-1.541452 1.249593,-2.791045 2.791045,-2.791045 1.541451,0 2.791045,1.249593 2.791045,2.791045 z"
           transform="matrix(1.2467442,0,0,1.0633819,-54.589655,-6.556752)" />
        <path
           transform="matrix(1.0373872,0,0,0.91041754,-39.856546,5.3629056)"
           d="m 73.164176,79.208954 c 0,1.541451 -1.249594,2.791045 -2.791045,2.791045 -1.541452,0 -2.791045,-1.249594 -2.791045,-2.791045 0,-1.541452 1.249593,-2.791045 2.791045,-2.791045 1.541451,0 2.791045,1.249593 2.791045,2.791045 z"
           sodipodi:ry="2.7910447"
           sodipodi:rx="2.7910447"
           sodipodi:cy="79.208954"
           sodipodi:cx="70.373131"
           id="path3854"
           style="fill:#ffffff;fill-opacity:1;fill-rule:nonzero;stroke:none"
           sodipodi:type="arc" />
        <path
           sodipodi:type="arc"
           style="fill:#114751;fill-opacity:1;fill-rule:nonzero;stroke:none"
           id="path3856"
           sodipodi:cx="70.373131"
           sodipodi:cy="79.208954"
           sodipodi:rx="2.7910447"
           sodipodi:ry="2.7910447"
           d="m 73.164176,79.208954 c 0,1.541451 -1.249594,2.791045 -2.791045,2.791045 -1.541452,0 -2.791045,-1.249594 -2.791045,-2.791045 0,-1.541452 1.249593,-2.791045 2.791045,-2.791045 1.541451,0 2.791045,1.249593 2.791045,2.791045 z"
           transform="matrix(0.70316741,0,0,0.61710417,-16.33646,28.595951)" />
        <path
           transform="matrix(1.2467442,0,0,1.0633819,-20.11442,-6.556752)"
           d="m 73.164176,79.208954 c 0,1.541451 -1.249594,2.791045 -2.791045,2.791045 -1.541452,0 -2.791045,-1.249594 -2.791045,-2.791045 0,-1.541452 1.249593,-2.791045 2.791045,-2.791045 1.541451,0 2.791045,1.249593 2.791045,2.791045 z"
           sodipodi:ry="2.7910447"
           sodipodi:rx="2.7910447"
           sodipodi:cy="79.208954"
           sodipodi:cx="70.373131"
           id="path4170"
           style="opacity:0.71000001;fill:#1c1c1c;fill-opacity:1;fill-rule:nonzero;stroke:none"
           sodipodi:type="arc" />
        <path
           sodipodi:type="arc"
           style="fill:#ffffff;fill-opacity:1;fill-rule:nonzero;stroke:none"
           id="path4172"
           sodipodi:cx="70.373131"
           sodipodi:cy="79.208954"
           sodipodi:rx="2.7910447"
           sodipodi:ry="2.7910447"
           d="m 73.164176,79.208954 c 0,1.541451 -1.249594,2.791045 -2.791045,2.791045 -1.541452,0 -2.791045,-1.249594 -2.791045,-2.791045 0,-1.541452 1.249593,-2.791045 2.791045,-2.791045 1.541451,0 2.791045,1.249593 2.791045,2.791045 z"
           transform="matrix(1.0373872,0,0,0.91041754,-5.3813104,5.3629056)" />
        <path
           transform="matrix(0.70316741,0,0,0.61710417,18.138777,28.595951)"
           d="m 73.164176,79.208954 c 0,1.541451 -1.249594,2.791045 -2.791045,2.791045 -1.541452,0 -2.791045,-1.249594 -2.791045,-2.791045 0,-1.541452 1.249593,-2.791045 2.791045,-2.791045 1.541451,0 2.791045,1.249593 2.791045,2.791045 z"
           sodipodi:ry="2.7910447"
           sodipodi:rx="2.7910447"
           sodipodi:cy="79.208954"
           sodipodi:cx="70.373131"
           id="path4174"
           style="fill:#114751;fill-opacity:1;fill-rule:nonzero;stroke:none"
           sodipodi:type="arc" />
        <rect
           style="opacity:0.75097273;fill:#0c2f31;fill-opacity:0.90454544;stroke:#ffffff;stroke-width:0.49989974;stroke-miterlimit:4;stroke-opacity:1;stroke-dasharray:none"
           id="rect4176"
           width="12.674157"
           height="3.235955"
           x="40.44944"
           y="83.595505"
           transform="matrix(1.0139776,0,0,0.95205283,3.1886202,-2.9106418)"
           rx="1.1481457"
           ry="1.1481457" />
      </g>
      <path
         style="font-size:medium;font-style:normal;font-variant:normal;font-weight:normal;font-stretch:normal;text-indent:0;text-align:start;text-decoration:none;line-height:normal;letter-spacing:normal;word-spacing:normal;text-transform:none;direction:ltr;block-progression:tb;writing-mode:lr-tb;text-anchor:start;baseline-shift:baseline;opacity:0.02000002;color:#000000;fill:#000000;fill-opacity:1;fill-rule:nonzero;stroke:none;stroke-width:6;marker:none;visibility:visible;display:inline;overflow:visible;enable-background:accumulate;font-family:Sans;-inkscape-font-specification:Sans"
         d="m -12.219058,39.222469 c -1.885105,0 -3.649478,0.91815 -4.759108,2.271826 l 0,15.088982 c 0,2.404471 2.122563,4.340201 4.759108,4.340201 l 80.904853,0 c 2.636546,0 4.759108,-1.93573 4.759108,-4.340201 l 0,-15.088982 c -1.109629,-1.353676 -2.874002,-2.271826 -4.759108,-2.271826 l -80.904853,0 z m 0,3.255153 80.904853,0 c 1.359427,0 2.379554,0.930332 2.379554,2.1701 l 0,11.935555 c 0,1.239769 -1.020127,2.170101 -2.379554,2.170101 l -80.904853,0 c -1.359427,0 -2.379553,-0.930332 -2.379553,-2.170101 l 0,-11.935555 c 0,-1.239768 1.020126,-2.1701 2.379553,-2.1701 z"
         id="path4972"
         inkscape:connector-curvature="0" />
      <path
         sodipodi:nodetypes="sssssssss"
         inkscape:connector-curvature="0"
         style="color:#000000;fill:#0079c1;fill-opacity:1;fill-rule:nonzero;stroke:none;stroke-width:2;marker:none;visibility:visible;display:inline;overflow:visible;enable-background:accumulate"
         d="m -12.219058,-15.030048 80.904853,0 c 2.636546,0 4.759108,1.935729 4.759108,4.340202 l 0,67.273123 c 0,2.404471 -2.122562,4.340201 -4.759108,4.340201 l -80.904853,0 c -2.636545,0 -4.759108,-1.93573 -4.759108,-4.340201 l 0,-67.273123 c 0,-2.404473 2.122563,-4.340202 4.759108,-4.340202 z"
         id="path4970" />
      <g
         transform="matrix(1.0292202,0,0,1.0231576,-574.49483,-741.30854)"
         id="g5926">
        <path
           d="m 581.94218,718.30026 -5.20191,1.39433 4.43602,11.35209 1.6026,0.92581 c 7.97763,-1.68161 16.72268,3.14829 19.38055,10.90604 0.0415,0.11422 0.0688,0.23149 0.10778,0.34572 l 1.99307,1.14894 12.05117,-1.83316 -1.39438,-5.20191 -10.14737,-1.46134 -3.99357,-4.50665 3.1085,-9.19528 -4.94547,-2.85569 -6.40662,7.2915 -5.89736,-1.20471 -4.69245,-7.10569 z m -16.24158,7.60772 -3.80758,3.80757 3.80758,9.51894 -1.90379,5.71136 -9.51893,1.90378 v 5.71136 l 9.51893,1.90379 1.90379,5.71136 -3.80758,7.61515 3.80758,3.80757 7.61515,-9.51893 v -1.97081 c -2.19297,-2.42465 -3.71296,-5.44596 -4.14588,-8.74542 -0.88983,-5.01933 0.84474,-10.17536 4.14588,-13.9401 v -1.99669 l -7.61515,-9.51893 z m 38.74967,27.23366 -2.20877,1.27535 c -2.23296,6.19112 -8.13716,11.03969 -14.83983,11.39664 -1.52009,0.15421 -3.0354,0.059 -4.50664,-0.22674 l -1.52823,0.88126 -4.43602,11.35209 5.20191,1.39434 6.33981,-8.05758 5.89735,-1.20473 6.41043,7.29151 4.94547,-2.85568 -3.11231,-9.1953 3.9972,-4.50663 8.4964,-0.50946 1.39437,-5.20191 -12.05116,-1.83316 z"
           id="path4354"
           inkscape:connector-curvature="0"
           style="opacity:0.55999995;fill:#00141f;fill-opacity:1" />
        <path
           d="m 581.94218,716.4039 -5.20115,1.39433 4.43583,11.35171 1.60108,0.92714 c 7.97877,-1.68294 16.72286,3.14696 19.38055,10.90489 0.0418,0.11422 0.0685,0.23226 0.10857,0.34649 l 1.99327,1.14798 12.05097,-1.83334 -1.39547,-5.20115 -10.14718,-1.46211 -3.99225,-4.50626 3.10698,-9.19529 -4.94413,-2.85549 -6.40625,7.29131 -5.89793,-1.20509 -4.69283,-7.10512 z m -16.2412,7.60771 -3.80758,3.80759 3.80758,9.51892 -1.90379,5.71136 -9.51931,1.90379 v 5.71136 l 9.51931,1.90379 1.90379,5.71136 -3.80758,7.61514 3.80758,3.80758 7.61515,-9.51894 v -1.97042 c -2.19316,-2.42542 -3.71239,-5.44672 -4.14645,-8.74599 -0.88907,-5.01838 0.84528,-10.17574 4.14645,-13.93953 v -1.99707 l -7.61515,-9.51894 z m 38.74777,27.23368 -2.20839,1.27553 c -2.23314,6.19112 -8.13679,11.03816 -14.84002,11.39607 -1.51922,0.1542 -3.03464,0.059 -4.50627,-0.22655 l -1.52874,0.88145 -4.43581,11.35229 5.20304,1.39357 6.33961,-8.05683 5.89603,-1.20509 6.41196,7.29149 4.94413,-2.85568 -3.11269,-9.19528 3.99795,-4.50627 8.49659,-0.51021 1.39357,-5.20114 -12.05096,-1.83335 z"
           id="path4321"
           inkscape:connector-curvature="0"
           style="fill:#ffffff" />
      </g>
      <path
         id="path4989"
         d="m -11.2749,-14.22885 79.016538,0 c 2.575009,0 4.648031,1.891243 4.648031,4.2404551 l 0,65.7270339 c 0,2.349214 -2.073021,4.240456 -4.648031,4.240456 l -79.016538,0 c -2.575009,0 -4.648032,-1.891242 -4.648032,-4.240456 l 0,-65.7270339 c 0,-2.3492121 2.073022,-4.2404551 4.648032,-4.2404551 z"
         style="color:#000000;fill:none;stroke:#000000;stroke-width:2.29036617;stroke-opacity:0.7758007;marker:none;visibility:visible;display:inline;overflow:visible;enable-background:accumulate"
         inkscape:connector-curvature="0"
         sodipodi:nodetypes="sssssssss" />
      <path
         style="opacity:0.30882353;color:#000000;fill:url(#linearGradient6169);fill-opacity:1;fill-rule:nonzero;stroke:none;stroke-width:2;marker:none;visibility:visible;display:inline;overflow:visible;enable-background:accumulate"
         d="M 15.963002,-15.132618 C 24.292397,11.051421 32.947707,36.61865 41.72898,60.820909 l 26.583944,0 c 2.636534,0 4.759078,-1.93573 4.759078,-4.340201 l 0,-67.273123 c 0,-2.404473 -2.122544,-4.340203 -4.759078,-4.340203 l -52.349922,0 z"
         id="path4974"
         inkscape:connector-curvature="0" />
      <path
         inkscape:connector-curvature="0"
         id="path5696"
         d="m 69.014285,-18.759092 -82.028558,0 c -3.786988,0 -6.835722,3.048728 -6.835722,6.835712 l 0,82.028578 c 0,3.786988 3.048734,6.835712 6.835722,6.835712 l 82.028558,0 c 3.786988,0 6.835713,-3.048724 6.835713,-6.835712 l 0,-82.028578 c 0,-3.786984 -3.048724,-6.835712 -6.835713,-6.835712 z"
         style="opacity:0.72794118;fill:url(#linearGradient6171);fill-opacity:1;fill-rule:nonzero;stroke:none;display:inline" />
    </g>
  </g>
</svg>
