<?xml version="1.0" encoding="UTF-8" standalone="no"?>
<!-- Created with Inkscape (http://www.inkscape.org/) -->

<svg
   xmlns:dc="http://purl.org/dc/elements/1.1/"
   xmlns:cc="http://creativecommons.org/ns#"
   xmlns:rdf="http://www.w3.org/1999/02/22-rdf-syntax-ns#"
   xmlns:svg="http://www.w3.org/2000/svg"
   xmlns="http://www.w3.org/2000/svg"
   xmlns:xlink="http://www.w3.org/1999/xlink"
   xmlns:sodipodi="http://sodipodi.sourceforge.net/DTD/sodipodi-0.dtd"
   xmlns:inkscape="http://www.inkscape.org/namespaces/inkscape"
   width="96"
   height="96"
   id="svg13094"
   version="1.1"
   inkscape:version="0.91 r13725"
   sodipodi:docname="gshutdown.svg">
  <sodipodi:namedview
     id="base"
     pagecolor="#ffffff"
     bordercolor="#666666"
     borderopacity="1.0"
     inkscape:pageopacity="0"
     inkscape:pageshadow="2"
     inkscape:zoom="4.0000002"
     inkscape:cx="22.287443"
     inkscape:cy="27.831471"
     inkscape:document-units="px"
     inkscape:current-layer="g4592"
     showgrid="true"
     inkscape:snap-bbox="true"
     inkscape:bbox-paths="true"
     inkscape:bbox-nodes="true"
     inkscape:snap-bbox-edge-midpoints="true"
     inkscape:snap-bbox-midpoints="true"
     inkscape:object-paths="true"
     inkscape:snap-intersection-paths="true"
     inkscape:object-nodes="true"
     inkscape:snap-smooth-nodes="true"
     inkscape:snap-midpoints="true"
     inkscape:snap-object-midpoints="true"
     inkscape:snap-center="true"
     showguides="false"
     inkscape:guide-bbox="true"
     inkscape:window-width="1280"
     inkscape:window-height="963"
     inkscape:window-x="0"
     inkscape:window-y="0"
     inkscape:window-maximized="1"
     inkscape:snap-global="false"
     fit-margin-top="0"
     fit-margin-left="0"
     fit-margin-right="0"
     fit-margin-bottom="0"
     showborder="true"
     inkscape:showpageshadow="false"
     inkscape:snap-page="true">
    <inkscape:grid
       type="xygrid"
       id="grid3075"
       empspacing="5"
       visible="true"
       enabled="true"
       snapvisiblegridlinesonly="true"
       originx="1.6362304e-08px"
       originy="18px" />
    <sodipodi:guide
       orientation="0,1"
       position="-11,30"
       id="guide9148" />
    <sodipodi:guide
       orientation="1,0"
       position="32,70"
       id="guide9150" />
  </sodipodi:namedview>
  <defs
     id="defs13096">
    <linearGradient
       id="linearGradient3094-9">
      <stop
         offset="0"
         style="stop-color:#bdc4cf;stop-opacity:1;"
         id="stop3096-9" />
      <stop
         offset="1"
         style="stop-color:#a1a8ba;stop-opacity:1;"
         id="stop3104-5" />
    </linearGradient>
    <linearGradient
       id="linearGradient3825">
      <stop
         offset="0"
         style="stop-color:#501616;stop-opacity:1"
         id="stop3827-36" />
      <stop
         offset="1"
         style="stop-color:#501616;stop-opacity:0"
         id="stop3829" />
    </linearGradient>
    <linearGradient
       id="linearGradient3694">
      <stop
         offset="0"
         style="stop-color:#e6e6e6;stop-opacity:1"
         id="stop3696" />
      <stop
         offset="1"
         style="stop-color:#f5f5f5;stop-opacity:1"
         id="stop3698" />
    </linearGradient>
    <linearGradient
       id="linearGradient3688">
      <stop
         offset="0"
         style="stop-color:#b30707;stop-opacity:1"
         id="stop3690" />
      <stop
         offset="1"
         style="stop-color:#e42c0d;stop-opacity:1"
         id="stop3692" />
    </linearGradient>
    <linearGradient
       gradientTransform="scale(1.0058652,0.994169)"
       gradientUnits="userSpaceOnUse"
       id="ButtonShadow"
       y2="7.0165396"
       x2="45.447727"
       y1="92.539597"
       x1="45.447727">
      <stop
         offset="0"
         style="stop-color:#000000;stop-opacity:1"
         id="stop3750" />
      <stop
         offset="1"
         style="stop-color:#000000;stop-opacity:0.58823532"
         id="stop3752" />
    </linearGradient>
    <linearGradient
       id="linearGradient3737">
      <stop
         offset="0"
         style="stop-color:#ffffff;stop-opacity:1"
         id="stop3739" />
      <stop
         offset="1"
         style="stop-color:#ffffff;stop-opacity:0"
         id="stop3741" />
    </linearGradient>
    <filter
       id="filter3174"
       style="color-interpolation-filters:sRGB">
      <feGaussianBlur
         stdDeviation="1.71"
         id="feGaussianBlur3176" />
    </filter>
    <linearGradient
       gradientUnits="userSpaceOnUse"
       xlink:href="#linearGradient3737"
       id="linearGradient3188"
       y2="63.893143"
       x2="36.357143"
       y1="6"
       x1="36.357143" />
    <filter
       id="filter3794"
       height="1.3839999"
       width="1.3839999"
       y="-0.192"
       x="-0.192"
       style="color-interpolation-filters:sRGB">
      <feGaussianBlur
         stdDeviation="5.28"
         id="feGaussianBlur3796" />
    </filter>
    <linearGradient
       gradientUnits="userSpaceOnUse"
       xlink:href="#linearGradient3737"
       id="linearGradient3613"
       y2="138.66119"
       x2="48"
       y1="20.220806"
       x1="48" />
    <radialGradient
       gradientTransform="matrix(1.1573129,0,0,0.99590774,-7.5510206,0.19713193)"
       gradientUnits="userSpaceOnUse"
       xlink:href="#linearGradient3737"
       id="radialGradient3619"
       fy="90.171875"
       fx="48"
       r="42"
       cy="90.171875"
       cx="48" />
    <clipPath
       id="clipPath3613">
      <rect
         style="fill:#ffffff;fill-opacity:1;fill-rule:nonzero;stroke:none"
         id="rect3615"
         y="6"
         x="6"
         ry="6"
         rx="6"
         height="84"
         width="84" />
    </clipPath>
    <linearGradient
       gradientUnits="userSpaceOnUse"
       xlink:href="#linearGradient3688"
       id="linearGradient3617"
       y2="5.9877172"
       x2="48"
       y1="90"
       x1="48" />
    <linearGradient
       gradientTransform="matrix(1.0058652,0,0,0.994169,100,0)"
       gradientUnits="userSpaceOnUse"
       id="ButtonShadow-0"
       y2="7.0165396"
       x2="45.447727"
       y1="92.539597"
       x1="45.447727">
      <stop
         offset="0"
         style="stop-color:#000000;stop-opacity:1"
         id="stop3750-8" />
      <stop
         offset="1"
         style="stop-color:#000000;stop-opacity:0.58823532"
         id="stop3752-5" />
    </linearGradient>
    <linearGradient
       gradientTransform="matrix(1.0238095,0,0,1.0119048,-1.1428571,-98.071429)"
       gradientUnits="userSpaceOnUse"
       xlink:href="#ButtonShadow-0"
       id="linearGradient3780"
       y2="90.238609"
       x2="32.251034"
       y1="6.1317081"
       x1="32.251034" />
    <linearGradient
       gradientTransform="translate(0,-97)"
       gradientUnits="userSpaceOnUse"
       xlink:href="#ButtonShadow-0"
       id="linearGradient3721"
       y2="90.238609"
       x2="32.251034"
       y1="6.1317081"
       x1="32.251034" />
    <linearGradient
       gradientTransform="matrix(0.87485882,0,0,0.90698611,2.762671,6.33428)"
       gradientUnits="userSpaceOnUse"
       xlink:href="#linearGradient3694"
       id="linearGradient2936"
       y2="12.797539"
       x2="62.336792"
       y1="79.015236"
       x1="62.336792" />
    <linearGradient
       gradientUnits="userSpaceOnUse"
       xlink:href="#linearGradient3825"
       id="linearGradient3831"
       y2="112"
       x2="55"
       y1="18"
       x1="55" />
    <clipPath
       id="clipPath4156-4"
       clipPathUnits="userSpaceOnUse">
      <path
         inkscape:connector-curvature="0"
         id="path4158-0"
         d="m 27.046336,-55.695463 -14.21366,13.321486 0.06127,0 15.653407,21.770763 10.231384,-10.546177 C 38.561832,-32.30156 27.468089,-54.819245 27.046336,-55.695463 Z M 9.6468554,-39.382809 -5.2407289,-25.32124 15.987863,-7.8059573 26.372412,-18.382966 9.6468554,-39.382809 Z m 31.4906096,12.951445 -9.741259,9.713584 8.944804,12.4580526 7.780753,-7.5550056 -6.984298,-14.616631 z m -49.8397109,4.378822 -13.7541661,12.9822847 26.2830181,13.84571 0.06127,-0.0617 -0.122531,-0.0617 L 13.598503,-5.4007374 -8.7022409,-22.052595 Z m 38.0154159,7.400825 -9.802525,9.7752596 11.579232,9.5594001 7.62759,-7.40083 -8.669108,-11.0087257 -0.735189,-0.925104 z m 20.187073,5.6739697 -7.382526,7.2158 6.187844,8.54179 5.820249,-6.13651996 -4.625567,-9.62107004 z m -32.195166,6.32154 -9.5574606,9.49772 13.6622686,7.1849703 7.933918,-7.6783603 -12.038726,-9.00433 z m 23.311629,2.37443004 -7.10683,6.93826996 8.362778,6.9074403 5.360756,-5.6739699 -0.06127,-0.0925 -0.0919,0.12335 -6.463539,-8.20258036 z m -8.730374,8.54178036 -7.505057,7.3391599 10.353916,5.45811 c 1.397496,-1.32103 5.67514,-6.12292 5.850882,-6.32154 L 31.886332,8.2600031 Z"
         style="opacity:0.6;fill:#ffffff;fill-opacity:1;stroke:none" />
    </clipPath>
    <linearGradient
       inkscape:collect="always"
       xlink:href="#linearGradient3737"
       id="linearGradient4707"
       gradientUnits="userSpaceOnUse"
       x1="2.7713892"
       y1="-28.64156"
       x2="50.527882"
       y2="14.514202" />
    <linearGradient
       id="linearGradient4746">
      <stop
         id="stop4748"
         offset="0"
         style="stop-color:#ffffff;stop-opacity:0;" />
      <stop
         style="stop-color:#ffffff;stop-opacity:1;"
         offset="0.30000001"
         id="stop4750" />
      <stop
         id="stop4752"
         offset="0.69999999"
         style="stop-color:#ffffff;stop-opacity:1;" />
      <stop
         id="stop4754"
         offset="1"
         style="stop-color:#ffffff;stop-opacity:0;" />
    </linearGradient>
    <linearGradient
       inkscape:collect="always"
       xlink:href="#linearGradient4746"
       id="linearGradient4705"
       gradientUnits="userSpaceOnUse"
       gradientTransform="matrix(1,0,0,0.94706844,0,0.7239241)"
       x1="6.9722528"
       y1="49.026676"
       x2="83.68869"
       y2="48.399288" />
    <linearGradient
       inkscape:collect="always"
       xlink:href="#linearGradient4746"
       id="linearGradient4703"
       gradientUnits="userSpaceOnUse"
       x1="46.03289"
       y1="5.2661309"
       x2="45.093063"
       y2="90.120811" />
    <linearGradient
       id="linearGradient4727">
      <stop
         id="stop4729"
         offset="0"
         style="stop-color:#adb9c1;stop-opacity:1;" />
      <stop
         style="stop-color:#ffffff;stop-opacity:1;"
         offset="0.25"
         id="stop4731" />
      <stop
         style="stop-color:#909eaa;stop-opacity:1;"
         offset="0.5"
         id="stop4733" />
      <stop
         id="stop4735"
         offset="0.75"
         style="stop-color:#f9fafb;stop-opacity:1;" />
      <stop
         id="stop4737"
         offset="1"
         style="stop-color:#adb3c1;stop-opacity:1;" />
    </linearGradient>
    <linearGradient
       inkscape:collect="always"
       xlink:href="#linearGradient4727"
       id="linearGradient4699"
       gradientUnits="userSpaceOnUse"
       x1="1.5667458"
       y1="48"
       x2="94.43325"
       y2="48" />
    <linearGradient
       inkscape:collect="always"
       xlink:href="#linearGradient4727"
       id="linearGradient4402"
       gradientUnits="userSpaceOnUse"
       x1="1.5667458"
       y1="48"
       x2="94.43325"
       y2="48" />
    <linearGradient
       inkscape:collect="always"
       xlink:href="#linearGradient3835"
       id="linearGradient3847"
       gradientUnits="userSpaceOnUse"
       x1="38"
       y1="37"
       x2="38"
       y2="18" />
    <linearGradient
       inkscape:collect="always"
       id="linearGradient3835">
      <stop
         style="stop-color:#8f2f2f;stop-opacity:1"
         offset="0"
         id="stop3837" />
      <stop
         id="stop3843"
         offset="0.11184204"
         style="stop-color:#793131;stop-opacity:1" />
      <stop
         style="stop-color:#913434;stop-opacity:1"
         offset="1"
         id="stop3839" />
    </linearGradient>
    <linearGradient
       inkscape:collect="always"
       xlink:href="#linearGradient3823"
       id="linearGradient3851"
       gradientUnits="userSpaceOnUse"
       x1="32"
       y1="-58"
       x2="32"
       y2="-37" />
    <linearGradient
       inkscape:collect="always"
       id="linearGradient3823">
      <stop
         style="stop-color:#a74040;stop-opacity:1"
         offset="0"
         id="stop3825" />
      <stop
         id="stop3831"
         offset="0.90178567"
         style="stop-color:#b93d3d;stop-opacity:1" />
      <stop
         style="stop-color:#963232;stop-opacity:1"
         offset="1"
         id="stop3827" />
    </linearGradient>
    <linearGradient
       inkscape:collect="always"
       xlink:href="#linearGradient3815"
       id="linearGradient3855"
       gradientUnits="userSpaceOnUse"
       x1="33"
       y1="18"
       x2="33"
       y2="12" />
    <linearGradient
       inkscape:collect="always"
       id="linearGradient3815">
      <stop
         style="stop-color:#e24e4e;stop-opacity:1"
         offset="0"
         id="stop3817" />
      <stop
         style="stop-color:#ec6a6a;stop-opacity:1"
         offset="1"
         id="stop3819" />
    </linearGradient>
  </defs>
  <metadata
     id="metadata13099">
    <rdf:RDF>
      <cc:Work
         rdf:about="">
        <dc:format>image/svg+xml</dc:format>
        <dc:type
           rdf:resource="http://purl.org/dc/dcmitype/StillImage" />
        <dc:title></dc:title>
      </cc:Work>
    </rdf:RDF>
  </metadata>
  <g
     id="g3043"
     inkscape:export-filename="folder.png"
     inkscape:export-xdpi="90"
     inkscape:export-ydpi="90"
     transform="translate(-0.62500009,32.082283)" />
  <g
     id="scalable"
     transform="matrix(1.0385892,0,0,1.0385892,1214.7222,1910.8121)"
     inkscape:label="#g3701"
     style="fill:#ffffff" />
  <g
     id="g3029"
     transform="translate(0,32)">
    <g
       id="g4366"
       transform="translate(0,-32)">
      <g
         id="layer1"
         inkscape:label="Layer 1"
         transform="translate(0,32)">
        <g
           id="g4592"
           transform="translate(0,-32)">
          <g
             id="layer2-5"
             inkscape:label="ombre-base">
            <rect
               ry="4.0634933"
               rx="4.0634928"
               y="0"
               x="0"
               height="96"
               width="96"
               id="rect4266"
               style="opacity:0.15;fill:#000000;fill-opacity:1;stroke:none" />
            <rect
               style="opacity:0.15;fill:#000000;fill-opacity:1;stroke:none"
               id="rect4240"
               width="95"
               height="95"
               x="0.5"
               y="0.5"
               rx="4.0211644"
               ry="4.0211644" />
            <rect
               ry="3.9788361"
               rx="3.9788361"
               y="1"
               x="1"
               height="94"
               width="94"
               id="rect4264"
               style="opacity:0.15;fill:#000000;fill-opacity:1;stroke:none" />
          </g>
          <g
             style="fill:url(#linearGradient4699);fill-opacity:1"
             id="layer4-1"
             inkscape:label="colore-globale">
            <rect
               style="display:inline;fill:url(#linearGradient4402);fill-opacity:1;stroke:none"
               id="rect4476"
               width="92.866508"
               height="92.903458"
               x="1.5667458"
               y="1.5482712"
               rx="4.4314661"
               ry="4.381073" />
          </g>
          <rect
             y="6.8000002"
             x="7.5"
             height="77"
             width="81"
             id="rect4564"
             style="opacity:0.83999999;fill:#e4e3e3;fill-opacity:1;stroke:none" />
          <g
             id="layer1-1"
             inkscape:label="struttura"
             transform="translate(0,48)"
             style="display:inline">
            <g
               transform="matrix(1.1078665,0,0,1.0952682,-3.7110067,-52.373354)"
               id="g3540">
              <g
                 transform="matrix(1.0052356,0,0,1.0052432,-0.09130939,-0.47285394)"
                 id="g4426">
                <g
                   transform="matrix(1.0000054,0,0,0.99791236,-18.811946,8.9081587)"
                   id="g4403">
                  <g
                     id="g3430"
                     transform="matrix(-0.93513772,0,0,0.50741219,164.9173,-44.868776)">
                    <g
                       id="g3446"
                       transform="matrix(-0.6357251,0.0421819,-0.02490483,-1.0515558,92.671979,115.53352)" />
                  </g>
                  <g
                     transform="matrix(0.55214779,0,0,0.60391504,38.00101,36.337639)"
                     id="g4362" />
                  <g
                     transform="matrix(1.0020877,0,0,0.50741219,-77.166961,-44.966244)"
                     id="g4370">
                    <g
                       transform="matrix(-0.6357251,0.0421819,-0.02490483,-1.0515558,92.671979,115.53352)"
                       id="g4372" />
                  </g>
                  <g
                     id="g4395"
                     transform="matrix(-0.54985887,0,0,0.60140527,73.748586,27.648602)">
                    <path
                       sodipodi:nodetypes="cccccccccccccccccccccccsssssssss"
                       inkscape:connector-curvature="0"
                       d="m 81.416281,73.57243 7.015717,6.674207 c -0.04232,3.967765 0.267984,3.842136 0.209905,6.856172 l -0.233189,-6.885985 -6.851206,-6.554195 c 0.06319,0.02357 -0.14122,-0.0902 -0.141227,-0.0902 z m 0.128518,-116.84693 -132.42878,0 0,116.886744 132.42878,0 z m -0.0068,0.182069 c -0.06596,-0.193099 0.133853,0.166431 -0.130188,-0.06464 l 6.96657,-5.577062 c -3.856986,3.163036 -3.790312,3.114807 -6.836382,5.641697 z M -57.451698,87.684046 c -0.04912,-2.679077 -0.07535,-3.505172 -0.194086,-7.549371 l 6.716657,-6.538949 c -2.13931,2.072124 -2.544718,2.569935 -6.730646,6.617394 0.146859,4.794939 0.163153,4.762112 0.208075,7.470926 z m 6.62685,-131.022557 c -3.898951,-2.68663 -3.781384,-2.595646 -7.538651,-5.119524 3.56574,2.36666 3.494875,2.295153 7.538651,5.119524 z m 133.851173,-7.36451 -135.391831,0 c -4.284327,0 -7.73344,2.768522 -7.73344,6.207448 l 0,127.44745 c 0,3.438927 3.449113,6.207449 7.73344,6.207449 l 135.391831,0 c 4.284326,0 7.73344,-2.768522 7.73344,-6.207449 l 0,-127.44745 c 0,-3.438926 -3.449114,-6.207448 -7.73344,-6.207448 z"
                       style="color:#000000;font-style:normal;font-variant:normal;font-weight:normal;font-stretch:normal;font-size:medium;line-height:normal;font-family:Sans;-inkscape-font-specification:Sans;text-indent:0;text-align:start;text-decoration:none;text-decoration-line:none;letter-spacing:normal;word-spacing:normal;text-transform:none;direction:ltr;block-progression:tb;writing-mode:lr-tb;baseline-shift:baseline;text-anchor:start;display:inline;overflow:visible;visibility:visible;fill:none;stroke:#000000;stroke-width:0.91645002;stroke-miterlimit:4;stroke-dasharray:none;stroke-opacity:1;marker:none;enable-background:accumulate"
                       id="path4397" />
                  </g>
                </g>
              </g>
              <path
                 inkscape:connector-curvature="0"
                 id="rect4474"
                 d="m 8.8575421,5.6172779 c -2.2421114,0 -4.0553236,1.7633849 -4.0553236,3.9269464 l 0,76.7690367 c 0,2.163561 1.8132122,3.926947 4.0553236,3.926947 l 75.7359079,0 c 2.242112,0 4.055324,-1.763386 4.055324,-3.926947 l 0,-76.7690367 c 0,-2.1635615 -1.813212,-3.9269464 -4.055324,-3.9269464 l -75.7359079,0 z m -2.5208768,1.7698914 80.7776617,0 0,76.9902727 -80.7776617,0 0,-76.9902727 z"
                 style="opacity:0.75605636;fill:url(#linearGradient4703);fill-opacity:1;stroke:none" />
              <path
                 style="opacity:0.90363638;fill:url(#linearGradient4705);fill-opacity:1;stroke:none"
                 d="m 8.8575421,6.0438707 c -2.2421114,0 -4.0553236,1.6700462 -4.0553236,3.7190869 l 0,72.7055314 c 0,2.04904 1.8132122,3.719088 4.0553236,3.719088 l 75.7359079,0 c 2.242112,0 4.055324,-1.670048 4.055324,-3.719088 l 0,-72.7055314 c 0,-2.0490407 -1.813212,-3.7190869 -4.055324,-3.7190869 l -75.7359079,0 z m -2.5208768,1.6762083 80.7776617,0 0,72.915057 -80.7776617,0 0,-72.915057 z"
                 id="path4520"
                 inkscape:connector-curvature="0" />
              <path
                 inkscape:connector-curvature="0"
                 id="rect4466"
                 d="m 4.8570204,80.162841 0,5.640899 c 0,2.40151 1.924933,4.336651 4.3293319,4.336651 l 75.0782877,0 c 2.404399,0 4.329332,-1.935141 4.329332,-4.336651 l 0,-5.640899 c 0,2.401505 -1.924933,4.336646 -4.329332,4.336646 l -75.0782877,0 c -2.4043989,0 -4.3293319,-1.935141 -4.3293319,-4.336646 z"
                 style="fill:#000000;fill-opacity:0.51937986;stroke:none" />
            </g>
          </g>
          <g
             id="g4181"
             transform="matrix(1.4071429,0,0,1.431806,3.4535699,-3.692725)">
            <rect
               y="11"
               x="17"
               height="46"
               width="30"
               id="rect3775"
               style="color:#000000;display:inline;overflow:visible;visibility:visible;fill:#464b57;fill-opacity:1;fill-rule:nonzero;stroke:none;stroke-width:2;marker:none;enable-background:accumulate" />
            <path
               sodipodi:nodetypes="ccccccc"
               inkscape:connector-curvature="0"
               id="path3809"
               d="m 21,15 28,0 0,45 -1,1 -26,0 -1,-1 z"
               style="color:#000000;display:inline;overflow:visible;visibility:visible;fill:#000000;fill-opacity:0.0617726;fill-rule:nonzero;stroke:none;stroke-width:2;marker:none;enable-background:accumulate" />
            <path
               sodipodi:nodetypes="ccccccc"
               inkscape:connector-curvature="0"
               id="path3811"
               d="m 22,16 28,0 0,45 -1,1 -26,0 -1,-1 z"
               style="color:#000000;display:inline;overflow:visible;visibility:visible;fill:#000000;fill-opacity:0.0617726;fill-rule:nonzero;stroke:none;stroke-width:2;marker:none;enable-background:accumulate" />
            <path
               sodipodi:nodetypes="ccccccc"
               inkscape:connector-curvature="0"
               id="path3813"
               d="m 23,17 28,0 0,45 -1,1 -26,0 -1,-1 z"
               style="color:#000000;display:inline;overflow:visible;visibility:visible;fill:#000000;fill-opacity:0.0617726;fill-rule:nonzero;stroke:none;stroke-width:2;marker:none;enable-background:accumulate" />
            <path
               style="color:#000000;display:inline;overflow:visible;visibility:visible;fill:#000000;fill-opacity:0.0617726;fill-rule:nonzero;stroke:none;stroke-width:2;marker:none;enable-background:accumulate"
               d="m 24,18 28,0 0,45 -1,1 -26,0 -1,-1 z"
               id="rect3779"
               inkscape:connector-curvature="0"
               sodipodi:nodetypes="ccccccc" />
            <path
               sodipodi:nodetypes="ccccccc"
               inkscape:connector-curvature="0"
               id="path3807"
               d="m 20,14 28,0 0,45 -1,1 -26,0 -1,-1 z"
               style="color:#000000;display:inline;overflow:visible;visibility:visible;fill:#000000;fill-opacity:0.0617726;fill-rule:nonzero;stroke:none;stroke-width:2;marker:none;enable-background:accumulate" />
            <path
               sodipodi:nodetypes="ccccccc"
               inkscape:connector-curvature="0"
               id="path3805"
               d="m 19,13 28,0 0,45 -1,1 -26,0 -1,-1 z"
               style="color:#000000;display:inline;overflow:visible;visibility:visible;fill:#000000;fill-opacity:0.0617726;fill-rule:nonzero;stroke:none;stroke-width:2;marker:none;enable-background:accumulate" />
            <path
               style="color:#000000;display:inline;overflow:visible;visibility:visible;fill:#923a3a;fill-opacity:1;fill-rule:nonzero;stroke:none;stroke-width:2;marker:none;enable-background:accumulate"
               d="m 18,12 28,0 0,45 -1,1 -26,0 -1,-1 z"
               id="path3858"
               inkscape:connector-curvature="0"
               sodipodi:nodetypes="ccccccc" />
            <path
               style="color:#000000;display:inline;overflow:visible;visibility:visible;fill:#ff7e7e;fill-opacity:0.61504032;fill-rule:nonzero;stroke:none;stroke-width:2;marker:none;enable-background:accumulate"
               d="m 18,12 1,6 0,40 -1,-1 z"
               id="path3860"
               inkscape:connector-curvature="0"
               sodipodi:nodetypes="ccccc" />
            <path
               style="color:#000000;display:inline;overflow:visible;visibility:visible;fill:#360f0f;fill-opacity:0.30975826;fill-rule:nonzero;stroke:none;stroke-width:2;marker:none;enable-background:accumulate"
               d="m 46,12 -1,6 0,19 0,21 1,-1 z"
               id="path3803"
               inkscape:connector-curvature="0"
               sodipodi:nodetypes="cccccc" />
            <rect
               style="color:#000000;display:inline;overflow:visible;visibility:visible;fill:url(#linearGradient3847);fill-opacity:1;fill-rule:nonzero;stroke:none;stroke-width:2;marker:none;enable-background:accumulate"
               id="rect3845"
               width="26"
               height="19"
               x="19"
               y="18" />
            <rect
               transform="scale(1,-1)"
               y="-58"
               x="19"
               height="21"
               width="26"
               id="rect3849"
               style="color:#000000;display:inline;overflow:visible;visibility:visible;fill:url(#linearGradient3851);fill-opacity:1;fill-rule:nonzero;stroke:none;stroke-width:2;marker:none;enable-background:accumulate" />
            <path
               inkscape:connector-curvature="0"
               id="path3853"
               d="m 18,12 1,6 26,0 1,-6 z"
               style="color:#000000;display:inline;overflow:visible;visibility:visible;fill:url(#linearGradient3855);fill-opacity:1;fill-rule:nonzero;stroke:none;stroke-width:2;marker:none;enable-background:accumulate" />
            <rect
               style="color:#000000;display:inline;overflow:visible;visibility:visible;fill:#ffffff;fill-opacity:0.67144135;fill-rule:nonzero;stroke:none;stroke-width:2;marker:none;enable-background:accumulate"
               id="rect3785"
               width="2"
               height="9"
               x="31"
               y="43" />
            <path
               style="color:#000000;display:inline;overflow:visible;visibility:visible;fill:#ffffff;fill-opacity:0.67144135;fill-rule:nonzero;stroke:none;stroke-width:2;marker:none;enable-background:accumulate"
               d="m 32,24 c -2.485281,0 -4.5,1.567004 -4.5,3.5 0,1.932996 2.014719,3.5 4.5,3.5 2.485281,0 4.5,-1.567004 4.5,-3.5 C 36.5,25.567004 34.485281,24 32,24 Z m 0,1.555556 c 1.380712,0 2.5,0.870557 2.5,1.944444 0,1.073887 -1.119288,1.944444 -2.5,1.944444 -1.380712,0 -2.5,-0.870557 -2.5,-1.944444 0,-1.073887 1.119288,-1.944444 2.5,-1.944444 z"
               id="path3793"
               inkscape:connector-curvature="0" />
            <path
               d="m 19,18 0,40 m -1,-46 1,6 26,0"
               style="color:#000000;display:inline;overflow:visible;visibility:visible;fill:none;stroke:#ffffff;stroke-width:0.5;stroke-miterlimit:4;stroke-dasharray:none;stroke-opacity:0.23903312;marker:none;enable-background:accumulate"
               id="path3906"
               inkscape:connector-curvature="0" />
            <path
               id="path3903"
               style="color:#000000;display:inline;overflow:visible;visibility:visible;fill:none;stroke:#000000;stroke-width:0.5;stroke-miterlimit:4;stroke-dasharray:none;stroke-opacity:0.10474489;marker:none;enable-background:accumulate"
               d="m 46,12 -1,6 0,40 -26,0"
               inkscape:connector-curvature="0"
               sodipodi:nodetypes="ccc" />
          </g>
          <g
             id="layer7"
             inkscape:label="luci-superiori">
            <rect
               transform="matrix(0.99891115,0,0,1,0.0021777,32.042727)"
               style="opacity:0.8;fill:url(#linearGradient4707);fill-opacity:1;stroke:none"
               id="rect4146"
               width="92"
               height="92"
               x="2"
               y="-30"
               rx="3.9569874"
               ry="3.9569881"
               clip-path="url(#clipPath4156-4)" />
            <path
               sodipodi:nodetypes="ssccsscss"
               style="opacity:0.2;fill:#ffffff;fill-opacity:1;stroke:none"
               d="M 5.7458937,1.787 C 3.5462186,1.787 1.7683159,3.6473696 1.763558,5.9429206 L 1.6,84.85541 c 2.1117646,2.843617 1.83765,2.719224 5.3536755,3.021845 C 8.0064488,79.013649 16.427783,56.045295 34.331254,36.838908 49.801067,20.243287 71.107267,5.1575498 92.385215,5.1575498 c 0.538595,0 1.062975,0.022399 1.599205,0.032724 C 93.650213,3.2524245 92.052181,1.787 90.096156,1.787 Z"
               id="rect4190"
               inkscape:connector-curvature="0" />
          </g>
        </g>
      </g>
      <g
         style="display:none"
         id="layer2">
        <rect
           style="opacity:0.9;fill:url(#ButtonShadow);fill-opacity:1;fill-rule:nonzero;stroke:none;filter:url(#filter3174)"
           id="rect3745"
           y="7"
           x="5"
           ry="6"
           rx="6"
           height="85"
           width="86" />
      </g>
      <g
         id="layer5" />
    </g>
  </g>
</svg>
