<?xml version="1.0" encoding="UTF-8" standalone="no"?>
<!-- Created with Inkscape (http://www.inkscape.org/) -->

<svg
   xmlns:dc="http://purl.org/dc/elements/1.1/"
   xmlns:cc="http://creativecommons.org/ns#"
   xmlns:rdf="http://www.w3.org/1999/02/22-rdf-syntax-ns#"
   xmlns:svg="http://www.w3.org/2000/svg"
   xmlns="http://www.w3.org/2000/svg"
   xmlns:xlink="http://www.w3.org/1999/xlink"
   xmlns:sodipodi="http://sodipodi.sourceforge.net/DTD/sodipodi-0.dtd"
   xmlns:inkscape="http://www.inkscape.org/namespaces/inkscape"
   version="1.0"
   width="96"
   height="96"
   id="svg2408"
   inkscape:version="0.48.5 r10040"
   sodipodi:docname="adobe-flashplayer.svg">
  <sodipodi:namedview
     pagecolor="#ffffff"
     bordercolor="#666666"
     borderopacity="1"
     objecttolerance="10"
     gridtolerance="10"
     guidetolerance="10"
     inkscape:pageopacity="0"
     inkscape:pageshadow="2"
     inkscape:window-width="1280"
     inkscape:window-height="966"
     id="namedview59"
     showgrid="false"
     inkscape:zoom="3.7028383"
     inkscape:cx="20.699788"
     inkscape:cy="22.317905"
     inkscape:window-x="0"
     inkscape:window-y="0"
     inkscape:window-maximized="1"
     inkscape:current-layer="g4592" />
  <defs
     id="defs2410">
    <linearGradient
       id="linearGradient3825">
      <stop
         id="stop3827"
         style="stop-color:#501616;stop-opacity:1"
         offset="0" />
      <stop
         id="stop3829"
         style="stop-color:#501616;stop-opacity:0"
         offset="1" />
    </linearGradient>
    <linearGradient
       id="linearGradient3694">
      <stop
         id="stop3696"
         style="stop-color:#e6e6e6;stop-opacity:1"
         offset="0" />
      <stop
         id="stop3698"
         style="stop-color:#f5f5f5;stop-opacity:1"
         offset="1" />
    </linearGradient>
    <linearGradient
       id="linearGradient3688">
      <stop
         id="stop3690"
         style="stop-color:#b30707;stop-opacity:1"
         offset="0" />
      <stop
         id="stop3692"
         style="stop-color:#e42c0d;stop-opacity:1"
         offset="1" />
    </linearGradient>
    <linearGradient
       x1="45.447727"
       y1="92.539597"
       x2="45.447727"
       y2="7.0165396"
       id="ButtonShadow"
       gradientUnits="userSpaceOnUse"
       gradientTransform="scale(1.0058652,0.994169)">
      <stop
         id="stop3750"
         style="stop-color:#000000;stop-opacity:1"
         offset="0" />
      <stop
         id="stop3752"
         style="stop-color:#000000;stop-opacity:0.58823532"
         offset="1" />
    </linearGradient>
    <linearGradient
       id="linearGradient3737">
      <stop
         id="stop3739"
         style="stop-color:#ffffff;stop-opacity:1"
         offset="0" />
      <stop
         id="stop3741"
         style="stop-color:#ffffff;stop-opacity:0"
         offset="1" />
    </linearGradient>
    <filter
       color-interpolation-filters="sRGB"
       id="filter3174">
      <feGaussianBlur
         id="feGaussianBlur3176"
         stdDeviation="1.71" />
    </filter>
    <linearGradient
       x1="36.357143"
       y1="6"
       x2="36.357143"
       y2="63.893143"
       id="linearGradient3188"
       xlink:href="#linearGradient3737"
       gradientUnits="userSpaceOnUse" />
    <filter
       x="-0.192"
       y="-0.192"
       width="1.3839999"
       height="1.3839999"
       color-interpolation-filters="sRGB"
       id="filter3794">
      <feGaussianBlur
         id="feGaussianBlur3796"
         stdDeviation="5.28" />
    </filter>
    <linearGradient
       x1="48"
       y1="20.220806"
       x2="48"
       y2="138.66119"
       id="linearGradient3613"
       xlink:href="#linearGradient3737"
       gradientUnits="userSpaceOnUse" />
    <radialGradient
       cx="48"
       cy="90.171875"
       r="42"
       fx="48"
       fy="90.171875"
       id="radialGradient3619"
       xlink:href="#linearGradient3737"
       gradientUnits="userSpaceOnUse"
       gradientTransform="matrix(1.1573129,0,0,0.99590774,-7.5510206,0.19713193)" />
    <clipPath
       id="clipPath3613">
      <rect
         width="84"
         height="84"
         rx="6"
         ry="6"
         x="6"
         y="6"
         id="rect3615"
         style="fill:#ffffff;fill-opacity:1;fill-rule:nonzero;stroke:none" />
    </clipPath>
    <linearGradient
       x1="48"
       y1="90"
       x2="48"
       y2="5.9877172"
       id="linearGradient3617"
       xlink:href="#linearGradient3688"
       gradientUnits="userSpaceOnUse" />
    <linearGradient
       x1="45.447727"
       y1="92.539597"
       x2="45.447727"
       y2="7.0165396"
       id="ButtonShadow-0"
       gradientUnits="userSpaceOnUse"
       gradientTransform="matrix(1.0058652,0,0,0.994169,100,0)">
      <stop
         id="stop3750-8"
         style="stop-color:#000000;stop-opacity:1"
         offset="0" />
      <stop
         id="stop3752-5"
         style="stop-color:#000000;stop-opacity:0.58823532"
         offset="1" />
    </linearGradient>
    <linearGradient
       x1="32.251034"
       y1="6.1317081"
       x2="32.251034"
       y2="90.238609"
       id="linearGradient3780"
       xlink:href="#ButtonShadow-0"
       gradientUnits="userSpaceOnUse"
       gradientTransform="matrix(1.0238095,0,0,1.0119048,-1.1428571,-98.071429)" />
    <linearGradient
       x1="32.251034"
       y1="6.1317081"
       x2="32.251034"
       y2="90.238609"
       id="linearGradient3772"
       xlink:href="#ButtonShadow-0"
       gradientUnits="userSpaceOnUse"
       gradientTransform="matrix(1.0238095,0,0,1.0119048,-1.1428571,-98.071429)" />
    <linearGradient
       x1="32.251034"
       y1="6.1317081"
       x2="32.251034"
       y2="90.238609"
       id="linearGradient3725"
       xlink:href="#ButtonShadow-0"
       gradientUnits="userSpaceOnUse"
       gradientTransform="matrix(1.0238095,0,0,1.0119048,-1.1428571,-98.071429)" />
    <linearGradient
       x1="32.251034"
       y1="6.1317081"
       x2="32.251034"
       y2="90.238609"
       id="linearGradient3721"
       xlink:href="#ButtonShadow-0"
       gradientUnits="userSpaceOnUse"
       gradientTransform="translate(0,-97)" />
    <linearGradient
       x1="32.251034"
       y1="6.1317081"
       x2="32.251034"
       y2="90.238609"
       id="linearGradient3026"
       xlink:href="#ButtonShadow-0"
       gradientUnits="userSpaceOnUse"
       gradientTransform="matrix(1.0238095,0,0,1.0119048,-1.1428571,-98.071429)" />
    <linearGradient
       x1="62.336792"
       y1="79.015236"
       x2="62.336792"
       y2="12.797539"
       id="linearGradient2936"
       xlink:href="#linearGradient3694"
       gradientUnits="userSpaceOnUse"
       gradientTransform="matrix(0.87485882,0,0,0.90698611,2.762671,6.33428)" />
    <linearGradient
       x1="55"
       y1="18"
       x2="55"
       y2="112"
       id="linearGradient3831"
       xlink:href="#linearGradient3825"
       gradientUnits="userSpaceOnUse" />
    <clipPath
       clipPathUnits="userSpaceOnUse"
       id="clipPath4156-4">
      <path
         style="opacity:0.6;fill:#ffffff;fill-opacity:1;stroke:none"
         d="m 27.046336,-55.695463 -14.21366,13.321486 0.06127,0 15.653407,21.770763 10.231384,-10.546177 C 38.561832,-32.30156 27.468089,-54.819245 27.046336,-55.695463 z M 9.6468554,-39.382809 -5.2407289,-25.32124 15.987863,-7.8059573 26.372412,-18.382966 9.6468554,-39.382809 z m 31.4906096,12.951445 -9.741259,9.713584 8.944804,12.4580526 7.780753,-7.5550056 -6.984298,-14.616631 z m -49.8397109,4.378822 -13.7541661,12.9822847 26.2830181,13.84571 0.06127,-0.0617 -0.122531,-0.0617 L 13.598503,-5.4007374 -8.7022409,-22.052595 z m 38.0154159,7.400825 -9.802525,9.7752596 11.579232,9.5594001 7.62759,-7.40083 -8.669108,-11.0087257 -0.735189,-0.925104 z m 20.187073,5.6739697 -7.382526,7.2158 6.187844,8.54179 5.820249,-6.13651996 -4.625567,-9.62107004 z m -32.195166,6.32154 -9.5574606,9.49772 13.6622686,7.1849703 7.933918,-7.6783603 -12.038726,-9.00433 z m 23.311629,2.37443004 -7.10683,6.93826996 8.362778,6.9074403 5.360756,-5.6739699 -0.06127,-0.0925 -0.0919,0.12335 -6.463539,-8.20258036 z m -8.730374,8.54178036 -7.505057,7.3391599 10.353916,5.45811 c 1.397496,-1.32103 5.67514,-6.12292 5.850882,-6.32154 L 31.886332,8.2600031 z"
         id="path4158-0"
         inkscape:connector-curvature="0" />
    </clipPath>
    <linearGradient
       inkscape:collect="always"
       id="linearGradient4213-7">
      <stop
         style="stop-color:#ffffff;stop-opacity:1;"
         offset="0"
         id="stop4215-6" />
      <stop
         style="stop-color:#ffffff;stop-opacity:0;"
         offset="1"
         id="stop4217-5" />
    </linearGradient>
    <linearGradient
       y2="14.514202"
       x2="50.527882"
       y1="-28.64156"
       x1="2.7713892"
       gradientUnits="userSpaceOnUse"
       id="linearGradient4707"
       xlink:href="#linearGradient4213-7"
       inkscape:collect="always" />
    <linearGradient
       id="linearGradient4746">
      <stop
         style="stop-color:#ffffff;stop-opacity:0;"
         offset="0"
         id="stop4748" />
      <stop
         id="stop4750"
         offset="0.30000001"
         style="stop-color:#ffffff;stop-opacity:1;" />
      <stop
         style="stop-color:#ffffff;stop-opacity:1;"
         offset="0.69999999"
         id="stop4752" />
      <stop
         style="stop-color:#ffffff;stop-opacity:0;"
         offset="1"
         id="stop4754" />
    </linearGradient>
    <linearGradient
       y2="48.399288"
       x2="83.68869"
       y1="49.026676"
       x1="6.9722528"
       gradientTransform="matrix(1,0,0,0.94706844,0,0.7239241)"
       gradientUnits="userSpaceOnUse"
       id="linearGradient4705"
       xlink:href="#linearGradient4341-9-4-5-2"
       inkscape:collect="always" />
    <linearGradient
       id="linearGradient4341-9-4-5-2">
      <stop
         style="stop-color:#ffffff;stop-opacity:0;"
         offset="0"
         id="stop4343-2-5-2-4" />
      <stop
         id="stop3954-0-91"
         offset="0.30000001"
         style="stop-color:#ffffff;stop-opacity:1;" />
      <stop
         style="stop-color:#ffffff;stop-opacity:1;"
         offset="0.69999999"
         id="stop3956-8-3" />
      <stop
         style="stop-color:#ffffff;stop-opacity:0;"
         offset="1"
         id="stop4347-6-0-8-7" />
    </linearGradient>
    <linearGradient
       y2="90.120811"
       x2="45.093063"
       y1="5.2661309"
       x1="46.03289"
       gradientUnits="userSpaceOnUse"
       id="linearGradient4703"
       xlink:href="#linearGradient4341-9-4-5-2"
       inkscape:collect="always" />
    <linearGradient
       id="linearGradient4727">
      <stop
         style="stop-color:#adb9c1;stop-opacity:1;"
         offset="0"
         id="stop4729" />
      <stop
         id="stop4731"
         offset="0.25"
         style="stop-color:#ffffff;stop-opacity:1;" />
      <stop
         id="stop4733"
         offset="0.5"
         style="stop-color:#909eaa;stop-opacity:1;" />
      <stop
         style="stop-color:#f9fafb;stop-opacity:1;"
         offset="0.75"
         id="stop4735" />
      <stop
         style="stop-color:#adb3c1;stop-opacity:1;"
         offset="1"
         id="stop4737" />
    </linearGradient>
    <linearGradient
       y2="48"
       x2="94.43325"
       y1="48"
       x1="1.5667458"
       gradientUnits="userSpaceOnUse"
       id="linearGradient4699"
       xlink:href="#linearGradient6139-0"
       inkscape:collect="always" />
    <linearGradient
       id="linearGradient6139-0">
      <stop
         style="stop-color:#adb9c1;stop-opacity:1;"
         offset="0"
         id="stop6141-2" />
      <stop
         id="stop6151-0"
         offset="0.25"
         style="stop-color:#ffffff;stop-opacity:1;" />
      <stop
         id="stop6147-1"
         offset="0.5"
         style="stop-color:#909eaa;stop-opacity:1;" />
      <stop
         style="stop-color:#f9fafb;stop-opacity:1;"
         offset="0.75"
         id="stop6149-4" />
      <stop
         style="stop-color:#adb3c1;stop-opacity:1;"
         offset="1"
         id="stop6143-4" />
    </linearGradient>
    <linearGradient
       y2="48"
       x2="94.43325"
       y1="48"
       x1="1.5667458"
       gradientUnits="userSpaceOnUse"
       id="linearGradient4701"
       xlink:href="#linearGradient6139-0"
       inkscape:collect="always" />
    <linearGradient
       x1="62.336792"
       y1="79.015236"
       x2="62.336792"
       y2="12.797539"
       id="linearGradient2936-5"
       xlink:href="#linearGradient3694-3"
       gradientUnits="userSpaceOnUse"
       gradientTransform="matrix(0.87485882,0,0,0.90698611,2.762671,6.33428)" />
    <linearGradient
       id="linearGradient3694-3">
      <stop
         id="stop3696-7"
         style="stop-color:#e6e6e6;stop-opacity:1"
         offset="0" />
      <stop
         id="stop3698-6"
         style="stop-color:#f5f5f5;stop-opacity:1"
         offset="1" />
    </linearGradient>
    <linearGradient
       x1="55"
       y1="18"
       x2="55"
       y2="112"
       id="linearGradient3831-5"
       xlink:href="#linearGradient3825-2"
       gradientUnits="userSpaceOnUse" />
    <linearGradient
       id="linearGradient3825-2">
      <stop
         id="stop3827-3"
         style="stop-color:#501616;stop-opacity:1"
         offset="0" />
      <stop
         id="stop3829-5"
         style="stop-color:#501616;stop-opacity:0"
         offset="1" />
    </linearGradient>
    <filter
       inkscape:collect="always"
       id="filter4317">
      <feGaussianBlur
         inkscape:collect="always"
         stdDeviation="0.24224407"
         id="feGaussianBlur4319" />
    </filter>
    <linearGradient
       gradientUnits="userSpaceOnUse"
       xlink:href="#linearGradient4085"
       id="linearGradient4091"
       y2="120"
       x2="58"
       y1="19"
       x1="58" />
    <linearGradient
       gradientTransform="matrix(0.59136097,-0.15844727,-0.15844727,-0.59136097,103.35407,109.29989)"
       gradientUnits="userSpaceOnUse"
       xlink:href="#linearGradient3694-5"
       id="linearGradient4071"
       y2="159.47563"
       x2="-50.243786"
       y1="72.699486"
       x1="-73.494293" />
    <linearGradient
       gradientTransform="matrix(0.59136097,-0.15844727,-0.15844727,-0.59136097,103.35407,108.29989)"
       gradientUnits="userSpaceOnUse"
       xlink:href="#linearGradient3694-5"
       id="linearGradient4018"
       y2="159.47563"
       x2="-50.243786"
       y1="72.699486"
       x1="-73.494293" />
    <linearGradient
       gradientTransform="matrix(1.0238095,0,0,1.0119048,-1.1428571,-98.071429)"
       gradientUnits="userSpaceOnUse"
       xlink:href="#ButtonShadow-0-0"
       id="linearGradient3026-2"
       y2="90.238609"
       x2="32.251034"
       y1="6.1317081"
       x1="32.251034" />
    <linearGradient
       gradientTransform="translate(0,-97)"
       gradientUnits="userSpaceOnUse"
       xlink:href="#ButtonShadow-0-0"
       id="linearGradient3721-2"
       y2="90.238609"
       x2="32.251034"
       y1="6.1317081"
       x1="32.251034" />
    <linearGradient
       gradientTransform="matrix(1.0238095,0,0,1.0119048,-1.1428571,-98.071429)"
       gradientUnits="userSpaceOnUse"
       xlink:href="#ButtonShadow-0-0"
       id="linearGradient3725-7"
       y2="90.238609"
       x2="32.251034"
       y1="6.1317081"
       x1="32.251034" />
    <linearGradient
       gradientTransform="matrix(1.0238095,0,0,1.0119048,-1.1428571,-98.071429)"
       gradientUnits="userSpaceOnUse"
       xlink:href="#ButtonShadow-0-0"
       id="linearGradient3772-8"
       y2="90.238609"
       x2="32.251034"
       y1="6.1317081"
       x1="32.251034" />
    <linearGradient
       gradientTransform="matrix(1.0238095,0,0,1.0119048,-1.1428571,-98.071429)"
       gradientUnits="userSpaceOnUse"
       xlink:href="#ButtonShadow-0-0"
       id="linearGradient3780-0"
       y2="90.238609"
       x2="32.251034"
       y1="6.1317081"
       x1="32.251034" />
    <linearGradient
       gradientTransform="matrix(1.0058652,0,0,0.994169,100,0)"
       gradientUnits="userSpaceOnUse"
       id="ButtonShadow-0-0"
       y2="7.0165396"
       x2="45.447727"
       y1="92.539597"
       x1="45.447727">
      <stop
         offset="0"
         style="stop-color:#000000;stop-opacity:1"
         id="stop3750-8-7" />
      <stop
         offset="1"
         style="stop-color:#000000;stop-opacity:0.58823532"
         id="stop3752-5-5" />
    </linearGradient>
    <linearGradient
       gradientUnits="userSpaceOnUse"
       xlink:href="#linearGradient3688-5"
       id="linearGradient3617-6"
       y2="5.9877172"
       x2="48"
       y1="90"
       x1="48" />
    <clipPath
       id="clipPath3613-3">
      <rect
         style="fill:#ffffff;fill-opacity:1;fill-rule:nonzero;stroke:none"
         id="rect3615-8"
         y="6"
         x="6"
         ry="6"
         rx="6"
         height="84"
         width="84" />
    </clipPath>
    <radialGradient
       gradientTransform="matrix(1.1573129,0,0,0.99590774,-7.5510206,0.19713193)"
       gradientUnits="userSpaceOnUse"
       xlink:href="#linearGradient3737-5"
       id="radialGradient3619-0"
       fy="90.171875"
       fx="48"
       r="42"
       cy="90.171875"
       cx="48" />
    <linearGradient
       gradientUnits="userSpaceOnUse"
       xlink:href="#linearGradient3737-5"
       id="linearGradient3613-6"
       y2="138.66119"
       x2="48"
       y1="20.220806"
       x1="48" />
    <filter
       id="filter3794-8"
       color-interpolation-filters="sRGB"
       height="1.3839999"
       width="1.3839999"
       y="-0.192"
       x="-0.192">
      <feGaussianBlur
         stdDeviation="5.28"
         id="feGaussianBlur3796-2" />
    </filter>
    <linearGradient
       gradientUnits="userSpaceOnUse"
       xlink:href="#linearGradient3737-5"
       id="linearGradient3188-1"
       y2="63.893143"
       x2="36.357143"
       y1="6"
       x1="36.357143" />
    <filter
       id="filter3174-6"
       color-interpolation-filters="sRGB">
      <feGaussianBlur
         stdDeviation="1.71"
         id="feGaussianBlur3176-1" />
    </filter>
    <linearGradient
       id="linearGradient3737-5">
      <stop
         offset="0"
         style="stop-color:#ffffff;stop-opacity:1"
         id="stop3739-6" />
      <stop
         offset="1"
         style="stop-color:#ffffff;stop-opacity:0"
         id="stop3741-9" />
    </linearGradient>
    <linearGradient
       gradientTransform="scale(1.0058652,0.994169)"
       gradientUnits="userSpaceOnUse"
       id="ButtonShadow-6"
       y2="7.0165396"
       x2="45.447727"
       y1="92.539597"
       x1="45.447727">
      <stop
         offset="0"
         style="stop-color:#000000;stop-opacity:1"
         id="stop3750-7" />
      <stop
         offset="1"
         style="stop-color:#000000;stop-opacity:0.58823532"
         id="stop3752-1" />
    </linearGradient>
    <linearGradient
       id="linearGradient3688-5">
      <stop
         offset="0"
         style="stop-color:#ad0d0d;stop-opacity:1"
         id="stop3690-6" />
      <stop
         offset="1"
         style="stop-color:#e02f11;stop-opacity:1"
         id="stop3692-4" />
    </linearGradient>
    <linearGradient
       id="linearGradient3694-5">
      <stop
         offset="0"
         style="stop-color:#e6e6e6;stop-opacity:1"
         id="stop3696-3" />
      <stop
         offset="1"
         style="stop-color:#f5f5f5;stop-opacity:1"
         id="stop3698-7" />
    </linearGradient>
    <linearGradient
       id="linearGradient4085">
      <stop
         offset="0"
         style="stop-color:#782121;stop-opacity:1"
         id="stop4087" />
      <stop
         offset="1"
         style="stop-color:#782121;stop-opacity:0"
         id="stop4089" />
    </linearGradient>
    <linearGradient
       gradientTransform="matrix(0.59136097,-0.15844727,-0.15844727,-0.59136097,103.35407,108.29989)"
       gradientUnits="userSpaceOnUse"
       xlink:href="#linearGradient3694-5-5"
       id="linearGradient4018-4"
       y2="159.47563"
       x2="-50.243786"
       y1="72.699486"
       x1="-73.494293" />
    <linearGradient
       id="linearGradient3694-5-5">
      <stop
         offset="0"
         style="stop-color:#e6e6e6;stop-opacity:1"
         id="stop3696-3-1" />
      <stop
         offset="1"
         style="stop-color:#f5f5f5;stop-opacity:1"
         id="stop3698-7-3" />
    </linearGradient>
    <linearGradient
       gradientTransform="matrix(0.59136097,-0.15844727,-0.15844727,-0.59136097,103.35407,109.29989)"
       gradientUnits="userSpaceOnUse"
       xlink:href="#linearGradient3694-5-5"
       id="linearGradient4071-6"
       y2="159.47563"
       x2="-50.243786"
       y1="72.699486"
       x1="-73.494293" />
    <linearGradient
       id="linearGradient4256">
      <stop
         offset="0"
         style="stop-color:#e6e6e6;stop-opacity:1"
         id="stop4258" />
      <stop
         offset="1"
         style="stop-color:#f5f5f5;stop-opacity:1"
         id="stop4260" />
    </linearGradient>
    <linearGradient
       gradientUnits="userSpaceOnUse"
       xlink:href="#linearGradient4085-9"
       id="linearGradient4091-9"
       y2="120"
       x2="58"
       y1="19"
       x1="58" />
    <linearGradient
       id="linearGradient4085-9">
      <stop
         offset="0"
         style="stop-color:#782121;stop-opacity:1"
         id="stop4087-8" />
      <stop
         offset="1"
         style="stop-color:#782121;stop-opacity:0"
         id="stop4089-7" />
    </linearGradient>
    <linearGradient
       y2="120"
       x2="58"
       y1="19"
       x1="58"
       gradientUnits="userSpaceOnUse"
       id="linearGradient4271"
       xlink:href="#linearGradient4085-9"
       inkscape:collect="always" />
  </defs>
  <metadata
     id="metadata2413">
    <rdf:RDF>
      <cc:Work
         rdf:about="">
        <dc:format>image/svg+xml</dc:format>
        <dc:type
           rdf:resource="http://purl.org/dc/dcmitype/StillImage" />
        <dc:title></dc:title>
      </cc:Work>
    </rdf:RDF>
  </metadata>
  <g
     transform="translate(0,32)"
     inkscape:label="Layer 1"
     id="layer1">
    <g
       transform="translate(0,-32)"
       id="g4592">
      <g
         inkscape:label="ombre-base"
         id="layer2-5">
        <rect
           style="opacity:0.15;fill:#000000;fill-opacity:1;stroke:none"
           id="rect4266"
           width="96"
           height="96"
           x="0"
           y="0"
           rx="4.0634928"
           ry="4.0634933" />
        <rect
           ry="4.0211644"
           rx="4.0211644"
           y="0.5"
           x="0.5"
           height="95"
           width="95"
           id="rect4240"
           style="opacity:0.15;fill:#000000;fill-opacity:1;stroke:none" />
        <rect
           style="opacity:0.15;fill:#000000;fill-opacity:1;stroke:none"
           id="rect4264"
           width="94"
           height="94"
           x="1"
           y="1"
           rx="3.9788361"
           ry="3.9788361" />
      </g>
      <g
         inkscape:label="colore-globale"
         id="layer4-1"
         style="fill:url(#linearGradient4701);fill-opacity:1">
        <rect
           ry="4.381073"
           rx="4.4314661"
           y="1.5482712"
           x="1.5667458"
           height="92.903458"
           width="92.866508"
           id="rect4476"
           style="fill:url(#linearGradient4699);fill-opacity:1;stroke:none;display:inline" />
      </g>
      <rect
         style="opacity:0.83999999000000003;fill:#d40000;fill-opacity:1;stroke:none"
         id="rect4564"
         width="81"
         height="77"
         x="7.5"
         y="6.8000002" />
      <g
         transform="matrix(1.0404934,0,0,1.0404934,-1.9439931,-3.1879295)"
         id="g4235">
        <path
           d="m 75.463619,59.577234 c -0.1751,-0.236936 -0.45245,-0.569994 -0.76469,-0.890194 -3.24854,-3.333638 -5.674837,-7.269718 -6.981966,-11.629467 -0.06,-0.202651 -0.119999,-0.405302 -0.173876,-0.608565 -0.05633,-0.204487 -0.105305,-0.413261 -0.155508,-0.620809 -1.046315,-4.426483 -0.918358,-9.050719 0.233263,-13.559854 0,0 0.175712,-0.744482 0.221018,-1.051213 0.967948,-5.69749 -2.539565,-11.298246 -8.23032,-12.823944 -5.802182,-1.554473 -11.748853,1.698962 -13.646179,7.310738 -0.07837,0.209385 -0.238161,0.738359 -0.239998,0.746318 -1.247129,4.420361 -3.41384,8.433583 -6.475032,11.718854 -3.477513,3.650164 -7.898486,6.245442 -12.855167,7.573387 -6.037895,1.617534 -9.624999,7.834814 -8.006853,13.875157 1.620595,6.039118 7.828079,9.626223 13.870259,8.00624 4.508523,-1.151008 9.132758,-1.281415 13.561078,-0.235712 0.206324,0.05143 0.413873,0.102244 0.619585,0.157958 0.206325,0.0551 0.410812,0.115101 0.6153,0.173263 4.357912,1.308354 8.298278,3.732814 11.627017,6.983194 0.408975,0.40959 0.762237,0.69795 1.092233,0.93121 4.47485,3.41017 10.842126,3.14874 14.922086,-0.93121 4.14118,-4.13873 4.38118,-10.678052 0.76775,-15.125351 z m -27.437464,2.046713 c -5.911161,-1.583861 -9.420511,-7.662163 -7.83665,-13.573323 1.585085,-5.911773 7.662162,-9.421123 13.573323,-7.837263 5.913609,1.585085 9.421735,7.66155 7.837262,13.573323 -1.584473,5.911773 -7.660325,9.421736 -13.573935,7.837263 z"
           inkscape:connector-curvature="0"
           id="path3860"
           style="fill:url(#linearGradient4018-4);fill-opacity:1" />
        <path
           d="m 56.375,17 c -4.638502,0.13193 -8.864673,3.159182 -10.40625,7.71875 -0.07837,0.209385 -0.248163,0.710791 -0.25,0.71875 -1.247129,4.420361 -3.407558,8.433479 -6.46875,11.71875 -3.477513,3.650164 -7.887069,6.265805 -12.84375,7.59375 -5.157466,1.38167 -8.510544,6.101872 -8.375,11.21875 0.295987,-4.722895 3.555754,-8.927688 8.375,-10.21875 4.956681,-1.327945 9.366237,-3.943586 12.84375,-7.59375 3.061192,-3.285271 5.221621,-7.298389 6.46875,-11.71875 0.0018,-0.008 0.17163,-0.509365 0.25,-0.71875 1.897326,-5.611776 7.854068,-8.866973 13.65625,-7.3125 4.871375,1.306021 8.10978,5.592307 8.34375,10.375 C 68.177129,23.606427 64.83466,18.802966 59.625,17.40625 58.537091,17.114786 57.445424,16.969555 56.375,17 z m 10.3125,22.78125 c 0.0099,2.039246 0.217627,4.074681 0.6875,6.0625 0.0502,0.207548 0.09992,0.389263 0.15625,0.59375 0.05388,0.203263 0.1275,0.422349 0.1875,0.625 1.307129,4.359749 3.72021,8.291362 6.96875,11.625 0.31224,0.3202 0.60615,0.638064 0.78125,0.875 1.580876,1.945693 2.429514,4.317167 2.53125,6.6875 0.125969,-2.708084 -0.724535,-5.46385 -2.53125,-7.6875 -0.1751,-0.236936 -0.46901,-0.5548 -0.78125,-0.875 -3.24854,-3.333638 -5.661621,-7.265251 -6.96875,-11.625 -0.06,-0.202651 -0.133623,-0.421737 -0.1875,-0.625 -0.05633,-0.204487 -0.106047,-0.386202 -0.15625,-0.59375 -0.392368,-1.659931 -0.617454,-3.363449 -0.6875,-5.0625 z M 61.96875,50.5625 c -0.04416,0.735024 -0.176941,1.479778 -0.375,2.21875 -1.584473,5.911773 -7.64889,9.428223 -13.5625,7.84375 -4.71561,-1.26352 -7.895301,-5.382577 -8.1875,-10 -0.142785,5.014198 3.131252,9.645208 8.1875,11 5.91361,1.584473 11.978027,-1.931977 13.5625,-7.84375 0.2886,-1.076787 0.408066,-2.159171 0.375,-3.21875 z"
           inkscape:connector-curvature="0"
           id="path4060"
           style="opacity:0.3;fill:#000000;fill-opacity:1" />
        <path
           d="m 67.96875,29.78125 c -0.01924,0.477878 -0.04317,0.955836 -0.125,1.4375 -0.04531,0.306731 -0.21875,1.0625 -0.21875,1.0625 -0.661116,2.588577 -0.979598,5.207247 -0.9375,7.8125 0.04515,-2.273011 0.36169,-4.557932 0.9375,-6.8125 0,0 0.173444,-0.755769 0.21875,-1.0625 0.139369,-0.82035 0.164354,-1.633036 0.125,-2.4375 z M 50.4375,39.84375 c -4.72032,0.18809 -8.962118,3.415434 -10.25,8.21875 -0.320341,1.195551 -0.417831,2.391842 -0.34375,3.5625 0.02414,-0.847803 0.114681,-1.707588 0.34375,-2.5625 1.585085,-5.911773 7.651339,-9.42761 13.5625,-7.84375 4.804807,1.287882 8.031239,5.529503 8.21875,10.25 0.262999,-5.109665 -3.076022,-9.871542 -8.21875,-11.25 -1.108343,-0.296974 -2.223195,-0.418405 -3.3125,-0.375 z m -32.40625,17.125 c -0.07485,1.194285 0.01715,2.437107 0.34375,3.65625 1.620595,6.039118 7.83282,9.619983 13.875,8 4.508523,-1.151008 9.13418,-1.295703 13.5625,-0.25 0.206324,0.05143 0.419288,0.100536 0.625,0.15625 0.206325,0.0551 0.420512,0.129338 0.625,0.1875 4.357912,1.308354 8.296261,3.71837 11.625,6.96875 0.408975,0.40959 0.763754,0.70424 1.09375,0.9375 4.47485,3.41017 10.82629,3.14245 14.90625,-0.9375 2.329414,-2.328036 3.443303,-5.389929 3.3125,-8.4375 -0.125969,2.708084 -1.24191,5.368135 -3.3125,7.4375 -4.07996,4.07995 -10.4314,4.34767 -14.90625,0.9375 -0.329996,-0.23326 -0.684775,-0.52791 -1.09375,-0.9375 -3.328739,-3.25038 -7.267088,-5.660396 -11.625,-6.96875 -0.204488,-0.05816 -0.418675,-0.1324 -0.625,-0.1875 -0.205712,-0.05571 -0.418676,-0.10482 -0.625,-0.15625 -4.42832,-1.045703 -9.053977,-0.901008 -13.5625,0.25 -6.04218,1.619983 -12.254405,-1.960882 -13.875,-8 -0.235954,-0.880786 -0.320611,-1.782749 -0.34375,-2.65625 z"
           inkscape:connector-curvature="0"
           id="path4069"
           style="opacity:0.4;fill:url(#linearGradient4071-6);fill-opacity:1" />
        <path
           d="m 56.375,18 c -4.638502,0.13193 -8.864673,3.159182 -10.40625,7.71875 -0.07837,0.209385 -0.248163,0.710791 -0.25,0.71875 -1.247129,4.420361 -3.407558,8.433479 -6.46875,11.71875 -3.477513,3.650164 -7.887069,6.265805 -12.84375,7.59375 -6.037895,1.617534 -9.649396,7.834657 -8.03125,13.875 1.620595,6.039118 7.83282,9.619983 13.875,8 4.508523,-1.151008 9.13418,-1.295703 13.5625,-0.25 0.206324,0.05143 0.419288,0.100536 0.625,0.15625 0.206325,0.0551 0.420512,0.129338 0.625,0.1875 4.357912,1.308354 8.296261,3.71837 11.625,6.96875 0.408975,0.40959 0.763754,0.70424 1.09375,0.9375 4.47485,3.41017 10.82629,3.14245 14.90625,-0.9375 4.14118,-4.13873 4.39468,-10.677701 0.78125,-15.125 -0.1751,-0.236936 -0.46901,-0.5548 -0.78125,-0.875 -3.24854,-3.333638 -5.661621,-7.265251 -6.96875,-11.625 -0.06,-0.202651 -0.133623,-0.421737 -0.1875,-0.625 -0.05633,-0.204487 -0.106047,-0.386202 -0.15625,-0.59375 -1.046315,-4.426483 -0.901621,-9.053365 0.25,-13.5625 0,0 0.173444,-0.755769 0.21875,-1.0625 C 68.811698,25.52126 65.315755,19.931948 59.625,18.40625 58.537091,18.114786 57.445424,17.969555 56.375,18 z m 0.03125,1.0625 c 0.966465,-0.02631 1.9431,0.07734 2.9375,0.34375 5.186023,1.390379 8.380917,6.439789 7.5,11.625 A 1.0278728,1.0278728 0 0 0 66.8125,31.0625 c -0.02479,0.167828 -0.177359,0.922615 -0.1875,0.96875 -3.16e-4,0.0014 0,0.03125 0,0.03125 -1.181134,4.642945 -1.335704,9.438128 -0.25,14.03125 0.05187,0.214428 0.10259,0.398809 0.15625,0.59375 0.0029,0.01103 -0.003,0.02031 0,0.03125 0.06431,0.237483 0.137529,0.456223 0.1875,0.625 1.358244,4.530237 3.865866,8.621785 7.21875,12.0625 0.299948,0.307594 0.609238,0.633064 0.71875,0.78125 a 1.0278728,1.0278728 0 0 0 0,0.03125 c 3.287681,4.046376 3.085662,9.97907 -0.6875,13.75 -3.718739,3.718729 -9.48118,3.95402 -13.5625,0.84375 A 1.0278728,1.0278728 0 0 0 60.375,74.78125 c -0.280394,-0.198198 -0.595626,-0.438815 -0.96875,-0.8125 a 1.0278728,1.0278728 0 0 0 0,-0.03125 C 55.969279,70.581436 51.871241,68.109266 47.34375,66.75 a 1.0278728,1.0278728 0 0 0 0,-0.03125 c -0.157526,-0.0448 -0.382246,-0.121228 -0.625,-0.1875 -0.01118,-0.0031 -0.01992,0.003 -0.03125,0 C 46.467593,66.472443 46.247998,66.421239 46.0625,66.375 41.457745,65.287634 36.651771,65.437421 32,66.625 a 1.0278728,1.0278728 0 0 0 -0.03125,0 C 26.46268,68.101245 20.851549,64.846085 19.375,59.34375 17.901377,53.842894 21.186507,48.2237 26.6875,46.75 31.822867,45.374183 36.392329,42.661784 40,38.875 a 1.0278728,1.0278728 0 0 0 0,-0.03125 c 3.181357,-3.414232 5.431536,-7.56256 6.71875,-12.125 a 1.0278728,1.0278728 0 0 0 0,-0.0625 c 9.18e-4,-0.004 0.01121,-0.0072 0.0625,-0.15625 0.05129,-0.149085 0.126058,-0.325585 0.15625,-0.40625 a 1.0278728,1.0278728 0 0 0 0,-0.03125 c 1.295105,-3.830571 4.677893,-6.463248 8.5,-6.9375 0.31748,-0.03939 0.646595,-0.05373 0.96875,-0.0625 z m -6,19.75 c -0.398744,0.01454 -0.797335,0.03939 -1.1875,0.09375 -4.678291,0.651803 -8.734476,4.03852 -10.03125,8.875 -1.727793,6.448332 2.115935,13.116431 8.5625,14.84375 6.450472,1.728318 13.115894,-2.115757 14.84375,-8.5625 1.72837,-6.448664 -2.113923,-13.115272 -8.5625,-14.84375 -1.2056,-0.323033 -2.428767,-0.449885 -3.625,-0.40625 z m 0.03125,1.03125 c 1.089305,-0.0434 2.204157,0.07803 3.3125,0.375 5.913609,1.585085 9.428223,7.650727 7.84375,13.5625 -1.584473,5.911773 -7.64889,9.428223 -13.5625,7.84375 -5.911161,-1.583861 -9.427611,-7.65134 -7.84375,-13.5625 1.287882,-4.803316 5.52968,-8.03066 10.25,-8.21875 z"
           inkscape:connector-curvature="0"
           id="path4078"
           style="opacity:0.25;fill:url(#linearGradient4271);fill-opacity:1" />
      </g>
      <g
         style="display:inline"
         transform="translate(0,48)"
         inkscape:label="struttura"
         id="layer1-1">
        <g
           id="g3540"
           transform="matrix(1.1078665,0,0,1.0952682,-3.7110067,-52.373354)">
          <g
             id="g4426"
             transform="matrix(1.0052356,0,0,1.0052432,-0.09130939,-0.47285394)">
            <g
               id="g4403"
               transform="matrix(1.0000054,0,0,0.99791236,-18.811946,8.9081587)">
              <g
                 transform="matrix(-0.93513772,0,0,0.50741219,164.9173,-44.868776)"
                 id="g3430">
                <g
                   transform="matrix(-0.6357251,0.0421819,-0.02490483,-1.0515558,92.671979,115.53352)"
                   id="g3446" />
              </g>
              <g
                 id="g4362"
                 transform="matrix(0.55214779,0,0,0.60391504,38.00101,36.337639)" />
              <g
                 id="g4370"
                 transform="matrix(1.0020877,0,0,0.50741219,-77.166961,-44.966244)">
                <g
                   id="g4372"
                   transform="matrix(-0.6357251,0.0421819,-0.02490483,-1.0515558,92.671979,115.53352)" />
              </g>
              <g
                 transform="matrix(-0.54985887,0,0,0.60140527,73.748586,27.648602)"
                 id="g4395">
                <path
                   id="path4397"
                   style="font-size:medium;font-style:normal;font-variant:normal;font-weight:normal;font-stretch:normal;text-indent:0;text-align:start;text-decoration:none;line-height:normal;letter-spacing:normal;word-spacing:normal;text-transform:none;direction:ltr;block-progression:tb;writing-mode:lr-tb;text-anchor:start;baseline-shift:baseline;color:#000000;fill:none;stroke:#000000;stroke-width:0.91645002;stroke-miterlimit:4;stroke-opacity:1;stroke-dasharray:none;marker:none;visibility:visible;display:inline;overflow:visible;enable-background:accumulate;font-family:Sans;-inkscape-font-specification:Sans"
                   d="m 81.416281,73.57243 7.015717,6.674207 c -0.04232,3.967765 0.267984,3.842136 0.209905,6.856172 l -0.233189,-6.885985 -6.851206,-6.554195 c 0.06319,0.02357 -0.14122,-0.0902 -0.141227,-0.0902 z m 0.128518,-116.84693 -132.42878,0 0,116.886744 132.42878,0 z m -0.0068,0.182069 c -0.06596,-0.193099 0.133853,0.166431 -0.130188,-0.06464 l 6.96657,-5.577062 c -3.856986,3.163036 -3.790312,3.114807 -6.836382,5.641697 z M -57.451698,87.684046 c -0.04912,-2.679077 -0.07535,-3.505172 -0.194086,-7.549371 l 6.716657,-6.538949 c -2.13931,2.072124 -2.544718,2.569935 -6.730646,6.617394 0.146859,4.794939 0.163153,4.762112 0.208075,7.470926 z m 6.62685,-131.022557 c -3.898951,-2.68663 -3.781384,-2.595646 -7.538651,-5.119524 3.56574,2.36666 3.494875,2.295153 7.538651,5.119524 z m 133.851173,-7.36451 -135.391831,0 c -4.284327,0 -7.73344,2.768522 -7.73344,6.207448 l 0,127.44745 c 0,3.438927 3.449113,6.207449 7.73344,6.207449 l 135.391831,0 c 4.284326,0 7.73344,-2.768522 7.73344,-6.207449 l 0,-127.44745 c 0,-3.438926 -3.449114,-6.207448 -7.73344,-6.207448 z"
                   inkscape:connector-curvature="0"
                   sodipodi:nodetypes="cccccccccccccccccccccccsssssssss" />
              </g>
            </g>
          </g>
          <path
             style="opacity:0.75605636;fill:url(#linearGradient4703);fill-opacity:1;stroke:none"
             d="m 8.8575421,5.6172779 c -2.2421114,0 -4.0553236,1.7633849 -4.0553236,3.9269464 l 0,76.7690367 c 0,2.163561 1.8132122,3.926947 4.0553236,3.926947 l 75.7359079,0 c 2.242112,0 4.055324,-1.763386 4.055324,-3.926947 l 0,-76.7690367 c 0,-2.1635615 -1.813212,-3.9269464 -4.055324,-3.9269464 l -75.7359079,0 z m -2.5208768,1.7698914 80.7776617,0 0,76.9902727 -80.7776617,0 0,-76.9902727 z"
             id="rect4474"
             inkscape:connector-curvature="0" />
          <path
             inkscape:connector-curvature="0"
             id="path4520"
             d="m 8.8575421,6.0438707 c -2.2421114,0 -4.0553236,1.6700462 -4.0553236,3.7190869 l 0,72.7055314 c 0,2.04904 1.8132122,3.719088 4.0553236,3.719088 l 75.7359079,0 c 2.242112,0 4.055324,-1.670048 4.055324,-3.719088 l 0,-72.7055314 c 0,-2.0490407 -1.813212,-3.7190869 -4.055324,-3.7190869 l -75.7359079,0 z m -2.5208768,1.6762083 80.7776617,0 0,72.915057 -80.7776617,0 0,-72.915057 z"
             style="opacity:0.90363638;fill:url(#linearGradient4705);fill-opacity:1;stroke:none" />
          <path
             style="fill:#000000;fill-opacity:0.51937986;stroke:none"
             d="m 4.8570204,80.162841 0,5.640899 c 0,2.40151 1.924933,4.336651 4.3293319,4.336651 l 75.0782877,0 c 2.404399,0 4.329332,-1.935141 4.329332,-4.336651 l 0,-5.640899 c 0,2.401505 -1.924933,4.336646 -4.329332,4.336646 l -75.0782877,0 c -2.4043989,0 -4.3293319,-1.935141 -4.3293319,-4.336646 z"
             id="rect4466"
             inkscape:connector-curvature="0" />
        </g>
      </g>
      <g
         inkscape:label="luci-superiori"
         id="layer7">
        <rect
           clip-path="url(#clipPath4156-4)"
           ry="3.9569881"
           rx="3.9569874"
           y="-30"
           x="2"
           height="92"
           width="92"
           id="rect4146"
           style="opacity:0.8;fill:url(#linearGradient4707);fill-opacity:1;stroke:none"
           transform="matrix(0.99891115,0,0,1,0.0021777,32.042727)" />
        <path
           inkscape:connector-curvature="0"
           id="rect4190"
           d="M 5.7458937,1.787 C 3.5462186,1.787 1.7683159,3.6473696 1.763558,5.9429206 L 1.6,84.85541 c 2.1117646,2.843617 1.83765,2.719224 5.3536755,3.021845 C 8.0064488,79.013649 16.427783,56.045295 34.331254,36.838908 49.801067,20.243287 71.107267,5.1575498 92.385215,5.1575498 c 0.538595,0 1.062975,0.022399 1.599205,0.032724 C 93.650213,3.2524245 92.052181,1.787 90.096156,1.787 z"
           style="opacity:0.2;fill:#ffffff;fill-opacity:1;stroke:none"
           sodipodi:nodetypes="ssccsscss" />
      </g>
      <g
         id="g4213"
         transform="translate(-129.88896,59.239351)">
        <g
           style="display:none"
           id="layer2-8">
          <rect
             style="opacity:0.9;fill:url(#ButtonShadow-6);fill-opacity:1;fill-rule:nonzero;stroke:none;filter:url(#filter3174-6)"
             id="rect3745-8"
             y="7"
             x="5"
             ry="6"
             rx="6"
             height="85"
             width="86" />
        </g>
      </g>
    </g>
  </g>
  <g
     id="layer2"
     style="display:none">
    <rect
       width="86"
       height="85"
       rx="6"
       ry="6"
       x="5"
       y="7"
       id="rect3745"
       style="opacity:0.9;fill:url(#ButtonShadow);fill-opacity:1;fill-rule:nonzero;stroke:none;filter:url(#filter3174)" />
  </g>
  <g
     id="layer5" />
</svg>
