<?xml version="1.0" encoding="UTF-8" standalone="no"?>
<svg
   xmlns:dc="http://purl.org/dc/elements/1.1/"
   xmlns:cc="http://creativecommons.org/ns#"
   xmlns:rdf="http://www.w3.org/1999/02/22-rdf-syntax-ns#"
   xmlns:svg="http://www.w3.org/2000/svg"
   xmlns="http://www.w3.org/2000/svg"
   xmlns:xlink="http://www.w3.org/1999/xlink"
   xmlns:sodipodi="http://sodipodi.sourceforge.net/DTD/sodipodi-0.dtd"
   xmlns:inkscape="http://www.inkscape.org/namespaces/inkscape"
   width="96"
   height="96"
   version="1.1"
   viewBox="0 0 72 72"
   id="svg15"
   sodipodi:docname="anatine.svg"
   inkscape:version="0.92.2 2405546, 2018-03-11">
  <metadata
     id="metadata19">
    <rdf:RDF>
      <cc:Work
         rdf:about="">
        <dc:format>image/svg+xml</dc:format>
        <dc:type
           rdf:resource="http://purl.org/dc/dcmitype/StillImage" />
        <dc:title></dc:title>
        <dc:date>2019</dc:date>
        <dc:creator>
          <cc:Agent>
            <dc:title>Cristian Pozzessere  &lt; ilnanny &gt;</dc:title>
          </cc:Agent>
        </dc:creator>
        <dc:subject>
          <rdf:Bag>
            <rdf:li>ilnanny</rdf:li>
            <rdf:li>lila_hd</rdf:li>
            <rdf:li>lila-hd</rdf:li>
            <rdf:li>lila hd icon theme</rdf:li>
            <rdf:li>Lila-HD-Icon-Theme lila hd icon lila icon</rdf:li>
          </rdf:Bag>
        </dc:subject>
        <dc:description>Playing with Inkscape on Gnu/Linux O. S.</dc:description>
        <dc:contributor>
          <cc:Agent>
            <dc:title>In the night, alone like a dog.</dc:title>
          </cc:Agent>
        </dc:contributor>
      </cc:Work>
    </rdf:RDF>
  </metadata>
  <sodipodi:namedview
     pagecolor="#ffffff"
     bordercolor="#666666"
     borderopacity="1"
     objecttolerance="10"
     gridtolerance="10"
     guidetolerance="10"
     inkscape:pageopacity="0"
     inkscape:pageshadow="2"
     inkscape:window-width="640"
     inkscape:window-height="480"
     id="namedview17"
     showgrid="false"
     inkscape:zoom="7.96875"
     inkscape:cx="48"
     inkscape:cy="48"
     inkscape:current-layer="g873" />
  <defs
     id="defs7">
    <linearGradient
       id="linearGradient1117"
       x1="-248.92999"
       x2="249.88"
       y1="515.33002"
       y2="249.02"
       gradientUnits="userSpaceOnUse">
      <stop
         stop-color="#49ade5"
         offset="0"
         id="stop2" />
      <stop
         stop-color="#357aef"
         offset="1"
         id="stop4" />
    </linearGradient>
    <linearGradient
       inkscape:collect="always"
       xlink:href="#linearGradient6139-0"
       id="linearGradient4071"
       gradientUnits="userSpaceOnUse"
       gradientTransform="matrix(1.1059895,0,0,1.1071426,-5.2385469,-3.3706609)"
       x1="6"
       y1="47.000011"
       x2="90"
       y2="47.000011" />
    <linearGradient
       id="linearGradient6139-0">
      <stop
         id="stop6141-2"
         offset="0"
         style="stop-color:#b2babc;stop-opacity:1" />
      <stop
         style="stop-color:#ffffff;stop-opacity:1;"
         offset="0.25"
         id="stop6151-0" />
      <stop
         style="stop-color:#96a1a4;stop-opacity:1"
         offset="0.5"
         id="stop6147-1" />
      <stop
         id="stop6149-4"
         offset="0.75"
         style="stop-color:#fbf9f9;stop-opacity:1;" />
      <stop
         id="stop6143-4"
         offset="1"
         style="stop-color:#b2b9bc;stop-opacity:1" />
    </linearGradient>
    <linearGradient
       gradientTransform="matrix(0.99895835,0,0,0.99999997,-0.10104801,0.66505199)"
       inkscape:collect="always"
       xlink:href="#linearGradient3832-0-6-1-1"
       id="linearGradient4129"
       x1="1.5"
       y1="88.171875"
       x2="94.5"
       y2="88.171875"
       gradientUnits="userSpaceOnUse" />
    <linearGradient
       id="linearGradient3832-0-6-1-1">
      <stop
         style="stop-color:#000000;stop-opacity:1;"
         offset="0"
         id="stop3834-6-3-7-1" />
      <stop
         id="stop3872-2-4"
         offset="0.1"
         style="stop-color:#000000;stop-opacity:0.58823532;" />
      <stop
         style="stop-color:#000000;stop-opacity:0.58823532;"
         offset="0.89999998"
         id="stop3844-6-2-7-6" />
      <stop
         style="stop-color:#000000;stop-opacity:1;"
         offset="1"
         id="stop3836-5-0-2-9" />
    </linearGradient>
    <radialGradient
       inkscape:collect="always"
       xlink:href="#linearGradient3737"
       id="radialGradient7462"
       gradientUnits="userSpaceOnUse"
       gradientTransform="matrix(0.97411799,0,0,0.04919072,33.762335,80.831749)"
       cx="13.948145"
       cy="44.892841"
       fx="13.948145"
       fy="44.892841"
       r="43.199203" />
    <linearGradient
       id="linearGradient3737">
      <stop
         offset="0"
         style="stop-color:#ffffff;stop-opacity:1"
         id="stop3739" />
      <stop
         offset="1"
         style="stop-color:#ffffff;stop-opacity:0"
         id="stop3741" />
    </linearGradient>
    <radialGradient
       inkscape:collect="always"
       xlink:href="#linearGradient3737"
       id="radialGradient7464"
       gradientUnits="userSpaceOnUse"
       gradientTransform="matrix(0.88832662,0,0,0.04913948,32.209544,-89.973331)"
       cx="13.948145"
       cy="44.892841"
       fx="13.948145"
       fy="44.892841"
       r="43.199203" />
    <linearGradient
       gradientTransform="matrix(1.0041884,0,0,1.0052356,-0.21820995,-0.04755458)"
       inkscape:collect="always"
       xlink:href="#linearGradient3737"
       id="linearGradient4767"
       gradientUnits="userSpaceOnUse"
       x1="2.7713892"
       y1="-28.64156"
       x2="50.527882"
       y2="14.514202" />
    <clipPath
       id="clipPath4156-4-1"
       clipPathUnits="userSpaceOnUse">
      <path
         inkscape:connector-curvature="0"
         id="path4158-0-8"
         d="m 27.046336,-55.695463 -14.21366,13.321486 h 0.06127 l 15.653407,21.770763 10.231384,-10.546177 C 38.561832,-32.30156 27.468089,-54.819245 27.046336,-55.695463 Z M 9.6468554,-39.382809 -5.2407289,-25.32124 15.987863,-7.8059573 26.372412,-18.382966 Z m 31.4906096,12.951445 -9.741259,9.713584 8.944804,12.4580526 7.780753,-7.5550056 z m -49.8397109,4.378822 -13.7541661,12.9822847 26.2830181,13.84571 0.06127,-0.0617 -0.122531,-0.0617 L 13.598503,-5.4007374 -8.7022409,-22.052595 Z m 38.0154159,7.400825 -9.802525,9.7752596 11.579232,9.5594001 7.62759,-7.40083 -8.669108,-11.0087257 z m 20.187073,5.6739697 -7.382526,7.2158 6.187844,8.54179 5.820249,-6.13651996 z m -32.195166,6.32154 -9.5574606,9.49772 13.6622686,7.1849703 7.933918,-7.6783603 z m 23.311629,2.37443004 -7.10683,6.93826996 8.362778,6.9074403 5.360756,-5.6739699 -0.06127,-0.0925 -0.0919,0.12335 -6.463539,-8.20258036 z m -8.730374,8.54178036 -7.505057,7.3391599 10.353916,5.45811 c 1.397496,-1.32103 5.67514,-6.12292 5.850882,-6.32154 z"
         style="opacity:0.6;fill:#ffffff;fill-opacity:1;stroke:none" />
    </clipPath>
    <linearGradient
       id="ButtonShadow-16"
       gradientTransform="scale(1.0058652,0.994169)"
       x1="45.447727"
       y1="92.539597"
       x2="45.447727"
       y2="7.0165396"
       gradientUnits="userSpaceOnUse">
      <stop
         style="stop-color:#000000;stop-opacity:1;"
         offset="0"
         id="stop3750-6" />
      <stop
         style="stop-color:#000000;stop-opacity:0.58823532;"
         offset="1"
         id="stop3752-4" />
    </linearGradient>
    <clipPath
       clipPathUnits="userSpaceOnUse"
       id="clipPath4355-7">
      <rect
         style="fill:#ffffff;fill-opacity:1;fill-rule:nonzero;stroke:none"
         id="rect4357-5"
         width="84"
         height="80"
         x="6"
         y="6"
         rx="6"
         ry="6" />
    </clipPath>
    <clipPath
       clipPathUnits="userSpaceOnUse"
       id="clipPath4355-9">
      <rect
         style="fill:#ffffff;fill-opacity:1;fill-rule:nonzero;stroke:none"
         id="rect4357-1"
         width="84"
         height="80"
         x="6"
         y="6"
         rx="6"
         ry="6" />
    </clipPath>
    <clipPath
       clipPathUnits="userSpaceOnUse"
       id="clipPath4355-1">
      <rect
         style="fill:#ffffff;fill-opacity:1;fill-rule:nonzero;stroke:none"
         id="rect4357-9"
         width="84"
         height="80"
         x="6"
         y="6"
         rx="6"
         ry="6" />
    </clipPath>
    <clipPath
       clipPathUnits="userSpaceOnUse"
       id="clipPath3943-52-0">
      <path
         id="path3945-4-1"
         d="m 69.78125,20.84375 -5,3.4375 c 5.586891,5.537137 9,13.327613 9,21.8125 0,8.434478 -3.37723,16.095981 -8.90625,21.625 l 5,3.4375 C 76.078226,64.5762 80,55.843726 80,46.09375 c 2e-6,-9.796556 -3.962955,-18.660417 -10.21875,-25.25 z M 40,24.0625 28.90625,36.21875 H 21.5 c -0.823281,0 -1.5,0.676717 -1.5,1.5 v 1 14.84375 1 c 0,0.823281 0.684121,1.610161 1.5,1.5 h 7.40625 L 40,68 V 66 26.0625 Z m 20.59375,3.28125 -5,3.4375 L 55.5,30.875 c 3.93815,3.890071 6.40625,9.25018 6.40625,15.21875 0,5.920869 -2.42961,11.148358 -6.3125,15.03125 l 0.09375,0.09375 5.09375,3.4375 c 4.475428,-4.908367 7.25,-11.402005 7.25,-18.5625 0,-7.230696 -2.87904,-13.83107 -7.4375,-18.75 z m -9.25,6.5 -5.21875,3.625 c 2.222384,2.217802 3.71875,5.239596 3.71875,8.625 0,3.336509 -1.458847,6.227712 -3.625,8.4375 l 5.21875,3.625 c 2.822412,-3.236947 4.53125,-7.43414 4.53125,-12.0625 0,-4.672601 -1.754155,-9.001351 -4.625,-12.25 z"
         style="color:#000000;display:inline;overflow:visible;visibility:visible;opacity:0.8;fill:#ff00ff;fill-opacity:1;fill-rule:nonzero;stroke:none;stroke-width:1;marker:none;enable-background:accumulate"
         inkscape:connector-curvature="0" />
    </clipPath>
    <linearGradient
       id="linearGradient1117-3"
       x1="-248.92999"
       x2="249.88"
       y1="515.33002"
       y2="249.02"
       gradientUnits="userSpaceOnUse">
      <stop
         stop-color="#49ade5"
         offset="0"
         id="stop2-6" />
      <stop
         stop-color="#357aef"
         offset="1"
         id="stop4-7" />
    </linearGradient>
  </defs>
  <g
     transform="matrix(0.75,0,0,0.75,0,-769.88978)"
     id="layer1"
     inkscape:label="Livello 1">
    <g
       id="g2574"
       style="display:inline"
       transform="translate(-0.14895645,1026.1047)">
      <g
         transform="translate(0.2500015,-0.250026)"
         id="g873">
        <path
           inkscape:connector-curvature="0"
           id="path3288"
           d="M 88.827522,0.915026 H 6.9703768 c -3.7790623,0 -6.8214209,3.0423565 -6.8214209,6.8214257 V 89.593598 c 0,3.779071 3.0423586,6.821428 6.8214209,6.821428 H 88.827522 c 3.779072,0 6.821432,-3.042357 6.821432,-6.821428 V 7.7364517 c 0,-3.7790692 -3.04236,-6.8214257 -6.821432,-6.8214257 z"
           style="display:inline;opacity:0.15;fill:#000000;fill-opacity:1;fill-rule:nonzero;stroke:none;stroke-width:0.99947876" />
        <path
           style="display:inline;opacity:0.15;fill:#000000;fill-opacity:1;fill-rule:nonzero;stroke:none;stroke-width:0.99947876"
           d="M 88.188015,1.6611196 H 7.6098844 c -3.7200154,0 -6.71483658,2.9948194 -6.71483658,6.7148408 V 88.954089 c 0,3.720023 2.99482118,6.714843 6.71483658,6.714843 H 88.188015 c 3.720024,0 6.714845,-2.99482 6.714845,-6.714843 V 8.3759604 c 0,-3.7200214 -2.994821,-6.7148408 -6.714845,-6.7148408 z"
           id="path4085"
           inkscape:connector-curvature="0" />
        <path
           inkscape:connector-curvature="0"
           id="rect4251-1"
           d="M 87.5485,2.4072135 H 8.2494003 c -3.6609756,0 -6.6082583,2.9472821 -6.6082583,6.6082567 V 88.314581 c 0,3.660975 2.9472827,6.608259 6.6082583,6.608259 H 87.5485 c 3.660978,0 6.608258,-2.947284 6.608258,-6.608259 V 9.0154702 c 0,-3.6609746 -2.94728,-6.6082567 -6.608258,-6.6082567 z"
           style="display:inline;fill:url(#linearGradient4071);fill-opacity:1;fill-rule:nonzero;stroke:none;stroke-width:0.99947876" />
        <rect
           style="opacity:1;fill:#e2e6ea;fill-opacity:0.97169812;stroke:none;stroke-width:0.71123183;stroke-miterlimit:4;stroke-dasharray:none;stroke-opacity:1"
           id="rect862"
           width="84.557999"
           height="77.021454"
           x="5.8397818"
           y="7.1843128"
           rx="2.3669415"
           ry="2.9980392" />
        <path
           style="color:#000000;font-style:normal;font-variant:normal;font-weight:normal;font-stretch:normal;font-size:medium;line-height:normal;font-family:Sans;-inkscape-font-specification:Sans;text-indent:0;text-align:start;text-decoration:none;text-decoration-line:none;letter-spacing:normal;word-spacing:normal;text-transform:none;writing-mode:lr-tb;direction:ltr;baseline-shift:baseline;text-anchor:start;display:inline;overflow:visible;visibility:visible;fill:#202223;fill-opacity:0.93689324;stroke:none;stroke-width:2.37426257;marker:none;enable-background:accumulate"
           d="m 9.9228616,5.6198544 c -3.1003887,0 -5.6384442,2.5262833 -5.6384442,5.6165966 v 68.917174 c 0,3.090315 2.5380555,5.616599 5.6384442,5.616599 H 86.314686 c 3.100391,0 5.638448,-2.526284 5.638448,-5.616599 V 11.236451 c 0,-3.0903123 -2.538057,-5.6165966 -5.638448,-5.6165966 z m 0,2.3073585 H 86.314686 c 1.878266,0 3.334565,1.4723861 3.334565,3.3092381 v 68.917174 c 0,1.836856 -1.456299,3.309239 -3.334565,3.309239 H 9.9228616 c -1.8782653,0 -3.3345636,-1.472383 -3.3345636,-3.309239 V 11.236451 c 0,-1.836852 1.4562983,-3.3092381 3.3345636,-3.3092381 z"
           id="path4989"
           inkscape:connector-curvature="0" />
        <path
           id="path4118"
           d="m 1.641141,82.332506 v 5.96875 c 0,3.660975 2.9606059,6.621583 6.6215813,6.621583 H 87.53518 c 3.660978,0 6.621588,-2.960608 6.621588,-6.621583 v -5.96875 c 0,3.660975 -2.96061,6.621583 -6.621588,6.621583 H 8.2627223 c -3.6609754,0 -6.6215813,-2.960608 -6.6215813,-6.621583 z"
           style="display:inline;opacity:0.65818182;fill:url(#linearGradient4129);fill-opacity:1;fill-rule:nonzero;stroke:none;stroke-width:0.99947876"
           inkscape:connector-curvature="0" />
        <rect
           ry="4.25"
           rx="4.25"
           y="80.747047"
           x="5.4959588"
           height="4.2278652"
           width="83.811203"
           id="rect4131"
           style="opacity:0.55;fill:url(#radialGradient7462);fill-opacity:1;stroke:none;stroke-width:0.99947876" />
        <rect
           transform="rotate(90)"
           style="opacity:0.669;fill:url(#radialGradient7464);fill-opacity:1;stroke:none;stroke-width:0.99947876"
           id="rect4141"
           width="76.350258"
           height="4.2278652"
           x="6.4460635"
           y="-89.764748"
           rx="4.245573"
           ry="4.245573" />
        <g
           id="g24"
           transform="matrix(0.21627766,0,0,0.21627766,7.5655719,4.2467255)">
          <path
             id="path9"
             d="m 160.49,359.86 c -37.664,-3.8516 -63.887,-14.629 -83.27,-34.199 -7.8359,-7.9102 -13.152,-15.18 -17.57,-24.023 -9.3594,-18.707 -12.289,-39.75 -7.7109,-55.316 4.5547,-15.477 14.914,-32.543 29.496,-48.598 8.0977,-8.9023 12.195,-14.688 15.941,-21.957 4.5156,-8.7617 5.0039,-14.629 4.625,-22.766 -0.37109,-7.8945 -2.0625,-11.289 -6.3945,-14.891 -4.1016,-3.3945 -5.7969,-5.2812 -18.496,-4.668 -12.395,0.58984 -18.473,-0.16797 -24.395,-3.0234 -4.5898,-2.2188 -6.2188,-4.7266 -4.7969,-7.4023 7.3828,-5.7578 9.9688,-12.055 18.082,-14.988 -11.871,-10.125 -23.594,-20.719 -24,-35.844 0.83594,-8.1016 8.332,-6.1523 8.332,-6.1523 11.754,2.3828 23.902,4.7773 34.973,5.1484 3.1836,-0.42969 6.5391,-1.2773 7.457,-1.8867 0.91797,-0.60547 3.4219,-4.1953 5.5625,-7.9766 8.3438,-14.738 17.18,-24.258 27.082,-29.164 11.406,-5.6523 27.547,-8.6797 42.863,-8.0312 18.418,0.77344 34.059,7.1445 46.832,19.066 8.7812,8.1914 14.594,10.242 22.945,8.0898 5.875,-1.5156 6.0078,-1.5078 6.0078,0.33594 0,2.4219 -1.9336,5.5586 -4.8984,7.9531 l -2.7344,2.207 2.7539,1.6367 c 3.7969,2.2539 3.3477,4.0664 -1.168,4.7148 -3.7617,0.54297 -6.582,1.7891 -6.582,2.9141 0,0.39453 0.53906,3.832 1.1992,7.6367 1.6211,9.332 1.043,27.414 -1.1562,36.336 -3.4102,13.836 -8.582,23.582 -17.402,32.832 -6.8633,6.2422 -26.254,19.043 -28.066,20.184 0.85156,0 8.2773,-0.43359 13.25,0.004 18.203,1.6133 30.879,4.6836 49.16,13.199 17.266,8.0469 24.602,8.9141 34.156,4.0391 6.0977,-3.1094 14.824,-9.7422 21.348,-18.535 5.5781,-7.5117 8.9023,-10.703 14.086,-10.703 5.0781,0 8.7227,3.3477 12.566,9.2109 5.4414,8.3047 8.4062,14.234 10.52,28.699 1.5078,10.34 1.0859,34.605 -0.78516,44.914 -11.176,61.594 -50.484,103.06 -110.5,116.57 -16.195,3.6445 -22.723,4.3008 -45.168,4.5352 -11.645,0.12109 -22.508,0.082 -24.141,-0.0859 z"
             style="fill:url(#linearGradient1117-3)"
             inkscape:connector-curvature="0" />
          <path
             id="path11"
             d="m 66.618,161.72 c -0.86044,0.76697 -1.7547,1.533 -2.7266,2.291 -1.8958,3.5677 0.27668,6.9108 6.3965,9.8692 7.8958,3.8073 15.999,4.8177 32.525,4.0312 16.932,-0.81772 19.193,1.6986 24.662,6.2246 5.7283,4.7624 7.9901,9.2606 8.5098,19.602 0.21621,-3.0896 0.17796,-6.262 0.0156,-9.748 -0.49479,-10.526 -2.7494,-15.051 -8.5254,-19.854 -5.4688,-4.526 -7.7298,-7.0423 -24.662,-6.2246 -16.526,0.78644 -24.63,-0.22397 -32.525,-4.0312 -1.4471,-0.69955 -2.6659,-1.4196 -3.6699,-2.1602 z m 389.34,115.88 c -0.17532,11.838 -0.94159,23.801 -2.2226,30.859 -14.901,82.125 -67.313,137.41 -147.33,155.42 -21.594,4.8594 -30.298,5.7344 -60.225,6.0469 -15.526,0.16145 -30.01,0.10863 -32.188,-0.11523 l -0.01,-0.0156 c -50.219,-5.1354 -85.182,-19.504 -111.03,-45.598 -10.448,-10.547 -17.537,-20.24 -23.428,-32.031 -7.726,-15.442 -12.162,-32.078 -12.975,-47.436 -0.99269,17.923 3.5354,38.569 12.975,57.436 5.8906,11.792 12.98,21.484 23.428,32.031 25.844,26.094 60.807,40.462 111.03,45.598 l 0.01,0.0156 c 2.1771,0.22386 16.661,0.27668 32.188,0.11523 29.927,-0.31251 38.631,-1.1875 60.225,-6.0469 80.016,-18.01 132.43,-73.297 147.33,-155.42 1.6477,-9.078 2.4453,-26.257 2.2226,-40.859 z"
             transform="scale(0.75)"
             inkscape:connector-curvature="0"
             style="opacity:0.3;stroke-width:1.33329999" />
          <path
             id="path13"
             d="M 220.52,32.051 C 201.273,31.80966 181.467,35.8 167.209,42.865 154.006,49.4067 142.225,62.099 131.1,81.75 c -2.8542,5.0417 -6.194,9.8275 -7.418,10.635 -1.224,0.81251 -5.6966,1.9427 -9.9414,2.5156 -14.76,-0.49479 -30.959,-3.6862 -46.631,-6.8633 0,0 -9.9948,-2.599 -11.109,8.2031 0.06167,2.2959 0.32698,4.5089 0.75781,6.6562 2.6206,-6.8671 10.352,-4.8594 10.352,-4.8594 15.672,3.1771 31.87,6.3685 46.631,6.8633 4.2448,-0.57292 8.7174,-1.7031 9.9414,-2.5156 1.224,-0.8073 4.5638,-5.5931 7.418,-10.635 11.125,-19.651 22.906,-32.343 36.109,-38.885 15.208,-7.5365 36.729,-11.574 57.15,-10.709 24.557,1.0312 45.412,9.526 62.443,25.422 11.708,10.922 19.458,13.657 30.594,10.787 1.5351,-0.39602 2.567,-0.6479 3.5703,-0.88476 2.7351,-2.8303 4.4394,-6.0569 4.4394,-8.668 0,-2.4583 -0.17645,-2.4681 -8.0098,-0.44727 -11.135,2.8698 -18.885,0.13477 -30.594,-10.787 -17.031,-15.896 -37.886,-24.391 -62.443,-25.422 -1.2764,-0.05404 -2.5567,-0.08938 -3.8398,-0.10547 z M 424,208.041 c -6.9114,0 -11.344,4.2539 -18.781,14.27 -8.6979,11.724 -20.333,20.569 -28.463,24.715 -12.74,6.5 -22.522,5.3424 -45.543,-5.3867 -24.375,-11.354 -41.276,-15.447 -65.547,-17.598 -0.81267,-0.49436 -16.777,-0.15847 -17.666,9e-5 -7.4459,5.1521 -13.951,9.434 -15.102,10.158 1.1354,0 26.137,-0.74177 32.767,-0.15815 24.271,2.151 41.172,6.2435 65.547,17.598 23.021,10.729 32.803,11.887 45.543,5.3867 8.1302,-4.1458 19.765,-12.991 28.463,-24.715 7.4375,-10.016 11.87,-14.27 18.781,-14.27 6.7708,0 11.631,4.4635 16.756,12.281 7.2552,11.073 11.208,18.979 14.025,38.266 0.68261,4.681 1.0613,11.519 1.1758,19.025 0.16611,-11.216 -0.1977,-22.318 -1.1758,-29.025 -2.8177,-19.286 -6.7702,-27.193 -14.025,-38.266 -5.125,-7.8177 -9.985,-12.281 -16.756,-12.281 z"
             transform="scale(0.75)"
             inkscape:connector-curvature="0"
             style="opacity:0.3;fill:#ffffff;stroke-width:1.33329999" />
        </g>
        <rect
           clip-path="url(#clipPath4156-4-1)"
           ry="3.9777055"
           rx="3.973561"
           y="-30"
           x="2"
           height="69.024437"
           width="75.965775"
           id="rect4146"
           style="opacity:0.65;fill:url(#linearGradient4767);fill-opacity:1;stroke:none;stroke-width:1.00471163"
           transform="matrix(1.0636761,0,0,1.0422264,4.4218092,39.193603)" />
      </g>
    </g>
  </g>
</svg>
