<?xml version="1.0" encoding="UTF-8" standalone="no"?>
<!-- Created with Inkscape (http://www.inkscape.org/) -->

<svg
   xmlns:dc="http://purl.org/dc/elements/1.1/"
   xmlns:cc="http://creativecommons.org/ns#"
   xmlns:rdf="http://www.w3.org/1999/02/22-rdf-syntax-ns#"
   xmlns:svg="http://www.w3.org/2000/svg"
   xmlns="http://www.w3.org/2000/svg"
   xmlns:xlink="http://www.w3.org/1999/xlink"
   xmlns:sodipodi="http://sodipodi.sourceforge.net/DTD/sodipodi-0.dtd"
   xmlns:inkscape="http://www.inkscape.org/namespaces/inkscape"
   width="96"
   height="96"
   id="svg2"
   version="1.1"
   inkscape:version="0.92.2 5c3e80d, 2017-08-06"
   sodipodi:docname="angry-birds.svg">
  <defs
     id="defs4">
    <radialGradient
       gradientUnits="userSpaceOnUse"
       gradientTransform="matrix(1,0,0,0.91365451,0,3.9718926)"
       r="42.423195"
       fy="46"
       fx="48"
       cy="46"
       cx="48"
       id="radialGradient5037"
       xlink:href="#linearGradient5039"
       inkscape:collect="always" />
    <radialGradient
       inkscape:collect="always"
       xlink:href="#linearGradient4133-5"
       id="radialGradient4992"
       gradientUnits="userSpaceOnUse"
       gradientTransform="matrix(0.97513384,0,0,0.04919072,32.734694,78.81442)"
       cx="13.948145"
       cy="44.892841"
       fx="13.948145"
       fy="44.892841"
       r="43.199203" />
    <radialGradient
       inkscape:collect="always"
       xlink:href="#linearGradient4133-5"
       id="radialGradient3831-7"
       gradientUnits="userSpaceOnUse"
       gradientTransform="matrix(0.97513378,0,0,0.04919072,-4.148257,101.31932)"
       cx="13.948145"
       cy="44.892841"
       fx="13.948145"
       fy="44.892841"
       r="43.199203" />
    <linearGradient
       id="linearGradient4133-5"
       inkscape:collect="always">
      <stop
         id="stop4135-4"
         offset="0"
         style="stop-color:#ffffff;stop-opacity:1;" />
      <stop
         id="stop4137-5"
         offset="1"
         style="stop-color:#ffffff;stop-opacity:0;" />
    </linearGradient>
    <radialGradient
       inkscape:collect="always"
       xlink:href="#linearGradient4133-5"
       id="radialGradient3833-1"
       gradientUnits="userSpaceOnUse"
       gradientTransform="matrix(0.88832663,0,0,0.04919072,29.382213,-89.635221)"
       cx="13.948145"
       cy="44.892841"
       fx="13.948145"
       fy="44.892841"
       r="43.199203" />
    <linearGradient
       y2="14.514202"
       x2="50.527882"
       y1="-28.64156"
       x1="2.7713892"
       gradientUnits="userSpaceOnUse"
       id="linearGradient4967"
       xlink:href="#linearGradient4213-7-8"
       inkscape:collect="always" />
    <clipPath
       id="clipPath4156-4-6"
       clipPathUnits="userSpaceOnUse">
      <path
         inkscape:connector-curvature="0"
         id="path4158-0-3"
         d="m 27.046336,-55.695463 -14.21366,13.321486 0.06127,0 15.653407,21.770763 10.231384,-10.546177 C 38.561832,-32.30156 27.468089,-54.819245 27.046336,-55.695463 z M 9.6468554,-39.382809 -5.2407289,-25.32124 15.987863,-7.8059573 26.372412,-18.382966 9.6468554,-39.382809 z m 31.4906096,12.951445 -9.741259,9.713584 8.944804,12.4580526 7.780753,-7.5550056 -6.984298,-14.616631 z m -49.8397109,4.378822 -13.7541661,12.9822847 26.2830181,13.84571 0.06127,-0.0617 -0.122531,-0.0617 L 13.598503,-5.4007374 -8.7022409,-22.052595 z m 38.0154159,7.400825 -9.802525,9.7752596 11.579232,9.5594001 7.62759,-7.40083 -8.669108,-11.0087257 -0.735189,-0.925104 z m 20.187073,5.6739697 -7.382526,7.2158 6.187844,8.54179 5.820249,-6.13651996 -4.625567,-9.62107004 z m -32.195166,6.32154 -9.5574606,9.49772 13.6622686,7.1849703 7.933918,-7.6783603 -12.038726,-9.00433 z m 23.311629,2.37443004 -7.10683,6.93826996 8.362778,6.9074403 5.360756,-5.6739699 -0.06127,-0.0925 -0.0919,0.12335 -6.463539,-8.20258036 z m -8.730374,8.54178036 -7.505057,7.3391599 10.353916,5.45811 c 1.397496,-1.32103 5.67514,-6.12292 5.850882,-6.32154 L 31.886332,8.2600031 z"
         style="opacity:0.6;fill:#ffffff;fill-opacity:1;stroke:none" />
    </clipPath>
    <linearGradient
       id="linearGradient4213-7-8"
       inkscape:collect="always">
      <stop
         id="stop4215-6-5"
         offset="0"
         style="stop-color:#ffffff;stop-opacity:1;" />
      <stop
         id="stop4217-5-2"
         offset="1"
         style="stop-color:#ffffff;stop-opacity:0;" />
    </linearGradient>
    <linearGradient
       inkscape:collect="always"
       xlink:href="#linearGradient4213-7-8"
       id="linearGradient3837-7"
       gradientUnits="userSpaceOnUse"
       x1="2.7713892"
       y1="-28.64156"
       x2="50.527882"
       y2="14.514202" />
    <clipPath
       id="clipPath4156-4"
       clipPathUnits="userSpaceOnUse">
      <path
         inkscape:connector-curvature="0"
         id="path4158-0"
         d="m 27.046336,-55.695463 -14.21366,13.321486 0.06127,0 15.653407,21.770763 10.231384,-10.546177 C 38.561832,-32.30156 27.468089,-54.819245 27.046336,-55.695463 z M 9.6468554,-39.382809 -5.2407289,-25.32124 15.987863,-7.8059573 26.372412,-18.382966 9.6468554,-39.382809 z m 31.4906096,12.951445 -9.741259,9.713584 8.944804,12.4580526 7.780753,-7.5550056 -6.984298,-14.616631 z m -49.8397109,4.378822 -13.7541661,12.9822847 26.2830181,13.84571 0.06127,-0.0617 -0.122531,-0.0617 L 13.598503,-5.4007374 -8.7022409,-22.052595 z m 38.0154159,7.400825 -9.802525,9.7752596 11.579232,9.5594001 7.62759,-7.40083 -8.669108,-11.0087257 -0.735189,-0.925104 z m 20.187073,5.6739697 -7.382526,7.2158 6.187844,8.54179 5.820249,-6.13651996 -4.625567,-9.62107004 z m -32.195166,6.32154 -9.5574606,9.49772 13.6622686,7.1849703 7.933918,-7.6783603 -12.038726,-9.00433 z m 23.311629,2.37443004 -7.10683,6.93826996 8.362778,6.9074403 5.360756,-5.6739699 -0.06127,-0.0925 -0.0919,0.12335 -6.463539,-8.20258036 z m -8.730374,8.54178036 -7.505057,7.3391599 10.353916,5.45811 c 1.397496,-1.32103 5.67514,-6.12292 5.850882,-6.32154 L 31.886332,8.2600031 z"
         style="opacity:0.6;fill:#ffffff;fill-opacity:1;stroke:none" />
    </clipPath>
    <linearGradient
       id="linearGradient4213-7"
       inkscape:collect="always">
      <stop
         id="stop4215-6"
         offset="0"
         style="stop-color:#ffffff;stop-opacity:1;" />
      <stop
         id="stop4217-5"
         offset="1"
         style="stop-color:#ffffff;stop-opacity:0;" />
    </linearGradient>
    <linearGradient
       inkscape:collect="always"
       xlink:href="#linearGradient4213-7"
       id="linearGradient3837"
       gradientUnits="userSpaceOnUse"
       x1="2.7713892"
       y1="-28.64156"
       x2="50.527882"
       y2="14.514202" />
    <filter
       id="filter3174-3"
       color-interpolation-filters="sRGB">
      <feGaussianBlur
         stdDeviation="1.71"
         id="feGaussianBlur3176-6" />
    </filter>
    <linearGradient
       gradientTransform="scale(1.0058652,0.994169)"
       gradientUnits="userSpaceOnUse"
       id="ButtonShadow-1"
       y2="7.0165396"
       x2="45.447727"
       y1="92.539597"
       x1="45.447727">
      <stop
         offset="0"
         style="stop-color:#000000;stop-opacity:1"
         id="stop3750-9" />
      <stop
         offset="1"
         style="stop-color:#000000;stop-opacity:0.58823532"
         id="stop3752-9" />
    </linearGradient>
    <radialGradient
       inkscape:collect="always"
       xlink:href="#linearGradient4133"
       id="radialGradient3833"
       gradientUnits="userSpaceOnUse"
       gradientTransform="matrix(0.88832663,0,0,0.04919072,51.887113,-52.752262)"
       cx="13.948145"
       cy="44.892841"
       fx="13.948145"
       fy="44.892841"
       r="43.199203" />
    <linearGradient
       id="linearGradient4133"
       inkscape:collect="always">
      <stop
         id="stop4135"
         offset="0"
         style="stop-color:#ffffff;stop-opacity:1;" />
      <stop
         id="stop4137"
         offset="1"
         style="stop-color:#ffffff;stop-opacity:0;" />
    </linearGradient>
    <radialGradient
       inkscape:collect="always"
       xlink:href="#linearGradient4133"
       id="radialGradient3831"
       gradientUnits="userSpaceOnUse"
       gradientTransform="matrix(0.97513378,0,0,0.04919072,-4.148257,101.31932)"
       cx="13.948145"
       cy="44.892841"
       fx="13.948145"
       fy="44.892841"
       r="43.199203" />
    <linearGradient
       id="linearGradient3832-0-6-1-1">
      <stop
         id="stop3834-6-3-7-1"
         offset="0"
         style="stop-color:#000000;stop-opacity:1;" />
      <stop
         style="stop-color:#000000;stop-opacity:0.58823532;"
         offset="0.1"
         id="stop3872-2-4" />
      <stop
         id="stop3844-6-2-7-6"
         offset="0.89999998"
         style="stop-color:#000000;stop-opacity:0.58823532;" />
      <stop
         id="stop3836-5-0-2-9"
         offset="1"
         style="stop-color:#000000;stop-opacity:1;" />
    </linearGradient>
    <linearGradient
       inkscape:collect="always"
       xlink:href="#linearGradient3832-0-6-1-1"
       id="linearGradient3829"
       gradientUnits="userSpaceOnUse"
       gradientTransform="translate(-3e-6)"
       x1="1.5"
       y1="88.171875"
       x2="94.5"
       y2="88.171875" />
    <linearGradient
       id="linearGradient4091-0-3-0-7">
      <stop
         id="stop4093-3-6-4-2"
         offset="0"
         style="stop-color:#ffffff;stop-opacity:1;" />
      <stop
         style="stop-color:#ffffff;stop-opacity:1;"
         offset="0.80000001"
         id="stop4099-6-1-8-3" />
      <stop
         id="stop4095-1-0-7-9"
         offset="1"
         style="stop-color:#ffffff;stop-opacity:0;" />
    </linearGradient>
    <radialGradient
       inkscape:collect="always"
       xlink:href="#linearGradient4091-0-3-0-7"
       id="radialGradient3827"
       gradientUnits="userSpaceOnUse"
       gradientTransform="matrix(-1.1870482,0,0,-0.96877218,104.97833,-24.656848)"
       cx="48"
       cy="-27"
       fx="48"
       fy="-27"
       r="42" />
    <linearGradient
       id="linearGradient6139-0">
      <stop
         style="stop-color:#adb4c1;stop-opacity:1;"
         offset="0"
         id="stop6141-2" />
      <stop
         id="stop6151-0"
         offset="0.25"
         style="stop-color:#ffffff;stop-opacity:1;" />
      <stop
         id="stop6147-1"
         offset="0.5"
         style="stop-color:#9095aa;stop-opacity:1;" />
      <stop
         style="stop-color:#fbf9f9;stop-opacity:1;"
         offset="0.75"
         id="stop6149-4" />
      <stop
         style="stop-color:#adb3c1;stop-opacity:1;"
         offset="1"
         id="stop6143-4" />
    </linearGradient>
    <linearGradient
       inkscape:collect="always"
       xlink:href="#linearGradient6139-0"
       id="linearGradient3825"
       gradientUnits="userSpaceOnUse"
       gradientTransform="matrix(1.1071428,0,0,1.1071426,-5.1428591,-4.035713)"
       x1="6"
       y1="47.000011"
       x2="90"
       y2="47.000011" />
    <linearGradient
       id="linearGradient5029">
      <stop
         id="stop5031"
         offset="0"
         style="stop-color:#0a9aff;stop-opacity:1;" />
      <stop
         id="stop5033"
         offset="1"
         style="stop-color:#0070c0;stop-opacity:1;" />
    </linearGradient>
    <linearGradient
       id="linearGradient5039">
      <stop
         style="stop-color:#ff0a0a;stop-opacity:1;"
         offset="0"
         id="stop5041" />
      <stop
         style="stop-color:#c00000;stop-opacity:1;"
         offset="1"
         id="stop5043" />
    </linearGradient>
    <linearGradient
       id="linearGradient5045">
      <stop
         id="stop5047"
         offset="0"
         style="stop-color:#2fff0a;stop-opacity:1;" />
      <stop
         id="stop5049"
         offset="1"
         style="stop-color:#16b50b;stop-opacity:1;" />
    </linearGradient>
    <linearGradient
       id="linearGradient5051">
      <stop
         style="stop-color:#c60aff;stop-opacity:1;"
         offset="0"
         id="stop5053" />
      <stop
         style="stop-color:#9b0bb5;stop-opacity:1;"
         offset="1"
         id="stop5055" />
    </linearGradient>
    <linearGradient
       id="linearGradient5057">
      <stop
         id="stop5059"
         offset="0"
         style="stop-color:#ff830a;stop-opacity:1;" />
      <stop
         id="stop5061"
         offset="1"
         style="stop-color:#b55f0b;stop-opacity:1;" />
    </linearGradient>
    <linearGradient
       id="linearGradient5063">
      <stop
         style="stop-color:#6b9ab0;stop-opacity:1;"
         offset="0"
         id="stop5065" />
      <stop
         style="stop-color:#466b7a;stop-opacity:1;"
         offset="1"
         id="stop5067" />
    </linearGradient>
    <radialGradient
       inkscape:collect="always"
       xlink:href="#linearGradient5039"
       id="radialGradient4028"
       cx="49.90625"
       cy="1035.5497"
       fx="49.90625"
       fy="1035.5497"
       r="42.3125"
       gradientTransform="matrix(0.93127513,0,0,0.19109183,3.7498802,-121.91205)"
       gradientUnits="userSpaceOnUse" />
  </defs>
  <sodipodi:namedview
     id="base"
     pagecolor="#ffffff"
     bordercolor="#666666"
     borderopacity="1.0"
     inkscape:pageopacity="0.0"
     inkscape:pageshadow="2"
     inkscape:zoom="1.1967006"
     inkscape:cx="103.79044"
     inkscape:cy="22.314934"
     inkscape:document-units="px"
     inkscape:current-layer="g3198"
     showgrid="false"
     inkscape:snap-page="true"
     inkscape:snap-global="false"
     inkscape:snap-center="true"
     inkscape:snap-object-midpoints="false"
     showguides="true"
     inkscape:guide-bbox="true"
     inkscape:snap-bbox="true"
     inkscape:object-paths="true"
     inkscape:object-nodes="true"
     inkscape:window-width="1280"
     inkscape:window-height="947"
     inkscape:window-x="0"
     inkscape:window-y="19"
     inkscape:window-maximized="1"
     inkscape:snap-midpoints="false"
     inkscape:snap-grids="true"
     inkscape:snap-to-guides="false"
     inkscape:showpageshadow="false">
    <inkscape:grid
       type="xygrid"
       id="grid3002"
       empspacing="5"
       visible="true"
       enabled="true"
       snapvisiblegridlinesonly="true" />
  </sodipodi:namedview>
  <metadata
     id="metadata7">
    <rdf:RDF>
      <cc:Work
         rdf:about="">
        <dc:format>image/svg+xml</dc:format>
        <dc:type
           rdf:resource="http://purl.org/dc/dcmitype/StillImage" />
        <dc:title />
      </cc:Work>
    </rdf:RDF>
  </metadata>
  <g
     inkscape:label="Layer 1"
     inkscape:groupmode="layer"
     id="layer1"
     transform="translate(0,-956.36218)">
    <g
       id="g3198"
       transform="translate(0,956.36218)">
      <path
         inkscape:connector-curvature="0"
         id="path3288"
         d="M 89.142854,0 H 6.8571346 C 3.0582866,0 -6e-7,3.058285 -6e-7,6.8571399 V 89.142858 C -6e-7,92.941715 3.0582866,96 6.8571346,96 H 89.142854 c 3.798857,0 6.857147,-3.058285 6.857147,-6.857142 V 6.8571399 C 96.000001,3.058285 92.941711,0 89.142854,0 Z"
         style="display:inline;opacity:0.15;fill:#000000;fill-opacity:1;fill-rule:nonzero;stroke:none" />
      <path
         style="display:inline;opacity:0.15;fill:#000000;fill-opacity:1;fill-rule:nonzero;stroke:none"
         d="M 88.499998,0.75 H 7.4999906 c -3.739492,0 -6.749993,3.010499 -6.749993,6.7499969 V 88.5 c 0,3.739501 3.010501,6.75 6.749993,6.75 H 88.499998 c 3.739503,0 6.750003,-3.010499 6.750003,-6.75 V 7.4999969 C 95.250001,3.760499 92.239501,0.75 88.499998,0.75 Z"
         id="path4085"
         inkscape:connector-curvature="0" />
      <path
         inkscape:connector-curvature="0"
         id="rect4251-1"
         d="M 87.857137,1.5 H 8.1428546 C 4.4627116,1.5 1.499998,4.462713 1.499998,8.1428549 V 87.857145 c 0,3.680142 2.9627136,6.642856 6.6428566,6.642856 H 87.857137 c 3.680143,0 6.642854,-2.962714 6.642854,-6.642856 V 8.1428549 C 94.499991,4.462713 91.53728,1.5 87.857137,1.5 Z"
         style="display:inline;fill:url(#linearGradient3825);fill-opacity:1;fill-rule:nonzero;stroke:none" />
      <path
         inkscape:connector-curvature="0"
         id="path4236-5"
         d="m 8.1428736,1.5000007 c -3.6801427,0 -6.6428568,2.9627132 -6.6428568,6.6428556 V 24.749995 H 2.6071596 V 8.1428563 c 0,-3.0859355 2.4497749,-5.535713 5.535714,-5.535713 H 87.857155 c 3.085939,0 5.535714,2.4497775 5.535714,5.535713 V 24.749995 h 1.107143 V 8.1428563 c 0,-3.6801424 -2.962714,-6.6428556 -6.642857,-6.6428556 z"
         style="display:inline;opacity:0.45;fill:url(#radialGradient3827);fill-opacity:1;fill-rule:nonzero;stroke:none;stroke-width:1.10714269" />
      <path
         id="path4118"
         d="m 1.499997,81.84375 v 6 c 0,3.680142 2.9761066,6.65625 6.6562496,6.65625 H 87.843747 c 3.680143,0 6.656254,-2.976108 6.656254,-6.65625 v -6 c 0,3.680142 -2.976111,6.65625 -6.656254,6.65625 H 8.1562466 C 4.4761036,88.5 1.499997,85.523892 1.499997,81.84375 Z"
         style="display:inline;opacity:0.89090905;fill:url(#linearGradient3829);fill-opacity:1;fill-rule:nonzero;stroke:none"
         inkscape:connector-curvature="0" />
      <rect
         ry="4.25"
         y="7.2398567"
         x="5.5768051"
         height="77.520287"
         width="84.84639"
         id="rect4301"
         style="display:inline;fill:url(#radialGradient5037);fill-opacity:1;stroke:none" />
      <path
         inkscape:connector-curvature="0"
         id="rect3076"
         d="m 4.7102577,62.579278 v 19.141557 c 0,0.323301 0.084271,0.622974 0.2328188,0.902724 0.1485505,0.27975 0.3744443,0.52928 0.6402516,0.740666 0.2658074,0.211387 0.5795046,0.391072 0.9312751,0.509208 0.3517706,0.118137 0.7285524,0.185167 1.1349916,0.185167 h 1.6006291 c 0.4864935,-1.267058 1.1628561,-2.50123 2.0371641,-3.680223 0.874308,-1.178918 1.947738,-2.308434 3.172156,-3.379289 1.224418,-1.070782 2.624813,-2.066385 4.161636,-3.008957 1.536823,-0.942572 3.223183,-1.821224 5.034706,-2.615441 1.811523,-0.79429 3.74285,-1.503626 5.791367,-2.129415 2.048518,-0.625863 4.212915,-1.182918 6.460722,-1.620208 2.247806,-0.437289 4.575173,-0.766589 6.984563,-0.995307 2.40939,-0.228644 4.887829,-0.34715 7.421099,-0.34715 2.436952,0 4.836061,0.112359 7.159177,0.324041 2.323116,0.211683 4.576071,0.520244 6.751745,0.925833 2.175674,0.405515 4.262378,0.899687 6.257005,1.481333 1.994626,0.581645 3.894983,1.250615 5.674958,1.99054 1.779974,0.739926 3.444783,1.549918 4.976501,2.430274 1.531718,0.88043 2.940882,1.843889 4.190738,2.846973 1.249856,1.003085 2.325074,2.063052 3.259463,3.170941 0.934389,1.107962 1.713768,2.253773 2.299086,3.448764 0.254112,-0.345817 0.407432,-0.74948 0.407432,-1.180474 V 62.579278 Z"
         style="fill:#000000;fill-opacity:1;fill-rule:evenodd;stroke:none;stroke-width:0.83052033" />
      <path
         inkscape:connector-curvature="0"
         id="path3048"
         d="m 18.791156,8.0356764 c -0.370033,0.07649 -0.623696,0.3036813 -0.893162,0.5533122 -0.269468,0.2496308 -0.541089,0.5563576 -0.824458,0.9221869 -0.566738,0.7316465 -1.196167,1.6701945 -1.751973,2.6558985 -0.555805,0.985704 -1.044393,1.998038 -1.408447,2.914111 -0.364054,0.916072 -0.630581,1.659736 -0.549638,2.397686 0.04376,0.398526 0.218562,0.820047 0.515286,1.143512 0.296724,0.323464 0.705022,0.599182 1.236685,0.885299 1.06333,0.572222 2.685537,1.174403 5.290269,2.065699 3.166767,1.083748 4.848482,1.700271 5.427678,2.065722 0.118688,0.07437 0.14518,0.119457 0.171762,0.14755 -0.0096,-0.0118 -0.03048,0.112138 -0.206114,0.405703 -1.755902,2.939785 -1.937332,7.56754 -0.480934,11.10319 0.3602,0.874204 0.803528,1.734361 1.236686,2.397627 0.216579,0.331693 0.440533,0.611329 0.652696,0.848472 0.212162,0.237142 0.389385,0.428957 0.687047,0.553253 a 0.62258146,0.66852581 0 0 0 0.03435,0 c 0.600166,0.246939 1.122345,0.09679 1.820677,-0.110958 0.698332,-0.20775 1.473101,-0.563168 2.232905,-0.996021 1.47172,-0.838201 2.686751,-1.163401 3.641354,-1.032849 0.954603,0.13067 1.721486,0.698088 2.473372,1.807545 0.316576,0.467202 0.658623,0.882585 0.961867,1.217228 0.151622,0.167263 0.303291,0.32461 0.446581,0.44265 0.136376,0.112138 0.232706,0.24446 0.58399,0.258271 0.01781,7.08e-4 0.0151,0 0.03435,0 0.348272,0 0.566546,-0.131732 0.790105,-0.2951 0.232268,-0.169741 0.48026,-0.403224 0.7214,-0.663974 0.482279,-0.521383 0.996473,-1.223956 1.511505,-1.991924 1.030064,-1.535936 1.996083,-3.292488 2.335963,-4.647822 0.245734,-0.97985 0.48421,-1.56096 0.618342,-1.733771 0.06707,-0.08617 0.07335,-0.0661 0.103061,-0.07437 0.0297,-0.0118 0.113649,-0.0118 0.274819,0.03659 0.536215,0.150855 1.182046,0.02243 1.614562,-0.368874 0.432516,-0.391067 0.706663,-0.946209 0.99622,-1.696824 0.39662,-1.028128 0.734511,-1.89525 0.618344,-2.877224 C 49.592139,25.385504 48.997993,24.483089 47.853279,23.527083 45.563849,21.615238 40.884575,19.101731 31.63895,14.083924 28.495528,12.377834 25.530943,10.857751 23.256967,9.7680895 22.119978,9.2232525 21.165262,8.7734378 20.44007,8.4770277 20.077474,8.3288168 19.761892,8.2224982 19.512556,8.1450404 19.26322,8.0676062 19.167232,7.9567903 18.791156,8.034437 Z m 66.094,8.2627956 c -0.15847,0.0035 -0.323378,0.0275 -0.480933,0.03695 -2.051513,0.122844 -5.453344,0.899216 -9.515612,1.991924 -4.062269,1.092707 -8.567739,2.490701 -12.092043,3.799375 -2.015389,0.748491 -3.877726,1.460036 -5.255915,1.991924 -0.689095,0.265943 -1.2276,0.491518 -1.648915,0.663974 -0.210658,0.08617 -0.396955,0.152508 -0.549638,0.221325 -0.07635,0.03423 -0.147871,0.06256 -0.240467,0.110958 -0.09259,0.0484 -0.04024,-0.179185 -0.652695,0.479478 -1.007444,1.084433 -0.691425,1.782993 -0.652696,2.139473 0.03873,0.356481 0.09916,0.574619 0.171762,0.811525 0.1452,0.47393 0.346778,0.925669 0.583991,1.401724 0.392724,0.788035 1.251076,1.737312 2.267258,2.139474 0.176555,0.06964 0.404872,0.02479 0.583991,0.07437 0.126621,1.474791 0.921272,2.086769 1.511504,2.545236 0.639475,0.496712 1.347769,0.874086 2.129848,1.217228 1.564163,0.686284 3.364237,1.217346 5.118507,1.217346 1.151422,0 1.590985,0.280817 1.820677,0.553253 0.732017,0.868538 1.35061,1.830209 2.919953,1.991924 0.784671,0.08027 1.538206,-0.223332 2.026791,-0.553254 0.488584,-0.329921 0.842947,-0.683569 1.202334,-1.069795 0.83971,-0.901826 0.99539,-1.72055 1.202333,-2.582124 0.206943,-0.861455 0.32492,-1.781222 0.377877,-2.692668 0.05295,-0.911504 0.05341,-1.800227 -0.06871,-2.655898 -0.0083,-0.05784 -0.02757,-0.125005 -0.03435,-0.184497 2.465627,-0.460828 4.915441,-0.932869 6.595659,-1.217227 1.054207,-0.178477 1.913856,-0.311744 2.507724,-0.405822 0.296935,-0.04722 0.531614,-0.08735 0.687048,-0.110957 0.146351,0 0.132743,-0.03187 0.171763,-0.03659 A 2.1841603,2.3453438 0 0 0 87.56464,25.853249 V 18.77083 a 2.1841603,2.3453438 0 0 0 -0.618343,-1.623049 c -0.816176,-0.915447 -1.23934,-0.764663 -1.58021,-0.811525 -0.170435,-0.02349 -0.322464,-0.04037 -0.480933,-0.03695 z"
         style="fill:#000000;stroke-width:1.13911593" />
      <path
         inkscape:connector-curvature="0"
         id="path2906"
         d="m 42.34447,35.293422 c 1.798151,-3.189203 2.220294,-5.143354 1.251644,-5.793518 -0.616727,-0.413966 -0.905126,-0.03541 -1.132349,1.555294 -0.246884,1.708628 -0.620086,2.149271 -1.960589,2.315471 -1.363564,0.165846 -1.728919,-0.108596 -2.070996,-1.572292 -0.228343,-0.977252 -0.118971,-2.286197 0.243056,-2.908976 0.580421,-0.998263 0.0335,-1.37363 -4.617325,-3.172795 -6.262558,-2.422179 -6.884829,-2.13546 -7.30979,3.367443 -0.233815,3.026308 -0.0639,3.775153 1.223056,5.381441 1.441469,1.7994 1.546134,1.827022 2.946027,0.773987 2.178974,-1.638394 5.662431,-1.401606 7.701371,0.52457 0.940997,0.888723 1.89438,1.625882 2.118553,1.637096 0.224012,0 0.94749,-0.937237 1.607367,-2.107721 z"
         style="fill:#ffffff;stroke-width:1.13911593" />
      <path
         inkscape:connector-curvature="0"
         id="path2904"
         d="m 47.966955,28.539295 c 0.327074,-0.923663 0.594676,-1.913073 0.594676,-2.198376 0,-0.614988 -11.857578,-7.360025 -22.198937,-12.627911 -8.277772,-4.2165992 -8.352664,-4.209387 -10.849224,1.043473 -0.984189,2.07042 -1.057219,2.650232 -0.392449,3.112831 0.449279,0.312687 5.070123,2.045041 10.26859,3.849046 5.198459,1.804358 12.058598,4.424844 15.244728,5.823263 3.186194,1.398419 6.005634,2.573153 6.265465,2.609981 0.259698,0.03777 0.740038,-0.688527 1.067151,-1.612307 z"
         style="fill:#ffb27e;fill-opacity:1;stroke-width:1.13911593" />
      <path
         sodipodi:nodetypes="sscsssccssscssssccscsssssssssscsscscscs"
         inkscape:connector-curvature="0"
         id="path3055"
         d="m 53.693185,29.504153 c -1.717086,-0.05076 -3.614442,0.877037 -5.015449,2.176421 -1.401007,1.299383 -2.794125,3.043305 -4.87804,5.7175 -1.179347,1.513626 -2.104448,2.703586 -2.782543,3.614973 -0.678096,0.911386 -1.014302,1.314256 -1.477153,2.213248 -0.115714,0.224748 -0.30376,0.385283 -0.446582,1.327949 -0.07141,0.471334 -0.205043,1.375874 0.480934,2.545295 3.184664,2.739353 3.11321,0.439109 3.16042,4.389551 0.332765,1.669675 1.116824,2.517438 1.855029,3.283045 0.738204,0.765607 1.589093,1.464049 2.645135,2.323852 1.57227,1.280261 2.721853,2.370832 4.706277,2.729673 1.984423,0.35896 3.525537,-0.393663 5.118506,-1.106624 1.866695,-0.835841 4.227435,-2.342975 6.458249,-3.873126 1.115408,-0.765135 2.131648,-1.520118 2.954306,-2.17642 0.41133,-0.328151 0.779578,-0.610739 1.133629,-0.959075 0.177026,-0.174109 0.348928,-0.3481 0.583991,-0.663974 0.132101,-0.177414 0.329265,-0.452684 0.515286,-0.8853 1.715751,0.432734 3.987984,1.040404 4.843687,1.217346 0.751717,0.155577 1.441938,0.295572 1.958086,0.405703 0.258075,0.05548 0.480249,0.11686 0.618343,0.14755 0.04631,0.01653 0.0888,0.02361 0.137409,0.03659 0.05984,0.01653 0.102388,0.02125 0.171762,0.03659 0.216794,0.04722 0.823381,0.07437 0.824459,0.07437 0.0011,0 1.167136,-0.294628 1.16798,-0.2951 8.45e-4,-3.54e-4 1.133017,-0.884591 1.133629,-0.885299 6.13e-4,-7.09e-4 0.652312,-1.105562 0.652695,-1.106625 3.84e-4,-0.0011 0.178336,-0.641665 0.206116,-0.885299 0.05556,-0.487151 0.03242,-0.810226 0,-1.03285 C 80.289648,46.983742 80.150196,46.968161 80.075821,46.80444 79.927073,46.476997 79.844952,46.331454 79.732298,46.140465 79.50699,45.75837 79.240267,45.3398 78.90784,44.849344 c -0.394386,-0.581819 -0.780335,-1.12315 -1.202334,-1.586102 -0.211,-0.231477 -0.422097,-0.453038 -0.7214,-0.700921 -0.191014,-0.158056 -0.460861,-0.385047 -0.961867,-0.5902 -0.106732,-0.07791 -0.26125,-0.192877 -0.480934,-0.368875 C 75.009891,41.177712 74.259531,40.564023 73.480162,39.869594 71.365623,37.98485 67.959473,35.911361 64.376778,33.930651 60.794083,31.950059 57.691114,30.2746 54.998575,29.68865 54.674289,29.61783 54.261234,29.521151 53.693185,29.504153 Z"
         style="fill:#000000;fill-opacity:1;stroke-width:1.13911593" />
      <path
         inkscape:connector-curvature="0"
         id="path2900"
         d="m 55.746264,55.396094 c 2.689059,-1.204125 9.889528,-6.148228 9.889528,-6.790955 0,-0.639895 -8.005842,-3.326247 -9.912687,-3.326247 -1.971562,0 -4.246187,0.900998 -7.630799,3.02253 -3.054907,1.914254 -2.923737,2.58295 1.158569,5.906836 3.063856,2.494656 3.427026,2.560994 6.495389,1.187836 z"
         style="fill:#ffcc00;fill-opacity:1;stroke-width:1.13911593" />
      <path
         inkscape:connector-curvature="0"
         id="path2898"
         d="m 48.28732,44.927369 1.798784,-0.851422 -1.947799,-0.0543 c -2.537972,-0.07082 -5.456945,2.488282 -4.832851,4.234447 0.397925,1.113352 0.556767,1.058346 1.809639,-0.628799 0.755397,-1.017386 2.182913,-2.232961 3.172227,-2.701344 z"
         style="fill:#ffffff;stroke-width:1.13911593" />
      <path
         inkscape:connector-curvature="0"
         id="path2896"
         d="m 76.183118,46.93688 c -0.60258,-0.889076 -1.271543,-1.625882 -1.486557,-1.637213 -0.214961,0 -1.724254,-1.209201 -3.353852,-2.661211 -3.117385,-2.778542 -13.872846,-8.742627 -16.988078,-9.420648 -2.134869,-0.46437 -3.273101,0.462716 -7.974212,6.495501 -4.688068,6.016495 -5.088043,6.803467 -1.881661,3.702794 2.291896,-2.216553 3.234662,-2.744074 4.26484,-2.388183 0.727388,0.251425 2.968944,0.892972 4.981267,1.424978 2.012285,0.532242 6.814418,1.835166 10.671327,2.895047 3.856939,1.060117 8.247368,2.182794 9.756627,2.494774 1.509234,0.312334 2.825496,0.599761 2.92496,0.638714 0.09927,0.04013 -0.312092,-0.655594 -0.914661,-1.544553 z"
         style="fill:#ffcc00;fill-opacity:1;stroke-width:1.13911593" />
      <path
         inkscape:connector-curvature="0"
         id="path2894"
         d="m 72.161037,29.169274 c -3.022455,0.06256 -12.615048,2.005735 -12.615048,2.70099 0,1.139793 4.057651,2.925737 6.631473,2.925737 1.549507,0 2.69413,0.436748 3.430039,1.309772 1.330759,1.578902 1.745456,1.624701 2.991809,0.285538 1.041895,-1.119018 1.34344,-6.494911 0.400174,-7.121113 -0.11621,-0.07791 -0.406651,-0.112138 -0.838447,-0.100334 z m -1.333928,1.043591 c 1.374683,0 2.297417,2.378151 1.524497,3.928723 -0.359007,0.72028 -1.044988,1.309889 -1.524497,1.309889 -0.479477,0 -1.165505,-0.589609 -1.524456,-1.309889 -0.772928,-1.550572 0.150042,-3.928723 1.524456,-3.928723 z"
         style="fill:#ffffff;stroke-width:1.13911593" />
      <path
         sodipodi:nodetypes="ccccccc"
         inkscape:connector-curvature="0"
         id="path2888"
         d="m 73.563046,27.92714 c 6.539962,-1.25807 11.681133,-2.073726 11.803044,-2.074788 v -7.082396 c -0.669302,-0.750734 -14.020992,2.642324 -21.855737,5.551654 -4.019741,1.492733 -7.403455,2.815371 -7.519349,2.940021 -0.115915,0.124768 0.09571,0.840444 0.469961,1.59165 0.946693,1.899617 2.990152,1.788777 17.102081,-0.926141 z"
         style="fill:#ffc59f;fill-opacity:1;stroke-width:1.13911593" />
      <path
         inkscape:connector-curvature="0"
         id="path4989"
         d="m 9.6041045,5.7149979 c -3.116621,0 -5.667965,2.5395101 -5.667965,5.6460041 v 69.277996 c 0,3.106495 2.551344,5.646004 5.667965,5.646004 H 86.39589 c 3.116621,0 5.66797,-2.539509 5.66797,-5.646004 V 11.361002 c 0,-3.106493 -2.55135,-5.6460041 -5.66797,-5.6460041 z m 0,2.3194391 H 86.39589 c 1.888101,0 3.352021,1.480095 3.352021,3.326565 v 69.277996 c 0,1.846474 -1.46392,3.326564 -3.352021,3.326564 H 9.6041045 c -1.888099,0 -3.352022,-1.48009 -3.352022,-3.326564 V 11.361002 c 0,-1.84647 1.463923,-3.326565 3.352022,-3.326565 z"
         style="color:#000000;font-style:normal;font-variant:normal;font-weight:normal;font-stretch:normal;font-size:medium;line-height:normal;font-family:Sans;-inkscape-font-specification:Sans;text-indent:0;text-align:start;text-decoration:none;text-decoration-line:none;letter-spacing:normal;word-spacing:normal;text-transform:none;writing-mode:lr-tb;direction:ltr;baseline-shift:baseline;text-anchor:start;display:inline;overflow:visible;visibility:visible;fill:#040303;fill-opacity:0.67873308;stroke:none;stroke-width:2.3755002;marker:none;enable-background:accumulate" />
      <g
         inkscape:label="simboli"
         id="layer5" />
      <g
         inkscape:label="luci-superiori"
         id="layer4"
         style="opacity:0.843">
        <rect
           clip-path="url(#clipPath4156-4-6)"
           ry="3.9569881"
           rx="3.9569874"
           y="-30"
           x="2"
           height="92"
           width="92"
           id="rect4146"
           style="display:inline;fill:url(#linearGradient4967);fill-opacity:1;stroke:none"
           transform="matrix(0.9162165,0,0,0.94164665,4.0549101,35.618894)" />
        <rect
           ry="4.25"
           rx="0"
           y="78.897736"
           x="4.211"
           height="4.25"
           width="84.250008"
           id="rect4131"
           style="opacity:0.55;fill:url(#radialGradient4992);fill-opacity:1;stroke:none;display:inline" />
        <rect
           transform="matrix(0,1,-1,0,0,0)"
           style="opacity:0.55;fill:url(#radialGradient3833-1);fill-opacity:1;stroke:none;display:inline"
           id="rect4141"
           width="76.75"
           height="4.25"
           x="3.3977196"
           y="-89.551903"
           rx="0"
           ry="4.25" />
      </g>
    </g>
  </g>
</svg>
