<?xml version="1.0" encoding="UTF-8" standalone="no"?>
<!-- Created with Inkscape (http://www.inkscape.org/) -->

<svg
   xmlns:dc="http://purl.org/dc/elements/1.1/"
   xmlns:cc="http://creativecommons.org/ns#"
   xmlns:rdf="http://www.w3.org/1999/02/22-rdf-syntax-ns#"
   xmlns:svg="http://www.w3.org/2000/svg"
   xmlns="http://www.w3.org/2000/svg"
   xmlns:xlink="http://www.w3.org/1999/xlink"
   xmlns:sodipodi="http://sodipodi.sourceforge.net/DTD/sodipodi-0.dtd"
   xmlns:inkscape="http://www.inkscape.org/namespaces/inkscape"
   width="96px"
   height="96px"
   viewBox="0 0 96 96"
   version="1.1"
   id="SVGRoot"
   inkscape:version="0.92.2 5c3e80d, 2017-08-06"
   sodipodi:docname="app.svg">
  <sodipodi:namedview
     id="base"
     pagecolor="#ffffff"
     bordercolor="#666666"
     borderopacity="1.0"
     inkscape:pageopacity="0.0"
     inkscape:pageshadow="2"
     inkscape:zoom="2.6666667"
     inkscape:cx="18.059708"
     inkscape:cy="45"
     inkscape:document-units="px"
     inkscape:current-layer="g2167"
     showgrid="false"
     inkscape:window-width="1280"
     inkscape:window-height="977"
     inkscape:window-x="0"
     inkscape:window-y="19"
     inkscape:window-maximized="1"
     inkscape:grid-bbox="true"
     inkscape:pagecheckerboard="true"
     inkscape:showpageshadow="false" />
  <defs
     id="defs1104">
    <linearGradient
       id="linearGradient4091-0-3-0-7">
      <stop
         id="stop4093-3-6-4-2"
         offset="0"
         style="stop-color:#ffffff;stop-opacity:1;" />
      <stop
         style="stop-color:#ffffff;stop-opacity:1;"
         offset="0.80000001"
         id="stop4099-6-1-8-3" />
      <stop
         id="stop4095-1-0-7-9"
         offset="1"
         style="stop-color:#ffffff;stop-opacity:0;" />
    </linearGradient>
    <linearGradient
       id="linearGradient4213-7"
       inkscape:collect="always">
      <stop
         id="stop4215-6"
         offset="0"
         style="stop-color:#ffffff;stop-opacity:1;" />
      <stop
         id="stop4217-5"
         offset="1"
         style="stop-color:#ffffff;stop-opacity:0;" />
    </linearGradient>
    <clipPath
       id="clipPath4156-4"
       clipPathUnits="userSpaceOnUse">
      <path
         inkscape:connector-curvature="0"
         id="path4158-0"
         d="m 27.046336,-55.695463 -14.21366,13.321486 h 0.06127 l 15.653407,21.770763 10.231384,-10.546177 C 38.561832,-32.30156 27.468089,-54.819245 27.046336,-55.695463 Z M 9.6468554,-39.382809 -5.2407289,-25.32124 15.987863,-7.8059573 26.372412,-18.382966 Z m 31.4906096,12.951445 -9.741259,9.713584 8.944804,12.4580526 7.780753,-7.5550056 z m -49.8397109,4.378822 -13.7541661,12.9822847 26.2830181,13.84571 0.06127,-0.0617 -0.122531,-0.0617 L 13.598503,-5.4007374 -8.7022409,-22.052595 Z m 38.0154159,7.400825 -9.802525,9.7752596 11.579232,9.5594001 7.62759,-7.40083 -8.669108,-11.0087257 z m 20.187073,5.6739697 -7.382526,7.2158 6.187844,8.54179 5.820249,-6.13651996 z m -32.195166,6.32154 -9.5574606,9.49772 13.6622686,7.1849703 7.933918,-7.6783603 z m 23.311629,2.37443004 -7.10683,6.93826996 8.362778,6.9074403 5.360756,-5.6739699 -0.06127,-0.0925 -0.0919,0.12335 -6.463539,-8.20258036 z m -8.730374,8.54178036 -7.505057,7.3391599 10.353916,5.45811 c 1.397496,-1.32103 5.67514,-6.12292 5.850882,-6.32154 z"
         style="opacity:0.6;fill:#ffffff;fill-opacity:1;stroke:none" />
    </clipPath>
    <linearGradient
       id="linearGradient3832-0-6-1-1">
      <stop
         id="stop3834-6-3-7-1"
         offset="0"
         style="stop-color:#000000;stop-opacity:1;" />
      <stop
         style="stop-color:#000000;stop-opacity:0.58823532;"
         offset="0.1"
         id="stop3872-2-4" />
      <stop
         id="stop3844-6-2-7-6"
         offset="0.89999998"
         style="stop-color:#000000;stop-opacity:0.58823532;" />
      <stop
         id="stop3836-5-0-2-9"
         offset="1"
         style="stop-color:#000000;stop-opacity:1;" />
    </linearGradient>
    <radialGradient
       inkscape:collect="always"
       xlink:href="#linearGradient4091-0-3-0-7"
       id="radialGradient1071"
       gradientUnits="userSpaceOnUse"
       gradientTransform="matrix(-1.1436508,0,0,-0.93335492,212.76191,-20.400582)"
       cx="48"
       cy="-27"
       fx="48"
       fy="-27"
       r="42" />
    <linearGradient
       id="linearGradient6139-0">
      <stop
         style="stop-color:#d6c8c8;stop-opacity:1"
         offset="0"
         id="stop6141-2" />
      <stop
         id="stop6151-0"
         offset="0.25"
         style="stop-color:#fdf8f8;stop-opacity:1" />
      <stop
         id="stop6147-1"
         offset="0.5"
         style="stop-color:#e9e2e2;stop-opacity:1" />
      <stop
         style="stop-color:#fef6f6;stop-opacity:1"
         offset="0.75"
         id="stop6149-4" />
      <stop
         style="stop-color:#d7caca;stop-opacity:1"
         offset="1"
         id="stop6143-4" />
    </linearGradient>
    <linearGradient
       y2="47.000011"
       x2="90"
       y1="47.000011"
       x1="6"
       gradientTransform="matrix(1.1071428,0,0,1.1071426,-4.9939026,-3.620687)"
       gradientUnits="userSpaceOnUse"
       id="linearGradient4071"
       xlink:href="#linearGradient6139-0-3"
       inkscape:collect="always" />
    <linearGradient
       id="linearGradient6139-0-3">
      <stop
         style="stop-color:#b2babc;stop-opacity:1"
         offset="0"
         id="stop6141-2-6" />
      <stop
         id="stop6151-0-7"
         offset="0.25"
         style="stop-color:#ffffff;stop-opacity:1;" />
      <stop
         id="stop6147-1-5"
         offset="0.5"
         style="stop-color:#96a1a4;stop-opacity:1" />
      <stop
         style="stop-color:#fbf9f9;stop-opacity:1;"
         offset="0.75"
         id="stop6149-4-3" />
      <stop
         style="stop-color:#b2b9bc;stop-opacity:1"
         offset="1"
         id="stop6143-4-5" />
    </linearGradient>
    <linearGradient
       gradientUnits="userSpaceOnUse"
       y2="88.171875"
       x2="94.5"
       y1="88.171875"
       x1="1.5"
       id="linearGradient4129"
       xlink:href="#linearGradient3832-0-6-1-1"
       inkscape:collect="always"
       gradientTransform="translate(0.1489535,0.415026)" />
    <radialGradient
       r="43.199203"
       fy="44.892841"
       fx="13.948145"
       cy="44.892841"
       cx="13.948145"
       gradientTransform="matrix(0.97513378,0,0,0.04919072,34.047649,80.581722)"
       gradientUnits="userSpaceOnUse"
       id="radialGradient7462-2"
       xlink:href="#linearGradient4213-7"
       inkscape:collect="always" />
    <radialGradient
       r="43.199203"
       fy="44.892841"
       fx="13.948145"
       cy="44.892841"
       cx="13.948145"
       gradientTransform="matrix(0.88832663,0,0,0.04919072,31.959518,-90.31726)"
       gradientUnits="userSpaceOnUse"
       id="radialGradient7464-7"
       xlink:href="#linearGradient4213-7"
       inkscape:collect="always" />
    <clipPath
       clipPathUnits="userSpaceOnUse"
       id="clipPath4156-4-1">
      <path
         style="opacity:0.6;fill:#ffffff;fill-opacity:1;stroke:none"
         d="m 27.046336,-55.695463 -14.21366,13.321486 h 0.06127 l 15.653407,21.770763 10.231384,-10.546177 C 38.561832,-32.30156 27.468089,-54.819245 27.046336,-55.695463 Z M 9.6468554,-39.382809 -5.2407289,-25.32124 15.987863,-7.8059573 26.372412,-18.382966 Z m 31.4906096,12.951445 -9.741259,9.713584 8.944804,12.4580526 7.780753,-7.5550056 z m -49.8397109,4.378822 -13.7541661,12.9822847 26.2830181,13.84571 0.06127,-0.0617 -0.122531,-0.0617 L 13.598503,-5.4007374 -8.7022409,-22.052595 Z m 38.0154159,7.400825 -9.802525,9.7752596 11.579232,9.5594001 7.62759,-7.40083 -8.669108,-11.0087257 z m 20.187073,5.6739697 -7.382526,7.2158 6.187844,8.54179 5.820249,-6.13651996 z m -32.195166,6.32154 -9.5574606,9.49772 13.6622686,7.1849703 7.933918,-7.6783603 z m 23.311629,2.37443004 -7.10683,6.93826996 8.362778,6.9074403 5.360756,-5.6739699 -0.06127,-0.0925 -0.0919,0.12335 -6.463539,-8.20258036 z m -8.730374,8.54178036 -7.505057,7.3391599 10.353916,5.45811 c 1.397496,-1.32103 5.67514,-6.12292 5.850882,-6.32154 z"
         id="path4158-0-8"
         inkscape:connector-curvature="0" />
    </clipPath>
    <linearGradient
       inkscape:collect="always"
       xlink:href="#linearGradient4213-7"
       id="linearGradient927"
       gradientUnits="userSpaceOnUse"
       x1="2.7713892"
       y1="-28.64156"
       x2="50.527882"
       y2="14.514202" />
  </defs>
  <metadata
     id="metadata1107">
    <rdf:RDF>
      <cc:Work
         rdf:about="">
        <dc:format>image/svg+xml</dc:format>
        <dc:type
           rdf:resource="http://purl.org/dc/dcmitype/StillImage" />
        <dc:title />
        <dc:date>2017</dc:date>
        <dc:creator>
          <cc:Agent>
            <dc:title>Cristian Pozzessere &quot;ilnanny&quot;</dc:title>
          </cc:Agent>
        </dc:creator>
        <dc:subject>
          <rdf:Bag>
            <rdf:li>Global language</rdf:li>
          </rdf:Bag>
        </dc:subject>
        <dc:description>Playing with Inkscape on Gnu/Linux O. S.</dc:description>
        <dc:contributor>
          <cc:Agent>
            <dc:title>In the night, alone like a dog.</dc:title>
          </cc:Agent>
        </dc:contributor>
      </cc:Work>
    </rdf:RDF>
  </metadata>
  <g
     id="layer1"
     inkscape:groupmode="layer"
     inkscape:label="Livello 1">
    <g
       id="g1775"
       transform="translate(-44.25,-5.625)">
      <g
         id="g4564"
         transform="matrix(0.28567807,0,0,0.28567807,57.683207,22.751956)"
         style="fill:#bdcdd4;stroke:#107169;stroke-width:3.85048819;stroke-miterlimit:4;stroke-dasharray:none;stroke-opacity:1" />
      <g
         transform="translate(44.101044,5.209974)"
         style="display:inline"
         id="g2167">
        <path
           inkscape:connector-curvature="0"
           id="path3288-0"
           d="M 89.29181,0.415026 H 7.0060911 c -3.798848,0 -6.8571352,3.058285 -6.8571352,6.8571399 V 89.557884 c 0,3.798857 3.0582872,6.857142 6.8571352,6.857142 H 89.29181 c 3.798857,0 6.857147,-3.058285 6.857147,-6.857142 V 7.2721659 c 0,-3.7988549 -3.05829,-6.8571399 -6.857147,-6.8571399 z"
           style="display:inline;opacity:0.15;fill:#000000;fill-opacity:1;fill-rule:nonzero;stroke:none" />
        <path
           style="display:inline;opacity:0.15;fill:#000000;fill-opacity:1;fill-rule:nonzero;stroke:none"
           d="M 88.648954,1.165026 H 7.6489471 c -3.739492,0 -6.749993,3.010499 -6.749993,6.7499969 V 88.915026 c 0,3.739501 3.010501,6.75 6.749993,6.75 H 88.648954 c 3.739503,0 6.750003,-3.010499 6.750003,-6.75 V 7.9150229 c 0,-3.7394979 -3.0105,-6.7499969 -6.750003,-6.7499969 z"
           id="path4085-9"
           inkscape:connector-curvature="0" />
        <path
           inkscape:connector-curvature="0"
           id="rect4251-1-3"
           d="M 88.006093,1.915026 H 8.2918111 c -3.680143,0 -6.6428566,2.962713 -6.6428566,6.6428549 V 88.272171 c 0,3.680142 2.9627136,6.642856 6.6428566,6.642856 H 88.006093 c 3.680143,0 6.642854,-2.962714 6.642854,-6.642856 V 8.5578809 c 0,-3.6801419 -2.962711,-6.6428549 -6.642854,-6.6428549 z"
           style="display:inline;fill:url(#linearGradient4071);fill-opacity:1;fill-rule:nonzero;stroke:none" />
        <path
           sodipodi:nodetypes="sscccsccscccsss"
           inkscape:connector-curvature="0"
           id="path3400-6"
           d="m 11.390247,6.8021682 c -2.8564964,0 -5.1241284,2.2883782 -5.1241284,5.1710028 v 21.42734 7.239403 39.913674 c 1.0972399,1.684484 2.9688485,2.811732 5.1241284,2.811732 h 4.099303 65.588849 4.099302 c 2.155281,0 4.026889,-1.127248 5.124129,-2.811732 V 40.639914 33.400511 11.973171 c 0,-2.8826246 -2.267632,-5.1710028 -5.124129,-5.1710028 z"
           style="display:inline;opacity:0.9;fill:#f2f5f8;fill-opacity:1;fill-rule:nonzero;stroke:none;stroke-width:1.02950251" />
        <path
           style="color:#000000;font-style:normal;font-variant:normal;font-weight:normal;font-stretch:normal;font-size:medium;line-height:normal;font-family:Sans;-inkscape-font-specification:Sans;text-indent:0;text-align:start;text-decoration:none;text-decoration-line:none;letter-spacing:normal;word-spacing:normal;text-transform:none;writing-mode:lr-tb;direction:ltr;baseline-shift:baseline;text-anchor:start;display:inline;overflow:visible;visibility:visible;fill:#1f2224;fill-opacity:0.63265303;stroke:none;stroke-width:2.3755002;marker:none;enable-background:accumulate"
           d="m 9.9740341,5.1444869 c -3.116621,0 -5.667965,2.53951 -5.667965,5.6460041 v 69.277996 c 0,3.106495 2.551344,5.646004 5.667965,5.646004 H 86.765819 c 3.116621,0 5.667968,-2.539509 5.667968,-5.646004 V 10.790491 c 0,-3.1064931 -2.551347,-5.6460041 -5.667968,-5.6460041 z m 0,2.319439 H 86.765819 c 1.888099,0 3.352022,1.480095 3.352022,3.3265651 v 69.277996 c 0,1.846474 -1.463923,3.326564 -3.352022,3.326564 H 9.9740341 c -1.888099,0 -3.352022,-1.48009 -3.352022,-3.326564 V 10.790491 c 0,-1.8464701 1.463923,-3.3265651 3.352022,-3.3265651 z"
           id="path4989-6"
           inkscape:connector-curvature="0" />
        <path
           id="path4118-0"
           d="m 1.6489535,82.258776 v 6 c 0,3.680142 2.9761066,6.65625 6.6562496,6.65625 H 87.992703 c 3.680143,0 6.656254,-2.976108 6.656254,-6.65625 v -6 c 0,3.680142 -2.976111,6.65625 -6.656254,6.65625 H 8.3052031 c -3.680143,0 -6.6562496,-2.976108 -6.6562496,-6.65625 z"
           style="display:inline;opacity:0.65818182;fill:url(#linearGradient4129);fill-opacity:1;fill-rule:nonzero;stroke:none"
           inkscape:connector-curvature="0" />
        <rect
           ry="4.25"
           rx="0"
           y="80.665031"
           x="5.5239539"
           height="4.25"
           width="84.250008"
           id="rect4131-6"
           style="opacity:0.55;fill:url(#radialGradient7462-2);fill-opacity:1;stroke:none" />
        <rect
           transform="rotate(90)"
           style="opacity:0.669;fill:url(#radialGradient7464-7);fill-opacity:1;stroke:none"
           id="rect4141-2"
           width="76.75"
           height="4.25"
           x="5.9750223"
           y="-90.233963"
           rx="0"
           ry="4.25" />
        <g
           id="g4573"
           transform="matrix(0.94876198,0,0,0.94876198,-39.627929,-4.9839546)">
          <g
             style="stroke:#107169;stroke-width:3.85048819;stroke-miterlimit:4;stroke-dasharray:none;stroke-opacity:1"
             transform="matrix(0.28567807,0,0,0.28567807,56.683207,21.751956)"
             id="g4528">
            <path
               style="fill:#128379;stroke:#107169;stroke-width:3.85048819;stroke-miterlimit:4;stroke-dasharray:none;stroke-opacity:1"
               inkscape:connector-curvature="0"
               d="m 247.77595,50.434484 c -1.05437,-2.741351 -4.21747,-4.00659 -6.74794,-2.952224 -1.89786,0.843492 -3.1631,2.741351 -3.1631,4.639209 0,0.63262 0,1.265239 0.42175,1.686985 4.85008,12.863262 7.59143,26.78089 7.59143,41.54201 0,59.677096 -44.49424,109.232286 -102.27348,116.612846 v -55.03789 c 3.58485,-0.63262 6.95882,-1.68698 10.33279,-2.74135 v 46.18122 c 47.02471,-11.38715 82.24052,-53.98352 82.24052,-105.014826 0,-40.698517 -22.56342,-76.336079 -55.88138,-94.68204264 -2.53048,-1.47611203 -5.69358,-0.4217463 -6.95881,2.31960464 -0.42175,0.6326194 -0.42175,1.476112 -0.42175,2.3196046 0,1.8978583 1.05437,3.5848435 2.53048,4.4283361 30.15486,16.6589783 50.60955,48.9225703 50.60955,85.8253703 0,41.542013 -25.72652,76.968703 -62.20758,91.308073 v -40.90939 c 6.3262,-1.89786 10.96541,-7.80231 10.96541,-14.97199 0,-5.90445 -2.95223,-10.75453 -7.80231,-13.49589 3.58485,-35.426684 19.82208,-25.937392 19.82208,-37.324542 V 73.63053 c 0,-16.869852 -39.01153,-71.9077429 -57.3575,-73.17298179 h -3.37397 C 107.75618,1.7227871 68.744646,56.760678 68.744646,73.63053 v 6.537068 c 0,11.176276 16.026359,1.897858 19.822076,37.324542 -4.63921,2.74136 -7.591434,7.80231 -7.591434,13.49589 0,6.95881 4.639209,12.86326 10.965404,14.97199 v 40.90939 C 55.670511,172.53004 29.733114,137.10335 29.733114,95.561337 c 0,-36.9028 20.454695,-69.166392 50.609555,-85.8253703 2.319604,-1.2652389 3.37397,-4.217463 2.108731,-6.7479407 -0.632619,-1.8978584 -2.530477,-2.95222408 -4.428336,-2.95222408 -0.843492,0 -1.686985,0.21087314 -2.530477,0.63261944 C 42.174629,19.014385 19.611203,54.651947 19.611203,95.350464 c 0,51.031306 35.215815,93.627676 82.662277,105.225696 v -46.18122 c 3.37397,1.05437 6.74794,2.10874 10.33278,2.74136 v 55.03789 C 54.827018,204.58275 10.332784,155.23844 10.332784,95.350464 c 0,-14.550247 2.741351,-28.467875 7.591433,-41.54201 1.054366,-2.530478 -0.210873,-5.482702 -2.74135,-6.537067 -0.63262,-0.210873 -1.265239,-0.421747 -1.897859,-0.421747 -2.108731,0 -4.0065895,1.265239 -4.8500821,3.373971 C 2.9522241,64.352112 0,79.534978 0,95.350464 0,164.30598 54.405272,220.39824 122.72817,223.13959 v -64.73806 c 1.89786,0.21088 5.27183,0.21088 5.27183,0.21088 0,0 3.37397,0 5.27183,-0.21088 v 64.73806 C 201.59473,220.39824 256,164.30598 256,95.350464 255.78913,79.534978 253.04778,64.352112 247.77595,50.434484 Z m -96.15816,72.962106 c 1.89786,-1.89786 4.42834,-3.16309 7.38056,-3.16309 2.95223,0 5.4827,1.26523 7.38056,3.16309 1.89786,1.89786 3.1631,4.42834 3.1631,7.38056 0,2.95223 -1.26524,5.4827 -3.1631,7.38056 -1.89786,1.89786 -4.42833,3.1631 -7.38056,3.1631 -2.95222,0 -5.4827,-1.26524 -7.38056,-3.1631 -1.89786,-1.89786 -3.1631,-4.42833 -3.1631,-7.38056 0,-2.95222 1.26524,-5.4827 3.1631,-7.38056 z m -47.23558,14.76112 c -1.89786,1.89786 -4.428338,3.1631 -7.380563,3.1631 -2.952224,0 -5.482701,-1.26524 -7.38056,-3.1631 -2.108731,-1.89786 -3.163097,-4.42833 -3.163097,-7.38056 0,-2.95222 1.265239,-5.4827 3.163097,-7.38056 1.897859,-1.89786 4.428336,-3.16309 7.38056,-3.16309 2.952225,0 5.482703,1.26523 7.380563,3.16309 1.89786,1.89786 3.1631,4.42834 3.1631,7.38056 -0.21088,2.95223 -1.26524,5.4827 -3.1631,7.38056 z"
               id="path4526" />
          </g>
          <g
             id="g4560"
             transform="matrix(0.28567807,0,0,0.28567807,55.683207,20.751956)"
             style="opacity:0.531;fill:#0e232e;stroke:#0e232e;stroke-width:3.85048819;stroke-miterlimit:4;stroke-dasharray:none;stroke-opacity:1">
            <path
               id="path4558"
               transform="matrix(3.5004437,0,0,3.5004437,-40.021297,-52.951058)"
               d="m 62.375,15.132812 c -0.576063,-0.05648 -1.152742,0.260299 -1.423828,0.847657 -0.120485,0.180725 -0.119141,0.421142 -0.119141,0.662109 0,0.542177 0.300964,1.024658 0.722657,1.265625 0.435996,0.240866 0.859847,0.500375 1.28125,0.763672 -2.09e-4,-0.01007 -0.0039,-0.01918 -0.0039,-0.0293 0,-0.240967 -0.0013,-0.481384 0.119141,-0.662109 0.361448,-0.783144 1.265378,-1.083802 1.988281,-0.66211 2.16907,1.194362 4.168477,2.656183 5.978516,4.322266 C 68.63359,19.115696 65.940337,16.970745 62.939453,15.318359 62.758727,15.212936 62.567021,15.151638 62.375,15.132812 Z m -28.652344,0.0039 c -0.240967,0 -0.481689,0.06116 -0.722656,0.18164 -9.51821,5.24104 -15.964844,15.422155 -15.964844,27.048829 0,9.064277 3.891789,17.193808 10.091797,22.845703 -5.023917,-5.494172 -8.091797,-12.800627 -8.091797,-20.845703 0,-11.606327 6.425209,-21.770415 15.916016,-27.019532 0.227443,-0.40186 0.266512,-0.908381 0.03711,-1.367187 -0.180725,-0.542177 -0.723448,-0.84375 -1.265626,-0.84375 z m 13.734375,0.121093 C 42.215993,15.619264 31.072266,31.342763 31.072266,36.162109 v 1.867188 c 0,1.431706 0.93157,1.714455 2.044922,2.474609 -0.02676,-0.144235 -0.04492,-0.297639 -0.04492,-0.474609 v -1.867188 c 0,-4.819346 11.143727,-20.542845 16.384765,-20.904297 h 0.964844 c 1.32596,0.09145 3.030296,1.170115 4.835937,2.802735 -2.514576,-2.704848 -5.026979,-4.677979 -6.835937,-4.802735 z m 21.378907,8.455079 c 4.456618,4.962264 7.175781,11.527241 7.175781,18.71289 0,11.092883 -6.422014,20.657895 -15.771485,25.205078 v 2.88086 c 10.421839,-4.096444 17.771485,-14.218296 17.771485,-26.085938 0,-8.202644 -3.547814,-15.590469 -9.175781,-20.71289 z m -53.607422,4.798828 c -0.602419,0 -1.143799,0.360472 -1.384766,0.96289 -1.566288,4.036203 -2.410156,8.374441 -2.410156,12.892579 0,10.614054 4.517294,20.155073 11.732422,26.826171 -6.038412,-6.51483 -9.732422,-15.230931 -9.732422,-24.826171 0,-4.518138 0.843868,-8.856376 2.410156,-12.892579 0.131613,-0.329032 0.356843,-0.576556 0.628906,-0.742187 0.02824,-0.07773 0.05327,-0.156851 0.08203,-0.234375 0.301209,-0.722902 -0.0603,-1.565979 -0.783204,-1.867188 -0.180725,-0.06024 -0.362243,-0.11914 -0.542968,-0.11914 z m 65.625,0.07422 c -0.19108,-0.0038 -0.383729,0.03017 -0.564454,0.105468 -0.542176,0.240967 -0.902343,0.783996 -0.902343,1.326172 0,0.180726 -0.0013,0.359985 0.11914,0.480469 1.385562,3.674752 2.169922,7.652212 2.169922,11.869141 0,6.59631 -1.909866,12.754921 -5.199219,17.955078 -2.706105,4.487642 -6.515159,8.221883 -11.042968,10.830078 -3.324707,2.009246 -7.026478,3.452052 -10.976563,4.203125 v 2.324219 c 16.506262,-2.108465 29.21875,-16.264063 29.21875,-33.3125 0,-4.216929 -0.78436,-8.194389 -2.169922,-11.869141 -0.120484,-0.120484 -0.11914,-0.299743 -0.11914,-0.480469 0,-0.542176 0.360167,-1.085205 0.902343,-1.326172 0.0984,-0.041 0.201561,-0.06693 0.304688,-0.08398 -0.122424,-0.358929 -0.24311,-0.718919 -0.376953,-1.072266 -0.225908,-0.587358 -0.790043,-0.937923 -1.363281,-0.949218 z m -45.90625,13.802734 c 0.772257,1.236716 1.44919,3.148821 1.787109,6.302734 -1.325321,0.783147 -2.167969,2.228938 -2.167969,3.855469 0,1.742533 1.017787,3.253582 2.486328,4.005859 -0.308758,-0.604662 -0.486328,-1.284439 -0.486328,-2.005859 0,-0.15896 0.01548,-0.313692 0.03125,-0.46875 -0.304814,-0.456314 -0.464844,-0.991874 -0.464844,-1.591797 0,-0.843384 0.360168,-1.565245 0.902344,-2.107422 0.415316,-0.415316 0.938732,-0.72176 1.539063,-0.84375 -0.724885,-4.853633 -2.328419,-6.298613 -3.626953,-7.146484 z m 7.060546,9.234375 c 0.08729,0.272479 0.148438,0.555871 0.148438,0.863281 -0.06024,0.843387 -0.36212,1.567198 -0.904297,2.109375 C 40.709776,55.13788 39.987917,55.5 39.144531,55.5 c -0.313389,0 -0.603832,-0.06571 -0.880859,-0.15625 0.13896,0.47835 0.38652,0.905485 0.771484,1.251953 0.542177,0.542177 1.26599,0.904297 2.109375,0.904297 0.843386,0 1.565245,-0.36212 2.107422,-0.904297 0.542177,-0.542177 0.844053,-1.265988 0.904297,-2.109375 0,-0.843384 -0.36212,-1.565245 -0.904297,-2.107422 -0.344983,-0.344983 -0.768336,-0.603775 -1.244141,-0.755859 z m 17.710938,0 c 0.08729,0.272479 0.148437,0.555871 0.148438,0.863281 0,0.843387 -0.360167,1.567198 -0.902344,2.109375 C 58.422667,55.13788 57.698856,55.5 56.855469,55.5 c -0.306745,0 -0.59131,-0.06346 -0.863281,-0.150391 0.152085,0.475804 0.410875,0.901111 0.755859,1.246094 0.405209,0.405209 0.910233,0.708069 1.492187,0.835938 v -0.607422 c 1.717264,-0.515179 2.985945,-2.068337 3.109375,-3.978516 -0.114504,-0.166957 -0.241827,-0.323858 -0.384765,-0.466797 -0.344984,-0.344983 -0.77029,-0.603775 -1.246094,-0.755859 z m -22.019531,5.861328 v 11.027344 c -3.147416,-1.244327 -6.016396,-3.050972 -8.494141,-5.28711 2.877167,3.171917 6.457192,5.691107 10.494141,7.28711 v -11.6875 c -0.783505,-0.261168 -1.466377,-0.734878 -2,-1.339844 z m 19.710937,3.689453 c -0.657704,0.205534 -1.323155,0.3972 -2,0.564453 v 10.628907 c 0.676702,-0.163865 1.341273,-0.356174 2,-0.564454 z m -13.808594,0.347656 v 14.21875 C 36.570283,74.816416 30.23432,71.721637 25.269531,67.158203 c 5.204579,5.657266 12.316844,9.52894 20.332031,10.582031 V 62.017578 c -0.688862,-0.121564 -1.347315,-0.302171 -2,-0.496094 z M 51.505859,62.3789 C 50.963682,62.43915 50,62.439453 50,62.439453 c 0,0 -0.229865,-0.0023 -0.494141,-0.0078 v 16.441406 c 0.671768,-0.02695 1.338123,-0.07608 2,-0.138672 z"
               style="fill:#0e232e;stroke:#0e232e;stroke-width:1.10000002;stroke-miterlimit:4;stroke-dasharray:none;stroke-opacity:1"
               inkscape:connector-curvature="0" />
          </g>
        </g>
        <rect
           clip-path="url(#clipPath4156-4-1)"
           ry="3.9569881"
           rx="3.9569874"
           y="-30"
           x="2"
           height="69.024437"
           width="75.965775"
           id="rect4146-6"
           style="opacity:0.65;fill:url(#linearGradient927);fill-opacity:1;stroke:none"
           transform="matrix(1.0692451,0,0,1.0476829,4.4441802,38.894013)" />
      </g>
    </g>
  </g>
</svg>
