<?xml version="1.0" encoding="UTF-8" standalone="no"?>
<!-- Created with Inkscape (http://www.inkscape.org/) -->

<svg
   xmlns:dc="http://purl.org/dc/elements/1.1/"
   xmlns:cc="http://creativecommons.org/ns#"
   xmlns:rdf="http://www.w3.org/1999/02/22-rdf-syntax-ns#"
   xmlns:svg="http://www.w3.org/2000/svg"
   xmlns="http://www.w3.org/2000/svg"
   xmlns:xlink="http://www.w3.org/1999/xlink"
   xmlns:sodipodi="http://sodipodi.sourceforge.net/DTD/sodipodi-0.dtd"
   xmlns:inkscape="http://www.inkscape.org/namespaces/inkscape"
   width="96"
   height="96"
   id="svg2"
   version="1.1"
   inkscape:version="0.92.2 5c3e80d, 2017-08-06"
   sodipodi:docname="atunes.svg">
  <script
     xlink:href=""
     id="script2985" />
  <defs
     id="defs4">
    <filter
       color-interpolation-filters="sRGB"
       id="filter3832-0">
      <feGaussianBlur
         id="feGaussianBlur3834-4"
         stdDeviation="0.7690217" />
    </filter>
    <radialGradient
       inkscape:collect="always"
       xlink:href="#linearGradient4370-2"
       id="radialGradient4322"
       gradientUnits="userSpaceOnUse"
       gradientTransform="matrix(1,0,0,1.8056928,0,-124.55148)"
       cx="39.64896"
       cy="154.58929"
       fx="39.64896"
       fy="154.58929"
       r="27.097195" />
    <linearGradient
       id="linearGradient4370-2">
      <stop
         id="stop4372-3"
         style="stop-color:#2a7fff;stop-opacity:1"
         offset="0" />
      <stop
         id="stop4374-7"
         style="stop-color:#003380;stop-opacity:1"
         offset="1" />
    </linearGradient>
    <radialGradient
       inkscape:collect="always"
       xlink:href="#linearGradient3266-4"
       id="radialGradient4324"
       gradientUnits="userSpaceOnUse"
       gradientTransform="matrix(0.9847961,0.02597927,-0.01823822,0.6913564,1.9937062,24.820256)"
       cx="40.846539"
       cy="75.263962"
       fx="40.846539"
       fy="75.263962"
       r="14.672466" />
    <linearGradient
       id="linearGradient3266-4">
      <stop
         id="stop2807-3"
         style="stop-color:#ffffff;stop-opacity:1"
         offset="0" />
      <stop
         id="stop2809-4"
         style="stop-color:#000000;stop-opacity:0"
         offset="1" />
    </linearGradient>
    <filter
       color-interpolation-filters="sRGB"
       id="filter4365">
      <feGaussianBlur
         id="feGaussianBlur4367"
         stdDeviation="0.7690217" />
    </filter>
    <radialGradient
       inkscape:collect="always"
       xlink:href="#linearGradient4370-2"
       id="radialGradient4245-5"
       cx="39.64896"
       cy="154.58929"
       fx="39.64896"
       fy="154.58929"
       r="27.097195"
       gradientTransform="matrix(1,0,0,1.8056928,0,-124.55148)"
       gradientUnits="userSpaceOnUse" />
    <linearGradient
       id="linearGradient4370">
      <stop
         id="stop4372"
         style="stop-color:#2a7fff;stop-opacity:1"
         offset="0" />
      <stop
         id="stop4374"
         style="stop-color:#003380;stop-opacity:1"
         offset="1" />
    </linearGradient>
    <radialGradient
       r="14.672466"
       fy="75.263962"
       fx="40.846539"
       cy="75.263962"
       cx="40.846539"
       gradientTransform="matrix(0.9847961,0.02597927,-0.01823822,0.6913564,1.9937062,24.820256)"
       gradientUnits="userSpaceOnUse"
       id="radialGradient4277"
       xlink:href="#linearGradient3266-4"
       inkscape:collect="always" />
    <linearGradient
       id="linearGradient4377">
      <stop
         id="stop4379"
         style="stop-color:#ffffff;stop-opacity:1"
         offset="0" />
      <stop
         id="stop4381"
         style="stop-color:#000000;stop-opacity:0"
         offset="1" />
    </linearGradient>
    <linearGradient
       inkscape:collect="always"
       xlink:href="#linearGradient3362"
       id="linearGradient3366"
       gradientUnits="userSpaceOnUse"
       x1="25.220379"
       y1="61.92226"
       x2="94.567612"
       y2="61.92226" />
    <linearGradient
       id="linearGradient3362">
      <stop
         id="stop3364"
         style="stop-color:#4d4d4d;stop-opacity:1"
         offset="0" />
      <stop
         id="stop3366"
         style="stop-color:#ffffff;stop-opacity:1"
         offset="1" />
    </linearGradient>
    <radialGradient
       inkscape:collect="always"
       xlink:href="#linearGradient3342"
       id="radialGradient3368"
       gradientUnits="userSpaceOnUse"
       gradientTransform="matrix(1,0,0,0.8375435,0,10.059672)"
       cx="59.893993"
       cy="61.92226"
       fx="59.893993"
       fy="61.92226"
       r="33.71384" />
    <linearGradient
       id="linearGradient3342">
      <stop
         id="stop3344"
         style="stop-color:#000000;stop-opacity:0"
         offset="0" />
      <stop
         id="stop3350"
         style="stop-color:#000000;stop-opacity:0"
         offset="0.85000002" />
      <stop
         id="stop3346"
         style="stop-color:#000000;stop-opacity:1"
         offset="1" />
    </linearGradient>
    <linearGradient
       inkscape:collect="always"
       xlink:href="#linearGradient3330"
       id="linearGradient3370"
       gradientUnits="userSpaceOnUse"
       x1="26.180153"
       y1="61.92226"
       x2="93.607834"
       y2="61.92226" />
    <linearGradient
       id="linearGradient3330">
      <stop
         id="stop3332"
         style="stop-color:#ffffff;stop-opacity:0.203125"
         offset="0" />
      <stop
         id="stop3334"
         style="stop-color:#ffffff;stop-opacity:0.6796875"
         offset="1" />
    </linearGradient>
    <clipPath
       id="clipPath4031">
      <path
         d="M 48,32 C 28.117749,32 12,48.117749 12,68 12,87.882251 28.117749,104 48,104 67.882251,104 84,87.882251 84,68 84,48.117749 67.882251,32 48,32 z m 0,24 c 6.627417,0 12,5.372583 12,12 0,6.627417 -5.372583,12 -12,12 -6.627417,0 -12,-5.372583 -12,-12 0,-6.627417 5.372583,-12 12,-12 z"
         inkscape:connector-curvature="0"
         id="path4033"
         style="fill:#bbb1bf;fill-opacity:1;stroke:none" />
    </clipPath>
    <filter
       x="-0.19037074"
       y="-0.1707008"
       width="1.3807415"
       height="1.3414016"
       color-interpolation-filters="sRGB"
       id="filter4035">
      <feGaussianBlur
         id="feGaussianBlur4037"
         stdDeviation="4.9476562" />
    </filter>
    <clipPath
       id="clipPath4187">
      <path
         d="m 48,102 c -19.88225,0 -36,16.11775 -36,36 0,19.88225 16.11775,36 36,36 19.88225,0 36,-16.11775 36,-36 0,-19.88225 -16.11775,-36 -36,-36 z m 0,24 c 6.62742,0 12,5.37258 12,12 0,6.62742 -5.37258,12 -12,12 -6.62742,0 -12,-5.37258 -12,-12 0,-6.62742 5.37258,-12 12,-12 z"
         inkscape:connector-curvature="0"
         id="path4189"
         style="fill:#bbb1bf;fill-opacity:1;stroke:none" />
    </clipPath>
    <filter
       x="-0.18000001"
       y="-0.18000001"
       width="1.36"
       height="1.36"
       color-interpolation-filters="sRGB"
       id="filter4195">
      <feGaussianBlur
         id="feGaussianBlur4197"
         stdDeviation="5.2159999" />
    </filter>
    <radialGradient
       inkscape:collect="always"
       xlink:href="#linearGradient4042"
       id="radialGradient4556"
       cx="14.693458"
       cy="0.38067999"
       fx="14.693458"
       fy="0.38067999"
       r="45.056355"
       gradientTransform="matrix(1.0034441,0,0,0.89395778,9.5965125,20.256666)"
       gradientUnits="userSpaceOnUse" />
    <linearGradient
       id="linearGradient4042">
      <stop
         id="stop4044"
         style="stop-color:#ff9800;stop-opacity:1"
         offset="0" />
      <stop
         id="stop4046"
         style="stop-color:#ff4600;stop-opacity:1"
         offset="1" />
    </linearGradient>
    <linearGradient
       inkscape:collect="always"
       xlink:href="#linearGradient3888-8-4-8-4-6-9-0-8-7-9"
       id="linearGradient4987"
       gradientUnits="userSpaceOnUse"
       gradientTransform="matrix(1.1897772,0,0,1.1508138,-32.76873,-28.888012)"
       x1="62"
       y1="8"
       x2="62"
       y2="68" />
    <linearGradient
       inkscape:collect="always"
       id="linearGradient3888-8-4-8-4-6-9-0-8-7-9">
      <stop
         style="stop-color:#ffffff;stop-opacity:1;"
         offset="0"
         id="stop3890-4-7-9-5-7-0-8-8-8-6" />
      <stop
         style="stop-color:#ffffff;stop-opacity:0;"
         offset="1"
         id="stop3892-5-8-2-8-3-3-3-06-4-4" />
    </linearGradient>
    <radialGradient
       inkscape:collect="always"
       xlink:href="#linearGradient3888-8-4-8-6"
       id="radialGradient3114"
       gradientUnits="userSpaceOnUse"
       gradientTransform="matrix(0,1.6209438,-2.0382846,0,160.66427,-243.03657)"
       cx="158"
       cy="6.2131939"
       fx="158"
       fy="6.2131939"
       r="41" />
    <linearGradient
       inkscape:collect="always"
       id="linearGradient3888-8-4-8-6">
      <stop
         style="stop-color:#ffffff;stop-opacity:1;"
         offset="0"
         id="stop3890-4-7-9-7" />
      <stop
         style="stop-color:#ffffff;stop-opacity:0;"
         offset="1"
         id="stop3892-5-8-2-7" />
    </linearGradient>
    <radialGradient
       inkscape:collect="always"
       xlink:href="#linearGradient4091-0-3-0-7"
       id="radialGradient3118"
       gradientUnits="userSpaceOnUse"
       gradientTransform="matrix(-1.0721726,0,0,-0.87502024,199.46429,-19.125546)"
       cx="48"
       cy="-27"
       fx="48"
       fy="-27"
       r="42" />
    <linearGradient
       id="linearGradient4091-0-3-0-7">
      <stop
         style="stop-color:#ffffff;stop-opacity:1;"
         offset="0"
         id="stop4093-3-6-4-2" />
      <stop
         id="stop4099-6-1-8-3"
         offset="0.80000001"
         style="stop-color:#ffffff;stop-opacity:1;" />
      <stop
         style="stop-color:#ffffff;stop-opacity:0;"
         offset="1"
         id="stop4095-1-0-7-9" />
    </linearGradient>
    <linearGradient
       inkscape:collect="always"
       xlink:href="#linearGradient3832-0-6-1-1"
       id="linearGradient3120"
       gradientUnits="userSpaceOnUse"
       gradientTransform="matrix(1,0,0,0.88905855,200,8.9431737)"
       x1="-94"
       y1="82.984398"
       x2="-10.187523"
       y2="82.984398" />
    <linearGradient
       id="linearGradient3832-0-6-1-1">
      <stop
         style="stop-color:#000000;stop-opacity:1;"
         offset="0"
         id="stop3834-6-3-7-1" />
      <stop
         id="stop3872-2-4"
         offset="0.1"
         style="stop-color:#000000;stop-opacity:0.58823532;" />
      <stop
         style="stop-color:#000000;stop-opacity:0.58823532;"
         offset="0.89999998"
         id="stop3844-6-2-7-6" />
      <stop
         style="stop-color:#000000;stop-opacity:1;"
         offset="1"
         id="stop3836-5-0-2-9" />
    </linearGradient>
    <linearGradient
       gradientTransform="matrix(1.1353753,0,0,1.1336634,-40.037124,-46.787637)"
       y2="47.000011"
       x2="90"
       y1="47.000011"
       x1="6"
       gradientUnits="userSpaceOnUse"
       id="linearGradient5021"
       xlink:href="#linearGradient6139-0"
       inkscape:collect="always" />
    <linearGradient
       id="linearGradient6139-0">
      <stop
         id="stop6141-2"
         offset="0"
         style="stop-color:#b7b7b7;stop-opacity:1;" />
      <stop
         style="stop-color:#ffffff;stop-opacity:1;"
         offset="0.25"
         id="stop6151-0" />
      <stop
         style="stop-color:#9d9d9d;stop-opacity:1;"
         offset="0.5"
         id="stop6147-1" />
      <stop
         id="stop6149-4"
         offset="0.75"
         style="stop-color:#fafafa;stop-opacity:1;" />
      <stop
         id="stop6143-4"
         offset="1"
         style="stop-color:#b7b7b7;stop-opacity:1;" />
    </linearGradient>
    <linearGradient
       y2="47.000011"
       x2="90"
       y1="47.000011"
       x1="6"
       gradientTransform="matrix(1.1392856,0,0,1.1392855,-30.578504,-29.106973)"
       gradientUnits="userSpaceOnUse"
       id="linearGradient4478"
       xlink:href="#linearGradient6139-0"
       inkscape:collect="always" />
    <linearGradient
       inkscape:collect="always"
       xlink:href="#linearGradient6139-0-3"
       id="linearGradient4071"
       gradientUnits="userSpaceOnUse"
       gradientTransform="matrix(1.1071428,0,0,1.1071426,-5.142859,-36.035687)"
       x1="6"
       y1="47.000011"
       x2="90"
       y2="47.000011" />
    <linearGradient
       id="linearGradient6139-0-3">
      <stop
         id="stop6141-2-6"
         offset="0"
         style="stop-color:#b2babc;stop-opacity:1" />
      <stop
         style="stop-color:#ffffff;stop-opacity:1;"
         offset="0.25"
         id="stop6151-0-7" />
      <stop
         style="stop-color:#96a1a4;stop-opacity:1"
         offset="0.5"
         id="stop6147-1-5" />
      <stop
         id="stop6149-4-3"
         offset="0.75"
         style="stop-color:#fbf9f9;stop-opacity:1;" />
      <stop
         id="stop6143-4-5"
         offset="1"
         style="stop-color:#b2b9bc;stop-opacity:1" />
    </linearGradient>
    <linearGradient
       gradientTransform="translate(-2.95e-6,-31.999974)"
       inkscape:collect="always"
       xlink:href="#linearGradient3832-0-6-1-1"
       id="linearGradient4129"
       x1="1.5"
       y1="88.171875"
       x2="94.5"
       y2="88.171875"
       gradientUnits="userSpaceOnUse" />
    <radialGradient
       inkscape:collect="always"
       xlink:href="#linearGradient3888-8-4-8-4-6-9-0-8-7-9"
       id="radialGradient7462"
       gradientUnits="userSpaceOnUse"
       gradientTransform="matrix(0.97513378,0,0,0.04919072,33.898693,48.166722)"
       cx="13.948145"
       cy="44.892841"
       fx="13.948145"
       fy="44.892841"
       r="43.199203" />
    <radialGradient
       inkscape:collect="always"
       xlink:href="#linearGradient3888-8-4-8-4-6-9-0-8-7-9"
       id="radialGradient7464"
       gradientUnits="userSpaceOnUse"
       gradientTransform="matrix(0.88832663,0,0,0.04919072,-0.455482,-90.168304)"
       cx="13.948145"
       cy="44.892841"
       fx="13.948145"
       fy="44.892841"
       r="43.199203" />
    <linearGradient
       inkscape:collect="always"
       xlink:href="#linearGradient3888-8-4-8-4-6-9-0-8-7-9"
       id="linearGradient4767"
       gradientUnits="userSpaceOnUse"
       x1="2.7713892"
       y1="-28.64156"
       x2="50.527882"
       y2="14.514202" />
    <clipPath
       id="clipPath4156-4-1"
       clipPathUnits="userSpaceOnUse">
      <path
         inkscape:connector-curvature="0"
         id="path4158-0-8"
         d="m 27.046336,-55.695463 -14.21366,13.321486 h 0.06127 l 15.653407,21.770763 10.231384,-10.546177 C 38.561832,-32.30156 27.468089,-54.819245 27.046336,-55.695463 Z M 9.6468554,-39.382809 -5.2407289,-25.32124 15.987863,-7.8059573 26.372412,-18.382966 Z m 31.4906096,12.951445 -9.741259,9.713584 8.944804,12.4580526 7.780753,-7.5550056 z m -49.8397109,4.378822 -13.7541661,12.9822847 26.2830181,13.84571 0.06127,-0.0617 -0.122531,-0.0617 L 13.598503,-5.4007374 -8.7022409,-22.052595 Z m 38.0154159,7.400825 -9.802525,9.7752596 11.579232,9.5594001 7.62759,-7.40083 -8.669108,-11.0087257 z m 20.187073,5.6739697 -7.382526,7.2158 6.187844,8.54179 5.820249,-6.13651996 z m -32.195166,6.32154 -9.5574606,9.49772 13.6622686,7.1849703 7.933918,-7.6783603 z m 23.311629,2.37443004 -7.10683,6.93826996 8.362778,6.9074403 5.360756,-5.6739699 -0.06127,-0.0925 -0.0919,0.12335 -6.463539,-8.20258036 z m -8.730374,8.54178036 -7.505057,7.3391599 10.353916,5.45811 c 1.397496,-1.32103 5.67514,-6.12292 5.850882,-6.32154 z"
         style="opacity:0.6;fill:#ffffff;fill-opacity:1;stroke:none" />
    </clipPath>
    <linearGradient
       id="ButtonShadow-16"
       gradientTransform="scale(1.0058652,0.994169)"
       x1="45.447727"
       y1="92.539597"
       x2="45.447727"
       y2="7.0165396"
       gradientUnits="userSpaceOnUse">
      <stop
         style="stop-color:#000000;stop-opacity:1;"
         offset="0"
         id="stop3750-6" />
      <stop
         style="stop-color:#000000;stop-opacity:0.58823532;"
         offset="1"
         id="stop3752-4" />
    </linearGradient>
    <clipPath
       clipPathUnits="userSpaceOnUse"
       id="clipPath4355-7">
      <rect
         style="fill:#ffffff;fill-opacity:1;fill-rule:nonzero;stroke:none"
         id="rect4357-5"
         width="84"
         height="80"
         x="6"
         y="6"
         rx="6"
         ry="6" />
    </clipPath>
    <clipPath
       clipPathUnits="userSpaceOnUse"
       id="clipPath4355-9">
      <rect
         style="fill:#ffffff;fill-opacity:1;fill-rule:nonzero;stroke:none"
         id="rect4357-1"
         width="84"
         height="80"
         x="6"
         y="6"
         rx="6"
         ry="6" />
    </clipPath>
    <clipPath
       clipPathUnits="userSpaceOnUse"
       id="clipPath4355-1">
      <rect
         style="fill:#ffffff;fill-opacity:1;fill-rule:nonzero;stroke:none"
         id="rect4357-9"
         width="84"
         height="80"
         x="6"
         y="6"
         rx="6"
         ry="6" />
    </clipPath>
    <clipPath
       clipPathUnits="userSpaceOnUse"
       id="clipPath3943-52-0">
      <path
         id="path3945-4-1"
         d="m 69.78125,20.84375 -5,3.4375 c 5.586891,5.537137 9,13.327613 9,21.8125 0,8.434478 -3.37723,16.095981 -8.90625,21.625 l 5,3.4375 C 76.078226,64.5762 80,55.843726 80,46.09375 c 2e-6,-9.796556 -3.962955,-18.660417 -10.21875,-25.25 z M 40,24.0625 28.90625,36.21875 H 21.5 c -0.823281,0 -1.5,0.676717 -1.5,1.5 v 1 14.84375 1 c 0,0.823281 0.684121,1.610161 1.5,1.5 h 7.40625 L 40,68 V 66 26.0625 Z m 20.59375,3.28125 -5,3.4375 L 55.5,30.875 c 3.93815,3.890071 6.40625,9.25018 6.40625,15.21875 0,5.920869 -2.42961,11.148358 -6.3125,15.03125 l 0.09375,0.09375 5.09375,3.4375 c 4.475428,-4.908367 7.25,-11.402005 7.25,-18.5625 0,-7.230696 -2.87904,-13.83107 -7.4375,-18.75 z m -9.25,6.5 -5.21875,3.625 c 2.222384,2.217802 3.71875,5.239596 3.71875,8.625 0,3.336509 -1.458847,6.227712 -3.625,8.4375 l 5.21875,3.625 c 2.822412,-3.236947 4.53125,-7.43414 4.53125,-12.0625 0,-4.672601 -1.754155,-9.001351 -4.625,-12.25 z"
         style="color:#000000;display:inline;overflow:visible;visibility:visible;opacity:0.8;fill:#ff00ff;fill-opacity:1;fill-rule:nonzero;stroke:none;stroke-width:1;marker:none;enable-background:accumulate"
         inkscape:connector-curvature="0" />
    </clipPath>
    <linearGradient
       inkscape:collect="always"
       xlink:href="#linearGradient3362"
       id="linearGradient4800"
       gradientUnits="userSpaceOnUse"
       x1="25.220379"
       y1="61.92226"
       x2="94.567612"
       y2="61.92226"
       gradientTransform="matrix(0,0.16626655,-0.2028611,0,-487.17717,26.742596)" />
    <radialGradient
       inkscape:collect="always"
       xlink:href="#linearGradient3342"
       id="radialGradient4802"
       gradientUnits="userSpaceOnUse"
       gradientTransform="matrix(0,0.28718447,-0.29347228,0,-481.56631,19.500446)"
       cx="59.893993"
       cy="61.92226"
       fx="59.893993"
       fy="61.92226"
       r="33.71384" />
    <linearGradient
       inkscape:collect="always"
       xlink:href="#linearGradient3330"
       id="linearGradient4804"
       gradientUnits="userSpaceOnUse"
       x1="26.180153"
       y1="61.92226"
       x2="93.607834"
       y2="61.92226"
       gradientTransform="matrix(0,0.28718447,-0.35039647,0,-478.04144,19.500446)" />
    <clipPath
       id="clipPath4031-7">
      <path
         d="M 48,32 C 28.117749,32 12,48.117749 12,68 12,87.882251 28.117749,104 48,104 67.882251,104 84,87.882251 84,68 84,48.117749 67.882251,32 48,32 Z m 0,24 c 6.627417,0 12,5.372583 12,12 0,6.627417 -5.372583,12 -12,12 -6.627417,0 -12,-5.372583 -12,-12 0,-6.627417 5.372583,-12 12,-12 z"
         inkscape:connector-curvature="0"
         id="path4033-9"
         style="fill:#bbb1bf;fill-opacity:1;stroke:none" />
    </clipPath>
    <filter
       style="color-interpolation-filters:sRGB"
       x="-0.19037074"
       y="-0.1707008"
       width="1.3807415"
       height="1.3414016"
       id="filter4035-2">
      <feGaussianBlur
         id="feGaussianBlur4037-0"
         stdDeviation="4.9476562" />
    </filter>
    <filter
       style="color-interpolation-filters:sRGB"
       x="-0.18000001"
       y="-0.18000001"
       width="1.36"
       height="1.36"
       id="filter4195-2">
      <feGaussianBlur
         id="feGaussianBlur4197-3"
         stdDeviation="5.2159999" />
    </filter>
    <filter
       style="color-interpolation-filters:sRGB"
       x="-0.18000001"
       y="-0.18000001"
       width="1.36"
       height="1.36"
       id="filter1200">
      <feGaussianBlur
         id="feGaussianBlur1198"
         stdDeviation="5.2159999" />
    </filter>
    <filter
       style="color-interpolation-filters:sRGB"
       x="-0.18000001"
       y="-0.18000001"
       width="1.36"
       height="1.36"
       id="filter1204">
      <feGaussianBlur
         id="feGaussianBlur1202"
         stdDeviation="5.2159999" />
    </filter>
    <filter
       style="color-interpolation-filters:sRGB"
       x="-0.18000001"
       y="-0.18000001"
       width="1.36"
       height="1.36"
       id="filter1208">
      <feGaussianBlur
         id="feGaussianBlur1206"
         stdDeviation="5.2159999" />
    </filter>
    <filter
       style="color-interpolation-filters:sRGB"
       x="-0.18000001"
       y="-0.18000001"
       width="1.36"
       height="1.36"
       id="filter1212">
      <feGaussianBlur
         id="feGaussianBlur1210"
         stdDeviation="5.2159999" />
    </filter>
    <filter
       style="color-interpolation-filters:sRGB"
       x="-0.18000001"
       y="-0.18000001"
       width="1.36"
       height="1.36"
       id="filter1216">
      <feGaussianBlur
         id="feGaussianBlur1214"
         stdDeviation="5.2159999" />
    </filter>
    <filter
       style="color-interpolation-filters:sRGB"
       x="-0.18000001"
       y="-0.18000001"
       width="1.36"
       height="1.36"
       id="filter1220">
      <feGaussianBlur
         id="feGaussianBlur1218"
         stdDeviation="5.2159999" />
    </filter>
    <radialGradient
       inkscape:collect="always"
       xlink:href="#linearGradient3266-4"
       id="radialGradient4808"
       gradientUnits="userSpaceOnUse"
       gradientTransform="matrix(0.43386786,0.06560658,-0.04480788,0.31308471,-535.49273,35.461146)"
       cx="40.846539"
       cy="75.263962"
       fx="40.846539"
       fy="75.263962"
       r="14.672466" />
    <linearGradient
       inkscape:collect="always"
       xlink:href="#linearGradient4042"
       id="linearGradient967"
       x1="6.1171622"
       y1="12.668744"
       x2="90.152878"
       y2="12.668744"
       gradientUnits="userSpaceOnUse" />
  </defs>
  <sodipodi:namedview
     id="base"
     pagecolor="#ffffff"
     bordercolor="#666666"
     borderopacity="1.0"
     inkscape:pageopacity="0.0"
     inkscape:pageshadow="2"
     inkscape:zoom="3.8020833"
     inkscape:cx="-3.5506854"
     inkscape:cy="48"
     inkscape:current-layer="layer1"
     showgrid="true"
     inkscape:document-units="px"
     inkscape:grid-bbox="true"
     inkscape:showpageshadow="false"
     gridtolerance="1"
     guidetolerance="1"
     objecttolerance="1"
     inkscape:window-width="1280"
     inkscape:window-height="941"
     inkscape:window-x="0"
     inkscape:window-y="21"
     inkscape:window-maximized="1" />
  <metadata
     id="metadata7">
    <rdf:RDF>
      <cc:Work
         rdf:about="">
        <dc:format>image/svg+xml</dc:format>
        <dc:type
           rdf:resource="http://purl.org/dc/dcmitype/StillImage" />
        <dc:title />
      </cc:Work>
    </rdf:RDF>
  </metadata>
  <g
     id="layer1"
     inkscape:label="Layer 1"
     inkscape:groupmode="layer"
     transform="translate(0,32)">
    <path
       style="display:inline;opacity:0.15;fill:#000000;fill-opacity:1;fill-rule:nonzero;stroke:none"
       d="M 89.142854,-31.999974 H 6.8571346 c -3.7988479,0 -6.85713515,3.058285 -6.85713515,6.85714 v 82.285718 c 0,3.798857 3.05828725,6.857142 6.85713515,6.857142 H 89.142854 c 3.798857,0 6.857147,-3.058285 6.857147,-6.857142 v -82.285718 c 0,-3.798855 -3.05829,-6.85714 -6.857147,-6.85714 z"
       id="path3288"
       inkscape:connector-curvature="0" />
    <path
       inkscape:connector-curvature="0"
       id="path4085"
       d="M 88.499998,-31.249974 H 7.4999906 c -3.7394919,0 -6.74999295,3.010499 -6.74999295,6.749997 v 81.000003 c 0,3.739501 3.01050105,6.75 6.74999295,6.75 H 88.499998 c 3.739503,0 6.750003,-3.010499 6.750003,-6.75 v -81.000003 c 0,-3.739498 -3.0105,-6.749997 -6.750003,-6.749997 z"
       style="display:inline;opacity:0.15;fill:#000000;fill-opacity:1;fill-rule:nonzero;stroke:none" />
    <path
       style="display:inline;fill:url(#linearGradient4071);fill-opacity:1;fill-rule:nonzero;stroke:none"
       d="M 87.857137,-30.499974 H 8.1428547 c -3.6801431,0 -6.6428566,2.962713 -6.6428566,6.642855 v 79.71429 c 0,3.680142 2.9627135,6.642856 6.6428566,6.642856 H 87.857137 c 3.680143,0 6.642854,-2.962714 6.642854,-6.642856 v -79.71429 c 0,-3.680142 -2.962711,-6.642855 -6.642854,-6.642855 z"
       id="rect4251-1-0"
       inkscape:connector-curvature="0" />
    <path
       style="display:inline;opacity:0.241;fill:url(#linearGradient967);fill-opacity:1;fill-rule:nonzero;stroke:none;stroke-width:1.02950251"
       d="m 11.241291,-25.612832 c -2.8564968,0 -5.1241288,2.288378 -5.1241288,5.171003 v 21.42734 7.239403 39.913674 c 1.0972399,1.684484 2.9688485,2.811732 5.1241288,2.811732 h 4.099303 65.588849 4.099302 c 2.155281,0 4.026889,-1.127248 5.124129,-2.811732 V 8.224914 0.985511 -20.441829 c 0,-2.882625 -2.267632,-5.171003 -5.124129,-5.171003 z"
       id="path3400-6-9"
       inkscape:connector-curvature="0"
       sodipodi:nodetypes="sscccsccscccsss" />
    <path
       inkscape:connector-curvature="0"
       id="path4989-3"
       d="m 9.6041094,-27.270513 c -3.116621,0 -5.667965,2.53951 -5.667965,5.646004 v 69.277996 c 0,3.106495 2.551344,5.646004 5.667965,5.646004 H 86.395895 c 3.116621,0 5.667968,-2.539509 5.667968,-5.646004 v -69.277996 c 0,-3.106493 -2.551347,-5.646004 -5.667968,-5.646004 z m 0,2.319439 H 86.395895 c 1.888099,0 3.352022,1.480095 3.352022,3.326565 v 69.277996 c 0,1.846474 -1.463923,3.326564 -3.352022,3.326564 H 9.6041094 c -1.888099,0 -3.352022,-1.48009 -3.352022,-3.326564 v -69.277996 c 0,-1.84647 1.463923,-3.326565 3.352022,-3.326565 z"
       style="color:#000000;font-style:normal;font-variant:normal;font-weight:normal;font-stretch:normal;font-size:medium;line-height:normal;font-family:Sans;-inkscape-font-specification:Sans;text-indent:0;text-align:start;text-decoration:none;text-decoration-line:none;letter-spacing:normal;word-spacing:normal;text-transform:none;writing-mode:lr-tb;direction:ltr;baseline-shift:baseline;text-anchor:start;display:inline;overflow:visible;visibility:visible;fill:#1f2224;fill-opacity:0.63265303;stroke:none;stroke-width:2.3755002;marker:none;enable-background:accumulate" />
    <path
       inkscape:connector-curvature="0"
       style="display:inline;opacity:0.65818182;fill:url(#linearGradient4129);fill-opacity:1;fill-rule:nonzero;stroke:none"
       d="m 1.499997,49.843776 v 6 c 0,3.680142 2.9761066,6.65625 6.6562497,6.65625 H 87.843747 c 3.680143,0 6.656254,-2.976108 6.656254,-6.65625 v -6 c 0,3.680142 -2.976111,6.65625 -6.656254,6.65625 H 8.1562467 c -3.6801431,0 -6.6562496,-2.976108 -6.6562497,-6.65625 z"
       id="path4118" />
    <rect
       style="opacity:0.55;fill:url(#radialGradient7462);fill-opacity:1;stroke:none"
       id="rect4131"
       width="84.250008"
       height="4.25"
       x="5.3749976"
       y="48.250031"
       rx="4.25"
       ry="4.25" />
    <rect
       ry="4.25"
       rx="4.25"
       y="-90.085007"
       x="-26.439978"
       height="4.25"
       width="76.75"
       id="rect4141"
       style="opacity:0.669;fill:url(#radialGradient7464);fill-opacity:1;stroke:none"
       transform="rotate(90)" />
    <g
       id="g1169"
       transform="matrix(1.0069236,0,0,1,551.19878,-23.872235)"
       style="stroke-width:0.99655604">
      <path
         style="color:#000000;display:inline;overflow:visible;visibility:visible;opacity:0.05;fill:#000000;fill-opacity:1;fill-rule:nonzero;stroke:none;stroke-width:1.2107414;marker:none;enable-background:accumulate"
         id="path3736"
         d="m -499.73878,16.486946 c -11.98734,0 -21.73799,9.60042 -21.73799,21.40308 0,11.80266 9.75065,21.40308 21.73799,21.40308 11.98733,0 21.73798,-9.60042 21.73798,-21.40308 0,-11.80266 -9.75065,-21.40308 -21.73798,-21.40308 z m 0,11.8906 c 5.35777,0 9.66133,4.23725 9.66133,9.51248 0,5.27523 -4.30356,9.51248 -9.66133,9.51248 -5.35778,0 -9.66133,-4.23725 -9.66133,-9.51248 0,-5.27523 4.30355,-9.51248 9.66133,-9.51248 z"
         inkscape:connector-curvature="0" />
      <path
         style="color:#000000;display:inline;overflow:visible;visibility:visible;opacity:0.3;fill:#000000;fill-opacity:1;fill-rule:nonzero;stroke:none;stroke-width:1.2107414;marker:none;enable-background:accumulate"
         id="path3725"
         inkscape:connector-curvature="0"
         d="m -499.73878,18.865066 c -10.67161,0 -19.32266,8.51776 -19.32266,19.02496 0,10.5072 8.65105,19.02496 19.32266,19.02496 10.6716,0 19.32264,-8.51776 19.32264,-19.02496 0,-10.5072 -8.65104,-19.02496 -19.32264,-19.02496 z m 0,7.13436 c 6.66975,0 12.07665,5.3236 12.07665,11.8906 0,6.567 -5.4069,11.8906 -12.07665,11.8906 -6.66976,0 -12.07666,-5.3236 -12.07666,-11.8906 0,-6.567 5.4069,-11.8906 12.07666,-11.8906 z" />
      <path
         style="color:#000000;display:inline;overflow:visible;visibility:visible;opacity:0.1;fill:#000000;fill-opacity:1;fill-rule:nonzero;stroke:none;stroke-width:1.2107414;marker:none;enable-background:accumulate"
         id="path3732"
         d="m -499.73878,17.638846 c -11.34908,0 -20.56806,9.07695 -20.56806,20.25118 0,11.17423 9.21898,20.25118 20.56806,20.25118 11.34908,0 20.56805,-9.07695 20.56805,-20.25118 0,-11.17423 -9.21897,-20.25118 -20.56805,-20.25118 z m 0,9.5868 c 5.99227,0 10.83125,4.76442 10.83125,10.66438 0,5.89996 -4.83898,10.66438 -10.83125,10.66438 -5.99229,0 -10.83126,-4.76442 -10.83126,-10.66438 0,-5.89996 4.83897,-10.66438 10.83126,-10.66438 z"
         inkscape:connector-curvature="0" />
      <path
         style="display:inline;fill:#bbb1bf;fill-opacity:1;stroke:none;stroke-width:1.2107414"
         id="path3978"
         inkscape:connector-curvature="0"
         d="m -499.73878,1.129646 c -19.9529,0 -36.12792,15.92582 -36.12792,35.57132 0,19.6455 16.17502,35.57132 36.12792,35.57132 19.95289,0 36.12791,-15.92582 36.12791,-35.57132 0,-19.6455 -16.17502,-35.57132 -36.12791,-35.57132 z m 0,23.71421 c 6.65096,0 12.04264,5.30861 12.04264,11.85711 0,6.5485 -5.39168,11.85711 -12.04264,11.85711 -6.65097,0 -12.04264,-5.30861 -12.04264,-11.85711 0,-6.5485 5.39167,-11.85711 12.04264,-11.85711 z" />
      <path
         style="display:inline;opacity:0.3;fill:#ffffff;fill-opacity:1;stroke:none;stroke-width:1.2107414"
         id="path3992"
         inkscape:connector-curvature="0"
         d="m -499.73878,24.843856 c -6.65097,0 -12.04264,5.30861 -12.04264,11.85711 0,6.5485 5.39167,11.85711 12.04264,11.85711 6.65096,0 12.04264,-5.30861 12.04264,-11.85711 0,-6.5485 -5.39168,-11.85711 -12.04264,-11.85711 z m 0,6.91665 c 2.77123,0 5.01776,2.21192 5.01776,4.94046 0,2.72854 -2.24653,4.94046 -5.01776,4.94046 -2.77124,0 -5.01777,-2.21192 -5.01777,-4.94046 0,-2.72854 2.24653,-4.94046 5.01777,-4.94046 z" />
      <path
         style="display:inline;opacity:0.6;fill:none;stroke:url(#linearGradient4800);stroke-width:1.2107414;stroke-linecap:round;stroke-linejoin:miter;stroke-miterlimit:4;stroke-dasharray:none;stroke-dashoffset:0;stroke-opacity:1"
         id="path4002-9"
         d="m -499.73878,42.135476 a 5.5195449,5.43451 0 1 1 0,-10.86902 5.5195449,5.43451 0 1 1 0,10.86902 z"
         inkscape:connector-curvature="0" />
      <path
         style="display:inline;opacity:0.5;fill:url(#radialGradient4802);fill-opacity:1;fill-rule:evenodd;stroke:url(#linearGradient4804);stroke-width:1.2107414;stroke-linecap:round;stroke-linejoin:miter;stroke-miterlimit:4;stroke-dasharray:none;stroke-dashoffset:0;stroke-opacity:1"
         id="path4010"
         d="m -499.73878,46.087846 a 9.533759,9.386775 0 1 1 0,-18.77355 9.533759,9.386775 0 1 1 0,18.77355 z"
         inkscape:connector-curvature="0" />
      <path
         style="display:inline;opacity:0.8;fill:#ffffff;fill-opacity:1;stroke:none;stroke-width:1.01035988;filter:url(#filter4035-2)"
         id="path4018"
         clip-path="url(#clipPath4031-7)"
         transform="matrix(1.0035532,0,0,0.98809228,-547.90933,-30.489314)"
         inkscape:connector-curvature="0"
         d="M 57.3125,33.21875 48,68 79.1875,50 C 74.413603,41.731368 66.53496,35.689901 57.3125,33.21875 Z M 48,68 16.8125,86 c 4.773897,8.268632 12.65254,14.3101 21.875,16.78125 z" />
      <path
         inkscape:connector-curvature="0"
         d="m 60.779363,58.010828 a 20.708128,18.814091 0 0 1 -3.384016,3.478847 L 43.689098,47.38641 Z"
         transform="matrix(1.6851782,0.4445856,-0.49699951,1.8262513,-549.81168,-69.262067)"
         id="path4041"
         style="fill:#00ccff;fill-opacity:1;stroke:none;stroke-width:1.01035988;filter:url(#filter4195-2)" />
      <path
         inkscape:connector-curvature="0"
         d="m 62.72377,54.795738 a 20.708128,18.814091 0 0 1 -2.259683,3.622054 L 43.689098,47.38641 Z"
         transform="matrix(1.7446249,0,-6.048035e-8,1.8906746,-575.95987,-52.891308)"
         id="path4043"
         style="fill:#ffcc00;fill-opacity:1;stroke:none;stroke-width:1.01035988;filter:url(#filter4195-2)" />
      <path
         inkscape:connector-curvature="0"
         d="m 63.123303,53.883448 a 20.708128,18.814091 0 0 1 -2.370014,4.161918 L 43.689098,47.38641 Z"
         transform="matrix(1.6851782,0.4445856,-0.49699951,1.8262513,-549.81168,-69.262067)"
         id="path4144"
         style="fill:#00ff00;fill-opacity:1;stroke:none;stroke-width:1.01035988;filter:url(#filter4195-2)" />
      <path
         inkscape:connector-curvature="0"
         d="m 60.947452,57.784124 a 20.708128,18.814091 0 0 1 -2.615496,2.905857 L 43.689098,47.38641 Z"
         transform="matrix(-1.5108894,-0.85887341,0.96012927,-1.6373722,-479.22647,151.81356)"
         id="path4155"
         style="fill:#7137c8;fill-opacity:1;stroke:none;stroke-width:1.01035988;filter:url(#filter4195-2)" />
      <path
         inkscape:connector-curvature="0"
         d="m 60.779363,58.010828 a 20.708128,18.814091 0 0 1 -3.384016,3.478847 L 43.689098,47.38641 Z"
         transform="matrix(-1.6851782,-0.4445856,0.49699951,-1.8262513,-449.66589,142.66401)"
         id="path4157"
         style="fill:#00ccff;fill-opacity:1;stroke:none;stroke-width:1.01035988;filter:url(#filter4195-2)" />
      <path
         sodipodi:nodetypes="sssssssssss"
         style="color:#000000;display:inline;overflow:visible;visibility:visible;opacity:0.322;fill:#000000;fill-opacity:0.18260869;fill-rule:nonzero;stroke:none;stroke-width:1.2107414;marker:none;enable-background:accumulate"
         id="path3749"
         inkscape:connector-curvature="0"
         d="m -499.73878,1.029156 c -20.00927,0 -36.22998,15.97082 -36.22998,35.67181 0,19.70099 16.22071,35.67181 36.22998,35.67181 20.00926,0 36.22996,-15.97082 36.22996,-35.67181 0,-19.70099 -16.2207,-35.67181 -36.22996,-35.67181 z m 0,3.56718 c 18.00833,0 32.60697,14.37373 32.60697,32.10463 0,17.73089 -14.59864,32.10462 -32.60697,32.10462 -7.58482,0 -14.56477,-2.549837 -20.10387,-6.826396 -7.61216,-5.877109 -12.50311,-15.015294 -12.50311,-25.278224 0,-17.7309 14.59864,-32.10463 32.60698,-32.10463 z" />
      <path
         inkscape:connector-curvature="0"
         d="m 62.72377,54.795738 a 20.708128,18.814091 0 0 1 -2.259683,3.622054 L 43.689098,47.38641 Z"
         transform="matrix(-1.7446249,0,6.048035e-8,-1.8906746,-423.5177,126.29325)"
         id="path4159"
         style="fill:#ffcc00;fill-opacity:1;stroke:none;stroke-width:1.01035988;filter:url(#filter4195-2)" />
      <path
         inkscape:connector-curvature="0"
         d="m 63.123303,53.883448 a 20.708128,18.814091 0 0 1 -2.370014,4.161918 L 43.689098,47.38641 Z"
         transform="matrix(-1.6851782,-0.4445856,0.49699951,-1.8262513,-449.66589,142.66401)"
         id="path4163"
         style="fill:#00ff00;fill-opacity:1;stroke:none;stroke-width:1.01035988;filter:url(#filter4195-2)" />
      <path
         style="display:inline;opacity:0.2;fill:#000000;fill-opacity:1;stroke:none;stroke-width:1.2107414"
         id="path3986"
         inkscape:connector-curvature="0"
         d="m -499.73878,22.373626 c -8.03659,0 -14.55153,6.41457 -14.55153,14.32734 0,7.91277 6.51494,14.32734 14.55153,14.32734 8.03658,0 14.55151,-6.41457 14.55151,-14.32734 0,-7.91277 -6.51493,-14.32734 -14.55151,-14.32734 z m 0,2.47023 c 6.65096,0 12.04264,5.30861 12.04264,11.85711 0,6.5485 -5.39168,11.85711 -12.04264,11.85711 -6.65097,0 -12.04264,-5.30861 -12.04264,-11.85711 0,-6.5485 5.39167,-11.85711 12.04264,-11.85711 z" />
      <path
         style="fill:url(#radialGradient4808);fill-opacity:1;stroke:none;stroke-width:0.45599464"
         id="path2494"
         d="m -514.51525,64.627836 a 6.5342274,4.2448326 7.319946 1 1 -12.96953,-1.60326 6.5342274,4.2448326 7.319946 1 1 12.96953,1.60326 z"
         inkscape:connector-curvature="0" />
      <path
         style="fill:#ff83fe;fill-opacity:1;stroke:none;stroke-width:0.38169628"
         id="path3261"
         inkscape:connector-curvature="0"
         d="m -506.27571,35.934936 -9.04961,25.40129 c -1.31321,-1.1942 -3.28144,-2.0465 -5.55367,-2.24984 -4.24658,-0.38002 -7.91251,1.65043 -8.17105,4.5431 -0.25853,2.89268 2.96872,5.5515 7.2153,5.93153 3.60786,0.32286 6.01347,-1.39508 7.04753,-3.60447 l 0.0248,0.009 8.31144,-23.32934 c 1.57621,2.36721 4.72586,10.97077 -2.06174,16.74001 3.46372,-3.00805 5.43226,-7.63587 5.69848,-10.1735 0.26622,-2.53763 -0.78189,-5.64408 -1.97664,-8.54273 -1.25511,-3.04506 -1.48488,-4.7254 -1.48488,-4.7254 z" />
      <path
         d="m -509.10866,6.969756 -10.72294,30.41663 c -1.57527,-1.42275 -3.93255,-2.43388 -6.65085,-2.66761 -5.08024,-0.43682 -9.45655,2.00677 -9.75436,5.46737 -0.29781,3.46061 3.57234,6.62704 8.65257,7.06386 4.31615,0.37112 7.18639,-1.69348 8.41439,-4.34014 l 0.0298,0.0111 9.84828,-27.93558 c 1.89441,2.82452 5.69515,13.10094 -2.39984,20.02898 4.13063,-3.61193 6.4667,-9.15481 6.7751,-12.19082 0.3084,-3.03602 -0.95734,-6.74685 -2.39765,-10.20856 -1.51304,-3.63656 -1.79446,-5.64522 -1.79446,-5.64522 z"
         inkscape:connector-curvature="0"
         id="path4318"
         style="fill:#00ffff;fill-opacity:1;stroke:none;stroke-width:0.45649675" />
    </g>
    <rect
       transform="matrix(1.0692451,0,0,1.0476829,4.2952237,6.479013)"
       style="opacity:0.65;fill:url(#linearGradient4767);fill-opacity:1;stroke:none"
       id="rect4146"
       width="75.965775"
       height="69.024437"
       x="2"
       y="-30"
       rx="3.9569874"
       ry="3.9569881"
       clip-path="url(#clipPath4156-4-1)" />
  </g>
</svg>
