<?xml version="1.0" encoding="UTF-8" standalone="no"?>
<svg
   xmlns:dc="http://purl.org/dc/elements/1.1/"
   xmlns:cc="http://creativecommons.org/ns#"
   xmlns:rdf="http://www.w3.org/1999/02/22-rdf-syntax-ns#"
   xmlns:svg="http://www.w3.org/2000/svg"
   xmlns="http://www.w3.org/2000/svg"
   xmlns:xlink="http://www.w3.org/1999/xlink"
   xmlns:sodipodi="http://sodipodi.sourceforge.net/DTD/sodipodi-0.dtd"
   xmlns:inkscape="http://www.inkscape.org/namespaces/inkscape"
   width="96"
   height="96"
   version="1.1"
   viewBox="0 0 72 72"
   id="svg17"
   sodipodi:docname="authy.svg"
   inkscape:version="0.92.2 2405546, 2018-03-11">
  <metadata
     id="metadata23">
    <rdf:RDF>
      <cc:Work
         rdf:about="">
        <dc:format>image/svg+xml</dc:format>
        <dc:type
           rdf:resource="http://purl.org/dc/dcmitype/StillImage" />
        <dc:title></dc:title>
        <dc:date>2019</dc:date>
        <dc:creator>
          <cc:Agent>
            <dc:title>Cristian Pozzessere  &lt; ilnanny &gt;</dc:title>
          </cc:Agent>
        </dc:creator>
        <dc:subject>
          <rdf:Bag>
            <rdf:li>ilnanny</rdf:li>
            <rdf:li>lila_hd</rdf:li>
            <rdf:li>lila-hd</rdf:li>
            <rdf:li>lila hd icon theme</rdf:li>
            <rdf:li>Lila-HD-Icon-Theme lila hd icon lila icon</rdf:li>
          </rdf:Bag>
        </dc:subject>
        <dc:description>Playing with Inkscape on Gnu/Linux O. S.</dc:description>
        <dc:contributor>
          <cc:Agent>
            <dc:title>In the night, alone like a dog.</dc:title>
          </cc:Agent>
        </dc:contributor>
      </cc:Work>
    </rdf:RDF>
  </metadata>
  <defs
     id="defs21">
    <linearGradient
       inkscape:collect="always"
       xlink:href="#linearGradient6139-0"
       id="linearGradient4071"
       gradientUnits="userSpaceOnUse"
       gradientTransform="matrix(0.82949213,0,0,0.83035695,-3.8531264,-3.0267702)"
       x1="6"
       y1="47.000011"
       x2="90"
       y2="47.000011" />
    <linearGradient
       id="linearGradient6139-0">
      <stop
         id="stop6141-2"
         offset="0"
         style="stop-color:#b2babc;stop-opacity:1" />
      <stop
         style="stop-color:#ffffff;stop-opacity:1;"
         offset="0.25"
         id="stop6151-0" />
      <stop
         style="stop-color:#96a1a4;stop-opacity:1"
         offset="0.5"
         id="stop6147-1" />
      <stop
         id="stop6149-4"
         offset="0.75"
         style="stop-color:#fbf9f9;stop-opacity:1;" />
      <stop
         id="stop6143-4"
         offset="1"
         style="stop-color:#b2b9bc;stop-opacity:1" />
    </linearGradient>
    <linearGradient
       gradientTransform="matrix(0.74921876,0,0,0.74999998,-2.2275e-6,1.44925e-5)"
       inkscape:collect="always"
       xlink:href="#linearGradient3832-0-6-1-1"
       id="linearGradient4129"
       x1="1.5"
       y1="88.171875"
       x2="94.5"
       y2="88.171875"
       gradientUnits="userSpaceOnUse" />
    <linearGradient
       id="linearGradient3832-0-6-1-1">
      <stop
         style="stop-color:#000000;stop-opacity:1;"
         offset="0"
         id="stop3834-6-3-7-1" />
      <stop
         id="stop3872-2-4"
         offset="0.1"
         style="stop-color:#000000;stop-opacity:0.58823532;" />
      <stop
         style="stop-color:#000000;stop-opacity:0.58823532;"
         offset="0.89999998"
         id="stop3844-6-2-7-6" />
      <stop
         style="stop-color:#000000;stop-opacity:1;"
         offset="1"
         id="stop3836-5-0-2-9" />
    </linearGradient>
    <radialGradient
       inkscape:collect="always"
       xlink:href="#linearGradient3737"
       id="radialGradient7462"
       gradientUnits="userSpaceOnUse"
       gradientTransform="matrix(0.73058849,0,0,0.03689304,25.397535,60.125037)"
       cx="13.948145"
       cy="44.892841"
       fx="13.948145"
       fy="44.892841"
       r="43.199203" />
    <linearGradient
       id="linearGradient3737">
      <stop
         offset="0"
         style="stop-color:#ffffff;stop-opacity:1"
         id="stop3739" />
      <stop
         offset="1"
         style="stop-color:#ffffff;stop-opacity:0"
         id="stop3741" />
    </linearGradient>
    <radialGradient
       inkscape:collect="always"
       xlink:href="#linearGradient3737"
       id="radialGradient7464"
       gradientUnits="userSpaceOnUse"
       gradientTransform="matrix(0.66624496,0,0,0.03685461,23.658384,-67.555782)"
       cx="13.948145"
       cy="44.892841"
       fx="13.948145"
       fy="44.892841"
       r="43.199203" />
    <linearGradient
       gradientTransform="matrix(1.0041884,0,0,1.0052356,-0.21820995,-0.04755458)"
       inkscape:collect="always"
       xlink:href="#linearGradient3737"
       id="linearGradient4767"
       gradientUnits="userSpaceOnUse"
       x1="2.7713892"
       y1="-28.64156"
       x2="50.527882"
       y2="14.514202" />
    <clipPath
       id="clipPath4156-4-1"
       clipPathUnits="userSpaceOnUse">
      <path
         inkscape:connector-curvature="0"
         id="path4158-0-8"
         d="m 27.046336,-55.695463 -14.21366,13.321486 h 0.06127 l 15.653407,21.770763 10.231384,-10.546177 C 38.561832,-32.30156 27.468089,-54.819245 27.046336,-55.695463 Z M 9.6468554,-39.382809 -5.2407289,-25.32124 15.987863,-7.8059573 26.372412,-18.382966 Z m 31.4906096,12.951445 -9.741259,9.713584 8.944804,12.4580526 7.780753,-7.5550056 z m -49.8397109,4.378822 -13.7541661,12.9822847 26.2830181,13.84571 0.06127,-0.0617 -0.122531,-0.0617 L 13.598503,-5.4007374 -8.7022409,-22.052595 Z m 38.0154159,7.400825 -9.802525,9.7752596 11.579232,9.5594001 7.62759,-7.40083 -8.669108,-11.0087257 z m 20.187073,5.6739697 -7.382526,7.2158 6.187844,8.54179 5.820249,-6.13651996 z m -32.195166,6.32154 -9.5574606,9.49772 13.6622686,7.1849703 7.933918,-7.6783603 z m 23.311629,2.37443004 -7.10683,6.93826996 8.362778,6.9074403 5.360756,-5.6739699 -0.06127,-0.0925 -0.0919,0.12335 -6.463539,-8.20258036 z m -8.730374,8.54178036 -7.505057,7.3391599 10.353916,5.45811 c 1.397496,-1.32103 5.67514,-6.12292 5.850882,-6.32154 z"
         style="opacity:0.6;fill:#ffffff;fill-opacity:1;stroke:none" />
    </clipPath>
    <linearGradient
       id="ButtonShadow-16"
       gradientTransform="scale(1.0058652,0.994169)"
       x1="45.447727"
       y1="92.539597"
       x2="45.447727"
       y2="7.0165396"
       gradientUnits="userSpaceOnUse">
      <stop
         style="stop-color:#000000;stop-opacity:1;"
         offset="0"
         id="stop3750-6" />
      <stop
         style="stop-color:#000000;stop-opacity:0.58823532;"
         offset="1"
         id="stop3752-4" />
    </linearGradient>
    <clipPath
       clipPathUnits="userSpaceOnUse"
       id="clipPath4355-7">
      <rect
         style="fill:#ffffff;fill-opacity:1;fill-rule:nonzero;stroke:none"
         id="rect4357-5"
         width="84"
         height="80"
         x="6"
         y="6"
         rx="6"
         ry="6" />
    </clipPath>
    <clipPath
       clipPathUnits="userSpaceOnUse"
       id="clipPath4355-9">
      <rect
         style="fill:#ffffff;fill-opacity:1;fill-rule:nonzero;stroke:none"
         id="rect4357-1"
         width="84"
         height="80"
         x="6"
         y="6"
         rx="6"
         ry="6" />
    </clipPath>
    <clipPath
       clipPathUnits="userSpaceOnUse"
       id="clipPath4355-1">
      <rect
         style="fill:#ffffff;fill-opacity:1;fill-rule:nonzero;stroke:none"
         id="rect4357-9"
         width="84"
         height="80"
         x="6"
         y="6"
         rx="6"
         ry="6" />
    </clipPath>
    <clipPath
       clipPathUnits="userSpaceOnUse"
       id="clipPath3943-52-0">
      <path
         id="path3945-4-1"
         d="m 69.78125,20.84375 -5,3.4375 c 5.586891,5.537137 9,13.327613 9,21.8125 0,8.434478 -3.37723,16.095981 -8.90625,21.625 l 5,3.4375 C 76.078226,64.5762 80,55.843726 80,46.09375 c 2e-6,-9.796556 -3.962955,-18.660417 -10.21875,-25.25 z M 40,24.0625 28.90625,36.21875 H 21.5 c -0.823281,0 -1.5,0.676717 -1.5,1.5 v 1 14.84375 1 c 0,0.823281 0.684121,1.610161 1.5,1.5 h 7.40625 L 40,68 V 66 26.0625 Z m 20.59375,3.28125 -5,3.4375 L 55.5,30.875 c 3.93815,3.890071 6.40625,9.25018 6.40625,15.21875 0,5.920869 -2.42961,11.148358 -6.3125,15.03125 l 0.09375,0.09375 5.09375,3.4375 c 4.475428,-4.908367 7.25,-11.402005 7.25,-18.5625 0,-7.230696 -2.87904,-13.83107 -7.4375,-18.75 z m -9.25,6.5 -5.21875,3.625 c 2.222384,2.217802 3.71875,5.239596 3.71875,8.625 0,3.336509 -1.458847,6.227712 -3.625,8.4375 l 5.21875,3.625 c 2.822412,-3.236947 4.53125,-7.43414 4.53125,-12.0625 0,-4.672601 -1.754155,-9.001351 -4.625,-12.25 z"
         style="color:#000000;display:inline;overflow:visible;visibility:visible;opacity:0.8;fill:#ff00ff;fill-opacity:1;fill-rule:nonzero;stroke:none;stroke-width:1;marker:none;enable-background:accumulate"
         inkscape:connector-curvature="0" />
    </clipPath>
  </defs>
  <sodipodi:namedview
     pagecolor="#ffffff"
     bordercolor="#666666"
     borderopacity="1"
     objecttolerance="10"
     gridtolerance="10"
     guidetolerance="10"
     inkscape:pageopacity="0"
     inkscape:pageshadow="2"
     inkscape:window-width="640"
     inkscape:window-height="480"
     id="namedview19"
     showgrid="false"
     inkscape:zoom="7.96875"
     inkscape:cx="39.403922"
     inkscape:cy="48"
     inkscape:current-layer="g129" />
  <path
     style="display:inline;opacity:0.15;fill:#000000;fill-opacity:1;fill-rule:nonzero;stroke:none;stroke-width:0.74960905"
     d="M 66.696425,0.187495 H 5.3035664 c -2.8342967,0 -5.11606569,2.2817674 -5.11606569,5.1160693 V 66.696424 c 0,2.834303 2.28176899,5.116071 5.11606569,5.116071 H 66.696425 c 2.834304,0 5.116074,-2.281768 5.116074,-5.116071 V 5.3035643 c 0,-2.8343019 -2.28177,-5.1160693 -5.116074,-5.1160693 z"
     id="path3288"
     inkscape:connector-curvature="0" />
  <path
     inkscape:connector-curvature="0"
     id="path4085"
     d="M 66.216795,0.7470652 H 5.7831971 c -2.7900116,0 -5.03612745,2.2461146 -5.03612745,5.0361306 V 66.216792 c 0,2.790018 2.24611585,5.036133 5.03612745,5.036133 H 66.216795 c 2.790018,0 5.036134,-2.246115 5.036134,-5.036133 V 5.7831958 c 0,-2.790016 -2.246116,-5.0361306 -5.036134,-5.0361306 z"
     style="display:inline;opacity:0.15;fill:#000000;fill-opacity:1;fill-rule:nonzero;stroke:none;stroke-width:0.74960905" />
  <path
     style="display:inline;fill:url(#linearGradient4071);fill-opacity:1;fill-rule:nonzero;stroke:none;stroke-width:0.74960905"
     d="M 65.737159,1.3066356 H 6.262834 c -2.7457317,0 -4.9561937,2.2104616 -4.9561937,4.9561925 V 65.737161 c 0,2.745732 2.210462,4.956195 4.9561937,4.956195 h 59.474325 c 2.745733,0 4.956193,-2.210463 4.956193,-4.956195 V 6.2628281 c 0,-2.7457309 -2.21046,-4.9561925 -4.956193,-4.9561925 z"
     id="rect4251-1"
     inkscape:connector-curvature="0" />
  <rect
     ry="2.2485294"
     rx="1.7752061"
     y="4.8894601"
     x="4.4556203"
     height="57.76609"
     width="63.418499"
     id="rect862"
     style="opacity:1;fill:#dc0000;fill-opacity:0.97169812;stroke:none;stroke-width:0.5334239;stroke-miterlimit:4;stroke-dasharray:none;stroke-opacity:1" />
  <path
     inkscape:connector-curvature="0"
     id="path4989"
     d="m 7.51793,3.7161163 c -2.3252915,0 -4.2288332,1.8947125 -4.2288332,4.2124475 V 59.616444 c 0,2.317737 1.9035417,4.212449 4.2288332,4.212449 h 57.293868 c 2.325294,0 4.228836,-1.894713 4.228836,-4.212449 V 7.9285638 c 0,-2.3177343 -1.903542,-4.2124475 -4.228836,-4.2124475 z m 0,1.7305189 h 57.293868 c 1.4087,0 2.500924,1.1042895 2.500924,2.4819286 V 59.616444 c 0,1.377642 -1.092224,2.481929 -2.500924,2.481929 H 7.51793 c -1.408699,0 -2.5009227,-1.104287 -2.5009227,-2.481929 V 7.9285638 c 0,-1.3776391 1.0922237,-2.4819286 2.5009227,-2.4819286 z"
     style="color:#000000;font-style:normal;font-variant:normal;font-weight:normal;font-stretch:normal;font-size:medium;line-height:normal;font-family:Sans;-inkscape-font-specification:Sans;text-indent:0;text-align:start;text-decoration:none;text-decoration-line:none;letter-spacing:normal;word-spacing:normal;text-transform:none;writing-mode:lr-tb;direction:ltr;baseline-shift:baseline;text-anchor:start;display:inline;overflow:visible;visibility:visible;fill:#202223;fill-opacity:0.93689324;stroke:none;stroke-width:1.78069687;marker:none;enable-background:accumulate" />
  <path
     inkscape:connector-curvature="0"
     style="display:inline;opacity:0.65818182;fill:url(#linearGradient4129);fill-opacity:1;fill-rule:nonzero;stroke:none;stroke-width:0.74960905"
     d="m 1.3066395,61.250605 v 4.476563 c 0,2.745731 2.2204545,4.966187 4.966186,4.966187 H 65.727169 c 2.745733,0 4.966191,-2.220456 4.966191,-4.966187 v -4.476563 c 0,2.745731 -2.220458,4.966187 -4.966191,4.966187 H 6.2728255 c -2.7457315,0 -4.966186,-2.220456 -4.966186,-4.966187 z"
     id="path4118" />
  <rect
     style="opacity:0.55;fill:url(#radialGradient7462);fill-opacity:1;stroke:none;stroke-width:0.74960905"
     id="rect4131"
     width="62.858402"
     height="3.1708989"
     x="4.197753"
     y="60.061512"
     rx="3.1875"
     ry="3.1875" />
  <rect
     ry="3.1841798"
     rx="3.1841798"
     y="-67.399345"
     x="4.335773"
     height="3.1708989"
     width="57.262695"
     id="rect4141"
     style="opacity:0.669;fill:url(#radialGradient7464);fill-opacity:1;stroke:none;stroke-width:0.74960905"
     transform="rotate(90)" />
  <g
     transform="matrix(1.1274868,0,0,1.1274868,-179.86148,331.29785)"
     id="g129">
    <use
       height="100%"
       width="100%"
       y="0"
       x="0"
       id="use4"
       xlink:href="#a" />
    <path
       style="opacity:0.614;stroke-width:0.14281912"
       inkscape:connector-curvature="0"
       id="path6"
       d="m 168.0141,-264.53623 c -0.004,0.17814 -0.007,0.35652 -0.007,0.53559 0,13.25037 10.74277,23.99314 23.99314,23.99314 13.25038,0 23.99314,-10.74277 23.99314,-23.99314 0,-0.17907 -0.003,-0.35745 -0.007,-0.53559 -0.28494,13.00294 -10.91523,23.45756 -23.98672,23.45756 -13.07256,0 -23.70178,-10.4543 -23.98671,-23.45756 z" />
    <path
       style="opacity:0.634;fill:#ffffff;stroke-width:0.14281912"
       inkscape:connector-curvature="0"
       id="path8"
       d="m 192.00082,-287.994 c -13.25145,0 -23.99314,10.74277 -23.99314,23.99314 0,0.17907 0.003,0.35746 0.007,0.53559 0.28493,-13.00401 10.91522,-23.45756 23.98671,-23.45756 13.0715,0 23.70179,10.45419 23.98672,23.45756 0.004,-0.17813 0.007,-0.35652 0.007,-0.53559 0,-13.25144 -10.74277,-23.99314 -23.99314,-23.99314 z" />
    <path
       style="opacity:0.3;stroke-width:0.1428227"
       inkscape:connector-curvature="0"
       id="path10"
       d="m 198.82346,-276.19056 c -0.5411,-7e-5 -1.08208,0.20608 -1.49435,0.61864 l -4.3e-4,4.2e-4 c -0.82513,0.82513 -0.82452,2.16248 5.7e-4,2.98757 l 5.70834,5.70862 c 2.49054,2.49155 2.50611,6.53229 0.0508,9.04511 -2.51339,2.45526 -6.55427,2.43912 -9.04467,-0.0513 l -5.70791,-5.70905 c -0.82569,-0.82457 -2.16405,-0.82457 -2.98928,0 -0.82513,0.82626 -0.82513,2.16462 0,2.98928 l 5.70834,5.70834 c 4.08501,4.08501 10.68656,4.152 14.85784,0.20712 0.0379,-0.0329 0.0765,-0.0649 0.11277,-0.10168 0.0173,-0.0184 0.0334,-0.0363 0.0513,-0.0536 0.0173,-0.0178 0.0367,-0.0346 0.0546,-0.0519 0.0357,-0.0363 0.0675,-0.0741 0.10042,-0.11256 3.94548,-4.17085 3.87864,-10.77197 -0.20627,-14.85784 l -5.70734,-5.70791 c -0.41256,-0.41285 -0.95373,-0.6192 -1.49479,-0.61927 z m -13.52388,2.1162 c -2.59866,0.0278 -5.18961,0.99748 -7.21026,2.9083 -0.0379,0.0324 -0.0764,0.0658 -0.11214,0.10147 -0.0179,0.0179 -0.034,0.0362 -0.0513,0.0546 -0.0178,0.0167 -0.0369,0.0329 -0.0542,0.0502 -0.0363,0.0363 -0.0687,0.0742 -0.10104,0.11213 -3.94548,4.17257 -3.87778,10.77312 0.20712,14.85785 l 5.70834,5.70791 c 0.82512,0.82513 2.16205,0.82513 2.98713,0 0.82513,-0.82569 0.82555,-2.16305 4.3e-4,-2.98757 l -5.70777,-5.70905 c -2.49054,-2.49054 -2.50796,-6.53128 -0.0515,-9.04467 2.51225,-2.45527 6.5537,-2.4387 9.04467,0.0523 l -1.4e-4,4.3e-4 5.70862,5.70834 c 0.82513,0.82512 2.16248,0.82395 2.98757,-5.8e-4 0.82513,-0.82625 0.82616,-2.1629 0.001,-2.98799 l -5.70905,-5.70934 c -2.10607,-2.10635 -4.88126,-3.1441 -7.64759,-3.11453 z" />
    <g
       transform="matrix(0.1428227,0,0,0.1428227,164.57886,-291.4226)"
       style="fill:#ffffff"
       id="a">
      <path
         inkscape:connector-curvature="0"
         id="path12"
         d="m 177.7,156.7 39.969,39.969 c 5.7773,5.7773 15.141,5.7695 20.918,-0.004 5.7773,-5.7852 5.7852,-15.145 0.008,-20.922 L 198.622,135.77 c -28.598,-28.602 -74.82,-29.066 -104.029998,-1.4453 -0.26562,0.22656 -0.53516,0.46094 -0.78516,0.71094 -0.125,0.125 -0.23828,0.25391 -0.35938,0.38281 -0.125,0.11719 -0.25781,0.23047 -0.37891,0.35156 -0.25391,0.25391 -0.48047,0.51953 -0.70703,0.78516 -27.625,29.215 -27.152,75.43 1.4492,104.03 l 39.968998,39.965 c 5.7773,5.7773 15.137,5.7773 20.914,0 5.7773,-5.7812 5.7812,-15.145 0.004,-20.918 l -39.965,-39.973 c -17.438001,-17.438 -17.559001,-45.73 -0.35938,-63.328 17.59,-17.191 45.887,-17.074 63.328,0.36719 z" />
      <path
         inkscape:connector-curvature="0"
         id="path14"
         d="m 229.3,103.48 c -5.7773,5.7773 -5.7734,15.141 0.004,20.918 l 39.969,39.969 c 17.438,17.445 17.547,45.738 0.35547,63.332 -17.598,17.191 -45.891,17.078 -63.328,-0.35938 l -39.965,-39.973 c -5.7812,-5.7734 -15.152,-5.7734 -20.93,0 -5.7773,5.7852 -5.7773,15.156 0,20.93 l 39.969,39.969 c 28.602,28.602 74.824,29.07 104.03,1.4492 0.26562,-0.23047 0.53516,-0.45312 0.78906,-0.71094 0.12109,-0.12891 0.23438,-0.25391 0.35938,-0.375 0.12109,-0.125 0.25781,-0.24219 0.38281,-0.36328 0.25,-0.25391 0.47266,-0.51953 0.70312,-0.78906 27.625,-29.203 27.156,-75.422 -1.4453,-104.03 l -39.961,-39.965 c -5.7773,-5.7812 -15.156,-5.7812 -20.93,-0.004 z" />
    </g>
  </g>
  <rect
     transform="matrix(0.79775707,0,0,0.7816698,3.3921407,28.896428)"
     style="opacity:0.65;fill:url(#linearGradient4767);fill-opacity:1;stroke:none;stroke-width:1.00471163"
     id="rect4146"
     width="75.965775"
     height="69.024437"
     x="2"
     y="-30"
     rx="3.973561"
     ry="3.9777055"
     clip-path="url(#clipPath4156-4-1)" />
</svg>
