<?xml version="1.0" encoding="UTF-8" standalone="no"?>
<!-- Created with Inkscape (http://www.inkscape.org/) -->

<svg
   xmlns:dc="http://purl.org/dc/elements/1.1/"
   xmlns:cc="http://creativecommons.org/ns#"
   xmlns:rdf="http://www.w3.org/1999/02/22-rdf-syntax-ns#"
   xmlns:svg="http://www.w3.org/2000/svg"
   xmlns="http://www.w3.org/2000/svg"
   xmlns:xlink="http://www.w3.org/1999/xlink"
   xmlns:sodipodi="http://sodipodi.sourceforge.net/DTD/sodipodi-0.dtd"
   xmlns:inkscape="http://www.inkscape.org/namespaces/inkscape"
   width="96"
   height="96"
   id="svg5023"
   version="1.1"
   inkscape:version="0.92.2 2405546, 2018-03-11"
   sodipodi:docname="avant-window-navigator.svg">
  <title
     id="title990">lila hd</title>
  <defs
     id="defs5025">
    <linearGradient
       id="linearGradient988">
      <stop
         id="stop984"
         offset="0"
         style="stop-color:#2cffee;stop-opacity:1;" />
      <stop
         id="stop986"
         offset="1"
         style="stop-color:#008aac;stop-opacity:1" />
    </linearGradient>
    <linearGradient
       id="linearGradient5700">
      <stop
         id="stop5702"
         offset="0"
         style="stop-color:#ffffff;stop-opacity:0;" />
      <stop
         style="stop-color:#ffffff;stop-opacity:0.85135138;"
         offset="0.03681535"
         id="stop5704" />
      <stop
         id="stop5706"
         offset="0.06506088"
         style="stop-color:#ffffff;stop-opacity:0;" />
      <stop
         style="stop-color:#ffffff;stop-opacity:0;"
         offset="0.94493848"
         id="stop5712" />
      <stop
         style="stop-color:#ffffff;stop-opacity:0.85135138;"
         offset="0.96582276"
         id="stop5710" />
      <stop
         id="stop5708"
         offset="1"
         style="stop-color:#ffffff;stop-opacity:0;" />
    </linearGradient>
    <linearGradient
       inkscape:collect="always"
       xlink:href="#linearGradient3888-8-4-8-4-6-9-0-8-7-9"
       id="linearGradient4987"
       gradientUnits="userSpaceOnUse"
       gradientTransform="matrix(1.1856936,0,0,1.1642273,-42.219833,-46.722496)"
       x1="62"
       y1="8"
       x2="62"
       y2="68" />
    <linearGradient
       inkscape:collect="always"
       id="linearGradient3888-8-4-8-4-6-9-0-8-7-9">
      <stop
         style="stop-color:#ffffff;stop-opacity:1;"
         offset="0"
         id="stop3890-4-7-9-5-7-0-8-8-8-6" />
      <stop
         style="stop-color:#ffffff;stop-opacity:0;"
         offset="1"
         id="stop3892-5-8-2-8-3-3-3-06-4-4" />
    </linearGradient>
    <radialGradient
       inkscape:collect="always"
       xlink:href="#linearGradient3921"
       id="radialGradient4985"
       gradientUnits="userSpaceOnUse"
       gradientTransform="matrix(1.1856936,0,0,1.0652366,-42.219833,-42.734861)"
       cx="48"
       cy="43"
       fx="48"
       fy="43"
       r="38" />
    <linearGradient
       id="linearGradient3921">
      <stop
         style="stop-color:#2cffee;stop-opacity:1;"
         offset="0"
         id="stop3923" />
      <stop
         style="stop-color:#00586e;stop-opacity:1;"
         offset="1"
         id="stop3925" />
    </linearGradient>
    <radialGradient
       inkscape:collect="always"
       xlink:href="#linearGradient3888-8-4-8-6"
       id="radialGradient3114"
       gradientUnits="userSpaceOnUse"
       gradientTransform="matrix(0,1.6209438,-2.0382846,0,160.66427,-243.03657)"
       cx="158"
       cy="6.2131939"
       fx="158"
       fy="6.2131939"
       r="41" />
    <linearGradient
       inkscape:collect="always"
       id="linearGradient3888-8-4-8-6">
      <stop
         style="stop-color:#ffffff;stop-opacity:1;"
         offset="0"
         id="stop3890-4-7-9-7" />
      <stop
         style="stop-color:#ffffff;stop-opacity:0;"
         offset="1"
         id="stop3892-5-8-2-7" />
    </linearGradient>
    <radialGradient
       inkscape:collect="always"
       xlink:href="#linearGradient4091-0-3-0-7"
       id="radialGradient3118"
       gradientUnits="userSpaceOnUse"
       gradientTransform="matrix(-1.0721726,0,0,-0.87502024,199.46429,-19.125546)"
       cx="48"
       cy="-27"
       fx="48"
       fy="-27"
       r="42" />
    <linearGradient
       id="linearGradient4091-0-3-0-7">
      <stop
         style="stop-color:#ffffff;stop-opacity:1;"
         offset="0"
         id="stop4093-3-6-4-2" />
      <stop
         id="stop4099-6-1-8-3"
         offset="0.80000001"
         style="stop-color:#ffffff;stop-opacity:1;" />
      <stop
         style="stop-color:#ffffff;stop-opacity:0;"
         offset="1"
         id="stop4095-1-0-7-9" />
    </linearGradient>
    <linearGradient
       inkscape:collect="always"
       xlink:href="#linearGradient3832-0-6-1-1"
       id="linearGradient3120"
       gradientUnits="userSpaceOnUse"
       gradientTransform="matrix(1,0,0,0.73089097,200,23.096697)"
       x1="-94"
       y1="82.984398"
       x2="-10.187523"
       y2="82.984398" />
    <linearGradient
       id="linearGradient3832-0-6-1-1">
      <stop
         style="stop-color:#000000;stop-opacity:1;"
         offset="0"
         id="stop3834-6-3-7-1" />
      <stop
         id="stop3872-2-4"
         offset="0.1"
         style="stop-color:#000000;stop-opacity:0.58823532;" />
      <stop
         style="stop-color:#000000;stop-opacity:0.58823532;"
         offset="0.89999998"
         id="stop3844-6-2-7-6" />
      <stop
         style="stop-color:#000000;stop-opacity:1;"
         offset="1"
         id="stop3836-5-0-2-9" />
    </linearGradient>
    <linearGradient
       inkscape:collect="always"
       xlink:href="#linearGradient6139-0"
       id="linearGradient3923"
       x1="6"
       y1="47.000011"
       x2="90"
       y2="47.000011"
       gradientUnits="userSpaceOnUse" />
    <linearGradient
       id="linearGradient6139-0">
      <stop
         id="stop6141-2"
         offset="0"
         style="stop-color:#b7b7b7;stop-opacity:1;" />
      <stop
         style="stop-color:#ffffff;stop-opacity:1;"
         offset="0.25"
         id="stop6151-0" />
      <stop
         style="stop-color:#9d9d9d;stop-opacity:1;"
         offset="0.5"
         id="stop6147-1" />
      <stop
         id="stop6149-4"
         offset="0.75"
         style="stop-color:#fafafa;stop-opacity:1;" />
      <stop
         id="stop6143-4"
         offset="1"
         style="stop-color:#b7b7b7;stop-opacity:1;" />
    </linearGradient>
    <linearGradient
       gradientTransform="matrix(1.1353753,0,0,1.1336634,-40.037124,-46.787637)"
       y2="47.000011"
       x2="90"
       y1="47.000011"
       x1="6"
       gradientUnits="userSpaceOnUse"
       id="linearGradient5021"
       xlink:href="#linearGradient6139-0"
       inkscape:collect="always" />
    <linearGradient
       gradientTransform="matrix(1.0238095,0,0,1.0119048,-1.1428571,-98.071429)"
       gradientUnits="userSpaceOnUse"
       xlink:href="#ButtonShadow-0"
       id="linearGradient2969"
       y2="90.238609"
       x2="32.251034"
       y1="6.1317081"
       x1="32.251034" />
    <linearGradient
       gradientTransform="translate(0,-97)"
       gradientUnits="userSpaceOnUse"
       xlink:href="#ButtonShadow-0"
       id="linearGradient3721"
       y2="90.238609"
       x2="32.251034"
       y1="6.1317081"
       x1="32.251034" />
    <linearGradient
       gradientTransform="matrix(1.0238095,0,0,1.0119048,-1.1428571,-98.071429)"
       gradientUnits="userSpaceOnUse"
       xlink:href="#ButtonShadow-0"
       id="linearGradient3725"
       y2="90.238609"
       x2="32.251034"
       y1="6.1317081"
       x1="32.251034" />
    <linearGradient
       gradientTransform="matrix(1.0238095,0,0,1.0119048,-1.1428571,-98.071429)"
       gradientUnits="userSpaceOnUse"
       xlink:href="#ButtonShadow-0"
       id="linearGradient3772"
       y2="90.238609"
       x2="32.251034"
       y1="6.1317081"
       x1="32.251034" />
    <linearGradient
       gradientTransform="matrix(1.0238095,0,0,1.0119048,-1.1428571,-98.071429)"
       gradientUnits="userSpaceOnUse"
       xlink:href="#ButtonShadow-0"
       id="linearGradient3780"
       y2="90.238609"
       x2="32.251034"
       y1="6.1317081"
       x1="32.251034" />
    <linearGradient
       gradientTransform="matrix(1.0058652,0,0,0.994169,100,0)"
       gradientUnits="userSpaceOnUse"
       id="ButtonShadow-0"
       y2="7.0165396"
       x2="45.447727"
       y1="92.539597"
       x1="45.447727">
      <stop
         offset="0"
         style="stop-color:#000000;stop-opacity:1"
         id="stop3750-8" />
      <stop
         offset="1"
         style="stop-color:#000000;stop-opacity:0.58823532"
         id="stop3752-5" />
    </linearGradient>
    <linearGradient
       gradientUnits="userSpaceOnUse"
       xlink:href="#ButtonColor"
       id="linearGradient3708"
       y2="5.9877172"
       x2="48"
       y1="90"
       x1="48" />
    <linearGradient
       gradientTransform="matrix(1.0172414,0,0,1.0172414,-1.1034483,-1.1034483)"
       gradientUnits="userSpaceOnUse"
       id="ButtonColor"
       y2="5.4252338"
       x2="58.650177"
       y1="122"
       x1="58.650177">
      <stop
         offset="0"
         style="stop-color:#623b6b;stop-opacity:1"
         id="stop3189" />
      <stop
         offset="1"
         style="stop-color:#ad7fa8;stop-opacity:1"
         id="stop3191" />
    </linearGradient>
    <linearGradient
       gradientUnits="userSpaceOnUse"
       xlink:href="#linearGradient3700-4"
       id="linearGradient2977"
       y2="5.9877172"
       x2="48"
       y1="90"
       x1="48" />
    <clipPath
       id="clipPath2973">
      <rect
         style="fill:url(#linearGradient2977);fill-opacity:1;fill-rule:nonzero;stroke:none"
         id="rect2975"
         y="6"
         x="6"
         ry="6"
         rx="6"
         height="84"
         width="84" />
    </clipPath>
    <linearGradient
       id="linearGradient3700-4">
      <stop
         offset="0"
         style="stop-color:#70a83e;stop-opacity:1"
         id="stop3702-4" />
      <stop
         offset="1"
         style="stop-color:#9fd058;stop-opacity:1"
         id="stop3704-4" />
    </linearGradient>
    <linearGradient
       gradientUnits="userSpaceOnUse"
       xlink:href="#linearGradient3700"
       id="linearGradient3878"
       y2="5.9877172"
       x2="48"
       y1="90"
       x1="48" />
    <linearGradient
       gradientTransform="matrix(1.2790652,0,0,1.2790652,17.302433,18.5815)"
       gradientUnits="userSpaceOnUse"
       xlink:href="#linearGradient3397"
       id="linearGradient3806"
       y2="45"
       x2="37.201294"
       y1="1"
       x1="37.201294" />
    <linearGradient
       gradientTransform="matrix(1.2790652,0,0,1.2790652,17.302433,18.5815)"
       gradientUnits="userSpaceOnUse"
       xlink:href="#linearGradient3309"
       id="linearGradient3804"
       y2="45.017357"
       x2="20.758585"
       y1="1"
       x1="20.758585" />
    <linearGradient
       gradientTransform="matrix(0.41503146,0,0,0.41503146,21.437996,21.853023)"
       gradientUnits="userSpaceOnUse"
       xlink:href="#linearGradient5128"
       id="linearGradient3801"
       y2="20.895"
       x2="84.63858"
       y1="105.105"
       x1="86.132919" />
    <linearGradient
       id="linearGradient3397">
      <stop
         offset="0"
         style="stop-color:#aaaaaa;stop-opacity:1"
         id="stop3399" />
      <stop
         offset="1"
         style="stop-color:#8c8c8c;stop-opacity:1"
         id="stop3401" />
    </linearGradient>
    <linearGradient
       gradientUnits="userSpaceOnUse"
       id="linearGradient3309"
       y2="122.8994"
       x2="63.9995"
       y1="3.1001"
       x1="63.9995">
      <stop
         offset="0"
         style="stop-color:#f6f6f6;stop-opacity:1"
         id="stop3311" />
      <stop
         offset="1"
         style="stop-color:#d2d2d2;stop-opacity:1"
         id="stop3313" />
    </linearGradient>
    <linearGradient
       id="linearGradient5128">
      <stop
         offset="0"
         style="stop-color:#e5e5e5;stop-opacity:1"
         id="stop5130" />
      <stop
         offset="1"
         style="stop-color:#ababab;stop-opacity:1"
         id="stop5132" />
    </linearGradient>
    <linearGradient
       gradientUnits="userSpaceOnUse"
       xlink:href="#linearGradient3700"
       id="linearGradient3617"
       y2="5.9877172"
       x2="48"
       y1="90"
       x1="48" />
    <clipPath
       id="clipPath3613">
      <rect
         style="fill:#ffffff;fill-opacity:1;fill-rule:nonzero;stroke:none"
         id="rect3615"
         y="6"
         x="6"
         ry="6"
         rx="6"
         height="84"
         width="84" />
    </clipPath>
    <radialGradient
       gradientTransform="matrix(1.1573129,0,0,0.99590774,-7.5510206,0.19713193)"
       gradientUnits="userSpaceOnUse"
       xlink:href="#linearGradient3737"
       id="radialGradient3619"
       fy="90.171875"
       fx="48"
       r="42"
       cy="90.171875"
       cx="48" />
    <linearGradient
       gradientUnits="userSpaceOnUse"
       xlink:href="#linearGradient3737"
       id="linearGradient3613"
       y2="138.66119"
       x2="48"
       y1="20.220806"
       x1="48" />
    <filter
       id="filter3794"
       color-interpolation-filters="sRGB"
       height="1.3839999"
       width="1.3839999"
       y="-0.192"
       x="-0.192">
      <feGaussianBlur
         stdDeviation="5.28"
         id="feGaussianBlur3796" />
    </filter>
    <linearGradient
       gradientUnits="userSpaceOnUse"
       xlink:href="#linearGradient3737"
       id="linearGradient3188"
       y2="63.893143"
       x2="36.357143"
       y1="6"
       x1="36.357143" />
    <filter
       id="filter3174"
       color-interpolation-filters="sRGB">
      <feGaussianBlur
         stdDeviation="1.71"
         id="feGaussianBlur3176" />
    </filter>
    <linearGradient
       id="linearGradient3700">
      <stop
         offset="0"
         style="stop-color:#70a83e;stop-opacity:1"
         id="stop3702" />
      <stop
         offset="1"
         style="stop-color:#9fd058;stop-opacity:1"
         id="stop3704" />
    </linearGradient>
    <linearGradient
       id="linearGradient3737">
      <stop
         offset="0"
         style="stop-color:#ffffff;stop-opacity:1"
         id="stop3739" />
      <stop
         offset="1"
         style="stop-color:#ffffff;stop-opacity:0"
         id="stop3741" />
    </linearGradient>
    <linearGradient
       gradientTransform="scale(1.0058652,0.994169)"
       gradientUnits="userSpaceOnUse"
       id="ButtonShadow"
       y2="7.0165396"
       x2="45.447727"
       y1="92.539597"
       x1="45.447727">
      <stop
         offset="0"
         style="stop-color:#000000;stop-opacity:1"
         id="stop3750" />
      <stop
         offset="1"
         style="stop-color:#000000;stop-opacity:0.58823532"
         id="stop3752" />
    </linearGradient>
    <linearGradient
       gradientTransform="scale(1.0058652,0.994169)"
       gradientUnits="userSpaceOnUse"
       id="ButtonShadow-3"
       y2="7.0165396"
       x2="45.447727"
       y1="92.539597"
       x1="45.447727">
      <stop
         offset="0"
         style="stop-color:#000000;stop-opacity:1"
         id="stop3750-4" />
      <stop
         offset="1"
         style="stop-color:#000000;stop-opacity:0.58823532"
         id="stop3752-3" />
    </linearGradient>
    <filter
       id="filter3174-4"
       color-interpolation-filters="sRGB">
      <feGaussianBlur
         stdDeviation="1.71"
         id="feGaussianBlur3176-3" />
    </filter>
    <clipPath
       id="clipPath2973-9">
      <rect
         style="fill:url(#linearGradient2977);fill-opacity:1;fill-rule:nonzero;stroke:none"
         id="rect2975-6"
         y="6"
         x="6"
         ry="6"
         rx="6"
         height="84"
         width="84" />
    </clipPath>
    <linearGradient
       gradientUnits="userSpaceOnUse"
       xlink:href="#linearGradient3700-0"
       id="linearGradient3617-6"
       y2="5.9877172"
       x2="48"
       y1="90"
       x1="48" />
    <linearGradient
       id="linearGradient3700-0">
      <stop
         offset="0"
         style="stop-color:#70a83e;stop-opacity:1"
         id="stop3702-1" />
      <stop
         offset="1"
         style="stop-color:#9fd058;stop-opacity:1"
         id="stop3704-43" />
    </linearGradient>
    <linearGradient
       gradientUnits="userSpaceOnUse"
       xlink:href="#linearGradient3700-0"
       id="linearGradient3878-4"
       y2="5.9877172"
       x2="48"
       y1="90"
       x1="48" />
    <linearGradient
       id="linearGradient4327">
      <stop
         offset="0"
         style="stop-color:#ffc639;stop-opacity:1"
         id="stop4329" />
      <stop
         id="stop992"
         style="stop-color:#ff860d;stop-opacity:1;"
         offset="0.76718032" />
      <stop
         offset="1"
         style="stop-color:#eb6500;stop-opacity:1"
         id="stop4331" />
    </linearGradient>
    <linearGradient
       gradientTransform="matrix(1.2790652,0,0,1.2790652,17.302433,18.5815)"
       gradientUnits="userSpaceOnUse"
       xlink:href="#linearGradient3309-3"
       id="linearGradient3804-6"
       y2="45.017357"
       x2="20.758585"
       y1="1"
       x1="20.758585" />
    <linearGradient
       gradientUnits="userSpaceOnUse"
       id="linearGradient3309-3"
       y2="122.8994"
       x2="63.9995"
       y1="3.1001"
       x1="63.9995">
      <stop
         offset="0"
         style="stop-color:#f6f6f6;stop-opacity:1"
         id="stop3311-3" />
      <stop
         offset="1"
         style="stop-color:#d2d2d2;stop-opacity:1"
         id="stop3313-1" />
    </linearGradient>
    <linearGradient
       gradientTransform="matrix(1.2790652,0,0,1.2790652,17.302433,18.5815)"
       gradientUnits="userSpaceOnUse"
       xlink:href="#linearGradient3397-2"
       id="linearGradient3806-9"
       y2="45"
       x2="37.201294"
       y1="1"
       x1="37.201294" />
    <linearGradient
       id="linearGradient3397-2">
      <stop
         offset="0"
         style="stop-color:#aaaaaa;stop-opacity:1"
         id="stop3399-6" />
      <stop
         offset="1"
         style="stop-color:#8c8c8c;stop-opacity:1"
         id="stop3401-7" />
    </linearGradient>
    <linearGradient
       gradientTransform="matrix(0.41503146,0,0,0.41503146,21.437996,21.853023)"
       gradientUnits="userSpaceOnUse"
       xlink:href="#linearGradient5128-4"
       id="linearGradient3801-4"
       y2="20.895"
       x2="84.63858"
       y1="105.105"
       x1="86.132919" />
    <linearGradient
       id="linearGradient5128-4">
      <stop
         offset="0"
         style="stop-color:#e5e5e5;stop-opacity:1"
         id="stop5130-1" />
      <stop
         offset="1"
         style="stop-color:#ababab;stop-opacity:1"
         id="stop5132-0" />
    </linearGradient>
    <radialGradient
       inkscape:collect="always"
       xlink:href="#linearGradient3888-8-4-8-4-6-9-0-8-7-9"
       id="radialGradient4100"
       gradientUnits="userSpaceOnUse"
       gradientTransform="matrix(0,1.6209438,-2.0382846,0,160.66427,-243.03657)"
       cx="158"
       cy="6.2131939"
       fx="158"
       fy="6.2131939"
       r="41" />
    <radialGradient
       inkscape:collect="always"
       xlink:href="#linearGradient4091-0-3-0-7"
       id="radialGradient4102"
       gradientUnits="userSpaceOnUse"
       gradientTransform="matrix(-1.0721726,0,0,-0.87502024,199.46429,-19.125546)"
       cx="48"
       cy="-27"
       fx="48"
       fy="-27"
       r="42" />
    <radialGradient
       inkscape:collect="always"
       xlink:href="#linearGradient4327"
       id="radialGradient4562"
       cx="14.693458"
       cy="3.070312"
       fx="14.693458"
       fy="3.070312"
       r="45.056355"
       gradientTransform="matrix(1,0,0,0.89840799,0,0.31191915)"
       gradientUnits="userSpaceOnUse" />
    <filter
       style="color-interpolation-filters:sRGB"
       id="filter3174-4-2">
      <feGaussianBlur
         stdDeviation="1.71"
         id="feGaussianBlur3176-3-6" />
    </filter>
    <clipPath
       id="clipPath2973-9-1">
      <rect
         style="fill:url(#linearGradient2977);fill-opacity:1;fill-rule:nonzero;stroke:none"
         id="rect2975-6-8"
         y="6"
         x="6"
         ry="6"
         rx="6"
         height="84"
         width="84" />
    </clipPath>
    <linearGradient
       y2="14.514202"
       x2="50.527882"
       y1="-28.64156"
       x1="2.7713892"
       gradientUnits="userSpaceOnUse"
       id="linearGradient4767"
       xlink:href="#linearGradient3888-8-4-8-4-6-9-0-8-7-9"
       inkscape:collect="always" />
    <clipPath
       clipPathUnits="userSpaceOnUse"
       id="clipPath4156-4-1">
      <path
         style="opacity:0.6;fill:#ffffff;fill-opacity:1;stroke:none"
         d="m 27.046336,-55.695463 -14.21366,13.321486 h 0.06127 l 15.653407,21.770763 10.231384,-10.546177 C 38.561832,-32.30156 27.468089,-54.819245 27.046336,-55.695463 Z M 9.6468554,-39.382809 -5.2407289,-25.32124 15.987863,-7.8059573 26.372412,-18.382966 Z m 31.4906096,12.951445 -9.741259,9.713584 8.944804,12.4580526 7.780753,-7.5550056 z m -49.8397109,4.378822 -13.7541661,12.9822847 26.2830181,13.84571 0.06127,-0.0617 -0.122531,-0.0617 L 13.598503,-5.4007374 -8.7022409,-22.052595 Z m 38.0154159,7.400825 -9.802525,9.7752596 11.579232,9.5594001 7.62759,-7.40083 -8.669108,-11.0087257 z m 20.187073,5.6739697 -7.382526,7.2158 6.187844,8.54179 5.820249,-6.13651996 z m -32.195166,6.32154 -9.5574606,9.49772 13.6622686,7.1849703 7.933918,-7.6783603 z m 23.311629,2.37443004 -7.10683,6.93826996 8.362778,6.9074403 5.360756,-5.6739699 -0.06127,-0.0925 -0.0919,0.12335 -6.463539,-8.20258036 z m -8.730374,8.54178036 -7.505057,7.3391599 10.353916,5.45811 c 1.397496,-1.32103 5.67514,-6.12292 5.850882,-6.32154 z"
         id="path4158-0-8"
         inkscape:connector-curvature="0" />
    </clipPath>
  </defs>
  <sodipodi:namedview
     id="base"
     pagecolor="#ffffff"
     bordercolor="#666666"
     borderopacity="1.0"
     inkscape:pageopacity="0.0"
     inkscape:pageshadow="2"
     inkscape:zoom="2.9414063"
     inkscape:cx="69.745782"
     inkscape:cy="28.908303"
     inkscape:current-layer="g1158"
     showgrid="true"
     inkscape:grid-bbox="true"
     inkscape:document-units="px"
     inkscape:window-width="1280"
     inkscape:window-height="977"
     inkscape:window-x="0"
     inkscape:window-y="19"
     inkscape:window-maximized="1" />
  <metadata
     id="metadata5028">
    <rdf:RDF>
      <cc:Work
         rdf:about="">
        <dc:format>image/svg+xml</dc:format>
        <dc:type
           rdf:resource="http://purl.org/dc/dcmitype/StillImage" />
        <dc:title>lila hd</dc:title>
        <cc:license
           rdf:resource="http://creativecommons.org/licenses/by-sa/4.0/" />
        <dc:date>2015</dc:date>
        <dc:creator>
          <cc:Agent>
            <dc:title>Cristian Pozzessere  &lt; ilnanny &gt;</dc:title>
          </cc:Agent>
        </dc:creator>
        <dc:subject>
          <rdf:Bag>
            <rdf:li>ilnanny</rdf:li>
          </rdf:Bag>
        </dc:subject>
        <dc:description>Playing with Inkscape on Gnu/Linux O. S.</dc:description>
        <dc:contributor>
          <cc:Agent>
            <dc:title>In the night, alone like a dog.</dc:title>
          </cc:Agent>
        </dc:contributor>
      </cc:Work>
      <cc:License
         rdf:about="http://creativecommons.org/licenses/by-sa/4.0/">
        <cc:permits
           rdf:resource="http://creativecommons.org/ns#Reproduction" />
        <cc:permits
           rdf:resource="http://creativecommons.org/ns#Distribution" />
        <cc:requires
           rdf:resource="http://creativecommons.org/ns#Notice" />
        <cc:requires
           rdf:resource="http://creativecommons.org/ns#Attribution" />
        <cc:permits
           rdf:resource="http://creativecommons.org/ns#DerivativeWorks" />
        <cc:requires
           rdf:resource="http://creativecommons.org/ns#ShareAlike" />
      </cc:License>
    </rdf:RDF>
  </metadata>
  <g
     id="layer1"
     inkscape:label="Layer 1"
     inkscape:groupmode="layer"
     transform="translate(0,80)">
    <g
       id="g5148"
       transform="matrix(1.0034441,0,0,1.0049592,33.489303,-38.526762)">
      <g
         id="g4085"
         transform="matrix(0.97178685,0,0,0.97178682,0.40798707,0.18323223)">
        <g
           id="g1158">
          <path
             inkscape:connector-curvature="0"
             id="path3315"
             d="m 55.462537,-41.268579 h -82.003288 c -3.785818,0 -6.833607,3.043193 -6.833607,6.823301 v 81.879661 c 0,3.780111 3.047789,6.823304 6.833607,6.823304 h 82.003288 c 3.785818,0 6.833606,-3.043193 6.833606,-6.823304 v -81.879661 c 0,-3.780108 -3.047788,-6.823301 -6.833606,-6.823301 z"
             style="display:inline;opacity:0.15;fill:#000000;fill-opacity:1;fill-rule:nonzero;stroke:none"
             transform="matrix(1.0290322,0,0,1.0290323,-0.41983185,-0.18855188)" />
          <path
             style="display:inline;opacity:0.15;fill:#000000;fill-opacity:1;fill-rule:nonzero;stroke:none"
             d="m 54.821891,-40.52228 h -80.72199 c -3.72667,0 -6.726834,2.995643 -6.726834,6.716685 V 46.7947 c 0,3.721045 3.000164,6.716688 6.726834,6.716688 h 80.72199 c 3.72666,0 6.726826,-2.995643 6.726826,-6.716688 v -80.600295 c 0,-3.721042 -3.000166,-6.716685 -6.726826,-6.716685 z"
             id="path4112"
             inkscape:connector-curvature="0"
             transform="matrix(1.0290322,0,0,1.0290323,-0.41983185,-0.18855188)" />
          <path
             inkscape:connector-curvature="0"
             id="rect4251-1"
             d="M 55.334401,-41.11932 H -26.41262 c -3.773988,0 -6.812252,3.033683 -6.812252,6.80198 v 81.623788 c 0,3.768297 3.038264,6.80198 6.812252,6.80198 h 81.747021 c 3.773988,0 6.812252,-3.033683 6.812252,-6.80198 V -34.31734 c 0,-3.768297 -3.038264,-6.80198 -6.812252,-6.80198 z"
             style="display:inline;fill:url(#linearGradient5021);fill-opacity:1;fill-rule:nonzero;stroke:none" />
          <g
             transform="matrix(1.1353753,0,0,1.1336634,-153.57465,-46.220805)"
             id="g3272">
            <path
               style="display:inline;opacity:0.2;fill:url(#radialGradient4100);fill-opacity:1;fill-rule:nonzero;stroke:none"
               d="m 112,5.5 c -2.7873,0 -5,2.2127028 -5,5 v 20.71875 7 38.59375 c 1.07066,1.628779 2.89693,2.71875 5,2.71875 h 4 64 4 c 2.10307,0 3.92934,-1.089971 5,-2.71875 v -38.59375 -7 V 10.5 c 0,-2.7872972 -2.2127,-5 -5,-5 z"
               id="path3400-6"
               inkscape:connector-curvature="0"
               sodipodi:nodetypes="sscccsccscccsss" />
            <path
               style="display:inline;opacity:0.45;fill:url(#radialGradient4102);fill-opacity:1;fill-rule:nonzero;stroke:none"
               d="m 112,4.5 c -3.324,0 -6,2.6759996 -6,6 v 15 h 1 v -15 c 0,-2.7872972 2.2127,-5 5,-5 h 72 c 2.7873,0 5,2.2127028 5,5 v 15 h 1 v -15 c 0,-3.3240004 -2.676,-6 -6,-6 z"
               id="path4236-5"
               inkscape:connector-curvature="0" />
            <path
               inkscape:connector-curvature="0"
               id="path4242-5"
               d="m 106,78.998418 v 0.73089 0.730891 0.730892 1.461782 1.461781 C 106,86.544135 108.676,88.5 112,88.5 h 72 c 3.324,0 6,-1.955865 6,-4.385346 v -1.461781 -1.461782 -0.730892 -0.730891 -0.73089 c 0,2.429481 -2.676,4.385345 -6,4.385345 h -72 c -3.324,0 -6,-1.955864 -6,-4.385345 z"
               style="opacity:0.46964859;fill:url(#linearGradient3120);fill-opacity:1;fill-rule:nonzero;stroke:none" />
          </g>
          <path
             id="path4970"
             d="M -25.620124,-37.408678 H 55.00704 c 2.627498,0 4.742774,2.063272 4.742774,4.626172 v 71.705638 c 0,2.562899 -2.115276,4.62617 -4.742774,4.62617 h -80.627164 c -2.627496,0 -4.742773,-2.063271 -4.742773,-4.62617 v -71.705638 c 0,-2.5629 2.115277,-4.626172 4.742773,-4.626172 z"
             style="color:#000000;display:inline;overflow:visible;visibility:visible;fill:url(#radialGradient4562);fill-opacity:1;fill-rule:nonzero;stroke:none;stroke-width:2;marker:none;enable-background:accumulate"
             inkscape:connector-curvature="0"
             sodipodi:nodetypes="sssssssss" />
          <g
             transform="matrix(1.0255003,0,0,1.0239543,-82.194735,77.909318)"
             id="g4261"
             style="display:inline">
            <g
               id="layer2"
               style="display:none">
              <rect
                 width="86"
                 height="85"
                 rx="6"
                 ry="6"
                 x="5"
                 y="7"
                 id="rect3745"
                 style="opacity:0.9;fill:url(#ButtonShadow);fill-opacity:1;fill-rule:nonzero;stroke:none;filter:url(#filter3174-4-2)" />
            </g>
            <g
               transform="translate(43.731342,-121.56971)"
               id="layer6">
              <path
                 inkscape:connector-curvature="0"
                 d="M 34.1875,18 C 31.155937,18 28.75,20.541726 28.75,23.5 V 25 c -0.403751,0.156549 -0.791242,0.354239 -1.1875,0.53125 L 26.46875,24.4375 c -0.885004,-0.884998 -2.211631,-1.642684 -3.8125,-1.65625 -1.39814,-0.01194 -2.80684,0.525583 -3.875,1.59375 L 13.375,29.78125 c -2.147809,2.147834 -2.004295,5.620477 0.0625,7.6875 l 1.09375,1.09375 C 14.35424,38.958758 14.156549,39.346249 14,39.75 H 12.5 C 9.5417238,39.75 7,42.155939 7,45.1875 v 7.625 C 7,55.844061 9.5417238,58.25 12.5,58.25 H 14 c 0.156549,0.403751 0.35424,0.791242 0.53125,1.1875 l -1.09375,1.09375 c -2.06699,2.066995 -2.210497,5.539709 -0.0625,7.6875 l 5.40625,5.40625 c 2.147761,2.147783 5.620442,2.004555 7.6875,-0.0625 L 27.5625,72.46875 C 27.958758,72.645761 28.346249,72.843451 28.75,73 v 1.5 c 0,2.958274 2.405937,5.5 5.4375,5.5 h 7.625 C 44.844057,80 47.25,77.45828 47.25,74.5 V 73 c 0.403751,-0.156549 0.791242,-0.354239 1.1875,-0.53125 l 1.09375,1.09375 c 2.067061,2.067067 5.539739,2.21026 7.6875,0.0625 L 62.625,68.21875 c 2.147812,-2.147833 2.004301,-5.620478 -0.0625,-7.6875 L 61.46875,59.4375 C 61.64576,59.041242 61.843451,58.653751 62,58.25 h 1.5 c 2.95827,0 5.5,-2.405934 5.5,-5.4375 v -7.625 C 69,42.155935 66.458271,39.75 63.5,39.75 H 62 c -0.156549,-0.403751 -0.35424,-0.791242 -0.53125,-1.1875 l 1.09375,-1.09375 c 2.066975,-2.066985 2.210534,-5.539704 0.0625,-7.6875 L 57.21875,24.375 c -2.147762,-2.147752 -5.620438,-2.004563 -7.6875,0.0625 L 48.4375,25.53125 C 48.041242,25.354239 47.653751,25.156549 47.25,25 V 23.5 C 47.25,20.541719 44.844056,18 41.8125,18 Z M 38,44.1875 c 2.717087,0 4.8125,2.095418 4.8125,4.8125 0,2.717083 -2.095412,4.8125 -4.8125,4.8125 -2.71707,0 -4.8125,-2.095425 -4.8125,-4.8125 0,-2.717073 2.09543,-4.8125 4.8125,-4.8125 z"
                 transform="translate(10)"
                 id="path3706"
                 style="display:block;overflow:visible;visibility:visible;opacity:0.05;fill:#000000;fill-opacity:1;stroke:none;stroke-width:1;marker:none;enable-background:accumulate" />
              <path
                 inkscape:connector-curvature="0"
                 d="m 34.1875,19.03125 c -2.46546,0 -4.40625,2.056511 -4.40625,4.46875 v 2.1875 c -0.84674,0.306174 -1.673035,0.642503 -2.46875,1.03125 L 25.75,25.15625 C 25.020737,24.426992 23.943816,23.823411 22.65625,23.8125 21.515781,23.802763 20.367737,24.226007 19.5,25.09375 L 14.09375,30.5 c -1.741142,1.741162 -1.618168,4.569147 0.0625,6.25 l 1.5625,1.5625 c -0.388746,0.795715 -0.725075,1.622011 -1.03125,2.46875 H 12.5 c -2.412241,0 -4.46875,1.940792 -4.46875,4.40625 v 7.625 c 0,2.465458 2.056509,4.40625 4.46875,4.40625 h 2.1875 c 0.306175,0.846739 0.642504,1.673035 1.03125,2.46875 l -1.5625,1.5625 c -1.680826,1.68083 -1.803795,4.508872 -0.0625,6.25 L 19.5,72.90625 c 1.741108,1.741126 4.569123,1.618374 6.25,-0.0625 l 1.5625,-1.5625 c 0.795715,0.388747 1.62201,0.725076 2.46875,1.03125 V 74.5 c 0,2.412239 1.94079,4.46875 4.40625,4.46875 h 7.625 c 2.465454,0 4.40625,-2.056505 4.40625,-4.46875 v -2.1875 c 0.84674,-0.306174 1.673035,-0.642503 2.46875,-1.03125 l 1.5625,1.5625 c 1.680877,1.680882 4.50889,1.803609 6.25,0.0625 L 61.90625,67.5 c 1.741144,-1.741161 1.618172,-4.569148 -0.0625,-6.25 l -1.5625,-1.5625 c 0.388746,-0.795714 0.725075,-1.622009 1.03125,-2.46875 H 63.5 c 2.412235,0 4.46875,-1.940787 4.46875,-4.40625 v -7.625 c 0,-2.465462 -2.056514,-4.40625 -4.46875,-4.40625 H 61.3125 C 61.006325,39.934509 60.669996,39.108214 60.28125,38.3125 l 1.5625,-1.5625 c 1.680815,-1.680823 1.803824,-4.508869 0.0625,-6.25 L 56.5,25.09375 c -1.741111,-1.741103 -4.569122,-1.618379 -6.25,0.0625 l -1.5625,1.5625 C 47.891785,26.330003 47.06549,25.993674 46.21875,25.6875 V 23.5 c 0,-2.412245 -1.940797,-4.46875 -4.40625,-4.46875 z M 38,43.15625 c 3.256346,0 5.84375,2.58741 5.84375,5.84375 0,3.256341 -2.587404,5.84375 -5.84375,5.84375 -3.256332,0 -5.84375,-2.587413 -5.84375,-5.84375 0,-3.256335 2.587418,-5.84375 5.84375,-5.84375 z"
                 transform="translate(10)"
                 id="path3702"
                 style="display:block;overflow:visible;visibility:visible;opacity:0.07999998;fill:#000000;fill-opacity:1;stroke:none;stroke-width:1;marker:none;enable-background:accumulate" />
              <path
                 inkscape:connector-curvature="0"
                 d="m 34.1875,20.03125 c -1.897504,0 -3.40625,1.6003 -3.40625,3.46875 v 2.875 c -1.282775,0.419081 -2.520102,0.94925 -3.6875,1.5625 l -2.0625,-2.0625 c -0.583419,-0.583415 -1.411714,-1.054337 -2.375,-1.0625 -0.876482,-0.0075 -1.766047,0.328542 -2.4375,1 l -5.40625,5.40625 c -1.335661,1.335676 -1.237573,3.512284 0.0625,4.8125 l 2.0625,2.0625 c -0.613248,1.167398 -1.143416,2.404727 -1.5625,3.6875 H 12.5 c -1.868452,0 -3.46875,1.508748 -3.46875,3.40625 v 7.625 c 0,1.897502 1.600298,3.40625 3.46875,3.40625 h 2.875 c 0.419084,1.282773 0.949252,2.520102 1.5625,3.6875 l -2.0625,2.0625 c -1.300195,1.300198 -1.39828,3.476848 -0.0625,4.8125 l 5.40625,5.40625 c 1.33564,1.335654 3.512272,1.237726 4.8125,-0.0625 l 2.0625,-2.0625 c 1.167399,0.613251 2.404725,1.143419 3.6875,1.5625 V 74.5 c 0,1.86845 1.508745,3.46875 3.40625,3.46875 h 7.625 c 1.897498,0 3.40625,-1.600295 3.40625,-3.46875 v -2.875 c 1.282775,-0.419081 2.520101,-0.949249 3.6875,-1.5625 l 2.0625,2.0625 c 1.300226,1.30023 3.476856,1.398143 4.8125,0.0625 l 5.40625,-5.40625 c 1.335663,-1.335676 1.237576,-3.512285 -0.0625,-4.8125 l -2.0625,-2.0625 c 0.613249,-1.167396 1.143418,-2.404723 1.5625,-3.6875 H 63.5 c 1.868446,0 3.46875,-1.508743 3.46875,-3.40625 v -7.625 c 0,-1.897506 -1.600303,-3.40625 -3.46875,-3.40625 h -2.875 c -0.419082,-1.282778 -0.949251,-2.520104 -1.5625,-3.6875 l 2.0625,-2.0625 c 1.300188,-1.300194 1.398301,-3.476847 0.0625,-4.8125 L 55.78125,25.8125 c -1.335645,-1.335639 -3.512273,-1.237728 -4.8125,0.0625 l -2.0625,2.0625 C 47.738851,27.32425 46.501525,26.794081 45.21875,26.375 V 23.5 c 0,-1.868456 -1.508752,-3.46875 -3.40625,-3.46875 z M 38,42.15625 c 3.796786,0 6.84375,3.04697 6.84375,6.84375 0,3.796781 -3.046964,6.84375 -6.84375,6.84375 -3.796774,0 -6.84375,-3.046971 -6.84375,-6.84375 0,-3.796778 3.046976,-6.84375 6.84375,-6.84375 z"
                 transform="translate(10)"
                 id="path3698"
                 style="display:block;overflow:visible;visibility:visible;opacity:0.2;fill:#000000;fill-opacity:1;stroke:none;stroke-width:1;marker:none;enable-background:accumulate" />
              <path
                 inkscape:connector-curvature="0"
                 d="M 34.1875,21 C 32.825461,21 31.75,22.13763 31.75,23.5 V 27 c -1.717872,0.490944 -3.349062,1.207555 -4.875,2.0625 l -2.53125,-2.5 c -0.456286,-0.456283 -1.031625,-0.775692 -1.6875,-0.78125 -0.629717,-0.0054 -1.262886,0.231632 -1.75,0.71875 L 15.5,31.90625 c -0.960628,0.960639 -0.892699,2.482196 0.0625,3.4375 l 2.5,2.53125 C 17.207558,39.400935 16.490953,41.032127 16,42.75 h -3.5 c -1.36237,0 -2.5,1.075465 -2.5,2.4375 v 7.625 c 0,1.362035 1.13763,2.4375 2.5,2.4375 H 16 c 0.490953,1.717873 1.207558,3.349065 2.0625,4.875 l -2.5,2.53125 c -0.955292,0.955294 -1.02322,2.476872 -0.0625,3.4375 L 20.90625,71.5 c 0.960621,0.960631 2.482195,0.892804 3.4375,-0.0625 l 2.53125,-2.5 c 1.525938,0.854946 3.157128,1.571555 4.875,2.0625 v 3.5 c 0,1.362369 1.075461,2.5 2.4375,2.5 h 7.625 C 43.174531,77 44.25,75.862372 44.25,74.5 V 71 c 1.717872,-0.490945 3.349061,-1.207554 4.875,-2.0625 l 2.53125,2.5 c 0.955303,0.955306 2.476872,1.023127 3.4375,0.0625 L 60.5,66.09375 c 0.96063,-0.960639 0.892701,-2.482197 -0.0625,-3.4375 l -2.5,-2.53125 C 58.792442,58.599066 59.509054,56.967876 60,55.25 h 3.5 c 1.362363,0 2.5,-1.075462 2.5,-2.4375 v -7.625 C 66,43.825463 64.862363,42.75 63.5,42.75 H 60 c -0.490944,-1.717876 -1.207558,-3.349066 -2.0625,-4.875 l 2.5,-2.53125 c 0.955289,-0.955293 1.023234,-2.476872 0.0625,-3.4375 L 55.09375,26.5 c -0.960629,-0.960625 -2.482196,-0.892805 -3.4375,0.0625 l -2.53125,2.5 C 47.599061,28.207555 45.967872,27.490944 44.25,27 V 23.5 C 44.25,22.137627 43.174531,21 41.8125,21 Z M 38,41.1875 c 4.316119,0 7.8125,3.496387 7.8125,7.8125 0,4.316114 -3.496381,7.8125 -7.8125,7.8125 -4.316108,0 -7.8125,-3.496387 -7.8125,-7.8125 0,-4.316112 3.496392,-7.8125 7.8125,-7.8125 z"
                 transform="translate(10)"
                 id="path3694"
                 style="display:block;overflow:visible;visibility:visible;opacity:0.3;fill:#000000;fill-opacity:1;stroke:none;stroke-width:1;marker:none;enable-background:accumulate" />
              <path
                 d="m 44.202778,20.500099 c -1.082262,0 -1.958577,0.897784 -1.958577,1.998539 v 3.877166 c -1.935147,0.515597 -3.784186,1.294397 -5.475994,2.278335 l -2.757989,-2.757984 c -0.389179,-0.389176 -0.855369,-0.595295 -1.359003,-0.599563 -0.503633,-0.0043 -1.016343,0.176957 -1.398974,0.559591 l -5.396062,5.396057 c -0.765262,0.76527 -0.738376,1.979633 0.03989,2.757985 l 2.757989,2.757984 c -0.983934,1.691803 -1.76273,3.540846 -2.27834,5.475997 h -3.877162 c -1.100753,0 -1.998541,0.876313 -1.998541,1.958569 v 7.59445 c 0,1.082256 0.897788,1.958569 1.998541,1.958569 h 3.877162 c 0.51561,1.935152 1.294406,3.784195 2.27834,5.475998 l -2.757989,2.757984 c -0.778348,0.77835 -0.805234,1.992713 -0.03989,2.757984 l 5.396062,5.396057 c 0.765262,0.76527 1.979629,0.738377 2.757977,-0.03997 l 2.757989,-2.757984 c 1.691808,0.983939 3.540847,1.762736 5.475994,2.278334 v 3.877167 c 0,1.100754 0.876315,1.99854 1.958577,1.99854 h 7.594448 c 1.082252,0 1.958566,-0.897786 1.958566,-1.99854 v -3.877167 c 1.935147,-0.515598 3.784186,-1.294395 5.475995,-2.278334 l 2.757988,2.757984 c 0.778348,0.77835 1.992715,0.805242 2.757988,0.03997 l 5.396051,-5.396057 c 0.765263,-0.76527 0.738377,-1.979634 -0.03989,-2.757984 l -2.757977,-2.757984 c 0.983933,-1.691803 1.762729,-3.540846 2.278328,-5.475998 h 3.877173 c 1.100744,0 1.998538,-0.876312 1.998538,-1.958569 v -7.59445 c 0,-1.082255 -0.897794,-1.958569 -1.998538,-1.958569 H 69.624275 C 69.10868,40.309055 68.329884,38.460012 67.345951,36.768209 l 2.757977,-2.757984 c 0.778348,-0.778351 0.805245,-1.992715 0.03989,-2.757985 l -5.396051,-5.396057 c -0.765273,-0.76527 -1.97964,-0.738379 -2.757988,0.03997 l -2.757988,2.757984 c -1.691809,-0.983938 -3.540848,-1.762738 -5.475995,-2.278335 v -3.877166 c 0,-1.100755 -0.876314,-1.998539 -1.958566,-1.998539 h -7.594448 z m 3.797219,19.185977 c 4.589292,0 8.313926,3.724638 8.313926,8.313924 0,4.589287 -3.724634,8.313924 -8.313926,8.313924 -4.589282,0 -8.313926,-3.724637 -8.313926,-8.313924 0,-4.589286 3.724644,-8.313924 8.313926,-8.313924 z"
                 inkscape:connector-curvature="0"
                 id="rect3267"
                 style="display:block;overflow:visible;visibility:visible;fill:url(#linearGradient3804);fill-opacity:1;fill-rule:nonzero;stroke:url(#linearGradient3806);stroke-width:1;stroke-linecap:butt;stroke-linejoin:round;stroke-miterlimit:4;stroke-dasharray:none;stroke-dashoffset:0;stroke-opacity:1;marker:none;enable-background:accumulate" />
              <path
                 d="m 47.999997,30.732619 c -9.521233,0 -17.267377,7.746146 -17.267377,17.267381 0,9.521234 7.746144,17.267381 17.267377,17.267381 9.521233,0 17.267387,-7.746147 17.267387,-17.267381 0,-9.521235 -7.746154,-17.267381 -17.267387,-17.267381 z"
                 inkscape:connector-curvature="0"
                 id="path28"
                 style="fill:none;stroke:url(#linearGradient3801);stroke-width:2;stroke-miterlimit:4;stroke-dasharray:none" />
              <path
                 d="m 47.999997,31.372152 c -9.168751,0 -16.627852,7.459099 -16.627852,16.627848 0,9.168749 7.459101,16.627848 16.627852,16.627848 9.168751,-2e-6 16.627852,-7.459099 16.627852,-16.627848 0,-9.168749 -7.459101,-16.627848 -16.627852,-16.627848 z m 0,7.674391 c 4.942307,0 8.953461,4.011149 8.953461,8.953457 0,4.942308 -4.011154,8.953457 -8.953461,8.953457 -4.942307,0 -8.953461,-4.011149 -8.953461,-8.953457 0,-4.942308 4.011154,-8.953457 8.953461,-8.953457 z"
                 inkscape:connector-curvature="0"
                 id="path3315-8"
                 style="opacity:0.05;fill:#000000;fill-opacity:1;stroke:none" />
            </g>
          </g>
          <path
             style="color:#000000;font-style:normal;font-variant:normal;font-weight:normal;font-stretch:normal;font-size:medium;line-height:normal;font-family:Sans;-inkscape-font-specification:Sans;text-indent:0;text-align:start;text-decoration:none;text-decoration-line:none;letter-spacing:normal;word-spacing:normal;text-transform:none;writing-mode:lr-tb;direction:ltr;baseline-shift:baseline;text-anchor:start;display:inline;overflow:visible;visibility:visible;fill:#000000;fill-opacity:0.87148593;stroke:none;stroke-width:2.3755002;marker:none;enable-background:accumulate"
             d="m -24.6875,-37.8125 c -3.196096,0 -5.8125,2.600343 -5.8125,5.78125 v 70.9375 c 0,3.180909 2.616404,5.78125 5.8125,5.78125 h 78.75 c 3.196096,0 5.8125,-2.600341 5.8125,-5.78125 v -70.9375 c 0,-3.180907 -2.616404,-5.78125 -5.8125,-5.78125 z m 0,2.375 h 78.75 c 1.936246,0 3.4375,1.515549 3.4375,3.40625 v 70.9375 c 0,1.890705 -1.501254,3.40625 -3.4375,3.40625 h -78.75 c -1.936246,0 -3.4375,-1.515545 -3.4375,-3.40625 v -70.9375 c 0,-1.890701 1.501254,-3.40625 3.4375,-3.40625 z"
             id="path4989"
             inkscape:connector-curvature="0" />
          <rect
             transform="matrix(1.0965112,0,0,1.0727794,-30.578356,-3.6749427)"
             style="display:inline;opacity:0.72899996;fill:url(#linearGradient4767);fill-opacity:1;stroke:none"
             id="rect4146"
             width="75.965775"
             height="69.024437"
             x="2"
             y="-30"
             rx="3.9569874"
             ry="3.9569881"
             clip-path="url(#clipPath4156-4-1)" />
        </g>
      </g>
    </g>
  </g>
</svg>
