<?xml version="1.0" encoding="UTF-8" standalone="no"?>
<!-- Created with Inkscape (http://www.inkscape.org/) -->

<svg
   xmlns:dc="http://purl.org/dc/elements/1.1/"
   xmlns:cc="http://creativecommons.org/ns#"
   xmlns:rdf="http://www.w3.org/1999/02/22-rdf-syntax-ns#"
   xmlns:svg="http://www.w3.org/2000/svg"
   xmlns="http://www.w3.org/2000/svg"
   xmlns:xlink="http://www.w3.org/1999/xlink"
   xmlns:sodipodi="http://sodipodi.sourceforge.net/DTD/sodipodi-0.dtd"
   xmlns:inkscape="http://www.inkscape.org/namespaces/inkscape"
   width="96"
   height="96"
   viewBox="0 0 96.000001 96.000004"
   version="1.1"
   id="svg1072"
   inkscape:version="0.92.1 r15371"
   sodipodi:docname="banshee.svg">
  <defs
     id="defs1066">
    <linearGradient
       y2="47.000011"
       x2="90"
       y1="47.000011"
       x1="6"
       gradientTransform="matrix(1.1071428,0,0,1.1071426,-4.9939026,-3.620687)"
       gradientUnits="userSpaceOnUse"
       id="linearGradient4071"
       xlink:href="#linearGradient6139-0"
       inkscape:collect="always" />
    <linearGradient
       id="linearGradient6139-0">
      <stop
         style="stop-color:#b4b9ba;stop-opacity:1"
         offset="0"
         id="stop6141-2" />
      <stop
         id="stop6151-0"
         offset="0.25"
         style="stop-color:#ffffff;stop-opacity:1;" />
      <stop
         id="stop6147-1"
         offset="0.5"
         style="stop-color:#98a0a2;stop-opacity:1" />
      <stop
         style="stop-color:#fbf9f9;stop-opacity:1;"
         offset="0.75"
         id="stop6149-4" />
      <stop
         style="stop-color:#b4b8ba;stop-opacity:1"
         offset="1"
         id="stop6143-4" />
    </linearGradient>
    <linearGradient
       gradientUnits="userSpaceOnUse"
       y2="88.171875"
       x2="94.5"
       y1="88.171875"
       x1="1.5"
       id="linearGradient4129"
       xlink:href="#linearGradient3832-0-6-1-1"
       inkscape:collect="always"
       gradientTransform="translate(0.1489535,0.415026)" />
    <linearGradient
       id="linearGradient3832-0-6-1-1">
      <stop
         id="stop3834-6-3-7-1"
         offset="0"
         style="stop-color:#000000;stop-opacity:1;" />
      <stop
         style="stop-color:#000000;stop-opacity:0.58823532;"
         offset="0.1"
         id="stop3872-2-4" />
      <stop
         id="stop3844-6-2-7-6"
         offset="0.89999998"
         style="stop-color:#000000;stop-opacity:0.58823532;" />
      <stop
         id="stop3836-5-0-2-9"
         offset="1"
         style="stop-color:#000000;stop-opacity:1;" />
    </linearGradient>
    <radialGradient
       r="43.199203"
       fy="44.892841"
       fx="13.948145"
       cy="44.892841"
       cx="13.948145"
       gradientTransform="matrix(0.97513378,0,0,0.04919072,34.047649,80.581722)"
       gradientUnits="userSpaceOnUse"
       id="radialGradient7462"
       xlink:href="#linearGradient3737"
       inkscape:collect="always" />
    <linearGradient
       id="linearGradient3737">
      <stop
         id="stop3739"
         style="stop-color:#ffffff;stop-opacity:1"
         offset="0" />
      <stop
         id="stop3741"
         style="stop-color:#ffffff;stop-opacity:0"
         offset="1" />
    </linearGradient>
    <radialGradient
       r="43.199203"
       fy="44.892841"
       fx="13.948145"
       cy="44.892841"
       cx="13.948145"
       gradientTransform="matrix(0.88832663,0,0,0.04919072,31.959518,-90.31726)"
       gradientUnits="userSpaceOnUse"
       id="radialGradient7464"
       xlink:href="#linearGradient3737"
       inkscape:collect="always" />
    <linearGradient
       y2="14.514202"
       x2="50.527882"
       y1="-28.64156"
       x1="2.7713892"
       gradientUnits="userSpaceOnUse"
       id="linearGradient4767"
       xlink:href="#linearGradient3737"
       inkscape:collect="always" />
    <clipPath
       clipPathUnits="userSpaceOnUse"
       id="clipPath4156-4-1">
      <path
         style="opacity:0.6;fill:#ffffff;fill-opacity:1;stroke:none"
         d="m 27.046336,-55.695463 -14.21366,13.321486 h 0.06127 l 15.653407,21.770763 10.231384,-10.546177 C 38.561832,-32.30156 27.468089,-54.819245 27.046336,-55.695463 Z M 9.6468554,-39.382809 -5.2407289,-25.32124 15.987863,-7.8059573 26.372412,-18.382966 Z m 31.4906096,12.951445 -9.741259,9.713584 8.944804,12.4580526 7.780753,-7.5550056 z m -49.8397109,4.378822 -13.7541661,12.9822847 26.2830181,13.84571 0.06127,-0.0617 -0.122531,-0.0617 L 13.598503,-5.4007374 -8.7022409,-22.052595 Z m 38.0154159,7.400825 -9.802525,9.7752596 11.579232,9.5594001 7.62759,-7.40083 -8.669108,-11.0087257 z m 20.187073,5.6739697 -7.382526,7.2158 6.187844,8.54179 5.820249,-6.13651996 z m -32.195166,6.32154 -9.5574606,9.49772 13.6622686,7.1849703 7.933918,-7.6783603 z m 23.311629,2.37443004 -7.10683,6.93826996 8.362778,6.9074403 5.360756,-5.6739699 -0.06127,-0.0925 -0.0919,0.12335 -6.463539,-8.20258036 z m -8.730374,8.54178036 -7.505057,7.3391599 10.353916,5.45811 c 1.397496,-1.32103 5.67514,-6.12292 5.850882,-6.32154 z"
         id="path4158-0-8"
         inkscape:connector-curvature="0" />
    </clipPath>
    <linearGradient
       x1="48"
       y1="87"
       x2="48"
       y2="-17"
       id="linearGradient3781-2"
       xlink:href="#linearGradient3770-6"
       gradientUnits="userSpaceOnUse" />
    <linearGradient
       id="linearGradient3770-6">
      <stop
         id="stop3772-5"
         style="stop-color:#000000;stop-opacity:1"
         offset="0" />
      <stop
         id="stop3774-6"
         style="stop-color:#000000;stop-opacity:0"
         offset="1" />
    </linearGradient>
    <radialGradient
       cx="63.75"
       cy="57.679382"
       r="34"
       fx="63.75"
       fy="57.679382"
       id="radialGradient3777-5"
       xlink:href="#linearGradient7985-9"
       gradientUnits="userSpaceOnUse"
       gradientTransform="matrix(-1.5581724,1.4064304e-7,-1.2408086e-7,-1.3643811,163.0835,137.55769)" />
    <linearGradient
       id="linearGradient7985-9">
      <stop
         id="stop7987-6"
         style="stop-color:#ffffff;stop-opacity:1"
         offset="0" />
      <stop
         id="stop7997-6"
         style="stop-color:#ffffff;stop-opacity:1"
         offset="0.1" />
      <stop
         id="stop7993-1"
         style="stop-color:#e6e6e6;stop-opacity:1"
         offset="0.30000001" />
      <stop
         id="stop7995-1"
         style="stop-color:#bebebe;stop-opacity:1"
         offset="0.80000001" />
      <stop
         id="stop7989-7"
         style="stop-color:#e6e6e6;stop-opacity:1"
         offset="1" />
    </linearGradient>
    <linearGradient
       x1="46.80846"
       y1="16.687328"
       x2="65.76947"
       y2="87.928337"
       id="linearGradient3811-8"
       xlink:href="#linearGradient8005-1"
       gradientUnits="userSpaceOnUse"
       gradientTransform="matrix(0.76488859,0,0,0.76488859,1.7349463,1.5614309)" />
    <linearGradient
       id="linearGradient8005-1">
      <stop
         id="stop8007-1"
         style="stop-color:#2f70b4;stop-opacity:1"
         offset="0" />
      <stop
         id="stop8009-1"
         style="stop-color:#4588ce;stop-opacity:1"
         offset="1" />
    </linearGradient>
    <filter
       style="color-interpolation-filters:sRGB"
       x="-0.037872378"
       y="-0.1443238"
       width="1.0757447"
       height="1.2886477"
       id="filter8019-1">
      <feGaussianBlur
         id="feGaussianBlur8021-0"
         stdDeviation="0.37938072" />
    </filter>
    <radialGradient
       cx="48.17165"
       cy="77.798073"
       r="15.495689"
       fx="48.17165"
       fy="77.798073"
       id="radialGradient3798-9"
       xlink:href="#linearGradient3737"
       gradientUnits="userSpaceOnUse"
       gradientTransform="matrix(1.6338787,1.7473377e-7,-3.0351881e-7,2.8381058,-30.534959,-134.76277)" />
    <filter
       style="color-interpolation-filters:sRGB"
       id="filter8041-3">
      <feGaussianBlur
         id="feGaussianBlur8043-9"
         stdDeviation="0.78995058" />
    </filter>
    <filter
       style="color-interpolation-filters:sRGB"
       id="filter8047-9">
      <feGaussianBlur
         id="feGaussianBlur8049-1"
         stdDeviation="0.22026213" />
    </filter>
    <radialGradient
       cx="76.367531"
       cy="78"
       r="2.767844"
       fx="76.367531"
       fy="78"
       id="radialGradient3800-9"
       xlink:href="#linearGradient3737"
       gradientUnits="userSpaceOnUse" />
    <filter
       style="color-interpolation-filters:sRGB"
       x="-0.037872378"
       y="-0.1443238"
       width="1.0757447"
       height="1.2886477"
       id="filter1130">
      <feGaussianBlur
         id="feGaussianBlur1128"
         stdDeviation="0.37938072" />
    </filter>
    <radialGradient
       cx="76.367531"
       cy="78"
       r="2.767844"
       fx="76.367531"
       fy="78"
       id="radialGradient3802-3"
       xlink:href="#linearGradient3737"
       gradientUnits="userSpaceOnUse" />
  </defs>
  <sodipodi:namedview
     id="base"
     pagecolor="#ffffff"
     bordercolor="#666666"
     borderopacity="1.0"
     inkscape:pageopacity="0.0"
     inkscape:pageshadow="2"
     inkscape:zoom="2.21934"
     inkscape:cx="-10.083382"
     inkscape:cy="44.557005"
     inkscape:document-units="px"
     inkscape:current-layer="g2574"
     showgrid="false"
     inkscape:showpageshadow="false"
     units="px"
     inkscape:lockguides="false"
     inkscape:window-width="1280"
     inkscape:window-height="972"
     inkscape:window-x="0"
     inkscape:window-y="26"
     inkscape:window-maximized="1" />
  <metadata
     id="metadata1069">
    <rdf:RDF>
      <cc:Work
         rdf:about="">
        <dc:format>image/svg+xml</dc:format>
        <dc:type
           rdf:resource="http://purl.org/dc/dcmitype/StillImage" />
        <dc:title></dc:title>
        <dc:date>2017</dc:date>
        <dc:creator>
          <cc:Agent>
            <dc:title>Cristian Pozzessere &quot;ilnanny&quot;</dc:title>
          </cc:Agent>
        </dc:creator>
        <dc:subject>
          <rdf:Bag>
            <rdf:li>Global language</rdf:li>
          </rdf:Bag>
        </dc:subject>
        <dc:description>Playing with Inkscape on Gnu/Linux O. S.</dc:description>
        <dc:contributor>
          <cc:Agent>
            <dc:title>In the night, alone like a dog.</dc:title>
          </cc:Agent>
        </dc:contributor>
        <cc:license
           rdf:resource="http://creativecommons.org/licenses/by-sa/4.0/" />
      </cc:Work>
      <cc:License
         rdf:about="http://creativecommons.org/licenses/by-sa/4.0/">
        <cc:permits
           rdf:resource="http://creativecommons.org/ns#Reproduction" />
        <cc:permits
           rdf:resource="http://creativecommons.org/ns#Distribution" />
        <cc:requires
           rdf:resource="http://creativecommons.org/ns#Notice" />
        <cc:requires
           rdf:resource="http://creativecommons.org/ns#Attribution" />
        <cc:permits
           rdf:resource="http://creativecommons.org/ns#DerivativeWorks" />
        <cc:requires
           rdf:resource="http://creativecommons.org/ns#ShareAlike" />
      </cc:License>
    </rdf:RDF>
  </metadata>
  <g
     inkscape:label="Livello 1"
     inkscape:groupmode="layer"
     id="layer1"
     transform="translate(0,-1026.5197)">
    <g
       transform="translate(-0.14895645,1026.1047)"
       style="display:inline"
       id="g2574">
      <path
         inkscape:connector-curvature="0"
         id="path3288"
         d="M 89.29181,0.415026 H 7.0060911 c -3.798848,0 -6.8571352,3.058285 -6.8571352,6.8571399 V 89.557884 c 0,3.798857 3.0582872,6.857142 6.8571352,6.857142 H 89.29181 c 3.798857,0 6.857147,-3.058285 6.857147,-6.857142 V 7.2721659 c 0,-3.7988549 -3.05829,-6.8571399 -6.857147,-6.8571399 z"
         style="display:inline;opacity:0.15;fill:#000000;fill-opacity:1;fill-rule:nonzero;stroke:none" />
      <path
         style="display:inline;opacity:0.15;fill:#000000;fill-opacity:1;fill-rule:nonzero;stroke:none"
         d="M 88.648954,1.165026 H 7.6489471 c -3.739492,0 -6.749993,3.010499 -6.749993,6.7499969 V 88.915026 c 0,3.739501 3.010501,6.75 6.749993,6.75 H 88.648954 c 3.739503,0 6.750003,-3.010499 6.750003,-6.75 V 7.9150229 c 0,-3.7394979 -3.0105,-6.7499969 -6.750003,-6.7499969 z"
         id="path4085"
         inkscape:connector-curvature="0" />
      <path
         inkscape:connector-curvature="0"
         id="rect4251-1"
         d="M 88.006093,1.915026 H 8.2918111 c -3.680143,0 -6.6428566,2.962713 -6.6428566,6.6428549 V 88.272171 c 0,3.680142 2.9627136,6.642856 6.6428566,6.642856 H 88.006093 c 3.680143,0 6.642854,-2.962714 6.642854,-6.642856 V 8.5578809 c 0,-3.6801419 -2.962711,-6.6428549 -6.642854,-6.6428549 z"
         style="display:inline;fill:url(#linearGradient4071);fill-opacity:1;fill-rule:nonzero;stroke:none" />
      <path
         sodipodi:nodetypes="sscccsccscccsss"
         inkscape:connector-curvature="0"
         id="path3400-6"
         d="m 11.390247,6.8021682 c -2.8564964,0 -5.1241284,2.3146876 -5.1241284,5.2304538 v 21.67369 7.322634 40.372561 c 1.0972399,1.70385 2.9688485,2.844058 5.1241284,2.844058 h 4.099303 65.588849 4.099302 c 2.155281,0 4.026889,-1.140208 5.124129,-2.844058 V 41.028946 33.706312 12.032622 c 0,-2.9157662 -2.267632,-5.2304538 -5.124129,-5.2304538 z"
         style="display:inline;opacity:0.77864583;fill:#ff9900;fill-opacity:1;fill-rule:nonzero;stroke:none;stroke-width:1.03540373" />
      <path
         style="color:#000000;font-style:normal;font-variant:normal;font-weight:normal;font-stretch:normal;font-size:medium;line-height:normal;font-family:Sans;-inkscape-font-specification:Sans;text-indent:0;text-align:start;text-decoration:none;text-decoration-line:none;letter-spacing:normal;word-spacing:normal;text-transform:none;writing-mode:lr-tb;direction:ltr;baseline-shift:baseline;text-anchor:start;display:inline;overflow:visible;visibility:visible;fill:#241f1f;fill-opacity:0.63265303;stroke:none;stroke-width:2.3755002;marker:none;enable-background:accumulate"
         d="m 9.9740341,5.1444869 c -3.116621,0 -5.667965,2.53951 -5.667965,5.6460041 v 69.277996 c 0,3.106495 2.551344,5.646004 5.667965,5.646004 H 86.765819 c 3.116621,0 5.667968,-2.539509 5.667968,-5.646004 V 10.790491 c 0,-3.1064931 -2.551347,-5.6460041 -5.667968,-5.6460041 z m 0,2.319439 H 86.765819 c 1.888099,0 3.352022,1.480095 3.352022,3.3265651 v 69.277996 c 0,1.846474 -1.463923,3.326564 -3.352022,3.326564 H 9.9740341 c -1.888099,0 -3.352022,-1.48009 -3.352022,-3.326564 V 10.790491 c 0,-1.8464701 1.463923,-3.3265651 3.352022,-3.3265651 z"
         id="path4989"
         inkscape:connector-curvature="0" />
      <path
         id="path4118"
         d="m 1.6489535,82.258776 v 6 c 0,3.680142 2.9761066,6.65625 6.6562496,6.65625 H 87.992703 c 3.680143,0 6.656254,-2.976108 6.656254,-6.65625 v -6 c 0,3.680142 -2.976111,6.65625 -6.656254,6.65625 H 8.3052031 c -3.680143,0 -6.6562496,-2.976108 -6.6562496,-6.65625 z"
         style="display:inline;opacity:0.65818182;fill:url(#linearGradient4129);fill-opacity:1;fill-rule:nonzero;stroke:none"
         inkscape:connector-curvature="0" />
      <rect
         ry="4.25"
         rx="0"
         y="80.665031"
         x="5.5239539"
         height="4.25"
         width="84.250008"
         id="rect4131"
         style="opacity:0.55;fill:url(#radialGradient7462);fill-opacity:1;stroke:none" />
      <rect
         transform="rotate(90)"
         style="opacity:0.669;fill:url(#radialGradient7464);fill-opacity:1;stroke:none"
         id="rect4141"
         width="76.75"
         height="4.25"
         x="5.9750223"
         y="-90.233963"
         rx="0"
         ry="4.25" />
      <g
         transform="matrix(0.93059313,0,0,0.93059313,2.3314307,-0.57602491)"
         id="g1089">
        <path
           style="color:#000000;font-style:normal;font-variant:normal;font-weight:normal;font-stretch:normal;font-size:medium;line-height:normal;font-family:'Abandoned Bitplane';-inkscape-font-specification:'Abandoned Bitplane';text-indent:0;text-align:start;text-decoration:none;text-decoration-line:none;letter-spacing:normal;word-spacing:normal;text-transform:none;writing-mode:lr-tb;direction:ltr;text-anchor:start;display:inline;overflow:visible;visibility:visible;opacity:0.15;fill:url(#linearGradient3781-2);fill-opacity:1;fill-rule:evenodd;stroke:none;stroke-width:1.99999988;marker:none;enable-background:accumulate"
           id="path3757"
           transform="translate(0,1)"
           d="M 45.46875,13.28125 44.4375,13.3125 c -9.194554,0.338062 -13.765334,2.455842 -16.96875,5.34375 -3.181562,2.868206 -4.870923,5.8915 -9.5625,8.84375 L 15.125,29.28125 a 0.98422826,0.98422826 0 0 0 0.5,1.8125 l 3.28125,0.09375 c 5.436981,0.155978 8.854901,-1.555124 11.375,-3.09375 C 32.086497,26.99157 33.433874,26.234178 35,25.875 v 13.9375 c -6.144545,4.618246 -10.125,11.669713 -10.125,19.625 0,13.977509 12.151905,25.25 27.0625,25.25 C 66.848095,84.6875 79,73.415009 79,59.4375 79,45.459991 66.846672,34.21875 51.9375,34.21875 c -1.879332,0 -3.684467,0.256409 -5.46875,0.59375 V 15.28125 14.25 a 0.98422826,0.98422826 0 0 0 -1,-0.96875 z"
           inkscape:connector-curvature="0" />
        <path
           style="display:inline;fill:url(#radialGradient3777-5);fill-opacity:1;fill-rule:nonzero;stroke:none"
           id="path7975"
           transform="matrix(0.76770063,0,0,0.77059305,2.9898417,1.6187846)"
           d="m 97.75,73.75 a 34,31.5 0 1 1 -68,0 34,31.5 0 1 1 68,0 z"
           inkscape:connector-curvature="0" />
        <g
           id="g3817">
          <path
             style="fill:url(#linearGradient3811-8);fill-opacity:1;fill-rule:evenodd;stroke:#28609b;stroke-width:1.99999988;stroke-linecap:butt;stroke-linejoin:miter;stroke-miterlimit:4;stroke-dasharray:none;stroke-opacity:1"
             id="path8000"
             inkscape:connector-curvature="0"
             d="M 44.501337,14.276296 C 26.643098,14.9329 29.024537,21.876375 18.967422,28.204976 29.000826,28.492819 30.391697,22.30122 36.957225,22.563861 V 68.644577 C 46.89224,69.573156 71.259201,69.875512 68.503217,53.810533 66.391802,41.502832 44.501335,50.25872 44.501337,50.25872 Z m 10.143928,38.118155 c 2.741551,0.01475 5.077896,0.606677 5.501398,3.342883 1.286413,8.31138 -15.784601,8.357208 -15.784602,8.357208 v -9.657218 c 0,0 5.713952,-2.067459 10.283204,-2.042873 z" />
          <path
             style="opacity:0.4;fill:#ffffff;fill-opacity:1;fill-rule:evenodd;stroke:none;filter:url(#filter8019-1)"
             id="path8013"
             transform="matrix(0.76488859,0,0,0.76488859,1.7349463,1.5614309)"
             inkscape:connector-curvature="0"
             d="M 55.154329,65.597826 C 77.339804,57.819651 81.31728,63 81.31728,63 c 0,0 -9.693358,-2.617086 -26.074563,5.0727 l -0.08839,-2.474874 z" />
          <path
             style="opacity:0.5;fill:none;stroke:url(#radialGradient3798-9);stroke-width:2.61475968;stroke-linecap:butt;stroke-linejoin:miter;stroke-miterlimit:4;stroke-dasharray:none;stroke-opacity:1;filter:url(#filter8041-3)"
             id="path8023"
             transform="matrix(0.76488859,0,0,0.76488859,1.7349463,1.5614309)"
             inkscape:connector-curvature="0"
             d="m 48.70198,39.788428 v 45.696776 c 0,0 13.788582,1.767768 28.991378,-3.18198" />
          <path
             style="opacity:0.4;fill:#ffffff;fill-opacity:1;fill-rule:evenodd;stroke:none;filter:url(#filter8047-9)"
             id="path8045"
             transform="matrix(0.76488859,0,0,0.76488859,1.7349463,1.5614309)"
             inkscape:connector-curvature="0"
             d="m 77.263755,78.958454 c -5.588635,4.29895 -11.178321,3.145988 -11.178321,3.145988 0,0 6.487758,-0.586458 10.310934,-5.465569 0,0 3.165485,0.551814 0.867387,2.319581 z" />
          <path
             style="fill:url(#radialGradient3800-9);fill-opacity:1;fill-rule:nonzero;stroke:none"
             id="path8051"
             transform="matrix(1.1259937,-0.74675346,0.54425166,0.82065096,-67.832995,54.307293)"
             d="m 79.135375,78 a 2.767844,2.767844 0 1 1 -5.535688,0 2.767844,2.767844 0 1 1 5.535688,0 z"
             inkscape:connector-curvature="0" />
          <path
             style="opacity:0.4;fill:#ffffff;fill-opacity:1;fill-rule:evenodd;stroke:none;filter:url(#filter8019-1)"
             id="path8061"
             transform="matrix(-0.65020701,0.40284663,0.40284663,0.65020701,48.406966,-15.249414)"
             inkscape:connector-curvature="0"
             d="M 27.904329,29.972826 C 45.772473,21.634488 44.896934,27.597947 57.82329,29.165221 49.685274,29.795851 42.449716,22.126863 27.992717,32.4477 l -0.08839,-2.474874 z" />
          <path
             style="opacity:0.8;fill:url(#radialGradient3802-3);fill-opacity:1;fill-rule:nonzero;stroke:none"
             id="path8063"
             transform="matrix(0.81502459,-0.5405203,0.39394401,0.59400927,-63.243429,14.645007)"
             d="m 79.135375,78 a 2.767844,2.767844 0 1 1 -5.535688,0 2.767844,2.767844 0 1 1 5.535688,0 z"
             inkscape:connector-curvature="0" />
        </g>
      </g>
      <rect
         clip-path="url(#clipPath4156-4-1)"
         ry="3.9569881"
         rx="3.9569874"
         y="-30"
         x="2"
         height="69.024437"
         width="75.965775"
         id="rect4146"
         style="opacity:0.5078125;fill:url(#linearGradient4767);fill-opacity:1;stroke:none"
         transform="matrix(1.0692451,0,0,1.0476829,4.4441802,38.894013)" />
    </g>
  </g>
</svg>
