<?xml version="1.0" encoding="UTF-8" standalone="no"?>
<svg
   xmlns:dc="http://purl.org/dc/elements/1.1/"
   xmlns:cc="http://creativecommons.org/ns#"
   xmlns:rdf="http://www.w3.org/1999/02/22-rdf-syntax-ns#"
   xmlns:svg="http://www.w3.org/2000/svg"
   xmlns="http://www.w3.org/2000/svg"
   xmlns:xlink="http://www.w3.org/1999/xlink"
   xmlns:sodipodi="http://sodipodi.sourceforge.net/DTD/sodipodi-0.dtd"
   xmlns:inkscape="http://www.inkscape.org/namespaces/inkscape"
   width="96"
   height="96"
   version="1.1"
   viewBox="0 0 72 72"
   id="svg18"
   sodipodi:docname="bitmap2component.svg"
   inkscape:version="0.92.2 2405546, 2018-03-11">
  <metadata
     id="metadata24">
    <rdf:RDF>
      <cc:Work
         rdf:about="">
        <dc:format>image/svg+xml</dc:format>
        <dc:type
           rdf:resource="http://purl.org/dc/dcmitype/StillImage" />
        <dc:title></dc:title>
        <dc:date>2019</dc:date>
        <dc:creator>
          <cc:Agent>
            <dc:title>Cristian Pozzessere  &lt; ilnanny &gt;</dc:title>
          </cc:Agent>
        </dc:creator>
        <dc:subject>
          <rdf:Bag>
            <rdf:li>ilnanny</rdf:li>
            <rdf:li>lila_hd</rdf:li>
            <rdf:li>lila-hd</rdf:li>
            <rdf:li>lila hd icon theme</rdf:li>
            <rdf:li>Lila-HD-Icon-Theme lila hd icon lila icon</rdf:li>
          </rdf:Bag>
        </dc:subject>
        <dc:description>Playing with Inkscape on Gnu/Linux O. S.</dc:description>
        <dc:contributor>
          <cc:Agent>
            <dc:title>In the night, alone like a dog.</dc:title>
          </cc:Agent>
        </dc:contributor>
      </cc:Work>
    </rdf:RDF>
  </metadata>
  <defs
     id="defs22">
    <linearGradient
       inkscape:collect="always"
       xlink:href="#linearGradient6139-0"
       id="linearGradient4071"
       gradientUnits="userSpaceOnUse"
       gradientTransform="matrix(0.06881811,0,0,0.06888986,-0.24858799,26.204586)"
       x1="6"
       y1="47.000011"
       x2="90"
       y2="47.000011" />
    <linearGradient
       id="linearGradient6139-0">
      <stop
         id="stop6141-2"
         offset="0"
         style="stop-color:#b2babc;stop-opacity:1" />
      <stop
         style="stop-color:#ffffff;stop-opacity:1;"
         offset="0.25"
         id="stop6151-0" />
      <stop
         style="stop-color:#96a1a4;stop-opacity:1"
         offset="0.5"
         id="stop6147-1" />
      <stop
         id="stop6149-4"
         offset="0.75"
         style="stop-color:#fbf9f9;stop-opacity:1;" />
      <stop
         id="stop6143-4"
         offset="1"
         style="stop-color:#b2b9bc;stop-opacity:1" />
    </linearGradient>
    <linearGradient
       gradientTransform="matrix(0.0621583,0,0,0.06222311,0.07108317,26.455701)"
       inkscape:collect="always"
       xlink:href="#linearGradient3832-0-6-1-1"
       id="linearGradient4129"
       x1="1.5"
       y1="88.171875"
       x2="94.5"
       y2="88.171875"
       gradientUnits="userSpaceOnUse" />
    <linearGradient
       id="linearGradient3832-0-6-1-1">
      <stop
         style="stop-color:#000000;stop-opacity:1;"
         offset="0"
         id="stop3834-6-3-7-1" />
      <stop
         id="stop3872-2-4"
         offset="0.1"
         style="stop-color:#000000;stop-opacity:0.58823532;" />
      <stop
         style="stop-color:#000000;stop-opacity:0.58823532;"
         offset="0.89999998"
         id="stop3844-6-2-7-6" />
      <stop
         style="stop-color:#000000;stop-opacity:1;"
         offset="1"
         id="stop3836-5-0-2-9" />
    </linearGradient>
    <radialGradient
       inkscape:collect="always"
       xlink:href="#linearGradient3737"
       id="radialGradient7462"
       gradientUnits="userSpaceOnUse"
       gradientTransform="matrix(0.06061265,0,0,0.0030608,2.1781682,31.443922)"
       cx="13.948145"
       cy="44.892841"
       fx="13.948145"
       fy="44.892841"
       r="43.199203" />
    <linearGradient
       id="linearGradient3737">
      <stop
         offset="0"
         style="stop-color:#ffffff;stop-opacity:1"
         id="stop3739" />
      <stop
         offset="1"
         style="stop-color:#ffffff;stop-opacity:0"
         id="stop3741" />
    </linearGradient>
    <radialGradient
       inkscape:collect="always"
       xlink:href="#linearGradient3737"
       id="radialGradient7464"
       gradientUnits="userSpaceOnUse"
       gradientTransform="matrix(0.05527444,0,0,0.00305761,28.418497,-5.6757912)"
       cx="13.948145"
       cy="44.892841"
       fx="13.948145"
       fy="44.892841"
       r="43.199203" />
    <linearGradient
       gradientTransform="matrix(1.0041884,0,0,1.0052356,-0.21820995,-0.04755458)"
       inkscape:collect="always"
       xlink:href="#linearGradient3737"
       id="linearGradient4767"
       gradientUnits="userSpaceOnUse"
       x1="2.7713892"
       y1="-28.64156"
       x2="50.527882"
       y2="14.514202" />
    <clipPath
       id="clipPath4156-4-1"
       clipPathUnits="userSpaceOnUse">
      <path
         inkscape:connector-curvature="0"
         id="path4158-0-8"
         d="m 27.046336,-55.695463 -14.21366,13.321486 h 0.06127 l 15.653407,21.770763 10.231384,-10.546177 C 38.561832,-32.30156 27.468089,-54.819245 27.046336,-55.695463 Z M 9.6468554,-39.382809 -5.2407289,-25.32124 15.987863,-7.8059573 26.372412,-18.382966 Z m 31.4906096,12.951445 -9.741259,9.713584 8.944804,12.4580526 7.780753,-7.5550056 z m -49.8397109,4.378822 -13.7541661,12.9822847 26.2830181,13.84571 0.06127,-0.0617 -0.122531,-0.0617 L 13.598503,-5.4007374 -8.7022409,-22.052595 Z m 38.0154159,7.400825 -9.802525,9.7752596 11.579232,9.5594001 7.62759,-7.40083 -8.669108,-11.0087257 z m 20.187073,5.6739697 -7.382526,7.2158 6.187844,8.54179 5.820249,-6.13651996 z m -32.195166,6.32154 -9.5574606,9.49772 13.6622686,7.1849703 7.933918,-7.6783603 z m 23.311629,2.37443004 -7.10683,6.93826996 8.362778,6.9074403 5.360756,-5.6739699 -0.06127,-0.0925 -0.0919,0.12335 -6.463539,-8.20258036 z m -8.730374,8.54178036 -7.505057,7.3391599 10.353916,5.45811 c 1.397496,-1.32103 5.67514,-6.12292 5.850882,-6.32154 z"
         style="opacity:0.6;fill:#ffffff;fill-opacity:1;stroke:none" />
    </clipPath>
    <linearGradient
       id="ButtonShadow-16"
       gradientTransform="scale(1.0058652,0.994169)"
       x1="45.447727"
       y1="92.539597"
       x2="45.447727"
       y2="7.0165396"
       gradientUnits="userSpaceOnUse">
      <stop
         style="stop-color:#000000;stop-opacity:1;"
         offset="0"
         id="stop3750-6" />
      <stop
         style="stop-color:#000000;stop-opacity:0.58823532;"
         offset="1"
         id="stop3752-4" />
    </linearGradient>
    <clipPath
       clipPathUnits="userSpaceOnUse"
       id="clipPath4355-7">
      <rect
         style="fill:#ffffff;fill-opacity:1;fill-rule:nonzero;stroke:none"
         id="rect4357-5"
         width="84"
         height="80"
         x="6"
         y="6"
         rx="6"
         ry="6" />
    </clipPath>
    <clipPath
       clipPathUnits="userSpaceOnUse"
       id="clipPath4355-9">
      <rect
         style="fill:#ffffff;fill-opacity:1;fill-rule:nonzero;stroke:none"
         id="rect4357-1"
         width="84"
         height="80"
         x="6"
         y="6"
         rx="6"
         ry="6" />
    </clipPath>
    <clipPath
       clipPathUnits="userSpaceOnUse"
       id="clipPath4355-1">
      <rect
         style="fill:#ffffff;fill-opacity:1;fill-rule:nonzero;stroke:none"
         id="rect4357-9"
         width="84"
         height="80"
         x="6"
         y="6"
         rx="6"
         ry="6" />
    </clipPath>
    <clipPath
       clipPathUnits="userSpaceOnUse"
       id="clipPath3943-52-0">
      <path
         id="path3945-4-1"
         d="m 69.78125,20.84375 -5,3.4375 c 5.586891,5.537137 9,13.327613 9,21.8125 0,8.434478 -3.37723,16.095981 -8.90625,21.625 l 5,3.4375 C 76.078226,64.5762 80,55.843726 80,46.09375 c 2e-6,-9.796556 -3.962955,-18.660417 -10.21875,-25.25 z M 40,24.0625 28.90625,36.21875 H 21.5 c -0.823281,0 -1.5,0.676717 -1.5,1.5 v 1 14.84375 1 c 0,0.823281 0.684121,1.610161 1.5,1.5 h 7.40625 L 40,68 V 66 26.0625 Z m 20.59375,3.28125 -5,3.4375 L 55.5,30.875 c 3.93815,3.890071 6.40625,9.25018 6.40625,15.21875 0,5.920869 -2.42961,11.148358 -6.3125,15.03125 l 0.09375,0.09375 5.09375,3.4375 c 4.475428,-4.908367 7.25,-11.402005 7.25,-18.5625 0,-7.230696 -2.87904,-13.83107 -7.4375,-18.75 z m -9.25,6.5 -5.21875,3.625 c 2.222384,2.217802 3.71875,5.239596 3.71875,8.625 0,3.336509 -1.458847,6.227712 -3.625,8.4375 l 5.21875,3.625 c 2.822412,-3.236947 4.53125,-7.43414 4.53125,-12.0625 0,-4.672601 -1.754155,-9.001351 -4.625,-12.25 z"
         style="color:#000000;display:inline;overflow:visible;visibility:visible;opacity:0.8;fill:#ff00ff;fill-opacity:1;fill-rule:nonzero;stroke:none;stroke-width:1;marker:none;enable-background:accumulate"
         inkscape:connector-curvature="0" />
    </clipPath>
    <clipPath
       id="clipPath4156-4-1-9"
       clipPathUnits="userSpaceOnUse">
      <path
         inkscape:connector-curvature="0"
         id="path4158-0-8-3"
         d="m 27.046336,-55.695463 -14.21366,13.321486 h 0.06127 l 15.653407,21.770763 10.231384,-10.546177 C 38.561832,-32.30156 27.468089,-54.819245 27.046336,-55.695463 Z M 9.6468554,-39.382809 -5.2407289,-25.32124 15.987863,-7.8059573 26.372412,-18.382966 Z m 31.4906096,12.951445 -9.741259,9.713584 8.944804,12.4580526 7.780753,-7.5550056 z m -49.8397109,4.378822 -13.7541661,12.9822847 26.2830181,13.84571 0.06127,-0.0617 -0.122531,-0.0617 L 13.598503,-5.4007374 -8.7022409,-22.052595 Z m 38.0154159,7.400825 -9.802525,9.7752596 11.579232,9.5594001 7.62759,-7.40083 -8.669108,-11.0087257 z m 20.187073,5.6739697 -7.382526,7.2158 6.187844,8.54179 5.820249,-6.13651996 z m -32.195166,6.32154 -9.5574606,9.49772 13.6622686,7.1849703 7.933918,-7.6783603 z m 23.311629,2.37443004 -7.10683,6.93826996 8.362778,6.9074403 5.360756,-5.6739699 -0.06127,-0.0925 -0.0919,0.12335 -6.463539,-8.20258036 z m -8.730374,8.54178036 -7.505057,7.3391599 10.353916,5.45811 c 1.397496,-1.32103 5.67514,-6.12292 5.850882,-6.32154 z"
         style="opacity:0.6;fill:#ffffff;fill-opacity:1;stroke:none" />
    </clipPath>
    <clipPath
       clipPathUnits="userSpaceOnUse"
       id="clipPath4355-7-6">
      <rect
         style="fill:#ffffff;fill-opacity:1;fill-rule:nonzero;stroke:none"
         id="rect4357-5-2"
         width="84"
         height="80"
         x="6"
         y="6"
         rx="6"
         ry="6" />
    </clipPath>
    <clipPath
       clipPathUnits="userSpaceOnUse"
       id="clipPath4355-9-6">
      <rect
         style="fill:#ffffff;fill-opacity:1;fill-rule:nonzero;stroke:none"
         id="rect4357-1-1"
         width="84"
         height="80"
         x="6"
         y="6"
         rx="6"
         ry="6" />
    </clipPath>
    <clipPath
       clipPathUnits="userSpaceOnUse"
       id="clipPath4355-1-8">
      <rect
         style="fill:#ffffff;fill-opacity:1;fill-rule:nonzero;stroke:none"
         id="rect4357-9-7"
         width="84"
         height="80"
         x="6"
         y="6"
         rx="6"
         ry="6" />
    </clipPath>
    <clipPath
       clipPathUnits="userSpaceOnUse"
       id="clipPath3943-52-0-9">
      <path
         id="path3945-4-1-2"
         d="m 69.78125,20.84375 -5,3.4375 c 5.586891,5.537137 9,13.327613 9,21.8125 0,8.434478 -3.37723,16.095981 -8.90625,21.625 l 5,3.4375 C 76.078226,64.5762 80,55.843726 80,46.09375 c 2e-6,-9.796556 -3.962955,-18.660417 -10.21875,-25.25 z M 40,24.0625 28.90625,36.21875 H 21.5 c -0.823281,0 -1.5,0.676717 -1.5,1.5 v 1 14.84375 1 c 0,0.823281 0.684121,1.610161 1.5,1.5 h 7.40625 L 40,68 V 66 26.0625 Z m 20.59375,3.28125 -5,3.4375 L 55.5,30.875 c 3.93815,3.890071 6.40625,9.25018 6.40625,15.21875 0,5.920869 -2.42961,11.148358 -6.3125,15.03125 l 0.09375,0.09375 5.09375,3.4375 c 4.475428,-4.908367 7.25,-11.402005 7.25,-18.5625 0,-7.230696 -2.87904,-13.83107 -7.4375,-18.75 z m -9.25,6.5 -5.21875,3.625 c 2.222384,2.217802 3.71875,5.239596 3.71875,8.625 0,3.336509 -1.458847,6.227712 -3.625,8.4375 l 5.21875,3.625 c 2.822412,-3.236947 4.53125,-7.43414 4.53125,-12.0625 0,-4.672601 -1.754155,-9.001351 -4.625,-12.25 z"
         style="color:#000000;display:inline;overflow:visible;visibility:visible;opacity:0.8;fill:#ff00ff;fill-opacity:1;fill-rule:nonzero;stroke:none;stroke-width:1;marker:none;enable-background:accumulate"
         inkscape:connector-curvature="0" />
    </clipPath>
  </defs>
  <sodipodi:namedview
     pagecolor="#ffffff"
     bordercolor="#666666"
     borderopacity="1"
     objecttolerance="10"
     gridtolerance="10"
     guidetolerance="10"
     inkscape:pageopacity="0"
     inkscape:pageshadow="2"
     inkscape:window-width="640"
     inkscape:window-height="480"
     id="namedview20"
     showgrid="false"
     inkscape:zoom="7.96875"
     inkscape:cx="39.403922"
     inkscape:cy="48"
     inkscape:current-layer="g30" />
  <g
     transform="matrix(12.053399,0,0,12.053399,-0.85679468,-318.88108)"
     id="g16">
    <path
       style="display:inline;opacity:0.15;fill:#000000;fill-opacity:1;fill-rule:nonzero;stroke:none;stroke-width:0.06219068"
       d="M 5.6044954,26.471255 H 0.51108921 c -0.23514501,0 -0.42445002,0.189305 -0.42445002,0.42445 v 5.093406 c 0,0.235146 0.18930501,0.424451 0.42445002,0.424451 H 5.6044954 c 0.2351456,0 0.4244507,-0.189305 0.4244507,-0.424451 v -5.093406 c 0,-0.235145 -0.1893051,-0.42445 -0.4244507,-0.42445 z"
       id="path3288"
       inkscape:connector-curvature="0" />
    <path
       inkscape:connector-curvature="0"
       id="path4085"
       d="M 5.5647032,26.517679 H 0.55088136 c -0.23147092,0 -0.41781801,0.186347 -0.41781801,0.417818 v 5.013822 c 0,0.231471 0.18634709,0.417818 0.41781801,0.417818 H 5.5647032 c 0.2314715,0 0.4178186,-0.186347 0.4178186,-0.417818 v -5.013822 c 0,-0.231471 -0.1863471,-0.417818 -0.4178186,-0.417818 z"
       style="display:inline;opacity:0.15;fill:#000000;fill-opacity:1;fill-rule:nonzero;stroke:none;stroke-width:0.06219068" />
    <path
       style="display:inline;fill:url(#linearGradient4071);fill-opacity:1;fill-rule:nonzero;stroke:none;stroke-width:0.06219068"
       d="M 5.5249106,26.564103 H 0.59067403 c -0.22779729,0 -0.41118638,0.183389 -0.41118638,0.411187 v 4.934237 c 0,0.227797 0.18338909,0.411186 0.41118638,0.411186 H 5.5249106 c 0.2277975,0 0.4111864,-0.183389 0.4111864,-0.411186 V 26.97529 c 0,-0.227798 -0.1833889,-0.411187 -0.4111864,-0.411187 z"
       id="rect4251-1"
       inkscape:connector-curvature="0" />
    <rect
       ry="0.18654732"
       rx="0.14727846"
       y="26.861349"
       x="0.44074008"
       height="4.7925143"
       width="5.2614617"
       id="rect862"
       style="opacity:1;fill:#93d6b7;fill-opacity:1;stroke:none;stroke-width:0.04425506;stroke-miterlimit:4;stroke-dasharray:none;stroke-opacity:1" />
    <g
       transform="matrix(0.72491395,0,0,0.72491395,-8.5369262,25.388033)"
       id="g30">
      <path
         inkscape:connector-curvature="0"
         id="path4"
         style="opacity:0.2;stroke-width:0.25901285"
         d="M 19.62618,3.5540771 V 2.6216308 c 0,-0.2008903 -0.161624,-0.362618 -0.362618,-0.362618 h -6.527124 c -0.20089,0 -0.362618,0.1617277 -0.362618,0.362618 v 0.9324463 z" />
      <path
         inkscape:connector-curvature="0"
         id="path6"
         style="opacity:0.2;fill-rule:evenodd;stroke-width:0.25901285"
         d="m 16.3621,6.6150909 c 0,0.2479116 0.0068,0.4541013 -0.121441,0.6737442 -0.103175,0.1784521 -0.267172,0.288359 -0.450009,0.288359 -0.249683,0 -0.394632,-0.1855257 -0.394632,-0.4597219 0,-0.5411555 0.49645,-0.6396322 0.966274,-0.6396322 v 0.1374659 m 0.655794,1.5471355 c -0.04255,0.037541 -0.104732,0.040442 -0.153307,0.015598 -0.215758,-0.1748337 -0.254609,-0.2564227 -0.373755,-0.423486 -0.356661,0.3556246 -0.608681,0.4618199 -1.071796,0.4618199 -0.547035,0 -0.97337,-0.3294644 -0.97337,-0.9889111 0,-0.515047 0.286209,-0.8663202 0.692885,-1.0378904 0.352284,-0.1516131 0.845626,-0.178452 1.222774,-0.2203448 V 5.887073 c 0,-0.1508879 0.01224,-0.3293348 -0.07811,-0.4597219 -0.07967,-0.1169728 -0.231418,-0.1650326 -0.365105,-0.1650326 -0.248129,0 -0.469046,0.1240464 -0.522869,0.3812151 -0.01146,0.057309 -0.05382,0.1133466 -0.113085,0.1162476 L 14.651393,5.693733 c -0.05284,-0.011915 -0.111376,-0.053875 -0.09713,-0.1331326 0.145824,-0.74518 0.836611,-0.9705211 1.454357,-0.9705211 0.316514,0 0.730209,0.082154 0.979302,0.3159179 0.316513,0.288359 0.286209,0.673019 0.286209,1.0917651 v 0.9889369 c 0,0.2976058 0.125911,0.4278115 0.245215,0.5886844 0.04178,0.056765 0.05091,0.1260409 -0.0016,0.1686588 -0.132905,0.1091739 -0.368783,0.3088469 -0.4986,0.4214657 l -0.0024,-0.00218" />
      <path
         inkscape:connector-curvature="0"
         id="path8"
         style="fill:#ffffff;fill-rule:evenodd;stroke-width:0.25901285"
         d="m 16.3621,6.3560781 c 0,0.2479115 0.0068,0.4541013 -0.121441,0.6737442 -0.103175,0.1784521 -0.267172,0.288359 -0.450009,0.288359 -0.249683,0 -0.394632,-0.1855257 -0.394632,-0.4597219 0,-0.5411556 0.49645,-0.6396323 0.966274,-0.6396323 V 6.356293 m 0.655794,1.5471356 c -0.04255,0.037541 -0.104732,0.040442 -0.153307,0.015598 -0.215758,-0.1748336 -0.254609,-0.2564227 -0.373755,-0.423486 -0.356661,0.3556247 -0.608681,0.4618199 -1.071796,0.4618199 -0.547035,0 -0.97337,-0.3294643 -0.97337,-0.988911 0,-0.5150471 0.286209,-0.8663203 0.692885,-1.0378904 0.352284,-0.1516132 0.845626,-0.1784521 1.222774,-0.2203448 v -0.082154 c 0,-0.1508879 0.01224,-0.3293348 -0.07811,-0.4597219 -0.07967,-0.1169728 -0.231418,-0.1650326 -0.365105,-0.1650326 -0.248129,0 -0.469046,0.1240464 -0.522869,0.3812151 -0.01146,0.057309 -0.05382,0.1133466 -0.113085,0.1162475 l -0.630955,-0.066048 c -0.05284,-0.011914 -0.111376,-0.053875 -0.09713,-0.1331326 0.145824,-0.7451022 0.836611,-0.9705211 1.454357,-0.9705211 0.316514,0 0.730209,0.082154 0.979302,0.315918 0.316513,0.288359 0.286209,0.673019 0.286209,1.091765 v 0.988937 c 0,0.2976057 0.125911,0.4278115 0.245215,0.5886844 0.04178,0.056765 0.05091,0.1260408 -0.0016,0.1686588 -0.132905,0.1091739 -0.368783,0.3088469 -0.4986,0.4214657 l -0.0024,-0.00218" />
      <path
         inkscape:connector-curvature="0"
         id="path10"
         style="fill:#2fae74;stroke-width:0.25901285;fill-opacity:1"
         d="M 19.62618,3.2950642 V 2.362618 C 19.62618,2.1617276 19.464556,2 19.263562,2 H 12.736438 C 12.535548,2 12.37382,2.1617276 12.37382,2.362618 v 0.9324462 z" />
    </g>
    <path
       inkscape:connector-curvature="0"
       id="path4989"
       d="m 0.694802,26.764004 c -0.19291583,0 -0.35084153,0.157193 -0.35084153,0.349482 v 4.288241 c 0,0.192289 0.1579257,0.349482 0.35084153,0.349482 h 4.7533369 c 0.192916,0 0.3508418,-0.157193 0.3508418,-0.349482 v -4.288241 c 0,-0.192289 -0.1579258,-0.349482 -0.3508418,-0.349482 z m 0,0.143571 h 4.7533369 c 0.1168715,0 0.207487,0.09162 0.207487,0.205911 v 4.288241 c 0,0.114295 -0.090616,0.205911 -0.207487,0.205911 H 0.694802 c -0.11687151,0 -0.20748692,-0.09162 -0.20748692,-0.205911 v -4.288241 c 0,-0.114295 0.0906154,-0.205911 0.20748692,-0.205911 z"
       style="color:#000000;font-style:normal;font-variant:normal;font-weight:normal;font-stretch:normal;font-size:medium;line-height:normal;font-family:Sans;-inkscape-font-specification:Sans;text-indent:0;text-align:start;text-decoration:none;text-decoration-line:none;letter-spacing:normal;word-spacing:normal;text-transform:none;writing-mode:lr-tb;direction:ltr;baseline-shift:baseline;text-anchor:start;display:inline;overflow:visible;visibility:visible;fill:#202223;fill-opacity:0.93689324;stroke:none;stroke-width:0.147734;marker:none;enable-background:accumulate" />
    <path
       inkscape:connector-curvature="0"
       style="display:inline;opacity:0.65818182;fill:url(#linearGradient4129);fill-opacity:1;fill-rule:nonzero;stroke:none;stroke-width:0.06219068"
       d="m 0.17948759,31.537304 v 0.371394 c 0,0.227797 0.1842181,0.412015 0.41201538,0.412015 H 5.5240818 c 0.2277975,0 0.4120158,-0.184218 0.4120158,-0.412015 v -0.371394 c 0,0.227797 -0.1842183,0.412015 -0.4120158,0.412015 H 0.59150297 c -0.22779728,0 -0.41201538,-0.184218 -0.41201538,-0.412015 z"
       id="path4118" />
    <rect
       style="opacity:0.55;fill:url(#radialGradient7462);fill-opacity:1;stroke:none;stroke-width:0.06219068"
       id="rect4131"
       width="5.2149935"
       height="0.26307091"
       x="0.41934633"
       y="31.438652"
       rx="0.26444823"
       ry="0.26444823" />
    <rect
       ry="0.26417276"
       rx="0.26417276"
       y="-5.6628122"
       x="26.815413"
       height="0.26307091"
       width="4.7507505"
       id="rect4141"
       style="opacity:0.669;fill:url(#radialGradient7464);fill-opacity:1;stroke:none;stroke-width:0.06219068"
       transform="rotate(90)" />
    <rect
       transform="matrix(0.06618523,0,0,0.06485057,0.35250941,28.853067)"
       style="opacity:0.65;fill:url(#linearGradient4767);fill-opacity:1;stroke:none;stroke-width:1.00471163"
       id="rect4146"
       width="75.965775"
       height="69.024437"
       x="2"
       y="-30"
       rx="3.973561"
       ry="3.9777055"
       clip-path="url(#clipPath4156-4-1)" />
  </g>
</svg>
