<?xml version="1.0" encoding="UTF-8" standalone="no"?>
<svg
   xmlns:dc="http://purl.org/dc/elements/1.1/"
   xmlns:cc="http://creativecommons.org/ns#"
   xmlns:rdf="http://www.w3.org/1999/02/22-rdf-syntax-ns#"
   xmlns:svg="http://www.w3.org/2000/svg"
   xmlns="http://www.w3.org/2000/svg"
   xmlns:xlink="http://www.w3.org/1999/xlink"
   xmlns:sodipodi="http://sodipodi.sourceforge.net/DTD/sodipodi-0.dtd"
   xmlns:inkscape="http://www.inkscape.org/namespaces/inkscape"
   width="96"
   height="96"
   version="1.1"
   viewBox="0 0 72 72"
   id="svg26"
   sodipodi:docname="bluetooth-disabled.svg"
   inkscape:version="0.92.2 2405546, 2018-03-11">
  <metadata
     id="metadata30">
    <rdf:RDF>
      <cc:Work
         rdf:about="">
        <dc:format>image/svg+xml</dc:format>
        <dc:type
           rdf:resource="http://purl.org/dc/dcmitype/StillImage" />
        <dc:title></dc:title>
        <dc:date>2019</dc:date>
        <dc:creator>
          <cc:Agent>
            <dc:title>Cristian Pozzessere  &lt; ilnanny &gt;</dc:title>
          </cc:Agent>
        </dc:creator>
        <dc:subject>
          <rdf:Bag>
            <rdf:li>ilnanny</rdf:li>
            <rdf:li>lila_hd</rdf:li>
            <rdf:li>lila-hd</rdf:li>
            <rdf:li>lila hd icon theme</rdf:li>
            <rdf:li>Lila-HD-Icon-Theme lila hd icon lila icon</rdf:li>
          </rdf:Bag>
        </dc:subject>
        <dc:description>Playing with Inkscape on Gnu/Linux O. S.</dc:description>
        <dc:contributor>
          <cc:Agent>
            <dc:title>In the night, alone like a dog.</dc:title>
          </cc:Agent>
        </dc:contributor>
      </cc:Work>
    </rdf:RDF>
  </metadata>
  <sodipodi:namedview
     pagecolor="#ffffff"
     bordercolor="#666666"
     borderopacity="1"
     objecttolerance="10"
     gridtolerance="10"
     guidetolerance="10"
     inkscape:pageopacity="0"
     inkscape:pageshadow="2"
     inkscape:window-width="640"
     inkscape:window-height="480"
     id="namedview28"
     showgrid="false"
     inkscape:zoom="7.96875"
     inkscape:cx="48"
     inkscape:cy="48"
     inkscape:current-layer="svg26" />
  <defs
     id="defs14">
    <clipPath
       id="clipPath4">
      <rect
         width="384"
         height="384"
         id="rect2"
         x="0"
         y="0" />
    </clipPath>
    <clipPath
       id="clipPath8">
      <rect
         width="384"
         height="384"
         id="rect6"
         x="0"
         y="0" />
    </clipPath>
    <clipPath
       id="clipPath12">
      <rect
         width="384"
         height="384"
         id="rect10"
         x="0"
         y="0" />
    </clipPath>
    <linearGradient
       inkscape:collect="always"
       xlink:href="#linearGradient6139-0"
       id="linearGradient4071"
       gradientUnits="userSpaceOnUse"
       gradientTransform="matrix(0.8303571,0,0,0.83035695,-3.8571443,-3.0267803)"
       x1="6"
       y1="47.000011"
       x2="90"
       y2="47.000011" />
    <linearGradient
       id="linearGradient6139-0">
      <stop
         id="stop6141-2"
         offset="0"
         style="stop-color:#b0b8be;stop-opacity:1" />
      <stop
         style="stop-color:#ffffff;stop-opacity:1;"
         offset="0.25"
         id="stop6151-0" />
      <stop
         style="stop-color:#94a0a6;stop-opacity:1"
         offset="0.5"
         id="stop6147-1" />
      <stop
         id="stop6149-4"
         offset="0.75"
         style="stop-color:#fbf9f9;stop-opacity:1;" />
      <stop
         id="stop6143-4"
         offset="1"
         style="stop-color:#b1b8bd;stop-opacity:1" />
    </linearGradient>
    <radialGradient
       r="23"
       gradientTransform="matrix(1.3301,-7.4935e-8,9.5652e-8,1.6979,-15.846,-37.549)"
       cx="48"
       cy="66.449997"
       gradientUnits="userSpaceOnUse"
       id="d-4">
      <stop
         style="stop-color:#87eafc;stop-opacity:1"
         id="stop31-8"
         offset="0"
         stop-color="#2782e9" />
      <stop
         style="stop-color:#009be3;stop-opacity:1"
         id="stop33-0"
         offset="1"
         stop-color="#193693" />
    </radialGradient>
    <linearGradient
       gradientTransform="matrix(0.75,0,0,0.75,-2.215e-6,4.5e-6)"
       inkscape:collect="always"
       xlink:href="#linearGradient3832-0-6-1-1"
       id="linearGradient4129"
       x1="1.5"
       y1="88.171875"
       x2="94.5"
       y2="88.171875"
       gradientUnits="userSpaceOnUse" />
    <linearGradient
       id="linearGradient3832-0-6-1-1">
      <stop
         style="stop-color:#000000;stop-opacity:1;"
         offset="0"
         id="stop3834-6-3-7-1" />
      <stop
         id="stop3872-2-4"
         offset="0.1"
         style="stop-color:#000000;stop-opacity:0.58823532;" />
      <stop
         style="stop-color:#000000;stop-opacity:0.58823532;"
         offset="0.89999998"
         id="stop3844-6-2-7-6" />
      <stop
         style="stop-color:#000000;stop-opacity:1;"
         offset="1"
         id="stop3836-5-0-2-9" />
    </linearGradient>
    <radialGradient
       inkscape:collect="always"
       xlink:href="#linearGradient3737"
       id="radialGradient7462"
       gradientUnits="userSpaceOnUse"
       gradientTransform="matrix(0.73135033,0,0,0.05378411,25.424019,58.637057)"
       cx="13.948145"
       cy="44.892841"
       fx="13.948145"
       fy="44.892841"
       r="43.199203" />
    <linearGradient
       id="linearGradient3737">
      <stop
         offset="0"
         style="stop-color:#ffffff;stop-opacity:1"
         id="stop3739" />
      <stop
         offset="1"
         style="stop-color:#ffffff;stop-opacity:0"
         id="stop3741" />
    </linearGradient>
    <radialGradient
       inkscape:collect="always"
       xlink:href="#linearGradient3737"
       id="radialGradient7464"
       gradientUnits="userSpaceOnUse"
       gradientTransform="matrix(0.66624497,0,0,0.05800688,23.658373,-67.661981)"
       cx="13.948145"
       cy="44.892841"
       fx="13.948145"
       fy="44.892841"
       r="43.199203" />
    <linearGradient
       inkscape:collect="always"
       xlink:href="#linearGradient3737"
       id="linearGradient4767"
       gradientUnits="userSpaceOnUse"
       x1="2.7713892"
       y1="-28.64156"
       x2="50.527882"
       y2="14.514202" />
    <clipPath
       id="clipPath4156-4-1"
       clipPathUnits="userSpaceOnUse">
      <path
         inkscape:connector-curvature="0"
         id="path4158-0-8"
         d="m 27.046336,-55.695463 -14.21366,13.321486 h 0.06127 l 15.653407,21.770763 10.231384,-10.546177 C 38.561832,-32.30156 27.468089,-54.819245 27.046336,-55.695463 Z M 9.6468554,-39.382809 -5.2407289,-25.32124 15.987863,-7.8059573 26.372412,-18.382966 Z m 31.4906096,12.951445 -9.741259,9.713584 8.944804,12.4580526 7.780753,-7.5550056 z m -49.8397109,4.378822 -13.7541661,12.9822847 26.2830181,13.84571 0.06127,-0.0617 -0.122531,-0.0617 L 13.598503,-5.4007374 -8.7022409,-22.052595 Z m 38.0154159,7.400825 -9.802525,9.7752596 11.579232,9.5594001 7.62759,-7.40083 -8.669108,-11.0087257 z m 20.187073,5.6739697 -7.382526,7.2158 6.187844,8.54179 5.820249,-6.13651996 z m -32.195166,6.32154 -9.5574606,9.49772 13.6622686,7.1849703 7.933918,-7.6783603 z m 23.311629,2.37443004 -7.10683,6.93826996 8.362778,6.9074403 5.360756,-5.6739699 -0.06127,-0.0925 -0.0919,0.12335 -6.463539,-8.20258036 z m -8.730374,8.54178036 -7.505057,7.3391599 10.353916,5.45811 c 1.397496,-1.32103 5.67514,-6.12292 5.850882,-6.32154 z"
         style="opacity:0.6;fill:#ffffff;fill-opacity:1;stroke:none" />
    </clipPath>
    <radialGradient
       r="43.199203"
       fy="44.892841"
       fx="13.948145"
       cy="44.892841"
       cx="13.948145"
       gradientTransform="matrix(0.66624497,0,0,0.05800688,24.774751,-9.9352167)"
       gradientUnits="userSpaceOnUse"
       id="radialGradient916"
       xlink:href="#linearGradient3737"
       inkscape:collect="always" />
  </defs>
  <path
     inkscape:connector-curvature="0"
     id="path3288"
     d="M 66.85714,4.5e-6 H 5.142851 C 2.293715,4.5e-6 -4.15e-7,2.2937183 -4.15e-7,5.1428594 V 66.857148 c 0,2.849143 2.293715415,5.142856 5.142851415,5.142856 H 66.85714 C 69.706283,72.000004 72,69.706291 72,66.857148 V 5.1428594 C 72,2.2937183 69.706283,4.5e-6 66.85714,4.5e-6 Z"
     style="display:inline;opacity:0.15;fill:#000000;fill-opacity:1;fill-rule:nonzero;stroke:none;stroke-width:0.75" />
  <path
     style="display:inline;opacity:0.15;fill:#000000;fill-opacity:1;fill-rule:nonzero;stroke:none;stroke-width:0.75"
     d="M 66.374998,0.5625045 H 5.624993 c -2.804619,0 -5.06249476,2.2578742 -5.06249476,5.0624977 V 66.375004 c 0,2.804626 2.25787576,5.0625 5.06249476,5.0625 h 60.750005 c 2.804627,0 5.062502,-2.257874 5.062502,-5.0625 V 5.6250022 c 0,-2.8046234 -2.257875,-5.0624977 -5.062502,-5.0624977 z"
     id="path4085"
     inkscape:connector-curvature="0" />
  <path
     inkscape:connector-curvature="0"
     id="rect4251-1"
     d="M 65.892852,1.1250045 H 6.107141 c -2.7601073,0 -4.9821425,2.2220348 -4.9821425,4.9821412 V 65.892863 c 0,2.760107 2.2220352,4.982142 4.9821425,4.982142 h 59.785711 c 2.760108,0 4.982141,-2.222035 4.982141,-4.982142 V 6.1071457 c 0,-2.7601064 -2.222033,-4.9821412 -4.982141,-4.9821412 z"
     style="display:inline;fill:url(#linearGradient4071);fill-opacity:1;fill-rule:nonzero;stroke:none;stroke-width:0.75" />
  <path
     sodipodi:nodetypes="sscccsccscccsss"
     inkscape:connector-curvature="0"
     id="path3400-6"
     d="m 8.4600042,5.015235 c -2.1585588,0 -3.8721324,1.7252469 -3.8721324,3.898506 v 16.154432 5.457909 30.091592 c 0.8291475,1.26996 2.2434594,2.119811 3.8721324,2.119811 h 3.0977058 49.5633 3.097705 c 1.628674,0 3.042986,-0.849851 3.872133,-2.119811 V 30.526082 25.068173 8.913741 c 0,-2.1732591 -1.713574,-3.898506 -3.872133,-3.898506 z"
     style="display:inline;opacity:1;fill:#6a7581;fill-opacity:1;fill-rule:nonzero;stroke:none;stroke-width:0.77414042" />
  <ellipse
     ry="29.333332"
     rx="19.904762"
     cy="33.720463"
     cx="36"
     id="path860"
     style="opacity:1;fill:#e9f4fe;fill-opacity:0.39344267;stroke:#fafafa;stroke-width:1.5;stroke-miterlimit:4;stroke-dasharray:none;stroke-opacity:0.87999998" />
  <path
     style="color:#000000;font-style:normal;font-variant:normal;font-weight:normal;font-stretch:normal;font-size:medium;line-height:normal;font-family:Sans;-inkscape-font-specification:Sans;text-indent:0;text-align:start;text-decoration:none;text-decoration-line:none;letter-spacing:normal;word-spacing:normal;text-transform:none;writing-mode:lr-tb;direction:ltr;baseline-shift:baseline;text-anchor:start;display:inline;overflow:visible;visibility:visible;fill:#434a51;fill-opacity:0.96825397;stroke:none;stroke-width:1.78162515;marker:none;enable-background:accumulate"
     d="m 7.3688082,3.5471002 c -2.3374657,0 -4.2509737,1.9046325 -4.2509737,4.234503 V 59.7401 c 0,2.329871 1.913508,4.234503 4.2509737,4.234503 H 64.962647 c 2.337466,0 4.250976,-1.904631 4.250976,-4.234503 V 7.7816032 c 0,-2.3298698 -1.91351,-4.234503 -4.250976,-4.234503 z m 0,1.7395792 H 64.962647 c 1.416074,0 2.514016,1.1100713 2.514016,2.4949238 V 59.7401 c 0,1.384856 -1.097942,2.494923 -2.514016,2.494923 H 7.3688082 c -1.4160742,0 -2.5140165,-1.110067 -2.5140165,-2.494923 V 7.7816032 c 0,-1.3848525 1.0979423,-2.4949238 2.5140165,-2.4949238 z"
     id="path4989"
     inkscape:connector-curvature="0" />
  <path
     id="path4118"
     d="m 1.1249978,61.382817 v 4.5 c 0,2.760106 2.2320799,4.992187 4.9921872,4.992187 H 65.88281 c 2.760107,0 4.99219,-2.232081 4.99219,-4.992187 v -4.5 c 0,2.760106 -2.232083,4.992187 -4.99219,4.992187 H 6.117185 c -2.7601073,0 -4.9921872,-2.232081 -4.9921872,-4.992187 z"
     style="display:inline;opacity:0.65818182;fill:url(#linearGradient4129);fill-opacity:1;fill-rule:nonzero;stroke:none;stroke-width:0.75"
     inkscape:connector-curvature="0" />
  <rect
     ry="4.646862"
     rx="4.646862"
     y="59.109097"
     x="4.0312481"
     height="4.2659097"
     width="63.187508"
     id="rect4131"
     style="opacity:0.48600003;fill:url(#radialGradient7462);fill-opacity:1;stroke:none;stroke-width:0.90555757" />
  <rect
     transform="rotate(90)"
     style="opacity:0.53200001;fill:url(#radialGradient7464);fill-opacity:1;stroke:none;stroke-width:0.94043505"
     id="rect4141"
     width="57.5625"
     height="5.011703"
     x="4.1700015"
     y="-67.563751"
     rx="0"
     ry="5.011703" />
  <path
     id="path899"
     d="m 34.604777,14.249835 v 16.2 l -6.84075,-6.84075 -2.4504,2.48445 8.37225,8.372249 -8.4405,8.4405 2.48445,2.4504 6.8748,-6.8748 v 16.268251 l 12.15,-12.150751 -8.23575,-8.2365 8.202,-8.1675 z m 3.16515,7.7595 4.186125,4.254225 -4.186125,4.186125 z m 0,16.16625 4.186125,4.2882 -4.186125,4.186124 z"
     style="opacity:0.24100001;fill:#000000;fill-opacity:1;fill-rule:evenodd;stroke:#000000;stroke-width:3.375;stroke-miterlimit:4;stroke-dasharray:none;stroke-opacity:1"
     inkscape:connector-curvature="0" />
  <path
     inkscape:connector-curvature="0"
     style="fill:#e6f3fc;fill-opacity:1;fill-rule:evenodd;stroke-width:0.75"
     d="m 34.604777,14.249835 v 16.2 l -6.84075,-6.84075 -2.4504,2.48445 8.37225,8.372249 -8.4405,8.4405 2.48445,2.4504 6.8748,-6.8748 v 16.268251 l 12.15,-12.150751 -8.23575,-8.2365 8.202,-8.1675 z m 3.16515,7.7595 4.186125,4.254225 -4.186125,4.186125 z m 0,16.16625 4.186125,4.2882 -4.186125,4.186124 z"
     id="path77" />
  <rect
     clip-path="url(#clipPath4156-4-1)"
     ry="3.9569881"
     rx="3.9569874"
     y="-30"
     x="2"
     height="69.024437"
     width="75.965775"
     id="rect4146"
     style="opacity:0.5078125;fill:url(#linearGradient4767);fill-opacity:1;stroke:none"
     transform="matrix(0.80193383,0,0,0.78576218,3.2214178,28.859245)" />
  <rect
     ry="5.011703"
     rx="0"
     y="-9.8369904"
     x="5.2863793"
     height="5.011703"
     width="57.5625"
     id="rect914"
     style="opacity:0.53200001;fill:url(#radialGradient916);fill-opacity:1;stroke:none;stroke-width:0.94043505"
     transform="rotate(90)" />
</svg>
