<?xml version="1.0" encoding="UTF-8" standalone="no"?>
<!-- Created with Inkscape (http://www.inkscape.org/) -->

<svg
   xmlns:dc="http://purl.org/dc/elements/1.1/"
   xmlns:cc="http://creativecommons.org/ns#"
   xmlns:rdf="http://www.w3.org/1999/02/22-rdf-syntax-ns#"
   xmlns:svg="http://www.w3.org/2000/svg"
   xmlns="http://www.w3.org/2000/svg"
   xmlns:xlink="http://www.w3.org/1999/xlink"
   xmlns:sodipodi="http://sodipodi.sourceforge.net/DTD/sodipodi-0.dtd"
   xmlns:inkscape="http://www.inkscape.org/namespaces/inkscape"
   width="96"
   height="96"
   id="svg2"
   version="1.1"
   inkscape:version="0.92.2 5c3e80d, 2017-08-06"
   sodipodi:docname="bombono-dvd.svg">
  <script
     xlink:href=""
     id="script2985" />
  <defs
     id="defs4">
    <linearGradient
       inkscape:collect="always"
       id="linearGradient1420">
      <stop
         style="stop-color:#c6c6c6;stop-opacity:1"
         offset="0"
         id="stop1416" />
      <stop
         id="stop1428"
         offset="0.33141786"
         style="stop-color:#ccc3cb;stop-opacity:0.97647059" />
      <stop
         id="stop1426"
         offset="0.46669048"
         style="stop-color:#f69bec;stop-opacity:0.96862745" />
      <stop
         style="stop-color:#9befff;stop-opacity:0.93913043"
         offset="1"
         id="stop1418" />
    </linearGradient>
    <linearGradient
       id="linearGradient1414">
      <stop
         id="stop1398"
         style="stop-color:#ffccf8;stop-opacity:0.89565217"
         offset="0" />
      <stop
         id="stop1400"
         style="stop-color:#faf5ff;stop-opacity:0.89999998"
         offset="0.22222222" />
      <stop
         id="stop1402"
         style="stop-color:#e2ffe2;stop-opacity:1"
         offset="0.37777779" />
      <stop
         id="stop1404"
         style="stop-color:#fbf5ff;stop-opacity:1"
         offset="0.46666667" />
      <stop
         id="stop1406"
         style="stop-color:#f5f5ff;stop-opacity:1"
         offset="0.53333336" />
      <stop
         id="stop1408"
         style="stop-color:#c6ffc3;stop-opacity:1"
         offset="0.62222224" />
      <stop
         id="stop1410"
         style="stop-color:#f5fff5;stop-opacity:0.5"
         offset="0.77777779" />
      <stop
         id="stop1412"
         style="stop-color:#fff6f5;stop-opacity:0"
         offset="1" />
    </linearGradient>
    <linearGradient
       id="linearGradient1378">
      <stop
         id="stop1362"
         style="stop-color:#f5fcff;stop-opacity:0.78695655"
         offset="0" />
      <stop
         id="stop1364"
         style="stop-color:#e0f9ff;stop-opacity:0.95217389"
         offset="0.22222222" />
      <stop
         id="stop1366"
         style="stop-color:#f5fff5;stop-opacity:1"
         offset="0.37777779" />
      <stop
         id="stop1368"
         style="stop-color:#fbf5ff;stop-opacity:1"
         offset="0.46666667" />
      <stop
         id="stop1370"
         style="stop-color:#f5f5ff;stop-opacity:1"
         offset="0.53333336" />
      <stop
         id="stop1372"
         style="stop-color:#f5ffff;stop-opacity:1"
         offset="0.62222224" />
      <stop
         id="stop1374"
         style="stop-color:#f5fff5;stop-opacity:0.5"
         offset="0.77777779" />
      <stop
         id="stop1376"
         style="stop-color:#fff6f5;stop-opacity:0"
         offset="1" />
    </linearGradient>
    <linearGradient
       id="linearGradient1360">
      <stop
         id="stop1344"
         style="stop-color:#dfd0ff;stop-opacity:1"
         offset="0" />
      <stop
         id="stop1346"
         style="stop-color:#ffd9fc;stop-opacity:0.90434784"
         offset="0.22222222" />
      <stop
         id="stop1348"
         style="stop-color:#f5fff5;stop-opacity:1"
         offset="0.37777779" />
      <stop
         id="stop1350"
         style="stop-color:#fbf5ff;stop-opacity:1"
         offset="0.46666667" />
      <stop
         id="stop1352"
         style="stop-color:#f5f5ff;stop-opacity:1"
         offset="0.53333336" />
      <stop
         id="stop1354"
         style="stop-color:#f5ffff;stop-opacity:1"
         offset="0.62222224" />
      <stop
         id="stop1356"
         style="stop-color:#d0f2ff;stop-opacity:0.93043476"
         offset="0.77777779" />
      <stop
         id="stop1358"
         style="stop-color:#d3ebff;stop-opacity:0.82608694"
         offset="1" />
    </linearGradient>
    <linearGradient
       id="linearGradient6139-0">
      <stop
         id="stop6141-2"
         offset="0"
         style="stop-color:#b7b7b7;stop-opacity:1;" />
      <stop
         style="stop-color:#ffffff;stop-opacity:1;"
         offset="0.25"
         id="stop6151-0" />
      <stop
         style="stop-color:#9d9d9d;stop-opacity:1;"
         offset="0.5"
         id="stop6147-1" />
      <stop
         id="stop6149-4"
         offset="0.75"
         style="stop-color:#fafafa;stop-opacity:1;" />
      <stop
         id="stop6143-4"
         offset="1"
         style="stop-color:#b7b7b7;stop-opacity:1;" />
    </linearGradient>
    <linearGradient
       id="linearGradient4091-0-3-0-7">
      <stop
         style="stop-color:#ffffff;stop-opacity:1;"
         offset="0"
         id="stop4093-3-6-4-2" />
      <stop
         id="stop4099-6-1-8-3"
         offset="0.80000001"
         style="stop-color:#ffffff;stop-opacity:1;" />
      <stop
         style="stop-color:#ffffff;stop-opacity:0;"
         offset="1"
         id="stop4095-1-0-7-9" />
    </linearGradient>
    <linearGradient
       id="linearGradient3832-0-6-1-1">
      <stop
         style="stop-color:#000000;stop-opacity:1;"
         offset="0"
         id="stop3834-6-3-7-1" />
      <stop
         id="stop3872-2-4"
         offset="0.1"
         style="stop-color:#000000;stop-opacity:0.58823532;" />
      <stop
         style="stop-color:#000000;stop-opacity:0.58823532;"
         offset="0.89999998"
         id="stop3844-6-2-7-6" />
      <stop
         style="stop-color:#000000;stop-opacity:1;"
         offset="1"
         id="stop3836-5-0-2-9" />
    </linearGradient>
    <linearGradient
       gradientUnits="userSpaceOnUse"
       xlink:href="#linearGradient4148-0"
       id="linearGradient4130-3"
       y2="8"
       x2="53"
       y1="53"
       x1="8"
       gradientTransform="translate(0,-0.09753749)" />
    <linearGradient
       id="linearGradient4148-0">
      <stop
         offset="0"
         style="stop-color:#fff6f5;stop-opacity:0"
         id="stop4150-6" />
      <stop
         offset="0.22222222"
         style="stop-color:#fffcf5;stop-opacity:0.50199997"
         id="stop4152-1" />
      <stop
         offset="0.37777779"
         style="stop-color:#f5fff5;stop-opacity:1"
         id="stop4154-9" />
      <stop
         offset="0.46666667"
         style="stop-color:#fbf5ff;stop-opacity:1"
         id="stop4156-4" />
      <stop
         offset="0.53333336"
         style="stop-color:#f5f5ff;stop-opacity:1"
         id="stop4158-2" />
      <stop
         offset="0.62222224"
         style="stop-color:#f5ffff;stop-opacity:1"
         id="stop4160-6" />
      <stop
         offset="0.77777779"
         style="stop-color:#f5fff5;stop-opacity:0.5"
         id="stop4162-6" />
      <stop
         offset="1"
         style="stop-color:#fff6f5;stop-opacity:0"
         id="stop4164-4" />
    </linearGradient>
    <linearGradient
       id="linearGradient5494">
      <stop
         offset="0"
         style="stop-color:#fff6f5;stop-opacity:0"
         id="stop5496" />
      <stop
         offset="0.22222222"
         style="stop-color:#fffcf5;stop-opacity:0.50199997"
         id="stop5498" />
      <stop
         offset="0.37777779"
         style="stop-color:#f5fff5;stop-opacity:1"
         id="stop5500" />
      <stop
         offset="0.46666667"
         style="stop-color:#fbf5ff;stop-opacity:1"
         id="stop5502" />
      <stop
         offset="0.53333336"
         style="stop-color:#f5f5ff;stop-opacity:1"
         id="stop5504" />
      <stop
         offset="0.62222224"
         style="stop-color:#f5ffff;stop-opacity:1"
         id="stop5506" />
      <stop
         offset="0.77777779"
         style="stop-color:#f5fff5;stop-opacity:0.5"
         id="stop5508" />
      <stop
         offset="1"
         style="stop-color:#fff6f5;stop-opacity:0"
         id="stop5510" />
    </linearGradient>
    <linearGradient
       id="linearGradient5513">
      <stop
         offset="0"
         style="stop-color:#fff6f5;stop-opacity:0"
         id="stop5515" />
      <stop
         offset="0.22222222"
         style="stop-color:#fffcf5;stop-opacity:0.50199997"
         id="stop5517" />
      <stop
         offset="0.37777779"
         style="stop-color:#f5fff5;stop-opacity:1"
         id="stop5519" />
      <stop
         offset="0.46666667"
         style="stop-color:#fbf5ff;stop-opacity:1"
         id="stop5521" />
      <stop
         offset="0.53333336"
         style="stop-color:#f5f5ff;stop-opacity:1"
         id="stop5523" />
      <stop
         offset="0.62222224"
         style="stop-color:#f5ffff;stop-opacity:1"
         id="stop5525" />
      <stop
         offset="0.77777779"
         style="stop-color:#f5fff5;stop-opacity:0.5"
         id="stop5527" />
      <stop
         offset="1"
         style="stop-color:#fff6f5;stop-opacity:0"
         id="stop5529" />
    </linearGradient>
    <linearGradient
       id="linearGradient5532">
      <stop
         offset="0"
         style="stop-color:#fff6f5;stop-opacity:0"
         id="stop5534" />
      <stop
         offset="0.22222222"
         style="stop-color:#fffcf5;stop-opacity:0.50199997"
         id="stop5536" />
      <stop
         offset="0.37777779"
         style="stop-color:#f5fff5;stop-opacity:1"
         id="stop5538" />
      <stop
         offset="0.46666667"
         style="stop-color:#fbf5ff;stop-opacity:1"
         id="stop5540" />
      <stop
         offset="0.53333336"
         style="stop-color:#f5f5ff;stop-opacity:1"
         id="stop5542" />
      <stop
         offset="0.62222224"
         style="stop-color:#f5ffff;stop-opacity:1"
         id="stop5544" />
      <stop
         offset="0.77777779"
         style="stop-color:#f5fff5;stop-opacity:0.5"
         id="stop5546" />
      <stop
         offset="1"
         style="stop-color:#fff6f5;stop-opacity:0"
         id="stop5548" />
    </linearGradient>
    <linearGradient
       id="linearGradient4750-3">
      <stop
         id="stop4752-7"
         style="stop-color:#f9dafb;stop-opacity:1;"
         offset="0" />
      <stop
         offset="0.24293166"
         style="stop-color:#ffffff;stop-opacity:0.29310346;"
         id="stop4754-0" />
      <stop
         offset="0.41777548"
         style="stop-color:#f7c6eb;stop-opacity:0.87450981;"
         id="stop4756-3" />
      <stop
         offset="0.67086792"
         style="stop-color:#fefafe;stop-opacity:0.75294119;"
         id="stop4758-7" />
      <stop
         id="stop4760-4"
         style="stop-color:#9fb8f8;stop-opacity:1"
         offset="1" />
    </linearGradient>
    <linearGradient
       gradientUnits="userSpaceOnUse"
       xlink:href="#linearGradient4202-8"
       id="linearGradient4242-4"
       y2="6"
       x2="90"
       y1="90"
       x1="6" />
    <linearGradient
       id="linearGradient4202-8">
      <stop
         offset="0"
         style="stop-color:#b7ffff;stop-opacity:1"
         id="stop4204-1" />
      <stop
         offset="0.5"
         style="stop-color:#ffffff;stop-opacity:1"
         id="stop4210-2" />
      <stop
         offset="1"
         style="stop-color:#b7ffff;stop-opacity:1"
         id="stop4206-5" />
    </linearGradient>
    <linearGradient
       gradientUnits="userSpaceOnUse"
       xlink:href="#linearGradient4192-7"
       id="linearGradient4250-6"
       y2="6"
       x2="90"
       y1="90"
       x1="6" />
    <linearGradient
       id="linearGradient4192-7">
      <stop
         offset="0"
         style="stop-color:#000000;stop-opacity:1"
         id="stop4194-4" />
      <stop
         offset="0.5"
         style="stop-color:#ffffff;stop-opacity:1"
         id="stop4200-7" />
      <stop
         offset="1"
         style="stop-color:#000000;stop-opacity:1"
         id="stop4196-0" />
    </linearGradient>
    <linearGradient
       gradientUnits="userSpaceOnUse"
       xlink:href="#linearGradient4091-5"
       id="linearGradient4089-4"
       y2="6"
       x2="48"
       y1="88"
       x1="48" />
    <linearGradient
       id="linearGradient4091-5">
      <stop
         offset="0"
         style="stop-color:#000000;stop-opacity:0.50199997"
         id="stop4093-3" />
      <stop
         offset="1"
         style="stop-color:#000000;stop-opacity:0"
         id="stop4095-5" />
    </linearGradient>
    <filter
       id="filter4550-9"
       color-interpolation-filters="sRGB">
      <feGaussianBlur
         stdDeviation="1.167399"
         id="feGaussianBlur4552-8" />
    </filter>
    <linearGradient
       gradientUnits="userSpaceOnUse"
       xlink:href="#linearGradient4478-7"
       id="linearGradient4438-1"
       y2="16.450487"
       x2="82.832512"
       y1="50.416866"
       x1="42.17387" />
    <linearGradient
       id="linearGradient4478-7">
      <stop
         offset="0"
         style="stop-color:#e82014;stop-opacity:1"
         id="stop4480-2" />
      <stop
         offset="1"
         style="stop-color:#e0c71c;stop-opacity:1"
         id="stop4482-7" />
    </linearGradient>
    <linearGradient
       gradientUnits="userSpaceOnUse"
       xlink:href="#linearGradient4488-9"
       id="linearGradient4440-6"
       y2="11.070712"
       x2="77.902939"
       y1="52.234428"
       x1="33.051216" />
    <linearGradient
       id="linearGradient4488-9">
      <stop
         offset="0"
         style="stop-color:#e89b14;stop-opacity:0.50199997"
         id="stop4490-1" />
      <stop
         offset="1"
         style="stop-color:#e0441c;stop-opacity:0.50199997"
         id="stop4492-1" />
    </linearGradient>
    <linearGradient
       gradientUnits="userSpaceOnUse"
       xlink:href="#linearGradient4516-2"
       id="linearGradient4442-6"
       y2="14.829379"
       x2="82.201164"
       y1="48.043663"
       x1="30.627434" />
    <linearGradient
       id="linearGradient4516-2">
      <stop
         offset="0"
         style="stop-color:#ffffff;stop-opacity:0.30199999"
         id="stop4518-4" />
      <stop
         offset="1"
         style="stop-color:#ffffff;stop-opacity:0.50199997"
         id="stop4520-5" />
    </linearGradient>
    <filter
       id="filter4931-8"
       color-interpolation-filters="sRGB"
       height="1.2807308"
       width="1.0763094"
       y="-0.14036538"
       x="-0.038154732">
      <feGaussianBlur
         stdDeviation="0.95039063"
         id="feGaussianBlur4933-2" />
    </filter>
    <linearGradient
       gradientUnits="userSpaceOnUse"
       xlink:href="#linearGradient4947-3"
       id="linearGradient4953-0"
       y2="70.522949"
       x2="49.166183"
       y1="82.516083"
       x1="49.166183" />
    <linearGradient
       id="linearGradient4947-3">
      <stop
         offset="0"
         style="stop-color:#000000;stop-opacity:0.69800001"
         id="stop4949-1" />
      <stop
         offset="1"
         style="stop-color:#f20000;stop-opacity:0"
         id="stop4951-1" />
    </linearGradient>
    <linearGradient
       gradientUnits="userSpaceOnUse"
       xlink:href="#linearGradient4967-8"
       id="linearGradient4965-7"
       y2="76.070984"
       x2="47.425442"
       y1="66.305214"
       x1="47.425442" />
    <linearGradient
       id="linearGradient4967-8">
      <stop
         offset="0"
         style="stop-color:#ffffff;stop-opacity:0.69800001"
         id="stop4969-9" />
      <stop
         offset="1"
         style="stop-color:#f20000;stop-opacity:0"
         id="stop4971-4" />
    </linearGradient>
    <linearGradient
       inkscape:collect="always"
       xlink:href="#linearGradient4478-7"
       id="linearGradient3394"
       gradientUnits="userSpaceOnUse"
       x1="42.17387"
       y1="50.416866"
       x2="82.832512"
       y2="16.450487" />
    <linearGradient
       inkscape:collect="always"
       xlink:href="#linearGradient4192-7"
       id="linearGradient3396"
       gradientUnits="userSpaceOnUse"
       x1="33.051216"
       y1="52.234428"
       x2="77.902939"
       y2="11.070712" />
    <linearGradient
       inkscape:collect="always"
       xlink:href="#linearGradient4516-2"
       id="linearGradient3398"
       gradientUnits="userSpaceOnUse"
       x1="30.627434"
       y1="48.043663"
       x2="82.201164"
       y2="14.829379" />
    <linearGradient
       inkscape:collect="always"
       xlink:href="#linearGradient6139-0-3"
       id="linearGradient4071"
       gradientUnits="userSpaceOnUse"
       gradientTransform="matrix(1.1071428,0,0,1.1071426,-29.035651,-27.596287)"
       x1="6"
       y1="47.000011"
       x2="90"
       y2="47.000011" />
    <linearGradient
       id="linearGradient6139-0-3">
      <stop
         id="stop6141-2-6"
         offset="0"
         style="stop-color:#b2babc;stop-opacity:1" />
      <stop
         style="stop-color:#ffffff;stop-opacity:1;"
         offset="0.25"
         id="stop6151-0-7" />
      <stop
         style="stop-color:#96a1a4;stop-opacity:1"
         offset="0.5"
         id="stop6147-1-5" />
      <stop
         id="stop6149-4-3"
         offset="0.75"
         style="stop-color:#fbf9f9;stop-opacity:1;" />
      <stop
         id="stop6143-4-5"
         offset="1"
         style="stop-color:#b2b9bc;stop-opacity:1" />
    </linearGradient>
    <linearGradient
       gradientTransform="translate(-23.892794,-23.560574)"
       inkscape:collect="always"
       xlink:href="#linearGradient3832-0-6-1-1"
       id="linearGradient4129"
       x1="1.5"
       y1="88.171875"
       x2="94.5"
       y2="88.171875"
       gradientUnits="userSpaceOnUse" />
    <radialGradient
       inkscape:collect="always"
       xlink:href="#linearGradient3737"
       id="radialGradient7462"
       gradientUnits="userSpaceOnUse"
       gradientTransform="matrix(0.97513378,0,0,0.04919072,10.005901,56.606122)"
       cx="13.948145"
       cy="44.892841"
       fx="13.948145"
       fy="44.892841"
       r="43.199203" />
    <linearGradient
       id="linearGradient3737">
      <stop
         offset="0"
         style="stop-color:#ffffff;stop-opacity:1"
         id="stop3739" />
      <stop
         offset="1"
         style="stop-color:#ffffff;stop-opacity:0"
         id="stop3741" />
    </linearGradient>
    <radialGradient
       inkscape:collect="always"
       xlink:href="#linearGradient3737"
       id="radialGradient7464"
       gradientUnits="userSpaceOnUse"
       gradientTransform="matrix(0.88832663,0,0,0.04919072,7.983918,-66.275512)"
       cx="13.948145"
       cy="44.892841"
       fx="13.948145"
       fy="44.892841"
       r="43.199203" />
    <linearGradient
       inkscape:collect="always"
       xlink:href="#linearGradient3737"
       id="linearGradient4767"
       gradientUnits="userSpaceOnUse"
       x1="2.7713892"
       y1="-28.64156"
       x2="50.527882"
       y2="14.514202" />
    <clipPath
       id="clipPath4156-4-1"
       clipPathUnits="userSpaceOnUse">
      <path
         inkscape:connector-curvature="0"
         id="path4158-0-8"
         d="m 27.046336,-55.695463 -14.21366,13.321486 h 0.06127 l 15.653407,21.770763 10.231384,-10.546177 C 38.561832,-32.30156 27.468089,-54.819245 27.046336,-55.695463 Z M 9.6468554,-39.382809 -5.2407289,-25.32124 15.987863,-7.8059573 26.372412,-18.382966 Z m 31.4906096,12.951445 -9.741259,9.713584 8.944804,12.4580526 7.780753,-7.5550056 z m -49.8397109,4.378822 -13.7541661,12.9822847 26.2830181,13.84571 0.06127,-0.0617 -0.122531,-0.0617 L 13.598503,-5.4007374 -8.7022409,-22.052595 Z m 38.0154159,7.400825 -9.802525,9.7752596 11.579232,9.5594001 7.62759,-7.40083 -8.669108,-11.0087257 z m 20.187073,5.6739697 -7.382526,7.2158 6.187844,8.54179 5.820249,-6.13651996 z m -32.195166,6.32154 -9.5574606,9.49772 13.6622686,7.1849703 7.933918,-7.6783603 z m 23.311629,2.37443004 -7.10683,6.93826996 8.362778,6.9074403 5.360756,-5.6739699 -0.06127,-0.0925 -0.0919,0.12335 -6.463539,-8.20258036 z m -8.730374,8.54178036 -7.505057,7.3391599 10.353916,5.45811 c 1.397496,-1.32103 5.67514,-6.12292 5.850882,-6.32154 z"
         style="opacity:0.6;fill:#ffffff;fill-opacity:1;stroke:none" />
    </clipPath>
    <linearGradient
       id="ButtonShadow-16"
       gradientTransform="scale(1.0058652,0.994169)"
       x1="45.447727"
       y1="92.539597"
       x2="45.447727"
       y2="7.0165396"
       gradientUnits="userSpaceOnUse">
      <stop
         style="stop-color:#000000;stop-opacity:1;"
         offset="0"
         id="stop3750-6" />
      <stop
         style="stop-color:#000000;stop-opacity:0.58823532;"
         offset="1"
         id="stop3752-4" />
    </linearGradient>
    <clipPath
       clipPathUnits="userSpaceOnUse"
       id="clipPath4355-7">
      <rect
         style="fill:#ffffff;fill-opacity:1;fill-rule:nonzero;stroke:none"
         id="rect4357-5"
         width="84"
         height="80"
         x="6"
         y="6"
         rx="6"
         ry="6" />
    </clipPath>
    <clipPath
       clipPathUnits="userSpaceOnUse"
       id="clipPath4355-9">
      <rect
         style="fill:#ffffff;fill-opacity:1;fill-rule:nonzero;stroke:none"
         id="rect4357-1"
         width="84"
         height="80"
         x="6"
         y="6"
         rx="6"
         ry="6" />
    </clipPath>
    <clipPath
       clipPathUnits="userSpaceOnUse"
       id="clipPath4355-1">
      <rect
         style="fill:#ffffff;fill-opacity:1;fill-rule:nonzero;stroke:none"
         id="rect4357-9"
         width="84"
         height="80"
         x="6"
         y="6"
         rx="6"
         ry="6" />
    </clipPath>
    <clipPath
       clipPathUnits="userSpaceOnUse"
       id="clipPath3943-52-0">
      <path
         id="path3945-4-1"
         d="m 69.78125,20.84375 -5,3.4375 c 5.586891,5.537137 9,13.327613 9,21.8125 0,8.434478 -3.37723,16.095981 -8.90625,21.625 l 5,3.4375 C 76.078226,64.5762 80,55.843726 80,46.09375 c 2e-6,-9.796556 -3.962955,-18.660417 -10.21875,-25.25 z M 40,24.0625 28.90625,36.21875 H 21.5 c -0.823281,0 -1.5,0.676717 -1.5,1.5 v 1 14.84375 1 c 0,0.823281 0.684121,1.610161 1.5,1.5 h 7.40625 L 40,68 V 66 26.0625 Z m 20.59375,3.28125 -5,3.4375 L 55.5,30.875 c 3.93815,3.890071 6.40625,9.25018 6.40625,15.21875 0,5.920869 -2.42961,11.148358 -6.3125,15.03125 l 0.09375,0.09375 5.09375,3.4375 c 4.475428,-4.908367 7.25,-11.402005 7.25,-18.5625 0,-7.230696 -2.87904,-13.83107 -7.4375,-18.75 z m -9.25,6.5 -5.21875,3.625 c 2.222384,2.217802 3.71875,5.239596 3.71875,8.625 0,3.336509 -1.458847,6.227712 -3.625,8.4375 l 5.21875,3.625 c 2.822412,-3.236947 4.53125,-7.43414 4.53125,-12.0625 0,-4.672601 -1.754155,-9.001351 -4.625,-12.25 z"
         style="color:#000000;display:inline;overflow:visible;visibility:visible;opacity:0.8;fill:#ff00ff;fill-opacity:1;fill-rule:nonzero;stroke:none;stroke-width:1;marker:none;enable-background:accumulate"
         inkscape:connector-curvature="0" />
    </clipPath>
    <linearGradient
       gradientUnits="userSpaceOnUse"
       xlink:href="#linearGradient1360"
       id="linearGradient4130-3-0"
       y2="8"
       x2="53"
       y1="53"
       x1="8"
       gradientTransform="matrix(0.95862611,0,0,0.95862611,0.3309911,0.23345366)" />
    <linearGradient
       inkscape:collect="always"
       xlink:href="#linearGradient1414"
       id="linearGradient4724-4"
       gradientUnits="userSpaceOnUse"
       x1="8"
       y1="53"
       x2="53"
       y2="8"
       gradientTransform="matrix(0,0.95862611,-0.95862611,0,92.216992,0.23345413)" />
    <linearGradient
       inkscape:collect="always"
       xlink:href="#linearGradient1378"
       id="linearGradient4730-8"
       gradientUnits="userSpaceOnUse"
       gradientTransform="matrix(0.95862611,0,0,-0.95862611,0.3309911,92.096187)"
       x1="8"
       y1="53"
       x2="53"
       y2="8" />
    <linearGradient
       inkscape:collect="always"
       xlink:href="#linearGradient4148-0"
       id="linearGradient4732-4"
       gradientUnits="userSpaceOnUse"
       gradientTransform="matrix(0,-0.95862611,-0.95862611,0,92.216992,92.096187)"
       x1="8"
       y1="53"
       x2="53"
       y2="8" />
    <linearGradient
       gradientUnits="userSpaceOnUse"
       xlink:href="#linearGradient4202-8"
       id="linearGradient4242-4-2"
       y2="6"
       x2="90"
       y1="90"
       x1="6" />
    <linearGradient
       gradientUnits="userSpaceOnUse"
       xlink:href="#linearGradient4091-5"
       id="linearGradient4089-4-9"
       y2="6"
       x2="48"
       y1="88"
       x1="48" />
    <filter
       style="color-interpolation-filters:sRGB"
       id="filter4550-9-6">
      <feGaussianBlur
         stdDeviation="1.167399"
         id="feGaussianBlur4552-8-1" />
    </filter>
    <radialGradient
       inkscape:collect="always"
       xlink:href="#linearGradient1420"
       id="radialGradient1424"
       cx="50.32925"
       cy="45.533981"
       fx="50.32925"
       fy="45.533981"
       r="40.761436"
       gradientTransform="matrix(1,0,0,1.021678,0,-0.98708412)"
       gradientUnits="userSpaceOnUse" />
  </defs>
  <sodipodi:namedview
     id="base"
     pagecolor="#ffffff"
     bordercolor="#666666"
     borderopacity="1.0"
     inkscape:pageopacity="0.0"
     inkscape:pageshadow="2"
     inkscape:zoom="2.0816674"
     inkscape:cx="17.607372"
     inkscape:cy="39.611167"
     inkscape:current-layer="g5405"
     showgrid="true"
     inkscape:document-units="px"
     inkscape:grid-bbox="true"
     inkscape:showpageshadow="false"
     gridtolerance="1"
     guidetolerance="1"
     objecttolerance="1"
     inkscape:window-width="1280"
     inkscape:window-height="943"
     inkscape:window-x="0"
     inkscape:window-y="19"
     inkscape:window-maximized="1" />
  <metadata
     id="metadata7">
    <rdf:RDF>
      <cc:Work
         rdf:about="">
        <dc:format>image/svg+xml</dc:format>
        <dc:type
           rdf:resource="http://purl.org/dc/dcmitype/StillImage" />
        <dc:title />
      </cc:Work>
    </rdf:RDF>
  </metadata>
  <g
     id="layer1"
     inkscape:label="Layer 1"
     inkscape:groupmode="layer"
     transform="translate(0,32)">
    <g
       transform="translate(23.892792,-8.4394545)"
       id="g5405">
      <path
         style="display:inline;opacity:0.15;fill:#000000;fill-opacity:1;fill-rule:nonzero;stroke:none"
         d="m 65.250062,-23.560574 h -82.285719 c -3.798848,0 -6.857135,3.058285 -6.857135,6.85714 v 82.285718 c 0,3.798857 3.058287,6.857142 6.857135,6.857142 h 82.285719 c 3.798857,0 6.857147,-3.058285 6.857147,-6.857142 v -82.285718 c 0,-3.798855 -3.05829,-6.85714 -6.857147,-6.85714 z"
         id="path3288"
         inkscape:connector-curvature="0" />
      <path
         inkscape:connector-curvature="0"
         id="path4085"
         d="m 64.607206,-22.810574 h -81.000007 c -3.739492,0 -6.749993,3.010499 -6.749993,6.749997 v 81.000003 c 0,3.739501 3.010501,6.75 6.749993,6.75 h 81.000007 c 3.739503,0 6.750003,-3.010499 6.750003,-6.75 v -81.000003 c 0,-3.739498 -3.0105,-6.749997 -6.750003,-6.749997 z"
         style="display:inline;opacity:0.15;fill:#000000;fill-opacity:1;fill-rule:nonzero;stroke:none" />
      <path
         style="display:inline;fill:url(#linearGradient4071);fill-opacity:1;fill-rule:nonzero;stroke:none"
         d="m 63.964345,-22.060574 h -79.714282 c -3.680143,0 -6.642856,2.962713 -6.642856,6.642855 v 79.71429 c 0,3.680142 2.962713,6.642856 6.642856,6.642856 h 79.714282 c 3.680143,0 6.642854,-2.962714 6.642854,-6.642856 v -79.71429 c 0,-3.680142 -2.962711,-6.642855 -6.642854,-6.642855 z"
         id="rect4251-1"
         inkscape:connector-curvature="0" />
      <path
         style="display:inline;opacity:0.9;fill:#c20a0a;fill-opacity:0.63043482;fill-rule:nonzero;stroke:none;stroke-width:1.03914654"
         d="m -12.651501,-17.173432 c -2.856496,0 -5.124128,2.331452 -5.124128,5.268337 V 9.9255731 17.301244 57.966215 c 1.09724,1.716191 2.968848,2.864657 5.124128,2.864657 h 4.099303 65.588849 4.099302 c 2.155281,0 4.026889,-1.148466 5.124129,-2.864657 V 17.301244 9.9255731 -11.905095 c 0,-2.936885 -2.267632,-5.268337 -5.124129,-5.268337 z"
         id="path3400-6"
         inkscape:connector-curvature="0"
         sodipodi:nodetypes="sscccsccscccsss" />
      <path
         inkscape:connector-curvature="0"
         id="path4989"
         d="m -14.067714,-18.831113 c -3.116621,0 -5.667965,2.53951 -5.667965,5.646004 v 69.277996 c 0,3.106495 2.551344,5.646004 5.667965,5.646004 h 76.791785 c 3.116621,0 5.667968,-2.539509 5.667968,-5.646004 v -69.277996 c 0,-3.106493 -2.551347,-5.646004 -5.667968,-5.646004 z m 0,2.319439 h 76.791785 c 1.888099,0 3.352022,1.480095 3.352022,3.326565 v 69.277996 c 0,1.846474 -1.463923,3.326564 -3.352022,3.326564 h -76.791785 c -1.888099,0 -3.352022,-1.48009 -3.352022,-3.326564 v -69.277996 c 0,-1.84647 1.463923,-3.326565 3.352022,-3.326565 z"
         style="color:#000000;font-style:normal;font-variant:normal;font-weight:normal;font-stretch:normal;font-size:medium;line-height:normal;font-family:Sans;-inkscape-font-specification:Sans;text-indent:0;text-align:start;text-decoration:none;text-decoration-line:none;letter-spacing:normal;word-spacing:normal;text-transform:none;writing-mode:lr-tb;direction:ltr;baseline-shift:baseline;text-anchor:start;display:inline;overflow:visible;visibility:visible;fill:#1f2224;fill-opacity:0.63265303;stroke:none;stroke-width:2.3755002;marker:none;enable-background:accumulate" />
      <circle
         style="opacity:1;fill:none;fill-opacity:1;stroke:#2d2d2d;stroke-width:1.69000006;stroke-linecap:round;stroke-linejoin:miter;stroke-miterlimit:4;stroke-dasharray:none;stroke-dashoffset:0;stroke-opacity:0.50199998;paint-order:markers stroke fill"
         id="path1430"
         cx="24.626015"
         cy="19.597198"
         r="8.3823681" />
      <g
         id="g4770"
         transform="matrix(0.95196105,0,0,0.93047635,-0.17638664,2.4978361)">
        <g
           id="g4673"
           transform="matrix(0.91645239,0,0,0.91645239,-20.827298,-23.610869)">
          <g
             style="display:inline"
             id="layer24" />
          <ellipse
             style="opacity:1;fill:url(#radialGradient1424);fill-opacity:1;stroke:#252525;stroke-width:4.98535728;stroke-linecap:round;stroke-linejoin:miter;stroke-miterlimit:4;stroke-dasharray:none;stroke-dashoffset:0;stroke-opacity:0.72608697;paint-order:markers stroke fill"
             id="path1396"
             cx="50.32925"
             cy="45.533981"
             rx="38.268757"
             ry="39.152382" />
          <g
             id="g1394"
             transform="translate(4.2865392)">
            <path
               inkscape:connector-curvature="0"
               d="m 31.007027,46.247509 c 0,-8.470954 6.867064,-15.338018 15.338018,-15.338018 V 7.9024637 C 25.167661,7.9024637 8,25.070125 8,46.247509 Z"
               id="path4117"
               style="display:inline;fill:url(#linearGradient4130-3-0);fill-opacity:1;fill-rule:evenodd;stroke:none;stroke-width:0.95862609" />
            <path
               style="display:inline;fill:url(#linearGradient4724-4);fill-opacity:1;fill-rule:evenodd;stroke:none;stroke-width:0.95862609"
               id="path4722"
               d="m 46.202939,30.909491 c 8.470953,0 15.338018,6.867064 15.338018,15.338018 h 23.007026 c 0,-21.177384 -17.167661,-38.3450453 -38.345044,-38.3450453 z"
               inkscape:connector-curvature="0" />
            <path
               style="display:inline;fill:url(#linearGradient4730-8);fill-opacity:1;fill-rule:evenodd;stroke:none;stroke-width:0.95862609"
               id="path4726"
               d="m 31.007027,46.082133 c 0,8.470953 6.867064,15.338018 15.338018,15.338018 V 84.427178 C 25.167661,84.427178 8,67.259516 8,46.082133 Z"
               inkscape:connector-curvature="0" />
            <path
               inkscape:connector-curvature="0"
               d="m 46.202939,61.420151 c 8.470953,0 15.338018,-6.867065 15.338018,-15.338018 h 23.007026 c 0,21.177383 -17.167661,38.345045 -38.345044,38.345045 z"
               id="path4728"
               style="display:inline;fill:url(#linearGradient4732-4);fill-opacity:1;fill-rule:evenodd;stroke:none;stroke-width:0.95862609" />
            <g
               transform="matrix(0.95862611,0,0,0.95862611,0.3309911,0.32695564)"
               id="layer9"
               style="display:inline">
              <path
                 inkscape:connector-curvature="0"
                 d="m 48,32 c -8.836556,0 -16,7.163444 -16,16 0,8.836556 7.163444,16 16,16 8.836556,0 16,-7.163444 16,-16 0,-8.836556 -7.163444,-16 -16,-16 z m 0,4 c 6.627417,0 12,5.372583 12,12 0,6.627417 -5.372583,12 -12,12 -6.627417,0 -12,-5.372583 -12,-12 0,-6.627417 5.372583,-12 12,-12 z"
                 id="path4212"
                 style="display:inline;fill:url(#linearGradient4242-4-2);fill-opacity:1;fill-rule:evenodd;stroke:url(#linearGradient4242-4-2);stroke-width:0.5;stroke-miterlimit:4;stroke-dasharray:none" />
            </g>
            <g
               transform="matrix(0.95862611,0,0,0.95862611,0.3309911,0.32695564)"
               id="layer6"
               style="display:inline">
              <path
                 inkscape:connector-curvature="0"
                 d="m 53,48 a 5,5 0 1 1 -10,0 5,5 0 1 1 10,0 z"
                 id="path3903"
                 style="fill:#ee454c;fill-opacity:1;fill-rule:evenodd;stroke:none" />
            </g>
            <g
               transform="matrix(0.95862611,0,0,0.95862611,0.3309911,0.32695564)"
               id="layer13"
               style="display:inline">
              <path
                 inkscape:connector-curvature="0"
                 d="m 53,48 a 5,5 0 1 1 -10,0 5,5 0 1 1 10,0 z"
                 id="path4080"
                 style="display:inline;fill:url(#linearGradient4089-4-9);fill-opacity:1;fill-rule:evenodd;stroke:none" />
            </g>
          </g>
          <g
             style="display:inline"
             id="layer21">
            <path
               style="fill:#000000;fill-opacity:1;stroke:none;filter:url(#filter4550-9-6)"
               id="path4515"
               d="m 36.175769,64.80265 c 0.988624,-5.727795 4.011877,-11.001932 8.081221,-15.152288 0.914484,-0.93269 1.886758,-1.817224 2.976575,-2.537286 1.089818,-0.720062 2.30353,-1.273784 3.589416,-1.503324 1.575765,-0.281286 3.193858,-0.06959 4.776561,0.169597 1.260652,0.190516 2.575651,0.39443 3.788072,0 0.745607,-0.242564 1.402837,-0.698189 2.01469,-1.188498 0.611853,-0.49031 1.192567,-1.022868 1.847348,-1.454179 1.352359,-0.890812 3.005285,-1.316141 4.619653,-1.188723 -1.25777,0.601327 -2.214816,1.797636 -2.525381,3.156727 -0.08416,0.368289 -0.123108,0.750612 -0.07161,1.124867 0.0515,0.374255 0.19762,0.74097 0.450415,1.021707 0.200919,0.223127 0.463757,0.386238 0.746061,0.488503 0.282304,0.102265 0.583858,0.145278 0.884094,0.148778 0.600472,0.007 1.190244,-0.140777 1.77911,-0.258474 0.944944,-0.188866 1.925185,-0.308803 2.77792,-0.757615 0.688216,-0.362222 1.252678,-0.918777 1.777893,-1.492358 0.525215,-0.573582 1.026062,-1.176057 1.631371,-1.664368 0.863294,-0.696431 1.928069,-1.140087 3.030458,-1.262691 -0.78871,0.635038 -1.266821,1.639071 -1.262691,2.651651 0.0017,0.409388 0.08006,0.823157 0.268115,1.186798 0.188059,0.363642 0.491111,0.67437 0.868307,0.833507 0.36778,0.155164 0.791805,0.159205 1.171966,0.03749 0.380162,-0.121718 0.716506,-0.364332 0.974608,-0.668834 0.351695,-0.41492 0.557612,-0.933656 0.708397,-1.456256 0.150785,-0.522601 0.252624,-1.05934 0.428025,-1.574201 0.414657,-1.217157 1.264195,-2.299726 2.399112,-2.904189 0.69972,-0.372674 1.497073,-0.56005 2.289543,-0.538037 0.79247,0.02201 1.578192,0.253363 2.256144,0.664306 -0.615015,0.11011 -1.200765,0.379772 -1.684328,0.775415 -0.483564,0.395643 -0.863877,0.916396 -1.093592,1.497428 -0.439026,1.110455 -0.315158,2.356477 -0.126269,3.535534 0.122063,0.761924 0.26877,1.523096 0.295155,2.294284 0.02639,0.771189 -0.07377,1.562516 -0.421424,2.251403 -0.270791,0.536581 -0.684944,0.994739 -1.168723,1.351397 -0.483778,0.356658 -1.036039,0.614245 -1.609197,0.795177 -1.501535,0.473997 -3.111157,0.423528 -4.671955,0.631345 -0.593197,0.07898 -1.188251,0.197962 -1.730022,0.452139 -0.54177,0.254177 -1.030637,0.655196 -1.300436,1.189359 -0.222772,0.441055 -0.285163,0.961307 -0.171284,1.442127 0.113879,0.480821 0.403461,0.918283 0.80263,1.209524 0.370749,0.270505 0.824678,0.412155 1.281352,0.457723 0.456675,0.04557 0.918054,-7.92e-4 1.370298,-0.07892 1.349959,-0.233203 2.649686,-0.753094 3.788072,-1.515229 0.259099,0.691036 0.212061,1.490681 -0.126269,2.146574 -0.260029,0.504097 -0.67752,0.914127 -1.14498,1.235391 -0.46746,0.321263 -0.986066,0.559745 -1.50667,0.784914 -1.145765,0.495561 -2.340236,0.949499 -3.282996,1.767767 -0.524879,0.455569 -0.9584,1.01664 -1.262691,1.641498 -0.156218,0.320793 -0.279809,0.663796 -0.300703,1.019992 -0.02089,0.356196 0.06957,0.728489 0.300703,1.000313 0.124416,0.146317 0.285771,0.25954 0.462104,0.335665 0.176332,0.07612 0.36739,0.115746 0.559194,0.125724 0.383606,0.01995 0.764457,-0.07709 1.125276,-0.208851 0.91973,-0.335869 1.752872,-0.905913 2.399113,-1.641498 0.576199,1.163867 0.669142,2.558018 0.252538,3.788072 -0.270652,0.799119 -0.739938,1.514809 -1.23307,2.1994 -0.493131,0.684591 -1.017294,1.351581 -1.418581,2.093749 -0.754307,1.395069 -1.061082,3.03018 -2.020305,4.293148 -0.564751,0.743583 -1.329019,1.316699 -2.146574,1.767767 -1.876957,1.035571 -4.044336,1.455402 -6.187184,1.515229 -4.190957,0.117009 -8.311972,-1.081354 -12.500638,-1.262691 -3.38363,-0.146485 -6.863684,0.362026 -10.101526,-0.631345 -1.997309,-0.612775 -3.816557,-1.793968 -5.190305,-3.367993 -1.373749,-1.574024 -2.297885,-3.535848 -2.638377,-5.597111 -0.282659,-1.711156 -0.168719,-3.467958 0.126269,-5.177032"
               inkscape:connector-curvature="0" />
          </g>
          <g
             style="display:inline"
             id="layer3"
             transform="matrix(1.2685926,0,0,1.2865249,-21.723269,-11.444743)">
            <g
               id="g4434"
               transform="translate(6.25,25.75)">
              <path
                 style="fill:url(#linearGradient3394);fill-opacity:1;stroke:url(#linearGradient3396);stroke-width:1px;stroke-linecap:butt;stroke-linejoin:miter;stroke-opacity:1"
                 id="path3684"
                 d="m 29.925769,39.05265 c 0.988624,-5.727795 4.011877,-11.001932 8.081221,-15.152288 0.914484,-0.93269 1.886758,-1.817224 2.976575,-2.537286 1.089818,-0.720062 2.30353,-1.273784 3.589416,-1.503324 1.575765,-0.281286 3.193858,-0.06959 4.776561,0.169597 1.260652,0.190516 2.575651,0.39443 3.788072,0 0.745607,-0.242564 1.402837,-0.698189 2.01469,-1.188498 0.611853,-0.49031 1.192567,-1.022868 1.847348,-1.454179 1.352359,-0.890812 3.005285,-1.316141 4.619653,-1.188723 -1.25777,0.601327 -2.214816,1.797636 -2.525381,3.156727 -0.08416,0.368289 -0.123108,0.750612 -0.07161,1.124867 0.0515,0.374255 0.19762,0.74097 0.450415,1.021707 0.200919,0.223127 0.463757,0.386238 0.746061,0.488503 0.282304,0.102265 0.583858,0.145278 0.884094,0.148778 0.600472,0.007 1.190244,-0.140777 1.77911,-0.258474 0.944944,-0.188866 1.925185,-0.308803 2.77792,-0.757615 0.688216,-0.362222 1.252678,-0.918777 1.777893,-1.492358 0.525215,-0.573582 1.026062,-1.176057 1.631371,-1.664368 0.863294,-0.696431 1.928069,-1.140087 3.030458,-1.262691 -0.78871,0.635038 -1.266821,1.639071 -1.262691,2.651651 0.0017,0.409388 0.08006,0.823157 0.268115,1.186798 0.188059,0.363642 0.491111,0.67437 0.868307,0.833507 0.36778,0.155164 0.791805,0.159205 1.171966,0.03749 0.380162,-0.121718 0.716506,-0.364332 0.974608,-0.668834 0.351695,-0.41492 0.557612,-0.933656 0.708397,-1.456256 0.150785,-0.522601 0.252624,-1.05934 0.428025,-1.574201 0.414657,-1.217157 1.264195,-2.299726 2.399112,-2.904189 0.69972,-0.372674 1.497073,-0.56005 2.289543,-0.538037 0.79247,0.02201 1.578192,0.253363 2.256144,0.664306 -0.615015,0.11011 -1.200765,0.379772 -1.684328,0.775415 -0.483564,0.395643 -0.863877,0.916396 -1.093592,1.497428 -0.439026,1.110455 -0.315158,2.356477 -0.126269,3.535534 0.122063,0.761924 0.26877,1.523096 0.295155,2.294284 0.02639,0.771189 -0.07377,1.562516 -0.421424,2.251403 -0.270791,0.536581 -0.684944,0.994739 -1.168723,1.351397 -0.483778,0.356658 -1.036039,0.614245 -1.609197,0.795177 -1.501535,0.473997 -3.111157,0.423528 -4.671955,0.631345 -0.593197,0.07898 -1.188251,0.197962 -1.730022,0.452139 -0.54177,0.254177 -1.030637,0.655196 -1.300436,1.189359 -0.222772,0.441055 -0.285163,0.961307 -0.171284,1.442127 0.113879,0.480821 0.403461,0.918283 0.80263,1.209524 0.370749,0.270505 0.824678,0.412155 1.281352,0.457723 0.456675,0.04557 0.918054,-7.92e-4 1.370298,-0.07892 1.349959,-0.233203 2.649686,-0.753094 3.788072,-1.515229 0.259099,0.691036 0.212061,1.490681 -0.126269,2.146574 -0.260029,0.504097 -0.67752,0.914127 -1.14498,1.235391 -0.46746,0.321263 -0.986066,0.559745 -1.50667,0.784914 -1.145765,0.495561 -2.340236,0.949499 -3.282996,1.767767 -0.524879,0.455569 -0.9584,1.01664 -1.262691,1.641498 -0.156218,0.320793 -0.279809,0.663796 -0.300703,1.019992 -0.02089,0.356196 0.06957,0.728489 0.300703,1.000313 0.124416,0.146317 0.285771,0.25954 0.462104,0.335665 0.176332,0.07612 0.36739,0.115746 0.559194,0.125724 0.383606,0.01995 0.764457,-0.07709 1.125276,-0.208851 0.91973,-0.335869 1.752872,-0.905913 2.399113,-1.641498 0.576199,1.163867 0.669142,2.558018 0.252538,3.788072 -0.270652,0.799119 -0.739938,1.514809 -1.23307,2.1994 -0.493131,0.684591 -1.017294,1.351581 -1.418581,2.093749 -0.754307,1.395069 -1.061082,3.03018 -2.020305,4.293148 -0.564751,0.743583 -1.329019,1.316699 -2.146574,1.767767 -1.876957,1.035571 -4.044336,1.455402 -6.187184,1.515229 -4.190957,0.117009 -8.311972,-1.081354 -12.500638,-1.262691 -3.38363,-0.146485 -6.863684,0.362026 -10.101526,-0.631345 -1.997309,-0.612775 -3.816557,-1.793968 -5.190305,-3.367993 -1.373749,-1.574024 -2.297885,-3.535848 -2.638377,-5.597111 -0.282659,-1.711156 -0.168719,-3.467958 0.126269,-5.177032"
                 inkscape:connector-curvature="0" />
              <path
                 style="display:inline;opacity:0.68867929;fill:url(#linearGradient3398);fill-opacity:1;stroke:none"
                 id="path4513"
                 d="m 29.925769,39.05265 c 0.845666,-5.759876 3.987891,-11.012727 8.081221,-15.152288 0.918207,-0.928578 1.890422,-1.812261 2.979376,-2.533051 1.088955,-0.720791 2.301249,-1.27692 3.586615,-1.507559 1.575565,-0.282711 3.193857,-0.06994 4.776561,0.169597 1.260623,0.190792 2.575665,0.394514 3.788072,0 0.745589,-0.242613 1.402806,-0.698241 2.014663,-1.188543 0.611857,-0.490301 1.192586,-1.022839 1.847375,-1.454134 1.352375,-0.89078 3.005286,-1.316104 4.619653,-1.188723 -1.25777,0.601327 -2.214816,1.797636 -2.525381,3.156727 -0.08416,0.368289 -0.123108,0.750612 -0.07161,1.124867 0.0515,0.374255 0.19762,0.74097 0.450415,1.021707 0.200919,0.223127 0.463757,0.386238 0.746061,0.488503 0.282304,0.102265 0.583858,0.145278 0.884094,0.148778 0.600472,0.007 1.190244,-0.140777 1.77911,-0.258474 0.944944,-0.188866 1.925185,-0.308803 2.77792,-0.757615 0.688216,-0.362222 1.252678,-0.918777 1.777893,-1.492358 0.525215,-0.573582 1.026062,-1.176057 1.631371,-1.664368 0.863294,-0.696431 1.928069,-1.140087 3.030458,-1.262691 -0.78871,0.635038 -1.266821,1.639071 -1.262691,2.651651 0.0017,0.409388 0.08006,0.823157 0.268115,1.186798 0.188059,0.363642 0.491111,0.67437 0.868307,0.833507 0.36778,0.155164 0.791805,0.159205 1.171966,0.03749 0.380162,-0.121718 0.716506,-0.364332 0.974608,-0.668834 0.351695,-0.41492 0.557612,-0.933656 0.708397,-1.456256 0.150785,-0.522601 0.252624,-1.05934 0.428025,-1.574201 0.414657,-1.217157 1.264195,-2.299726 2.399112,-2.904189 0.69972,-0.372674 1.497073,-0.56005 2.289543,-0.538037 0.79247,0.02201 1.578192,0.253363 2.256144,0.664306 -0.615014,0.110113 -1.200762,0.379776 -1.684326,0.775419 -0.483563,0.395643 -0.863876,0.916394 -1.093594,1.497424 -0.439032,1.110454 -0.315174,2.356479 -0.126269,3.535534 0.122074,0.761926 0.268802,1.523097 0.295196,2.294289 0.02639,0.771191 -0.07377,1.562528 -0.421465,2.251398 -0.270817,0.536557 -0.685004,0.994671 -1.168786,1.351308 -0.483782,0.356638 -1.036017,0.614233 -1.609134,0.795266 -1.501462,0.474273 -3.110987,0.424699 -4.671955,0.631345 -0.59343,0.07856 -1.188838,0.196854 -1.730872,0.450883 -0.542033,0.25403 -1.031075,0.655608 -1.299586,1.190615 -0.221365,0.441069 -0.281768,0.960776 -0.167462,1.440858 0.114305,0.480081 0.40243,0.916806 0.798808,1.210793 -2.288849,-0.177303 -4.586529,-0.240542 -6.881665,-0.189404 -1.795923,0.04002 -3.593876,0.150437 -5.366435,0.441942 -3.973761,0.653501 -7.840618,2.258716 -10.85914,4.924493 -2.178089,1.923557 -3.858481,4.333634 -5.555839,6.692261 -0.832359,1.156635 -1.690505,2.323856 -2.824086,3.187348 -0.566791,0.431746 -1.200094,0.782882 -1.882262,0.988558 -0.682169,0.205676 -1.414656,0.262547 -2.112182,0.117242 -0.985417,-0.205277 -1.862845,-0.809158 -2.499056,-1.589172 -0.63621,-0.780015 -1.043754,-1.727742 -1.289016,-2.703976 -0.423336,-1.685038 -0.378649,-3.458058 -0.126269,-5.177032"
                 inkscape:connector-curvature="0" />
            </g>
          </g>
          <g
             id="layer26" />
          <g
             transform="matrix(1.0911642,0,0,1.1163591,-4.9317481,-1.5999904)"
             style="font-style:normal;font-variant:normal;font-weight:normal;font-stretch:normal;font-size:48px;line-height:125%;font-family:'Bandung Hardcore GP';-inkscape-font-specification:'Bandung Hardcore GP';letter-spacing:0px;word-spacing:0px;fill:#000000;fill-opacity:1;stroke:none"
             id="text3400" />
        </g>
      </g>
      <path
         inkscape:connector-curvature="0"
         style="display:inline;opacity:0.65818182;fill:url(#linearGradient4129);fill-opacity:1;fill-rule:nonzero;stroke:none"
         d="m -22.392794,58.283176 v 6 c 0,3.680142 2.976106,6.65625 6.656249,6.65625 h 79.6875 c 3.680143,0 6.656254,-2.976108 6.656254,-6.65625 v -6 c 0,3.680142 -2.976111,6.65625 -6.656254,6.65625 h -79.6875 c -3.680143,0 -6.656249,-2.976108 -6.656249,-6.65625 z"
         id="path4118" />
      <rect
         style="opacity:0.55;fill:url(#radialGradient7462);fill-opacity:1;stroke:none"
         id="rect4131"
         width="84.250008"
         height="4.25"
         x="-18.517794"
         y="56.68943"
         rx="0"
         ry="4.25" />
      <rect
         ry="4.25"
         rx="0"
         y="-66.192215"
         x="-18.000578"
         height="4.25"
         width="76.75"
         id="rect4141"
         style="opacity:0.669;fill:url(#radialGradient7464);fill-opacity:1;stroke:none"
         transform="rotate(90)" />
      <rect
         transform="matrix(1.0692451,0,0,1.0476829,-19.597568,14.918413)"
         style="opacity:0.65;fill:url(#linearGradient4767);fill-opacity:1;stroke:none"
         id="rect4146"
         width="75.965775"
         height="69.024437"
         x="2"
         y="-30"
         rx="3.9569874"
         ry="3.9569881"
         clip-path="url(#clipPath4156-4-1)" />
    </g>
  </g>
</svg>
