<?xml version="1.0" encoding="UTF-8" standalone="no"?>
<!-- Created with Inkscape (http://www.inkscape.org/) -->

<svg
   xmlns:dc="http://purl.org/dc/elements/1.1/"
   xmlns:cc="http://creativecommons.org/ns#"
   xmlns:rdf="http://www.w3.org/1999/02/22-rdf-syntax-ns#"
   xmlns:svg="http://www.w3.org/2000/svg"
   xmlns="http://www.w3.org/2000/svg"
   xmlns:xlink="http://www.w3.org/1999/xlink"
   xmlns:sodipodi="http://sodipodi.sourceforge.net/DTD/sodipodi-0.dtd"
   xmlns:inkscape="http://www.inkscape.org/namespaces/inkscape"
   width="96"
   height="96"
   id="svg5023"
   version="1.1"
   inkscape:version="0.92.2 5c3e80d, 2017-08-06"
   sodipodi:docname="cairo-dock.svg">
  <defs
     id="defs5025">
    <linearGradient
       id="linearGradient5700">
      <stop
         id="stop5702"
         offset="0"
         style="stop-color:#ffffff;stop-opacity:0;" />
      <stop
         style="stop-color:#ffffff;stop-opacity:0.85135138;"
         offset="0.03681535"
         id="stop5704" />
      <stop
         id="stop5706"
         offset="0.06506088"
         style="stop-color:#ffffff;stop-opacity:0;" />
      <stop
         style="stop-color:#ffffff;stop-opacity:0;"
         offset="0.94493848"
         id="stop5712" />
      <stop
         style="stop-color:#ffffff;stop-opacity:0.85135138;"
         offset="0.96582276"
         id="stop5710" />
      <stop
         id="stop5708"
         offset="1"
         style="stop-color:#ffffff;stop-opacity:0;" />
    </linearGradient>
    <linearGradient
       inkscape:collect="always"
       xlink:href="#linearGradient3888-8-4-8-4-6-9-0-8-7-9"
       id="linearGradient4987"
       gradientUnits="userSpaceOnUse"
       gradientTransform="matrix(1.1856936,0,0,1.1642273,-42.219833,-46.722496)"
       x1="62"
       y1="8"
       x2="62"
       y2="68" />
    <linearGradient
       inkscape:collect="always"
       id="linearGradient3888-8-4-8-4-6-9-0-8-7-9">
      <stop
         style="stop-color:#ffffff;stop-opacity:1;"
         offset="0"
         id="stop3890-4-7-9-5-7-0-8-8-8-6" />
      <stop
         style="stop-color:#ffffff;stop-opacity:0;"
         offset="1"
         id="stop3892-5-8-2-8-3-3-3-06-4-4" />
    </linearGradient>
    <radialGradient
       inkscape:collect="always"
       xlink:href="#linearGradient3921"
       id="radialGradient4985"
       gradientUnits="userSpaceOnUse"
       gradientTransform="matrix(1.1856936,0,0,1.0652366,-42.219833,-42.734861)"
       cx="48"
       cy="43"
       fx="48"
       fy="43"
       r="38" />
    <linearGradient
       id="linearGradient3921">
      <stop
         style="stop-color:#2cffee;stop-opacity:1;"
         offset="0"
         id="stop3923" />
      <stop
         style="stop-color:#00586e;stop-opacity:1;"
         offset="1"
         id="stop3925" />
    </linearGradient>
    <radialGradient
       inkscape:collect="always"
       xlink:href="#linearGradient3888-8-4-8-6"
       id="radialGradient3114"
       gradientUnits="userSpaceOnUse"
       gradientTransform="matrix(0,1.6209438,-2.0382846,0,160.66427,-243.03657)"
       cx="158"
       cy="6.2131939"
       fx="158"
       fy="6.2131939"
       r="41" />
    <linearGradient
       inkscape:collect="always"
       id="linearGradient3888-8-4-8-6">
      <stop
         style="stop-color:#ffffff;stop-opacity:1;"
         offset="0"
         id="stop3890-4-7-9-7" />
      <stop
         style="stop-color:#ffffff;stop-opacity:0;"
         offset="1"
         id="stop3892-5-8-2-7" />
    </linearGradient>
    <radialGradient
       inkscape:collect="always"
       xlink:href="#linearGradient4091-0-3-0-7"
       id="radialGradient3118"
       gradientUnits="userSpaceOnUse"
       gradientTransform="matrix(-1.0721726,0,0,-0.87502024,199.46429,-19.125546)"
       cx="48"
       cy="-27"
       fx="48"
       fy="-27"
       r="42" />
    <linearGradient
       id="linearGradient4091-0-3-0-7">
      <stop
         style="stop-color:#ffffff;stop-opacity:1;"
         offset="0"
         id="stop4093-3-6-4-2" />
      <stop
         id="stop4099-6-1-8-3"
         offset="0.80000001"
         style="stop-color:#ffffff;stop-opacity:1;" />
      <stop
         style="stop-color:#ffffff;stop-opacity:0;"
         offset="1"
         id="stop4095-1-0-7-9" />
    </linearGradient>
    <linearGradient
       inkscape:collect="always"
       xlink:href="#linearGradient3832-0-6-1-1"
       id="linearGradient3120"
       gradientUnits="userSpaceOnUse"
       gradientTransform="matrix(1,0,0,0.73089097,200,23.096697)"
       x1="-94"
       y1="82.984398"
       x2="-10.187523"
       y2="82.984398" />
    <linearGradient
       id="linearGradient3832-0-6-1-1">
      <stop
         style="stop-color:#000000;stop-opacity:1;"
         offset="0"
         id="stop3834-6-3-7-1" />
      <stop
         id="stop3872-2-4"
         offset="0.1"
         style="stop-color:#000000;stop-opacity:0.58823532;" />
      <stop
         style="stop-color:#000000;stop-opacity:0.58823532;"
         offset="0.89999998"
         id="stop3844-6-2-7-6" />
      <stop
         style="stop-color:#000000;stop-opacity:1;"
         offset="1"
         id="stop3836-5-0-2-9" />
    </linearGradient>
    <linearGradient
       inkscape:collect="always"
       xlink:href="#linearGradient6139-0"
       id="linearGradient3923"
       x1="6"
       y1="47.000011"
       x2="90"
       y2="47.000011"
       gradientUnits="userSpaceOnUse" />
    <linearGradient
       id="linearGradient6139-0">
      <stop
         id="stop6141-2"
         offset="0"
         style="stop-color:#b7b7b7;stop-opacity:1;" />
      <stop
         style="stop-color:#ffffff;stop-opacity:1;"
         offset="0.25"
         id="stop6151-0" />
      <stop
         style="stop-color:#9d9d9d;stop-opacity:1;"
         offset="0.5"
         id="stop6147-1" />
      <stop
         id="stop6149-4"
         offset="0.75"
         style="stop-color:#fafafa;stop-opacity:1;" />
      <stop
         id="stop6143-4"
         offset="1"
         style="stop-color:#b7b7b7;stop-opacity:1;" />
    </linearGradient>
    <linearGradient
       gradientTransform="matrix(1.1353753,0,0,1.1336634,-40.037124,-46.787637)"
       y2="47.000011"
       x2="90"
       y1="47.000011"
       x1="6"
       gradientUnits="userSpaceOnUse"
       id="linearGradient5021"
       xlink:href="#linearGradient6139-0"
       inkscape:collect="always" />
    <linearGradient
       inkscape:collect="always"
       xlink:href="#linearGradient5700"
       id="linearGradient5698"
       gradientUnits="userSpaceOnUse"
       gradientTransform="matrix(1.1353753,0,0,1.1158944,-40.037124,-45.206192)"
       x1="6"
       y1="47.000011"
       x2="90"
       y2="47.000011" />
    <linearGradient
       gradientTransform="matrix(1.0238095,0,0,1.0119048,-1.1428571,-98.071429)"
       gradientUnits="userSpaceOnUse"
       xlink:href="#ButtonShadow-0"
       id="linearGradient2969"
       y2="90.238609"
       x2="32.251034"
       y1="6.1317081"
       x1="32.251034" />
    <linearGradient
       gradientTransform="translate(0,-97)"
       gradientUnits="userSpaceOnUse"
       xlink:href="#ButtonShadow-0"
       id="linearGradient3721"
       y2="90.238609"
       x2="32.251034"
       y1="6.1317081"
       x1="32.251034" />
    <linearGradient
       gradientTransform="matrix(1.0238095,0,0,1.0119048,-1.1428571,-98.071429)"
       gradientUnits="userSpaceOnUse"
       xlink:href="#ButtonShadow-0"
       id="linearGradient3725"
       y2="90.238609"
       x2="32.251034"
       y1="6.1317081"
       x1="32.251034" />
    <linearGradient
       gradientTransform="matrix(1.0238095,0,0,1.0119048,-1.1428571,-98.071429)"
       gradientUnits="userSpaceOnUse"
       xlink:href="#ButtonShadow-0"
       id="linearGradient3772"
       y2="90.238609"
       x2="32.251034"
       y1="6.1317081"
       x1="32.251034" />
    <linearGradient
       gradientTransform="matrix(1.0238095,0,0,1.0119048,-1.1428571,-98.071429)"
       gradientUnits="userSpaceOnUse"
       xlink:href="#ButtonShadow-0"
       id="linearGradient3780"
       y2="90.238609"
       x2="32.251034"
       y1="6.1317081"
       x1="32.251034" />
    <linearGradient
       gradientTransform="matrix(1.0058652,0,0,0.994169,100,0)"
       gradientUnits="userSpaceOnUse"
       id="ButtonShadow-0"
       y2="7.0165396"
       x2="45.447727"
       y1="92.539597"
       x1="45.447727">
      <stop
         offset="0"
         style="stop-color:#000000;stop-opacity:1"
         id="stop3750-8" />
      <stop
         offset="1"
         style="stop-color:#000000;stop-opacity:0.58823532"
         id="stop3752-5" />
    </linearGradient>
    <linearGradient
       gradientUnits="userSpaceOnUse"
       xlink:href="#ButtonColor"
       id="linearGradient3708"
       y2="5.9877172"
       x2="48"
       y1="90"
       x1="48" />
    <linearGradient
       gradientTransform="matrix(1.0172414,0,0,1.0172414,-1.1034483,-1.1034483)"
       gradientUnits="userSpaceOnUse"
       id="ButtonColor"
       y2="5.4252338"
       x2="58.650177"
       y1="122"
       x1="58.650177">
      <stop
         offset="0"
         style="stop-color:#623b6b;stop-opacity:1"
         id="stop3189" />
      <stop
         offset="1"
         style="stop-color:#ad7fa8;stop-opacity:1"
         id="stop3191" />
    </linearGradient>
    <linearGradient
       gradientUnits="userSpaceOnUse"
       xlink:href="#linearGradient3700-4"
       id="linearGradient2977"
       y2="5.9877172"
       x2="48"
       y1="90"
       x1="48" />
    <clipPath
       id="clipPath2973">
      <rect
         style="fill:url(#linearGradient2977);fill-opacity:1;fill-rule:nonzero;stroke:none"
         id="rect2975"
         y="6"
         x="6"
         ry="6"
         rx="6"
         height="84"
         width="84" />
    </clipPath>
    <linearGradient
       id="linearGradient3700-4">
      <stop
         offset="0"
         style="stop-color:#70a83e;stop-opacity:1"
         id="stop3702-4" />
      <stop
         offset="1"
         style="stop-color:#9fd058;stop-opacity:1"
         id="stop3704-4" />
    </linearGradient>
    <linearGradient
       gradientUnits="userSpaceOnUse"
       xlink:href="#linearGradient3700"
       id="linearGradient3878"
       y2="5.9877172"
       x2="48"
       y1="90"
       x1="48" />
    <linearGradient
       gradientTransform="matrix(1.2790652,0,0,1.2790652,17.302433,18.5815)"
       gradientUnits="userSpaceOnUse"
       xlink:href="#linearGradient3397"
       id="linearGradient3806"
       y2="45"
       x2="37.201294"
       y1="1"
       x1="37.201294" />
    <linearGradient
       gradientTransform="matrix(1.2790652,0,0,1.2790652,17.302433,18.5815)"
       gradientUnits="userSpaceOnUse"
       xlink:href="#linearGradient3309"
       id="linearGradient3804"
       y2="45.017357"
       x2="20.758585"
       y1="1"
       x1="20.758585" />
    <linearGradient
       gradientTransform="matrix(0.41503146,0,0,0.41503146,21.437996,21.853023)"
       gradientUnits="userSpaceOnUse"
       xlink:href="#linearGradient5128"
       id="linearGradient3801"
       y2="20.895"
       x2="84.63858"
       y1="105.105"
       x1="86.132919" />
    <linearGradient
       id="linearGradient3397">
      <stop
         offset="0"
         style="stop-color:#aaaaaa;stop-opacity:1"
         id="stop3399" />
      <stop
         offset="1"
         style="stop-color:#8c8c8c;stop-opacity:1"
         id="stop3401" />
    </linearGradient>
    <linearGradient
       gradientUnits="userSpaceOnUse"
       id="linearGradient3309"
       y2="122.8994"
       x2="63.9995"
       y1="3.1001"
       x1="63.9995">
      <stop
         offset="0"
         style="stop-color:#f6f6f6;stop-opacity:1"
         id="stop3311" />
      <stop
         offset="1"
         style="stop-color:#d2d2d2;stop-opacity:1"
         id="stop3313" />
    </linearGradient>
    <linearGradient
       id="linearGradient5128">
      <stop
         offset="0"
         style="stop-color:#e5e5e5;stop-opacity:1"
         id="stop5130" />
      <stop
         offset="1"
         style="stop-color:#ababab;stop-opacity:1"
         id="stop5132" />
    </linearGradient>
    <linearGradient
       gradientUnits="userSpaceOnUse"
       xlink:href="#linearGradient3700"
       id="linearGradient3617"
       y2="5.9877172"
       x2="48"
       y1="90"
       x1="48" />
    <clipPath
       id="clipPath3613">
      <rect
         style="fill:#ffffff;fill-opacity:1;fill-rule:nonzero;stroke:none"
         id="rect3615"
         y="6"
         x="6"
         ry="6"
         rx="6"
         height="84"
         width="84" />
    </clipPath>
    <radialGradient
       gradientTransform="matrix(1.1573129,0,0,0.99590774,-7.5510206,0.19713193)"
       gradientUnits="userSpaceOnUse"
       xlink:href="#linearGradient3737"
       id="radialGradient3619"
       fy="90.171875"
       fx="48"
       r="42"
       cy="90.171875"
       cx="48" />
    <linearGradient
       gradientUnits="userSpaceOnUse"
       xlink:href="#linearGradient3737"
       id="linearGradient3613"
       y2="138.66119"
       x2="48"
       y1="20.220806"
       x1="48" />
    <filter
       id="filter3794"
       color-interpolation-filters="sRGB"
       height="1.3839999"
       width="1.3839999"
       y="-0.192"
       x="-0.192">
      <feGaussianBlur
         stdDeviation="5.28"
         id="feGaussianBlur3796" />
    </filter>
    <linearGradient
       gradientUnits="userSpaceOnUse"
       xlink:href="#linearGradient3737"
       id="linearGradient3188"
       y2="63.893143"
       x2="36.357143"
       y1="6"
       x1="36.357143" />
    <filter
       id="filter3174"
       color-interpolation-filters="sRGB">
      <feGaussianBlur
         stdDeviation="1.71"
         id="feGaussianBlur3176" />
    </filter>
    <linearGradient
       id="linearGradient3700">
      <stop
         offset="0"
         style="stop-color:#70a83e;stop-opacity:1"
         id="stop3702" />
      <stop
         offset="1"
         style="stop-color:#9fd058;stop-opacity:1"
         id="stop3704" />
    </linearGradient>
    <linearGradient
       id="linearGradient3737">
      <stop
         offset="0"
         style="stop-color:#ffffff;stop-opacity:1"
         id="stop3739" />
      <stop
         offset="1"
         style="stop-color:#ffffff;stop-opacity:0"
         id="stop3741" />
    </linearGradient>
    <linearGradient
       gradientTransform="scale(1.0058652,0.994169)"
       gradientUnits="userSpaceOnUse"
       id="ButtonShadow"
       y2="7.0165396"
       x2="45.447727"
       y1="92.539597"
       x1="45.447727">
      <stop
         offset="0"
         style="stop-color:#000000;stop-opacity:1"
         id="stop3750" />
      <stop
         offset="1"
         style="stop-color:#000000;stop-opacity:0.58823532"
         id="stop3752" />
    </linearGradient>
    <linearGradient
       gradientTransform="scale(1.0058652,0.994169)"
       gradientUnits="userSpaceOnUse"
       id="ButtonShadow-3"
       y2="7.0165396"
       x2="45.447727"
       y1="92.539597"
       x1="45.447727">
      <stop
         offset="0"
         style="stop-color:#000000;stop-opacity:1"
         id="stop3750-4" />
      <stop
         offset="1"
         style="stop-color:#000000;stop-opacity:0.58823532"
         id="stop3752-3" />
    </linearGradient>
    <filter
       id="filter3174-4"
       color-interpolation-filters="sRGB">
      <feGaussianBlur
         stdDeviation="1.71"
         id="feGaussianBlur3176-3" />
    </filter>
    <clipPath
       id="clipPath2973-9">
      <rect
         style="fill:url(#linearGradient2977);fill-opacity:1;fill-rule:nonzero;stroke:none"
         id="rect2975-6"
         y="6"
         x="6"
         ry="6"
         rx="6"
         height="84"
         width="84" />
    </clipPath>
    <linearGradient
       gradientUnits="userSpaceOnUse"
       xlink:href="#linearGradient3700-0"
       id="linearGradient3617-6"
       y2="5.9877172"
       x2="48"
       y1="90"
       x1="48"
       gradientTransform="matrix(1.0253012,0,0,0.93957177,-107.61993,73.345418)" />
    <linearGradient
       id="linearGradient3700-0">
      <stop
         offset="0"
         style="stop-color:#70a83e;stop-opacity:1"
         id="stop3702-1" />
      <stop
         offset="1"
         style="stop-color:#9fd058;stop-opacity:1"
         id="stop3704-43" />
    </linearGradient>
    <linearGradient
       gradientUnits="userSpaceOnUse"
       xlink:href="#linearGradient3700-0"
       id="linearGradient3878-4"
       y2="5.9877172"
       x2="48"
       y1="90"
       x1="48"
       gradientTransform="matrix(1.0253012,0,0,0.93957177,-107.61993,73.345418)" />
    <linearGradient
       id="linearGradient4327">
      <stop
         offset="0"
         style="stop-color:#ad5600;stop-opacity:1;"
         id="stop4329" />
      <stop
         offset="1"
         style="stop-color:#ff8800;stop-opacity:1;"
         id="stop4331" />
    </linearGradient>
    <linearGradient
       gradientTransform="matrix(1.3116817,0,0,1.3097043,-90.42826,88.197863)"
       gradientUnits="userSpaceOnUse"
       xlink:href="#linearGradient3309-3"
       id="linearGradient3804-6"
       y2="45.017357"
       x2="20.758585"
       y1="1"
       x1="20.758585" />
    <linearGradient
       gradientUnits="userSpaceOnUse"
       id="linearGradient3309-3"
       y2="122.8994"
       x2="63.9995"
       y1="3.1001"
       x1="63.9995">
      <stop
         offset="0"
         style="stop-color:#f6f6f6;stop-opacity:1"
         id="stop3311-3" />
      <stop
         offset="1"
         style="stop-color:#d2d2d2;stop-opacity:1"
         id="stop3313-1" />
    </linearGradient>
    <linearGradient
       gradientTransform="matrix(1.3116817,0,0,1.3097043,-90.42826,88.197863)"
       gradientUnits="userSpaceOnUse"
       xlink:href="#linearGradient3397-2"
       id="linearGradient3806-9"
       y2="45"
       x2="37.201294"
       y1="1"
       x1="37.201294" />
    <linearGradient
       id="linearGradient3397-2">
      <stop
         offset="0"
         style="stop-color:#aaaaaa;stop-opacity:1"
         id="stop3399-6" />
      <stop
         offset="1"
         style="stop-color:#8c8c8c;stop-opacity:1"
         id="stop3401-7" />
    </linearGradient>
    <linearGradient
       gradientTransform="matrix(0.42561489,0,0,0.42497325,-86.187239,91.547753)"
       gradientUnits="userSpaceOnUse"
       xlink:href="#linearGradient5128-4"
       id="linearGradient3801-4"
       y2="20.895"
       x2="84.63858"
       y1="105.105"
       x1="86.132919" />
    <linearGradient
       id="linearGradient5128-4">
      <stop
         offset="0"
         style="stop-color:#e5e5e5;stop-opacity:1"
         id="stop5130-1" />
      <stop
         offset="1"
         style="stop-color:#ababab;stop-opacity:1"
         id="stop5132-0" />
    </linearGradient>
    <linearGradient
       inkscape:collect="always"
       xlink:href="#linearGradient6139-0-3"
       id="linearGradient4071"
       gradientUnits="userSpaceOnUse"
       gradientTransform="matrix(1.1353753,0,0,1.1336634,-40.037126,-46.787638)"
       x1="6"
       y1="47.000011"
       x2="90"
       y2="47.000011" />
    <linearGradient
       id="linearGradient6139-0-3">
      <stop
         id="stop6141-2-6"
         offset="0"
         style="stop-color:#b2babc;stop-opacity:1" />
      <stop
         style="stop-color:#ffffff;stop-opacity:1;"
         offset="0.25"
         id="stop6151-0-7" />
      <stop
         style="stop-color:#96a1a4;stop-opacity:1"
         offset="0.5"
         id="stop6147-1-5" />
      <stop
         id="stop6149-4-3"
         offset="0.75"
         style="stop-color:#fbf9f9;stop-opacity:1;" />
      <stop
         id="stop6143-4-5"
         offset="1"
         style="stop-color:#b2b9bc;stop-opacity:1" />
    </linearGradient>
    <linearGradient
       gradientTransform="matrix(1.0255003,0,0,1.0239543,-34.763125,-42.655252)"
       inkscape:collect="always"
       xlink:href="#linearGradient3832-0-6-1-1"
       id="linearGradient4129"
       x1="1.5"
       y1="88.171875"
       x2="94.5"
       y2="88.171875"
       gradientUnits="userSpaceOnUse" />
    <radialGradient
       inkscape:collect="always"
       xlink:href="#linearGradient3888-8-4-8-4-6-9-0-8-7-9"
       id="radialGradient7462"
       gradientUnits="userSpaceOnUse"
       gradientTransform="matrix(0.99999998,0,0,0.05036905,-2.7362053e-6,39.431781)"
       cx="13.948145"
       cy="44.892841"
       fx="13.948145"
       fy="44.892841"
       r="43.199203" />
    <radialGradient
       inkscape:collect="always"
       xlink:href="#linearGradient3888-8-4-8-4-6-9-0-8-7-9"
       id="radialGradient7464"
       gradientUnits="userSpaceOnUse"
       gradientTransform="matrix(0.90960587,0,0,0.0504451,-10.355134,-57.7045)"
       cx="13.948145"
       cy="44.892841"
       fx="13.948145"
       fy="44.892841"
       r="43.199203" />
    <linearGradient
       inkscape:collect="always"
       xlink:href="#linearGradient3888-8-4-8-4-6-9-0-8-7-9"
       id="linearGradient4767"
       gradientUnits="userSpaceOnUse"
       x1="2.7713892"
       y1="-28.64156"
       x2="50.527882"
       y2="14.514202" />
    <clipPath
       id="clipPath4156-4-1"
       clipPathUnits="userSpaceOnUse">
      <path
         inkscape:connector-curvature="0"
         id="path4158-0-8"
         d="m 27.046336,-55.695463 -14.21366,13.321486 h 0.06127 l 15.653407,21.770763 10.231384,-10.546177 C 38.561832,-32.30156 27.468089,-54.819245 27.046336,-55.695463 Z M 9.6468554,-39.382809 -5.2407289,-25.32124 15.987863,-7.8059573 26.372412,-18.382966 Z m 31.4906096,12.951445 -9.741259,9.713584 8.944804,12.4580526 7.780753,-7.5550056 z m -49.8397109,4.378822 -13.7541661,12.9822847 26.2830181,13.84571 0.06127,-0.0617 -0.122531,-0.0617 L 13.598503,-5.4007374 -8.7022409,-22.052595 Z m 38.0154159,7.400825 -9.802525,9.7752596 11.579232,9.5594001 7.62759,-7.40083 -8.669108,-11.0087257 z m 20.187073,5.6739697 -7.382526,7.2158 6.187844,8.54179 5.820249,-6.13651996 z m -32.195166,6.32154 -9.5574606,9.49772 13.6622686,7.1849703 7.933918,-7.6783603 z m 23.311629,2.37443004 -7.10683,6.93826996 8.362778,6.9074403 5.360756,-5.6739699 -0.06127,-0.0925 -0.0919,0.12335 -6.463539,-8.20258036 z m -8.730374,8.54178036 -7.505057,7.3391599 10.353916,5.45811 c 1.397496,-1.32103 5.67514,-6.12292 5.850882,-6.32154 z"
         style="opacity:0.6;fill:#ffffff;fill-opacity:1;stroke:none" />
    </clipPath>
    <clipPath
       clipPathUnits="userSpaceOnUse"
       id="clipPath4355-7">
      <rect
         style="fill:#ffffff;fill-opacity:1;fill-rule:nonzero;stroke:none"
         id="rect4357-5"
         width="84"
         height="80"
         x="6"
         y="6"
         rx="6"
         ry="6" />
    </clipPath>
    <clipPath
       clipPathUnits="userSpaceOnUse"
       id="clipPath4355-9">
      <rect
         style="fill:#ffffff;fill-opacity:1;fill-rule:nonzero;stroke:none"
         id="rect4357-1"
         width="84"
         height="80"
         x="6"
         y="6"
         rx="6"
         ry="6" />
    </clipPath>
    <clipPath
       clipPathUnits="userSpaceOnUse"
       id="clipPath4355-1">
      <rect
         style="fill:#ffffff;fill-opacity:1;fill-rule:nonzero;stroke:none"
         id="rect4357-9"
         width="84"
         height="80"
         x="6"
         y="6"
         rx="6"
         ry="6" />
    </clipPath>
    <clipPath
       clipPathUnits="userSpaceOnUse"
       id="clipPath3943-52-0">
      <path
         id="path3945-4-1"
         d="m 69.78125,20.84375 -5,3.4375 c 5.586891,5.537137 9,13.327613 9,21.8125 0,8.434478 -3.37723,16.095981 -8.90625,21.625 l 5,3.4375 C 76.078226,64.5762 80,55.843726 80,46.09375 c 2e-6,-9.796556 -3.962955,-18.660417 -10.21875,-25.25 z M 40,24.0625 28.90625,36.21875 H 21.5 c -0.823281,0 -1.5,0.676717 -1.5,1.5 v 1 14.84375 1 c 0,0.823281 0.684121,1.610161 1.5,1.5 h 7.40625 L 40,68 V 66 26.0625 Z m 20.59375,3.28125 -5,3.4375 L 55.5,30.875 c 3.93815,3.890071 6.40625,9.25018 6.40625,15.21875 0,5.920869 -2.42961,11.148358 -6.3125,15.03125 l 0.09375,0.09375 5.09375,3.4375 c 4.475428,-4.908367 7.25,-11.402005 7.25,-18.5625 0,-7.230696 -2.87904,-13.83107 -7.4375,-18.75 z m -9.25,6.5 -5.21875,3.625 c 2.222384,2.217802 3.71875,5.239596 3.71875,8.625 0,3.336509 -1.458847,6.227712 -3.625,8.4375 l 5.21875,3.625 c 2.822412,-3.236947 4.53125,-7.43414 4.53125,-12.0625 0,-4.672601 -1.754155,-9.001351 -4.625,-12.25 z"
         style="color:#000000;display:inline;overflow:visible;visibility:visible;opacity:0.8;fill:#ff00ff;fill-opacity:1;fill-rule:nonzero;stroke:none;stroke-width:1;marker:none;enable-background:accumulate"
         inkscape:connector-curvature="0" />
    </clipPath>
  </defs>
  <sodipodi:namedview
     id="base"
     pagecolor="#ffffff"
     bordercolor="#666666"
     borderopacity="1.0"
     inkscape:pageopacity="0.0"
     inkscape:pageshadow="2"
     inkscape:zoom="1.0399442"
     inkscape:cx="-22.259242"
     inkscape:cy="34.007904"
     inkscape:current-layer="g4085"
     showgrid="true"
     inkscape:grid-bbox="true"
     inkscape:document-units="px"
     inkscape:window-width="1280"
     inkscape:window-height="941"
     inkscape:window-x="0"
     inkscape:window-y="21"
     inkscape:window-maximized="1" />
  <metadata
     id="metadata5028">
    <rdf:RDF>
      <cc:Work
         rdf:about="">
        <dc:format>image/svg+xml</dc:format>
        <dc:type
           rdf:resource="http://purl.org/dc/dcmitype/StillImage" />
        <dc:title />
      </cc:Work>
    </rdf:RDF>
  </metadata>
  <g
     id="layer1"
     inkscape:label="Layer 1"
     inkscape:groupmode="layer"
     transform="translate(0,80)">
    <g
       id="g5148"
       transform="matrix(1.0034441,0,0,1.0049592,33.489303,-38.526762)">
      <g
         id="g4085"
         transform="matrix(0.97178685,0,0,0.97178682,0.40798707,0.18323223)">
        <rect
           style="display:none;fill:url(#linearGradient3617-6);fill-opacity:1;fill-rule:nonzero;stroke:none;stroke-width:0.98150092"
           id="rect3873"
           y="78.982849"
           x="-101.46812"
           ry="5.6374307"
           rx="6.1518073"
           height="78.924026"
           width="86.125298" />
        <rect
           style="display:none;fill:url(#linearGradient3878-4);fill-opacity:1;fill-rule:nonzero;stroke:none;stroke-width:0.98150092"
           id="rect3880"
           y="78.982849"
           x="-101.46812"
           ry="5.6374307"
           rx="6.1518073"
           height="78.924026"
           width="86.125298" />
        <path
           style="display:inline;opacity:0.15;fill:#000000;fill-opacity:1;fill-rule:nonzero;stroke:none;stroke-width:1.02472699"
           d="m 56.652901,-42.655252 h -84.384029 c -3.89572,0 -7.031995,3.131544 -7.031995,7.021398 V 48.62296 c 0,3.889856 3.136275,7.0214 7.031995,7.0214 h 84.384029 c 3.895729,0 7.032006,-3.131544 7.032006,-7.0214 v -84.256814 c 0,-3.889854 -3.136277,-7.021398 -7.032006,-7.021398 z"
           id="path3288"
           inkscape:connector-curvature="0" />
        <path
           inkscape:connector-curvature="0"
           id="path4085"
           d="m 55.993652,-41.887287 h -83.065531 c -3.834851,0 -6.92212,3.082614 -6.92212,6.911689 v 82.940301 c 0,3.829078 3.087269,6.911692 6.92212,6.911692 h 83.065531 c 3.834861,0 6.92213,-3.082614 6.92213,-6.911692 v -82.940301 c 0,-3.829075 -3.087269,-6.911689 -6.92213,-6.911689 z"
           style="display:inline;opacity:0.15;fill:#000000;fill-opacity:1;fill-rule:nonzero;stroke:none;stroke-width:1.02472699" />
        <path
           style="display:inline;fill:url(#linearGradient4071);fill-opacity:1;fill-rule:nonzero;stroke:none;stroke-width:1.02472699"
           d="m 55.334398,-41.119321 h -81.74702 c -3.773988,0 -6.812252,3.033683 -6.812252,6.80198 v 81.62379 c 0,3.768297 3.038264,6.801981 6.812252,6.801981 h 81.74702 c 3.773988,0 6.812249,-3.033684 6.812249,-6.801981 v -81.62379 c 0,-3.768297 -3.038261,-6.80198 -6.812249,-6.80198 z"
           id="rect4251-1-3"
           inkscape:connector-curvature="0" />
        <path
           style="display:inline;opacity:0.9;fill:#ff8c00;fill-opacity:1;fill-rule:nonzero;stroke:none;stroke-width:1.05495906"
           d="m -23.235175,-36.115111 c -2.929338,0 -5.254795,2.343195 -5.254795,5.294871 v 21.9406169 7.4128178 40.8697783 c 1.125219,1.724834 3.044555,2.879085 5.254795,2.879085 h 4.203836 67.261384 4.203836 c 2.210241,0 4.129576,-1.154251 5.254796,-2.879085 V -1.4668053 -8.8796231 -30.82024 c 0,-2.951676 -2.325458,-5.294871 -5.254796,-5.294871 z"
           id="path3400-6-6"
           inkscape:connector-curvature="0"
           sodipodi:nodetypes="sscccsccscccsss" />
        <g
           transform="translate(73.408788,-112.85046)"
           id="g1140">
          <path
             inkscape:connector-curvature="0"
             d="m -62.857615,87.602433 c -3.108869,0 -5.576158,2.602612 -5.576158,5.631749 v 1.535932 c -0.414047,0.160299 -0.811419,0.362724 -1.217782,0.543975 l -1.121641,-1.11995 c -0.907572,-0.906197 -2.268028,-1.682033 -3.90972,-1.695924 -1.433793,-0.01223 -2.878415,0.538173 -3.973813,1.631927 l -5.544111,5.535753 c -2.202579,2.199285 -2.055406,5.755115 0.06409,7.871645 l 1.121641,1.11995 c -0.181524,0.40575 -0.384256,0.80253 -0.544797,1.21595 h -1.53825 c -3.033713,0 -5.640252,2.46357 -5.640252,5.56775 v 7.80765 c 0,3.10418 2.606539,5.56775 5.640252,5.56775 h 1.53825 c 0.160541,0.41343 0.363273,0.8102 0.544797,1.21595 l -1.121641,1.11995 c -2.119699,2.11651 -2.266865,5.67241 -0.06409,7.87165 l 5.544111,5.53575 c 2.202529,2.19923 5.763764,2.05257 7.883533,-0.064 l 1.121641,-1.11995 c 0.406363,0.18126 0.803735,0.38368 1.217782,0.54398 v 1.53593 c 0,3.02914 2.467289,5.63175 5.576158,5.63175 h 7.819439 c 3.108863,0 5.576158,-2.60261 5.576158,-5.63175 v -1.53593 c 0.414047,-0.1603 0.811419,-0.36272 1.217782,-0.54398 l 1.121641,1.11995 c 2.119771,2.11659 5.681004,2.26321 7.883533,0.064 l 5.544111,-5.53575 c 2.202582,-2.19928 2.055412,-5.75511 -0.06409,-7.87165 l -1.121641,-1.11995 c 0.181523,-0.40575 0.384256,-0.80252 0.544797,-1.21595 h 1.53825 c 3.033707,0 5.640252,-2.46356 5.640252,-5.56775 v -7.80765 c 0,-3.10418 -2.606544,-5.56775 -5.640252,-5.56775 h -1.53825 c -0.160541,-0.41342 -0.363274,-0.8102 -0.544797,-1.21595 l 1.121641,-1.11995 c 2.119683,-2.11649 2.266903,-5.6724 0.06409,-7.871645 l -5.544111,-5.535753 c -2.20253,-2.1992 -5.763761,-2.052581 -7.883533,0.064 l -1.121641,1.11995 c -0.406363,-0.181251 -0.803735,-0.383676 -1.217782,-0.543975 v -1.535932 c 0,-3.029145 -2.467296,-5.631749 -5.576158,-5.631749 z m 3.909719,26.814807 c 2.786374,0 4.935221,2.14561 4.935221,4.92778 0,2.78217 -2.148846,4.92778 -4.935221,4.92778 -2.786356,0 -4.93522,-2.14562 -4.93522,-4.92778 0,-2.78216 2.148864,-4.92778 4.93522,-4.92778 z"
             id="path3706"
             style="display:block;overflow:visible;visibility:visible;opacity:0.05;fill:#000000;fill-opacity:1;stroke:none;stroke-width:1.02472699;marker:none;enable-background:accumulate" />
          <path
             inkscape:connector-curvature="0"
             d="m -62.857615,88.658386 c -2.52833,0 -4.518611,2.105774 -4.518611,4.575796 v 2.2399 c -0.868332,0.313508 -1.715698,0.657894 -2.531704,1.055953 l -1.602344,-1.599929 c -0.74786,-0.746727 -1.852243,-1.364766 -3.172642,-1.375938 -1.169551,-0.01 -2.346871,0.423412 -3.236735,1.311941 l -5.544111,5.535751 c -1.785542,1.78287 -1.659432,4.6786 0.06409,6.39972 l 1.602344,1.59993 c -0.398659,0.81477 -0.743565,1.66086 -1.057547,2.52788 h -2.243282 c -2.473754,0 -4.582705,1.98728 -4.582705,4.5118 v 7.80765 c 0,2.52452 2.108951,4.5118 4.582705,4.5118 h 2.243282 c 0.313982,0.86702 0.658888,1.71311 1.057547,2.52789 l -1.602344,1.59993 c -1.723688,1.72109 -1.849793,4.61688 -0.06409,6.39971 l 5.544111,5.53575 c 1.785507,1.78284 4.685637,1.65715 6.409377,-0.064 L -69.90793,142.16 c 0.816006,0.39806 1.663372,0.74244 2.531704,1.05595 v 2.2399 c 0,2.47002 1.990281,4.5758 4.518611,4.5758 h 7.819439 c 2.528324,0 4.518611,-2.10577 4.518611,-4.5758 v -2.2399 c 0.868332,-0.31351 1.715698,-0.65789 2.531704,-1.05595 l 1.602344,1.59993 c 1.72374,1.72114 4.623868,1.84681 6.409377,0.064 l 5.544111,-5.53575 c 1.785544,-1.78287 1.659436,-4.6786 -0.06409,-6.39971 l -1.602344,-1.59993 c 0.398659,-0.81478 0.743565,-1.66086 1.057547,-2.52789 h 2.243282 c 2.473748,0 4.582705,-1.98728 4.582705,-4.5118 v -7.80765 c 0,-2.52452 -2.108956,-4.5118 -4.582705,-4.5118 h -2.243282 c -0.313982,-0.86702 -0.658888,-1.71311 -1.057547,-2.52788 l 1.602344,-1.59993 c 1.723676,-1.72109 1.849822,-4.61688 0.06409,-6.39972 l -5.544111,-5.535751 c -1.78551,-1.78281 -4.685636,-1.657146 -6.409377,0.064 l -1.602344,1.599929 c -0.816006,-0.398059 -1.663372,-0.742445 -2.531704,-1.055953 v -2.2399 c 0,-2.470029 -1.990288,-4.575796 -4.518611,-4.575796 z m 3.909719,24.702894 c 3.339384,0 5.992768,2.64939 5.992768,5.98374 0,3.33434 -2.653384,5.98373 -5.992768,5.98373 -3.339369,0 -5.992767,-2.64939 -5.992767,-5.98373 0,-3.33434 2.653398,-5.98374 5.992767,-5.98374 z"
             id="path3702"
             style="display:block;overflow:visible;visibility:visible;opacity:0.07999998;fill:#000000;fill-opacity:1;stroke:none;stroke-width:1.02472699;marker:none;enable-background:accumulate" />
          <path
             d="m -62.841948,90.162421 c -1.10986,0 -2.008521,0.919289 -2.008521,2.046412 v 3.970041 c -1.984494,0.527948 -3.880684,1.325403 -5.615634,2.332911 l -2.828318,-2.82405 c -0.399103,-0.398498 -0.877181,-0.609555 -1.393658,-0.613925 -0.516476,-0.0044 -1.04226,0.181196 -1.434648,0.572996 l -5.533664,5.525314 c -0.784776,0.7836 -0.757204,2.02706 0.04091,2.82405 l 2.828318,2.82405 c -1.009025,1.73233 -1.80768,3.62567 -2.336438,5.60717 h -3.976031 c -1.128823,0 -2.049504,0.89731 -2.049504,2.00549 v 7.77637 c 0,1.10818 0.920681,2.00548 2.049504,2.00548 h 3.976031 c 0.528758,1.98151 1.327413,3.87485 2.336438,5.60717 l -2.828318,2.82405 c -0.798197,0.797 -0.825768,2.04045 -0.04091,2.82405 l 5.533664,5.52532 c 0.784776,0.7836 2.03011,0.75606 2.828306,-0.0409 l 2.828318,-2.82405 c 1.73495,1.00751 3.63114,1.80496 5.615634,2.33291 v 3.97004 c 0,1.12713 0.898661,2.04642 2.008521,2.04642 h 7.788109 c 1.10985,0 2.00851,-0.91929 2.00851,-2.04642 v -3.97004 c 1.984494,-0.52795 3.880684,-1.3254 5.615634,-2.33291 l 2.828318,2.82405 c 0.798196,0.797 2.04353,0.82453 2.828317,0.0409 l 5.533652,-5.52532 c 0.784778,-0.7836 0.757206,-2.02705 -0.04091,-2.82405 l -2.828306,-2.82405 c 1.009023,-1.73232 1.807679,-3.62566 2.336426,-5.60717 h 3.976042 c 1.128813,0 2.049501,-0.8973 2.049501,-2.00548 v -7.77637 c 0,-1.10818 -0.920688,-2.00549 -2.049501,-2.00549 h -3.976042 c -0.528743,-1.9815 -1.327398,-3.87484 -2.336422,-5.60717 l 2.828306,-2.82405 c 0.798196,-0.79699 0.825779,-2.04045 0.04091,-2.82405 l -5.533652,-5.525314 c -0.784787,-0.783602 -2.030121,-0.756067 -2.828317,0.04093 l -2.828318,2.82405 c -1.73495,-1.007508 -3.63114,-1.804963 -5.615634,-2.332911 v -3.970041 c 0,-1.127123 -0.89866,-2.046413 -2.00851,-2.046413 h -7.788109 z m 3.894049,19.645559 c 4.706321,0 8.525934,3.81386 8.525934,8.51308 0,4.69922 -3.819613,8.51308 -8.525934,8.51308 -4.70631,0 -8.525933,-3.81386 -8.525933,-8.51308 0,-4.69922 3.819623,-8.51308 8.525933,-8.51308 z"
             inkscape:connector-curvature="0"
             id="rect3267"
             style="display:block;overflow:visible;visibility:visible;fill:url(#linearGradient3804-6);fill-opacity:1;fill-rule:nonzero;stroke:url(#linearGradient3806-9);stroke-width:1.02472699;stroke-linecap:butt;stroke-linejoin:round;stroke-miterlimit:4;stroke-dasharray:none;stroke-dashoffset:0;stroke-opacity:1;marker:none;enable-background:accumulate" />
          <path
             d="m -58.947899,100.64005 c -9.764027,0 -17.7077,7.9317 -17.7077,17.68101 0,9.74931 7.943673,17.68101 17.7077,17.68101 9.764028,0 17.707711,-7.9317 17.707711,-17.68101 0,-9.74931 -7.943683,-17.68101 -17.707711,-17.68101 z"
             inkscape:connector-curvature="0"
             id="path28"
             style="fill:none;stroke:url(#linearGradient3801-4);stroke-width:2.04945397;stroke-miterlimit:4;stroke-dasharray:none" />
        </g>
        <path
           inkscape:connector-curvature="0"
           id="path4989-0"
           d="m -24.687502,-37.812501 c -3.196096,0 -5.8125,2.600343 -5.8125,5.781251 v 70.937502 c 0,3.180908 2.616404,5.78125 5.8125,5.78125 h 78.749998 c 3.196096,0 5.812503,-2.600342 5.812503,-5.78125 V -32.03125 c 0,-3.180907 -2.616407,-5.781251 -5.812503,-5.781251 z m 0,2.375 h 78.749998 c 1.936247,0 3.4375,1.51555 3.4375,3.406251 v 70.937502 c 0,1.890705 -1.501253,3.406249 -3.4375,3.406249 h -78.749998 c -1.936246,0 -3.4375,-1.515544 -3.4375,-3.406249 V -32.03125 c 0,-1.890701 1.501254,-3.406251 3.4375,-3.406251 z"
           style="color:#000000;font-style:normal;font-variant:normal;font-weight:normal;font-stretch:normal;font-size:medium;line-height:normal;font-family:Sans;-inkscape-font-specification:Sans;text-indent:0;text-align:start;text-decoration:none;text-decoration-line:none;letter-spacing:normal;word-spacing:normal;text-transform:none;writing-mode:lr-tb;direction:ltr;baseline-shift:baseline;text-anchor:start;display:inline;overflow:visible;visibility:visible;fill:#1f2224;fill-opacity:0.63265303;stroke:none;stroke-width:2.43423915;marker:none;enable-background:accumulate" />
        <path
           inkscape:connector-curvature="0"
           style="display:inline;opacity:0.65818182;fill:url(#linearGradient4129);fill-opacity:1;fill-rule:nonzero;stroke:none;stroke-width:1.02472699"
           d="m -33.224875,41.149007 v 6.143726 c 0,3.768297 3.051999,6.815696 6.825986,6.815696 h 81.719555 c 3.773988,0 6.825991,-3.047399 6.825991,-6.815696 v -6.143726 c 0,3.768298 -3.052003,6.815696 -6.825991,6.815696 h -81.719555 c -3.773987,0 -6.825986,-3.047398 -6.825986,-6.815696 z"
           id="path4118" />
        <rect
           style="opacity:0.55;fill:url(#radialGradient7462);fill-opacity:1;stroke:none;stroke-width:1.02472699"
           id="rect4131"
           width="86.398407"
           height="4.3518057"
           x="-29.25106"
           y="39.517086"
           rx="4.3583765"
           ry="4.3518057" />
        <rect
           ry="4.3583765"
           rx="4.3518057"
           y="-57.61908"
           x="-36.96207"
           height="4.3583765"
           width="78.588493"
           id="rect4141"
           style="opacity:0.669;fill:url(#radialGradient7464);fill-opacity:1;stroke:none;stroke-width:1.02472699"
           transform="rotate(90)" />
        <rect
           transform="matrix(1.0965112,0,0,1.0727794,-30.358369,-3.2545281)"
           style="opacity:0.65;fill:url(#linearGradient4767);fill-opacity:1;stroke:none"
           id="rect4146"
           width="75.965775"
           height="69.024437"
           x="2"
           y="-30"
           rx="3.9569874"
           ry="3.9569881"
           clip-path="url(#clipPath4156-4-1)" />
      </g>
    </g>
  </g>
</svg>
