<?xml version="1.0" encoding="UTF-8" standalone="no"?>
<!-- Created with Inkscape (http://www.inkscape.org/) -->

<svg
   xmlns:dc="http://purl.org/dc/elements/1.1/"
   xmlns:cc="http://creativecommons.org/ns#"
   xmlns:rdf="http://www.w3.org/1999/02/22-rdf-syntax-ns#"
   xmlns:svg="http://www.w3.org/2000/svg"
   xmlns="http://www.w3.org/2000/svg"
   xmlns:xlink="http://www.w3.org/1999/xlink"
   xmlns:sodipodi="http://sodipodi.sourceforge.net/DTD/sodipodi-0.dtd"
   xmlns:inkscape="http://www.inkscape.org/namespaces/inkscape"
   width="96"
   height="96"
   viewBox="0 0 96.000001 96.000004"
   version="1.1"
   id="svg1072"
   inkscape:version="0.92.1 r15371"
   sodipodi:docname="chrome-okdgofnjkaimfebepijgaoimfphblkpd-Default.svg">
  <title
     id="title4179">Lila-HD-Icon-Theme</title>
  <defs
     id="defs1066">
    <linearGradient
       y2="47.000011"
       x2="90"
       y1="47.000011"
       x1="6"
       gradientTransform="matrix(1.1059895,0,0,1.1071426,-5.2385469,-3.3706609)"
       gradientUnits="userSpaceOnUse"
       id="linearGradient4071"
       xlink:href="#linearGradient6139-0"
       inkscape:collect="always" />
    <linearGradient
       id="linearGradient6139-0">
      <stop
         style="stop-color:#b2babc;stop-opacity:1"
         offset="0"
         id="stop6141-2" />
      <stop
         id="stop6151-0"
         offset="0.25"
         style="stop-color:#ffffff;stop-opacity:1;" />
      <stop
         id="stop6147-1"
         offset="0.5"
         style="stop-color:#96a1a4;stop-opacity:1" />
      <stop
         style="stop-color:#fbf9f9;stop-opacity:1;"
         offset="0.75"
         id="stop6149-4" />
      <stop
         style="stop-color:#b2b9bc;stop-opacity:1"
         offset="1"
         id="stop6143-4" />
    </linearGradient>
    <linearGradient
       gradientUnits="userSpaceOnUse"
       y2="88.171875"
       x2="94.5"
       y1="88.171875"
       x1="1.5"
       id="linearGradient4129"
       xlink:href="#linearGradient3832-0-6-1-1"
       inkscape:collect="always"
       gradientTransform="matrix(0.99895835,0,0,0.99999997,-0.10104801,0.66505199)" />
    <linearGradient
       id="linearGradient3832-0-6-1-1">
      <stop
         id="stop3834-6-3-7-1"
         offset="0"
         style="stop-color:#000000;stop-opacity:1;" />
      <stop
         style="stop-color:#000000;stop-opacity:0.58823532;"
         offset="0.1"
         id="stop3872-2-4" />
      <stop
         id="stop3844-6-2-7-6"
         offset="0.89999998"
         style="stop-color:#000000;stop-opacity:0.58823532;" />
      <stop
         id="stop3836-5-0-2-9"
         offset="1"
         style="stop-color:#000000;stop-opacity:1;" />
    </linearGradient>
    <radialGradient
       r="43.199203"
       fy="44.892841"
       fx="13.948145"
       cy="44.892841"
       cx="13.948145"
       gradientTransform="matrix(0.97411799,0,0,0.04919072,33.762335,80.831749)"
       gradientUnits="userSpaceOnUse"
       id="radialGradient7462"
       xlink:href="#linearGradient3737"
       inkscape:collect="always" />
    <linearGradient
       id="linearGradient3737">
      <stop
         id="stop3739"
         style="stop-color:#ffffff;stop-opacity:1"
         offset="0" />
      <stop
         id="stop3741"
         style="stop-color:#ffffff;stop-opacity:0"
         offset="1" />
    </linearGradient>
    <radialGradient
       r="43.199203"
       fy="44.892841"
       fx="13.948145"
       cy="44.892841"
       cx="13.948145"
       gradientTransform="matrix(0.88832662,0,0,0.04913948,32.209544,-89.973331)"
       gradientUnits="userSpaceOnUse"
       id="radialGradient7464"
       xlink:href="#linearGradient3737"
       inkscape:collect="always" />
    <linearGradient
       y2="14.514202"
       x2="50.527882"
       y1="-28.64156"
       x1="2.7713892"
       gradientUnits="userSpaceOnUse"
       id="linearGradient4767"
       xlink:href="#linearGradient3737"
       inkscape:collect="always"
       gradientTransform="matrix(1.0041884,0,0,1.0052356,-0.21820995,-0.04755458)" />
    <clipPath
       clipPathUnits="userSpaceOnUse"
       id="clipPath4156-4-1">
      <path
         style="opacity:0.6;fill:#ffffff;fill-opacity:1;stroke:none"
         d="m 27.046336,-55.695463 -14.21366,13.321486 h 0.06127 l 15.653407,21.770763 10.231384,-10.546177 C 38.561832,-32.30156 27.468089,-54.819245 27.046336,-55.695463 Z M 9.6468554,-39.382809 -5.2407289,-25.32124 15.987863,-7.8059573 26.372412,-18.382966 Z m 31.4906096,12.951445 -9.741259,9.713584 8.944804,12.4580526 7.780753,-7.5550056 z m -49.8397109,4.378822 -13.7541661,12.9822847 26.2830181,13.84571 0.06127,-0.0617 -0.122531,-0.0617 L 13.598503,-5.4007374 -8.7022409,-22.052595 Z m 38.0154159,7.400825 -9.802525,9.7752596 11.579232,9.5594001 7.62759,-7.40083 -8.669108,-11.0087257 z m 20.187073,5.6739697 -7.382526,7.2158 6.187844,8.54179 5.820249,-6.13651996 z m -32.195166,6.32154 -9.5574606,9.49772 13.6622686,7.1849703 7.933918,-7.6783603 z m 23.311629,2.37443004 -7.10683,6.93826996 8.362778,6.9074403 5.360756,-5.6739699 -0.06127,-0.0925 -0.0919,0.12335 -6.463539,-8.20258036 z m -8.730374,8.54178036 -7.505057,7.3391599 10.353916,5.45811 c 1.397496,-1.32103 5.67514,-6.12292 5.850882,-6.32154 z"
         id="path4158-0-8"
         inkscape:connector-curvature="0" />
    </clipPath>
    <linearGradient
       gradientUnits="userSpaceOnUse"
       y2="7.0165396"
       x2="45.447727"
       y1="92.539597"
       x1="45.447727"
       gradientTransform="scale(1.0058652,0.994169)"
       id="ButtonShadow-16">
      <stop
         id="stop3750-6"
         offset="0"
         style="stop-color:#000000;stop-opacity:1;" />
      <stop
         id="stop3752-4"
         offset="1"
         style="stop-color:#000000;stop-opacity:0.58823532;" />
    </linearGradient>
    <clipPath
       id="clipPath4355-7"
       clipPathUnits="userSpaceOnUse">
      <rect
         ry="6"
         rx="6"
         y="6"
         x="6"
         height="80"
         width="84"
         id="rect4357-5"
         style="fill:#ffffff;fill-opacity:1;fill-rule:nonzero;stroke:none" />
    </clipPath>
    <clipPath
       id="clipPath4355-9"
       clipPathUnits="userSpaceOnUse">
      <rect
         ry="6"
         rx="6"
         y="6"
         x="6"
         height="80"
         width="84"
         id="rect4357-1"
         style="fill:#ffffff;fill-opacity:1;fill-rule:nonzero;stroke:none" />
    </clipPath>
    <clipPath
       id="clipPath4355-1"
       clipPathUnits="userSpaceOnUse">
      <rect
         ry="6"
         rx="6"
         y="6"
         x="6"
         height="80"
         width="84"
         id="rect4357-9"
         style="fill:#ffffff;fill-opacity:1;fill-rule:nonzero;stroke:none" />
    </clipPath>
    <clipPath
       id="clipPath3943-52-0"
       clipPathUnits="userSpaceOnUse">
      <path
         inkscape:connector-curvature="0"
         style="color:#000000;display:inline;overflow:visible;visibility:visible;opacity:0.8;fill:#ff00ff;fill-opacity:1;fill-rule:nonzero;stroke:none;stroke-width:1;marker:none;enable-background:accumulate"
         d="m 69.78125,20.84375 -5,3.4375 c 5.586891,5.537137 9,13.327613 9,21.8125 0,8.434478 -3.37723,16.095981 -8.90625,21.625 l 5,3.4375 C 76.078226,64.5762 80,55.843726 80,46.09375 c 2e-6,-9.796556 -3.962955,-18.660417 -10.21875,-25.25 z M 40,24.0625 28.90625,36.21875 H 21.5 c -0.823281,0 -1.5,0.676717 -1.5,1.5 v 1 14.84375 1 c 0,0.823281 0.684121,1.610161 1.5,1.5 h 7.40625 L 40,68 V 66 26.0625 Z m 20.59375,3.28125 -5,3.4375 L 55.5,30.875 c 3.93815,3.890071 6.40625,9.25018 6.40625,15.21875 0,5.920869 -2.42961,11.148358 -6.3125,15.03125 l 0.09375,0.09375 5.09375,3.4375 c 4.475428,-4.908367 7.25,-11.402005 7.25,-18.5625 0,-7.230696 -2.87904,-13.83107 -7.4375,-18.75 z m -9.25,6.5 -5.21875,3.625 c 2.222384,2.217802 3.71875,5.239596 3.71875,8.625 0,3.336509 -1.458847,6.227712 -3.625,8.4375 l 5.21875,3.625 c 2.822412,-3.236947 4.53125,-7.43414 4.53125,-12.0625 0,-4.672601 -1.754155,-9.001351 -4.625,-12.25 z"
         id="path3945-4-1" />
    </clipPath>
    <clipPath
       id="clipPath4532">
      <rect
         id="rect4530"
         height="384"
         width="384" />
    </clipPath>
    <clipPath
       id="clipPath4536">
      <rect
         id="rect4534"
         height="384"
         width="384" />
    </clipPath>
    <clipPath
       id="clipPath4540">
      <rect
         id="rect4538"
         height="384"
         width="384" />
    </clipPath>
  </defs>
  <sodipodi:namedview
     id="base"
     pagecolor="#ffffff"
     bordercolor="#666666"
     borderopacity="1.0"
     inkscape:pageopacity="0.0"
     inkscape:pageshadow="2"
     inkscape:zoom="7.8645833"
     inkscape:cx="48"
     inkscape:cy="48"
     inkscape:document-units="px"
     inkscape:current-layer="g873"
     showgrid="false"
     inkscape:showpageshadow="false"
     units="px"
     inkscape:lockguides="true"
     inkscape:window-width="1920"
     inkscape:window-height="994"
     inkscape:window-x="0"
     inkscape:window-y="21"
     inkscape:window-maximized="1"
     inkscape:snap-global="false">
    <sodipodi:guide
       position="0,0"
       orientation="0,96"
       id="guide1621"
       inkscape:locked="true" />
    <sodipodi:guide
       position="96.000002,0"
       orientation="-96,0"
       id="guide1623"
       inkscape:locked="true" />
    <sodipodi:guide
       position="96.000002,96.000002"
       orientation="0,-96"
       id="guide1625"
       inkscape:locked="true" />
    <sodipodi:guide
       position="0,96.000002"
       orientation="96,0"
       id="guide1627"
       inkscape:locked="true" />
  </sodipodi:namedview>
  <metadata
     id="metadata1069">
    <rdf:RDF>
      <cc:Work
         rdf:about="">
        <dc:format>image/svg+xml</dc:format>
        <dc:type
           rdf:resource="http://purl.org/dc/dcmitype/StillImage" />
        <dc:title>Lila-HD-Icon-Theme</dc:title>
        <dc:date>2015-2017</dc:date>
        <dc:creator>
          <cc:Agent>
            <dc:title>Cristian Pozzessere  &lt; ilnanny &gt;</dc:title>
          </cc:Agent>
        </dc:creator>
        <dc:subject>
          <rdf:Bag>
            <rdf:li>ilnanny</rdf:li>
            <rdf:li>lila_hd</rdf:li>
            <rdf:li>lila-hd</rdf:li>
            <rdf:li>lila hd icon theme</rdf:li>
            <rdf:li>Lila-HD-Icon-Theme lila hd icon lila icon</rdf:li>
          </rdf:Bag>
        </dc:subject>
        <dc:description>Playing with Inkscape on Gnu/Linux O. S.</dc:description>
        <dc:contributor>
          <cc:Agent>
            <dc:title>In the night, alone like a dog.</dc:title>
          </cc:Agent>
        </dc:contributor>
        <cc:license
           rdf:resource="http://creativecommons.org/licenses/by-sa/3.0/" />
      </cc:Work>
      <cc:License
         rdf:about="http://creativecommons.org/licenses/by-sa/3.0/">
        <cc:permits
           rdf:resource="http://creativecommons.org/ns#Reproduction" />
        <cc:permits
           rdf:resource="http://creativecommons.org/ns#Distribution" />
        <cc:requires
           rdf:resource="http://creativecommons.org/ns#Notice" />
        <cc:requires
           rdf:resource="http://creativecommons.org/ns#Attribution" />
        <cc:permits
           rdf:resource="http://creativecommons.org/ns#DerivativeWorks" />
        <cc:requires
           rdf:resource="http://creativecommons.org/ns#ShareAlike" />
      </cc:License>
    </rdf:RDF>
  </metadata>
  <g
     inkscape:label="Livello 1"
     inkscape:groupmode="layer"
     id="layer1"
     transform="translate(0,-1026.5197)">
    <g
       transform="translate(-0.14895645,1026.1047)"
       style="display:inline"
       id="g2574">
      <g
         id="g873"
         transform="translate(0.2500015,-0.250026)">
        <path
           style="display:inline;opacity:0.15;fill:#000000;fill-opacity:1;fill-rule:nonzero;stroke:none;stroke-width:0.99947876"
           d="M 88.827522,0.915026 H 6.9703768 c -3.7790623,0 -6.8214209,3.0423565 -6.8214209,6.8214257 V 89.593598 c 0,3.779071 3.0423586,6.821428 6.8214209,6.821428 H 88.827522 c 3.779072,0 6.821432,-3.042357 6.821432,-6.821428 V 7.7364517 c 0,-3.7790692 -3.04236,-6.8214257 -6.821432,-6.8214257 z"
           id="path3288"
           inkscape:connector-curvature="0" />
        <path
           inkscape:connector-curvature="0"
           id="path4085"
           d="M 88.188015,1.6611196 H 7.6098844 c -3.7200154,0 -6.71483658,2.9948194 -6.71483658,6.7148408 V 88.954089 c 0,3.720023 2.99482118,6.714843 6.71483658,6.714843 H 88.188015 c 3.720024,0 6.714845,-2.99482 6.714845,-6.714843 V 8.3759604 c 0,-3.7200214 -2.994821,-6.7148408 -6.714845,-6.7148408 z"
           style="display:inline;opacity:0.15;fill:#000000;fill-opacity:1;fill-rule:nonzero;stroke:none;stroke-width:0.99947876" />
        <path
           style="display:inline;fill:url(#linearGradient4071);fill-opacity:1;fill-rule:nonzero;stroke:none;stroke-width:0.99947876"
           d="M 87.5485,2.4072135 H 8.2494003 c -3.6609756,0 -6.6082583,2.9472821 -6.6082583,6.6082567 V 88.314581 c 0,3.660975 2.9472827,6.608259 6.6082583,6.608259 H 87.5485 c 3.660978,0 6.608258,-2.947284 6.608258,-6.608259 V 9.0154702 c 0,-3.6609746 -2.94728,-6.6082567 -6.608258,-6.6082567 z"
           id="rect4251-1"
           inkscape:connector-curvature="0" />
        <rect
           ry="3.5"
           rx="3.4963541"
           y="7.1843128"
           x="5.8397818"
           height="77.021454"
           width="84.557999"
           id="rect862"
           style="opacity:1;fill:#ff0000;fill-opacity:0.97169812;stroke:none;stroke-width:0.71123183;stroke-miterlimit:4;stroke-dasharray:none;stroke-opacity:1" />
        <path
           inkscape:connector-curvature="0"
           id="path4989"
           d="m 9.9228616,5.6198544 c -3.1003887,0 -5.6384442,2.5262833 -5.6384442,5.6165966 v 68.917174 c 0,3.090315 2.5380555,5.616599 5.6384442,5.616599 H 86.314686 c 3.100391,0 5.638448,-2.526284 5.638448,-5.616599 V 11.236451 c 0,-3.0903123 -2.538057,-5.6165966 -5.638448,-5.6165966 z m 0,2.3073585 H 86.314686 c 1.878266,0 3.334565,1.4723861 3.334565,3.3092381 v 68.917174 c 0,1.836856 -1.456299,3.309239 -3.334565,3.309239 H 9.9228616 c -1.8782653,0 -3.3345636,-1.472383 -3.3345636,-3.309239 V 11.236451 c 0,-1.836852 1.4562983,-3.3092381 3.3345636,-3.3092381 z"
           style="color:#000000;font-style:normal;font-variant:normal;font-weight:normal;font-stretch:normal;font-size:medium;line-height:normal;font-family:Sans;-inkscape-font-specification:Sans;text-indent:0;text-align:start;text-decoration:none;text-decoration-line:none;letter-spacing:normal;word-spacing:normal;text-transform:none;writing-mode:lr-tb;direction:ltr;baseline-shift:baseline;text-anchor:start;display:inline;overflow:visible;visibility:visible;fill:#202223;fill-opacity:0.93689324;stroke:none;stroke-width:2.37426257;marker:none;enable-background:accumulate" />
        <path
           inkscape:connector-curvature="0"
           style="display:inline;opacity:0.65818182;fill:url(#linearGradient4129);fill-opacity:1;fill-rule:nonzero;stroke:none;stroke-width:0.99947876"
           d="m 1.641141,82.332506 v 5.96875 c 0,3.660975 2.9606059,6.621583 6.6215813,6.621583 H 87.53518 c 3.660978,0 6.621588,-2.960608 6.621588,-6.621583 v -5.96875 c 0,3.660975 -2.96061,6.621583 -6.621588,6.621583 H 8.2627223 c -3.6609754,0 -6.6215813,-2.960608 -6.6215813,-6.621583 z"
           id="path4118" />
        <rect
           style="opacity:0.55;fill:url(#radialGradient7462);fill-opacity:1;stroke:none;stroke-width:0.99947876"
           id="rect4131"
           width="83.811203"
           height="4.2278652"
           x="5.4959588"
           y="80.747047"
           rx="4.25"
           ry="4.25" />
        <rect
           ry="4.245573"
           rx="4.245573"
           y="-89.764748"
           x="6.4460635"
           height="4.2278652"
           width="76.350258"
           id="rect4141"
           style="opacity:0.669;fill:url(#radialGradient7464);fill-opacity:1;stroke:none;stroke-width:0.99947876"
           transform="rotate(90)" />
        <rect
           transform="matrix(1.0636761,0,0,1.0422264,4.4218092,39.193603)"
           style="opacity:0.65;fill:url(#linearGradient4767);fill-opacity:1;stroke:none;stroke-width:1.00471163"
           id="rect4146"
           width="75.965775"
           height="69.024437"
           x="2"
           y="-30"
           rx="3.973561"
           ry="3.9777055"
           clip-path="url(#clipPath4156-4-1)" />
        <path
           id="path4548"
           d="m 47.899042,8.380153 c -11.52124,0.01653 -22.35004,5.503 -29.177146,14.783613 l 11.183186,19.361626 c 0.01893,-0.170093 0.04013,-0.340173 0.06373,-0.510267 0.08853,-0.598866 0.206706,-1.191799 0.35436,-1.778839 0.148826,-0.58468 0.326,-1.16228 0.53152,-1.72924 0.177173,-0.490187 0.375613,-0.973294 0.59532,-1.445734 0.0484,-0.109866 0.098,-0.21852 0.148826,-0.326 0.201987,-0.409866 0.41932,-0.811453 0.652,-1.2048 0.072,-0.1264 0.14528,-0.251586 0.219693,-0.375613 0.262214,-0.42048 0.540987,-0.829173 0.836254,-1.226053 0.05547,-0.08387 0.112266,-0.166547 0.170093,-0.24804 0.28584,-0.370907 0.585853,-0.729974 0.900067,-1.077227 0.098,-0.114533 0.197253,-0.227973 0.29764,-0.340173 0.26932,-0.28348 0.549253,-0.557534 0.836266,-0.82212 0.171267,-0.166534 0.346067,-0.329534 0.52444,-0.489 0.24332,-0.20316 0.491374,-0.399227 0.744134,-0.588214 0.231506,-0.187813 0.467746,-0.369693 0.708706,-0.545706 0.250414,-0.172454 0.505547,-0.337827 0.765387,-0.49608 0.188987,-0.1264 0.380333,-0.249227 0.57404,-0.368547 0.0732,-0.03893 0.146453,-0.0768 0.219693,-0.113333 0.14056,-0.078 0.282307,-0.15356 0.4252,-0.226787 0.297667,-0.154733 0.601227,-0.3012 0.907147,-0.439386 0.294107,-0.13584 0.591747,-0.2634 0.892947,-0.382694 0.248053,-0.098 0.49844,-0.19016 0.751226,-0.276386 0.316574,-0.108667 0.63548,-0.207894 0.95676,-0.297667 0.28112,-0.078 0.565787,-0.148813 0.85044,-0.2126 0.29648,-0.06853 0.59412,-0.13 0.89296,-0.184267 0.289387,-0.052 0.57996,-0.0968 0.871693,-0.134653 0.315387,-0.03893 0.63192,-0.06973 0.949654,-0.09213 0.2764,-0.02013 0.552786,-0.03427 0.829186,-0.04253 0.174814,-0.012 0.350814,-0.0224 0.525627,-0.0296 H 79.265854 C 72.795548,15.313713 60.843121,8.400126 47.900095,8.378953 Z M 16.496989,26.552526 c -3.186773,5.505413 -4.871026,11.751346 -4.882813,18.113106 0,20.03956 16.245906,36.285466 36.285466,36.285466 4.998626,-0.01533 9.939506,-1.06304 14.514186,-3.077013 v -22.33128 c -0.06733,0.08733 -0.135827,0.174813 -0.20552,0.262213 -0.152373,0.190174 -0.30828,0.3768 -0.467747,0.55988 -0.2256,0.27404 -0.459466,0.540987 -0.701613,0.800827 -0.18308,0.18544 -0.36968,0.367333 -0.55988,0.545707 -0.248053,0.24332 -0.503187,0.479533 -0.765387,0.708706 -0.201973,0.167734 -0.40748,0.330747 -0.616573,0.489014 -0.25632,0.20788 -0.51852,0.408693 -0.78668,0.6024 -0.2504,0.171266 -0.50672,0.33664 -0.765373,0.49608 -0.188987,0.1264 -0.380333,0.249226 -0.57404,0.368546 -0.0732,0.03773 -0.146467,0.0756 -0.219693,0.113334 -0.14056,0.078 -0.282307,0.153546 -0.425214,0.226786 -0.298826,0.154734 -0.601213,0.301187 -0.907133,0.439387 -0.294107,0.135827 -0.591747,0.2634 -0.892947,0.382693 -0.248053,0.098 -0.498453,0.19016 -0.75124,0.276387 -0.31656,0.107467 -0.63548,0.206707 -0.956746,0.297653 -0.282307,0.078 -0.565787,0.148827 -0.850454,0.212614 -0.296466,0.06853 -0.594106,0.129866 -0.892946,0.184266 -0.289387,0.052 -0.57996,0.0968 -0.871694,0.134654 -0.315386,0.03893 -0.63192,0.06973 -0.949653,0.09213 -0.2764,0.02013 -0.552787,0.03427 -0.829187,0.04253 -0.173626,0.012 -0.348426,0.0212 -0.522093,0.0284 -0.22324,-0.0027 -0.44528,-0.0093 -0.66852,-0.0212 -0.0992,-0.004 -0.19844,-0.008 -0.297653,-0.01413 -0.39688,-0.0248 -0.793747,-0.06267 -1.18944,-0.112267 -0.219707,-0.0236 -0.438214,-0.0496 -0.656734,-0.08027 -0.373266,-0.06373 -0.745306,-0.1382 -1.113853,-0.225614 -0.22324,-0.04493 -0.446493,-0.09453 -0.66852,-0.14764 -0.35672,-0.09573 -0.71108,-0.20316 -1.063053,-0.320093 -0.226773,-0.0732 -0.45356,-0.150013 -0.677987,-0.23152 -0.30356,-0.118133 -0.603586,-0.244493 -0.900066,-0.377973 -0.275214,-0.115734 -0.54688,-0.237414 -0.816174,-0.366147 -0.24096,-0.1252 -0.479546,-0.25632 -0.714613,-0.39216 -0.290573,-0.155907 -0.575213,-0.31892 -0.856347,-0.490187 -0.231506,-0.14764 -0.45828,-0.3012 -0.682706,-0.46064 -0.28348,-0.190173 -0.56224,-0.388613 -0.833894,-0.59532 -0.19136,-0.152373 -0.37916,-0.30828 -0.563426,-0.467746 -0.272854,-0.225614 -0.5386,-0.459467 -0.79728,-0.70044 -0.186627,-0.181894 -0.36972,-0.368534 -0.548067,-0.558707 -0.24332,-0.24804 -0.479547,-0.503187 -0.707507,-0.765373 -0.16772,-0.201987 -0.331893,-0.407494 -0.490186,-0.616587 -0.20788,-0.257493 -0.408694,-0.519733 -0.6024,-0.787853 -0.172454,-0.2504 -0.337814,-0.50672 -0.497254,-0.765373 -0.1252,-0.188987 -0.248053,-0.380334 -0.36616,-0.57404 L 31.976389,53.358979 16.499429,26.551273 Z m 42.278626,3.59892 c 0.08733,0.06733 0.174813,0.135826 0.262213,0.20552 0.190173,0.152373 0.3768,0.30828 0.55988,0.467746 0.27404,0.2256 0.540987,0.459467 0.800827,0.701614 0.18544,0.18308 0.367333,0.36972 0.545706,0.55988 0.24332,0.248053 0.479534,0.503186 0.708707,0.765386 0.167733,0.201974 0.330747,0.40748 0.489013,0.616574 0.20788,0.25632 0.408694,0.51852 0.6024,0.78668 0.171267,0.2504 0.33664,0.50672 0.49608,0.765373 0.1264,0.188987 0.249227,0.380333 0.368534,0.57404 0.03773,0.0732 0.0756,0.146467 0.113333,0.219693 0.078,0.14056 0.153547,0.282307 0.226787,0.425214 0.154733,0.298826 0.301186,0.601213 0.439386,0.907133 0.135827,0.294107 0.2634,0.591747 0.38268,0.892947 0.098,0.248053 0.190174,0.498453 0.2764,0.75124 0.107467,0.31656 0.206707,0.63548 0.297654,0.956746 0.078,0.282307 0.148826,0.565787 0.212613,0.850454 0.06853,0.296466 0.129867,0.594106 0.184267,0.892946 0.052,0.289387 0.0968,0.57996 0.13464,0.871693 0.026,0.163014 0.0496,0.326 0.07093,0.489014 0.0093,0.153546 0.01653,0.307093 0.0212,0.46064 0.02013,0.2764 0.03427,0.552786 0.04253,0.829186 0.012,0.17364 0.0224,0.348467 0.0296,0.522094 V 76.029018 C 77.248974,69.558711 84.162574,57.606285 84.183734,44.663259 84.168401,39.664632 83.120694,34.723752 81.106721,30.149072 Z"
           inkscape:connector-curvature="0"
           style="display:inline;fill:#ffffff;stroke-width:0.30237892" />
      </g>
      <g
         id="g4571"
         transform="matrix(1.3333333,0,0,1.3333333,392.665,-130.14063)" />
    </g>
  </g>
</svg>
