<?xml version="1.0" encoding="UTF-8" standalone="no"?>
<svg
   xmlns:dc="http://purl.org/dc/elements/1.1/"
   xmlns:cc="http://creativecommons.org/ns#"
   xmlns:rdf="http://www.w3.org/1999/02/22-rdf-syntax-ns#"
   xmlns:svg="http://www.w3.org/2000/svg"
   xmlns="http://www.w3.org/2000/svg"
   xmlns:xlink="http://www.w3.org/1999/xlink"
   xmlns:sodipodi="http://sodipodi.sourceforge.net/DTD/sodipodi-0.dtd"
   xmlns:inkscape="http://www.inkscape.org/namespaces/inkscape"
   height="96"
   width="96"
   version="1.1"
   id="svg2"
   inkscape:version="0.92.2 5c3e80d, 2017-08-06"
   sodipodi:docname="cs-general.svg">
  <metadata
     id="metadata177">
    <rdf:RDF>
      <cc:Work
         rdf:about="">
        <dc:format>image/svg+xml</dc:format>
        <dc:type
           rdf:resource="http://purl.org/dc/dcmitype/StillImage" />
      </cc:Work>
    </rdf:RDF>
  </metadata>
  <sodipodi:namedview
     pagecolor="#ffffff"
     bordercolor="#666666"
     borderopacity="1"
     objecttolerance="10"
     gridtolerance="10"
     guidetolerance="10"
     inkscape:pageopacity="0"
     inkscape:pageshadow="2"
     inkscape:window-width="1280"
     inkscape:window-height="948"
     id="namedview175"
     showgrid="false"
     inkscape:zoom="3.5962728"
     inkscape:cx="47.488083"
     inkscape:cy="46.422659"
     inkscape:window-x="0"
     inkscape:window-y="19"
     inkscape:window-maximized="1"
     inkscape:current-layer="g993" />
  <defs
     id="defs4">
    <linearGradient
       id="linearGradient975">
      <stop
         style="stop-color:#afbabf;stop-opacity:1"
         offset="0"
         id="stop965" />
      <stop
         id="stop967"
         offset="0.25"
         style="stop-color:#ffffff;stop-opacity:1;" />
      <stop
         id="stop969"
         offset="0.5"
         style="stop-color:#8ea2ac;stop-opacity:1" />
      <stop
         style="stop-color:#fafafa;stop-opacity:1;"
         offset="0.75"
         id="stop971" />
      <stop
         style="stop-color:#adbbc1;stop-opacity:1"
         offset="1"
         id="stop973" />
    </linearGradient>
    <linearGradient
       id="d"
       stop-color="#fff">
      <stop
         offset="0"
         id="stop7" />
      <stop
         stop-opacity="0"
         offset="1"
         id="stop9" />
    </linearGradient>
    <filter
       id="y"
       height="1.384"
       width="1.384"
       color-interpolation-filters="sRGB"
       y="-.192"
       x="-.192">
      <feGaussianBlur
         stdDeviation="5.28"
         id="feGaussianBlur12" />
    </filter>
    <clipPath
       id="x">
      <rect
         rx="6"
         ry="6"
         height="84"
         width="84"
         y="6"
         x="6"
         fill="#fff"
         id="rect15" />
    </clipPath>
    <linearGradient
       id="e">
      <stop
         stop-color="#e5e5e5"
         offset="0"
         id="stop18" />
      <stop
         stop-color="#ababab"
         offset="1"
         id="stop20" />
    </linearGradient>
    <clipPath
       id="w">
      <rect
         rx="6"
         ry="6"
         height="84"
         width="84"
         y="6"
         x="6"
         fill="url(#f)"
         id="rect23" />
    </clipPath>
    <linearGradient
       id="f"
       y2="5.9877"
       gradientUnits="userSpaceOnUse"
       x2="48"
       y1="90"
       x1="48">
      <stop
         stop-color="#70a83e"
         offset="0"
         id="stop26" />
      <stop
         stop-color="#9fd058"
         offset="1"
         id="stop28" />
    </linearGradient>
    <linearGradient
       id="c"
       y2="7.0165"
       gradientUnits="userSpaceOnUse"
       x2="45.448"
       gradientTransform="matrix(1.0059 0 0 .99417 100 0)"
       y1="92.54"
       x1="45.448">
      <stop
         offset="0"
         id="stop31" />
      <stop
         stop-opacity=".58824"
         offset="1"
         id="stop33" />
    </linearGradient>
    <linearGradient
       id="v"
       y2="6"
       xlink:href="#c"
       gradientUnits="userSpaceOnUse"
       x2="32.251"
       gradientTransform="translate(0,1)"
       y1="90"
       x1="32.251" />
    <linearGradient
       id="u"
       y2="5.9996"
       xlink:href="#c"
       gradientUnits="userSpaceOnUse"
       x2="32.251"
       gradientTransform="matrix(1.0238 0 0 1.0119 -1.1429 .929)"
       y1="90"
       x1="32.251" />
    <linearGradient
       id="t"
       y2="90.239"
       xlink:href="#c"
       gradientUnits="userSpaceOnUse"
       x2="32.251"
       gradientTransform="matrix(1.0238,0,0,-1.0119,-1.1429,98.071)"
       y1="6.1317"
       x1="32.251" />
    <radialGradient
       id="i"
       xlink:href="#d"
       gradientUnits="userSpaceOnUse"
       cy="90.172"
       cx="48"
       gradientTransform="matrix(1.1573 0 0 .99591 -7.551 .19713)"
       r="42" />
    <linearGradient
       id="s"
       y2="63.893"
       xlink:href="#d"
       gradientUnits="userSpaceOnUse"
       x2="36.357"
       y1="6"
       x1="36.357" />
    <linearGradient
       id="r"
       y2="90"
       gradientUnits="userSpaceOnUse"
       x2="48"
       gradientTransform="translate(.0000016426 -.0000023783)"
       y1="6"
       x1="48">
      <stop
         stop-color="#80a2c8"
         offset="0"
         id="stop41" />
      <stop
         stop-color="#2e4c6d"
         offset="1"
         id="stop43" />
    </linearGradient>
    <linearGradient
       id="q"
       y2="138.66"
       xlink:href="#d"
       gradientUnits="userSpaceOnUse"
       x2="48"
       y1="20.221"
       x1="48" />
    <radialGradient
       id="h"
       stop-color="#f89400"
       gradientUnits="userSpaceOnUse"
       cy="54.106"
       cx="47.644"
       gradientTransform="matrix(2.3125,2.3348,1.2718,-1.2596,-125.15,4.5326)"
       r="4.8616">
      <stop
         offset="0"
         id="stop47" />
      <stop
         stop-opacity="0"
         offset="1"
         id="stop49" />
    </radialGradient>
    <linearGradient
       id="p"
       y2="69.231"
       stop-color="#ffe99d"
       gradientUnits="userSpaceOnUse"
       x2="69.694"
       gradientTransform="matrix(.5 .86603 -.86603 .5 91.524 -24.524)"
       y1="66.836"
       x1="60.756">
      <stop
         offset="0"
         id="stop52" />
      <stop
         stop-opacity="0"
         offset="1"
         id="stop54" />
    </linearGradient>
    <radialGradient
       id="g"
       stop-color="#f60"
       gradientUnits="userSpaceOnUse"
       cy="53.891"
       cx="48.09"
       gradientTransform="matrix(-1.4136 1.391 -1.9727 -2.0048 227.98 87.318)"
       r="5.4927">
      <stop
         offset="0"
         id="stop57" />
      <stop
         stop-opacity="0"
         offset="1"
         id="stop59" />
    </radialGradient>
    <linearGradient
       id="o"
       stop-color="#fff"
       y2="64.308"
       gradientUnits="userSpaceOnUse"
       x2="54.767"
       y1="44.04"
       x1="52.515">
      <stop
         offset="0"
         id="stop62" />
      <stop
         stop-opacity="0"
         offset="1"
         id="stop64" />
    </linearGradient>
    <linearGradient
       id="n"
       y2="52.872"
       gradientUnits="userSpaceOnUse"
       x2="59.574"
       y1="71.888"
       x1="64.67">
      <stop
         stop-color="#ffa92a"
         offset="0"
         id="stop67" />
      <stop
         stop-color="#ffcf2a"
         offset="1"
         id="stop69" />
    </linearGradient>
    <linearGradient
       id="m"
       y2="47.535"
       gradientUnits="userSpaceOnUse"
       x2="36.821"
       y1="21.65"
       x1="32.238">
      <stop
         stop-color="#f6f6f6"
         offset="0"
         id="stop72" />
      <stop
         stop-color="#d2d2d2"
         offset="1"
         id="stop74" />
    </linearGradient>
    <linearGradient
       id="l"
       y2="45.618"
       gradientUnits="userSpaceOnUse"
       x2="42.662"
       gradientTransform="matrix(-1,0,0,-1,91.081,91.12)"
       y1="48.268"
       x1="45.312">
      <stop
         offset="0"
         id="stop77" />
      <stop
         stop-opacity="0"
         offset="1"
         id="stop79" />
    </linearGradient>
    <linearGradient
       id="k"
       y2="66.807"
       xlink:href="#e"
       gradientUnits="userSpaceOnUse"
       x2="-6.5245"
       gradientTransform="matrix(0.44989,0,0,0.44989,-7.7869e-6,-94.533)"
       y1="62.879"
       x1="5.2745" />
    <linearGradient
       id="j"
       y2="66.807"
       xlink:href="#e"
       gradientUnits="userSpaceOnUse"
       x2="-6.5245"
       y1="62.879"
       x1="5.2745" />
    <linearGradient
       inkscape:collect="always"
       id="linearGradient4133">
      <stop
         style="stop-color:#ffffff;stop-opacity:1;"
         offset="0"
         id="stop4135" />
      <stop
         style="stop-color:#ffffff;stop-opacity:0;"
         offset="1"
         id="stop4137" />
    </linearGradient>
    <linearGradient
       id="linearGradient5700">
      <stop
         id="stop5702"
         offset="0"
         style="stop-color:#ffffff;stop-opacity:0;" />
      <stop
         style="stop-color:#ffffff;stop-opacity:0.85135138;"
         offset="0.02897836"
         id="stop5704" />
      <stop
         id="stop5706"
         offset="0.05199923"
         style="stop-color:#ffffff;stop-opacity:0;" />
      <stop
         style="stop-color:#ffffff;stop-opacity:0;"
         offset="0.96583712"
         id="stop5712" />
      <stop
         style="stop-color:#ffffff;stop-opacity:0.85135138;"
         offset="0.9788844"
         id="stop5710" />
      <stop
         id="stop5708"
         offset="1"
         style="stop-color:#ffffff;stop-opacity:0;" />
    </linearGradient>
    <linearGradient
       inkscape:collect="always"
       id="linearGradient3888-8-4-8-4-6-9-0-8-7-9">
      <stop
         style="stop-color:#ffffff;stop-opacity:1;"
         offset="0"
         id="stop3890-4-7-9-5-7-0-8-8-8-6" />
      <stop
         style="stop-color:#ffffff;stop-opacity:0;"
         offset="1"
         id="stop3892-5-8-2-8-3-3-3-06-4-4" />
    </linearGradient>
    <linearGradient
       id="linearGradient3921">
      <stop
         style="stop-color:#2cffee;stop-opacity:1;"
         offset="0"
         id="stop3923" />
      <stop
         style="stop-color:#00586e;stop-opacity:1;"
         offset="1"
         id="stop3925" />
    </linearGradient>
    <linearGradient
       id="linearGradient4091-0-3-0-7">
      <stop
         style="stop-color:#ffffff;stop-opacity:1;"
         offset="0"
         id="stop4093-3-6-4-2" />
      <stop
         id="stop4099-6-1-8-3"
         offset="0.80000001"
         style="stop-color:#ffffff;stop-opacity:1;" />
      <stop
         style="stop-color:#ffffff;stop-opacity:0;"
         offset="1"
         id="stop4095-1-0-7-9" />
    </linearGradient>
    <linearGradient
       id="linearGradient3832-0-6-1-1">
      <stop
         style="stop-color:#000000;stop-opacity:1;"
         offset="0"
         id="stop3834-6-3-7-1" />
      <stop
         id="stop3872-2-4"
         offset="0.1"
         style="stop-color:#000000;stop-opacity:0.58823532;" />
      <stop
         style="stop-color:#000000;stop-opacity:0.58823532;"
         offset="0.89999998"
         id="stop3844-6-2-7-6" />
      <stop
         style="stop-color:#000000;stop-opacity:1;"
         offset="1"
         id="stop3836-5-0-2-9" />
    </linearGradient>
    <linearGradient
       inkscape:collect="always"
       xlink:href="#linearGradient6139-0"
       id="linearGradient3923"
       x1="6"
       y1="47.000011"
       x2="90"
       y2="47.000011"
       gradientUnits="userSpaceOnUse" />
    <linearGradient
       id="linearGradient6139-0">
      <stop
         id="stop6141-2"
         offset="0"
         style="stop-color:#bfafaf;stop-opacity:1;" />
      <stop
         style="stop-color:#ffffff;stop-opacity:1;"
         offset="0.25"
         id="stop6151-0" />
      <stop
         style="stop-color:#ac8e8e;stop-opacity:1;"
         offset="0.5"
         id="stop6147-1" />
      <stop
         id="stop6149-4"
         offset="0.75"
         style="stop-color:#fafafa;stop-opacity:1;" />
      <stop
         id="stop6143-4"
         offset="1"
         style="stop-color:#c1adad;stop-opacity:1;" />
    </linearGradient>
    <linearGradient
       inkscape:collect="always"
       xlink:href="#linearGradient975"
       id="linearGradient4071"
       gradientUnits="userSpaceOnUse"
       gradientTransform="matrix(1.1033428,0,0,1.1016792,-38.499564,-45.284377)"
       x1="6"
       y1="47.000011"
       x2="90"
       y2="47.000011" />
    <linearGradient
       inkscape:collect="always"
       xlink:href="#linearGradient4213-7"
       id="linearGradient4767"
       gradientUnits="userSpaceOnUse"
       x1="2.7713892"
       y1="-28.64156"
       x2="50.527882"
       y2="14.514202" />
    <linearGradient
       inkscape:collect="always"
       id="linearGradient4213-7">
      <stop
         style="stop-color:#ffffff;stop-opacity:1;"
         offset="0"
         id="stop4215-6" />
      <stop
         style="stop-color:#ffffff;stop-opacity:0;"
         offset="1"
         id="stop4217-5" />
    </linearGradient>
    <clipPath
       clipPathUnits="userSpaceOnUse"
       id="clipPath4156-4">
      <path
         style="opacity:0.6;fill:#ffffff;fill-opacity:1;stroke:none"
         d="m 27.046336,-55.695463 -14.21366,13.321486 0.06127,0 15.653407,21.770763 10.231384,-10.546177 C 38.561832,-32.30156 27.468089,-54.819245 27.046336,-55.695463 z M 9.6468554,-39.382809 -5.2407289,-25.32124 15.987863,-7.8059573 26.372412,-18.382966 9.6468554,-39.382809 z m 31.4906096,12.951445 -9.741259,9.713584 8.944804,12.4580526 7.780753,-7.5550056 -6.984298,-14.616631 z m -49.8397109,4.378822 -13.7541661,12.9822847 26.2830181,13.84571 0.06127,-0.0617 -0.122531,-0.0617 L 13.598503,-5.4007374 -8.7022409,-22.052595 z m 38.0154159,7.400825 -9.802525,9.7752596 11.579232,9.5594001 7.62759,-7.40083 -8.669108,-11.0087257 -0.735189,-0.925104 z m 20.187073,5.6739697 -7.382526,7.2158 6.187844,8.54179 5.820249,-6.13651996 -4.625567,-9.62107004 z m -32.195166,6.32154 -9.5574606,9.49772 13.6622686,7.1849703 7.933918,-7.6783603 -12.038726,-9.00433 z m 23.311629,2.37443004 -7.10683,6.93826996 8.362778,6.9074403 5.360756,-5.6739699 -0.06127,-0.0925 -0.0919,0.12335 -6.463539,-8.20258036 z m -8.730374,8.54178036 -7.505057,7.3391599 10.353916,5.45811 c 1.397496,-1.32103 5.67514,-6.12292 5.850882,-6.32154 L 31.886332,8.2600031 z"
         id="path4158-0"
         inkscape:connector-curvature="0" />
    </clipPath>
    <linearGradient
       inkscape:collect="always"
       xlink:href="#linearGradient3888-8-4-8-4-6-9-0-8-7-9"
       id="linearGradient4112"
       gradientUnits="userSpaceOnUse"
       gradientTransform="matrix(1.1376233,0,0,1.1422854,-40.393161,-45.01103)"
       x1="45.99942"
       y1="42.063522"
       x2="76.197693"
       y2="29.454437" />
    <linearGradient
       inkscape:collect="always"
       xlink:href="#linearGradient3832-0-6-1-1"
       id="linearGradient4129"
       x1="1.5"
       y1="88.171875"
       x2="94.5"
       y2="88.171875"
       gradientUnits="userSpaceOnUse"
       gradientTransform="matrix(0.99656771,0,0,0.99506529,-33.374359,-41.268578)" />
    <radialGradient
       inkscape:collect="always"
       xlink:href="#linearGradient4133"
       id="radialGradient4139"
       cx="13.948145"
       cy="44.892843"
       fx="13.948145"
       fy="44.892843"
       r="43.199203"
       gradientTransform="matrix(0.97178685,0,0,0.04894798,0.40798707,38.502516)"
       gradientUnits="userSpaceOnUse" />
    <radialGradient
       inkscape:collect="always"
       xlink:href="#linearGradient4133"
       id="radialGradient4143"
       gradientUnits="userSpaceOnUse"
       gradientTransform="matrix(0.88394298,0,0,0.04902188,-10.685753,-57.022611)"
       cx="13.948145"
       cy="44.892843"
       fx="13.948145"
       fy="44.892843"
       r="43.199203" />
    <filter
       id="filter3174"
       color-interpolation-filters="sRGB">
      <feGaussianBlur
         stdDeviation="1.71"
         id="feGaussianBlur3176" />
    </filter>
    <linearGradient
       gradientTransform="scale(1.0058652,0.994169)"
       gradientUnits="userSpaceOnUse"
       id="ButtonShadow"
       y2="7.0165396"
       x2="45.447727"
       y1="92.539597"
       x1="45.447727">
      <stop
         offset="0"
         style="stop-color:#000000;stop-opacity:1"
         id="stop3750" />
      <stop
         offset="1"
         style="stop-color:#000000;stop-opacity:0.58823532"
         id="stop3752" />
    </linearGradient>
    <linearGradient
       id="linearGradient4092">
      <stop
         id="stop4094"
         offset="0"
         style="stop-color:#5a1313;stop-opacity:1;" />
      <stop
         style="stop-color:#d17575;stop-opacity:1;"
         offset="0.25"
         id="stop4102" />
      <stop
         style="stop-color:#5a1e1e;stop-opacity:1;"
         offset="0.5"
         id="stop4100" />
      <stop
         id="stop4096"
         offset="1"
         style="stop-color:#bd2828;stop-opacity:1;" />
    </linearGradient>
    <linearGradient
       inkscape:collect="always"
       xlink:href="#ButtonShadow"
       id="linearGradient3586"
       gradientUnits="userSpaceOnUse"
       gradientTransform="scale(1.0058652,0.994169)"
       x1="45.447727"
       y1="92.539597"
       x2="45.447727"
       y2="7.0165396" />
  </defs>
  <g
     id="g3560">
    <g
       style="display:none"
       id="layer2">
      <path
         style="opacity:0.9;fill:url(#linearGradient3586);fill-opacity:1;fill-rule:nonzero;stroke:none;filter:url(#filter3174)"
         id="rect3745"
         inkscape:connector-curvature="0"
         d="M 11,7 C 7.676,7 5,9.676 5,13 l 0,33.6875 c 2.2377507,0.124029 4.660506,0.235683 5.875,0.4375 0.66093,0.10983 -0.08406,0.240848 -1.125,0.34375 C 8.7090622,47.571654 7.3545491,47.665119 6.84375,47.75 6.2216014,47.853382 5.6264179,47.903999 5,48 l 0,1.0625 c 0.3803657,0.03607 0.7183843,0.03125 0.9375,0.03125 0.80883,10e-7 1.1599727,0.215701 1.3125,0.5625 0.1525272,0.346797 0.09375,0.839723 0.09375,1.40625 0,0.424828 -0.9420178,0.663014 -1.15625,1.375 C 6.110939,52.691968 5.5510552,52.945524 5,53.1875 l 0,2.21875 c 0.7355867,0.02497 1.4332639,0.05671 1.84375,0.3125 C 7.1254716,55.894306 6.0687957,56.124098 5,56.3125 l 0,7.5625 c 1.1379643,0.180337 3.3100715,0.925679 3.96875,1.0625 1.090152,0.226446 1.224723,0.33476 0.875,0.4375 -0.3497231,0.102744 -1.173581,0.175172 -2,0.3125 C 6.8656638,65.850029 5.90816,66.141998 5,66.34375 L 5,86 c 0,3.324 2.676,6 6,6 l 13,0 c 0.0954,-0.438237 0.150955,-0.931178 0.25,-1.4375 0.140364,-0.717512 0.25498,-1.34159 0.375,-1.59375 0.03001,-0.06304 0.05815,-0.114053 0.09375,-0.125 0.106804,-0.03285 0.238198,0.191956 0.46875,0.78125 0.304338,0.777871 0.540174,1.646782 0.6875,2.375 l 0.75,0 c 0.276152,-0.493694 0.578538,-1.138496 0.8125,-1.4375 0.09907,-0.126629 0.275237,0.131501 0.53125,0.375 0.256014,0.2435 0.588904,0.486378 0.9375,0.375 0.648614,-0.207227 1.602807,-0.726227 2.03125,-1 0.139883,-0.08938 0.300164,-0.157976 0.40625,-0.1875 0.106087,-0.02952 0.174331,-0.01774 0.25,0 0.151339,0.03548 0.232196,0.144559 0.34375,0.28125 0.223098,0.27338 0.466785,0.656251 1.0625,0.65625 0.478344,0 0.657185,-0.0325 0.78125,0.0625 0.124065,0.095 0.197087,0.314551 0.40625,0.875 l 8.875,0 c -0.04778,-0.593879 1.040547,-2.151517 1.21875,-3.0625 0.19092,-0.975995 0.214078,-1.242419 0.28125,-1.0625 0.06717,0.179919 0.192504,0.793906 0.46875,1.5 0.110448,0.282298 0.213887,0.358235 0.3125,0.28125 0.09861,-0.07699 0.168895,-0.293948 0.25,-0.5625 0.162213,-0.537107 0.285649,-1.296709 0.34375,-1.59375 0.131129,-0.670335 0.128655,-1.786501 0.125,-2.28125 -9.11e-4,-0.123687 -0.0059,-0.217815 0,-0.25 0.01779,-0.09656 0.08067,0.312079 0.28125,1.59375 0.163819,1.046767 0.54767,2.687946 0.71875,3.5625 0.169798,0.867992 0.298106,1.322124 0.40625,1.875 l 28.21875,0 c 0.03877,-0.494956 0.03519,-1.098589 0.0625,-1.5 0.02049,-0.301057 0.06649,-0.487005 0.15625,-0.46875 0.02992,0.0061 0.05077,0.03882 0.09375,0.09375 0.233449,0.298339 0.630596,1.164908 0.96875,1.875 L 85,92 c 3.324,0 6,-2.676 6,-6 l 0,-7.21875 c -0.16942,0.0045 -0.290112,-4e-6 -0.5,0 -1.330307,0 -2.638456,-4e-6 -3.96875,0 -1.226564,0 -2.05394,-9.64e-4 -2.25,-0.0625 -0.19606,-0.06154 0.232972,-0.183183 1.46875,-0.5 C 86.405034,78.050819 89.092469,77.290673 91,76.875 L 91,38.46875 C 90.34725,38.202412 89.792969,37.980093 89.25,37.5625 89.107486,37.452886 88.801155,37.170028 88.28125,37 87.761349,36.829972 87.007124,36.743855 86,36.9375 c -1.533473,0.294852 -1.685602,0.283469 -1.25,0.15625 0.4356,-0.127221 1.468635,-0.381012 2.25,-0.53125 1.152717,-0.221645 2.722214,-1.204246 4,-1.84375 l 0,-4.5625 c -0.69831,-0.257978 -1.422206,-0.558272 -1.75,-1.0625 -0.209707,-0.322576 -0.321618,-0.513018 -0.3125,-0.625 0.0091,-0.111981 0.13299,-0.149124 0.25,-0.1875 0.117011,-0.03837 0.261032,-0.05449 0.375,-0.15625 0.11397,-0.101759 0.187497,-0.291619 0.1875,-0.59375 0,-0.32292 0.08246,-0.887065 0.0625,-1.40625 -0.01,-0.259593 -0.03562,-0.49724 -0.125,-0.6875 -0.08939,-0.19026 -0.219089,-0.333004 -0.4375,-0.375 -0.574572,-0.110478 -0.848143,-0.233682 -0.90625,-0.34375 -0.05811,-0.110067 0.07208,-0.18937 0.28125,-0.28125 0.418339,-0.18376 1.132532,-0.339398 1.125,-0.34375 -0.668701,-0.385725 -5.247169,-0.921226 -5,-0.96875 0.332574,-0.06395 0.667437,-0.123553 1,-0.1875 1.047644,-0.201439 2.43278,-0.309227 3.75,-0.5625 0.573261,-0.110227 0.911769,-0.250569 1.125,-0.4375 0.213229,-0.18693 0.294201,-0.423258 0.375,-0.625 L 91,13 C 91,9.676 88.324,7 85,7 L 33.625,7 C 33.72158,8.3975706 33.82658,9.959362 33.53125,9.1875 33.320827,8.6375466 33.210422,8.0499534 33,7.5 32.946762,7.3608606 32.903941,7.1705291 32.84375,7 L 30.8125,7 C 30.571803,7.4923127 30.362863,7.9708281 30.03125,8.1875 29.524321,8.5187294 29.245447,8.6821159 29,8.59375 28.754552,8.5053839 28.523162,8.1669814 28.15625,7.6875 27.992502,7.4735174 27.721718,7.2560338 27.40625,7 l -6.8125,0 -1.3125,5.5625 L 17.53125,7 17.3125,7 15.5625,15.9375 14.15625,7 11,7 z" />
    </g>
    <rect
       style="opacity:0.3122172;fill:#ffffff;fill-opacity:1;stroke:none"
       id="rect3880"
       width="96"
       height="2.5"
       x="0"
       y="0" />
    <g
       id="layer1"
       inkscape:label="Layer 1"
       transform="translate(2.4186278e-7,80)">
      <g
         id="g5148"
         transform="matrix(1.0034441,0,0,1.0049592,33.489303,-38.526762)">
        <g
           id="g5766"
           transform="matrix(0.88387919,0,0,0.83393165,-3.5257642,5.0081212)" />
        <path
           style="opacity:0.15;fill:#000000;fill-opacity:1;fill-rule:nonzero;stroke:none;display:inline"
           d="m 55.462534,-41.268579 -82.003291,0 c -3.78581,0 -6.8336,3.043193 -6.8336,6.823302 l 0,81.87966 c 0,3.780111 3.04779,6.823304 6.8336,6.823304 l 82.003291,0 c 3.785819,0 6.833607,-3.043193 6.833607,-6.823304 l 0,-81.87966 c 0,-3.780109 -3.047788,-6.823302 -6.833607,-6.823302 z"
           id="path3288"
           inkscape:connector-curvature="0" />
        <path
           inkscape:connector-curvature="0"
           id="path4085"
           d="m 54.821885,-40.52228 -80.721993,0 c -3.726657,0 -6.726825,2.995643 -6.726825,6.716688 l 0,80.60029 c 0,3.721047 3.000168,6.71669 6.726825,6.71669 l 80.721993,0 c 3.726665,0 6.726832,-2.995643 6.726832,-6.71669 l 0,-80.60029 c 0,-3.721045 -3.000167,-6.716688 -6.726832,-6.716688 z"
           style="opacity:0.15;fill:#000000;fill-opacity:1;fill-rule:nonzero;stroke:none;display:inline" />
        <path
           inkscape:connector-curvature="0"
           id="rect4251-1"
           d="m 54.18123,-39.775981 h -79.44068 c -3.667512,0 -6.620057,2.948093 -6.620057,6.610075 v 79.320921 c 0,3.661981 2.952545,6.610074 6.620057,6.610074 h 79.44068 c 3.667512,0 6.620057,-2.948093 6.620057,-6.610074 v -79.320921 c 0,-3.661982 -2.952545,-6.610075 -6.620057,-6.610075 z"
           style="display:inline;fill:url(#linearGradient4071);fill-opacity:1;fill-rule:nonzero;stroke:none;stroke-width:0.97178686" />
        <path
           id="path4970"
           d="m -24.489313,-36.170028 h 78.352418 c 2.553368,0 4.608966,2.005061 4.608966,4.495653 v 69.682594 c 0,2.490591 -2.055598,4.495651 -4.608966,4.495651 h -78.352418 c -2.553366,0 -4.608964,-2.00506 -4.608964,-4.495651 v -69.682594 c 0,-2.490592 2.055598,-4.495653 4.608964,-4.495653 z"
           style="color:#000000;display:inline;overflow:visible;visibility:visible;fill:#e9ecec;fill-opacity:0.88340807;fill-rule:nonzero;stroke:none;stroke-width:1.94357371;marker:none;enable-background:accumulate"
           inkscape:connector-curvature="0"
           sodipodi:nodetypes="sssssssss" />
        <path
           style="color:#000000;font-style:normal;font-variant:normal;font-weight:normal;font-stretch:normal;font-size:medium;line-height:normal;font-family:Sans;-inkscape-font-specification:Sans;text-indent:0;text-align:start;text-decoration:none;text-decoration-line:none;letter-spacing:normal;word-spacing:normal;text-transform:none;writing-mode:lr-tb;direction:ltr;baseline-shift:baseline;text-anchor:start;display:inline;overflow:visible;visibility:visible;fill:#000000;fill-opacity:0.69047618;stroke:none;stroke-width:2.30847979;marker:none;enable-background:accumulate"
           d="m -23.583001,-36.562457 c -3.105924,0 -5.648511,2.526979 -5.648511,5.618143 v 68.936127 c 0,3.091166 2.542587,5.618143 5.648511,5.618143 h 76.528215 c 3.105924,0 5.648511,-2.526977 5.648511,-5.618143 v -68.936127 c 0,-3.091164 -2.542587,-5.618143 -5.648511,-5.618143 z m 0,2.307994 h 76.528215 c 1.881618,0 3.340517,1.47279 3.340517,3.310149 v 68.936127 c 0,1.837362 -1.458899,3.310149 -3.340517,3.310149 h -76.528215 c -1.881618,0 -3.340517,-1.472787 -3.340517,-3.310149 v -68.936127 c 0,-1.837359 1.458899,-3.310149 3.340517,-3.310149 z"
           id="path4989"
           inkscape:connector-curvature="0" />
        <path
           id="path4118"
           d="m -31.879507,40.171297 v 5.970392 c 0,3.661981 2.965892,6.623403 6.633403,6.623403 h 79.41399 c 3.667511,0 6.633404,-2.961422 6.633404,-6.623403 v -5.970392 c 0,3.661981 -2.965893,6.623403 -6.633404,6.623403 h -79.41399 c -3.667511,0 -6.633403,-2.961422 -6.633403,-6.623403 z"
           style="display:inline;opacity:0.65;fill:url(#linearGradient4129);fill-opacity:1;fill-rule:nonzero;stroke:none;stroke-width:0.99581623"
           inkscape:connector-curvature="0" />
        <rect
           ry="4.2290273"
           rx="0"
           y="38.585407"
           x="-28.017807"
           height="4.2290273"
           width="83.960838"
           id="rect4131"
           style="opacity:0.55;fill:url(#radialGradient4139);fill-opacity:1;stroke:none;stroke-width:0.97178686" />
        <rect
           transform="rotate(90)"
           style="opacity:0.55;fill:url(#radialGradient4143);fill-opacity:1;stroke:none;stroke-width:0.97178686"
           id="rect4141"
           width="76.371262"
           height="4.2354131"
           x="-36.542019"
           y="-56.939594"
           rx="0"
           ry="4.2354131" />
        <g
           id="g993"
           transform="translate(1.3296795,-1.282102)">
          <path
             style="fill:#9f0303;fill-opacity:1;stroke:#000000;stroke-width:0.99581623;stroke-miterlimit:4;stroke-dasharray:none;stroke-opacity:0.15714286"
             d="m -4.8220095,-6.5000939 c -0.3566929,0.0181 -0.7283876,0.053437 -1.0804651,0.088064 l -0.6394628,2.7741528 c -0.5332863,0.078003 -1.0471267,0.144309 -1.5655763,0.264205 L -9.6951393,-5.6854682 C -10.062,-5.5829149 -10.438719,-5.497814 -10.797657,-5.3772283 v 2.8622242 c -0.495439,0.1930396 -0.980399,0.4073752 -1.455325,0.638495 l -2.050682,-1.9154879 c -0.322366,0.1755781 -0.679807,0.3376311 -0.992268,0.52841 l 0.617409,2.77415743 c -0.4375,0.29650636 -0.867634,0.616844 -1.278921,0.94673485 l -2.469641,-1.40909471 c -0.278539,0.24571117 -0.549994,0.4674119 -0.815863,0.72656485 l 1.212771,2.57600258 c -0.358755,0.3842783 -0.68711,0.7767797 -1.014318,1.188923 l -2.712194,-0.8146331 c -0.218117,0.3024873 -0.43645,0.6331189 -0.639461,0.9467348 l 1.76403,2.2017111 c -0.262856,0.4511355 -0.500779,0.9360197 -0.727663,1.4090947 L -24.18223,7.106473 c -0.145559,0.3443295 -0.312574,0.6598604 -0.441007,1.0127877 l 2.205037,1.7613664 c -0.157125,0.5044229 -0.280404,1.0422289 -0.396908,1.5632149 l -2.778345,0.418327 c -0.06427,0.365932 -0.130283,0.728992 -0.176402,1.100856 l 2.557841,1.232957 c -0.03875,0.503006 -0.0882,1.006258 -0.0882,1.519181 0,0.02047 -5.4e-5,0.04556 0,0.06606 l -2.623994,1.034805 c 0.01812,0.367773 0.0524,0.760003 0.08821,1.122871 l 2.778347,0.638495 c 0.07811,0.532472 0.144525,1.045549 0.264606,1.563215 l -2.315292,1.585231 c 0.102708,0.366307 0.18793,0.74246 0.308706,1.100856 h 2.866548 c 0.193325,0.494692 0.408001,0.978919 0.63946,1.453129 l -1.918382,2.047591 c 0.175848,0.32188 0.338143,0.678775 0.529209,0.990771 l 2.778346,-0.61648 c 0.296957,0.43685 0.617785,0.866327 0.948167,1.276993 l -1.411224,2.465916 c 0.246083,0.278124 0.468125,0.549174 0.727663,0.814633 l 2.579892,-1.210941 c 0.384861,0.358208 0.777951,0.686062 1.190719,1.012786 l -0.815865,2.708106 c 0.302956,0.217796 0.63407,0.435794 0.948169,0.638495 l 2.205035,-1.761368 c 0.451825,0.262455 0.937433,0.500028 1.411223,0.726565 l -0.176402,2.818189 c 0.344853,0.145343 0.660854,0.3121 1.014318,0.440341 l 1.7640294,-2.179693 c 0.5051883,0.156898 1.0437953,0.257964 1.5655749,0.374291 l 0.4189562,2.774156 c 0.3664822,0.06418 0.7301035,0.130066 1.1025189,0.176138 l 1.2348196,-2.553986 c 0.5037641,0.03865 1.0077751,0.08807 1.5214751,0.08807 0.020538,0 0.045691,6e-5 0.066167,0 l 1.0363668,2.620036 c 0.3683294,-0.0181 0.7611492,-0.05231 1.1245666,-0.08807 l 0.63946265,-2.774158 c 0.53328755,-0.078 1.04712767,-0.144293 1.56557651,-0.264205 L 2.3443743,37.115797 C 2.7112292,37.013243 3.0879409,36.928152 3.4468929,36.807556 V 33.945333 C 3.942331,33.7523 4.4272974,33.559973 4.9022171,33.328852 l 2.0506835,1.893472 c 0.3223589,-0.175578 0.6798079,-0.337633 0.9922669,-0.52841 L 7.3277533,31.919756 c 0.4374996,-0.296498 0.8676331,-0.61685 1.2789188,-0.946734 l 2.4696409,1.409094 c 0.278533,-0.24571 0.549996,-0.46742 0.815864,-0.726562 l -1.21277,-2.576002 c 0.358753,-0.38428 0.687111,-0.776781 1.014317,-1.188924 l 2.712188,0.814633 c 0.218115,-0.302495 0.436446,-0.633125 0.639458,-0.946734 l -1.764029,-2.201711 c 0.262853,-0.451144 0.500779,-0.936018 0.727661,-1.409095 l 2.822447,0.176137 c 0.145575,-0.344333 0.312586,-0.659861 0.441007,-1.012788 l -2.205035,-1.761368 c 0.157124,-0.504429 0.280402,-1.042229 0.396906,-1.563213 l 2.778346,-0.418325 c 0.06429,-0.365932 0.130278,-0.729003 0.176402,-1.100855 L 15.861234,17.23435 c 0.03874,-0.503004 0.08821,-1.006259 0.08821,-1.519179 0,-0.02047 7e-5,-0.04556 0,-0.06606 l 2.623993,-1.034798 c -0.01813,-0.367775 -0.05241,-0.760015 -0.08821,-1.122873 l -2.778346,-0.638498 c -0.07811,-0.532483 -0.14451,-1.04555 -0.264605,-1.563215 L 17.757564,9.704495 C 17.65485,9.3381969 17.569633,8.9620443 17.44886,8.603641 H 14.582312 C 14.388982,8.1089512 14.174328,7.6247232 13.942851,7.150514 L 15.861234,5.102923 C 15.685387,4.7810453 15.52309,4.4241397 15.332024,4.1121516 L 12.553679,4.728633 C 12.256722,4.2917926 11.935894,3.8623066 11.605513,3.45164 L 13.016736,0.98572248 C 12.770653,0.70760663 12.548612,0.43655973 12.289074,0.17108944 L 9.7091814,1.3820307 C 9.3243196,1.0238243 8.9312241,0.69597026 8.5184628,0.36924424 L 9.3343258,-2.33886 C 9.0313707,-2.5566583 8.7002563,-2.7746557 8.38616,-2.9773565 L 6.1811245,-1.2159886 C 5.7293134,-1.4784359 5.2436905,-1.7160166 4.7698998,-1.9425534 L 4.9463031,-4.7607442 C 4.6014432,-4.9060717 4.2854484,-5.0728526 3.9319863,-5.2010858 L 2.1679577,-2.9993732 C 1.6627675,-3.1562722 1.1241669,-3.2793546 0.60238115,-3.3956829 L 0.18342538,-6.1698373 c -0.36648797,-0.064177 -0.73009756,-0.1300664 -1.10251844,-0.1761382 l -1.23482184,2.5539859 c -0.5037639,-0.038654 -1.0077821,-0.088064 -1.5214744,-0.088064 -0.020523,0 -0.04569,-5.87e-5 -0.066167,0 l -1.0363684,-2.6200361 c -0.011573,5.633e-4 -0.032668,-5.801e-4 -0.044102,0 z m 1.1466202,7.06749147 c 8.0727759,0 14.6873493,6.32116753 15.1485993,14.26708843 H 4.020188 C 3.5828568,10.970231 0.31375114,7.9871644 -3.6753893,7.9871644 c -0.9205971,0 -1.8055906,0.1477029 -2.6239939,0.4403415 L -10.047945,1.9764938 c 1.9385841,-0.8988654 4.0958912,-1.40909623 6.3725557,-1.40909623 z m -8.7980967,2.84020753 3.7265125,6.4510145 c -1.6449005,1.4179444 -2.6901445,3.5108254 -2.6901445,5.8565514 0,2.497666 1.187848,4.706745 3.0208997,6.120753 l -3.7265107,6.428998 c -4.034752,-2.722592 -6.703311,-7.325469 -6.703311,-12.549751 0,-5.076604 2.52867,-9.5592489 6.372554,-12.3075659 z m 8.7980967,8.8508789 c 1.9141692,0 3.46190653,1.545394 3.46190653,3.456687 0,1.911284 -1.54773733,3.456686 -3.46190653,3.456686 -1.9141696,0 -3.4619065,-1.545402 -3.4619065,-3.456686 0,-1.911293 1.5477369,-3.456687 3.4619065,-3.456687 z m 7.4971234,5.394192 h 7.5412239 c -0.954233,7.444683 -7.3245721,13.210262 -15.0383473,13.210262 -2.1281953,0 -4.1589386,-0.441529 -5.9976994,-1.232956 l 3.7485634,-6.495047 c 0.7093923,0.212866 1.4692649,0.330256 2.249136,0.330256 3.6181584,0 6.6384578,-2.471415 7.4971234,-5.812515 z"
             id="path3314"
             inkscape:connector-curvature="0" />
          <path
             inkscape:connector-curvature="0"
             id="path977"
             d="m 35.540994,-26.252997 -0.09776,1.523446 c 0.04052,0.01895 0.08202,0.03834 0.122673,0.05742 l 0.09776,-1.529189 c -0.04165,-0.01716 -0.08162,-0.03408 -0.122674,-0.05167 z m -24.678381,1.666987 c -0.133878,0.06971 -0.273013,0.133568 -0.398687,0.208612 l 0.38527,1.693783 c 0.129843,-0.0901 0.25231,-0.190655 0.383353,-0.277513 z m 29.76165,1.002872 -0.513694,1.668901 c 0.166816,0.129139 0.319064,0.269433 0.481109,0.400001 l 0.534778,-1.737801 c -0.160503,-0.112848 -0.333257,-0.219691 -0.502193,-0.331101 z m -15.694493,1.91005 c -2.834258,0 -5.520122,0.620448 -7.933501,1.714835 l 0.931549,1.567465 c 2.166086,-0.848724 4.526904,-1.322489 7.001952,-1.322489 9.360101,0 17.1385,6.678308 18.627147,15.4105405 h 0.231928 C 43.214627,-13.977069 34.979715,-21.673088 24.92977,-21.673088 Z m -18.7153176,0.415311 c -0.2232033,0.188901 -0.4484586,0.373365 -0.665118,0.579906 l 0.9027976,1.871772 c 0.2014332,-0.231491 0.392824,-0.471641 0.6076148,-0.696651 z m 38.7972916,1.28804 -1.058056,1.808615 c 0.225504,0.274134 0.432359,0.566254 0.647867,0.851676 l 1.107892,-1.894739 c -0.236425,-0.261321 -0.462034,-0.513769 -0.697703,-0.765552 z m -31.034383,1.755027 c -4.7853209,3.346137 -7.9335008,8.80287 -7.9335008,14.983745 0,0.3011151 0.018874,0.5984106 0.034501,0.8956953 C 6.4166174,-8.075491 9.4687353,-13.102242 13.977361,-16.2549 l 3.894871,6.5913935 c 0.235175,-0.2451573 0.483218,-0.4789595 0.743706,-0.6985645 z m -11.6194453,1.217225 c -0.2502945,0.344468 -0.5010207,0.711941 -0.7341212,1.064117 l 1.5583314,1.902394 c 0.2028797,-0.40186 0.411583,-0.802254 0.638284,-1.182776 z m 46.2343503,1.600002 -0.07858,0.01722 -1.650337,1.722489 c 0.217369,0.435511 0.408988,0.884574 0.599949,1.333972 l 1.788344,-1.867944 c -0.218913,-0.391896 -0.421507,-0.82589 -0.659368,-1.205743 z m -49.19192179,3.645938 c -0.18122059,0.419228 -0.38830951,0.802841 -0.54819571,1.232537 l 2.3173717,1.8086108 c 0.1266929,-0.5460567 0.2603467,-1.1002657 0.4274393,-1.6248798 l -1.78067686,-1.391389 z m 51.28694779,1.8220111 -1.957019,1.3110028 c 0.137867,0.5811918 0.218607,1.1586314 0.306683,1.7531126 l 2.576135,-1.7244043 c -0.127873,-0.4459765 -0.234918,-0.903347 -0.385269,-1.3397111 z M 24.92977,-7.4395824 c -2.382985,0 -4.308892,1.8815782 -4.308892,4.2086174 0,0.3386906 0.05135,0.664516 0.128423,0.9799054 0.452433,-1.8515558 2.144319,-3.228712 4.180469,-3.228712 2.035977,0 3.727454,1.3773944 4.18047,3.228712 0.07721,-0.3155334 0.13034,-0.6410462 0.13034,-0.9799054 0,-2.3270392 -1.927825,-4.2086174 -4.31081,-4.2086174 z m -26.4513909,1.355026 -0.8337945,0.1224882 c -0.080011,0.4455297 -0.1630041,0.8869643 -0.2204279,1.339714 l 1.2593161,0.595216 0.77245705,-1.5961738 z m 53.1385459,1.9023943 -2.256035,0.8708144 c 8.8e-5,0.024937 0,0.055452 0,0.080382 0,0.6244937 -0.06103,1.2363869 -0.109256,1.8488062 l 0.109256,0.051675 c -4e-6,-0.0071 2.2e-5,-0.014521 0,-0.021052 l 3.266172,-1.2593313 c -0.02256,-0.4477737 -0.0647,-0.9266339 -0.109256,-1.3684233 z m -36.292077,1.9023943 c -0.03611,0.3312158 -0.0575,0.6677712 -0.0575,1.0086137 0,2.6806558 1.150871,5.0877345 2.986324,6.8000075 L 19.028044,4.2216753 C 16.987568,2.6823017 15.597964,0.3667461 15.324848,-2.2797678 Z m 18.937664,1.40861397 C 33.193543,3.1967079 29.434082,6.2044522 24.92977,6.2044522 c -0.970873,2e-6 -1.91726,-0.1427468 -2.800397,-0.4019141 l -4.665412,7.9081469 c 0.309752,0.130388 0.632826,0.23508 0.952633,0.346411 l 3.712779,-6.2947471 c 0.883137,0.2591674 1.829525,0.4019161 2.800397,0.4019141 4.504311,0 8.263773,-3.0077442 9.332742,-7.0756059 h 9.008807 c 0.158147,-0.642132 0.292206,-1.29359957 0.379519,-1.95981093 z m -48.777901,0.0459334 c -0.131519,0.0684293 -0.266693,0.131959 -0.389103,0.20669941 l 0.243429,1.09282386 c 0.126482,-0.0903797 0.245684,-0.19070429 0.373769,-0.27751215 z M 9.2352782,-0.02330525 8.9113444,1.0542076 c 0.1629413,0.1289791 0.3121688,0.268938 0.4696071,0.4000003 L 9.7259697,0.30588125 C 9.5693517,0.19328717 9.4008684,0.08695077 9.2352782,-0.02330525 Z M -3.2831304,1.2532509 c -2.276665,0 -4.4346677,0.5097486 -6.3732524,1.4086139 l 0.9238817,1.5885188 c 1.6939961,-0.6555695 3.5249572,-1.037322 5.4493707,-1.037322 0.8571936,0 1.6960089,0.079248 2.51479906,0.2162681 L 1.1292677,2.156601 C 1.1081964,2.067758 1.0961607,1.9792754 1.0775154,1.8905724 -0.3038536,1.4762851 -1.7679878,1.2532509 -3.2831304,1.2532509 Z m 54.6642934,0.3291874 -2.624055,0.386603 c -0.145039,0.6343103 -0.298918,1.2901562 -0.494527,1.904308 l 0.42744,0.3349288 c 0.02163,-0.09319 0.04595,-0.1869562 0.06709,-0.279426 l 3.459764,-0.5090912 c 0.08001,-0.4455287 0.16109,-0.8869751 0.218512,-1.3397149 z m -69.582496,0.2583735 c -0.219779,0.1901301 -0.438024,0.373494 -0.649785,0.5799042 l 0.619117,1.3129203 c 0.195169,-0.2330557 0.383934,-0.4714295 0.594197,-0.696651 z M 12.725712,2.8647356 11.99734,4.1374652 c 0.22036,0.273909 0.424733,0.5645519 0.632532,0.851675 L 13.408081,3.6302867 C 13.176676,3.3687607 12.965641,3.1148712 12.725712,2.8647356 Z m -24.806806,1.2287102 c -3.843884,2.7483163 -6.373252,7.2296332 -6.373252,12.3062362 0,0.33047 0.01156,0.658545 0.03259,0.983734 0.300803,-4.672474 2.744973,-8.7592961 6.340667,-11.3301593 l 3.0074085,5.2057503 c 0.2256803,-0.252317 0.462299,-0.494691 0.7187879,-0.715791 z m -9.282905,1.2765562 c -0.218117,0.302487 -0.43719,0.6337538 -0.640201,0.9473696 l 1.148145,1.4334948 c 0.194952,-0.4025471 0.392754,-0.8104288 0.615282,-1.192346 L -21.139737,5.4369873 Z M -0.82583461,5.4274187 -1.751634,6.0475145 c 0.1278646,0.4459863 0.2329965,0.9033611 0.3833544,1.339715 H 2.200741 c 0.059295,0.148387 0.1331307,0.2894121 0.1955105,0.4363636 L 2.9961995,7.1977549 C 2.7080473,6.6203936 2.4414148,6.0297174 2.200741,5.4274186 Z M 15.723536,6.7575637 15.244344,6.8647409 14.33388,7.8350766 c 0.212251,0.4348281 0.405933,0.881758 0.58653,1.3339726 L 16.252564,7.7489517 C 16.076717,7.4270743 15.914601,7.0695519 15.723536,6.7575637 Z m 31.222226,0.2775122 c -0.282451,0.5759795 -0.579399,1.167472 -0.906631,1.7167482 l 0.638284,0.7789484 c 0.09023,-0.1787151 0.181325,-0.3584278 0.268347,-0.5358857 l 3.513435,0.2162679 C 50.640425,8.7919229 50.847519,8.4063986 51.007392,7.9767033 L 50.045175,7.2264632 Z m -70.736389,2.7157922 c -0.145559,0.3443309 -0.312424,0.6614299 -0.440857,1.0143579 l 1.723174,1.377992 0.08434,-0.01339 c 0.116506,-0.520987 0.239647,-1.059215 0.39677,-1.56364 L -22.985587,9.8006314 Z M 4.7251241,10.145127 1.9898963,10.738433 c 0.5259202,0.487834 0.9785683,1.049967 1.3513219,1.666987 l 1.3839059,-0.300479 c 0.1668669,0.240073 0.3554489,0.466986 0.5328617,0.702393 L 5.905853,11.701113 C 5.4945564,11.201118 5.0948119,10.677003 4.7251241,10.145127 Z m 39.3378199,1.448808 c -0.407342,0.501794 -0.816531,0.979023 -1.263149,1.446892 l 0.607615,1.26316 c 0.217253,-0.249191 0.444241,-0.489954 0.655534,-0.750241 l 3.377344,0.991389 c 0.27154,-0.368297 0.542727,-0.770328 0.795458,-1.152154 l -0.734122,-0.895695 c -0.0208,0.0286 -0.04052,0.05981 -0.06133,0.08804 z M -3.2831304,12.94322 c -1.9141698,0 -3.4616824,1.545169 -3.4616824,3.456462 0,0.342966 0.066256,0.667229 0.1590913,0.979905 0.424766,-1.42896 1.7321848,-2.476557 3.3025911,-2.476557 1.5704054,0 2.87782515,1.047597 3.30259015,2.476557 0.09283508,-0.312676 0.15909134,-0.636939 0.15909134,-0.979905 0,-1.911293 -1.54751269,-3.456462 -3.46168149,-3.456462 z M 8.2673105,14.219776 5.4381612,15.519299 H 9.727887 l 0.021084,-0.06698 C 9.2351107,15.054519 8.7464316,14.6559 8.2673105,14.219776 Z m -32.2476975,0.10335 -1.220981,0.183731 c -0.06427,0.365933 -0.130223,0.73053 -0.176343,1.102395 l 2.089277,1.006698 0.37952,-0.149281 c -5.4e-5,-0.02049 0,-0.04651 0,-0.06698 0,-0.512923 0.04942,-1.014699 0.08817,-1.517705 z m 64.200213,1.022011 c -0.51202,0.401638 -1.048182,0.793074 -1.592835,1.154067 l 0.383354,1.682299 C 39.420162,17.89713 39.831,17.60995 40.219826,17.304947 l 3.074494,1.716749 c 0.346751,-0.29916 0.684903,-0.568695 1.015886,-0.884212 l -0.665118,-1.38182 c -0.117885,0.09947 -0.230885,0.202791 -0.350768,0.30622 z m -35.3720287,0.124401 -0.028751,0.04976 h 0.074754 c -0.015581,-0.01643 -0.030513,-0.03328 -0.046003,-0.04976 z m -15.8286663,1.917706 c -0.04017,0.318815 -0.06517,0.642247 -0.06517,0.972249 0,2.135697 0.873639,4.057141 2.2713698,5.454552 l 0.7494562,-1.291867 c -1.5871783,-1.224344 -2.688207,-3.046861 -2.955654,-5.134934 z m 46.588952,0.826795 c -0.591239,0.281393 -1.194566,0.515218 -1.811346,0.75024 v 1.959811 c 0.61678,-0.235022 1.220108,-0.468846 1.811346,-0.75024 l 2.553133,2.306223 c 0.40131,-0.213772 0.845414,-0.412701 1.234399,-0.644978 l -0.398687,-1.751198 c -0.280503,0.146052 -0.564057,0.291658 -0.835712,0.436365 z M 4.2133476,18.338441 c -0.8586657,3.341101 -3.87831963,5.812447 -7.496478,5.812447 -0.7798713,0 -1.5408931,-0.118236 -2.2502853,-0.331101 l -3.7472802,6.4957 c 0.3025148,0.130208 0.6171498,0.235575 0.9296317,0.346413 l 2.8176485,-4.882302 c 0.7093922,0.212866 1.470414,0.331101 2.2502853,0.331101 3.61815837,0 6.6378123,-2.471347 7.496478,-5.812448 h 4.6462435 l -0.1265064,0.411484 c 0.3771541,0.265172 0.7897044,0.530243 1.1807279,0.777035 l 1.4203254,-1.108136 c 0.181286,-0.664969 0.33224,-1.342339 0.421688,-2.040193 H 11.435727 L 9.9138126,19.526959 C 9.52279,19.280167 9.1102388,19.015096 8.7330847,18.749925 l 0.1265064,-0.411484 z m -28.3719946,0.581819 -1.374322,0.541626 c 0.01812,0.367774 0.05236,0.758665 0.08818,1.121534 l 2.543549,0.585646 0.500278,-0.342584 c -0.120081,-0.517666 -0.186402,-1.031165 -0.264514,-1.563638 z m 42.858923,0.924403 c -0.02325,0.135744 -0.04129,0.273633 -0.06517,0.409569 l -1.755759,0.264115 -1.420325,1.716749 0.975634,0.778948 0.444691,-0.535886 1.755759,-0.264115 c 0.02388,-0.135936 0.04192,-0.273827 0.06517,-0.40957 0.301578,0.06571 0.605913,0.128152 0.904714,0.193302 l 0.52136,3.37608 c 0.456239,0.07814 0.908782,0.158268 1.372406,0.214354 l 1.537248,-3.108136 c 0.627145,0.04706 1.254256,0.107176 1.893766,0.107176 0.02556,0 0.05695,7.5e-5 0.08242,0 l 1.289984,3.188521 c 0.458541,-0.02202 0.948731,-0.06366 1.401157,-0.107177 l 0.795458,-3.376081 c 0.663899,-0.09497 1.303926,-0.175549 1.949353,-0.321531 l 1.976187,2.8134 c 0.456702,-0.124863 0.925542,-0.228296 1.372406,-0.375119 v -1.959811 c -0.446864,0.146824 -0.915703,0.250256 -1.372406,0.375119 l -1.976187,-2.8134 c -0.645427,0.145982 -1.285454,0.226561 -1.949353,0.321531 l -0.795458,3.376081 c -0.452426,0.04353 -0.942616,0.08516 -1.401157,0.107177 l -1.289984,-3.18852 c -0.02548,7.4e-5 -0.05686,0 -0.08242,0 -0.639511,0 -1.266621,-0.06012 -1.893766,-0.107177 l -1.537248,3.108136 C 21.035132,23.572306 20.58259,23.492186 20.12635,23.414044 l -0.52136,-3.37608 c -0.298801,-0.06515 -0.603136,-0.127588 -0.904714,-0.193301 z m -42.161219,3.66699 -1.255482,0.85933 c 0.102708,0.366308 0.187823,0.742084 0.308598,1.10048 h 2.867485 c 0.01576,0.04032 0.03573,0.07847 0.05175,0.118661 l 0.586531,-0.623924 c -0.23146,-0.47421 -0.44496,-0.959856 -0.638284,-1.454547 z m 37.861909,1.320575 c -0.226882,0.473079 -0.465518,0.959383 -0.728371,1.410527 l 0.615282,0.767465 c 0.03573,-0.07369 0.07796,-0.144947 0.113089,-0.218181 l 2.821482,0.177991 c 0.145575,-0.344333 0.314352,-0.661428 0.442774,-1.014356 l -1.247817,-0.997131 z m -33.913368,2.555027 -2.300121,0.511005 -1.00822,1.073686 c 0.175849,0.321878 0.337962,0.679392 0.529029,0.991388 l 2.779312,-0.616268 c 0.09839,0.144739 0.211147,0.280325 0.31435,0.422967 l 0.63445,-1.106222 c -0.330382,-0.410667 -0.651842,-0.839706 -0.9488,-1.276556 z m 31.597913,1.188518 c -0.327204,0.412142 -0.655217,0.804238 -1.01397,1.188518 l 0.594198,1.26316 c 0.137832,-0.164588 0.284339,-0.321278 0.419772,-0.491867 l 2.712227,0.815312 c 0.218115,-0.302495 0.437188,-0.633761 0.6402,-0.94737 l -0.866379,-1.081342 z m -28.75343,2.158854 -2.579969,1.209571 c -0.01581,-0.01616 -0.02854,-0.03356 -0.04409,-0.04976 l -0.684285,1.196173 c 0.246083,0.278124 0.468833,0.54794 0.728371,0.813399 l 2.579969,-1.209571 c 0.232934,0.216801 0.479323,0.411498 0.720705,0.612441 l 0.469607,-1.55981 c -0.412766,-0.326726 -0.80545,-0.654233 -1.190312,-1.012442 z M 8.999516,31.65903 c -0.4112856,0.329884 -0.8429017,0.648958 -1.2804012,0.945456 l 0.3737693,1.684212 c 0.3065494,-0.21861 0.6153461,-0.436223 0.9066319,-0.669857 l 2.468796,1.408614 c 0.278533,-0.24571 0.550675,-0.468131 0.816543,-0.727273 l -0.649783,-1.379907 c -0.05616,0.04859 -0.110073,0.09736 -0.16676,0.147369 z m -22.138665,1.672729 -2.206201,1.760767 c -0.151494,-0.09777 -0.302158,-0.205273 -0.45619,-0.308134 l -0.490693,1.630624 c 0.302957,0.217797 0.632784,0.43462 0.946883,0.637321 l 2.206201,-1.760767 c 0.413764,0.240348 0.85656,0.456682 1.2919,0.66603 l 0.118841,-1.898567 c -0.473791,-0.226538 -0.958917,-0.464818 -1.410741,-0.727274 z m 18.4335529,0.683255 c -0.4749196,0.23112 -0.9593881,0.423235 -1.4548266,0.616268 v 1.959811 c 0.4954385,-0.193032 0.979907,-0.385148 1.4548266,-0.616269 l 2.0509416,1.892825 C 7.667704,37.692072 8.0238554,37.530197 8.3363137,37.339419 L 7.9472103,35.588221 C 7.7440155,35.694198 7.5409669,35.80129 7.3453455,35.907839 Z m -14.4217584,1.121532 -1.7634275,2.179906 c -0.312026,-0.113205 -0.595936,-0.256534 -0.89513,-0.388517 l -0.11884,1.908137 c 0.344853,0.145343 0.660507,0.311952 1.01397,0.440191 l 1.7634275,-2.179907 c 0.5051865,0.156899 1.0442191,0.258794 1.565999,0.375121 l 0.4197717,2.773209 c 0.3664825,0.06418 0.7297254,0.130004 1.1021414,0.176076 l 1.2343979,-2.553113 c 0.5037644,0.03865 1.008214,0.08804 1.5219141,0.08804 0.020537,0 0.044694,6e-5 0.06517,0 l 1.0369707,2.620098 c 0.3683295,-0.0181 0.7617255,-0.05228 1.1251432,-0.08804 l 0.63828395,-2.775123 c 0.53328656,-0.078 1.04755001,-0.144203 1.56599895,-0.264115 l 1.587083,2.311965 C 3.1023746,39.65792 3.4806259,39.572934 3.8395773,39.45234 V 37.492528 C 3.4806259,37.613123 3.1023746,37.69811 2.7355192,37.800662 l -1.587083,-2.311963 c -0.51844894,0.119912 -1.0327016,0.186123 -1.56599895,0.264115 l -0.63828395,2.775124 c -0.3634177,0.03576 -0.7568137,0.06994 -1.1251432,0.08804 l -1.0369707,-2.620099 c -0.020476,6.2e-5 -0.044633,0 -0.06517,0 -0.5137001,0 -1.0181497,-0.04939 -1.5219141,-0.08804 l -1.2343979,2.553112 c -0.372416,-0.04607 -0.7356589,-0.111899 -1.1021414,-0.176076 l -0.4197717,-2.773208 c -0.5217799,-0.116329 -1.0608115,-0.218222 -1.5659988,-0.375121 z"
             style="fill:#020202;fill-opacity:0.41428576;stroke:#010101;stroke-width:1.29456103;stroke-miterlimit:4;stroke-dasharray:none;stroke-opacity:0.0047619" />
          <path
             style="fill:#187bdb;fill-opacity:1;stroke:#000000;stroke-width:0.99581623;stroke-miterlimit:4;stroke-dasharray:none;stroke-opacity:0.15714286"
             d="m 23.110533,-30.963878 c -0.444055,0.02202 -0.906784,0.06507 -1.345093,0.107225 l -0.796076,3.377597 c -0.6639,0.09497 -1.303588,0.17568 -1.949014,0.321674 l -1.976465,-2.814662 c -0.456713,0.124861 -0.925697,0.228472 -1.372545,0.375288 v 3.484823 c -0.616779,0.23503 -1.220515,0.495989 -1.811758,0.777382 L 11.306646,-27.6667 c -0.401318,0.213771 -0.846303,0.411075 -1.235289,0.643351 l 0.768624,3.377598 c -0.544651,0.361002 -1.0801324,0.751021 -1.592151,1.152669 l -3.0745001,-1.715604 c -0.3467594,0.29916 -0.6846996,0.569083 -1.0156844,0.884608 l 1.5098001,3.136341 c -0.4466196,0.467869 -0.855396,0.945749 -1.2627412,1.447541 l -3.376461,-0.991833 c -0.2715382,0.368286 -0.5433429,0.770835 -0.7960754,1.15267 l 2.196073,2.680634 c -0.3272328,0.549267 -0.6234306,1.139624 -0.9058797,1.715604 l -3.51371582,-0.214449 c -0.18122048,0.419229 -0.38913098,0.803396 -0.54901698,1.233091 l 2.745089,2.144505 c -0.1956086,0.614146 -0.34907873,1.2689376 -0.49411689,1.903249 l -3.45881251,0.5093196 c -0.080011,0.4455302 -0.1621833,0.8875662 -0.2196069,1.3403166 l 3.18430362,1.5011541 c -0.0482259,0.6124192 -0.10980346,1.2251429 -0.10980346,1.8496353 0,0.02494 -7.021e-5,0.055483 0,0.08042 l -3.26665736,1.259898 c 0.022558,0.4477737 0.065246,0.925322 0.1098045,1.3671217 l 3.45881351,0.77738236 c 0.0972475,0.6482972 0.17991942,1.27297863 0.32941119,1.90324784 l -2.882346,1.9300541 c 0.127864,0.445986 0.2339557,0.9039612 0.3843134,1.340315 h 3.568616 C 2.04931,5.3444382 2.3165619,5.9339955 2.6047141,6.5113569 L 0.21648482,9.0043438 C 0.43539817,9.3962389 0.63744548,9.8307665 0.87530511,10.210629 L 4.3341189,9.4600517 C 4.703807,9.9919252 5.1032111,10.514824 5.5145078,11.01482 l -1.7568569,3.002306 c 0.3063527,0.338623 0.5827757,0.668631 0.9058801,0.991834 l 3.2117552,-1.474346 c 0.4791207,0.436125 0.9684858,0.835294 1.482347,1.233088 l -1.0156836,3.297179 c 0.3771541,0.265172 0.7893649,0.53059 1.1803894,0.777381 l 2.745088,-2.144502 c 0.562485,0.319543 1.167029,0.608793 1.75686,0.884607 l -0.219608,3.431209 c 0.429315,0.176958 0.82271,0.37999 1.262742,0.536126 l 2.196072,-2.653826 c 0.62892,0.191027 1.29944,0.314076 1.949013,0.455708 l 0.521567,3.377596 c 0.456238,0.07814 0.908919,0.158364 1.372544,0.214451 l 1.537251,-3.109534 c 0.627146,0.04706 1.2546,0.107225 1.894112,0.107225 0.02557,0 0.05688,7.4e-5 0.08236,0 l 1.290192,3.189952 c 0.458541,-0.02202 0.947569,-0.0637 1.399995,-0.107226 l 0.796078,-3.377595 c 0.663899,-0.09497 1.303588,-0.175691 1.949014,-0.321674 l 1.976465,2.814662 c 0.456701,-0.124863 0.925679,-0.228462 1.372544,-0.375287 v -3.484823 c 0.61678,-0.235021 1.220522,-0.469184 1.811759,-0.750578 l 2.552934,2.305344 c 0.401309,-0.213771 0.846305,-0.411075 1.23529,-0.643352 l -0.768625,-3.377596 c 0.544651,-0.360993 1.080134,-0.751031 1.592151,-1.15267 l 3.074501,1.715602 c 0.346751,-0.299159 0.684699,-0.569092 1.015683,-0.884608 l -1.509802,-3.136339 c 0.446618,-0.467869 0.855397,-0.945747 1.26274,-1.44754 l 3.376462,0.991833 c 0.27154,-0.368297 0.543344,-0.770845 0.796075,-1.152671 L 45.647721,8.0661217 C 45.974952,7.5168452 46.27115,6.9264995 46.5536,6.3505196 l 3.513716,0.2144492 C 50.248544,6.1457367 50.456459,5.7615731 50.616333,5.3318782 L 47.871244,3.1873718 c 0.195608,-0.6141525 0.349079,-1.2689351 0.494117,-1.9032455 l 3.458813,-0.50932039 c 0.08001,-0.44552815 0.162184,-0.88757494 0.219605,-1.34031498 L 48.859476,-2.0666632 c 0.04823,-0.6124195 0.109803,-1.2251429 0.109803,-1.8496362 0,-0.024932 8.9e-5,-0.055482 0,-0.080419 l 3.266659,-1.2598965 c -0.02256,-0.4477734 -0.06525,-0.9253327 -0.109804,-1.3671215 l -3.458813,-0.777384 c -0.09726,-0.6483076 -0.179903,-1.2729787 -0.329413,-1.9032484 l 2.882345,-1.9300552 c -0.127873,-0.445977 -0.23396,-0.903951 -0.384312,-1.340316 h -3.568616 c -0.240681,-0.6023 -0.507909,-1.191856 -0.796076,-1.769219 l 2.388227,-2.492987 c -0.218913,-0.391896 -0.42096,-0.826434 -0.658821,-1.206286 l -3.458812,0.750579 c -0.369688,-0.531864 -0.769093,-1.054773 -1.180391,-1.554768 l 1.756858,-3.002308 c -0.306352,-0.338612 -0.582776,-0.66862 -0.90588,-0.991833 l -3.211754,1.474347 c -0.479122,-0.436125 -0.968495,-0.835296 -1.482348,-1.233091 l 1.015682,-3.297177 c -0.377153,-0.265174 -0.789365,-0.53059 -1.180389,-0.777383 l -2.745088,2.144504 c -0.562467,-0.319535 -1.167028,-0.608794 -1.756858,-0.884609 l 0.219607,-3.431209 c -0.429323,-0.176958 -0.822711,-0.379999 -1.262741,-0.536124 l -2.196072,2.680631 c -0.628921,-0.191027 -1.299434,-0.340883 -1.949014,-0.482514 l -0.521567,-3.377596 c -0.456247,-0.07814 -0.90891,-0.158364 -1.372544,-0.214451 l -1.537252,3.109534 c -0.627146,-0.04707 -1.254605,-0.107227 -1.894112,-0.107227 -0.02556,0 -0.05688,-7.2e-5 -0.08236,0 l -1.290193,-3.189951 c -0.01442,6.85e-4 -0.04067,-7.06e-4 -0.0549,0 z m 1.427447,8.60483 c 10.049945,0 18.284548,7.696162 18.858768,17.3704962 h -9.278403 c -0.544443,-4.7048167 -4.614212,-8.3367652 -9.580365,-8.3367652 -1.146068,0 -2.247811,0.179831 -3.266657,0.536126 l -4.666652,-7.854255 c 2.413377,-1.094387 5.099051,-1.715602 7.933309,-1.715602 z m -10.952907,3.458014 4.639201,7.854254 c -2.047767,1.7263794 -3.34901,4.2745088 -3.34901,7.1304806 0,3.04096535 1.478774,5.7305672 3.760773,7.4521525 L 13.996835,11.363301 C 8.9739018,8.0484841 5.6517632,2.4443798 5.6517632,-3.9162994 c 0,-6.1808766 3.1479889,-11.6385976 7.9333098,-14.9847346 z M 24.53798,-8.1248911 c 2.382984,0 4.309792,1.8815518 4.309792,4.2085917 0,2.3270305 -1.926808,4.20859293 -4.309792,4.20859293 -2.382984,0 -4.30979,-1.88156243 -4.30979,-4.20859293 0,-2.3270399 1.926806,-4.2085917 4.30979,-4.2085917 z m 9.333304,6.5675481 h 9.38821 C 42.07155,7.5067233 34.140998,14.526444 24.53798,14.526444 c -2.649428,0 -5.177538,-0.537573 -7.466644,-1.501152 l 4.666652,-7.9078639 c 0.883137,0.2591671 1.829119,0.4020946 2.799992,0.4020946 4.50431,0 8.264336,-3.0090042 9.333304,-7.0768657 z"
             id="path4342"
             inkscape:connector-curvature="0" />
        </g>
        <rect
           clip-path="url(#clipPath4156-4)"
           ry="3.9569881"
           rx="3.9569874"
           y="-30"
           x="2"
           height="92"
           width="92"
           id="rect4146"
           style="opacity:0.8;fill:url(#linearGradient4767);fill-opacity:1;stroke:none"
           transform="matrix(0.9061837,0,0,0.92379606,-28.936586,-6.5790752)" />
      </g>
    </g>
  </g>
</svg>
