<?xml version="1.0" encoding="UTF-8" standalone="no"?>
<!-- Created with Inkscape (http://www.inkscape.org/) -->

<svg
   xmlns:dc="http://purl.org/dc/elements/1.1/"
   xmlns:cc="http://creativecommons.org/ns#"
   xmlns:rdf="http://www.w3.org/1999/02/22-rdf-syntax-ns#"
   xmlns:svg="http://www.w3.org/2000/svg"
   xmlns="http://www.w3.org/2000/svg"
   xmlns:xlink="http://www.w3.org/1999/xlink"
   xmlns:sodipodi="http://sodipodi.sourceforge.net/DTD/sodipodi-0.dtd"
   xmlns:inkscape="http://www.inkscape.org/namespaces/inkscape"
   width="96"
   height="96"
   viewBox="0 0 96.000001 96.000004"
   version="1.1"
   id="svg1072"
   inkscape:version="0.92.2 5c3e80d, 2017-08-06"
   sodipodi:docname="gnome-panel-workspace-switcher.svg">
  <defs
     id="defs1066">
    <linearGradient
       y2="47.000011"
       x2="90"
       y1="47.000011"
       x1="6"
       gradientTransform="matrix(1.1071428,0,0,1.1071426,-4.9939026,-3.620687)"
       gradientUnits="userSpaceOnUse"
       id="linearGradient4071"
       xlink:href="#linearGradient6139-0"
       inkscape:collect="always" />
    <linearGradient
       id="linearGradient6139-0">
      <stop
         style="stop-color:#b2b7bc;stop-opacity:1"
         offset="0"
         id="stop6141-2" />
      <stop
         id="stop6151-0"
         offset="0.25"
         style="stop-color:#ffffff;stop-opacity:1;" />
      <stop
         id="stop6147-1"
         offset="0.5"
         style="stop-color:#969fa4;stop-opacity:1" />
      <stop
         style="stop-color:#f9fafb;stop-opacity:1"
         offset="0.75"
         id="stop6149-4" />
      <stop
         style="stop-color:#b2b9bc;stop-opacity:1"
         offset="1"
         id="stop6143-4" />
    </linearGradient>
    <linearGradient
       gradientUnits="userSpaceOnUse"
       y2="88.171875"
       x2="94.5"
       y1="88.171875"
       x1="1.5"
       id="linearGradient4129"
       xlink:href="#linearGradient3832-0-6-1-1"
       inkscape:collect="always"
       gradientTransform="translate(0.1489535,0.415026)" />
    <linearGradient
       id="linearGradient3832-0-6-1-1">
      <stop
         id="stop3834-6-3-7-1"
         offset="0"
         style="stop-color:#000000;stop-opacity:1;" />
      <stop
         style="stop-color:#000000;stop-opacity:0.58823532;"
         offset="0.1"
         id="stop3872-2-4" />
      <stop
         id="stop3844-6-2-7-6"
         offset="0.89999998"
         style="stop-color:#000000;stop-opacity:0.58823532;" />
      <stop
         id="stop3836-5-0-2-9"
         offset="1"
         style="stop-color:#000000;stop-opacity:1;" />
    </linearGradient>
    <radialGradient
       r="43.199203"
       fy="44.892841"
       fx="13.948145"
       cy="44.892841"
       cx="13.948145"
       gradientTransform="matrix(0.97513378,0,0,0.04919072,34.047649,80.581722)"
       gradientUnits="userSpaceOnUse"
       id="radialGradient7462"
       xlink:href="#linearGradient3737"
       inkscape:collect="always" />
    <linearGradient
       id="linearGradient3737">
      <stop
         id="stop3739"
         style="stop-color:#ffffff;stop-opacity:1"
         offset="0" />
      <stop
         id="stop3741"
         style="stop-color:#ffffff;stop-opacity:0"
         offset="1" />
    </linearGradient>
    <radialGradient
       r="43.199203"
       fy="44.892841"
       fx="13.948145"
       cy="44.892841"
       cx="13.948145"
       gradientTransform="matrix(0.88832663,0,0,0.04919072,31.959518,-90.31726)"
       gradientUnits="userSpaceOnUse"
       id="radialGradient7464"
       xlink:href="#linearGradient3737"
       inkscape:collect="always" />
    <linearGradient
       y2="14.514202"
       x2="50.527882"
       y1="-28.64156"
       x1="2.7713892"
       gradientUnits="userSpaceOnUse"
       id="linearGradient4767"
       xlink:href="#linearGradient3737"
       inkscape:collect="always" />
    <clipPath
       clipPathUnits="userSpaceOnUse"
       id="clipPath4156-4-1">
      <path
         style="opacity:0.6;fill:#ffffff;fill-opacity:1;stroke:none"
         d="m 27.046336,-55.695463 -14.21366,13.321486 h 0.06127 l 15.653407,21.770763 10.231384,-10.546177 C 38.561832,-32.30156 27.468089,-54.819245 27.046336,-55.695463 Z M 9.6468554,-39.382809 -5.2407289,-25.32124 15.987863,-7.8059573 26.372412,-18.382966 Z m 31.4906096,12.951445 -9.741259,9.713584 8.944804,12.4580526 7.780753,-7.5550056 z m -49.8397109,4.378822 -13.7541661,12.9822847 26.2830181,13.84571 0.06127,-0.0617 -0.122531,-0.0617 L 13.598503,-5.4007374 -8.7022409,-22.052595 Z m 38.0154159,7.400825 -9.802525,9.7752596 11.579232,9.5594001 7.62759,-7.40083 -8.669108,-11.0087257 z m 20.187073,5.6739697 -7.382526,7.2158 6.187844,8.54179 5.820249,-6.13651996 z m -32.195166,6.32154 -9.5574606,9.49772 13.6622686,7.1849703 7.933918,-7.6783603 z m 23.311629,2.37443004 -7.10683,6.93826996 8.362778,6.9074403 5.360756,-5.6739699 -0.06127,-0.0925 -0.0919,0.12335 -6.463539,-8.20258036 z m -8.730374,8.54178036 -7.505057,7.3391599 10.353916,5.45811 c 1.397496,-1.32103 5.67514,-6.12292 5.850882,-6.32154 z"
         id="path4158-0-8"
         inkscape:connector-curvature="0" />
    </clipPath>
    <linearGradient
       inkscape:collect="always"
       xlink:href="#linearGradient3737"
       id="linearGradient4267"
       gradientUnits="userSpaceOnUse"
       gradientTransform="matrix(1.1155368,0,0,1.0537691,-5.3968099,-96.395999)"
       x1="32"
       y1="46"
       x2="32"
       y2="-24" />
    <linearGradient
       inkscape:collect="always"
       xlink:href="#linearGradient3737"
       id="linearGradient4269"
       gradientUnits="userSpaceOnUse"
       gradientTransform="matrix(1.1155368,0,0,1.0537691,30.300368,-96.395999)"
       x1="32"
       y1="46"
       x2="32"
       y2="-24" />
    <linearGradient
       inkscape:collect="always"
       xlink:href="#linearGradient3737"
       id="linearGradient4271"
       gradientUnits="userSpaceOnUse"
       gradientTransform="matrix(1.1155368,0,0,1.0537691,30.300368,-62.675387)"
       x1="32"
       y1="46"
       x2="32"
       y2="-24" />
    <linearGradient
       inkscape:collect="always"
       xlink:href="#linearGradient3737"
       id="linearGradient904"
       gradientUnits="userSpaceOnUse"
       gradientTransform="matrix(1.1155368,0,0,1.0537691,-5.6996156,-62.675387)"
       x1="32"
       y1="46"
       x2="32"
       y2="-24" />
  </defs>
  <sodipodi:namedview
     id="base"
     pagecolor="#ffffff"
     bordercolor="#666666"
     borderopacity="1.0"
     inkscape:pageopacity="0.0"
     inkscape:pageshadow="2"
     inkscape:zoom="2.6260002"
     inkscape:cx="-19.939535"
     inkscape:cy="35.94032"
     inkscape:document-units="px"
     inkscape:current-layer="g2574"
     showgrid="false"
     inkscape:showpageshadow="false"
     units="px"
     inkscape:lockguides="true"
     inkscape:window-width="1280"
     inkscape:window-height="947"
     inkscape:window-x="0"
     inkscape:window-y="19"
     inkscape:window-maximized="1">
    <sodipodi:guide
       position="0,0"
       orientation="0,96"
       id="guide1621"
       inkscape:locked="true" />
    <sodipodi:guide
       position="96.000002,0"
       orientation="-96,0"
       id="guide1623"
       inkscape:locked="true" />
    <sodipodi:guide
       position="96.000002,96.000002"
       orientation="0,-96"
       id="guide1625"
       inkscape:locked="true" />
    <sodipodi:guide
       position="0,96.000002"
       orientation="96,0"
       id="guide1627"
       inkscape:locked="true" />
  </sodipodi:namedview>
  <metadata
     id="metadata1069">
    <rdf:RDF>
      <cc:Work
         rdf:about="">
        <dc:format>image/svg+xml</dc:format>
        <dc:type
           rdf:resource="http://purl.org/dc/dcmitype/StillImage" />
        <dc:title />
        <dc:date>2017</dc:date>
        <dc:creator>
          <cc:Agent>
            <dc:title>Cristian Pozzessere &quot;ilnanny&quot;</dc:title>
          </cc:Agent>
        </dc:creator>
        <dc:subject>
          <rdf:Bag>
            <rdf:li>Global language</rdf:li>
          </rdf:Bag>
        </dc:subject>
        <dc:description>Playing with Inkscape on Gnu/Linux O. S.</dc:description>
        <dc:contributor>
          <cc:Agent>
            <dc:title>In the night, alone like a dog.</dc:title>
          </cc:Agent>
        </dc:contributor>
        <cc:license
           rdf:resource="http://creativecommons.org/licenses/by-sa/4.0/" />
      </cc:Work>
      <cc:License
         rdf:about="http://creativecommons.org/licenses/by-sa/4.0/">
        <cc:permits
           rdf:resource="http://creativecommons.org/ns#Reproduction" />
        <cc:permits
           rdf:resource="http://creativecommons.org/ns#Distribution" />
        <cc:requires
           rdf:resource="http://creativecommons.org/ns#Notice" />
        <cc:requires
           rdf:resource="http://creativecommons.org/ns#Attribution" />
        <cc:permits
           rdf:resource="http://creativecommons.org/ns#DerivativeWorks" />
        <cc:requires
           rdf:resource="http://creativecommons.org/ns#ShareAlike" />
      </cc:License>
    </rdf:RDF>
  </metadata>
  <g
     inkscape:label="Livello 1"
     inkscape:groupmode="layer"
     id="layer1"
     transform="translate(0,-1026.5197)">
    <g
       transform="translate(-0.14895645,1026.1047)"
       style="display:inline"
       id="g2574">
      <path
         inkscape:connector-curvature="0"
         id="path3288"
         d="M 89.29181,0.415026 H 7.0060911 c -3.798848,0 -6.8571352,3.058285 -6.8571352,6.8571399 V 89.557884 c 0,3.798857 3.0582872,6.857142 6.8571352,6.857142 H 89.29181 c 3.798857,0 6.857147,-3.058285 6.857147,-6.857142 V 7.2721659 c 0,-3.7988549 -3.05829,-6.8571399 -6.857147,-6.8571399 z"
         style="display:inline;opacity:0.15;fill:#000000;fill-opacity:1;fill-rule:nonzero;stroke:none" />
      <path
         style="display:inline;opacity:0.15;fill:#000000;fill-opacity:1;fill-rule:nonzero;stroke:none"
         d="M 88.648954,1.165026 H 7.6489471 c -3.739492,0 -6.749993,3.010499 -6.749993,6.7499969 V 88.915026 c 0,3.739501 3.010501,6.75 6.749993,6.75 H 88.648954 c 3.739503,0 6.750003,-3.010499 6.750003,-6.75 V 7.9150229 c 0,-3.7394979 -3.0105,-6.7499969 -6.750003,-6.7499969 z"
         id="path4085"
         inkscape:connector-curvature="0" />
      <path
         inkscape:connector-curvature="0"
         id="rect4251-1"
         d="M 88.006093,1.915026 H 8.2918111 c -3.680143,0 -6.6428566,2.962713 -6.6428566,6.6428549 V 88.272171 c 0,3.680142 2.9627136,6.642856 6.6428566,6.642856 H 88.006093 c 3.680143,0 6.642854,-2.962714 6.642854,-6.642856 V 8.5578809 c 0,-3.6801419 -2.962711,-6.6428549 -6.642854,-6.6428549 z"
         style="display:inline;fill:url(#linearGradient4071);fill-opacity:1;fill-rule:nonzero;stroke:none" />
      <path
         sodipodi:nodetypes="ssssssssssssssssss"
         style="color:#000000;opacity:0.859;stroke-width:1.08421314;fill:#465762;fill-opacity:0.64593303;stroke:none"
         inkscape:connector-curvature="0"
         d="m 13.567316,9.986932 c -3.402846,0 -3.346611,-0.2679492 -3.346611,3.161307 v 65.333685 c 0,3.04205 -0.7015775,3.161307 3.346611,3.161307 h 69.163281 c 3.531915,0 3.346611,0.913292 3.346611,-3.161307 V 13.148239 c 0,-3.4292562 0.314372,-3.161307 -3.346611,-3.161307 z m 0,2.041678 h 69.163281 c 0.689581,0 1.185258,0.468231 1.185258,1.119629 v 65.333685 c 0,0.651397 -0.495677,1.119629 -1.185258,1.119629 H 13.567316 c -0.689581,0 -1.185258,-0.468232 -1.185258,-1.119629 V 13.148239 c 0,-0.651398 0.495677,-1.119629 1.185258,-1.119629 z"
         id="path73" />
      <path
         sodipodi:nodetypes="sscccsccscccsss"
         inkscape:connector-curvature="0"
         id="path3400-6"
         d="m 11.390247,6.8021682 c -2.8564964,0 -5.1241284,2.3234574 -5.1241284,5.2502708 v 21.755806 7.350378 40.525523 c 1.0972399,1.710306 2.9688485,2.854834 5.1241284,2.854834 h 4.099303 65.588849 4.099302 c 2.155281,0 4.026889,-1.144528 5.124129,-2.854834 V 41.158623 33.808245 12.052439 c 0,-2.9268134 -2.267632,-5.2502708 -5.124129,-5.2502708 z"
         style="display:inline;opacity:0.69;fill:#e2dddd;fill-opacity:0.53767121;fill-rule:nonzero;stroke:none;stroke-width:1.03736329" />
      <path
         style="color:#000000;font-style:normal;font-variant:normal;font-weight:normal;font-stretch:normal;font-size:medium;line-height:normal;font-family:Sans;-inkscape-font-specification:Sans;text-indent:0;text-align:start;text-decoration:none;text-decoration-line:none;letter-spacing:normal;word-spacing:normal;text-transform:none;writing-mode:lr-tb;direction:ltr;baseline-shift:baseline;text-anchor:start;display:inline;overflow:visible;visibility:visible;fill:#1f2124;fill-opacity:0.63265306;stroke:none;stroke-width:2.3755002;marker:none;enable-background:accumulate"
         d="m 9.9740341,5.1444869 c -3.116621,0 -5.667965,2.53951 -5.667965,5.6460041 v 69.277996 c 0,3.106495 2.551344,5.646004 5.667965,5.646004 H 86.765819 c 3.116621,0 5.667968,-2.539509 5.667968,-5.646004 V 10.790491 c 0,-3.1064931 -2.551347,-5.6460041 -5.667968,-5.6460041 z m 0,2.319439 H 86.765819 c 1.888099,0 3.352022,1.480095 3.352022,3.3265651 v 69.277996 c 0,1.846474 -1.463923,3.326564 -3.352022,3.326564 H 9.9740341 c -1.888099,0 -3.352022,-1.48009 -3.352022,-3.326564 V 10.790491 c 0,-1.8464701 1.463923,-3.3265651 3.352022,-3.3265651 z"
         id="path4989"
         inkscape:connector-curvature="0" />
      <path
         id="path4118"
         d="m 1.6489535,82.258776 v 6 c 0,3.680142 2.9761066,6.65625 6.6562496,6.65625 H 87.992703 c 3.680143,0 6.656254,-2.976108 6.656254,-6.65625 v -6 c 0,3.680142 -2.976111,6.65625 -6.656254,6.65625 H 8.3052031 c -3.680143,0 -6.6562496,-2.976108 -6.6562496,-6.65625 z"
         style="display:inline;opacity:0.65818182;fill:url(#linearGradient4129);fill-opacity:1;fill-rule:nonzero;stroke:none"
         inkscape:connector-curvature="0" />
      <rect
         ry="4.25"
         rx="0"
         y="80.665031"
         x="5.5239539"
         height="4.25"
         width="84.250008"
         id="rect4131"
         style="opacity:0.55;fill:url(#radialGradient7462);fill-opacity:1;stroke:none" />
      <rect
         transform="rotate(90)"
         style="opacity:0.669;fill:url(#radialGradient7464);fill-opacity:1;stroke:none"
         id="rect4141"
         width="76.75"
         height="4.25"
         x="5.9750223"
         y="-90.233963"
         rx="0"
         ry="4.25" />
      <rect
         style="opacity:0.378;fill:url(#linearGradient904);stroke-width:1.08421314"
         transform="scale(1,-1)"
         rx="2.2310736"
         ry="2.1075382"
         height="29.505535"
         width="31.235031"
         y="-43.707542"
         x="14.379963"
         id="rect902" />
      <path
         style="color:#000000;opacity:0.07999998;stroke-width:1.08421314"
         inkscape:connector-curvature="0"
         d="m 15.798389,8.9331629 c -3.669446,0 -6.6932205,2.8563461 -6.6932205,6.3226151 v 61.118607 c 0,3.466268 3.0237745,6.322615 6.6932205,6.322615 h 64.701135 c 3.669446,0 6.693221,-2.856347 6.693221,-6.322615 V 15.255778 c 0,-3.466269 -3.023775,-6.3226151 -6.693221,-6.3226151 z m 0,4.2150761 h 64.701135 c 1.274612,0 2.231073,0.903512 2.231073,2.107539 v 61.118607 c 0,1.204037 -0.956472,2.107539 -2.231073,2.107539 H 15.798389 c -1.274612,0 -2.231073,-0.903513 -2.231073,-2.107539 V 15.255778 c 0,-1.204037 0.956472,-2.107539 2.231073,-2.107539 z"
         id="path71" />
      <path
         id="path79"
         d="m 16.913926,12.09447 c -2.432651,0 -4.462147,1.917122 -4.462147,4.215077 v 25.290458 c 0,2.297954 2.029496,4.215076 4.462147,4.215076 h 26.772883 c 2.432651,0 4.462148,-1.917122 4.462148,-4.215076 V 16.309547 c 0,-2.297955 -2.029497,-4.215077 -4.462148,-4.215077 z m 0,2.107538 h 26.772883 c 1.236015,0 2.231074,0.939962 2.231074,2.107539 v 25.290458 c 0,1.167576 -0.995059,2.107538 -2.231074,2.107538 H 16.913926 c -1.236015,0 -2.231073,-0.939962 -2.231073,-2.107538 V 16.309547 c 0,-1.167577 0.995058,-2.107539 2.231073,-2.107539 z"
         inkscape:connector-curvature="0"
         style="opacity:0.15;fill:#0f2e61;stroke-width:1.08421314" />
      <path
         id="path83"
         d="m 16.913926,13.115572 c -1.85213,0 -3.381419,1.444718 -3.381419,3.194185 v 25.290459 c 0,1.749573 1.5294,3.194185 3.381419,3.194185 h 26.772883 c 1.852126,0 3.381415,-1.444718 3.381415,-3.194185 V 16.309757 c 0,-1.749256 -1.5294,-3.193974 -3.381192,-3.193974 H 16.914149 Z m 0,1.086436 h 26.772883 c 1.236015,0 2.231074,0.939962 2.231074,2.107539 v 25.290458 c 0,1.167576 -0.995059,2.107538 -2.231074,2.107538 H 16.913926 c -1.236019,0 -2.231078,-0.939962 -2.231078,-2.107538 V 16.309547 c 0,-1.167577 0.995059,-2.107539 2.231078,-2.107539 z"
         inkscape:connector-curvature="0"
         style="opacity:0.622;fill:#204566;fill-opacity:1;stroke-width:1.08421314" />
      <rect
         id="rect85"
         x="14.682852"
         y="-77.428154"
         width="31.235031"
         height="29.505535"
         ry="2.1075382"
         rx="2.2310736"
         transform="scale(1,-1)"
         style="opacity:0.32638891;fill:url(#linearGradient4267);stroke-width:1.08421314" />
      <path
         id="path87"
         d="m 16.913926,45.815081 c -2.432651,0 -4.462147,1.917123 -4.462147,4.215077 v 25.290458 c 0,2.297955 2.029496,4.215077 4.462147,4.215077 h 26.772883 c 2.432651,0 4.462148,-1.917122 4.462148,-4.215077 V 50.030158 c 0,-2.297954 -2.029497,-4.215077 -4.462148,-4.215077 z m 0,2.107539 h 26.772883 c 1.236015,0 2.231074,0.939962 2.231074,2.107538 v 25.290458 c 0,1.167576 -0.995059,2.107538 -2.231074,2.107538 H 16.913926 c -1.236015,0 -2.231073,-0.939962 -2.231073,-2.107538 V 50.030158 c 0,-1.167576 0.995058,-2.107538 2.231073,-2.107538 z"
         inkscape:connector-curvature="0"
         style="opacity:0.15;fill:#0f2e61;stroke-width:1.08421314" />
      <path
         id="path89"
         d="m 16.913926,47.92262 c -1.236015,0 -2.231073,0.939962 -2.231073,2.107538 v 25.290458 c 0,1.167576 0.995058,2.107538 2.231073,2.107538 h 26.772883 c 1.236015,0 2.231074,-0.939962 2.231074,-2.107538 V 50.030158 c 0,-1.167576 -0.995059,-2.107538 -2.231074,-2.107538 z m 0,1.086646 h 26.772883 c 0.610333,0 1.080677,0.444301 1.080677,1.020839 v 25.290459 c 0,0.576538 -0.470344,1.020838 -1.080677,1.020838 H 16.913926 c -0.610332,0 -1.080676,-0.4443 -1.080676,-1.020838 V 50.030105 c 0,-0.576538 0.470344,-1.020839 1.080676,-1.020839 z"
         inkscape:connector-curvature="0"
         style="opacity:0.3;fill:#ffffff;stroke-width:1.08421314" />
      <path
         id="path91"
         d="m 16.913926,46.836184 c -1.852126,0 -3.381415,1.444717 -3.381415,3.194185 v 25.290458 c 0,1.749573 1.529401,3.194185 3.381415,3.194185 h 26.772883 c 1.852126,0 3.381415,-1.444718 3.381415,-3.194185 V 50.030369 c 0,-1.749257 -1.5294,-3.193975 -3.381192,-3.193975 H 16.914149 Z m 0,1.086436 h 26.772883 c 1.236015,0 2.231074,0.939962 2.231074,2.107538 v 25.290458 c 0,1.167576 -0.995059,2.107538 -2.231074,2.107538 H 16.913926 c -1.236015,0 -2.231073,-0.939962 -2.231073,-2.107538 V 50.030158 c 0,-1.167576 0.995058,-2.107538 2.231073,-2.107538 z"
         inkscape:connector-curvature="0"
         style="opacity:0.622;fill:#204566;fill-opacity:1;stroke-width:1.08421314" />
      <rect
         id="rect93"
         x="50.380024"
         y="-77.428154"
         width="31.235031"
         height="29.505535"
         ry="2.1075382"
         rx="2.2310736"
         transform="scale(1,-1)"
         style="opacity:0.34375;fill:url(#linearGradient4269);stroke-width:1.08421314" />
      <path
         id="path95"
         d="m 52.611104,45.815081 c -2.432651,0 -4.462147,1.917123 -4.462147,4.215077 v 25.290458 c 0,2.297955 2.029496,4.215077 4.462147,4.215077 H 79.38399 c 2.432651,0 4.462147,-1.917122 4.462147,-4.215077 V 50.030158 c 0,-2.297954 -2.029496,-4.215077 -4.462147,-4.215077 z m 0,2.107539 H 79.38399 c 1.236015,0 2.231074,0.939962 2.231074,2.107538 v 25.290458 c 0,1.167576 -0.995059,2.107538 -2.231074,2.107538 H 52.611104 c -1.236015,0 -2.231074,-0.939962 -2.231074,-2.107538 V 50.030158 c 0,-1.167576 0.995059,-2.107538 2.231074,-2.107538 z"
         inkscape:connector-curvature="0"
         style="opacity:0.15;fill:#0f2e61;stroke-width:1.08421314" />
      <path
         id="path97"
         d="m 52.611104,47.92262 c -1.236015,0 -2.231074,0.939962 -2.231074,2.107538 v 25.290458 c 0,1.167576 0.995059,2.107538 2.231074,2.107538 H 79.38399 c 1.236015,0 2.231074,-0.939962 2.231074,-2.107538 V 50.030158 c 0,-1.167576 -0.995059,-2.107538 -2.231074,-2.107538 z m 0,1.086646 H 79.38399 c 0.610333,0 1.080677,0.444301 1.080677,1.020839 v 25.290459 c 0,0.576538 -0.470344,1.020838 -1.080677,1.020838 H 52.611104 c -0.610333,0 -1.080677,-0.4443 -1.080677,-1.020838 V 50.030105 c 0,-0.576538 0.470344,-1.020839 1.080677,-1.020839 z"
         inkscape:connector-curvature="0"
         style="opacity:0.3;fill:#ffffff;stroke-width:1.08421314" />
      <path
         id="path99"
         d="m 52.611104,46.836184 c -1.852126,0 -3.381415,1.444717 -3.381415,3.194185 v 25.290458 c 0,1.749573 1.529401,3.194185 3.381415,3.194185 H 79.38399 c 1.852126,0 3.381415,-1.444718 3.381415,-3.194185 V 50.030369 c 0,-1.749257 -1.529401,-3.193975 -3.381192,-3.193975 H 52.611327 Z m 0,1.086436 H 79.38399 c 1.236015,0 2.231074,0.939962 2.231074,2.107538 v 25.290458 c 0,1.167576 -0.995059,2.107538 -2.231074,2.107538 H 52.611104 c -1.236015,0 -2.231074,-0.939962 -2.231074,-2.107538 V 50.030158 c 0,-1.167576 0.995059,-2.107538 2.231074,-2.107538 z"
         inkscape:connector-curvature="0"
         style="opacity:0.622;fill:#204566;fill-opacity:1;stroke-width:1.08421314" />
      <rect
         id="rect101"
         x="50.380024"
         y="-43.707542"
         width="31.235031"
         height="29.505535"
         ry="2.1075382"
         rx="2.2310736"
         transform="scale(1,-1)"
         style="opacity:0.33333333;fill:url(#linearGradient4271);stroke-width:1.08421314" />
      <path
         id="path103"
         d="m 52.611104,12.09447 c -2.432651,0 -4.462147,1.917122 -4.462147,4.215077 v 25.290458 c 0,2.297954 2.029496,4.215076 4.462147,4.215076 H 79.38399 c 2.432651,0 4.462147,-1.917122 4.462147,-4.215076 V 16.309547 c 0,-2.297955 -2.029496,-4.215077 -4.462147,-4.215077 z m 0,2.107538 H 79.38399 c 1.236015,0 2.231074,0.939962 2.231074,2.107539 v 25.290458 c 0,1.167576 -0.995059,2.107538 -2.231074,2.107538 H 52.611104 c -1.236015,0 -2.231074,-0.939962 -2.231074,-2.107538 V 16.309547 c 0,-1.167577 0.995059,-2.107539 2.231074,-2.107539 z"
         inkscape:connector-curvature="0"
         style="opacity:0.15;fill:#0f2e61;stroke-width:1.08421314" />
      <path
         id="path105"
         d="m 52.611104,14.202008 c -1.236015,0 -2.231074,0.939962 -2.231074,2.107539 v 25.290458 c 0,1.167576 0.995059,2.107538 2.231074,2.107538 H 79.38399 c 1.236015,0 2.231074,-0.939962 2.231074,-2.107538 V 16.309547 c 0,-1.167577 -0.995059,-2.107539 -2.231074,-2.107539 z m 0,1.086647 H 79.38399 c 0.610333,0 1.080677,0.444301 1.080677,1.020839 v 25.290458 c 0,0.576538 -0.470344,1.020839 -1.080677,1.020839 H 52.611104 c -0.610333,0 -1.080677,-0.444301 -1.080677,-1.020839 V 16.309494 c 0,-0.576538 0.470344,-1.020839 1.080677,-1.020839 z"
         inkscape:connector-curvature="0"
         style="opacity:0.3;fill:#ffffff;stroke-width:1.08421314" />
      <path
         id="path107"
         d="m 52.611104,13.115572 c -1.852126,0 -3.381415,1.444718 -3.381415,3.194185 v 25.290459 c 0,1.749573 1.529401,3.194185 3.381415,3.194185 H 79.38399 c 1.852126,0 3.381415,-1.444718 3.381415,-3.194185 V 16.309757 c 0,-1.749256 -1.529401,-3.193974 -3.381192,-3.193974 H 52.611327 Z m 0,1.086436 H 79.38399 c 1.236015,0 2.231074,0.939962 2.231074,2.107539 v 25.290458 c 0,1.167576 -0.995059,2.107538 -2.231074,2.107538 H 52.611104 c -1.236015,0 -2.231074,-0.939962 -2.231074,-2.107538 V 16.309547 c 0,-1.167577 0.995059,-2.107539 2.231074,-2.107539 z"
         inkscape:connector-curvature="0"
         style="opacity:0.622;fill:#204566;fill-opacity:1;stroke-width:1.08421314" />
      <rect
         clip-path="url(#clipPath4156-4-1)"
         ry="3.9569881"
         rx="3.9569874"
         y="-30"
         x="2"
         height="69.024437"
         width="75.965775"
         id="rect4146"
         style="opacity:0.59;fill:url(#linearGradient4767);fill-opacity:1;stroke:none"
         transform="matrix(1.0692451,0,0,1.0476829,4.4441802,38.894013)" />
    </g>
  </g>
</svg>
