<?xml version="1.0" encoding="UTF-8" standalone="no"?>
<!-- Created with Inkscape (http://www.inkscape.org/) -->

<svg
   xmlns:dc="http://purl.org/dc/elements/1.1/"
   xmlns:cc="http://creativecommons.org/ns#"
   xmlns:rdf="http://www.w3.org/1999/02/22-rdf-syntax-ns#"
   xmlns:svg="http://www.w3.org/2000/svg"
   xmlns="http://www.w3.org/2000/svg"
   xmlns:xlink="http://www.w3.org/1999/xlink"
   xmlns:sodipodi="http://sodipodi.sourceforge.net/DTD/sodipodi-0.dtd"
   xmlns:inkscape="http://www.inkscape.org/namespaces/inkscape"
   width="96"
   height="96"
   id="svg5453"
   version="1.1"
   inkscape:version="0.92.2 2405546, 2018-03-11"
   sodipodi:docname="Deviantart-deviantart.com.svg">
  <title
     id="title963">Lila HD icon theme</title>
  <defs
     id="defs5455">
    <linearGradient
       id="linearGradient961">
      <stop
         id="stop957"
         offset="0"
         style="stop-color:#839b96;stop-opacity:1" />
      <stop
         id="stop959"
         offset="1"
         style="stop-color:#457b63;stop-opacity:1" />
    </linearGradient>
    <linearGradient
       id="linearGradient4097"
       inkscape:collect="always">
      <stop
         id="stop4099"
         offset="0"
         style="stop-color:#d8e0de;stop-opacity:1" />
      <stop
         id="stop4101"
         offset="1"
         style="stop-color:#f9fbfa;stop-opacity:1" />
    </linearGradient>
    <linearGradient
       id="linearGradient3281">
      <stop
         style="stop-color:#69827d;stop-opacity:1;"
         offset="0"
         id="stop3283" />
      <stop
         style="stop-color:#435550;stop-opacity:1;"
         offset="1"
         id="stop3285" />
    </linearGradient>
    <linearGradient
       inkscape:collect="always"
       xlink:href="#linearGradient3281"
       id="linearGradient3287"
       x1="423.76923"
       y1="-547.8006"
       x2="423.76923"
       y2="-499.79724"
       gradientUnits="userSpaceOnUse"
       gradientTransform="translate(27.753941,13.788582)" />
    <linearGradient
       inkscape:collect="always"
       xlink:href="#linearGradient4097"
       id="linearGradient4095"
       x1="418.63394"
       y1="533.48547"
       x2="418.63394"
       y2="514.29797"
       gradientUnits="userSpaceOnUse"
       gradientTransform="translate(1.4893425e-6,0)" />
    <linearGradient
       inkscape:collect="always"
       xlink:href="#linearGradient4097"
       id="linearGradient3008"
       gradientUnits="userSpaceOnUse"
       gradientTransform="translate(1.4893425e-6,0)"
       x1="418.63394"
       y1="533.48547"
       x2="418.63394"
       y2="514.29797" />
    <radialGradient
       gradientUnits="userSpaceOnUse"
       gradientTransform="matrix(1,0,0,0.91365451,0,3.9718926)"
       r="42.423195"
       fy="46"
       fx="48"
       cy="46"
       cx="48"
       id="radialGradient5037"
       xlink:href="#linearGradient961"
       inkscape:collect="always" />
    <radialGradient
       inkscape:collect="always"
       xlink:href="#linearGradient4133-5"
       id="radialGradient4992"
       gradientUnits="userSpaceOnUse"
       gradientTransform="matrix(0.97513384,0,0,0.04919072,32.734694,78.81442)"
       cx="13.948145"
       cy="44.892841"
       fx="13.948145"
       fy="44.892841"
       r="43.199203" />
    <radialGradient
       inkscape:collect="always"
       xlink:href="#linearGradient4133-5"
       id="radialGradient3831-7"
       gradientUnits="userSpaceOnUse"
       gradientTransform="matrix(0.97513378,0,0,0.04919072,-4.148257,101.31932)"
       cx="13.948145"
       cy="44.892841"
       fx="13.948145"
       fy="44.892841"
       r="43.199203" />
    <linearGradient
       id="linearGradient4133-5"
       inkscape:collect="always">
      <stop
         id="stop4135-4"
         offset="0"
         style="stop-color:#ffffff;stop-opacity:1;" />
      <stop
         id="stop4137-5"
         offset="1"
         style="stop-color:#ffffff;stop-opacity:0;" />
    </linearGradient>
    <radialGradient
       inkscape:collect="always"
       xlink:href="#linearGradient4133-5"
       id="radialGradient3833-1"
       gradientUnits="userSpaceOnUse"
       gradientTransform="matrix(0.88832663,0,0,0.04919072,29.382213,-89.635221)"
       cx="13.948145"
       cy="44.892841"
       fx="13.948145"
       fy="44.892841"
       r="43.199203" />
    <linearGradient
       y2="14.514202"
       x2="50.527882"
       y1="-28.64156"
       x1="2.7713892"
       gradientUnits="userSpaceOnUse"
       id="linearGradient4967"
       xlink:href="#linearGradient4213-7-8"
       inkscape:collect="always" />
    <clipPath
       id="clipPath4156-4-6"
       clipPathUnits="userSpaceOnUse">
      <path
         inkscape:connector-curvature="0"
         id="path4158-0-3"
         d="m 27.046336,-55.695463 -14.21366,13.321486 0.06127,0 15.653407,21.770763 10.231384,-10.546177 C 38.561832,-32.30156 27.468089,-54.819245 27.046336,-55.695463 z M 9.6468554,-39.382809 -5.2407289,-25.32124 15.987863,-7.8059573 26.372412,-18.382966 9.6468554,-39.382809 z m 31.4906096,12.951445 -9.741259,9.713584 8.944804,12.4580526 7.780753,-7.5550056 -6.984298,-14.616631 z m -49.8397109,4.378822 -13.7541661,12.9822847 26.2830181,13.84571 0.06127,-0.0617 -0.122531,-0.0617 L 13.598503,-5.4007374 -8.7022409,-22.052595 z m 38.0154159,7.400825 -9.802525,9.7752596 11.579232,9.5594001 7.62759,-7.40083 -8.669108,-11.0087257 -0.735189,-0.925104 z m 20.187073,5.6739697 -7.382526,7.2158 6.187844,8.54179 5.820249,-6.13651996 -4.625567,-9.62107004 z m -32.195166,6.32154 -9.5574606,9.49772 13.6622686,7.1849703 7.933918,-7.6783603 -12.038726,-9.00433 z m 23.311629,2.37443004 -7.10683,6.93826996 8.362778,6.9074403 5.360756,-5.6739699 -0.06127,-0.0925 -0.0919,0.12335 -6.463539,-8.20258036 z m -8.730374,8.54178036 -7.505057,7.3391599 10.353916,5.45811 c 1.397496,-1.32103 5.67514,-6.12292 5.850882,-6.32154 L 31.886332,8.2600031 z"
         style="opacity:0.6;fill:#ffffff;fill-opacity:1;stroke:none" />
    </clipPath>
    <linearGradient
       id="linearGradient4213-7-8"
       inkscape:collect="always">
      <stop
         id="stop4215-6-5"
         offset="0"
         style="stop-color:#ffffff;stop-opacity:1;" />
      <stop
         id="stop4217-5-2"
         offset="1"
         style="stop-color:#ffffff;stop-opacity:0;" />
    </linearGradient>
    <linearGradient
       inkscape:collect="always"
       xlink:href="#linearGradient4213-7-8"
       id="linearGradient3837-7"
       gradientUnits="userSpaceOnUse"
       x1="2.7713892"
       y1="-28.64156"
       x2="50.527882"
       y2="14.514202" />
    <clipPath
       id="clipPath4156-4"
       clipPathUnits="userSpaceOnUse">
      <path
         inkscape:connector-curvature="0"
         id="path4158-0"
         d="m 27.046336,-55.695463 -14.21366,13.321486 0.06127,0 15.653407,21.770763 10.231384,-10.546177 C 38.561832,-32.30156 27.468089,-54.819245 27.046336,-55.695463 z M 9.6468554,-39.382809 -5.2407289,-25.32124 15.987863,-7.8059573 26.372412,-18.382966 9.6468554,-39.382809 z m 31.4906096,12.951445 -9.741259,9.713584 8.944804,12.4580526 7.780753,-7.5550056 -6.984298,-14.616631 z m -49.8397109,4.378822 -13.7541661,12.9822847 26.2830181,13.84571 0.06127,-0.0617 -0.122531,-0.0617 L 13.598503,-5.4007374 -8.7022409,-22.052595 z m 38.0154159,7.400825 -9.802525,9.7752596 11.579232,9.5594001 7.62759,-7.40083 -8.669108,-11.0087257 -0.735189,-0.925104 z m 20.187073,5.6739697 -7.382526,7.2158 6.187844,8.54179 5.820249,-6.13651996 -4.625567,-9.62107004 z m -32.195166,6.32154 -9.5574606,9.49772 13.6622686,7.1849703 7.933918,-7.6783603 -12.038726,-9.00433 z m 23.311629,2.37443004 -7.10683,6.93826996 8.362778,6.9074403 5.360756,-5.6739699 -0.06127,-0.0925 -0.0919,0.12335 -6.463539,-8.20258036 z m -8.730374,8.54178036 -7.505057,7.3391599 10.353916,5.45811 c 1.397496,-1.32103 5.67514,-6.12292 5.850882,-6.32154 L 31.886332,8.2600031 z"
         style="opacity:0.6;fill:#ffffff;fill-opacity:1;stroke:none" />
    </clipPath>
    <linearGradient
       id="linearGradient4213-7"
       inkscape:collect="always">
      <stop
         id="stop4215-6"
         offset="0"
         style="stop-color:#ffffff;stop-opacity:1;" />
      <stop
         id="stop4217-5"
         offset="1"
         style="stop-color:#ffffff;stop-opacity:0;" />
    </linearGradient>
    <linearGradient
       inkscape:collect="always"
       xlink:href="#linearGradient4213-7"
       id="linearGradient3837"
       gradientUnits="userSpaceOnUse"
       x1="2.7713892"
       y1="-28.64156"
       x2="50.527882"
       y2="14.514202" />
    <filter
       id="filter3174-3"
       color-interpolation-filters="sRGB">
      <feGaussianBlur
         stdDeviation="1.71"
         id="feGaussianBlur3176-6" />
    </filter>
    <linearGradient
       gradientTransform="scale(1.0058652,0.994169)"
       gradientUnits="userSpaceOnUse"
       id="ButtonShadow-1"
       y2="7.0165396"
       x2="45.447727"
       y1="92.539597"
       x1="45.447727">
      <stop
         offset="0"
         style="stop-color:#000000;stop-opacity:1"
         id="stop3750-9" />
      <stop
         offset="1"
         style="stop-color:#000000;stop-opacity:0.58823532"
         id="stop3752-9" />
    </linearGradient>
    <radialGradient
       inkscape:collect="always"
       xlink:href="#linearGradient4133"
       id="radialGradient3833"
       gradientUnits="userSpaceOnUse"
       gradientTransform="matrix(0.88832663,0,0,0.04919072,51.887113,-52.752262)"
       cx="13.948145"
       cy="44.892841"
       fx="13.948145"
       fy="44.892841"
       r="43.199203" />
    <linearGradient
       id="linearGradient4133"
       inkscape:collect="always">
      <stop
         id="stop4135"
         offset="0"
         style="stop-color:#ffffff;stop-opacity:1;" />
      <stop
         id="stop4137"
         offset="1"
         style="stop-color:#ffffff;stop-opacity:0;" />
    </linearGradient>
    <radialGradient
       inkscape:collect="always"
       xlink:href="#linearGradient4133"
       id="radialGradient3831"
       gradientUnits="userSpaceOnUse"
       gradientTransform="matrix(0.97513378,0,0,0.04919072,-4.148257,101.31932)"
       cx="13.948145"
       cy="44.892841"
       fx="13.948145"
       fy="44.892841"
       r="43.199203" />
    <linearGradient
       id="linearGradient3832-0-6-1-1">
      <stop
         id="stop3834-6-3-7-1"
         offset="0"
         style="stop-color:#000000;stop-opacity:1;" />
      <stop
         style="stop-color:#000000;stop-opacity:0.58823532;"
         offset="0.1"
         id="stop3872-2-4" />
      <stop
         id="stop3844-6-2-7-6"
         offset="0.89999998"
         style="stop-color:#000000;stop-opacity:0.58823532;" />
      <stop
         id="stop3836-5-0-2-9"
         offset="1"
         style="stop-color:#000000;stop-opacity:1;" />
    </linearGradient>
    <linearGradient
       inkscape:collect="always"
       xlink:href="#linearGradient3832-0-6-1-1"
       id="linearGradient3829"
       gradientUnits="userSpaceOnUse"
       gradientTransform="translate(-3e-6)"
       x1="1.5"
       y1="88.171875"
       x2="94.5"
       y2="88.171875" />
    <linearGradient
       id="linearGradient4091-0-3-0-7">
      <stop
         id="stop4093-3-6-4-2"
         offset="0"
         style="stop-color:#ffffff;stop-opacity:1;" />
      <stop
         style="stop-color:#ffffff;stop-opacity:1;"
         offset="0.80000001"
         id="stop4099-6-1-8-3" />
      <stop
         id="stop4095-1-0-7-9"
         offset="1"
         style="stop-color:#ffffff;stop-opacity:0;" />
    </linearGradient>
    <radialGradient
       inkscape:collect="always"
       xlink:href="#linearGradient4091-0-3-0-7"
       id="radialGradient3827"
       gradientUnits="userSpaceOnUse"
       gradientTransform="matrix(-1.1870482,0,0,-0.96877218,104.97833,-24.656848)"
       cx="48"
       cy="-27"
       fx="48"
       fy="-27"
       r="42" />
    <linearGradient
       id="linearGradient6139-0">
      <stop
         style="stop-color:#adb4c1;stop-opacity:1;"
         offset="0"
         id="stop6141-2" />
      <stop
         id="stop6151-0"
         offset="0.25"
         style="stop-color:#ffffff;stop-opacity:1;" />
      <stop
         id="stop6147-1"
         offset="0.5"
         style="stop-color:#9095aa;stop-opacity:1;" />
      <stop
         style="stop-color:#fbf9f9;stop-opacity:1;"
         offset="0.75"
         id="stop6149-4" />
      <stop
         style="stop-color:#adb3c1;stop-opacity:1;"
         offset="1"
         id="stop6143-4" />
    </linearGradient>
    <linearGradient
       inkscape:collect="always"
       xlink:href="#linearGradient6139-0"
       id="linearGradient3825"
       gradientUnits="userSpaceOnUse"
       gradientTransform="matrix(1.1071428,0,0,1.1071426,-5.1428591,-4.035713)"
       x1="6"
       y1="47.000011"
       x2="90"
       y2="47.000011" />
    <linearGradient
       id="linearGradient5029">
      <stop
         id="stop5031"
         offset="0"
         style="stop-color:#0a9aff;stop-opacity:1;" />
      <stop
         id="stop5033"
         offset="1"
         style="stop-color:#0070c0;stop-opacity:1;" />
    </linearGradient>
    <linearGradient
       id="linearGradient5039">
      <stop
         style="stop-color:#ff0a0a;stop-opacity:1;"
         offset="0"
         id="stop5041" />
      <stop
         style="stop-color:#c00000;stop-opacity:1;"
         offset="1"
         id="stop5043" />
    </linearGradient>
    <linearGradient
       id="linearGradient5045">
      <stop
         id="stop5047"
         offset="0"
         style="stop-color:#2fff0a;stop-opacity:1;" />
      <stop
         id="stop5049"
         offset="1"
         style="stop-color:#16b50b;stop-opacity:1;" />
    </linearGradient>
    <linearGradient
       id="linearGradient5051">
      <stop
         style="stop-color:#c60aff;stop-opacity:1;"
         offset="0"
         id="stop5053" />
      <stop
         style="stop-color:#9b0bb5;stop-opacity:1;"
         offset="1"
         id="stop5055" />
    </linearGradient>
    <linearGradient
       id="linearGradient5057">
      <stop
         id="stop5059"
         offset="0"
         style="stop-color:#ff830a;stop-opacity:1;" />
      <stop
         id="stop5061"
         offset="1"
         style="stop-color:#b55f0b;stop-opacity:1;" />
    </linearGradient>
    <linearGradient
       id="linearGradient5063">
      <stop
         style="stop-color:#6b9ab0;stop-opacity:1;"
         offset="0"
         id="stop5065" />
      <stop
         style="stop-color:#466b7a;stop-opacity:1;"
         offset="1"
         id="stop5067" />
    </linearGradient>
    <linearGradient
       inkscape:collect="always"
       xlink:href="#linearGradient4097-0"
       id="linearGradient3008-5"
       gradientUnits="userSpaceOnUse"
       gradientTransform="matrix(1.753087,-0.73912887,0.68430774,1.89353,-1033.6136,-648.96978)"
       x1="418.63394"
       y1="533.48547"
       x2="418.63394"
       y2="514.29797" />
    <linearGradient
       id="linearGradient4097-0"
       inkscape:collect="always">
      <stop
         id="stop4099-3"
         offset="0"
         style="stop-color:#d8e0de;stop-opacity:1" />
      <stop
         id="stop4101-1"
         offset="1"
         style="stop-color:#f9fbfa;stop-opacity:1" />
    </linearGradient>
  </defs>
  <sodipodi:namedview
     id="base"
     pagecolor="#ffffff"
     bordercolor="#666666"
     borderopacity="1.0"
     inkscape:pageopacity="0"
     inkscape:pageshadow="2"
     inkscape:zoom="1.4142136"
     inkscape:cx="55.17555"
     inkscape:cy="32.269944"
     inkscape:document-units="px"
     inkscape:current-layer="layer7"
     showgrid="false"
     fit-margin-top="0"
     fit-margin-left="0"
     fit-margin-right="0"
     fit-margin-bottom="0"
     inkscape:window-width="1280"
     inkscape:window-height="969"
     inkscape:window-x="0"
     inkscape:window-y="0"
     inkscape:window-maximized="1"
     inkscape:showpageshadow="false" />
  <metadata
     id="metadata5458">
    <rdf:RDF>
      <cc:Work
         rdf:about="">
        <dc:format>image/svg+xml</dc:format>
        <dc:type
           rdf:resource="http://purl.org/dc/dcmitype/StillImage" />
        <dc:title>Lila HD icon theme</dc:title>
        <dc:date>2015</dc:date>
        <dc:creator>
          <cc:Agent>
            <dc:title>Cristian Pozzessere  &lt; ilnanny &gt;</dc:title>
          </cc:Agent>
        </dc:creator>
        <dc:subject>
          <rdf:Bag>
            <rdf:li>ilnanny</rdf:li>
          </rdf:Bag>
        </dc:subject>
        <dc:description>Playing with Inkscape on Gnu/Linux O. S.</dc:description>
        <dc:contributor>
          <cc:Agent>
            <dc:title>In the night, alone like a dog.</dc:title>
          </cc:Agent>
        </dc:contributor>
        <cc:license
           rdf:resource="http://creativecommons.org/licenses/by-sa/4.0/" />
      </cc:Work>
      <cc:License
         rdf:about="http://creativecommons.org/licenses/by-sa/4.0/">
        <cc:permits
           rdf:resource="http://creativecommons.org/ns#Reproduction" />
        <cc:permits
           rdf:resource="http://creativecommons.org/ns#Distribution" />
        <cc:requires
           rdf:resource="http://creativecommons.org/ns#Notice" />
        <cc:requires
           rdf:resource="http://creativecommons.org/ns#Attribution" />
        <cc:permits
           rdf:resource="http://creativecommons.org/ns#DerivativeWorks" />
        <cc:requires
           rdf:resource="http://creativecommons.org/ns#ShareAlike" />
      </cc:License>
    </rdf:RDF>
  </metadata>
  <g
     inkscape:label="Capa 1"
     inkscape:groupmode="layer"
     id="layer1"
     transform="translate(-384.57143,-451.798)">
    <g
       id="g3169"
       transform="translate(384.57143,451.798)">
      <path
         inkscape:connector-curvature="0"
         id="path3288"
         d="M 89.142854,0 H 6.8571346 C 3.0582866,0 -6e-7,3.058285 -6e-7,6.8571399 V 89.142858 C -6e-7,92.941715 3.0582866,96 6.8571346,96 H 89.142854 c 3.798857,0 6.857147,-3.058285 6.857147,-6.857142 V 6.8571399 C 96.000001,3.058285 92.941711,0 89.142854,0 Z"
         style="display:inline;opacity:0.15;fill:#000000;fill-opacity:1;fill-rule:nonzero;stroke:none" />
      <path
         style="display:inline;opacity:0.15;fill:#000000;fill-opacity:1;fill-rule:nonzero;stroke:none"
         d="M 88.499998,0.75 H 7.4999906 c -3.739492,0 -6.749993,3.010499 -6.749993,6.7499969 V 88.5 c 0,3.739501 3.010501,6.75 6.749993,6.75 H 88.499998 c 3.739503,0 6.750003,-3.010499 6.750003,-6.75 V 7.4999969 C 95.250001,3.760499 92.239501,0.75 88.499998,0.75 Z"
         id="path4085"
         inkscape:connector-curvature="0" />
      <path
         inkscape:connector-curvature="0"
         id="rect4251-1"
         d="M 87.857137,1.5 H 8.1428546 C 4.4627116,1.5 1.499998,4.462713 1.499998,8.1428549 V 87.857145 c 0,3.680142 2.9627136,6.642856 6.6428566,6.642856 H 87.857137 c 3.680143,0 6.642854,-2.962714 6.642854,-6.642856 V 8.1428549 C 94.499991,4.462713 91.53728,1.5 87.857137,1.5 Z"
         style="display:inline;fill:url(#linearGradient3825);fill-opacity:1;fill-rule:nonzero;stroke:none" />
      <path
         inkscape:connector-curvature="0"
         id="path4236-5"
         d="m 8.1428736,1.5000007 c -3.6801427,0 -6.6428568,2.9627132 -6.6428568,6.6428556 V 24.749995 H 2.6071596 V 8.1428563 c 0,-3.0859355 2.4497749,-5.535713 5.535714,-5.535713 H 87.857155 c 3.085939,0 5.535714,2.4497775 5.535714,5.535713 V 24.749995 h 1.107143 V 8.1428563 c 0,-3.6801424 -2.962714,-6.6428556 -6.642857,-6.6428556 z"
         style="display:inline;opacity:0.45;fill:url(#radialGradient3827);fill-opacity:1;fill-rule:nonzero;stroke:none;stroke-width:1.10714269" />
      <path
         id="path4118"
         d="m 1.499997,81.84375 v 6 c 0,3.680142 2.9761066,6.65625 6.6562496,6.65625 H 87.843747 c 3.680143,0 6.656254,-2.976108 6.656254,-6.65625 v -6 c 0,3.680142 -2.976111,6.65625 -6.656254,6.65625 H 8.1562466 C 4.4761036,88.5 1.499997,85.523892 1.499997,81.84375 Z"
         style="display:inline;opacity:0.89090905;fill:url(#linearGradient3829);fill-opacity:1;fill-rule:nonzero;stroke:none"
         inkscape:connector-curvature="0" />
      <g
         style="display:inline"
         inkscape:label="colori"
         id="layer7">
        <rect
           style="fill:url(#radialGradient5037);fill-opacity:1.0;stroke:none;display:inline"
           id="rect4301"
           width="84.84639"
           height="77.520287"
           x="5.5768051"
           y="7.2398567"
           ry="4.25" />
        <path
           inkscape:connector-curvature="0"
           id="path4109"
           d="M 11.541145,75.926612 C 11.22842,75.426869 10.674324,74.12714 10.163911,72.69472 9.423815,70.63005 9.2842816,70.057243 9.1278098,68.542432 8.1540162,59.149093 14.09269,48.183329 24.532252,40.097944 c 1.109364,-0.859162 2.183746,-1.683086 2.387647,-1.830937 l 0.370513,-0.269026 -1.320803,-3.654759 c -0.764207,-2.114618 -1.276219,-3.718659 -1.215159,-3.806285 0.31134,-0.446964 6.76553,-4.053255 8.755687,-4.892336 l 0.766625,-0.323221 1.31628,3.642243 1.31632,3.642356 2.877558,-1.098666 c 10.717102,-4.092453 21.501432,-4.838718 30.188041,-2.088972 5.101125,1.614776 9.413173,4.64678 11.975834,8.420717 0.83442,1.228847 1.087949,1.753679 1.842223,3.812414 0.520186,1.428213 0.930785,2.78853 1.014017,3.384987 l 0.139215,0.99772 -17.703602,7.464115 -17.703602,7.464115 -3.725529,-10.308812 -3.725487,-10.3087 1.993368,-0.721077 c 2.697993,-0.976045 5.133728,-1.571227 7.658569,-1.872832 l 0.937635,-0.111917 1.98036,5.4798 1.980366,5.479819 6.137855,-2.587816 6.137856,-2.587816 -0.281409,-0.478492 C 68.102744,42.042759 66.672502,40.234045 65.881577,39.465033 60.432872,34.167467 52.12254,33.608724 41.559458,37.829918 l -2.417616,0.965627 4.16667,11.518303 4.166656,11.518266 -17.705477,7.464906 -17.705477,7.464906 -0.523425,-0.835797 z m 20.53389,-24.688499 c -1.435308,-3.971604 -2.475331,-6.673338 -2.556148,-6.639264 -0.07433,0.03134 -0.641656,0.527926 -1.259763,1.103464 -3.72447,3.466993 -5.897441,7.707715 -6.290993,12.277533 -0.10603,1.230624 -0.03677,3.541861 0.135571,4.527427 l 0.105732,0.607286 6.142519,-2.589782 6.142536,-2.58979 -2.420102,-6.696601 z"
           style="fill:#000000;fill-opacity:0.05882353;stroke-width:1.95584106" />
        <path
           style="fill:#000000;fill-opacity:0.11764706;stroke-width:1.95584106"
           d="M 11.267422,75.1692 C 10.954697,74.669457 10.400601,73.369728 9.8901875,71.937308 9.1500919,69.872638 9.0105585,69.299831 8.8540867,67.78502 7.8802931,58.391681 13.818967,47.425917 24.258528,39.340532 c 1.109365,-0.859162 2.183747,-1.683086 2.387648,-1.830937 l 0.370513,-0.269026 -1.320803,-3.654759 c -0.764207,-2.114618 -1.276219,-3.718659 -1.215159,-3.806285 0.311339,-0.446964 6.76553,-4.053255 8.755687,-4.892336 l 0.766625,-0.323221 1.31628,3.642243 1.31632,3.642356 2.877558,-1.098666 c 10.717102,-4.092453 21.501432,-4.838718 30.188041,-2.088972 5.101125,1.614776 9.413173,4.64678 11.975834,8.420717 0.83442,1.228847 1.087949,1.753679 1.842223,3.812414 0.520186,1.428213 0.930784,2.78853 1.014016,3.384987 l 0.139215,0.99772 -17.703601,7.464115 -17.703602,7.464115 -3.725529,-10.308812 -3.725487,-10.3087 1.993368,-0.721077 c 2.697993,-0.976045 5.133728,-1.571227 7.658569,-1.872832 l 0.937635,-0.111917 1.980359,5.4798 1.980367,5.479819 6.137855,-2.587816 6.137856,-2.587816 -0.281409,-0.478492 C 67.829021,41.285347 66.398779,39.476633 65.607854,38.707621 60.159149,33.410055 51.848817,32.851312 41.285735,37.072506 l -2.417616,0.965627 4.16667,11.518303 4.166656,11.518266 -17.705477,7.464906 -17.705478,7.464906 -0.523424,-0.835797 z m 20.53389,-24.688499 c -1.435308,-3.971604 -2.475331,-6.673338 -2.556148,-6.639264 -0.07433,0.03134 -0.641657,0.527926 -1.259763,1.103464 -3.72447,3.466993 -5.897441,7.707715 -6.290993,12.277533 -0.10603,1.230624 -0.03677,3.541861 0.135571,4.527427 l 0.105732,0.607286 6.142518,-2.589782 6.142537,-2.58979 -2.420102,-6.696601 z"
           id="path4107"
           inkscape:connector-curvature="0" />
        <path
           inkscape:connector-curvature="0"
           id="path4103"
           d="M 10.993699,74.411788 C 10.680974,73.912045 10.126878,72.612316 9.6164644,71.179896 8.8763688,69.115226 8.7368354,68.542419 8.5803636,67.027608 7.60657,57.634269 13.545244,46.668505 23.984805,38.58312 c 1.109365,-0.859162 2.183746,-1.683086 2.387648,-1.830937 l 0.370513,-0.269026 -1.320803,-3.654759 c -0.764207,-2.114618 -1.276219,-3.718659 -1.215159,-3.806285 0.311339,-0.446964 6.76553,-4.053255 8.755687,-4.892336 l 0.766625,-0.323221 1.31628,3.642243 1.31632,3.642356 2.877558,-1.098666 c 10.717102,-4.092453 21.501431,-4.838718 30.188041,-2.088972 5.101125,1.614776 9.413173,4.64678 11.975834,8.420717 0.83442,1.228847 1.087949,1.753679 1.842223,3.812414 0.520186,1.428213 0.930784,2.78853 1.014016,3.384987 l 0.139215,0.99772 -17.703601,7.464115 -17.703602,7.464115 -3.725529,-10.308812 -3.725487,-10.3087 1.993368,-0.721077 c 2.697993,-0.976045 5.133728,-1.571227 7.658569,-1.872832 l 0.937635,-0.111917 1.980359,5.4798 1.980366,5.479819 6.137856,-2.587816 6.137856,-2.587816 -0.281409,-0.478492 C 67.555298,40.527935 66.125056,38.719221 65.334131,37.950209 59.885426,32.652643 51.575094,32.0939 41.012012,36.315094 l -2.417617,0.965627 4.166671,11.518303 4.166656,11.518266 -17.705477,7.464906 -17.705478,7.464906 -0.523424,-0.835797 z m 20.53389,-24.688499 c -1.435308,-3.971604 -2.475331,-6.673338 -2.556149,-6.639264 -0.07433,0.03134 -0.641656,0.527926 -1.259762,1.103464 -3.72447,3.466993 -5.897441,7.707715 -6.290994,12.277533 -0.106029,1.230624 -0.03677,3.541861 0.135572,4.527427 l 0.105731,0.607286 6.142519,-2.589782 6.142537,-2.58979 -2.420103,-6.696601 z"
           style="fill:#000000;fill-opacity:0.23529412;stroke-width:1.95584106" />
        <path
           style="fill:url(#linearGradient3008-5);fill-opacity:1;stroke-width:1.95584106"
           d="M 10.720236,73.655096 C 10.407511,73.155352 9.8534149,71.855623 9.3430013,70.423203 8.6029058,68.358534 8.4633723,67.785727 8.3069005,66.270916 7.3331069,56.877577 13.271781,45.911813 23.711342,37.826428 24.820706,36.967265 25.895088,36.143342 26.09899,35.995491 L 26.469503,35.726465 25.1487,32.071706 c -0.764207,-2.114619 -1.276219,-3.718659 -1.215159,-3.806286 0.311339,-0.446964 6.76553,-4.053254 8.755687,-4.892335 l 0.766625,-0.323221 1.316279,3.642242 1.316321,3.642357 2.877558,-1.098666 c 10.717102,-4.092454 21.501431,-4.838719 30.188041,-2.088972 5.101125,1.614775 9.413173,4.646779 11.975834,8.420717 0.83442,1.228847 1.087949,1.753679 1.842223,3.812414 0.520186,1.428212 0.930784,2.78853 1.014016,3.384987 l 0.139215,0.99772 -17.703601,7.464115 -17.703602,7.464115 -3.725529,-10.308813 -3.725487,-10.308699 1.993368,-0.721077 c 2.697993,-0.976045 5.133727,-1.571228 7.658569,-1.872832 l 0.937635,-0.111918 1.980359,5.4798 1.980366,5.479819 6.137856,-2.587815 6.137856,-2.587816 -0.281409,-0.478492 C 67.281835,39.771243 65.851593,37.962528 65.060667,37.193517 59.611963,31.89595 51.301631,31.337207 40.738549,35.558401 l -2.417617,0.965627 4.166671,11.518304 4.166656,11.518266 -17.705477,7.464906 -17.705478,7.464906 -0.523424,-0.835797 z m 20.53389,-24.6885 c -1.435308,-3.971603 -2.475331,-6.673338 -2.556149,-6.639264 -0.07433,0.03134 -0.641656,0.527926 -1.259762,1.103464 -3.72447,3.466994 -5.897441,7.707716 -6.290994,12.277534 -0.106029,1.230623 -0.03677,3.54186 0.135572,4.527426 l 0.105731,0.607286 6.142519,-2.589782 6.142537,-2.589789 -2.420103,-6.696601 z"
           id="path3268"
           inkscape:connector-curvature="0" />
        <path
           style="fill:#3f4e4b;fill-opacity:0.31372549;stroke-width:1.95584106"
           d="m 37.773091,35.009715 0.547981,1.516303 2.416263,-0.967588 c 10.563082,-4.221194 18.875587,-3.662627 24.324291,1.634939 0.59572,0.579215 1.455193,1.670168 2.1184,2.597269 l 0.366367,-0.154467 -0.282991,-0.477338 C 66.733515,38.257025 65.304565,36.446079 64.51364,35.677067 59.064935,30.379501 50.752431,29.820936 40.189349,34.04213 l -2.416263,0.967587 z m -9.62263,5.800129 c -0.07433,0.03134 -0.642965,0.531494 -1.261071,1.107032 -3.72447,3.466993 -5.89497,7.704679 -6.288523,12.274498 -0.106028,1.230622 -0.03876,3.543822 0.133574,4.529387 l 0.105195,0.607705 0.35952,-0.15158 c -0.08903,-1.125883 -0.13047,-2.538784 -0.05031,-3.469208 0.393553,-4.569819 2.564053,-8.807507 6.288523,-12.2745 0.618106,-0.575538 1.18674,-1.075691 1.261071,-1.10703 0.07745,-0.03265 1.065319,2.535942 2.408321,6.238207 l -0.402298,-1.113187 0.0035,-0.0015 C 29.272666,43.478086 28.23135,40.77574 28.150533,40.809814 Z m 54.578134,-2.038645 c 0.355502,1.053744 0.646088,2.017636 0.710491,2.479145 l 0.139717,0.998021 -17.705493,7.464912 -17.70207,7.463469 0.546645,1.512605 17.702069,-7.463469 17.705493,-7.464912 -0.138381,-0.994323 C 83.903839,42.170187 83.492528,40.808366 82.972342,39.380154 82.868931,39.0979 82.81593,39.001573 82.728595,38.771199 Z M 9.1440673,69.80846 c 0.079455,0.230082 0.098804,0.336644 0.1986206,0.615106 0.5097011,1.430449 1.0647161,2.732213 1.3776741,3.233468 L 11.242231,74.489672 28.947725,67.02476 46.653218,59.559847 46.105237,58.043544 28.399744,65.508457 10.69425,72.97337 10.172381,72.140731 C 9.9312866,71.755455 9.5414395,70.838853 9.1440396,69.808384 Z"
           id="path4111"
           inkscape:connector-curvature="0" />
        <path
           style="fill:#ffffff;fill-opacity:0.23529412;stroke-width:1.95584106"
           d="m 32.68851,23.375034 c -1.990157,0.839081 -8.444895,4.442369 -8.756235,4.889333 -0.06106,0.08763 0.454074,1.693207 1.218282,3.807825 l 0.272653,0.754453 c -0.764207,-2.114619 -1.278004,-3.716499 -1.216944,-3.804126 0.311339,-0.446964 6.764741,-4.053951 8.754898,-4.893033 l 0.766975,-0.323368 -0.272653,-0.754453 z m 3.39862,6.958585 0.273991,0.758153 2.878002,-1.098352 c 10.717102,-4.092454 21.500383,-4.839586 30.186992,-2.089839 5.101125,1.614775 9.414069,4.648056 11.97673,8.421993 0.776878,1.144106 1.078195,1.776692 1.720944,3.506397 -0.05551,-0.158185 -0.09282,-0.290936 -0.151378,-0.451855 -0.754309,-2.05872 -1.009066,-2.583875 -1.843484,-3.812723 -2.562661,-3.773937 -6.874268,-6.803519 -11.975393,-8.418295 -8.68661,-2.749746 -19.471227,-2.006314 -30.18833,2.086139 l -2.878002,1.098352 z m -9.616065,5.39249 -0.372707,0.267943 c -0.203901,0.147851 -1.278098,0.974219 -2.387462,1.833382 -10.43956,8.085388 -16.3774216,19.049378 -15.4036279,28.442717 0.1564717,1.514812 0.2953242,2.088746 1.0354198,4.153415 0.058458,0.164056 0.1154872,0.290997 0.1746677,0.450561 C 8.8998895,69.125528 8.7271973,68.441129 8.5812592,67.028301 7.6074654,57.634962 13.54399,46.667274 23.983552,38.581889 c 1.109364,-0.859162 2.184898,-1.681833 2.3888,-1.829683 l 0.372706,-0.267944 -0.27399,-0.758152 z m 14.796959,2.348911 0.272654,0.754454 1.992527,-0.720744 c 2.697993,-0.976045 5.135085,-1.572686 7.659927,-1.87429 l 0.938699,-0.11023 -0.273989,-0.758151 -0.937363,0.113928 c -2.524842,0.301605 -4.961934,0.898246 -7.659927,1.87429 z m -9.887266,11.247487 0.145683,0.403116 0.0035,-0.0015 c -0.05976,-0.165362 -0.09068,-0.240856 -0.149189,-0.401637 z M 21.538272,60.78125 c 0.0079,0.05371 0.0084,0.162494 0.0168,0.210271 l 0.105196,0.607704 6.142654,-2.589839 6.142652,-2.589838 -0.272655,-0.754454 -6.142652,2.589838 -5.991997,2.526319 z m 34.281067,-14.453434 0.272655,0.754454 6.135804,-2.586951 6.139228,-2.588394 -0.282992,-0.47734 c -0.03104,-0.05292 -0.113624,-0.150508 -0.150595,-0.209262 l -5.9783,2.520544 -6.135805,2.586951 z"
           id="path4116"
           inkscape:connector-curvature="0" />
        <path
           style="font-size:medium;font-style:normal;font-variant:normal;font-weight:normal;font-stretch:normal;text-indent:0;text-align:start;text-decoration:none;line-height:normal;letter-spacing:normal;word-spacing:normal;text-transform:none;direction:ltr;block-progression:tb;writing-mode:lr-tb;text-anchor:start;baseline-shift:baseline;color:#000000;fill:#1f2124;fill-opacity:0.82539684;stroke:none;stroke-width:2.3755002;marker:none;visibility:visible;display:inline;overflow:visible;enable-background:accumulate;font-family:Sans;-inkscape-font-specification:Sans"
           d="m 9.6041045,5.7149979 c -3.116621,0 -5.667965,2.5395101 -5.667965,5.6460041 l 0,69.277996 c 0,3.106495 2.551344,5.646004 5.667965,5.646004 l 76.7917855,0 c 3.116621,0 5.66797,-2.539509 5.66797,-5.646004 l 0,-69.277996 c 0,-3.106493 -2.55135,-5.6460041 -5.66797,-5.6460041 l -76.7917855,0 z m 0,2.3194391 76.7917855,0 c 1.888101,0 3.352021,1.480095 3.352021,3.326565 l 0,69.277996 c 0,1.846474 -1.46392,3.326564 -3.352021,3.326564 l -76.7917855,0 c -1.888099,0 -3.352022,-1.48009 -3.352022,-3.326564 l 0,-69.277996 c 0,-1.84647 1.463923,-3.326565 3.352022,-3.326565 z"
           id="path4989"
           inkscape:connector-curvature="0" />
      </g>
      <g
         inkscape:label="simboli"
         id="layer5" />
      <rect
         transform="matrix(0.9162165,0,0,0.94164665,4.0549101,35.618894)"
         style="display:inline;fill:url(#linearGradient4967);fill-opacity:1;stroke:none"
         id="rect4146"
         width="92"
         height="92"
         x="2"
         y="-30"
         rx="3.9569874"
         ry="3.9569881"
         clip-path="url(#clipPath4156-4-6)" />
      <rect
         style="display:inline;opacity:0.55;fill:url(#radialGradient4992);fill-opacity:1;stroke:none"
         id="rect4131"
         width="84.250008"
         height="4.25"
         x="4.211"
         y="78.897736"
         rx="0"
         ry="4.25" />
      <rect
         ry="4.25"
         rx="0"
         y="-89.551903"
         x="3.3977196"
         height="4.25"
         width="76.75"
         id="rect4141"
         style="display:inline;opacity:0.55;fill:url(#radialGradient3833-1);fill-opacity:1;stroke:none"
         transform="rotate(90)" />
    </g>
  </g>
</svg>
