<?xml version="1.0" encoding="UTF-8" standalone="no"?>
<!-- Created with Inkscape (http://www.inkscape.org/) -->

<svg
   xmlns:dc="http://purl.org/dc/elements/1.1/"
   xmlns:cc="http://creativecommons.org/ns#"
   xmlns:rdf="http://www.w3.org/1999/02/22-rdf-syntax-ns#"
   xmlns:svg="http://www.w3.org/2000/svg"
   xmlns="http://www.w3.org/2000/svg"
   xmlns:xlink="http://www.w3.org/1999/xlink"
   xmlns:sodipodi="http://sodipodi.sourceforge.net/DTD/sodipodi-0.dtd"
   xmlns:inkscape="http://www.inkscape.org/namespaces/inkscape"
   width="96"
   height="96"
   viewBox="0 0 96.000001 96.000004"
   version="1.1"
   id="svg1072"
   inkscape:version="0.92.1 r15371"
   sodipodi:docname="dia.svg">
  <defs
     id="defs1066">
    <linearGradient
       y2="47.000011"
       x2="90"
       y1="47.000011"
       x1="6"
       gradientTransform="matrix(1.1071428,0,0,1.1071426,-4.9939026,-3.620687)"
       gradientUnits="userSpaceOnUse"
       id="linearGradient4071"
       xlink:href="#linearGradient6139-0"
       inkscape:collect="always" />
    <linearGradient
       id="linearGradient6139-0">
      <stop
         style="stop-color:#bab4b4;stop-opacity:1"
         offset="0"
         id="stop6141-2" />
      <stop
         id="stop6151-0"
         offset="0.25"
         style="stop-color:#ffffff;stop-opacity:1;" />
      <stop
         id="stop6147-1"
         offset="0.5"
         style="stop-color:#a29898;stop-opacity:1" />
      <stop
         style="stop-color:#fbf9f9;stop-opacity:1;"
         offset="0.75"
         id="stop6149-4" />
      <stop
         style="stop-color:#bab4b4;stop-opacity:1"
         offset="1"
         id="stop6143-4" />
    </linearGradient>
    <linearGradient
       gradientUnits="userSpaceOnUse"
       y2="88.171875"
       x2="94.5"
       y1="88.171875"
       x1="1.5"
       id="linearGradient4129"
       xlink:href="#linearGradient3832-0-6-1-1"
       inkscape:collect="always"
       gradientTransform="translate(0.1489535,0.415026)" />
    <linearGradient
       id="linearGradient3832-0-6-1-1">
      <stop
         id="stop3834-6-3-7-1"
         offset="0"
         style="stop-color:#000000;stop-opacity:1;" />
      <stop
         style="stop-color:#000000;stop-opacity:0.58823532;"
         offset="0.1"
         id="stop3872-2-4" />
      <stop
         id="stop3844-6-2-7-6"
         offset="0.89999998"
         style="stop-color:#000000;stop-opacity:0.58823532;" />
      <stop
         id="stop3836-5-0-2-9"
         offset="1"
         style="stop-color:#000000;stop-opacity:1;" />
    </linearGradient>
    <radialGradient
       r="43.199203"
       fy="44.892841"
       fx="13.948145"
       cy="44.892841"
       cx="13.948145"
       gradientTransform="matrix(0.97513378,0,0,0.04919072,34.047649,80.581722)"
       gradientUnits="userSpaceOnUse"
       id="radialGradient7462"
       xlink:href="#linearGradient3737"
       inkscape:collect="always" />
    <linearGradient
       id="linearGradient3737">
      <stop
         id="stop3739"
         style="stop-color:#ffffff;stop-opacity:1"
         offset="0" />
      <stop
         id="stop3741"
         style="stop-color:#ffffff;stop-opacity:0"
         offset="1" />
    </linearGradient>
    <radialGradient
       r="43.199203"
       fy="44.892841"
       fx="13.948145"
       cy="44.892841"
       cx="13.948145"
       gradientTransform="matrix(0.88832663,0,0,0.04919072,31.959518,-90.31726)"
       gradientUnits="userSpaceOnUse"
       id="radialGradient7464"
       xlink:href="#linearGradient3737"
       inkscape:collect="always" />
    <linearGradient
       y2="14.514202"
       x2="50.527882"
       y1="-28.64156"
       x1="2.7713892"
       gradientUnits="userSpaceOnUse"
       id="linearGradient4767"
       xlink:href="#linearGradient3737"
       inkscape:collect="always" />
    <clipPath
       clipPathUnits="userSpaceOnUse"
       id="clipPath4156-4-1">
      <path
         style="opacity:0.6;fill:#ffffff;fill-opacity:1;stroke:none"
         d="m 27.046336,-55.695463 -14.21366,13.321486 h 0.06127 l 15.653407,21.770763 10.231384,-10.546177 C 38.561832,-32.30156 27.468089,-54.819245 27.046336,-55.695463 Z M 9.6468554,-39.382809 -5.2407289,-25.32124 15.987863,-7.8059573 26.372412,-18.382966 Z m 31.4906096,12.951445 -9.741259,9.713584 8.944804,12.4580526 7.780753,-7.5550056 z m -49.8397109,4.378822 -13.7541661,12.9822847 26.2830181,13.84571 0.06127,-0.0617 -0.122531,-0.0617 L 13.598503,-5.4007374 -8.7022409,-22.052595 Z m 38.0154159,7.400825 -9.802525,9.7752596 11.579232,9.5594001 7.62759,-7.40083 -8.669108,-11.0087257 z m 20.187073,5.6739697 -7.382526,7.2158 6.187844,8.54179 5.820249,-6.13651996 z m -32.195166,6.32154 -9.5574606,9.49772 13.6622686,7.1849703 7.933918,-7.6783603 z m 23.311629,2.37443004 -7.10683,6.93826996 8.362778,6.9074403 5.360756,-5.6739699 -0.06127,-0.0925 -0.0919,0.12335 -6.463539,-8.20258036 z m -8.730374,8.54178036 -7.505057,7.3391599 10.353916,5.45811 c 1.397496,-1.32103 5.67514,-6.12292 5.850882,-6.32154 z"
         id="path4158-0-8"
         inkscape:connector-curvature="0" />
    </clipPath>
    <linearGradient
       inkscape:collect="always"
       xlink:href="#linearGradient3922-9"
       id="linearGradient4391-0"
       gradientUnits="userSpaceOnUse"
       x1="32"
       y1="80"
       x2="32"
       y2="16" />
    <linearGradient
       id="linearGradient3922-9">
      <stop
         id="stop3924-1"
         style="stop-color:#323232;stop-opacity:1"
         offset="0" />
      <stop
         id="stop3926-4"
         style="stop-color:#5a5a5a;stop-opacity:1"
         offset="1" />
    </linearGradient>
    <linearGradient
       inkscape:collect="always"
       xlink:href="#linearGradient3889-9"
       id="linearGradient4393-9"
       gradientUnits="userSpaceOnUse"
       gradientTransform="translate(-68)"
       x1="42"
       y1="49"
       x2="54"
       y2="49" />
    <linearGradient
       id="linearGradient3889-9">
      <stop
         id="stop3891-6"
         style="stop-color:#464646;stop-opacity:1"
         offset="0" />
      <stop
         id="stop3893-5"
         style="stop-color:#464646;stop-opacity:0"
         offset="1" />
    </linearGradient>
    <linearGradient
       inkscape:collect="always"
       xlink:href="#linearGradient3945-3"
       id="linearGradient4395-3"
       gradientUnits="userSpaceOnUse"
       x1="45"
       y1="56"
       x2="45"
       y2="36" />
    <linearGradient
       id="linearGradient3945-3">
      <stop
         id="stop3947-0"
         style="stop-color:#e66b19;stop-opacity:1"
         offset="0" />
      <stop
         id="stop3949-6"
         style="stop-color:#e69e19;stop-opacity:1"
         offset="1" />
    </linearGradient>
  </defs>
  <sodipodi:namedview
     id="base"
     pagecolor="#ffffff"
     bordercolor="#666666"
     borderopacity="1.0"
     inkscape:pageopacity="0.0"
     inkscape:pageshadow="2"
     inkscape:zoom="1.5693104"
     inkscape:cx="-118.78207"
     inkscape:cy="44.557005"
     inkscape:document-units="px"
     inkscape:current-layer="g2574"
     showgrid="false"
     inkscape:showpageshadow="false"
     units="px"
     inkscape:lockguides="false"
     inkscape:window-width="1280"
     inkscape:window-height="972"
     inkscape:window-x="0"
     inkscape:window-y="26"
     inkscape:window-maximized="1" />
  <metadata
     id="metadata1069">
    <rdf:RDF>
      <cc:Work
         rdf:about="">
        <dc:format>image/svg+xml</dc:format>
        <dc:type
           rdf:resource="http://purl.org/dc/dcmitype/StillImage" />
        <dc:title></dc:title>
        <dc:date>2017</dc:date>
        <dc:creator>
          <cc:Agent>
            <dc:title>Cristian Pozzessere &quot;ilnanny&quot;</dc:title>
          </cc:Agent>
        </dc:creator>
        <dc:subject>
          <rdf:Bag>
            <rdf:li>Global language</rdf:li>
          </rdf:Bag>
        </dc:subject>
        <dc:description>Playing with Inkscape on Gnu/Linux O. S.</dc:description>
        <dc:contributor>
          <cc:Agent>
            <dc:title>In the night, alone like a dog.</dc:title>
          </cc:Agent>
        </dc:contributor>
        <cc:license
           rdf:resource="http://creativecommons.org/licenses/by-sa/4.0/" />
      </cc:Work>
      <cc:License
         rdf:about="http://creativecommons.org/licenses/by-sa/4.0/">
        <cc:permits
           rdf:resource="http://creativecommons.org/ns#Reproduction" />
        <cc:permits
           rdf:resource="http://creativecommons.org/ns#Distribution" />
        <cc:requires
           rdf:resource="http://creativecommons.org/ns#Notice" />
        <cc:requires
           rdf:resource="http://creativecommons.org/ns#Attribution" />
        <cc:permits
           rdf:resource="http://creativecommons.org/ns#DerivativeWorks" />
        <cc:requires
           rdf:resource="http://creativecommons.org/ns#ShareAlike" />
      </cc:License>
    </rdf:RDF>
  </metadata>
  <g
     inkscape:label="Livello 1"
     inkscape:groupmode="layer"
     id="layer1"
     transform="translate(0,-1026.5197)">
    <g
       transform="translate(-0.14895645,1026.1047)"
       style="display:inline"
       id="g2574">
      <path
         inkscape:connector-curvature="0"
         id="path3288"
         d="M 89.29181,0.415026 H 7.0060911 c -3.798848,0 -6.8571352,3.058285 -6.8571352,6.8571399 V 89.557884 c 0,3.798857 3.0582872,6.857142 6.8571352,6.857142 H 89.29181 c 3.798857,0 6.857147,-3.058285 6.857147,-6.857142 V 7.2721659 c 0,-3.7988549 -3.05829,-6.8571399 -6.857147,-6.8571399 z"
         style="display:inline;opacity:0.15;fill:#000000;fill-opacity:1;fill-rule:nonzero;stroke:none" />
      <path
         style="display:inline;opacity:0.15;fill:#000000;fill-opacity:1;fill-rule:nonzero;stroke:none"
         d="M 88.648954,1.165026 H 7.6489471 c -3.739492,0 -6.749993,3.010499 -6.749993,6.7499969 V 88.915026 c 0,3.739501 3.010501,6.75 6.749993,6.75 H 88.648954 c 3.739503,0 6.750003,-3.010499 6.750003,-6.75 V 7.9150229 c 0,-3.7394979 -3.0105,-6.7499969 -6.750003,-6.7499969 z"
         id="path4085"
         inkscape:connector-curvature="0" />
      <path
         inkscape:connector-curvature="0"
         id="rect4251-1"
         d="M 88.006093,1.915026 H 8.2918111 c -3.680143,0 -6.6428566,2.962713 -6.6428566,6.6428549 V 88.272171 c 0,3.680142 2.9627136,6.642856 6.6428566,6.642856 H 88.006093 c 3.680143,0 6.642854,-2.962714 6.642854,-6.642856 V 8.5578809 c 0,-3.6801419 -2.962711,-6.6428549 -6.642854,-6.6428549 z"
         style="display:inline;fill:url(#linearGradient4071);fill-opacity:1;fill-rule:nonzero;stroke:none" />
      <path
         sodipodi:nodetypes="sscccsccscccsss"
         inkscape:connector-curvature="0"
         id="path3400-6"
         d="m 11.390247,6.8021682 c -2.8564964,0 -5.1241284,2.3234574 -5.1241284,5.2502708 v 21.755806 7.350378 40.525523 c 1.0972399,1.710306 2.9688485,2.854834 5.1241284,2.854834 h 4.099303 65.588849 4.099302 c 2.155281,0 4.026889,-1.144528 5.124129,-2.854834 V 41.158623 33.808245 12.052439 c 0,-2.9268134 -2.267632,-5.2502708 -5.124129,-5.2502708 z"
         style="display:inline;opacity:0.77864583;fill:#f5f3f3;fill-opacity:1;fill-rule:nonzero;stroke:none;stroke-width:1.03736329" />
      <path
         style="color:#000000;font-style:normal;font-variant:normal;font-weight:normal;font-stretch:normal;font-size:medium;line-height:normal;font-family:Sans;-inkscape-font-specification:Sans;text-indent:0;text-align:start;text-decoration:none;text-decoration-line:none;letter-spacing:normal;word-spacing:normal;text-transform:none;writing-mode:lr-tb;direction:ltr;baseline-shift:baseline;text-anchor:start;display:inline;overflow:visible;visibility:visible;fill:#241f1f;fill-opacity:0.63265303;stroke:none;stroke-width:2.3755002;marker:none;enable-background:accumulate"
         d="m 9.9740341,5.1444869 c -3.116621,0 -5.667965,2.53951 -5.667965,5.6460041 v 69.277996 c 0,3.106495 2.551344,5.646004 5.667965,5.646004 H 86.765819 c 3.116621,0 5.667968,-2.539509 5.667968,-5.646004 V 10.790491 c 0,-3.1064931 -2.551347,-5.6460041 -5.667968,-5.6460041 z m 0,2.319439 H 86.765819 c 1.888099,0 3.352022,1.480095 3.352022,3.3265651 v 69.277996 c 0,1.846474 -1.463923,3.326564 -3.352022,3.326564 H 9.9740341 c -1.888099,0 -3.352022,-1.48009 -3.352022,-3.326564 V 10.790491 c 0,-1.8464701 1.463923,-3.3265651 3.352022,-3.3265651 z"
         id="path4989"
         inkscape:connector-curvature="0" />
      <path
         id="path4118"
         d="m 1.6489535,82.258776 v 6 c 0,3.680142 2.9761066,6.65625 6.6562496,6.65625 H 87.992703 c 3.680143,0 6.656254,-2.976108 6.656254,-6.65625 v -6 c 0,3.680142 -2.976111,6.65625 -6.656254,6.65625 H 8.3052031 c -3.680143,0 -6.6562496,-2.976108 -6.6562496,-6.65625 z"
         style="display:inline;opacity:0.65818182;fill:url(#linearGradient4129);fill-opacity:1;fill-rule:nonzero;stroke:none"
         inkscape:connector-curvature="0" />
      <g
         transform="matrix(1.0400229,0,0,1,-1.567924,0.95635835)"
         id="g1053">
        <g
           transform="translate(0.3927199,103.32174)"
           id="layer4">
          <g
             transform="matrix(1,0,0,0.95511772,4.6072801,-102.12251)"
             id="g4379">
            <path
               d="m 28,18 v 6 h -4 v 6.03125 h 4 v 35.9375 H 24 V 72 h 4 v 4 h -3 l 4,8 4,-8 H 30 V 72 H 48 C 61.296,72 72,61.296 72,48 72,34.704 61.296,24 48,24 H 30 v -6 z m 2,12.03125 h 18 c 10.059868,0 17.96875,7.908882 17.96875,17.96875 0,10.059868 -7.908882,17.96875 -17.96875,17.96875 H 30 Z"
               inkscape:connector-curvature="0"
               id="rect3864"
               style="color:#000000;display:inline;overflow:visible;visibility:visible;fill:url(#linearGradient4391-0);fill-opacity:1;fill-rule:nonzero;stroke:none;stroke-width:1;marker:none;enable-background:accumulate" />
            <rect
               width="40"
               height="2"
               x="-54"
               y="48"
               transform="scale(-1,1)"
               id="rect3883"
               style="color:#000000;display:inline;overflow:visible;visibility:visible;fill:url(#linearGradient4393-9);fill-opacity:1;fill-rule:nonzero;stroke:none;stroke-width:1;marker:none;enable-background:accumulate" />
            <path
               d="m 59,52 -3.464102,-6 h 6.928204 z"
               transform="matrix(0,-1.1547005,1.3333333,0,-7.3333323,117.12733)"
               id="path3885"
               style="color:#000000;display:inline;overflow:visible;visibility:visible;fill:#464646;fill-opacity:1;fill-rule:nonzero;stroke:none;stroke-width:1;marker:none;enable-background:accumulate"
               inkscape:connector-curvature="0" />
            <rect
               width="6"
               height="6"
               x="26"
               y="14"
               id="rect3897"
               style="color:#000000;display:inline;overflow:visible;visibility:visible;fill:#505050;fill-opacity:1;fill-rule:nonzero;stroke:none;stroke-width:1;marker:none;enable-background:accumulate" />
            <rect
               width="4"
               height="4"
               x="27"
               y="15"
               id="rect3899"
               style="color:#000000;display:inline;overflow:visible;visibility:visible;fill:#87f042;fill-opacity:1;fill-rule:nonzero;stroke:none;stroke-width:1;marker:none;enable-background:accumulate" />
            <path
               d="m 41.90625,35.03125 c -0.785672,0.06764 -1.47602,0.597592 -1.746797,1.337628 -3.292734,6.595791 -6.585469,13.191581 -9.878203,19.787372 -0.642945,1.049606 0.208406,2.666086 1.46875,2.75 2.148012,0.07219 4.312451,0.01095 6.466852,0.03125 4.636049,0 9.272099,0 13.908148,0 1.311394,-0.05746 2.229979,-1.612826 1.625,-2.78125 C 53.081215,54.962699 52.487404,53.647925 51.847443,52.40777 49.082226,46.889727 46.345821,41.345051 43.5625,35.84375 43.150998,35.340488 42.570004,34.99994 41.90625,35.03125 Z M 42,48.28125 c 0.635417,1.260417 1.270833,2.520833 1.90625,3.78125 -1.270833,0 -2.541667,0 -3.8125,0 C 40.729167,50.802083 41.364583,49.541667 42,48.28125 Z"
               inkscape:connector-curvature="0"
               id="path3941"
               style="color:#000000;display:inline;overflow:visible;visibility:visible;opacity:0.05;fill:#000000;fill-opacity:1;fill-rule:nonzero;stroke:none;stroke-width:1;marker:none;enable-background:accumulate" />
            <path
               d="m 41.8125,36.0625 a 0.94282005,0.94282005 0 0 0 -0.65625,0.53125 l -10,20 A 0.94282005,0.94282005 0 0 0 32,57.9375 h 20 a 0.94282005,0.94282005 0 0 0 0.84375,-1.34375 l -10,-20 A 0.94282005,0.94282005 0 0 0 41.8125,36.0625 Z M 42,46.09375 45.5,53.0625 h -7 z"
               id="path3937"
               style="color:#000000;display:inline;overflow:visible;visibility:visible;opacity:0.1;fill:#000000;fill-opacity:1;fill-rule:nonzero;stroke:none;stroke-width:1;marker:none;enable-background:accumulate"
               inkscape:connector-curvature="0" />
            <path
               d="M 42,37 32,57 h 20 z m 0,7 5,10 H 37 Z"
               inkscape:connector-curvature="0"
               id="path3933"
               style="color:#000000;display:inline;overflow:visible;visibility:visible;opacity:0.3;fill:#000000;fill-opacity:1;fill-rule:nonzero;stroke:none;stroke-width:1;marker:none;enable-background:accumulate" />
            <path
               d="M 42,36 32,56 h 20 z m 0,7 5,10 H 37 Z"
               inkscape:connector-curvature="0"
               id="path3901"
               style="color:#000000;display:inline;overflow:visible;visibility:visible;fill:url(#linearGradient4395-3);fill-opacity:1;fill-rule:nonzero;stroke:none;stroke-width:1;marker:none;enable-background:accumulate" />
            <path
               d="M 42,36 32,56 h 0.5 L 42,37 51.5,56 H 52 Z M 37.5,53 37,54 h 10 l -0.5,-1 z"
               inkscape:connector-curvature="0"
               id="path3953"
               style="color:#000000;display:inline;overflow:visible;visibility:visible;opacity:0.5;fill:#ffcc00;fill-opacity:1;fill-rule:nonzero;stroke:none;stroke-width:1;marker:none;enable-background:accumulate" />
          </g>
        </g>
        <g
           style="fill:#000000;fill-opacity:1;stroke:none;stroke-opacity:1"
           transform="translate(102.4999,2.3563195)"
           id="layer1-3">
          <g
             style="fill:#000000;fill-opacity:1;stroke:none"
             transform="matrix(0.995091,0,0,0.95091002,-2.1338238,2.0864188)"
             id="g3596">
            <path
               d="M -83.321738,2.5019212 V 82.501921 h 1 V 2.5019212 Z m 10,0 V 82.501921 h 1 V 2.5019212 Z m 10,0 V 82.501921 h 1 V 2.5019212 Z m 10,0 V 82.501921 h 1 V 2.5019212 Z m 10,0 V 82.501921 h 1 V 2.5019212 Z m 10,0 V 82.501921 h 1 V 2.5019212 Z m 10,0 V 82.501921 h 1 V 2.5019212 Z"
               inkscape:connector-curvature="0"
               id="path3811"
               style="color:#000000;font-style:normal;font-variant:normal;font-weight:normal;font-stretch:normal;font-size:medium;line-height:normal;font-family:Sans;-inkscape-font-specification:Sans;text-indent:0;text-align:start;text-decoration:none;text-decoration-line:none;letter-spacing:normal;word-spacing:normal;text-transform:none;writing-mode:lr-tb;direction:ltr;baseline-shift:baseline;text-anchor:start;display:inline;overflow:visible;visibility:visible;opacity:0.1;fill:#000000;fill-opacity:1;stroke:none;stroke-width:1px;marker:none;enable-background:accumulate" />
            <path
               d="m -12.821738,12.501921 h -80 v 1 h 80 z m 0,10 h -80 v 1 h 80 z m 0,10 h -80 v 1 h 80 z m 0,10 h -80 v 1 h 80 z m 0,10 h -80 v 1 h 80 z m 0,10 h -80 v 1 h 80 z m 0,10 h -80 v 1 h 80 z"
               inkscape:connector-curvature="0"
               id="path3860"
               style="color:#000000;font-style:normal;font-variant:normal;font-weight:normal;font-stretch:normal;font-size:medium;line-height:normal;font-family:Sans;-inkscape-font-specification:Sans;text-indent:0;text-align:start;text-decoration:none;text-decoration-line:none;letter-spacing:normal;word-spacing:normal;text-transform:none;writing-mode:lr-tb;direction:ltr;baseline-shift:baseline;text-anchor:start;display:inline;overflow:visible;visibility:visible;opacity:0.1;fill:#000000;fill-opacity:1;stroke:none;stroke-width:1px;marker:none;enable-background:accumulate" />
          </g>
        </g>
      </g>
      <rect
         ry="4.25"
         rx="0"
         y="80.665031"
         x="5.5239539"
         height="4.25"
         width="84.250008"
         id="rect4131"
         style="opacity:0.55;fill:url(#radialGradient7462);fill-opacity:1;stroke:none" />
      <rect
         transform="rotate(90)"
         style="opacity:0.669;fill:url(#radialGradient7464);fill-opacity:1;stroke:none"
         id="rect4141"
         width="76.75"
         height="4.25"
         x="5.9750223"
         y="-90.233963"
         rx="0"
         ry="4.25" />
      <rect
         clip-path="url(#clipPath4156-4-1)"
         ry="3.9569881"
         rx="3.9569874"
         y="-30"
         x="2"
         height="69.024437"
         width="75.965775"
         id="rect4146"
         style="opacity:0.5078125;fill:url(#linearGradient4767);fill-opacity:1;stroke:none"
         transform="matrix(1.0692451,0,0,1.0476829,4.4441802,38.894013)" />
    </g>
  </g>
</svg>
