<?xml version="1.0" encoding="UTF-8" standalone="no"?>
<svg
   xmlns:dc="http://purl.org/dc/elements/1.1/"
   xmlns:cc="http://creativecommons.org/ns#"
   xmlns:rdf="http://www.w3.org/1999/02/22-rdf-syntax-ns#"
   xmlns:svg="http://www.w3.org/2000/svg"
   xmlns="http://www.w3.org/2000/svg"
   xmlns:xlink="http://www.w3.org/1999/xlink"
   xmlns:sodipodi="http://sodipodi.sourceforge.net/DTD/sodipodi-0.dtd"
   xmlns:inkscape="http://www.inkscape.org/namespaces/inkscape"
   height="96"
   width="96"
   version="1.1"
   id="svg2"
   inkscape:version="0.48.5 r10040"
   sodipodi:docname="cs-display.svg">
  <metadata
     id="metadata110">
    <rdf:RDF>
      <cc:Work
         rdf:about="">
        <dc:format>image/svg+xml</dc:format>
        <dc:type
           rdf:resource="http://purl.org/dc/dcmitype/StillImage" />
      </cc:Work>
    </rdf:RDF>
  </metadata>
  <sodipodi:namedview
     pagecolor="#ffffff"
     bordercolor="#666666"
     borderopacity="1"
     objecttolerance="10"
     gridtolerance="10"
     guidetolerance="10"
     inkscape:pageopacity="0"
     inkscape:pageshadow="2"
     inkscape:window-width="1280"
     inkscape:window-height="966"
     id="namedview108"
     showgrid="false"
     inkscape:zoom="1.273172"
     inkscape:cx="-74.823837"
     inkscape:cy="-31.533356"
     inkscape:window-x="0"
     inkscape:window-y="0"
     inkscape:window-maximized="1"
     inkscape:current-layer="svg2" />
  <defs
     id="defs4">
    <linearGradient
       id="d"
       stop-color="#fff">
      <stop
         offset="0"
         id="stop7" />
      <stop
         stop-opacity="0"
         offset="1"
         id="stop9" />
    </linearGradient>
    <filter
       id="o"
       height="1.0908"
       width="1.3035"
       color-interpolation-filters="sRGB"
       y="-.045378"
       x="-.15174">
      <feGaussianBlur
         stdDeviation="1.1526305"
         id="feGaussianBlur12" />
    </filter>
    <filter
       id="p"
       height="1.3025"
       width="1.0888"
       color-interpolation-filters="sRGB"
       y="-.15126"
       x="-.044412">
      <feGaussianBlur
         stdDeviation="1.1526305"
         id="feGaussianBlur15" />
    </filter>
    <linearGradient
       id="a"
       y2="7.0165"
       gradientUnits="userSpaceOnUse"
       x2="45.448"
       gradientTransform="matrix(1.0059 0 0 .99417 100 0)"
       y1="92.54"
       x1="45.448">
      <stop
         offset="0"
         id="stop18" />
      <stop
         stop-opacity=".58824"
         offset="1"
         id="stop20" />
    </linearGradient>
    <radialGradient
       id="f"
       stop-color="#fff"
       gradientUnits="userSpaceOnUse"
       cy="90.172"
       cx="48"
       gradientTransform="matrix(1.1573 0 0 .99591 -7.551 .19713)"
       r="42">
      <stop
         offset="0"
         id="stop23" />
      <stop
         stop-opacity="0"
         offset="1"
         id="stop25" />
    </radialGradient>
    <linearGradient
       id="n"
       y2="83.295"
       gradientUnits="userSpaceOnUse"
       x2="43.179"
       gradientTransform="matrix(1.0294,0,0,1.0294,-1.4118,-1.4118)"
       y1="13"
       x1="43.179">
      <stop
         stop-color="#919191"
         offset="0"
         id="stop28" />
      <stop
         stop-color="#fdfdfd"
         offset="1"
         id="stop30" />
    </linearGradient>
    <linearGradient
       id="m"
       stop-color="#fff"
       y2="63.893"
       gradientUnits="userSpaceOnUse"
       x2="36.357"
       y1="6"
       x1="36.357">
      <stop
         offset="0"
         id="stop33" />
      <stop
         stop-opacity="0"
         offset="1"
         id="stop35" />
    </linearGradient>
    <linearGradient
       id="j"
       y2="5.9877"
       gradientUnits="userSpaceOnUse"
       x2="48"
       y1="90"
       x1="48">
      <stop
         stop-color="#b4b4b4"
         offset="0"
         id="stop38" />
      <stop
         stop-color="#e6e6e6"
         offset="1"
         id="stop40" />
    </linearGradient>
    <linearGradient
       id="c"
       y2="52.101"
       xlink:href="#d"
       gradientUnits="userSpaceOnUse"
       x2="19.942"
       gradientTransform="matrix(0.65823,0,0,0.65616,2.8732,25.814)"
       y1="52.101"
       x1="80.711" />
    <linearGradient
       id="b"
       y2="52.101"
       xlink:href="#d"
       gradientUnits="userSpaceOnUse"
       x2="19.942"
       gradientTransform="matrix(0,-0.65823,0.65616,0,-10.186,94.127)"
       y1="52.101"
       x1="80.711" />
    <radialGradient
       id="e"
       gradientUnits="userSpaceOnUse"
       cy="78.287"
       cx="47.098"
       gradientTransform="matrix(1.383,-1.035e-8,0,1.3124,-18.039,-24.219)"
       r="38.957">
      <stop
         stop-color="#42394b"
         offset="0"
         id="stop45" />
      <stop
         offset="1"
         id="stop47" />
    </radialGradient>
    <linearGradient
       id="i"
       y2="6"
       xlink:href="#a"
       gradientUnits="userSpaceOnUse"
       x2="32.251"
       gradientTransform="translate(0,1)"
       y1="90"
       x1="32.251" />
    <linearGradient
       id="h"
       y2="5.9996"
       xlink:href="#a"
       gradientUnits="userSpaceOnUse"
       x2="32.251"
       gradientTransform="matrix(1.0238 0 0 1.0119 -1.1429 .929)"
       y1="90"
       x1="32.251" />
    <linearGradient
       id="g"
       y2="90.239"
       xlink:href="#a"
       gradientUnits="userSpaceOnUse"
       x2="32.251"
       gradientTransform="matrix(1.0238,0,0,-1.0119,-1.1429,98.071)"
       y1="6.1317"
       x1="32.251" />
    <linearGradient
       inkscape:collect="always"
       xlink:href="#d"
       id="linearGradient3343"
       gradientUnits="userSpaceOnUse"
       gradientTransform="matrix(0,-0.65823,0.65616,0,-10.186,94.127)"
       x1="80.711"
       y1="52.101"
       x2="19.942"
       y2="52.101" />
    <linearGradient
       inkscape:collect="always"
       xlink:href="#d"
       id="linearGradient3345"
       gradientUnits="userSpaceOnUse"
       gradientTransform="matrix(0.65823,0,0,0.65616,2.8732,25.814)"
       x1="80.711"
       y1="52.101"
       x2="19.942"
       y2="52.101" />
    <radialGradient
       gradientUnits="userSpaceOnUse"
       r="2.7910447"
       fy="79.208954"
       fx="70.373131"
       cy="79.208954"
       cx="70.373131"
       id="radialGradient3844"
       xlink:href="#linearGradient3832-0-6-1-1"
       inkscape:collect="always" />
    <radialGradient
       gradientUnits="userSpaceOnUse"
       r="2.7910447"
       fy="79.208954"
       fx="70.373131"
       cy="79.208954"
       cx="70.373131"
       id="radialGradient3836"
       xlink:href="#linearGradient3832-0-6-1-1"
       inkscape:collect="always" />
    <radialGradient
       gradientUnits="userSpaceOnUse"
       gradientTransform="matrix(4.7896743,-0.09300881,0.0414706,2.1291779,-180.83952,-91.869626)"
       r="6.5870786"
       fy="85.213486"
       fx="46.786518"
       cy="85.213486"
       cx="46.786518"
       id="radialGradient3828"
       xlink:href="#linearGradient6139-0"
       inkscape:collect="always" />
    <linearGradient
       y2="47.000011"
       x2="90"
       y1="47.000011"
       x1="6"
       gradientTransform="matrix(1.1353753,0,0,1.1336634,-40.037119,-46.787634)"
       gradientUnits="userSpaceOnUse"
       id="linearGradient5698"
       xlink:href="#linearGradient5700"
       inkscape:collect="always" />
    <linearGradient
       inkscape:collect="always"
       xlink:href="#linearGradient6139-0"
       id="linearGradient5021"
       gradientUnits="userSpaceOnUse"
       x1="6"
       y1="47.000011"
       x2="90"
       y2="47.000011"
       gradientTransform="matrix(1.1353753,0,0,1.1336634,-40.037124,-46.787637)" />
    <linearGradient
       id="linearGradient6139-0">
      <stop
         style="stop-color:#b7b7b7;stop-opacity:1;"
         offset="0"
         id="stop6141-2" />
      <stop
         id="stop6151-0"
         offset="0.25"
         style="stop-color:#ffffff;stop-opacity:1;" />
      <stop
         id="stop6147-1"
         offset="0.5"
         style="stop-color:#9d9d9d;stop-opacity:1;" />
      <stop
         style="stop-color:#fafafa;stop-opacity:1;"
         offset="0.75"
         id="stop6149-4" />
      <stop
         style="stop-color:#b7b7b7;stop-opacity:1;"
         offset="1"
         id="stop6143-4" />
    </linearGradient>
    <linearGradient
       gradientUnits="userSpaceOnUse"
       y2="47.000011"
       x2="90"
       y1="47.000011"
       x1="6"
       id="linearGradient3923"
       xlink:href="#linearGradient6139-0"
       inkscape:collect="always" />
    <linearGradient
       id="linearGradient3832-0-6-1-1">
      <stop
         id="stop3834-6-3-7-1"
         offset="0"
         style="stop-color:#000000;stop-opacity:1;" />
      <stop
         style="stop-color:#000000;stop-opacity:0.58823532;"
         offset="0.1"
         id="stop3872-2-4" />
      <stop
         id="stop3844-6-2-7-6"
         offset="0.89999998"
         style="stop-color:#000000;stop-opacity:0.58823532;" />
      <stop
         id="stop3836-5-0-2-9"
         offset="1"
         style="stop-color:#000000;stop-opacity:1;" />
    </linearGradient>
    <linearGradient
       y2="82.984398"
       x2="-10.187523"
       y1="82.984398"
       x1="-94"
       gradientTransform="matrix(1,0,0,0.88905855,200,8.9431737)"
       gradientUnits="userSpaceOnUse"
       id="linearGradient3120"
       xlink:href="#linearGradient3832-0-6-1-1"
       inkscape:collect="always" />
    <linearGradient
       id="linearGradient4091-0-3-0-7">
      <stop
         id="stop4093-3-6-4-2"
         offset="0"
         style="stop-color:#ffffff;stop-opacity:1;" />
      <stop
         style="stop-color:#ffffff;stop-opacity:1;"
         offset="0.80000001"
         id="stop4099-6-1-8-3" />
      <stop
         id="stop4095-1-0-7-9"
         offset="1"
         style="stop-color:#ffffff;stop-opacity:0;" />
    </linearGradient>
    <radialGradient
       r="42"
       fy="-27"
       fx="48"
       cy="-27"
       cx="48"
       gradientTransform="matrix(-1.0721726,0,0,-0.87502024,199.46429,-19.125546)"
       gradientUnits="userSpaceOnUse"
       id="radialGradient3118"
       xlink:href="#linearGradient4091-0-3-0-7"
       inkscape:collect="always" />
    <linearGradient
       id="linearGradient3888-8-4-8-6"
       inkscape:collect="always">
      <stop
         id="stop3890-4-7-9-7"
         offset="0"
         style="stop-color:#ffffff;stop-opacity:1;" />
      <stop
         id="stop3892-5-8-2-7"
         offset="1"
         style="stop-color:#ffffff;stop-opacity:0;" />
    </linearGradient>
    <radialGradient
       r="41"
       fy="6.2131939"
       fx="158"
       cy="6.2131939"
       cx="158"
       gradientTransform="matrix(0,1.6209438,-2.0382846,0,160.66427,-243.03657)"
       gradientUnits="userSpaceOnUse"
       id="radialGradient3114"
       xlink:href="#linearGradient3888-8-4-8-6"
       inkscape:collect="always" />
    <linearGradient
       id="linearGradient4948"
       inkscape:collect="always">
      <stop
         id="stop4950"
         offset="0"
         style="stop-color:#ffffff;stop-opacity:1;" />
      <stop
         id="stop4952"
         offset="1"
         style="stop-color:#ffffff;stop-opacity:0;" />
    </linearGradient>
    <radialGradient
       gradientUnits="userSpaceOnUse"
       gradientTransform="matrix(1.0666666,0,0,0.03809524,-36.704294,40.651629)"
       r="42.471912"
       fy="88.44944"
       fx="48.943821"
       cy="88.44944"
       cx="48.943821"
       id="radialGradient4954"
       xlink:href="#linearGradient4948"
       inkscape:collect="always" />
    <linearGradient
       id="linearGradient3921">
      <stop
         id="stop3923"
         offset="0"
         style="stop-color:#2cd5ff;stop-opacity:1;" />
      <stop
         id="stop3925"
         offset="1"
         style="stop-color:#004c75;stop-opacity:1;" />
    </linearGradient>
    <radialGradient
       r="38"
       fy="43"
       fx="48"
       cy="43"
       cx="48"
       gradientTransform="matrix(1.1856936,0,0,0.99445679,-42.219833,-42.380962)"
       gradientUnits="userSpaceOnUse"
       id="radialGradient4985"
       xlink:href="#linearGradient3921"
       inkscape:collect="always" />
    <linearGradient
       id="linearGradient3888-8-4-8-4-6-9-0-8-7-9"
       inkscape:collect="always">
      <stop
         id="stop3890-4-7-9-5-7-0-8-8-8-6"
         offset="0"
         style="stop-color:#ffffff;stop-opacity:1;" />
      <stop
         id="stop3892-5-8-2-8-3-3-3-06-4-4"
         offset="1"
         style="stop-color:#ffffff;stop-opacity:0;" />
    </linearGradient>
    <linearGradient
       y2="68"
       x2="62"
       y1="8"
       x1="62"
       gradientTransform="matrix(1.1856936,0,0,1.079696,-42.219833,-46.046246)"
       gradientUnits="userSpaceOnUse"
       id="linearGradient4987"
       xlink:href="#linearGradient3888-8-4-8-4-6-9-0-8-7-9"
       inkscape:collect="always" />
    <linearGradient
       id="linearGradient5700">
      <stop
         style="stop-color:#ffffff;stop-opacity:0;"
         offset="0"
         id="stop5702" />
      <stop
         id="stop5704"
         offset="0.03681535"
         style="stop-color:#ffffff;stop-opacity:0.85135138;" />
      <stop
         style="stop-color:#ffffff;stop-opacity:0;"
         offset="0.06506088"
         id="stop5706" />
      <stop
         id="stop5712"
         offset="0.94493848"
         style="stop-color:#ffffff;stop-opacity:0;" />
      <stop
         id="stop5710"
         offset="0.96582276"
         style="stop-color:#ffffff;stop-opacity:0.85135138;" />
      <stop
         style="stop-color:#ffffff;stop-opacity:0;"
         offset="1"
         id="stop5708" />
    </linearGradient>
  </defs>
  <g
     transform="translate(-2.5985929e-7,80)"
     inkscape:label="Layer 1"
     id="layer1">
    <g
       transform="matrix(1.0034441,0,0,1.0049592,33.489303,-38.526762)"
       id="g5148">
      <path
         style="fill:url(#linearGradient5021);fill-opacity:1;fill-rule:nonzero;stroke:none;display:inline"
         d="m 55.334401,-41.11932 -81.747021,0 c -3.773988,0 -6.812252,3.033683 -6.812252,6.80198 l 0,81.623788 c 0,3.768297 3.038264,6.80198 6.812252,6.80198 l 81.747021,0 c 3.773988,0 6.812252,-3.033683 6.812252,-6.80198 l 0,-81.623788 c 0,-3.768297 -3.038264,-6.80198 -6.812252,-6.80198 z"
         id="rect4251-1"
         inkscape:connector-curvature="0" />
      <g
         id="g3272"
         transform="matrix(1.1353753,0,0,1.1336634,-153.57465,-46.220805)">
        <path
           sodipodi:nodetypes="sscccsccscccsss"
           inkscape:connector-curvature="0"
           id="path3400-6"
           d="m 112,5.5 c -2.7873,0 -5,2.2127028 -5,5 l 0,20.71875 0,7 0,38.59375 c 1.07066,1.628779 2.89693,2.71875 5,2.71875 l 4,0 64,0 4,0 c 2.10307,0 3.92934,-1.089971 5,-2.71875 l 0,-38.59375 0,-7 L 189,10.5 c 0,-2.7872972 -2.2127,-5 -5,-5 z"
           style="opacity:0.2;fill:url(#radialGradient3114);fill-opacity:1;fill-rule:nonzero;stroke:none;display:inline" />
        <path
           inkscape:connector-curvature="0"
           id="path4236-5"
           d="m 112,4.5 c -3.324,0 -6,2.6759996 -6,6 l 0,15 1,0 0,-15 c 0,-2.7872972 2.2127,-5 5,-5 l 72,0 c 2.7873,0 5,2.2127028 5,5 l 0,15 1,0 0,-15 c 0,-3.3240004 -2.676,-6 -6,-6 l -72,0 z"
           style="opacity:0.45;fill:url(#radialGradient3118);fill-opacity:1;fill-rule:nonzero;stroke:none;display:inline" />
        <path
           style="opacity:0.46964859;fill:url(#linearGradient3120);fill-opacity:1;fill-rule:nonzero;stroke:none"
           d="m 106,76.942239 0,0.889058 0,0.889059 0,0.889059 0,1.778117 0,1.778117 c 0,2.95523 2.676,5.334351 6,5.334351 l 72,0 c 3.324,0 6,-2.379121 6,-5.334351 l 0,-1.778117 0,-1.778117 0,-0.889059 0,-0.889059 0,-0.889058 c 0,2.95523 -2.676,5.334351 -6,5.334351 l -72,0 c -3.324,0 -6,-2.379121 -6,-5.334351 z"
           id="path4242-5"
           inkscape:connector-curvature="0" />
      </g>
      <g
         transform="matrix(0.98621506,0,0,1.0503619,-36.451207,-38.562092)"
         id="g4021">
        <path
           sodipodi:type="arc"
           style="opacity:0.71000001;fill:#1c1c1c;fill-opacity:1;fill-rule:nonzero;stroke:none"
           id="path4002"
           sodipodi:cx="70.373131"
           sodipodi:cy="79.208954"
           sodipodi:rx="2.7910447"
           sodipodi:ry="2.7910447"
           d="m 73.164176,79.208954 c 0,1.541451 -1.249594,2.791045 -2.791045,2.791045 -1.541452,0 -2.791045,-1.249594 -2.791045,-2.791045 0,-1.541452 1.249593,-2.791045 2.791045,-2.791045 1.541451,0 2.791045,1.249593 2.791045,2.791045 z"
           transform="matrix(1.2467442,0,0,1.0633819,-54.589655,-6.556752)" />
        <path
           transform="matrix(1.0373872,0,0,0.91041754,-39.856546,5.3629056)"
           d="m 73.164176,79.208954 c 0,1.541451 -1.249594,2.791045 -2.791045,2.791045 -1.541452,0 -2.791045,-1.249594 -2.791045,-2.791045 0,-1.541452 1.249593,-2.791045 2.791045,-2.791045 1.541451,0 2.791045,1.249593 2.791045,2.791045 z"
           sodipodi:ry="2.7910447"
           sodipodi:rx="2.7910447"
           sodipodi:cy="79.208954"
           sodipodi:cx="70.373131"
           id="path3854"
           style="fill:#ffffff;fill-opacity:1;fill-rule:nonzero;stroke:none"
           sodipodi:type="arc" />
        <path
           sodipodi:type="arc"
           style="fill:url(#radialGradient3844);fill-opacity:1;fill-rule:nonzero;stroke:none"
           id="path3856"
           sodipodi:cx="70.373131"
           sodipodi:cy="79.208954"
           sodipodi:rx="2.7910447"
           sodipodi:ry="2.7910447"
           d="m 73.164176,79.208954 c 0,1.541451 -1.249594,2.791045 -2.791045,2.791045 -1.541452,0 -2.791045,-1.249594 -2.791045,-2.791045 0,-1.541452 1.249593,-2.791045 2.791045,-2.791045 1.541451,0 2.791045,1.249593 2.791045,2.791045 z"
           transform="matrix(0.70316741,0,0,0.61710417,-16.33646,28.595951)" />
        <path
           transform="matrix(1.2467442,0,0,1.0633819,-20.11442,-6.556752)"
           d="m 73.164176,79.208954 c 0,1.541451 -1.249594,2.791045 -2.791045,2.791045 -1.541452,0 -2.791045,-1.249594 -2.791045,-2.791045 0,-1.541452 1.249593,-2.791045 2.791045,-2.791045 1.541451,0 2.791045,1.249593 2.791045,2.791045 z"
           sodipodi:ry="2.7910447"
           sodipodi:rx="2.7910447"
           sodipodi:cy="79.208954"
           sodipodi:cx="70.373131"
           id="path4170"
           style="opacity:0.71000001;fill:#1c1c1c;fill-opacity:1;fill-rule:nonzero;stroke:none"
           sodipodi:type="arc" />
        <path
           sodipodi:type="arc"
           style="fill:#ffffff;fill-opacity:1;fill-rule:nonzero;stroke:none"
           id="path4172"
           sodipodi:cx="70.373131"
           sodipodi:cy="79.208954"
           sodipodi:rx="2.7910447"
           sodipodi:ry="2.7910447"
           d="m 73.164176,79.208954 c 0,1.541451 -1.249594,2.791045 -2.791045,2.791045 -1.541452,0 -2.791045,-1.249594 -2.791045,-2.791045 0,-1.541452 1.249593,-2.791045 2.791045,-2.791045 1.541451,0 2.791045,1.249593 2.791045,2.791045 z"
           transform="matrix(1.0373872,0,0,0.91041754,-5.3813104,5.3629056)" />
        <path
           transform="matrix(0.70316741,0,0,0.61710417,18.138777,28.595951)"
           d="m 73.164176,79.208954 c 0,1.541451 -1.249594,2.791045 -2.791045,2.791045 -1.541452,0 -2.791045,-1.249594 -2.791045,-2.791045 0,-1.541452 1.249593,-2.791045 2.791045,-2.791045 1.541451,0 2.791045,1.249593 2.791045,2.791045 z"
           sodipodi:ry="2.7910447"
           sodipodi:rx="2.7910447"
           sodipodi:cy="79.208954"
           sodipodi:cx="70.373131"
           id="path4174"
           style="fill:url(#radialGradient3836);fill-opacity:1;fill-rule:nonzero;stroke:none"
           sodipodi:type="arc" />
        <rect
           style="opacity:0.96219931;fill:url(#radialGradient3828);fill-opacity:1;stroke:#000000;stroke-width:0.5;stroke-miterlimit:4;stroke-opacity:1;stroke-dasharray:none"
           id="rect4176"
           width="12.674157"
           height="3.235955"
           x="40.44944"
           y="83.595505"
           transform="matrix(1.0139776,0,0,0.95205283,3.1886202,-2.9106418)"
           rx="1.1481457"
           ry="1.1481457" />
      </g>
      <path
         style="font-size:medium;font-style:normal;font-variant:normal;font-weight:normal;font-stretch:normal;text-indent:0;text-align:start;text-decoration:none;line-height:normal;letter-spacing:normal;word-spacing:normal;text-transform:none;direction:ltr;block-progression:tb;writing-mode:lr-tb;text-anchor:start;baseline-shift:baseline;opacity:0.02000002;color:#000000;fill:#000000;fill-opacity:1;fill-rule:nonzero;stroke:none;stroke-width:6;marker:none;visibility:visible;display:inline;overflow:visible;enable-background:accumulate;font-family:Sans;-inkscape-font-specification:Sans"
         d="m -25.620124,16.576118 c -1.878635,0 -3.636952,0.913619 -4.742773,2.260615 l 0,15.014522 c 0,2.392606 2.115277,4.318783 4.742773,4.318783 l 80.627164,0 c 2.627498,0 4.742774,-1.926177 4.742774,-4.318783 l 0,-15.014522 c -1.10582,-1.346996 -2.864137,-2.260615 -4.742774,-2.260615 l -80.627164,0 z m 0,3.239089 80.627164,0 c 1.354763,0 2.371388,0.925742 2.371388,2.159392 l 0,11.876656 c 0,1.233651 -1.016625,2.159392 -2.371388,2.159392 l -80.627164,0 c -1.354761,0 -2.371386,-0.925741 -2.371386,-2.159392 l 0,-11.876656 c 0,-1.23365 1.016625,-2.159392 2.371386,-2.159392 z"
         id="path4972"
         inkscape:connector-curvature="0" />
      <path
         style="opacity:0.45;color:#000000;fill:url(#linearGradient4987);fill-opacity:1;fill-rule:nonzero;stroke:none;stroke-width:2;marker:none;visibility:visible;display:inline;overflow:visible;enable-background:accumulate"
         d="M 2.8365227,-37.408679 C 11.137373,-11.353851 19.763022,14.087211 28.5142,38.170038 l 26.49284,0 c 2.627498,0 4.742774,-1.926177 4.742774,-4.318783 l 0,-66.941148 c 0,-2.392608 -2.115276,-4.318786 -4.742774,-4.318786 l -52.1705173,0 z"
         id="path4974"
         inkscape:connector-curvature="0" />
      <path
         sodipodi:nodetypes="sssssssss"
         inkscape:connector-curvature="0"
         style="color:#000000;fill:url(#radialGradient4985);fill-opacity:1;fill-rule:nonzero;stroke:none;stroke-width:2;marker:none;visibility:visible;display:inline;overflow:visible;enable-background:accumulate"
         d="m -25.620124,-37.408678 80.627164,0 c 2.627498,0 4.742774,1.926177 4.742774,4.318785 l 0,66.941148 c 0,2.392606 -2.115276,4.318783 -4.742774,4.318783 l -80.627164,0 c -2.627496,0 -4.742773,-1.926177 -4.742773,-4.318783 l 0,-66.941148 c 0,-2.392608 2.115277,-4.318785 4.742773,-4.318785 z"
         id="path4970" />
      <path
         sodipodi:nodetypes="cssscc"
         inkscape:connector-curvature="0"
         style="color:#000000;fill:#ffffff;fill-opacity:0.14693879;stroke:none;stroke-width:2.28078365;marker:none;visibility:visible;display:inline;overflow:visible;enable-background:accumulate"
         d="m -2.8245749,-36.711124 55.4624669,0 c 2.566171,0 4.632078,1.88191 4.632078,4.219529 l 0,65.402689 c 0,2.337621 -2.065907,4.21953 -4.632078,4.21953 -55.2566517,-73.846643 -0.58492,-0.303279 -55.4624669,-73.841748 z"
         id="path3816" />
      <path
         id="path4989"
         d="m -24.679207,-36.611433 78.745332,0 c 2.566171,0 4.632078,1.88191 4.632078,4.219529 l 0,65.402689 c 0,2.337621 -2.065907,4.21953 -4.632078,4.21953 l -78.745332,0 c -2.566171,0 -4.632078,-1.881909 -4.632078,-4.21953 l 0,-65.402689 c 0,-2.337619 2.065907,-4.219529 4.632078,-4.219529 z"
         style="color:#000000;fill:none;stroke:#000000;stroke-width:2.28078365;stroke-opacity:0.7758007;marker:none;visibility:visible;display:inline;overflow:visible;enable-background:accumulate"
         inkscape:connector-curvature="0"
         sodipodi:nodetypes="sssssssss" />
      <path
         inkscape:connector-curvature="0"
         id="path5696"
         d="m 55.334402,-41.119317 -81.747021,0 c -3.77399,0 -6.81225,3.033683 -6.81225,6.80198 l 0,81.623792 c 0,3.76829 3.03826,6.80197 6.81225,6.80197 l 81.747021,0 c 3.773988,0 6.812252,-3.03368 6.812252,-6.80197 l 0,-81.623792 c 0,-3.768297 -3.038264,-6.80198 -6.812252,-6.80198 z"
         style="opacity:0.76288656;fill:url(#linearGradient5698);fill-opacity:1;fill-rule:nonzero;stroke:none;display:inline" />
    </g>
  </g>
  <g
     id="g70"
     transform="translate(-1.5003304,-4.19997e-4)"
     style="fill-rule:evenodd">
    <g
       transform="matrix(0,-0.65823,0.65616,0,-10.186,95.127)"
       id="g72"
       style="filter:url(#o)">
      <path
         d="m 48.808,61.281 44.058,4.5502 v -9.1 l -44.058,4.55 z"
         id="path74"
         inkscape:connector-curvature="0" />
      <path
         d="m 89.91,52.101 19.667,9.1442 -19.667,9.1442 c 3.1419,-5.3987 3.1238,-12.785 10e-7,-18.288 z"
         id="path76"
         inkscape:connector-curvature="0"
         style="stroke-width:0.625;stroke-linejoin:round" />
    </g>
    <path
       d="m 30.024,62 2.9857,-29 h -5.9713 l 2.9857,29 z"
       id="path78"
       style="fill:url(#linearGradient3343)"
       inkscape:connector-curvature="0" />
    <path
       d="m 24.001,34.946 6.0001,-12.945 6.0001,12.945 c -3.5424,-2.0681 -8.389,-2.0562 -12,-10e-7 z"
       id="path80"
       style="fill:url(#b);stroke-width:0.625;stroke-linejoin:round"
       inkscape:connector-curvature="0" />
    <g
       transform="matrix(0.65823,0,0,0.65616,2.8732,26.814)"
       id="g82"
       style="filter:url(#p)">
      <path
         d="m 47.289,61.281 45.577,4.5502 v -9.1 l -45.577,4.55 z"
         id="path84"
         inkscape:connector-curvature="0" />
      <path
         d="m 89.91,52.101 19.667,9.1442 -19.667,9.1442 c 3.1419,-5.3987 3.1238,-12.785 10e-7,-18.288 z"
         id="path86"
         inkscape:connector-curvature="0"
         style="stroke-width:0.625;stroke-linejoin:round" />
    </g>
    <path
       d="M 34,66.024 64,69.01 V 63.0387 L 34,66.0244 z"
       id="path88"
       style="fill:url(#linearGradient3345)"
       inkscape:connector-curvature="0" />
    <path
       d="M 62.055,60.001 75,66.0011 62.055,72.0012 c 2.0681,-3.5424 2.0562,-8.389 10e-7,-12 z"
       id="path90"
       style="fill:url(#c);stroke-width:0.625;stroke-linejoin:round"
       inkscape:connector-curvature="0" />
  </g>
</svg>
