<?xml version="1.0" encoding="UTF-8" standalone="no"?>
<!-- Created with Inkscape (http://www.inkscape.org/) -->

<svg
   xmlns:dc="http://purl.org/dc/elements/1.1/"
   xmlns:cc="http://creativecommons.org/ns#"
   xmlns:rdf="http://www.w3.org/1999/02/22-rdf-syntax-ns#"
   xmlns:svg="http://www.w3.org/2000/svg"
   xmlns="http://www.w3.org/2000/svg"
   xmlns:xlink="http://www.w3.org/1999/xlink"
   xmlns:sodipodi="http://sodipodi.sourceforge.net/DTD/sodipodi-0.dtd"
   xmlns:inkscape="http://www.inkscape.org/namespaces/inkscape"
   width="96"
   height="96"
   id="svg2"
   version="1.1"
   inkscape:version="0.92.2 5c3e80d, 2017-08-06"
   sodipodi:docname="distributor-logo-mandriva.svg">
  <script
     xlink:href=""
     id="script2985" />
  <defs
     id="defs4">
    <linearGradient
       gradientTransform="matrix(1.1392856,0,0,1.1392855,-6.6857129,-37.546428)"
       y2="47.000011"
       x2="90"
       y1="47.000011"
       x1="6"
       gradientUnits="userSpaceOnUse"
       id="linearGradient5021"
       xlink:href="#linearGradient6139-0"
       inkscape:collect="always" />
    <linearGradient
       id="linearGradient6139-0">
      <stop
         id="stop6141-2"
         offset="0"
         style="stop-color:#b7b7b7;stop-opacity:1;" />
      <stop
         style="stop-color:#ffffff;stop-opacity:1;"
         offset="0.25"
         id="stop6151-0" />
      <stop
         style="stop-color:#9d9d9d;stop-opacity:1;"
         offset="0.5"
         id="stop6147-1" />
      <stop
         id="stop6149-4"
         offset="0.75"
         style="stop-color:#fafafa;stop-opacity:1;" />
      <stop
         id="stop6143-4"
         offset="1"
         style="stop-color:#b7b7b7;stop-opacity:1;" />
    </linearGradient>
    <radialGradient
       inkscape:collect="always"
       xlink:href="#linearGradient3888-8-4-8-6"
       id="radialGradient3114"
       gradientUnits="userSpaceOnUse"
       gradientTransform="matrix(0,1.8467178,-2.3221883,0,62.428219,-313.86483)"
       cx="158"
       cy="6.2131939"
       fx="158"
       fy="6.2131939"
       r="41" />
    <linearGradient
       inkscape:collect="always"
       id="linearGradient3888-8-4-8-6">
      <stop
         style="stop-color:#ffffff;stop-opacity:1;"
         offset="0"
         id="stop3890-4-7-9-7" />
      <stop
         style="stop-color:#ffffff;stop-opacity:0;"
         offset="1"
         id="stop3892-5-8-2-7" />
    </linearGradient>
    <radialGradient
       inkscape:collect="always"
       xlink:href="#linearGradient4091-0-3-0-7"
       id="radialGradient3118"
       gradientUnits="userSpaceOnUse"
       gradientTransform="matrix(-1.2215108,0,0,-0.99689787,106.63252,-58.766242)"
       cx="48"
       cy="-27"
       fx="48"
       fy="-27"
       r="42" />
    <linearGradient
       id="linearGradient4091-0-3-0-7">
      <stop
         style="stop-color:#ffffff;stop-opacity:1;"
         offset="0"
         id="stop4093-3-6-4-2" />
      <stop
         id="stop4099-6-1-8-3"
         offset="0.80000001"
         style="stop-color:#ffffff;stop-opacity:1;" />
      <stop
         style="stop-color:#ffffff;stop-opacity:0;"
         offset="1"
         id="stop4095-1-0-7-9" />
    </linearGradient>
    <linearGradient
       inkscape:collect="always"
       xlink:href="#linearGradient3832-0-6-1-1"
       id="linearGradient3120"
       gradientUnits="userSpaceOnUse"
       gradientTransform="matrix(1.1392856,0,0,1.0128915,107.24285,-26.787957)"
       x1="-94"
       y1="82.984398"
       x2="-10.187523"
       y2="82.984398" />
    <linearGradient
       id="linearGradient3832-0-6-1-1">
      <stop
         style="stop-color:#000000;stop-opacity:1;"
         offset="0"
         id="stop3834-6-3-7-1" />
      <stop
         id="stop3872-2-4"
         offset="0.1"
         style="stop-color:#000000;stop-opacity:0.58823532;" />
      <stop
         style="stop-color:#000000;stop-opacity:0.58823532;"
         offset="0.89999998"
         id="stop3844-6-2-7-6" />
      <stop
         style="stop-color:#000000;stop-opacity:1;"
         offset="1"
         id="stop3836-5-0-2-9" />
    </linearGradient>
    <radialGradient
       inkscape:collect="always"
       xlink:href="#linearGradient7472"
       id="radialGradient7470"
       cx="-8.831461"
       cy="-12.874324"
       fx="-8.831461"
       fy="-12.874324"
       r="45.056355"
       gradientTransform="matrix(1.9073067,1.387789,-0.49590726,0.68154973,35.08726,19.714225)"
       gradientUnits="userSpaceOnUse" />
    <linearGradient
       id="linearGradient7472">
      <stop
         id="stop7474"
         style="stop-color:#3c6eb4;stop-opacity:1"
         offset="0" />
      <stop
         id="stop7476"
         style="stop-color:#819ad5;stop-opacity:1"
         offset="1" />
    </linearGradient>
    <linearGradient
       gradientTransform="scale(1.0058652,0.994169)"
       gradientUnits="userSpaceOnUse"
       id="ButtonShadow-7-1"
       y2="7.0165396"
       x2="45.447727"
       y1="92.539597"
       x1="45.447727">
      <stop
         offset="0"
         style="stop-color:#000000;stop-opacity:1"
         id="stop3750-0-9" />
      <stop
         offset="1"
         style="stop-color:#000000;stop-opacity:0.58823532"
         id="stop3752-8-5" />
    </linearGradient>
    <filter
       id="filter3174-49-2"
       color-interpolation-filters="sRGB">
      <feGaussianBlur
         stdDeviation="1.71"
         id="feGaussianBlur3176-0-1" />
    </filter>
    <filter
       id="filter5197-3"
       color-interpolation-filters="sRGB">
      <feGaussianBlur
         stdDeviation="1.4999053"
         id="feGaussianBlur5199-8" />
    </filter>
    <linearGradient
       gradientTransform="matrix(0.06177122,0,0,-0.06142094,-0.0777653,47.390408)"
       gradientUnits="userSpaceOnUse"
       xlink:href="#linearGradient4760-3"
       id="linearGradient5009-3"
       y2="300.62057"
       x2="1140.4358"
       y1="974.90161"
       x1="480.53683" />
    <linearGradient
       id="linearGradient4760-3">
      <stop
         offset="0"
         style="stop-color:#fac45a;stop-opacity:1"
         id="stop4762-6" />
      <stop
         offset="0.52493125"
         style="stop-color:#f7a909;stop-opacity:1"
         id="stop4768-4" />
      <stop
         offset="1"
         style="stop-color:#d49109;stop-opacity:1"
         id="stop4764-2" />
    </linearGradient>
    <linearGradient
       gradientTransform="matrix(0.06177122,0,0,-0.06142094,-0.07776636,47.390403)"
       gradientUnits="userSpaceOnUse"
       xlink:href="#linearGradient4760-3"
       id="linearGradient5011-0"
       y2="300.62057"
       x2="1140.4358"
       y1="974.90161"
       x1="480.53683" />
    <linearGradient
       id="linearGradient7573">
      <stop
         offset="0"
         style="stop-color:#fac45a;stop-opacity:1"
         id="stop7575" />
      <stop
         offset="0.52493125"
         style="stop-color:#f7a909;stop-opacity:1"
         id="stop7577" />
      <stop
         offset="1"
         style="stop-color:#d49109;stop-opacity:1"
         id="stop7579" />
    </linearGradient>
    <linearGradient
       gradientTransform="matrix(0.06177122,0,0,-0.06142094,-0.0777653,47.390408)"
       gradientUnits="userSpaceOnUse"
       xlink:href="#linearGradient4760-3"
       id="linearGradient5013-0"
       y2="300.62057"
       x2="1140.4358"
       y1="974.90161"
       x1="480.53683" />
    <linearGradient
       id="linearGradient7582">
      <stop
         offset="0"
         style="stop-color:#fac45a;stop-opacity:1"
         id="stop7584" />
      <stop
         offset="0.52493125"
         style="stop-color:#f7a909;stop-opacity:1"
         id="stop7586" />
      <stop
         offset="1"
         style="stop-color:#d49109;stop-opacity:1"
         id="stop7588" />
    </linearGradient>
    <linearGradient
       gradientTransform="matrix(0.06177122,0,0,-0.06142094,-0.0777653,47.390408)"
       gradientUnits="userSpaceOnUse"
       xlink:href="#linearGradient4760-3"
       id="linearGradient5015-5"
       y2="300.62057"
       x2="1140.4358"
       y1="974.90161"
       x1="480.53683" />
    <linearGradient
       id="linearGradient7591">
      <stop
         offset="0"
         style="stop-color:#fac45a;stop-opacity:1"
         id="stop7593" />
      <stop
         offset="0.52493125"
         style="stop-color:#f7a909;stop-opacity:1"
         id="stop7595" />
      <stop
         offset="1"
         style="stop-color:#d49109;stop-opacity:1"
         id="stop7597" />
    </linearGradient>
    <linearGradient
       gradientTransform="matrix(0.06177122,0,0,-0.06142094,-0.0777653,47.390408)"
       gradientUnits="userSpaceOnUse"
       xlink:href="#linearGradient4760-3"
       id="linearGradient5017-6"
       y2="300.62057"
       x2="1140.4358"
       y1="974.90161"
       x1="480.53683" />
    <linearGradient
       id="linearGradient7600">
      <stop
         offset="0"
         style="stop-color:#fac45a;stop-opacity:1"
         id="stop7602" />
      <stop
         offset="0.52493125"
         style="stop-color:#f7a909;stop-opacity:1"
         id="stop7604" />
      <stop
         offset="1"
         style="stop-color:#d49109;stop-opacity:1"
         id="stop7606" />
    </linearGradient>
    <linearGradient
       gradientTransform="matrix(0.06177122,0,0,-0.06142094,-0.0777653,47.390408)"
       gradientUnits="userSpaceOnUse"
       xlink:href="#linearGradient4760-3"
       id="linearGradient5019-0"
       y2="300.62057"
       x2="1140.4358"
       y1="974.90161"
       x1="480.53683" />
    <linearGradient
       id="linearGradient7609">
      <stop
         offset="0"
         style="stop-color:#fac45a;stop-opacity:1"
         id="stop7611" />
      <stop
         offset="0.52493125"
         style="stop-color:#f7a909;stop-opacity:1"
         id="stop7613" />
      <stop
         offset="1"
         style="stop-color:#d49109;stop-opacity:1"
         id="stop7615" />
    </linearGradient>
    <linearGradient
       gradientTransform="matrix(0.06177122,0,0,-0.06142094,-0.0777653,47.390408)"
       gradientUnits="userSpaceOnUse"
       xlink:href="#linearGradient4760-3"
       id="linearGradient5021-4-0"
       y2="300.62057"
       x2="1140.4358"
       y1="974.90161"
       x1="480.53683" />
    <linearGradient
       id="linearGradient7618">
      <stop
         offset="0"
         style="stop-color:#fac45a;stop-opacity:1"
         id="stop7620" />
      <stop
         offset="0.52493125"
         style="stop-color:#f7a909;stop-opacity:1"
         id="stop7622" />
      <stop
         offset="1"
         style="stop-color:#d49109;stop-opacity:1"
         id="stop7624" />
    </linearGradient>
    <linearGradient
       gradientTransform="matrix(0.06177122,0,0,-0.06142094,-0.0777653,47.390408)"
       gradientUnits="userSpaceOnUse"
       xlink:href="#linearGradient4760-3"
       id="linearGradient5023-2"
       y2="300.62057"
       x2="1140.4358"
       y1="974.90161"
       x1="480.53683" />
    <linearGradient
       id="linearGradient7627">
      <stop
         offset="0"
         style="stop-color:#fac45a;stop-opacity:1"
         id="stop7629" />
      <stop
         offset="0.52493125"
         style="stop-color:#f7a909;stop-opacity:1"
         id="stop7631" />
      <stop
         offset="1"
         style="stop-color:#d49109;stop-opacity:1"
         id="stop7633" />
    </linearGradient>
    <linearGradient
       gradientTransform="matrix(0.06177122,0,0,-0.06142094,-0.0777653,47.390408)"
       gradientUnits="userSpaceOnUse"
       xlink:href="#linearGradient4760-3"
       id="linearGradient5025-8"
       y2="300.62057"
       x2="1140.4358"
       y1="974.90161"
       x1="480.53683" />
    <linearGradient
       id="linearGradient7636">
      <stop
         offset="0"
         style="stop-color:#fac45a;stop-opacity:1"
         id="stop7638" />
      <stop
         offset="0.52493125"
         style="stop-color:#f7a909;stop-opacity:1"
         id="stop7640" />
      <stop
         offset="1"
         style="stop-color:#d49109;stop-opacity:1"
         id="stop7642" />
    </linearGradient>
    <linearGradient
       gradientTransform="matrix(0.06177122,0,0,-0.06142094,-0.0777653,47.390408)"
       gradientUnits="userSpaceOnUse"
       xlink:href="#linearGradient4760-3"
       id="linearGradient5027-9"
       y2="300.62057"
       x2="1140.4358"
       y1="974.90161"
       x1="480.53683" />
    <linearGradient
       id="linearGradient7645">
      <stop
         offset="0"
         style="stop-color:#fac45a;stop-opacity:1"
         id="stop7647" />
      <stop
         offset="0.52493125"
         style="stop-color:#f7a909;stop-opacity:1"
         id="stop7649" />
      <stop
         offset="1"
         style="stop-color:#d49109;stop-opacity:1"
         id="stop7651" />
    </linearGradient>
    <linearGradient
       gradientTransform="matrix(0.06177122,0,0,-0.06142094,-0.0777653,47.390408)"
       gradientUnits="userSpaceOnUse"
       xlink:href="#linearGradient4760-3"
       id="linearGradient5029-2"
       y2="300.62057"
       x2="1140.4358"
       y1="974.90161"
       x1="480.53683" />
    <linearGradient
       id="linearGradient7654">
      <stop
         offset="0"
         style="stop-color:#fac45a;stop-opacity:1"
         id="stop7656" />
      <stop
         offset="0.52493125"
         style="stop-color:#f7a909;stop-opacity:1"
         id="stop7658" />
      <stop
         offset="1"
         style="stop-color:#d49109;stop-opacity:1"
         id="stop7660" />
    </linearGradient>
    <linearGradient
       gradientTransform="matrix(0.06177122,0,0,-0.06142094,-0.0777653,47.390408)"
       gradientUnits="userSpaceOnUse"
       xlink:href="#linearGradient4760-3"
       id="linearGradient5031-5"
       y2="300.62057"
       x2="1140.4358"
       y1="974.90161"
       x1="480.53683" />
    <linearGradient
       id="linearGradient7663">
      <stop
         offset="0"
         style="stop-color:#fac45a;stop-opacity:1"
         id="stop7665" />
      <stop
         offset="0.52493125"
         style="stop-color:#f7a909;stop-opacity:1"
         id="stop7667" />
      <stop
         offset="1"
         style="stop-color:#d49109;stop-opacity:1"
         id="stop7669" />
    </linearGradient>
    <linearGradient
       gradientTransform="matrix(0.06177122,0,0,-0.06142094,-0.0777653,47.390408)"
       gradientUnits="userSpaceOnUse"
       xlink:href="#linearGradient4760-3"
       id="linearGradient5033-7"
       y2="300.62057"
       x2="1140.4358"
       y1="974.90161"
       x1="480.53683" />
    <linearGradient
       id="linearGradient7672">
      <stop
         offset="0"
         style="stop-color:#fac45a;stop-opacity:1"
         id="stop7674" />
      <stop
         offset="0.52493125"
         style="stop-color:#f7a909;stop-opacity:1"
         id="stop7676" />
      <stop
         offset="1"
         style="stop-color:#d49109;stop-opacity:1"
         id="stop7678" />
    </linearGradient>
    <linearGradient
       gradientTransform="matrix(0.06177122,0,0,-0.06142094,-0.0777653,47.390408)"
       gradientUnits="userSpaceOnUse"
       xlink:href="#linearGradient4760-3"
       id="linearGradient5035-9"
       y2="300.62057"
       x2="1140.4358"
       y1="974.90161"
       x1="480.53683" />
    <linearGradient
       id="linearGradient7681">
      <stop
         offset="0"
         style="stop-color:#fac45a;stop-opacity:1"
         id="stop7683" />
      <stop
         offset="0.52493125"
         style="stop-color:#f7a909;stop-opacity:1"
         id="stop7685" />
      <stop
         offset="1"
         style="stop-color:#d49109;stop-opacity:1"
         id="stop7687" />
    </linearGradient>
    <linearGradient
       gradientTransform="matrix(0.06177122,0,0,-0.06142094,-0.0777653,47.390408)"
       gradientUnits="userSpaceOnUse"
       xlink:href="#linearGradient4760-3"
       id="linearGradient5037-7"
       y2="300.62057"
       x2="1140.4358"
       y1="974.90161"
       x1="480.53683" />
    <linearGradient
       id="linearGradient7690">
      <stop
         offset="0"
         style="stop-color:#fac45a;stop-opacity:1"
         id="stop7692" />
      <stop
         offset="0.52493125"
         style="stop-color:#f7a909;stop-opacity:1"
         id="stop7694" />
      <stop
         offset="1"
         style="stop-color:#d49109;stop-opacity:1"
         id="stop7696" />
    </linearGradient>
    <linearGradient
       gradientTransform="matrix(0.06177122,0,0,-0.06142094,-0.0777653,47.390408)"
       gradientUnits="userSpaceOnUse"
       xlink:href="#linearGradient4760-3"
       id="linearGradient5039-0"
       y2="300.62057"
       x2="1140.4358"
       y1="974.90161"
       x1="480.53683" />
    <linearGradient
       id="linearGradient7699">
      <stop
         offset="0"
         style="stop-color:#fac45a;stop-opacity:1"
         id="stop7701" />
      <stop
         offset="0.52493125"
         style="stop-color:#f7a909;stop-opacity:1"
         id="stop7703" />
      <stop
         offset="1"
         style="stop-color:#d49109;stop-opacity:1"
         id="stop7705" />
    </linearGradient>
    <linearGradient
       gradientTransform="matrix(0.06177122,0,0,-0.06142094,-0.0777653,47.390408)"
       gradientUnits="userSpaceOnUse"
       xlink:href="#linearGradient4760-3"
       id="linearGradient5041-5"
       y2="300.62057"
       x2="1140.4358"
       y1="974.90161"
       x1="480.53683" />
    <linearGradient
       id="linearGradient7708">
      <stop
         offset="0"
         style="stop-color:#fac45a;stop-opacity:1"
         id="stop7710" />
      <stop
         offset="0.52493125"
         style="stop-color:#f7a909;stop-opacity:1"
         id="stop7712" />
      <stop
         offset="1"
         style="stop-color:#d49109;stop-opacity:1"
         id="stop7714" />
    </linearGradient>
    <linearGradient
       gradientTransform="matrix(0.06177122,0,0,-0.06142094,-0.0777653,47.390408)"
       gradientUnits="userSpaceOnUse"
       xlink:href="#linearGradient4760-3"
       id="linearGradient5043-8"
       y2="300.62057"
       x2="1140.4358"
       y1="974.90161"
       x1="480.53683" />
    <linearGradient
       id="linearGradient7717">
      <stop
         offset="0"
         style="stop-color:#fac45a;stop-opacity:1"
         id="stop7719" />
      <stop
         offset="0.52493125"
         style="stop-color:#f7a909;stop-opacity:1"
         id="stop7721" />
      <stop
         offset="1"
         style="stop-color:#d49109;stop-opacity:1"
         id="stop7723" />
    </linearGradient>
    <linearGradient
       gradientTransform="matrix(0.37992745,0,0,0.37777305,-234.01348,-74.868893)"
       gradientUnits="userSpaceOnUse"
       xlink:href="#linearGradient4420-3"
       id="linearGradient5045-2"
       y2="299.31668"
       x2="1086.5875"
       y1="257.30719"
       x1="1086.5875" />
    <linearGradient
       id="linearGradient4420-3">
      <stop
         offset="0"
         style="stop-color:#415ea4;stop-opacity:1"
         id="stop4422-1" />
      <stop
         offset="1"
         style="stop-color:#19458c;stop-opacity:1"
         id="stop4424-1" />
    </linearGradient>
    <linearGradient
       inkscape:collect="always"
       xlink:href="#linearGradient5700"
       id="linearGradient5698"
       gradientUnits="userSpaceOnUse"
       gradientTransform="matrix(1.1392856,0,0,1.1392855,-6.6857068,-37.546426)"
       x1="6"
       y1="47.000011"
       x2="90"
       y2="47.000011" />
    <linearGradient
       id="linearGradient5700">
      <stop
         id="stop5702"
         offset="0"
         style="stop-color:#ffffff;stop-opacity:0;" />
      <stop
         style="stop-color:#ffffff;stop-opacity:0.85135138;"
         offset="0.03681535"
         id="stop5704" />
      <stop
         id="stop5706"
         offset="0.06506088"
         style="stop-color:#ffffff;stop-opacity:0;" />
      <stop
         style="stop-color:#ffffff;stop-opacity:0;"
         offset="0.94493848"
         id="stop5712" />
      <stop
         style="stop-color:#ffffff;stop-opacity:0.85135138;"
         offset="0.96582276"
         id="stop5710" />
      <stop
         id="stop5708"
         offset="1"
         style="stop-color:#ffffff;stop-opacity:0;" />
    </linearGradient>
    <linearGradient
       inkscape:collect="always"
       xlink:href="#linearGradient3888-8-4-8-4-6-9-0-8-7-9"
       id="linearGradient3980"
       x1="2.4652066"
       y1="0.27861649"
       x2="59.378193"
       y2="0.27861649"
       gradientUnits="userSpaceOnUse" />
    <linearGradient
       inkscape:collect="always"
       id="linearGradient3888-8-4-8-4-6-9-0-8-7-9">
      <stop
         style="stop-color:#ffffff;stop-opacity:1;"
         offset="0"
         id="stop3890-4-7-9-5-7-0-8-8-8-6" />
      <stop
         style="stop-color:#ffffff;stop-opacity:0;"
         offset="1"
         id="stop3892-5-8-2-8-3-3-3-06-4-4" />
    </linearGradient>
    <linearGradient
       y2="0.27861649"
       x2="59.378193"
       y1="0.27861649"
       x1="2.4652066"
       gradientUnits="userSpaceOnUse"
       id="linearGradient7786"
       xlink:href="#linearGradient3888-8-4-8-4-6-9-0-8-7-9"
       inkscape:collect="always"
       gradientTransform="matrix(1.0034441,0,0,1.0049592,33.489303,9.4732382)" />
  </defs>
  <sodipodi:namedview
     id="base"
     pagecolor="#ffffff"
     bordercolor="#666666"
     borderopacity="1.0"
     inkscape:pageopacity="0.0"
     inkscape:pageshadow="2"
     inkscape:zoom="1.0661621"
     inkscape:cx="62.893748"
     inkscape:cy="32"
     inkscape:current-layer="layer1"
     showgrid="true"
     inkscape:document-units="px"
     inkscape:grid-bbox="true"
     inkscape:showpageshadow="false"
     gridtolerance="1"
     guidetolerance="1"
     objecttolerance="1"
     inkscape:window-width="1280"
     inkscape:window-height="972"
     inkscape:window-x="0"
     inkscape:window-y="23"
     inkscape:window-maximized="1" />
  <metadata
     id="metadata7">
    <rdf:RDF>
      <cc:Work
         rdf:about="">
        <dc:format>image/svg+xml</dc:format>
        <dc:type
           rdf:resource="http://purl.org/dc/dcmitype/StillImage" />
        <dc:title />
      </cc:Work>
    </rdf:RDF>
  </metadata>
  <g
     id="layer1"
     inkscape:label="Layer 1"
     inkscape:groupmode="layer"
     transform="translate(0,32)">
    <path
       inkscape:connector-curvature="0"
       id="rect4251-1"
       d="M 89.014281,-31.850001 H 6.9857153 c -3.786986,0 -6.83571408,3.048728 -6.83571408,6.835713 v 82.028576 c 0,3.786985 3.04872808,6.835713 6.83571408,6.835713 H 89.014281 c 3.786986,0 6.835714,-3.048728 6.835714,-6.835713 v -82.028576 c 0,-3.786985 -3.048728,-6.835713 -6.835714,-6.835713 z"
       style="display:inline;fill:url(#linearGradient5021);fill-opacity:1;fill-rule:nonzero;stroke:none;stroke-width:1.00420141" />
    <path
       sodipodi:nodetypes="sscccsccscccsss"
       inkscape:connector-curvature="0"
       id="path3400-6"
       d="m 6.9857172,-30.710715 c -3.1755308,0 -5.696428,2.5209 -5.696428,5.696428 V -1.4097158 6.5652827 50.534582 c 1.2197875,1.855645 3.3004306,3.097433 5.696428,3.097433 H 11.54286 84.457138 89.01428 c 2.395998,0 4.476641,-1.241788 5.696428,-3.097433 V 6.5652827 -1.4097158 -25.014287 c 0,-3.175528 -2.520897,-5.696428 -5.696428,-5.696428 z"
       style="display:inline;opacity:0.2;fill:url(#radialGradient3114);fill-opacity:1;fill-rule:nonzero;stroke:none;stroke-width:1.13928556" />
    <path
       inkscape:connector-curvature="0"
       id="path4236-5"
       d="m 6.9857172,-31.85 c -3.7869853,0 -6.8357136,3.048727 -6.8357136,6.835713 V -7.9250047 H 1.2892892 V -25.014287 c 0,-3.175528 2.5208972,-5.696428 5.696428,-5.696428 H 89.01428 c 3.175531,0 5.696428,2.5209 5.696428,5.696428 v 17.0892823 h 1.139286 V -25.014287 c 0,-3.786986 -3.048728,-6.835713 -6.835714,-6.835713 z"
       style="display:inline;opacity:0.45;fill:url(#radialGradient3118);fill-opacity:1;fill-rule:nonzero;stroke:none;stroke-width:1.13928556" />
    <path
       style="opacity:0.46964859;fill:url(#linearGradient3120);fill-opacity:1;fill-rule:nonzero;stroke:none;stroke-width:1.13928556"
       d="m 0.1500036,50.682392 v 1.012891 1.012892 1.012892 2.025783 2.025783 c 0,3.366851 3.0487283,6.077349 6.8357136,6.077349 H 89.01428 c 3.786986,0 6.835714,-2.710498 6.835714,-6.077349 V 55.74685 53.721067 52.708175 51.695283 50.682392 c 0,3.366851 -3.048728,6.077349 -6.835714,6.077349 H 6.9857172 c -3.7869853,0 -6.8357136,-2.710498 -6.8357136,-6.077349 z"
       id="path4242-5"
       inkscape:connector-curvature="0" />
    <ellipse
       style="opacity:0.71000001;fill:#1c1c1c;fill-opacity:1;fill-rule:nonzero;stroke:none;stroke-width:1.17681837"
       id="path4002"
       cx="29.715841"
       cy="52.708862"
       rx="3.4435704"
       ry="3.1328778" />
    <ellipse
       id="path3854"
       style="fill:#ffffff;fill-opacity:1;fill-rule:nonzero;stroke:none;stroke-width:0.99326897"
       cx="29.715845"
       cy="52.501453"
       rx="2.8653159"
       ry="2.6822226" />
    <ellipse
       style="fill:#114751;fill-opacity:1;fill-rule:nonzero;stroke:none;stroke-width:0.67326295"
       id="path3856"
       cx="29.715837"
       cy="52.501453"
       rx="1.9421839"
       ry="1.8180788" />
    <ellipse
       id="path4170"
       style="opacity:0.71000001;fill:#1c1c1c;fill-opacity:1;fill-rule:nonzero;stroke:none;stroke-width:1.17681837"
       cx="63.832935"
       cy="52.708862"
       rx="3.4435704"
       ry="3.1328778" />
    <ellipse
       style="fill:#ffffff;fill-opacity:1;fill-rule:nonzero;stroke:none;stroke-width:0.99326897"
       id="path4172"
       cx="63.832943"
       cy="52.501453"
       rx="2.8653159"
       ry="2.6822226" />
    <ellipse
       id="path4174"
       style="fill:#114751;fill-opacity:1;fill-rule:nonzero;stroke:none;stroke-width:0.67326295"
       cx="63.832935"
       cy="52.501453"
       rx="1.9421839"
       ry="1.8180788" />
    <rect
       style="opacity:0.75097273;fill:#0c2f31;fill-opacity:0.90454544;stroke:#ffffff;stroke-width:0.50200003;stroke-miterlimit:4;stroke-dasharray:none;stroke-opacity:1"
       id="rect4176"
       width="12.717808"
       height="3.252003"
       x="40.656803"
       y="51.6576"
       rx="1.1521"
       ry="1.1538397" />
    <path
       inkscape:connector-curvature="0"
       id="path4972"
       d="m 7.7809407,26.13156 c -1.8851052,0 -3.649478,0.91815 -4.7591076,2.271826 v 15.088982 c 0,2.404472 2.1225623,4.340201 4.7591076,4.340201 H 88.685793 c 2.636547,0 4.759108,-1.935729 4.759108,-4.340201 V 28.403386 C 92.335273,27.04971 90.5709,26.13156 88.685793,26.13156 Z m 0,3.255153 H 88.685793 c 1.359429,0 2.379555,0.930333 2.379555,2.170101 v 11.935554 c 0,1.239769 -1.020126,2.170101 -2.379555,2.170101 H 7.7809407 c -1.3594269,0 -2.3795533,-0.930332 -2.3795533,-2.170101 V 31.556814 c 0,-1.239768 1.0201264,-2.170101 2.3795533,-2.170101 z"
       style="color:#000000;font-style:normal;font-variant:normal;font-weight:normal;font-stretch:normal;font-size:medium;line-height:normal;font-family:Sans;-inkscape-font-specification:Sans;text-indent:0;text-align:start;text-decoration:none;text-decoration-line:none;letter-spacing:normal;word-spacing:normal;text-transform:none;writing-mode:lr-tb;direction:ltr;baseline-shift:baseline;text-anchor:start;display:inline;overflow:visible;visibility:visible;opacity:0.02000002;fill:#000000;fill-opacity:1;fill-rule:nonzero;stroke:none;stroke-width:6.025208;marker:none;enable-background:accumulate" />
    <path
       id="path4970"
       d="M 7.7809407,-28.120957 H 88.685793 c 2.636547,0 4.759108,1.935729 4.759108,4.340203 v 67.273122 c 0,2.404472 -2.122561,4.340201 -4.759108,4.340201 H 7.7809407 c -2.6365453,0 -4.7591076,-1.935729 -4.7591076,-4.340201 v -67.273122 c 0,-2.404474 2.1225623,-4.340203 4.7591076,-4.340203 z"
       style="color:#000000;display:inline;overflow:visible;visibility:visible;fill:url(#radialGradient7470);fill-opacity:1;fill-rule:nonzero;stroke:none;stroke-width:2.00840282;marker:none;enable-background:accumulate"
       inkscape:connector-curvature="0"
       sodipodi:nodetypes="sssssssss" />
    <path
       style="color:#000000;font-style:normal;font-variant:normal;font-weight:normal;font-stretch:normal;font-size:medium;line-height:normal;font-family:'Abandoned Bitplane';-inkscape-font-specification:'Abandoned Bitplane';text-indent:0;text-align:start;text-decoration:none;text-decoration-line:none;letter-spacing:normal;word-spacing:normal;text-transform:none;writing-mode:lr-tb;direction:ltr;text-anchor:start;display:inline;overflow:visible;visibility:visible;opacity:0.6;fill:#000000;fill-opacity:1;fill-rule:nonzero;stroke:none;stroke-width:0.82077771;marker:none;filter:url(#filter5197-3);enable-background:accumulate"
       id="path5186"
       inkscape:connector-curvature="0"
       d="m 55.0625,24.03125 c -0.274513,-0.05739 -0.554539,0.03155 -0.78125,0.1875 -0.226711,0.155952 -0.436792,0.36673 -0.625,0.65625 L 45.6875,37.15625 C 45.129428,38.012878 43.674056,38.663502 42.65625,38.5 L 28.125,36.1875 c -0.342169,-0.05517 -0.638258,-0.06285 -0.90625,0 -0.267992,0.06285 -0.515177,0.194293 -0.65625,0.4375 -0.141073,0.243207 -0.142166,0.549481 -0.0625,0.8125 0.07967,0.263019 0.24969,0.514589 0.46875,0.78125 L 36.25,49.5625 c 0.649851,0.796042 0.813844,2.368156 0.34375,3.28125 l -6.71875,13 c -0.157589,0.307046 -0.259039,0.601147 -0.28125,0.875 -0.02221,0.273853 0.06156,0.542014 0.25,0.75 0.188444,0.207986 0.444155,0.306345 0.71875,0.3125 0.274595,0.0062 0.584415,-0.06343 0.90625,-0.1875 L 45.1875,62.3125 c 0.962256,-0.368619 2.522138,-0.03656 3.25,0.6875 l 10.375,10.375 c 0.244075,0.244785 0.465009,0.425065 0.71875,0.53125 0.253741,0.106185 0.555579,0.144386 0.8125,0.03125 0.256921,-0.113136 0.408732,-0.365793 0.5,-0.625 0.09127,-0.259207 0.144322,-0.562033 0.125,-0.90625 L 60.15625,57.8125 c -0.05648,-1.01846 0.734692,-2.380958 1.65625,-2.84375 l 13.125,-6.625 c 0.308659,-0.155913 0.539178,-0.323011 0.71875,-0.53125 0.179572,-0.208239 0.311262,-0.470373 0.28125,-0.75 C 75.90749,46.782873 75.719252,46.541138 75.5,46.375 75.280748,46.208862 75.022169,46.088666 74.6875,46 L 60.46875,42.28125 C 59.471829,42.019089 58.40784,40.821347 58.25,39.8125 L 55.96875,25.375 C 55.9156,25.034654 55.831307,24.734324 55.6875,24.5 55.543693,24.265676 55.337013,24.088638 55.0625,24.03125 Z m -0.15625,0.78125 c 0.0095,0.002 0.03104,0.02281 0.09375,0.125 0.06271,0.102188 0.114692,0.296381 0.15625,0.5625 l 2.28125,14.4375 c 0.221538,1.415971 1.419471,2.758673 2.8125,3.125 l 14.21875,3.75 c 0.263419,0.06979 0.434229,0.145233 0.53125,0.21875 0.09702,0.07352 0.124238,0.117904 0.125,0.125 7.62e-4,0.0071 -0.01491,0.03358 -0.09375,0.125 -0.07884,0.09142 -0.226134,0.221197 -0.46875,0.34375 l -13.125,6.59375 c -1.287738,0.646682 -2.204261,2.195734 -2.125,3.625 l 0.8125,14.625 c 0.01513,0.269544 0.0085,0.449538 -0.03125,0.5625 -0.03977,0.112962 -0.0861,0.152879 -0.09375,0.15625 -0.0077,0.0034 -0.04384,0.01579 -0.15625,-0.03125 -0.112407,-0.04704 -0.277066,-0.182759 -0.46875,-0.375 L 49,62.40625 C 47.98212,61.393693 46.216922,61.048439 44.875,61.5625 l -13.71875,5.28125 c -0.252697,0.09741 -0.441156,0.12772 -0.5625,0.125 -0.121344,-0.0027 -0.150905,-0.02535 -0.15625,-0.03125 -0.0053,-0.0059 -0.0097,-0.03656 0,-0.15625 0.0097,-0.119692 0.06391,-0.321688 0.1875,-0.5625 l 6.6875,-13 c 0.657922,-1.277924 0.470119,-3.075702 -0.4375,-4.1875 L 27.59375,37.6875 c -0.17175,-0.209071 -0.277728,-0.385201 -0.3125,-0.5 -0.03477,-0.114799 -0.0036,-0.149993 0,-0.15625 0.0036,-0.0063 0.0064,-0.03468 0.125,-0.0625 C 27.52487,36.940931 27.730879,36.956606 28,37 l 14.53125,2.3125 c 1.421556,0.228362 3.061728,-0.487114 3.84375,-1.6875 l 7.96875,-12.3125 c 0.147554,-0.226983 0.305913,-0.368479 0.40625,-0.4375 0.100337,-0.06902 0.146795,-0.06448 0.15625,-0.0625 z m 27.370108,21.685755 -5.397129,0.04731 z m -62.1447,-10.547797 c -4.078319,4.568446 -6.441313,10.034008 -6.994852,16.118276 -0.540804,5.946498 0.41955,13.639899 4.72679,18.153162 7.930639,8.310609 22.667073,-0.932686 29.618637,-5.955339 1.378913,-0.996025 2.334385,-2.567186 3.704731,-3.557039 -7.334709,5.299445 -21.221145,13.912246 -29.618801,5.955285 -4.35079,-4.12203 -4.985688,-11.792521 -4.776976,-17.36944 0.236344,-6.313254 2.858003,-12.211738 7.045243,-16.901945 -1.133837,1.269786 -2.567045,2.282548 -3.704772,3.55704 m 53.170579,5.829286 c -0.241447,0.448664 -0.353488,0.720592 -0.200947,0.983734 0.165178,0.284639 1.051001,1.672946 1.051001,1.672946 0,0 0.866358,1.400125 1.051,1.672473 0.171481,0.251321 0.466051,0.270725 0.977875,0.25153 0.240909,-0.448456 0.352438,-0.720436 0.199884,-0.983369 -0.164638,-0.284428 -1.050986,-1.672683 -1.050986,-1.672683 0,0 -0.866373,-1.400598 -1.051001,-1.672525 -0.170957,-0.25174 -0.466052,-0.271145 -0.976826,-0.252106 m -5.24e-4,2.09e-4 2.878928,4.580683 m -2.878928,-4.580683 2.878928,4.580683 m -0.412929,0.784562 v 0 m -2.037289,5.402012 c 0.500248,-0.01125 0.786929,-0.04801 0.938946,-0.302789 0.163591,-0.276843 0.925801,-1.693761 0.925801,-1.693761 0,0 0.781672,-1.406665 0.926323,-1.693762 0.132566,-0.265598 0.0069,-0.524242 -0.255117,-0.94801 -0.499187,0.01166 -0.785881,0.04802 -0.937374,0.302997 -0.164115,0.276637 -0.926324,1.693761 -0.926324,1.693761 0,0 -0.781674,1.406509 -0.9258,1.694181 -0.13312,0.264972 -0.0082,0.524034 0.253545,0.947383 m 5.24e-4,0 2.535952,-4.638113 m -2.535952,4.638113 2.535952,-4.638113 m 3.787899,4.553328 c 0.241973,-0.448873 0.352964,-0.720592 0.200948,-0.983786 -0.165177,-0.284376 -1.051001,-1.672265 -1.051001,-1.672265 0,0 -0.866358,-1.399761 -1.051,-1.6719 -0.170957,-0.251111 -0.465528,-0.270934 -0.97735,-0.25153 -0.24091,0.448246 -0.352426,0.720437 -0.199885,0.983159 0.164639,0.284431 1.051,1.672317 1.051,1.672317 0,0 0.866359,1.399919 1.050987,1.672266 0.170957,0.250694 0.465528,0.270725 0.976301,0.251739 m 5.26e-4,-4.19e-4 -2.878405,-4.57927 m 2.878405,4.57927 -2.878405,-4.57927 m 5.823075,-0.84382 C 82.741723,46.601288 82.566556,46.365501 82.262522,46.35755 81.93323,46.34975 80.285197,46.378 80.285197,46.378 c 0,0 -1.649081,0.0054 -1.978372,0.02019 -0.303524,0.01434 -0.473419,0.25357 -0.722758,0.696534 0.258278,0.436791 0.432918,0.672578 0.73749,0.68037 0.329278,0.0083 1.977311,-0.02045 1.977311,-0.02045 0,0 1.649095,-0.0051 1.978372,-0.02024 0.303523,-0.01371 0.473432,-0.253308 0.722754,-0.695485 m 0,-3.7e-4 -5.415927,0.05555 m 5.415927,-0.05555 -5.415927,0.05555 m 2.045705,-5.40139 c -0.500773,0.01097 -0.787978,0.04719 -0.940008,0.30258 -0.16464,0.276636 -0.928421,1.694965 -0.928421,1.694965 0,0 -0.783785,1.40771 -0.927911,1.694965 -0.133119,0.266017 -0.0082,0.525079 0.25407,0.949475 0.500248,-0.01153 0.787453,-0.04765 0.93947,-0.303206 0.164653,-0.276636 0.927911,-1.695018 0.927911,-1.695018 0,0 0.783769,-1.407502 0.928435,-1.695174 0.133118,-0.265601 0.0082,-0.524661 -0.253546,-0.948587 m -5.24e-4,-2.08e-4 -2.542271,4.641984 m 2.542271,-4.641984 -2.542271,4.641984 M 55.576986,25.425684 c -0.189414,-1.212931 -0.894817,-1.360429 -1.56634,-0.327424 l -7.976245,12.290978 c -0.670046,1.028507 -2.215874,1.715207 -3.435555,1.519275 L 28.074601,36.582606 c -1.222579,-0.197134 -1.580909,0.423556 -0.79929,1.37502 l 9.28988,11.342863 c 0.778736,0.953921 0.958108,2.624198 0.3941,3.719707 l -6.71442,13.015755 c -0.562366,1.095717 -0.08056,1.624878 1.068506,1.181915 l 13.721796,-5.281871 c 1.152087,-0.441341 2.80681,-0.09358 3.679681,0.774727 l 10.37276,10.373774 c 0.871517,0.874053 1.528514,0.58476 1.459611,-0.642764 L 59.736099,57.832794 c -0.06787,-1.223862 0.774308,-2.682621 1.878955,-3.237357 l 13.129537,-6.604223 c 1.102551,-0.556933 1.026266,-1.266907 -0.169908,-1.583817 L 60.354706,42.662584 C 59.159732,42.34834 58.028157,41.094457 57.838467,39.882048 L 55.576986,25.425684 m 0,-2e-6 c -0.189415,-1.212931 -0.894817,-1.360428 -1.566341,-0.327423 l -7.976244,12.290977 c -0.670047,1.028507 -2.215875,1.715207 -3.435556,1.519275 L 28.074601,36.582604 c -1.222579,-0.197134 -1.580909,0.423556 -0.79929,1.37502 l 9.28988,11.342863 c 0.778735,0.95392 0.958108,2.624198 0.3941,3.719707 l -6.71442,13.015754 c -0.562367,1.095717 -0.08056,1.624878 1.068505,1.181915 l 13.721796,-5.281871 c 1.152089,-0.44134 2.806811,-0.09358 3.679682,0.774727 l 10.37276,10.373774 c 0.871517,0.874052 1.528515,0.584759 1.459611,-0.642764 L 59.736099,57.832793 c -0.06787,-1.223863 0.774307,-2.682622 1.878955,-3.237359 l 13.129537,-6.604223 c 1.10255,-0.556933 1.026266,-1.266906 -0.169909,-1.583816 L 60.354706,42.662582 c -1.194975,-0.314244 -2.32655,-1.568127 -2.516239,-2.780536 z"
       transform="matrix(1.1743058,0,0,1.1743058,-8.3666727,-46.964078)" />
    <path
       d="m 56.89771,-18.280856 c -0.22243,-1.424352 -1.050789,-1.59756 -1.839363,-0.384497 l -9.36655,14.4333674 c -0.786839,1.2077818 -2.602114,2.0141769 -4.034392,1.7840928 L 24.6015,-5.1792186 c -1.435682,-0.2314959 -1.856471,0.4973851 -0.938611,1.6146944 l 10.90916,13.3199897 c 0.914474,1.1201945 1.125111,3.0816105 0.462793,4.3680735 L 27.15006,29.408015 c -0.660389,1.286707 -0.0946,1.908104 1.254753,1.38793 l 16.113585,-6.202532 c 1.352901,-0.51827 3.296053,-0.109888 4.32107,0.909766 L 61.02026,37.685163 c 1.023428,1.026405 1.794944,0.686686 1.71403,-0.754802 l -0.95251,-17.15536 c -0.0797,-1.437189 0.909275,-3.150218 2.206468,-3.801648 L 79.40634,8.2179761 C 80.701072,7.5639665 80.61149,6.7302395 79.206816,6.3580901 L 62.508214,1.9605353 C 61.104949,1.5915163 59.776134,0.11907398 59.553379,-1.3046645 L 56.89771,-18.280856"
       inkscape:connector-curvature="0"
       id="path3064"
       style="fill:url(#linearGradient5009-3);fill-opacity:1;fill-rule:nonzero;stroke:none;stroke-width:1.17112184" />
    <path
       d="m 56.89771,-18.280859 c -0.222432,-1.424352 -1.050789,-1.597559 -1.839364,-0.384495 l -9.366549,14.4333661 c -0.786841,1.2077818 -2.602115,2.0141769 -4.034393,1.7840928 L 24.6015,-5.1792209 c -1.435682,-0.2314959 -1.856471,0.497385 -0.938611,1.6146944 l 10.90916,13.3199897 c 0.914473,1.1201938 1.125111,3.0816108 0.462793,4.3680738 L 27.15006,29.408011 c -0.66039,1.286708 -0.0946,1.908105 1.254752,1.38793 l 16.113585,-6.202532 c 1.352904,-0.518268 3.296054,-0.109888 4.321071,0.909767 L 61.02026,37.685158 c 1.023428,1.026405 1.794945,0.686687 1.71403,-0.754801 L 61.78178,19.774999 c -0.0797,-1.437189 0.909274,-3.150218 2.206468,-3.801649 L 79.40634,8.2179726 C 80.701071,7.563963 80.61149,6.7302371 79.206814,6.3580877 L 62.508214,1.9605329 C 61.104948,1.591514 59.776133,0.11907164 59.553379,-1.3046668 Z"
       inkscape:connector-curvature="0"
       id="path3066"
       style="fill:url(#linearGradient5011-0);fill-opacity:1;stroke:#fab217;stroke-width:0.963844;stroke-linecap:butt;stroke-linejoin:miter;stroke-miterlimit:4;stroke-dasharray:none;stroke-opacity:1" />
    <path
       d="M 85.14242,0.8213604 82.157017,6.2724691"
       inkscape:connector-curvature="0"
       id="path3068"
       style="fill:url(#linearGradient5013-0);fill-opacity:1;fill-rule:nonzero;stroke:none;stroke-width:1.17112184" />
    <path
       d="M 85.14242,0.8213604 82.157017,6.2724691"
       inkscape:connector-curvature="0"
       id="path3070"
       style="fill:url(#linearGradient5015-5);fill-opacity:1;fill-rule:nonzero;stroke:none;stroke-width:1.17112184" />
    <path
       d="m 85.143036,0.82160543 c -0.588061,0.0128813 -0.925327,0.0554106 -1.103857,0.35532087 -0.193338,0.3248562 -1.09025,1.9904072 -1.09025,1.9904072 0,0 -0.920404,1.6530828 -1.089652,1.9904072 -0.156322,0.3123855 -0.0096,0.6166036 0.298356,1.1149746 0.587445,-0.013535 0.924711,-0.055959 1.103226,-0.3560572 0.193352,-0.3248549 1.08965,-1.990469 1.08965,-1.990469 0,0 0.920386,-1.6528377 1.090268,-1.9906522 0.15632,-0.3118978 0.0096,-0.6161124 -0.297741,-1.11393147"
       inkscape:connector-curvature="0"
       id="path3072"
       style="fill:url(#linearGradient5017-6);fill-opacity:1;fill-rule:nonzero;stroke:none;stroke-width:1.17112184" />
    <path
       d="M 89.100706,7.0992561 82.740752,7.164491"
       inkscape:connector-curvature="0"
       id="path3074"
       style="fill:url(#linearGradient5019-0);fill-opacity:1;fill-rule:nonzero;stroke:none;stroke-width:1.17112184" />
    <path
       d="M 89.100706,7.0992561 82.740752,7.164491"
       inkscape:connector-curvature="0"
       id="path3076"
       style="fill:url(#linearGradient5021-4-0);fill-opacity:1;fill-rule:nonzero;stroke:none;stroke-width:1.17112184" />
    <path
       d="M 89.100706,7.0996866 C 88.797417,6.5857775 88.591718,6.3088914 88.234689,6.2995548 c -0.386689,-0.0091 -2.321984,0.024012 -2.321984,0.024012 0,0 -1.936525,0.0063 -2.323214,0.023709 -0.35643,0.016837 -0.555939,0.2977692 -0.848739,0.8179439 0.303297,0.5129267 0.508379,0.7898128 0.86604,0.7989627 0.386672,0.0098 2.321967,-0.024012 2.321967,-0.024012 0,0 1.936541,-0.00595 2.323214,-0.023767 0.356429,-0.016102 0.555954,-0.2974612 0.848733,-0.816713"
       inkscape:connector-curvature="0"
       id="path3078"
       style="fill:url(#linearGradient5023-2);fill-opacity:1;fill-rule:nonzero;stroke:none;stroke-width:1.17112184" />
    <path
       d="M 85.642763,13.468054 82.262636,8.09059"
       inkscape:connector-curvature="0"
       id="path3080"
       style="fill:url(#linearGradient5025-8);fill-opacity:1;fill-rule:nonzero;stroke:none;stroke-width:1.17112184" />
    <path
       d="M 85.642763,13.468054 82.262636,8.09059"
       inkscape:connector-curvature="0"
       id="path3082"
       style="fill:url(#linearGradient5027-9);fill-opacity:1;fill-rule:nonzero;stroke:none;stroke-width:1.17112184" />
    <path
       d="m 85.642146,13.468545 c 0.28415,-0.527114 0.414488,-0.846195 0.235974,-1.155265 -0.193968,-0.333945 -1.234196,-1.963751 -1.234196,-1.963751 0,0 -1.017369,-1.6437472 -1.234195,-1.9633213 -0.200756,-0.2948814 -0.546672,-0.31816 -1.147708,-0.2953738 -0.282902,0.5263785 -0.413856,0.8460132 -0.234726,1.1545297 0.193336,0.3340084 1.234195,1.9638114 1.234195,1.9638114 0,0 1.01737,1.643933 1.23418,1.963751 0.200756,0.294391 0.546672,0.317915 1.146476,0.295619"
       inkscape:connector-curvature="0"
       id="path3084"
       style="fill:url(#linearGradient5029-2);fill-opacity:1;fill-rule:nonzero;stroke:none;stroke-width:1.17112184" />
    <path
       d="M 78.216011,13.568109 81.193994,8.121546"
       inkscape:connector-curvature="0"
       id="path3086"
       style="fill:url(#linearGradient5031-5);fill-opacity:1;fill-rule:nonzero;stroke:none;stroke-width:1.17112184" />
    <path
       d="M 78.216011,13.568109 81.193994,8.121546"
       inkscape:connector-curvature="0"
       id="path3088"
       style="fill:url(#linearGradient5033-7);fill-opacity:1;fill-rule:nonzero;stroke:none;stroke-width:1.17112184" />
    <path
       d="m 78.215396,13.568109 c 0.587444,-0.01321 0.924095,-0.05638 1.10261,-0.355567 0.192106,-0.325099 1.087173,-1.988993 1.087173,-1.988993 0,0 0.917923,-1.6518556 1.087787,-1.9889956 0.155673,-0.3118932 0.0081,-0.61562 -0.299586,-1.1132536 -0.586198,0.013698 -0.922865,0.056391 -1.100764,0.3558121 -0.192721,0.3248561 -1.087787,1.9889931 -1.087787,1.9889931 0,0 -0.917924,1.651671 -1.087173,1.989487 -0.156323,0.311158 -0.0096,0.615376 0.29774,1.112517"
       inkscape:connector-curvature="0"
       id="path3090"
       style="fill:url(#linearGradient5035-9);fill-opacity:1;fill-rule:nonzero;stroke:none;stroke-width:1.17112184" />
    <path
       d="m 80.607797,7.2244941 v 0"
       inkscape:connector-curvature="0"
       id="path3092"
       style="fill:url(#linearGradient5037-7);fill-opacity:1;fill-rule:nonzero;stroke:none;stroke-width:1.17112184" />
    <path
       d="M 77.711959,0.92405611 81.092701,6.3031788"
       inkscape:connector-curvature="0"
       id="path3094"
       style="fill:url(#linearGradient5039-0);fill-opacity:1;fill-rule:nonzero;stroke:none;stroke-width:1.17112184" />
    <path
       d="M 77.711959,0.92405611 81.092701,6.3031788"
       inkscape:connector-curvature="0"
       id="path3096"
       style="fill:url(#linearGradient5041-5);fill-opacity:1;fill-rule:nonzero;stroke:none;stroke-width:1.17112184" />
    <path
       d="M 77.712575,0.92381108 C 77.429042,1.4506796 77.297472,1.7700064 77.476602,2.0790152 c 0.193968,0.3342535 1.234196,1.9645501 1.234196,1.9645501 0,0 1.017369,1.6441756 1.234195,1.9639947 0.201372,0.2951276 0.547287,0.3179138 1.148324,0.2953738 0.282902,-0.5266247 0.413871,-0.8460121 0.234725,-1.1547759 -0.193335,-0.3340061 -1.234179,-1.9642421 -1.234179,-1.9642421 0,0 -1.017386,-1.6447297 -1.234196,-1.9640553 C 78.658911,0.92424046 78.31238,0.90145316 77.712575,0.92381108"
       inkscape:connector-curvature="0"
       id="path3098"
       style="fill:url(#linearGradient5043-8);fill-opacity:1;fill-rule:nonzero;stroke:none;stroke-width:1.17112184" />
    <path
       d="M 15.274056,-5.9215537 C 10.484862,-0.55680111 7.7099843,5.8614401 7.0599607,13.006231 c -0.6350698,6.983008 0.4926804,16.017412 5.5506973,21.317364 9.312995,9.759196 26.618075,-1.095259 34.781336,-6.993389 1.619266,-1.169638 2.741282,-3.014662 4.350488,-4.177052 -8.613192,6.223168 -24.920114,16.337231 -34.78153,6.993326 -5.109158,-4.840524 -5.854723,-13.848025 -5.609631,-20.397034 0.277541,-7.4136903 3.35617,-14.3403147 8.27327,-19.848052 -1.331471,1.4911167 -3.014496,2.6804096 -4.350535,4.1770523"
       inkscape:connector-curvature="0"
       id="path3108"
       style="fill:#ffffff;fill-opacity:1;fill-rule:nonzero;stroke:none;stroke-width:1.17112184" />
    <path
       d="m 88.250936,6.4647855 -6.337879,0.055562 z"
       inkscape:connector-curvature="0"
       id="path32"
       style="fill:url(#linearGradient5045-2);fill-opacity:1;fill-rule:evenodd;stroke:none;stroke-width:1.17112184" />
    <path
       sodipodi:nodetypes="sssssssss"
       inkscape:connector-curvature="0"
       style="color:#000000;display:inline;overflow:visible;visibility:visible;fill:none;stroke:#000000;stroke-width:2.29036617;stroke-opacity:0.7758007;marker:none;enable-background:accumulate"
       d="M 8.7250983,-27.319758 H 87.741637 c 2.575009,0 4.648031,1.891243 4.648031,4.240454 V 42.64773 c 0,2.349214 -2.073022,4.240456 -4.648031,4.240456 H 8.7250983 c -2.5750091,0 -4.6480313,-1.891242 -4.6480313,-4.240456 v -65.727034 c 0,-2.349211 2.0730222,-4.240454 4.6480313,-4.240454 z"
       id="path4989" />
    <path
       style="display:inline;opacity:0.72794118;fill:url(#linearGradient5698);fill-opacity:1;fill-rule:nonzero;stroke:none;stroke-width:1.00420141"
       d="M 89.014282,-31.849999 H 6.9857273 c -3.786988,0 -6.83572207,3.048728 -6.83572207,6.835713 V 57.01429 c 0,3.786985 3.04873407,6.83571 6.83572207,6.83571 H 89.014282 c 3.786988,0 6.835712,-3.048725 6.835712,-6.83571 v -82.028576 c 0,-3.786985 -3.048724,-6.835713 -6.835712,-6.835713 z"
       id="path5696"
       inkscape:connector-curvature="0" />
    <path
       inkscape:connector-curvature="0"
       id="path4974"
       d="M 35.963,-28.223527 C 44.292396,-2.039488 52.947707,23.527741 61.728978,47.73 h 26.583944 c 2.636535,0 4.759079,-1.935729 4.759079,-4.340201 v -67.273122 c 0,-2.404474 -2.122544,-4.340204 -4.759079,-4.340204 z"
       style="color:#000000;display:inline;overflow:visible;visibility:visible;opacity:0.30882353;fill:url(#linearGradient7786);fill-opacity:1;fill-rule:nonzero;stroke:none;stroke-width:2.00840282;marker:none;enable-background:accumulate" />
  </g>
</svg>
