<?xml version="1.0" encoding="UTF-8" standalone="no"?>
<!-- Created with Inkscape (http://www.inkscape.org/) -->

<svg
   xmlns:dc="http://purl.org/dc/elements/1.1/"
   xmlns:cc="http://creativecommons.org/ns#"
   xmlns:rdf="http://www.w3.org/1999/02/22-rdf-syntax-ns#"
   xmlns:svg="http://www.w3.org/2000/svg"
   xmlns="http://www.w3.org/2000/svg"
   xmlns:xlink="http://www.w3.org/1999/xlink"
   xmlns:sodipodi="http://sodipodi.sourceforge.net/DTD/sodipodi-0.dtd"
   xmlns:inkscape="http://www.inkscape.org/namespaces/inkscape"
   width="96"
   height="96"
   id="svg2"
   version="1.1"
   inkscape:version="0.92.1 r15371"
   sodipodi:docname="desktop-environment-lxde.svg">
  <title
     id="title4592">Lila-HD-Icon-Theme</title>
  <script
     xlink:href=""
     id="script2985" />
  <defs
     id="defs4">
    <linearGradient
       gradientTransform="matrix(1.0034441,0,0,1.0049592,27.671123,8.0186962)"
       y2="0.27861649"
       x2="59.378193"
       y1="0.27861649"
       x1="2.4652066"
       gradientUnits="userSpaceOnUse"
       id="linearGradient12593"
       xlink:href="#linearGradient3888-8-4-8-4-6-9-0-8-7-9-5"
       inkscape:collect="always" />
    <linearGradient
       inkscape:collect="always"
       id="linearGradient3888-8-4-8-4-6-9-0-8-7-9-5">
      <stop
         style="stop-color:#ffffff;stop-opacity:1;"
         offset="0"
         id="stop3890-4-7-9-5-7-0-8-8-8-6-8" />
      <stop
         style="stop-color:#ffffff;stop-opacity:0;"
         offset="1"
         id="stop3892-5-8-2-8-3-3-3-06-4-4-7" />
    </linearGradient>
    <linearGradient
       inkscape:collect="always"
       xlink:href="#linearGradient5700-9"
       id="linearGradient15651"
       gradientUnits="userSpaceOnUse"
       gradientTransform="matrix(1.1392856,0,0,1.1392855,-12.503892,-39.000975)"
       x1="6"
       y1="47.000011"
       x2="90"
       y2="47.000011" />
    <linearGradient
       id="linearGradient5700-9">
      <stop
         id="stop5702-6"
         offset="0"
         style="stop-color:#ffffff;stop-opacity:0;" />
      <stop
         style="stop-color:#ffffff;stop-opacity:0.85135138;"
         offset="0.03681535"
         id="stop5704-6" />
      <stop
         id="stop5706-4"
         offset="0.06506088"
         style="stop-color:#ffffff;stop-opacity:0;" />
      <stop
         style="stop-color:#ffffff;stop-opacity:0;"
         offset="0.94493848"
         id="stop5712-0" />
      <stop
         style="stop-color:#ffffff;stop-opacity:0.85135138;"
         offset="0.96582276"
         id="stop5710-1" />
      <stop
         id="stop5708-7"
         offset="1"
         style="stop-color:#ffffff;stop-opacity:0;" />
    </linearGradient>
    <radialGradient
       inkscape:collect="always"
       xlink:href="#linearGradient15653"
       id="radialGradient15661"
       cx="14.693458"
       cy="0.38067999"
       fx="14.693458"
       fy="0.38067999"
       r="45.056355"
       gradientTransform="matrix(1.0034441,0,0,0.8428725,27.671123,8.0803992)"
       gradientUnits="userSpaceOnUse" />
    <linearGradient
       id="linearGradient15653">
      <stop
         style="stop-color:#22a7dc;stop-opacity:1;"
         offset="0"
         id="stop15655" />
      <stop
         style="stop-color:#1d73bb;stop-opacity:1;"
         offset="1"
         id="stop15657" />
    </linearGradient>
    <radialGradient
       inkscape:collect="always"
       xlink:href="#linearGradient3888-8-4-8-6-7"
       id="radialGradient3114"
       gradientUnits="userSpaceOnUse"
       gradientTransform="matrix(0,1.6209438,-2.0382846,0,160.66427,-243.03657)"
       cx="158"
       cy="6.2131939"
       fx="158"
       fy="6.2131939"
       r="41" />
    <linearGradient
       inkscape:collect="always"
       id="linearGradient3888-8-4-8-6-7">
      <stop
         style="stop-color:#ffffff;stop-opacity:1;"
         offset="0"
         id="stop3890-4-7-9-7-0" />
      <stop
         style="stop-color:#ffffff;stop-opacity:0;"
         offset="1"
         id="stop3892-5-8-2-7-0" />
    </linearGradient>
    <radialGradient
       inkscape:collect="always"
       xlink:href="#linearGradient4091-0-3-0-7-0"
       id="radialGradient3118"
       gradientUnits="userSpaceOnUse"
       gradientTransform="matrix(-1.0721726,0,0,-0.87502024,199.46429,-19.125546)"
       cx="48"
       cy="-27"
       fx="48"
       fy="-27"
       r="42" />
    <linearGradient
       id="linearGradient4091-0-3-0-7-0">
      <stop
         style="stop-color:#ffffff;stop-opacity:1;"
         offset="0"
         id="stop4093-3-6-4-2-5" />
      <stop
         id="stop4099-6-1-8-3-2"
         offset="0.80000001"
         style="stop-color:#ffffff;stop-opacity:1;" />
      <stop
         style="stop-color:#ffffff;stop-opacity:0;"
         offset="1"
         id="stop4095-1-0-7-9-7" />
    </linearGradient>
    <linearGradient
       inkscape:collect="always"
       xlink:href="#linearGradient3832-0-6-1-1-0"
       id="linearGradient3120"
       gradientUnits="userSpaceOnUse"
       gradientTransform="matrix(1,0,0,0.88905855,200,8.9431737)"
       x1="-94"
       y1="82.984398"
       x2="-10.187523"
       y2="82.984398" />
    <linearGradient
       id="linearGradient3832-0-6-1-1-0">
      <stop
         style="stop-color:#000000;stop-opacity:1;"
         offset="0"
         id="stop3834-6-3-7-1-2" />
      <stop
         id="stop3872-2-4-7"
         offset="0.1"
         style="stop-color:#000000;stop-opacity:0.58823532;" />
      <stop
         style="stop-color:#000000;stop-opacity:0.58823532;"
         offset="0.89999998"
         id="stop3844-6-2-7-6-3" />
      <stop
         style="stop-color:#000000;stop-opacity:1;"
         offset="1"
         id="stop3836-5-0-2-9-1" />
    </linearGradient>
    <linearGradient
       gradientTransform="matrix(1.1353753,0,0,1.1336634,-40.037124,-46.787637)"
       y2="47.000011"
       x2="90"
       y1="47.000011"
       x1="6"
       gradientUnits="userSpaceOnUse"
       id="linearGradient5021-2"
       xlink:href="#linearGradient6139-0-0"
       inkscape:collect="always" />
    <linearGradient
       id="linearGradient6139-0-0">
      <stop
         id="stop6141-2-9"
         offset="0"
         style="stop-color:#b7b7b7;stop-opacity:1;" />
      <stop
         style="stop-color:#ffffff;stop-opacity:1;"
         offset="0.25"
         id="stop6151-0-8" />
      <stop
         style="stop-color:#9d9d9d;stop-opacity:1;"
         offset="0.5"
         id="stop6147-1-4" />
      <stop
         id="stop6149-4-9"
         offset="0.75"
         style="stop-color:#fafafa;stop-opacity:1;" />
      <stop
         id="stop6143-4-8"
         offset="1"
         style="stop-color:#b7b7b7;stop-opacity:1;" />
    </linearGradient>
    <linearGradient
       y2="47.000011"
       x2="90"
       y1="47.000011"
       x1="6"
       gradientTransform="matrix(1.1392856,0,0,1.1392855,-12.503893,-39.00097)"
       gradientUnits="userSpaceOnUse"
       id="linearGradient15739"
       xlink:href="#linearGradient6139-0-0"
       inkscape:collect="always" />
    <linearGradient
       inkscape:collect="always"
       xlink:href="#linearGradient6139-0-0"
       id="linearGradient15935"
       gradientUnits="userSpaceOnUse"
       gradientTransform="matrix(1.1392856,0,0,1.1392855,-12.503893,-39.00097)"
       x1="6"
       y1="47.000011"
       x2="90"
       y2="47.000011" />
    <radialGradient
       inkscape:collect="always"
       xlink:href="#linearGradient3888-8-4-8-6-7"
       id="radialGradient15937"
       gradientUnits="userSpaceOnUse"
       gradientTransform="matrix(0,1.8467178,-2.3221883,0,56.610039,-315.31937)"
       cx="158"
       cy="6.2131939"
       fx="158"
       fy="6.2131939"
       r="41" />
    <radialGradient
       inkscape:collect="always"
       xlink:href="#linearGradient4091-0-3-0-7-0"
       id="radialGradient15939"
       gradientUnits="userSpaceOnUse"
       gradientTransform="matrix(-1.2215108,0,0,-0.99689787,100.81434,-60.220791)"
       cx="48"
       cy="-27"
       fx="48"
       fy="-27"
       r="42" />
    <linearGradient
       inkscape:collect="always"
       xlink:href="#linearGradient3832-0-6-1-1-0"
       id="linearGradient15941"
       gradientUnits="userSpaceOnUse"
       gradientTransform="matrix(1.1392856,0,0,1.0128915,101.42467,-28.242506)"
       x1="-94"
       y1="82.984398"
       x2="-10.187523"
       y2="82.984398" />
    <radialGradient
       inkscape:collect="always"
       xlink:href="#linearGradient15653"
       id="radialGradient15943"
       gradientUnits="userSpaceOnUse"
       gradientTransform="matrix(1.0034441,0,0,0.8428725,27.671123,8.0803992)"
       cx="14.693458"
       cy="0.38067999"
       fx="14.693458"
       fy="0.38067999"
       r="45.056355" />
    <linearGradient
       inkscape:collect="always"
       xlink:href="#linearGradient5700-9"
       id="linearGradient15945"
       gradientUnits="userSpaceOnUse"
       gradientTransform="matrix(1.1392856,0,0,1.1392855,-12.503892,-39.000975)"
       x1="6"
       y1="47.000011"
       x2="90"
       y2="47.000011" />
    <linearGradient
       inkscape:collect="always"
       xlink:href="#linearGradient3888-8-4-8-4-6-9-0-8-7-9-5"
       id="linearGradient15947"
       gradientUnits="userSpaceOnUse"
       gradientTransform="matrix(1.0034441,0,0,1.0049592,27.671123,8.0186962)"
       x1="2.4652066"
       y1="0.27861649"
       x2="59.378193"
       y2="0.27861649" />
    <linearGradient
       id="linearGradient3312">
      <stop
         style="stop-color:#c7f994;stop-opacity:1;"
         offset="0"
         id="stop3314" />
      <stop
         style="stop-color:#87cf3e;stop-opacity:1;"
         offset="1"
         id="stop3316" />
    </linearGradient>
    <linearGradient
       id="linearGradient3431">
      <stop
         id="stop3433"
         offset="0"
         style="stop-color:#3d3d3d;stop-opacity:1;" />
      <stop
         id="stop3435"
         offset="1"
         style="stop-color:#000000;stop-opacity:0.11400651;" />
    </linearGradient>
    <inkscape:perspective
       id="perspective2955"
       inkscape:persp3d-origin="0.5 : 0.33333333 : 1"
       inkscape:vp_z="1 : 0.5 : 1"
       inkscape:vp_y="0 : 1000 : 0"
       inkscape:vp_x="0 : 0.5 : 1"
       sodipodi:type="inkscape:persp3d" />
    <inkscape:perspective
       sodipodi:type="inkscape:persp3d"
       inkscape:vp_x="0 : 526.18109 : 1"
       inkscape:vp_y="0 : 1000 : 0"
       inkscape:vp_z="744.09448 : 526.18109 : 1"
       inkscape:persp3d-origin="372.04724 : 350.78739 : 1"
       id="perspective2988" />
    <linearGradient
       gradientUnits="userSpaceOnUse"
       y2="8.5"
       x2="30.513618"
       y1="39.392342"
       x1="30.513618"
       id="linearGradient4656"
       xlink:href="#linearGradient4658"
       inkscape:collect="always" />
    <linearGradient
       gradientUnits="userSpaceOnUse"
       y2="-499.80991"
       x2="408.72192"
       y1="-547.79987"
       x1="408.72192"
       id="linearGradient4612"
       xlink:href="#linearGradient4606"
       inkscape:collect="always" />
    <linearGradient
       id="linearGradient4606"
       inkscape:collect="always">
      <stop
         id="stop4608"
         offset="0"
         style="stop-color:#2374c3;stop-opacity:0.99901962" />
      <stop
         id="stop4610"
         offset="1"
         style="stop-color:#1b90e3;stop-opacity:0.99803919" />
    </linearGradient>
    <linearGradient
       inkscape:collect="always"
       id="linearGradient4658">
      <stop
         style="stop-color:#c4dcf4;stop-opacity:1"
         offset="0"
         id="stop4660" />
      <stop
         style="stop-color:#f6fbfe;stop-opacity:0.99607843"
         offset="1"
         id="stop4662" />
    </linearGradient>
    <linearGradient
       gradientUnits="userSpaceOnUse"
       y2="8.5"
       x2="30.513618"
       y1="39.392342"
       x1="30.513618"
       id="linearGradient4656-6"
       xlink:href="#linearGradient4658-6"
       inkscape:collect="always"
       gradientTransform="matrix(2.1874855,0,0,2.1874855,-10.317803,-43.266222)" />
    <linearGradient
       inkscape:collect="always"
       id="linearGradient4658-6">
      <stop
         style="stop-color:#c4dcf4;stop-opacity:1"
         offset="0"
         id="stop4660-7" />
      <stop
         style="stop-color:#f6fbfe;stop-opacity:0.99607843"
         offset="1"
         id="stop4662-6" />
    </linearGradient>
  </defs>
  <sodipodi:namedview
     id="base"
     pagecolor="#ffffff"
     bordercolor="#666666"
     borderopacity="1.0"
     inkscape:pageopacity="0.0"
     inkscape:pageshadow="2"
     inkscape:zoom="3.2686992"
     inkscape:cx="37.272727"
     inkscape:cy="49.964557"
     inkscape:current-layer="g15905"
     showgrid="true"
     inkscape:document-units="px"
     inkscape:grid-bbox="true"
     inkscape:showpageshadow="false"
     gridtolerance="1"
     guidetolerance="1"
     objecttolerance="1"
     inkscape:window-width="1920"
     inkscape:window-height="994"
     inkscape:window-x="0"
     inkscape:window-y="21"
     inkscape:window-maximized="1" />
  <metadata
     id="metadata7">
    <rdf:RDF>
      <cc:Work
         rdf:about="">
        <dc:format>image/svg+xml</dc:format>
        <dc:type
           rdf:resource="http://purl.org/dc/dcmitype/StillImage" />
        <dc:title>Lila-HD-Icon-Theme</dc:title>
        <dc:date>2015-2019</dc:date>
        <dc:creator>
          <cc:Agent>
            <dc:title>Cristian Pozzessere  == ilnanny ==</dc:title>
          </cc:Agent>
        </dc:creator>
        <dc:subject>
          <rdf:Bag>
            <rdf:li>ilnanny</rdf:li>
            <rdf:li>lila_hd</rdf:li>
            <rdf:li>lila-hd</rdf:li>
            <rdf:li>lila hd icon theme</rdf:li>
            <rdf:li>Lila-HD-Icon-Theme lila hd icon lila icon</rdf:li>
          </rdf:Bag>
        </dc:subject>
        <dc:coverage>CC-BY-SA</dc:coverage>
        <dc:description>Playing with Inkscape on Gnu/Linux O. S.</dc:description>
        <dc:contributor>
          <cc:Agent>
            <dc:title>In the night, alone like a dog.</dc:title>
          </cc:Agent>
        </dc:contributor>
        <cc:license
           rdf:resource="http://creativecommons.org/licenses/by-sa/4.0/" />
      </cc:Work>
      <cc:License
         rdf:about="http://creativecommons.org/licenses/by-sa/4.0/">
        <cc:permits
           rdf:resource="http://creativecommons.org/ns#Reproduction" />
        <cc:permits
           rdf:resource="http://creativecommons.org/ns#Distribution" />
        <cc:requires
           rdf:resource="http://creativecommons.org/ns#Notice" />
        <cc:requires
           rdf:resource="http://creativecommons.org/ns#Attribution" />
        <cc:permits
           rdf:resource="http://creativecommons.org/ns#DerivativeWorks" />
        <cc:requires
           rdf:resource="http://creativecommons.org/ns#ShareAlike" />
      </cc:License>
    </rdf:RDF>
  </metadata>
  <g
     id="layer1"
     inkscape:label="Layer 1"
     inkscape:groupmode="layer"
     transform="translate(0,32)">
    <g
       id="g15905"
       transform="translate(5.8181819,1.4545456)">
      <path
         inkscape:connector-curvature="0"
         id="rect4251-1"
         d="m 83.196101,-33.304543 -82.0285655,0 c -3.786986,0 -6.8357141,3.048728 -6.8357141,6.835712 l 0,82.028577 c 0,3.786985 3.0487281,6.835712 6.8357141,6.835712 l 82.0285655,0 c 3.786986,0 6.835714,-3.048727 6.835714,-6.835712 l 0,-82.028577 c 0,-3.786984 -3.048728,-6.835712 -6.835714,-6.835712 z"
         style="fill:url(#linearGradient15935);fill-opacity:1;fill-rule:nonzero;stroke:none;display:inline" />
      <path
         sodipodi:nodetypes="sscccsccscccsss"
         inkscape:connector-curvature="0"
         id="path3400-6"
         d="m 1.1675372,-32.165264 c -3.1755308,0 -5.696428,2.5209 -5.696428,5.696428 V -2.8642648 5.1107337 49.080033 c 1.2197875,1.855645 3.3004306,3.097433 5.696428,3.097433 H 5.7246796 78.638958 83.1961 c 2.395998,0 4.476641,-1.241788 5.696428,-3.097433 V 5.1107337 -2.8642648 -26.468836 c 0,-3.175528 -2.520897,-5.696428 -5.696428,-5.696428 z"
         style="display:inline;opacity:0.2;fill:url(#radialGradient15937);fill-opacity:1;fill-rule:nonzero;stroke:none;stroke-width:1.13928556" />
      <path
         inkscape:connector-curvature="0"
         id="path4236-5"
         d="m 1.1675372,-33.304549 c -3.7869853,0 -6.8357136,3.048727 -6.8357136,6.835713 v 17.0892822 h 1.1392856 V -26.468836 c 0,-3.175528 2.5208972,-5.696428 5.696428,-5.696428 H 83.1961 c 3.175531,0 5.696428,2.5209 5.696428,5.696428 v 17.0892822 h 1.139286 V -26.468836 c 0,-3.786986 -3.048728,-6.835713 -6.835714,-6.835713 z"
         style="display:inline;opacity:0.45;fill:url(#radialGradient15939);fill-opacity:1;fill-rule:nonzero;stroke:none;stroke-width:1.13928556" />
      <path
         style="opacity:0.46964859;fill:url(#linearGradient15941);fill-opacity:1;fill-rule:nonzero;stroke:none;stroke-width:1.13928556"
         d="m -5.6681764,49.227843 v 1.012891 1.012892 1.012892 2.025783 2.025783 c 0,3.366851 3.0487283,6.077349 6.8357136,6.077349 H 83.1961 c 3.786986,0 6.835714,-2.710498 6.835714,-6.077349 v -2.025783 -2.025783 -1.012892 -1.012892 -1.012891 c 0,3.366851 -3.048728,6.077349 -6.835714,6.077349 H 1.1675372 c -3.7869853,0 -6.8357136,-2.710498 -6.8357136,-6.077349 z"
         id="path4242-5"
         inkscape:connector-curvature="0" />
      <ellipse
         cy="51.254318"
         cx="23.897661"
         style="opacity:0.71000001;fill:#1c1c1c;fill-opacity:1;fill-rule:nonzero;stroke:none;stroke-width:1.17681837"
         id="path4002"
         rx="3.4435704"
         ry="3.1328778" />
      <ellipse
         cy="51.046909"
         cx="23.897665"
         id="path3854"
         style="fill:#ffffff;fill-opacity:1;fill-rule:nonzero;stroke:none;stroke-width:0.99326897"
         rx="2.8653159"
         ry="2.6822226" />
      <ellipse
         cy="51.046909"
         cx="23.897657"
         style="fill:#114751;fill-opacity:1;fill-rule:nonzero;stroke:none;stroke-width:0.67326295"
         id="path3856"
         rx="1.9421839"
         ry="1.8180788" />
      <ellipse
         cy="51.254318"
         cx="58.014755"
         id="path4170"
         style="opacity:0.71000001;fill:#1c1c1c;fill-opacity:1;fill-rule:nonzero;stroke:none;stroke-width:1.17681837"
         rx="3.4435704"
         ry="3.1328778" />
      <ellipse
         cy="51.046909"
         cx="58.014763"
         style="fill:#ffffff;fill-opacity:1;fill-rule:nonzero;stroke:none;stroke-width:0.99326897"
         id="path4172"
         rx="2.8653159"
         ry="2.6822226" />
      <ellipse
         cy="51.046909"
         cx="58.014755"
         id="path4174"
         style="fill:#114751;fill-opacity:1;fill-rule:nonzero;stroke:none;stroke-width:0.67326295"
         rx="1.9421839"
         ry="1.8180788" />
      <rect
         style="opacity:0.75097273;fill:#0c2f31;fill-opacity:0.90454544;stroke:#ffffff;stroke-width:0.50200003;stroke-miterlimit:4;stroke-dasharray:none;stroke-opacity:1"
         id="rect4176"
         width="12.717808"
         height="3.252003"
         x="34.838619"
         y="50.203056"
         rx="1.1521"
         ry="1.1538397" />
      <path
         inkscape:connector-curvature="0"
         id="path4972"
         d="m 1.9627609,24.677018 c -1.88510522,0 -3.649478,0.91815 -4.7591076,2.271826 l 0,15.088982 c 0,2.404471 2.12256228,4.340201 4.7591076,4.340201 l 80.9048521,0 c 2.636547,0 4.759108,-1.93573 4.759108,-4.340201 l 0,-15.088982 C 86.517093,25.595168 84.75272,24.677018 82.867613,24.677018 l -80.9048521,0 z m 0,3.255152 80.9048521,0 c 1.359429,0 2.379555,0.930333 2.379555,2.170101 l 0,11.935555 c 0,1.239769 -1.020126,2.170101 -2.379555,2.170101 l -80.9048521,0 c -1.35942692,0 -2.37955332,-0.930332 -2.37955332,-2.170101 l 0,-11.935555 c 0,-1.239768 1.0201264,-2.170101 2.37955332,-2.170101 z"
         style="font-size:medium;font-style:normal;font-variant:normal;font-weight:normal;font-stretch:normal;text-indent:0;text-align:start;text-decoration:none;line-height:normal;letter-spacing:normal;word-spacing:normal;text-transform:none;direction:ltr;block-progression:tb;writing-mode:lr-tb;text-anchor:start;baseline-shift:baseline;opacity:0.02000002;color:#000000;fill:#000000;fill-opacity:1;fill-rule:nonzero;stroke:none;stroke-width:6;marker:none;visibility:visible;display:inline;overflow:visible;enable-background:accumulate;font-family:Sans;-inkscape-font-specification:Sans" />
      <path
         id="path4970"
         d="m 1.9627609,-29.575499 80.9048521,0 c 2.636547,0 4.759108,1.935729 4.759108,4.340203 l 0,67.273122 c 0,2.404471 -2.122561,4.340201 -4.759108,4.340201 l -80.9048521,0 c -2.63654532,0 -4.7591076,-1.93573 -4.7591076,-4.340201 l 0,-67.273122 c 0,-2.404474 2.12256228,-4.340203 4.7591076,-4.340203 z"
         style="opacity:0.7311478;color:#000000;fill:url(#radialGradient15943);fill-opacity:1;fill-rule:nonzero;stroke:none;stroke-width:2;marker:none;visibility:visible;display:inline;overflow:visible;enable-background:accumulate"
         inkscape:connector-curvature="0"
         sodipodi:nodetypes="sssssssss" />
      <path
         inkscape:connector-curvature="0"
         style="color:#000000;display:inline;overflow:visible;visibility:visible;fill:#000000;fill-opacity:0.05882353;fill-rule:evenodd;stroke:none;stroke-width:3.10037327;marker:none;enable-background:accumulate"
         d="m 42.181849,-21.830614 c -18.160592,0 -32.9229476,14.3823233 -33.6197711,32.372226 C 19.728929,2.6610204 38.723041,-10.269863 43.433681,-10.61122 c 1.563112,-1.979937 6.935642,-3.580673 7.908263,-3.546111 l -2.8198,3.546111 c 0,0 -0.04703,3.5776765 -1.089477,4.2724438 9.728798,6.50168813 14.376811,29.8397962 16.36342,44.0060612 l -0.837392,0.670771 c 7.849202,-6.167594 12.911284,-15.723777 12.911284,-26.48054 0,-18.6049801 -15.083172,-33.68813 -33.68813,-33.68813 z M 41.703336,5.8461961 c -2.617042,0.078093 -7.935191,7.8989449 -14.00076,16.2737109 -2.914781,4.024426 -6.692437,9.531531 -9.467722,13.347074 l -1.999493,-2.18322 c 5.706713,-9.344479 12.810506,-20.745719 12.466962,-21.165628 -0.0735,-0.035 -0.169312,-0.105 -0.273436,-0.08969 -1.933037,0.292926 -9.692836,9.963427 -15.24404,16.914578 5.861215,9.923878 16.636856,16.602665 28.997002,16.602665 7.503053,0 14.40877,-2.483146 20.007792,-6.630815 C 58.043044,26.243011 50.034178,5.983614 41.976772,5.9359705 41.89846,5.9206581 41.787773,5.8462836 41.703336,5.8462836 Z M 22.15695,9.1188932 c -2.393634,-0.0175 -8.512468,2.1465138 -13.5948721,4.1058008 0.2021237,5.022642 1.4899401,9.757279 3.6571911,13.979389 1.021928,-1.543862 2.789285,-4.079355 3.845206,-5.631047 C 20.103098,15.638016 24.075638,10.3856 23.156697,9.3025982 22.992635,9.1216932 22.627916,9.1210369 22.15695,9.1188494 Z M 8.5236219,11.246551 c -0.00437,0.205405 -0.029969,0.404685 -0.029969,0.610965 0,0.282776 0.035875,0.556299 0.042656,0.837391 l -0.013125,-1.448356 z m 3.7597411,16.09425 c 0.210873,0.406106 0.43135,0.804338 0.657952,1.200557 z"
         id="path4670" />
      <path
         id="path4668"
         d="m 42.181849,-22.705608 c -18.160592,0 -32.9229476,14.3823231 -33.6197711,32.3722257 C 19.728929,1.7860262 38.723041,-11.144857 43.433681,-11.486214 c 1.563112,-1.979937 6.935642,-3.580673 7.908263,-3.546111 l -2.8198,3.546111 c 0,0 -0.04703,3.5776763 -1.089477,4.2724436 9.728798,6.50168813 14.376811,29.8397964 16.36342,44.0060614 l -0.837392,0.670771 c 7.849202,-6.167594 12.911284,-15.723777 12.911284,-26.480541 0,-18.6049793 -15.083172,-33.688129 -33.68813,-33.688129 z M 41.703336,4.9712019 c -2.617042,0.078093 -7.935191,7.8989441 -14.00076,16.2737111 -2.914781,4.024426 -6.692437,9.53153 -9.467722,13.347074 l -1.999493,-2.18322 c 5.706713,-9.344479 12.810506,-20.745719 12.466962,-21.165629 -0.0735,-0.035 -0.169312,-0.104999 -0.273436,-0.08969 -1.933037,0.292926 -9.692836,9.963427 -15.24404,16.914578 5.861215,9.923878 16.636856,16.602665 28.997002,16.602665 7.503053,0 14.40877,-2.483146 20.007792,-6.630815 C 58.043044,25.368017 50.034178,5.1086198 41.976772,5.0609763 41.89846,5.0456639 41.787773,4.9712894 41.703336,4.9712894 Z M 22.15695,8.243899 c -2.393634,-0.0175 -8.512468,2.146514 -13.5948721,4.105801 0.2021237,5.022642 1.4899401,9.757279 3.6571911,13.979388 1.021928,-1.543861 2.789285,-4.079354 3.845206,-5.631047 C 20.103098,14.763021 24.075638,9.5106062 23.156697,8.427604 22.992635,8.246699 22.627916,8.2460427 22.15695,8.2438552 Z M 8.5236219,10.371557 c -0.00437,0.205405 -0.029969,0.404685 -0.029969,0.610964 0,0.282777 0.035875,0.5563 0.042656,0.837392 l -0.013125,-1.448356 z m 3.7597411,16.094249 c 0.210873,0.406107 0.43135,0.804339 0.657952,1.200558 z"
         style="color:#000000;display:inline;overflow:visible;visibility:visible;fill:#000000;fill-opacity:0.11764706;fill-rule:evenodd;stroke:none;stroke-width:3.10037327;marker:none;enable-background:accumulate"
         inkscape:connector-curvature="0" />
      <path
         inkscape:connector-curvature="0"
         style="color:#000000;display:inline;overflow:visible;visibility:visible;fill:#000000;fill-opacity:0.23529412;fill-rule:evenodd;stroke:none;stroke-width:3.10037327;marker:none;enable-background:accumulate"
         d="m 42.181849,-23.580603 c -18.160592,0 -32.9229476,14.3823239 -33.6197711,32.3722265 C 19.728929,0.91103197 38.723041,-12.019851 43.433681,-12.361208 c 1.563112,-1.979937 6.935642,-3.580673 7.908263,-3.546111 l -2.8198,3.546111 c 0,0 -0.04703,3.5776761 -1.089477,4.2724434 9.728798,6.5016881 14.376811,29.8397956 16.36342,44.0060616 l -0.837392,0.67077 c 7.849202,-6.167593 12.911284,-15.723777 12.911284,-26.48054 0,-18.6049795 -15.083172,-33.68813 -33.68813,-33.68813 z M 41.703336,4.0962077 c -2.617042,0.078093 -7.935191,7.8989443 -14.00076,16.2737113 -2.914781,4.024426 -6.692437,9.53153 -9.467722,13.347074 l -1.999493,-2.18322 c 5.706713,-9.344479 12.810506,-20.745719 12.466962,-21.165629 -0.0735,-0.035 -0.169312,-0.104999 -0.273436,-0.08969 -1.933037,0.292927 -9.692836,9.963428 -15.24404,16.914579 5.861215,9.923878 16.636856,16.602665 28.997002,16.602665 7.503053,0 14.40877,-2.483146 20.007792,-6.630816 C 58.043044,24.493023 50.034178,4.2336256 41.976772,4.1859821 41.89846,4.1706697 41.787773,4.0962952 41.703336,4.0962952 Z M 22.15695,7.3689048 c -2.393634,-0.0175 -8.512468,2.1465139 -13.5948721,4.1058012 0.2021237,5.022641 1.4899401,9.757279 3.6571911,13.979388 1.021928,-1.543861 2.789285,-4.079354 3.845206,-5.631047 C 20.103098,13.888027 24.075638,8.635612 23.156697,7.5526098 22.992635,7.3717048 22.627916,7.3710485 22.15695,7.368861 Z M 8.5236219,9.4965626 c -0.00437,0.2054048 -0.029969,0.4046848 -0.029969,0.6109644 0,0.282777 0.035875,0.5563 0.042656,0.837392 L 8.5231844,9.4965626 Z M 12.283363,25.590812 c 0.210873,0.406107 0.43135,0.804339 0.657952,1.200558 z"
         id="path4664" />
      <path
         id="path3910-7"
         d="m 42.181849,-24.454701 c -18.160594,0 -32.9229452,14.38232 -33.6197722,32.3722228 C 19.728931,0.0369369 38.723034,-12.893951 43.433673,-13.235292 c 1.563111,-1.979959 6.93565,-3.580682 7.908272,-3.54612 l -2.819805,3.54612 c 0,0 -0.0471,3.577665 -1.08947,4.2724323 9.728798,6.5016882 14.376806,29.8397897 16.363415,44.0060547 l -0.837396,0.670773 c 7.849212,-6.16758 12.911292,-15.723775 12.911292,-26.480538 0,-18.6049689 -15.083163,-33.688131 -33.688132,-33.688131 z M 41.703337,3.222117 c -2.617042,0.077984 -7.935194,7.898929 -14.000763,16.273696 -2.914781,4.024448 -6.692426,9.531537 -9.467711,13.34708 L 16.235366,30.65968 C 21.942078,21.315201 29.04587,9.9139589 28.702325,9.4940492 c -0.07354,-0.035 -0.169311,-0.105043 -0.273436,-0.089731 -1.933028,0.292924 -9.692846,9.9634168 -15.244039,16.9145618 5.861205,9.923893 16.636857,16.602673 28.996999,16.602673 7.503045,0 14.408759,-2.483135 20.007801,-6.630815 C 58.043048,23.618886 50.034178,3.3594824 41.976772,3.3118302 41.898395,3.2976115 41.787773,3.2220995 41.703337,3.2220995 Z m -19.54638,3.272684 c -2.393638,-0.0175 -8.512473,2.1465139 -13.5948802,4.105807 0.2021127,5.022651 1.4899372,9.757282 3.6572012,13.9794 1.021928,-1.543866 2.78927,-4.079363 3.845191,-5.631067 4.038623,-5.93502 8.011178,-11.1874241 7.092237,-12.2704263 -0.164105,-0.180905 -0.528783,-0.1815175 -0.999749,-0.183705 z M 8.5236247,8.6224719 c -0.0037,0.2054049 -0.029907,0.4046738 -0.029907,0.6109581 0,0.2827697 0.035796,0.5562951 0.042724,0.837396 z M 12.283365,24.716726 c 0.210764,0.406102 0.431348,0.804329 0.657954,1.200553 z"
         style="color:#000000;display:inline;overflow:visible;visibility:visible;fill:url(#linearGradient4656-6);fill-opacity:1;fill-rule:evenodd;stroke:none;stroke-width:3.10037327;marker:none;enable-background:accumulate"
         inkscape:connector-curvature="0" />
      <path
         id="path4672"
         d="m 51.341945,-18.533109 c -0.972622,-0.03456 -6.345161,1.566159 -7.908272,3.546118 C 38.743688,-14.647152 19.914507,-1.8393263 8.7287015,6.050468 8.6701447,6.6719129 8.5865106,7.2867407 8.5620764,7.9175218 19.728931,0.03693471 38.723034,-12.893951 43.433673,-13.235292 c 1.132537,-1.434562 4.23663,-2.649949 6.246294,-3.208597 z m -3.238505,8.352605 c -0.158571,0.5401713 -0.363569,1.0128869 -0.67077,1.2176443 9.387279,6.2734525 14.015576,28.1487867 16.115614,42.4081647 0.08192,-0.06748 0.15798,-0.141115 0.239256,-0.209343 C 61.844154,19.4013 57.355793,-3.0762903 48.10344,-10.180504 Z m 15.6841,43.41646 c 0.0024,0.01728 0.0061,0.03826 0.0085,0.05554 l -0.239257,0.192258 c 0.07153,0.486311 0.165046,1.032211 0.230712,1.499622 7.357964,-6.177973 12.082454,-15.390548 12.082454,-25.749946 0,-0.2193085 -0.03001,-0.4310987 -0.03419,-0.6494098 C 75.514994,18.495206 70.883643,27.278514 63.78753,33.235956 Z m 0,1.747425 c -0.282235,0.236976 -0.538893,0.502749 -0.828851,0.730587 l 0.837396,-0.670773 c -0.0026,-0.01859 -0.0059,-0.04121 -0.0085,-0.05981 z M 22.943085,6.588795 c -0.968842,2.2349233 -3.89799,6.228224 -6.878616,10.608449 -1.055921,1.551693 -2.823263,4.087205 -3.845191,5.631067 -1.92037,-3.741151 -3.1032192,-7.897748 -3.4991213,-12.287517 -0.05138,0.01969 -0.1069046,0.0401 -0.1580808,0.05981 0.2021127,5.02265 1.4899381,9.757281 3.6572021,13.979399 0.139606,-0.210895 0.361808,-0.526171 0.525511,-0.769039 1.034689,-1.535052 2.407999,-3.522287 3.31968,-4.862028 C 20.103092,13.013916 24.075647,7.7615122 23.156706,6.67851 23.110986,6.62811 23.01791,6.615139 22.943076,6.588779 Z M 8.5236247,8.6224719 c -0.0037,0.2054049 -0.029907,0.4046738 -0.029907,0.6109581 0,0.2827697 0.035796,0.5562973 0.042724,0.837396 z M 28.428889,9.4043273 C 28.269247,9.4285209 28.056818,9.5367139 27.822203,9.6820352 25.803988,13.370153 20.630689,21.716414 16.24391,28.899437 c 0.0495,0.06 0.09962,0.119786 0.149537,0.179439 l 0.482784,0.529781 c 5.58077,-9.123471 12.15668,-19.710542 11.826094,-20.1146122 -0.07354,-0.035 -0.169311,-0.105043 -0.273436,-0.089731 z M 16.393447,29.07888 16.235357,28.907972 c 0.0021,-0.0033 0.0066,-0.0053 0.0085,-0.0085 -0.879192,-1.065618 -1.69403,-2.184644 -2.439558,-3.353859 -0.198667,0.248572 -0.425866,0.530841 -0.619502,0.773311 0.902333,1.527783 1.935927,2.966541 3.05906,4.327973 0.205952,-0.337221 0.406072,-0.662071 0.615231,-1.004021 -0.160212,-0.183333 -0.309416,-0.377171 -0.465694,-0.56396 z m -0.149537,1.567981 c -0.0026,0.0044 -0.0059,0.0083 -0.0085,0.01291 l 0.17944,0.196524 c -0.0579,-0.06906 -0.113531,-0.139824 -0.170909,-0.209342 z m 0.170909,0.209343 c 6.172782,7.36247 15.406913,12.065358 25.76703,12.065358 7.503045,0 14.408759,-2.483135 20.007801,-6.630815 -0.145511,-0.444672 -0.3322,-0.956293 -0.487057,-1.418449 -5.512183,3.938819 -12.229319,6.297565 -19.520744,6.297565 -9.019851,0 -17.186796,-3.564788 -23.224945,-9.343809 -0.222323,0.30903 -0.510533,0.726052 -0.722041,1.016839 l -1.820055,-1.986681 z m -4.131443,-6.139487 c 0.210764,0.406102 0.43135,0.80433 0.657954,1.200553 z"
         style="color:#000000;display:inline;overflow:visible;visibility:visible;fill:#2274c3;fill-opacity:0.31372549;fill-rule:evenodd;stroke:none;stroke-width:3.10037327;marker:none;enable-background:accumulate"
         inkscape:connector-curvature="0" />
      <path
         id="path4677"
         d="m 42.181849,-24.454701 c -18.160594,0 -32.9229452,14.38232 -33.6197722,32.3722228 0.02376,-0.016844 0.057345,-0.038718 0.081175,-0.05554 C 9.8080427,-9.6861015 24.338854,-23.578852 42.181849,-23.578852 c 18.495304,0 33.494693,14.9097913 33.671041,33.3634255 0.0031,-0.1842081 0.01706,-0.36622 0.01706,-0.5511435 2.8e-5,-18.6049689 -15.083135,-33.688131 -33.688104,-33.688131 z m 9.160096,8.549136 c -0.139059,-0.005 -0.52107,0.09128 -0.816035,0.149537 l -2.00377,2.520736 c 0,0 -0.0471,3.577665 -1.08947,4.2724323 0.144067,0.096271 0.276854,0.2296729 0.418697,0.3332481 0.630081,-1.2183704 0.670773,-3.7298334 0.670773,-3.7298334 z M 41.703337,3.222117 c -2.617042,0.077984 -7.935194,7.898929 -14.000763,16.273696 -2.914781,4.024448 -6.692426,9.531537 -9.467711,13.34708 l -1.679065,-1.832874 c -0.0017,0.0028 -0.0026,0.0059 -0.0044,0.0085 0.648828,0.764137 1.320447,1.505484 2.033679,2.208848 2.7417,-3.790838 6.310075,-8.979706 9.117369,-12.855749 6.065569,-8.374766 11.383721,-16.1956024 14.000763,-16.2736956 0.08444,0 0.195058,0.075468 0.273435,0.089731 7.916034,0.046812 15.763507,19.5670006 19.96935,32.2696826 0.07956,-0.05788 0.164499,-0.108083 0.243528,-0.16662 C 58.042945,23.618895 50.034075,3.3594911 41.976669,3.3118389 41.898292,3.2976203 41.787671,3.2221083 41.703234,3.2221083 Z m -19.54638,3.272684 c -2.393638,-0.0175 -8.512473,2.1465139 -13.5948802,4.105807 0.011528,0.286471 0.062623,0.561388 0.081175,0.845943 C 13.709966,9.4953245 19.77566,7.3532403 22.156957,7.3706505 c 0.470966,0.00219 0.835644,0.00284 0.999749,0.183705 0.01269,0.014875 0.01487,0.039025 0.02564,0.05554 C 23.284455,7.2032006 23.312608,6.8622351 23.156706,6.678506 22.992601,6.4976009 22.627923,6.4969885 22.156957,6.494801 Z M 8.5236247,8.6224719 c -0.0037,0.2054049 -0.029907,0.4046738 -0.029907,0.6109581 0,0.1442647 0.011309,0.2855587 0.021372,0.4272422 0.00328,-0.053965 0.00737,-0.1077556 0.00855,-0.1623552 l 0.00427,0.3887905 c 0.00361,0.061096 0.00702,0.1220615 0.00855,0.1837055 L 8.5236422,8.6224587 Z M 28.428889,9.4043273 c -1.933028,0.292924 -9.692846,9.9634167 -15.244039,16.9145607 0.09822,0.166293 0.210917,0.3226 0.311887,0.487057 5.523287,-6.913988 13.021583,-16.22008 14.92788,-16.521496 0.209102,-0.4350931 0.324704,-0.7329564 0.277708,-0.7903998 -0.07354,-0.035 -0.169311,-0.105043 -0.273436,-0.089731 z m -16.145524,16.1882477 0.657954,1.200554 c -0.226599,-0.39622 -0.44708,-0.794469 -0.657954,-1.200554 z m 51.384548,9.497616 c -0.242242,0.201468 -0.461353,0.42901 -0.709224,0.623777 l 0.717769,-0.576779 c -0.0022,-0.01509 -0.0063,-0.03198 -0.0085,-0.04699 z"
         style="color:#000000;display:inline;overflow:visible;visibility:visible;fill:#ffffff;fill-opacity:0.23529412;fill-rule:evenodd;stroke:none;stroke-width:3.10037327;marker:none;enable-background:accumulate"
         inkscape:connector-curvature="0" />
      <path
         sodipodi:nodetypes="sssssssss"
         inkscape:connector-curvature="0"
         style="color:#000000;fill:none;stroke:#000000;stroke-width:2.29036617;stroke-opacity:0.7758007;marker:none;visibility:visible;display:inline;overflow:visible;enable-background:accumulate"
         d="m 2.9069185,-28.774301 79.0165385,0 c 2.575009,0 4.648031,1.891243 4.648031,4.240455 l 0,65.727034 c 0,2.349214 -2.073022,4.240455 -4.648031,4.240455 l -79.0165385,0 c -2.57500912,0 -4.6480313,-1.891241 -4.6480313,-4.240455 l 0,-65.727034 c 0,-2.349212 2.07302218,-4.240455 4.6480313,-4.240455 z"
         id="path4989" />
      <path
         style="opacity:0.72794118;fill:url(#linearGradient15945);fill-opacity:1;fill-rule:nonzero;stroke:none;display:inline"
         d="m 83.196098,-33.304545 -82.0285498,0 c -3.78699,0 -6.83573,3.04872 -6.83573,6.83571 l 0,82.02857 c 0,3.78699 3.04874,6.83572 6.83573,6.83572 l 82.0285498,0 c 3.78699,0 6.83572,-3.04873 6.83572,-6.83572 l 0,-82.02857 c 0,-3.78699 -3.04873,-6.83571 -6.83572,-6.83571 z"
         id="path5696"
         inkscape:connector-curvature="0" />
      <path
         inkscape:connector-curvature="0"
         id="path4974"
         d="m 30.14482,-29.678069 c 8.329396,26.1840392 16.984707,51.751268 25.765978,75.953527 l 26.583944,0 c 2.636535,0 4.759079,-1.93573 4.759079,-4.340201 l 0,-67.273123 c 0,-2.404473 -2.122544,-4.340203 -4.759079,-4.340203 l -52.349922,0 z"
         style="opacity:0.30882353;color:#000000;fill:url(#linearGradient15947);fill-opacity:1;fill-rule:nonzero;stroke:none;stroke-width:2;marker:none;visibility:visible;display:inline;overflow:visible;enable-background:accumulate" />
      <g
         transform="translate(-481.66234,-487.9798)"
         id="layer1-3"
         inkscape:label="Capa 1" />
    </g>
  </g>
</svg>
