<?xml version="1.0" encoding="UTF-8" standalone="no"?>
<!-- Created with Inkscape (http://www.inkscape.org/) -->

<svg
   xmlns:dc="http://purl.org/dc/elements/1.1/"
   xmlns:cc="http://creativecommons.org/ns#"
   xmlns:rdf="http://www.w3.org/1999/02/22-rdf-syntax-ns#"
   xmlns:svg="http://www.w3.org/2000/svg"
   xmlns="http://www.w3.org/2000/svg"
   xmlns:xlink="http://www.w3.org/1999/xlink"
   xmlns:sodipodi="http://sodipodi.sourceforge.net/DTD/sodipodi-0.dtd"
   xmlns:inkscape="http://www.inkscape.org/namespaces/inkscape"
   width="96"
   height="96"
   viewBox="0 0 96.000001 96.000004"
   version="1.1"
   id="svg1072"
   inkscape:version="0.92.4 5da689c313, 2019-01-14"
   sodipodi:docname="omegat.svg">
  <defs
     id="defs1066">
    <linearGradient
       y2="47.000011"
       x2="90"
       y1="47.000011"
       x1="6"
       gradientTransform="matrix(1.1013763,0,0,1.101376,-4.7171164,-3.3496932)"
       gradientUnits="userSpaceOnUse"
       id="linearGradient4071"
       xlink:href="#linearGradient6139-0"
       inkscape:collect="always" />
    <linearGradient
       id="linearGradient6139-0">
      <stop
         style="stop-color:#b4b9ba;stop-opacity:1"
         offset="0"
         id="stop6141-2" />
      <stop
         id="stop6151-0"
         offset="0.25"
         style="stop-color:#ffffff;stop-opacity:1;" />
      <stop
         id="stop6147-1"
         offset="0.5"
         style="stop-color:#98a0a2;stop-opacity:1" />
      <stop
         style="stop-color:#fbf9f9;stop-opacity:1;"
         offset="0.75"
         id="stop6149-4" />
      <stop
         style="stop-color:#b4b8ba;stop-opacity:1"
         offset="1"
         id="stop6143-4" />
    </linearGradient>
    <linearGradient
       gradientUnits="userSpaceOnUse"
       y2="88.171875"
       x2="94.5"
       y1="88.171875"
       x1="1.5"
       id="linearGradient4129"
       xlink:href="#linearGradient3832-0-6-1-1"
       inkscape:collect="always"
       gradientTransform="matrix(0.99479164,0,0,0.99479157,0.39895399,0.66499998)" />
    <linearGradient
       id="linearGradient3832-0-6-1-1">
      <stop
         id="stop3834-6-3-7-1"
         offset="0"
         style="stop-color:#000000;stop-opacity:1;" />
      <stop
         style="stop-color:#000000;stop-opacity:0.58823532;"
         offset="0.1"
         id="stop3872-2-4" />
      <stop
         id="stop3844-6-2-7-6"
         offset="0.89999998"
         style="stop-color:#000000;stop-opacity:0.58823532;" />
      <stop
         id="stop3836-5-0-2-9"
         offset="1"
         style="stop-color:#000000;stop-opacity:1;" />
    </linearGradient>
    <radialGradient
       r="43.199203"
       fy="44.892841"
       fx="13.948145"
       cy="44.892841"
       cx="13.948145"
       gradientTransform="matrix(0.97005494,0,0,0.04893452,34.121093,80.414153)"
       gradientUnits="userSpaceOnUse"
       id="radialGradient7462"
       xlink:href="#linearGradient3737"
       inkscape:collect="always" />
    <linearGradient
       id="linearGradient3737">
      <stop
         id="stop3739"
         style="stop-color:#ffffff;stop-opacity:1"
         offset="0" />
      <stop
         id="stop3741"
         style="stop-color:#ffffff;stop-opacity:0"
         offset="1" />
    </linearGradient>
    <radialGradient
       r="43.199203"
       fy="44.892841"
       fx="13.948145"
       cy="44.892841"
       cx="13.948145"
       gradientTransform="matrix(0.88369982,0,0,0.04893452,32.045192,-90.097632)"
       gradientUnits="userSpaceOnUse"
       id="radialGradient7464"
       xlink:href="#linearGradient3737"
       inkscape:collect="always" />
    <linearGradient
       y2="14.514202"
       x2="50.527882"
       y1="-28.64156"
       x1="2.7713892"
       gradientUnits="userSpaceOnUse"
       id="linearGradient4767"
       xlink:href="#linearGradient3737"
       inkscape:collect="always" />
    <clipPath
       clipPathUnits="userSpaceOnUse"
       id="clipPath4156-4-1">
      <path
         style="opacity:0.6;fill:#ffffff;fill-opacity:1;stroke:none"
         d="m 27.046336,-55.695463 -14.21366,13.321486 h 0.06127 l 15.653407,21.770763 10.231384,-10.546177 C 38.561832,-32.30156 27.468089,-54.819245 27.046336,-55.695463 Z M 9.6468554,-39.382809 -5.2407289,-25.32124 15.987863,-7.8059573 26.372412,-18.382966 Z m 31.4906096,12.951445 -9.741259,9.713584 8.944804,12.4580526 7.780753,-7.5550056 z m -49.8397109,4.378822 -13.7541661,12.9822847 26.2830181,13.84571 0.06127,-0.0617 -0.122531,-0.0617 L 13.598503,-5.4007374 -8.7022409,-22.052595 Z m 38.0154159,7.400825 -9.802525,9.7752596 11.579232,9.5594001 7.62759,-7.40083 -8.669108,-11.0087257 z m 20.187073,5.6739697 -7.382526,7.2158 6.187844,8.54179 5.820249,-6.13651996 z m -32.195166,6.32154 -9.5574606,9.49772 13.6622686,7.1849703 7.933918,-7.6783603 z m 23.311629,2.37443004 -7.10683,6.93826996 8.362778,6.9074403 5.360756,-5.6739699 -0.06127,-0.0925 -0.0919,0.12335 -6.463539,-8.20258036 z m -8.730374,8.54178036 -7.505057,7.3391599 10.353916,5.45811 c 1.397496,-1.32103 5.67514,-6.12292 5.850882,-6.32154 z"
         id="path4158-0-8"
         inkscape:connector-curvature="0" />
    </clipPath>
  </defs>
  <sodipodi:namedview
     id="base"
     pagecolor="#ffffff"
     bordercolor="#666666"
     borderopacity="1.0"
     inkscape:pageopacity="0.0"
     inkscape:pageshadow="2"
     inkscape:zoom="8.1354167"
     inkscape:cx="48"
     inkscape:cy="48"
     inkscape:document-units="px"
     inkscape:current-layer="g2574"
     showgrid="false"
     inkscape:showpageshadow="false"
     units="px"
     inkscape:lockguides="false"
     inkscape:window-width="1920"
     inkscape:window-height="1014"
     inkscape:window-x="0"
     inkscape:window-y="30"
     inkscape:window-maximized="1" />
  <metadata
     id="metadata1069">
    <rdf:RDF>
      <cc:Work
         rdf:about="">
        <dc:format>image/svg+xml</dc:format>
        <dc:type
           rdf:resource="http://purl.org/dc/dcmitype/StillImage" />
        <dc:title />
        <dc:date>2017</dc:date>
        <dc:creator>
          <cc:Agent>
            <dc:title>Cristian Pozzessere &quot;ilnanny&quot;</dc:title>
          </cc:Agent>
        </dc:creator>
        <dc:subject>
          <rdf:Bag>
            <rdf:li>Global language</rdf:li>
          </rdf:Bag>
        </dc:subject>
        <dc:description>Playing with Inkscape on Gnu/Linux O. S.</dc:description>
        <dc:contributor>
          <cc:Agent>
            <dc:title>In the night, alone like a dog.</dc:title>
          </cc:Agent>
        </dc:contributor>
        <cc:license
           rdf:resource="http://creativecommons.org/licenses/by-sa/4.0/" />
      </cc:Work>
      <cc:License
         rdf:about="http://creativecommons.org/licenses/by-sa/4.0/">
        <cc:permits
           rdf:resource="http://creativecommons.org/ns#Reproduction" />
        <cc:permits
           rdf:resource="http://creativecommons.org/ns#Distribution" />
        <cc:requires
           rdf:resource="http://creativecommons.org/ns#Notice" />
        <cc:requires
           rdf:resource="http://creativecommons.org/ns#Attribution" />
        <cc:permits
           rdf:resource="http://creativecommons.org/ns#DerivativeWorks" />
        <cc:requires
           rdf:resource="http://creativecommons.org/ns#ShareAlike" />
      </cc:License>
    </rdf:RDF>
  </metadata>
  <g
     inkscape:label="Livello 1"
     inkscape:groupmode="layer"
     id="layer1"
     transform="translate(0,-1026.5197)">
    <g
       transform="translate(-0.14895645,1026.1047)"
       style="display:inline"
       id="g2574">
      <g
         id="g900">
        <path
           style="display:inline;opacity:0.15;fill:#000000;fill-opacity:1;fill-rule:nonzero;stroke:none;stroke-width:0.99479157"
           d="M 89.077524,0.665 H 7.2203775 C 3.441315,0.665 0.3989564,3.7073565 0.3989564,7.4864256 V 89.343573 c 0,3.77907 3.0423586,6.821427 6.8214211,6.821427 H 89.077524 c 3.779072,0 6.821432,-3.042357 6.821432,-6.821427 V 7.4864256 C 95.898956,3.7073565 92.856596,0.665 89.077524,0.665 Z"
           id="path3288"
           inkscape:connector-curvature="0" />
        <path
           inkscape:connector-curvature="0"
           id="path4085"
           d="M 88.438017,1.4110941 H 7.859885 c -3.7200154,0 -6.7148367,2.9948189 -6.7148367,6.7148403 V 88.704066 c 0,3.72002 2.9948213,6.714841 6.7148367,6.714841 h 80.578132 c 3.720024,0 6.714844,-2.994821 6.714844,-6.714841 V 8.1259344 c 0,-3.7200214 -2.99482,-6.7148403 -6.714844,-6.7148403 z"
           style="display:inline;opacity:0.15;fill:#000000;fill-opacity:1;fill-rule:nonzero;stroke:none;stroke-width:0.99479157" />
        <path
           style="display:inline;fill:url(#linearGradient4071);fill-opacity:1;fill-rule:nonzero;stroke:none;stroke-width:0.99479157"
           d="M 87.798502,2.1571875 H 8.499401 c -3.6609759,0 -6.6082585,2.9472822 -6.6082585,6.6082567 V 88.064555 c 0,3.660975 2.9472826,6.608261 6.6082585,6.608261 h 79.299101 c 3.660978,0 6.608259,-2.947286 6.608259,-6.608261 V 8.7654442 c 0,-3.6609745 -2.947281,-6.6082567 -6.608259,-6.6082567 z"
           id="rect4251-1"
           inkscape:connector-curvature="0" />
        <path
           style="display:inline;opacity:1;fill:#99cdff;fill-opacity:1;fill-rule:nonzero;stroke:none;stroke-width:1.03001106"
           d="m 11.581698,7.0188759 c -2.841618,0 -5.097439,2.3026311 -5.097439,5.2032121 v 21.560806 7.284496 40.162286 c 1.0915249,1.694975 2.9533855,2.829246 5.097439,2.829246 h 4.077953 65.247237 4.077952 c 2.144056,0 4.005919,-1.134271 5.097444,-2.829246 V 41.06739 33.782894 12.222088 c 0,-2.900581 -2.255822,-5.2032121 -5.097444,-5.2032121 z"
           id="path3400-6"
           inkscape:connector-curvature="0"
           sodipodi:nodetypes="sscccsccscccsss" />
        <g
           transform="matrix(0.99479164,0,0,0.99479167,0.25077631,0.2521356)"
           id="g880">
          <g
             id="g872"
             transform="matrix(-0.80838948,0,0,0.80838948,94.920964,22.006865)">
            <path
               style="fill:#f4f7f7;fill-opacity:1;stroke:none"
               d="m 67.214306,42.97678 c 0,4.605884 -0.61822,9.123169 -4.078905,12.491592 -4.778537,4.651138 -13.667359,7.363593 -22.030484,7.363593 -2.243115,0 -4.420158,-0.215109 -6.49741,-0.619679 -0.862099,-0.167905 -1.477849,2.262293 -2.998433,3.81363 -2.156081,2.199685 -5.300729,3.754865 -6.385282,3.308225 -2.141795,-0.882037 -0.05967,-9.760647 -1.787629,-11.044665 -4.851495,-3.605145 -8.440637,-9.746865 -8.440637,-15.312696 0,-10.965718 11.689574,-19.855187 26.109391,-19.855187 14.419816,0 26.109389,8.889469 26.109389,19.855187 z"
               id="path868"
               inkscape:connector-curvature="0"
               sodipodi:nodetypes="ssssssssss" />
            <path
               id="path870"
               d="m 67.497763,43.937966 c 0,-12.504565 -11.402941,-21.934983 -26.521831,-21.934983 -15.195257,0 -27.097017,9.636769 -27.097017,21.938233 0,7.375028 5.217277,12.658922 9.748882,15.856555 v 10.782263 c 0,0.276218 0.139734,0.531314 0.370458,0.682421 0.134859,0.08611 0.287592,0.129985 0.441949,0.129985 0.112112,0 0.225849,-0.02437 0.333087,-0.07149 0.237223,-0.105613 5.782711,-2.625699 10.527167,-7.813729 2.055389,0.381831 4.380497,0.749039 6.489505,0.749039 15.375611,0 25.7078,-8.166313 25.7078,-20.318294 z m -25.709425,18.69348 c -2.128505,0 -4.547853,-0.407828 -6.634113,-0.805908 -0.281093,-0.05037 -0.57031,0.0455 -0.760413,0.258346 -3.330868,3.756569 -7.245044,6.14342 -9.141201,7.171927 v -9.882116 c 0,-0.268095 -0.13161,-0.516691 -0.352585,-0.669424 -4.286258,-2.949036 -9.396297,-7.901468 -9.396297,-14.763055 0,-11.391568 11.188467,-20.313419 25.472203,-20.313419 14.194371,0 24.897018,8.731748 24.897018,20.310169 0,11.181967 -9.679015,18.69348 -24.084612,18.69348 z M 40.68834,40.688339 c -1.79217,0 -3.249628,1.457458 -3.249628,3.249627 0,1.792169 1.457458,3.249627 3.249628,3.249627 1.792169,0 3.249627,-1.457458 3.249627,-3.249627 0,-1.792169 -1.457458,-3.249627 -3.249627,-3.249627 z m 0,4.87444 c -0.895273,0 -1.624814,-0.727916 -1.624814,-1.624813 0,-0.896897 0.729541,-1.624814 1.624814,-1.624814 0.895272,0 1.624813,0.727917 1.624813,1.624814 0,0.896897 -0.729541,1.624813 -1.624813,1.624813 z m 11.373694,-4.87444 c -1.792169,0 -3.249627,1.457458 -3.249627,3.249627 0,1.792169 1.457458,3.249627 3.249627,3.249627 1.79217,0 3.249627,-1.457458 3.249627,-3.249627 0,-1.792169 -1.457457,-3.249627 -3.249627,-3.249627 z m 0,4.87444 c -0.895272,0 -1.624813,-0.727916 -1.624813,-1.624813 0,-0.896897 0.729541,-1.624814 1.624813,-1.624814 0.895273,0 1.624814,0.727917 1.624814,1.624814 0,0.896897 -0.729541,1.624813 -1.624814,1.624813 z M 29.314645,40.842696 c -1.79217,0 -3.249627,1.457458 -3.249627,3.249627 0,1.79217 1.457457,3.249627 3.249627,3.249627 1.792169,0 3.249627,-1.457457 3.249627,-3.249627 0,-1.792169 -1.457458,-3.249627 -3.249627,-3.249627 z m 0,4.874441 c -0.895273,0 -1.624814,-0.727917 -1.624814,-1.624814 0,-0.896897 0.729541,-1.624813 1.624814,-1.624813 0.895272,0 1.624813,0.727916 1.624813,1.624813 0,0.896897 -0.729541,1.624814 -1.624813,1.624814 z"
               inkscape:connector-curvature="0"
               style="fill:#0084c8;fill-opacity:1;stroke:#000000;stroke-width:0.2;stroke-miterlimit:4;stroke-dasharray:none;stroke-opacity:1"
               sodipodi:nodetypes="ssscscsccssscccscssssssssssssssssssssssssssssssssss" />
          </g>
          <g
             transform="matrix(1.0825569,0,0,1.0825569,-6.8817714,-12.27625)"
             id="g1382">
            <path
               sodipodi:nodetypes="ssssssssss"
               inkscape:connector-curvature="0"
               id="path3974"
               d="m 67.214306,42.97678 c 0,4.605884 -0.61822,9.123169 -4.078905,12.491592 -4.778537,4.651138 -13.667359,7.363593 -22.030484,7.363593 -2.243115,0 -4.420158,-0.215109 -6.49741,-0.619679 -0.862099,-0.167905 -1.477849,2.262293 -2.998433,3.81363 -2.156081,2.199685 -5.300729,3.754865 -6.385282,3.308225 -2.141795,-0.882037 -0.05967,-9.760647 -1.787629,-11.044665 -4.851495,-3.605145 -8.440637,-9.746865 -8.440637,-15.312696 0,-10.965718 11.689574,-19.855187 26.109391,-19.855187 14.419816,0 26.109389,8.889469 26.109389,19.855187 z"
               style="fill:#f4f7f7;fill-opacity:1;stroke:none" />
            <path
               sodipodi:nodetypes="ssscscsccssscccscssssssssssssssssssssssssssssssssss"
               style="fill:#0084c8;fill-opacity:1;stroke:#000000;stroke-width:0.2;stroke-miterlimit:4;stroke-dasharray:none;stroke-opacity:1"
               inkscape:connector-curvature="0"
               d="m 67.497763,43.937966 c 0,-12.504565 -11.402941,-21.934983 -26.521831,-21.934983 -15.195257,0 -27.097017,9.636769 -27.097017,21.938233 0,7.375028 5.217277,12.658922 9.748882,15.856555 v 10.782263 c 0,0.276218 0.139734,0.531314 0.370458,0.682421 0.134859,0.08611 0.287592,0.129985 0.441949,0.129985 0.112112,0 0.225849,-0.02437 0.333087,-0.07149 0.237223,-0.105613 5.782711,-2.625699 10.527167,-7.813729 2.055389,0.381831 4.380497,0.749039 6.489505,0.749039 15.375611,0 25.7078,-8.166313 25.7078,-20.318294 z m -25.709425,18.69348 c -2.128505,0 -4.547853,-0.407828 -6.634113,-0.805908 -0.281093,-0.05037 -0.57031,0.0455 -0.760413,0.258346 -3.330868,3.756569 -7.245044,6.14342 -9.141201,7.171927 v -9.882116 c 0,-0.268095 -0.13161,-0.516691 -0.352585,-0.669424 -4.286258,-2.949036 -9.396297,-7.901468 -9.396297,-14.763055 0,-11.391568 11.188467,-20.313419 25.472203,-20.313419 14.194371,0 24.897018,8.731748 24.897018,20.310169 0,11.181967 -9.679015,18.69348 -24.084612,18.69348 z M 40.68834,40.688339 c -1.79217,0 -3.249628,1.457458 -3.249628,3.249627 0,1.792169 1.457458,3.249627 3.249628,3.249627 1.792169,0 3.249627,-1.457458 3.249627,-3.249627 0,-1.792169 -1.457458,-3.249627 -3.249627,-3.249627 z m 0,4.87444 c -0.895273,0 -1.624814,-0.727916 -1.624814,-1.624813 0,-0.896897 0.729541,-1.624814 1.624814,-1.624814 0.895272,0 1.624813,0.727917 1.624813,1.624814 0,0.896897 -0.729541,1.624813 -1.624813,1.624813 z m 11.373694,-4.87444 c -1.792169,0 -3.249627,1.457458 -3.249627,3.249627 0,1.792169 1.457458,3.249627 3.249627,3.249627 1.79217,0 3.249627,-1.457458 3.249627,-3.249627 0,-1.792169 -1.457457,-3.249627 -3.249627,-3.249627 z m 0,4.87444 c -0.895272,0 -1.624813,-0.727916 -1.624813,-1.624813 0,-0.896897 0.729541,-1.624814 1.624813,-1.624814 0.895273,0 1.624814,0.727917 1.624814,1.624814 0,0.896897 -0.729541,1.624813 -1.624814,1.624813 z M 29.314645,40.842696 c -1.79217,0 -3.249627,1.457458 -3.249627,3.249627 0,1.79217 1.457457,3.249627 3.249627,3.249627 1.792169,0 3.249627,-1.457457 3.249627,-3.249627 0,-1.792169 -1.457458,-3.249627 -3.249627,-3.249627 z m 0,4.874441 c -0.895273,0 -1.624814,-0.727917 -1.624814,-1.624814 0,-0.896897 0.729541,-1.624813 1.624814,-1.624813 0.895272,0 1.624813,0.727916 1.624813,1.624813 0,0.896897 -0.729541,1.624814 -1.624813,1.624814 z"
               id="path3965" />
          </g>
        </g>
        <path
           inkscape:connector-curvature="0"
           id="path4989"
           d="m 10.172862,5.3698284 c -3.1003885,0 -5.638444,2.5262833 -5.638444,5.6165966 v 68.917174 c 0,3.090315 2.5380555,5.616598 5.638444,5.616598 h 76.391827 c 3.100391,0 5.638447,-2.526283 5.638447,-5.616598 V 10.986425 c 0,-3.0903123 -2.538056,-5.6165966 -5.638447,-5.6165966 z m 0,2.3073585 h 76.391827 c 1.878264,0 3.33456,1.4723859 3.33456,3.3092381 v 68.917174 c 0,1.836856 -1.456297,3.309238 -3.33456,3.309238 H 10.172862 c -1.878265,0 -3.3345634,-1.472382 -3.3345634,-3.309238 V 10.986425 c 0,-1.8368522 1.4562984,-3.3092381 3.3345634,-3.3092381 z"
           style="color:#000000;font-style:normal;font-variant:normal;font-weight:normal;font-stretch:normal;font-size:medium;line-height:normal;font-family:Sans;-inkscape-font-specification:Sans;text-indent:0;text-align:start;text-decoration:none;text-decoration-line:none;letter-spacing:normal;word-spacing:normal;text-transform:none;writing-mode:lr-tb;direction:ltr;baseline-shift:baseline;text-anchor:start;display:inline;overflow:visible;visibility:visible;fill:#545a61;fill-opacity:0.96226418;stroke:none;stroke-width:2.36312795;marker:none;enable-background:accumulate" />
        <path
           inkscape:connector-curvature="0"
           style="display:inline;opacity:0.65818182;fill:url(#linearGradient4129);fill-opacity:1;fill-rule:nonzero;stroke:none;stroke-width:0.99479157"
           d="m 1.8911415,82.08248 v 5.96875 c 0,3.660975 2.960606,6.621586 6.6215815,6.621586 h 79.27246 c 3.660978,0 6.621585,-2.960611 6.621585,-6.621586 v -5.96875 c 0,3.660975 -2.960607,6.621586 -6.621585,6.621586 H 8.512723 c -3.6609755,0 -6.6215815,-2.960611 -6.6215815,-6.621586 z"
           id="path4118" />
        <rect
           style="opacity:0.55;fill:url(#radialGradient7462);fill-opacity:1;stroke:none;stroke-width:0.99479157"
           id="rect4131"
           width="83.811203"
           height="4.2278643"
           x="5.7459593"
           y="80.49704"
           rx="0"
           ry="4.2278643" />
        <rect
           ry="4.2278652"
           rx="0"
           y="-90.014755"
           x="6.1960373"
           height="4.2278652"
           width="76.350258"
           id="rect4141"
           style="opacity:0.669;fill:url(#radialGradient7464);fill-opacity:1;stroke:none;stroke-width:0.99479157"
           transform="rotate(90)" />
        <rect
           transform="matrix(1.0636761,0,0,1.0422262,4.6718097,38.943575)"
           style="opacity:0.5078125;fill:url(#linearGradient4767);fill-opacity:1;stroke:none"
           id="rect4146"
           width="75.965775"
           height="69.024437"
           x="2"
           y="-30"
           rx="3.9569874"
           ry="3.9569881"
           clip-path="url(#clipPath4156-4-1)" />
      </g>
    </g>
  </g>
</svg>
