<?xml version="1.0" encoding="UTF-8" standalone="no"?>
<svg
   xmlns:dc="http://purl.org/dc/elements/1.1/"
   xmlns:cc="http://creativecommons.org/ns#"
   xmlns:rdf="http://www.w3.org/1999/02/22-rdf-syntax-ns#"
   xmlns:svg="http://www.w3.org/2000/svg"
   xmlns="http://www.w3.org/2000/svg"
   xmlns:xlink="http://www.w3.org/1999/xlink"
   xmlns:sodipodi="http://sodipodi.sourceforge.net/DTD/sodipodi-0.dtd"
   xmlns:inkscape="http://www.inkscape.org/namespaces/inkscape"
   width="48"
   height="48"
   version="1.1"
   id="svg126"
   sodipodi:docname="fingerprint-gui.svg"
   inkscape:version="0.92.2 5c3e80d, 2017-08-06">
  <metadata
     id="metadata130">
    <rdf:RDF>
      <cc:Work
         rdf:about="">
        <dc:format>image/svg+xml</dc:format>
        <dc:type
           rdf:resource="http://purl.org/dc/dcmitype/StillImage" />
      </cc:Work>
    </rdf:RDF>
  </metadata>
  <sodipodi:namedview
     pagecolor="#ffffff"
     bordercolor="#666666"
     borderopacity="1"
     objecttolerance="10"
     gridtolerance="10"
     guidetolerance="10"
     inkscape:pageopacity="0"
     inkscape:pageshadow="2"
     inkscape:window-width="1280"
     inkscape:window-height="941"
     id="namedview128"
     showgrid="false"
     inkscape:zoom="4.9166667"
     inkscape:cx="24"
     inkscape:cy="24"
     inkscape:window-x="0"
     inkscape:window-y="21"
     inkscape:window-maximized="1"
     inkscape:current-layer="svg126" />
  <defs
     id="defs114">
    <linearGradient
       gradientTransform="translate(-1.755e-5,1.52e-6)"
       xlink:href="#linearGradient4177"
       id="linearGradient4205"
       x1="388.735"
       y1="503.991"
       x2="428.408"
       y2="543.932"
       gradientUnits="userSpaceOnUse" />
    <linearGradient
       id="linearGradient4177">
      <stop
         offset="0"
         style="stop-color:#3f3f3f;stop-opacity:1;"
         id="stop103" />
      <stop
         style="stop-color:#de7d9c;stop-opacity:1"
         offset=".11"
         id="stop105" />
      <stop
         offset=".449"
         style="stop-color:#cc3d8a;stop-opacity:1"
         id="stop107" />
      <stop
         style="stop-color:#5f2b76;stop-opacity:1"
         offset=".934"
         id="stop109" />
      <stop
         offset="1"
         style="stop-color:#3f3f3f;stop-opacity:0;"
         id="stop111" />
    </linearGradient>
    <linearGradient
       inkscape:collect="always"
       xlink:href="#linearGradient6139-0"
       id="linearGradient4071"
       gradientUnits="userSpaceOnUse"
       gradientTransform="matrix(0.55126485,0,0,0.55126475,-2.2573249,-1.9095496)"
       x1="6"
       y1="47.000011"
       x2="90"
       y2="47.000011" />
    <linearGradient
       id="linearGradient6139-0">
      <stop
         id="stop6141-2"
         offset="0"
         style="stop-color:#b2babc;stop-opacity:1" />
      <stop
         style="stop-color:#ffffff;stop-opacity:1;"
         offset="0.25"
         id="stop6151-0" />
      <stop
         style="stop-color:#96a1a4;stop-opacity:1"
         offset="0.5"
         id="stop6147-1" />
      <stop
         id="stop6149-4"
         offset="0.75"
         style="stop-color:#fbf9f9;stop-opacity:1;" />
      <stop
         id="stop6143-4"
         offset="1"
         style="stop-color:#b2b9bc;stop-opacity:1" />
    </linearGradient>
    <linearGradient
       gradientTransform="matrix(0.49791667,0,0,0.49791666,0.30338881,0.09989967)"
       inkscape:collect="always"
       xlink:href="#linearGradient3832-0-6-1-1"
       id="linearGradient4129"
       x1="1.5"
       y1="88.171875"
       x2="94.5"
       y2="88.171875"
       gradientUnits="userSpaceOnUse" />
    <linearGradient
       id="linearGradient3832-0-6-1-1">
      <stop
         style="stop-color:#000000;stop-opacity:1;"
         offset="0"
         id="stop3834-6-3-7-1" />
      <stop
         id="stop3872-2-4"
         offset="0.1"
         style="stop-color:#000000;stop-opacity:0.58823532;" />
      <stop
         style="stop-color:#000000;stop-opacity:0.58823532;"
         offset="0.89999998"
         id="stop3844-6-2-7-6" />
      <stop
         style="stop-color:#000000;stop-opacity:1;"
         offset="1"
         id="stop3836-5-0-2-9" />
    </linearGradient>
    <radialGradient
       inkscape:collect="always"
       xlink:href="#linearGradient3737"
       id="radialGradient7462"
       gradientUnits="userSpaceOnUse"
       gradientTransform="matrix(0.48553536,0,0,0.02449288,17.182114,40.016234)"
       cx="13.948145"
       cy="44.892841"
       fx="13.948145"
       fy="44.892841"
       r="43.199203" />
    <linearGradient
       id="linearGradient3737">
      <stop
         offset="0"
         style="stop-color:#ffffff;stop-opacity:1"
         id="stop3739" />
      <stop
         offset="1"
         style="stop-color:#ffffff;stop-opacity:0"
         id="stop3741" />
    </linearGradient>
    <radialGradient
       inkscape:collect="always"
       xlink:href="#linearGradient3737"
       id="radialGradient7464"
       gradientUnits="userSpaceOnUse"
       gradientTransform="matrix(0.44231264,0,0,0.02449288,15.806428,-45.199691)"
       cx="13.948145"
       cy="44.892841"
       fx="13.948145"
       fy="44.892841"
       r="43.199203" />
    <linearGradient
       inkscape:collect="always"
       xlink:href="#linearGradient3737"
       id="linearGradient4767"
       gradientUnits="userSpaceOnUse"
       x1="2.7713892"
       y1="-28.64156"
       x2="50.527882"
       y2="14.514202" />
    <clipPath
       id="clipPath4156-4-1"
       clipPathUnits="userSpaceOnUse">
      <path
         inkscape:connector-curvature="0"
         id="path4158-0-8"
         d="m 27.046336,-55.695463 -14.21366,13.321486 h 0.06127 l 15.653407,21.770763 10.231384,-10.546177 C 38.561832,-32.30156 27.468089,-54.819245 27.046336,-55.695463 Z M 9.6468554,-39.382809 -5.2407289,-25.32124 15.987863,-7.8059573 26.372412,-18.382966 Z m 31.4906096,12.951445 -9.741259,9.713584 8.944804,12.4580526 7.780753,-7.5550056 z m -49.8397109,4.378822 -13.7541661,12.9822847 26.2830181,13.84571 0.06127,-0.0617 -0.122531,-0.0617 L 13.598503,-5.4007374 -8.7022409,-22.052595 Z m 38.0154159,7.400825 -9.802525,9.7752596 11.579232,9.5594001 7.62759,-7.40083 -8.669108,-11.0087257 z m 20.187073,5.6739697 -7.382526,7.2158 6.187844,8.54179 5.820249,-6.13651996 z m -32.195166,6.32154 -9.5574606,9.49772 13.6622686,7.1849703 7.933918,-7.6783603 z m 23.311629,2.37443004 -7.10683,6.93826996 8.362778,6.9074403 5.360756,-5.6739699 -0.06127,-0.0925 -0.0919,0.12335 -6.463539,-8.20258036 z m -8.730374,8.54178036 -7.505057,7.3391599 10.353916,5.45811 c 1.397496,-1.32103 5.67514,-6.12292 5.850882,-6.32154 z"
         style="opacity:0.6;fill:#ffffff;fill-opacity:1;stroke:none" />
    </clipPath>
    <linearGradient
       id="ButtonShadow-16"
       gradientTransform="scale(1.0058652,0.994169)"
       x1="45.447727"
       y1="92.539597"
       x2="45.447727"
       y2="7.0165396"
       gradientUnits="userSpaceOnUse">
      <stop
         style="stop-color:#000000;stop-opacity:1;"
         offset="0"
         id="stop3750-6" />
      <stop
         style="stop-color:#000000;stop-opacity:0.58823532;"
         offset="1"
         id="stop3752-4" />
    </linearGradient>
    <clipPath
       clipPathUnits="userSpaceOnUse"
       id="clipPath4355-7">
      <rect
         style="fill:#ffffff;fill-opacity:1;fill-rule:nonzero;stroke:none"
         id="rect4357-5"
         width="84"
         height="80"
         x="6"
         y="6"
         rx="6"
         ry="6" />
    </clipPath>
    <clipPath
       clipPathUnits="userSpaceOnUse"
       id="clipPath4355-9">
      <rect
         style="fill:#ffffff;fill-opacity:1;fill-rule:nonzero;stroke:none"
         id="rect4357-1"
         width="84"
         height="80"
         x="6"
         y="6"
         rx="6"
         ry="6" />
    </clipPath>
    <clipPath
       clipPathUnits="userSpaceOnUse"
       id="clipPath4355-1">
      <rect
         style="fill:#ffffff;fill-opacity:1;fill-rule:nonzero;stroke:none"
         id="rect4357-9"
         width="84"
         height="80"
         x="6"
         y="6"
         rx="6"
         ry="6" />
    </clipPath>
    <clipPath
       clipPathUnits="userSpaceOnUse"
       id="clipPath3943-52-0">
      <path
         id="path3945-4-1"
         d="m 69.78125,20.84375 -5,3.4375 c 5.586891,5.537137 9,13.327613 9,21.8125 0,8.434478 -3.37723,16.095981 -8.90625,21.625 l 5,3.4375 C 76.078226,64.5762 80,55.843726 80,46.09375 c 2e-6,-9.796556 -3.962955,-18.660417 -10.21875,-25.25 z M 40,24.0625 28.90625,36.21875 H 21.5 c -0.823281,0 -1.5,0.676717 -1.5,1.5 v 1 14.84375 1 c 0,0.823281 0.684121,1.610161 1.5,1.5 h 7.40625 L 40,68 V 66 26.0625 Z m 20.59375,3.28125 -5,3.4375 L 55.5,30.875 c 3.93815,3.890071 6.40625,9.25018 6.40625,15.21875 0,5.920869 -2.42961,11.148358 -6.3125,15.03125 l 0.09375,0.09375 5.09375,3.4375 c 4.475428,-4.908367 7.25,-11.402005 7.25,-18.5625 0,-7.230696 -2.87904,-13.83107 -7.4375,-18.75 z m -9.25,6.5 -5.21875,3.625 c 2.222384,2.217802 3.71875,5.239596 3.71875,8.625 0,3.336509 -1.458847,6.227712 -3.625,8.4375 l 5.21875,3.625 c 2.822412,-3.236947 4.53125,-7.43414 4.53125,-12.0625 0,-4.672601 -1.754155,-9.001351 -4.625,-12.25 z"
         style="color:#000000;display:inline;overflow:visible;visibility:visible;opacity:0.8;fill:#ff00ff;fill-opacity:1;fill-rule:nonzero;stroke:none;stroke-width:1;marker:none;enable-background:accumulate"
         inkscape:connector-curvature="0" />
    </clipPath>
  </defs>
  <path
     style="display:inline;opacity:0.15;fill:#000000;fill-opacity:1;fill-rule:nonzero;stroke:none;stroke-width:0.49791667"
     d="M 44.689103,0.09989967 H 3.7176719 c -1.8915098,0 -3.41428189,1.52277053 -3.41428189,3.41428433 v 40.97143 c 0,1.891514 1.52277209,3.414286 3.41428189,3.414286 H 44.689103 c 1.891514,0 3.414287,-1.522772 3.414287,-3.414286 V 3.514184 c 0,-1.8915138 -1.522773,-3.41428433 -3.414287,-3.41428433 z"
     id="path3288"
     inkscape:connector-curvature="0" />
  <path
     inkscape:connector-curvature="0"
     id="path4085"
     d="M 44.369014,0.47333717 H 4.0377606 c -1.8619554,0 -3.36093399,1.49897713 -3.36093399,3.36093553 V 44.165525 c 0,1.861959 1.49897859,3.360937 3.36093399,3.360937 H 44.369014 c 1.86196,0 3.360939,-1.498978 3.360939,-3.360937 V 3.8342727 c 0,-1.8619584 -1.498979,-3.36093553 -3.360939,-3.36093553 z"
     style="display:inline;opacity:0.15;fill:#000000;fill-opacity:1;fill-rule:nonzero;stroke:none;stroke-width:0.49791667" />
  <path
     style="display:inline;fill:url(#linearGradient4071);fill-opacity:1;fill-rule:nonzero;stroke:none;stroke-width:0.49791667"
     d="M 44.048922,0.84677467 H 4.3578533 c -1.8324045,0 -3.307589,1.47518463 -3.307589,3.30758773 V 43.845436 c 0,1.832405 1.4751845,3.307589 3.307589,3.307589 H 44.048922 c 1.832405,0 3.307588,-1.475185 3.307588,-3.307589 V 4.1543624 c 0,-1.8324031 -1.475183,-3.30758773 -3.307588,-3.30758773 z"
     id="rect4251-1"
     inkscape:connector-curvature="0" />
  <path
     style="display:inline;opacity:0.98000004;fill:#e8e8e8;fill-opacity:1;fill-rule:nonzero;stroke:none;stroke-width:0.51566219"
     d="m 5.9006162,3.2801641 c -1.4222972,0 -2.551389,1.1530465 -2.551389,2.6055173 v 10.7966076 3.647723 20.111331 c 0.5463341,0.848762 1.4782392,1.416749 2.551389,1.416749 H 7.9417275 40.599508 43.42209 c 1.073151,0 1.223585,0.01811 1.769919,-0.830645 V 20.330012 16.682289 5.8856814 c 0,-1.4524708 -1.129092,-2.6055173 -2.55139,-2.6055173 z"
     id="path3400-6"
     inkscape:connector-curvature="0"
     sodipodi:nodetypes="sscccsccscccsss" />
  <path
     inkscape:connector-curvature="0"
     id="path4989"
     d="m 5.1954602,2.4547766 c -1.5518175,0 -2.8221743,1.2644644 -2.8221743,2.8112405 V 39.760686 c 0,1.546775 1.2703568,2.811239 2.8221743,2.811239 H 43.431369 c 1.551818,0 2.822176,-1.264464 2.822176,-2.811239 V 5.2660171 c 0,-1.5467751 -1.270358,-2.8112405 -2.822176,-2.8112405 z m 0,1.1548879 H 43.431369 c 0.940117,0 1.669028,0.7369634 1.669028,1.6563526 V 39.760686 c 0,0.91939 -0.728911,1.65635 -1.669028,1.65635 H 5.1954602 c -0.940116,0 -1.6690276,-0.73696 -1.6690276,-1.65635 V 5.2660171 c 0,-0.9193892 0.7289116,-1.6563526 1.6690276,-1.6563526 z"
     style="color:#000000;font-style:normal;font-variant:normal;font-weight:normal;font-stretch:normal;font-size:medium;line-height:normal;font-family:Sans;-inkscape-font-specification:Sans;text-indent:0;text-align:start;text-decoration:none;text-decoration-line:none;letter-spacing:normal;word-spacing:normal;text-transform:none;writing-mode:lr-tb;direction:ltr;baseline-shift:baseline;text-anchor:start;display:inline;overflow:visible;visibility:visible;fill:#1f2224;fill-opacity:0.80869565;stroke:none;stroke-width:1.18280113;marker:none;enable-background:accumulate" />
  <path
     inkscape:connector-curvature="0"
     style="display:inline;opacity:0.65818182;fill:url(#linearGradient4129);fill-opacity:1;fill-rule:nonzero;stroke:none;stroke-width:0.49791667"
     d="m 1.0502638,40.851267 v 2.9875 c 0,1.832404 1.4818531,3.314258 3.3142576,3.314258 H 44.042255 c 1.832405,0 3.31426,-1.481854 3.31426,-3.314258 v -2.9875 c 0,1.832404 -1.481855,3.314258 -3.31426,3.314258 H 4.3645214 c -1.8324045,0 -3.3142576,-1.481854 -3.3142576,-3.314258 z"
     id="path4118" />
  <rect
     style="opacity:0.55;fill:url(#radialGradient7462);fill-opacity:1;stroke:none;stroke-width:0.49791667"
     id="rect4131"
     width="41.949482"
     height="2.1161458"
     x="2.979691"
     y="40.057713"
     rx="2.1161458"
     ry="2.1161458" />
  <rect
     ry="2.1161458"
     rx="2.1161458"
     y="-45.158218"
     x="2.8683159"
     height="2.1161458"
     width="38.215103"
     id="rect4141"
     style="opacity:0.669;fill:url(#radialGradient7464);fill-opacity:1;stroke:none;stroke-width:0.49791667"
     transform="rotate(90)" />
  <g
     transform="matrix(0.8779661,0,0,0.8779661,-334.43305,-437.08474)"
     id="g8355"
     style="stroke-width:1.13899612">
    <rect
       ry="22.779922"
       id="rect116"
       width="40"
       x="388.57001"
       y="503.79999"
       rx="22.779922"
       height="40"
       style="opacity:0.9;fill:url(#linearGradient4205);fill-opacity:1;stroke-width:3.1891892;stroke-opacity:0.55026502" />
    <path
       inkscape:connector-curvature="0"
       id="path120"
       transform="translate(384.57143,499.798)"
       d="m 23.78125,10.386719 c -2.68998,-0.01228 -4.99636,0.486969 -7.09375,1.537109 -0.69823,0.34958 -0.806919,0.472199 -0.761719,0.84961 0.09231,0.770269 0.490029,0.845046 1.667969,0.316406 2.18986,-0.98274 3.255358,-1.192313 6.017578,-1.195313 3.17015,-0.0026 4.33761,0.268945 6.9375,1.615235 0.44669,0.23099 1.860852,1.322618 2.388672,0.736328 0.52275,-0.52272 0.246551,-0.955363 -1.099609,-1.720703 -2.6548,-1.50935 -4.974401,-2.124072 -8.056641,-2.138672 z M 23.699219,13.5 c -3.549223,-0.0027 -7.096241,1.399569 -9.697266,4.208984 -1.0062,1.08683 -2.179687,2.868164 -2.179687,3.308594 0,0.51354 0.211753,0.796875 0.595703,0.796875 0.30096,0 0.607197,-0.324692 1.335937,-1.419922 1.62983,-2.44946 3.742724,-4.074446 6.464844,-4.972656 2.11111,-0.68904 4.583264,-0.60927 6.958984,0 3.06748,1.00827 5.699035,3.254453 7.140625,6.095703 0.31369,0.61823 0.501334,0.806641 0.808594,0.806641 0.52917,0 0.839863,-0.393793 0.695313,-0.882813 -0.23308,-0.78876 -1.476519,-2.699927 -2.417969,-3.716797 C 30.799652,14.911234 27.248441,13.502685 23.699219,13.5 Z m 0.167969,3.091797 c -0.756485,-0.01314 -1.52404,0.05843 -2.291016,0.21875 -3.64461,0.76184 -6.690876,3.713504 -7.666016,7.427734 -0.51749,1.97103 -0.279601,5.190525 0.574219,7.765625 0.25517,0.76956 0.378361,0.930057 0.744141,0.972656 0.84097,0.09774 0.92315,-0.302518 0.419922,-2.042968 -1.439952,-4.98014 -0.200267,-9.217104 3.371093,-11.527344 3.53093,-2.28409 8.387061,-1.608119 11.150391,1.550781 1.73162,1.97952 2.681421,5.327843 1.925781,6.789063 -0.49917,0.96532 -1.714558,1.545482 -2.712891,1.294922 -0.729559,-0.1831 -1.594378,-1.079688 -1.705078,-1.767578 -0.39067,-2.42748 -0.94209,-3.377464 -2.33789,-4.027344 -1.19066,-0.55439 -2.183113,-0.539086 -3.351563,0.05273 -1.08873,0.55146 -1.922877,1.664486 -2.091797,2.791016 -0.06094,0.40595 -0.03415,1.284442 0.06055,1.951172 0.58902,4.15309 3.560395,7.438538 7.640625,8.449218 0.51314,0.12705 1.352095,0.216819 1.865235,0.199219 l 0.933593,-0.03125 c 0.52735,-0.26769 0.55621,-0.88379 0,-1.1875 l -1.320312,-0.201172 c -1.66178,-0.25323 -2.349938,-0.472194 -3.492188,-1.115234 -2.48398,-1.39837 -4.263672,-4.429739 -4.263672,-7.261719 0,-1.24802 0.472529,-1.977024 1.574219,-2.433594 0.79604,-0.32992 0.807476,-0.32992 1.603516,0 1.00744,0.41752 1.492387,1.116262 1.617187,2.326172 0.22918,2.22048 1.770063,3.681641 3.882813,3.681641 1.69558,0 3.122796,-1.100315 3.628906,-2.796875 0.49535,-1.66036 -0.169636,-4.449113 -1.566406,-6.570313 -1.851119,-2.811176 -4.915264,-4.450863 -8.193359,-4.507812 z m -0.109376,3.216797 c -1.055759,0.01336 -2.141469,0.208167 -3.03125,0.554687 -1.37195,0.67192 -2.679258,2.013797 -3.355468,3.441407 -0.51455,1.086259 -0.545242,1.255429 -0.544922,3.099609 3.8e-4,2.26889 0.274953,3.474189 1.251953,5.511719 0.84186,1.75567 2.008218,3.286907 3.304687,4.335937 1.12375,0.90928 1.243128,0.953408 1.710938,0.611328 0.47892,-0.35017 0.211801,-0.951509 -0.755859,-1.693359 -1.04919,-0.80436 -2.182396,-2.259326 -2.947266,-3.785156 -1.25635,-2.50621 -1.572866,-5.603674 -0.753906,-7.376954 0.59437,-1.286979 1.50069,-2.246983 2.65625,-2.814453 1.38836,-0.6818 3.416327,-0.6818 4.804687,0 1.6571,0.81376 2.716647,2.295505 3.091797,4.328125 0.22392,1.2133 0.562888,1.616594 1.080078,1.283204 0.23965,-0.15448 0.291831,-0.411898 0.269531,-1.335938 -0.05418,-2.24624 -1.627974,-4.501519 -3.927734,-5.630859 -0.772,-0.37564 -1.797756,-0.542652 -2.853516,-0.529297 z"
       style="opacity:1;fill:#ffffff;fill-opacity:1;fill-rule:nonzero;stroke:none;stroke-width:48.44720078;stroke-miterlimit:4;stroke-dasharray:none;stroke-opacity:1" />
    <path
       inkscape:connector-curvature="0"
       id="path122"
       d="m 413.01689,533.25511 c -2.89862,-0.6323 -5.1328,-3.18614 -5.38364,-6.15391 -0.0793,-0.93797 -0.0518,-1.06193 0.27295,-1.23578 0.61868,-0.33111 0.97625,0.0165 1.1,1.06933 0.31116,2.64741 2.25668,4.64408 4.87395,5.00201 1.28052,0.17513 1.69235,0.66676 1.07537,1.28374 -0.30891,0.30891 -0.65299,0.31506 -1.93863,0.0347 z"
       style="opacity:1;fill:#ffffff;fill-opacity:1;fill-rule:nonzero;stroke:none;stroke-width:48.44720078;stroke-miterlimit:4;stroke-dasharray:none;stroke-opacity:1" />
  </g>
  <rect
     transform="matrix(0.53239495,0,0,0.52165878,2.4420538,19.259228)"
     style="opacity:0.7;fill:url(#linearGradient4767);fill-opacity:1;stroke:none"
     id="rect4146"
     width="75.965775"
     height="69.024437"
     x="2"
     y="-30"
     rx="3.9569874"
     ry="3.9569881"
     clip-path="url(#clipPath4156-4-1)" />
  <g
     transform="translate(-310.33414,-481.89969)"
     id="g124" />
</svg>
