<?xml version="1.0" encoding="UTF-8" standalone="no"?>
<!-- Created with Inkscape (http://www.inkscape.org/) -->

<svg
   xmlns:dc="http://purl.org/dc/elements/1.1/"
   xmlns:cc="http://creativecommons.org/ns#"
   xmlns:rdf="http://www.w3.org/1999/02/22-rdf-syntax-ns#"
   xmlns:svg="http://www.w3.org/2000/svg"
   xmlns="http://www.w3.org/2000/svg"
   xmlns:xlink="http://www.w3.org/1999/xlink"
   xmlns:sodipodi="http://sodipodi.sourceforge.net/DTD/sodipodi-0.dtd"
   xmlns:inkscape="http://www.inkscape.org/namespaces/inkscape"
   version="1.0"
   width="96"
   height="96"
   id="svg2408"
   inkscape:version="0.48.5 r10040"
   sodipodi:docname="altro.svg">
  <sodipodi:namedview
     pagecolor="#ffffff"
     bordercolor="#666666"
     borderopacity="1"
     objecttolerance="10"
     gridtolerance="10"
     guidetolerance="10"
     inkscape:pageopacity="0"
     inkscape:pageshadow="2"
     inkscape:window-width="1280"
     inkscape:window-height="966"
     id="namedview59"
     showgrid="false"
     inkscape:zoom="2.5278043"
     inkscape:cx="19.122695"
     inkscape:cy="47.40832"
     inkscape:window-x="0"
     inkscape:window-y="0"
     inkscape:window-maximized="1"
     inkscape:current-layer="g4592" />
  <defs
     id="defs2410">
    <linearGradient
       id="linearGradient3825">
      <stop
         id="stop3827"
         style="stop-color:#501616;stop-opacity:1"
         offset="0" />
      <stop
         id="stop3829"
         style="stop-color:#501616;stop-opacity:0"
         offset="1" />
    </linearGradient>
    <linearGradient
       id="linearGradient3694">
      <stop
         id="stop3696"
         style="stop-color:#e6e6e6;stop-opacity:1"
         offset="0" />
      <stop
         id="stop3698"
         style="stop-color:#f5f5f5;stop-opacity:1"
         offset="1" />
    </linearGradient>
    <linearGradient
       id="linearGradient3688">
      <stop
         id="stop3690"
         style="stop-color:#b30707;stop-opacity:1"
         offset="0" />
      <stop
         id="stop3692"
         style="stop-color:#e42c0d;stop-opacity:1"
         offset="1" />
    </linearGradient>
    <linearGradient
       x1="45.447727"
       y1="92.539597"
       x2="45.447727"
       y2="7.0165396"
       id="ButtonShadow"
       gradientUnits="userSpaceOnUse"
       gradientTransform="scale(1.0058652,0.994169)">
      <stop
         id="stop3750"
         style="stop-color:#000000;stop-opacity:1"
         offset="0" />
      <stop
         id="stop3752"
         style="stop-color:#000000;stop-opacity:0.58823532"
         offset="1" />
    </linearGradient>
    <linearGradient
       id="linearGradient3737">
      <stop
         id="stop3739"
         style="stop-color:#ffffff;stop-opacity:1"
         offset="0" />
      <stop
         id="stop3741"
         style="stop-color:#ffffff;stop-opacity:0"
         offset="1" />
    </linearGradient>
    <filter
       color-interpolation-filters="sRGB"
       id="filter3174">
      <feGaussianBlur
         id="feGaussianBlur3176"
         stdDeviation="1.71" />
    </filter>
    <linearGradient
       x1="36.357143"
       y1="6"
       x2="36.357143"
       y2="63.893143"
       id="linearGradient3188"
       xlink:href="#linearGradient3737"
       gradientUnits="userSpaceOnUse" />
    <filter
       x="-0.192"
       y="-0.192"
       width="1.3839999"
       height="1.3839999"
       color-interpolation-filters="sRGB"
       id="filter3794">
      <feGaussianBlur
         id="feGaussianBlur3796"
         stdDeviation="5.28" />
    </filter>
    <linearGradient
       x1="48"
       y1="20.220806"
       x2="48"
       y2="138.66119"
       id="linearGradient3613"
       xlink:href="#linearGradient3737"
       gradientUnits="userSpaceOnUse" />
    <radialGradient
       cx="48"
       cy="90.171875"
       r="42"
       fx="48"
       fy="90.171875"
       id="radialGradient3619"
       xlink:href="#linearGradient3737"
       gradientUnits="userSpaceOnUse"
       gradientTransform="matrix(1.1573129,0,0,0.99590774,-7.5510206,0.19713193)" />
    <clipPath
       id="clipPath3613">
      <rect
         width="84"
         height="84"
         rx="6"
         ry="6"
         x="6"
         y="6"
         id="rect3615"
         style="fill:#ffffff;fill-opacity:1;fill-rule:nonzero;stroke:none" />
    </clipPath>
    <linearGradient
       x1="48"
       y1="90"
       x2="48"
       y2="5.9877172"
       id="linearGradient3617"
       xlink:href="#linearGradient3688"
       gradientUnits="userSpaceOnUse" />
    <linearGradient
       x1="45.447727"
       y1="92.539597"
       x2="45.447727"
       y2="7.0165396"
       id="ButtonShadow-0"
       gradientUnits="userSpaceOnUse"
       gradientTransform="matrix(1.0058652,0,0,0.994169,100,0)">
      <stop
         id="stop3750-8"
         style="stop-color:#000000;stop-opacity:1"
         offset="0" />
      <stop
         id="stop3752-5"
         style="stop-color:#000000;stop-opacity:0.58823532"
         offset="1" />
    </linearGradient>
    <linearGradient
       x1="32.251034"
       y1="6.1317081"
       x2="32.251034"
       y2="90.238609"
       id="linearGradient3780"
       xlink:href="#ButtonShadow-0"
       gradientUnits="userSpaceOnUse"
       gradientTransform="matrix(1.0238095,0,0,1.0119048,-1.1428571,-98.071429)" />
    <linearGradient
       x1="32.251034"
       y1="6.1317081"
       x2="32.251034"
       y2="90.238609"
       id="linearGradient3772"
       xlink:href="#ButtonShadow-0"
       gradientUnits="userSpaceOnUse"
       gradientTransform="matrix(1.0238095,0,0,1.0119048,-1.1428571,-98.071429)" />
    <linearGradient
       x1="32.251034"
       y1="6.1317081"
       x2="32.251034"
       y2="90.238609"
       id="linearGradient3725"
       xlink:href="#ButtonShadow-0"
       gradientUnits="userSpaceOnUse"
       gradientTransform="matrix(1.0238095,0,0,1.0119048,-1.1428571,-98.071429)" />
    <linearGradient
       x1="32.251034"
       y1="6.1317081"
       x2="32.251034"
       y2="90.238609"
       id="linearGradient3721"
       xlink:href="#ButtonShadow-0"
       gradientUnits="userSpaceOnUse"
       gradientTransform="translate(0,-97)" />
    <linearGradient
       x1="32.251034"
       y1="6.1317081"
       x2="32.251034"
       y2="90.238609"
       id="linearGradient3026"
       xlink:href="#ButtonShadow-0"
       gradientUnits="userSpaceOnUse"
       gradientTransform="matrix(1.0238095,0,0,1.0119048,-1.1428571,-98.071429)" />
    <linearGradient
       x1="62.336792"
       y1="79.015236"
       x2="62.336792"
       y2="12.797539"
       id="linearGradient2936"
       xlink:href="#linearGradient3694"
       gradientUnits="userSpaceOnUse"
       gradientTransform="matrix(0.87485882,0,0,0.90698611,2.762671,6.33428)" />
    <linearGradient
       x1="55"
       y1="18"
       x2="55"
       y2="112"
       id="linearGradient3831"
       xlink:href="#linearGradient3825"
       gradientUnits="userSpaceOnUse" />
    <clipPath
       clipPathUnits="userSpaceOnUse"
       id="clipPath4156-4">
      <path
         style="opacity:0.6;fill:#ffffff;fill-opacity:1;stroke:none"
         d="m 27.046336,-55.695463 -14.21366,13.321486 0.06127,0 15.653407,21.770763 10.231384,-10.546177 C 38.561832,-32.30156 27.468089,-54.819245 27.046336,-55.695463 z M 9.6468554,-39.382809 -5.2407289,-25.32124 15.987863,-7.8059573 26.372412,-18.382966 9.6468554,-39.382809 z m 31.4906096,12.951445 -9.741259,9.713584 8.944804,12.4580526 7.780753,-7.5550056 -6.984298,-14.616631 z m -49.8397109,4.378822 -13.7541661,12.9822847 26.2830181,13.84571 0.06127,-0.0617 -0.122531,-0.0617 L 13.598503,-5.4007374 -8.7022409,-22.052595 z m 38.0154159,7.400825 -9.802525,9.7752596 11.579232,9.5594001 7.62759,-7.40083 -8.669108,-11.0087257 -0.735189,-0.925104 z m 20.187073,5.6739697 -7.382526,7.2158 6.187844,8.54179 5.820249,-6.13651996 -4.625567,-9.62107004 z m -32.195166,6.32154 -9.5574606,9.49772 13.6622686,7.1849703 7.933918,-7.6783603 -12.038726,-9.00433 z m 23.311629,2.37443004 -7.10683,6.93826996 8.362778,6.9074403 5.360756,-5.6739699 -0.06127,-0.0925 -0.0919,0.12335 -6.463539,-8.20258036 z m -8.730374,8.54178036 -7.505057,7.3391599 10.353916,5.45811 c 1.397496,-1.32103 5.67514,-6.12292 5.850882,-6.32154 L 31.886332,8.2600031 z"
         id="path4158-0"
         inkscape:connector-curvature="0" />
    </clipPath>
    <linearGradient
       inkscape:collect="always"
       id="linearGradient4213-7">
      <stop
         style="stop-color:#ffffff;stop-opacity:1;"
         offset="0"
         id="stop4215-6" />
      <stop
         style="stop-color:#ffffff;stop-opacity:0;"
         offset="1"
         id="stop4217-5" />
    </linearGradient>
    <linearGradient
       y2="14.514202"
       x2="50.527882"
       y1="-28.64156"
       x1="2.7713892"
       gradientUnits="userSpaceOnUse"
       id="linearGradient4707"
       xlink:href="#linearGradient4213-7"
       inkscape:collect="always" />
    <linearGradient
       id="linearGradient4746">
      <stop
         style="stop-color:#ffffff;stop-opacity:0;"
         offset="0"
         id="stop4748" />
      <stop
         id="stop4750"
         offset="0.30000001"
         style="stop-color:#ffffff;stop-opacity:1;" />
      <stop
         style="stop-color:#ffffff;stop-opacity:1;"
         offset="0.69999999"
         id="stop4752" />
      <stop
         style="stop-color:#ffffff;stop-opacity:0;"
         offset="1"
         id="stop4754" />
    </linearGradient>
    <linearGradient
       y2="48.399288"
       x2="83.68869"
       y1="49.026676"
       x1="6.9722528"
       gradientTransform="matrix(1,0,0,0.94706844,0,0.7239241)"
       gradientUnits="userSpaceOnUse"
       id="linearGradient4705"
       xlink:href="#linearGradient4341-9-4-5-2"
       inkscape:collect="always" />
    <linearGradient
       id="linearGradient4341-9-4-5-2">
      <stop
         style="stop-color:#ffffff;stop-opacity:0;"
         offset="0"
         id="stop4343-2-5-2-4" />
      <stop
         id="stop3954-0-91"
         offset="0.30000001"
         style="stop-color:#ffffff;stop-opacity:1;" />
      <stop
         style="stop-color:#ffffff;stop-opacity:1;"
         offset="0.69999999"
         id="stop3956-8-3" />
      <stop
         style="stop-color:#ffffff;stop-opacity:0;"
         offset="1"
         id="stop4347-6-0-8-7" />
    </linearGradient>
    <linearGradient
       y2="90.120811"
       x2="45.093063"
       y1="5.2661309"
       x1="46.03289"
       gradientUnits="userSpaceOnUse"
       id="linearGradient4703"
       xlink:href="#linearGradient4341-9-4-5-2"
       inkscape:collect="always" />
    <linearGradient
       id="linearGradient4727">
      <stop
         style="stop-color:#adb9c1;stop-opacity:1;"
         offset="0"
         id="stop4729" />
      <stop
         id="stop4731"
         offset="0.25"
         style="stop-color:#ffffff;stop-opacity:1;" />
      <stop
         id="stop4733"
         offset="0.5"
         style="stop-color:#909eaa;stop-opacity:1;" />
      <stop
         style="stop-color:#f9fafb;stop-opacity:1;"
         offset="0.75"
         id="stop4735" />
      <stop
         style="stop-color:#adb3c1;stop-opacity:1;"
         offset="1"
         id="stop4737" />
    </linearGradient>
    <linearGradient
       y2="48"
       x2="94.43325"
       y1="48"
       x1="1.5667458"
       gradientUnits="userSpaceOnUse"
       id="linearGradient4699"
       xlink:href="#linearGradient6139-0"
       inkscape:collect="always" />
    <linearGradient
       id="linearGradient6139-0">
      <stop
         style="stop-color:#adb9c1;stop-opacity:1;"
         offset="0"
         id="stop6141-2" />
      <stop
         id="stop6151-0"
         offset="0.25"
         style="stop-color:#ffffff;stop-opacity:1;" />
      <stop
         id="stop6147-1"
         offset="0.5"
         style="stop-color:#909eaa;stop-opacity:1;" />
      <stop
         style="stop-color:#f9fafb;stop-opacity:1;"
         offset="0.75"
         id="stop6149-4" />
      <stop
         style="stop-color:#adb3c1;stop-opacity:1;"
         offset="1"
         id="stop6143-4" />
    </linearGradient>
    <linearGradient
       y2="48"
       x2="94.43325"
       y1="48"
       x1="1.5667458"
       gradientUnits="userSpaceOnUse"
       id="linearGradient4701"
       xlink:href="#linearGradient6139-0"
       inkscape:collect="always" />
    <linearGradient
       x1="62.336792"
       y1="79.015236"
       x2="62.336792"
       y2="12.797539"
       id="linearGradient2936-5"
       xlink:href="#linearGradient3694-3"
       gradientUnits="userSpaceOnUse"
       gradientTransform="matrix(0.87485882,0,0,0.90698611,2.762671,6.33428)" />
    <linearGradient
       id="linearGradient3694-3">
      <stop
         id="stop3696-7"
         style="stop-color:#e6e6e6;stop-opacity:1"
         offset="0" />
      <stop
         id="stop3698-6"
         style="stop-color:#f5f5f5;stop-opacity:1"
         offset="1" />
    </linearGradient>
    <linearGradient
       x1="55"
       y1="18"
       x2="55"
       y2="112"
       id="linearGradient3831-5"
       xlink:href="#linearGradient3825-2"
       gradientUnits="userSpaceOnUse" />
    <linearGradient
       id="linearGradient3825-2">
      <stop
         id="stop3827-3"
         style="stop-color:#501616;stop-opacity:1"
         offset="0" />
      <stop
         id="stop3829-5"
         style="stop-color:#501616;stop-opacity:0"
         offset="1" />
    </linearGradient>
    <filter
       inkscape:collect="always"
       id="filter4317">
      <feGaussianBlur
         inkscape:collect="always"
         stdDeviation="0.24224407"
         id="feGaussianBlur4319" />
    </filter>
  </defs>
  <metadata
     id="metadata2413">
    <rdf:RDF>
      <cc:Work
         rdf:about="">
        <dc:format>image/svg+xml</dc:format>
        <dc:type
           rdf:resource="http://purl.org/dc/dcmitype/StillImage" />
        <dc:title></dc:title>
      </cc:Work>
    </rdf:RDF>
  </metadata>
  <g
     transform="translate(0,32)"
     inkscape:label="Layer 1"
     id="layer1">
    <g
       transform="translate(0,-32)"
       id="g4592">
      <g
         inkscape:label="ombre-base"
         id="layer2-5">
        <rect
           style="opacity:0.15;fill:#000000;fill-opacity:1;stroke:none"
           id="rect4266"
           width="96"
           height="96"
           x="0"
           y="0"
           rx="4.0634928"
           ry="4.0634933" />
        <rect
           ry="4.0211644"
           rx="4.0211644"
           y="0.5"
           x="0.5"
           height="95"
           width="95"
           id="rect4240"
           style="opacity:0.15;fill:#000000;fill-opacity:1;stroke:none" />
        <rect
           style="opacity:0.15;fill:#000000;fill-opacity:1;stroke:none"
           id="rect4264"
           width="94"
           height="94"
           x="1"
           y="1"
           rx="3.9788361"
           ry="3.9788361" />
      </g>
      <g
         inkscape:label="colore-globale"
         id="layer4-1"
         style="fill:url(#linearGradient4701);fill-opacity:1">
        <rect
           ry="4.381073"
           rx="4.4314661"
           y="1.5482712"
           x="1.5667458"
           height="92.903458"
           width="92.866508"
           id="rect4476"
           style="fill:url(#linearGradient4699);fill-opacity:1;stroke:none;display:inline" />
      </g>
      <rect
         style="opacity:0.83999999000000003;fill:#d40000;fill-opacity:1;stroke:none"
         id="rect4564"
         width="81"
         height="77"
         x="7.5"
         y="6.8000002" />
      <g
         transform="matrix(1.0821874,0,0,1.0821874,-3.9449952,-6.5348993)"
         id="layer4">
        <path
           d="m 72,18.019752 0,12.070101 C 59.948935,30.301609 56.987234,42.054076 56.987234,42.054076 l 9.089362,0 0,12.070102 -14.093617,0 C 43.506385,80.276063 24,77.946746 24,77.946746 l 0,-12.070102 c 0,0 12.378009,2.29621 18.689364,-20.752103 C 50.584291,16.293201 72,18.019752 72,18.019752 z"
           inkscape:connector-curvature="0"
           id="path3727"
           style="fill:url(#linearGradient2936-5);fill-opacity:1;stroke:none" />
        <path
           d="M 71.0625,18 C 66.855461,18.063706 49.595561,19.897577 42.6875,45.125 36.376145,68.173313 24,65.875 24,65.875 l 0,12.0625 c 0,0 19.492156,2.339385 27.96875,-23.8125 l 14.09375,0 0,-12.0625 -9.0625,0 c 0,0 2.948935,-11.756994 15,-11.96875 l 0,-12.0625 c 0,0 -0.336494,-0.04035 -0.9375,-0.03125 z M 71,19.062499 71,29.21875 c -5.756652,0.421836 -9.573527,3.384171 -11.8125,6.34375 -2.370885,3.133948 -3.15625,6.25 -3.15625,6.25 A 0.99278244,0.99278244 0 0 0 57,43.0625 l 8.0625,0 0,10.0625 -13.09375,0 a 0.99278244,0.99278244 0 0 0 -0.9375,0.6875 c -4.166805,12.855375 -10.927727,18.547337 -16.625,21.125 -4.866511,2.201794 -8.328029,2.072249 -9.40625,2 L 25,66.875 c 0.40845,0.02126 0.476194,0.07815 1.15625,0 1.378738,-0.158437 3.24037,-0.644163 5.3125,-1.875 4.144259,-2.461674 8.985949,-7.933321 12.1875,-19.625 C 47.54198,31.184772 54.64108,24.70964 60.75,21.656249 66.015834,19.024253 69.86141,19.026542 71,19.062499 z"
           inkscape:connector-curvature="0"
           id="path2902"
           style="opacity:0.25;fill:url(#linearGradient3831-5);fill-opacity:1;stroke:none" />
        <path
           d="M 71.0625,17 C 66.855461,17.063706 49.595561,18.897577 42.6875,44.125 36.376145,67.173313 24,64.875 24,64.875 l 0,1 c 0,0 12.376145,2.298313 18.6875,-20.75 C 50.582427,16.293661 72,18.031249 72,18.031249 l 0,-0.999999 c 0,0 -0.336494,-0.04035 -0.9375,-0.03125 z m -13.75,24.0625 c -0.205273,0.574173 -0.3125,1 -0.3125,1 l 9.0625,0 0,-1 -8.75,0 z"
           inkscape:connector-curvature="0"
           id="path3749"
           style="opacity:0.3;fill:#000000;fill-opacity:1;stroke:none" />
        <path
           d="M 72,30.09375 C 59.948935,30.305506 57,42.0625 57,42.0625 l 0.3125,0 C 58.303766,39.289815 62.016365,31.269178 72,31.09375 l 0,-1 z M 51.96875,54.125 C 43.492156,80.276885 24,77.9375 24,77.9375 l 0,1 c 0,0 19.492156,2.339385 27.96875,-23.8125 l 14.09375,0 0,-1 -14.09375,0 z"
           inkscape:connector-curvature="0"
           id="path3758"
           style="opacity:0.69090911;fill:#000000;fill-opacity:1;stroke:none;filter:url(#filter4317)" />
      </g>
      <g
         style="display:inline"
         transform="translate(0,48)"
         inkscape:label="struttura"
         id="layer1-1">
        <g
           id="g3540"
           transform="matrix(1.1078665,0,0,1.0952682,-3.7110067,-52.373354)">
          <g
             id="g4426"
             transform="matrix(1.0052356,0,0,1.0052432,-0.09130939,-0.47285394)">
            <g
               id="g4403"
               transform="matrix(1.0000054,0,0,0.99791236,-18.811946,8.9081587)">
              <g
                 transform="matrix(-0.93513772,0,0,0.50741219,164.9173,-44.868776)"
                 id="g3430">
                <g
                   transform="matrix(-0.6357251,0.0421819,-0.02490483,-1.0515558,92.671979,115.53352)"
                   id="g3446" />
              </g>
              <g
                 id="g4362"
                 transform="matrix(0.55214779,0,0,0.60391504,38.00101,36.337639)" />
              <g
                 id="g4370"
                 transform="matrix(1.0020877,0,0,0.50741219,-77.166961,-44.966244)">
                <g
                   id="g4372"
                   transform="matrix(-0.6357251,0.0421819,-0.02490483,-1.0515558,92.671979,115.53352)" />
              </g>
              <g
                 transform="matrix(-0.54985887,0,0,0.60140527,73.748586,27.648602)"
                 id="g4395">
                <path
                   id="path4397"
                   style="font-size:medium;font-style:normal;font-variant:normal;font-weight:normal;font-stretch:normal;text-indent:0;text-align:start;text-decoration:none;line-height:normal;letter-spacing:normal;word-spacing:normal;text-transform:none;direction:ltr;block-progression:tb;writing-mode:lr-tb;text-anchor:start;baseline-shift:baseline;color:#000000;fill:none;stroke:#000000;stroke-width:0.91645002;stroke-miterlimit:4;stroke-opacity:1;stroke-dasharray:none;marker:none;visibility:visible;display:inline;overflow:visible;enable-background:accumulate;font-family:Sans;-inkscape-font-specification:Sans"
                   d="m 81.416281,73.57243 7.015717,6.674207 c -0.04232,3.967765 0.267984,3.842136 0.209905,6.856172 l -0.233189,-6.885985 -6.851206,-6.554195 c 0.06319,0.02357 -0.14122,-0.0902 -0.141227,-0.0902 z m 0.128518,-116.84693 -132.42878,0 0,116.886744 132.42878,0 z m -0.0068,0.182069 c -0.06596,-0.193099 0.133853,0.166431 -0.130188,-0.06464 l 6.96657,-5.577062 c -3.856986,3.163036 -3.790312,3.114807 -6.836382,5.641697 z M -57.451698,87.684046 c -0.04912,-2.679077 -0.07535,-3.505172 -0.194086,-7.549371 l 6.716657,-6.538949 c -2.13931,2.072124 -2.544718,2.569935 -6.730646,6.617394 0.146859,4.794939 0.163153,4.762112 0.208075,7.470926 z m 6.62685,-131.022557 c -3.898951,-2.68663 -3.781384,-2.595646 -7.538651,-5.119524 3.56574,2.36666 3.494875,2.295153 7.538651,5.119524 z m 133.851173,-7.36451 -135.391831,0 c -4.284327,0 -7.73344,2.768522 -7.73344,6.207448 l 0,127.44745 c 0,3.438927 3.449113,6.207449 7.73344,6.207449 l 135.391831,0 c 4.284326,0 7.73344,-2.768522 7.73344,-6.207449 l 0,-127.44745 c 0,-3.438926 -3.449114,-6.207448 -7.73344,-6.207448 z"
                   inkscape:connector-curvature="0"
                   sodipodi:nodetypes="cccccccccccccccccccccccsssssssss" />
              </g>
            </g>
          </g>
          <path
             style="opacity:0.75605636;fill:url(#linearGradient4703);fill-opacity:1;stroke:none"
             d="m 8.8575421,5.6172779 c -2.2421114,0 -4.0553236,1.7633849 -4.0553236,3.9269464 l 0,76.7690367 c 0,2.163561 1.8132122,3.926947 4.0553236,3.926947 l 75.7359079,0 c 2.242112,0 4.055324,-1.763386 4.055324,-3.926947 l 0,-76.7690367 c 0,-2.1635615 -1.813212,-3.9269464 -4.055324,-3.9269464 l -75.7359079,0 z m -2.5208768,1.7698914 80.7776617,0 0,76.9902727 -80.7776617,0 0,-76.9902727 z"
             id="rect4474"
             inkscape:connector-curvature="0" />
          <path
             inkscape:connector-curvature="0"
             id="path4520"
             d="m 8.8575421,6.0438707 c -2.2421114,0 -4.0553236,1.6700462 -4.0553236,3.7190869 l 0,72.7055314 c 0,2.04904 1.8132122,3.719088 4.0553236,3.719088 l 75.7359079,0 c 2.242112,0 4.055324,-1.670048 4.055324,-3.719088 l 0,-72.7055314 c 0,-2.0490407 -1.813212,-3.7190869 -4.055324,-3.7190869 l -75.7359079,0 z m -2.5208768,1.6762083 80.7776617,0 0,72.915057 -80.7776617,0 0,-72.915057 z"
             style="opacity:0.90363638;fill:url(#linearGradient4705);fill-opacity:1;stroke:none" />
          <path
             style="fill:#000000;fill-opacity:0.51937986;stroke:none"
             d="m 4.8570204,80.162841 0,5.640899 c 0,2.40151 1.924933,4.336651 4.3293319,4.336651 l 75.0782877,0 c 2.404399,0 4.329332,-1.935141 4.329332,-4.336651 l 0,-5.640899 c 0,2.401505 -1.924933,4.336646 -4.329332,4.336646 l -75.0782877,0 c -2.4043989,0 -4.3293319,-1.935141 -4.3293319,-4.336646 z"
             id="rect4466"
             inkscape:connector-curvature="0" />
        </g>
      </g>
      <g
         inkscape:label="luci-superiori"
         id="layer7">
        <rect
           clip-path="url(#clipPath4156-4)"
           ry="3.9569881"
           rx="3.9569874"
           y="-30"
           x="2"
           height="92"
           width="92"
           id="rect4146"
           style="opacity:0.8;fill:url(#linearGradient4707);fill-opacity:1;stroke:none"
           transform="matrix(0.99891115,0,0,1,0.0021777,32.042727)" />
        <path
           inkscape:connector-curvature="0"
           id="rect4190"
           d="M 5.7458937,1.787 C 3.5462186,1.787 1.7683159,3.6473696 1.763558,5.9429206 L 1.6,84.85541 c 2.1117646,2.843617 1.83765,2.719224 5.3536755,3.021845 C 8.0064488,79.013649 16.427783,56.045295 34.331254,36.838908 49.801067,20.243287 71.107267,5.1575498 92.385215,5.1575498 c 0.538595,0 1.062975,0.022399 1.599205,0.032724 C 93.650213,3.2524245 92.052181,1.787 90.096156,1.787 z"
           style="opacity:0.2;fill:#ffffff;fill-opacity:1;stroke:none"
           sodipodi:nodetypes="ssccsscss" />
      </g>
    </g>
  </g>
  <g
     id="layer2"
     style="display:none">
    <rect
       width="86"
       height="85"
       rx="6"
       ry="6"
       x="5"
       y="7"
       id="rect3745"
       style="opacity:0.9;fill:url(#ButtonShadow);fill-opacity:1;fill-rule:nonzero;stroke:none;filter:url(#filter3174)" />
  </g>
  <g
     id="layer5" />
</svg>
