<?xml version="1.0" encoding="UTF-8" standalone="no"?>
<!-- Created with Inkscape (http://www.inkscape.org/) -->

<svg
   xmlns:dc="http://purl.org/dc/elements/1.1/"
   xmlns:cc="http://creativecommons.org/ns#"
   xmlns:rdf="http://www.w3.org/1999/02/22-rdf-syntax-ns#"
   xmlns:svg="http://www.w3.org/2000/svg"
   xmlns="http://www.w3.org/2000/svg"
   xmlns:xlink="http://www.w3.org/1999/xlink"
   xmlns:sodipodi="http://sodipodi.sourceforge.net/DTD/sodipodi-0.dtd"
   xmlns:inkscape="http://www.inkscape.org/namespaces/inkscape"
   width="96"
   height="96"
   id="svg2"
   version="1.1"
   inkscape:version="0.48.5 r10040"
   sodipodi:docname="folder-copyapp.svg">
  <script
     xlink:href=""
     id="script2985" />
  <defs
     id="defs4">
    <linearGradient
       id="linearGradient3832">
      <stop
         id="stop3834"
         offset="0"
         style="stop-color:#d8d8d8;stop-opacity:0;" />
      <stop
         style="stop-color:#ffffff;stop-opacity:1;"
         offset="0.05"
         id="stop3842" />
      <stop
         id="stop3846"
         offset="0.1"
         style="stop-color:#d8d8d8;stop-opacity:0;" />
      <stop
         style="stop-color:#d8d8d8;stop-opacity:0;"
         offset="0.5"
         id="stop3840" />
      <stop
         id="stop3844"
         offset="0.89999998"
         style="stop-color:#d8d8d8;stop-opacity:0;" />
      <stop
         style="stop-color:#ffffff;stop-opacity:1;"
         offset="0.94999999"
         id="stop3848" />
      <stop
         id="stop3836"
         offset="1"
         style="stop-color:#d8d8d8;stop-opacity:0;" />
    </linearGradient>
    <linearGradient
       id="linearGradient4125"
       inkscape:collect="always">
      <stop
         id="stop4127"
         offset="0"
         style="stop-color:#ffffff;stop-opacity:1;" />
      <stop
         id="stop4129"
         offset="1"
         style="stop-color:#ffffff;stop-opacity:0;" />
    </linearGradient>
    <linearGradient
       id="linearGradient3298">
      <stop
         id="stop3300"
         offset="0"
         style="stop-color:#000000;stop-opacity:1;" />
      <stop
         style="stop-color:#ffffff;stop-opacity:1;"
         offset="0.05"
         id="stop3302" />
      <stop
         id="stop3304"
         offset="0.1"
         style="stop-color:#000000;stop-opacity:1;" />
      <stop
         style="stop-color:#000000;stop-opacity:0.49803922;"
         offset="0.5"
         id="stop3306" />
      <stop
         id="stop3308"
         offset="0.89999998"
         style="stop-color:#000000;stop-opacity:1;" />
      <stop
         style="stop-color:#ffffff;stop-opacity:1;"
         offset="0.94999999"
         id="stop3310" />
      <stop
         id="stop3312"
         offset="1"
         style="stop-color:#000000;stop-opacity:1;" />
    </linearGradient>
    <linearGradient
       id="linearGradient4188">
      <stop
         id="stop4190"
         offset="0"
         style="stop-color:#ffffff;stop-opacity:0;" />
      <stop
         style="stop-color:#ffffff;stop-opacity:1;"
         offset="0.15000001"
         id="stop4198" />
      <stop
         style="stop-color:#ffffff;stop-opacity:1;"
         offset="0.85000002"
         id="stop4196" />
      <stop
         id="stop4192"
         offset="1"
         style="stop-color:#ffffff;stop-opacity:0;" />
    </linearGradient>
    <filter
       id="filter4139"
       inkscape:collect="always"
       color-interpolation-filters="sRGB">
      <feGaussianBlur
         id="feGaussianBlur4141"
         stdDeviation="0.79365079"
         inkscape:collect="always" />
    </filter>
    <linearGradient
       id="linearGradient4103-4">
      <stop
         style="stop-color:#bdecfb;stop-opacity:1"
         offset="0"
         id="stop4105-4" />
      <stop
         style="stop-color:#f5feff;stop-opacity:1"
         offset="1"
         id="stop4107-2" />
    </linearGradient>
    <linearGradient
       id="linearGradient4314-5">
      <stop
         style="stop-color:#ff4b00;stop-opacity:1"
         offset="0"
         id="stop4316-5" />
      <stop
         style="stop-color:#ff5500;stop-opacity:1"
         offset="1"
         id="stop4318-8" />
    </linearGradient>
    <linearGradient
       id="linearGradient3414">
      <stop
         id="stop3416"
         offset="0"
         style="stop-color:#e28929;stop-opacity:1;" />
      <stop
         style="stop-color:#ca7414;stop-opacity:1;"
         offset="1"
         id="stop3418" />
    </linearGradient>
    <linearGradient
       id="linearGradient3904"
       inkscape:collect="always">
      <stop
         id="stop3906"
         offset="0"
         style="stop-color:#ffffff;stop-opacity:1;" />
      <stop
         id="stop3908"
         offset="1"
         style="stop-color:#ffffff;stop-opacity:0;" />
    </linearGradient>
    <linearGradient
       id="linearGradient3872">
      <stop
         id="stop3874"
         offset="0"
         style="stop-color:#e28929;stop-opacity:1;" />
      <stop
         style="stop-color:#ca7414;stop-opacity:1;"
         offset="1"
         id="stop3880" />
    </linearGradient>
    <radialGradient
       inkscape:collect="always"
       xlink:href="#linearGradient3872"
       id="radialGradient5970"
       gradientUnits="userSpaceOnUse"
       gradientTransform="matrix(1.115042,0,0,1.1151028,-27.885654,-37.125064)"
       cx="48"
       cy="46.50005"
       fx="48"
       fy="46.50005"
       r="42.150002" />
    <radialGradient
       inkscape:collect="always"
       xlink:href="#linearGradient3904"
       id="radialGradient5972"
       gradientUnits="userSpaceOnUse"
       gradientTransform="matrix(1.6991473,0.00433809,-9.9578932e-5,0.01373135,-31.241655,-184.99247)"
       cx="44.658661"
       cy="-187.51126"
       fx="44.658661"
       fy="-187.51126"
       r="36.915546" />
    <radialGradient
       inkscape:collect="always"
       xlink:href="#linearGradient3414"
       id="radialGradient5974"
       gradientUnits="userSpaceOnUse"
       gradientTransform="matrix(0.9926597,0,0,0.77953801,-22.317452,-17.933543)"
       cx="48.308414"
       cy="46.87989"
       fx="48.308414"
       fy="46.87989"
       r="47.087845" />
    <linearGradient
       inkscape:collect="always"
       xlink:href="#linearGradient4103-4"
       id="linearGradient5976"
       gradientUnits="userSpaceOnUse"
       gradientTransform="matrix(0.9473684,0,0,0.9473684,1.2631574,-949.39582)"
       x1="27.625"
       y1="1044.3623"
       x2="27.625"
       y2="1025.3623" />
    <linearGradient
       inkscape:collect="always"
       xlink:href="#linearGradient4314-5"
       id="linearGradient5978"
       gradientUnits="userSpaceOnUse"
       gradientTransform="matrix(0.9473684,0,0,0.9473684,1.2631576,54.966481)"
       x1="25.055557"
       y1="1036.9734"
       x2="25.055557"
       y2="1032.7512" />
    <linearGradient
       inkscape:collect="always"
       xlink:href="#linearGradient4188"
       id="linearGradient5980"
       gradientUnits="userSpaceOnUse"
       gradientTransform="matrix(1.115042,0,0,1.1151028,-27.885654,-39.35527)"
       x1="6.25"
       y1="80.625"
       x2="89.75"
       y2="80.625" />
    <linearGradient
       inkscape:collect="always"
       xlink:href="#linearGradient3298"
       id="linearGradient5982"
       gradientUnits="userSpaceOnUse"
       gradientTransform="matrix(0.9926597,0,0,0.98120132,-22.317452,-27.387497)"
       x1="1.1209135"
       y1="84.062775"
       x2="95.495911"
       y2="84.062775" />
    <linearGradient
       inkscape:collect="always"
       xlink:href="#linearGradient4125"
       id="linearGradient5984"
       gradientUnits="userSpaceOnUse"
       gradientTransform="matrix(0.9926597,0,0,0.98120132,-22.838532,-28.000244)"
       x1="44.725632"
       y1="59.74646"
       x2="22.635189"
       y2="34.832417" />
    <linearGradient
       inkscape:collect="always"
       xlink:href="#linearGradient3832"
       id="linearGradient5986"
       gradientUnits="userSpaceOnUse"
       gradientTransform="matrix(1.115042,0,0,1.0364664,-27.885653,-30.476628)"
       x1="6.0759845"
       y1="47.472744"
       x2="89.924011"
       y2="47.472744" />
    <linearGradient
       y2="47.472744"
       x2="89.924011"
       y1="47.472744"
       x1="6.0759845"
       gradientTransform="matrix(1.115042,0,0,1.0364664,-14.431108,-28.476628)"
       gradientUnits="userSpaceOnUse"
       id="linearGradient3889"
       xlink:href="#linearGradient3832-1"
       inkscape:collect="always" />
    <linearGradient
       id="linearGradient3832-1">
      <stop
         id="stop3834-8"
         offset="0"
         style="stop-color:#d8d8d8;stop-opacity:0;" />
      <stop
         style="stop-color:#ffffff;stop-opacity:1;"
         offset="0.05"
         id="stop3842-5" />
      <stop
         id="stop3846-7"
         offset="0.1"
         style="stop-color:#d8d8d8;stop-opacity:0;" />
      <stop
         style="stop-color:#d8d8d8;stop-opacity:0;"
         offset="0.5"
         id="stop3840-2" />
      <stop
         id="stop3844-0"
         offset="0.89999998"
         style="stop-color:#d8d8d8;stop-opacity:0;" />
      <stop
         style="stop-color:#ffffff;stop-opacity:1;"
         offset="0.94999999"
         id="stop3848-7" />
      <stop
         id="stop3836-6"
         offset="1"
         style="stop-color:#d8d8d8;stop-opacity:0;" />
    </linearGradient>
    <linearGradient
       inkscape:collect="always"
       xlink:href="#linearGradient4125-7"
       id="linearGradient3477"
       gradientUnits="userSpaceOnUse"
       gradientTransform="matrix(0.9926597,0,0,0.98120132,-9.383986,-26.000244)"
       x1="44.725632"
       y1="59.74646"
       x2="22.635189"
       y2="34.832417" />
    <linearGradient
       id="linearGradient4125-7"
       inkscape:collect="always">
      <stop
         id="stop4127-1"
         offset="0"
         style="stop-color:#ffffff;stop-opacity:1;" />
      <stop
         id="stop4129-1"
         offset="1"
         style="stop-color:#ffffff;stop-opacity:0;" />
    </linearGradient>
    <linearGradient
       gradientTransform="matrix(0.9926597,0,0,0.98120132,-8.8629062,-25.387497)"
       y2="84.062775"
       x2="95.495911"
       y1="84.062775"
       x1="1.1209135"
       gradientUnits="userSpaceOnUse"
       id="linearGradient3893"
       xlink:href="#linearGradient3298-8"
       inkscape:collect="always" />
    <linearGradient
       id="linearGradient3298-8">
      <stop
         id="stop3300-4"
         offset="0"
         style="stop-color:#000000;stop-opacity:1;" />
      <stop
         style="stop-color:#ffffff;stop-opacity:1;"
         offset="0.05"
         id="stop3302-8" />
      <stop
         id="stop3304-2"
         offset="0.1"
         style="stop-color:#000000;stop-opacity:1;" />
      <stop
         style="stop-color:#000000;stop-opacity:0.49803922;"
         offset="0.5"
         id="stop3306-5" />
      <stop
         id="stop3308-2"
         offset="0.89999998"
         style="stop-color:#000000;stop-opacity:1;" />
      <stop
         style="stop-color:#ffffff;stop-opacity:1;"
         offset="0.94999999"
         id="stop3310-3" />
      <stop
         id="stop3312-5"
         offset="1"
         style="stop-color:#000000;stop-opacity:1;" />
    </linearGradient>
    <linearGradient
       y2="80.625"
       x2="89.75"
       y1="80.625"
       x1="6.25"
       gradientTransform="matrix(1.115042,0,0,1.1151028,-14.431109,-37.35527)"
       gradientUnits="userSpaceOnUse"
       id="linearGradient3891"
       xlink:href="#linearGradient4188-8"
       inkscape:collect="always" />
    <linearGradient
       id="linearGradient4188-8">
      <stop
         id="stop4190-9"
         offset="0"
         style="stop-color:#ffffff;stop-opacity:0;" />
      <stop
         style="stop-color:#ffffff;stop-opacity:1;"
         offset="0.15000001"
         id="stop4198-0" />
      <stop
         style="stop-color:#ffffff;stop-opacity:1;"
         offset="0.85000002"
         id="stop4196-3" />
      <stop
         id="stop4192-5"
         offset="1"
         style="stop-color:#ffffff;stop-opacity:0;" />
    </linearGradient>
    <filter
       id="filter4139-5"
       inkscape:collect="always"
       color-interpolation-filters="sRGB">
      <feGaussianBlur
         id="feGaussianBlur4141-3"
         stdDeviation="0.79365079"
         inkscape:collect="always" />
    </filter>
    <linearGradient
       y2="1026.3622"
       x2="25"
       y1="1044.3622"
       x1="25"
       gradientUnits="userSpaceOnUse"
       id="linearGradient6090"
       xlink:href="#linearGradient5020-3"
       inkscape:collect="always" />
    <linearGradient
       inkscape:collect="always"
       id="linearGradient5020-3">
      <stop
         style="stop-color:#282828;stop-opacity:1"
         offset="0"
         id="stop5022-4" />
      <stop
         style="stop-color:#3b3c3d;stop-opacity:1"
         offset="1"
         id="stop5024-01" />
    </linearGradient>
    <radialGradient
       inkscape:collect="always"
       xlink:href="#linearGradient4103"
       id="radialGradient6117"
       cx="48.308414"
       cy="46.87989"
       fx="48.308414"
       fy="46.87989"
       r="47.087845"
       gradientTransform="matrix(0.9926597,0,0,0.77953801,-8.8629062,-15.933543)"
       gradientUnits="userSpaceOnUse" />
    <linearGradient
       id="linearGradient4103">
      <stop
         style="stop-color:#c0c0c0;stop-opacity:1;"
         offset="0"
         id="stop4105" />
      <stop
         id="stop6115"
         offset="0.5"
         style="stop-color:#f4f5f5;stop-opacity:1;" />
      <stop
         style="stop-color:#c9c9c9;stop-opacity:1;"
         offset="1"
         id="stop4107" />
    </linearGradient>
    <radialGradient
       r="36.915546"
       fy="-187.51126"
       fx="44.658661"
       cy="-187.51126"
       cx="44.658661"
       gradientTransform="matrix(1.6991473,0.00433809,-9.9578932e-5,0.01373135,-31.241655,-184.99247)"
       gradientUnits="userSpaceOnUse"
       id="radialGradient3885"
       xlink:href="#linearGradient3904-7"
       inkscape:collect="always" />
    <linearGradient
       id="linearGradient3904-7"
       inkscape:collect="always">
      <stop
         id="stop3906-0"
         offset="0"
         style="stop-color:#ffffff;stop-opacity:1;" />
      <stop
         id="stop3908-9"
         offset="1"
         style="stop-color:#ffffff;stop-opacity:0;" />
    </linearGradient>
    <radialGradient
       gradientTransform="matrix(1.115042,0,0,1.1151028,-14.431109,-35.125064)"
       r="42.150002"
       fy="46.50005"
       fx="48"
       cy="46.50005"
       cx="48"
       gradientUnits="userSpaceOnUse"
       id="radialGradient3883"
       xlink:href="#linearGradient4103"
       inkscape:collect="always" />
    <linearGradient
       id="linearGradient6264">
      <stop
         style="stop-color:#c0c0c0;stop-opacity:1;"
         offset="0"
         id="stop6266" />
      <stop
         id="stop6268"
         offset="0.5"
         style="stop-color:#f4f5f5;stop-opacity:1;" />
      <stop
         style="stop-color:#c9c9c9;stop-opacity:1;"
         offset="1"
         id="stop6270" />
    </linearGradient>
    <radialGradient
       inkscape:collect="always"
       xlink:href="#linearGradient4103"
       id="radialGradient6491"
       gradientUnits="userSpaceOnUse"
       gradientTransform="matrix(1.115042,0,0,1.1151028,-14.431109,-35.125064)"
       cx="48"
       cy="46.50005"
       fx="48"
       fy="46.50005"
       r="42.150002" />
    <radialGradient
       inkscape:collect="always"
       xlink:href="#linearGradient3904-7"
       id="radialGradient6493"
       gradientUnits="userSpaceOnUse"
       gradientTransform="matrix(1.6991473,0.00433809,-9.9578932e-5,0.01373135,-31.241655,-184.99247)"
       cx="44.658661"
       cy="-187.51126"
       fx="44.658661"
       fy="-187.51126"
       r="36.915546" />
    <radialGradient
       inkscape:collect="always"
       xlink:href="#linearGradient4103"
       id="radialGradient6495"
       gradientUnits="userSpaceOnUse"
       gradientTransform="matrix(0.9926597,0,0,0.77953801,-8.8629062,-15.933543)"
       cx="48.308414"
       cy="46.87989"
       fx="48.308414"
       fy="46.87989"
       r="47.087845" />
    <linearGradient
       inkscape:collect="always"
       xlink:href="#linearGradient5020-3"
       id="linearGradient6497"
       gradientUnits="userSpaceOnUse"
       x1="25"
       y1="1044.3622"
       x2="25"
       y2="1026.3622" />
    <linearGradient
       inkscape:collect="always"
       xlink:href="#linearGradient4188-8"
       id="linearGradient6499"
       gradientUnits="userSpaceOnUse"
       gradientTransform="matrix(1.115042,0,0,1.1151028,-14.431109,-37.35527)"
       x1="6.25"
       y1="80.625"
       x2="89.75"
       y2="80.625" />
    <linearGradient
       inkscape:collect="always"
       xlink:href="#linearGradient3298-8"
       id="linearGradient6501"
       gradientUnits="userSpaceOnUse"
       gradientTransform="matrix(0.9926597,0,0,0.98120132,-8.8629062,-25.387497)"
       x1="1.1209135"
       y1="84.062775"
       x2="95.495911"
       y2="84.062775" />
    <linearGradient
       inkscape:collect="always"
       xlink:href="#linearGradient4125-7"
       id="linearGradient6503"
       gradientUnits="userSpaceOnUse"
       gradientTransform="matrix(0.9926597,0,0,0.98120132,-9.383986,-26.000244)"
       x1="44.725632"
       y1="59.74646"
       x2="22.635189"
       y2="34.832417" />
    <linearGradient
       inkscape:collect="always"
       xlink:href="#linearGradient3832-1"
       id="linearGradient6505"
       gradientUnits="userSpaceOnUse"
       gradientTransform="matrix(1.115042,0,0,1.0364664,-14.431108,-28.476628)"
       x1="6.0759845"
       y1="47.472744"
       x2="89.924011"
       y2="47.472744" />
  </defs>
  <sodipodi:namedview
     id="base"
     pagecolor="#ffffff"
     bordercolor="#666666"
     borderopacity="1.0"
     inkscape:pageopacity="0.0"
     inkscape:pageshadow="2"
     inkscape:zoom="5.5"
     inkscape:cx="6.7272727"
     inkscape:cy="32"
     inkscape:current-layer="layer1"
     showgrid="true"
     inkscape:document-units="px"
     inkscape:grid-bbox="true"
     inkscape:showpageshadow="false"
     gridtolerance="1"
     guidetolerance="1"
     objecttolerance="1"
     inkscape:window-width="1280"
     inkscape:window-height="966"
     inkscape:window-x="0"
     inkscape:window-y="0"
     inkscape:window-maximized="1" />
  <metadata
     id="metadata7">
    <rdf:RDF>
      <cc:Work
         rdf:about="">
        <dc:format>image/svg+xml</dc:format>
        <dc:type
           rdf:resource="http://purl.org/dc/dcmitype/StillImage" />
        <dc:title></dc:title>
      </cc:Work>
    </rdf:RDF>
  </metadata>
  <g
     id="layer1"
     inkscape:label="Layer 1"
     inkscape:groupmode="layer"
     transform="translate(0,32)">
    <g
       id="g6460"
       transform="translate(8.909091,-0.727273)">
      <path
         inkscape:connector-curvature="0"
         id="path3897"
         d="m 80.233766,-31.272727 -82.2857141,0 c -3.7988571,0 -6.8571428,3.058286 -6.8571428,6.857143 l 0,82.285715 c 0,3.798857 3.0582857,6.857142 6.8571428,6.857142 l 82.2857141,0 c 3.798857,0 6.857143,-3.058285 6.857143,-6.857142 l 0,-82.285715 c 0,-3.798857 -3.058286,-6.857143 -6.857143,-6.857143 z"
         style="opacity:0.15;fill:#000000;fill-opacity:1;fill-rule:nonzero;stroke:none;display:inline;enable-background:new" />
      <path
         style="opacity:0.25;fill:#000000;fill-opacity:1;fill-rule:nonzero;stroke:none;display:inline;enable-background:new"
         d="m 79.805194,-30.772727 -81.4285709,0 c -3.7592858,0 -6.7857143,3.026429 -6.7857143,6.785714 l 0,81.428573 c 0,3.759285 3.0264285,6.785713 6.7857143,6.785713 l 81.4285709,0 c 3.759286,0 6.785715,-3.026428 6.785715,-6.785713 l 0,-81.428573 c 0,-3.759285 -3.026429,-6.785714 -6.785715,-6.785714 z"
         id="path3895"
         inkscape:connector-curvature="0" />
      <path
         inkscape:connector-curvature="0"
         id="rect2419-1"
         d="m 79.232419,-30.107046 -80.2830237,0 c -3.7063996,0 -6.690252,2.984016 -6.690252,6.690617 l 0,80.287402 c 0,3.706601 2.9838524,6.690617 6.690252,6.690617 l 80.2830237,0 c 3.7064,0 6.690252,-2.984016 6.690252,-6.690617 l 0,-80.287402 c 0,-3.706602 -2.983852,-6.690617 -6.690252,-6.690617 z"
         style="fill:url(#radialGradient6491);fill-opacity:1;fill-rule:nonzero;stroke:#6f5327;stroke-width:0.33452174;stroke-miterlimit:4;stroke-opacity:1;stroke-dasharray:none;display:inline;enable-background:new" />
      <g
         transform="matrix(0,-1.0858858,1.115042,0,-9.9709406,175.21301)"
         id="g4855"
         style="enable-background:new">
        <path
           style="font-size:medium;font-style:normal;font-variant:normal;font-weight:normal;font-stretch:normal;text-indent:0;text-align:start;text-decoration:none;line-height:normal;letter-spacing:normal;word-spacing:normal;text-transform:none;direction:ltr;block-progression:tb;writing-mode:lr-tb;text-anchor:start;baseline-shift:baseline;opacity:0.13718411;color:#000000;fill:#000000;fill-opacity:1;fill-rule:nonzero;stroke:none;stroke-width:2;marker:none;visibility:visible;display:inline;overflow:visible;enable-background:accumulate;font-family:Sans;-inkscape-font-specification:Sans"
           d="m 117.21875,6.0978533 c -3.921,0 -7.125,3.2039995 -7.125,7.1250017 l 0,60.5625 c 0,3.921001 3.204,7.125 7.125,7.125 l 61.5625,0 c 3.921,0 7.125,-3.203999 7.125,-7.125 l 0,-60.5625 c 0,-3.9210022 -3.204,-7.1250017 -7.125,-7.1250017 z"
           id="path4843"
           inkscape:connector-curvature="0"
           sodipodi:nodetypes="sssssssss" />
        <path
           sodipodi:nodetypes="sssssssss"
           inkscape:connector-curvature="0"
           id="path4849"
           d="m 117.21875,6.8132616 c -3.37935,0 -6.125,2.745652 -6.125,6.1250004 l 0,61.5625 c 0,3.379348 2.74565,6.125 6.125,6.125 l 61.5625,0 c 3.37935,0 6.125,-2.745652 6.125,-6.125 l 0,-61.5625 c 0,-3.3793484 -2.74565,-6.1250004 -6.125,-6.1250004 z"
           style="font-size:medium;font-style:normal;font-variant:normal;font-weight:normal;font-stretch:normal;text-indent:0;text-align:start;text-decoration:none;line-height:normal;letter-spacing:normal;word-spacing:normal;text-transform:none;direction:ltr;block-progression:tb;writing-mode:lr-tb;text-anchor:start;baseline-shift:baseline;opacity:0.24548735;color:#000000;fill:#000000;fill-opacity:1;fill-rule:nonzero;stroke:none;stroke-width:2;marker:none;visibility:visible;display:inline;overflow:visible;enable-background:accumulate;font-family:Sans;-inkscape-font-specification:Sans" />
        <path
           inkscape:connector-curvature="0"
           id="path4046"
           d="m 183.704,12.924914 c 0,-2.842793 -2.24202,-5.1189045 -5.02625,-5.1189045 l -30.72224,0 c 2.78423,0 5.02625,2.2761115 5.02625,5.1189045 l 0,61.59377 c 0,2.842793 -2.24202,5.118904 -5.02625,5.118904 l 30.72224,0 c 2.78423,0 5.02625,-2.276111 5.02625,-5.118904 l 0,-61.59377 z"
           style="fill:#f9fff5;fill-opacity:1;fill-rule:nonzero;stroke:#b4b4b4;stroke-width:0.43740079;stroke-miterlimit:4;stroke-opacity:1;stroke-dasharray:none;display:inline" />
        <path
           style="opacity:0.4;fill:#ffffff;fill-opacity:1;fill-rule:nonzero;stroke:none;display:inline"
           d="m 115.70813,79.153964 0,1 c 0.26183,2.593688 2.46002,4.59375 5.125,4.59375 l 61.5625,0 c 2.66498,0 4.86317,-2.000062 5.125,-4.59375 l 0,-1 c -0.26183,2.593688 -2.46002,4.59375 -5.125,4.59375 l -61.5625,0 c -2.66498,0 -4.86317,-2.000062 -5.125,-4.59375 z"
           id="path4815"
           inkscape:connector-curvature="0" />
        <path
           style="opacity:0.5;fill:#ffffff;fill-opacity:1;fill-rule:nonzero;stroke:none;display:inline"
           d="m 116.6875,7.8132616 c -2.59369,0.2618304 -4.59375,2.4600194 -4.59375,5.1250004 l 0,0.46875 c 0.26183,-2.593688 2.46002,-4.5937504 5.125,-4.5937504 l 61.5625,0 c 2.66498,0 4.86317,2.0000624 5.125,4.5937504 l 0,-0.46875 c 0,-2.842646 -2.28235,-5.1250004 -5.125,-5.1250004 l -61.5625,0 c -0.17767,0 -0.35834,-0.017455 -0.53125,0 z"
           id="path4820"
           inkscape:connector-curvature="0" />
        <path
           inkscape:connector-curvature="0"
           id="path3896"
           d="m 115.70813,8.642517 0,-1 c 0.26183,-2.593688 2.46002,-4.59375 5.125,-4.59375 l 61.5625,0 c 2.66498,0 4.86317,2.000062 5.125,4.59375 l 0,1 c -0.26183,-2.593688 -2.46002,-4.59375 -5.125,-4.59375 l -61.5625,0 c -2.66498,0 -4.86317,2.000062 -5.125,4.59375 z"
           style="opacity:0.4;fill:#ffffff;fill-opacity:1;fill-rule:nonzero;stroke:none;display:inline" />
        <rect
           transform="matrix(0,1,-1,0,0,0)"
           y="-187.82706"
           x="7.7431121"
           height="0.90709358"
           width="73.831093"
           id="rect3902"
           style="opacity:0.42599278;fill:url(#radialGradient6493);fill-opacity:1;stroke:none" />
        <path
           style="fill:#e9ffdb;fill-opacity:1;fill-rule:nonzero;stroke:#b4b4b4;stroke-width:0.43740079;stroke-miterlimit:4;stroke-opacity:1;stroke-dasharray:none;display:inline"
           d="m 183.73251,12.934304 c 0,-2.842793 -2.24202,-5.1189033 -5.02625,-5.1189033 l -5.42158,0 c 2.78424,0 5.02625,2.2761103 5.02625,5.1189033 l 0,61.593771 c 0,2.842793 -2.24201,5.118904 -5.02625,5.118904 l 5.42158,0 c 2.78423,0 5.02625,-2.276111 5.02625,-5.118904 l 0,-61.593771 z"
           id="path3899"
           inkscape:connector-curvature="0" />
        <path
           inkscape:connector-curvature="0"
           id="path3086"
           d="m 180.04889,12.895838 c 0,-2.84197 -2.24202,-5.1174216 -5.02625,-5.1174216 l -5.42158,0 c 2.78424,0 5.02625,2.2754516 5.02625,5.1174216 l 0,61.575928 c 0,2.84197 -2.24201,5.117422 -5.02625,5.117422 l 5.42158,0 c 2.78423,0 5.02625,-2.275452 5.02625,-5.117422 l 0,-61.575928 z"
           style="fill:#ffecfe;fill-opacity:1;fill-rule:nonzero;stroke:#b4b4b4;stroke-width:0.43733743;stroke-miterlimit:4;stroke-opacity:1;stroke-dasharray:none;display:inline" />
        <path
           style="opacity:0.1;fill:#000000;fill-opacity:1;fill-rule:nonzero;stroke:none;display:inline"
           d="m 127.61761,73.032012 0,1.46875 c 0,2.842646 1.78897,5.125 4.01712,5.125 l 48.2544,0 c 2.22815,0 4.01712,-2.282354 4.01712,-5.125 l 0,-1.46875 c -0.20523,2.593688 -1.92823,4.59375 -4.01712,4.59375 l -48.2544,0 c -2.08888,0 -3.81189,-2.000062 -4.01712,-4.59375 z"
           id="path4810"
           inkscape:connector-curvature="0" />
        <path
           inkscape:connector-curvature="0"
           id="path3898"
           d="m 112.09375,13.747703 0,-1.46875 c 0,-2.8426464 2.28235,-5.1250008 5.125,-5.1250008 l 61.5625,0 c 2.84265,0 5.125,2.2823544 5.125,5.1250008 l 0,1.46875 c -0.26183,-2.593688 -2.46002,-4.5937504 -5.125,-4.5937504 l -61.5625,0 c -2.66498,0 -4.86317,2.0000624 -5.125,4.5937504 z"
           style="opacity:0.1;fill:#000000;fill-opacity:1;fill-rule:nonzero;stroke:none;display:inline" />
      </g>
      <path
         style="fill:url(#radialGradient6495);fill-opacity:1;fill-rule:nonzero;stroke:#6f5327;stroke-width:0.30467615;stroke-miterlimit:4;stroke-opacity:1;stroke-dasharray:none;display:inline;enable-background:new"
         d="m -7.4980719,51.944236 c 0,2.893093 3.0407836,5.222187 6.81789899,5.222187 l 79.54216491,0 c 3.777117,0 6.817898,-2.329094 6.817898,-5.222187 l 0,-53.9625983 c 0,-2.893092 -3.040781,-5.222187 -6.817898,-5.222187 l -43.393092,0 -4.687305,-5.9837537 c -1.151872,-1.628157 -3.404408,-2.719891 -6.001172,-2.719891 l -25.46059591,0 c -3.77711539,0 -6.81789899,2.329096 -6.81789899,5.222187 z"
         id="path4187"
         inkscape:connector-curvature="0"
         sodipodi:nodetypes="ssssssccssss" />
      <g
         transform="matrix(2.6875001,0,0,2.6874998,-25.409093,-2762.9335)"
         id="g3699"
         style="enable-background:new">
        <path
           inkscape:connector-curvature="0"
           style="fill:#000000;fill-opacity:0.23529412;stroke-width:0.1545362"
           id="path4444"
           d="m 27.61069,1027.3622 c -1.33617,0.2882 -2.2953,0.8225 -2.87749,1.6028 -0.57484,0.7803 -0.86954,1.7048 -0.88451,2.7734 0.52994,-0.042 0.92567,-0.1019 1.18682,-0.1793 0.41052,-0.1336 0.8248,-0.3937 1.2428,-0.7803 0.4852,-0.457 0.83961,-0.9527 1.06367,-1.4869 0.22388,-0.5343 0.33589,-1.0263 0.33589,-1.4763 0,-0.07 -0.004,-0.1406 -0.0111,-0.2109 -0.007,-0.07 -0.0262,-0.1511 -0.0559,-0.2425 z m 0.19034,4.0701 c -0.55972,0 -1.22045,0.1231 -1.98177,0.369 -0.76131,0.2462 -1.31004,0.3691 -1.64588,0.3691 -0.2613,0 -0.79131,-0.1088 -1.58988,-0.3269 -0.79126,-0.2179 -1.46667,-0.3266 -2.02656,-0.3266 -1.31371,0 -2.40356,0.5199 -3.26936,1.5604 -0.85838,1.0405 -1.28758,2.3869 -1.28758,4.039 0,1.7785 0.56357,3.5922 1.69066,5.4415 1.12708,1.8702 2.27667,2.8044 3.4485,2.8044 0.38822,0 0.89192,-0.1228 1.51151,-0.3688 0.62692,-0.2384 1.17549,-0.3585 1.64588,-0.3585 0.47023,0 1.04494,0.1155 1.72425,0.348 0.68663,0.2324 1.22406,0.348 1.61228,0.348 0.97772,0 1.96317,-0.7065 2.95586,-2.1193 0.65686,-0.9418 1.12713,-1.8459 1.41106,-2.7106 -0.67947,-0.1899 -1.28419,-0.643 -1.81413,-1.36 -0.52994,-0.7172 -0.79495,-1.5224 -0.79495,-2.4151 0,-0.8154 0.24999,-1.5607 0.75016,-2.2356 0.27612,-0.3725 0.71284,-0.7978 1.30998,-1.2759 -0.39554,-0.457 -0.79498,-0.8191 -1.19801,-1.0862 -0.71657,-0.464 -1.53385,-0.6959 -2.45202,-0.6959 z" />
        <path
           d="m 27.61069,1026.3621 c -1.33617,0.2882 -2.2953,0.8225 -2.87749,1.6028 -0.57484,0.7803 -0.86954,1.7048 -0.88451,2.7734 0.52994,-0.042 0.92567,-0.1019 1.18682,-0.1793 0.41052,-0.1336 0.8248,-0.3937 1.2428,-0.7803 0.4852,-0.457 0.83961,-0.9527 1.06367,-1.4869 0.22388,-0.5343 0.33589,-1.0263 0.33589,-1.4763 0,-0.07 -0.004,-0.1406 -0.0111,-0.2109 -0.007,-0.07 -0.0262,-0.1511 -0.0559,-0.2425 z m 0.19034,4.0701 c -0.55972,0 -1.22045,0.1231 -1.98177,0.369 -0.76131,0.2462 -1.31004,0.3691 -1.64588,0.3691 -0.2613,0 -0.79131,-0.1088 -1.58988,-0.3269 -0.79126,-0.2179 -1.46667,-0.3266 -2.02656,-0.3266 -1.31371,0 -2.40356,0.5199 -3.26936,1.5604 -0.85838,1.0405 -1.28758,2.3869 -1.28758,4.039 0,1.7785 0.56357,3.5922 1.69066,5.4415 1.12708,1.8702 2.27667,2.8044 3.4485,2.8044 0.38822,0 0.89192,-0.1228 1.51151,-0.3688 0.62692,-0.2384 1.17549,-0.3585 1.64588,-0.3585 0.47023,0 1.04494,0.1155 1.72425,0.348 0.68663,0.2324 1.22406,0.348 1.61228,0.348 0.97772,0 1.96317,-0.7065 2.95586,-2.1193 0.65686,-0.9418 1.12713,-1.8459 1.41106,-2.7106 -0.67947,-0.1899 -1.28419,-0.643 -1.81413,-1.36 -0.52994,-0.7172 -0.79495,-1.5224 -0.79495,-2.4151 0,-0.8154 0.24999,-1.5607 0.75016,-2.2356 0.27612,-0.3725 0.71284,-0.7978 1.30998,-1.2759 -0.39554,-0.457 -0.79498,-0.8191 -1.19801,-1.0862 -0.71657,-0.464 -1.53385,-0.6959 -2.45202,-0.6959 z"
           id="path3269"
           style="fill:url(#linearGradient6497);fill-opacity:1;stroke-width:0.1545362"
           inkscape:connector-curvature="0" />
      </g>
      <path
         transform="matrix(1.0221218,0,0,0.94911071,-9.9709402,-24.909262)"
         id="path4118"
         d="M 10.4375,12 C 6.8702763,12 4,14.307107 4,17.15625 l 0,61.6875 C 4,81.692893 6.8702763,84 10.4375,84 l 75.125,0 C 89.129721,84 92,81.692893 92,78.84375 l 0,-53.125 C 92,22.869608 89.129721,20.5625 85.5625,20.5625 l -43,-0.21875 L 38.59375,15.125 C 37.505888,13.521573 36.952461,12 34.5,12 L 10.4375,12 z M 33.75,13.875 c 1.448641,-0.0075 1.875677,-0.06824 3.375,2.40625 L 40.90625,22 83.84375,22.09375 C 87.248825,22.09375 90,24.246643 90,26.9375 l 0,50.21875 C 90,79.847107 87.248825,82 83.84375,82 l -71.6875,0 C 8.7511736,82 6,79.847107 6,77.15625 L 6,18.84375 C 6,16.152893 8.7512194,14.017581 12.15625,14 L 33.75,13.875 z"
         style="opacity:0.33064515;fill:#fffafa;fill-opacity:1;fill-rule:nonzero;stroke:none;display:inline;filter:url(#filter4139-5);enable-background:new"
         inkscape:connector-curvature="0" />
      <path
         inkscape:connector-curvature="0"
         id="path4045"
         d="m -7.4620962,48.298564 0,2.230206 c 0,3.490504 3.0555936,6.272453 6.82963229,6.272453 l 79.44674191,0 c 3.77404,0 6.829633,-2.781949 6.829633,-6.272453 l 0,-2.230206 c 0,3.490504 -3.055593,6.272453 -6.829633,6.272453 l -79.44674191,0 c -3.77403869,0 -6.82963229,-2.781949 -6.82963229,-6.272453 z"
         style="opacity:0.82758622;fill:url(#linearGradient6499);fill-opacity:1;fill-rule:nonzero;stroke:none;display:inline;enable-background:new" />
      <path
         style="opacity:0.375;fill:none;stroke:#000000;stroke-width:1.72734308px;stroke-linecap:butt;stroke-linejoin:miter;stroke-opacity:1;enable-background:new"
         d="m -2.5519653,51.873542 83.2857433,0 0,0 0,0"
         id="path4114"
         inkscape:connector-curvature="0" />
      <path
         inkscape:connector-curvature="0"
         id="path4110"
         d="m -2.5519653,51.056614 83.2857433,0 0,0 0,0"
         style="opacity:0.43500001;fill:none;stroke:#ffffff;stroke-width:1.72734308px;stroke-linecap:butt;stroke-linejoin:miter;stroke-opacity:1;enable-background:new" />
      <path
         inkscape:connector-curvature="0"
         id="path4116"
         d="m -2.5519653,47.786391 83.2857433,0 0,0 0,0"
         style="opacity:0.375;fill:none;stroke:#000000;stroke-width:1.72734308px;stroke-linecap:butt;stroke-linejoin:miter;stroke-opacity:1;enable-background:new" />
      <path
         style="opacity:0.43500001;fill:none;stroke:#ffffff;stroke-width:1.72734308px;stroke-linecap:butt;stroke-linejoin:miter;stroke-opacity:1;enable-background:new"
         d="m -2.5519653,46.969462 83.2857433,0 0,0 0,0"
         id="path4112"
         inkscape:connector-curvature="0" />
      <path
         inkscape:connector-curvature="0"
         id="path3871"
         d="m -7.7502206,50.659437 0,6.237787 c 0,3.678276 2.9940534,6.633352 6.7004531,6.633352 l 80.2813525,0 c 3.7064,0 6.700453,-2.955076 6.700453,-6.633352 l 0,-6.237787 c 0,3.678277 -2.994053,6.663781 -6.700453,6.663781 l -80.2813525,0 c -3.7063997,0 -6.7004531,-2.985504 -6.7004531,-6.663781 z"
         style="opacity:0.3;fill:#000000;fill-opacity:1;fill-rule:nonzero;stroke:none;display:inline;enable-background:new" />
      <path
         style="opacity:0.5;fill:url(#linearGradient6501);fill-opacity:1;fill-rule:nonzero;stroke:none;display:inline;enable-background:new"
         d="m -7.7502206,50.659437 0,6.237787 c 0,3.678276 2.9940534,6.633352 6.7004531,6.633352 l 80.2813525,0 c 3.7064,0 6.700453,-2.955076 6.700453,-6.633352 l 0,-6.237787 c 0,3.678277 -2.994053,6.663781 -6.700453,6.663781 l -80.2813525,0 c -3.7063997,0 -6.7004531,-2.985504 -6.7004531,-6.663781 z"
         id="path3876"
         inkscape:connector-curvature="0" />
      <path
         style="opacity:0.29861109;fill:url(#linearGradient6503);fill-opacity:1;fill-rule:nonzero;stroke:none;display:inline;enable-background:new"
         d="m -8.0191514,51.450805 c 0,2.894975 3.0407837,5.225593 6.8178994,5.225593 49.60059,-40.025517 39.172023,-32.105741 79.542161,-64.4491263 l -43.393089,0 -4.687304,-5.9876707 c -1.151873,-1.629223 -3.404409,-2.72167 -6.001172,-2.72167 l -25.460596,0 c -3.7771157,0 -6.8178994,2.33062 -6.8178994,5.225604 z"
         id="path3355"
         inkscape:connector-curvature="0"
         sodipodi:nodetypes="sccccssss" />
      <path
         sodipodi:nodetypes="ssssssccssss"
         inkscape:connector-curvature="0"
         id="path3262"
         d="m -7.4980709,52.080906 c 0,2.894985 3.0407847,5.225603 6.81789949,5.225603 l 79.54216041,0 c 3.777118,0 6.8179,-2.330618 6.8179,-5.225603 l 0,-53.9979193 c 0,-2.894985 -3.040782,-5.225605 -6.8179,-5.225605 l -43.393088,0 -4.687305,-5.9876737 c -1.151873,-1.629223 -3.404409,-2.721671 -6.001172,-2.721671 l -25.46059541,0 c -3.77711479,0 -6.81789949,2.330621 -6.81789949,5.225608 z"
         style="opacity:0.53793102;fill:url(#linearGradient6505);fill-opacity:1;fill-rule:nonzero;stroke:none;display:inline;enable-background:new" />
    </g>
  </g>
</svg>
