<?xml version="1.0" encoding="UTF-8" standalone="no"?>
<!-- Created with Inkscape (http://www.inkscape.org/) -->

<svg
   xmlns:dc="http://purl.org/dc/elements/1.1/"
   xmlns:cc="http://creativecommons.org/ns#"
   xmlns:rdf="http://www.w3.org/1999/02/22-rdf-syntax-ns#"
   xmlns:svg="http://www.w3.org/2000/svg"
   xmlns="http://www.w3.org/2000/svg"
   xmlns:xlink="http://www.w3.org/1999/xlink"
   xmlns:sodipodi="http://sodipodi.sourceforge.net/DTD/sodipodi-0.dtd"
   xmlns:inkscape="http://www.inkscape.org/namespaces/inkscape"
   width="96"
   height="96"
   version="1.1"
   id="svg23"
   sodipodi:docname="freeoffice-presentations.svg"
   inkscape:version="0.92.2 5c3e80d, 2017-08-06">
  <sodipodi:namedview
     pagecolor="#ffffff"
     bordercolor="#666666"
     borderopacity="1"
     objecttolerance="10"
     gridtolerance="10"
     guidetolerance="10"
     inkscape:pageopacity="0"
     inkscape:pageshadow="2"
     inkscape:window-width="1280"
     inkscape:window-height="972"
     id="namedview25"
     showgrid="false"
     inkscape:zoom="3.8123372"
     inkscape:cx="-21.079254"
     inkscape:cy="60.126397"
     inkscape:window-x="0"
     inkscape:window-y="23"
     inkscape:window-maximized="1"
     inkscape:current-layer="svg23" />
  <defs
     id="defs7">
    <radialGradient
       id="a"
       cx="40"
       cy="42.53"
       r="32"
       gradientTransform="matrix(1,0,0,0.9375,-94.167955,0.28885604)"
       gradientUnits="userSpaceOnUse">
      <stop
         stop-color="#ca5d10"
         offset="0"
         id="stop2" />
      <stop
         stop-color="#e07d16"
         offset="1"
         id="stop4" />
    </radialGradient>
    <linearGradient
       inkscape:collect="always"
       xlink:href="#linearGradient6139-0"
       id="linearGradient4071"
       gradientUnits="userSpaceOnUse"
       gradientTransform="matrix(1.1071428,0,0,1.1071426,-5.142859,-4.035687)"
       x1="6"
       y1="47.000011"
       x2="90"
       y2="47.000011" />
    <linearGradient
       id="linearGradient6139-0">
      <stop
         id="stop6141-2"
         offset="0"
         style="stop-color:#b2babc;stop-opacity:1" />
      <stop
         style="stop-color:#ffffff;stop-opacity:1;"
         offset="0.25"
         id="stop6151-0" />
      <stop
         style="stop-color:#96a1a4;stop-opacity:1"
         offset="0.5"
         id="stop6147-1" />
      <stop
         id="stop6149-4"
         offset="0.75"
         style="stop-color:#fbf9f9;stop-opacity:1;" />
      <stop
         id="stop6143-4"
         offset="1"
         style="stop-color:#b2b9bc;stop-opacity:1" />
    </linearGradient>
    <linearGradient
       gradientTransform="translate(-2.95e-6,2.6e-5)"
       inkscape:collect="always"
       xlink:href="#linearGradient3832-0-6-1-1"
       id="linearGradient4129"
       x1="1.5"
       y1="88.171875"
       x2="94.5"
       y2="88.171875"
       gradientUnits="userSpaceOnUse" />
    <linearGradient
       id="linearGradient3832-0-6-1-1">
      <stop
         style="stop-color:#000000;stop-opacity:1;"
         offset="0"
         id="stop3834-6-3-7-1" />
      <stop
         id="stop3872-2-4"
         offset="0.1"
         style="stop-color:#000000;stop-opacity:0.58823532;" />
      <stop
         style="stop-color:#000000;stop-opacity:0.58823532;"
         offset="0.89999998"
         id="stop3844-6-2-7-6" />
      <stop
         style="stop-color:#000000;stop-opacity:1;"
         offset="1"
         id="stop3836-5-0-2-9" />
    </linearGradient>
    <radialGradient
       inkscape:collect="always"
       xlink:href="#linearGradient3737"
       id="radialGradient7462"
       gradientUnits="userSpaceOnUse"
       gradientTransform="matrix(0.97513378,0,0,0.04919072,33.899013,80.166722)"
       cx="13.948145"
       cy="44.892841"
       fx="13.948145"
       fy="44.892841"
       r="43.199203" />
    <linearGradient
       id="linearGradient3737">
      <stop
         offset="0"
         style="stop-color:#ffffff;stop-opacity:1"
         id="stop3739" />
      <stop
         offset="1"
         style="stop-color:#ffffff;stop-opacity:0"
         id="stop3741" />
    </linearGradient>
    <radialGradient
       inkscape:collect="always"
       xlink:href="#linearGradient3737"
       id="radialGradient7496"
       gradientUnits="userSpaceOnUse"
       gradientTransform="matrix(0.88832663,0,0,0.04919072,31.544518,-90.168304)"
       cx="13.948145"
       cy="44.892841"
       fx="13.948145"
       fy="44.892841"
       r="43.199203" />
    <linearGradient
       inkscape:collect="always"
       xlink:href="#linearGradient3737"
       id="linearGradient4767"
       gradientUnits="userSpaceOnUse"
       x1="2.7713892"
       y1="-28.96156"
       x2="50.527882"
       y2="14.514202" />
    <clipPath
       id="clipPath4156-4-1"
       clipPathUnits="userSpaceOnUse">
      <path
         inkscape:connector-curvature="0"
         id="path4158-0-8"
         d="m 27.046336,-55.695463 -14.21366,13.321486 h 0.06127 l 15.653407,21.770763 10.231384,-10.546177 C 38.561832,-32.30156 27.468089,-54.819245 27.046336,-55.695463 Z M 9.9668554,-39.382809 -5.2407289,-25.32124 15.987863,-7.8059573 26.372412,-18.382966 Z m 31.4906096,12.951445 -9.741259,9.713584 8.944804,12.4580526 7.780753,-7.5550056 z m -49.8397109,4.378822 -13.7541661,12.9822847 26.2830181,13.84571 0.06127,-0.0617 -0.122531,-0.0617 L 13.598503,-5.4007374 -8.7022409,-22.052595 Z m 38.0154159,7.400825 -9.802525,9.7752596 11.579232,9.5594001 7.62759,-7.40083 -8.669108,-11.0087257 z m 20.187073,5.6739697 -7.382526,7.2158 6.187844,8.54179 5.820249,-6.13651996 z m -32.195166,6.32154 -9.5574606,9.49772 13.6622686,7.1849703 7.933918,-7.6783603 z m 23.311629,2.37443004 -7.10683,6.93826996 8.362778,6.9074403 5.360756,-5.6739699 -0.06127,-0.0925 -0.0919,0.12335 -6.463539,-8.20258036 z m -8.730374,8.54178036 -7.505057,7.3391599 10.353916,5.45811 c 1.397496,-1.32103 5.67514,-6.12292 5.850882,-6.32154 z"
         style="opacity:0.6;fill:#ffffff;fill-opacity:1;stroke:none" />
    </clipPath>
    <linearGradient
       id="ButtonShadow-16"
       gradientTransform="scale(1.0058652,0.994169)"
       x1="45.447727"
       y1="92.539597"
       x2="45.447727"
       y2="7.0165396"
       gradientUnits="userSpaceOnUse">
      <stop
         style="stop-color:#000000;stop-opacity:1;"
         offset="0"
         id="stop3750-6" />
      <stop
         style="stop-color:#000000;stop-opacity:0.58823532;"
         offset="1"
         id="stop3752-4" />
    </linearGradient>
    <clipPath
       clipPathUnits="userSpaceOnUse"
       id="clipPath4355-7">
      <rect
         style="fill:#ffffff;fill-opacity:1;fill-rule:nonzero;stroke:none"
         id="rect4357-5"
         width="84"
         height="80"
         x="6"
         y="6"
         rx="6"
         ry="6" />
    </clipPath>
    <clipPath
       clipPathUnits="userSpaceOnUse"
       id="clipPath4355-9">
      <rect
         style="fill:#ffffff;fill-opacity:1;fill-rule:nonzero;stroke:none"
         id="rect4357-1"
         width="84"
         height="80"
         x="6"
         y="6"
         rx="6"
         ry="6" />
    </clipPath>
    <clipPath
       clipPathUnits="userSpaceOnUse"
       id="clipPath4355-1">
      <rect
         style="fill:#ffffff;fill-opacity:1;fill-rule:nonzero;stroke:none"
         id="rect4357-9"
         width="84"
         height="80"
         x="6"
         y="6"
         rx="6"
         ry="6" />
    </clipPath>
    <clipPath
       clipPathUnits="userSpaceOnUse"
       id="clipPath3943-52-0">
      <path
         id="path3945-4-1"
         d="m 69.78125,20.84375 -5,3.4375 c 5.586891,5.537137 9,13.327613 9,21.8125 0,8.434478 -3.37723,16.095981 -8.90625,21.625 l 5,3.4375 C 76.078226,96.5762 80,55.843726 80,46.09375 c 2e-6,-9.796556 -3.962955,-18.660417 -10.21875,-25.25 z M 40,24.0625 28.90625,36.21875 H 21.5 c -0.823281,0 -1.5,0.676717 -1.5,1.5 v 1 14.84375 1 c 0,0.823281 0.684121,1.610161 1.5,1.5 h 7.40625 L 40,68 V 66 26.0625 Z m 20.59375,3.28125 -5,3.4375 L 55.5,30.875 c 3.93815,3.890071 6.40625,9.25018 6.40625,15.21875 0,5.920869 -2.42961,11.148358 -6.3125,15.03125 l 0.09375,0.09375 5.09375,3.4375 c 4.475428,-4.908367 7.25,-11.402005 7.25,-18.5625 0,-7.230696 -2.87904,-13.83107 -7.4375,-18.75 z m -9.25,6.5 -5.21875,3.625 c 2.222384,2.217802 3.71875,5.239596 3.71875,8.625 0,3.336509 -1.458847,6.227712 -3.625,8.4375 l 5.21875,3.625 c 2.822412,-3.236947 4.53125,-7.43414 4.53125,-12.0625 0,-4.672601 -1.754155,-9.001351 -4.625,-12.25 z"
         style="color:#000000;display:inline;overflow:visible;visibility:visible;opacity:0.8;fill:#ff00ff;fill-opacity:1;fill-rule:nonzero;stroke:none;stroke-width:1;marker:none;enable-background:accumulate"
         inkscape:connector-curvature="0" />
    </clipPath>
  </defs>
  <metadata
     id="metadata9">
    <rdf:RDF>
      <cc:Work
         rdf:about="">
        <dc:format>image/svg+xml</dc:format>
        <dc:type
           rdf:resource="http://purl.org/dc/dcmitype/StillImage" />
        <dc:title />
      </cc:Work>
    </rdf:RDF>
  </metadata>
  <path
     style="display:inline;opacity:0.15;fill:#000000;fill-opacity:1;fill-rule:nonzero;stroke:none"
     d="M 89.142854,2.6e-5 H 6.8571346 C 3.0582867,2.6e-5 -5.5e-7,3.058311 -5.5e-7,6.8571659 V 89.142884 c 0,3.798857 3.05828725,6.857142 6.85713515,6.857142 H 89.142854 c 3.798857,0 6.857147,-3.058285 6.857147,-6.857142 V 6.8571659 C 96.000001,3.058311 92.941711,2.6e-5 89.142854,2.6e-5 Z"
     id="path3288"
     inkscape:connector-curvature="0" />
  <path
     inkscape:connector-curvature="0"
     id="path4085"
     d="M 88.819998,0.750026 H 7.8199906 c -3.7394919,0 -6.7499929,3.010499 -6.7499929,6.7499969 V 88.500026 c 0,3.739501 3.010501,6.75 6.7499929,6.75 H 88.819998 c 3.739503,0 6.750003,-3.010499 6.750003,-6.75 V 7.5000229 c 0,-3.7394979 -3.0105,-6.7499969 -6.750003,-6.7499969 z"
     style="display:inline;opacity:0.15;fill:#000000;fill-opacity:1;fill-rule:nonzero;stroke:none" />
  <path
     style="display:inline;fill:url(#linearGradient4071);fill-opacity:1;fill-rule:nonzero;stroke:none"
     d="M 87.857137,1.500026 H 8.1428547 c -3.6801431,0 -6.9628567,2.962713 -6.9628567,6.9628549 V 87.857171 c 0,3.680142 2.9627136,6.962856 6.9628567,6.962856 H 87.857137 c 3.680143,0 6.962854,-2.962714 6.962854,-6.962856 V 8.1428809 c 0,-3.6801419 -2.962711,-6.9628549 -6.962854,-6.9628549 z"
     id="rect4251-1"
     inkscape:connector-curvature="0" />
  <path
     style="display:inline;opacity:1;fill:#d87214;fill-opacity:1;fill-rule:nonzero;stroke:none;stroke-width:1.02950251"
     d="m 11.241291,6.3871682 c -2.8597,0 -5.1241288,2.2883782 -5.1241288,5.1710028 v 21.42734 7.239403 39.913674 c 1.0972399,1.684484 2.9688485,2.811732 5.1241288,2.811732 h 4.099303 65.588849 4.099302 c 2.155281,0 4.026889,-1.127248 5.124129,-2.811732 V 40.224914 32.985511 11.558171 c 0,-2.8826246 -2.267632,-5.1710028 -5.124129,-5.1710028 z"
     id="path3400-6"
     inkscape:connector-curvature="0"
     sodipodi:nodetypes="sscccsccscccsss" />
  <path
     inkscape:connector-curvature="0"
     id="path4989"
     d="m 9.8250777,4.7294869 c -3.116621,0 -5.667965,2.53951 -5.667965,5.9660041 v 69.277996 c 0,3.109695 2.551344,5.966004 5.667965,5.966004 H 86.616863 c 3.116621,0 5.667968,-2.539509 5.667968,-5.966004 V 10.375491 c 0,-3.1096931 -2.551347,-5.9660041 -5.667968,-5.9660041 z m 0,2.319439 H 86.616863 c 1.888099,0 3.352022,1.480095 3.352022,3.3265651 v 69.277996 c 0,1.849674 -1.463923,3.326596 -3.352022,3.326596 H 9.8250777 c -1.888099,0 -3.352022,-1.48009 -3.352022,-3.326596 V 10.375491 c 0,-1.8496701 1.463923,-3.3265651 3.352022,-3.3265651 z"
     style="color:#000000;font-style:normal;font-variant:normal;font-weight:normal;font-stretch:normal;font-size:medium;line-height:normal;font-family:Sans;-inkscape-font-specification:Sans;text-indent:0;text-align:start;text-decoration:none;text-decoration-line:none;letter-spacing:normal;word-spacing:normal;text-transform:none;writing-mode:lr-tb;direction:ltr;baseline-shift:baseline;text-anchor:start;display:inline;overflow:visible;visibility:visible;fill:#1f2224;fill-opacity:0.63265303;stroke:none;stroke-width:2.3755002;marker:none;enable-background:accumulate" />
  <path
     inkscape:connector-curvature="0"
     style="display:inline;opacity:0.65818182;fill:url(#linearGradient4129);fill-opacity:1;fill-rule:nonzero;stroke:none"
     d="m 1.819997,81.843776 v 6 c 0,3.680142 2.9761066,6.65625 6.6562497,6.65625 H 87.843747 c 3.680143,0 6.656254,-2.976108 6.656254,-6.65625 v -6 c 0,3.680142 -2.976111,6.65625 -6.656254,6.65625 H 8.1562467 c -3.6801431,0 -6.6562496,-2.976108 -6.6562496,-6.65625 z"
     id="path4118" />
  <rect
     style="opacity:0.55;fill:url(#radialGradient7462);fill-opacity:1;stroke:none"
     id="rect4131"
     width="84.250008"
     height="4.25"
     x="5.3749976"
     y="80.250031"
     rx="0"
     ry="4.25" />
  <rect
     ry="4.25"
     rx="0"
     y="-90.085007"
     x="5.5600224"
     height="4.25"
     width="76.75"
     id="rect4141"
     style="opacity:0.669;fill:url(#radialGradient7496);fill-opacity:1;stroke:none"
     transform="rotate(90)" />
  <path
     style="color:#000000;font-style:normal;font-variant:normal;font-weight:normal;font-stretch:normal;font-size:medium;line-height:normal;font-family:sans-serif;font-variant-ligatures:normal;font-variant-position:normal;font-variant-caps:normal;font-variant-numeric:normal;font-variant-alternates:normal;font-feature-settings:normal;text-indent:0;text-align:start;text-decoration:none;text-decoration-line:none;text-decoration-style:solid;text-decoration-color:#000000;letter-spacing:normal;word-spacing:normal;text-transform:none;writing-mode:lr-tb;direction:ltr;text-orientation:mixed;dominant-baseline:auto;baseline-shift:baseline;text-anchor:start;white-space:normal;shape-padding:0;clip-rule:nonzero;display:inline;overflow:visible;visibility:visible;opacity:0.98500001;isolation:auto;mix-blend-mode:normal;color-interpolation:sRGB;color-interpolation-filters:linearRGB;solid-color:#000000;solid-opacity:1;vector-effect:none;fill:#020200;fill-opacity:0.1205357;fill-rule:nonzero;stroke:none;stroke-width:3;stroke-linecap:round;stroke-linejoin:round;stroke-miterlimit:4;stroke-dasharray:none;stroke-dashoffset:0;stroke-opacity:1;paint-order:normal;color-rendering:auto;image-rendering:auto;shape-rendering:auto;text-rendering:auto;enable-background:accumulate"
     d="m 47.992016,12.071364 c -13.484683,-0.184945 -26.454361,8.60024 -31.415995,21.11648 -5.08225,12.041719 -2.275469,26.863783 6.868286,36.206183 8.891188,9.570344 23.539952,13.091984 35.809637,8.609389 C 72.111822,73.625945 81.554224,60.906387 81.892867,47.308471 82.578329,34.097788 74.64293,21.031905 62.686887,15.422418 58.124426,13.213836 53.060159,12.064675 47.992016,12.071364 Z m 0,5.49414 C 60.622855,17.327379 72.589173,26.601083 75.530681,38.881967 78.754898,50.683749 73.320855,64.138744 62.750152,70.322607 51.956151,77.09918 36.737526,75.291221 27.873918,66.11622 18.697587,57.25347 16.889909,42.03419 23.667088,31.240429 28.677521,22.839652 38.205318,17.469303 47.992016,17.565504 Z m 1.535156,10.71875 c -5.776589,-0.384635 -12.397139,3.010955 -13.230481,9.219677 -0.777002,4.480082 1.968822,8.966292 6.091077,10.706982 2.374878,1.84849 8.098612,1.676683 7.853899,5.592905 -1.709753,2.572372 -5.515789,1.467433 -8.102857,1.053335 -1.504909,-0.144116 -3.35009,-2.140459 -4.684161,-0.611016 -0.856401,2.011459 -1.251074,4.285364 -1.588913,6.433872 -0.05333,0.424974 0.562979,1.157414 1.315569,1.397288 5.994886,2.255951 13.380113,2.606574 18.853363,-1.155125 5.537839,-3.79222 5.492058,-13.204441 -0.371828,-16.680914 -2.905314,-2.228128 -6.936825,-2.538423 -9.590086,-5.063929 -0.428824,-3.738783 5.396375,-2.66564 7.675036,-1.98067 1.050631,0.524571 2.955387,1.227962 3.537035,-0.314685 0.407524,-2.106493 1.902285,-4.384834 1.244703,-6.524973 -2.077906,-1.723797 -5.185377,-1.898368 -7.804166,-2.063235 -0.398437,-0.01718 -0.891151,2.99e-4 -1.19819,-0.0095 z m 0.0078,3.001954 c 2.449089,-0.553637 8.427208,0.939877 4.703769,2.964298 -3.512001,-0.881906 -8.418398,-1.564151 -10.722702,1.985532 -2.247726,3.72516 1.794645,7.036714 5.117654,7.915233 3.439331,1.333122 7.813303,2.939016 8.418438,7.125426 0.809412,3.939474 -1.991709,7.769789 -5.787744,8.727635 -3.959378,1.129554 -8.300145,0.913607 -12.182592,-0.432964 -0.201826,-4.291062 3.796081,-0.755881 6.358252,-1.215743 3.279795,0.454662 7.684609,-0.982194 7.854686,-4.864335 0.30238,-3.767991 -3.526214,-5.635025 -6.548828,-6.638672 -3.505935,-1.18847 -7.726496,-3.565153 -7.56988,-7.839614 -0.07697,-4.805174 4.909406,-7.847578 9.294578,-7.697694 l 0.52936,-0.01948 0.534957,-0.0096 z M 37.53889,59.014723 c 0.231097,-0.0167 -0.01037,0.06666 0,0 z m -1.609374,1.029297 c -0.07783,0.925575 -0.100447,0.192203 0,0 z m 1.427734,0.458984 c 2.123616,-0.158504 1.255033,1.613549 -0.181643,1.466802 l 0.09273,-0.748999 0.08891,-0.717798 z m -1.476563,0.240235 c 0.03166,0.142912 -0.01101,0.02332 0,0 z"
     id="path977"
     inkscape:connector-curvature="0" />
  <rect
     transform="matrix(1.0692451,0,0,1.0476829,4.2952237,38.479013)"
     style="opacity:0.65;fill:url(#linearGradient4767);fill-opacity:1;stroke:none"
     id="rect4146"
     width="75.965775"
     height="69.024437"
     x="2"
     y="-30"
     rx="3.9569874"
     ry="3.9569881"
     clip-path="url(#clipPath4156-4-1)" />
  <path
     d="m96 4-2-2 2-1z"
     fill="#cf945a"
     id="path17" />
  <path
     inkscape:connector-curvature="0"
     id="circle21"
     style="color:#000000;font-style:normal;font-variant:normal;font-weight:normal;font-stretch:normal;font-size:medium;line-height:normal;font-family:sans-serif;font-variant-ligatures:normal;font-variant-position:normal;font-variant-caps:normal;font-variant-numeric:normal;font-variant-alternates:normal;font-feature-settings:normal;text-indent:0;text-align:start;text-decoration:none;text-decoration-line:none;text-decoration-style:solid;text-decoration-color:#000000;letter-spacing:normal;word-spacing:normal;text-transform:none;writing-mode:lr-tb;direction:ltr;text-orientation:mixed;dominant-baseline:auto;baseline-shift:baseline;text-anchor:start;white-space:normal;shape-padding:0;clip-rule:nonzero;display:inline;overflow:visible;visibility:visible;opacity:0.98500001;isolation:auto;mix-blend-mode:normal;color-interpolation:sRGB;color-interpolation-filters:linearRGB;solid-color:#000000;solid-opacity:1;vector-effect:none;fill:#f5f0d5;fill-opacity:1;fill-rule:nonzero;stroke:none;stroke-width:2.49434638;stroke-linecap:round;stroke-linejoin:round;stroke-miterlimit:4;stroke-dasharray:none;stroke-dashoffset:0;stroke-opacity:1;paint-order:normal;color-rendering:auto;image-rendering:auto;shape-rendering:auto;text-rendering:auto;enable-background:accumulate"
     d="M 48,13.573496 C 30.106109,13.573496 15.573496,28.10611 15.573496,46 15.573496,63.893892 30.106109,78.426504 48,78.426504 65.893891,78.426504 80.426504,63.893892 80.426504,46 80.426504,28.10611 65.893891,13.573496 48,13.573496 Z m 0,2.494347 C 64.545847,16.067843 77.932157,29.454155 77.932157,46 77.932157,62.545846 64.545847,75.932158 48,75.932158 31.454154,75.932158 18.067843,62.545846 18.067843,46 18.067843,29.454155 31.454154,16.067843 48,16.067843 Z m 1.546512,13.718647 c -1.491619,0.01023 -2.968272,0.117035 -3.689138,0.285478 -2.883465,0.673972 -4.969985,1.905681 -6.380538,3.729048 -2.107723,2.723828 -2.383348,6.454121 -0.700787,9.301418 0.47218,1.197785 1.935613,2.304776 2.884712,2.942081 1.062841,0.71488 2.716343,1.520306 4.567148,2.213733 2.38709,0.895221 3.697869,1.565204 4.529733,2.377112 0.839223,0.819268 1.116844,1.556472 1.048125,2.772466 -0.06449,1.141288 -0.559607,1.989242 -1.522799,2.601604 -1.075437,0.683326 -1.969286,0.874393 -3.98846,0.870402 -2.454437,-0.005 -4.946289,-0.455343 -7.029068,-1.50908 -0.228607,-0.09709 -0.448234,-0.175352 -0.604879,-0.219627 -0.0012,0.0044 -0.0026,0.0056 -0.004,0.0101 -0.04939,0.15889 -0.112632,0.386 -0.185704,0.654766 -0.146044,0.537656 -0.327757,1.245677 -0.501114,1.95432 -0.173358,0.708769 -0.339481,1.418036 -0.457214,1.958062 -0.05887,0.270512 -0.104887,0.499743 -0.133697,0.660753 -0.0085,0.04728 -0.0128,0.07376 -0.01797,0.111796 0.01302,0.01407 -0.01085,-0.01569 0.01797,0.002 0.08633,0.05293 0.225364,0.12241 0.401215,0.197677 0.351828,0.150534 0.848951,0.325637 1.411801,0.497123 1.125075,0.342848 2.524278,0.678338 3.641745,0.84047 1.62382,0.235591 4.683136,0.237836 6.244597,0.006 3.04435,-0.451976 5.437675,-1.56645 7.065236,-3.176551 1.627561,-1.6101 2.504324,-3.716576 2.50183,-6.237113 -0.0017,-1.550236 -0.245818,-2.653985 -0.844461,-3.86499 -1.160994,-2.348427 -3.085507,-3.795148 -7.536668,-5.573617 -3.013171,-1.20452 -4.129391,-1.77348 -4.942548,-2.581649 -0.844835,-0.838973 -1.112229,-1.923141 -0.824506,-2.897183 0.287723,-0.973044 1.102127,-1.819626 2.306023,-2.292304 0.351204,-0.137564 0.644914,-0.226113 1.040143,-0.27151 0.395229,-0.0494 0.888486,-0.05317 1.711121,-0.0539 2.143891,-0.0019 3.444693,0.220999 5.357857,0.918294 0.318029,0.118394 0.621591,0.226237 0.850447,0.303437 0.05176,0.01747 0.08246,0.02585 0.125715,0.03992 0.05266,-0.140432 0.116773,-0.324639 0.191691,-0.562974 0.164502,-0.523813 0.366045,-1.231459 0.556987,-1.944343 0.190942,-0.713009 0.371159,-1.434249 0.493132,-1.980511 0.06101,-0.273256 0.108467,-0.502735 0.133697,-0.660752 0.0035,-0.02206 0.0034,-0.02884 0.006,-0.0479 -0.07488,-0.03594 -0.172484,-0.07873 -0.297451,-0.127711 -0.274877,-0.111834 -0.647283,-0.23796 -1.056106,-0.367292 C 55.098557,30.40663 54.12913,30.144224 53.483094,30.02275 52.614937,29.859744 51.079791,29.776932 49.588172,29.787159 Z" />
</svg>
