<?xml version="1.0" encoding="UTF-8" standalone="no"?>
<!-- Created with Inkscape (http://www.inkscape.org/) -->

<svg
   xmlns:dc="http://purl.org/dc/elements/1.1/"
   xmlns:cc="http://creativecommons.org/ns#"
   xmlns:rdf="http://www.w3.org/1999/02/22-rdf-syntax-ns#"
   xmlns:svg="http://www.w3.org/2000/svg"
   xmlns="http://www.w3.org/2000/svg"
   xmlns:xlink="http://www.w3.org/1999/xlink"
   xmlns:sodipodi="http://sodipodi.sourceforge.net/DTD/sodipodi-0.dtd"
   xmlns:inkscape="http://www.inkscape.org/namespaces/inkscape"
   width="96"
   height="96"
   id="svg13094"
   version="1.1"
   inkscape:version="0.92.2 5c3e80d, 2017-08-06"
   sodipodi:docname="fslint.svg">
  <sodipodi:namedview
     id="base"
     pagecolor="#ffffff"
     bordercolor="#666666"
     borderopacity="1.0"
     inkscape:pageopacity="0"
     inkscape:pageshadow="2"
     inkscape:zoom="8.0625"
     inkscape:cx="48"
     inkscape:cy="47.999974"
     inkscape:document-units="px"
     inkscape:current-layer="g3295"
     showgrid="false"
     inkscape:snap-bbox="true"
     inkscape:bbox-paths="true"
     inkscape:bbox-nodes="true"
     inkscape:snap-bbox-edge-midpoints="true"
     inkscape:snap-bbox-midpoints="true"
     inkscape:object-paths="true"
     inkscape:snap-intersection-paths="true"
     inkscape:object-nodes="true"
     inkscape:snap-smooth-nodes="true"
     inkscape:snap-midpoints="true"
     inkscape:snap-object-midpoints="true"
     inkscape:snap-center="true"
     showguides="true"
     inkscape:guide-bbox="true"
     inkscape:window-width="1280"
     inkscape:window-height="972"
     inkscape:window-x="0"
     inkscape:window-y="23"
     inkscape:window-maximized="1"
     inkscape:snap-global="false"
     fit-margin-top="0"
     fit-margin-left="0"
     fit-margin-right="0"
     fit-margin-bottom="0"
     showborder="true"
     inkscape:showpageshadow="false"
     inkscape:snap-page="true">
    <inkscape:grid
       type="xygrid"
       id="grid3075"
       empspacing="5"
       visible="true"
       enabled="true"
       snapvisiblegridlinesonly="true"
       originx="1.6362304e-08"
       originy="18"
       spacingx="1"
       spacingy="1" />
  </sodipodi:namedview>
  <defs
     id="defs13096">
    <linearGradient
       id="linearGradient3445">
      <stop
         style="stop-color:#c18e8e;stop-opacity:1"
         offset="0"
         id="stop3435" />
      <stop
         style="stop-color:#e6dada;stop-opacity:1"
         offset="0.52780795"
         id="stop3441" />
      <stop
         style="stop-color:#c16e6e;stop-opacity:1"
         offset="1"
         id="stop3443" />
    </linearGradient>
    <linearGradient
       gradientTransform="matrix(0.82258065,0,0,0.82258065,6.354839,8.5887097)"
       gradientUnits="userSpaceOnUse"
       id="linearGradient3984-8-7-3-8-2"
       y2="2"
       x2="31"
       y1="64"
       x1="31">
      <stop
         offset="0"
         style="stop-color:#ebebeb;stop-opacity:1"
         id="stop3099-1-3-0-1-9" />
      <stop
         offset="0.5"
         style="stop-color:#ebebeb;stop-opacity:1;"
         id="stop3875-7-3-2-0-1" />
      <stop
         offset="0.50287074"
         style="stop-color:#d6d6d6;stop-opacity:1"
         id="stop3873-1-0-8-5-5" />
      <stop
         offset="1"
         style="stop-color:#d6d6d6;stop-opacity:1"
         id="stop3101-06-4-6-6-3" />
    </linearGradient>
    <linearGradient
       inkscape:collect="always"
       xlink:href="#linearGradient6139-0"
       id="linearGradient4071"
       gradientUnits="userSpaceOnUse"
       gradientTransform="matrix(1.1071428,0,0,1.1071426,-5.142859,-4.035687)"
       x1="6"
       y1="47.000011"
       x2="90"
       y2="47.000011" />
    <linearGradient
       id="linearGradient6139-0">
      <stop
         id="stop6141-2"
         offset="0"
         style="stop-color:#b2babc;stop-opacity:1" />
      <stop
         style="stop-color:#ffffff;stop-opacity:1;"
         offset="0.25"
         id="stop6151-0" />
      <stop
         style="stop-color:#96a1a4;stop-opacity:1"
         offset="0.5"
         id="stop6147-1" />
      <stop
         id="stop6149-4"
         offset="0.75"
         style="stop-color:#fbf9f9;stop-opacity:1;" />
      <stop
         id="stop6143-4"
         offset="1"
         style="stop-color:#b2b9bc;stop-opacity:1" />
    </linearGradient>
    <linearGradient
       gradientTransform="translate(-2.95e-6,2.6e-5)"
       inkscape:collect="always"
       xlink:href="#linearGradient3832-0-6-1-1"
       id="linearGradient4129"
       x1="1.5"
       y1="88.171875"
       x2="94.5"
       y2="88.171875"
       gradientUnits="userSpaceOnUse" />
    <linearGradient
       id="linearGradient3832-0-6-1-1">
      <stop
         style="stop-color:#000000;stop-opacity:1;"
         offset="0"
         id="stop3834-6-3-7-1" />
      <stop
         id="stop3872-2-4"
         offset="0.1"
         style="stop-color:#000000;stop-opacity:0.58823532;" />
      <stop
         style="stop-color:#000000;stop-opacity:0.58823532;"
         offset="0.89999998"
         id="stop3844-6-2-7-6" />
      <stop
         style="stop-color:#000000;stop-opacity:1;"
         offset="1"
         id="stop3836-5-0-2-9" />
    </linearGradient>
    <radialGradient
       inkscape:collect="always"
       xlink:href="#linearGradient3737"
       id="radialGradient7462"
       gradientUnits="userSpaceOnUse"
       gradientTransform="matrix(0.97513378,0,0,0.04919072,34.794754,78.733022)"
       cx="13.948145"
       cy="44.892841"
       fx="13.948145"
       fy="44.892841"
       r="43.199203" />
    <linearGradient
       id="linearGradient3737">
      <stop
         offset="0"
         style="stop-color:#ffffff;stop-opacity:1"
         id="stop3739" />
      <stop
         offset="1"
         style="stop-color:#ffffff;stop-opacity:0"
         id="stop3741" />
    </linearGradient>
    <radialGradient
       inkscape:collect="always"
       xlink:href="#linearGradient3737"
       id="radialGradient7464"
       gradientUnits="userSpaceOnUse"
       gradientTransform="matrix(0.88832663,0,0,0.04919072,31.544518,-90.168304)"
       cx="13.948145"
       cy="44.892841"
       fx="13.948145"
       fy="44.892841"
       r="43.199203" />
    <linearGradient
       inkscape:collect="always"
       xlink:href="#linearGradient3737"
       id="linearGradient4767"
       gradientUnits="userSpaceOnUse"
       x1="2.7713892"
       y1="-28.64156"
       x2="50.527882"
       y2="14.514202" />
    <clipPath
       id="clipPath4156-4-1"
       clipPathUnits="userSpaceOnUse">
      <path
         inkscape:connector-curvature="0"
         id="path4158-0-8"
         d="m 27.046336,-55.695463 -14.21366,13.321486 h 0.06127 l 15.653407,21.770763 10.231384,-10.546177 C 38.561832,-32.30156 27.468089,-54.819245 27.046336,-55.695463 Z M 9.6468554,-39.382809 -5.2407289,-25.32124 15.987863,-7.8059573 26.372412,-18.382966 Z m 31.4906096,12.951445 -9.741259,9.713584 8.944804,12.4580526 7.780753,-7.5550056 z m -49.8397109,4.378822 -13.7541661,12.9822847 26.2830181,13.84571 0.06127,-0.0617 -0.122531,-0.0617 L 13.598503,-5.4007374 -8.7022409,-22.052595 Z m 38.0154159,7.400825 -9.802525,9.7752596 11.579232,9.5594001 7.62759,-7.40083 -8.669108,-11.0087257 z m 20.187073,5.6739697 -7.382526,7.2158 6.187844,8.54179 5.820249,-6.13651996 z m -32.195166,6.32154 -9.5574606,9.49772 13.6622686,7.1849703 7.933918,-7.6783603 z m 23.311629,2.37443004 -7.10683,6.93826996 8.362778,6.9074403 5.360756,-5.6739699 -0.06127,-0.0925 -0.0919,0.12335 -6.463539,-8.20258036 z m -8.730374,8.54178036 -7.505057,7.3391599 10.353916,5.45811 c 1.397496,-1.32103 5.67514,-6.12292 5.850882,-6.32154 z"
         style="opacity:0.6;fill:#ffffff;fill-opacity:1;stroke:none" />
    </clipPath>
    <linearGradient
       id="ButtonShadow-16"
       gradientTransform="scale(1.0058652,0.994169)"
       x1="45.447727"
       y1="92.539597"
       x2="45.447727"
       y2="7.0165396"
       gradientUnits="userSpaceOnUse">
      <stop
         style="stop-color:#000000;stop-opacity:1;"
         offset="0"
         id="stop3750-6" />
      <stop
         style="stop-color:#000000;stop-opacity:0.58823532;"
         offset="1"
         id="stop3752-4" />
    </linearGradient>
    <clipPath
       clipPathUnits="userSpaceOnUse"
       id="clipPath4355-7">
      <rect
         style="fill:#ffffff;fill-opacity:1;fill-rule:nonzero;stroke:none"
         id="rect4357-5"
         width="84"
         height="80"
         x="6"
         y="6"
         rx="6"
         ry="6" />
    </clipPath>
    <clipPath
       clipPathUnits="userSpaceOnUse"
       id="clipPath4355-9">
      <rect
         style="fill:#ffffff;fill-opacity:1;fill-rule:nonzero;stroke:none"
         id="rect4357-1"
         width="84"
         height="80"
         x="6"
         y="6"
         rx="6"
         ry="6" />
    </clipPath>
    <clipPath
       clipPathUnits="userSpaceOnUse"
       id="clipPath4355-1">
      <rect
         style="fill:#ffffff;fill-opacity:1;fill-rule:nonzero;stroke:none"
         id="rect4357-9"
         width="84"
         height="80"
         x="6"
         y="6"
         rx="6"
         ry="6" />
    </clipPath>
    <clipPath
       clipPathUnits="userSpaceOnUse"
       id="clipPath3943-52-0">
      <path
         id="path3945-4-1"
         d="m 69.78125,20.84375 -5,3.4375 c 5.586891,5.537137 9,13.327613 9,21.8125 0,8.434478 -3.37723,16.095981 -8.90625,21.625 l 5,3.4375 C 76.078226,64.5762 80,55.843726 80,46.09375 c 2e-6,-9.796556 -3.962955,-18.660417 -10.21875,-25.25 z M 40,24.0625 28.90625,36.21875 H 21.5 c -0.823281,0 -1.5,0.676717 -1.5,1.5 v 1 14.84375 1 c 0,0.823281 0.684121,1.610161 1.5,1.5 h 7.40625 L 40,68 V 66 26.0625 Z m 20.59375,3.28125 -5,3.4375 L 55.5,30.875 c 3.93815,3.890071 6.40625,9.25018 6.40625,15.21875 0,5.920869 -2.42961,11.148358 -6.3125,15.03125 l 0.09375,0.09375 5.09375,3.4375 c 4.475428,-4.908367 7.25,-11.402005 7.25,-18.5625 0,-7.230696 -2.87904,-13.83107 -7.4375,-18.75 z m -9.25,6.5 -5.21875,3.625 c 2.222384,2.217802 3.71875,5.239596 3.71875,8.625 0,3.336509 -1.458847,6.227712 -3.625,8.4375 l 5.21875,3.625 c 2.822412,-3.236947 4.53125,-7.43414 4.53125,-12.0625 0,-4.672601 -1.754155,-9.001351 -4.625,-12.25 z"
         style="color:#000000;display:inline;overflow:visible;visibility:visible;opacity:0.8;fill:#ff00ff;fill-opacity:1;fill-rule:nonzero;stroke:none;stroke-width:1;marker:none;enable-background:accumulate"
         inkscape:connector-curvature="0" />
    </clipPath>
    <linearGradient
       inkscape:collect="always"
       xlink:href="#linearGradient3984-8-7-3-8-2"
       id="linearGradient3885"
       gradientUnits="userSpaceOnUse"
       gradientTransform="matrix(0.79455189,-0.21289954,0.21289954,0.79455189,-1.0772386,15.383725)"
       x1="32.039215"
       y1="61.568626"
       x2="32.039215"
       y2="0.78431338" />
    <linearGradient
       inkscape:collect="always"
       xlink:href="#linearGradient3445"
       id="linearGradient3433"
       x1="25"
       y1="22.5"
       x2="31"
       y2="22.5"
       gradientUnits="userSpaceOnUse" />
    <linearGradient
       inkscape:collect="always"
       xlink:href="#linearGradient3445"
       id="linearGradient3453"
       x1="22.496555"
       y1="37.152271"
       x2="34"
       y2="37"
       gradientUnits="userSpaceOnUse" />
  </defs>
  <metadata
     id="metadata13099">
    <rdf:RDF>
      <cc:Work
         rdf:about="">
        <dc:format>image/svg+xml</dc:format>
        <dc:type
           rdf:resource="http://purl.org/dc/dcmitype/StillImage" />
        <dc:title></dc:title>
      </cc:Work>
    </rdf:RDF>
  </metadata>
  <path
     style="display:inline;opacity:0.15;fill:#000000;fill-opacity:1;fill-rule:nonzero;stroke:none"
     d="M 89.142854,2.6e-5 H 6.8571346 C 3.0582867,2.6e-5 -5.5e-7,3.058311 -5.5e-7,6.8571659 V 89.142884 c 0,3.798857 3.05828725,6.857142 6.85713515,6.857142 H 89.142854 c 3.798857,0 6.857147,-3.058285 6.857147,-6.857142 V 6.8571659 C 96.000001,3.058311 92.941711,2.6e-5 89.142854,2.6e-5 Z"
     id="path3288-6"
     inkscape:connector-curvature="0" />
  <path
     inkscape:connector-curvature="0"
     id="path4085"
     d="M 88.499998,0.750026 H 7.4999906 c -3.7394919,0 -6.74999295,3.010499 -6.74999295,6.7499969 V 88.500026 c 0,3.739501 3.01050105,6.75 6.74999295,6.75 H 88.499998 c 3.739503,0 6.750003,-3.010499 6.750003,-6.75 V 7.5000229 c 0,-3.7394979 -3.0105,-6.7499969 -6.750003,-6.7499969 z"
     style="display:inline;opacity:0.15;fill:#000000;fill-opacity:1;fill-rule:nonzero;stroke:none" />
  <path
     style="display:inline;fill:url(#linearGradient4071);fill-opacity:1;fill-rule:nonzero;stroke:none"
     d="M 87.857137,1.500026 H 8.1428547 c -3.6801431,0 -6.6428566,2.962713 -6.6428566,6.6428549 V 87.857171 c 0,3.680142 2.9627135,6.642856 6.6428566,6.642856 H 87.857137 c 3.680143,0 6.642854,-2.962714 6.642854,-6.642856 V 8.1428809 c 0,-3.6801419 -2.962711,-6.6428549 -6.642854,-6.6428549 z"
     id="rect4251-1"
     inkscape:connector-curvature="0" />
  <path
     style="display:inline;opacity:0.95999995;fill:#7e5a41;fill-opacity:1;fill-rule:nonzero;stroke:none;stroke-width:1.03670657"
     d="m 11.241291,6.3871682 c -2.8564968,0 -5.1241288,2.3205168 -5.1241288,5.2436258 v 21.728271 7.341075 40.474232 c 1.0972399,1.708141 2.9688485,2.851221 5.1241288,2.851221 h 4.099303 65.588849 4.099302 c 2.155281,0 4.026889,-1.14308 5.124129,-2.851221 V 40.70014 33.359065 11.630794 c 0,-2.923109 -2.267632,-5.2436258 -5.124129,-5.2436258 z"
     id="path3400-6"
     inkscape:connector-curvature="0"
     sodipodi:nodetypes="sscccsccscccsss" />
  <g
     transform="translate(6.2209718,-15.068431)"
     id="g1377">
    <g
       transform="matrix(1.3125,0,0,1.1500702,0,22.082921)"
       style="fill:#ffcc00"
       id="g3933">
      <g
         style="fill:#ffcc00"
         id="g3863"
         transform="translate(0,-14.5)">
        <path
           inkscape:connector-curvature="0"
           style="color:#000000;display:inline;overflow:visible;visibility:visible;fill:#ffcc00;fill-opacity:0.0362191;fill-rule:nonzero;stroke:none;stroke-width:1;marker:none;enable-background:accumulate"
           d="M 2,0 0,1 V 4 22.5 H 2 Z M 4,0 V 3.5 H 6 V 0 Z m 4,0 v 17.5 h 2 V 0 Z m 4,0 v 32.5 h 2 V 0 Z m 8,0 v 27.5 h 2 V 0 Z m 16,0 v 0.5 h 2 V 0 Z m 12,0 v 19.5 h 2 V 0 Z m 4,0 v 33.5 h 2 V 0 Z m 4,0 v 14.5 h 2 V 0 Z m 4,0 v 30.5 h 2 V 0 Z M 40,0.5 v 37 h 2 v -37 z m -36,5 v 37 h 2 v -37 z m 28,0 v 37 h 2 v -37 z m -8,1 v 37 h 2 v -37 z m -8,3 v 37 h 2 v -37 z m 12,2 v 37 h 2 v -37 z m 16,5 v 37 h 2 v -37 z m -36,3 v 37 h 2 v -37 z m 28,0 v 37 h 2 v -37 z m 12,2 v 37 h 2 v -37 z m -48,3 V 34 61.5 h 2 v -37 z m 60,8 V 64 h 2 V 32.5 Z m -8,5 V 64 h 2 V 37.5 Z m 4,14 V 64 h 2 V 51.5 Z"
           id="path3865"
           transform="translate(0,14.5)" />
        <path
           inkscape:connector-curvature="0"
           style="color:#000000;display:inline;overflow:visible;visibility:visible;fill:#ffcc00;fill-opacity:0.0362191;fill-rule:nonzero;stroke:none;stroke-width:1;marker:none;enable-background:accumulate"
           d="M 2,0 0,1 V 4 30 H 2 Z M 4,0 V 14 H 6 V 0 Z m 4,0 v 33 h 2 V 0 Z m 4,0 v 19 h 2 V 0 Z m 8,0 v 37 h 2 V 0 Z m 20,0 v 27 h 2 V 0 Z m 8,0 v 32 h 2 V 0 Z m 4,0 v 17 h 2 V 0 Z m 4,0 v 3 h 2 V 0 Z m 4,0 v 22 h 2 V 0 Z M 28,5 v 37 h 2 V 5 Z m 28,0 v 37 h 2 V 5 Z M 36,6 v 37 h 2 V 6 Z m 8,3 v 37 h 2 V 9 Z m -12,2 v 37 h 2 V 11 Z m -16,5 v 37 h 2 V 16 Z m 8,3 v 37 h 2 V 19 Z m 28,0 v 37 h 2 V 19 Z m -40,2 v 37 h 2 V 21 Z m 48,3 v 37 h 2 V 24 Z M 0,32 v 2 28 l 2,2 V 32 Z m 8,5 v 27 h 2 V 37 Z M 4,51 V 64 H 6 V 51 Z"
           id="path3867"
           transform="translate(0,14.5)" />
        <path
           inkscape:connector-curvature="0"
           style="color:#000000;display:inline;overflow:visible;visibility:visible;fill:#ffcc00;fill-opacity:0.0362191;fill-rule:nonzero;stroke:none;stroke-width:1;marker:none;enable-background:accumulate"
           d="M 2,0 0,1 V 4 28.5 H 2 Z M 4,0 V 12.5 H 6 V 0 Z m 4,0 v 31.5 h 2 V 0 Z m 4,0 v 17.5 h 2 V 0 Z m 8,0 v 35.5 h 2 V 0 Z m 20,0 v 25.5 h 2 V 0 Z m 8,0 v 30.5 h 2 V 0 Z m 4,0 v 15.5 h 2 V 0 Z m 4,0 v 1.5 h 2 V 0 Z m 4,0 v 20.5 h 2 V 0 Z M 28,3.5 v 37 h 2 v -37 z m 28,0 v 37 h 2 v -37 z m -20,1 v 37 h 2 v -37 z m 8,3 v 37 h 2 v -37 z m -12,2 v 37 h 2 v -37 z m -16,5 v 37 h 2 v -37 z m 8,3 v 37 h 2 v -37 z m 28,0 v 37 h 2 v -37 z m -40,2 v 37 h 2 v -37 z m 48,3 v 37 h 2 v -37 z m -60,8 V 34 62 l 2,2 V 30.5 Z m 8,5 V 64 h 2 V 35.5 Z m -4,14 V 64 H 6 V 49.5 Z"
           id="path3869"
           transform="translate(0,14.5)" />
        <path
           inkscape:connector-curvature="0"
           style="color:#000000;display:inline;overflow:visible;visibility:visible;fill:#ffcc00;fill-opacity:0.0362191;fill-rule:nonzero;stroke:none;stroke-width:1;marker:none;enable-background:accumulate"
           d="M 2,0 0,1 V 20 H 2 Z M 4,0 V 1 H 6 V 0 Z m 4,0 v 15 h 2 V 0 Z m 4,0 v 30 h 2 V 0 Z m 8,0 v 25 h 2 V 0 Z m 20,0 v 35 h 2 V 0 Z m 8,0 v 17 h 2 V 0 Z m 4,0 v 31 h 2 V 0 Z m 4,0 v 12 h 2 V 0 Z m 4,0 v 28 h 2 V 0 Z M 4,3 V 40 H 6 V 3 Z m 28,0 v 37 h 2 V 3 Z m -8,1 v 37 h 2 V 4 Z m -8,3 v 37 h 2 V 7 Z m 12,2 v 37 h 2 V 9 Z m 16,5 v 37 h 2 V 14 Z M 8,17 v 37 h 2 V 17 Z m 28,0 v 37 h 2 V 17 Z m 12,2 v 37 h 2 V 19 Z M 0,22 V 34 59 H 2 V 22 Z m 60,8 v 34 h 2 V 30 Z m -8,5 v 29 h 2 V 35 Z m 4,14 v 15 h 2 V 49 Z"
           id="path3871"
           transform="translate(0,14.5)" />
        <path
           inkscape:connector-curvature="0"
           style="color:#000000;display:inline;overflow:visible;visibility:visible;fill:#ffcc00;fill-opacity:0.0362191;fill-rule:nonzero;stroke:none;stroke-width:1;marker:none;enable-background:accumulate"
           d="M 2,0 0,1 V 4 33.5 H 2 Z M 4,0 V 14.5 H 6 V 0 Z m 4,0 v 28.5 h 2 V 0 Z m 16,0 v 9.5 h 2 V 0 Z m 8,0 v 6.5 h 2 V 0 Z m 4,0 v 11.5 h 2 V 0 Z m 12,0 v 30.5 h 2 V 0 Z m 8,0 v 25.5 h 2 V 0 Z M 20,1.5 v 37 h 2 v -37 z m 40,3 v 37 h 2 v -37 z m -48,2 v 37 h 2 v -37 z m 40,1 v 37 h 2 v -37 z m -12,4 v 37 h 2 v -37 z m -36,5 v 37 h 2 v -37 z m 28,0 v 37 h 2 v -37 z m -8,1 v 37 h 2 v -37 z m -8,3 v 37 h 2 v -37 z m 12,2 v 37 h 2 v -37 z m 16,5 V 64 h 2 V 27.5 Z m -36,3 V 64 h 2 V 30.5 Z m 28,0 V 64 h 2 V 30.5 Z m 12,2 V 64 h 2 V 32.5 Z m -48,3 V 62 l 2,2 V 35.5 Z m 60,8 V 64 h 2 V 43.5 Z m -8,5 V 64 h 2 V 48.5 Z m 4,14 V 64 h 2 v -1.5 z"
           id="path3873"
           transform="translate(0,14.5)" />
        <path
           inkscape:connector-curvature="0"
           style="color:#000000;display:inline;overflow:visible;visibility:visible;fill:#ffcc00;fill-opacity:0.0362191;fill-rule:nonzero;stroke:none;stroke-width:1;marker:none;enable-background:accumulate"
           d="M 4,0 V 25 H 6 V 0 Z m 8,0 v 30 h 2 V 0 Z m 12,0 v 11 h 2 V 0 Z m 4,0 v 6 h 2 V 0 Z m 8,0 v 9 h 2 V 0 Z m 16,0 v 28 h 2 V 0 Z m 4,0 v 14 h 2 V 0 Z m 4,0 v 33 h 2 V 0 Z M 40,1 v 37 h 2 V 1 Z M 0,4 v 30 7 H 2 V 4 Z m 48,2 v 37 h 2 V 6 Z M 8,7 v 37 h 2 V 7 Z m 12,4 v 37 h 2 V 11 Z m 8,5 v 37 h 2 V 16 Z m 28,0 v 37 h 2 V 16 Z m -20,1 v 37 h 2 V 17 Z m 8,3 v 37 h 2 V 20 Z m -12,2 v 37 h 2 V 22 Z m -16,5 v 37 h 2 V 27 Z m 8,3 v 34 h 2 V 30 Z m 28,0 v 34 h 2 V 30 Z m -40,2 v 32 h 2 V 32 Z m 48,3 v 29 h 2 V 35 Z M 0,43 v 19 l 2,2 V 43 Z m 8,5 v 16 h 2 V 48 Z M 4,62 v 2 h 2 v -2 z"
           id="path3875"
           transform="translate(0,14.5)" />
      </g>
      <g
         style="fill:#ffcc00"
         transform="translate(2,-14.5)"
         id="g3995">
        <path
           transform="translate(0,14.5)"
           id="path4002"
           d="M 2,0 0,1 V 4 22.5 H 2 Z M 4,0 V 3.5 H 6 V 0 Z m 4,0 v 17.5 h 2 V 0 Z m 4,0 v 32.5 h 2 V 0 Z m 8,0 v 27.5 h 2 V 0 Z m 16,0 v 0.5 h 2 V 0 Z m 12,0 v 19.5 h 2 V 0 Z m 4,0 v 33.5 h 2 V 0 Z m 4,0 v 14.5 h 2 V 0 Z m 4,0 v 30.5 h 2 V 0 Z M 40,0.5 v 37 h 2 v -37 z m -36,5 v 37 h 2 v -37 z m 28,0 v 37 h 2 v -37 z m -8,1 v 37 h 2 v -37 z m -8,3 v 37 h 2 v -37 z m 12,2 v 37 h 2 v -37 z m 16,5 v 37 h 2 v -37 z m -36,3 v 37 h 2 v -37 z m 28,0 v 37 h 2 v -37 z m 12,2 v 37 h 2 v -37 z m -48,3 V 34 61.5 h 2 v -37 z m 60,8 V 64 h 2 V 32.5 Z m -8,5 V 64 h 2 V 37.5 Z m 4,14 V 64 h 2 V 51.5 Z"
           style="color:#000000;display:inline;overflow:visible;visibility:visible;fill:#ffcc00;fill-opacity:0.01501764;fill-rule:nonzero;stroke:none;stroke-width:1;marker:none;enable-background:accumulate"
           inkscape:connector-curvature="0" />
        <path
           transform="translate(0,14.5)"
           id="path3998"
           d="M 2,0 0,1 V 4 30 H 2 Z M 4,0 V 14 H 6 V 0 Z m 4,0 v 33 h 2 V 0 Z m 4,0 v 19 h 2 V 0 Z m 8,0 v 37 h 2 V 0 Z m 20,0 v 27 h 2 V 0 Z m 8,0 v 32 h 2 V 0 Z m 4,0 v 17 h 2 V 0 Z m 4,0 v 3 h 2 V 0 Z m 4,0 v 22 h 2 V 0 Z M 28,5 v 37 h 2 V 5 Z m 28,0 v 37 h 2 V 5 Z M 36,6 v 37 h 2 V 6 Z m 8,3 v 37 h 2 V 9 Z m -12,2 v 37 h 2 V 11 Z m -16,5 v 37 h 2 V 16 Z m 8,3 v 37 h 2 V 19 Z m 28,0 v 37 h 2 V 19 Z m -40,2 v 37 h 2 V 21 Z m 48,3 v 37 h 2 V 24 Z M 0,32 v 2 28 l 2,2 V 32 Z m 8,5 v 27 h 2 V 37 Z M 4,51 V 64 H 6 V 51 Z"
           style="color:#000000;display:inline;overflow:visible;visibility:visible;fill:#ffcc00;fill-opacity:0.01501764;fill-rule:nonzero;stroke:none;stroke-width:1;marker:none;enable-background:accumulate"
           inkscape:connector-curvature="0" />
        <path
           transform="translate(0,14.5)"
           id="path4004"
           d="M 2,0 0,1 V 4 28.5 H 2 Z M 4,0 V 12.5 H 6 V 0 Z m 4,0 v 31.5 h 2 V 0 Z m 4,0 v 17.5 h 2 V 0 Z m 8,0 v 35.5 h 2 V 0 Z m 20,0 v 25.5 h 2 V 0 Z m 8,0 v 30.5 h 2 V 0 Z m 4,0 v 15.5 h 2 V 0 Z m 4,0 v 1.5 h 2 V 0 Z m 4,0 v 20.5 h 2 V 0 Z M 28,3.5 v 37 h 2 v -37 z m 28,0 v 37 h 2 v -37 z m -20,1 v 37 h 2 v -37 z m 8,3 v 37 h 2 v -37 z m -12,2 v 37 h 2 v -37 z m -16,5 v 37 h 2 v -37 z m 8,3 v 37 h 2 v -37 z m 28,0 v 37 h 2 v -37 z m -40,2 v 37 h 2 v -37 z m 48,3 v 37 h 2 v -37 z m -60,8 V 34 62 l 2,2 V 30.5 Z m 8,5 V 64 h 2 V 35.5 Z m -4,14 V 64 H 6 V 49.5 Z"
           style="color:#000000;display:inline;overflow:visible;visibility:visible;fill:#ffcc00;fill-opacity:0.01501764;fill-rule:nonzero;stroke:none;stroke-width:1;marker:none;enable-background:accumulate"
           inkscape:connector-curvature="0" />
        <path
           transform="translate(0,14.5)"
           id="path4000"
           d="M 2,0 0,1 V 20 H 2 Z M 4,0 V 1 H 6 V 0 Z m 4,0 v 15 h 2 V 0 Z m 4,0 v 30 h 2 V 0 Z m 8,0 v 25 h 2 V 0 Z m 20,0 v 35 h 2 V 0 Z m 8,0 v 17 h 2 V 0 Z m 4,0 v 31 h 2 V 0 Z m 4,0 v 12 h 2 V 0 Z m 4,0 v 28 h 2 V 0 Z M 4,3 V 40 H 6 V 3 Z m 28,0 v 37 h 2 V 3 Z m -8,1 v 37 h 2 V 4 Z m -8,3 v 37 h 2 V 7 Z m 12,2 v 37 h 2 V 9 Z m 16,5 v 37 h 2 V 14 Z M 8,17 v 37 h 2 V 17 Z m 28,0 v 37 h 2 V 17 Z m 12,2 v 37 h 2 V 19 Z M 0,22 V 34 59 H 2 V 22 Z m 60,8 v 34 h 2 V 30 Z m -8,5 v 29 h 2 V 35 Z m 4,14 v 15 h 2 V 49 Z"
           style="color:#000000;display:inline;overflow:visible;visibility:visible;fill:#ffcc00;fill-opacity:0.01501764;fill-rule:nonzero;stroke:none;stroke-width:1;marker:none;enable-background:accumulate"
           inkscape:connector-curvature="0" />
        <path
           transform="translate(0,14.5)"
           id="path4006"
           d="M 2,0 0,1 V 4 33.5 H 2 Z M 4,0 V 14.5 H 6 V 0 Z m 4,0 v 28.5 h 2 V 0 Z m 16,0 v 9.5 h 2 V 0 Z m 8,0 v 6.5 h 2 V 0 Z m 4,0 v 11.5 h 2 V 0 Z m 12,0 v 30.5 h 2 V 0 Z m 8,0 v 25.5 h 2 V 0 Z M 20,1.5 v 37 h 2 v -37 z m 40,3 v 37 h 2 v -37 z m -48,2 v 37 h 2 v -37 z m 40,1 v 37 h 2 v -37 z m -12,4 v 37 h 2 v -37 z m -36,5 v 37 h 2 v -37 z m 28,0 v 37 h 2 v -37 z m -8,1 v 37 h 2 v -37 z m -8,3 v 37 h 2 v -37 z m 12,2 v 37 h 2 v -37 z m 16,5 V 64 h 2 V 27.5 Z m -36,3 V 64 h 2 V 30.5 Z m 28,0 V 64 h 2 V 30.5 Z m 12,2 V 64 h 2 V 32.5 Z m -48,3 V 62 l 2,2 V 35.5 Z m 60,8 V 64 h 2 V 43.5 Z m -8,5 V 64 h 2 V 48.5 Z m 4,14 V 64 h 2 v -1.5 z"
           style="color:#000000;display:inline;overflow:visible;visibility:visible;fill:#ffcc00;fill-opacity:0.01501764;fill-rule:nonzero;stroke:none;stroke-width:1;marker:none;enable-background:accumulate"
           inkscape:connector-curvature="0" />
        <path
           transform="translate(0,14.5)"
           id="path3988"
           d="M 4,0 V 25 H 6 V 0 Z m 8,0 v 30 h 2 V 0 Z m 12,0 v 11 h 2 V 0 Z m 4,0 v 6 h 2 V 0 Z m 8,0 v 9 h 2 V 0 Z m 16,0 v 28 h 2 V 0 Z m 4,0 v 14 h 2 V 0 Z m 4,0 v 33 h 2 V 0 Z M 40,1 v 37 h 2 V 1 Z M 0,4 v 30 7 H 2 V 4 Z m 48,2 v 37 h 2 V 6 Z M 8,7 v 37 h 2 V 7 Z m 12,4 v 37 h 2 V 11 Z m 8,5 v 37 h 2 V 16 Z m 28,0 v 37 h 2 V 16 Z m -20,1 v 37 h 2 V 17 Z m 8,3 v 37 h 2 V 20 Z m -12,2 v 37 h 2 V 22 Z m -16,5 v 37 h 2 V 27 Z m 8,3 v 34 h 2 V 30 Z m 28,0 v 34 h 2 V 30 Z m -40,2 v 32 h 2 V 32 Z m 48,3 v 29 h 2 V 35 Z M 0,43 v 19 l 2,2 V 43 Z m 8,5 v 16 h 2 V 48 Z M 4,62 v 2 h 2 v -2 z"
           style="color:#000000;display:inline;overflow:visible;visibility:visible;fill:#ffcc00;fill-opacity:0.01501764;fill-rule:nonzero;stroke:none;stroke-width:1;marker:none;enable-background:accumulate"
           inkscape:connector-curvature="0" />
      </g>
    </g>
    <g
       transform="matrix(1.3125,0,0,1.1500702,0,22.082921)"
       id="g4454">
      <path
         style="opacity:1;fill:#421300;fill-opacity:0.16368516;fill-rule:nonzero;stroke-width:1;stroke-linecap:butt;stroke-linejoin:miter;stroke-miterlimit:4;stroke-dasharray:none;stroke-dashoffset:0;stroke-opacity:1;marker:none"
         d="M 49.71875,4.96875 47.64633,3.0748793 39.375,7.75 11,9 v 2 H 10 L 9.8125,15.65625 4.34375,17.125 9.03125,34.59375 8.125,56 3.71875,55.46875 3.5625,56.59375 8.0625,57.3125 8,59 l 2,2 h 6.09375 l 0.8125,3 h 5.75 l 11.1875,-3 H 57 v -2 h 1 v -4.46875 l 4.65625,-1.25 L 58,35.90625 V 29.75 L 61.46875,13.625 60.9375,13.5 58,27.15625 V 9 L 56,7 50.34375,7.25 Z"
         id="path3960-6"
         inkscape:connector-curvature="0"
         sodipodi:nodetypes="ccccccccccccccccccccccccccccccccc" />
      <path
         style="color:#000000;display:inline;overflow:visible;visibility:visible;fill:#bebebe;fill-opacity:1;fill-rule:nonzero;stroke-width:1;stroke-linecap:butt;stroke-linejoin:miter;stroke-miterlimit:4;stroke-dasharray:none;stroke-dashoffset:0;stroke-opacity:1;marker:none;enable-background:accumulate"
         id="path3960"
         d="M 9,7 H 56 V 57 H 9 Z"
         inkscape:connector-curvature="0" />
      <g
         id="g3978"
         transform="matrix(0.90163477,0.1065236,-0.1065236,0.90163477,2.5209153,16.4607)">
        <rect
           ry="0"
           rx="0"
           y="8.4870415"
           x="5.4203324"
           height="34.025917"
           width="30.159336"
           id="rect3980"
           style="color:#000000;display:inline;overflow:visible;visibility:visible;fill:#d8d8d8;fill-opacity:1;fill-rule:nonzero;stroke:none;marker:none;enable-background:accumulate" />
        <g
           transform="matrix(0.25386658,0,0,0.25577828,2.789877,2.8164823)"
           id="g3982">
          <rect
             y="32"
             x="19"
             height="98"
             width="100"
             id="rect3984"
             style="color:#000000;display:inline;overflow:visible;visibility:visible;fill:#9e6e59;fill-opacity:1;fill-rule:nonzero;stroke:none;marker:none;enable-background:accumulate" />
          <path
             inkscape:connector-curvature="0"
             style="color:#000000;display:inline;overflow:visible;visibility:visible;fill:#9e3838;fill-opacity:1;fill-rule:nonzero;stroke:none;marker:none;enable-background:accumulate"
             d="M 19.53125,26.3125 C 19.321225,26.3392 18.987904,26.443547 18.875,26.5 18.415095,26.729952 18.448453,26.44125 18.25,26.65625 v 18.6875 h 26.09375 v -8.125 C 44.194787,37.107941 44.076853,37.030742 44,37 44.04167,36.875 44.125,36.756761 44.125,36.625 44.124999,36.377989 43.031558,32.578279 43,32.5625 42.274311,32.199656 39.338229,34.112743 39,34 38.864018,33.95467 38.6111,32.9861 38.5625,32.9375 38.447644,32.822644 38.182622,32.9342 38,32.8125 37.728451,32.631468 37.543051,32.271526 37.25,32.125 36.943281,31.971641 36.486988,32.575513 36.3125,32.75 36.2896,32.7729 36.02375,33.109999 36,33.0625 35.711781,32.486063 35.557446,31.76471 35.4375,31.125 35.41347,30.99684 35.264877,30.404753 35.1875,30.25 35.151977,30.178958 35.045669,30.068845 35,30 c -0.01624,0.02865 -0.04167,0.05208 -0.0625,0.0625 -0.157299,0.07865 -0.521116,-0.07306 -0.625,-0.125 -0.08166,-0.04083 -0.0221,-0.261051 -0.125,-0.3125 -0.02511,-0.01255 -1.124166,0.749166 -1.1875,0.8125 -0.332598,0.332598 -0.547088,1.016263 -0.6875,1.4375 -0.03543,0.106299 -0.172263,0.469526 -0.1875,0.5 -0.02795,0.0559 0.0625,0.1875 0,0.1875 -0.276898,0 -0.839659,-1.532613 -1.3125,-1.375 -0.135856,0.04529 -1.06289,1.063668 -1.125,1.25 -0.02375,0.07126 -0.04988,0.1875 -0.125,0.1875 -0.0023,0 -0.849458,-1.275952 -0.9375,-1.375 C 28.518914,31.130654 27.95644,30.38447 27.9375,30.375 27.655855,30.234178 26.958803,30.208804 26.75,30 26.492733,29.742733 26.163253,29.358835 25.8125,29.125 25.637112,29.008075 24.967421,29.09242 24.9375,29.0625 24.561453,28.686452 24.237408,28.074938 23.75,27.75 23.147292,27.348194 22.336004,29.480501 22,29.3125 21.868071,29.24654 21.769063,28.989188 21.6875,28.875 c -0.435404,-0.609567 -1.449856,-2.287429 -2,-2.5625 -0.02985,-0.01493 -0.08624,-0.0089 -0.15625,0 z M 35,30 c 0.01624,-0.02865 0.02329,-0.0625 0,-0.0625 -0.04205,0 -0.02418,0.02605 0,0.0625 z"
             transform="matrix(3.8322567,0,0,3.8036142,-50.954539,-42.491618)"
             id="path3986" />
        </g>
      </g>
      <g
         transform="matrix(0.88773852,0.19029678,-0.19029678,0.88773852,31.247918,-2.0867019)"
         id="g3926">
        <rect
           style="color:#000000;display:inline;overflow:visible;visibility:visible;fill:#d8d8d8;fill-opacity:1;fill-rule:nonzero;stroke:none;marker:none;enable-background:accumulate"
           id="rect2817"
           width="30.159336"
           height="34.025917"
           x="5.4203324"
           y="8.4870415"
           rx="0"
           ry="0" />
        <g
           id="g3636"
           transform="matrix(0.25386658,0,0,0.25577828,2.789877,2.8164823)">
          <rect
             style="color:#000000;display:inline;overflow:visible;visibility:visible;fill:#7ebf38;fill-opacity:1;fill-rule:nonzero;stroke:none;stroke-width:0.99999994;marker:none;enable-background:accumulate"
             id="rect3975"
             width="100"
             height="98"
             x="19"
             y="32" />
          <path
             inkscape:connector-curvature="0"
             id="path3973"
             d="m 114.07202,100.76446 c 0.80486,0.041 2.08224,0.20116 2.51491,0.28782 1.76248,0.35299 1.63464,-0.0902 2.39516,0.23985 v 28.68638 H 18.984146 v -12.47234 c 0.570864,-0.1701 1.022818,-0.2886 1.317338,-0.33579 -0.15969,-0.19188 -0.479032,-0.37339 -0.479032,-0.57565 4e-6,-0.37917 4.19035,-6.21194 4.311289,-6.23617 2.781026,-0.55698 14.032846,2.37972 15.329027,2.20665 0.521117,-0.0696 1.490364,-1.5564 1.676612,-1.631 0.440157,-0.17631 1.45579,-0.005 2.155644,-0.19188 1.040646,-0.2779 1.751146,-0.83043 2.874193,-1.05535 1.175426,-0.23542 2.924058,0.69156 3.59274,0.95941 0.08776,0.0352 1.106565,0.55262 1.197581,0.4797 1.104529,-0.88486 1.69598,-1.99218 2.155644,-2.97417 0.09209,-0.19673 0.661536,-1.10562 0.958064,-1.34318 0.136133,-0.10905 0.543533,-0.27808 0.718548,-0.38376 0.06224,0.044 0.15969,0.0799 0.239516,0.0959 0.602811,0.12073 1.997051,-0.11215 2.395161,-0.19188 0.312942,-0.0627 0.08469,-0.40073 0.479032,-0.47971 0.09623,-0.0193 4.308093,1.15002 4.550805,1.24724 1.274601,0.51055 2.096581,1.56002 2.634676,2.20664 0.135777,0.16318 0.660156,0.72075 0.718548,0.76753 0.107112,0.0858 -0.239516,0.28782 0,0.28782 1.061145,0 3.217789,-2.35264 5.029837,-2.1107 0.520635,0.0695 4.073268,1.63279 4.311289,1.91882 0.09102,0.10939 0.191153,0.28782 0.479032,0.28782 0.0088,0 3.255341,-1.95865 3.592741,-2.1107 0.406549,-0.1832 2.562093,-1.32864 2.634676,-1.34317 1.079336,-0.21617 3.750618,-0.25512 4.550805,-0.57565 0.985913,-0.39492 2.248565,-0.98422 3.592741,-1.34317 0.672132,-0.17949 3.238559,-0.05 3.353224,-0.096 1.441109,-0.57725 2.682933,-1.51596 4.550805,-2.01476 2.309728,-0.61679 5.418798,2.65642 6.706448,2.39853 0.50559,-0.10125 0.88501,-0.4963 1.19758,-0.67159 1.66858,-0.93572 5.55622,-3.51133 7.66452,-3.93358 0.11439,-0.0229 0.33049,-0.0137 0.59879,0 z m -59.280226,5.66052 c -0.06224,-0.044 -0.08925,-0.0959 0,-0.0959 0.161147,0 0.09266,0.04 0,0.0959 z"
             style="fill:#28331c;fill-opacity:0.29858662;stroke:none" />
        </g>
      </g>
      <path
         style="color:#000000;display:inline;overflow:visible;visibility:visible;fill:url(#linearGradient3885);fill-opacity:1;fill-rule:nonzero;stroke-width:1;stroke-linecap:butt;stroke-linejoin:miter;stroke-miterlimit:4;stroke-dasharray:none;stroke-dashoffset:0;stroke-opacity:1;marker:none;enable-background:accumulate"
         id="path3960-9"
         d="M 2.330267,15.138607 47.728781,2.9741116 60.669733,51.270403 15.271219,63.434898 Z"
         inkscape:connector-curvature="0" />
      <g
         transform="rotate(-15,26.579396,32.144782)"
         style="font-style:normal;font-variant:normal;font-weight:normal;font-stretch:normal;font-size:3px;line-height:125%;font-family:Oxygen;-inkscape-font-specification:Oxygen;letter-spacing:0px;word-spacing:0px;fill:#000000;fill-opacity:0.49731182;stroke:none"
         id="flowRoot4102">
        <path
           d="m 12.973633,19.049594 c -1.034208,-0.94402 0.175693,-2.59278 0.533246,-0.771186 -0.004,0.333163 -0.224847,0.647851 -0.533257,0.77119"
           id="path3062"
           inkscape:connector-curvature="0" />
        <path
           d="m 14.601074,18.249789 c 0.914817,2.576561 0.87429,-1.804273 0,0 z m 1.234864,-0.0044 c -0.867579,2.364952 -1.679735,-2.163474 -0.20068,-0.422424 l 0.10482,0.20919 z"
           id="path3064"
           inkscape:connector-curvature="0" />
        <path
           d="m 16.900879,17.428012 c 0.661156,1.522083 -1.755828,1.133699 -0.328665,0.132443 0.10954,-0.04415 0.219081,-0.08829 0.328621,-0.132437"
           id="path3066"
           inkscape:connector-curvature="0" />
        <path
           d="m 18.172363,17.740024 c -1.166156,-0.91571 -0.235703,1.201002 0,0 z m -0.246093,1.343261 c -1.515806,-1.688022 1.47714,-0.307631 -3.1e-5,-10e-6"
           id="path3068"
           inkscape:connector-curvature="0" />
        <path
           d="m 20.910156,19.049594 c -0.160644,-1.322537 -3.25694,-0.798287 -0.664079,-1.601202 1.002271,-0.323518 1.299608,1.053147 0.664097,1.601187"
           id="path3070"
           inkscape:connector-curvature="0" />
        <path
           d="m 22.503906,17.44266 c 0.80331,1.373921 -0.990427,1.395323 0,0 z m 0,-0.584472 c 0.418414,0.854171 -0.827223,-0.182597 0,0 z"
           id="path3072"
           inkscape:connector-curvature="0" />
        <path
           d="m 22.965332,19.74686 c -1.428438,-1.250474 1.669094,-3.303659 1.04794,-0.962577 -0.251578,0.412456 -0.656625,0.695376 -1.047928,0.96257 m 0.711914,-0.870118 c 2.343525,-1.607132 -2.325328,-1.178811 0,0 z"
           id="path3074"
           inkscape:connector-curvature="0" />
        <path
           d="m 25.202148,19.083285 c -1.213274,-2.158064 1.521585,-0.565701 -9e-6,-1.2e-5"
           id="path3076"
           inkscape:connector-curvature="0" />
        <path
           d="m 26.062012,18.513461 c 2.326336,-1.107913 0.779947,1.463077 0,0 z"
           id="path3078"
           inkscape:connector-curvature="0" />
        <path
           d="m 29.769531,19.049594 c -0.160644,-1.322537 -3.25694,-0.798287 -0.664079,-1.601202 1.002271,-0.323518 1.299608,1.053147 0.664097,1.601187"
           id="path3080"
           inkscape:connector-curvature="0" />
        <path
           d="m 31.70166,18.872348 c 2.181596,-1.440598 -2.180069,-1.042129 0,0 z m 0.481928,-0.05566 c -2.366041,-0.726349 1.680456,-1.993749 0.389545,-0.336147 l -0.173531,0.160252 z"
           id="path3082"
           inkscape:connector-curvature="0" />
        <path
           d="m 33.028809,18.249789 c 0.914816,2.576564 0.874292,-1.804273 0,0 z m 1.234863,-0.0044 c -0.867579,2.364952 -1.679733,-2.163474 -0.20068,-0.422424 l 0.10482,0.20919 z"
           id="path3084"
           inkscape:connector-curvature="0" />
        <path
           d="m 35.040039,19.078891 c -0.899264,-1.225194 0.147016,-2.073075 -2e-5,-3.1e-5"
           id="path3086"
           inkscape:connector-curvature="0" />
        <path
           d="m 35.618652,18.249789 c 0.914817,2.576561 0.87429,-1.804273 0,0 z m 1.234864,-0.0044 c -0.867579,2.364952 -1.679733,-2.163473 -0.200679,-0.422424 l 0.10482,0.20919 z"
           id="path3088"
           inkscape:connector-curvature="0" />
        <path
           d="m 37.918457,17.428012 c 0.661156,1.522083 -1.755828,1.133699 -0.328665,0.132443 0.10954,-0.04415 0.219081,-0.08829 0.328621,-0.132437"
           id="path3090"
           inkscape:connector-curvature="0" />
        <path
           d="m 39.522461,19.083285 c -1.213297,-2.158071 1.521606,-0.5657 -10e-7,-1.2e-5"
           id="path3092"
           inkscape:connector-curvature="0" />
        <path
           d="m 40.726562,17.44266 c 0.803303,1.373916 -0.990421,1.395326 0,0 z m 0,-0.584472 c 0.41842,0.854165 -0.82722,-0.182583 0,0 z"
           id="path3094"
           inkscape:connector-curvature="0" />
        <path
           d="m 41.700684,19.078891 c -1.281804,-1.242308 0.5131,-2.285365 0,-4.4e-5"
           id="path3096"
           inkscape:connector-curvature="0" />
        <path
           d="m 13.392578,22.635531 c 1.665002,-0.09393 -0.65723,-1.061424 0,0 z m 0.531732,0.164056 c -2.44127,-0.887519 1.661679,-2.28984 -9e-6,1.2e-5"
           id="path3098"
           inkscape:connector-curvature="0" />
        <path
           d="m 16.580078,22.799594 c -0.160641,-1.322539 -3.256943,-0.798286 -0.664081,-1.601204 1.002271,-0.323518 1.29961,1.053148 0.664098,1.601189"
           id="path3100"
           inkscape:connector-curvature="0" />
        <path
           d="m 18.061035,21.490024 c -1.166156,-0.91571 -0.235703,1.201002 0,0 z m -0.246094,1.343261 c -1.515802,-1.688024 1.477141,-0.307628 -3.1e-5,-10e-6"
           id="path3102"
           inkscape:connector-curvature="0" />
        <path
           d="m 19.270996,22.828891 c -1.281802,-1.242308 0.513101,-2.285364 0,-4.4e-5"
           id="path3104"
           inkscape:connector-curvature="0" />
        <path
           d="m 19.751465,23.206821 c -0.62554,-1.026326 1.282831,-0.509868 0,0 z"
           id="path3106"
           inkscape:connector-curvature="0" />
        <path
           d="m 21.969238,22.833285 c -1.322906,-0.490478 0.373914,-2.214471 0.02857,-0.365408 -0.0033,0.122242 -0.01916,0.243596 -0.02857,0.365408 z"
           id="path3108"
           inkscape:connector-curvature="0" />
        <path
           d="m 22.88623,21.999789 c 0.914816,2.576562 0.874292,-1.804272 0,0 z m 1.234864,-0.0044 c -0.86758,2.364952 -1.679733,-2.163474 -0.20068,-0.422424 l 0.10482,0.20919 z"
           id="path3110"
           inkscape:connector-curvature="0" />
        <path
           d="m 24.465332,22.799594 c -1.041619,-1.102697 2.097925,-1.453539 0.279665,-0.752688 l -0.139855,0.376347 -0.139853,0.376347"
           id="path3112"
           inkscape:connector-curvature="0" />
        <path
           d="m 26.678711,22.833285 c -1.213297,-2.158071 1.521606,-0.5657 -1e-6,-1.2e-5"
           id="path3114"
           inkscape:connector-curvature="0" />
        <path
           d="m 28.52002,21.490024 c -1.166157,-0.91571 -0.235701,1.201003 0,0 z m -0.246094,1.343261 c -1.515805,-1.688022 1.477138,-0.307631 -3.2e-5,-10e-6"
           id="path3116"
           inkscape:connector-curvature="0" />
        <path
           d="m 29.896973,22.833285 c -1.322908,-0.490475 0.373914,-2.214476 0.02857,-0.36541 -0.0033,0.122242 -0.01916,0.243597 -0.02857,0.36541 z"
           id="path3118"
           inkscape:connector-curvature="0" />
        <path
           d="m 31.147949,22.828891 c -1.281807,-1.242302 0.513108,-2.285368 -10e-6,-4.4e-5"
           id="path3120"
           inkscape:connector-curvature="0" />
        <path
           d="m 32.586426,21.490024 c -1.166157,-0.91571 -0.235701,1.201003 0,0 z m -0.246094,1.343261 c -1.515804,-1.688022 1.47714,-0.30763 -3e-5,-10e-6"
           id="path3122"
           inkscape:connector-curvature="0" />
        <path
           d="m 33.796387,22.828891 c -1.281804,-1.242308 0.5131,-2.285365 0,-4.4e-5"
           id="path3124"
           inkscape:connector-curvature="0" />
        <path
           d="m 34.270996,22.263461 c 0.774074,-1.593966 1.750061,1.710862 0.21282,0.164999 -0.07095,-0.055 -0.141893,-0.110001 -0.21284,-0.165002"
           id="path3126"
           inkscape:connector-curvature="0" />
        <path
           d="m 36.86377,21.490024 c -1.166157,-0.91571 -0.235701,1.201003 0,0 z m -0.246094,1.343261 c -1.515805,-1.688022 1.477138,-0.307631 -3.2e-5,-10e-6"
           id="path3128"
           inkscape:connector-curvature="0" />
        <path
           d="m 38.281738,21.178012 c 0.661155,1.522084 -1.755827,1.133699 -0.328664,0.132443 0.10954,-0.04415 0.219081,-0.08829 0.328621,-0.132437"
           id="path3130"
           inkscape:connector-curvature="0" />
        <path
           d="m 13.392578,26.385531 c 1.665002,-0.09393 -0.65723,-1.061424 0,0 z m 0.531732,0.164056 c -2.44127,-0.887519 1.661679,-2.28984 -9e-6,1.2e-5"
           id="path3132"
           inkscape:connector-curvature="0" />
        <path
           d="m 15.166504,26.372348 c 2.181599,-1.440602 -2.180072,-1.042127 0,0 z m 0.481927,-0.05566 c -2.368989,-0.732422 1.689855,-2.009872 0.390725,-0.339724 L 15.865078,26.1389 Z"
           id="path3134"
           inkscape:connector-curvature="0" />
        <path
           d="m 16.603516,24.94266 c 0.80331,1.373921 -0.990427,1.395323 0,0 z m 0,-0.584472 c 0.418414,0.854171 -0.827223,-0.182597 0,0 z"
           id="path3136"
           inkscape:connector-curvature="0" />
        <path
           d="m 17.064941,27.24686 c -1.428437,-1.250475 1.669094,-3.303659 1.04794,-0.962577 -0.251578,0.412456 -0.656625,0.695376 -1.047928,0.96257 m 0.711914,-0.870118 c 2.343526,-1.607132 -2.325327,-1.178813 0,0 z"
           id="path3138"
           inkscape:connector-curvature="0" />
        <path
           d="m 19.111328,24.94266 c 0.80331,1.373921 -0.990427,1.395323 0,0 z m 0,-0.584472 c 0.418414,0.854171 -0.827223,-0.182597 0,0 z"
           id="path3140"
           inkscape:connector-curvature="0" />
        <path
           d="m 20.051758,26.583285 c -1.213285,-2.158065 1.521586,-0.565701 -10e-6,-1.2e-5"
           id="path3142"
           inkscape:connector-curvature="0" />
        <path
           d="m 21.646973,26.583285 c -1.322908,-0.490475 0.373914,-2.214476 0.02857,-0.36541 -0.0033,0.122242 -0.01916,0.243597 -0.02857,0.36541 z"
           id="path3144"
           inkscape:connector-curvature="0" />
        <path
           d="m 22.673828,24.94266 c 0.80331,1.373921 -0.990427,1.395323 0,0 z m 0,-0.584472 c 0.418414,0.854171 -0.827223,-0.182597 0,0 z"
           id="path3146"
           inkscape:connector-curvature="0" />
        <path
           d="m 23.135254,26.549594 c -1.041618,-1.102697 2.097924,-1.453537 0.279664,-0.752688 l -0.139851,0.376347 -0.139855,0.376347"
           id="path3148"
           inkscape:connector-curvature="0" />
        <path
           d="m 25.493652,26.340121 c 1.90537,-1.216439 -1.797476,-0.843734 1.4e-5,-10e-6 m -0.376465,0.944825 c -0.96023,-1.397086 1.666268,-2.77575 1.053066,-0.565447 -0.141691,0.411517 -0.620592,0.718437 -1.05311,0.56545"
           id="path3150"
           inkscape:connector-curvature="0" />
        <path
           d="m 28.285645,25.240024 c -1.166157,-0.91571 -0.235701,1.201003 0,0 z m -0.246094,1.343261 c -1.515805,-1.688022 1.477138,-0.307631 -3.2e-5,-10e-6"
           id="path3152"
           inkscape:connector-curvature="0" />
        <path
           d="m 29.415039,26.578891 c -0.899264,-1.225194 0.147016,-2.073075 -2e-5,-3.1e-5"
           id="path3154"
           inkscape:connector-curvature="0" />
        <path
           d="m 30.103516,24.94266 c 0.80331,1.373921 -0.990427,1.395323 0,0 z m 0,-0.584472 c 0.418414,0.854171 -0.827223,-0.182597 0,0 z"
           id="path3156"
           inkscape:connector-curvature="0" />
        <path
           d="m 31.077637,26.578891 c -1.281804,-1.242308 0.5131,-2.285365 0,-4.4e-5"
           id="path3158"
           inkscape:connector-curvature="0" />
        <path
           d="m 31.780762,26.567172 c -0.873469,-0.413079 0.827369,-0.303404 0,0 z"
           id="path3160"
           inkscape:connector-curvature="0" />
        <path
           d="m 34.430664,24.38309 c 1.366511,1.371368 -1.971092,1.234463 -0.76877,1.155852 0.714205,0.287847 0.48101,-0.835618 0.76877,-1.155852 z"
           id="path3162"
           inkscape:connector-curvature="0" />
        <path
           d="m 35.195312,24.94266 c 0.803303,1.373916 -0.990421,1.395326 0,0 z m 0,-0.584472 c 0.41842,0.854165 -0.82722,-0.182583 0,0 z"
           id="path3164"
           inkscape:connector-curvature="0" />
        <path
           d="m 36.068359,26.549594 c -1.358854,-1.882354 2.37326,-0.883472 0,0 z"
           id="path3166"
           inkscape:connector-curvature="0" />
        <path
           d="m 37.615234,26.385531 c 1.664983,-0.09391 -0.657197,-1.061435 0,0 z m 0.531742,0.164056 c -2.441267,-0.887519 1.661673,-2.28984 -1e-5,1.2e-5"
           id="path3168"
           inkscape:connector-curvature="0" />
        <path
           d="m 40.802734,26.549594 c -0.160644,-1.322538 -3.256943,-0.798288 -0.664081,-1.601203 1.00227,-0.323517 1.299609,1.053148 0.664097,1.601188"
           id="path3170"
           inkscape:connector-curvature="0" />
        <path
           d="m 41.302246,26.013461 c 0.774074,-1.593966 1.750061,1.710862 0.21282,0.164999 -0.07095,-0.055 -0.141893,-0.110001 -0.21284,-0.165002"
           id="path3172"
           inkscape:connector-curvature="0" />
        <path
           d="m 43.448242,26.583285 c -1.213275,-2.158066 1.521588,-0.565698 -9e-6,-1.2e-5"
           id="path3174"
           inkscape:connector-curvature="0" />
        <path
           d="m 13.539063,28.225375 c 0.631112,1.027224 -0.882817,2.190765 -0.525511,0.547016 0.105972,-0.236016 0.300435,-0.424436 0.525511,-0.547016 z"
           id="path3176"
           inkscape:connector-curvature="0" />
        <path
           d="m 14.820801,28.990024 c -1.166157,-0.91571 -0.235701,1.201003 0,0 z m -0.246094,1.343261 c -1.515804,-1.688023 1.477142,-0.307629 -3.1e-5,-10e-6"
           id="path3178"
           inkscape:connector-curvature="0" />
        <path
           d="m 15.462402,29.763461 c 2.326335,-1.107914 0.77995,1.463078 0,0 z"
           id="path3180"
           inkscape:connector-curvature="0" />
        <path
           d="m 17.753418,30.090121 c 1.905367,-1.216442 -1.797478,-0.843729 1.5e-5,-10e-6 m -0.376465,0.944825 c -0.960227,-1.397086 1.666267,-2.775749 1.053066,-0.565447 -0.141691,0.411516 -0.620591,0.718436 -1.053109,0.565449"
           id="path3182"
           inkscape:connector-curvature="0" />
        <path
           d="m 19.158203,28.69266 c 0.80331,1.373921 -0.990427,1.395323 0,0 z m 0,-0.584472 c 0.418414,0.854171 -0.827223,-0.182597 0,0 z"
           id="path3184"
           inkscape:connector-curvature="0" />
        <path
           d="m 20.083984,30.135531 c 1.665002,-0.09393 -0.657229,-1.061425 0,0 z m 0.531732,0.164056 c -2.441267,-0.887519 1.661675,-2.28984 -10e-6,1.2e-5"
           id="path3186"
           inkscape:connector-curvature="0" />
        <path
           d="m 21.743652,30.328891 c -1.281806,-1.242301 0.513108,-2.285368 -10e-6,-4.4e-5"
           id="path3188"
           inkscape:connector-curvature="0" />
        <path
           d="m 22.446777,30.317172 c -0.873467,-0.41308 0.82737,-0.3034 0,0 z"
           id="path3190"
           inkscape:connector-curvature="0" />
        <path
           d="m 23.754883,29.942172 c 0.694392,-0.323737 0.497338,-2.333634 0.905179,-0.700813 0.780645,1.043628 -0.03294,1.617217 -0.905179,0.700813 z"
           id="path3192"
           inkscape:connector-curvature="0" />
        <path
           d="m 26.475098,28.990024 c -1.166157,-0.91571 -0.235701,1.201003 0,0 z m -0.246094,1.343261 c -1.515804,-1.688022 1.477139,-0.30763 -3.1e-5,-10e-6"
           id="path3194"
           inkscape:connector-curvature="0" />
        <path
           d="m 27.799316,30.122348 c 2.181597,-1.440597 -2.180068,-1.042129 0,0 z m 0.481928,-0.05566 c -2.366037,-0.726354 1.680452,-1.993731 0.389544,-0.336143 l -0.17353,0.16025 z"
           id="path3196"
           inkscape:connector-curvature="0" />
        <path
           d="m 30.162109,30.135531 c 1.665002,-0.09393 -0.657229,-1.061425 0,0 z m 0.531732,0.164056 c -2.441267,-0.887519 1.661675,-2.28984 -10e-6,1.2e-5"
           id="path3198"
           inkscape:connector-curvature="0" />
        <path
           d="m 31.821777,30.328891 c -1.281806,-1.242301 0.513108,-2.285368 -10e-6,-4.4e-5"
           id="path3200"
           inkscape:connector-curvature="0" />
        <path
           d="m 33.614746,30.328891 c -1.281806,-1.242301 0.513108,-2.285368 -10e-6,-4.4e-5"
           id="path3202"
           inkscape:connector-curvature="0" />
        <path
           d="m 34.089355,29.763461 c 2.326338,-1.107911 0.779946,1.463081 0,0 z"
           id="path3204"
           inkscape:connector-curvature="0" />
        <path
           d="m 36.477051,28.678012 c 0.661156,1.522083 -1.755828,1.133699 -0.328665,0.132443 0.10954,-0.04415 0.219081,-0.08829 0.328621,-0.132437"
           id="path3206"
           inkscape:connector-curvature="0" />
        <path
           d="m 36.852051,30.99686 c -1.428437,-1.250475 1.669094,-3.303659 1.047941,-0.962577 -0.251577,0.412456 -0.656624,0.695376 -1.047927,0.96257 m 0.711914,-0.870118 c 2.343522,-1.607136 -2.325332,-1.178808 0,0 z"
           id="path3208"
           inkscape:connector-curvature="0" />
        <path
           d="m 38.898437,28.69266 c 0.803303,1.373916 -0.990421,1.395326 0,0 z m 0,-0.584472 c 0.41842,0.854165 -0.82722,-0.182583 0,0 z"
           id="path3210"
           inkscape:connector-curvature="0" />
        <path
           d="m 39.838867,30.333285 c -1.213275,-2.158066 1.521588,-0.565698 -9e-6,-1.2e-5"
           id="path3212"
           inkscape:connector-curvature="0" />
        <path
           d="m 41.916016,30.299594 c -1.358851,-1.882353 2.373258,-0.883477 0,0 z"
           id="path3214"
           inkscape:connector-curvature="0" />
        <path
           d="m 43.304687,28.69266 c 0.803303,1.373916 -0.990421,1.395326 0,0 z m 0,-0.584472 c 0.41842,0.854165 -0.82722,-0.182583 0,0 z"
           id="path3216"
           inkscape:connector-curvature="0" />
        <path
           d="m 44.278809,30.328891 c -1.281804,-1.242308 0.5131,-2.285365 0,-4.4e-5"
           id="path3218"
           inkscape:connector-curvature="0" />
        <path
           d="m 45.267578,30.135531 c 1.664982,-0.09392 -0.6572,-1.061432 0,0 z m 0.531742,0.164056 c -2.441271,-0.887519 1.66168,-2.289841 -9e-6,1.2e-5"
           id="path3220"
           inkscape:connector-curvature="0" />
        <path
           d="m 47.340332,28.990024 c -1.166157,-0.91571 -0.235701,1.201003 0,0 z m -0.246094,1.343261 c -1.515804,-1.688024 1.477142,-0.307628 -3.1e-5,-10e-6"
           id="path3222"
           inkscape:connector-curvature="0" />
        <path
           d="m 13.339844,34.049594 c -1.358855,-1.882353 2.373258,-0.883475 0,0 z"
           id="path3224"
           inkscape:connector-curvature="0" />
        <path
           d="m 15.348145,32.740024 c -1.166157,-0.91571 -0.235701,1.201003 0,0 z m -0.246094,1.343261 c -1.515805,-1.688022 1.477138,-0.307631 -3.2e-5,-10e-6"
           id="path3226"
           inkscape:connector-curvature="0" />
        <path
           d="m 16.477539,34.078891 c -0.899264,-1.225194 0.147016,-2.073075 -2e-5,-3.1e-5"
           id="path3228"
           inkscape:connector-curvature="0" />
        <path
           d="m 17.166016,32.44266 c 0.80331,1.373921 -0.990427,1.395323 0,0 z m 0,-0.584472 c 0.418414,0.854171 -0.827223,-0.182597 0,0 z"
           id="path3230"
           inkscape:connector-curvature="0" />
        <path
           d="m 18.140137,34.078891 c -1.281804,-1.242308 0.5131,-2.285365 0,-4.4e-5"
           id="path3232"
           inkscape:connector-curvature="0" />
        <path
           d="m 20.346191,32.740024 c -1.166156,-0.91571 -0.235703,1.201002 0,0 z m -0.246093,1.343261 c -1.515806,-1.688021 1.47714,-0.307631 -3.1e-5,-10e-6"
           id="path3234"
           inkscape:connector-curvature="0" />
        <path
           d="m 20.987793,33.513461 c 2.326334,-1.107915 0.779952,1.463078 0,0 z"
           id="path3236"
           inkscape:connector-curvature="0" />
        <path
           d="m 22.943359,32.44266 c 0.803303,1.373916 -0.990421,1.395326 0,0 z m 0,-0.584472 c 0.41842,0.854165 -0.82722,-0.182583 0,0 z"
           id="path3238"
           inkscape:connector-curvature="0" />
        <path
           d="m 23.883789,34.083285 c -1.212797,-2.148349 1.527493,-0.575144 0,0 z"
           id="path3240"
           inkscape:connector-curvature="0" />
        <path
           d="m 26.839844,34.049594 c -0.160647,-1.322536 -3.256938,-0.79829 -0.664078,-1.601203 1.002271,-0.323518 1.299611,1.053147 0.664098,1.601188"
           id="path3242"
           inkscape:connector-curvature="0" />
        <path
           d="m 27.57373,33.249789 c 0.914816,2.576562 0.874292,-1.804272 0,0 z m 1.234864,-0.0044 c -0.86758,2.364952 -1.679733,-2.163474 -0.20068,-0.422424 l 0.10482,0.20919 z"
           id="path3244"
           inkscape:connector-curvature="0" />
        <path
           d="m 29.779785,33.872348 c 2.181596,-1.440598 -2.180069,-1.042129 0,0 z m 0.481928,-0.05566 c -2.366036,-0.726356 1.680451,-1.993728 0.389544,-0.336142 l -0.17353,0.160249 z"
           id="path3246"
           inkscape:connector-curvature="0" />
        <path
           d="m 32.142578,33.885531 c 1.664982,-0.09392 -0.6572,-1.061432 0,0 z m 0.531742,0.164056 c -2.441269,-0.887519 1.661679,-2.28984 -9e-6,1.2e-5"
           id="path3248"
           inkscape:connector-curvature="0" />
        <path
           d="m 33.72168,34.078891 c -0.899271,-1.225198 0.147017,-2.073073 -2e-5,-3.1e-5"
           id="path3250"
           inkscape:connector-curvature="0" />
        <path
           d="m 34.410156,32.44266 c 0.80331,1.373921 -0.990427,1.395323 0,0 z m 0,-0.584472 c 0.418414,0.854171 -0.827223,-0.182597 0,0 z"
           id="path3252"
           inkscape:connector-curvature="0" />
        <path
           d="m 35.470703,34.083285 c -1.565887,-2.387917 2.667227,0.160744 -2e-5,0 m 0.03223,-0.210937 c 2.605581,-1.471142 -2.389894,-1.303402 0,0 z"
           id="path3254"
           inkscape:connector-curvature="0" />
        <path
           d="m 36.591309,33.513461 c 2.326336,-1.107913 0.779947,1.463077 0,0 z"
           id="path3256"
           inkscape:connector-curvature="0" />
        <path
           d="m 39.184082,32.740024 c -1.166157,-0.91571 -0.235701,1.201003 0,0 z m -0.246094,1.343261 c -1.515804,-1.688024 1.477142,-0.307628 -3.1e-5,-10e-6"
           id="path3258"
           inkscape:connector-curvature="0" />
        <path
           d="m 40.394043,34.078891 c -1.281804,-1.242308 0.513102,-2.285363 0,-4.4e-5"
           id="path3260"
           inkscape:connector-curvature="0" />
        <path
           d="m 41.097168,34.067172 c -0.873471,-0.413079 0.827371,-0.303403 0,0 z"
           id="path3262"
           inkscape:connector-curvature="0" />
        <path
           d="m 14.025391,36.90018 c 0.566309,-1.611187 -1.507424,0.489539 0,0 z m 0.335449,0.899414 c -2.074822,0.617366 -1.123955,-3.373611 -0.01219,-1.136653 0.07841,0.37462 0.05023,0.759671 0.01219,1.136653 z"
           id="path3264"
           inkscape:connector-curvature="0" />
        <path
           d="m 15.76416,36.490024 c -1.166156,-0.91571 -0.235703,1.201002 0,0 z m -0.246094,1.343261 c -1.515802,-1.688024 1.477141,-0.307628 -3.1e-5,-10e-6"
           id="path3266"
           inkscape:connector-curvature="0" />
        <path
           d="m 16.461426,37.799594 c -0.962328,-1.14978 2.096218,-1.485845 0.239418,-0.644386 -0.07982,0.214798 -0.15964,0.429595 -0.23946,0.644392"
           id="path3268"
           inkscape:connector-curvature="0" />
        <path
           d="m 19.121582,36.490024 c -1.166157,-0.91571 -0.235701,1.201003 0,0 z m -0.246094,1.343261 c -1.515804,-1.688024 1.477142,-0.307628 -3.1e-5,-10e-6"
           id="path3270"
           inkscape:connector-curvature="0" />
        <path
           d="m 20.265625,37.635531 c 1.665003,-0.09393 -0.657231,-1.061423 0,0 z m 0.531731,0.164056 c -2.441269,-0.887519 1.661679,-2.28984 -9e-6,1.2e-5"
           id="path3272"
           inkscape:connector-curvature="0" />
        <path
           d="m 21.412598,37.799594 c -1.041619,-1.102698 2.097925,-1.453538 0.279665,-0.752687 l -0.139851,0.376347 -0.139855,0.376346"
           id="path3274"
           inkscape:connector-curvature="0" />
        <path
           d="m 24.375977,37.833285 c -1.212789,-2.148322 1.527469,-0.575172 0,0 z"
           id="path3276"
           inkscape:connector-curvature="0" />
        <path
           d="m 25.971191,37.833285 c -1.322906,-0.490477 0.373915,-2.214474 0.02857,-0.365409 -0.0033,0.122242 -0.01916,0.243596 -0.02857,0.365409 z"
           id="path3278"
           inkscape:connector-curvature="0" />
        <path
           d="m 27.635254,36.490024 c -1.166157,-0.91571 -0.235701,1.201003 0,0 z m -0.246094,1.343261 c -1.515805,-1.688022 1.477142,-0.307629 -3.1e-5,-10e-6"
           id="path3280"
           inkscape:connector-curvature="0" />
        <path
           d="m 28.764648,37.828891 c -0.899264,-1.225194 0.147016,-2.073075 -2e-5,-3.1e-5"
           id="path3282"
           inkscape:connector-curvature="0" />
        <path
           d="m 30.090332,36.490024 c -1.166157,-0.91571 -0.235701,1.201003 0,0 z m -0.246094,1.343261 c -1.515804,-1.688024 1.477142,-0.307628 -3.1e-5,-10e-6"
           id="path3284"
           inkscape:connector-curvature="0" />
        <path
           d="m 31.508301,36.178012 c 0.661156,1.522083 -1.755828,1.133699 -0.328665,0.132443 0.10954,-0.04415 0.219081,-0.08829 0.328621,-0.132437"
           id="path3286"
           inkscape:connector-curvature="0" />
        <path
           d="m 32.171875,36.19266 c 0.80331,1.373921 -0.990427,1.395323 0,0 z m 0,-0.584472 c 0.418414,0.854171 -0.827223,-0.182597 0,0 z"
           id="path3288"
           inkscape:connector-curvature="0" />
        <path
           d="m 33.112305,37.833285 c -1.212801,-2.148355 1.527501,-0.575135 0,0 z"
           id="path3290"
           inkscape:connector-curvature="0" />
        <path
           d="m 34.626953,37.833285 c -1.565887,-2.387917 2.667227,0.160744 -2e-5,0 m 0.03223,-0.210937 c 2.605581,-1.471142 -2.389894,-1.303402 0,0 z"
           id="path3292"
           inkscape:connector-curvature="0" />
        <path
           d="m 35.747559,37.263461 c 2.326336,-1.107913 0.779947,1.463077 0,0 z"
           id="path3294"
           inkscape:connector-curvature="0" />
        <path
           d="m 38.340332,36.490024 c -1.166157,-0.91571 -0.235701,1.201003 0,0 z m -0.246094,1.343261 c -1.515804,-1.688024 1.477142,-0.307628 -3.1e-5,-10e-6"
           id="path3296"
           inkscape:connector-curvature="0" />
        <path
           d="m 41.828125,37.799594 c -0.160644,-1.322537 -3.256942,-0.798289 -0.664081,-1.601203 1.002271,-0.323518 1.299612,1.053147 0.664099,1.601188"
           id="path3298"
           inkscape:connector-curvature="0" />
        <path
           d="m 43.309082,36.490024 c -1.166157,-0.91571 -0.235701,1.201003 0,0 z m -0.246094,1.343261 c -1.515804,-1.688024 1.477142,-0.307628 -3.1e-5,-10e-6"
           id="path3300"
           inkscape:connector-curvature="0" />
        <path
           d="m 44.519043,37.828891 c -1.281804,-1.242308 0.513102,-2.285363 0,-4.4e-5"
           id="path3302"
           inkscape:connector-curvature="0" />
        <path
           d="m 44.993652,37.263461 c 2.32634,-1.107913 0.779942,1.463082 0,0 z"
           id="path3304"
           inkscape:connector-curvature="0" />
        <path
           d="m 47.139648,37.833285 c -1.212777,-2.148323 1.527467,-0.57517 0,0 z"
           id="path3306"
           inkscape:connector-curvature="0" />
        <path
           d="m 13.854004,40.240024 c -1.166157,-0.91571 -0.235701,1.201003 0,0 z m -0.246094,1.343261 c -1.515805,-1.688022 1.477142,-0.307629 -3.1e-5,-10e-6"
           id="path3308"
           inkscape:connector-curvature="0" />
        <path
           d="m 15.175293,41.340121 c 1.905359,-1.216444 -1.797463,-0.843732 0,0 z m -0.37646,0.944823 c -0.960233,-1.397091 1.666278,-2.775742 1.053063,-0.565441 -0.141696,0.411515 -0.620595,0.718435 -1.053115,0.56545"
           id="path3310"
           inkscape:connector-curvature="0" />
        <path
           d="m 17.217285,40.240024 c -1.166156,-0.91571 -0.235703,1.201002 0,0 z m -0.246094,1.343261 c -1.515802,-1.688024 1.477141,-0.307628 -3.1e-5,-10e-6"
           id="path3312"
           inkscape:connector-curvature="0" />
        <path
           d="m 18.427246,41.578891 c -1.281802,-1.242308 0.513101,-2.285364 0,-4.4e-5"
           id="path3314"
           inkscape:connector-curvature="0" />
        <path
           d="m 20.186523,41.583285 c -1.212777,-2.148323 1.527467,-0.57517 0,0 z"
           id="path3316"
           inkscape:connector-curvature="0" />
        <path
           d="m 22.027832,40.240024 c -1.166157,-0.91571 -0.235701,1.201003 0,0 z m -0.246094,1.343261 c -1.515804,-1.688024 1.477142,-0.307628 -3.1e-5,-10e-6"
           id="path3318"
           inkscape:connector-curvature="0" />
        <path
           d="m 24.765625,41.549594 c -0.160644,-1.322537 -3.256942,-0.798289 -0.664081,-1.601203 1.002271,-0.323518 1.299612,1.053147 0.664099,1.601188"
           id="path3320"
           inkscape:connector-curvature="0" />
        <path
           d="m 25.493652,41.567172 c -0.873467,-0.41308 0.82737,-0.3034 0,0 z"
           id="path3322"
           inkscape:connector-curvature="0" />
        <path
           d="m 28.553711,41.549594 c -0.104414,-1.137943 -2.957184,-0.604997 -1.174526,-1.81586 0.02207,0.629759 1.356129,1.525098 1.074728,0.313921 -0.0019,0.502457 0.05454,1.002309 0.09987,1.501939"
           id="path3324"
           inkscape:connector-curvature="0" />
        <path
           d="m 29.482422,41.385531 c 1.665001,-0.09393 -0.657227,-1.061425 0,0 z m 0.531732,0.164056 c -2.441269,-0.88752 1.66168,-2.289839 -9e-6,1.2e-5"
           id="path3326"
           inkscape:connector-curvature="0" />
        <path
           d="m 32.669922,41.549594 c -0.160643,-1.322539 -3.256942,-0.798288 -0.66408,-1.601203 1.002271,-0.323518 1.299612,1.053147 0.664099,1.601188"
           id="path3328"
           inkscape:connector-curvature="0" />
        <path
           d="m 36.015625,41.549594 c -0.160644,-1.322537 -3.256942,-0.798289 -0.664081,-1.601203 1.002271,-0.323518 1.299612,1.053147 0.664099,1.601188"
           id="path3330"
           inkscape:connector-curvature="0" />
        <path
           d="m 37.035156,41.385531 c 1.664983,-0.09391 -0.657198,-1.061434 0,0 z m 0.531742,0.164056 c -2.441269,-0.887518 1.661677,-2.28984 -9e-6,1.2e-5"
           id="path3332"
           inkscape:connector-curvature="0" />
        <path
           d="m 38.661133,41.583285 c -1.212801,-2.148358 1.527503,-0.575134 0,0 z"
           id="path3334"
           inkscape:connector-curvature="0" />
        <path
           d="m 40.055664,41.583285 c -1.212788,-2.148327 1.527472,-0.575167 0,0 z"
           id="path3336"
           inkscape:connector-curvature="0" />
        <path
           d="m 41.435547,41.385531 c 1.665001,-0.09393 -0.657227,-1.061425 0,0 z m 0.531732,0.164056 c -2.441269,-0.887519 1.661679,-2.28984 -9e-6,1.2e-5"
           id="path3338"
           inkscape:connector-curvature="0" />
        <path
           d="m 13.440918,45.328891 c -1.281804,-1.242308 0.513102,-2.285363 0,-4.4e-5"
           id="path3340"
           inkscape:connector-curvature="0" />
        <path
           d="m 13.915527,44.763461 c 2.326321,-1.10791 0.779962,1.463076 0,0 z"
           id="path3342"
           inkscape:connector-curvature="0" />
        <path
           d="m 16.303223,43.678012 c 0.661156,1.522083 -1.755828,1.133699 -0.328665,0.132443 0.10954,-0.04415 0.219081,-0.08829 0.328621,-0.132437"
           id="path3344"
           inkscape:connector-curvature="0" />
        <path
           d="m 16.678223,45.99686 c -1.428438,-1.250475 1.669095,-3.30366 1.047941,-0.962577 -0.251578,0.412456 -0.656625,0.695376 -1.047928,0.96257 m 0.711914,-0.870118 c 2.343521,-1.607137 -2.325332,-1.178807 0,0 z"
           id="path3346"
           inkscape:connector-curvature="0" />
        <path
           d="m 18.724609,43.69266 c 0.803303,1.373916 -0.990421,1.395326 0,0 z m 0,-0.584472 c 0.41842,0.854165 -0.82722,-0.182583 0,0 z"
           id="path3348"
           inkscape:connector-curvature="0" />
        <path
           d="m 19.665039,45.333285 c -1.212797,-2.148349 1.527493,-0.575144 0,0 z"
           id="path3350"
           inkscape:connector-curvature="0" />
        <path
           d="m 20.530762,45.706821 c -0.62554,-1.026326 1.282831,-0.509868 0,0 z"
           id="path3352"
           inkscape:connector-curvature="0" />
        <path
           d="m 22.068848,45.299594 c -1.041619,-1.102698 2.097925,-1.453538 0.279665,-0.752687 l -0.139851,0.376347 -0.139855,0.376346"
           id="path3354"
           inkscape:connector-curvature="0" />
        <path
           d="m 23.981934,44.499789 c 0.914817,2.576563 0.874291,-1.804273 0,0 z m 1.234863,-0.0044 c -0.867579,2.364952 -1.679733,-2.163474 -0.200679,-0.422424 l 0.104819,0.20919 z"
           id="path3356"
           inkscape:connector-curvature="0" />
        <path
           d="m 25.561035,45.299594 c -1.041619,-1.102698 2.097926,-1.453537 0.279664,-0.752688 l -0.139855,0.376347 -0.139852,0.376347"
           id="path3358"
           inkscape:connector-curvature="0" />
        <path
           d="m 27.239746,44.763461 c 2.326334,-1.107915 0.779952,1.463078 0,0 z"
           id="path3360"
           inkscape:connector-curvature="0" />
        <path
           d="m 30.947266,45.299594 c -0.160643,-1.322538 -3.256944,-0.798288 -0.664082,-1.601203 1.002271,-0.323518 1.299612,1.053147 0.664099,1.601188"
           id="path3362"
           inkscape:connector-curvature="0" />
        <path
           d="m 33.542969,45.299594 c -0.160647,-1.322536 -3.256938,-0.79829 -0.664078,-1.601203 1.002271,-0.323518 1.299611,1.053147 0.664098,1.601188"
           id="path3364"
           inkscape:connector-curvature="0" />
        <path
           d="m 33.893066,43.69266 c 1.819805,-0.350513 0.523588,3.285889 0.09333,0.951423 -0.05513,-0.31426 -0.08004,-0.632939 -0.09333,-0.951423 z"
           id="path3366"
           inkscape:connector-curvature="0" />
        <path
           d="m 37.273926,43.990024 c -1.166157,-0.91571 -0.235701,1.201003 0,0 z m -0.246094,1.343261 c -1.515804,-1.688022 1.47714,-0.30763 -3e-5,-10e-6"
           id="path3368"
           inkscape:connector-curvature="0" />
        <path
           d="m 38.483887,45.328891 c -1.281804,-1.242308 0.5131,-2.285365 0,-4.4e-5"
           id="path3370"
           inkscape:connector-curvature="0" />
        <path
           d="m 38.964355,45.706821 c -0.625542,-1.026328 1.282833,-0.509867 0,0 z"
           id="path3372"
           inkscape:connector-curvature="0" />
        <path
           d="m 13.60791,49.083285 c -1.322904,-0.490479 0.373912,-2.214469 0.02857,-0.365408 -0.0033,0.122242 -0.01916,0.243596 -0.02857,0.365408 z"
           id="path3374"
           inkscape:connector-curvature="0" />
        <path
           d="m 14.524902,48.249789 c 0.914817,2.576561 0.87429,-1.804273 0,0 z m 1.234864,-0.0044 c -0.867579,2.364952 -1.679733,-2.163473 -0.200679,-0.422424 l 0.10482,0.20919 z"
           id="path3376"
           inkscape:connector-curvature="0" />
        <path
           d="m 16.104004,49.049594 c -1.041618,-1.102697 2.097924,-1.453537 0.279664,-0.752687 l -0.139851,0.376347 -0.139855,0.376346"
           id="path3378"
           inkscape:connector-curvature="0" />
        <path
           d="m 18.317383,49.083285 c -1.212789,-2.148324 1.52747,-0.57517 0,0 z"
           id="path3380"
           inkscape:connector-curvature="0" />
        <path
           d="m 20.158691,47.740024 c -1.166156,-0.91571 -0.235703,1.201002 0,0 z m -0.246093,1.343261 c -1.515806,-1.688021 1.47714,-0.307631 -3.1e-5,-10e-6"
           id="path3382"
           inkscape:connector-curvature="0" />
        <path
           d="m 21.535645,49.083285 c -1.322909,-0.490474 0.373914,-2.214477 0.02857,-0.36541 -0.0033,0.122242 -0.01915,0.243597 -0.02857,0.36541 z"
           id="path3384"
           inkscape:connector-curvature="0" />
        <path
           d="m 22.786621,49.078891 c -1.281802,-1.242308 0.513101,-2.285364 0,-4.4e-5"
           id="path3386"
           inkscape:connector-curvature="0" />
        <path
           d="m 24.225098,47.740024 c -1.166157,-0.91571 -0.235701,1.201003 0,0 z m -0.246094,1.343261 c -1.515804,-1.688022 1.477139,-0.30763 -3.1e-5,-10e-6"
           id="path3388"
           inkscape:connector-curvature="0" />
        <path
           d="m 25.435059,49.078891 c -1.281804,-1.242308 0.5131,-2.285365 0,-4.4e-5"
           id="path3390"
           inkscape:connector-curvature="0" />
        <path
           d="m 25.909668,48.513461 c 2.326334,-1.107915 0.779952,1.463078 0,0 z"
           id="path3392"
           inkscape:connector-curvature="0" />
        <path
           d="m 28.502441,47.740024 c -1.166156,-0.91571 -0.235703,1.201002 0,0 z m -0.246093,1.343261 c -1.515806,-1.688021 1.47714,-0.307631 -3.1e-5,-10e-6"
           id="path3394"
           inkscape:connector-curvature="0" />
        <path
           d="m 29.92041,47.428012 c 0.661155,1.522084 -1.755827,1.133699 -0.328664,0.132443 0.10954,-0.04415 0.219081,-0.08829 0.328621,-0.132437"
           id="path3396"
           inkscape:connector-curvature="0" />
        <path
           d="m 31.333984,47.44266 c 0.803303,1.373916 -0.990421,1.395326 0,0 z m 0,-0.584472 c 0.41842,0.854165 -0.82722,-0.182583 0,0 z"
           id="path3398"
           inkscape:connector-curvature="0" />
        <path
           d="m 32.422363,48.872348 c 2.181597,-1.440597 -2.180068,-1.042129 0,0 z m 0.481928,-0.05566 c -2.366036,-0.726357 1.680453,-1.993727 0.389545,-0.336142 l -0.173531,0.16025 z"
           id="path3400"
           inkscape:connector-curvature="0" />
        <path
           d="m 33.520996,49.456821 c -0.62554,-1.026327 1.28283,-0.509868 0,0 z"
           id="path3402"
           inkscape:connector-curvature="0" />
        <path
           d="m 35.059082,49.74686 c -1.428438,-1.250474 1.669094,-3.303659 1.04794,-0.962577 -0.251578,0.412456 -0.656625,0.695376 -1.047928,0.96257 m 0.711914,-0.870118 c 2.343525,-1.607132 -2.325328,-1.178811 0,0 z"
           id="path3404"
           inkscape:connector-curvature="0" />
        <path
           d="m 37.249023,49.078891 c -0.899264,-1.225194 0.147016,-2.073075 -2e-5,-3.1e-5"
           id="path3406"
           inkscape:connector-curvature="0" />
        <path
           d="m 38.113281,48.885531 c 1.664983,-0.09391 -0.657198,-1.061434 0,0 z m 0.531742,0.164056 c -2.441269,-0.887518 1.661677,-2.28984 -9e-6,1.2e-5"
           id="path3408"
           inkscape:connector-curvature="0" />
        <path
           d="m 39.939941,49.083285 c -1.32291,-0.490478 0.373921,-2.214474 0.02858,-0.365409 -0.0033,0.122243 -0.01916,0.243596 -0.02858,0.365409 z"
           id="path3410"
           inkscape:connector-curvature="0" />
        <path
           d="m 41.604004,47.740024 c -1.166157,-0.91571 -0.235701,1.201003 0,0 z m -0.246094,1.343261 c -1.515805,-1.688022 1.477142,-0.307629 -3.1e-5,-10e-6"
           id="path3412"
           inkscape:connector-curvature="0" />
        <path
           d="m 43.021973,47.428012 c 0.661154,1.522082 -1.755827,1.1337 -0.328665,0.132444 0.10954,-0.04415 0.219081,-0.08829 0.328621,-0.132438"
           id="path3414"
           inkscape:connector-curvature="0" />
        <path
           d="m 43.832031,48.885531 c 1.664983,-0.09391 -0.657198,-1.061434 0,0 z m 0.531742,0.164056 c -2.441269,-0.887518 1.661677,-2.28984 -9e-6,1.2e-5"
           id="path3416"
           inkscape:connector-curvature="0" />
        <path
           d="m 45.491699,49.078891 c -1.281804,-1.242307 0.513103,-2.285358 0,-4.4e-5"
           id="path3418"
           inkscape:connector-curvature="0" />
        <path
           d="m 13.392578,52.635531 c 1.665002,-0.09393 -0.65723,-1.061424 0,0 z m 0.531732,0.164056 c -2.441269,-0.887519 1.661679,-2.28984 -9e-6,1.2e-5"
           id="path3420"
           inkscape:connector-curvature="0" />
        <path
           d="m 15.219238,52.833285 c -1.322905,-0.490479 0.373914,-2.214471 0.02857,-0.365408 -0.0033,0.122242 -0.01915,0.243596 -0.02857,0.365408 z"
           id="path3422"
           inkscape:connector-curvature="0" />
        <path
           d="m 15.907715,53.206821 c -0.62554,-1.026326 1.282831,-0.509868 0,0 z"
           id="path3424"
           inkscape:connector-curvature="0" />
        <path
           d="m 17.910156,52.635531 c 1.665003,-0.09393 -0.65723,-1.061424 0,0 z m 0.531732,0.164056 c -2.441269,-0.887518 1.661677,-2.28984 -9e-6,1.2e-5"
           id="path3426"
           inkscape:connector-curvature="0" />
        <path
           d="m 19.057129,52.799594 c -1.041618,-1.102697 2.097924,-1.453537 0.279664,-0.752687 l -0.139851,0.376347 -0.139855,0.376346"
           id="path3428"
           inkscape:connector-curvature="0" />
        <path
           d="m 21.304199,52.828891 c -1.281807,-1.242302 0.513108,-2.285368 -10e-6,-4.4e-5"
           id="path3430"
           inkscape:connector-curvature="0" />
        <path
           d="m 22.742676,51.490024 c -1.166157,-0.91571 -0.235701,1.201003 0,0 z m -0.246094,1.343261 c -1.515804,-1.688022 1.47714,-0.30763 -3e-5,-10e-6"
           id="path3432"
           inkscape:connector-curvature="0" />
        <path
           d="m 23.612793,52.817172 c -0.873471,-0.413079 0.827371,-0.303403 0,0 z"
           id="path3434"
           inkscape:connector-curvature="0" />
      </g>
    </g>
    <g
       id="g4926"
       transform="matrix(1.5959231,0.29460842,-0.31706106,1.482908,26.615123,4.0696839)">
      <g
         id="g3295">
        <path
           inkscape:connector-curvature="0"
           id="path5052"
           d="m 31.075203,13.609514 c -0.119026,0.02528 -0.231899,0.06249 -0.343366,0.101541 -0.02135,0.0075 -0.04476,0.01122 -0.06587,0.01914 -9.39e-4,3.49e-4 -0.002,2.28e-4 -0.0029,5.78e-4 -0.137719,0.05209 -0.270047,0.11405 -0.399417,0.185384 -0.08044,0.04523 -0.162213,0.09209 -0.237944,0.144216 -0.06018,0.0406 -0.111048,0.08557 -0.167997,0.13032 -0.02739,0.02173 -0.05736,0.04253 -0.084,0.06516 -0.649445,0.549457 -1.075159,1.352461 -1.075159,2.273657 l 0.0024,20.018433 c -0.317691,1e-5 -0.61076,0.04744 -0.895267,0.129399 -1.210275,0.321704 -6.891893,3.716988 -6.891893,4.83495 -0.259789,0.578309 -0.490736,1.127647 -0.708706,1.663119 -0.03054,0.07495 -0.06583,0.153902 -0.09557,0.228022 -0.01904,0.04745 -0.038,0.09442 -0.05671,0.141534 -0.01955,0.04926 -0.03664,0.09703 -0.05584,0.145906 -0.02537,0.06466 -0.04805,0.126163 -0.07279,0.190173 -0.10431,0.269615 -0.200129,0.528835 -0.293546,0.786911 -0.05965,0.164503 -0.123639,0.334686 -0.178951,0.494521 -0.02608,0.07539 -0.05034,0.148153 -0.07546,0.222512 -0.03164,0.09368 -0.0591,0.183189 -0.08922,0.275233 -0.02973,0.09103 -0.05629,0.178818 -0.08455,0.268245 -0.05018,0.158656 -0.105348,0.321705 -0.150957,0.475326 -0.03333,0.111913 -0.06535,0.221918 -0.09628,0.331167 -0.03041,0.107441 -0.0562,0.210284 -0.08432,0.315157 -0.01913,0.0714 -0.0393,0.144163 -0.05738,0.214376 -0.02253,0.08778 -0.04295,0.172151 -0.06385,0.258074 -0.0076,0.0314 -0.01367,0.06089 -0.02109,0.09205 -0.04321,0.180505 -0.08531,0.360834 -0.121311,0.533056 -0.0249,0.11921 -0.04567,0.232846 -0.06717,0.348103 -0.02247,0.120437 -0.04282,0.236922 -0.06164,0.353065 -0.03016,0.185999 -0.05727,0.369182 -0.0782,0.544182 -0.01391,0.116372 -0.02403,0.228458 -0.03394,0.339988 -0.0024,0.02703 -0.0058,0.05512 -0.008,0.08187 -0.0082,0.100426 -0.01876,0.203643 -0.02369,0.300084 -0.0044,0.08777 -0.0076,0.173381 -0.0094,0.257853 -0.0016,0.07503 -0.0045,0.151037 -0.0041,0.223477 2.99e-4,0.04632 0.0028,0.08878 0.0039,0.134036 0.0032,0.131818 0.0088,0.262627 0.01903,0.38551 0.0042,0.05056 0.01157,0.09754 0.01701,0.146582 0.01068,0.09763 0.01937,0.19683 0.03459,0.288503 0.02196,0.131205 0.04942,0.255782 0.08051,0.374809 5.94e-4,0.0023 8.39e-4,0.005 0.0015,0.0073 0.0019,0.0071 0.0013,0.01652 0.0031,0.02361 0,0 0.0015,-2.97e-4 0.0015,-2.97e-4 3.72e-4,0.0014 5e-4,0.003 8.74e-4,0.0044 0.0343,0.126679 0.0739,0.246999 0.118422,0.359705 0.04975,0.126651 0.105216,0.245373 0.167377,0.354523 0.0077,0.0028 0.01395,0.0052 0.02126,0.0079 0.07393,0.127888 0.153655,0.247644 0.244011,0.351415 0.0022,9.58e-4 0.0091,0.0028 0.01136,0.0038 0.189857,0.214496 0.412354,0.38013 0.668654,0.491235 0,0 0.402356,0.192144 1.155589,0.449027 0.0387,0.01323 0.06649,0.03781 0.10716,0.05142 0.06803,0.02278 0.154816,0.02785 0.228369,0.05157 -0.0028,0.0066 0.0074,0.01669 0.0046,0.02332 0.05027,0.01621 0.09632,0.0022 0.149159,0.01884 0.07425,0.02333 0.130381,0.05555 0.209686,0.07952 -0.0029,0.01036 -0.01571,0.01741 -0.01868,0.02795 0.04564,0.01383 0.07853,0.0095 0.125843,0.02347 0.1655,0.04899 0.373297,0.08069 0.559267,0.13125 -0.0027,0.0074 0.0074,0.01597 0.0046,0.02332 0.04789,0.013 0.104551,0.0291 0.15379,0.04215 0.0034,-0.01019 0.01525,-0.01777 0.01868,-0.02795 0.06568,0.01739 0.136986,0.03874 0.205054,0.05621 -0.0017,0.0041 0.0064,0.01915 0.0046,0.02332 1.725214,0.567039 12.517246,2.180195 18.176958,-4.8e-5 0.0335,-0.0083 0.06168,-0.01031 0.09326,-0.01853 0.220209,-0.057 0.425947,-0.115901 0.620259,-0.171699 0.151547,-0.04355 0.302623,-0.06933 0.438367,-0.111325 -0.003,-0.007 -0.0016,-0.01629 -0.0046,-0.02332 0.01398,-0.0043 0.03281,-0.005 0.04663,-0.0093 0.005,-0.007 0.0177,-0.0029 0.02332,-0.0046 0.316891,-0.09896 0.499609,-0.158401 0.727573,-0.241491 0.0021,0.0075 0.0025,0.01581 0.0046,0.02332 0.08207,-0.0299 0.176651,-0.07055 0.247209,-0.09758 -0.002,-0.006 -0.0027,-0.01725 -0.0046,-0.02332 0.0062,-0.0024 0.01722,-0.0023 0.02331,-0.0046 0.0073,-0.0029 0.01582,-0.0017 0.02332,-0.0046 0.40625,-0.156977 0.671678,-0.278857 0.671678,-0.278857 l -1.52955,-3.307283 -1.315697,-2.840814 -0.646191,-1.422723 -0.0046,-0.02332 c -0.05262,-0.136496 -0.146541,-0.260453 -0.19993,-0.396588 l -0.474178,-1.044938 -0.511394,-1.1102 -0.381229,-0.820992 -0.223117,-0.5131 -0.715983,-1.530037 -0.0028,-1.477843 c 10e-7,-0.978063 -0.671414,-1.816323 -1.647186,-2.229648 -0.0034,-0.0033 -0.0062,-0.0069 -0.0096,-0.01021 -0.01258,-0.0053 -0.02752,-0.0066 -0.0402,-0.01171 -0.168377,-0.06799 -0.344807,-0.12207 -0.529214,-0.162971 -0.03091,-0.007 -0.05958,-0.01662 -0.09088,-0.02284 -0.0844,-0.01631 -0.171367,-0.02478 -0.258403,-0.035 -0.08079,-0.01232 -0.163789,-0.01481 -0.246474,-0.02071 -0.0574,-0.0027 -0.114218,-0.01421 -0.172474,-0.01421 l 0.0056,-0.703957 c -0.0018,-0.0011 -0.0035,-0.0024 -0.0053,-0.0035 l 0.002,-19.287642 c 0,-1.241911 -0.756389,-2.298871 -1.829202,-2.756973 -0.0016,-0.0015 -0.0024,-0.0037 -0.0041,-0.0052 -0.0085,-0.0036 -0.01764,-0.0064 -0.02621,-0.0099 -0.06183,-0.02557 -0.124315,-0.04868 -0.188136,-0.07017 -0.131816,-0.04596 -0.266542,-0.08606 -0.405448,-0.111823 -0.176185,-0.03864 -0.354932,-0.0613 -0.54537,-0.0613 -0.20775,-2e-6 -0.419827,0.03397 -0.615472,0.0738 -0.008,0.0016 -0.01511,0.0044 -0.02302,0.0061 0,0 -2.97e-4,-0.0015 -2.97e-4,-0.0015 z"
           style="color:#000000;display:inline;overflow:visible;visibility:visible;opacity:1;fill:#000000;fill-opacity:0.29910715;fill-rule:nonzero;stroke:none;stroke-width:0.76068395;stroke-linecap:butt;stroke-linejoin:miter;stroke-miterlimit:4;stroke-dasharray:none;stroke-dashoffset:0;stroke-opacity:1;marker:none;enable-background:accumulate" />
        <path
           inkscape:connector-curvature="0"
           style="color:#000000;display:inline;overflow:visible;visibility:visible;fill:#d7ab29;fill-opacity:1;fill-rule:nonzero;stroke:none;stroke-width:1;marker:none;enable-background:accumulate"
           d="m 22,38 -6,13 c 0,0 1.27063,0.609323 3.71875,1.15625 L 24,41 21.53125,52.5 C 23.28313,52.783707 25.408887,53 28,53 c 1.07745,0 2.067662,-0.06222 3,-0.125 V 46 l 2.5,6.65625 C 37.820718,52.083556 40,51 40,51 L 34,38 Z"
           id="path5086" />
        <g
           style="fill:url(#linearGradient3433);fill-opacity:1"
           id="g4954">
          <path
             style="color:#000000;display:inline;overflow:visible;visibility:visible;fill:url(#linearGradient3433);fill-opacity:1;fill-rule:nonzero;stroke:none;stroke-width:1;marker:none;enable-background:accumulate"
             d="m 28,11 c 1.662,0 3,1.338 3,3 V 34 H 25 V 14 c 0,-1.662 1.338,-3 3,-3 z"
             id="path4956"
             inkscape:connector-curvature="0"
             sodipodi:nodetypes="ssccss" />
        </g>
        <g
           style="opacity:1;fill:#ce5436;fill-opacity:1;stroke:none;stroke-width:1;stroke-linecap:butt;stroke-linejoin:miter;stroke-miterlimit:4;stroke-dasharray:none;stroke-dashoffset:0;stroke-opacity:1;marker:none"
           id="g4960"
           transform="translate(0,-1)">
          <path
             style="color:#000000;display:inline;overflow:visible;visibility:visible;fill:url(#linearGradient3453);fill-opacity:1;fill-rule:nonzero;stroke:none;stroke-width:1;stroke-linecap:butt;stroke-linejoin:miter;stroke-miterlimit:4;stroke-dasharray:none;stroke-dashoffset:0;stroke-opacity:1;marker:none;enable-background:accumulate"
             d="m 25,35 h 6 c 1.662,0 3,1.115 3,2.5 V 39 H 22 V 37.5 C 22,36.115 23.338,35 25,35 Z"
             id="path4962"
             inkscape:connector-curvature="0"
             sodipodi:nodetypes="ssccccs" />
        </g>
        <path
           inkscape:connector-curvature="0"
           id="path5098"
           transform="matrix(0.74610231,-0.14822768,0.14822768,0.74610231,-10.958201,14.324297)"
           d="M 49.25,41.517578 51.164062,60.496094 46.4375,49.625 46,51.5 l 0.371094,2.431641 1.134765,6.882812 c 5.717867,0.368384 8.804688,-0.470703 8.804688,-0.470703 l -4.40625,-18.298828 z m -8.107422,2.923828 -4.863281,14.44336 c 0.01937,0.0054 0.04112,0.01028 0.06055,0.01563 1.11346,0.306632 2.3137,0.598397 3.623047,0.867187 z"
           style="color:#000000;display:inline;overflow:visible;visibility:visible;opacity:1;fill:#9f7823;fill-opacity:1;fill-rule:nonzero;stroke:none;stroke-width:1;stroke-linecap:butt;stroke-linejoin:miter;stroke-miterlimit:4;stroke-dasharray:none;stroke-dashoffset:0;stroke-opacity:1;marker:none;enable-background:accumulate" />
        <path
           style="color:#000000;display:inline;overflow:visible;visibility:visible;opacity:1;fill:#421300;fill-opacity:0.16368516;fill-rule:nonzero;stroke:none;stroke-width:0.76068395;stroke-linecap:butt;stroke-linejoin:miter;stroke-miterlimit:4;stroke-dasharray:none;stroke-dashoffset:0;stroke-opacity:1;marker:none;enable-background:accumulate"
           d="m 22,38 -0.15625,0.3125 c 4.029884,0.755294 8.147483,1.393634 12.875,1.21875 L 34,38 Z"
           id="path4970"
           inkscape:connector-curvature="0"
           sodipodi:nodetypes="ccccc" />
      </g>
    </g>
  </g>
  <path
     inkscape:connector-curvature="0"
     id="path4989"
     d="m 9.8250777,4.7294869 c -3.116621,0 -5.667965,2.53951 -5.667965,5.6460041 v 69.277996 c 0,3.106495 2.551344,5.646004 5.667965,5.646004 H 86.616863 c 3.116621,0 5.667968,-2.539509 5.667968,-5.646004 V 10.375491 c 0,-3.1064931 -2.551347,-5.6460041 -5.667968,-5.6460041 z m 0,2.319439 H 86.616863 c 1.888099,0 3.352022,1.480095 3.352022,3.3265651 v 69.277996 c 0,1.846474 -1.463923,3.326564 -3.352022,3.326564 H 9.8250777 c -1.888099,0 -3.352022,-1.48009 -3.352022,-3.326564 V 10.375491 c 0,-1.8464701 1.463923,-3.3265651 3.352022,-3.3265651 z"
     style="color:#000000;font-style:normal;font-variant:normal;font-weight:normal;font-stretch:normal;font-size:medium;line-height:normal;font-family:Sans;-inkscape-font-specification:Sans;text-indent:0;text-align:start;text-decoration:none;text-decoration-line:none;letter-spacing:normal;word-spacing:normal;text-transform:none;writing-mode:lr-tb;direction:ltr;baseline-shift:baseline;text-anchor:start;display:inline;overflow:visible;visibility:visible;fill:#202223;fill-opacity:0.93689324;stroke:none;stroke-width:2.3755002;marker:none;enable-background:accumulate" />
  <path
     inkscape:connector-curvature="0"
     style="display:inline;opacity:0.65818182;fill:url(#linearGradient4129);fill-opacity:1;fill-rule:nonzero;stroke:none"
     d="m 1.499997,81.843776 v 6 c 0,3.680142 2.9761066,6.65625 6.6562497,6.65625 H 87.843747 c 3.680143,0 6.656254,-2.976108 6.656254,-6.65625 v -6 c 0,3.680142 -2.976111,6.65625 -6.656254,6.65625 H 8.1562467 c -3.6801431,0 -6.6562496,-2.976108 -6.6562497,-6.65625 z"
     id="path4118" />
  <rect
     style="opacity:0.55;fill:url(#radialGradient7462);fill-opacity:1;stroke:none"
     id="rect4131"
     width="84.250008"
     height="4.25"
     x="6.2710581"
     y="78.81633"
     rx="0"
     ry="4.25" />
  <rect
     ry="4.25"
     rx="0"
     y="-90.085007"
     x="5.5600224"
     height="4.25"
     width="76.75"
     id="rect4141"
     style="opacity:0.669;fill:url(#radialGradient7464);fill-opacity:1;stroke:none"
     transform="rotate(90)" />
  <rect
     transform="matrix(1.0692451,0,0,1.0476829,4.2952237,38.479013)"
     style="opacity:0.65;fill:url(#linearGradient4767);fill-opacity:1;stroke:none"
     id="rect4146"
     width="75.965775"
     height="69.024437"
     x="2"
     y="-30"
     rx="3.9569874"
     ry="3.9569881"
     clip-path="url(#clipPath4156-4-1)" />
</svg>
