<?xml version="1.0" encoding="UTF-8" standalone="no"?>
<!-- Created with Inkscape (http://www.inkscape.org/) -->

<svg
   xmlns:dc="http://purl.org/dc/elements/1.1/"
   xmlns:cc="http://creativecommons.org/ns#"
   xmlns:rdf="http://www.w3.org/1999/02/22-rdf-syntax-ns#"
   xmlns:svg="http://www.w3.org/2000/svg"
   xmlns="http://www.w3.org/2000/svg"
   xmlns:xlink="http://www.w3.org/1999/xlink"
   xmlns:sodipodi="http://sodipodi.sourceforge.net/DTD/sodipodi-0.dtd"
   xmlns:inkscape="http://www.inkscape.org/namespaces/inkscape"
   width="96"
   height="96"
   id="svg4252"
   version="1.1"
   inkscape:version="0.91 r13725"
   sodipodi:docname="gcolor2.svg">
  <defs
     id="defs4254">
    <linearGradient
       id="linearGradient4308">
      <stop
         id="stop4310"
         offset="0"
         style="stop-color:#ffb10a;stop-opacity:1" />
      <stop
         id="stop4312"
         offset="1"
         style="stop-color:#ef7701;stop-opacity:1" />
    </linearGradient>
    <linearGradient
       id="linearGradient5063">
      <stop
         id="stop5065"
         offset="0"
         style="stop-color:#f6f6f6;stop-opacity:1;" />
      <stop
         id="stop5067"
         offset="1"
         style="stop-color:#dcdcdc;stop-opacity:1;" />
    </linearGradient>
    <linearGradient
       id="linearGradient5057">
      <stop
         style="stop-color:#ff830a;stop-opacity:1;"
         offset="0"
         id="stop5059" />
      <stop
         style="stop-color:#b55f0b;stop-opacity:1;"
         offset="1"
         id="stop5061" />
    </linearGradient>
    <linearGradient
       id="linearGradient5051">
      <stop
         id="stop5053"
         offset="0"
         style="stop-color:#c60aff;stop-opacity:1;" />
      <stop
         id="stop5055"
         offset="1"
         style="stop-color:#9b0bb5;stop-opacity:1;" />
    </linearGradient>
    <linearGradient
       id="linearGradient5045">
      <stop
         style="stop-color:#2fff0a;stop-opacity:1;"
         offset="0"
         id="stop5047" />
      <stop
         style="stop-color:#16b50b;stop-opacity:1;"
         offset="1"
         id="stop5049" />
    </linearGradient>
    <linearGradient
       id="linearGradient5039">
      <stop
         id="stop5041"
         offset="0"
         style="stop-color:#ff0a0a;stop-opacity:1;" />
      <stop
         id="stop5043"
         offset="1"
         style="stop-color:#c00000;stop-opacity:1;" />
    </linearGradient>
    <linearGradient
       id="linearGradient5029">
      <stop
         style="stop-color:#0a9aff;stop-opacity:1;"
         offset="0"
         id="stop5031" />
      <stop
         style="stop-color:#0070c0;stop-opacity:1;"
         offset="1"
         id="stop5033" />
    </linearGradient>
    <linearGradient
       y2="47.000011"
       x2="90"
       y1="47.000011"
       x1="6"
       gradientTransform="matrix(1.1071428,0,0,1.1071426,2.9011003,-18.701274)"
       gradientUnits="userSpaceOnUse"
       id="linearGradient3825"
       xlink:href="#linearGradient6139-0"
       inkscape:collect="always" />
    <linearGradient
       id="linearGradient6139-0">
      <stop
         id="stop6141-2"
         offset="0"
         style="stop-color:#adb4c1;stop-opacity:1;" />
      <stop
         style="stop-color:#ffffff;stop-opacity:1;"
         offset="0.25"
         id="stop6151-0" />
      <stop
         style="stop-color:#9095aa;stop-opacity:1;"
         offset="0.5"
         id="stop6147-1" />
      <stop
         id="stop6149-4"
         offset="0.75"
         style="stop-color:#fbf9f9;stop-opacity:1;" />
      <stop
         id="stop6143-4"
         offset="1"
         style="stop-color:#adb3c1;stop-opacity:1;" />
    </linearGradient>
    <radialGradient
       r="42"
       fy="-27"
       fx="48"
       cy="-27"
       cx="48"
       gradientTransform="matrix(-1.0721726,0,0,-0.87502024,199.46429,-19.125546)"
       gradientUnits="userSpaceOnUse"
       id="radialGradient3827"
       xlink:href="#linearGradient4091-0-3-0-7"
       inkscape:collect="always" />
    <linearGradient
       id="linearGradient4091-0-3-0-7">
      <stop
         style="stop-color:#ffffff;stop-opacity:1;"
         offset="0"
         id="stop4093-3-6-4-2" />
      <stop
         id="stop4099-6-1-8-3"
         offset="0.80000001"
         style="stop-color:#ffffff;stop-opacity:1;" />
      <stop
         style="stop-color:#ffffff;stop-opacity:0;"
         offset="1"
         id="stop4095-1-0-7-9" />
    </linearGradient>
    <linearGradient
       y2="88.171875"
       x2="94.5"
       y1="88.171875"
       x1="1.5"
       gradientTransform="translate(8.0439564,-14.665561)"
       gradientUnits="userSpaceOnUse"
       id="linearGradient3829"
       xlink:href="#linearGradient3832-0-6-1-1"
       inkscape:collect="always" />
    <linearGradient
       id="linearGradient3832-0-6-1-1">
      <stop
         style="stop-color:#000000;stop-opacity:1;"
         offset="0"
         id="stop3834-6-3-7-1" />
      <stop
         id="stop3872-2-4"
         offset="0.1"
         style="stop-color:#000000;stop-opacity:0.58823532;" />
      <stop
         style="stop-color:#000000;stop-opacity:0.58823532;"
         offset="0.89999998"
         id="stop3844-6-2-7-6" />
      <stop
         style="stop-color:#000000;stop-opacity:1;"
         offset="1"
         id="stop3836-5-0-2-9" />
    </linearGradient>
    <radialGradient
       r="43.199203"
       fy="44.892841"
       fx="13.948145"
       cy="44.892841"
       cx="13.948145"
       gradientTransform="matrix(0.97513378,0,0,0.04919072,-4.148257,101.31932)"
       gradientUnits="userSpaceOnUse"
       id="radialGradient3831"
       xlink:href="#linearGradient4133"
       inkscape:collect="always" />
    <linearGradient
       inkscape:collect="always"
       id="linearGradient4133">
      <stop
         style="stop-color:#ffffff;stop-opacity:1;"
         offset="0"
         id="stop4135" />
      <stop
         style="stop-color:#ffffff;stop-opacity:0;"
         offset="1"
         id="stop4137" />
    </linearGradient>
    <radialGradient
       r="43.199203"
       fy="44.892841"
       fx="13.948145"
       cy="44.892841"
       cx="13.948145"
       gradientTransform="matrix(0.88832663,0,0,0.04919072,51.887113,-52.752262)"
       gradientUnits="userSpaceOnUse"
       id="radialGradient3833"
       xlink:href="#linearGradient4133"
       inkscape:collect="always" />
    <linearGradient
       y2="7.0165396"
       x2="45.447727"
       y1="92.539597"
       x1="45.447727"
       gradientTransform="scale(1.0058652,0.994169)"
       gradientUnits="userSpaceOnUse"
       id="linearGradient3835"
       xlink:href="#ButtonShadow-1"
       inkscape:collect="always" />
    <linearGradient
       x1="45.447727"
       y1="92.539597"
       x2="45.447727"
       y2="7.0165396"
       id="ButtonShadow-1"
       gradientUnits="userSpaceOnUse"
       gradientTransform="scale(1.0058652,0.994169)">
      <stop
         id="stop3750-9"
         style="stop-color:#000000;stop-opacity:1"
         offset="0" />
      <stop
         id="stop3752-9"
         style="stop-color:#000000;stop-opacity:0.58823532"
         offset="1" />
    </linearGradient>
    <filter
       color-interpolation-filters="sRGB"
       id="filter3174-3">
      <feGaussianBlur
         id="feGaussianBlur3176-6"
         stdDeviation="1.71" />
    </filter>
    <linearGradient
       y2="14.514202"
       x2="50.527882"
       y1="-28.64156"
       x1="2.7713892"
       gradientUnits="userSpaceOnUse"
       id="linearGradient3837"
       xlink:href="#linearGradient4213-7"
       inkscape:collect="always" />
    <linearGradient
       inkscape:collect="always"
       id="linearGradient4213-7">
      <stop
         style="stop-color:#ffffff;stop-opacity:1;"
         offset="0"
         id="stop4215-6" />
      <stop
         style="stop-color:#ffffff;stop-opacity:0;"
         offset="1"
         id="stop4217-5" />
    </linearGradient>
    <clipPath
       clipPathUnits="userSpaceOnUse"
       id="clipPath4156-4">
      <path
         style="opacity:0.6;fill:#ffffff;fill-opacity:1;stroke:none"
         d="m 27.046336,-55.695463 -14.21366,13.321486 0.06127,0 15.653407,21.770763 10.231384,-10.546177 C 38.561832,-32.30156 27.468089,-54.819245 27.046336,-55.695463 z M 9.6468554,-39.382809 -5.2407289,-25.32124 15.987863,-7.8059573 26.372412,-18.382966 9.6468554,-39.382809 z m 31.4906096,12.951445 -9.741259,9.713584 8.944804,12.4580526 7.780753,-7.5550056 -6.984298,-14.616631 z m -49.8397109,4.378822 -13.7541661,12.9822847 26.2830181,13.84571 0.06127,-0.0617 -0.122531,-0.0617 L 13.598503,-5.4007374 -8.7022409,-22.052595 z m 38.0154159,7.400825 -9.802525,9.7752596 11.579232,9.5594001 7.62759,-7.40083 -8.669108,-11.0087257 -0.735189,-0.925104 z m 20.187073,5.6739697 -7.382526,7.2158 6.187844,8.54179 5.820249,-6.13651996 -4.625567,-9.62107004 z m -32.195166,6.32154 -9.5574606,9.49772 13.6622686,7.1849703 7.933918,-7.6783603 -12.038726,-9.00433 z m 23.311629,2.37443004 -7.10683,6.93826996 8.362778,6.9074403 5.360756,-5.6739699 -0.06127,-0.0925 -0.0919,0.12335 -6.463539,-8.20258036 z m -8.730374,8.54178036 -7.505057,7.3391599 10.353916,5.45811 c 1.397496,-1.32103 5.67514,-6.12292 5.850882,-6.32154 L 31.886332,8.2600031 z"
         id="path4158-0"
         inkscape:connector-curvature="0" />
    </clipPath>
    <linearGradient
       y2="14.514202"
       x2="50.527882"
       y1="-28.64156"
       x1="2.7713892"
       gradientUnits="userSpaceOnUse"
       id="linearGradient3837-7"
       xlink:href="#linearGradient4213-7-8"
       inkscape:collect="always" />
    <linearGradient
       inkscape:collect="always"
       id="linearGradient4213-7-8">
      <stop
         style="stop-color:#ffffff;stop-opacity:1;"
         offset="0"
         id="stop4215-6-5" />
      <stop
         style="stop-color:#ffffff;stop-opacity:0;"
         offset="1"
         id="stop4217-5-2" />
    </linearGradient>
    <clipPath
       clipPathUnits="userSpaceOnUse"
       id="clipPath4156-4-6">
      <path
         style="opacity:0.6;fill:#ffffff;fill-opacity:1;stroke:none"
         d="m 27.046336,-55.695463 -14.21366,13.321486 0.06127,0 15.653407,21.770763 10.231384,-10.546177 C 38.561832,-32.30156 27.468089,-54.819245 27.046336,-55.695463 z M 9.6468554,-39.382809 -5.2407289,-25.32124 15.987863,-7.8059573 26.372412,-18.382966 9.6468554,-39.382809 z m 31.4906096,12.951445 -9.741259,9.713584 8.944804,12.4580526 7.780753,-7.5550056 -6.984298,-14.616631 z m -49.8397109,4.378822 -13.7541661,12.9822847 26.2830181,13.84571 0.06127,-0.0617 -0.122531,-0.0617 L 13.598503,-5.4007374 -8.7022409,-22.052595 z m 38.0154159,7.400825 -9.802525,9.7752596 11.579232,9.5594001 7.62759,-7.40083 -8.669108,-11.0087257 -0.735189,-0.925104 z m 20.187073,5.6739697 -7.382526,7.2158 6.187844,8.54179 5.820249,-6.13651996 -4.625567,-9.62107004 z m -32.195166,6.32154 -9.5574606,9.49772 13.6622686,7.1849703 7.933918,-7.6783603 -12.038726,-9.00433 z m 23.311629,2.37443004 -7.10683,6.93826996 8.362778,6.9074403 5.360756,-5.6739699 -0.06127,-0.0925 -0.0919,0.12335 -6.463539,-8.20258036 z m -8.730374,8.54178036 -7.505057,7.3391599 10.353916,5.45811 c 1.397496,-1.32103 5.67514,-6.12292 5.850882,-6.32154 L 31.886332,8.2600031 z"
         id="path4158-0-3"
         inkscape:connector-curvature="0" />
    </clipPath>
    <linearGradient
       inkscape:collect="always"
       xlink:href="#linearGradient4213-7-8"
       id="linearGradient4967"
       gradientUnits="userSpaceOnUse"
       x1="2.7713892"
       y1="-28.64156"
       x2="50.527882"
       y2="14.514202" />
    <radialGradient
       r="43.199203"
       fy="44.892841"
       fx="13.948145"
       cy="44.892841"
       cx="13.948145"
       gradientTransform="matrix(0.88832663,0,0,0.04919072,29.382213,-89.635221)"
       gradientUnits="userSpaceOnUse"
       id="radialGradient3833-1"
       xlink:href="#linearGradient4133-5"
       inkscape:collect="always" />
    <linearGradient
       inkscape:collect="always"
       id="linearGradient4133-5">
      <stop
         style="stop-color:#ffffff;stop-opacity:1;"
         offset="0"
         id="stop4135-4" />
      <stop
         style="stop-color:#ffffff;stop-opacity:0;"
         offset="1"
         id="stop4137-5" />
    </linearGradient>
    <radialGradient
       r="43.199203"
       fy="44.892841"
       fx="13.948145"
       cy="44.892841"
       cx="13.948145"
       gradientTransform="matrix(0.97513378,0,0,0.04919072,-4.148257,101.31932)"
       gradientUnits="userSpaceOnUse"
       id="radialGradient3831-7"
       xlink:href="#linearGradient4133-5"
       inkscape:collect="always" />
    <radialGradient
       r="43.199203"
       fy="44.892841"
       fx="13.948145"
       cy="44.892841"
       cx="13.948145"
       gradientTransform="matrix(0.97513384,0,0,0.04919072,32.734694,78.81442)"
       gradientUnits="userSpaceOnUse"
       id="radialGradient4992"
       xlink:href="#linearGradient4133-5"
       inkscape:collect="always" />
    <radialGradient
       inkscape:collect="always"
       xlink:href="#linearGradient5063"
       id="radialGradient5037"
       cx="48"
       cy="46"
       fx="48"
       fy="46"
       r="42.423195"
       gradientTransform="matrix(1,0,0,0.91365451,0,3.9718926)"
       gradientUnits="userSpaceOnUse" />
    <linearGradient
       gradientTransform="translate(84.155473,-1.3286153)"
       gradientUnits="userSpaceOnUse"
       y2="-1003.0311"
       x2="-57.290413"
       y1="-1051.0286"
       x1="-57.290413"
       id="linearGradient1402"
       xlink:href="#linearGradient3795"
       inkscape:collect="always" />
    <linearGradient
       id="linearGradient3795">
      <stop
         id="stop3797"
         offset="0"
         style="stop-color:#f2f2f2;stop-opacity:1" />
      <stop
         id="stop3799"
         offset="1"
         style="stop-color:#ffffff;stop-opacity:1" />
    </linearGradient>
    <linearGradient
       inkscape:collect="always"
       id="linearGradient4240">
      <stop
         style="stop-color:#ff0808;stop-opacity:1;"
         offset="0"
         id="stop4242" />
      <stop
         style="stop-color:#ff0808;stop-opacity:0;"
         offset="1"
         id="stop4244" />
    </linearGradient>
    <linearGradient
       inkscape:collect="always"
       xlink:href="#linearGradient4240"
       id="linearGradient4338"
       x1="31.903053"
       y1="959.18604"
       x2="58.386051"
       y2="959.18604"
       gradientUnits="userSpaceOnUse"
       gradientTransform="translate(1.6279514,-2.0531798)" />
  </defs>
  <sodipodi:namedview
     id="base"
     pagecolor="#ffffff"
     bordercolor="#666666"
     borderopacity="1.0"
     inkscape:pageopacity="0.0"
     inkscape:pageshadow="2"
     inkscape:zoom="1.375"
     inkscape:cx="-116.44869"
     inkscape:cy="32.67194"
     inkscape:current-layer="g972"
     showgrid="true"
     inkscape:document-units="px"
     inkscape:grid-bbox="true"
     inkscape:showpageshadow="false"
     inkscape:window-width="1280"
     inkscape:window-height="967"
     inkscape:window-x="0"
     inkscape:window-y="29"
     inkscape:window-maximized="1" />
  <metadata
     id="metadata4257">
    <rdf:RDF>
      <cc:Work
         rdf:about="">
        <dc:format>image/svg+xml</dc:format>
        <dc:type
           rdf:resource="http://purl.org/dc/dcmitype/StillImage" />
        <dc:title />
      </cc:Work>
    </rdf:RDF>
  </metadata>
  <g
     id="layer1"
     inkscape:label="icona"
     inkscape:groupmode="layer"
     transform="translate(0,32)">
    <g
       style="display:inline"
       transform="translate(-8.0439594,-17.334439)"
       id="g7390">
      <path
         style="display:inline;opacity:0.15;fill:#000000;fill-opacity:1;fill-rule:nonzero;stroke:none"
         d="m 97.186813,-14.665561 -82.285719,0 c -3.798848,0 -6.8571352,3.058285 -6.8571352,6.8571399 l 0,82.2857181 c 0,3.798857 3.0582872,6.857142 6.8571352,6.857142 l 82.285719,0 c 3.798857,0 6.857147,-3.058285 6.857147,-6.857142 l 0,-82.2857181 c 0,-3.7988549 -3.05829,-6.8571399 -6.857147,-6.8571399 z"
         id="path3288"
         inkscape:connector-curvature="0" />
      <path
         inkscape:connector-curvature="0"
         id="path4085"
         d="m 96.543957,-13.915561 -81.000007,0 c -3.739492,0 -6.749993,3.010499 -6.749993,6.7499969 l 0,81.0000031 c 0,3.739501 3.010501,6.75 6.749993,6.75 l 81.000007,0 c 3.739503,0 6.750003,-3.010499 6.750003,-6.75 l 0,-81.0000031 c 0,-3.7394979 -3.0105,-6.7499969 -6.750003,-6.7499969 z"
         style="display:inline;opacity:0.15;fill:#000000;fill-opacity:1;fill-rule:nonzero;stroke:none" />
      <path
         style="display:inline;fill:url(#linearGradient3825);fill-opacity:1;fill-rule:nonzero;stroke:none"
         d="m 95.901096,-13.165561 -79.714282,0 c -3.680143,0 -6.6428566,2.962713 -6.6428566,6.6428549 l 0,79.7142901 c 0,3.680142 2.9627136,6.642856 6.6428566,6.642856 l 79.714282,0 c 3.680143,0 6.642854,-2.962714 6.642854,-6.642856 l 0,-79.7142901 c 0,-3.6801419 -2.962711,-6.6428549 -6.642854,-6.6428549 z"
         id="rect4251-1"
         inkscape:connector-curvature="0" />
      <g
         id="g3272"
         transform="matrix(1.1071428,0,0,1.1071426,-107.81316,-18.147702)">
        <path
           inkscape:connector-curvature="0"
           id="path4236-5"
           d="m 112,4.5 c -3.324,0 -6,2.6759996 -6,6 l 0,15 1,0 0,-15 c 0,-2.7872972 2.2127,-5 5,-5 l 72,0 c 2.7873,0 5,2.2127028 5,5 l 0,15 1,0 0,-15 c 0,-3.3240004 -2.676,-6 -6,-6 l -72,0 z"
           style="display:inline;opacity:0.45;fill:url(#radialGradient3827);fill-opacity:1;fill-rule:nonzero;stroke:none" />
      </g>
      <path
         inkscape:connector-curvature="0"
         style="display:inline;opacity:0.89090905;fill:url(#linearGradient3829);fill-opacity:1;fill-rule:nonzero;stroke:none"
         d="m 9.5439564,67.178189 0,6 c 0,3.680142 2.9761066,6.65625 6.6562496,6.65625 l 79.6875,0 c 3.680143,0 6.656254,-2.976108 6.656254,-6.65625 l 0,-6 c 0,3.680142 -2.976111,6.65625 -6.656254,6.65625 l -79.6875,0 c -3.680143,0 -6.6562496,-2.976108 -6.6562496,-6.65625 z"
         id="path4118" />
      <g
         transform="translate(251.28797,-104.89729)"
         id="g4615">
        <g
           id="layer2-8"
           style="display:none">
          <rect
             width="86"
             height="85"
             rx="6"
             ry="6"
             x="5"
             y="7"
             id="rect3745-9"
             style="opacity:0.9;fill:url(#linearGradient3835);fill-opacity:1;fill-rule:nonzero;stroke:none;filter:url(#filter3174-3)" />
        </g>
      </g>
    </g>
  </g>
  <g
     inkscape:groupmode="layer"
     id="layer7"
     inkscape:label="colori"
     style="display:inline">
    <rect
       ry="4.25"
       y="7.2398567"
       x="5.5768051"
       height="77.520287"
       width="84.84639"
       id="rect4301"
       style="display:inline;fill:url(#radialGradient5037);fill-opacity:1;stroke:none" />
    <path
       inkscape:connector-curvature="0"
       id="path4989"
       d="m 9.6041045,5.7149979 c -3.116621,0 -5.667965,2.5395101 -5.667965,5.6460041 l 0,69.277996 c 0,3.106495 2.551344,5.646004 5.667965,5.646004 l 76.7917855,0 c 3.116621,0 5.66797,-2.539509 5.66797,-5.646004 l 0,-69.277996 c 0,-3.106493 -2.55135,-5.6460041 -5.66797,-5.6460041 l -76.7917855,0 z m 0,2.3194391 76.7917855,0 c 1.888101,0 3.352021,1.480095 3.352021,3.326565 l 0,69.277996 c 0,1.846474 -1.46392,3.326564 -3.352021,3.326564 l -76.7917855,0 c -1.888099,0 -3.352022,-1.48009 -3.352022,-3.326564 l 0,-69.277996 c 0,-1.84647 1.463923,-3.326565 3.352022,-3.326565 z"
       style="color:#000000;font-style:normal;font-variant:normal;font-weight:normal;font-stretch:normal;font-size:medium;line-height:normal;font-family:Sans;-inkscape-font-specification:Sans;text-indent:0;text-align:start;text-decoration:none;text-decoration-line:none;letter-spacing:normal;word-spacing:normal;text-transform:none;direction:ltr;block-progression:tb;writing-mode:lr-tb;baseline-shift:baseline;text-anchor:start;display:inline;overflow:visible;visibility:visible;fill:#241f1f;fill-opacity:0.63265303;stroke:none;stroke-width:2.3755002;marker:none;enable-background:accumulate" />
  </g>
  <g
     inkscape:groupmode="layer"
     id="layer5"
     inkscape:label="simboli">
    <g
       style="display:inline"
       transform="matrix(2.1629362,0,0,2.1629362,-103.01227,-2153.751)"
       id="layer1-5"
       inkscape:label="Capa 1">
      <g
         transform="matrix(1.3983961,0,0,1.3983961,9.2532418,-432.28138)"
         id="g972">
        <g
           id="g4400">
          <rect
             style="opacity:1;fill:#ff9900;fill-opacity:0.62116041;stroke:none;stroke-width:4;stroke-linejoin:bevel;stroke-miterlimit:4;stroke-dasharray:none;stroke-opacity:1"
             id="rect4392"
             width="12.901594"
             height="11.774419"
             x="43.691261"
             y="1024.02" />
          <rect
             y="1036.7113"
             x="29.785021"
             height="11.774419"
             width="12.901594"
             id="rect4394"
             style="opacity:1;fill:#cc0000;fill-opacity:0.62116041;stroke:none;stroke-width:4;stroke-linejoin:bevel;stroke-miterlimit:4;stroke-dasharray:none;stroke-opacity:1" />
          <rect
             style="opacity:1;fill:#003399;fill-opacity:0.62116041;stroke:none;stroke-width:4;stroke-linejoin:bevel;stroke-miterlimit:4;stroke-dasharray:none;stroke-opacity:1"
             id="rect4396"
             width="12.901594"
             height="11.774419"
             x="29.785021"
             y="1024.02" />
          <rect
             y="1036.7113"
             x="43.691261"
             height="11.774419"
             width="12.901594"
             id="rect4398"
             style="opacity:1;fill:#00cc00;fill-opacity:0.62116041;stroke:none;stroke-width:4;stroke-linejoin:bevel;stroke-miterlimit:4;stroke-dasharray:none;stroke-opacity:1" />
        </g>
        <g
           transform="matrix(0.88126398,0,0,1.0649265,1.6841223,1.3112824)"
           style="font-style:normal;font-variant:normal;font-weight:600;font-stretch:normal;font-size:17.37569427px;line-height:125%;font-family:'URW Gothic L';-inkscape-font-specification:'URW Gothic L Semi-Bold';letter-spacing:0px;word-spacing:0px;display:inline;fill:#fefefe;fill-opacity:1;stroke:#000000;stroke-width:0.54195566;stroke-linecap:butt;stroke-linejoin:miter;stroke-miterlimit:4;stroke-dasharray:none;stroke-opacity:1"
           id="text4236">
          <path
             style="color:#000000;font-style:normal;font-variant:normal;font-weight:normal;font-stretch:normal;font-size:medium;line-height:125%;font-family:'URW Gothic L';-inkscape-font-specification:'URW Gothic L Semi-Bold';text-indent:0;text-align:start;text-decoration:none;text-decoration-line:none;text-decoration-style:solid;text-decoration-color:#000000;letter-spacing:0px;word-spacing:0px;text-transform:none;direction:ltr;block-progression:tb;writing-mode:lr-tb;baseline-shift:baseline;text-anchor:start;white-space:normal;clip-rule:nonzero;display:inline;overflow:visible;visibility:visible;opacity:1;isolation:auto;mix-blend-mode:normal;color-interpolation:sRGB;color-interpolation-filters:linearRGB;solid-color:#000000;solid-opacity:1;fill:#fefefe;fill-opacity:1;fill-rule:nonzero;stroke:#000000;stroke-width:0.54195566;stroke-linecap:butt;stroke-linejoin:miter;stroke-miterlimit:4;stroke-dasharray:none;stroke-dashoffset:0;stroke-opacity:1;color-rendering:auto;image-rendering:auto;shape-rendering:auto;text-rendering:auto;enable-background:accumulate"
             d="m 39.566176,964.92205 c -4.086147,0 -7.396485,3.22686 -7.396485,7.25781 0,4.09797 3.363778,7.31055 7.623047,7.31055 2.078239,0 3.935873,-0.74945 5.322266,-2.17383 l 0.002,-0.002 0.002,-0.002 c 1.289921,-1.34682 2.019531,-3.10289 2.019531,-4.92382 l 0,-0.95118 -9.669922,0 0,3.5 0.638672,0 3.914063,0 c -0.621281,0.57336 -1.374603,0.98243 -2.367188,0.98243 -2.199538,0 -3.810547,-1.59016 -3.810547,-3.70508 0,-0.9325 0.432811,-2.03359 1.023438,-2.65235 l 0.0039,-0.004 0.0039,-0.006 c 0.610024,-0.66677 1.562806,-1.06055 2.640625,-1.06055 1.326048,0 2.327693,0.49124 3.007813,1.4375 l 0.191406,0.26563 4.033203,0 -0.308594,-0.85547 c -0.946478,-2.62254 -3.81914,-4.41797 -6.873046,-4.41797 z m 0,1.27734 c 2.153485,0 4.14686,1.15665 5.164062,2.71875 l -1.486328,0 c -0.922627,-1.06424 -2.216806,-1.70312 -3.728516,-1.70312 -1.387014,0 -2.691958,0.50952 -3.576172,1.47265 -0.866001,0.91018 -1.373046,2.23812 -1.373046,3.52735 0,2.78502 2.248476,4.98242 5.08789,4.98242 1.89605,0 3.544709,-0.97915 4.34375,-2.61719 l 0.447266,-0.91797 -5.699219,0 0,-0.94726 7.050781,0 c -0.08208,1.36143 -0.607578,2.67905 -1.599609,3.71484 -1.149894,1.17932 -2.627159,1.78516 -4.404297,1.78516 -3.629297,0 -6.347656,-2.62683 -6.347656,-6.03516 0,-3.33633 2.70094,-5.98047 6.121094,-5.98047 z"
             id="path4370"
             inkscape:connector-curvature="0" />
          <path
             style="color:#000000;font-style:normal;font-variant:normal;font-weight:normal;font-stretch:normal;font-size:medium;line-height:125%;font-family:'URW Gothic L';-inkscape-font-specification:'URW Gothic L Semi-Bold';text-indent:0;text-align:start;text-decoration:none;text-decoration-line:none;text-decoration-style:solid;text-decoration-color:#000000;letter-spacing:0px;word-spacing:0px;text-transform:none;direction:ltr;block-progression:tb;writing-mode:lr-tb;baseline-shift:baseline;text-anchor:start;white-space:normal;clip-rule:nonzero;display:inline;overflow:visible;visibility:visible;opacity:1;isolation:auto;mix-blend-mode:normal;color-interpolation:sRGB;color-interpolation-filters:linearRGB;solid-color:#000000;solid-opacity:1;fill:#fefefe;fill-opacity:1;fill-rule:nonzero;stroke:#000000;stroke-width:0.54195566;stroke-linecap:butt;stroke-linejoin:miter;stroke-miterlimit:4;stroke-dasharray:none;stroke-dashoffset:0;stroke-opacity:1;color-rendering:auto;image-rendering:auto;shape-rendering:auto;text-rendering:auto;enable-background:accumulate"
             d="m 55.054302,964.92205 c -3.979743,0 -7.242188,3.26049 -7.242188,7.24023 0,4.0467 3.30638,7.32813 7.398438,7.32813 2.860491,0 5.403168,-1.61116 6.511718,-4.19141 l 0.382813,-0.89062 -4.041016,0 -0.189453,0.19922 c -0.971342,1.01991 -1.626989,1.3125 -2.716797,1.3125 -2.006336,0 -3.669922,-1.68781 -3.669922,-3.74024 0,-0.87939 0.36089,-1.87274 0.904297,-2.50195 l 0.002,-0.002 0.002,-0.002 c 0.660415,-0.77782 1.564701,-1.18164 2.708985,-1.18164 1.355741,0 2.0879,0.35665 2.865234,1.36719 l 0.191407,0.24805 3.96289,0 -0.408203,-0.90235 c -0.526987,-1.16301 -1.077373,-1.90556 -2,-2.66211 l -0.002,-0.002 -0.002,0 c -1.300302,-1.05171 -2.952522,-1.61914 -4.658203,-1.61914 z m 0,1.27734 c 1.42043,0 2.789247,0.47416 3.851562,1.33203 0.480863,0.39431 0.692588,0.87953 0.972656,1.29883 l -1.197265,0 c -0.927324,-1.03436 -2.089009,-1.61523 -3.576172,-1.61523 -1.460107,0 -2.776391,0.56766 -3.679688,1.6289 -5.78e-4,6.7e-4 -0.0014,10e-4 -0.002,0.002 -0.776064,0.89967 -1.21289,2.12919 -1.21289,3.33398 0,2.74327 2.227413,5.01758 4.947265,5.01758 1.271425,0 2.342706,-0.52134 3.376953,-1.51172 l 1.462891,0 c -1.04884,1.55921 -2.773002,2.5293 -4.787109,2.5293 -3.414241,0 -6.121094,-2.6974 -6.121094,-6.05274 0,-3.28329 2.681546,-5.96289 5.964844,-5.96289 z"
             id="path4372"
             inkscape:connector-curvature="0" />
        </g>
      </g>
    </g>
  </g>
  <g
     inkscape:groupmode="layer"
     id="layer4"
     inkscape:label="luci-superiori">
    <g
       id="g4963"
       transform="matrix(1.0076012,0,0,1.014293,-1.0512372,0.60533708)">
      <path
         inkscape:connector-curvature="0"
         id="rect4190"
         d="m 10.49504,6.668839 c -1.9933517,0 -3.6044917,1.649341 -3.6088027,3.684498 l -0.148217,69.961124 c 1.913686,2.521055 1.665283,2.410772 4.8515137,2.679065 C 13.393749,68.132472 48.088552,9.657054 89.00782,9.657054 c 0.48807,0 0.96327,0.01986 1.4492,0.02901 -0.30286,-1.718031 -1.751,-3.017226 -3.52355,-3.017226 z"
         style="display:inline;opacity:0.3;fill:#ffffff;fill-opacity:1;stroke:none"
         sodipodi:nodetypes="ssccscss" />
      <rect
         clip-path="url(#clipPath4156-4-6)"
         ry="3.9569881"
         rx="3.9569874"
         y="-30"
         x="2"
         height="92"
         width="92"
         id="rect4146"
         style="display:inline;fill:url(#linearGradient4967);fill-opacity:1;stroke:none;opacity:0.867"
         transform="matrix(0.90930469,0,0,0.92837735,5.0676273,34.52016)" />
    </g>
    <rect
       style="display:inline;opacity:0.55;fill:url(#radialGradient4992);fill-opacity:1;stroke:none"
       id="rect4131"
       width="84.250008"
       height="4.25"
       x="4.211"
       y="78.897736"
       rx="0"
       ry="4.25" />
    <rect
       ry="4.25"
       rx="0"
       y="-89.551903"
       x="3.3977196"
       height="4.25"
       width="76.75"
       id="rect4141"
       style="display:inline;opacity:0.55;fill:url(#radialGradient3833-1);fill-opacity:1;stroke:none"
       transform="matrix(0,1,-1,0,0,0)" />
  </g>
</svg>
