<?xml version="1.0" encoding="UTF-8" standalone="no"?>
<!-- Created with Inkscape (http://www.inkscape.org/) -->

<svg
   xmlns:dc="http://purl.org/dc/elements/1.1/"
   xmlns:cc="http://creativecommons.org/ns#"
   xmlns:rdf="http://www.w3.org/1999/02/22-rdf-syntax-ns#"
   xmlns:svg="http://www.w3.org/2000/svg"
   xmlns="http://www.w3.org/2000/svg"
   xmlns:sodipodi="http://sodipodi.sourceforge.net/DTD/sodipodi-0.dtd"
   xmlns:inkscape="http://www.inkscape.org/namespaces/inkscape"
   version="1.0"
   width="96"
   height="96"
   id="svg2408"
   inkscape:version="0.48.3.1 r9886"
   sodipodi:docname="gimp.svg">
  <sodipodi:namedview
     pagecolor="#ffffff"
     bordercolor="#666666"
     borderopacity="1"
     objecttolerance="10"
     gridtolerance="10"
     guidetolerance="10"
     inkscape:pageopacity="0"
     inkscape:pageshadow="2"
     inkscape:window-width="1280"
     inkscape:window-height="752"
     id="namedview128"
     showgrid="false"
     inkscape:zoom="5.6568542"
     inkscape:cx="32.851647"
     inkscape:cy="44.014757"
     inkscape:window-x="0"
     inkscape:window-y="0"
     inkscape:window-maximized="1"
     inkscape:current-layer="g4525"
     showguides="true"
     inkscape:guide-bbox="true" />
  <defs
     id="defs2410">
    <linearGradient
       x1="45.447727"
       y1="92.539597"
       x2="45.447727"
       y2="7.0165396"
       id="ButtonShadow"
       gradientUnits="userSpaceOnUse"
       gradientTransform="scale(1.0058652,0.994169)">
      <stop
         id="stop3750"
         style="stop-color:#000000;stop-opacity:1"
         offset="0" />
      <stop
         id="stop3752"
         style="stop-color:#000000;stop-opacity:0.58823532"
         offset="1" />
    </linearGradient>
    <filter
       color-interpolation-filters="sRGB"
       id="filter3174">
      <feGaussianBlur
         id="feGaussianBlur3176"
         stdDeviation="1.71" />
    </filter>
  </defs>
  <metadata
     id="metadata2413">
    <rdf:RDF>
      <cc:Work
         rdf:about="">
        <dc:format>image/svg+xml</dc:format>
        <dc:type
           rdf:resource="http://purl.org/dc/dcmitype/StillImage" />
        <dc:title />
      </cc:Work>
    </rdf:RDF>
  </metadata>
  <g
     id="layer2"
     style="display:none">
    <path
       d="M 11,7 C 7.676,7 5,9.676 5,13 l 0,33.6875 c 2.2377507,0.124029 4.660506,0.235683 5.875,0.4375 0.66093,0.10983 -0.08406,0.240848 -1.125,0.34375 C 8.7090622,47.571654 7.3545491,47.665119 6.84375,47.75 6.2216014,47.853382 5.6264179,47.903999 5,48 l 0,1.0625 c 0.3803657,0.03607 0.7183843,0.03125 0.9375,0.03125 0.80883,10e-7 1.1599727,0.215701 1.3125,0.5625 0.1525272,0.346797 0.09375,0.839723 0.09375,1.40625 0,0.424828 -0.9420178,0.663014 -1.15625,1.375 C 6.110939,52.691968 5.5510552,52.945524 5,53.1875 l 0,2.21875 c 0.7355867,0.02497 1.4332639,0.05671 1.84375,0.3125 C 7.1254716,55.894306 6.0687957,56.124098 5,56.3125 l 0,7.5625 c 1.1379643,0.180337 3.3100715,0.925679 3.96875,1.0625 1.090152,0.226446 1.224723,0.33476 0.875,0.4375 -0.3497231,0.102744 -1.173581,0.175172 -2,0.3125 C 6.8656638,65.850029 5.90816,66.141998 5,66.34375 L 5,86 c 0,3.324 2.676,6 6,6 l 13,0 c 0.0954,-0.438237 0.150955,-0.931178 0.25,-1.4375 0.140364,-0.717512 0.25498,-1.34159 0.375,-1.59375 0.03001,-0.06304 0.05815,-0.114053 0.09375,-0.125 0.106804,-0.03285 0.238198,0.191956 0.46875,0.78125 0.304338,0.777871 0.540174,1.646782 0.6875,2.375 l 0.75,0 c 0.276152,-0.493694 0.578538,-1.138496 0.8125,-1.4375 0.09907,-0.126629 0.275237,0.131501 0.53125,0.375 0.256014,0.2435 0.588904,0.486378 0.9375,0.375 0.648614,-0.207227 1.602807,-0.726227 2.03125,-1 0.139883,-0.08938 0.300164,-0.157976 0.40625,-0.1875 0.106087,-0.02952 0.174331,-0.01774 0.25,0 0.151339,0.03548 0.232196,0.144559 0.34375,0.28125 0.223098,0.27338 0.466785,0.656251 1.0625,0.65625 0.478344,0 0.657185,-0.0325 0.78125,0.0625 0.124065,0.095 0.197087,0.314551 0.40625,0.875 l 8.875,0 c -0.04778,-0.593879 1.040547,-2.151517 1.21875,-3.0625 0.19092,-0.975995 0.214078,-1.242419 0.28125,-1.0625 0.06717,0.179919 0.192504,0.793906 0.46875,1.5 0.110448,0.282298 0.213887,0.358235 0.3125,0.28125 0.09861,-0.07699 0.168895,-0.293948 0.25,-0.5625 0.162213,-0.537107 0.285649,-1.296709 0.34375,-1.59375 0.131129,-0.670335 0.128655,-1.786501 0.125,-2.28125 -9.11e-4,-0.123687 -0.0059,-0.217815 0,-0.25 0.01779,-0.09656 0.08067,0.312079 0.28125,1.59375 0.163819,1.046767 0.54767,2.687946 0.71875,3.5625 0.169798,0.867992 0.298106,1.322124 0.40625,1.875 l 28.21875,0 c 0.03877,-0.494956 0.03519,-1.098589 0.0625,-1.5 0.02049,-0.301057 0.06649,-0.487005 0.15625,-0.46875 0.02992,0.0061 0.05077,0.03882 0.09375,0.09375 0.233449,0.298339 0.630596,1.164908 0.96875,1.875 L 85,92 c 3.324,0 6,-2.676 6,-6 l 0,-7.21875 c -0.16942,0.0045 -0.290112,-4e-6 -0.5,0 -1.330307,0 -2.638456,-4e-6 -3.96875,0 -1.226564,0 -2.05394,-9.64e-4 -2.25,-0.0625 -0.19606,-0.06154 0.232972,-0.183183 1.46875,-0.5 C 86.405034,78.050819 89.092469,77.290673 91,76.875 L 91,38.46875 C 90.34725,38.202412 89.792969,37.980093 89.25,37.5625 89.107486,37.452886 88.801155,37.170028 88.28125,37 87.761349,36.829972 87.007124,36.743855 86,36.9375 c -1.533473,0.294852 -1.685602,0.283469 -1.25,0.15625 0.4356,-0.127221 1.468635,-0.381012 2.25,-0.53125 1.152717,-0.221645 2.722214,-1.204246 4,-1.84375 l 0,-4.5625 c -0.69831,-0.257978 -1.422206,-0.558272 -1.75,-1.0625 -0.209707,-0.322576 -0.321618,-0.513018 -0.3125,-0.625 0.0091,-0.111981 0.13299,-0.149124 0.25,-0.1875 0.117011,-0.03837 0.261032,-0.05449 0.375,-0.15625 0.11397,-0.101759 0.187497,-0.291619 0.1875,-0.59375 0,-0.32292 0.08246,-0.887065 0.0625,-1.40625 -0.01,-0.259593 -0.03562,-0.49724 -0.125,-0.6875 -0.08939,-0.19026 -0.219089,-0.333004 -0.4375,-0.375 -0.574572,-0.110478 -0.848143,-0.233682 -0.90625,-0.34375 -0.05811,-0.110067 0.07208,-0.18937 0.28125,-0.28125 0.418339,-0.18376 1.132532,-0.339398 1.125,-0.34375 -0.668701,-0.385725 -5.247169,-0.921226 -5,-0.96875 0.332574,-0.06395 0.667437,-0.123553 1,-0.1875 1.047644,-0.201439 2.43278,-0.309227 3.75,-0.5625 0.573261,-0.110227 0.911769,-0.250569 1.125,-0.4375 0.213229,-0.18693 0.294201,-0.423258 0.375,-0.625 L 91,13 C 91,9.676 88.324,7 85,7 L 33.625,7 C 33.72158,8.3975706 33.82658,9.959362 33.53125,9.1875 33.320827,8.6375466 33.210422,8.0499534 33,7.5 32.946762,7.3608606 32.903941,7.1705291 32.84375,7 L 30.8125,7 C 30.571803,7.4923127 30.362863,7.9708281 30.03125,8.1875 29.524321,8.5187294 29.245447,8.6821159 29,8.59375 28.754552,8.5053839 28.523162,8.1669814 28.15625,7.6875 27.992502,7.4735174 27.721718,7.2560338 27.40625,7 l -6.8125,0 -1.3125,5.5625 L 17.53125,7 17.3125,7 15.5625,15.9375 14.15625,7 11,7 z"
       inkscape:connector-curvature="0"
       id="rect3745"
       style="opacity:0.9;fill:url(#ButtonShadow);fill-opacity:1;fill-rule:nonzero;stroke:none;filter:url(#filter3174)" />
  </g>
  <g
     id="g3745"
     transform="matrix(1,0,0,1.0794707,-0.1539637,-1.2780888)">
    <rect
       style="fill:#ff5599;fill-opacity:1;stroke:none"
       id="rect3696"
       width="96"
       height="88.932472"
       x="0.15396367"
       y="1.1839925" />
    <rect
       style="opacity:0.3122172;fill:#ffffff;fill-opacity:1;stroke:none"
       id="rect3698"
       width="96"
       height="2.3159499"
       x="0.15396367"
       y="1.1839925" />
    <rect
       y="87.800522"
       x="0.15396367"
       height="2.3159499"
       width="96"
       id="rect3700"
       style="opacity:0.38914029;fill:#ff0066;fill-opacity:1;stroke:none" />
    <g
       id="g4543"
       transform="translate(0.48775728,0.35119463)">
      <g
         transform="matrix(1.0140444,0.11312564,-0.13182044,1.0140444,5.8349684,-7.9644533)"
         id="g4525">
        <path
           transform="matrix(0.51103455,0,0,0.36593824,-18.979839,26.593538)"
           d="m 160,58 c 0,17.673112 -14.32689,32 -32,32 -17.67311,0 -32,-14.326888 -32,-32 0,-17.673112 14.32689,-32 32,-32 17.67311,0 32,14.326888 32,32 z"
           sodipodi:ry="32"
           sodipodi:rx="32"
           sodipodi:cy="58"
           sodipodi:cx="128"
           id="path4523"
           style="fill:#f4d7d7;fill-opacity:1;stroke:none"
           sodipodi:type="arc" />
        <path
           inkscape:connector-curvature="0"
           id="path4532"
           d="m 32.836117,23.521784 a 1.370844,1.2699223 0 0 0 -0.979077,0.453499 c -0.764459,0.847982 -0.868819,1.799075 -1.009672,2.919395 -0.140853,1.120321 -0.195044,2.409967 -0.214173,3.769705 -0.03826,2.719475 0.01919,5.710653 -0.244769,7.454379 a 1.370844,1.2699223 0 0 0 -0.0306,0.08503 c -0.239764,3.101799 -2.473545,6.430644 -4.864786,8.106283 -1.808511,-3.210575 -5.62285,-5.413636 -10.096725,-5.413636 -6.1020868,0 -11.2593782,4.034244 -11.2593782,9.211685 0,5.177441 5.1572914,9.211685 11.2593782,9.211685 0.761258,0 1.503793,-0.108521 2.233518,-0.226749 l 0.214173,0.170062 c 10.23513,7.973807 26.790478,14.684538 42.039091,11.8193 13.454527,-2.451996 22.40828,-10.723577 26.710427,-20.038958 4.302147,-9.315381 4.081099,-19.732999 -1.040269,-26.784746 A 1.370844,1.2699223 0 0 0 83.77868,23.833563 c -2.595312,1.270029 -4.314836,3.773916 -6.425189,6.037197 -1.994782,2.139337 -4.233875,4.064108 -7.312477,4.931795 -4.50646,-2.842852 -7.827685,-5.023383 -11.810108,-5.895479 -4.050935,-0.887099 -8.67032,-0.298158 -15.573434,1.813993 -0.163759,-0.0318 -0.738227,-0.270811 -1.438018,-0.821965 -0.728021,-0.573389 -1.58446,-1.367467 -2.447691,-2.210805 -0.863231,-0.843338 -1.733795,-1.722718 -2.631268,-2.465897 -0.897472,-0.743179 -1.775828,-1.382243 -2.906633,-1.643932 a 1.370844,1.2699223 0 0 0 -0.397749,-0.05669 z m 0.826095,3.202832 c 0.244775,0.161434 0.363944,0.166128 0.642519,0.396811 0.762367,0.631302 1.609465,1.447036 2.478287,2.295836 0.868823,0.8488 1.766602,1.732445 2.661864,2.437553 0.895263,0.705109 1.765856,1.325148 2.967825,1.445526 a 1.370844,1.2699223 0 0 0 0.581327,-0.08503 c 7.034918,-2.203593 11.145052,-2.604387 14.624953,-1.842337 3.479901,0.762051 6.604402,2.805587 11.473551,5.867135 a 1.370844,1.2699223 0 0 0 1.101461,0.170062 c 4.172729,-0.969939 7.006766,-3.500375 9.240033,-5.895478 1.748581,-1.875294 3.162979,-3.43981 4.497632,-4.50664 3.65415,6.115134 3.889265,14.953258 0.152981,23.043384 C 80.091457,58.697833 71.874533,66.302459 59.332371,68.588182 45.299375,71.225004 29.307528,64.884047 19.618586,57.335755 l -0.673115,-0.53853 a 1.370844,1.2699223 0 0 0 -1.223846,-0.283436 c -0.732935,0.16411 -1.503979,0.255093 -2.325306,0.255093 -4.819914,0 -8.5057259,-3.064063 -8.5057259,-6.660757 0,-3.596695 3.6858119,-6.660757 8.5057259,-6.660757 4.093033,0 7.418625,2.264876 8.291553,5.101856 a 1.370844,1.2699223 0 0 0 1.927556,0.793622 c 3.990666,-1.794172 7.076789,-6.311907 7.465458,-10.88396 0.0025,-0.02948 0.02832,-0.05555 0.0306,-0.08503 l -0.0306,0 c 0.312975,-2.143199 0.238415,-5.05463 0.275365,-7.681128 0.01868,-1.327772 0.09471,-2.564455 0.214173,-3.514612 0.03453,-0.274644 0.03719,-0.236698 0.09179,-0.453499 z"
           style="font-size:medium;font-style:normal;font-variant:normal;font-weight:normal;font-stretch:normal;text-indent:0;text-align:start;text-decoration:none;line-height:normal;letter-spacing:normal;word-spacing:normal;text-transform:none;direction:ltr;block-progression:tb;writing-mode:lr-tb;text-anchor:start;baseline-shift:baseline;opacity:0.07692309;color:#000000;fill:#000000;fill-opacity:1;fill-rule:nonzero;stroke:none;stroke-width:2.7997148;marker:none;visibility:visible;display:inline;overflow:visible;enable-background:accumulate;font-family:Sans;-inkscape-font-specification:Sans" />
        <path
           style="fill:#aa4400"
           d="m 32.911372,24.806685 c -1.43353,1.590157 -0.581963,9.588266 -1.17127,13.481194 -0.345341,4.467629 -3.921537,9.200632 -7.6796,10.277235 -0.209797,3.730574 -3.22032,6.871316 -7.381248,8.107143 l 2.055262,1.637806 C 28.696552,66.071113 44.96683,72.587155 59.607634,69.836125 85.604323,65.098406 93.965469,38.121622 84.414374,24.970466 80.200147,27.032719 77.400635,34.426827 69.86182,36.179203 60.149845,30.072657 56.837122,27.540239 42.557831,32.013034 39.890779,31.745926 35.724647,25.457728 32.911372,24.806685 z m 3.690624,15.927667 c 1.340326,-0.05107 2.700672,0.378668 3.856372,1.279537 2.647931,2.134943 2.298644,6.48691 -1.138125,8.465411 -5.768108,2.53564 -10.931752,-4.019599 -6.442015,-8.178795 1.063746,-0.985437 2.383441,-1.515082 3.723768,-1.566153 z m 15.84538,0.225199 c 2.165877,-0.0584 4.393054,0.675243 6.165776,2.405528 3.551035,3.664248 2.329091,10.401063 -3.491731,12.539456 -5.494242,1.413342 -10.728499,-2.132448 -10.718278,-7.257531 0.0091,-4.564521 3.909383,-7.575977 8.044233,-7.687453 z"
           id="path3732"
           inkscape:connector-curvature="0"
           sodipodi:nodetypes="ccccccccccsccsssccss" />
        <path
           transform="matrix(0.08011087,0,0,0.0742131,25.927919,42.694602)"
           d="m 160,58 c 0,17.673112 -14.32689,32 -32,32 -17.67311,0 -32,-14.326888 -32,-32 0,-17.673112 14.32689,-32 32,-32 17.67311,0 32,14.326888 32,32 z"
           sodipodi:ry="32"
           sodipodi:rx="32"
           sodipodi:cy="58"
           sodipodi:cx="128"
           id="path4509"
           style="fill:#000000;fill-opacity:1;stroke:none"
           sodipodi:type="arc" />
        <path
           sodipodi:type="arc"
           style="fill:#000000;fill-opacity:1;stroke:none"
           id="path4511"
           sodipodi:cx="128"
           sodipodi:cy="58"
           sodipodi:rx="32"
           sodipodi:ry="32"
           d="m 160,58 c 0,17.673112 -14.32689,32 -32,32 -17.67311,0 -32,-14.326888 -32,-32 0,-17.673112 14.32689,-32 32,-32 17.67311,0 32,14.326888 32,32 z"
           transform="matrix(0.10221042,0,0,0.09468569,39.010851,44.127682)" />
        <path
           style="fill:#803300;opacity:0.57013575"
           d="M 90.84375,37.4375 C 81.291765,71.784838 42.800565,78.433883 17.90625,53.90625 17.180183,54.200142 16.422914,54.408706 15.625,54.5625 l 1.84375,2.0625 c 9.078882,9.71201 24.728433,18.81724 39.9375,17.59375 22.197151,-1.654483 34.273522,-21.223093 33.4375,-36.78125 z"
           transform="matrix(0.97205333,-0.10844116,0.11705906,0.90049071,-4.8847285,9.2203483)"
           id="path4566"
           inkscape:connector-curvature="0"
           sodipodi:nodetypes="cccccc" />
        <path
           sodipodi:type="arc"
           style="fill:#000000;fill-opacity:1;stroke:none"
           id="path3739"
           sodipodi:cx="128"
           sodipodi:cy="58"
           sodipodi:rx="32"
           sodipodi:ry="32"
           d="m 160,58 c 0,17.673112 -14.32689,32 -32,32 -17.67311,0 -32,-14.326888 -32,-32 0,-17.673112 14.32689,-32 32,-32 17.67311,0 32,14.326888 32,32 z"
           transform="matrix(0.30900049,0,0,0.24823403,-24.143789,35.713055)" />
      </g>
    </g>
  </g>
</svg>
