<?xml version="1.0" encoding="UTF-8" standalone="no"?>
<!-- Created with Inkscape (http://www.inkscape.org/) -->

<svg
   xmlns:dc="http://purl.org/dc/elements/1.1/"
   xmlns:cc="http://creativecommons.org/ns#"
   xmlns:rdf="http://www.w3.org/1999/02/22-rdf-syntax-ns#"
   xmlns:svg="http://www.w3.org/2000/svg"
   xmlns="http://www.w3.org/2000/svg"
   xmlns:xlink="http://www.w3.org/1999/xlink"
   xmlns:sodipodi="http://sodipodi.sourceforge.net/DTD/sodipodi-0.dtd"
   xmlns:inkscape="http://www.inkscape.org/namespaces/inkscape"
   width="96"
   height="96"
   viewBox="0 0 96.000001 96.000004"
   version="1.1"
   id="svg1072"
   inkscape:version="0.92.2 5c3e80d, 2017-08-06"
   sodipodi:docname="glippy.svg">
  <defs
     id="defs1066">
    <linearGradient
       y2="47.000011"
       x2="90"
       y1="47.000011"
       x1="6"
       gradientTransform="matrix(1.1071428,0,0,1.1071426,-4.9939026,-3.620687)"
       gradientUnits="userSpaceOnUse"
       id="linearGradient4071"
       xlink:href="#linearGradient6139-0"
       inkscape:collect="always" />
    <linearGradient
       id="linearGradient6139-0">
      <stop
         style="stop-color:#cad1d7;stop-opacity:1"
         offset="0"
         id="stop6141-2" />
      <stop
         id="stop6151-0"
         offset="0.25"
         style="stop-color:#ffffff;stop-opacity:1;" />
      <stop
         id="stop6147-1"
         offset="0.5"
         style="stop-color:#bfc8ce;stop-opacity:1" />
      <stop
         style="stop-color:#f9fafb;stop-opacity:1"
         offset="0.75"
         id="stop6149-4" />
      <stop
         style="stop-color:#c5cdd3;stop-opacity:1"
         offset="1"
         id="stop6143-4" />
    </linearGradient>
    <linearGradient
       gradientUnits="userSpaceOnUse"
       y2="88.171875"
       x2="94.5"
       y1="88.171875"
       x1="1.5"
       id="linearGradient4129"
       xlink:href="#linearGradient3832-0-6-1-1"
       inkscape:collect="always"
       gradientTransform="translate(0.1489535,0.415026)" />
    <linearGradient
       id="linearGradient3832-0-6-1-1">
      <stop
         id="stop3834-6-3-7-1"
         offset="0"
         style="stop-color:#000000;stop-opacity:1;" />
      <stop
         style="stop-color:#000000;stop-opacity:0.58823532;"
         offset="0.1"
         id="stop3872-2-4" />
      <stop
         id="stop3844-6-2-7-6"
         offset="0.89999998"
         style="stop-color:#000000;stop-opacity:0.58823532;" />
      <stop
         id="stop3836-5-0-2-9"
         offset="1"
         style="stop-color:#000000;stop-opacity:1;" />
    </linearGradient>
    <radialGradient
       r="43.199203"
       fy="44.892841"
       fx="13.948145"
       cy="44.892841"
       cx="13.948145"
       gradientTransform="matrix(0.97513378,0,0,0.04919072,34.047649,80.581722)"
       gradientUnits="userSpaceOnUse"
       id="radialGradient7462"
       xlink:href="#linearGradient3737"
       inkscape:collect="always" />
    <linearGradient
       id="linearGradient3737">
      <stop
         id="stop3739"
         style="stop-color:#ffffff;stop-opacity:1"
         offset="0" />
      <stop
         id="stop3741"
         style="stop-color:#ffffff;stop-opacity:0"
         offset="1" />
    </linearGradient>
    <radialGradient
       r="43.199203"
       fy="44.892841"
       fx="13.948145"
       cy="44.892841"
       cx="13.948145"
       gradientTransform="matrix(0.88832663,0,0,0.04919072,31.959518,-90.31726)"
       gradientUnits="userSpaceOnUse"
       id="radialGradient7464"
       xlink:href="#linearGradient3737"
       inkscape:collect="always" />
    <linearGradient
       y2="14.514202"
       x2="50.527882"
       y1="-28.64156"
       x1="2.7713892"
       gradientUnits="userSpaceOnUse"
       id="linearGradient4767"
       xlink:href="#linearGradient3737"
       inkscape:collect="always" />
    <clipPath
       clipPathUnits="userSpaceOnUse"
       id="clipPath4156-4-1">
      <path
         style="opacity:0.6;fill:#ffffff;fill-opacity:1;stroke:none"
         d="m 27.046336,-55.695463 -14.21366,13.321486 h 0.06127 l 15.653407,21.770763 10.231384,-10.546177 C 38.561832,-32.30156 27.468089,-54.819245 27.046336,-55.695463 Z M 9.6468554,-39.382809 -5.2407289,-25.32124 15.987863,-7.8059573 26.372412,-18.382966 Z m 31.4906096,12.951445 -9.741259,9.713584 8.944804,12.4580526 7.780753,-7.5550056 z m -49.8397109,4.378822 -13.7541661,12.9822847 26.2830181,13.84571 0.06127,-0.0617 -0.122531,-0.0617 L 13.598503,-5.4007374 -8.7022409,-22.052595 Z m 38.0154159,7.400825 -9.802525,9.7752596 11.579232,9.5594001 7.62759,-7.40083 -8.669108,-11.0087257 z m 20.187073,5.6739697 -7.382526,7.2158 6.187844,8.54179 5.820249,-6.13651996 z m -32.195166,6.32154 -9.5574606,9.49772 13.6622686,7.1849703 7.933918,-7.6783603 z m 23.311629,2.37443004 -7.10683,6.93826996 8.362778,6.9074403 5.360756,-5.6739699 -0.06127,-0.0925 -0.0919,0.12335 -6.463539,-8.20258036 z m -8.730374,8.54178036 -7.505057,7.3391599 10.353916,5.45811 c 1.397496,-1.32103 5.67514,-6.12292 5.850882,-6.32154 z"
         id="path4158-0-8"
         inkscape:connector-curvature="0" />
    </clipPath>
    <linearGradient
       y2="31.656605"
       x2="49.996414"
       y1="71.737534"
       x1="49.996414"
       gradientUnits="userSpaceOnUse"
       id="linearGradient5362"
       xlink:href="#linearGradient5200-3"
       inkscape:collect="always" />
    <linearGradient
       id="linearGradient5200-3">
      <stop
         offset="0"
         style="stop-color:#bf2222;stop-opacity:1"
         id="stop5202-9" />
      <stop
         offset="1"
         style="stop-color:#e94c4c;stop-opacity:1"
         id="stop5204-9" />
    </linearGradient>
  </defs>
  <sodipodi:namedview
     id="base"
     pagecolor="#ffffff"
     bordercolor="#666666"
     borderopacity="1.0"
     inkscape:pageopacity="0.0"
     inkscape:pageshadow="2"
     inkscape:zoom="5.473816"
     inkscape:cx="44.14516"
     inkscape:cy="46.538497"
     inkscape:document-units="px"
     inkscape:current-layer="g2574"
     showgrid="false"
     inkscape:showpageshadow="false"
     units="px"
     inkscape:lockguides="true"
     inkscape:window-width="1280"
     inkscape:window-height="947"
     inkscape:window-x="0"
     inkscape:window-y="19"
     inkscape:window-maximized="1">
    <sodipodi:guide
       position="0,0"
       orientation="0,96"
       id="guide1621"
       inkscape:locked="true" />
    <sodipodi:guide
       position="96.000002,0"
       orientation="-96,0"
       id="guide1623"
       inkscape:locked="true" />
    <sodipodi:guide
       position="96.000002,96.000002"
       orientation="0,-96"
       id="guide1625"
       inkscape:locked="true" />
    <sodipodi:guide
       position="0,96.000002"
       orientation="96,0"
       id="guide1627"
       inkscape:locked="true" />
  </sodipodi:namedview>
  <metadata
     id="metadata1069">
    <rdf:RDF>
      <cc:Work
         rdf:about="">
        <dc:format>image/svg+xml</dc:format>
        <dc:type
           rdf:resource="http://purl.org/dc/dcmitype/StillImage" />
        <dc:title />
        <dc:date>2017</dc:date>
        <dc:creator>
          <cc:Agent>
            <dc:title>Cristian Pozzessere &quot;ilnanny&quot;</dc:title>
          </cc:Agent>
        </dc:creator>
        <dc:subject>
          <rdf:Bag>
            <rdf:li>Global language</rdf:li>
          </rdf:Bag>
        </dc:subject>
        <dc:description>Playing with Inkscape on Gnu/Linux O. S.</dc:description>
        <dc:contributor>
          <cc:Agent>
            <dc:title>In the night, alone like a dog.</dc:title>
          </cc:Agent>
        </dc:contributor>
        <cc:license
           rdf:resource="http://creativecommons.org/licenses/by-sa/4.0/" />
      </cc:Work>
      <cc:License
         rdf:about="http://creativecommons.org/licenses/by-sa/4.0/">
        <cc:permits
           rdf:resource="http://creativecommons.org/ns#Reproduction" />
        <cc:permits
           rdf:resource="http://creativecommons.org/ns#Distribution" />
        <cc:requires
           rdf:resource="http://creativecommons.org/ns#Notice" />
        <cc:requires
           rdf:resource="http://creativecommons.org/ns#Attribution" />
        <cc:permits
           rdf:resource="http://creativecommons.org/ns#DerivativeWorks" />
        <cc:requires
           rdf:resource="http://creativecommons.org/ns#ShareAlike" />
      </cc:License>
    </rdf:RDF>
  </metadata>
  <g
     inkscape:label="Livello 1"
     inkscape:groupmode="layer"
     id="layer1"
     transform="translate(0,-1026.5197)">
    <g
       transform="translate(-0.14895645,1026.1047)"
       style="display:inline"
       id="g2574">
      <path
         inkscape:connector-curvature="0"
         id="path3288"
         d="M 89.29181,0.415026 H 7.0060911 c -3.798848,0 -6.8571352,3.058285 -6.8571352,6.8571399 V 89.557884 c 0,3.798857 3.0582872,6.857142 6.8571352,6.857142 H 89.29181 c 3.798857,0 6.857147,-3.058285 6.857147,-6.857142 V 7.2721659 c 0,-3.7988549 -3.05829,-6.8571399 -6.857147,-6.8571399 z"
         style="display:inline;opacity:0.15;fill:#000000;fill-opacity:1;fill-rule:nonzero;stroke:none" />
      <path
         style="display:inline;opacity:0.15;fill:#000000;fill-opacity:1;fill-rule:nonzero;stroke:none"
         d="M 88.648954,1.165026 H 7.6489471 c -3.739492,0 -6.749993,3.010499 -6.749993,6.7499969 V 88.915026 c 0,3.739501 3.010501,6.75 6.749993,6.75 H 88.648954 c 3.739503,0 6.750003,-3.010499 6.750003,-6.75 V 7.9150229 c 0,-3.7394979 -3.0105,-6.7499969 -6.750003,-6.7499969 z"
         id="path4085"
         inkscape:connector-curvature="0" />
      <path
         inkscape:connector-curvature="0"
         id="rect4251-1"
         d="M 88.006093,1.915026 H 8.2918111 c -3.680143,0 -6.6428566,2.962713 -6.6428566,6.6428549 V 88.272171 c 0,3.680142 2.9627136,6.642856 6.6428566,6.642856 H 88.006093 c 3.680143,0 6.642854,-2.962714 6.642854,-6.642856 V 8.5578809 c 0,-3.6801419 -2.962711,-6.6428549 -6.642854,-6.6428549 z"
         style="display:inline;fill:url(#linearGradient4071);fill-opacity:1;fill-rule:nonzero;stroke:none" />
      <path
         sodipodi:nodetypes="sscccsccscccsss"
         inkscape:connector-curvature="0"
         id="path3400-6"
         d="m 11.390247,6.8021682 c -2.8564964,0 -5.1241284,2.2883782 -5.1241284,5.1710028 v 21.42734 7.239403 39.913674 c 1.0972399,1.684484 2.9688485,2.811732 5.1241284,2.811732 h 4.099303 65.588849 4.099302 c 2.155281,0 4.026889,-1.127248 5.124129,-2.811732 V 40.639914 33.400511 11.973171 c 0,-2.8826246 -2.267632,-5.1710028 -5.124129,-5.1710028 z"
         style="display:inline;opacity:0.77864583;fill:#f3f4f5;fill-opacity:1;fill-rule:nonzero;stroke:none;stroke-width:1.02950251" />
      <path
         style="color:#000000;font-style:normal;font-variant:normal;font-weight:normal;font-stretch:normal;font-size:medium;line-height:normal;font-family:Sans;-inkscape-font-specification:Sans;text-indent:0;text-align:start;text-decoration:none;text-decoration-line:none;letter-spacing:normal;word-spacing:normal;text-transform:none;writing-mode:lr-tb;direction:ltr;baseline-shift:baseline;text-anchor:start;display:inline;overflow:visible;visibility:visible;fill:#1f2224;fill-opacity:0.63265306;stroke:none;stroke-width:2.3755002;marker:none;enable-background:accumulate"
         d="m 9.9740341,5.1444869 c -3.116621,0 -5.667965,2.53951 -5.667965,5.6460041 v 69.277996 c 0,3.106495 2.551344,5.646004 5.667965,5.646004 H 86.765819 c 3.116621,0 5.667968,-2.539509 5.667968,-5.646004 V 10.790491 c 0,-3.1064931 -2.551347,-5.6460041 -5.667968,-5.6460041 z m 0,2.319439 H 86.765819 c 1.888099,0 3.352022,1.480095 3.352022,3.3265651 v 69.277996 c 0,1.846474 -1.463923,3.326564 -3.352022,3.326564 H 9.9740341 c -1.888099,0 -3.352022,-1.48009 -3.352022,-3.326564 V 10.790491 c 0,-1.8464701 1.463923,-3.3265651 3.352022,-3.3265651 z"
         id="path4989"
         inkscape:connector-curvature="0" />
      <path
         id="path4118"
         d="m 1.6489535,82.258776 v 6 c 0,3.680142 2.9761066,6.65625 6.6562496,6.65625 H 87.992703 c 3.680143,0 6.656254,-2.976108 6.656254,-6.65625 v -6 c 0,3.680142 -2.976111,6.65625 -6.656254,6.65625 H 8.3052031 c -3.680143,0 -6.6562496,-2.976108 -6.6562496,-6.65625 z"
         style="display:inline;opacity:0.65818182;fill:url(#linearGradient4129);fill-opacity:1;fill-rule:nonzero;stroke:none"
         inkscape:connector-curvature="0" />
      <rect
         ry="4.25"
         rx="0"
         y="80.665031"
         x="5.5239539"
         height="4.25"
         width="84.250008"
         id="rect4131"
         style="opacity:0.55;fill:url(#radialGradient7462);fill-opacity:1;stroke:none" />
      <rect
         transform="rotate(90)"
         style="opacity:0.669;fill:url(#radialGradient7464);fill-opacity:1;stroke:none"
         id="rect4141"
         width="76.75"
         height="4.25"
         x="5.9750223"
         y="-90.233963"
         rx="0"
         ry="4.25" />
      <g
         transform="matrix(1.2975269,0,0,1.2736941,-56.48816,-17.753328)"
         id="g1712">
        <g
           transform="translate(-40.056929,3.6642532)"
           id="flowRoot3036"
           style="font-style:normal;font-variant:normal;font-weight:normal;font-stretch:normal;font-size:3px;line-height:133.00000429%;font-family:'Liberation Sans';-inkscape-font-specification:'Liberation Sans';text-align:start;writing-mode:lr-tb;text-anchor:start;fill:#535d6c;fill-opacity:1;stroke:none">
          <path
             id="path4405"
             style="fill:#2d323a;stroke-width:1.727983;fill-opacity:1"
             d="m 138.69887,71.820214 c -0.92947,-1.576014 1.31967,-0.648574 0,0 z m -0.47505,-1.052497 c -1.78592,2.43889 -0.75488,-4.034803 -0.83012,-1.837045 -0.84753,0.76904 1.30839,0.879567 0.8302,1.837093 m -3.05061,1.122848 c -1.8257,-2.550921 2.37695,-4.515503 1.15459,-0.6244 -0.1878,0.438895 -0.6748,0.735095 -1.15469,0.624549 m 0.0747,-0.475205 c 2.4207,-1.461327 -1.50434,-1.97302 -1e-5,9.6e-5 m -0.85363,0.3764 c -2.17198,-0.405341 0.14895,-5.388791 -0.42344,-1.687216 -0.004,0.584695 0.11632,1.182881 0.42343,1.687099 m -1.14307,-1.024219 c -1.78592,2.438876 -0.75484,-4.034803 -0.83011,-1.837042 -0.84751,0.76904 1.30842,0.879561 0.8302,1.83709 m -3.30179,-0.718139 c 1.8489,1.757627 -1.31956,1.601456 -0.55432,-0.397983 0.71736,-2.230888 3.29599,0.143103 1.07299,0.39102 -0.17286,0.0023 -0.34587,0.0047 -0.51867,0.007 z m 1.06663,-0.485766 c 0.5135,-2.041795 -1.90248,0.245946 0,0 z m -2.64654,3.752376 c -0.30422,-1.117072 0.64559,-2.289517 -0.97954,-2.611598 -0.67442,-2.106525 3.10695,-3.0622 1.82665,-0.24469 0.0159,0.986101 0.12681,2.25163 -0.84681,2.85629 m 0.49873,-3.400371 c -0.5627,-3.284737 -1.52098,2.971491 -0.0764,0.403203 z m -3.06907,0.133752 c 1.84889,1.75764 -1.31961,1.601448 -0.55434,-0.397991 0.71737,-2.230883 3.29602,0.143102 1.07302,0.391027 -0.17287,0.0023 -0.34588,0.0047 -0.51868,0.007 z m 1.06662,-0.485771 c 0.51359,-2.041783 -1.90247,0.245912 0,0 z m -4.31381,2.256359 c 1.33252,-1.262582 -1.57425,-3.751707 -0.81235,-1.032375 -2.44354,-2.49519 3.6277,-4.271599 2.21707,-0.40442 -0.32946,0.04074 -0.88274,-2.878879 -1.06681,-0.353173 -0.0756,0.590666 0.0316,1.276699 -0.33791,1.789968 z m -2.90135,-3.808698 c -1.31496,1.892627 1.72022,3.19937 1.16781,1.181717 1.2177,2.325915 -2.08722,3.557197 -1.62672,0.389525 -0.0393,-0.552996 0.0646,-1.154161 0.45881,-1.571292 m -1.15025,3.808748 c -0.1995,-1.020741 0.12284,-5.511028 0.38258,-2.314843 0.0564,0.782399 0.0296,1.619754 -0.38258,2.314843 z m -1.75464,-3.808698 c -1.31498,1.89261 1.72022,3.199377 1.16777,1.181722 1.21767,2.325918 -2.08715,3.557162 -1.62668,0.38952 -0.0393,-0.552995 0.0646,-1.154161 0.4588,-1.571292 m -0.72979,1.886798 c -0.75551,3.972409 -3.17815,-2.738121 -1.40753,-2.027713 0.87533,0.60659 2.08505,0.361493 1.4077,2.027696 m -0.34402,0.02115 c -0.78359,-3.255486 -1.21474,3.466836 -0.0576,0.265982 l 0.0338,-0.156273 7e-5,-3.21e-4 z m -2.15337,-2.717486 c -0.74569,-1.263599 1.0614,-0.376651 0,0 z m 0,4.61831 c -0.57616,-0.941374 0.52038,-4.100675 0.29679,-1.393999 0.0615,0.424577 0.37765,1.298817 -0.29679,1.393999 z m -0.27485,-0.02816 c -2.17198,-0.405346 0.14897,-5.388786 -0.42344,-1.687215 -0.004,0.584692 0.11626,1.182908 0.42344,1.687097 m -1.14306,-1.024222 c -1.78592,2.438883 -0.75487,-4.034801 -0.83012,-1.837041 -0.84752,0.769041 1.3084,0.879561 0.8302,1.837089 m -3.3018,-0.718138 c 1.84891,1.757632 -1.31958,1.601456 -0.55433,-0.397988 0.71737,-2.230883 3.29601,0.143102 1.07301,0.391024 -0.17287,0.0023 -0.34588,0.0047 -0.51868,0.007 z m 1.06662,-0.485772 c 0.51359,-2.04178 -1.90247,0.245908 0,0 z m -2.31708,2.25636 c -1.46241,-0.482335 -0.61815,-4.411947 -0.31031,-1.467435 0.83577,-0.78667 0.92357,-2.484229 0.68739,-0.20994 -0.1072,0.563223 -0.25291,1.117897 -0.37708,1.677375 z m -2.73025,-4.618308 c -0.74569,-1.263599 1.0614,-0.376651 0,0 z m 0,4.61831 c -0.57617,-0.941372 0.52039,-4.100675 0.29678,-1.393999 0.0615,0.424577 0.37766,1.298813 -0.29678,1.393999 z m -1.61267,-1.92195 c 1.38494,1.195448 0.0332,2.759153 -0.56777,0.739187 0.0273,-1.375197 1.87465,-3.103868 0.55199,-0.905879 l 0.0151,0.159182 z m -1.48708,1.92195 c -0.91583,-1.081247 1.01952,-4.564154 0.35992,-1.478623 -0.0833,0.500364 -0.16972,1.005564 -0.35991,1.478772 m -0.41685,-1.908019 c -0.40095,4.278084 -3.632494,-2.762391 -0.54531,-1.575998 0.32175,0.468054 0.42411,1.034473 0.54531,1.575998 z m -0.34399,1.2e-5 c -0.46975,-3.478144 -1.935308,3.247445 -0.0994,0.551581 z m -3.969815,-0.01418 c 1.384941,1.195452 0.03315,2.75915 -0.567771,0.739183 0.02734,-1.375196 1.874657,-3.103864 0.551987,-0.905877 l 0.01507,0.159182 z m -2.073179,0.151368 c 1.848904,1.757634 -1.319583,1.601454 -0.554331,-0.397987 0.717373,-2.230891 3.296018,0.14311 1.073008,0.391023 -0.172865,0.0023 -0.345874,0.0047 -0.518677,0.007 z m 1.066622,-0.485771 c 0.513542,-2.041779 -1.902466,0.245915 0,0 z m -2.142339,2.25636 c 1.314718,-1.891617 -1.719914,-3.197427 -1.167904,-1.181753 -1.217789,-2.325914 2.086888,-3.556129 1.62667,-0.389198 0.03931,0.552892 -0.06462,1.153962 -0.458791,1.570963 M 149.8532,60.310125 c 1.38493,1.195453 0.0332,2.759152 -0.56777,0.73919 0.0273,-1.375192 1.87466,-3.103868 0.55199,-0.905878 l 0.0151,0.159182 z m -1.07391,1.92195 c 1.31471,-1.891621 -1.7199,-3.197412 -1.16789,-1.181757 -1.21781,-2.325921 2.08692,-3.556138 1.62666,-0.389197 0.0393,0.552892 -0.0646,1.153949 -0.45878,1.570966 m -3.00508,-3.80871 c -1.31494,1.892622 1.72018,3.199365 1.16779,1.181718 1.21772,2.325918 -2.0872,3.557203 -1.62672,0.389523 -0.0393,-0.552998 0.0646,-1.15417 0.45883,-1.571291 m -1.14479,3.808748 c 1.3147,-1.891621 -1.71991,-3.197418 -1.1679,-1.181753 -1.21781,-2.32591 2.0869,-3.556136 1.62666,-0.389201 0.0393,0.552893 -0.0646,1.153949 -0.45879,1.570966 m -3.89897,-1.921962 c 1.38493,1.195454 0.0331,2.759159 -0.5678,0.739189 0.0273,-1.375187 1.87466,-3.103866 0.55202,-0.905877 l 0.0151,0.159182 z m -2.07319,0.151366 c 1.8489,1.757636 -1.31958,1.601453 -0.55433,-0.397987 0.71737,-2.230884 3.29601,0.143103 1.07301,0.391025 -0.17286,0.0023 -0.34588,0.0047 -0.51868,0.007 z m 1.06662,-0.485771 c 0.51359,-2.041781 -1.90247,0.245909 0,0 z m -2.14233,2.25636 c 1.3147,-1.891627 -1.71992,-3.197416 -1.16791,-1.181755 -1.21782,-2.325913 2.0869,-3.556138 1.62666,-0.389199 0.0393,0.552893 -0.0646,1.153949 -0.45879,1.570966 m -4.24643,-1.2e-5 c 1.33253,-1.262588 -1.57427,-3.751712 -0.81236,-1.032375 -2.44353,-2.495198 3.62771,-4.271603 2.21706,-0.404419 -0.32941,0.04092 -0.88324,-2.879101 -1.06664,-0.353219 -0.0756,0.590628 0.0318,1.277048 -0.33836,1.789962 m -2.71931,0.07048 c -1.82569,-2.550924 2.37694,-4.515504 1.15459,-0.624405 -0.18781,0.438895 -0.6748,0.735097 -1.15469,0.624554 m 0.0747,-0.475208 c 2.42069,-1.461329 -1.50434,-1.97302 -1e-5,9.4e-5 m -1.55257,0.404563 c 0.0414,-1.112545 -1.61865,-4.283406 -1.3979,-1.380375 -1.41573,-0.872228 0.7307,-4.740692 0.84952,-1.214546 1.05372,2.486246 0.52929,-4.093596 0.96379,-0.762822 0.14745,1.115964 0.24417,2.373266 -0.41549,3.357743 m -3.69669,0 c -0.92947,-1.576014 1.31967,-0.648574 0,0 z m -1.41791,1.496071 c -0.30422,-1.117076 0.6456,-2.289515 -0.97953,-2.611598 -0.67441,-2.106532 3.10691,-3.062187 1.82666,-0.244679 0.0159,0.986113 0.12677,2.251632 -0.84683,2.856303 m 0.49872,-3.400371 c -0.56269,-3.284733 -1.52099,2.971503 -0.0764,0.403208 z m -2.06979,1.904324 c 1.3147,-1.891625 -1.71992,-3.197418 -1.16791,-1.181756 -1.21779,-2.325925 2.0869,-3.556128 1.62669,-0.389196 0.0393,0.552894 -0.0646,1.153967 -0.4588,1.570964 m -2.08226,-4.618322 c -0.74569,-1.263598 1.0614,-0.376649 0,0 z m 0,4.61831 c -0.57617,-0.941375 0.5204,-4.100677 0.29679,-1.393999 0.0615,0.424578 0.37765,1.298814 -0.29679,1.393999 z m -1.61267,-1.92195 c 1.38493,1.195455 0.0332,2.75915 -0.56777,0.739186 0.0273,-1.375194 1.87465,-3.103863 0.55199,-0.905879 l 0.0151,0.159182 z m -0.63525,0.869452 c -1.78591,2.438879 -0.75484,-4.034806 -0.8301,-1.837045 -0.84752,0.769039 1.3084,0.879562 0.83019,1.837093 m -2.30979,-3.56586 c -0.74569,-1.263589 1.06139,-0.376653 0,0 z m 0,4.61831 c -0.57618,-0.94137 0.52039,-4.100678 0.29678,-1.394001 0.0615,0.424578 0.37766,1.298812 -0.29678,1.394001 z m -0.40772,-1.92195 c -0.14763,1.552341 -2.32463,3.952937 -1.89886,0.853577 -0.396,-1.705229 1.90326,-4.144481 1.89904,-0.853637 m -0.34401,0.01418 c -0.82453,-3.257865 -1.17495,3.527176 -0.0576,0.267081 l 0.0337,-0.156295 7e-5,-3.33e-4 z m -2.1533,-2.710477 c -0.74569,-1.263598 1.0614,-0.376649 0,0 z m 0,4.61831 c -0.57617,-0.941375 0.5204,-4.100676 0.29679,-1.393999 0.0615,0.424577 0.37765,1.298818 -0.29679,1.393999 z m -0.82999,-0.61249 c -3.39106,0.385142 0.94761,-6.02693 0.38116,-1.803422 -0.0172,0.210688 0.0545,3.435382 -0.38151,1.803403 M 111.083,60.32427 c 0.78148,3.255804 1.21481,-3.463399 0.0575,-0.265649 l -0.0338,0.156273 -7e-5,3.23e-4 z m -1.82164,1.978291 c -1.82569,-2.550873 2.37687,-4.515546 1.15464,-0.624439 -0.18778,0.438896 -0.67475,0.735117 -1.15464,0.624588 m 0.0747,-0.475207 c 2.42072,-1.461306 -1.50432,-1.973046 -1e-5,9.3e-5 m -3.43465,-1.366025 c 1.84891,1.75763 -1.31957,1.601454 -0.55432,-0.397987 0.71738,-2.230901 3.29601,0.143135 1.073,0.391014 -0.17287,0.0023 -0.34585,0.0047 -0.51868,0.007 z m 1.06663,-0.485771 c 0.51359,-2.041781 -1.90247,0.245909 0,0 z m -1.59446,2.228199 c -2.17201,-0.405317 0.14896,-5.388797 -0.42346,-1.687215 -0.004,0.584693 0.11627,1.182908 0.42345,1.687097 m -2.32981,0.09869 c -1.82573,-2.550859 2.37689,-4.515561 1.15464,-0.624439 -0.18778,0.438897 -0.67475,0.735118 -1.15464,0.624588 m 0.0747,-0.475207 c 2.42072,-1.461299 -1.50431,-1.973049 0,9.3e-5 m -0.85363,0.376403 c -2.17197,-0.405351 0.14895,-5.38878 -0.42342,-1.687217 -0.004,0.584693 0.11631,1.182881 0.42342,1.687099 m -2.511917,-3.780419 c -1.314964,1.892618 1.720217,3.199369 1.167777,1.181726 1.21769,2.325926 -2.087183,3.557167 -1.626691,0.389515 -0.03927,-0.552996 0.06464,-1.154156 0.458815,-1.571292 m -0.729786,1.886799 c -0.147637,1.552315 -2.324609,3.952944 -1.898816,0.853591 -0.395993,-1.705205 1.903209,-4.144519 1.899002,-0.853651 m -0.344018,0.01418 c -0.824605,-3.257851 -1.174832,3.527199 -0.05751,0.267074 l 0.03366,-0.15631 7e-5,-3.23e-4 z m -2.151623,1.907832 c -0.199443,-1.020736 0.122808,-5.511024 0.382559,-2.314842 0.05639,0.782395 0.02968,1.619761 -0.382559,2.314842 z m -1.754646,-3.808698 c -1.314956,1.892616 1.720205,3.199371 1.167779,1.181719 1.217707,2.325914 -2.087191,3.557185 -1.626693,0.389522 -0.03927,-0.552997 0.06464,-1.154156 0.458815,-1.571292 m -1.319535,3.808749 c -1.462409,-0.48233 -0.618151,-4.411948 -0.310313,-1.467438 0.835777,-0.786681 0.923559,-2.484219 0.687399,-0.209934 -0.107179,0.563227 -0.252861,1.117907 -0.377086,1.677372 z m 53.128997,-9.517666 c -1.8257,-2.550921 2.37695,-4.515507 1.15459,-0.624402 -0.1878,0.438895 -0.6748,0.735095 -1.15469,0.624548 m 0.0747,-0.475207 c 2.42071,-1.461309 -1.50431,-1.973038 0,9.6e-5 m -1.40698,0.404563 c -0.19941,-1.020741 0.12278,-5.511022 0.38259,-2.31484 0.0564,0.782398 0.0296,1.619756 -0.38259,2.31484 z m -1.75464,-3.808698 c -1.31495,1.89261 1.7202,3.199403 1.16781,1.181745 1.2177,2.325916 -2.08721,3.557198 -1.62672,0.389526 -0.0393,-0.552997 0.0646,-1.154164 0.45881,-1.571292 m -1.64899,5.304743 c -0.3042,-1.117081 0.6456,-2.28951 -0.97952,-2.611599 -0.67442,-2.106533 3.10695,-3.06218 1.82664,-0.244676 0.0159,0.986106 0.1268,2.251631 -0.84681,2.856304 m 0.49872,-3.400372 c -0.56278,-3.284724 -1.52088,2.971527 -0.0763,0.403201 z m -2.07707,-2.714006 c -0.74569,-1.2636 1.0614,-0.376642 0,0 z m 0,4.61831 c -0.57617,-0.941376 0.5204,-4.100675 0.29679,-1.393997 0.0615,0.424576 0.37765,1.298817 -0.29679,1.393997 z m -0.82818,0 c -0.19941,-1.020742 0.12278,-5.511024 0.38259,-2.31484 0.0564,0.782398 0.0296,1.619756 -0.38259,2.31484 z m -2.85766,-1.770585 c 1.84891,1.757632 -1.31959,1.601454 -0.55433,-0.397988 0.71737,-2.230882 3.29602,0.143102 1.07301,0.391024 -0.17287,0.0023 -0.34588,0.0047 -0.51868,0.007 z m 1.06661,-0.485769 c 0.51359,-2.04177 -1.90246,0.245893 0,0 z m -2.89044,2.326756 c -1.82569,-2.55094 2.37696,-4.5155 1.1546,-0.6244 -0.18781,0.438895 -0.67481,0.735094 -1.1547,0.624546 m 0.0747,-0.475207 c 2.42072,-1.461318 -1.50433,-1.973035 -1e-5,9.6e-5 m -0.85363,0.376402 c -2.172,-0.405332 0.14897,-5.388795 -0.42344,-1.687215 -0.004,0.584692 0.11626,1.182909 0.42344,1.687098 m -1.58902,-4.590032 c -0.74568,-1.263611 1.06141,-0.376634 0,0 z m 0,4.61831 c -0.57618,-0.941378 0.52041,-4.100677 0.2968,-1.393998 0.0615,0.424578 0.37764,1.298821 -0.2968,1.393998 z m -0.99744,0 c -1.46241,-0.482325 -0.61817,-4.41196 -0.31034,-1.467423 0.83577,-0.786618 0.92359,-2.484238 0.6874,-0.209941 -0.10719,0.563219 -0.2529,1.117889 -0.37706,1.677364 z m -2.73027,-4.61831 c -0.74568,-1.263611 1.06141,-0.376634 0,0 z m 0,4.61831 c -0.57616,-0.941375 0.52039,-4.100674 0.29679,-1.393998 0.0615,0.424577 0.37765,1.298818 -0.29679,1.393998 z m -0.38403,-1.052495 c -1.78591,2.438879 -0.75488,-4.034799 -0.83011,-1.837045 -0.84752,0.769036 1.30843,0.879539 0.8302,1.837069 m -2.3098,-3.565839 c -0.74569,-1.2636 1.0614,-0.376642 0,0 z m 0,4.61831 c -0.57617,-0.941376 0.5204,-4.100675 0.29679,-1.393997 0.0615,0.424576 0.37765,1.298817 -0.29679,1.393997 z m -0.82272,0 c 1.31471,-1.891614 -1.71991,-3.197427 -1.1679,-1.181753 -1.21781,-2.325896 2.08689,-3.556141 1.62664,-0.389207 0.0393,0.552891 -0.0646,1.153942 -0.45876,1.57097 m -4.24644,-10e-6 c 1.33252,-1.26258 -1.57425,-3.751707 -0.81235,-1.032376 -2.44353,-2.495209 3.62772,-4.271599 2.21707,-0.404417 -0.32941,0.04089 -0.88324,-2.879074 -1.06663,-0.353196 -0.0756,0.590628 0.0319,1.277045 -0.33836,1.78996 m -2.9014,-3.808638 c -1.31496,1.892613 1.72021,3.199409 1.16782,1.181744 1.21771,2.325906 -2.08722,3.557206 -1.62671,0.389531 -0.0393,-0.552996 0.0647,-1.154147 0.4588,-1.571296 m -1.15208,3.19623 c -3.39105,0.385139 0.94761,-6.026925 0.38116,-1.803427 -0.0172,0.210691 0.0545,3.435364 -0.38151,1.803383 m -0.99347,-1.295335 c 0.78149,3.255802 1.2148,-3.4634 0.0575,-0.26565 l -0.0338,0.156273 -7e-5,3.23e-4 z m -1.0739,1.907868 c 1.31471,-1.891611 -1.71991,-3.19743 -1.1679,-1.181753 -1.2178,-2.325897 2.08689,-3.556138 1.62664,-0.389206 0.0393,0.552891 -0.0646,1.153941 -0.45876,1.570969 m -3.07425,-1.770626 c 1.84891,1.757632 -1.31959,1.601454 -0.55433,-0.397988 0.71737,-2.230882 3.29602,0.143102 1.07301,0.391024 -0.17287,0.0023 -0.34588,0.0047 -0.51868,0.007 z m 1.06662,-0.485774 c 0.51359,-2.041781 -1.90247,0.245909 0,0 z m -1.72734,0.334409 c -0.75548,3.972398 -3.17813,-2.73807 -1.40754,-2.027687 0.87534,0.606582 2.08502,0.361499 1.40768,2.027695 m -0.344,0.02115 c -0.78358,-3.255475 -1.21472,3.466836 -0.0576,0.265982 l 0.0338,-0.156273 7e-5,-3.21e-4 z m -2.15337,-2.717514 c -0.74569,-1.263589 1.06139,-0.376653 0,0 z m 0,4.61831 c -0.57618,-0.941371 0.52039,-4.100677 0.29678,-1.394 0.0615,0.424577 0.37766,1.298811 -0.29678,1.394 z m -0.40772,-1.92195 c -0.75549,3.97241 -3.17814,-2.738074 -1.40754,-2.027686 0.87526,0.606549 2.08521,0.361566 1.40759,2.027694 m -0.344,0.02115 c -0.78363,-3.255485 -1.21471,3.466826 -0.0576,0.265982 l 0.0338,-0.156273 7e-5,-3.21e-4 z m -2.63209,1.872635 c -2.17198,-0.405346 0.14897,-5.388786 -0.42344,-1.687216 -0.004,0.584692 0.11626,1.182909 0.42344,1.687099 m -2.37168,0.09869 c -2.17573,0.05289 -0.72682,-5.558483 -0.77545,-2.117001 1.46131,3.265374 1.84763,-4.443796 1.91539,-0.436343 -0.0421,0.915554 -0.001,2.28437 -1.13994,2.553344 z m -3.057881,-0.07041 c -0.929475,-1.575994 1.319641,-0.648599 0,0 z m -0.49873,-1.907873 c -0.400962,4.278073 -3.632494,-2.762382 -0.545311,-1.576003 0.321758,0.468052 0.424126,1.034473 0.545311,1.576003 z m -0.344006,1.2e-5 c -0.469739,-3.478151 -1.935312,3.247474 -0.09936,0.551584 z m -2.153275,-2.710454 c -0.745679,-1.263603 1.061399,-0.376639 0,0 z m 0,4.61831 c -0.576172,-0.941374 0.520389,-4.100676 0.296794,-1.393999 0.06149,0.424579 0.377648,1.298817 -0.296794,1.393999 z m -0.83,-0.612489 c -3.391006,0.385079 0.947524,-6.02693 0.381289,-1.803427 -0.01711,0.210738 0.05444,3.435294 -0.38164,1.803383 m -0.99346,-1.295335 c 0.781497,3.255799 1.214791,-3.463403 0.0575,-0.265649 l -0.03382,0.156276 -7e-5,3.21e-4 z m -0.658898,0 c -0.400957,4.278075 -3.632496,-2.762381 -0.545311,-1.576003 0.321758,0.468051 0.424127,1.034473 0.545311,1.576003 z m -0.344005,1.2e-5 c -0.469734,-3.478147 -1.935316,3.247455 -0.09936,0.551582 z m 47.684846,-7.609809 c -1.82572,-2.550918 2.37696,-4.515519 1.15459,-0.624405 -0.18781,0.438895 -0.6748,0.735098 -1.15469,0.624551 m 0.0747,-0.475207 c 2.42072,-1.461313 -1.50432,-1.973032 0,9.8e-5 m -1.40696,0.404561 c -0.19952,-1.020748 0.12278,-5.511032 0.38259,-2.31484 0.0564,0.782398 0.0296,1.619756 -0.38259,2.31484 z m -1.75465,-3.808698 c -1.31496,1.89261 1.7202,3.199404 1.16781,1.181738 1.21773,2.325898 -2.08723,3.557214 -1.6267,0.389535 -0.0393,-0.552997 0.0647,-1.154145 0.4588,-1.571297 m -1.64898,5.304746 c -0.3042,-1.117079 0.64559,-2.289515 -0.97953,-2.611595 -0.67443,-2.106522 3.10693,-3.062214 1.82664,-0.244697 0.0159,0.98611 0.12678,2.251627 -0.84681,2.856318 m 0.49872,-3.400371 c -0.56279,-3.284722 -1.52088,2.971545 -0.0763,0.403203 z m -2.07708,-2.713989 c -0.74569,-1.263609 1.06141,-0.376637 0,0 z m 0,4.61831 c -0.57619,-0.941377 0.5204,-4.100679 0.2968,-1.393998 0.0615,0.424578 0.37764,1.29882 -0.2968,1.393998 z m -0.82817,0 c -0.1995,-1.02074 0.12284,-5.511025 0.38258,-2.314842 0.0564,0.782399 0.0296,1.619753 -0.38258,2.314842 z m -1.41973,-1.052495 c -1.78594,2.438866 -0.75483,-4.034775 -0.83014,-1.837071 -0.84761,0.76899 1.30828,0.879619 0.83012,1.837117 m -2.3098,-3.565861 c -0.74569,-1.263589 1.06139,-0.376653 0,0 z m 0,4.61831 c -0.57621,-0.941376 0.5204,-4.100681 0.29679,-1.393997 0.0615,0.424576 0.37765,1.298817 -0.29679,1.393997 z m -1.75283,-3.808698 c -1.31497,1.892611 1.7202,3.199403 1.16781,1.181744 1.21771,2.325914 -2.08724,3.557203 -1.62672,0.389528 -0.0393,-0.552997 0.0647,-1.154147 0.45881,-1.571296 m -1.76547,3.879124 c -2.92763,-0.883522 1.75621,-5.542896 1.03554,-1.499868 0.0436,0.615737 0.0546,2.915545 -1.03529,1.499853 m 0.61339,-2.02051 c -0.82408,-3.117696 -0.95086,3.416186 -0.008,0.04758 z m -3.89165,0.02816 c 1.38492,1.195455 0.0332,2.759149 -0.56777,0.739187 0.0273,-1.375192 1.87463,-3.103876 0.55198,-0.905882 l 0.0151,0.159181 z m -1.07392,1.921948 c 1.31472,-1.891612 -1.71991,-3.197431 -1.1679,-1.181754 -1.21781,-2.325905 2.0869,-3.556134 1.62665,-0.3892 0.0393,0.552892 -0.0646,1.153948 -0.45878,1.570966 m -3.00507,-3.80871 c -1.31497,1.892598 1.72021,3.199405 1.16777,1.181748 1.21769,2.325922 -2.08717,3.55717 -1.62668,0.389521 -0.0393,-0.552999 0.0647,-1.154155 0.45883,-1.571293 m -1.29587,3.808722 c 0.0414,-1.112537 -1.61864,-4.283403 -1.39789,-1.380375 -1.41579,-0.872229 0.73068,-4.740715 0.84951,-1.214544 1.05372,2.486242 0.52929,-4.093576 0.96379,-0.762813 0.14745,1.115961 0.24416,2.373255 -0.41549,3.357732 m -3.69668,0 c -0.92948,-1.576 1.31965,-0.648586 0,0 z m -2.05133,0 c 1.33252,-1.262585 -1.57426,-3.751711 -0.81236,-1.032377 -2.44354,-2.495195 3.62773,-4.271603 2.21707,-0.404414 -0.32942,0.0409 -0.88323,-2.879077 -1.06662,-0.353199 -0.0756,0.590629 0.0318,1.27704 -0.33835,1.789961 m -2.71935,0.07046 c -1.82568,-2.550873 2.37688,-4.51555 1.15464,-0.62444 -0.18778,0.438897 -0.67475,0.73512 -1.15464,0.624586 m 0.0747,-0.475207 c 2.42072,-1.46132 -1.50433,-1.973029 -1e-5,9.8e-5 m -1.40878,-4.213749 c -0.74568,-1.263611 1.06141,-0.376634 0,0 z m 0,4.61831 c -0.57618,-0.941375 0.5204,-4.100677 0.29679,-1.393998 0.0615,0.424576 0.37765,1.298819 -0.29679,1.393998 z m -0.82999,-0.612487 c -3.39104,0.385114 0.94762,-6.026923 0.38116,-1.803426 -0.0172,0.210688 0.0545,3.435381 -0.38151,1.803402 m -0.9938,-1.295381 c 0.78148,3.255798 1.21479,-3.463406 0.0575,-0.265651 l -0.0338,0.156273 -7e-5,3.23e-4 z m -1.55954,1.879734 c -2.172,-0.405334 0.14897,-5.388797 -0.42344,-1.687215 -0.004,0.584692 0.11626,1.182909 0.42344,1.687099 m -2.581,-1.742312 c 1.8489,1.757641 -1.31963,1.601452 -0.55435,-0.397992 0.71738,-2.23088 3.29604,0.1431 1.07303,0.391028 -0.17287,0.0023 -0.34588,0.0047 -0.51868,0.007 z m 1.06662,-0.485802 c 0.5135,-2.041799 -1.90248,0.245952 0,0 z m -3.27995,2.256357 c 1.33253,-1.262592 -1.574286,-3.751713 -0.81237,-1.032376 -2.443536,-2.495195 3.62772,-4.271597 2.21706,-0.404413 -0.32942,0.0409 -0.88325,-2.879079 -1.06664,-0.353199 -0.0756,0.590628 0.0318,1.277045 -0.33836,1.78996 m -2.719308,0.07046 c -1.82569,-2.550908 2.376928,-4.515524 1.154627,-0.62442 -0.187793,0.438896 -0.674777,0.735106 -1.154667,0.624566 m 0.07467,-0.475207 c 2.420728,-1.461315 -1.504322,-1.973034 -1.2e-5,9.8e-5 m -1.887489,0.376403 c -2.172072,-0.40522 0.14863,-5.388851 -0.423448,-1.687216 -0.0044,0.584742 0.116311,1.182911 0.423435,1.6871 M 94.450303,38.43773 c -0.745687,-1.263585 1.061381,-0.376666 0,0 z m 0,4.61831 c -0.57617,-0.941372 0.520389,-4.100675 0.296787,-1.393999 0.06149,0.424578 0.377652,1.298811 -0.296787,1.393999 z m -0.384038,-1.052495 c -1.785941,2.43887 -0.754814,-4.03477 -0.830134,-1.837066 -0.847592,0.769 1.308293,0.879611 0.830132,1.837112 M 147.2007,33.538347 c -1.8257,-2.550926 2.37695,-4.515506 1.15459,-0.624403 -0.18781,0.438895 -0.6748,0.735097 -1.15469,0.624552 m 0.0747,-0.475208 c 2.42072,-1.461306 -1.50432,-1.973043 0,9.4e-5 m -1.40697,0.404563 c -0.19941,-1.020741 0.12278,-5.511021 0.38259,-2.314841 0.0564,0.782399 0.0296,1.619756 -0.38259,2.314841 z m -1.75465,-3.808698 c -1.31497,1.892588 1.7202,3.199423 1.16778,1.181743 1.2177,2.325895 -2.08714,3.55721 -1.62668,0.38955 -0.0393,-0.552997 0.0646,-1.154163 0.45881,-1.571295 m -1.93475,1.88675 c 1.38495,1.195455 0.0331,2.759154 -0.56778,0.739182 0.0273,-1.375196 1.87468,-3.103853 0.552,-0.905876 l 0.0151,0.159182 z m -1.08118,-2.69636 c -0.74569,-1.2636 1.0614,-0.376642 0,0 z m 0,4.61831 c -0.57618,-0.941378 0.52039,-4.100677 0.2968,-1.393997 0.0615,0.424576 0.37765,1.298831 -0.2968,1.393997 z m -1.74737,-3.157488 c 1.83527,-1.594942 1.08014,4.170599 0.91746,0.731573 -1.06458,-0.493895 -1.37366,2.70795 -1.31526,-0.0071 -0.42536,-1.084569 0.64247,-2.904999 0.40567,-0.79899 l -0.008,0.0745 m -2.14968,1.386912 c 1.8489,1.757636 -1.31958,1.601453 -0.55433,-0.397985 0.71737,-2.230884 3.29601,0.143098 1.07301,0.391021 -0.17287,0.0023 -0.34588,0.0047 -0.51868,0.007 z m 1.06662,-0.485771 c 0.51359,-2.041777 -1.90247,0.245904 0,0 z m -2.31706,2.256359 c -1.46246,-0.482328 -0.6181,-4.41202 -0.31037,-1.467341 0.83571,-0.786283 0.9236,-2.484612 0.68746,-0.210124 -0.10716,0.563282 -0.25282,1.118019 -0.37724,1.67749 m -2.4831,-0.770902 c 0.87997,1.299193 -1.32009,1.439459 4e-5,1.2e-5 m -2.27344,-0.999708 c 1.8489,1.757636 -1.31958,1.601451 -0.55433,-0.397988 0.71737,-2.230883 3.29601,0.143102 1.07301,0.391024 -0.17287,0.0023 -0.34588,0.0047 -0.51868,0.007 z M 132.26,31.211596 c 0.51359,-2.041773 -1.90246,0.245896 0,0 z m -2.89041,2.326761 c -1.82571,-2.550915 2.37693,-4.515506 1.15458,-0.624403 -0.1878,0.438892 -0.67479,0.735095 -1.15468,0.624552 m 0.0747,-0.475208 c 2.42071,-1.461305 -1.50431,-1.973042 0,9.4e-5 m -0.85364,0.376402 c -2.17196,-0.405358 0.14895,-5.388776 -0.42342,-1.687216 -0.004,0.584693 0.11631,1.182881 0.42342,1.687099 m -1.58901,-4.590032 c -0.74569,-1.2636 1.0614,-0.376642 0,0 z m 0,4.61831 c -0.57619,-0.941382 0.52043,-4.100678 0.29681,-1.393996 0.0615,0.424577 0.37764,1.298833 -0.29681,1.393996 z m -0.99744,0 c -1.46246,-0.482335 -0.61809,-4.412019 -0.31036,-1.46734 0.83571,-0.786281 0.9236,-2.484614 0.68746,-0.210124 -0.10716,0.563282 -0.25281,1.11802 -0.37724,1.677489 m -2.17515,-0.02819 c -2.17196,-0.405352 0.14895,-5.388779 -0.42343,-1.687216 -0.004,0.584695 0.11632,1.182881 0.42343,1.687099 m -2.58101,-1.74231 c 1.8489,1.757634 -1.31957,1.601446 -0.55432,-0.397988 0.71738,-2.230894 3.29601,0.143121 1.073,0.391024 -0.17287,0.0023 -0.34588,0.0047 -0.51868,0.007 z m 1.06663,-0.485771 c 0.51359,-2.041772 -1.90246,0.245895 0,0 z m -2.14963,-2.361951 c -0.74568,-1.263623 1.06142,-0.376614 0,0 z m 0,4.61831 c -0.57618,-0.941379 0.52041,-4.100677 0.2968,-1.393997 0.0615,0.424576 0.37765,1.298831 -0.2968,1.393997 z m -0.82999,-0.612489 c -3.39105,0.385114 0.94762,-6.026925 0.38117,-1.803423 -0.0172,0.210688 0.0545,3.435383 -0.38151,1.803403 m -0.99381,-1.29538 c 0.78148,3.255801 1.21479,-3.463404 0.0575,-0.265651 l -0.0338,0.156273 -7e-5,3.23e-4 z m -1.48673,1.907889 c -0.91582,-1.081246 1.0195,-4.564151 0.35991,-1.478618 -0.0833,0.500364 -0.16972,1.005566 -0.35992,1.47877 m -1.83112,-1.77074 c 1.8489,1.757629 -1.31956,1.601455 -0.55432,-0.397984 0.71736,-2.230885 3.29599,0.143105 1.07299,0.391021 -0.17286,0.0023 -0.34587,0.0047 -0.51867,0.007 z m 1.06734,-0.485776 c 0.51359,-2.041781 -1.90247,0.245909 0,0 z m -1.72734,0.334409 c -0.14762,1.552325 -2.32461,3.952944 -1.89882,0.853589 -0.39599,-1.705219 1.90322,-4.144471 1.899,-0.853622 m -0.34401,0.01418 c -0.8246,-3.257845 -1.17483,3.527229 -0.0575,0.267075 l 0.0336,-0.156316 7e-5,-3.2e-4 z m -3.28377,1.907805 c 1.33255,-1.26259 -1.57428,-3.751718 -0.81237,-1.032375 -2.44351,-2.495203 3.62772,-4.271587 2.21706,-0.404412 -0.32941,0.04088 -0.88324,-2.879075 -1.06663,-0.353201 -0.0756,0.590629 0.0318,1.277047 -0.33836,1.789962 m -1.9785,-4.618253 c -0.74568,-1.263611 1.06141,-0.376634 0,0 z m 0,4.61831 c -0.57617,-0.941375 0.5204,-4.100675 0.29679,-1.393998 0.0615,0.424577 0.37765,1.298818 -0.29679,1.393998 z m -2.85585,-1.770588 c 1.84891,1.757632 -1.31958,1.601457 -0.55433,-0.397987 0.71737,-2.230883 3.29601,0.143101 1.07301,0.391023 -0.17287,0.0023 -0.34588,0.0047 -0.51868,0.007 z m 1.06662,-0.485771 c 0.51359,-2.041781 -1.90247,0.245909 0,0 z m -1.59446,2.228198 c -2.172,-0.40532 0.14894,-5.388795 -0.42345,-1.687214 -0.004,0.584695 0.11632,1.182884 0.42344,1.687097 m -2.32981,0.09869 c -1.82571,-2.55093 2.37697,-4.515503 1.1546,-0.624398 -0.18781,0.438895 -0.67481,0.735094 -1.1547,0.624547 m 0.0747,-0.475208 c 2.42071,-1.461305 -1.50431,-1.973042 0,9.4e-5 m -0.85364,0.376402 c -2.17197,-0.405346 0.14895,-5.388783 -0.42343,-1.687216 -0.004,0.584695 0.11632,1.182881 0.42343,1.687099 m -2.511826,-3.78042 c -1.314961,1.892607 1.720196,3.19941 1.167816,1.181746 1.21771,2.325904 -2.087225,3.55723 -1.62673,0.389547 -0.03927,-0.552998 0.06464,-1.154159 0.458814,-1.571295 m -0.729787,1.88675 c -0.147622,1.552328 -2.324617,3.952943 -1.898816,0.853588 -0.395995,-1.705223 1.903221,-4.144465 1.899003,-0.853621 m -0.344018,0.01418 c -0.824605,-3.257847 -1.174817,3.527196 -0.05751,0.267074 l 0.03366,-0.15631 7e-5,-3.23e-4 z m -2.151623,1.907805 c -0.199443,-1.020736 0.122809,-5.511023 0.38256,-2.314842 0.05639,0.782395 0.02968,1.619762 -0.38256,2.314842 z m -1.754646,-3.808698 c -1.314951,1.892591 1.72018,3.199415 1.167777,1.181742 1.217718,2.325891 -2.087169,3.557224 -1.626689,0.389551 -0.03927,-0.552998 0.06464,-1.154159 0.458813,-1.571295 m -1.319535,3.8087 c -1.462446,-0.482349 -0.618081,-4.412013 -0.31035,-1.467341 0.835702,-0.786281 0.923627,-2.484614 0.687456,-0.210129 -0.107161,0.563278 -0.252801,1.118017 -0.37718,1.677495 M 137.4843,23.879915 c 1.33253,-1.262593 -1.57426,-3.751684 -0.81234,-1.032354 -2.44354,-2.495185 3.6277,-4.271609 2.21705,-0.40442 -0.3294,0.04092 -0.88323,-2.879107 -1.06667,-0.353233 -0.0756,0.590635 0.0318,1.277034 -0.33833,1.789978 m -2.90133,-3.808638 c -1.31495,1.892629 1.7202,3.199364 1.1678,1.181722 1.21774,2.325914 -2.08725,3.55721 -1.62671,0.389525 -0.0393,-0.552997 0.0647,-1.154149 0.45882,-1.571293 m -0.59692,3.780583 c -2.17202,-0.405322 0.14897,-5.388806 -0.42344,-1.687215 -0.004,0.584692 0.11626,1.182908 0.42344,1.687097 m -2.37169,-1.893671 c 1.38495,1.19545 0.0332,2.759157 -0.56777,0.739188 0.0273,-1.375195 1.87465,-3.103865 0.55199,-0.905879 l 0.0151,0.159182 z m -1.08119,-2.69636 c -0.74568,-1.263611 1.06141,-0.376634 0,0 z m 0,4.61831 c -0.57618,-0.941377 0.52039,-4.100677 0.2968,-1.393998 0.0615,0.424578 0.37764,1.298821 -0.2968,1.393998 z m -0.82999,-0.61249 c -3.39105,0.38512 0.94762,-6.026927 0.38117,-1.803422 -0.0172,0.210688 0.0545,3.435383 -0.38151,1.803403 m -0.99381,-1.295378 c 0.78148,3.255795 1.21479,-3.463401 0.0575,-0.26565 l -0.0338,0.156273 -7e-5,3.23e-4 z m -1.86715,1.136995 c 0.87993,1.299286 -1.32008,1.439337 1e-5,-1.2e-5 m -2.41174,0.770904 c 1.33255,-1.262603 -1.5743,-3.751691 -0.81236,-1.032354 -2.44354,-2.495207 3.62773,-4.271602 2.21707,-0.404416 -0.3294,0.04091 -0.88325,-2.8791 -1.06664,-0.353221 -0.0756,0.590628 0.0318,1.277048 -0.33836,1.789962 m -2.71932,0.07046 c -1.82568,-2.550936 2.37694,-4.515497 1.15459,-0.624401 -0.1878,0.438895 -0.6748,0.735094 -1.15469,0.624547 m 0.0747,-0.475207 c 2.42072,-1.461308 -1.50432,-1.973044 -1e-5,9.4e-5 m -1.40879,-4.213745 c -0.74568,-1.263611 1.06141,-0.376634 0,0 z m 0,4.61831 c -0.57617,-0.941375 0.5204,-4.100675 0.29679,-1.393998 0.0615,0.424577 0.37765,1.298818 -0.29679,1.393998 z m -0.83,-0.612489 c -3.39105,0.385111 0.94762,-6.026924 0.38117,-1.803424 -0.0172,0.210685 0.0545,3.43539 -0.3815,1.803404 m -0.99382,-1.295378 c 0.78149,3.255802 1.21482,-3.463403 0.0575,-0.26565 l -0.0338,0.156273 -7e-5,3.23e-4 z m -2.85549,1.978289 c -1.82572,-2.550918 2.37695,-4.515509 1.15458,-0.624405 -0.1878,0.438892 -0.67479,0.735095 -1.15468,0.624551 m 0.0747,-0.475207 c 2.4207,-1.461308 -1.50431,-1.973039 -1e-5,9.4e-5 m -1.4015,0.404565 c 1.31472,-1.891631 -1.71993,-3.197396 -1.1679,-1.181728 -1.2178,-2.325902 2.08689,-3.556139 1.62664,-0.389203 0.0393,0.552892 -0.0646,1.153949 -0.45878,1.570965 m -2.48813,-3.4e-5 c -0.91583,-1.081247 1.01951,-4.564157 0.35992,-1.478622 -0.0833,0.500363 -0.16972,1.005565 -0.35992,1.478769 m -1.76196,-3.808845 c -1.31494,1.892626 1.7202,3.199368 1.1678,1.18172 1.21772,2.325909 -2.08723,3.557209 -1.6267,0.389528 -0.0393,-0.552996 0.0647,-1.154145 0.45881,-1.571293 m -1.73998,2.756248 c -1.78594,2.438865 -0.75484,-4.034771 -0.83015,-1.837088 -0.8476,0.769002 1.30829,0.879608 0.83014,1.837112 m -3.23168,-2.756312 c -1.31497,1.892607 1.72021,3.199378 1.16776,1.181725 1.21769,2.32592 -2.08717,3.557167 -1.62668,0.389521 -0.0393,-0.552999 0.0647,-1.154158 0.45883,-1.571292 m -1.15027,3.808744 c -0.19951,-1.020745 0.12285,-5.511031 0.38259,-2.314839 0.0564,0.782398 0.0296,1.619756 -0.38259,2.314839 z m -0.82999,0 c -0.1995,-1.02074 0.12284,-5.511026 0.38258,-2.314842 0.0564,0.782399 0.0296,1.619753 -0.38258,2.314842 z m -1.82381,-1.770586 c 1.8489,1.757636 -1.31961,1.601454 -0.55434,-0.397991 0.71737,-2.230883 3.29602,0.143102 1.07302,0.391027 -0.17287,0.0023 -0.34588,0.0047 -0.51868,0.007 z m 1.06661,-0.485773 c 0.51359,-2.04178 -1.90247,0.245907 0,0 z m -1.70367,1.203864 c -1.78591,2.438884 -0.754873,-4.034792 -0.830122,-1.837062 -0.847503,0.769049 1.308422,0.879552 0.830212,1.837086 m -3.050609,1.122872 c -1.825705,-2.550904 2.376939,-4.515525 1.15462,-0.624417 -0.187795,0.438895 -0.67478,0.735105 -1.15467,0.624564 m 0.07467,-0.475207 c 2.420739,-1.461296 -1.504307,-1.973051 0,9.3e-5 M 95.40434,20.722402 c 1.835304,-1.594864 1.08009,4.170604 0.917435,0.73157 -1.064604,-0.493829 -1.373629,2.707958 -1.315249,-0.0071 -0.425378,-1.084584 0.642491,-2.904968 0.405606,-0.798965 l -0.0078,0.07451 m -0.77724,-0.309805 c -0.382843,1.169022 -2.597358,3.790445 -2.2825,0.909414 -0.548476,-1.595441 2.374232,-3.377166 2.2825,-0.909414 z m -0.349474,0.007 c -1.0942,-3.204207 -1.172036,2.930963 0,0 z" />
        </g>
        <g
           transform="translate(32.003342,-1.0551446)"
           id="g1702">
          <path
             style="font-style:normal;font-variant:normal;font-weight:normal;font-stretch:normal;font-size:59.53488541px;line-height:125%;font-family:'Liberation Serif';-inkscape-font-specification:'Liberation Serif';text-align:start;writing-mode:lr-tb;text-anchor:start;opacity:0.05;fill:#501616;fill-opacity:1;stroke:none"
             id="path5218"
             inkscape:connector-curvature="0"
             d="m 49.4375,31 c -6.287377,-0.05836 -13.109664,1.630859 -17.343062,6.592527 -4.38289,5.155104 -5.174115,12.346465 -4.674216,18.856339 0.451605,6.349428 3.863471,12.648928 9.595922,15.68376 6.23747,3.410125 13.733146,3.361287 20.546356,2.054874 2.614261,-0.618929 5.325618,-1.147133 7.78125,-2.21875 1.266208,-0.963268 0.678627,-2.687501 0.8125,-4.045924 0,-2.859692 0,-5.719384 0,-8.579076 1.289739,-0.372175 3.114688,-0.170195 3.6875,-1.6875 0.18808,-0.974891 0.217188,-2.065 -0.03125,-3.03125 -0.53648,-1.431967 -2.195737,-1.281493 -3.437663,-1.25 -4.39492,0.02079 -8.796726,-0.04161 -13.187337,0.03125 -1.307755,0.240994 -1.806874,1.644634 -1.625,2.827011 -0.213161,1.184254 0.447613,2.568182 1.6875,2.735489 1.104167,0.166667 2.208333,0.333333 3.3125,0.5 0,2.677083 0,5.354167 0,8.03125 -4.185893,1.437711 -9.054077,1.911147 -13.177378,0.01122 -4.289354,-2.231391 -5.799348,-7.388413 -5.977475,-11.904541 -0.177059,-4.925079 -0.0324,-10.29787 2.856845,-14.50182 2.591961,-3.541325 7.444762,-4.072846 11.495887,-3.68067 2.382628,0.341898 5.009593,0.793079 6.883488,2.321956 0.2941,1.439285 0.317348,2.966507 0.793633,4.347602 0.761202,1.438466 2.551518,0.946227 3.875,1.03125 1.400736,-0.129171 2.024837,-1.61099 1.8125,-2.858261 C 65.084001,39.596321 65.207469,36.91097 65.0625,34.25 64.539653,32.436874 62.220094,32.605267 60.75672,32.135315 57.03813,31.348325 53.237274,30.984405 49.4375,31 Z" />
          <g
             id="g1695">
            <path
               inkscape:connector-curvature="0"
               d="m 49.4375,32 c -6.780545,4.1e-5 -12.122492,1.757612 -15.78125,5.375 -3.651902,3.610432 -5.375003,9.013585 -5.375,16 -3e-6,3.290569 0.453446,6.229383 1.4375,8.8125 0.979258,2.570578 2.428368,4.760732 4.28125,6.53125 1.853044,1.75011 4.107229,3.074804 6.6875,3.96875 2.599342,0.873223 5.484542,1.3125 8.65625,1.3125 2.849565,0 5.532553,-0.261527 8.03125,-0.78125 2.461291,-0.511955 4.812921,-1.159092 7.09375,-1.90625 a 1.0017357,1.0017357 0 0 0 0.6875,-0.9375 V 58.53125 l 3,-0.59375 a 1.0017357,1.0017357 0 0 0 0.8125,-0.96875 V 55.375 a 1.0017357,1.0017357 0 0 0 -1,-1 H 53.5625 a 1.0017357,1.0017357 0 0 0 -1,1 v 1.59375 a 1.0017357,1.0017357 0 0 0 0.84375,1 l 4.15625,0.625 V 68.125 c -0.258911,0.128213 -0.474055,0.271811 -0.84375,0.40625 -0.576665,0.20969 -1.279089,0.40429 -2.09375,0.59375 -0.778587,0.185373 -1.626915,0.338494 -2.53125,0.46875 -0.0108,0.0016 -0.02043,-0.0015 -0.03125,0 -0.864919,0.106389 -1.776579,0.156252 -2.6875,0.15625 -1.779788,2e-6 -3.460433,-0.253289 -5.0625,-0.78125 -1.533968,-0.511316 -2.865608,-1.361113 -4.0625,-2.59375 -1.157777,-1.210387 -2.124598,-2.848137 -2.84375,-4.96875 -0.707001,-2.102839 -1.062508,-4.814552 -1.0625,-8.09375 -8e-6,-3.247593 0.33117,-5.956918 0.9375,-8.125 0.629009,-2.201541 1.488862,-3.907215 2.59375,-5.1875 1.115328,-1.292348 2.459657,-2.217585 4.0625,-2.78125 1.656833,-0.59427 3.57948,-0.906215 5.75,-0.90625 1.980487,3.5e-5 3.849477,0.281927 5.625,0.78125 a 1.0017357,1.0017357 0 0 0 0.03125,0 c 1.664011,0.446063 2.987987,1.066145 4.15625,1.84375 l 0.6875,4.34375 a 1.0017357,1.0017357 0 0 0 1,0.84375 h 1.9375 a 1.0017357,1.0017357 0 0 0 1,-1 V 34.75 a 1.0017357,1.0017357 0 0 0 -0.75,-0.96875 C 61.279076,33.227658 59.075364,32.784097 56.75,32.46875 54.433958,32.15207 51.998901,32.000041 49.4375,32 Z"
               id="path5214"
               style="font-style:normal;font-variant:normal;font-weight:normal;font-stretch:normal;font-size:59.53488541px;line-height:125%;font-family:'Liberation Serif';-inkscape-font-specification:'Liberation Serif';text-align:start;writing-mode:lr-tb;text-anchor:start;opacity:0.1;fill:#501616;fill-opacity:1;stroke:none" />
            <path
               d="m 64.155722,70.383718 c -2.248098,0.736436 -4.583367,1.35659 -7.005815,1.860465 -2.422508,0.503876 -5.029095,0.755814 -7.819767,0.755814 -3.081415,0 -5.86242,-0.416666 -8.343024,-1.25 -2.461252,-0.852711 -4.563963,-2.10271 -6.308139,-3.75 -1.744193,-1.66666 -3.081401,-3.720922 -4.011628,-6.162791 -0.930236,-2.441847 -1.395352,-5.261612 -1.395349,-8.459302 -3e-6,-6.82168 1.705422,-11.918574 5.116279,-15.290698 3.430222,-3.391436 8.449597,-5.08717 15.05814,-5.08721 2.519355,4e-5 4.912763,0.155078 7.180233,0.465117 2.286789,0.310116 4.45733,0.736472 6.511628,1.279069 v 8.372094 h -1.947675 l -0.784883,-4.825582 c -1.337242,-0.949577 -2.945768,-1.676321 -4.825582,-2.180233 -1.860492,-0.523219 -3.827544,-0.784846 -5.901163,-0.784883 -2.267462,3.7e-5 -4.292654,0.319804 -6.075582,0.959302 -1.763581,0.620191 -3.255827,1.637631 -4.476744,3.052326 -1.220941,1.41476 -2.160863,3.275223 -2.819767,5.581395 -0.639544,2.286847 -0.959311,5.087232 -0.959303,8.401163 -8e-6,3.352729 0.377898,6.153114 1.133721,8.401163 0.755804,2.228691 1.773245,4.011635 3.052326,5.348838 1.298436,1.337213 2.790682,2.286824 4.476744,2.848837 1.705408,0.562017 3.498042,0.843025 5.377907,0.843023 0.949589,2e-6 1.889511,-0.05814 2.819768,-0.174418 0.949586,-0.135657 1.831368,-0.300386 2.645349,-0.494186 0.833304,-0.193796 1.569738,-0.406974 2.209302,-0.639535 0.639504,-0.232555 1.14338,-0.455423 1.511628,-0.668605 V 57.709299 l -5,-0.755814 v -1.569767 h 14.389535 v 1.569767 l -3.808139,0.755814 v 12.674419"
               inkscape:connector-curvature="0"
               id="path5208"
               style="font-style:normal;font-variant:normal;font-weight:normal;font-stretch:normal;font-size:59.53488541px;line-height:125%;font-family:'Liberation Serif';-inkscape-font-specification:'Liberation Serif';text-align:start;writing-mode:lr-tb;text-anchor:start;opacity:0.3;fill:#501616;fill-opacity:1;stroke:none" />
            <path
               d="m 64.155722,69.383718 c -2.248098,0.736436 -4.583367,1.35659 -7.005815,1.860465 -2.422508,0.503876 -5.029095,0.755814 -7.819767,0.755814 -3.081415,0 -5.86242,-0.416666 -8.343024,-1.25 -2.461252,-0.852711 -4.563963,-2.10271 -6.308139,-3.75 -1.744193,-1.66666 -3.081401,-3.720922 -4.011628,-6.162791 -0.930236,-2.441847 -1.395352,-5.261612 -1.395349,-8.459302 -3e-6,-6.82168 1.705422,-11.918574 5.116279,-15.290698 3.430222,-3.391436 8.449597,-5.08717 15.05814,-5.08721 2.519355,4e-5 4.912763,0.155078 7.180233,0.465117 2.286789,0.310116 4.45733,0.736472 6.511628,1.279069 v 8.372094 h -1.947675 l -0.784883,-4.825582 c -1.337242,-0.949577 -2.945768,-1.676321 -4.825582,-2.180233 -1.860492,-0.523219 -3.827544,-0.784846 -5.901163,-0.784883 -2.267462,3.7e-5 -4.292654,0.319804 -6.075582,0.959302 -1.763581,0.620191 -3.255827,1.637631 -4.476744,3.052326 -1.220941,1.41476 -2.160863,3.275223 -2.819767,5.581395 -0.639544,2.286847 -0.959311,5.087232 -0.959303,8.401163 -8e-6,3.352729 0.377898,6.153114 1.133721,8.401163 0.755804,2.228691 1.773245,4.011635 3.052326,5.348838 1.298436,1.337213 2.790682,2.286824 4.476744,2.848837 1.705408,0.562017 3.498042,0.843025 5.377907,0.843023 0.949589,2e-6 1.889511,-0.05814 2.819768,-0.174418 0.949586,-0.135657 1.831368,-0.300386 2.645349,-0.494186 0.833304,-0.193796 1.569738,-0.406974 2.209302,-0.639535 0.639504,-0.232555 1.14338,-0.455423 1.511628,-0.668605 V 56.709299 l -5,-0.755814 v -1.569767 h 14.389535 v 1.569767 l -3.808139,0.755814 v 12.674419"
               inkscape:connector-curvature="0"
               id="path4412"
               style="font-style:normal;font-variant:normal;font-weight:normal;font-stretch:normal;font-size:59.53488541px;line-height:125%;font-family:'Liberation Serif';-inkscape-font-specification:'Liberation Serif';text-align:start;writing-mode:lr-tb;text-anchor:start;fill:url(#linearGradient5362);fill-opacity:1;stroke:none" />
          </g>
        </g>
      </g>
      <rect
         clip-path="url(#clipPath4156-4-1)"
         ry="3.9569881"
         rx="3.9569874"
         y="-30"
         x="2"
         height="69.024437"
         width="75.965775"
         id="rect4146"
         style="opacity:0.692;fill:url(#linearGradient4767);fill-opacity:1;stroke:none"
         transform="matrix(1.0692451,0,0,1.0476829,4.4441802,38.894013)" />
    </g>
  </g>
</svg>
