<?xml version="1.0" encoding="UTF-8" standalone="no"?>
<!-- Created with Inkscape (http://www.inkscape.org/) -->

<svg
   xmlns:dc="http://purl.org/dc/elements/1.1/"
   xmlns:cc="http://creativecommons.org/ns#"
   xmlns:rdf="http://www.w3.org/1999/02/22-rdf-syntax-ns#"
   xmlns:svg="http://www.w3.org/2000/svg"
   xmlns="http://www.w3.org/2000/svg"
   xmlns:xlink="http://www.w3.org/1999/xlink"
   xmlns:sodipodi="http://sodipodi.sourceforge.net/DTD/sodipodi-0.dtd"
   xmlns:inkscape="http://www.inkscape.org/namespaces/inkscape"
   version="1.0"
   width="96"
   height="96"
   id="svg3669"
   sodipodi:version="0.32"
   inkscape:version="0.91 r13725"
   sodipodi:docname="dialog-cancel.svg"
   inkscape:output_extension="org.inkscape.output.svgz.inkscape"
   inkscape:export-filename="/home/pinheiro/pics/oxygen/scalable/actions/dialog-cancel.png"
   inkscape:export-xdpi="180"
   inkscape:export-ydpi="180">
  <metadata
     id="metadata754">
    <rdf:RDF>
      <cc:Work
         rdf:about="">
        <dc:format>image/svg+xml</dc:format>
        <dc:type
           rdf:resource="http://purl.org/dc/dcmitype/StillImage" />
        <dc:title></dc:title>
      </cc:Work>
    </rdf:RDF>
  </metadata>
  <sodipodi:namedview
     inkscape:window-height="971"
     inkscape:window-width="1280"
     inkscape:pageshadow="2"
     inkscape:pageopacity="0.0"
     guidetolerance="10.0"
     gridtolerance="10.0"
     objecttolerance="10.0"
     borderopacity="1.0"
     bordercolor="#666666"
     pagecolor="#ffffff"
     id="base"
     inkscape:zoom="2.4251553"
     inkscape:cx="15.230903"
     inkscape:cy="71.316359"
     inkscape:window-x="0"
     inkscape:window-y="27"
     inkscape:current-layer="g7008"
     showgrid="false"
     inkscape:window-maximized="1" />
  <defs
     id="defs3671">
    <linearGradient
       id="linearGradient2929">
      <stop
         id="stop2931"
         style="stop-color:#efa040;stop-opacity:1;"
         offset="0" />
      <stop
         id="stop2933"
         style="stop-color:#c0a331;stop-opacity:0"
         offset="1" />
    </linearGradient>
    <linearGradient
       id="linearGradient3260-778">
      <stop
         id="stop2489"
         style="stop-color:#ffffff;stop-opacity:1"
         offset="0" />
      <stop
         id="stop2491"
         style="stop-color:#ffffff;stop-opacity:0"
         offset="1" />
    </linearGradient>
    <linearGradient
       id="linearGradient3527">
      <stop
         id="stop3529"
         style="stop-color:#ff0000;stop-opacity:1"
         offset="0" />
      <stop
         id="stop3531"
         style="stop-color:#7f0000;stop-opacity:1"
         offset="1" />
    </linearGradient>
    <linearGradient
       id="linearGradient3551">
      <stop
         id="stop3553"
         style="stop-color:#bf0000;stop-opacity:1"
         offset="0" />
      <stop
         id="stop3555"
         style="stop-color:#8c0000;stop-opacity:1"
         offset="1" />
    </linearGradient>
    <linearGradient
       id="linearGradient3598">
      <stop
         id="stop3600"
         style="stop-color:#ffbfbf;stop-opacity:1"
         offset="0" />
      <stop
         id="stop3602"
         style="stop-color:#ffbfbf;stop-opacity:0"
         offset="1" />
    </linearGradient>
    <linearGradient
       id="linearGradient3671">
      <stop
         id="stop3673"
         style="stop-color:#1a0000;stop-opacity:1"
         offset="0" />
      <stop
         id="stop3675"
         style="stop-color:#a20000;stop-opacity:0"
         offset="1" />
    </linearGradient>
    <linearGradient
       id="linearGradient3706">
      <stop
         id="stop3708"
         style="stop-color:#ffffff;stop-opacity:1"
         offset="0" />
      <stop
         id="stop3710"
         style="stop-color:#ffffff;stop-opacity:0"
         offset="1" />
    </linearGradient>
    <linearGradient
       id="linearGradient3835">
      <stop
         id="stop3837"
         style="stop-color:#ffffff;stop-opacity:1"
         offset="0" />
      <stop
         id="stop3839"
         style="stop-color:#ffffff;stop-opacity:0"
         offset="1" />
    </linearGradient>
    <filter
       id="filter4055">
      <feGaussianBlur
         id="feGaussianBlur4057"
         stdDeviation="0.16412598"
         inkscape:collect="always" />
    </filter>
    <filter
       id="filter4134">
      <feGaussianBlur
         id="feGaussianBlur4136"
         stdDeviation="0.28743233"
         inkscape:collect="always" />
    </filter>
    <filter
       height="1.2074844"
       y="-0.10374219"
       width="1.1734999"
       x="-0.086749934"
       id="filter4176">
      <feGaussianBlur
         id="feGaussianBlur4178"
         stdDeviation="1.3102854"
         inkscape:collect="always" />
    </filter>
    <filter
       height="1.2557172"
       y="-0.12785856"
       width="1.0808311"
       x="-0.040415537"
       id="filter4202">
      <feGaussianBlur
         id="feGaussianBlur4204"
         stdDeviation="0.59781314"
         inkscape:collect="always" />
    </filter>
    <filter
       height="1.5161119"
       y="-0.25805596"
       width="1.1086627"
       x="-0.05433137"
       id="filter4248">
      <feGaussianBlur
         id="feGaussianBlur4250"
         stdDeviation="0.66853052"
         inkscape:collect="always" />
    </filter>
    <clipPath
       id="clipPath4258">
      <path
         d="m -826.90422,227.34375 c -31.72515,0 -57.53125,25.8061 -57.53125,57.53125 0,31.72515 25.8061,57.53125 57.53125,57.53125 31.72515,0 57.5625,-25.8061 57.5625,-57.53125 0,-31.72515 -25.83735,-57.53125 -57.5625,-57.53125 z m 0,18.3125 c 7.04403,0 13.60447,1.91307 19.3125,5.15625 l -53.375,53.375 c -3.24318,-5.70802 -5.15625,-12.26847 -5.15625,-19.3125 0,-21.68803 17.53072,-39.21875 39.21875,-39.21875 z m 35.5625,22.78125 c 2.32832,5.00216 3.65625,10.55427 3.65625,16.4375 0,21.68803 -17.53073,39.21875 -39.21875,39.21875 -5.88323,10e-6 -11.43535,-1.32793 -16.4375,-3.65625 l 52,-52 z"
         id="path4260"
         style="opacity:1;fill:url(#linearGradient4262);fill-opacity:1;stroke:none;stroke-width:7.08661413;stroke-linecap:square;stroke-linejoin:miter;stroke-miterlimit:4;stroke-dasharray:none;stroke-dashoffset:4.1500001;stroke-opacity:1"
         inkscape:connector-curvature="0" />
    </clipPath>
    <linearGradient
       x1="11.843751"
       y1="365.3761"
       x2="19.390625"
       y2="206.375"
       id="linearGradient4262"
       xlink:href="#linearGradient3671"
       gradientUnits="userSpaceOnUse"
       gradientTransform="translate(-827.27922,0)" />
    <linearGradient
       y2="47.000011"
       x2="90"
       y1="47.000011"
       x1="6"
       gradientTransform="matrix(1.1071428,0,0,1.1071426,2.9011003,-18.701274)"
       gradientUnits="userSpaceOnUse"
       id="linearGradient7426"
       xlink:href="#linearGradient6139-0"
       inkscape:collect="always" />
    <linearGradient
       id="linearGradient6139-0">
      <stop
         id="stop6141-2"
         offset="0"
         style="stop-color:#c1adad;stop-opacity:1;" />
      <stop
         style="stop-color:#ffffff;stop-opacity:1;"
         offset="0.25"
         id="stop6151-0" />
      <stop
         style="stop-color:#aa9090;stop-opacity:1;"
         offset="0.5"
         id="stop6147-1" />
      <stop
         id="stop6149-4"
         offset="0.75"
         style="stop-color:#fbf9f9;stop-opacity:1;" />
      <stop
         id="stop6143-4"
         offset="1"
         style="stop-color:#c1adad;stop-opacity:1;" />
    </linearGradient>
    <radialGradient
       r="41"
       fy="6.2131939"
       fx="158"
       cy="6.2131939"
       cx="158"
       gradientTransform="matrix(0,1.6209438,-2.0382846,0,160.66427,-243.03657)"
       gradientUnits="userSpaceOnUse"
       id="radialGradient7428"
       xlink:href="#linearGradient3260-778"
       inkscape:collect="always" />
    <radialGradient
       r="42"
       fy="-27"
       fx="48"
       cy="-27"
       cx="48"
       gradientTransform="matrix(-1.0721726,0,0,-0.87502024,199.46429,-19.125546)"
       gradientUnits="userSpaceOnUse"
       id="radialGradient7430"
       xlink:href="#linearGradient4091-0-3-0-7"
       inkscape:collect="always" />
    <linearGradient
       id="linearGradient4091-0-3-0-7">
      <stop
         style="stop-color:#ffffff;stop-opacity:1;"
         offset="0"
         id="stop4093-3-6-4-2" />
      <stop
         id="stop4099-6-1-8-3"
         offset="0.80000001"
         style="stop-color:#ffffff;stop-opacity:1;" />
      <stop
         style="stop-color:#ffffff;stop-opacity:0;"
         offset="1"
         id="stop4095-1-0-7-9" />
    </linearGradient>
    <clipPath
       id="clipPath4194-1-2-5">
      <rect
         width="84"
         height="84"
         rx="6"
         ry="6"
         x="6"
         y="6"
         id="rect4196-1-6-2"
         style="fill:#ff00ff;fill-opacity:1;fill-rule:nonzero;stroke:none" />
    </clipPath>
    <linearGradient
       y2="88.171875"
       x2="94.5"
       y1="88.171875"
       x1="1.5"
       gradientTransform="translate(8.0439564,-14.665561)"
       gradientUnits="userSpaceOnUse"
       id="linearGradient7460"
       xlink:href="#linearGradient3832-0-6-1-1"
       inkscape:collect="always" />
    <linearGradient
       id="linearGradient3832-0-6-1-1">
      <stop
         style="stop-color:#000000;stop-opacity:1;"
         offset="0"
         id="stop3834-6-3-7-1" />
      <stop
         id="stop3872-2-4"
         offset="0.1"
         style="stop-color:#000000;stop-opacity:0.58823532;" />
      <stop
         style="stop-color:#000000;stop-opacity:0.58823532;"
         offset="0.89999998"
         id="stop3844-6-2-7-6" />
      <stop
         style="stop-color:#000000;stop-opacity:1;"
         offset="1"
         id="stop3836-5-0-2-9" />
    </linearGradient>
    <radialGradient
       r="43.199203"
       fy="44.892841"
       fx="13.948145"
       cy="44.892841"
       cx="13.948145"
       gradientTransform="matrix(0.97513378,0,0,0.04919072,41.942652,65.501135)"
       gradientUnits="userSpaceOnUse"
       id="radialGradient7462"
       xlink:href="#linearGradient3260-778"
       inkscape:collect="always" />
    <radialGradient
       r="43.199203"
       fy="44.892841"
       fx="13.948145"
       cy="44.892841"
       cx="13.948145"
       gradientTransform="matrix(0.88832663,0,0,0.04919072,16.068931,-98.752262)"
       gradientUnits="userSpaceOnUse"
       id="radialGradient7464"
       xlink:href="#linearGradient3260-778"
       inkscape:collect="always" />
    <linearGradient
       y2="14.514202"
       x2="50.527882"
       y1="-28.64156"
       x1="2.7713892"
       gradientUnits="userSpaceOnUse"
       id="linearGradient7466"
       xlink:href="#linearGradient3260-778"
       inkscape:collect="always" />
    <clipPath
       clipPathUnits="userSpaceOnUse"
       id="clipPath4156-4">
      <path
         style="opacity:0.6;fill:#ffffff;fill-opacity:1;stroke:none"
         d="m 27.046336,-55.695463 -14.21366,13.321486 0.06127,0 15.653407,21.770763 10.231384,-10.546177 C 38.561832,-32.30156 27.468089,-54.819245 27.046336,-55.695463 Z M 9.6468554,-39.382809 -5.2407289,-25.32124 15.987863,-7.8059573 26.372412,-18.382966 9.6468554,-39.382809 Z m 31.4906096,12.951445 -9.741259,9.713584 8.944804,12.4580526 7.780753,-7.5550056 -6.984298,-14.616631 z m -49.8397109,4.378822 -13.7541661,12.9822847 26.2830181,13.84571 0.06127,-0.0617 -0.122531,-0.0617 L 13.598503,-5.4007374 -8.7022409,-22.052595 Z m 38.0154159,7.400825 -9.802525,9.7752596 11.579232,9.5594001 7.62759,-7.40083 -8.669108,-11.0087257 -0.735189,-0.925104 z m 20.187073,5.6739697 -7.382526,7.2158 6.187844,8.54179 5.820249,-6.13651996 -4.625567,-9.62107004 z m -32.195166,6.32154 -9.5574606,9.49772 13.6622686,7.1849703 7.933918,-7.6783603 -12.038726,-9.00433 z m 23.311629,2.37443004 -7.10683,6.93826996 8.362778,6.9074403 5.360756,-5.6739699 -0.06127,-0.0925 -0.0919,0.12335 -6.463539,-8.20258036 z m -8.730374,8.54178036 -7.505057,7.3391599 10.353916,5.45811 c 1.397496,-1.32103 5.67514,-6.12292 5.850882,-6.32154 L 31.886332,8.2600031 Z"
         id="path4158-0"
         inkscape:connector-curvature="0" />
    </clipPath>
    <linearGradient
       inkscape:collect="always"
       xlink:href="#linearGradient3260-778"
       id="linearGradient7128"
       gradientUnits="userSpaceOnUse"
       x1="2.7713892"
       y1="-28.64156"
       x2="50.527882"
       y2="14.514202" />
    <linearGradient
       x1="7.9406605"
       y1="5.0990195"
       x2="7.9406605"
       y2="19.219381"
       id="linearGradient4057"
       xlink:href="#linearGradient4281-6-89"
       gradientUnits="userSpaceOnUse"
       gradientTransform="matrix(3.5300904,0,0,2.5495098,16,18)" />
    <linearGradient
       id="linearGradient4281-6-89">
      <stop
         id="stop4283-9-4"
         style="stop-color:#1e1e1e;stop-opacity:1"
         offset="0" />
      <stop
         id="stop4285-8-1"
         style="stop-color:#505050;stop-opacity:1"
         offset="1" />
    </linearGradient>
    <linearGradient
       x1="38"
       y1="28"
       x2="38"
       y2="68"
       id="linearGradient3156-2"
       xlink:href="#linearGradient4281-6-89"
       gradientUnits="userSpaceOnUse"
       gradientTransform="translate(-100,0)" />
    <linearGradient
       inkscape:collect="always"
       xlink:href="#linearGradient3551"
       id="linearGradient3488"
       gradientUnits="userSpaceOnUse"
       gradientTransform="matrix(1.0117554,0,0,1.0117554,64.604781,-224.22382)"
       x1="3.3437505"
       y1="236.8761"
       x2="0.390625"
       y2="351.875" />
    <linearGradient
       inkscape:collect="always"
       xlink:href="#linearGradient3671"
       id="linearGradient3485"
       gradientUnits="userSpaceOnUse"
       gradientTransform="matrix(1.0117554,0,0,1.0117554,64.604781,-224.22382)"
       x1="11.843751"
       y1="365.3761"
       x2="19.390625"
       y2="206.375" />
    <clipPath
       id="clipPath4258-5">
      <path
         d="m -826.90422,227.34375 c -31.72515,0 -57.53125,25.8061 -57.53125,57.53125 0,31.72515 25.8061,57.53125 57.53125,57.53125 31.72515,0 57.5625,-25.8061 57.5625,-57.53125 0,-31.72515 -25.83735,-57.53125 -57.5625,-57.53125 z m 0,18.3125 c 7.04403,0 13.60447,1.91307 19.3125,5.15625 l -53.375,53.375 c -3.24318,-5.70802 -5.15625,-12.26847 -5.15625,-19.3125 0,-21.68803 17.53072,-39.21875 39.21875,-39.21875 z m 35.5625,22.78125 c 2.32832,5.00216 3.65625,10.55427 3.65625,16.4375 0,21.68803 -17.53073,39.21875 -39.21875,39.21875 -5.88323,10e-6 -11.43535,-1.32793 -16.4375,-3.65625 l 52,-52 z"
         id="path4260-6"
         style="opacity:1;fill:url(#linearGradient4262);fill-opacity:1;stroke:none;stroke-width:7.08661413;stroke-linecap:square;stroke-linejoin:miter;stroke-miterlimit:4;stroke-dasharray:none;stroke-dashoffset:4.1500001;stroke-opacity:1"
         inkscape:connector-curvature="0" />
    </clipPath>
    <radialGradient
       inkscape:collect="always"
       xlink:href="#linearGradient3260-778"
       id="radialGradient3440"
       gradientUnits="userSpaceOnUse"
       gradientTransform="matrix(1,7.1693163e-7,-7.7186683e-7,1.0766255,1.795441e-4,-17.823295)"
       cx="-824.58069"
       cy="232.61047"
       fx="-824.58069"
       fy="232.61047"
       r="23.9375" />
    <filter
       id="filter4134-1">
      <feGaussianBlur
         id="feGaussianBlur4136-2"
         stdDeviation="0.28743233"
         inkscape:collect="always" />
    </filter>
    <radialGradient
       inkscape:collect="always"
       xlink:href="#linearGradient3260-778"
       id="radialGradient3442"
       gradientUnits="userSpaceOnUse"
       gradientTransform="matrix(1,0,0,0.3160957,0,222.83692)"
       cx="-825.97125"
       cy="315.76404"
       fx="-825.97125"
       fy="315.76404"
       r="17.75" />
    <filter
       height="1.2557172"
       y="-0.12785856"
       width="1.0808311"
       x="-0.040415537"
       id="filter4202-9">
      <feGaussianBlur
         id="feGaussianBlur4204-3"
         stdDeviation="0.59781314"
         inkscape:collect="always" />
    </filter>
    <radialGradient
       inkscape:collect="always"
       xlink:href="#linearGradient3598"
       id="radialGradient3444"
       gradientUnits="userSpaceOnUse"
       gradientTransform="matrix(1,-5.9653348e-8,1.4682541e-7,2.4613106,-4.8987084e-5,-487.55424)"
       cx="-825.2254"
       cy="337.20309"
       fx="-825.2254"
       fy="337.20309"
       r="14.765625" />
    <filter
       height="1.5161119"
       y="-0.25805596"
       width="1.1086627"
       x="-0.05433137"
       id="filter4248-6">
      <feGaussianBlur
         id="feGaussianBlur4250-2"
         stdDeviation="0.66853052"
         inkscape:collect="always" />
    </filter>
    <radialGradient
       inkscape:collect="always"
       xlink:href="#linearGradient3260-778"
       id="radialGradient3446"
       gradientUnits="userSpaceOnUse"
       gradientTransform="matrix(0.383106,0.3947293,-1.3121017,1.2734652,-149.51024,248.31073)"
       cx="-830.375"
       cy="275.74124"
       fx="-830.375"
       fy="275.74124"
       r="18.125" />
    <filter
       height="1.2074844"
       y="-0.10374219"
       width="1.1734999"
       x="-0.086749934"
       id="filter4176-8">
      <feGaussianBlur
         id="feGaussianBlur4178-7"
         stdDeviation="1.3102854"
         inkscape:collect="always" />
    </filter>
    <radialGradient
       inkscape:collect="always"
       xlink:href="#linearGradient3527"
       id="radialGradient3477"
       gradientUnits="userSpaceOnUse"
       gradientTransform="matrix(1.2632322,0,0,1.5245906,165.09903,-31.579826)"
       cx="-79.25"
       cy="81.75"
       fx="-79.25"
       fy="81.75"
       r="43.5" />
    <linearGradient
       inkscape:collect="always"
       xlink:href="#linearGradient3598"
       id="linearGradient3474"
       gradientUnits="userSpaceOnUse"
       gradientTransform="matrix(1.0117554,0,0,1.0117554,145.1695,15.436852)"
       x1="-89.75"
       y1="-28.999977"
       x2="-73.8125"
       y2="76.000023" />
    <linearGradient
       inkscape:collect="always"
       xlink:href="#linearGradient3260-778"
       id="linearGradient3471"
       gradientUnits="userSpaceOnUse"
       gradientTransform="matrix(1.0117554,0,0,1.0117554,144.88314,15.221692)"
       x1="-89.75"
       y1="-28.999977"
       x2="-73.8125"
       y2="76.000023" />
    <linearGradient
       inkscape:collect="always"
       xlink:href="#linearGradient3260-778"
       id="linearGradient3467"
       gradientUnits="userSpaceOnUse"
       gradientTransform="matrix(1.0117554,0,0,1.0117554,144.97897,15.322867)"
       x1="-13.20569"
       y1="84.70369"
       x2="-84.772652"
       y2="19.43148" />
  </defs>
  <g
     style="display:inline"
     id="layer4"
     transform="translate(-181.41925,-297.66219)" />
  <g
     style="display:inline"
     id="layer5"
     transform="translate(-181.41925,-297.66219)" />
  <rect
     style="opacity:0.57786889;fill:#ffffff;fill-opacity:1;fill-rule:nonzero;stroke:none;stroke-width:3.63199997;stroke-linecap:round;stroke-linejoin:round;stroke-miterlimit:4;stroke-dasharray:none;stroke-dashoffset:4;stroke-opacity:1"
     id="rect1327"
     y="-359.19485"
     x="-267.88873"
     height="0"
     width="1" />
  <rect
     style="opacity:0.57786889;fill:#ffffff;fill-opacity:1;fill-rule:nonzero;stroke:none;stroke-width:3.63199997;stroke-linecap:round;stroke-linejoin:round;stroke-miterlimit:4;stroke-dasharray:none;stroke-dashoffset:4;stroke-opacity:1"
     id="rect2482"
     y="-386.72247"
     x="-303.01556"
     height="0"
     width="1" />
  <g
     style="opacity:0.40163933"
     id="g4640"
     transform="matrix(-0.782995,0,0,0.650879,-2784.8106,226.5792)" />
  <g
     style="opacity:0.40163933"
     id="g4646"
     transform="matrix(-0.782995,0,0,0.650879,-2784.8106,226.5792)" />
  <g
     style="opacity:0.40163933"
     id="g4730"
     transform="matrix(1,0,0,0.650879,416.15145,233.9069)" />
  <g
     style="opacity:0.40163933"
     id="g4748"
     transform="matrix(1,0,0,0.650879,416.15145,233.9069)" />
  <g
     style="display:inline"
     id="g6929"
     transform="translate(-40.99425,-140.8736)" />
  <g
     style="display:inline"
     id="g6931"
     transform="translate(-40.99425,-140.8736)" />
  <rect
     style="opacity:0.57786889;fill:#ffffff;fill-opacity:1;fill-rule:nonzero;stroke:none;stroke-width:3.63199997;stroke-linecap:round;stroke-linejoin:round;stroke-miterlimit:4;stroke-dasharray:none;stroke-dashoffset:4;stroke-opacity:1"
     id="rect6937"
     y="-202.40622"
     x="-127.46362"
     height="0"
     width="1" />
  <rect
     style="opacity:0.57786889;fill:#ffffff;fill-opacity:1;fill-rule:nonzero;stroke:none;stroke-width:3.63199997;stroke-linecap:round;stroke-linejoin:round;stroke-miterlimit:4;stroke-dasharray:none;stroke-dashoffset:4;stroke-opacity:1"
     id="rect6939"
     y="-229.93382"
     x="-162.59045"
     height="0"
     width="1" />
  <g
     style="opacity:0.40163933"
     id="g6943"
     transform="matrix(-0.782995,0,0,0.650879,-2644.3857,383.3678)" />
  <g
     style="opacity:0.40163933"
     id="g6945"
     transform="matrix(-0.782995,0,0,0.650879,-2644.3857,383.3678)" />
  <g
     style="opacity:0.40163933"
     id="g6947"
     transform="matrix(1,0,0,0.650879,556.57655,390.6956)" />
  <g
     style="opacity:0.40163933"
     id="g6949"
     transform="matrix(1,0,0,0.650879,556.57655,390.6956)" />
  <g
     style="display:inline"
     id="g7565"
     transform="translate(-90.49425,-192.87355)" />
  <g
     style="display:inline"
     id="g7567"
     transform="translate(-90.49425,-192.87355)" />
  <rect
     style="opacity:0.57786889;fill:#ffffff;fill-opacity:1;fill-rule:nonzero;stroke:none;stroke-width:3.63199997;stroke-linecap:round;stroke-linejoin:round;stroke-miterlimit:4;stroke-dasharray:none;stroke-dashoffset:4;stroke-opacity:1"
     id="rect7573"
     y="-254.40622"
     x="-176.96362"
     height="0"
     width="1" />
  <rect
     style="opacity:0.57786889;fill:#ffffff;fill-opacity:1;fill-rule:nonzero;stroke:none;stroke-width:3.63199997;stroke-linecap:round;stroke-linejoin:round;stroke-miterlimit:4;stroke-dasharray:none;stroke-dashoffset:4;stroke-opacity:1"
     id="rect7575"
     y="-281.93384"
     x="-212.09045"
     height="0"
     width="1" />
  <g
     style="opacity:0.40163933"
     id="g7579"
     transform="matrix(-0.782995,0,0,0.650879,-2693.8857,331.3678)" />
  <g
     style="opacity:0.40163933"
     id="g7581"
     transform="matrix(-0.782995,0,0,0.650879,-2693.8857,331.3678)" />
  <g
     style="opacity:0.40163933"
     id="g7583"
     transform="matrix(1,0,0,0.650879,507.07655,338.6956)" />
  <g
     style="opacity:0.40163933"
     id="g7585"
     transform="matrix(1,0,0,0.650879,507.07655,338.6956)" />
  <g
     style="display:inline"
     id="g8400"
     transform="translate(-477.74425,-69.1236)" />
  <g
     style="display:inline"
     id="g8402"
     transform="translate(-477.74425,-69.1236)" />
  <rect
     style="opacity:0.57786889;fill:#ffffff;fill-opacity:1;fill-rule:nonzero;stroke:none;stroke-width:3.63199997;stroke-linecap:round;stroke-linejoin:round;stroke-miterlimit:4;stroke-dasharray:none;stroke-dashoffset:4;stroke-opacity:1"
     id="rect8408"
     y="-130.65622"
     x="-564.21362"
     height="0"
     width="1" />
  <rect
     style="opacity:0.57786889;fill:#ffffff;fill-opacity:1;fill-rule:nonzero;stroke:none;stroke-width:3.63199997;stroke-linecap:round;stroke-linejoin:round;stroke-miterlimit:4;stroke-dasharray:none;stroke-dashoffset:4;stroke-opacity:1"
     id="rect8410"
     y="-158.18382"
     x="-599.34045"
     height="0"
     width="1" />
  <g
     style="opacity:0.40163933"
     id="g8414"
     transform="matrix(-0.782995,0,0,0.650879,-3081.1357,455.1178)" />
  <g
     style="opacity:0.40163933"
     id="g8416"
     transform="matrix(-0.782995,0,0,0.650879,-3081.1357,455.1178)" />
  <g
     style="opacity:0.40163933"
     id="g8418"
     transform="matrix(1,0,0,0.650879,119.82655,462.4456)" />
  <g
     style="opacity:0.40163933"
     id="g8420"
     transform="matrix(1,0,0,0.650879,119.82655,462.4456)" />
  <g
     style="display:inline"
     id="g9110"
     transform="translate(-225.35205,107.2685)" />
  <g
     style="display:inline"
     id="g9112"
     transform="translate(-225.35205,107.2685)" />
  <rect
     style="opacity:0.57786889;fill:#ffffff;fill-opacity:1;fill-rule:nonzero;stroke:none;stroke-width:3.63199997;stroke-linecap:round;stroke-linejoin:round;stroke-miterlimit:4;stroke-dasharray:none;stroke-dashoffset:4;stroke-opacity:1"
     id="rect9118"
     y="45.73587"
     x="-311.82147"
     height="0"
     width="1" />
  <rect
     style="opacity:0.57786889;fill:#ffffff;fill-opacity:1;fill-rule:nonzero;stroke:none;stroke-width:3.63199997;stroke-linecap:round;stroke-linejoin:round;stroke-miterlimit:4;stroke-dasharray:none;stroke-dashoffset:4;stroke-opacity:1"
     id="rect9120"
     y="18.208282"
     x="-346.9483"
     height="0"
     width="1" />
  <g
     style="opacity:0.40163933"
     id="g9124"
     transform="matrix(-0.782995,0,0,0.650879,-2828.7436,631.5099)" />
  <g
     style="opacity:0.40163933"
     id="g9126"
     transform="matrix(-0.782995,0,0,0.650879,-2828.7436,631.5099)" />
  <g
     style="opacity:0.40163933"
     id="g9128"
     transform="matrix(1,0,0,0.650879,372.21865,638.8377)" />
  <g
     style="opacity:0.40163933"
     id="g9130"
     transform="matrix(1,0,0,0.650879,372.21865,638.8377)" />
  <g
     style="display:inline"
     id="g3639"
     transform="translate(-326.00175,-126.2951)" />
  <g
     style="display:inline"
     id="g3641"
     transform="translate(-326.00175,-126.2951)" />
  <rect
     style="opacity:0.57786889;fill:#ffffff;fill-opacity:1;fill-rule:nonzero;stroke:none;stroke-width:3.63199997;stroke-linecap:round;stroke-linejoin:round;stroke-miterlimit:4;stroke-dasharray:none;stroke-dashoffset:4;stroke-opacity:1"
     id="rect3647"
     y="-187.82774"
     x="-412.4711"
     height="0"
     width="1" />
  <rect
     style="opacity:0.57786889;fill:#ffffff;fill-opacity:1;fill-rule:nonzero;stroke:none;stroke-width:3.63199997;stroke-linecap:round;stroke-linejoin:round;stroke-miterlimit:4;stroke-dasharray:none;stroke-dashoffset:4;stroke-opacity:1"
     id="rect3649"
     y="-215.35535"
     x="-447.59793"
     height="0"
     width="1" />
  <g
     style="opacity:0.40163933"
     id="g3653"
     transform="matrix(-0.782995,0,0,0.650879,-2929.3927,397.9463)" />
  <g
     style="opacity:0.40163933"
     id="g3655"
     transform="matrix(-0.782995,0,0,0.650879,-2929.3927,397.9463)" />
  <g
     style="opacity:0.40163933"
     id="g3657"
     transform="matrix(1,0,0,0.650879,271.56905,405.2741)" />
  <g
     style="opacity:0.40163933"
     id="g3659"
     transform="matrix(1,0,0,0.650879,271.56905,405.2741)" />
  <g
     style="display:inline"
     id="g10467"
     transform="translate(-323.99425,-127.2199)" />
  <g
     style="display:inline"
     id="g10469"
     transform="translate(-323.99425,-127.2199)" />
  <rect
     style="opacity:0.57786889;fill:#ffffff;fill-opacity:1;fill-rule:nonzero;stroke:none;stroke-width:3.63199997;stroke-linecap:round;stroke-linejoin:round;stroke-miterlimit:4;stroke-dasharray:none;stroke-dashoffset:4;stroke-opacity:1"
     id="rect10475"
     y="-188.75252"
     x="-410.46362"
     height="0"
     width="1" />
  <rect
     style="opacity:0.57786889;fill:#ffffff;fill-opacity:1;fill-rule:nonzero;stroke:none;stroke-width:3.63199997;stroke-linecap:round;stroke-linejoin:round;stroke-miterlimit:4;stroke-dasharray:none;stroke-dashoffset:4;stroke-opacity:1"
     id="rect10477"
     y="-216.28012"
     x="-445.59045"
     height="0"
     width="1" />
  <g
     style="opacity:0.40163933"
     id="g10481"
     transform="matrix(-0.782995,0,0,0.650879,-2927.3857,397.0215)" />
  <g
     style="opacity:0.40163933"
     id="g10483"
     transform="matrix(-0.782995,0,0,0.650879,-2927.3857,397.0215)" />
  <g
     style="opacity:0.40163933"
     id="g10485"
     transform="matrix(1,0,0,0.650879,273.57655,404.3493)" />
  <g
     style="opacity:0.40163933"
     id="g10487"
     transform="matrix(1,0,0,0.650879,273.57655,404.3493)" />
  <g
     transform="translate(2.1704096e-8,32)"
     inkscape:label="Layer 1"
     id="layer1">
    <g
       id="g7008"
       transform="translate(-8.0439584,-17.334439)">
      <rect
         y="-14.665561"
         x="8.0439568"
         height="2.5"
         width="96"
         id="rect3880"
         style="opacity:0.3122172;fill:#ffffff;fill-opacity:1;stroke:none" />
      <path
         inkscape:connector-curvature="0"
         id="path3288"
         d="m 97.186813,-14.665561 -82.285719,0 c -3.798848,0 -6.8571352,3.058285 -6.8571352,6.8571399 l 0,82.2857181 c 0,3.798857 3.0582872,6.857142 6.8571352,6.857142 l 82.285719,0 c 3.798857,0 6.857147,-3.058285 6.857147,-6.857142 l 0,-82.2857181 c 0,-3.7988549 -3.05829,-6.8571399 -6.857147,-6.8571399 z"
         style="display:inline;opacity:0.15;fill:#000000;fill-opacity:1;fill-rule:nonzero;stroke:none" />
      <path
         style="display:inline;opacity:0.15;fill:#000000;fill-opacity:1;fill-rule:nonzero;stroke:none"
         d="m 96.543957,-13.915561 -81.000007,0 c -3.739492,0 -6.749993,3.010499 -6.749993,6.7499969 l 0,81.0000031 c 0,3.739501 3.010501,6.75 6.749993,6.75 l 81.000007,0 c 3.739503,0 6.750003,-3.010499 6.750003,-6.75 l 0,-81.0000031 c 0,-3.7394979 -3.0105,-6.7499969 -6.750003,-6.7499969 z"
         id="path4085"
         inkscape:connector-curvature="0" />
      <path
         inkscape:connector-curvature="0"
         id="rect4251-1"
         d="m 95.901096,-13.165561 -79.714282,0 c -3.680143,0 -6.6428566,2.962713 -6.6428566,6.6428549 l 0,79.7142901 c 0,3.680142 2.9627136,6.642856 6.6428566,6.642856 l 79.714282,0 c 3.680143,0 6.642854,-2.962714 6.642854,-6.642856 l 0,-79.7142901 c 0,-3.6801419 -2.962711,-6.6428549 -6.642854,-6.6428549 z"
         style="display:inline;fill:url(#linearGradient7426);fill-opacity:1;fill-rule:nonzero;stroke:none" />
      <g
         transform="matrix(1.1071428,0,0,1.1071426,-107.81316,-18.147702)"
         id="g3272">
        <g
           id="g3995"
           transform="matrix(0.55780906,0,0,0.55780916,111.7424,8.993772)">
          <path
             style="fill:url(#linearGradient3488);fill-opacity:1;stroke:none;stroke-width:7.08661413;stroke-linecap:square;stroke-linejoin:miter;stroke-miterlimit:4;stroke-dasharray:none;stroke-dashoffset:4.1500001;stroke-opacity:1"
             id="path3949"
             d="m 64.984189,5.7924453 c -32.098094,0 -58.207553,26.1094607 -58.207553,58.2075527 1e-6,32.098092 26.109459,58.207552 58.207553,58.207552 32.098096,0 58.239171,-26.10946 58.239171,-58.207552 0,-32.098092 -26.141075,-58.2075527 -58.239171,-58.2075527 z m 0,18.5277707 c 7.126836,0 13.764402,1.935559 19.539526,5.216864 L 30.521271,83.539524 c -3.281305,-5.77512 -5.216864,-12.412691 -5.216864,-19.539526 0,-21.942981 17.736802,-39.679782 39.679782,-39.679782 z m 35.980551,23.049053 c 2.35569,5.060962 3.69923,10.678339 3.69923,16.630729 -1e-5,21.942982 -17.736803,39.679782 -39.679781,39.679782 -5.952388,1e-5 -11.569773,-1.34354 -16.63073,-3.69923 L 100.96474,47.369269 Z"
             inkscape:connector-curvature="0" />
          <path
             style="fill:url(#linearGradient3485);fill-opacity:1;stroke:none;stroke-width:7.08661413;stroke-linecap:square;stroke-linejoin:miter;stroke-miterlimit:4;stroke-dasharray:none;stroke-dashoffset:4.1500001;stroke-opacity:1"
             id="path4059"
             d="m 64.984189,5.7924453 c -32.098094,0 -58.207553,26.1094607 -58.207553,58.2075527 1e-6,32.098092 26.109459,58.207552 58.207553,58.207552 32.098096,0 58.239171,-26.10946 58.239171,-58.207552 0,-32.098092 -26.141075,-58.2075527 -58.239171,-58.2075527 z m 0,18.5277707 c 7.126836,0 13.764402,1.935559 19.539526,5.216864 L 30.521271,83.539524 c -3.281305,-5.77512 -5.216864,-12.412691 -5.216864,-19.539526 0,-21.942981 17.736802,-39.679782 39.679782,-39.679782 z m 35.980551,23.049053 c 2.35569,5.060962 3.69923,10.678339 3.69923,16.630729 -1e-5,21.942982 -17.736803,39.679782 -39.679781,39.679782 -5.952388,1e-5 -11.569773,-1.34354 -16.63073,-3.69923 L 100.96474,47.369269 Z"
             inkscape:connector-curvature="0" />
          <g
             id="g4252"
             clip-path="url(#clipPath4258-5)"
             transform="matrix(1.0117554,0,0,1.0117554,901.39965,-224.22382)">
            <path
               style="opacity:1;fill:url(#radialGradient3440);fill-opacity:1;stroke:none;stroke-width:7.08661413;stroke-linecap:square;stroke-linejoin:miter;stroke-miterlimit:4;stroke-dasharray:none;stroke-dashoffset:4.1500001;stroke-opacity:1;filter:url(#filter4134-1)"
               id="path4063"
               d="m -825.54942,227.34485 c -8.16294,0 -15.92831,1.73432 -22.96875,4.8125 5.96271,3.49921 14.81106,5.71875 24.71875,5.71875 9.06819,0 17.25916,-1.84557 23.15625,-4.84375 -7.54096,-3.63248 -15.9936,-5.6875 -24.90625,-5.6875 z"
               inkscape:connector-curvature="0" />
            <path
               style="opacity:1;fill:url(#radialGradient3442);fill-opacity:1;stroke:none;stroke-width:7.08661413;stroke-linecap:square;stroke-linejoin:miter;stroke-miterlimit:4;stroke-dasharray:none;stroke-dashoffset:4.1500001;stroke-opacity:1;filter:url(#filter4202-9)"
               id="path4069"
               d="m -809.84989,320.21985 c -5.14454,2.47589 -10.90024,3.875 -17,3.875 -3.67701,0 -7.22884,-0.51127 -10.59375,-1.46875 l -4.15625,6.25 c 10.11424,2.62546 21.40166,3.68667 35.5,1 l -3.71875,-9.65625 -0.0312,0 z"
               inkscape:connector-curvature="0" />
            <path
               style="opacity:0.43599997;fill:url(#radialGradient3444);fill-opacity:1;stroke:none;stroke-width:7.08661413;stroke-linecap:square;stroke-linejoin:miter;stroke-miterlimit:4;stroke-dasharray:none;stroke-dashoffset:4.1500001;stroke-opacity:1;filter:url(#filter4248-6)"
               id="path4077"
               d="m -813.3501,336.18981 c -7.60948,2.10607 -15.21895,3.25517 -22.82843,0.68629 l -3.8125,4.25 c 3.88712,0.83152 7.93065,1.28125 12.0625,1.28125 6.0881,0 11.95529,-0.95862 17.46875,-2.71875 l -2.89032,-3.49879 z"
               inkscape:connector-curvature="0" />
            <path
               style="opacity:1;fill:url(#radialGradient3446);fill-opacity:1;stroke:none;stroke-width:7.08661413;stroke-linecap:square;stroke-linejoin:miter;stroke-miterlimit:4;stroke-dasharray:none;stroke-dashoffset:4.1500001;stroke-opacity:1;filter:url(#filter4176-8)"
               id="path4083"
               d="m -816.83807,260.0636 -25.0625,25.0625 2.75,5.25 33.5,-28 -11.1875,-2.3125 z"
               inkscape:connector-curvature="0" />
          </g>
          <path
             style="fill:url(#radialGradient3477);fill-opacity:1;stroke:none;stroke-width:0.49999997;stroke-linecap:square;stroke-linejoin:miter;stroke-miterlimit:4;stroke-dasharray:none;stroke-dashoffset:4.1500001;stroke-opacity:0.44090911"
             id="path3350"
             d="m 64.987883,9.3663194 c -30.158405,0 -54.634791,24.4763866 -54.634791,54.6347916 0,30.158405 24.476386,54.634789 54.634791,54.634789 30.158408,0 54.634797,-24.476384 54.634797,-54.634789 0,-30.158405 -24.476389,-54.6347916 -54.634797,-54.6347916 z m 0,11.3690956 c 9.420799,0 18.157648,3.013564 25.264648,8.132055 L 29.854238,89.265756 c -5.11849,-7.106995 -8.132056,-15.843846 -8.132056,-25.264645 0,-23.882668 19.383033,-43.265696 43.265701,-43.265696 z m 36.870587,20.68542 c 4.03919,6.577999 6.39511,14.300464 6.39511,22.580276 0,23.882668 -19.38303,43.265709 -43.265697,43.265709 -8.27981,0 -16.002279,-2.35593 -22.580275,-6.39512 L 101.85847,41.420835 Z"
             inkscape:connector-curvature="0" />
          <path
             style="fill:url(#linearGradient3474);fill-opacity:1;stroke:none;stroke-width:7.08661413;stroke-linecap:square;stroke-linejoin:miter;stroke-miterlimit:4;stroke-dasharray:none;stroke-dashoffset:4.1500001;stroke-opacity:1"
             id="path3977"
             d="m 64.987882,9.3663194 c -30.158405,0 -54.634792,24.4763866 -54.634792,54.6347916 0,0.423602 0.02202,0.843399 0.03162,1.264694 3.700191,0.744157 7.507811,1.361196 11.445482,1.897042 -0.07495,-1.040955 -0.09485,-2.102125 -0.09485,-3.161736 0,-23.882668 19.369875,-43.252543 43.252544,-43.252543 9.4208,0 18.155273,3.007169 25.262271,8.12566 L 50.06449,69.059888 c 0.08483,1.01e-4 0.168053,0 0.252938,0 8.795426,0 17.300136,-0.514842 25.388738,-1.486016 L 101.85372,41.426319 c 3.47118,5.652971 5.70225,12.157728 6.26024,19.1285 3.90129,-1.296241 7.54439,-2.730657 10.9396,-4.268343 C 115.30012,29.778697 92.526563,9.3663194 64.987882,9.3663194 Z"
             inkscape:connector-curvature="0" />
          <path
             style="fill:url(#linearGradient3471);fill-opacity:1;stroke:none;stroke-width:7.08661413;stroke-linecap:square;stroke-linejoin:miter;stroke-miterlimit:4;stroke-dasharray:none;stroke-dashoffset:4.1500001;stroke-opacity:1"
             id="path4007"
             d="m 64.701528,9.1511595 c -30.158404,0 -54.634796,24.4763865 -54.634796,54.6347915 0,0.158755 -0.0044,0.316305 0,0.47426 0.289655,-29.910413 24.656319,-54.097296 54.634796,-54.097296 27.207682,0 49.749582,19.929254 53.907592,45.971636 0.0511,-0.02306 0.10708,-0.04014 0.15809,-0.06323 C 115.01377,29.563527 92.240205,9.1511595 64.701528,9.1511595 Z M 49.778136,68.844728 c 0.08483,9.1e-5 0.168053,0 0.252938,0 0.254887,0 0.504422,8.6e-4 0.758817,0 L 89.761445,29.367297 49.778136,68.844728 Z M 21.44898,64.386681 c -0.0013,0.138185 0,0.272536 0,0.411026 0,0.720653 0.03377,1.434729 0.06324,2.14998 0.01046,0.0014 0.02117,-0.0014 0.03162,0 -0.06071,-0.843258 -0.0877,-1.702795 -0.09485,-2.561006 z"
             inkscape:connector-curvature="0" />
          <path
             style="fill:url(#linearGradient3467);fill-opacity:1;stroke:none;stroke-width:7.08661413;stroke-linecap:square;stroke-linejoin:miter;stroke-miterlimit:4;stroke-dasharray:none;stroke-dashoffset:4.1500001;stroke-opacity:1"
             id="path4021"
             d="m 91.925054,16.461092 c 13.506926,8.343229 23.098176,22.39466 25.420356,38.794496 -2.99313,1.355571 -5.89105,3.229979 -9.27653,4.401136 0.0524,0.463435 0.0195,0.316356 0.0569,0.784111 3.90129,-1.296251 7.34204,-2.730667 10.73725,-4.268343 -2.40729,-17.00089 -12.64404,-31.502026 -26.937986,-39.7114 z m -26.722995,3.66129 c -23.882668,0 -44.46665,18.965173 -44.46665,42.847841 0,1.059612 -0.688327,2.120781 -0.613376,3.161736 -3.401289,-0.462868 -6.706057,-0.998876 -9.92785,-1.612485 0.0067,0.210425 -0.0048,0.421821 0,0.632347 3.700192,0.744156 7.507812,1.361185 11.445483,1.897041 -0.07495,-1.040954 -0.09485,-2.102124 -0.09485,-3.161735 0,-23.882669 19.369875,-43.252544 43.252543,-43.252544 7.613712,0 14.773571,1.95115 20.993925,5.406568 -6.56176,-4.004578 -12.346027,-5.918769 -20.589223,-5.918769 z m 8.795949,46.420603 c -7.404785,0.889059 -15.169492,1.375086 -23.175522,1.454398 l -0.948521,0.948521 c 0.08484,9.1e-5 0.168053,0 0.252939,0 8.795422,0 17.300137,-0.514852 25.388737,-1.486016 L 101.03085,41.944681 73.998008,66.542985 Z"
             inkscape:connector-curvature="0" />
        </g>
        <path
           style="display:inline;opacity:0.2;fill:url(#radialGradient7428);fill-opacity:1;fill-rule:nonzero;stroke:none"
           d="m 112,5.5 c -2.7873,0 -5,2.2127028 -5,5 l 0,20.71875 0,7 0,38.59375 c 1.07066,1.628779 2.89693,2.71875 5,2.71875 l 4,0 64,0 4,0 c 2.10307,0 3.92934,-1.089971 5,-2.71875 l 0,-38.59375 0,-7 L 189,10.5 c 0,-2.7872972 -2.2127,-5 -5,-5 z"
           id="path3400-6"
           inkscape:connector-curvature="0"
           sodipodi:nodetypes="sscccsccscccsss" />
        <path
           style="display:inline;opacity:0.45;fill:url(#radialGradient7430);fill-opacity:1;fill-rule:nonzero;stroke:none"
           d="m 112,4.5 c -3.324,0 -6,2.6759996 -6,6 l 0,15 1,0 0,-15 c 0,-2.7872972 2.2127,-5 5,-5 l 72,0 c 2.7873,0 5,2.2127028 5,5 l 0,15 1,0 0,-15 c 0,-3.3240004 -2.676,-6 -6,-6 l -72,0 z"
           id="path4236-5"
           inkscape:connector-curvature="0" />
      </g>
      <path
         style="color:#000000;font-style:normal;font-variant:normal;font-weight:normal;font-stretch:normal;font-size:medium;line-height:normal;font-family:Sans;-inkscape-font-specification:Sans;text-indent:0;text-align:start;text-decoration:none;text-decoration-line:none;letter-spacing:normal;word-spacing:normal;text-transform:none;direction:ltr;block-progression:tb;writing-mode:lr-tb;baseline-shift:baseline;text-anchor:start;display:inline;overflow:visible;visibility:visible;fill:#241f1f;fill-opacity:0.63265303;stroke:none;stroke-width:2.3755002;marker:none;enable-background:accumulate"
         d="m 17.869037,-9.9361001 c -3.116621,0 -5.667965,2.53951 -5.667965,5.646004 l 0,69.2779961 c 0,3.106495 2.551344,5.646004 5.667965,5.646004 l 76.791785,0 c 3.116621,0 5.667968,-2.539509 5.667968,-5.646004 l 0,-69.2779961 c 0,-3.106493 -2.551347,-5.646004 -5.667968,-5.646004 l -76.791785,0 z m 0,2.319439 76.791785,0 c 1.888099,0 3.352022,1.480095 3.352022,3.326565 l 0,69.2779961 c 0,1.846474 -1.463923,3.326564 -3.352022,3.326564 l -76.791785,0 c -1.888099,0 -3.352022,-1.48009 -3.352022,-3.326564 l 0,-69.2779961 c 0,-1.84647 1.463923,-3.326565 3.352022,-3.326565 z"
         id="path4989"
         inkscape:connector-curvature="0" />
      <path
         id="path4118"
         d="m 9.5439564,67.178189 0,6 c 0,3.680142 2.9761066,6.65625 6.6562496,6.65625 l 79.6875,0 c 3.680143,0 6.656254,-2.976108 6.656254,-6.65625 l 0,-6 c 0,3.680142 -2.976111,6.65625 -6.656254,6.65625 l -79.6875,0 c -3.680143,0 -6.6562496,-2.976108 -6.6562496,-6.65625 z"
         style="display:inline;opacity:0.65818182;fill:url(#linearGradient7460);fill-opacity:1;fill-rule:nonzero;stroke:none"
         inkscape:connector-curvature="0" />
      <rect
         ry="4.25"
         rx="0"
         y="65.584442"
         x="13.418957"
         height="4.25"
         width="84.250008"
         id="rect4131"
         style="opacity:0.55;fill:url(#radialGradient7462);fill-opacity:1;stroke:none" />
      <rect
         transform="matrix(0,1,-1,0,0,0)"
         style="opacity:0.55;fill:url(#radialGradient7464);fill-opacity:1;stroke:none"
         id="rect4141"
         width="76.75"
         height="4.25"
         x="-9.9155607"
         y="-98.668961"
         rx="0"
         ry="4.25" />
      <path
         inkscape:connector-curvature="0"
         id="rect4190"
         d="m 17.816477,-8.0220611 c -1.993352,0 -3.604492,1.649341 -3.608803,3.684498 L 14.059457,65.623561 c 1.913686,2.521055 1.665283,2.410772 4.851514,2.679065 1.804215,-14.861054 36.499018,-73.3364721 77.418282,-73.3364721 0.488076,0 0.963271,0.01986 1.449204,0.02901 -0.302859,-1.718031 -1.751,-3.017226 -3.523555,-3.017226 z"
         style="opacity:0.3;fill:#ffffff;fill-opacity:1;stroke:none"
         sodipodi:nodetypes="ssccscss" />
      <rect
         clip-path="url(#clipPath4156-4)"
         ry="3.9569881"
         rx="3.9569874"
         y="-30"
         x="2"
         height="92"
         width="92"
         id="rect4146"
         style="fill:url(#linearGradient7128);fill-opacity:1;stroke:none"
         transform="matrix(0.90930469,0,0,0.92837735,12.389064,19.82926)" />
    </g>
  </g>
</svg>
