<?xml version="1.0" encoding="UTF-8" standalone="no"?>
<svg
   xmlns:dc="http://purl.org/dc/elements/1.1/"
   xmlns:cc="http://creativecommons.org/ns#"
   xmlns:rdf="http://www.w3.org/1999/02/22-rdf-syntax-ns#"
   xmlns:svg="http://www.w3.org/2000/svg"
   xmlns="http://www.w3.org/2000/svg"
   xmlns:xlink="http://www.w3.org/1999/xlink"
   xmlns:sodipodi="http://sodipodi.sourceforge.net/DTD/sodipodi-0.dtd"
   xmlns:inkscape="http://www.inkscape.org/namespaces/inkscape"
   viewBox="0 0 48 48"
   version="1.1"
   id="svg79"
   sodipodi:docname="gnome-taquin.svg"
   inkscape:version="0.92.2 5c3e80d, 2017-08-06">
  <metadata
     id="metadata83">
    <rdf:RDF>
      <cc:Work
         rdf:about="">
        <dc:format>image/svg+xml</dc:format>
        <dc:type
           rdf:resource="http://purl.org/dc/dcmitype/StillImage" />
      </cc:Work>
    </rdf:RDF>
  </metadata>
  <sodipodi:namedview
     pagecolor="#ffffff"
     bordercolor="#666666"
     borderopacity="1"
     objecttolerance="10"
     gridtolerance="10"
     guidetolerance="10"
     inkscape:pageopacity="0"
     inkscape:pageshadow="2"
     inkscape:window-width="1280"
     inkscape:window-height="943"
     id="namedview81"
     showgrid="false"
     inkscape:zoom="15.355649"
     inkscape:cx="19.858549"
     inkscape:cy="24"
     inkscape:window-x="0"
     inkscape:window-y="19"
     inkscape:window-maximized="1"
     inkscape:current-layer="g1027" />
  <defs
     id="defs7">
    <linearGradient
       id="linearGradient4087"
       x1="1"
       x2="47"
       gradientUnits="userSpaceOnUse">
      <stop
         style="stop-color:#cfcfcf;stop-opacity:1"
         id="stop2" />
      <stop
         offset="1"
         style="stop-color:#d9d9d9;stop-opacity:1"
         id="stop4" />
    </linearGradient>
    <linearGradient
       inkscape:collect="always"
       xlink:href="#linearGradient6139-0"
       id="linearGradient4071"
       gradientUnits="userSpaceOnUse"
       gradientTransform="matrix(0.55126485,0,0,0.55126475,-2.460715,-1.9094496)"
       x1="6"
       y1="47.000011"
       x2="90"
       y2="47.000011" />
    <linearGradient
       id="linearGradient6139-0">
      <stop
         id="stop6141-2"
         offset="0"
         style="stop-color:#b2babc;stop-opacity:1" />
      <stop
         style="stop-color:#ffffff;stop-opacity:1;"
         offset="0.25"
         id="stop6151-0" />
      <stop
         style="stop-color:#96a1a4;stop-opacity:1"
         offset="0.5"
         id="stop6147-1" />
      <stop
         id="stop6149-4"
         offset="0.75"
         style="stop-color:#fbf9f9;stop-opacity:1;" />
      <stop
         id="stop6143-4"
         offset="1"
         style="stop-color:#b2b9bc;stop-opacity:1" />
    </linearGradient>
    <linearGradient
       gradientTransform="matrix(0.49791667,0,0,0.49791666,0.09999873,0.09999967)"
       inkscape:collect="always"
       xlink:href="#linearGradient3832-0-6-1-1"
       id="linearGradient4129"
       x1="1.5"
       y1="88.171875"
       x2="94.5"
       y2="88.171875"
       gradientUnits="userSpaceOnUse" />
    <linearGradient
       id="linearGradient3832-0-6-1-1">
      <stop
         style="stop-color:#000000;stop-opacity:1;"
         offset="0"
         id="stop3834-6-3-7-1" />
      <stop
         id="stop3872-2-4"
         offset="0.1"
         style="stop-color:#000000;stop-opacity:0.58823532;" />
      <stop
         style="stop-color:#000000;stop-opacity:0.58823532;"
         offset="0.89999998"
         id="stop3844-6-2-7-6" />
      <stop
         style="stop-color:#000000;stop-opacity:1;"
         offset="1"
         id="stop3836-5-0-2-9" />
    </linearGradient>
    <radialGradient
       inkscape:collect="always"
       xlink:href="#linearGradient3737"
       id="radialGradient7462"
       gradientUnits="userSpaceOnUse"
       gradientTransform="matrix(0.48553536,0,0,0.02449288,16.978724,40.016334)"
       cx="13.948145"
       cy="44.892841"
       fx="13.948145"
       fy="44.892841"
       r="43.199203" />
    <linearGradient
       id="linearGradient3737">
      <stop
         offset="0"
         style="stop-color:#ffffff;stop-opacity:1"
         id="stop3739" />
      <stop
         offset="1"
         style="stop-color:#ffffff;stop-opacity:0"
         id="stop3741" />
    </linearGradient>
    <radialGradient
       inkscape:collect="always"
       xlink:href="#linearGradient3737"
       id="radialGradient7464"
       gradientUnits="userSpaceOnUse"
       gradientTransform="matrix(0.44231264,0,0,0.02449288,15.806528,-44.996301)"
       cx="13.948145"
       cy="44.892841"
       fx="13.948145"
       fy="44.892841"
       r="43.199203" />
    <linearGradient
       inkscape:collect="always"
       xlink:href="#linearGradient3737"
       id="linearGradient4767"
       gradientUnits="userSpaceOnUse"
       x1="2.7713892"
       y1="-28.64156"
       x2="50.527882"
       y2="14.514202" />
    <clipPath
       id="clipPath4156-4-1"
       clipPathUnits="userSpaceOnUse">
      <path
         inkscape:connector-curvature="0"
         id="path4158-0-8"
         d="m 27.046336,-55.695463 -14.21366,13.321486 h 0.06127 l 15.653407,21.770763 10.231384,-10.546177 C 38.561832,-32.30156 27.468089,-54.819245 27.046336,-55.695463 Z M 9.6468554,-39.382809 -5.2407289,-25.32124 15.987863,-7.8059573 26.372412,-18.382966 Z m 31.4906096,12.951445 -9.741259,9.713584 8.944804,12.4580526 7.780753,-7.5550056 z m -49.8397109,4.378822 -13.7541661,12.9822847 26.2830181,13.84571 0.06127,-0.0617 -0.122531,-0.0617 L 13.598503,-5.4007374 -8.7022409,-22.052595 Z m 38.0154159,7.400825 -9.802525,9.7752596 11.579232,9.5594001 7.62759,-7.40083 -8.669108,-11.0087257 z m 20.187073,5.6739697 -7.382526,7.2158 6.187844,8.54179 5.820249,-6.13651996 z m -32.195166,6.32154 -9.5574606,9.49772 13.6622686,7.1849703 7.933918,-7.6783603 z m 23.311629,2.37443004 -7.10683,6.93826996 8.362778,6.9074403 5.360756,-5.6739699 -0.06127,-0.0925 -0.0919,0.12335 -6.463539,-8.20258036 z m -8.730374,8.54178036 -7.505057,7.3391599 10.353916,5.45811 c 1.397496,-1.32103 5.67514,-6.12292 5.850882,-6.32154 z"
         style="opacity:0.6;fill:#ffffff;fill-opacity:1;stroke:none" />
    </clipPath>
    <filter
       inkscape:collect="always"
       style="color-interpolation-filters:sRGB"
       id="filter872"
       x="-0.012"
       width="1.024"
       y="-0.012"
       height="1.024">
      <feGaussianBlur
         inkscape:collect="always"
         stdDeviation="0.11"
         id="feGaussianBlur874" />
    </filter>
  </defs>
  <path
     style="display:inline;opacity:0.15;fill:#000000;fill-opacity:1;fill-rule:nonzero;stroke:none;stroke-width:0.49791667"
     d="M 44.485713,0.09999967 H 3.5142818 c -1.8915097,0 -3.41428187,1.52277053 -3.41428187,3.41428433 v 40.97143 C 0.09999993,46.377228 1.6227721,47.9 3.5142818,47.9 H 44.485713 C 46.377226,47.9 47.9,46.377228 47.9,44.485714 V 3.514284 c 0,-1.8915138 -1.522774,-3.41428433 -3.414287,-3.41428433 z"
     id="path3288"
     inkscape:connector-curvature="0" />
  <path
     inkscape:connector-curvature="0"
     id="path4085"
     d="M 44.165624,0.47343717 H 3.8343706 c -1.8619555,0 -3.36093407,1.49897713 -3.36093407,3.36093553 V 44.165625 c 0,1.861959 1.49897857,3.360937 3.36093407,3.360937 H 44.165624 c 1.86196,0 3.360939,-1.498978 3.360939,-3.360937 V 3.8343727 c 0,-1.8619584 -1.498979,-3.36093553 -3.360939,-3.36093553 z"
     style="display:inline;opacity:0.15;fill:#000000;fill-opacity:1;fill-rule:nonzero;stroke:none;stroke-width:0.49791667" />
  <path
     style="display:inline;fill:url(#linearGradient4071);fill-opacity:1;fill-rule:nonzero;stroke:none;stroke-width:0.49791667"
     d="M 43.845532,0.84687467 H 4.1544633 c -1.8324046,0 -3.30758907,1.47518463 -3.30758907,3.30758773 V 43.845536 c 0,1.832405 1.47518447,3.307589 3.30758907,3.307589 H 43.845532 c 1.832405,0 3.307588,-1.475185 3.307588,-3.307589 V 4.1544624 c 0,-1.8324031 -1.475183,-3.30758773 -3.307588,-3.30758773 z"
     id="rect4251-1"
     inkscape:connector-curvature="0" />
  <path
     style="display:inline;opacity:0.98000004;fill:#eeeeee;fill-opacity:1;fill-rule:nonzero;stroke:none;stroke-width:0.51566219"
     d="m 5.6972261,3.2802641 c -1.4222972,0 -2.551389,1.1530465 -2.551389,2.6055173 v 10.7966076 3.647723 20.111331 c 0.5463341,0.848762 1.4782393,1.416749 2.551389,1.416749 H 7.7383374 40.396118 43.2187 c 1.073151,0 1.223584,0.01811 1.769919,-0.830645 V 20.330112 16.682389 5.8857814 c 0,-1.4524708 -1.129092,-2.6055173 -2.55139,-2.6055173 z"
     id="path3400-6"
     inkscape:connector-curvature="0"
     sodipodi:nodetypes="sscccsccscccsss" />
  <path
     inkscape:connector-curvature="0"
     id="path4989"
     d="m 4.9920701,2.4548766 c -1.5518175,0 -2.8221742,1.2644644 -2.8221742,2.8112405 V 39.760786 c 0,1.546775 1.2703567,2.811239 2.8221742,2.811239 H 43.227979 c 1.551818,0 2.822176,-1.264464 2.822176,-2.811239 V 5.2661171 c 0,-1.5467751 -1.270358,-2.8112405 -2.822176,-2.8112405 z m 0,1.1548879 H 43.227979 c 0.940117,0 1.669028,0.7369634 1.669028,1.6563526 V 39.760786 c 0,0.91939 -0.728911,1.65635 -1.669028,1.65635 H 4.9920701 c -0.9401159,0 -1.6690276,-0.73696 -1.6690276,-1.65635 V 5.2661171 c 0,-0.9193892 0.7289117,-1.6563526 1.6690276,-1.6563526 z"
     style="color:#000000;font-style:normal;font-variant:normal;font-weight:normal;font-stretch:normal;font-size:medium;line-height:normal;font-family:Sans;-inkscape-font-specification:Sans;text-indent:0;text-align:start;text-decoration:none;text-decoration-line:none;letter-spacing:normal;word-spacing:normal;text-transform:none;writing-mode:lr-tb;direction:ltr;baseline-shift:baseline;text-anchor:start;display:inline;overflow:visible;visibility:visible;fill:#1f2224;fill-opacity:0.80869565;stroke:none;stroke-width:1.18280113;marker:none;enable-background:accumulate" />
  <path
     inkscape:connector-curvature="0"
     style="display:inline;opacity:0.65818182;fill:url(#linearGradient4129);fill-opacity:1;fill-rule:nonzero;stroke:none;stroke-width:0.49791667"
     d="m 0.84687373,40.851367 v 2.9875 c 0,1.832404 1.48185307,3.314258 3.31425767,3.314258 H 43.838865 c 1.832405,0 3.31426,-1.481854 3.31426,-3.314258 v -2.9875 c 0,1.832404 -1.481855,3.314258 -3.31426,3.314258 H 4.1611314 c -1.8324046,0 -3.31425767,-1.481854 -3.31425767,-3.314258 z"
     id="path4118" />
  <rect
     style="opacity:0.55;fill:url(#radialGradient7462);fill-opacity:1;stroke:none;stroke-width:0.49791667"
     id="rect4131"
     width="41.949482"
     height="2.1161458"
     x="2.7763009"
     y="40.057812"
     rx="0"
     ry="2.1161458" />
  <rect
     ry="2.1161458"
     rx="0"
     y="-44.954826"
     x="2.8684161"
     height="2.1161458"
     width="38.215103"
     id="rect4141"
     style="opacity:0.669;fill:url(#radialGradient7464);fill-opacity:1;stroke:none;stroke-width:0.49791667"
     transform="rotate(90)" />
  <g
     transform="matrix(1.4333088,0,0,1.4333088,77.506146,68.736019)"
     id="g1027">
    <path
       inkscape:connector-curvature="0"
       id="path21"
       style="opacity:0.183;fill:#000000;fill-opacity:0.99176955;stroke:none;filter:url(#filter872)"
       d="m -47.830508,-20.745763 v -22 h 8 v 7 h 3 v -7 h 8 v 7 h 3 v 15 z" />
    <g
       transform="translate(-61.830508,-56.745763)"
       id="g77">
      <path
         inkscape:connector-curvature="0"
         id="path27"
         style="fill:#353535;fill-opacity:1;stroke:none"
         d="M 13,35 V 13 h 8 v 7 h 3 v -7 h 8 v 7 h 3 v 15 z" />
      <rect
         id="rect29"
         style="opacity:1;fill:#e3e1b1;fill-opacity:1;fill-rule:nonzero;stroke:none"
         width="6"
         height="6"
         x="14"
         y="14" />
      <rect
         id="rect31"
         style="fill:#e3e1b1;fill-opacity:1;fill-rule:nonzero;stroke:none"
         width="6"
         height="6"
         x="25"
         y="14" />
      <rect
         id="rect33"
         style="opacity:1;fill:#e3e1b1;fill-opacity:1;fill-rule:nonzero;stroke:none"
         width="6"
         height="6"
         x="14"
         y="21" />
      <rect
         id="rect35"
         style="opacity:1;fill:#e3e1b1;fill-opacity:1;fill-rule:nonzero;stroke:none"
         width="6"
         height="6"
         x="21"
         y="21" />
      <rect
         id="rect37"
         style="opacity:1;fill:#e3e1b1;fill-opacity:1;fill-rule:nonzero;stroke:none"
         width="6"
         height="6"
         x="28"
         y="21" />
      <rect
         id="rect39"
         style="opacity:1;fill:#e3e1b1;fill-opacity:1;fill-rule:nonzero;stroke:none"
         width="6"
         height="6"
         x="14"
         y="28" />
      <rect
         id="rect41"
         style="opacity:1;fill:#e3e1b1;fill-opacity:1;fill-rule:nonzero;stroke:none"
         width="6"
         height="6"
         x="21"
         y="28" />
      <rect
         id="rect43"
         style="opacity:1;fill:#e3e1b1;fill-opacity:1;fill-rule:nonzero;stroke:none"
         width="6"
         height="6"
         x="28"
         y="28" />
      <g
         id="g47"
         style="fill:#2d2d2d;fill-opacity:1;stroke:none">
        <path
           inkscape:connector-curvature="0"
           id="path45"
           d="m 16.15,18.502 h 2.065 V 19 h -2.777 v -0.498 c 0.225,-0.232 0.53,-0.544 0.917,-0.935 0.389,-0.393 0.633,-0.646 0.732,-0.759 0.189,-0.213 0.321,-0.393 0.396,-0.539 0.076,-0.148 0.114,-0.294 0.114,-0.437 0,-0.232 -0.082,-0.422 -0.246,-0.568 -0.162,-0.146 -0.374,-0.22 -0.636,-0.22 -0.186,0 -0.382,0.032 -0.589,0.097 -0.205,0.064 -0.425,0.162 -0.659,0.293 v -0.598 c 0.238,-0.096 0.461,-0.168 0.668,-0.217 0.207,-0.049 0.396,-0.073 0.568,-0.073 0.453,0 0.814,0.113 1.084,0.34 0.27,0.227 0.404,0.529 0.404,0.908 0,0.18 -0.034,0.351 -0.103,0.513 -0.066,0.16 -0.188,0.35 -0.366,0.568 -0.049,0.057 -0.204,0.221 -0.466,0.492 -0.262,0.27 -0.631,0.647 -1.107,1.134" />
      </g>
      <g
         id="g51"
         style="fill:#2d2d2d;fill-opacity:1;stroke:none">
        <path
           inkscape:connector-curvature="0"
           id="path49"
           d="m 28.05,16.642 c 0.283,0.061 0.504,0.187 0.662,0.378 0.16,0.191 0.24,0.428 0.24,0.709 0,0.432 -0.148,0.766 -0.445,1 -0.297,0.236 -0.719,0.354 -1.266,0.354 -0.184,0 -0.373,-0.019 -0.568,-0.056 -0.193,-0.035 -0.394,-0.089 -0.601,-0.161 v -0.571 c 0.164,0.096 0.344,0.168 0.539,0.217 0.195,0.049 0.399,0.073 0.612,0.073 0.371,0 0.653,-0.073 0.847,-0.22 0.195,-0.146 0.293,-0.359 0.293,-0.639 0,-0.258 -0.091,-0.459 -0.272,-0.604 -0.18,-0.146 -0.431,-0.22 -0.753,-0.22 h -0.51 v -0.486 h 0.533 c 0.291,0 0.514,-0.058 0.668,-0.173 0.154,-0.117 0.231,-0.285 0.231,-0.504 0,-0.225 -0.08,-0.396 -0.24,-0.516 -0.158,-0.121 -0.386,-0.182 -0.683,-0.182 -0.162,0 -0.336,0.018 -0.521,0.053 -0.186,0.035 -0.39,0.09 -0.612,0.164 v -0.527 c 0.225,-0.063 0.435,-0.109 0.63,-0.141 0.197,-0.031 0.383,-0.047 0.557,-0.047 0.449,0 0.805,0.103 1.066,0.308 0.262,0.203 0.393,0.479 0.393,0.826 0,0.242 -0.069,0.447 -0.208,0.615 -0.139,0.166 -0.336,0.281 -0.592,0.346" />
      </g>
      <g
         id="g55"
         style="fill:#2d2d2d;fill-opacity:1;stroke:none">
        <path
           inkscape:connector-curvature="0"
           id="path53"
           d="m 17.268,22.14 -1.494,2.335 h 1.494 V 22.14 m -0.155,-0.516 h 0.744 v 2.851 h 0.624 v 0.492 h -0.624 v 1.031 h -0.589 v -1.031 h -1.975 v -0.571 l 1.819,-2.771" />
      </g>
      <g
         id="g59"
         style="fill:#2d2d2d;fill-opacity:1;stroke:none">
        <path
           inkscape:connector-curvature="0"
           id="path57"
           d="m 22.969,21.626 h 2.323 v 0.498 h -1.781 v 1.072 c 0.086,-0.029 0.172,-0.051 0.258,-0.064 0.086,-0.016 0.172,-0.023 0.258,-0.023 0.488,0 0.875,0.134 1.16,0.401 0.285,0.268 0.428,0.63 0.428,1.087 0,0.471 -0.146,0.837 -0.439,1.099 -0.293,0.26 -0.706,0.39 -1.239,0.39 -0.184,0 -0.371,-0.016 -0.563,-0.047 -0.189,-0.031 -0.386,-0.078 -0.589,-0.141 v -0.595 c 0.176,0.096 0.357,0.167 0.545,0.214 0.187,0.047 0.386,0.07 0.595,0.07 0.338,0 0.605,-0.089 0.803,-0.267 0.197,-0.178 0.296,-0.419 0.296,-0.724 0,-0.305 -0.099,-0.546 -0.296,-0.724 -0.197,-0.178 -0.465,-0.267 -0.803,-0.267 -0.158,0 -0.316,0.018 -0.475,0.053 -0.156,0.035 -0.316,0.09 -0.48,0.164 v -2.197" />
      </g>
      <g
         id="g63"
         style="fill:#2d2d2d;fill-opacity:1;stroke:none">
        <path
           inkscape:connector-curvature="0"
           id="path61"
           d="m 30.98,23.577 c -0.266,0 -0.477,0.091 -0.633,0.272 -0.154,0.182 -0.231,0.431 -0.231,0.747 0,0.314 0.077,0.563 0.231,0.747 0.156,0.182 0.367,0.272 0.633,0.272 0.266,0 0.476,-0.091 0.63,-0.272 0.156,-0.184 0.234,-0.433 0.234,-0.747 0,-0.316 -0.078,-0.565 -0.234,-0.747 -0.154,-0.182 -0.364,-0.272 -0.63,-0.272 m 1.175,-1.854 v 0.539 c -0.148,-0.07 -0.299,-0.124 -0.451,-0.161 -0.15,-0.037 -0.3,-0.056 -0.448,-0.056 -0.391,0 -0.689,0.132 -0.896,0.396 -0.205,0.264 -0.322,0.662 -0.352,1.195 0.115,-0.17 0.26,-0.3 0.434,-0.39 0.174,-0.092 0.365,-0.138 0.574,-0.138 0.439,0 0.786,0.134 1.04,0.401 0.256,0.266 0.384,0.628 0.384,1.087 0,0.449 -0.133,0.81 -0.398,1.081 -0.266,0.271 -0.619,0.407 -1.061,0.407 -0.506,0 -0.893,-0.193 -1.16,-0.58 -0.268,-0.389 -0.401,-0.951 -0.401,-1.688 0,-0.691 0.164,-1.242 0.492,-1.652 0.328,-0.412 0.769,-0.618 1.321,-0.618 0.148,0 0.298,0.015 0.448,0.044 0.152,0.029 0.311,0.073 0.475,0.132" />
      </g>
      <g
         id="g67"
         style="fill:#2d2d2d;fill-opacity:1;stroke:none">
        <path
           inkscape:connector-curvature="0"
           id="path65"
           d="m 15.492,28.626 h 2.812 v 0.252 L 16.716,33 h -0.618 l 1.494,-3.876 h -2.101 v -0.498" />
      </g>
      <g
         id="g71"
         style="fill:#2d2d2d;fill-opacity:1;stroke:none">
        <path
           inkscape:connector-curvature="0"
           id="path69"
           d="m 23.907,30.923 c -0.281,0 -0.503,0.075 -0.665,0.226 -0.16,0.15 -0.24,0.357 -0.24,0.621 0,0.264 0.08,0.471 0.24,0.621 0.162,0.15 0.384,0.226 0.665,0.226 0.281,0 0.503,-0.075 0.665,-0.226 0.162,-0.152 0.243,-0.359 0.243,-0.621 0,-0.264 -0.081,-0.471 -0.243,-0.621 -0.16,-0.15 -0.382,-0.226 -0.665,-0.226 m -0.592,-0.252 c -0.254,-0.063 -0.452,-0.181 -0.595,-0.354 -0.141,-0.174 -0.211,-0.386 -0.211,-0.636 0,-0.35 0.124,-0.626 0.372,-0.829 0.25,-0.203 0.592,-0.305 1.025,-0.305 0.436,0 0.777,0.102 1.025,0.305 0.248,0.203 0.372,0.479 0.372,0.829 0,0.25 -0.071,0.462 -0.214,0.636 -0.141,0.174 -0.337,0.292 -0.589,0.354 0.285,0.066 0.507,0.196 0.665,0.39 0.16,0.193 0.24,0.43 0.24,0.709 0,0.424 -0.13,0.749 -0.39,0.976 -0.258,0.227 -0.628,0.34 -1.11,0.34 -0.482,0 -0.854,-0.113 -1.113,-0.34 -0.258,-0.227 -0.387,-0.552 -0.387,-0.976 0,-0.279 0.08,-0.516 0.24,-0.709 0.16,-0.193 0.383,-0.323 0.668,-0.39 m -0.217,-0.935 c 0,0.227 0.07,0.403 0.211,0.53 0.143,0.127 0.342,0.19 0.598,0.19 0.254,0 0.452,-0.063 0.595,-0.19 0.145,-0.127 0.217,-0.304 0.217,-0.53 0,-0.227 -0.072,-0.403 -0.217,-0.53 -0.143,-0.127 -0.341,-0.19 -0.595,-0.19 -0.256,0 -0.455,0.063 -0.598,0.19 -0.141,0.127 -0.211,0.304 -0.211,0.53" />
      </g>
      <g
         id="g75"
         style="fill:#2d2d2d;fill-opacity:1;stroke:none">
        <path
           inkscape:connector-curvature="0"
           id="path73"
           d="M 29.659,32.909 V 32.37 c 0.148,0.07 0.299,0.124 0.451,0.161 0.152,0.037 0.302,0.056 0.448,0.056 0.391,0 0.688,-0.131 0.894,-0.393 0.207,-0.264 0.325,-0.663 0.354,-1.198 -0.113,0.168 -0.257,0.297 -0.431,0.387 -0.174,0.09 -0.366,0.135 -0.577,0.135 -0.438,0 -0.784,-0.132 -1.04,-0.396 -0.254,-0.266 -0.381,-0.628 -0.381,-1.087 0,-0.449 0.133,-0.81 0.398,-1.081 0.266,-0.271 0.619,-0.407 1.061,-0.407 0.506,0 0.892,0.194 1.157,0.583 0.268,0.387 0.401,0.949 0.401,1.688 0,0.689 -0.164,1.24 -0.492,1.652 -0.326,0.41 -0.766,0.615 -1.318,0.615 -0.148,0 -0.299,-0.015 -0.451,-0.044 -0.152,-0.029 -0.311,-0.073 -0.475,-0.132 m 1.178,-1.854 c 0.266,0 0.476,-0.091 0.63,-0.272 0.156,-0.182 0.234,-0.431 0.234,-0.747 0,-0.314 -0.078,-0.562 -0.234,-0.744 -0.154,-0.184 -0.364,-0.275 -0.63,-0.275 -0.266,0 -0.477,0.092 -0.633,0.275 -0.154,0.182 -0.231,0.43 -0.231,0.744 0,0.316 0.077,0.565 0.231,0.747 0.156,0.182 0.367,0.272 0.633,0.272" />
      </g>
    </g>
  </g>
  <rect
     transform="matrix(0.53239495,0,0,0.52165878,2.2386637,19.259328)"
     style="opacity:0.7;fill:url(#linearGradient4767);fill-opacity:1;stroke:none"
     id="rect4146"
     width="75.965775"
     height="69.024437"
     x="2"
     y="-30"
     rx="3.9569874"
     ry="3.9569881"
     clip-path="url(#clipPath4156-4-1)" />
</svg>
