<?xml version="1.0" encoding="UTF-8" standalone="no"?>
<!-- Created with Inkscape (http://www.inkscape.org/) -->

<svg
   xmlns:dc="http://purl.org/dc/elements/1.1/"
   xmlns:cc="http://creativecommons.org/ns#"
   xmlns:rdf="http://www.w3.org/1999/02/22-rdf-syntax-ns#"
   xmlns:svg="http://www.w3.org/2000/svg"
   xmlns="http://www.w3.org/2000/svg"
   xmlns:xlink="http://www.w3.org/1999/xlink"
   xmlns:sodipodi="http://sodipodi.sourceforge.net/DTD/sodipodi-0.dtd"
   xmlns:inkscape="http://www.inkscape.org/namespaces/inkscape"
   width="96"
   height="96"
   viewBox="0 0 96.000001 96.000004"
   version="1.1"
   id="svg1072"
   inkscape:version="0.92.2 5c3e80d, 2017-08-06"
   sodipodi:docname="wxbanker.svg">
  <defs
     id="defs1066">
    <linearGradient
       y2="47.000011"
       x2="90"
       y1="47.000011"
       x1="6"
       gradientTransform="matrix(1.1071428,0,0,1.1071426,-4.9939026,-3.620687)"
       gradientUnits="userSpaceOnUse"
       id="linearGradient4071"
       xlink:href="#linearGradient6139-0"
       inkscape:collect="always" />
    <linearGradient
       id="linearGradient6139-0">
      <stop
         style="stop-color:#b0bbbe;stop-opacity:1"
         offset="0"
         id="stop6141-2" />
      <stop
         id="stop6151-0"
         offset="0.25"
         style="stop-color:#ffffff;stop-opacity:1;" />
      <stop
         id="stop6147-1"
         offset="0.5"
         style="stop-color:#94a2a6;stop-opacity:1" />
      <stop
         style="stop-color:#fbf9f9;stop-opacity:1;"
         offset="0.75"
         id="stop6149-4" />
      <stop
         style="stop-color:#b1babd;stop-opacity:1"
         offset="1"
         id="stop6143-4" />
    </linearGradient>
    <linearGradient
       gradientUnits="userSpaceOnUse"
       y2="88.171875"
       x2="94.5"
       y1="88.171875"
       x1="1.5"
       id="linearGradient4129"
       xlink:href="#linearGradient3832-0-6-1-1"
       inkscape:collect="always"
       gradientTransform="translate(0.1489535,0.415026)" />
    <linearGradient
       id="linearGradient3832-0-6-1-1">
      <stop
         id="stop3834-6-3-7-1"
         offset="0"
         style="stop-color:#000000;stop-opacity:1;" />
      <stop
         style="stop-color:#000000;stop-opacity:0.58823532;"
         offset="0.1"
         id="stop3872-2-4" />
      <stop
         id="stop3844-6-2-7-6"
         offset="0.89999998"
         style="stop-color:#000000;stop-opacity:0.58823532;" />
      <stop
         id="stop3836-5-0-2-9"
         offset="1"
         style="stop-color:#000000;stop-opacity:1;" />
    </linearGradient>
    <radialGradient
       r="43.199203"
       fy="44.892841"
       fx="13.948145"
       cy="44.892841"
       cx="13.948145"
       gradientTransform="matrix(0.97513378,0,0,0.04919072,34.047649,80.581722)"
       gradientUnits="userSpaceOnUse"
       id="radialGradient7462"
       xlink:href="#linearGradient3737"
       inkscape:collect="always" />
    <linearGradient
       id="linearGradient3737">
      <stop
         id="stop3739"
         style="stop-color:#ffffff;stop-opacity:1"
         offset="0" />
      <stop
         id="stop3741"
         style="stop-color:#ffffff;stop-opacity:0"
         offset="1" />
    </linearGradient>
    <radialGradient
       r="43.199203"
       fy="44.892841"
       fx="13.948145"
       cy="44.892841"
       cx="13.948145"
       gradientTransform="matrix(0.88832663,0,0,0.04919072,31.959518,-90.31726)"
       gradientUnits="userSpaceOnUse"
       id="radialGradient7464"
       xlink:href="#linearGradient3737"
       inkscape:collect="always" />
    <linearGradient
       y2="14.514202"
       x2="50.527882"
       y1="-28.64156"
       x1="2.7713892"
       gradientUnits="userSpaceOnUse"
       id="linearGradient4767"
       xlink:href="#linearGradient3737"
       inkscape:collect="always" />
    <clipPath
       clipPathUnits="userSpaceOnUse"
       id="clipPath4156-4-1">
      <path
         style="opacity:0.6;fill:#ffffff;fill-opacity:1;stroke:none"
         d="m 27.046336,-55.695463 -14.21366,13.321486 h 0.06127 l 15.653407,21.770763 10.231384,-10.546177 C 38.561832,-32.30156 27.468089,-54.819245 27.046336,-55.695463 Z M 9.6468554,-39.382809 -5.2407289,-25.32124 15.987863,-7.8059573 26.372412,-18.382966 Z m 31.4906096,12.951445 -9.741259,9.713584 8.944804,12.4580526 7.780753,-7.5550056 z m -49.8397109,4.378822 -13.7541661,12.9822847 26.2830181,13.84571 0.06127,-0.0617 -0.122531,-0.0617 L 13.598503,-5.4007374 -8.7022409,-22.052595 Z m 38.0154159,7.400825 -9.802525,9.7752596 11.579232,9.5594001 7.62759,-7.40083 -8.669108,-11.0087257 z m 20.187073,5.6739697 -7.382526,7.2158 6.187844,8.54179 5.820249,-6.13651996 z m -32.195166,6.32154 -9.5574606,9.49772 13.6622686,7.1849703 7.933918,-7.6783603 z m 23.311629,2.37443004 -7.10683,6.93826996 8.362778,6.9074403 5.360756,-5.6739699 -0.06127,-0.0925 -0.0919,0.12335 -6.463539,-8.20258036 z m -8.730374,8.54178036 -7.505057,7.3391599 10.353916,5.45811 c 1.397496,-1.32103 5.67514,-6.12292 5.850882,-6.32154 z"
         id="path4158-0-8"
         inkscape:connector-curvature="0" />
    </clipPath>
    <linearGradient
       gradientUnits="userSpaceOnUse"
       xlink:href="#linearGradient3737"
       id="linearGradient3146"
       y2="109.10714"
       x2="48"
       y1="6"
       x1="48"
       gradientTransform="translate(-165.48898,109.3749)" />
    <filter
       style="color-interpolation-filters:sRGB"
       inkscape:collect="always"
       id="filter4929">
      <feGaussianBlur
         inkscape:collect="always"
         stdDeviation="0.42000919"
         id="feGaussianBlur4931" />
    </filter>
    <linearGradient
       gradientTransform="matrix(1.0058652,0,0,0.994169,-84.658864,40.260628)"
       gradientUnits="userSpaceOnUse"
       id="ButtonShadow"
       y2="7.0165396"
       x2="45.447727"
       y1="92.539597"
       x1="45.447727">
      <stop
         offset="0"
         style="stop-color:#000000;stop-opacity:1"
         id="stop3750" />
      <stop
         offset="1"
         style="stop-color:#000000;stop-opacity:0.58823532"
         id="stop3752" />
    </linearGradient>
    <filter
       style="color-interpolation-filters:sRGB"
       id="filter3174">
      <feGaussianBlur
         stdDeviation="1.71"
         id="feGaussianBlur3176" />
    </filter>
    <linearGradient
       gradientTransform="matrix(0.88888883,0,0,0.88888883,5.3211362,38.138104)"
       gradientUnits="userSpaceOnUse"
       xlink:href="#linearGradient4088"
       id="linearGradient4053"
       y2="8.8750048"
       x2="37.875"
       y1="-62"
       x1="37.875" />
    <linearGradient
       id="linearGradient4088">
      <stop
         offset="0"
         style="stop-color:#d5b742;stop-opacity:1"
         id="stop4090" />
      <stop
         offset="0.34920636"
         style="stop-color:#f5e6aa;stop-opacity:1"
         id="stop4094" />
      <stop
         offset="0.5714286"
         style="stop-color:#e0bf55;stop-opacity:1"
         id="stop4096" />
      <stop
         offset="1"
         style="stop-color:#8a6e24;stop-opacity:1"
         id="stop4092" />
    </linearGradient>
  </defs>
  <sodipodi:namedview
     id="base"
     pagecolor="#ffffff"
     bordercolor="#666666"
     borderopacity="1.0"
     inkscape:pageopacity="0.0"
     inkscape:pageshadow="2"
     inkscape:zoom="2.4563246"
     inkscape:cx="-49.62766"
     inkscape:cy="42.883591"
     inkscape:document-units="px"
     inkscape:current-layer="g2574"
     showgrid="false"
     inkscape:showpageshadow="false"
     units="px"
     inkscape:lockguides="true"
     inkscape:window-width="1280"
     inkscape:window-height="972"
     inkscape:window-x="0"
     inkscape:window-y="23"
     inkscape:window-maximized="1"
     inkscape:snap-global="false">
    <sodipodi:guide
       position="0,0"
       orientation="0,96"
       id="guide1621"
       inkscape:locked="true" />
    <sodipodi:guide
       position="96.000002,0"
       orientation="-96,0"
       id="guide1623"
       inkscape:locked="true" />
    <sodipodi:guide
       position="96.000002,96.000002"
       orientation="0,-96"
       id="guide1625"
       inkscape:locked="true" />
    <sodipodi:guide
       position="0,96.000002"
       orientation="96,0"
       id="guide1627"
       inkscape:locked="true" />
  </sodipodi:namedview>
  <metadata
     id="metadata1069">
    <rdf:RDF>
      <cc:Work
         rdf:about="">
        <dc:format>image/svg+xml</dc:format>
        <dc:type
           rdf:resource="http://purl.org/dc/dcmitype/StillImage" />
        <dc:title />
        <dc:date>2017</dc:date>
        <dc:creator>
          <cc:Agent>
            <dc:title>Cristian Pozzessere &quot;ilnanny&quot;</dc:title>
          </cc:Agent>
        </dc:creator>
        <dc:subject>
          <rdf:Bag>
            <rdf:li>Global language</rdf:li>
          </rdf:Bag>
        </dc:subject>
        <dc:description>Playing with Inkscape on Gnu/Linux O. S.</dc:description>
        <dc:contributor>
          <cc:Agent>
            <dc:title>In the night, alone like a dog.</dc:title>
          </cc:Agent>
        </dc:contributor>
        <cc:license
           rdf:resource="http://creativecommons.org/licenses/by-sa/4.0/" />
      </cc:Work>
      <cc:License
         rdf:about="http://creativecommons.org/licenses/by-sa/4.0/">
        <cc:permits
           rdf:resource="http://creativecommons.org/ns#Reproduction" />
        <cc:permits
           rdf:resource="http://creativecommons.org/ns#Distribution" />
        <cc:requires
           rdf:resource="http://creativecommons.org/ns#Notice" />
        <cc:requires
           rdf:resource="http://creativecommons.org/ns#Attribution" />
        <cc:permits
           rdf:resource="http://creativecommons.org/ns#DerivativeWorks" />
        <cc:requires
           rdf:resource="http://creativecommons.org/ns#ShareAlike" />
      </cc:License>
    </rdf:RDF>
  </metadata>
  <g
     inkscape:label="Livello 1"
     inkscape:groupmode="layer"
     id="layer1"
     transform="translate(0,-1026.5197)">
    <g
       transform="translate(-0.14895645,1026.1047)"
       style="display:inline"
       id="g2574">
      <path
         inkscape:connector-curvature="0"
         id="path3288"
         d="M 89.29181,0.415026 H 7.0060911 c -3.798848,0 -6.8571352,3.058285 -6.8571352,6.8571399 V 89.557884 c 0,3.798857 3.0582872,6.857142 6.8571352,6.857142 H 89.29181 c 3.798857,0 6.857147,-3.058285 6.857147,-6.857142 V 7.2721659 c 0,-3.7988549 -3.05829,-6.8571399 -6.857147,-6.8571399 z"
         style="display:inline;opacity:0.15;fill:#000000;fill-opacity:1;fill-rule:nonzero;stroke:none" />
      <path
         style="display:inline;opacity:0.15;fill:#000000;fill-opacity:1;fill-rule:nonzero;stroke:none"
         d="M 88.648954,1.165026 H 7.6489471 c -3.739492,0 -6.749993,3.010499 -6.749993,6.7499969 V 88.915026 c 0,3.739501 3.010501,6.75 6.749993,6.75 H 88.648954 c 3.739503,0 6.750003,-3.010499 6.750003,-6.75 V 7.9150229 c 0,-3.7394979 -3.0105,-6.7499969 -6.750003,-6.7499969 z"
         id="path4085"
         inkscape:connector-curvature="0" />
      <path
         inkscape:connector-curvature="0"
         id="rect4251-1"
         d="M 88.006093,1.915026 H 8.2918111 c -3.680143,0 -6.6428566,2.962713 -6.6428566,6.6428549 V 88.272171 c 0,3.680142 2.9627136,6.642856 6.6428566,6.642856 H 88.006093 c 3.680143,0 6.642854,-2.962714 6.642854,-6.642856 V 8.5578809 c 0,-3.6801419 -2.962711,-6.6428549 -6.642854,-6.6428549 z"
         style="display:inline;fill:url(#linearGradient4071);fill-opacity:1;fill-rule:nonzero;stroke:none" />
      <path
         sodipodi:nodetypes="sscccsccscccsss"
         inkscape:connector-curvature="0"
         id="path3400-6"
         d="m 11.390247,6.8021682 c -2.8564964,0 -5.1241284,2.2883782 -5.1241284,5.1710028 v 21.42734 7.239403 39.913674 c 1.0972399,1.684484 2.9688485,2.811732 5.1241284,2.811732 h 4.099303 65.588849 4.099302 c 2.155281,0 4.026889,-1.127248 5.124129,-2.811732 V 40.639914 33.400511 11.973171 c 0,-2.8826246 -2.267632,-5.1710028 -5.124129,-5.1710028 z"
         style="display:inline;opacity:0.77864583;fill:#6ac21b;fill-opacity:1;fill-rule:nonzero;stroke:none;stroke-width:1.02950251" />
      <path
         style="color:#000000;font-style:normal;font-variant:normal;font-weight:normal;font-stretch:normal;font-size:medium;line-height:normal;font-family:Sans;-inkscape-font-specification:Sans;text-indent:0;text-align:start;text-decoration:none;text-decoration-line:none;letter-spacing:normal;word-spacing:normal;text-transform:none;writing-mode:lr-tb;direction:ltr;baseline-shift:baseline;text-anchor:start;display:inline;overflow:visible;visibility:visible;fill:#212122;fill-opacity:0.80803573;stroke:none;stroke-width:2.3755002;marker:none;enable-background:accumulate"
         d="m 9.9740341,5.1444869 c -3.116621,0 -5.667965,2.53951 -5.667965,5.6460041 v 69.277996 c 0,3.106495 2.551344,5.646004 5.667965,5.646004 H 86.765819 c 3.116621,0 5.667968,-2.539509 5.667968,-5.646004 V 10.790491 c 0,-3.1064931 -2.551347,-5.6460041 -5.667968,-5.6460041 z m 0,2.319439 H 86.765819 c 1.888099,0 3.352022,1.480095 3.352022,3.3265651 v 69.277996 c 0,1.846474 -1.463923,3.326564 -3.352022,3.326564 H 9.9740341 c -1.888099,0 -3.352022,-1.48009 -3.352022,-3.326564 V 10.790491 c 0,-1.8464701 1.463923,-3.3265651 3.352022,-3.3265651 z"
         id="path4989"
         inkscape:connector-curvature="0" />
      <path
         id="path4118"
         d="m 1.6489535,82.258776 v 6 c 0,3.680142 2.9761066,6.65625 6.6562496,6.65625 H 87.992703 c 3.680143,0 6.656254,-2.976108 6.656254,-6.65625 v -6 c 0,3.680142 -2.976111,6.65625 -6.656254,6.65625 H 8.3052031 c -3.680143,0 -6.6562496,-2.976108 -6.6562496,-6.65625 z"
         style="display:inline;opacity:0.65818182;fill:url(#linearGradient4129);fill-opacity:1;fill-rule:nonzero;stroke:none"
         inkscape:connector-curvature="0" />
      <rect
         ry="4.25"
         rx="0"
         y="80.665031"
         x="5.5239539"
         height="4.25"
         width="84.250008"
         id="rect4131"
         style="opacity:0.55;fill:url(#radialGradient7462);fill-opacity:1;stroke:none" />
      <rect
         transform="rotate(90)"
         style="opacity:0.669;fill:url(#radialGradient7464);fill-opacity:1;stroke:none"
         id="rect4141"
         width="76.75"
         height="4.25"
         x="5.9750223"
         y="-90.233963"
         rx="0"
         ry="4.25" />
      <g
         transform="translate(0.14895487,32.415001)"
         id="g948">
        <path
           style="opacity:0.51700003;fill:url(#linearGradient3146);fill-opacity:1;stroke:none;filter:url(#filter4929)"
           id="path4141"
           inkscape:connector-curvature="0"
           d="m -144.61398,115.3749 25.78125,40.65625 -40.65625,-26.15625 v 18.5 l 40.21875,9 -40.21875,8.75 v 18.375 l 40.65625,-25.78125 -26.15625,40.65625 h 18.5 l 9,-40.21875 8.75,40.21875 h 18.374997 l -25.781247,-40.65625 40.656247,26.15625 v -18.5 l -40.218747,-9 40.218747,-8.75 v -18.375 l -40.656247,25.78125 26.156247,-40.65625 h -18.499997 l -9,40.21875 -8.75,-40.21875 z"
           transform="matrix(1.0029875,0,0,0.91258672,166.0632,-130.59321)" />
        <path
           d="m 43.9878,-19.004253 c -2.438202,0.202659 -2.929847,2.881993 -2.71875,4.839567 0,0.990978 0,1.981955 0,2.972933 -6.406023,1.364024 -11.980794,6.478393 -13.192979,13.012225 -1.534522,6.569535 1.030429,14.194463 6.912082,17.74076 1.626201,1.348745 5.900956,2.714394 6.281656,3.241018 -3.894782,1.27e-4 -7.798698,-0.187756 -11.688259,0.006 -3.1163,0.818336 -2.31229,4.49604 -1.911431,6.843673 0.995507,5.414112 4.740358,10.475426 9.880181,12.437577 1.593357,1.210879 4.965363,0.163863 3.705674,3.294983 -0.100072,1.995998 -0.265056,4.815864 2.150277,5.521992 2.679593,0.311839 5.430461,0.122673 8.139123,0.127967 2.463387,0.175917 3.639935,-2.615378 3.161176,-4.708476 0,-1.099655 0,-2.199311 0,-3.298966 C 60.83061,41.600131 66.42006,37.077881 67.997266,30.836632 69.859329,24.727538 68.155038,17.18109 62.9878,13.308247 61.461698,11.574196 56.704269,9.866635 56.520174,9.277365 c 3.117013,-0.190794 6.378441,0.400273 9.417166,-0.290673 2.842067,-1.643884 1.437137,-5.375568 1.117854,-7.95517 -1.155023,-5.279723 -5.115915,-9.93476 -10.31284,-11.524283 -3.288672,-0.0052 -1.558746,-3.721466 -2.090546,-5.812857 -0.152232,-2.368346 -2.880904,-3.036972 -4.840558,-2.698635 -1.94115,0 -3.8823,0 -5.82345,0 z m 3.15625,22.59375 C 49.721363,2.39461 51.401428,8.43239 48.186624,6.038598 46.863307,5.508752 43.918549,4.520609 47.14405,3.589497 Z m -2.78125,20.28125 c 2.029288,0.869219 4.43968,1.30929 6.0625,2.84375 -1.036335,1.866289 -4.767967,1.659284 -5.141902,-0.681119 -0.242222,-0.775815 -0.08221,-1.690048 -0.920598,-2.162631 z"
           inkscape:connector-curvature="0"
           id="path4034"
           style="font-style:normal;font-variant:normal;font-weight:normal;font-stretch:normal;font-size:73.92197418px;line-height:100%;font-family:'Biohazard Participants';-inkscape-font-specification:'Biohazard Participants';text-align:start;writing-mode:lr-tb;text-anchor:start;opacity:0.05;fill:#000000;fill-opacity:1;stroke:none" />
        <path
           d="m 44.08155,-17.973003 c -1.455694,0.117754 -2.009608,1.713686 -1.78125,2.974178 0,1.52944 0,3.058881 0,4.588322 -5.464292,1.002245 -10.545068,4.630826 -12.471808,9.963066 -2.494383,6.356963 -0.880005,14.451213 4.853688,18.527968 4.61712,3.392231 10.451949,4.35502 15.421929,7.047724 3.497855,1.735061 -0.617329,4.652938 -2.988473,3.754474 -2.14949,-0.06756 -2.897144,-2.104071 -3.096586,-3.886982 -0.670116,-1.603701 -2.644237,-1.131288 -4.012634,-1.199049 -3.398437,0.02696 -6.824655,-0.124559 -10.206116,0.01155 -1.439305,0.332405 -1.748271,2.055137 -1.424493,3.306219 0.363442,5.930888 3.82408,11.901448 9.554696,14.052583 1.220329,1.105867 4.531258,0.290506 4.369797,2.240376 0.09966,1.769135 -0.197639,3.597178 0.143447,5.331162 0.527921,1.499335 2.311284,1.340788 3.585253,1.28841 2.064798,-0.06559 4.165439,0.129355 6.2088,-0.09375 1.389411,-0.359666 1.590339,-1.961815 1.4375,-3.163487 0,-1.497587 0,-2.995175 0,-4.492763 5.448244,-1.141152 10.643421,-4.579091 12.701096,-9.922436 C 68.96678,26.225795 67.745862,18.344578 62.369942,14.083884 57.612151,10.094031 51.267324,9.060402 45.928279,6.146294 42.529741,4.641172 46.536112,1.546362 48.764827,2.647938 c 1.905112,0.474447 2.221803,2.524573 2.316723,4.16031 0.359666,1.389411 1.961815,1.590339 3.163487,1.4375 C 57.825071,8.224615 61.412085,8.287817 64.9878,8.214497 66.447784,7.938285 66.895734,6.238257 66.568481,4.963434 66.387443,-0.495794 63.681274,-6.189825 58.551222,-8.582779 57.21254,-9.776624 54.154099,-9.428267 53.6753,-10.976621 c -0.06631,-1.848031 0.130438,-3.732348 -0.09375,-5.558882 -0.359666,-1.389411 -1.961815,-1.590339 -3.163487,-1.4375 -2.112171,0 -4.224342,0 -6.336513,0 z"
           inkscape:connector-curvature="0"
           id="path4028"
           style="font-style:normal;font-variant:normal;font-weight:normal;font-stretch:normal;font-size:73.92197418px;line-height:100%;font-family:'Biohazard Participants';-inkscape-font-specification:'Biohazard Participants';text-align:start;writing-mode:lr-tb;text-anchor:start;opacity:0.07999998;fill:#000000;fill-opacity:1;stroke:none" />
        <path
           inkscape:connector-curvature="0"
           d="m 44.20655,-16.973003 a 0.99381961,0.99381961 0 0 0 -0.90625,1 v 6.28125 c -3.751112,0.663057 -6.983215,2.178385 -9.4375,4.71875 -2.752824,2.892836 -4.156254,6.549262 -4.15625,10.75 -4e-6,5.129999 2.164083,9.276084 6.34375,12.0625 1.693937,1.180655 5.296136,2.689469 11.1875,4.84375 1.90463,0.698376 3.30621,1.432714 4.15625,2.15625 0.85004,0.723536 1.124992,1.34788 1.125,1.96875 -2e-5,1.003061 -0.371165,1.640524 -1.375,2.25 a 0.99381961,0.99381961 0 0 0 -0.03125,0.03125 c -0.872574,0.581709 -1.879377,0.843757 -3.125,0.84375 -1.434819,7e-6 -2.525972,-0.359297 -3.4375,-1.125 -0.887113,-0.745155 -1.30631,-1.682922 -1.34375,-3.03125 a 0.99381961,0.99381961 0 0 0 -1,-0.96875 l -11.90625,-0.0625 a 0.99381961,0.99381961 0 0 0 -1,1.03125 c 0.136885,4.51734 1.526335,8.322782 4.15625,11.1875 2.439328,2.613574 5.8125,4.12397 9.84375,4.78125 v 6.28125 a 0.99381961,0.99381961 0 0 0 1,1 h 7.375 a 0.99381961,0.99381961 0 0 0 1,-1 v -6.4375 c 3.954114,-0.811093 7.281414,-2.41358 9.75,-4.96875 2.797478,-2.937388 4.24996,-6.687581 4.25,-11.0625 -4e-5,-4.97179 -2.230063,-9.023332 -6.4375,-11.84375 -1.834498,-1.289054 -5.522063,-2.906117 -11.375,-5.0625 -1.936398,-0.74475 -3.347672,-1.488872 -4.21875,-2.1875 -0.871078,-0.698628 -1.125004,-1.255874 -1.125,-1.6875 -1.2e-5,-1.031261 0.354746,-1.667897 1.25,-2.3125 a 0.99381961,0.99381961 0 0 0 0,-0.03125 c 0.796274,-0.615283 1.690009,-0.906218 2.8125,-0.90625 1.453727,3.2e-5 2.451872,0.40985 3.21875,1.28125 a 0.99381961,0.99381961 0 0 0 0.03125,0 c 0.781113,0.852174 1.156227,1.961469 1.15625,3.4375 a 0.99381961,0.99381961 0 0 0 1,1 h 11.625 a 0.99381961,0.99381961 0 0 0 1,-1 c -0.0455,-4.457101 -1.197862,-8.13426 -3.53125,-10.875 -2.172831,-2.552155 -5.406544,-4.168662 -9.40625,-5.03125 v -6.3125 a 0.99381961,0.99381961 0 0 0 -1,-1 h -7.375 a 0.99381961,0.99381961 0 0 0 -0.09375,0 z"
           id="path4024"
           style="font-style:normal;font-variant:normal;font-weight:normal;font-stretch:normal;font-size:73.92197418px;line-height:100%;font-family:'Biohazard Participants';-inkscape-font-specification:'Biohazard Participants';text-align:start;writing-mode:lr-tb;text-anchor:start;opacity:0.15;fill:#000000;fill-opacity:1;stroke:none" />
        <path
           d="m 51.667472,40.864779 v 7.162218 H 44.308129 V 40.996196 C 40.015166,40.470527 36.642138,38.893526 34.189033,36.26519 31.735914,33.593053 30.443649,30.088607 30.312236,25.751844 l 11.893223,0.06571 c 0.04379,1.577013 0.613263,2.825472 1.70842,3.74538 1.095122,0.919926 2.453094,1.379884 4.073921,1.379876 1.401757,8e-6 2.628314,-0.350437 3.679672,-1.051334 1.226531,-0.744686 1.839809,-1.774117 1.839835,-3.088296 -2.6e-5,-1.927433 -1.971277,-3.613947 -5.913758,-5.059548 -5.869965,-2.146456 -9.527731,-3.723457 -10.973305,-4.731006 -3.942511,-2.628313 -5.913761,-6.373689 -5.913757,-11.236139 -4e-6,-3.986274 1.29226,-7.3374 3.876796,-10.053389 2.49691,-2.584485 5.738522,-4.139582 9.724846,-4.665297 v -7.0308 h 7.359343 v 7.0308 c 8.542061,1.533243 12.856909,6.592785 12.944558,15.178644 H 52.98164 C 52.981614,4.571866 52.499753,3.213893 51.536055,2.162524 50.572307,1.067421 49.25814,0.519851 47.593549,0.519814 c -1.314187,3.7e-5 -2.453132,0.372385 -3.416837,1.117042 -1.095156,0.788537 -1.642726,1.839871 -1.642711,3.154004 -1.5e-5,1.664646 1.993139,3.263549 5.979467,4.796715 5.826118,2.146502 9.549592,3.78921 11.170431,4.928131 3.986273,2.672163 5.979427,6.351832 5.979465,11.039014 -3.8e-5,4.161542 -1.314205,7.622182 -3.942504,10.38193 -2.496952,2.584531 -5.848078,4.22724 -10.053388,4.928131"
           inkscape:connector-curvature="0"
           id="path4011"
           style="font-style:normal;font-variant:normal;font-weight:normal;font-stretch:normal;font-size:73.92197418px;line-height:100%;font-family:'Biohazard Participants';-inkscape-font-specification:'Biohazard Participants';text-align:start;writing-mode:lr-tb;text-anchor:start;opacity:0.3;fill:#000000;fill-opacity:1;stroke:none" />
        <path
           d="m 51.667472,39.864779 v 7.162218 H 44.308129 V 39.996196 C 40.015166,39.470527 36.642138,37.893526 34.189033,35.26519 31.735914,32.593053 30.443649,29.088607 30.312236,24.751844 l 11.893223,0.06571 c 0.04379,1.577013 0.613263,2.825472 1.70842,3.74538 1.095122,0.919926 2.453094,1.379884 4.073921,1.379876 1.401757,8e-6 2.628314,-0.350437 3.679672,-1.051334 1.226531,-0.744686 1.839809,-1.774117 1.839835,-3.088296 -2.6e-5,-1.927433 -1.971277,-3.613947 -5.913758,-5.059548 -5.869965,-2.146456 -9.527731,-3.723457 -10.973305,-4.731006 -3.942511,-2.628313 -5.913761,-6.373689 -5.913757,-11.236139 -4e-6,-3.986274 1.29226,-7.3374 3.876796,-10.053389 2.49691,-2.584485 5.738522,-4.139582 9.724846,-4.665297 v -7.0308 h 7.359343 v 7.0308 c 8.542061,1.533243 12.856909,6.592785 12.944558,15.178644 H 52.98164 c -2.6e-5,-1.664579 -0.481887,-3.022552 -1.445585,-4.073921 -0.963748,-1.095103 -2.277915,-1.642673 -3.942506,-1.64271 -1.314187,3.7e-5 -2.453132,0.372385 -3.416837,1.117042 -1.095156,0.788537 -1.642726,1.839871 -1.642711,3.154004 -1.5e-5,1.664646 1.993139,3.263549 5.979467,4.796715 5.826118,2.146502 9.549592,3.78921 11.170431,4.928131 3.986273,2.672163 5.979427,6.351832 5.979465,11.039014 -3.8e-5,4.161542 -1.314205,7.622182 -3.942504,10.38193 -2.496952,2.584531 -5.848078,4.22724 -10.053388,4.928131"
           inkscape:connector-curvature="0"
           id="path3104"
           style="font-style:normal;font-variant:normal;font-weight:normal;font-stretch:normal;font-size:73.92197418px;line-height:100%;font-family:'Biohazard Participants';-inkscape-font-specification:'Biohazard Participants';text-align:start;writing-mode:lr-tb;text-anchor:start;fill:url(#linearGradient4053);fill-opacity:1;stroke:none" />
        <path
           d="m 44.3003,-16.973003 v 1 h 7.375 v -1 z m 0,7.03125 c -3.986324,0.525715 -7.22184,2.071765 -9.71875,4.65625 -2.584536,2.715989 -3.875004,6.076226 -3.875,10.0625 0,0.149433 0.02753,0.290177 0.03125,0.4375 0.117863,-3.737405 1.38301,-6.914104 3.84375,-9.5 2.49691,-2.584485 5.732426,-4.130535 9.71875,-4.65625 z m 7.375,0 v 1 c 8.200498,1.471935 12.497566,6.215686 12.90625,14.1875 H 64.6128 C 64.525151,-3.340112 60.217361,-8.40851 51.6753,-9.941753 Z m -9.09375,14.125 c -0.02756,0.195262 -0.0625,0.385258 -0.0625,0.59375 -1.5e-5,1.664646 2.013672,3.279334 6,4.8125 5.826118,2.146502 9.535411,3.798579 11.15625,4.9375 3.859321,2.587062 5.845805,6.117972 5.96875,10.59375 0.0055,-0.188247 0.03125,-0.371294 0.03125,-0.5625 -3.8e-5,-4.687182 -2.013727,-8.359087 -6,-11.03125 -1.620839,-1.138921 -5.330132,-2.790998 -11.15625,-4.9375 -3.662256,-1.408526 -5.639787,-2.886753 -5.9375,-4.40625 z m -12.28125,20.5625 c 0.01032,0.340544 0.06912,0.66972 0.09375,1 l 11.8125,0.0625 c 0.04379,1.577013 0.623593,2.830092 1.71875,3.75 1.095122,0.919926 2.441673,1.375008 4.0625,1.375 1.401757,8e-6 2.636142,-0.330353 3.6875,-1.03125 1.226531,-0.744686 1.843724,-1.779571 1.84375,-3.09375 -2e-6,-0.136586 -0.0427,-0.272083 -0.0625,-0.40625 -0.163739,1.029662 -0.749313,1.873461 -1.78125,2.5 -1.051358,0.700897 -2.285743,1.031258 -3.6875,1.03125 -1.620827,8e-6 -2.967378,-0.455074 -4.0625,-1.375 -1.095157,-0.919908 -1.67496,-2.172987 -1.71875,-3.75 z"
           inkscape:connector-curvature="0"
           id="path4055"
           style="font-style:normal;font-variant:normal;font-weight:normal;font-stretch:normal;font-size:73.92197418px;line-height:100%;font-family:'Biohazard Participants';-inkscape-font-specification:'Biohazard Participants';text-align:start;writing-mode:lr-tb;text-anchor:start;opacity:0.3;fill:#ffffff;fill-opacity:1;stroke:none" />
        <path
           d="m 47.58155,-1.473003 c -1.314187,3.7e-5 -2.442545,0.380343 -3.40625,1.125 -1.095156,0.788537 -1.656265,1.810867 -1.65625,3.125 -10e-7,0.135329 0.03616,0.27179 0.0625,0.40625 0.146174,-1.035482 0.672345,-1.867817 1.59375,-2.53125 0.963705,-0.744657 2.092063,-1.124963 3.40625,-1.125 1.664591,3.7e-5 3.005002,0.529897 3.96875,1.625 0.963698,1.051369 1.437474,2.429171 1.4375,4.09375 h 11.625 c -0.0035,-0.343314 -0.01423,-0.667962 -0.03125,-1 H 52.9878 c -2.6e-5,-1.664579 -0.473802,-3.042381 -1.4375,-4.09375 -0.963748,-1.095103 -2.304159,-1.624963 -3.96875,-1.625 z m -16.84375,5.6875 c -0.0059,0.188023 -0.03125,0.371562 -0.03125,0.5625 -4e-6,4.86245 1.963739,8.621687 5.90625,11.25 1.445574,1.007549 5.098785,2.572294 10.96875,4.71875 3.6631,1.343159 5.615395,2.897129 5.875,4.65625 0.03088,-0.194165 0.0625,-0.38525 0.0625,-0.59375 -2.6e-5,-1.927433 -1.995019,-3.616899 -5.9375,-5.0625 -5.869965,-2.146456 -9.523176,-3.711201 -10.96875,-4.71875 -3.82135,-2.54754 -5.757566,-6.166033 -5.875,-10.8125 z m 34.90625,19.90625 c -0.115246,3.908888 -1.429961,7.179551 -3.9375,9.8125 -2.496952,2.584531 -5.82594,4.236609 -10.03125,4.9375 v 1 c 4.20531,-0.700891 7.534298,-2.352969 10.03125,-4.9375 2.628299,-2.759748 3.968712,-6.213458 3.96875,-10.375 -10e-7,-0.149275 -0.02721,-0.290269 -0.03125,-0.4375 z m -35.34375,0.625 c 0.131413,4.336763 1.421881,7.859113 3.875,10.53125 2.453105,2.628336 5.832037,4.193081 10.125,4.71875 v -1 c -4.292963,-0.525669 -7.671895,-2.090414 -10.125,-4.71875 -2.260488,-2.462307 -3.49216,-5.655482 -3.78125,-9.53125 z m 14,21.28125 v 1 h 7.375 v -1 z"
           inkscape:connector-curvature="0"
           id="path4098"
           style="font-style:normal;font-variant:normal;font-weight:normal;font-stretch:normal;font-size:73.92197418px;line-height:100%;font-family:'Biohazard Participants';-inkscape-font-specification:'Biohazard Participants';text-align:start;writing-mode:lr-tb;text-anchor:start;opacity:0.4;fill:#503a16;fill-opacity:1;stroke:none" />
      </g>
      <rect
         clip-path="url(#clipPath4156-4-1)"
         ry="3.9569881"
         rx="3.9569874"
         y="-30"
         x="2"
         height="69.024437"
         width="75.965775"
         id="rect4146"
         style="opacity:0.5078125;fill:url(#linearGradient4767);fill-opacity:1;stroke:none"
         transform="matrix(1.0692451,0,0,1.0476829,4.4441802,38.894013)" />
    </g>
  </g>
</svg>
