<?xml version="1.0" encoding="UTF-8" standalone="no"?>
<!-- Created with Inkscape (http://www.inkscape.org/) -->

<svg
   xmlns:dc="http://purl.org/dc/elements/1.1/"
   xmlns:cc="http://creativecommons.org/ns#"
   xmlns:rdf="http://www.w3.org/1999/02/22-rdf-syntax-ns#"
   xmlns:svg="http://www.w3.org/2000/svg"
   xmlns="http://www.w3.org/2000/svg"
   xmlns:xlink="http://www.w3.org/1999/xlink"
   xmlns:sodipodi="http://sodipodi.sourceforge.net/DTD/sodipodi-0.dtd"
   xmlns:inkscape="http://www.inkscape.org/namespaces/inkscape"
   width="96"
   height="96"
   id="svg5023"
   version="1.1"
   inkscape:version="0.92.2 2405546, 2018-03-11"
   sodipodi:docname="gpytage.svg">
  <defs
     id="defs5025">
    <linearGradient
       inkscape:collect="always"
       id="linearGradient1113">
      <stop
         style="stop-color:#ffffff;stop-opacity:1"
         offset="0"
         id="stop1109" />
      <stop
         style="stop-color:#cdeaf2;stop-opacity:1"
         offset="1"
         id="stop1111" />
    </linearGradient>
    <linearGradient
       id="linearGradient4191">
      <stop
         style="stop-color:#e1e1e1;stop-opacity:0.8125"
         offset="0"
         id="stop4193" />
      <stop
         id="stop4203"
         offset="0.125"
         style="stop-color:#cecece;stop-opacity:1;" />
      <stop
         id="stop4201"
         offset="0.33024257"
         style="stop-color:#bcbcbc;stop-opacity:1;" />
      <stop
         id="stop4199"
         offset="0.60520303"
         style="stop-color:#979797;stop-opacity:1;" />
      <stop
         style="stop-color:#4e4e4e;stop-opacity:1;"
         offset="1"
         id="stop4195" />
    </linearGradient>
    <linearGradient
       id="linearGradient4164">
      <stop
         style="stop-color:#d6a000;stop-opacity:1;"
         offset="0"
         id="stop4166" />
      <stop
         style="stop-color:#d67700;stop-opacity:1;"
         offset="1"
         id="stop4169" />
    </linearGradient>
    <linearGradient
       id="linearGradient4148">
      <stop
         style="stop-color:#ff6767;stop-opacity:1;"
         offset="0"
         id="stop4150" />
      <stop
         style="stop-color:#c80000;stop-opacity:1;"
         offset="1"
         id="stop4152" />
    </linearGradient>
    <linearGradient
       inkscape:collect="always"
       id="linearGradient4133">
      <stop
         style="stop-color:#ffffff;stop-opacity:1;"
         offset="0"
         id="stop4135" />
      <stop
         style="stop-color:#ffffff;stop-opacity:0;"
         offset="1"
         id="stop4137" />
    </linearGradient>
    <linearGradient
       id="linearGradient5700">
      <stop
         id="stop5702"
         offset="0"
         style="stop-color:#ffffff;stop-opacity:0;" />
      <stop
         style="stop-color:#ffffff;stop-opacity:0.85135138;"
         offset="0.02897836"
         id="stop5704" />
      <stop
         id="stop5706"
         offset="0.05199923"
         style="stop-color:#ffffff;stop-opacity:0;" />
      <stop
         style="stop-color:#ffffff;stop-opacity:0;"
         offset="0.96583712"
         id="stop5712" />
      <stop
         style="stop-color:#ffffff;stop-opacity:0.85135138;"
         offset="0.9788844"
         id="stop5710" />
      <stop
         id="stop5708"
         offset="1"
         style="stop-color:#ffffff;stop-opacity:0;" />
    </linearGradient>
    <linearGradient
       inkscape:collect="always"
       id="linearGradient3888-8-4-8-4-6-9-0-8-7-9">
      <stop
         style="stop-color:#ffffff;stop-opacity:1;"
         offset="0"
         id="stop3890-4-7-9-5-7-0-8-8-8-6" />
      <stop
         style="stop-color:#ffffff;stop-opacity:0;"
         offset="1"
         id="stop3892-5-8-2-8-3-3-3-06-4-4" />
    </linearGradient>
    <linearGradient
       id="linearGradient3921">
      <stop
         style="stop-color:#2cffee;stop-opacity:1;"
         offset="0"
         id="stop3923" />
      <stop
         style="stop-color:#00586e;stop-opacity:1;"
         offset="1"
         id="stop3925" />
    </linearGradient>
    <linearGradient
       inkscape:collect="always"
       id="linearGradient3888-8-4-8-6">
      <stop
         style="stop-color:#ffffff;stop-opacity:1;"
         offset="0"
         id="stop3890-4-7-9-7" />
      <stop
         style="stop-color:#ffffff;stop-opacity:0;"
         offset="1"
         id="stop3892-5-8-2-7" />
    </linearGradient>
    <linearGradient
       id="linearGradient4091-0-3-0-7">
      <stop
         style="stop-color:#ffffff;stop-opacity:1;"
         offset="0"
         id="stop4093-3-6-4-2" />
      <stop
         id="stop4099-6-1-8-3"
         offset="0.80000001"
         style="stop-color:#ffffff;stop-opacity:1;" />
      <stop
         style="stop-color:#ffffff;stop-opacity:0;"
         offset="1"
         id="stop4095-1-0-7-9" />
    </linearGradient>
    <linearGradient
       id="linearGradient3832-0-6-1-1">
      <stop
         style="stop-color:#000000;stop-opacity:1;"
         offset="0"
         id="stop3834-6-3-7-1" />
      <stop
         id="stop3872-2-4"
         offset="0.1"
         style="stop-color:#000000;stop-opacity:0.58823532;" />
      <stop
         style="stop-color:#000000;stop-opacity:0.58823532;"
         offset="0.89999998"
         id="stop3844-6-2-7-6" />
      <stop
         style="stop-color:#000000;stop-opacity:1;"
         offset="1"
         id="stop3836-5-0-2-9" />
    </linearGradient>
    <linearGradient
       inkscape:collect="always"
       xlink:href="#linearGradient6139-0"
       id="linearGradient3923"
       x1="6"
       y1="47.000011"
       x2="90"
       y2="47.000011"
       gradientUnits="userSpaceOnUse" />
    <linearGradient
       id="linearGradient6139-0">
      <stop
         id="stop6141-2"
         offset="0"
         style="stop-color:#b7b7b7;stop-opacity:1;" />
      <stop
         style="stop-color:#ffffff;stop-opacity:1;"
         offset="0.25"
         id="stop6151-0" />
      <stop
         style="stop-color:#9d9d9d;stop-opacity:1;"
         offset="0.5"
         id="stop6147-1" />
      <stop
         id="stop6149-4"
         offset="0.75"
         style="stop-color:#fafafa;stop-opacity:1;" />
      <stop
         id="stop6143-4"
         offset="1"
         style="stop-color:#b7b7b7;stop-opacity:1;" />
    </linearGradient>
    <linearGradient
       inkscape:collect="always"
       xlink:href="#linearGradient6139-0"
       id="linearGradient4071"
       gradientUnits="userSpaceOnUse"
       gradientTransform="matrix(1.1353753,0,0,1.1336634,-40.037124,-46.787637)"
       x1="6"
       y1="47.000011"
       x2="90"
       y2="47.000011" />
    <radialGradient
       inkscape:collect="always"
       xlink:href="#linearGradient3888-8-4-8-6"
       id="radialGradient4073"
       gradientUnits="userSpaceOnUse"
       gradientTransform="matrix(0,1.6209438,-2.0382846,0,160.66427,-243.03657)"
       cx="158"
       cy="6.2131939"
       fx="158"
       fy="6.2131939"
       r="41" />
    <radialGradient
       inkscape:collect="always"
       xlink:href="#linearGradient4091-0-3-0-7"
       id="radialGradient4075"
       gradientUnits="userSpaceOnUse"
       gradientTransform="matrix(-1.0721726,0,0,-0.87502024,199.46429,-19.125546)"
       cx="48"
       cy="-27"
       fx="48"
       fy="-27"
       r="42" />
    <clipPath
       clipPathUnits="userSpaceOnUse"
       id="clipPath4156-4">
      <path
         style="opacity:0.6;fill:#ffffff;fill-opacity:1;stroke:none"
         d="m 27.046336,-55.695463 -14.21366,13.321486 0.06127,0 15.653407,21.770763 10.231384,-10.546177 C 38.561832,-32.30156 27.468089,-54.819245 27.046336,-55.695463 z M 9.6468554,-39.382809 -5.2407289,-25.32124 15.987863,-7.8059573 26.372412,-18.382966 9.6468554,-39.382809 z m 31.4906096,12.951445 -9.741259,9.713584 8.944804,12.4580526 7.780753,-7.5550056 -6.984298,-14.616631 z m -49.8397109,4.378822 -13.7541661,12.9822847 26.2830181,13.84571 0.06127,-0.0617 -0.122531,-0.0617 L 13.598503,-5.4007374 -8.7022409,-22.052595 z m 38.0154159,7.400825 -9.802525,9.7752596 11.579232,9.5594001 7.62759,-7.40083 -8.669108,-11.0087257 -0.735189,-0.925104 z m 20.187073,5.6739697 -7.382526,7.2158 6.187844,8.54179 5.820249,-6.13651996 -4.625567,-9.62107004 z m -32.195166,6.32154 -9.5574606,9.49772 13.6622686,7.1849703 7.933918,-7.6783603 -12.038726,-9.00433 z m 23.311629,2.37443004 -7.10683,6.93826996 8.362778,6.9074403 5.360756,-5.6739699 -0.06127,-0.0925 -0.0919,0.12335 -6.463539,-8.20258036 z m -8.730374,8.54178036 -7.505057,7.3391599 10.353916,5.45811 c 1.397496,-1.32103 5.67514,-6.12292 5.850882,-6.32154 L 31.886332,8.2600031 z"
         id="path4158-0"
         inkscape:connector-curvature="0" />
    </clipPath>
    <linearGradient
       inkscape:collect="always"
       xlink:href="#linearGradient3888-8-4-8-4-6-9-0-8-7-9"
       id="linearGradient4112"
       gradientUnits="userSpaceOnUse"
       gradientTransform="matrix(1.1376233,0,0,1.1422854,-40.393161,-45.01103)"
       x1="45.99942"
       y1="42.063522"
       x2="76.197693"
       y2="29.454437" />
    <linearGradient
       inkscape:collect="always"
       xlink:href="#linearGradient3832-0-6-1-1"
       id="linearGradient4129"
       x1="1.5"
       y1="88.171875"
       x2="94.5"
       y2="88.171875"
       gradientUnits="userSpaceOnUse" />
    <radialGradient
       inkscape:collect="always"
       xlink:href="#linearGradient4133"
       id="radialGradient4139"
       cx="13.948145"
       cy="44.892843"
       fx="13.948145"
       fy="44.892843"
       r="43.199203"
       gradientTransform="matrix(1,0,0,0.05036905,0,39.43178)"
       gradientUnits="userSpaceOnUse" />
    <radialGradient
       inkscape:collect="always"
       xlink:href="#linearGradient4133"
       id="radialGradient4143"
       gradientUnits="userSpaceOnUse"
       gradientTransform="matrix(0.90960585,0,0,0.0504451,-11.184537,-58.258273)"
       cx="13.948145"
       cy="44.892843"
       fx="13.948145"
       fy="44.892843"
       r="43.199203" />
    <linearGradient
       id="linearGradient4135">
      <stop
         style="stop-color:#e3e9e9;stop-opacity:1;"
         offset="0"
         id="stop4137-6" />
      <stop
         style="stop-color:#eef2f2;stop-opacity:1;"
         offset="0.21971546"
         id="stop4139" />
      <stop
         style="stop-color:#f9fbfb;stop-opacity:1;"
         offset="0.47877571"
         id="stop4141" />
      <stop
         style="stop-color:#ffffff;stop-opacity:1;"
         offset="1"
         id="stop4143" />
    </linearGradient>
    <radialGradient
       inkscape:collect="always"
       xlink:href="#linearGradient13492"
       id="radialGradient4547"
       gradientUnits="userSpaceOnUse"
       gradientTransform="matrix(0.00664983,-1.4155821,1.7836413,0.00815867,-2.7114916,65.575076)"
       cx="34.164101"
       cy="10.81943"
       fx="34.164101"
       fy="10.81943"
       r="17.263121" />
    <linearGradient
       inkscape:collect="always"
       id="linearGradient13492">
      <stop
         style="stop-color:#516467;stop-opacity:1;"
         offset="0"
         id="stop13494" />
      <stop
         style="stop-color:#516467;stop-opacity:0;"
         offset="1"
         id="stop13496" />
    </linearGradient>
    <linearGradient
       inkscape:collect="always"
       xlink:href="#linearGradient4160"
       id="linearGradient4549"
       gradientUnits="userSpaceOnUse"
       gradientTransform="translate(-17.652364,-22.601697)"
       x1="2.5"
       y1="54.296875"
       x2="93.5"
       y2="54.296875" />
    <linearGradient
       id="linearGradient4160">
      <stop
         id="stop4170"
         offset="0"
         style="stop-color:#000000;stop-opacity:0;" />
      <stop
         style="stop-color:#000000;stop-opacity:0.96470588;"
         offset="0.03175623"
         id="stop4186" />
      <stop
         style="stop-color:#000000;stop-opacity:0;"
         offset="0.09425623"
         id="stop4182" />
      <stop
         style="stop-color:#000000;stop-opacity:0;"
         offset="0.49595019"
         id="stop4180" />
      <stop
         style="stop-color:#000000;stop-opacity:0;"
         offset="0.90525883"
         id="stop4178" />
      <stop
         id="stop4184"
         offset="0.96241152"
         style="stop-color:#000000;stop-opacity:0.98823529;" />
      <stop
         id="stop4168"
         offset="1"
         style="stop-color:#000000;stop-opacity:0;" />
    </linearGradient>
    <linearGradient
       id="linearGradient13484">
      <stop
         style="stop-color:#849699;stop-opacity:1"
         offset="0"
         id="stop13486" />
      <stop
         style="stop-color:#b9e0e4;stop-opacity:0.20689656;"
         offset="1"
         id="stop13488" />
    </linearGradient>
    <radialGradient
       inkscape:collect="always"
       xlink:href="#linearGradient4348"
       id="radialGradient4553"
       gradientUnits="userSpaceOnUse"
       gradientTransform="matrix(1.0772109,0,0,0.06481785,-21.162394,64.974669)"
       cx="47.699135"
       cy="55.411221"
       fx="47.699135"
       fy="55.411221"
       r="41.470058" />
    <linearGradient
       inkscape:collect="always"
       id="linearGradient4348">
      <stop
         style="stop-color:#000000;stop-opacity:1;"
         offset="0"
         id="stop4350" />
      <stop
         style="stop-color:#000000;stop-opacity:0;"
         offset="1"
         id="stop4352" />
    </linearGradient>
    <linearGradient
       inkscape:collect="always"
       xlink:href="#linearGradient4160"
       id="linearGradient4555"
       gradientUnits="userSpaceOnUse"
       gradientTransform="translate(-17.652364,-22.601697)"
       x1="2.5"
       y1="11.140625"
       x2="93.5"
       y2="11.140625" />
    <linearGradient
       id="linearGradient3368">
      <stop
         id="stop3370"
         offset="0"
         style="stop-color:#000000;stop-opacity:0;" />
      <stop
         style="stop-color:#000000;stop-opacity:0.96470588;"
         offset="0.03175623"
         id="stop3372" />
      <stop
         style="stop-color:#000000;stop-opacity:0;"
         offset="0.09425623"
         id="stop3374" />
      <stop
         style="stop-color:#000000;stop-opacity:0;"
         offset="0.49595019"
         id="stop3376" />
      <stop
         style="stop-color:#000000;stop-opacity:0;"
         offset="0.90525883"
         id="stop3378" />
      <stop
         id="stop3380"
         offset="0.96241152"
         style="stop-color:#000000;stop-opacity:0.98823529;" />
      <stop
         id="stop3382"
         offset="1"
         style="stop-color:#000000;stop-opacity:0;" />
    </linearGradient>
    <linearGradient
       id="linearGradient3485">
      <stop
         id="stop3487"
         style="stop-color:#e6605b;stop-opacity:1"
         offset="0" />
      <stop
         id="stop3489"
         style="stop-color:#f08682;stop-opacity:1"
         offset="1" />
    </linearGradient>
    <filter
       x="-0.42857143"
       y="-0.16666667"
       width="1.8571428"
       height="1.3333333"
       color-interpolation-filters="sRGB"
       id="filter3495">
      <feGaussianBlur
         stdDeviation="0.55242721"
         id="feGaussianBlur3497" />
    </filter>
    <filter
       x="-0.18344349"
       y="-0.17668343"
       width="1.366887"
       height="1.3533669"
       color-interpolation-filters="sRGB"
       id="filter3509">
      <feGaussianBlur
         stdDeviation="0.65925"
         id="feGaussianBlur3511" />
    </filter>
    <linearGradient
       id="linearGradient3339">
      <stop
         id="stop3341"
         style="stop-color:#000000;stop-opacity:1"
         offset="0" />
      <stop
         id="stop3347"
         style="stop-color:#000000;stop-opacity:0.49803922"
         offset="0.69999999" />
      <stop
         id="stop3343"
         style="stop-color:#000000;stop-opacity:0"
         offset="1" />
    </linearGradient>
    <linearGradient
       id="linearGradient3278">
      <stop
         id="stop3280"
         style="stop-color:#945a00;stop-opacity:1"
         offset="0" />
      <stop
         id="stop3290"
         style="stop-color:#e28e0a;stop-opacity:1"
         offset="0.25" />
      <stop
         id="stop3286"
         style="stop-color:#ffba14;stop-opacity:1"
         offset="0.30000001" />
      <stop
         id="stop3288"
         style="stop-color:#f3ac00;stop-opacity:1"
         offset="0.69999999" />
      <stop
         id="stop3292"
         style="stop-color:#ffd314;stop-opacity:1"
         offset="0.75" />
      <stop
         id="stop3282"
         style="stop-color:#ffed94;stop-opacity:1"
         offset="1" />
    </linearGradient>
    <linearGradient
       id="linearGradient3254">
      <stop
         id="stop3256"
         style="stop-color:#000000;stop-opacity:1"
         offset="0" />
      <stop
         id="stop3266"
         style="stop-color:#000000;stop-opacity:1"
         offset="0.06588447" />
      <stop
         id="stop3264"
         style="stop-color:#ad5f1b;stop-opacity:1"
         offset="0.07" />
      <stop
         id="stop3268"
         style="stop-color:#ad601a;stop-opacity:1"
         offset="0.1913653" />
      <stop
         id="stop3262"
         style="stop-color:#785800;stop-opacity:1"
         offset="0.20983393" />
      <stop
         id="stop3258"
         style="stop-color:#785700;stop-opacity:1"
         offset="1" />
    </linearGradient>
    <linearGradient
       id="linearGradient3394">
      <stop
         id="stop3396"
         style="stop-color:#000000;stop-opacity:1"
         offset="0" />
      <stop
         id="stop3402"
         style="stop-color:#7d7d7d;stop-opacity:1"
         offset="0.5" />
      <stop
         id="stop3398"
         style="stop-color:#000000;stop-opacity:1"
         offset="1" />
    </linearGradient>
    <linearGradient
       id="linearGradient3308">
      <stop
         id="stop3310"
         style="stop-color:#da8539;stop-opacity:1"
         offset="0" />
      <stop
         id="stop3312"
         style="stop-color:#fadfc7;stop-opacity:1"
         offset="1" />
    </linearGradient>
    <linearGradient
       id="linearGradient5452">
      <stop
         id="stop5454"
         style="stop-color:#ffffff;stop-opacity:1"
         offset="0" />
      <stop
         id="stop5456"
         style="stop-color:#ffffff;stop-opacity:0"
         offset="1" />
    </linearGradient>
    <linearGradient
       id="linearGradient3519">
      <stop
         id="stop3521"
         style="stop-color:#ffffff;stop-opacity:1"
         offset="0" />
      <stop
         id="stop3523"
         style="stop-color:#ffffff;stop-opacity:0"
         offset="1" />
    </linearGradient>
    <filter
       x="-0.43161276"
       y="-0.11371106"
       width="1.8632255"
       height="1.2274221"
       color-interpolation-filters="sRGB"
       id="filter3382">
      <feGaussianBlur
         stdDeviation="0.73914765"
         id="feGaussianBlur3384" />
    </filter>
    <filter
       x="-0.60979599"
       y="-0.1494"
       width="2.2195919"
       height="1.2988"
       color-interpolation-filters="sRGB"
       id="filter3390">
      <feGaussianBlur
         stdDeviation="0.77812506"
         id="feGaussianBlur3392" />
    </filter>
    <linearGradient
       id="linearGradient3401">
      <stop
         id="stop3403"
         style="stop-color:#404040;stop-opacity:1"
         offset="0" />
      <stop
         id="stop3447"
         style="stop-color:#808080;stop-opacity:1"
         offset="0.2" />
      <stop
         id="stop3410"
         style="stop-color:#efefef;stop-opacity:1"
         offset="0.69999999" />
      <stop
         id="stop3405"
         style="stop-color:#dcdcdc;stop-opacity:1"
         offset="1" />
    </linearGradient>
    <linearGradient
       id="linearGradient3461">
      <stop
         id="stop3463"
         style="stop-color:#444542;stop-opacity:1"
         offset="0" />
      <stop
         id="stop3465"
         style="stop-color:#71746e;stop-opacity:1"
         offset="1" />
    </linearGradient>
    <linearGradient
       id="linearGradient3540">
      <stop
         id="stop3542"
         style="stop-color:#000000;stop-opacity:1"
         offset="0" />
      <stop
         id="stop3544"
         style="stop-color:#000000;stop-opacity:0.49803922"
         offset="0.69999999" />
      <stop
         id="stop3546"
         style="stop-color:#000000;stop-opacity:0"
         offset="1" />
    </linearGradient>
    <linearGradient
       id="linearGradient3355">
      <stop
         id="stop3357"
         style="stop-color:#ffffff;stop-opacity:1"
         offset="0" />
      <stop
         id="stop3359"
         style="stop-color:#ffffff;stop-opacity:0.49803922"
         offset="0.69999999" />
      <stop
         id="stop3361"
         style="stop-color:#ffffff;stop-opacity:0"
         offset="1" />
    </linearGradient>
    <linearGradient
       id="linearGradient3554">
      <stop
         id="stop3556"
         style="stop-color:#000000;stop-opacity:1"
         offset="0" />
      <stop
         id="stop3558"
         style="stop-color:#000000;stop-opacity:0.49803922"
         offset="0.69999999" />
      <stop
         id="stop3560"
         style="stop-color:#000000;stop-opacity:0"
         offset="1" />
    </linearGradient>
    <linearGradient
       id="linearGradient3563">
      <stop
         id="stop3565"
         style="stop-color:#ffffff;stop-opacity:1"
         offset="0" />
      <stop
         id="stop3567"
         style="stop-color:#ffffff;stop-opacity:0.49803922"
         offset="0.69999999" />
      <stop
         id="stop3569"
         style="stop-color:#ffffff;stop-opacity:0"
         offset="1" />
    </linearGradient>
    <linearGradient
       id="linearGradient3572">
      <stop
         id="stop3574"
         style="stop-color:#000000;stop-opacity:1"
         offset="0" />
      <stop
         id="stop3576"
         style="stop-color:#000000;stop-opacity:0.49803922"
         offset="0.69999999" />
      <stop
         id="stop3578"
         style="stop-color:#000000;stop-opacity:0"
         offset="1" />
    </linearGradient>
    <linearGradient
       id="linearGradient3581">
      <stop
         id="stop3583"
         style="stop-color:#ffffff;stop-opacity:1"
         offset="0" />
      <stop
         id="stop3585"
         style="stop-color:#ffffff;stop-opacity:0.49803922"
         offset="0.69999999" />
      <stop
         id="stop3587"
         style="stop-color:#ffffff;stop-opacity:0"
         offset="1" />
    </linearGradient>
    <linearGradient
       id="linearGradient3590">
      <stop
         id="stop3592"
         style="stop-color:#000000;stop-opacity:1"
         offset="0" />
      <stop
         id="stop3594"
         style="stop-color:#000000;stop-opacity:0.49803922"
         offset="0.69999999" />
      <stop
         id="stop3596"
         style="stop-color:#000000;stop-opacity:0"
         offset="1" />
    </linearGradient>
    <linearGradient
       id="linearGradient3599">
      <stop
         id="stop3601"
         style="stop-color:#ffffff;stop-opacity:1"
         offset="0" />
      <stop
         id="stop3603"
         style="stop-color:#ffffff;stop-opacity:0.49803922"
         offset="0.69999999" />
      <stop
         id="stop3605"
         style="stop-color:#ffffff;stop-opacity:0"
         offset="1" />
    </linearGradient>
    <linearGradient
       id="linearGradient3439">
      <stop
         id="stop3441"
         style="stop-color:#3d3d3d;stop-opacity:1"
         offset="0" />
      <stop
         id="stop3443"
         style="stop-color:#ffffff;stop-opacity:1"
         offset="1" />
    </linearGradient>
    <filter
       x="-1.0349605"
       y="-0.13573837"
       width="3.069921"
       height="1.2714767"
       color-interpolation-filters="sRGB"
       id="filter3451">
      <feGaussianBlur
         stdDeviation="0.9498173"
         id="feGaussianBlur3453" />
    </filter>
    <filter
       x="-0.93333328"
       y="-0.13770492"
       width="2.8666666"
       height="1.2754098"
       color-interpolation-filters="sRGB"
       id="filter3457">
      <feGaussianBlur
         stdDeviation="0.92807767"
         id="feGaussianBlur3459" />
    </filter>
    <clipPath
       clipPathUnits="userSpaceOnUse"
       id="clipPath4156-4-1">
      <path
         style="opacity:0.6;fill:#ffffff;fill-opacity:1;stroke:none"
         d="m 27.046336,-55.695463 -14.21366,13.321486 h 0.06127 l 15.653407,21.770763 10.231384,-10.546177 C 38.561832,-32.30156 27.468089,-54.819245 27.046336,-55.695463 Z M 9.6468554,-39.382809 -5.2407289,-25.32124 15.987863,-7.8059573 26.372412,-18.382966 Z m 31.4906096,12.951445 -9.741259,9.713584 8.944804,12.4580526 7.780753,-7.5550056 z m -49.8397109,4.378822 -13.7541661,12.9822847 26.2830181,13.84571 0.06127,-0.0617 -0.122531,-0.0617 L 13.598503,-5.4007374 -8.7022409,-22.052595 Z m 38.0154159,7.400825 -9.802525,9.7752596 11.579232,9.5594001 7.62759,-7.40083 -8.669108,-11.0087257 z m 20.187073,5.6739697 -7.382526,7.2158 6.187844,8.54179 5.820249,-6.13651996 z m -32.195166,6.32154 -9.5574606,9.49772 13.6622686,7.1849703 7.933918,-7.6783603 z m 23.311629,2.37443004 -7.10683,6.93826996 8.362778,6.9074403 5.360756,-5.6739699 -0.06127,-0.0925 -0.0919,0.12335 -6.463539,-8.20258036 z m -8.730374,8.54178036 -7.505057,7.3391599 10.353916,5.45811 c 1.397496,-1.32103 5.67514,-6.12292 5.850882,-6.32154 z"
         id="path4158-0-8"
         inkscape:connector-curvature="0" />
    </clipPath>
    <radialGradient
       inkscape:collect="always"
       xlink:href="#linearGradient1113"
       id="radialGradient1115"
       cx="13.679793"
       cy="8.6088676"
       fx="13.679793"
       fy="8.6088676"
       r="41.537023"
       gradientTransform="matrix(1,0,0,0.46104922,0,4.6397559)"
       gradientUnits="userSpaceOnUse" />
  </defs>
  <sodipodi:namedview
     id="base"
     pagecolor="#ffffff"
     bordercolor="#666666"
     borderopacity="1.0"
     inkscape:pageopacity="0.0"
     inkscape:pageshadow="2"
     inkscape:zoom="4.6043171"
     inkscape:cx="-16.656866"
     inkscape:cy="34.421675"
     inkscape:current-layer="g3311"
     showgrid="true"
     inkscape:grid-bbox="true"
     inkscape:document-units="px"
     inkscape:window-width="1920"
     inkscape:window-height="1023"
     inkscape:window-x="0"
     inkscape:window-y="28"
     inkscape:window-maximized="1"
     showguides="true"
     inkscape:guide-bbox="true"
     inkscape:snap-global="false">
    <sodipodi:guide
       orientation="0,1"
       position="74,7.75"
       id="guide4116"
       inkscape:locked="false" />
  </sodipodi:namedview>
  <metadata
     id="metadata5028">
    <rdf:RDF>
      <cc:Work
         rdf:about="">
        <dc:format>image/svg+xml</dc:format>
        <dc:type
           rdf:resource="http://purl.org/dc/dcmitype/StillImage" />
        <dc:title />
      </cc:Work>
    </rdf:RDF>
  </metadata>
  <g
     id="layer1"
     inkscape:label="Layer 1"
     inkscape:groupmode="layer"
     transform="translate(0,80)">
    <g
       id="g5148"
       transform="matrix(1.0034441,0,0,1.0049592,33.489303,-38.526762)">
      <g
         id="g5766"
         transform="matrix(0.88387919,0,0,0.83393165,-3.5257642,5.0081212)" />
      <path
         style="opacity:0.15;fill:#000000;fill-opacity:1;fill-rule:nonzero;stroke:none;display:inline"
         d="m 55.462534,-41.268579 -82.003291,0 c -3.78581,0 -6.8336,3.043193 -6.8336,6.823302 l 0,81.87966 c 0,3.780111 3.04779,6.823304 6.8336,6.823304 l 82.003291,0 c 3.785819,0 6.833607,-3.043193 6.833607,-6.823304 l 0,-81.87966 c 0,-3.780109 -3.047788,-6.823302 -6.833607,-6.823302 z"
         id="path3288"
         inkscape:connector-curvature="0" />
      <path
         inkscape:connector-curvature="0"
         id="path4085"
         d="m 54.821885,-40.52228 -80.721993,0 c -3.726657,0 -6.726825,2.995643 -6.726825,6.716688 l 0,80.60029 c 0,3.721047 3.000168,6.71669 6.726825,6.71669 l 80.721993,0 c 3.726665,0 6.726832,-2.995643 6.726832,-6.71669 l 0,-80.60029 c 0,-3.721045 -3.000167,-6.716688 -6.726832,-6.716688 z"
         style="opacity:0.15;fill:#000000;fill-opacity:1;fill-rule:nonzero;stroke:none;display:inline" />
      <g
         id="g4060"
         transform="matrix(0.97178685,0,0,0.97178682,0.40798707,0.18323223)">
        <path
           style="fill:url(#linearGradient4071);fill-opacity:1;fill-rule:nonzero;stroke:#000000;display:inline;stroke-opacity:0.11494253"
           d="m 55.334401,-41.11932 -81.747021,0 c -3.773988,0 -6.812252,3.033683 -6.812252,6.80198 l 0,81.623788 c 0,3.768297 3.038264,6.80198 6.812252,6.80198 l 81.747021,0 c 3.773988,0 6.812252,-3.033683 6.812252,-6.80198 l 0,-81.623788 c 0,-3.768297 -3.038264,-6.80198 -6.812252,-6.80198 z"
           id="rect4251-1"
           inkscape:connector-curvature="0" />
        <g
           id="g3272"
           transform="matrix(1.1353753,0,0,1.1336634,-153.57465,-46.220805)">
          <path
             sodipodi:nodetypes="sscccsccscccsss"
             inkscape:connector-curvature="0"
             id="path3400-6"
             d="m 112,5.5 c -2.7873,0 -5,2.2127028 -5,5 l 0,20.71875 0,7 0,38.59375 c 1.07066,1.628779 2.89693,2.71875 5,2.71875 l 4,0 64,0 4,0 c 2.10307,0 3.92934,-1.089971 5,-2.71875 l 0,-38.59375 0,-7 L 189,10.5 c 0,-2.7872972 -2.2127,-5 -5,-5 z"
             style="opacity:0.2;fill:url(#radialGradient4073);fill-opacity:1;fill-rule:nonzero;stroke:none;display:inline" />
          <path
             inkscape:connector-curvature="0"
             id="path4236-5"
             d="m 112,4.5 c -3.324,0 -6,2.6759996 -6,6 l 0,15 1,0 0,-15 c 0,-2.7872972 2.2127,-5 5,-5 l 72,0 c 2.7873,0 5,2.2127028 5,5 l 0,15 1,0 0,-15 c 0,-3.3240004 -2.676,-6 -6,-6 l -72,0 z"
             style="opacity:0.45;fill:url(#radialGradient4075);fill-opacity:1;fill-rule:nonzero;stroke:none;display:inline" />
        </g>
        <path
           style="fill:url(#linearGradient4129);fill-opacity:1;fill-rule:nonzero;stroke:none;display:inline;opacity:0.65"
           d="M 1.5 81.84375 L 1.5 87.84375 C 1.5 91.523892 4.4761068 94.5 8.15625 94.5 L 87.84375 94.5 C 91.523893 94.5 94.5 91.523892 94.5 87.84375 L 94.5 81.84375 C 94.5 85.523892 91.523893 88.5 87.84375 88.5 L 8.15625 88.5 C 4.4761068 88.5 1.5 85.523892 1.5 81.84375 z "
           transform="matrix(1.0255003,0,0,1.0239543,-34.763123,-42.655251)"
           id="path4118" />
        <rect
           style="opacity:0.55;fill:url(#radialGradient4139);fill-opacity:1;stroke:none"
           id="rect4131"
           width="86.398407"
           height="4.3518057"
           x="-29.251059"
           y="39.517078"
           rx="0"
           ry="4.3518057" />
        <rect
           ry="4.3583765"
           rx="0"
           y="-58.172848"
           x="-37.79147"
           height="4.3583765"
           width="78.588493"
           id="rect4141"
           style="opacity:0.55;fill:url(#radialGradient4143);fill-opacity:1;stroke:none"
           transform="matrix(0,1,-1,0,0,0)" />
        <g
           transform="matrix(0.97683333,0,0,0.88201345,-15.183689,-19.388045)"
           id="g3311">
          <path
             inkscape:connector-curvature="0"
             style="opacity:0;fill:#000000;fill-opacity:1;stroke:none"
             d="m -11.527364,-20.414197 c -2.182681,0 -3.9375,1.754819 -3.9375,3.9375 l 0,12 c 0,-2.182681 1.754819,-3.9375 3.9375,-3.9375 l 83.75,0 c 2.182681,0 3.9375,1.754819 3.9375,3.9375 l 0,-12 c 0,-2.182681 -1.754819,-3.9375 -3.9375,-3.9375 l -83.75,0 z"
             id="rect4080" />
          <rect
             transform="scale(1,-1)"
             style="fill:#e8ecf4;fill-opacity:1;stroke:#738589;stroke-width:0.99243301;stroke-miterlimit:4;stroke-opacity:1;stroke-dasharray:none"
             id="rect4133"
             width="91.007515"
             height="90.809761"
             x="-15.156122"
             y="-70.902092"
             rx="3.9142997"
             ry="3.9057946" />
          <path
             inkscape:connector-curvature="0"
             style="fill:#e4e8e8;fill-opacity:1;stroke:#738589;stroke-width:0.99243301;stroke-miterlimit:4;stroke-opacity:1;stroke-dasharray:none"
             d="m -11.229786,-20.105492 c -2.168501,0 -3.925898,1.761406 -3.925898,3.934855 l 0,3.965838 c 0,-2.173448 1.757397,-3.934854 3.925898,-3.934854 l 83.154841,0 c 2.168502,0 3.925898,1.761406 3.925898,3.934854 l 0,-3.965838 c 0,-2.173449 -1.757396,-3.934855 -3.925898,-3.934855 l -83.154841,0 z"
             id="path4058" />
          <path
             id="path4060"
             d="m -11.229786,-12.17466 c -2.168501,0 -3.925898,1.761407 -3.925898,3.934856 l 0,3.965839 c 0,-2.173449 1.757397,-3.934856 3.925898,-3.934856 l 83.154841,0 c 2.168502,0 3.925898,1.761407 3.925898,3.934856 l 0,-3.965839 c 0,-2.173449 -1.757396,-3.934856 -3.925898,-3.934856 l -83.154841,0 z"
             style="fill:#e4e8e8;fill-opacity:1;stroke:#738589;stroke-width:0.99243301;stroke-miterlimit:4;stroke-opacity:1;stroke-dasharray:none"
             inkscape:connector-curvature="0" />
          <path
             inkscape:connector-curvature="0"
             style="fill:#e4e8e8;fill-opacity:1;stroke:#738589;stroke-width:0.99243301;stroke-miterlimit:4;stroke-opacity:1;stroke-dasharray:none"
             d="m -11.229786,-16.140075 c -2.168501,0 -3.925898,1.761406 -3.925898,3.934854 l 0,3.965839 c 0,-2.173449 1.757397,-3.934855 3.925898,-3.934855 l 83.154841,0 c 2.168502,0 3.925898,1.761406 3.925898,3.934855 l 0,-3.965839 c 0,-2.173448 -1.757396,-3.934854 -3.925898,-3.934854 l -83.154841,0 z"
             id="path4062" />
          <path
             sodipodi:nodetypes="cssccc"
             inkscape:connector-curvature="0"
             id="path4107"
             d="m 18.724603,-7.780813 0,22.165882 c 0,2.135439 -1.743637,3.852277 -3.912409,3.852277 l -29.622517,0 0,0 C 15.911421,-7.885658 -5.7880536,10.478192 15.903859,-7.582896"
             style="fill:#b0bcbc;fill-opacity:0.30612242;stroke:url(#radialGradient4547);stroke-width:0.58814007;stroke-linejoin:round;stroke-miterlimit:4;stroke-opacity:0.53875972;stroke-dasharray:none" />
          <path
             inkscape:connector-curvature="0"
             style="opacity:0.27999998;fill:url(#linearGradient4549);fill-opacity:1;stroke:none"
             d="m -11.246114,-7.507947 c -2.168522,0 -3.90625,1.74244 -3.90625,3.90625 l 0,70.59375 c 0,2.16381 1.737728,3.90625 3.90625,3.90625 l 83.1875,0 c 2.168522,0 3.90625,-1.74244 3.90625,-3.90625 l 0,-70.59375 c 0,-2.16381 -1.737728,-3.90625 -3.90625,-3.90625 l -83.1875,0 z"
             id="rect4371" />
          <rect
             style="opacity:0.6;fill:url(#radialGradient4553);fill-opacity:1;stroke:none"
             id="rect4338"
             width="89.343994"
             height="5.3759999"
             x="-14.452364"
             y="65.878304" />
          <path
             style="opacity:0.25818182;fill:url(#linearGradient4555);fill-opacity:1;stroke:none"
             d="m -11.246114,-19.914197 c -2.168522,0 -3.90625,1.74244 -3.90625,3.90625 l 0,13 c 0,-2.16381 2.087258,-4.784629 4.255776,-4.780063 l 83.012737,0.174762 c 2.168517,0.00457 3.731487,2.441491 3.731487,4.605301 l 0,-13 c 0,-2.16381 -1.737728,-3.90625 -3.90625,-3.90625 z"
             id="rect4358"
             inkscape:connector-curvature="0"
             sodipodi:nodetypes="sscsscsss" />
        </g>
        <path
           style="fill:none;stroke:#000000;stroke-width:0.40021241;stroke-linecap:butt;stroke-linejoin:miter;stroke-miterlimit:4;stroke-opacity:0.38367345;stroke-dasharray:none"
           d="m 16.125647,-14.726639 40.308053,0.01079 0,0 0,0"
           id="path4231"
           inkscape:connector-curvature="0" />
        <path
           style="fill:none;stroke:#122e48;stroke-width:0.38953137;stroke-linecap:butt;stroke-linejoin:miter;stroke-miterlimit:4;stroke-opacity:1;stroke-dasharray:none"
           d="m 17.101797,-16.569583 c 0.102253,-0.800598 0.662356,-1.351518 0.652891,-2.11139 -0.02864,-0.59944 -0.0022,-1.186844 0.326444,-1.71113 0.05144,-0.62567 0.241139,-1.218076 0.163224,-0.29404 -0.0055,0.931114 0.0086,1.862827 0,2.79338 -0.25072,0.466826 0.958759,0.877451 1.312472,1.174325 0.791756,-0.158592 0.387378,-0.899642 0.482978,-1.400366 0.0027,-0.508461 -0.0037,-1.049945 0,-1.538199 0.680889,0.475092 0.609721,1.246615 0.652891,1.96437 0.06015,0.520304 -0.145707,1.124615 0.163222,1.564111 0.413971,0.349893 -0.08421,-1.305935 0.43897,-1.163281 0.18593,-1.045653 2.926374,-0.731042 1.682926,-1.92414 -0.384896,-0.501864 -1.121772,-0.226021 -1.704857,-0.29404 -0.6831,0.0017 -1.366702,-0.0025 -2.049266,0 -1.021728,0.909745 1.046363,0.945487 1.58224,1.339721 0.798954,-0.09918 1.353777,0.745218 2.200649,0.571539 0.341972,0.09116 1.467631,-0.104522 1.07956,-0.33909 0.372782,-0.511933 0.05465,-0.692846 0.279065,-0.02846 0.312399,0.755821 0.270128,1.984664 1.624862,1.751846 0.276351,0.20328 0.914273,0.02923 1.364563,0.08591 0.826455,-0.0093 0.765939,-0.57535 0.171562,-0.973283 0.204567,-1.488981 1.946524,0.01993 2.306977,-1.084997 0.295868,-1.149106 -1.319046,-0.749366 -2.032736,-1.029141 -0.813867,0.0034 0.01891,-0.0047 0.37031,0 1.212852,0.149977 2.456166,0.05043 3.619326,0.44846 0.577447,0.336887 2.309135,-0.06178 2.28689,0.28664 -1.070114,-8.15e-4 -1.998777,0.777449 -2.95477,1.165793 -0.757846,1.114817 0.852569,1.337103 1.806211,1.192641 0.674156,0.03776 1.939383,-0.275411 1.148559,-0.807924 -0.494377,-1.058162 0.943307,-2.056418 1.48191,-0.817297 0.05216,0.570055 -0.207316,1.26382 0.223477,1.710994 0.817294,-0.222219 0.01681,-1.33537 1.187326,-0.974006 0.71809,-0.0014 1.471518,0.0021 2.167192,0 -0.762381,-0.570544 -2.257646,-0.509537 -1.8062,-1.86485 0.01616,-1.057155 2.102268,-0.410375 1.642977,-1.730341 7.05e-4,-0.810873 -10e-4,-1.621825 0,-2.43263 0.909718,0.03977 0.612816,1.066435 0.65289,1.69624 0.0061,0.9538 -0.01,1.908009 0,2.86138 0.440964,0.595925 0.181588,1.434753 0.734502,2.058281 -0.0113,0.879571 1.061108,0.734063 1.801568,0.735099 0.56477,-0.0023 1.165536,0.0031 1.707722,0 -0.607821,-0.325825 -1.84924,-0.584458 -1.958673,-1.456599 0.06272,-0.845188 0.407224,-2.072071 1.544929,-2.229271 0.972906,-0.259321 1.204318,0.36536 1.066634,1.05182 0.211592,0.773275 -0.719201,1.838861 0.326446,2.192991 0.863126,0.04312 1.775046,-0.90849 1.142559,-1.617221 -0.0895,-1.061661 -0.530666,-2.069611 -0.498981,-3.168981 0.437039,-0.375702 0.235698,-2.248283 1.002327,-1.392926 -0.136474,0.78816 0.249011,1.464062 0.149544,2.249098 -0.037,0.619553 0.115046,1.273208 -0.175647,1.843141 -0.370349,1.176458 0.745156,1.516578 1.777677,1.498808 0.604167,0.0023 1.243477,-0.003 1.825648,0 -1.053699,0.246666 -0.915941,-0.513775 -1.310267,-0.895562 0.0165,-0.5339 -0.914664,-0.849653 0.122411,-0.721658 0.928895,-0.07578 1.72108,0.405534 2.656861,0.29404 0.405307,-0.302295 1.581425,-0.625628 0.869879,-0.116853 -0.198028,0.477288 -0.479464,0.876582 -0.962391,1.229322 -0.166295,0.26851 -1.374011,0.961746 -0.812763,0.945812 0.752515,0.02946 1.339949,-0.339355 2.029174,-0.423468 0.09187,-0.05315 -0.142004,-0.145108 -0.144564,-0.164613"
           id="path4229"
           inkscape:connector-curvature="0" />
        <path
           inkscape:connector-curvature="0"
           id="path4234"
           d="m 16.125647,-2.4391866 40.308053,0.01079 0,0 0,0"
           style="fill:none;stroke:#000000;stroke-width:0.40021241;stroke-linecap:butt;stroke-linejoin:miter;stroke-miterlimit:4;stroke-opacity:0.38367345;stroke-dasharray:none" />
        <path
           inkscape:connector-curvature="0"
           id="path4236"
           d="m 52.687065,-4.2821302 c -0.102253,-0.800598 -0.662356,-1.351518 -0.652891,-2.1113896 0.02864,-0.59944 0.0022,-1.186844 -0.326444,-1.7111296 -0.05144,-0.62567 -0.241139,-1.218076 -0.163224,-0.29404 0.0055,0.9311136 -0.0086,1.8628266 0,2.7933792 0.25072,0.466826 -0.958759,0.877451 -1.312472,1.174325 -0.791756,-0.158592 -0.387378,-0.899642 -0.482978,-1.400366 -0.0027,-0.5084606 0.0037,-1.0499446 0,-1.5381986 -0.680889,0.475092 -0.609721,1.246615 -0.652891,1.9643696 -0.06015,0.520304 0.145707,1.124615 -0.163222,1.5641106 -0.413971,0.349893 0.08421,-1.3059346 -0.43897,-1.1632806 -0.18593,-1.0456526 -2.926374,-0.731042 -1.682926,-1.9241396 0.384896,-0.501864 1.121772,-0.226021 1.704857,-0.29404 0.6831,0.0017 1.366702,-0.0025 2.049266,0 1.021728,0.909745 -1.046363,0.945487 -1.58224,1.3397206 -0.798954,-0.09918 -1.353777,0.745218 -2.200649,0.571539 -0.341972,0.09116 -1.467631,-0.104522 -1.07956,-0.33909 -0.372782,-0.5119326 -0.05465,-0.6928456 -0.279065,-0.02846 -0.312399,0.755821 -0.270128,1.9846636 -1.624862,1.751846 -0.276351,0.2032796 -0.914273,0.02923 -1.364563,0.08591 -0.826455,-0.0093 -0.765939,-0.5753496 -0.171562,-0.9732826 -0.204567,-1.488981 -1.946524,0.01993 -2.306977,-1.084997 -0.295868,-1.149106 1.319046,-0.749366 2.032736,-1.029141 0.813867,0.0034 -0.01891,-0.0047 -0.37031,0 -1.212852,0.149977 -2.456166,0.05043 -3.619326,0.44846 -0.577447,0.336887 -2.309135,-0.06178 -2.28689,0.28664 1.070114,-8.15e-4 1.998777,0.777449 2.95477,1.165793 0.757846,1.114817 -0.852569,1.3371026 -1.806211,1.1926406 -0.674156,0.03776 -1.939383,-0.2754106 -1.148559,-0.8079236 0.494377,-1.058162 -0.943307,-2.056418 -1.48191,-0.817297 -0.05216,0.570055 0.207316,1.26382 -0.223477,1.7109936 -0.817294,-0.2222186 -0.01681,-1.3353696 -1.187326,-0.9740056 -0.71809,-0.0014 -1.471518,0.0021 -2.167192,0 0.762381,-0.570544 2.257646,-0.509537 1.8062,-1.86485 -0.01616,-1.057155 -2.102268,-0.410375 -1.642977,-1.7303406 -7.05e-4,-0.810873 0.001,-1.621825 0,-2.4326296 -0.909718,0.03977 -0.612816,1.0664346 -0.65289,1.6962396 -0.0061,0.9538 0.01,1.9080086 0,2.8613796 -0.440964,0.595925 -0.181588,1.434753 -0.734502,2.058281 0.0113,0.8795706 -1.061108,0.7340626 -1.801568,0.7350986 -0.56477,-0.0023 -1.165536,0.0031 -1.707722,0 0.607821,-0.325825 1.84924,-0.5844576 1.958673,-1.4565986 -0.06272,-0.845188 -0.407224,-2.072071 -1.544929,-2.229271 -0.972906,-0.259321 -1.204318,0.36536 -1.066634,1.05182 -0.211592,0.773275 0.719201,1.838861 -0.326446,2.1929906 -0.863126,0.04312 -1.775046,-0.9084896 -1.142559,-1.6172206 0.0895,-1.061661 0.530666,-2.069611 0.498981,-3.1689806 -0.437039,-0.375702 -0.235698,-2.2482826 -1.002327,-1.3929256 0.136474,0.7881596 -0.249011,1.4640616 -0.149544,2.2490972 0.037,0.619553 -0.115046,1.273208 0.175647,1.843141 0.370349,1.176458 -0.745156,1.516578 -1.777677,1.498808 -0.604167,0.0023 -1.243477,-0.003 -1.825648,0 1.053699,0.246666 0.915941,-0.513775 1.310267,-0.895562 -0.0165,-0.5339 0.914664,-0.849653 -0.122411,-0.721658 -0.928895,-0.07578 -1.72108,0.405534 -2.656861,0.29404 -0.405307,-0.302295 -1.581425,-0.625628 -0.869879,-0.116853 0.198028,0.477288 0.479464,0.876582 0.962391,1.229322 0.166295,0.26851 1.374011,0.9617456 0.812763,0.9458116 -0.752515,0.02946 -1.339949,-0.3393546 -2.029174,-0.4234676 -0.09187,-0.05315 0.142004,-0.145108 0.144564,-0.164613"
           style="fill:none;stroke:#122e48;stroke-width:0.38953137;stroke-linecap:butt;stroke-linejoin:miter;stroke-miterlimit:4;stroke-opacity:1;stroke-dasharray:none" />
        <g
           id="g1094"
           transform="translate(0.22272582,9.3403818)"
           style="fill:url(#radialGradient1115);fill-opacity:1;stroke-width:2.45934481;stroke-miterlimit:4;stroke-dasharray:none;stroke:#052228;stroke-opacity:1">
          <ellipse
             ry="18.791958"
             rx="18.820332"
             cy="8.6088676"
             cx="36.03783"
             id="path1088"
             style="opacity:0.86699997;fill:url(#radialGradient1115);fill-opacity:1;stroke:#052228;stroke-width:2.45934481;stroke-linecap:round;stroke-miterlimit:4;stroke-dasharray:none;stroke-opacity:1;paint-order:markers fill stroke" />
          <ellipse
             style="opacity:0.86699997;fill:url(#radialGradient1115);fill-opacity:1;stroke:#052228;stroke-width:2.45934481;stroke-linecap:round;stroke-miterlimit:4;stroke-dasharray:none;stroke-opacity:1;paint-order:markers fill stroke"
             id="ellipse1090"
             cx="-8.6782446"
             cy="8.6088676"
             rx="18.820332"
             ry="18.791958" />
        </g>
        <path
           inkscape:connector-curvature="0"
           id="path1101"
           d="m 39.37886,2.1735143 a 16.099573,14.898644 51.845993 0 0 -7.240121,0.3558243 21.554199,19.946386 51.845963 0 1 3.030977,0.3471168 21.554199,19.946386 51.845963 0 1 17.671272,17.6649356 16.099573,14.898644 51.845993 0 0 0.0011,-0.0097 A 16.099573,14.898644 51.845993 0 0 39.378743,2.1735502 Z"
           style="opacity:0.86699997;fill:#ffffff;fill-opacity:0.81057267;stroke:#8ce1f2;stroke-width:0.23466247;stroke-linecap:round;stroke-miterlimit:4;stroke-dasharray:none;stroke-opacity:1;paint-order:markers fill stroke" />
        <path
           style="opacity:0.86699997;fill:#ffffff;fill-opacity:0.81057267;stroke:#8ce1f2;stroke-width:0.23466247;stroke-linecap:round;stroke-miterlimit:4;stroke-dasharray:none;stroke-opacity:1;paint-order:markers fill stroke"
           d="m -11.44869,2.6182944 a 14.898644,16.099573 38.154007 0 1 7.2401207,0.3558243 19.946386,21.554199 38.154037 0 0 -3.030977,0.3471168 19.946386,21.554199 38.154037 0 0 -17.6712727,17.6649355 14.898644,16.099573 38.154007 0 1 -0.0011,-0.0097 14.898644,16.099573 38.154007 0 1 13.463346,-18.3581407 z"
           id="path1103"
           inkscape:connector-curvature="0" />
        <path
           inkscape:connector-curvature="0"
           id="path1105"
           d="m -6.5026602,34.171984 a 14.898644,16.099573 38.154007 0 1 -7.2401208,-0.355824 19.946386,21.554199 38.154037 0 0 3.030977,-0.347117 19.946386,21.554199 38.154037 0 0 17.6712725,-17.664935 14.898644,16.099573 38.154007 0 1 0.0011,0.0097 14.898644,16.099573 38.154007 0 1 -13.4633457,18.358141 z"
           style="opacity:0.86699997;fill:#ffffff;fill-opacity:0.81057267;stroke:#8ce1f2;stroke-width:0.23466247;stroke-linecap:round;stroke-miterlimit:4;stroke-dasharray:none;stroke-opacity:1;paint-order:markers fill stroke" />
        <path
           style="opacity:0.86699997;fill:#ffffff;fill-opacity:0.81057267;stroke:#8ce1f2;stroke-width:0.23466247;stroke-linecap:round;stroke-miterlimit:4;stroke-dasharray:none;stroke-opacity:1;paint-order:markers fill stroke"
           d="M 34.432829,34.394375 A 16.099573,14.898644 51.845993 0 0 41.67295,34.038551 21.554199,19.946386 51.845963 0 1 38.641973,33.691434 21.554199,19.946386 51.845963 0 1 20.9707,16.026499 a 16.099573,14.898644 51.845993 0 0 -0.0011,0.0097 16.099573,14.898644 51.845993 0 0 13.463346,18.358141 z"
           id="path1107"
           inkscape:connector-curvature="0" />
        <rect
           style="opacity:0.86699997;fill:#ffffff;fill-opacity:1;stroke:#052228;stroke-width:1.66504586;stroke-linecap:round;stroke-miterlimit:4;stroke-dasharray:none;stroke-opacity:1;paint-order:markers fill stroke"
           id="rect1117"
           width="6.4840417"
           height="3.4629798"
           x="10.943973"
           y="16.106565" />
      </g>
    </g>
  </g>
</svg>
