<?xml version="1.0" encoding="UTF-8" standalone="no"?>
<!-- Created with Inkscape (http://www.inkscape.org/) -->

<svg
   xmlns:dc="http://purl.org/dc/elements/1.1/"
   xmlns:cc="http://creativecommons.org/ns#"
   xmlns:rdf="http://www.w3.org/1999/02/22-rdf-syntax-ns#"
   xmlns:svg="http://www.w3.org/2000/svg"
   xmlns="http://www.w3.org/2000/svg"
   xmlns:xlink="http://www.w3.org/1999/xlink"
   xmlns:sodipodi="http://sodipodi.sourceforge.net/DTD/sodipodi-0.dtd"
   xmlns:inkscape="http://www.inkscape.org/namespaces/inkscape"
   width="96"
   height="96"
   viewBox="0 0 96.000001 96.000004"
   version="1.1"
   id="svg1072"
   inkscape:version="0.92.2 2405546, 2018-03-11"
   sodipodi:docname="convertall.svg">
  <title
     id="title858">Lila-HD-Icon-Theme</title>
  <defs
     id="defs1066">
    <linearGradient
       y2="47.000011"
       x2="90"
       y1="47.000011"
       x1="6"
       gradientTransform="matrix(1.1071428,0,0,1.1071426,-4.9939026,-3.620687)"
       gradientUnits="userSpaceOnUse"
       id="linearGradient4071"
       xlink:href="#linearGradient6139-0"
       inkscape:collect="always" />
    <linearGradient
       id="linearGradient6139-0">
      <stop
         style="stop-color:#b4b9ba;stop-opacity:1"
         offset="0"
         id="stop6141-2" />
      <stop
         id="stop6151-0"
         offset="0.25"
         style="stop-color:#ffffff;stop-opacity:1;" />
      <stop
         id="stop6147-1"
         offset="0.5"
         style="stop-color:#98a0a2;stop-opacity:1" />
      <stop
         style="stop-color:#fbf9f9;stop-opacity:1;"
         offset="0.75"
         id="stop6149-4" />
      <stop
         style="stop-color:#b4b8ba;stop-opacity:1"
         offset="1"
         id="stop6143-4" />
    </linearGradient>
    <linearGradient
       gradientUnits="userSpaceOnUse"
       y2="88.171875"
       x2="94.5"
       y1="88.171875"
       x1="1.5"
       id="linearGradient4129"
       xlink:href="#linearGradient3832-0-6-1-1"
       inkscape:collect="always"
       gradientTransform="translate(0.1489535,0.415026)" />
    <linearGradient
       id="linearGradient3832-0-6-1-1">
      <stop
         id="stop3834-6-3-7-1"
         offset="0"
         style="stop-color:#000000;stop-opacity:1;" />
      <stop
         style="stop-color:#000000;stop-opacity:0.58823532;"
         offset="0.1"
         id="stop3872-2-4" />
      <stop
         id="stop3844-6-2-7-6"
         offset="0.89999998"
         style="stop-color:#000000;stop-opacity:0.58823532;" />
      <stop
         id="stop3836-5-0-2-9"
         offset="1"
         style="stop-color:#000000;stop-opacity:1;" />
    </linearGradient>
    <radialGradient
       r="43.199203"
       fy="44.892841"
       fx="13.948145"
       cy="44.892841"
       cx="13.948145"
       gradientTransform="matrix(0.97513378,0,0,0.04919072,34.047649,80.581722)"
       gradientUnits="userSpaceOnUse"
       id="radialGradient7462"
       xlink:href="#linearGradient3737"
       inkscape:collect="always" />
    <linearGradient
       id="linearGradient3737">
      <stop
         id="stop3739"
         style="stop-color:#ffffff;stop-opacity:1"
         offset="0" />
      <stop
         id="stop3741"
         style="stop-color:#ffffff;stop-opacity:0"
         offset="1" />
    </linearGradient>
    <radialGradient
       r="43.199203"
       fy="44.892841"
       fx="13.948145"
       cy="44.892841"
       cx="13.948145"
       gradientTransform="matrix(0.88832663,0,0,0.04919072,31.959518,-90.31726)"
       gradientUnits="userSpaceOnUse"
       id="radialGradient7464"
       xlink:href="#linearGradient3737"
       inkscape:collect="always" />
    <linearGradient
       y2="14.514202"
       x2="50.527882"
       y1="-28.64156"
       x1="2.7713892"
       gradientUnits="userSpaceOnUse"
       id="linearGradient4767"
       xlink:href="#linearGradient3737"
       inkscape:collect="always" />
    <clipPath
       clipPathUnits="userSpaceOnUse"
       id="clipPath4156-4-1">
      <path
         style="opacity:0.6;fill:#ffffff;fill-opacity:1;stroke:none"
         d="m 27.046336,-55.695463 -14.21366,13.321486 h 0.06127 l 15.653407,21.770763 10.231384,-10.546177 C 38.561832,-32.30156 27.468089,-54.819245 27.046336,-55.695463 Z M 9.6468554,-39.382809 -5.2407289,-25.32124 15.987863,-7.8059573 26.372412,-18.382966 Z m 31.4906096,12.951445 -9.741259,9.713584 8.944804,12.4580526 7.780753,-7.5550056 z m -49.8397109,4.378822 -13.7541661,12.9822847 26.2830181,13.84571 0.06127,-0.0617 -0.122531,-0.0617 L 13.598503,-5.4007374 -8.7022409,-22.052595 Z m 38.0154159,7.400825 -9.802525,9.7752596 11.579232,9.5594001 7.62759,-7.40083 -8.669108,-11.0087257 z m 20.187073,5.6739697 -7.382526,7.2158 6.187844,8.54179 5.820249,-6.13651996 z m -32.195166,6.32154 -9.5574606,9.49772 13.6622686,7.1849703 7.933918,-7.6783603 z m 23.311629,2.37443004 -7.10683,6.93826996 8.362778,6.9074403 5.360756,-5.6739699 -0.06127,-0.0925 -0.0919,0.12335 -6.463539,-8.20258036 z m -8.730374,8.54178036 -7.505057,7.3391599 10.353916,5.45811 c 1.397496,-1.32103 5.67514,-6.12292 5.850882,-6.32154 z"
         id="path4158-0-8"
         inkscape:connector-curvature="0" />
    </clipPath>
    <linearGradient
       x1="40"
       y1="32"
       x2="40"
       y2="80"
       id="linearGradient4081-0-1-1"
       xlink:href="#linearGradient4012-0-6-3"
       gradientUnits="userSpaceOnUse"
       gradientTransform="translate(0,-90)" />
    <linearGradient
       id="linearGradient4012-0-6-3">
      <stop
         id="stop4014-0-8-1"
         style="stop-color:#f5f5f5;stop-opacity:1"
         offset="0" />
      <stop
         id="stop4016-0-0-4"
         style="stop-color:#d7d7d7;stop-opacity:1"
         offset="1" />
    </linearGradient>
  </defs>
  <sodipodi:namedview
     id="base"
     pagecolor="#ffffff"
     bordercolor="#666666"
     borderopacity="1.0"
     inkscape:pageopacity="0.0"
     inkscape:pageshadow="2"
     inkscape:zoom="15.693104"
     inkscape:cx="31.739317"
     inkscape:cy="44.557005"
     inkscape:document-units="px"
     inkscape:current-layer="g2574"
     showgrid="false"
     inkscape:showpageshadow="false"
     units="px"
     inkscape:lockguides="false"
     inkscape:window-width="1280"
     inkscape:window-height="972"
     inkscape:window-x="0"
     inkscape:window-y="26"
     inkscape:window-maximized="1" />
  <metadata
     id="metadata1069">
    <rdf:RDF>
      <cc:Work
         rdf:about="">
        <dc:format>image/svg+xml</dc:format>
        <dc:type
           rdf:resource="http://purl.org/dc/dcmitype/StillImage" />
        <dc:title>Lila-HD-Icon-Theme</dc:title>
        <dc:date>2015-2019</dc:date>
        <dc:creator>
          <cc:Agent>
            <dc:title>Cristian Pozzessere  &lt; ilnanny &gt;</dc:title>
          </cc:Agent>
        </dc:creator>
        <dc:subject>
          <rdf:Bag>
            <rdf:li>ilnanny</rdf:li>
            <rdf:li>lila_hd</rdf:li>
            <rdf:li>lila-hd</rdf:li>
            <rdf:li>lila hd icon theme</rdf:li>
            <rdf:li>Lila-HD-Icon-Theme lila hd icon lila icon</rdf:li>
          </rdf:Bag>
        </dc:subject>
        <dc:description>Playing with Inkscape on Gnu/Linux O. S.</dc:description>
        <dc:contributor>
          <cc:Agent>
            <dc:title>In the night, alone like a dog.</dc:title>
          </cc:Agent>
        </dc:contributor>
        <cc:license
           rdf:resource="http://creativecommons.org/licenses/by-sa/4.0/" />
      </cc:Work>
      <cc:License
         rdf:about="http://creativecommons.org/licenses/by-sa/4.0/">
        <cc:permits
           rdf:resource="http://creativecommons.org/ns#Reproduction" />
        <cc:permits
           rdf:resource="http://creativecommons.org/ns#Distribution" />
        <cc:requires
           rdf:resource="http://creativecommons.org/ns#Notice" />
        <cc:requires
           rdf:resource="http://creativecommons.org/ns#Attribution" />
        <cc:permits
           rdf:resource="http://creativecommons.org/ns#DerivativeWorks" />
        <cc:requires
           rdf:resource="http://creativecommons.org/ns#ShareAlike" />
      </cc:License>
    </rdf:RDF>
  </metadata>
  <g
     inkscape:label="Livello 1"
     inkscape:groupmode="layer"
     id="layer1"
     transform="translate(0,-1026.5197)">
    <g
       transform="translate(-0.14895645,1026.1047)"
       style="display:inline"
       id="g2574">
      <path
         inkscape:connector-curvature="0"
         id="path3288"
         d="M 89.29181,0.415026 H 7.0060911 c -3.798848,0 -6.8571352,3.058285 -6.8571352,6.8571399 V 89.557884 c 0,3.798857 3.0582872,6.857142 6.8571352,6.857142 H 89.29181 c 3.798857,0 6.857147,-3.058285 6.857147,-6.857142 V 7.2721659 c 0,-3.7988549 -3.05829,-6.8571399 -6.857147,-6.8571399 z"
         style="display:inline;opacity:0.15;fill:#000000;fill-opacity:1;fill-rule:nonzero;stroke:none" />
      <path
         style="display:inline;opacity:0.15;fill:#000000;fill-opacity:1;fill-rule:nonzero;stroke:none"
         d="M 88.648954,1.165026 H 7.6489471 c -3.739492,0 -6.749993,3.010499 -6.749993,6.7499969 V 88.915026 c 0,3.739501 3.010501,6.75 6.749993,6.75 H 88.648954 c 3.739503,0 6.750003,-3.010499 6.750003,-6.75 V 7.9150229 c 0,-3.7394979 -3.0105,-6.7499969 -6.750003,-6.7499969 z"
         id="path4085"
         inkscape:connector-curvature="0" />
      <path
         inkscape:connector-curvature="0"
         id="rect4251-1"
         d="M 88.006093,1.915026 H 8.2918111 c -3.680143,0 -6.6428566,2.962713 -6.6428566,6.6428549 V 88.272171 c 0,3.680142 2.9627136,6.642856 6.6428566,6.642856 H 88.006093 c 3.680143,0 6.642854,-2.962714 6.642854,-6.642856 V 8.5578809 c 0,-3.6801419 -2.962711,-6.6428549 -6.642854,-6.6428549 z"
         style="display:inline;fill:url(#linearGradient4071);fill-opacity:1;fill-rule:nonzero;stroke:none" />
      <path
         sodipodi:nodetypes="sscccsccscccsss"
         inkscape:connector-curvature="0"
         id="path3400-6"
         d="m 11.390247,6.8021682 c -2.8564964,0 -5.1241284,2.3146876 -5.1241284,5.2304538 v 21.67369 7.322634 40.372561 c 1.0972399,1.70385 2.9688485,2.844058 5.1241284,2.844058 h 4.099303 65.588849 4.099302 c 2.155281,0 4.026889,-1.140208 5.124129,-2.844058 V 41.028946 33.706312 12.032622 c 0,-2.9157662 -2.267632,-5.2304538 -5.124129,-5.2304538 z"
         style="display:inline;opacity:0.77864583;fill:#00b800;fill-opacity:1;fill-rule:nonzero;stroke:none;stroke-width:1.03540373" />
      <path
         style="color:#000000;font-style:normal;font-variant:normal;font-weight:normal;font-stretch:normal;font-size:medium;line-height:normal;font-family:Sans;-inkscape-font-specification:Sans;text-indent:0;text-align:start;text-decoration:none;text-decoration-line:none;letter-spacing:normal;word-spacing:normal;text-transform:none;writing-mode:lr-tb;direction:ltr;baseline-shift:baseline;text-anchor:start;display:inline;overflow:visible;visibility:visible;fill:#1f2024;fill-opacity:0.63265306;stroke:none;stroke-width:2.3755002;marker:none;enable-background:accumulate"
         d="m 9.9740341,5.1444869 c -3.116621,0 -5.667965,2.53951 -5.667965,5.6460041 v 69.277996 c 0,3.106495 2.551344,5.646004 5.667965,5.646004 H 86.765819 c 3.116621,0 5.667968,-2.539509 5.667968,-5.646004 V 10.790491 c 0,-3.1064931 -2.551347,-5.6460041 -5.667968,-5.6460041 z m 0,2.319439 H 86.765819 c 1.888099,0 3.352022,1.480095 3.352022,3.3265651 v 69.277996 c 0,1.846474 -1.463923,3.326564 -3.352022,3.326564 H 9.9740341 c -1.888099,0 -3.352022,-1.48009 -3.352022,-3.326564 V 10.790491 c 0,-1.8464701 1.463923,-3.3265651 3.352022,-3.3265651 z"
         id="path4989"
         inkscape:connector-curvature="0" />
      <path
         id="path4118"
         d="m 1.6489535,82.258776 v 6 c 0,3.680142 2.9761066,6.65625 6.6562496,6.65625 H 87.992703 c 3.680143,0 6.656254,-2.976108 6.656254,-6.65625 v -6 c 0,3.680142 -2.976111,6.65625 -6.656254,6.65625 H 8.3052031 c -3.680143,0 -6.6562496,-2.976108 -6.6562496,-6.65625 z"
         style="display:inline;opacity:0.65818182;fill:url(#linearGradient4129);fill-opacity:1;fill-rule:nonzero;stroke:none"
         inkscape:connector-curvature="0" />
      <rect
         ry="4.25"
         rx="0"
         y="80.665031"
         x="5.5239539"
         height="4.25"
         width="84.250008"
         id="rect4131"
         style="opacity:0.55;fill:url(#radialGradient7462);fill-opacity:1;stroke:none" />
      <rect
         transform="rotate(90)"
         style="opacity:0.669;fill:url(#radialGradient7464);fill-opacity:1;stroke:none"
         id="rect4141"
         width="76.75"
         height="4.25"
         x="5.9750223"
         y="-90.233963"
         rx="0"
         ry="4.25" />
      <g
         style="display:inline"
         transform="matrix(1.1943407,0.32497662,-0.31040328,1.1927732,-37.636023,34.631898)"
         id="g3507">
        <g
           id="g1095"
           transform="translate(21.944375,23.82938)">
          <g
             id="g1102">
            <path
               d="m 48,29.9375 c -2.347894,0.0036 -4.702921,0.290751 -7,0.90625 C 26.932623,34.613091 18.509769,48.855135 21.6875,62.9375 L 17.78125,64 A 1.0555079,1.0555079 0 0 0 17.5,65.90625 l 11.28125,7.3125 a 1.0555079,1.0555079 0 0 0 1.5,-0.40625 L 36.375,60.84375 a 1.0555079,1.0555079 0 0 0 -1.21875,-1.5 l -3.6875,0.96875 C 29.721192,51.611713 34.929573,42.986183 43.625,40.65625 45.066107,40.270107 46.529919,40.063699 48,40.0625 A 1.0555079,1.0555079 0 0 0 49.0625,39 V 31 A 1.0555079,1.0555079 0 0 0 48,29.9375 Z m 21.9375,16 a 1.0555079,1.0555079 0 0 0 -0.71875,0.34375 l -9,10 A 1.0555079,1.0555079 0 0 0 61,58.0625 h 3.84375 C 64.285266,66.925417 57.005833,73.9375 48,73.9375 c -2.975631,0 -5.893683,-0.763284 -8.46875,-2.25 a 1.0555079,1.0555079 0 0 0 -1.4375,0.375 l -4,6.9375 a 1.0555079,1.0555079 0 0 0 0.375,1.4375 c 4.114581,2.375555 8.784338,3.625 13.53125,3.625 14.564591,0 26.364247,-11.574679 26.9375,-26 H 79 a 1.0555079,1.0555079 0 0 0 0.78125,-1.78125 l -9,-10 A 1.0555079,1.0555079 0 0 0 69.9375,45.9375 Z"
               transform="translate(0,-90)"
               id="path4071"
               style="color:#000000;display:inline;overflow:visible;visibility:visible;opacity:0.15;fill:#000000;fill-opacity:1;fill-rule:nonzero;stroke:none;stroke-width:1;marker:none;enable-background:accumulate"
               inkscape:connector-curvature="0" />
            <path
               d="m 48,-59 c -2.261594,0.0035 -4.51453,0.284382 -6.71875,0.875 -13.870118,3.716486 -22.122737,17.973632 -18.40625,31.84375 l -4.8125,1.3125 11.28125,7.3125 6.09375,-11.96875 -4.8125,1.28125 C 28.052048,-37.94614 33.741361,-47.802047 43.34375,-50.375 44.869749,-50.78389 46.43397,-50.998723 48,-51 Z m 22,16 -9,10 h 5 c 0,9.941125 -8.058875,18 -18,18 -3.15966,0 -6.263654,-0.82642 -9,-2.40625 l -4,6.9375 C 38.952499,-8.186773 43.436047,-7 48,-7 62.359403,-7 74,-18.640597 74,-33 h 5 z"
               inkscape:connector-curvature="0"
               id="path4073"
               style="color:#000000;display:inline;overflow:visible;visibility:visible;opacity:0.3;fill:#000000;fill-opacity:1;fill-rule:nonzero;stroke:none;stroke-width:1;marker:none;enable-background:accumulate" />
            <path
               d="m 48,-60 c -2.261594,0.0035 -4.51453,0.284382 -6.71875,0.875 -13.870118,3.716486 -22.122737,17.973632 -18.40625,31.84375 l -4.8125,1.3125 11.28125,7.3125 6.09375,-11.96875 -4.8125,1.28125 C 28.052048,-38.94614 33.741361,-48.802047 43.34375,-51.375 44.869749,-51.78389 46.43397,-51.998723 48,-52 Z m 22,16 -9,10 h 5 c 0,9.941125 -8.058875,18 -18,18 -3.15966,0 -6.263654,-0.82642 -9,-2.40625 l -4,6.9375 C 38.952499,-9.186773 43.436047,-8 48,-8 62.359403,-8 74,-19.640597 74,-34 h 5 z"
               inkscape:connector-curvature="0"
               id="path4075"
               style="color:#000000;display:inline;overflow:visible;visibility:visible;fill:url(#linearGradient4081-0-1-1);fill-opacity:1;fill-rule:nonzero;stroke:none;stroke-width:1;marker:none;enable-background:accumulate" />
            <path
               d="m 48,-60 c -2.261594,0.0035 -4.51453,0.284382 -6.71875,0.875 C 29.673484,-56.014709 22.015973,-45.532621 22,-34.0625 22.445761,-45.13775 30.011779,-55.105355 41.28125,-58.125 43.48547,-58.715618 45.738406,-58.9965 48,-59 Z m 22,16 -9,10 h 0.90625 L 70,-43 l 8.09375,9 H 79 Z m -4.0625,11 c -0.52128,9.473719 -8.333561,17 -17.9375,17 -3.15966,0 -6.263654,-0.82642 -9,-2.40625 l -4,6.9375 c 0.145898,0.08423 0.290178,0.168755 0.4375,0.25 L 39,-17.40625 C 41.736346,-15.82642 44.84034,-15 48,-15 c 9.941125,0 18,-8.058875 18,-18 z m -35.90625,0.0625 c 0.0063,1.519299 0.181852,3.056525 0.59375,4.59375 l 4.21875,-1.125 0.59375,-1.15625 -4.8125,1.28125 c -0.321619,-1.200299 -0.521832,-2.400249 -0.59375,-3.59375 z m -7.375,5.71875 -4.59375,1.25 1.09375,0.71875 3.71875,-1.03125 c -0.08287,-0.309269 -0.147713,-0.627968 -0.21875,-0.9375 z"
               inkscape:connector-curvature="0"
               id="path4077"
               style="color:#000000;display:inline;overflow:visible;visibility:visible;fill:#ffffff;fill-opacity:1;fill-rule:nonzero;stroke:none;stroke-width:1;marker:none;enable-background:accumulate" />
            <path
               d="m 48,-53 c -1.56603,0.0013 -3.130251,0.21611 -4.65625,0.625 -8.138867,2.180803 -13.444249,9.600268 -13.3125,17.65625 0.302653,-7.66391 5.510559,-14.565726 13.3125,-16.65625 C 44.869749,-51.78389 46.43397,-51.998723 48,-52 Z M 61.90625,-35 61,-34 h 4.9375 C 65.955802,-34.332615 66,-34.662814 66,-35 Z M 74,-35 c 0,14.359403 -11.640597,26 -26,26 -4.395485,0 -8.718732,-1.098997 -12.5625,-3.21875 L 35,-11.46875 C 38.952499,-9.186773 43.436047,-8 48,-8 62.359403,-8 74,-19.640597 74,-34 h 5 l -0.90625,-1 z m -52,0.21875 c -0.06341,2.161911 0.151788,4.364395 0.65625,6.5625 l 0.21875,-0.0625 c -0.580701,-2.167206 -0.854498,-4.355582 -0.875,-6.5 z m 13.4375,4.15625 -0.59375,0.15625 -5.5,10.8125 -10.1875,-6.59375 -1.09375,0.28125 11.28125,7.3125 z"
               inkscape:connector-curvature="0"
               id="path4079"
               style="color:#000000;display:inline;overflow:visible;visibility:visible;opacity:0.15;fill:#000000;fill-opacity:1;fill-rule:nonzero;stroke:none;stroke-width:1;marker:none;enable-background:accumulate" />
          </g>
        </g>
      </g>
      <rect
         clip-path="url(#clipPath4156-4-1)"
         ry="3.9569881"
         rx="3.9569874"
         y="-30"
         x="2"
         height="69.024437"
         width="75.965775"
         id="rect4146"
         style="opacity:0.5078125;fill:url(#linearGradient4767);fill-opacity:1;stroke:none"
         transform="matrix(1.0692451,0,0,1.0476829,4.4441802,38.894013)" />
    </g>
  </g>
</svg>
