<?xml version="1.0" encoding="UTF-8" standalone="no"?>
<!-- Created with Inkscape (http://www.inkscape.org/) -->

<svg
   xmlns:dc="http://purl.org/dc/elements/1.1/"
   xmlns:cc="http://creativecommons.org/ns#"
   xmlns:rdf="http://www.w3.org/1999/02/22-rdf-syntax-ns#"
   xmlns:svg="http://www.w3.org/2000/svg"
   xmlns="http://www.w3.org/2000/svg"
   xmlns:xlink="http://www.w3.org/1999/xlink"
   xmlns:sodipodi="http://sodipodi.sourceforge.net/DTD/sodipodi-0.dtd"
   xmlns:inkscape="http://www.inkscape.org/namespaces/inkscape"
   width="96"
   height="96"
   viewBox="0 0 96.000001 96.000004"
   version="1.1"
   id="svg1072"
   inkscape:version="0.92.2 5c3e80d, 2017-08-06"
   sodipodi:docname="haguichi.svg">
  <defs
     id="defs1066">
    <linearGradient
       y2="47.000011"
       x2="90"
       y1="47.000011"
       x1="6"
       gradientTransform="matrix(1.1071428,0,0,1.1071426,-4.9939026,-3.620687)"
       gradientUnits="userSpaceOnUse"
       id="linearGradient4071"
       xlink:href="#linearGradient6139-0"
       inkscape:collect="always" />
    <linearGradient
       id="linearGradient6139-0">
      <stop
         style="stop-color:#b4b9ba;stop-opacity:1"
         offset="0"
         id="stop6141-2" />
      <stop
         id="stop6151-0"
         offset="0.25"
         style="stop-color:#ffffff;stop-opacity:1;" />
      <stop
         id="stop6147-1"
         offset="0.5"
         style="stop-color:#98a0a2;stop-opacity:1" />
      <stop
         style="stop-color:#fbf9f9;stop-opacity:1;"
         offset="0.75"
         id="stop6149-4" />
      <stop
         style="stop-color:#b4b8ba;stop-opacity:1"
         offset="1"
         id="stop6143-4" />
    </linearGradient>
    <linearGradient
       gradientUnits="userSpaceOnUse"
       y2="88.171875"
       x2="94.5"
       y1="88.171875"
       x1="1.5"
       id="linearGradient4129"
       xlink:href="#linearGradient3832-0-6-1-1"
       inkscape:collect="always"
       gradientTransform="translate(0.1489535,0.415026)" />
    <linearGradient
       id="linearGradient3832-0-6-1-1">
      <stop
         id="stop3834-6-3-7-1"
         offset="0"
         style="stop-color:#000000;stop-opacity:1;" />
      <stop
         style="stop-color:#000000;stop-opacity:0.58823532;"
         offset="0.1"
         id="stop3872-2-4" />
      <stop
         id="stop3844-6-2-7-6"
         offset="0.89999998"
         style="stop-color:#000000;stop-opacity:0.58823532;" />
      <stop
         id="stop3836-5-0-2-9"
         offset="1"
         style="stop-color:#000000;stop-opacity:1;" />
    </linearGradient>
    <radialGradient
       r="43.199203"
       fy="44.892841"
       fx="13.948145"
       cy="44.892841"
       cx="13.948145"
       gradientTransform="matrix(0.97513378,0,0,0.04919072,34.047649,80.581722)"
       gradientUnits="userSpaceOnUse"
       id="radialGradient7462"
       xlink:href="#linearGradient3737"
       inkscape:collect="always" />
    <linearGradient
       id="linearGradient3737">
      <stop
         id="stop3739"
         style="stop-color:#ffffff;stop-opacity:1"
         offset="0" />
      <stop
         id="stop3741"
         style="stop-color:#ffffff;stop-opacity:0"
         offset="1" />
    </linearGradient>
    <radialGradient
       r="43.199203"
       fy="44.892841"
       fx="13.948145"
       cy="44.892841"
       cx="13.948145"
       gradientTransform="matrix(0.88832663,0,0,0.04919072,31.959518,-90.31726)"
       gradientUnits="userSpaceOnUse"
       id="radialGradient7464"
       xlink:href="#linearGradient3737"
       inkscape:collect="always" />
    <linearGradient
       y2="14.514202"
       x2="50.527882"
       y1="-28.64156"
       x1="2.7713892"
       gradientUnits="userSpaceOnUse"
       id="linearGradient4767"
       xlink:href="#linearGradient3737"
       inkscape:collect="always" />
    <clipPath
       clipPathUnits="userSpaceOnUse"
       id="clipPath4156-4-1">
      <path
         style="opacity:0.6;fill:#ffffff;fill-opacity:1;stroke:none"
         d="m 27.046336,-55.695463 -14.21366,13.321486 h 0.06127 l 15.653407,21.770763 10.231384,-10.546177 C 38.561832,-32.30156 27.468089,-54.819245 27.046336,-55.695463 Z M 9.6468554,-39.382809 -5.2407289,-25.32124 15.987863,-7.8059573 26.372412,-18.382966 Z m 31.4906096,12.951445 -9.741259,9.713584 8.944804,12.4580526 7.780753,-7.5550056 z m -49.8397109,4.378822 -13.7541661,12.9822847 26.2830181,13.84571 0.06127,-0.0617 -0.122531,-0.0617 L 13.598503,-5.4007374 -8.7022409,-22.052595 Z m 38.0154159,7.400825 -9.802525,9.7752596 11.579232,9.5594001 7.62759,-7.40083 -8.669108,-11.0087257 z m 20.187073,5.6739697 -7.382526,7.2158 6.187844,8.54179 5.820249,-6.13651996 z m -32.195166,6.32154 -9.5574606,9.49772 13.6622686,7.1849703 7.933918,-7.6783603 z m 23.311629,2.37443004 -7.10683,6.93826996 8.362778,6.9074403 5.360756,-5.6739699 -0.06127,-0.0925 -0.0919,0.12335 -6.463539,-8.20258036 z m -8.730374,8.54178036 -7.505057,7.3391599 10.353916,5.45811 c 1.397496,-1.32103 5.67514,-6.12292 5.850882,-6.32154 z"
         id="path4158-0-8"
         inkscape:connector-curvature="0" />
    </clipPath>
    <linearGradient
       x1="151.12161"
       y1="181.93436"
       x2="158.48705"
       y2="216.4223"
       id="linearGradient3717-10"
       xlink:href="#linearGradient3737"
       gradientUnits="userSpaceOnUse"
       gradientTransform="matrix(0.24255321,0,0,0.32868671,-245.68216,17.896562)" />
    <filter
       style="color-interpolation-filters:sRGB"
       id="filter3824-7">
      <feGaussianBlur
         id="feGaussianBlur3826-3"
         stdDeviation="1.0001465" />
    </filter>
    <linearGradient
       inkscape:collect="always"
       xlink:href="#linearGradient3737"
       id="linearGradient1491"
       gradientUnits="userSpaceOnUse"
       gradientTransform="matrix(0.24255321,0,0,0.32868671,-245.68216,64.361417)"
       x1="151.12161"
       y1="181.93436"
       x2="158.48705"
       y2="216.4223" />
    <linearGradient
       inkscape:collect="always"
       xlink:href="#linearGradient3737"
       id="linearGradient1495"
       gradientUnits="userSpaceOnUse"
       gradientTransform="matrix(0.06996946,-0.23224197,0.31471383,0.09481644,-307.79732,123.20857)"
       x1="151.12161"
       y1="181.93436"
       x2="158.48705"
       y2="216.4223" />
    <filter
       inkscape:collect="always"
       style="color-interpolation-filters:sRGB"
       id="filter918"
       x="-0.0070541847"
       width="1.0141084"
       y="-0.0051658577"
       height="1.0103317">
      <feGaussianBlur
         inkscape:collect="always"
         stdDeviation="0.51450334"
         id="feGaussianBlur920" />
    </filter>
  </defs>
  <sodipodi:namedview
     id="base"
     pagecolor="#ffffff"
     bordercolor="#666666"
     borderopacity="1.0"
     inkscape:pageopacity="0.0"
     inkscape:pageshadow="2"
     inkscape:zoom="6.7121572"
     inkscape:cx="44.137796"
     inkscape:cy="44.557005"
     inkscape:document-units="px"
     inkscape:current-layer="g2574"
     showgrid="false"
     inkscape:showpageshadow="false"
     units="px"
     inkscape:lockguides="false"
     inkscape:window-width="1280"
     inkscape:window-height="941"
     inkscape:window-x="0"
     inkscape:window-y="21"
     inkscape:window-maximized="1" />
  <metadata
     id="metadata1069">
    <rdf:RDF>
      <cc:Work
         rdf:about="">
        <dc:format>image/svg+xml</dc:format>
        <dc:type
           rdf:resource="http://purl.org/dc/dcmitype/StillImage" />
        <dc:title />
        <dc:date>2017</dc:date>
        <dc:creator>
          <cc:Agent>
            <dc:title>Cristian Pozzessere &quot;ilnanny&quot;</dc:title>
          </cc:Agent>
        </dc:creator>
        <dc:subject>
          <rdf:Bag>
            <rdf:li>Global language</rdf:li>
          </rdf:Bag>
        </dc:subject>
        <dc:description>Playing with Inkscape on Gnu/Linux O. S.</dc:description>
        <dc:contributor>
          <cc:Agent>
            <dc:title>In the night, alone like a dog.</dc:title>
          </cc:Agent>
        </dc:contributor>
        <cc:license
           rdf:resource="http://creativecommons.org/licenses/by-sa/4.0/" />
      </cc:Work>
      <cc:License
         rdf:about="http://creativecommons.org/licenses/by-sa/4.0/">
        <cc:permits
           rdf:resource="http://creativecommons.org/ns#Reproduction" />
        <cc:permits
           rdf:resource="http://creativecommons.org/ns#Distribution" />
        <cc:requires
           rdf:resource="http://creativecommons.org/ns#Notice" />
        <cc:requires
           rdf:resource="http://creativecommons.org/ns#Attribution" />
        <cc:permits
           rdf:resource="http://creativecommons.org/ns#DerivativeWorks" />
        <cc:requires
           rdf:resource="http://creativecommons.org/ns#ShareAlike" />
      </cc:License>
    </rdf:RDF>
  </metadata>
  <g
     inkscape:label="Livello 1"
     inkscape:groupmode="layer"
     id="layer1"
     transform="translate(0,-1026.5197)">
    <g
       transform="translate(-0.14895645,1026.1047)"
       style="display:inline"
       id="g2574">
      <path
         inkscape:connector-curvature="0"
         id="path3288"
         d="M 89.29181,0.415026 H 7.0060911 c -3.798848,0 -6.8571352,3.058285 -6.8571352,6.8571399 V 89.557884 c 0,3.798857 3.0582872,6.857142 6.8571352,6.857142 H 89.29181 c 3.798857,0 6.857147,-3.058285 6.857147,-6.857142 V 7.2721659 c 0,-3.7988549 -3.05829,-6.8571399 -6.857147,-6.8571399 z"
         style="display:inline;opacity:0.15;fill:#000000;fill-opacity:1;fill-rule:nonzero;stroke:none" />
      <path
         style="display:inline;opacity:0.15;fill:#000000;fill-opacity:1;fill-rule:nonzero;stroke:none"
         d="M 88.648954,1.165026 H 7.6489471 c -3.739492,0 -6.749993,3.010499 -6.749993,6.7499969 V 88.915026 c 0,3.739501 3.010501,6.75 6.749993,6.75 H 88.648954 c 3.739503,0 6.750003,-3.010499 6.750003,-6.75 V 7.9150229 c 0,-3.7394979 -3.0105,-6.7499969 -6.750003,-6.7499969 z"
         id="path4085"
         inkscape:connector-curvature="0" />
      <path
         inkscape:connector-curvature="0"
         id="rect4251-1"
         d="M 88.006093,1.915026 H 8.2918111 c -3.680143,0 -6.6428566,2.962713 -6.6428566,6.6428549 V 88.272171 c 0,3.680142 2.9627136,6.642856 6.6428566,6.642856 H 88.006093 c 3.680143,0 6.642854,-2.962714 6.642854,-6.642856 V 8.5578809 c 0,-3.6801419 -2.962711,-6.6428549 -6.642854,-6.6428549 z"
         style="display:inline;fill:url(#linearGradient4071);fill-opacity:1;fill-rule:nonzero;stroke:none" />
      <path
         sodipodi:nodetypes="sscccsccscccsss"
         inkscape:connector-curvature="0"
         id="path3400-6"
         d="m 11.390247,6.8021682 c -2.8564964,0 -5.1241284,2.3146876 -5.1241284,5.2304538 v 21.67369 7.322634 40.372561 c 1.0972399,1.70385 2.9688485,2.844058 5.1241284,2.844058 h 4.099303 65.588849 4.099302 c 2.155281,0 4.026889,-1.140208 5.124129,-2.844058 V 41.028946 33.706312 12.032622 c 0,-2.9157662 -2.267632,-5.2304538 -5.124129,-5.2304538 z"
         style="display:inline;opacity:1;fill:#faee85;fill-opacity:1;fill-rule:nonzero;stroke:none;stroke-width:1.03540373" />
      <path
         style="color:#000000;font-style:normal;font-variant:normal;font-weight:normal;font-stretch:normal;font-size:medium;line-height:normal;font-family:Sans;-inkscape-font-specification:Sans;text-indent:0;text-align:start;text-decoration:none;text-decoration-line:none;letter-spacing:normal;word-spacing:normal;text-transform:none;writing-mode:lr-tb;direction:ltr;baseline-shift:baseline;text-anchor:start;display:inline;overflow:visible;visibility:visible;fill:#241f1f;fill-opacity:0.63265303;stroke:none;stroke-width:2.3755002;marker:none;enable-background:accumulate"
         d="m 9.9740341,5.1444869 c -3.116621,0 -5.667965,2.53951 -5.667965,5.6460041 v 69.277996 c 0,3.106495 2.551344,5.646004 5.667965,5.646004 H 86.765819 c 3.116621,0 5.667968,-2.539509 5.667968,-5.646004 V 10.790491 c 0,-3.1064931 -2.551347,-5.6460041 -5.667968,-5.6460041 z m 0,2.319439 H 86.765819 c 1.888099,0 3.352022,1.480095 3.352022,3.3265651 v 69.277996 c 0,1.846474 -1.463923,3.326564 -3.352022,3.326564 H 9.9740341 c -1.888099,0 -3.352022,-1.48009 -3.352022,-3.326564 V 10.790491 c 0,-1.8464701 1.463923,-3.3265651 3.352022,-3.3265651 z"
         id="path4989"
         inkscape:connector-curvature="0" />
      <path
         id="path4118"
         d="m 1.6489535,82.258776 v 6 c 0,3.680142 2.9761066,6.65625 6.6562496,6.65625 H 87.992703 c 3.680143,0 6.656254,-2.976108 6.656254,-6.65625 v -6 c 0,3.680142 -2.976111,6.65625 -6.656254,6.65625 H 8.3052031 c -3.680143,0 -6.6562496,-2.976108 -6.6562496,-6.65625 z"
         style="display:inline;opacity:0.65818182;fill:url(#linearGradient4129);fill-opacity:1;fill-rule:nonzero;stroke:none"
         inkscape:connector-curvature="0" />
      <rect
         ry="4.25"
         rx="0"
         y="80.665031"
         x="5.5239539"
         height="4.25"
         width="84.250008"
         id="rect4131"
         style="opacity:0.55;fill:url(#radialGradient7462);fill-opacity:1;stroke:none" />
      <rect
         transform="rotate(90)"
         style="opacity:0.669;fill:url(#radialGradient7464);fill-opacity:1;stroke:none"
         id="rect4141"
         width="76.75"
         height="4.25"
         x="5.9750223"
         y="-90.233963"
         rx="0"
         ry="4.25" />
      <g
         id="g1506"
         transform="matrix(1.1220455,0,0,1.0247944,290.53243,-65.043699)"
         style="stroke-width:1.04679799">
        <g
           id="g927"
           transform="translate(0,0.93218129)"
           style="stroke-width:1.04679799">
          <path
             d="m -207.30738,73.371712 c -2.54951,0.05538 -5.10057,0.960101 -7.18248,2.755656 -6.69538,5.774462 -1.49501,11.77399 -7.3336,16.809503 -5.83859,5.035519 -11.01194,-0.983173 -17.70732,4.791286 v 0.0089 c -1.48708,1.282542 -2.56013,2.870663 -3.209,4.586833 -0.004,0.0113 -0.005,0.0243 -0.009,0.0356 -0.13068,0.34901 -0.24234,0.69936 -0.33779,1.05782 -0.0424,0.15915 -0.089,0.3194 -0.12445,0.48002 -0.004,0.0175 -0.005,0.0358 -0.009,0.0533 -0.073,0.33875 -0.12699,0.67882 -0.1689,1.02226 -3.7e-4,0.003 3.5e-4,0.006 0,0.009 -0.002,0.0179 -0.007,0.0354 -0.009,0.0533 -0.0186,0.15996 -0.0326,0.31943 -0.0444,0.48001 -0.009,0.12074 -0.0214,0.24359 -0.0267,0.36446 -0.003,0.0615 -0.007,0.1251 -0.009,0.18667 -5.7e-4,0.0205 4.6e-4,0.0417 0,0.0622 -0.003,0.16112 -0.004,0.31881 0,0.48002 0.002,0.0825 0.005,0.1665 0.009,0.2489 0.005,0.12087 0.0176,0.24372 0.0267,0.36446 0.0134,0.17884 0.0314,0.35506 0.0533,0.53335 3.5e-4,0.003 -3.7e-4,0.006 0,0.009 0.0419,0.34343 0.0959,0.6835 0.1689,1.02226 0.004,0.0177 0.005,0.0356 0.009,0.0533 0.0359,0.16159 0.0813,0.3197 0.12445,0.48002 0.0954,0.35846 0.20711,0.70881 0.33779,1.05781 0.004,0.0114 0.005,0.0242 0.009,0.0356 0.64887,1.71617 1.72192,3.3043 3.209,4.58684 v 0.009 c 6.69538,5.77446 11.86873,-0.24424 17.70732,4.79128 5.83859,5.03552 0.63822,11.03505 7.3336,16.80951 4.75866,4.10412 11.9409,3.5675 16.04503,-1.19116 4.10413,-4.75866 3.57639,-11.9409 -1.18227,-16.04503 -6.69538,-5.77445 -11.86872,0.25312 -17.70731,-4.7824 -2.94943,-2.54374 -3.07864,-5.34001 -3.35123,-8.22252 0.27259,-2.88251 0.4018,-5.67877 3.35123,-8.222522 5.83859,-5.035516 11.01193,0.992059 17.70731,-4.782397 4.75866,-4.104071 5.2864,-11.286314 1.18227,-16.044973 -2.30857,-2.676746 -5.58461,-4.018012 -8.86255,-3.946811 z"
             inkscape:connector-curvature="0"
             id="path3984-0-3-4-7"
             style="color:#000000;display:inline;overflow:visible;visibility:visible;fill:#ff6600;fill-opacity:1;fill-rule:evenodd;stroke:none;stroke-width:0.29776677;marker:none;enable-background:accumulate" />
          <path
             d="m -200.7754,82.779983 a 6.948822,5.1201843 0 1 1 -13.89764,0 6.948822,5.1201843 0 1 1 13.89764,0 z"
             id="path6917"
             style="fill:url(#linearGradient3717-10);fill-opacity:1;stroke:none;stroke-width:0.29556805"
             inkscape:connector-curvature="0" />
          <path
             style="color:#000000;font-style:normal;font-variant:normal;font-weight:normal;font-stretch:normal;font-size:medium;line-height:normal;font-family:sans-serif;font-variant-ligatures:normal;font-variant-position:normal;font-variant-caps:normal;font-variant-numeric:normal;font-variant-alternates:normal;font-feature-settings:normal;text-indent:0;text-align:start;text-decoration:none;text-decoration-line:none;text-decoration-style:solid;text-decoration-color:#000000;letter-spacing:normal;word-spacing:normal;text-transform:none;writing-mode:lr-tb;direction:ltr;text-orientation:mixed;dominant-baseline:auto;baseline-shift:baseline;text-anchor:start;white-space:normal;shape-padding:0;clip-rule:nonzero;display:inline;overflow:visible;visibility:visible;opacity:1;isolation:auto;mix-blend-mode:normal;color-interpolation:sRGB;color-interpolation-filters:linearRGB;solid-color:#000000;solid-opacity:1;vector-effect:none;fill:#aa4400;fill-opacity:1;fill-rule:nonzero;stroke:none;stroke-width:7.36002922;stroke-linecap:butt;stroke-linejoin:miter;stroke-miterlimit:4;stroke-dasharray:none;stroke-dashoffset:0;stroke-opacity:1;marker:none;filter:url(#filter918);color-rendering:auto;image-rendering:auto;shape-rendering:auto;text-rendering:auto;enable-background:accumulate"
             d="m 183.04883,36.484375 c -9.74298,0.211627 -19.51846,3.68257 -27.47071,10.541016 -12.56565,10.837313 -14.27776,22.75245 -15.22265,32.855468 -0.94489,10.103019 -1.20963,18.175231 -10.55859,26.238281 -9.34932,8.06337 -17.37511,7.14327 -27.50977,6.59961 -10.134664,-0.54366 -22.174892,-0.5929 -34.740235,10.24414 l -1.21875,1.05078 v 0.17383 c -5.019631,4.68531 -8.760322,10.28759 -11.050781,16.3418 -0.313471,0.82262 -0.312233,0.872 -0.03516,0.13672 l -0.002,0.004 -0.002,0.004 c -0.499687,1.33457 -0.926587,2.67835 -1.291015,4.04687 -0.134886,0.50653 -0.316185,1.11538 -0.47461,1.83399 -0.0857,0.38812 -0.09351,0.47668 -0.0332,0.19922 v 0.002 l -0.002,0.004 c -0.282472,1.31091 -0.48725,2.60814 -0.644531,3.89453 -0.0066,0.0521 0.0057,-0.0421 0,0.004 -0.05742,0.46137 -0.02278,0.19531 -0.002,0.0391 0.0032,-0.0238 -0.0068,0.0441 -0.002,0.006 0.02687,-0.22401 0.01293,-0.17719 -0.03125,0.19727 v 0.002 0.004 c -0.07318,0.62851 -0.125896,1.23784 -0.169921,1.83398 -0.02747,0.36422 -0.07538,0.82948 -0.09961,1.38868 v 0.002 0.002 c -0.0059,0.13939 -0.02456,0.38063 -0.0332,0.71289 -0.0064,0.24141 -0.0021,0.32853 0,0.23242 l -0.002,0.002 v 0.004 c -0.01255,0.61075 -0.01345,1.21668 0,1.83594 0.0072,0.34415 0.02318,0.66335 0.03516,0.94727 v 0.002 0.002 c 0.0243,0.56077 0.07218,1.02792 0.09961,1.39258 0.0519,0.69005 0.122249,1.36501 0.205078,2.03906 l -0.0039,-0.0215 c -0.09004,-0.77287 -0.08517,-0.6552 0.0039,0.0606 0.0057,0.046 -0.0066,-0.0482 0,0.004 0.157281,1.28639 0.362059,2.58362 0.644531,3.89453 -0.05813,-0.26984 -0.05409,-0.20178 0.03516,0.20313 l 0.002,0.004 v 0.004 c 0.157081,0.70643 0.333352,1.31056 0.47461,1.83594 0.363979,1.36584 0.79032,2.70702 1.289062,4.03906 -0.255159,-0.68116 -0.261014,-0.65133 0.03711,0.13672 2.290199,6.05609 6.031878,11.66099 11.052734,16.34766 v 0.17383 l 1.21875,1.05273 c 12.565343,10.83704 24.605571,10.7878 34.740238,10.24414 10.13466,-0.54366 18.16045,-1.46376 27.50977,6.59961 9.34896,8.06305 9.6137,16.13526 10.55859,26.23828 0.94489,10.10302 2.657,22.01816 15.22265,32.85547 18.16864,15.6696 45.69776,13.61147 61.36524,-4.55469 15.66798,-18.16672 13.6463,-45.69438 -4.52148,-61.36328 -12.56602,-10.83761 -24.60747,-10.78005 -34.74219,-10.22852 -10.13472,0.55154 -18.15926,1.47872 -27.50781,-6.58398 -9.33531,-8.05128 -9.604,-16.16392 -10.54493,-26.24414 0.94108,-10.08115 1.209,-18.19232 10.54493,-26.24414 9.34855,-8.0627 17.37309,-7.13552 27.50781,-6.58398 10.13472,0.55153 22.17617,0.60909 34.74219,-10.22852 18.1678,-15.668709 20.18946,-43.198512 4.52148,-61.365235 -8.81072,-10.215871 -21.3618,-15.365974 -33.89453,-15.09375 z m 0.15234,7.03125 c 10.51445,-0.228384 20.99715,4.051939 28.41797,12.65625 13.18812,15.291377 11.49926,38.260268 -3.79102,51.447265 -10.97156,9.46247 -19.79307,9.07407 -29.76757,8.53125 -9.9745,-0.54282 -21.30543,-1.35839 -32.48243,8.28125 -11.29514,9.74156 -12.03631,21.21137 -12.98437,31.23633 L 132.5625,156 l 0.0312,0.33008 c 0.94806,10.02495 1.68923,21.49672 12.98437,31.23828 11.177,9.63964 22.50793,8.82211 32.48243,8.2793 9.9745,-0.54282 18.79601,-0.92927 29.76757,8.5332 15.2903,13.1872 16.97914,36.15589 3.79102,51.44726 -13.1886,15.29195 -36.15778,17.00875 -51.44726,3.82227 -10.97192,-9.46279 -11.88646,-18.2423 -12.81641,-28.18555 -0.92995,-9.94325 -1.78826,-21.26892 -12.96485,-30.9082 -11.17621,-9.63898 -22.5059,-8.83195 -32.48046,-8.29687 -9.866205,0.52926 -18.612685,0.87249 -29.419926,-8.27735 l -0.349609,-0.30078 c -4.774302,-4.11762 -8.207631,-9.20201 -10.289063,-14.70703 h -0.002 c 0.271754,0.71835 0.270201,0.67927 -0.02539,-0.11133 v -0.002 c -0.419077,-1.11927 -0.777261,-2.23879 -1.083985,-3.39063 v -0.004 l -0.002,-0.004 c -0.161179,-0.59947 -0.302892,-1.10458 -0.398437,-1.5332 l -0.002,-0.006 c 0.05509,0.24751 0.05657,0.21641 -0.02539,-0.16406 -0.224834,-1.04343 -0.393561,-2.11069 -0.529297,-3.20899 -0.0056,-0.0477 -0.0034,-0.0272 -0.0098,-0.082 l -0.002,-0.0117 -0.002,-0.0117 c -0.0712,-0.57946 -0.127245,-1.14161 -0.169922,-1.70898 -0.03631,-0.48265 -0.07524,-0.87719 -0.08789,-1.16602 v -0.004 c -0.01234,-0.29258 -0.02252,-0.56203 -0.02734,-0.79493 v -0.002 -0.002 c -0.01117,-0.5142 -0.01073,-1.01699 0,-1.53906 l -0.002,0.006 c 0.0054,-0.24275 0.0031,-0.31114 0,-0.19922 v -0.004 -0.002 c 0.0026,-0.1 0.01702,-0.30553 0.0293,-0.59571 v -0.004 c 0.01265,-0.28883 0.05158,-0.68337 0.08789,-1.16602 v -0.002 -0.002 c 0.03921,-0.53091 0.08511,-1.04072 0.142579,-1.53516 v -0.006 c -0.02681,0.23119 -0.01513,0.19693 0.0293,-0.16602 v -0.0117 l 0.002,-0.01 c 0.0064,-0.0548 0.0042,-0.0344 0.0098,-0.082 0.135481,-1.09624 0.303131,-2.16157 0.527344,-3.20313 l 0.002,-0.006 c 0.08009,-0.37092 0.08915,-0.45057 0.02539,-0.16406 v -0.004 l 0.002,-0.004 c 0.09054,-0.41067 0.2373,-0.92661 0.40039,-1.53906 0.306724,-1.15184 0.664908,-2.27136 1.083985,-3.39063 l -0.0039,0.008 c 0.306997,-0.81468 0.310635,-0.8567 0.02734,-0.11328 l 0.002,-0.004 0.002,-0.004 c 2.081432,-5.50502 5.514761,-10.58941 10.289063,-14.70703 l 0.341797,-0.29688 c 10.810427,-9.15585 19.559429,-8.81062 29.427741,-8.28125 9.97456,0.53508 21.30425,1.34211 32.48046,-8.29687 11.17659,-9.63928 12.0349,-20.964954 12.96485,-30.908204 0.92995,-9.94325 1.84449,-18.72276 12.81641,-28.185547 6.68567,-5.766088 14.84669,-8.656249 23.02929,-8.833984 z"
             id="path3984-0-3-4-7-0"
             inkscape:connector-curvature="0"
             transform="matrix(0.28445484,0,0,0.28445484,-259.39827,61.993623)" />
          <path
             inkscape:connector-curvature="0"
             style="fill:url(#linearGradient1491);fill-opacity:1;stroke:none;stroke-width:0.29556805"
             id="path1489"
             d="m -200.7754,129.24484 a 6.948822,5.1201843 0 1 1 -13.89764,0 6.948822,5.1201843 0 1 1 13.89764,0 z" />
          <path
             d="m -232.71789,98.927813 a 5.1201843,6.948822 16.766413 1 1 -4.00906,13.306837 5.1201843,6.948822 16.766413 1 1 4.00906,-13.306837 z"
             id="path1493"
             style="fill:url(#linearGradient1495);fill-opacity:1;stroke:none;stroke-width:0.29556805"
             inkscape:connector-curvature="0"
             inkscape:transform-center-x="-33.076677"
             inkscape:transform-center-y="-4.7252395" />
        </g>
      </g>
      <rect
         clip-path="url(#clipPath4156-4-1)"
         ry="3.9569881"
         rx="3.9569874"
         y="-30"
         x="2"
         height="69.024437"
         width="75.965775"
         id="rect4146"
         style="opacity:0.777;fill:url(#linearGradient4767);fill-opacity:1;stroke:none"
         transform="matrix(1.0692451,0,0,1.0476829,4.4441802,38.894013)" />
    </g>
  </g>
</svg>
