<?xml version="1.0" encoding="UTF-8" standalone="no"?>
<!-- Created with Inkscape (http://www.inkscape.org/) -->

<svg
   xmlns:dc="http://purl.org/dc/elements/1.1/"
   xmlns:cc="http://creativecommons.org/ns#"
   xmlns:rdf="http://www.w3.org/1999/02/22-rdf-syntax-ns#"
   xmlns:svg="http://www.w3.org/2000/svg"
   xmlns="http://www.w3.org/2000/svg"
   xmlns:xlink="http://www.w3.org/1999/xlink"
   xmlns:sodipodi="http://sodipodi.sourceforge.net/DTD/sodipodi-0.dtd"
   xmlns:inkscape="http://www.inkscape.org/namespaces/inkscape"
   width="64"
   height="64"
   id="svg13094"
   version="1.1"
   inkscape:version="0.92.2 5c3e80d, 2017-08-06"
   sodipodi:docname="hugin.svg">
  <sodipodi:namedview
     id="base"
     pagecolor="#ffffff"
     bordercolor="#666666"
     borderopacity="1.0"
     inkscape:pageopacity="1"
     inkscape:pageshadow="2"
     inkscape:zoom="2.1931358"
     inkscape:cx="13.521847"
     inkscape:cy="30.161425"
     inkscape:document-units="px"
     inkscape:current-layer="svg13094"
     showgrid="false"
     inkscape:snap-bbox="true"
     inkscape:bbox-paths="true"
     inkscape:bbox-nodes="true"
     inkscape:snap-bbox-edge-midpoints="true"
     inkscape:snap-bbox-midpoints="true"
     inkscape:object-paths="true"
     inkscape:snap-intersection-paths="true"
     inkscape:object-nodes="true"
     inkscape:snap-smooth-nodes="true"
     inkscape:snap-midpoints="true"
     inkscape:snap-object-midpoints="true"
     inkscape:snap-center="true"
     showguides="false"
     inkscape:guide-bbox="true"
     inkscape:window-width="1280"
     inkscape:window-height="972"
     inkscape:window-x="0"
     inkscape:window-y="23"
     inkscape:window-maximized="1"
     inkscape:snap-global="false"
     fit-margin-top="0"
     fit-margin-left="0"
     fit-margin-right="0"
     fit-margin-bottom="0"
     showborder="true"
     inkscape:showpageshadow="false"
     inkscape:snap-page="true">
    <inkscape:grid
       type="xygrid"
       id="grid3075"
       empspacing="5"
       visible="true"
       enabled="true"
       snapvisiblegridlinesonly="true"
       originx="1.6362304e-08"
       originy="18"
       spacingx="1"
       spacingy="1" />
    <sodipodi:guide
       orientation="0,1"
       position="-11,30"
       id="guide9148"
       inkscape:locked="false" />
    <sodipodi:guide
       orientation="1,0"
       position="32,70"
       id="guide9150"
       inkscape:locked="false" />
  </sodipodi:namedview>
  <defs
     id="defs13096">
    <linearGradient
       id="linearGradient4091">
      <stop
         style="stop-color:#2ea8e3;stop-opacity:1;"
         offset="0"
         id="stop4093" />
      <stop
         style="stop-color:#2383b3;stop-opacity:1;"
         offset="1"
         id="stop4095" />
    </linearGradient>
    <linearGradient
       id="linearGradient3094">
      <stop
         offset="0"
         style="stop-color:#bdc4cf;stop-opacity:1;"
         id="stop3096" />
      <stop
         offset="1"
         style="stop-color:#a1a8ba;stop-opacity:1;"
         id="stop3104" />
    </linearGradient>
    <linearGradient
       inkscape:collect="always"
       xlink:href="#linearGradient6139-0"
       id="linearGradient4071"
       gradientUnits="userSpaceOnUse"
       gradientTransform="matrix(1.1071428,0,0,1.1071426,-21.142859,-20.035687)"
       x1="6"
       y1="47.000011"
       x2="90"
       y2="47.000011" />
    <linearGradient
       id="linearGradient6139-0">
      <stop
         id="stop6141-2"
         offset="0"
         style="stop-color:#b2babc;stop-opacity:1" />
      <stop
         style="stop-color:#ffffff;stop-opacity:1;"
         offset="0.25"
         id="stop6151-0" />
      <stop
         style="stop-color:#96a1a4;stop-opacity:1"
         offset="0.5"
         id="stop6147-1" />
      <stop
         id="stop6149-4"
         offset="0.75"
         style="stop-color:#fbf9f9;stop-opacity:1;" />
      <stop
         id="stop6143-4"
         offset="1"
         style="stop-color:#b2b9bc;stop-opacity:1" />
    </linearGradient>
    <linearGradient
       gradientTransform="translate(-16.000002,-15.999974)"
       inkscape:collect="always"
       xlink:href="#linearGradient3832-0-6-1-1"
       id="linearGradient4129"
       x1="1.5"
       y1="88.171875"
       x2="94.5"
       y2="88.171875"
       gradientUnits="userSpaceOnUse" />
    <linearGradient
       id="linearGradient3832-0-6-1-1">
      <stop
         style="stop-color:#000000;stop-opacity:1;"
         offset="0"
         id="stop3834-6-3-7-1" />
      <stop
         id="stop3872-2-4"
         offset="0.1"
         style="stop-color:#000000;stop-opacity:0.58823532;" />
      <stop
         style="stop-color:#000000;stop-opacity:0.58823532;"
         offset="0.89999998"
         id="stop3844-6-2-7-6" />
      <stop
         style="stop-color:#000000;stop-opacity:1;"
         offset="1"
         id="stop3836-5-0-2-9" />
    </linearGradient>
    <radialGradient
       inkscape:collect="always"
       xlink:href="#linearGradient3737"
       id="radialGradient7462"
       gradientUnits="userSpaceOnUse"
       gradientTransform="matrix(0.97513378,0,0,0.04919072,17.898693,64.166722)"
       cx="13.948145"
       cy="44.892841"
       fx="13.948145"
       fy="44.892841"
       r="43.199203" />
    <linearGradient
       id="linearGradient3737">
      <stop
         offset="0"
         style="stop-color:#ffffff;stop-opacity:1"
         id="stop3739" />
      <stop
         offset="1"
         style="stop-color:#ffffff;stop-opacity:0"
         id="stop3741" />
    </linearGradient>
    <radialGradient
       inkscape:collect="always"
       xlink:href="#linearGradient3737"
       id="radialGradient7464"
       gradientUnits="userSpaceOnUse"
       gradientTransform="matrix(0.88832663,0,0,0.04919072,15.544518,-74.168304)"
       cx="13.948145"
       cy="44.892841"
       fx="13.948145"
       fy="44.892841"
       r="43.199203" />
    <linearGradient
       inkscape:collect="always"
       xlink:href="#linearGradient3737"
       id="linearGradient4767"
       gradientUnits="userSpaceOnUse"
       x1="2.7713892"
       y1="-28.64156"
       x2="50.527882"
       y2="14.514202" />
    <clipPath
       id="clipPath4156-4-1"
       clipPathUnits="userSpaceOnUse">
      <path
         inkscape:connector-curvature="0"
         id="path4158-0-8"
         d="m 27.046336,-55.695463 -14.21366,13.321486 h 0.06127 l 15.653407,21.770763 10.231384,-10.546177 C 38.561832,-32.30156 27.468089,-54.819245 27.046336,-55.695463 Z M 9.6468554,-39.382809 -5.2407289,-25.32124 15.987863,-7.8059573 26.372412,-18.382966 Z m 31.4906096,12.951445 -9.741259,9.713584 8.944804,12.4580526 7.780753,-7.5550056 z m -49.8397109,4.378822 -13.7541661,12.9822847 26.2830181,13.84571 0.06127,-0.0617 -0.122531,-0.0617 L 13.598503,-5.4007374 -8.7022409,-22.052595 Z m 38.0154159,7.400825 -9.802525,9.7752596 11.579232,9.5594001 7.62759,-7.40083 -8.669108,-11.0087257 z m 20.187073,5.6739697 -7.382526,7.2158 6.187844,8.54179 5.820249,-6.13651996 z m -32.195166,6.32154 -9.5574606,9.49772 13.6622686,7.1849703 7.933918,-7.6783603 z m 23.311629,2.37443004 -7.10683,6.93826996 8.362778,6.9074403 5.360756,-5.6739699 -0.06127,-0.0925 -0.0919,0.12335 -6.463539,-8.20258036 z m -8.730374,8.54178036 -7.505057,7.3391599 10.353916,5.45811 c 1.397496,-1.32103 5.67514,-6.12292 5.850882,-6.32154 z"
         style="opacity:0.6;fill:#ffffff;fill-opacity:1;stroke:none" />
    </clipPath>
    <linearGradient
       id="ButtonShadow-16"
       gradientTransform="scale(1.0058652,0.994169)"
       x1="45.447727"
       y1="92.539597"
       x2="45.447727"
       y2="7.0165396"
       gradientUnits="userSpaceOnUse">
      <stop
         style="stop-color:#000000;stop-opacity:1;"
         offset="0"
         id="stop3750-6" />
      <stop
         style="stop-color:#000000;stop-opacity:0.58823532;"
         offset="1"
         id="stop3752-4" />
    </linearGradient>
    <clipPath
       clipPathUnits="userSpaceOnUse"
       id="clipPath4355-7">
      <rect
         style="fill:#ffffff;fill-opacity:1;fill-rule:nonzero;stroke:none"
         id="rect4357-5"
         width="84"
         height="80"
         x="6"
         y="6"
         rx="6"
         ry="6" />
    </clipPath>
    <clipPath
       clipPathUnits="userSpaceOnUse"
       id="clipPath4355-9">
      <rect
         style="fill:#ffffff;fill-opacity:1;fill-rule:nonzero;stroke:none"
         id="rect4357-1"
         width="84"
         height="80"
         x="6"
         y="6"
         rx="6"
         ry="6" />
    </clipPath>
    <clipPath
       clipPathUnits="userSpaceOnUse"
       id="clipPath4355-1">
      <rect
         style="fill:#ffffff;fill-opacity:1;fill-rule:nonzero;stroke:none"
         id="rect4357-9"
         width="84"
         height="80"
         x="6"
         y="6"
         rx="6"
         ry="6" />
    </clipPath>
    <clipPath
       clipPathUnits="userSpaceOnUse"
       id="clipPath3943-52-0">
      <path
         id="path3945-4-1"
         d="m 69.78125,20.84375 -5,3.4375 c 5.586891,5.537137 9,13.327613 9,21.8125 0,8.434478 -3.37723,16.095981 -8.90625,21.625 l 5,3.4375 C 76.078226,64.5762 80,55.843726 80,46.09375 c 2e-6,-9.796556 -3.962955,-18.660417 -10.21875,-25.25 z M 40,24.0625 28.90625,36.21875 H 21.5 c -0.823281,0 -1.5,0.676717 -1.5,1.5 v 1 14.84375 1 c 0,0.823281 0.684121,1.610161 1.5,1.5 h 7.40625 L 40,68 V 66 26.0625 Z m 20.59375,3.28125 -5,3.4375 L 55.5,30.875 c 3.93815,3.890071 6.40625,9.25018 6.40625,15.21875 0,5.920869 -2.42961,11.148358 -6.3125,15.03125 l 0.09375,0.09375 5.09375,3.4375 c 4.475428,-4.908367 7.25,-11.402005 7.25,-18.5625 0,-7.230696 -2.87904,-13.83107 -7.4375,-18.75 z m -9.25,6.5 -5.21875,3.625 c 2.222384,2.217802 3.71875,5.239596 3.71875,8.625 0,3.336509 -1.458847,6.227712 -3.625,8.4375 l 5.21875,3.625 c 2.822412,-3.236947 4.53125,-7.43414 4.53125,-12.0625 0,-4.672601 -1.754155,-9.001351 -4.625,-12.25 z"
         style="color:#000000;display:inline;overflow:visible;visibility:visible;opacity:0.8;fill:#ff00ff;fill-opacity:1;fill-rule:nonzero;stroke:none;stroke-width:1;marker:none;enable-background:accumulate"
         inkscape:connector-curvature="0" />
    </clipPath>
    <radialGradient
       inkscape:collect="always"
       xlink:href="#linearGradient4091"
       id="radialGradient4097"
       cx="32"
       cy="-23.533331"
       fx="32"
       fy="-23.533331"
       r="32"
       gradientTransform="matrix(-2.1969549e-8,2.078529,-2.3131586,-2.3406631e-8,-22.625836,-62.693188)"
       gradientUnits="userSpaceOnUse" />
  </defs>
  <metadata
     id="metadata13099">
    <rdf:RDF>
      <cc:Work
         rdf:about="">
        <dc:format>image/svg+xml</dc:format>
        <dc:type
           rdf:resource="http://purl.org/dc/dcmitype/StillImage" />
        <dc:title />
      </cc:Work>
    </rdf:RDF>
  </metadata>
  <path
     style="display:inline;opacity:0.15;fill:#000000;fill-opacity:1;fill-rule:nonzero;stroke:none"
     d="M 73.142854,-15.999974 H -9.1428649 C -12.941713,-15.999974 -16,-12.941689 -16,-9.1428341 V 73.142884 c 0,3.798857 3.058287,6.857142 6.8571351,6.857142 H 73.142854 c 3.798857,0 6.857147,-3.058285 6.857147,-6.857142 V -9.1428341 c 0,-3.7988549 -3.05829,-6.8571399 -6.857147,-6.8571399 z"
     id="path3288"
     inkscape:connector-curvature="0" />
  <path
     inkscape:connector-curvature="0"
     id="path4085"
     d="M 72.499998,-15.249974 H -8.5000089 c -3.7394921,0 -6.7499931,3.010499 -6.7499931,6.7499969 V 72.500026 c 0,3.739501 3.010501,6.75 6.7499931,6.75 H 72.499998 c 3.739503,0 6.750003,-3.010499 6.750003,-6.75 V -8.4999771 c 0,-3.7394979 -3.0105,-6.7499969 -6.750003,-6.7499969 z"
     style="display:inline;opacity:0.15;fill:#000000;fill-opacity:1;fill-rule:nonzero;stroke:none" />
  <path
     style="display:inline;fill:url(#linearGradient4071);fill-opacity:1;fill-rule:nonzero;stroke:none"
     d="M 71.857137,-14.499974 H -7.8571449 c -3.6801431,0 -6.6428561,2.962713 -6.6428561,6.6428549 V 71.857171 c 0,3.680142 2.962713,6.642856 6.6428561,6.642856 H 71.857137 c 3.680143,0 6.642854,-2.962714 6.642854,-6.642856 V -7.8571191 c 0,-3.6801419 -2.962711,-6.6428549 -6.642854,-6.6428549 z"
     id="rect4251-1"
     inkscape:connector-curvature="0" />
  <g
     transform="translate(0.410482,0.6219195)"
     id="g949">
    <path
       id="path3890"
       d="m -10.487267,28.39257 v 36.212593 l 2.6436101,2.586614 H 31.81049 71.464637 l 2.64361,-2.586614 V 28.39257 Z"
       style="color:#000000;display:inline;overflow:visible;visibility:visible;fill:url(#radialGradient4097);fill-opacity:1;fill-rule:nonzero;stroke:none;stroke-width:0.10155171;marker:none;enable-background:accumulate"
       inkscape:connector-curvature="0"
       sodipodi:nodetypes="cccccccc" />
    <path
       inkscape:connector-curvature="0"
       id="path6538"
       d="m -7.8436569,-10.406638 -2.6436101,2.5866146 V 11.498748 28.39257 H 74.108247 V 11.498748 -7.8200234 l -2.64361,-2.5866146 H 31.81049 Z"
       style="color:#000000;display:inline;overflow:visible;visibility:visible;fill:#52b0de;fill-opacity:1;fill-rule:nonzero;stroke:none;stroke-width:0.10155171;marker:none;enable-background:accumulate" />
    <path
       inkscape:connector-curvature="0"
       style="color:#000000;display:inline;overflow:visible;visibility:visible;fill:#d9a541;fill-opacity:1;stroke:none;stroke-width:0.10155171;marker:none;enable-background:accumulate"
       d="m 31.81049,38.739025 c -14.76844,0 -28.9817341,2.292163 -42.297757,6.547366 v 19.318772 l 2.6436101,2.586614 H 31.81049 71.464637 l 2.64361,-2.586614 V 45.286391 C 60.792225,41.031188 46.578931,38.739025 31.81049,38.739025 Z"
       id="path3892" />
    <path
       inkscape:connector-curvature="0"
       style="color:#000000;display:inline;overflow:visible;visibility:visible;fill:#73aa36;fill-opacity:1;stroke:none;stroke-width:0.25511771;marker:none;enable-background:accumulate"
       d="m 31.81049,47.792173 c -16.315354,0 -30.91666247,7.066219 -40.8520327,18.227544 l 1.1978858,1.17206 H 31.81049 71.464637 l 1.197886,-1.17206 C 62.727153,54.858392 48.125845,47.792173 31.81049,47.792173 Z"
       id="path3894" />
    <path
       inkscape:connector-curvature="0"
       id="path3776"
       d="m -7.8436569,-10.406638 -1.1978858,1.1720599 c 3.1899508,3.5835684 6.8506551,6.7355408 10.9048904,9.37647478 C 3.0623811,3.7817797 6.5427035,6.406352 10.661612,6.406352 c 1.037986,0 2.042525,-0.1765545 2.974061,-0.4849901 1.654969,0.5779699 3.355596,1.0751494 5.080687,1.4953862 0.477784,2.3764682 2.594402,4.1628319 5.1633,4.1628319 1.556571,0 2.956564,-0.650069 3.92411,-1.6974656 0.399856,0.2378856 0.860935,0.4041586 1.36311,0.4041586 0.977612,0 1.814452,-0.5213374 2.271852,-1.2933071 0.12373,8.135e-4 0.24783,0 0.371758,0 6.412262,0 12.553891,-1.1094258 18.257431,-3.1120198 0.43997,0.3199486 0.979339,0.5254059 1.569643,0.5254059 1.31939,0 2.403858,-0.946041 2.602304,-2.1824553 2.734299,-1.2224828 5.380423,-2.6514163 7.848216,-4.28407917 0.04133,9.3372e-4 0.08235,0 0.123919,0 2.508908,0 4.58016,-1.70747563 5.121995,-4.00116863 1.887978,-1.6103323 3.683091,-3.3247584 5.328525,-5.173227 L 71.464637,-10.406638 H 58.866185 C 58.178677,-0.6610426 49.876287,7.0530055 39.74132,7.0530055 c -5.208773,0 -9.928767,-2.0355746 -13.383275,-5.334891 -0.815826,0.1036611 -1.633691,0.1616634 -2.478385,0.1616634 -8.260424,0 -15.2744645,-5.1184904 -17.9682846,-12.2864159 z"
       style="color:#000000;display:inline;overflow:visible;visibility:visible;fill:#99ddff;fill-opacity:1;fill-rule:nonzero;stroke:none;stroke-width:0.10155171;marker:none;enable-background:accumulate" />
    <path
       inkscape:connector-curvature="0"
       style="color:#000000;display:inline;overflow:visible;visibility:visible;fill:#659430;fill-opacity:1;stroke:none;stroke-width:0.80460203;marker:none;enable-background:accumulate"
       d="m 31.81049,55.552015 c -7.650722,0 -14.131646,4.878163 -16.357336,11.639762 H 31.81049 48.167826 C 45.942136,60.430178 39.461212,55.552015 31.81049,55.552015 Z"
       id="path3896" />
    <path
       inkscape:connector-curvature="0"
       style="color:#000000;display:inline;overflow:visible;visibility:visible;fill:#587f2c;fill-opacity:1;stroke:none;stroke-width:2.61495638;marker:none;enable-background:accumulate"
       d="m 31.81049,62.018549 c -2.92005,0 -5.287219,2.316134 -5.287219,5.173228 h 5.287219 5.28722 c 0,-2.857094 -2.367169,-5.173228 -5.28722,-5.173228 z"
       id="path3898" />
    <path
       inkscape:connector-curvature="0"
       id="path3987"
       d="m -10.487267,13.438708 v 11.801426 c 2.3257449,-1.001372 3.9654149,-3.255004 3.9654149,-5.900713 0,-2.645708 -1.63967,-4.899341 -3.9654149,-5.900713 z"
       style="color:#000000;display:inline;overflow:visible;visibility:visible;fill:#e8cf56;fill-opacity:1;fill-rule:nonzero;stroke:none;stroke-width:0.10155171;marker:none;enable-background:accumulate" />
    <path
       inkscape:connector-curvature="0"
       id="path3985"
       d="m 71.464637,12.872886 c -3.650063,0 -6.609024,2.895166 -6.609024,6.466535 0,3.571369 2.958961,6.466535 6.609024,6.466535 0.946057,0 1.829897,-0.21547 2.64361,-0.565822 V 13.438708 c -0.813713,-0.350351 -1.697553,-0.565822 -2.64361,-0.565822 z"
       style="color:#000000;display:inline;overflow:visible;visibility:visible;fill:#e8cf56;fill-opacity:1;fill-rule:nonzero;stroke:none;stroke-width:0.10155171;marker:none;enable-background:accumulate" />
    <path
       inkscape:connector-curvature="0"
       id="path4058"
       d="m 66.177417,28.39257 v 1.293306 h 2.643611 v 1.293307 h -1.321805 v 1.293308 h 2.64361 v 1.293307 h -1.321805 v 1.293306 h 2.643609 v 1.293307 h -1.321804 v 1.293307 h 2.643609 v 1.293307 h -1.321805 v 1.293307 h 2.64361 V 29.685876 28.39257 Z"
       style="color:#000000;display:inline;overflow:visible;visibility:visible;fill:#90bca2;fill-opacity:1;fill-rule:nonzero;stroke:none;stroke-width:0.10155171;marker:none;enable-background:accumulate" />
    <path
       inkscape:connector-curvature="0"
       id="rect4039"
       d="m -10.487267,28.39257 v 3.879921 h 2.6436101 v -1.293308 h -1.321805 v -1.293307 h 2.6436098 V 28.39257 Z m 0,5.173228 v 1.293306 h 1.3218051 v -1.293306 z"
       style="color:#000000;display:inline;overflow:visible;visibility:visible;fill:#90bca2;fill-opacity:1;fill-rule:nonzero;stroke:none;stroke-width:0.10155171;marker:none;enable-background:accumulate" />
  </g>
  <path
     inkscape:connector-curvature="0"
     id="path4989"
     d="m -6.1749219,-11.270513 c -3.116621,0 -5.6679651,2.5395099 -5.6679651,5.646004 v 69.277996 c 0,3.106495 2.5513441,5.646004 5.6679651,5.646004 H 70.616863 c 3.116621,0 5.667968,-2.539509 5.667968,-5.646004 V -5.624509 c 0,-3.1064931 -2.551347,-5.646004 -5.667968,-5.646004 z m 0,2.3194389 H 70.616863 c 1.888099,0 3.352022,1.480095 3.352022,3.3265651 v 69.277996 c 0,1.846474 -1.463923,3.326564 -3.352022,3.326564 H -6.1749219 c -1.888099,0 -3.352022,-1.48009 -3.352022,-3.326564 V -5.624509 c 0,-1.8464701 1.463923,-3.3265651 3.352022,-3.3265651 z"
     style="color:#000000;font-style:normal;font-variant:normal;font-weight:normal;font-stretch:normal;font-size:medium;line-height:normal;font-family:Sans;-inkscape-font-specification:Sans;text-indent:0;text-align:start;text-decoration:none;text-decoration-line:none;letter-spacing:normal;word-spacing:normal;text-transform:none;writing-mode:lr-tb;direction:ltr;baseline-shift:baseline;text-anchor:start;display:inline;overflow:visible;visibility:visible;fill:#202223;fill-opacity:0.93689324;stroke:none;stroke-width:2.3755002;marker:none;enable-background:accumulate" />
  <path
     inkscape:connector-curvature="0"
     style="display:inline;opacity:0.65818182;fill:url(#linearGradient4129);fill-opacity:1;fill-rule:nonzero;stroke:none"
     d="m -14.500002,65.843776 v 6 c 0,3.680142 2.976106,6.65625 6.6562491,6.65625 H 71.843747 c 3.680143,0 6.656254,-2.976108 6.656254,-6.65625 v -6 c 0,3.680142 -2.976111,6.65625 -6.656254,6.65625 H -7.8437529 c -3.6801431,0 -6.6562491,-2.976108 -6.6562491,-6.65625 z"
     id="path4118" />
  <rect
     style="opacity:0.55;fill:url(#radialGradient7462);fill-opacity:1;stroke:none"
     id="rect4131"
     width="84.250008"
     height="4.25"
     x="-10.625002"
     y="64.250031"
     rx="0"
     ry="4.25" />
  <rect
     ry="4.25"
     rx="0"
     y="-74.085007"
     x="-10.439978"
     height="4.25"
     width="76.75"
     id="rect4141"
     style="opacity:0.669;fill:url(#radialGradient7464);fill-opacity:1;stroke:none"
     transform="rotate(90)" />
  <rect
     transform="matrix(1.0692451,0,0,1.0476829,-11.704776,22.479013)"
     style="opacity:0.65;fill:url(#linearGradient4767);fill-opacity:1;stroke:none"
     id="rect4146"
     width="75.965775"
     height="69.024437"
     x="2"
     y="-30"
     rx="3.9569874"
     ry="3.9569881"
     clip-path="url(#clipPath4156-4-1)" />
  <g
     id="g3043"
     inkscape:export-filename="folder.png"
     inkscape:export-xdpi="90"
     inkscape:export-ydpi="90"
     transform="translate(-0.62500009,0.082283)" />
  <g
     id="scalable"
     transform="matrix(1.0385892,0,0,1.0385892,1214.7222,1878.8121)"
     inkscape:label="#g3701"
     style="fill:#ffffff" />
</svg>
