<?xml version="1.0" encoding="UTF-8" standalone="no"?>
<svg
   xmlns:dc="http://purl.org/dc/elements/1.1/"
   xmlns:cc="http://creativecommons.org/ns#"
   xmlns:rdf="http://www.w3.org/1999/02/22-rdf-syntax-ns#"
   xmlns:svg="http://www.w3.org/2000/svg"
   xmlns="http://www.w3.org/2000/svg"
   xmlns:xlink="http://www.w3.org/1999/xlink"
   xmlns:sodipodi="http://sodipodi.sourceforge.net/DTD/sodipodi-0.dtd"
   xmlns:inkscape="http://www.inkscape.org/namespaces/inkscape"
   viewBox="0 0 96 96"
   version="1.1"
   id="svg55"
   sodipodi:docname="iceweasel-alt.svg"
   width="96"
   height="96"
   inkscape:version="0.92.2 5c3e80d, 2017-08-06">
  <metadata
     id="metadata59">
    <rdf:RDF>
      <cc:Work
         rdf:about="">
        <dc:format>image/svg+xml</dc:format>
        <dc:type
           rdf:resource="http://purl.org/dc/dcmitype/StillImage" />
        <dc:title></dc:title>
        <cc:license
           rdf:resource="http://creativecommons.org/licenses/by-sa/4.0/" />
        <dc:date>2015</dc:date>
        <dc:creator>
          <cc:Agent>
            <dc:title>Cristian Pozzessere  == ilnanny ==</dc:title>
          </cc:Agent>
        </dc:creator>
        <dc:subject>
          <rdf:Bag>
            <rdf:li>Global language</rdf:li>
          </rdf:Bag>
        </dc:subject>
        <dc:description>Playing with Inkscape on Gnu/Linux O. S.</dc:description>
        <dc:contributor>
          <cc:Agent>
            <dc:title>In the night, alone like a dog.</dc:title>
          </cc:Agent>
        </dc:contributor>
      </cc:Work>
      <cc:License
         rdf:about="http://creativecommons.org/licenses/by-sa/4.0/">
        <cc:permits
           rdf:resource="http://creativecommons.org/ns#Reproduction" />
        <cc:permits
           rdf:resource="http://creativecommons.org/ns#Distribution" />
        <cc:requires
           rdf:resource="http://creativecommons.org/ns#Notice" />
        <cc:requires
           rdf:resource="http://creativecommons.org/ns#Attribution" />
        <cc:permits
           rdf:resource="http://creativecommons.org/ns#DerivativeWorks" />
        <cc:requires
           rdf:resource="http://creativecommons.org/ns#ShareAlike" />
      </cc:License>
    </rdf:RDF>
  </metadata>
  <sodipodi:namedview
     pagecolor="#ffffff"
     bordercolor="#666666"
     borderopacity="1"
     objecttolerance="10"
     gridtolerance="10"
     guidetolerance="10"
     inkscape:pageopacity="0"
     inkscape:pageshadow="2"
     inkscape:window-width="1280"
     inkscape:window-height="941"
     id="namedview57"
     showgrid="false"
     inkscape:zoom="4.9166667"
     inkscape:cx="24"
     inkscape:cy="46.047567"
     inkscape:window-x="0"
     inkscape:window-y="21"
     inkscape:window-maximized="1"
     inkscape:current-layer="svg55" />
  <defs
     id="defs17">
    <linearGradient
       id="linearGradient3764"
       x1="1"
       x2="47"
       gradientUnits="userSpaceOnUse"
       gradientTransform="rotate(-90,23.999998,24)">
      <stop
         style="stop-color:#8ac4ce;stop-opacity:1"
         id="stop2" />
      <stop
         offset="1"
         style="stop-color:#98cbd4;stop-opacity:1"
         id="stop4" />
    </linearGradient>
    <clipPath
       id="clipPath-083088605">
      <g
         transform="translate(0,-1004.3622)"
         id="g9">
        <path
           d="m -24,13 c 0,1.105 -0.672,2 -1.5,2 -0.828,0 -1.5,-0.895 -1.5,-2 0,-1.105 0.672,-2 1.5,-2 0.828,0 1.5,0.895 1.5,2 z"
           transform="matrix(15.333333,0,0,11.5,414.99999,878.8622)"
           style="fill:#1890d0"
           id="path7"
           inkscape:connector-curvature="0" />
      </g>
    </clipPath>
    <clipPath
       id="clipPath-091681670">
      <g
         transform="translate(0,-1004.3622)"
         id="g14">
        <path
           d="m -24,13 c 0,1.105 -0.672,2 -1.5,2 -0.828,0 -1.5,-0.895 -1.5,-2 0,-1.105 0.672,-2 1.5,-2 0.828,0 1.5,0.895 1.5,2 z"
           transform="matrix(15.333333,0,0,11.5,414.99999,878.8622)"
           style="fill:#1890d0"
           id="path12"
           inkscape:connector-curvature="0" />
      </g>
    </clipPath>
    <linearGradient
       id="linearGradient6139-0">
      <stop
         id="stop6141-2"
         offset="0"
         style="stop-color:#b4b9ba;stop-opacity:1" />
      <stop
         style="stop-color:#ffffff;stop-opacity:1;"
         offset="0.25"
         id="stop6151-0" />
      <stop
         style="stop-color:#98a0a2;stop-opacity:1"
         offset="0.5"
         id="stop6147-1" />
      <stop
         id="stop6149-4"
         offset="0.75"
         style="stop-color:#fbf9f9;stop-opacity:1;" />
      <stop
         id="stop6143-4"
         offset="1"
         style="stop-color:#b4b8ba;stop-opacity:1" />
    </linearGradient>
    <linearGradient
       id="linearGradient3832-0-6-1-1">
      <stop
         style="stop-color:#000000;stop-opacity:1;"
         offset="0"
         id="stop3834-6-3-7-1" />
      <stop
         id="stop3872-2-4"
         offset="0.1"
         style="stop-color:#000000;stop-opacity:0.58823532;" />
      <stop
         style="stop-color:#000000;stop-opacity:0.58823532;"
         offset="0.89999998"
         id="stop3844-6-2-7-6" />
      <stop
         style="stop-color:#000000;stop-opacity:1;"
         offset="1"
         id="stop3836-5-0-2-9" />
    </linearGradient>
    <linearGradient
       id="linearGradient3737">
      <stop
         offset="0"
         style="stop-color:#ffffff;stop-opacity:1"
         id="stop3739" />
      <stop
         offset="1"
         style="stop-color:#ffffff;stop-opacity:0"
         id="stop3741" />
    </linearGradient>
    <clipPath
       id="clipPath4156-4-1"
       clipPathUnits="userSpaceOnUse">
      <path
         inkscape:connector-curvature="0"
         id="path4158-0-8"
         d="m 27.046336,-55.695463 -14.21366,13.321486 h 0.06127 l 15.653407,21.770763 10.231384,-10.546177 C 38.561832,-32.30156 27.468089,-54.819245 27.046336,-55.695463 Z M 9.6468554,-39.382809 -5.2407289,-25.32124 15.987863,-7.8059573 26.372412,-18.382966 Z m 31.4906096,12.951445 -9.741259,9.713584 8.944804,12.4580526 7.780753,-7.5550056 z m -49.8397109,4.378822 -13.7541661,12.9822847 26.2830181,13.84571 0.06127,-0.0617 -0.122531,-0.0617 L 13.598503,-5.4007374 -8.7022409,-22.052595 Z m 38.0154159,7.400825 -9.802525,9.7752596 11.579232,9.5594001 7.62759,-7.40083 -8.669108,-11.0087257 z m 20.187073,5.6739697 -7.382526,7.2158 6.187844,8.54179 5.820249,-6.13651996 z m -32.195166,6.32154 -9.5574606,9.49772 13.6622686,7.1849703 7.933918,-7.6783603 z m 23.311629,2.37443004 -7.10683,6.93826996 8.362778,6.9074403 5.360756,-5.6739699 -0.06127,-0.0925 -0.0919,0.12335 -6.463539,-8.20258036 z m -8.730374,8.54178036 -7.505057,7.3391599 10.353916,5.45811 c 1.397496,-1.32103 5.67514,-6.12292 5.850882,-6.32154 z"
         style="opacity:0.6;fill:#ffffff;fill-opacity:1;stroke:none" />
    </clipPath>
    <linearGradient
       id="linearGradient5173-2">
      <stop
         id="stop5175-5"
         style="stop-color:#7469ea;stop-opacity:1"
         offset="0" />
      <stop
         id="stop5177-3"
         style="stop-color:#20157e;stop-opacity:1"
         offset="1" />
    </linearGradient>
    <linearGradient
       id="linearGradient12684-1">
      <stop
         id="stop12686-88"
         style="stop-color:#ffffff;stop-opacity:1"
         offset="0" />
      <stop
         id="stop12692-1"
         style="stop-color:#ffffff;stop-opacity:0.84536082"
         offset="0.34999999" />
      <stop
         id="stop12688-2"
         style="stop-color:#ffffff;stop-opacity:0"
         offset="1" />
    </linearGradient>
    <linearGradient
       id="linearGradient5537-4">
      <stop
         id="stop5539-7"
         style="stop-color:#73a0d0;stop-opacity:1"
         offset="0" />
      <stop
         id="stop5541-9"
         style="stop-color:#ffffff;stop-opacity:1"
         offset="1" />
    </linearGradient>
    <linearGradient
       id="linearGradient10381-1">
      <stop
         id="stop10383-9"
         style="stop-color:#3465a4;stop-opacity:1"
         offset="0" />
      <stop
         id="stop10385-6"
         style="stop-color:#3465a4;stop-opacity:0"
         offset="1" />
    </linearGradient>
    <radialGradient
       r="43.199203"
       fy="44.892841"
       fx="13.948145"
       cy="44.892841"
       cx="13.948145"
       gradientTransform="matrix(0.98043701,0,0,0.08476271,33.920593,76.0949)"
       gradientUnits="userSpaceOnUse"
       id="radialGradient3452"
       xlink:href="#linearGradient3737"
       inkscape:collect="always" />
    <radialGradient
       r="43.199203"
       fy="44.892841"
       fx="13.948145"
       cy="44.892841"
       cx="13.948145"
       gradientTransform="matrix(0.94879623,0,0,0.07465962,29.9614,-90.112088)"
       gradientUnits="userSpaceOnUse"
       id="radialGradient3450"
       xlink:href="#linearGradient3737"
       inkscape:collect="always" />
    <linearGradient
       y2="14.514202"
       x2="50.527882"
       y1="-28.64156"
       x1="2.7713892"
       gradientUnits="userSpaceOnUse"
       id="linearGradient3448"
       xlink:href="#linearGradient3737"
       inkscape:collect="always" />
    <clipPath
       id="clipPath4156-4-0"
       clipPathUnits="userSpaceOnUse">
      <path
         inkscape:connector-curvature="0"
         id="path4158-0-3"
         d="m 27.046336,-55.695463 -14.21366,13.321486 h 0.06127 l 15.653407,21.770763 10.231384,-10.546177 C 38.561832,-32.30156 27.468089,-54.819245 27.046336,-55.695463 Z M 9.6468554,-39.382809 -5.2407289,-25.32124 15.987863,-7.8059573 26.372412,-18.382966 Z m 31.4906096,12.951445 -9.741259,9.713584 8.944804,12.4580526 7.780753,-7.5550056 z m -49.8397109,4.378822 -13.7541661,12.9822847 26.2830181,13.84571 0.06127,-0.0617 -0.122531,-0.0617 L 13.598503,-5.4007374 -8.7022409,-22.052595 Z m 38.0154159,7.400825 -9.802525,9.7752596 11.579232,9.5594001 7.62759,-7.40083 -8.669108,-11.0087257 z m 20.187073,5.6739697 -7.382526,7.2158 6.187844,8.54179 5.820249,-6.13651996 z m -32.195166,6.32154 -9.5574606,9.49772 13.6622686,7.1849703 7.933918,-7.6783603 z m 23.311629,2.37443004 -7.10683,6.93826996 8.362778,6.9074403 5.360756,-5.6739699 -0.06127,-0.0925 -0.0919,0.12335 -6.463539,-8.20258036 z m -8.730374,8.54178036 -7.505057,7.3391599 10.353916,5.45811 c 1.397496,-1.32103 5.67514,-6.12292 5.850882,-6.32154 z"
         style="opacity:0.6;fill:#ffffff;fill-opacity:1;stroke:none" />
    </clipPath>
    <linearGradient
       id="linearGradient3948-58">
      <stop
         offset="0"
         style="stop-color:#000000;stop-opacity:0.56910568"
         id="stop3950-6" />
      <stop
         offset="0.07017544"
         style="stop-color:#000000;stop-opacity:0"
         id="stop3952-2" />
      <stop
         offset="0.20271669"
         style="stop-color:#3c3c3c;stop-opacity:0.09019608"
         id="stop3954-8" />
      <stop
         offset="0.26648945"
         style="stop-color:#888888;stop-opacity:0.13725491"
         id="stop3956-4" />
      <stop
         offset="0.35024518"
         style="stop-color:#bbbbbb;stop-opacity:0.18431373"
         id="stop3958-7" />
      <stop
         offset="0.43899667"
         style="stop-color:#757575;stop-opacity:0.13725489"
         id="stop3960-2" />
      <stop
         offset="0.49777371"
         style="stop-color:#383838;stop-opacity:0.09019608"
         id="stop3962-4" />
      <stop
         offset="0.65896344"
         style="stop-color:#8a8a8a;stop-opacity:0.19215687"
         id="stop3964-0" />
      <stop
         offset="1"
         style="stop-color:#292929;stop-opacity:0.60975611"
         id="stop3966-6" />
    </linearGradient>
    <radialGradient
       gradientUnits="userSpaceOnUse"
       gradientTransform="matrix(0.99987737,0,0,0.90579659,0.005941,3.47)"
       r="43.66917"
       fy="45.581047"
       fx="48.441742"
       cy="45.581047"
       cx="48.441742"
       id="radialGradient4230"
       xlink:href="#linearGradient3921"
       inkscape:collect="always" />
    <linearGradient
       id="linearGradient3921">
      <stop
         id="stop3923"
         offset="0"
         style="stop-color:#8fdaff;stop-opacity:1" />
      <stop
         style="stop-color:#7ac4ec;stop-opacity:1"
         offset="0.3421334"
         id="stop909" />
      <stop
         id="stop911"
         offset="0.71569628"
         style="stop-color:#1a93e1;stop-opacity:1" />
      <stop
         id="stop3925"
         offset="1"
         style="stop-color:#008ace;stop-opacity:1" />
    </linearGradient>
    <linearGradient
       y2="47.000011"
       x2="90"
       y1="47.000011"
       x1="6"
       gradientTransform="matrix(1.1071428,0,0,1.1071426,-5.1428571,-4.0356922)"
       gradientUnits="userSpaceOnUse"
       id="linearGradient4071"
       xlink:href="#linearGradient6139-0-3"
       inkscape:collect="always" />
    <linearGradient
       id="linearGradient6139-0-3">
      <stop
         style="stop-color:#b7b7b7;stop-opacity:1;"
         offset="0"
         id="stop6141-2-6" />
      <stop
         id="stop6151-0-7"
         offset="0.25"
         style="stop-color:#ffffff;stop-opacity:1;" />
      <stop
         id="stop6147-1-5"
         offset="0.5"
         style="stop-color:#9d9d9d;stop-opacity:1;" />
      <stop
         style="stop-color:#fafafa;stop-opacity:1;"
         offset="0.75"
         id="stop6149-4-3" />
      <stop
         style="stop-color:#b7b7b7;stop-opacity:1;"
         offset="1"
         id="stop6143-4-5" />
    </linearGradient>
    <radialGradient
       r="41"
       fy="6.2131939"
       fx="158"
       cy="6.2131939"
       cx="158"
       gradientTransform="matrix(0,1.6209438,-2.0382846,0,160.66427,-243.03657)"
       gradientUnits="userSpaceOnUse"
       id="radialGradient4073"
       xlink:href="#linearGradient3737"
       inkscape:collect="always" />
    <radialGradient
       r="42"
       fy="-27"
       fx="48"
       cy="-27"
       cx="48"
       gradientTransform="matrix(-1.0721726,0,0,-0.87502024,199.46429,-19.125546)"
       gradientUnits="userSpaceOnUse"
       id="radialGradient4075"
       xlink:href="#linearGradient4091-0-3-0-7"
       inkscape:collect="always" />
    <linearGradient
       id="linearGradient4091-0-3-0-7">
      <stop
         id="stop4093-3-6-4-2"
         offset="0"
         style="stop-color:#ffffff;stop-opacity:1;" />
      <stop
         style="stop-color:#ffffff;stop-opacity:1;"
         offset="0.80000001"
         id="stop4099-6-1-8-3" />
      <stop
         id="stop4095-1-0-7-9"
         offset="1"
         style="stop-color:#ffffff;stop-opacity:0;" />
    </linearGradient>
    <linearGradient
       gradientUnits="userSpaceOnUse"
       y2="88.171875"
       x2="94.5"
       y1="88.171875"
       x1="1.5"
       id="linearGradient4129"
       xlink:href="#linearGradient3832-0-6-1-1"
       inkscape:collect="always"
       gradientTransform="translate(-5.3559489e-7,2.1249816e-5)" />
    <radialGradient
       gradientUnits="userSpaceOnUse"
       gradientTransform="matrix(0.97513378,0,0,0.04919072,33.898695,80.166717)"
       r="43.199203"
       fy="44.892841"
       fx="13.948145"
       cy="44.892841"
       cx="13.948145"
       id="radialGradient4139"
       xlink:href="#linearGradient3737"
       inkscape:collect="always" />
    <radialGradient
       r="43.199203"
       fy="44.892841"
       fx="13.948145"
       cy="44.892841"
       cx="13.948145"
       gradientTransform="matrix(0.88832663,0,0,0.04919072,30.734513,-90.708305)"
       gradientUnits="userSpaceOnUse"
       id="radialGradient4143"
       xlink:href="#linearGradient3737"
       inkscape:collect="always" />
    <radialGradient
       r="21.772516"
       fy="141.66774"
       fx="167.68634"
       cy="141.66774"
       cx="167.68634"
       gradientTransform="matrix(0.2157897,-6.924446e-8,0.03913193,0.23627529,15.994916,-20.196224)"
       gradientUnits="userSpaceOnUse"
       id="radialGradient6630-0"
       xlink:href="#linearGradient5537-4"
       inkscape:collect="always" />
    <radialGradient
       r="21.772516"
       fy="141.66774"
       fx="167.68634"
       cy="141.66774"
       cx="167.68634"
       gradientTransform="matrix(-0.18687922,-0.10789485,-0.15202689,0.18505435,131.83195,10.842204)"
       gradientUnits="userSpaceOnUse"
       id="radialGradient6632-8"
       xlink:href="#linearGradient5537-4"
       inkscape:collect="always" />
    <linearGradient
       gradientTransform="matrix(0.0982573,0.02632798,-0.01225916,0.04575179,43.246059,8.6117489)"
       y2="162.24416"
       x2="185.18442"
       y1="178.86754"
       x1="185.18442"
       gradientUnits="userSpaceOnUse"
       id="linearGradient6634-1"
       xlink:href="#linearGradient3737"
       inkscape:collect="always" />
    <radialGradient
       r="8.3116884"
       fy="162.24416"
       fx="185.18442"
       cy="162.24416"
       cx="185.18442"
       gradientTransform="matrix(0.27396305,0.07340822,-0.07030267,0.26237304,20.752524,-37.593123)"
       gradientUnits="userSpaceOnUse"
       id="radialGradient6636-2"
       xlink:href="#linearGradient3737"
       inkscape:collect="always" />
    <linearGradient
       gradientTransform="matrix(-0.0982573,-0.02632798,-0.01225916,0.04575179,92.492078,21.80719)"
       y2="162.24416"
       x2="185.18442"
       y1="178.86754"
       x1="185.18442"
       gradientUnits="userSpaceOnUse"
       id="linearGradient6638-0"
       xlink:href="#linearGradient3737"
       inkscape:collect="always" />
    <radialGradient
       r="8.3116884"
       fy="162.24416"
       fx="185.18442"
       cy="162.24416"
       cx="185.18442"
       gradientTransform="matrix(-0.27396305,-0.07340822,-0.07030267,0.26237304,135.07449,-6.9606261)"
       gradientUnits="userSpaceOnUse"
       id="radialGradient6640-2"
       xlink:href="#linearGradient3737"
       inkscape:collect="always" />
    <radialGradient
       r="66.984375"
       fy="186.60339"
       fx="221.79688"
       cy="186.60339"
       cx="221.79688"
       gradientTransform="matrix(-0.03739971,0.13957831,-0.17109147,-0.04584394,105.23323,4.213295)"
       gradientUnits="userSpaceOnUse"
       id="radialGradient6642-3"
       xlink:href="#linearGradient5537-4"
       inkscape:collect="always" />
    <radialGradient
       r="13.714489"
       fy="231.31619"
       fx="221.51555"
       cy="231.31619"
       cx="221.51555"
       gradientTransform="matrix(0.18667794,0.05002025,-0.03284027,0.12256155,29.496617,-6.4572012)"
       gradientUnits="userSpaceOnUse"
       id="radialGradient6644-5"
       xlink:href="#linearGradient3737"
       inkscape:collect="always" />
    <radialGradient
       r="22.607796"
       fy="137.96158"
       fx="231.53711"
       cy="137.96158"
       cx="231.53711"
       gradientTransform="matrix(0.11693227,0.15387509,-0.28079487,0.21338031,81.705983,-49.554178)"
       gradientUnits="userSpaceOnUse"
       id="radialGradient6646-8"
       xlink:href="#linearGradient5537-4"
       inkscape:collect="always" />
    <radialGradient
       r="14.333125"
       fy="126.36234"
       fx="211.6808"
       cy="126.36234"
       cx="211.6808"
       gradientTransform="matrix(0.28022303,-0.0072093,0.00891178,0.34639826,6.0862655,-29.389057)"
       gradientUnits="userSpaceOnUse"
       id="radialGradient6648-1"
       xlink:href="#linearGradient5537-4"
       inkscape:collect="always" />
  </defs>
  <g
     id="g45"
     transform="translate(0,48)">
    <g
       clip-path="url(#clipPath-083088605)"
       id="g43">
      <g
         transform="translate(1,1)"
         id="g41">
        <g
           style="opacity:0.1"
           id="g39">
          <!-- color: #98cbd4 -->
        </g>
      </g>
    </g>
  </g>
  <g
     id="g49"
     transform="translate(0,48)">
    <g
       clip-path="url(#clipPath-091681670)"
       id="g47">
      <!-- color: #98cbd4 -->
    </g>
  </g>
  <path
     style="display:inline;opacity:0.15;fill:#000000;fill-opacity:1;fill-rule:nonzero;stroke:none;stroke-width:1.00420141"
     d="M 89.142855,0 H 6.857137 C 3.058288,0 1e-6,3.0583 1e-6,6.8571 V 89.1429 C 1e-6,92.9417 3.058288,96 6.857137,96 h 82.285718 c 3.798858,0 6.857143,-3.0583 6.857143,-6.8571 V 6.8571 C 95.999998,3.0583 92.941713,0 89.142855,0 Z"
     id="path3288"
     inkscape:connector-curvature="0" />
  <path
     inkscape:connector-curvature="0"
     id="path4085"
     d="M 88.5,0.75 H 7.499992 C 3.7605,0.75 0.749999,3.7605 0.749999,7.5 v 81 c 0,3.7395 3.010501,6.75 6.749993,6.75 H 88.5 c 3.7395,0 6.75,-3.0105 6.75,-6.75 v -81 c 0,-3.7395 -3.0105,-6.75 -6.75,-6.75 z"
     style="display:inline;opacity:0.15;fill:#000000;fill-opacity:1;fill-rule:nonzero;stroke:none;stroke-width:1.00420141" />
  <path
     inkscape:connector-curvature="0"
     id="rect4251-1"
     d="M 87.857139,1.5000208 H 8.142857 C 4.4627138,1.5000208 1.5,4.4627342 1.5,8.1428761 V 87.857166 c 0,3.680142 2.9627138,6.642855 6.642857,6.642855 h 79.714282 c 3.680143,0 6.642857,-2.962713 6.642857,-6.642855 V 8.1428761 c 0,-3.6801419 -2.962714,-6.6428553 -6.642857,-6.6428553 z"
     style="display:inline;fill:url(#linearGradient4071);fill-opacity:1;fill-rule:nonzero;stroke:none;stroke-width:0.97586966" />
  <rect
     rx="4.4449921"
     ry="4.4449921"
     y="5.712378"
     x="5.2778649"
     height="78.089363"
     width="86.327751"
     id="rect1655"
     style="fill:#3080cf;fill-opacity:1;stroke:#53768a;stroke-width:1.01058793;stroke-linecap:round;stroke-linejoin:round;stroke-miterlimit:4;stroke-dasharray:1.01058793, 1.01058793000000002;stroke-dashoffset:0;stroke-opacity:0.6;opacity:0.904" />
  <g
     transform="matrix(1.1071428,0,0,1.1071426,-115.85713,-3.4821206)"
     id="g3272">
    <path
       style="display:inline;opacity:0.2;fill:url(#radialGradient4073);fill-opacity:1;fill-rule:nonzero;stroke:none"
       d="m 112,5.5 c -2.7873,0 -5,2.2127028 -5,5 v 20.71875 7 38.59375 c 1.07066,1.628779 2.89693,2.71875 5,2.71875 h 4 64 4 c 2.10307,0 3.92934,-1.089971 5,-2.71875 v -38.59375 -7 V 10.5 c 0,-2.7872972 -2.2127,-5 -5,-5 z"
       id="path3400-6"
       inkscape:connector-curvature="0"
       sodipodi:nodetypes="sscccsccscccsss" />
    <path
       style="display:inline;opacity:0.45;fill:url(#radialGradient4075);fill-opacity:1;fill-rule:nonzero;stroke:none"
       d="m 112,4.5 c -3.324,0 -6,2.6759996 -6,6 v 15 h 1 v -15 c 0,-2.7872972 2.2127,-5 5,-5 h 72 c 2.7873,0 5,2.2127028 5,5 v 15 h 1 v -15 c 0,-3.3240004 -2.676,-6 -6,-6 z"
       id="path4236-5"
       inkscape:connector-curvature="0" />
  </g>
  <path
     id="path4118"
     d="m 1.4999995,81.843771 v 6 c 0,3.680142 2.9761068,6.65625 6.65625,6.65625 H 87.843749 c 3.680143,0 6.65625,-2.976108 6.65625,-6.65625 v -6 c 0,3.680142 -2.976107,6.65625 -6.65625,6.65625 H 8.1562495 c -3.6801432,0 -6.65625,-2.976108 -6.65625,-6.65625 z"
     style="display:inline;opacity:0.65;fill:url(#linearGradient4129);fill-opacity:1;fill-rule:nonzero;stroke:none"
     inkscape:connector-curvature="0" />
  <rect
     ry="4.25"
     rx="4.2435927"
     y="80.250023"
     x="5.3749995"
     height="4.25"
     width="84.250008"
     id="rect4131"
     style="opacity:0.55;fill:url(#radialGradient4139);fill-opacity:1;stroke:none;stroke-width:0.97586966" />
  <rect
     transform="rotate(90)"
     style="opacity:0.55;fill:url(#radialGradient4143);fill-opacity:1;stroke:none;stroke-width:0.97586966"
     id="rect4141"
     width="76.75"
     height="4.25"
     x="4.75002"
     y="-90.625008"
     rx="4.2564173"
     ry="4.25" />
  <path
     d="m 36.2369,6.4254389 c 1.655322,2.1092897 0.112937,5.6315851 2.60968,5.5966201 1.215718,1.630968 -2.423073,0.486522 0.204235,1.743562 1.510855,1.129086 -1.598414,1.7742 0.272644,2.787442 -2.156464,1.055899 0.349545,5.522774 1.951258,6.640711 2.636239,2.105929 1.165866,-4.458692 4.107409,-4.800179 1.598386,-1.731531 4.405697,-2.843046 6.399388,-4.584923 -1.948422,-0.150097 -3.086164,-1.300894 -1.240924,-2.013766 3.396132,3.302249 0.851582,-1.563895 -1.028362,-2.3343771 1.819078,-0.5490873 3.588255,-0.1469959 3.335851,-1.5713592 1.922363,-1.3345618 -1.848068,-1.7654504 -3.19398,-1.4637308 -4.4724,0 -8.944799,0 -13.417199,0 z M 8.3473655,7.8030681 C 5.8898786,8.467435 5.7184569,14.040354 8.1885154,10.945786 8.794764,9.6751191 11.596307,8.1437861 8.3473655,7.8030681 Z M 19.829957,7.9967976 c -1.416711,2.1080044 0.205562,3.7981054 1.384265,1.2269509 0.834331,-1.0736729 -0.619875,-1.1876132 -1.384265,-1.2269509 z m 3.540087,0.4735595 c -2.737357,1.2039113 -0.674724,4.0113149 -0.606968,4.6356969 2.883626,0.946628 4.487336,-0.618922 5.578232,2.05676 2.743783,1.50053 -0.05399,4.107893 -1.083953,4.78693 1.855175,-1.533124 5.421203,4.16824 4.486358,1.15606 -1.115291,-0.77273 2.994572,1.241354 0.862328,-1.270002 -1.96223,-2.999907 0.155763,-1.34303 0.983044,-0.642875 2.813732,-2.394188 -3.183606,-2.68357 -1.686523,-5.147475 -1.311881,-1.008246 -3.032422,-4.0626309 -5.355517,-3.4656 -1.55513,1.908392 -0.214828,-4.1582294 -2.496452,-1.1224119 -0.118264,1.6970069 -0.04298,3.8503989 -0.707937,0.9104669 -0.445472,-0.5146686 0.766409,-1.7111713 0.02739,-1.8975499 z m -5.582445,0.021527 C 15.950221,9.0731409 16.048904,11.428845 18.308193,11.681392 19.08206,10.844377 18.615649,8.6503868 17.787599,8.4918841 Z M 10.616653,9.2452755 C 8.23007,9.7818333 9.2042194,11.607844 9.9349352,12.122113 c -2.9542048,0.70217 4.5098698,0.897431 0.7951808,1.342153 -3.0905062,1.171199 2.97602,2.551047 3.971253,1.162374 3.816389,0.885641 0.13734,-2.898935 -0.197663,-4.9504609 C 12.885868,8.02859 14.439846,13.474317 12.977039,9.8516522 12.466647,10.92742 10.843804,10.010179 10.616653,9.2452755 Z M 86.456218,9.4820548 C 83.2537,10.67136 88.446656,15.159406 87.156059,11.07637 87.027491,10.583348 87.445167,9.2806973 86.456218,9.4820548 Z M 19.580335,11.290193 c -2.301316,2.052211 2.925185,3.749292 -0.660973,5.27815 -0.537709,-1.905893 -1.462873,0.953552 -3.514514,-0.5856 -3.526988,1.393511 -5.330628,-0.725867 -8.2835784,-2.178636 -1.7736055,-0.209497 -1.1072619,1.599108 -1.2247338,3.292541 0,4.680007 0,9.360014 0,14.040022 1.738956,1.736081 0.6784616,0.765974 0,0.287131 0.9544674,3.08458 -0.4208954,7.593576 3.341356,9.387815 0.6395739,1.125714 3.3233302,5.921559 3.4470572,4.486595 -1.345444,-1.336988 -2.725923,-5.345216 -0.449308,-1.772757 2.039167,3.39588 4.789809,5.598441 8.808169,6.406546 2.196966,0.70912 4.003758,3.146738 5.935778,2.610407 1.092486,2.732817 -3.237594,5.35711 0.14537,7.906035 1.766068,2.580407 4.731058,4.272832 3.125788,7.895539 -1.122604,3.538107 -0.641944,7.393293 -1.612858,10.689783 -0.301341,2.006563 2.947302,7.099515 2.665852,3.021275 0.948552,-2.834095 0.92354,-5.952526 3.157509,-7.959541 3.056719,0.02296 0.584209,-3.118936 3.618383,-2.708503 1.851464,-2.302822 2.38774,-5.049983 5.51224,-5.964389 0.373218,-2.795274 5.195152,-7.076282 0.213812,-8.164592 -1.353866,-0.633208 -4.839724,-0.860896 -4.573325,-1.173333 0.539728,-2.773647 -4.507641,-3.563265 -6.655157,-4.698051 -2.819623,-1.899146 -7.056421,3.154949 -8.049821,-1.199926 -0.59274,-1.370182 -2.760004,-1.392402 -1.763976,-3.506657 -1.795031,1.694068 -5.306025,1.179198 -4.386825,-2.092374 1.395959,-2.755299 6.756883,-2.885665 7.670376,0.428465 -1.268339,-3.655091 2.451646,-6.500437 4.516728,-9.100815 0.420487,-1.242914 2.918921,-2.310766 2.059153,-0.658873 1.464759,-0.05013 3.684874,-2.558368 1.082813,-1.400691 -0.0368,-2.287423 -2.280145,-1.636922 -3.007452,-1.312123 1.34801,-2.030199 8.27099,-0.920268 5.371988,-4.238755 -2.246366,-0.8637 -2.059503,-5.903834 -4.331617,-3.095954 0.191192,-1.730055 -4.624552,-5.116615 -4.519466,-2.215509 0.587835,2.595946 0.107471,5.586416 -1.14352,7.288017 -0.261066,-3.803929 -7.097995,-2.963203 -6.218975,-7.016713 1.273444,-1.931921 2.761532,-4.603506 2.903307,-4.363171 2.282222,-0.82684 4.117535,-3.231945 1.472458,-4.813048 -0.141361,1.378034 -1.989284,4.221201 -1.729096,0.782482 -1.711174,1.925153 -1.32035,-3.063423 -2.922942,-3.580792 z m 54.621734,1.334579 c -4.008543,0.930459 -5.597665,4.563469 -7.580649,7.572576 -2.923044,1.250561 -2.811776,6.621178 0.45384,4.905875 0.874025,1.44852 -0.611431,3.731661 1.934394,1.837645 2.053454,-2.578602 0.359067,-6.749101 3.853535,-8.375068 0.254533,1.264276 -3.223472,5.985118 0.839638,5.209162 3.67311,0.131512 -2.670255,0.347285 -0.883781,2.57368 -1.856104,-1.045001 -0.891634,2.854011 -3.314402,1.946666 -2.098929,1.083369 -3.475263,-0.503015 -2.994449,-2.240857 -1.651149,0.914031 0.519331,3.492611 -2.346957,3.647579 -0.642067,2.163496 -5.922001,1.837403 -2.919387,4.040427 1.333092,3.278424 -4.967152,0.205521 -3.178529,4.139739 1.53026,3.890347 4.737293,-1.289083 6.03842,-2.289756 2.510368,-1.847785 6.230249,3.150661 3.971252,3.336447 2.533045,-0.322491 2.012517,-2.608431 -0.01701,-3.49342 -1.096123,-2.697576 3.469941,1.32296 3.216713,2.675452 1.611012,2.862587 0.947595,-2.930853 2.586986,-0.365932 -0.191403,2.705612 6.594915,0.636164 3.354937,4.084441 -2.785635,0.532404 -5.527508,-0.681445 -7.925745,0.09604 -2.232133,-0.01873 -2.120139,-2.281779 -2.932805,-2.848499 -2.839293,0.218894 -6.347892,0.194142 -8.2487,2.370691 -2.055487,2.676081 -5.019616,6.417048 -2.779267,9.83407 2.24192,5.06363 7.801706,0.262654 10.99755,3.253122 0.94992,1.246892 -0.823183,2.729074 1.300799,4.079689 0.79922,2.877042 -0.907339,5.608742 1.055585,8.359017 1.015029,2.586495 1.644951,6.457809 5.422807,4.094332 3.998341,-2.283199 2.93339,-6.49213 6.232541,-8.823376 -2.610478,-4.793963 3.193655,-6.895971 4.641804,-10.787803 -3.16389,0.439528 -5.982581,-2.553727 -6.746999,-5.566501 -1.329115,-1.463372 -0.986771,-3.621119 0.497891,-0.872064 2.040682,1.876364 2.084772,7.444021 5.859697,4.579821 1.725768,-0.684959 6.438848,-3.297804 2.683546,-4.486857 -2.420653,1.663687 -5.091252,-4.971138 -1.53665,-1.122798 2.584166,1.04033 4.393791,1.660171 4.393791,-1.789055 0,-9.292941 0,-18.711798 0,-28.067698 -0.80493,0.780535 -2.872834,2.222095 -3.916598,1.264198 -1.796014,0.237321 -4.166987,3.553352 -3.602568,0.347828 -1.561144,-0.0981 -0.27946,2.874184 -2.424267,2.957308 -0.215961,1.52808 -2.16668,0.28297 -1.433932,1.734073 -1.505385,-1.01328 -2.779415,-4.212544 0.186726,-2.204479 4.40487,-1.253993 -2.904741,-4.082529 -3.468952,-4.766217 0.948437,-0.215634 -1.031853,-1.153512 -1.270801,-0.839493 z m -36.353975,0.839493 c -1.466113,1.159177 2.787298,1.377472 0,0 z m -19.583945,0.624238 c -1.639808,1.627628 2.611491,1.49626 0,0 z m 9.508311,1.614409 c -1.24177,1.93029 1.834797,0.712656 0,0 z m 27.186057,2.2817 c -1.453803,1.588208 -3.372653,-0.417981 -3.403931,0.94712 0.263473,0.412472 1.318819,3.35639 3.630859,1.183901 1.240885,-0.496433 0.752324,-1.74788 -0.226928,-2.131021 z m -30.953072,0.94712 c -2.757477,2.285123 4.683027,2.495664 0.584159,0.262082 z m 36.376666,6.328487 c -1.985324,1.228487 0.952431,3.837411 -0.04322,5.062926 -1.244014,2.056738 4.622859,-0.14488 1.489299,-1.785828 -0.223271,-1.40983 -1.835796,-3.129983 -1.446088,-3.277098 z m -1.338879,2.475428 c -2.766089,0.742072 -0.627935,4.573367 0.351767,0.964866 0.05514,-0.209205 0.129768,-0.971864 -0.351767,-0.964866 z m -22.148239,2.776784 c -2.573314,1.66505 -0.399684,3.327035 1.486234,2.57786 -0.387174,-1.004609 -1.468786,-1.637573 -1.486234,-2.57786 z m 48.608124,2.79831 c 1.283983,0.614889 -2.352933,1.665288 -0.04999,2.747462 1.340192,1.495521 0.834937,4.705842 -1.343425,2.43372 0.404714,-2.536819 -2.952843,-4.431339 1.393412,-5.181182 z m -6.603628,0.02153 c -0.174214,1.629805 3.705607,4.163156 -0.476547,3.336446 -2.211697,0.24619 -5.524335,-0.06413 -2.738031,-2.679256 0.880418,-0.501547 3.192091,1.730389 1.989166,-0.355834 0.426481,-0.02582 0.823669,-0.178579 1.225412,-0.301356 z m -12.776082,3.530174 c -1.613183,0.986198 1.115494,1.7424 0,0 z m -40.506769,9.191372 c -0.271959,0.860966 5.102031,1.733489 1.393683,0.354118 l -0.552807,-0.184644 z m 4.175488,1.226951 c -1.630041,1.570257 3.358369,0.46913 0,0 z M 84.300392,61.6813 c -3.541847,0.08672 -3.070978,8.755764 -0.602023,3.626199 0.234142,-1.113121 1.172583,-2.582289 0.602023,-3.626199 z"
     inkscape:connector-curvature="0"
     id="path3522"
     style="display:inline;opacity:0.85090912;fill:#020901;fill-opacity:0.59183673;stroke:none;stroke-width:0.97818154" />
  <g
     id="g1278"
     transform="matrix(1.6359449,-0.43835013,0.43835013,1.6359449,-71.113354,38.074755)"
     style="stroke-width:0.59043908">
    <path
       style="fill:url(#radialGradient6630-0);fill-opacity:1;fill-rule:evenodd;stroke:none;stroke-width:0.58013201"
       id="path3761"
       inkscape:connector-curvature="0"
       d="M 54.493148,7.5907955 C 50.777543,9.89303 51.760076,15.488817 53.39943,18.829677 c 1.717942,3.376283 3.205995,8.802472 5.444006,7.026894 7.294157,-7.294158 3.224721,-22.9593472 -4.350288,-18.2657755 z" />
    <path
       style="fill:url(#radialGradient6632-8);fill-opacity:1;fill-rule:evenodd;stroke:none;stroke-width:0.58013201"
       id="path6444"
       inkscape:connector-curvature="0"
       d="m 84.597988,15.657366 c 2.0667,3.851595 -1.582097,8.206418 -4.672248,10.280013 -3.175923,2.064978 -7.177706,6.020167 -8.228092,3.363466 -2.669846,-9.964003 8.686978,-21.4957394 12.90034,-13.643479 z" />
    <path
       style="fill:#ffffff;fill-opacity:1;fill-rule:evenodd;stroke:none;stroke-width:0.58013201"
       id="path5801"
       inkscape:connector-curvature="0"
       d="M 68.561039,5.8138877 C 67.962868,5.6723187 66.70224,5.633909 66.178393,7.5889351 65.947962,6.4628659 63.481055,6.7348827 63.481055,6.7348827 c 0,0 0.810708,0.5599144 0.790502,0.9933794 -9.7e-5,0.002 -0.0013,0.00381 -0.0017,0.00581 -0.423085,0.047887 -0.842275,0.113492 -1.254499,0.2015749 -0.178659,-0.3976468 0.0541,-1.1906665 -0.0586,-1.7414003 -0.349296,0.5290334 -0.504102,1.2831925 -0.575316,1.8904209 -3.105177,0.837867 -5.765271,2.8914724 -7.040722,6.4418094 -1.314692,3.039725 -2.174138,3.009517 -1.661418,7.670601 0.512714,4.661085 2.108225,5.415294 4.21248,9.106954 2.558856,4.571611 6.225321,5.343201 10.675645,2.86053 3.668171,-2.144941 5.425573,-2.000742 8.201595,-5.780612 2.776029,-3.779867 2.019537,-4.18265 2.402303,-7.472084 0.73817,-3.410551 -0.304864,-6.352647 -2.310705,-8.597374 0.195505,-0.408997 0.475009,-1.100897 0.448615,-1.674268 -0.397442,0.465442 -0.51116,1.577648 -1.155387,0.928416 -0.64422,-0.649234 0.663456,-0.772612 0.663456,-0.772612 0,0 -1.360295,-1.033282 -1.890222,-0.412696 0.500441,-1.86768 -1.011062,-1.9903567 -1.011062,-1.9903567 0,0 0.641908,0.6504879 0.414103,1.1613834 C 74.253973,9.7250565 74.06398,9.8334714 73.854705,9.8584046 73.624067,9.7199923 73.388845,9.583195 73.149486,9.4568486 73.095696,9.3045011 73.086496,9.1084712 73.153486,8.857737 72.754861,8.7157027 72.449251,8.8202695 72.225067,9.0091273 72.05089,8.9316467 71.874388,8.8576113 71.697018,8.7863559 L 72.014478,7.1582262 71.119182,8.562745 C 70.984142,8.5145575 70.847669,8.4730121 70.711237,8.4284281 70.669254,7.8562514 70.418156,7.1893207 69.51897,7.0210211 69.366542,7.5899089 69.064631,7.8497005 68.740604,7.9191536 68.508595,7.874773 68.274213,7.8343697 68.040864,7.8004391 67.72517,7.6270924 67.495906,7.3199899 67.52516,7.0182461 c 0.07543,-0.7780324 1.357502,-1.0993508 1.357502,-1.0993508 0,0 -0.122609,-0.057845 -0.322,-0.1050366 z" />
    <path
       style="fill:#ffffff;fill-opacity:1;fill-rule:evenodd;stroke:none;stroke-width:0.58013201"
       id="path6446"
       inkscape:connector-curvature="0"
       d="m 77.8644,25.724381 3.537218,-2.554711 -0.987561,0.09849 1.857018,-1.452995 -1.709788,0.415177 2.741392,-1.71912 -2.432003,0.731856 2.697123,-2.003851 -2.093018,0.431147 2.299199,-1.586055 -2.269853,0.782414 1.709554,-1.90537 -2.048758,0.715882 0.766244,-1.522143 -1.164392,0.449749 0.545152,-1.455615 -0.943304,0.38322 0.353658,-0.70253 -2.947805,1.383833 c 0,0 0.829379,1.613239 1.061888,3.853186 0.232501,2.239942 -0.971964,5.657442 -0.971964,5.657441 z" />
    <path
       style="fill:#ffffff;fill-opacity:1;fill-rule:evenodd;stroke:none;stroke-width:0.58013201"
       id="path4650"
       inkscape:connector-curvature="0"
       d="m 55.291103,19.675884 -1.78597,-3.981052 0.806018,0.579069 -0.881733,-2.186839 1.27313,1.214445 -1.514554,-2.859495 1.740249,1.849805 -1.333853,-3.083945 1.59704,1.419895 -1.198145,-2.523168 1.574546,1.812516 -0.527833,-2.5048718 1.416339,1.6443508 0.09748,-1.7013393 0.783519,0.9716913 0.255689,-1.5331746 0.625318,0.8035277 0.04499,-0.7852365 1.860956,2.6723364 c 0,0 -1.524884,0.982416 -2.846214,2.806013 -1.32133,1.823595 -1.986978,5.385472 -1.986977,5.385472 z" />
    <path
       style="fill:#729fcf;fill-opacity:1;fill-rule:evenodd;stroke:none;stroke-width:0.58013201"
       id="path6450"
       inkscape:connector-curvature="0"
       d="m 57.96657,16.731322 c 0,0 5.651729,0.62197 4.161999,6.181713 -5.27246,-1.412751 1.208778,-4.742616 -4.161999,-6.181713 z" />
    <path
       inkscape:connector-curvature="0"
       d="m 61.740754,20.656949 a 2.1444311,2.144431 66.804429 1 1 -4.142721,-1.11004 2.1444311,2.144431 66.804429 1 1 4.142721,1.11004 z"
       id="path7337"
       style="fill:#000000;fill-opacity:1;stroke:none;stroke-width:0.15281191" />
    <path
       inkscape:connector-curvature="0"
       d="m 60.167594,21.509345 a 0.84549389,0.3936894 15.000004 1 1 -1.633369,-0.437659 0.84549389,0.3936894 15.000004 1 1 1.633369,0.437659 z"
       id="path8224"
       style="fill:url(#linearGradient6634-1);fill-opacity:1;stroke:none;stroke-width:0.04111281" />
    <path
       inkscape:connector-curvature="0"
       d="m 61.175005,19.640704 a 1.3349479,0.75136798 15.000009 1 1 -2.578921,-0.691021 1.3349479,0.75136798 15.000009 1 1 2.578921,0.691021 z"
       id="path9119"
       style="fill:url(#radialGradient6636-2);fill-opacity:1;stroke:none;stroke-width:0.07136801" />
    <path
       style="fill:#729fcf;fill-opacity:1;fill-rule:evenodd;stroke:none;stroke-width:0.58013201"
       id="path9138"
       inkscape:connector-curvature="0"
       d="m 75.683935,21.47868 c 0,0 -5.205523,-2.287224 -6.695251,3.272521 5.272459,1.412751 1.324477,-4.711616 6.695251,-3.272521 z" />
    <path
       inkscape:connector-curvature="0"
       d="m 70.452604,22.991286 a 2.1444311,2.144431 66.804429 1 0 4.142722,1.110039 2.1444311,2.144431 66.804429 1 0 -4.142722,-1.110039 z"
       id="path9142"
       style="fill:#000000;fill-opacity:1;stroke:none;stroke-width:0.15281191" />
    <path
       inkscape:connector-curvature="0"
       d="m 71.388802,24.516066 a 0.84549376,0.39368934 15.000004 1 0 1.633367,0.437659 0.84549376,0.39368934 15.000004 1 0 -1.633367,-0.437659 z"
       id="path9144"
       style="fill:url(#linearGradient6638-0);fill-opacity:1;stroke:none;stroke-width:0.04111281" />
    <path
       inkscape:connector-curvature="0"
       d="m 71.450678,22.394067 a 1.3349483,0.75136819 15.000009 1 0 2.578922,0.69102 1.3349483,0.75136819 15.000009 1 0 -2.578922,-0.69102 z"
       id="path9146"
       style="fill:url(#radialGradient6640-2);fill-opacity:1;stroke:none;stroke-width:0.07136801" />
    <path
       style="fill:url(#radialGradient6642-3);fill-opacity:1;fill-rule:evenodd;stroke:none;stroke-width:0.58013201"
       id="path9166"
       inkscape:connector-curvature="0"
       d="m 54.348264,19.063558 c -0.260266,-0.03833 -0.556465,0.128724 -0.717678,0.458333 -0.128786,0.818085 -0.124306,1.878124 0.05937,3.547925 0.508123,4.619338 2.08934,5.36679 4.174752,9.025385 0.393748,0.703463 0.814235,1.319382 1.259706,1.843291 -0.0726,-0.363131 0.06236,-0.888242 -0.111911,-1.20113 -0.745978,-0.03505 -0.310623,-0.539661 0.123129,-0.760163 0.80872,-0.67563 -0.322248,0.0966 -0.623486,0.03743 0.207253,-0.982703 1.062948,-1.67229 1.696992,-2.401887 0.863386,-0.706496 -0.22719,-1.482494 -0.979846,-1.477067 -0.39018,-0.301158 -1.806794,0.286827 -1.414376,-0.502911 0.302203,-0.633497 0.517938,-1.178739 1.075716,-1.632685 -0.363539,-0.03693 -1.746811,1.006421 -1.251502,-7.33e-4 0.458783,-0.849212 -0.77362,-0.161891 -1.053384,0.04616 -0.89688,0.501602 -0.195183,-0.522676 0.123133,-0.760161 0.60709,-0.466001 0.05412,-0.888867 -0.485499,-0.570045 -1.098295,0.26981 0.282942,-0.5193 0.614246,-0.696728 -0.263461,-0.163189 -0.897303,0.341226 -1.329375,0.31302 -0.0073,-0.435758 0.765979,-0.691524 1.064208,-1.034705 0.844748,-0.63578 -0.3863,-0.482948 -0.782347,-0.271597 -0.837517,0.217138 0.04442,-0.404822 0.351064,-0.500795 0.766817,-0.492711 -0.446676,-0.242363 -0.719688,-0.112293 -1.244873,0.420271 -0.525684,-0.916799 -0.01005,-1.303952 0.503725,-0.936932 -0.51922,0.405343 -0.830787,-0.06769 -0.529166,-0.586995 0.53836,-0.97135 0.25647,-1.350284 -0.05304,-0.393217 -0.257556,-0.592664 -0.488902,-0.626721 z m 23.61715,6.328197 c -0.198683,-0.03411 -0.430594,0.05547 -0.63848,0.324642 -0.433593,0.187221 0.298731,1.053841 -0.453035,1.297612 -0.50634,0.25388 -0.7211,-1.42004 -0.753332,-0.356768 0.253017,0.593121 0.20732,2.110654 -0.660635,1.124252 -0.171398,-0.249148 -1.09714,-1.072704 -0.679419,-0.262603 0.21758,0.236441 0.664597,1.214491 0.04785,0.607687 -0.237306,-0.38106 -1.221227,-1.127391 -0.807545,-0.154415 0.08668,0.446317 0.62262,1.052861 0.398495,1.426635 -0.388283,-0.191608 -0.679216,-0.943818 -0.988981,-0.934219 0.198204,0.319304 0.99406,1.691763 0.177809,0.908959 -0.307903,-0.545915 -0.992446,-0.454644 -0.699692,0.25247 0.156921,0.364824 0.25247,1.602723 -0.273446,0.719885 -0.138257,-0.32006 -0.861884,-1.5315 -0.889185,-0.56667 -0.07461,1.11987 -0.756671,-0.476887 -1.089975,-0.62667 0.256078,0.672016 0.170291,1.252079 0.11526,1.951804 -0.05499,0.880142 -0.982076,-0.335828 -1.47056,-0.270106 -0.649097,-0.38103 -1.981565,-0.254281 -1.587097,0.789254 0.1843,0.948873 0.574776,1.972373 0.262907,2.927044 -0.290461,-0.09938 -0.878014,-1.332075 -0.515458,-0.342602 0.265394,0.407836 0.390117,1.062516 -0.273445,0.719884 -0.267846,0.160194 -0.413565,0.576675 -0.609823,0.865224 0.604945,-0.219366 1.228629,-0.506764 1.867104,-0.862948 3.635318,-2.125728 5.376978,-1.982819 8.128132,-5.728832 1.054851,-1.436299 1.594962,-2.380637 1.881452,-3.182798 -0.02919,-0.336237 -0.232662,-0.582734 -0.488897,-0.626721 z m -18.278568,8.945299 c -0.08616,0.0026 -0.154455,-0.0061 -0.217426,-0.02109 0.116495,0.121769 0.233049,0.238182 0.35275,0.348578 -0.03349,-0.128486 -0.07302,-0.246379 -0.135324,-0.327497 z m 6.110975,1.637431 c -0.05858,0.02423 -0.119618,0.05821 -0.177482,0.107356 0.0864,-0.02131 0.172384,-0.04242 0.259556,-0.06677 -0.02709,-0.01347 -0.05315,-0.02278 -0.08208,-0.04058 z m -4.89281,-0.517871 c -0.01459,-0.0039 -0.03343,8.66e-4 -0.04935,-8e-4 0.07152,0.04412 0.141724,0.08491 0.214217,0.125562 -0.04399,-0.05903 -0.09602,-0.106465 -0.164866,-0.12473 z" />
    <path
       style="fill:#000000;fill-opacity:1;fill-rule:evenodd;stroke:none;stroke-width:0.58013201"
       id="path10070"
       inkscape:connector-curvature="0"
       d="m 61.850958,30.892948 c -1.210965,0.06931 -1.493363,0.232808 -1.284196,1.231033 0.209163,0.998222 0.78573,2.40412 2.120855,2.761866 1.335125,0.357747 2.538889,-0.571113 3.219643,-1.330884 0.680751,-0.759773 0.861393,-0.788985 -0.496632,-1.708206 -1.358023,-0.919221 -2.3487,-1.023115 -3.55967,-0.953809 z" />
    <path
       style="fill:url(#radialGradient6644-5);fill-opacity:1;fill-rule:evenodd;stroke:none;stroke-width:0.58013201"
       id="path10960"
       inkscape:connector-curvature="0"
       d="m 62.02889,31.157144 c -1.057193,0.06051 -1.303732,0.203247 -1.121127,1.074712 0.182604,0.871469 2.756811,-0.967348 1.851543,2.411161 0.902432,-3.367916 2.216499,-0.498594 2.810808,-1.161887 0.594307,-0.663294 0.75201,-0.688796 -0.433569,-1.491292 -1.185581,-0.802497 -2.050461,-0.893197 -3.107655,-0.832694 z" />
    <path
       style="fill:url(#radialGradient6646-8);fill-opacity:1;fill-rule:evenodd;stroke:none;stroke-width:0.58013201"
       id="path4019"
       inkscape:connector-curvature="0"
       d="m 66.883009,17.864725 c 0,0 1.423026,0.647379 0.98173,2.790828 1.806707,-1.777586 0.931288,-3.475604 0.931288,-3.475604 0,0 2.010403,0.937809 1.387372,2.76648 1.649322,-1.686717 0.773894,-3.384736 0.773894,-3.384736 0,0 1.961718,0.126517 2.158888,1.376717 -0.03086,-1.870844 -1.444987,-3.047999 -1.444987,-3.047999 0,0 3.384739,0.773895 2.794964,2.478438 1.29476,-2.846048 -1.187811,-3.511252 -1.187811,-3.511252 0,0 1.689101,-0.34565 2.721916,1.261498 -0.394347,-2.500397 -2.081155,-2.964464 -2.081155,-2.964464 1.755916,0.756784 2.44046,2.069196 2.302681,4.62031 -0.106308,-1.092809 -1.528987,-1.888254 -1.528987,-1.888254 0,0 1.326803,0.893736 -0.340335,3.640005 0.150863,-1.556065 -1.45781,-2.244127 -1.45781,-2.244127 0,0 1.210984,1.630737 -0.210854,3.269515 0.241726,-1.398675 -0.875429,-1.698015 -0.875429,-1.698015 0,0 0.112825,2.558007 -2.429739,3.606255 0.456723,-1.208026 -0.121744,-2.028229 -0.121744,-2.028229 0,0 0.197179,1.250198 -2.278871,2.050191 0.862372,-1.232376 -0.09501,-3.617557 -0.09501,-3.617557 z" />
    <path
       style="opacity:0.1;fill:#000000;fill-opacity:1;fill-rule:evenodd;stroke:none;stroke-width:0.58013201"
       id="path5282"
       inkscape:connector-curvature="0"
       d="m 67.823516,6.6227651 c 0.04185,0.029794 0.07657,0.066641 0.122434,0.091827 0.233349,0.033932 0.471987,0.078052 0.703997,0.1224343 0.02996,-0.00641 0.06255,-0.020998 0.09183,-0.030606 -0.01672,-0.01116 -0.09327,-0.079314 -0.275477,-0.1224343 -0.149542,-0.035384 -0.340467,-0.068254 -0.550954,-0.061221 -0.02859,9.578e-4 -0.06255,-0.0023 -0.09182,0 z m 9.396819,4.8973659 c -0.04127,0.04834 -0.05562,0.12426 -0.09182,0.183651 0.02302,0.02827 0.03851,0.06332 0.06122,0.09183 0.0089,-0.09062 0.03458,-0.189218 0.03061,-0.275477 z m -25.221428,0.336694 c -0.263744,2.363459 0.461129,5.049121 1.407992,6.978745 0.0098,0.01936 0.02045,0.04118 0.03061,0.06122 -0.0016,-0.66464 0.05558,-1.199776 0.153043,-1.65286 -0.05858,-0.120591 -0.12457,-0.251185 -0.183651,-0.367303 -0.693435,-1.413158 -1.250829,-3.220796 -1.407992,-5.019799 z m 33.118428,5.20345 c -0.496926,2.792867 -2.998068,5.43764 -5.203449,6.917528 -0.631399,0.410537 -1.291945,0.914846 -1.958946,1.407994 -0.312423,0.544997 -0.716464,1.15345 -1.285559,1.928336 -2.776022,3.779871 -4.534916,3.640072 -8.203086,5.785013 -4.450324,2.48267 -8.123522,1.694409 -10.682376,-2.877202 -2.104258,-3.691659 -3.680654,-4.429648 -4.193369,-9.090734 -0.04997,-0.45417 -0.09796,-0.852847 -0.122434,-1.224341 -0.0754,0.768476 -0.03487,1.753294 0.122434,3.183287 0.512715,4.661086 2.089111,5.399075 4.193369,9.090734 2.558854,4.571611 6.232052,5.359873 10.682376,2.877202 3.66817,-2.144941 5.427064,-2.005143 8.203086,-5.785013 0.569095,-0.774885 0.973136,-1.383339 1.285559,-1.928337 0.667001,-0.493146 1.327547,-0.997457 1.958946,-1.407992 2.719027,-1.824562 5.891588,-5.415602 5.203449,-8.876475 z" />
    <path
       style="fill:url(#radialGradient6648-1);fill-opacity:1;fill-rule:evenodd;stroke:none;stroke-width:0.58013201"
       id="path3754"
       inkscape:connector-curvature="0"
       d="m 66.371935,9.6535683 c -0.510049,-0.225811 -2.066613,-0.5491049 -3.21716,-0.1528876 1.51268,-0.626303 3.269704,1.2199863 3.269704,1.2199863 0,0 -2.499632,-0.55762 -3.457649,0.622199 2.727231,-0.823102 3.577534,1.47836 3.577534,1.47836 0,0 -1.830248,-1.078853 -3.068413,0.08197 1.214645,-0.502355 2.997818,1.055487 2.997818,1.055487 0,0 -1.131614,0.04066 -1.846497,1.453857 0.903892,-0.445554 2.187321,-0.216286 2.187321,-0.216286 -1.046821,0.134154 -1.566398,0.309539 -2.835237,1.092187 0.838028,-1.638019 1.679969,-2.09687 1.679969,-2.09687 0,0 -2.21388,-1.372208 -3.257993,-0.45461 1.715841,-1.934976 3.108335,-1.325781 3.108335,-1.325781 0,0 -2.285742,-1.247664 -3.363117,-0.205937 1.067119,-1.804226 3.118604,-1.659875 3.118604,-1.659875 0,0 -0.878165,-0.9758103 -2.73492,-0.7650887 2.360836,-1.3630295 4.351749,0.0991 3.841701,-0.1267161 z" />
    <path
       style="opacity:0.2;fill:#000000;fill-opacity:1;fill-rule:evenodd;stroke:none;stroke-width:0.58013201"
       id="path5271"
       inkscape:connector-curvature="0"
       d="m 67.915341,6.6227651 c -0.138801,0.00471 -0.278626,0.047106 -0.428519,0.091827 -0.02702,0.06634 -0.05399,0.1396987 -0.06122,0.21426 -0.01829,0.1885904 0.07122,0.3665074 0.21426,0.5203456 0.381046,-0.4438607 1.132515,-0.6427799 1.132515,-0.6427799 0,0 -0.106695,-0.075247 -0.306086,-0.1224342 -0.149542,-0.035384 -0.340467,-0.068254 -0.550954,-0.061221 z m -5.050406,0.4591285 c -0.0126,0.2022973 0.0062,0.3902946 0.03061,0.5509542 0.0076,-0.1918813 0.0031,-0.3858554 -0.03061,-0.5509542 z m 0.918255,0.4897371 c -0.234518,0.00761 -0.397911,0.030606 -0.397911,0.030606 0,0 0.09781,0.1100508 0.153043,0.1530428 0.215054,-0.037869 0.425368,-0.097828 0.642779,-0.1224343 9.72e-4,-0.020848 0.0027,-0.039802 0,-0.061221 -0.136077,-0.00301 -0.289166,-0.00351 -0.397911,0 z m 8.141869,0.4591275 -0.306085,0.4591285 -0.03061,0.1836514 c 0.06331,0.025426 0.121889,0.062033 0.18365,0.091827 z m 1.897729,1.2549492 c 0,0 0.131088,0.158594 0.244869,0.3366943 0.06112,-0.042177 0.12131,-0.081919 0.153042,-0.1530429 0.01,-0.02235 0.02378,-0.03839 0.03061,-0.061221 -0.227467,-0.1075934 -0.42852,-0.1224344 -0.42852,-0.1224344 z m 1.040689,0.8264316 c -0.0133,0.06537 -0.01179,0.113442 -0.03061,0.183651 0.01563,-0.0183 0.04423,-0.01509 0.06122,-0.0306 -0.0107,-0.05389 -0.01502,-0.104945 -0.03061,-0.153043 z m 1.040691,1.101907 c 0.02194,0.07308 0.05946,0.150553 0.153042,0.244868 0.227702,0.22947 0.387991,0.225087 0.520345,0.122434 -0.130638,-0.09128 -0.363834,-0.239319 -0.673387,-0.367302 z m 1.316167,0.306085 c -0.172592,0.202121 -0.294607,0.51854 -0.42852,0.765213 0.0824,0.09302 0.166286,0.181581 0.244869,0.275477 0.116183,-0.334724 0.19885,-0.710508 0.183651,-1.04069 z m -25.252037,0.82643 c -0.123204,2.238911 0.555814,4.689966 1.438601,6.489009 0.01575,0.03096 0.04475,0.05927 0.06121,0.09183 0.02514,-0.256158 0.07575,-0.487017 0.122434,-0.703995 -0.05858,-0.120591 -0.12457,-0.251185 -0.183651,-0.367303 -0.756567,-1.541817 -1.353912,-3.553839 -1.438601,-5.509536 z m 33.210254,5.264668 c -0.302239,2.948139 -2.947055,5.790851 -5.264666,7.346048 -0.631402,0.410535 -1.291944,0.914844 -1.958946,1.407992 -0.312428,0.544997 -0.716464,1.153453 -1.285559,1.928338 -2.776022,3.779869 -4.534916,3.640071 -8.203086,5.785012 -4.450324,2.48267 -8.123522,1.694409 -10.682376,-2.877202 -2.104258,-3.69166 -3.680654,-4.429648 -4.193369,-9.090734 -0.07708,-0.700783 -0.104804,-1.261754 -0.122434,-1.775295 -0.03393,0.705551 -0.0087,1.562803 0.122434,2.754768 0.512715,4.661086 2.089111,5.399075 4.193369,9.090734 2.558854,4.571611 6.232052,5.359873 10.682376,2.877202 3.66817,-2.144941 5.427064,-2.005143 8.203086,-5.785013 0.569095,-0.774885 0.973131,-1.383339 1.285559,-1.928337 0.667002,-0.493146 1.327544,-0.997457 1.958946,-1.407992 2.575123,-1.727996 5.542,-5.039497 5.264666,-8.325521 z" />
  </g>
  <rect
     ry="6.4504733"
     rx="6.4504733"
     y="-89.985657"
     x="2.2079835"
     height="6.4504733"
     width="81.974487"
     id="rect4141-5"
     style="opacity:0.55;fill:url(#radialGradient3450);fill-opacity:1;stroke:none;stroke-width:1.33976674"
     transform="rotate(90)" />
  <rect
     style="opacity:0.55;fill:url(#radialGradient3452);fill-opacity:1;stroke:none;stroke-width:1.38505268"
     id="rect4131-3"
     width="84.708191"
     height="7.3233619"
     x="5.2417665"
     y="76.238503"
     rx="7.3233619"
     ry="7.3233619" />
  <rect
     style="fill:url(#radialGradient4230);fill-opacity:1;stroke:#53768a;stroke-width:1.01058793;stroke-linecap:round;stroke-linejoin:round;stroke-miterlimit:4;stroke-dasharray:1.01058793, 1.01058793000000002;stroke-dashoffset:0;stroke-opacity:0.6;opacity:0.28"
     id="rect4222"
     width="86.327751"
     height="78.089363"
     x="5.2778649"
     y="5.712378"
     ry="4.4449921"
     rx="4.4449921" />
  <rect
     clip-path="url(#clipPath4156-4-0)"
     ry="3.9569881"
     rx="3.9569874"
     y="-30"
     x="2"
     height="92"
     width="92"
     id="rect4146"
     style="opacity:0.68373494;fill:url(#linearGradient3448);fill-opacity:1;stroke:none"
     transform="matrix(0.92450637,0,0,0.95806143,3.04741,34.207414)" />
  <path
     inkscape:connector-curvature="0"
     id="path4989"
     d="m 9.604107,4.515 c -3.116621,0 -5.667965,2.5395 -5.667965,5.646 v 69.278 c 0,3.1065 2.551344,5.646 5.667965,5.646 h 76.791785 c 3.116621,0 5.667966,-2.5395 5.667966,-5.646 V 10.161 c 0,-3.1065 -2.551345,-5.646 -5.667966,-5.646 z m 0,2.3194 h 76.791785 c 1.888098,0 3.352023,1.4801 3.352023,3.3266 v 69.278 c 0,1.8465 -1.463925,3.3266 -3.352023,3.3266 H 9.604107 c -1.8881,0 -3.352023,-1.4801 -3.352023,-3.3266 V 10.161 c 0,-1.8465 1.463923,-3.3266 3.352023,-3.3266 z"
     style="color:#000000;font-style:normal;font-variant:normal;font-weight:normal;font-stretch:normal;font-size:medium;line-height:normal;font-family:Sans;-inkscape-font-specification:Sans;text-indent:0;text-align:start;text-decoration:none;text-decoration-line:none;letter-spacing:normal;word-spacing:normal;text-transform:none;writing-mode:lr-tb;direction:ltr;baseline-shift:baseline;text-anchor:start;display:inline;overflow:visible;visibility:visible;fill:#000000;fill-opacity:0.79130435;stroke:none;stroke-width:2.38548064;marker:none;enable-background:accumulate" />
</svg>
