<?xml version="1.0" encoding="UTF-8" standalone="no"?>
<!-- Created with Inkscape (http://www.inkscape.org/) -->

<svg
   xmlns:dc="http://purl.org/dc/elements/1.1/"
   xmlns:cc="http://creativecommons.org/ns#"
   xmlns:rdf="http://www.w3.org/1999/02/22-rdf-syntax-ns#"
   xmlns:svg="http://www.w3.org/2000/svg"
   xmlns="http://www.w3.org/2000/svg"
   xmlns:xlink="http://www.w3.org/1999/xlink"
   xmlns:sodipodi="http://sodipodi.sourceforge.net/DTD/sodipodi-0.dtd"
   xmlns:inkscape="http://www.inkscape.org/namespaces/inkscape"
   version="1.0"
   width="96"
   height="96"
   id="svg2408"
   inkscape:version="0.92.2 5c3e80d, 2017-08-06"
   sodipodi:docname="im-bigbrownchunx-skype-dbus.svg">
  <sodipodi:namedview
     pagecolor="#ffffff"
     bordercolor="#666666"
     borderopacity="1"
     objecttolerance="10"
     gridtolerance="10"
     guidetolerance="10"
     inkscape:pageopacity="0"
     inkscape:pageshadow="2"
     inkscape:window-width="1280"
     inkscape:window-height="972"
     id="namedview70"
     showgrid="false"
     inkscape:zoom="2.8862985"
     inkscape:cx="48"
     inkscape:cy="48"
     inkscape:window-x="0"
     inkscape:window-y="23"
     inkscape:window-maximized="1"
     inkscape:current-layer="g12958">
    <inkscape:grid
       type="xygrid"
       id="grid956" />
  </sodipodi:namedview>
  <defs
     id="defs2410">
    <linearGradient
       id="linearGradient3521">
      <stop
         style="stop-color:#0182f8;stop-opacity:1;"
         offset="0"
         id="stop3523" />
      <stop
         style="stop-color:#0158a9;stop-opacity:1;"
         offset="1"
         id="stop3525" />
    </linearGradient>
    <linearGradient
       id="linearGradient3752">
      <stop
         id="stop3754"
         style="stop-color:#6bd0f5;stop-opacity:1"
         offset="0" />
      <stop
         id="stop3756"
         style="stop-color:#c6eefd;stop-opacity:1"
         offset="1" />
    </linearGradient>
    <linearGradient
       id="linearGradient3740">
      <stop
         id="stop3742"
         style="stop-color:#9ee1f9;stop-opacity:1"
         offset="0" />
      <stop
         id="stop3744"
         style="stop-color:#00aff0;stop-opacity:1"
         offset="1" />
    </linearGradient>
    <linearGradient
       x1="45.447727"
       y1="92.539597"
       x2="45.447727"
       y2="7.0165396"
       id="ButtonShadow"
       gradientUnits="userSpaceOnUse"
       gradientTransform="scale(1.0058652,0.994169)">
      <stop
         id="stop3750"
         style="stop-color:#000000;stop-opacity:1"
         offset="0" />
      <stop
         id="stop3752"
         style="stop-color:#000000;stop-opacity:0.58823532"
         offset="1" />
    </linearGradient>
    <linearGradient
       id="linearGradient3737">
      <stop
         id="stop3739"
         style="stop-color:#ffffff;stop-opacity:1"
         offset="0" />
      <stop
         id="stop3741"
         style="stop-color:#ffffff;stop-opacity:0"
         offset="1" />
    </linearGradient>
    <filter
       color-interpolation-filters="sRGB"
       id="filter3174">
      <feGaussianBlur
         id="feGaussianBlur3176"
         stdDeviation="1.71" />
    </filter>
    <linearGradient
       x1="36.357143"
       y1="6"
       x2="36.357143"
       y2="63.893143"
       id="linearGradient3188"
       xlink:href="#linearGradient3737"
       gradientUnits="userSpaceOnUse" />
    <filter
       x="-0.192"
       y="-0.192"
       width="1.3839999"
       height="1.3839999"
       color-interpolation-filters="sRGB"
       id="filter3794">
      <feGaussianBlur
         id="feGaussianBlur3796"
         stdDeviation="5.28" />
    </filter>
    <linearGradient
       x1="48"
       y1="20.220806"
       x2="48"
       y2="138.66119"
       id="linearGradient3613"
       xlink:href="#linearGradient3737"
       gradientUnits="userSpaceOnUse" />
    <radialGradient
       cx="48"
       cy="90.171875"
       r="42"
       fx="48"
       fy="90.171875"
       id="radialGradient3619"
       xlink:href="#linearGradient3737"
       gradientUnits="userSpaceOnUse"
       gradientTransform="matrix(1.1573129,0,0,0.99590774,-7.5510206,0.19713193)" />
    <clipPath
       id="clipPath3613">
      <rect
         width="84"
         height="84"
         rx="6"
         ry="6"
         x="6"
         y="6"
         id="rect3615"
         style="fill:#ffffff;fill-opacity:1;fill-rule:nonzero;stroke:none" />
    </clipPath>
    <linearGradient
       x1="48"
       y1="90"
       x2="48"
       y2="5.9877172"
       id="linearGradient3617"
       xlink:href="#linearGradient3752"
       gradientUnits="userSpaceOnUse" />
    <linearGradient
       x1="45.447727"
       y1="92.539597"
       x2="45.447727"
       y2="7.0165396"
       id="ButtonShadow-0"
       gradientUnits="userSpaceOnUse"
       gradientTransform="matrix(1.0058652,0,0,0.994169,100,0)">
      <stop
         id="stop3750-8"
         style="stop-color:#000000;stop-opacity:1"
         offset="0" />
      <stop
         id="stop3752-5"
         style="stop-color:#000000;stop-opacity:0.58823532"
         offset="1" />
    </linearGradient>
    <linearGradient
       x1="32.251034"
       y1="6.1317081"
       x2="32.251034"
       y2="90.238609"
       id="linearGradient3780"
       xlink:href="#ButtonShadow-0"
       gradientUnits="userSpaceOnUse"
       gradientTransform="matrix(1.0238095,0,0,1.0119048,-1.1428571,-98.071429)" />
    <linearGradient
       x1="32.251034"
       y1="6.1317081"
       x2="32.251034"
       y2="90.238609"
       id="linearGradient3772"
       xlink:href="#ButtonShadow-0"
       gradientUnits="userSpaceOnUse"
       gradientTransform="matrix(1.0238095,0,0,1.0119048,-1.1428571,-98.071429)" />
    <linearGradient
       x1="32.251034"
       y1="6.1317081"
       x2="32.251034"
       y2="90.238609"
       id="linearGradient3725"
       xlink:href="#ButtonShadow-0"
       gradientUnits="userSpaceOnUse"
       gradientTransform="matrix(1.0238095,0,0,1.0119048,-1.1428571,-98.071429)" />
    <linearGradient
       x1="32.251034"
       y1="6.1317081"
       x2="32.251034"
       y2="90.238609"
       id="linearGradient3721"
       xlink:href="#ButtonShadow-0"
       gradientUnits="userSpaceOnUse"
       gradientTransform="translate(0,-97)" />
    <linearGradient
       x1="32.251034"
       y1="6.1317081"
       x2="32.251034"
       y2="90.238609"
       id="linearGradient3026"
       xlink:href="#ButtonShadow-0"
       gradientUnits="userSpaceOnUse"
       gradientTransform="matrix(1.0238095,0,0,1.0119048,-1.1428571,-98.071429)" />
    <linearGradient
       x1="56"
       y1="80"
       x2="51.524998"
       y2="53.767857"
       id="linearGradient3746"
       xlink:href="#linearGradient3740"
       gradientUnits="userSpaceOnUse" />
    <linearGradient
       x1="32"
       y1="24"
       x2="64"
       y2="64"
       id="linearGradient3738"
       xlink:href="#linearGradient3737"
       gradientUnits="userSpaceOnUse" />
    <linearGradient
       x1="80"
       y1="80"
       x2="48"
       y2="48"
       id="linearGradient3773"
       xlink:href="#linearGradient3737"
       gradientUnits="userSpaceOnUse" />
    <linearGradient
       x1="16"
       y1="16"
       x2="48"
       y2="48"
       id="linearGradient3781"
       xlink:href="#linearGradient3737"
       gradientUnits="userSpaceOnUse" />
    <linearGradient
       id="linearGradient12946"
       inkscape:collect="always">
      <stop
         id="stop12948"
         offset="0"
         style="stop-color:#ffffff;stop-opacity:1;" />
      <stop
         id="stop12950"
         offset="1"
         style="stop-color:#ffffff;stop-opacity:0;" />
    </linearGradient>
    <linearGradient
       gradientUnits="userSpaceOnUse"
       y2="-34.779079"
       x2="56.280174"
       y1="3.0126896"
       x1="9.0784369"
       id="linearGradient12954"
       xlink:href="#linearGradient12946"
       inkscape:collect="always" />
    <clipPath
       id="clipPath2973-9">
      <rect
         width="84"
         height="84"
         rx="6"
         ry="6"
         x="6"
         y="6"
         id="rect2975-6"
         style="fill:url(#linearGradient2977);fill-opacity:1;fill-rule:nonzero;stroke:none" />
    </clipPath>
    <linearGradient
       id="linearGradient13087">
      <stop
         id="stop13089"
         style="stop-color:#ffffff;stop-opacity:1"
         offset="0" />
      <stop
         id="stop13091"
         style="stop-color:#ffffff;stop-opacity:1"
         offset="0.30000001" />
      <stop
         id="stop13093"
         style="stop-color:#f0f0f0;stop-opacity:1"
         offset="0.89999998" />
      <stop
         id="stop13095"
         style="stop-color:#d2d2d2;stop-opacity:1"
         offset="1" />
    </linearGradient>
    <radialGradient
       cx="48"
       cy="60"
       r="5"
       fx="48"
       fy="60"
       id="radialGradient3979-6"
       xlink:href="#linearGradient3674-5-0"
       gradientUnits="userSpaceOnUse" />
    <linearGradient
       id="linearGradient3983-2">
      <stop
         id="stop3985-6"
         style="stop-color:#ffffff;stop-opacity:1"
         offset="0" />
      <stop
         id="stop3989-2"
         style="stop-color:#868686;stop-opacity:1"
         offset="1" />
    </linearGradient>
    <linearGradient
       x1="43"
       y1="60"
       x2="53"
       y2="60"
       id="linearGradient3973-9"
       xlink:href="#linearGradient3983-2"
       gradientUnits="userSpaceOnUse" />
    <linearGradient
       id="linearGradient3917-6-8">
      <stop
         id="stop3919-2"
         style="stop-color:#000000;stop-opacity:1"
         offset="0" />
      <stop
         id="stop3921-7"
         style="stop-color:#000000;stop-opacity:0"
         offset="1" />
    </linearGradient>
    <linearGradient
       x1="17"
       y1="48"
       x2="120"
       y2="48"
       id="linearGradient3923-1-6"
       xlink:href="#linearGradient3917-6-8"
       gradientUnits="userSpaceOnUse"
       gradientTransform="matrix(0,1,-1,0,96,0)" />
    <linearGradient
       id="linearGradient3899-9">
      <stop
         id="stop3901-8"
         style="stop-color:#ffffff;stop-opacity:1"
         offset="0" />
      <stop
         id="stop3981-6"
         style="stop-color:#ffffff;stop-opacity:0.41221374"
         offset="0.5" />
      <stop
         id="stop3903-5"
         style="stop-color:#868686;stop-opacity:1"
         offset="1" />
    </linearGradient>
    <linearGradient
       x1="13"
       y1="48"
       x2="83"
       y2="48"
       id="linearGradient3905-4"
       xlink:href="#linearGradient3899-9"
       gradientUnits="userSpaceOnUse"
       gradientTransform="matrix(0,1,-1,0,96,0)" />
    <linearGradient
       id="linearGradient3893-7">
      <stop
         id="stop3895-3"
         style="stop-color:#ffffff;stop-opacity:1"
         offset="0" />
      <stop
         id="stop3897-5"
         style="stop-color:#a2a2a2;stop-opacity:1"
         offset="1" />
    </linearGradient>
    <radialGradient
       cx="48.000896"
       cy="46.058418"
       r="3"
       fx="48.000896"
       fy="46.058418"
       id="radialGradient3901-4"
       xlink:href="#linearGradient3893-7"
       gradientUnits="userSpaceOnUse" />
    <filter
       color-interpolation-filters="sRGB"
       id="filter3944-7">
      <feGaussianBlur
         id="feGaussianBlur3946-6"
         stdDeviation="0.4359375" />
    </filter>
    <linearGradient
       id="linearGradient3674-5-0">
      <stop
         id="stop3676-0-2"
         style="stop-color:#ffffff;stop-opacity:1"
         offset="0" />
      <stop
         id="stop3684-9"
         style="stop-color:#ffffff;stop-opacity:1"
         offset="0.30000001" />
      <stop
         id="stop3925-8-3"
         style="stop-color:#f0f0f0;stop-opacity:1"
         offset="0.89999998" />
      <stop
         id="stop3678-8-8"
         style="stop-color:#d2d2d2;stop-opacity:1"
         offset="1" />
    </linearGradient>
    <radialGradient
       cx="48"
       cy="48"
       r="32"
       fx="48"
       fy="48"
       id="radialGradient3682-9"
       xlink:href="#linearGradient3674-5-0"
       gradientUnits="userSpaceOnUse" />
    <linearGradient
       id="linearGradient3873-7">
      <stop
         id="stop3875-0"
         style="stop-color:#f0f0f0;stop-opacity:1"
         offset="0" />
      <stop
         id="stop3877-20-4"
         style="stop-color:#b4b4b4;stop-opacity:1"
         offset="1" />
    </linearGradient>
    <linearGradient
       x1="16"
       y1="48"
       x2="80"
       y2="48"
       id="linearGradient3879-8-8"
       xlink:href="#linearGradient3873-7"
       gradientUnits="userSpaceOnUse" />
    <filter
       color-interpolation-filters="sRGB"
       id="filter3174-4">
      <feGaussianBlur
         id="feGaussianBlur3176-3"
         stdDeviation="1.71" />
    </filter>
    <linearGradient
       id="linearGradient3832-0-6-1-1">
      <stop
         id="stop3834-6-3-7-1"
         offset="0"
         style="stop-color:#000000;stop-opacity:1;" />
      <stop
         style="stop-color:#000000;stop-opacity:0.58823532;"
         offset="0.1"
         id="stop3872-2-4" />
      <stop
         id="stop3844-6-2-7-6"
         offset="0.89999998"
         style="stop-color:#000000;stop-opacity:0.58823532;" />
      <stop
         id="stop3836-5-0-2-9"
         offset="1"
         style="stop-color:#000000;stop-opacity:1;" />
    </linearGradient>
    <linearGradient
       id="linearGradient4091-0-3-0-7">
      <stop
         id="stop4093-3-6-4-2"
         offset="0"
         style="stop-color:#ffffff;stop-opacity:1;" />
      <stop
         style="stop-color:#ffffff;stop-opacity:1;"
         offset="0.80000001"
         id="stop4099-6-1-8-3" />
      <stop
         id="stop4095-1-0-7-9"
         offset="1"
         style="stop-color:#ffffff;stop-opacity:0;" />
    </linearGradient>
    <linearGradient
       id="linearGradient6139-0">
      <stop
         style="stop-color:#b7b7b7;stop-opacity:1;"
         offset="0"
         id="stop6141-2" />
      <stop
         id="stop6151-0"
         offset="0.25"
         style="stop-color:#ffffff;stop-opacity:1;" />
      <stop
         id="stop6147-1"
         offset="0.5"
         style="stop-color:#9d9d9d;stop-opacity:1;" />
      <stop
         style="stop-color:#fafafa;stop-opacity:1;"
         offset="0.75"
         id="stop6149-4" />
      <stop
         style="stop-color:#b7b7b7;stop-opacity:1;"
         offset="1"
         id="stop6143-4" />
    </linearGradient>
    <linearGradient
       x1="56"
       y1="80"
       x2="42.906765"
       y2="44.431438"
       id="linearGradient3746-8"
       xlink:href="#linearGradient3740-8"
       gradientUnits="userSpaceOnUse"
       gradientTransform="matrix(1.0255003,0,0,1.0239543,-34.763124,-42.655251)" />
    <linearGradient
       id="linearGradient3740-8">
      <stop
         id="stop3742-4"
         style="stop-color:#9ee1f9;stop-opacity:1"
         offset="0" />
      <stop
         id="stop3744-1"
         style="stop-color:#00aff0;stop-opacity:1"
         offset="1" />
    </linearGradient>
    <linearGradient
       x1="32"
       y1="24"
       x2="64"
       y2="64"
       id="linearGradient3738-9"
       xlink:href="#linearGradient3737-0"
       gradientUnits="userSpaceOnUse"
       gradientTransform="matrix(0.90322585,0,0,0.90322601,40.425414,59.580706)" />
    <linearGradient
       id="linearGradient3737-0">
      <stop
         id="stop3739-7"
         style="stop-color:#ffffff;stop-opacity:1"
         offset="0" />
      <stop
         id="stop3741-3"
         style="stop-color:#ffffff;stop-opacity:0"
         offset="1" />
    </linearGradient>
    <linearGradient
       x1="16"
       y1="16"
       x2="48"
       y2="48"
       id="linearGradient3781-9"
       xlink:href="#linearGradient3737-0"
       gradientUnits="userSpaceOnUse"
       gradientTransform="matrix(0.90322585,0,0,0.90322601,52.750416,40.768858)" />
    <linearGradient
       id="linearGradient3495">
      <stop
         id="stop3497"
         style="stop-color:#ffffff;stop-opacity:1"
         offset="0" />
      <stop
         id="stop3499"
         style="stop-color:#ffffff;stop-opacity:0"
         offset="1" />
    </linearGradient>
    <linearGradient
       x1="80"
       y1="80"
       x2="48"
       y2="48"
       id="linearGradient3773-0"
       xlink:href="#linearGradient3737-0"
       gradientUnits="userSpaceOnUse"
       gradientTransform="matrix(1.0255003,0,0,1.0239543,19.737891,83.831793)" />
    <linearGradient
       id="linearGradient3502">
      <stop
         id="stop3504"
         style="stop-color:#ffffff;stop-opacity:1"
         offset="0" />
      <stop
         id="stop3506"
         style="stop-color:#ffffff;stop-opacity:0"
         offset="1" />
    </linearGradient>
    <linearGradient
       inkscape:collect="always"
       xlink:href="#linearGradient6139-0-3"
       id="linearGradient4071"
       gradientUnits="userSpaceOnUse"
       gradientTransform="matrix(1.1353753,0,0,1.1336634,-40.037126,-46.787598)"
       x1="6"
       y1="47.000011"
       x2="90"
       y2="47.000011" />
    <linearGradient
       id="linearGradient6139-0-3">
      <stop
         id="stop6141-2-6"
         offset="0"
         style="stop-color:#b2babc;stop-opacity:1" />
      <stop
         style="stop-color:#ffffff;stop-opacity:1;"
         offset="0.25"
         id="stop6151-0-7" />
      <stop
         style="stop-color:#96a1a4;stop-opacity:1"
         offset="0.5"
         id="stop6147-1-5" />
      <stop
         id="stop6149-4-3"
         offset="0.75"
         style="stop-color:#fbf9f9;stop-opacity:1;" />
      <stop
         id="stop6143-4-5"
         offset="1"
         style="stop-color:#b2b9bc;stop-opacity:1" />
    </linearGradient>
    <linearGradient
       gradientTransform="matrix(1.0255003,0,0,1.0239543,-34.763125,-42.655212)"
       inkscape:collect="always"
       xlink:href="#linearGradient3832-0-6-1-1"
       id="linearGradient4129"
       x1="1.5"
       y1="88.171875"
       x2="94.5"
       y2="88.171875"
       gradientUnits="userSpaceOnUse" />
    <radialGradient
       inkscape:collect="always"
       xlink:href="#linearGradient3737"
       id="radialGradient7462"
       gradientUnits="userSpaceOnUse"
       gradientTransform="matrix(0.99999998,0,0,0.05036905,-2.7362053e-6,39.431821)"
       cx="13.948145"
       cy="44.892841"
       fx="13.948145"
       fy="44.892841"
       r="43.199203" />
    <radialGradient
       inkscape:collect="always"
       xlink:href="#linearGradient3737"
       id="radialGradient7464"
       gradientUnits="userSpaceOnUse"
       gradientTransform="matrix(0.90960587,0,0,0.0504451,-10.355094,-57.7045)"
       cx="13.948145"
       cy="44.892841"
       fx="13.948145"
       fy="44.892841"
       r="43.199203" />
    <linearGradient
       inkscape:collect="always"
       xlink:href="#linearGradient3737"
       id="linearGradient4767"
       gradientUnits="userSpaceOnUse"
       x1="2.7713892"
       y1="-28.64156"
       x2="50.527882"
       y2="14.514202" />
    <clipPath
       id="clipPath4156-4-1"
       clipPathUnits="userSpaceOnUse">
      <path
         inkscape:connector-curvature="0"
         id="path4158-0-8"
         d="m 27.046336,-55.695463 -14.21366,13.321486 h 0.06127 l 15.653407,21.770763 10.231384,-10.546177 C 38.561832,-32.30156 27.468089,-54.819245 27.046336,-55.695463 Z M 9.6468554,-39.382809 -5.2407289,-25.32124 15.987863,-7.8059573 26.372412,-18.382966 Z m 31.4906096,12.951445 -9.741259,9.713584 8.944804,12.4580526 7.780753,-7.5550056 z m -49.8397109,4.378822 -13.7541661,12.9822847 26.2830181,13.84571 0.06127,-0.0617 -0.122531,-0.0617 L 13.598503,-5.4007374 -8.7022409,-22.052595 Z m 38.0154159,7.400825 -9.802525,9.7752596 11.579232,9.5594001 7.62759,-7.40083 -8.669108,-11.0087257 z m 20.187073,5.6739697 -7.382526,7.2158 6.187844,8.54179 5.820249,-6.13651996 z m -32.195166,6.32154 -9.5574606,9.49772 13.6622686,7.1849703 7.933918,-7.6783603 z m 23.311629,2.37443004 -7.10683,6.93826996 8.362778,6.9074403 5.360756,-5.6739699 -0.06127,-0.0925 -0.0919,0.12335 -6.463539,-8.20258036 z m -8.730374,8.54178036 -7.505057,7.3391599 10.353916,5.45811 c 1.397496,-1.32103 5.67514,-6.12292 5.850882,-6.32154 z"
         style="opacity:0.6;fill:#ffffff;fill-opacity:1;stroke:none" />
    </clipPath>
    <clipPath
       clipPathUnits="userSpaceOnUse"
       id="clipPath4355-7">
      <rect
         style="fill:#ffffff;fill-opacity:1;fill-rule:nonzero;stroke:none"
         id="rect4357-5"
         width="84"
         height="80"
         x="6"
         y="6"
         rx="6"
         ry="6" />
    </clipPath>
    <clipPath
       clipPathUnits="userSpaceOnUse"
       id="clipPath4355-9">
      <rect
         style="fill:#ffffff;fill-opacity:1;fill-rule:nonzero;stroke:none"
         id="rect4357-1"
         width="84"
         height="80"
         x="6"
         y="6"
         rx="6"
         ry="6" />
    </clipPath>
    <clipPath
       clipPathUnits="userSpaceOnUse"
       id="clipPath4355-1">
      <rect
         style="fill:#ffffff;fill-opacity:1;fill-rule:nonzero;stroke:none"
         id="rect4357-9"
         width="84"
         height="80"
         x="6"
         y="6"
         rx="6"
         ry="6" />
    </clipPath>
    <clipPath
       clipPathUnits="userSpaceOnUse"
       id="clipPath3943-52-0">
      <path
         id="path3945-4-1"
         d="m 69.78125,20.84375 -5,3.4375 c 5.586891,5.537137 9,13.327613 9,21.8125 0,8.434478 -3.37723,16.095981 -8.90625,21.625 l 5,3.4375 C 76.078226,64.5762 80,55.843726 80,46.09375 c 2e-6,-9.796556 -3.962955,-18.660417 -10.21875,-25.25 z M 40,24.0625 28.90625,36.21875 H 21.5 c -0.823281,0 -1.5,0.676717 -1.5,1.5 v 1 14.84375 1 c 0,0.823281 0.684121,1.610161 1.5,1.5 h 7.40625 L 40,68 V 66 26.0625 Z m 20.59375,3.28125 -5,3.4375 L 55.5,30.875 c 3.93815,3.890071 6.40625,9.25018 6.40625,15.21875 0,5.920869 -2.42961,11.148358 -6.3125,15.03125 l 0.09375,0.09375 5.09375,3.4375 c 4.475428,-4.908367 7.25,-11.402005 7.25,-18.5625 0,-7.230696 -2.87904,-13.83107 -7.4375,-18.75 z m -9.25,6.5 -5.21875,3.625 c 2.222384,2.217802 3.71875,5.239596 3.71875,8.625 0,3.336509 -1.458847,6.227712 -3.625,8.4375 l 5.21875,3.625 c 2.822412,-3.236947 4.53125,-7.43414 4.53125,-12.0625 0,-4.672601 -1.754155,-9.001351 -4.625,-12.25 z"
         style="color:#000000;display:inline;overflow:visible;visibility:visible;opacity:0.8;fill:#ff00ff;fill-opacity:1;fill-rule:nonzero;stroke:none;stroke-width:1;marker:none;enable-background:accumulate"
         inkscape:connector-curvature="0" />
    </clipPath>
    <radialGradient
       inkscape:collect="always"
       xlink:href="#linearGradient3521"
       id="radialGradient1152"
       cx="14.599354"
       cy="3.0835135"
       fx="14.599354"
       fy="3.0835135"
       r="43.089325"
       gradientTransform="matrix(1,0,0,0.93028835,0,1.1018665)"
       gradientUnits="userSpaceOnUse" />
    <linearGradient
       inkscape:collect="always"
       xlink:href="#linearGradient3740-8"
       id="linearGradient1174"
       gradientUnits="userSpaceOnUse"
       gradientTransform="matrix(1.0255003,0,0,1.0239543,-34.763124,-42.655251)"
       x1="56"
       y1="80"
       x2="42.906765"
       y2="44.431438" />
  </defs>
  <metadata
     id="metadata2413">
    <rdf:RDF>
      <cc:Work
         rdf:about="">
        <dc:format>image/svg+xml</dc:format>
        <dc:type
           rdf:resource="http://purl.org/dc/dcmitype/StillImage" />
        <dc:title />
      </cc:Work>
    </rdf:RDF>
  </metadata>
  <g
     id="layer2"
     style="display:none">
    <rect
       width="86"
       height="85"
       rx="6"
       ry="6"
       x="5"
       y="7"
       id="rect3745"
       style="opacity:0.9;fill:url(#ButtonShadow);fill-opacity:1;fill-rule:nonzero;stroke:none;filter:url(#filter3174)" />
  </g>
  <g
     id="layer4" />
  <g
     transform="translate(-4.4706248e-7,32)"
     inkscape:label="Layer 1"
     id="layer1">
    <g
       id="g12958"
       transform="matrix(0.97513378,0,0,0.97660611,33.898696,9.6573789)">
      <path
         style="display:inline;opacity:0.15;fill:#000000;fill-opacity:1;fill-rule:nonzero;stroke:none;stroke-width:1.02472699"
         d="m 56.652901,-42.655212 h -84.384029 c -3.89572,0 -7.031995,3.131544 -7.031995,7.021398 V 48.623 c 0,3.889856 3.136275,7.0214 7.031995,7.0214 h 84.384029 c 3.895729,0 7.032006,-3.131544 7.032006,-7.0214 v -84.256814 c 0,-3.889854 -3.136277,-7.021398 -7.032006,-7.021398 z"
         id="path3288"
         inkscape:connector-curvature="0" />
      <path
         inkscape:connector-curvature="0"
         id="path4085"
         d="m 55.993652,-41.887247 h -83.065531 c -3.834851,0 -6.92212,3.082614 -6.92212,6.911689 v 82.940301 c 0,3.829078 3.087269,6.911692 6.92212,6.911692 h 83.065531 c 3.834861,0 6.92213,-3.082614 6.92213,-6.911692 v -82.940301 c 0,-3.829075 -3.087269,-6.911689 -6.92213,-6.911689 z"
         style="display:inline;opacity:0.15;fill:#000000;fill-opacity:1;fill-rule:nonzero;stroke:none;stroke-width:1.02472699" />
      <path
         style="display:inline;fill:url(#linearGradient4071);fill-opacity:1;fill-rule:nonzero;stroke:none;stroke-width:1.02472699"
         d="m 55.334398,-41.119281 h -81.74702 c -3.773988,0 -6.812252,3.033683 -6.812252,6.80198 v 81.62379 c 0,3.768297 3.038264,6.801981 6.812252,6.801981 h 81.74702 c 3.773988,0 6.812249,-3.033684 6.812249,-6.801981 v -81.62379 c 0,-3.768297 -3.038261,-6.80198 -6.812249,-6.80198 z"
         id="rect4251-1"
         inkscape:connector-curvature="0" />
      <path
         style="display:inline;opacity:1;fill:url(#radialGradient1152);fill-opacity:1;fill-rule:nonzero;stroke:none;stroke-width:1.06682706"
         d="m -23.235175,-36.115071 c -2.929338,0 -5.254795,2.396212 -5.254795,5.414673 V -8.2633513 -0.68281065 41.11169 c 1.125219,1.76386 3.044555,2.944227 5.254795,2.944227 h 4.203836 67.261384 4.203836 c 2.210241,0 4.129576,-1.180367 5.254796,-2.944227 V -0.68281065 -8.2633513 -30.700398 c 0,-3.018461 -2.325458,-5.414673 -5.254796,-5.414673 z"
         id="path3400-6"
         inkscape:connector-curvature="0"
         sodipodi:nodetypes="sscccsccscccsss" />
      <g
         id="g1105"
         transform="translate(0.22660601,-3.0570131)">
        <path
           d="m -0.50500266,-26.271981 c -9.84480534,0 -17.85012034,7.99324 -17.85012034,17.8232 0,3.03619 0.739322,5.88132 2.08305,8.38362996 -0.448609,2.10860004 -0.640942,4.31823004 -0.640942,6.55970004 0,17.30074 14.0470554,31.3266 31.373903,31.3266 2.24487,0 4.45784,-0.19203 6.56961,-0.63997 2.51467,1.35373 5.34092,2.07991 8.39629,2.07991 9.8448,0 17.85012,-7.99324 17.85012,-17.8232 0,-3.05077 -0.72726,-5.87276 -2.08305,-8.38363 0.44861,-2.1086 0.64094,-4.31823 0.64094,-6.55971 0,-17.30073 -14.04706,-31.3266 -31.37391,-31.3266 -2.24538,0 -4.45736,0.25583 -6.5696106,0.70397 -2.5063,-1.342 -5.355144,-2.1439 -8.39628006,-2.1439 z"
           inkscape:connector-curvature="0"
           id="path3818"
           style="display:inline;fill:url(#linearGradient1174);fill-opacity:1;fill-rule:nonzero;stroke:none;stroke-width:1.02472699" />
        <g
           id="g1014">
          <path
             inkscape:connector-curvature="0"
             id="path1010"
             d="m -0.48166231,-27.816465 c -11.72523269,-0.46215 -22.25202369,12.09873 -18.73956369,23.5483903 1.773061,4.55225004 0.685671,9.28676 0.889761,13.95439 1.39253,14.9371797 14.0593207,28.2071797 29.15871,29.4586497 4.37652,1.09355 8.973955,-1.50955 12.951877,0.84463 10.24976,3.29665 22.722617,-3.60184 24.60176,-14.39138 0.931051,-4.26765 0.422243,-8.87531 -1.608637,-12.76037 3.774949,-16.7238197 -8.171401,-35.17468 -25.050105,-38.4127 -4.455379,-1.00268 -9.130057,-1.08083 -13.6002863,-0.12244 -2.658735,-1.33863 -5.618329,-2.1258 -8.60351601,-2.11917 z m 0,3.07422 c 4.39570201,-0.10485 8.59342801,3.18775 12.98770731,1.46114 14.900541,-1.2178 29.821105,10.42861 31.495934,25.4408603 0.540349,3.69 0.408351,7.47927 -0.405515,11.1194697 5.714762,8.91697 -0.367502,22.5985 -10.918112,24.11377 -3.851356,0.76544 -7.996604,0.16054 -11.392434,-1.84033 -15.2828903,3.89218 -32.737103,-6.61129 -35.838353,-22.21688 -1.04496,-4.4643897 -1.08171,-9.1656197 -0.0757,-13.64053966 -5.459301,-8.60180004 -0.126,-21.71615034 9.8889297,-23.87657034 1.386106,-0.37364 2.821744,-0.56544 4.25755299,-0.56092 z"
             style="color:#000000;font-style:normal;font-variant:normal;font-weight:normal;font-stretch:normal;font-size:medium;line-height:normal;font-family:sans-serif;font-variant-ligatures:normal;font-variant-position:normal;font-variant-caps:normal;font-variant-numeric:normal;font-variant-alternates:normal;font-feature-settings:normal;text-indent:0;text-align:start;text-decoration:none;text-decoration-line:none;text-decoration-style:solid;text-decoration-color:#000000;letter-spacing:normal;word-spacing:normal;text-transform:none;writing-mode:lr-tb;direction:ltr;text-orientation:mixed;dominant-baseline:auto;baseline-shift:baseline;text-anchor:start;white-space:normal;shape-padding:0;clip-rule:nonzero;display:inline;overflow:visible;visibility:visible;opacity:1;isolation:auto;mix-blend-mode:normal;color-interpolation:sRGB;color-interpolation-filters:linearRGB;solid-color:#000000;solid-opacity:1;vector-effect:none;fill:#020303;fill-opacity:0.20982145;fill-rule:evenodd;stroke:none;stroke-width:3.07418108;stroke-linecap:butt;stroke-linejoin:miter;stroke-miterlimit:4;stroke-dasharray:none;stroke-dashoffset:0;stroke-opacity:1;color-rendering:auto;image-rendering:auto;shape-rendering:auto;text-rendering:auto;enable-background:accumulate"
             sodipodi:nodetypes="ccccccccccccccccccccc" />
          <path
             style="color:#000000;font-style:normal;font-variant:normal;font-weight:normal;font-stretch:normal;font-size:medium;line-height:normal;font-family:sans-serif;font-variant-ligatures:normal;font-variant-position:normal;font-variant-caps:normal;font-variant-numeric:normal;font-variant-alternates:normal;font-feature-settings:normal;text-indent:0;text-align:start;text-decoration:none;text-decoration-line:none;text-decoration-style:solid;text-decoration-color:#000000;letter-spacing:normal;word-spacing:normal;text-transform:none;writing-mode:lr-tb;direction:ltr;text-orientation:mixed;dominant-baseline:auto;baseline-shift:baseline;text-anchor:start;white-space:normal;shape-padding:0;clip-rule:nonzero;display:inline;overflow:visible;visibility:visible;opacity:1;isolation:auto;mix-blend-mode:normal;color-interpolation:sRGB;color-interpolation-filters:linearRGB;solid-color:#000000;solid-opacity:1;vector-effect:none;fill:#020303;fill-opacity:0.20982145;fill-rule:evenodd;stroke:none;stroke-width:3.07418108;stroke-linecap:butt;stroke-linejoin:miter;stroke-miterlimit:4;stroke-dasharray:none;stroke-dashoffset:0;stroke-opacity:1;color-rendering:auto;image-rendering:auto;shape-rendering:auto;text-rendering:auto;enable-background:accumulate"
             d="m 13.89586,-15.340904 c -6.8143091,-0.37312 -14.9143461,2.70291 -17.0386671,9.7772502 -1.986581,5.60688004 1.401278,12.30921 7.015765,14.18653 4.821211,2.3183998 10.3177841,2.3040098 15.3291531,4.0153698 3.692471,2.94733 -1.537417,7.45977 -4.94312,6.45804 -4.6809201,-0.30841 -7.1623481,-4.79265 -10.9905241,-6.77853 -4.09703697,-1.45179 -8.611627,3.78995 -6.038868,7.50732 3.11869503,5.87955 10.236342,8.06071 16.4596051,8.501 5.85932,0.26584 12.52743,-0.96673 16.49691,-5.6412 4.17589,-5.3812 2.964323,-14.3304098 -3.242882,-17.6629698 -5.20198,-3.53495 -11.879069,-3.4698 -17.3781261,-6.1881 -3.119521,-3.77166 3.9654091,-6.65287 6.8703731,-4.62723 3.463653,1.49734 5.474295,6.02193004 9.715802,5.62134004 4.765818,-0.23587 5.938023,-6.81069004 2.576698,-9.61474004 -3.62414,-4.2106202 -9.522069,-5.4489302 -14.832119,-5.5540802 z m 0,3.07422 c 5.036574,-0.0231 10.915187,1.39518 13.523651,6.1464602 -0.776065,5.20111004 -6.64699,0.55819 -8.396667,-1.68698 -4.233429,-2.3272202 -10.7755051,-1.76041 -13.4138961,2.68318 -1.633613,3.4591 1.441335,7.08113 4.7825621,7.82763 5.819727,1.78416 12.570151,2.24823 17.07413,6.791 4.7098,4.7002998 1.233767,13.8308498 -5.22117,14.6936598 -7.432298,2.37542 -16.4761391,1.09982 -21.96923807,-4.76987 -2.68087503,-4.00522 4.92304097,-5.43697 5.37947397,-1.23556 4.4981321,4.54925 13.2255611,5.35943 17.4281211,0.0174 C 25.585408,14.400606 22.18915,9.4101062 17.987793,9.0399062 12.127868,7.4758362 5.0153679,7.6410462 0.79457793,2.5942362 -2.8375851,-2.4896038 1.0370949,-10.105844 6.8841399,-11.313494 c 2.26277,-0.70849 4.6463441,-0.9778 7.0117201,-0.95319 z"
             id="path982"
             inkscape:connector-curvature="0"
             sodipodi:nodetypes="ccccccccccccccccccccccccccccc" />
        </g>
        <path
           d="m 13.866137,-13.810996 c -10.0651705,0 -16.0127765,4.52249 -16.0127765,12.2884 0,8.44786 11.028274,10.62964 17.8428085,11.55749 6.378505,1.70654 6.588106,2.69977 6.588106,5.48181 0,3.46734 -4.385171,4.79659 -7.365872,4.79659 -8.9995075,0 -8.3350285,-6.5325 -13.1304685,-6.5325 -2.47054201,0 -3.660063,0.82228 -3.660063,3.92864 0,3.10636 6.405106,9.09067 16.4702765,9.09067 10.06517,0 16.470276,-3.88295 16.470276,-11.64885 0,-7.99483 -6.624858,-10.35921 -15.372255,-12.69954 -5.8184465,-1.41045 -9.0586605,-2.42567004 -9.0586605,-5.20772 0,-3.46734 3.6989175,-4.79659 6.6796185,-4.79659 8.999507,0 7.00824,5.75591 11.803691,5.75591 2.470542,0 3.980319,-0.5025 3.980319,-3.60886 0,-3.10637 -5.169829,-8.40545 -15.235,-8.40545 z"
           inkscape:connector-curvature="0"
           id="path3757"
           style="display:inline;fill:#ffffff;fill-opacity:1;fill-rule:evenodd;stroke:none;stroke-width:1.02472699" />
      </g>
      <path
         inkscape:connector-curvature="0"
         id="path4989"
         d="m -24.687502,-37.812461 c -3.196096,0 -5.8125,2.600343 -5.8125,5.781251 v 70.937502 c 0,3.180908 2.616404,5.78125 5.8125,5.78125 h 78.749998 c 3.196096,0 5.812503,-2.600342 5.812503,-5.78125 V -32.03121 c 0,-3.180907 -2.616407,-5.781251 -5.812503,-5.781251 z m 0,2.375 h 78.749998 c 1.936247,0 3.4375,1.51555 3.4375,3.406251 v 70.937502 c 0,1.890705 -1.501253,3.406249 -3.4375,3.406249 h -78.749998 c -1.936246,0 -3.4375,-1.515544 -3.4375,-3.406249 V -32.03121 c 0,-1.890701 1.501254,-3.406251 3.4375,-3.406251 z"
         style="color:#000000;font-style:normal;font-variant:normal;font-weight:normal;font-stretch:normal;font-size:medium;line-height:normal;font-family:Sans;-inkscape-font-specification:Sans;text-indent:0;text-align:start;text-decoration:none;text-decoration-line:none;letter-spacing:normal;word-spacing:normal;text-transform:none;writing-mode:lr-tb;direction:ltr;baseline-shift:baseline;text-anchor:start;display:inline;overflow:visible;visibility:visible;fill:#202223;fill-opacity:0.93689324;stroke:none;stroke-width:2.43423915;marker:none;enable-background:accumulate" />
      <path
         inkscape:connector-curvature="0"
         style="display:inline;opacity:0.65818182;fill:url(#linearGradient4129);fill-opacity:1;fill-rule:nonzero;stroke:none;stroke-width:1.02472699"
         d="m -33.224875,41.149047 v 6.143726 c 0,3.768297 3.051999,6.815696 6.825986,6.815696 h 81.719555 c 3.773988,0 6.825991,-3.047399 6.825991,-6.815696 v -6.143726 c 0,3.768298 -3.052003,6.815696 -6.825991,6.815696 h -81.719555 c -3.773987,0 -6.825986,-3.047398 -6.825986,-6.815696 z"
         id="path4118" />
      <rect
         style="opacity:0.55;fill:url(#radialGradient7462);fill-opacity:1;stroke:none;stroke-width:1.02472699"
         id="rect4131"
         width="86.398407"
         height="4.3518057"
         x="-29.25106"
         y="39.517124"
         rx="0"
         ry="4.3518057" />
      <rect
         ry="4.3583765"
         rx="0"
         y="-57.61908"
         x="-36.962029"
         height="4.3583765"
         width="78.588493"
         id="rect4141"
         style="opacity:0.669;fill:url(#radialGradient7464);fill-opacity:1;stroke:none;stroke-width:1.02472699"
         transform="rotate(90)" />
      <rect
         transform="matrix(1.0965112,0,0,1.0727794,-30.358369,-3.2544881)"
         style="opacity:0.65;fill:url(#linearGradient4767);fill-opacity:1;stroke:none"
         id="rect4146"
         width="75.965775"
         height="69.024437"
         x="2"
         y="-30"
         rx="3.9569874"
         ry="3.9569881"
         clip-path="url(#clipPath4156-4-1)" />
    </g>
  </g>
</svg>
