<?xml version="1.0" encoding="UTF-8" standalone="no"?>
<!-- Created with Inkscape (http://www.inkscape.org/) -->

<svg
   xmlns:dc="http://purl.org/dc/elements/1.1/"
   xmlns:cc="http://creativecommons.org/ns#"
   xmlns:rdf="http://www.w3.org/1999/02/22-rdf-syntax-ns#"
   xmlns:svg="http://www.w3.org/2000/svg"
   xmlns="http://www.w3.org/2000/svg"
   xmlns:xlink="http://www.w3.org/1999/xlink"
   xmlns:sodipodi="http://sodipodi.sourceforge.net/DTD/sodipodi-0.dtd"
   xmlns:inkscape="http://www.inkscape.org/namespaces/inkscape"
   width="96"
   height="96"
   viewBox="0 0 96.000001 96.000004"
   version="1.1"
   id="svg1072"
   inkscape:version="0.92.2 5c3e80d, 2017-08-06"
   sodipodi:docname="braindump.svg">
  <defs
     id="defs1066">
    <linearGradient
       y2="14.514202"
       x2="50.527882"
       y1="-28.64156"
       x1="2.7713892"
       gradientUnits="userSpaceOnUse"
       id="linearGradient3837"
       xlink:href="#linearGradient4213-7"
       inkscape:collect="always" />
    <linearGradient
       inkscape:collect="always"
       id="linearGradient4213-7">
      <stop
         style="stop-color:#ffffff;stop-opacity:1;"
         offset="0"
         id="stop4215-6" />
      <stop
         style="stop-color:#ffffff;stop-opacity:0;"
         offset="1"
         id="stop4217-5" />
    </linearGradient>
    <clipPath
       clipPathUnits="userSpaceOnUse"
       id="clipPath4156-4">
      <path
         style="opacity:0.6;fill:#ffffff;fill-opacity:1;stroke:none"
         d="m 27.046336,-55.695463 -14.21366,13.321486 h 0.06127 l 15.653407,21.770763 10.231384,-10.546177 C 38.561832,-32.30156 27.468089,-54.819245 27.046336,-55.695463 Z M 9.6468554,-39.382809 -5.2407289,-25.32124 15.987863,-7.8059573 26.372412,-18.382966 Z m 31.4906096,12.951445 -9.741259,9.713584 8.944804,12.4580526 7.780753,-7.5550056 z m -49.8397109,4.378822 -13.7541661,12.9822847 26.2830181,13.84571 0.06127,-0.0617 -0.122531,-0.0617 L 13.598503,-5.4007374 -8.7022409,-22.052595 Z m 38.0154159,7.400825 -9.802525,9.7752596 11.579232,9.5594001 7.62759,-7.40083 -8.669108,-11.0087257 z m 20.187073,5.6739697 -7.382526,7.2158 6.187844,8.54179 5.820249,-6.13651996 z m -32.195166,6.32154 -9.5574606,9.49772 13.6622686,7.1849703 7.933918,-7.6783603 z m 23.311629,2.37443004 -7.10683,6.93826996 8.362778,6.9074403 5.360756,-5.6739699 -0.06127,-0.0925 -0.0919,0.12335 -6.463539,-8.20258036 z m -8.730374,8.54178036 -7.505057,7.3391599 10.353916,5.45811 c 1.397496,-1.32103 5.67514,-6.12292 5.850882,-6.32154 z"
         id="path4158-0"
         inkscape:connector-curvature="0" />
    </clipPath>
    <radialGradient
       r="43.199203"
       fy="44.892841"
       fx="13.948145"
       cy="44.892841"
       cx="13.948145"
       gradientTransform="matrix(0.88832663,0,0,0.04919072,1040.785,-63.11886)"
       gradientUnits="userSpaceOnUse"
       id="radialGradient3833"
       xlink:href="#linearGradient4213-7"
       inkscape:collect="always" />
    <radialGradient
       r="43.199203"
       fy="44.892841"
       fx="13.948145"
       cy="44.892841"
       cx="13.948145"
       gradientTransform="matrix(0.97513378,0,0,0.04919072,6.3092496,1090.2172)"
       gradientUnits="userSpaceOnUse"
       id="radialGradient3831"
       xlink:href="#linearGradient4213-7"
       inkscape:collect="always" />
    <linearGradient
       y2="88.171875"
       x2="94.5"
       y1="88.171875"
       x1="1.5"
       gradientTransform="translate(-27.589446,1010.0505)"
       gradientUnits="userSpaceOnUse"
       id="linearGradient3829"
       xlink:href="#linearGradient3832-0-6-1-1"
       inkscape:collect="always" />
    <linearGradient
       id="linearGradient3832-0-6-1-1">
      <stop
         style="stop-color:#000000;stop-opacity:1;"
         offset="0"
         id="stop3834-6-3-7-1" />
      <stop
         id="stop3872-2-4"
         offset="0.1"
         style="stop-color:#000000;stop-opacity:0.58823532;" />
      <stop
         style="stop-color:#000000;stop-opacity:0.58823532;"
         offset="0.89999998"
         id="stop3844-6-2-7-6" />
      <stop
         style="stop-color:#000000;stop-opacity:1;"
         offset="1"
         id="stop3836-5-0-2-9" />
    </linearGradient>
    <radialGradient
       r="42"
       fy="-27"
       fx="48"
       cy="-27"
       cx="48"
       gradientTransform="matrix(-1.1870482,0,0,-0.96877218,77.388887,985.39369)"
       gradientUnits="userSpaceOnUse"
       id="radialGradient3827"
       xlink:href="#linearGradient4091-0-3-0-7"
       inkscape:collect="always" />
    <linearGradient
       id="linearGradient4091-0-3-0-7">
      <stop
         style="stop-color:#ffffff;stop-opacity:1;"
         offset="0"
         id="stop4093-3-6-4-2" />
      <stop
         id="stop4099-6-1-8-3"
         offset="0.80000001"
         style="stop-color:#ffffff;stop-opacity:1;" />
      <stop
         style="stop-color:#ffffff;stop-opacity:0;"
         offset="1"
         id="stop4095-1-0-7-9" />
    </linearGradient>
    <linearGradient
       y2="47.000011"
       x2="90"
       y1="47.000011"
       x1="6"
       gradientTransform="matrix(1.1071428,0,0,1.1071426,-32.732302,1006.0148)"
       gradientUnits="userSpaceOnUse"
       id="linearGradient3825"
       xlink:href="#linearGradient6139-0"
       inkscape:collect="always" />
    <linearGradient
       id="linearGradient6139-0">
      <stop
         id="stop6141-2"
         offset="0"
         style="stop-color:#adb4c1;stop-opacity:1;" />
      <stop
         style="stop-color:#ffffff;stop-opacity:1;"
         offset="0.25"
         id="stop6151-0" />
      <stop
         style="stop-color:#9095aa;stop-opacity:1;"
         offset="0.5"
         id="stop6147-1" />
      <stop
         id="stop6149-4"
         offset="0.75"
         style="stop-color:#fbf9f9;stop-opacity:1;" />
      <stop
         id="stop6143-4"
         offset="1"
         style="stop-color:#adb3c1;stop-opacity:1;" />
    </linearGradient>
    <linearGradient
       x1="48"
       y1="20.220806"
       x2="48"
       y2="138.66119"
       id="linearGradient3613"
       xlink:href="#linearGradient4213-7"
       gradientUnits="userSpaceOnUse" />
    <clipPath
       id="clipPath3613">
      <rect
         width="84"
         height="84"
         rx="6"
         ry="6"
         x="6"
         y="6"
         id="rect3615"
         style="fill:#ffffff;fill-opacity:1;fill-rule:nonzero;stroke:none" />
    </clipPath>
    <filter
       style="color-interpolation-filters:sRGB"
       x="-0.19410552"
       y="-0.19410552"
       width="1.388211"
       height="1.388211"
       id="filter4055">
      <feGaussianBlur
         id="feGaussianBlur4057"
         stdDeviation="5.3379019" />
    </filter>
  </defs>
  <sodipodi:namedview
     id="base"
     pagecolor="#ffffff"
     bordercolor="#666666"
     borderopacity="1.0"
     inkscape:pageopacity="0.0"
     inkscape:pageshadow="2"
     inkscape:zoom="3.8215157"
     inkscape:cx="12.006758"
     inkscape:cy="52.18682"
     inkscape:document-units="px"
     inkscape:current-layer="g1990"
     showgrid="false"
     inkscape:showpageshadow="false"
     units="px"
     inkscape:lockguides="true"
     inkscape:window-width="1280"
     inkscape:window-height="941"
     inkscape:window-x="0"
     inkscape:window-y="21"
     inkscape:window-maximized="1">
    <sodipodi:guide
       position="0,0"
       orientation="0,96"
       id="guide1621"
       inkscape:locked="true" />
    <sodipodi:guide
       position="96.000002,0"
       orientation="-96,0"
       id="guide1623"
       inkscape:locked="true" />
    <sodipodi:guide
       position="96.000002,96.000002"
       orientation="0,-96"
       id="guide1625"
       inkscape:locked="true" />
    <sodipodi:guide
       position="0,96.000002"
       orientation="96,0"
       id="guide1627"
       inkscape:locked="true" />
  </sodipodi:namedview>
  <metadata
     id="metadata1069">
    <rdf:RDF>
      <cc:Work
         rdf:about="">
        <dc:format>image/svg+xml</dc:format>
        <dc:type
           rdf:resource="http://purl.org/dc/dcmitype/StillImage" />
        <dc:title />
        <dc:date>2017</dc:date>
        <dc:creator>
          <cc:Agent>
            <dc:title>Cristian Pozzessere &quot;ilnanny&quot;</dc:title>
          </cc:Agent>
        </dc:creator>
        <dc:subject>
          <rdf:Bag>
            <rdf:li>Global language</rdf:li>
          </rdf:Bag>
        </dc:subject>
        <dc:description>Playing with Inkscape on Gnu/Linux O. S.</dc:description>
        <dc:contributor>
          <cc:Agent>
            <dc:title>In the night, alone like a dog.</dc:title>
          </cc:Agent>
        </dc:contributor>
        <cc:license
           rdf:resource="http://creativecommons.org/licenses/by-sa/4.0/" />
      </cc:Work>
      <cc:License
         rdf:about="http://creativecommons.org/licenses/by-sa/4.0/">
        <cc:permits
           rdf:resource="http://creativecommons.org/ns#Reproduction" />
        <cc:permits
           rdf:resource="http://creativecommons.org/ns#Distribution" />
        <cc:requires
           rdf:resource="http://creativecommons.org/ns#Notice" />
        <cc:requires
           rdf:resource="http://creativecommons.org/ns#Attribution" />
        <cc:permits
           rdf:resource="http://creativecommons.org/ns#DerivativeWorks" />
        <cc:requires
           rdf:resource="http://creativecommons.org/ns#ShareAlike" />
      </cc:License>
    </rdf:RDF>
  </metadata>
  <g
     inkscape:label="Livello 1"
     inkscape:groupmode="layer"
     id="layer1"
     transform="translate(0,-1026.5197)">
    <g
       id="g1990"
       transform="translate(27.589443,16.4692)">
      <rect
         width="66"
         height="66"
         rx="12"
         ry="12"
         x="15"
         y="15"
         transform="matrix(1,0,0,0.74384496,-27.589443,1013.8928)"
         clip-path="url(#clipPath3613)"
         id="rect3171"
         style="opacity:0.1;fill:url(#linearGradient3613);fill-opacity:1;fill-rule:nonzero;stroke:#ffffff;stroke-width:0.57973403;stroke-linecap:round;stroke-linejoin:miter;stroke-miterlimit:4;stroke-dasharray:none;stroke-dashoffset:0;stroke-opacity:1;filter:url(#filter4055)" />
      <path
         inkscape:connector-curvature="0"
         id="path3288"
         d="m 61.553411,1010.0505 h -82.285719 c -3.798848,0 -6.857135,3.0583 -6.857135,6.8571 v 82.2858 c 0,3.7988 3.058287,6.8571 6.857135,6.8571 h 82.285719 c 3.798857,0 6.857147,-3.0583 6.857147,-6.8571 v -82.2858 c 0,-3.7988 -3.05829,-6.8571 -6.857147,-6.8571 z"
         style="display:inline;opacity:0.15;fill:#000000;fill-opacity:1;fill-rule:nonzero;stroke:none" />
      <path
         style="display:inline;opacity:0.15;fill:#000000;fill-opacity:1;fill-rule:nonzero;stroke:none"
         d="m 60.910555,1010.8005 h -81.000007 c -3.739492,0 -6.749993,3.0105 -6.749993,6.75 v 81 c 0,3.7395 3.010501,6.75 6.749993,6.75 h 81.000007 c 3.739503,0 6.750003,-3.0105 6.750003,-6.75 v -81 c 0,-3.7395 -3.0105,-6.75 -6.750003,-6.75 z"
         id="path4085"
         inkscape:connector-curvature="0" />
      <path
         inkscape:connector-curvature="0"
         id="rect4251-1"
         d="m 60.267694,1011.5505 h -79.714282 c -3.680143,0 -6.642857,2.9627 -6.642857,6.6429 v 79.7142 c 0,3.6802 2.962714,6.6429 6.642857,6.6429 h 79.714282 c 3.680143,0 6.642854,-2.9627 6.642854,-6.6429 v -79.7142 c 0,-3.6802 -2.962711,-6.6429 -6.642854,-6.6429 z"
         style="display:inline;fill:url(#linearGradient3825);fill-opacity:1;fill-rule:nonzero;stroke:none" />
      <rect
         style="fill:#fc2141;fill-opacity:0.82775122;stroke:#ffffff;stroke-width:0.40000001;stroke-linecap:round;stroke-linejoin:round;stroke-miterlimit:4;stroke-dasharray:none;stroke-dashoffset:0;stroke-opacity:1"
         id="rect4301"
         width="84.84639"
         height="77.520287"
         x="-21.796719"
         y="1016.6614"
         ry="4.25" />
      <path
         inkscape:connector-curvature="0"
         style="opacity:0.05;fill:#000000;fill-opacity:1;stroke:none;stroke-width:1.28251338"
         id="path4195"
         d="m 23.546251,1021.0431 c -5.389916,-0.061 -10.650107,1.217 -15.423371,3.3985 -0.0505,0.023 -0.114121,0.015 -0.1645162,0.038 l 0.041134,0.076 c -0.9509977,0.3663 -1.7447883,0.9549 -2.1798362,1.6802 -0.4617412,0.7698 -0.6257415,1.5909 -0.6991923,2.3675 -0.1469016,1.5531 0.036233,3.0927 -0.082257,3.9713 h 0.041134 c -0.437481,2.1004 0.6895265,4.0384 2.4266105,4.8877 0.8908662,0.4356 1.9471702,0.5994 3.0024162,0.3055 1.029507,-0.2867 1.971113,-1.0032 2.591127,-2.0238 0.01551,-0.026 0.026,-0.051 0.04113,-0.076 1.398459,-2.0418 3.36012,-3.6211 5.758058,-3.8184 a 1.4521542,1.3482253 0 0 0 0.123387,0 c 7.66716,-1.1576 16.341619,-0.7536 21.880622,4.2767 3.860953,3.5604 5.400432,8.9869 5.511284,14.1668 2.7e-4,0.012 -2.55e-4,0.026 0,0.038 -0.814424,5.3714 -5.832326,9.322 -10.816924,12.563 -2.642569,1.6766 -4.401335,4.0457 -5.470155,6.6825 -1.418866,-0.8213 -3.243333,-1.0814 -4.89435,-0.1528 -2.703212,0.7693 -5.818393,-0.3869 -7.567734,-2.5202 -0.0094,-0.012 -0.0317,-0.026 -0.04113,-0.038 -0.783189,-1.0355 -1.846251,-2.3599 -3.331447,-3.2458 -0.751541,-0.4483 -1.669597,-0.7868 -2.673384,-0.8019 -0.962034,-0.014 -1.924324,0.3616 -2.796772,0.9928 l -0.04113,-0.038 c -0.0329,0.022 -0.05028,0.054 -0.08226,0.076 -0.9458659,0.655 -1.5020116,1.6377 -1.6040288,2.5585 -0.1054683,0.9518 0.1270638,1.8286 0.452418,2.5966 0.2344471,0.5533 0.4145024,0.6599 0.6991928,1.1074 -0.214566,0.075 -0.4654297,0.081 -0.6580632,0.1909 -0.944993,0.5409 -1.5062591,1.4544 -1.6862886,2.3674 -0.302212,1.5327 0.5371491,3.0886 2.0153199,4.1623 -0.1806175,0.09 -0.304379,0.1061 -0.4935476,0.2291 -0.5646471,0.367 -1.1083298,1.0301 -1.3161276,1.8711 -0.00108,0 -0.040014,0 -0.041134,0 -0.00991,0.027 0.00937,0.05 0,0.076 -0.01481,0.071 -0.073522,0.1176 -0.082257,0.1909 h 0.082257 c -0.5655982,1.8887 0.1040896,3.699 1.274998,4.9259 1.2289451,1.2878 2.8479861,2.1503 4.2362861,2.7494 5.354759,2.286 12.228039,4.1681 18.3024,1.4129 v 0.038 c 0.08828,-0.017 0.121715,-0.092 0.205645,-0.1147 0.05259,-0.025 0.112055,-0.012 0.164516,-0.038 v -0.038 c 1.344565,-0.4298 2.196487,-1.4153 2.673385,-2.2912 0.123018,-0.2259 0.157724,-0.4369 0.246773,-0.6491 0.611963,0.079 1.183625,0.05 1.727418,-0.1527 1.036884,-0.3877 1.686605,-1.2032 2.056449,-2.0239 0.699874,-1.553 0.67236,-3.2998 0.04113,-4.8114 h 0.04113 c -0.710364,-3.1946 1.095167,-6.6873 4.195156,-8.248 a 1.4521542,1.3482253 0 0 0 0.04113,-0.038 c 7.291993,-4.0162 14.228108,-10.5577 14.888694,-19.1309 a 1.4521542,1.3482253 0 0 0 0,-0.076 c 0.19647,-5.2692 -2.203422,-10.0713 -4.318544,-14.3959 -3.569228,-6.8297 -10.131749,-12.6636 -18.508045,-14.2051 -0.0134,0 -0.02772,0 -0.04113,0 -3.206911,-0.6794 -6.454493,-1.0072 -9.706441,-1.0692 a 1.4521542,1.3482253 0 0 0 -0.04113,0 z m -4.770963,26.768 v 0.038 c -2.305354,0.2402 -3.998721,1.6396 -4.89435,3.2839 -0.919149,1.6877 -1.188065,3.6366 -0.945968,5.3842 a 1.4521542,1.3482253 0 0 0 0,0.076 c 0.201917,0.9067 0.238509,2.6082 0.740323,4.2004 0.250907,0.7961 0.659505,1.6137 1.439515,2.253 0.780008,0.6392 1.912746,0.9691 3.125803,0.8783 a 1.4521542,1.3482253 0 0 0 0.329032,-0.076 c 1.150194,-0.3622 2.064224,-1.0843 2.508868,-1.9474 0.444644,-0.8632 0.484071,-1.7695 0.452419,-2.5966 -0.0042,-0.1098 -0.03422,-0.1582 -0.04113,-0.2673 0.159279,0.088 0.23769,0.2784 0.41129,0.3436 0.560139,0.2107 1.163958,0.031 1.768547,-0.038 -0.172032,0.2127 -0.237133,0.3457 -0.411289,0.5728 -0.967272,1.2615 -1.900972,3.0321 -1.23387,5.0405 a 1.4521542,1.3482253 0 0 0 0.164516,0.3437 c 0.752453,1.0788 1.860805,1.8278 3.043545,1.871 1.182739,0.043 2.093838,-0.5129 2.837899,-1.1073 1.455098,-1.1623 2.504337,-2.8097 3.166932,-3.704 0.02344,-0.027 0.059,-0.05 0.08226,-0.076 2.624376,-3.0343 4.082875,-7.6154 1.768547,-11.4174 a 1.4521542,1.3482253 0 0 0 -0.04113,-0.076 c -1.14223,-1.6693 -3.195281,-2.2213 -4.935478,-1.9857 -1.230421,0.1666 -2.333563,0.6934 -3.290319,1.3747 -0.479765,-0.4581 -0.823942,-0.9111 -1.521772,-1.3365 -1.162025,-0.7084 -2.679533,-1.2847 -4.359673,-1.031 -0.05778,0.01 -0.106362,-0.011 -0.164516,0 z" />
      <path
         style="opacity:0.528;fill:#fdfdfd;fill-opacity:1;stroke:none;stroke-width:1.28251338"
         id="path4197"
         inkscape:connector-curvature="0"
         d="m 23.54625,1022.3796 c -5.185839,-0.059 -10.298076,1.1819 -14.929822,3.3221 -2.9491213,0.9999 -1.8345067,4.7117 -2.1482327,7.0375 -0.7719118,3.127 3.4850787,5.548 5.3895567,2.2884 1.552076,-2.3005 3.903882,-4.2469 6.930893,-4.496 7.889926,-1.1912 17.098225,-0.8488 23.142262,4.6402 4.295235,3.9608 5.853973,9.8473 5.934876,15.3065 -0.893337,6.0423 -6.379637,10.2272 -11.445994,13.5214 -4.633613,2.9398 -6.41734,8.4396 -6.087256,13.4434 -1.608767,-2.2323 -4.689039,-0.2297 -6.998849,-0.8214 -3.65765,-0.2656 -7.423576,-1.4448 -10.069681,-3.8755 4.685114,2.8666 11.035888,4.0459 16.203024,1.5947 3.515893,-2.3358 -1.045925,-5.6429 -3.832478,-3.6236 -3.390815,0.9651 -7.074251,-0.4537 -9.156448,-3.0353 -1.487358,-1.9714 -4.149424,-4.8967 -6.869831,-2.8168 -2.7585957,1.7911 0.52073,5.7448 1.044768,6.3856 -3.9861064,-0.9459 -4.4668819,3.6811 -1.375929,5.0636 3.10658,1.3978 -1.5958567,0.8785 -1.8534224,3.0379 -1.1130506,3.0055 2.2111524,5.2208 4.7568104,6.3192 5.306938,2.2656 11.892872,4.0186 17.402644,1.3324 1.863405,-0.3648 2.695012,-3.1902 2.587331,-3.4825 3.561133,1.785 4.514448,-2.8088 3.446122,-5.0563 -0.847827,-3.8129 1.229272,-7.8402 4.902811,-9.6895 7.039474,-3.8771 13.596535,-10.1745 14.208482,-18.1165 0.180903,-4.8515 -2.072336,-9.4267 -4.187949,-13.7523 -3.41276,-6.5303 -9.670874,-12.0578 -17.52186,-13.4845 -3.106299,-0.6612 -6.287668,-0.982 -9.471828,-1.0427 z m -4.483059,26.7681 c -3.745987,0.285 -5.098639,4.2083 -4.686356,7.1845 0.508902,2.285 0.07771,6.5314 3.740389,6.2567 3.390306,-1.0679 1.353672,-5.0722 1.609123,-7.4588 -0.02752,-1.8016 1.171129,-2.2892 1.045861,-0.2492 -0.426445,3.3064 3.156425,4.7851 5.109895,1.8064 1.348541,-1.1986 2.348569,-1.3037 1.054328,0.5215 -0.955204,2.5434 -4.518929,4.3483 -3.516926,7.365 2.400836,3.4423 5.29227,-1.1695 6.714172,-3.0649 2.367186,-2.6905 3.630386,-6.8285 1.692575,-10.012 -1.67121,-2.4424 -5.337976,-1.3952 -7.040852,0.4393 -0.868077,-1.0886 -3.260841,-3.2431 -5.722209,-2.7885 z m -5.75806,29.8228 c 4.774568,2.6815 10.725656,4.189 16.204823,2.6729 1.430205,-1.5848 1.002861,-0.2732 1.604029,1.031 -2.470155,-1.0574 -4.965276,1.7398 -7.678304,0.8654 -3.604122,-0.832 -8.058524,-1.2908 -10.130548,-4.5693 z" />
      <path
         style="opacity:0.3;fill:#000000;fill-opacity:1;stroke:none;stroke-width:1.28251338"
         id="path4199"
         inkscape:connector-curvature="0"
         d="m 23.505121,1023.6016 c -0.407217,-0.012 -0.84464,-0.01 -1.233869,0.038 -1.241233,0.1515 -2.495483,0.1266 -3.742739,0.3054 -2.38925,0.3426 -4.671809,1.0399 -6.909669,1.8712 -0.814874,0.3026 -1.636971,0.6379 -2.426611,0.9927 -0.293865,0.1321 -0.709705,0.2082 -0.945966,0.4201 -0.12298,0.1104 -0.10845,0.3868 -0.123387,0.5346 -0.04155,0.4155 -0.121189,0.8449 -0.1645172,1.2601 -0.1671314,1.6023 -0.2882853,3.248 -0.041134,4.8495 0.079995,0.5175 0.2609812,1.4282 0.9459672,1.5275 1.0534,0.153 1.868517,-1.0156 2.385482,-1.6802 1.207398,-1.5523 2.585194,-3.0101 4.565317,-3.704 2.331075,-0.8169 5.019353,-1.0267 7.485476,-1.1837 6.918962,-0.4403 14.480574,0.7291 19.577398,5.4605 0.724842,0.6728 1.390706,1.3916 1.974192,2.1766 2.282044,3.0679 3.490577,6.5696 4.071769,10.2336 0.273248,1.7204 0.463763,3.442 0.04113,5.1551 -0.733442,2.972 -2.64343,5.5876 -4.85322,7.7899 -1.512475,1.5072 -3.246349,2.8473 -5.017736,4.0858 -0.988913,0.6912 -2.072567,1.3063 -3.002416,2.062 -1.070917,0.8703 -1.955297,1.9317 -2.632257,3.093 -1.821849,3.127 -2.345534,6.8959 -1.809674,10.3864 0.109817,0.7155 0.236675,1.4328 0.41129,2.1384 0.05219,0.2111 0.05855,0.5913 0.205645,0.7637 0.275256,0.3226 1.018888,0.4776 1.439515,0.4964 0.438688,0.02 0.715059,-0.2839 0.82258,-0.6491 0.184077,-0.6258 0.106653,-1.3179 0,-1.9474 -0.218488,-1.2894 -0.432096,-2.5862 -0.370161,-3.8949 0.11412,-2.4166 1.116084,-4.6638 2.920157,-6.4152 1.834755,-1.7812 4.331059,-2.8229 6.416122,-4.315 4.202243,-3.0072 7.931742,-7.0476 9.37741,-11.8756 0.516679,-1.7267 0.688392,-3.5685 0.452419,-5.346 -0.298201,-2.2483 -1.18095,-4.4888 -2.015321,-6.6061 -2.542962,-6.4541 -6.891776,-12.5889 -13.819339,-15.5415 -2.749407,-1.1717 -5.618895,-1.7152 -8.59596,-2.1002 -1.396063,-0.1804 -2.789602,-0.2864 -4.195156,-0.3436 -0.390363,-0.016 -0.785524,-0.026 -1.192741,-0.038 z m -4.318544,26.768 c -0.554932,0.05 -1.074375,0.2204 -1.562902,0.4964 -0.877953,0.4964 -1.369901,1.3631 -1.645159,2.2529 -0.546497,1.7669 -0.299912,3.8008 0.08226,5.5751 0.122152,0.5675 0.23983,1.123 0.411291,1.6801 0.06194,0.201 0.105985,0.482 0.246774,0.6492 0.245695,0.2922 0.8249,0.4011 1.19274,0.3437 1.103605,-0.1723 0.819013,-1.8794 0.781451,-2.5967 -0.08802,-1.6803 -0.598933,-3.2927 -0.08226,-4.9641 0.218772,-0.7071 0.629102,-1.5256 1.398385,-1.8328 0.694448,-0.2777 1.411319,0.057 1.686289,0.6873 0.445254,1.0197 0.337665,2.223 0.616934,3.2839 0.0949,0.3607 0.194973,0.6949 0.370161,1.0311 0.05074,0.097 0.09968,0.3176 0.246774,0.3054 0.357546,-0.03 0.883552,-0.5964 1.151613,-0.8019 0.865908,-0.6644 1.758698,-1.3794 2.755641,-1.871 0.469082,-0.2314 1.248272,-0.5844 1.727418,-0.191 0.122109,0.1004 0.200451,0.2167 0.287903,0.3437 0.563128,0.819 -0.0041,1.4359 -0.370161,2.2148 -0.473956,1.0079 -0.958424,2.0014 -1.64516,2.902 -0.590366,0.7746 -1.379114,1.4832 -1.850805,2.3293 -0.303641,0.5449 -0.495745,1.1417 -0.37016,1.7565 0.101785,0.4973 0.523143,0.7658 1.069353,0.6493 0.408871,-0.088 0.671731,-0.3871 0.904839,-0.6874 0.415464,-0.5355 0.820984,-1.1043 1.233869,-1.642 0.798816,-1.0399 1.754814,-2.0132 2.426611,-3.1312 0.809712,-1.3476 1.193629,-2.8563 1.192741,-4.3913 -5.17e-4,-1.2544 -0.482588,-3.1738 -2.05645,-3.4367 -0.296158,-0.05 -0.651785,-0.048 -0.945968,0 -0.365544,0.059 -0.735318,0.1936 -1.069353,0.3436 -0.894868,0.402 -1.679437,0.9978 -2.344352,1.6802 -0.414863,0.4253 -0.782691,0.9491 -1.275,1.2984 0,-0.9266 -0.160563,-1.9342 -0.740322,-2.7112 -0.726488,-0.9734 -1.991894,-1.5232 -3.249189,-1.5656 -0.188594,-0.01 -0.390828,-0.016 -0.575806,0 z m -7.27983,15.0068 c -0.143325,-0.011 -0.290348,0.016 -0.452419,0.038 -1.35019,0.1794 -1.771224,1.1575 -1.521774,2.2911 0.319413,1.4507 1.57908,2.5653 2.796772,3.4367 3.119856,2.2327 7.134706,3.4437 11.063698,3.284 1.533118,-0.062 3.199487,-0.3126 4.606447,-0.9164 0.754372,-0.3237 1.562011,-1.4866 0.534677,-1.9857 -0.140784,-0.069 -0.33668,-0.091 -0.493549,-0.1146 -0.448695,-0.069 -0.932072,0.1158 -1.357256,0.2291 -0.749786,0.1999 -1.53136,0.3815 -2.303223,0.4964 -2.30613,0.344 -4.794723,-0.1442 -6.704026,-1.4128 -1.543412,-1.0258 -2.769914,-2.3746 -3.948383,-3.7422 -0.631199,-0.7324 -1.217702,-1.532 -2.220964,-1.6038 z m -1.64516,7.0644 c -0.204155,0 -0.413233,0.018 -0.575806,0.038 -0.343498,0.042 -0.734045,0.029 -1.028225,0.2291 -0.613592,0.4182 0.04732,1.2608 0.370161,1.642 0.936129,1.1044 2.183627,2.0177 3.413707,2.8257 3.429203,2.2521 7.297374,3.5527 11.474987,3.8186 1.201062,0.076 2.431448,-0.01 3.619351,-0.1909 0.43436,-0.068 0.99697,-0.093 1.398386,-0.2674 1.135976,-0.4931 0.808186,-2.4591 -0.205645,-2.902 -0.442704,-0.1933 -1.180952,0.054 -1.64516,0.1145 -1.09787,0.1422 -2.186141,0.1396 -3.290319,0.1146 -2.893916,-0.066 -5.992241,-0.8708 -8.513701,-2.1766 -0.991209,-0.5137 -1.863484,-1.1373 -2.714514,-1.8329 -0.517538,-0.4229 -1.056221,-1.1227 -1.727417,-1.3365 -0.156264,-0.05 -0.37165,-0.078 -0.575805,-0.076 z m 0.123386,6.0333 c -0.489124,0.051 -0.871034,0.274 -1.19274,0.6109 -0.221638,0.2321 -0.40737,0.4327 -0.534677,0.7255 -0.7019021,1.612 1.134342,3.1337 2.426611,3.8949 1.438184,0.847 3.046789,1.495 4.647575,2.0239 3.610443,1.1929 7.807742,1.9448 11.557246,0.8782 1.1145,-0.3167 2.233259,-0.8973 3.043545,-1.6801 0.456437,-0.4411 0.754956,-1.0923 -0.08226,-1.3747 -0.496035,-0.1671 -1.071901,0.2518 -1.521773,0.4201 -1.062029,0.3976 -2.191431,0.712 -3.331448,0.84 -1.50158,0.169 -2.830314,-0.1602 -4.277416,-0.4964 -1.236071,-0.287 -2.506511,-0.5792 -3.701608,-0.9928 -1.019596,-0.353 -2.0279,-0.7504 -2.920157,-1.3365 -0.266656,-0.1751 -0.562967,-0.3447 -0.781452,-0.5728 -0.714232,-0.746 -1.249478,-1.6197 -2.01532,-2.3293 -0.330881,-0.3066 -0.809742,-0.6634 -1.316129,-0.6109 z" />
      <path
         style="fill:#ffffff;fill-opacity:1;stroke:none;stroke-width:1.28251338"
         id="path4201"
         inkscape:connector-curvature="0"
         d="m 23.505121,1022.3796 c -0.407217,-0.012 -0.84464,-0.01 -1.233869,0.038 -1.241233,0.1513 -2.495483,0.1266 -3.742739,0.3054 -2.38925,0.3425 -4.671809,1.0399 -6.909669,1.8711 -0.814874,0.3026 -1.636971,0.638 -2.426611,0.9928 -0.293865,0.1321 -0.709705,0.2082 -0.945966,0.4201 -0.12298,0.1104 -0.10845,0.3868 -0.123387,0.5346 -0.04155,0.4155 -0.121189,0.8448 -0.1645172,1.2601 -0.1671314,1.6023 -0.2882853,3.248 -0.041134,4.8495 0.079995,0.5174 0.2609812,1.4282 0.9459672,1.5275 1.0534,0.153 1.868517,-1.0156 2.385482,-1.6802 1.207398,-1.5523 2.585194,-3.0101 4.565317,-3.704 2.331075,-0.8169 5.019353,-1.0267 7.485476,-1.1837 6.918962,-0.4403 14.480574,0.729 19.577398,5.4605 0.724842,0.6728 1.390706,1.3916 1.974192,2.1766 2.282044,3.0678 3.490577,6.5696 4.071769,10.2336 0.273248,1.7203 0.463763,3.442 0.04113,5.155 -0.733442,2.9721 -2.64343,5.5876 -4.85322,7.7899 -1.512475,1.5073 -3.246349,2.8474 -5.017736,4.0858 -0.988913,0.6913 -2.072567,1.3064 -3.002416,2.0621 -1.070917,0.8703 -1.955297,1.9317 -2.632257,3.093 -1.821849,3.1269 -2.345534,6.8958 -1.809674,10.3864 0.109817,0.7155 0.236675,1.4328 0.41129,2.1384 0.05219,0.2111 0.05855,0.5913 0.205645,0.7637 0.275256,0.3226 1.018888,0.4775 1.439515,0.4964 0.438688,0.02 0.715059,-0.2839 0.82258,-0.6491 0.184077,-0.6258 0.106653,-1.318 0,-1.9475 -0.218488,-1.2893 -0.432096,-2.5861 -0.370161,-3.8949 0.11412,-2.4166 1.116084,-4.6637 2.920157,-6.4151 1.834755,-1.7813 4.331059,-2.8229 6.416122,-4.315 4.202243,-3.0072 7.931742,-7.0476 9.37741,-11.8756 0.516679,-1.7267 0.688392,-3.5685 0.452419,-5.346 -0.298201,-2.2483 -1.18095,-4.4888 -2.015321,-6.6061 -2.542962,-6.4541 -6.891776,-12.5889 -13.819339,-15.5415 -2.749407,-1.1717 -5.618895,-1.7154 -8.59596,-2.1002 -1.396063,-0.1804 -2.789602,-0.2865 -4.195156,-0.3436 -0.390363,-0.016 -0.785524,-0.026 -1.192741,-0.038 z m -4.318544,26.7681 c -0.554932,0.05 -1.074375,0.2203 -1.562902,0.4964 -0.877953,0.4964 -1.369901,1.3631 -1.645159,2.2529 -0.546497,1.7668 -0.299912,3.8007 0.08226,5.5751 0.122152,0.5674 0.23983,1.123 0.411291,1.6801 0.06194,0.201 0.105985,0.482 0.246774,0.6492 0.245695,0.2922 0.8249,0.4011 1.19274,0.3437 1.103605,-0.1723 0.819013,-1.8794 0.781451,-2.5967 -0.08802,-1.6803 -0.598933,-3.2928 -0.08226,-4.9641 0.218772,-0.7071 0.629102,-1.5258 1.398385,-1.8328 0.694448,-0.2777 1.411319,0.057 1.686289,0.6873 0.445254,1.0196 0.337665,2.223 0.616934,3.2839 0.0949,0.3607 0.194973,0.6948 0.370161,1.031 0.05074,0.097 0.09968,0.3177 0.246774,0.3055 0.357546,-0.03 0.883552,-0.5964 1.151613,-0.8019 0.865908,-0.6644 1.758698,-1.3794 2.755641,-1.8711 0.469082,-0.2313 1.248272,-0.5843 1.727418,-0.1909 0.122109,0.1003 0.200451,0.2167 0.287903,0.3437 0.563128,0.819 -0.0041,1.4359 -0.370161,2.2147 -0.473956,1.008 -0.958424,2.0013 -1.64516,2.9021 -0.590366,0.7746 -1.379114,1.4832 -1.850805,2.3293 -0.303641,0.5449 -0.495745,1.1417 -0.37016,1.7565 0.101785,0.4973 0.523143,0.7658 1.069353,0.6492 0.408871,-0.088 0.671731,-0.3871 0.904839,-0.6874 0.415464,-0.5354 0.820984,-1.1042 1.233869,-1.6419 0.798816,-1.0399 1.754814,-2.0133 2.426611,-3.1312 0.809712,-1.3476 1.193629,-2.8563 1.192741,-4.3913 -5.17e-4,-1.2545 -0.482588,-3.1738 -2.05645,-3.4368 -0.296158,-0.05 -0.651785,-0.048 -0.945968,0 -0.365544,0.059 -0.735318,0.1936 -1.069353,0.3437 -0.894868,0.402 -1.679437,0.9977 -2.344352,1.6802 -0.414863,0.4253 -0.782691,0.9491 -1.275,1.2983 0,-0.9265 -0.160563,-1.9343 -0.740322,-2.7111 -0.726488,-0.9734 -1.991894,-1.5232 -3.249189,-1.5656 -0.188594,-0.01 -0.390828,-0.016 -0.575806,0 z m -7.27983,15.0068 c -0.143325,-0.011 -0.290348,0.017 -0.452419,0.038 -1.35019,0.1794 -1.771224,1.1575 -1.521774,2.2911 0.319413,1.4507 1.57908,2.5652 2.796772,3.4367 3.119856,2.2326 7.134706,3.4437 11.063698,3.2839 1.533118,-0.062 3.199487,-0.3125 4.606447,-0.9163 0.754372,-0.3238 1.562011,-1.4866 0.534677,-1.9857 -0.140784,-0.069 -0.33668,-0.091 -0.493549,-0.1146 -0.448695,-0.069 -0.932072,0.1157 -1.357256,0.2291 -0.749786,0.1999 -1.53136,0.3814 -2.303223,0.4964 -2.30613,0.344 -4.794723,-0.1442 -6.704026,-1.4128 -1.543412,-1.0259 -2.769914,-2.3746 -3.948383,-3.7422 -0.631199,-0.7325 -1.217702,-1.5321 -2.220964,-1.6038 z m -1.64516,7.0644 c -0.204155,0 -0.413233,0.018 -0.575806,0.038 -0.343498,0.042 -0.734045,0.028 -1.028225,0.2291 -0.613592,0.4182 0.04732,1.2608 0.370161,1.642 0.936129,1.1044 2.183627,2.0176 3.413707,2.8257 3.429203,2.2521 7.297374,3.5527 11.474987,3.8186 1.201062,0.076 2.431448,-0.01 3.619351,-0.1909 0.43436,-0.068 0.99697,-0.093 1.398386,-0.2674 1.135976,-0.4932 0.808186,-2.4592 -0.205645,-2.9021 -0.442704,-0.1932 -1.180952,0.054 -1.64516,0.1146 -1.09787,0.1422 -2.186141,0.1396 -3.290319,0.1145 -2.893916,-0.066 -5.992241,-0.8707 -8.513701,-2.1766 -0.991209,-0.5136 -1.863484,-1.1374 -2.714514,-1.8328 -0.517538,-0.4229 -1.056221,-1.1228 -1.727417,-1.3365 -0.156264,-0.05 -0.37165,-0.078 -0.575805,-0.076 z m 0.123386,6.0332 c -0.489124,0.051 -0.871034,0.274 -1.19274,0.611 -0.221638,0.2321 -0.40737,0.4327 -0.534677,0.7255 -0.7019021,1.612 1.134342,3.1336 2.426611,3.8949 1.438184,0.847 3.046789,1.495 4.647575,2.0239 3.610443,1.1929 7.807742,1.9447 11.557246,0.8782 1.1145,-0.3168 2.233259,-0.8973 3.043545,-1.6802 0.456437,-0.441 0.754956,-1.0922 -0.08226,-1.3746 -0.496035,-0.1672 -1.071901,0.2518 -1.521773,0.42 -1.062029,0.3976 -2.191431,0.712 -3.331448,0.8401 -1.50158,0.169 -2.830314,-0.1603 -4.277416,-0.4964 -1.236071,-0.287 -2.506511,-0.5792 -3.701608,-0.9929 -1.019596,-0.3529 -2.0279,-0.7503 -2.920157,-1.3364 -0.266656,-0.1751 -0.562967,-0.3447 -0.781452,-0.5728 -0.714232,-0.746 -1.249478,-1.6197 -2.01532,-2.3293 -0.330881,-0.3066 -0.809742,-0.6635 -1.316129,-0.611 z" />
      <path
         inkscape:connector-curvature="0"
         id="path4236-5"
         d="m -19.446568,1011.5505 c -3.680143,0 -6.642857,2.9627 -6.642857,6.6429 v 16.6071 h 1.107143 v -16.6071 c 0,-3.086 2.449774,-5.5358 5.535714,-5.5358 h 79.714281 c 3.085939,0 5.535715,2.4498 5.535715,5.5358 v 16.6071 h 1.10714 v -16.6071 c 0,-3.6802 -2.962712,-6.6429 -6.642855,-6.6429 z"
         style="display:inline;opacity:0.45;fill:url(#radialGradient3827);fill-opacity:1;fill-rule:nonzero;stroke:none;stroke-width:1.10714269" />
      <path
         id="path4118"
         d="m -26.089446,1091.8943 v 6 c 0,3.6801 2.976107,6.6562 6.65625,6.6562 h 79.6875 c 3.680143,0 6.656254,-2.9761 6.656254,-6.6562 v -6 c 0,3.6801 -2.976111,6.6562 -6.656254,6.6562 h -79.6875 c -3.680143,0 -6.65625,-2.9761 -6.65625,-6.6562 z"
         style="display:inline;opacity:0.89090905;fill:url(#linearGradient3829);fill-opacity:1;fill-rule:nonzero;stroke:none"
         inkscape:connector-curvature="0" />
      <rect
         ry="4.25"
         rx="0"
         y="1090.3004"
         x="-22.214445"
         height="4.25"
         width="84.250008"
         id="rect4131"
         style="opacity:0.55;fill:url(#radialGradient3831);fill-opacity:1;stroke:none" />
      <rect
         transform="rotate(90)"
         style="opacity:0.55;fill:url(#radialGradient3833);fill-opacity:1;stroke:none"
         id="rect4141"
         width="76.75"
         height="4.25"
         x="1014.8004"
         y="-63.035557"
         rx="0"
         ry="4.25" />
      <rect
         clip-path="url(#clipPath4156-4)"
         ry="3.9569881"
         rx="3.9569874"
         y="-30"
         x="2"
         height="92"
         width="92"
         id="rect4146"
         style="fill:url(#linearGradient3837);fill-opacity:1;stroke:none"
         transform="matrix(0.90930469,0,0,0.92837735,-23.244338,1044.5453)" />
      <path
         style="color:#000000;font-style:normal;font-variant:normal;font-weight:normal;font-stretch:normal;font-size:medium;line-height:normal;font-family:Sans;-inkscape-font-specification:Sans;text-indent:0;text-align:start;text-decoration:none;text-decoration-line:none;letter-spacing:normal;word-spacing:normal;text-transform:none;writing-mode:lr-tb;direction:ltr;baseline-shift:baseline;text-anchor:start;display:inline;overflow:visible;visibility:visible;fill:#241f1f;fill-opacity:0.63265303;stroke:none;stroke-width:2.3755002;marker:none;enable-background:accumulate"
         d="m -17.764365,1014.78 c -3.116621,0 -5.667965,2.5395 -5.667965,5.646 v 69.278 c 0,3.1065 2.551344,5.646 5.667965,5.646 H 59.02742 c 3.116621,0 5.667968,-2.5395 5.667968,-5.646 v -69.278 c 0,-3.1065 -2.551347,-5.646 -5.667968,-5.646 z m 0,2.3194 H 59.02742 c 1.888099,0 3.352022,1.4801 3.352022,3.3266 v 69.278 c 0,1.8464 -1.463923,3.3265 -3.352022,3.3265 h -76.791785 c -1.888099,0 -3.352022,-1.4801 -3.352022,-3.3265 v -69.278 c 0,-1.8465 1.463923,-3.3266 3.352022,-3.3266 z"
         id="path4989"
         inkscape:connector-curvature="0" />
    </g>
  </g>
</svg>
