<?xml version="1.0" encoding="UTF-8" standalone="no"?>
<!-- Created with Inkscape (http://www.inkscape.org/) -->

<svg
   xmlns:dc="http://purl.org/dc/elements/1.1/"
   xmlns:cc="http://creativecommons.org/ns#"
   xmlns:rdf="http://www.w3.org/1999/02/22-rdf-syntax-ns#"
   xmlns:svg="http://www.w3.org/2000/svg"
   xmlns="http://www.w3.org/2000/svg"
   xmlns:xlink="http://www.w3.org/1999/xlink"
   xmlns:sodipodi="http://sodipodi.sourceforge.net/DTD/sodipodi-0.dtd"
   xmlns:inkscape="http://www.inkscape.org/namespaces/inkscape"
   width="96"
   height="96"
   id="svg2"
   sodipodi:version="0.32"
   inkscape:version="0.92.2 5c3e80d, 2017-08-06"
   version="1.0"
   sodipodi:docname="im-meanwhile.svg"
   inkscape:export-filename="/home/hbons/Desktop/Gaim Refresh/protocols/48/meanwhile.png"
   inkscape:export-xdpi="90"
   inkscape:export-ydpi="90"
   inkscape:output_extension="org.inkscape.output.svg.inkscape">
  <defs
     id="defs4">
    <linearGradient
       inkscape:collect="always"
       id="linearGradient2195">
      <stop
         style="stop-color:#ffffff;stop-opacity:1;"
         offset="0"
         id="stop2197" />
      <stop
         style="stop-color:#ffffff;stop-opacity:0;"
         offset="1"
         id="stop2199" />
    </linearGradient>
    <linearGradient
       id="linearGradient5602-7-3-9-8">
      <stop
         offset="0"
         style="stop-color:#579457;stop-opacity:1;"
         id="stop5604-6-70-0-5" />
      <stop
         offset="1"
         style="stop-color:#558455;stop-opacity:1;"
         id="stop5606-0-9-2-0" />
    </linearGradient>
    <linearGradient
       id="linearGradient13990">
      <stop
         style="stop-color:#003366;stop-opacity:1;"
         offset="0"
         id="stop13992" />
      <stop
         style="stop-color:#003366;stop-opacity:0;"
         offset="1"
         id="stop13994" />
    </linearGradient>
    <linearGradient
       id="linearGradient6139-0">
      <stop
         id="stop6141-2"
         offset="0"
         style="stop-color:#b7b7b7;stop-opacity:1;" />
      <stop
         style="stop-color:#ffffff;stop-opacity:1;"
         offset="0.25"
         id="stop6151-0" />
      <stop
         style="stop-color:#9d9d9d;stop-opacity:1;"
         offset="0.5"
         id="stop6147-1" />
      <stop
         id="stop6149-4"
         offset="0.75"
         style="stop-color:#fafafa;stop-opacity:1;" />
      <stop
         id="stop6143-4"
         offset="1"
         style="stop-color:#b7b7b7;stop-opacity:1;" />
    </linearGradient>
    <linearGradient
       id="linearGradient4091-0-3-0-7">
      <stop
         style="stop-color:#ffffff;stop-opacity:1;"
         offset="0"
         id="stop4093-3-6-4-2" />
      <stop
         id="stop4099-6-1-8-3"
         offset="0.80000001"
         style="stop-color:#ffffff;stop-opacity:1;" />
      <stop
         style="stop-color:#ffffff;stop-opacity:0;"
         offset="1"
         id="stop4095-1-0-7-9" />
    </linearGradient>
    <linearGradient
       id="linearGradient3832-0-6-1-1">
      <stop
         style="stop-color:#000000;stop-opacity:1;"
         offset="0"
         id="stop3834-6-3-7-1" />
      <stop
         id="stop3872-2-4"
         offset="0.1"
         style="stop-color:#000000;stop-opacity:0.58823532;" />
      <stop
         style="stop-color:#000000;stop-opacity:0.58823532;"
         offset="0.89999998"
         id="stop3844-6-2-7-6" />
      <stop
         style="stop-color:#000000;stop-opacity:1;"
         offset="1"
         id="stop3836-5-0-2-9" />
    </linearGradient>
    <filter
       id="filter3174-4"
       color-interpolation-filters="sRGB">
      <feGaussianBlur
         stdDeviation="1.71"
         id="feGaussianBlur3176-3" />
    </filter>
    <linearGradient
       gradientUnits="userSpaceOnUse"
       xlink:href="#linearGradient3873-7"
       id="linearGradient3879-8-8"
       y2="48"
       x2="80"
       y1="48"
       x1="16" />
    <linearGradient
       id="linearGradient3873-7">
      <stop
         offset="0"
         style="stop-color:#f0f0f0;stop-opacity:1"
         id="stop3875-0" />
      <stop
         offset="1"
         style="stop-color:#b4b4b4;stop-opacity:1"
         id="stop3877-20-4" />
    </linearGradient>
    <radialGradient
       gradientUnits="userSpaceOnUse"
       xlink:href="#linearGradient3674-5-0"
       id="radialGradient3682-9"
       fy="48"
       fx="48"
       r="32"
       cy="48"
       cx="48" />
    <linearGradient
       id="linearGradient3674-5-0">
      <stop
         offset="0"
         style="stop-color:#ffffff;stop-opacity:1"
         id="stop3676-0-2" />
      <stop
         offset="0.30000001"
         style="stop-color:#ffffff;stop-opacity:1"
         id="stop3684-9" />
      <stop
         offset="0.89999998"
         style="stop-color:#f0f0f0;stop-opacity:1"
         id="stop3925-8-3" />
      <stop
         offset="1"
         style="stop-color:#d2d2d2;stop-opacity:1"
         id="stop3678-8-8" />
    </linearGradient>
    <filter
       id="filter3944-7"
       color-interpolation-filters="sRGB">
      <feGaussianBlur
         stdDeviation="0.4359375"
         id="feGaussianBlur3946-6" />
    </filter>
    <radialGradient
       gradientUnits="userSpaceOnUse"
       xlink:href="#linearGradient3893-7"
       id="radialGradient3901-4"
       fy="46.058418"
       fx="48.000896"
       r="3"
       cy="46.058418"
       cx="48.000896" />
    <linearGradient
       id="linearGradient3893-7">
      <stop
         offset="0"
         style="stop-color:#ffffff;stop-opacity:1"
         id="stop3895-3" />
      <stop
         offset="1"
         style="stop-color:#a2a2a2;stop-opacity:1"
         id="stop3897-5" />
    </linearGradient>
    <linearGradient
       gradientTransform="matrix(0,1,-1,0,96,0)"
       gradientUnits="userSpaceOnUse"
       xlink:href="#linearGradient3899-9"
       id="linearGradient3905-4"
       y2="48"
       x2="83"
       y1="48"
       x1="13" />
    <linearGradient
       id="linearGradient3899-9">
      <stop
         offset="0"
         style="stop-color:#ffffff;stop-opacity:1"
         id="stop3901-8" />
      <stop
         offset="0.5"
         style="stop-color:#ffffff;stop-opacity:0.41221374"
         id="stop3981-6" />
      <stop
         offset="1"
         style="stop-color:#868686;stop-opacity:1"
         id="stop3903-5" />
    </linearGradient>
    <linearGradient
       gradientTransform="matrix(0,1,-1,0,96,0)"
       gradientUnits="userSpaceOnUse"
       xlink:href="#linearGradient3917-6-8"
       id="linearGradient3923-1-6"
       y2="48"
       x2="120"
       y1="48"
       x1="17" />
    <linearGradient
       id="linearGradient3917-6-8">
      <stop
         offset="0"
         style="stop-color:#000000;stop-opacity:1"
         id="stop3919-2" />
      <stop
         offset="1"
         style="stop-color:#000000;stop-opacity:0"
         id="stop3921-7" />
    </linearGradient>
    <linearGradient
       gradientUnits="userSpaceOnUse"
       xlink:href="#linearGradient3983-2"
       id="linearGradient3973-9"
       y2="60"
       x2="53"
       y1="60"
       x1="43" />
    <linearGradient
       id="linearGradient3983-2">
      <stop
         offset="0"
         style="stop-color:#ffffff;stop-opacity:1"
         id="stop3985-6" />
      <stop
         offset="1"
         style="stop-color:#868686;stop-opacity:1"
         id="stop3989-2" />
    </linearGradient>
    <radialGradient
       gradientUnits="userSpaceOnUse"
       xlink:href="#linearGradient3674-5-0"
       id="radialGradient3979-6"
       fy="60"
       fx="48"
       r="5"
       cy="60"
       cx="48" />
    <clipPath
       id="clipPath2973-9">
      <rect
         style="fill:url(#linearGradient2977);fill-opacity:1;fill-rule:nonzero;stroke:none"
         id="rect2975-6"
         y="6"
         x="6"
         ry="6"
         rx="6"
         height="84"
         width="84" />
    </clipPath>
    <linearGradient
       gradientTransform="scale(1.0058652,0.994169)"
       gradientUnits="userSpaceOnUse"
       id="ButtonShadow-5"
       y2="7.0165396"
       x2="45.447727"
       y1="92.539597"
       x1="45.447727">
      <stop
         offset="0"
         style="stop-color:#000000;stop-opacity:1"
         id="stop3750-9" />
      <stop
         offset="1"
         style="stop-color:#000000;stop-opacity:0.58823532"
         id="stop3752-0" />
    </linearGradient>
    <filter
       id="filter3174-5"
       color-interpolation-filters="sRGB">
      <feGaussianBlur
         stdDeviation="1.71"
         id="feGaussianBlur3176-1" />
    </filter>
    <linearGradient
       gradientTransform="matrix(0.31400775,0,0,0.31400775,8.6076835,9.3242921)"
       gradientUnits="userSpaceOnUse"
       xlink:href="#linearGradient3421"
       id="linearGradient3855"
       y2="78.463249"
       x2="117.66125"
       y1="151.16792"
       x1="136.3282" />
    <linearGradient
       id="linearGradient3421">
      <stop
         offset="0"
         style="stop-color:#fe7600;stop-opacity:1"
         id="stop3423" />
      <stop
         offset="1"
         style="stop-color:#f2b26d;stop-opacity:1"
         id="stop3425" />
    </linearGradient>
    <linearGradient
       gradientUnits="userSpaceOnUse"
       xlink:href="#linearGradient3865"
       id="linearGradient3871"
       y2="30.801933"
       x2="86.437103"
       y1="30.801933"
       x1="48.742641" />
    <linearGradient
       id="linearGradient3865">
      <stop
         offset="0"
         style="stop-color:#bddb4e;stop-opacity:1"
         id="stop3867" />
      <stop
         offset="1"
         style="stop-color:#52b124;stop-opacity:1"
         id="stop3869" />
    </linearGradient>
    <linearGradient
       gradientTransform="matrix(0.31400775,0,0,0.31400775,-69.663245,-106.20134)"
       gradientUnits="userSpaceOnUse"
       xlink:href="#linearGradient2195"
       id="linearGradient3851"
       y2="471.18063"
       x2="315.21729"
       y1="468.58658"
       x1="312.62323" />
    <linearGradient
       gradientTransform="matrix(0.31400775,0,0,0.31400775,-68.839441,-118.95132)"
       gradientUnits="userSpaceOnUse"
       xlink:href="#linearGradient2195"
       id="linearGradient3847"
       y2="471.18063"
       x2="315.21729"
       y1="468.58658"
       x1="312.62323" />
    <linearGradient
       gradientUnits="userSpaceOnUse"
       xlink:href="#linearGradient3865"
       id="linearGradient3879"
       y2="-98.684196"
       x2="18.554882"
       y1="-98.684196"
       x1="-19.139587" />
    <linearGradient
       inkscape:collect="always"
       xlink:href="#linearGradient6139-0-3"
       id="linearGradient4071"
       gradientUnits="userSpaceOnUse"
       gradientTransform="matrix(1.1353753,0,0,1.1336634,-40.037126,-46.787598)"
       x1="6"
       y1="47.000011"
       x2="90"
       y2="47.000011" />
    <linearGradient
       id="linearGradient6139-0-3">
      <stop
         id="stop6141-2-6"
         offset="0"
         style="stop-color:#b2babc;stop-opacity:1" />
      <stop
         style="stop-color:#ffffff;stop-opacity:1;"
         offset="0.25"
         id="stop6151-0-7" />
      <stop
         style="stop-color:#96a1a4;stop-opacity:1"
         offset="0.5"
         id="stop6147-1-5" />
      <stop
         id="stop6149-4-3"
         offset="0.75"
         style="stop-color:#fbf9f9;stop-opacity:1;" />
      <stop
         id="stop6143-4-5"
         offset="1"
         style="stop-color:#b2b9bc;stop-opacity:1" />
    </linearGradient>
    <linearGradient
       gradientTransform="matrix(1.0255003,0,0,1.0239543,-34.763125,-42.655212)"
       inkscape:collect="always"
       xlink:href="#linearGradient3832-0-6-1-1"
       id="linearGradient4129"
       x1="1.5"
       y1="88.171875"
       x2="94.5"
       y2="88.171875"
       gradientUnits="userSpaceOnUse" />
    <radialGradient
       inkscape:collect="always"
       xlink:href="#linearGradient2195"
       id="radialGradient7462"
       gradientUnits="userSpaceOnUse"
       gradientTransform="matrix(0.99999998,0,0,0.05036905,-2.7362053e-6,39.431821)"
       cx="13.948145"
       cy="44.892841"
       fx="13.948145"
       fy="44.892841"
       r="43.199203" />
    <radialGradient
       inkscape:collect="always"
       xlink:href="#linearGradient2195"
       id="radialGradient7464"
       gradientUnits="userSpaceOnUse"
       gradientTransform="matrix(0.90960587,0,0,0.0504451,-10.355094,-57.7045)"
       cx="13.948145"
       cy="44.892841"
       fx="13.948145"
       fy="44.892841"
       r="43.199203" />
    <linearGradient
       inkscape:collect="always"
       xlink:href="#linearGradient2195"
       id="linearGradient4767"
       gradientUnits="userSpaceOnUse"
       x1="2.7713892"
       y1="-28.64156"
       x2="50.527882"
       y2="14.514202" />
    <clipPath
       id="clipPath4156-4-1"
       clipPathUnits="userSpaceOnUse">
      <path
         inkscape:connector-curvature="0"
         id="path4158-0-8"
         d="m 27.046336,-55.695463 -14.21366,13.321486 h 0.06127 l 15.653407,21.770763 10.231384,-10.546177 C 38.561832,-32.30156 27.468089,-54.819245 27.046336,-55.695463 Z M 9.6468554,-39.382809 -5.2407289,-25.32124 15.987863,-7.8059573 26.372412,-18.382966 Z m 31.4906096,12.951445 -9.741259,9.713584 8.944804,12.4580526 7.780753,-7.5550056 z m -49.8397109,4.378822 -13.7541661,12.9822847 26.2830181,13.84571 0.06127,-0.0617 -0.122531,-0.0617 L 13.598503,-5.4007374 -8.7022409,-22.052595 Z m 38.0154159,7.400825 -9.802525,9.7752596 11.579232,9.5594001 7.62759,-7.40083 -8.669108,-11.0087257 z m 20.187073,5.6739697 -7.382526,7.2158 6.187844,8.54179 5.820249,-6.13651996 z m -32.195166,6.32154 -9.5574606,9.49772 13.6622686,7.1849703 7.933918,-7.6783603 z m 23.311629,2.37443004 -7.10683,6.93826996 8.362778,6.9074403 5.360756,-5.6739699 -0.06127,-0.0925 -0.0919,0.12335 -6.463539,-8.20258036 z m -8.730374,8.54178036 -7.505057,7.3391599 10.353916,5.45811 c 1.397496,-1.32103 5.67514,-6.12292 5.850882,-6.32154 z"
         style="opacity:0.6;fill:#ffffff;fill-opacity:1;stroke:none" />
    </clipPath>
    <clipPath
       clipPathUnits="userSpaceOnUse"
       id="clipPath4355-7">
      <rect
         style="fill:#ffffff;fill-opacity:1;fill-rule:nonzero;stroke:none"
         id="rect4357-5"
         width="84"
         height="80"
         x="6"
         y="6"
         rx="6"
         ry="6" />
    </clipPath>
    <clipPath
       clipPathUnits="userSpaceOnUse"
       id="clipPath4355-9">
      <rect
         style="fill:#ffffff;fill-opacity:1;fill-rule:nonzero;stroke:none"
         id="rect4357-1"
         width="84"
         height="80"
         x="6"
         y="6"
         rx="6"
         ry="6" />
    </clipPath>
    <clipPath
       clipPathUnits="userSpaceOnUse"
       id="clipPath4355-1">
      <rect
         style="fill:#ffffff;fill-opacity:1;fill-rule:nonzero;stroke:none"
         id="rect4357-9"
         width="84"
         height="80"
         x="6"
         y="6"
         rx="6"
         ry="6" />
    </clipPath>
    <clipPath
       clipPathUnits="userSpaceOnUse"
       id="clipPath3943-52-0">
      <path
         id="path3945-4-1"
         d="m 69.78125,20.84375 -5,3.4375 c 5.586891,5.537137 9,13.327613 9,21.8125 0,8.434478 -3.37723,16.095981 -8.90625,21.625 l 5,3.4375 C 76.078226,64.5762 80,55.843726 80,46.09375 c 2e-6,-9.796556 -3.962955,-18.660417 -10.21875,-25.25 z M 40,24.0625 28.90625,36.21875 H 21.5 c -0.823281,0 -1.5,0.676717 -1.5,1.5 v 1 14.84375 1 c 0,0.823281 0.684121,1.610161 1.5,1.5 h 7.40625 L 40,68 V 66 26.0625 Z m 20.59375,3.28125 -5,3.4375 L 55.5,30.875 c 3.93815,3.890071 6.40625,9.25018 6.40625,15.21875 0,5.920869 -2.42961,11.148358 -6.3125,15.03125 l 0.09375,0.09375 5.09375,3.4375 c 4.475428,-4.908367 7.25,-11.402005 7.25,-18.5625 0,-7.230696 -2.87904,-13.83107 -7.4375,-18.75 z m -9.25,6.5 -5.21875,3.625 c 2.222384,2.217802 3.71875,5.239596 3.71875,8.625 0,3.336509 -1.458847,6.227712 -3.625,8.4375 l 5.21875,3.625 c 2.822412,-3.236947 4.53125,-7.43414 4.53125,-12.0625 0,-4.672601 -1.754155,-9.001351 -4.625,-12.25 z"
         style="color:#000000;display:inline;overflow:visible;visibility:visible;opacity:0.8;fill:#ff00ff;fill-opacity:1;fill-rule:nonzero;stroke:none;stroke-width:1;marker:none;enable-background:accumulate"
         inkscape:connector-curvature="0" />
    </clipPath>
    <radialGradient
       inkscape:collect="always"
       xlink:href="#linearGradient3150"
       id="radialGradient4330"
       gradientUnits="userSpaceOnUse"
       gradientTransform="matrix(-0.842757,0,0,-0.35721,19.80716,14.19321)"
       cx="10.748654"
       cy="10.457643"
       fx="10.748654"
       fy="10.457643"
       r="6.6449099" />
    <linearGradient
       inkscape:collect="always"
       id="linearGradient3150">
      <stop
         style="stop-color:#2e3436;stop-opacity:1;"
         offset="0"
         id="stop3152" />
      <stop
         style="stop-color:#2e3436;stop-opacity:0;"
         offset="1"
         id="stop3154" />
    </linearGradient>
    <linearGradient
       inkscape:collect="always"
       xlink:href="#linearGradient2195"
       id="linearGradient2236"
       x1="10.177145"
       y1="-1.3535745"
       x2="10.177145"
       y2="8.1371298"
       gradientUnits="userSpaceOnUse" />
    <radialGradient
       inkscape:collect="always"
       xlink:href="#linearGradient2195"
       id="radialGradient2211"
       cx="30.5625"
       cy="23.172834"
       fx="30.5625"
       fy="23.172834"
       r="23.5"
       gradientTransform="matrix(1.330958,0,0,1.269011,-10.11491,-9.053927)"
       gradientUnits="userSpaceOnUse" />
  </defs>
  <sodipodi:namedview
     id="base"
     pagecolor="#ffffff"
     bordercolor="#666666"
     borderopacity="1.0"
     inkscape:pageopacity="0.0"
     inkscape:pageshadow="2"
     inkscape:zoom="3.0009658"
     inkscape:cx="11.62981"
     inkscape:cy="32.226987"
     inkscape:document-units="px"
     inkscape:current-layer="g12958"
     showgrid="true"
     fill="#f57900"
     showguides="true"
     inkscape:guide-bbox="true"
     inkscape:window-width="1268"
     inkscape:window-height="971"
     inkscape:window-x="6"
     inkscape:window-y="21"
     inkscape:window-maximized="0" />
  <metadata
     id="metadata7">
    <rdf:RDF>
      <cc:Work
         rdf:about="">
        <dc:format>image/svg+xml</dc:format>
        <dc:type
           rdf:resource="http://purl.org/dc/dcmitype/StillImage" />
        <dc:title />
      </cc:Work>
    </rdf:RDF>
  </metadata>
  <g
     inkscape:label="Layer 1"
     inkscape:groupmode="layer"
     id="layer1"
     transform="translate(0,48)">
    <g
       id="g4546"
       transform="translate(0,-48)">
      <g
         transform="translate(-0.62500009,0.082283)"
         inkscape:export-ydpi="90"
         inkscape:export-xdpi="90"
         inkscape:export-filename="folder.png"
         id="g3043" />
      <g
         style="fill:#ffffff"
         inkscape:label="#g3701"
         transform="matrix(1.0385892,0,0,1.0385892,1214.7222,1878.8121)"
         id="scalable" />
      <g
         id="layer1-5"
         inkscape:label="Layer 1"
         transform="translate(-4.4706248e-7,32)">
        <g
           transform="matrix(0.97513378,0,0,0.97660611,33.898696,9.6573789)"
           id="g12958">
          <path
             style="display:inline;opacity:0.15;fill:#000000;fill-opacity:1;fill-rule:nonzero;stroke:none;stroke-width:1.02472699"
             d="m 56.652901,-42.655212 h -84.384029 c -3.89572,0 -7.031995,3.131544 -7.031995,7.021398 V 48.623 c 0,3.889856 3.136275,7.0214 7.031995,7.0214 h 84.384029 c 3.895729,0 7.032006,-3.131544 7.032006,-7.0214 v -84.256814 c 0,-3.889854 -3.136277,-7.021398 -7.032006,-7.021398 z"
             id="path3288"
             inkscape:connector-curvature="0" />
          <path
             inkscape:connector-curvature="0"
             id="path4085"
             d="m 55.993652,-41.887247 h -83.065531 c -3.834851,0 -6.92212,3.082614 -6.92212,6.911689 v 82.940301 c 0,3.829078 3.087269,6.911692 6.92212,6.911692 h 83.065531 c 3.834861,0 6.92213,-3.082614 6.92213,-6.911692 v -82.940301 c 0,-3.829075 -3.087269,-6.911689 -6.92213,-6.911689 z"
             style="display:inline;opacity:0.15;fill:#000000;fill-opacity:1;fill-rule:nonzero;stroke:none;stroke-width:1.02472699" />
          <path
             style="display:inline;fill:url(#linearGradient4071);fill-opacity:1;fill-rule:nonzero;stroke:none;stroke-width:1.02472699"
             d="m 55.334398,-41.119281 h -81.74702 c -3.773988,0 -6.812252,3.033683 -6.812252,6.80198 v 81.62379 c 0,3.768297 3.038264,6.801981 6.812252,6.801981 h 81.74702 c 3.773988,0 6.812249,-3.033684 6.812249,-6.801981 v -81.62379 c 0,-3.768297 -3.038261,-6.80198 -6.812249,-6.80198 z"
             id="rect4251-1-0"
             inkscape:connector-curvature="0" />
          <path
             style="display:inline;opacity:0.9;fill:#e8e8e8;fill-opacity:1;fill-rule:nonzero;stroke:none;stroke-width:1.05495906"
             d="m -23.235175,-36.115071 c -2.929338,0 -5.254795,2.343195 -5.254795,5.294871 v 21.9406169 7.4128178 40.8697783 c 1.125219,1.724834 3.044555,2.879085 5.254795,2.879085 h 4.203836 67.261384 4.203836 c 2.210241,0 4.129576,-1.154251 5.254796,-2.879085 V -1.4667653 -8.8795831 -30.8202 c 0,-2.951676 -2.325458,-5.294871 -5.254796,-5.294871 z"
             id="path3400-6-9"
             inkscape:connector-curvature="0"
             sodipodi:nodetypes="sscccsccscccsss" />
          <path
             inkscape:connector-curvature="0"
             id="path4989-3"
             d="m -24.687502,-37.812461 c -3.196096,0 -5.8125,2.600343 -5.8125,5.781251 v 70.937502 c 0,3.180908 2.616404,5.78125 5.8125,5.78125 h 78.749998 c 3.196096,0 5.812503,-2.600342 5.812503,-5.78125 V -32.03121 c 0,-3.180907 -2.616407,-5.781251 -5.812503,-5.781251 z m 0,2.375 h 78.749998 c 1.936247,0 3.4375,1.51555 3.4375,3.406251 v 70.937502 c 0,1.890705 -1.501253,3.406249 -3.4375,3.406249 h -78.749998 c -1.936246,0 -3.4375,-1.515544 -3.4375,-3.406249 V -32.03121 c 0,-1.890701 1.501254,-3.406251 3.4375,-3.406251 z"
             style="color:#000000;font-style:normal;font-variant:normal;font-weight:normal;font-stretch:normal;font-size:medium;line-height:normal;font-family:Sans;-inkscape-font-specification:Sans;text-indent:0;text-align:start;text-decoration:none;text-decoration-line:none;letter-spacing:normal;word-spacing:normal;text-transform:none;writing-mode:lr-tb;direction:ltr;baseline-shift:baseline;text-anchor:start;display:inline;overflow:visible;visibility:visible;fill:#1f2224;fill-opacity:0.63265303;stroke:none;stroke-width:2.43423915;marker:none;enable-background:accumulate" />
          <path
             inkscape:connector-curvature="0"
             style="display:inline;opacity:0.65818182;fill:url(#linearGradient4129);fill-opacity:1;fill-rule:nonzero;stroke:none;stroke-width:1.02472699"
             d="m -33.224875,41.149047 v 6.143726 c 0,3.768297 3.051999,6.815696 6.825986,6.815696 h 81.719555 c 3.773988,0 6.825991,-3.047399 6.825991,-6.815696 v -6.143726 c 0,3.768298 -3.052003,6.815696 -6.825991,6.815696 h -81.719555 c -3.773987,0 -6.825986,-3.047398 -6.825986,-6.815696 z"
             id="path4118" />
          <rect
             style="opacity:0.55;fill:url(#radialGradient7462);fill-opacity:1;stroke:none;stroke-width:1.02472699"
             id="rect4131"
             width="86.398407"
             height="4.3518057"
             x="-29.25106"
             y="39.517124"
             rx="4.3583765"
             ry="4.3518057" />
          <rect
             ry="4.3583765"
             rx="4.3518057"
             y="-57.61908"
             x="-36.962029"
             height="4.3583765"
             width="78.588493"
             id="rect4141"
             style="opacity:0.669;fill:url(#radialGradient7464);fill-opacity:1;stroke:none;stroke-width:1.02472699"
             transform="rotate(90)" />
          <g
             id="g4359"
             transform="matrix(1.6460075,0,0,1.6435261,-24.732464,-37.249802)"
             style="stroke:#000000;stroke-width:0.56383568;stroke-miterlimit:4;stroke-dasharray:none;stroke-opacity:1">
            <ellipse
               ry="2.3675451"
               rx="6.6449099"
               cy="10.457643"
               cx="10.748654"
               transform="matrix(3.583369,0,0,3.000545,-14.70523,9.779617)"
               id="path3140"
               style="opacity:0.3;fill:url(#radialGradient4330);fill-opacity:1;stroke:#000000;stroke-width:0.1719518;stroke-miterlimit:4;stroke-dasharray:none;stroke-opacity:1" />
            <circle
               r="5.074944"
               cy="4.0385542"
               cx="10.555883"
               transform="matrix(1.477556,0,0,1.477551,8.403577,4.033323)"
               id="path4302"
               style="opacity:1;fill:#f57900;fill-opacity:1;stroke:#000000;stroke-width:0.38160086;stroke-miterlimit:4;stroke-dasharray:none;stroke-opacity:1" />
            <circle
               r="5.074944"
               cy="4.0385542"
               cx="10.555883"
               transform="matrix(1.280662,0,0,1.280662,10.48149,4.827989)"
               id="path4273"
               style="opacity:0.6;fill:url(#linearGradient2236);fill-opacity:1;stroke:#000000;stroke-width:0.44026893;stroke-miterlimit:4;stroke-dasharray:none;stroke-opacity:1" />
            <path
               inkscape:connector-curvature="0"
               sodipodi:nodetypes="czccccczccccc"
               id="rect2213"
               d="m 34.49131,8.6205284 c 0,5.3181546 -1.641579,11.8981596 -10.593112,11.8981596 -8.893688,0 -10.371487,-6.839193 -10.371487,-11.8586113 L 5.4949228,9.8762415 c 0,13.3610335 12.1693132,16.6775525 12.1693132,16.6775525 0,0 -8.4929822,7.744371 -8.4929822,17.851753 l 10.0660272,0.09271 c 0,0 2.219047,-8.933914 5.773288,-8.933914 3.641925,0 5.678131,8.907198 5.678131,8.907198 l 9.673594,0.03196 c 0,-11.493343 -9.980337,-17.925333 -9.980337,-17.925333 0,0 12.2328,-3.408053 12.2328,-17.0746545 z"
               style="fill:#f57900;fill-opacity:1;stroke:#000000;stroke-width:0.56383568;stroke-miterlimit:4;stroke-dasharray:none;stroke-opacity:1" />
            <path
               d="m 35.34375,9.671875 c -0.09816,2.492932 -0.510615,5.171654 -1.998047,7.417969 -1.69401,2.558289 -4.738098,4.382812 -9.447265,4.382812 -4.691034,0 -7.688518,-1.905685 -9.326172,-4.490234 -1.423149,-2.246017 -1.800713,-4.86352 -1.896485,-7.2304689 L 6.5390625,10.681641 c 0.2469881,5.872194 2.8966506,9.551294 5.6445315,11.808593 2.881653,2.367191 5.730468,3.144532 5.730468,3.144532 a 0.95262015,0.95262015 0 0 1 0.392579,1.623046 c 0,0 -7.569261,7.09196 -8.085938,16.205079 l 8.345703,0.07617 c 0.148547,-0.562354 0.475647,-1.934046 1.353516,-3.896484 0.52103,-1.16474 1.157944,-2.346797 1.960937,-3.296875 0.802994,-0.950078 1.841317,-1.734375 3.128907,-1.734375 1.298711,0 2.351296,0.779308 3.152343,1.730469 0.801048,0.951161 1.423665,2.133441 1.927735,3.296875 0.847006,1.954959 1.144118,3.313628 1.283203,3.880859 l 7.933594,0.02734 C 38.753534,33.228441 29.867187,27.378906 29.867188,27.378906 a 0.95262015,0.95262015 0 0 1 0.259765,-1.71875 c 0,0 2.861574,-0.798259 5.759766,-3.224609 2.760548,-2.311117 5.427486,-6.082116 5.68164,-12.087891 z"
               inkscape:href="#rect2213"
               id="path2220"
               style="opacity:0.6;fill:url(#radialGradient2211);fill-opacity:1;stroke:#000000;stroke-width:0.56383568;stroke-miterlimit:4;stroke-dasharray:none;stroke-opacity:1"
               xlink:href="#rect2213"
               inkscape:original="M 34.492188 8.6210938 C 34.492188 13.939248 32.849971 20.519531 23.898438 20.519531 C 15.00475 20.519531 13.527344 13.679575 13.527344 8.6601562 L 5.4941406 9.8769531 C 5.4941406 23.237987 17.664062 26.554688 17.664062 26.554688 C 17.664062 26.554688 9.171875 34.298868 9.171875 44.40625 L 19.236328 44.498047 C 19.236328 44.498047 21.455525 35.564453 25.009766 35.564453 C 28.651691 35.564453 30.689453 44.470703 30.689453 44.470703 L 40.361328 44.503906 C 40.361328 33.010563 30.382813 26.578125 30.382812 26.578125 C 30.382812 26.578125 42.615234 23.170508 42.615234 9.5039062 L 34.492188 8.6210938 z "
               inkscape:radius="-0.9525249"
               sodipodi:type="inkscape:offset" />
          </g>
          <rect
             transform="matrix(1.0965112,0,0,1.0727794,-30.358369,-3.2544881)"
             style="opacity:0.65;fill:url(#linearGradient4767);fill-opacity:1;stroke:none"
             id="rect4146"
             width="75.965775"
             height="69.024437"
             x="2"
             y="-30"
             rx="3.9569874"
             ry="3.9569881"
             clip-path="url(#clipPath4156-4-1)" />
        </g>
      </g>
    </g>
  </g>
</svg>
