<?xml version="1.0" encoding="UTF-8" standalone="no"?>
<svg
   xmlns:dc="http://purl.org/dc/elements/1.1/"
   xmlns:cc="http://creativecommons.org/ns#"
   xmlns:rdf="http://www.w3.org/1999/02/22-rdf-syntax-ns#"
   xmlns:svg="http://www.w3.org/2000/svg"
   xmlns="http://www.w3.org/2000/svg"
   xmlns:xlink="http://www.w3.org/1999/xlink"
   xmlns:sodipodi="http://sodipodi.sourceforge.net/DTD/sodipodi-0.dtd"
   xmlns:inkscape="http://www.inkscape.org/namespaces/inkscape"
   width="48"
   height="48"
   version="1.1"
   id="svg49"
   sodipodi:docname="im.vector.svg"
   inkscape:version="0.92.2 5c3e80d, 2017-08-06">
  <metadata
     id="metadata53">
    <rdf:RDF>
      <cc:Work
         rdf:about="">
        <dc:format>image/svg+xml</dc:format>
        <dc:type
           rdf:resource="http://purl.org/dc/dcmitype/StillImage" />
      </cc:Work>
    </rdf:RDF>
  </metadata>
  <sodipodi:namedview
     pagecolor="#ffffff"
     bordercolor="#666666"
     borderopacity="1"
     objecttolerance="10"
     gridtolerance="10"
     guidetolerance="10"
     inkscape:pageopacity="0"
     inkscape:pageshadow="2"
     inkscape:window-width="1280"
     inkscape:window-height="972"
     id="namedview51"
     showgrid="false"
     inkscape:zoom="15.249349"
     inkscape:cx="25.455171"
     inkscape:cy="13.638675"
     inkscape:window-x="0"
     inkscape:window-y="23"
     inkscape:window-maximized="1"
     inkscape:current-layer="g1013" />
  <defs
     id="defs15">
    <linearGradient
       id="linearGradient4416">
      <stop
         style="stop-color:#ffffff;stop-opacity:0"
         offset="0"
         id="stop2" />
      <stop
         style="stop-color:#ffffff;stop-opacity:1"
         offset="1"
         id="stop4" />
    </linearGradient>
    <linearGradient
       id="b"
       y1="23.775"
       x1="22.54"
       y2="44.054"
       x2="42.646"
       gradientUnits="userSpaceOnUse"
       gradientTransform="translate(30,0)">
      <stop
         stop-color="#292c2f"
         id="stop7" />
      <stop
         offset="1"
         stop-color="#292c2f"
         stop-opacity="0"
         id="stop9" />
    </linearGradient>
    <linearGradient
       xlink:href="#b"
       id="linearGradient4384"
       gradientUnits="userSpaceOnUse"
       gradientTransform="translate(-21.254237,21.152542)"
       x1="-21.261"
       y1="13.899"
       x2="10.555"
       y2="48.902" />
    <linearGradient
       xlink:href="#b"
       id="linearGradient4412"
       gradientUnits="userSpaceOnUse"
       gradientTransform="translate(-21.254237,21.152542)"
       x1="-7.283"
       y1="15.656"
       x2="11.881"
       y2="33.523" />
    <linearGradient
       xlink:href="#linearGradient4416"
       id="linearGradient4422"
       x1="-30.501"
       y1="28.25"
       x2="-10.501"
       y2="7.875"
       gradientUnits="userSpaceOnUse"
       gradientTransform="translate(51.254237,21.152542)" />
    <linearGradient
       inkscape:collect="always"
       xlink:href="#linearGradient6139-0"
       id="linearGradient4071"
       gradientUnits="userSpaceOnUse"
       gradientTransform="matrix(0.55126485,0,0,0.55126475,-2.460715,-1.9094496)"
       x1="6"
       y1="47.000011"
       x2="90"
       y2="47.000011" />
    <linearGradient
       id="linearGradient6139-0">
      <stop
         id="stop6141-2"
         offset="0"
         style="stop-color:#b2babc;stop-opacity:1" />
      <stop
         style="stop-color:#ffffff;stop-opacity:1;"
         offset="0.25"
         id="stop6151-0" />
      <stop
         style="stop-color:#96a1a4;stop-opacity:1"
         offset="0.5"
         id="stop6147-1" />
      <stop
         id="stop6149-4"
         offset="0.75"
         style="stop-color:#fbf9f9;stop-opacity:1;" />
      <stop
         id="stop6143-4"
         offset="1"
         style="stop-color:#b2b9bc;stop-opacity:1" />
    </linearGradient>
    <linearGradient
       gradientTransform="matrix(0.49791667,0,0,0.49791666,0.09999873,0.09999967)"
       inkscape:collect="always"
       xlink:href="#linearGradient3832-0-6-1-1"
       id="linearGradient4129"
       x1="1.5"
       y1="88.171875"
       x2="94.5"
       y2="88.171875"
       gradientUnits="userSpaceOnUse" />
    <linearGradient
       id="linearGradient3832-0-6-1-1">
      <stop
         style="stop-color:#000000;stop-opacity:1;"
         offset="0"
         id="stop3834-6-3-7-1" />
      <stop
         id="stop3872-2-4"
         offset="0.1"
         style="stop-color:#000000;stop-opacity:0.58823532;" />
      <stop
         style="stop-color:#000000;stop-opacity:0.58823532;"
         offset="0.89999998"
         id="stop3844-6-2-7-6" />
      <stop
         style="stop-color:#000000;stop-opacity:1;"
         offset="1"
         id="stop3836-5-0-2-9" />
    </linearGradient>
    <radialGradient
       inkscape:collect="always"
       xlink:href="#linearGradient3737"
       id="radialGradient7462"
       gradientUnits="userSpaceOnUse"
       gradientTransform="matrix(0.48553536,0,0,0.02449288,16.978724,40.016334)"
       cx="13.948145"
       cy="44.892841"
       fx="13.948145"
       fy="44.892841"
       r="43.199203" />
    <linearGradient
       id="linearGradient3737">
      <stop
         offset="0"
         style="stop-color:#ffffff;stop-opacity:1"
         id="stop3739" />
      <stop
         offset="1"
         style="stop-color:#ffffff;stop-opacity:0"
         id="stop3741" />
    </linearGradient>
    <radialGradient
       inkscape:collect="always"
       xlink:href="#linearGradient3737"
       id="radialGradient7464"
       gradientUnits="userSpaceOnUse"
       gradientTransform="matrix(0.44231264,0,0,0.02449288,15.806528,-44.996301)"
       cx="13.948145"
       cy="44.892841"
       fx="13.948145"
       fy="44.892841"
       r="43.199203" />
    <linearGradient
       inkscape:collect="always"
       xlink:href="#linearGradient3737"
       id="linearGradient4767"
       gradientUnits="userSpaceOnUse"
       x1="2.7713892"
       y1="-28.64156"
       x2="50.527882"
       y2="14.514202" />
    <clipPath
       id="clipPath4156-4-1"
       clipPathUnits="userSpaceOnUse">
      <path
         inkscape:connector-curvature="0"
         id="path4158-0-8"
         d="m 27.046336,-55.695463 -14.21366,13.321486 h 0.06127 l 15.653407,21.770763 10.231384,-10.546177 C 38.561832,-32.30156 27.468089,-54.819245 27.046336,-55.695463 Z M 9.6468554,-39.382809 -5.2407289,-25.32124 15.987863,-7.8059573 26.372412,-18.382966 Z m 31.4906096,12.951445 -9.741259,9.713584 8.944804,12.4580526 7.780753,-7.5550056 z m -49.8397109,4.378822 -13.7541661,12.9822847 26.2830181,13.84571 0.06127,-0.0617 -0.122531,-0.0617 L 13.598503,-5.4007374 -8.7022409,-22.052595 Z m 38.0154159,7.400825 -9.802525,9.7752596 11.579232,9.5594001 7.62759,-7.40083 -8.669108,-11.0087257 z m 20.187073,5.6739697 -7.382526,7.2158 6.187844,8.54179 5.820249,-6.13651996 z m -32.195166,6.32154 -9.5574606,9.49772 13.6622686,7.1849703 7.933918,-7.6783603 z m 23.311629,2.37443004 -7.10683,6.93826996 8.362778,6.9074403 5.360756,-5.6739699 -0.06127,-0.0925 -0.0919,0.12335 -6.463539,-8.20258036 z m -8.730374,8.54178036 -7.505057,7.3391599 10.353916,5.45811 c 1.397496,-1.32103 5.67514,-6.12292 5.850882,-6.32154 z"
         style="opacity:0.6;fill:#ffffff;fill-opacity:1;stroke:none" />
    </clipPath>
    <linearGradient
       id="ButtonShadow-16"
       gradientTransform="scale(1.0058652,0.994169)"
       x1="45.447727"
       y1="92.539597"
       x2="45.447727"
       y2="7.0165396"
       gradientUnits="userSpaceOnUse">
      <stop
         style="stop-color:#000000;stop-opacity:1;"
         offset="0"
         id="stop3750-6" />
      <stop
         style="stop-color:#000000;stop-opacity:0.58823532;"
         offset="1"
         id="stop3752-4" />
    </linearGradient>
    <clipPath
       clipPathUnits="userSpaceOnUse"
       id="clipPath4355-7">
      <rect
         style="fill:#ffffff;fill-opacity:1;fill-rule:nonzero;stroke:none"
         id="rect4357-5"
         width="84"
         height="80"
         x="6"
         y="6"
         rx="6"
         ry="6" />
    </clipPath>
    <clipPath
       clipPathUnits="userSpaceOnUse"
       id="clipPath4355-9">
      <rect
         style="fill:#ffffff;fill-opacity:1;fill-rule:nonzero;stroke:none"
         id="rect4357-1"
         width="84"
         height="80"
         x="6"
         y="6"
         rx="6"
         ry="6" />
    </clipPath>
    <clipPath
       clipPathUnits="userSpaceOnUse"
       id="clipPath4355-1">
      <rect
         style="fill:#ffffff;fill-opacity:1;fill-rule:nonzero;stroke:none"
         id="rect4357-9"
         width="84"
         height="80"
         x="6"
         y="6"
         rx="6"
         ry="6" />
    </clipPath>
    <clipPath
       clipPathUnits="userSpaceOnUse"
       id="clipPath3943-52-0">
      <path
         id="path3945-4-1"
         d="m 69.78125,20.84375 -5,3.4375 c 5.586891,5.537137 9,13.327613 9,21.8125 0,8.434478 -3.37723,16.095981 -8.90625,21.625 l 5,3.4375 C 76.078226,64.5762 80,55.843726 80,46.09375 c 2e-6,-9.796556 -3.962955,-18.660417 -10.21875,-25.25 z M 40,24.0625 28.90625,36.21875 H 21.5 c -0.823281,0 -1.5,0.676717 -1.5,1.5 v 1 14.84375 1 c 0,0.823281 0.684121,1.610161 1.5,1.5 h 7.40625 L 40,68 V 66 26.0625 Z m 20.59375,3.28125 -5,3.4375 L 55.5,30.875 c 3.93815,3.890071 6.40625,9.25018 6.40625,15.21875 0,5.920869 -2.42961,11.148358 -6.3125,15.03125 l 0.09375,0.09375 5.09375,3.4375 c 4.475428,-4.908367 7.25,-11.402005 7.25,-18.5625 0,-7.230696 -2.87904,-13.83107 -7.4375,-18.75 z m -9.25,6.5 -5.21875,3.625 c 2.222384,2.217802 3.71875,5.239596 3.71875,8.625 0,3.336509 -1.458847,6.227712 -3.625,8.4375 l 5.21875,3.625 c 2.822412,-3.236947 4.53125,-7.43414 4.53125,-12.0625 0,-4.672601 -1.754155,-9.001351 -4.625,-12.25 z"
         style="color:#000000;display:inline;overflow:visible;visibility:visible;opacity:0.8;fill:#ff00ff;fill-opacity:1;fill-rule:nonzero;stroke:none;stroke-width:1;marker:none;enable-background:accumulate"
         inkscape:connector-curvature="0" />
    </clipPath>
  </defs>
  <path
     style="display:inline;opacity:0.15;fill:#000000;fill-opacity:1;fill-rule:nonzero;stroke:none;stroke-width:0.49791667"
     d="M 44.485713,0.09999967 H 3.5142818 c -1.8915097,0 -3.41428187,1.52277053 -3.41428187,3.41428433 v 40.97143 C 0.09999993,46.377228 1.6227721,47.9 3.5142818,47.9 H 44.485713 C 46.377226,47.9 47.9,46.377228 47.9,44.485714 V 3.514284 c 0,-1.8915138 -1.522774,-3.41428433 -3.414287,-3.41428433 z"
     id="path3288"
     inkscape:connector-curvature="0" />
  <path
     inkscape:connector-curvature="0"
     id="path4085"
     d="M 44.165624,0.47343717 H 3.8343706 c -1.8619555,0 -3.36093407,1.49897713 -3.36093407,3.36093553 V 44.165625 c 0,1.861959 1.49897857,3.360937 3.36093407,3.360937 H 44.165624 c 1.86196,0 3.360939,-1.498978 3.360939,-3.360937 V 3.8343727 c 0,-1.8619584 -1.498979,-3.36093553 -3.360939,-3.36093553 z"
     style="display:inline;opacity:0.15;fill:#000000;fill-opacity:1;fill-rule:nonzero;stroke:none;stroke-width:0.49791667" />
  <path
     style="display:inline;fill:url(#linearGradient4071);fill-opacity:1;fill-rule:nonzero;stroke:none;stroke-width:0.49791667"
     d="M 43.845532,0.84687467 H 4.1544633 c -1.8324046,0 -3.30758907,1.47518463 -3.30758907,3.30758773 V 43.845536 c 0,1.832405 1.47518447,3.307589 3.30758907,3.307589 H 43.845532 c 1.832405,0 3.307588,-1.475185 3.307588,-3.307589 V 4.1544624 c 0,-1.8324031 -1.475183,-3.30758773 -3.307588,-3.30758773 z"
     id="rect4251-1"
     inkscape:connector-curvature="0" />
  <path
     style="display:inline;opacity:0.99;fill:#14b56a;fill-opacity:1;fill-rule:nonzero;stroke:none;stroke-width:0.51566219"
     d="m 5.6972261,3.2802641 c -1.4222972,0 -2.551389,1.1530465 -2.551389,2.6055173 v 10.7966076 3.647723 20.111331 c 0.5463341,0.848762 1.4782393,1.416749 2.551389,1.416749 H 7.7383374 40.396118 43.2187 c 1.073151,0 1.223584,0.01811 1.769919,-0.830645 V 20.330112 16.682389 5.8857814 c 0,-1.4524708 -1.129092,-2.6055173 -2.55139,-2.6055173 z"
     id="path3400-6"
     inkscape:connector-curvature="0"
     sodipodi:nodetypes="sscccsccscccsss" />
  <path
     inkscape:connector-curvature="0"
     id="path4989"
     d="m 4.9920701,2.4548766 c -1.5518175,0 -2.8221742,1.2644644 -2.8221742,2.8112405 V 39.760786 c 0,1.546775 1.2703567,2.811239 2.8221742,2.811239 H 43.227979 c 1.551818,0 2.822176,-1.264464 2.822176,-2.811239 V 5.2661171 c 0,-1.5467751 -1.270358,-2.8112405 -2.822176,-2.8112405 z m 0,1.1548879 H 43.227979 c 0.940117,0 1.669028,0.7369634 1.669028,1.6563526 V 39.760786 c 0,0.91939 -0.728911,1.65635 -1.669028,1.65635 H 4.9920701 c -0.9401159,0 -1.6690276,-0.73696 -1.6690276,-1.65635 V 5.2661171 c 0,-0.9193892 0.7289117,-1.6563526 1.6690276,-1.6563526 z"
     style="color:#000000;font-style:normal;font-variant:normal;font-weight:normal;font-stretch:normal;font-size:medium;line-height:normal;font-family:Sans;-inkscape-font-specification:Sans;text-indent:0;text-align:start;text-decoration:none;text-decoration-line:none;letter-spacing:normal;word-spacing:normal;text-transform:none;writing-mode:lr-tb;direction:ltr;baseline-shift:baseline;text-anchor:start;display:inline;overflow:visible;visibility:visible;fill:#1f2224;fill-opacity:0.80869565;stroke:none;stroke-width:1.18280113;marker:none;enable-background:accumulate" />
  <path
     inkscape:connector-curvature="0"
     style="display:inline;opacity:0.65818182;fill:url(#linearGradient4129);fill-opacity:1;fill-rule:nonzero;stroke:none;stroke-width:0.49791667"
     d="m 0.84687373,40.851367 v 2.9875 c 0,1.832404 1.48185307,3.314258 3.31425767,3.314258 H 43.838865 c 1.832405,0 3.31426,-1.481854 3.31426,-3.314258 v -2.9875 c 0,1.832404 -1.481855,3.314258 -3.31426,3.314258 H 4.1611314 c -1.8324046,0 -3.31425767,-1.481854 -3.31425767,-3.314258 z"
     id="path4118" />
  <rect
     style="opacity:0.55;fill:url(#radialGradient7462);fill-opacity:1;stroke:none;stroke-width:0.49791667"
     id="rect4131"
     width="41.949482"
     height="2.1161458"
     x="2.7763009"
     y="40.057812"
     rx="2.1161458"
     ry="2.1161458" />
  <rect
     ry="2.1161458"
     rx="2.1161458"
     y="-44.954826"
     x="2.8684161"
     height="2.1161458"
     width="38.215103"
     id="rect4141"
     style="opacity:0.669;fill:url(#radialGradient7464);fill-opacity:1;stroke:none;stroke-width:0.49791667"
     transform="rotate(90)" />
  <rect
     transform="matrix(0.53239495,0,0,0.52165878,2.2386637,19.259328)"
     style="opacity:0.7;fill:url(#linearGradient4767);fill-opacity:1;stroke:none"
     id="rect4146"
     width="75.965775"
     height="69.024437"
     x="2"
     y="-30"
     rx="3.9569874"
     ry="3.9569881"
     clip-path="url(#clipPath4156-4-1)" />
  <g
     transform="matrix(1.1169579,0,0,1.1169579,55.198479,-28.173696)"
     id="g1013"
     style="stroke-width:0.89528888">
    <path
       style="color:#000000;font-style:normal;font-variant:normal;font-weight:normal;font-stretch:normal;font-size:medium;line-height:normal;font-family:sans-serif;font-variant-ligatures:normal;font-variant-position:normal;font-variant-caps:normal;font-variant-numeric:normal;font-variant-alternates:normal;font-feature-settings:normal;text-indent:0;text-align:start;text-decoration:none;text-decoration-line:none;text-decoration-style:solid;text-decoration-color:#000000;letter-spacing:normal;word-spacing:normal;text-transform:none;writing-mode:lr-tb;direction:ltr;text-orientation:mixed;dominant-baseline:auto;baseline-shift:baseline;text-anchor:start;white-space:normal;shape-padding:0;clip-rule:nonzero;display:inline;overflow:visible;visibility:visible;opacity:1;isolation:auto;mix-blend-mode:normal;color-interpolation:sRGB;color-interpolation-filters:linearRGB;solid-color:#000000;solid-opacity:1;vector-effect:none;fill:#000000;fill-opacity:0.13839285;fill-rule:nonzero;stroke:none;stroke-width:2.4172802;stroke-linecap:butt;stroke-linejoin:miter;stroke-miterlimit:4;stroke-dasharray:none;stroke-dashoffset:0;stroke-opacity:1;marker:none;color-rendering:auto;image-rendering:auto;shape-rendering:auto;text-rendering:auto;enable-background:accumulate"
       d="m -27.296875,29.630859 c -1.707141,-0.11267 -2.851122,1.359559 -3.577073,2.614456 -1.984518,1.146453 -3.969485,2.292128 -5.954177,3.438279 -2.095053,-1.112863 -4.882131,0.53305 -5.03996,2.867032 -0.218949,1.400521 0.72318,2.684167 1.737226,3.448762 0,2.189006 0,4.378012 0,6.567018 -1.911444,1.030604 -2.345145,3.854026 -0.821215,5.399171 1.068956,1.224016 3.026712,1.56863 4.397386,0.643798 1.954427,1.129557 3.908855,2.259115 5.863282,3.388672 0.49059,2.238933 3.3734,3.464511 5.273042,2.116639 1.129144,-0.494334 1.08104,-2.000958 2.223679,-2.389039 1.770624,-1.022482 3.541249,-2.044963 5.311873,-3.067444 2.022098,1.319832 4.944905,-0.213429 5.220141,-2.550305 0.236345,-1.332407 -0.452066,-2.710284 -1.565845,-3.441882 0,-2.283854 0,-4.567709 0,-6.851563 1.800289,-1.088353 2.145755,-3.802005 0.672777,-5.300446 -0.983941,-1.117856 -2.699907,-1.504558 -4.057542,-0.877288 -2.119792,-1.224609 -4.239583,-2.449219 -6.359375,-3.673828 -0.500576,-1.359383 -1.864062,-2.350513 -3.324219,-2.332032 z m 0,3.160157 c 1.297891,0.484519 -0.87535,1.387185 -0.290391,0.127625 l 0.133501,-0.0928 0.15689,-0.03478 z m 2.078125,3.246093 c 1.834635,1.059896 3.669271,2.119792 5.503906,3.179688 0.371234,0.783206 -0.02304,1.399385 -0.446403,2.047902 -2.356407,4.08234 -4.712815,8.16468 -7.069222,12.24702 -2.58138,-4.472005 -5.16276,-8.944011 -7.74414,-13.416016 -0.07014,-0.880237 0.633261,-1.155696 1.285812,-1.509681 1.452907,-0.839872 2.905813,-1.679744 4.358719,-2.519616 1.20098,0.957891 2.920187,0.943277 4.111328,-0.0293 z m -13.089844,2.458985 c 1.300849,0.486402 -0.878296,1.386469 -0.291367,0.127625 l 0.134172,-0.0928 0.157195,-0.03478 z m 22.109375,0 c 1.303249,0.483131 -0.87565,1.38871 -0.290391,0.127625 l 0.133501,-0.0928 0.15689,-0.03478 z m -19.951172,7.55664 c 1.222005,2.116537 2.444011,4.233073 3.666016,6.34961 -0.785156,-0.453776 -1.570313,-0.907552 -2.355469,-1.361328 0.07096,-1.31835 -1.587602,-1.831094 -1.310547,-3.099357 0,-0.629641 0,-1.259283 0,-1.888925 z m 17.802735,0.06445 c 0,0.889974 0,1.779947 0,2.669921 -1.20162,0.574902 -0.811181,2.286904 -2.045473,2.682554 -0.521952,0.301779 -1.043903,0.603558 -1.565855,0.905337 1.203776,-2.085937 2.407552,-4.171875 3.611328,-6.257812 z m -19.960938,3.449218 c 0.08659,-0.009 0.02246,0.01449 0,0 z m 22.109375,0 c 0.09063,-0.0096 0.02362,0.01508 0,0 z m -22.109375,1.580078 c 1.295912,0.490007 -0.878404,1.388108 -0.29137,0.128602 l 0.134172,-0.09347 0.157195,-0.03509 z m 22.109375,0 c 1.298315,0.486722 -0.875769,1.390355 -0.290394,0.128602 l 0.133501,-0.09347 0.15689,-0.03509 z m -11.097656,5.53125 c 1.303249,0.483132 -0.87565,1.388711 -0.290391,0.127625 l 0.133501,-0.0928 0.15689,-0.03478 z"
       id="path906"
       inkscape:connector-curvature="0" />
    <path
       id="path35"
       style="color:#000000;clip-rule:nonzero;display:inline;overflow:visible;visibility:visible;opacity:1;isolation:auto;mix-blend-mode:normal;color-interpolation:sRGB;color-interpolation-filters:linearRGB;solid-color:#000000;solid-opacity:1;fill:#000000;fill-opacity:0.20982145;fill-rule:nonzero;stroke:none;stroke-width:0.89528888;stroke-linecap:butt;stroke-linejoin:miter;stroke-miterlimit:4;stroke-dasharray:none;stroke-dashoffset:0;stroke-opacity:1;color-rendering:auto;image-rendering:auto;shape-rendering:auto;text-rendering:auto;enable-background:accumulate"
       d="m -36.676112,37.215042 -3.015625,0.34375 -0.34375,2.96875 7.181641,7.166016 3.144531,7.117187 1.457031,1.453125 -0.949219,2.238281 5.242072,4.380837 C -5.7068,63.846853 -7.9517004,63.229664 -8.392909,51.017775 l -8.972656,-8.927734 -5.763672,8.500001 z m 18.859377,3.499999 9.3627001,9.29262 0.1117704,-6.16476 -6.2869705,-6.690361 -2.625,0.40625 z"
       inkscape:connector-curvature="0"
       sodipodi:nodetypes="cccccccccccccccccc" />
    <path
       id="path33"
       style="color:#000000;clip-rule:nonzero;display:inline;overflow:visible;visibility:visible;opacity:1;isolation:auto;mix-blend-mode:normal;color-interpolation:sRGB;color-interpolation-filters:linearRGB;solid-color:#000000;solid-opacity:1;fill:#e9e9e9;fill-opacity:1;fill-rule:nonzero;stroke:none;stroke-width:0.56688553;stroke-linecap:butt;stroke-linejoin:miter;stroke-miterlimit:4;stroke-dasharray:none;stroke-dashoffset:0;stroke-opacity:1;marker:none;color-rendering:auto;image-rendering:auto;shape-rendering:auto;text-rendering:auto;enable-background:accumulate"
       d="m -38.309419,49.196498 a 2.3689674,2.3689674 0 0 0 -2.368967,2.368967 2.3689674,2.3689674 0 0 0 2.368967,2.368968 2.3689674,2.3689674 0 0 0 2.368968,-2.368968 2.3689674,2.3689674 0 0 0 -2.368968,-2.368967 z m -0.05553,1.579312 a 0.7896558,0.7896558 0 0 1 0.05553,0 0.7896558,0.7896558 0 0 1 0.789656,0.789655 0.7896558,0.7896558 0 0 1 -0.789656,0.789656 0.7896558,0.7896558 0 0 1 -0.789655,-0.789656 0.7896558,0.7896558 0 0 1 0.734133,-0.789655 z m 22.165893,-1.579312 a 2.3689674,2.3689674 0 0 0 -2.368968,2.368967 2.3689674,2.3689674 0 0 0 2.368968,2.368968 2.3689674,2.3689674 0 0 0 2.368967,-2.368968 2.3689674,2.3689674 0 0 0 -2.368967,-2.368967 z m -0.05553,1.579312 a 0.7896558,0.7896558 0 0 1 0.05553,0 0.7896558,0.7896558 0 0 1 0.789656,0.789655 0.7896558,0.7896558 0 0 1 -0.789656,0.789656 0.7896558,0.7896558 0 0 1 -0.789656,-0.789656 0.7896558,0.7896558 0 0 1 0.734133,-0.789655 z M -27.29668,30.84006 a 2.3689674,2.3689674 0 0 0 -2.368967,2.368967 2.3689674,2.3689674 0 0 0 2.368967,2.368968 2.3689674,2.3689674 0 0 0 2.368968,-2.368968 2.3689674,2.3689674 0 0 0 -2.368968,-2.368967 z m -0.05553,1.579312 a 0.7896558,0.7896558 0 0 1 0.05553,0 0.7896558,0.7896558 0 0 1 0.789656,0.789655 0.7896558,0.7896558 0 0 1 -0.789656,0.789656 0.7896558,0.7896558 0 0 1 -0.789656,-0.789656 0.7896558,0.7896558 0 0 1 0.734134,-0.789655 z m 3.488682,1.002492 a 3.363519,3.363519 0 0 1 -0.502788,1.711949 l 4.947686,2.859418 a 3.3505631,3.3505631 0 0 1 0.931548,-1.465181 z m -6.721328,0.05244 -5.404206,3.121608 a 3.3505631,3.3505631 0 0 1 0.863686,1.425082 l 5.027885,-2.905686 a 3.363519,3.363519 0 0 1 -0.487365,-1.641006 z m -6.773767,8.720144 a 3.3505631,3.3505631 0 0 1 -0.971646,0.144981 3.3505631,3.3505631 0 0 1 -0.592242,-0.05243 v 6.058141 a 3.3505631,3.3505631 0 0 1 0.592242,-0.05553 3.3505631,3.3505631 0 0 1 0.971646,0.144981 v -6.240132 z m 20.219508,0.01548 v 6.209286 a 3.3505631,3.3505631 0 0 1 0.919209,-0.129551 3.3505631,3.3505631 0 0 1 0.783487,0.09871 v -6.144509 a 3.3505631,3.3505631 0 0 1 -0.783487,0.09563 3.3505631,3.3505631 0 0 1 -0.919209,-0.129551 z m -17.909147,10.108154 a 3.3505631,3.3505631 0 0 1 -0.65085,1.39115 l 5.132763,2.964294 a 3.3505631,3.3505631 0 0 1 0.515127,-1.468265 z m 15.555602,0.02776 -4.92301,2.843994 a 3.3505631,3.3505631 0 0 1 0.524381,1.542297 l 5.101917,-2.945787 a 3.3505631,3.3505631 0 0 1 -0.703288,-1.440504 z" />
    <path
       id="path43"
       style="color:#000000;clip-rule:nonzero;display:inline;overflow:visible;visibility:visible;opacity:1;isolation:auto;mix-blend-mode:normal;color-interpolation:sRGB;color-interpolation-filters:linearRGB;solid-color:#000000;solid-opacity:1;fill:#ffffff;fill-opacity:1;fill-rule:nonzero;stroke:none;stroke-width:0.56688553;stroke-linecap:butt;stroke-linejoin:miter;stroke-miterlimit:4;stroke-dasharray:none;stroke-dashoffset:0;stroke-opacity:1;marker:none;color-rendering:auto;image-rendering:auto;shape-rendering:auto;text-rendering:auto;enable-background:accumulate"
       d="m -18.730765,41.204292 -7.316654,12.674593 a 3.3505631,3.3505631 0 0 1 1.307867,0.894532 l 7.310485,-12.665339 a 3.3505631,3.3505631 0 0 1 -1.301698,-0.903786 z m -17.033122,-0.05861 a 3.3505631,3.3505631 0 0 1 -1.283191,0.934632 l 7.325908,12.690015 a 3.3505631,3.3505631 0 0 1 1.304783,-0.894531 z m 8.467207,13.581404 a 2.3689674,2.3689674 0 0 0 -2.368967,2.368968 2.3689674,2.3689674 0 0 0 2.368967,2.368967 2.3689674,2.3689674 0 0 0 2.368968,-2.368967 2.3689674,2.3689674 0 0 0 -2.368968,-2.368968 z m -0.05553,1.579312 a 0.7896558,0.7896558 0 0 1 0.05553,0 0.7896558,0.7896558 0 0 1 0.789656,0.789656 0.7896558,0.7896558 0 0 1 -0.789656,0.789655 0.7896558,0.7896558 0 0 1 -0.789656,-0.789655 0.7896558,0.7896558 0 0 1 0.734134,-0.789656 z M -38.309419,36.545422 a 2.3689674,2.3689674 0 0 0 -2.368967,2.368968 2.3689674,2.3689674 0 0 0 2.368967,2.368967 2.3689674,2.3689674 0 0 0 2.368968,-2.368967 2.3689674,2.3689674 0 0 0 -2.368968,-2.368968 z m -0.05553,1.579312 a 0.7896558,0.7896558 0 0 1 0.05553,0 0.7896558,0.7896558 0 0 1 0.789656,0.789656 0.7896558,0.7896558 0 0 1 -0.789656,0.789656 0.7896558,0.7896558 0 0 1 -0.789655,-0.789656 0.7896558,0.7896558 0 0 1 0.734133,-0.789656 z m 22.165893,-1.579312 a 2.3689674,2.3689674 0 0 0 -2.368968,2.368968 2.3689674,2.3689674 0 0 0 2.368968,2.368967 2.3689674,2.3689674 0 0 0 2.368967,-2.368967 2.3689674,2.3689674 0 0 0 -2.368967,-2.368968 z m -0.05553,1.579312 a 0.7896558,0.7896558 0 0 1 0.05553,0 0.7896558,0.7896558 0 0 1 0.789656,0.789656 0.7896558,0.7896558 0 0 1 -0.789656,0.789656 0.7896558,0.7896558 0 0 1 -0.789656,-0.789656 0.7896558,0.7896558 0 0 1 0.734133,-0.789656 z" />
  </g>
</svg>
