<?xml version="1.0" encoding="UTF-8" standalone="no"?>
<svg
   xmlns:dc="http://purl.org/dc/elements/1.1/"
   xmlns:cc="http://creativecommons.org/ns#"
   xmlns:rdf="http://www.w3.org/1999/02/22-rdf-syntax-ns#"
   xmlns:svg="http://www.w3.org/2000/svg"
   xmlns="http://www.w3.org/2000/svg"
   xmlns:xlink="http://www.w3.org/1999/xlink"
   xmlns:sodipodi="http://sodipodi.sourceforge.net/DTD/sodipodi-0.dtd"
   xmlns:inkscape="http://www.inkscape.org/namespaces/inkscape"
   viewBox="0 0 48 48"
   id="svg2"
   version="1.1"
   inkscape:version="0.92.2 5c3e80d, 2017-08-06"
   sodipodi:docname="infinite.svg">
  <metadata
     id="metadata33">
    <rdf:RDF>
      <cc:Work
         rdf:about="">
        <dc:format>image/svg+xml</dc:format>
        <dc:type
           rdf:resource="http://purl.org/dc/dcmitype/StillImage" />
      </cc:Work>
    </rdf:RDF>
  </metadata>
  <sodipodi:namedview
     pagecolor="#ffffff"
     bordercolor="#666666"
     borderopacity="1"
     objecttolerance="10"
     gridtolerance="10"
     guidetolerance="10"
     inkscape:pageopacity="0"
     inkscape:pageshadow="2"
     inkscape:window-width="1280"
     inkscape:window-height="943"
     id="namedview31"
     showgrid="false"
     inkscape:zoom="2.8284271"
     inkscape:cx="28.16509"
     inkscape:cy="26.686157"
     inkscape:window-x="0"
     inkscape:window-y="19"
     inkscape:window-maximized="1"
     inkscape:current-layer="svg2"
     inkscape:snap-smooth-nodes="true"
     inkscape:object-nodes="true">
    <inkscape:grid
       type="xygrid"
       id="grid4265" />
  </sodipodi:namedview>
  <defs
     id="defs4">
    <linearGradient
       id="linearGradient3764"
       x1="1"
       x2="47"
       gradientUnits="userSpaceOnUse"
       gradientTransform="rotate(-90,-44.808474,20.951641)">
      <stop
         id="stop7"
         stop-color="#cb3131" />
      <stop
         offset="1"
         id="stop9"
         stop-color="#d14040" />
    </linearGradient>
    <linearGradient
       inkscape:collect="always"
       xlink:href="#linearGradient6139-0"
       id="linearGradient4071"
       gradientUnits="userSpaceOnUse"
       gradientTransform="matrix(0.55126485,0,0,0.55126475,-2.460715,-1.9094496)"
       x1="6"
       y1="47.000011"
       x2="90"
       y2="47.000011" />
    <linearGradient
       id="linearGradient6139-0">
      <stop
         id="stop6141-2"
         offset="0"
         style="stop-color:#b2babc;stop-opacity:1" />
      <stop
         style="stop-color:#ffffff;stop-opacity:1;"
         offset="0.25"
         id="stop6151-0" />
      <stop
         style="stop-color:#96a1a4;stop-opacity:1"
         offset="0.5"
         id="stop6147-1" />
      <stop
         id="stop6149-4"
         offset="0.75"
         style="stop-color:#fbf9f9;stop-opacity:1;" />
      <stop
         id="stop6143-4"
         offset="1"
         style="stop-color:#b2b9bc;stop-opacity:1" />
    </linearGradient>
    <linearGradient
       gradientTransform="matrix(0.49791667,0,0,0.49791666,0.09999868,0.09999967)"
       inkscape:collect="always"
       xlink:href="#linearGradient3832-0-6-1-1"
       id="linearGradient4129"
       x1="1.5"
       y1="88.171875"
       x2="94.5"
       y2="88.171875"
       gradientUnits="userSpaceOnUse" />
    <linearGradient
       id="linearGradient3832-0-6-1-1">
      <stop
         style="stop-color:#000000;stop-opacity:1;"
         offset="0"
         id="stop3834-6-3-7-1" />
      <stop
         id="stop3872-2-4"
         offset="0.1"
         style="stop-color:#000000;stop-opacity:0.58823532;" />
      <stop
         style="stop-color:#000000;stop-opacity:0.58823532;"
         offset="0.89999998"
         id="stop3844-6-2-7-6" />
      <stop
         style="stop-color:#000000;stop-opacity:1;"
         offset="1"
         id="stop3836-5-0-2-9" />
    </linearGradient>
    <radialGradient
       inkscape:collect="always"
       xlink:href="#linearGradient3737"
       id="radialGradient7462"
       gradientUnits="userSpaceOnUse"
       gradientTransform="matrix(0.48553536,0,0,0.02449288,16.978724,40.016334)"
       cx="13.948145"
       cy="44.892841"
       fx="13.948145"
       fy="44.892841"
       r="43.199203" />
    <linearGradient
       id="linearGradient3737">
      <stop
         offset="0"
         style="stop-color:#ffffff;stop-opacity:1"
         id="stop3739" />
      <stop
         offset="1"
         style="stop-color:#ffffff;stop-opacity:0"
         id="stop3741" />
    </linearGradient>
    <radialGradient
       inkscape:collect="always"
       xlink:href="#linearGradient3737"
       id="radialGradient7464"
       gradientUnits="userSpaceOnUse"
       gradientTransform="matrix(0.44231264,0,0,0.02449288,15.806528,-44.996301)"
       cx="13.948145"
       cy="44.892841"
       fx="13.948145"
       fy="44.892841"
       r="43.199203" />
    <linearGradient
       inkscape:collect="always"
       xlink:href="#linearGradient3737"
       id="linearGradient4767"
       gradientUnits="userSpaceOnUse"
       x1="2.7713892"
       y1="-28.64156"
       x2="50.527882"
       y2="14.514202" />
    <clipPath
       id="clipPath4156-4-1"
       clipPathUnits="userSpaceOnUse">
      <path
         inkscape:connector-curvature="0"
         id="path4158-0-8"
         d="m 27.046336,-55.695463 -14.21366,13.321486 h 0.06127 l 15.653407,21.770763 10.231384,-10.546177 C 38.561832,-32.30156 27.468089,-54.819245 27.046336,-55.695463 Z M 9.6468554,-39.382809 -5.2407289,-25.32124 15.987863,-7.8059573 26.372412,-18.382966 Z m 31.4906096,12.951445 -9.741259,9.713584 8.944804,12.4580526 7.780753,-7.5550056 z m -49.8397109,4.378822 -13.7541661,12.9822847 26.2830181,13.84571 0.06127,-0.0617 -0.122531,-0.0617 L 13.598503,-5.4007374 -8.7022409,-22.052595 Z m 38.0154159,7.400825 -9.802525,9.7752596 11.579232,9.5594001 7.62759,-7.40083 -8.669108,-11.0087257 z m 20.187073,5.6739697 -7.382526,7.2158 6.187844,8.54179 5.820249,-6.13651996 z m -32.195166,6.32154 -9.5574606,9.49772 13.6622686,7.1849703 7.933918,-7.6783603 z m 23.311629,2.37443004 -7.10683,6.93826996 8.362778,6.9074403 5.360756,-5.6739699 -0.06127,-0.0925 -0.0919,0.12335 -6.463539,-8.20258036 z m -8.730374,8.54178036 -7.505057,7.3391599 10.353916,5.45811 c 1.397496,-1.32103 5.67514,-6.12292 5.850882,-6.32154 z"
         style="opacity:0.6;fill:#ffffff;fill-opacity:1;stroke:none" />
    </clipPath>
    <linearGradient
       id="ButtonShadow-16"
       gradientTransform="scale(1.0058652,0.994169)"
       x1="45.447727"
       y1="92.539597"
       x2="45.447727"
       y2="7.0165396"
       gradientUnits="userSpaceOnUse">
      <stop
         style="stop-color:#000000;stop-opacity:1;"
         offset="0"
         id="stop3750-6" />
      <stop
         style="stop-color:#000000;stop-opacity:0.58823532;"
         offset="1"
         id="stop3752-4" />
    </linearGradient>
    <clipPath
       clipPathUnits="userSpaceOnUse"
       id="clipPath4355-7">
      <rect
         style="fill:#ffffff;fill-opacity:1;fill-rule:nonzero;stroke:none"
         id="rect4357-5"
         width="84"
         height="80"
         x="6"
         y="6"
         rx="6"
         ry="6" />
    </clipPath>
    <clipPath
       clipPathUnits="userSpaceOnUse"
       id="clipPath4355-9">
      <rect
         style="fill:#ffffff;fill-opacity:1;fill-rule:nonzero;stroke:none"
         id="rect4357-1"
         width="84"
         height="80"
         x="6"
         y="6"
         rx="6"
         ry="6" />
    </clipPath>
    <clipPath
       clipPathUnits="userSpaceOnUse"
       id="clipPath4355-1">
      <rect
         style="fill:#ffffff;fill-opacity:1;fill-rule:nonzero;stroke:none"
         id="rect4357-9"
         width="84"
         height="80"
         x="6"
         y="6"
         rx="6"
         ry="6" />
    </clipPath>
    <clipPath
       clipPathUnits="userSpaceOnUse"
       id="clipPath3943-52-0">
      <path
         id="path3945-4-1"
         d="m 69.78125,20.84375 -5,3.4375 c 5.586891,5.537137 9,13.327613 9,21.8125 0,8.434478 -3.37723,16.095981 -8.90625,21.625 l 5,3.4375 C 76.078226,64.5762 80,55.843726 80,46.09375 c 2e-6,-9.796556 -3.962955,-18.660417 -10.21875,-25.25 z M 40,24.0625 28.90625,36.21875 H 21.5 c -0.823281,0 -1.5,0.676717 -1.5,1.5 v 1 14.84375 1 c 0,0.823281 0.684121,1.610161 1.5,1.5 h 7.40625 L 40,68 V 66 26.0625 Z m 20.59375,3.28125 -5,3.4375 L 55.5,30.875 c 3.93815,3.890071 6.40625,9.25018 6.40625,15.21875 0,5.920869 -2.42961,11.148358 -6.3125,15.03125 l 0.09375,0.09375 5.09375,3.4375 c 4.475428,-4.908367 7.25,-11.402005 7.25,-18.5625 0,-7.230696 -2.87904,-13.83107 -7.4375,-18.75 z m -9.25,6.5 -5.21875,3.625 c 2.222384,2.217802 3.71875,5.239596 3.71875,8.625 0,3.336509 -1.458847,6.227712 -3.625,8.4375 l 5.21875,3.625 c 2.822412,-3.236947 4.53125,-7.43414 4.53125,-12.0625 0,-4.672601 -1.754155,-9.001351 -4.625,-12.25 z"
         style="color:#000000;display:inline;overflow:visible;visibility:visible;opacity:0.8;fill:#ff00ff;fill-opacity:1;fill-rule:nonzero;stroke:none;stroke-width:1;marker:none;enable-background:accumulate"
         inkscape:connector-curvature="0" />
    </clipPath>
  </defs>
  <path
     style="display:inline;opacity:0.15;fill:#000000;fill-opacity:1;fill-rule:nonzero;stroke:none;stroke-width:0.49791667"
     d="M 44.485713,0.09999967 H 3.5142818 c -1.8915098,0 -3.41428192,1.52277053 -3.41428192,3.41428433 v 40.97143 C 0.09999988,46.377228 1.622772,47.9 3.5142818,47.9 H 44.485713 C 46.377226,47.9 47.9,46.377228 47.9,44.485714 V 3.514284 c 0,-1.8915138 -1.522774,-3.41428433 -3.414287,-3.41428433 z"
     id="path3288"
     inkscape:connector-curvature="0" />
  <path
     inkscape:connector-curvature="0"
     id="path4085"
     d="M 44.165624,0.47343717 H 3.8343705 c -1.8619554,0 -3.36093402,1.49897713 -3.36093402,3.36093553 V 44.165625 c 0,1.861959 1.49897862,3.360937 3.36093402,3.360937 H 44.165624 c 1.86196,0 3.360939,-1.498978 3.360939,-3.360937 V 3.8343727 c 0,-1.8619584 -1.498979,-3.36093553 -3.360939,-3.36093553 z"
     style="display:inline;opacity:0.15;fill:#000000;fill-opacity:1;fill-rule:nonzero;stroke:none;stroke-width:0.49791667" />
  <path
     style="display:inline;fill:url(#linearGradient4071);fill-opacity:1;fill-rule:nonzero;stroke:none;stroke-width:0.49791667"
     d="M 43.845532,0.84687467 H 4.1544632 c -1.8324046,0 -3.30758902,1.47518463 -3.30758902,3.30758773 V 43.845536 c 0,1.832405 1.47518442,3.307589 3.30758902,3.307589 H 43.845532 c 1.832405,0 3.307588,-1.475185 3.307588,-3.307589 V 4.1544624 c 0,-1.8324031 -1.475183,-3.30758773 -3.307588,-3.30758773 z"
     id="rect4251-1"
     inkscape:connector-curvature="0" />
  <path
     style="display:inline;opacity:0.873;fill:#dc0000;fill-opacity:1;fill-rule:nonzero;stroke:none;stroke-width:0.51566219"
     d="m 5.6972261,3.2802641 c -1.4222972,0 -2.551389,1.1530465 -2.551389,2.6055173 v 10.7966076 3.647723 20.111331 c 0.5463341,0.848762 1.4782392,1.416749 2.551389,1.416749 H 7.7383374 40.396118 43.2187 c 1.073151,0 1.223584,0.01811 1.769918,-0.830645 V 20.330112 16.682389 5.8857814 c 0,-1.4524708 -1.129091,-2.6055173 -2.551389,-2.6055173 z"
     id="path3400-6"
     inkscape:connector-curvature="0"
     sodipodi:nodetypes="sscccsccscccsss" />
  <path
     inkscape:connector-curvature="0"
     id="path4989"
     d="m 4.9920701,2.4548766 c -1.5518176,0 -2.8221743,1.2644644 -2.8221743,2.8112405 V 39.760786 c 0,1.546775 1.2703567,2.811239 2.8221743,2.811239 H 43.227979 c 1.551818,0 2.822176,-1.264464 2.822176,-2.811239 V 5.2661171 c 0,-1.5467751 -1.270358,-2.8112405 -2.822176,-2.8112405 z m 0,1.1548879 H 43.227979 c 0.940117,0 1.669028,0.7369634 1.669028,1.6563526 V 39.760786 c 0,0.91939 -0.728911,1.65635 -1.669028,1.65635 H 4.9920701 c -0.940116,0 -1.6690277,-0.73696 -1.6690277,-1.65635 V 5.2661171 c 0,-0.9193892 0.7289117,-1.6563526 1.6690277,-1.6563526 z"
     style="color:#000000;font-style:normal;font-variant:normal;font-weight:normal;font-stretch:normal;font-size:medium;line-height:normal;font-family:Sans;-inkscape-font-specification:Sans;text-indent:0;text-align:start;text-decoration:none;text-decoration-line:none;letter-spacing:normal;word-spacing:normal;text-transform:none;writing-mode:lr-tb;direction:ltr;baseline-shift:baseline;text-anchor:start;display:inline;overflow:visible;visibility:visible;fill:#1f2224;fill-opacity:0.80869565;stroke:none;stroke-width:1.18280113;marker:none;enable-background:accumulate" />
  <path
     inkscape:connector-curvature="0"
     style="display:inline;opacity:0.65818182;fill:url(#linearGradient4129);fill-opacity:1;fill-rule:nonzero;stroke:none;stroke-width:0.49791667"
     d="m 0.84687368,40.851367 v 2.9875 c 0,1.832404 1.48185302,3.314258 3.31425762,3.314258 H 43.838865 c 1.832405,0 3.31426,-1.481854 3.31426,-3.314258 v -2.9875 c 0,1.832404 -1.481855,3.314258 -3.31426,3.314258 H 4.1611313 c -1.8324046,0 -3.31425762,-1.481854 -3.31425762,-3.314258 z"
     id="path4118" />
  <rect
     style="opacity:0.55;fill:url(#radialGradient7462);fill-opacity:1;stroke:none;stroke-width:0.49791667"
     id="rect4131"
     width="41.949482"
     height="2.1161458"
     x="2.7763009"
     y="40.057812"
     rx="0"
     ry="2.1161458" />
  <rect
     ry="2.1161458"
     rx="0"
     y="-44.954826"
     x="2.8684161"
     height="2.1161458"
     width="38.215103"
     id="rect4141"
     style="opacity:0.669;fill:url(#radialGradient7464);fill-opacity:1;stroke:none;stroke-width:0.49791667"
     transform="rotate(90)" />
  <g
     transform="matrix(1.2509095,0,0,1.2509095,75.612718,80.737291)"
     id="g941">
    <path
       inkscape:connector-curvature="0"
       id="path4267"
       d="m -52.760153,-54.856831 -0.121094,0.109375 -2.8125,2.478516 0.234375,0.273437 c 0.884503,1.046371 1.211893,2.022679 1.261719,2.972656 0.04983,0.949977 -0.192132,1.882804 -0.507812,2.789063 -0.315682,0.906259 -0.704091,1.778343 -0.914063,2.626953 -0.209972,0.848611 -0.231413,1.715909 0.263672,2.476562 0.763465,1.172997 1.899483,1.817224 3.164062,2.191407 1.26458,0.374183 2.672264,0.495501 4.072266,0.638672 1.400002,0.143172 2.790107,0.30714 4.011719,0.728515 1.221611,0.421376 2.270145,1.08717 3.046875,2.259766 l 0.300781,0.455078 0.300781,-0.455078 c 0.776725,-1.172587 1.825151,-1.838389 3.046875,-2.259766 1.221725,-0.421377 2.61157,-0.585343 4.011719,-0.728515 1.400149,-0.143171 2.807579,-0.264491 4.072266,-0.638672 1.264688,-0.374181 2.40059,-1.0184 3.164062,-2.191407 0.495084,-0.760653 0.473644,-1.627951 0.263672,-2.476562 -0.209973,-0.84861 -0.598381,-1.720694 -0.914063,-2.626953 -0.315682,-0.906259 -0.557637,-1.839086 -0.507812,-2.789063 0.04983,-0.949976 0.377215,-1.926285 1.261719,-2.972656 l 0.234375,-0.273437 -2.933594,-2.587891 -0.162109,0.02148 c 0,0 -4.227086,0.509753 -11.830079,0.466797 h -0.002 c -6.37e-4,4e-6 -0.0053,-4.7e-5 -0.01367,0 -7.602908,0.04296 -11.830079,-0.466797 -11.830079,-0.466797 z"
       style="opacity:0.1;fill:#000000;fill-opacity:1;fill-rule:evenodd" />
    <path
       id="path4210-3"
       d="m -55.788903,-45.963659 c 0,0 -0.932078,2.606047 -0.26328,3.633595 2.829517,4.347301 10.987936,0.827963 14.291481,5.815179 3.303544,-4.987216 11.463145,-1.467878 14.292662,-5.815179 0.668797,-1.027548 -0.26328,-3.633595 -0.26328,-3.633595 z"
       inkscape:connector-curvature="0"
       style="fill:#e9d9be;fill-rule:evenodd" />
    <path
       id="path4345"
       d="m -56.005445,-45.963659 c -0.458404,2.483571 -0.04126,4.344061 1.245333,5.106828 v -5.106828 z"
       inkscape:connector-curvature="0"
       style="fill:#a71820;fill-rule:evenodd" />
    <path
       id="path4343"
       d="m -51.760112,-45.963659 v 6.160646 c 1.33694,0.110715 2.690521,0.219913 4,0.41785 v -6.578496 z"
       inkscape:connector-curvature="0"
       style="fill:#a71820;fill-rule:evenodd" />
    <path
       id="path4341"
       d="m -43.759757,-45.963659 v 7.83754 c 0.757145,0.406429 1.436359,0.926389 1.999091,1.611234 0.563149,-0.685353 1.24268,-1.205867 2.000554,-1.612423 v -7.836351 z"
       inkscape:connector-curvature="0"
       style="fill:#a71820;fill-rule:evenodd" />
    <path
       id="path4339"
       d="m -35.760112,-45.963659 v 6.640996 c 1.309655,-0.199744 2.66294,-0.310041 4,-0.42182 v -6.219176 z"
       inkscape:connector-curvature="0"
       style="fill:#a71820;fill-rule:evenodd" />
    <path
       id="path28"
       d="m -28.760112,-45.963659 v 5.106828 c 1.345117,-0.871037 1.56695,-2.726217 1.215572,-5.106828 z"
       inkscape:connector-curvature="0"
       style="fill:#a71820;fill-rule:evenodd" />
    <path
       d="m -53.641166,-55.474219 -2.543069,2.242182 c 2.255352,2.668092 1.197214,5.144959 0.395509,7.268378 9.253125,1.200512 18.602972,1.232887 28.057583,0 -0.80172,-2.123491 -1.859958,-4.600149 0.39551,-7.268378 l -2.543069,-2.242182 c 0,0 -4.254789,0.513588 -11.874739,0.470536 -0.0046,2.7e-5 -0.0084,-2.5e-5 -0.01299,0 -7.619953,0.04306 -11.874741,-0.470536 -11.874741,-0.470536 z m 25.914745,9.523628 z"
       id="path30"
       inkscape:connector-curvature="0"
       style="fill:#166083;fill-rule:evenodd" />
    <path
       inkscape:connector-curvature="0"
       id="path32"
       d="m -53.759448,-55.856829 -0.121673,0.108658 -2.812184,2.478441 0.233064,0.274233 c 0.884503,1.046371 1.213172,2.023461 1.262998,2.973438 0.04983,0.949977 -0.191575,1.882634 -0.507256,2.788893 -0.315682,0.906259 -0.705144,1.778157 -0.915117,2.626767 -0.209972,0.848611 -0.231174,1.716062 0.26391,2.476716 0.763466,1.172997 1.898914,1.816227 3.163493,2.19041 1.26458,0.374183 2.671752,0.496705 4.071754,0.639876 1.400002,0.143172 2.791877,0.306462 4.013489,0.727837 1.221611,0.421376 2.268517,1.086804 3.045247,2.2594 l 0.301611,0.455329 0.301611,-0.455329 c 0.776725,-1.172587 1.823523,-1.838023 3.045247,-2.2594 1.221725,-0.421377 2.61334,-0.584665 4.013489,-0.727837 1.400149,-0.143171 2.807067,-0.265695 4.071754,-0.639876 1.264688,-0.374181 2.400021,-1.017403 3.163493,-2.19041 0.495084,-0.760654 0.473882,-1.628105 0.26391,-2.476716 -0.209973,-0.84861 -0.599435,-1.720508 -0.915117,-2.626767 -0.315682,-0.906259 -0.557081,-1.838916 -0.507256,-2.788893 0.04983,-0.949976 0.378494,-1.927067 1.262998,-2.973438 l 0.233064,-0.274233 -2.933857,-2.587099 -0.161087,0.0207 c 0,0 -4.226687,0.510358 -11.82968,0.467402 h -0.0018 -0.0018 c -6.37e-4,4e-6 -0.0053,-4.7e-5 -0.01371,0 -7.602908,0.04296 -11.829594,-0.467404 -11.829594,-0.467404 l -0.161001,-0.0207 z m 0.241631,0.758883 c 0.223233,0.02623 4.320764,0.500774 11.752564,0.458779 5.07e-4,-3e-6 0.0056,6e-6 0.01028,0 7.431799,0.04199 11.529331,-0.432548 11.752563,-0.458779 l 2.200392,1.938599 c -0.795154,1.049249 -1.193434,2.099784 -1.245861,3.099344 -0.05758,1.097946 0.219922,2.125347 0.548385,3.068299 0.328463,0.942953 0.708097,1.809387 0.894552,2.562953 0.186456,0.753565 0.18925,1.352768 -0.166229,1.89893 -0.651286,1.000644 -1.596498,1.545835 -2.760773,1.890307 -1.164274,0.344472 -2.535129,0.470196 -3.941512,0.614005 -1.406384,0.143808 -2.850545,0.306802 -4.17629,0.764056 -1.195864,0.412458 -2.263348,1.136183 -3.110366,2.231804 -0.847,-1.095615 -1.916314,-1.819344 -3.112081,-2.231804 -1.325637,-0.457256 -2.76834,-0.620248 -4.174577,-0.764056 -1.406236,-0.143809 -2.777351,-0.269535 -3.941513,-0.614005 -1.164161,-0.34447 -2.10948,-0.889654 -2.760772,-1.890307 -0.355479,-0.546162 -0.352684,-1.145365 -0.166229,-1.89893 0.186455,-0.753566 0.566089,-1.62 0.894552,-2.562953 0.328463,-0.942952 0.605971,-1.970353 0.548384,-3.068299 -0.05243,-0.99956 -0.450706,-2.050095 -1.245861,-3.099344 z"
       style="color:#000000;font-style:normal;font-variant:normal;font-weight:normal;font-stretch:normal;font-size:medium;line-height:normal;font-family:sans-serif;text-indent:0;text-align:start;text-decoration:none;text-decoration-line:none;text-decoration-style:solid;text-decoration-color:#000000;letter-spacing:normal;word-spacing:normal;text-transform:none;writing-mode:lr-tb;direction:ltr;baseline-shift:baseline;text-anchor:start;white-space:normal;clip-rule:nonzero;display:inline;overflow:visible;visibility:visible;opacity:1;isolation:auto;mix-blend-mode:normal;color-interpolation:sRGB;color-interpolation-filters:linearRGB;solid-color:#000000;solid-opacity:1;fill:#f3c164;fill-opacity:1;fill-rule:evenodd;stroke:none;stroke-width:0.82700002;stroke-linecap:butt;stroke-linejoin:miter;stroke-miterlimit:4;stroke-dasharray:none;stroke-dashoffset:0;stroke-opacity:1;color-rendering:auto;image-rendering:auto;shape-rendering:auto;text-rendering:auto;enable-background:accumulate" />
    <path
       id="path4351"
       d="m -48.550803,-47.60205 -1.42718,-0.744061 -1.418109,0.761426 0.262095,-1.595993 -1.157747,-1.122089 1.589163,-0.242319 L -50,-52 l 0.720062,1.446231 1.591966,0.222903 -1.144139,1.136139 z"
       inkscape:connector-curvature="0"
       style="color:#000000;fill:#fcfadb;stroke-width:35;stroke-linecap:round;stroke-linejoin:round" />
    <path
       id="path4349"
       d="m -32.230884,-47.60205 -1.427179,-0.744061 -1.418109,0.761426 0.262094,-1.595993 -1.157746,-1.122089 1.589162,-0.242319 L -33.68008,-52 l 0.720062,1.446231 1.591966,0.222903 -1.14414,1.136139 z"
       inkscape:connector-curvature="0"
       style="color:#000000;fill:#fcfadb;stroke-width:35;stroke-linecap:round;stroke-linejoin:round" />
    <path
       id="use4286"
       d="m -39.751788,-47.319211 -1.998051,-1.041683 -1.985352,1.065996 0.366932,-2.234391 -1.620846,-1.570925 2.224828,-0.339245 0.983614,-2.03688 1.008088,2.024724 2.228752,0.312063 -1.601795,1.590595 z"
       inkscape:connector-curvature="0"
       style="color:#000000;fill:#fcfadb;stroke-width:35;stroke-linecap:round;stroke-linejoin:round" />
  </g>
  <rect
     transform="matrix(0.53239495,0,0,0.52165878,2.2386637,19.259328)"
     style="opacity:0.7;fill:url(#linearGradient4767);fill-opacity:1;stroke:none"
     id="rect4146"
     width="75.965775"
     height="69.024437"
     x="2"
     y="-30"
     rx="3.9569874"
     ry="3.9569881"
     clip-path="url(#clipPath4156-4-1)" />
</svg>
