<?xml version="1.0" encoding="UTF-8" standalone="no"?>
<!-- Created with Inkscape (http://www.inkscape.org/) -->

<svg
   xmlns:dc="http://purl.org/dc/elements/1.1/"
   xmlns:cc="http://creativecommons.org/ns#"
   xmlns:rdf="http://www.w3.org/1999/02/22-rdf-syntax-ns#"
   xmlns:svg="http://www.w3.org/2000/svg"
   xmlns="http://www.w3.org/2000/svg"
   xmlns:xlink="http://www.w3.org/1999/xlink"
   xmlns:sodipodi="http://sodipodi.sourceforge.net/DTD/sodipodi-0.dtd"
   xmlns:inkscape="http://www.inkscape.org/namespaces/inkscape"
   width="96"
   height="96"
   id="svg2"
   version="1.1"
   inkscape:version="0.92.2 2405546, 2018-03-11"
   sodipodi:docname="itunes.svg">
  <script
     xlink:href=""
     id="script2985" />
  <defs
     id="defs4">
    <filter
       color-interpolation-filters="sRGB"
       id="filter3832-0">
      <feGaussianBlur
         id="feGaussianBlur3834-4"
         stdDeviation="0.7690217" />
    </filter>
    <radialGradient
       inkscape:collect="always"
       xlink:href="#linearGradient4370-2"
       id="radialGradient4322"
       gradientUnits="userSpaceOnUse"
       gradientTransform="matrix(1,0,0,1.8056928,0,-124.55148)"
       cx="39.64896"
       cy="154.58929"
       fx="39.64896"
       fy="154.58929"
       r="27.097195" />
    <linearGradient
       id="linearGradient4370-2">
      <stop
         id="stop4372-3"
         style="stop-color:#2a7fff;stop-opacity:1"
         offset="0" />
      <stop
         id="stop4374-7"
         style="stop-color:#003380;stop-opacity:1"
         offset="1" />
    </linearGradient>
    <radialGradient
       inkscape:collect="always"
       xlink:href="#linearGradient3266-4"
       id="radialGradient4324"
       gradientUnits="userSpaceOnUse"
       gradientTransform="matrix(0.9847961,0.02597927,-0.01823822,0.6913564,1.9937062,24.820256)"
       cx="40.846539"
       cy="75.263962"
       fx="40.846539"
       fy="75.263962"
       r="14.672466" />
    <linearGradient
       id="linearGradient3266-4">
      <stop
         id="stop2807-3"
         style="stop-color:#ffffff;stop-opacity:1"
         offset="0" />
      <stop
         id="stop2809-4"
         style="stop-color:#000000;stop-opacity:0"
         offset="1" />
    </linearGradient>
    <filter
       color-interpolation-filters="sRGB"
       id="filter4365">
      <feGaussianBlur
         id="feGaussianBlur4367"
         stdDeviation="0.7690217" />
    </filter>
    <radialGradient
       inkscape:collect="always"
       xlink:href="#linearGradient4370-2"
       id="radialGradient4245-5"
       cx="39.64896"
       cy="154.58929"
       fx="39.64896"
       fy="154.58929"
       r="27.097195"
       gradientTransform="matrix(1,0,0,1.8056928,0,-124.55148)"
       gradientUnits="userSpaceOnUse" />
    <linearGradient
       id="linearGradient4370">
      <stop
         id="stop4372"
         style="stop-color:#2a7fff;stop-opacity:1"
         offset="0" />
      <stop
         id="stop4374"
         style="stop-color:#003380;stop-opacity:1"
         offset="1" />
    </linearGradient>
    <radialGradient
       r="14.672466"
       fy="75.263962"
       fx="40.846539"
       cy="75.263962"
       cx="40.846539"
       gradientTransform="matrix(0.9847961,0.02597927,-0.01823822,0.6913564,1.9937062,24.820256)"
       gradientUnits="userSpaceOnUse"
       id="radialGradient4277"
       xlink:href="#linearGradient3266-4"
       inkscape:collect="always" />
    <linearGradient
       id="linearGradient4377">
      <stop
         id="stop4379"
         style="stop-color:#ffffff;stop-opacity:1"
         offset="0" />
      <stop
         id="stop4381"
         style="stop-color:#000000;stop-opacity:0"
         offset="1" />
    </linearGradient>
    <linearGradient
       inkscape:collect="always"
       xlink:href="#linearGradient3362"
       id="linearGradient3366"
       gradientUnits="userSpaceOnUse"
       x1="25.220379"
       y1="61.92226"
       x2="94.567612"
       y2="61.92226" />
    <linearGradient
       id="linearGradient3362">
      <stop
         id="stop3364"
         style="stop-color:#4d4d4d;stop-opacity:1"
         offset="0" />
      <stop
         id="stop3366"
         style="stop-color:#ffffff;stop-opacity:1"
         offset="1" />
    </linearGradient>
    <radialGradient
       inkscape:collect="always"
       xlink:href="#linearGradient3342"
       id="radialGradient3368"
       gradientUnits="userSpaceOnUse"
       gradientTransform="matrix(1,0,0,0.8375435,0,10.059672)"
       cx="59.893993"
       cy="61.92226"
       fx="59.893993"
       fy="61.92226"
       r="33.71384" />
    <linearGradient
       id="linearGradient3342">
      <stop
         id="stop3344"
         style="stop-color:#000000;stop-opacity:0"
         offset="0" />
      <stop
         id="stop3350"
         style="stop-color:#000000;stop-opacity:0"
         offset="0.85000002" />
      <stop
         id="stop3346"
         style="stop-color:#000000;stop-opacity:1"
         offset="1" />
    </linearGradient>
    <linearGradient
       inkscape:collect="always"
       xlink:href="#linearGradient3330"
       id="linearGradient3370"
       gradientUnits="userSpaceOnUse"
       x1="26.180153"
       y1="61.92226"
       x2="93.607834"
       y2="61.92226" />
    <linearGradient
       id="linearGradient3330">
      <stop
         id="stop3332"
         style="stop-color:#ffffff;stop-opacity:0.203125"
         offset="0" />
      <stop
         id="stop3334"
         style="stop-color:#ffffff;stop-opacity:0.6796875"
         offset="1" />
    </linearGradient>
    <clipPath
       id="clipPath4031">
      <path
         d="M 48,32 C 28.117749,32 12,48.117749 12,68 12,87.882251 28.117749,104 48,104 67.882251,104 84,87.882251 84,68 84,48.117749 67.882251,32 48,32 z m 0,24 c 6.627417,0 12,5.372583 12,12 0,6.627417 -5.372583,12 -12,12 -6.627417,0 -12,-5.372583 -12,-12 0,-6.627417 5.372583,-12 12,-12 z"
         inkscape:connector-curvature="0"
         id="path4033"
         style="fill:#bbb1bf;fill-opacity:1;stroke:none" />
    </clipPath>
    <filter
       x="-0.19037074"
       y="-0.1707008"
       width="1.3807415"
       height="1.3414016"
       color-interpolation-filters="sRGB"
       id="filter4035">
      <feGaussianBlur
         id="feGaussianBlur4037"
         stdDeviation="4.9476562" />
    </filter>
    <clipPath
       id="clipPath4187">
      <path
         d="m 48,102 c -19.88225,0 -36,16.11775 -36,36 0,19.88225 16.11775,36 36,36 19.88225,0 36,-16.11775 36,-36 0,-19.88225 -16.11775,-36 -36,-36 z m 0,24 c 6.62742,0 12,5.37258 12,12 0,6.62742 -5.37258,12 -12,12 -6.62742,0 -12,-5.37258 -12,-12 0,-6.62742 5.37258,-12 12,-12 z"
         inkscape:connector-curvature="0"
         id="path4189"
         style="fill:#bbb1bf;fill-opacity:1;stroke:none" />
    </clipPath>
    <filter
       x="-0.18000001"
       y="-0.18000001"
       width="1.36"
       height="1.36"
       color-interpolation-filters="sRGB"
       id="filter4195">
      <feGaussianBlur
         id="feGaussianBlur4197"
         stdDeviation="5.2159999" />
    </filter>
    <radialGradient
       inkscape:collect="always"
       xlink:href="#linearGradient4042"
       id="radialGradient4556"
       cx="14.693458"
       cy="0.38067999"
       fx="14.693458"
       fy="0.38067999"
       r="45.056355"
       gradientTransform="matrix(1.0034441,0,0,0.89395778,9.5965125,20.256666)"
       gradientUnits="userSpaceOnUse" />
    <linearGradient
       id="linearGradient4042">
      <stop
         id="stop4044"
         style="stop-color:#ff9800;stop-opacity:1"
         offset="0" />
      <stop
         id="stop4046"
         style="stop-color:#ff4600;stop-opacity:1"
         offset="1" />
    </linearGradient>
    <linearGradient
       inkscape:collect="always"
       xlink:href="#linearGradient3888-8-4-8-4-6-9-0-8-7-9"
       id="linearGradient4987"
       gradientUnits="userSpaceOnUse"
       gradientTransform="matrix(1.1897772,0,0,1.1508138,-32.76873,-28.888012)"
       x1="62"
       y1="8"
       x2="62"
       y2="68" />
    <linearGradient
       inkscape:collect="always"
       id="linearGradient3888-8-4-8-4-6-9-0-8-7-9">
      <stop
         style="stop-color:#ffffff;stop-opacity:1;"
         offset="0"
         id="stop3890-4-7-9-5-7-0-8-8-8-6" />
      <stop
         style="stop-color:#ffffff;stop-opacity:0;"
         offset="1"
         id="stop3892-5-8-2-8-3-3-3-06-4-4" />
    </linearGradient>
    <radialGradient
       inkscape:collect="always"
       xlink:href="#linearGradient3888-8-4-8-6"
       id="radialGradient3114"
       gradientUnits="userSpaceOnUse"
       gradientTransform="matrix(0,1.6209438,-2.0382846,0,160.66427,-243.03657)"
       cx="158"
       cy="6.2131939"
       fx="158"
       fy="6.2131939"
       r="41" />
    <linearGradient
       inkscape:collect="always"
       id="linearGradient3888-8-4-8-6">
      <stop
         style="stop-color:#ffffff;stop-opacity:1;"
         offset="0"
         id="stop3890-4-7-9-7" />
      <stop
         style="stop-color:#ffffff;stop-opacity:0;"
         offset="1"
         id="stop3892-5-8-2-7" />
    </linearGradient>
    <radialGradient
       inkscape:collect="always"
       xlink:href="#linearGradient4091-0-3-0-7"
       id="radialGradient3118"
       gradientUnits="userSpaceOnUse"
       gradientTransform="matrix(-1.0721726,0,0,-0.87502024,199.46429,-19.125546)"
       cx="48"
       cy="-27"
       fx="48"
       fy="-27"
       r="42" />
    <linearGradient
       id="linearGradient4091-0-3-0-7">
      <stop
         style="stop-color:#ffffff;stop-opacity:1;"
         offset="0"
         id="stop4093-3-6-4-2" />
      <stop
         id="stop4099-6-1-8-3"
         offset="0.80000001"
         style="stop-color:#ffffff;stop-opacity:1;" />
      <stop
         style="stop-color:#ffffff;stop-opacity:0;"
         offset="1"
         id="stop4095-1-0-7-9" />
    </linearGradient>
    <linearGradient
       inkscape:collect="always"
       xlink:href="#linearGradient3832-0-6-1-1"
       id="linearGradient3120"
       gradientUnits="userSpaceOnUse"
       gradientTransform="matrix(1,0,0,0.88905855,200,8.9431737)"
       x1="-94"
       y1="82.984398"
       x2="-10.187523"
       y2="82.984398" />
    <linearGradient
       id="linearGradient3832-0-6-1-1">
      <stop
         style="stop-color:#000000;stop-opacity:1;"
         offset="0"
         id="stop3834-6-3-7-1" />
      <stop
         id="stop3872-2-4"
         offset="0.1"
         style="stop-color:#000000;stop-opacity:0.58823532;" />
      <stop
         style="stop-color:#000000;stop-opacity:0.58823532;"
         offset="0.89999998"
         id="stop3844-6-2-7-6" />
      <stop
         style="stop-color:#000000;stop-opacity:1;"
         offset="1"
         id="stop3836-5-0-2-9" />
    </linearGradient>
    <linearGradient
       gradientTransform="matrix(1.1353753,0,0,1.1336634,-40.037124,-46.787637)"
       y2="47.000011"
       x2="90"
       y1="47.000011"
       x1="6"
       gradientUnits="userSpaceOnUse"
       id="linearGradient5021"
       xlink:href="#linearGradient6139-0"
       inkscape:collect="always" />
    <linearGradient
       id="linearGradient6139-0">
      <stop
         id="stop6141-2"
         offset="0"
         style="stop-color:#b7b7b7;stop-opacity:1;" />
      <stop
         style="stop-color:#ffffff;stop-opacity:1;"
         offset="0.25"
         id="stop6151-0" />
      <stop
         style="stop-color:#9d9d9d;stop-opacity:1;"
         offset="0.5"
         id="stop6147-1" />
      <stop
         id="stop6149-4"
         offset="0.75"
         style="stop-color:#fafafa;stop-opacity:1;" />
      <stop
         id="stop6143-4"
         offset="1"
         style="stop-color:#b7b7b7;stop-opacity:1;" />
    </linearGradient>
    <linearGradient
       y2="47.000011"
       x2="90"
       y1="47.000011"
       x1="6"
       gradientTransform="matrix(1.1392856,0,0,1.1392855,-30.578504,-29.106973)"
       gradientUnits="userSpaceOnUse"
       id="linearGradient4478"
       xlink:href="#linearGradient6139-0"
       inkscape:collect="always" />
    <linearGradient
       y2="47.000011"
       x2="90"
       y1="47.000011"
       x1="6"
       gradientTransform="matrix(1.1059895,0,0,1.1071426,-5.1375019,-36.035687)"
       gradientUnits="userSpaceOnUse"
       id="linearGradient4071"
       xlink:href="#linearGradient6139-0-3"
       inkscape:collect="always" />
    <linearGradient
       id="linearGradient6139-0-3">
      <stop
         style="stop-color:#b2babc;stop-opacity:1"
         offset="0"
         id="stop6141-2-6" />
      <stop
         id="stop6151-0-7"
         offset="0.25"
         style="stop-color:#ffffff;stop-opacity:1;" />
      <stop
         id="stop6147-1-5"
         offset="0.5"
         style="stop-color:#96a1a4;stop-opacity:1" />
      <stop
         style="stop-color:#fbf9f9;stop-opacity:1;"
         offset="0.75"
         id="stop6149-4-3" />
      <stop
         style="stop-color:#b2b9bc;stop-opacity:1"
         offset="1"
         id="stop6143-4-5" />
    </linearGradient>
    <linearGradient
       gradientUnits="userSpaceOnUse"
       y2="88.171875"
       x2="94.5"
       y1="88.171875"
       x1="1.5"
       id="linearGradient4129"
       xlink:href="#linearGradient3832-0-6-1-1"
       inkscape:collect="always"
       gradientTransform="matrix(0.99895835,0,0,0.99999997,-2.96e-6,-31.999974)" />
    <radialGradient
       r="43.199203"
       fy="44.892841"
       fx="13.948145"
       cy="44.892841"
       cx="13.948145"
       gradientTransform="matrix(0.97411799,0,0,0.04919072,33.86338,48.166723)"
       gradientUnits="userSpaceOnUse"
       id="radialGradient7462"
       xlink:href="#linearGradient3888-8-4-8-4-6-9-0-8-7-9"
       inkscape:collect="always" />
    <radialGradient
       r="43.199203"
       fy="44.892841"
       fx="13.948145"
       cy="44.892841"
       cx="13.948145"
       gradientTransform="matrix(0.88832662,0,0,0.04913948,-0.455482,-90.074377)"
       gradientUnits="userSpaceOnUse"
       id="radialGradient7464"
       xlink:href="#linearGradient3888-8-4-8-4-6-9-0-8-7-9"
       inkscape:collect="always" />
    <linearGradient
       y2="14.514202"
       x2="50.527882"
       y1="-28.64156"
       x1="2.7713892"
       gradientUnits="userSpaceOnUse"
       id="linearGradient4767"
       xlink:href="#linearGradient3888-8-4-8-4-6-9-0-8-7-9"
       inkscape:collect="always"
       gradientTransform="matrix(1.0041884,0,0,1.0052356,-0.21820995,-0.04755458)" />
    <clipPath
       clipPathUnits="userSpaceOnUse"
       id="clipPath4156-4-1">
      <path
         style="opacity:0.6;fill:#ffffff;fill-opacity:1;stroke:none"
         d="m 27.046336,-55.695463 -14.21366,13.321486 h 0.06127 l 15.653407,21.770763 10.231384,-10.546177 C 38.561832,-32.30156 27.468089,-54.819245 27.046336,-55.695463 Z M 9.6468554,-39.382809 -5.2407289,-25.32124 15.987863,-7.8059573 26.372412,-18.382966 Z m 31.4906096,12.951445 -9.741259,9.713584 8.944804,12.4580526 7.780753,-7.5550056 z m -49.8397109,4.378822 -13.7541661,12.9822847 26.2830181,13.84571 0.06127,-0.0617 -0.122531,-0.0617 L 13.598503,-5.4007374 -8.7022409,-22.052595 Z m 38.0154159,7.400825 -9.802525,9.7752596 11.579232,9.5594001 7.62759,-7.40083 -8.669108,-11.0087257 z m 20.187073,5.6739697 -7.382526,7.2158 6.187844,8.54179 5.820249,-6.13651996 z m -32.195166,6.32154 -9.5574606,9.49772 13.6622686,7.1849703 7.933918,-7.6783603 z m 23.311629,2.37443004 -7.10683,6.93826996 8.362778,6.9074403 5.360756,-5.6739699 -0.06127,-0.0925 -0.0919,0.12335 -6.463539,-8.20258036 z m -8.730374,8.54178036 -7.505057,7.3391599 10.353916,5.45811 c 1.397496,-1.32103 5.67514,-6.12292 5.850882,-6.32154 z"
         id="path4158-0-8"
         inkscape:connector-curvature="0" />
    </clipPath>
    <filter
       inkscape:collect="always"
       style="color-interpolation-filters:sRGB"
       id="filter1376"
       x="-0.036025971"
       width="1.0720519"
       y="-0.03602675"
       height="1.0720536">
      <feGaussianBlur
         inkscape:collect="always"
         stdDeviation="0.96262163"
         id="feGaussianBlur1378" />
    </filter>
    <linearGradient
       inkscape:collect="always"
       xlink:href="#linearGradient1330"
       id="linearGradient1346"
       x1="-206.87695"
       y1="114.06933"
       x2="-183.49609"
       y2="114.06933"
       gradientUnits="userSpaceOnUse"
       gradientTransform="matrix(0.99540793,0,0,1,23.392515,-119.97004)" />
    <linearGradient
       inkscape:collect="always"
       id="linearGradient1330">
      <stop
         style="stop-color:#00e7ff;stop-opacity:1"
         offset="0"
         id="stop1326" />
      <stop
         id="stop1334"
         offset="0.27374515"
         style="stop-color:#f2f342;stop-opacity:0.99607843" />
      <stop
         style="stop-color:#8ccaf0;stop-opacity:0.99607843"
         offset="0.72701919"
         id="stop1336" />
      <stop
         style="stop-color:#f032f7;stop-opacity:0.99559474"
         offset="1"
         id="stop1328" />
    </linearGradient>
    <filter
       inkscape:collect="always"
       style="color-interpolation-filters:sRGB"
       id="filter1380"
       x="-0.036026746"
       width="1.0720536"
       y="-0.036025967"
       height="1.0720519">
      <feGaussianBlur
         inkscape:collect="always"
         stdDeviation="0.96262163"
         id="feGaussianBlur1382" />
    </filter>
    <radialGradient
       inkscape:collect="always"
       xlink:href="#linearGradient1330"
       id="radialGradient1338"
       cx="-195.18652"
       cy="82.069336"
       fx="-195.18652"
       fy="82.069336"
       r="35.571289"
       gradientTransform="matrix(0.98768031,-0.00430068,0.00293695,0.6807299,21.643152,-62.607189)"
       gradientUnits="userSpaceOnUse" />
    <linearGradient
       inkscape:collect="always"
       xlink:href="#linearGradient3362"
       id="linearGradient4800"
       gradientUnits="userSpaceOnUse"
       x1="25.220379"
       y1="61.92226"
       x2="94.567612"
       y2="61.92226"
       gradientTransform="matrix(0,0.16626655,-0.20327869,0,-158.19789,-16.117606)" />
    <radialGradient
       inkscape:collect="always"
       xlink:href="#linearGradient3342"
       id="radialGradient4802"
       gradientUnits="userSpaceOnUse"
       gradientTransform="matrix(0,0.28718447,-0.2940764,0,-152.5755,-23.359757)"
       cx="59.893993"
       cy="61.92226"
       fx="59.893993"
       fy="61.92226"
       r="33.71384" />
    <linearGradient
       inkscape:collect="always"
       xlink:href="#linearGradient3330"
       id="linearGradient4804"
       gradientUnits="userSpaceOnUse"
       x1="26.180153"
       y1="61.92226"
       x2="93.607834"
       y2="61.92226"
       gradientTransform="matrix(0,0.28718447,-0.35111776,0,-149.04336,-23.359757)" />
    <clipPath
       id="clipPath4031-6">
      <path
         d="M 48,32 C 28.117749,32 12,48.117749 12,68 12,87.882251 28.117749,104 48,104 67.882251,104 84,87.882251 84,68 84,48.117749 67.882251,32 48,32 Z m 0,24 c 6.627417,0 12,5.372583 12,12 0,6.627417 -5.372583,12 -12,12 -6.627417,0 -12,-5.372583 -12,-12 0,-6.627417 5.372583,-12 12,-12 z"
         inkscape:connector-curvature="0"
         id="path4033-1"
         style="fill:#bbb1bf;fill-opacity:1;stroke:none" />
    </clipPath>
    <filter
       style="color-interpolation-filters:sRGB"
       x="-0.19037074"
       y="-0.1707008"
       width="1.3807415"
       height="1.3414016"
       id="filter4035-8">
      <feGaussianBlur
         id="feGaussianBlur4037-7"
         stdDeviation="4.9476562" />
    </filter>
    <filter
       style="color-interpolation-filters:sRGB"
       x="-0.18000001"
       y="-0.18000001"
       width="1.36"
       height="1.36"
       id="filter4195-9">
      <feGaussianBlur
         id="feGaussianBlur4197-2"
         stdDeviation="5.2159999" />
    </filter>
    <filter
       style="color-interpolation-filters:sRGB"
       id="filter3832-0-0">
      <feGaussianBlur
         id="feGaussianBlur3834-4-2"
         stdDeviation="0.7690217" />
    </filter>
    <radialGradient
       inkscape:collect="always"
       xlink:href="#linearGradient4370-2"
       id="radialGradient4806"
       gradientUnits="userSpaceOnUse"
       gradientTransform="matrix(0.35061773,0.13170805,-0.23184652,0.64943154,-163.69156,-95.700829)"
       cx="39.64896"
       cy="154.58929"
       fx="39.64896"
       fy="154.58929"
       r="27.097195" />
    <radialGradient
       inkscape:collect="always"
       xlink:href="#linearGradient3266-4"
       id="radialGradient4808"
       gradientUnits="userSpaceOnUse"
       gradientTransform="matrix(0.43476099,0.06560658,-0.04490011,0.31308471,-206.61291,-7.3990467)"
       cx="40.846539"
       cy="75.263962"
       fx="40.846539"
       fy="75.263962"
       r="14.672466" />
    <filter
       style="color-interpolation-filters:sRGB"
       id="filter1471">
      <feGaussianBlur
         id="feGaussianBlur1469"
         stdDeviation="0.7690217" />
    </filter>
    <radialGradient
       inkscape:collect="always"
       xlink:href="#linearGradient4370-2"
       id="radialGradient4810"
       gradientUnits="userSpaceOnUse"
       gradientTransform="matrix(0.41984518,0.15606175,-0.27471649,0.77765806,-164.20697,-142.11928)"
       cx="39.64896"
       cy="154.58929"
       fx="39.64896"
       fy="154.58929"
       r="27.097195" />
    <radialGradient
       inkscape:collect="always"
       xlink:href="#linearGradient3266-4"
       id="radialGradient4812"
       gradientUnits="userSpaceOnUse"
       gradientTransform="matrix(0.52021641,0.07665749,-0.05246318,0.37462379,-215.19078,-36.335489)"
       cx="40.846539"
       cy="75.263962"
       fx="40.846539"
       fy="75.263962"
       r="14.672466" />
    <linearGradient
       inkscape:collect="always"
       xlink:href="#linearGradient4042"
       id="linearGradient1662"
       x1="67.971596"
       y1="40.353092"
       x2="38.068054"
       y2="-22.908447"
       gradientUnits="userSpaceOnUse" />
  </defs>
  <sodipodi:namedview
     id="base"
     pagecolor="#ffffff"
     bordercolor="#666666"
     borderopacity="1.0"
     inkscape:pageopacity="0.0"
     inkscape:pageshadow="2"
     inkscape:zoom="4.0625"
     inkscape:cx="48"
     inkscape:cy="48"
     inkscape:current-layer="layer1"
     showgrid="true"
     inkscape:document-units="px"
     inkscape:grid-bbox="true"
     inkscape:showpageshadow="false"
     gridtolerance="1"
     guidetolerance="1"
     objecttolerance="1"
     inkscape:window-width="1920"
     inkscape:window-height="1026"
     inkscape:window-x="0"
     inkscape:window-y="28"
     inkscape:window-maximized="1"
     showguides="true"
     inkscape:guide-bbox="true">
    <sodipodi:guide
       position="-150.65836,-18.316342"
       orientation="0,1"
       id="guide1316"
       inkscape:locked="false" />
    <sodipodi:guide
       position="-195.15934,-12.640856"
       orientation="1,0"
       id="guide1318"
       inkscape:locked="false" />
  </sodipodi:namedview>
  <metadata
     id="metadata7">
    <rdf:RDF>
      <cc:Work
         rdf:about="">
        <dc:format>image/svg+xml</dc:format>
        <dc:type
           rdf:resource="http://purl.org/dc/dcmitype/StillImage" />
        <dc:title />
      </cc:Work>
    </rdf:RDF>
  </metadata>
  <g
     id="layer1"
     inkscape:label="Layer 1"
     inkscape:groupmode="layer"
     transform="translate(0,32)">
    <path
       style="display:inline;opacity:0.15;fill:#000000;fill-opacity:1;fill-rule:nonzero;stroke:none;stroke-width:0.99947876"
       d="M 88.928567,-31.75 H 7.0714218 c -3.7790622,0 -6.82142085,3.042357 -6.82142085,6.821426 v 81.857146 c 0,3.779071 3.04235865,6.821428 6.82142085,6.821428 H 88.928567 c 3.779072,0 6.821432,-3.042357 6.821432,-6.821428 v -81.857146 c 0,-3.779069 -3.04236,-6.821426 -6.821432,-6.821426 z"
       id="path3288"
       inkscape:connector-curvature="0" />
    <path
       inkscape:connector-curvature="0"
       id="path4085"
       d="M 88.28906,-31.003906 H 7.7109294 c -3.7200153,0 -6.71483653,2.994819 -6.71483653,6.71484 v 80.578129 c 0,3.720023 2.99482123,6.714843 6.71483653,6.714843 H 88.28906 c 3.720024,0 6.714845,-2.99482 6.714845,-6.714843 v -80.578129 c 0,-3.720021 -2.994821,-6.71484 -6.714845,-6.71484 z"
       style="display:inline;opacity:0.15;fill:#000000;fill-opacity:1;fill-rule:nonzero;stroke:none;stroke-width:0.99947876" />
    <path
       style="display:inline;fill:url(#linearGradient4071);fill-opacity:1;fill-rule:nonzero;stroke:none;stroke-width:0.99947876"
       d="M 87.649545,-30.257812 H 8.3504453 c -3.6609756,0 -6.6082583,2.947282 -6.6082583,6.608256 v 79.299111 c 0,3.660975 2.9472827,6.608259 6.6082583,6.608259 H 87.649545 c 3.660978,0 6.608258,-2.947284 6.608258,-6.608259 v -79.299111 c 0,-3.660974 -2.94728,-6.608256 -6.608258,-6.608256 z"
       id="rect4251-1-2"
       inkscape:connector-curvature="0" />
    <rect
       style="opacity:1;fill:#f5f5f7;fill-opacity:1;stroke:none;stroke-width:0.71123183;stroke-miterlimit:4;stroke-dasharray:none;stroke-opacity:1"
       id="rect1664"
       width="84.557999"
       height="77.021454"
       x="5.9408269"
       y="-25.480713"
       rx="2.3669415"
       ry="2.9980392" />
    <rect
       ry="2.9980392"
       rx="2.3669415"
       y="-25.480713"
       x="5.9408269"
       height="77.021454"
       width="84.557999"
       id="rect862"
       style="opacity:0.161;fill:url(#linearGradient1662);fill-opacity:1;stroke:none;stroke-width:0.71123183;stroke-miterlimit:4;stroke-dasharray:none;stroke-opacity:1" />
    <path
       inkscape:connector-curvature="0"
       id="path4989-7"
       d="m 10.023907,-27.045172 c -3.1003891,0 -5.6384446,2.526284 -5.6384446,5.616597 v 68.917174 c 0,3.090315 2.5380555,5.616599 5.6384446,5.616599 h 76.391824 c 3.100391,0 5.638448,-2.526284 5.638448,-5.616599 v -68.917174 c 0,-3.090312 -2.538057,-5.616597 -5.638448,-5.616597 z m 0,2.307359 h 76.391824 c 1.878266,0 3.334565,1.472386 3.334565,3.309238 v 68.917174 c 0,1.836856 -1.456299,3.309239 -3.334565,3.309239 H 10.023907 c -1.8782657,0 -3.334564,-1.472383 -3.334564,-3.309239 v -68.917174 c 0,-1.836852 1.4562983,-3.309238 3.334564,-3.309238 z"
       style="color:#000000;font-style:normal;font-variant:normal;font-weight:normal;font-stretch:normal;font-size:medium;line-height:normal;font-family:Sans;-inkscape-font-specification:Sans;text-indent:0;text-align:start;text-decoration:none;text-decoration-line:none;letter-spacing:normal;word-spacing:normal;text-transform:none;writing-mode:lr-tb;direction:ltr;baseline-shift:baseline;text-anchor:start;display:inline;overflow:visible;visibility:visible;fill:#202223;fill-opacity:0.93689324;stroke:none;stroke-width:2.37426257;marker:none;enable-background:accumulate" />
    <path
       inkscape:connector-curvature="0"
       style="display:inline;opacity:0.65818182;fill:url(#linearGradient4129);fill-opacity:1;fill-rule:nonzero;stroke:none;stroke-width:0.99947876"
       d="m 1.742186,49.66748 v 5.96875 c 0,3.660975 2.9606059,6.621583 6.6215814,6.621583 H 87.636225 c 3.660978,0 6.621588,-2.960608 6.621588,-6.621583 v -5.96875 c 0,3.660975 -2.96061,6.621583 -6.621588,6.621583 H 8.3637674 c -3.6609755,0 -6.6215813,-2.960608 -6.6215814,-6.621583 z"
       id="path4118" />
    <rect
       style="opacity:0.55;fill:url(#radialGradient7462);fill-opacity:1;stroke:none;stroke-width:0.99947876"
       id="rect4131"
       width="83.811203"
       height="4.2278652"
       x="5.5970039"
       y="48.08202"
       rx="4.25"
       ry="4.25" />
    <rect
       ry="4.245573"
       rx="4.245573"
       y="-89.865791"
       x="-26.218962"
       height="4.2278652"
       width="76.350258"
       id="rect4141"
       style="opacity:0.669;fill:url(#radialGradient7464);fill-opacity:1;stroke:none;stroke-width:0.99947876"
       transform="rotate(90)" />
    <g
       transform="translate(219.65549,18.199414)"
       id="g1409">
      <path
         style="color:#000000;display:inline;overflow:visible;visibility:visible;opacity:0.05;fill:#000000;fill-opacity:1;fill-rule:nonzero;stroke:none;stroke-width:1.19955957;marker:none;enable-background:accumulate"
         id="path3736"
         d="m -170.78537,-26.37326 c -12.01201,0 -21.78273,9.600428 -21.78273,21.4030838 0,11.802655 9.77072,21.4030832 21.78273,21.4030832 12.01201,0 21.78273,-9.6004282 21.78273,-21.4030832 0,-11.8026558 -9.77072,-21.4030838 -21.78273,-21.4030838 z m 0,11.890602 c 5.3688,0 9.68122,4.237248 9.68122,9.5124818 0,5.27523296 -4.31242,9.512481 -9.68122,9.512481 -5.3688,0 -9.68122,-4.23724804 -9.68122,-9.512481 0,-5.2752338 4.31242,-9.5124818 9.68122,-9.5124818 z"
         inkscape:connector-curvature="0" />
      <path
         style="color:#000000;display:inline;overflow:visible;visibility:visible;opacity:0.3;fill:#000000;fill-opacity:1;fill-rule:nonzero;stroke:none;stroke-width:1.19955957;marker:none;enable-background:accumulate"
         id="path3725"
         inkscape:connector-curvature="0"
         d="m -170.78537,-23.99514 c -10.69358,0 -19.36243,8.517767 -19.36243,19.0249638 0,10.507197 8.66885,19.0249632 19.36243,19.0249632 10.69357,0 19.36243,-8.5177662 19.36243,-19.0249632 0,-10.5071968 -8.66886,-19.0249638 -19.36243,-19.0249638 z m 0,7.134362 c 6.68349,0 12.10152,5.323604 12.10152,11.8906018 0,6.566997 -5.41803,11.890602 -12.10152,11.890602 -6.68348,0 -12.10151,-5.323605 -12.10151,-11.890602 0,-6.5669978 5.41803,-11.8906018 12.10151,-11.8906018 z" />
      <path
         style="color:#000000;display:inline;overflow:visible;visibility:visible;opacity:0.1;fill:#000000;fill-opacity:1;fill-rule:nonzero;stroke:none;stroke-width:1.19955957;marker:none;enable-background:accumulate"
         id="path3732"
         d="m -170.78537,-25.221358 c -11.37245,0 -20.6104,9.076949 -20.6104,20.2511818 0,11.174232 9.23795,20.2511812 20.6104,20.2511812 11.37244,0 20.61039,-9.0769492 20.61039,-20.2511812 0,-11.1742328 -9.23795,-20.2511818 -20.61039,-20.2511818 z m 0,9.586798 c 6.00462,0 10.85355,4.764421 10.85355,10.6643838 0,5.89996196 -4.84893,10.664383 -10.85355,10.664383 -6.00461,0 -10.85355,-4.76442104 -10.85355,-10.664383 0,-5.8999628 4.84894,-10.6643838 10.85355,-10.6643838 z"
         inkscape:connector-curvature="0" />
      <path
         style="display:inline;fill:#bbb1bf;fill-opacity:1;stroke:none;stroke-width:1.19955957"
         id="path3978"
         inkscape:connector-curvature="0"
         d="m -170.78537,-41.73056 c -19.99397,0 -36.20229,15.925823 -36.20229,35.5713218 0,19.6455002 16.20832,35.5713232 36.20229,35.5713232 19.99396,0 36.20228,-15.925823 36.20228,-35.5713232 0,-19.6454988 -16.20832,-35.5713218 -36.20228,-35.5713218 z m 0,23.714215 c 6.66466,0 12.06743,5.308608 12.06743,11.8571068 0,6.54849996 -5.40277,11.857108 -12.06743,11.857108 -6.66465,0 -12.06743,-5.30860804 -12.06743,-11.857108 0,-6.5484988 5.40278,-11.8571068 12.06743,-11.8571068 z" />
      <path
         transform="matrix(0.99540793,0,0,1,-0.61753782,0)"
         style="opacity:0.25500039;vector-effect:none;fill:#ffffff;fill-opacity:1;stroke:none;stroke-width:1.47329009;stroke-linecap:round;stroke-linejoin:miter;stroke-miterlimit:4;stroke-dasharray:none;stroke-dashoffset:0;stroke-opacity:0.65198239;paint-order:stroke fill markers;filter:url(#filter1376)"
         d="m -145.83359,-30.973994 c -2.92274,-2.922734 -6.21092,-5.244509 -9.70753,-6.984058 l -10.79304,21.198009 c 1.35041,0.598007 2.62209,1.442668 3.73302,2.553596 1.06934,1.069344 1.88903,2.28865 2.48316,3.582486 l 21.16349,-10.855188 c -1.72775,-3.416821 -4.01597,-6.631713 -6.8791,-9.494845 z M -181.86704,-1.0503926 -203.083,9.7026012 c 1.73529,3.4670008 4.04337,6.7281638 6.94401,9.6287998 2.84118,2.841177 6.03002,5.114518 9.4175,6.837674 l 10.81376,-21.1800615 c -1.24882,-0.5899887 -2.42623,-1.3904336 -3.46234,-2.4265359 -1.07769,-1.0776944 -1.90194,-2.30769955 -2.49697,-3.6128702 z"
         id="path1356"
         inkscape:connector-curvature="0" />
      <path
         inkscape:connector-curvature="0"
         id="rect1313"
         d="m -170.78591,-41.471991 c -4.11439,0 -8.06301,0.683354 -11.74853,1.925781 l 7.32364,22.621092 c 1.37141,-0.53203 2.86102,-0.83398 4.42489,-0.83398 1.50534,0 2.94051,0.28257 4.26937,0.77734 l 7.2556,-22.640624 c -3.62106,-1.194354 -7.49448,-1.849609 -11.52497,-1.849609 z m -4.30047,46.6386734 -7.36446,22.6054696 c 3.66168,1.2245 7.58165,1.89843 11.66493,1.89843 3.99958,0 7.8442,-0.64736 11.44136,-1.82421 l -7.29642,-22.6230496 c -1.29426,0.46586 -2.6864,0.73242 -4.14494,0.73242 -1.51709,0 -2.963,-0.28691 -4.30047,-0.78906 z"
         style="opacity:0.40303034;vector-effect:none;fill:url(#linearGradient1346);fill-opacity:1;stroke:none;stroke-width:1.46990347;stroke-linecap:round;stroke-linejoin:miter;stroke-miterlimit:4;stroke-dasharray:none;stroke-dashoffset:0;stroke-opacity:0.65198239;paint-order:stroke fill markers" />
      <path
         transform="matrix(0.99540793,0,0,1,-0.61753782,0)"
         id="path1358"
         d="m -196.13899,-31.132813 c -2.92274,2.922735 -5.24451,6.210922 -6.98406,9.707522 l 21.19801,10.793052 c 0.59801,-1.350411 1.44267,-2.622093 2.5536,-3.733022 1.06934,-1.069343 2.28865,-1.889035 3.58249,-2.483161 l -10.8552,-21.163493 c -3.41681,1.727751 -6.63171,4.01597 -9.49484,6.879102 z m 29.9236,36.0334474 10.753,21.2159686 c 3.467,-1.735297 6.72816,-4.043378 9.6288,-6.944015 2.84118,-2.841177 5.11452,-6.030023 6.83767,-9.4174955 L -160.17598,-1.058671 c -0.58999,1.24881454 -1.39043,2.4262322 -2.42654,3.4623345 -1.07769,1.0776944 -2.3077,1.9019483 -3.61287,2.4969709 z"
         style="opacity:0.25500039;vector-effect:none;fill:#ffffff;fill-opacity:1;stroke:none;stroke-width:1.47329009;stroke-linecap:round;stroke-linejoin:miter;stroke-miterlimit:4;stroke-dasharray:none;stroke-dashoffset:0;stroke-opacity:0.65198239;paint-order:stroke fill markers;filter:url(#filter1380)"
         inkscape:connector-curvature="0" />
      <path
         style="display:inline;opacity:0.3;fill:#ffffff;fill-opacity:1;stroke:none;stroke-width:1.19955957"
         id="path3992"
         inkscape:connector-curvature="0"
         d="m -170.78537,-18.016345 c -6.66465,0 -12.06743,5.308608 -12.06743,11.8571068 0,6.54849996 5.40278,11.857108 12.06743,11.857108 6.66466,0 12.06743,-5.30860804 12.06743,-11.857108 0,-6.5484988 -5.40277,-11.8571068 -12.06743,-11.8571068 z m 0,6.916645 c 2.77694,0 5.02809,2.211921 5.02809,4.9404618 0,2.728542 -2.25115,4.940462 -5.02809,4.940462 -2.77694,0 -5.0281,-2.21192 -5.0281,-4.940462 0,-2.7285408 2.25116,-4.9404618 5.0281,-4.9404618 z" />
      <path
         inkscape:connector-curvature="0"
         style="opacity:0.40303034;vector-effect:none;fill:url(#radialGradient1338);fill-opacity:1;stroke:none;stroke-width:1.46990347;stroke-linecap:round;stroke-linejoin:miter;stroke-miterlimit:4;stroke-dasharray:none;stroke-dashoffset:0;stroke-opacity:0.65198239;paint-order:stroke fill markers"
         d="m -206.30564,-6.0130046 c 0,4.133371 0.68023,8.10021 1.91694,11.80273 l 22.51722,-7.35742 c -0.52958,-1.37774 -0.83015,-2.87422 -0.83015,-4.44531 0,-1.51228 0.28128,-2.95407 0.77377,-4.2890604 l -22.53666,-7.289069 c -1.18886,3.637759 -1.84112,7.529049 -1.84112,11.5781294 z m 46.42452,4.32031 22.50166,7.39844 c 1.21888,-3.67858 1.88971,-7.616629 1.88971,-11.71875 0,-4.0180304 -0.64438,-7.8803804 -1.81583,-11.4941394 l -22.51916,7.330079 c 0.46372,1.3002304 0.72905,2.6987904 0.72905,4.1640604 0,1.52409 -0.28559,2.976671 -0.78543,4.32031 z"
         id="path1324" />
      <path
         style="display:inline;opacity:0.6;fill:none;stroke:url(#linearGradient4800);stroke-width:1.19955957;stroke-linecap:round;stroke-linejoin:miter;stroke-miterlimit:4;stroke-dasharray:none;stroke-dashoffset:0;stroke-opacity:1"
         id="path4002-9"
         d="m -170.78537,-0.72473124 a 5.5309044,5.4345075 0 1 1 0,-10.86901476 5.5309044,5.4345075 0 1 1 0,10.86901476 z"
         inkscape:connector-curvature="0" />
      <path
         style="display:inline;opacity:0.5;fill:url(#radialGradient4802);fill-opacity:1;fill-rule:evenodd;stroke:url(#linearGradient4804);stroke-width:1.19955957;stroke-linecap:round;stroke-linejoin:miter;stroke-miterlimit:4;stroke-dasharray:none;stroke-dashoffset:0;stroke-opacity:1"
         id="path4010"
         d="m -170.78537,3.2276398 a 9.5533813,9.3867719 0 1 1 0,-18.7735438 9.5533813,9.3867719 0 1 1 0,18.7735438 z"
         inkscape:connector-curvature="0" />
      <path
         style="display:inline;opacity:0.8;fill:#ffffff;fill-opacity:1;stroke:none;filter:url(#filter4035-8)"
         id="path4018"
         clip-path="url(#clipPath4031-6)"
         transform="matrix(1.0056191,0,0,0.98809228,-219.05509,-73.349512)"
         inkscape:connector-curvature="0"
         d="M 57.3125,33.21875 48,68 79.1875,50 C 74.413603,41.731368 66.53496,35.689901 57.3125,33.21875 Z M 48,68 16.8125,86 c 4.773897,8.268632 12.65254,14.3101 21.875,16.78125 z" />
      <path
         inkscape:connector-curvature="0"
         d="m 60.947452,57.784124 a 20.708128,18.814091 0 0 1 -2.615496,2.905857 L 43.689098,47.38641 Z"
         transform="matrix(1.5139996,0.85887341,-0.96210572,1.6373722,-191.33992,-121.27182)"
         id="path4039"
         style="fill:#7137c8;fill-opacity:1;stroke:none;filter:url(#filter4195-9)" />
      <path
         style="display:inline;opacity:0.2;fill:#000000;fill-opacity:1;stroke:none;stroke-width:1.19955957"
         id="path3986"
         inkscape:connector-curvature="0"
         d="m -170.78537,-20.486576 c -8.05313,0 -14.58147,6.414568 -14.58147,14.3273378 0,7.91277 6.52834,14.327339 14.58147,14.327339 8.05312,0 14.58148,-6.414569 14.58148,-14.327339 0,-7.9127698 -6.52836,-14.3273378 -14.58148,-14.3273378 z m 0,2.470231 c 6.66466,0 12.06743,5.308608 12.06743,11.8571068 0,6.54849996 -5.40277,11.857108 -12.06743,11.857108 -6.66465,0 -12.06743,-5.30860804 -12.06743,-11.857108 0,-6.5484988 5.40278,-11.8571068 12.06743,-11.8571068 z" />
      <path
         style="color:#000000;display:inline;overflow:visible;visibility:visible;opacity:0.6;fill:#ffffff;fill-opacity:1;fill-rule:nonzero;stroke:none;stroke-width:1.19955957;marker:none;enable-background:accumulate"
         id="path3738"
         inkscape:connector-curvature="0"
         d="m -207.08992,-5.5647062 c -0.004,0.200158 0,0.393583 0,0.59453 0,19.7009942 16.2541,35.6718062 36.30455,35.6718062 20.05045,0 36.30456,-15.970812 36.30456,-35.6718062 0,-0.200947 0.004,-0.394372 0,-0.59453 -0.32692,19.4234682 -16.45861,35.0772762 -36.30456,35.0772762 -19.84594,0 -35.97764,-15.653808 -36.30455,-35.0772762 z" />
      <path
         style="color:#000000;display:inline;overflow:visible;visibility:visible;opacity:0.05;fill:#000000;fill-opacity:1;fill-rule:nonzero;stroke:none;stroke-width:1.19955957;marker:none;enable-background:accumulate"
         id="path3749"
         inkscape:connector-curvature="0"
         d="m -170.78537,-41.831042 c -20.05045,0 -36.30455,15.970811 -36.30455,35.6718058 0,19.7009932 16.2541,35.6718062 36.30455,35.6718062 20.05045,0 36.30456,-15.970813 36.30456,-35.6718062 0,-19.7009948 -16.25411,-35.6718058 -36.30456,-35.6718058 z m 0,3.56718 c 18.0454,0 32.6741,14.373731 32.6741,32.1046258 0,17.7308942 -14.6287,32.1046252 -32.6741,32.1046252 -18.0454,0 -32.6741,-14.373731 -32.6741,-32.1046252 0,-17.7308948 14.6287,-32.1046258 32.6741,-32.1046258 z" />
      <path
         style="color:#000000;display:inline;overflow:visible;visibility:visible;opacity:0.1;fill:#000000;fill-opacity:1;fill-rule:nonzero;stroke:none;stroke-width:1.19955957;marker:none;enable-background:accumulate"
         id="path3743"
         inkscape:connector-curvature="0"
         d="m -170.78537,-41.831042 c -20.05045,0 -36.30455,15.970811 -36.30455,35.6718058 0,19.7009932 16.2541,35.6718062 36.30455,35.6718062 20.05045,0 36.30456,-15.970813 36.30456,-35.6718062 0,-19.7009948 -16.25411,-35.6718058 -36.30456,-35.6718058 z m 0,2.415278 c 18.7203,0 33.84644,14.862503 33.84644,33.2565278 0,18.3940242 -15.12614,33.2565272 -33.84644,33.2565272 -18.7203,0 -33.84643,-14.862503 -33.84643,-33.2565272 0,-18.3940248 15.12613,-33.2565278 33.84643,-33.2565278 z" />
      <path
         style="color:#000000;display:inline;overflow:visible;visibility:visible;opacity:0.15;fill:#000000;fill-opacity:1;fill-rule:nonzero;stroke:none;stroke-width:1.19955957;marker:none;enable-background:accumulate"
         id="path3781"
         inkscape:connector-curvature="0"
         d="m -170.78537,-41.831042 c -20.05045,0 -36.30455,15.97081 -36.30455,35.6718058 0,19.7009952 16.2541,35.6718062 36.30455,35.6718062 20.05045,0 36.30456,-15.970811 36.30456,-35.6718062 0,-19.7009958 -16.25411,-35.6718058 -36.30456,-35.6718058 z m 0,1.18906 c 19.38211,0 35.0944,15.43845 35.0944,34.4827458 0,19.0442952 -15.71229,34.4827452 -35.0944,34.4827452 -19.3821,0 -35.0944,-15.43845 -35.0944,-34.4827452 0,-19.0442958 15.7123,-34.4827458 35.0944,-34.4827458 z" />
      <path
         style="color:#000000;display:inline;overflow:visible;visibility:visible;opacity:0.2;fill:#000000;fill-opacity:1;fill-rule:nonzero;stroke:none;stroke-width:1.19955957;marker:none;enable-background:accumulate"
         id="path3753"
         inkscape:connector-curvature="0"
         d="m -170.78537,-41.831042 c -20.05045,0 -36.30455,15.970811 -36.30455,35.6718058 0,0.200946 -0.004,0.394372 0,0.59453 0.32691,-19.4234688 16.45861,-35.0772758 36.30455,-35.0772758 19.84595,0 35.97764,15.653807 36.30456,35.0772758 0.004,-0.200158 0,-0.393584 0,-0.59453 0,-19.7009948 -16.25411,-35.6718058 -36.30456,-35.6718058 z" />
      <path
         style="display:inline;opacity:0.5;fill:#000000;fill-opacity:1;stroke:none;filter:url(#filter3832-0-0)"
         id="path3031"
         inkscape:connector-curvature="0"
         d="m 34.15625,19 v 47.625 c -2.955082,-1.157245 -6.827447,-1.328031 -10.8125,-0.25 -7.447675,2.014732 -12.437142,7.649815 -11.125,12.59375 1.312141,4.94395 8.396075,7.327232 15.84375,5.3125 6.327497,-1.711705 9.392814,-6.046916 9.8125,-10.34375 h 0.03125 v -43.75 c 3.726808,2.658135 12.764489,12.968337 8.4375,25.125 C 48.740074,49.075171 48.958391,42.385667 48.0625,38.78125 46.978404,34.419595 43.317066,29.924286 39.53125,25.875 35.554215,21.621189 34.15625,19 34.15625,19 Z m 11.75,37.40625 c -0.401834,0.933587 -0.866802,1.858794 -1.375,2.75 0.538758,-0.921986 0.995679,-1.843815 1.375,-2.75 z"
         transform="matrix(0.51986206,0.19528396,-0.19037546,0.53326584,-191.66087,-23.192466)" />
      <path
         style="fill:url(#radialGradient4806);fill-opacity:1;stroke:none;stroke-width:0.37817112"
         id="path3261"
         inkscape:connector-curvature="0"
         d="m -177.33574,-6.9252622 -9.06825,25.4012902 c -1.31593,-1.194199 -3.28819,-2.046499 -5.5651,-2.249839 -4.25532,-0.380023 -7.9288,1.650422 -8.18786,4.543095 -0.25909,2.892679 2.97483,5.551506 7.23013,5.931529 3.61531,0.322866 6.02587,-1.395074 7.06205,-3.604471 l 0.0249,0.0094 8.32856,-23.32933824 c 1.57945,2.36720404 4.73558,10.97076424 -2.06599,16.74000924 3.47086,-3.008054 5.44345,-7.6358742 5.71022,-10.1734992 0.26677,-2.537628 -0.7835,-5.64407904 -1.98073,-8.542735 -1.25768,-3.045063 -1.48793,-4.725395 -1.48793,-4.725395 z" />
      <path
         style="fill:url(#radialGradient4808);fill-opacity:1;stroke:none;stroke-width:0.4517833"
         id="path2494"
         d="m -185.59225,21.767639 a 6.5474656,4.2449766 7.2834766 1 1 -12.99624,-1.603258 6.5474656,4.2449766 7.2834766 1 1 12.99624,1.603258 z"
         inkscape:connector-curvature="0" />
      <path
         transform="matrix(0.62250582,0.23139327,-0.22557715,0.63855611,-197.37103,-55.285905)"
         d="m 34.15625,19 v 47.625 c -2.955082,-1.157245 -6.827447,-1.328031 -10.8125,-0.25 -7.447675,2.014732 -12.437142,7.649815 -11.125,12.59375 1.312141,4.94395 8.396075,7.327232 15.84375,5.3125 6.327497,-1.711705 9.392814,-6.046916 9.8125,-10.34375 h 0.03125 v -43.75 c 3.726808,2.658135 12.764489,12.968337 8.4375,25.125 C 48.740074,49.075171 48.958391,42.385667 48.0625,38.78125 46.978404,34.419595 43.317066,29.924286 39.53125,25.875 35.554215,21.621189 34.15625,19 34.15625,19 Z m 11.75,37.40625 c -0.401834,0.933587 -0.866802,1.858794 -1.375,2.75 0.538758,-0.921986 0.995679,-1.843815 1.375,-2.75 z"
         inkscape:connector-curvature="0"
         id="path4316"
         style="display:inline;opacity:0.5;fill:#000000;fill-opacity:1;stroke:none;filter:url(#filter3832-0-0)" />
      <path
         d="m -180.17453,-35.890442 -10.74503,30.4166288 c -1.57849,-1.422751 -3.94064,-2.4338792 -6.66453,-2.6676105 -5.0907,-0.4368223 -9.47601,2.0067685 -9.77445,5.4673695 -0.29842,3.46060996 3.5797,6.627035 8.6704,7.063857 4.32503,0.371121 7.20117,-1.69348 8.4317,-4.34013704 l 0.0299,0.01108 9.86856,-27.93558076 c 1.8983,2.824526 5.70687,13.100948 -2.40478,20.0289896 4.13914,-3.6119306 6.48002,-9.1548186 6.78906,-12.1908296 0.30902,-3.036013 -0.95932,-6.746848 -2.40259,-10.208557 -1.51617,-3.636556 -1.79816,-5.645213 -1.79816,-5.645213 z"
         inkscape:connector-curvature="0"
         id="path4318"
         style="fill:url(#radialGradient4810);fill-opacity:1;stroke:none;stroke-width:0.45228079" />
      <path
         inkscape:connector-curvature="0"
         d="m -189.93576,-1.5405442 a 7.8303942,5.0769664 7.0777439 1 1 -15.54933,-1.863465 7.8303942,5.0769664 7.0777439 1 1 15.54933,1.863465 z"
         id="path4320"
         style="fill:url(#radialGradient4812);fill-opacity:1;stroke:none;stroke-width:0.54031867" />
    </g>
    <rect
       transform="matrix(1.0636761,0,0,1.0422264,4.5228542,6.528577)"
       style="opacity:0.573;fill:url(#linearGradient4767);fill-opacity:1;stroke:none;stroke-width:1.00471163"
       id="rect4146"
       width="75.965775"
       height="69.024437"
       x="2"
       y="-30"
       rx="3.973561"
       ry="3.9777055"
       clip-path="url(#clipPath4156-4-1)" />
  </g>
</svg>
