<?xml version="1.0" encoding="UTF-8" standalone="no"?>
<svg
   xmlns:dc="http://purl.org/dc/elements/1.1/"
   xmlns:cc="http://creativecommons.org/ns#"
   xmlns:rdf="http://www.w3.org/1999/02/22-rdf-syntax-ns#"
   xmlns:svg="http://www.w3.org/2000/svg"
   xmlns="http://www.w3.org/2000/svg"
   xmlns:xlink="http://www.w3.org/1999/xlink"
   xmlns:sodipodi="http://sodipodi.sourceforge.net/DTD/sodipodi-0.dtd"
   xmlns:inkscape="http://www.inkscape.org/namespaces/inkscape"
   version="1.1"
   viewBox="0 0 48 48"
   height="48"
   width="48"
   id="svg52"
   sodipodi:docname="kblackbox.svg"
   inkscape:version="0.92.2 5c3e80d, 2017-08-06">
  <metadata
     id="metadata56">
    <rdf:RDF>
      <cc:Work
         rdf:about="">
        <dc:format>image/svg+xml</dc:format>
        <dc:type
           rdf:resource="http://purl.org/dc/dcmitype/StillImage" />
      </cc:Work>
    </rdf:RDF>
  </metadata>
  <sodipodi:namedview
     pagecolor="#ffffff"
     bordercolor="#666666"
     borderopacity="1"
     objecttolerance="10"
     gridtolerance="10"
     guidetolerance="10"
     inkscape:pageopacity="0"
     inkscape:pageshadow="2"
     inkscape:window-width="1280"
     inkscape:window-height="941"
     id="namedview54"
     showgrid="false"
     inkscape:snap-object-midpoints="true"
     inkscape:zoom="4.9166667"
     inkscape:cx="24"
     inkscape:cy="24"
     inkscape:window-x="0"
     inkscape:window-y="21"
     inkscape:window-maximized="1"
     inkscape:current-layer="svg52" />
  <defs
     id="defs34">
    <linearGradient
       id="linearGradient4180">
      <stop
         style="stop-color:#172525;stop-opacity:1"
         offset="0"
         id="stop2" />
      <stop
         style="stop-color:#354848;stop-opacity:1"
         offset="1"
         id="stop4" />
    </linearGradient>
    <linearGradient
       id="linearGradient4174">
      <stop
         style="stop-color:#172525;stop-opacity:1"
         offset="0"
         id="stop7" />
      <stop
         style="stop-color:#394d4d;stop-opacity:1"
         offset="1"
         id="stop9" />
    </linearGradient>
    <linearGradient
       id="linearGradient4456">
      <stop
         style="stop-color:#000000;stop-opacity:1;"
         offset="0"
         id="stop12" />
      <stop
         style="stop-color:#000000;stop-opacity:0;"
         offset="1"
         id="stop14" />
    </linearGradient>
    <linearGradient
       id="linearGradient4432">
      <stop
         style="stop-color:#eff1f1;stop-opacity:1"
         offset="0"
         id="stop17" />
      <stop
         style="stop-color:#6f8181;stop-opacity:1"
         offset="1"
         id="stop19" />
    </linearGradient>
    <linearGradient
       id="linearGradient4211">
      <stop
         offset="0"
         style="stop-color:#172525;stop-opacity:1"
         id="stop22" />
      <stop
         offset="1"
         style="stop-color:#334545;stop-opacity:1"
         id="stop24" />
    </linearGradient>
    <linearGradient
       gradientUnits="userSpaceOnUse"
       y2="9.136"
       x2=".204"
       y1="42.16"
       x1="42.961"
       id="linearGradient4217"
       xlink:href="#linearGradient4180"
       gradientTransform="matrix(0.73773055,0,0,0.70988157,72.269829,-13.207964)" />
    <linearGradient
       gradientUnits="userSpaceOnUse"
       y2="25.25"
       x2="13.173"
       y1="59.821"
       x1="39.597"
       id="linearGradient4225"
       xlink:href="#linearGradient4174" />
    <linearGradient
       gradientUnits="userSpaceOnUse"
       y2="9.673"
       x2="11.236"
       y1="31.12"
       x1="36.447"
       id="linearGradient4233"
       xlink:href="#linearGradient4211" />
    <linearGradient
       gradientTransform="matrix(0.97222222,0,0,0.975,47.649718,-6.9254237)"
       y2="21.905"
       x2="5.928"
       y1="34.488"
       x1="21.796"
       gradientUnits="userSpaceOnUse"
       id="linearGradient4241"
       xlink:href="#linearGradient4211" />
    <linearGradient
       xlink:href="#linearGradient4432"
       id="linearGradient4438"
       x1="8.808"
       y1="15.038"
       x2="17.168"
       y2="35.845"
       gradientUnits="userSpaceOnUse"
       gradientTransform="translate(47.79661,-7.1186441)" />
    <linearGradient
       xlink:href="#linearGradient4456"
       id="linearGradient4470"
       x1="8.662"
       y1="20"
       x2="14.783"
       y2="26.122"
       gradientUnits="userSpaceOnUse" />
    <linearGradient
       xlink:href="#linearGradient4456"
       id="linearGradient4481"
       x1="13.076"
       y1="32.974"
       x2="19.142"
       y2="43.481"
       gradientUnits="userSpaceOnUse" />
    <linearGradient
       inkscape:collect="always"
       xlink:href="#linearGradient6139-0"
       id="linearGradient4071"
       gradientUnits="userSpaceOnUse"
       gradientTransform="matrix(0.55126485,0,0,0.55126475,-1.9996054,-1.2420496)"
       x1="6"
       y1="47.000011"
       x2="90"
       y2="47.000011" />
    <linearGradient
       id="linearGradient6139-0">
      <stop
         id="stop6141-2"
         offset="0"
         style="stop-color:#b2babc;stop-opacity:1" />
      <stop
         style="stop-color:#ffffff;stop-opacity:1;"
         offset="0.25"
         id="stop6151-0" />
      <stop
         style="stop-color:#96a1a4;stop-opacity:1"
         offset="0.5"
         id="stop6147-1" />
      <stop
         id="stop6149-4"
         offset="0.75"
         style="stop-color:#fbf9f9;stop-opacity:1;" />
      <stop
         id="stop6143-4"
         offset="1"
         style="stop-color:#b2b9bc;stop-opacity:1" />
    </linearGradient>
    <linearGradient
       gradientTransform="matrix(0.49791667,0,0,0.49791666,0.56110833,0.76739967)"
       inkscape:collect="always"
       xlink:href="#linearGradient3832-0-6-1-1"
       id="linearGradient4129"
       x1="1.5"
       y1="88.171875"
       x2="94.5"
       y2="88.171875"
       gradientUnits="userSpaceOnUse" />
    <linearGradient
       id="linearGradient3832-0-6-1-1">
      <stop
         style="stop-color:#000000;stop-opacity:1;"
         offset="0"
         id="stop3834-6-3-7-1" />
      <stop
         id="stop3872-2-4"
         offset="0.1"
         style="stop-color:#000000;stop-opacity:0.58823532;" />
      <stop
         style="stop-color:#000000;stop-opacity:0.58823532;"
         offset="0.89999998"
         id="stop3844-6-2-7-6" />
      <stop
         style="stop-color:#000000;stop-opacity:1;"
         offset="1"
         id="stop3836-5-0-2-9" />
    </linearGradient>
    <radialGradient
       inkscape:collect="always"
       xlink:href="#linearGradient3737"
       id="radialGradient7462"
       gradientUnits="userSpaceOnUse"
       gradientTransform="matrix(0.48553536,0,0,0.02449288,17.439834,40.683734)"
       cx="13.948145"
       cy="44.892841"
       fx="13.948145"
       fy="44.892841"
       r="43.199203" />
    <linearGradient
       id="linearGradient3737">
      <stop
         offset="0"
         style="stop-color:#ffffff;stop-opacity:1"
         id="stop3739" />
      <stop
         offset="1"
         style="stop-color:#ffffff;stop-opacity:0"
         id="stop3741" />
    </linearGradient>
    <radialGradient
       inkscape:collect="always"
       xlink:href="#linearGradient3737"
       id="radialGradient7464"
       gradientUnits="userSpaceOnUse"
       gradientTransform="matrix(0.44231264,0,0,0.02449288,16.473928,-45.457411)"
       cx="13.948145"
       cy="44.892841"
       fx="13.948145"
       fy="44.892841"
       r="43.199203" />
    <linearGradient
       inkscape:collect="always"
       xlink:href="#linearGradient3737"
       id="linearGradient4767"
       gradientUnits="userSpaceOnUse"
       x1="2.7713892"
       y1="-28.64156"
       x2="50.527882"
       y2="14.514202" />
    <clipPath
       id="clipPath4156-4-1"
       clipPathUnits="userSpaceOnUse">
      <path
         inkscape:connector-curvature="0"
         id="path4158-0-8"
         d="m 27.046336,-55.695463 -14.21366,13.321486 h 0.06127 l 15.653407,21.770763 10.231384,-10.546177 C 38.561832,-32.30156 27.468089,-54.819245 27.046336,-55.695463 Z M 9.6468554,-39.382809 -5.2407289,-25.32124 15.987863,-7.8059573 26.372412,-18.382966 Z m 31.4906096,12.951445 -9.741259,9.713584 8.944804,12.4580526 7.780753,-7.5550056 z m -49.8397109,4.378822 -13.7541661,12.9822847 26.2830181,13.84571 0.06127,-0.0617 -0.122531,-0.0617 L 13.598503,-5.4007374 -8.7022409,-22.052595 Z m 38.0154159,7.400825 -9.802525,9.7752596 11.579232,9.5594001 7.62759,-7.40083 -8.669108,-11.0087257 z m 20.187073,5.6739697 -7.382526,7.2158 6.187844,8.54179 5.820249,-6.13651996 z m -32.195166,6.32154 -9.5574606,9.49772 13.6622686,7.1849703 7.933918,-7.6783603 z m 23.311629,2.37443004 -7.10683,6.93826996 8.362778,6.9074403 5.360756,-5.6739699 -0.06127,-0.0925 -0.0919,0.12335 -6.463539,-8.20258036 z m -8.730374,8.54178036 -7.505057,7.3391599 10.353916,5.45811 c 1.397496,-1.32103 5.67514,-6.12292 5.850882,-6.32154 z"
         style="opacity:0.6;fill:#ffffff;fill-opacity:1;stroke:none" />
    </clipPath>
    <linearGradient
       id="ButtonShadow-16"
       gradientTransform="scale(1.0058652,0.994169)"
       x1="45.447727"
       y1="92.539597"
       x2="45.447727"
       y2="7.0165396"
       gradientUnits="userSpaceOnUse">
      <stop
         style="stop-color:#000000;stop-opacity:1;"
         offset="0"
         id="stop3750-6" />
      <stop
         style="stop-color:#000000;stop-opacity:0.58823532;"
         offset="1"
         id="stop3752-4" />
    </linearGradient>
    <clipPath
       clipPathUnits="userSpaceOnUse"
       id="clipPath4355-7">
      <rect
         style="fill:#ffffff;fill-opacity:1;fill-rule:nonzero;stroke:none"
         id="rect4357-5"
         width="84"
         height="80"
         x="6"
         y="6"
         rx="6"
         ry="6" />
    </clipPath>
    <clipPath
       clipPathUnits="userSpaceOnUse"
       id="clipPath4355-9">
      <rect
         style="fill:#ffffff;fill-opacity:1;fill-rule:nonzero;stroke:none"
         id="rect4357-1"
         width="84"
         height="80"
         x="6"
         y="6"
         rx="6"
         ry="6" />
    </clipPath>
    <clipPath
       clipPathUnits="userSpaceOnUse"
       id="clipPath4355-1">
      <rect
         style="fill:#ffffff;fill-opacity:1;fill-rule:nonzero;stroke:none"
         id="rect4357-9"
         width="84"
         height="80"
         x="6"
         y="6"
         rx="6"
         ry="6" />
    </clipPath>
    <clipPath
       clipPathUnits="userSpaceOnUse"
       id="clipPath3943-52-0">
      <path
         id="path3945-4-1"
         d="m 69.78125,20.84375 -5,3.4375 c 5.586891,5.537137 9,13.327613 9,21.8125 0,8.434478 -3.37723,16.095981 -8.90625,21.625 l 5,3.4375 C 76.078226,64.5762 80,55.843726 80,46.09375 c 2e-6,-9.796556 -3.962955,-18.660417 -10.21875,-25.25 z M 40,24.0625 28.90625,36.21875 H 21.5 c -0.823281,0 -1.5,0.676717 -1.5,1.5 v 1 14.84375 1 c 0,0.823281 0.684121,1.610161 1.5,1.5 h 7.40625 L 40,68 V 66 26.0625 Z m 20.59375,3.28125 -5,3.4375 L 55.5,30.875 c 3.93815,3.890071 6.40625,9.25018 6.40625,15.21875 0,5.920869 -2.42961,11.148358 -6.3125,15.03125 l 0.09375,0.09375 5.09375,3.4375 c 4.475428,-4.908367 7.25,-11.402005 7.25,-18.5625 0,-7.230696 -2.87904,-13.83107 -7.4375,-18.75 z m -9.25,6.5 -5.21875,3.625 c 2.222384,2.217802 3.71875,5.239596 3.71875,8.625 0,3.336509 -1.458847,6.227712 -3.625,8.4375 l 5.21875,3.625 c 2.822412,-3.236947 4.53125,-7.43414 4.53125,-12.0625 0,-4.672601 -1.754155,-9.001351 -4.625,-12.25 z"
         style="color:#000000;display:inline;overflow:visible;visibility:visible;opacity:0.8;fill:#ff00ff;fill-opacity:1;fill-rule:nonzero;stroke:none;stroke-width:1;marker:none;enable-background:accumulate"
         inkscape:connector-curvature="0" />
    </clipPath>
  </defs>
  <g
     id="g8155"
     transform="translate(-0.20338983,-0.61016949)">
    <path
       inkscape:connector-curvature="0"
       id="path3288"
       d="M 44.946822,0.76739967 H 3.9753914 c -1.8915097,0 -3.41428187,1.52277053 -3.41428187,3.41428433 v 40.97143 c 0,1.891514 1.52277217,3.414286 3.41428187,3.414286 H 44.946822 c 1.891514,0 3.414288,-1.522772 3.414288,-3.414286 V 4.181684 c 0,-1.8915138 -1.522774,-3.41428433 -3.414288,-3.41428433 z"
       style="display:inline;opacity:0.15;fill:#000000;fill-opacity:1;fill-rule:nonzero;stroke:none;stroke-width:0.49791667" />
    <path
       style="display:inline;opacity:0.15;fill:#000000;fill-opacity:1;fill-rule:nonzero;stroke:none;stroke-width:0.49791667"
       d="M 44.626734,1.1408372 H 4.2954802 c -1.8619555,0 -3.36093407,1.4989771 -3.36093407,3.3609355 V 44.833025 c 0,1.861959 1.49897857,3.360937 3.36093407,3.360937 H 44.626734 c 1.86196,0 3.360938,-1.498978 3.360938,-3.360937 V 4.5017727 c 0,-1.8619584 -1.498978,-3.3609355 -3.360938,-3.3609355 z"
       id="path4085"
       inkscape:connector-curvature="0" />
    <path
       inkscape:connector-curvature="0"
       id="rect4251-1"
       d="M 44.306642,1.5142747 H 4.6155729 c -1.8324046,0 -3.3075891,1.4751846 -3.3075891,3.3075877 V 44.512936 c 0,1.832405 1.4751845,3.307589 3.3075891,3.307589 H 44.306642 c 1.832405,0 3.307588,-1.475185 3.307588,-3.307589 V 4.8218624 c 0,-1.8324031 -1.475183,-3.3075877 -3.307588,-3.3075877 z"
       style="display:inline;fill:url(#linearGradient4071);fill-opacity:1;fill-rule:nonzero;stroke:none;stroke-width:0.49791667" />
    <path
       sodipodi:nodetypes="sscccsccscccsss"
       inkscape:connector-curvature="0"
       id="path3400-6"
       d="m 6.1583357,3.9476641 c -1.4222972,0 -2.551389,1.1530465 -2.551389,2.6055173 v 10.7966076 3.647723 20.111331 c 0.5463341,0.848762 1.4782393,1.416749 2.551389,1.416749 H 8.199447 40.857228 43.67981 c 1.07315,0 1.223584,0.01811 1.769918,-0.830645 V 20.997512 17.349789 6.5531814 c 0,-1.4524708 -1.129092,-2.6055173 -2.55139,-2.6055173 z"
       style="display:inline;opacity:0.98000004;fill:#e8e8e8;fill-opacity:1;fill-rule:nonzero;stroke:none;stroke-width:0.51566219" />
    <path
       style="color:#000000;font-style:normal;font-variant:normal;font-weight:normal;font-stretch:normal;font-size:medium;line-height:normal;font-family:Sans;-inkscape-font-specification:Sans;text-indent:0;text-align:start;text-decoration:none;text-decoration-line:none;letter-spacing:normal;word-spacing:normal;text-transform:none;writing-mode:lr-tb;direction:ltr;baseline-shift:baseline;text-anchor:start;display:inline;overflow:visible;visibility:visible;fill:#1f2224;fill-opacity:0.80869565;stroke:none;stroke-width:1.18280113;marker:none;enable-background:accumulate"
       d="m 5.4531797,3.1222766 c -1.5518175,0 -2.8221742,1.2644644 -2.8221742,2.8112405 V 40.428186 c 0,1.546775 1.2703567,2.811239 2.8221742,2.811239 H 43.689089 c 1.551818,0 2.822176,-1.264464 2.822176,-2.811239 V 5.9335171 c 0,-1.5467751 -1.270358,-2.8112405 -2.822176,-2.8112405 z m 0,1.1548879 H 43.689089 c 0.940116,0 1.669027,0.7369634 1.669027,1.6563526 V 40.428186 c 0,0.91939 -0.728911,1.65635 -1.669027,1.65635 H 5.4531797 c -0.9401159,0 -1.6690276,-0.73696 -1.6690276,-1.65635 V 5.9335171 c 0,-0.9193892 0.7289117,-1.6563526 1.6690276,-1.6563526 z"
       id="path4989"
       inkscape:connector-curvature="0" />
    <g
       style="stroke-width:1.01602232"
       id="g8074"
       transform="matrix(1,0,0,0.96870926,-47.637674,7.8284696)">
      <path
         d="m 70.983051,-3.0254237 -17.5,9.75 V 26.224576 l 17.5,9.75 17.5,-9.75 V 6.7245763 Z"
         style="opacity:1;fill:url(#linearGradient4241);fill-opacity:1;stroke:none;stroke-width:2.03204465;stroke-linecap:round;stroke-linejoin:round;stroke-miterlimit:4;stroke-dasharray:none;stroke-opacity:1"
         id="path36"
         inkscape:connector-curvature="0" />
      <path
         d="m 62.745677,13.609404 c -1.924174,-1.110922 -3.722818,-1.648277 -4.992726,-1.444697 -1.269922,0.206449 -1.949997,1.148138 -1.956341,2.572984 0,0 3.960377,2.286525 3.960377,2.286525 0.0034,-0.773734 0.320149,-1.093416 0.787498,-1.170115 0.467348,-0.07598 1.145482,0.08189 2.190118,0.68501 1.044635,0.60312 1.720693,1.227095 2.184969,1.840948 0.464276,0.613854 0.776512,1.297373 0.773067,2.071107 -0.003,0.671908 -0.183122,0.854762 -0.42305,0.97002 -0.23993,0.115259 -0.63212,0.128949 -1.215237,0.09495 -0.583116,-0.03399 -1.358069,-0.132732 -2.075258,0.07219 -0.717189,0.204928 -1.254973,0.831921 -1.259596,1.870259 0,0 -0.0033,0.732859 -0.0033,0.732859 0,0 3.960377,2.286525 3.960377,2.286525 0,0 0.0033,-0.73286 0.0033,-0.73286 0.0019,-0.427382 0.08478,-0.452146 0.298847,-0.513317 0.214071,-0.06117 0.680987,-0.04035 1.336991,-0.0017 0.656004,0.03869 1.504126,0.07902 2.196272,-0.254671 0.692146,-0.333696 1.135862,-1.076826 1.141034,-2.238502 0.0063,-1.424847 -0.662861,-3.145543 -1.923452,-4.812984 -1.261576,-1.668009 -3.055782,-3.202111 -4.979956,-4.313034 m -2.034019,12.05249 c 0,0 -0.01305,2.93144 -0.01305,2.93144 0,0 3.960377,2.286525 3.960377,2.286525 0,0 0.01305,-2.93144 0.01305,-2.93144 0,0 -3.960377,-2.286525 -3.960377,-2.286525"
         style="fill:url(#linearGradient4438);fill-opacity:1;stroke-width:2.03204465;stroke-linejoin:round"
         id="path50"
         inkscape:connector-curvature="0" />
    </g>
    <path
       id="path4118"
       d="m 1.3079833,41.518767 v 2.9875 c 0,1.832404 1.4818531,3.314258 3.3142577,3.314258 h 39.677734 c 1.832405,0 3.31426,-1.481854 3.31426,-3.314258 v -2.9875 c 0,1.832404 -1.481855,3.314258 -3.31426,3.314258 H 4.622241 c -1.8324046,0 -3.3142577,-1.481854 -3.3142577,-3.314258 z"
       style="display:inline;opacity:0.65818182;fill:url(#linearGradient4129);fill-opacity:1;fill-rule:nonzero;stroke:none;stroke-width:0.49791667"
       inkscape:connector-curvature="0" />
    <rect
       ry="2.1161458"
       rx="2.1161458"
       y="40.725212"
       x="3.2374105"
       height="2.1161458"
       width="41.949482"
       id="rect4131"
       style="opacity:0.55;fill:url(#radialGradient7462);fill-opacity:1;stroke:none;stroke-width:0.49791667" />
    <rect
       transform="rotate(90)"
       style="opacity:0.669;fill:url(#radialGradient7464);fill-opacity:1;stroke:none;stroke-width:0.49791667"
       id="rect4141"
       width="38.215103"
       height="2.1161458"
       x="3.535816"
       y="-45.415936"
       rx="2.1161458"
       ry="2.1161458" />
    <rect
       clip-path="url(#clipPath4156-4-1)"
       ry="3.9569881"
       rx="3.9569874"
       y="-30"
       x="2"
       height="69.024437"
       width="75.965775"
       id="rect4146"
       style="opacity:0.7;fill:url(#linearGradient4767);fill-opacity:1;stroke:none"
       transform="matrix(0.53239495,0,0,0.52165878,2.6997733,19.926728)" />
  </g>
</svg>
