<?xml version="1.0" encoding="UTF-8" standalone="no"?>
<!-- Created with Inkscape (http://www.inkscape.org/) -->

<svg
   xmlns:dc="http://purl.org/dc/elements/1.1/"
   xmlns:cc="http://creativecommons.org/ns#"
   xmlns:rdf="http://www.w3.org/1999/02/22-rdf-syntax-ns#"
   xmlns:svg="http://www.w3.org/2000/svg"
   xmlns="http://www.w3.org/2000/svg"
   xmlns:xlink="http://www.w3.org/1999/xlink"
   xmlns:sodipodi="http://sodipodi.sourceforge.net/DTD/sodipodi-0.dtd"
   xmlns:inkscape="http://www.inkscape.org/namespaces/inkscape"
   version="1.0"
   width="96"
   height="96"
   id="svg2408"
   inkscape:version="0.48.5 r10040"
   sodipodi:docname="kupfer.svg">
  <sodipodi:namedview
     pagecolor="#ffffff"
     bordercolor="#666666"
     borderopacity="1"
     objecttolerance="10"
     gridtolerance="10"
     guidetolerance="10"
     inkscape:pageopacity="0"
     inkscape:pageshadow="2"
     inkscape:window-width="1280"
     inkscape:window-height="964"
     id="namedview74"
     showgrid="false"
     inkscape:zoom="2.5395538"
     inkscape:cx="-6.1433706"
     inkscape:cy="47.791172"
     inkscape:window-x="0"
     inkscape:window-y="0"
     inkscape:window-maximized="1"
     inkscape:current-layer="g3272" />
  <defs
     id="defs2410">
    <linearGradient
       id="linearGradient3500">
      <stop
         style="stop-color:#984f01;stop-opacity:1;"
         offset="0"
         id="stop3502" />
      <stop
         style="stop-color:#6f3b2a;stop-opacity:1;"
         offset="1"
         id="stop3504" />
    </linearGradient>
    <linearGradient
       id="linearGradient4101">
      <stop
         id="stop4103"
         style="stop-color:#ffac2d;stop-opacity:1"
         offset="0" />
      <stop
         id="stop4105"
         style="stop-color:#f57d00;stop-opacity:0"
         offset="1" />
    </linearGradient>
    <linearGradient
       x1="45.447727"
       y1="92.539597"
       x2="45.447727"
       y2="7.0165396"
       id="ButtonShadow"
       gradientUnits="userSpaceOnUse"
       gradientTransform="scale(1.0058652,0.994169)">
      <stop
         id="stop3750"
         style="stop-color:#000000;stop-opacity:1"
         offset="0" />
      <stop
         id="stop3752"
         style="stop-color:#000000;stop-opacity:0.58823532"
         offset="1" />
    </linearGradient>
    <linearGradient
       id="linearGradient3737">
      <stop
         id="stop3739"
         style="stop-color:#ffffff;stop-opacity:1"
         offset="0" />
      <stop
         id="stop3741"
         style="stop-color:#ffffff;stop-opacity:0"
         offset="1" />
    </linearGradient>
    <filter
       color-interpolation-filters="sRGB"
       id="filter3174">
      <feGaussianBlur
         id="feGaussianBlur3176"
         stdDeviation="1.71" />
    </filter>
    <linearGradient
       x1="36.357143"
       y1="6"
       x2="36.357143"
       y2="63.893143"
       id="linearGradient3188"
       xlink:href="#linearGradient3737"
       gradientUnits="userSpaceOnUse" />
    <filter
       x="-0.192"
       y="-0.192"
       width="1.3839999"
       height="1.3839999"
       color-interpolation-filters="sRGB"
       id="filter3794">
      <feGaussianBlur
         id="feGaussianBlur3796"
         stdDeviation="5.28" />
    </filter>
    <linearGradient
       x1="48"
       y1="20.220806"
       x2="48"
       y2="138.66119"
       id="linearGradient3613"
       xlink:href="#linearGradient4101"
       gradientUnits="userSpaceOnUse" />
    <radialGradient
       cx="48"
       cy="90.171875"
       r="42"
       fx="48"
       fy="90.171875"
       id="radialGradient3619"
       xlink:href="#linearGradient3737"
       gradientUnits="userSpaceOnUse"
       gradientTransform="matrix(1.1573129,0,0,0.99590774,-7.5510206,0.19713193)" />
    <clipPath
       id="clipPath3613">
      <rect
         width="84"
         height="84"
         rx="6"
         ry="6"
         x="6"
         y="6"
         id="rect3615"
         style="fill:#ffffff;fill-opacity:1;fill-rule:nonzero;stroke:none" />
    </clipPath>
    <linearGradient
       x1="48"
       y1="90"
       x2="48"
       y2="5.9877172"
       id="linearGradient3617"
       xlink:href="#linearGradient5341"
       gradientUnits="userSpaceOnUse" />
    <linearGradient
       x1="45.447727"
       y1="92.539597"
       x2="45.447727"
       y2="7.0165396"
       id="ButtonShadow-0"
       gradientUnits="userSpaceOnUse"
       gradientTransform="matrix(1.0058652,0,0,0.994169,100,0)">
      <stop
         id="stop3750-8"
         style="stop-color:#000000;stop-opacity:1"
         offset="0" />
      <stop
         id="stop3752-5"
         style="stop-color:#000000;stop-opacity:0.58823532"
         offset="1" />
    </linearGradient>
    <linearGradient
       x1="32.251034"
       y1="6.1317081"
       x2="32.251034"
       y2="90.238609"
       id="linearGradient3780"
       xlink:href="#ButtonShadow-0"
       gradientUnits="userSpaceOnUse"
       gradientTransform="matrix(1.0238095,0,0,1.0119048,-1.1428571,-98.071429)" />
    <linearGradient
       x1="32.251034"
       y1="6.1317081"
       x2="32.251034"
       y2="90.238609"
       id="linearGradient3772"
       xlink:href="#ButtonShadow-0"
       gradientUnits="userSpaceOnUse"
       gradientTransform="matrix(1.0238095,0,0,1.0119048,-1.1428571,-98.071429)" />
    <linearGradient
       x1="32.251034"
       y1="6.1317081"
       x2="32.251034"
       y2="90.238609"
       id="linearGradient3725"
       xlink:href="#ButtonShadow-0"
       gradientUnits="userSpaceOnUse"
       gradientTransform="matrix(1.0238095,0,0,1.0119048,-1.1428571,-98.071429)" />
    <linearGradient
       x1="32.251034"
       y1="6.1317081"
       x2="32.251034"
       y2="90.238609"
       id="linearGradient3721"
       xlink:href="#ButtonShadow-0"
       gradientUnits="userSpaceOnUse"
       gradientTransform="translate(0,-97)" />
    <linearGradient
       x1="32.251034"
       y1="6.1317081"
       x2="32.251034"
       y2="90.238609"
       id="linearGradient3026"
       xlink:href="#ButtonShadow-0"
       gradientUnits="userSpaceOnUse"
       gradientTransform="matrix(1.0238095,0,0,1.0119048,-1.1428571,-98.071429)" />
    <linearGradient
       id="linearGradient5341">
      <stop
         id="stop5343"
         style="stop-color:#6a2700;stop-opacity:1"
         offset="0" />
      <stop
         id="stop5345"
         style="stop-color:#c04700;stop-opacity:1"
         offset="1" />
    </linearGradient>
    <radialGradient
       cx="373.02762"
       cy="505.23026"
       r="14.663592"
       fx="373.02762"
       fy="505.23026"
       id="radialGradient3988-1"
       xlink:href="#linearGradient5360-6-2-2-6"
       gradientUnits="userSpaceOnUse"
       gradientTransform="matrix(-0.1397483,-0.05416471,0.0670341,-0.12930541,57.32029,111.89418)" />
    <linearGradient
       id="linearGradient5360-6-2-2-6">
      <stop
         id="stop5362-9-5-8-1"
         style="stop-color:#fbffce;stop-opacity:0.63999999"
         offset="0" />
      <stop
         id="stop5364-4-6-0-5"
         style="stop-color:#fbffce;stop-opacity:0"
         offset="1" />
    </linearGradient>
    <radialGradient
       cx="373.02762"
       cy="505.23026"
       r="14.663592"
       fx="373.02762"
       fy="505.23026"
       id="radialGradient3991-6"
       xlink:href="#linearGradient5360-6-2-8"
       gradientUnits="userSpaceOnUse"
       gradientTransform="matrix(-0.24423642,-0.10894784,0.11715467,-0.26008712,87.888982,216.92222)" />
    <linearGradient
       id="linearGradient5360-6-2-8">
      <stop
         id="stop5362-9-5-2"
         style="stop-color:#fbffce;stop-opacity:1"
         offset="0" />
      <stop
         id="stop5364-4-6-03"
         style="stop-color:#fbffce;stop-opacity:0"
         offset="1" />
    </linearGradient>
    <radialGradient
       cx="370.52362"
       cy="503.76224"
       r="14.663592"
       fx="370.52362"
       fy="503.76224"
       id="radialGradient4012-8"
       xlink:href="#linearGradient5360-6-1"
       gradientUnits="userSpaceOnUse"
       gradientTransform="matrix(1.1494037,-2.7368035e-6,2.7572658e-6,1.0867156,-380.63412,-516.47791)" />
    <linearGradient
       id="linearGradient5360-6-1">
      <stop
         id="stop5362-9-2"
         style="stop-color:#fbffce;stop-opacity:0.72799999"
         offset="0" />
      <stop
         id="stop5364-4-20"
         style="stop-color:#ffb058;stop-opacity:0"
         offset="1" />
    </linearGradient>
    <linearGradient
       x1="373.00085"
       y1="597.83563"
       x2="375.79688"
       y2="477.87122"
       id="linearGradient4015-2"
       xlink:href="#linearGradient3798-1"
       gradientUnits="userSpaceOnUse"
       gradientTransform="matrix(0.21272098,0,0,0.21525868,-31.939879,-59.158916)" />
    <linearGradient
       id="linearGradient3798-1">
      <stop
         id="stop3800-64"
         style="stop-color:#ff9d60;stop-opacity:1"
         offset="0" />
      <stop
         id="stop3802-2"
         style="stop-color:#ffe1ba;stop-opacity:1"
         offset="1" />
    </linearGradient>
    <linearGradient
       inkscape:collect="always"
       xlink:href="#linearGradient12946"
       id="linearGradient13171"
       gradientUnits="userSpaceOnUse"
       x1="9.0784369"
       y1="3.0126896"
       x2="56.280174"
       y2="-34.779079" />
    <linearGradient
       id="linearGradient12946"
       inkscape:collect="always">
      <stop
         id="stop12948"
         offset="0"
         style="stop-color:#ffffff;stop-opacity:1;" />
      <stop
         id="stop12950"
         offset="1"
         style="stop-color:#ffffff;stop-opacity:0;" />
    </linearGradient>
    <linearGradient
       gradientUnits="userSpaceOnUse"
       y2="-34.779079"
       x2="56.280174"
       y1="3.0126896"
       x1="9.0784369"
       id="linearGradient12954"
       xlink:href="#linearGradient12946"
       inkscape:collect="always" />
    <clipPath
       id="clipPath2973-9">
      <rect
         width="84"
         height="84"
         rx="6"
         ry="6"
         x="6"
         y="6"
         id="rect2975-6"
         style="fill:url(#linearGradient2977);fill-opacity:1;fill-rule:nonzero;stroke:none" />
    </clipPath>
    <linearGradient
       id="linearGradient13087">
      <stop
         id="stop13089"
         style="stop-color:#ffffff;stop-opacity:1"
         offset="0" />
      <stop
         id="stop13091"
         style="stop-color:#ffffff;stop-opacity:1"
         offset="0.30000001" />
      <stop
         id="stop13093"
         style="stop-color:#f0f0f0;stop-opacity:1"
         offset="0.89999998" />
      <stop
         id="stop13095"
         style="stop-color:#d2d2d2;stop-opacity:1"
         offset="1" />
    </linearGradient>
    <radialGradient
       cx="48"
       cy="60"
       r="5"
       fx="48"
       fy="60"
       id="radialGradient3979-6"
       xlink:href="#linearGradient3674-5-0"
       gradientUnits="userSpaceOnUse" />
    <linearGradient
       id="linearGradient3983-2">
      <stop
         id="stop3985-6"
         style="stop-color:#ffffff;stop-opacity:1"
         offset="0" />
      <stop
         id="stop3989-2"
         style="stop-color:#868686;stop-opacity:1"
         offset="1" />
    </linearGradient>
    <linearGradient
       x1="43"
       y1="60"
       x2="53"
       y2="60"
       id="linearGradient3973-9"
       xlink:href="#linearGradient3983-2"
       gradientUnits="userSpaceOnUse" />
    <linearGradient
       id="linearGradient3917-6-8">
      <stop
         id="stop3919-2"
         style="stop-color:#000000;stop-opacity:1"
         offset="0" />
      <stop
         id="stop3921-7"
         style="stop-color:#000000;stop-opacity:0"
         offset="1" />
    </linearGradient>
    <linearGradient
       x1="17"
       y1="48"
       x2="120"
       y2="48"
       id="linearGradient3923-1-6"
       xlink:href="#linearGradient3917-6-8"
       gradientUnits="userSpaceOnUse"
       gradientTransform="matrix(0,1,-1,0,96,0)" />
    <linearGradient
       id="linearGradient3899-9">
      <stop
         id="stop3901-8"
         style="stop-color:#ffffff;stop-opacity:1"
         offset="0" />
      <stop
         id="stop3981-6"
         style="stop-color:#ffffff;stop-opacity:0.41221374"
         offset="0.5" />
      <stop
         id="stop3903-5"
         style="stop-color:#868686;stop-opacity:1"
         offset="1" />
    </linearGradient>
    <linearGradient
       x1="13"
       y1="48"
       x2="83"
       y2="48"
       id="linearGradient3905-4"
       xlink:href="#linearGradient3899-9"
       gradientUnits="userSpaceOnUse"
       gradientTransform="matrix(0,1,-1,0,96,0)" />
    <linearGradient
       id="linearGradient3893-7">
      <stop
         id="stop3895-3"
         style="stop-color:#ffffff;stop-opacity:1"
         offset="0" />
      <stop
         id="stop3897-5"
         style="stop-color:#a2a2a2;stop-opacity:1"
         offset="1" />
    </linearGradient>
    <radialGradient
       cx="48.000896"
       cy="46.058418"
       r="3"
       fx="48.000896"
       fy="46.058418"
       id="radialGradient3901-4"
       xlink:href="#linearGradient3893-7"
       gradientUnits="userSpaceOnUse" />
    <filter
       color-interpolation-filters="sRGB"
       id="filter3944-7">
      <feGaussianBlur
         id="feGaussianBlur3946-6"
         stdDeviation="0.4359375" />
    </filter>
    <linearGradient
       id="linearGradient3674-5-0">
      <stop
         id="stop3676-0-2"
         style="stop-color:#ffffff;stop-opacity:1"
         offset="0" />
      <stop
         id="stop3684-9"
         style="stop-color:#ffffff;stop-opacity:1"
         offset="0.30000001" />
      <stop
         id="stop3925-8-3"
         style="stop-color:#f0f0f0;stop-opacity:1"
         offset="0.89999998" />
      <stop
         id="stop3678-8-8"
         style="stop-color:#d2d2d2;stop-opacity:1"
         offset="1" />
    </linearGradient>
    <radialGradient
       cx="48"
       cy="48"
       r="32"
       fx="48"
       fy="48"
       id="radialGradient3682-9"
       xlink:href="#linearGradient3674-5-0"
       gradientUnits="userSpaceOnUse" />
    <linearGradient
       id="linearGradient3873-7">
      <stop
         id="stop3875-0"
         style="stop-color:#f0f0f0;stop-opacity:1"
         offset="0" />
      <stop
         id="stop3877-20-4"
         style="stop-color:#b4b4b4;stop-opacity:1"
         offset="1" />
    </linearGradient>
    <linearGradient
       x1="16"
       y1="48"
       x2="80"
       y2="48"
       id="linearGradient3879-8-8"
       xlink:href="#linearGradient3873-7"
       gradientUnits="userSpaceOnUse" />
    <filter
       color-interpolation-filters="sRGB"
       id="filter3174-4">
      <feGaussianBlur
         id="feGaussianBlur3176-3"
         stdDeviation="1.71" />
    </filter>
    <linearGradient
       id="linearGradient3832-0-6-1-1">
      <stop
         id="stop3834-6-3-7-1"
         offset="0"
         style="stop-color:#000000;stop-opacity:1;" />
      <stop
         style="stop-color:#000000;stop-opacity:0.58823532;"
         offset="0.1"
         id="stop3872-2-4" />
      <stop
         id="stop3844-6-2-7-6"
         offset="0.89999998"
         style="stop-color:#000000;stop-opacity:0.58823532;" />
      <stop
         id="stop3836-5-0-2-9"
         offset="1"
         style="stop-color:#000000;stop-opacity:1;" />
    </linearGradient>
    <linearGradient
       y2="82.984398"
       x2="-10.187523"
       y1="82.984398"
       x1="-94"
       gradientTransform="matrix(1,0,0,0.73089097,200,23.096697)"
       gradientUnits="userSpaceOnUse"
       id="linearGradient4104"
       xlink:href="#linearGradient3832-0-6-1-1"
       inkscape:collect="always" />
    <linearGradient
       id="linearGradient4091-0-3-0-7">
      <stop
         id="stop4093-3-6-4-2"
         offset="0"
         style="stop-color:#ffffff;stop-opacity:1;" />
      <stop
         style="stop-color:#ffffff;stop-opacity:1;"
         offset="0.80000001"
         id="stop4099-6-1-8-3" />
      <stop
         id="stop4095-1-0-7-9"
         offset="1"
         style="stop-color:#ffffff;stop-opacity:0;" />
    </linearGradient>
    <radialGradient
       r="42"
       fy="-27"
       fx="48"
       cy="-27"
       cx="48"
       gradientTransform="matrix(-1.0721726,0,0,-0.87502024,199.46429,-19.125546)"
       gradientUnits="userSpaceOnUse"
       id="radialGradient4102"
       xlink:href="#linearGradient4091-0-3-0-7"
       inkscape:collect="always" />
    <linearGradient
       id="linearGradient6139-0">
      <stop
         style="stop-color:#b7b7b7;stop-opacity:1;"
         offset="0"
         id="stop6141-2" />
      <stop
         id="stop6151-0"
         offset="0.25"
         style="stop-color:#ffffff;stop-opacity:1;" />
      <stop
         id="stop6147-1"
         offset="0.5"
         style="stop-color:#9d9d9d;stop-opacity:1;" />
      <stop
         style="stop-color:#fafafa;stop-opacity:1;"
         offset="0.75"
         id="stop6149-4" />
      <stop
         style="stop-color:#b7b7b7;stop-opacity:1;"
         offset="1"
         id="stop6143-4" />
    </linearGradient>
    <linearGradient
       y2="47.000011"
       x2="90"
       y1="47.000011"
       x1="6"
       gradientTransform="matrix(1.1353753,0,0,1.1336634,-40.037124,-46.787637)"
       gradientUnits="userSpaceOnUse"
       id="linearGradient4098"
       xlink:href="#linearGradient6139-0"
       inkscape:collect="always" />
    <linearGradient
       inkscape:collect="always"
       xlink:href="#linearGradient3500"
       id="linearGradient3506"
       x1="124.91796"
       y1="70.64904"
       x2="162.97392"
       y2="24.412815"
       gradientUnits="userSpaceOnUse" />
    <linearGradient
       x1="373.00085"
       y1="597.83563"
       x2="375.79688"
       y2="477.87122"
       id="linearGradient4015-2-1"
       xlink:href="#linearGradient3798-1-1"
       gradientUnits="userSpaceOnUse"
       gradientTransform="matrix(0.21272098,0,0,0.21525868,-31.939879,-59.158916)" />
    <linearGradient
       id="linearGradient3798-1-1">
      <stop
         id="stop3800-64-1"
         style="stop-color:#ff9d60;stop-opacity:1"
         offset="0" />
      <stop
         id="stop3802-2-7"
         style="stop-color:#ffe1ba;stop-opacity:1"
         offset="1" />
    </linearGradient>
    <radialGradient
       cx="370.52362"
       cy="503.76224"
       r="14.663592"
       fx="370.52362"
       fy="503.76224"
       id="radialGradient4012-8-0"
       xlink:href="#linearGradient5360-6-1-3"
       gradientUnits="userSpaceOnUse"
       gradientTransform="matrix(1.1494037,-2.7368035e-6,2.7572658e-6,1.0867156,-380.63412,-516.47791)" />
    <linearGradient
       id="linearGradient5360-6-1-3">
      <stop
         id="stop5362-9-2-6"
         style="stop-color:#fbffce;stop-opacity:0.72799999"
         offset="0" />
      <stop
         id="stop5364-4-20-7"
         style="stop-color:#ffb058;stop-opacity:0"
         offset="1" />
    </linearGradient>
    <radialGradient
       cx="373.02762"
       cy="505.23026"
       r="14.663592"
       fx="373.02762"
       fy="505.23026"
       id="radialGradient3991-6-5"
       xlink:href="#linearGradient5360-6-2-8-8"
       gradientUnits="userSpaceOnUse"
       gradientTransform="matrix(-0.24423642,-0.10894784,0.11715467,-0.26008712,87.888982,216.92222)" />
    <linearGradient
       id="linearGradient5360-6-2-8-8">
      <stop
         id="stop5362-9-5-2-0"
         style="stop-color:#fbffce;stop-opacity:1"
         offset="0" />
      <stop
         id="stop5364-4-6-03-1"
         style="stop-color:#fbffce;stop-opacity:0"
         offset="1" />
    </linearGradient>
    <radialGradient
       cx="373.02762"
       cy="505.23026"
       r="14.663592"
       fx="373.02762"
       fy="505.23026"
       id="radialGradient3988-1-7"
       xlink:href="#linearGradient5360-6-2-2-6-1"
       gradientUnits="userSpaceOnUse"
       gradientTransform="matrix(-0.1397483,-0.05416471,0.0670341,-0.12930541,57.32029,111.89418)" />
    <linearGradient
       id="linearGradient5360-6-2-2-6-1">
      <stop
         id="stop5362-9-5-8-1-4"
         style="stop-color:#fbffce;stop-opacity:0.63999999"
         offset="0" />
      <stop
         id="stop5364-4-6-0-5-5"
         style="stop-color:#fbffce;stop-opacity:0"
         offset="1" />
    </linearGradient>
  </defs>
  <metadata
     id="metadata2413">
    <rdf:RDF>
      <cc:Work
         rdf:about="">
        <dc:format>image/svg+xml</dc:format>
        <dc:type
           rdf:resource="http://purl.org/dc/dcmitype/StillImage" />
        <dc:title />
      </cc:Work>
    </rdf:RDF>
  </metadata>
  <g
     transform="translate(-4.4706248e-7,32)"
     inkscape:label="Layer 1"
     id="layer1-3">
    <g
       id="g12958"
       transform="matrix(0.97513378,0,0,0.97660611,33.898696,9.6573789)">
      <path
         transform="matrix(1.0290322,0,0,1.0290323,-0.41983185,-0.18855188)"
         style="opacity:0.15;fill:#000000;fill-opacity:1;fill-rule:nonzero;stroke:none;display:inline"
         d="m 55.462537,-41.268579 -82.003288,0 c -3.785818,0 -6.833607,3.043193 -6.833607,6.823301 l 0,81.879661 c 0,3.780111 3.047789,6.823304 6.833607,6.823304 l 82.003288,0 c 3.785818,0 6.833606,-3.043193 6.833606,-6.823304 l 0,-81.879661 c 0,-3.780108 -3.047788,-6.823301 -6.833606,-6.823301 z"
         id="path3315"
         inkscape:connector-curvature="0" />
      <path
         transform="matrix(1.0290322,0,0,1.0290323,-0.41983185,-0.18855188)"
         inkscape:connector-curvature="0"
         id="path4112"
         d="m 54.821891,-40.52228 -80.72199,0 c -3.72667,0 -6.726834,2.995643 -6.726834,6.716685 l 0,80.600295 c 0,3.721045 3.000164,6.716688 6.726834,6.716688 l 80.72199,0 c 3.72666,0 6.726826,-2.995643 6.726826,-6.716688 l 0,-80.600295 c 0,-3.721042 -3.000166,-6.716685 -6.726826,-6.716685 z"
         style="opacity:0.15;fill:#000000;fill-opacity:1;fill-rule:nonzero;stroke:none;display:inline" />
      <path
         style="fill:url(#linearGradient4098);fill-opacity:1;fill-rule:nonzero;stroke:none;display:inline"
         d="m 55.334401,-41.11932 -81.747021,0 c -3.773988,0 -6.812252,3.033683 -6.812252,6.80198 l 0,81.623788 c 0,3.768297 3.038264,6.80198 6.812252,6.80198 l 81.747021,0 c 3.773988,0 6.812252,-3.033683 6.812252,-6.80198 l 0,-81.623788 c 0,-3.768297 -3.038264,-6.80198 -6.812252,-6.80198 z"
         id="rect4251-1"
         inkscape:connector-curvature="0" />
      <g
         id="g3272"
         transform="matrix(1.1353753,0,0,1.1336634,-153.57465,-46.220805)">
        <path
           sodipodi:nodetypes="sscccsccscccsss"
           inkscape:connector-curvature="0"
           id="path3400-6"
           d="m 114.71702,8.436941 c -2.59845,0 -4.66122,2.124921 -4.66122,4.801641 l 0,19.896804 0,6.722299 0,37.062672 c 0.99812,1.564163 2.70064,2.610893 4.66122,2.610893 l 3.72897,0 59.66361,0 3.72898,0 c 1.96058,0 3.66311,-1.04673 4.66122,-2.610893 l 0,-37.062672 0,-6.722299 0,-19.896804 c 0,-2.67672 -2.06277,-4.801641 -4.66122,-4.801641 z"
           style="opacity:0.87972508000000005;fill:url(#linearGradient3506);fill-opacity:1;fill-rule:nonzero;stroke:none;display:inline" />
        <path
           inkscape:connector-curvature="0"
           id="path4236-5"
           d="m 112,4.5 c -3.324,0 -6,2.6759996 -6,6 l 0,15 1,0 0,-15 c 0,-2.7872972 2.2127,-5 5,-5 l 72,0 c 2.7873,0 5,2.2127028 5,5 l 0,15 1,0 0,-15 c 0,-3.3240004 -2.676,-6 -6,-6 l -72,0 z"
           style="opacity:0.45;fill:url(#radialGradient4102);fill-opacity:1;fill-rule:nonzero;stroke:none;display:inline" />
        <path
           style="opacity:0.46964859;fill:url(#linearGradient4104);fill-opacity:1;fill-rule:nonzero;stroke:none"
           d="m 106,78.998418 0,0.73089 0,0.730891 0,0.730892 0,1.461782 0,1.461781 C 106,86.544135 108.676,88.5 112,88.5 l 72,0 c 3.324,0 6,-1.955865 6,-4.385346 l 0,-1.461781 0,-1.461782 0,-0.730892 0,-0.730891 0,-0.73089 c 0,2.429481 -2.676,4.385345 -6,4.385345 l -72,0 c -3.324,0 -6,-1.955864 -6,-4.385345 z"
           id="path4242-5"
           inkscape:connector-curvature="0" />
        <g
           id="layer4"
           transform="matrix(0.90322585,0,0,0.90322601,104.64516,-1.370969)">
          <path
             d="M 47.996681,17 C 42.20452,17 36.557927,19.375652 32.461399,23.531751 28.364871,27.68785 26,33.434089 26,39.31291 c 0,5.878823 2.364871,11.618329 6.461399,15.774428 3.470672,3.521139 8.0543,5.767621 12.896203,6.370312 l 0,1.088587 -7.930504,0 0,5.368004 7.930504,0 1.6117,15.085759 2.061396,0 1.611701,-15.085759 7.930493,0 0,-5.368004 -7.930493,0 0,-1.088587 C 55.492131,60.854959 60.101176,58.608477 63.571836,55.087338 67.668364,50.931239 70,45.191733 70,39.31291 70,33.434089 67.668364,27.68785 63.571836,23.531751 59.475309,19.375652 53.788841,17 47.996681,17 z m 0,2.116488 c 4.345408,0 8.87411,1.739983 11.825956,4.971129 6.741525,7.379432 6.461936,19.881542 0,27.232687 -2.888909,3.286444 -7.480548,4.964408 -11.825956,4.964408 -4.336106,0 -8.715127,-1.859995 -11.786071,-4.964408 l -0.03325,0 c -6.62164,-7.494046 -6.279044,-19.711584 0,-27.232687 3.071812,-3.116486 7.473907,-4.971129 11.819316,-4.971129 l 1.2e-5,0 z"
             inkscape:connector-curvature="0"
             id="path4111"
             style="font-size:medium;font-style:normal;font-variant:normal;font-weight:normal;font-stretch:normal;text-indent:0;text-align:start;text-decoration:none;line-height:normal;letter-spacing:normal;word-spacing:normal;text-transform:none;direction:ltr;block-progression:tb;writing-mode:lr-tb;text-anchor:start;opacity:0.3;color:#000000;fill:#ff9955;fill-opacity:1;stroke:none;stroke-width:4.61774349;marker:none;visibility:visible;display:inline;overflow:visible;enable-background:accumulate;font-family:Andale Mono;-inkscape-font-specification:Andale Mono" />
          <path
             d="M 47.996681,15 C 42.20452,15 36.557927,17.375652 32.461399,21.531751 28.364871,25.68785 26,31.434089 26,37.31291 c 0,5.878823 2.364871,11.618329 6.461399,15.774428 3.470672,3.521139 8.0543,5.767621 12.896203,6.370312 l 0,1.088587 -7.930504,0 0,5.368004 7.930504,0 1.6117,15.085759 2.061396,0 1.611701,-15.085759 7.930493,0 0,-5.368004 -7.930493,0 0,-1.088587 C 55.492131,58.854959 60.101176,56.608477 63.571836,53.087338 67.668364,48.931239 70,43.191733 70,37.31291 70,31.434089 67.668364,25.68785 63.571836,21.531751 59.475309,17.375652 53.788841,15 47.996681,15 z m 0,2.116488 c 4.345408,0 8.87411,1.739983 11.825956,4.971129 6.741525,7.379432 6.461936,19.881542 0,27.232687 -2.888909,3.286444 -7.480548,4.964408 -11.825956,4.964408 -4.336106,0 -8.715127,-1.859995 -11.786071,-4.964408 l -0.03325,0 c -6.62164,-7.494046 -6.279044,-19.711584 0,-27.232687 3.071812,-3.116486 7.473907,-4.971129 11.819316,-4.971129 l 1.2e-5,0 z"
             inkscape:connector-curvature="0"
             id="path4107"
             style="font-size:medium;font-style:normal;font-variant:normal;font-weight:normal;font-stretch:normal;text-indent:0;text-align:start;text-decoration:none;line-height:normal;letter-spacing:normal;word-spacing:normal;text-transform:none;direction:ltr;block-progression:tb;writing-mode:lr-tb;text-anchor:start;color:#000000;fill:#552200;fill-opacity:1;stroke:none;stroke-width:4.61774349;marker:none;visibility:visible;display:inline;overflow:visible;enable-background:accumulate;font-family:Andale Mono;-inkscape-font-specification:Andale Mono" />
          <path
             d="M 47.996681,16 C 42.20452,16 36.557927,18.375652 32.461399,22.531751 28.364871,26.68785 26,32.434089 26,38.31291 c 0,5.878823 2.364871,11.618329 6.461399,15.774428 3.470672,3.521139 8.0543,5.767621 12.896203,6.370312 l 0,1.088587 -7.930504,0 0,5.368004 7.930504,0 1.6117,15.085759 2.061396,0 1.611701,-15.085759 7.930493,0 0,-5.368004 -7.930493,0 0,-1.088587 C 55.492131,59.854959 60.101176,57.608477 63.571836,54.087338 67.668364,49.931239 70,44.191733 70,38.31291 70,32.434089 67.668364,26.68785 63.571836,22.531751 59.475309,18.375652 53.788841,16 47.996681,16 z m 0,2.116488 c 4.345408,0 8.87411,1.739983 11.825956,4.971129 6.741525,7.379432 6.461936,19.881542 0,27.232687 -2.888909,3.286444 -7.480548,4.964408 -11.825956,4.964408 -4.336106,0 -8.715127,-1.859995 -11.786071,-4.964408 l -0.03325,0 c -6.62164,-7.494046 -6.279044,-19.711584 0,-27.232687 3.071812,-3.116486 7.473907,-4.971129 11.819316,-4.971129 l 1.2e-5,0 z"
             inkscape:connector-curvature="0"
             id="path3939"
             style="font-size:medium;font-style:normal;font-variant:normal;font-weight:normal;font-stretch:normal;text-indent:0;text-align:start;text-decoration:none;line-height:normal;letter-spacing:normal;word-spacing:normal;text-transform:none;direction:ltr;block-progression:tb;writing-mode:lr-tb;text-anchor:start;color:#000000;fill:url(#linearGradient4015-2-1);fill-opacity:1;stroke:none;stroke-width:4.61774349;marker:none;visibility:visible;display:inline;overflow:visible;enable-background:accumulate;font-family:Andale Mono;-inkscape-font-specification:Andale Mono" />
          <path
             d="m 46.547015,50.910865 c -1.069973,-0.129936 -2.951984,-0.534032 -3.80896,-0.817816 -2.480804,-0.821494 -5.111655,-2.446353 -6.753184,-4.170898 -1.244807,-1.307727 -2.855229,-4.066593 -3.547301,-6.076999 -2.194995,-6.376138 -1.240739,-9.746146 2.451238,-15.225654 1.818353,-2.698726 5.476925,-5.02168 9.44481,-5.996848 1.686159,-0.414392 6.152917,-0.38629 7.789738,0.0491 6.441559,1.713124 10.400235,5.733518 12.202633,12.392894 1.060475,3.918166 0.817274,4.871396 -0.614107,8.793125 -1.808318,4.954472 -4.833171,8.232733 -9.155162,9.922141 -2.334392,0.912487 -5.790687,1.400541 -8.009705,1.131036 l 0,-4.7e-5 z"
             inkscape:connector-curvature="0"
             id="path5448"
             style="fill:url(#radialGradient4012-8-0);fill-opacity:1;stroke:none" />
          <path
             d="m 58.018851,41.229015 c 0.215148,0.128451 0.577449,0.390219 0.733035,0.530378 0.449855,0.405862 0.858008,0.990958 1.046004,1.503566 0.142089,0.388417 0.227539,1.112535 0.186963,1.594275 -0.128186,1.528065 -1.035665,3.002208 -2.331139,3.786618 -0.637921,0.386449 -1.632065,0.520455 -2.566163,0.346219 -0.396675,-0.07416 -1.343431,-0.503227 -1.650643,-0.748582 -1.208829,-0.965375 -1.675282,-2.172695 -1.437207,-3.722211 0.139951,-0.91165 0.671048,-1.952798 1.340916,-2.629053 0.846083,-0.854499 1.794944,-1.246018 2.870687,-1.186303 0.581032,0.03212 1.361009,0.258902 1.807403,0.525038 z"
             inkscape:connector-curvature="0"
             id="path5448-8"
             style="fill:url(#radialGradient3991-6-5);fill-opacity:1;stroke:none;display:inline" />
          <path
             d="m 40.229066,24.546215 c 0.122987,0.06378 0.330428,0.1941 0.419434,0.263676 0.257414,0.201743 0.490941,0.492656 0.598511,0.747498 0.08132,0.193111 0.130233,0.553122 0.106867,0.792624 -0.07335,0.759705 -0.59259,1.492576 -1.333847,1.882557 -0.365005,0.192139 -0.933832,0.258762 -1.468316,0.172289 -0.226986,-0.03684 -0.768681,-0.250169 -0.944446,-0.372164 -0.691719,-0.479974 -0.95859,-1.080182 -0.822365,-1.850537 0.08006,-0.453267 0.383969,-0.97087 0.76725,-1.307054 0.484113,-0.424858 1.027019,-0.619509 1.642559,-0.589817 0.332456,0.01649 0.778731,0.128673 1.034174,0.261037 z"
             inkscape:connector-curvature="0"
             id="path5448-8-3"
             style="fill:url(#radialGradient3988-1-7);fill-opacity:1;stroke:none;display:inline" />
          <path
             d="M 48,16 C 42.207839,16 36.565278,18.375151 32.46875,22.53125 28.372222,26.687349 26,32.433679 26,38.3125 c 0,5.878823 2.372222,11.625151 6.46875,15.78125 3.470672,3.521139 8.033097,5.772309 12.875,6.375 l 0,1.0625 -7.90625,0 0,5.375 7.90625,0 1.625,15.09375 2.0625,0 1.625,-15.09375 7.90625,0 0,-5.375 -7.90625,0 0,-1.0625 c 4.849732,-0.602691 9.43559,-2.853861 12.90625,-6.375 C 67.659028,49.937651 70,44.191323 70,38.3125 70,32.433679 67.659028,26.687349 63.5625,22.53125 59.465973,18.375151 53.79216,16 48,16 z m 0,1 c 5.51877,0 10.937578,2.255775 14.84375,6.21875 C 66.750477,27.182288 69,32.699163 69,38.3125 c 0,5.613339 -2.249523,11.130212 -6.15625,15.09375 -3.311086,3.359244 -7.688643,5.487879 -12.3125,6.0625 a 1.0001536,1.0001536 0 0 0 -0.875,1 l 0,1.0625 a 1.0001536,1.0001536 0 0 0 1,1 l 6.90625,0 0,3.375 -6.90625,0 a 1.0001536,1.0001536 0 0 0 -1,0.90625 L 48.125,81 47.875,81 46.34375,66.8125 a 1.0001536,1.0001536 0 0 0 -1,-0.90625 l -6.90625,0 0,-3.375 6.90625,0 a 1.0001536,1.0001536 0 0 0 1,-1 l 0,-1.0625 a 1.0001536,1.0001536 0 0 0 -0.875,-1 C 40.853339,58.894251 36.500178,56.767098 33.1875,53.40625 29.278988,49.440901 27,43.922295 27,38.3125 27,32.702707 29.278988,27.184099 33.1875,23.21875 37.095458,19.253964 42.481229,17 48,17 z m 0,0.125 c -4.629596,0 -9.263712,1.966191 -12.53125,5.28125 a 1.0001536,1.0001536 0 0 0 -0.0625,0.03125 c -6.608646,7.915904 -6.958426,20.620679 0.03125,28.53125 a 1.0001536,1.0001536 0 0 0 0.0625,0.0625 1.0001536,1.0001536 0 0 0 0.21875,0.15625 c 3.251323,3.184909 7.747969,5.09375 12.28125,5.09375 4.603519,0 9.439421,-1.759662 12.5625,-5.3125 6.823289,-7.762222 7.129753,-20.758105 0,-28.5625 C 57.388553,18.931988 52.612003,17.125 48,17.125 z m 0,1 c 4.345408,0 8.860654,1.737604 11.8125,4.96875 6.741525,7.379432 6.461936,19.867605 0,27.21875 -2.888909,3.286444 -7.467092,4.96875 -11.8125,4.96875 -4.336106,0 -8.710306,-1.864337 -11.78125,-4.96875 l -0.03125,0 c -6.62164,-7.494046 -6.279044,-19.697647 0,-27.21875 C 39.259312,19.977264 43.654591,18.125 48,18.125 z"
             inkscape:connector-curvature="0"
             id="path4115"
             style="font-size:medium;font-style:normal;font-variant:normal;font-weight:normal;font-stretch:normal;text-indent:0;text-align:start;text-decoration:none;line-height:normal;letter-spacing:normal;word-spacing:normal;text-transform:none;direction:ltr;block-progression:tb;writing-mode:lr-tb;text-anchor:start;opacity:0.2;color:#000000;fill:#a14505;fill-opacity:1;stroke:none;stroke-width:4.61774349;marker:none;visibility:visible;display:inline;overflow:visible;enable-background:accumulate;font-family:Andale Mono;-inkscape-font-specification:Andale Mono" />
        </g>
      </g>
      <path
         inkscape:connector-curvature="0"
         id="path4989"
         d="m -24.6875,-37.8125 c -3.196096,0 -5.8125,2.600343 -5.8125,5.78125 l 0,70.9375 c 0,3.180909 2.616404,5.78125 5.8125,5.78125 l 78.75,0 c 3.196096,0 5.8125,-2.600341 5.8125,-5.78125 l 0,-70.9375 c 0,-3.180907 -2.616404,-5.78125 -5.8125,-5.78125 l -78.75,0 z m 0,2.375 78.75,0 c 1.936246,0 3.4375,1.515549 3.4375,3.40625 l 0,70.9375 c 0,1.890705 -1.501254,3.40625 -3.4375,3.40625 l -78.75,0 c -1.936246,0 -3.4375,-1.515545 -3.4375,-3.40625 l 0,-70.9375 c 0,-1.890701 1.501254,-3.40625 3.4375,-3.40625 z"
         style="font-size:medium;font-style:normal;font-variant:normal;font-weight:normal;font-stretch:normal;text-indent:0;text-align:start;text-decoration:none;line-height:normal;letter-spacing:normal;word-spacing:normal;text-transform:none;direction:ltr;block-progression:tb;writing-mode:lr-tb;text-anchor:start;baseline-shift:baseline;color:#000000;fill:#000000;fill-opacity:0.87148593;stroke:none;stroke-width:2.3755002;marker:none;visibility:visible;display:inline;overflow:visible;enable-background:accumulate;font-family:Sans;-inkscape-font-specification:Sans" />
      <path
         style="opacity:0.39930558;fill:url(#linearGradient13171);fill-opacity:1;fill-rule:nonzero;stroke:none;display:inline"
         d="m 48.331182,42.928895 4.233791,0 c 2.225994,0 4.159005,-1.175383 5.292234,-2.931794 l 0,-41.6179931 0,-7.5485261 0,-22.3422938 c 0,-3.005712 -2.342018,-5.391804 -5.292234,-5.391804 l -70.296123,0 C 7.6324902,10.08658 30.391443,27.576446 48.331182,42.928895 z"
         id="path12926"
         inkscape:connector-curvature="0"
         sodipodi:nodetypes="cscccsscc" />
    </g>
  </g>
  <g
     id="layer2"
     style="display:none">
    <rect
       width="86"
       height="85"
       rx="6"
       ry="6"
       x="5"
       y="7"
       id="rect3745"
       style="opacity:0.9;fill:url(#ButtonShadow);fill-opacity:1;fill-rule:nonzero;stroke:none;filter:url(#filter3174)" />
  </g>
  <style
     type="text/css"
     id="style1470" />
</svg>
