<?xml version="1.0" encoding="UTF-8" standalone="no"?>
<svg
   xmlns:dc="http://purl.org/dc/elements/1.1/"
   xmlns:cc="http://creativecommons.org/ns#"
   xmlns:rdf="http://www.w3.org/1999/02/22-rdf-syntax-ns#"
   xmlns:svg="http://www.w3.org/2000/svg"
   xmlns="http://www.w3.org/2000/svg"
   xmlns:xlink="http://www.w3.org/1999/xlink"
   xmlns:sodipodi="http://sodipodi.sourceforge.net/DTD/sodipodi-0.dtd"
   xmlns:inkscape="http://www.inkscape.org/namespaces/inkscape"
   width="48"
   height="48"
   version="1.1"
   id="svg23"
   sodipodi:docname="leocad.svg"
   inkscape:version="0.92.2 5c3e80d, 2017-08-06">
  <metadata
     id="metadata27">
    <rdf:RDF>
      <cc:Work
         rdf:about="">
        <dc:format>image/svg+xml</dc:format>
        <dc:type
           rdf:resource="http://purl.org/dc/dcmitype/StillImage" />
      </cc:Work>
    </rdf:RDF>
  </metadata>
  <sodipodi:namedview
     pagecolor="#ffffff"
     bordercolor="#666666"
     borderopacity="1"
     objecttolerance="10"
     gridtolerance="10"
     guidetolerance="10"
     inkscape:pageopacity="0"
     inkscape:pageshadow="2"
     inkscape:window-width="1280"
     inkscape:window-height="941"
     id="namedview25"
     showgrid="false"
     inkscape:zoom="4.9166667"
     inkscape:cx="24"
     inkscape:cy="24"
     inkscape:window-x="0"
     inkscape:window-y="21"
     inkscape:window-maximized="1"
     inkscape:current-layer="svg23" />
  <defs
     id="defs13">
    <linearGradient
       id="1"
       x1="24.14"
       y1="40.683"
       x2="23.86"
       y2="6.31"
       gradientUnits="userSpaceOnUse"
       gradientTransform="matrix(0.77235457,0,0,0.76472289,390.03562,505.44495)">
      <stop
         stop-color="#c52828"
         id="stop2" />
      <stop
         stop-color="#ff5454"
         offset="1"
         id="stop4" />
    </linearGradient>
    <linearGradient
       gradientTransform="translate(1.56e-6,1.56e-6)"
       xlink:href="#0"
       id="linearGradient4236"
       x1="407.626"
       y1="543.768"
       x2="407.687"
       y2="504.133"
       gradientUnits="userSpaceOnUse" />
    <linearGradient
       id="0"
       x1="27.456"
       y1="47.39"
       x2="26.442"
       y2="1.017"
       gradientUnits="userSpaceOnUse"
       gradientTransform="matrix(2.3642932,0,0,2.3642932,278.05894,438.05223)">
      <stop
         stop-color="#e1e1e1"
         id="stop8" />
      <stop
         stop-color="#f4f4ff"
         offset="1"
         id="stop10" />
    </linearGradient>
    <linearGradient
       inkscape:collect="always"
       xlink:href="#linearGradient6139-0"
       id="linearGradient4071"
       gradientUnits="userSpaceOnUse"
       gradientTransform="matrix(0.55126485,0,0,0.55126475,-2.460715,-1.9094496)"
       x1="6"
       y1="47.000011"
       x2="90"
       y2="47.000011" />
    <linearGradient
       id="linearGradient6139-0">
      <stop
         id="stop6141-2"
         offset="0"
         style="stop-color:#b2babc;stop-opacity:1" />
      <stop
         style="stop-color:#ffffff;stop-opacity:1;"
         offset="0.25"
         id="stop6151-0" />
      <stop
         style="stop-color:#96a1a4;stop-opacity:1"
         offset="0.5"
         id="stop6147-1" />
      <stop
         id="stop6149-4"
         offset="0.75"
         style="stop-color:#fbf9f9;stop-opacity:1;" />
      <stop
         id="stop6143-4"
         offset="1"
         style="stop-color:#b2b9bc;stop-opacity:1" />
    </linearGradient>
    <linearGradient
       gradientTransform="matrix(0.49791667,0,0,0.49791666,0.09999873,0.09999967)"
       inkscape:collect="always"
       xlink:href="#linearGradient3832-0-6-1-1"
       id="linearGradient4129"
       x1="1.5"
       y1="88.171875"
       x2="94.5"
       y2="88.171875"
       gradientUnits="userSpaceOnUse" />
    <linearGradient
       id="linearGradient3832-0-6-1-1">
      <stop
         style="stop-color:#000000;stop-opacity:1;"
         offset="0"
         id="stop3834-6-3-7-1" />
      <stop
         id="stop3872-2-4"
         offset="0.1"
         style="stop-color:#000000;stop-opacity:0.58823532;" />
      <stop
         style="stop-color:#000000;stop-opacity:0.58823532;"
         offset="0.89999998"
         id="stop3844-6-2-7-6" />
      <stop
         style="stop-color:#000000;stop-opacity:1;"
         offset="1"
         id="stop3836-5-0-2-9" />
    </linearGradient>
    <radialGradient
       inkscape:collect="always"
       xlink:href="#linearGradient3737"
       id="radialGradient7462"
       gradientUnits="userSpaceOnUse"
       gradientTransform="matrix(0.48553536,0,0,0.02449288,16.978724,40.016334)"
       cx="13.948145"
       cy="44.892841"
       fx="13.948145"
       fy="44.892841"
       r="43.199203" />
    <linearGradient
       id="linearGradient3737">
      <stop
         offset="0"
         style="stop-color:#ffffff;stop-opacity:1"
         id="stop3739" />
      <stop
         offset="1"
         style="stop-color:#ffffff;stop-opacity:0"
         id="stop3741" />
    </linearGradient>
    <radialGradient
       inkscape:collect="always"
       xlink:href="#linearGradient3737"
       id="radialGradient7464"
       gradientUnits="userSpaceOnUse"
       gradientTransform="matrix(0.44231264,0,0,0.02449288,15.806528,-44.996301)"
       cx="13.948145"
       cy="44.892841"
       fx="13.948145"
       fy="44.892841"
       r="43.199203" />
    <linearGradient
       inkscape:collect="always"
       xlink:href="#linearGradient3737"
       id="linearGradient4767"
       gradientUnits="userSpaceOnUse"
       x1="2.7713892"
       y1="-28.64156"
       x2="50.527882"
       y2="14.514202" />
    <clipPath
       id="clipPath4156-4-1"
       clipPathUnits="userSpaceOnUse">
      <path
         inkscape:connector-curvature="0"
         id="path4158-0-8"
         d="m 27.046336,-55.695463 -14.21366,13.321486 h 0.06127 l 15.653407,21.770763 10.231384,-10.546177 C 38.561832,-32.30156 27.468089,-54.819245 27.046336,-55.695463 Z M 9.6468554,-39.382809 -5.2407289,-25.32124 15.987863,-7.8059573 26.372412,-18.382966 Z m 31.4906096,12.951445 -9.741259,9.713584 8.944804,12.4580526 7.780753,-7.5550056 z m -49.8397109,4.378822 -13.7541661,12.9822847 26.2830181,13.84571 0.06127,-0.0617 -0.122531,-0.0617 L 13.598503,-5.4007374 -8.7022409,-22.052595 Z m 38.0154159,7.400825 -9.802525,9.7752596 11.579232,9.5594001 7.62759,-7.40083 -8.669108,-11.0087257 z m 20.187073,5.6739697 -7.382526,7.2158 6.187844,8.54179 5.820249,-6.13651996 z m -32.195166,6.32154 -9.5574606,9.49772 13.6622686,7.1849703 7.933918,-7.6783603 z m 23.311629,2.37443004 -7.10683,6.93826996 8.362778,6.9074403 5.360756,-5.6739699 -0.06127,-0.0925 -0.0919,0.12335 -6.463539,-8.20258036 z m -8.730374,8.54178036 -7.505057,7.3391599 10.353916,5.45811 c 1.397496,-1.32103 5.67514,-6.12292 5.850882,-6.32154 z"
         style="opacity:0.6;fill:#ffffff;fill-opacity:1;stroke:none" />
    </clipPath>
    <linearGradient
       id="ButtonShadow-16"
       gradientTransform="scale(1.0058652,0.994169)"
       x1="45.447727"
       y1="92.539597"
       x2="45.447727"
       y2="7.0165396"
       gradientUnits="userSpaceOnUse">
      <stop
         style="stop-color:#000000;stop-opacity:1;"
         offset="0"
         id="stop3750-6" />
      <stop
         style="stop-color:#000000;stop-opacity:0.58823532;"
         offset="1"
         id="stop3752-4" />
    </linearGradient>
    <clipPath
       clipPathUnits="userSpaceOnUse"
       id="clipPath4355-7">
      <rect
         style="fill:#ffffff;fill-opacity:1;fill-rule:nonzero;stroke:none"
         id="rect4357-5"
         width="84"
         height="80"
         x="6"
         y="6"
         rx="6"
         ry="6" />
    </clipPath>
    <clipPath
       clipPathUnits="userSpaceOnUse"
       id="clipPath4355-9">
      <rect
         style="fill:#ffffff;fill-opacity:1;fill-rule:nonzero;stroke:none"
         id="rect4357-1"
         width="84"
         height="80"
         x="6"
         y="6"
         rx="6"
         ry="6" />
    </clipPath>
    <clipPath
       clipPathUnits="userSpaceOnUse"
       id="clipPath4355-1">
      <rect
         style="fill:#ffffff;fill-opacity:1;fill-rule:nonzero;stroke:none"
         id="rect4357-9"
         width="84"
         height="80"
         x="6"
         y="6"
         rx="6"
         ry="6" />
    </clipPath>
    <clipPath
       clipPathUnits="userSpaceOnUse"
       id="clipPath3943-52-0">
      <path
         id="path3945-4-1"
         d="m 69.78125,20.84375 -5,3.4375 c 5.586891,5.537137 9,13.327613 9,21.8125 0,8.434478 -3.37723,16.095981 -8.90625,21.625 l 5,3.4375 C 76.078226,64.5762 80,55.843726 80,46.09375 c 2e-6,-9.796556 -3.962955,-18.660417 -10.21875,-25.25 z M 40,24.0625 28.90625,36.21875 H 21.5 c -0.823281,0 -1.5,0.676717 -1.5,1.5 v 1 14.84375 1 c 0,0.823281 0.684121,1.610161 1.5,1.5 h 7.40625 L 40,68 V 66 26.0625 Z m 20.59375,3.28125 -5,3.4375 L 55.5,30.875 c 3.93815,3.890071 6.40625,9.25018 6.40625,15.21875 0,5.920869 -2.42961,11.148358 -6.3125,15.03125 l 0.09375,0.09375 5.09375,3.4375 c 4.475428,-4.908367 7.25,-11.402005 7.25,-18.5625 0,-7.230696 -2.87904,-13.83107 -7.4375,-18.75 z m -9.25,6.5 -5.21875,3.625 c 2.222384,2.217802 3.71875,5.239596 3.71875,8.625 0,3.336509 -1.458847,6.227712 -3.625,8.4375 l 5.21875,3.625 c 2.822412,-3.236947 4.53125,-7.43414 4.53125,-12.0625 0,-4.672601 -1.754155,-9.001351 -4.625,-12.25 z"
         style="color:#000000;display:inline;overflow:visible;visibility:visible;opacity:0.8;fill:#ff00ff;fill-opacity:1;fill-rule:nonzero;stroke:none;stroke-width:1;marker:none;enable-background:accumulate"
         inkscape:connector-curvature="0" />
    </clipPath>
    <linearGradient
       id="1-3"
       x1="24.139999"
       y1="40.682999"
       x2="23.860001"
       y2="6.3099999"
       gradientUnits="userSpaceOnUse"
       gradientTransform="matrix(1.0222701,0,0,1.012169,-1.4006073,-1.4281265)">
      <stop
         stop-color="#c52828"
         id="stop2-6" />
      <stop
         stop-color="#ff5454"
         offset="1"
         id="stop4-7" />
    </linearGradient>
  </defs>
  <path
     style="display:inline;opacity:0.15;fill:#000000;fill-opacity:1;fill-rule:nonzero;stroke:none;stroke-width:0.49791667"
     d="M 44.485713,0.09999967 H 3.5142818 c -1.8915097,0 -3.41428187,1.52277053 -3.41428187,3.41428433 v 40.97143 C 0.09999993,46.377228 1.6227721,47.9 3.5142818,47.9 H 44.485713 C 46.377226,47.9 47.9,46.377228 47.9,44.485714 V 3.514284 c 0,-1.8915138 -1.522774,-3.41428433 -3.414287,-3.41428433 z"
     id="path3288"
     inkscape:connector-curvature="0" />
  <path
     inkscape:connector-curvature="0"
     id="path4085"
     d="M 44.165624,0.47343717 H 3.8343706 c -1.8619555,0 -3.36093407,1.49897713 -3.36093407,3.36093553 V 44.165625 c 0,1.861959 1.49897857,3.360937 3.36093407,3.360937 H 44.165624 c 1.86196,0 3.360939,-1.498978 3.360939,-3.360937 V 3.8343727 c 0,-1.8619584 -1.498979,-3.36093553 -3.360939,-3.36093553 z"
     style="display:inline;opacity:0.15;fill:#000000;fill-opacity:1;fill-rule:nonzero;stroke:none;stroke-width:0.49791667" />
  <path
     style="display:inline;fill:url(#linearGradient4071);fill-opacity:1;fill-rule:nonzero;stroke:none;stroke-width:0.49791667"
     d="M 43.845532,0.84687467 H 4.1544633 c -1.8324046,0 -3.30758907,1.47518463 -3.30758907,3.30758773 V 43.845536 c 0,1.832405 1.47518447,3.307589 3.30758907,3.307589 H 43.845532 c 1.832405,0 3.307588,-1.475185 3.307588,-3.307589 V 4.1544624 c 0,-1.8324031 -1.475183,-3.30758773 -3.307588,-3.30758773 z"
     id="rect4251-1"
     inkscape:connector-curvature="0" />
  <path
     style="display:inline;opacity:0.98000004;fill:#e8e8e8;fill-opacity:1;fill-rule:nonzero;stroke:none;stroke-width:0.51566219"
     d="m 5.6972261,3.2802641 c -1.4222972,0 -2.551389,1.1530465 -2.551389,2.6055173 v 10.7966076 3.647723 20.111331 c 0.5463341,0.848762 1.4782393,1.416749 2.551389,1.416749 H 7.7383374 40.396118 43.2187 c 1.073151,0 1.223584,0.01811 1.769919,-0.830645 V 20.330112 16.682389 5.8857814 c 0,-1.4524708 -1.129092,-2.6055173 -2.55139,-2.6055173 z"
     id="path3400-6"
     inkscape:connector-curvature="0"
     sodipodi:nodetypes="sscccsccscccsss" />
  <path
     inkscape:connector-curvature="0"
     id="path4989"
     d="m 4.9920701,2.4548766 c -1.5518175,0 -2.8221742,1.2644644 -2.8221742,2.8112405 V 39.760786 c 0,1.546775 1.2703567,2.811239 2.8221742,2.811239 H 43.227979 c 1.551818,0 2.822176,-1.264464 2.822176,-2.811239 V 5.2661171 c 0,-1.5467751 -1.270358,-2.8112405 -2.822176,-2.8112405 z m 0,1.1548879 H 43.227979 c 0.940117,0 1.669028,0.7369634 1.669028,1.6563526 V 39.760786 c 0,0.91939 -0.728911,1.65635 -1.669028,1.65635 H 4.9920701 c -0.9401159,0 -1.6690276,-0.73696 -1.6690276,-1.65635 V 5.2661171 c 0,-0.9193892 0.7289117,-1.6563526 1.6690276,-1.6563526 z"
     style="color:#000000;font-style:normal;font-variant:normal;font-weight:normal;font-stretch:normal;font-size:medium;line-height:normal;font-family:Sans;-inkscape-font-specification:Sans;text-indent:0;text-align:start;text-decoration:none;text-decoration-line:none;letter-spacing:normal;word-spacing:normal;text-transform:none;writing-mode:lr-tb;direction:ltr;baseline-shift:baseline;text-anchor:start;display:inline;overflow:visible;visibility:visible;fill:#1f2224;fill-opacity:0.80869565;stroke:none;stroke-width:1.18280113;marker:none;enable-background:accumulate" />
  <path
     inkscape:connector-curvature="0"
     style="display:inline;opacity:0.65818182;fill:url(#linearGradient4129);fill-opacity:1;fill-rule:nonzero;stroke:none;stroke-width:0.49791667"
     d="m 0.84687373,40.851367 v 2.9875 c 0,1.832404 1.48185307,3.314258 3.31425767,3.314258 H 43.838865 c 1.832405,0 3.31426,-1.481854 3.31426,-3.314258 v -2.9875 c 0,1.832404 -1.481855,3.314258 -3.31426,3.314258 H 4.1611314 c -1.8324046,0 -3.31425767,-1.481854 -3.31425767,-3.314258 z"
     id="path4118" />
  <rect
     style="opacity:0.55;fill:url(#radialGradient7462);fill-opacity:1;stroke:none;stroke-width:0.49791667"
     id="rect4131"
     width="41.949482"
     height="2.1161458"
     x="2.7763009"
     y="40.057812"
     rx="2.1161458"
     ry="2.1161458" />
  <rect
     ry="2.1161458"
     rx="2.1161458"
     y="-44.954826"
     x="2.8684161"
     height="2.1161458"
     width="38.215103"
     id="rect4141"
     style="opacity:0.669;fill:url(#radialGradient7464);fill-opacity:1;stroke:none;stroke-width:0.49791667"
     transform="rotate(90)" />
  <path
     inkscape:connector-curvature="0"
     d="m 23.307662,5.657043 c -1.748087,0 -3.065787,0.7540679 -3.066819,1.7530767 v 1.2692567 c -0.0266,6.088e-4 -0.05427,0.00927 -0.07968,0.021177 l -1.981142,1.0121654 c -0.08484,0.043546 -0.155401,0.1032389 -0.213664,0.1700398 -0.50194,-0.2044396 -1.120408,-0.3259174 -1.812492,-0.3259174 -1.747055,0 -3.064754,0.7520558 -3.064754,1.7510648 v 1.080991 c -0.110387,0.0026 -0.220813,0.02329 -0.323046,0.07888 l -3.7834288,2.03447 c -0.130902,0.06988 -0.218774,0.179159 -0.283166,0.30061 -0.0184,0.0274 -0.02978,0.05361 -0.04394,0.08299 -0.01191,0.03441 -0.02051,0.06777 -0.02753,0.103238 -0.02052,0.06671 -0.05427,0.129579 -0.05427,0.201422 v 16.491283 c 0,0.258098 0.141067,0.496963 0.36904,0.62449 L 22.701503,39.97449 c 0.0093,0.0053 0.02052,0.004 0.02965,0.0093 0.09318,0.04659 0.19319,0.07293 0.295423,0.0769 6.22e-4,0 0.01946,0.0093 0.02965,0.0093 0.09093,0 0.174804,-0.03852 0.259646,-0.07081 0.03071,-0.01191 0.06644,-0.0066 0.09609,-0.02316 l 0.004,-0.0026 c 0.0026,-1.19e-4 0.004,-1.19e-4 0.0066,-0.0026 0.0026,-1.05e-4 0.0026,-0.004 0.004,-0.004 l 13.882421,-7.717879 c 0.228992,-0.126534 0.36904,-0.366419 0.36904,-0.624516 l 0.01429,-16.402193 c 0,-0.254061 -0.134938,-0.490901 -0.357789,-0.618428 -0.02356,-0.01416 -0.05321,-0.01059 -0.07769,-0.02131 -0.03269,-0.02528 -0.05625,-0.05665 -0.09397,-0.07677 L 33.37735,12.471105 c -0.01628,-0.0093 -0.03375,-0.0079 -0.05016,-0.01615 v -1.156911 c 0,-1.000029 -1.317712,-1.7530905 -3.064767,-1.7530905 -0.742169,0 -1.397432,0.1406961 -1.916763,0.3735 -0.03574,-0.028325 -0.06538,-0.062738 -0.107342,-0.085106 l -1.80118,-0.9215929 c -0.02052,-5.956e-4 -0.04288,-0.00927 -0.06433,-0.018133 V 7.4107947 c 0,-1.0000279 -1.3177,-1.7530766 -3.064768,-1.7530766 m -1.98115,3.1002787 c 0.528517,0.2509897 1.207313,0.4028304 1.981155,0.4028304 0.772836,0 1.4506,-0.1528466 1.979104,-0.4028304 v 1.9868862 c 0,0.207497 -0.747265,0.678148 -1.979104,0.678148 -1.231839,0 -1.981155,-0.470651 -1.981155,-0.678148 V 8.7579968 m -1.086669,1.5162092 v 0.470677 c 0,0.999009 1.318732,1.751052 3.066805,1.751052 1.749106,0 3.065787,-0.752043 3.064767,-1.751052 v -0.253054 l 0.880179,0.450426 c -0.03786,0.114357 -0.05824,0.232791 -0.05824,0.35628 v 3.33307 c 0,0.999009 1.318732,1.751051 3.066806,1.751051 1.7481,0 3.065786,-0.752042 3.064767,-1.751051 v -0.557716 l 2.146761,1.156925 -12.413411,6.881736 -12.308134,-6.925268 2.342016,-1.261157 v 0.71763 c 0,0.999009 1.317712,1.753077 3.064767,1.753077 1.747067,0 3.064767,-0.754068 3.064767,-1.753077 v -3.333069 c 0,-0.160947 -0.045,-0.312761 -0.109327,-0.458514 l 1.131657,-0.576947 m 8.040143,2.370499 c 0.527498,0.25103 1.2073,0.404869 1.981169,0.404869 0.772823,0 1.4506,-0.154859 1.979104,-0.404869 v 1.9869 c 0,0.196352 -0.693104,0.676136 -1.979104,0.676136 -1.231853,0 -1.981169,-0.468639 -1.981169,-0.676136 v -1.9869 m -14.108343,0.01191 c 0.528504,0.25103 1.2073,0.404882 1.981156,0.404882 0.771817,0 1.4506,-0.152846 1.979117,-0.402844 v 1.984862 c 0,0.196353 -0.693104,0.678148 -1.979117,0.678148 -1.286,0 -1.981156,-0.481795 -1.981156,-0.678148 v -1.9869 m 9.088998,0.72978 c -1.747067,0 -3.066819,0.754068 -3.066819,1.753077 v 3.33307 c 0,0.999008 1.319752,1.75309 3.066819,1.75309 1.747055,0 3.062729,-0.754082 3.062729,-1.75309 v -3.33307 c 0,-0.999009 -1.315674,-1.753077 -3.062729,-1.753077 m -1.981155,3.09926 c 0.528504,0.25103 1.2073,0.404869 1.981155,0.404869 0.771817,0 1.449581,-0.152833 1.977066,-0.402844 v 1.984862 c 0,0.196365 -0.691053,0.67816 -1.977066,0.67816 -1.231839,0 -1.981155,-0.47065 -1.981155,-0.67816 v -1.986887"
     style="fill:url(#1-3);stroke-width:1"
     id="path19" />
  <rect
     transform="matrix(0.53239495,0,0,0.52165878,2.2386637,19.259328)"
     style="opacity:0.7;fill:url(#linearGradient4767);fill-opacity:1;stroke:none"
     id="rect4146"
     width="75.965775"
     height="69.024437"
     x="2"
     y="-30"
     rx="3.9569874"
     ry="3.9569881"
     clip-path="url(#clipPath4156-4-1)" />
  <g
     transform="translate(-384.57143,-499.798)"
     id="g21" />
</svg>
