<?xml version="1.0" encoding="UTF-8" standalone="no"?>
<!-- Created with Inkscape (http://www.inkscape.org/) -->

<svg
   xmlns:dc="http://purl.org/dc/elements/1.1/"
   xmlns:cc="http://creativecommons.org/ns#"
   xmlns:rdf="http://www.w3.org/1999/02/22-rdf-syntax-ns#"
   xmlns:svg="http://www.w3.org/2000/svg"
   xmlns="http://www.w3.org/2000/svg"
   xmlns:xlink="http://www.w3.org/1999/xlink"
   xmlns:sodipodi="http://sodipodi.sourceforge.net/DTD/sodipodi-0.dtd"
   xmlns:inkscape="http://www.inkscape.org/namespaces/inkscape"
   width="96"
   height="96"
   viewBox="0 0 96.000001 96.000004"
   version="1.1"
   id="svg1072"
   inkscape:version="0.91 r13725"
   sodipodi:docname="libreoffice-installer.svg">
  <defs
     id="defs1066">
    <linearGradient
       y2="47.000011"
       x2="90"
       y1="47.000011"
       x1="6"
       gradientTransform="matrix(1.1071428,0,0,1.1071426,-4.9939026,-3.620687)"
       gradientUnits="userSpaceOnUse"
       id="linearGradient4071"
       xlink:href="#linearGradient6139-0"
       inkscape:collect="always" />
    <linearGradient
       id="linearGradient6139-0">
      <stop
         style="stop-color:#b7b7b7;stop-opacity:1"
         offset="0"
         id="stop6141-2" />
      <stop
         id="stop6151-0"
         offset="0.25"
         style="stop-color:#ffffff;stop-opacity:1;" />
      <stop
         id="stop6147-1"
         offset="0.5"
         style="stop-color:#9d9d9d;stop-opacity:1" />
      <stop
         style="stop-color:#fafafa;stop-opacity:1"
         offset="0.75"
         id="stop6149-4" />
      <stop
         style="stop-color:#b7b7b7;stop-opacity:1"
         offset="1"
         id="stop6143-4" />
    </linearGradient>
    <linearGradient
       gradientUnits="userSpaceOnUse"
       y2="88.171875"
       x2="94.5"
       y1="88.171875"
       x1="1.5"
       id="linearGradient4129"
       xlink:href="#linearGradient3832-0-6-1-1"
       inkscape:collect="always"
       gradientTransform="translate(0.1489535,0.415026)" />
    <linearGradient
       id="linearGradient3832-0-6-1-1">
      <stop
         id="stop3834-6-3-7-1"
         offset="0"
         style="stop-color:#000000;stop-opacity:1;" />
      <stop
         style="stop-color:#000000;stop-opacity:0.58823532;"
         offset="0.1"
         id="stop3872-2-4" />
      <stop
         id="stop3844-6-2-7-6"
         offset="0.89999998"
         style="stop-color:#000000;stop-opacity:0.58823532;" />
      <stop
         id="stop3836-5-0-2-9"
         offset="1"
         style="stop-color:#000000;stop-opacity:1;" />
    </linearGradient>
    <linearGradient
       id="linearGradient3737">
      <stop
         id="stop3739"
         style="stop-color:#ffffff;stop-opacity:1"
         offset="0" />
      <stop
         id="stop3741"
         style="stop-color:#ffffff;stop-opacity:0"
         offset="1" />
    </linearGradient>
    <linearGradient
       y2="14.514202"
       x2="50.527882"
       y1="-28.64156"
       x1="2.7713892"
       gradientUnits="userSpaceOnUse"
       id="linearGradient4767"
       xlink:href="#linearGradient3737"
       inkscape:collect="always" />
    <clipPath
       clipPathUnits="userSpaceOnUse"
       id="clipPath4156-4-1">
      <path
         style="opacity:0.6;fill:#ffffff;fill-opacity:1;stroke:none"
         d="m 27.046336,-55.695463 -14.21366,13.321486 h 0.06127 l 15.653407,21.770763 10.231384,-10.546177 C 38.561832,-32.30156 27.468089,-54.819245 27.046336,-55.695463 Z M 9.6468554,-39.382809 -5.2407289,-25.32124 15.987863,-7.8059573 26.372412,-18.382966 Z m 31.4906096,12.951445 -9.741259,9.713584 8.944804,12.4580526 7.780753,-7.5550056 z m -49.8397109,4.378822 -13.7541661,12.9822847 26.2830181,13.84571 0.06127,-0.0617 -0.122531,-0.0617 L 13.598503,-5.4007374 -8.7022409,-22.052595 Z m 38.0154159,7.400825 -9.802525,9.7752596 11.579232,9.5594001 7.62759,-7.40083 -8.669108,-11.0087257 z m 20.187073,5.6739697 -7.382526,7.2158 6.187844,8.54179 5.820249,-6.13651996 z m -32.195166,6.32154 -9.5574606,9.49772 13.6622686,7.1849703 7.933918,-7.6783603 z m 23.311629,2.37443004 -7.10683,6.93826996 8.362778,6.9074403 5.360756,-5.6739699 -0.06127,-0.0925 -0.0919,0.12335 -6.463539,-8.20258036 z m -8.730374,8.54178036 -7.505057,7.3391599 10.353916,5.45811 c 1.397496,-1.32103 5.67514,-6.12292 5.850882,-6.32154 z"
         id="path4158-0-8"
         inkscape:connector-curvature="0" />
    </clipPath>
    <linearGradient
       y2="-19.957712"
       x2="2.2660911"
       y1="-18.925377"
       x1="93.39798"
       spreadMethod="reflect"
       gradientTransform="matrix(1.0004943,0,0,0.99149733,-29.066079,-60.494183)"
       gradientUnits="userSpaceOnUse"
       id="linearGradient5871"
       xlink:href="#linearGradient3984-9-6"
       inkscape:collect="always" />
    <linearGradient
       gradientUnits="userSpaceOnUse"
       id="linearGradient3984-9-6"
       y2="33.101307"
       x2="59.729176"
       y1="33.425831"
       x1="0.29404691">
      <stop
         offset="0"
         style="stop-color:#ebeced;stop-opacity:1;"
         id="stop3099-9-8" />
      <stop
         offset="0.67870468"
         style="stop-color:#ebeeef;stop-opacity:1;"
         id="stop3875-8-5" />
      <stop
         offset="0.68910319"
         style="stop-color:#808080;stop-opacity:1;"
         id="stop3873-1-8" />
      <stop
         offset="1"
         style="stop-color:#575757;stop-opacity:1;"
         id="stop3101-7-8" />
    </linearGradient>
    <linearGradient
       y2="11.140625"
       x2="93.5"
       y1="11.140625"
       x1="2.5"
       gradientTransform="matrix(1.0114053,0,0,1.0044929,-29.589803,28.043121)"
       gradientUnits="userSpaceOnUse"
       id="linearGradient5875"
       xlink:href="#linearGradient4160-1"
       inkscape:collect="always" />
    <linearGradient
       id="linearGradient4160-1">
      <stop
         style="stop-color:#000000;stop-opacity:0;"
         offset="0"
         id="stop4170-6" />
      <stop
         id="stop4186-6"
         offset="0.03175623"
         style="stop-color:#000000;stop-opacity:0.96470588;" />
      <stop
         id="stop4182-5"
         offset="0.09425623"
         style="stop-color:#000000;stop-opacity:0;" />
      <stop
         id="stop4180-0"
         offset="0.49595019"
         style="stop-color:#000000;stop-opacity:0;" />
      <stop
         id="stop4178-2"
         offset="0.90525883"
         style="stop-color:#000000;stop-opacity:0;" />
      <stop
         style="stop-color:#000000;stop-opacity:0.98823529;"
         offset="0.96241152"
         id="stop4184-0" />
      <stop
         style="stop-color:#000000;stop-opacity:0;"
         offset="1"
         id="stop4168-2" />
    </linearGradient>
    <radialGradient
       gradientUnits="userSpaceOnUse"
       gradientTransform="matrix(1.0646477,0,0,0.03274241,2.9252433,33.925137)"
       r="29.024296"
       fy="35.073528"
       fx="-48.731873"
       cy="35.073528"
       cx="-48.731873"
       id="radialGradient4210"
       xlink:href="#linearGradient3737"
       inkscape:collect="always" />
    <radialGradient
       r="14.16129"
       cy="47.141338"
       cx="48.30785"
       gradientTransform="matrix(0.80018438,0.67652515,-1.5307737,1.9035151,3.7912682,-48.144492)"
       gradientUnits="userSpaceOnUse"
       id="radialGradient3333-6"
       xlink:href="#radialGradient3996-3-3"
       inkscape:collect="always" />
    <radialGradient
       gradientTransform="matrix(0.93962333,0.77477937,-1.7975241,2.1799696,88.130548,-93.365748)"
       gradientUnits="userSpaceOnUse"
       id="radialGradient3996-3-3"
       r="14.16129"
       cy="47.141338"
       cx="48.30785">
      <stop
         offset="0"
         style="stop-color:#000000;stop-opacity:0.22264875"
         id="stop3954-3-6" />
      <stop
         offset="0.5"
         style="stop-color:#000000;stop-opacity:0.0678183"
         id="stop3958-3-6" />
      <stop
         offset="1"
         style="stop-color:#000000;stop-opacity:0.02431222"
         id="stop3956-4-0" />
    </radialGradient>
    <linearGradient
       gradientTransform="matrix(0.95958619,0,0,1,-75.741251,27.019518)"
       y2="4"
       x2="73"
       y1="52"
       x1="45"
       gradientUnits="userSpaceOnUse"
       id="linearGradient3335-7"
       xlink:href="#linearGradient4308-6-4"
       inkscape:collect="always" />
    <linearGradient
       gradientUnits="userSpaceOnUse"
       id="linearGradient4308-6-4"
       y2="4"
       x2="73"
       y1="52"
       x1="45">
      <stop
         offset="0"
         style="stop-color:#000000;stop-opacity:0.10677083"
         id="stop4304-4-4" />
      <stop
         offset="1"
         style="stop-color:#000000;stop-opacity:0"
         id="stop4306-3-9" />
    </linearGradient>
    <linearGradient
       gradientTransform="translate(-75.954866,24.617783)"
       y2="36"
       x2="37"
       y1="46.124821"
       x1="48.992088"
       gradientUnits="userSpaceOnUse"
       id="linearGradient3341-2"
       xlink:href="#linearGradient4280-6-9"
       inkscape:collect="always" />
    <linearGradient
       gradientUnits="userSpaceOnUse"
       id="linearGradient4280-6-9"
       y2="36"
       x2="37"
       y1="46.124821"
       x1="48.992088">
      <stop
         offset="0"
         style="stop-color:#cfcfcf;stop-opacity:1"
         id="stop4293-95-9" />
      <stop
         offset="0.2098622"
         style="stop-color:#b7b7b7;stop-opacity:1"
         id="stop4295-8-1" />
      <stop
         offset="1"
         style="stop-color:#c9c9c9;stop-opacity:1"
         id="stop4297-0-3" />
    </linearGradient>
    <linearGradient
       y2="1982.2323"
       x2="158.4942"
       y1="2022.2076"
       x1="158.4942"
       gradientUnits="userSpaceOnUse"
       id="linearGradient15279-0"
       xlink:href="#linearGradient4274-3-3"
       inkscape:collect="always" />
    <linearGradient
       id="linearGradient4274-3-3">
      <stop
         style="stop-color:#333333;stop-opacity:1"
         offset="0"
         id="stop4276-8-6" />
      <stop
         style="stop-color:#808080;stop-opacity:1"
         offset="1"
         id="stop4278-0-0" />
    </linearGradient>
    <filter
       style="color-interpolation-filters:sRGB"
       inkscape:menu-tooltip="Adds a colorizable drop shadow inside"
       inkscape:menu="Shadows and Glows"
       inkscape:label="Inner Shadow Rest"
       id="filter4026-4-0">
      <feGaussianBlur
         result="result8"
         stdDeviation="1"
         id="feGaussianBlur4028-7-2" />
      <feOffset
         result="result11"
         dy="1"
         dx="1"
         id="feOffset4030-6-8" />
      <feComposite
         operator="in"
         in="SourceGraphic"
         result="result6"
         in2="result11"
         id="feComposite4032-8-3" />
      <feFlood
         flood-color="rgb(51,51,51)"
         flood-opacity="1"
         in="result6"
         result="result10"
         id="feFlood4034-9-5" />
      <feBlend
         result="result12"
         in="result6"
         mode="normal"
         in2="result10"
         id="feBlend4036-0-9" />
      <feComposite
         operator="in"
         result="result2"
         in2="SourceGraphic"
         id="feComposite4038-6-0" />
    </filter>
    <linearGradient
       inkscape:collect="always"
       xlink:href="#linearGradient4280-7-7"
       id="linearGradient6359"
       gradientUnits="userSpaceOnUse"
       x1="160.76947"
       y1="2011.2181"
       x2="160.76947"
       y2="1972.8456" />
    <linearGradient
       inkscape:collect="always"
       id="linearGradient4280-7-7">
      <stop
         style="stop-color:#18a303;stop-opacity:1"
         offset="0"
         id="stop4282-3-5" />
      <stop
         style="stop-color:#92e285;stop-opacity:1"
         offset="1"
         id="stop4284-2-1" />
    </linearGradient>
    <filter
       style="color-interpolation-filters:sRGB"
       id="filter4195-6-9"
       inkscape:label="Inner Shadow Libre"
       inkscape:menu="Shadows and Glows"
       inkscape:menu-tooltip="Adds a colorizable drop shadow inside">
      <feGaussianBlur
         id="feGaussianBlur4197-5-0"
         stdDeviation="1"
         result="result8" />
      <feOffset
         id="feOffset4199-2-0"
         dx="1"
         dy="1"
         result="result11" />
      <feComposite
         id="feComposite4201-6-3"
         in2="result11"
         result="result6"
         in="SourceGraphic"
         operator="in" />
      <feFlood
         id="feFlood4203-5-0"
         result="result10"
         in="result6"
         flood-opacity="1"
         flood-color="rgb(16,104,2)" />
      <feBlend
         id="feBlend4205-8-6"
         in2="result10"
         mode="normal"
         in="result6"
         result="result12" />
      <feComposite
         id="feComposite4207-7-8"
         in2="SourceGraphic"
         result="result2"
         operator="in" />
    </filter>
    <linearGradient
       inkscape:collect="always"
       xlink:href="#linearGradient4160-1"
       id="linearGradient1117"
       gradientUnits="userSpaceOnUse"
       gradientTransform="translate(0.53301398,-0.29687761)"
       x1="2.5"
       y1="54.296875"
       x2="93.5"
       y2="54.296875" />
    <linearGradient
       inkscape:collect="always"
       xlink:href="#linearGradient4274-3-3"
       id="linearGradient1076"
       gradientUnits="userSpaceOnUse"
       x1="158.4942"
       y1="2022.2076"
       x2="158.4942"
       y2="1982.2323" />
    <linearGradient
       inkscape:collect="always"
       xlink:href="#linearGradient4274-3-3"
       id="linearGradient1078"
       gradientUnits="userSpaceOnUse"
       x1="158.4942"
       y1="2022.2076"
       x2="158.4942"
       y2="1982.2323" />
    <linearGradient
       inkscape:collect="always"
       xlink:href="#linearGradient4274-3-3"
       id="linearGradient1080"
       gradientUnits="userSpaceOnUse"
       x1="158.4942"
       y1="2022.2076"
       x2="158.4942"
       y2="1982.2323" />
    <linearGradient
       inkscape:collect="always"
       xlink:href="#linearGradient4274-3-3"
       id="linearGradient1082"
       gradientUnits="userSpaceOnUse"
       x1="158.4942"
       y1="2022.2076"
       x2="158.4942"
       y2="1982.2323" />
    <linearGradient
       inkscape:collect="always"
       xlink:href="#linearGradient4274-3-3"
       id="linearGradient1084"
       gradientUnits="userSpaceOnUse"
       x1="158.4942"
       y1="2022.2076"
       x2="158.4942"
       y2="1982.2323" />
    <linearGradient
       inkscape:collect="always"
       xlink:href="#linearGradient4274-3-3"
       id="linearGradient1086"
       gradientUnits="userSpaceOnUse"
       x1="158.4942"
       y1="2022.2076"
       x2="158.4942"
       y2="1982.2323" />
    <linearGradient
       inkscape:collect="always"
       xlink:href="#linearGradient4280-7-7"
       id="linearGradient1088"
       gradientUnits="userSpaceOnUse"
       x1="160.76947"
       y1="2011.2181"
       x2="160.76947"
       y2="1972.8456" />
    <linearGradient
       inkscape:collect="always"
       xlink:href="#linearGradient4280-7-7"
       id="linearGradient1090"
       gradientUnits="userSpaceOnUse"
       x1="160.76947"
       y1="2011.2181"
       x2="160.76947"
       y2="1972.8456" />
    <linearGradient
       inkscape:collect="always"
       xlink:href="#linearGradient4280-7-7"
       id="linearGradient1092"
       gradientUnits="userSpaceOnUse"
       x1="160.76947"
       y1="2011.2181"
       x2="160.76947"
       y2="1972.8456" />
    <linearGradient
       inkscape:collect="always"
       xlink:href="#linearGradient4280-7-7"
       id="linearGradient1094"
       gradientUnits="userSpaceOnUse"
       x1="160.76947"
       y1="2011.2181"
       x2="160.76947"
       y2="1972.8456" />
    <linearGradient
       inkscape:collect="always"
       xlink:href="#linearGradient4280-7-7"
       id="linearGradient1096"
       gradientUnits="userSpaceOnUse"
       x1="160.76947"
       y1="2011.2181"
       x2="160.76947"
       y2="1972.8456" />
  </defs>
  <sodipodi:namedview
     id="base"
     pagecolor="#ffffff"
     bordercolor="#666666"
     borderopacity="1.0"
     inkscape:pageopacity="0.0"
     inkscape:pageshadow="2"
     inkscape:zoom="2.1491617"
     inkscape:cx="52.213466"
     inkscape:cy="33.602226"
     inkscape:document-units="px"
     inkscape:current-layer="g1115"
     showgrid="false"
     inkscape:showpageshadow="false"
     units="px"
     inkscape:lockguides="true"
     inkscape:window-width="1280"
     inkscape:window-height="967"
     inkscape:window-x="0"
     inkscape:window-y="25"
     inkscape:window-maximized="1"
     inkscape:snap-global="false">
    <sodipodi:guide
       position="0,0"
       orientation="0,96"
       id="guide1621"
       inkscape:locked="true" />
    <sodipodi:guide
       position="96.000002,0"
       orientation="-96,0"
       id="guide1623"
       inkscape:locked="true" />
    <sodipodi:guide
       position="96.000002,96.000002"
       orientation="0,-96"
       id="guide1625"
       inkscape:locked="true" />
    <sodipodi:guide
       position="0,96.000002"
       orientation="96,0"
       id="guide1627"
       inkscape:locked="true" />
  </sodipodi:namedview>
  <metadata
     id="metadata1069">
    <rdf:RDF>
      <cc:Work
         rdf:about="">
        <dc:format>image/svg+xml</dc:format>
        <dc:type
           rdf:resource="http://purl.org/dc/dcmitype/StillImage" />
        <dc:title></dc:title>
        <dc:date>2017</dc:date>
        <dc:creator>
          <cc:Agent>
            <dc:title>Cristian Pozzessere &quot;ilnanny&quot;</dc:title>
          </cc:Agent>
        </dc:creator>
        <dc:subject>
          <rdf:Bag>
            <rdf:li>Global language</rdf:li>
          </rdf:Bag>
        </dc:subject>
        <dc:description>Playing with Inkscape on Gnu/Linux O. S.</dc:description>
        <dc:contributor>
          <cc:Agent>
            <dc:title>In the night, alone like a dog.</dc:title>
          </cc:Agent>
        </dc:contributor>
        <cc:license
           rdf:resource="http://creativecommons.org/licenses/by-sa/4.0/" />
      </cc:Work>
      <cc:License
         rdf:about="http://creativecommons.org/licenses/by-sa/4.0/">
        <cc:permits
           rdf:resource="http://creativecommons.org/ns#Reproduction" />
        <cc:permits
           rdf:resource="http://creativecommons.org/ns#Distribution" />
        <cc:requires
           rdf:resource="http://creativecommons.org/ns#Notice" />
        <cc:requires
           rdf:resource="http://creativecommons.org/ns#Attribution" />
        <cc:permits
           rdf:resource="http://creativecommons.org/ns#DerivativeWorks" />
        <cc:requires
           rdf:resource="http://creativecommons.org/ns#ShareAlike" />
      </cc:License>
    </rdf:RDF>
  </metadata>
  <g
     inkscape:label="Livello 1"
     inkscape:groupmode="layer"
     id="layer1"
     transform="translate(0,-1026.5197)">
    <g
       transform="translate(-0.14895645,1026.1047)"
       style="display:inline"
       id="g2574">
      <path
         inkscape:connector-curvature="0"
         id="path3288"
         d="M 89.29181,0.415026 H 7.0060911 c -3.798848,0 -6.8571352,3.058285 -6.8571352,6.8571399 V 89.557884 c 0,3.798857 3.0582872,6.857142 6.8571352,6.857142 H 89.29181 c 3.798857,0 6.857147,-3.058285 6.857147,-6.857142 V 7.2721659 c 0,-3.7988549 -3.05829,-6.8571399 -6.857147,-6.8571399 z"
         style="display:inline;opacity:0.15;fill:#000000;fill-opacity:1;fill-rule:nonzero;stroke:none" />
      <path
         style="display:inline;opacity:0.15;fill:#000000;fill-opacity:1;fill-rule:nonzero;stroke:none"
         d="M 88.648954,1.165026 H 7.6489471 c -3.739492,0 -6.749993,3.010499 -6.749993,6.7499969 V 88.915026 c 0,3.739501 3.010501,6.75 6.749993,6.75 H 88.648954 c 3.739503,0 6.750003,-3.010499 6.750003,-6.75 V 7.9150229 c 0,-3.7394979 -3.0105,-6.7499969 -6.750003,-6.7499969 z"
         id="path4085"
         inkscape:connector-curvature="0" />
      <path
         inkscape:connector-curvature="0"
         id="rect4251-1"
         d="M 88.006093,1.915026 H 8.2918111 c -3.680143,0 -6.6428566,2.962713 -6.6428566,6.6428549 V 88.272171 c 0,3.680142 2.9627136,6.642856 6.6428566,6.642856 H 88.006093 c 3.680143,0 6.642854,-2.962714 6.642854,-6.642856 V 8.5578809 c 0,-3.6801419 -2.962711,-6.6428549 -6.642854,-6.6428549 z"
         style="display:inline;fill:url(#linearGradient4071);fill-opacity:1;fill-rule:nonzero;stroke:none" />
      <g
         transform="matrix(0.96544487,0,0,0.95881976,4.7633291,4.4504822)"
         style="display:inline"
         id="g1150">
        <g
           transform="matrix(0.94531274,0,0,0.89449535,0.09105342,0.20605871)"
           id="g1115">
          <path
             transform="translate(29.042338,-28.287372)"
             inkscape:connector-curvature="0"
             style="opacity:0;fill:#000000;fill-opacity:1;stroke:none"
             d="m -23.394945,30.240449 c -2.207575,0 -3.982409,1.762703 -3.982409,3.95519 v 12.053915 c 0,-2.192488 1.774834,-3.955191 3.982409,-3.955191 h 84.705191 c 2.207572,0 3.982412,1.762703 3.982412,3.955191 V 34.195639 c 0,-2.192487 -1.77484,-3.95519 -3.982412,-3.95519 z"
             id="rect4080" />
          <rect
             transform="matrix(1,0,0,-1,29.042338,-28.287372)"
             style="opacity:0.95999995;fill:url(#linearGradient5871);fill-opacity:1;stroke:#738589;stroke-width:1.00031602;stroke-miterlimit:4;stroke-dasharray:none;stroke-opacity:1"
             id="rect4133"
             width="92.045486"
             height="91.217758"
             x="-27.065086"
             y="-121.96702"
             rx="3.9589436"
             ry="3.9233429" />
          <path
             style="display:inline;opacity:1;fill:#5ed93a;fill-opacity:0.8761062;stroke:none;stroke-width:0.44939497;stroke-miterlimit:4;stroke-dasharray:none;stroke-opacity:0"
             d="m 16.66082,90.721832 17.218091,-0.0445 17.218125,-0.0458 L 38.898354,73.150444 26.699104,55.668502 21.679661,73.195415 16.66082,90.721832 Z M 43.068235,78.972968 62.346658,63.739773 54.144578,51.985925 34.866163,67.21912 43.068235,78.972968 Z"
             id="rect9146"
             inkscape:connector-curvature="0" />
          <path
             transform="translate(29.042338,-28.287372)"
             id="path4060"
             d="m -23.093973,38.517005 c -2.193234,0 -3.970674,1.769321 -3.970674,3.952535 v 3.983657 c 0,-2.183214 1.77744,-3.952535 3.970674,-3.952535 h 84.103249 c 2.19323,0 3.970672,1.769321 3.970672,3.952535 V 42.46954 c 0,-2.183214 -1.777442,-3.952535 -3.970672,-3.952535 z"
             style="fill:#e4e8e8;fill-opacity:1;stroke:#738589;stroke-width:1.00031602;stroke-miterlimit:4;stroke-dasharray:none;stroke-opacity:1"
             inkscape:connector-curvature="0" />
          <path
             transform="translate(29.042338,-28.287372)"
             inkscape:connector-curvature="0"
             style="fill:#e4e8e8;fill-opacity:1;stroke:#738589;stroke-width:1.00031602;stroke-miterlimit:4;stroke-dasharray:none;stroke-opacity:1"
             d="m -23.093973,34.533774 c -2.193234,0 -3.970674,1.76932 -3.970674,3.952533 v 3.983656 c 0,-2.183213 1.77744,-3.952533 3.970674,-3.952533 h 84.103249 c 2.19323,0 3.970672,1.76932 3.970672,3.952533 v -3.983656 c 0,-2.183213 -1.777442,-3.952533 -3.970672,-3.952533 z"
             id="path4062" />
          <path
             transform="translate(29.042338,-28.287372)"
             id="path4351"
             d="m -23.093973,30.533774 c -2.193234,0 -3.970674,1.76932 -3.970674,3.952533 v 3.983656 c 0,-2.183213 1.77744,-3.952533 3.970674,-3.952533 h 84.103249 c 2.19323,0 3.970672,1.76932 3.970672,3.952533 v -3.983656 c 0,-2.183213 -1.777442,-3.952533 -3.970672,-3.952533 z"
             style="fill:#e4e8e8;fill-opacity:1;stroke:#738589;stroke-width:1.00031602;stroke-miterlimit:4;stroke-dasharray:none;stroke-opacity:1"
             inkscape:connector-curvature="0" />
          <path
             transform="translate(29.042338,-28.287372)"
             style="opacity:0.25818182;fill:url(#linearGradient5875);fill-opacity:1;stroke:none"
             d="m -23.110487,30.742695 c -2.193255,0 -3.950802,1.750269 -3.950802,3.923801 v 13.058407 c 0,-2.173532 2.111063,-4.806126 4.304314,-4.80154 l 83.959531,0.175548 c 2.19324,0.0046 3.774032,2.45246 3.774032,4.625992 V 34.666496 c 0,-2.173532 -1.757552,-3.923801 -3.950802,-3.923801 z"
             id="rect4358"
             inkscape:connector-curvature="0"
             sodipodi:nodetypes="sscsscsss" />
          <g
             id="g4111"
             transform="matrix(1.4386579,0,0,1.4386579,118.30446,-34.611515)">
            <path
               style="fill:url(#radialGradient4210);fill-opacity:1;fill-rule:nonzero"
               id="path4253"
               d="m -79.857685,34.123204 h 61.801301 v 1.900651 h -61.801301 z"
               inkscape:connector-curvature="0" />
            <g
               id="g4178">
              <path
                 inkscape:connector-curvature="0"
                 d="m -20.164741,62.19609 3.406405,3.492737 V 87.518433 H -40.87788 Z"
                 id="path3934"
                 style="fill:url(#radialGradient3333-6);fill-rule:nonzero" />
              <path
                 inkscape:connector-curvature="0"
                 d="m -18.166079,29.019518 v 31 l -23.989655,29 h 1.919172 l 22.820159,-28.34375 0.20991,-0.28125 v -0.375 -30 z"
                 id="path3922"
                 style="fill:url(#linearGradient3335-7);fill-rule:nonzero" />
              <path
                 inkscape:connector-curvature="0"
                 d="m -41.954866,88.617783 26,-31 c -2.328567,2.776369 -4.36141,3 -11,3 h -12 v 15 c 0,6.644068 0.04437,9.370179 -3,13 z"
                 id="path4278"
                 style="fill:url(#linearGradient3341-2);fill-rule:nonzero" />
              <path
                 d="m -16.054215,57.668542 c -2.328567,2.776369 -4.36141,3 -11,3 h -12 v 15 c 0,6.644068 0.04437,9.370179 -3,13 4,-5 4.000382,-8.356667 4,-13 v -14 h 11 c 5,0 8.041405,-0.381883 11,-4 z"
                 id="path4282"
                 style="fill:#ffffff;fill-opacity:0.77120146;fill-rule:nonzero"
                 inkscape:connector-curvature="0" />
            </g>
          </g>
          <g
             id="g3687"
             transform="matrix(0.08192812,0,0,0.08674853,31.592276,32.737223)">
            <g
               transform="translate(-23.999991,-23.999812)"
               style="display:inline"
               inkscape:label="Logo"
               id="layer3-2">
              <g
                 style="display:inline"
                 id="g9823"
                 transform="matrix(1.3513735,0,0,1.3513735,0.82254625,-2269.815)">
                <g
                   id="text4528-0"
                   style="font-style:normal;font-variant:normal;font-weight:normal;font-stretch:normal;font-size:67.56232452px;font-family:Vegur;-inkscape-font-specification:Vegur;display:inline;fill:url(#linearGradient15279-0);fill-opacity:1;stroke:none;filter:url(#filter4026-4-0)"
                   transform="matrix(1.9867649,0,0,1.994964,-365.58352,-2175.8817)">
                  <path
                     id="path4576-4"
                     style="font-weight:normal;-inkscape-font-specification:'Andale Mono';fill:url(#linearGradient1076)"
                     d="m 273.62172,1975.0367 c -12.1612,0 -22.16044,8.8506 -22.16044,23.5792 0,14.7286 9.99924,23.5793 22.16044,23.5793 12.16121,0 22.16045,-8.8507 22.16045,-23.5793 0,-14.7286 -9.99924,-23.5792 -22.16045,-23.5792 m 0,4.5942 c 9.05335,0 15.94471,6.7562 15.94471,18.985 0,12.2288 -6.89136,18.985 -15.94471,18.985 -9.05334,0 -15.9447,-6.7562 -15.9447,-18.985 0,-12.2288 6.89136,-18.985 15.9447,-18.985"
                     inkscape:connector-curvature="0" />
                  <path
                     id="path4578-8"
                     style="font-weight:normal;-inkscape-font-specification:'Andale Mono';fill:url(#linearGradient1078)"
                     d="m 304.43487,1986.7249 v 2.0945 h -5.33742 v 4.324 h 5.33742 v 28.3761 h 5.67524 v -28.3761 h 8.37772 v -4.324 h -8.37772 v -2.9728 c 0,-5.8779 2.49981,-9.3236 7.02648,-9.3236 2.09443,0 3.44568,0.3378 4.72936,0.8108 l 0.5405,-4.1889 c -1.21612,-0.4729 -3.51324,-0.9459 -5.33743,-0.9459 -8.0399,0 -12.63415,5.2023 -12.63415,14.5259"
                     inkscape:connector-curvature="0" />
                  <path
                     id="path4580-7"
                     style="font-weight:normal;-inkscape-font-specification:'Andale Mono';fill:url(#linearGradient1080)"
                     d="m 323.30229,1986.7249 v 2.0945 h -5.33743 v 4.324 h 5.33743 v 28.3761 h 5.67523 v -28.3761 h 8.37773 v -4.324 h -8.37773 v -2.9728 c 0,-5.8779 2.49981,-9.3236 7.02648,-9.3236 2.09443,0 3.44568,0.3378 4.72937,0.8108 l 0.54049,-4.1889 c -1.21612,-0.4729 -3.51324,-0.9459 -5.33742,-0.9459 -8.03991,0 -12.63415,5.2023 -12.63415,14.5259"
                     inkscape:connector-curvature="0" />
                  <path
                     id="path4582-0"
                     style="font-weight:normal;-inkscape-font-specification:'Andale Mono';fill:url(#linearGradient1082)"
                     d="m 343.92879,2021.5195 h 5.67523 v -32.7001 h -5.67523 v 32.7001 m 2.83762,-37.4971 c 1.9593,0 3.51324,-1.5539 3.51324,-3.5132 0,-1.9593 -1.55394,-3.5132 -3.51324,-3.5132 -1.95931,0 -3.51324,1.5539 -3.51324,3.5132 0,1.9593 1.55393,3.5132 3.51324,3.5132"
                     inkscape:connector-curvature="0" />
                  <path
                     id="path4584-8"
                     style="font-weight:normal;-inkscape-font-specification:'Andale Mono';fill:url(#linearGradient1084)"
                     d="m 361.40465,2005.0343 c 0,-8.2426 4.93206,-12.5666 11.35047,-12.5666 3.37811,0 6.35086,0.8108 8.7831,1.9593 l 0.5405,-4.3239 c -2.02687,-1.0135 -5.26986,-1.9594 -8.85066,-1.9594 -10.13434,0 -17.76889,6.1482 -17.76889,17.6338 0,10.81 6.89136,16.4177 16.01227,16.4177 4.05373,0 6.95892,-0.473 10.26947,-1.8918 l -0.5405,-4.324 c -2.83761,1.2837 -5.87792,1.8918 -8.71554,1.8918 -6.55354,0 -11.08022,-4.1213 -11.08022,-12.8369"
                     inkscape:connector-curvature="0" />
                  <path
                     id="path4586-6"
                     style="font-weight:normal;-inkscape-font-specification:'Andale Mono';fill:url(#linearGradient1086)"
                     d="m 414.09011,2006.4531 c 0.13512,-1.2161 0.20268,-2.2295 0.20268,-3.243 0,-8.3777 -4.39156,-15.0664 -12.83684,-15.0664 -9.1209,0 -15.80958,7.567 -15.80958,17.6338 0,11.0802 6.68868,16.4177 15.80958,16.4177 4.05374,0 7.09405,-0.6081 10.26947,-1.8918 l -0.54049,-4.324 c -2.49981,1.2161 -6.08062,1.8918 -8.91823,1.8918 -6.55354,0 -10.80997,-3.9862 -10.9451,-11.4181 h 22.76851 m -13.10709,-13.9854 c 4.9996,0 7.7021,4.1213 7.7021,9.5263 h -17.09327 c 0.81075,-5.7428 3.98618,-9.5263 9.39117,-9.5263"
                     inkscape:connector-curvature="0" />
                </g>
                <g
                   id="text4542-2"
                   style="font-style:normal;font-variant:normal;font-weight:normal;font-stretch:normal;font-size:67.56232452px;font-family:Vegur;-inkscape-font-specification:Vegur;display:inline;fill:url(#linearGradient6359);fill-opacity:1;stroke:none;filter:url(#filter4195-6-9)"
                   transform="matrix(2.4318509,0,0,2.4418868,-193.06505,-3220.4211)">
                  <path
                     style="fill:url(#linearGradient1088)"
                     id="path4589-4"
                     d="m 103.61933,1975.7123 v 45.8072 h 29.65986 v -6.9589 h -20.60651 v -38.8483 h -9.05335"
                     inkscape:connector-curvature="0" />
                  <path
                     style="fill:url(#linearGradient1090)"
                     id="path4591-7"
                     d="m 138.75075,2021.5195 h 9.05335 v -32.9704 h -9.05335 v 32.9704 m 4.52667,-35.808 c 2.83762,0 5.2023,-2.2971 5.2023,-5.2023 0,-2.8376 -2.36468,-5.2023 -5.2023,-5.2023 -2.90517,0 -5.2023,2.3647 -5.2023,5.2023 0,2.9052 2.29713,5.2023 5.2023,5.2023"
                     inkscape:connector-curvature="0" />
                  <path
                     style="fill:url(#linearGradient1092)"
                     id="path4593-9"
                     d="m 163.5699,1992.4002 h -0.13513 v -19.5255 h -9.05335 v 48.6448 h 8.85067 l 0.20268,-3.851 h 0.13513 c 2.83761,3.1754 5.67524,4.5267 10.33704,4.5267 8.78309,0 14.59346,-7.9048 14.59346,-17.7689 0,-9.5263 -5.20231,-16.5528 -14.18809,-16.5528 -4.79692,0 -7.63455,1.4188 -10.74241,4.5267 m -0.13513,11.8909 c 0,-5.6752 2.56738,-9.4587 7.43186,-9.4587 5.40498,0 8.10748,3.8511 8.10748,10.1344 0,6.2157 -2.63494,10.2694 -7.97235,10.2694 -4.6618,0 -7.56699,-3.6483 -7.56699,-9.4587 v -1.4864"
                     inkscape:connector-curvature="0" />
                  <path
                     style="fill:url(#linearGradient1094)"
                     id="path4595-3"
                     d="m 212.79284,1987.8735 c -4.32399,0.2702 -8.44529,2.9052 -10.33704,6.5535 h -0.13512 l -0.20269,-5.8779 h -8.85066 v 32.9704 h 9.05335 v -12.4314 c 0,-6.6211 1.21612,-8.9858 3.31055,-10.4722 1.82418,-1.2837 3.98618,-1.8242 6.95892,-1.9593 l 0.20269,-8.7831"
                     inkscape:connector-curvature="0" />
                  <path
                     style="fill:url(#linearGradient1096)"
                     id="path4597-9"
                     d="m 246.10306,2003.075 c 0,-8.175 -4.99962,-15.2015 -13.64759,-15.2015 -10.40458,0 -17.09327,7.1616 -17.09327,18.0391 0,10.6073 6.89137,16.2826 17.09327,16.2826 4.79692,0 8.17505,-0.7432 11.35047,-2.162 l -0.94587,-6.7563 c -2.97274,1.2161 -6.01305,1.9593 -9.25604,1.9593 -5.47254,0 -8.98579,-2.4998 -9.3236,-7.6345 h 21.41726 c 0.27025,-1.2161 0.40537,-3.1079 0.40537,-4.5267 m -14.59346,-8.2426 c 3.91861,0 5.7428,3.1754 5.87792,6.5536 h -12.76928 c 0.67563,-3.7835 3.31056,-6.5536 6.89136,-6.5536"
                     inkscape:connector-curvature="0" />
                </g>
              </g>
            </g>
          </g>
          <path
             inkscape:transform-center-y="-4.7353388"
             inkscape:transform-center-x="1.2921035"
             id="rect4371"
             d="m 6.939264,14.796873 c -2.168522,0 -3.90625,1.74244 -3.90625,3.90625 v 70.593755 c 0,2.16381 1.737728,3.90625 3.90625,3.90625 h 83.1875 c 2.16852,0 3.90625,-1.74244 3.90625,-3.90625 V 18.703123 c 0,-2.16381 -1.73773,-3.90625 -3.90625,-3.90625 z"
             style="opacity:0.27999998;fill:url(#linearGradient1117);fill-opacity:1;stroke:none"
             inkscape:connector-curvature="0" />
        </g>
      </g>
      <path
         style="color:#000000;font-style:normal;font-variant:normal;font-weight:normal;font-stretch:normal;font-size:medium;line-height:normal;font-family:Sans;-inkscape-font-specification:Sans;text-indent:0;text-align:start;text-decoration:none;text-decoration-line:none;letter-spacing:normal;word-spacing:normal;text-transform:none;writing-mode:lr-tb;direction:ltr;baseline-shift:baseline;text-anchor:start;display:inline;overflow:visible;visibility:visible;fill:#241f1f;fill-opacity:0.63265303;stroke:none;stroke-width:2.3755002;marker:none;enable-background:accumulate"
         d="m 9.9740341,5.1444869 c -3.116621,0 -5.667965,2.53951 -5.667965,5.6460041 v 69.277996 c 0,3.106495 2.551344,5.646004 5.667965,5.646004 H 86.765819 c 3.116621,0 5.667968,-2.539509 5.667968,-5.646004 V 10.790491 c 0,-3.1064931 -2.551347,-5.6460041 -5.667968,-5.6460041 z m 0,2.319439 H 86.765819 c 1.888099,0 3.352022,1.480095 3.352022,3.3265651 v 69.277996 c 0,1.846474 -1.463923,3.326564 -3.352022,3.326564 H 9.9740341 c -1.888099,0 -3.352022,-1.48009 -3.352022,-3.326564 V 10.790491 c 0,-1.8464701 1.463923,-3.3265651 3.352022,-3.3265651 z"
         id="path4989"
         inkscape:connector-curvature="0" />
      <path
         id="path4118"
         d="m 1.6489535,82.258776 v 6 c 0,3.680142 2.9761066,6.65625 6.6562496,6.65625 H 87.992703 c 3.680143,0 6.656254,-2.976108 6.656254,-6.65625 v -6 c 0,3.680142 -2.976111,6.65625 -6.656254,6.65625 H 8.3052031 c -3.680143,0 -6.6562496,-2.976108 -6.6562496,-6.65625 z"
         style="display:inline;opacity:0.65818182;fill:url(#linearGradient4129);fill-opacity:1;fill-rule:nonzero;stroke:none"
         inkscape:connector-curvature="0" />
      <rect
         clip-path="url(#clipPath4156-4-1)"
         ry="3.9569881"
         rx="3.9569874"
         y="-30"
         x="2"
         height="69.024437"
         width="75.965775"
         id="rect4146"
         style="opacity:0.5078125;fill:url(#linearGradient4767);fill-opacity:1;stroke:none"
         transform="matrix(1.0692451,0,0,1.0476829,4.4441802,38.894013)" />
    </g>
  </g>
</svg>
