<?xml version="1.0" encoding="UTF-8" standalone="no"?>
<!-- Created with Inkscape (http://www.inkscape.org/) -->

<svg
   xmlns:dc="http://purl.org/dc/elements/1.1/"
   xmlns:cc="http://creativecommons.org/ns#"
   xmlns:rdf="http://www.w3.org/1999/02/22-rdf-syntax-ns#"
   xmlns:svg="http://www.w3.org/2000/svg"
   xmlns="http://www.w3.org/2000/svg"
   xmlns:xlink="http://www.w3.org/1999/xlink"
   xmlns:sodipodi="http://sodipodi.sourceforge.net/DTD/sodipodi-0.dtd"
   xmlns:inkscape="http://www.inkscape.org/namespaces/inkscape"
   width="96"
   height="96"
   viewBox="0 0 96.000001 96.000004"
   version="1.1"
   id="svg1072"
   inkscape:version="0.92.2 2405546, 2018-03-11"
   sodipodi:docname="ooo-base.svg">
  <defs
     id="defs1066">
    <linearGradient
       y2="47.000011"
       x2="90"
       y1="47.000011"
       x1="6"
       gradientTransform="matrix(1.1071428,0,0,1.1071426,-4.9939026,-3.620687)"
       gradientUnits="userSpaceOnUse"
       id="linearGradient4071"
       xlink:href="#linearGradient6139-0"
       inkscape:collect="always" />
    <linearGradient
       id="linearGradient6139-0">
      <stop
         style="stop-color:#d1d6da;stop-opacity:1"
         offset="0"
         id="stop6141-2" />
      <stop
         id="stop6151-0"
         offset="0.25"
         style="stop-color:#ffffff;stop-opacity:1;" />
      <stop
         id="stop6147-1"
         offset="0.5"
         style="stop-color:#bcc2c7;stop-opacity:1" />
      <stop
         style="stop-color:#f9fafb;stop-opacity:1"
         offset="0.75"
         id="stop6149-4" />
      <stop
         style="stop-color:#cfd2d6;stop-opacity:1"
         offset="1"
         id="stop6143-4" />
    </linearGradient>
    <linearGradient
       gradientUnits="userSpaceOnUse"
       y2="88.171875"
       x2="94.5"
       y1="88.171875"
       x1="1.5"
       id="linearGradient4129"
       xlink:href="#linearGradient3832-0-6-1-1"
       inkscape:collect="always"
       gradientTransform="translate(0.1489535,0.415026)" />
    <linearGradient
       id="linearGradient3832-0-6-1-1">
      <stop
         id="stop3834-6-3-7-1"
         offset="0"
         style="stop-color:#000000;stop-opacity:1;" />
      <stop
         style="stop-color:#000000;stop-opacity:0.58823532;"
         offset="0.1"
         id="stop3872-2-4" />
      <stop
         id="stop3844-6-2-7-6"
         offset="0.89999998"
         style="stop-color:#000000;stop-opacity:0.58823532;" />
      <stop
         id="stop3836-5-0-2-9"
         offset="1"
         style="stop-color:#000000;stop-opacity:1;" />
    </linearGradient>
    <radialGradient
       r="43.199203"
       fy="44.892841"
       fx="13.948145"
       cy="44.892841"
       cx="13.948145"
       gradientTransform="matrix(0.97513378,0,0,0.04919072,34.047649,80.581722)"
       gradientUnits="userSpaceOnUse"
       id="radialGradient7462"
       xlink:href="#linearGradient3737"
       inkscape:collect="always" />
    <linearGradient
       id="linearGradient3737">
      <stop
         id="stop3739"
         style="stop-color:#ffffff;stop-opacity:1"
         offset="0" />
      <stop
         id="stop3741"
         style="stop-color:#ffffff;stop-opacity:0"
         offset="1" />
    </linearGradient>
    <linearGradient
       y2="14.514202"
       x2="50.527882"
       y1="-28.64156"
       x1="2.7713892"
       gradientUnits="userSpaceOnUse"
       id="linearGradient4767"
       xlink:href="#linearGradient3737"
       inkscape:collect="always" />
    <clipPath
       clipPathUnits="userSpaceOnUse"
       id="clipPath4156-4-1">
      <path
         style="opacity:0.6;fill:#ffffff;fill-opacity:1;stroke:none"
         d="m 27.046336,-55.695463 -14.21366,13.321486 h 0.06127 l 15.653407,21.770763 10.231384,-10.546177 C 38.561832,-32.30156 27.468089,-54.819245 27.046336,-55.695463 Z M 9.6468554,-39.382809 -5.2407289,-25.32124 15.987863,-7.8059573 26.372412,-18.382966 Z m 31.4906096,12.951445 -9.741259,9.713584 8.944804,12.4580526 7.780753,-7.5550056 z m -49.8397109,4.378822 -13.7541661,12.9822847 26.2830181,13.84571 0.06127,-0.0617 -0.122531,-0.0617 L 13.598503,-5.4007374 -8.7022409,-22.052595 Z m 38.0154159,7.400825 -9.802525,9.7752596 11.579232,9.5594001 7.62759,-7.40083 -8.669108,-11.0087257 z m 20.187073,5.6739697 -7.382526,7.2158 6.187844,8.54179 5.820249,-6.13651996 z m -32.195166,6.32154 -9.5574606,9.49772 13.6622686,7.1849703 7.933918,-7.6783603 z m 23.311629,2.37443004 -7.10683,6.93826996 8.362778,6.9074403 5.360756,-5.6739699 -0.06127,-0.0925 -0.0919,0.12335 -6.463539,-8.20258036 z m -8.730374,8.54178036 -7.505057,7.3391599 10.353916,5.45811 c 1.397496,-1.32103 5.67514,-6.12292 5.850882,-6.32154 z"
         id="path4158-0-8"
         inkscape:connector-curvature="0" />
    </clipPath>
    <radialGradient
       r="43.199203"
       fy="44.892841"
       fx="13.948145"
       cy="44.892841"
       cx="13.948145"
       gradientTransform="matrix(1.0353919,0,0,0.05736347,3.9849628,117.73412)"
       gradientUnits="userSpaceOnUse"
       id="radialGradient5867"
       xlink:href="#linearGradient3737"
       inkscape:collect="always" />
    <linearGradient
       y2="-19.957712"
       x2="2.2660911"
       y1="-18.925377"
       x1="93.39798"
       spreadMethod="reflect"
       gradientTransform="matrix(1.0004943,0,0,0.99149733,-29.066079,-60.494183)"
       gradientUnits="userSpaceOnUse"
       id="linearGradient5871"
       xlink:href="#linearGradient3984-9-6"
       inkscape:collect="always" />
    <linearGradient
       gradientUnits="userSpaceOnUse"
       id="linearGradient3984-9-6"
       y2="33.101307"
       x2="59.729176"
       y1="33.425831"
       x1="0.29404691">
      <stop
         offset="0"
         style="stop-color:#edebed;stop-opacity:1;"
         id="stop3099-9-8" />
      <stop
         offset="0.67519277"
         style="stop-color:#ebeeef;stop-opacity:1;"
         id="stop3875-8-5" />
      <stop
         offset="0.68910319"
         style="stop-color:#a51691;stop-opacity:1;"
         id="stop3873-1-8" />
      <stop
         offset="1"
         style="stop-color:#951e85;stop-opacity:1;"
         id="stop3101-7-8" />
    </linearGradient>
    <linearGradient
       y2="11.140625"
       x2="93.5"
       y1="11.140625"
       x1="2.5"
       gradientTransform="matrix(1.0114053,0,0,1.0044929,-29.589803,28.043121)"
       gradientUnits="userSpaceOnUse"
       id="linearGradient5875"
       xlink:href="#linearGradient4160-1"
       inkscape:collect="always" />
    <linearGradient
       id="linearGradient4160-1">
      <stop
         style="stop-color:#000000;stop-opacity:0;"
         offset="0"
         id="stop4170-6" />
      <stop
         id="stop4186-6"
         offset="0.03175623"
         style="stop-color:#000000;stop-opacity:0.96470588;" />
      <stop
         id="stop4182-5"
         offset="0.09425623"
         style="stop-color:#000000;stop-opacity:0;" />
      <stop
         id="stop4180-0"
         offset="0.49595019"
         style="stop-color:#000000;stop-opacity:0;" />
      <stop
         id="stop4178-2"
         offset="0.90525883"
         style="stop-color:#000000;stop-opacity:0;" />
      <stop
         style="stop-color:#000000;stop-opacity:0.98823529;"
         offset="0.96241152"
         id="stop4184-0" />
      <stop
         style="stop-color:#000000;stop-opacity:0;"
         offset="1"
         id="stop4168-2" />
    </linearGradient>
    <radialGradient
       gradientUnits="userSpaceOnUse"
       gradientTransform="matrix(1.0646477,0,0,0.03274241,2.9252433,33.925137)"
       r="29.024296"
       fy="35.073528"
       fx="-48.731873"
       cy="35.073528"
       cx="-48.731873"
       id="radialGradient4210"
       xlink:href="#linearGradient3737"
       inkscape:collect="always" />
    <radialGradient
       r="14.16129"
       cy="47.141338"
       cx="48.30785"
       gradientTransform="matrix(0.80018438,0.67652515,-1.5307737,1.9035151,3.7912682,-48.144492)"
       gradientUnits="userSpaceOnUse"
       id="radialGradient3333-6"
       xlink:href="#radialGradient3996-3-3"
       inkscape:collect="always" />
    <radialGradient
       gradientTransform="matrix(0.93962333,0.77477937,-1.7975241,2.1799696,88.130548,-93.365748)"
       gradientUnits="userSpaceOnUse"
       id="radialGradient3996-3-3"
       r="14.16129"
       cy="47.141338"
       cx="48.30785">
      <stop
         offset="0"
         style="stop-color:#000000;stop-opacity:0.22264875"
         id="stop3954-3-6" />
      <stop
         offset="0.5"
         style="stop-color:#000000;stop-opacity:0.0678183"
         id="stop3958-3-6" />
      <stop
         offset="1"
         style="stop-color:#000000;stop-opacity:0.02431222"
         id="stop3956-4-0" />
    </radialGradient>
    <linearGradient
       gradientTransform="matrix(0.95958619,0,0,1,-75.741251,27.019518)"
       y2="4"
       x2="73"
       y1="52"
       x1="45"
       gradientUnits="userSpaceOnUse"
       id="linearGradient3335-7"
       xlink:href="#linearGradient4308-6-4"
       inkscape:collect="always" />
    <linearGradient
       gradientUnits="userSpaceOnUse"
       id="linearGradient4308-6-4"
       y2="4"
       x2="73"
       y1="52"
       x1="45">
      <stop
         offset="0"
         style="stop-color:#000000;stop-opacity:0.10677083"
         id="stop4304-4-4" />
      <stop
         offset="1"
         style="stop-color:#000000;stop-opacity:0"
         id="stop4306-3-9" />
    </linearGradient>
    <linearGradient
       gradientTransform="translate(-75.954866,24.617783)"
       y2="36"
       x2="37"
       y1="46.124821"
       x1="48.992088"
       gradientUnits="userSpaceOnUse"
       id="linearGradient3341-2"
       xlink:href="#linearGradient4280-6-9"
       inkscape:collect="always" />
    <linearGradient
       gradientUnits="userSpaceOnUse"
       id="linearGradient4280-6-9"
       y2="36"
       x2="37"
       y1="46.124821"
       x1="48.992088">
      <stop
         offset="0"
         style="stop-color:#cfcfcf;stop-opacity:1"
         id="stop4293-95-9" />
      <stop
         offset="0.2098622"
         style="stop-color:#b7b7b7;stop-opacity:1"
         id="stop4295-8-1" />
      <stop
         offset="1"
         style="stop-color:#c9c9c9;stop-opacity:1"
         id="stop4297-0-3" />
    </linearGradient>
    <linearGradient
       x1="1559.5"
       y1="184"
       x2="1542.0002"
       y2="184"
       id="linearGradient4323"
       xlink:href="#linearGradient8742"
       gradientUnits="userSpaceOnUse"
       gradientTransform="matrix(0.64231409,0,0,5.3877891,-921.29319,-1219.3667)" />
    <linearGradient
       id="linearGradient8742">
      <stop
         id="stop8744"
         style="stop-color:#9200ff;stop-opacity:1"
         offset="0" />
      <stop
         id="stop8746"
         style="stop-color:#ff00ff;stop-opacity:0"
         offset="1" />
    </linearGradient>
    <linearGradient
       x1="453.50003"
       y1="970.5"
       x2="404.49997"
       y2="970.5"
       id="linearGradient4482"
       xlink:href="#linearGradient8663"
       gradientUnits="userSpaceOnUse"
       gradientTransform="matrix(0.79766144,0,0,0.8837332,-298.76866,-801.79907)" />
    <linearGradient
       id="linearGradient8663">
      <stop
         id="stop8665"
         style="stop-color:#9207a7;stop-opacity:1"
         offset="0" />
      <stop
         id="stop8667"
         style="stop-color:#c658bc;stop-opacity:1"
         offset="0.27254906" />
      <stop
         id="stop8669"
         style="stop-color:#a42eb6;stop-opacity:1"
         offset="0.50966245" />
      <stop
         id="stop8671"
         style="stop-color:#b415cd;stop-opacity:1"
         offset="0.83376038" />
      <stop
         id="stop8673"
         style="stop-color:#950ba8;stop-opacity:1"
         offset="1" />
    </linearGradient>
    <radialGradient
       cx="47.995335"
       cy="46.440277"
       r="13.995334"
       fx="47.995335"
       fy="46.440277"
       id="radialGradient4484"
       xlink:href="#linearGradient14494"
       gradientUnits="userSpaceOnUse"
       gradientTransform="matrix(1.4097185,0,0,0.37833329,-24.341572,30.33311)" />
    <linearGradient
       id="linearGradient14494">
      <stop
         id="stop14496"
         style="stop-color:#dc85e9;stop-opacity:1"
         offset="0" />
      <stop
         id="stop14498"
         style="stop-color:#f2cbf8;stop-opacity:1"
         offset="1" />
    </linearGradient>
    <linearGradient
       x1="453.50003"
       y1="970.5"
       x2="404.49997"
       y2="970.5"
       id="linearGradient4462"
       xlink:href="#linearGradient8964"
       gradientUnits="userSpaceOnUse"
       gradientTransform="matrix(0.83955326,0,0,0.8837332,-316.85,-800.87687)" />
    <linearGradient
       id="linearGradient8964">
      <stop
         id="stop8966"
         style="stop-color:#e196fb;stop-opacity:1"
         offset="0" />
      <stop
         id="stop8968"
         style="stop-color:#f4c7fa;stop-opacity:1"
         offset="0.13010512" />
      <stop
         id="stop8970"
         style="stop-color:#e091f3;stop-opacity:1"
         offset="0.31360075" />
      <stop
         id="stop8972"
         style="stop-color:#d764e9;stop-opacity:1"
         offset="0.44078669" />
      <stop
         id="stop8974"
         style="stop-color:#e7adf0;stop-opacity:1"
         offset="0.68364757" />
      <stop
         id="stop8976"
         style="stop-color:#e6a9f8;stop-opacity:1"
         offset="0.75620717" />
      <stop
         id="stop8978"
         style="stop-color:#e595f2;stop-opacity:1"
         offset="0.88021636" />
      <stop
         id="stop8980"
         style="stop-color:#f2cbf8;stop-opacity:1"
         offset="1" />
    </linearGradient>
    <linearGradient
       x1="453.50003"
       y1="970.5"
       x2="404.49997"
       y2="970.5"
       id="linearGradient4460"
       xlink:href="#linearGradient8964"
       gradientUnits="userSpaceOnUse"
       gradientTransform="matrix(0.83955326,0,0,0.8837332,-316.85,-799.92704)" />
    <linearGradient
       x1="453.50003"
       y1="970.5"
       x2="404.49997"
       y2="970.5"
       id="linearGradient4448"
       xlink:href="#linearGradient8964"
       gradientUnits="userSpaceOnUse"
       gradientTransform="matrix(0.83955326,0,0,0.8837332,-316.85,-798.97724)" />
    <linearGradient
       x1="1559.5"
       y1="184"
       x2="1542.0002"
       y2="184"
       id="linearGradient4328"
       xlink:href="#linearGradient8742"
       gradientUnits="userSpaceOnUse"
       gradientTransform="matrix(-0.64231409,0,0,5.3877891,1023.1059,-1219.3667)" />
    <linearGradient
       x1="1510.4767"
       y1="169.00002"
       x2="1485.8766"
       y2="193.9996"
       id="linearGradient4488"
       xlink:href="#linearGradient3737"
       gradientUnits="userSpaceOnUse"
       gradientTransform="matrix(0.55276537,0,0,0.45658517,-783.91373,-34.822728)" />
    <linearGradient
       x1="34"
       y1="50.26075"
       x2="62"
       y2="50.26075"
       id="linearGradient4514"
       xlink:href="#linearGradient3737"
       gradientUnits="userSpaceOnUse"
       gradientTransform="matrix(1.4097185,0,0,1.4839024,-24.341572,-21.009833)" />
    <linearGradient
       x1="34"
       y1="50.26075"
       x2="62"
       y2="50.26075"
       id="linearGradient4518"
       xlink:href="#linearGradient3737"
       gradientUnits="userSpaceOnUse"
       gradientTransform="matrix(1.4097185,0,0,1.4839024,-24.341572,-12.106418)" />
    <linearGradient
       x1="34"
       y1="50.26075"
       x2="62"
       y2="50.26075"
       id="linearGradient4522"
       xlink:href="#linearGradient3737"
       gradientUnits="userSpaceOnUse"
       gradientTransform="matrix(1.4097185,0,0,1.4839024,-24.341572,-3.2030018)" />
    <linearGradient
       inkscape:collect="always"
       xlink:href="#linearGradient8742"
       id="linearGradient3539"
       gradientUnits="userSpaceOnUse"
       gradientTransform="matrix(0.71934014,0,0,5.3431372,-1059.2447,-1163.9789)"
       x1="1559.5"
       y1="184"
       x2="1542.0002"
       y2="184" />
    <linearGradient
       inkscape:collect="always"
       xlink:href="#linearGradient8742"
       id="linearGradient3541"
       gradientUnits="userSpaceOnUse"
       gradientTransform="matrix(-0.71934014,0,0,5.3431372,1147.5049,-1163.9789)"
       x1="1559.5"
       y1="184"
       x2="1542.0002"
       y2="184" />
    <linearGradient
       inkscape:collect="always"
       xlink:href="#linearGradient8742"
       id="linearGradient3545"
       gradientUnits="userSpaceOnUse"
       gradientTransform="matrix(0.71934014,0,0,5.3431372,-1023.7319,-1208.9627)"
       x1="1559.5"
       y1="184"
       x2="1542.0002"
       y2="184" />
    <linearGradient
       y2="54.296875"
       x2="93.5"
       y1="54.296875"
       x1="2.5"
       gradientTransform="matrix(1,0,0,0.94075887,-5e-7,0.59729321)"
       gradientUnits="userSpaceOnUse"
       id="linearGradient4136"
       xlink:href="#linearGradient4160-1"
       inkscape:collect="always" />
  </defs>
  <sodipodi:namedview
     id="base"
     pagecolor="#ffffff"
     bordercolor="#666666"
     borderopacity="1.0"
     inkscape:pageopacity="0.0"
     inkscape:pageshadow="2"
     inkscape:zoom="2.9071883"
     inkscape:cx="-71.578884"
     inkscape:cy="42.907998"
     inkscape:document-units="px"
     inkscape:current-layer="g2574"
     showgrid="false"
     inkscape:showpageshadow="false"
     units="px"
     inkscape:lockguides="true"
     inkscape:window-width="1280"
     inkscape:window-height="972"
     inkscape:window-x="0"
     inkscape:window-y="26"
     inkscape:window-maximized="1"
     inkscape:snap-global="false">
    <sodipodi:guide
       position="0,0"
       orientation="0,96"
       id="guide1621"
       inkscape:locked="true" />
    <sodipodi:guide
       position="96.000002,0"
       orientation="-96,0"
       id="guide1623"
       inkscape:locked="true" />
    <sodipodi:guide
       position="96.000002,96.000002"
       orientation="0,-96"
       id="guide1625"
       inkscape:locked="true" />
    <sodipodi:guide
       position="0,96.000002"
       orientation="96,0"
       id="guide1627"
       inkscape:locked="true" />
  </sodipodi:namedview>
  <metadata
     id="metadata1069">
    <rdf:RDF>
      <cc:Work
         rdf:about="">
        <dc:format>image/svg+xml</dc:format>
        <dc:type
           rdf:resource="http://purl.org/dc/dcmitype/StillImage" />
        <dc:title></dc:title>
        <dc:date>2016</dc:date>
        <dc:creator>
          <cc:Agent>
            <dc:title>Cristian Pozzessere &quot;ilnanny&quot;</dc:title>
          </cc:Agent>
        </dc:creator>
        <dc:subject>
          <rdf:Bag>
            <rdf:li>Global language</rdf:li>
          </rdf:Bag>
        </dc:subject>
        <dc:description>Playing with Inkscape on Gnu/Linux O. S.</dc:description>
        <dc:contributor>
          <cc:Agent>
            <dc:title>In the night, alone like a dog.</dc:title>
          </cc:Agent>
        </dc:contributor>
        <cc:license
           rdf:resource="http://creativecommons.org/licenses/by-sa/4.0/" />
      </cc:Work>
      <cc:License
         rdf:about="http://creativecommons.org/licenses/by-sa/4.0/">
        <cc:permits
           rdf:resource="http://creativecommons.org/ns#Reproduction" />
        <cc:permits
           rdf:resource="http://creativecommons.org/ns#Distribution" />
        <cc:requires
           rdf:resource="http://creativecommons.org/ns#Notice" />
        <cc:requires
           rdf:resource="http://creativecommons.org/ns#Attribution" />
        <cc:permits
           rdf:resource="http://creativecommons.org/ns#DerivativeWorks" />
        <cc:requires
           rdf:resource="http://creativecommons.org/ns#ShareAlike" />
      </cc:License>
    </rdf:RDF>
  </metadata>
  <g
     inkscape:label="Livello 1"
     inkscape:groupmode="layer"
     id="layer1"
     transform="translate(0,-1026.5197)">
    <g
       transform="translate(-0.14895645,1026.1047)"
       style="display:inline"
       id="g2574">
      <path
         inkscape:connector-curvature="0"
         id="path3288"
         d="M 89.29181,0.415026 H 7.0060911 c -3.798848,0 -6.8571352,3.058285 -6.8571352,6.8571399 V 89.557884 c 0,3.798857 3.0582872,6.857142 6.8571352,6.857142 H 89.29181 c 3.798857,0 6.857147,-3.058285 6.857147,-6.857142 V 7.2721659 c 0,-3.7988549 -3.05829,-6.8571399 -6.857147,-6.8571399 z"
         style="display:inline;opacity:0.15;fill:#000000;fill-opacity:1;fill-rule:nonzero;stroke:none" />
      <path
         style="display:inline;opacity:0.15;fill:#000000;fill-opacity:1;fill-rule:nonzero;stroke:none"
         d="M 88.648954,1.165026 H 7.6489471 c -3.739492,0 -6.749993,3.010499 -6.749993,6.7499969 V 88.915026 c 0,3.739501 3.010501,6.75 6.749993,6.75 H 88.648954 c 3.739503,0 6.750003,-3.010499 6.750003,-6.75 V 7.9150229 c 0,-3.7394979 -3.0105,-6.7499969 -6.750003,-6.7499969 z"
         id="path4085"
         inkscape:connector-curvature="0" />
      <path
         inkscape:connector-curvature="0"
         id="rect4251-1"
         d="M 88.006093,1.915026 H 8.2918111 c -3.680143,0 -6.6428566,2.962713 -6.6428566,6.6428549 V 88.272171 c 0,3.680142 2.9627136,6.642856 6.6428566,6.642856 H 88.006093 c 3.680143,0 6.642854,-2.962714 6.642854,-6.642856 V 8.5578809 c 0,-3.6801419 -2.962711,-6.6428549 -6.642854,-6.6428549 z"
         style="display:inline;fill:url(#linearGradient4071);fill-opacity:1;fill-rule:nonzero;stroke:none" />
      <path
         style="color:#000000;font-style:normal;font-variant:normal;font-weight:normal;font-stretch:normal;font-size:medium;line-height:normal;font-family:Sans;-inkscape-font-specification:Sans;text-indent:0;text-align:start;text-decoration:none;text-decoration-line:none;letter-spacing:normal;word-spacing:normal;text-transform:none;writing-mode:lr-tb;direction:ltr;baseline-shift:baseline;text-anchor:start;display:inline;overflow:visible;visibility:visible;fill:#40444a;fill-opacity:1;stroke:none;stroke-width:2.3755002;marker:none;enable-background:accumulate"
         d="m 9.9740341,5.1444869 c -3.116621,0 -5.667965,2.53951 -5.667965,5.6460041 v 69.277996 c 0,3.106495 2.551344,5.646004 5.667965,5.646004 H 86.765819 c 3.116621,0 5.667968,-2.539509 5.667968,-5.646004 V 10.790491 c 0,-3.1064931 -2.551347,-5.6460041 -5.667968,-5.6460041 z m 0,2.319439 H 86.765819 c 1.888099,0 3.352022,1.480095 3.352022,3.3265651 v 69.277996 c 0,1.846474 -1.463923,3.326564 -3.352022,3.326564 H 9.9740341 c -1.888099,0 -3.352022,-1.48009 -3.352022,-3.326564 V 10.790491 c 0,-1.8464701 1.463923,-3.3265651 3.352022,-3.3265651 z"
         id="path4989"
         inkscape:connector-curvature="0" />
      <path
         id="path4118"
         d="m 1.6489535,82.258776 v 6 c 0,3.680142 2.9761066,6.65625 6.6562496,6.65625 H 87.992703 c 3.680143,0 6.656254,-2.976108 6.656254,-6.65625 v -6 c 0,3.680142 -2.976111,6.65625 -6.656254,6.65625 H 8.3052031 c -3.680143,0 -6.6562496,-2.976108 -6.6562496,-6.65625 z"
         style="display:inline;opacity:0.65818182;fill:url(#linearGradient4129);fill-opacity:1;fill-rule:nonzero;stroke:none"
         inkscape:connector-curvature="0" />
      <g
         transform="matrix(0.90485491,0,0,0.87734162,4.7159298,3.5971383)"
         style="display:inline"
         id="g1131">
        <rect
           transform="matrix(1,0,0,0.94562814,29.042338,-24.643143)"
           style="opacity:0.55;fill:url(#radialGradient5867);fill-opacity:1;stroke:none"
           id="rect4131-3"
           width="89.456207"
           height="4.9561129"
           x="-26.301346"
           y="117.83126"
           rx="0"
           ry="4.9561129" />
        <path
           transform="matrix(1,0,0,0.94562814,29.042338,-24.643143)"
           inkscape:connector-curvature="0"
           style="opacity:0;fill:#000000;fill-opacity:1;stroke:none"
           d="m -23.394945,30.240449 c -2.207575,0 -3.982409,1.762703 -3.982409,3.95519 v 12.053915 c 0,-2.192488 1.774834,-3.955191 3.982409,-3.955191 h 84.705191 c 2.207572,0 3.982412,1.762703 3.982412,3.955191 V 34.195639 c 0,-2.192487 -1.77484,-3.95519 -3.982412,-3.95519 z"
           id="rect4080" />
        <rect
           transform="matrix(1,0,0,-0.94562814,29.042338,-24.643143)"
           style="fill:url(#linearGradient5871);fill-opacity:1;stroke:#738589;stroke-width:1.00031602;stroke-miterlimit:4;stroke-dasharray:none;stroke-opacity:1"
           id="rect4133"
           width="92.045486"
           height="91.217758"
           x="-27.065086"
           y="-121.96702"
           rx="3.9589436"
           ry="3.9233429" />
        <path
           transform="matrix(1,0,0,0.94562814,29.042338,-24.643143)"
           id="path4060"
           d="m -23.093973,38.517005 c -2.193234,0 -3.970674,1.769321 -3.970674,3.952535 v 3.983657 c 0,-2.183214 1.77744,-3.952535 3.970674,-3.952535 h 84.103249 c 2.19323,0 3.970672,1.769321 3.970672,3.952535 V 42.46954 c 0,-2.183214 -1.777442,-3.952535 -3.970672,-3.952535 z"
           style="fill:#e4e8e8;fill-opacity:1;stroke:#738589;stroke-width:1.00031602;stroke-miterlimit:4;stroke-dasharray:none;stroke-opacity:1"
           inkscape:connector-curvature="0" />
        <path
           transform="matrix(1,0,0,0.94562814,29.042338,-24.643143)"
           inkscape:connector-curvature="0"
           style="fill:#e4e8e8;fill-opacity:1;stroke:#738589;stroke-width:1.00031602;stroke-miterlimit:4;stroke-dasharray:none;stroke-opacity:1"
           d="m -23.093973,34.533774 c -2.193234,0 -3.970674,1.76932 -3.970674,3.952533 v 3.983656 c 0,-2.183213 1.77744,-3.952533 3.970674,-3.952533 h 84.103249 c 2.19323,0 3.970672,1.76932 3.970672,3.952533 v -3.983656 c 0,-2.183213 -1.777442,-3.952533 -3.970672,-3.952533 z"
           id="path4062" />
        <path
           transform="matrix(1,0,0,0.94562814,29.042338,-24.643143)"
           id="path4351"
           d="m -23.093973,30.533774 c -2.193234,0 -3.970674,1.76932 -3.970674,3.952533 v 3.983656 c 0,-2.183213 1.77744,-3.952533 3.970674,-3.952533 h 84.103249 c 2.19323,0 3.970672,1.76932 3.970672,3.952533 v -3.983656 c 0,-2.183213 -1.777442,-3.952533 -3.970672,-3.952533 z"
           style="fill:#e4e8e8;fill-opacity:1;stroke:#738589;stroke-width:1.00031602;stroke-miterlimit:4;stroke-dasharray:none;stroke-opacity:1"
           inkscape:connector-curvature="0" />
        <path
           transform="matrix(1,0,0,0.94562814,29.042338,-24.643143)"
           style="opacity:0.25818182;fill:url(#linearGradient5875);fill-opacity:1;stroke:none"
           d="m -23.110487,30.742695 c -2.193255,0 -3.950802,1.750269 -3.950802,3.923801 v 13.058407 c 0,-2.173532 2.111063,-4.806126 4.304314,-4.80154 l 83.959531,0.175548 c 2.19324,0.0046 3.774032,2.45246 3.774032,4.625992 V 34.666496 c 0,-2.173532 -1.757552,-3.923801 -3.950802,-3.923801 z"
           id="rect4358"
           inkscape:connector-curvature="0"
           sodipodi:nodetypes="sscsscsss" />
        <g
           id="g4111"
           transform="matrix(1.4386579,0,0,1.3604354,116.85349,-30.525372)">
          <path
             style="fill:url(#radialGradient4210);fill-opacity:1;fill-rule:nonzero"
             id="path4253"
             d="m -79.857685,34.123204 h 61.801301 v 1.900651 h -61.801301 z"
             inkscape:connector-curvature="0" />
          <g
             id="g4178">
            <path
               inkscape:connector-curvature="0"
               d="m -20.164741,62.19609 3.406405,3.492737 V 87.518433 H -40.87788 Z"
               id="path3934"
               style="fill:url(#radialGradient3333-6);fill-rule:nonzero" />
            <path
               inkscape:connector-curvature="0"
               d="m -18.166079,29.019518 v 31 l -23.989655,29 h 1.919172 l 22.820159,-28.34375 0.20991,-0.28125 v -0.375 -30 z"
               id="path3922"
               style="fill:url(#linearGradient3335-7);fill-rule:nonzero" />
            <path
               inkscape:connector-curvature="0"
               d="m -41.954866,88.617783 26,-31 c -2.328567,2.776369 -4.36141,3 -11,3 h -12 v 15 c 0,6.644068 0.04437,9.370179 -3,13 z"
               id="path4278"
               style="fill:url(#linearGradient3341-2);fill-rule:nonzero" />
            <path
               d="m -16.054215,57.668542 c -2.328567,2.776369 -4.36141,3 -11,3 h -12 v 15 c 0,6.644068 0.04437,9.370179 -3,13 4,-5 4.000382,-8.356667 4,-13 v -14 h 11 c 5,0 8.041405,-0.381883 11,-4 z"
               id="path4282"
               style="fill:#ffffff;fill-opacity:0.77120146;fill-rule:nonzero"
               inkscape:connector-curvature="0" />
          </g>
        </g>
        <g
           id="layer7"
           style="display:inline"
           transform="matrix(0.67581043,0,0,0.75677108,17.042916,-10.211467)">
          <path
             d="m 69.797526,36 v 2.53543 h 9.634711 V 36 Z m 0,5.07086 v 2.535431 h 9.634711 V 41.07086 Z m 0,5.070861 v 2.535429 h 9.634711 v -2.535429 z m 0,5.07086 v 2.53543 h 9.634711 v -2.53543 z m 0,5.07086 v 2.535431 h 9.634711 v -2.535431 z m 0,5.070861 v 2.535429 h 9.634711 v -2.535429 z m 0,5.07086 v 2.53543 h 9.634711 v -2.53543 z m 0,5.07086 v 2.535431 h 9.634711 v -2.535431 z m 0,5.070862 v 2.535428 h 9.634711 v -2.535428 z"
             inkscape:connector-curvature="0"
             id="path4307"
             style="color:#000000;display:inline;overflow:visible;visibility:visible;opacity:0.2;fill:url(#linearGradient4323);fill-opacity:1;fill-rule:nonzero;stroke:none;stroke-width:0.94888526;marker:none" />
          <path
             d="m 43.434334,39.644683 c -0.62333,0 -1.123263,0.03672 -1.548654,0.04637 a 2.6981974,2.9893467 0 0 0 -0.04185,0 c -3.795963,0.119454 -8.07228,0.590462 -12.431091,1.669389 -2.078921,0.51459 -3.713034,1.415511 -4.855241,2.225854 -0.735175,0.521512 -1.423905,1.057014 -2.009066,2.133111 a 2.6981974,2.9893467 0 0 0 -0.125566,0.231859 c -0.05995,0.101012 -0.0507,-4.64e-4 -0.167423,0.324604 -0.184252,0.513215 -0.251132,1.202212 -0.251132,1.623022 0,-0.187938 -0.06849,-0.05439 0,0.556462 a 2.6981974,2.9893467 0 0 0 0,0.04638 c 0.009,0.07678 -0.01678,-0.02333 0,0.09275 a 2.6981974,2.9893467 0 0 0 0.08372,0.278232 c 0.03888,0.169771 0.117034,0.26433 0.16742,0.417347 a 2.6981974,2.9893467 0 0 0 0,0.04638 2.6981974,2.9893467 0 0 0 -0.251132,1.298419 v 5.703751 c 0,0.07411 -0.127669,0.640421 0.125566,1.623018 0.03322,0.128862 0.127294,0.16026 0.167423,0.278233 a 2.6981974,2.9893467 0 0 0 -0.292989,1.344786 c 0,2.023927 -0.01415,4.051856 0,6.121098 0.0023,0.337047 0.0122,0.66132 0.167421,1.205671 0.02194,0.07715 0.100484,0.110866 0.125568,0.185487 a 2.6981974,2.9893467 0 0 0 -0.292989,1.391159 v 6.121098 c 0,2.21572 1.287422,3.461061 2.553187,4.358963 1.295108,0.918781 2.855233,1.570715 4.729673,2.13311 3.75037,1.125337 8.690818,1.762136 14.147168,1.762136 5.456327,0 10.396811,-0.636866 14.147168,-1.762136 1.874276,-0.562408 3.434395,-1.214143 4.729674,-2.13311 1.265855,-0.897904 2.553187,-2.143248 2.553187,-4.358963 v -0.46372 -5.657378 a 2.6981974,2.9893467 0 0 0 -0.292989,-1.391158 c 0.04263,-0.136876 0.174515,-0.174046 0.209278,-0.324603 0.0036,-0.0155 -0.0035,-0.03074 0,-0.04637 0.188975,-0.878659 0.08371,-1.301164 0.08371,-1.483906 V 59.58465 A 2.6981974,2.9893467 0 0 0 64.57139,58.193492 c 0.04137,-0.133077 0.175919,-0.180123 0.209278,-0.324605 0.0035,-0.01487 -0.0033,-0.03139 0,-0.04637 0.18898,-0.878668 0.08371,-1.301163 0.08371,-1.483904 v -5.703751 a 2.6981974,2.9893467 0 0 0 -0.251121,-1.252041 c 0.0087,-0.02534 0.0333,-0.02058 0.04187,-0.04638 a 2.6981974,2.9893467 0 0 0 0.08371,-0.23186 c 2.3e-5,-9.1e-5 -8.93e-4,-0.0414 0,-0.04636 0.0039,-0.01668 -0.0037,-0.02986 0,-0.04638 0.01843,-0.103655 0.07681,-0.401774 0.08371,-0.510091 0.0018,-0.0149 -0.0014,-0.03156 0,-0.04637 0.0053,-0.09474 6.3e-4,-0.135391 0,-0.185488 -4.89e-4,-0.03041 7.14e-4,-0.02512 0,-0.04638 -0.002,-0.107431 -4.11e-4,-0.145569 0,-0.139115 0.0019,-0.05856 0.04185,-0.12757 0.04185,-0.185501 0,-0.403604 -0.167977,-0.59666 -0.251133,-0.927438 0.0051,0.126962 0.04809,0.272609 0.04187,0.370976 0.02362,-0.385633 -0.122928,-1.110288 -0.418556,-1.715763 l 0.04185,-0.04637 c -0.0687,-0.127037 -0.0287,-0.05109 -0.08372,-0.139115 -0.01974,-0.03343 -0.02054,-0.06019 -0.04186,-0.09275 l -0.04185,0.04638 c -0.0768,-0.111104 -0.07815,-0.185842 -0.125568,-0.23186 -0.01342,-0.01847 -0.02833,-0.02822 -0.04186,-0.04637 -0.482334,-0.648009 -1.011854,-1.119745 -1.590508,-1.530275 -1.277979,-0.906605 -2.867289,-1.608084 -4.77153,-2.179481 -2.319784,-0.696077 -5.142253,-1.23624 -8.245539,-1.530276 -0.138453,-0.01321 0.01063,0.0035 -0.04185,0 -0.104861,-0.0072 -0.313725,-0.02078 -0.08371,0 -0.535665,-0.04713 -1.131755,-0.101081 -1.757933,-0.139116 -0.180523,-0.01098 -0.02707,-3.74e-4 -0.04185,0 -0.01481,3.77e-4 -0.197689,-0.0095 -0.04185,0 a 2.6981974,2.9893467 0 0 0 -0.04185,0 c -0.706496,-0.04089 -1.286177,-0.03009 -1.841642,-0.04637 -0.176304,-0.0052 -0.190038,-0.0043 -0.04185,0 -0.605289,-0.01738 -1.291101,-0.04638 -2.009067,-0.04638 z"
             id="path4480"
             style="color:#000000;display:inline;overflow:visible;visibility:visible;opacity:0.72916667;fill:url(#linearGradient4482);fill-opacity:1;fill-rule:nonzero;stroke:none;stroke-width:1.89777052;marker:none"
             inkscape:connector-curvature="0" />
          <path
             d="m 43.318362,42.608111 c -0.539533,0 -1.071803,0.0162 -1.600398,0.02761 -3.831999,0.114573 -8.147234,0.613005 -12.527708,1.643192 -1.819312,0.427858 -3.247248,1.145538 -4.210883,1.795082 -0.602302,0.405936 -1.017115,0.810152 -1.233095,1.187516 -0.01729,0.03768 -0.03815,0.07256 -0.05247,0.110466 -0.06735,0.178259 -0.104946,0.355506 -0.104946,0.538533 0,0.05678 0.0065,0.109568 0.01311,0.165702 0.0019,0.0089 -0.0019,0.01873 0,0.02761 0.0013,0.0093 -0.0014,0.01834 0,0.02761 0.226309,0.938772 1.347794,1.654225 2.190709,2.098868 1.010486,0.533022 2.033251,0.932536 3.213913,1.256556 5.088071,1.374648 10.607903,1.792412 16.174521,1.698427 4.023098,-0.108566 8.206862,-0.526066 12.396528,-1.670808 1.22709,-0.33529 2.587546,-0.850174 3.725518,-1.532725 0.606149,-0.363618 1.422329,-0.912113 1.692224,-1.684618 0.0025,-0.0097 0.01067,-0.01784 0.01311,-0.02761 0.03039,-0.119499 0.03933,-0.236692 0.03933,-0.359016 0,-0.259014 -0.06326,-0.51038 -0.196769,-0.759458 -0.0087,-0.01336 -0.01701,-0.02814 -0.02624,-0.04143 -0.01649,-0.02899 -0.04736,-0.05401 -0.0656,-0.08284 -0.236629,-0.309541 -0.59386,-0.628004 -1.075678,-0.952775 -0.96364,-0.649502 -2.411598,-1.28212 -4.210886,-1.795086 -2.249137,-0.641202 -5.051025,-1.142644 -8.185643,-1.422255 -0.03446,-0.0031 -0.07037,-0.01086 -0.104936,-0.0138 -0.592147,-0.0495 -1.195674,-0.08976 -1.810285,-0.124276 -0.02568,-0.0015 -0.05297,0.0015 -0.0787,0 -0.629266,-0.03461 -1.2657,-0.06476 -1.915233,-0.08284 -0.01284,-3.61e-4 -0.0264,3.59e-4 -0.03936,0 -0.663206,-0.01811 -1.339113,-0.02761 -2.020133,-0.02761 z"
             inkscape:connector-curvature="0"
             id="path4458"
             style="color:#000000;display:inline;overflow:visible;visibility:visible;fill:url(#radialGradient4484);fill-opacity:1;fill-rule:nonzero;stroke:none;stroke-width:1.89777052;marker:none" />
          <path
             d="m 23.601978,50.655409 v 5.689033 c 0,0.263661 -0.01541,0.509229 0.05246,0.759458 0.07497,0.276389 0.246492,0.598399 0.550956,0.897541 1.322338,1.284506 3.156176,1.809025 4.984848,2.416459 4.261532,1.173643 9.332306,1.631925 14.141226,1.670809 4.45618,-0.0068 9.360872,-0.446419 14.075635,-1.657001 1.326872,-0.377575 2.827657,-0.895132 4.197767,-1.73985 0.829058,-0.511151 1.288945,-1.099563 1.403628,-1.587958 0.05247,-0.220005 0.05247,-0.502337 0.05247,-0.759458 v -5.689033 c -1.376405,1.41278 -3.445926,2.113205 -5.391505,2.692626 -3.931627,1.170814 -8.217339,1.502102 -12.46212,1.643191 C 39.95713,55.153169 34.494617,54.691263 28.993488,53.348035 27.62745,52.997366 25.940662,52.338434 24.559597,51.456293 24.186539,51.217994 23.8677,50.935996 23.60198,50.655409 Z"
             inkscape:connector-curvature="0"
             id="path4456"
             style="color:#000000;display:inline;overflow:visible;visibility:visible;fill:url(#linearGradient4462);fill-opacity:1;fill-rule:nonzero;stroke:none;stroke-width:1.89777052;marker:none" />
          <path
             d="m 23.601978,59.572635 c 0,2.039037 -0.01469,4.078097 0,6.117091 6.74e-4,0.09553 0.021,0.212603 0.05246,0.31759 0.08206,0.27418 0.244016,0.601227 0.550956,0.897544 0.453023,0.437357 1.017203,0.848935 1.626634,1.14609 3.575827,1.728008 7.325062,2.13594 11.543857,2.678816 1.878923,0.18638 3.879368,0.262358 5.955583,0.262358 4.104953,-0.0062 8.101102,-0.35186 12.462119,-1.24275 1.87661,-0.429318 4.01107,-1.042407 5.811283,-2.1541 0.815039,-0.535542 1.288945,-1.099562 1.403628,-1.587958 0.05247,-0.220006 0.05247,-0.502334 0.05247,-0.759458 v -5.675223 c -0.183692,0.178426 -0.936565,0.821298 -1.416745,1.07705 -1.2621,0.672166 -2.931216,1.29902 -4.486363,1.72604 -4.392124,1.186941 -9.060502,1.443665 -13.826393,1.546534 -4.737684,-0.0097 -9.006687,-0.394985 -13.826393,-1.546534 -1.74241,-0.455829 -3.743233,-1.135708 -5.352152,-2.305991 -0.200485,-0.159294 -0.388041,-0.327422 -0.550957,-0.497099 z"
             inkscape:connector-curvature="0"
             id="path4454"
             style="color:#000000;display:inline;overflow:visible;visibility:visible;fill:url(#linearGradient4460);fill-opacity:1;fill-rule:nonzero;stroke:none;stroke-width:1.89777052;marker:none" />
          <path
             d="m 23.601978,68.476048 v 6.117091 c 0,0.572703 0.42939,1.21635 1.390512,1.864126 0.961119,0.64782 2.400617,1.255166 4.197766,1.767464 3.594296,1.024689 8.607855,1.67081 14.141224,1.67081 5.533328,0 10.546889,-0.646165 14.141227,-1.67081 1.797106,-0.512343 3.236644,-1.119601 4.197765,-1.767464 0.961122,-0.647734 1.39051,-1.291423 1.39051,-1.864126 v -0.441866 -5.675225 c -0.308662,0.301397 -0.617974,0.583397 -1.010087,0.828499 -1.463594,0.90976 -3.122109,1.46839 -4.89302,1.974593 -4.402744,1.154862 -9.05408,1.465318 -13.826395,1.546532 -1.919763,5.76e-4 -3.949532,-0.08319 -6.02117,-0.262358 -3.434655,-0.304091 -7.744628,-0.95116 -11.386441,-2.540732 -0.794805,-0.351373 -1.664687,-0.865618 -2.321891,-1.546534 z"
             inkscape:connector-curvature="0"
             id="path11957"
             style="color:#000000;display:inline;overflow:visible;visibility:visible;fill:url(#linearGradient4448);fill-opacity:1;fill-rule:nonzero;stroke:none;stroke-width:1.89777052;marker:none" />
          <path
             d="m 22.380449,36 v 2.53543 H 32.01516 V 36 Z m 0,5.07086 v 2.535431 H 32.01516 V 41.07086 Z m 0,5.070861 v 2.535429 h 9.634711 v -2.535429 z m 0,5.07086 v 2.53543 h 9.634711 v -2.53543 z m 0,5.07086 v 2.535431 h 9.634711 v -2.535431 z m 0,5.070861 v 2.535429 h 9.634711 v -2.535429 z m 0,5.07086 v 2.53543 h 9.634711 v -2.53543 z m 0,5.07086 v 2.535431 h 9.634711 v -2.535431 z m 0,5.070862 v 2.535428 h 9.634711 v -2.535428 z"
             inkscape:connector-curvature="0"
             id="path4326"
             style="color:#000000;display:inline;overflow:visible;visibility:visible;opacity:0.2;fill:url(#linearGradient4328);fill-opacity:1;fill-rule:nonzero;stroke:none;stroke-width:0.94888526;marker:none" />
          <path
             d="m 35.130931,43.215324 c -1.941687,0.263058 -3.93775,0.593966 -5.947249,1.066555 -0.820733,0.193016 -1.547947,0.417461 -2.202685,0.695578 l 16.035549,2.875062 z m 7.885615,4.637195 8.282097,4.869054 h 0.04405 c 2.05851,-0.261014 4.17526,-0.637251 6.255627,-1.20567 0.673491,-0.184023 1.375521,-0.451698 2.070526,-0.741951 L 43.016549,47.852519 Z"
             inkscape:connector-curvature="0"
             id="path4486"
             style="display:inline;opacity:0.3;fill:url(#linearGradient4488);fill-opacity:1;stroke:none;stroke-width:0.94888526" />
          <path
             d="m 23.588861,50.634835 v 1.483903 c 0.26572,0.280587 0.596124,0.596396 0.969181,0.834695 1.381065,0.882142 3.083388,1.550584 4.449425,1.90125 5.50113,1.343229 10.961535,1.784961 16.211764,1.623019 4.244782,-0.141089 8.535573,-0.452204 12.467199,-1.623019 1.945582,-0.579421 3.998147,-1.323164 5.374552,-2.735945 v -1.483903 c -1.376405,1.412783 -3.42897,2.156525 -5.374552,2.735946 -3.931626,1.170814 -8.222417,1.48193 -12.467199,1.623018 -5.250229,0.161943 -10.710634,-0.279788 -16.211764,-1.623018 -1.366037,-0.350667 -3.06836,-1.019108 -4.449425,-1.90125 -0.373057,-0.2383 -0.703461,-0.554109 -0.969181,-0.834696 z"
             inkscape:connector-curvature="0"
             id="path4499"
             style="color:#000000;display:inline;overflow:visible;visibility:visible;opacity:0.5;fill:url(#linearGradient4514);fill-opacity:1;fill-rule:nonzero;stroke:none;stroke-width:1.89777052;marker:none" />
          <path
             d="m 23.588861,59.538251 v 1.483903 c 0.26572,0.280586 0.596124,0.596395 0.969181,0.834694 1.381065,0.882142 3.083388,1.550583 4.449425,1.90125 5.50113,1.34323 10.961535,1.784962 16.211764,1.623018 4.244782,-0.141089 8.535573,-0.452204 12.467199,-1.623018 1.945582,-0.579421 3.998147,-1.323163 5.374552,-2.735944 v -1.483903 c -1.376405,1.412781 -3.42897,2.156525 -5.374552,2.735944 -3.931626,1.170815 -8.222417,1.48193 -12.467199,1.62302 -5.250229,0.161943 -10.710634,-0.27979 -16.211764,-1.62302 -1.366037,-0.350666 -3.06836,-1.019108 -4.449425,-1.901249 -0.373057,-0.238299 -0.703461,-0.554108 -0.969181,-0.834695 z"
             inkscape:connector-curvature="0"
             id="path4516"
             style="color:#000000;display:inline;overflow:visible;visibility:visible;opacity:0.5;fill:url(#linearGradient4518);fill-opacity:1;fill-rule:nonzero;stroke:none;stroke-width:1.89777052;marker:none" />
          <path
             d="m 23.588861,68.441665 v 1.483903 c 0.26572,0.280587 0.596124,0.596396 0.969181,0.834696 1.381065,0.88214 3.083388,1.550582 4.449425,1.90125 5.50113,1.343228 10.961535,1.784961 16.211764,1.623018 4.244782,-0.141089 8.535573,-0.452205 12.467199,-1.623018 1.945582,-0.579421 3.998147,-1.323165 5.374552,-2.735946 v -1.483903 c -1.376405,1.412781 -3.42897,2.156526 -5.374552,2.735946 -3.931626,1.170815 -8.222417,1.481929 -12.467199,1.623019 -5.250229,0.161942 -10.710634,-0.27979 -16.211764,-1.623019 -1.366037,-0.350667 -3.06836,-1.019109 -4.449425,-1.901249 -0.373057,-0.238302 -0.703461,-0.554109 -0.969181,-0.834697 z"
             inkscape:connector-curvature="0"
             id="path4520"
             style="color:#000000;display:inline;overflow:visible;visibility:visible;opacity:0.5;fill:url(#linearGradient4522);fill-opacity:1;fill-rule:nonzero;stroke:none;stroke-width:1.89777052;marker:none" />
          <path
             d="m 43.324922,41.128586 c -0.539533,0 -1.057338,0.03496 -1.585934,0.04638 -3.832,0.114573 -8.174833,0.592831 -12.555306,1.623018 -1.819311,0.427859 -3.221465,1.158961 -4.185102,1.808505 -0.602302,0.405938 -1.017524,0.781937 -1.233505,1.1593 -0.01729,0.03768 -0.07378,0.101212 -0.08811,0.139116 -0.06735,0.178261 -0.08811,0.327065 -0.08811,0.510094 0,0.05678 -0.0066,0.129352 0,0.185488 0.0013,0.0093 -0.0014,0.0371 0,0.04637 0.04474,0.185533 0.158726,0.342369 0.264323,0.510092 0.229046,-0.347558 0.597401,-0.697218 1.145396,-1.066555 0.963637,-0.649544 2.365791,-1.380649 4.185101,-1.808506 4.380474,-1.030186 8.723309,-1.508447 12.555309,-1.623018 0.528595,-0.01146 1.0464,-0.04637 1.585932,-0.04637 0.68102,0 1.363263,0.02827 2.026471,0.04637 0.01297,3.56e-4 0.03122,-3.63e-4 0.04406,0 0.649533,0.01809 1.265046,0.01169 1.894309,0.04637 0.02574,0.0015 0.06241,-0.0015 0.08811,0 0.614609,0.03451 1.214053,0.08961 1.806202,0.139115 0.03457,0.003 0.05362,-0.0031 0.08811,0 3.13462,0.279611 5.944853,0.796329 8.19399,1.437532 1.799288,0.512964 3.265516,1.159006 4.229157,1.808507 0.481819,0.32477 0.82066,0.617897 1.057288,0.927437 0.01821,0.02884 0.07162,0.06376 0.08811,0.09275 0.05619,-0.09833 0.138901,-0.171443 0.176215,-0.278231 0.0026,-0.0097 -0.0024,-0.03659 0,-0.04638 0.03039,-0.119498 0.04405,-0.24865 0.04405,-0.370974 0,-0.259011 -0.08674,-0.492873 -0.220267,-0.74195 -0.0087,-0.01336 0.0091,-0.03308 0,-0.04638 -0.01649,-0.02899 -0.06987,-0.06391 -0.08811,-0.09275 -0.236627,-0.309539 -0.57547,-0.602667 -1.057289,-0.927438 -0.963641,-0.649503 -2.429868,-1.295543 -4.229156,-1.808507 -2.249137,-0.641203 -5.05937,-1.15792 -8.19399,-1.437531 -0.03448,-0.0031 -0.05355,0.003 -0.08811,0 -0.592149,-0.0495 -1.191592,-0.104598 -1.806202,-0.139116 -0.02569,-0.0015 -0.06238,0.0015 -0.08811,0 -0.629263,-0.03461 -1.244776,-0.02828 -1.894312,-0.04637 -0.01283,-3.61e-4 -0.03108,3.55e-4 -0.04405,0 -0.663206,-0.01811 -1.345451,-0.04638 -2.02647,-0.04638 z"
             inkscape:connector-curvature="0"
             id="path4524"
             style="color:#000000;display:inline;overflow:visible;visibility:visible;opacity:0.2;fill:#ffffff;fill-opacity:1;fill-rule:nonzero;stroke:none;stroke-width:1.89777052;marker:none" />
          <path
             style="color:#000000;display:inline;overflow:visible;visibility:visible;opacity:0.2;fill:url(#linearGradient3539);fill-opacity:1;fill-rule:nonzero;stroke:none;stroke-width:1;marker:none"
             id="path3535"
             inkscape:connector-curvature="0"
             d="m 50.697134,80.984034 v 2.514418 h 10.790102 v -2.514418 z m 0,5.028835 v 2.514418 h 10.790102 v -2.514418 z m 0,5.028835 v 2.514417 h 10.790102 v -2.514417 z m 0,5.028835 v 2.514418 h 10.790102 v -2.514418 z m 0,5.028831 v 2.51442 h 10.790102 v -2.51442 z m 0,5.02883 v 2.51442 h 10.790102 v -2.51442 z m 0,5.02883 v 2.51442 h 10.790102 v -2.51442 z m 0,5.02883 v 2.51442 h 10.790102 v -2.51442 z m 0,5.02883 v 2.51441 h 10.790102 v -2.51441 z" />
          <path
             style="color:#000000;display:inline;overflow:visible;visibility:visible;opacity:0.2;fill:url(#linearGradient3541);fill-opacity:1;fill-rule:nonzero;stroke:none;stroke-width:1;marker:none"
             id="path3537"
             inkscape:connector-curvature="0"
             d="m 26.772889,80.984034 v 2.514418 h 10.790102 v -2.514418 z m 0,5.028835 v 2.514418 h 10.790102 v -2.514418 z m 0,5.028835 v 2.514417 h 10.790102 v -2.514417 z m 0,5.028835 v 2.514418 h 10.790102 v -2.514418 z m 0,5.028831 v 2.51442 h 10.790102 v -2.51442 z m 0,5.02883 v 2.51442 h 10.790102 v -2.51442 z m 0,5.02883 v 2.51442 h 10.790102 v -2.51442 z m 0,5.02883 v 2.51442 h 10.790102 v -2.51442 z m 0,5.02883 v 2.51441 h 10.790102 v -2.51441 z" />
          <path
             d="m 86.210054,36 v 2.514418 H 97.000156 V 36 Z m 0,5.028835 v 2.514418 h 10.790102 v -2.514418 z m 0,5.028835 v 2.514417 H 97.000156 V 46.05767 Z m 0,5.028835 v 2.514418 h 10.790102 v -2.514418 z m 0,5.028831 v 2.514423 h 10.790102 v -2.514423 z m 0,5.028836 v 2.514423 h 10.790102 v -2.514423 z m 0,5.028836 v 2.514423 h 10.790102 v -2.514423 z m 0,5.028836 v 2.514423 h 10.790102 v -2.514423 z m 0,5.028836 v 2.514413 H 97.000156 V 76.23068 Z"
             inkscape:connector-curvature="0"
             id="path3543"
             style="color:#000000;display:inline;overflow:visible;visibility:visible;opacity:0.2;fill:url(#linearGradient3545);fill-opacity:1;fill-rule:nonzero;stroke:none;stroke-width:1;marker:none" />
        </g>
        <path
           inkscape:connector-curvature="0"
           style="opacity:0.27999998;fill:url(#linearGradient4136);fill-opacity:1;stroke:none;stroke-width:0.96992725"
           d="m 6.4062495,14.796873 c -2.168522,0 -3.90625,1.639216 -3.90625,3.674839 v 66.4117 c 0,2.035624 1.737728,3.67484 3.90625,3.67484 H 89.59375 c 2.16852,0 3.90625,-1.639216 3.90625,-3.67484 v -66.4117 c 0,-2.035623 -1.73773,-3.674839 -3.90625,-3.674839 z"
           id="rect4371"
           inkscape:transform-center-x="-35.678407"
           inkscape:transform-center-y="-96.439647" />
      </g>
      <rect
         ry="4.25"
         rx="0"
         y="80.665031"
         x="5.5239539"
         height="4.25"
         width="84.250008"
         id="rect4131"
         style="opacity:0.55;fill:url(#radialGradient7462);fill-opacity:1;stroke:none" />
      <rect
         clip-path="url(#clipPath4156-4-1)"
         ry="3.9569881"
         rx="3.9569874"
         y="-30"
         x="2"
         height="69.024437"
         width="75.965775"
         id="rect4146"
         style="opacity:0.5078125;fill:url(#linearGradient4767);fill-opacity:1;stroke:none"
         transform="matrix(1.0692451,0,0,1.0476829,4.4441802,38.894013)" />
    </g>
  </g>
</svg>
