<?xml version="1.0" encoding="UTF-8" standalone="no"?>
<!-- Created with Inkscape (http://www.inkscape.org/) -->

<svg
   xmlns:dc="http://purl.org/dc/elements/1.1/"
   xmlns:cc="http://creativecommons.org/ns#"
   xmlns:rdf="http://www.w3.org/1999/02/22-rdf-syntax-ns#"
   xmlns:svg="http://www.w3.org/2000/svg"
   xmlns="http://www.w3.org/2000/svg"
   xmlns:xlink="http://www.w3.org/1999/xlink"
   xmlns:sodipodi="http://sodipodi.sourceforge.net/DTD/sodipodi-0.dtd"
   xmlns:inkscape="http://www.inkscape.org/namespaces/inkscape"
   width="96"
   height="96"
   viewBox="0 0 96.000001 96.000004"
   version="1.1"
   id="svg1072"
   inkscape:version="0.92.1 r15371"
   sodipodi:docname="lives.svg">
  <defs
     id="defs1066">
    <linearGradient
       y2="47.000011"
       x2="90"
       y1="47.000011"
       x1="6"
       gradientTransform="matrix(1.1071428,0,0,1.1071426,-4.9939026,-3.620687)"
       gradientUnits="userSpaceOnUse"
       id="linearGradient4071"
       xlink:href="#linearGradient6139-0"
       inkscape:collect="always" />
    <linearGradient
       id="linearGradient6139-0">
      <stop
         style="stop-color:#b4b9ba;stop-opacity:1"
         offset="0"
         id="stop6141-2" />
      <stop
         id="stop6151-0"
         offset="0.25"
         style="stop-color:#ffffff;stop-opacity:1;" />
      <stop
         id="stop6147-1"
         offset="0.5"
         style="stop-color:#98a0a2;stop-opacity:1" />
      <stop
         style="stop-color:#fbf9f9;stop-opacity:1;"
         offset="0.75"
         id="stop6149-4" />
      <stop
         style="stop-color:#b4b8ba;stop-opacity:1"
         offset="1"
         id="stop6143-4" />
    </linearGradient>
    <linearGradient
       gradientUnits="userSpaceOnUse"
       y2="88.171875"
       x2="94.5"
       y1="88.171875"
       x1="1.5"
       id="linearGradient4129"
       xlink:href="#linearGradient3832-0-6-1-1"
       inkscape:collect="always"
       gradientTransform="translate(0.1489535,0.415026)" />
    <linearGradient
       id="linearGradient3832-0-6-1-1">
      <stop
         id="stop3834-6-3-7-1"
         offset="0"
         style="stop-color:#000000;stop-opacity:1;" />
      <stop
         style="stop-color:#000000;stop-opacity:0.58823532;"
         offset="0.1"
         id="stop3872-2-4" />
      <stop
         id="stop3844-6-2-7-6"
         offset="0.89999998"
         style="stop-color:#000000;stop-opacity:0.58823532;" />
      <stop
         id="stop3836-5-0-2-9"
         offset="1"
         style="stop-color:#000000;stop-opacity:1;" />
    </linearGradient>
    <radialGradient
       r="43.199203"
       fy="44.892841"
       fx="13.948145"
       cy="44.892841"
       cx="13.948145"
       gradientTransform="matrix(0.97513378,0,0,0.04919072,34.047649,80.581722)"
       gradientUnits="userSpaceOnUse"
       id="radialGradient7462"
       xlink:href="#linearGradient3737"
       inkscape:collect="always" />
    <linearGradient
       id="linearGradient3737">
      <stop
         id="stop3739"
         style="stop-color:#ffffff;stop-opacity:1"
         offset="0" />
      <stop
         id="stop3741"
         style="stop-color:#ffffff;stop-opacity:0"
         offset="1" />
    </linearGradient>
    <radialGradient
       r="43.199203"
       fy="44.892841"
       fx="13.948145"
       cy="44.892841"
       cx="13.948145"
       gradientTransform="matrix(0.82094676,0,0,0.04919072,35.810098,-90.31726)"
       gradientUnits="userSpaceOnUse"
       id="radialGradient7464"
       xlink:href="#linearGradient3737"
       inkscape:collect="always" />
    <linearGradient
       y2="14.514202"
       x2="50.527882"
       y1="-28.64156"
       x1="2.7713892"
       gradientUnits="userSpaceOnUse"
       id="linearGradient4767"
       xlink:href="#linearGradient3737"
       inkscape:collect="always" />
    <clipPath
       clipPathUnits="userSpaceOnUse"
       id="clipPath4156-4-1">
      <path
         style="opacity:0.6;fill:#ffffff;fill-opacity:1;stroke:none"
         d="m 27.046336,-55.695463 -14.21366,13.321486 h 0.06127 l 15.653407,21.770763 10.231384,-10.546177 C 38.561832,-32.30156 27.468089,-54.819245 27.046336,-55.695463 Z M 9.6468554,-39.382809 -5.2407289,-25.32124 15.987863,-7.8059573 26.372412,-18.382966 Z m 31.4906096,12.951445 -9.741259,9.713584 8.944804,12.4580526 7.780753,-7.5550056 z m -49.8397109,4.378822 -13.7541661,12.9822847 26.2830181,13.84571 0.06127,-0.0617 -0.122531,-0.0617 L 13.598503,-5.4007374 -8.7022409,-22.052595 Z m 38.0154159,7.400825 -9.802525,9.7752596 11.579232,9.5594001 7.62759,-7.40083 -8.669108,-11.0087257 z m 20.187073,5.6739697 -7.382526,7.2158 6.187844,8.54179 5.820249,-6.13651996 z m -32.195166,6.32154 -9.5574606,9.49772 13.6622686,7.1849703 7.933918,-7.6783603 z m 23.311629,2.37443004 -7.10683,6.93826996 8.362778,6.9074403 5.360756,-5.6739699 -0.06127,-0.0925 -0.0919,0.12335 -6.463539,-8.20258036 z m -8.730374,8.54178036 -7.505057,7.3391599 10.353916,5.45811 c 1.397496,-1.32103 5.67514,-6.12292 5.850882,-6.32154 z"
         id="path4158-0-8"
         inkscape:connector-curvature="0" />
    </clipPath>
  </defs>
  <sodipodi:namedview
     id="base"
     pagecolor="#ffffff"
     bordercolor="#666666"
     borderopacity="1.0"
     inkscape:pageopacity="0.0"
     inkscape:pageshadow="2"
     inkscape:zoom="6.3557363"
     inkscape:cx="47.125419"
     inkscape:cy="38.258682"
     inkscape:document-units="px"
     inkscape:current-layer="g2574"
     showgrid="false"
     inkscape:showpageshadow="false"
     units="px"
     inkscape:lockguides="false"
     inkscape:window-width="1280"
     inkscape:window-height="972"
     inkscape:window-x="0"
     inkscape:window-y="26"
     inkscape:window-maximized="1" />
  <metadata
     id="metadata1069">
    <rdf:RDF>
      <cc:Work
         rdf:about="">
        <dc:format>image/svg+xml</dc:format>
        <dc:type
           rdf:resource="http://purl.org/dc/dcmitype/StillImage" />
        <dc:title></dc:title>
        <dc:date>2017</dc:date>
        <dc:creator>
          <cc:Agent>
            <dc:title>Cristian Pozzessere &quot;ilnanny&quot;</dc:title>
          </cc:Agent>
        </dc:creator>
        <dc:subject>
          <rdf:Bag>
            <rdf:li>Global language</rdf:li>
          </rdf:Bag>
        </dc:subject>
        <dc:description>Playing with Inkscape on Gnu/Linux O. S.</dc:description>
        <dc:contributor>
          <cc:Agent>
            <dc:title>In the night, alone like a dog.</dc:title>
          </cc:Agent>
        </dc:contributor>
        <cc:license
           rdf:resource="http://creativecommons.org/licenses/by-sa/4.0/" />
      </cc:Work>
      <cc:License
         rdf:about="http://creativecommons.org/licenses/by-sa/4.0/">
        <cc:permits
           rdf:resource="http://creativecommons.org/ns#Reproduction" />
        <cc:permits
           rdf:resource="http://creativecommons.org/ns#Distribution" />
        <cc:requires
           rdf:resource="http://creativecommons.org/ns#Notice" />
        <cc:requires
           rdf:resource="http://creativecommons.org/ns#Attribution" />
        <cc:permits
           rdf:resource="http://creativecommons.org/ns#DerivativeWorks" />
        <cc:requires
           rdf:resource="http://creativecommons.org/ns#ShareAlike" />
      </cc:License>
    </rdf:RDF>
  </metadata>
  <g
     inkscape:label="Livello 1"
     inkscape:groupmode="layer"
     id="layer1"
     transform="translate(0,-1026.5197)">
    <g
       transform="translate(-0.14895645,1026.1047)"
       style="display:inline"
       id="g2574">
      <path
         inkscape:connector-curvature="0"
         id="path3288"
         d="M 89.29181,0.415026 H 7.0060911 c -3.798848,0 -6.8571352,3.058285 -6.8571352,6.8571399 V 89.557884 c 0,3.798857 3.0582872,6.857142 6.8571352,6.857142 H 89.29181 c 3.798857,0 6.857147,-3.058285 6.857147,-6.857142 V 7.2721659 c 0,-3.7988549 -3.05829,-6.8571399 -6.857147,-6.8571399 z"
         style="display:inline;opacity:0.15;fill:#000000;fill-opacity:1;fill-rule:nonzero;stroke:none" />
      <path
         style="display:inline;opacity:0.15;fill:#000000;fill-opacity:1;fill-rule:nonzero;stroke:none"
         d="M 88.648954,1.165026 H 7.6489471 c -3.739492,0 -6.749993,3.010499 -6.749993,6.7499969 V 88.915026 c 0,3.739501 3.010501,6.75 6.749993,6.75 H 88.648954 c 3.739503,0 6.750003,-3.010499 6.750003,-6.75 V 7.9150229 c 0,-3.7394979 -3.0105,-6.7499969 -6.750003,-6.7499969 z"
         id="path4085"
         inkscape:connector-curvature="0" />
      <path
         inkscape:connector-curvature="0"
         id="rect4251-1"
         d="M 88.006093,1.915026 H 8.2918111 c -3.680143,0 -6.6428566,2.962713 -6.6428566,6.6428549 V 88.272171 c 0,3.680142 2.9627136,6.642856 6.6428566,6.642856 H 88.006093 c 3.680143,0 6.642854,-2.962714 6.642854,-6.642856 V 8.5578809 c 0,-3.6801419 -2.962711,-6.6428549 -6.642854,-6.6428549 z"
         style="display:inline;fill:url(#linearGradient4071);fill-opacity:1;fill-rule:nonzero;stroke:none" />
      <path
         sodipodi:nodetypes="sscccsccscccsss"
         inkscape:connector-curvature="0"
         id="path3400-6"
         d="m 11.390247,6.8021682 c -2.8564964,0 -5.1241284,2.3146876 -5.1241284,5.2304538 v 21.67369 7.322634 40.372561 c 1.0972399,1.70385 2.9688485,2.844058 5.1241284,2.844058 h 4.099303 65.588849 4.099302 c 2.155281,0 4.026889,-1.140208 5.124129,-2.844058 V 41.028946 33.706312 12.032622 c 0,-2.9157662 -2.267632,-5.2304538 -5.124129,-5.2304538 z"
         style="display:inline;opacity:0.77864583;fill:#f5f3f3;fill-opacity:1;fill-rule:nonzero;stroke:none;stroke-width:1.03540373" />
      <path
         style="color:#000000;font-style:normal;font-variant:normal;font-weight:normal;font-stretch:normal;font-size:medium;line-height:normal;font-family:Sans;-inkscape-font-specification:Sans;text-indent:0;text-align:start;text-decoration:none;text-decoration-line:none;letter-spacing:normal;word-spacing:normal;text-transform:none;writing-mode:lr-tb;direction:ltr;baseline-shift:baseline;text-anchor:start;display:inline;overflow:visible;visibility:visible;fill:#241f1f;fill-opacity:0.63265303;stroke:none;stroke-width:2.3755002;marker:none;enable-background:accumulate"
         d="m 9.9740341,5.1444869 c -3.116621,0 -5.667965,2.53951 -5.667965,5.6460041 v 69.277996 c 0,3.106495 2.551344,5.646004 5.667965,5.646004 H 86.765819 c 3.116621,0 5.667968,-2.539509 5.667968,-5.646004 V 10.790491 c 0,-3.1064931 -2.551347,-5.6460041 -5.667968,-5.6460041 z m 0,2.319439 H 86.765819 c 1.888099,0 3.352022,1.480095 3.352022,3.3265651 v 69.277996 c 0,1.846474 -1.463923,3.326564 -3.352022,3.326564 H 9.9740341 c -1.888099,0 -3.352022,-1.48009 -3.352022,-3.326564 V 10.790491 c 0,-1.8464701 1.463923,-3.3265651 3.352022,-3.3265651 z"
         id="path4989"
         inkscape:connector-curvature="0" />
      <path
         id="path4118"
         d="m 1.6489535,82.258776 v 6 c 0,3.680142 2.9761066,6.65625 6.6562496,6.65625 H 87.992703 c 3.680143,0 6.656254,-2.976108 6.656254,-6.65625 v -6 c 0,3.680142 -2.976111,6.65625 -6.656254,6.65625 H 8.3052031 c -3.680143,0 -6.6562496,-2.976108 -6.6562496,-6.65625 z"
         style="display:inline;opacity:0.65818182;fill:url(#linearGradient4129);fill-opacity:1;fill-rule:nonzero;stroke:none"
         inkscape:connector-curvature="0" />
      <rect
         ry="4.25"
         rx="0"
         y="80.665031"
         x="5.5239539"
         height="4.25"
         width="84.250008"
         id="rect4131"
         style="opacity:0.55;fill:url(#radialGradient7462);fill-opacity:1;stroke:none" />
      <rect
         transform="rotate(90)"
         style="opacity:0.669;fill:url(#radialGradient7464);fill-opacity:1;stroke:none;stroke-width:0.96132702"
         id="rect4141"
         width="70.92849"
         height="4.25"
         x="11.796535"
         y="-90.233963"
         rx="0"
         ry="4.25" />
      <g
         id="g4545"
         transform="matrix(1.1009783,0,0,1.0446183,0.79078955,-3.1198088)" />
      <g
         transform="matrix(1,0,0,1.0232361,-9.8298044,133.36979)"
         style="display:inline;fill:#365362;fill-opacity:0.77551018;stroke:#273943;stroke-width:0.19771618;stroke-miterlimit:4;stroke-dasharray:none;stroke-opacity:0.86734697"
         id="g4601" />
      <g
         id="g4770"
         transform="matrix(1.1178879,-0.13471976,0,1,-2.9088884,37.472256)">
        <path
           style="color:#000000;font-style:normal;font-variant:normal;font-weight:normal;font-stretch:normal;font-size:medium;line-height:74.10853577px;font-family:'URW Chancery L';-inkscape-font-specification:'URW Chancery L Bold';font-variant-ligatures:normal;font-variant-position:normal;font-variant-caps:normal;font-variant-numeric:normal;font-variant-alternates:normal;font-feature-settings:normal;text-indent:0;text-align:start;text-decoration:none;text-decoration-line:none;text-decoration-style:solid;text-decoration-color:#000000;letter-spacing:normal;word-spacing:normal;text-transform:none;writing-mode:lr-tb;direction:ltr;text-orientation:mixed;dominant-baseline:auto;baseline-shift:baseline;text-anchor:start;white-space:normal;shape-padding:0;clip-rule:nonzero;display:inline;overflow:visible;visibility:visible;opacity:1;isolation:auto;mix-blend-mode:normal;color-interpolation:sRGB;color-interpolation-filters:linearRGB;solid-color:#000000;solid-opacity:1;vector-effect:none;fill:#2c3d47;fill-opacity:1;fill-rule:nonzero;stroke:none;stroke-width:2.89709759;stroke-linecap:butt;stroke-linejoin:miter;stroke-miterlimit:4;stroke-dasharray:none;stroke-dashoffset:0;stroke-opacity:1;paint-order:fill markers stroke;color-rendering:auto;image-rendering:auto;shape-rendering:auto;text-rendering:auto;enable-background:accumulate"
           d="m 54.707233,-13.605627 c -1.575391,0 -3.022721,0.142858 -4.447355,0.425336 -0.01194,0.0025 -0.02384,0.0052 -0.03571,0.008 -1.421562,0.310578 -2.91423,1.042671 -4.568776,2.026369 -1.654548,0.983699 -3.409538,2.2271843 -5.016368,3.5812583 -0.0032,0.00333 -0.0064,0.00668 -0.0095,0.010036 -1.994101,1.7147206 -3.45273,3.5156152 -4.687817,6.3138474 -1.235086,2.7982323 -2.316295,6.6059819 -3.823582,12.6638083 -1.025714,4.09715 -2.062814,6.647792 -3.178383,7.985101 -1.115776,1.337559 -2.101846,1.675266 -4.221176,1.675266 -0.616698,0 -1.500196,-0.0011 -2.245105,-0.05818 -0.466501,-0.03613 -0.927936,0.104272 -1.259449,0.383205 -1.105785,0.931843 -1.654943,1.469581 -2.82126,2.714533 -0.836177,0.892521 -0.04357,2.200378 1.304671,2.152786 3.699271,-0.129891 5.604932,-0.194611 7.49003,-0.194611 1.923344,0 5.871817,0.130145 11.730255,0.325021 l -0.01429,-0.0021 c 12.64447,0.51978 13.259114,0.521639 15.263379,0.521639 2.115531,0 3.80305,-0.173531 5.25445,-0.806535 1.445552,-0.630454 2.468659,-1.706337 3.245045,-3.045574 1.011987,-1.637382 3.344018,-2.794412 4.530683,-5.327749 0.177308,-0.378143 0.139598,-0.803862 -0.102365,-1.155632 l -0.847573,-1.233784 c -0.637261,-0.925733 -2.245013,-0.870246 -2.79031,0.0963 -2.494378,4.43039 -3.3625,3.935499 -5.328783,4.882347 -1.966283,0.946849 -5.74255,0.391519 -12.353499,0.35913 -0.0032,-8e-6 -0.0063,-8e-6 -0.0095,0 H 35.079774 c 1.609057,-1.291747 2.820847,-2.38628 3.685494,-3.803958 1.006079,-1.649566 1.629546,-3.634928 2.597466,-7.0280928 8.43e-4,-0.00267 0.0017,-0.00534 0.0025,-0.00801 2.230596,-8.0374279 3.305652,-11.577026 4.273554,-14.0260911 0.505409,-1.1873686 1.124273,-1.9167741 1.859414,-2.3714546 0.73773,-0.4562825 1.664174,-0.7002011 3.045057,-0.7002011 1.002132,0 1.625568,-8.916e-4 4.46402,0.1284036 0.5451,0.024381 1.066444,-0.1903549 1.378489,-0.5677848 l 3.006964,-3.6374352 c 0.690039,-0.833063 0.06164,-1.984111 -1.138027,-2.084553 -1.541743,-0.129922 -2.393048,-0.20063 -3.547408,-0.20063 z m 0,2.660363 c 0.156773,0 0.358876,0.0272 0.504732,0.03009 l -0.923755,1.1195188 c -1.735135,-0.06928 -2.934958,-0.1063344 -3.745015,-0.1063343 -0.482982,0 -0.915776,0.098292 -1.373729,0.150473 0.650268,-0.2969785 1.496138,-0.7667975 1.840367,-0.8426485 1.186858,-0.233578 2.353826,-0.351104 3.6974,-0.351104 z m -11.565979,5.0679307 c -0.153378,0.2803005 -0.3524,0.5173182 -0.480923,0.8205794 -0.0041,0.00866 -0.0081,0.017353 -0.01195,0.026082 -1.035393,2.6175885 -2.119268,6.2161865 -4.356879,14.2788854 -0.957225,3.3548795 -1.56721,5.1702955 -2.333193,6.4262005 -0.670941,1.100072 -1.736321,1.988952 -3.283139,3.222129 0.955177,-1.777549 1.771829,-3.895672 2.530802,-6.927777 1.49911,-6.0249638 2.576566,-9.7540216 3.692638,-12.28261061 1.113961,-2.52381049 2.196405,-3.84124919 3.973573,-5.37088329 l 0.0047,-0.00402 c 0.0017,-0.00145 0.0031,-0.00257 0.0047,-0.00402 0.08314,-0.070014 0.175393,-0.115136 0.259509,-0.1845802 z M 58.926026,23.135872 c -0.06992,0.118346 -0.238768,0.466573 -0.29522,0.557754 -0.0065,0.01063 -0.01288,0.02133 -0.01906,0.0321 -0.610061,1.056756 0.105148,-0.293076 -0.640434,0.0321 -0.745582,0.325174 -1.911538,0.509602 -3.804536,0.509602 -2.004266,0 -2.468522,-3.2e-5 -15.108626,-0.519634 -0.0048,-1.8e-5 -0.0095,-1.8e-5 -0.01429,0 -5.858793,-0.194889 -9.771242,-0.325021 -11.856428,-0.325021 -0.196254,0 -0.561858,0.01876 -0.75948,0.02006 1.19133,-0.183314 2.255299,-0.570179 3.218857,-1.163658 0.145403,0.623346 0.79367,1.072989 1.547528,1.073375 h 14.561038 c 6.648036,0.03257 9.190829,1.861995 12.215937,0.405276 0,0 -1.228502,1.829755 0.954705,-0.621955 z"
           id="path4723"
           inkscape:connector-curvature="0"
           transform="scale(0.56903809,1.7573516)"
           sodipodi:nodetypes="cccsccscssccccsccsscccccscccscccsscccccccccsccccccccsccscccccccccsccsccccccc" />
        <path
           d="m 33.233533,-19.413291 c -0.848286,-0.222268 -1.272429,-0.333401 -1.86623,-0.333401 -0.805872,0 -1.526915,0.222266 -2.247957,0.666801 -1.145187,0.777935 -3.181074,4.55648 -4.877647,9.001827 -2.0783,5.5566834 -2.799344,10.66883189 -4.453502,31.339693 -1.145186,14.22511 -2.247957,18.337056 -4.920059,18.337056 -0.339315,0 -0.848286,0 -1.314843,-0.111135 -0.593801,1.555871 -0.848287,2.333807 -1.484501,4.445347 2.035886,-0.222268 3.096244,-0.333401 4.156602,-0.333401 1.102771,0 3.265901,0.222268 6.489388,0.555668 6.955947,0.88907 7.252848,0.88907 8.35562,0.88907 2.205544,0 3.138658,-1.22247 3.902115,-5.334416 0.508972,-2.556075 1.823817,-4.560123 2.460031,-8.783202 l -0.466558,-2.111539 c -2.75693,15.225311 -3.223487,10.227938 -10.518748,10.116805 h -8.016305 l 1.145187,-2.889476 c 2.247959,-5.445549 2.544858,-6.890286 3.605215,-18.448187 1.230016,-13.7805748 1.823817,-19.8929265 2.375202,-24.2271393 0.636216,-4.6676137 1.738987,-6.7791537 3.520388,-6.7791537 0.551386,0 0.933116,0 2.502444,0.222268 z"
           style="font-style:normal;font-variant:normal;font-weight:bold;font-stretch:normal;font-size:medium;line-height:74.10853577px;font-family:'URW Chancery L';-inkscape-font-specification:'URW Chancery L Bold';font-variant-ligatures:normal;font-variant-caps:normal;font-variant-numeric:normal;font-feature-settings:normal;text-align:center;writing-mode:lr-tb;text-anchor:middle;fill:#b0ccdb;fill-opacity:0.91935485;fill-rule:evenodd;stroke:none;stroke-width:0.96547604;stroke-linecap:square;stroke-linejoin:round;stroke-miterlimit:4;stroke-dasharray:none;stroke-dashoffset:0;stroke-opacity:1;paint-order:fill markers stroke"
           id="path4751"
           inkscape:connector-curvature="0"
           sodipodi:nodetypes="cscccsccscsccccccccscc" />
      </g>
      <rect
         clip-path="url(#clipPath4156-4-1)"
         ry="3.9569881"
         rx="3.9569874"
         y="-30"
         x="2"
         height="69.024437"
         width="75.965775"
         id="rect4146"
         style="opacity:0.5078125;fill:url(#linearGradient4767);fill-opacity:1;stroke:none"
         transform="matrix(1.0692451,0,0,1.0476829,4.4441802,38.894013)" />
      <g
         id="g4563"
         transform="matrix(1,0,0,1.0232361,2.5276866,0.27249961)">
        <g
           id="g4571"
           transform="translate(-4.8167728,-5.1253562)">
          <g
             id="g4578"
             transform="translate(3.3792498,3.3828315)"
             style="stroke-width:0.19771618;stroke-miterlimit:4;stroke-dasharray:none;stroke:#273943;stroke-opacity:0.86734694;fill:#365362;fill-opacity:0.77551019" />
        </g>
      </g>
      <g
         id="g4782"
         transform="matrix(1,-0.17382118,0,1,1.1562035,30.269857)">
        <g
           id="text4721"
           style="font-style:normal;font-variant:normal;font-weight:bold;font-stretch:normal;font-size:63.23928833px;line-height:74.10853577px;font-family:'URW Chancery L';-inkscape-font-specification:'URW Chancery L Bold';font-variant-ligatures:normal;font-variant-caps:normal;font-variant-numeric:normal;font-feature-settings:normal;text-align:center;writing-mode:lr-tb;text-anchor:middle;opacity:1;fill:none;fill-opacity:0.91935485;fill-rule:evenodd;stroke:#2c3d47;stroke-width:2.58899999;stroke-linecap:square;stroke-linejoin:round;stroke-miterlimit:4;stroke-dasharray:none;stroke-dashoffset:0;stroke-opacity:1;paint-order:fill markers stroke"
           transform="matrix(0.56903809,0.00750242,0,1.6240559,0,3.9787416)"
           aria-label="Lives">
          <g
             id="g4749">
            <path
               style="color:#000000;font-style:normal;font-variant:normal;font-weight:normal;font-stretch:normal;font-size:medium;line-height:74.10853577px;font-family:'URW Chancery L';-inkscape-font-specification:'URW Chancery L Bold';font-variant-ligatures:normal;font-variant-position:normal;font-variant-caps:normal;font-variant-numeric:normal;font-variant-alternates:normal;font-feature-settings:normal;text-indent:0;text-align:start;text-decoration:none;text-decoration-line:none;text-decoration-style:solid;text-decoration-color:#000000;letter-spacing:normal;word-spacing:normal;text-transform:none;writing-mode:lr-tb;direction:ltr;text-orientation:mixed;dominant-baseline:auto;baseline-shift:baseline;text-anchor:start;white-space:normal;shape-padding:0;clip-rule:nonzero;display:inline;overflow:visible;visibility:visible;opacity:1;isolation:auto;mix-blend-mode:normal;color-interpolation:sRGB;color-interpolation-filters:linearRGB;solid-color:#000000;solid-opacity:1;vector-effect:none;fill:#2c3d47;fill-opacity:1;fill-rule:nonzero;stroke:none;stroke-width:2.40756679;stroke-linecap:butt;stroke-linejoin:miter;stroke-miterlimit:4;stroke-dasharray:none;stroke-dashoffset:0;stroke-opacity:1;paint-order:fill markers stroke;color-rendering:auto;image-rendering:auto;shape-rendering:auto;text-rendering:auto;enable-background:accumulate"
               d="m 80.044922,-9.2680441 a 1.2946294,1.1195359 0 0 0 -0.796875,0.2465898 c -0.250449,0.1732621 -0.599058,0.3440735 -0.992188,0.6840343 -0.100398,0.08682 -0.634373,0.4530481 -1.283203,0.9019116 -0.266888,0.1846336 -0.687539,0.4442215 -1.238281,0.7617263 a 1.2946294,1.1195359 0 0 0 -0.05859,0.037159 c -0.252955,0.1640585 -0.461969,0.2884162 -0.560547,0.3310382 A 1.2946294,1.1195359 0 0 0 74.460942,-4.96454 c 0.484894,1.3178467 1.156345,2.3467169 2.568359,4.12278199 a 1.2946294,1.1195359 0 0 0 1.931641,0.19929873 c 1.836477,-1.42381842 1.88905,-1.48039012 4.033199,-2.89827792 a 1.2946294,1.1195359 0 0 0 0.371093,-1.3900245 c -0.369365,-0.638819 -0.646541,-1.0227412 -0.822265,-1.2565958 -0.3923,-0.6784868 -0.416817,-0.6626653 -0.914063,-1.6839051 a 1.2946294,1.1195359 0 0 0 -0.03516,-0.065868 c -0.126478,-0.2187438 -0.229609,-0.4009622 -0.333984,-0.6266093 a 1.2946294,1.1195359 0 0 0 -1.214844,-0.7043015 z m -0.46875,2.8780094 c 0.207787,0.3924626 0.409436,0.784127 0.652344,1.2042374 a 1.2946294,1.1195359 0 0 0 0.08008,0.1199172 c 0.02931,0.038023 0.173662,0.2740496 0.242187,0.3715741 -0.743248,0.500921 -1.492727,1.048355 -2.078125,1.4930518 -0.437951,-0.6067547 -0.871706,-1.246832 -1.097656,-1.7362639 0.472922,-0.2771161 0.902138,-0.5335736 1.214844,-0.7499039 0.405506,-0.2805306 0.682175,-0.4838835 0.986328,-0.7026127 z m -1.542969,8.3333912 c -0.687576,0 -1.150094,0.1786199 -1.796875,0.4188652 C 75.589547,2.602467 74.83175,2.9382349 73.949219,3.3637825 72.184157,4.2148775 69.932936,5.430725 67.320312,6.9460934 A 1.2946294,1.1195359 0 0 0 66.75,7.7956467 l -0.125,1.5302092 a 1.2946294,1.1195359 0 0 0 1.908203,1.0640531 c 1.841802,-0.8638404 2.833886,-1.3173968 3.380859,-1.5369655 -0.02395,0.527388 -0.138033,1.1102572 -1.013671,3.9876645 -1.48379,4.777545 -2.227153,7.166722 -2.609375,8.573225 -0.382523,1.407609 -0.40625,1.964729 -0.40625,2.648309 0,0.811713 0.179504,1.546341 0.615234,2.166952 0.43573,0.620611 1.261448,1.140057 2.197266,1.140057 1.733217,0 3.439525,-0.864324 6.826172,-2.742892 l 0.0078,-0.0051 c 1.16566,-0.636635 2.345401,-1.285229 3.535156,-1.986231 l 0.03516,-0.01857 c 0.618676,-0.299356 1.18343,-0.625512 1.771485,-0.930624 a 1.2946294,1.1195359 0 0 0 0.615234,-0.800573 l 0.253907,-1.531899 a 1.2946294,1.1195359 0 0 0 -1.894532,-1.145123 c -3.003637,1.394397 -4.547336,2.108358 -5.363281,2.442254 -0.627279,0.256692 -0.607163,0.210234 -0.753906,0.206055 -0.03095,-0.08036 -0.07031,-0.136377 -0.07031,-0.349617 0,-0.32298 0.164962,-1.356284 0.523438,-2.492924 a 1.2946294,1.1195359 0 0 0 0.0098,-0.0304 c 1.612442,-5.741574 2.575569,-9.1592296 3.138642,-11.2029208 0.281537,-1.0218457 0.463695,-1.6982229 0.578125,-2.163574 0.11443,-0.4653512 0.177735,-0.6657308 0.177735,-1.0083167 0,-0.47501 -0.276452,-0.9686361 -0.685547,-1.2599736 C 78.993249,2.0573724 78.501112,1.9433565 78.033203,1.9433565 Z m -0.724609,2.4608331 c -0.10824,0.4280612 -0.248016,0.9645512 -0.494141,1.8578699 -0.557911,2.024958 -1.524026,5.4479265 -3.128906,11.1624205 -0.0011,0.0035 -8.54e-4,0.0049 -0.002,0.0085 -0.398273,1.264824 -0.611328,2.305302 -0.611328,3.07393 0,0.618481 0.128758,1.202755 0.511718,1.719374 0.357659,0.482488 1.049734,0.84683 1.773438,0.896844 -2.681986,1.421213 -4.287374,2.0065 -4.660156,2.0065 0.05047,0 0.117429,0.08251 0.01563,-0.06249 -0.101804,-0.145 -0.238282,-0.504177 -0.238282,-1.004939 0,-0.68358 -0.02265,-0.809838 0.337891,-2.13655 0.360539,-1.326713 1.103721,-3.725672 2.589844,-8.510733 a 1.2946294,1.1195359 0 0 0 0.002,-0.0051 c 0.951054,-3.125229 1.181641,-3.9946103 1.181641,-4.877753 0,-0.452499 -0.06078,-0.9089738 -0.408204,-1.359623 C 73.902348,6.8151897 73.360236,6.6731994 72.873052,6.5812676 73.610754,6.1924983 74.60532,5.6089993 75.208989,5.317916 c 0.832835,-0.4015846 1.533564,-0.7064141 2.050782,-0.8985334 0.03269,-0.012144 0.01713,-0.0042 0.04883,-0.015201 z"
               id="path4725"
               inkscape:connector-curvature="0" />
            <path
               style="color:#000000;font-style:normal;font-variant:normal;font-weight:normal;font-stretch:normal;font-size:medium;line-height:74.10853577px;font-family:'URW Chancery L';-inkscape-font-specification:'URW Chancery L Bold';font-variant-ligatures:normal;font-variant-position:normal;font-variant-caps:normal;font-variant-numeric:normal;font-variant-alternates:normal;font-feature-settings:normal;text-indent:0;text-align:start;text-decoration:none;text-decoration-line:none;text-decoration-style:solid;text-decoration-color:#000000;letter-spacing:normal;word-spacing:normal;text-transform:none;writing-mode:lr-tb;direction:ltr;text-orientation:mixed;dominant-baseline:auto;baseline-shift:baseline;text-anchor:start;white-space:normal;shape-padding:0;clip-rule:nonzero;display:inline;overflow:visible;visibility:visible;opacity:1;isolation:auto;mix-blend-mode:normal;color-interpolation:sRGB;color-interpolation-filters:linearRGB;solid-color:#000000;solid-opacity:1;vector-effect:none;fill:#2c3d47;fill-opacity:1;fill-rule:nonzero;stroke:none;stroke-width:2.40756679;stroke-linecap:butt;stroke-linejoin:miter;stroke-miterlimit:4;stroke-dasharray:none;stroke-dashoffset:0;stroke-opacity:1;paint-order:fill markers stroke;color-rendering:auto;image-rendering:auto;shape-rendering:auto;text-rendering:auto;enable-background:accumulate"
               d="m 108.59375,0.52124148 a 1.2946294,1.1195359 0 0 0 -0.36328,0.0456023 C 106.665,0.961685 105.76975,1.2817274 103.79297,2.1088758 a 1.2946294,1.1195359 0 0 0 -0.61914,1.4626503 c 0.72514,1.4109131 0.90039,2.0117936 0.90039,3.3188313 0,3.1156586 -1.07049,6.4307856 -3.11133,9.4413576 -1.167064,1.707143 -2.582231,3.183265 -3.923828,4.193718 -1.342469,1.011112 -2.633997,1.487985 -3.24414,1.487985 -0.185678,0 -0.427689,-0.08527 -0.712891,-0.450955 -0.285201,-0.365692 -0.521484,-0.978806 -0.521484,-1.71093 0,-2.254054 0.939999,-5.120401 2.619141,-7.767585 1.224272,-1.851555 2.337325,-3.1720123 5.283202,-6.09888 a 1.2946294,1.1195359 0 0 0 0.25195,-0.3817078 c 0.14512,-0.3764568 0.12891,-0.6817057 0.12891,-0.7363921 0,-0.1640592 -0.0404,-0.4987843 -0.17578,-0.9086673 A 1.2946294,1.1195359 0 0 0 99.423828,3.145905 h -0.632812 a 1.2946294,1.1195359 0 0 0 -0.988282,0.3969086 c -0.242093,0.247415 -0.29486,0.2799121 -0.583984,0.3529953 -0.289124,0.073083 -0.870422,0.1249839 -1.841797,0.1249839 h -1.507812 -0.01172 C 90.059257,3.8625509 89.298379,3.8569625 88.798828,3.8569625 88.129924,3.8569625 87.556815,3.8946359 87,4.0444384 86.449873,4.1924415 85.918924,4.4989809 85.568359,4.8956807 84.382791,6.168945 83.512268,8.4238651 82.240234,12.328849 a 1.2946294,1.1195359 0 0 0 0.240235,1.008317 l 1.076172,1.148501 a 1.2946294,1.1195359 0 0 0 2.234375,-0.351306 c 0.310737,-0.806136 0.601483,-1.409949 0.736328,-1.992988 l -0.04687,0.150319 c 0.685755,-1.698177 1.152494,-2.4549388 1.464838,-2.6770218 0.312345,-0.2220829 0.878604,-0.3187515 2.53711,-0.2921922 a 1.2946294,1.1195359 0 0 0 0.05664,0 c 0.90232,-0.019507 1.177306,-0.1115966 1.763672,-0.1435627 -1.452758,1.4726907 -3.166492,3.1380637 -3.787109,4.0197547 a 1.2946294,1.1195359 0 0 0 -0.002,0.0034 c -1.952709,2.794945 -3.095703,6.061986 -3.095703,9.000535 0,1.428135 0.365522,2.676684 1.175781,3.629602 0.810259,0.952919 2.123634,1.536966 3.533203,1.536966 2.9513,0 6.053637,-1.278511 9.013672,-3.320521 2.958792,-2.041155 5.779522,-4.884399 8.037102,-8.221919 2.56629,-3.755579 4.35352,-8.1425049 4.35352,-11.2333566 0,-1.4849199 -0.71689,-2.7988664 -2.10352,-3.80863337 A 1.2946294,1.1195359 0 0 0 108.5937,0.5212363 Z M 108.24219,2.963496 c 0.47894,0.4537844 0.70117,0.8549169 0.70117,1.6298586 0,2.2684181 -1.62776,6.6319594 -3.99414,10.0949894 a 1.2946294,1.1195359 0 0 0 -0.004,0.0051 c -0.28699,0.424422 -0.64732,0.760716 -0.95312,1.16708 1.63337,-2.901162 2.66992,-5.962371 2.66992,-8.9701341 0,-1.1405059 -0.26168,-2.1037174 -0.67969,-3.1364222 0.78305,-0.3106071 1.56634,-0.5987343 2.25977,-0.7904392 z M 88.798828,6.0965402 c 0.505914,0 1.081969,-0.00163 4.996094,0.1621413 a 1.2946294,1.1195359 0 0 0 0.0625,0.00169 h 1.519531 c 0.657775,0 1.10473,-0.080972 1.605469,-0.1351178 -0.284313,0.2968504 -0.592088,0.615578 -0.839844,0.8850217 A 1.2946294,1.1195359 0 0 0 94.986328,6.724839 c -1.474163,0.2655812 -1.997775,0.3054028 -4.511719,0.3597512 h 0.05664 c -1.511024,-0.024195 -2.688703,0.092433 -3.70703,0.6029659 0.292097,-0.5773487 0.612381,-1.2404375 0.765625,-1.4035362 a 1.2946294,1.1195359 0 0 0 0.03125,-0.03378 c 0.0292,-0.033667 -0.0062,-0.025959 0.148437,-0.067559 0.154627,-0.0416 0.496656,-0.086137 1.029297,-0.086137 z m 3.074219,7.0548388 c -1.116714,2.279949 -1.902344,4.590809 -1.902344,6.700154 0,1.127216 0.333075,2.154081 0.964844,2.964148 0.631769,0.810067 1.653788,1.435626 2.859375,1.435626 0.04953,0 0.09518,-0.03073 0.144531,-0.03209 -1.386023,0.564154 -2.699894,0.910357 -3.8125,0.910357 -0.677327,0 -1.071788,-0.181645 -1.447265,-0.623231 -0.375478,-0.441585 -0.673829,-1.216318 -0.673829,-2.303759 0,-2.420093 1.006343,-5.385629 2.720703,-7.840211 l 0.002,-0.0017 c 0.172177,-0.24456 0.934274,-0.949587 1.144531,-1.209305 z"
               id="path4727"
               inkscape:connector-curvature="0" />
            <path
               style="color:#000000;font-style:normal;font-variant:normal;font-weight:normal;font-stretch:normal;font-size:medium;line-height:74.10853577px;font-family:'URW Chancery L';-inkscape-font-specification:'URW Chancery L Bold';font-variant-ligatures:normal;font-variant-position:normal;font-variant-caps:normal;font-variant-numeric:normal;font-variant-alternates:normal;font-feature-settings:normal;text-indent:0;text-align:start;text-decoration:none;text-decoration-line:none;text-decoration-style:solid;text-decoration-color:#000000;letter-spacing:normal;word-spacing:normal;text-transform:none;writing-mode:lr-tb;direction:ltr;text-orientation:mixed;dominant-baseline:auto;baseline-shift:baseline;text-anchor:start;white-space:normal;shape-padding:0;clip-rule:nonzero;display:inline;overflow:visible;visibility:visible;opacity:1;isolation:auto;mix-blend-mode:normal;color-interpolation:sRGB;color-interpolation-filters:linearRGB;solid-color:#000000;solid-opacity:1;vector-effect:none;fill:#2c3d47;fill-opacity:1;fill-rule:nonzero;stroke:none;stroke-width:2.40756679;stroke-linecap:butt;stroke-linejoin:miter;stroke-miterlimit:4;stroke-dasharray:none;stroke-dashoffset:0;stroke-opacity:1;paint-order:fill markers stroke;color-rendering:auto;image-rendering:auto;shape-rendering:auto;text-rendering:auto;enable-background:accumulate"
               d="m 125.57031,1.9433565 c -1.58739,0 -2.93954,0.3700718 -4.49414,1.1299227 a 1.2946294,1.1195359 0 0 0 -0.0117,0.00507 c -2.51079,1.2570171 -4.73986,2.77414 -6.20703,4.2241206 a 1.2946294,1.1195359 0 0 0 -0.0234,0.023646 c -2.80697,2.9383642 -4.85156,8.9310682 -4.85156,13.6739232 0,1.809307 0.5514,3.399919 1.69141,4.560226 1.14,1.160307 2.86341,1.80889 4.78906,1.80889 4.34546,0 9.14414,-2.521292 14.25977,-6.945056 a 1.2946294,1.1195359 0 0 0 0.3789,-0.792128 v -1.585945 a 1.2946294,1.1195359 0 0 0 -2.14258,-0.844487 c -4.6754,3.504004 -7.56679,4.811883 -9.33398,4.811883 -0.99132,0 -1.78526,-0.524775 -2.09766,-1.516697 -0.18321,-0.635863 -0.20186,-1.291899 -0.2207,-2.227755 2.53222,-1.3821 4.44808,-2.514113 7.89844,-4.739258 a 1.2946294,1.1195359 0 0 0 0.01,-0.0051 c 3.55264,-2.332557 5.25391,-4.590236 5.25391,-7.3993892 0,-1.1915577 -0.46153,-2.2902315 -1.36328,-3.0502846 -0.90175,-0.760053 -2.16957,-1.1316116 -3.53516,-1.1316116 z m 0,2.2378887 c 0.84779,0 1.3813,0.2038973 1.72852,0.4965579 0.34722,0.2926607 0.58203,0.7249824 0.58203,1.4474497 0,1.7483452 -0.99534,3.0521801 -3.07813,4.6429862 0.67692,-1.0144933 1.11329,-2.0614955 1.11329,-3.1668242 0,-0.8272597 -0.20537,-1.5977497 -0.70313,-2.2378887 -0.33049,-0.425032 -0.8628,-0.7157197 -1.44922,-0.9069783 0.57225,-0.1769495 1.1174,-0.2753026 1.80664,-0.2753026 z m -2.71875,2.2970028 c 0.10604,0 0.0941,-0.017696 0.21289,0.1351178 0.11883,0.1528143 0.26172,0.5028344 0.26172,0.988049 0,1.1656644 -0.25474,1.8658912 -1.36719,2.9354342 -0.63646,0.61192 -2.4084,1.608571 -3.72656,2.443944 0.50696,-1.568073 1.09327,-3.0069477 1.78125,-4.0754913 0.55055,-0.855077 1.13628,-1.5099875 1.6543,-1.908539 0.51802,-0.3985516 0.92022,-0.5185147 1.18359,-0.5185147 z m -5.26367,1.6737719 c -1.21363,1.9863741 -2.18772,4.5327111 -2.71875,7.4230351 a 1.2946294,1.1195359 0 0 0 0.55469,1.102899 c -0.0498,0.02689 -0.1,0.06239 -0.15039,0.08951 a 1.2946294,1.1195359 0 0 0 -0.61133,0.950892 c 0,1.61164 0.081,2.384519 0.35547,3.334032 a 1.2946294,1.1195359 0 0 0 0.006,0.02027 c 0.57481,1.846272 2.43374,3.178646 4.60156,3.178646 0.33302,0 0.68312,-0.101309 1.02148,-0.143563 -1.54091,0.618607 -2.98351,1.021829 -4.18359,1.021829 -1.29955,0 -2.16795,-0.362123 -2.81445,-1.02014 -0.64651,-0.658017 -1.07617,-1.692206 -1.07617,-3.109399 0,-4.10939 2.2494,-10.130684 4.24609,-12.2332283 0.19427,-0.1914442 0.53145,-0.4119441 0.76953,-0.614786 z"
               id="path4729"
               inkscape:connector-curvature="0" />
            <path
               style="color:#000000;font-style:normal;font-variant:normal;font-weight:normal;font-stretch:normal;font-size:medium;line-height:74.10853577px;font-family:'URW Chancery L';-inkscape-font-specification:'URW Chancery L Bold';font-variant-ligatures:normal;font-variant-position:normal;font-variant-caps:normal;font-variant-numeric:normal;font-variant-alternates:normal;font-feature-settings:normal;text-indent:0;text-align:start;text-decoration:none;text-decoration-line:none;text-decoration-style:solid;text-decoration-color:#000000;letter-spacing:normal;word-spacing:normal;text-transform:none;writing-mode:lr-tb;direction:ltr;text-orientation:mixed;dominant-baseline:auto;baseline-shift:baseline;text-anchor:start;white-space:normal;shape-padding:0;clip-rule:nonzero;display:inline;overflow:visible;visibility:visible;opacity:1;isolation:auto;mix-blend-mode:normal;color-interpolation:sRGB;color-interpolation-filters:linearRGB;solid-color:#000000;solid-opacity:1;vector-effect:none;fill:#2c3d47;fill-opacity:1;fill-rule:nonzero;stroke:none;stroke-width:2.40756679;stroke-linecap:butt;stroke-linejoin:miter;stroke-miterlimit:4;stroke-dasharray:none;stroke-dashoffset:0;stroke-opacity:1;paint-order:fill markers stroke;color-rendering:auto;image-rendering:auto;shape-rendering:auto;text-rendering:auto;enable-background:accumulate"
               d="m 146.87109,1.9433565 c -2.82248,0 -5.64797,1.3443993 -7.88671,3.1245993 -2.23875,1.7802001 -3.96876,4.0262645 -3.96876,6.3623602 0,2.080458 1.40245,3.824253 3.96094,5.396267 a 1.2946294,1.1195359 0 0 0 0.006,0.0051 c 1.56153,0.945236 2.39986,1.536455 2.73047,1.884893 0.33061,0.348438 0.32227,0.392058 0.32227,0.97116 0,0.507563 -0.49571,1.375122 -1.3418,2.045345 -0.84609,0.670224 -1.96981,1.099522 -2.73828,1.099522 -0.92053,0 -1.44285,-0.294938 -1.91992,-1.202549 a 1.2946294,1.1195359 0 0 0 -0.006,-0.01013 c -0.34279,-0.635184 -0.44964,-1.233562 -0.51172,-3.058729 a 1.2946294,1.1195359 0 0 0 -2.05469,-0.873199 c -0.62067,0.390347 -1.02807,0.60954 -1.37891,0.830975 -0.004,0.0026 -0.0134,0.0058 -0.0176,0.0085 -0.46251,0.249266 -1.04213,0.528726 -1.66016,0.885022 l -1.13672,0.655321 a 1.2946294,1.1195359 0 0 0 -0.57031,0.809018 c -0.062,0.483035 -0.13281,0.929001 -0.13281,1.381579 0,2.872179 2.60171,5.110832 5.97265,5.110832 2.32233,0 5.11643,-0.757768 7.33985,-1.839291 a 1.2946294,1.1195359 0 0 0 0.0117,-0.0051 c 4.01895,-2.002777 6.6543,-5.082013 6.6543,-8.353659 0,-1.082294 -0.17663,-2.089653 -0.94531,-2.925301 -0.76514,-0.831801 -1.85578,-1.429806 -3.62891,-2.388207 -1.0004,-0.559773 -1.63083,-1.048987 -1.97851,-1.466028 -0.34768,-0.4170408 -0.4668,-0.7482833 -0.4668,-1.2582846 0,-1.222803 1.3008,-2.3814514 2.68945,-2.3814514 0.52089,0 0.85719,0.080707 1.29297,0.3192158 0.43578,0.2385082 0.96489,0.6751815 1.61133,1.3866466 a 1.2946294,1.1195359 0 0 0 1.91797,0.1114721 c 2.15013,-1.804652 2.31851,-1.975774 3.14062,-3.0148161 a 1.2946294,1.1195359 0 0 0 -0.0742,-1.3494892 c -1.4097,-1.4628528 -3.15351,-2.2615343 -5.23243,-2.2615343 z m 0,2.2378887 c 1.06139,0 1.72519,0.2898717 2.42383,0.8191517 -0.2311,0.2706852 -0.76115,0.7685751 -1.22461,1.1653912 -0.38541,-0.3326519 -0.75437,-0.7546484 -1.17773,-0.98636 -0.63294,-0.3464151 -1.363,-0.442236 -2.08399,-0.5185146 0.71472,-0.216926 1.45224,-0.4796683 2.0625,-0.4796683 z m -7.7832,4.3051913 c -0.0379,0.2198504 -0.15039,0.4195226 -0.15039,0.6468765 0,0.911846 0.32255,1.81021 0.95508,2.568927 0.63253,0.758718 1.52214,1.391884 2.67187,2.035213 a 1.2946294,1.1195359 0 0 0 0.0156,0.0085 c 1.75367,0.947808 2.65613,1.527573 2.99414,1.895028 0.33801,0.367454 0.38281,0.589105 0.38281,1.530209 0,1.198464 -0.61804,2.477978 -1.69531,3.680271 0.14093,-0.383993 0.36328,-0.74521 0.36328,-1.163702 0,-0.788059 -0.22894,-1.673638 -0.91016,-2.391585 -0.68007,-0.716748 -1.64458,-1.329332 -3.24023,-2.295314 l -0.006,-0.0034 c -2.24152,-1.378378 -2.86328,-2.258482 -2.86328,-3.567111 0,-0.811742 0.62687,-1.8769907 1.48242,-2.9438791 z m -5.98828,12.1200675 c 0.10959,0.745081 0.27475,1.38296 0.58203,1.954142 0.62204,1.180101 1.83317,1.898224 3.20117,2.217621 -0.84807,0.181857 -1.709,0.351306 -2.34375,0.351306 -2.19412,0 -3.38476,-1.0404 -3.38476,-2.871254 0,-0.111844 0.041,-0.400736 0.0664,-0.623231 l 0.62305,-0.35975 c 0.40056,-0.230924 0.8296,-0.446528 1.25586,-0.668834 z"
               id="path4731"
               inkscape:connector-curvature="0" />
          </g>
        </g>
        <path
           d="M 44.440151,3.9819311 C 45.483732,1.7941894 45.555703,1.6257923 46.779212,-0.55957736 46.563299,-1.5785014 46.383371,-2.2582591 46.3114,-2.5132273 c -0.215913,-1.0189241 -0.251899,-1.1040712 -0.539783,-2.7166564 -0.07197,-0.3396414 -0.143942,-0.6792819 -0.215914,-1.1035976 -0.179927,0.3363212 -0.395841,0.672167 -0.503798,0.9247629 -0.143942,0.3367947 -0.431826,0.8410365 -0.791682,1.5136782 -0.179928,0.3363197 -0.431827,0.7563639 -0.755697,1.2601326 -0.143942,0.2521223 -0.287885,0.5042439 -0.431827,0.6716912 0.251899,1.86613076 0.575769,3.2251702 1.367452,5.9451475 z m 2.483004,32.0391749 c -3.418629,4.273256 -3.4906,4.356981 -3.958413,4.350813 -0.395841,-0.0052 -0.64774,-0.939945 -0.64774,-2.379388 0,-0.84673 0.107957,-2.454097 0.323871,-4.314058 1.835264,-17.757157 2.195119,-21.139338 2.195119,-21.816723 0,-0.508039 -0.179928,-0.849103 -0.431827,-0.852424 -0.611754,-0.0081 -2.734903,2.758154 -5.685719,7.376271 l -0.07197,2.369898 c 2.123148,-2.681546 2.303076,-2.848521 2.626946,-2.844251 0.287885,0.0038 0.431827,0.513732 0.431827,1.529809 0,1.100751 -0.107957,2.284751 -0.64774,7.104003 -1.691321,14.795495 -1.691321,14.795495 -1.691321,16.912323 0,2.032154 0.359855,3.39167 0.863653,3.398312 0.611754,0.0081 1.583365,-1.079875 3.490599,-3.933616 0.683726,-1.007062 1.367452,-2.014125 2.051178,-3.105861 0.32387,-0.419096 0.64774,-0.922865 1.007595,-1.426158 z"
           style="font-style:normal;font-variant:normal;font-weight:bold;font-stretch:normal;font-size:medium;line-height:74.10853577px;font-family:'URW Chancery L';-inkscape-font-specification:'URW Chancery L Bold';font-variant-ligatures:normal;font-variant-caps:normal;font-variant-numeric:normal;font-feature-settings:normal;text-align:center;writing-mode:lr-tb;text-anchor:middle;fill:#b0ccdb;fill-opacity:0.91935485;fill-rule:evenodd;stroke:none;stroke-width:0.77624601;stroke-linecap:square;stroke-linejoin:round;stroke-miterlimit:4;stroke-dasharray:none;stroke-dashoffset:0;stroke-opacity:1;paint-order:fill markers stroke"
           id="path4753"
           inkscape:connector-curvature="0" />
        <path
           d="m 48.119112,27.654235 c 0.179927,-1.267724 0.359855,-2.450775 0.395841,-2.873667 0.791682,-5.323968 1.043581,-5.828686 2.986802,-5.718392 1.439422,-0.06569 1.835264,-0.14515 2.698917,-0.557128 -2.087163,5.476234 -2.698917,7.246304 -3.202715,9.187143 -1.043582,4.050551 -1.655336,8.868852 -1.655336,13.017835 0,3.894964 0.755697,6.275775 1.94322,6.291432 2.84286,0.03748 6.585356,-6.941045 9.068365,-16.899736 1.403435,-5.569922 2.375045,-12.330962 2.375045,-16.479944 0,-1.947482 -0.251902,-3.2209 -0.935624,-4.584684 -0.863657,0.5813251 -1.295483,0.998997 -2.411031,2.254386 0.431826,2.291868 0.575764,3.648535 0.575764,5.850036 0,5.165061 -0.647736,10.5756 -1.871248,15.470508 -1.403437,5.569923 -3.382642,9.608137 -4.714108,9.590583 -0.791682,-0.01044 -1.439423,-2.220478 -1.439423,-5.099364 0,-3.894963 0.575769,-8.544393 1.583365,-12.849437 0.719711,-2.954072 1.403437,-5.146557 3.094759,-9.696607 0.03599,-0.253545 0.03599,-0.507564 0.03599,-0.592237 0,-0.254019 0,-0.338693 -0.07197,-0.932353 l -0.359856,-0.0047 c -0.395842,1.095532 -0.791683,1.344332 -1.943221,1.32915 l -0.863654,-0.01139 c -2.231105,-0.283435 -2.59096,-0.288179 -2.878845,-0.291975 -0.683725,-0.009 -1.043581,0.24026 -1.259494,0.914799 -0.467813,1.348601 -1.043582,4.897281 -1.763293,10.899584 z"
           style="font-style:normal;font-variant:normal;font-weight:bold;font-stretch:normal;font-size:medium;line-height:74.10853577px;font-family:'URW Chancery L';-inkscape-font-specification:'URW Chancery L Bold';font-variant-ligatures:normal;font-variant-caps:normal;font-variant-numeric:normal;font-feature-settings:normal;text-align:center;writing-mode:lr-tb;text-anchor:middle;fill:#b0ccdb;fill-opacity:0.91935485;fill-rule:evenodd;stroke:none;stroke-width:0.77624601;stroke-linecap:square;stroke-linejoin:round;stroke-miterlimit:4;stroke-dasharray:none;stroke-dashoffset:0;stroke-opacity:1;paint-order:fill markers stroke"
           id="path4755"
           inkscape:connector-curvature="0" />
        <path
           d="m 73.865093,34.598184 c -2.698913,5.468168 -4.426223,7.816241 -5.793672,7.798212 -0.899638,-0.01186 -1.655338,-1.461267 -1.907234,-3.666088 -0.143944,-1.356668 -0.17993,-2.288547 -0.17993,-4.744067 1.619352,-2.349497 2.698919,-4.113398 4.822063,-7.811024 1.943225,-3.445977 2.698919,-6.230227 2.698919,-10.040517 0,-2.963559 -0.79168,-4.752132 -2.051177,-4.768738 -0.79168,-0.01044 -1.36745,0.405337 -2.195116,1.495175 -1.367455,1.844779 -2.590961,4.114822 -3.346661,6.137014 -1.36745,3.876934 -2.590961,13.174846 -2.590961,20.033367 0,4.995715 1.115553,8.143328 2.950815,8.167525 2.12315,0.02799 4.750097,-3.493644 7.592954,-10.145339 z m -7.772878,-3.658752 c 0.611756,-9.051957 2.267088,-16.058001 3.814467,-16.0376 0.611756,0.0081 1.007596,1.452727 1.007596,3.484882 0,4.233655 -0.97161,6.761039 -4.822063,12.552718 z"
           style="font-style:normal;font-variant:normal;font-weight:bold;font-stretch:normal;font-size:medium;line-height:74.10853577px;font-family:'URW Chancery L';-inkscape-font-specification:'URW Chancery L Bold';font-variant-ligatures:normal;font-variant-caps:normal;font-variant-numeric:normal;font-feature-settings:normal;text-align:center;writing-mode:lr-tb;text-anchor:middle;fill:#b0ccdb;fill-opacity:0.91935485;fill-rule:evenodd;stroke:none;stroke-width:0.77624601;stroke-linecap:square;stroke-linejoin:round;stroke-miterlimit:4;stroke-dasharray:none;stroke-dashoffset:0;stroke-opacity:1;paint-order:fill markers stroke"
           id="path4757"
           inkscape:connector-curvature="0" />
        <path
           d="m 73.967429,39.171881 c -0.03596,0.761584 -0.07197,1.438494 -0.07197,1.946533 0,3.640943 1.079568,6.195371 2.662933,6.216247 1.115554,0.01471 2.662934,-1.065642 3.814473,-2.574576 2.123144,-2.850893 3.418627,-7.152142 3.418627,-11.385798 0,-3.132905 -0.251901,-3.813612 -2.267093,-6.803739 -1.223506,-1.87894 -1.727304,-3.494371 -1.727304,-5.695872 0,-2.878887 1.043582,-5.40532 2.267088,-5.389189 0.827672,0.01091 1.439422,0.950382 2.231107,3.331667 1.223506,-2.778082 1.223506,-2.778082 1.691318,-4.380703 -0.719708,-2.041644 -1.403436,-2.89739 -2.411031,-2.910674 -2.626948,-0.03463 -6.009589,7.287328 -6.009589,12.875754 0,2.624867 0.57577,4.664613 1.94322,6.968815 1.799281,2.987281 2.051177,3.752661 2.051177,5.869488 0,3.048234 -1.655337,6.582679 -3.058773,6.564176 -0.79168,-0.01044 -1.403436,-1.034581 -1.76329,-2.902134 -0.251902,-1.273417 -0.323874,-2.544464 -0.35986,-5.423824 -0.395839,0.672166 -0.683722,1.091736 -0.827665,1.343858 -0.287882,0.419569 -0.611756,0.838666 -0.935624,1.342434 z"
           style="font-style:normal;font-variant:normal;font-weight:bold;font-stretch:normal;font-size:medium;line-height:74.10853577px;font-family:'URW Chancery L';-inkscape-font-specification:'URW Chancery L Bold';font-variant-ligatures:normal;font-variant-caps:normal;font-variant-numeric:normal;font-feature-settings:normal;text-align:center;writing-mode:lr-tb;text-anchor:middle;fill:#b0ccdb;fill-opacity:0.91935485;fill-rule:evenodd;stroke:none;stroke-width:0.77624601;stroke-linecap:square;stroke-linejoin:round;stroke-miterlimit:4;stroke-dasharray:none;stroke-dashoffset:0;stroke-opacity:1;paint-order:fill markers stroke"
           id="path4759"
           inkscape:connector-curvature="0" />
      </g>
    </g>
  </g>
</svg>
