<?xml version="1.0" encoding="UTF-8" standalone="no"?>
<!-- Created with Inkscape (http://www.inkscape.org/) -->

<svg
   xmlns:dc="http://purl.org/dc/elements/1.1/"
   xmlns:cc="http://creativecommons.org/ns#"
   xmlns:rdf="http://www.w3.org/1999/02/22-rdf-syntax-ns#"
   xmlns:svg="http://www.w3.org/2000/svg"
   xmlns="http://www.w3.org/2000/svg"
   xmlns:xlink="http://www.w3.org/1999/xlink"
   xmlns:sodipodi="http://sodipodi.sourceforge.net/DTD/sodipodi-0.dtd"
   xmlns:inkscape="http://www.inkscape.org/namespaces/inkscape"
   version="1.0"
   width="96"
   height="96"
   id="svg2408"
   inkscape:version="0.48.5 r10040"
   sodipodi:docname="acroread.svg">
  <sodipodi:namedview
     pagecolor="#ffffff"
     bordercolor="#666666"
     borderopacity="1"
     objecttolerance="10"
     gridtolerance="10"
     guidetolerance="10"
     inkscape:pageopacity="0"
     inkscape:pageshadow="2"
     inkscape:window-width="1280"
     inkscape:window-height="963"
     id="namedview59"
     showgrid="false"
     inkscape:zoom="1.9125878"
     inkscape:cx="-75.766372"
     inkscape:cy="21.656411"
     inkscape:window-x="0"
     inkscape:window-y="0"
     inkscape:window-maximized="1"
     inkscape:current-layer="layer1-6" />
  <defs
     id="defs2410">
    <linearGradient
       id="linearGradient3825">
      <stop
         id="stop3827"
         style="stop-color:#501616;stop-opacity:1"
         offset="0" />
      <stop
         id="stop3829"
         style="stop-color:#501616;stop-opacity:0"
         offset="1" />
    </linearGradient>
    <linearGradient
       id="linearGradient3694">
      <stop
         id="stop3696"
         style="stop-color:#e6e6e6;stop-opacity:1"
         offset="0" />
      <stop
         id="stop3698"
         style="stop-color:#f5f5f5;stop-opacity:1"
         offset="1" />
    </linearGradient>
    <linearGradient
       id="linearGradient3688">
      <stop
         id="stop3690"
         style="stop-color:#b30707;stop-opacity:1"
         offset="0" />
      <stop
         id="stop3692"
         style="stop-color:#e42c0d;stop-opacity:1"
         offset="1" />
    </linearGradient>
    <linearGradient
       x1="45.447727"
       y1="92.539597"
       x2="45.447727"
       y2="7.0165396"
       id="ButtonShadow"
       gradientUnits="userSpaceOnUse"
       gradientTransform="scale(1.0058652,0.994169)">
      <stop
         id="stop3750"
         style="stop-color:#000000;stop-opacity:1"
         offset="0" />
      <stop
         id="stop3752"
         style="stop-color:#000000;stop-opacity:0.58823532"
         offset="1" />
    </linearGradient>
    <linearGradient
       id="linearGradient3737">
      <stop
         id="stop3739"
         style="stop-color:#ffffff;stop-opacity:1"
         offset="0" />
      <stop
         id="stop3741"
         style="stop-color:#ffffff;stop-opacity:0"
         offset="1" />
    </linearGradient>
    <filter
       color-interpolation-filters="sRGB"
       id="filter3174">
      <feGaussianBlur
         id="feGaussianBlur3176"
         stdDeviation="1.71" />
    </filter>
    <linearGradient
       x1="36.357143"
       y1="6"
       x2="36.357143"
       y2="63.893143"
       id="linearGradient3188"
       xlink:href="#linearGradient3737"
       gradientUnits="userSpaceOnUse" />
    <filter
       x="-0.192"
       y="-0.192"
       width="1.3839999"
       height="1.3839999"
       color-interpolation-filters="sRGB"
       id="filter3794">
      <feGaussianBlur
         id="feGaussianBlur3796"
         stdDeviation="5.28" />
    </filter>
    <linearGradient
       x1="48"
       y1="20.220806"
       x2="48"
       y2="138.66119"
       id="linearGradient3613"
       xlink:href="#linearGradient3737"
       gradientUnits="userSpaceOnUse" />
    <radialGradient
       cx="48"
       cy="90.171875"
       r="42"
       fx="48"
       fy="90.171875"
       id="radialGradient3619"
       xlink:href="#linearGradient3737"
       gradientUnits="userSpaceOnUse"
       gradientTransform="matrix(1.1573129,0,0,0.99590774,-7.5510206,0.19713193)" />
    <clipPath
       id="clipPath3613">
      <rect
         width="84"
         height="84"
         rx="6"
         ry="6"
         x="6"
         y="6"
         id="rect3615"
         style="fill:#ffffff;fill-opacity:1;fill-rule:nonzero;stroke:none" />
    </clipPath>
    <linearGradient
       x1="48"
       y1="90"
       x2="48"
       y2="5.9877172"
       id="linearGradient3617"
       xlink:href="#linearGradient3688"
       gradientUnits="userSpaceOnUse" />
    <linearGradient
       x1="45.447727"
       y1="92.539597"
       x2="45.447727"
       y2="7.0165396"
       id="ButtonShadow-0"
       gradientUnits="userSpaceOnUse"
       gradientTransform="matrix(1.0058652,0,0,0.994169,100,0)">
      <stop
         id="stop3750-8"
         style="stop-color:#000000;stop-opacity:1"
         offset="0" />
      <stop
         id="stop3752-5"
         style="stop-color:#000000;stop-opacity:0.58823532"
         offset="1" />
    </linearGradient>
    <linearGradient
       x1="32.251034"
       y1="6.1317081"
       x2="32.251034"
       y2="90.238609"
       id="linearGradient3780"
       xlink:href="#ButtonShadow-0"
       gradientUnits="userSpaceOnUse"
       gradientTransform="matrix(1.0238095,0,0,1.0119048,-1.1428571,-98.071429)" />
    <linearGradient
       x1="32.251034"
       y1="6.1317081"
       x2="32.251034"
       y2="90.238609"
       id="linearGradient3772"
       xlink:href="#ButtonShadow-0"
       gradientUnits="userSpaceOnUse"
       gradientTransform="matrix(1.0238095,0,0,1.0119048,-1.1428571,-98.071429)" />
    <linearGradient
       x1="32.251034"
       y1="6.1317081"
       x2="32.251034"
       y2="90.238609"
       id="linearGradient3725"
       xlink:href="#ButtonShadow-0"
       gradientUnits="userSpaceOnUse"
       gradientTransform="matrix(1.0238095,0,0,1.0119048,-1.1428571,-98.071429)" />
    <linearGradient
       x1="32.251034"
       y1="6.1317081"
       x2="32.251034"
       y2="90.238609"
       id="linearGradient3721"
       xlink:href="#ButtonShadow-0"
       gradientUnits="userSpaceOnUse"
       gradientTransform="translate(0,-97)" />
    <linearGradient
       x1="32.251034"
       y1="6.1317081"
       x2="32.251034"
       y2="90.238609"
       id="linearGradient3026"
       xlink:href="#ButtonShadow-0"
       gradientUnits="userSpaceOnUse"
       gradientTransform="matrix(1.0238095,0,0,1.0119048,-1.1428571,-98.071429)" />
    <linearGradient
       x1="62.336792"
       y1="79.015236"
       x2="62.336792"
       y2="12.797539"
       id="linearGradient2936"
       xlink:href="#linearGradient3694"
       gradientUnits="userSpaceOnUse"
       gradientTransform="matrix(0.87485882,0,0,0.90698611,2.762671,6.33428)" />
    <linearGradient
       x1="55"
       y1="18"
       x2="55"
       y2="112"
       id="linearGradient3831"
       xlink:href="#linearGradient3825"
       gradientUnits="userSpaceOnUse" />
    <clipPath
       clipPathUnits="userSpaceOnUse"
       id="clipPath4156-4">
      <path
         style="opacity:0.6;fill:#ffffff;fill-opacity:1;stroke:none"
         d="m 27.046336,-55.695463 -14.21366,13.321486 0.06127,0 15.653407,21.770763 10.231384,-10.546177 C 38.561832,-32.30156 27.468089,-54.819245 27.046336,-55.695463 z M 9.6468554,-39.382809 -5.2407289,-25.32124 15.987863,-7.8059573 26.372412,-18.382966 9.6468554,-39.382809 z m 31.4906096,12.951445 -9.741259,9.713584 8.944804,12.4580526 7.780753,-7.5550056 -6.984298,-14.616631 z m -49.8397109,4.378822 -13.7541661,12.9822847 26.2830181,13.84571 0.06127,-0.0617 -0.122531,-0.0617 L 13.598503,-5.4007374 -8.7022409,-22.052595 z m 38.0154159,7.400825 -9.802525,9.7752596 11.579232,9.5594001 7.62759,-7.40083 -8.669108,-11.0087257 -0.735189,-0.925104 z m 20.187073,5.6739697 -7.382526,7.2158 6.187844,8.54179 5.820249,-6.13651996 -4.625567,-9.62107004 z m -32.195166,6.32154 -9.5574606,9.49772 13.6622686,7.1849703 7.933918,-7.6783603 -12.038726,-9.00433 z m 23.311629,2.37443004 -7.10683,6.93826996 8.362778,6.9074403 5.360756,-5.6739699 -0.06127,-0.0925 -0.0919,0.12335 -6.463539,-8.20258036 z m -8.730374,8.54178036 -7.505057,7.3391599 10.353916,5.45811 c 1.397496,-1.32103 5.67514,-6.12292 5.850882,-6.32154 L 31.886332,8.2600031 z"
         id="path4158-0"
         inkscape:connector-curvature="0" />
    </clipPath>
    <linearGradient
       inkscape:collect="always"
       id="linearGradient4213-7">
      <stop
         style="stop-color:#ffffff;stop-opacity:1;"
         offset="0"
         id="stop4215-6" />
      <stop
         style="stop-color:#ffffff;stop-opacity:0;"
         offset="1"
         id="stop4217-5" />
    </linearGradient>
    <linearGradient
       y2="14.514202"
       x2="50.527882"
       y1="-28.64156"
       x1="2.7713892"
       gradientUnits="userSpaceOnUse"
       id="linearGradient4707"
       xlink:href="#linearGradient4213-7"
       inkscape:collect="always" />
    <linearGradient
       id="linearGradient4746">
      <stop
         style="stop-color:#ffffff;stop-opacity:0;"
         offset="0"
         id="stop4748" />
      <stop
         id="stop4750"
         offset="0.30000001"
         style="stop-color:#ffffff;stop-opacity:1;" />
      <stop
         style="stop-color:#ffffff;stop-opacity:1;"
         offset="0.69999999"
         id="stop4752" />
      <stop
         style="stop-color:#ffffff;stop-opacity:0;"
         offset="1"
         id="stop4754" />
    </linearGradient>
    <linearGradient
       y2="48.399288"
       x2="83.68869"
       y1="49.026676"
       x1="6.9722528"
       gradientTransform="matrix(1,0,0,0.94706844,0,0.7239241)"
       gradientUnits="userSpaceOnUse"
       id="linearGradient4705"
       xlink:href="#linearGradient4341-9-4-5-2"
       inkscape:collect="always" />
    <linearGradient
       id="linearGradient4341-9-4-5-2">
      <stop
         style="stop-color:#ffffff;stop-opacity:0;"
         offset="0"
         id="stop4343-2-5-2-4" />
      <stop
         id="stop3954-0-91"
         offset="0.30000001"
         style="stop-color:#ffffff;stop-opacity:1;" />
      <stop
         style="stop-color:#ffffff;stop-opacity:1;"
         offset="0.69999999"
         id="stop3956-8-3" />
      <stop
         style="stop-color:#ffffff;stop-opacity:0;"
         offset="1"
         id="stop4347-6-0-8-7" />
    </linearGradient>
    <linearGradient
       y2="90.120811"
       x2="45.093063"
       y1="5.2661309"
       x1="46.03289"
       gradientUnits="userSpaceOnUse"
       id="linearGradient4703"
       xlink:href="#linearGradient4341-9-4-5-2"
       inkscape:collect="always" />
    <linearGradient
       id="linearGradient4727">
      <stop
         style="stop-color:#adb9c1;stop-opacity:1;"
         offset="0"
         id="stop4729" />
      <stop
         id="stop4731"
         offset="0.25"
         style="stop-color:#ffffff;stop-opacity:1;" />
      <stop
         id="stop4733"
         offset="0.5"
         style="stop-color:#909eaa;stop-opacity:1;" />
      <stop
         style="stop-color:#f9fafb;stop-opacity:1;"
         offset="0.75"
         id="stop4735" />
      <stop
         style="stop-color:#adb3c1;stop-opacity:1;"
         offset="1"
         id="stop4737" />
    </linearGradient>
    <linearGradient
       y2="48"
       x2="94.43325"
       y1="48"
       x1="1.5667458"
       gradientUnits="userSpaceOnUse"
       id="linearGradient4699"
       xlink:href="#linearGradient6139-0"
       inkscape:collect="always" />
    <linearGradient
       id="linearGradient6139-0">
      <stop
         style="stop-color:#adb9c1;stop-opacity:1;"
         offset="0"
         id="stop6141-2" />
      <stop
         id="stop6151-0"
         offset="0.25"
         style="stop-color:#ffffff;stop-opacity:1;" />
      <stop
         id="stop6147-1"
         offset="0.5"
         style="stop-color:#909eaa;stop-opacity:1;" />
      <stop
         style="stop-color:#f9fafb;stop-opacity:1;"
         offset="0.75"
         id="stop6149-4" />
      <stop
         style="stop-color:#adb3c1;stop-opacity:1;"
         offset="1"
         id="stop6143-4" />
    </linearGradient>
    <linearGradient
       y2="48"
       x2="94.43325"
       y1="48"
       x1="1.5667458"
       gradientUnits="userSpaceOnUse"
       id="linearGradient4701"
       xlink:href="#linearGradient6139-0"
       inkscape:collect="always" />
    <linearGradient
       x1="62.336792"
       y1="79.015236"
       x2="62.336792"
       y2="12.797539"
       id="linearGradient2936-5"
       xlink:href="#linearGradient3694-3"
       gradientUnits="userSpaceOnUse"
       gradientTransform="matrix(0.87485882,0,0,0.90698611,2.762671,6.33428)" />
    <linearGradient
       id="linearGradient3694-3">
      <stop
         id="stop3696-7"
         style="stop-color:#e6e6e6;stop-opacity:1"
         offset="0" />
      <stop
         id="stop3698-6"
         style="stop-color:#f5f5f5;stop-opacity:1"
         offset="1" />
    </linearGradient>
    <linearGradient
       x1="55"
       y1="18"
       x2="55"
       y2="112"
       id="linearGradient3831-5"
       xlink:href="#linearGradient3825-2"
       gradientUnits="userSpaceOnUse" />
    <linearGradient
       id="linearGradient3825-2">
      <stop
         id="stop3827-3"
         style="stop-color:#501616;stop-opacity:1"
         offset="0" />
      <stop
         id="stop3829-5"
         style="stop-color:#501616;stop-opacity:0"
         offset="1" />
    </linearGradient>
    <linearGradient
       gradientUnits="userSpaceOnUse"
       xlink:href="#linearGradient4085"
       id="linearGradient4091"
       y2="120"
       x2="58"
       y1="19"
       x1="58" />
    <linearGradient
       gradientTransform="matrix(0.59136097,-0.15844727,-0.15844727,-0.59136097,103.35407,109.29989)"
       gradientUnits="userSpaceOnUse"
       xlink:href="#linearGradient3694-5"
       id="linearGradient4071"
       y2="159.47563"
       x2="-50.243786"
       y1="72.699486"
       x1="-73.494293" />
    <linearGradient
       gradientTransform="matrix(0.59136097,-0.15844727,-0.15844727,-0.59136097,103.35407,108.29989)"
       gradientUnits="userSpaceOnUse"
       xlink:href="#linearGradient3694-5"
       id="linearGradient4018"
       y2="159.47563"
       x2="-50.243786"
       y1="72.699486"
       x1="-73.494293" />
    <linearGradient
       gradientTransform="matrix(1.0238095,0,0,1.0119048,-1.1428571,-98.071429)"
       gradientUnits="userSpaceOnUse"
       xlink:href="#ButtonShadow-0-0"
       id="linearGradient3026-2"
       y2="90.238609"
       x2="32.251034"
       y1="6.1317081"
       x1="32.251034" />
    <linearGradient
       gradientTransform="translate(0,-97)"
       gradientUnits="userSpaceOnUse"
       xlink:href="#ButtonShadow-0-0"
       id="linearGradient3721-2"
       y2="90.238609"
       x2="32.251034"
       y1="6.1317081"
       x1="32.251034" />
    <linearGradient
       gradientTransform="matrix(1.0238095,0,0,1.0119048,-1.1428571,-98.071429)"
       gradientUnits="userSpaceOnUse"
       xlink:href="#ButtonShadow-0-0"
       id="linearGradient3725-7"
       y2="90.238609"
       x2="32.251034"
       y1="6.1317081"
       x1="32.251034" />
    <linearGradient
       gradientTransform="matrix(1.0238095,0,0,1.0119048,-1.1428571,-98.071429)"
       gradientUnits="userSpaceOnUse"
       xlink:href="#ButtonShadow-0-0"
       id="linearGradient3772-8"
       y2="90.238609"
       x2="32.251034"
       y1="6.1317081"
       x1="32.251034" />
    <linearGradient
       gradientTransform="matrix(1.0238095,0,0,1.0119048,-1.1428571,-98.071429)"
       gradientUnits="userSpaceOnUse"
       xlink:href="#ButtonShadow-0-0"
       id="linearGradient3780-0"
       y2="90.238609"
       x2="32.251034"
       y1="6.1317081"
       x1="32.251034" />
    <linearGradient
       gradientTransform="matrix(1.0058652,0,0,0.994169,100,0)"
       gradientUnits="userSpaceOnUse"
       id="ButtonShadow-0-0"
       y2="7.0165396"
       x2="45.447727"
       y1="92.539597"
       x1="45.447727">
      <stop
         offset="0"
         style="stop-color:#000000;stop-opacity:1"
         id="stop3750-8-7" />
      <stop
         offset="1"
         style="stop-color:#000000;stop-opacity:0.58823532"
         id="stop3752-5-5" />
    </linearGradient>
    <linearGradient
       gradientUnits="userSpaceOnUse"
       xlink:href="#linearGradient3688-5"
       id="linearGradient3617-6"
       y2="5.9877172"
       x2="48"
       y1="90"
       x1="48" />
    <clipPath
       id="clipPath3613-3">
      <rect
         style="fill:#ffffff;fill-opacity:1;fill-rule:nonzero;stroke:none"
         id="rect3615-8"
         y="6"
         x="6"
         ry="6"
         rx="6"
         height="84"
         width="84" />
    </clipPath>
    <radialGradient
       gradientTransform="matrix(1.1573129,0,0,0.99590774,-7.5510206,0.19713193)"
       gradientUnits="userSpaceOnUse"
       xlink:href="#linearGradient3737-5"
       id="radialGradient3619-0"
       fy="90.171875"
       fx="48"
       r="42"
       cy="90.171875"
       cx="48" />
    <linearGradient
       gradientUnits="userSpaceOnUse"
       xlink:href="#linearGradient3737-5"
       id="linearGradient3613-6"
       y2="138.66119"
       x2="48"
       y1="20.220806"
       x1="48" />
    <filter
       id="filter3794-8"
       color-interpolation-filters="sRGB"
       height="1.3839999"
       width="1.3839999"
       y="-0.192"
       x="-0.192">
      <feGaussianBlur
         stdDeviation="5.28"
         id="feGaussianBlur3796-2" />
    </filter>
    <linearGradient
       gradientUnits="userSpaceOnUse"
       xlink:href="#linearGradient3737-5"
       id="linearGradient3188-1"
       y2="63.893143"
       x2="36.357143"
       y1="6"
       x1="36.357143" />
    <filter
       id="filter3174-6"
       color-interpolation-filters="sRGB">
      <feGaussianBlur
         stdDeviation="1.71"
         id="feGaussianBlur3176-1" />
    </filter>
    <linearGradient
       id="linearGradient3737-5">
      <stop
         offset="0"
         style="stop-color:#ffffff;stop-opacity:1"
         id="stop3739-6" />
      <stop
         offset="1"
         style="stop-color:#ffffff;stop-opacity:0"
         id="stop3741-9" />
    </linearGradient>
    <linearGradient
       gradientTransform="scale(1.0058652,0.994169)"
       gradientUnits="userSpaceOnUse"
       id="ButtonShadow-6"
       y2="7.0165396"
       x2="45.447727"
       y1="92.539597"
       x1="45.447727">
      <stop
         offset="0"
         style="stop-color:#000000;stop-opacity:1"
         id="stop3750-7" />
      <stop
         offset="1"
         style="stop-color:#000000;stop-opacity:0.58823532"
         id="stop3752-1" />
    </linearGradient>
    <linearGradient
       id="linearGradient3688-5">
      <stop
         offset="0"
         style="stop-color:#ad0d0d;stop-opacity:1"
         id="stop3690-6" />
      <stop
         offset="1"
         style="stop-color:#e02f11;stop-opacity:1"
         id="stop3692-4" />
    </linearGradient>
    <linearGradient
       id="linearGradient3694-5">
      <stop
         offset="0"
         style="stop-color:#e6e6e6;stop-opacity:1"
         id="stop3696-3" />
      <stop
         offset="1"
         style="stop-color:#f5f5f5;stop-opacity:1"
         id="stop3698-7" />
    </linearGradient>
    <linearGradient
       id="linearGradient4085">
      <stop
         offset="0"
         style="stop-color:#782121;stop-opacity:1"
         id="stop4087" />
      <stop
         offset="1"
         style="stop-color:#782121;stop-opacity:0"
         id="stop4089" />
    </linearGradient>
    <linearGradient
       gradientTransform="matrix(0.59136097,-0.15844727,-0.15844727,-0.59136097,103.35407,108.29989)"
       gradientUnits="userSpaceOnUse"
       xlink:href="#linearGradient3694-5-5"
       id="linearGradient4018-4"
       y2="159.47563"
       x2="-50.243786"
       y1="72.699486"
       x1="-73.494293" />
    <linearGradient
       id="linearGradient3694-5-5">
      <stop
         offset="0"
         style="stop-color:#e6e6e6;stop-opacity:1"
         id="stop3696-3-1" />
      <stop
         offset="1"
         style="stop-color:#f5f5f5;stop-opacity:1"
         id="stop3698-7-3" />
    </linearGradient>
    <linearGradient
       gradientTransform="matrix(0.59136097,-0.15844727,-0.15844727,-0.59136097,103.35407,109.29989)"
       gradientUnits="userSpaceOnUse"
       xlink:href="#linearGradient3694-5-5"
       id="linearGradient4071-6"
       y2="159.47563"
       x2="-50.243786"
       y1="72.699486"
       x1="-73.494293" />
    <linearGradient
       id="linearGradient4256">
      <stop
         offset="0"
         style="stop-color:#e6e6e6;stop-opacity:1"
         id="stop4258" />
      <stop
         offset="1"
         style="stop-color:#f5f5f5;stop-opacity:1"
         id="stop4260" />
    </linearGradient>
    <linearGradient
       gradientUnits="userSpaceOnUse"
       xlink:href="#linearGradient4085-9"
       id="linearGradient4091-9"
       y2="120"
       x2="58"
       y1="19"
       x1="58" />
    <linearGradient
       id="linearGradient4085-9">
      <stop
         offset="0"
         style="stop-color:#782121;stop-opacity:1"
         id="stop4087-8" />
      <stop
         offset="1"
         style="stop-color:#782121;stop-opacity:0"
         id="stop4089-7" />
    </linearGradient>
    <linearGradient
       y2="120"
       x2="58"
       y1="19"
       x1="58"
       gradientUnits="userSpaceOnUse"
       id="linearGradient4271"
       xlink:href="#linearGradient4085-9"
       inkscape:collect="always" />
    <linearGradient
       id="linearGradient3826">
      <stop
         id="stop3828"
         style="stop-color:#ff3920;stop-opacity:1"
         offset="0" />
      <stop
         id="stop3830"
         style="stop-color:#ff3920;stop-opacity:0"
         offset="1" />
    </linearGradient>
    <linearGradient
       id="linearGradient3737-0">
      <stop
         id="stop3739-7"
         style="stop-color:#ffffff;stop-opacity:1"
         offset="0" />
      <stop
         id="stop3741-90"
         style="stop-color:#ffffff;stop-opacity:0"
         offset="1" />
    </linearGradient>
    <linearGradient
       id="linearGradient3700">
      <stop
         id="stop3702"
         style="stop-color:#970303;stop-opacity:1"
         offset="0" />
      <stop
         id="stop3704"
         style="stop-color:#f31d0c;stop-opacity:1"
         offset="1" />
    </linearGradient>
    <linearGradient
       x1="48"
       y1="90"
       x2="48"
       y2="5.9877172"
       id="linearGradient3706"
       xlink:href="#linearGradient3700"
       gradientUnits="userSpaceOnUse" />
    <linearGradient
       x1="36.357143"
       y1="6"
       x2="36.357143"
       y2="63.893143"
       id="linearGradient3188-5"
       xlink:href="#linearGradient3737-0"
       gradientUnits="userSpaceOnUse"
       gradientTransform="translate(100,0)" />
    <radialGradient
       cx="48"
       cy="-14.78724"
       r="42"
       fx="48"
       fy="-14.78724"
       id="radialGradient3832"
       xlink:href="#linearGradient3826"
       gradientUnits="userSpaceOnUse"
       gradientTransform="matrix(0,0.99292131,-1.0017097,0,33.187478,-41.553843)" />
    <linearGradient
       id="linearGradient3737-1">
      <stop
         id="stop3739-0"
         style="stop-color:#ffffff;stop-opacity:1"
         offset="0" />
      <stop
         id="stop3741-5"
         style="stop-color:#ffffff;stop-opacity:0"
         offset="1" />
    </linearGradient>
    <linearGradient
       x1="36.357143"
       y1="6"
       x2="36.357143"
       y2="63.893143"
       id="linearGradient2956"
       xlink:href="#linearGradient3737-1"
       gradientUnits="userSpaceOnUse" />
    <linearGradient
       x1="45.447727"
       y1="92.539597"
       x2="45.447727"
       y2="7.0165396"
       id="ButtonShadow-3"
       gradientUnits="userSpaceOnUse"
       gradientTransform="scale(1.0058652,0.994169)">
      <stop
         id="stop3750-9"
         style="stop-color:#000000;stop-opacity:1"
         offset="0" />
      <stop
         id="stop3752-3"
         style="stop-color:#000000;stop-opacity:0.58823532"
         offset="1" />
    </linearGradient>
    <filter
       color-interpolation-filters="sRGB"
       id="filter3174-2">
      <feGaussianBlur
         id="feGaussianBlur3176-4"
         stdDeviation="1.71" />
    </filter>
    <linearGradient
       x1="45.447727"
       y1="92.539597"
       x2="45.447727"
       y2="7.0165396"
       id="linearGradient2964"
       xlink:href="#ButtonShadow-3"
       gradientUnits="userSpaceOnUse"
       gradientTransform="scale(1.0058652,0.994169)" />
    <linearGradient
       id="linearGradient3737-8">
      <stop
         id="stop3739-1"
         style="stop-color:#ffffff;stop-opacity:1"
         offset="0" />
      <stop
         id="stop3741-2"
         style="stop-color:#ffffff;stop-opacity:0"
         offset="1" />
    </linearGradient>
    <radialGradient
       cx="48"
       cy="90.171875"
       r="42"
       fx="48"
       fy="90.171875"
       id="radialGradient2855"
       xlink:href="#linearGradient3737-8"
       gradientUnits="userSpaceOnUse"
       gradientTransform="matrix(1.1573129,0,0,0.99590774,-7.551021,0.1971319)" />
    <linearGradient
       id="linearGradient3737-11">
      <stop
         id="stop3739-5"
         style="stop-color:#ffffff;stop-opacity:1"
         offset="0" />
      <stop
         id="stop3741-9-6"
         style="stop-color:#ffffff;stop-opacity:0"
         offset="1" />
    </linearGradient>
    <clipPath
       id="clipPath3613-5">
      <rect
         width="84"
         height="84"
         rx="6"
         ry="6"
         x="6"
         y="6"
         id="rect3615-1"
         style="fill:#ffffff;fill-opacity:1;fill-rule:nonzero;stroke:none" />
    </clipPath>
    <filter
       x="-0.192"
       y="-0.192"
       width="1.3839999"
       height="1.3839999"
       color-interpolation-filters="sRGB"
       id="filter3794-7">
      <feGaussianBlur
         id="feGaussianBlur3796-7"
         stdDeviation="5.28" />
    </filter>
    <linearGradient
       x1="48"
       y1="20.220806"
       x2="48"
       y2="138.66119"
       id="linearGradient2862"
       xlink:href="#linearGradient3737-11"
       gradientUnits="userSpaceOnUse" />
    <linearGradient
       x1="45.447727"
       y1="92.539597"
       x2="45.447727"
       y2="7.0165396"
       id="ButtonShadow-0-1"
       gradientUnits="userSpaceOnUse"
       gradientTransform="matrix(1.0058652,0,0,0.994169,100,0)">
      <stop
         id="stop3750-8-6"
         style="stop-color:#000000;stop-opacity:1"
         offset="0" />
      <stop
         id="stop3752-5-4"
         style="stop-color:#000000;stop-opacity:0.58823532"
         offset="1" />
    </linearGradient>
    <linearGradient
       x1="32.251034"
       y1="6.1317081"
       x2="32.251034"
       y2="90.238609"
       id="linearGradient3780-8"
       xlink:href="#ButtonShadow-0-1"
       gradientUnits="userSpaceOnUse"
       gradientTransform="matrix(1.0238095,0,0,1.0119048,-1.1428571,-98.071429)" />
    <linearGradient
       x1="32.251034"
       y1="6.1317081"
       x2="32.251034"
       y2="90.238609"
       id="linearGradient3772-9"
       xlink:href="#ButtonShadow-0-1"
       gradientUnits="userSpaceOnUse"
       gradientTransform="matrix(1.0238095,0,0,1.0119048,-1.1428571,-98.071429)" />
    <linearGradient
       x1="32.251034"
       y1="6.1317081"
       x2="32.251034"
       y2="90.238609"
       id="linearGradient3725-72"
       xlink:href="#ButtonShadow-0-1"
       gradientUnits="userSpaceOnUse"
       gradientTransform="matrix(1.0238095,0,0,1.0119048,-1.1428571,-98.071429)" />
    <linearGradient
       x1="32.251034"
       y1="6.1317081"
       x2="32.251034"
       y2="90.238609"
       id="linearGradient3721-4"
       xlink:href="#ButtonShadow-0-1"
       gradientUnits="userSpaceOnUse"
       gradientTransform="translate(0,-97)" />
    <linearGradient
       x1="32.251034"
       y1="6.1317081"
       x2="32.251034"
       y2="90.238609"
       id="linearGradient3059"
       xlink:href="#ButtonShadow-0-1"
       gradientUnits="userSpaceOnUse"
       gradientTransform="matrix(1.0238095,0,0,1.0119048,-1.1428571,-98.071429)" />
    <linearGradient
       y2="14.514202"
       x2="50.527882"
       y1="-28.64156"
       x1="2.7713892"
       gradientUnits="userSpaceOnUse"
       id="linearGradient4794"
       xlink:href="#linearGradient4213-7-0"
       inkscape:collect="always" />
    <radialGradient
       r="7.0037241"
       fy="15.704967"
       fx="38.911999"
       cy="15.704967"
       cx="38.911999"
       gradientTransform="matrix(1,0,0,1.0238493,0,-0.37455191)"
       gradientUnits="userSpaceOnUse"
       id="radialGradient4792"
       xlink:href="#linearGradient6003"
       inkscape:collect="always" />
    <linearGradient
       y2="87.015625"
       x2="94"
       y1="87.015625"
       x1="2"
       gradientTransform="translate(-5.9348566,-15.85999)"
       gradientUnits="userSpaceOnUse"
       id="linearGradient4790"
       xlink:href="#linearGradient4160"
       inkscape:collect="always" />
    <radialGradient
       r="46"
       fy="49.015625"
       fx="48"
       cy="49.015625"
       cx="48"
       gradientTransform="matrix(1,0,0,0.06487772,-5.9348567,61.975612)"
       gradientUnits="userSpaceOnUse"
       id="radialGradient4788"
       xlink:href="#linearGradient4205"
       inkscape:collect="always" />
    <linearGradient
       id="linearGradient4205"
       inkscape:collect="always">
      <stop
         id="stop4207"
         offset="0"
         style="stop-color:#ffffff;stop-opacity:1;" />
      <stop
         id="stop4209"
         offset="1"
         style="stop-color:#ffffff;stop-opacity:0;" />
    </linearGradient>
    <radialGradient
       r="46"
       fy="49.015625"
       fx="48"
       cy="49.015625"
       cx="48"
       gradientTransform="matrix(1,0,0,0.06487772,-5.9348567,61.975612)"
       gradientUnits="userSpaceOnUse"
       id="radialGradient6541"
       xlink:href="#linearGradient4205"
       inkscape:collect="always" />
    <linearGradient
       id="linearGradient4160">
      <stop
         style="stop-color:#000000;stop-opacity:0.47058824;"
         offset="0"
         id="stop4170" />
      <stop
         id="stop4186"
         offset="0.05958231"
         style="stop-color:#000000;stop-opacity:0.96470588;" />
      <stop
         id="stop4182"
         offset="0.14434318"
         style="stop-color:#000000;stop-opacity:0;" />
      <stop
         id="stop4180"
         offset="0.49595019"
         style="stop-color:#000000;stop-opacity:1;" />
      <stop
         id="stop4178"
         offset="0.86073709"
         style="stop-color:#000000;stop-opacity:0;" />
      <stop
         style="stop-color:#000000;stop-opacity:0.98823529;"
         offset="0.95406371"
         id="stop4184" />
      <stop
         style="stop-color:#000000;stop-opacity:0.47058824;"
         offset="1"
         id="stop4168" />
    </linearGradient>
    <linearGradient
       gradientTransform="translate(-5.9348566,-15.85999)"
       y2="87.015625"
       x2="94"
       y1="87.015625"
       x1="2"
       gradientUnits="userSpaceOnUse"
       id="linearGradient6543"
       xlink:href="#linearGradient4160"
       inkscape:collect="always" />
    <linearGradient
       id="linearGradient6003"
       inkscape:collect="always">
      <stop
         id="stop6005"
         offset="0"
         style="stop-color:#ffffff;stop-opacity:1;" />
      <stop
         id="stop6007"
         offset="1"
         style="stop-color:#ffffff;stop-opacity:0;" />
    </linearGradient>
    <radialGradient
       r="7.0037241"
       fy="15.704967"
       fx="38.911999"
       cy="15.704967"
       cx="38.911999"
       gradientTransform="matrix(1,0,0,1.0238493,0,-0.37455191)"
       gradientUnits="userSpaceOnUse"
       id="radialGradient6551"
       xlink:href="#linearGradient6003"
       inkscape:collect="always" />
    <clipPath
       id="clipPath4156-4-4"
       clipPathUnits="userSpaceOnUse">
      <path
         inkscape:connector-curvature="0"
         id="path4158-0-6"
         d="m 27.046336,-55.695463 -14.21366,13.321486 0.06127,0 15.653407,21.770763 10.231384,-10.546177 C 38.561832,-32.30156 27.468089,-54.819245 27.046336,-55.695463 z M 9.6468554,-39.382809 -5.2407289,-25.32124 15.987863,-7.8059573 26.372412,-18.382966 9.6468554,-39.382809 z m 31.4906096,12.951445 -9.741259,9.713584 8.944804,12.4580526 7.780753,-7.5550056 -6.984298,-14.616631 z m -49.8397109,4.378822 -13.7541661,12.9822847 26.2830181,13.84571 0.06127,-0.0617 -0.122531,-0.0617 L 13.598503,-5.4007374 -8.7022409,-22.052595 z m 38.0154159,7.400825 -9.802525,9.7752596 11.579232,9.5594001 7.62759,-7.40083 -8.669108,-11.0087257 -0.735189,-0.925104 z m 20.187073,5.6739697 -7.382526,7.2158 6.187844,8.54179 5.820249,-6.13651996 -4.625567,-9.62107004 z m -32.195166,6.32154 -9.5574606,9.49772 13.6622686,7.1849703 7.933918,-7.6783603 -12.038726,-9.00433 z m 23.311629,2.37443004 -7.10683,6.93826996 8.362778,6.9074403 5.360756,-5.6739699 -0.06127,-0.0925 -0.0919,0.12335 -6.463539,-8.20258036 z m -8.730374,8.54178036 -7.505057,7.3391599 10.353916,5.45811 c 1.397496,-1.32103 5.67514,-6.12292 5.850882,-6.32154 L 31.886332,8.2600031 z"
         style="opacity:0.6;fill:#ffffff;fill-opacity:1;stroke:none" />
    </clipPath>
    <linearGradient
       id="linearGradient4213-7-0"
       inkscape:collect="always">
      <stop
         id="stop4215-6-2"
         offset="0"
         style="stop-color:#ffffff;stop-opacity:1;" />
      <stop
         id="stop4217-5-4"
         offset="1"
         style="stop-color:#ffffff;stop-opacity:0;" />
    </linearGradient>
    <linearGradient
       y2="14.514202"
       x2="50.527882"
       y1="-28.64156"
       x1="2.7713892"
       gradientUnits="userSpaceOnUse"
       id="linearGradient6553"
       xlink:href="#linearGradient4213-7-0"
       inkscape:collect="always" />
  </defs>
  <metadata
     id="metadata2413">
    <rdf:RDF>
      <cc:Work
         rdf:about="">
        <dc:format>image/svg+xml</dc:format>
        <dc:type
           rdf:resource="http://purl.org/dc/dcmitype/StillImage" />
        <dc:title></dc:title>
      </cc:Work>
    </rdf:RDF>
  </metadata>
  <g
     transform="translate(0,32)"
     inkscape:label="Layer 1"
     id="layer1">
    <g
       transform="translate(0,-32)"
       id="g4592">
      <g
         inkscape:label="ombre-base"
         id="layer2-5">
        <rect
           style="opacity:0.15;fill:#000000;fill-opacity:1;stroke:none"
           id="rect4266"
           width="96"
           height="96"
           x="0"
           y="0"
           rx="4.0634928"
           ry="4.0634933" />
        <rect
           ry="4.0211644"
           rx="4.0211644"
           y="0.5"
           x="0.5"
           height="95"
           width="95"
           id="rect4240"
           style="opacity:0.15;fill:#000000;fill-opacity:1;stroke:none" />
        <rect
           style="opacity:0.15;fill:#000000;fill-opacity:1;stroke:none"
           id="rect4264"
           width="94"
           height="94"
           x="1"
           y="1"
           rx="3.9788361"
           ry="3.9788361" />
      </g>
      <g
         inkscape:label="colore-globale"
         id="layer4-1"
         style="fill:url(#linearGradient4701);fill-opacity:1">
        <rect
           ry="4.381073"
           rx="4.4314661"
           y="1.5482712"
           x="1.5667458"
           height="92.903458"
           width="92.866508"
           id="rect4476"
           style="fill:url(#linearGradient4699);fill-opacity:1;stroke:none;display:inline" />
      </g>
      <rect
         style="opacity:0.83999999000000003;fill:#d40000;fill-opacity:1;stroke:none"
         id="rect4564"
         width="81"
         height="77"
         x="7.5"
         y="6.8000002" />
      <g
         style="display:inline"
         transform="translate(0,48)"
         inkscape:label="struttura"
         id="layer1-1">
        <g
           id="g3540"
           transform="matrix(1.1078665,0,0,1.0952682,-3.7110067,-52.373354)">
          <g
             id="g4426"
             transform="matrix(1.0052356,0,0,1.0052432,-0.09130939,-0.47285394)">
            <g
               id="g4403"
               transform="matrix(1.0000054,0,0,0.99791236,-18.811946,8.9081587)">
              <g
                 transform="matrix(-0.93513772,0,0,0.50741219,164.9173,-44.868776)"
                 id="g3430">
                <g
                   transform="matrix(-0.6357251,0.0421819,-0.02490483,-1.0515558,92.671979,115.53352)"
                   id="g3446" />
              </g>
              <g
                 id="g4362"
                 transform="matrix(0.55214779,0,0,0.60391504,38.00101,36.337639)" />
              <g
                 id="g4370"
                 transform="matrix(1.0020877,0,0,0.50741219,-77.166961,-44.966244)">
                <g
                   id="g4372"
                   transform="matrix(-0.6357251,0.0421819,-0.02490483,-1.0515558,92.671979,115.53352)" />
              </g>
              <g
                 transform="matrix(-0.54985887,0,0,0.60140527,73.748586,27.648602)"
                 id="g4395">
                <path
                   id="path4397"
                   style="font-size:medium;font-style:normal;font-variant:normal;font-weight:normal;font-stretch:normal;text-indent:0;text-align:start;text-decoration:none;line-height:normal;letter-spacing:normal;word-spacing:normal;text-transform:none;direction:ltr;block-progression:tb;writing-mode:lr-tb;text-anchor:start;baseline-shift:baseline;color:#000000;fill:none;stroke:#000000;stroke-width:0.91645002;stroke-miterlimit:4;stroke-opacity:1;stroke-dasharray:none;marker:none;visibility:visible;display:inline;overflow:visible;enable-background:accumulate;font-family:Sans;-inkscape-font-specification:Sans"
                   d="m 81.416281,73.57243 7.015717,6.674207 c -0.04232,3.967765 0.267984,3.842136 0.209905,6.856172 l -0.233189,-6.885985 -6.851206,-6.554195 c 0.06319,0.02357 -0.14122,-0.0902 -0.141227,-0.0902 z m 0.128518,-116.84693 -132.42878,0 0,116.886744 132.42878,0 z m -0.0068,0.182069 c -0.06596,-0.193099 0.133853,0.166431 -0.130188,-0.06464 l 6.96657,-5.577062 c -3.856986,3.163036 -3.790312,3.114807 -6.836382,5.641697 z M -57.451698,87.684046 c -0.04912,-2.679077 -0.07535,-3.505172 -0.194086,-7.549371 l 6.716657,-6.538949 c -2.13931,2.072124 -2.544718,2.569935 -6.730646,6.617394 0.146859,4.794939 0.163153,4.762112 0.208075,7.470926 z m 6.62685,-131.022557 c -3.898951,-2.68663 -3.781384,-2.595646 -7.538651,-5.119524 3.56574,2.36666 3.494875,2.295153 7.538651,5.119524 z m 133.851173,-7.36451 -135.391831,0 c -4.284327,0 -7.73344,2.768522 -7.73344,6.207448 l 0,127.44745 c 0,3.438927 3.449113,6.207449 7.73344,6.207449 l 135.391831,0 c 4.284326,0 7.73344,-2.768522 7.73344,-6.207449 l 0,-127.44745 c 0,-3.438926 -3.449114,-6.207448 -7.73344,-6.207448 z"
                   inkscape:connector-curvature="0"
                   sodipodi:nodetypes="cccccccccccccccccccccccsssssssss" />
              </g>
            </g>
          </g>
          <path
             style="opacity:0.75605636;fill:url(#linearGradient4703);fill-opacity:1;stroke:none"
             d="m 8.8575421,5.6172779 c -2.2421114,0 -4.0553236,1.7633849 -4.0553236,3.9269464 l 0,76.7690367 c 0,2.163561 1.8132122,3.926947 4.0553236,3.926947 l 75.7359079,0 c 2.242112,0 4.055324,-1.763386 4.055324,-3.926947 l 0,-76.7690367 c 0,-2.1635615 -1.813212,-3.9269464 -4.055324,-3.9269464 l -75.7359079,0 z m -2.5208768,1.7698914 80.7776617,0 0,76.9902727 -80.7776617,0 0,-76.9902727 z"
             id="rect4474"
             inkscape:connector-curvature="0" />
          <path
             inkscape:connector-curvature="0"
             id="path4520"
             d="m 8.8575421,6.0438707 c -2.2421114,0 -4.0553236,1.6700462 -4.0553236,3.7190869 l 0,72.7055314 c 0,2.04904 1.8132122,3.719088 4.0553236,3.719088 l 75.7359079,0 c 2.242112,0 4.055324,-1.670048 4.055324,-3.719088 l 0,-72.7055314 c 0,-2.0490407 -1.813212,-3.7190869 -4.055324,-3.7190869 l -75.7359079,0 z m -2.5208768,1.6762083 80.7776617,0 0,72.915057 -80.7776617,0 0,-72.915057 z"
             style="opacity:0.90363638;fill:url(#linearGradient4705);fill-opacity:1;stroke:none" />
          <path
             style="fill:#000000;fill-opacity:0.51937986;stroke:none"
             d="m 4.8570204,80.162841 0,5.640899 c 0,2.40151 1.924933,4.336651 4.3293319,4.336651 l 75.0782877,0 c 2.404399,0 4.329332,-1.935141 4.329332,-4.336651 l 0,-5.640899 c 0,2.401505 -1.924933,4.336646 -4.329332,4.336646 l -75.0782877,0 c -2.4043989,0 -4.3293319,-1.935141 -4.3293319,-4.336646 z"
             id="rect4466"
             inkscape:connector-curvature="0" />
        </g>
      </g>
      <g
         inkscape:label="luci-superiori"
         id="layer7">
        <rect
           clip-path="url(#clipPath4156-4)"
           ry="3.9569881"
           rx="3.9569874"
           y="-30"
           x="2"
           height="92"
           width="92"
           id="rect4146"
           style="opacity:0.8;fill:url(#linearGradient4707);fill-opacity:1;stroke:none"
           transform="matrix(0.99891115,0,0,1,0.0021777,32.042727)" />
        <path
           inkscape:connector-curvature="0"
           id="rect4190"
           d="M 5.7458937,1.787 C 3.5462186,1.787 1.7683159,3.6473696 1.763558,5.9429206 L 1.6,84.85541 c 2.1117646,2.843617 1.83765,2.719224 5.3536755,3.021845 C 8.0064488,79.013649 16.427783,56.045295 34.331254,36.838908 49.801067,20.243287 71.107267,5.1575498 92.385215,5.1575498 c 0.538595,0 1.062975,0.022399 1.599205,0.032724 C 93.650213,3.2524245 92.052181,1.787 90.096156,1.787 z"
           style="opacity:0.2;fill:#ffffff;fill-opacity:1;stroke:none"
           sodipodi:nodetypes="ssccsscss" />
      </g>
      <g
         id="g4213"
         transform="translate(-129.88896,59.239351)">
        <g
           style="display:none"
           id="layer2-8">
          <rect
             style="opacity:0.9;fill:url(#ButtonShadow-6);fill-opacity:1;fill-rule:nonzero;stroke:none;filter:url(#filter3174-6)"
             id="rect3745-8"
             y="7"
             x="5"
             ry="6"
             rx="6"
             height="85"
             width="86" />
        </g>
      </g>
      <g
         transform="translate(-165.85594,129.45143)"
         inkscape:label="Layer 1"
         id="layer1-6">
        <g
           transform="translate(14.300486,-145.28441)"
           id="g4774"
           style="fill:#ffffff;fill-opacity:1;stroke:#707070;stroke-width:1;stroke-linecap:round;stroke-linejoin:round;stroke-miterlimit:4;stroke-opacity:1;stroke-dasharray:none;stroke-dashoffset:0">
          <path
             style="fill:#ffffff;fill-opacity:1;stroke:#707070;stroke-width:1;stroke-linecap:round;stroke-linejoin:round;stroke-miterlimit:4;stroke-opacity:1;stroke-dasharray:none;stroke-dashoffset:0"
             d="m 171.0855,40.63241 c -2.46237,2.138373 -5.71988,3.727148 -7.38711,6.415118 -1.66722,2.68797 -1.38298,7.421328 -2.13837,8.94229 -0.75539,1.520954 3.84206,0.896336 8.54868,-1.473239 5.05237,-3.250707 11.25402,-8.030714 15.70165,-8.833625 2.41691,-0.436322 -0.15681,5.263078 -0.71385,7.333281 -1.74629,4.199761 -4.95391,7.567877 -7.42513,11.343345 -3.22007,4.476253 -6.45475,8.941991 -9.69623,13.402756 0.93877,3.087512 1.48445,6.95642 4.96017,8.19507 0.91176,-0.0083 1.45105,-1.752042 2.21116,-2.466899 5.93283,-8.218711 11.57002,-16.656344 17.45076,-24.907134 2.86339,-2.785849 5.58957,-5.744171 8.53811,-8.422978 0.93444,-0.584023 1.86889,-1.168054 2.80333,-1.752078 1.41425,2.24077 -1.50615,4.909709 -1.98422,7.204476 -4.52087,6.602382 -8.72085,13.445456 -13.56758,19.816771 -2.60041,2.020026 -2.76603,5.34601 -1.86765,8.272147 0.45093,1.73898 2.37432,4.999982 3.60977,2.195387 4.64585,-5.796846 9.92921,-11.056965 14.43298,-16.967177 2.02458,-3.235832 5.57587,-5.131043 8.06234,-7.994232 2.69573,-2.470634 5.08308,-5.393086 8.31503,-7.181447 3.36357,0.890097 -2.05973,3.829566 -2.94202,5.39591 -2.68645,2.869428 -5.65575,5.549259 -7.43303,9.119394 -1.82637,2.917044 -3.40351,6.030388 -4.54372,9.26723 -0.1376,1.579441 -0.41565,3.178525 -0.0687,4.709838 0.42598,1.880378 0.96631,4.110106 2.56862,5.182437 2.12254,1.420492 5.39993,1.647027 7.64386,0.527656 3.40765,-2.267078 6.94518,-4.358581 9.97645,-7.134456 1.46086,-1.39412 3.48388,-2.427179 4.43037,-4.212937 -0.12474,-1.011674 0.24335,-2.37856 -0.17174,-3.180972 -2.372,0.629142 -4.39595,3.338093 -6.64394,4.662798 -1.89841,1.289496 -3.96077,2.883002 -6.26434,2.920395 -1.10723,0.018 -2.57758,-0.306045 -3.05497,-1.305226 -1.59125,-3.330473 1.73511,-7.19004 3.01316,-10.655416 1.48045,-2.551695 3.36459,-4.913394 4.84456,-7.510258 1.88727,-2.711063 4.22128,-5.085589 6.11464,-7.80933 2.09282,-2.645661 4.96374,-4.549986 7.21697,-7.072568 -0.0714,-1.207838 -0.0767,-2.441074 -1.06335,-3.296965 -0.86177,-1.309901 -1.88885,-2.457373 -3.2134,-3.312553 -5.24888,3.088316 -9.64641,7.347005 -14.57981,10.886263 -3.56759,3.229912 -7.12737,6.523384 -10.32097,10.123093 -1.48511,1.711277 -2.75146,3.67384 -4.3749,5.22619 -1.39261,1.044592 0.34214,-1.247437 0.49913,-1.856126 1.22431,-2.428175 2.40017,-4.885221 4.23245,-6.931818 2.09307,-2.603231 3.85289,-5.428444 4.97963,-8.585569 0.89648,-1.845945 2.076,-3.874394 1.81341,-5.922151 -0.16049,-1.251534 -0.87328,-2.627192 -1.9857,-3.222706 -0.93053,-0.498153 -2.12793,-0.08664 -3.16446,0.112535 -1.22065,0.23456 -2.42762,0.647498 -3.5103,1.258079 -2.43886,1.375417 -4.5511,3.320507 -6.51642,5.300422 -4.13256,4.877473 -8.07823,9.971066 -12.66793,14.418755 -0.46336,0.08324 0.84568,-1.841278 1.09437,-2.56465 1.89819,-4.31793 5.3971,-8.116535 6.00219,-12.785615 0.22374,-1.72648 -0.14317,-3.589926 -0.94097,-5.137282 -0.53501,-1.03767 -1.37791,-2.028541 -2.4405,-2.512175 -1.16827,-0.531733 -2.57728,-0.409992 -3.84508,-0.209282 -3.19016,0.505047 -6.12697,2.11296 -9.03956,3.48945 -2.56754,1.424797 -5.1134,3.128035 -7.94296,3.89706 -0.67409,-1.273026 2.48026,-2.548151 3.23052,-3.250899 0.92627,-0.107043 1.03111,-1.156352 -0.33324,-1.075027 -0.15071,-0.02511 -0.30142,-0.05023 -0.45212,-0.07536 z"
             id="path3232"
             inkscape:connector-curvature="0"
             sodipodi:nodetypes="czzcsccccccccccccccccccaacccccaaccccccccccccaaaacccaaaaccccc" />
        </g>
        <g
           transform="matrix(0.77708761,0,0,0.92530637,132.19129,13.984756)"
           id="g4161"
           style="enable-background:new">
          <g
             id="layer2-1"
             style="display:none">
            <rect
               width="86"
               height="85"
               rx="6"
               ry="6"
               x="5"
               y="7"
               id="rect3745-6"
               style="opacity:0.9;fill:url(#linearGradient2964);fill-opacity:1;fill-rule:nonzero;stroke:none;filter:url(#filter3174-2)" />
          </g>
          <g
             transform="translate(36.141842,-31.32293)"
             id="layer1-2"
             style="display:inline">
            <path
               d="m 67.882907,-116.79243 c -3.948144,8.69189 -6.939912,17.633206 -8.924932,26.64356 -1.030339,0.819932 -2.077285,1.586019 -3.149979,2.362484 -12.238254,8.858554 -26.918728,14.64669 -40.68722,14.306151 l 0,6.562451 c 12.183498,1.150191 20.143629,5.320773 24.806073,11.549922 4.216786,5.633727 5.967151,13.309022 5.512464,22.574856 l 4.199971,0 c 0.448956,-9.868912 -1.362535,-18.472066 -6.299957,-25.068579 -4.341717,-5.800657 -10.954366,-9.861724 -19.949859,-11.943675 12.029553,-1.610563 23.973631,-6.959217 34.256016,-14.306151 -2.965429,17.22047 -2.48207,34.707976 1.181237,51.318405 l 29.006055,0 C 73.339123,-45.934153 67.069365,-69.490164 67.095412,-91.723857 c 8.172815,-7.608097 14.524069,-16.331023 17.849884,-25.068573 l -4.46247,0 c -2.765185,6.40042 -7.399959,12.96836 -13.256161,19.031116 0.356571,-6.698746 1.425233,-13.110856 2.887481,-19.031116 l -2.231239,0 z"
               inkscape:connector-curvature="0"
               id="path4144"
               style="opacity:0.3;fill:#640000;fill-opacity:1;fill-rule:evenodd;stroke:none;display:inline" />
          </g>
        </g>
      </g>
    </g>
  </g>
  <g
     id="layer2"
     style="display:none">
    <rect
       width="86"
       height="85"
       rx="6"
       ry="6"
       x="5"
       y="7"
       id="rect3745"
       style="opacity:0.9;fill:url(#ButtonShadow);fill-opacity:1;fill-rule:nonzero;stroke:none;filter:url(#filter3174)" />
  </g>
  <g
     id="layer5" />
</svg>
