<?xml version="1.0" encoding="UTF-8" standalone="no"?>
<!-- Created with Inkscape (http://www.inkscape.org/) -->

<svg
   xmlns:dc="http://purl.org/dc/elements/1.1/"
   xmlns:cc="http://creativecommons.org/ns#"
   xmlns:rdf="http://www.w3.org/1999/02/22-rdf-syntax-ns#"
   xmlns:svg="http://www.w3.org/2000/svg"
   xmlns="http://www.w3.org/2000/svg"
   xmlns:xlink="http://www.w3.org/1999/xlink"
   xmlns:sodipodi="http://sodipodi.sourceforge.net/DTD/sodipodi-0.dtd"
   xmlns:inkscape="http://www.inkscape.org/namespaces/inkscape"
   width="96"
   height="96"
   viewBox="0 0 96.000001 96.000004"
   version="1.1"
   id="svg1072"
   inkscape:version="0.92.1 r15371"
   sodipodi:docname="mcedit.svg">
  <title
     id="title4179">Lila-HD-Icon-Theme</title>
  <defs
     id="defs1066">
    <linearGradient
       inkscape:collect="always"
       id="linearGradient4573">
      <stop
         style="stop-color:#c6fcd1;stop-opacity:1;"
         offset="0"
         id="stop4569" />
      <stop
         id="stop4579"
         offset="0.35925391"
         style="stop-color:#dba875;stop-opacity:1" />
      <stop
         style="stop-color:#6de977;stop-opacity:1"
         offset="0.75890964"
         id="stop4589" />
      <stop
         style="stop-color:#f31ca7;stop-opacity:1"
         offset="1"
         id="stop4571" />
    </linearGradient>
    <linearGradient
       y2="47.000011"
       x2="90"
       y1="47.000011"
       x1="6"
       gradientTransform="matrix(1.1071428,0,0,1.1071426,-4.9939026,-3.620687)"
       gradientUnits="userSpaceOnUse"
       id="linearGradient4071"
       xlink:href="#linearGradient6139-0"
       inkscape:collect="always" />
    <linearGradient
       id="linearGradient6139-0">
      <stop
         style="stop-color:#b2babc;stop-opacity:1"
         offset="0"
         id="stop6141-2" />
      <stop
         id="stop6151-0"
         offset="0.25"
         style="stop-color:#ffffff;stop-opacity:1;" />
      <stop
         id="stop6147-1"
         offset="0.5"
         style="stop-color:#96a1a4;stop-opacity:1" />
      <stop
         style="stop-color:#fbf9f9;stop-opacity:1;"
         offset="0.75"
         id="stop6149-4" />
      <stop
         style="stop-color:#b2b9bc;stop-opacity:1"
         offset="1"
         id="stop6143-4" />
    </linearGradient>
    <linearGradient
       gradientUnits="userSpaceOnUse"
       y2="88.171875"
       x2="94.5"
       y1="88.171875"
       x1="1.5"
       id="linearGradient4129"
       xlink:href="#linearGradient3832-0-6-1-1"
       inkscape:collect="always"
       gradientTransform="translate(0.1489535,0.415026)" />
    <linearGradient
       id="linearGradient3832-0-6-1-1">
      <stop
         id="stop3834-6-3-7-1"
         offset="0"
         style="stop-color:#000000;stop-opacity:1;" />
      <stop
         style="stop-color:#000000;stop-opacity:0.58823532;"
         offset="0.1"
         id="stop3872-2-4" />
      <stop
         id="stop3844-6-2-7-6"
         offset="0.89999998"
         style="stop-color:#000000;stop-opacity:0.58823532;" />
      <stop
         id="stop3836-5-0-2-9"
         offset="1"
         style="stop-color:#000000;stop-opacity:1;" />
    </linearGradient>
    <radialGradient
       r="43.199203"
       fy="44.892841"
       fx="13.948145"
       cy="44.892841"
       cx="13.948145"
       gradientTransform="matrix(0.97513378,0,0,0.04919072,34.047649,80.581722)"
       gradientUnits="userSpaceOnUse"
       id="radialGradient7462"
       xlink:href="#linearGradient3737"
       inkscape:collect="always" />
    <linearGradient
       id="linearGradient3737">
      <stop
         id="stop3739"
         style="stop-color:#ffffff;stop-opacity:1"
         offset="0" />
      <stop
         id="stop3741"
         style="stop-color:#ffffff;stop-opacity:0"
         offset="1" />
    </linearGradient>
    <radialGradient
       r="43.199203"
       fy="44.892841"
       fx="13.948145"
       cy="44.892841"
       cx="13.948145"
       gradientTransform="matrix(0.88832663,0,0,0.04919072,31.959518,-90.31726)"
       gradientUnits="userSpaceOnUse"
       id="radialGradient7464"
       xlink:href="#linearGradient3737"
       inkscape:collect="always" />
    <linearGradient
       y2="14.514202"
       x2="50.527882"
       y1="-28.64156"
       x1="2.7713892"
       gradientUnits="userSpaceOnUse"
       id="linearGradient4767"
       xlink:href="#linearGradient3737"
       inkscape:collect="always" />
    <clipPath
       clipPathUnits="userSpaceOnUse"
       id="clipPath4156-4-1">
      <path
         style="opacity:0.6;fill:#ffffff;fill-opacity:1;stroke:none"
         d="m 27.046336,-55.695463 -14.21366,13.321486 h 0.06127 l 15.653407,21.770763 10.231384,-10.546177 C 38.561832,-32.30156 27.468089,-54.819245 27.046336,-55.695463 Z M 9.6468554,-39.382809 -5.2407289,-25.32124 15.987863,-7.8059573 26.372412,-18.382966 Z m 31.4906096,12.951445 -9.741259,9.713584 8.944804,12.4580526 7.780753,-7.5550056 z m -49.8397109,4.378822 -13.7541661,12.9822847 26.2830181,13.84571 0.06127,-0.0617 -0.122531,-0.0617 L 13.598503,-5.4007374 -8.7022409,-22.052595 Z m 38.0154159,7.400825 -9.802525,9.7752596 11.579232,9.5594001 7.62759,-7.40083 -8.669108,-11.0087257 z m 20.187073,5.6739697 -7.382526,7.2158 6.187844,8.54179 5.820249,-6.13651996 z m -32.195166,6.32154 -9.5574606,9.49772 13.6622686,7.1849703 7.933918,-7.6783603 z m 23.311629,2.37443004 -7.10683,6.93826996 8.362778,6.9074403 5.360756,-5.6739699 -0.06127,-0.0925 -0.0919,0.12335 -6.463539,-8.20258036 z m -8.730374,8.54178036 -7.505057,7.3391599 10.353916,5.45811 c 1.397496,-1.32103 5.67514,-6.12292 5.850882,-6.32154 z"
         id="path4158-0-8"
         inkscape:connector-curvature="0" />
    </clipPath>
    <linearGradient
       gradientUnits="userSpaceOnUse"
       y2="7.0165396"
       x2="45.447727"
       y1="92.539597"
       x1="45.447727"
       gradientTransform="scale(1.0058652,0.994169)"
       id="ButtonShadow-16">
      <stop
         id="stop3750-6"
         offset="0"
         style="stop-color:#000000;stop-opacity:1;" />
      <stop
         id="stop3752-4"
         offset="1"
         style="stop-color:#000000;stop-opacity:0.58823532;" />
    </linearGradient>
    <clipPath
       id="clipPath4355-7"
       clipPathUnits="userSpaceOnUse">
      <rect
         ry="6"
         rx="6"
         y="6"
         x="6"
         height="80"
         width="84"
         id="rect4357-5"
         style="fill:#ffffff;fill-opacity:1;fill-rule:nonzero;stroke:none" />
    </clipPath>
    <clipPath
       id="clipPath4355-9"
       clipPathUnits="userSpaceOnUse">
      <rect
         ry="6"
         rx="6"
         y="6"
         x="6"
         height="80"
         width="84"
         id="rect4357-1"
         style="fill:#ffffff;fill-opacity:1;fill-rule:nonzero;stroke:none" />
    </clipPath>
    <clipPath
       id="clipPath4355-1"
       clipPathUnits="userSpaceOnUse">
      <rect
         ry="6"
         rx="6"
         y="6"
         x="6"
         height="80"
         width="84"
         id="rect4357-9"
         style="fill:#ffffff;fill-opacity:1;fill-rule:nonzero;stroke:none" />
    </clipPath>
    <clipPath
       id="clipPath3943-52-0"
       clipPathUnits="userSpaceOnUse">
      <path
         inkscape:connector-curvature="0"
         style="color:#000000;display:inline;overflow:visible;visibility:visible;opacity:0.8;fill:#ff00ff;fill-opacity:1;fill-rule:nonzero;stroke:none;stroke-width:1;marker:none;enable-background:accumulate"
         d="m 69.78125,20.84375 -5,3.4375 c 5.586891,5.537137 9,13.327613 9,21.8125 0,8.434478 -3.37723,16.095981 -8.90625,21.625 l 5,3.4375 C 76.078226,64.5762 80,55.843726 80,46.09375 c 2e-6,-9.796556 -3.962955,-18.660417 -10.21875,-25.25 z M 40,24.0625 28.90625,36.21875 H 21.5 c -0.823281,0 -1.5,0.676717 -1.5,1.5 v 1 14.84375 1 c 0,0.823281 0.684121,1.610161 1.5,1.5 h 7.40625 L 40,68 V 66 26.0625 Z m 20.59375,3.28125 -5,3.4375 L 55.5,30.875 c 3.93815,3.890071 6.40625,9.25018 6.40625,15.21875 0,5.920869 -2.42961,11.148358 -6.3125,15.03125 l 0.09375,0.09375 5.09375,3.4375 c 4.475428,-4.908367 7.25,-11.402005 7.25,-18.5625 0,-7.230696 -2.87904,-13.83107 -7.4375,-18.75 z m -9.25,6.5 -5.21875,3.625 c 2.222384,2.217802 3.71875,5.239596 3.71875,8.625 0,3.336509 -1.458847,6.227712 -3.625,8.4375 l 5.21875,3.625 c 2.822412,-3.236947 4.53125,-7.43414 4.53125,-12.0625 0,-4.672601 -1.754155,-9.001351 -4.625,-12.25 z"
         id="path3945-4-1" />
    </clipPath>
    <linearGradient
       inkscape:collect="always"
       xlink:href="#linearGradient4573"
       id="linearGradient4577"
       x1="8.1347048"
       y1="22.129515"
       x2="85.382816"
       y2="22.129515"
       gradientUnits="userSpaceOnUse" />
    <linearGradient
       inkscape:collect="always"
       xlink:href="#linearGradient4573"
       id="linearGradient4599"
       gradientUnits="userSpaceOnUse"
       x1="8.1347048"
       y1="22.129515"
       x2="85.382816"
       y2="22.129515" />
    <radialGradient
       inkscape:collect="always"
       xlink:href="#linearGradient4573"
       id="radialGradient4633"
       cx="47.428585"
       cy="22.641308"
       fx="47.428585"
       fy="22.641308"
       r="36.684166"
       gradientTransform="matrix(1,0,0,1.0642154,0,-1.4539216)"
       gradientUnits="userSpaceOnUse" />
  </defs>
  <sodipodi:namedview
     id="base"
     pagecolor="#ffffff"
     bordercolor="#666666"
     borderopacity="1.0"
     inkscape:pageopacity="0.0"
     inkscape:pageshadow="2"
     inkscape:zoom="1.3361341"
     inkscape:cx="53.034003"
     inkscape:cy="48"
     inkscape:document-units="px"
     inkscape:current-layer="g2574"
     showgrid="false"
     inkscape:showpageshadow="false"
     units="px"
     inkscape:lockguides="true"
     inkscape:window-width="1280"
     inkscape:window-height="944"
     inkscape:window-x="0"
     inkscape:window-y="21"
     inkscape:window-maximized="1"
     inkscape:snap-global="false">
    <sodipodi:guide
       position="0,0"
       orientation="0,96"
       id="guide1621"
       inkscape:locked="true" />
    <sodipodi:guide
       position="96.000002,0"
       orientation="-96,0"
       id="guide1623"
       inkscape:locked="true" />
    <sodipodi:guide
       position="96.000002,96.000002"
       orientation="0,-96"
       id="guide1625"
       inkscape:locked="true" />
    <sodipodi:guide
       position="0,96.000002"
       orientation="96,0"
       id="guide1627"
       inkscape:locked="true" />
  </sodipodi:namedview>
  <metadata
     id="metadata1069">
    <rdf:RDF>
      <cc:Work
         rdf:about="">
        <dc:format>image/svg+xml</dc:format>
        <dc:type
           rdf:resource="http://purl.org/dc/dcmitype/StillImage" />
        <dc:title>Lila-HD-Icon-Theme</dc:title>
        <dc:date>2015-2017</dc:date>
        <dc:creator>
          <cc:Agent>
            <dc:title>Cristian Pozzessere  &lt; ilnanny &gt;</dc:title>
          </cc:Agent>
        </dc:creator>
        <dc:subject>
          <rdf:Bag>
            <rdf:li>ilnanny</rdf:li>
            <rdf:li>lila_hd</rdf:li>
            <rdf:li>lila-hd</rdf:li>
            <rdf:li>lila hd icon theme</rdf:li>
            <rdf:li>Lila-HD-Icon-Theme lila hd icon lila icon</rdf:li>
          </rdf:Bag>
        </dc:subject>
        <dc:description>Playing with Inkscape on Gnu/Linux O. S.</dc:description>
        <dc:contributor>
          <cc:Agent>
            <dc:title>In the night, alone like a dog.</dc:title>
          </cc:Agent>
        </dc:contributor>
        <cc:license
           rdf:resource="http://creativecommons.org/licenses/by-sa/3.0/" />
      </cc:Work>
      <cc:License
         rdf:about="http://creativecommons.org/licenses/by-sa/3.0/">
        <cc:permits
           rdf:resource="http://creativecommons.org/ns#Reproduction" />
        <cc:permits
           rdf:resource="http://creativecommons.org/ns#Distribution" />
        <cc:requires
           rdf:resource="http://creativecommons.org/ns#Notice" />
        <cc:requires
           rdf:resource="http://creativecommons.org/ns#Attribution" />
        <cc:permits
           rdf:resource="http://creativecommons.org/ns#DerivativeWorks" />
        <cc:requires
           rdf:resource="http://creativecommons.org/ns#ShareAlike" />
      </cc:License>
    </rdf:RDF>
  </metadata>
  <g
     inkscape:label="Livello 1"
     inkscape:groupmode="layer"
     id="layer1"
     transform="translate(0,-1026.5197)">
    <g
       transform="translate(-0.14895645,1026.1047)"
       style="display:inline"
       id="g2574">
      <path
         inkscape:connector-curvature="0"
         id="path3288"
         d="M 89.29181,0.415026 H 7.0060911 c -3.798848,0 -6.8571352,3.058285 -6.8571352,6.8571399 V 89.557884 c 0,3.798857 3.0582872,6.857142 6.8571352,6.857142 H 89.29181 c 3.798857,0 6.857147,-3.058285 6.857147,-6.857142 V 7.2721659 c 0,-3.7988549 -3.05829,-6.8571399 -6.857147,-6.8571399 z"
         style="display:inline;opacity:0.15;fill:#000000;fill-opacity:1;fill-rule:nonzero;stroke:none" />
      <path
         style="display:inline;opacity:0.15;fill:#000000;fill-opacity:1;fill-rule:nonzero;stroke:none"
         d="M 88.648954,1.165026 H 7.6489471 c -3.739492,0 -6.749993,3.010499 -6.749993,6.7499969 V 88.915026 c 0,3.739501 3.010501,6.75 6.749993,6.75 H 88.648954 c 3.739503,0 6.750003,-3.010499 6.750003,-6.75 V 7.9150229 c 0,-3.7394979 -3.0105,-6.7499969 -6.750003,-6.7499969 z"
         id="path4085"
         inkscape:connector-curvature="0" />
      <path
         inkscape:connector-curvature="0"
         id="rect4251-1"
         d="M 88.006093,1.915026 H 8.2918111 c -3.680143,0 -6.6428566,2.962713 -6.6428566,6.6428549 V 88.272171 c 0,3.680142 2.9627136,6.642856 6.6428566,6.642856 H 88.006093 c 3.680143,0 6.642854,-2.962714 6.642854,-6.642856 V 8.5578809 c 0,-3.6801419 -2.962711,-6.6428549 -6.642854,-6.6428549 z"
         style="display:inline;fill:url(#linearGradient4071);fill-opacity:1;fill-rule:nonzero;stroke:none" />
      <path
         sodipodi:nodetypes="sscccsccscccsss"
         inkscape:connector-curvature="0"
         id="path3400-6"
         d="m 10.721682,6.8021682 c -2.9010168,0 -5.2039913,2.3163402 -5.2039913,5.2341878 v 21.689164 7.327862 40.401384 c 1.1143411,1.705067 3.0151199,2.846089 5.2039913,2.846089 h 4.163193 66.611092 4.163192 c 2.188872,0 4.089651,-1.141022 5.203992,-2.846089 V 41.053382 33.72552 12.036356 c 0,-2.9178476 -2.302975,-5.2341878 -5.203992,-5.2341878 z"
         style="display:inline;opacity:0.95999995;fill:#0542c9;fill-opacity:1;fill-rule:nonzero;stroke:none;stroke-width:1.04381371" />
      <path
         style="color:#000000;font-style:normal;font-variant:normal;font-weight:normal;font-stretch:normal;font-size:medium;line-height:normal;font-family:Sans;-inkscape-font-specification:Sans;text-indent:0;text-align:start;text-decoration:none;text-decoration-line:none;letter-spacing:normal;word-spacing:normal;text-transform:none;writing-mode:lr-tb;direction:ltr;baseline-shift:baseline;text-anchor:start;display:inline;overflow:visible;visibility:visible;fill:#202223;fill-opacity:0.9906103;stroke:none;stroke-width:2.3755002;marker:none;enable-background:accumulate"
         d="m 9.9740341,5.1444869 c -3.116621,0 -5.667965,2.53951 -5.667965,5.6460041 v 69.277996 c 0,3.106495 2.551344,5.646004 5.667965,5.646004 H 86.765819 c 3.116621,0 5.667968,-2.539509 5.667968,-5.646004 V 10.790491 c 0,-3.1064931 -2.551347,-5.6460041 -5.667968,-5.6460041 z m 0,2.319439 H 86.765819 c 1.888099,0 3.352022,1.480095 3.352022,3.3265651 v 69.277996 c 0,1.846474 -1.463923,3.326564 -3.352022,3.326564 H 9.9740341 c -1.888099,0 -3.352022,-1.48009 -3.352022,-3.326564 V 10.790491 c 0,-1.8464701 1.463923,-3.3265651 3.352022,-3.3265651 z"
         id="path4989"
         inkscape:connector-curvature="0" />
      <path
         id="path4118"
         d="m 1.6489535,82.258776 v 6 c 0,3.680142 2.9761066,6.65625 6.6562496,6.65625 H 87.992703 c 3.680143,0 6.656254,-2.976108 6.656254,-6.65625 v -6 c 0,3.680142 -2.976111,6.65625 -6.656254,6.65625 H 8.3052031 c -3.680143,0 -6.6562496,-2.976108 -6.6562496,-6.65625 z"
         style="display:inline;opacity:0.65818182;fill:url(#linearGradient4129);fill-opacity:1;fill-rule:nonzero;stroke:none"
         inkscape:connector-curvature="0" />
      <rect
         ry="4.25"
         rx="0"
         y="80.665031"
         x="5.5239539"
         height="4.25"
         width="84.250008"
         id="rect4131"
         style="opacity:0.55;fill:url(#radialGradient7462);fill-opacity:1;stroke:none" />
      <rect
         transform="rotate(90)"
         style="opacity:0.669;fill:url(#radialGradient7464);fill-opacity:1;stroke:none"
         id="rect4141"
         width="76.75"
         height="4.25"
         x="5.9750223"
         y="-90.233963"
         rx="0"
         ry="4.25" />
      <g
         aria-label="&gt;#-_"
         style="font-style:normal;font-weight:normal;font-size:40px;line-height:1.25;font-family:sans-serif;letter-spacing:0px;word-spacing:0px;fill:url(#linearGradient4577);fill-opacity:1;stroke:none"
         id="text4550" />
      <g
         id="g4595"
         style="font-style:normal;font-weight:normal;font-size:40px;line-height:1.25;font-family:sans-serif;letter-spacing:0px;word-spacing:0px;fill:url(#linearGradient4599);fill-opacity:1;stroke:none"
         aria-label="&gt;#-_"
         transform="translate(0,46)" />
      <g
         transform="matrix(-1.0007974,0,0,0.85605365,94.86766,25.747579)"
         aria-label="&gt;#-_"
         style="font-style:normal;font-weight:normal;font-size:40px;line-height:1.25;font-family:sans-serif;letter-spacing:0px;word-spacing:0px;fill:url(#radialGradient4633);fill-opacity:1;stroke:#c3c3c3;stroke-opacity:1;opacity:0.869"
         id="g4603">
        <path
           style="fill:url(#radialGradient4633);fill-opacity:1;stroke:#c3c3c3;stroke-width:0.78554255;stroke-opacity:1"
           d="m 50.813794,12.125164 c -0.474941,1.932205 -0.949883,3.86441 -1.424824,5.796615 -1.680658,0 -3.361316,0 -5.041974,0 0.198589,2.853393 7.341903,2.792164 3.183565,6.456429 -1.316446,0.427497 -6.712511,0.472249 -3.164556,2.047883 4.402936,-0.290332 -0.171725,7.107952 3.392222,5.356295 0.318014,-2.353924 3.21265,-7.639212 5.346341,-4.012879 -0.245939,1.426424 -1.430055,6.504758 1.036241,3.631073 0.354844,-3.39882 3.9612,-5.120109 6.255849,-5.222172 -0.826218,-2.024541 -6.322491,-1.934924 -3.055914,-5.56461 1.380404,-0.647581 6.583418,-0.404343 3.646297,-2.471921 -4.740083,0.69852 -0.363712,-5.513686 -3.157649,-5.606293 -2.080536,1.685813 -2.127066,8.32025 -5.791067,4.382215 -0.966069,-1.636396 3.050483,-5.624761 -1.224531,-4.792635 z M 11.27489,13.983311 c -1.010927,3.706594 3.883849,3.960241 6.233025,5.013329 3.189528,1.13631 6.379055,2.272621 9.568582,3.408931 -5.267202,1.866718 -10.534405,3.733435 -15.801607,5.600153 -0.67005,4.386226 4.931914,0.744939 6.998429,0.254558 4.223346,-1.531711 8.446691,-3.063424 12.670037,-4.595134 0.04584,-4.65578 -6.271442,-4.019949 -9.223619,-5.893726 -3.481616,-1.262704 -6.963232,-2.525406 -10.444847,-3.788111 z m 39.830845,6.088559 c 4.711563,-2.252783 4.854897,6.453648 0.110071,4.70875 -2.548424,0.306499 0.05232,-3.426627 -0.110071,-4.70875 z m -20.827053,7.673125 c -0.80367,4.626108 5.535465,2.555396 8.223681,3.066703 4.209588,-0.102951 0.03982,-4.56818 -2.499251,-3.104912 -1.905353,0.08884 -3.816537,0.01472 -5.72443,0.03821 z m 33.898358,0.192791 c 0.06969,4.134096 5.324378,2.339001 7.968418,2.625646 3.855949,0 7.711898,0 11.567847,0 -0.06969,-4.134097 -5.324377,-2.338999 -7.968417,-2.625646 -3.855949,0 -7.711899,0 -11.567848,0 z m -20.158275,9.884125 c 0.859819,2.04728 0.354665,5.776365 2.06856,6.771322 1.464362,0 2.928724,0 4.393086,0 -0.0451,3.251608 -7.005858,3.122162 -3.546821,7.254472 1.237305,1.06274 7.245641,0.634848 3.527827,2.679849 -4.665539,-0.07095 0.298066,8.076086 -3.389519,6.256962 -0.22384,-2.454095 -3.081168,-8.903246 -5.342081,-4.687648 0.15876,1.504147 1.598235,7.488467 -1.035416,4.241641 -0.200446,-3.627968 -3.796237,-6.006879 -6.250865,-6.100287 -0.182344,-2.629355 5.661808,-1.181682 3.683517,-4.770007 0.682149,-3.716108 -7.880699,-1.192677 -4.273429,-4.617874 4.975957,0.46887 0.263287,-6.312081 3.155133,-6.548997 2.121878,1.69188 1.719421,9.053293 5.565193,5.548523 1.799837,-1.802057 -3.19447,-6.860093 1.444815,-6.027956 z m 39.507401,2.170596 c 1.190985,3.930936 -3.64337,4.692189 -6.216373,5.851458 -3.190881,1.329005 -6.381763,2.65801 -9.572644,3.987015 5.263006,2.180608 10.526011,4.361217 15.789017,6.541824 0.921974,4.88834 -4.856427,1.089501 -6.992853,0.297363 -4.219981,-1.789271 -8.439961,-3.578542 -12.659942,-5.367811 -0.506211,-4.562371 5.122841,-4.686398 8.012056,-6.374176 3.880246,-1.645224 7.760493,-3.290447 11.640739,-4.935673 z m -39.799109,7.112357 c -4.131833,-2.479925 -5.247416,6.039402 -1.207408,5.459928 4.215189,1.028426 1.117359,-3.359906 1.207408,-5.459928 z m 20.810459,8.96337 c 1.240703,4.72776 -4.885689,3.418574 -7.629218,3.524244 -4.720792,0.794211 -1.38071,-5.393357 1.909349,-3.568878 1.902813,0.103785 3.813588,0.01719 5.719869,0.04463 z m -33.871349,0.225209 c 0.255476,4.486103 -5.178823,2.923028 -7.962583,3.067151 -3.852705,0 -7.705411,0 -11.558116,0 -0.255477,-4.486104 5.178821,-2.923027 7.962581,-3.067151 3.852706,0 7.705412,0 11.558118,0 z m 13.352598,-72.206482 c 0.474563,2.257107 0.949126,4.514215 1.423689,6.7713222 1.679319,0 3.358638,0 5.037957,0 -0.0451,3.2516083 -7.005857,3.1221615 -3.546821,7.2544717 1.237305,1.06274002 7.245641,0.6348482 3.527827,2.67984939 -4.665539,-0.0709477 0.298066,8.07608571 -3.389519,6.25696141 -0.22384,-2.4540951 -3.081168,-8.903245 -5.342081,-4.6876479 0.15876,1.5041474 1.598235,7.4884675 -1.035416,4.2416415 -0.200446,-3.627968 -3.796237,-6.00687916 -6.250865,-6.10028621 -0.182344,-2.62935539 5.661808,-1.18168257 3.683517,-4.77000799 0.682149,-3.7161077 -7.880699,-1.192677 -4.273429,-4.6178738 4.975957,0.4688702 0.263287,-6.3120813 3.155133,-6.5489973 2.121878,1.69188 1.719421,9.0532931 5.565193,5.548523 1.799837,-1.802057 -3.19447,-6.860093 1.444815,-6.027956 z m 39.507401,2.170597 c 1.190985,3.9309357 -3.64337,4.692188 -6.216373,5.8514572 -3.190881,1.3290049 -6.381763,2.6580097 -9.572644,3.9870145 5.263006,2.1806083 10.526011,4.36121653 15.789017,6.5418248 0.921974,4.8883395 -4.856427,1.0895009 -6.992853,0.2973626 -4.219981,-1.7892705 -8.439961,-3.57854224 -12.659942,-5.3678111 -0.506211,-4.5623708 5.122841,-4.6863988 8.012056,-6.374176 3.880246,-1.645224 7.760493,-3.290447 11.640739,-4.935672 z m -39.799109,7.1123564 c -4.131834,-2.4799257 -5.247416,6.03940296 -1.207408,5.4599272 4.215189,1.02842664 1.117359,-3.3599049 1.207408,-5.4599272 z m 20.810459,8.9633693 c 1.240703,4.7277596 -4.885689,3.4185742 -7.629218,3.5242446 -4.720792,0.7942108 -1.38071,-5.39335762 1.909349,-3.568878 1.902813,0.1037841 3.813588,0.017191 5.719869,0.044633 z m -33.871349,0.225209 c 0.255476,4.4861032 -5.178823,2.9230285 -7.962583,3.0671512 -3.852705,0 -7.705411,0 -11.558116,0 -0.255477,-4.4861034 5.178822,-2.9230268 7.962581,-3.0671512 3.852706,0 7.705412,0 11.558118,0 z"
           id="path4601"
           inkscape:connector-curvature="0" />
      </g>
      <rect
         clip-path="url(#clipPath4156-4-1)"
         ry="3.9569881"
         rx="3.9569874"
         y="-30"
         x="2"
         height="69.024437"
         width="75.965775"
         id="rect4146"
         style="opacity:0.65;fill:url(#linearGradient4767);fill-opacity:1;stroke:none"
         transform="matrix(1.0692451,0,0,1.0476829,4.4441802,38.894013)" />
    </g>
  </g>
</svg>
