<?xml version="1.0" encoding="UTF-8" standalone="no"?>
<!-- Created with Inkscape (http://www.inkscape.org/) -->

<svg
   xmlns:dc="http://purl.org/dc/elements/1.1/"
   xmlns:cc="http://creativecommons.org/ns#"
   xmlns:rdf="http://www.w3.org/1999/02/22-rdf-syntax-ns#"
   xmlns:svg="http://www.w3.org/2000/svg"
   xmlns="http://www.w3.org/2000/svg"
   xmlns:xlink="http://www.w3.org/1999/xlink"
   xmlns:sodipodi="http://sodipodi.sourceforge.net/DTD/sodipodi-0.dtd"
   xmlns:inkscape="http://www.inkscape.org/namespaces/inkscape"
   version="1.0"
   width="96"
   height="96"
   id="svg2408"
   inkscape:version="0.92.2 5c3e80d, 2017-08-06"
   sodipodi:docname="mendeley.svg">
  <sodipodi:namedview
     pagecolor="#ffffff"
     bordercolor="#666666"
     borderopacity="1"
     objecttolerance="10"
     gridtolerance="10"
     guidetolerance="10"
     inkscape:pageopacity="0"
     inkscape:pageshadow="2"
     inkscape:window-width="1280"
     inkscape:window-height="947"
     id="namedview60"
     showgrid="false"
     inkscape:zoom="2.4583333"
     inkscape:cx="14.068248"
     inkscape:cy="47.38983"
     inkscape:window-x="0"
     inkscape:window-y="19"
     inkscape:window-maximized="1"
     inkscape:current-layer="g2574" />
  <defs
     id="defs2410">
    <linearGradient
       id="linearGradient3866">
      <stop
         id="stop3868"
         style="stop-color:#ffffff;stop-opacity:1"
         offset="0" />
      <stop
         id="stop3870"
         style="stop-color:#ffffff;stop-opacity:0"
         offset="1" />
    </linearGradient>
    <linearGradient
       x1="45.447727"
       y1="92.539597"
       x2="45.447727"
       y2="7.0165396"
       id="ButtonShadow"
       gradientUnits="userSpaceOnUse"
       gradientTransform="scale(1.0058652,0.994169)">
      <stop
         id="stop3750"
         style="stop-color:#000000;stop-opacity:1"
         offset="0" />
      <stop
         id="stop3752"
         style="stop-color:#000000;stop-opacity:0.58823532"
         offset="1" />
    </linearGradient>
    <linearGradient
       id="linearGradient3737">
      <stop
         id="stop3739"
         style="stop-color:#ffffff;stop-opacity:1"
         offset="0" />
      <stop
         id="stop3741"
         style="stop-color:#ffffff;stop-opacity:0"
         offset="1" />
    </linearGradient>
    <linearGradient
       id="linearGradient3700">
      <stop
         id="stop3702"
         style="stop-color:#730a13;stop-opacity:1"
         offset="0" />
      <stop
         id="stop3704"
         style="stop-color:#be212e;stop-opacity:1"
         offset="1" />
    </linearGradient>
    <filter
       color-interpolation-filters="sRGB"
       id="filter3174">
      <feGaussianBlur
         id="feGaussianBlur3176"
         stdDeviation="1.71" />
    </filter>
    <linearGradient
       x1="36.357143"
       y1="6"
       x2="36.357143"
       y2="63.893143"
       id="linearGradient3188"
       xlink:href="#linearGradient3737"
       gradientUnits="userSpaceOnUse" />
    <filter
       x="-0.192"
       y="-0.192"
       width="1.3839999"
       height="1.3839999"
       color-interpolation-filters="sRGB"
       id="filter3794">
      <feGaussianBlur
         id="feGaussianBlur3796"
         stdDeviation="5.28" />
    </filter>
    <linearGradient
       x1="48"
       y1="20.220806"
       x2="48"
       y2="138.66119"
       id="linearGradient3613"
       xlink:href="#linearGradient3737"
       gradientUnits="userSpaceOnUse" />
    <radialGradient
       cx="48"
       cy="90.171875"
       r="42"
       fx="48"
       fy="90.171875"
       id="radialGradient3619"
       xlink:href="#linearGradient3737"
       gradientUnits="userSpaceOnUse"
       gradientTransform="matrix(1.1573129,0,0,0.99590774,-7.5510206,0.19713193)" />
    <clipPath
       id="clipPath3613">
      <rect
         width="84"
         height="84"
         rx="6"
         ry="6"
         x="6"
         y="6"
         id="rect3615"
         style="fill:#ffffff;fill-opacity:1;fill-rule:nonzero;stroke:none" />
    </clipPath>
    <linearGradient
       x1="45.447727"
       y1="92.539597"
       x2="45.447727"
       y2="7.0165396"
       id="ButtonShadow-0"
       gradientUnits="userSpaceOnUse"
       gradientTransform="matrix(1.0058652,0,0,0.994169,100,0)">
      <stop
         id="stop3750-8"
         style="stop-color:#000000;stop-opacity:1"
         offset="0" />
      <stop
         id="stop3752-5"
         style="stop-color:#000000;stop-opacity:0.58823532"
         offset="1" />
    </linearGradient>
    <linearGradient
       x1="32.251034"
       y1="6.1317081"
       x2="32.251034"
       y2="90.238609"
       id="linearGradient3780"
       xlink:href="#ButtonShadow-0"
       gradientUnits="userSpaceOnUse"
       gradientTransform="matrix(1.0238095,0,0,1.0119048,-1.1428571,-98.071429)" />
    <linearGradient
       x1="32.251034"
       y1="6.1317081"
       x2="32.251034"
       y2="90.238609"
       id="linearGradient3772"
       xlink:href="#ButtonShadow-0"
       gradientUnits="userSpaceOnUse"
       gradientTransform="matrix(1.0238095,0,0,1.0119048,-1.1428571,-98.071429)" />
    <linearGradient
       x1="32.251034"
       y1="6.1317081"
       x2="32.251034"
       y2="90.238609"
       id="linearGradient3725"
       xlink:href="#ButtonShadow-0"
       gradientUnits="userSpaceOnUse"
       gradientTransform="matrix(1.0238095,0,0,1.0119048,-1.1428571,-98.071429)" />
    <linearGradient
       x1="32.251034"
       y1="6.1317081"
       x2="32.251034"
       y2="90.238609"
       id="linearGradient3721"
       xlink:href="#ButtonShadow-0"
       gradientUnits="userSpaceOnUse"
       gradientTransform="translate(0,-97)" />
    <linearGradient
       x1="32.251034"
       y1="6.1317081"
       x2="32.251034"
       y2="90.238609"
       id="linearGradient3026"
       xlink:href="#ButtonShadow-0"
       gradientUnits="userSpaceOnUse"
       gradientTransform="matrix(1.0238095,0,0,1.0119048,-1.1428571,-98.071429)" />
    <radialGradient
       cx="88"
       cy="88"
       r="42"
       fx="88"
       fy="88"
       id="radialGradient3833"
       xlink:href="#linearGradient3700"
       gradientUnits="userSpaceOnUse"
       gradientTransform="matrix(2.2695651,-0.00686696,0.00580377,1.9181687,-112.23246,-80.194551)" />
    <linearGradient
       x1="72"
       y1="8"
       x2="48"
       y2="64"
       id="linearGradient3872"
       xlink:href="#linearGradient3866"
       gradientUnits="userSpaceOnUse" />
    <clipPath
       id="clipPath3888">
      <path
         d="m 34.405054,29.694011 c -1.445208,0.02254 -2.919206,0.387911 -4.351152,1.095614 -4.269072,2.10989 -6.01981,6.646131 -4.695487,12.051752 0.633127,2.584343 0.852059,6.07656 0.469548,7.481477 -0.542122,1.991087 -2.205522,3.033727 -4.883307,3.036415 -2.64526,0.0027 -5.246275,2.034052 -5.759799,4.507669 -0.525313,2.530457 0.07523,4.823108 1.721679,6.479773 1.935984,1.947973 4.622113,2.497148 6.949322,1.408646 3.369412,-1.575968 4.47335,-4.868513 3.036416,-8.984033 -0.692688,-1.983911 -0.724332,-2.250242 -0.375639,-3.505964 1.476071,-5.315659 13.601639,-5.704733 15.58902,-0.500852 0.469799,1.23015 0.392247,2.071774 -0.469549,4.225939 -0.527538,1.318622 -0.591657,1.777958 -0.500852,3.192931 0.165882,2.584715 1.40482,4.395911 3.8503,5.509373 1.488081,0.677544 4.581704,0.674543 6.041528,0 3.587923,-1.657947 4.934784,-5.252995 3.349448,-8.890124 -1.361707,-3.124041 -0.673576,-5.199696 2.191227,-6.636289 3.603721,-1.807133 8.809857,-1.394756 11.425687,0.907794 1.871634,1.64748 2.1514,3.073633 1.158221,5.916315 -1.318183,3.772926 -0.261956,7.036495 2.785989,8.671001 1.315819,0.70563 4.226039,0.70597 5.540676,0 1.190565,-0.639324 2.534692,-2.044816 2.973809,-3.099022 1.280899,-3.075078 0.233517,-6.944545 -2.285138,-8.420575 -0.87,-0.509852 -1.526557,-0.665364 -3.286841,-0.813885 -1.431395,-0.120772 -2.433179,-0.346881 -2.911203,-0.626065 -0.955475,-0.558027 -1.717812,-1.940421 -1.909498,-3.474661 -0.174487,-1.396503 0.214725,-4.87797 0.751278,-6.730199 0.554674,-1.914755 0.333157,-5.505878 -0.438245,-7.199747 -2.363621,-5.190107 -9.04051,-7.222371 -13.773432,-4.163333 -0.742332,0.479792 -1.694552,1.331941 -2.128621,1.878195 -1.521738,1.915054 -3.972708,4.36896 -4.726791,4.726791 -1.897458,0.900406 -3.845211,0.162547 -5.978921,-2.253834 -3.225307,-3.652591 -3.69738,-4.113581 -5.133733,-4.820702 -1.349446,-0.664331 -2.780731,-0.992937 -4.22594,-0.9704 z m 13.648219,10.643105 c 4.368792,-0.0072 7.338474,3.986758 6.104134,8.232756 -0.538316,1.851711 -2.30439,3.645287 -4.069423,4.163332 -1.510099,0.443218 -2.756009,0.465145 -4.163333,0.0313 -2.446752,-0.75425 -4.274141,-3.361467 -4.257242,-6.104135 0.01132,-1.835692 0.421587,-2.880766 1.690376,-4.257242 1.325034,-1.437485 2.759254,-2.062831 4.695488,-2.066015 z"
         inkscape:connector-curvature="0"
         id="path3890"
         style="color:#000000;fill:#ff00ff;fill-opacity:1;fill-rule:nonzero;stroke:none;stroke-width:1;marker:none;visibility:visible;display:inline;overflow:visible;enable-background:accumulate" />
    </clipPath>
    <filter
       color-interpolation-filters="sRGB"
       id="filter3892">
      <feGaussianBlur
         id="feGaussianBlur3894"
         stdDeviation="0.76960612" />
    </filter>
    <clipPath
       id="clipPath2973-9">
      <rect
         width="84"
         height="84"
         rx="6"
         ry="6"
         x="6"
         y="6"
         id="rect2975-6"
         style="fill:url(#linearGradient2977);fill-opacity:1;fill-rule:nonzero;stroke:none" />
    </clipPath>
    <filter
       color-interpolation-filters="sRGB"
       id="filter3174-4">
      <feGaussianBlur
         id="feGaussianBlur3176-3"
         stdDeviation="1.71" />
    </filter>
    <linearGradient
       id="linearGradient3832-0-6-1-1">
      <stop
         id="stop3834-6-3-7-1"
         offset="0"
         style="stop-color:#000000;stop-opacity:1;" />
      <stop
         style="stop-color:#000000;stop-opacity:0.58823532;"
         offset="0.1"
         id="stop3872-2-4" />
      <stop
         id="stop3844-6-2-7-6"
         offset="0.89999998"
         style="stop-color:#000000;stop-opacity:0.58823532;" />
      <stop
         id="stop3836-5-0-2-9"
         offset="1"
         style="stop-color:#000000;stop-opacity:1;" />
    </linearGradient>
    <linearGradient
       id="linearGradient4091-0-3-0-7">
      <stop
         id="stop4093-3-6-4-2"
         offset="0"
         style="stop-color:#ffffff;stop-opacity:1;" />
      <stop
         style="stop-color:#ffffff;stop-opacity:1;"
         offset="0.80000001"
         id="stop4099-6-1-8-3" />
      <stop
         id="stop4095-1-0-7-9"
         offset="1"
         style="stop-color:#ffffff;stop-opacity:0;" />
    </linearGradient>
    <linearGradient
       id="linearGradient6139-0">
      <stop
         style="stop-color:#b7b7b7;stop-opacity:1;"
         offset="0"
         id="stop6141-2" />
      <stop
         id="stop6151-0"
         offset="0.25"
         style="stop-color:#ffffff;stop-opacity:1;" />
      <stop
         id="stop6147-1"
         offset="0.5"
         style="stop-color:#9d9d9d;stop-opacity:1;" />
      <stop
         style="stop-color:#fafafa;stop-opacity:1;"
         offset="0.75"
         id="stop6149-4" />
      <stop
         style="stop-color:#b7b7b7;stop-opacity:1;"
         offset="1"
         id="stop6143-4" />
    </linearGradient>
    <linearGradient
       inkscape:collect="always"
       xlink:href="#linearGradient3700"
       id="linearGradient3954"
       gradientUnits="userSpaceOnUse"
       x1="109.5719"
       y1="43.617867"
       x2="186.06068"
       y2="43.617867"
       gradientTransform="translate(-73.850195,15.431387)" />
    <linearGradient
       inkscape:collect="always"
       xlink:href="#linearGradient3700-9"
       id="linearGradient3954-0"
       gradientUnits="userSpaceOnUse"
       x1="109.5719"
       y1="43.617867"
       x2="186.06068"
       y2="43.617867"
       gradientTransform="translate(-73.850195,15.431387)" />
    <linearGradient
       id="linearGradient3700-9">
      <stop
         id="stop3702-4"
         style="stop-color:#730a13;stop-opacity:1"
         offset="0" />
      <stop
         id="stop3704-9"
         style="stop-color:#be212e;stop-opacity:1"
         offset="1" />
    </linearGradient>
    <linearGradient
       inkscape:collect="always"
       xlink:href="#linearGradient6139-0-3"
       id="linearGradient4071"
       gradientUnits="userSpaceOnUse"
       gradientTransform="matrix(1.1071428,0,0,1.1071426,-4.9939026,-3.620687)"
       x1="6"
       y1="47.000011"
       x2="90"
       y2="47.000011" />
    <linearGradient
       id="linearGradient6139-0-3">
      <stop
         id="stop6141-2-6"
         offset="0"
         style="stop-color:#b2babc;stop-opacity:1" />
      <stop
         style="stop-color:#ffffff;stop-opacity:1;"
         offset="0.25"
         id="stop6151-0-7" />
      <stop
         style="stop-color:#96a1a4;stop-opacity:1"
         offset="0.5"
         id="stop6147-1-5" />
      <stop
         id="stop6149-4-3"
         offset="0.75"
         style="stop-color:#fbf9f9;stop-opacity:1;" />
      <stop
         id="stop6143-4-5"
         offset="1"
         style="stop-color:#b2b9bc;stop-opacity:1" />
    </linearGradient>
    <linearGradient
       gradientTransform="translate(0.1489535,0.415026)"
       inkscape:collect="always"
       xlink:href="#linearGradient3832-0-6-1-1"
       id="linearGradient4129"
       x1="1.5"
       y1="88.171875"
       x2="94.5"
       y2="88.171875"
       gradientUnits="userSpaceOnUse" />
    <radialGradient
       inkscape:collect="always"
       xlink:href="#linearGradient3866"
       id="radialGradient7462"
       gradientUnits="userSpaceOnUse"
       gradientTransform="matrix(0.97513378,0,0,0.04919072,34.047649,80.581722)"
       cx="13.948145"
       cy="44.892841"
       fx="13.948145"
       fy="44.892841"
       r="43.199203" />
    <radialGradient
       inkscape:collect="always"
       xlink:href="#linearGradient3866"
       id="radialGradient7464"
       gradientUnits="userSpaceOnUse"
       gradientTransform="matrix(0.88832663,0,0,0.04919072,31.959518,-90.31726)"
       cx="13.948145"
       cy="44.892841"
       fx="13.948145"
       fy="44.892841"
       r="43.199203" />
    <linearGradient
       inkscape:collect="always"
       xlink:href="#linearGradient3866"
       id="linearGradient4767"
       gradientUnits="userSpaceOnUse"
       x1="2.7713892"
       y1="-28.64156"
       x2="50.527882"
       y2="14.514202" />
    <clipPath
       id="clipPath4156-4-1"
       clipPathUnits="userSpaceOnUse">
      <path
         inkscape:connector-curvature="0"
         id="path4158-0-8"
         d="m 27.046336,-55.695463 -14.21366,13.321486 h 0.06127 l 15.653407,21.770763 10.231384,-10.546177 C 38.561832,-32.30156 27.468089,-54.819245 27.046336,-55.695463 Z M 9.6468554,-39.382809 -5.2407289,-25.32124 15.987863,-7.8059573 26.372412,-18.382966 Z m 31.4906096,12.951445 -9.741259,9.713584 8.944804,12.4580526 7.780753,-7.5550056 z m -49.8397109,4.378822 -13.7541661,12.9822847 26.2830181,13.84571 0.06127,-0.0617 -0.122531,-0.0617 L 13.598503,-5.4007374 -8.7022409,-22.052595 Z m 38.0154159,7.400825 -9.802525,9.7752596 11.579232,9.5594001 7.62759,-7.40083 -8.669108,-11.0087257 z m 20.187073,5.6739697 -7.382526,7.2158 6.187844,8.54179 5.820249,-6.13651996 z m -32.195166,6.32154 -9.5574606,9.49772 13.6622686,7.1849703 7.933918,-7.6783603 z m 23.311629,2.37443004 -7.10683,6.93826996 8.362778,6.9074403 5.360756,-5.6739699 -0.06127,-0.0925 -0.0919,0.12335 -6.463539,-8.20258036 z m -8.730374,8.54178036 -7.505057,7.3391599 10.353916,5.45811 c 1.397496,-1.32103 5.67514,-6.12292 5.850882,-6.32154 z"
         style="opacity:0.6;fill:#ffffff;fill-opacity:1;stroke:none" />
    </clipPath>
    <clipPath
       clipPathUnits="userSpaceOnUse"
       id="clipPath4355-7">
      <rect
         style="fill:#ffffff;fill-opacity:1;fill-rule:nonzero;stroke:none"
         id="rect4357-5"
         width="84"
         height="80"
         x="6"
         y="6"
         rx="6"
         ry="6" />
    </clipPath>
    <clipPath
       clipPathUnits="userSpaceOnUse"
       id="clipPath4355-9">
      <rect
         style="fill:#ffffff;fill-opacity:1;fill-rule:nonzero;stroke:none"
         id="rect4357-1"
         width="84"
         height="80"
         x="6"
         y="6"
         rx="6"
         ry="6" />
    </clipPath>
    <clipPath
       clipPathUnits="userSpaceOnUse"
       id="clipPath4355-1">
      <rect
         style="fill:#ffffff;fill-opacity:1;fill-rule:nonzero;stroke:none"
         id="rect4357-9"
         width="84"
         height="80"
         x="6"
         y="6"
         rx="6"
         ry="6" />
    </clipPath>
    <clipPath
       clipPathUnits="userSpaceOnUse"
       id="clipPath3943-52-0">
      <path
         id="path3945-4-1"
         d="m 69.78125,20.84375 -5,3.4375 c 5.586891,5.537137 9,13.327613 9,21.8125 0,8.434478 -3.37723,16.095981 -8.90625,21.625 l 5,3.4375 C 76.078226,64.5762 80,55.843726 80,46.09375 c 2e-6,-9.796556 -3.962955,-18.660417 -10.21875,-25.25 z M 40,24.0625 28.90625,36.21875 H 21.5 c -0.823281,0 -1.5,0.676717 -1.5,1.5 v 1 14.84375 1 c 0,0.823281 0.684121,1.610161 1.5,1.5 h 7.40625 L 40,68 V 66 26.0625 Z m 20.59375,3.28125 -5,3.4375 L 55.5,30.875 c 3.93815,3.890071 6.40625,9.25018 6.40625,15.21875 0,5.920869 -2.42961,11.148358 -6.3125,15.03125 l 0.09375,0.09375 5.09375,3.4375 c 4.475428,-4.908367 7.25,-11.402005 7.25,-18.5625 0,-7.230696 -2.87904,-13.83107 -7.4375,-18.75 z m -9.25,6.5 -5.21875,3.625 c 2.222384,2.217802 3.71875,5.239596 3.71875,8.625 0,3.336509 -1.458847,6.227712 -3.625,8.4375 l 5.21875,3.625 c 2.822412,-3.236947 4.53125,-7.43414 4.53125,-12.0625 0,-4.672601 -1.754155,-9.001351 -4.625,-12.25 z"
         style="color:#000000;display:inline;overflow:visible;visibility:visible;opacity:0.8;fill:#ff00ff;fill-opacity:1;fill-rule:nonzero;stroke:none;stroke-width:1;marker:none;enable-background:accumulate"
         inkscape:connector-curvature="0" />
    </clipPath>
    <clipPath
       id="clipPath3888-6">
      <path
         d="m 34.405054,29.694011 c -1.445208,0.02254 -2.919206,0.387911 -4.351152,1.095614 -4.269072,2.10989 -6.01981,6.646131 -4.695487,12.051752 0.633127,2.584343 0.852059,6.07656 0.469548,7.481477 -0.542122,1.991087 -2.205522,3.033727 -4.883307,3.036415 -2.64526,0.0027 -5.246275,2.034052 -5.759799,4.507669 -0.525313,2.530457 0.07523,4.823108 1.721679,6.479773 1.935984,1.947973 4.622113,2.497148 6.949322,1.408646 3.369412,-1.575968 4.47335,-4.868513 3.036416,-8.984033 -0.692688,-1.983911 -0.724332,-2.250242 -0.375639,-3.505964 1.476071,-5.315659 13.601639,-5.704733 15.58902,-0.500852 0.469799,1.23015 0.392247,2.071774 -0.469549,4.225939 -0.527538,1.318622 -0.591657,1.777958 -0.500852,3.192931 0.165882,2.584715 1.40482,4.395911 3.8503,5.509373 1.488081,0.677544 4.581704,0.674543 6.041528,0 3.587923,-1.657947 4.934784,-5.252995 3.349448,-8.890124 -1.361707,-3.124041 -0.673576,-5.199696 2.191227,-6.636289 3.603721,-1.807133 8.809857,-1.394756 11.425687,0.907794 1.871634,1.64748 2.1514,3.073633 1.158221,5.916315 -1.318183,3.772926 -0.261956,7.036495 2.785989,8.671001 1.315819,0.70563 4.226039,0.70597 5.540676,0 1.190565,-0.639324 2.534692,-2.044816 2.973809,-3.099022 1.280899,-3.075078 0.233517,-6.944545 -2.285138,-8.420575 -0.87,-0.509852 -1.526557,-0.665364 -3.286841,-0.813885 -1.431395,-0.120772 -2.433179,-0.346881 -2.911203,-0.626065 -0.955475,-0.558027 -1.717812,-1.940421 -1.909498,-3.474661 -0.174487,-1.396503 0.214725,-4.87797 0.751278,-6.730199 0.554674,-1.914755 0.333157,-5.505878 -0.438245,-7.199747 -2.363621,-5.190107 -9.04051,-7.222371 -13.773432,-4.163333 -0.742332,0.479792 -1.694552,1.331941 -2.128621,1.878195 -1.521738,1.915054 -3.972708,4.36896 -4.726791,4.726791 -1.897458,0.900406 -3.845211,0.162547 -5.978921,-2.253834 -3.225307,-3.652591 -3.69738,-4.113581 -5.133733,-4.820702 -1.349446,-0.664331 -2.780731,-0.992937 -4.22594,-0.9704 z m 13.648219,10.643105 c 4.368792,-0.0072 7.338474,3.986758 6.104134,8.232756 -0.538316,1.851711 -2.30439,3.645287 -4.069423,4.163332 -1.510099,0.443218 -2.756009,0.465145 -4.163333,0.0313 -2.446752,-0.75425 -4.274141,-3.361467 -4.257242,-6.104135 0.01132,-1.835692 0.421587,-2.880766 1.690376,-4.257242 1.325034,-1.437485 2.759254,-2.062831 4.695488,-2.066015 z"
         inkscape:connector-curvature="0"
         id="path3890-0"
         style="color:#000000;display:inline;overflow:visible;visibility:visible;fill:#ff00ff;fill-opacity:1;fill-rule:nonzero;stroke:none;stroke-width:1;marker:none;enable-background:accumulate" />
    </clipPath>
    <filter
       style="color-interpolation-filters:sRGB"
       id="filter3892-6">
      <feGaussianBlur
         id="feGaussianBlur3894-2"
         stdDeviation="0.76960612" />
    </filter>
  </defs>
  <metadata
     id="metadata2413">
    <rdf:RDF>
      <cc:Work
         rdf:about="">
        <dc:format>image/svg+xml</dc:format>
        <dc:type
           rdf:resource="http://purl.org/dc/dcmitype/StillImage" />
        <dc:title />
      </cc:Work>
    </rdf:RDF>
  </metadata>
  <g
     id="layer2"
     style="display:none">
    <rect
       width="86"
       height="85"
       rx="6"
       ry="6"
       x="5"
       y="7"
       id="rect3745"
       style="opacity:0.9;fill:url(#ButtonShadow);fill-opacity:1;fill-rule:nonzero;stroke:none;filter:url(#filter3174)" />
  </g>
  <g
     id="layer5"
     style="display:none">
    <rect
       width="66"
       height="66"
       rx="12"
       ry="12"
       x="15"
       y="15"
       clip-path="url(#clipPath3613)"
       id="rect3171"
       style="opacity:0.1;fill:url(#linearGradient3613);fill-opacity:1;fill-rule:nonzero;stroke:#ffffff;stroke-width:0.5;stroke-linecap:round;stroke-linejoin:miter;stroke-miterlimit:4;stroke-opacity:1;stroke-dasharray:none;stroke-dashoffset:0;filter:url(#filter3794)" />
  </g>
  <g
     transform="translate(0,-1026.5197)"
     id="layer1"
     inkscape:label="Livello 1">
    <g
       id="g2574"
       style="display:inline"
       transform="translate(-0.14895645,1026.1047)">
      <path
         style="display:inline;opacity:0.15;fill:#000000;fill-opacity:1;fill-rule:nonzero;stroke:none"
         d="M 89.29181,0.415026 H 7.0060911 c -3.798848,0 -6.8571352,3.058285 -6.8571352,6.8571399 V 89.557884 c 0,3.798857 3.0582872,6.857142 6.8571352,6.857142 H 89.29181 c 3.798857,0 6.857147,-3.058285 6.857147,-6.857142 V 7.2721659 c 0,-3.7988549 -3.05829,-6.8571399 -6.857147,-6.8571399 z"
         id="path3288"
         inkscape:connector-curvature="0" />
      <path
         inkscape:connector-curvature="0"
         id="path4085"
         d="M 88.648954,1.165026 H 7.6489471 c -3.739492,0 -6.749993,3.010499 -6.749993,6.7499969 V 88.915026 c 0,3.739501 3.010501,6.75 6.749993,6.75 H 88.648954 c 3.739503,0 6.750003,-3.010499 6.750003,-6.75 V 7.9150229 c 0,-3.7394979 -3.0105,-6.7499969 -6.750003,-6.7499969 z"
         style="display:inline;opacity:0.15;fill:#000000;fill-opacity:1;fill-rule:nonzero;stroke:none" />
      <path
         style="display:inline;fill:url(#linearGradient4071);fill-opacity:1;fill-rule:nonzero;stroke:none"
         d="M 88.006093,1.915026 H 8.2918111 c -3.680143,0 -6.6428566,2.962713 -6.6428566,6.6428549 V 88.272171 c 0,3.680142 2.9627136,6.642856 6.6428566,6.642856 H 88.006093 c 3.680143,0 6.642854,-2.962714 6.642854,-6.642856 V 8.5578809 c 0,-3.6801419 -2.962711,-6.6428549 -6.642854,-6.6428549 z"
         id="rect4251-1-0"
         inkscape:connector-curvature="0" />
      <path
         style="display:inline;opacity:0.77864583;fill:#af0005;fill-opacity:0.92344499;fill-rule:nonzero;stroke:none;stroke-width:1.02950251"
         d="m 11.390247,6.8021682 c -2.8564964,0 -5.1241284,2.2883782 -5.1241284,5.1710028 v 21.42734 7.239403 39.913674 c 1.0972399,1.684484 2.9688485,2.811732 5.1241284,2.811732 h 4.099303 65.588849 4.099302 c 2.155281,0 4.026889,-1.127248 5.124129,-2.811732 V 40.639914 33.400511 11.973171 c 0,-2.8826246 -2.267632,-5.1710028 -5.124129,-5.1710028 z"
         id="path3400-6-9"
         inkscape:connector-curvature="0"
         sodipodi:nodetypes="sscccsccscccsss" />
      <g
         id="layer4"
         transform="matrix(1.1787365,0,0,1.1787365,-8.4303953,-10.157735)">
        <path
           d="m 34.405054,29.694011 c -1.445208,0.02254 -2.919206,0.387911 -4.351152,1.095614 -4.269072,2.10989 -6.01981,6.646131 -4.695487,12.051752 0.633127,2.584343 0.852059,6.07656 0.469548,7.481477 -0.542122,1.991087 -2.205522,3.033727 -4.883307,3.036415 -2.64526,0.0027 -5.246275,2.034052 -5.759799,4.507669 -0.525313,2.530457 0.07523,4.823108 1.721679,6.479773 1.935984,1.947973 4.622113,2.497148 6.949322,1.408646 3.369412,-1.575968 4.47335,-4.868513 3.036416,-8.984033 -0.692688,-1.983911 -0.724332,-2.250242 -0.375639,-3.505964 1.476071,-5.315659 13.601639,-5.704733 15.58902,-0.500852 0.469799,1.23015 0.392247,2.071774 -0.469549,4.225939 -0.527538,1.318622 -0.591657,1.777958 -0.500852,3.192931 0.165882,2.584715 1.40482,4.395911 3.8503,5.509373 1.488081,0.677544 4.581704,0.674543 6.041528,0 3.587923,-1.657947 4.934784,-5.252995 3.349448,-8.890124 -1.361707,-3.124041 -0.673576,-5.199696 2.191227,-6.636289 3.603721,-1.807133 8.809857,-1.394756 11.425687,0.907794 1.871634,1.64748 2.1514,3.073633 1.158221,5.916315 -1.318183,3.772926 -0.261956,7.036495 2.785989,8.671001 1.315819,0.70563 4.226039,0.70597 5.540676,0 1.190565,-0.639324 2.534692,-2.044816 2.973809,-3.099022 1.280899,-3.075078 0.233517,-6.944545 -2.285138,-8.420575 -0.87,-0.509852 -1.526557,-0.665364 -3.286841,-0.813885 -1.431395,-0.120772 -2.433179,-0.346881 -2.911203,-0.626065 -0.955475,-0.558027 -1.717812,-1.940421 -1.909498,-3.474661 -0.174487,-1.396503 0.214725,-4.87797 0.751278,-6.730199 0.554674,-1.914755 0.333157,-5.505878 -0.438245,-7.199747 -2.363621,-5.190107 -9.04051,-7.222371 -13.773432,-4.163333 -0.742332,0.479792 -1.694552,1.331941 -2.128621,1.878195 -1.521738,1.915054 -3.972708,4.36896 -4.726791,4.726791 -1.897458,0.900406 -3.845211,0.162547 -5.978921,-2.253834 -3.225307,-3.652591 -3.69738,-4.113581 -5.133733,-4.820702 -1.349446,-0.664331 -2.780731,-0.992937 -4.22594,-0.9704 z m 13.648219,10.643105 c 4.368792,-0.0072 7.338474,3.986758 6.104134,8.232756 -0.538316,1.851711 -2.30439,3.645287 -4.069423,4.163332 -1.510099,0.443218 -2.756009,0.465145 -4.163333,0.0313 -2.446752,-0.75425 -4.274141,-3.361467 -4.257242,-6.104135 0.01132,-1.835692 0.421587,-2.880766 1.690376,-4.257242 1.325034,-1.437485 2.759254,-2.062831 4.695488,-2.066015 z"
           inkscape:connector-curvature="0"
           id="rect3837"
           style="color:#000000;display:inline;overflow:visible;visibility:visible;fill:#ffffff;fill-opacity:1;fill-rule:nonzero;stroke:none;stroke-width:12;marker:none;enable-background:accumulate" />
        <path
           d="m 34.40625,28.6875 c -1.445208,0.02254 -2.911804,0.386047 -4.34375,1.09375 -3.468621,1.714286 -5.279982,5.042296 -5.125,9.125 0.15182,-3.626234 1.94151,-6.551634 5.125,-8.125 1.431946,-0.707703 2.898542,-1.07121 4.34375,-1.09375 1.445209,-0.02254 2.869304,0.304419 4.21875,0.96875 1.436353,0.707121 1.899693,1.191159 5.125,4.84375 2.13371,2.416381 4.102542,3.150406 6,2.25 0.754083,-0.357831 3.197012,-2.834946 4.71875,-4.75 0.434069,-0.546254 1.382668,-1.395208 2.125,-1.875 4.732922,-3.059038 11.417629,-1.002607 13.78125,4.1875 0.433961,0.952905 0.70438,2.482464 0.75,4 0.06295,-1.796668 -0.219708,-3.835568 -0.75,-5 -2.363621,-5.190107 -9.048328,-7.246538 -13.78125,-4.1875 -0.742332,0.479792 -1.690931,1.328746 -2.125,1.875 -1.521738,1.915054 -3.964667,4.392169 -4.71875,4.75 -1.897458,0.900406 -3.86629,0.166381 -6,-2.25 -3.225307,-3.652591 -3.688647,-4.136629 -5.125,-4.84375 -1.349446,-0.664331 -2.773541,-0.991287 -4.21875,-0.96875 z m 7.28125,17.40625 c -0.01199,0.187852 -0.02998,0.356284 -0.03125,0.5625 -0.0169,2.742668 1.834498,5.3395 4.28125,6.09375 1.407324,0.433845 2.646151,0.411968 4.15625,-0.03125 1.765033,-0.518045 3.524184,-2.304539 4.0625,-4.15625 0.241333,-0.83016 0.340363,-1.65463 0.28125,-2.4375 -0.03493,0.476487 -0.139126,0.948607 -0.28125,1.4375 -0.538316,1.851711 -2.297467,3.638205 -4.0625,4.15625 -1.510099,0.443218 -2.748926,0.465095 -4.15625,0.03125 -2.317228,-0.714322 -4.084329,-3.076911 -4.25,-5.65625 z m 28.34375,1.75 c -0.02034,0.551712 -0.01237,1.025874 0.03125,1.375 0.191686,1.53424 0.950775,2.910723 1.90625,3.46875 0.478024,0.279184 1.474855,0.504228 2.90625,0.625 1.760284,0.148521 2.41125,0.333898 3.28125,0.84375 1.687102,0.988707 2.70326,3.04033 2.8125,5.21875 0.203503,-2.525576 -0.868179,-5.079302 -2.8125,-6.21875 -0.87,-0.509852 -1.520966,-0.695229 -3.28125,-0.84375 -1.431395,-0.120772 -2.428226,-0.345816 -2.90625,-0.625 -0.955475,-0.558027 -1.714564,-1.93451 -1.90625,-3.46875 -0.0138,-0.110428 -0.0243,-0.240335 -0.03125,-0.375 z M 26,48.09375 c -0.02728,0.493778 -0.101374,0.90242 -0.1875,1.21875 -0.542122,1.991087 -2.197215,3.028562 -4.875,3.03125 -2.64526,0.0027 -5.236476,2.057633 -5.75,4.53125 -0.154827,0.74581 -0.194977,1.461949 -0.15625,2.15625 0.0276,-0.379633 0.07475,-0.763684 0.15625,-1.15625 0.513524,-2.473617 3.10474,-4.52855 5.75,-4.53125 2.677785,-0.0027 4.332878,-1.040163 4.875,-3.03125 0.137943,-0.50665 0.197211,-1.309662 0.1875,-2.21875 z m 27.75,5.4375 c -0.123108,0.943405 0.07776,2.025776 0.625,3.28125 0.367834,0.843896 0.56424,1.684305 0.625,2.5 0.08711,-1.117884 -0.104566,-2.306004 -0.625,-3.5 -0.363097,-0.83302 -0.5558,-1.589553 -0.625,-2.28125 z M 42.34375,53.6875 C 42.256524,54.289219 42.022158,55.007255 41.625,56 c -0.500284,1.250498 -0.570152,1.747175 -0.5,3 0.03547,-0.632166 0.156061,-1.140298 0.5,-2 0.638252,-1.59539 0.84458,-2.465954 0.71875,-3.3125 z M 69.6875,53.84375 C 69.621446,54.470044 69.444414,55.175215 69.15625,56 68.719439,57.250249 68.554275,58.433608 68.625,59.53125 68.679978,58.724674 68.850402,57.875404 69.15625,57 c 0.453266,-1.29734 0.638562,-2.293297 0.53125,-3.15625 z m -43.3125,0.125 c -0.130418,0.741307 -0.0087,1.266053 0.53125,2.8125 0.33899,0.9709 0.533966,1.882437 0.59375,2.75 0.06563,-1.141198 -0.122478,-2.400232 -0.59375,-3.75 -0.299159,-0.856815 -0.456077,-1.378356 -0.53125,-1.8125 z"
           inkscape:connector-curvature="0"
           id="path3874"
           style="color:#000000;display:inline;overflow:visible;visibility:visible;fill:#a31924;fill-opacity:1;fill-rule:nonzero;stroke:none;stroke-width:12;marker:none;enable-background:accumulate" />
        <path
           d="m 24.9375,39.96875 c -0.0446,1.218405 0.07517,2.523595 0.40625,3.875 0.404805,1.652362 0.639032,3.638227 0.65625,5.25 0.09388,-1.699242 -0.165677,-4.247545 -0.65625,-6.25 -0.242817,-0.99113 -0.366755,-1.95192 -0.40625,-2.875 z M 71.125,40.3125 c -0.02862,0.816899 -0.139131,1.589022 -0.3125,2.1875 -0.469484,1.6207 -0.816309,4.497754 -0.78125,6.125 0.07817,-1.636458 0.394948,-3.79145 0.78125,-5.125 0.242636,-0.837589 0.347974,-2.007487 0.3125,-3.1875 z m -23.0625,0.03125 c -1.936234,0.0032 -3.393716,0.625015 -4.71875,2.0625 -1.268789,1.376476 -1.67618,2.414308 -1.6875,4.25 -8.95e-4,0.145189 0.02199,0.293325 0.03125,0.4375 0.09476,-1.484368 0.529993,-2.465653 1.65625,-3.6875 1.325034,-1.437485 2.782516,-2.059316 4.71875,-2.0625 3.514624,-0.0058 6.131769,2.559993 6.375,5.78125 0.268473,-3.661766 -2.509239,-6.787621 -6.375,-6.78125 z M 34.125,49.0625 c -3.464323,0.111241 -6.855714,1.52967 -7.59375,4.1875 -0.198099,0.713398 -0.255137,1.147657 -0.15625,1.71875 0.03689,-0.209703 0.07936,-0.441856 0.15625,-0.71875 1.476071,-5.315659 13.575119,-5.703881 15.5625,-0.5 0.11745,0.307538 0.204671,0.620699 0.25,0.90625 0.09521,-0.689911 -2.53e-4,-1.252298 -0.25,-1.90625 -0.99369,-2.60194 -4.504427,-3.798741 -7.96875,-3.6875 z m 26.9375,0 c -1.580974,0.07081 -3.148605,0.416075 -4.5,1.09375 -2.100909,1.053528 -3.002818,2.472653 -2.8125,4.375 0.183226,-1.404103 1.09899,-2.515738 2.8125,-3.375 3.603721,-1.807133 8.82167,-1.3963 11.4375,0.90625 1.01746,0.895605 1.559674,1.753334 1.6875,2.78125 C 69.849105,53.311475 69.328592,52.231975 68,51.0625 c -1.634894,-1.439094 -4.302543,-2.118008 -6.9375,-2 z M 41.125,60 c -0.01893,0.337458 -0.0316,0.695047 0,1.1875 0.165882,2.584715 1.42952,4.386538 3.875,5.5 1.488081,0.677544 4.571426,0.674543 6.03125,0 2.755444,-1.273266 4.169862,-3.67511 3.96875,-6.375 -0.178237,2.287395 -1.558669,4.261323 -3.96875,5.375 -1.459824,0.674543 -4.543169,0.677544 -6.03125,0 -2.44548,-1.113462 -3.709118,-2.915285 -3.875,-5.5 -0.0047,-0.0731 0.0038,-0.11925 0,-0.1875 z m -26.09375,0.03125 c -0.150313,2.067456 0.483975,3.912844 1.875,5.3125 1.935984,1.947973 4.610291,2.494752 6.9375,1.40625 2.574528,-1.204178 3.849883,-3.408825 3.65625,-6.21875 -0.134476,2.338379 -1.391905,4.159653 -3.65625,5.21875 -2.327209,1.088502 -5.001516,0.541723 -6.9375,-1.40625 -1.161185,-1.16839 -1.78233,-2.651111 -1.875,-4.3125 z m 65.9375,0.34375 c -0.06011,0.746032 -0.239164,1.486283 -0.53125,2.1875 -0.439117,1.054206 -1.778185,2.454426 -2.96875,3.09375 -1.314637,0.70597 -4.215431,0.70563 -5.53125,0 -2.037936,-1.092874 -3.169796,-2.910244 -3.3125,-5.125 -0.181974,2.669707 0.971747,4.869736 3.3125,6.125 1.315819,0.70563 4.216613,0.70597 5.53125,0 1.190565,-0.639324 2.529633,-2.039544 2.96875,-3.09375 0.422899,-1.015261 0.585093,-2.113781 0.53125,-3.1875 z"
           inkscape:connector-curvature="0"
           id="path3879"
           style="color:#000000;display:inline;overflow:visible;visibility:visible;opacity:0.15;fill:#ffffff;fill-opacity:1;fill-rule:nonzero;stroke:none;stroke-width:12;marker:none;enable-background:accumulate" />
        <path
           d="m 34.405054,29.694011 c -1.445208,0.02254 -2.919206,0.387911 -4.351152,1.095614 -4.269072,2.10989 -6.01981,6.646131 -4.695487,12.051752 0.633127,2.584343 0.852059,6.07656 0.469548,7.481477 -0.542122,1.991087 -2.205522,3.033727 -4.883307,3.036415 -2.64526,0.0027 -5.246275,2.034052 -5.759799,4.507669 -0.525313,2.530457 0.07523,4.823108 1.721679,6.479773 1.935984,1.947973 4.622113,2.497148 6.949322,1.408646 3.369412,-1.575968 4.47335,-4.868513 3.036416,-8.984033 -0.692688,-1.983911 -0.724332,-2.250242 -0.375639,-3.505964 1.476071,-5.315659 13.601639,-5.704733 15.58902,-0.500852 0.469799,1.23015 0.392247,2.071774 -0.469549,4.225939 -0.527538,1.318622 -0.591657,1.777958 -0.500852,3.192931 0.165882,2.584715 1.40482,4.395911 3.8503,5.509373 1.488081,0.677544 4.581704,0.674543 6.041528,0 3.587923,-1.657947 4.934784,-5.252995 3.349448,-8.890124 -1.361707,-3.124041 -0.673576,-5.199696 2.191227,-6.636289 3.603721,-1.807133 8.809857,-1.394756 11.425687,0.907794 1.871634,1.64748 2.1514,3.073633 1.158221,5.916315 -1.318183,3.772926 -0.261956,7.036495 2.785989,8.671001 1.315819,0.70563 4.226039,0.70597 5.540676,0 1.190565,-0.639324 2.534692,-2.044816 2.973809,-3.099022 1.280899,-3.075078 0.233517,-6.944545 -2.285138,-8.420575 -0.87,-0.509852 -1.526557,-0.665364 -3.286841,-0.813885 -1.431395,-0.120772 -2.433179,-0.346881 -2.911203,-0.626065 -0.955475,-0.558027 -1.717812,-1.940421 -1.909498,-3.474661 -0.174487,-1.396503 0.214725,-4.87797 0.751278,-6.730199 0.554674,-1.914755 0.333157,-5.505878 -0.438245,-7.199747 -2.363621,-5.190107 -9.04051,-7.222371 -13.773432,-4.163333 -0.742332,0.479792 -1.694552,1.331941 -2.128621,1.878195 -1.521738,1.915054 -3.972708,4.36896 -4.726791,4.726791 -1.897458,0.900406 -3.845211,0.162547 -5.978921,-2.253834 -3.225307,-3.652591 -3.69738,-4.113581 -5.133733,-4.820702 -1.349446,-0.664331 -2.780731,-0.992937 -4.22594,-0.9704 z m 13.648219,10.643105 c 4.368792,-0.0072 7.338474,3.986758 6.104134,8.232756 -0.538316,1.851711 -2.30439,3.645287 -4.069423,4.163332 -1.510099,0.443218 -2.756009,0.465145 -4.163333,0.0313 -2.446752,-0.75425 -4.274141,-3.361467 -4.257242,-6.104135 0.01132,-1.835692 0.421587,-2.880766 1.690376,-4.257242 1.325034,-1.437485 2.759254,-2.062831 4.695488,-2.066015 z"
           inkscape:connector-curvature="0"
           clip-path="url(#clipPath3888-6)"
           id="path3884"
           style="color:#000000;display:inline;overflow:visible;visibility:visible;opacity:0.15;fill:none;stroke:#000000;stroke-width:1;stroke-miterlimit:4;stroke-dasharray:none;marker:none;filter:url(#filter3892-6);enable-background:accumulate" />
      </g>
      <path
         inkscape:connector-curvature="0"
         id="path4989-3"
         d="m 9.9740341,5.1444869 c -3.116621,0 -5.667965,2.53951 -5.667965,5.6460041 v 69.277996 c 0,3.106495 2.551344,5.646004 5.667965,5.646004 H 86.765819 c 3.116621,0 5.667968,-2.539509 5.667968,-5.646004 V 10.790491 c 0,-3.1064931 -2.551347,-5.6460041 -5.667968,-5.6460041 z m 0,2.319439 H 86.765819 c 1.888099,0 3.352022,1.480095 3.352022,3.3265651 v 69.277996 c 0,1.846474 -1.463923,3.326564 -3.352022,3.326564 H 9.9740341 c -1.888099,0 -3.352022,-1.48009 -3.352022,-3.326564 V 10.790491 c 0,-1.8464701 1.463923,-3.3265651 3.352022,-3.3265651 z"
         style="color:#000000;font-style:normal;font-variant:normal;font-weight:normal;font-stretch:normal;font-size:medium;line-height:normal;font-family:Sans;-inkscape-font-specification:Sans;text-indent:0;text-align:start;text-decoration:none;text-decoration-line:none;letter-spacing:normal;word-spacing:normal;text-transform:none;writing-mode:lr-tb;direction:ltr;baseline-shift:baseline;text-anchor:start;display:inline;overflow:visible;visibility:visible;fill:#241f1f;fill-opacity:0.63265303;stroke:none;stroke-width:2.3755002;marker:none;enable-background:accumulate" />
      <path
         inkscape:connector-curvature="0"
         style="display:inline;opacity:0.65818182;fill:url(#linearGradient4129);fill-opacity:1;fill-rule:nonzero;stroke:none"
         d="m 1.6489535,82.258776 v 6 c 0,3.680142 2.9761066,6.65625 6.6562496,6.65625 H 87.992703 c 3.680143,0 6.656254,-2.976108 6.656254,-6.65625 v -6 c 0,3.680142 -2.976111,6.65625 -6.656254,6.65625 H 8.3052031 c -3.680143,0 -6.6562496,-2.976108 -6.6562496,-6.65625 z"
         id="path4118" />
      <rect
         style="opacity:0.55;fill:url(#radialGradient7462);fill-opacity:1;stroke:none"
         id="rect4131"
         width="84.250008"
         height="4.25"
         x="5.5239539"
         y="80.665031"
         rx="0"
         ry="4.25" />
      <rect
         ry="4.25"
         rx="0"
         y="-90.233963"
         x="5.9750223"
         height="4.25"
         width="76.75"
         id="rect4141"
         style="opacity:0.669;fill:url(#radialGradient7464);fill-opacity:1;stroke:none"
         transform="rotate(90)" />
      <rect
         transform="matrix(1.0692451,0,0,1.0476829,4.4441802,38.894013)"
         style="opacity:0.5078125;fill:url(#linearGradient4767);fill-opacity:1;stroke:none"
         id="rect4146"
         width="75.965775"
         height="69.024437"
         x="2"
         y="-30"
         rx="3.9569874"
         ry="3.9569881"
         clip-path="url(#clipPath4156-4-1)" />
    </g>
  </g>
</svg>
