<?xml version="1.0" encoding="UTF-8" standalone="no"?>
<!-- Created with Inkscape (http://www.inkscape.org/) -->

<svg
   xmlns:dc="http://purl.org/dc/elements/1.1/"
   xmlns:cc="http://creativecommons.org/ns#"
   xmlns:rdf="http://www.w3.org/1999/02/22-rdf-syntax-ns#"
   xmlns:svg="http://www.w3.org/2000/svg"
   xmlns="http://www.w3.org/2000/svg"
   xmlns:xlink="http://www.w3.org/1999/xlink"
   xmlns:sodipodi="http://sodipodi.sourceforge.net/DTD/sodipodi-0.dtd"
   xmlns:inkscape="http://www.inkscape.org/namespaces/inkscape"
   width="96"
   height="96"
   viewBox="0 0 96.000001 96.000002"
   id="svg2"
   version="1.1"
   inkscape:version="0.92.2 2405546, 2018-03-11"
   sodipodi:docname="nerolinux.svg">
  <defs
     id="defs4">
    <linearGradient
       inkscape:collect="always"
       xlink:href="#linearGradient6139-0-3"
       id="linearGradient4071"
       gradientUnits="userSpaceOnUse"
       gradientTransform="matrix(1.1059895,0,0,1.1071426,-5.1375019,952.32649)"
       x1="6"
       y1="47.000011"
       x2="90"
       y2="47.000011" />
    <linearGradient
       id="linearGradient6139-0-3">
      <stop
         id="stop6141-2-6"
         offset="0"
         style="stop-color:#b2babc;stop-opacity:1" />
      <stop
         style="stop-color:#ffffff;stop-opacity:1;"
         offset="0.25"
         id="stop6151-0-7" />
      <stop
         style="stop-color:#96a1a4;stop-opacity:1"
         offset="0.5"
         id="stop6147-1-5" />
      <stop
         id="stop6149-4-3"
         offset="0.75"
         style="stop-color:#fbf9f9;stop-opacity:1;" />
      <stop
         id="stop6143-4-5"
         offset="1"
         style="stop-color:#b2b9bc;stop-opacity:1" />
    </linearGradient>
    <radialGradient
       inkscape:collect="always"
       xlink:href="#linearGradient1200"
       id="radialGradient1003"
       cx="48.118782"
       cy="45.695042"
       fx="48.118782"
       fy="45.695042"
       r="42.278999"
       gradientTransform="matrix(1.8603846,1.9014301,-0.85223561,0.83383874,-2.3566744,871.7954)"
       gradientUnits="userSpaceOnUse" />
    <linearGradient
       id="linearGradient1200">
      <stop
         id="stop1196"
         style="stop-color:#6d0112;stop-opacity:1"
         offset="0" />
      <stop
         id="stop1198"
         style="stop-color:#ff9c52;stop-opacity:0.98039216"
         offset="1" />
    </linearGradient>
    <linearGradient
       gradientTransform="matrix(0.99895835,0,0,0.99999997,-2.96e-6,956.3622)"
       inkscape:collect="always"
       xlink:href="#linearGradient3832-0-6-1-1"
       id="linearGradient4129"
       x1="1.5"
       y1="88.171875"
       x2="94.5"
       y2="88.171875"
       gradientUnits="userSpaceOnUse" />
    <linearGradient
       id="linearGradient3832-0-6-1-1">
      <stop
         style="stop-color:#000000;stop-opacity:1;"
         offset="0"
         id="stop3834-6-3-7-1" />
      <stop
         id="stop3872-2-4"
         offset="0.1"
         style="stop-color:#000000;stop-opacity:0.58823532;" />
      <stop
         style="stop-color:#000000;stop-opacity:0.58823532;"
         offset="0.89999998"
         id="stop3844-6-2-7-6" />
      <stop
         style="stop-color:#000000;stop-opacity:1;"
         offset="1"
         id="stop3836-5-0-2-9" />
    </linearGradient>
    <radialGradient
       inkscape:collect="always"
       xlink:href="#linearGradient3737"
       id="radialGradient7462"
       gradientUnits="userSpaceOnUse"
       gradientTransform="matrix(0.97411799,0,0,0.04919072,33.86338,1036.5289)"
       cx="13.948145"
       cy="44.892841"
       fx="13.948145"
       fy="44.892841"
       r="43.199203" />
    <linearGradient
       id="linearGradient3737">
      <stop
         offset="0"
         style="stop-color:#ffffff;stop-opacity:1"
         id="stop3739" />
      <stop
         offset="1"
         style="stop-color:#ffffff;stop-opacity:0"
         id="stop3741" />
    </linearGradient>
    <radialGradient
       inkscape:collect="always"
       xlink:href="#linearGradient3737"
       id="radialGradient1062"
       gradientUnits="userSpaceOnUse"
       gradientTransform="matrix(0.88832662,0,0,0.04913948,987.90669,-90.074381)"
       cx="13.948145"
       cy="44.892841"
       fx="13.948145"
       fy="44.892841"
       r="43.199203" />
    <linearGradient
       gradientTransform="matrix(1.0041884,0,0,1.0052356,-0.21820995,-0.04755458)"
       inkscape:collect="always"
       xlink:href="#linearGradient3737"
       id="linearGradient4767"
       gradientUnits="userSpaceOnUse"
       x1="2.7713892"
       y1="-28.64156"
       x2="50.527882"
       y2="14.514202" />
    <clipPath
       id="clipPath4156-4-1"
       clipPathUnits="userSpaceOnUse">
      <path
         inkscape:connector-curvature="0"
         id="path4158-0-8"
         d="m 27.046336,-55.695463 -14.21366,13.321486 h 0.06127 l 15.653407,21.770763 10.231384,-10.546177 C 38.561832,-32.30156 27.468089,-54.819245 27.046336,-55.695463 Z M 9.6468554,-39.382809 -5.2407289,-25.32124 15.987863,-7.8059573 26.372412,-18.382966 Z m 31.4906096,12.951445 -9.741259,9.713584 8.944804,12.4580526 7.780753,-7.5550056 z m -49.8397109,4.378822 -13.7541661,12.9822847 26.2830181,13.84571 0.06127,-0.0617 -0.122531,-0.0617 L 13.598503,-5.4007374 -8.7022409,-22.052595 Z m 38.0154159,7.400825 -9.802525,9.7752596 11.579232,9.5594001 7.62759,-7.40083 -8.669108,-11.0087257 z m 20.187073,5.6739697 -7.382526,7.2158 6.187844,8.54179 5.820249,-6.13651996 z m -32.195166,6.32154 -9.5574606,9.49772 13.6622686,7.1849703 7.933918,-7.6783603 z m 23.311629,2.37443004 -7.10683,6.93826996 8.362778,6.9074403 5.360756,-5.6739699 -0.06127,-0.0925 -0.0919,0.12335 -6.463539,-8.20258036 z m -8.730374,8.54178036 -7.505057,7.3391599 10.353916,5.45811 c 1.397496,-1.32103 5.67514,-6.12292 5.850882,-6.32154 z"
         style="opacity:0.6;fill:#ffffff;fill-opacity:1;stroke:none" />
    </clipPath>
    <linearGradient
       inkscape:collect="always"
       xlink:href="#linearGradient4202-8"
       id="linearGradient1064"
       gradientUnits="userSpaceOnUse"
       gradientTransform="translate(0,-0.09753749)"
       x1="8"
       y1="53"
       x2="53"
       y2="8" />
    <linearGradient
       id="linearGradient4202-8">
      <stop
         offset="0"
         style="stop-color:#b7ffff;stop-opacity:1"
         id="stop4204-1" />
      <stop
         offset="0.5"
         style="stop-color:#ffffff;stop-opacity:1"
         id="stop4210-2" />
      <stop
         offset="1"
         style="stop-color:#b7ffff;stop-opacity:1"
         id="stop4206-5" />
    </linearGradient>
    <linearGradient
       inkscape:collect="always"
       xlink:href="#linearGradient4148-0"
       id="linearGradient4724-4"
       gradientUnits="userSpaceOnUse"
       x1="8"
       y1="53"
       x2="53"
       y2="8"
       gradientTransform="rotate(90,47.974649,47.877112)" />
    <linearGradient
       id="linearGradient4148-0">
      <stop
         offset="0"
         style="stop-color:#fff6f5;stop-opacity:0"
         id="stop4150-6" />
      <stop
         offset="0.22222222"
         style="stop-color:#fffcf5;stop-opacity:0.50199997"
         id="stop4152-1" />
      <stop
         offset="0.37777779"
         style="stop-color:#f5fff5;stop-opacity:1"
         id="stop4154-9" />
      <stop
         offset="0.46666667"
         style="stop-color:#fbf5ff;stop-opacity:1"
         id="stop4156-4" />
      <stop
         offset="0.53333336"
         style="stop-color:#f5f5ff;stop-opacity:1"
         id="stop4158-2" />
      <stop
         offset="0.62222224"
         style="stop-color:#f5ffff;stop-opacity:1"
         id="stop4160-6" />
      <stop
         offset="0.77777779"
         style="stop-color:#f5fff5;stop-opacity:0.5"
         id="stop4162-6" />
      <stop
         offset="1"
         style="stop-color:#fff6f5;stop-opacity:0"
         id="stop4164-4" />
    </linearGradient>
    <linearGradient
       inkscape:collect="always"
       xlink:href="#linearGradient4750-3"
       id="linearGradient4730-8"
       gradientUnits="userSpaceOnUse"
       gradientTransform="matrix(1,0,0,-1,0,95.729952)"
       x1="8"
       y1="53"
       x2="53"
       y2="8" />
    <linearGradient
       id="linearGradient4750-3">
      <stop
         id="stop4752-7"
         style="stop-color:#f9dafb;stop-opacity:1;"
         offset="0" />
      <stop
         offset="0.24293166"
         style="stop-color:#ffffff;stop-opacity:0.29310346;"
         id="stop4754-0" />
      <stop
         offset="0.41777548"
         style="stop-color:#f7c6eb;stop-opacity:0.87450981;"
         id="stop4756-3" />
      <stop
         offset="0.67086792"
         style="stop-color:#fefafe;stop-opacity:0.75294119;"
         id="stop4758-7" />
      <stop
         id="stop4760-4"
         style="stop-color:#9fb8f8;stop-opacity:1"
         offset="1" />
    </linearGradient>
    <radialGradient
       inkscape:collect="always"
       xlink:href="#linearGradient4750-3"
       id="radialGradient1066"
       gradientUnits="userSpaceOnUse"
       gradientTransform="matrix(1.9839386,-0.00343599,0.00352432,2.034947,-55.381211,-43.425388)"
       cx="51.92569"
       cy="45.250969"
       fx="51.92569"
       fy="45.250969"
       r="20" />
    <filter
       style="color-interpolation-filters:sRGB"
       inkscape:collect="always"
       id="filter4766-6">
      <feGaussianBlur
         inkscape:collect="always"
         stdDeviation="0.4"
         id="feGaussianBlur4768-4" />
    </filter>
    <linearGradient
       gradientUnits="userSpaceOnUse"
       xlink:href="#linearGradient4202-8"
       id="linearGradient4242-4-2"
       y2="6"
       x2="90"
       y1="90"
       x1="6" />
    <linearGradient
       gradientUnits="userSpaceOnUse"
       xlink:href="#linearGradient4091-5"
       id="linearGradient4089-4-9"
       y2="6"
       x2="48"
       y1="88"
       x1="48" />
    <linearGradient
       id="linearGradient4091-5">
      <stop
         offset="0"
         style="stop-color:#000000;stop-opacity:0.50199997"
         id="stop4093-3" />
      <stop
         offset="1"
         style="stop-color:#000000;stop-opacity:0"
         id="stop4095-5" />
    </linearGradient>
    <filter
       style="color-interpolation-filters:sRGB"
       id="filter4550-9-6">
      <feGaussianBlur
         stdDeviation="1.167399"
         id="feGaussianBlur4552-8-1" />
    </filter>
    <linearGradient
       gradientUnits="userSpaceOnUse"
       xlink:href="#linearGradient4478-7"
       id="linearGradient4438-1-2"
       y2="16.450487"
       x2="82.832512"
       y1="50.416866"
       x1="42.17387" />
    <linearGradient
       id="linearGradient4478-7">
      <stop
         offset="0"
         style="stop-color:#e82014;stop-opacity:1"
         id="stop4480-2" />
      <stop
         offset="1"
         style="stop-color:#e0c71c;stop-opacity:1"
         id="stop4482-7" />
    </linearGradient>
    <linearGradient
       gradientUnits="userSpaceOnUse"
       xlink:href="#linearGradient4488-9"
       id="linearGradient4440-6-1"
       y2="11.070712"
       x2="77.902939"
       y1="52.234428"
       x1="33.051216" />
    <linearGradient
       id="linearGradient4488-9">
      <stop
         offset="0"
         style="stop-color:#e89b14;stop-opacity:0.50199997"
         id="stop4490-1" />
      <stop
         offset="1"
         style="stop-color:#e0441c;stop-opacity:0.50199997"
         id="stop4492-1" />
    </linearGradient>
    <linearGradient
       gradientUnits="userSpaceOnUse"
       xlink:href="#linearGradient4516-2"
       id="linearGradient4442-6-7"
       y2="14.829379"
       x2="82.201164"
       y1="48.043663"
       x1="30.627434" />
    <linearGradient
       id="linearGradient4516-2">
      <stop
         offset="0"
         style="stop-color:#ffffff;stop-opacity:0.30199999"
         id="stop4518-4" />
      <stop
         offset="1"
         style="stop-color:#ffffff;stop-opacity:0.50199997"
         id="stop4520-5" />
    </linearGradient>
  </defs>
  <sodipodi:namedview
     id="base"
     pagecolor="#ffffff"
     bordercolor="#666666"
     borderopacity="1.0"
     inkscape:pageopacity="0.0"
     inkscape:pageshadow="2"
     inkscape:zoom="3.8541667"
     inkscape:cx="32.562164"
     inkscape:cy="45.924324"
     inkscape:document-units="px"
     inkscape:current-layer="layer1"
     showgrid="false"
     units="px"
     inkscape:showpageshadow="false"
     inkscape:window-width="1920"
     inkscape:window-height="1026"
     inkscape:window-x="0"
     inkscape:window-y="28"
     inkscape:window-maximized="1" />
  <metadata
     id="metadata7">
    <rdf:RDF>
      <cc:Work
         rdf:about="">
        <dc:format>image/svg+xml</dc:format>
        <dc:type
           rdf:resource="http://purl.org/dc/dcmitype/StillImage" />
        <dc:title></dc:title>
        <cc:license
           rdf:resource="http://creativecommons.org/licenses/by-sa/4.0/" />
        <dc:date>2019</dc:date>
        <dc:creator>
          <cc:Agent>
            <dc:title>Cristian Pozzessere &lt; ilnanny &gt;</dc:title>
          </cc:Agent>
        </dc:creator>
        <dc:subject>
          <rdf:Bag>
            <rdf:li>ilnanny</rdf:li>
            <rdf:li>inkscape</rdf:li>
            <rdf:li>vectorart</rdf:li>
            <rdf:li>svgfiles</rdf:li>
            <rdf:li>wallpapers</rdf:li>
            <rdf:li>icons</rdf:li>
            <rdf:li>patterns</rdf:li>
          </rdf:Bag>
        </dc:subject>
        <dc:coverage>Italy</dc:coverage>
        <dc:description>..when I have nothing to do, I scribble and have fun with inkscape.</dc:description>
        <dc:contributor>
          <cc:Agent>
            <dc:title>In the night, alone like a dog.</dc:title>
          </cc:Agent>
        </dc:contributor>
      </cc:Work>
      <cc:License
         rdf:about="http://creativecommons.org/licenses/by-sa/4.0/">
        <cc:permits
           rdf:resource="http://creativecommons.org/ns#Reproduction" />
        <cc:permits
           rdf:resource="http://creativecommons.org/ns#Distribution" />
        <cc:requires
           rdf:resource="http://creativecommons.org/ns#Notice" />
        <cc:requires
           rdf:resource="http://creativecommons.org/ns#Attribution" />
        <cc:permits
           rdf:resource="http://creativecommons.org/ns#DerivativeWorks" />
        <cc:requires
           rdf:resource="http://creativecommons.org/ns#ShareAlike" />
      </cc:License>
    </rdf:RDF>
  </metadata>
  <g
     inkscape:label="Livello 1"
     inkscape:groupmode="layer"
     id="layer1"
     transform="translate(0,-956.36218)">
    <path
       inkscape:connector-curvature="0"
       id="path3288"
       d="M 88.928567,956.61218 H 7.0714218 c -3.7790622,0 -6.82142085,3.04235 -6.82142085,6.82142 v 81.8571 c 0,3.7791 3.04235865,6.8215 6.82142085,6.8215 H 88.928567 c 3.779072,0 6.821432,-3.0424 6.821432,-6.8215 v -81.8571 c 0,-3.77907 -3.04236,-6.82142 -6.821432,-6.82142 z"
       style="display:inline;opacity:0.15;fill:#000000;fill-opacity:1;fill-rule:nonzero;stroke:none;stroke-width:0.99947876" />
    <path
       style="display:inline;opacity:0.15;fill:#000000;fill-opacity:1;fill-rule:nonzero;stroke:none;stroke-width:0.99947876"
       d="M 88.28906,957.35827 H 7.7109294 c -3.7200153,0 -6.71483653,2.99482 -6.71483653,6.71484 v 80.57809 c 0,3.7201 2.99482123,6.7149 6.71483653,6.7149 H 88.28906 c 3.720024,0 6.714845,-2.9948 6.714845,-6.7149 v -80.57809 c 0,-3.72002 -2.994821,-6.71484 -6.714845,-6.71484 z"
       id="path4085"
       inkscape:connector-curvature="0" />
    <path
       inkscape:connector-curvature="0"
       id="rect4251-1"
       d="M 87.649545,958.10436 H 8.3504453 c -3.6609756,0 -6.6082583,2.94729 -6.6082583,6.60826 v 79.29908 c 0,3.661 2.9472827,6.6083 6.6082583,6.6083 H 87.649545 c 3.660978,0 6.608258,-2.9473 6.608258,-6.6083 v -79.29908 c 0,-3.66097 -2.94728,-6.60826 -6.608258,-6.60826 z"
       style="display:inline;fill:url(#linearGradient4071);fill-opacity:1;fill-rule:nonzero;stroke:none;stroke-width:0.99947876" />
    <rect
       style="opacity:1;fill:url(#radialGradient1003);fill-opacity:1;stroke:none;stroke-width:0.71123183;stroke-miterlimit:4;stroke-dasharray:none;stroke-opacity:1"
       id="rect862"
       width="84.557999"
       height="77.021454"
       x="5.9408269"
       y="962.88147"
       rx="3.4963541"
       ry="3.5" />
    <circle
       style="opacity:1;vector-effect:none;fill:#f0fcfe;fill-opacity:0.70566041;stroke:none;stroke-width:2;stroke-linecap:round;stroke-linejoin:bevel;stroke-miterlimit:4;stroke-dasharray:none;stroke-dashoffset:0;stroke-opacity:0.33962265;paint-order:stroke markers fill"
       id="path991"
       cx="47.391853"
       cy="1001.3055"
       r="35.564713" />
    <path
       style="color:#000000;font-style:normal;font-variant:normal;font-weight:normal;font-stretch:normal;font-size:medium;line-height:normal;font-family:Sans;-inkscape-font-specification:Sans;text-indent:0;text-align:start;text-decoration:none;text-decoration-line:none;letter-spacing:normal;word-spacing:normal;text-transform:none;writing-mode:lr-tb;direction:ltr;baseline-shift:baseline;text-anchor:start;display:inline;overflow:visible;visibility:visible;fill:#202223;fill-opacity:0.93689324;stroke:none;stroke-width:2.37426257;marker:none;enable-background:accumulate"
       d="m 10.023907,961.317 c -3.1003891,0 -5.6384446,2.52629 -5.6384446,5.6166 v 68.9172 c 0,3.0903 2.5380555,5.6166 5.6384446,5.6166 h 76.391824 c 3.100391,0 5.638448,-2.5263 5.638448,-5.6166 v -68.9172 c 0,-3.09031 -2.538057,-5.6166 -5.638448,-5.6166 z m 0,2.30736 h 76.391824 c 1.878266,0 3.334565,1.47239 3.334565,3.30924 v 68.9172 c 0,1.8368 -1.456299,3.3092 -3.334565,3.3092 H 10.023907 c -1.8782657,0 -3.334564,-1.4724 -3.334564,-3.3092 v -68.9172 c 0,-1.83685 1.4562983,-3.30924 3.334564,-3.30924 z"
       id="path4989"
       inkscape:connector-curvature="0" />
    <path
       id="path4118"
       d="m 1.742186,1038.0297 v 5.9687 c 0,3.661 2.9606059,6.6216 6.6215814,6.6216 H 87.636225 c 3.660978,0 6.621588,-2.9606 6.621588,-6.6216 v -5.9687 c 0,3.6609 -2.96061,6.6215 -6.621588,6.6215 H 8.3637674 c -3.6609755,0 -6.6215813,-2.9606 -6.6215814,-6.6215 z"
       style="display:inline;opacity:0.65818182;fill:url(#linearGradient4129);fill-opacity:1;fill-rule:nonzero;stroke:none;stroke-width:0.99947876"
       inkscape:connector-curvature="0" />
    <rect
       ry="4.25"
       rx="4.25"
       y="1036.4442"
       x="5.5970039"
       height="4.2278652"
       width="83.811203"
       id="rect4131"
       style="opacity:0.55;fill:url(#radialGradient7462);fill-opacity:1;stroke:none;stroke-width:0.99947876" />
    <rect
       transform="rotate(90)"
       style="opacity:0.669;fill:url(#radialGradient1062);fill-opacity:1;stroke:none;stroke-width:0.99947876"
       id="rect4141"
       width="76.350258"
       height="4.2278652"
       x="962.14319"
       y="-89.865799"
       rx="4.245573"
       ry="4.245573" />
    <rect
       clip-path="url(#clipPath4156-4-1)"
       ry="3.9777055"
       rx="3.973561"
       y="-30"
       x="2"
       height="69.024437"
       width="75.965775"
       id="rect4146"
       style="opacity:0.65;fill:url(#linearGradient4767);fill-opacity:1;stroke:none;stroke-width:1.00471163"
       transform="matrix(1.0636761,0,0,1.0422264,4.5228542,994.89075)" />
    <path
       style="opacity:1;vector-effect:none;fill:#dcfbff;fill-opacity:0.93207553;stroke:none;stroke-width:2.07256699;stroke-linecap:round;stroke-linejoin:bevel;stroke-miterlimit:4;stroke-dasharray:none;stroke-dashoffset:0;stroke-opacity:0.33962265;paint-order:stroke markers fill"
       d="m 47.500261,964.63215 c -20.469637,1.4e-4 -37.063517,16.40758 -37.063668,36.64725 1.53e-4,20.2396 16.594033,36.647 37.063668,36.6472 20.469635,-2e-4 37.063516,-16.4076 37.063669,-36.6472 -1.51e-4,-20.23967 -16.594032,-36.64711 -37.063669,-36.64725 z m 0.04275,21.77016 c 8.439663,0 15.280187,6.61187 15.280187,14.76839 0,8.1565 -6.840524,14.7684 -15.280187,14.7684 -8.439667,0 -15.282226,-6.6119 -15.282226,-14.7684 0,-8.15652 6.842559,-14.76839 15.282226,-14.76839 z"
       id="circle1009"
       inkscape:connector-curvature="0"
       sodipodi:nodetypes="cccccsssss" />
    <g
       transform="matrix(0.91645239,0,0,0.89576909,3.442908,958.20346)"
       id="g4673">
      <g
         id="layer24"
         style="display:inline" />
      <g
         id="layer14"
         style="display:inline">
        <path
           inkscape:connector-curvature="0"
           d="m 32,47.902464 c 0,-8.836556 7.163444,-16 16,-16 V 7.9024637 c -22.09139,0 -40,17.9086103 -40,40.0000003 z"
           id="path4117"
           style="display:inline;fill:url(#linearGradient1064);fill-opacity:1;fill-rule:evenodd;stroke:none" />
        <path
           style="display:inline;fill:url(#linearGradient4724-4);fill-opacity:1;fill-rule:evenodd;stroke:none"
           id="path4722"
           d="m 47.851761,31.902464 c 8.836556,0 16,7.163444 16,16 h 24 c 0,-22.09139 -17.90861,-40.0000003 -40,-40.0000003 z"
           inkscape:connector-curvature="0" />
        <path
           style="display:inline;fill:url(#linearGradient4730-8);fill-opacity:1;fill-rule:evenodd;stroke:none"
           id="path4726"
           d="m 32,47.729951 c 0,8.836556 7.163444,16 16,16 v 24 c -22.09139,0 -40,-17.90861 -40,-40 z"
           inkscape:connector-curvature="0" />
        <path
           inkscape:connector-curvature="0"
           d="m 47.851761,31.902464 c 8.836556,0 16,7.163444 16,16 h 24 c 0,-22.09139 -17.90861,-40.0000003 -40,-40.0000003 z"
           id="path4738"
           style="display:inline;opacity:0.67434208;fill:url(#radialGradient1066);fill-opacity:1;fill-rule:evenodd;stroke:none;filter:url(#filter4766-6)" />
      </g>
      <g
         id="layer9"
         style="display:inline">
        <path
           inkscape:connector-curvature="0"
           d="m 48,32 c -8.836556,0 -16,7.163444 -16,16 0,8.836556 7.163444,16 16,16 8.836556,0 16,-7.163444 16,-16 0,-8.836556 -7.163444,-16 -16,-16 z m 0,4 c 6.627417,0 12,5.372583 12,12 0,6.627417 -5.372583,12 -12,12 -6.627417,0 -12,-5.372583 -12,-12 0,-6.627417 5.372583,-12 12,-12 z"
           id="path4212"
           style="display:inline;fill:url(#linearGradient4242-4-2);fill-opacity:1;fill-rule:evenodd;stroke:url(#linearGradient4242-4-2);stroke-width:0.5;stroke-miterlimit:4;stroke-dasharray:none" />
      </g>
      <g
         id="layer6"
         style="display:inline">
        <path
           inkscape:connector-curvature="0"
           d="m 53,48 a 5,5 0 1 1 -10,0 5,5 0 1 1 10,0 z"
           id="path3903"
           style="fill:#ee454c;fill-opacity:1;fill-rule:evenodd;stroke:none" />
      </g>
      <g
         id="layer13"
         style="display:inline">
        <path
           inkscape:connector-curvature="0"
           d="m 53,48 a 5,5 0 1 1 -10,0 5,5 0 1 1 10,0 z"
           id="path4080"
           style="display:inline;fill:url(#linearGradient4089-4-9);fill-opacity:1;fill-rule:evenodd;stroke:none" />
      </g>
      <g
         id="layer21"
         style="display:inline">
        <path
           inkscape:connector-curvature="0"
           d="m 36.175769,64.80265 c 0.988624,-5.727795 4.011877,-11.001932 8.081221,-15.152288 0.914484,-0.93269 1.886758,-1.817224 2.976575,-2.537286 1.089818,-0.720062 2.30353,-1.273784 3.589416,-1.503324 1.575765,-0.281286 3.193858,-0.06959 4.776561,0.169597 1.260652,0.190516 2.575651,0.39443 3.788072,0 0.745607,-0.242564 1.402837,-0.698189 2.01469,-1.188498 0.611853,-0.49031 1.192567,-1.022868 1.847348,-1.454179 1.352359,-0.890812 3.005285,-1.316141 4.619653,-1.188723 -1.25777,0.601327 -2.214816,1.797636 -2.525381,3.156727 -0.08416,0.368289 -0.123108,0.750612 -0.07161,1.124867 0.0515,0.374255 0.19762,0.74097 0.450415,1.021707 0.200919,0.223127 0.463757,0.386238 0.746061,0.488503 0.282304,0.102265 0.583858,0.145278 0.884094,0.148778 0.600472,0.007 1.190244,-0.140777 1.77911,-0.258474 0.944944,-0.188866 1.925185,-0.308803 2.77792,-0.757615 0.688216,-0.362222 1.252678,-0.918777 1.777893,-1.492358 0.525215,-0.573582 1.026062,-1.176057 1.631371,-1.664368 0.863294,-0.696431 1.928069,-1.140087 3.030458,-1.262691 -0.78871,0.635038 -1.266821,1.639071 -1.262691,2.651651 0.0017,0.409388 0.08006,0.823157 0.268115,1.186798 0.188059,0.363642 0.491111,0.67437 0.868307,0.833507 0.36778,0.155164 0.791805,0.159205 1.171966,0.03749 0.380162,-0.121718 0.716506,-0.364332 0.974608,-0.668834 0.351695,-0.41492 0.557612,-0.933656 0.708397,-1.456256 0.150785,-0.522601 0.252624,-1.05934 0.428025,-1.574201 0.414657,-1.217157 1.264195,-2.299726 2.399112,-2.904189 0.69972,-0.372674 1.497073,-0.56005 2.289543,-0.538037 0.79247,0.02201 1.578192,0.253363 2.256144,0.664306 -0.615015,0.11011 -1.200765,0.379772 -1.684328,0.775415 -0.483564,0.395643 -0.863877,0.916396 -1.093592,1.497428 -0.439026,1.110455 -0.315158,2.356477 -0.126269,3.535534 0.122063,0.761924 0.26877,1.523096 0.295155,2.294284 0.02639,0.771189 -0.07377,1.562516 -0.421424,2.251403 -0.270791,0.536581 -0.684944,0.994739 -1.168723,1.351397 -0.483778,0.356658 -1.036039,0.614245 -1.609197,0.795177 -1.501535,0.473997 -3.111157,0.423528 -4.671955,0.631345 -0.593197,0.07898 -1.188251,0.197962 -1.730022,0.452139 -0.54177,0.254177 -1.030637,0.655196 -1.300436,1.189359 -0.222772,0.441055 -0.285163,0.961307 -0.171284,1.442127 0.113879,0.480821 0.403461,0.918283 0.80263,1.209524 0.370749,0.270505 0.824678,0.412155 1.281352,0.457723 0.456675,0.04557 0.918054,-7.92e-4 1.370298,-0.07892 1.349959,-0.233203 2.649686,-0.753094 3.788072,-1.515229 0.259099,0.691036 0.212061,1.490681 -0.126269,2.146574 -0.260029,0.504097 -0.67752,0.914127 -1.14498,1.235391 -0.46746,0.321263 -0.986066,0.559745 -1.50667,0.784914 -1.145765,0.495561 -2.340236,0.949499 -3.282996,1.767767 -0.524879,0.455569 -0.9584,1.01664 -1.262691,1.641498 -0.156218,0.320793 -0.279809,0.663796 -0.300703,1.019992 -0.02089,0.356196 0.06957,0.728489 0.300703,1.000313 0.124416,0.146317 0.285771,0.25954 0.462104,0.335665 0.176332,0.07612 0.36739,0.115746 0.559194,0.125724 0.383606,0.01995 0.764457,-0.07709 1.125276,-0.208851 0.91973,-0.335869 1.752872,-0.905913 2.399113,-1.641498 0.576199,1.163867 0.669142,2.558018 0.252538,3.788072 -0.270652,0.799119 -0.739938,1.514809 -1.23307,2.1994 -0.493131,0.684591 -1.017294,1.351581 -1.418581,2.093749 -0.754307,1.395069 -1.061082,3.03018 -2.020305,4.293148 -0.564751,0.743583 -1.329019,1.316699 -2.146574,1.767767 -1.876957,1.035571 -4.044336,1.455402 -6.187184,1.515229 -4.190957,0.117009 -8.311972,-1.081354 -12.500638,-1.262691 -3.38363,-0.146485 -6.863684,0.362026 -10.101526,-0.631345 -1.997309,-0.612775 -3.816557,-1.793968 -5.190305,-3.367993 -1.373749,-1.574024 -2.297885,-3.535848 -2.638377,-5.597111 -0.282659,-1.711156 -0.168719,-3.467958 0.126269,-5.177032"
           id="path4515"
           style="fill:#000000;fill-opacity:1;stroke:none;filter:url(#filter4550-9-6)" />
      </g>
      <g
         transform="matrix(1.0918572,0,0,1.1072912,-3.2964665,-8.6741555)"
         id="layer3"
         style="display:inline">
        <g
           transform="translate(6.25,25.75)"
           id="g4434">
          <path
             inkscape:connector-curvature="0"
             d="m 29.925769,39.05265 c 0.988624,-5.727795 4.011877,-11.001932 8.081221,-15.152288 0.914484,-0.93269 1.886758,-1.817224 2.976575,-2.537286 1.089818,-0.720062 2.30353,-1.273784 3.589416,-1.503324 1.575765,-0.281286 3.193858,-0.06959 4.776561,0.169597 1.260652,0.190516 2.575651,0.39443 3.788072,0 0.745607,-0.242564 1.402837,-0.698189 2.01469,-1.188498 0.611853,-0.49031 1.192567,-1.022868 1.847348,-1.454179 1.352359,-0.890812 3.005285,-1.316141 4.619653,-1.188723 -1.25777,0.601327 -2.214816,1.797636 -2.525381,3.156727 -0.08416,0.368289 -0.123108,0.750612 -0.07161,1.124867 0.0515,0.374255 0.19762,0.74097 0.450415,1.021707 0.200919,0.223127 0.463757,0.386238 0.746061,0.488503 0.282304,0.102265 0.583858,0.145278 0.884094,0.148778 0.600472,0.007 1.190244,-0.140777 1.77911,-0.258474 0.944944,-0.188866 1.925185,-0.308803 2.77792,-0.757615 0.688216,-0.362222 1.252678,-0.918777 1.777893,-1.492358 0.525215,-0.573582 1.026062,-1.176057 1.631371,-1.664368 0.863294,-0.696431 1.928069,-1.140087 3.030458,-1.262691 -0.78871,0.635038 -1.266821,1.639071 -1.262691,2.651651 0.0017,0.409388 0.08006,0.823157 0.268115,1.186798 0.188059,0.363642 0.491111,0.67437 0.868307,0.833507 0.36778,0.155164 0.791805,0.159205 1.171966,0.03749 0.380162,-0.121718 0.716506,-0.364332 0.974608,-0.668834 0.351695,-0.41492 0.557612,-0.933656 0.708397,-1.456256 0.150785,-0.522601 0.252624,-1.05934 0.428025,-1.574201 0.414657,-1.217157 1.264195,-2.299726 2.399112,-2.904189 0.69972,-0.372674 1.497073,-0.56005 2.289543,-0.538037 0.79247,0.02201 1.578192,0.253363 2.256144,0.664306 -0.615015,0.11011 -1.200765,0.379772 -1.684328,0.775415 -0.483564,0.395643 -0.863877,0.916396 -1.093592,1.497428 -0.439026,1.110455 -0.315158,2.356477 -0.126269,3.535534 0.122063,0.761924 0.26877,1.523096 0.295155,2.294284 0.02639,0.771189 -0.07377,1.562516 -0.421424,2.251403 -0.270791,0.536581 -0.684944,0.994739 -1.168723,1.351397 -0.483778,0.356658 -1.036039,0.614245 -1.609197,0.795177 -1.501535,0.473997 -3.111157,0.423528 -4.671955,0.631345 -0.593197,0.07898 -1.188251,0.197962 -1.730022,0.452139 -0.54177,0.254177 -1.030637,0.655196 -1.300436,1.189359 -0.222772,0.441055 -0.285163,0.961307 -0.171284,1.442127 0.113879,0.480821 0.403461,0.918283 0.80263,1.209524 0.370749,0.270505 0.824678,0.412155 1.281352,0.457723 0.456675,0.04557 0.918054,-7.92e-4 1.370298,-0.07892 1.349959,-0.233203 2.649686,-0.753094 3.788072,-1.515229 0.259099,0.691036 0.212061,1.490681 -0.126269,2.146574 -0.260029,0.504097 -0.67752,0.914127 -1.14498,1.235391 -0.46746,0.321263 -0.986066,0.559745 -1.50667,0.784914 -1.145765,0.495561 -2.340236,0.949499 -3.282996,1.767767 -0.524879,0.455569 -0.9584,1.01664 -1.262691,1.641498 -0.156218,0.320793 -0.279809,0.663796 -0.300703,1.019992 -0.02089,0.356196 0.06957,0.728489 0.300703,1.000313 0.124416,0.146317 0.285771,0.25954 0.462104,0.335665 0.176332,0.07612 0.36739,0.115746 0.559194,0.125724 0.383606,0.01995 0.764457,-0.07709 1.125276,-0.208851 0.91973,-0.335869 1.752872,-0.905913 2.399113,-1.641498 0.576199,1.163867 0.669142,2.558018 0.252538,3.788072 -0.270652,0.799119 -0.739938,1.514809 -1.23307,2.1994 -0.493131,0.684591 -1.017294,1.351581 -1.418581,2.093749 -0.754307,1.395069 -1.061082,3.03018 -2.020305,4.293148 -0.564751,0.743583 -1.329019,1.316699 -2.146574,1.767767 -1.876957,1.035571 -4.044336,1.455402 -6.187184,1.515229 -4.190957,0.117009 -8.311972,-1.081354 -12.500638,-1.262691 -3.38363,-0.146485 -6.863684,0.362026 -10.101526,-0.631345 -1.997309,-0.612775 -3.816557,-1.793968 -5.190305,-3.367993 -1.373749,-1.574024 -2.297885,-3.535848 -2.638377,-5.597111 -0.282659,-1.711156 -0.168719,-3.467958 0.126269,-5.177032"
             id="path3684"
             style="fill:url(#linearGradient4438-1-2);fill-opacity:1;stroke:url(#linearGradient4440-6-1);stroke-width:1px;stroke-linecap:butt;stroke-linejoin:miter;stroke-opacity:1" />
          <path
             inkscape:connector-curvature="0"
             d="m 29.925769,39.05265 c 0.845666,-5.759876 3.987891,-11.012727 8.081221,-15.152288 0.918207,-0.928578 1.890422,-1.812261 2.979376,-2.533051 1.088955,-0.720791 2.301249,-1.27692 3.586615,-1.507559 1.575565,-0.282711 3.193857,-0.06994 4.776561,0.169597 1.260623,0.190792 2.575665,0.394514 3.788072,0 0.745589,-0.242613 1.402806,-0.698241 2.014663,-1.188543 0.611857,-0.490301 1.192586,-1.022839 1.847375,-1.454134 1.352375,-0.89078 3.005286,-1.316104 4.619653,-1.188723 -1.25777,0.601327 -2.214816,1.797636 -2.525381,3.156727 -0.08416,0.368289 -0.123108,0.750612 -0.07161,1.124867 0.0515,0.374255 0.19762,0.74097 0.450415,1.021707 0.200919,0.223127 0.463757,0.386238 0.746061,0.488503 0.282304,0.102265 0.583858,0.145278 0.884094,0.148778 0.600472,0.007 1.190244,-0.140777 1.77911,-0.258474 0.944944,-0.188866 1.925185,-0.308803 2.77792,-0.757615 0.688216,-0.362222 1.252678,-0.918777 1.777893,-1.492358 0.525215,-0.573582 1.026062,-1.176057 1.631371,-1.664368 0.863294,-0.696431 1.928069,-1.140087 3.030458,-1.262691 -0.78871,0.635038 -1.266821,1.639071 -1.262691,2.651651 0.0017,0.409388 0.08006,0.823157 0.268115,1.186798 0.188059,0.363642 0.491111,0.67437 0.868307,0.833507 0.36778,0.155164 0.791805,0.159205 1.171966,0.03749 0.380162,-0.121718 0.716506,-0.364332 0.974608,-0.668834 0.351695,-0.41492 0.557612,-0.933656 0.708397,-1.456256 0.150785,-0.522601 0.252624,-1.05934 0.428025,-1.574201 0.414657,-1.217157 1.264195,-2.299726 2.399112,-2.904189 0.69972,-0.372674 1.497073,-0.56005 2.289543,-0.538037 0.79247,0.02201 1.578192,0.253363 2.256144,0.664306 -0.615014,0.110113 -1.200762,0.379776 -1.684326,0.775419 -0.483563,0.395643 -0.863876,0.916394 -1.093594,1.497424 -0.439032,1.110454 -0.315174,2.356479 -0.126269,3.535534 0.122074,0.761926 0.268802,1.523097 0.295196,2.294289 0.02639,0.771191 -0.07377,1.562528 -0.421465,2.251398 -0.270817,0.536557 -0.685004,0.994671 -1.168786,1.351308 -0.483782,0.356638 -1.036017,0.614233 -1.609134,0.795266 -1.501462,0.474273 -3.110987,0.424699 -4.671955,0.631345 -0.59343,0.07856 -1.188838,0.196854 -1.730872,0.450883 -0.542033,0.25403 -1.031075,0.655608 -1.299586,1.190615 -0.221365,0.441069 -0.281768,0.960776 -0.167462,1.440858 0.114305,0.480081 0.40243,0.916806 0.798808,1.210793 -2.288849,-0.177303 -4.586529,-0.240542 -6.881665,-0.189404 -1.795923,0.04002 -3.593876,0.150437 -5.366435,0.441942 -3.973761,0.653501 -7.840618,2.258716 -10.85914,4.924493 -2.178089,1.923557 -3.858481,4.333634 -5.555839,6.692261 -0.832359,1.156635 -1.690505,2.323856 -2.824086,3.187348 -0.566791,0.431746 -1.200094,0.782882 -1.882262,0.988558 -0.682169,0.205676 -1.414656,0.262547 -2.112182,0.117242 -0.985417,-0.205277 -1.862845,-0.809158 -2.499056,-1.589172 -0.63621,-0.780015 -1.043754,-1.727742 -1.289016,-2.703976 -0.423336,-1.685038 -0.378649,-3.458058 -0.126269,-5.177032"
             id="path4513"
             style="display:inline;opacity:0.68867929;fill:url(#linearGradient4442-6-7);fill-opacity:1;stroke:none" />
        </g>
      </g>
      <g
         transform="translate(-11.90308,2.7712774)"
         id="layer2"
         style="display:inline;fill:#ff0707;fill-opacity:1;stroke:#000000;stroke-opacity:1">
        <path
           inkscape:connector-curvature="0"
           d="m 31.390625,66.125 c -1.22071,1.6e-5 -2.24415,0.238297 -3.09375,0.6875 -0.84962,0.439468 -1.70118,1.152358 -2.53125,2.1875 v -2.53125 h -5.53125 v 15.5625 h 5.9375 V 74.5625 c -10e-6,-1.416007 0.23827,-2.390615 0.6875,-2.9375 0.44921,-0.546864 1.02734,-0.812488 1.75,-0.8125 0.65429,1.2e-5 1.16991,0.183605 1.53125,0.59375 0.36132,0.400401 0.53124,1.085947 0.53125,2.0625 v 8.5625 h 6 V 77.75 c 0.14465,0.344848 0.30713,0.682618 0.5,1 0.78125,1.259768 1.75586,2.195313 2.9375,2.78125 1.18163,0.576172 2.81445,0.843749 4.875,0.84375 2.37303,-10e-7 4.1992,-0.326172 5.46875,-1 1.11878,-0.602431 2.076,-1.985157 2.90625,-3.375 v 4.03125 h 6 V 76.8125 c -1e-5,-2.490226 0.29101,-4.185537 0.90625,-5.09375 0.42968,-0.64452 1.06249,-0.968739 1.84375,-0.96875 0.0985,3e-6 0.50822,0.01453 0.78125,0.03125 -0.48286,1.049798 -0.75,2.228249 -0.75,3.53125 0,2.548833 0.94922,4.615237 2.84375,6.1875 1.54296,1.269531 3.56249,1.874999 6.0625,1.875 2.80272,-10e-7 5.0117,-0.757812 6.59375,-2.28125 1.59178,-1.533199 2.37498,-3.482416 2.375,-5.875 -2e-5,-2.128896 -0.62697,-3.91991 -1.90625,-5.375 -1.59181,-1.806626 -3.94728,-2.718734 -7.0625,-2.71875 -2.17124,1.3e-5 -3.97946,0.520153 -5.4375,1.5 v -0.6875 c -1.04494,-0.546859 -1.99611,-0.812484 -2.875,-0.8125 -0.83985,1.6e-5 -1.54884,0.205094 -2.125,0.625 -0.56642,0.410171 -1.11915,1.177748 -1.65625,2.28125 v -2.5625 h -5.59375 V 70.875 c -0.10588,-0.282089 -0.21109,-0.560621 -0.34375,-0.8125 -0.67385,-1.279284 -1.64845,-2.263658 -2.9375,-2.9375 -1.28908,-0.673812 -3.0547,-0.999984 -5.28125,-1 -2.74415,1.6e-5 -4.90625,0.746109 -6.46875,2.25 -0.76622,0.742126 -1.33063,1.625723 -1.71875,2.59375 -0.15354,-1.451665 -0.59972,-2.599943 -1.34375,-3.375 -0.92775,-0.986313 -2.22462,-1.468734 -3.875,-1.46875 z m 13.65625,3.53125 c 0.8203,1.3e-5 1.47069,0.251965 1.96875,0.75 0.5078,0.498058 0.8203,1.316416 0.9375,2.46875 h -5.875 c 0.0977,-0.927725 0.32616,-1.624989 0.6875,-2.09375 0.5664,-0.751941 1.33397,-1.124987 2.28125,-1.125 z m 26.09375,0.5625 c 0.8203,1.2e-5 1.50585,0.335949 2.0625,1 0.55663,0.654307 0.84374,1.652353 0.84375,3 -1e-5,1.445319 -0.28712,2.501958 -0.84375,3.15625 -0.54689,0.654301 -1.26564,1.000004 -2.125,1 -0.84962,4e-6 -1.5586,-0.335933 -2.125,-1 -0.55665,-0.664057 -0.81251,-1.707025 -0.8125,-3.09375 -1e-5,-1.367179 0.27734,-2.367178 0.84375,-3.03125 0.5664,-0.673817 1.2871,-1.031238 2.15625,-1.03125 z M 42.078125,75.75 h 11.28125 v 1.6875 l -5.53125,0.03125 c -0.37111,0.468754 -0.74025,0.783207 -1.0625,0.96875 -0.52736,0.292972 -1.07032,0.437503 -1.65625,0.4375 -0.92774,3e-6 -1.67384,-0.326169 -2.25,-1 -0.41016,-0.468746 -0.67383,-1.167963 -0.78125,-2.125 z"
           id="path4955"
           style="font-style:normal;font-variant:normal;font-weight:normal;font-stretch:normal;font-size:30px;line-height:125%;font-family:'Arial Black';-inkscape-font-specification:'Arial Black,';text-align:start;letter-spacing:0px;word-spacing:0px;writing-mode:lr-tb;text-anchor:start;display:inline;fill:#ff0707;fill-opacity:1;stroke:#e6e6e6;stroke-opacity:1" />
      </g>
      <g
         id="layer26" />
      <g
         transform="translate(-115.78464,24.547048)"
         style="display:inline;fill:#ff4500;fill-opacity:0.93207553"
         id="g1013" />
    </g>
  </g>
</svg>
