<?xml version="1.0" encoding="UTF-8" standalone="no"?>
<!-- Created with Inkscape (http://www.inkscape.org/) -->

<svg
   xmlns:dc="http://purl.org/dc/elements/1.1/"
   xmlns:cc="http://creativecommons.org/ns#"
   xmlns:rdf="http://www.w3.org/1999/02/22-rdf-syntax-ns#"
   xmlns:svg="http://www.w3.org/2000/svg"
   xmlns="http://www.w3.org/2000/svg"
   xmlns:xlink="http://www.w3.org/1999/xlink"
   xmlns:sodipodi="http://sodipodi.sourceforge.net/DTD/sodipodi-0.dtd"
   xmlns:inkscape="http://www.inkscape.org/namespaces/inkscape"
   width="96"
   height="96"
   viewBox="0 0 96.000001 96.000004"
   version="1.1"
   id="svg1072"
   inkscape:version="0.92.4 5da689c313, 2019-01-14"
   sodipodi:docname="obconf.svg">
  <defs
     id="defs1066">
    <linearGradient
       y2="47.000011"
       x2="90"
       y1="47.000011"
       x1="6"
       gradientTransform="matrix(1.1025248,0,0,1.1025246,-4.9724517,-3.2034373)"
       gradientUnits="userSpaceOnUse"
       id="linearGradient4071"
       xlink:href="#linearGradient6139-0"
       inkscape:collect="always" />
    <linearGradient
       id="linearGradient6139-0">
      <stop
         style="stop-color:#ced2d8;stop-opacity:1"
         offset="0"
         id="stop6141-2" />
      <stop
         id="stop6151-0"
         offset="0.25"
         style="stop-color:#ffffff;stop-opacity:1;" />
      <stop
         id="stop6147-1"
         offset="0.5"
         style="stop-color:#bbc0c7;stop-opacity:1" />
      <stop
         style="stop-color:#f9fafb;stop-opacity:1"
         offset="0.75"
         id="stop6149-4" />
      <stop
         style="stop-color:#d7dade;stop-opacity:1"
         offset="1"
         id="stop6143-4" />
    </linearGradient>
    <linearGradient
       gradientUnits="userSpaceOnUse"
       y2="88.171875"
       x2="94.5"
       y1="88.171875"
       x1="1.5"
       id="linearGradient4129"
       xlink:href="#linearGradient3832-0-6-1-1"
       inkscape:collect="always"
       gradientTransform="matrix(0.99582899,0,0,0.99582899,0.1489535,0.81544275)" />
    <linearGradient
       id="linearGradient3832-0-6-1-1">
      <stop
         id="stop3834-6-3-7-1"
         offset="0"
         style="stop-color:#000000;stop-opacity:1;" />
      <stop
         style="stop-color:#000000;stop-opacity:0.58823532;"
         offset="0.1"
         id="stop3872-2-4" />
      <stop
         id="stop3844-6-2-7-6"
         offset="0.89999998"
         style="stop-color:#000000;stop-opacity:0.58823532;" />
      <stop
         id="stop3836-5-0-2-9"
         offset="1"
         style="stop-color:#000000;stop-opacity:1;" />
    </linearGradient>
    <radialGradient
       r="43.199203"
       fy="44.892841"
       fx="13.948145"
       cy="44.892841"
       cx="13.948145"
       gradientTransform="matrix(0.97106649,0,0,0.04898556,33.906257,80.348979)"
       gradientUnits="userSpaceOnUse"
       id="radialGradient7462"
       xlink:href="#linearGradient3737"
       inkscape:collect="always" />
    <linearGradient
       id="linearGradient3737">
      <stop
         id="stop3739"
         style="stop-color:#ffffff;stop-opacity:1"
         offset="0" />
      <stop
         id="stop3741"
         style="stop-color:#ffffff;stop-opacity:0"
         offset="1" />
    </linearGradient>
    <radialGradient
       r="43.199203"
       fy="44.892841"
       fx="13.948145"
       cy="44.892841"
       cx="13.948145"
       gradientTransform="matrix(0.88462142,0,0,0.04898556,32.228362,-89.941167)"
       gradientUnits="userSpaceOnUse"
       id="radialGradient7464"
       xlink:href="#linearGradient3737"
       inkscape:collect="always" />
    <filter
       inkscape:collect="always"
       style="color-interpolation-filters:sRGB"
       id="filter967"
       x="-0.16508111"
       width="1.3301622"
       y="-0.020202866"
       height="1.0404058">
      <feGaussianBlur
         inkscape:collect="always"
         stdDeviation="0.67211985"
         id="feGaussianBlur969" />
    </filter>
    <linearGradient
       inkscape:collect="always"
       xlink:href="#linearGradient930"
       id="linearGradient918"
       x1="75.69323"
       y1="41.680023"
       x2="75.649521"
       y2="30.348454"
       gradientUnits="userSpaceOnUse"
       gradientTransform="matrix(0.66233339,0,0,0.7954397,-30.834062,37.765098)" />
    <linearGradient
       id="linearGradient930">
      <stop
         id="stop920"
         offset="0"
         style="stop-color:#d6d9de;stop-opacity:1" />
      <stop
         style="stop-color:#ffffff;stop-opacity:1;"
         offset="0.14909635"
         id="stop922" />
      <stop
         style="stop-color:#bbc0c7;stop-opacity:1"
         offset="0.4747903"
         id="stop924" />
      <stop
         id="stop926"
         offset="0.80041939"
         style="stop-color:#f9fafb;stop-opacity:1" />
      <stop
         id="stop928"
         offset="1"
         style="stop-color:#d7dade;stop-opacity:1" />
    </linearGradient>
    <linearGradient
       inkscape:collect="always"
       xlink:href="#linearGradient950"
       id="linearGradient938"
       x1="73.702179"
       y1="22.268778"
       x2="73.545967"
       y2="38.361507"
       gradientUnits="userSpaceOnUse"
       gradientTransform="matrix(0.66233339,0,0,0.7954397,-30.834062,37.765098)" />
    <linearGradient
       id="linearGradient950">
      <stop
         id="stop940"
         offset="0"
         style="stop-color:#ced2d8;stop-opacity:1" />
      <stop
         style="stop-color:#c3cdd4;stop-opacity:1"
         offset="0.25"
         id="stop942" />
      <stop
         style="stop-color:#bbc0c7;stop-opacity:1"
         offset="0.5"
         id="stop944" />
      <stop
         id="stop946"
         offset="0.75"
         style="stop-color:#f9fafb;stop-opacity:1" />
      <stop
         id="stop948"
         offset="1"
         style="stop-color:#d7dade;stop-opacity:1" />
    </linearGradient>
    <linearGradient
       inkscape:collect="always"
       xlink:href="#linearGradient930"
       id="linearGradient967"
       x1="67.789696"
       y1="20.388144"
       x2="81.362915"
       y2="20.388144"
       gradientUnits="userSpaceOnUse"
       gradientTransform="matrix(0.66233339,0,0,0.7954397,-30.834062,37.765098)" />
    <linearGradient
       inkscape:collect="always"
       id="linearGradient958">
      <stop
         style="stop-color:#fefefe;stop-opacity:1;"
         offset="0"
         id="stop954" />
      <stop
         style="stop-color:#fefefe;stop-opacity:0;"
         offset="1"
         id="stop956" />
    </linearGradient>
    <radialGradient
       inkscape:collect="always"
       xlink:href="#linearGradient958"
       id="radialGradient1123-2"
       gradientUnits="userSpaceOnUse"
       gradientTransform="matrix(-2.1136075,0.12848661,-0.11764706,-1.8691992,103.86778,99.318666)"
       cx="31.688437"
       cy="43.729713"
       fx="31.688437"
       fy="43.729713"
       r="4.5304565" />
    <filter
       inkscape:collect="always"
       style="color-interpolation-filters:sRGB"
       id="filter1006-7"
       x="-0.10844267"
       width="1.2168853"
       y="-0.16784623"
       height="1.3356925">
      <feGaussianBlur
         inkscape:collect="always"
         stdDeviation="0.8669909"
         id="feGaussianBlur1008-3" />
    </filter>
    <radialGradient
       inkscape:collect="always"
       xlink:href="#linearGradient958"
       id="radialGradient1125-6"
       gradientUnits="userSpaceOnUse"
       gradientTransform="matrix(-2.1160519,0.0807646,-0.11764706,-2.9771066,103.94524,149.27937)"
       cx="31.688437"
       cy="43.729713"
       fx="31.688437"
       fy="43.729713"
       r="4.5304565" />
    <radialGradient
       inkscape:collect="always"
       xlink:href="#linearGradient958"
       id="radialGradient1123-9"
       gradientUnits="userSpaceOnUse"
       gradientTransform="matrix(-2.1136075,0.12848661,-0.11764706,-1.8691992,103.86778,99.318666)"
       cx="31.688437"
       cy="43.729713"
       fx="31.688437"
       fy="43.729713"
       r="4.5304565" />
    <filter
       inkscape:collect="always"
       style="color-interpolation-filters:sRGB"
       id="filter1006-0"
       x="-0.10844267"
       width="1.2168853"
       y="-0.16784623"
       height="1.3356925">
      <feGaussianBlur
         inkscape:collect="always"
         stdDeviation="0.8669909"
         id="feGaussianBlur1008-6" />
    </filter>
    <radialGradient
       inkscape:collect="always"
       xlink:href="#linearGradient950"
       id="radialGradient1125-2"
       gradientUnits="userSpaceOnUse"
       gradientTransform="matrix(-2.1160519,0.0807646,-0.11764706,-2.9771066,103.94524,149.27937)"
       cx="31.688437"
       cy="43.729713"
       fx="31.688437"
       fy="43.729713"
       r="4.5304565" />
    <linearGradient
       inkscape:collect="always"
       xlink:href="#linearGradient3737"
       id="linearGradient1910"
       gradientUnits="userSpaceOnUse"
       x1="2.7713892"
       y1="-28.64156"
       x2="50.527882"
       y2="14.514202" />
    <clipPath
       clipPathUnits="userSpaceOnUse"
       id="clipPath4156-4-1-7">
      <path
         style="opacity:0.6;fill:#ffffff;fill-opacity:1;stroke:none"
         d="m 27.046336,-55.695463 -14.21366,13.321486 h 0.06127 l 15.653407,21.770763 10.231384,-10.546177 C 38.561832,-32.30156 27.468089,-54.819245 27.046336,-55.695463 Z M 9.6468554,-39.382809 -5.2407289,-25.32124 15.987863,-7.8059573 26.372412,-18.382966 Z m 31.4906096,12.951445 -9.741259,9.713584 8.944804,12.4580526 7.780753,-7.5550056 z m -49.8397109,4.378822 -13.7541661,12.9822847 26.2830181,13.84571 0.06127,-0.0617 -0.122531,-0.0617 L 13.598503,-5.4007374 -8.7022409,-22.052595 Z m 38.0154159,7.400825 -9.802525,9.7752596 11.579232,9.5594001 7.62759,-7.40083 -8.669108,-11.0087257 z m 20.187073,5.6739697 -7.382526,7.2158 6.187844,8.54179 5.820249,-6.13651996 z m -32.195166,6.32154 -9.5574606,9.49772 13.6622686,7.1849703 7.933918,-7.6783603 z m 23.311629,2.37443004 -7.10683,6.93826996 8.362778,6.9074403 5.360756,-5.6739699 -0.06127,-0.0925 -0.0919,0.12335 -6.463539,-8.20258036 z m -8.730374,8.54178036 -7.505057,7.3391599 10.353916,5.45811 c 1.397496,-1.32103 5.67514,-6.12292 5.850882,-6.32154 z"
         id="path4158-0-8-5"
         inkscape:connector-curvature="0" />
    </clipPath>
    <linearGradient
       inkscape:collect="always"
       xlink:href="#linearGradient930"
       id="linearGradient2452"
       gradientUnits="userSpaceOnUse"
       x1="75.69323"
       y1="41.680023"
       x2="75.649521"
       y2="30.348454"
       gradientTransform="matrix(0.66132962,0,0,0.81652694,-11.187665,7.5499345)" />
    <linearGradient
       inkscape:collect="always"
       xlink:href="#linearGradient950"
       id="linearGradient2454"
       gradientUnits="userSpaceOnUse"
       x1="73.702179"
       y1="22.268778"
       x2="73.545967"
       y2="38.361507"
       gradientTransform="matrix(0.66132962,0,0,0.81652694,-11.187665,7.5499345)" />
    <linearGradient
       inkscape:collect="always"
       xlink:href="#linearGradient930"
       id="linearGradient2456"
       gradientUnits="userSpaceOnUse"
       x1="67.789696"
       y1="20.388144"
       x2="81.362915"
       y2="20.388144"
       gradientTransform="matrix(0.66132962,0,0,0.81652694,-11.187665,7.5499345)" />
    <radialGradient
       inkscape:collect="always"
       xlink:href="#linearGradient950"
       id="radialGradient1231"
       gradientUnits="userSpaceOnUse"
       gradientTransform="matrix(-2.1160519,0.0807646,-0.11764706,-2.9771066,103.94524,149.27937)"
       cx="31.688437"
       cy="43.729713"
       fx="31.688437"
       fy="43.729713"
       r="4.5304565" />
  </defs>
  <sodipodi:namedview
     id="base"
     pagecolor="#ffffff"
     bordercolor="#666666"
     borderopacity="1.0"
     inkscape:pageopacity="0.0"
     inkscape:pageshadow="2"
     inkscape:zoom="3.5520834"
     inkscape:cx="9.1986451"
     inkscape:cy="43.917889"
     inkscape:document-units="px"
     inkscape:current-layer="g1126"
     showgrid="false"
     inkscape:showpageshadow="false"
     units="px"
     inkscape:lockguides="true"
     inkscape:window-width="1920"
     inkscape:window-height="1019"
     inkscape:window-x="0"
     inkscape:window-y="25"
     inkscape:window-maximized="1"
     inkscape:snap-global="false">
    <sodipodi:guide
       position="0,0"
       orientation="0,96"
       id="guide1621"
       inkscape:locked="true" />
    <sodipodi:guide
       position="96.000002,0"
       orientation="-96,0"
       id="guide1623"
       inkscape:locked="true" />
    <sodipodi:guide
       position="96.000002,96.000002"
       orientation="0,-96"
       id="guide1625"
       inkscape:locked="true" />
    <sodipodi:guide
       position="0,96.000002"
       orientation="96,0"
       id="guide1627"
       inkscape:locked="true" />
  </sodipodi:namedview>
  <metadata
     id="metadata1069">
    <rdf:RDF>
      <cc:Work
         rdf:about="">
        <dc:format>image/svg+xml</dc:format>
        <dc:type
           rdf:resource="http://purl.org/dc/dcmitype/StillImage" />
        <dc:title />
        <dc:date>2017</dc:date>
        <dc:creator>
          <cc:Agent>
            <dc:title>Cristian Pozzessere &quot;ilnanny&quot;</dc:title>
          </cc:Agent>
        </dc:creator>
        <dc:subject>
          <rdf:Bag>
            <rdf:li>Global language</rdf:li>
          </rdf:Bag>
        </dc:subject>
        <dc:description>Playing with Inkscape on Gnu/Linux O. S.</dc:description>
        <dc:contributor>
          <cc:Agent>
            <dc:title>In the night, alone like a dog.</dc:title>
          </cc:Agent>
        </dc:contributor>
        <cc:license
           rdf:resource="http://creativecommons.org/licenses/by-sa/4.0/" />
      </cc:Work>
      <cc:License
         rdf:about="http://creativecommons.org/licenses/by-sa/4.0/">
        <cc:permits
           rdf:resource="http://creativecommons.org/ns#Reproduction" />
        <cc:permits
           rdf:resource="http://creativecommons.org/ns#Distribution" />
        <cc:requires
           rdf:resource="http://creativecommons.org/ns#Notice" />
        <cc:requires
           rdf:resource="http://creativecommons.org/ns#Attribution" />
        <cc:permits
           rdf:resource="http://creativecommons.org/ns#DerivativeWorks" />
        <cc:requires
           rdf:resource="http://creativecommons.org/ns#ShareAlike" />
      </cc:License>
    </rdf:RDF>
  </metadata>
  <g
     inkscape:label="Livello 1"
     inkscape:groupmode="layer"
     id="layer1"
     transform="translate(0,-1026.5197)">
    <g
       transform="matrix(0.99895832,0,0,0.99895833,-0.09880065,1026.1551)"
       style="display:inline"
       id="g1281">
      <g
         id="g1126">
        <g
           id="g1229"
           transform="translate(0.2002085,-0.2002019)">
          <path
             style="display:inline;opacity:0.15;fill:#000000;fill-opacity:1;fill-rule:nonzero;stroke:none;stroke-width:0.99582899"
             d="M 88.919994,0.81544278 H 6.9774899 c -3.7830028,0 -6.828534,3.04552872 -6.828534,6.82853882 V 89.586484 c 0,3.783013 3.0455312,6.828542 6.828534,6.828542 H 88.919994 c 3.783012,0 6.828546,-3.045529 6.828546,-6.828542 V 7.6439816 c 0,-3.7830101 -3.045534,-6.82853882 -6.828546,-6.82853882 z"
             id="path3288"
             inkscape:connector-curvature="0" />
          <path
             inkscape:connector-curvature="0"
             id="path4085"
             d="M 88.27982,1.5623145 H 7.6176646 c -3.7238947,0 -6.72183875,2.9979422 -6.72183875,6.7218425 V 88.94631 c 0,3.723901 2.99794405,6.721844 6.72183875,6.721844 H 88.27982 c 3.723905,0 6.721848,-2.997943 6.721848,-6.721844 V 8.284157 c 0,-3.7239003 -2.997943,-6.7218425 -6.721848,-6.7218425 z"
             style="display:inline;opacity:0.15;fill:#000000;fill-opacity:1;fill-rule:nonzero;stroke:none;stroke-width:0.99582899" />
          <path
             style="display:inline;fill:url(#linearGradient4071);fill-opacity:1;fill-rule:nonzero;stroke:none;stroke-width:0.99582899"
             d="M 87.63964,2.3091861 H 8.2578471 c -3.664793,0 -6.615149,2.9503558 -6.615149,6.6151477 V 88.306135 c 0,3.664793 2.950356,6.615148 6.615149,6.615148 H 87.63964 c 3.664793,0 6.615146,-2.950355 6.615146,-6.615148 V 8.9243338 c 0,-3.6647919 -2.950353,-6.6151477 -6.615146,-6.6151477 z"
             id="rect4251-1"
             inkscape:connector-curvature="0" />
          <path
             style="display:inline;opacity:1;fill:#e4e8ed;fill-opacity:1;fill-rule:nonzero;stroke:none;stroke-width:1.04112339"
             d="m 10.700692,7.1759443 c -2.8983217,0 -5.1991573,2.3065582 -5.1991573,5.2120827 v 21.597572 7.296916 40.230775 c 1.1133062,1.697865 3.0123196,2.834068 5.1991573,2.834068 h 4.159328 66.549227 4.159325 c 2.18684,0 4.085852,-1.136203 5.199158,-2.834068 V 41.282515 33.985599 12.388027 c 0,-2.9055245 -2.300835,-5.2120827 -5.199158,-5.2120827 z"
             id="path3400-6"
             inkscape:connector-curvature="0"
             sodipodi:nodetypes="sscccsccscccsss" />
          <path
             inkscape:connector-curvature="0"
             style="display:inline;opacity:0.703;fill:url(#linearGradient4129);fill-opacity:1;fill-rule:nonzero;stroke:none;stroke-width:0.99582899"
             d="m 1.6426971,82.31782 v 5.974976 c 0,3.66479 2.963693,6.628486 6.6284862,6.628486 H 87.626306 c 3.664793,0 6.62849,-2.963696 6.62849,-6.628486 V 82.31782 c 0,3.664794 -2.963697,6.62849 -6.62849,6.62849 H 8.2711833 c -3.6647932,0 -6.6284862,-2.963696 -6.6284862,-6.62849 z"
             id="path4118" />
          <rect
             style="display:inline;opacity:0.66000001;fill:url(#radialGradient7462);fill-opacity:1;stroke:none;stroke-width:0.99582899"
             id="rect4131"
             width="83.898598"
             height="4.2322731"
             x="5.5015349"
             y="80.431953"
             rx="0"
             ry="4.2322731" />
          <rect
             ry="4.2322731"
             rx="0"
             y="-89.858231"
             x="6.3522482"
             height="4.2322731"
             width="76.429871"
             id="rect4141"
             style="display:inline;opacity:0.78200001;fill:url(#radialGradient7464);fill-opacity:1;stroke:none;stroke-width:0.99582899"
             transform="rotate(90)" />
          <path
             transform="matrix(-0.62226275,0,0,1.002592,65.062911,0.09621895)"
             sodipodi:nodetypes="sssssssssccccc"
             style="color:#000000;font-style:normal;font-variant:normal;font-weight:normal;font-stretch:normal;font-size:medium;line-height:normal;font-family:sans-serif;font-variant-ligatures:normal;font-variant-position:normal;font-variant-caps:normal;font-variant-numeric:normal;font-variant-alternates:normal;font-feature-settings:normal;text-indent:0;text-align:start;text-decoration:none;text-decoration-line:none;text-decoration-style:solid;text-decoration-color:#000000;letter-spacing:normal;word-spacing:normal;text-transform:none;writing-mode:lr-tb;direction:ltr;text-orientation:mixed;dominant-baseline:auto;baseline-shift:baseline;text-anchor:start;white-space:normal;shape-padding:0;clip-rule:nonzero;display:inline;overflow:visible;visibility:visible;opacity:0.853;isolation:auto;mix-blend-mode:normal;color-interpolation:sRGB;color-interpolation-filters:linearRGB;solid-color:#000000;solid-opacity:1;vector-effect:none;fill:#fdfdfe;fill-opacity:1;fill-rule:nonzero;stroke:#ffffff;stroke-width:3.9035635;stroke-linecap:square;stroke-linejoin:round;stroke-miterlimit:4;stroke-dasharray:none;stroke-dashoffset:0;stroke-opacity:0.73287671;paint-order:fill markers stroke;filter:url(#filter967);color-rendering:auto;image-rendering:auto;shape-rendering:auto;text-rendering:auto;enable-background:accumulate"
             d="m 73.337891,6.9317815 c -1.902006,0 -3.492188,0.268947 -3.492188,2.2760381 V 81.679992 c 0,2.007091 1.731091,1.855371 3.633097,1.855371 h 2.787109 c 1.902005,0 3.351278,0.15172 3.351279,-1.855371 V 9.2078196 c 0,-2.0070911 -1.590183,-2.2760381 -3.492188,-2.2760381 z m 0.30664,2.5996199 h 2.171875 V 81.35641 h -2.171875 z"
             id="path1021"
             inkscape:connector-curvature="0" />
          <rect
             transform="scale(-1,1)"
             style="display:inline;opacity:1;fill:#3d5059;fill-opacity:1;fill-rule:nonzero;stroke:none;stroke-width:0.70398021;stroke-linecap:square;stroke-linejoin:round;stroke-miterlimit:4;stroke-dasharray:none;stroke-opacity:1;paint-order:fill markers stroke"
             id="rect1023"
             width="3.716181"
             height="76.030617"
             x="-20.418404"
             y="7.6428804"
             ry="0.58457649"
             rx="0.9909817" />
          <path
             transform="matrix(-0.62226275,0,0,1.002592,84.634438,0.09987189)"
             inkscape:connector-curvature="0"
             id="path1147"
             d="m 73.337891,6.9317815 c -1.902006,0 -3.492188,0.268947 -3.492188,2.2760381 V 81.679992 c 0,2.007091 1.731091,1.855371 3.633097,1.855371 h 2.787109 c 1.902005,0 3.351278,0.15172 3.351279,-1.855371 V 9.2078196 c 0,-2.0070911 -1.590183,-2.2760381 -3.492188,-2.2760381 z m 0.30664,2.5996199 h 2.171875 V 81.35641 h -2.171875 z"
             style="color:#000000;font-style:normal;font-variant:normal;font-weight:normal;font-stretch:normal;font-size:medium;line-height:normal;font-family:sans-serif;font-variant-ligatures:normal;font-variant-position:normal;font-variant-caps:normal;font-variant-numeric:normal;font-variant-alternates:normal;font-feature-settings:normal;text-indent:0;text-align:start;text-decoration:none;text-decoration-line:none;text-decoration-style:solid;text-decoration-color:#000000;letter-spacing:normal;word-spacing:normal;text-transform:none;writing-mode:lr-tb;direction:ltr;text-orientation:mixed;dominant-baseline:auto;baseline-shift:baseline;text-anchor:start;white-space:normal;shape-padding:0;clip-rule:nonzero;display:inline;overflow:visible;visibility:visible;opacity:0.853;isolation:auto;mix-blend-mode:normal;color-interpolation:sRGB;color-interpolation-filters:linearRGB;solid-color:#000000;solid-opacity:1;vector-effect:none;fill:#fdfdfe;fill-opacity:1;fill-rule:nonzero;stroke:#ffffff;stroke-width:3.9035635;stroke-linecap:square;stroke-linejoin:round;stroke-miterlimit:4;stroke-dasharray:none;stroke-dashoffset:0;stroke-opacity:0.73287671;paint-order:fill markers stroke;filter:url(#filter967);color-rendering:auto;image-rendering:auto;shape-rendering:auto;text-rendering:auto;enable-background:accumulate"
             sodipodi:nodetypes="sssssssssccccc" />
          <rect
             transform="scale(-1,1)"
             rx="0.9909817"
             ry="0.58457649"
             y="7.646534"
             x="-39.989944"
             height="76.030617"
             width="3.716181"
             id="rect1149"
             style="display:inline;opacity:1;fill:#3f535d;fill-opacity:1;fill-rule:nonzero;stroke:none;stroke-width:0.70398021;stroke-linecap:square;stroke-linejoin:round;stroke-miterlimit:4;stroke-dasharray:none;stroke-opacity:1;paint-order:fill markers stroke" />
          <path
             style="color:#000000;display:inline;overflow:visible;visibility:visible;opacity:1;fill:none;fill-opacity:0.99657533;fill-rule:nonzero;stroke:#444d52;stroke-width:1.40603268;stroke-miterlimit:4;stroke-dasharray:none;stroke-opacity:0.91095886;marker:none;enable-background:accumulate"
             d="m 33.408518,21.723321 h 9.446678 c 0.31554,0 0.569567,0.313642 0.569567,0.703231 v 19.651917 c 0,0.389588 -0.254027,0.70323 -0.569567,0.70323 h -9.446678 c -0.315537,0 -0.569563,-0.313642 -0.569563,-0.70323 V 22.426552 c 0,-0.389589 0.254026,-0.703231 0.569563,-0.703231 z"
             id="path986-2"
             inkscape:connector-curvature="0" />
          <path
             inkscape:connector-curvature="0"
             id="path988-9"
             d="m 33.738928,22.34534 h 8.659911 c 0.289262,0 0.522133,0.292794 0.522133,0.65649 v 18.34585 c 0,0.363698 -0.232871,0.656496 -0.522133,0.656496 h -8.659911 c -0.289261,0 -0.522131,-0.292798 -0.522131,-0.656496 V 23.00183 c 0,-0.363696 0.23287,-0.65649 0.522131,-0.65649 z"
             style="color:#000000;display:inline;overflow:visible;visibility:visible;opacity:0.85799997;fill:#f5f5f5;fill-opacity:0.99657533;fill-rule:nonzero;stroke:none;stroke-width:1.30070579;stroke-miterlimit:4;stroke-dasharray:none;stroke-opacity:0.91095886;marker:none;enable-background:accumulate" />
          <path
             style="color:#000000;display:inline;overflow:visible;visibility:visible;fill:url(#linearGradient2452);fill-opacity:1;fill-rule:nonzero;stroke:none;stroke-width:0.71865791;marker:none;enable-background:accumulate"
             d="m 33.64367,22.989136 h 8.976377 v 18.123995 l -0.320586,0.402753 H 33.964254 L 33.64367,41.113131 Z"
             id="path990-3"
             inkscape:connector-curvature="0"
             sodipodi:nodetypes="ccccccc" />
          <path
             style="color:#000000;display:inline;overflow:visible;visibility:visible;fill:#9cb4ba;fill-opacity:0.97260275;fill-rule:nonzero;stroke:none;stroke-width:0.71865791;marker:none;enable-background:accumulate"
             d="m 33.64367,22.989136 0.320584,2.41653 V 41.515884 L 33.64367,41.113131 Z"
             id="path992-1"
             inkscape:connector-curvature="0"
             sodipodi:nodetypes="ccccc" />
          <path
             style="color:#000000;display:inline;overflow:visible;visibility:visible;fill:#360f0f;fill-opacity:0.30975826;fill-rule:nonzero;stroke:none;stroke-width:0.71865791;marker:none;enable-background:accumulate"
             d="m 42.620047,22.989136 -0.320586,2.41653 v 7.652354 8.457864 l 0.320586,-0.402753 z"
             id="path994-9"
             inkscape:connector-curvature="0"
             sodipodi:nodetypes="cccccc" />
          <rect
             style="color:#000000;display:inline;overflow:visible;visibility:visible;fill:url(#linearGradient2454);fill-opacity:1;fill-rule:nonzero;stroke:none;stroke-width:0.71865791;marker:none;enable-background:accumulate"
             id="rect996-4"
             width="8.3352051"
             height="7.6523528"
             x="33.964256"
             y="25.405668" />
          <path
             inkscape:connector-curvature="0"
             id="path998-7"
             d="m 33.64367,22.989136 0.320584,2.41653 h 8.335207 l 0.320586,-2.41653 z"
             style="color:#000000;display:inline;overflow:visible;visibility:visible;fill:url(#linearGradient2456);fill-opacity:1;fill-rule:nonzero;stroke:none;stroke-width:0.71865791;marker:none;enable-background:accumulate" />
          <path
             d="m 33.964254,25.405666 v 16.110218 m -0.320584,-18.526748 0.320584,2.41653 h 8.335207"
             style="color:#000000;display:inline;overflow:visible;visibility:visible;fill:none;stroke:#314752;stroke-width:0.20722558;stroke-miterlimit:4;stroke-dasharray:none;stroke-opacity:1;marker:none;enable-background:accumulate"
             id="path1000-8"
             inkscape:connector-curvature="0" />
          <path
             id="path1002-4"
             style="color:#000000;display:inline;overflow:visible;visibility:visible;fill:none;stroke:#28343c;stroke-width:0.18224092;stroke-miterlimit:4;stroke-dasharray:none;stroke-opacity:0.99657533;marker:none;enable-background:accumulate"
             d="m 42.620047,22.989136 -0.320586,2.41653 v 16.110218 h -8.335207"
             inkscape:connector-curvature="0"
             sodipodi:nodetypes="ccc" />
          <path
             style="display:inline;fill:none;fill-rule:evenodd;stroke:#304851;stroke-width:0.2531518px;stroke-linecap:butt;stroke-linejoin:miter;stroke-opacity:1"
             d="m 34.148958,32.978106 h 7.973935 l 0.170871,0.07033"
             id="path1004-5"
             inkscape:connector-curvature="0"
             sodipodi:nodetypes="ccc" />
          <ellipse
             style="display:inline;opacity:0.59898478;fill:url(#radialGradient1123-2);fill-opacity:1;fill-rule:nonzero;stroke:none;stroke-width:2.07411766;stroke-linecap:square;stroke-linejoin:round;stroke-miterlimit:4;stroke-dasharray:none;stroke-opacity:0.99657533;paint-order:fill markers stroke;filter:url(#filter1006-7)"
             id="ellipse1006-0"
             cx="31.746191"
             cy="26.539587"
             rx="9.5939083"
             ry="6.1984653"
             transform="matrix(0.32058485,0,0,0.40275547,27.873143,18.15607)" />
          <ellipse
             transform="matrix(0.32058485,0,0,0.40275547,27.873143,27.175341)"
             ry="6.1984653"
             rx="9.5939083"
             cy="26.539587"
             cx="31.746191"
             id="ellipse1008-3"
             style="display:inline;opacity:0.33000004;fill:url(#radialGradient1125-6);fill-opacity:1;fill-rule:nonzero;stroke:none;stroke-width:2.07411766;stroke-linecap:square;stroke-linejoin:round;stroke-miterlimit:4;stroke-dasharray:none;stroke-opacity:0.99657533;paint-order:fill markers stroke;filter:url(#filter1006-7)" />
          <path
             inkscape:connector-curvature="0"
             id="path986"
             d="m 13.829809,51.572449 h 9.461013 c 0.316018,0 0.570429,0.30554 0.570429,0.685066 v 19.144399 c 0,0.379525 -0.254411,0.685064 -0.570429,0.685064 h -9.461013 c -0.316021,0 -0.570432,-0.305539 -0.570432,-0.685064 V 52.257515 c 0,-0.379526 0.254411,-0.685066 0.570432,-0.685066 z"
             style="color:#000000;display:inline;overflow:visible;visibility:visible;opacity:1;fill:none;fill-opacity:0.99657533;fill-rule:nonzero;stroke:#444d52;stroke-width:1.38881075;stroke-miterlimit:4;stroke-dasharray:none;stroke-opacity:0.91095886;marker:none;enable-background:accumulate" />
          <path
             style="color:#000000;display:inline;overflow:visible;visibility:visible;opacity:0.85799997;fill:#f5f5f5;fill-opacity:0.99657533;fill-rule:nonzero;stroke:none;stroke-width:1.28477418;stroke-miterlimit:4;stroke-dasharray:none;stroke-opacity:0.91095886;marker:none;enable-background:accumulate"
             d="m 14.160717,52.1784 h 8.673055 c 0.2897,0 0.522925,0.285235 0.522925,0.639539 v 17.872059 c 0,0.354304 -0.233225,0.63954 -0.522925,0.63954 h -8.673055 c -0.289701,0 -0.52292,-0.285236 -0.52292,-0.63954 V 52.817939 c 0,-0.354304 0.233219,-0.639539 0.52292,-0.639539 z"
             id="path988"
             inkscape:connector-curvature="0" />
          <path
             sodipodi:nodetypes="ccccccc"
             inkscape:connector-curvature="0"
             id="path990"
             d="m 14.065315,52.80557 h 8.989998 v 17.655933 l -0.321071,0.392356 h -8.347853 l -0.321074,-0.392356 z"
             style="color:#000000;display:inline;overflow:visible;visibility:visible;fill:url(#linearGradient918);fill-opacity:1;fill-rule:nonzero;stroke:none;stroke-width:0.70985544;marker:none;enable-background:accumulate" />
          <path
             sodipodi:nodetypes="ccccc"
             inkscape:connector-curvature="0"
             id="path992"
             d="m 14.065315,52.80557 0.321074,2.354125 v 15.694164 l -0.321074,-0.392356 z"
             style="color:#000000;display:inline;overflow:visible;visibility:visible;fill:#9cb4ba;fill-opacity:0.97260275;fill-rule:nonzero;stroke:none;stroke-width:0.70985544;marker:none;enable-background:accumulate" />
          <path
             sodipodi:nodetypes="cccccc"
             inkscape:connector-curvature="0"
             id="path994"
             d="m 23.055313,52.80557 -0.321071,2.354125 v 7.454726 8.239438 l 0.321071,-0.392356 z"
             style="color:#000000;display:inline;overflow:visible;visibility:visible;fill:#360f0f;fill-opacity:0.30975826;fill-rule:nonzero;stroke:none;stroke-width:0.70985544;marker:none;enable-background:accumulate" />
          <rect
             y="55.159687"
             x="14.386388"
             height="7.4547276"
             width="8.3478546"
             id="rect996"
             style="color:#000000;display:inline;overflow:visible;visibility:visible;fill:url(#linearGradient938);fill-opacity:1;fill-rule:nonzero;stroke:none;stroke-width:0.70985544;marker:none;enable-background:accumulate" />
          <path
             style="color:#000000;display:inline;overflow:visible;visibility:visible;fill:url(#linearGradient967);fill-opacity:1;fill-rule:nonzero;stroke:none;stroke-width:0.70985544;marker:none;enable-background:accumulate"
             d="m 14.065315,52.80557 0.321074,2.354125 h 8.347853 l 0.321071,-2.354125 z"
             id="path998"
             inkscape:connector-curvature="0" />
          <path
             inkscape:connector-curvature="0"
             id="path1000"
             style="color:#000000;display:inline;overflow:visible;visibility:visible;fill:none;stroke:#314752;stroke-width:0.20468737;stroke-miterlimit:4;stroke-dasharray:none;stroke-opacity:1;marker:none;enable-background:accumulate"
             d="m 14.386389,55.159695 v 15.694164 m -0.321074,-18.048289 0.321074,2.354125 h 8.347853" />
          <path
             sodipodi:nodetypes="ccc"
             inkscape:connector-curvature="0"
             d="m 23.055313,52.80557 -0.321071,2.354125 v 15.694164 h -8.347853"
             style="color:#000000;display:inline;overflow:visible;visibility:visible;fill:none;stroke:#28343c;stroke-width:0.18000875;stroke-miterlimit:4;stroke-dasharray:none;stroke-opacity:0.99657533;marker:none;enable-background:accumulate"
             id="path1002" />
          <path
             sodipodi:nodetypes="ccc"
             inkscape:connector-curvature="0"
             id="path1004"
             d="m 14.571369,62.536573 h 7.98604 l 0.171129,0.06851"
             style="display:inline;fill:none;fill-rule:evenodd;stroke:#304851;stroke-width:0.25005105px;stroke-linecap:butt;stroke-linejoin:miter;stroke-opacity:1" />
          <ellipse
             transform="matrix(0.32107139,0,0,0.39235409,8.2860306,48.09732)"
             ry="6.1984653"
             rx="9.5939083"
             cy="26.539587"
             cx="31.746191"
             id="ellipse1006"
             style="display:inline;opacity:0.59898478;fill:url(#radialGradient1123-9);fill-opacity:1;fill-rule:nonzero;stroke:none;stroke-width:2.07411766;stroke-linecap:square;stroke-linejoin:round;stroke-miterlimit:4;stroke-dasharray:none;stroke-opacity:0.99657533;paint-order:fill markers stroke;filter:url(#filter1006-0)" />
          <ellipse
             style="display:inline;opacity:0.33000004;fill:url(#radialGradient1231);fill-opacity:1;fill-rule:nonzero;stroke:none;stroke-width:2.07411766;stroke-linecap:square;stroke-linejoin:round;stroke-miterlimit:4;stroke-dasharray:none;stroke-opacity:0.99657533;paint-order:fill markers stroke;filter:url(#filter1006-0)"
             id="ellipse1008"
             cx="31.746191"
             cy="26.539587"
             rx="9.5939083"
             ry="6.1984653"
             transform="matrix(0.32107139,0,0,0.39235409,8.2860306,56.883666)" />
          <path
             inkscape:connector-curvature="0"
             id="path4989"
             d="m 9.9330536,5.525177 c -3.1036216,0 -5.6443238,2.5289176 -5.6443238,5.622454 v 68.989036 c 0,3.093539 2.5407022,5.622456 5.6443238,5.622456 H 86.404539 c 3.103621,0 5.644327,-2.528917 5.644327,-5.622456 V 11.147631 c 0,-3.0935354 -2.540706,-5.622454 -5.644327,-5.622454 z m 0,2.3097646 H 86.404539 c 1.880224,0 3.338041,1.4739214 3.338041,3.3126894 v 68.989036 c 0,1.838774 -1.457817,3.312692 -3.338041,3.312692 H 9.9330536 c -1.8802237,0 -3.3380407,-1.473918 -3.3380407,-3.312692 V 11.147631 c 0,-1.838768 1.457817,-3.3126894 3.3380407,-3.3126894 z"
             style="color:#000000;font-style:normal;font-variant:normal;font-weight:normal;font-stretch:normal;font-size:medium;line-height:normal;font-family:Sans;-inkscape-font-specification:Sans;text-indent:0;text-align:start;text-decoration:none;text-decoration-line:none;letter-spacing:normal;word-spacing:normal;text-transform:none;writing-mode:lr-tb;direction:ltr;baseline-shift:baseline;text-anchor:start;display:inline;overflow:visible;visibility:visible;fill:#1e2225;fill-opacity:0.94713602;stroke:none;stroke-width:2.365592;marker:none;enable-background:accumulate" />
          <rect
             transform="matrix(1.0647851,0,0,1.0433129,4.3194772,39.195019)"
             style="display:inline;opacity:0.38600003;fill:url(#linearGradient1910);fill-opacity:1;stroke:none"
             id="rect4146"
             width="75.965775"
             height="69.024437"
             x="2"
             y="-30"
             rx="3.9569874"
             ry="3.9569881"
             clip-path="url(#clipPath4156-4-1-7)" />
          <path
             inkscape:connector-curvature="0"
             d="m 61.103436,78.131694 c 2.81639,0 5.632781,0 8.44917,0 0.384055,0 0.768108,0 1.15216,0 0.384051,0 0.775565,-0.07566 1.152159,0 0.280696,0.05637 0.490399,0.315916 0.768106,0.385628 0.07832,0.01971 1.748782,0.0574 1.920266,0 0.271566,-0.0909 0.496541,-0.294737 0.768107,-0.385628 0.264163,-0.08843 0.925562,0.113783 1.15216,0 0.323861,-0.162601 0.466826,-0.569588 0.768105,-0.771262 0.238178,-0.159434 0.529927,-0.226186 0.768105,-0.385625 0.150648,-0.100834 0.256037,-0.51417 0.384051,-0.385627 0.128022,0.128542 -0.512067,0.514171 -0.384051,0.385627 0.256037,-0.257085 0.51207,-0.51417 0.768109,-0.771257 M 60.54215,62.215946 c -0.427966,1.718868 -0.757286,1.167748 0,1.928137 0.12802,0.128544 0.22212,0.304333 0.384052,0.385629 0.229004,0.114992 0.525211,-0.08129 0.768106,0 0.271566,0.0909 0.496539,0.294735 0.76811,0.38563 0.08434,0.02822 1.479114,0.02864 1.536211,0 1.273744,-1.27897 -0.362093,0.181788 0.768106,-0.38563 0.323862,-0.16258 0.444242,-0.608659 0.768105,-0.771256 0.229005,-0.11498 0.539102,0.114985 0.768108,0 0.161929,-0.0813 0.222124,-0.304332 0.384055,-0.38563 0.05709,-0.02865 1.451878,-0.0282 1.53621,0 0.159811,0.0535 0.805094,0.559877 1.152162,0.38563 0.161926,-0.0813 0.22212,-0.304332 0.384053,-0.38563 0.116882,-0.05868 0.979195,0 1.15216,0 0.896124,0 1.792248,0 2.688371,0 0.640089,0 1.280179,0 1.920266,0 0.384053,0 0.787814,-0.121933 1.152158,0 0.171764,0.0575 0.212296,0.328143 0.384054,0.38563 0.206469,0.0691 1.211057,0 1.536212,0 M 58.621882,51.908963 c 0.512071,0 1.031107,-0.08455 1.536213,0 0.282363,0.04724 0.49654,0.294734 0.768107,0.385624 0.222475,0.07448 1.2034,0 1.536216,0 0.172957,0 1.035277,0.05868 1.152158,0 0.523727,-0.262933 0.244378,-0.508315 0.768106,-0.771253 0.114502,-0.0575 0.269549,0.05751 0.384053,0 0.363676,-0.182605 0.610406,-1.043247 1.152161,-0.771259 0.720536,0.361749 0.164214,0.494701 0.384052,1.156888 0.05725,0.172475 0.326802,0.21317 0.384055,0.385624 0.05852,0.17638 -0.08545,1.370921 0,1.542516 0.08097,0.16258 0.203007,0.385628 0.384051,0.385628 0.181054,0 0.256036,-0.257081 0.384053,-0.385628 0.225879,-0.226805 1.358366,-1.453226 1.536213,-1.542516 0.01992,-0.01015 1.132068,-0.01015 1.152159,0 0.161948,0.08131 0.222124,0.304335 0.384051,0.38563 0.0861,0.04318 1.444954,0 1.536214,0 0.896126,0 1.79225,0 2.688374,0 0.126135,0 1.094938,-0.03832 1.15216,0 0.858626,0.57477 0.768105,0.509289 0.768105,1.156886 0,0.128547 0,0.25709 0,0.385628 0,0.128547 -0.127999,0.38563 0,0.38563 0.181053,0 0.256034,-0.514168 0.384054,-0.38563 0.128021,0.128547 -0.256037,0.257085 -0.384054,0.38563 m -14.431728,-28.0802 c 4.608639,0 9.217279,0 13.825915,0 0.896124,0 1.79225,0 2.688372,0 0.17296,0 1.035282,-0.05868 1.152161,0 0.161949,0.08132 0.222119,0.304328 0.384054,0.385629 0.229002,0.114996 0.539098,-0.114982 0.768103,0 0.323865,0.162599 0.466832,0.56958 0.768108,0.771254 0.238181,0.159432 0.51207,0.257087 0.768102,0.385631 M 61.280668,38.343344 c -0.47768,0.151362 -1.150434,1.349768 -1.558343,0.67221 0.166305,-0.480811 1.285787,-1.089228 1.558343,-0.67221 -0.334771,0.893267 -1.804808,0.918461 -1.932994,1.826438 -0.213854,0.916126 0.79878,0.961665 1.43903,0.886471 0.326718,-0.272921 0.746308,-0.946449 1.26207,-0.784769 -0.0548,-0.683153 -1.281845,-1.281254 -0.768106,-1.92814 0.725151,-0.280074 1.264662,0.464358 1.791748,0.835724 0.404583,0.422924 0.96896,0.476246 1.280678,-0.06446 0.715217,0.0025 1.483656,-0.143246 2.168694,0.0977 0.888482,0.392709 1.285287,1.459031 2.251651,1.727194 0.495275,0.545926 1.183988,0.534109 1.818673,0.885955 0.553286,-0.03421 1.015484,0.451734 1.547597,0.457313 0.242492,0.531806 0.839365,0.220427 1.283164,0.310758 0.84053,0.251107 1.355117,-0.376392 1.847541,-0.952832 0.461909,-0.563635 0.936154,-1.086645 1.685939,-1.09545 0.363662,-0.295284 0.765104,-0.298531 1.218882,-0.273739 0.509427,-0.0053 1.034051,0.02096 1.528734,-0.0369 0.05344,0.208131 -0.288305,0.01211 -0.3728,0.0369 M 57.750366,14.398022 c 0.640088,0 1.280175,0 1.920265,0 0.867666,0 -0.171742,0.05748 1.152161,-0.385629 0.241052,-0.08066 1.227037,0 1.536214,0 0.172956,0 1.035276,-0.05868 1.152158,0 0.161929,0.0813 0.256038,0.257084 0.384054,0.385629 0.299979,0.301209 0.820761,0.935045 1.152159,1.156884 1.940162,1.298745 0.0088,0.0029 1.152161,0.385627 0.271566,0.09088 0.496538,0.294738 0.768108,0.38563 0.04942,0.01655 1.12035,0.01613 1.152159,0 0.101977,-0.0512 1.101173,-1.054497 1.152158,-1.156885 0.05722,-0.114961 -0.05724,-0.270658 0,-0.385628 0.08097,-0.1626 0.303088,-0.223037 0.384054,-0.385628 0.114514,-0.229946 -0.114526,-0.541313 0,-0.771258 0.08097,-0.162596 0.256035,-0.257088 0.384054,-0.385628 0.128019,-0.128544 0.222121,-0.304331 0.384051,-0.385629 0.03179,-0.01592 1.102744,-0.01655 1.15216,0 0.271566,0.09089 0.496539,0.294736 0.768105,0.385629 0.242898,0.08129 0.539101,-0.114959 0.76811,0 0.377917,0.189733 1.158292,1.352781 1.53621,1.542514 0.114526,0.05747 0.269552,-0.05748 0.384054,0 0.161927,0.08131 0.222121,0.304331 0.384053,0.385628 0.100962,0.05072 1.335383,0 1.536212,0 0.663955,0 0.899923,0.04032 1.536213,-0.385628 0.150647,-0.10085 0.222123,-0.304332 0.384052,-0.385628 0.114527,-0.05747 0.262606,0.04066 0.384055,0 0.271566,-0.09088 0.496539,-0.294737 0.768105,-0.385629 0.121438,-0.04065 0.256037,0 0.384056,0 0.716869,0 1.055334,0.288408 1.536212,0.771257"
             style="fill:none;stroke:#3c3c3c;stroke-width:0.21356502;stroke-linecap:butt;stroke-linejoin:round;stroke-miterlimit:4;stroke-dasharray:none;stroke-opacity:1"
             id="path5752" />
          <path
             style="opacity:0.72794118;fill:#ff9340;fill-opacity:1;stroke:#088c18;stroke-width:0.83712167;stroke-linejoin:round;stroke-miterlimit:4;stroke-opacity:0.87148593"
             d="m 62.012901,15.331193 c 0,1.460927 -1.179477,2.645242 -2.634437,2.645242 -1.454963,0 -2.63444,-1.184315 -2.63444,-2.645242 0,-1.460927 1.179477,-2.645242 2.63444,-2.645242 1.45496,0 2.634437,1.184315 2.634437,2.645242 z"
             id="path5756"
             inkscape:connector-curvature="0" />
          <path
             style="opacity:0.72794118;fill:#67f54a;fill-opacity:1;stroke:#084b8c;stroke-width:0.83712167;stroke-linejoin:round;stroke-miterlimit:4;stroke-opacity:0.87148593"
             d="m 62.012901,27.194133 c 0,1.46093 -1.179477,2.645243 -2.634437,2.645243 -1.454963,0 -2.63444,-1.184313 -2.63444,-2.645243 0,-1.460925 1.179477,-2.645244 2.63444,-2.645244 1.45496,0 2.634437,1.184319 2.634437,2.645244 z"
             id="path5758"
             inkscape:connector-curvature="0" />
          <path
             style="opacity:0.72794118;fill:#f8ff40;fill-opacity:1;stroke:#084b8c;stroke-width:0.83712167;stroke-linejoin:round;stroke-miterlimit:4;stroke-opacity:0.87148593"
             d="m 62.012901,40.539946 c 0,1.460925 -1.179477,2.645242 -2.634437,2.645242 -1.454963,0 -2.63444,-1.184317 -2.63444,-2.645242 0,-1.460927 1.179477,-2.645243 2.63444,-2.645243 1.45496,0 2.634437,1.184316 2.634437,2.645243 z"
             id="path5760"
             inkscape:connector-curvature="0" />
          <path
             style="opacity:0.72794118;fill:#7e95e5;fill-opacity:1;stroke:#084b8c;stroke-width:0.83712167;stroke-linejoin:round;stroke-miterlimit:4;stroke-opacity:0.87148593"
             d="m 62.012901,52.773606 c 0,1.460925 -1.179477,2.645242 -2.634437,2.645242 -1.454963,0 -2.63444,-1.184317 -2.63444,-2.645242 0,-1.46093 1.179477,-2.645244 2.63444,-2.645244 1.45496,0 2.634437,1.184314 2.634437,2.645244 z"
             id="path5762"
             inkscape:connector-curvature="0" />
          <path
             style="opacity:0.72794118;fill:#ff4040;fill-opacity:1;stroke:#084b8c;stroke-width:0.83712167;stroke-linejoin:round;stroke-miterlimit:4;stroke-opacity:0.87148593"
             d="m 62.012901,64.636547 c 0,1.460927 -1.179477,2.645244 -2.634437,2.645244 -1.454963,0 -2.63444,-1.184317 -2.63444,-2.645244 0,-1.460923 1.179477,-2.645243 2.63444,-2.645243 1.45496,0 2.634437,1.18432 2.634437,2.645243 z"
             id="path5764"
             inkscape:connector-curvature="0" />
          <path
             inkscape:connector-curvature="0"
             id="path1128"
             d="m 62.012901,77.265483 c 0,1.460927 -1.179477,2.645244 -2.634437,2.645244 -1.454963,0 -2.63444,-1.184317 -2.63444,-2.645244 0,-1.460923 1.179477,-2.645243 2.63444,-2.645243 1.45496,0 2.634437,1.18432 2.634437,2.645243 z"
             style="opacity:0.72794118;fill:#40f2ff;fill-opacity:1;stroke:#084b8c;stroke-width:0.83712167;stroke-linejoin:round;stroke-miterlimit:4;stroke-opacity:0.87148593" />
          <path
             inkscape:connector-curvature="0"
             d="m 88.366448,57.910055 v 0.599586 H 61.714601 v -0.599586 z m 0,11.962412 V 70.47205 H 61.714601 v -0.599583 z m 0,-48.16536 V 22.30669 H 61.714601 v -0.599583 z m 0,11.962412 v 0.599583 H 61.714601 v -0.599583 z m 0,11.962412 v 0.599583 H 61.714601 V 45.631931 Z M 52.859999,7.7816832 h 36.202955 c 0.466428,0 0.841928,0.7510001 0.841928,1.6838569 V 82.152077 c 0,0.932856 -0.3755,1.683858 -0.841928,1.683858 H 52.859999 c -0.466426,0 -0.841926,-0.751002 -0.841926,-1.683858 V 9.4655401 c 0,-0.9328568 0.3755,-1.6838569 0.841926,-1.6838569 z"
             style="opacity:0.72794118;fill:none;fill-opacity:1;stroke:#000000;stroke-width:0.63873219;stroke-linejoin:round;stroke-miterlimit:4;stroke-opacity:0.87148593"
             id="path1140" />
        </g>
      </g>
    </g>
  </g>
</svg>
