<?xml version="1.0" encoding="UTF-8" standalone="no"?>
<!-- Created with Inkscape (http://www.inkscape.org/) -->

<svg
   xmlns:dc="http://purl.org/dc/elements/1.1/"
   xmlns:cc="http://creativecommons.org/ns#"
   xmlns:rdf="http://www.w3.org/1999/02/22-rdf-syntax-ns#"
   xmlns:svg="http://www.w3.org/2000/svg"
   xmlns="http://www.w3.org/2000/svg"
   xmlns:xlink="http://www.w3.org/1999/xlink"
   xmlns:sodipodi="http://sodipodi.sourceforge.net/DTD/sodipodi-0.dtd"
   xmlns:inkscape="http://www.inkscape.org/namespaces/inkscape"
   width="96"
   height="96"
   id="svg2"
   version="1.1"
   inkscape:version="0.92.2 5c3e80d, 2017-08-06"
   sodipodi:docname="obmenu3.svg">
  <script
     xlink:href=""
     id="script2985" />
  <defs
     id="defs4">
    <linearGradient
       id="linearGradient1629">
      <stop
         id="stop1625"
         style="stop-color:#0c7b02;stop-opacity:1"
         offset="0" />
      <stop
         id="stop1627"
         style="stop-color:#0fe041;stop-opacity:1"
         offset="1" />
    </linearGradient>
    <linearGradient
       inkscape:collect="always"
       id="linearGradient1613">
      <stop
         style="stop-color:#f0f0f0;stop-opacity:1;"
         offset="0"
         id="stop1609" />
      <stop
         id="stop1617"
         offset="0.80172718"
         style="stop-color:#f0f0f0;stop-opacity:1" />
      <stop
         style="stop-color:#010101;stop-opacity:0.69803923"
         offset="0.82381141"
         id="stop1619" />
      <stop
         style="stop-color:#121212;stop-opacity:0.49583334"
         offset="1"
         id="stop1611" />
    </linearGradient>
    <linearGradient
       id="linearGradient6139-0">
      <stop
         style="stop-color:#c1adad;stop-opacity:1;"
         offset="0"
         id="stop6141-2" />
      <stop
         id="stop6151-0"
         offset="0.25"
         style="stop-color:#ffffff;stop-opacity:1;" />
      <stop
         id="stop6147-1"
         offset="0.5"
         style="stop-color:#aa9090;stop-opacity:1;" />
      <stop
         style="stop-color:#fbf9f9;stop-opacity:1;"
         offset="0.75"
         id="stop6149-4" />
      <stop
         style="stop-color:#c1adad;stop-opacity:1;"
         offset="1"
         id="stop6143-4" />
    </linearGradient>
    <linearGradient
       id="linearGradient4341-9-4-5-2">
      <stop
         style="stop-color:#ffffff;stop-opacity:0;"
         offset="0"
         id="stop4343-2-5-2-4" />
      <stop
         id="stop3954-0-91"
         offset="0.30000001"
         style="stop-color:#ffffff;stop-opacity:1;" />
      <stop
         style="stop-color:#ffffff;stop-opacity:1;"
         offset="0.69999999"
         id="stop3956-8-3" />
      <stop
         style="stop-color:#ffffff;stop-opacity:0;"
         offset="1"
         id="stop4347-6-0-8-7" />
    </linearGradient>
    <linearGradient
       id="linearGradient6317">
      <stop
         style="stop-color:#ffffff;stop-opacity:0;"
         offset="0"
         id="stop6319" />
      <stop
         id="stop6321"
         offset="0.30000001"
         style="stop-color:#ffffff;stop-opacity:1;" />
      <stop
         style="stop-color:#ffffff;stop-opacity:1;"
         offset="0.69999999"
         id="stop6323" />
      <stop
         style="stop-color:#ffffff;stop-opacity:0;"
         offset="1"
         id="stop6325" />
    </linearGradient>
    <linearGradient
       id="linearGradient4090">
      <stop
         id="stop4092"
         style="stop-color:#000000;stop-opacity:1"
         offset="0" />
      <stop
         id="stop4094"
         style="stop-color:#000000;stop-opacity:0"
         offset="1" />
    </linearGradient>
    <filter
       color-interpolation-filters="sRGB"
       id="filter4454">
      <feGaussianBlur
         id="feGaussianBlur4456"
         stdDeviation="0.615" />
    </filter>
    <linearGradient
       gradientTransform="scale(1.0058652,0.994169)"
       gradientUnits="userSpaceOnUse"
       id="ButtonShadow"
       y2="7.0165396"
       x2="45.447727"
       y1="92.539597"
       x1="45.447727">
      <stop
         offset="0"
         style="stop-color:#000000;stop-opacity:1"
         id="stop3750" />
      <stop
         offset="1"
         style="stop-color:#000000;stop-opacity:0.58823532"
         id="stop3752" />
    </linearGradient>
    <filter
       id="filter3174"
       color-interpolation-filters="sRGB">
      <feGaussianBlur
         stdDeviation="1.71"
         id="feGaussianBlur3176" />
    </filter>
    <linearGradient
       id="linearGradient3588">
      <stop
         offset="0"
         style="stop-color:#ff9b00;stop-opacity:1"
         id="stop3590" />
      <stop
         offset="1"
         style="stop-color:#ff5f00;stop-opacity:1"
         id="stop3592" />
    </linearGradient>
    <linearGradient
       id="linearGradient3580">
      <stop
         offset="0"
         style="stop-color:#f2e051;stop-opacity:1"
         id="stop3582" />
      <stop
         offset="1"
         style="stop-color:#ffb31f;stop-opacity:1"
         id="stop3584" />
    </linearGradient>
    <linearGradient
       id="linearGradient3572">
      <stop
         offset="0"
         style="stop-color:#61ae50;stop-opacity:1"
         id="stop3574" />
      <stop
         offset="1"
         style="stop-color:#9ac837;stop-opacity:1"
         id="stop3576" />
    </linearGradient>
    <linearGradient
       id="linearGradient3564">
      <stop
         offset="0"
         style="stop-color:#3792c8;stop-opacity:1"
         id="stop3566" />
      <stop
         offset="1"
         style="stop-color:#3769c8;stop-opacity:1"
         id="stop3568" />
    </linearGradient>
    <linearGradient
       id="linearGradient3556">
      <stop
         offset="0"
         style="stop-color:#e273be;stop-opacity:1"
         id="stop3558" />
      <stop
         offset="1"
         style="stop-color:#e84058;stop-opacity:1"
         id="stop3560" />
    </linearGradient>
    <filter
       id="filter3756"
       color-interpolation-filters="sRGB"
       height="1.2626097"
       width="1.2209749"
       y="-0.13130485"
       x="-0.11048746">
      <feGaussianBlur
         stdDeviation="1.6743347"
         id="feGaussianBlur3758" />
    </filter>
    <linearGradient
       id="linearGradient3836">
      <stop
         offset="0"
         style="stop-color:#a5eaf6;stop-opacity:1"
         id="stop3838" />
      <stop
         offset="1"
         style="stop-color:#35d3ed;stop-opacity:0"
         id="stop3840" />
    </linearGradient>
    <linearGradient
       id="linearGradient3875">
      <stop
         offset="0"
         style="stop-color:#ff9cf6;stop-opacity:1"
         id="stop3877" />
      <stop
         offset="1"
         style="stop-color:#ff9cf6;stop-opacity:0"
         id="stop3879" />
    </linearGradient>
    <linearGradient
       id="linearGradient6370">
      <stop
         offset="0"
         style="stop-color:#ff9cf6;stop-opacity:1"
         id="stop6372" />
      <stop
         offset="1"
         style="stop-color:#ff9cf6;stop-opacity:0"
         id="stop6374" />
    </linearGradient>
    <linearGradient
       id="linearGradient3921">
      <stop
         offset="0"
         style="stop-color:#b5e64e;stop-opacity:1"
         id="stop3923" />
      <stop
         offset="1"
         style="stop-color:#b5e64e;stop-opacity:0"
         id="stop3925" />
    </linearGradient>
    <linearGradient
       id="linearGradient3940">
      <stop
         offset="0"
         style="stop-color:#fdf49c;stop-opacity:1"
         id="stop3942" />
      <stop
         offset="1"
         style="stop-color:#fdf49c;stop-opacity:0"
         id="stop3944" />
    </linearGradient>
    <linearGradient
       id="linearGradient3970">
      <stop
         offset="0"
         style="stop-color:#ffaf44;stop-opacity:1"
         id="stop3972" />
      <stop
         offset="1"
         style="stop-color:#ffaf44;stop-opacity:0"
         id="stop3974" />
    </linearGradient>
    <linearGradient
       inkscape:collect="always"
       xlink:href="#linearGradient4213-7"
       id="linearGradient6291"
       gradientUnits="userSpaceOnUse"
       x1="2.7713892"
       y1="-28.64156"
       x2="50.527882"
       y2="14.514202" />
    <linearGradient
       inkscape:collect="always"
       id="linearGradient4213-7">
      <stop
         style="stop-color:#ffffff;stop-opacity:1;"
         offset="0"
         id="stop4215-6" />
      <stop
         style="stop-color:#ffffff;stop-opacity:0;"
         offset="1"
         id="stop4217-5" />
    </linearGradient>
    <clipPath
       clipPathUnits="userSpaceOnUse"
       id="clipPath4156-4">
      <path
         style="opacity:0.6;fill:#ffffff;fill-opacity:1;stroke:none"
         d="m 27.046336,-55.695463 -14.21366,13.321486 0.06127,0 15.653407,21.770763 10.231384,-10.546177 C 38.561832,-32.30156 27.468089,-54.819245 27.046336,-55.695463 z M 9.6468554,-39.382809 -5.2407289,-25.32124 15.987863,-7.8059573 26.372412,-18.382966 9.6468554,-39.382809 z m 31.4906096,12.951445 -9.741259,9.713584 8.944804,12.4580526 7.780753,-7.5550056 -6.984298,-14.616631 z m -49.8397109,4.378822 -13.7541661,12.9822847 26.2830181,13.84571 0.06127,-0.0617 -0.122531,-0.0617 L 13.598503,-5.4007374 -8.7022409,-22.052595 z m 38.0154159,7.400825 -9.802525,9.7752596 11.579232,9.5594001 7.62759,-7.40083 -8.669108,-11.0087257 -0.735189,-0.925104 z m 20.187073,5.6739697 -7.382526,7.2158 6.187844,8.54179 5.820249,-6.13651996 -4.625567,-9.62107004 z m -32.195166,6.32154 -9.5574606,9.49772 13.6622686,7.1849703 7.933918,-7.6783603 -12.038726,-9.00433 z m 23.311629,2.37443004 -7.10683,6.93826996 8.362778,6.9074403 5.360756,-5.6739699 -0.06127,-0.0925 -0.0919,0.12335 -6.463539,-8.20258036 z m -8.730374,8.54178036 -7.505057,7.3391599 10.353916,5.45811 c 1.397496,-1.32103 5.67514,-6.12292 5.850882,-6.32154 L 31.886332,8.2600031 z"
         id="path4158-0"
         inkscape:connector-curvature="0" />
    </clipPath>
    <linearGradient
       gradientUnits="userSpaceOnUse"
       xlink:href="#linearGradient3761"
       id="linearGradient3989"
       y2="13"
       x2="16"
       y1="13"
       x1="10" />
    <linearGradient
       gradientUnits="userSpaceOnUse"
       xlink:href="#linearGradient3953"
       id="linearGradient3987"
       y2="13"
       x2="16.8125"
       y1="13"
       x1="9.1875" />
    <linearGradient
       gradientUnits="userSpaceOnUse"
       xlink:href="#linearGradient3637"
       id="linearGradient3979"
       y2="13"
       x2="16"
       y1="13"
       x1="10"
       gradientTransform="matrix(0,0.83333333,0.83333333,0,17.576142,-0.77151672)" />
    <linearGradient
       gradientUnits="userSpaceOnUse"
       xlink:href="#linearGradient3953"
       id="linearGradient3977"
       y2="13"
       x2="16.8125"
       y1="13"
       x1="9.1875" />
    <linearGradient
       gradientUnits="userSpaceOnUse"
       xlink:href="#linearGradient3637"
       id="linearGradient3969"
       y2="13"
       x2="16"
       y1="13"
       x1="10" />
    <linearGradient
       gradientUnits="userSpaceOnUse"
       xlink:href="#linearGradient3953"
       id="linearGradient3967"
       y2="13"
       x2="16.8125"
       y1="13"
       x1="9.1875" />
    <linearGradient
       gradientUnits="userSpaceOnUse"
       xlink:href="#linearGradient3953"
       id="linearGradient3959"
       y2="13"
       x2="16.8125"
       y1="13"
       x1="9.1875" />
    <linearGradient
       gradientUnits="userSpaceOnUse"
       xlink:href="#linearGradient3183-0"
       id="linearGradient3924"
       y2="13"
       x2="16"
       y1="13"
       x1="10"
       gradientTransform="matrix(0,-0.83333333,0.83333333,0,3.4879347,20.895152)" />
    <linearGradient
       gradientTransform="translate(-97,-27)"
       gradientUnits="userSpaceOnUse"
       xlink:href="#linearGradient3637"
       id="linearGradient3950"
       y2="8"
       x2="120"
       y1="8"
       x1="104" />
    <linearGradient
       id="linearGradient3637">
      <stop
         offset="0"
         style="stop-color:#095e02;stop-opacity:1;"
         id="stop3639" />
      <stop
         offset="1"
         style="stop-color:#0ed73e;stop-opacity:1;"
         id="stop3641" />
    </linearGradient>
    <linearGradient
       id="linearGradient3183-0">
      <stop
         offset="0"
         style="stop-color:#c80000;stop-opacity:1"
         id="stop3185-9" />
      <stop
         offset="1"
         style="stop-color:#f3604d;stop-opacity:1"
         id="stop3187-6" />
    </linearGradient>
    <linearGradient
       gradientTransform="translate(-151,-27)"
       gradientUnits="userSpaceOnUse"
       xlink:href="#linearGradient3183-0"
       id="linearGradient3913"
       y2="8"
       x2="120"
       y1="8"
       x1="104" />
    <linearGradient
       gradientUnits="userSpaceOnUse"
       xlink:href="#linearGradient3737"
       id="linearGradient3886"
       y2="63.893143"
       x2="36.357143"
       y1="6"
       x1="36.357143" />
    <linearGradient
       gradientUnits="userSpaceOnUse"
       xlink:href="#linearGradient3761"
       id="linearGradient3880"
       y2="6"
       x2="32"
       y1="16"
       x1="32"
       gradientTransform="matrix(1,0,0,1.3327925,-94.291586,-58.399988)" />
    <linearGradient
       gradientUnits="userSpaceOnUse"
       xlink:href="#linearGradient3678"
       id="linearGradient3684"
       y2="80"
       x2="48"
       y1="27"
       x1="48"
       gradientTransform="matrix(1,0,0,1.0388258,-28.913945,82.926489)" />
    <linearGradient
       gradientTransform="matrix(1.0238095,0,0,1.0119048,-1.1428571,-98.071429)"
       gradientUnits="userSpaceOnUse"
       xlink:href="#ButtonShadow-0"
       id="linearGradient3026"
       y2="90.238609"
       x2="32.251034"
       y1="6.1317081"
       x1="32.251034" />
    <linearGradient
       gradientTransform="translate(0,-97)"
       gradientUnits="userSpaceOnUse"
       xlink:href="#ButtonShadow-0"
       id="linearGradient3721"
       y2="90.238609"
       x2="32.251034"
       y1="6.1317081"
       x1="32.251034" />
    <linearGradient
       gradientTransform="matrix(1.0238095,0,0,1.0119048,-1.1428571,-98.071429)"
       gradientUnits="userSpaceOnUse"
       xlink:href="#ButtonShadow-0"
       id="linearGradient3725"
       y2="90.238609"
       x2="32.251034"
       y1="6.1317081"
       x1="32.251034" />
    <linearGradient
       gradientTransform="matrix(1.0238095,0,0,1.0119048,-1.1428571,-98.071429)"
       gradientUnits="userSpaceOnUse"
       xlink:href="#ButtonShadow-0"
       id="linearGradient3772"
       y2="90.238609"
       x2="32.251034"
       y1="6.1317081"
       x1="32.251034" />
    <linearGradient
       gradientTransform="matrix(1.0238095,0,0,1.0119048,-1.1428571,-98.071429)"
       gradientUnits="userSpaceOnUse"
       xlink:href="#ButtonShadow-0"
       id="linearGradient3780"
       y2="90.238609"
       x2="32.251034"
       y1="6.1317081"
       x1="32.251034" />
    <linearGradient
       gradientTransform="matrix(1.0058652,0,0,0.994169,100,0)"
       gradientUnits="userSpaceOnUse"
       id="ButtonShadow-0"
       y2="7.0165396"
       x2="45.447727"
       y1="92.539597"
       x1="45.447727">
      <stop
         offset="0"
         style="stop-color:#000000;stop-opacity:1"
         id="stop3750-8" />
      <stop
         offset="1"
         style="stop-color:#000000;stop-opacity:0.58823532"
         id="stop3752-5" />
    </linearGradient>
    <linearGradient
       gradientTransform="translate(-15.65456,17.219712)"
       gradientUnits="userSpaceOnUse"
       xlink:href="#linearGradient3664"
       id="linearGradient3617"
       y2="5.9877172"
       x2="48"
       y1="90"
       x1="48" />
    <clipPath
       id="clipPath3613">
      <rect
         style="fill:#ffffff;fill-opacity:1;fill-rule:nonzero;stroke:none"
         id="rect3615"
         y="6"
         x="6"
         ry="6"
         rx="6"
         height="84"
         width="84" />
    </clipPath>
    <radialGradient
       gradientTransform="matrix(1.1573129,0,0,0.99590774,-11.234446,26.598673)"
       gradientUnits="userSpaceOnUse"
       xlink:href="#linearGradient3737"
       id="radialGradient3619"
       fy="90.171875"
       fx="48"
       r="42"
       cy="90.171875"
       cx="48" />
    <linearGradient
       gradientUnits="userSpaceOnUse"
       xlink:href="#linearGradient3737"
       id="linearGradient3613"
       y2="138.66119"
       x2="48"
       y1="20.220806"
       x1="48" />
    <filter
       id="filter3794"
       color-interpolation-filters="sRGB"
       height="1.3839999"
       width="1.3839999"
       y="-0.192"
       x="-0.192">
      <feGaussianBlur
         stdDeviation="5.28"
         id="feGaussianBlur3796" />
    </filter>
    <linearGradient
       gradientUnits="userSpaceOnUse"
       xlink:href="#linearGradient3737"
       id="linearGradient3188"
       y2="63.893143"
       x2="36.357143"
       y1="6"
       x1="36.357143" />
    <filter
       id="filter3174-3"
       color-interpolation-filters="sRGB">
      <feGaussianBlur
         stdDeviation="1.71"
         id="feGaussianBlur3176-6" />
    </filter>
    <linearGradient
       id="linearGradient3737">
      <stop
         offset="0"
         style="stop-color:#ffffff;stop-opacity:1"
         id="stop3739" />
      <stop
         offset="1"
         style="stop-color:#ffffff;stop-opacity:0"
         id="stop3741" />
    </linearGradient>
    <linearGradient
       gradientTransform="scale(1.0058652,0.994169)"
       gradientUnits="userSpaceOnUse"
       id="ButtonShadow-9"
       y2="7.0165396"
       x2="45.447727"
       y1="92.539597"
       x1="45.447727">
      <stop
         offset="0"
         style="stop-color:#000000;stop-opacity:1"
         id="stop3750-0" />
      <stop
         offset="1"
         style="stop-color:#000000;stop-opacity:0.58823532"
         id="stop3752-0" />
    </linearGradient>
    <linearGradient
       id="linearGradient3664">
      <stop
         offset="0"
         style="stop-color:#c8c8c8;stop-opacity:1"
         id="stop3666" />
      <stop
         offset="0.79100895"
         style="stop-color:#c8c8c8;stop-opacity:1"
         id="stop3668" />
      <stop
         offset="0.91459841"
         style="stop-color:#dadada;stop-opacity:1"
         id="stop3672" />
      <stop
         offset="1"
         style="stop-color:#f0f0f0;stop-opacity:1"
         id="stop3670" />
    </linearGradient>
    <linearGradient
       id="linearGradient3678">
      <stop
         offset="0"
         style="stop-color:#888888;stop-opacity:1"
         id="stop3680" />
      <stop
         offset="1"
         style="stop-color:#acacac;stop-opacity:1"
         id="stop3682" />
    </linearGradient>
    <linearGradient
       id="linearGradient3761">
      <stop
         offset="0"
         style="stop-color:#333333;stop-opacity:1"
         id="stop3763" />
      <stop
         offset="1"
         style="stop-color:#515151;stop-opacity:1"
         id="stop3765" />
    </linearGradient>
    <linearGradient
       id="linearGradient3953">
      <stop
         offset="0"
         style="stop-color:#000000;stop-opacity:1"
         id="stop3955" />
      <stop
         offset="1"
         style="stop-color:#000000;stop-opacity:0"
         id="stop3957" />
    </linearGradient>
    <linearGradient
       id="linearGradient5531">
      <stop
         id="stop5533"
         style="stop-color:#e2b72e;stop-opacity:1;"
         offset="0" />
      <stop
         id="stop5535"
         style="stop-color:#cd9a11;stop-opacity:1;"
         offset="1" />
    </linearGradient>
    <linearGradient
       id="linearGradient3953-5">
      <stop
         offset="0"
         style="stop-color:#000000;stop-opacity:1"
         id="stop3955-9" />
      <stop
         offset="1"
         style="stop-color:#000000;stop-opacity:0"
         id="stop3957-5" />
    </linearGradient>
    <linearGradient
       id="linearGradient3183-0-9">
      <stop
         offset="0"
         style="stop-color:#c80000;stop-opacity:1"
         id="stop3185-9-0" />
      <stop
         offset="1"
         style="stop-color:#f3604d;stop-opacity:1"
         id="stop3187-6-0" />
    </linearGradient>
    <linearGradient
       id="linearGradient4405">
      <stop
         offset="0"
         style="stop-color:#000000;stop-opacity:1"
         id="stop4407" />
      <stop
         offset="1"
         style="stop-color:#000000;stop-opacity:0"
         id="stop4409" />
    </linearGradient>
    <linearGradient
       id="linearGradient5531-5">
      <stop
         id="stop5533-7"
         style="stop-color:#e2b72e;stop-opacity:1;"
         offset="0" />
      <stop
         id="stop5535-6"
         style="stop-color:#cd9a11;stop-opacity:1;"
         offset="1" />
    </linearGradient>
    <linearGradient
       id="linearGradient4416">
      <stop
         offset="0"
         style="stop-color:#000000;stop-opacity:1"
         id="stop4418" />
      <stop
         offset="1"
         style="stop-color:#000000;stop-opacity:0"
         id="stop4420" />
    </linearGradient>
    <linearGradient
       id="linearGradient3637-3">
      <stop
         offset="0"
         style="stop-color:#095e02;stop-opacity:1;"
         id="stop3639-5" />
      <stop
         offset="1"
         style="stop-color:#0ed73e;stop-opacity:1;"
         id="stop3641-6" />
    </linearGradient>
    <linearGradient
       inkscape:collect="always"
       xlink:href="#linearGradient6139-0-3"
       id="linearGradient4071"
       gradientUnits="userSpaceOnUse"
       gradientTransform="matrix(1.1071428,0,0,1.1071426,-4.9939026,-3.620687)"
       x1="6"
       y1="47.000011"
       x2="90"
       y2="47.000011" />
    <linearGradient
       id="linearGradient6139-0-3">
      <stop
         id="stop6141-2-6"
         offset="0"
         style="stop-color:#b4b8ba;stop-opacity:1" />
      <stop
         style="stop-color:#ffffff;stop-opacity:1;"
         offset="0.25"
         id="stop6151-0-7" />
      <stop
         style="stop-color:#989fa2;stop-opacity:1"
         offset="0.5"
         id="stop6147-1-5" />
      <stop
         id="stop6149-4-3"
         offset="0.75"
         style="stop-color:#f9fafb;stop-opacity:1" />
      <stop
         id="stop6143-4-5"
         offset="1"
         style="stop-color:#b4b8ba;stop-opacity:1" />
    </linearGradient>
    <linearGradient
       gradientTransform="translate(0.1489535,0.415026)"
       inkscape:collect="always"
       xlink:href="#linearGradient3832-0-6-1-1"
       id="linearGradient4129"
       x1="1.5"
       y1="88.171875"
       x2="94.5"
       y2="88.171875"
       gradientUnits="userSpaceOnUse" />
    <linearGradient
       id="linearGradient3832-0-6-1-1">
      <stop
         style="stop-color:#000000;stop-opacity:1;"
         offset="0"
         id="stop3834-6-3-7-1" />
      <stop
         id="stop3872-2-4"
         offset="0.1"
         style="stop-color:#000000;stop-opacity:0.58823532;" />
      <stop
         style="stop-color:#000000;stop-opacity:0.58823532;"
         offset="0.89999998"
         id="stop3844-6-2-7-6" />
      <stop
         style="stop-color:#000000;stop-opacity:1;"
         offset="1"
         id="stop3836-5-0-2-9" />
    </linearGradient>
    <radialGradient
       inkscape:collect="always"
       xlink:href="#linearGradient4213-7"
       id="radialGradient7462"
       gradientUnits="userSpaceOnUse"
       gradientTransform="matrix(0.97513378,0,0,0.04919072,34.047649,80.581722)"
       cx="13.948145"
       cy="44.892841"
       fx="13.948145"
       fy="44.892841"
       r="43.199203" />
    <radialGradient
       inkscape:collect="always"
       xlink:href="#linearGradient4213-7"
       id="radialGradient7464"
       gradientUnits="userSpaceOnUse"
       gradientTransform="matrix(0.88832663,0,0,0.04919072,31.959518,-90.31726)"
       cx="13.948145"
       cy="44.892841"
       fx="13.948145"
       fy="44.892841"
       r="43.199203" />
    <clipPath
       id="clipPath4156-4-1"
       clipPathUnits="userSpaceOnUse">
      <path
         inkscape:connector-curvature="0"
         id="path4158-0-8"
         d="m 27.046336,-55.695463 -14.21366,13.321486 h 0.06127 l 15.653407,21.770763 10.231384,-10.546177 C 38.561832,-32.30156 27.468089,-54.819245 27.046336,-55.695463 Z M 9.6468554,-39.382809 -5.2407289,-25.32124 15.987863,-7.8059573 26.372412,-18.382966 Z m 31.4906096,12.951445 -9.741259,9.713584 8.944804,12.4580526 7.780753,-7.5550056 z m -49.8397109,4.378822 -13.7541661,12.9822847 26.2830181,13.84571 0.06127,-0.0617 -0.122531,-0.0617 L 13.598503,-5.4007374 -8.7022409,-22.052595 Z m 38.0154159,7.400825 -9.802525,9.7752596 11.579232,9.5594001 7.62759,-7.40083 -8.669108,-11.0087257 z m 20.187073,5.6739697 -7.382526,7.2158 6.187844,8.54179 5.820249,-6.13651996 z m -32.195166,6.32154 -9.5574606,9.49772 13.6622686,7.1849703 7.933918,-7.6783603 z m 23.311629,2.37443004 -7.10683,6.93826996 8.362778,6.9074403 5.360756,-5.6739699 -0.06127,-0.0925 -0.0919,0.12335 -6.463539,-8.20258036 z m -8.730374,8.54178036 -7.505057,7.3391599 10.353916,5.45811 c 1.397496,-1.32103 5.67514,-6.12292 5.850882,-6.32154 z"
         style="opacity:0.6;fill:#ffffff;fill-opacity:1;stroke:none" />
    </clipPath>
    <filter
       style="color-interpolation-filters:sRGB"
       id="filter3174-3-9">
      <feGaussianBlur
         stdDeviation="1.71"
         id="feGaussianBlur3176-6-3" />
    </filter>
    <clipPath
       id="clipPath3613-6">
      <rect
         style="fill:#ffffff;fill-opacity:1;fill-rule:nonzero;stroke:none"
         id="rect3615-2"
         y="6"
         x="6"
         ry="6"
         rx="6"
         height="84"
         width="84" />
    </clipPath>
    <filter
       style="color-interpolation-filters:sRGB"
       id="filter3794-6"
       height="1.3839999"
       width="1.3839999"
       y="-0.192"
       x="-0.192">
      <feGaussianBlur
         stdDeviation="5.28"
         id="feGaussianBlur3796-1" />
    </filter>
    <linearGradient
       gradientUnits="userSpaceOnUse"
       xlink:href="#linearGradient4213-7"
       id="linearGradient3188-8"
       y2="63.893143"
       x2="36.357143"
       y1="6"
       x1="36.357143" />
    <linearGradient
       y2="13"
       x2="16"
       y1="13"
       x1="10"
       gradientUnits="userSpaceOnUse"
       id="linearGradient5525-4"
       xlink:href="#linearGradient5531"
       inkscape:collect="always"
       gradientTransform="matrix(0,0.83333333,0.83333333,0,10.532039,-0.77151634)" />
    <linearGradient
       inkscape:collect="always"
       xlink:href="#linearGradient4213-7"
       id="linearGradient1576"
       gradientUnits="userSpaceOnUse"
       x1="36.357143"
       y1="6"
       x2="36.357143"
       y2="63.893143" />
    <linearGradient
       inkscape:collect="always"
       xlink:href="#linearGradient1613"
       id="linearGradient1615"
       x1="41.175346"
       y1="39.961067"
       x2="41.496613"
       y2="-33.834518"
       gradientUnits="userSpaceOnUse" />
    <linearGradient
       inkscape:collect="always"
       xlink:href="#linearGradient1629"
       id="linearGradient1633"
       x1="25.907974"
       y1="10.061817"
       x2="30.910975"
       y2="10.061817"
       gradientUnits="userSpaceOnUse" />
  </defs>
  <sodipodi:namedview
     id="base"
     pagecolor="#ffffff"
     bordercolor="#666666"
     borderopacity="1.0"
     inkscape:pageopacity="0.0"
     inkscape:pageshadow="2"
     inkscape:zoom="2.9425621"
     inkscape:cx="66.889708"
     inkscape:cy="31.726682"
     inkscape:current-layer="g2574"
     showgrid="true"
     inkscape:document-units="px"
     inkscape:grid-bbox="true"
     inkscape:showpageshadow="false"
     gridtolerance="1"
     guidetolerance="1"
     objecttolerance="1"
     inkscape:window-width="1280"
     inkscape:window-height="936"
     inkscape:window-x="0"
     inkscape:window-y="22"
     inkscape:window-maximized="1" />
  <metadata
     id="metadata7">
    <rdf:RDF>
      <cc:Work
         rdf:about="">
        <dc:format>image/svg+xml</dc:format>
        <dc:type
           rdf:resource="http://purl.org/dc/dcmitype/StillImage" />
        <dc:title />
      </cc:Work>
    </rdf:RDF>
  </metadata>
  <g
     id="layer1"
     inkscape:label="Layer 1"
     inkscape:groupmode="layer"
     transform="translate(0,32)">
    <g
       id="g6210"
       transform="translate(0,-32)">
      <g
         transform="translate(0,-1026.5197)"
         id="layer1-12"
         inkscape:label="Livello 1">
        <g
           id="g2574"
           style="display:inline"
           transform="translate(-0.14895645,1026.1047)">
          <path
             style="display:inline;opacity:0.15;fill:#000000;fill-opacity:1;fill-rule:nonzero;stroke:none"
             d="M 89.29181,0.415026 H 7.0060911 c -3.798848,0 -6.8571352,3.058285 -6.8571352,6.8571399 V 89.557884 c 0,3.798857 3.0582872,6.857142 6.8571352,6.857142 H 89.29181 c 3.798857,0 6.857147,-3.058285 6.857147,-6.857142 V 7.2721659 c 0,-3.7988549 -3.05829,-6.8571399 -6.857147,-6.8571399 z"
             id="path3288"
             inkscape:connector-curvature="0" />
          <path
             inkscape:connector-curvature="0"
             id="path4085"
             d="M 88.648954,1.165026 H 7.6489471 c -3.739492,0 -6.749993,3.010499 -6.749993,6.7499969 V 88.915026 c 0,3.739501 3.010501,6.75 6.749993,6.75 H 88.648954 c 3.739503,0 6.750003,-3.010499 6.750003,-6.75 V 7.9150229 c 0,-3.7394979 -3.0105,-6.7499969 -6.750003,-6.7499969 z"
             style="display:inline;opacity:0.15;fill:#000000;fill-opacity:1;fill-rule:nonzero;stroke:none" />
          <path
             style="display:inline;fill:url(#linearGradient4071);fill-opacity:1;fill-rule:nonzero;stroke:none"
             d="M 88.006093,1.915026 H 8.2918111 c -3.680143,0 -6.6428566,2.962713 -6.6428566,6.6428549 V 88.272171 c 0,3.680142 2.9627136,6.642856 6.6428566,6.642856 H 88.006093 c 3.680143,0 6.642854,-2.962714 6.642854,-6.642856 V 8.5578809 c 0,-3.6801419 -2.962711,-6.6428549 -6.642854,-6.6428549 z"
             id="rect4251-1"
             inkscape:connector-curvature="0" />
          <path
             inkscape:connector-curvature="0"
             id="path4989"
             d="m 9.9740341,5.1444869 c -3.116621,0 -5.667965,2.53951 -5.667965,5.6460041 v 69.277996 c 0,3.106495 2.551344,5.646004 5.667965,5.646004 H 86.765819 c 3.116621,0 5.667968,-2.539509 5.667968,-5.646004 V 10.790491 c 0,-3.1064931 -2.551347,-5.6460041 -5.667968,-5.6460041 z m 0,2.319439 H 86.765819 c 1.888099,0 3.352022,1.480095 3.352022,3.3265651 v 69.277996 c 0,1.846474 -1.463923,3.326564 -3.352022,3.326564 H 9.9740341 c -1.888099,0 -3.352022,-1.48009 -3.352022,-3.326564 V 10.790491 c 0,-1.8464701 1.463923,-3.3265651 3.352022,-3.3265651 z"
             style="color:#000000;font-style:normal;font-variant:normal;font-weight:normal;font-stretch:normal;font-size:medium;line-height:normal;font-family:Sans;-inkscape-font-specification:Sans;text-indent:0;text-align:start;text-decoration:none;text-decoration-line:none;letter-spacing:normal;word-spacing:normal;text-transform:none;writing-mode:lr-tb;direction:ltr;baseline-shift:baseline;text-anchor:start;display:inline;overflow:visible;visibility:visible;fill:#241f1f;fill-opacity:0.63265303;stroke:none;stroke-width:2.3755002;marker:none;enable-background:accumulate" />
          <path
             inkscape:connector-curvature="0"
             style="display:inline;opacity:0.65818182;fill:url(#linearGradient4129);fill-opacity:1;fill-rule:nonzero;stroke:none"
             d="m 1.6489535,82.258776 v 6 c 0,3.680142 2.9761066,6.65625 6.6562496,6.65625 H 87.992703 c 3.680143,0 6.656254,-2.976108 6.656254,-6.65625 v -6 c 0,3.680142 -2.976111,6.65625 -6.656254,6.65625 H 8.3052031 c -3.680143,0 -6.6562496,-2.976108 -6.6562496,-6.65625 z"
             id="path4118" />
          <rect
             style="opacity:0.55;fill:url(#radialGradient7462);fill-opacity:1;stroke:none"
             id="rect4131"
             width="84.250008"
             height="4.25"
             x="5.5239539"
             y="80.665031"
             rx="0"
             ry="4.25" />
          <rect
             ry="4.25"
             rx="0"
             y="-90.233963"
             x="5.9750223"
             height="4.25"
             width="76.75"
             id="rect4141"
             style="opacity:0.669;fill:url(#radialGradient7464);fill-opacity:1;stroke:none"
             transform="rotate(90)" />
          <g
             transform="matrix(0.95544533,0,0,0.95544533,128.79212,44.663283)"
             id="g1085">
            <g
               transform="matrix(1.1071429,0,0,1.0941176,-5.1428592,-5.0647036)"
               id="g4320">
              <g
                 id="layer2"
                 style="display:none">
                <rect
                   width="86"
                   height="85"
                   rx="6"
                   ry="6"
                   x="5"
                   y="7"
                   id="rect3745"
                   style="opacity:0.9;fill:url(#ButtonShadow);fill-opacity:1;fill-rule:nonzero;stroke:none;filter:url(#filter3174-3-9)" />
              </g>
              <g
                 id="layer5"
                 style="display:none">
                <rect
                   width="66"
                   height="66"
                   rx="12"
                   ry="12"
                   x="15"
                   y="15"
                   clip-path="url(#clipPath3613-6)"
                   id="rect3171"
                   style="opacity:0.1;fill:url(#linearGradient3613);fill-opacity:1;fill-rule:nonzero;stroke:#ffffff;stroke-width:0.5;stroke-linecap:round;stroke-linejoin:miter;stroke-miterlimit:4;stroke-dasharray:none;stroke-dashoffset:0;stroke-opacity:1;filter:url(#filter3794-6)" />
              </g>
              <g
                 transform="translate(-115.41401,2.7954573)"
                 id="layer1-1">
                <g
                   id="g5539">
                  <g
                     id="g1606">
                    <path
                       style="opacity:1;fill:url(#linearGradient1615);fill-opacity:1;fill-rule:nonzero;stroke:none;stroke-width:0.96699321;stroke-linecap:square;stroke-linejoin:round;stroke-miterlimit:4;stroke-dasharray:none;stroke-opacity:1;paint-order:fill markers stroke"
                       d="M 8.9817815,-34.159607 H 78.509165 c 5.558717,0 5.394565,0.142104 5.394565,5.420939 v 63.278797 c 0,3.0032 -2.405976,5.420938 -5.394565,5.420938 H 8.9817815 c -2.9885888,0 -5.3945646,-2.417738 -5.3945646,-5.420938 v -63.278797 c 0,-3.0032 2.4059758,-5.420939 5.3945646,-5.420939 z"
                       id="rect1584"
                       inkscape:connector-curvature="0"
                       sodipodi:nodetypes="sssssssss" />
                  </g>
                  <g
                     transform="translate(58)"
                     id="g5508" />
                  <g
                     id="g4375"
                     transform="matrix(1.3029191,0,0,1.3029191,40.476365,-39.75852)">
                    <g
                       id="g1603">
                      <path
                         inkscape:connector-curvature="0"
                         d="m 14.321268,7.5618169 a 2.5000005,2.5000005 0 1 1 0,5.0000011 2.5000006,2.5000006 0 1 1 0,-5.0000011 z"
                         id="path3889"
                         style="color:#000000;display:inline;overflow:visible;visibility:visible;fill:url(#linearGradient3924);fill-opacity:1;fill-rule:nonzero;stroke:none;stroke-width:0.83333331;marker:none;enable-background:accumulate" />
                      <path
                         inkscape:connector-curvature="0"
                         d="m 21.365372,12.561818 a 2.5000007,2.5000007 0 1 0 0,-5.0000013 2.5000007,2.5000007 0 1 0 0,5.0000013 z"
                         id="path3963"
                         style="color:#000000;display:inline;overflow:visible;visibility:visible;fill:url(#linearGradient5525-4);fill-opacity:1;fill-rule:nonzero;stroke:none;stroke-width:0.83333331;marker:none;enable-background:accumulate" />
                      <path
                         inkscape:connector-curvature="0"
                         d="m 28.409475,12.561817 a 2.5000002,2.5000002 0 1 0 0,-4.9999995 2.5000002,2.5000002 0 1 0 0,4.9999995 z"
                         id="path3973"
                         style="color:#000000;display:inline;overflow:visible;visibility:visible;fill:url(#linearGradient1633);fill-opacity:1;fill-rule:nonzero;stroke:none;stroke-width:0.83333331;marker:none;enable-background:accumulate" />
                    </g>
                  </g>
                </g>
              </g>
            </g>
            <g
               transform="matrix(2.3840714,0,0,1.2521495,-148.39261,-57.382102)"
               id="g4549">
              <rect
                 style="opacity:0.47272728;fill:#578ca1;fill-opacity:0.38775509;stroke:#505050;stroke-width:0.41802362;stroke-linecap:round;stroke-linejoin:round;stroke-miterlimit:4;stroke-dasharray:none;stroke-dashoffset:0;stroke-opacity:1"
                 id="rect4541"
                 width="11.130977"
                 height="46.664158"
                 x="12.186012"
                 y="30.763029" />
              <rect
                 style="opacity:0.56363639;fill:#693967;fill-opacity:0.54285715;stroke:#505050;stroke-width:0.40000001;stroke-linecap:round;stroke-linejoin:round;stroke-miterlimit:4;stroke-dasharray:none;stroke-dashoffset:0;stroke-opacity:1"
                 id="rect4543"
                 width="8.1561575"
                 height="8.4959974"
                 x="13.573"
                 y="34.828819" />
              <rect
                 y="48.828819"
                 x="13.573"
                 height="8.4959974"
                 width="8.1561575"
                 id="rect4545"
                 style="opacity:0.56363639;fill:#3e6939;fill-opacity:0.76326533;stroke:#505050;stroke-width:0.40000001;stroke-linecap:round;stroke-linejoin:round;stroke-miterlimit:4;stroke-dasharray:none;stroke-dashoffset:0;stroke-opacity:1" />
              <rect
                 style="opacity:0.56363639;fill:#395c69;fill-opacity:0.75102042;stroke:#505050;stroke-width:0.40000001;stroke-linecap:round;stroke-linejoin:round;stroke-miterlimit:4;stroke-dasharray:none;stroke-dashoffset:0;stroke-opacity:1"
                 id="rect4547"
                 width="8.1561575"
                 height="8.4959974"
                 x="13.573"
                 y="62.828819" />
            </g>
            <g
               id="g1046"
               transform="matrix(1.6327613,0,0,0.85755032,-109.93661,-43.149771)">
              <rect
                 y="30.763029"
                 x="12.186012"
                 height="46.664158"
                 width="11.130977"
                 id="rect1038"
                 style="opacity:0.47272728;fill:#578ca1;fill-opacity:0.38775509;stroke:#505050;stroke-width:0.41802362;stroke-linecap:round;stroke-linejoin:round;stroke-miterlimit:4;stroke-dasharray:none;stroke-dashoffset:0;stroke-opacity:1" />
              <rect
                 y="34.828819"
                 x="13.573"
                 height="8.4959974"
                 width="8.1561575"
                 id="rect1040"
                 style="opacity:0.56363639;fill:#693967;fill-opacity:0.54285715;stroke:#505050;stroke-width:0.40000001;stroke-linecap:round;stroke-linejoin:round;stroke-miterlimit:4;stroke-dasharray:none;stroke-dashoffset:0;stroke-opacity:1" />
              <rect
                 style="opacity:0.56363639;fill:#3e6939;fill-opacity:0.76326533;stroke:#505050;stroke-width:0.40000001;stroke-linecap:round;stroke-linejoin:round;stroke-miterlimit:4;stroke-dasharray:none;stroke-dashoffset:0;stroke-opacity:1"
                 id="rect1042"
                 width="8.1561575"
                 height="8.4959974"
                 x="13.573"
                 y="48.828819" />
              <rect
                 y="62.828819"
                 x="13.573"
                 height="8.4959974"
                 width="8.1561575"
                 id="rect1044"
                 style="opacity:0.56363639;fill:#395c69;fill-opacity:0.75102042;stroke:#505050;stroke-width:0.40000001;stroke-linecap:round;stroke-linejoin:round;stroke-miterlimit:4;stroke-dasharray:none;stroke-dashoffset:0;stroke-opacity:1" />
            </g>
          </g>
          <g
             aria-label="openbox"
             style="font-style:normal;font-weight:normal;font-size:6.94978237px;line-height:1.25;font-family:sans-serif;letter-spacing:0px;word-spacing:0px;display:inline;fill:#88d4ff;fill-opacity:1;stroke:none;stroke-width:0.17374456"
             id="text1050"
             transform="matrix(0.95544533,0,0,0.95544533,187.70263,-72.591126)">
            <path
               d="m -186.78654,87.586876 q -0.50223,0 -0.79407,0.39364 -0.29183,0.390247 -0.29183,1.07233 0,0.682083 0.28844,1.075723 0.29184,0.390246 0.79746,0.390246 0.49884,0 0.79068,-0.39364 0.29183,-0.39364 0.29183,-1.072329 0,-0.675297 -0.29183,-1.068937 -0.29184,-0.397033 -0.79068,-0.397033 z m 0,-0.529378 q 0.81443,0 1.27933,0.529378 0.4649,0.529378 0.4649,1.46597 0,0.933198 -0.4649,1.465969 -0.4649,0.529378 -1.27933,0.529378 -0.81782,0 -1.28272,-0.529378 -0.46151,-0.532771 -0.46151,-1.465969 0,-0.936592 0.46151,-1.46597 0.4649,-0.529378 1.28272,-0.529378 z"
               style="fill:#88d4ff;fill-opacity:1;stroke-width:0.17374456"
               id="path1052"
               inkscape:connector-curvature="0" />
            <path
               d="m -183.40666,90.379684 v 2.015708 h -0.62779 v -5.246271 h 0.62779 v 0.576886 q 0.19682,-0.339345 0.49544,-0.50223 0.30202,-0.166279 0.71941,-0.166279 0.69226,0 1.12323,0.549739 0.43436,0.549738 0.43436,1.445609 0,0.89587 -0.43436,1.445609 -0.43097,0.549738 -1.12323,0.549738 -0.41739,0 -0.71941,-0.162885 -0.29862,-0.166279 -0.49544,-0.505624 z m 2.1243,-1.326838 q 0,-0.68887 -0.28505,-1.079117 -0.28166,-0.39364 -0.7771,-0.39364 -0.49545,0 -0.7805,0.39364 -0.28165,0.390247 -0.28165,1.079117 0,0.68887 0.28165,1.08251 0.28505,0.390246 0.7805,0.390246 0.49544,0 0.7771,-0.390246 0.28505,-0.39364 0.28505,-1.08251 z"
               style="fill:#88d4ff;fill-opacity:1;stroke-width:0.17374456"
               id="path1054"
               inkscape:connector-curvature="0" />
            <path
               d="m -176.34829,88.893354 v 0.30541 h -2.87086 q 0.0407,0.644755 0.38685,0.9841 0.34953,0.335951 0.97053,0.335951 0.35971,0 0.69566,-0.08823 0.33934,-0.08823 0.6719,-0.264689 v 0.59046 q -0.33595,0.142525 -0.68887,0.21718 -0.35292,0.07466 -0.71602,0.07466 -0.90944,0 -1.44221,-0.529378 -0.52938,-0.529378 -0.52938,-1.432035 0,-0.933198 0.50223,-1.479543 0.50562,-0.549739 1.36077,-0.549739 0.76692,0 1.21146,0.495443 0.44794,0.49205 0.44794,1.340413 z m -0.6244,-0.183247 q -0.007,-0.51241 -0.28844,-0.817821 -0.27826,-0.30541 -0.73977,-0.30541 -0.52259,0 -0.83818,0.29523 -0.3122,0.29523 -0.35971,0.831395 z"
               style="fill:#88d4ff;fill-opacity:1;stroke-width:0.17374456"
               id="path1056"
               inkscape:connector-curvature="0" />
            <path
               d="m -172.17774,88.655812 v 2.293971 h -0.6244 v -2.27361 q 0,-0.539558 -0.21039,-0.807641 -0.21039,-0.268082 -0.63118,-0.268082 -0.50563,0 -0.79746,0.322377 -0.29184,0.322378 -0.29184,0.878903 v 2.148053 h -0.62779 v -3.800662 h 0.62779 v 0.59046 q 0.22397,-0.342738 0.52599,-0.512411 0.30541,-0.169672 0.70244,-0.169672 0.65493,0 0.99089,0.407214 0.33595,0.40382 0.33595,1.1911 z"
               style="fill:#88d4ff;fill-opacity:1;stroke-width:0.17374456"
               id="path1058"
               inkscape:connector-curvature="0" />
            <path
               d="m -168.19723,89.052846 q 0,-0.68887 -0.28505,-1.079117 -0.28165,-0.39364 -0.7771,-0.39364 -0.49544,0 -0.78049,0.39364 -0.28166,0.390247 -0.28166,1.079117 0,0.68887 0.28166,1.08251 0.28505,0.390246 0.78049,0.390246 0.49545,0 0.7771,-0.390246 0.28505,-0.39364 0.28505,-1.08251 z m -2.1243,-1.326839 q 0.19682,-0.339345 0.49545,-0.50223 0.30201,-0.166279 0.71941,-0.166279 0.69226,0 1.12323,0.549739 0.43436,0.549738 0.43436,1.445609 0,0.89587 -0.43436,1.445609 -0.43097,0.549738 -1.12323,0.549738 -0.4174,0 -0.71941,-0.162885 -0.29863,-0.166279 -0.49545,-0.505624 v 0.570099 h -0.62778 v -5.280205 h 0.62778 z"
               style="fill:#88d4ff;fill-opacity:1;stroke-width:0.17374456"
               id="path1060"
               inkscape:connector-curvature="0" />
            <path
               d="m -165.04132,87.586876 q -0.50223,0 -0.79407,0.39364 -0.29184,0.390247 -0.29184,1.07233 0,0.682083 0.28845,1.075723 0.29183,0.390246 0.79746,0.390246 0.49884,0 0.79067,-0.39364 0.29184,-0.39364 0.29184,-1.072329 0,-0.675297 -0.29184,-1.068937 -0.29183,-0.397033 -0.79067,-0.397033 z m 0,-0.529378 q 0.81443,0 1.27933,0.529378 0.4649,0.529378 0.4649,1.46597 0,0.933198 -0.4649,1.465969 -0.4649,0.529378 -1.27933,0.529378 -0.81782,0 -1.28273,-0.529378 -0.4615,-0.532771 -0.4615,-1.465969 0,-0.936592 0.4615,-1.46597 0.46491,-0.529378 1.28273,-0.529378 z"
               style="fill:#88d4ff;fill-opacity:1;stroke-width:0.17374456"
               id="path1062"
               inkscape:connector-curvature="0" />
            <path
               d="m -159.32336,87.149121 -1.37435,1.849429 1.44561,1.951233 h -0.73638 l -1.10626,-1.493117 -1.10626,1.493117 h -0.73638 l 1.47615,-1.98856 -1.3506,-1.812102 h 0.73638 l 1.00786,1.353986 1.00785,-1.353986 z"
               style="fill:#88d4ff;fill-opacity:1;stroke-width:0.17374456"
               id="path1064"
               inkscape:connector-curvature="0" />
          </g>
          <rect
             transform="matrix(1.0692451,0,0,1.0476829,3.3584108,38.590027)"
             style="opacity:0.5078125;fill:url(#linearGradient6291);fill-opacity:1;stroke:none"
             id="rect4146"
             width="75.965775"
             height="69.024437"
             x="2"
             y="-30"
             rx="3.9569874"
             ry="3.9569881"
             clip-path="url(#clipPath4156-4-1)" />
        </g>
      </g>
    </g>
  </g>
</svg>
