<?xml version="1.0" encoding="UTF-8" standalone="no"?>
<!-- Created with Inkscape (http://www.inkscape.org/) -->

<svg
   width="96"
   height="96"
   id="svg2"
   version="1.1"
   inkscape:version="1.1 (c4e8f9ed74, 2021-05-24)"
   sodipodi:docname="org.xfce.notification.svg"
   xmlns:inkscape="http://www.inkscape.org/namespaces/inkscape"
   xmlns:sodipodi="http://sodipodi.sourceforge.net/DTD/sodipodi-0.dtd"
   xmlns:xlink="http://www.w3.org/1999/xlink"
   xmlns="http://www.w3.org/2000/svg"
   xmlns:svg="http://www.w3.org/2000/svg"
   xmlns:rdf="http://www.w3.org/1999/02/22-rdf-syntax-ns#"
   xmlns:cc="http://creativecommons.org/ns#"
   xmlns:dc="http://purl.org/dc/elements/1.1/">
  <defs
     id="defs4">
    <linearGradient
       id="linearGradient3795">
      <stop
         style="stop-color:#e28c05;stop-opacity:1;"
         offset="0"
         id="stop3797" />
      <stop
         style="stop-color:#e2bc05;stop-opacity:1;"
         offset="1"
         id="stop3799" />
    </linearGradient>
    <linearGradient
       inkscape:collect="always"
       xlink:href="#linearGradient3795"
       id="linearGradient3801"
       x1="45"
       y1="1047.3622"
       x2="45"
       y2="957.36218"
       gradientUnits="userSpaceOnUse" />
    <radialGradient
       inkscape:collect="always"
       xlink:href="#linearGradient4133-5"
       id="radialGradient4992"
       gradientUnits="userSpaceOnUse"
       gradientTransform="matrix(1.0401428,0,0,0.0524701,34.917007,84.068715)"
       cx="13.948145"
       cy="44.892841"
       fx="13.948145"
       fy="44.892841"
       r="43.199203" />
    <radialGradient
       inkscape:collect="always"
       xlink:href="#linearGradient4133-5"
       id="radialGradient3831-7"
       gradientUnits="userSpaceOnUse"
       gradientTransform="matrix(0.97513378,0,0,0.04919072,-4.148257,101.31932)"
       cx="13.948145"
       cy="44.892841"
       fx="13.948145"
       fy="44.892841"
       r="43.199203" />
    <linearGradient
       id="linearGradient4133-5"
       inkscape:collect="always">
      <stop
         id="stop4135-4"
         offset="0"
         style="stop-color:#ffffff;stop-opacity:1;" />
      <stop
         id="stop4137-5"
         offset="1"
         style="stop-color:#ffffff;stop-opacity:0;" />
    </linearGradient>
    <radialGradient
       inkscape:collect="always"
       xlink:href="#linearGradient4133-5"
       id="radialGradient3833-1"
       gradientUnits="userSpaceOnUse"
       gradientTransform="matrix(0.94754841,0,0,0.0524701,31.341027,-95.610902)"
       cx="13.948145"
       cy="44.892841"
       fx="13.948145"
       fy="44.892841"
       r="43.199203" />
    <linearGradient
       y2="14.514202"
       x2="50.527882"
       y1="-28.64156"
       x1="2.7713892"
       gradientUnits="userSpaceOnUse"
       id="linearGradient4967"
       xlink:href="#linearGradient4213-7-8"
       inkscape:collect="always" />
    <clipPath
       id="clipPath4156-4-6"
       clipPathUnits="userSpaceOnUse">
      <path
         inkscape:connector-curvature="0"
         id="path4158-0-3"
         d="m 27.046336,-55.695463 -14.21366,13.321486 h 0.06127 l 15.653407,21.770763 10.231384,-10.546177 C 38.561832,-32.30156 27.468089,-54.819245 27.046336,-55.695463 Z M 9.6468554,-39.382809 -5.2407289,-25.32124 15.987863,-7.8059573 26.372412,-18.382966 Z m 31.4906096,12.951445 -9.741259,9.713584 8.944804,12.4580526 7.780753,-7.5550056 z m -49.8397109,4.378822 -13.7541661,12.9822847 26.2830181,13.84571 0.06127,-0.0617 -0.122531,-0.0617 L 13.598503,-5.4007374 -8.7022409,-22.052595 Z m 38.0154159,7.400825 -9.802525,9.7752596 11.579232,9.5594001 7.62759,-7.40083 -8.669108,-11.0087257 z m 20.187073,5.6739697 -7.382526,7.2158 6.187844,8.54179 5.820249,-6.13651996 z m -32.195166,6.32154 -9.5574606,9.49772 13.6622686,7.1849703 7.933918,-7.6783603 z m 23.311629,2.37443004 -7.10683,6.93826996 8.362778,6.9074403 5.360756,-5.6739699 -0.06127,-0.0925 -0.0919,0.12335 -6.463539,-8.20258036 z m -8.730374,8.54178036 -7.505057,7.3391599 10.353916,5.45811 c 1.397496,-1.32103 5.67514,-6.12292 5.850882,-6.32154 z"
         style="opacity:0.6;fill:#ffffff;fill-opacity:1;stroke:none" />
    </clipPath>
    <linearGradient
       id="linearGradient4213-7-8"
       inkscape:collect="always">
      <stop
         id="stop4215-6-5"
         offset="0"
         style="stop-color:#ffffff;stop-opacity:1;" />
      <stop
         id="stop4217-5-2"
         offset="1"
         style="stop-color:#ffffff;stop-opacity:0;" />
    </linearGradient>
    <linearGradient
       inkscape:collect="always"
       xlink:href="#linearGradient4213-7-8"
       id="linearGradient3837-7"
       gradientUnits="userSpaceOnUse"
       x1="2.7713892"
       y1="-28.64156"
       x2="50.527882"
       y2="14.514202" />
    <clipPath
       id="clipPath4156-4"
       clipPathUnits="userSpaceOnUse">
      <path
         inkscape:connector-curvature="0"
         id="path4158-0"
         d="m 27.046336,-55.695463 -14.21366,13.321486 h 0.06127 l 15.653407,21.770763 10.231384,-10.546177 C 38.561832,-32.30156 27.468089,-54.819245 27.046336,-55.695463 Z M 9.6468554,-39.382809 -5.2407289,-25.32124 15.987863,-7.8059573 26.372412,-18.382966 Z m 31.4906096,12.951445 -9.741259,9.713584 8.944804,12.4580526 7.780753,-7.5550056 z m -49.8397109,4.378822 -13.7541661,12.9822847 26.2830181,13.84571 0.06127,-0.0617 -0.122531,-0.0617 L 13.598503,-5.4007374 -8.7022409,-22.052595 Z m 38.0154159,7.400825 -9.802525,9.7752596 11.579232,9.5594001 7.62759,-7.40083 -8.669108,-11.0087257 z m 20.187073,5.6739697 -7.382526,7.2158 6.187844,8.54179 5.820249,-6.13651996 z m -32.195166,6.32154 -9.5574606,9.49772 13.6622686,7.1849703 7.933918,-7.6783603 z m 23.311629,2.37443004 -7.10683,6.93826996 8.362778,6.9074403 5.360756,-5.6739699 -0.06127,-0.0925 -0.0919,0.12335 -6.463539,-8.20258036 z m -8.730374,8.54178036 -7.505057,7.3391599 10.353916,5.45811 c 1.397496,-1.32103 5.67514,-6.12292 5.850882,-6.32154 z"
         style="opacity:0.6;fill:#ffffff;fill-opacity:1;stroke:none" />
    </clipPath>
    <linearGradient
       id="linearGradient4213-7"
       inkscape:collect="always">
      <stop
         id="stop4215-6"
         offset="0"
         style="stop-color:#ffffff;stop-opacity:1;" />
      <stop
         id="stop4217-5"
         offset="1"
         style="stop-color:#ffffff;stop-opacity:0;" />
    </linearGradient>
    <linearGradient
       inkscape:collect="always"
       xlink:href="#linearGradient4213-7"
       id="linearGradient3837"
       gradientUnits="userSpaceOnUse"
       x1="2.7713892"
       y1="-28.64156"
       x2="50.527882"
       y2="14.514202" />
    <filter
       id="filter3174-3"
       style="color-interpolation-filters:sRGB"
       x="-0.047720931"
       y="-0.048282354"
       width="1.0954419"
       height="1.0965647">
      <feGaussianBlur
         stdDeviation="1.71"
         id="feGaussianBlur3176-6" />
    </filter>
    <linearGradient
       gradientTransform="scale(1.0058652,0.994169)"
       gradientUnits="userSpaceOnUse"
       id="ButtonShadow-1"
       y2="7.0165396"
       x2="45.447727"
       y1="92.539597"
       x1="45.447727">
      <stop
         offset="0"
         style="stop-color:#000000;stop-opacity:1"
         id="stop3750-9" />
      <stop
         offset="1"
         style="stop-color:#000000;stop-opacity:0.58823532"
         id="stop3752-9" />
    </linearGradient>
    <linearGradient
       inkscape:collect="always"
       xlink:href="#ButtonShadow-1"
       id="linearGradient3835"
       gradientUnits="userSpaceOnUse"
       gradientTransform="scale(1.0058652,0.994169)"
       x1="45.447727"
       y1="92.539597"
       x2="45.447727"
       y2="7.0165396" />
    <radialGradient
       inkscape:collect="always"
       xlink:href="#linearGradient4133"
       id="radialGradient3833"
       gradientUnits="userSpaceOnUse"
       gradientTransform="matrix(0.88832663,0,0,0.04919072,51.887113,-52.752262)"
       cx="13.948145"
       cy="44.892841"
       fx="13.948145"
       fy="44.892841"
       r="43.199203" />
    <linearGradient
       id="linearGradient4133"
       inkscape:collect="always">
      <stop
         id="stop4135"
         offset="0"
         style="stop-color:#ffffff;stop-opacity:1;" />
      <stop
         id="stop4137"
         offset="1"
         style="stop-color:#ffffff;stop-opacity:0;" />
    </linearGradient>
    <radialGradient
       inkscape:collect="always"
       xlink:href="#linearGradient4133"
       id="radialGradient3831"
       gradientUnits="userSpaceOnUse"
       gradientTransform="matrix(0.97513378,0,0,0.04919072,-4.148257,101.31932)"
       cx="13.948145"
       cy="44.892841"
       fx="13.948145"
       fy="44.892841"
       r="43.199203" />
    <linearGradient
       id="linearGradient3832-0-6-1-1">
      <stop
         id="stop3834-6-3-7-1"
         offset="0"
         style="stop-color:#000000;stop-opacity:1;" />
      <stop
         style="stop-color:#000000;stop-opacity:0.58823532;"
         offset="0.1"
         id="stop3872-2-4" />
      <stop
         id="stop3844-6-2-7-6"
         offset="0.89999998"
         style="stop-color:#000000;stop-opacity:0.58823532;" />
      <stop
         id="stop3836-5-0-2-9"
         offset="1"
         style="stop-color:#000000;stop-opacity:1;" />
    </linearGradient>
    <linearGradient
       inkscape:collect="always"
       xlink:href="#linearGradient3832-0-6-1-1"
       id="linearGradient3829"
       gradientUnits="userSpaceOnUse"
       gradientTransform="matrix(1.0666667,0,0,1.0666667,8.5802202,-15.643265)"
       x1="1.5"
       y1="88.171875"
       x2="94.5"
       y2="88.171875" />
    <linearGradient
       id="linearGradient4091-0-3-0-7">
      <stop
         id="stop4093-3-6-4-2"
         offset="0"
         style="stop-color:#ffffff;stop-opacity:1;" />
      <stop
         style="stop-color:#ffffff;stop-opacity:1;"
         offset="0.80000001"
         id="stop4099-6-1-8-3" />
      <stop
         id="stop4095-1-0-7-9"
         offset="1"
         style="stop-color:#ffffff;stop-opacity:0;" />
    </linearGradient>
    <radialGradient
       inkscape:collect="always"
       xlink:href="#linearGradient4091-0-3-0-7"
       id="radialGradient3827"
       gradientUnits="userSpaceOnUse"
       gradientTransform="matrix(-1.1436508,0,0,-0.93335492,212.76191,-20.400582)"
       cx="48"
       cy="-27"
       fx="48"
       fy="-27"
       r="42" />
    <linearGradient
       id="linearGradient6139-0">
      <stop
         style="stop-color:#adbbc1;stop-opacity:1"
         offset="0"
         id="stop6141-2" />
      <stop
         id="stop6151-0"
         offset="0.25"
         style="stop-color:#f9fafa;stop-opacity:1" />
      <stop
         id="stop6147-1"
         offset="0.5"
         style="stop-color:#90a1aa;stop-opacity:1" />
      <stop
         style="stop-color:#f9fafb;stop-opacity:1"
         offset="0.75"
         id="stop6149-4" />
      <stop
         style="stop-color:#adbac1;stop-opacity:1"
         offset="1"
         id="stop6143-4" />
    </linearGradient>
    <linearGradient
       inkscape:collect="always"
       xlink:href="#linearGradient6139-0"
       id="linearGradient3825"
       gradientUnits="userSpaceOnUse"
       gradientTransform="matrix(1.1809523,0,0,1.1809521,3.094507,-19.948026)"
       x1="6"
       y1="47.000011"
       x2="90"
       y2="47.000011" />
    <linearGradient
       id="linearGradient5029">
      <stop
         id="stop5031"
         offset="0"
         style="stop-color:#0a9aff;stop-opacity:1;" />
      <stop
         id="stop5033"
         offset="1"
         style="stop-color:#0070c0;stop-opacity:1;" />
    </linearGradient>
    <linearGradient
       id="linearGradient5039">
      <stop
         style="stop-color:#ff0a0a;stop-opacity:1;"
         offset="0"
         id="stop5041" />
      <stop
         style="stop-color:#c00000;stop-opacity:1;"
         offset="1"
         id="stop5043" />
    </linearGradient>
    <linearGradient
       id="linearGradient5045">
      <stop
         id="stop5047"
         offset="0"
         style="stop-color:#2fff0a;stop-opacity:1;" />
      <stop
         id="stop5049"
         offset="1"
         style="stop-color:#16b50b;stop-opacity:1;" />
    </linearGradient>
    <linearGradient
       id="linearGradient5051">
      <stop
         style="stop-color:#c60aff;stop-opacity:1;"
         offset="0"
         id="stop5053" />
      <stop
         style="stop-color:#9b0bb5;stop-opacity:1;"
         offset="1"
         id="stop5055" />
    </linearGradient>
    <linearGradient
       id="linearGradient5057">
      <stop
         id="stop5059"
         offset="0"
         style="stop-color:#ff830a;stop-opacity:1;" />
      <stop
         id="stop5061"
         offset="1"
         style="stop-color:#b55f0b;stop-opacity:1;" />
    </linearGradient>
    <linearGradient
       id="linearGradient5063">
      <stop
         style="stop-color:#6b9ab0;stop-opacity:1;"
         offset="0"
         id="stop5065" />
      <stop
         style="stop-color:#466b7a;stop-opacity:1;"
         offset="1"
         id="stop5067" />
    </linearGradient>
    <linearGradient
       inkscape:collect="always"
       xlink:href="#linearGradient6139-0"
       id="linearGradient1046"
       gradientUnits="userSpaceOnUse"
       gradientTransform="matrix(1.1809523,0,0,1.1809521,3.094507,-19.948026)"
       x1="6"
       y1="47.000011"
       x2="90"
       y2="47.000011" />
    <radialGradient
       inkscape:collect="always"
       xlink:href="#linearGradient4133-5"
       id="radialGradient1048"
       gradientUnits="userSpaceOnUse"
       gradientTransform="matrix(1.0401428,0,0,0.0524701,34.917007,84.068715)"
       cx="13.948145"
       cy="44.892841"
       fx="13.948145"
       fy="44.892841"
       r="43.199203" />
    <linearGradient
       id="linearGradient1020"
       inkscape:swatch="gradient">
      <stop
         style="stop-color:#ffffff;stop-opacity:1;"
         offset="0"
         id="stop1016" />
      <stop
         style="stop-color:#ffffff;stop-opacity:0.09411765"
         offset="1"
         id="stop1018" />
    </linearGradient>
    <clipPath
       clipPathUnits="userSpaceOnUse"
       id="clipPath1058">
      <path
         style="fill:#dcb102;stroke:none;stroke-width:0.1;stroke-linecap:butt;stroke-linejoin:miter;stroke-miterlimit:4;stroke-dasharray:none;stroke-opacity:1"
         d="m 60,100 14,4 v -4 z"
         id="path1060"
         inkscape:connector-curvature="0" />
    </clipPath>
    <clipPath
       clipPathUnits="userSpaceOnUse"
       id="clipPath1058-0">
      <path
         style="fill:#dcb102;stroke:none;stroke-width:0.1;stroke-linecap:butt;stroke-linejoin:miter;stroke-miterlimit:4;stroke-dasharray:none;stroke-opacity:1"
         d="m 60,100 14,4 v -4 z"
         id="path1060-9"
         inkscape:connector-curvature="0" />
    </clipPath>
    <clipPath
       clipPathUnits="userSpaceOnUse"
       id="clipPath1114">
      <rect
         style="opacity:0.40400002;fill:#fcf4c0;fill-opacity:1;stroke:none;stroke-width:0.1;stroke-linecap:butt;stroke-miterlimit:4;stroke-dasharray:none;stroke-opacity:1"
         id="rect1116"
         width="48"
         height="88"
         x="-4"
         y="-184" />
    </clipPath>
    <clipPath
       clipPathUnits="userSpaceOnUse"
       id="clipPath1141">
      <rect
         style="opacity:1;fill:#ad7702;fill-opacity:1;stroke:none;stroke-width:0.1;stroke-linecap:butt;stroke-miterlimit:4;stroke-dasharray:none;stroke-opacity:1"
         id="rect1143"
         width="48"
         height="8"
         x="-4.000001"
         y="-111.90909" />
    </clipPath>
    <clipPath
       clipPathUnits="userSpaceOnUse"
       id="clipPath1141-1">
      <rect
         style="opacity:1;fill:#ad7702;fill-opacity:1;stroke:none;stroke-width:0.1;stroke-linecap:butt;stroke-miterlimit:4;stroke-dasharray:none;stroke-opacity:1"
         id="rect1143-8"
         width="48"
         height="8"
         x="-4.000001"
         y="-111.90909" />
    </clipPath>
    <clipPath
       clipPathUnits="userSpaceOnUse"
       id="clipPath1114-9">
      <rect
         style="opacity:0.40400002;fill:#fcf4c0;fill-opacity:1;stroke:none;stroke-width:0.1;stroke-linecap:butt;stroke-miterlimit:4;stroke-dasharray:none;stroke-opacity:1"
         id="rect1116-20"
         width="48"
         height="88"
         x="-4"
         y="-184" />
    </clipPath>
    <clipPath
       clipPathUnits="userSpaceOnUse"
       id="clipPath1141-3">
      <rect
         style="opacity:1;fill:#ad7702;fill-opacity:1;stroke:none;stroke-width:0.1;stroke-linecap:butt;stroke-miterlimit:4;stroke-dasharray:none;stroke-opacity:1"
         id="rect1143-7"
         width="48"
         height="8"
         x="-4.000001"
         y="-111.90909" />
    </clipPath>
    <clipPath
       clipPathUnits="userSpaceOnUse"
       id="clipPath958">
      <path
         style="opacity:1;fill:#fbeb83;fill-opacity:1;stroke:none;stroke-width:6.00000048;stroke-linecap:butt;stroke-miterlimit:4;stroke-dasharray:none;stroke-opacity:1"
         id="path960"
         sodipodi:type="arc"
         sodipodi:cx="65.5"
         sodipodi:cy="107"
         sodipodi:rx="9"
         sodipodi:ry="9"
         sodipodi:start="0"
         sodipodi:end="6.2808815"
         sodipodi:open="true"
         d="m 74.5,107 a 9,9 0 0 1 -8.994816,9 9,9 0 0 1 -9.005178,-8.98963 9,9 0 0 1 8.984443,-9.010357 9,9 0 0 1 9.015527,8.979257" />
    </clipPath>
    <clipPath
       clipPathUnits="userSpaceOnUse"
       id="clipPath958-3">
      <path
         style="opacity:1;fill:#fbeb83;fill-opacity:1;stroke:none;stroke-width:6.00000048;stroke-linecap:butt;stroke-miterlimit:4;stroke-dasharray:none;stroke-opacity:1"
         id="path960-6"
         sodipodi:type="arc"
         sodipodi:cx="65.5"
         sodipodi:cy="107"
         sodipodi:rx="9"
         sodipodi:ry="9"
         sodipodi:start="0"
         sodipodi:end="6.2808815"
         sodipodi:open="true"
         d="m 74.5,107 a 9,9 0 0 1 -8.994816,9 9,9 0 0 1 -9.005178,-8.98963 9,9 0 0 1 8.984443,-9.010357 9,9 0 0 1 9.015527,8.979257" />
    </clipPath>
    <clipPath
       clipPathUnits="userSpaceOnUse"
       id="clipPath958-35">
      <path
         style="opacity:1;fill:#fbeb83;fill-opacity:1;stroke:none;stroke-width:6.00000048;stroke-linecap:butt;stroke-miterlimit:4;stroke-dasharray:none;stroke-opacity:1"
         id="path960-62"
         sodipodi:type="arc"
         sodipodi:cx="65.5"
         sodipodi:cy="107"
         sodipodi:rx="9"
         sodipodi:ry="9"
         sodipodi:start="0"
         sodipodi:end="6.2808815"
         sodipodi:open="true"
         d="m 74.5,107 a 9,9 0 0 1 -8.994816,9 9,9 0 0 1 -9.005178,-8.98963 9,9 0 0 1 8.984443,-9.010357 9,9 0 0 1 9.015527,8.979257" />
    </clipPath>
    <clipPath
       clipPathUnits="userSpaceOnUse"
       id="clipPath958-36">
      <path
         style="opacity:1;fill:#fbeb83;fill-opacity:1;stroke:none;stroke-width:6.00000048;stroke-linecap:butt;stroke-miterlimit:4;stroke-dasharray:none;stroke-opacity:1"
         id="path960-7"
         sodipodi:type="arc"
         sodipodi:cx="65.5"
         sodipodi:cy="107"
         sodipodi:rx="9"
         sodipodi:ry="9"
         sodipodi:start="0"
         sodipodi:end="6.2808815"
         sodipodi:open="true"
         d="m 74.5,107 a 9,9 0 0 1 -8.994816,9 9,9 0 0 1 -9.005178,-8.98963 9,9 0 0 1 8.984443,-9.010357 9,9 0 0 1 9.015527,8.979257" />
    </clipPath>
    <clipPath
       clipPathUnits="userSpaceOnUse"
       id="clipPath958-7">
      <path
         style="opacity:1;fill:#fbeb83;fill-opacity:1;stroke:none;stroke-width:6.00000048;stroke-linecap:butt;stroke-miterlimit:4;stroke-dasharray:none;stroke-opacity:1"
         id="path960-0"
         sodipodi:type="arc"
         sodipodi:cx="65.5"
         sodipodi:cy="107"
         sodipodi:rx="9"
         sodipodi:ry="9"
         sodipodi:start="0"
         sodipodi:end="6.2808815"
         sodipodi:open="true"
         d="m 74.5,107 a 9,9 0 0 1 -8.994816,9 9,9 0 0 1 -9.005178,-8.98963 9,9 0 0 1 8.984443,-9.010357 9,9 0 0 1 9.015527,8.979257" />
    </clipPath>
    <clipPath
       clipPathUnits="userSpaceOnUse"
       id="clipPath1114-93">
      <rect
         style="opacity:0.40400002;fill:#fcf4c0;fill-opacity:1;stroke:none;stroke-width:0.1;stroke-linecap:butt;stroke-miterlimit:4;stroke-dasharray:none;stroke-opacity:1"
         id="rect1116-6"
         width="48"
         height="88"
         x="-4"
         y="-184" />
    </clipPath>
    <filter
       inkscape:collect="always"
       style="color-interpolation-filters:sRGB"
       id="filter972"
       x="-0.06669697"
       width="1.1333939"
       y="-0.06669697"
       height="1.1333939">
      <feGaussianBlur
         inkscape:collect="always"
         stdDeviation="0.50022728"
         id="feGaussianBlur974" />
    </filter>
    <filter
       inkscape:collect="always"
       style="color-interpolation-filters:sRGB"
       id="filter976"
       x="-0.012505682"
       width="1.0250114"
       y="-0.013627076"
       height="1.0272542">
      <feGaussianBlur
         inkscape:collect="always"
         stdDeviation="0.50022728"
         id="feGaussianBlur978" />
    </filter>
    <clipPath
       clipPathUnits="userSpaceOnUse"
       id="clipPath958-7-3">
      <path
         style="opacity:1;fill:#fbeb83;fill-opacity:1;stroke:none;stroke-width:6;stroke-linecap:butt;stroke-miterlimit:4;stroke-dasharray:none;stroke-opacity:1"
         id="path960-0-6"
         sodipodi:type="arc"
         sodipodi:cx="65.5"
         sodipodi:cy="107"
         sodipodi:rx="9"
         sodipodi:ry="9"
         sodipodi:start="0"
         sodipodi:end="6.2808815"
         sodipodi:open="true"
         sodipodi:arc-type="arc" />
    </clipPath>
    <filter
       inkscape:collect="always"
       style="color-interpolation-filters:sRGB"
       id="filter968"
       x="-0.06669697"
       width="1.1333939"
       y="-0.06669697"
       height="1.1333939">
      <feGaussianBlur
         inkscape:collect="always"
         stdDeviation="0.50022728"
         id="feGaussianBlur970" />
    </filter>
    <clipPath
       clipPathUnits="userSpaceOnUse"
       id="clipPath1114-7">
      <rect
         style="opacity:0.404;fill:#fcf4c0;fill-opacity:1;stroke:none;stroke-width:0.1;stroke-linecap:butt;stroke-miterlimit:4;stroke-dasharray:none;stroke-opacity:1"
         id="rect1116-5"
         width="48"
         height="88"
         x="-4"
         y="-184" />
    </clipPath>
    <clipPath
       clipPathUnits="userSpaceOnUse"
       id="clipPath958-356">
      <path
         style="opacity:1;fill:#fbeb83;fill-opacity:1;stroke:none;stroke-width:6;stroke-linecap:butt;stroke-miterlimit:4;stroke-dasharray:none;stroke-opacity:1"
         id="path960-2"
         sodipodi:type="arc"
         sodipodi:cx="65.5"
         sodipodi:cy="107"
         sodipodi:rx="9"
         sodipodi:ry="9"
         sodipodi:start="0"
         sodipodi:end="6.2808815"
         sodipodi:open="true"
         sodipodi:arc-type="arc" />
    </clipPath>
    <linearGradient
       inkscape:collect="always"
       xlink:href="#linearGradient882"
       id="linearGradient884"
       x1="61.780254"
       y1="55.959087"
       x2="127.29436"
       y2="55.959087"
       gradientUnits="userSpaceOnUse"
       gradientTransform="translate(-40)" />
    <linearGradient
       inkscape:collect="always"
       id="linearGradient882">
      <stop
         style="stop-color:#f9da02;stop-opacity:1;"
         offset="0"
         id="stop878" />
      <stop
         style="stop-color:#dcb102;stop-opacity:1"
         offset="1"
         id="stop880" />
    </linearGradient>
    <clipPath
       clipPathUnits="userSpaceOnUse"
       id="clipPath1058-0-9">
      <path
         style="fill:#dcb102;stroke:none;stroke-width:0.1;stroke-linecap:butt;stroke-linejoin:miter;stroke-miterlimit:4;stroke-dasharray:none;stroke-opacity:1"
         d="m 60,100 14,4 v -4 z"
         id="path1060-9-1"
         inkscape:connector-curvature="0" />
    </clipPath>
    <clipPath
       clipPathUnits="userSpaceOnUse"
       id="clipPath1141-1-2">
      <rect
         style="opacity:1;fill:#ad7702;fill-opacity:1;stroke:none;stroke-width:0.1;stroke-linecap:butt;stroke-miterlimit:4;stroke-dasharray:none;stroke-opacity:1"
         id="rect1143-8-7"
         width="48"
         height="8"
         x="-4.000001"
         y="-111.90909" />
    </clipPath>
    <clipPath
       clipPathUnits="userSpaceOnUse"
       id="clipPath1141-0">
      <rect
         style="opacity:1;fill:#ad7702;fill-opacity:1;stroke:none;stroke-width:0.1;stroke-linecap:butt;stroke-miterlimit:4;stroke-dasharray:none;stroke-opacity:1"
         id="rect1143-9"
         width="48"
         height="8"
         x="-4.000001"
         y="-111.90909" />
    </clipPath>
    <linearGradient
       inkscape:collect="always"
       xlink:href="#linearGradient907"
       id="linearGradient909"
       x1="-4.000001"
       y1="-107.90909"
       x2="25.600317"
       y2="-107.90909"
       gradientUnits="userSpaceOnUse" />
    <linearGradient
       inkscape:collect="always"
       id="linearGradient907">
      <stop
         style="stop-color:#fbeb83;stop-opacity:1"
         offset="0"
         id="stop903" />
      <stop
         style="stop-color:#ad7702;stop-opacity:1"
         offset="1"
         id="stop905" />
    </linearGradient>
    <clipPath
       clipPathUnits="userSpaceOnUse"
       id="clipPath1141-3-3">
      <rect
         style="opacity:1;fill:#ad7702;fill-opacity:1;stroke:none;stroke-width:0.1;stroke-linecap:butt;stroke-miterlimit:4;stroke-dasharray:none;stroke-opacity:1"
         id="rect1143-7-6"
         width="48"
         height="8"
         x="-4.000001"
         y="-111.90909" />
    </clipPath>
  </defs>
  <sodipodi:namedview
     id="base"
     pagecolor="#ffffff"
     bordercolor="#666666"
     borderopacity="1.0"
     inkscape:pageopacity="0.0"
     inkscape:pageshadow="2"
     inkscape:zoom="4.1763494"
     inkscape:cx="44.057616"
     inkscape:cy="51.360645"
     inkscape:document-units="px"
     inkscape:current-layer="g967"
     showgrid="false"
     inkscape:snap-page="true"
     inkscape:snap-global="false"
     inkscape:snap-center="true"
     inkscape:snap-object-midpoints="false"
     showguides="true"
     inkscape:guide-bbox="true"
     inkscape:snap-bbox="true"
     inkscape:object-paths="true"
     inkscape:object-nodes="true"
     inkscape:window-width="1920"
     inkscape:window-height="1025"
     inkscape:window-x="0"
     inkscape:window-y="27"
     inkscape:window-maximized="1"
     inkscape:snap-midpoints="false"
     inkscape:snap-grids="true"
     inkscape:snap-to-guides="false"
     inkscape:pagecheckerboard="1">
    <inkscape:grid
       type="xygrid"
       id="grid3002"
       empspacing="5"
       visible="true"
       enabled="true"
       snapvisiblegridlinesonly="true"
       originx="0"
       originy="0"
       spacingx="1.0666667"
       spacingy="1.0666667" />
  </sodipodi:namedview>
  <metadata
     id="metadata7">
    <rdf:RDF>
      <cc:Work
         rdf:about="">
        <dc:format>image/svg+xml</dc:format>
        <dc:type
           rdf:resource="http://purl.org/dc/dcmitype/StillImage" />
      </cc:Work>
    </rdf:RDF>
  </metadata>
  <g
     inkscape:label="Layer 1"
     inkscape:groupmode="layer"
     id="layer1"
     transform="translate(0,-1026.5197)">
    <g
       id="g3193"
       transform="translate(0,1020.1197)">
      <g
         style="display:inline"
         inkscape:label="colori"
         id="layer7">
        <g
           id="g3003"
           transform="matrix(1.0962002,0,0,1.0962002,-4.228373,-1117.3343)" />
      </g>
      <g
         inkscape:label="simboli"
         id="layer5" />
      <g
         id="g967"
         transform="matrix(0.93750002,0,0,0.9375,8.9787504e-7,6.4)">
        <g
           id="layer1-6"
           inkscape:label="icona"
           transform="translate(0,34.133333)">
          <g
             style="display:inline"
             transform="translate(-8.5802234,-18.490068)"
             id="g7390">
            <path
               style="display:inline;opacity:0.15;fill:#000000;fill-opacity:1;fill-rule:nonzero;stroke:none;stroke-width:1.06666672"
               d="M 103.66593,-15.643265 H 15.8945 c -4.052104,0 -7.3142773,3.262171 -7.3142773,7.3142825 V 79.44245 c 0,4.052114 3.2621733,7.314285 7.3142773,7.314285 h 87.77143 c 4.05212,0 7.31429,-3.262171 7.31429,-7.314285 V -8.3289825 c 0,-4.0521115 -3.26217,-7.3142825 -7.31429,-7.3142825 z"
               id="path3288"
               inkscape:connector-curvature="0" />
            <path
               inkscape:connector-curvature="0"
               id="path4085"
               d="M 102.98022,-14.843265 H 16.580213 c -3.988791,0 -7.1999922,3.211199 -7.1999922,7.1999966 V 78.756735 c 0,3.988801 3.2112012,7.2 7.1999922,7.2 h 86.400007 c 3.9888,0 7.2,-3.211199 7.2,-7.2 V -7.6432684 c 0,-3.9887976 -3.2112,-7.1999966 -7.2,-7.1999966 z"
               style="display:inline;opacity:0.15;fill:#000000;fill-opacity:1;fill-rule:nonzero;stroke:none;stroke-width:1.06666672" />
            <path
               style="display:inline;fill:url(#linearGradient1046);fill-opacity:1;fill-rule:nonzero;stroke:none;stroke-width:1.06666672"
               d="M 102.2945,-14.043265 H 17.265935 c -3.925486,0 -7.085714,3.160227 -7.085714,7.0857118 V 78.071023 c 0,3.925485 3.160228,7.085713 7.085714,7.085713 H 102.2945 c 3.92549,0 7.08571,-3.160228 7.08571,-7.085713 V -6.9575532 c 0,-3.9254848 -3.16022,-7.0857118 -7.08571,-7.0857118 z"
               id="rect4251-1"
               inkscape:connector-curvature="0" />
            <g
               id="g3272"
               transform="matrix(1.1071428,0,0,1.1071426,-115.0007,-19.357549)">
              <path
                 inkscape:connector-curvature="0"
                 id="path4236-5"
                 d="m 119.46667,4.8 c -3.5456,0 -6.4,2.8543996 -6.4,6.4 v 16 h 1.06666 v -16 c 0,-2.973117 2.36022,-5.3333333 5.33334,-5.3333333 h 76.8 c 2.97312,0 5.33333,2.3602163 5.33333,5.3333333 v 16 h 1.06667 v -16 c 0,-3.5456004 -2.8544,-6.4 -6.4,-6.4 z"
                 style="display:inline;opacity:0.45;fill:url(#radialGradient3827);fill-opacity:1;fill-rule:nonzero;stroke:none;stroke-width:1.06666672" />
            </g>
            <path
               inkscape:connector-curvature="0"
               style="display:inline;opacity:0.89090905;fill:url(#linearGradient3829);fill-opacity:1;fill-rule:nonzero;stroke:none;stroke-width:1.06666672"
               d="m 10.18022,71.656735 v 6.4 c 0,3.925485 3.174514,7.1 7.1,7.1 h 85 c 3.92549,0 7.1,-3.174515 7.1,-7.1 v -6.4 c 0,3.925485 -3.17451,7.1 -7.1,7.1 h -85 c -3.925486,0 -7.1,-3.174515 -7.1,-7.1 z"
               id="path4118" />
            <g
               transform="translate(268.0405,-111.89044)"
               id="g4615">
              <g
                 id="layer2-8"
                 style="display:none">
                <rect
                   transform="scale(1.0666667)"
                   width="86"
                   height="85"
                   rx="6"
                   ry="6"
                   x="5"
                   y="7"
                   id="rect3745-9"
                   style="opacity:0.9;fill:url(#linearGradient3835);fill-opacity:1;fill-rule:nonzero;stroke:none;filter:url(#filter3174-3)" />
              </g>
            </g>
          </g>
        </g>
        <rect
           ry="4.5333333"
           y="7.7225137"
           x="5.9485922"
           height="82.688309"
           width="90.502396"
           id="rect4301"
           style="display:inline;fill:#e6e6e6;fill-opacity:1;stroke:none;stroke-width:1.06667" />
        <g
           style="display:inline;enable-background:new"
           id="g1130"
           transform="matrix(0.65395021,0,0,0.65395021,9.8000611,9.4795805)">
          <path
             style="display:inline;opacity:0.4;fill:#ad7702;fill-opacity:1;stroke:none;stroke-width:6;stroke-linecap:butt;stroke-miterlimit:4;stroke-dasharray:none;stroke-opacity:1;filter:url(#filter972);enable-background:new"
             id="path2024-0"
             sodipodi:type="arc"
             sodipodi:cx="65.5"
             sodipodi:cy="106.99998"
             sodipodi:rx="9"
             sodipodi:ry="9"
             sodipodi:start="0"
             sodipodi:end="6.2808815"
             sodipodi:open="true"
             sodipodi:arc-type="arc"
             d="m 74.5,106.99998 a 9,9 0 0 1 -8.994816,9 9,9 0 0 1 -9.005178,-8.98964 9,9 0 0 1 8.984443,-9.010349 9,9 0 0 1 9.015527,8.979249" />
          <path
             inkscape:connector-curvature="0"
             d="m 64,11.909086 c -17.673119,0 -26.64104,12.013637 -31.999999,32.036364 l -8,40.045456 c -0.86648,4.337403 -3.58176,8.00909 -8,8.00909 v 8.009094 H 112 v -8.009094 c -4.41833,0 -7.13353,-3.671687 -8,-8.00909 L 96,43.94545 C 91.757361,23.922723 81.673121,11.909086 64,11.909086 Z"
             id="path40220-6"
             sodipodi:nodetypes="ccsccccscc"
             style="display:inline;opacity:0.4;fill:#ad7702;fill-opacity:1;stroke:none;stroke-width:8.00454;stroke-linecap:butt;stroke-linejoin:miter;stroke-miterlimit:4;stroke-dasharray:none;stroke-dashoffset:0;stroke-opacity:1;marker:none;paint-order:normal;filter:url(#filter976);enable-background:new" />
          <path
             transform="translate(2.499981,-0.0230415)"
             style="display:inline;opacity:0.4;fill:#ad7702;fill-opacity:1;stroke:none;stroke-width:1.2;stroke-linecap:butt;stroke-miterlimit:4;stroke-dasharray:none;stroke-opacity:1;filter:url(#filter968);enable-background:new"
             id="path2024-3-1"
             sodipodi:type="arc"
             sodipodi:cx="63.000023"
             sodipodi:cy="107.02304"
             sodipodi:rx="9"
             sodipodi:ry="9"
             sodipodi:start="0"
             sodipodi:end="6.2808815"
             sodipodi:open="true"
             clip-path="url(#clipPath958-7-3)"
             sodipodi:arc-type="arc"
             d="m 72.000023,107.02304 a 9,9 0 0 1 -8.994817,9 9,9 0 0 1 -9.005177,-8.98963 9,9 0 0 1 8.984443,-9.010356 9,9 0 0 1 9.015527,8.979256" />
          <g
             transform="translate(0,-170)"
             id="g1063" />
          <rect
             style="opacity:1;fill:#00aade;fill-opacity:1;stroke:none;stroke-width:1;stroke-linecap:butt;stroke-miterlimit:4;stroke-dasharray:none;stroke-opacity:1"
             id="rect1260"
             width="0"
             height="0"
             x="0"
             y="0" />
          <g
             id="g874"
             transform="matrix(1.5,0,0,1.5,-28.101905,43.589436)" />
          <path
             style="opacity:1;fill:#fbeb83;fill-opacity:1;stroke:none;stroke-width:6;stroke-linecap:butt;stroke-miterlimit:4;stroke-dasharray:none;stroke-opacity:1"
             id="path2024"
             sodipodi:type="arc"
             sodipodi:cx="65.5"
             sodipodi:cy="107"
             sodipodi:rx="9"
             sodipodi:ry="9"
             sodipodi:start="0"
             sodipodi:end="6.2808815"
             sodipodi:open="true"
             sodipodi:arc-type="arc"
             d="m 74.5,107 a 9,9 0 0 1 -8.994816,9 9,9 0 0 1 -9.005178,-8.98963 9,9 0 0 1 8.984443,-9.010357 9,9 0 0 1 9.015527,8.979257" />
          <path
             inkscape:connector-curvature="0"
             d="m 44,-184 c -17.673119,0 -26.64104,12.01364 -31.999999,32.03636 l -8.000002,40.04546 c -0.866479,4.3374 -3.58176,8.00909 -8,8.00909 v 8.009091 H 92 v -8.009091 c -4.41833,0 -7.13353,-3.67169 -8,-8.00909 l -8,-40.04546 C 71.757361,-171.98636 61.673121,-184 44,-184 Z"
             id="path40220-0"
             sodipodi:nodetypes="ccsccccscc"
             style="display:inline;opacity:1;fill:#fcf4c0;fill-opacity:1;stroke:none;stroke-width:8.00454;stroke-linecap:butt;stroke-linejoin:miter;stroke-miterlimit:4;stroke-dasharray:none;stroke-dashoffset:0;stroke-opacity:1;marker:none;paint-order:normal;enable-background:new"
             clip-path="url(#clipPath1114-7)"
             transform="translate(19.999999,195.96364)" />
          <path
             style="fill:#f9da02;stroke:#000000;stroke-width:1px;stroke-linecap:butt;stroke-linejoin:miter;stroke-opacity:1"
             d="m 128,40 v 0"
             id="path2086"
             inkscape:connector-curvature="0" />
          <path
             transform="translate(2.4999771,-0.02304077)"
             style="display:inline;opacity:1;fill:#f9da02;fill-opacity:1;stroke:none;stroke-width:1.2;stroke-linecap:butt;stroke-miterlimit:4;stroke-dasharray:none;stroke-opacity:1;enable-background:new"
             id="path2024-3"
             sodipodi:type="arc"
             sodipodi:cx="63.000023"
             sodipodi:cy="107.02304"
             sodipodi:rx="9"
             sodipodi:ry="9"
             sodipodi:start="0"
             sodipodi:end="6.2808815"
             sodipodi:open="true"
             clip-path="url(#clipPath958-356)"
             sodipodi:arc-type="arc"
             d="m 72.000023,107.02304 a 9,9 0 0 1 -8.994817,9 9,9 0 0 1 -9.005177,-8.98963 9,9 0 0 1 8.984443,-9.010356 9,9 0 0 1 9.015527,8.979256" />
          <path
             style="display:inline;opacity:1;fill:url(#linearGradient884);fill-opacity:1;stroke:#000000;stroke-width:0.005;stroke-linecap:butt;stroke-linejoin:miter;stroke-miterlimit:4;stroke-dasharray:none;stroke-dashoffset:0;stroke-opacity:1;marker:none;paint-order:normal;enable-background:new"
             sodipodi:nodetypes="ccsccccscc"
             id="path872"
             d="m 64,11.909086 c -17.673119,0 -26.64104,12.013637 -31.999999,32.036364 l -8.000002,40.045456 c -0.866479,4.337403 -3.58176,8.00909 -8,8.00909 v 8.009094 H 112 v -8.009094 c -4.41833,0 -7.13353,-3.671687 -8,-8.00909 L 96,43.94545 C 91.75736,23.922723 81.67312,11.909086 64,11.909086 Z"
             inkscape:connector-curvature="0" />
          <path
             style="display:inline;opacity:1;fill:#dcb102;fill-opacity:1;stroke:#dcb102;stroke-width:4.5;stroke-linecap:butt;stroke-miterlimit:4;stroke-dasharray:none;stroke-opacity:1;enable-background:new"
             id="path2024-36"
             sodipodi:type="arc"
             sodipodi:cx="65.500023"
             sodipodi:cy="107.01728"
             sodipodi:rx="6.75"
             sodipodi:ry="6.75"
             sodipodi:start="0"
             sodipodi:end="6.2808815"
             sodipodi:open="true"
             clip-path="url(#clipPath1058-0-9)"
             sodipodi:arc-type="arc"
             d="m 72.250023,107.01728 a 6.75,6.75 0 0 1 -6.746112,6.75 6.75,6.75 0 0 1 -6.753884,-6.74222 6.75,6.75 0 0 1 6.738333,-6.75777 6.75,6.75 0 0 1 6.761645,6.73444" />
          <path
             inkscape:connector-curvature="0"
             d="m 44,-184 c -17.673119,0 -26.64104,12.01364 -31.999999,32.03636 l -8.000002,40.04546 c -0.866479,4.3374 -3.58176,8.00909 -8,8.00909 v 8.009091 H 92 v -8.009091 c -4.41833,0 -7.13353,-3.67169 -8,-8.00909 l -8,-40.04546 C 71.757361,-171.98636 61.673121,-184 44,-184 Z"
             id="path40220-0-6-7"
             sodipodi:nodetypes="ccsccccscc"
             style="display:inline;opacity:1;fill:#ad7702;fill-opacity:1;stroke:none;stroke-width:8.00454;stroke-linecap:butt;stroke-linejoin:miter;stroke-miterlimit:4;stroke-dasharray:none;stroke-dashoffset:0;stroke-opacity:1;marker:none;paint-order:normal;enable-background:new"
             clip-path="url(#clipPath1141-1-2)"
             transform="matrix(-1,0,0,1,108,195.90909)" />
          <path
             inkscape:connector-curvature="0"
             d="m 44,-184 c -17.673119,0 -26.64104,12.01364 -31.999999,32.03636 l -8.000002,40.04546 c -0.866479,4.3374 -3.58176,8.00909 -8,8.00909 v 8.009091 H 92 v -8.009091 c -4.41833,0 -7.13353,-3.67169 -8,-8.00909 l -8,-40.04546 C 71.757361,-171.98636 61.673121,-184 44,-184 Z"
             id="path40220-0-6"
             sodipodi:nodetypes="ccsccccscc"
             style="display:inline;opacity:1;fill:#ad7702;fill-opacity:1;stroke:none;stroke-width:8.00454;stroke-linecap:butt;stroke-linejoin:miter;stroke-miterlimit:4;stroke-dasharray:none;stroke-dashoffset:0;stroke-opacity:1;marker:none;paint-order:normal;enable-background:new"
             clip-path="url(#clipPath1141-0)"
             transform="translate(28,195.90909)" />
          <path
             style="display:inline;opacity:0.632;fill:#fbeb83;fill-opacity:1;stroke:#000000;stroke-width:0.005;stroke-linecap:butt;stroke-linejoin:miter;stroke-miterlimit:4;stroke-dasharray:none;stroke-dashoffset:0;stroke-opacity:1;marker:none;paint-order:normal;enable-background:new"
             d="m 64,11.908203 c -17.673119,0 -26.641041,12.014382 -32,32.037109 L 24,83.990234 C 23.133521,88.327637 20.41824,92 16,92 v 0.05469 c 4.41824,0 15.133505,-3.672366 16,-8.009766 L 40,44 c 5.358959,-20.02272 13.161049,-32.037109 24,-32.037109 0,0 18.434678,0.42614 0,-0.05469 z"
             id="path40220"
             inkscape:connector-curvature="0"
             sodipodi:nodetypes="cccccccccc" />
          <path
             inkscape:connector-curvature="0"
             d="m 44,-184 c -17.673119,0 -26.64104,12.01364 -31.999999,32.03636 l -8.000002,40.04546 c -0.866479,4.3374 -3.58176,8.00909 -8,8.00909 v 8.009091 H 92 v -8.009091 c -4.41833,0 -7.13353,-3.67169 -8,-8.00909 l -8,-40.04546 C 71.757361,-171.98636 61.673121,-184 44,-184 Z"
             id="path40220-0-6-5"
             sodipodi:nodetypes="ccsccccscc"
             style="display:inline;opacity:1;fill:url(#linearGradient909);fill-opacity:1;stroke:none;stroke-width:8.00454;stroke-linecap:butt;stroke-linejoin:miter;stroke-miterlimit:4;stroke-dasharray:none;stroke-dashoffset:0;stroke-opacity:1;marker:none;paint-order:normal;enable-background:new"
             clip-path="url(#clipPath1141-3-3)"
             transform="translate(20,195.90909)" />
        </g>
        <path
           inkscape:connector-curvature="0"
           id="path4989"
           d="m 10.244378,6.0959978 c -3.3243956,0 -6.0458292,2.7088107 -6.0458292,6.0224042 v 73.896529 c 0,3.313595 2.7214336,6.022404 6.0458292,6.022404 h 81.911238 c 3.324396,0 6.045835,-2.708809 6.045835,-6.022404 V 12.118402 c 0,-3.3135924 -2.72144,-6.0224042 -6.045835,-6.0224042 z m 0,2.4740683 h 81.911238 c 2.013974,0 3.575489,1.5787679 3.575489,3.5483359 v 73.896529 c 0,1.969572 -1.561515,3.548335 -3.575489,3.548335 H 10.244378 c -2.0139721,0 -3.57549,-1.578763 -3.57549,-3.548335 V 12.118402 c 0,-1.969568 1.5615179,-3.5483359 3.57549,-3.5483359 z"
           style="color:#000000;font-style:normal;font-variant:normal;font-weight:normal;font-stretch:normal;font-size:medium;line-height:normal;font-family:Sans;-inkscape-font-specification:Sans;text-indent:0;text-align:start;text-decoration:none;text-decoration-line:none;letter-spacing:normal;word-spacing:normal;text-transform:none;writing-mode:lr-tb;direction:ltr;baseline-shift:baseline;text-anchor:start;display:inline;overflow:visible;visibility:visible;fill:#241f1f;fill-opacity:0.63265303;stroke:none;stroke-width:2.53386688;marker:none;enable-background:accumulate" />
        <g
           id="layer4"
           inkscape:label="luci-superiori">
          <g
             id="g4963"
             transform="matrix(1.0076012,0,0,1.014293,-1.1213197,0.64569289)">
            <rect
               clip-path="url(#clipPath4156-4-6)"
               ry="3.9569881"
               rx="3.9569874"
               y="-30"
               x="2"
               height="92"
               width="92"
               id="rect4146"
               style="display:inline;fill:url(#linearGradient4967);fill-opacity:1;stroke:none"
               transform="matrix(0.969925,0,0,0.99026917,5.4054691,36.821504)" />
          </g>
          <rect
             style="display:inline;opacity:0.55;fill:url(#radialGradient1048);fill-opacity:1;stroke:none;stroke-width:1.06666672"
             id="rect4131"
             width="89.866676"
             height="4.5333333"
             x="4.4917331"
             y="84.157585"
             rx="0"
             ry="4.5333333" />
          <rect
             ry="4.5333333"
             rx="0"
             y="-95.522026"
             x="3.6242342"
             height="4.5333333"
             width="81.866669"
             id="rect4141"
             style="display:inline;opacity:0.55;fill:url(#radialGradient3833-1);fill-opacity:1;stroke:none;stroke-width:1.06666672"
             transform="rotate(90)" />
        </g>
      </g>
    </g>
  </g>
</svg>
