<?xml version="1.0" encoding="UTF-8" standalone="no"?>
<!-- Created with Inkscape (http://www.inkscape.org/) -->

<svg
   xmlns:dc="http://purl.org/dc/elements/1.1/"
   xmlns:cc="http://creativecommons.org/ns#"
   xmlns:rdf="http://www.w3.org/1999/02/22-rdf-syntax-ns#"
   xmlns:svg="http://www.w3.org/2000/svg"
   xmlns="http://www.w3.org/2000/svg"
   xmlns:xlink="http://www.w3.org/1999/xlink"
   xmlns:sodipodi="http://sodipodi.sourceforge.net/DTD/sodipodi-0.dtd"
   xmlns:inkscape="http://www.inkscape.org/namespaces/inkscape"
   width="96"
   height="96"
   id="svg4230"
   version="1.1"
   inkscape:version="0.92.1 r15371"
   sodipodi:docname="ozon-quickstart.svg"
   inkscape:export-filename="/home/uri/mouse.png"
   inkscape:export-xdpi="960"
   inkscape:export-ydpi="960">
  <defs
     id="defs4232">
    <linearGradient
       id="linearGradient4243">
      <stop
         style="stop-color:#000000;stop-opacity:1;"
         offset="0"
         id="stop4245" />
      <stop
         style="stop-color:#000000;stop-opacity:0;"
         offset="1"
         id="stop4247" />
    </linearGradient>
    <linearGradient
       id="linearGradient3068">
      <stop
         style="stop-color:#333333;stop-opacity:1;"
         offset="0"
         id="stop3070" />
      <stop
         style="stop-color:#4b5252;stop-opacity:1;"
         offset="1"
         id="stop3072" />
    </linearGradient>
    <linearGradient
       inkscape:collect="always"
       xlink:href="#linearGradient6139-0"
       id="linearGradient4071"
       gradientUnits="userSpaceOnUse"
       gradientTransform="matrix(1.1059895,0,0,1.1071426,-5.1375019,-4.0356869)"
       x1="6"
       y1="47.000011"
       x2="90"
       y2="47.000011" />
    <linearGradient
       id="linearGradient6139-0">
      <stop
         id="stop6141-2"
         offset="0"
         style="stop-color:#b2babc;stop-opacity:1" />
      <stop
         style="stop-color:#ffffff;stop-opacity:1;"
         offset="0.25"
         id="stop6151-0" />
      <stop
         style="stop-color:#96a1a4;stop-opacity:1"
         offset="0.5"
         id="stop6147-1" />
      <stop
         id="stop6149-4"
         offset="0.75"
         style="stop-color:#fbf9f9;stop-opacity:1;" />
      <stop
         id="stop6143-4"
         offset="1"
         style="stop-color:#b2b9bc;stop-opacity:1" />
    </linearGradient>
    <linearGradient
       gradientTransform="matrix(0.99895835,0,0,0.99999997,-2.96e-6,2.599e-5)"
       inkscape:collect="always"
       xlink:href="#linearGradient3832-0-6-1-1"
       id="linearGradient4129"
       x1="1.5"
       y1="88.171875"
       x2="94.5"
       y2="88.171875"
       gradientUnits="userSpaceOnUse" />
    <linearGradient
       id="linearGradient3832-0-6-1-1">
      <stop
         style="stop-color:#000000;stop-opacity:1;"
         offset="0"
         id="stop3834-6-3-7-1" />
      <stop
         id="stop3872-2-4"
         offset="0.1"
         style="stop-color:#000000;stop-opacity:0.58823532;" />
      <stop
         style="stop-color:#000000;stop-opacity:0.58823532;"
         offset="0.89999998"
         id="stop3844-6-2-7-6" />
      <stop
         style="stop-color:#000000;stop-opacity:1;"
         offset="1"
         id="stop3836-5-0-2-9" />
    </linearGradient>
    <radialGradient
       inkscape:collect="always"
       xlink:href="#linearGradient3737"
       id="radialGradient7462"
       gradientUnits="userSpaceOnUse"
       gradientTransform="matrix(0.97411799,0,0,0.04919072,33.86338,80.166723)"
       cx="13.948145"
       cy="44.892841"
       fx="13.948145"
       fy="44.892841"
       r="43.199203" />
    <linearGradient
       id="linearGradient3737">
      <stop
         offset="0"
         style="stop-color:#ffffff;stop-opacity:1"
         id="stop3739" />
      <stop
         offset="1"
         style="stop-color:#ffffff;stop-opacity:0"
         id="stop3741" />
    </linearGradient>
    <radialGradient
       inkscape:collect="always"
       xlink:href="#linearGradient3737"
       id="radialGradient7464"
       gradientUnits="userSpaceOnUse"
       gradientTransform="matrix(0.88832662,0,0,0.04913948,31.544518,-90.074376)"
       cx="13.948145"
       cy="44.892841"
       fx="13.948145"
       fy="44.892841"
       r="43.199203" />
    <linearGradient
       gradientTransform="matrix(1.0041884,0,0,1.0052356,-0.21820995,-0.04755458)"
       inkscape:collect="always"
       xlink:href="#linearGradient3737"
       id="linearGradient4767"
       gradientUnits="userSpaceOnUse"
       x1="2.7713892"
       y1="-28.64156"
       x2="50.527882"
       y2="14.514202" />
    <clipPath
       id="clipPath4156-4-1"
       clipPathUnits="userSpaceOnUse">
      <path
         inkscape:connector-curvature="0"
         id="path4158-0-8"
         d="m 27.046336,-55.695463 -14.21366,13.321486 h 0.06127 l 15.653407,21.770763 10.231384,-10.546177 C 38.561832,-32.30156 27.468089,-54.819245 27.046336,-55.695463 Z M 9.6468554,-39.382809 -5.2407289,-25.32124 15.987863,-7.8059573 26.372412,-18.382966 Z m 31.4906096,12.951445 -9.741259,9.713584 8.944804,12.4580526 7.780753,-7.5550056 z m -49.8397109,4.378822 -13.7541661,12.9822847 26.2830181,13.84571 0.06127,-0.0617 -0.122531,-0.0617 L 13.598503,-5.4007374 -8.7022409,-22.052595 Z m 38.0154159,7.400825 -9.802525,9.7752596 11.579232,9.5594001 7.62759,-7.40083 -8.669108,-11.0087257 z m 20.187073,5.6739697 -7.382526,7.2158 6.187844,8.54179 5.820249,-6.13651996 z m -32.195166,6.32154 -9.5574606,9.49772 13.6622686,7.1849703 7.933918,-7.6783603 z m 23.311629,2.37443004 -7.10683,6.93826996 8.362778,6.9074403 5.360756,-5.6739699 -0.06127,-0.0925 -0.0919,0.12335 -6.463539,-8.20258036 z m -8.730374,8.54178036 -7.505057,7.3391599 10.353916,5.45811 c 1.397496,-1.32103 5.67514,-6.12292 5.850882,-6.32154 z"
         style="opacity:0.6;fill:#ffffff;fill-opacity:1;stroke:none" />
    </clipPath>
    <linearGradient
       id="ButtonShadow-16"
       gradientTransform="scale(1.0058652,0.994169)"
       x1="45.447727"
       y1="92.539597"
       x2="45.447727"
       y2="7.0165396"
       gradientUnits="userSpaceOnUse">
      <stop
         style="stop-color:#000000;stop-opacity:1;"
         offset="0"
         id="stop3750-6" />
      <stop
         style="stop-color:#000000;stop-opacity:0.58823532;"
         offset="1"
         id="stop3752-4" />
    </linearGradient>
    <clipPath
       clipPathUnits="userSpaceOnUse"
       id="clipPath4355-7">
      <rect
         style="fill:#ffffff;fill-opacity:1;fill-rule:nonzero;stroke:none"
         id="rect4357-5"
         width="84"
         height="80"
         x="6"
         y="6"
         rx="6"
         ry="6" />
    </clipPath>
    <clipPath
       clipPathUnits="userSpaceOnUse"
       id="clipPath4355-9">
      <rect
         style="fill:#ffffff;fill-opacity:1;fill-rule:nonzero;stroke:none"
         id="rect4357-1"
         width="84"
         height="80"
         x="6"
         y="6"
         rx="6"
         ry="6" />
    </clipPath>
    <clipPath
       clipPathUnits="userSpaceOnUse"
       id="clipPath4355-1">
      <rect
         style="fill:#ffffff;fill-opacity:1;fill-rule:nonzero;stroke:none"
         id="rect4357-9"
         width="84"
         height="80"
         x="6"
         y="6"
         rx="6"
         ry="6" />
    </clipPath>
    <clipPath
       clipPathUnits="userSpaceOnUse"
       id="clipPath3943-52-0">
      <path
         id="path3945-4-1"
         d="m 69.78125,20.84375 -5,3.4375 c 5.586891,5.537137 9,13.327613 9,21.8125 0,8.434478 -3.37723,16.095981 -8.90625,21.625 l 5,3.4375 C 76.078226,64.5762 80,55.843726 80,46.09375 c 2e-6,-9.796556 -3.962955,-18.660417 -10.21875,-25.25 z M 40,24.0625 28.90625,36.21875 H 21.5 c -0.823281,0 -1.5,0.676717 -1.5,1.5 v 1 14.84375 1 c 0,0.823281 0.684121,1.610161 1.5,1.5 h 7.40625 L 40,68 V 66 26.0625 Z m 20.59375,3.28125 -5,3.4375 L 55.5,30.875 c 3.93815,3.890071 6.40625,9.25018 6.40625,15.21875 0,5.920869 -2.42961,11.148358 -6.3125,15.03125 l 0.09375,0.09375 5.09375,3.4375 c 4.475428,-4.908367 7.25,-11.402005 7.25,-18.5625 0,-7.230696 -2.87904,-13.83107 -7.4375,-18.75 z m -9.25,6.5 -5.21875,3.625 c 2.222384,2.217802 3.71875,5.239596 3.71875,8.625 0,3.336509 -1.458847,6.227712 -3.625,8.4375 l 5.21875,3.625 c 2.822412,-3.236947 4.53125,-7.43414 4.53125,-12.0625 0,-4.672601 -1.754155,-9.001351 -4.625,-12.25 z"
         style="color:#000000;display:inline;overflow:visible;visibility:visible;opacity:0.8;fill:#ff00ff;fill-opacity:1;fill-rule:nonzero;stroke:none;stroke-width:1;marker:none;enable-background:accumulate"
         inkscape:connector-curvature="0" />
    </clipPath>
  </defs>
  <sodipodi:namedview
     id="base"
     pagecolor="#ffffff"
     bordercolor="#666666"
     borderopacity="1.0"
     inkscape:pageopacity="0.0"
     inkscape:pageshadow="2"
     inkscape:zoom="2.8284271"
     inkscape:cx="-63.494932"
     inkscape:cy="29.344495"
     inkscape:document-units="px"
     inkscape:current-layer="svg4230"
     showgrid="true"
     inkscape:showpageshadow="false"
     borderlayer="true"
     inkscape:window-width="1920"
     inkscape:window-height="994"
     inkscape:window-x="0"
     inkscape:window-y="21"
     inkscape:window-maximized="1"
     showguides="false"
     inkscape:guide-bbox="true"
     inkscape:snap-global="false">
    <inkscape:grid
       type="xygrid"
       id="grid4162"
       empspacing="5"
       visible="true"
       enabled="false"
       snapvisiblegridlinesonly="true" />
    <sodipodi:guide
       position="1.0000013,47.000017"
       orientation="46,0"
       id="guide4163"
       inkscape:locked="false" />
    <sodipodi:guide
       position="1.0000013,1.0000174"
       orientation="0,45.999999"
       id="guide4165"
       inkscape:locked="false" />
    <sodipodi:guide
       position="47,1.0000174"
       orientation="-46,0"
       id="guide4167"
       inkscape:locked="false" />
    <sodipodi:guide
       position="47,47.000017"
       orientation="0,-45.999999"
       id="guide4169"
       inkscape:locked="false" />
    <sodipodi:guide
       position="2.0000007,46.000017"
       orientation="44,0"
       id="guide4173"
       inkscape:locked="false" />
    <sodipodi:guide
       position="2.0000007,2.0000174"
       orientation="0,43.999999"
       id="guide4175"
       inkscape:locked="false" />
    <sodipodi:guide
       position="46,2.0000174"
       orientation="-44,0"
       id="guide4177"
       inkscape:locked="false" />
    <sodipodi:guide
       position="46,46.000017"
       orientation="0,-43.999999"
       id="guide4179"
       inkscape:locked="false" />
    <sodipodi:guide
       position="40,40"
       orientation="-42,0"
       id="guide4187"
       inkscape:locked="false" />
    <sodipodi:guide
       position="45,45.000017"
       orientation="0,-42"
       id="guide4189"
       inkscape:locked="false" />
    <sodipodi:guide
       position="3,3.0000174"
       orientation="0,42"
       id="guide4195"
       inkscape:locked="false" />
    <sodipodi:guide
       position="8,41"
       orientation="-42,0"
       id="guide4197"
       inkscape:locked="false" />
    <sodipodi:guide
       position="45,45.000017"
       orientation="0,-42"
       id="guide4199"
       inkscape:locked="false" />
    <sodipodi:guide
       position="3,3.0000174"
       orientation="0,42"
       id="guide4205"
       inkscape:locked="false" />
    <sodipodi:guide
       position="6,42.000017"
       orientation="33.000017,0"
       id="guide4529"
       inkscape:locked="false" />
    <sodipodi:guide
       position="17,10"
       orientation="0,36"
       id="guide4531"
       inkscape:locked="false" />
    <sodipodi:guide
       position="42,9"
       orientation="-33.000017,0"
       id="guide4533"
       inkscape:locked="false" />
    <sodipodi:guide
       position="42,42.000017"
       orientation="0,-36"
       id="guide4535"
       inkscape:locked="false" />
  </sodipodi:namedview>
  <metadata
     id="metadata4235">
    <rdf:RDF>
      <cc:Work
         rdf:about="">
        <dc:format>image/svg+xml</dc:format>
        <dc:type
           rdf:resource="http://purl.org/dc/dcmitype/StillImage" />
        <dc:title></dc:title>
        <dc:date>2019</dc:date>
        <dc:creator>
          <cc:Agent>
            <dc:title>Cristian Pozzessere  == ilnanny ==</dc:title>
          </cc:Agent>
        </dc:creator>
        <dc:coverage>CC-BY-SA</dc:coverage>
      </cc:Work>
    </rdf:RDF>
  </metadata>
  <path
     style="display:inline;opacity:0.15;fill:#000000;fill-opacity:1;fill-rule:nonzero;stroke:none;stroke-width:0.99947876"
     d="M 88.928567,0.25 H 7.0714218 C 3.2923596,0.25 0.25000095,3.2923565 0.25000095,7.0714257 V 88.928572 c 0,3.779071 3.04235865,6.821428 6.82142085,6.821428 H 88.928567 c 3.779072,0 6.821432,-3.042357 6.821432,-6.821428 V 7.0714257 C 95.749999,3.2923565 92.707639,0.25 88.928567,0.25 Z"
     id="path3288"
     inkscape:connector-curvature="0" />
  <path
     inkscape:connector-curvature="0"
     id="path4085"
     d="M 88.28906,0.9960936 H 7.7109294 c -3.7200153,0 -6.71483653,2.9948194 -6.71483653,6.7148408 V 88.289063 c 0,3.720023 2.99482123,6.714843 6.71483653,6.714843 H 88.28906 c 3.720024,0 6.714845,-2.99482 6.714845,-6.714843 V 7.7109344 c 0,-3.7200214 -2.994821,-6.7148408 -6.714845,-6.7148408 z"
     style="display:inline;opacity:0.15;fill:#000000;fill-opacity:1;fill-rule:nonzero;stroke:none;stroke-width:0.99947876" />
  <path
     style="display:inline;fill:url(#linearGradient4071);fill-opacity:1;fill-rule:nonzero;stroke:none;stroke-width:0.99947876"
     d="M 87.649545,1.7421875 H 8.3504453 c -3.6609756,0 -6.6082583,2.9472821 -6.6082583,6.6082567 V 87.649555 c 0,3.660975 2.9472827,6.608259 6.6082583,6.608259 H 87.649545 c 3.660978,0 6.608258,-2.947284 6.608258,-6.608259 V 8.3504442 c 0,-3.6609746 -2.94728,-6.6082567 -6.608258,-6.6082567 z"
     id="rect4251-1"
     inkscape:connector-curvature="0" />
  <rect
     ry="3.5"
     rx="3.4963541"
     y="6.5192866"
     x="5.9408269"
     height="77.021454"
     width="84.557999"
     id="rect862"
     style="opacity:1;fill:#404040;fill-opacity:0.97169812;stroke:none;stroke-width:0.71123183;stroke-miterlimit:4;stroke-dasharray:none;stroke-opacity:1" />
  <path
     inkscape:connector-curvature="0"
     id="path4989"
     d="m 10.023907,4.9548284 c -3.1003891,0 -5.6384446,2.5262833 -5.6384446,5.6165966 v 68.917174 c 0,3.090315 2.5380555,5.616599 5.6384446,5.616599 h 76.391824 c 3.100391,0 5.638448,-2.526284 5.638448,-5.616599 V 10.571425 c 0,-3.0903123 -2.538057,-5.6165966 -5.638448,-5.6165966 z m 0,2.3073585 h 76.391824 c 1.878266,0 3.334565,1.4723861 3.334565,3.3092381 v 68.917174 c 0,1.836856 -1.456299,3.309239 -3.334565,3.309239 H 10.023907 c -1.8782657,0 -3.334564,-1.472383 -3.334564,-3.309239 V 10.571425 c 0,-1.836852 1.4562983,-3.3092381 3.334564,-3.3092381 z"
     style="color:#000000;font-style:normal;font-variant:normal;font-weight:normal;font-stretch:normal;font-size:medium;line-height:normal;font-family:Sans;-inkscape-font-specification:Sans;text-indent:0;text-align:start;text-decoration:none;text-decoration-line:none;letter-spacing:normal;word-spacing:normal;text-transform:none;writing-mode:lr-tb;direction:ltr;baseline-shift:baseline;text-anchor:start;display:inline;overflow:visible;visibility:visible;fill:#202223;fill-opacity:0.93689324;stroke:none;stroke-width:2.37426257;marker:none;enable-background:accumulate" />
  <path
     inkscape:connector-curvature="0"
     style="display:inline;opacity:0.65818182;fill:url(#linearGradient4129);fill-opacity:1;fill-rule:nonzero;stroke:none;stroke-width:0.99947876"
     d="m 1.742186,81.66748 v 5.96875 c 0,3.660975 2.9606059,6.621583 6.6215814,6.621583 H 87.636225 c 3.660978,0 6.621588,-2.960608 6.621588,-6.621583 v -5.96875 c 0,3.660975 -2.96061,6.621583 -6.621588,6.621583 H 8.3637674 c -3.6609755,0 -6.6215813,-2.960608 -6.6215814,-6.621583 z"
     id="path4118" />
  <rect
     style="opacity:0.55;fill:url(#radialGradient7462);fill-opacity:1;stroke:none;stroke-width:0.99947876"
     id="rect4131"
     width="83.811203"
     height="4.2278652"
     x="5.5970039"
     y="80.082024"
     rx="4.25"
     ry="4.25" />
  <rect
     ry="4.245573"
     rx="4.245573"
     y="-89.865791"
     x="5.7810373"
     height="4.2278652"
     width="76.350258"
     id="rect4141"
     style="opacity:0.669;fill:url(#radialGradient7464);fill-opacity:1;stroke:none;stroke-width:0.99947876"
     transform="rotate(90)" />
  <rect
     transform="matrix(1.0636761,0,0,1.0422264,4.5228542,38.528577)"
     style="opacity:0.65;fill:url(#linearGradient4767);fill-opacity:1;stroke:none;stroke-width:1.00471163"
     id="rect4146"
     width="75.965775"
     height="69.024437"
     x="2"
     y="-30"
     rx="3.973561"
     ry="3.9777055"
     clip-path="url(#clipPath4156-4-1)" />
  <path
     inkscape:connector-curvature="0"
     style="display:inline;fill:#fdfdfd;fill-opacity:1;fill-rule:evenodd;stroke:#f8f8f8;stroke-width:2.141;stroke-opacity:1;stroke-miterlimit:4;stroke-dasharray:none;paint-order:stroke fill markers"
     d="m 34.392477,11.354118 a 5.4765353,5.4765353 0 0 0 -3.928072,1.660533 5.4765353,5.4765353 0 0 0 -0.694981,0.888925 c -5.039737,-2.075803 -8.832585,-2.245749 -10.652061,-0.427605 -1.165454,1.176188 -1.531509,3.15112 -1.068094,5.771023 0.463447,2.620178 1.754795,5.883681 3.774346,9.53614 -1.690975,-6.310737 -4.220026,-17.688045 7.205994,-13.054013 a 5.4765353,5.4765353 0 0 0 -0.113699,1.101631 5.4765353,5.4765353 0 0 0 5.47656,5.476634 5.4765353,5.4765353 0 0 0 3.753519,-1.494151 c 5.678795,3.84077 12.088928,9.218177 18.010191,15.137492 21.560826,22.078397 26.416212,44.743929 -2.048108,28.309918 5.674851,4.233015 11.063708,7.346308 15.369591,8.879382 4.305966,1.533073 7.515994,1.479349 9.153225,-0.150758 1.152524,-1.152889 1.530755,-3.077934 1.104915,-5.633696 -0.425831,-2.555488 -1.654121,-5.739227 -3.59339,-9.308358 C 72.263748,50.908404 65.467742,42.217606 57.677447,34.427521 51.723101,28.475313 45.243286,23.092973 39.335778,19.171615 a 5.4765353,5.4765353 0 0 0 0.533245,-2.341138 5.4765353,5.4765353 0 0 0 -5.476553,-5.476633 z m 0,2.150634 a 3.3243519,3.3243519 0 0 1 3.32597,3.324355 3.3243519,3.3243519 0 0 1 -0.21139,1.159468 c -8.23e-4,0.0017 -0.0025,0 -0.0033,0 -0.02001,0.05208 -0.04303,0.10416 -0.06567,0.15624 a 3.3243519,3.3243519 0 0 1 -0.04805,0.109643 c -0.02521,0.05208 -0.05222,0.104159 -0.0801,0.156239 a 3.3243519,3.3243519 0 0 1 -0.05444,0.09868 c -0.03149,0.05208 -0.06338,0.106901 -0.09769,0.158982 -0.0025,0.0025 -0.0049,0 -0.0082,0 -0.0805,0.120606 -0.169013,0.232989 -0.26421,0.340987 a 3.3243519,3.3243519 0 0 1 -0.05929,0.06852 c -0.03871,0.04111 -0.08092,0.08223 -0.121703,0.120607 a 3.3243519,3.3243519 0 0 1 -0.105695,0.09868 c -0.03248,0.03015 -0.06592,0.05757 -0.09928,0.08498 a 3.3243519,3.3243519 0 0 1 -0.209773,0.158981 3.3243519,3.3243519 0 0 1 -0.02412,0.02741 c -0.0017,8.22e-4 -0.0017,0.0025 -0.0033,0 a 3.3243519,3.3243519 0 0 1 -1.870355,0.576444 3.3243519,3.3243519 0 0 1 -3.32597,-3.324354 3.3243519,3.3243519 0 0 1 0.0082,-0.183652 c 0.0025,-0.0466 0.0082,-0.0932 0.01288,-0.139794 a 3.3243519,3.3243519 0 0 1 0.02083,-0.164463 c 0.0074,-0.04934 0.01453,-0.09868 0.02413,-0.148017 a 3.3243519,3.3243519 0 0 1 0.02549,-0.115124 c 0.04632,-0.197357 0.110985,-0.390053 0.192176,-0.576445 a 3.3243519,3.3243519 0 0 1 0.04164,-0.09594 c 0.02604,-0.05482 0.056,-0.109642 0.08486,-0.164463 a 3.3243519,3.3243519 0 0 1 0.04962,-0.09045 c 0.02952,-0.04934 0.05904,-0.101419 0.09127,-0.150759 a 3.3243519,3.3243519 0 0 1 0.0033,0 c 0.04616,-0.07127 0.09575,-0.139794 0.147304,-0.205579 a 3.3243519,3.3243519 0 0 1 0.2402,-0.28041 3.3243519,3.3243519 0 0 1 2.384388,-1.00871 z m -4.386051,24.73092 6.746412,25.531856 5.337245,-11.366344 12.066035,-3.481417 z"
     id="path4299-0" />
</svg>
