<?xml version="1.0" encoding="UTF-8" standalone="no"?>
<svg
   xmlns:dc="http://purl.org/dc/elements/1.1/"
   xmlns:cc="http://creativecommons.org/ns#"
   xmlns:rdf="http://www.w3.org/1999/02/22-rdf-syntax-ns#"
   xmlns:svg="http://www.w3.org/2000/svg"
   xmlns="http://www.w3.org/2000/svg"
   xmlns:xlink="http://www.w3.org/1999/xlink"
   xmlns:sodipodi="http://sodipodi.sourceforge.net/DTD/sodipodi-0.dtd"
   xmlns:inkscape="http://www.inkscape.org/namespaces/inkscape"
   viewBox="0 0 48 48"
   version="1.1"
   id="svg53"
   sodipodi:docname="pac.svg"
   inkscape:version="0.92.2 5c3e80d, 2017-08-06">
  <metadata
     id="metadata57">
    <rdf:RDF>
      <cc:Work
         rdf:about="">
        <dc:format>image/svg+xml</dc:format>
        <dc:type
           rdf:resource="http://purl.org/dc/dcmitype/StillImage" />
      </cc:Work>
    </rdf:RDF>
  </metadata>
  <sodipodi:namedview
     pagecolor="#ffffff"
     bordercolor="#666666"
     borderopacity="1"
     objecttolerance="10"
     gridtolerance="10"
     guidetolerance="10"
     inkscape:pageopacity="0"
     inkscape:pageshadow="2"
     inkscape:window-width="1280"
     inkscape:window-height="943"
     id="namedview55"
     showgrid="false"
     inkscape:zoom="4.9166667"
     inkscape:cx="-8.0645099"
     inkscape:cy="22.372881"
     inkscape:window-x="0"
     inkscape:window-y="19"
     inkscape:window-maximized="1"
     inkscape:current-layer="svg53" />
  <defs
     id="defs17">
    <linearGradient
       id="linearGradient3764"
       x1="1"
       x2="47"
       gradientUnits="userSpaceOnUse"
       gradientTransform="rotate(-90,23.999998,24)">
      <stop
         style="stop-color:#1e94ca;stop-opacity:1"
         id="stop2" />
      <stop
         offset="1"
         style="stop-color:#21a1db;stop-opacity:1"
         id="stop4" />
    </linearGradient>
    <clipPath
       id="clipPath-815208615">
      <g
         transform="translate(0,-1004.3622)"
         id="g9">
        <path
           d="m -24 13 c 0 1.105 -0.672 2 -1.5 2 -0.828 0 -1.5 -0.895 -1.5 -2 0 -1.105 0.672 -2 1.5 -2 0.828 0 1.5 0.895 1.5 2 z"
           transform="matrix(15.333333,0,0,11.5,414.99999,878.8622)"
           style="fill:#1890d0"
           id="path7" />
      </g>
    </clipPath>
    <clipPath
       id="clipPath-826576853">
      <g
         transform="translate(0,-1004.3622)"
         id="g14">
        <path
           d="m -24 13 c 0 1.105 -0.672 2 -1.5 2 -0.828 0 -1.5 -0.895 -1.5 -2 0 -1.105 0.672 -2 1.5 -2 0.828 0 1.5 0.895 1.5 2 z"
           transform="matrix(15.333333,0,0,11.5,414.99999,878.8622)"
           style="fill:#1890d0"
           id="path12" />
      </g>
    </clipPath>
    <linearGradient
       inkscape:collect="always"
       xlink:href="#linearGradient6139-0"
       id="linearGradient4071"
       gradientUnits="userSpaceOnUse"
       gradientTransform="matrix(0.55126485,0,0,0.55126475,-2.460715,-1.9094496)"
       x1="6"
       y1="47.000011"
       x2="90"
       y2="47.000011" />
    <linearGradient
       id="linearGradient6139-0">
      <stop
         id="stop6141-2"
         offset="0"
         style="stop-color:#b2babc;stop-opacity:1" />
      <stop
         style="stop-color:#ffffff;stop-opacity:1;"
         offset="0.25"
         id="stop6151-0" />
      <stop
         style="stop-color:#96a1a4;stop-opacity:1"
         offset="0.5"
         id="stop6147-1" />
      <stop
         id="stop6149-4"
         offset="0.75"
         style="stop-color:#fbf9f9;stop-opacity:1;" />
      <stop
         id="stop6143-4"
         offset="1"
         style="stop-color:#b2b9bc;stop-opacity:1" />
    </linearGradient>
    <linearGradient
       gradientTransform="matrix(0.49791667,0,0,0.49791666,0.09999873,0.09999967)"
       inkscape:collect="always"
       xlink:href="#linearGradient3832-0-6-1-1"
       id="linearGradient4129"
       x1="1.5"
       y1="88.171875"
       x2="94.5"
       y2="88.171875"
       gradientUnits="userSpaceOnUse" />
    <linearGradient
       id="linearGradient3832-0-6-1-1">
      <stop
         style="stop-color:#000000;stop-opacity:1;"
         offset="0"
         id="stop3834-6-3-7-1" />
      <stop
         id="stop3872-2-4"
         offset="0.1"
         style="stop-color:#000000;stop-opacity:0.58823532;" />
      <stop
         style="stop-color:#000000;stop-opacity:0.58823532;"
         offset="0.89999998"
         id="stop3844-6-2-7-6" />
      <stop
         style="stop-color:#000000;stop-opacity:1;"
         offset="1"
         id="stop3836-5-0-2-9" />
    </linearGradient>
    <radialGradient
       inkscape:collect="always"
       xlink:href="#linearGradient3737"
       id="radialGradient7462"
       gradientUnits="userSpaceOnUse"
       gradientTransform="matrix(0.48553536,0,0,0.02449288,16.978724,40.016334)"
       cx="13.948145"
       cy="44.892841"
       fx="13.948145"
       fy="44.892841"
       r="43.199203" />
    <linearGradient
       id="linearGradient3737">
      <stop
         offset="0"
         style="stop-color:#ffffff;stop-opacity:1"
         id="stop3739" />
      <stop
         offset="1"
         style="stop-color:#ffffff;stop-opacity:0"
         id="stop3741" />
    </linearGradient>
    <radialGradient
       inkscape:collect="always"
       xlink:href="#linearGradient3737"
       id="radialGradient7464"
       gradientUnits="userSpaceOnUse"
       gradientTransform="matrix(0.44231264,0,0,0.02449288,15.806528,-44.996301)"
       cx="13.948145"
       cy="44.892841"
       fx="13.948145"
       fy="44.892841"
       r="43.199203" />
    <linearGradient
       inkscape:collect="always"
       xlink:href="#linearGradient3737"
       id="linearGradient4767"
       gradientUnits="userSpaceOnUse"
       x1="2.7713892"
       y1="-28.64156"
       x2="50.527882"
       y2="14.514202" />
    <clipPath
       id="clipPath4156-4-1"
       clipPathUnits="userSpaceOnUse">
      <path
         inkscape:connector-curvature="0"
         id="path4158-0-8"
         d="m 27.046336,-55.695463 -14.21366,13.321486 h 0.06127 l 15.653407,21.770763 10.231384,-10.546177 C 38.561832,-32.30156 27.468089,-54.819245 27.046336,-55.695463 Z M 9.6468554,-39.382809 -5.2407289,-25.32124 15.987863,-7.8059573 26.372412,-18.382966 Z m 31.4906096,12.951445 -9.741259,9.713584 8.944804,12.4580526 7.780753,-7.5550056 z m -49.8397109,4.378822 -13.7541661,12.9822847 26.2830181,13.84571 0.06127,-0.0617 -0.122531,-0.0617 L 13.598503,-5.4007374 -8.7022409,-22.052595 Z m 38.0154159,7.400825 -9.802525,9.7752596 11.579232,9.5594001 7.62759,-7.40083 -8.669108,-11.0087257 z m 20.187073,5.6739697 -7.382526,7.2158 6.187844,8.54179 5.820249,-6.13651996 z m -32.195166,6.32154 -9.5574606,9.49772 13.6622686,7.1849703 7.933918,-7.6783603 z m 23.311629,2.37443004 -7.10683,6.93826996 8.362778,6.9074403 5.360756,-5.6739699 -0.06127,-0.0925 -0.0919,0.12335 -6.463539,-8.20258036 z m -8.730374,8.54178036 -7.505057,7.3391599 10.353916,5.45811 c 1.397496,-1.32103 5.67514,-6.12292 5.850882,-6.32154 z"
         style="opacity:0.6;fill:#ffffff;fill-opacity:1;stroke:none" />
    </clipPath>
    <linearGradient
       id="ButtonShadow-16"
       gradientTransform="scale(1.0058652,0.994169)"
       x1="45.447727"
       y1="92.539597"
       x2="45.447727"
       y2="7.0165396"
       gradientUnits="userSpaceOnUse">
      <stop
         style="stop-color:#000000;stop-opacity:1;"
         offset="0"
         id="stop3750-6" />
      <stop
         style="stop-color:#000000;stop-opacity:0.58823532;"
         offset="1"
         id="stop3752-4" />
    </linearGradient>
    <clipPath
       clipPathUnits="userSpaceOnUse"
       id="clipPath4355-7">
      <rect
         style="fill:#ffffff;fill-opacity:1;fill-rule:nonzero;stroke:none"
         id="rect4357-5"
         width="84"
         height="80"
         x="6"
         y="6"
         rx="6"
         ry="6" />
    </clipPath>
    <clipPath
       clipPathUnits="userSpaceOnUse"
       id="clipPath4355-9">
      <rect
         style="fill:#ffffff;fill-opacity:1;fill-rule:nonzero;stroke:none"
         id="rect4357-1"
         width="84"
         height="80"
         x="6"
         y="6"
         rx="6"
         ry="6" />
    </clipPath>
    <clipPath
       clipPathUnits="userSpaceOnUse"
       id="clipPath4355-1">
      <rect
         style="fill:#ffffff;fill-opacity:1;fill-rule:nonzero;stroke:none"
         id="rect4357-9"
         width="84"
         height="80"
         x="6"
         y="6"
         rx="6"
         ry="6" />
    </clipPath>
    <clipPath
       clipPathUnits="userSpaceOnUse"
       id="clipPath3943-52-0">
      <path
         id="path3945-4-1"
         d="m 69.78125,20.84375 -5,3.4375 c 5.586891,5.537137 9,13.327613 9,21.8125 0,8.434478 -3.37723,16.095981 -8.90625,21.625 l 5,3.4375 C 76.078226,64.5762 80,55.843726 80,46.09375 c 2e-6,-9.796556 -3.962955,-18.660417 -10.21875,-25.25 z M 40,24.0625 28.90625,36.21875 H 21.5 c -0.823281,0 -1.5,0.676717 -1.5,1.5 v 1 14.84375 1 c 0,0.823281 0.684121,1.610161 1.5,1.5 h 7.40625 L 40,68 V 66 26.0625 Z m 20.59375,3.28125 -5,3.4375 L 55.5,30.875 c 3.93815,3.890071 6.40625,9.25018 6.40625,15.21875 0,5.920869 -2.42961,11.148358 -6.3125,15.03125 l 0.09375,0.09375 5.09375,3.4375 c 4.475428,-4.908367 7.25,-11.402005 7.25,-18.5625 0,-7.230696 -2.87904,-13.83107 -7.4375,-18.75 z m -9.25,6.5 -5.21875,3.625 c 2.222384,2.217802 3.71875,5.239596 3.71875,8.625 0,3.336509 -1.458847,6.227712 -3.625,8.4375 l 5.21875,3.625 c 2.822412,-3.236947 4.53125,-7.43414 4.53125,-12.0625 0,-4.672601 -1.754155,-9.001351 -4.625,-12.25 z"
         style="color:#000000;display:inline;overflow:visible;visibility:visible;opacity:0.8;fill:#ff00ff;fill-opacity:1;fill-rule:nonzero;stroke:none;stroke-width:1;marker:none;enable-background:accumulate"
         inkscape:connector-curvature="0" />
    </clipPath>
    <linearGradient
       id="linearGradient3764-3"
       x1="1"
       x2="47"
       gradientUnits="userSpaceOnUse"
       gradientTransform="rotate(-90,23.999998,24)">
      <stop
         style="stop-color:#1e94ca;stop-opacity:1"
         id="stop2-6" />
      <stop
         offset="1"
         style="stop-color:#21a1db;stop-opacity:1"
         id="stop4-7" />
    </linearGradient>
  </defs>
  <g
     id="g41">
    <g
       style="clip-path:url(#clipPath-815208615)"
       clip-path="url(#clipPath-815208615)"
       id="g39">
      <g
         transform="translate(1,1)"
         id="g37">
        <g
           style="opacity:0.1"
           id="g35">
          <!-- color: #5fad38 -->
        </g>
      </g>
    </g>
  </g>
  <g
     id="g45">
    <g
       style="clip-path:url(#clipPath-826576853)"
       clip-path="url(#clipPath-826576853)"
       id="g43">
      <!-- color: #5fad38 -->
    </g>
  </g>
  <path
     style="display:inline;opacity:0.15;fill:#000000;fill-opacity:1;fill-rule:nonzero;stroke:none;stroke-width:0.49791667"
     d="M 44.485713,0.09999967 H 3.5142818 c -1.8915097,0 -3.41428187,1.52277053 -3.41428187,3.41428433 v 40.97143 C 0.09999993,46.377228 1.6227721,47.9 3.5142818,47.9 H 44.485713 C 46.377226,47.9 47.9,46.377228 47.9,44.485714 V 3.514284 c 0,-1.8915138 -1.522774,-3.41428433 -3.414287,-3.41428433 z"
     id="path3288"
     inkscape:connector-curvature="0" />
  <path
     inkscape:connector-curvature="0"
     id="path4085"
     d="M 44.165624,0.47343717 H 3.8343706 c -1.8619555,0 -3.36093407,1.49897713 -3.36093407,3.36093553 V 44.165625 c 0,1.861959 1.49897857,3.360937 3.36093407,3.360937 H 44.165624 c 1.86196,0 3.360939,-1.498978 3.360939,-3.360937 V 3.8343727 c 0,-1.8619584 -1.498979,-3.36093553 -3.360939,-3.36093553 z"
     style="display:inline;opacity:0.15;fill:#000000;fill-opacity:1;fill-rule:nonzero;stroke:none;stroke-width:0.49791667" />
  <path
     style="display:inline;fill:url(#linearGradient4071);fill-opacity:1;fill-rule:nonzero;stroke:none;stroke-width:0.49791667"
     d="M 43.845532,0.84687467 H 4.1544633 c -1.8324046,0 -3.30758907,1.47518463 -3.30758907,3.30758773 V 43.845536 c 0,1.832405 1.47518447,3.307589 3.30758907,3.307589 H 43.845532 c 1.832405,0 3.307588,-1.475185 3.307588,-3.307589 V 4.1544624 c 0,-1.8324031 -1.475183,-3.30758773 -3.307588,-3.30758773 z"
     id="rect4251-1"
     inkscape:connector-curvature="0" />
  <path
     style="display:inline;opacity:0.98000004;fill:#e8e8e8;fill-opacity:1;fill-rule:nonzero;stroke:none;stroke-width:0.51566219"
     d="m 5.6972261,3.2802641 c -1.4222972,0 -2.551389,1.1530465 -2.551389,2.6055173 v 10.7966076 3.647723 20.111331 c 0.5463341,0.848762 1.4782393,1.416749 2.551389,1.416749 H 7.7383374 40.396118 43.2187 c 1.073151,0 1.223584,0.01811 1.769919,-0.830645 V 20.330112 16.682389 5.8857814 c 0,-1.4524708 -1.129092,-2.6055173 -2.55139,-2.6055173 z"
     id="path3400-6"
     inkscape:connector-curvature="0"
     sodipodi:nodetypes="sscccsccscccsss" />
  <path
     inkscape:connector-curvature="0"
     id="path4989"
     d="m 4.9920701,2.4548766 c -1.5518175,0 -2.8221742,1.2644644 -2.8221742,2.8112405 V 39.760786 c 0,1.546775 1.2703567,2.811239 2.8221742,2.811239 H 43.227979 c 1.551818,0 2.822176,-1.264464 2.822176,-2.811239 V 5.2661171 c 0,-1.5467751 -1.270358,-2.8112405 -2.822176,-2.8112405 z m 0,1.1548879 H 43.227979 c 0.940117,0 1.669028,0.7369634 1.669028,1.6563526 V 39.760786 c 0,0.91939 -0.728911,1.65635 -1.669028,1.65635 H 4.9920701 c -0.9401159,0 -1.6690276,-0.73696 -1.6690276,-1.65635 V 5.2661171 c 0,-0.9193892 0.7289117,-1.6563526 1.6690276,-1.6563526 z"
     style="color:#000000;font-style:normal;font-variant:normal;font-weight:normal;font-stretch:normal;font-size:medium;line-height:normal;font-family:Sans;-inkscape-font-specification:Sans;text-indent:0;text-align:start;text-decoration:none;text-decoration-line:none;letter-spacing:normal;word-spacing:normal;text-transform:none;writing-mode:lr-tb;direction:ltr;baseline-shift:baseline;text-anchor:start;display:inline;overflow:visible;visibility:visible;fill:#1f2224;fill-opacity:0.80869565;stroke:none;stroke-width:1.18280113;marker:none;enable-background:accumulate" />
  <path
     inkscape:connector-curvature="0"
     style="display:inline;opacity:0.65818182;fill:url(#linearGradient4129);fill-opacity:1;fill-rule:nonzero;stroke:none;stroke-width:0.49791667"
     d="m 0.84687373,40.851367 v 2.9875 c 0,1.832404 1.48185307,3.314258 3.31425767,3.314258 H 43.838865 c 1.832405,0 3.31426,-1.481854 3.31426,-3.314258 v -2.9875 c 0,1.832404 -1.481855,3.314258 -3.31426,3.314258 H 4.1611314 c -1.8324046,0 -3.31425767,-1.481854 -3.31425767,-3.314258 z"
     id="path4118" />
  <rect
     style="opacity:0.55;fill:url(#radialGradient7462);fill-opacity:1;stroke:none;stroke-width:0.49791667"
     id="rect4131"
     width="41.949482"
     height="2.1161458"
     x="2.7763009"
     y="40.057812"
     rx="0"
     ry="2.1161458" />
  <rect
     ry="2.1161458"
     rx="0"
     y="-44.954826"
     x="2.8684161"
     height="2.1161458"
     width="38.215103"
     id="rect4141"
     style="opacity:0.669;fill:url(#radialGradient7464);fill-opacity:1;stroke:none;stroke-width:0.49791667"
     transform="rotate(90)" />
  <g
     transform="matrix(0.80989952,0,0,0.80989952,51.671425,31.279796)"
     id="g996">
    <g
       transform="translate(-58.169492,-35.389831)"
       id="g33">
      <path
         inkscape:connector-curvature="0"
         id="path27"
         style="fill:url(#linearGradient3764-3);fill-opacity:1"
         d="M 24,1 C 21.73,1 19.538,1.334 17.467,1.947 19.001,3 16.217,3.967 14.262,3.162 6.429,6.829 1,14.779 1,24 1,31.505 4.595,38.169 10.156,42.367 16,45 32,45 39.84,40.668 c 2.366,-2.249 4.253,-4.995 5.494,-8.07 0,-10e-4 0,-10e-4 0,-0.002 0.234,-1.595 0.667,-3.594 1.23,-4.15 h 0.002 C 46.848,27.008 47,25.523 47,24.003 c 0,-0.118 -0.006,-0.234 -0.008,-0.352 -10e-4,0 -10e-4,0 -0.002,0 C 45.998,23.002 46.434,22.469 46.836,21.303 46.651,19.726 46.309,18.198 45.822,16.735 43.996,15.997 37.999,9.001 34.722,3.655 31.519,1.963 27.872,1.001 23.997,1.001 Z" />
      <path
         inkscape:connector-curvature="0"
         id="path29"
         style="opacity:0.1;fill:#000000;fill-opacity:1"
         d="m 17.1,2.906 -0.844,0.25 -0.977,0.066 -0.594,0.434 -0.781,-0.031 0.066,0.5 1.121,-0.031 0.41,1.094 0.148,0.598 -0.621,0.348 -0.254,0.465 0.189,1.063 0.754,0.125 0.719,-0.688 0.625,-0.656 0.965,-0.25 L 19.255,5.599 19.974,4.724 21.005,3.47 21.724,3.281 21.693,3.006 H 20.572 L 17.103,2.91 17.099,2.908 Z m 9.957,0.48 C 27.002,3.406 25.53,3.407 25.53,3.407 l -0.379,0.1 0.5,0.598 0.531,-0.5 0.344,0.219 0.5,-0.25 c 0,0 0.09,-0.212 0.031,-0.188 z m 6,0.461 -0.375,0.004 -0.469,0.063 -0.406,0.25 -0.469,0.35 -0.277,0.5 0.434,0.438 L 31.87,5.483 32.026,5.229 31.651,4.915 31.87,4.727 31.901,4.575 32.37,4.262 c 0,0 0.609,0.008 0.656,0 0.051,-0.012 0.189,-0.191 0.189,-0.191 L 33.057,3.848 Z M 36.121,4.452 35.9,4.598 35.275,4.973 34.744,5.411 34.807,5.6 34.53,5.631 V 5.635 L 30.446,6.315 30.464,6.303 29.243,6.957 28.93,6.734 28.774,6.484 28.838,6.23 29.526,6.265 29.842,6.14 29.221,5.826 28.346,5.512 27.467,5.356 l -0.941,0.191 -0.969,0.779 -0.436,0.439 -0.654,0.719 -0.25,0.031 -0.096,0.344 0.125,0.344 c 0,0 0.133,0.156 0.156,0.156 0.02,0 0.25,-0.125 0.25,-0.125 0,0 0.027,-0.117 0.156,-0.156 0.133,-0.039 0.25,-0.063 0.25,-0.063 l 0.188,0.375 0.225,0.313 0.09,0.25 c 0,0 0.363,-0.223 0.379,-0.25 0.008,-0.031 0.031,-0.41 0.031,-0.41 l 0.271,-0.188 c 0,0 0.074,-0.133 0.066,-0.156 C 26.296,7.929 26.119,7.73 26.119,7.73 L 25.965,7.667 26.028,7.351 c 0,0 0.125,-0.051 0.125,-0.094 0,-0.039 0.191,-0.189 0.191,-0.189 l 0.219,-0.275 0.156,-0.189 0.219,-0.156 0.254,0.189 v 0.125 l -0.223,0.25 -0.066,0.25 v 0.344 l 0.191,0.156 0.344,-0.031 0.314,-0.063 0.277,0.154 -0.063,0.221 c 0,0 -0.195,0.188 -0.25,0.219 -0.059,0.031 -0.41,-0.063 -0.5,-0.031 -0.09,0.031 -0.314,0.316 -0.314,0.316 0,0 -0.023,0.248 0,0.313 0.012,0.023 -0.004,0.071 -0.012,0.129 l -0.025,0.02 -0.379,0.277 h -0.025 l -0.25,-0.094 c 0,0 -0.158,0.008 -0.225,0.066 -0.063,0.051 -0.119,0.102 -0.313,0.121 -0.191,0.02 -0.565,0 -0.6,0 h -0.219 l 0.031,-0.227 0.156,-0.25 -0.277,-0.223 c 0,0 -0.184,0.23 -0.191,0.281 -0.004,0.055 0.125,0.277 0.125,0.277 0,0 -0.059,0.184 -0.09,0.223 -0.035,0.039 -0.313,0.125 -0.313,0.125 L 23.856,9.362 c 0,0 -0.18,-0.038 -0.156,0.064 0.027,0.102 0.227,0.195 0.227,0.281 0,0.082 -0.125,0.275 -0.125,0.275 l -0.156,0.189 -0.25,0.254 -0.344,0.09 c 0,0 -0.251,0.07 -0.314,0.094 -0.066,0.023 -0.254,0.066 -0.254,0.066 l -0.25,0.031 -0.156,0.223 0.281,0.189 0.189,0.311 c 0,0 0.117,0.223 0.152,0.223 0.031,0 0.094,0.219 0.094,0.219 l -0.189,0.25 h -0.094 l -0.656,0.125 -0.125,-0.281 -0.434,0.438 -0.191,0.723 v 0.598 l 0.754,0.406 0.594,-0.223 0.6,-1.063 0.529,-0.652 0.967,-0.156 0.219,-0.188 1.098,1.281 0.121,0.438 0.314,-0.156 -0.09,-0.375 h 0.188 l -0.125,-0.254 -1.063,-1 0.094,-0.188 0.344,-0.031 0.75,0.75 0.375,0.441 v 0.688 l 0.191,0.125 0.375,0.375 0.275,-0.094 -0.15,-0.566 0.094,-0.344 0.188,-0.219 0.439,0.156 0.156,0.063 -0.031,-0.5 0.25,-0.469 0.156,-0.689 0.563,0.096 0.094,0.313 0.219,0.156 0.254,-0.219 -0.156,-0.346 h 0.656 l -0.223,0.375 0.438,0.375 0.375,0.189 0.219,0.438 -0.5,0.121 -0.719,-0.156 h -0.621 l -0.598,0.316 -0.125,0.188 -0.434,0.094 0.188,0.469 0.344,0.406 0.625,-0.219 0.156,0.277 0.277,-0.219 0.375,0.063 0.035,0.41 -0.125,0.777 -0.344,-0.031 -0.41,-0.063 -0.188,0.465 -1.375,-0.25 -0.25,-0.316 -0.316,0.281 -0.344,0.469 -0.875,-0.5 -0.875,-0.527 v -0.941 l -0.564,0.031 -0.029,0.313 -1.375,-0.063 -0.439,0.402 -0.844,0.031 -0.566,0.5 -0.344,0.969 -0.875,0.691 -0.625,0.844 -0.031,1.625 -0.188,0.5 -0.039,0.383 h -3.137 v 10 h 3 v 2 h 2 v 2 h 8 v -1.711 l 0.188,-0.289 h 1.813 v -2 h 0.83 v 0.207 l 0.156,0.596 0.344,0.094 0.41,-0.625 0.168,-0.271 h 1.092 v -10 h -0.855 l 0.037,-0.035 0.594,-0.156 0.436,-0.531 0.6,-0.344 0.344,-0.594 0.031,-0.5 -0.281,-0.316 -0.375,-0.438 -0.25,0.154 -0.156,0.254 -0.406,-0.188 -0.125,-0.314 -0.281,-0.41 -0.434,-0.404 v -0.814 l 0.277,0.531 0.344,0.535 0.598,0.344 0.406,-0.094 0.25,0.281 1.785,-0.035 -0.035,0.035 0.566,0.5 0.406,0.563 0.125,0.277 h 0.273 l 0.098,-0.311 0.094,0.467 0.156,0.844 0.34,0.813 0.188,0.689 0.277,0.654 0.219,0.277 0.314,-0.188 0.094,-0.314 0.125,-0.775 L 39.746,19.767 40,19.451 c 0,0 0.266,-0.359 0.314,-0.375 0.043,-0.012 0.621,-0.65 0.621,-0.65 l 0.281,-0.35 0.313,-0.188 0.375,-0.219 h 0.156 l 0.063,0.344 0.156,0.406 0.5,0.65 v 0.25 l 0.094,0.281 0.344,-0.156 -0.033,-0.375 0.313,0.066 0.066,0.344 -0.035,0.531 0.094,0.375 0.281,0.064 0.09,-0.314 0.344,0.219 0.066,0.316 0.309,0.469 0.316,0.344 0.219,0.191 0.535,-0.469 0.219,-0.441 -0.094,-0.5 -0.09,-0.656 -0.604,-0.563 -0.09,-0.566 0.25,-0.396 c 0,0 0.16,-0.32 0.316,-0.156 0.148,0.168 0.223,0.188 0.152,0.375 -0.063,0.184 -0.189,0.598 -0.189,0.598 l 0.375,0.156 0.156,-0.531 -0.156,-0.379 0.203,-0.084 C 44.706,12.341 41.034,7.499 36.13,4.451 H 36.124 Z M 11.267,4.845 c -0.154,0.103 -0.305,0.21 -0.457,0.316 l -0.029,0.072 0.156,0.344 0.563,-0.064 0.25,0.469 -0.5,0.531 -0.563,0.063 0.5,0.225 0.531,0.465 0.523,0.125 0.191,-0.719 0.035,-0.439 0.621,0.094 c 0,0 -0.191,0.314 -0.094,0.314 0.098,0 0.469,-0.406 0.469,-0.406 L 12.397,5.137 c 0,0 -0.434,-0.344 -0.563,-0.25 -0.129,0.09 -0.469,0.063 -0.469,0.063 l -0.1,-0.104 z m 22.289,0.113 c 0,0 0.154,0.664 0.154,0.75 0,0.082 -0.439,0.025 -0.439,0.025 l -0.75,0.035 c 0,0 -1.086,0.25 -1.219,0.25 -0.133,0 -0.762,0.262 -0.813,0.281 L 30.466,6.303 30.462,6.309 34.552,5.614 34.525,5.46 34.211,5.021 33.557,4.958 Z M 10.617,5.669 10.183,6.169 9.863,5.862 C 9.433,6.197 9.013,6.544 8.609,6.909 8.98,7.002 9.471,7.202 9.558,7.141 9.687,7.047 10.183,6.266 10.183,6.266 l 0.434,-0.598 z m 9.1,0.727 -0.121,0.406 c 0.449,0.348 0.621,0.344 0.621,0.344 L 20.742,7.021 21.092,6.677 20.867,6.396 Z M 10.85,7.169 c 0,0 -0.432,0.25 -0.85,0.406 C 9.586,7.731 9.691,8.044 9.691,8.044 L 9.656,8.888 8.968,9.451 8.532,10.107 c 0,0 -0.279,-0.188 -0.279,-0.313 0,-0.125 -0.064,-0.469 -0.064,-0.469 L 7.47,8.762 c 0,0 -0.22,-0.17 -0.398,-0.328 -2.12,2.305 -3.77,5.05 -4.813,8.07 l 0.652,-0.455 0.566,-0.191 h 0.809 l 1.125,-0.25 0.406,0.531 -0.063,0.625 0.469,0.406 0.063,-0.441 c 0,0 -0.023,-0.719 -0.094,-0.906 -0.063,-0.188 0.566,-0.625 0.566,-0.625 l 0.496,-0.613 0.598,-0.727 0.281,-0.563 0.938,-0.496 0.625,-0.691 c 0,0 0.934,-0.148 1.121,-0.254 0.191,-0.09 0.066,-0.434 -0.125,-0.75 -0.191,-0.313 0.094,-0.625 0.094,-0.625 l 0.719,-0.434 0.625,0.121 0.066,0.754 c 0,0 0.59,0.563 0.781,0.465 0.188,-0.09 0.27,-0.406 0.27,-0.406 L 12.934,10.166 13.125,9.353 12.281,9.474 V 8.099 L 12.027,8.353 11.371,8.384 11.281,7.696 10.847,7.167 Z m 11.643,1.01 -0.25,0.219 c -0.066,0.305 -0.148,0.621 -0.148,0.621 l 0.469,0.223 0.063,0.277 -0.25,0.254 -0.219,0.375 0.152,0.156 0.563,-0.094 0.5,-0.219 L 23.096,9.616 22.998,8.96 22.654,8.585 22.494,8.179 Z M 21.72,9.363 21.439,9.832 21.814,9.988 21.97,9.707 Z m -15.445,1.092 0.006,0.008 0.656,0.275 0.434,0.566 0.281,0.434 c 0,0 -0.249,0.844 -0.313,1 -0.063,0.156 -0.25,-0.313 -0.25,-0.313 L 6.933,11.611 6.402,11.838 5.992,12.803 6.086,11.99 6.211,11.427 5.557,11.177 6.12,10.646 6.276,10.455 Z m 26.383,0.758 c 0.137,-0.043 0.375,0.152 0.375,0.152 l -0.25,0.223 0.09,0.313 0.281,0.75 0.281,0.469 0.375,0.594 -0.406,0.191 -0.531,-0.344 -0.223,-0.656 c 0,0 -0.303,-0.406 -0.436,-0.469 -0.137,-0.066 -0.256,-0.281 -0.256,-0.281 l 0.125,-0.531 c 0,0 0.431,-0.359 0.564,-0.406 l 0.01,-0.004 z m -7.906,1.188 -0.375,0.719 0.281,0.281 0.25,-0.223 0.031,-0.311 -0.188,-0.467 z m -1.252,0.75 v 0.188 L 23.656,13.308 23.5,13.152 Z m 2.156,0.469 -0.188,0.064 0.309,0.531 0.281,-0.223 -0.402,-0.373 z m 4.422,2.615 0.25,0.531 0.5,0.938 0.375,0.689 0.41,0.75 0.434,0.723 0.135,0.135 H 31.606 L 31.54,19.868 30.888,19.368 30.736,18.555 30.455,18.08 30.142,17.486 29.736,16.767 29.642,16.298 30.08,16.234 Z M 2.205,16.684 c -0.299,0.89 -0.549,1.803 -0.738,2.738 l 0.523,0.285 0.5,-0.064 0.719,0.344 1.094,0.598 0.156,0.725 0.875,0.84 0.5,-0.375 0.41,0.316 L 6.178,21.366 5.401,21.557 5.147,20.651 5.057,20.241 4.369,19.62 V 19.182 L 4.9,18.616 4.552,18.216 3.988,18.306 3.14,19.15 2.451,19.06 c 0,0 -0.313,-0.531 -0.379,-0.656 -0.063,-0.125 0.191,-0.563 0.191,-0.563 L 2.204,16.685 Z m 3.322,1.121 v 0.004 l -0.309,0.156 0.529,0.277 0.596,0.121 0.344,0.469 0.406,-0.25 -0.064,-0.277 -0.688,-0.5 z m 2.568,3.09 -0.875,0.004 -0.006,0.004 -0.816,0.441 -0.09,0.898 -0.189,1 -0.563,0.75 0.029,1.125 0.467,1.156 0.5,1.406 1.313,1.313 0.064,0.75 0.094,3.387 0.469,1.898 c 0,0 0.285,1.103 0.223,1.189 -0.066,0.09 0.375,0.91 0.375,0.91 l 0.875,1.375 1.221,0.525 -0.5,-0.598 -0.25,-0.689 0.25,-0.719 -0.656,-0.344 c 0,0 0.434,-0.285 0.5,-0.375 0.066,-0.09 -0.09,-0.469 -0.09,-0.469 l -0.191,-0.467 0.496,-0.654 0.781,-0.189 0.125,-0.598 -0.469,-0.219 0.188,-0.5 0.75,-0.094 0.656,-1.598 0.469,-1.094 0.979,-0.473 c 0,0 0.309,-0.927 0.309,-1.063 0,-0.129 0.094,-1.531 0.094,-1.531 l 0.75,-1.023 0.094,-0.691 -0.563,-0.344 -0.469,-0.566 -0.854,0.066 -1.344,-0.781 -0.27,-0.656 c 0,0 -0.48,-0.813 -0.566,-0.813 -0.086,0 -0.65,0.035 -0.65,0.035 L 10.224,22.048 9.88,21.392 8.534,21.111 8.096,20.892 Z m 35.563,0.496 c 0.113,0.129 0.813,2.219 0.906,2.219 0.09,0 0.625,0.066 0.625,0.066 L 44.908,22.83 Z m -3.594,0.064 -0.316,0.406 0.156,0.6 0.344,-0.375 -0.063,-0.475 z m 3.49,1.156 -0.438,0.066 1.996,3 0.531,0.594 1.246,0.061 c 0.012,-0.116 0.017,-0.233 0.027,-0.35 l -0.025,-0.018 -1.25,-0.346 -0.314,-1.154 -0.688,-0.564 -1.094,-1.281 0.008,-0.008 z m 3.424,0.213 -0.297,0.162 c 0,0.094 -0.727,0.691 -0.727,0.691 l 0.191,0.625 0.41,0.465 0.273,0.688 0.135,-0.088 c 0.027,-0.453 0.043,-0.906 0.043,-1.365 0,-0.394 -0.01,-0.788 -0.029,-1.178 z m -34.402,14.14 -0.215,0.15 -0.094,0.031 0.5,0.25 -0.191,-0.432 z m -0.848,0.184 0.002,0.004 0.002,-0.004 z m 0.002,0.004 -0.217,0.496 0.438,-0.094 z m 1.502,4.121 -0.469,0.719 -0.875,0.406 0.5,0.625 1.998,0.373 c 0,0 -0.652,-1.32 -0.652,-1.5 0,-0.176 -0.5,-0.621 -0.5,-0.621 z" />
      <path
         inkscape:connector-curvature="0"
         id="path31"
         style="fill:#abd6ec;fill-opacity:1"
         d="m 17.475,1.943 c -1.152,0.34 -2.267,0.767 -3.336,1.275 l 0.363,0.969 0.15,0.598 -0.621,0.346 -0.254,0.465 0.189,1.063 L 14.72,6.784 15.439,6.096 16.064,5.44 17.029,5.19 18.256,4.596 18.975,3.721 20.006,2.467 20.725,2.278 20.694,2.003 H 19.573 L 17.475,1.944 Z m 8.582,0.443 C 26.002,2.406 24.53,2.409 24.53,2.409 l -0.379,0.098 0.5,0.598 0.531,-0.5 0.344,0.219 0.5,-0.25 c 0,0 0.09,-0.211 0.031,-0.188 z m 6,0.461 -0.375,0.004 -0.469,0.063 -0.406,0.25 -0.469,0.35 -0.277,0.5 0.434,0.438 L 30.87,4.483 31.026,4.229 30.651,3.915 30.87,3.727 30.901,3.575 31.37,3.262 c 0,0 0.609,0.008 0.656,0 0.051,-0.012 0.188,-0.191 0.188,-0.191 L 32.058,2.848 Z m 2.717,0.83 -0.498,0.299 -0.531,0.438 0.063,0.189 -0.277,0.031 V 4.638 L 29.447,5.318 29.463,5.306 28.244,5.96 27.931,5.737 27.775,5.487 27.839,5.233 28.527,5.268 28.843,5.143 28.222,4.829 27.347,4.515 26.468,4.359 25.527,4.55 l -0.969,0.779 -0.436,0.439 -0.654,0.719 -0.25,0.031 -0.096,0.344 0.125,0.344 c 0,0 0.133,0.156 0.156,0.156 0.02,0 0.25,-0.125 0.25,-0.125 0,0 0.027,-0.117 0.156,-0.156 0.133,-0.039 0.25,-0.063 0.25,-0.063 l 0.188,0.375 0.225,0.313 0.09,0.25 c 0,0 0.363,-0.223 0.379,-0.25 0.008,-0.031 0.031,-0.41 0.031,-0.41 l 0.271,-0.188 c 0,0 0.074,-0.133 0.066,-0.156 C 25.297,6.932 25.121,6.733 25.121,6.733 L 24.965,6.67 25.028,6.354 c 0,0 0.125,-0.051 0.125,-0.094 0,-0.039 0.191,-0.189 0.191,-0.189 l 0.219,-0.275 0.156,-0.189 0.219,-0.156 0.254,0.189 v 0.125 l -0.223,0.25 -0.066,0.25 v 0.344 l 0.191,0.156 0.344,-0.031 0.314,-0.063 0.279,0.154 -0.064,0.221 c 0,0 -0.195,0.188 -0.25,0.219 -0.059,0.031 -0.41,-0.063 -0.5,-0.031 -0.09,0.031 -0.314,0.316 -0.314,0.316 0,0 -0.023,0.249 0,0.313 0.012,0.023 -0.004,0.071 -0.012,0.129 L 25.866,8.01 25.487,8.289 h -0.025 l -0.25,-0.094 c 0,0 -0.158,0.008 -0.225,0.066 -0.063,0.051 -0.12,0.102 -0.313,0.121 -0.191,0.02 -0.563,0 -0.598,0 h -0.219 l 0.031,-0.227 0.156,-0.25 -0.277,-0.223 c 0,0 -0.184,0.23 -0.191,0.281 -0.004,0.055 0.125,0.279 0.125,0.279 0,0 -0.059,0.182 -0.09,0.221 -0.035,0.039 -0.313,0.125 -0.313,0.125 L 22.859,8.367 c 0,0 -0.18,-0.038 -0.156,0.064 0.027,0.102 0.225,0.195 0.225,0.281 0,0.082 -0.125,0.275 -0.125,0.275 l -0.156,0.189 -0.25,0.254 -0.344,0.09 c 0,0 -0.251,0.07 -0.314,0.094 -0.066,0.023 -0.254,0.066 -0.254,0.066 l -0.25,0.031 -0.156,0.223 0.281,0.191 0.189,0.309 c 0,0 0.119,0.223 0.154,0.223 0.031,0 0.092,0.219 0.092,0.219 l -0.189,0.25 h -0.094 l -0.656,0.125 -0.125,-0.281 -0.434,0.438 -0.191,0.721 v 0.598 l 0.754,0.406 0.594,-0.221 0.6,-1.064 0.529,-0.652 0.967,-0.156 0.219,-0.188 1.098,1.281 0.121,0.438 0.313,-0.156 -0.09,-0.375 h 0.188 l -0.125,-0.254 -1.063,-1 0.094,-0.188 0.344,-0.031 0.75,0.75 0.375,0.441 v 0.688 l 0.191,0.125 0.375,0.375 0.277,-0.094 -0.152,-0.566 0.094,-0.344 0.188,-0.219 0.439,0.156 0.156,0.063 -0.031,-0.5 0.25,-0.469 0.156,-0.689 0.563,0.096 0.094,0.313 0.219,0.156 0.254,-0.219 -0.156,-0.346 h 0.656 l -0.223,0.375 0.438,0.375 0.375,0.189 0.219,0.438 -0.5,0.121 -0.719,-0.156 h -0.621 l -0.598,0.316 -0.125,0.188 -0.434,0.094 0.188,0.469 0.344,0.406 0.625,-0.219 0.156,0.277 0.277,-0.219 0.375,0.063 0.035,0.41 -0.125,0.777 -0.344,-0.031 -0.41,-0.063 -0.188,0.465 -1.375,-0.25 -0.25,-0.316 -0.316,0.281 -0.344,0.469 -0.875,-0.5 -0.875,-0.527 v -0.941 l -0.564,0.031 -0.029,0.313 -1.375,-0.063 -0.439,0.402 -0.844,0.031 -0.566,0.5 -0.344,0.969 -0.875,0.691 -0.625,0.844 -0.031,1.625 -0.188,0.5 -0.063,0.598 0.375,0.652 12.331,-0.436 -0.281,-0.563 -0.654,-0.5 -0.152,-0.813 -0.281,-0.475 -0.313,-0.594 -0.406,-0.719 -0.094,-0.469 0.438,-0.063 0.25,0.531 0.5,0.938 0.375,0.688 0.41,0.75 0.434,0.723 0.602,0.6 0.535,-0.5 0.594,-0.156 0.434,-0.531 0.6,-0.344 0.344,-0.594 0.031,-0.5 -0.281,-0.316 -0.375,-0.438 -0.25,0.154 -0.156,0.254 -0.406,-0.188 -0.125,-0.313 -0.281,-0.41 -0.434,-0.406 v -0.813 l 0.277,0.531 0.344,0.535 0.598,0.344 0.406,-0.094 0.25,0.281 1.785,-0.035 -0.035,0.035 0.566,0.5 0.406,0.563 0.125,0.277 h 0.275 l 0.096,-0.311 0.094,0.467 0.156,0.844 0.34,0.813 0.189,0.688 0.277,0.656 0.219,0.277 0.314,-0.188 0.094,-0.314 0.125,-0.775 -0.035,-0.689 0.254,-0.316 c 0,0 0.265,-0.359 0.313,-0.375 0.043,-0.012 0.621,-0.65 0.621,-0.65 l 0.281,-0.35 0.313,-0.188 0.375,-0.219 h 0.156 l 0.063,0.344 0.156,0.406 0.5,0.652 v 0.25 l 0.094,0.281 0.344,-0.156 -0.033,-0.375 0.313,0.066 0.066,0.344 -0.035,0.531 0.094,0.375 0.281,0.064 0.09,-0.314 0.344,0.219 0.066,0.316 0.309,0.469 0.316,0.344 0.219,0.191 0.535,-0.469 0.219,-0.441 -0.094,-0.5 -0.09,-0.656 -0.604,-0.563 -0.09,-0.566 0.25,-0.398 c 0,0 0.16,-0.32 0.316,-0.156 0.148,0.168 0.223,0.188 0.152,0.375 -0.063,0.184 -0.188,0.598 -0.188,0.598 l 0.375,0.156 0.156,-0.531 -0.156,-0.379 0.375,-0.156 0.441,-0.221 C 43.97,11.116 39.966,6.432 34.781,3.672 Z M 29.461,5.306 29.457,5.312 33.547,4.617 33.52,4.461 33.204,4.023 32.55,3.96 c 0,0 0.154,0.664 0.154,0.75 0,0.082 -0.438,0.025 -0.438,0.025 l -0.75,0.035 c 0,0 -1.086,0.25 -1.219,0.25 -0.133,0 -0.762,0.262 -0.813,0.281 L 29.461,5.305 Z M 11.773,4.523 c -0.6,0.377 -1.182,0.78 -1.742,1.209 l 0.154,0.068 0.531,0.465 0.525,0.125 0.191,-0.719 0.035,-0.438 0.621,0.094 c 0,0 -0.191,0.313 -0.094,0.313 0.098,0 0.469,-0.406 0.469,-0.406 L 11.772,4.523 Z m 6.937,0.875 -0.121,0.406 c 0.449,0.348 0.621,0.344 0.621,0.344 L 19.735,6.023 20.085,5.679 19.86,5.398 Z M 9.843,6.171 c 0,0 -0.432,0.25 -0.85,0.406 C 8.991,6.579 8.989,6.579 8.987,6.581 8.896,6.66 8.804,6.737 8.714,6.817 8.661,6.937 8.685,7.046 8.685,7.046 L 8.65,7.89 7.962,8.453 7.528,9.109 c 0,0 -0.281,-0.188 -0.281,-0.313 0,-0.125 -0.063,-0.469 -0.063,-0.469 L 7.176,8.321 C 6.746,8.783 6.335,9.263 5.944,9.759 l 0.416,0.545 0.281,0.434 c 0,0 -0.249,0.844 -0.313,1 -0.063,0.156 -0.25,-0.313 -0.25,-0.313 l -0.156,-0.814 -0.531,0.225 -0.41,0.965 0.094,-0.811 0.02,-0.086 c -0.858,1.237 -1.6,2.56 -2.205,3.957 h 0.393 l 1.125,-0.25 0.406,0.531 -0.063,0.625 0.469,0.406 0.063,-0.441 c 0,0 -0.023,-0.719 -0.094,-0.906 -0.063,-0.188 0.566,-0.625 0.566,-0.625 L 6.251,13.588 6.849,12.861 7.13,12.298 8.068,11.802 8.693,11.111 c 0,0 0.934,-0.148 1.121,-0.254 0.191,-0.09 0.066,-0.434 -0.125,-0.75 C 9.498,9.794 9.783,9.482 9.783,9.482 l 0.719,-0.434 0.625,0.121 0.066,0.754 c 0,0 0.59,0.563 0.781,0.465 0.188,-0.09 0.271,-0.406 0.271,-0.406 L 11.932,9.169 12.123,8.358 11.279,8.479 V 7.104 L 11.025,7.358 10.369,7.389 10.279,6.701 9.841,6.17 Z m 11.643,1.01 -0.25,0.219 c -0.066,0.305 -0.15,0.621 -0.15,0.621 l 0.469,0.223 0.063,0.277 -0.25,0.254 -0.219,0.375 0.152,0.156 0.563,-0.094 0.5,-0.219 L 22.087,8.618 21.989,7.962 21.645,7.587 21.487,7.181 Z M 20.711,8.365 20.43,8.834 20.805,8.99 20.961,8.709 Z m 10.938,1.848 c 0.137,-0.043 0.375,0.154 0.375,0.154 l -0.25,0.221 0.09,0.313 0.281,0.75 0.281,0.469 0.375,0.594 -0.406,0.191 -0.531,-0.344 -0.223,-0.656 c 0,0 -0.303,-0.406 -0.436,-0.469 -0.137,-0.066 -0.254,-0.281 -0.254,-0.281 l 0.125,-0.531 c 0,0 0.431,-0.359 0.564,-0.406 l 0.008,-0.004 z m -7.906,1.188 -0.375,0.719 0.281,0.281 0.25,-0.223 0.031,-0.309 -0.188,-0.469 z m -1.252,0.75 v 0.188 l 0.156,-0.031 -0.156,-0.156 z m 2.156,0.469 -0.188,0.064 0.309,0.531 0.281,-0.221 -0.402,-0.375 z m -20.13,4.186 v 0.004 l -0.309,0.156 0.531,0.279 0.594,0.121 0.344,0.469 0.406,-0.25 -0.063,-0.279 -0.689,-0.5 z M 3.542,17.216 2.978,17.306 2.13,18.15 1.767,18.103 C 1.714,18.304 1.666,18.507 1.619,18.71 l 0.58,0.277 1.094,0.598 0.156,0.725 0.875,0.84 0.5,-0.375 0.41,0.316 L 5.168,20.366 4.391,20.557 4.137,19.651 4.047,19.241 3.359,18.62 V 18.182 L 3.89,17.616 Z m 2.668,2.684 -0.006,0.004 -0.816,0.441 -0.09,0.9 -0.188,1 -0.563,0.75 0.029,1.125 0.467,1.156 0.5,1.406 1.313,1.313 0.063,0.75 0.094,3.385 0.469,1.9 c 0,0 0.285,1.103 0.223,1.189 -0.066,0.09 0.375,0.91 0.375,0.91 l 0.875,1.375 1.221,0.525 -0.5,-0.598 -0.25,-0.688 0.25,-0.719 L 9.02,35.68 c 0,0 0.434,-0.285 0.5,-0.375 0.066,-0.09 -0.09,-0.469 -0.09,-0.469 l -0.191,-0.467 0.496,-0.654 0.781,-0.189 0.125,-0.598 -0.469,-0.219 0.188,-0.5 0.75,-0.094 0.656,-1.598 0.469,-1.094 0.977,-0.471 c 0,0 0.309,-0.928 0.309,-1.064 0,-0.129 0.094,-1.531 0.094,-1.531 l 0.75,-1.023 0.094,-0.691 -0.563,-0.344 -0.469,-0.566 -0.852,0.066 -1.344,-0.781 -0.27,-0.656 c 0,0 -0.48,-0.813 -0.566,-0.813 -0.086,0 -0.652,0.035 -0.652,0.035 L 9.212,21.053 8.868,20.397 7.524,20.116 7.086,19.897 H 6.211 Z m 36.438,0.492 c 0.113,0.129 0.813,2.219 0.906,2.219 0.09,0 0.625,0.066 0.625,0.066 l -0.281,-0.844 z m -3.594,0.066 -0.316,0.406 0.156,0.598 0.344,-0.375 -0.063,-0.473 z m 7.787,0.885 -1.17,0.646 c 0,0.094 -0.725,0.691 -0.725,0.691 l 0.191,0.625 0.41,0.465 0.273,0.688 1.17,-0.76 c -0.01,-0.796 -0.061,-1.581 -0.15,-2.355 z m -4.297,0.271 -0.436,0.066 1.996,3 0.531,0.594 1.313,0.064 0.814,0.254 -0.879,-0.625 -1.25,-0.346 -0.314,-1.154 -0.688,-0.564 -1.094,-1.281 0.006,-0.008 z m -11.311,6.689 -0.41,0.344 v 0.563 l 0.156,0.594 0.344,0.094 0.41,-0.625 0.25,-0.406 -0.063,-0.5 z m 15.329,0.172 c -0.05,0.017 -0.115,0.036 -0.119,0.051 -0.02,0.086 -0.563,0.375 -0.563,0.375 -0.113,0 -0.465,0.656 -0.465,0.656 l -0.066,2.063 -0.121,0.75 0.129,0.168 c 0.52,-1.3 0.928,-2.658 1.205,-4.063 z m -34.994,7.486 -0.215,0.152 -0.094,0.031 0.5,0.25 -0.191,-0.434 z m -0.848,0.184 0.002,0.004 0.002,-0.004 z m 0.002,0.004 -0.217,0.496 0.438,-0.094 z m 1.502,4.121 -0.469,0.719 -0.875,0.406 0.5,0.625 -0.75,0.375 -0.473,-0.023 c 3.851,2.907 8.645,4.631 13.842,4.631 6.137,0 11.708,-2.408 15.832,-6.324 l -2.549,0.096 -3.064,0.621 c 0,0 -1.477,0.793 -1.656,0.754 -0.18,-0.043 0.625,-1.031 0.625,-1.031 l -1.439,0.09 -0.904,-0.75 -0.91,0.621 c 0,0 -1.215,0.096 -1.527,0.096 -0.316,0 -0.723,0.563 -0.723,0.563 l -2.469,-0.09 -4.25,0.188 -1.121,0.965 -0.281,0.035 -3.215,-0.223 -2.219,0.223 -0.781,-0.379 0.031,-0.063 c 0,0 -0.652,-1.32 -0.652,-1.5 0,-0.176 -0.5,-0.621 -0.5,-0.621 l -0.002,-0.002 z" />
    </g>
    <path
       inkscape:connector-curvature="0"
       id="path51"
       style="fill:#2d2d2d;fill-opacity:1;stroke:none"
       d="m -43.169492,-16.389831 v 10.0000005 h 3 v 2 h 2 v 2 h 8 v -2 h 2 v -2 h 3 V -16.389831 Z" />
  </g>
  <rect
     transform="matrix(0.53239495,0,0,0.52165878,2.2386637,19.259328)"
     style="opacity:0.7;fill:url(#linearGradient4767);fill-opacity:1;stroke:none"
     id="rect4146"
     width="75.965775"
     height="69.024437"
     x="2"
     y="-30"
     rx="3.9569874"
     ry="3.9569881"
     clip-path="url(#clipPath4156-4-1)" />
</svg>
