<?xml version="1.0" encoding="UTF-8" standalone="no"?>
<svg
   xmlns:dc="http://purl.org/dc/elements/1.1/"
   xmlns:cc="http://creativecommons.org/ns#"
   xmlns:rdf="http://www.w3.org/1999/02/22-rdf-syntax-ns#"
   xmlns:svg="http://www.w3.org/2000/svg"
   xmlns="http://www.w3.org/2000/svg"
   xmlns:xlink="http://www.w3.org/1999/xlink"
   xmlns:sodipodi="http://sodipodi.sourceforge.net/DTD/sodipodi-0.dtd"
   xmlns:inkscape="http://www.inkscape.org/namespaces/inkscape"
   sodipodi:docname="zsnes.svg"
   inkscape:version="1.0beta2 (2b71d25d45, 2019-12-03)"
   version="1.1"
   id="svg2"
   height="96"
   width="96">
  <script
     id="script2985"
     xlink:href="" />
  <defs
     id="defs4">
    <linearGradient
       inkscape:collect="always"
       xlink:href="#linearGradient6139-0"
       id="linearGradient5021"
       gradientUnits="userSpaceOnUse"
       x1="6"
       y1="47.000011"
       x2="90"
       y2="47.000011"
       gradientTransform="matrix(1.1330025,0,0,1.1312942,-40.022888,-46.775791)" />
    <linearGradient
       id="linearGradient6139-0">
      <stop
         style="stop-color:#b7b7b7;stop-opacity:1;"
         offset="0"
         id="stop6141-2" />
      <stop
         id="stop6151-0"
         offset="0.25"
         style="stop-color:#ffffff;stop-opacity:1;" />
      <stop
         id="stop6147-1"
         offset="0.5"
         style="stop-color:#9d9d9d;stop-opacity:1;" />
      <stop
         style="stop-color:#fafafa;stop-opacity:1;"
         offset="0.75"
         id="stop6149-4" />
      <stop
         style="stop-color:#b7b7b7;stop-opacity:1;"
         offset="1"
         id="stop6143-4" />
    </linearGradient>
    <radialGradient
       r="41"
       fy="6.2131939"
       fx="158"
       cy="6.2131939"
       cx="158"
       gradientTransform="matrix(0,1.8337643,-2.3093817,0,28.709889,-321.156)"
       gradientUnits="userSpaceOnUse"
       id="radialGradient3114"
       xlink:href="#linearGradient3888-8-4-8-6"
       inkscape:collect="always" />
    <linearGradient
       id="linearGradient3888-8-4-8-6"
       inkscape:collect="always">
      <stop
         id="stop3890-4-7-9-7"
         offset="0"
         style="stop-color:#ffffff;stop-opacity:1;" />
      <stop
         id="stop3892-5-8-2-7"
         offset="1"
         style="stop-color:#ffffff;stop-opacity:0;" />
    </linearGradient>
    <radialGradient
       r="42"
       fy="-27"
       fx="48"
       cy="-27"
       cx="48"
       gradientTransform="matrix(-1.2147743,0,0,-0.98990531,72.67041,-67.846763)"
       gradientUnits="userSpaceOnUse"
       id="radialGradient3118"
       xlink:href="#linearGradient4091-0-3-0-7"
       inkscape:collect="always" />
    <linearGradient
       id="linearGradient4091-0-3-0-7">
      <stop
         id="stop4093-3-6-4-2"
         offset="0"
         style="stop-color:#ffffff;stop-opacity:1;" />
      <stop
         style="stop-color:#ffffff;stop-opacity:1;"
         offset="0.80000001"
         id="stop4099-6-1-8-3" />
      <stop
         id="stop4095-1-0-7-9"
         offset="1"
         style="stop-color:#ffffff;stop-opacity:0;" />
    </linearGradient>
    <linearGradient
       y2="82.984398"
       x2="-10.187523"
       y1="82.984398"
       x1="-94"
       gradientTransform="matrix(1.1330025,0,0,1.0057867,73.277372,-36.092783)"
       gradientUnits="userSpaceOnUse"
       id="linearGradient3120"
       xlink:href="#linearGradient3832-0-6-1-1"
       inkscape:collect="always" />
    <linearGradient
       id="linearGradient3832-0-6-1-1">
      <stop
         id="stop3834-6-3-7-1"
         offset="0"
         style="stop-color:#000000;stop-opacity:1;" />
      <stop
         style="stop-color:#000000;stop-opacity:0.58823532;"
         offset="0.1"
         id="stop3872-2-4" />
      <stop
         id="stop3844-6-2-7-6"
         offset="0.89999998"
         style="stop-color:#000000;stop-opacity:0.58823532;" />
      <stop
         id="stop3836-5-0-2-9"
         offset="1"
         style="stop-color:#000000;stop-opacity:1;" />
    </linearGradient>
    <radialGradient
       gradientTransform="matrix(0.69202504,0,0,0.64682809,-52.522058,-8.5941107)"
       gradientUnits="userSpaceOnUse"
       r="2.7910447"
       fy="79.208954"
       fx="70.373131"
       cy="79.208954"
       cx="70.373131"
       id="radialGradient3844"
       xlink:href="#linearGradient4289"
       inkscape:collect="always" />
    <linearGradient
       id="linearGradient4289">
      <stop
         id="stop4291"
         offset="0"
         style="stop-color:#faff00;stop-opacity:1;" />
      <stop
         id="stop4293"
         offset="1"
         style="stop-color:#959800;stop-opacity:1;" />
    </linearGradient>
    <radialGradient
       gradientTransform="matrix(0.69202504,0,0,0.64682809,-18.593114,-8.5941107)"
       gradientUnits="userSpaceOnUse"
       r="2.7910447"
       fy="79.208954"
       fx="70.373131"
       cy="79.208954"
       cx="70.373131"
       id="radialGradient3836"
       xlink:href="#linearGradient4289"
       inkscape:collect="always" />
    <linearGradient
       id="linearGradient4469">
      <stop
         id="stop4471"
         offset="0"
         style="stop-color:#faff00;stop-opacity:1;" />
      <stop
         id="stop4473"
         offset="1"
         style="stop-color:#959800;stop-opacity:1;" />
    </linearGradient>
    <radialGradient
       gradientUnits="userSpaceOnUse"
       gradientTransform="matrix(4.7796646,-0.09281443,0.04138394,2.1247282,-213.76796,-133.2959)"
       r="6.5870786"
       fy="85.213486"
       fx="46.786518"
       cy="85.213486"
       cx="46.786518"
       id="radialGradient3828"
       xlink:href="#linearGradient4166"
       inkscape:collect="always" />
    <linearGradient
       id="linearGradient4166">
      <stop
         id="stop4168"
         offset="0"
         style="stop-color:#1d8ef4;stop-opacity:1;" />
      <stop
         id="stop4170"
         offset="1"
         style="stop-color:#234460;stop-opacity:1;" />
    </linearGradient>
    <linearGradient
       y2="68"
       x2="62"
       y1="8"
       x1="62"
       gradientTransform="matrix(1.1832157,0,0,1.0774396,-42.201035,-46.035949)"
       gradientUnits="userSpaceOnUse"
       id="linearGradient4987"
       xlink:href="#linearGradient3888-8-4-8-4-6-9-0-8-7-9"
       inkscape:collect="always" />
    <linearGradient
       id="linearGradient3888-8-4-8-4-6-9-0-8-7-9"
       inkscape:collect="always">
      <stop
         id="stop3890-4-7-9-5-7-0-8-8-8-6"
         offset="0"
         style="stop-color:#ffffff;stop-opacity:1;" />
      <stop
         id="stop3892-5-8-2-8-3-3-3-06-4-4"
         offset="1"
         style="stop-color:#ffffff;stop-opacity:0;" />
    </linearGradient>
    <linearGradient
       id="linearGradient3921">
      <stop
         id="stop3923"
         offset="0"
         style="stop-color:#b37aff;stop-opacity:1;" />
      <stop
         id="stop3925"
         offset="1"
         style="stop-color:#7b00f6;stop-opacity:1;" />
    </linearGradient>
    <linearGradient
       gradientTransform="matrix(0.99444148,0,0,0.99302933,-2.2028912,-25.076097)"
       y2="37.999237"
       x2="29.999237"
       y1="45"
       x1="37"
       gradientUnits="userSpaceOnUse"
       id="linearGradient3477"
       xlink:href="#linearGradient3862"
       inkscape:collect="always" />
    <linearGradient
       id="linearGradient3862">
      <stop
         style="stop-color:#ff0606;stop-opacity:1;"
         offset="0"
         id="stop3864" />
      <stop
         style="stop-color:#881300;stop-opacity:1;"
         offset="1"
         id="stop3866" />
    </linearGradient>
    <linearGradient
       gradientTransform="matrix(0.79555318,0,0,0.79442346,4.5593109,-16.933258)"
       y2="44.535534"
       x2="37.535534"
       y1="37.25"
       x1="30.25"
       gradientUnits="userSpaceOnUse"
       id="linearGradient3479"
       xlink:href="#linearGradient3862"
       inkscape:collect="always" />
    <linearGradient
       id="linearGradient4492">
      <stop
         style="stop-color:#ff0606;stop-opacity:1;"
         offset="0"
         id="stop4494" />
      <stop
         style="stop-color:#881300;stop-opacity:1;"
         offset="1"
         id="stop4496" />
    </linearGradient>
    <linearGradient
       gradientTransform="matrix(0.99444148,0,0,0.99302933,-33.041678,-20.739507)"
       y2="37.999237"
       x2="29.999237"
       y1="45"
       x1="37"
       gradientUnits="userSpaceOnUse"
       id="linearGradient3481"
       xlink:href="#linearGradient4166"
       inkscape:collect="always" />
    <linearGradient
       id="linearGradient4499">
      <stop
         id="stop4501"
         offset="0"
         style="stop-color:#1d8ef4;stop-opacity:1;" />
      <stop
         id="stop4503"
         offset="1"
         style="stop-color:#234460;stop-opacity:1;" />
    </linearGradient>
    <linearGradient
       gradientTransform="matrix(0.79555318,0,0,0.79442346,-26.279477,-12.596665)"
       y2="44.535534"
       x2="37.535534"
       y1="37.25"
       x1="30.25"
       gradientUnits="userSpaceOnUse"
       id="linearGradient3483"
       xlink:href="#linearGradient4166"
       inkscape:collect="always" />
    <linearGradient
       id="linearGradient4506">
      <stop
         id="stop4508"
         offset="0"
         style="stop-color:#1d8ef4;stop-opacity:1;" />
      <stop
         id="stop4510"
         offset="1"
         style="stop-color:#234460;stop-opacity:1;" />
    </linearGradient>
    <linearGradient
       gradientTransform="matrix(0.99444148,0,0,0.99302933,-17.46006,-14.495087)"
       y2="37.999237"
       x2="29.999237"
       y1="45"
       x1="37"
       gradientUnits="userSpaceOnUse"
       id="linearGradient3485"
       xlink:href="#linearGradient4172"
       inkscape:collect="always" />
    <linearGradient
       id="linearGradient4172">
      <stop
         id="stop4174"
         offset="0"
         style="stop-color:#19c62c;stop-opacity:1;" />
      <stop
         id="stop4176"
         offset="1"
         style="stop-color:#0b6b09;stop-opacity:1;" />
    </linearGradient>
    <linearGradient
       gradientTransform="matrix(0.79555318,0,0,0.79442346,-10.697858,-6.3522475)"
       y2="44.535534"
       x2="37.535534"
       y1="37.25"
       x1="30.25"
       gradientUnits="userSpaceOnUse"
       id="linearGradient3487"
       xlink:href="#linearGradient4172"
       inkscape:collect="always" />
    <linearGradient
       id="linearGradient4517">
      <stop
         id="stop4519"
         offset="0"
         style="stop-color:#19c62c;stop-opacity:1;" />
      <stop
         id="stop4521"
         offset="1"
         style="stop-color:#0b6b09;stop-opacity:1;" />
    </linearGradient>
    <linearGradient
       gradientTransform="matrix(0.99444148,0,0,0.99302933,7.4531856,-42.633702)"
       y2="37.999237"
       x2="29.999237"
       y1="45"
       x1="37"
       gradientUnits="userSpaceOnUse"
       id="linearGradient3489"
       xlink:href="#linearGradient4178"
       inkscape:collect="always" />
    <linearGradient
       id="linearGradient4178">
      <stop
         id="stop4180"
         offset="0"
         style="stop-color:#ff8d00;stop-opacity:1;" />
      <stop
         id="stop4182"
         offset="1"
         style="stop-color:#b15800;stop-opacity:1;" />
    </linearGradient>
    <linearGradient
       gradientTransform="matrix(0.79555318,0,0,0.79442346,14.215388,-34.490862)"
       y2="44.535534"
       x2="37.535534"
       y1="37.25"
       x1="30.25"
       gradientUnits="userSpaceOnUse"
       id="linearGradient3491"
       xlink:href="#linearGradient4178"
       inkscape:collect="always" />
    <linearGradient
       id="linearGradient4528">
      <stop
         id="stop4530"
         offset="0"
         style="stop-color:#ff8d00;stop-opacity:1;" />
      <stop
         id="stop4532"
         offset="1"
         style="stop-color:#b15800;stop-opacity:1;" />
    </linearGradient>
    <linearGradient
       gradientTransform="matrix(0.99444148,0,0,0.99302933,-48.53316,-32.958035)"
       y2="37.999237"
       x2="29.999237"
       y1="45"
       x1="37"
       gradientUnits="userSpaceOnUse"
       id="linearGradient4300"
       xlink:href="#linearGradient4289"
       inkscape:collect="always" />
    <linearGradient
       id="linearGradient4535">
      <stop
         id="stop4537"
         offset="0"
         style="stop-color:#faff00;stop-opacity:1;" />
      <stop
         id="stop4539"
         offset="1"
         style="stop-color:#959800;stop-opacity:1;" />
    </linearGradient>
    <linearGradient
       gradientTransform="matrix(0.79555318,0,0,0.79442346,-41.770957,-24.815194)"
       y2="44.535534"
       x2="37.535534"
       y1="37.25"
       x1="30.25"
       gradientUnits="userSpaceOnUse"
       id="linearGradient4302"
       xlink:href="#linearGradient4289"
       inkscape:collect="always" />
    <linearGradient
       id="linearGradient4542">
      <stop
         id="stop4544"
         offset="0"
         style="stop-color:#faff00;stop-opacity:1;" />
      <stop
         id="stop4546"
         offset="1"
         style="stop-color:#959800;stop-opacity:1;" />
    </linearGradient>
    <linearGradient
       id="linearGradient3094">
      <stop
         offset="0"
         style="stop-color:#c9cac2;stop-opacity:1;"
         id="stop3096" />
      <stop
         offset="1"
         style="stop-color:#b3b5a6;stop-opacity:1;"
         id="stop3104" />
    </linearGradient>
    <radialGradient
       inkscape:collect="always"
       xlink:href="#linearGradient4172"
       id="radialGradient4270"
       gradientUnits="userSpaceOnUse"
       gradientTransform="matrix(1.8232226,4.9649284e-8,0,0.33099521,-43.538158,-39.128483)"
       cx="47.363636"
       cy="18"
       fx="47.363636"
       fy="18"
       r="6" />
    <linearGradient
       id="linearGradient4553">
      <stop
         id="stop4555"
         offset="0"
         style="stop-color:#19c62c;stop-opacity:1;" />
      <stop
         id="stop4557"
         offset="1"
         style="stop-color:#0b6b09;stop-opacity:1;" />
    </linearGradient>
    <radialGradient
       r="6"
       fy="18"
       fx="47.363636"
       cy="18"
       cx="47.363636"
       gradientTransform="matrix(1.8232226,4.9649284e-8,0,0.33099521,-43.538158,-33.170567)"
       gradientUnits="userSpaceOnUse"
       id="radialGradient4322"
       xlink:href="#linearGradient4289"
       inkscape:collect="always" />
    <linearGradient
       id="linearGradient4560">
      <stop
         id="stop4562"
         offset="0"
         style="stop-color:#faff00;stop-opacity:1;" />
      <stop
         id="stop4564"
         offset="1"
         style="stop-color:#959800;stop-opacity:1;" />
    </linearGradient>
    <radialGradient
       r="6"
       fy="18"
       fx="47.363636"
       cy="18"
       cx="47.363636"
       gradientTransform="matrix(1.8204738,4.9724252e-8,0,0.331495,-98.215415,-21.569643)"
       gradientUnits="userSpaceOnUse"
       id="radialGradient4330"
       xlink:href="#linearGradient4209"
       inkscape:collect="always" />
    <linearGradient
       id="linearGradient4209">
      <stop
         style="stop-color:#9b9b9b;stop-opacity:1;"
         offset="0"
         id="stop4211" />
      <stop
         style="stop-color:#1a1a1a;stop-opacity:1;"
         offset="1"
         id="stop4213" />
    </linearGradient>
    <linearGradient
       y2="47.000011"
       x2="90"
       y1="47.000011"
       x1="6"
       gradientTransform="matrix(1.1353753,0,0,1.1336634,-40.037119,-46.787632)"
       gradientUnits="userSpaceOnUse"
       id="linearGradient5698"
       xlink:href="#linearGradient5700"
       inkscape:collect="always" />
    <linearGradient
       id="linearGradient5700">
      <stop
         style="stop-color:#ffffff;stop-opacity:0;"
         offset="0"
         id="stop5702" />
      <stop
         id="stop5704"
         offset="0.03681535"
         style="stop-color:#ffffff;stop-opacity:0.85135138;" />
      <stop
         style="stop-color:#ffffff;stop-opacity:0;"
         offset="0.06506088"
         id="stop5706" />
      <stop
         id="stop5712"
         offset="0.94493848"
         style="stop-color:#ffffff;stop-opacity:0;" />
      <stop
         id="stop5710"
         offset="0.96582276"
         style="stop-color:#ffffff;stop-opacity:0.85135138;" />
      <stop
         style="stop-color:#ffffff;stop-opacity:0;"
         offset="1"
         id="stop5708" />
    </linearGradient>
    <linearGradient
       inkscape:collect="always"
       xlink:href="#linearGradient5700"
       id="linearGradient4648"
       gradientUnits="userSpaceOnUse"
       gradientTransform="matrix(1.1353753,0,0,1.1336634,-40.037119,-46.787632)"
       x1="6"
       y1="47.000011"
       x2="90"
       y2="47.000011" />
    <linearGradient
       y2="47.000011"
       x2="90"
       y1="47.000011"
       x1="6"
       gradientTransform="matrix(1.1330025,0,0,1.1312942,-40.022883,-46.775786)"
       gradientUnits="userSpaceOnUse"
       id="linearGradient1059"
       xlink:href="#linearGradient5700"
       inkscape:collect="always" />
  </defs>
  <sodipodi:namedview
     inkscape:document-rotation="0"
     inkscape:window-maximized="1"
     inkscape:window-y="28"
     inkscape:window-x="0"
     inkscape:window-height="1016"
     inkscape:window-width="1920"
     objecttolerance="1"
     guidetolerance="1"
     gridtolerance="1"
     inkscape:showpageshadow="false"
     inkscape:grid-bbox="true"
     inkscape:document-units="px"
     showgrid="true"
     inkscape:current-layer="g4361"
     inkscape:cy="54.594621"
     inkscape:cx="51.836732"
     inkscape:zoom="5.5"
     inkscape:pageshadow="2"
     inkscape:pageopacity="0.0"
     borderopacity="1.0"
     bordercolor="#666666"
     pagecolor="#ffffff"
     id="base" />
  <metadata
     id="metadata7">
    <rdf:RDF>
      <cc:Work
         rdf:about="">
        <dc:format>image/svg+xml</dc:format>
        <dc:type
           rdf:resource="http://purl.org/dc/dcmitype/StillImage" />
        <dc:title></dc:title>
      </cc:Work>
    </rdf:RDF>
  </metadata>
  <g
     transform="translate(0,32)"
     inkscape:groupmode="layer"
     inkscape:label="Layer 1"
     id="layer1">
    <g
       id="g4361"
       transform="matrix(1.0034441,0,0,1.0049592,33.489303,9.4732382)">
      <g
         transform="translate(0.09965574,0.09950701)"
         id="g1240">
        <path
           style="display:inline;fill:url(#linearGradient5021);fill-opacity:1;fill-rule:nonzero;stroke:none;stroke-width:0.99791"
           d="m 55.149326,-41.11932 h -81.576182 c -3.766102,0 -6.798016,3.027343 -6.798016,6.787764 v 81.453205 c 0,3.760421 3.031914,6.787765 6.798016,6.787765 h 81.576182 c 3.766101,0 6.798015,-3.027344 6.798015,-6.787765 v -81.453205 c 0,-3.760421 -3.031914,-6.787764 -6.798015,-6.787764 z"
           id="rect4251-1"
           inkscape:connector-curvature="0" />
        <path
           style="display:inline;opacity:0.2;fill:url(#radialGradient3114);fill-opacity:1;fill-rule:nonzero;stroke:none;stroke-width:1.13216"
           d="m -26.426852,-39.988026 c -3.158019,0 -5.665013,2.503218 -5.665013,5.656471 v 23.439001 7.9190599 43.6608851 c 1.213059,1.842628 3.282229,3.075706 5.665013,3.075706 h 4.532009 72.512163 4.53201 c 2.382784,0 4.451953,-1.233078 5.665014,-3.075706 V -2.9734941 -10.892554 -34.331555 c 0,-3.153253 -2.506995,-5.656471 -5.665014,-5.656471 z"
           id="path3400-6"
           inkscape:connector-curvature="0"
           sodipodi:nodetypes="sscccsccscccsss" />
        <path
           style="display:inline;opacity:0.45;fill:url(#radialGradient3118);fill-opacity:1;fill-rule:nonzero;stroke:none;stroke-width:1.13216"
           d="m -26.426852,-41.11932 c -3.766102,0 -6.798016,3.027343 -6.798016,6.787765 v 16.969413 h 1.133003 v -16.969413 c 0,-3.153253 2.506994,-5.656471 5.665013,-5.656471 H 55.14933 c 3.158019,0 5.665014,2.503218 5.665014,5.656471 v 16.969413 h 1.133001 v -16.969413 c 0,-3.760422 -3.031914,-6.787765 -6.798015,-6.787765 z"
           id="path4236-5"
           inkscape:connector-curvature="0" />
        <path
           inkscape:connector-curvature="0"
           id="path4242-5"
           d="m -33.224868,40.834164 v 1.005786 1.005787 1.005787 2.011574 2.011573 c 0,3.343234 3.031914,6.034721 6.798016,6.034721 H 55.14933 c 3.766101,0 6.798015,-2.691487 6.798015,-6.034721 V 45.863098 43.851524 42.845737 41.83995 40.834164 c 0,3.343234 -3.031914,6.03472 -6.798015,6.03472 h -81.576182 c -3.766102,0 -6.798016,-2.691486 -6.798016,-6.03472 z"
           style="opacity:0.469649;fill:url(#linearGradient3120);fill-opacity:1;fill-rule:nonzero;stroke:none;stroke-width:1.13216" />
        <ellipse
           id="path4002"
           style="opacity:0.71;fill:#1c1c1c;fill-opacity:1;fill-rule:nonzero;stroke:none;stroke-width:1.16945"
           cx="-3.822084"
           cy="42.846416"
           rx="3.4245791"
           ry="3.1109028" />
        <ellipse
           style="fill:#ffffff;fill-opacity:1;fill-rule:nonzero;stroke:none;stroke-width:0.987046"
           id="path3854"
           cx="-3.8220806"
           cy="42.640465"
           rx="2.8495138"
           ry="2.6634085" />
        <ellipse
           id="path3856"
           style="fill:url(#radialGradient3844);fill-opacity:1;fill-rule:nonzero;stroke:none;stroke-width:0.669045"
           cx="-3.822089"
           cy="42.640465"
           rx="1.9314728"
           ry="1.8053261" />
        <ellipse
           style="opacity:0.71;fill:#1c1c1c;fill-opacity:1;fill-rule:nonzero;stroke:none;stroke-width:1.16945"
           id="path4170"
           cx="30.106857"
           cy="42.846416"
           rx="3.4245791"
           ry="3.1109028" />
        <ellipse
           id="path4172"
           style="fill:#ffffff;fill-opacity:1;fill-rule:nonzero;stroke:none;stroke-width:0.987046"
           cx="30.106861"
           cy="42.640465"
           rx="2.8495138"
           ry="2.6634085" />
        <ellipse
           style="fill:url(#radialGradient3836);fill-opacity:1;fill-rule:nonzero;stroke:none;stroke-width:0.669045"
           id="path4174"
           cx="30.106853"
           cy="42.640465"
           rx="1.9314728"
           ry="1.8053261" />
        <rect
           ry="1.1457462"
           rx="1.1457462"
           y="41.802525"
           x="7.0585361"
           height="3.2291923"
           width="12.64767"
           id="rect4176"
           style="opacity:0.962199;fill:url(#radialGradient3828);fill-opacity:1;stroke:#000000;stroke-width:0.498956;stroke-miterlimit:4;stroke-dasharray:none;stroke-opacity:1" />
        <path
           style="color:#000000;font-style:normal;font-variant:normal;font-weight:normal;font-stretch:normal;font-size:medium;line-height:normal;font-family:Sans;-inkscape-font-specification:Sans;text-indent:0;text-align:start;text-decoration:none;text-decoration-line:none;letter-spacing:normal;word-spacing:normal;text-transform:none;writing-mode:lr-tb;direction:ltr;baseline-shift:baseline;text-anchor:start;display:inline;overflow:visible;visibility:visible;opacity:0.02;fill:#000000;fill-opacity:1;fill-rule:nonzero;stroke:none;stroke-width:5.98746;marker:none;enable-background:accumulate"
           d="m -25.636016,16.455541 c -1.874709,0 -3.629352,0.911711 -4.732863,2.255891 v 14.983144 c 0,2.387606 2.110857,4.309757 4.732863,4.309757 h 80.458665 c 2.622007,0 4.732863,-1.922151 4.732863,-4.309757 V 18.711432 c -1.10351,-1.34418 -2.858152,-2.255891 -4.732863,-2.255891 z m 0,3.232321 h 80.458665 c 1.351932,0 2.366433,0.923806 2.366433,2.154878 v 11.851836 c 0,1.231073 -1.014501,2.154878 -2.366433,2.154878 h -80.458665 c -1.351931,0 -2.366431,-0.923805 -2.366431,-2.154878 V 21.84274 c 0,-1.231072 1.0145,-2.154878 2.366431,-2.154878 z"
           id="path4972"
           inkscape:connector-curvature="0" />
        <path
           style="color:#000000;display:inline;overflow:visible;visibility:visible;opacity:0.45;fill:url(#linearGradient4987);fill-opacity:1;fill-rule:nonzero;stroke:none;stroke-width:1.99582;marker:none;enable-background:accumulate"
           d="M 2.7611601,-37.416433 C 11.044663,-11.416057 19.652285,13.971836 28.385175,38.004333 h 26.437474 c 2.622007,0 4.732863,-1.922151 4.732863,-4.309757 v -66.801249 c 0,-2.387608 -2.110856,-4.30976 -4.732863,-4.30976 z"
           id="path4974"
           inkscape:connector-curvature="0" />
        <path
           sodipodi:nodetypes="sssssssss"
           inkscape:connector-curvature="0"
           style="color:#000000;display:inline;overflow:visible;visibility:visible;opacity:0.735;fill:#f1efef;fill-opacity:1;fill-rule:nonzero;stroke:none;stroke-width:1.99582;marker:none;enable-background:accumulate"
           d="m -25.636016,-37.416432 h 80.458665 c 2.622007,0 4.732863,1.922151 4.732863,4.309759 v 66.801249 c 0,2.387606 -2.110856,4.309757 -4.732863,4.309757 h -80.458665 c -2.622006,0 -4.732863,-1.922151 -4.732863,-4.309757 v -66.801249 c 0,-2.387608 2.110857,-4.309759 4.732863,-4.309759 z"
           id="path4970" />
        <path
           id="path4989"
           d="m -24.697066,-36.620854 h 78.580767 c 2.560807,0 4.622397,1.877977 4.622397,4.21071 v 65.266006 c 0,2.332735 -2.06159,4.210712 -4.622397,4.210712 h -78.580767 c -2.560808,0 -4.622397,-1.877977 -4.622397,-4.210712 v -65.266006 c 0,-2.332733 2.061589,-4.21071 4.622397,-4.21071 z"
           style="color:#000000;display:inline;overflow:visible;visibility:visible;fill:none;stroke:#000000;stroke-width:2.27602;stroke-opacity:0.775801;marker:none;enable-background:accumulate"
           inkscape:connector-curvature="0"
           sodipodi:nodetypes="sssssssss" />
        <ellipse
           cy="-8.778367"
           cx="14.502339"
           id="path3794"
           style="color:#000000;display:inline;overflow:visible;visibility:visible;fill:#4d4d4d;fill-opacity:0.144265;fill-rule:nonzero;stroke:none;stroke-width:2.48434;marker:none;enable-background:accumulate"
           rx="12.928306"
           ry="12.908813" />
        <path
           inkscape:connector-curvature="0"
           id="path3789"
           d="m 14.50234,-21.687181 c -7.1401063,0 -12.9283057,5.779472 -12.9283057,12.9088139 0,3.8195335 1.6792488,7.2250385 4.3197946,9.58851829 C 3.842668,-1.4745579 2.5685194,-4.4755733 2.5685194,-7.7853813 c 0,-7.1293417 5.7881994,-12.9088147 12.9283056,-12.9088147 3.314806,0 6.320351,1.272228 8.608511,3.320296 -2.367048,-2.636565 -5.777696,-4.313281 -9.602996,-4.313281 z"
           style="color:#000000;display:inline;overflow:visible;visibility:visible;fill:#4d4d4d;fill-opacity:0.144265;fill-rule:nonzero;stroke:none;stroke-width:2.48434;marker:none;enable-background:accumulate" />
        <path
           id="path3786"
           d="m 24.105336,-17.3739 c 2.051162,2.284709 3.325309,5.285725 3.325309,8.5955329 0,7.1293416 -5.7882,12.9088143 -12.928305,12.9088143 -3.314805,0 -6.3203522,-1.2722272 -8.6085111,-3.32029601 2.3670484,2.63656471 5.7776951,4.31328171 9.6029961,4.31328171 7.140106,0 12.928305,-5.77947276 12.928305,-12.9088142 0,-3.8195337 -1.679248,-7.2250387 -4.319794,-9.5885187 z"
           style="color:#000000;display:inline;overflow:visible;visibility:visible;fill:#ffffff;fill-opacity:0.22491;fill-rule:nonzero;stroke:none;stroke-width:2.48434;marker:none;enable-background:accumulate"
           inkscape:connector-curvature="0" />
        <path
           sodipodi:nodetypes="ccccccccccccccc"
           inkscape:connector-curvature="0"
           style="color:#000000;display:inline;overflow:visible;visibility:visible;fill:#4d4d4d;fill-opacity:0.308244;fill-rule:nonzero;stroke:none;stroke-width:2.48434;marker:none;enable-background:accumulate"
           d="m 17.485795,-19.70121 -3.977941,9.9298572 -9.9448496,3.9719429 1.9889701,1.9859715 h 7.9558795 l -1.988969,5.9579141 1.988969,1.9859715 h 5.966911 v -7.9438856 h 7.95588 v -5.9579144 l -1.98897,-1.9859722 -5.96691,1.9859722 v -7.9438852 z"
           id="path3801" />
        <path
           inkscape:connector-curvature="0"
           style="color:#000000;display:inline;overflow:visible;visibility:visible;fill:#b2b2b2;fill-opacity:1;fill-rule:nonzero;stroke:none;stroke-width:2.48434;marker:none;enable-background:accumulate"
           d="m 11.518885,-19.70121 v 7.943885 H 3.5630044 v 5.9579151 h 7.9558806 v 7.9438856 h 5.96691 v -7.9438856 h 7.95588 v -5.9579151 h -7.95588 v -7.943885 z"
           id="path3799" />
        <ellipse
           cy="-8.778367"
           cx="14.502339"
           id="path4184"
           style="color:#000000;display:inline;overflow:visible;visibility:visible;fill:#c5c5c5;fill-opacity:1;fill-rule:nonzero;stroke:none;stroke-width:2.48434;marker:none;enable-background:accumulate"
           rx="1.98897"
           ry="1.9859713" />
        <path
           style="font-style:normal;font-variant:normal;font-weight:bold;font-stretch:normal;font-size:21.778px;line-height:125%;font-family:'Space Age';-inkscape-font-specification:'Space Age Bold';letter-spacing:0px;word-spacing:0px;fill:#000000;fill-opacity:0.514523;stroke:none;stroke-width:0.834357"
           d="m -22.922371,-26.925217 c 0.152077,-0.414058 0.384957,-0.828121 0.698645,-1.242188 0.331149,-0.424953 0.720361,-0.806327 1.16764,-1.144122 0.451271,-0.348677 0.945869,-0.631983 1.483796,-0.849918 0.537915,-0.21792 1.096417,-0.326884 1.675509,-0.326892 h 11.7769493 c 0.2693215,8e-6 0.4702469,0.07628 0.6027767,0.228823 0.1324896,0.152559 0.1587237,0.337797 0.078703,0.555717 -0.080061,0.217934 -0.2423662,0.403173 -0.4869141,0.555716 -0.2445876,0.152556 -0.5015421,0.228831 -0.7708641,0.228824 H -18.048868 c -0.471354,7e-6 -0.881178,0.07084 -1.229474,0.21248 -0.33084,0.130763 -0.619811,0.294209 -0.866914,0.490337 -0.233647,0.196142 -0.428159,0.414069 -0.583535,0.653784 -0.137918,0.22883 -0.242896,0.441308 -0.314922,0.637439 -0.07203,0.196139 -0.125144,0.414066 -0.159324,0.653782 -0.01671,0.22883 0.01972,0.441308 0.109288,0.63744 0.10303,0.196138 0.269939,0.365033 0.500725,0.506682 0.248244,0.13076 0.608044,0.196138 1.079397,0.196136 h 11.3527364 c 0.2693236,2e-6 0.470249,0.07628 0.6027769,0.228823 0.1324915,0.152552 0.1587255,0.337791 0.078703,0.555717 -0.080059,0.217929 -0.2423643,0.403167 -0.4869143,0.555716 -0.2445853,0.152551 -0.5015399,0.228825 -0.7708639,0.228824 H -20.716145 c -0.552155,10e-7 -1.003681,-0.108963 -1.354582,-0.326892 -0.350907,-0.217926 -0.619198,-0.495784 -0.804874,-0.833574 -0.168212,-0.348682 -0.255078,-0.735504 -0.260599,-1.160466 -0.0055,-0.424955 0.06575,-0.839017 0.213829,-1.242188"
           id="path4345"
           inkscape:connector-curvature="0" />
        <path
           style="font-style:normal;font-variant:normal;font-weight:bold;font-stretch:normal;font-size:21.778px;line-height:125%;font-family:'Space Age';-inkscape-font-specification:'Space Age Bold';letter-spacing:0px;word-spacing:0px;fill:#000000;fill-opacity:0.514523;stroke:none;stroke-width:0.834357"
           d="m -3.3977769,-29.703797 c 0.080037,-0.21792 0.2423422,-0.403158 0.4869143,-0.555717 0.2445634,-0.152541 0.5015179,-0.228815 0.7708639,-0.228823 h 12.100159 c 0.3770597,8e-6 0.7051927,0.05994 0.9843957,0.179791 0.296639,0.108972 0.530151,0.261521 0.70054,0.457647 0.183817,0.196143 0.295047,0.424967 0.333685,0.686474 0.05208,0.26152 0.02209,0.544825 -0.08995,0.849918 -0.112077,0.305104 -0.2902,0.58841 -0.534369,0.849919 -0.230738,0.261518 -0.510054,0.490341 -0.837948,0.686472 -0.314462,0.196139 -0.6620331,0.354137 -1.042716,0.473993 -0.3632461,0.108968 -0.7334003,0.16345 -1.1104618,0.163446 H -2.1409797 c -0.183081,0.0218 -0.3552309,0.08718 -0.5164506,0.196135 -0.1612287,0.108968 -0.2718563,0.245172 -0.3318832,0.408614 l -0.5102648,1.389291 c -0.080045,0.217929 -0.2490832,0.403167 -0.507115,0.555716 -0.2445707,0.152551 -0.4947917,0.228825 -0.7506631,0.228824 -0.2693436,10e-7 -0.4702688,-0.07627 -0.602777,-0.228824 -0.1325114,-0.152549 -0.1587456,-0.337787 -0.078703,-0.555716 l 0.5762991,-1.569081 c 0.1000494,-0.272405 0.2546999,-0.52847 0.4639516,-0.768195 0.2132485,-0.250613 0.459627,-0.463092 0.7391365,-0.63744 0.2969716,-0.185233 0.6048725,-0.326885 0.9237038,-0.424959 0.3362914,-0.108958 0.679511,-0.16344 1.0296599,-0.163445 H 9.0204336 c 0.2019894,5e-6 0.3970714,-0.05447 0.5852465,-0.163446 0.2056109,-0.119855 0.3404405,-0.266956 0.4044919,-0.441304 0.06002,-0.16344 0.03124,-0.305093 -0.08633,-0.424959 -0.1041321,-0.119855 -0.2571921,-0.179784 -0.459181,-0.179791 H -2.7162976 c -0.2693456,7e-6 -0.470271,-0.07627 -0.6027768,-0.228824 -0.1325136,-0.152543 -0.1587477,-0.337782 -0.078703,-0.555716"
           id="path4347"
           inkscape:connector-curvature="0" />
        <path
           inkscape:connector-curvature="0"
           d="m -23.778238,-26.030226 c 0.152077,-0.414059 0.384957,-0.828121 0.698646,-1.242189 0.331148,-0.424953 0.720361,-0.806326 1.167639,-1.144122 0.451271,-0.348676 0.94587,-0.631983 1.483797,-0.849918 0.537915,-0.217919 1.096416,-0.326883 1.675509,-0.326891 h 11.7769489 c 0.2693215,8e-6 0.4702469,0.07628 0.6027767,0.228823 0.1324896,0.152558 0.1587237,0.337796 0.078703,0.555716 -0.080061,0.217935 -0.2423662,0.403174 -0.4869141,0.555717 -0.2445876,0.152556 -0.5015421,0.228831 -0.7708642,0.228824 H -18.904735 c -0.471353,7e-6 -0.881178,0.07084 -1.229473,0.212479 -0.33084,0.130763 -0.619811,0.294209 -0.866914,0.490338 -0.233648,0.196141 -0.428159,0.414068 -0.583535,0.653783 -0.137919,0.228831 -0.242896,0.441309 -0.314923,0.63744 -0.07203,0.196139 -0.125144,0.414066 -0.159323,0.653782 -0.01671,0.228829 0.01972,0.441308 0.109289,0.63744 0.10303,0.196137 0.269937,0.365032 0.500723,0.506682 0.248245,0.130759 0.608044,0.196138 1.079397,0.196136 h 11.352737 c 0.2693236,2e-6 0.470249,0.07628 0.6027768,0.228823 0.1324916,0.152552 0.1587256,0.337791 0.078703,0.555716 -0.080059,0.21793 -0.2423643,0.403168 -0.4869144,0.555716 -0.2445852,0.152551 -0.5015398,0.228826 -0.7708638,0.228825 H -21.572012 c -0.552155,1e-6 -1.003681,-0.108963 -1.354581,-0.326892 -0.350907,-0.217927 -0.619199,-0.495784 -0.804875,-0.833574 -0.16821,-0.348682 -0.255077,-0.735504 -0.260598,-1.160466 -0.0055,-0.424955 0.06575,-0.839018 0.213828,-1.242188"
           style="font-style:normal;font-variant:normal;font-weight:bold;font-stretch:normal;font-size:21.778px;line-height:125%;font-family:'Space Age';-inkscape-font-specification:'Space Age Bold';letter-spacing:0px;word-spacing:0px;fill:#dbe3e2;fill-opacity:0.390042;stroke:none;stroke-width:0.834357"
           id="path4357" />
        <path
           inkscape:connector-curvature="0"
           d="m -4.2536433,-28.808807 c 0.080037,-0.21792 0.2423422,-0.403158 0.4869143,-0.555716 0.2445634,-0.152541 0.5015178,-0.228815 0.7708639,-0.228823 H 9.1042941 c 0.3770599,8e-6 0.7051923,0.05994 0.9843959,0.17979 0.296639,0.108972 0.53015,0.261522 0.700539,0.457647 0.183818,0.196144 0.295047,0.424967 0.333687,0.686474 0.05208,0.261521 0.02209,0.544826 -0.08995,0.849918 -0.112078,0.305105 -0.2902,0.588411 -0.53437,0.849919 -0.230738,0.261519 -0.5100534,0.490342 -0.837947,0.686473 -0.3144625,0.196138 -0.6620335,0.354137 -1.0427164,0.473993 -0.3632462,0.108967 -0.7334004,0.163449 -1.1104618,0.163445 H -2.9968461 c -0.183081,0.0218 -0.3552309,0.08718 -0.5164507,0.196136 -0.1612286,0.108968 -0.2718562,0.245172 -0.3318831,0.408614 l -0.5102648,1.38929 c -0.080045,0.21793 -0.2490832,0.403168 -0.507115,0.555716 -0.2445707,0.152551 -0.4947917,0.228826 -0.7506632,0.228825 -0.2693435,1e-6 -0.4702688,-0.07627 -0.6027769,-0.228825 -0.1325114,-0.152548 -0.1587456,-0.337786 -0.078703,-0.555716 l 0.5762991,-1.569081 c 0.1000494,-0.272405 0.2546999,-0.528469 0.4639516,-0.768194 0.2132484,-0.250613 0.459627,-0.463093 0.7391365,-0.63744 0.2969716,-0.185233 0.6048725,-0.326886 0.9237038,-0.424959 0.3362914,-0.108959 0.679511,-0.163441 1.0296598,-0.163446 H 8.1645672 c 0.2019894,5e-6 0.3970713,-0.05447 0.5852465,-0.163446 0.2056109,-0.119854 0.3404404,-0.266955 0.4044916,-0.441304 0.060013,-0.163439 0.031238,-0.305092 -0.086327,-0.424959 -0.1041321,-0.119854 -0.2571922,-0.179783 -0.4591811,-0.17979 H -3.5721641 c -0.2693455,7e-6 -0.4702709,-0.07627 -0.6027767,-0.228824 -0.1325136,-0.152543 -0.1587478,-0.337782 -0.078703,-0.555717"
           style="font-style:normal;font-variant:normal;font-weight:bold;font-stretch:normal;font-size:21.778px;line-height:125%;font-family:'Space Age';-inkscape-font-specification:'Space Age Bold';letter-spacing:0px;word-spacing:0px;fill:#dbe3e2;fill-opacity:0.427386;stroke:none;stroke-width:0.834357"
           id="path4359" />
        <rect
           ry="1.9859713"
           rx="1.98897"
           y="-33.170567"
           x="40.827324"
           height="3.9719427"
           width="11.933821"
           id="rect4266"
           style="color:#000000;display:inline;overflow:visible;visibility:visible;fill:#4d4d4d;fill-opacity:0.308244;fill-rule:nonzero;stroke:none;stroke-width:2.48434;marker:none;enable-background:accumulate" />
        <rect
           style="color:#000000;display:inline;overflow:visible;visibility:visible;fill:url(#radialGradient4270);fill-opacity:1;fill-rule:nonzero;stroke:none;stroke-width:2.48434;marker:none;enable-background:accumulate"
           id="rect4268"
           width="11.933821"
           height="3.9719427"
           x="39.832836"
           y="-34.163548"
           rx="1.98897"
           ry="1.9859713" />
        <rect
           style="color:#000000;display:inline;overflow:visible;visibility:visible;fill:#4d4d4d;fill-opacity:0.308244;fill-rule:nonzero;stroke:none;stroke-width:2.48434;marker:none;enable-background:accumulate"
           id="rect3858"
           width="9.9398756"
           height="12.91529"
           x="6.3016953"
           y="28.42424"
           rx="4.9699378"
           ry="4.9674182"
           inkscape:transform-center-y="1.0584437"
           transform="matrix(0.81774293,-0.57558361,0.57674508,0.81692418,0,0)"
           inkscape:transform-center-x="-1.0584437" />
        <ellipse
           id="path3854-9"
           style="color:#000000;display:inline;overflow:visible;visibility:visible;fill:url(#linearGradient3477);fill-opacity:1;fill-rule:nonzero;stroke:none;stroke-width:2.48434;marker:none;enable-background:accumulate"
           transform="matrix(0.98539521,0.17028294,-0.17078259,0.98530874,0,0)"
           cx="31.60812"
           cy="15.638104"
           rx="4.9722071"
           ry="4.9651465" />
        <ellipse
           id="path3778"
           style="color:#000000;display:inline;overflow:visible;visibility:visible;fill:url(#linearGradient3479);fill-opacity:1;fill-rule:nonzero;stroke:none;stroke-width:1.98747;marker:none;enable-background:accumulate"
           transform="matrix(0.98539521,0.17028295,-0.17078258,0.98530874,0,0)"
           cx="31.60812"
           cy="15.638105"
           rx="3.9777658"
           ry="3.9721172" />
        <rect
           inkscape:transform-center-x="-1.0584458"
           transform="matrix(0.81774293,-0.57558361,0.57674508,0.81692418,0,0)"
           inkscape:transform-center-y="1.0584433"
           ry="4.9674182"
           rx="4.9699378"
           y="9.7067623"
           x="-18.564056"
           height="12.91529"
           width="9.9398756"
           id="rect4132"
           style="color:#000000;display:inline;overflow:visible;visibility:visible;fill:#4d4d4d;fill-opacity:0.308244;fill-rule:nonzero;stroke:none;stroke-width:2.48434;marker:none;enable-background:accumulate" />
        <ellipse
           transform="matrix(0.98539521,0.17028294,-0.17078259,0.98530874,0,0)"
           style="color:#000000;display:inline;overflow:visible;visibility:visible;fill:url(#linearGradient3481);fill-opacity:1;fill-rule:nonzero;stroke:none;stroke-width:2.48434;marker:none;enable-background:accumulate"
           id="path4134"
           cx="0.76933098"
           cy="19.974695"
           rx="4.9722071"
           ry="4.9651465" />
        <ellipse
           transform="matrix(0.98539521,0.17028295,-0.17078258,0.98530874,0,0)"
           style="color:#000000;display:inline;overflow:visible;visibility:visible;fill:url(#linearGradient3483);fill-opacity:1;fill-rule:nonzero;stroke:none;stroke-width:1.98747;marker:none;enable-background:accumulate"
           id="path4136"
           cx="0.76933044"
           cy="19.974695"
           rx="3.9777658"
           ry="3.9721172" />
        <rect
           inkscape:transform-center-x="-1.0584425"
           transform="matrix(0.81774293,-0.57558361,0.57674508,0.81692418,0,0)"
           inkscape:transform-center-y="1.0584438"
           ry="4.9674182"
           rx="4.9699378"
           y="25.13151"
           x="-11.970951"
           height="12.91529"
           width="9.9398756"
           id="rect4156"
           style="color:#000000;display:inline;overflow:visible;visibility:visible;fill:#4d4d4d;fill-opacity:0.308244;fill-rule:nonzero;stroke:none;stroke-width:2.48434;marker:none;enable-background:accumulate" />
        <ellipse
           transform="matrix(0.98539521,0.17028294,-0.17078259,0.98530874,0,0)"
           style="color:#000000;display:inline;overflow:visible;visibility:visible;fill:url(#linearGradient3485);fill-opacity:1;fill-rule:nonzero;stroke:none;stroke-width:2.48434;marker:none;enable-background:accumulate"
           id="path4158"
           cx="16.350952"
           cy="26.219116"
           rx="4.9722071"
           ry="4.9651465" />
        <ellipse
           transform="matrix(0.98539521,0.17028295,-0.17078258,0.98530874,0,0)"
           style="color:#000000;display:inline;overflow:visible;visibility:visible;fill:url(#linearGradient3487);fill-opacity:1;fill-rule:nonzero;stroke:none;stroke-width:1.98747;marker:none;enable-background:accumulate"
           id="path4160"
           cx="16.350952"
           cy="26.219116"
           rx="3.9777658"
           ry="3.9721172" />
        <rect
           inkscape:transform-center-x="-1.0584437"
           transform="matrix(0.81774293,-0.57558361,0.57674508,0.81692418,0,0)"
           inkscape:transform-center-y="1.0584435"
           ry="4.9674182"
           rx="4.9699378"
           y="22.824759"
           x="25.553537"
           height="12.91529"
           width="9.9398756"
           id="rect4144"
           style="color:#000000;display:inline;overflow:visible;visibility:visible;fill:#4d4d4d;fill-opacity:0.308244;fill-rule:nonzero;stroke:none;stroke-width:2.48434;marker:none;enable-background:accumulate" />
        <ellipse
           transform="matrix(0.98539521,0.17028294,-0.17078259,0.98530874,0,0)"
           style="color:#000000;display:inline;overflow:visible;visibility:visible;fill:url(#linearGradient3489);fill-opacity:1;fill-rule:nonzero;stroke:none;stroke-width:2.48434;marker:none;enable-background:accumulate"
           id="path4146"
           cx="41.264194"
           cy="-1.9194995"
           rx="4.9722071"
           ry="4.9651465" />
        <ellipse
           transform="matrix(0.98539521,0.17028295,-0.17078258,0.98530874,0,0)"
           style="color:#000000;display:inline;overflow:visible;visibility:visible;fill:url(#linearGradient3491);fill-opacity:1;fill-rule:nonzero;stroke:none;stroke-width:1.98747;marker:none;enable-background:accumulate"
           id="path4148"
           cx="41.264194"
           cy="-1.9194995"
           rx="3.9777658"
           ry="3.9721172" />
        <rect
           style="color:#000000;display:inline;overflow:visible;visibility:visible;fill:#4d4d4d;fill-opacity:0.308244;fill-rule:nonzero;stroke:none;stroke-width:2.48434;marker:none;enable-background:accumulate"
           id="rect3511"
           width="9.9398756"
           height="12.91529"
           x="-20.865047"
           y="-9.8805752"
           rx="4.9699378"
           ry="4.9674182"
           inkscape:transform-center-y="1.0584429"
           transform="matrix(0.81774293,-0.57558361,0.57674508,0.81692418,0,0)"
           inkscape:transform-center-x="-1.0584445" />
        <ellipse
           cy="7.7561684"
           cx="-14.72215"
           id="path3513"
           style="color:#000000;display:inline;overflow:visible;visibility:visible;fill:url(#linearGradient4300);fill-opacity:1;fill-rule:nonzero;stroke:none;stroke-width:2.48434;marker:none;enable-background:accumulate"
           transform="matrix(0.98539521,0.17028294,-0.17078259,0.98530874,0,0)"
           rx="4.9722071"
           ry="4.9651465" />
        <ellipse
           cy="7.7561688"
           cx="-14.72215"
           id="path3515"
           style="color:#000000;display:inline;overflow:visible;visibility:visible;fill:url(#linearGradient4302);fill-opacity:1;fill-rule:nonzero;stroke:none;stroke-width:1.98747;marker:none;enable-background:accumulate"
           transform="matrix(0.98539521,0.17028295,-0.17078258,0.98530874,0,0)"
           rx="3.9777658"
           ry="3.9721172" />
        <rect
           style="color:#000000;display:inline;overflow:visible;visibility:visible;fill:#4d4d4d;fill-opacity:0.308244;fill-rule:nonzero;stroke:none;stroke-width:2.48434;marker:none;enable-background:accumulate"
           id="rect4314"
           width="11.933821"
           height="3.9719427"
           x="40.827324"
           y="-27.212652"
           rx="1.98897"
           ry="1.9859713" />
        <rect
           ry="1.9859713"
           rx="1.98897"
           y="-28.205639"
           x="39.832836"
           height="3.9719427"
           width="11.933821"
           id="rect4316"
           style="color:#000000;display:inline;overflow:visible;visibility:visible;fill:url(#radialGradient4322);fill-opacity:1;fill-rule:nonzero;stroke:none;stroke-width:2.48434;marker:none;enable-background:accumulate" />
        <rect
           ry="1.98897"
           rx="1.9859713"
           y="-15.60273"
           x="-13.977129"
           height="3.9779401"
           width="11.91583"
           id="rect4326"
           style="color:#000000;display:inline;overflow:visible;visibility:visible;fill:#4d4d4d;fill-opacity:0.308244;fill-rule:nonzero;stroke:none;stroke-width:2.48434;marker:none;enable-background:accumulate"
           transform="rotate(90)" />
        <rect
           style="color:#000000;display:inline;overflow:visible;visibility:visible;fill:url(#radialGradient4330);fill-opacity:1;fill-rule:nonzero;stroke:none;stroke-width:2.48434;marker:none;enable-background:accumulate"
           id="rect4328"
           width="11.91583"
           height="3.9779401"
           x="-14.970114"
           y="-16.597216"
           rx="1.9859713"
           ry="1.98897"
           transform="rotate(90)" />
        <path
           sodipodi:nodetypes="cssscc"
           inkscape:connector-curvature="0"
           style="color:#000000;display:inline;overflow:visible;visibility:visible;fill:#ffffff;fill-opacity:0.344398;stroke:none;stroke-width:2.27602;marker:none;enable-background:accumulate"
           d="M -2.3812401,-35.961183 H 52.965318 c 2.560808,0 4.622397,1.852179 4.622397,4.152869 v 64.369483 c 0,2.300692 -2.061589,4.152871 -4.622397,4.152871 C -2.1758551,-35.966001 52.38162,36.415552 -2.3812401,-35.961183 Z"
           id="path3816" />
        <path
           inkscape:connector-curvature="0"
           id="path5696"
           d="m 55.149327,-41.119315 h -81.576182 c -3.766104,0 -6.798014,3.027343 -6.798014,6.787764 v 81.453205 c 0,3.760414 3.03191,6.787755 6.798014,6.787755 h 81.576182 c 3.766101,0 6.798015,-3.027341 6.798015,-6.787755 v -81.453205 c 0,-3.760421 -3.031914,-6.787764 -6.798015,-6.787764 z"
           style="display:inline;opacity:0.822887;fill:url(#linearGradient1059);fill-opacity:1;fill-rule:nonzero;stroke:none;stroke-width:0.99791" />
      </g>
    </g>
  </g>
</svg>
