<?xml version="1.0" encoding="UTF-8" standalone="no"?>
<!-- Created with Inkscape (http://www.inkscape.org/) -->

<svg
   xmlns:dc="http://purl.org/dc/elements/1.1/"
   xmlns:cc="http://creativecommons.org/ns#"
   xmlns:rdf="http://www.w3.org/1999/02/22-rdf-syntax-ns#"
   xmlns:svg="http://www.w3.org/2000/svg"
   xmlns="http://www.w3.org/2000/svg"
   xmlns:xlink="http://www.w3.org/1999/xlink"
   xmlns:sodipodi="http://sodipodi.sourceforge.net/DTD/sodipodi-0.dtd"
   xmlns:inkscape="http://www.inkscape.org/namespaces/inkscape"
   width="96"
   height="96"
   viewBox="0 0 96.000001 96.000004"
   version="1.1"
   id="svg1072"
   inkscape:version="0.92.2 5c3e80d, 2017-08-06"
   sodipodi:docname="pragha-player-icon.svg">
  <title
     id="title4179">Lila-HD-Icon-Theme</title>
  <defs
     id="defs1066">
    <linearGradient
       y2="47.000011"
       x2="90"
       y1="47.000011"
       x1="6"
       gradientTransform="matrix(1.1059895,0,0,1.1071426,-5.2385469,-3.3706609)"
       gradientUnits="userSpaceOnUse"
       id="linearGradient4071"
       xlink:href="#linearGradient6139-0"
       inkscape:collect="always" />
    <linearGradient
       id="linearGradient6139-0">
      <stop
         style="stop-color:#b2babc;stop-opacity:1"
         offset="0"
         id="stop6141-2" />
      <stop
         id="stop6151-0"
         offset="0.25"
         style="stop-color:#ffffff;stop-opacity:1;" />
      <stop
         id="stop6147-1"
         offset="0.5"
         style="stop-color:#96a1a4;stop-opacity:1" />
      <stop
         style="stop-color:#fbf9f9;stop-opacity:1;"
         offset="0.75"
         id="stop6149-4" />
      <stop
         style="stop-color:#b2b9bc;stop-opacity:1"
         offset="1"
         id="stop6143-4" />
    </linearGradient>
    <linearGradient
       gradientUnits="userSpaceOnUse"
       y2="88.171875"
       x2="94.5"
       y1="88.171875"
       x1="1.5"
       id="linearGradient4129"
       xlink:href="#linearGradient3832-0-6-1-1"
       inkscape:collect="always"
       gradientTransform="matrix(0.99895835,0,0,0.99999997,-0.10104801,0.66505199)" />
    <linearGradient
       id="linearGradient3832-0-6-1-1">
      <stop
         id="stop3834-6-3-7-1"
         offset="0"
         style="stop-color:#000000;stop-opacity:1;" />
      <stop
         style="stop-color:#000000;stop-opacity:0.58823532;"
         offset="0.1"
         id="stop3872-2-4" />
      <stop
         id="stop3844-6-2-7-6"
         offset="0.89999998"
         style="stop-color:#000000;stop-opacity:0.58823532;" />
      <stop
         id="stop3836-5-0-2-9"
         offset="1"
         style="stop-color:#000000;stop-opacity:1;" />
    </linearGradient>
    <radialGradient
       r="43.199203"
       fy="44.892841"
       fx="13.948145"
       cy="44.892841"
       cx="13.948145"
       gradientTransform="matrix(0.97411799,0,0,0.04919072,33.762335,80.831749)"
       gradientUnits="userSpaceOnUse"
       id="radialGradient7462"
       xlink:href="#linearGradient3737"
       inkscape:collect="always" />
    <linearGradient
       id="linearGradient3737">
      <stop
         id="stop3739"
         style="stop-color:#ffffff;stop-opacity:1"
         offset="0" />
      <stop
         id="stop3741"
         style="stop-color:#ffffff;stop-opacity:0"
         offset="1" />
    </linearGradient>
    <radialGradient
       r="43.199203"
       fy="44.892841"
       fx="13.948145"
       cy="44.892841"
       cx="13.948145"
       gradientTransform="matrix(0.88832662,0,0,0.04913948,32.209544,-89.973331)"
       gradientUnits="userSpaceOnUse"
       id="radialGradient7464"
       xlink:href="#linearGradient3737"
       inkscape:collect="always" />
    <linearGradient
       y2="14.514202"
       x2="50.527882"
       y1="-28.64156"
       x1="2.7713892"
       gradientUnits="userSpaceOnUse"
       id="linearGradient4767"
       xlink:href="#linearGradient3737"
       inkscape:collect="always"
       gradientTransform="matrix(1.0041884,0,0,1.0052356,-0.21820995,-0.04755458)" />
    <clipPath
       clipPathUnits="userSpaceOnUse"
       id="clipPath4156-4-1">
      <path
         style="opacity:0.6;fill:#ffffff;fill-opacity:1;stroke:none"
         d="m 27.046336,-55.695463 -14.21366,13.321486 h 0.06127 l 15.653407,21.770763 10.231384,-10.546177 C 38.561832,-32.30156 27.468089,-54.819245 27.046336,-55.695463 Z M 9.6468554,-39.382809 -5.2407289,-25.32124 15.987863,-7.8059573 26.372412,-18.382966 Z m 31.4906096,12.951445 -9.741259,9.713584 8.944804,12.4580526 7.780753,-7.5550056 z m -49.8397109,4.378822 -13.7541661,12.9822847 26.2830181,13.84571 0.06127,-0.0617 -0.122531,-0.0617 L 13.598503,-5.4007374 -8.7022409,-22.052595 Z m 38.0154159,7.400825 -9.802525,9.7752596 11.579232,9.5594001 7.62759,-7.40083 -8.669108,-11.0087257 z m 20.187073,5.6739697 -7.382526,7.2158 6.187844,8.54179 5.820249,-6.13651996 z m -32.195166,6.32154 -9.5574606,9.49772 13.6622686,7.1849703 7.933918,-7.6783603 z m 23.311629,2.37443004 -7.10683,6.93826996 8.362778,6.9074403 5.360756,-5.6739699 -0.06127,-0.0925 -0.0919,0.12335 -6.463539,-8.20258036 z m -8.730374,8.54178036 -7.505057,7.3391599 10.353916,5.45811 c 1.397496,-1.32103 5.67514,-6.12292 5.850882,-6.32154 z"
         id="path4158-0-8"
         inkscape:connector-curvature="0" />
    </clipPath>
    <linearGradient
       gradientUnits="userSpaceOnUse"
       y2="7.0165396"
       x2="45.447727"
       y1="92.539597"
       x1="45.447727"
       gradientTransform="scale(1.0058652,0.994169)"
       id="ButtonShadow-16">
      <stop
         id="stop3750-6"
         offset="0"
         style="stop-color:#000000;stop-opacity:1;" />
      <stop
         id="stop3752-4"
         offset="1"
         style="stop-color:#000000;stop-opacity:0.58823532;" />
    </linearGradient>
    <clipPath
       id="clipPath4355-7"
       clipPathUnits="userSpaceOnUse">
      <rect
         ry="6"
         rx="6"
         y="6"
         x="6"
         height="80"
         width="84"
         id="rect4357-5"
         style="fill:#ffffff;fill-opacity:1;fill-rule:nonzero;stroke:none" />
    </clipPath>
    <clipPath
       id="clipPath4355-9"
       clipPathUnits="userSpaceOnUse">
      <rect
         ry="6"
         rx="6"
         y="6"
         x="6"
         height="80"
         width="84"
         id="rect4357-1"
         style="fill:#ffffff;fill-opacity:1;fill-rule:nonzero;stroke:none" />
    </clipPath>
    <clipPath
       id="clipPath4355-1"
       clipPathUnits="userSpaceOnUse">
      <rect
         ry="6"
         rx="6"
         y="6"
         x="6"
         height="80"
         width="84"
         id="rect4357-9"
         style="fill:#ffffff;fill-opacity:1;fill-rule:nonzero;stroke:none" />
    </clipPath>
    <clipPath
       id="clipPath3943-52-0"
       clipPathUnits="userSpaceOnUse">
      <path
         inkscape:connector-curvature="0"
         style="color:#000000;display:inline;overflow:visible;visibility:visible;opacity:0.8;fill:#ff00ff;fill-opacity:1;fill-rule:nonzero;stroke:none;stroke-width:1;marker:none;enable-background:accumulate"
         d="m 69.78125,20.84375 -5,3.4375 c 5.586891,5.537137 9,13.327613 9,21.8125 0,8.434478 -3.37723,16.095981 -8.90625,21.625 l 5,3.4375 C 76.078226,64.5762 80,55.843726 80,46.09375 c 2e-6,-9.796556 -3.962955,-18.660417 -10.21875,-25.25 z M 40,24.0625 28.90625,36.21875 H 21.5 c -0.823281,0 -1.5,0.676717 -1.5,1.5 v 1 14.84375 1 c 0,0.823281 0.684121,1.610161 1.5,1.5 h 7.40625 L 40,68 V 66 26.0625 Z m 20.59375,3.28125 -5,3.4375 L 55.5,30.875 c 3.93815,3.890071 6.40625,9.25018 6.40625,15.21875 0,5.920869 -2.42961,11.148358 -6.3125,15.03125 l 0.09375,0.09375 5.09375,3.4375 c 4.475428,-4.908367 7.25,-11.402005 7.25,-18.5625 0,-7.230696 -2.87904,-13.83107 -7.4375,-18.75 z m -9.25,6.5 -5.21875,3.625 c 2.222384,2.217802 3.71875,5.239596 3.71875,8.625 0,3.336509 -1.458847,6.227712 -3.625,8.4375 l 5.21875,3.625 c 2.822412,-3.236947 4.53125,-7.43414 4.53125,-12.0625 0,-4.672601 -1.754155,-9.001351 -4.625,-12.25 z"
         id="path3945-4-1" />
    </clipPath>
  </defs>
  <sodipodi:namedview
     id="base"
     pagecolor="#ffffff"
     bordercolor="#666666"
     borderopacity="1.0"
     inkscape:pageopacity="0.0"
     inkscape:pageshadow="2"
     inkscape:zoom="2.0960439"
     inkscape:cx="106.80945"
     inkscape:cy="45.17084"
     inkscape:document-units="px"
     inkscape:current-layer="g873"
     showgrid="false"
     inkscape:showpageshadow="false"
     units="px"
     inkscape:lockguides="true"
     inkscape:window-width="1280"
     inkscape:window-height="945"
     inkscape:window-x="0"
     inkscape:window-y="20"
     inkscape:window-maximized="1"
     inkscape:snap-global="false">
    <sodipodi:guide
       position="0,0"
       orientation="0,96"
       id="guide1621"
       inkscape:locked="true" />
    <sodipodi:guide
       position="96.000002,0"
       orientation="-96,0"
       id="guide1623"
       inkscape:locked="true" />
    <sodipodi:guide
       position="96.000002,96.000002"
       orientation="0,-96"
       id="guide1625"
       inkscape:locked="true" />
    <sodipodi:guide
       position="0,96.000002"
       orientation="96,0"
       id="guide1627"
       inkscape:locked="true" />
  </sodipodi:namedview>
  <metadata
     id="metadata1069">
    <rdf:RDF>
      <cc:Work
         rdf:about="">
        <dc:format>image/svg+xml</dc:format>
        <dc:type
           rdf:resource="http://purl.org/dc/dcmitype/StillImage" />
        <dc:title>Lila-HD-Icon-Theme</dc:title>
        <dc:date>2015-2017</dc:date>
        <dc:creator>
          <cc:Agent>
            <dc:title>Cristian Pozzessere  &lt; ilnanny &gt;</dc:title>
          </cc:Agent>
        </dc:creator>
        <dc:subject>
          <rdf:Bag>
            <rdf:li>ilnanny</rdf:li>
            <rdf:li>lila_hd</rdf:li>
            <rdf:li>lila-hd</rdf:li>
            <rdf:li>lila hd icon theme</rdf:li>
            <rdf:li>Lila-HD-Icon-Theme lila hd icon lila icon</rdf:li>
          </rdf:Bag>
        </dc:subject>
        <dc:description>Playing with Inkscape on Gnu/Linux O. S.</dc:description>
        <dc:contributor>
          <cc:Agent>
            <dc:title>In the night, alone like a dog.</dc:title>
          </cc:Agent>
        </dc:contributor>
        <cc:license
           rdf:resource="http://creativecommons.org/licenses/by-sa/3.0/" />
      </cc:Work>
      <cc:License
         rdf:about="http://creativecommons.org/licenses/by-sa/3.0/">
        <cc:permits
           rdf:resource="http://creativecommons.org/ns#Reproduction" />
        <cc:permits
           rdf:resource="http://creativecommons.org/ns#Distribution" />
        <cc:requires
           rdf:resource="http://creativecommons.org/ns#Notice" />
        <cc:requires
           rdf:resource="http://creativecommons.org/ns#Attribution" />
        <cc:permits
           rdf:resource="http://creativecommons.org/ns#DerivativeWorks" />
        <cc:requires
           rdf:resource="http://creativecommons.org/ns#ShareAlike" />
      </cc:License>
    </rdf:RDF>
  </metadata>
  <g
     inkscape:label="Livello 1"
     inkscape:groupmode="layer"
     id="layer1"
     transform="translate(0,-1026.5197)">
    <g
       transform="translate(-0.14895645,1026.1047)"
       style="display:inline"
       id="g2574">
      <g
         id="g873"
         transform="translate(0.2500015,-0.250026)">
        <path
           style="display:inline;opacity:0.15;fill:#000000;fill-opacity:1;fill-rule:nonzero;stroke:none;stroke-width:0.99947876"
           d="M 88.827522,0.915026 H 6.9703768 c -3.7790623,0 -6.8214209,3.0423565 -6.8214209,6.8214257 V 89.593598 c 0,3.779071 3.0423586,6.821428 6.8214209,6.821428 H 88.827522 c 3.779072,0 6.821432,-3.042357 6.821432,-6.821428 V 7.7364517 c 0,-3.7790692 -3.04236,-6.8214257 -6.821432,-6.8214257 z"
           id="path3288"
           inkscape:connector-curvature="0" />
        <path
           inkscape:connector-curvature="0"
           id="path4085"
           d="M 88.188015,1.6611196 H 7.6098844 c -3.7200154,0 -6.71483658,2.9948194 -6.71483658,6.7148408 V 88.954089 c 0,3.720023 2.99482118,6.714843 6.71483658,6.714843 H 88.188015 c 3.720024,0 6.714845,-2.99482 6.714845,-6.714843 V 8.3759604 c 0,-3.7200214 -2.994821,-6.7148408 -6.714845,-6.7148408 z"
           style="display:inline;opacity:0.15;fill:#000000;fill-opacity:1;fill-rule:nonzero;stroke:none;stroke-width:0.99947876" />
        <path
           style="display:inline;fill:url(#linearGradient4071);fill-opacity:1;fill-rule:nonzero;stroke:none;stroke-width:0.99947876"
           d="M 87.5485,2.4072135 H 8.2494003 c -3.6609756,0 -6.6082583,2.9472821 -6.6082583,6.6082567 V 88.314581 c 0,3.660975 2.9472827,6.608259 6.6082583,6.608259 H 87.5485 c 3.660978,0 6.608258,-2.947284 6.608258,-6.608259 V 9.0154702 c 0,-3.6609746 -2.94728,-6.6082567 -6.608258,-6.6082567 z"
           id="rect4251-1"
           inkscape:connector-curvature="0" />
        <rect
           ry="3.5"
           rx="3.4963541"
           y="7.1843128"
           x="5.8397818"
           height="77.021454"
           width="84.557999"
           id="rect862"
           style="opacity:1;fill:#3366cc;fill-opacity:0.97169812;stroke:none;stroke-width:0.71123183;stroke-miterlimit:4;stroke-dasharray:none;stroke-opacity:1" />
        <path
           inkscape:connector-curvature="0"
           id="path4989"
           d="m 9.9228616,5.6198544 c -3.1003887,0 -5.6384442,2.5262833 -5.6384442,5.6165966 v 68.917174 c 0,3.090315 2.5380555,5.616599 5.6384442,5.616599 H 86.314686 c 3.100391,0 5.638448,-2.526284 5.638448,-5.616599 V 11.236451 c 0,-3.0903123 -2.538057,-5.6165966 -5.638448,-5.6165966 z m 0,2.3073585 H 86.314686 c 1.878266,0 3.334565,1.4723861 3.334565,3.3092381 v 68.917174 c 0,1.836856 -1.456299,3.309239 -3.334565,3.309239 H 9.9228616 c -1.8782653,0 -3.3345636,-1.472383 -3.3345636,-3.309239 V 11.236451 c 0,-1.836852 1.4562983,-3.3092381 3.3345636,-3.3092381 z"
           style="color:#000000;font-style:normal;font-variant:normal;font-weight:normal;font-stretch:normal;font-size:medium;line-height:normal;font-family:Sans;-inkscape-font-specification:Sans;text-indent:0;text-align:start;text-decoration:none;text-decoration-line:none;letter-spacing:normal;word-spacing:normal;text-transform:none;writing-mode:lr-tb;direction:ltr;baseline-shift:baseline;text-anchor:start;display:inline;overflow:visible;visibility:visible;fill:#202223;fill-opacity:0.93689324;stroke:none;stroke-width:2.37426257;marker:none;enable-background:accumulate" />
        <path
           inkscape:connector-curvature="0"
           style="display:inline;opacity:0.65818182;fill:url(#linearGradient4129);fill-opacity:1;fill-rule:nonzero;stroke:none;stroke-width:0.99947876"
           d="m 1.641141,82.332506 v 5.96875 c 0,3.660975 2.9606059,6.621583 6.6215813,6.621583 H 87.53518 c 3.660978,0 6.621588,-2.960608 6.621588,-6.621583 v -5.96875 c 0,3.660975 -2.96061,6.621583 -6.621588,6.621583 H 8.2627223 c -3.6609754,0 -6.6215813,-2.960608 -6.6215813,-6.621583 z"
           id="path4118" />
        <rect
           style="opacity:0.55;fill:url(#radialGradient7462);fill-opacity:1;stroke:none;stroke-width:0.99947876"
           id="rect4131"
           width="83.811203"
           height="4.2278652"
           x="5.4959588"
           y="80.747047"
           rx="4.25"
           ry="4.25" />
        <rect
           ry="4.245573"
           rx="4.245573"
           y="-89.764748"
           x="6.4460635"
           height="4.2278652"
           width="76.350258"
           id="rect4141"
           style="opacity:0.669;fill:url(#radialGradient7464);fill-opacity:1;stroke:none;stroke-width:0.99947876"
           transform="rotate(90)" />
        <path
           style="color:#000000;font-style:italic;font-variant:normal;font-weight:500;font-stretch:normal;font-size:192.38606262px;line-height:1.25;font-family:'URW Chancery L';-inkscape-font-specification:'URW Chancery L Medium Italic';font-variant-ligatures:normal;font-variant-position:normal;font-variant-caps:normal;font-variant-numeric:normal;font-variant-alternates:normal;font-feature-settings:normal;text-indent:0;text-align:start;text-decoration:none;text-decoration-line:none;text-decoration-style:solid;text-decoration-color:#000000;letter-spacing:0px;word-spacing:0px;text-transform:none;writing-mode:lr-tb;direction:ltr;text-orientation:mixed;dominant-baseline:auto;baseline-shift:baseline;text-anchor:start;white-space:normal;shape-padding:0;clip-rule:nonzero;display:inline;overflow:visible;visibility:visible;opacity:1;isolation:auto;mix-blend-mode:normal;color-interpolation:sRGB;color-interpolation-filters:linearRGB;solid-color:#000000;solid-opacity:1;vector-effect:none;fill:#010306;fill-opacity:0.21226415;fill-rule:nonzero;stroke:none;stroke-width:2.5;stroke-linecap:butt;stroke-linejoin:miter;stroke-miterlimit:4;stroke-dasharray:none;stroke-dashoffset:0;stroke-opacity:1;color-rendering:auto;image-rendering:auto;shape-rendering:auto;text-rendering:auto;enable-background:accumulate"
           d="M 51.873047,8.5371094 C 41.768596,8.7395666 31.664113,13.161824 25.058594,21.003906 l -0.0078,0.0078 -0.04883,0.05859 -0.04102,0.05664 -0.0039,0.0039 c -3.718449,5.067509 -5.166071,11.48613 -4.722656,17.552735 -0.157424,2.899491 1.291463,5.085175 2.326172,6.671875 0.958287,1.469509 1.504091,2.503356 1.546875,3.425781 -0.324361,1.180791 -1.119418,1.919527 -2.636719,2.958984 -1.583062,1.084511 -3.865293,2.344813 -5.326172,4.816407 -5.328564,7.485628 -2.651515,18.684755 5.396485,23.072265 5.770755,3.517314 13.753955,4.557024 19.814453,0.222656 6.040011,-3.854953 10.169866,-9.838675 12.617187,-16.248046 l 0.02539,-0.0625 0.02148,-0.07227 0.002,-0.0039 c 0.407523,-1.285067 0.930333,-2.552219 1.542969,-3.421875 0.62896,-0.892828 1.189266,-1.344054 2.117188,-1.552735 l 0.04687,-0.0078 0.03125,-0.01172 c 2.364648,-0.571023 6.138925,-0.60318 9.265625,-3.113281 l 0.0059,0.0098 c 0.04715,-0.02447 0.08779,-0.05921 0.134766,-0.08398 l 0.002,0.002 0.05273,-0.03711 C 76.305844,50.42416 82.032983,39.826903 80.076172,29.480469 79.253851,21.223822 74.179694,12.674674 65.429688,10.289062 60.957482,8.9505755 56.363137,8.6044987 51.958984,8.5371094 h -0.0098 -0.0293 -0.0332 z m 0.07031,4.9042966 c 4.183998,0.06659 8.312268,0.408565 12.103516,1.546875 l 0.04297,0.01367 0.02734,0.0059 c 6.31301,1.70771 10.462997,8.405587 11.099609,15.023438 l 0.0078,0.113281 0.02734,0.140625 c 1.577843,8.059046 -3.190605,16.952825 -10.478515,20.734375 l -0.289063,0.150391 -0.240234,0.220703 h -0.002 c -0.917025,0.845626 -2.407475,1.235094 -4.113282,1.582031 1.439257,-1.093993 2.73906,-2.446768 3.277344,-2.9375 l 0.0039,-0.0039 0.109375,-0.09961 0.08984,-0.107422 0.0039,-0.0039 c 3.13532,-3.632743 7.183072,-8.126319 7.517578,-14.199218 l 0.0078,-0.08398 -0.0039,-0.08984 v -0.002 C 71.016025,28.034258 67.15078,20.631229 60.707031,16.669922 l -0.0039,-0.002 -0.617187,-0.382813 -0.375,0.0098 -0.355469,0.0098 c -1.04998,0.02851 -1.833464,0.529852 -2.332031,1.009765 -0.451286,0.434401 -0.719809,0.880425 -0.859376,1.105469 l -0.002,0.002 -0.08203,0.136719 -0.04492,0.0957 c 0.02043,-0.382946 0.137741,-0.759609 0.04492,-1.142578 -0.3309,-1.365298 -1.243258,-2.314075 -2.117187,-2.957031 -0.658954,-0.484798 -1.427066,-0.796902 -2.19336,-1.091797 0.05821,-0.0016 0.115631,-0.02027 0.173828,-0.02149 z m -3.152343,4.31836 -0.01367,0.0039 c -0.126758,0.02181 0.455306,0.02049 0.966797,0.162109 0.511491,0.141617 1.06626,0.392138 1.316406,0.576172 0.01041,0.0077 -8.2e-5,-0.0022 0.0098,0.0059 l -0.002,0.0039 -0.15039,0.269531 v 0.002 c -6.148765,11.06293 -7.578618,23.50524 -9.517578,35.09375 -1.848063,6.539187 -5.023668,12.991642 -10.464844,16.28125 -1.247276,0.515186 -3.175882,0.32623 -4.570313,-0.517578 -1.462538,-0.885022 -2.189997,-2.003976 -1.992187,-3.507813 l 0.0098,-0.03906 v -0.03516 c 0.06082,-0.440781 0.140211,-0.563788 0.228516,-0.648438 0.09203,-0.08822 0.333333,-0.225016 0.84961,-0.371094 0.872776,-0.246948 2.444375,-0.253918 3.720703,-0.146484 l 0.0039,-0.0293 c 3.81413,0.544573 7.619499,-1.65149 8.830078,-5.408203 1.447102,-3.6719 0.004,-7.923408 -3.419922,-9.947266 l 0.02734,-0.03711 c -4.172414,-3.30211 -6.394033,-9.006044 -6.521485,-14.507812 0.404752,-4.20666 2.372916,-8.443187 5.375,-11.359375 4.02548,-3.458228 9.620686,-5.360447 15.085938,-5.8125 l 0.109375,-0.0078 z m 6.417968,3.27539 c -0.01244,0.03724 -0.02679,0.07407 -0.03906,0.111328 l -0.01953,-0.01367 c 0.02314,-0.03105 0.03621,-0.06618 0.05859,-0.09766 z m 7.125,0.19336 c 0.311613,0.299412 0.673912,0.533052 0.964844,0.853515 -0.291384,-0.317527 -0.653347,-0.556393 -0.964844,-0.853515 z m -7.291015,0.289062 c -1.509864,4.80218 -1.770647,9.715447 -2.289063,14.148438 l -0.0078,0.06836 -0.0039,0.07422 c -0.290101,4.923353 -0.957722,10.148689 -0.472657,15.523437 l 0.05859,0.654297 0.378906,0.539063 0.002,0.002 c 0.668262,0.943852 1.647407,1.471788 2.69336,1.734375 -1.613476,0.67807 -2.960679,1.703484 -3.84375,2.957031 -1.067162,1.51487 -1.689293,3.17165 -2.160156,4.640625 l -0.0039,-0.002 c -2.163135,5.665109 -5.754873,10.754043 -10.732422,13.908203 l -0.01172,0.0078 -0.06445,0.04297 -0.04297,0.0332 C 34.487855,78.77382 28.45526,78.138203 24.035156,75.421875 l -0.0059,-0.0039 -0.0625,-0.03711 -0.05078,-0.02734 -0.0039,-0.002 -0.002,-0.002 C 18.601037,72.478496 16.635131,64.157236 20.185547,59.296875 l 0.08398,-0.113281 0.05859,-0.109375 c 0.614371,-1.065465 2.103098,-2.050376 3.914063,-3.291016 1.666557,-1.14171 3.645684,-2.791049 4.49414,-5.417969 0.870882,1.043711 1.754126,2.08183 2.847656,2.947266 l 0.1875,0.148438 0.214844,0.111328 0.0059,0.002 c 1.380446,0.702776 2.068206,2.671787 1.466796,4.130859 v 0.002 l -0.04687,0.113281 -0.0293,0.09961 c -0.445641,1.453107 -2.02845,2.378945 -3.583984,2.115234 l -0.0098,-0.002 -0.08008,-0.01172 -0.0918,-0.01172 -0.02148,-0.002 c -1.467788,-0.123549 -3.469449,-0.25124 -5.46875,0.314454 -2.104534,0.595467 -4.251643,2.338571 -4.611328,5.134765 -0.495464,3.646368 1.601647,6.737314 4.314453,8.378907 2.684821,1.624656 6.155875,2.153519 9.208984,0.783203 h 0.002 l 0.121093,-0.05664 0.115235,-0.06641 h 0.002 C 40.542703,70.219877 44.119008,62.326072 46.142578,55.125 l 0.0332,-0.111328 0.02344,-0.136719 0.002,-0.0078 c 1.959272,-11.67031 3.429381,-23.407901 8.841797,-33.351563 z m 4.873047,0.886719 c 3.732302,3.191667 6.19851,8.131146 6.30664,13.023437 -0.250053,3.890223 -3.173625,7.538014 -6.265625,11.123047 -0.947588,0.88184 -1.993,1.968308 -2.808593,2.570313 -0.171772,-4.138317 0.211995,-8.462915 0.478515,-12.935547 0.570649,-4.898835 0.887268,-9.647458 2.289063,-13.78125 z m -2.777344,33.642578 -0.04883,0.01172 0.0293,-0.0098 z m -35.236328,9.65625 -0.0098,0.07031 -0.0098,0.07812 v -0.07422 z"
           id="path922"
           inkscape:connector-curvature="0" />
        <path
           style="font-style:italic;font-variant:normal;font-weight:500;font-stretch:normal;font-size:192.38606262px;line-height:1.25;font-family:'URW Chancery L';-inkscape-font-specification:'URW Chancery L Medium Italic';letter-spacing:0px;word-spacing:0px;display:inline;fill:#eaf1fc;fill-opacity:0.93867922;stroke:#264aa2;stroke-width:0.62203598px;stroke-linecap:butt;stroke-linejoin:miter;stroke-opacity:1"
           d="m 51.921901,10.987399 c -9.417642,0.188696 -18.88941,4.352293 -24.9896,11.594448 -3.367019,4.588579 -4.727485,10.580061 -4.255316,16.205987 -0.242548,4.060125 4.089817,6.44972 3.941369,10.297974 -0.918422,4.42822 -6.310654,5.120627 -8.411636,8.764223 -4.529449,6.200614 -2.201111,16.016518 4.546204,19.65821 5.108485,3.139365 12.139103,3.993179 17.221577,0.328121 5.530314,-3.504435 9.399469,-9.055534 11.709815,-15.106177 0.886552,-2.797557 2.295823,-5.924303 5.466446,-6.633551 2.978933,-0.727103 6.356498,-0.693793 8.752366,-2.903122 8.272295,-4.292328 13.572586,-14.112294 11.75349,-23.38537 C 76.942535,22.344229 72.32619,14.686748 64.752014,12.640923 60.605892,11.396064 56.231206,11.053337 51.921901,10.987399 Z m -3.56092,4.361541 c 2.324985,-0.399963 7.179393,2.003138 4.697603,4.624385 -5.874419,10.569324 -7.305237,22.766488 -9.273436,34.48997 -1.94405,6.918091 -5.332098,14.141763 -11.748995,17.919611 -4.339441,1.947657 -10.798778,-1.46601 -10.093475,-6.602886 0.450875,-3.591955 4.670652,-3.563162 7.445942,-3.329553 2.738491,0.464257 5.514257,-1.131405 6.336031,-3.810967 1.100201,-2.669185 -0.02422,-5.925826 -2.620792,-7.247725 -4.933857,-3.904728 -7.361215,-10.356892 -7.467775,-16.513694 0.430556,-4.870654 2.65534,-9.691382 6.181131,-13.088718 4.537657,-3.92655 10.636006,-5.951768 16.543766,-6.440423 z m 11.060585,3.405407 c 5.641772,3.46662 9.159207,10.160135 9.263927,16.732208 -0.27682,5.025608 -3.786945,9.095878 -6.930013,12.737738 -1.701587,1.551267 -5.04358,5.716853 -7.047256,2.886865 -0.453637,-5.026507 0.183925,-10.125673 0.480461,-15.161446 0.637288,-5.449469 0.808975,-11.157045 3.057822,-16.239635 0.261588,-0.421798 0.618755,-0.940963 1.175059,-0.95573 z"
           id="path886"
           inkscape:connector-curvature="0" />
        <rect
           transform="matrix(1.0636761,0,0,1.0422264,4.4218092,39.193603)"
           style="opacity:0.65;fill:url(#linearGradient4767);fill-opacity:1;stroke:none;stroke-width:1.00471163"
           id="rect4146"
           width="75.965775"
           height="69.024437"
           x="2"
           y="-30"
           rx="3.973561"
           ry="3.9777055"
           clip-path="url(#clipPath4156-4-1)" />
        <g
           aria-label="P"
           style="font-style:italic;font-variant:normal;font-weight:500;font-stretch:normal;font-size:192.38606262px;line-height:1.25;font-family:'URW Chancery L';-inkscape-font-specification:'URW Chancery L Medium Italic';letter-spacing:0px;word-spacing:0px;fill:#000000;fill-opacity:1;stroke:none;stroke-width:4.80965137"
           id="text875" />
      </g>
    </g>
  </g>
</svg>
