<?xml version="1.0" encoding="UTF-8" standalone="no"?>
<!-- Generator: Adobe Illustrator 13.0.2, SVG Export Plug-In . SVG Version: 6.00 Build 14948)  -->

<svg
   xmlns:dc="http://purl.org/dc/elements/1.1/"
   xmlns:cc="http://creativecommons.org/ns#"
   xmlns:rdf="http://www.w3.org/1999/02/22-rdf-syntax-ns#"
   xmlns:svg="http://www.w3.org/2000/svg"
   xmlns="http://www.w3.org/2000/svg"
   xmlns:xlink="http://www.w3.org/1999/xlink"
   xmlns:sodipodi="http://sodipodi.sourceforge.net/DTD/sodipodi-0.dtd"
   xmlns:inkscape="http://www.inkscape.org/namespaces/inkscape"
   version="1.0"
   id="Layer_1"
   x="0px"
   y="0px"
   width="96"
   height="96"
   viewBox="0 0 84 84"
   enable-background="new 0 0 112 112"
   xml:space="preserve"
   sodipodi:version="0.32"
   inkscape:version="0.91 r13725"
   sodipodi:docname="preferences-plugin.svg"
   inkscape:output_extension="org.inkscape.output.svgz.inkscape"><metadata
     id="metadata95"><rdf:RDF><cc:Work
         rdf:about=""><dc:format>image/svg+xml</dc:format><dc:type
           rdf:resource="http://purl.org/dc/dcmitype/StillImage" /><dc:title></dc:title></cc:Work></rdf:RDF></metadata><defs
     id="defs93"><linearGradient
       inkscape:collect="always"
       id="linearGradient4512"><stop
         style="stop-color:#ffffff;stop-opacity:1;"
         offset="0"
         id="stop4514" /><stop
         style="stop-color:#ffffff;stop-opacity:0;"
         offset="1"
         id="stop4516" /></linearGradient><linearGradient
       inkscape:collect="always"
       id="linearGradient13107"><stop
         style="stop-color:#000000;stop-opacity:1;"
         offset="0"
         id="stop13109" /><stop
         style="stop-color:#000000;stop-opacity:0;"
         offset="1"
         id="stop13111" /></linearGradient><linearGradient
       id="linearGradient7263"><stop
         style="stop-color:#ffffff;stop-opacity:0;"
         offset="0"
         id="stop7265" /><stop
         style="stop-color:#ffffff;stop-opacity:0.48453608;"
         offset="1"
         id="stop7267" /></linearGradient><linearGradient
       inkscape:collect="always"
       xlink:href="#SVGID_9_"
       id="linearGradient3218"
       gradientUnits="userSpaceOnUse"
       x1="1.999"
       y1="55.862"
       x2="109.998"
       y2="55.862" /><linearGradient
       inkscape:collect="always"
       xlink:href="#SVGID_9_"
       id="linearGradient3222"
       gradientUnits="userSpaceOnUse"
       x1="1.999"
       y1="55.862"
       x2="109.998"
       y2="55.862" /><linearGradient
       inkscape:collect="always"
       xlink:href="#SVGID_9_"
       id="linearGradient3226"
       gradientUnits="userSpaceOnUse"
       x1="1.999"
       y1="55.862"
       x2="109.998"
       y2="55.862" /><linearGradient
       inkscape:collect="always"
       xlink:href="#SVGID_9_"
       id="linearGradient3230"
       gradientUnits="userSpaceOnUse"
       x1="1.999"
       y1="55.862"
       x2="109.998"
       y2="55.862" /><linearGradient
       inkscape:collect="always"
       xlink:href="#SVGID_9_"
       id="linearGradient3234"
       gradientUnits="userSpaceOnUse"
       x1="1.999"
       y1="55.862"
       x2="109.998"
       y2="55.862" /><linearGradient
       inkscape:collect="always"
       xlink:href="#SVGID_9_"
       id="linearGradient3304"
       gradientUnits="userSpaceOnUse"
       x1="1.999"
       y1="55.862"
       x2="109.998"
       y2="55.862" /><linearGradient
       inkscape:collect="always"
       xlink:href="#SVGID_9_"
       id="linearGradient3306"
       gradientUnits="userSpaceOnUse"
       x1="1.999"
       y1="55.862"
       x2="109.998"
       y2="55.862" /><linearGradient
       inkscape:collect="always"
       xlink:href="#SVGID_9_"
       id="linearGradient3310"
       gradientUnits="userSpaceOnUse"
       x1="1.999"
       y1="55.862"
       x2="109.998"
       y2="55.862" /><linearGradient
       inkscape:collect="always"
       xlink:href="#SVGID_9_"
       id="linearGradient3314"
       gradientUnits="userSpaceOnUse"
       x1="1.999"
       y1="55.862"
       x2="109.998"
       y2="55.862" /><linearGradient
       inkscape:collect="always"
       xlink:href="#SVGID_9_"
       id="linearGradient3318"
       gradientUnits="userSpaceOnUse"
       x1="1.999"
       y1="55.862"
       x2="109.998"
       y2="55.862" /><linearGradient
       inkscape:collect="always"
       xlink:href="#SVGID_9_"
       id="linearGradient3322"
       gradientUnits="userSpaceOnUse"
       x1="1.999"
       y1="55.862"
       x2="109.998"
       y2="55.862" /><linearGradient
       inkscape:collect="always"
       xlink:href="#SVGID_9_"
       id="linearGradient4328"
       gradientUnits="userSpaceOnUse"
       x1="88.745003"
       y1="55.154892"
       x2="94.44165"
       y2="95.81353" /><linearGradient
       inkscape:collect="always"
       xlink:href="#SVGID_9_"
       id="linearGradient4334"
       gradientUnits="userSpaceOnUse"
       x1="91.39418"
       y1="55.862"
       x2="89.845459"
       y2="26.322001" /><linearGradient
       inkscape:collect="always"
       xlink:href="#SVGID_9_"
       id="linearGradient4338"
       gradientUnits="userSpaceOnUse"
       x1="56.799774"
       y1="11.643"
       x2="80.800003"
       y2="26.163515" /><linearGradient
       inkscape:collect="always"
       xlink:href="#linearGradient4344"
       id="linearGradient9215"
       x1="75.195961"
       y1="-4"
       x2="94.433243"
       y2="113.6292"
       gradientUnits="userSpaceOnUse" /><linearGradient
       inkscape:collect="always"
       xlink:href="#linearGradient13107"
       id="linearGradient13113"
       x1="46.91169"
       y1="116"
       x2="48.325901"
       y2="-2.5101759"
       gradientUnits="userSpaceOnUse" /><linearGradient
       inkscape:collect="always"
       xlink:href="#SVGID_9_"
       id="linearGradient13175"
       gradientUnits="userSpaceOnUse"
       x1="91.39418"
       y1="55.862"
       x2="89.845459"
       y2="26.322001" /><linearGradient
       inkscape:collect="always"
       xlink:href="#SVGID_9_"
       id="linearGradient13179"
       gradientUnits="userSpaceOnUse"
       x1="88.745003"
       y1="55.154892"
       x2="94.44165"
       y2="95.81353" /><linearGradient
       inkscape:collect="always"
       xlink:href="#SVGID_9_"
       id="linearGradient13183"
       gradientUnits="userSpaceOnUse"
       x1="1.999"
       y1="55.862"
       x2="109.998"
       y2="55.862" /><linearGradient
       inkscape:collect="always"
       xlink:href="#SVGID_9_"
       id="linearGradient13187"
       gradientUnits="userSpaceOnUse"
       x1="1.999"
       y1="55.862"
       x2="109.998"
       y2="55.862" /><linearGradient
       inkscape:collect="always"
       xlink:href="#SVGID_9_"
       id="linearGradient13191"
       gradientUnits="userSpaceOnUse"
       x1="56.799774"
       y1="11.643"
       x2="80.800003"
       y2="26.163515" /><linearGradient
       id="linearGradient5700"><stop
         style="stop-color:#ffffff;stop-opacity:0;"
         offset="0"
         id="stop5702" /><stop
         id="stop5704"
         offset="0.02897836"
         style="stop-color:#ffffff;stop-opacity:0.85135138;" /><stop
         style="stop-color:#ffffff;stop-opacity:0;"
         offset="0.05199923"
         id="stop5706" /><stop
         id="stop5712"
         offset="0.96583712"
         style="stop-color:#ffffff;stop-opacity:0;" /><stop
         id="stop5710"
         offset="0.9788844"
         style="stop-color:#ffffff;stop-opacity:0.85135138;" /><stop
         style="stop-color:#ffffff;stop-opacity:0;"
         offset="1"
         id="stop5708" /></linearGradient><linearGradient
       id="linearGradient3921"><stop
         id="stop3923"
         offset="0"
         style="stop-color:#2cffee;stop-opacity:1;" /><stop
         id="stop3925"
         offset="1"
         style="stop-color:#00586e;stop-opacity:1;" /></linearGradient><linearGradient
       id="linearGradient4091-0-3-0-7"><stop
         id="stop4093-3-6-4-2"
         offset="0"
         style="stop-color:#ffffff;stop-opacity:1;" /><stop
         style="stop-color:#ffffff;stop-opacity:1;"
         offset="0.80000001"
         id="stop4099-6-1-8-3" /><stop
         id="stop4095-1-0-7-9"
         offset="1"
         style="stop-color:#ffffff;stop-opacity:0;" /></linearGradient><linearGradient
       id="linearGradient3832-0-6-1-1"><stop
         id="stop3834-6-3-7-1"
         offset="0"
         style="stop-color:#000000;stop-opacity:1;" /><stop
         style="stop-color:#000000;stop-opacity:0.58823532;"
         offset="0.1"
         id="stop3872-2-4" /><stop
         id="stop3844-6-2-7-6"
         offset="0.89999998"
         style="stop-color:#000000;stop-opacity:0.58823532;" /><stop
         id="stop3836-5-0-2-9"
         offset="1"
         style="stop-color:#000000;stop-opacity:1;" /></linearGradient><linearGradient
       gradientUnits="userSpaceOnUse"
       y2="47.000011"
       x2="90"
       y1="47.000011"
       x1="6"
       id="linearGradient3923"
       xlink:href="#linearGradient6139-0"
       inkscape:collect="always" /><linearGradient
       id="linearGradient6139-0"><stop
         style="stop-color:#b7b7b7;stop-opacity:1;"
         offset="0"
         id="stop6141-2" /><stop
         id="stop6151-0"
         offset="0.25"
         style="stop-color:#ffffff;stop-opacity:1;" /><stop
         id="stop6147-1"
         offset="0.5"
         style="stop-color:#9d9d9d;stop-opacity:1;" /><stop
         style="stop-color:#fafafa;stop-opacity:1;"
         offset="0.75"
         id="stop6149-4" /><stop
         style="stop-color:#b7b7b7;stop-opacity:1;"
         offset="1"
         id="stop6143-4" /></linearGradient><linearGradient
       y2="47.000011"
       x2="90"
       y1="47.000011"
       x1="6"
       gradientTransform="matrix(1.1353753,0,0,1.1336634,-40.037124,-46.787637)"
       gradientUnits="userSpaceOnUse"
       id="linearGradient4071"
       xlink:href="#linearGradient6139-0"
       inkscape:collect="always" /><radialGradient
       r="41"
       fy="6.2131939"
       fx="158"
       cy="6.2131939"
       cx="158"
       gradientTransform="matrix(0,1.6209438,-2.0382846,0,160.66427,-243.03657)"
       gradientUnits="userSpaceOnUse"
       id="radialGradient4073"
       xlink:href="#linearGradient7263"
       inkscape:collect="always" /><radialGradient
       r="42"
       fy="-27"
       fx="48"
       cy="-27"
       cx="48"
       gradientTransform="matrix(-1.0721726,0,0,-0.87502024,199.46429,-19.125546)"
       gradientUnits="userSpaceOnUse"
       id="radialGradient4075"
       xlink:href="#linearGradient4091-0-3-0-7"
       inkscape:collect="always" /><clipPath
       id="clipPath4156-4"
       clipPathUnits="userSpaceOnUse"><path
         inkscape:connector-curvature="0"
         id="path4158-0"
         d="m 27.046336,-55.695463 -14.21366,13.321486 0.06127,0 15.653407,21.770763 10.231384,-10.546177 C 38.561832,-32.30156 27.468089,-54.819245 27.046336,-55.695463 Z M 9.6468554,-39.382809 -5.2407289,-25.32124 15.987863,-7.8059573 26.372412,-18.382966 9.6468554,-39.382809 Z m 31.4906096,12.951445 -9.741259,9.713584 8.944804,12.4580526 7.780753,-7.5550056 -6.984298,-14.616631 z m -49.8397109,4.378822 -13.7541661,12.9822847 26.2830181,13.84571 0.06127,-0.0617 -0.122531,-0.0617 L 13.598503,-5.4007374 -8.7022409,-22.052595 Z m 38.0154159,7.400825 -9.802525,9.7752596 11.579232,9.5594001 7.62759,-7.40083 -8.669108,-11.0087257 -0.735189,-0.925104 z m 20.187073,5.6739697 -7.382526,7.2158 6.187844,8.54179 5.820249,-6.13651996 -4.625567,-9.62107004 z m -32.195166,6.32154 -9.5574606,9.49772 13.6622686,7.1849703 7.933918,-7.6783603 -12.038726,-9.00433 z m 23.311629,2.37443004 -7.10683,6.93826996 8.362778,6.9074403 5.360756,-5.6739699 -0.06127,-0.0925 -0.0919,0.12335 -6.463539,-8.20258036 z m -8.730374,8.54178036 -7.505057,7.3391599 10.353916,5.45811 c 1.397496,-1.32103 5.67514,-6.12292 5.850882,-6.32154 L 31.886332,8.2600031 Z"
         style="opacity:0.6;fill:#ffffff;fill-opacity:1;stroke:none" /></clipPath><linearGradient
       y2="29.454437"
       x2="76.197693"
       y1="42.063522"
       x1="45.99942"
       gradientTransform="matrix(1.1376233,0,0,1.1422854,-40.393161,-45.01103)"
       gradientUnits="userSpaceOnUse"
       id="linearGradient4112"
       xlink:href="#linearGradient7263"
       inkscape:collect="always" /><linearGradient
       gradientUnits="userSpaceOnUse"
       y2="88.171875"
       x2="94.5"
       y1="88.171875"
       x1="1.5"
       id="linearGradient4129"
       xlink:href="#linearGradient3832-0-6-1-1"
       inkscape:collect="always" /><radialGradient
       gradientUnits="userSpaceOnUse"
       gradientTransform="matrix(1,0,0,0.05036905,0,39.43178)"
       r="43.199203"
       fy="44.892841"
       fx="13.948145"
       cy="44.892841"
       cx="13.948145"
       id="radialGradient4139"
       xlink:href="#linearGradient7263"
       inkscape:collect="always" /><radialGradient
       r="43.199203"
       fy="44.892841"
       fx="13.948145"
       cy="44.892841"
       cx="13.948145"
       gradientTransform="matrix(0.90960585,0,0,0.0504451,-11.184537,-58.258273)"
       gradientUnits="userSpaceOnUse"
       id="radialGradient4143"
       xlink:href="#linearGradient7263"
       inkscape:collect="always" /><filter
       inkscape:collect="always"
       id="filter12134"><feGaussianBlur
         inkscape:collect="always"
         stdDeviation="2.4"
         id="feGaussianBlur12136" /></filter><linearGradient
       inkscape:collect="always"
       xlink:href="#linearGradient13107"
       id="linearGradient13163"
       gradientUnits="userSpaceOnUse"
       x1="46.91169"
       y1="116"
       x2="48.325901"
       y2="-2.5101759" /><linearGradient
       inkscape:collect="always"
       xlink:href="#linearGradient4344"
       id="linearGradient13165"
       gradientUnits="userSpaceOnUse"
       x1="75.195961"
       y1="-4"
       x2="94.433243"
       y2="113.6292" /><linearGradient
       y2="144.4818"
       x2="126.7421"
       y1="5.7275"
       x1="19.7563"
       gradientUnits="userSpaceOnUse"
       id="linearGradient4344"><stop
         id="stop4346"
         style="stop-color:#64ba32;stop-opacity:1;"
         offset="0" /><stop
         id="stop4348"
         style="stop-color:#00892C;stroke:url(#linearGradient9215)"
         offset="1" /></linearGradient><linearGradient
       inkscape:collect="always"
       xlink:href="#SVGID_2_"
       id="linearGradient13243"
       x1="62.578949"
       y1="127.77134"
       x2="58.966991"
       y2="-31.68124"
       gradientUnits="userSpaceOnUse" /><linearGradient
       id="linearGradient4399"
       gradientUnits="userSpaceOnUse"
       x1="55.998501"
       y1="122.1953"
       x2="55.998501"
       y2="-27.688801"><stop
         offset="0"
         style="stop-color:#00892C"
         id="stop13-5" /><stop
         offset="0.0791"
         style="stop-color:#259E34"
         id="stop15-3" /><stop
         offset="0.1681"
         style="stop-color:#48B23B"
         id="stop17-5" /><stop
         offset="0.2522"
         style="stop-color:#61C041"
         id="stop19-6" /><stop
         offset="0.3286"
         style="stop-color:#71C944"
         id="stop21-2" /><stop
         offset="0.3901"
         style="stop-color:#71d73a;stop-opacity:1;"
         id="stop23-9" /><stop
         offset="1"
         style="stop-color:#00892C"
         id="stop25-1" /></linearGradient><filter
       inkscape:collect="always"
       id="filter18426"><feGaussianBlur
         inkscape:collect="always"
         stdDeviation="1.12"
         id="feGaussianBlur18428" /></filter><linearGradient
       inkscape:collect="always"
       xlink:href="#SVGID_9_"
       id="linearGradient13221"
       gradientUnits="userSpaceOnUse"
       gradientTransform="matrix(1.009217,0,0,0.9999274,-0.5151412,-5.9972184)"
       x1="35.38496"
       y1="13.143368"
       x2="70.239304"
       y2="69.509804" /><linearGradient
       id="linearGradient4411"
       gradientUnits="userSpaceOnUse"
       x1="29.021"
       y1="6.0723"
       x2="70.239304"
       y2="69.509804"><stop
         offset="0"
         style="stop-color:#FFFFFF"
         id="stop86-2" /><stop
         offset="1"
         style="stop-color:#ffffff;stop-opacity:0;"
         id="stop88-7" /></linearGradient><linearGradient
       inkscape:collect="always"
       xlink:href="#linearGradient7263"
       id="linearGradient13223"
       gradientUnits="userSpaceOnUse"
       x1="1.999"
       y1="35.897854"
       x2="109.99844"
       y2="35.897854"
       gradientTransform="matrix(1.0092222,0,0,0.9999326,-0.5151516,-5.9975816)" /><filter
       inkscape:collect="always"
       id="filter4299"><feGaussianBlur
         inkscape:collect="always"
         stdDeviation="0.26962705"
         id="feGaussianBlur4301" /></filter><linearGradient
       inkscape:collect="always"
       xlink:href="#SVGID_9_"
       id="linearGradient13271"
       gradientUnits="userSpaceOnUse"
       x1="63.870842"
       y1="21.023001"
       x2="109.998"
       y2="55.862" /><linearGradient
       inkscape:collect="always"
       xlink:href="#SVGID_9_"
       id="linearGradient13259"
       gradientUnits="userSpaceOnUse"
       x1="63.870842"
       y1="86.705002"
       x2="109.998"
       y2="55.862" /><linearGradient
       inkscape:collect="always"
       xlink:href="#SVGID_9_"
       id="linearGradient13247"
       gradientUnits="userSpaceOnUse"
       x1="23.533312"
       y1="107.83435"
       x2="28.680723"
       y2="78.514572" /><linearGradient
       inkscape:collect="always"
       xlink:href="#SVGID_9_"
       id="linearGradient13267"
       gradientUnits="userSpaceOnUse"
       x1="45.839619"
       y1="18.38534"
       x2="109.998"
       y2="55.862" /><linearGradient
       inkscape:collect="always"
       xlink:href="#linearGradient4344"
       id="linearGradient4472"
       gradientUnits="userSpaceOnUse"
       x1="75.195961"
       y1="-4"
       x2="94.433243"
       y2="113.6292" /><linearGradient
       inkscape:collect="always"
       xlink:href="#SVGID_2_"
       id="linearGradient4474"
       gradientUnits="userSpaceOnUse"
       x1="62.578949"
       y1="127.77134"
       x2="58.966991"
       y2="-31.68124" /><linearGradient
       inkscape:collect="always"
       xlink:href="#SVGID_9_"
       id="linearGradient4476"
       gradientUnits="userSpaceOnUse"
       x1="1.999"
       y1="55.862"
       x2="109.998"
       y2="55.862" /><linearGradient
       inkscape:collect="always"
       xlink:href="#SVGID_9_"
       id="linearGradient4478"
       gradientUnits="userSpaceOnUse"
       x1="1.999"
       y1="55.862"
       x2="109.998"
       y2="55.862" /><linearGradient
       inkscape:collect="always"
       xlink:href="#SVGID_9_"
       id="linearGradient4480"
       gradientUnits="userSpaceOnUse"
       x1="1.999"
       y1="55.862"
       x2="109.998"
       y2="55.862" /><clipPath
       id="clipPath4156-4-0"
       clipPathUnits="userSpaceOnUse"><path
         inkscape:connector-curvature="0"
         id="path4158-0-6"
         d="m 27.046336,-55.695463 -14.21366,13.321486 0.06127,0 15.653407,21.770763 10.231384,-10.546177 C 38.561832,-32.30156 27.468089,-54.819245 27.046336,-55.695463 Z M 9.6468554,-39.382809 -5.2407289,-25.32124 15.987863,-7.8059573 26.372412,-18.382966 9.6468554,-39.382809 Z m 31.4906096,12.951445 -9.741259,9.713584 8.944804,12.4580526 7.780753,-7.5550056 -6.984298,-14.616631 z m -49.8397109,4.378822 -13.7541661,12.9822847 26.2830181,13.84571 0.06127,-0.0617 -0.122531,-0.0617 L 13.598503,-5.4007374 -8.7022409,-22.052595 Z m 38.0154159,7.400825 -9.802525,9.7752596 11.579232,9.5594001 7.62759,-7.40083 -8.669108,-11.0087257 -0.735189,-0.925104 z m 20.187073,5.6739697 -7.382526,7.2158 6.187844,8.54179 5.820249,-6.13651996 -4.625567,-9.62107004 z m -32.195166,6.32154 -9.5574606,9.49772 13.6622686,7.1849703 7.933918,-7.6783603 -12.038726,-9.00433 z m 23.311629,2.37443004 -7.10683,6.93826996 8.362778,6.9074403 5.360756,-5.6739699 -0.06127,-0.0925 -0.0919,0.12335 -6.463539,-8.20258036 z m -8.730374,8.54178036 -7.505057,7.3391599 10.353916,5.45811 c 1.397496,-1.32103 5.67514,-6.12292 5.850882,-6.32154 L 31.886332,8.2600031 Z"
         style="opacity:0.6;fill:#ffffff;fill-opacity:1;stroke:none" /></clipPath><linearGradient
       inkscape:collect="always"
       xlink:href="#linearGradient4512"
       id="linearGradient4518"
       x1="14.442153"
       y1="-17.419563"
       x2="45.571827"
       y2="12.28513"
       gradientUnits="userSpaceOnUse" /></defs><sodipodi:namedview
     inkscape:window-height="971"
     inkscape:window-width="1280"
     inkscape:pageshadow="2"
     inkscape:pageopacity="0.0"
     guidetolerance="10.0"
     gridtolerance="10.0"
     objecttolerance="10.0"
     borderopacity="1.0"
     bordercolor="#666666"
     pagecolor="#ffffff"
     id="base"
     width="128px"
     height="128px"
     inkscape:zoom="2.8284271"
     inkscape:cx="61.502779"
     inkscape:cy="-22.309953"
     inkscape:window-x="0"
     inkscape:window-y="27"
     inkscape:current-layer="g4324"
     showgrid="false"
     inkscape:window-maximized="1" /><linearGradient
     id="SVGID_2_"
     gradientUnits="userSpaceOnUse"
     x1="55.998501"
     y1="122.1953"
     x2="55.998501"
     y2="-27.688801"><stop
       offset="0"
       style="stop-color:#00892C"
       id="stop13" /><stop
       offset="0.0791"
       style="stop-color:#259E34"
       id="stop15" /><stop
       offset="0.1681"
       style="stop-color:#48B23B"
       id="stop17" /><stop
       offset="0.2522"
       style="stop-color:#61C041"
       id="stop19" /><stop
       offset="0.3286"
       style="stop-color:#71C944"
       id="stop21" /><stop
       offset="0.3901"
       style="stop-color:#71d73a;stop-opacity:1;"
       id="stop23" /><stop
       offset="1"
       style="stop-color:#00892C"
       id="stop25" /></linearGradient><linearGradient
     id="SVGID_8_"
     gradientUnits="userSpaceOnUse"
     x1="65.537102"
     y1="106.5479"
     x2="65.537102"
     y2="2.0360999"><stop
       offset="0"
       style="stop-color:#F8FFBF"
       id="stop77" /><stop
       offset="0.4"
       style="stop-color:#FFFFFF"
       id="stop79" /><stop
       offset="1"
       style="stop-color:#F8FFBF"
       id="stop81" /></linearGradient><linearGradient
     id="SVGID_9_"
     gradientUnits="userSpaceOnUse"
     x1="29.021"
     y1="6.0723"
     x2="70.239304"
     y2="69.509804"><stop
       offset="0"
       style="stop-color:#FFFFFF"
       id="stop86" /><stop
       offset="1"
       style="stop-color:#ffffff;stop-opacity:0;"
       id="stop88" /></linearGradient><g
     id="g3266"
     transform="matrix(0.875,0,0,0.875,6.9999998,-20.999999)"><g
       transform="translate(-8.0000017,104)"
       inkscape:label="Layer 1"
       id="layer1"><g
         transform="matrix(1.0034441,0,0,1.0049592,33.489303,-38.526762)"
         id="g5148"><g
           transform="matrix(0.88387919,0,0,0.83393165,-3.5257642,5.0081212)"
           id="g5766" /><path
           inkscape:connector-curvature="0"
           id="path3288"
           d="m 55.462534,-41.268579 -82.003291,0 c -3.78581,0 -6.8336,3.043193 -6.8336,6.823302 l 0,81.87966 c 0,3.780111 3.04779,6.823304 6.8336,6.823304 l 82.003291,0 c 3.785819,0 6.833607,-3.043193 6.833607,-6.823304 l 0,-81.87966 c 0,-3.780109 -3.047788,-6.823302 -6.833607,-6.823302 z"
           style="display:inline;opacity:0.15;fill:#000000;fill-opacity:1;fill-rule:nonzero;stroke:none" /><path
           style="display:inline;opacity:0.15;fill:#000000;fill-opacity:1;fill-rule:nonzero;stroke:none"
           d="m 54.821885,-40.52228 -80.721993,0 c -3.726657,0 -6.726825,2.995643 -6.726825,6.716688 l 0,80.60029 c 0,3.721047 3.000168,6.71669 6.726825,6.71669 l 80.721993,0 c 3.726665,0 6.726832,-2.995643 6.726832,-6.71669 l 0,-80.60029 c 0,-3.721045 -3.000167,-6.716688 -6.726832,-6.716688 z"
           id="path4085"
           inkscape:connector-curvature="0" /><g
           transform="matrix(0.97178685,0,0,0.97178682,0.40798707,0.18323223)"
           id="g4060"><path
             inkscape:connector-curvature="0"
             id="rect4251-1"
             d="m 55.334401,-41.11932 -81.747021,0 c -3.773988,0 -6.812252,3.033683 -6.812252,6.80198 l 0,81.623788 c 0,3.768297 3.038264,6.80198 6.812252,6.80198 l 81.747021,0 c 3.773988,0 6.812252,-3.033683 6.812252,-6.80198 l 0,-81.623788 c 0,-3.768297 -3.038264,-6.80198 -6.812252,-6.80198 z"
             style="display:inline;fill:url(#linearGradient4071);fill-opacity:1;fill-rule:nonzero;stroke:none" /><g
             transform="matrix(1.1353753,0,0,1.1336634,-153.57465,-46.220805)"
             id="g3272"><path
               style="display:inline;opacity:0.2;fill:url(#radialGradient4073);fill-opacity:1;fill-rule:nonzero;stroke:none"
               d="m 112,5.5 c -2.7873,0 -5,2.2127028 -5,5 l 0,20.71875 0,7 0,38.59375 c 1.07066,1.628779 2.89693,2.71875 5,2.71875 l 4,0 64,0 4,0 c 2.10307,0 3.92934,-1.089971 5,-2.71875 l 0,-38.59375 0,-7 L 189,10.5 c 0,-2.7872972 -2.2127,-5 -5,-5 z"
               id="path3400-6"
               inkscape:connector-curvature="0"
               sodipodi:nodetypes="sscccsccscccsss" /><path
               style="display:inline;opacity:0.45;fill:url(#radialGradient4075);fill-opacity:1;fill-rule:nonzero;stroke:none"
               d="m 112,4.5 c -3.324,0 -6,2.6759996 -6,6 l 0,15 1,0 0,-15 c 0,-2.7872972 2.2127,-5 5,-5 l 72,0 c 2.7873,0 5,2.2127028 5,5 l 0,15 1,0 0,-15 c 0,-3.3240004 -2.676,-6 -6,-6 l -72,0 z"
               id="path4236-5"
               inkscape:connector-curvature="0" /></g><path
             id="path4970"
             d="m -25.620124,-37.408678 80.627164,0 c 2.627498,0 4.742774,2.063272 4.742774,4.626172 l 0,71.705638 c 0,2.562899 -2.115276,4.62617 -4.742774,4.62617 l -80.627164,0 c -2.627496,0 -4.742773,-2.063271 -4.742773,-4.62617 l 0,-71.705638 c 0,-2.5629 2.115277,-4.626172 4.742773,-4.626172 z"
             style="color:#000000;display:inline;overflow:visible;visibility:visible;fill:#e9d7e8;fill-opacity:1;fill-rule:nonzero;stroke:none;stroke-width:2;marker:none;enable-background:accumulate"
             inkscape:connector-curvature="0"
             sodipodi:nodetypes="sssssssss" /><g
             id="g3951"
             transform="matrix(0.62678066,0,0,0.62583573,-23.041453,-30.685465)"><g
               transform="translate(0,-2)"
               id="g11155"
               style="opacity:0.5;fill:#000000;fill-opacity:1;stroke:url(#linearGradient13113);stroke-width:8;stroke-linejoin:round;stroke-miterlimit:4;stroke-dasharray:none;stroke-opacity:1;filter:url(#filter12134)"><linearGradient
                 id="linearGradient11157"
                 gradientUnits="userSpaceOnUse"
                 x1="19.7563"
                 y1="5.7275"
                 x2="126.7421"
                 y2="144.4818"><stop
                   offset="0"
                   style="stop-color:#64ba32;stop-opacity:1;stroke:url(#linearGradient13113)"
                   id="stop11159" /><stop
                   offset="1"
                   style="stop-color:#00892C;stroke:url(#linearGradient13113)"
                   id="stop11161" /></linearGradient><path
                 style="clip-rule:evenodd;fill:#000000;fill-opacity:1;fill-rule:evenodd;stroke:url(#linearGradient13163);stroke-width:8;stroke-linejoin:round;stroke-miterlimit:4;stroke-dasharray:none;stroke-opacity:1"
                 d="M 63.718,0 C 71.232,0 78.445,0.652 82,6 85.555,11.348 75.978,14.839 78.645,19.459 85.19,22.815 101.277,22.06 112,22 c 0,0 0,31.03 0,31.376 -5.792,3.336 -11.911,-1.445 -17,-2.376 -9.605,4.274 -9.652,27.515 0,31.68 5.722,0.45 5.419,-5.031 12,-3.72 5.013,6.734 5,33.04 5,33.04 l -90,0 C 22,112 22.422,83.565 19.538,80.682 16.654,77.799 14.483,85.954 7.26,84.41 2.943,82.345 0,78.605 0,68 0,57.395 2.812,52.71 7.068,50.316 13.635,48.93 14.699,57.379 18.178,53.9 21.657,50.421 22.07,34.826 22,22 32.448,22 45.674,24 52,19 52.428,13.665 48.199,13.695 48,9 49.149,2.904 56.22,0.222 63.718,0 Z"
                 id="path11163"
                 inkscape:connector-curvature="0" /></g><g
               transform="translate(0,-4)"
               style="fill:none;stroke:url(#linearGradient13165);stroke-width:8;stroke-linejoin:round;stroke-miterlimit:4;stroke-dasharray:none;stroke-opacity:1"
               id="g4342"><linearGradient
                 y2="144.4818"
                 x2="126.7421"
                 y1="5.7275"
                 x1="19.7563"
                 gradientUnits="userSpaceOnUse"
                 id="linearGradient4211"><stop
                   id="stop4213"
                   style="stop-color:#64ba32;stop-opacity:1;"
                   offset="0" /><stop
                   id="stop4215"
                   style="stop-color:#00892C;stroke:url(#linearGradient9215)"
                   offset="1" /></linearGradient><path
                 id="path4350"
                 d="M 63.718,0 C 71.232,0 78.445,0.652 82,6 85.555,11.348 75.978,14.839 78.645,19.459 85.19,22.815 101.277,22.06 112,22 c 0,0 0,31.03 0,31.376 -5.792,3.336 -11.911,-1.445 -17,-2.376 -9.605,4.274 -9.652,27.515 0,31.68 5.722,0.45 5.419,-5.031 12,-3.72 5.013,6.734 5,33.04 5,33.04 l -90,0 C 22,112 22.422,83.565 19.538,80.682 16.654,77.799 14.483,85.954 7.26,84.41 2.943,82.345 0,78.605 0,68 0,57.395 2.812,52.71 7.068,50.316 13.635,48.93 14.699,57.379 18.178,53.9 21.657,50.421 22.07,34.826 22,22 32.448,22 45.674,24 52,19 52.428,13.665 48.199,13.695 48,9 49.149,2.904 56.22,0.222 63.718,0 Z"
                 style="clip-rule:evenodd;fill:none;fill-rule:evenodd;stroke:url(#linearGradient4472);stroke-width:8;stroke-linejoin:round;stroke-miterlimit:4;stroke-dasharray:none;stroke-opacity:1"
                 inkscape:connector-curvature="0" /></g><g
               transform="translate(0,-4)"
               style="fill:url(#linearGradient13243);filter:url(#filter18426)"
               id="g3"><linearGradient
                 id="SVGID_1_"
                 gradientUnits="userSpaceOnUse"
                 x1="19.7563"
                 y1="5.7275"
                 x2="126.7421"
                 y2="144.4818"><stop
                   offset="0"
                   style="stop-color:#76CC45;fill:url(#linearGradient13243)"
                   id="stop6" /><stop
                   offset="1"
                   style="stop-color:#00892C;fill:url(#linearGradient13243)"
                   id="stop8" /></linearGradient><path
                 style="clip-rule:evenodd;fill:url(#linearGradient4474);fill-rule:evenodd"
                 d="M 63.718,0 C 71.232,0 78.445,0.652 82,6 85.555,11.348 75.978,14.839 78.645,19.459 85.19,22.815 101.277,22.06 112,22 c 0,0 0,31.03 0,31.376 -5.792,3.336 -11.911,-1.445 -17,-2.376 -9.605,4.274 -9.652,27.515 0,31.68 5.722,0.45 5.419,-5.031 12,-3.72 5.013,6.734 5,33.04 5,33.04 l -90,0 C 22,112 22.422,83.565 19.538,80.682 16.654,77.799 14.483,85.954 7.26,84.41 2.943,82.345 0,78.605 0,68 0,57.395 2.812,52.71 7.068,50.316 13.635,48.93 14.699,57.379 18.178,53.9 21.657,50.421 22.07,34.826 22,22 32.448,22 45.674,24 52,19 52.428,13.665 48.199,13.695 48,9 49.149,2.904 56.22,0.222 63.718,0 Z"
                 id="path10"
                 inkscape:connector-curvature="0" /></g><path
               style="clip-rule:evenodd;fill:url(#linearGradient13221);fill-rule:evenodd;stroke:url(#linearGradient13223);stroke-width:1.00456667"
               d="m 108.47928,18.045036 c -0.008,0 -0.0151,0 -0.0222,0 l -0.64187,0.008 c -2.29092,0.031 -4.70193,0.062 -7.13516,0.062 -11.815909,0 -18.830977,-0.885937 -22.745729,-2.875791 L 77.4065,14.96926 77.107772,14.460297 C 75.306319,11.364522 76.910974,8.8507039 79.038404,6.1039029 80.439197,4.2960347 80.948851,3.5030919 81.02858,2.6521537 81.04977,2.4281699 81.03058,2.2031862 80.9761,1.9852021 80.90747,1.7072222 80.767192,1.4132435 80.562321,1.1072657 c -2.839936,-4.229693 -8.7378,-5.1016297 -16.783277,-5.1036296 -2.753145,0.086994 -11.872429,0.8299398 -13.697093,6.6815151 -0.09789,0.3189769 -0.117069,0.6589522 -0.05046,0.9859285 0.212945,1.0419239 0.778107,1.7118758 1.490613,2.5588147 1.227209,1.4538941 2.750117,3.265763 2.455425,6.9304966 l -0.06863,0.867937 -0.691314,0.540961 c -4.305319,3.372755 -10.842018,3.826722 -16.669237,3.826722 -2.517996,0 -5.121775,-0.101992 -7.698307,-0.200986 -1.040503,-0.041 -2.058802,-0.08099 -3.050862,-0.113991 -0.02321,0 -0.04541,-0.002 -0.06863,-0.002 -0.520756,0 -1.022337,0.200986 -1.399784,0.55896 -0.393595,0.374972 -0.614614,0.890935 -0.618651,1.430896 -0.113031,21.992404 -2.313125,27.127031 -4.451656,29.247877 -0.975912,0.96293 -1.981092,1.430896 -3.074074,1.430896 -1.734844,0 -2.972143,-1.215912 -4.0732,-2.298833 l -0.19377,-0.187986 -0.3724,-0.359974 c -1.136379,-1.074922 -2.1173373,-1.738874 -3.4878539,-1.738874 -0.4006591,0 -0.841687,0.119991 -1.1767469,0.341975 -3.6705221,2.447822 -5.3801357,7.371466 -5.3801357,15.493876 0,0.621955 0.011101,1.214912 0.032295,1.78287 C 31.217668,64.093694 70.03518,58.029135 110.49772,33.866889 l 0,-13.820997 c 0,-0.533962 -0.21497,-1.045925 -0.59948,-1.422897 -0.37644,-0.368974 -0.88811,-0.577959 -1.41896,-0.577959 z"
               id="path90"
               inkscape:connector-curvature="0" /><g
               transform="translate(0,-6)"
               style="fill:url(#linearGradient4334);filter:url(#filter4299)"
               id="g31"><linearGradient
                 y2="23.672899"
                 x2="118.9906"
                 y1="23.672899"
                 x1="73.623001"
                 gradientUnits="userSpaceOnUse"
                 id="SVGID_3_"><stop
                   id="stop34"
                   style="stop-color:#FFFFFF;fill:url(#linearGradient3216)"
                   offset="0" /><stop
                   id="stop36"
                   style="stop-color:#000000;fill:url(#linearGradient3216)"
                   offset="1" /></linearGradient><path
                 style="clip-rule:evenodd;fill:url(#linearGradient13271);fill-rule:evenodd"
                 id="path38"
                 d="m 77.314,21.023 c 0.124,0.467 0.314,0.943 0.599,1.437 l 0.296,0.509 0.523,0.27 c 3.879,1.99 10.83,2.876 22.538,2.876 2.411,0 4.801,-0.031 7.07,-0.062 l 0.636,-0.008 c 0.008,0 0.015,0 0.022,0 0.355,0 0.698,0.102 1,0.277 l 0,-0.277 c 0,-0.534 -0.213,-1.046 -0.594,-1.423 -0.373,-0.369 -0.88,-0.578 -1.406,-0.578 -0.008,0 -0.015,0 -0.022,0 l -0.636,0.008 c -2.27,0.031 -4.659,0.062 -7.07,0.062 -11.708,0 -18.659,-0.886 -22.538,-2.876 l -0.418,-0.215 z"
                 inkscape:connector-curvature="0" /></g><g
               transform="translate(2,-6)"
               style="fill:url(#linearGradient4328);filter:url(#filter4299)"
               id="g40"><linearGradient
                 y2="83.060501"
                 x2="111.9058"
                 y1="83.060501"
                 x1="86.693398"
                 gradientUnits="userSpaceOnUse"
                 id="SVGID_4_"><stop
                   id="stop43"
                   style="stop-color:#FFFFFF;fill:url(#linearGradient3216)"
                   offset="0" /><stop
                   id="stop45"
                   style="stop-color:#000000;fill:url(#linearGradient3216)"
                   offset="1" /></linearGradient><path
                 style="clip-rule:evenodd;fill:url(#linearGradient13259);fill-rule:evenodd"
                 id="path47"
                 d="m 95.208,86.515 0.305,0.133 0.329,0.024 c 0.283,0.022 0.553,0.033 0.81,0.033 2.942,0 4.622,-1.334 5.97,-2.404 0.979,-0.78 1.623,-1.263 2.558,-1.458 0.137,-0.028 0.271,-0.041 0.405,-0.041 0.499,0 0.962,0.203 1.325,0.53 -0.155,-0.469 -0.315,-0.915 -0.484,-1.312 -0.318,-0.75 -1.052,-1.218 -1.841,-1.218 -0.134,0 -0.269,0.013 -0.405,0.041 -0.935,0.195 -1.578,0.678 -2.558,1.458 -1.348,1.07 -3.027,2.404 -5.97,2.404 -0.257,0 -0.526,-0.011 -0.81,-0.033 l -0.329,-0.024 -0.305,-0.133 c -2.372,-1.022 -4.156,-2.855 -5.463,-5.1 1.335,3.144 3.418,5.787 6.463,7.1 z"
                 inkscape:connector-curvature="0" /></g><g
               transform="translate(0,-6)"
               style="fill:url(#linearGradient4478);filter:url(#filter4299)"
               id="g49"><linearGradient
                 y2="47.521"
                 x2="69.618896"
                 y1="47.521"
                 x1="-3.9907"
                 gradientUnits="userSpaceOnUse"
                 id="SVGID_5_"><stop
                   id="stop52"
                   style="stop-color:#FFFFFF;fill:url(#linearGradient3216)"
                   offset="0" /><stop
                   id="stop54"
                   style="stop-color:#000000;fill:url(#linearGradient3216)"
                   offset="1" /></linearGradient><path
                 style="clip-rule:evenodd;fill:url(#linearGradient4476);fill-rule:evenodd"
                 id="path56"
                 d="m 2.999,70 c 0,-8.123 1.694,-13.047 5.328,-15.497 0.332,-0.222 0.769,-0.342 1.166,-0.342 1.358,0 2.33,0.665 3.456,1.739 l 0.369,0.36 0.192,0.188 c 1.091,1.083 2.317,2.299 4.036,2.299 1.083,0 2.079,-0.469 3.046,-1.432 2.119,-2.12 4.299,-7.255 4.411,-29.249 0.004,-0.54 0.224,-1.056 0.613,-1.431 0.375,-0.358 0.872,-0.559 1.387,-0.559 0.023,0 0.045,0.002 0.068,0.002 0.983,0.033 1.992,0.073 3.023,0.114 2.553,0.1 5.133,0.201 7.628,0.201 5.773,0 12.25,-0.454 16.517,-3.827 l 0.685,-0.541 0.068,-0.868 c 0.208,-2.619 -0.505,-4.284 -1.372,-5.556 0.316,0.961 0.487,2.11 0.372,3.556 l -0.068,0.868 -0.685,0.541 c -4.266,3.373 -10.743,3.827 -16.517,3.827 -2.495,0 -5.075,-0.102 -7.628,-0.201 -1.031,-0.041 -2.04,-0.081 -3.023,-0.114 -0.023,0 -0.045,-0.002 -0.068,-0.002 -0.516,0 -1.013,0.201 -1.387,0.559 -0.39,0.375 -0.609,0.891 -0.613,1.431 -0.112,21.994 -2.292,27.129 -4.411,29.25 -0.967,0.963 -1.963,1.431 -3.046,1.431 -1.719,0 -2.945,-1.216 -4.036,-2.299 L 12.318,54.26 11.949,53.9 c -1.126,-1.075 -2.098,-1.739 -3.456,-1.739 -0.397,0 -0.834,0.12 -1.166,0.342 -3.634,2.45 -5.328,7.374 -5.328,15.497 0,5.927 0.972,9.338 2.33,11.438 C 3.52,77.321 2.999,74.334 2.999,70 Z"
                 inkscape:connector-curvature="0" /></g><g
               transform="translate(-2,-4)"
               style="fill:url(#linearGradient4480);filter:url(#filter4299)"
               id="g58"><linearGradient
                 y2="95.531197"
                 x2="25.875299"
                 y1="95.531197"
                 x1="21.6807"
                 gradientUnits="userSpaceOnUse"
                 id="SVGID_6_"><stop
                   id="stop61"
                   style="stop-color:#FFFFFF;fill:url(#linearGradient3216)"
                   offset="0" /><stop
                   id="stop63"
                   style="stop-color:#000000;fill:url(#linearGradient3216)"
                   offset="1" /></linearGradient><path
                 style="clip-rule:evenodd;fill:url(#linearGradient13247);fill-rule:evenodd"
                 id="path65"
                 d="m 22.022,81.343 c 1.04,3.152 2.095,10.352 2.019,26.648 -0.002,0.529 0.207,1.041 0.582,1.418 0.125,0.125 0.269,0.225 0.419,0.312 0.083,-21.549 -1.822,-27.05 -3.02,-28.378 z"
                 inkscape:connector-curvature="0" /></g><g
               transform="translate(0,-6)"
               style="fill:url(#linearGradient4338);filter:url(#filter4299)"
               id="g67"><linearGradient
                 y2="6.8223"
                 x2="89.260399"
                 y1="6.8223"
                 x1="46.571301"
                 gradientUnits="userSpaceOnUse"
                 id="SVGID_7_"><stop
                   id="stop70"
                   style="stop-color:#FFFFFF;fill:url(#linearGradient3216)"
                   offset="0" /><stop
                   id="stop72"
                   style="stop-color:#000000;fill:url(#linearGradient3216)"
                   offset="1" /></linearGradient><path
                 style="clip-rule:evenodd;fill:url(#linearGradient13267);fill-rule:evenodd"
                 id="path74"
                 d="M 51.082,11.643 C 51.022,11.324 51.039,10.995 51.134,10.684 52.942,4.832 61.979,4.089 64.706,4.002 72.203,4.004 77.816,4.776 80.8,8.387 80.794,8.252 80.779,8.116 80.746,7.985 80.678,7.707 80.539,7.413 80.336,7.107 77.522,2.877 71.678,2.005 63.706,2.003 60.978,2.09 51.942,2.833 50.134,8.685 c -0.097,0.319 -0.116,0.659 -0.05,0.986 0.161,0.79 0.523,1.369 0.998,1.972 z"
                 inkscape:connector-curvature="0" /></g></g><path
             style="color:#000000;font-style:normal;font-variant:normal;font-weight:normal;font-stretch:normal;font-size:medium;line-height:normal;font-family:Sans;-inkscape-font-specification:Sans;text-indent:0;text-align:start;text-decoration:none;text-decoration-line:none;letter-spacing:normal;word-spacing:normal;text-transform:none;direction:ltr;block-progression:tb;writing-mode:lr-tb;baseline-shift:baseline;text-anchor:start;display:inline;overflow:visible;visibility:visible;fill:#000000;fill-opacity:0.87148593;stroke:none;stroke-width:2.3755002;marker:none;enable-background:accumulate"
             d="m -24.6875,-37.8125 c -3.196096,0 -5.8125,2.600343 -5.8125,5.78125 l 0,70.9375 c 0,3.180909 2.616404,5.78125 5.8125,5.78125 l 78.75,0 c 3.196096,0 5.8125,-2.600341 5.8125,-5.78125 l 0,-70.9375 c 0,-3.180907 -2.616404,-5.78125 -5.8125,-5.78125 l -78.75,0 z m 0,2.375 78.75,0 c 1.936246,0 3.4375,1.515549 3.4375,3.40625 l 0,70.9375 c 0,1.890705 -1.501254,3.40625 -3.4375,3.40625 l -78.75,0 c -1.936246,0 -3.4375,-1.515545 -3.4375,-3.40625 l 0,-70.9375 c 0,-1.890701 1.501254,-3.40625 3.4375,-3.40625 z"
             id="path4989"
             inkscape:connector-curvature="0" /><path
             id="path4118"
             transform="matrix(1.0255003,0,0,1.0239543,-34.763123,-42.655251)"
             d="m 1.5,81.84375 0,6 C 1.5,91.523892 4.4761068,94.5 8.15625,94.5 l 79.6875,0 C 91.523893,94.5 94.5,91.523892 94.5,87.84375 l 0,-6 C 94.5,85.523892 91.523893,88.5 87.84375,88.5 l -79.6875,0 C 4.4761068,88.5 1.5,85.523892 1.5,81.84375 Z"
             style="display:inline;opacity:0.65;fill:url(#linearGradient4129);fill-opacity:1;fill-rule:nonzero;stroke:none"
             inkscape:connector-curvature="0" /><rect
             ry="4.3518057"
             rx="0"
             y="39.517078"
             x="-29.251059"
             height="4.3518057"
             width="86.398407"
             id="rect4131"
             style="opacity:0.55;fill:url(#radialGradient4139);fill-opacity:1;stroke:none" /><rect
             transform="matrix(0,1,-1,0,0,0)"
             style="opacity:0.55;fill:url(#radialGradient4143);fill-opacity:1;stroke:none"
             id="rect4141"
             width="78.588493"
             height="4.3583765"
             x="-37.79147"
             y="-58.172848"
             rx="0"
             ry="4.3583765" /></g><g
           transform="matrix(0.9061837,0,0,0.92379606,-27.685003,-5.6506661)"
           id="g4324"
           style="opacity:0.7"><path
             inkscape:connector-curvature="0"
             id="rect4190"
             d="m 4.468875,-31.4 c -2.192171,0 -3.96400836,1.776584 -3.96875,3.96875 l -0.163,75.3585 c 2.1045603,2.715549 1.8313808,2.596758 5.3354114,2.88575 1.9841699,-16.007558 40.1394806,-78.99425 85.1400886,-78.99425 0.536758,0 1.059349,0.02139 1.59375,0.03125 -0.333067,-1.850574 -1.925648,-3.25 -3.875,-3.25 z"
             style="opacity:0.667;fill:#ffffff;fill-opacity:1;stroke:none"
             sodipodi:nodetypes="ssccscss" /><rect
             clip-path="url(#clipPath4156-4-0)"
             ry="3.9569881"
             rx="3.9569874"
             y="-30"
             x="2"
             height="92"
             width="92"
             id="rect4146"
             style="opacity:1;fill:url(#linearGradient4518);fill-opacity:1;stroke:none"
             transform="translate(-2.0694371,-3.4168619)" /></g></g></g></g></svg>