<?xml version="1.0" encoding="UTF-8" standalone="no"?>
<!-- Created with Inkscape (http://www.inkscape.org/) -->

<svg
   xmlns:dc="http://purl.org/dc/elements/1.1/"
   xmlns:cc="http://creativecommons.org/ns#"
   xmlns:rdf="http://www.w3.org/1999/02/22-rdf-syntax-ns#"
   xmlns:svg="http://www.w3.org/2000/svg"
   xmlns="http://www.w3.org/2000/svg"
   xmlns:xlink="http://www.w3.org/1999/xlink"
   xmlns:sodipodi="http://sodipodi.sourceforge.net/DTD/sodipodi-0.dtd"
   xmlns:inkscape="http://www.inkscape.org/namespaces/inkscape"
   width="96"
   height="96"
   viewBox="0 0 96.000001 96.000004"
   version="1.1"
   id="svg1072"
   inkscape:version="0.92.1 r"
   sodipodi:docname="preferences-desktop.svg">
  <defs
     id="defs1066">
    <linearGradient
       id="linearGradient1525">
      <stop
         id="stop1521"
         style="stop-color:#ff75ef;stop-opacity:1"
         offset="0" />
      <stop
         offset="0.16904345"
         style="stop-color:#b561ff;stop-opacity:1"
         id="stop1527" />
      <stop
         id="stop1529"
         style="stop-color:#5a6dff;stop-opacity:1"
         offset="0.22049791" />
      <stop
         offset="0.39544299"
         style="stop-color:#3cc4ff;stop-opacity:1"
         id="stop1531" />
      <stop
         id="stop1533"
         style="stop-color:#37ffff;stop-opacity:1"
         offset="0.47777012" />
      <stop
         offset="0.58582443"
         style="stop-color:#1bff26;stop-opacity:1"
         id="stop1535" />
      <stop
         id="stop1537"
         style="stop-color:#a6ff16;stop-opacity:1"
         offset="0.71446049" />
      <stop
         id="stop1523"
         style="stop-color:#ff1100;stop-opacity:1"
         offset="1" />
    </linearGradient>
    <linearGradient
       y2="47.000011"
       x2="90"
       y1="47.000011"
       x1="6"
       gradientTransform="matrix(1.1071428,0,0,1.1071426,-4.9939026,-3.620687)"
       gradientUnits="userSpaceOnUse"
       id="linearGradient4071"
       xlink:href="#linearGradient6139-0"
       inkscape:collect="always" />
    <linearGradient
       id="linearGradient6139-0">
      <stop
         style="stop-color:#b4b9ba;stop-opacity:1"
         offset="0"
         id="stop6141-2" />
      <stop
         id="stop6151-0"
         offset="0.25"
         style="stop-color:#ffffff;stop-opacity:1;" />
      <stop
         id="stop6147-1"
         offset="0.5"
         style="stop-color:#98a0a2;stop-opacity:1" />
      <stop
         style="stop-color:#fbf9f9;stop-opacity:1;"
         offset="0.75"
         id="stop6149-4" />
      <stop
         style="stop-color:#b4b8ba;stop-opacity:1"
         offset="1"
         id="stop6143-4" />
    </linearGradient>
    <linearGradient
       gradientUnits="userSpaceOnUse"
       y2="88.171875"
       x2="94.5"
       y1="88.171875"
       x1="1.5"
       id="linearGradient4129"
       xlink:href="#linearGradient3832-0-6-1-1"
       inkscape:collect="always"
       gradientTransform="translate(0.1489535,0.415026)" />
    <linearGradient
       id="linearGradient3832-0-6-1-1">
      <stop
         id="stop3834-6-3-7-1"
         offset="0"
         style="stop-color:#000000;stop-opacity:1;" />
      <stop
         style="stop-color:#000000;stop-opacity:0.58823532;"
         offset="0.1"
         id="stop3872-2-4" />
      <stop
         id="stop3844-6-2-7-6"
         offset="0.89999998"
         style="stop-color:#000000;stop-opacity:0.58823532;" />
      <stop
         id="stop3836-5-0-2-9"
         offset="1"
         style="stop-color:#000000;stop-opacity:1;" />
    </linearGradient>
    <radialGradient
       r="43.199203"
       fy="44.892841"
       fx="13.948145"
       cy="44.892841"
       cx="13.948145"
       gradientTransform="matrix(0.97513378,0,0,0.04919072,34.047649,80.581722)"
       gradientUnits="userSpaceOnUse"
       id="radialGradient7462"
       xlink:href="#linearGradient3737"
       inkscape:collect="always" />
    <linearGradient
       id="linearGradient3737">
      <stop
         id="stop3739"
         style="stop-color:#ffffff;stop-opacity:1"
         offset="0" />
      <stop
         id="stop3741"
         style="stop-color:#ffffff;stop-opacity:0"
         offset="1" />
    </linearGradient>
    <radialGradient
       r="43.199203"
       fy="44.892841"
       fx="13.948145"
       cy="44.892841"
       cx="13.948145"
       gradientTransform="matrix(0.88832663,0,0,0.04919072,31.959518,-90.31726)"
       gradientUnits="userSpaceOnUse"
       id="radialGradient7464"
       xlink:href="#linearGradient3737"
       inkscape:collect="always" />
    <linearGradient
       y2="14.514202"
       x2="50.527882"
       y1="-28.64156"
       x1="2.7713892"
       gradientUnits="userSpaceOnUse"
       id="linearGradient4767"
       xlink:href="#linearGradient3737"
       inkscape:collect="always" />
    <clipPath
       clipPathUnits="userSpaceOnUse"
       id="clipPath4156-4-1">
      <path
         style="opacity:0.6;fill:#ffffff;fill-opacity:1;stroke:none"
         d="m 27.046336,-55.695463 -14.21366,13.321486 h 0.06127 l 15.653407,21.770763 10.231384,-10.546177 C 38.561832,-32.30156 27.468089,-54.819245 27.046336,-55.695463 Z M 9.6468554,-39.382809 -5.2407289,-25.32124 15.987863,-7.8059573 26.372412,-18.382966 Z m 31.4906096,12.951445 -9.741259,9.713584 8.944804,12.4580526 7.780753,-7.5550056 z m -49.8397109,4.378822 -13.7541661,12.9822847 26.2830181,13.84571 0.06127,-0.0617 -0.122531,-0.0617 L 13.598503,-5.4007374 -8.7022409,-22.052595 Z m 38.0154159,7.400825 -9.802525,9.7752596 11.579232,9.5594001 7.62759,-7.40083 -8.669108,-11.0087257 z m 20.187073,5.6739697 -7.382526,7.2158 6.187844,8.54179 5.820249,-6.13651996 z m -32.195166,6.32154 -9.5574606,9.49772 13.6622686,7.1849703 7.933918,-7.6783603 z m 23.311629,2.37443004 -7.10683,6.93826996 8.362778,6.9074403 5.360756,-5.6739699 -0.06127,-0.0925 -0.0919,0.12335 -6.463539,-8.20258036 z m -8.730374,8.54178036 -7.505057,7.3391599 10.353916,5.45811 c 1.397496,-1.32103 5.67514,-6.12292 5.850882,-6.32154 z"
         id="path4158-0-8"
         inkscape:connector-curvature="0" />
    </clipPath>
    <radialGradient
       gradientUnits="userSpaceOnUse"
       xlink:href="#linearGradient4215-8"
       id="radialGradient4333-9"
       fy="32"
       fx="32"
       r="8"
       cy="32"
       cx="32"
       gradientTransform="matrix(1.1035914,-0.2423327,0.2423327,1.1035914,-150.7715,-59.88179)" />
    <linearGradient
       id="linearGradient4215-8">
      <stop
         offset="0"
         style="stop-color:#ffb800;stop-opacity:1"
         id="stop4217-4" />
      <stop
         offset="1"
         style="stop-color:#ffb800;stop-opacity:0"
         id="stop4219-3" />
    </linearGradient>
    <radialGradient
       gradientUnits="userSpaceOnUse"
       xlink:href="#linearGradient4223-6"
       id="radialGradient3556"
       fy="31.601685"
       fx="29.094891"
       r="7.2449093"
       cy="31.601685"
       cx="29.094891"
       gradientTransform="matrix(1.0769045,0.34192943,-0.34192943,1.0769045,-128.15676,-74.823561)" />
    <linearGradient
       id="linearGradient4223-6">
      <stop
         offset="0"
         style="stop-color:#ffe375;stop-opacity:1"
         id="stop4225-4" />
      <stop
         offset="1"
         style="stop-color:#ffa600;stop-opacity:1"
         id="stop4227-8" />
    </linearGradient>
    <radialGradient
       gradientUnits="userSpaceOnUse"
       xlink:href="#linearGradient4215-8"
       id="radialGradient4355-6"
       fy="32"
       fx="32"
       r="8"
       cy="32"
       cx="32"
       gradientTransform="matrix(0.73094139,-0.16050415,0.16050415,0.73094139,-110.33544,-81.12525)" />
    <radialGradient
       gradientUnits="userSpaceOnUse"
       xlink:href="#linearGradient4223-6"
       id="radialGradient4357-5"
       fy="31.601685"
       fx="29.094891"
       r="7.2449093"
       cy="31.601685"
       cx="29.094891"
       gradientTransform="matrix(0.71326589,0.22647002,-0.22647002,0.71326589,-95.35702,-91.970248)" />
    <radialGradient
       gradientUnits="userSpaceOnUse"
       xlink:href="#linearGradient4215-8"
       id="radialGradient4397-1"
       fy="32"
       fx="32"
       r="8"
       cy="32"
       cx="32"
       gradientTransform="matrix(1.7970194,-0.39459943,0.39459943,1.7970194,-198.01322,-97.793982)" />
    <radialGradient
       gradientUnits="userSpaceOnUse"
       xlink:href="#linearGradient4223-6"
       id="radialGradient4399-8"
       fy="31.601685"
       fx="29.094891"
       r="7.2449093"
       cy="31.601685"
       cx="29.094891"
       gradientTransform="matrix(1.7535642,0.55677657,-0.55677657,1.7535642,-161.18878,-124.45641)" />
    <radialGradient
       gradientUnits="userSpaceOnUse"
       xlink:href="#linearGradient4215-8"
       id="radialGradient4481-2"
       fy="32"
       fx="32"
       r="8"
       cy="32"
       cx="32"
       gradientTransform="matrix(0.85744761,-0.18828308,0.18828308,0.85744761,-161.60186,-100.19731)" />
    <radialGradient
       gradientUnits="userSpaceOnUse"
       xlink:href="#linearGradient4223-6"
       id="radialGradient4483-2"
       fy="31.601685"
       fx="29.094891"
       r="7.2449093"
       cy="31.601685"
       cx="29.094891"
       gradientTransform="matrix(0.83671295,0.26566587,-0.26566587,0.83671295,-144.03108,-112.91928)" />
    <linearGradient
       gradientUnits="userSpaceOnUse"
       xlink:href="#linearGradient4634"
       id="linearGradient4238"
       y2="56"
       x2="55.077717"
       y1="56"
       x1="48"
       gradientTransform="translate(-88.862784,-152.96426)" />
    <linearGradient
       id="linearGradient4634">
      <stop
         offset="0"
         style="stop-color:#000000;stop-opacity:1"
         id="stop4636" />
      <stop
         offset="0.30000001"
         style="stop-color:#a5a5a5;stop-opacity:1"
         id="stop4642" />
      <stop
         offset="0.60000002"
         style="stop-color:#4c4c4c;stop-opacity:1"
         id="stop4644" />
      <stop
         offset="1"
         style="stop-color:#000000;stop-opacity:1"
         id="stop4638" />
    </linearGradient>
    <linearGradient
       gradientUnits="userSpaceOnUse"
       xlink:href="#linearGradient4654"
       id="linearGradient4240"
       y2="56"
       x2="56.153542"
       y1="56"
       x1="48"
       gradientTransform="rotate(-42.384765,-152.8291,191.07829)" />
    <linearGradient
       id="linearGradient4654">
      <stop
         offset="0"
         style="stop-color:#a5a5a5;stop-opacity:1"
         id="stop4656" />
      <stop
         offset="0.30000001"
         style="stop-color:#ffffff;stop-opacity:1"
         id="stop4658" />
      <stop
         offset="0.60000002"
         style="stop-color:#a5a5a5;stop-opacity:1"
         id="stop4660" />
      <stop
         offset="1"
         style="stop-color:#636363;stop-opacity:1"
         id="stop4662" />
    </linearGradient>
    <linearGradient
       gradientTransform="matrix(0.73863461,-0.67410601,-0.67410601,-0.73863461,-93.25139,29.645314)"
       gradientUnits="userSpaceOnUse"
       xlink:href="#linearGradient4654"
       id="linearGradient4242"
       y2="56"
       x2="55.868713"
       y1="56"
       x1="48" />
    <linearGradient
       inkscape:collect="always"
       xlink:href="#linearGradient1525"
       id="linearGradient1519"
       x1="6.2661185"
       y1="45.523869"
       x2="90.301826"
       y2="45.523869"
       gradientUnits="userSpaceOnUse" />
  </defs>
  <sodipodi:namedview
     id="base"
     pagecolor="#ffffff"
     bordercolor="#666666"
     borderopacity="1.0"
     inkscape:pageopacity="0.0"
     inkscape:pageshadow="2"
     inkscape:zoom="2.3126679"
     inkscape:cx="2.2351081"
     inkscape:cy="44.557005"
     inkscape:document-units="px"
     inkscape:current-layer="g2574"
     showgrid="false"
     inkscape:showpageshadow="false"
     units="px"
     inkscape:lockguides="false"
     inkscape:window-width="1280"
     inkscape:window-height="971"
     inkscape:window-x="0"
     inkscape:window-y="25"
     inkscape:window-maximized="1" />
  <metadata
     id="metadata1069">
    <rdf:RDF>
      <cc:Work
         rdf:about="">
        <dc:format>image/svg+xml</dc:format>
        <dc:type
           rdf:resource="http://purl.org/dc/dcmitype/StillImage" />
        <dc:title></dc:title>
        <dc:date>2017</dc:date>
        <dc:creator>
          <cc:Agent>
            <dc:title>Cristian Pozzessere &quot;ilnanny&quot;</dc:title>
          </cc:Agent>
        </dc:creator>
        <dc:subject>
          <rdf:Bag>
            <rdf:li>Global language</rdf:li>
          </rdf:Bag>
        </dc:subject>
        <dc:description>Playing with Inkscape on Gnu/Linux O. S.</dc:description>
        <dc:contributor>
          <cc:Agent>
            <dc:title>In the night, alone like a dog.</dc:title>
          </cc:Agent>
        </dc:contributor>
        <cc:license
           rdf:resource="http://creativecommons.org/licenses/by-sa/4.0/" />
      </cc:Work>
      <cc:License
         rdf:about="http://creativecommons.org/licenses/by-sa/4.0/">
        <cc:permits
           rdf:resource="http://creativecommons.org/ns#Reproduction" />
        <cc:permits
           rdf:resource="http://creativecommons.org/ns#Distribution" />
        <cc:requires
           rdf:resource="http://creativecommons.org/ns#Notice" />
        <cc:requires
           rdf:resource="http://creativecommons.org/ns#Attribution" />
        <cc:permits
           rdf:resource="http://creativecommons.org/ns#DerivativeWorks" />
        <cc:requires
           rdf:resource="http://creativecommons.org/ns#ShareAlike" />
      </cc:License>
    </rdf:RDF>
  </metadata>
  <g
     inkscape:label="Livello 1"
     inkscape:groupmode="layer"
     id="layer1"
     transform="translate(0,-1026.5197)">
    <g
       transform="translate(-0.14895645,1026.1047)"
       style="display:inline"
       id="g2574">
      <path
         inkscape:connector-curvature="0"
         id="path3288"
         d="M 89.29181,0.415026 H 7.0060911 c -3.798848,0 -6.8571352,3.058285 -6.8571352,6.8571399 V 89.557884 c 0,3.798857 3.0582872,6.857142 6.8571352,6.857142 H 89.29181 c 3.798857,0 6.857147,-3.058285 6.857147,-6.857142 V 7.2721659 c 0,-3.7988549 -3.05829,-6.8571399 -6.857147,-6.8571399 z"
         style="display:inline;opacity:0.15;fill:#000000;fill-opacity:1;fill-rule:nonzero;stroke:none" />
      <path
         style="display:inline;opacity:0.15;fill:#000000;fill-opacity:1;fill-rule:nonzero;stroke:none"
         d="M 88.648954,1.165026 H 7.6489471 c -3.739492,0 -6.749993,3.010499 -6.749993,6.7499969 V 88.915026 c 0,3.739501 3.010501,6.75 6.749993,6.75 H 88.648954 c 3.739503,0 6.750003,-3.010499 6.750003,-6.75 V 7.9150229 c 0,-3.7394979 -3.0105,-6.7499969 -6.750003,-6.7499969 z"
         id="path4085"
         inkscape:connector-curvature="0" />
      <path
         inkscape:connector-curvature="0"
         id="rect4251-1"
         d="M 88.006093,1.915026 H 8.2918111 c -3.680143,0 -6.6428566,2.962713 -6.6428566,6.6428549 V 88.272171 c 0,3.680142 2.9627136,6.642856 6.6428566,6.642856 H 88.006093 c 3.680143,0 6.642854,-2.962714 6.642854,-6.642856 V 8.5578809 c 0,-3.6801419 -2.962711,-6.6428549 -6.642854,-6.6428549 z"
         style="display:inline;fill:url(#linearGradient4071);fill-opacity:1;fill-rule:nonzero;stroke:none" />
      <path
         sodipodi:nodetypes="sscccsccscccsss"
         inkscape:connector-curvature="0"
         id="path3400-6"
         d="m 11.390247,6.8021682 c -2.8564964,0 -5.1241284,2.3146876 -5.1241284,5.2304538 v 21.67369 7.322634 40.372561 c 1.0972399,1.70385 2.9688485,2.844058 5.1241284,2.844058 h 4.099303 65.588849 4.099302 c 2.155281,0 4.026889,-1.140208 5.124129,-2.844058 V 41.028946 33.706312 12.032622 c 0,-2.9157662 -2.267632,-5.2304538 -5.124129,-5.2304538 z"
         style="display:inline;opacity:0.589;fill:url(#linearGradient1519);fill-opacity:1;fill-rule:nonzero;stroke:none;stroke-width:1.03540373" />
      <g
         transform="translate(151.65269,94.983282)"
         id="g1216">
        <path
           style="color:#000000;display:inline;overflow:visible;visibility:visible;fill:url(#radialGradient4333-9);fill-opacity:1;fill-rule:nonzero;stroke:none;stroke-width:1.1298846;marker:none;enable-background:accumulate"
           id="path4203-0"
           d="m -98.8732,-34.260173 a 9.0390765,9.0390765 0 1 1 -17.65746,3.877323 9.0390765,9.0390765 0 1 1 17.65746,-3.877323 z"
           inkscape:connector-curvature="0" />
        <path
           style="color:#000000;display:inline;overflow:visible;visibility:visible;opacity:0.2;fill:#ffcc00;fill-opacity:1;fill-rule:nonzero;stroke:none;stroke-width:1.12988448;marker:none;enable-background:accumulate"
           id="path4207-2"
           inkscape:connector-curvature="0"
           d="m -104.25668,-20.749592 -3.55478,-8.281872 -9.05074,0.215581 8.30261,-3.469405 -0.23632,-9.136116 3.4868,8.296799 9.11872,-0.230508 -8.32,3.705668 z" />
        <path
           style="color:#000000;display:inline;overflow:visible;visibility:visible;fill:url(#radialGradient3556);fill-opacity:1;fill-rule:nonzero;stroke:#ff9900;stroke-width:0.33000001;stroke-miterlimit:4;stroke-dasharray:none;stroke-opacity:1;marker:none;enable-background:accumulate"
           id="path4209-7"
           d="m -105.6026,-21.61085 -2.84244,-7.958438 -8.41716,0.753405 7.95843,-2.842439 -0.7534,-8.417158 2.84244,7.958436 8.41716,-0.753403 -7.95844,2.842438 z"
           inkscape:connector-curvature="0" />
        <path
           style="color:#000000;display:inline;overflow:visible;visibility:visible;fill:url(#radialGradient4355-6);fill-opacity:1;fill-rule:nonzero;stroke:none;stroke-width:0.7483561;marker:none;enable-background:accumulate"
           id="path4347-1"
           d="m -75.96165,-64.155292 a 5.986849,5.986849 0 1 1 -11.69506,2.568067 5.986849,5.986849 0 1 1 11.69506,-2.568067 z"
           inkscape:connector-curvature="0" />
        <path
           style="color:#000000;display:inline;overflow:visible;visibility:visible;opacity:0.1;fill:#ffcc00;fill-opacity:1;fill-rule:nonzero;stroke:none;stroke-width:0.7483561;marker:none;enable-background:accumulate"
           id="path4349-8"
           inkscape:connector-curvature="0"
           d="m -83.43142,-70.412157 -0.16065,6.400024 -5.75621,2.829361 6.39823,0.09441 2.85344,5.82953 0.0703,-6.471547 5.85362,-2.780127 -6.49563,-0.143639 z" />
        <path
           style="color:#000000;display:inline;overflow:visible;visibility:visible;opacity:0.2;fill:#ffcc00;fill-opacity:1;fill-rule:nonzero;stroke:none;stroke-width:0.7483561;marker:none;enable-background:accumulate"
           id="path4351-2"
           inkscape:connector-curvature="0"
           d="m -80.25823,-55.994946 -2.35443,-5.48533 -5.99458,0.142786 5.49907,-2.29789 -0.15652,-6.051122 2.30941,5.495217 6.0396,-0.152672 -5.51058,2.454374 z" />
        <path
           style="color:#000000;display:inline;overflow:visible;visibility:visible;fill:url(#radialGradient4357-5);fill-opacity:1;fill-rule:nonzero;stroke:none;stroke-width:0.7483561;marker:none;enable-background:accumulate"
           id="path4353-5"
           d="m -80.41873,-56.725887 -1.88263,-5.27111 -5.57494,0.499003 5.27111,-1.882632 -0.499,-5.574935 1.88263,5.27111 5.57494,-0.499002 -5.27111,1.882631 z"
           inkscape:connector-curvature="0" />
        <path
           style="color:#000000;display:inline;overflow:visible;visibility:visible;fill:url(#radialGradient4397-1);fill-opacity:1;fill-rule:nonzero;stroke:none;stroke-width:1.8398335;marker:none;enable-background:accumulate"
           id="path4389-8"
           d="m -113.50526,-56.073338 a 14.718668,14.718668 0 1 1 -28.75231,6.31359 14.718668,14.718668 0 1 1 28.75231,-6.31359 z"
           inkscape:connector-curvature="0" />
        <path
           style="color:#000000;display:inline;overflow:visible;visibility:visible;opacity:0.1;fill:#ffcc00;fill-opacity:1;fill-rule:nonzero;stroke:none;stroke-width:1.83983362;marker:none;enable-background:accumulate"
           id="path4391-8"
           inkscape:connector-curvature="0"
           d="m -131.8697,-71.45584 -0.39495,15.734458 -14.15165,6.955984 15.73005,0.232095 7.01519,14.3319 0.17288,-15.910298 14.39112,-6.834942 -15.96951,-0.353136 z" />
        <path
           style="color:#000000;display:inline;overflow:visible;visibility:visible;opacity:0.2;fill:#ffcc00;fill-opacity:1;fill-rule:nonzero;stroke:none;stroke-width:1.83983362;marker:none;enable-background:accumulate"
           id="path4393-3"
           inkscape:connector-curvature="0"
           d="m -124.0684,-36.011126 -5.78838,-13.485685 -14.73766,0.35104 13.51945,-5.649364 -0.38481,-14.876682 5.67769,13.50999 14.84836,-0.375344 -13.54777,6.034079 z" />
        <path
           style="color:#000000;display:inline;overflow:visible;visibility:visible;fill:url(#radialGradient4399-8);fill-opacity:1;fill-rule:nonzero;stroke:none;stroke-width:1.83983362;marker:none;enable-background:accumulate"
           id="path4395-4"
           d="m -124.463,-37.808145 -4.62845,-12.959023 -13.70598,1.226797 12.95903,-4.628451 -1.2268,-13.705977 4.62845,12.959023 13.70598,-1.226795 -12.95903,4.628449 z"
           inkscape:connector-curvature="0" />
        <path
           style="color:#000000;display:inline;overflow:visible;visibility:visible;fill:url(#radialGradient4481-2);fill-opacity:1;fill-rule:nonzero;stroke:none;stroke-width:0.87787634;marker:none;enable-background:accumulate"
           id="path4473-1"
           d="m -121.2789,-80.290311 a 7.023011,7.023011 0 1 1 -13.71916,3.01253 7.023011,7.023011 0 1 1 13.71916,-3.01253 z"
           inkscape:connector-curvature="0" />
        <path
           style="color:#000000;display:inline;overflow:visible;visibility:visible;opacity:0.1;fill:#ffcc00;fill-opacity:1;fill-rule:nonzero;stroke:none;stroke-width:0.87787634;marker:none;enable-background:accumulate"
           id="path4475-5"
           inkscape:connector-curvature="0"
           d="m -130.04149,-87.630069 -0.18845,7.507695 -6.75245,3.319046 7.50559,0.110744 3.3473,6.838465 0.0825,-7.591597 6.86672,-3.261292 -7.61985,-0.168499 z" />
        <path
           style="color:#000000;display:inline;overflow:visible;visibility:visible;opacity:0.2;fill:#ffcc00;fill-opacity:1;fill-rule:nonzero;stroke:none;stroke-width:0.87787634;marker:none;enable-background:accumulate"
           id="path4477-3"
           inkscape:connector-curvature="0"
           d="m -126.31909,-70.717628 -2.76193,-6.434693 -7.03207,0.167498 6.4508,-2.695593 -0.18361,-7.098407 2.70911,6.44629 7.08489,-0.179095 -6.46431,2.87916 z" />
        <path
           style="color:#000000;display:inline;overflow:visible;visibility:visible;fill:url(#radialGradient4483-2);fill-opacity:1;fill-rule:nonzero;stroke:none;stroke-width:0.87787634;marker:none;enable-background:accumulate"
           id="path4479-7"
           d="m -126.50738,-71.575076 -2.20846,-6.183396 -6.53981,0.585366 6.1834,-2.208465 -0.58537,-6.539805 2.20847,6.183396 6.5398,-0.585365 -6.18339,2.208464 z"
           inkscape:connector-curvature="0" />
        <rect
           width="8"
           height="80"
           rx="1"
           ry="1.5"
           x="-40.862782"
           y="-136.96425"
           id="rect4228"
           style="color:#000000;display:inline;overflow:visible;visibility:visible;fill:url(#linearGradient4238);fill-opacity:1;fill-rule:nonzero;stroke:none;stroke-width:1;marker:none;enable-background:accumulate"
           transform="rotate(-42.384765)" />
        <path
           d="m -121.77247,-74.294803 c -0.4092,0.373455 -0.28765,1.168253 0.27253,1.782058 l 8.42632,9.232933 5.90908,-5.392848 -8.42633,-9.232933 c -0.56018,-0.613805 -1.34059,-0.807301 -1.74979,-0.433846 z"
           inkscape:connector-curvature="0"
           id="path4230"
           style="color:#000000;display:inline;overflow:visible;visibility:visible;fill:url(#linearGradient4240);fill-opacity:1;fill-rule:nonzero;stroke:none;stroke-width:1;marker:none;enable-background:accumulate" />
        <path
           d="m -67.84399,-15.204034 c -0.4092,0.373455 -1.18961,0.179959 -1.74979,-0.433846 l -8.42633,-9.232933 5.90908,-5.392848 8.42633,9.232933 c 0.56018,0.613805 0.68172,1.408603 0.27252,1.782058 z"
           inkscape:connector-curvature="0"
           id="path4232"
           style="color:#000000;display:inline;overflow:visible;visibility:visible;fill:url(#linearGradient4242);fill-opacity:1;fill-rule:nonzero;stroke:none;stroke-width:1;marker:none;enable-background:accumulate" />
      </g>
      <path
         style="color:#000000;font-style:normal;font-variant:normal;font-weight:normal;font-stretch:normal;font-size:medium;line-height:normal;font-family:Sans;-inkscape-font-specification:Sans;text-indent:0;text-align:start;text-decoration:none;text-decoration-line:none;letter-spacing:normal;word-spacing:normal;text-transform:none;writing-mode:lr-tb;direction:ltr;baseline-shift:baseline;text-anchor:start;display:inline;overflow:visible;visibility:visible;fill:#241f1f;fill-opacity:0.63265303;stroke:none;stroke-width:2.3755002;marker:none;enable-background:accumulate"
         d="m 9.9740341,5.1444869 c -3.116621,0 -5.667965,2.53951 -5.667965,5.6460041 v 69.277996 c 0,3.106495 2.551344,5.646004 5.667965,5.646004 H 86.765819 c 3.116621,0 5.667968,-2.539509 5.667968,-5.646004 V 10.790491 c 0,-3.1064931 -2.551347,-5.6460041 -5.667968,-5.6460041 z m 0,2.319439 H 86.765819 c 1.888099,0 3.352022,1.480095 3.352022,3.3265651 v 69.277996 c 0,1.846474 -1.463923,3.326564 -3.352022,3.326564 H 9.9740341 c -1.888099,0 -3.352022,-1.48009 -3.352022,-3.326564 V 10.790491 c 0,-1.8464701 1.463923,-3.3265651 3.352022,-3.3265651 z"
         id="path4989"
         inkscape:connector-curvature="0" />
      <path
         id="path4118"
         d="m 1.6489535,82.258776 v 6 c 0,3.680142 2.9761066,6.65625 6.6562496,6.65625 H 87.992703 c 3.680143,0 6.656254,-2.976108 6.656254,-6.65625 v -6 c 0,3.680142 -2.976111,6.65625 -6.656254,6.65625 H 8.3052031 c -3.680143,0 -6.6562496,-2.976108 -6.6562496,-6.65625 z"
         style="display:inline;opacity:0.65818182;fill:url(#linearGradient4129);fill-opacity:1;fill-rule:nonzero;stroke:none"
         inkscape:connector-curvature="0" />
      <rect
         ry="4.25"
         rx="0"
         y="80.665031"
         x="5.5239539"
         height="4.25"
         width="84.250008"
         id="rect4131"
         style="opacity:0.55;fill:url(#radialGradient7462);fill-opacity:1;stroke:none" />
      <rect
         transform="rotate(90)"
         style="opacity:0.669;fill:url(#radialGradient7464);fill-opacity:1;stroke:none"
         id="rect4141"
         width="76.75"
         height="4.25"
         x="5.9750223"
         y="-90.233963"
         rx="0"
         ry="4.25" />
      <rect
         clip-path="url(#clipPath4156-4-1)"
         ry="3.9569881"
         rx="3.9569874"
         y="-30"
         x="2"
         height="69.024437"
         width="75.965775"
         id="rect4146"
         style="opacity:0.669;fill:url(#linearGradient4767);fill-opacity:1;stroke:none"
         transform="matrix(1.0692451,0,0,1.0476829,4.4441802,38.894013)" />
    </g>
  </g>
</svg>
