<?xml version="1.0" encoding="UTF-8" standalone="no"?>
<!-- Created with Inkscape (http://www.inkscape.org/) -->

<svg
   xmlns:dc="http://purl.org/dc/elements/1.1/"
   xmlns:cc="http://creativecommons.org/ns#"
   xmlns:rdf="http://www.w3.org/1999/02/22-rdf-syntax-ns#"
   xmlns:svg="http://www.w3.org/2000/svg"
   xmlns="http://www.w3.org/2000/svg"
   xmlns:xlink="http://www.w3.org/1999/xlink"
   xmlns:sodipodi="http://sodipodi.sourceforge.net/DTD/sodipodi-0.dtd"
   xmlns:inkscape="http://www.inkscape.org/namespaces/inkscape"
   width="96"
   height="96"
   id="svg2"
   version="1.1"
   inkscape:version="0.48.5 r10040"
   sodipodi:docname="empty.svg">
  <script
     xlink:href=""
     id="script2985" />
  <defs
     id="defs4">
    <radialGradient
       inkscape:collect="always"
       xlink:href="#radialGradient3996-3"
       id="radialGradient3333"
       gradientUnits="userSpaceOnUse"
       gradientTransform="matrix(0.93962333,0.77477937,-1.7975241,2.1799696,88.130548,-93.365748)"
       cx="48.30785"
       cy="47.141338"
       r="14.16129" />
    <radialGradient
       cx="48.30785"
       cy="47.141338"
       r="14.16129"
       id="radialGradient3996-3"
       gradientUnits="userSpaceOnUse"
       gradientTransform="matrix(0.93962333,0.77477937,-1.7975241,2.1799696,88.130548,-93.365748)">
      <stop
         id="stop3954-3"
         style="stop-color:#000000;stop-opacity:0.22264875"
         offset="0" />
      <stop
         id="stop3958-3"
         style="stop-color:#000000;stop-opacity:0.0678183"
         offset="0.5" />
      <stop
         id="stop3956-4"
         style="stop-color:#000000;stop-opacity:0.02431222"
         offset="1" />
    </radialGradient>
    <linearGradient
       inkscape:collect="always"
       xlink:href="#linearGradient4308-6"
       id="linearGradient3335"
       gradientUnits="userSpaceOnUse"
       x1="45"
       y1="52"
       x2="73"
       y2="4" />
    <linearGradient
       x1="45"
       y1="52"
       x2="73"
       y2="4"
       id="linearGradient4308-6"
       gradientUnits="userSpaceOnUse">
      <stop
         id="stop4304-4"
         style="stop-color:#000000;stop-opacity:0.10677083"
         offset="0" />
      <stop
         id="stop4306-3"
         style="stop-color:#000000;stop-opacity:0"
         offset="1" />
    </linearGradient>
    <linearGradient
       inkscape:collect="always"
       xlink:href="#linearGradient4259-3"
       id="linearGradient3337"
       gradientUnits="userSpaceOnUse"
       x1="48.917568"
       y1="46.213669"
       x2="32.669781"
       y2="24" />
    <linearGradient
       x1="48.917568"
       y1="46.213669"
       x2="32.669781"
       y2="24"
       id="linearGradient4259-3"
       gradientUnits="userSpaceOnUse">
      <stop
         id="stop3988-7"
         style="stop-color:#ffffff;stop-opacity:0.52975047"
         offset="0" />
      <stop
         id="stop3990-1"
         style="stop-color:#ffffff;stop-opacity:0"
         offset="1" />
    </linearGradient>
    <linearGradient
       inkscape:collect="always"
       xlink:href="#linearGradient3984-9"
       id="linearGradient3339"
       gradientUnits="userSpaceOnUse"
       x1="0.29404691"
       y1="33.425831"
       x2="59.729176"
       y2="33.101307" />
    <linearGradient
       x1="0.29404691"
       y1="33.425831"
       x2="59.729176"
       y2="33.101307"
       id="linearGradient3984-9"
       gradientUnits="userSpaceOnUse">
      <stop
         id="stop3099-9"
         style="stop-color:#ececec;stop-opacity:1;"
         offset="0" />
      <stop
         id="stop3875-8"
         style="stop-color:#efebeb;stop-opacity:1;"
         offset="0.4866482" />
      <stop
         id="stop3873-1"
         style="stop-color:#dee4e5;stop-opacity:1;"
         offset="0.51168245" />
      <stop
         id="stop3101-7"
         style="stop-color:#f2f2f2;stop-opacity:1;"
         offset="1" />
    </linearGradient>
    <linearGradient
       inkscape:collect="always"
       xlink:href="#linearGradient4280-6"
       id="linearGradient3341"
       gradientUnits="userSpaceOnUse"
       x1="48.992088"
       y1="46.124821"
       x2="37"
       y2="36" />
    <linearGradient
       x1="48.992088"
       y1="46.124821"
       x2="37"
       y2="36"
       id="linearGradient4280-6"
       gradientUnits="userSpaceOnUse">
      <stop
         id="stop4293-95"
         style="stop-color:#cfcfcf;stop-opacity:1"
         offset="0" />
      <stop
         id="stop4295-8"
         style="stop-color:#b7b7b7;stop-opacity:1"
         offset="0.2098622" />
      <stop
         id="stop4297-0"
         style="stop-color:#c9c9c9;stop-opacity:1"
         offset="1" />
    </linearGradient>
    <radialGradient
       inkscape:collect="always"
       xlink:href="#linearGradient4133-5"
       id="radialGradient5867"
       gradientUnits="userSpaceOnUse"
       gradientTransform="matrix(1.0353919,0,0,0.05736347,3.9849628,117.73412)"
       cx="13.948145"
       cy="44.892841"
       fx="13.948145"
       fy="44.892841"
       r="43.199203" />
    <linearGradient
       inkscape:collect="always"
       id="linearGradient4133-5">
      <stop
         style="stop-color:#ffffff;stop-opacity:1;"
         offset="0"
         id="stop4135-1" />
      <stop
         style="stop-color:#ffffff;stop-opacity:0;"
         offset="1"
         id="stop4137-0" />
    </linearGradient>
    <radialGradient
       inkscape:collect="always"
       xlink:href="#linearGradient4133-5"
       id="radialGradient5869"
       gradientUnits="userSpaceOnUse"
       gradientTransform="matrix(1.0359169,0,0,0.05223045,60.08904,-64.305098)"
       cx="13.948145"
       cy="44.892841"
       fx="13.948145"
       fy="44.892841"
       r="43.199203" />
    <linearGradient
       inkscape:collect="always"
       xlink:href="#linearGradient3984-9-6"
       id="linearGradient5871"
       gradientUnits="userSpaceOnUse"
       gradientTransform="matrix(1.0004943,0,0,0.99149733,-29.066079,-60.494183)"
       spreadMethod="reflect"
       x1="93.39798"
       y1="-18.925377"
       x2="2.2660911"
       y2="-19.957712" />
    <linearGradient
       x1="0.29404691"
       y1="33.425831"
       x2="59.729176"
       y2="33.101307"
       id="linearGradient3984-9-6"
       gradientUnits="userSpaceOnUse">
      <stop
         id="stop3099-9-8"
         style="stop-color:#ececec;stop-opacity:1;"
         offset="0" />
      <stop
         id="stop3875-8-5"
         style="stop-color:#efebeb;stop-opacity:1;"
         offset="0.4866482" />
      <stop
         id="stop3873-1-8"
         style="stop-color:#dee4e5;stop-opacity:1;"
         offset="0.51168245" />
      <stop
         id="stop3101-7-8"
         style="stop-color:#f2f2f2;stop-opacity:1;"
         offset="1" />
    </linearGradient>
    <radialGradient
       inkscape:collect="always"
       xlink:href="#linearGradient4348-4"
       id="radialGradient5873"
       gradientUnits="userSpaceOnUse"
       gradientTransform="matrix(1.0921005,0,0,0.06510907,-33.156085,116.01296)"
       cx="39.591694"
       cy="60.38644"
       fx="39.591694"
       fy="60.38644"
       r="41.470058" />
    <linearGradient
       inkscape:collect="always"
       id="linearGradient4348-4">
      <stop
         style="stop-color:#000000;stop-opacity:1;"
         offset="0"
         id="stop4350-8" />
      <stop
         style="stop-color:#000000;stop-opacity:0;"
         offset="1"
         id="stop4352-8" />
    </linearGradient>
    <linearGradient
       inkscape:collect="always"
       xlink:href="#linearGradient4160-1"
       id="linearGradient5875"
       gradientUnits="userSpaceOnUse"
       gradientTransform="matrix(1.0114053,0,0,1.0044929,-29.589803,28.043121)"
       x1="2.5"
       y1="11.140625"
       x2="93.5"
       y2="11.140625" />
    <linearGradient
       id="linearGradient4160-1">
      <stop
         id="stop4170-6"
         offset="0"
         style="stop-color:#000000;stop-opacity:0;" />
      <stop
         style="stop-color:#000000;stop-opacity:0.96470588;"
         offset="0.03175623"
         id="stop4186-6" />
      <stop
         style="stop-color:#000000;stop-opacity:0;"
         offset="0.09425623"
         id="stop4182-5" />
      <stop
         style="stop-color:#000000;stop-opacity:0;"
         offset="0.49595019"
         id="stop4180-0" />
      <stop
         style="stop-color:#000000;stop-opacity:0;"
         offset="0.90525883"
         id="stop4178-2" />
      <stop
         id="stop4184-0"
         offset="0.96241152"
         style="stop-color:#000000;stop-opacity:0.98823529;" />
      <stop
         id="stop4168-2"
         offset="1"
         style="stop-color:#000000;stop-opacity:0;" />
    </linearGradient>
    <radialGradient
       inkscape:collect="always"
       xlink:href="#linearGradient4204"
       id="radialGradient4210"
       cx="-48.731873"
       cy="35.073528"
       fx="-48.731873"
       fy="35.073528"
       r="29.024296"
       gradientTransform="matrix(1.0646477,0,0,0.03274241,2.9252433,33.925137)"
       gradientUnits="userSpaceOnUse" />
    <linearGradient
       inkscape:collect="always"
       id="linearGradient4204">
      <stop
         style="stop-color:#ffffff;stop-opacity:1;"
         offset="0"
         id="stop4206" />
      <stop
         style="stop-color:#ffffff;stop-opacity:0;"
         offset="1"
         id="stop4208" />
    </linearGradient>
    <radialGradient
       inkscape:collect="always"
       xlink:href="#radialGradient3996-3-3"
       id="radialGradient3333-6"
       gradientUnits="userSpaceOnUse"
       gradientTransform="matrix(0.80018438,0.67652515,-1.5307737,1.9035151,3.7912682,-48.144492)"
       cx="48.30785"
       cy="47.141338"
       r="14.16129" />
    <radialGradient
       cx="48.30785"
       cy="47.141338"
       r="14.16129"
       id="radialGradient3996-3-3"
       gradientUnits="userSpaceOnUse"
       gradientTransform="matrix(0.93962333,0.77477937,-1.7975241,2.1799696,88.130548,-93.365748)">
      <stop
         id="stop3954-3-6"
         style="stop-color:#000000;stop-opacity:0.22264875"
         offset="0" />
      <stop
         id="stop3958-3-6"
         style="stop-color:#000000;stop-opacity:0.0678183"
         offset="0.5" />
      <stop
         id="stop3956-4-0"
         style="stop-color:#000000;stop-opacity:0.02431222"
         offset="1" />
    </radialGradient>
    <linearGradient
       inkscape:collect="always"
       xlink:href="#linearGradient4308-6-4"
       id="linearGradient3335-7"
       gradientUnits="userSpaceOnUse"
       x1="45"
       y1="52"
       x2="73"
       y2="4"
       gradientTransform="matrix(0.95958619,0,0,1,-75.741251,27.019518)" />
    <linearGradient
       x1="45"
       y1="52"
       x2="73"
       y2="4"
       id="linearGradient4308-6-4"
       gradientUnits="userSpaceOnUse">
      <stop
         id="stop4304-4-4"
         style="stop-color:#000000;stop-opacity:0.10677083"
         offset="0" />
      <stop
         id="stop4306-3-9"
         style="stop-color:#000000;stop-opacity:0"
         offset="1" />
    </linearGradient>
    <linearGradient
       inkscape:collect="always"
       xlink:href="#linearGradient4280-6-9"
       id="linearGradient3341-2"
       gradientUnits="userSpaceOnUse"
       x1="48.992088"
       y1="46.124821"
       x2="37"
       y2="36"
       gradientTransform="translate(-75.954866,24.617783)" />
    <linearGradient
       x1="48.992088"
       y1="46.124821"
       x2="37"
       y2="36"
       id="linearGradient4280-6-9"
       gradientUnits="userSpaceOnUse">
      <stop
         id="stop4293-95-9"
         style="stop-color:#cfcfcf;stop-opacity:1"
         offset="0" />
      <stop
         id="stop4295-8-1"
         style="stop-color:#b7b7b7;stop-opacity:1"
         offset="0.2098622" />
      <stop
         id="stop4297-0-3"
         style="stop-color:#c9c9c9;stop-opacity:1"
         offset="1" />
    </linearGradient>
    <linearGradient
       x1="114.99662"
       y1="165.98375"
       x2="135.83893"
       y2="120.67539"
       id="linearGradient8399"
       xlink:href="#linearGradient4076"
       gradientUnits="userSpaceOnUse"
       gradientTransform="matrix(0.40558412,0,0,0.39999599,1.5499393,2.1179479)" />
    <linearGradient
       id="linearGradient4076">
      <stop
         id="stop4078"
         style="stop-color:#ffe45d;stop-opacity:1"
         offset="0" />
      <stop
         id="stop4080"
         style="stop-color:#ffb01c;stop-opacity:1"
         offset="1" />
    </linearGradient>
    <linearGradient
       x1="48.800121"
       y1="43.643417"
       x2="54.379364"
       y2="57.859699"
       id="linearGradient8429"
       xlink:href="#linearGradient8362"
       gradientUnits="userSpaceOnUse" />
    <linearGradient
       id="linearGradient8362">
      <stop
         id="stop8364"
         style="stop-color:#ffffff;stop-opacity:1"
         offset="0" />
      <stop
         id="stop8366"
         style="stop-color:#ffffff;stop-opacity:0"
         offset="1" />
    </linearGradient>
    <linearGradient
       x1="62.684563"
       y1="65.534477"
       x2="51.501648"
       y2="46.1651"
       id="linearGradient8409"
       xlink:href="#linearGradient8403"
       gradientUnits="userSpaceOnUse" />
    <linearGradient
       id="linearGradient8403">
      <stop
         id="stop8405"
         style="stop-color:#aa6f00;stop-opacity:1"
         offset="0" />
      <stop
         id="stop8407"
         style="stop-color:#d99800;stop-opacity:1"
         offset="1" />
    </linearGradient>
    <linearGradient
       x1="116.53692"
       y1="58.201862"
       x2="77.087646"
       y2="118.20246"
       id="linearGradient8345"
       xlink:href="#linearGradient4092"
       gradientUnits="userSpaceOnUse"
       gradientTransform="matrix(0.40558412,0,0,0.39999599,0.73447513,0.71948886)" />
    <linearGradient
       id="linearGradient4092">
      <stop
         id="stop4094"
         style="stop-color:#2b5d87;stop-opacity:1"
         offset="0" />
      <stop
         id="stop4096"
         style="stop-color:#4182b8;stop-opacity:1"
         offset="1" />
    </linearGradient>
    <linearGradient
       x1="36.129795"
       y1="26.97562"
       x2="46.904793"
       y2="43.868523"
       id="linearGradient8368"
       xlink:href="#linearGradient8362"
       gradientUnits="userSpaceOnUse" />
    <linearGradient
       id="linearGradient3441">
      <stop
         id="stop3443"
         style="stop-color:#ffffff;stop-opacity:1"
         offset="0" />
      <stop
         id="stop3445"
         style="stop-color:#ffffff;stop-opacity:0"
         offset="1" />
    </linearGradient>
    <linearGradient
       x1="49.395386"
       y1="49.177551"
       x2="31.857361"
       y2="24.6332"
       id="linearGradient8390"
       xlink:href="#linearGradient8384"
       gradientUnits="userSpaceOnUse" />
    <linearGradient
       id="linearGradient8384">
      <stop
         id="stop8386"
         style="stop-color:#1e3b55;stop-opacity:1"
         offset="0" />
      <stop
         id="stop8388"
         style="stop-color:#2e5c84;stop-opacity:1"
         offset="1" />
    </linearGradient>
  </defs>
  <sodipodi:namedview
     id="base"
     pagecolor="#ffffff"
     bordercolor="#666666"
     borderopacity="1.0"
     inkscape:pageopacity="0.0"
     inkscape:pageshadow="2"
     inkscape:zoom="2.911222"
     inkscape:cx="-32.476186"
     inkscape:cy="32"
     inkscape:current-layer="layer1"
     showgrid="true"
     inkscape:document-units="px"
     inkscape:grid-bbox="true"
     inkscape:showpageshadow="false"
     gridtolerance="1"
     guidetolerance="1"
     objecttolerance="1"
     inkscape:window-width="1280"
     inkscape:window-height="966"
     inkscape:window-x="0"
     inkscape:window-y="0"
     inkscape:window-maximized="1" />
  <metadata
     id="metadata7">
    <rdf:RDF>
      <cc:Work
         rdf:about="">
        <dc:format>image/svg+xml</dc:format>
        <dc:type
           rdf:resource="http://purl.org/dc/dcmitype/StillImage" />
        <dc:title></dc:title>
      </cc:Work>
    </rdf:RDF>
  </metadata>
  <g
     id="layer1"
     inkscape:label="Layer 1"
     inkscape:groupmode="layer"
     transform="translate(0,32)">
    <g
       transform="translate(29.042338,-60.287372)"
       id="g4212">
      <path
         inkscape:connector-curvature="0"
         style="opacity:0.15;fill:#000000;fill-opacity:1;stroke:none"
         d="m -24.921454,28.287374 c -2.287678,0 -4.120881,2.13343 -4.120881,4.782781 l 0,86.434435 c 0,2.64935 1.833203,4.78278 4.120881,4.78278 l 87.75824,0 c 2.287672,0 4.120872,-2.13343 4.120872,-4.78278 l 0,-86.434435 c 0,-2.649351 -1.8332,-4.782781 -4.120872,-4.782781 l -87.75824,0 z"
         id="path4992" />
      <path
         id="path4994"
         d="m -24.235849,29.037374 c -2.251936,0 -4.056489,2.100095 -4.056489,4.70805 l 0,85.083896 c 0,2.60796 1.804553,4.70805 4.056489,4.70805 l 86.387035,0 c 2.251922,0 4.056482,-2.10009 4.056482,-4.70805 l 0,-85.083896 c 0,-2.607955 -1.80456,-4.70805 -4.056482,-4.70805 l -86.387035,0 z"
         style="opacity:0.15;fill:#000000;fill-opacity:1;stroke:none"
         inkscape:connector-curvature="0" />
      <rect
         style="opacity:0.55;fill:url(#radialGradient5867);fill-opacity:1;stroke:none"
         id="rect4131"
         width="89.456207"
         height="4.9561129"
         x="-26.301346"
         y="117.83126"
         rx="0"
         ry="4.9561129" />
      <rect
         ry="4.5126276"
         rx="0"
         y="-64.216652"
         x="29.787376"
         height="4.5126276"
         width="89.501564"
         id="rect4141"
         style="opacity:0.55;fill:url(#radialGradient5869);fill-opacity:1;stroke:none"
         transform="matrix(0,1,-1,0,0,0)" />
      <path
         inkscape:connector-curvature="0"
         style="opacity:0;fill:#000000;fill-opacity:1;stroke:none"
         d="m -23.394945,30.240449 c -2.207575,0 -3.982409,1.762703 -3.982409,3.95519 l 0,12.053915 c 0,-2.192488 1.774834,-3.955191 3.982409,-3.955191 l 84.705191,0 c 2.207572,0 3.982412,1.762703 3.982412,3.955191 l 0,-12.053915 c 0,-2.192487 -1.77484,-3.95519 -3.982412,-3.95519 l -84.705191,0 z"
         id="rect4080" />
      <rect
         transform="scale(1,-1)"
         style="fill:url(#linearGradient5871);fill-opacity:1;stroke:#738589;stroke-width:1.00031602;stroke-miterlimit:4;stroke-opacity:1;stroke-dasharray:none"
         id="rect4133"
         width="92.045486"
         height="91.217758"
         x="-27.065086"
         y="-121.96702"
         rx="3.9589436"
         ry="3.9233429" />
      <path
         id="path4060"
         d="m -23.093973,38.517005 c -2.193234,0 -3.970674,1.769321 -3.970674,3.952535 l 0,3.983657 c 0,-2.183214 1.77744,-3.952535 3.970674,-3.952535 l 84.103249,0 c 2.19323,0 3.970672,1.769321 3.970672,3.952535 l 0,-3.983657 c 0,-2.183214 -1.777442,-3.952535 -3.970672,-3.952535 l -84.103249,0 z"
         style="fill:#e4e8e8;fill-opacity:1;stroke:#738589;stroke-width:1.00031602;stroke-miterlimit:4;stroke-opacity:1;stroke-dasharray:none"
         inkscape:connector-curvature="0" />
      <path
         inkscape:connector-curvature="0"
         style="fill:#e4e8e8;fill-opacity:1;stroke:#738589;stroke-width:1.00031602;stroke-miterlimit:4;stroke-opacity:1;stroke-dasharray:none"
         d="m -23.093973,34.533774 c -2.193234,0 -3.970674,1.76932 -3.970674,3.952533 l 0,3.983656 c 0,-2.183213 1.77744,-3.952533 3.970674,-3.952533 l 84.103249,0 c 2.19323,0 3.970672,1.76932 3.970672,3.952533 l 0,-3.983656 c 0,-2.183213 -1.777442,-3.952533 -3.970672,-3.952533 l -84.103249,0 z"
         id="path4062" />
      <rect
         style="opacity:0.6;fill:url(#radialGradient5873);fill-opacity:1;stroke:none"
         id="rect4338"
         width="90.578949"
         height="5.4001536"
         x="-26.353302"
         y="116.92065" />
      <path
         style="opacity:0.25818182;fill:url(#linearGradient5875);fill-opacity:1;stroke:none"
         d="m -23.110487,30.742695 c -2.193255,0 -3.950802,1.750269 -3.950802,3.923801 l 0,13.058407 c 0,-2.173532 2.111063,-4.806126 4.304314,-4.80154 l 83.959531,0.175548 c 2.19324,0.0046 3.774032,2.45246 3.774032,4.625992 l 0,-13.058407 c 0,-2.173532 -1.757552,-3.923801 -3.950802,-3.923801 z"
         id="rect4358"
         inkscape:connector-curvature="0"
         sodipodi:nodetypes="sscsscsss" />
      <g
         id="g4111"
         transform="matrix(1.4386579,0,0,1.4386579,89.26212,-6.3241435)">
        <path
           style="fill:url(#radialGradient4210);fill-opacity:1;fill-rule:nonzero"
           id="path4253"
           d="m -79.857685,34.123204 61.801301,0 0,1.900651 -61.801301,0 z"
           inkscape:connector-curvature="0" />
        <g
           id="g4178">
          <path
             inkscape:connector-curvature="0"
             d="m -20.164741,62.19609 3.406405,3.492737 0,21.829606 -24.119544,0 z"
             id="path3934"
             style="fill:url(#radialGradient3333-6);fill-rule:nonzero" />
          <path
             inkscape:connector-curvature="0"
             d="m -18.166079,29.019518 0,31 -23.989655,29 1.919172,0 22.820159,-28.34375 0.20991,-0.28125 0,-0.375 0,-30 z"
             id="path3922"
             style="fill:url(#linearGradient3335-7);fill-rule:nonzero" />
          <path
             inkscape:connector-curvature="0"
             d="m -41.954866,88.617783 26,-31 c -2.328567,2.776369 -4.36141,3 -11,3 h -12 v 15 c 0,6.644068 0.04437,9.370179 -3,13 z"
             id="path4278"
             style="fill:url(#linearGradient3341-2);fill-rule:nonzero" />
          <path
             d="m -16.054215,57.668542 c -2.328567,2.776369 -4.36141,3 -11,3 h -12 v 15 c 0,6.644068 0.04437,9.370179 -3,13 4,-5 4.000382,-8.356667 4,-13 v -14 h 11 c 5,0 8.041405,-0.381883 11,-4 z"
             id="path4282"
             style="fill:#ffffff;fill-opacity:0.77120146;fill-rule:nonzero"
             inkscape:connector-curvature="0" />
        </g>
      </g>
    </g>
    <g
       style="display:inline"
       id="layer4"
       transform="matrix(1.0577901,0,0,1.0577901,-16.404899,-36.950594)">
      <path
         d="m 47.8125,22.96875 c -2.070832,-0.02603 -4.221656,0.25164 -6.53125,0.90625 -1.581632,0.447306 -3.37913,1.146714 -4.96875,2.34375 -1.660418,1.250349 -3.09375,3.272231 -3.09375,5.84375 l 0,2.21875 -2.09375,0 c -2.40328,0 -4.449322,1.081878 -5.75,2.71875 -1.222988,1.539103 -1.834946,3.320021 -2.40625,5 -1.339147,3.924628 -1.238358,7.882854 -0.0625,12.5 0.450986,1.7745 1.132353,3.605656 2.46875,5.09375 1.386452,1.54383 3.430629,2.46875 5.75,2.46875 l 4.84375,0 0.8125,0 c 0.0027,-1.6e-5 0.09102,1.49e-4 0.09375,0 0.0027,-1.49e-4 0.122285,-0.03097 0.125,-0.03125 0.0027,-2.82e-4 0.09105,4.14e-4 0.09375,0 0.0027,-4.14e-4 0.09107,5.45e-4 0.09375,0 0.0027,-5.45e-4 0.0911,-0.03058 0.09375,-0.03125 0.0026,-6.74e-4 0.09114,-0.03045 0.09375,-0.03125 0.0026,-8.02e-4 0.09118,-0.03032 0.09375,-0.03125 0.0026,-9.28e-4 0.09123,-0.0302 0.09375,-0.03125 0.0025,-0.0011 0.09128,-0.03008 0.09375,-0.03125 0.0025,-0.0012 0.09134,-0.06121 0.09375,-0.0625 0.0024,-0.0013 0.06016,-0.02984 0.0625,-0.03125 0.0023,-0.0014 0.09148,-0.06098 0.09375,-0.0625 0.0023,-0.0015 0.09156,-0.06087 0.09375,-0.0625 0.0022,-0.0016 0.06039,-0.06077 0.0625,-0.0625 0.0021,-0.0017 0.06048,-0.06067 0.0625,-0.0625 0.002,-0.0018 0.09182,-0.06057 0.09375,-0.0625 0.0019,-0.0019 0.06067,-0.09173 0.0625,-0.09375 0.0018,-0.002 0.06077,-0.06039 0.0625,-0.0625 0.0017,-0.0021 0.06087,-0.06031 0.0625,-0.0625 0.0016,-0.0022 0.06098,-0.09148 0.0625,-0.09375 0.0015,-0.0023 0.06109,-0.09141 0.0625,-0.09375 0.0014,-0.0023 0.02996,-0.06009 0.03125,-0.0625 0.0013,-0.0024 0.06133,-0.09128 0.0625,-0.09375 0.0012,-0.0025 0.0302,-0.09123 0.03125,-0.09375 0.0011,-0.0025 0.03032,-0.09118 0.03125,-0.09375 9.28e-4,-0.0026 0.03045,-0.09114 0.03125,-0.09375 8.02e-4,-0.0026 0.03058,-0.0911 0.03125,-0.09375 6.74e-4,-0.0026 0.0307,-0.09107 0.03125,-0.09375 5.45e-4,-0.0027 -4.14e-4,-0.09105 0,-0.09375 4.14e-4,-0.0027 -2.82e-4,-0.09103 0,-0.09375 2.82e-4,-0.0027 0.0311,-0.122274 0.03125,-0.125 1.49e-4,-0.0027 -1.6e-5,-0.09102 0,-0.09375 l 0,-0.8125 0,-4.28125 c 0,-0.763419 0.519094,-1.820808 1.4375,-2.65625 0.432727,-0.393637 0.992701,-0.741082 1.5,-0.96875 C 42.257299,51.084832 42.757253,51 42.84375,51 l 10.1875,0 c 4.788528,0 8.3125,-4.273733 8.3125,-8.75 l 0,-10.1875 c 0,-2.316345 -1.093702,-4.265586 -2.59375,-5.59375 -1.448085,-1.282156 -3.208579,-2.097026 -4.9375,-2.59375 -1.931755,-0.55483 -3.930348,-0.880237 -6,-0.90625 z"
         id="path8475"
         style="opacity:0.05;fill:#2c5f89;fill-opacity:1;stroke:none"
         inkscape:connector-curvature="0" />
      <path
         d="m 47.8125,23.90625 c -1.978568,-0.02487 -4.050983,0.242874 -6.28125,0.875 -1.513884,0.428146 -3.198549,1.089803 -4.65625,2.1875 -1.485789,1.118848 -2.71875,2.866248 -2.71875,5.09375 l 0,3.15625 -3.03125,0 c -2.124923,0 -3.900275,0.951695 -5.03125,2.375 -1.096089,1.379403 -1.680658,3.04454 -2.25,4.71875 -1.273375,3.731872 -1.179781,7.458906 -0.03125,11.96875 0.433453,1.705512 1.063488,3.366305 2.25,4.6875 1.206864,1.343856 2.986321,2.15625 5.0625,2.15625 l 4.84375,0 0.8125,0 A 1.1003999,1.1003999 0 0 0 37.875,60.03125 l 0,-0.8125 0,-4.28125 c 0,-1.138241 0.686453,-2.376278 1.75,-3.34375 1.049515,-0.954707 2.527431,-1.53125 3.21875,-1.53125 l 10.1875,0 c 4.225582,0 7.375,-3.827413 7.375,-7.8125 l 0,-10.1875 c 0,-2.02472 -0.95004,-3.727578 -2.28125,-4.90625 -1.31142,-1.16115 -2.928042,-1.905415 -4.5625,-2.375 -1.862672,-0.534988 -3.7718,-0.850136 -5.75,-0.875 z"
         id="path8471"
         style="opacity:0.15;fill:#2c5f89;fill-opacity:1;stroke:none"
         inkscape:connector-curvature="0" />
      <path
         d="m 47.8125,25 c -1.866466,-0.02346 -3.828684,0.23719 -5.96875,0.84375 -1.435165,0.405883 -3.020526,1.027101 -4.3125,2 C 36.239276,28.816649 35.25,30.231266 35.25,32.0625 l 0,4.25 -4.125,0 c -1.810499,0 -3.208529,0.776065 -4.15625,1.96875 -0.947721,1.192685 -1.532597,2.72487 -2.09375,4.375 -1.197461,3.50939 -1.117628,6.95525 0,11.34375 0.411825,1.62041 0.993993,3.09855 2,4.21875 1.006007,1.1202 2.457053,1.8125 4.25,1.8125 l 4.84375,0 0.8125,0 0,-0.8125 0,-4.28125 c 0,-1.54638 0.860417,-3.03433 2.09375,-4.15625 1.233333,-1.12192 2.831864,-1.8125 3.96875,-1.8125 l 10.1875,0 c 3.535091,0 6.28125,-3.32769 6.28125,-6.71875 l 0,-10.1875 c 0,-1.691553 -0.768301,-3.086194 -1.90625,-4.09375 C 56.268301,26.961194 54.777772,26.282684 53.25,25.84375 51.462141,25.330249 49.678966,25.02346 47.8125,25 z"
         inkscape:connector-curvature="0"
         id="path8454"
         style="opacity:0.3;fill:#2c5f89;fill-opacity:1;stroke:none" />
      <path
         d="m 58.9375,35.90625 a 1.2187565,1.2187565 0 0 0 -0.09375,0.03125 c 0.01045,-0.002 -0.19773,0.03419 -0.1875,0.03125 0.01023,-0.0029 -0.197437,0.06631 -0.1875,0.0625 0.0099,-0.0038 -0.165819,0.06716 -0.15625,0.0625 0.0096,-0.0047 -0.165379,0.09922 -0.15625,0.09375 0.0091,-0.0055 -0.164871,0.09999 -0.15625,0.09375 0.0086,-0.0062 -0.133047,0.131967 -0.125,0.125 0.008,-0.007 -0.132413,0.132638 -0.125,0.125 0.0074,-0.0076 -0.131724,0.133252 -0.125,0.125 0.0067,-0.0083 -0.130983,0.133803 -0.125,0.125 0.006,-0.0088 -0.09895,0.165539 -0.09375,0.15625 0.0052,-0.0093 -0.06687,0.197204 -0.0625,0.1875 0.0044,-0.0097 -0.06602,0.166297 -0.0625,0.15625 0.0035,-0.01005 -0.06513,0.166564 -0.0625,0.15625 0.0026,-0.01031 -0.03298,0.198003 -0.03125,0.1875 0.0017,-0.0105 -0.03206,0.198113 -0.03125,0.1875 8.11e-4,-0.01061 1.11e-4,0.166893 0,0.15625 l 0,0.8125 0,3.65625 c 0,0.83471 -0.551755,2.081571 -1.46875,3 -0.917527,0.918961 -2.165361,1.46875 -2.96875,1.46875 l -9.75,0.0625 c -2.087464,0 -4.156568,0.68803 -5.75,2.125 -1.626784,1.46705 -2.59375,3.660558 -2.59375,6.125 l 0,10.71875 c 0,2.324299 1.085835,4.289866 2.59375,5.625 1.454603,1.287931 3.207288,2.065411 4.9375,2.5625 3.866533,1.110537 7.93575,1.342622 12.5625,0.03125 1.572499,-0.444722 3.364704,-1.135849 4.96875,-2.34375 1.669287,-1.25703 3.125,-3.287743 3.125,-5.875 l 0,-2.1875 2.0625,0 c 2.413678,0 4.478038,-1.109929 5.78125,-2.75 1.216857,-1.531394 1.86026,-3.271302 2.4375,-4.96875 1.343624,-3.937735 1.207319,-7.94451 0.03125,-12.5625 -0.451574,-1.776821 -1.129071,-3.570749 -2.46875,-5.0625 -1.389656,-1.547402 -3.446047,-2.5 -5.78125,-2.5 l -4.84375,0 -0.6875,0 c 0.0064,5.92e-4 -0.06879,0.0026 -0.125,0 -0.04216,-0.002 -0.09858,0 -0.09375,0 0.01128,0 -0.198734,10e-4 -0.1875,0 z"
         id="path8452"
         style="opacity:0.05;fill:#b07400;fill-opacity:1;stroke:none"
         inkscape:connector-curvature="0" />
      <path
         d="m 59.0625,37.125 a 0.85063183,0.85063183 0 0 0 -0.6875,0.84375 l 0,0.8125 0,3.65625 c 0,1.276802 -0.694791,2.755544 -1.8125,3.875 -1.11812,1.119868 -2.591133,1.8125 -3.84375,1.8125 l -9.75,0.0625 c -1.820642,0 -3.590703,0.597948 -4.9375,1.8125 -1.358755,1.225339 -2.1875,3.067248 -2.1875,5.21875 l 0,10.71875 c 0,1.949095 0.900158,3.578915 2.1875,4.71875 1.272044,1.12629 2.858496,1.849875 4.46875,2.3125 3.693092,1.060722 7.454183,1.253004 11.875,0 1.496011,-0.42309 3.173665,-1.055628 4.59375,-2.125 1.441796,-1.085722 2.625,-2.768695 2.625,-4.90625 l 0,-3.40625 3.28125,0 c 2.053553,0 3.72312,-0.910283 4.8125,-2.28125 1.062409,-1.337024 1.68252,-2.956253 2.25,-4.625 1.256149,-3.681374 1.141515,-7.36144 0,-11.84375 C 71.508957,42.095049 70.895539,40.494324 69.75,39.21875 68.588726,37.925655 66.88689,37.125 64.875,37.125 l -4.84375,0 -0.8125,0 a 0.85063183,0.85063183 0 0 0 -0.15625,0 z"
         id="path8448"
         style="opacity:0.15;fill:#b07400;fill-opacity:1;stroke:none"
         inkscape:connector-curvature="0" />
      <path
         d="m 59.21875,37.96875 0,0.8125 0,3.65625 c 0,1.569933 -0.811589,3.215884 -2.0625,4.46875 -1.250911,1.252866 -2.888505,2.0625 -4.4375,2.0625 l -9.75,0.0625 c -1.634787,0 -3.201893,0.535833 -4.375,1.59375 -1.173107,1.05792 -1.90625,2.65688 -1.90625,4.59375 l 0,10.71875 c 0,1.69155 0.768301,3.08619 1.90625,4.09375 1.137949,1.00756 2.628469,1.68607 4.15625,2.125 3.575718,1.02701 7.126116,1.21313 11.40625,0 1.435159,-0.40588 3.020527,-1.0271 4.3125,-2 C 59.760723,69.18335 60.75,67.76873 60.75,65.9375 l 0,-4.25 4.125,0 c 1.810498,0 3.20853,-0.77606 4.15625,-1.96875 0.94772,-1.19269 1.532601,-2.72487 2.09375,-4.375 1.197465,-3.50939 1.117627,-6.95524 0,-11.34375 -0.411823,-1.620414 -0.993993,-3.098547 -2,-4.21875 -1.006007,-1.120203 -2.457054,-1.8125 -4.25,-1.8125 l -4.84375,0 -0.8125,0 z"
         inkscape:connector-curvature="0"
         id="path8431"
         style="opacity:0.3;fill:#b07400;fill-opacity:1;stroke:none" />
      <g
         transform="translate(91.301337,59.321993)"
         id="layer6-2" />
      <g
         transform="translate(91.301337,59.321993)"
         id="layer1-3"
         style="display:inline" />
      <path
         d="m 59.394351,64.937319 c 0,3.087968 -2.717419,4.651953 -5.475389,5.431942 -4.14912,1.175996 -7.478965,0.995993 -10.94671,0 -2.89588,-0.831984 -5.475388,-2.531971 -5.475388,-5.431942 l 0,-10.187898 c 0,-2.93197 2.478111,-5.435946 5.475388,-5.435946 l 10.77163,-0.69068 c 3.646194,0 6.029213,-2.244617 6.029213,-5.928582 l 0.992132,-4.924621 4.104513,0 c 3.187888,0 4.688549,2.335975 5.475378,5.431944 1.095075,4.299956 1.14375,7.515926 0,10.867892 -1.107237,3.255967 -2.291548,5.431945 -5.475378,5.431945 l -5.475389,0 -10.946721,0 0,-0.02136 10.946721,0 0,5.457318 z"
         inkscape:connector-curvature="0"
         id="path2732"
         style="fill:url(#linearGradient8399);fill-opacity:1;stroke:none" />
      <path
         d="m 69.21875,48.46875 c -0.04547,1.362708 -0.297872,2.643708 -0.75,3.96875 -0.528288,1.553496 -1.047647,2.691056 -1.5625,3.28125 -0.514853,0.590194 -0.888653,0.8125 -2.03125,0.8125 l -5.46875,0 A 1.9674614,1.9674614 0 0 0 57.4375,58.5 l 0,0.8125 a 1.9674614,1.9674614 0 0 1 1.96875,-1.78125 l 5.46875,0 c 1.142597,0 1.516397,-0.222306 2.03125,-0.8125 0.514853,-0.590194 1.034212,-1.727754 1.5625,-3.28125 0.560206,-1.641785 0.814675,-3.214773 0.75,-4.96875 z m -29.75,15.46875 0,1 c 0,0.868196 0.311065,1.419297 1,2.03125 0.688935,0.611953 1.777593,1.139825 3.03125,1.5 3.20792,0.921367 6.041492,1.086541 9.875,0 1.210764,-0.342419 2.328413,-0.839976 3.03125,-1.4375 0.702837,-0.597524 1.03125,-1.132058 1.03125,-2.09375 l 0,-1 c 0,0.961692 -0.328413,1.496226 -1.03125,2.09375 -0.702837,0.597524 -1.820486,1.095081 -3.03125,1.4375 -3.833508,1.086541 -6.66708,0.921367 -9.875,0 -1.253657,-0.360175 -2.342315,-0.888047 -3.03125,-1.5 -0.688935,-0.611953 -1,-1.163054 -1,-2.03125 z"
         inkscape:connector-curvature="0"
         id="path8413"
         style="opacity:0.4;fill:#ffffff;fill-opacity:1;stroke:none" />
      <path
         d="m 52.00209,66.124377 c 0,-1.12399 0.920683,-2.03598 2.052262,-2.03598 1.135637,0 2.052251,0.91199 2.052251,2.03598 0,1.127988 -0.916614,2.039978 -2.052251,2.039978 -1.131579,0 -2.052262,-0.91199 -2.052262,-2.039978 z"
         inkscape:connector-curvature="0"
         id="path8401"
         style="fill:#ac7100;fill-opacity:1" />
      <path
         d="m 52.00209,65.124377 c 0,-1.12399 0.920683,-2.03598 2.052262,-2.03598 1.135637,0 2.052251,0.91199 2.052251,2.03598 0,1.127988 -0.916614,2.039978 -2.052251,2.039978 -1.131579,0 -2.052262,-0.91199 -2.052262,-2.039978 z"
         inkscape:connector-curvature="0"
         id="path2736"
         style="fill:#ffffff" />
      <path
         d="m 60.75,37.78125 -0.96875,4.90625 c 0,3.683965 -2.385056,5.9375 -6.03125,5.9375 L 42.96875,49.3125 C 39.971473,49.3125 37.5,51.81803 37.5,54.75 l 0,6.90625 c 0.740078,-2.894468 2.658806,-7.761596 7.34375,-8.1875 5.643711,-0.513065 12.489186,1.65128 16.875,-1.9375 3.756903,-3.074161 4.14558,-7.400403 2.6875,-13.71875 l 0,-0.03125 -3.65625,0 z"
         inkscape:connector-curvature="0"
         id="path8418"
         style="opacity:0.6;fill:url(#linearGradient8429);fill-opacity:1;stroke:none" />
      <path
         d="m 59.943111,64.937321 c 0,3.087968 -3.266178,4.651952 -6.024147,5.431941 -4.149121,1.175997 -7.478966,0.995994 -10.94671,0 -2.895881,-0.831983 -5.475389,-2.53197 -5.475389,-5.431941 l 0,-10.729103 c 0,-3.474035 2.556505,-5.358632 5.475389,-5.358632 l 9.735773,-0.05756 c 3.646194,0 7.336561,-3.680098 7.336561,-7.364062 l 0,-3.658374 4.825154,0 c 3.187887,0 4.688548,2.335976 5.475378,5.431944 1.095075,4.299957 1.14375,7.515927 0,10.867892 -1.107236,3.255968 -2.291548,5.818519 -5.475378,5.818519 l -4.926631,0 -11.495479,0 0,-0.02136 11.495479,0.03866 0,5.032086 z"
         inkscape:connector-curvature="0"
         id="path2744"
         style="fill:none;stroke:url(#linearGradient8409);stroke-width:1.62946153;stroke-opacity:1" />
      <path
         d="m 36.681387,30.935187 c 0,-3.08797 0.839561,-4.767953 5.475389,-5.567947 3.147337,-0.543994 7.182889,-0.611991 10.946721,0 2.972922,0.483996 5.475377,2.667976 5.475377,5.567947 l 0,10.187897 c 0,2.98797 -2.429447,5.435945 -5.475377,5.435945 l -9.927587,0.541204 c -3.715144,0 -7.551811,3.201285 -7.551811,6.733249 l -0.313588,4.26943 -3.76382,0 c -3.183831,0 -5.03735,-2.263976 -5.816073,-5.431944 -1.050461,-4.255957 -1.005848,-6.791931 0,-10.867891 0.872008,-3.555966 3.65837,-5.431946 6.842199,-5.431946 l 4.10857,0 10.950778,0 0,-0.03618 -10.950778,0 0,-5.399763 0,0 z"
         inkscape:connector-curvature="0"
         id="path2730"
         style="fill:url(#linearGradient8345);fill-opacity:1;stroke:none" />
      <path
         d="m 38.71875,33.3125 0,1 8.90625,0 a 2.041095,2.041095 0 0 1 1.96875,1.5 2.041095,2.041095 0 0 0 0.0625,-0.4375 l 0,-0.03125 A 2.041095,2.041095 0 0 0 47.625,33.3125 l -8.90625,0 z M 56.5625,40.125 c 0,1.870491 -1.517007,3.40625 -3.46875,3.40625 a 2.041095,2.041095 0 0 0 -0.09375,0 l -9.8125,0.53125 -0.09375,0 0,0.03125 c -2.409143,0.0272 -4.690414,0.973687 -6.4375,2.5 -1.732022,1.513153 -2.974475,3.656782 -3.03125,6.09375 l -0.03125,0 0,0.15625 -0.1875,2.21875 -1.875,0 c -1.106979,0 -1.764898,-0.323848 -2.375,-0.9375 -0.610102,-0.613652 -1.141846,-1.638854 -1.46875,-2.96875 -0.443934,-1.798606 -0.673265,-3.160438 -0.71875,-4.46875 -0.06602,1.630861 0.1618,3.212258 0.71875,5.46875 0.326904,1.329896 0.858648,2.355098 1.46875,2.96875 0.610102,0.613652 1.268021,0.9375 2.375,0.9375 l 1.875,0 0.1875,-2.21875 0,-0.15625 0.03125,0 c 0.05678,-2.436968 1.299228,-4.580597 3.03125,-6.09375 1.747086,-1.526313 4.028357,-2.472799 6.4375,-2.5 l 0,-0.03125 0.09375,0 L 53,44.53125 a 2.041095,2.041095 0 0 1 0.09375,0 c 1.951743,0 3.46875,-1.535759 3.46875,-3.40625 l 0,-1 z"
         inkscape:connector-curvature="0"
         id="path8349"
         style="opacity:0.2;fill:#ffffff;fill-opacity:1;stroke:none" />
      <path
         d="m 47.40625,24.9375 c -1.872784,0.0085 -3.676332,0.165503 -5.25,0.4375 -4.635828,0.799994 -5.46875,2.47453 -5.46875,5.5625 l 0,5.40625 10.9375,0 0,0.03125 -10.9375,0 -4.125,0 c -3.183829,0 -5.971742,1.881534 -6.84375,5.4375 -0.790699,3.204119 -0.962319,5.459302 -0.5,8.34375 0.651523,-2.558758 1.215858,-10.580271 8,-11.03125 C 39.966999,38.676407 45.018226,39.972053 50,39 55.103281,38.149453 56.954207,28.336384 53.1875,25.90625 l -0.75,-0.625 C 50.762477,25.045559 49.060964,24.92999 47.40625,24.9375 z"
         inkscape:connector-curvature="0"
         id="path8356"
         style="opacity:0.6;fill:url(#linearGradient8368);fill-opacity:1;stroke:none" />
      <path
         d="m 58.59375,39.125 c 0,2.98797 -2.45407,5.4375 -5.5,5.4375 l -9.90625,0.53125 c -3.715144,0 -7.5625,3.218036 -7.5625,6.75 l -0.3125,4.25 -3.78125,0 c -3.183831,0 -5.033777,-2.269532 -5.8125,-5.4375 C 25.324827,49.060266 25.092991,47.721651 25,46.4375 c -0.09055,1.918683 0.117983,3.784733 0.71875,6.21875 0.778723,3.167968 2.628669,5.4375 5.8125,5.4375 l 3.78125,0 0.3125,-4.25 c 0,-3.531964 3.847356,-6.75 7.5625,-6.75 l 9.90625,-0.53125 c 3.04593,0 5.5,-2.44953 5.5,-5.4375 l 0,-2 z"
         inkscape:connector-curvature="0"
         id="path8370"
         style="opacity:0.2;fill:#000000;fill-opacity:1;stroke:none" />
      <path
         d="m 36.056883,31.062678 c 0,-3.087969 3.266178,-4.651953 6.024159,-5.431945 4.14912,-1.175988 7.478965,-0.995991 10.94671,0 2.895869,0.831992 5.475388,2.531973 5.475388,5.431945 l 0,10.187897 c 0,2.931972 -2.478122,5.899837 -5.475388,5.899837 l -10.19917,0 c -2.863332,0 -6.873164,3.107968 -6.873164,6.791932 l 0,4.288062 -4.825154,0 c -3.187889,0 -4.68855,-2.335976 -5.475385,-5.431945 -1.095076,-4.299956 -1.143746,-7.515926 0,-10.867891 1.107245,-3.255968 2.291551,-5.81852 5.475385,-5.81852 l 4.926619,0 11.49548,0 0,0.02137 -11.49548,-0.03866 0,-5.032088 z"
         inkscape:connector-curvature="0"
         id="path3530"
         style="fill:none;stroke:url(#linearGradient8390);stroke-width:1.62946153;stroke-opacity:1" />
      <path
         d="m 40.030252,28.998655 c 0,-1.069172 0.889328,-1.933607 1.991143,-1.933607 1.097882,0 1.991135,0.864435 1.991135,1.933607 0,1.065379 -0.893253,1.929814 -1.991135,1.929814 -1.101815,0 -1.991143,-0.864435 -1.991143,-1.929814 z"
         inkscape:connector-curvature="0"
         id="path8354"
         style="fill:#274e70;fill-opacity:1" />
      <path
         d="m 40.030252,29.998655 c 0,-1.069172 0.889328,-1.933607 1.991143,-1.933607 1.097882,0 1.991135,0.864435 1.991135,1.933607 0,1.065379 -0.893253,1.929814 -1.991135,1.929814 -1.101815,0 -1.991143,-0.864435 -1.991143,-1.929814 z"
         inkscape:connector-curvature="0"
         id="path2734"
         style="fill:#ffffff" />
    </g>
  </g>
</svg>
