<?xml version="1.0" encoding="UTF-8" standalone="no"?>
<svg
   xmlns:dc="http://purl.org/dc/elements/1.1/"
   xmlns:cc="http://creativecommons.org/ns#"
   xmlns:rdf="http://www.w3.org/1999/02/22-rdf-syntax-ns#"
   xmlns:svg="http://www.w3.org/2000/svg"
   xmlns="http://www.w3.org/2000/svg"
   xmlns:xlink="http://www.w3.org/1999/xlink"
   xmlns:sodipodi="http://sodipodi.sourceforge.net/DTD/sodipodi-0.dtd"
   xmlns:inkscape="http://www.inkscape.org/namespaces/inkscape"
   version="1.1"
   viewBox="0 0 48 48"
   id="svg41"
   sodipodi:docname="qfractalnow.svg"
   inkscape:version="0.92.4 5da689c313, 2019-01-14">
  <metadata
     id="metadata45">
    <rdf:RDF>
      <cc:Work
         rdf:about="">
        <dc:format>image/svg+xml</dc:format>
        <dc:type
           rdf:resource="http://purl.org/dc/dcmitype/StillImage" />
      </cc:Work>
    </rdf:RDF>
  </metadata>
  <sodipodi:namedview
     pagecolor="#ffffff"
     bordercolor="#666666"
     borderopacity="1"
     objecttolerance="10"
     gridtolerance="10"
     guidetolerance="10"
     inkscape:pageopacity="0"
     inkscape:pageshadow="2"
     inkscape:window-width="1920"
     inkscape:window-height="1020"
     id="namedview43"
     showgrid="false"
     inkscape:zoom="4.9166667"
     inkscape:cx="-2.9846672"
     inkscape:cy="20.745763"
     inkscape:window-x="0"
     inkscape:window-y="28"
     inkscape:window-maximized="1"
     inkscape:current-layer="g39" />
  <defs
     id="defs7">
    <linearGradient
       id="linearGradient3845"
       x2="0"
       y1="47"
       y2="1"
       gradientUnits="userSpaceOnUse"
       gradientTransform="translate(-68.949153,-42.101695)">
      <stop
         style="stop-color:#8b8bf1"
         offset="0"
         id="stop2" />
      <stop
         style="stop-color:#9d9df3"
         offset="1"
         id="stop4" />
    </linearGradient>
    <linearGradient
       inkscape:collect="always"
       xlink:href="#linearGradient6139-0"
       id="linearGradient4071"
       gradientUnits="userSpaceOnUse"
       gradientTransform="matrix(0.5500995,0,0,0.55067302,-2.4296481,-1.8816247)"
       x1="6"
       y1="47.000011"
       x2="90"
       y2="47.000011" />
    <linearGradient
       id="linearGradient6139-0">
      <stop
         id="stop6141-2"
         offset="0"
         style="stop-color:#b2babc;stop-opacity:1" />
      <stop
         style="stop-color:#ffffff;stop-opacity:1;"
         offset="0.25"
         id="stop6151-0" />
      <stop
         style="stop-color:#96a1a4;stop-opacity:1"
         offset="0.5"
         id="stop6147-1" />
      <stop
         id="stop6149-4"
         offset="0.75"
         style="stop-color:#fbf9f9;stop-opacity:1;" />
      <stop
         id="stop6143-4"
         offset="1"
         style="stop-color:#b2b9bc;stop-opacity:1" />
    </linearGradient>
    <linearGradient
       gradientTransform="matrix(0.49686411,0,0,0.49738219,0.12565245,0.12566702)"
       inkscape:collect="always"
       xlink:href="#linearGradient3832-0-6-1-1"
       id="linearGradient4129"
       x1="1.5"
       y1="88.171875"
       x2="94.5"
       y2="88.171875"
       gradientUnits="userSpaceOnUse" />
    <linearGradient
       id="linearGradient3832-0-6-1-1">
      <stop
         style="stop-color:#000000;stop-opacity:1;"
         offset="0"
         id="stop3834-6-3-7-1" />
      <stop
         id="stop3872-2-4"
         offset="0.1"
         style="stop-color:#000000;stop-opacity:0.58823532;" />
      <stop
         style="stop-color:#000000;stop-opacity:0.58823532;"
         offset="0.89999998"
         id="stop3844-6-2-7-6" />
      <stop
         style="stop-color:#000000;stop-opacity:1;"
         offset="1"
         id="stop3836-5-0-2-9" />
    </linearGradient>
    <radialGradient
       inkscape:collect="always"
       xlink:href="#linearGradient3737"
       id="radialGradient7462"
       gradientUnits="userSpaceOnUse"
       gradientTransform="matrix(0.48450896,0,0,0.02446659,16.968697,39.999155)"
       cx="13.948145"
       cy="44.892841"
       fx="13.948145"
       fy="44.892841"
       r="43.199203" />
    <linearGradient
       id="linearGradient3737">
      <stop
         offset="0"
         style="stop-color:#ffffff;stop-opacity:1"
         id="stop3739" />
      <stop
         offset="1"
         style="stop-color:#ffffff;stop-opacity:0"
         id="stop3741" />
    </linearGradient>
    <radialGradient
       inkscape:collect="always"
       xlink:href="#linearGradient3737"
       id="radialGradient7464"
       gradientUnits="userSpaceOnUse"
       gradientTransform="matrix(0.44183785,0,0,0.0244411,15.815336,-44.927046)"
       cx="13.948145"
       cy="44.892841"
       fx="13.948145"
       fy="44.892841"
       r="43.199203" />
    <linearGradient
       gradientTransform="matrix(1.0041884,0,0,1.0052356,-0.21820995,-0.04755458)"
       inkscape:collect="always"
       xlink:href="#linearGradient3737"
       id="linearGradient4767"
       gradientUnits="userSpaceOnUse"
       x1="2.7713892"
       y1="-28.64156"
       x2="50.527882"
       y2="14.514202" />
    <clipPath
       id="clipPath4156-4-1"
       clipPathUnits="userSpaceOnUse">
      <path
         inkscape:connector-curvature="0"
         id="path4158-0-8"
         d="m 27.046336,-55.695463 -14.21366,13.321486 h 0.06127 l 15.653407,21.770763 10.231384,-10.546177 C 38.561832,-32.30156 27.468089,-54.819245 27.046336,-55.695463 Z M 9.6468554,-39.382809 -5.2407289,-25.32124 15.987863,-7.8059573 26.372412,-18.382966 Z m 31.4906096,12.951445 -9.741259,9.713584 8.944804,12.4580526 7.780753,-7.5550056 z m -49.8397109,4.378822 -13.7541661,12.9822847 26.2830181,13.84571 0.06127,-0.0617 -0.122531,-0.0617 L 13.598503,-5.4007374 -8.7022409,-22.052595 Z m 38.0154159,7.400825 -9.802525,9.7752596 11.579232,9.5594001 7.62759,-7.40083 -8.669108,-11.0087257 z m 20.187073,5.6739697 -7.382526,7.2158 6.187844,8.54179 5.820249,-6.13651996 z m -32.195166,6.32154 -9.5574606,9.49772 13.6622686,7.1849703 7.933918,-7.6783603 z m 23.311629,2.37443004 -7.10683,6.93826996 8.362778,6.9074403 5.360756,-5.6739699 -0.06127,-0.0925 -0.0919,0.12335 -6.463539,-8.20258036 z m -8.730374,8.54178036 -7.505057,7.3391599 10.353916,5.45811 c 1.397496,-1.32103 5.67514,-6.12292 5.850882,-6.32154 z"
         style="opacity:0.6;fill:#ffffff;fill-opacity:1;stroke:none" />
    </clipPath>
    <linearGradient
       id="ButtonShadow-16"
       gradientTransform="scale(1.0058652,0.994169)"
       x1="45.447727"
       y1="92.539597"
       x2="45.447727"
       y2="7.0165396"
       gradientUnits="userSpaceOnUse">
      <stop
         style="stop-color:#000000;stop-opacity:1;"
         offset="0"
         id="stop3750-6" />
      <stop
         style="stop-color:#000000;stop-opacity:0.58823532;"
         offset="1"
         id="stop3752-4" />
    </linearGradient>
    <clipPath
       clipPathUnits="userSpaceOnUse"
       id="clipPath4355-7">
      <rect
         style="fill:#ffffff;fill-opacity:1;fill-rule:nonzero;stroke:none"
         id="rect4357-5"
         width="84"
         height="80"
         x="6"
         y="6"
         rx="6"
         ry="6" />
    </clipPath>
    <clipPath
       clipPathUnits="userSpaceOnUse"
       id="clipPath4355-9">
      <rect
         style="fill:#ffffff;fill-opacity:1;fill-rule:nonzero;stroke:none"
         id="rect4357-1"
         width="84"
         height="80"
         x="6"
         y="6"
         rx="6"
         ry="6" />
    </clipPath>
    <clipPath
       clipPathUnits="userSpaceOnUse"
       id="clipPath4355-1">
      <rect
         style="fill:#ffffff;fill-opacity:1;fill-rule:nonzero;stroke:none"
         id="rect4357-9"
         width="84"
         height="80"
         x="6"
         y="6"
         rx="6"
         ry="6" />
    </clipPath>
    <clipPath
       clipPathUnits="userSpaceOnUse"
       id="clipPath3943-52-0">
      <path
         id="path3945-4-1"
         d="m 69.78125,20.84375 -5,3.4375 c 5.586891,5.537137 9,13.327613 9,21.8125 0,8.434478 -3.37723,16.095981 -8.90625,21.625 l 5,3.4375 C 76.078226,64.5762 80,55.843726 80,46.09375 c 2e-6,-9.796556 -3.962955,-18.660417 -10.21875,-25.25 z M 40,24.0625 28.90625,36.21875 H 21.5 c -0.823281,0 -1.5,0.676717 -1.5,1.5 v 1 14.84375 1 c 0,0.823281 0.684121,1.610161 1.5,1.5 h 7.40625 L 40,68 V 66 26.0625 Z m 20.59375,3.28125 -5,3.4375 L 55.5,30.875 c 3.93815,3.890071 6.40625,9.25018 6.40625,15.21875 0,5.920869 -2.42961,11.148358 -6.3125,15.03125 l 0.09375,0.09375 5.09375,3.4375 c 4.475428,-4.908367 7.25,-11.402005 7.25,-18.5625 0,-7.230696 -2.87904,-13.83107 -7.4375,-18.75 z m -9.25,6.5 -5.21875,3.625 c 2.222384,2.217802 3.71875,5.239596 3.71875,8.625 0,3.336509 -1.458847,6.227712 -3.625,8.4375 l 5.21875,3.625 c 2.822412,-3.236947 4.53125,-7.43414 4.53125,-12.0625 0,-4.672601 -1.754155,-9.001351 -4.625,-12.25 z"
         style="color:#000000;display:inline;overflow:visible;visibility:visible;opacity:0.8;fill:#ff00ff;fill-opacity:1;fill-rule:nonzero;stroke:none;stroke-width:1;marker:none;enable-background:accumulate"
         inkscape:connector-curvature="0" />
    </clipPath>
  </defs>
  <path
     style="display:inline;opacity:0.15;fill:#000000;fill-opacity:1;fill-rule:nonzero;stroke:none;stroke-width:0.49712294"
     d="M 44.357141,0.24999964 H 3.6428533 c -1.8796383,0 -3.39285336,1.51321396 -3.39285336,3.39285576 V 44.357143 c 0,1.879643 1.51321506,3.392857 3.39285336,3.392857 H 44.357141 C 46.236784,47.75 47.75,46.236786 47.75,44.357143 V 3.6428554 c 0,-1.8796418 -1.513216,-3.39285576 -3.392859,-3.39285576 z"
     id="path3288"
     inkscape:connector-curvature="0" />
  <path
     inkscape:connector-curvature="0"
     id="path4085"
     d="M 44.039062,0.62109332 H 3.9609331 c -1.8502695,0 -3.33984031,1.48956988 -3.33984031,3.33984228 V 44.039062 c 0,1.850274 1.48957081,3.339844 3.33984031,3.339844 H 44.039062 c 1.850273,0 3.339844,-1.48957 3.339844,-3.339844 V 3.9609356 c 0,-1.8502724 -1.489571,-3.33984228 -3.339844,-3.33984228 z"
     style="display:inline;opacity:0.15;fill:#000000;fill-opacity:1;fill-rule:nonzero;stroke:none;stroke-width:0.49712294" />
  <path
     style="display:inline;fill:url(#linearGradient4071);fill-opacity:1;fill-rule:nonzero;stroke:none;stroke-width:0.49712294"
     d="M 43.720978,0.99218715 H 4.2790169 c -1.8209042,0 -3.28683014,1.46592565 -3.28683014,3.28682925 V 43.720983 c 0,1.820903 1.46592594,3.28683 3.28683014,3.28683 H 43.720978 c 1.820906,0 3.28683,-1.465927 3.28683,-3.28683 V 4.2790164 c 0,-1.8209036 -1.465924,-3.28682925 -3.28683,-3.28682925 z"
     id="rect4251-1"
     inkscape:connector-curvature="0" />
  <rect
     ry="1.4911714"
     rx="1.1772746"
     y="3.3682313"
     x="3.0805154"
     height="38.309101"
     width="42.057644"
     id="rect862"
     style="opacity:1;fill:#e7e7f3;fill-opacity:1;stroke:none;stroke-width:0.35375404;stroke-miterlimit:4;stroke-dasharray:none;stroke-opacity:1" />
  <path
     inkscape:connector-curvature="0"
     id="path4989"
     d="m 5.1113668,2.5900975 c -1.5420782,0 -2.8044619,1.2565284 -2.8044619,2.7935952 V 39.661868 c 0,1.537068 1.2623837,2.793597 2.8044619,2.793597 H 43.107301 c 1.54208,0 2.804464,-1.256529 2.804464,-2.793597 V 5.3836927 c 0,-1.5370663 -1.262384,-2.7935952 -2.804464,-2.7935952 z m 0,1.1476391 H 43.107301 c 0.934216,0 1.658554,0.7323386 1.658554,1.6459561 V 39.661868 c 0,0.91362 -0.724338,1.645957 -1.658554,1.645957 H 5.1113668 c -0.9342158,0 -1.6585527,-0.732337 -1.6585527,-1.645957 V 5.3836927 c 0,-0.9136175 0.7243369,-1.6459561 1.6585527,-1.6459561 z"
     style="color:#000000;font-style:normal;font-variant:normal;font-weight:normal;font-stretch:normal;font-size:medium;line-height:normal;font-family:Sans;-inkscape-font-specification:Sans;text-indent:0;text-align:start;text-decoration:none;text-decoration-line:none;letter-spacing:normal;word-spacing:normal;text-transform:none;writing-mode:lr-tb;direction:ltr;baseline-shift:baseline;text-anchor:start;display:inline;overflow:visible;visibility:visible;fill:#202223;fill-opacity:0.93689324;stroke:none;stroke-width:1.18091595;marker:none;enable-background:accumulate" />
  <path
     inkscape:connector-curvature="0"
     style="display:inline;opacity:0.65818182;fill:url(#linearGradient4129);fill-opacity:1;fill-rule:nonzero;stroke:none;stroke-width:0.49712294"
     d="m 0.99218627,40.745605 v 2.96875 c 0,1.820904 1.47255273,3.293457 3.29345673,3.293457 h 39.42871 c 1.820906,0 3.29346,-1.472553 3.29346,-3.293457 v -2.96875 c 0,1.820904 -1.472554,3.293457 -3.29346,3.293457 H 4.285643 c -1.820904,0 -3.29345673,-1.472553 -3.29345673,-3.293457 z"
     id="path4118" />
  <rect
     style="opacity:0.55;fill:url(#radialGradient7462);fill-opacity:1;stroke:none;stroke-width:0.49712294"
     id="rect4131"
     width="41.686203"
     height="2.102865"
     x="2.9095042"
     y="39.957027"
     rx="2.1138744"
     ry="2.1138744" />
  <rect
     ry="2.1116724"
     rx="2.1116724"
     y="-44.823299"
     x="3.0010393"
     height="2.102865"
     width="37.975258"
     id="rect4141"
     style="opacity:0.669;fill:url(#radialGradient7464);fill-opacity:1;stroke:none;stroke-width:0.49712294"
     transform="rotate(90)" />
  <g
     transform="matrix(1.2259887,0,0,1.2259887,80.946166,44.359141)"
     id="g999">
    <path
       inkscape:connector-curvature="0"
       id="path19"
       style="opacity:0.1"
       d="m -58.949153,-17.101695 c 0,0.69 0.492,1.25 1.1,1.25 0.391,0 0.752,-0.237 0.949,-0.621 0.29,1.941 1.859,3.37 3.701,3.371 1.463,-0.002 2.792,-0.912 3.402,-2.33 0.41,2.364 1.661,4.593 3.422,6.1520001 -0.337,0.081 -0.574,0.382 -0.574,0.729 0,0.414 0.336,0.75 0.75,0.75 0.414,0 0.75,-0.336 0.75,-0.75 v -0.004 c 1.265,0.867 2.725,1.399 4.291,1.445 -0.487,0.278 -0.79,0.819 -0.791,1.408 0,0.884 0.672,1.6 1.5,1.6 0.828,0 1.5,-0.716 1.5,-1.6 0,-0.619 -0.336,-1.182 -0.861,-1.445 2.132,-0.184 3.741,-0.888 4.861,-1.939 0.008,0.546 0.454,0.984 1,0.984 0.552,0 1,-0.448 1,-1 0,-0.552 -0.448,-1.0000001 -1,-1.0000001 -0.048,0 -0.095,0.003 -0.143,0 0.768,-1.134 1.143,-2.514 1.143,-4.01 0,-1.068 -1.314,-2.238 -2.5,-3 1.186,-0.762 2.5,-1.932 2.5,-3 0,-1.497 -0.374,-2.877 -1.143,-4.01 0.047,0.007 0.095,0.011 0.143,0.012 0.552,0 1,-0.448 1,-1 0,-0.552 -0.448,-1 -1,-1 -0.546,0 -0.991,0.438 -1,0.984 -1.12,-1.051 -2.729,-1.756 -4.861,-1.939 0.525,-0.264 0.86,-0.826 0.861,-1.445 0,-0.884 -0.672,-1.6 -1.5,-1.6 -0.828,0 -1.5,0.716 -1.5,1.6 0,0.588 0.303,1.129 0.789,1.408 -1.565,0.046 -3.02,0.579 -4.289,1.445 -0.105,-0.561 -0.485,-0.575 -0.75,-0.754 -0.414,0 -0.75,0.336 -0.75,0.75 0,0.346 0.238,0.647 0.574,0.729 -1.761,1.56 -3.01,3.789 -3.422,6.152 -0.611,-1.418 -1.939,-2.328 -3.402,-2.33 -1.843,0.003 -3.411,1.433 -3.699,3.375 -0.196,-0.386 -0.559,-0.624 -0.951,-0.625 -0.607,0 -1.1,0.56 -1.1,1.25" />
    <g
       id="g39"
       style="fill:#4d4d4d"
       transform="rotate(-90,-32.025409,37.923714)">
      <path
         inkscape:connector-curvature="0"
         id="path21"
         d="m 24,19 c -5,0 -10,4 -10.01,9 0,5.504 3.118,8 7.01,8 1.068,0 2.238,-1.314 3,-2.5 0.762,1.186 1.932,2.5 3,2.5 3.888,0 7.01,-2.496 7.01,-8 C 34.004,23 29,19 24,19" />
      <ellipse
         id="ellipse23"
         ry="28.981001"
         rx="31.731001"
         cy="363.98001"
         cx="450"
         transform="matrix(0.039394,0,0,0.037956,6.2727,-2.7153)" />
      <ellipse
         id="ellipse25"
         ry="19.76"
         rx="19.040001"
         cy="670.90997"
         cx="232.96001"
         transform="matrix(0.039394,0,0,0.037956,6.2727,-2.7153)" />
      <ellipse
         id="ellipse27"
         ry="19.76"
         rx="19.040001"
         cy="670.90997"
         cx="667.03998"
         transform="matrix(0.039394,0,0,0.037956,6.2727,-2.7153)" />
      <ellipse
         id="ellipse29"
         ry="1.5"
         rx="1.6"
         cy="28.5"
         cx="12.6" />
      <ellipse
         id="ellipse31"
         ry="1.5"
         rx="1.6"
         cy="28.5"
         cx="35.400002" />
      <circle
         id="circle33"
         r="1"
         cy="35"
         cx="16" />
      <circle
         id="circle35"
         r="1"
         cy="35"
         cx="32" />
      <ellipse
         id="ellipse37"
         ry="3.75"
         rx="4"
         cy="15.75"
         cx="24" />
    </g>
  </g>
  <rect
     transform="matrix(0.52905357,0,0,0.51838486,2.3752412,19.289082)"
     style="opacity:0.65;fill:url(#linearGradient4767);fill-opacity:1;stroke:none;stroke-width:1.00471163"
     id="rect4146"
     width="75.965775"
     height="69.024437"
     x="2"
     y="-30"
     rx="3.973561"
     ry="3.9777055"
     clip-path="url(#clipPath4156-4-1)" />
</svg>
