<?xml version="1.0" encoding="UTF-8" standalone="no"?>
<svg
   xmlns:dc="http://purl.org/dc/elements/1.1/"
   xmlns:cc="http://creativecommons.org/ns#"
   xmlns:rdf="http://www.w3.org/1999/02/22-rdf-syntax-ns#"
   xmlns:svg="http://www.w3.org/2000/svg"
   xmlns="http://www.w3.org/2000/svg"
   xmlns:xlink="http://www.w3.org/1999/xlink"
   xmlns:sodipodi="http://sodipodi.sourceforge.net/DTD/sodipodi-0.dtd"
   xmlns:inkscape="http://www.inkscape.org/namespaces/inkscape"
   viewBox="0 0 48 48"
   version="1.1"
   id="svg29"
   sodipodi:docname="qjackrcd.svg"
   inkscape:version="0.92.2 2405546, 2018-03-11">
  <metadata
     id="metadata33">
    <rdf:RDF>
      <cc:Work
         rdf:about="">
        <dc:format>image/svg+xml</dc:format>
        <dc:type
           rdf:resource="http://purl.org/dc/dcmitype/StillImage" />
      </cc:Work>
    </rdf:RDF>
  </metadata>
  <sodipodi:namedview
     pagecolor="#ffffff"
     bordercolor="#666666"
     borderopacity="1"
     objecttolerance="10"
     gridtolerance="10"
     guidetolerance="10"
     inkscape:pageopacity="0"
     inkscape:pageshadow="2"
     inkscape:window-width="1920"
     inkscape:window-height="1025"
     id="namedview31"
     showgrid="false"
     inkscape:zoom="4.9166667"
     inkscape:cx="24"
     inkscape:cy="22.372881"
     inkscape:window-x="0"
     inkscape:window-y="25"
     inkscape:window-maximized="1"
     inkscape:current-layer="g4571" />
  <defs
     id="defs7">
    <linearGradient
       id="linearGradient3764"
       x1="1"
       x2="47"
       gradientUnits="userSpaceOnUse"
       gradientTransform="rotate(-90,23.999998,24)">
      <stop
         style="stop-color:#d62e2e;stop-opacity:1"
         id="stop2" />
      <stop
         offset="1"
         style="stop-color:#d93f3f;stop-opacity:1"
         id="stop4" />
    </linearGradient>
    <linearGradient
       inkscape:collect="always"
       xlink:href="#linearGradient6139-0"
       id="linearGradient4071"
       gradientUnits="userSpaceOnUse"
       gradientTransform="matrix(1.1059895,0,0,1.1071426,-5.2385469,-3.3706609)"
       x1="6"
       y1="47.000011"
       x2="90"
       y2="47.000011" />
    <linearGradient
       id="linearGradient6139-0">
      <stop
         id="stop6141-2"
         offset="0"
         style="stop-color:#b2babc;stop-opacity:1" />
      <stop
         style="stop-color:#ffffff;stop-opacity:1;"
         offset="0.25"
         id="stop6151-0" />
      <stop
         style="stop-color:#96a1a4;stop-opacity:1"
         offset="0.5"
         id="stop6147-1" />
      <stop
         id="stop6149-4"
         offset="0.75"
         style="stop-color:#fbf9f9;stop-opacity:1;" />
      <stop
         id="stop6143-4"
         offset="1"
         style="stop-color:#b2b9bc;stop-opacity:1" />
    </linearGradient>
    <linearGradient
       gradientTransform="matrix(0.99895835,0,0,0.99999997,-0.10104801,0.66505199)"
       inkscape:collect="always"
       xlink:href="#linearGradient3832-0-6-1-1"
       id="linearGradient4129"
       x1="1.5"
       y1="88.171875"
       x2="94.5"
       y2="88.171875"
       gradientUnits="userSpaceOnUse" />
    <linearGradient
       id="linearGradient3832-0-6-1-1">
      <stop
         style="stop-color:#000000;stop-opacity:1;"
         offset="0"
         id="stop3834-6-3-7-1" />
      <stop
         id="stop3872-2-4"
         offset="0.1"
         style="stop-color:#000000;stop-opacity:0.58823532;" />
      <stop
         style="stop-color:#000000;stop-opacity:0.58823532;"
         offset="0.89999998"
         id="stop3844-6-2-7-6" />
      <stop
         style="stop-color:#000000;stop-opacity:1;"
         offset="1"
         id="stop3836-5-0-2-9" />
    </linearGradient>
    <radialGradient
       inkscape:collect="always"
       xlink:href="#linearGradient3737"
       id="radialGradient7462"
       gradientUnits="userSpaceOnUse"
       gradientTransform="matrix(0.97411799,0,0,0.04919072,33.762335,80.831749)"
       cx="13.948145"
       cy="44.892841"
       fx="13.948145"
       fy="44.892841"
       r="43.199203" />
    <linearGradient
       id="linearGradient3737">
      <stop
         offset="0"
         style="stop-color:#ffffff;stop-opacity:1"
         id="stop3739" />
      <stop
         offset="1"
         style="stop-color:#ffffff;stop-opacity:0"
         id="stop3741" />
    </linearGradient>
    <radialGradient
       inkscape:collect="always"
       xlink:href="#linearGradient3737"
       id="radialGradient7464"
       gradientUnits="userSpaceOnUse"
       gradientTransform="matrix(0.88832662,0,0,0.04913948,32.209544,-89.973331)"
       cx="13.948145"
       cy="44.892841"
       fx="13.948145"
       fy="44.892841"
       r="43.199203" />
    <linearGradient
       gradientTransform="matrix(1.0041884,0,0,1.0052356,-0.21820995,-0.04755458)"
       inkscape:collect="always"
       xlink:href="#linearGradient3737"
       id="linearGradient4767"
       gradientUnits="userSpaceOnUse"
       x1="2.7713892"
       y1="-28.64156"
       x2="50.527882"
       y2="14.514202" />
    <clipPath
       id="clipPath4156-4-1"
       clipPathUnits="userSpaceOnUse">
      <path
         inkscape:connector-curvature="0"
         id="path4158-0-8"
         d="m 27.046336,-55.695463 -14.21366,13.321486 h 0.06127 l 15.653407,21.770763 10.231384,-10.546177 C 38.561832,-32.30156 27.468089,-54.819245 27.046336,-55.695463 Z M 9.6468554,-39.382809 -5.2407289,-25.32124 15.987863,-7.8059573 26.372412,-18.382966 Z m 31.4906096,12.951445 -9.741259,9.713584 8.944804,12.4580526 7.780753,-7.5550056 z m -49.8397109,4.378822 -13.7541661,12.9822847 26.2830181,13.84571 0.06127,-0.0617 -0.122531,-0.0617 L 13.598503,-5.4007374 -8.7022409,-22.052595 Z m 38.0154159,7.400825 -9.802525,9.7752596 11.579232,9.5594001 7.62759,-7.40083 -8.669108,-11.0087257 z m 20.187073,5.6739697 -7.382526,7.2158 6.187844,8.54179 5.820249,-6.13651996 z m -32.195166,6.32154 -9.5574606,9.49772 13.6622686,7.1849703 7.933918,-7.6783603 z m 23.311629,2.37443004 -7.10683,6.93826996 8.362778,6.9074403 5.360756,-5.6739699 -0.06127,-0.0925 -0.0919,0.12335 -6.463539,-8.20258036 z m -8.730374,8.54178036 -7.505057,7.3391599 10.353916,5.45811 c 1.397496,-1.32103 5.67514,-6.12292 5.850882,-6.32154 z"
         style="opacity:0.6;fill:#ffffff;fill-opacity:1;stroke:none" />
    </clipPath>
    <linearGradient
       id="ButtonShadow-16"
       gradientTransform="scale(1.0058652,0.994169)"
       x1="45.447727"
       y1="92.539597"
       x2="45.447727"
       y2="7.0165396"
       gradientUnits="userSpaceOnUse">
      <stop
         style="stop-color:#000000;stop-opacity:1;"
         offset="0"
         id="stop3750-6" />
      <stop
         style="stop-color:#000000;stop-opacity:0.58823532;"
         offset="1"
         id="stop3752-4" />
    </linearGradient>
    <clipPath
       clipPathUnits="userSpaceOnUse"
       id="clipPath4355-7">
      <rect
         style="fill:#ffffff;fill-opacity:1;fill-rule:nonzero;stroke:none"
         id="rect4357-5"
         width="84"
         height="80"
         x="6"
         y="6"
         rx="6"
         ry="6" />
    </clipPath>
    <clipPath
       clipPathUnits="userSpaceOnUse"
       id="clipPath4355-9">
      <rect
         style="fill:#ffffff;fill-opacity:1;fill-rule:nonzero;stroke:none"
         id="rect4357-1"
         width="84"
         height="80"
         x="6"
         y="6"
         rx="6"
         ry="6" />
    </clipPath>
    <clipPath
       clipPathUnits="userSpaceOnUse"
       id="clipPath4355-1">
      <rect
         style="fill:#ffffff;fill-opacity:1;fill-rule:nonzero;stroke:none"
         id="rect4357-9"
         width="84"
         height="80"
         x="6"
         y="6"
         rx="6"
         ry="6" />
    </clipPath>
    <clipPath
       clipPathUnits="userSpaceOnUse"
       id="clipPath3943-52-0">
      <path
         id="path3945-4-1"
         d="m 69.78125,20.84375 -5,3.4375 c 5.586891,5.537137 9,13.327613 9,21.8125 0,8.434478 -3.37723,16.095981 -8.90625,21.625 l 5,3.4375 C 76.078226,64.5762 80,55.843726 80,46.09375 c 2e-6,-9.796556 -3.962955,-18.660417 -10.21875,-25.25 z M 40,24.0625 28.90625,36.21875 H 21.5 c -0.823281,0 -1.5,0.676717 -1.5,1.5 v 1 14.84375 1 c 0,0.823281 0.684121,1.610161 1.5,1.5 h 7.40625 L 40,68 V 66 26.0625 Z m 20.59375,3.28125 -5,3.4375 L 55.5,30.875 c 3.93815,3.890071 6.40625,9.25018 6.40625,15.21875 0,5.920869 -2.42961,11.148358 -6.3125,15.03125 l 0.09375,0.09375 5.09375,3.4375 c 4.475428,-4.908367 7.25,-11.402005 7.25,-18.5625 0,-7.230696 -2.87904,-13.83107 -7.4375,-18.75 z m -9.25,6.5 -5.21875,3.625 c 2.222384,2.217802 3.71875,5.239596 3.71875,8.625 0,3.336509 -1.458847,6.227712 -3.625,8.4375 l 5.21875,3.625 c 2.822412,-3.236947 4.53125,-7.43414 4.53125,-12.0625 0,-4.672601 -1.754155,-9.001351 -4.625,-12.25 z"
         style="color:#000000;display:inline;overflow:visible;visibility:visible;opacity:0.8;fill:#ff00ff;fill-opacity:1;fill-rule:nonzero;stroke:none;stroke-width:1;marker:none;enable-background:accumulate"
         inkscape:connector-curvature="0" />
    </clipPath>
  </defs>
  <g
     id="g4571"
     transform="matrix(0.49738221,0,0,0.4973822,0.17591193,-0.205118)">
    <path
       inkscape:connector-curvature="0"
       id="path3288"
       d="M 88.827522,0.915026 H 6.9703768 c -3.7790623,0 -6.8214209,3.0423565 -6.8214209,6.8214257 V 89.593598 c 0,3.779071 3.0423586,6.821428 6.8214209,6.821428 H 88.827522 c 3.779072,0 6.821432,-3.042357 6.821432,-6.821428 V 7.7364517 c 0,-3.7790692 -3.04236,-6.8214257 -6.821432,-6.8214257 z"
       style="display:inline;opacity:0.15;fill:#000000;fill-opacity:1;fill-rule:nonzero;stroke:none;stroke-width:0.99947876" />
    <path
       style="display:inline;opacity:0.15;fill:#000000;fill-opacity:1;fill-rule:nonzero;stroke:none;stroke-width:0.99947876"
       d="M 88.188015,1.6611196 H 7.6098844 c -3.7200154,0 -6.71483658,2.9948194 -6.71483658,6.7148408 V 88.954089 c 0,3.720023 2.99482118,6.714843 6.71483658,6.714843 H 88.188015 c 3.720024,0 6.714845,-2.99482 6.714845,-6.714843 V 8.3759604 c 0,-3.7200214 -2.994821,-6.7148408 -6.714845,-6.7148408 z"
       id="path4085"
       inkscape:connector-curvature="0" />
    <path
       inkscape:connector-curvature="0"
       id="rect4251-1"
       d="M 87.5485,2.4072135 H 8.2494003 c -3.6609756,0 -6.6082583,2.9472821 -6.6082583,6.6082567 V 88.314581 c 0,3.660975 2.9472827,6.608259 6.6082583,6.608259 H 87.5485 c 3.660978,0 6.608258,-2.947284 6.608258,-6.608259 V 9.0154702 c 0,-3.6609746 -2.94728,-6.6082567 -6.608258,-6.6082567 z"
       style="display:inline;fill:url(#linearGradient4071);fill-opacity:1;fill-rule:nonzero;stroke:none;stroke-width:0.99947876" />
    <rect
       style="opacity:1;fill:#cc0000;fill-opacity:0.97169812;stroke:none;stroke-width:0.71123183;stroke-miterlimit:4;stroke-dasharray:none;stroke-opacity:1"
       id="rect862"
       width="84.557999"
       height="77.021454"
       x="5.8397818"
       y="7.1843128"
       rx="2.3669415"
       ry="2.9980392" />
    <path
       style="color:#000000;font-style:normal;font-variant:normal;font-weight:normal;font-stretch:normal;font-size:medium;line-height:normal;font-family:Sans;-inkscape-font-specification:Sans;text-indent:0;text-align:start;text-decoration:none;text-decoration-line:none;letter-spacing:normal;word-spacing:normal;text-transform:none;writing-mode:lr-tb;direction:ltr;baseline-shift:baseline;text-anchor:start;display:inline;overflow:visible;visibility:visible;fill:#202223;fill-opacity:0.93689324;stroke:none;stroke-width:2.37426257;marker:none;enable-background:accumulate"
       d="m 9.9228616,5.6198544 c -3.1003887,0 -5.6384442,2.5262833 -5.6384442,5.6165966 v 68.917174 c 0,3.090315 2.5380555,5.616599 5.6384442,5.616599 H 86.314686 c 3.100391,0 5.638448,-2.526284 5.638448,-5.616599 V 11.236451 c 0,-3.0903123 -2.538057,-5.6165966 -5.638448,-5.6165966 z m 0,2.3073585 H 86.314686 c 1.878266,0 3.334565,1.4723861 3.334565,3.3092381 v 68.917174 c 0,1.836856 -1.456299,3.309239 -3.334565,3.309239 H 9.9228616 c -1.8782653,0 -3.3345636,-1.472383 -3.3345636,-3.309239 V 11.236451 c 0,-1.836852 1.4562983,-3.3092381 3.3345636,-3.3092381 z"
       id="path4989"
       inkscape:connector-curvature="0" />
    <path
       id="path4118"
       d="m 1.641141,82.332506 v 5.96875 c 0,3.660975 2.9606059,6.621583 6.6215813,6.621583 H 87.53518 c 3.660978,0 6.621588,-2.960608 6.621588,-6.621583 v -5.96875 c 0,3.660975 -2.96061,6.621583 -6.621588,6.621583 H 8.2627223 c -3.6609754,0 -6.6215813,-2.960608 -6.6215813,-6.621583 z"
       style="display:inline;opacity:0.65818182;fill:url(#linearGradient4129);fill-opacity:1;fill-rule:nonzero;stroke:none;stroke-width:0.99947876"
       inkscape:connector-curvature="0" />
    <rect
       ry="4.25"
       rx="4.25"
       y="80.747047"
       x="5.4959588"
       height="4.2278652"
       width="83.811203"
       id="rect4131"
       style="opacity:0.55;fill:url(#radialGradient7462);fill-opacity:1;stroke:none;stroke-width:0.99947876" />
    <rect
       transform="rotate(90)"
       style="opacity:0.669;fill:url(#radialGradient7464);fill-opacity:1;stroke:none;stroke-width:0.99947876"
       id="rect4141"
       width="76.350258"
       height="4.2278652"
       x="6.4460635"
       y="-89.764748"
       rx="4.245573"
       ry="4.245573" />
    <path
       d="M 47.331577,15.296198 A 30.873505,30.873506 0 0 0 16.458071,46.169703 30.873505,30.873506 0 0 0 47.331577,77.043209 30.873505,30.873506 0 0 0 78.205082,46.169703 30.873505,30.873506 0 0 0 47.331577,15.296198 Z m 0,15.436752 A 15.436753,15.436753 0 0 1 62.768329,46.169703 15.436753,15.436753 0 0 1 47.331577,61.606456 15.436753,15.436753 0 0 1 31.894824,46.169703 15.436753,15.436753 0 0 1 47.331577,30.73295 Z"
       style="opacity:1;fill:#f9f9f9;fill-opacity:0.99599998;stroke:none;stroke-width:2.57279205"
       id="path27"
       inkscape:connector-curvature="0" />
    <rect
       clip-path="url(#clipPath4156-4-1)"
       ry="3.9777055"
       rx="3.973561"
       y="-30"
       x="2"
       height="69.024437"
       width="75.965775"
       id="rect4146"
       style="opacity:0.65;fill:url(#linearGradient4767);fill-opacity:1;stroke:none;stroke-width:1.00471163"
       transform="matrix(1.0636761,0,0,1.0422264,4.4218092,39.193603)" />
  </g>
</svg>
