<?xml version="1.0" encoding="UTF-8" standalone="no"?>
<svg
   xmlns:dc="http://purl.org/dc/elements/1.1/"
   xmlns:cc="http://creativecommons.org/ns#"
   xmlns:rdf="http://www.w3.org/1999/02/22-rdf-syntax-ns#"
   xmlns:svg="http://www.w3.org/2000/svg"
   xmlns="http://www.w3.org/2000/svg"
   xmlns:xlink="http://www.w3.org/1999/xlink"
   xmlns:sodipodi="http://sodipodi.sourceforge.net/DTD/sodipodi-0.dtd"
   xmlns:inkscape="http://www.inkscape.org/namespaces/inkscape"
   viewBox="0 0 48 48"
   version="1.1"
   id="svg59"
   sodipodi:docname="qqintl.svg"
   inkscape:version="0.92.2 2405546, 2018-03-11">
  <metadata
     id="metadata63">
    <rdf:RDF>
      <cc:Work
         rdf:about="">
        <dc:format>image/svg+xml</dc:format>
        <dc:type
           rdf:resource="http://purl.org/dc/dcmitype/StillImage" />
      </cc:Work>
    </rdf:RDF>
  </metadata>
  <sodipodi:namedview
     pagecolor="#ffffff"
     bordercolor="#666666"
     borderopacity="1"
     objecttolerance="10"
     gridtolerance="10"
     guidetolerance="10"
     inkscape:pageopacity="0"
     inkscape:pageshadow="2"
     inkscape:window-width="1920"
     inkscape:window-height="1025"
     id="namedview61"
     showgrid="false"
     inkscape:zoom="4.9166667"
     inkscape:cx="24"
     inkscape:cy="54.915254"
     inkscape:window-x="0"
     inkscape:window-y="25"
     inkscape:window-maximized="1"
     inkscape:current-layer="svg59" />
  <defs
     id="defs7">
    <linearGradient
       id="linearGradient4268"
       x1="1"
       x2="47"
       gradientUnits="userSpaceOnUse"
       gradientTransform="translate(-49.627119,-78.508475)">
      <stop
         style="stop-color:#375e94;stop-opacity:1"
         id="stop2" />
      <stop
         offset="1"
         style="stop-color:#3d68a3;stop-opacity:1"
         id="stop4" />
    </linearGradient>
    <linearGradient
       inkscape:collect="always"
       xlink:href="#linearGradient6139-0"
       id="linearGradient4071"
       gradientUnits="userSpaceOnUse"
       gradientTransform="matrix(0.5500995,0,0,0.55067302,-2.4296481,-1.8816247)"
       x1="6"
       y1="47.000011"
       x2="90"
       y2="47.000011" />
    <linearGradient
       id="linearGradient6139-0">
      <stop
         id="stop6141-2"
         offset="0"
         style="stop-color:#b2babc;stop-opacity:1" />
      <stop
         style="stop-color:#ffffff;stop-opacity:1;"
         offset="0.25"
         id="stop6151-0" />
      <stop
         style="stop-color:#96a1a4;stop-opacity:1"
         offset="0.5"
         id="stop6147-1" />
      <stop
         id="stop6149-4"
         offset="0.75"
         style="stop-color:#fbf9f9;stop-opacity:1;" />
      <stop
         id="stop6143-4"
         offset="1"
         style="stop-color:#b2b9bc;stop-opacity:1" />
    </linearGradient>
    <linearGradient
       gradientTransform="matrix(0.49686411,0,0,0.49738219,0.12565245,0.12566702)"
       inkscape:collect="always"
       xlink:href="#linearGradient3832-0-6-1-1"
       id="linearGradient4129"
       x1="1.5"
       y1="88.171875"
       x2="94.5"
       y2="88.171875"
       gradientUnits="userSpaceOnUse" />
    <linearGradient
       id="linearGradient3832-0-6-1-1">
      <stop
         style="stop-color:#000000;stop-opacity:1;"
         offset="0"
         id="stop3834-6-3-7-1" />
      <stop
         id="stop3872-2-4"
         offset="0.1"
         style="stop-color:#000000;stop-opacity:0.58823532;" />
      <stop
         style="stop-color:#000000;stop-opacity:0.58823532;"
         offset="0.89999998"
         id="stop3844-6-2-7-6" />
      <stop
         style="stop-color:#000000;stop-opacity:1;"
         offset="1"
         id="stop3836-5-0-2-9" />
    </linearGradient>
    <radialGradient
       inkscape:collect="always"
       xlink:href="#linearGradient3737"
       id="radialGradient7462"
       gradientUnits="userSpaceOnUse"
       gradientTransform="matrix(0.48450896,0,0,0.02446659,16.968697,39.999155)"
       cx="13.948145"
       cy="44.892841"
       fx="13.948145"
       fy="44.892841"
       r="43.199203" />
    <linearGradient
       id="linearGradient3737">
      <stop
         offset="0"
         style="stop-color:#ffffff;stop-opacity:1"
         id="stop3739" />
      <stop
         offset="1"
         style="stop-color:#ffffff;stop-opacity:0"
         id="stop3741" />
    </linearGradient>
    <radialGradient
       inkscape:collect="always"
       xlink:href="#linearGradient3737"
       id="radialGradient7464"
       gradientUnits="userSpaceOnUse"
       gradientTransform="matrix(0.44183785,0,0,0.0244411,15.815336,-44.927046)"
       cx="13.948145"
       cy="44.892841"
       fx="13.948145"
       fy="44.892841"
       r="43.199203" />
    <linearGradient
       gradientTransform="matrix(1.0041884,0,0,1.0052356,-0.21820995,-0.04755458)"
       inkscape:collect="always"
       xlink:href="#linearGradient3737"
       id="linearGradient4767"
       gradientUnits="userSpaceOnUse"
       x1="2.7713892"
       y1="-28.64156"
       x2="50.527882"
       y2="14.514202" />
    <clipPath
       id="clipPath4156-4-1"
       clipPathUnits="userSpaceOnUse">
      <path
         inkscape:connector-curvature="0"
         id="path4158-0-8"
         d="m 27.046336,-55.695463 -14.21366,13.321486 h 0.06127 l 15.653407,21.770763 10.231384,-10.546177 C 38.561832,-32.30156 27.468089,-54.819245 27.046336,-55.695463 Z M 9.6468554,-39.382809 -5.2407289,-25.32124 15.987863,-7.8059573 26.372412,-18.382966 Z m 31.4906096,12.951445 -9.741259,9.713584 8.944804,12.4580526 7.780753,-7.5550056 z m -49.8397109,4.378822 -13.7541661,12.9822847 26.2830181,13.84571 0.06127,-0.0617 -0.122531,-0.0617 L 13.598503,-5.4007374 -8.7022409,-22.052595 Z m 38.0154159,7.400825 -9.802525,9.7752596 11.579232,9.5594001 7.62759,-7.40083 -8.669108,-11.0087257 z m 20.187073,5.6739697 -7.382526,7.2158 6.187844,8.54179 5.820249,-6.13651996 z m -32.195166,6.32154 -9.5574606,9.49772 13.6622686,7.1849703 7.933918,-7.6783603 z m 23.311629,2.37443004 -7.10683,6.93826996 8.362778,6.9074403 5.360756,-5.6739699 -0.06127,-0.0925 -0.0919,0.12335 -6.463539,-8.20258036 z m -8.730374,8.54178036 -7.505057,7.3391599 10.353916,5.45811 c 1.397496,-1.32103 5.67514,-6.12292 5.850882,-6.32154 z"
         style="opacity:0.6;fill:#ffffff;fill-opacity:1;stroke:none" />
    </clipPath>
    <linearGradient
       id="ButtonShadow-16"
       gradientTransform="scale(1.0058652,0.994169)"
       x1="45.447727"
       y1="92.539597"
       x2="45.447727"
       y2="7.0165396"
       gradientUnits="userSpaceOnUse">
      <stop
         style="stop-color:#000000;stop-opacity:1;"
         offset="0"
         id="stop3750-6" />
      <stop
         style="stop-color:#000000;stop-opacity:0.58823532;"
         offset="1"
         id="stop3752-4" />
    </linearGradient>
    <clipPath
       clipPathUnits="userSpaceOnUse"
       id="clipPath4355-7">
      <rect
         style="fill:#ffffff;fill-opacity:1;fill-rule:nonzero;stroke:none"
         id="rect4357-5"
         width="84"
         height="80"
         x="6"
         y="6"
         rx="6"
         ry="6" />
    </clipPath>
    <clipPath
       clipPathUnits="userSpaceOnUse"
       id="clipPath4355-9">
      <rect
         style="fill:#ffffff;fill-opacity:1;fill-rule:nonzero;stroke:none"
         id="rect4357-1"
         width="84"
         height="80"
         x="6"
         y="6"
         rx="6"
         ry="6" />
    </clipPath>
    <clipPath
       clipPathUnits="userSpaceOnUse"
       id="clipPath4355-1">
      <rect
         style="fill:#ffffff;fill-opacity:1;fill-rule:nonzero;stroke:none"
         id="rect4357-9"
         width="84"
         height="80"
         x="6"
         y="6"
         rx="6"
         ry="6" />
    </clipPath>
    <clipPath
       clipPathUnits="userSpaceOnUse"
       id="clipPath3943-52-0">
      <path
         id="path3945-4-1"
         d="m 69.78125,20.84375 -5,3.4375 c 5.586891,5.537137 9,13.327613 9,21.8125 0,8.434478 -3.37723,16.095981 -8.90625,21.625 l 5,3.4375 C 76.078226,64.5762 80,55.843726 80,46.09375 c 2e-6,-9.796556 -3.962955,-18.660417 -10.21875,-25.25 z M 40,24.0625 28.90625,36.21875 H 21.5 c -0.823281,0 -1.5,0.676717 -1.5,1.5 v 1 14.84375 1 c 0,0.823281 0.684121,1.610161 1.5,1.5 h 7.40625 L 40,68 V 66 26.0625 Z m 20.59375,3.28125 -5,3.4375 L 55.5,30.875 c 3.93815,3.890071 6.40625,9.25018 6.40625,15.21875 0,5.920869 -2.42961,11.148358 -6.3125,15.03125 l 0.09375,0.09375 5.09375,3.4375 c 4.475428,-4.908367 7.25,-11.402005 7.25,-18.5625 0,-7.230696 -2.87904,-13.83107 -7.4375,-18.75 z m -9.25,6.5 -5.21875,3.625 c 2.222384,2.217802 3.71875,5.239596 3.71875,8.625 0,3.336509 -1.458847,6.227712 -3.625,8.4375 l 5.21875,3.625 c 2.822412,-3.236947 4.53125,-7.43414 4.53125,-12.0625 0,-4.672601 -1.754155,-9.001351 -4.625,-12.25 z"
         style="color:#000000;display:inline;overflow:visible;visibility:visible;opacity:0.8;fill:#ff00ff;fill-opacity:1;fill-rule:nonzero;stroke:none;stroke-width:1;marker:none;enable-background:accumulate"
         inkscape:connector-curvature="0" />
    </clipPath>
  </defs>
  <path
     style="display:inline;opacity:0.15;fill:#000000;fill-opacity:1;fill-rule:nonzero;stroke:none;stroke-width:0.49712294"
     d="M 44.357141,0.24999964 H 3.6428533 c -1.8796383,0 -3.39285336,1.51321396 -3.39285336,3.39285576 V 44.357143 c 0,1.879643 1.51321506,3.392857 3.39285336,3.392857 H 44.357141 C 46.236784,47.75 47.75,46.236786 47.75,44.357143 V 3.6428554 c 0,-1.8796418 -1.513216,-3.39285576 -3.392859,-3.39285576 z"
     id="path3288"
     inkscape:connector-curvature="0" />
  <path
     inkscape:connector-curvature="0"
     id="path4085"
     d="M 44.039062,0.62109332 H 3.9609331 c -1.8502695,0 -3.33984031,1.48956988 -3.33984031,3.33984228 V 44.039062 c 0,1.850274 1.48957081,3.339844 3.33984031,3.339844 H 44.039062 c 1.850273,0 3.339844,-1.48957 3.339844,-3.339844 V 3.9609356 c 0,-1.8502724 -1.489571,-3.33984228 -3.339844,-3.33984228 z"
     style="display:inline;opacity:0.15;fill:#000000;fill-opacity:1;fill-rule:nonzero;stroke:none;stroke-width:0.49712294" />
  <path
     style="display:inline;fill:url(#linearGradient4071);fill-opacity:1;fill-rule:nonzero;stroke:none;stroke-width:0.49712294"
     d="M 43.720978,0.99218715 H 4.2790169 c -1.8209042,0 -3.28683014,1.46592565 -3.28683014,3.28682925 V 43.720983 c 0,1.820903 1.46592594,3.28683 3.28683014,3.28683 H 43.720978 c 1.820906,0 3.28683,-1.465927 3.28683,-3.28683 V 4.2790164 c 0,-1.8209036 -1.465924,-3.28682925 -3.28683,-3.28682925 z"
     id="rect4251-1"
     inkscape:connector-curvature="0" />
  <rect
     ry="1.4911714"
     rx="1.1772746"
     y="3.3682313"
     x="3.0805154"
     height="38.309101"
     width="42.057644"
     id="rect862"
     style="opacity:1;fill:#e2e6ea;fill-opacity:0.97169812;stroke:none;stroke-width:0.35375404;stroke-miterlimit:4;stroke-dasharray:none;stroke-opacity:1" />
  <path
     inkscape:connector-curvature="0"
     id="path4989"
     d="m 5.1113668,2.5900975 c -1.5420782,0 -2.8044619,1.2565284 -2.8044619,2.7935952 V 39.661868 c 0,1.537068 1.2623837,2.793597 2.8044619,2.793597 H 43.107301 c 1.54208,0 2.804464,-1.256529 2.804464,-2.793597 V 5.3836927 c 0,-1.5370663 -1.262384,-2.7935952 -2.804464,-2.7935952 z m 0,1.1476391 H 43.107301 c 0.934216,0 1.658554,0.7323386 1.658554,1.6459561 V 39.661868 c 0,0.91362 -0.724338,1.645957 -1.658554,1.645957 H 5.1113668 c -0.9342158,0 -1.6585527,-0.732337 -1.6585527,-1.645957 V 5.3836927 c 0,-0.9136175 0.7243369,-1.6459561 1.6585527,-1.6459561 z"
     style="color:#000000;font-style:normal;font-variant:normal;font-weight:normal;font-stretch:normal;font-size:medium;line-height:normal;font-family:Sans;-inkscape-font-specification:Sans;text-indent:0;text-align:start;text-decoration:none;text-decoration-line:none;letter-spacing:normal;word-spacing:normal;text-transform:none;writing-mode:lr-tb;direction:ltr;baseline-shift:baseline;text-anchor:start;display:inline;overflow:visible;visibility:visible;fill:#202223;fill-opacity:0.93689324;stroke:none;stroke-width:1.18091595;marker:none;enable-background:accumulate" />
  <path
     inkscape:connector-curvature="0"
     style="display:inline;opacity:0.65818182;fill:url(#linearGradient4129);fill-opacity:1;fill-rule:nonzero;stroke:none;stroke-width:0.49712294"
     d="m 0.99218627,40.745605 v 2.96875 c 0,1.820904 1.47255273,3.293457 3.29345673,3.293457 h 39.42871 c 1.820906,0 3.29346,-1.472553 3.29346,-3.293457 v -2.96875 c 0,1.820904 -1.472554,3.293457 -3.29346,3.293457 H 4.285643 c -1.820904,0 -3.29345673,-1.472553 -3.29345673,-3.293457 z"
     id="path4118" />
  <rect
     style="opacity:0.55;fill:url(#radialGradient7462);fill-opacity:1;stroke:none;stroke-width:0.49712294"
     id="rect4131"
     width="41.686203"
     height="2.102865"
     x="2.9095042"
     y="39.957027"
     rx="2.1138744"
     ry="2.1138744" />
  <rect
     ry="2.1116724"
     rx="2.1116724"
     y="-44.823299"
     x="3.0010393"
     height="2.102865"
     width="37.975258"
     id="rect4141"
     style="opacity:0.669;fill:url(#radialGradient7464);fill-opacity:1;stroke:none;stroke-width:0.49712294"
     transform="rotate(90)" />
  <g
     transform="matrix(1.3472617,0,0,1.3472617,-8.4386457,-8.6760454)"
     id="g53">
    <g
       id="g51">
      <!-- color: #d0d9e4 -->
      <g
         id="g49">
        <path
           d="m 22.48,12.156 c -3.207,0.719 -5.664,3.992 -5.734,7.984 -0.008,0.566 0.023,1.121 0.109,1.656 0,0.004 0.004,0.008 0.004,0.016 -0.523,1.176 -0.848,2.477 -0.871,3.879 -0.086,4.98 3.438,9.08 7.852,9.152 4.414,0.078 8.06,-3.891 8.16,-8.879 0.031,-1.852 -0.418,-3.59 -1.238,-5.04 0.012,-0.188 0.023,-0.355 0.027,-0.543 0.074,-4.566 -3,-8.328 -6.871,-8.398 -0.484,-0.008 -0.961,0.055 -1.418,0.156 m -0.02,0.008"
           style="fill:#121919;fill-opacity:1;fill-rule:nonzero;stroke:none"
           id="path31"
           inkscape:connector-curvature="0" />
        <path
           d="m 21.04,14.762 c -1.035,0.352 -1.813,1.465 -1.848,2.805 -0.027,1.16 0.496,2.176 1.301,2.691 -1.793,1.297 -3.02,3.602 -3.086,6.262 -0.109,4.164 2.652,7.602 6.164,7.691 3.508,0.086 6.441,-3.207 6.551,-7.371 0.082,-3.082 -1.418,-5.766 -3.617,-6.988 1.242,-0.145 2.195,-0.996 2.188,-2.01 -0.012,-1.109 -1.164,-1.98 -2.57,-1.965 -0.832,0.008 -1.563,0.32 -2.02,0.813 -0.316,-1.168 -1.215,-2.031 -2.316,-2.059 -0.266,-0.012 -0.508,0.031 -0.75,0.121 m 2.945,4.148 c 0.07,0.09 0.148,0.164 0.23,0.246 -0.09,-0.008 -0.172,-0.016 -0.258,-0.02 -0.023,0 -0.055,-0.004 -0.086,-0.008 0.039,-0.074 0.082,-0.141 0.113,-0.219 m 0,0"
           style="fill:#ececec;fill-opacity:1;fill-rule:nonzero;stroke:none"
           id="path33"
           inkscape:connector-curvature="0" />
        <path
           d="m 23.742,18.03 c 0.047,0.516 -0.207,0.961 -0.566,0.992 -0.363,0.031 -0.691,-0.363 -0.738,-0.883 -0.043,-0.523 0.211,-0.965 0.57,-0.996 0.359,-0.027 0.691,0.367 0.734,0.887 m 0,0"
           style="fill:#2e3436;fill-opacity:1;fill-rule:nonzero;stroke:none"
           id="path35"
           inkscape:connector-curvature="0" />
        <path
           d="m 25.496,18 c 0.047,0.352 -0.043,0.695 -0.234,0.895 -0.191,0.199 -0.453,0.223 -0.676,0.059 -0.223,-0.164 -0.375,-0.484 -0.391,-0.836 -0.047,-0.348 0.043,-0.691 0.234,-0.891 0.191,-0.199 0.453,-0.223 0.676,-0.063 0.227,0.164 0.375,0.488 0.391,0.836 m 0,0"
           style="fill:#2e3436;fill-opacity:1;fill-rule:nonzero;stroke:none"
           id="path37"
           inkscape:connector-curvature="0" />
        <path
           d="m 21.355,20.09 c 0,0 1.559,-0.871 2.668,-0.762 1.105,0.105 2.063,0.941 2.063,0.941 0,0 -0.906,2.902 -2.594,2.656 -1.688,-0.25 -2.141,-2.836 -2.141,-2.836 m 0.004,0"
           style="fill:#ffb30a;fill-opacity:1;fill-rule:nonzero;stroke:none"
           id="path39"
           inkscape:connector-curvature="0" />
        <path
           d="m 17.08,22.04 c 0,0 0.664,1.574 1.539,2.867 0.875,1.297 1.895,3.48 0.328,2.68 -1.559,-0.797 -2.645,-2.043 -2.426,-3.48 0.227,-1.438 0.566,-2.07 0.566,-2.07 m -0.008,0.004"
           style="fill:#121919;fill-opacity:1;fill-rule:nonzero;stroke:none"
           id="path41"
           inkscape:connector-curvature="0" />
        <path
           d="m 30.17,20.586 c 0,0 -0.871,2.051 -2.023,3.734 -1.145,1.688 -2.473,4.527 -0.438,3.492 2.031,-1.031 3.465,-2.652 3.172,-4.523 -0.293,-1.875 -0.727,-2.703 -0.727,-2.703 m 0.004,0"
           style="fill:#121919;fill-opacity:1;fill-rule:nonzero;stroke:none"
           id="path43"
           inkscape:connector-curvature="0" />
        <path
           d="m 17.941,33.3 c -0.465,1.109 0.262,2.277 1.621,2.609 1.359,0.328 2.84,-0.301 3.305,-1.414 0.465,-1.109 -0.262,-2.277 -1.621,-2.609 -1.359,-0.328 -2.84,0.305 -3.305,1.414 m 0,0"
           style="fill:#ffb30a;fill-opacity:1;fill-rule:nonzero;stroke:none"
           id="path45"
           inkscape:connector-curvature="0" />
        <path
           d="m 29.988,33.31 c 0.445,1 -0.25,2.059 -1.559,2.359 -1.305,0.297 -2.727,-0.273 -3.172,-1.277 -0.445,-1 0.254,-2.063 1.559,-2.359 1.305,-0.301 2.727,0.273 3.172,1.277 m 0,0"
           style="fill:#ffb30a;fill-opacity:1;fill-rule:nonzero;stroke:none"
           id="path47"
           inkscape:connector-curvature="0" />
      </g>
    </g>
  </g>
  <rect
     transform="matrix(0.52905357,0,0,0.51838486,2.3752412,19.289082)"
     style="opacity:0.65;fill:url(#linearGradient4767);fill-opacity:1;stroke:none;stroke-width:1.00471163"
     id="rect4146"
     width="75.965775"
     height="69.024437"
     x="2"
     y="-30"
     rx="3.973561"
     ry="3.9777055"
     clip-path="url(#clipPath4156-4-1)" />
</svg>
