<?xml version="1.0" encoding="UTF-8" standalone="no"?>
<svg
   xmlns:dc="http://purl.org/dc/elements/1.1/"
   xmlns:cc="http://creativecommons.org/ns#"
   xmlns:rdf="http://www.w3.org/1999/02/22-rdf-syntax-ns#"
   xmlns:svg="http://www.w3.org/2000/svg"
   xmlns="http://www.w3.org/2000/svg"
   xmlns:xlink="http://www.w3.org/1999/xlink"
   xmlns:sodipodi="http://sodipodi.sourceforge.net/DTD/sodipodi-0.dtd"
   xmlns:inkscape="http://www.inkscape.org/namespaces/inkscape"
   width="48"
   height="48"
   viewBox="0 0 48 48"
   version="1.1"
   id="svg28"
   sodipodi:docname="r.svg"
   inkscape:version="0.92.2 5c3e80d, 2017-08-06">
  <metadata
     id="metadata32">
    <rdf:RDF>
      <cc:Work
         rdf:about="">
        <dc:format>image/svg+xml</dc:format>
        <dc:type
           rdf:resource="http://purl.org/dc/dcmitype/StillImage" />
      </cc:Work>
    </rdf:RDF>
  </metadata>
  <sodipodi:namedview
     pagecolor="#ffffff"
     bordercolor="#666666"
     borderopacity="1"
     objecttolerance="10"
     gridtolerance="10"
     guidetolerance="10"
     inkscape:pageopacity="0"
     inkscape:pageshadow="2"
     inkscape:window-width="1280"
     inkscape:window-height="941"
     id="namedview30"
     showgrid="false"
     inkscape:zoom="4.9166667"
     inkscape:cx="24"
     inkscape:cy="24"
     inkscape:window-x="0"
     inkscape:window-y="21"
     inkscape:window-maximized="1"
     inkscape:current-layer="g26" />
  <defs
     id="defs12">
    <linearGradient
       id="a"
       y1="61.2"
       x1="-162.29"
       y2="505.06"
       gradientUnits="userSpaceOnUse"
       x2="737.63"
       gradientTransform="matrix(0.06535,0.02041,-0.01819,0.05824,8.418,-1.328)">
      <stop
         stop-color="#fafafa"
         id="stop2" />
      <stop
         offset="1"
         stop-color="#939393"
         id="stop4" />
    </linearGradient>
    <linearGradient
       id="b"
       y1="41"
       x1="41"
       y2="18.25"
       x2="21.13"
       gradientUnits="userSpaceOnUse">
      <stop
         stop-color="#502ae3"
         id="stop7" />
      <stop
         offset="1"
         stop-color="#4db4f6"
         id="stop9" />
    </linearGradient>
    <linearGradient
       inkscape:collect="always"
       xlink:href="#linearGradient6139-0"
       id="linearGradient4071"
       gradientUnits="userSpaceOnUse"
       gradientTransform="matrix(0.55126485,0,0,0.55126475,-2.460715,-1.9094496)"
       x1="6"
       y1="47.000011"
       x2="90"
       y2="47.000011" />
    <linearGradient
       id="linearGradient6139-0">
      <stop
         id="stop6141-2"
         offset="0"
         style="stop-color:#b2babc;stop-opacity:1" />
      <stop
         style="stop-color:#ffffff;stop-opacity:1;"
         offset="0.25"
         id="stop6151-0" />
      <stop
         style="stop-color:#96a1a4;stop-opacity:1"
         offset="0.5"
         id="stop6147-1" />
      <stop
         id="stop6149-4"
         offset="0.75"
         style="stop-color:#fbf9f9;stop-opacity:1;" />
      <stop
         id="stop6143-4"
         offset="1"
         style="stop-color:#b2b9bc;stop-opacity:1" />
    </linearGradient>
    <linearGradient
       gradientTransform="matrix(0.49791667,0,0,0.49791666,0.09999873,0.09999967)"
       inkscape:collect="always"
       xlink:href="#linearGradient3832-0-6-1-1"
       id="linearGradient4129"
       x1="1.5"
       y1="88.171875"
       x2="94.5"
       y2="88.171875"
       gradientUnits="userSpaceOnUse" />
    <linearGradient
       id="linearGradient3832-0-6-1-1">
      <stop
         style="stop-color:#000000;stop-opacity:1;"
         offset="0"
         id="stop3834-6-3-7-1" />
      <stop
         id="stop3872-2-4"
         offset="0.1"
         style="stop-color:#000000;stop-opacity:0.58823532;" />
      <stop
         style="stop-color:#000000;stop-opacity:0.58823532;"
         offset="0.89999998"
         id="stop3844-6-2-7-6" />
      <stop
         style="stop-color:#000000;stop-opacity:1;"
         offset="1"
         id="stop3836-5-0-2-9" />
    </linearGradient>
    <radialGradient
       inkscape:collect="always"
       xlink:href="#linearGradient3737"
       id="radialGradient7462"
       gradientUnits="userSpaceOnUse"
       gradientTransform="matrix(0.48553536,0,0,0.02449288,16.978724,40.016334)"
       cx="13.948145"
       cy="44.892841"
       fx="13.948145"
       fy="44.892841"
       r="43.199203" />
    <linearGradient
       id="linearGradient3737">
      <stop
         offset="0"
         style="stop-color:#ffffff;stop-opacity:1"
         id="stop3739" />
      <stop
         offset="1"
         style="stop-color:#ffffff;stop-opacity:0"
         id="stop3741" />
    </linearGradient>
    <radialGradient
       inkscape:collect="always"
       xlink:href="#linearGradient3737"
       id="radialGradient7464"
       gradientUnits="userSpaceOnUse"
       gradientTransform="matrix(0.44231264,0,0,0.02449288,15.806528,-44.996301)"
       cx="13.948145"
       cy="44.892841"
       fx="13.948145"
       fy="44.892841"
       r="43.199203" />
    <linearGradient
       inkscape:collect="always"
       xlink:href="#linearGradient3737"
       id="linearGradient4767"
       gradientUnits="userSpaceOnUse"
       x1="2.7713892"
       y1="-28.64156"
       x2="50.527882"
       y2="14.514202" />
    <clipPath
       id="clipPath4156-4-1"
       clipPathUnits="userSpaceOnUse">
      <path
         inkscape:connector-curvature="0"
         id="path4158-0-8"
         d="m 27.046336,-55.695463 -14.21366,13.321486 h 0.06127 l 15.653407,21.770763 10.231384,-10.546177 C 38.561832,-32.30156 27.468089,-54.819245 27.046336,-55.695463 Z M 9.6468554,-39.382809 -5.2407289,-25.32124 15.987863,-7.8059573 26.372412,-18.382966 Z m 31.4906096,12.951445 -9.741259,9.713584 8.944804,12.4580526 7.780753,-7.5550056 z m -49.8397109,4.378822 -13.7541661,12.9822847 26.2830181,13.84571 0.06127,-0.0617 -0.122531,-0.0617 L 13.598503,-5.4007374 -8.7022409,-22.052595 Z m 38.0154159,7.400825 -9.802525,9.7752596 11.579232,9.5594001 7.62759,-7.40083 -8.669108,-11.0087257 z m 20.187073,5.6739697 -7.382526,7.2158 6.187844,8.54179 5.820249,-6.13651996 z m -32.195166,6.32154 -9.5574606,9.49772 13.6622686,7.1849703 7.933918,-7.6783603 z m 23.311629,2.37443004 -7.10683,6.93826996 8.362778,6.9074403 5.360756,-5.6739699 -0.06127,-0.0925 -0.0919,0.12335 -6.463539,-8.20258036 z m -8.730374,8.54178036 -7.505057,7.3391599 10.353916,5.45811 c 1.397496,-1.32103 5.67514,-6.12292 5.850882,-6.32154 z"
         style="opacity:0.6;fill:#ffffff;fill-opacity:1;stroke:none" />
    </clipPath>
    <linearGradient
       id="ButtonShadow-16"
       gradientTransform="scale(1.0058652,0.994169)"
       x1="45.447727"
       y1="92.539597"
       x2="45.447727"
       y2="7.0165396"
       gradientUnits="userSpaceOnUse">
      <stop
         style="stop-color:#000000;stop-opacity:1;"
         offset="0"
         id="stop3750-6" />
      <stop
         style="stop-color:#000000;stop-opacity:0.58823532;"
         offset="1"
         id="stop3752-4" />
    </linearGradient>
    <clipPath
       clipPathUnits="userSpaceOnUse"
       id="clipPath4355-7">
      <rect
         style="fill:#ffffff;fill-opacity:1;fill-rule:nonzero;stroke:none"
         id="rect4357-5"
         width="84"
         height="80"
         x="6"
         y="6"
         rx="6"
         ry="6" />
    </clipPath>
    <clipPath
       clipPathUnits="userSpaceOnUse"
       id="clipPath4355-9">
      <rect
         style="fill:#ffffff;fill-opacity:1;fill-rule:nonzero;stroke:none"
         id="rect4357-1"
         width="84"
         height="80"
         x="6"
         y="6"
         rx="6"
         ry="6" />
    </clipPath>
    <clipPath
       clipPathUnits="userSpaceOnUse"
       id="clipPath4355-1">
      <rect
         style="fill:#ffffff;fill-opacity:1;fill-rule:nonzero;stroke:none"
         id="rect4357-9"
         width="84"
         height="80"
         x="6"
         y="6"
         rx="6"
         ry="6" />
    </clipPath>
    <clipPath
       clipPathUnits="userSpaceOnUse"
       id="clipPath3943-52-0">
      <path
         id="path3945-4-1"
         d="m 69.78125,20.84375 -5,3.4375 c 5.586891,5.537137 9,13.327613 9,21.8125 0,8.434478 -3.37723,16.095981 -8.90625,21.625 l 5,3.4375 C 76.078226,64.5762 80,55.843726 80,46.09375 c 2e-6,-9.796556 -3.962955,-18.660417 -10.21875,-25.25 z M 40,24.0625 28.90625,36.21875 H 21.5 c -0.823281,0 -1.5,0.676717 -1.5,1.5 v 1 14.84375 1 c 0,0.823281 0.684121,1.610161 1.5,1.5 h 7.40625 L 40,68 V 66 26.0625 Z m 20.59375,3.28125 -5,3.4375 L 55.5,30.875 c 3.93815,3.890071 6.40625,9.25018 6.40625,15.21875 0,5.920869 -2.42961,11.148358 -6.3125,15.03125 l 0.09375,0.09375 5.09375,3.4375 c 4.475428,-4.908367 7.25,-11.402005 7.25,-18.5625 0,-7.230696 -2.87904,-13.83107 -7.4375,-18.75 z m -9.25,6.5 -5.21875,3.625 c 2.222384,2.217802 3.71875,5.239596 3.71875,8.625 0,3.336509 -1.458847,6.227712 -3.625,8.4375 l 5.21875,3.625 c 2.822412,-3.236947 4.53125,-7.43414 4.53125,-12.0625 0,-4.672601 -1.754155,-9.001351 -4.625,-12.25 z"
         style="color:#000000;display:inline;overflow:visible;visibility:visible;opacity:0.8;fill:#ff00ff;fill-opacity:1;fill-rule:nonzero;stroke:none;stroke-width:1;marker:none;enable-background:accumulate"
         inkscape:connector-curvature="0" />
    </clipPath>
    <linearGradient
       id="b-7"
       y1="41"
       x1="41"
       y2="18.25"
       x2="21.129999"
       gradientUnits="userSpaceOnUse">
      <stop
         stop-color="#502ae3"
         id="stop7-5" />
      <stop
         offset="1"
         stop-color="#4db4f6"
         id="stop9-3" />
    </linearGradient>
  </defs>
  <path
     style="display:inline;opacity:0.15;fill:#000000;fill-opacity:1;fill-rule:nonzero;stroke:none;stroke-width:0.49791667"
     d="M 44.485713,0.09999967 H 3.5142818 c -1.8915097,0 -3.41428187,1.52277053 -3.41428187,3.41428433 v 40.97143 C 0.09999993,46.377228 1.6227721,47.9 3.5142818,47.9 H 44.485713 C 46.377226,47.9 47.9,46.377228 47.9,44.485714 V 3.514284 c 0,-1.8915138 -1.522774,-3.41428433 -3.414287,-3.41428433 z"
     id="path3288"
     inkscape:connector-curvature="0" />
  <path
     inkscape:connector-curvature="0"
     id="path4085"
     d="M 44.165624,0.47343717 H 3.8343706 c -1.8619555,0 -3.36093407,1.49897713 -3.36093407,3.36093553 V 44.165625 c 0,1.861959 1.49897857,3.360937 3.36093407,3.360937 H 44.165624 c 1.86196,0 3.360939,-1.498978 3.360939,-3.360937 V 3.8343727 c 0,-1.8619584 -1.498979,-3.36093553 -3.360939,-3.36093553 z"
     style="display:inline;opacity:0.15;fill:#000000;fill-opacity:1;fill-rule:nonzero;stroke:none;stroke-width:0.49791667" />
  <path
     style="display:inline;fill:url(#linearGradient4071);fill-opacity:1;fill-rule:nonzero;stroke:none;stroke-width:0.49791667"
     d="M 43.845532,0.84687467 H 4.1544633 c -1.8324046,0 -3.30758907,1.47518463 -3.30758907,3.30758773 V 43.845536 c 0,1.832405 1.47518447,3.307589 3.30758907,3.307589 H 43.845532 c 1.832405,0 3.307588,-1.475185 3.307588,-3.307589 V 4.1544624 c 0,-1.8324031 -1.475183,-3.30758773 -3.307588,-3.30758773 z"
     id="rect4251-1"
     inkscape:connector-curvature="0" />
  <path
     style="display:inline;opacity:0.98000004;fill:#6a7386;fill-opacity:1;fill-rule:nonzero;stroke:none;stroke-width:0.51566219"
     d="m 5.6972261,3.2802641 c -1.4222972,0 -2.551389,1.1530465 -2.551389,2.6055173 v 10.7966076 3.647723 20.111331 c 0.5463341,0.848762 1.4782393,1.416749 2.551389,1.416749 H 7.7383374 40.396118 43.2187 c 1.073151,0 1.223584,0.01811 1.769919,-0.830645 V 20.330112 16.682389 5.8857814 c 0,-1.4524708 -1.129092,-2.6055173 -2.55139,-2.6055173 z"
     id="path3400-6"
     inkscape:connector-curvature="0"
     sodipodi:nodetypes="sscccsccscccsss" />
  <path
     inkscape:connector-curvature="0"
     id="path4989"
     d="m 4.9920701,2.4548766 c -1.5518175,0 -2.8221742,1.2644644 -2.8221742,2.8112405 V 39.760786 c 0,1.546775 1.2703567,2.811239 2.8221742,2.811239 H 43.227979 c 1.551818,0 2.822176,-1.264464 2.822176,-2.811239 V 5.2661171 c 0,-1.5467751 -1.270358,-2.8112405 -2.822176,-2.8112405 z m 0,1.1548879 H 43.227979 c 0.940117,0 1.669028,0.7369634 1.669028,1.6563526 V 39.760786 c 0,0.91939 -0.728911,1.65635 -1.669028,1.65635 H 4.9920701 c -0.9401159,0 -1.6690276,-0.73696 -1.6690276,-1.65635 V 5.2661171 c 0,-0.9193892 0.7289117,-1.6563526 1.6690276,-1.6563526 z"
     style="color:#000000;font-style:normal;font-variant:normal;font-weight:normal;font-stretch:normal;font-size:medium;line-height:normal;font-family:Sans;-inkscape-font-specification:Sans;text-indent:0;text-align:start;text-decoration:none;text-decoration-line:none;letter-spacing:normal;word-spacing:normal;text-transform:none;writing-mode:lr-tb;direction:ltr;baseline-shift:baseline;text-anchor:start;display:inline;overflow:visible;visibility:visible;fill:#1f2224;fill-opacity:0.80869565;stroke:none;stroke-width:1.18280113;marker:none;enable-background:accumulate" />
  <path
     inkscape:connector-curvature="0"
     style="display:inline;opacity:0.65818182;fill:url(#linearGradient4129);fill-opacity:1;fill-rule:nonzero;stroke:none;stroke-width:0.49791667"
     d="m 0.84687373,40.851367 v 2.9875 c 0,1.832404 1.48185307,3.314258 3.31425767,3.314258 H 43.838865 c 1.832405,0 3.31426,-1.481854 3.31426,-3.314258 v -2.9875 c 0,1.832404 -1.481855,3.314258 -3.31426,3.314258 H 4.1611314 c -1.8324046,0 -3.31425767,-1.481854 -3.31425767,-3.314258 z"
     id="path4118" />
  <rect
     style="opacity:0.55;fill:url(#radialGradient7462);fill-opacity:1;stroke:none;stroke-width:0.49791667"
     id="rect4131"
     width="41.949482"
     height="2.1161458"
     x="2.7763009"
     y="40.057812"
     rx="2.1161458"
     ry="2.1161458" />
  <rect
     ry="2.1161458"
     rx="2.1161458"
     y="-44.954826"
     x="2.8684161"
     height="2.1161458"
     width="38.215103"
     id="rect4141"
     style="opacity:0.669;fill:url(#radialGradient7464);fill-opacity:1;stroke:none;stroke-width:0.49791667"
     transform="rotate(90)" />
  <rect
     transform="matrix(0.53239495,0,0,0.52165878,2.2386637,19.259328)"
     style="opacity:0.7;fill:url(#linearGradient4767);fill-opacity:1;stroke:none"
     id="rect4146"
     width="75.965775"
     height="69.024437"
     x="2"
     y="-30"
     rx="3.9569874"
     ry="3.9569881"
     clip-path="url(#clipPath4156-4-1)" />
  <g
     id="g26"
     transform="matrix(0.93378171,0,0,0.93378171,1.149131,1.0707224)"
     style="fill-rule:evenodd;stroke-width:1.07091415">
    <path
       d="M 28.888715,5.374114 A 21.399735,17.01024 17.343928 0 0 3.391438,15.231519 21.399735,17.01024 17.343928 0 0 18.747047,37.847552 21.399735,17.01024 17.343928 0 0 44.24432,27.990144 21.399735,17.01024 17.343928 0 0 28.888715,5.374114 m 1.025951,6.582719 A 15.960636,12.680357 17.343928 0 1 41.36979,28.820272 15.960636,12.680357 17.343928 0 1 22.354254,36.16513 15.960636,12.680357 17.343928 0 1 10.900331,19.304459 15.960636,12.680357 17.343928 0 1 29.914666,11.956833"
       id="path14"
       inkscape:connector-curvature="0"
       style="color:#000000;color-interpolation:sRGB;color-interpolation-filters:linearRGB;fill:url(#a);stroke-width:1.14685702;color-rendering:auto;image-rendering:auto;shape-rendering:auto;text-rendering:auto;stroke:#fefefe;stroke-opacity:0.99588478" />
    <path
       d="m 41.546,41.02 -6.863,0.004 -4.677,-6.913 c 0,0 -0.753,-1.295 -1.216,-1.671 -0.386,-0.313 -0.551,-0.425 -0.933,-0.425 h -0.868 l 0.002,9 -5.958,0.003 v -23 h 12.972 c 0,0 5.257,0.97 5.364,6.177 0.119,5.805 -5.081,7.513 -5.081,7.513 0.713,0.292 6.449,7.967 7.259,9.308 m -10.285,-18.01 -4.212,-0.003 -0.002,3.911 4.214,-0.001 c 0,0 1.952,-0.006 1.952,-1.989 0,-2.023 -1.952,-1.917 -1.952,-1.917"
       id="path16"
       inkscape:connector-curvature="0"
       style="fill:url(#b-7);stroke-width:0.74963987;stroke:#efefef;stroke-opacity:0.68724281;stroke-miterlimit:4;stroke-dasharray:none" />
    <g
       id="g22"
       style="fill:#ffffff;fill-opacity:0.19599998;stroke-width:1.14685702">
      <path
         d="m 21.03,18.02 v 1 h 12.973 c 0,0 5.278,0.983 5.363,5.178 C 39.26,18.991 34.003,18.02 34.003,18.02 Z"
         id="path18"
         inkscape:connector-curvature="0"
         style="stroke-width:1.07091415" />
      <path
         d="m 33.21,24.924 c 0,1.983 -1.953,1.99 -1.953,1.99 h -4.213 v 1 h 4.213 c 0,0 1.953,0.086 1.953,-2.99"
         id="path20"
         inkscape:connector-curvature="0"
         style="color:#000000;color-interpolation:sRGB;color-interpolation-filters:linearRGB;stroke-width:1.07091415;color-rendering:auto;image-rendering:auto;shape-rendering:auto;text-rendering:auto" />
    </g>
    <path
       d="m 16.517578,4.599609 a 21.399735,17.01024 17.343928 0 0 -0.597656,0.142578 c 0.201,-0.045 0.394,-0.103 0.598,-0.143 M 26.801,4.814 c 0.695,0.158 1.389,0.344 2.088,0.561 A 21.399735,17.01024 17.343928 0 0 26.800781,4.814453 M 28.889,5.375 c 0.59,0.184 1.161,0.396 1.727,0.615 A 21.399735,17.01024 17.343928 0 0 28.888672,5.375 M 14.634766,5.058594 a 21.399735,17.01024 17.343928 0 0 -0.751954,0.251953 c 0.251,-0.083 0.496,-0.177 0.752,-0.252 m -1.808594,0.619141 a 21.399735,17.01024 17.343928 0 0 -0.699219,0.308594 c 0.233,-0.103 0.46,-0.214 0.699,-0.309 m 18.877,0.771 c 0.281,0.124 0.564,0.245 0.838,0.377 A 21.399735,17.01024 17.343928 0 0 31.703125,6.449219 m -20.595703,0.00781 a 21.399735,17.01024 17.343928 0 0 -0.609375,0.34375 c 0.203,-0.115 0.4,-0.236 0.609,-0.344 M 9.509391,7.386469 A 21.399735,17.01024 17.343928 0 0 8.984375,7.757813 C 9.159,7.634 9.329,7.505 9.51,7.387 m 24.13,0.014 c 0.252,0.136 0.505,0.271 0.75,0.414 A 21.399735,17.01024 17.343928 0 0 33.64,7.400937 M 8.05273,8.457031 A 21.399735,17.01024 17.343928 0 0 7.595703,8.859375 C 7.748,8.725 7.895,8.586 8.05,8.457 M 35.5,8.51 c 0.206,0.135 0.415,0.266 0.615,0.406 A 21.399735,17.01024 17.343928 0 0 35.5,8.509766 m 1.686,1.211 c 0.19,0.149 0.384,0.295 0.568,0.449 A 21.399735,17.01024 17.343928 0 0 37.18555,9.720703 M 25.21,10.178 C 18.534,10.02 12.596,13.873 10.9,19.305 A 15.960636,12.680357 17.343928 0 1 29.914062,11.957031 15.960636,12.680357 17.343928 0 1 41.8125,25.25586 C 41.589,19.376 36.887,13.13 29.914,10.957 28.336,10.464 26.756,10.214 25.21,10.178 m 13.463,0.82 c 0.194,0.181 0.394,0.357 0.58,0.543 a 21.399735,17.01024 17.343928 0 0 -0.580078,-0.542969 m 1.371,1.391 c 0.18,0.2 0.368,0.395 0.539,0.6 A 21.399735,17.01024 17.343928 0 0 40.04883,12.388672 M 4.574219,12.529297 a 21.399735,17.01024 17.343928 0 0 -0.037109,0.06445 c 0.012,-0.022 0.025,-0.043 0.037,-0.064 m 36.697,1.344 c 0.163,0.217 0.336,0.429 0.488,0.65 a 21.399735,17.01024 17.343928 0 0 -0.48763,-0.6507 M 3.847656,14.00195 a 21.399735,17.01024 17.343928 0 0 -0.089844,0.214844 c 0.029,-0.072 0.06,-0.143 0.09,-0.215 m 38.498,1.453 c 0.134,0.22 0.28,0.436 0.404,0.66 a 21.399735,17.01024 17.343928 0 0 -0.404297,-0.660156 m 1.014,1.889 c 0.061,0.131 0.132,0.26 0.189,0.393 A 21.399735,17.01024 17.343928 0 0 43.35938,17.34375 m -32.715,3.01 c -0.049,0.243 -0.081,0.486 -0.111,0.73 a 15.960636,12.680357 17.343928 0 1 0.111328,-0.730469 m -0.168,1.232 c -0.021,0.278 -0.025,0.556 -0.023,0.834 a 15.960636,12.680357 17.343928 0 1 0.02344,-0.833985 m -0.018,1.268 c 0.013,0.286 0.042,0.571 0.078,0.855 a 15.960636,12.680357 17.343928 0 1 -0.07813,-0.855469 m 0.137,1.297 c 0.047,0.283 0.111,0.565 0.18,0.846 A 15.960636,12.680357 17.343928 0 1 10.59633,24.150124 m 0.287,1.281 c 0.079,0.276 0.176,0.548 0.275,0.82 a 15.960636,12.680357 17.343928 0 1 -0.27552,-0.821436 m -6.802734,0.03906 a 21.399735,17.01024 17.343928 0 0 0.261719,0.541016 C 4.257,25.829 4.159,25.651 4.08,25.469 m 37.736326,0.269529 a 15.960636,12.680357 17.343928 0 1 -0.01953,0.728516 c 0.017,-0.242 0.019,-0.485 0.02,-0.729 m -30.488,0.977 c 0.104,0.255 0.224,0.507 0.346,0.758 a 15.960636,12.680357 17.343928 0 1 -0.345703,-0.757812 m -6.443359,0.390625 a 21.399735,17.01024 17.343928 0 0 0.431641,0.703125 C 5.173,27.574 5.02,27.344 4.885,27.11 m 36.837888,0.03516 a 15.960636,12.680357 17.343928 0 1 -0.08984,0.59375 c 0.038,-0.196 0.063,-0.395 0.09,-0.594 m -29.813,0.814 c 0.131,0.246 0.28,0.486 0.428,0.727 A 15.960636,12.680357 17.343928 0 1 11.910156,27.95508 M 5.869141,28.6875 a 21.399735,17.01024 17.343928 0 0 0.519531,0.695312 C 6.214,29.15 6.03,28.924 5.869,28.688 m 38,0.338 c -0.024,0.06 -0.049,0.12 -0.074,0.18 a 21.399735,17.01024 17.343928 0 0 0.07422,-0.179687 m -31.24,0.135 c 0.162,0.242 0.342,0.476 0.52,0.711 a 15.960636,12.680357 17.343928 0 1 -0.519532,-0.710938 m 28.2832,0.847656 a 15.960636,12.680357 17.343928 0 1 -0.599609,1.123047 c 0.222,-0.361 0.423,-0.734 0.6,-1.123 m -0.599609,1.123047 a 15.960636,12.680357 17.343928 0 1 -2.623047,2.910157 c 1.05,-0.822 1.939,-1.799 2.623,-2.91 m -2.623047,2.910157 a 15.960636,12.680357 17.343928 0 1 -1.089844,0.763672 c 0.38,-0.237 0.743,-0.492 1.09,-0.764 M 7.04688,30.23047 a 21.399735,17.01024 17.343928 0 0 0.527344,0.589843 C 7.398,30.624 7.215,30.431 7.05,30.23 m 6.428,0.074 c 0.219,0.27 0.459,0.53 0.699,0.789 a 15.960636,12.680357 17.343928 0 1 -0.699219,-0.789062 m 29.633,0.305 c -0.019,0.035 -0.039,0.069 -0.059,0.104 a 21.399735,17.01024 17.343928 0 0 0.05859,-0.103516 m -28.672,0.775 c 0.341,0.351 0.7,0.69 1.078,1.018 a 15.960636,12.680357 17.343928 0 1 -1.078125,-1.017578 m 1.078,1.018 c 1.14,0.986 2.445,1.858 3.889,2.576 a 15.960636,12.680357 17.343928 0 1 -3.888672,-2.576172 m 3.889,2.576 c 0.465,0.232 0.944,0.446 1.438,0.645 a 15.960636,12.680357 17.343928 0 1 -1.4375,-0.644531 M 8.392578,31.695312 a 21.399735,17.01024 17.343928 0 0 0.53125,0.496094 C 8.747,32.03 8.563,31.865 8.393,31.695 m 33.766,0.387 c -0.011,0.015 -0.022,0.028 -0.033,0.043 a 21.399735,17.01024 17.343928 0 0 0.0332,-0.04297 M 9.88381,33.052733 a 21.399735,17.01024 17.343928 0 0 0.597656,0.470704 C 10.281,33.367 10.08,33.21 9.883,33.05 m 1.609375,1.232422 a 21.399735,17.01024 17.343928 0 0 0.660156,0.439453 c -0.221,-0.145 -0.445,-0.288 -0.66,-0.439 m 28.563,0.063 c -0.16,0.142 -0.314,0.288 -0.48,0.424 A 21.399735,17.01024 17.343928 0 0 40.056,34.346047 m -3.837891,0.673828 a 15.960636,12.680357 17.343928 0 1 -0.802735,0.441407 c 0.277,-0.136 0.539,-0.289 0.803,-0.441 m -22.941406,0.40625 a 21.399735,17.01024 17.343928 0 0 0.658203,0.363282 c -0.22,-0.12 -0.443,-0.238 -0.658,-0.363 m 25.418,0.004 c -0.195,0.139 -0.384,0.283 -0.586,0.414 a 21.399735,17.01024 17.343928 0 0 0.585937,-0.414062 m -3.800781,0.261718 a 15.960636,12.680357 17.343928 0 1 -0.765625,0.326172 c 0.262,-0.099 0.513,-0.214 0.766,-0.326 m -1.320312,0.511719 a 15.960636,12.680357 17.343928 0 1 -0.8125,0.257813 c 0.277,-0.076 0.544,-0.168 0.813,-0.258 m 3.629,0.178 c -0.23,0.131 -0.455,0.269 -0.693,0.391 a 21.399735,17.01024 17.343928 0 0 0.69336,-0.390626 m -22.10547,0.01172 a 21.399735,17.01024 17.343928 0 0 0.867188,0.390625 c -0.291,-0.128 -0.583,-0.254 -0.867,-0.391 m 8.559,0.121 c 0.308,0.074 0.615,0.135 0.922,0.193 a 15.960636,12.680357 17.343928 0 1 -0.921875,-0.193359 m 8.5,0.0918 a 15.960636,12.680357 17.343928 0 1 -0.81239,0.176866 c 0.274,-0.05 0.541,-0.113 0.809,-0.176 m -6.969,0.213 c 0.335,0.053 0.667,0.092 1,0.127 a 15.960636,12.680357 17.343928 0 1 -1,-0.126954 m 5.542969,0.05469 a 15.960636,12.680357 17.343928 0 1 -0.917969,0.113281 c 0.31,-0.028 0.614,-0.069 0.918,-0.113 m -3.98,0.129 c 0.338,0.026 0.672,0.037 1.01,0.045 a 15.960636,12.680357 17.343928 0 1 -1.00586,-0.04492 m 2.580078,0.01563 a 15.960636,12.680357 17.343928 0 1 -1.042969,0.04102 c 0.352,-0.002 0.697,-0.019 1.043,-0.041 m 6.23,0.193 c -0.25,0.111 -0.493,0.231 -0.75,0.332 a 21.399735,17.01024 17.343928 0 0 0.75,-0.332031 m -18.546875,0.01563 a 21.399735,17.01024 17.343928 0 0 1.734375,0.61914 c -0.593,-0.185 -1.166,-0.398 -1.734,-0.619 m 16.729,0.688 c -0.247,0.082 -0.487,0.173 -0.738,0.246 a 21.399735,17.01024 17.343928 0 0 0.738281,-0.246093 m -2.029,0.564 c -0.199,0.045 -0.392,0.101 -0.594,0.141 a 21.399735,17.01024 17.343928 0 0 0.59375,-0.140625"
       id="path24"
       inkscape:connector-curvature="0"
       style="color:#000000;color-interpolation:sRGB;color-interpolation-filters:linearRGB;fill-opacity:0.103;stroke-width:1.14685702;color-rendering:auto;image-rendering:auto;shape-rendering:auto;text-rendering:auto" />
  </g>
</svg>
