<?xml version="1.0" encoding="UTF-8" standalone="no"?>
<!-- Created with Inkscape (http://www.inkscape.org/) -->

<svg
   xmlns:dc="http://purl.org/dc/elements/1.1/"
   xmlns:cc="http://creativecommons.org/ns#"
   xmlns:rdf="http://www.w3.org/1999/02/22-rdf-syntax-ns#"
   xmlns:svg="http://www.w3.org/2000/svg"
   xmlns="http://www.w3.org/2000/svg"
   xmlns:xlink="http://www.w3.org/1999/xlink"
   xmlns:sodipodi="http://sodipodi.sourceforge.net/DTD/sodipodi-0.dtd"
   xmlns:inkscape="http://www.inkscape.org/namespaces/inkscape"
   width="96"
   height="96"
   viewBox="0 0 96.000001 96.000004"
   version="1.1"
   id="svg1072"
   inkscape:version="0.92.2 2405546, 2018-03-11"
   sodipodi:docname="aegisub.svg">
  <defs
     id="defs1066">
    <linearGradient
       id="linearGradient871"
       inkscape:collect="always">
      <stop
         id="stop867"
         offset="0"
         style="stop-color:#eceeee;stop-opacity:1" />
      <stop
         id="stop869"
         offset="1"
         style="stop-color:#eceeee;stop-opacity:0" />
    </linearGradient>
    <linearGradient
       y2="47.000011"
       x2="90"
       y1="47.000011"
       x1="6"
       gradientTransform="matrix(1.1013763,0,0,1.1013761,-4.9671169,-3.0996675)"
       gradientUnits="userSpaceOnUse"
       id="linearGradient4071"
       xlink:href="#linearGradient6139-0"
       inkscape:collect="always" />
    <linearGradient
       id="linearGradient6139-0">
      <stop
         style="stop-color:#b4b9ba;stop-opacity:1"
         offset="0"
         id="stop6141-2" />
      <stop
         id="stop6151-0"
         offset="0.25"
         style="stop-color:#ffffff;stop-opacity:1;" />
      <stop
         id="stop6147-1"
         offset="0.5"
         style="stop-color:#98a0a2;stop-opacity:1" />
      <stop
         style="stop-color:#fbf9f9;stop-opacity:1;"
         offset="0.75"
         id="stop6149-4" />
      <stop
         style="stop-color:#b4b8ba;stop-opacity:1"
         offset="1"
         id="stop6143-4" />
    </linearGradient>
    <linearGradient
       gradientUnits="userSpaceOnUse"
       y2="88.171875"
       x2="94.5"
       y1="88.171875"
       x1="1.5"
       id="linearGradient4129"
       xlink:href="#linearGradient3832-0-6-1-1"
       inkscape:collect="always"
       gradientTransform="matrix(0.99479166,0,0,0.99479167,0.1489535,0.915026)" />
    <linearGradient
       id="linearGradient3832-0-6-1-1">
      <stop
         id="stop3834-6-3-7-1"
         offset="0"
         style="stop-color:#000000;stop-opacity:1;" />
      <stop
         style="stop-color:#000000;stop-opacity:0.58823532;"
         offset="0.1"
         id="stop3872-2-4" />
      <stop
         id="stop3844-6-2-7-6"
         offset="0.89999998"
         style="stop-color:#000000;stop-opacity:0.58823532;" />
      <stop
         id="stop3836-5-0-2-9"
         offset="1"
         style="stop-color:#000000;stop-opacity:1;" />
    </linearGradient>
    <radialGradient
       r="43.199203"
       fy="44.892841"
       fx="13.948145"
       cy="44.892841"
       cx="13.948145"
       gradientTransform="matrix(0.97005495,0,0,0.04893452,33.871093,80.664187)"
       gradientUnits="userSpaceOnUse"
       id="radialGradient7462"
       xlink:href="#linearGradient3737"
       inkscape:collect="always" />
    <linearGradient
       id="linearGradient3737">
      <stop
         id="stop3739"
         style="stop-color:#ffffff;stop-opacity:1"
         offset="0" />
      <stop
         id="stop3741"
         style="stop-color:#ffffff;stop-opacity:0"
         offset="1" />
    </linearGradient>
    <radialGradient
       r="43.199203"
       fy="44.892841"
       fx="13.948145"
       cy="44.892841"
       cx="13.948145"
       gradientTransform="matrix(0.88369993,0,0,0.04893452,32.295223,-89.847632)"
       gradientUnits="userSpaceOnUse"
       id="radialGradient7464"
       xlink:href="#linearGradient3737"
       inkscape:collect="always" />
    <linearGradient
       y2="14.514202"
       x2="50.527882"
       y1="-28.64156"
       x1="2.7713892"
       gradientUnits="userSpaceOnUse"
       id="linearGradient4767"
       xlink:href="#linearGradient3737"
       inkscape:collect="always" />
    <clipPath
       clipPathUnits="userSpaceOnUse"
       id="clipPath4156-4-1">
      <path
         style="opacity:0.6;fill:#ffffff;fill-opacity:1;stroke:none"
         d="m 27.046336,-55.695463 -14.21366,13.321486 h 0.06127 l 15.653407,21.770763 10.231384,-10.546177 C 38.561832,-32.30156 27.468089,-54.819245 27.046336,-55.695463 Z M 9.6468554,-39.382809 -5.2407289,-25.32124 15.987863,-7.8059573 26.372412,-18.382966 Z m 31.4906096,12.951445 -9.741259,9.713584 8.944804,12.4580526 7.780753,-7.5550056 z m -49.8397109,4.378822 -13.7541661,12.9822847 26.2830181,13.84571 0.06127,-0.0617 -0.122531,-0.0617 L 13.598503,-5.4007374 -8.7022409,-22.052595 Z m 38.0154159,7.400825 -9.802525,9.7752596 11.579232,9.5594001 7.62759,-7.40083 -8.669108,-11.0087257 z m 20.187073,5.6739697 -7.382526,7.2158 6.187844,8.54179 5.820249,-6.13651996 z m -32.195166,6.32154 -9.5574606,9.49772 13.6622686,7.1849703 7.933918,-7.6783603 z m 23.311629,2.37443004 -7.10683,6.93826996 8.362778,6.9074403 5.360756,-5.6739699 -0.06127,-0.0925 -0.0919,0.12335 -6.463539,-8.20258036 z m -8.730374,8.54178036 -7.505057,7.3391599 10.353916,5.45811 c 1.397496,-1.32103 5.67514,-6.12292 5.850882,-6.32154 z"
         id="path4158-0-8"
         inkscape:connector-curvature="0" />
    </clipPath>
    <linearGradient
       inkscape:collect="always"
       xlink:href="#linearGradient4535-3"
       id="linearGradient3647"
       gradientUnits="userSpaceOnUse"
       gradientTransform="matrix(0,-1.2632206,-1.2740332,0,149.90707,73.837356)"
       x1="26"
       y1="65"
       x2="53.018513"
       y2="65" />
    <linearGradient
       id="linearGradient4535-3">
      <stop
         id="stop4537-3"
         style="stop-color:#000000;stop-opacity:1"
         offset="0" />
      <stop
         id="stop4539-2"
         style="stop-color:#000000;stop-opacity:0"
         offset="1" />
    </linearGradient>
    <linearGradient
       inkscape:collect="always"
       xlink:href="#linearGradient6290"
       id="linearGradient6772"
       gradientUnits="userSpaceOnUse"
       gradientTransform="matrix(1.0967742,0,0,1.0000001,-2.3225823,3.0000003)"
       x1="23.425367"
       y1="16.499998"
       x2="23.425367"
       y2="12.8536" />
    <linearGradient
       inkscape:collect="always"
       id="linearGradient6290">
      <stop
         style="stop-color:#eeeeec;stop-opacity:1;"
         offset="0"
         id="stop6292" />
      <stop
         style="stop-color:#eeeeec;stop-opacity:0;"
         offset="1"
         id="stop6294" />
    </linearGradient>
    <linearGradient
       inkscape:collect="always"
       xlink:href="#linearGradient871"
       id="linearGradient911"
       x1="23.256756"
       y1="21.838671"
       x2="23.426121"
       y2="16.169165"
       gradientUnits="userSpaceOnUse" />
  </defs>
  <sodipodi:namedview
     id="base"
     pagecolor="#ffffff"
     bordercolor="#666666"
     borderopacity="1.0"
     inkscape:pageopacity="0.0"
     inkscape:pageshadow="2"
     inkscape:zoom="4.4238185"
     inkscape:cx="8.9633079"
     inkscape:cy="44.557005"
     inkscape:document-units="px"
     inkscape:current-layer="g917"
     showgrid="false"
     inkscape:showpageshadow="false"
     units="px"
     inkscape:lockguides="false"
     inkscape:window-width="1920"
     inkscape:window-height="1026"
     inkscape:window-x="0"
     inkscape:window-y="28"
     inkscape:window-maximized="1"
     inkscape:snap-global="false" />
  <metadata
     id="metadata1069">
    <rdf:RDF>
      <cc:Work
         rdf:about="">
        <dc:format>image/svg+xml</dc:format>
        <dc:type
           rdf:resource="http://purl.org/dc/dcmitype/StillImage" />
        <dc:title />
        <dc:date>2017</dc:date>
        <dc:creator>
          <cc:Agent>
            <dc:title>Cristian Pozzessere &quot;ilnanny&quot;</dc:title>
          </cc:Agent>
        </dc:creator>
        <dc:subject>
          <rdf:Bag>
            <rdf:li>Global language</rdf:li>
          </rdf:Bag>
        </dc:subject>
        <dc:description>Playing with Inkscape on Gnu/Linux O. S.</dc:description>
        <dc:contributor>
          <cc:Agent>
            <dc:title>In the night, alone like a dog.</dc:title>
          </cc:Agent>
        </dc:contributor>
        <cc:license
           rdf:resource="http://creativecommons.org/licenses/by-sa/4.0/" />
      </cc:Work>
      <cc:License
         rdf:about="http://creativecommons.org/licenses/by-sa/4.0/">
        <cc:permits
           rdf:resource="http://creativecommons.org/ns#Reproduction" />
        <cc:permits
           rdf:resource="http://creativecommons.org/ns#Distribution" />
        <cc:requires
           rdf:resource="http://creativecommons.org/ns#Notice" />
        <cc:requires
           rdf:resource="http://creativecommons.org/ns#Attribution" />
        <cc:permits
           rdf:resource="http://creativecommons.org/ns#DerivativeWorks" />
        <cc:requires
           rdf:resource="http://creativecommons.org/ns#ShareAlike" />
      </cc:License>
    </rdf:RDF>
  </metadata>
  <g
     inkscape:label="Livello 1"
     inkscape:groupmode="layer"
     id="layer1"
     transform="translate(0,-1026.5197)">
    <g
       transform="translate(-0.14895645,1026.1047)"
       style="display:inline"
       id="g2574">
      <g
         id="g893"
         transform="translate(0.2500005,-0.250026)">
        <path
           style="display:inline;opacity:0.15;fill:#000000;fill-opacity:1;fill-rule:nonzero;stroke:none;stroke-width:0.99479157"
           d="M 88.827524,0.915026 H 6.9703766 c -3.7790621,0 -6.8214207,3.0423565 -6.8214207,6.8214254 V 89.593599 c 0,3.779072 3.0423586,6.821427 6.8214207,6.821427 H 88.827524 c 3.779072,0 6.821432,-3.042355 6.821432,-6.821427 V 7.7364514 c 0,-3.7790689 -3.04236,-6.8214254 -6.821432,-6.8214254 z"
           id="path3288"
           inkscape:connector-curvature="0" />
        <path
           inkscape:connector-curvature="0"
           id="path4085"
           d="M 88.188013,1.6611198 H 7.6098845 c -3.7200154,0 -6.71483666,2.9948192 -6.71483666,6.7148406 V 88.954088 c 0,3.720024 2.99482126,6.714843 6.71483666,6.714843 H 88.188013 c 3.720028,0 6.714848,-2.994819 6.714848,-6.714843 V 8.3759604 c 0,-3.7200214 -2.99482,-6.7148406 -6.714848,-6.7148406 z"
           style="display:inline;opacity:0.15;fill:#000000;fill-opacity:1;fill-rule:nonzero;stroke:none;stroke-width:0.99479157" />
        <path
           style="display:inline;fill:url(#linearGradient4071);fill-opacity:1;fill-rule:nonzero;stroke:none;stroke-width:0.99479157"
           d="M 87.548502,2.4072135 H 8.2494005 c -3.6609759,0 -6.6082585,2.947282 -6.6082585,6.6082569 V 88.314581 c 0,3.660977 2.9472826,6.608258 6.6082585,6.608258 H 87.548502 c 3.660978,0 6.608254,-2.947281 6.608254,-6.608258 V 9.0154704 c 0,-3.6609749 -2.947276,-6.6082569 -6.608254,-6.6082569 z"
           id="rect4251-1"
           inkscape:connector-curvature="0" />
        <path
           style="display:inline;opacity:0.90100002;fill:#907f52;fill-opacity:0.85347044;fill-rule:nonzero;stroke:none;stroke-width:1.03497171"
           d="m 11.370352,7.1104261 c -2.8631671,0 -5.1360939,2.3073685 -5.1360939,5.2139149 V 33.9295 41.228977 81.473882 C 7.33406,83.172347 9.2100387,84.30895 11.370352,84.30895 h 4.108872 65.741994 4.108875 c 2.160314,0 4.036293,-1.136603 5.136094,-2.835068 V 41.228977 33.9295 12.324341 c 0,-2.9065464 -2.272927,-5.2139149 -5.136094,-5.2139149 z"
           id="path3400-6"
           inkscape:connector-curvature="0"
           sodipodi:nodetypes="sscccsccscccsss" />
        <path
           inkscape:connector-curvature="0"
           id="path4989"
           d="m 9.9228615,5.6198544 c -3.1003885,0 -5.638444,2.5262835 -5.638444,5.6165966 v 68.917176 c 0,3.090315 2.5380555,5.616594 5.638444,5.616594 H 86.314688 c 3.100391,0 5.638448,-2.526279 5.638448,-5.616594 V 11.236451 c 0,-3.0903121 -2.538057,-5.6165966 -5.638448,-5.6165966 z m 0,2.3073585 H 86.314688 c 1.878264,0 3.334562,1.472386 3.334562,3.3092381 v 68.917176 c 0,1.836854 -1.456298,3.309234 -3.334562,3.309234 H 9.9228615 c -1.878265,0 -3.3345634,-1.47238 -3.3345634,-3.309234 V 11.236451 c 0,-1.8368521 1.4562984,-3.3092381 3.3345634,-3.3092381 z"
           style="color:#000000;font-style:normal;font-variant:normal;font-weight:normal;font-stretch:normal;font-size:medium;line-height:normal;font-family:Sans;-inkscape-font-specification:Sans;text-indent:0;text-align:start;text-decoration:none;text-decoration-line:none;letter-spacing:normal;word-spacing:normal;text-transform:none;writing-mode:lr-tb;direction:ltr;baseline-shift:baseline;text-anchor:start;display:inline;overflow:visible;visibility:visible;fill:#1f2124;fill-opacity:0.938326;stroke:none;stroke-width:2.36312771;marker:none;enable-background:accumulate" />
        <path
           inkscape:connector-curvature="0"
           style="display:inline;opacity:0.65818182;fill:url(#linearGradient4129);fill-opacity:1;fill-rule:nonzero;stroke:none;stroke-width:0.99479157"
           d="m 1.641141,82.332506 v 5.96875 c 0,3.660977 2.960606,6.621583 6.6215815,6.621583 H 87.535182 c 3.660978,0 6.621584,-2.960606 6.621584,-6.621583 v -5.96875 c 0,3.660977 -2.960606,6.621583 -6.621584,6.621583 H 8.2627225 c -3.6609755,0 -6.6215815,-2.960606 -6.6215815,-6.621583 z"
           id="path4118" />
        <rect
           style="opacity:0.55;fill:url(#radialGradient7462);fill-opacity:1;stroke:none;stroke-width:0.99479157"
           id="rect4131"
           width="83.811203"
           height="4.2278652"
           x="5.4959588"
           y="80.747047"
           rx="0"
           ry="4.2278652" />
        <rect
           ry="4.2278652"
           rx="0"
           y="-89.764755"
           x="6.4460635"
           height="4.2278652"
           width="76.350258"
           id="rect4141"
           style="opacity:0.669;fill:url(#radialGradient7464);fill-opacity:1;stroke:none;stroke-width:0.99479157"
           transform="rotate(90)" />
        <path
           style="stroke-width:1.66242552"
           d="M 6.2799276,73.771705 H 9.6957944 V 77.00797 H 6.2799276 Z m 6.8317314,0 h 3.415869 v 3.236265 h -3.415869 z m 6.831737,0 h 3.415862 v 3.236265 h -3.415862 z m 6.83173,0 h 3.415865 v 3.236265 h -3.415865 z m 6.831735,0 h 3.415865 v 3.236265 h -3.415865 z m 6.831732,0 h 3.415865 v 3.236265 h -3.415865 z m 6.831733,0 h 3.415865 v 3.236265 h -3.415865 z m 6.831736,0 h 3.415864 V 77.00797 H 54.102062 Z M 6.2799276,67.299187 h 3.4158668 v 3.236259 H 6.2799276 Z m 6.8317314,0 h 3.415869 v 3.236259 h -3.415869 z m 6.831737,0 h 3.415862 v 3.236259 h -3.415862 z m 6.83173,0 h 3.415865 v 3.236259 h -3.415865 z m 6.831735,0 h 3.415865 v 3.236259 h -3.415865 z m 6.831732,0 h 3.415865 v 3.236259 h -3.415865 z m 6.831733,0 h 3.415865 v 3.236259 h -3.415865 z m 6.831736,0 h 3.415864 v 3.236259 H 54.102062 Z M 6.2799276,60.826662 h 3.4158668 v 3.236265 H 6.2799276 Z m 6.8317314,0 h 3.415869 v 3.236265 h -3.415869 z m 6.831737,0 h 3.415862 v 3.236265 h -3.415862 z m 6.83173,0 h 3.415865 v 3.236265 h -3.415865 z m 6.831735,0 h 3.415865 v 3.236265 h -3.415865 z m 6.831732,0 h 3.415865 v 3.236265 h -3.415865 z m 6.831733,0 h 3.415865 v 3.236265 h -3.415865 z m 6.831736,0 h 3.415864 v 3.236265 H 54.102062 Z M 6.2799276,54.354144 h 3.4158668 v 3.236259 H 6.2799276 Z m 6.8317314,0 h 3.415869 v 3.236259 h -3.415869 z m 6.831737,0 h 3.415862 v 3.236259 h -3.415862 z m 6.83173,0 h 3.415865 v 3.236259 h -3.415865 z m 6.831735,0 h 3.415865 v 3.236259 h -3.415865 z m 6.831732,0 h 3.415865 v 3.236259 h -3.415865 z m 6.831733,0 h 3.415865 v 3.236259 h -3.415865 z m 6.831736,0 h 3.415864 v 3.236259 H 54.102062 Z M 6.2799276,47.881621 h 3.4158668 v 3.236264 H 6.2799276 Z m 6.8317314,0 h 3.415869 v 3.236264 h -3.415869 z m 6.831737,0 h 3.415862 v 3.236264 h -3.415862 z m 6.83173,0 h 3.415865 v 3.236264 h -3.415865 z m 6.831735,0 h 3.415865 v 3.236264 h -3.415865 z m 6.831732,0 h 3.415865 v 3.236264 h -3.415865 z m 6.831733,0 h 3.415865 v 3.236264 h -3.415865 z m 6.831736,0 h 3.415864 v 3.236264 H 54.102062 Z M 6.2799276,41.409101 H 9.6957944 V 44.64536 H 6.2799276 Z m 6.8317314,0 h 3.415869 v 3.236259 h -3.415869 z m 6.831737,0 h 3.415862 v 3.236259 h -3.415862 z m 6.83173,0 h 3.415865 v 3.236259 h -3.415865 z m 6.831735,0 h 3.415865 v 3.236259 h -3.415865 z m 6.831732,0 h 3.415865 v 3.236259 h -3.415865 z m 6.831733,0 h 3.415865 v 3.236259 h -3.415865 z m 6.831736,0 h 3.415864 V 44.64536 H 54.102062 Z M 6.2799276,34.936578 h 3.4158668 v 3.236264 H 6.2799276 Z m 6.8317314,0 h 3.415869 v 3.236264 h -3.415869 z m 6.831737,0 h 3.415862 v 3.236264 h -3.415862 z m 6.83173,0 h 3.415865 v 3.236264 h -3.415865 z m 6.831735,0 h 3.415865 v 3.236264 h -3.415865 z m 6.831732,0 h 3.415865 v 3.236264 h -3.415865 z m 6.831733,0 h 3.415865 v 3.236264 h -3.415865 z m 6.831736,0 h 3.415864 v 3.236264 H 54.102062 Z M 6.2799276,28.464059 h 3.4158668 v 3.236259 H 6.2799276 Z m 6.8317314,0 h 3.415869 v 3.236259 h -3.415869 z m 6.831737,0 h 3.415862 v 3.236259 h -3.415862 z m 6.83173,0 h 3.415865 v 3.236259 h -3.415865 z m 6.831735,0 h 3.415865 v 3.236259 h -3.415865 z m 6.831732,0 h 3.415865 v 3.236259 h -3.415865 z m 6.831733,0 h 3.415865 v 3.236259 h -3.415865 z m 6.831736,0 h 3.415864 v 3.236259 h -3.415864 z"
           id="path3082"
           inkscape:connector-curvature="0" />
        <g
           id="g917"
           style="display:inline;opacity:0.84299999"
           transform="matrix(2.1657527,0,0,2.6164578,-4.0791078,-33.24022)">
          <rect
             style="opacity:0.92400004;fill:#9efff9;fill-opacity:0.97172236;fill-rule:evenodd;stroke:#2f2f2a;stroke-width:0.36089292;stroke-linecap:square;stroke-linejoin:round;stroke-miterlimit:4;stroke-dasharray:none;stroke-dashoffset:0;stroke-opacity:1;paint-order:fill markers stroke"
             id="rect899"
             width="35.24395"
             height="5.9134583"
             x="6.3780251"
             y="16.610279" />
          <path
             style="color:#000000;font-style:normal;font-variant:normal;font-weight:normal;font-stretch:normal;font-size:medium;line-height:normal;font-family:sans-serif;font-variant-ligatures:normal;font-variant-position:normal;font-variant-caps:normal;font-variant-numeric:normal;font-variant-alternates:normal;font-feature-settings:normal;text-indent:0;text-align:start;text-decoration:none;text-decoration-line:none;text-decoration-style:solid;text-decoration-color:#000000;letter-spacing:normal;word-spacing:normal;text-transform:none;writing-mode:lr-tb;direction:ltr;text-orientation:mixed;dominant-baseline:auto;baseline-shift:baseline;text-anchor:start;white-space:normal;shape-padding:0;clip-rule:nonzero;display:inline;overflow:visible;visibility:visible;opacity:0.62699998;isolation:auto;mix-blend-mode:normal;color-interpolation:sRGB;color-interpolation-filters:linearRGB;solid-color:#000000;solid-opacity:1;vector-effect:none;fill:url(#linearGradient911);fill-opacity:1;fill-rule:evenodd;stroke:none;stroke-width:1;stroke-linecap:round;stroke-linejoin:round;stroke-miterlimit:4;stroke-dasharray:none;stroke-dashoffset:0;stroke-opacity:1;color-rendering:auto;image-rendering:auto;shape-rendering:auto;text-rendering:auto;enable-background:accumulate"
             d="m 7,17 a 0.50005,0.50005 0 0 0 -0.5,0.5 v 4 A 0.50005,0.50005 0 0 0 7,22 h 34 a 0.50005,0.50005 0 0 0 0.5,-0.5 v -4 A 0.50005,0.50005 0 0 0 41,17 Z m 0.5,1 h 33 v 3 h -33 z"
             id="rect6288"
             inkscape:connector-curvature="0" />
          <path
             id="path6292"
             d="M 7.289,21 H 40.921288"
             style="opacity:1;fill:#ffffff;fill-rule:evenodd;stroke:#ffffff;stroke-width:2;stroke-linecap:butt;stroke-linejoin:miter;stroke-miterlimit:4;stroke-dasharray:1, 1;stroke-dashoffset:0.2;stroke-opacity:1;fill-opacity:0.99559474"
             inkscape:connector-curvature="0" />
          <path
             sodipodi:nodetypes="cc"
             id="path6309"
             d="m 15.5,17.499783 v 4.000434"
             style="fill:#b50000;fill-rule:evenodd;stroke:#cc0000;stroke-width:0.99999988;stroke-linecap:square;stroke-linejoin:miter;stroke-miterlimit:4;stroke-dasharray:none;stroke-opacity:1"
             inkscape:connector-curvature="0" />
        </g>
        <rect
           transform="matrix(1.0636761,0,0,1.0422264,4.4218092,39.193603)"
           style="opacity:0.5078125;fill:url(#linearGradient4767);fill-opacity:1;stroke:none"
           id="rect4146"
           width="75.965775"
           height="69.024437"
           x="2"
           y="-30"
           rx="3.9569874"
           ry="3.9569881"
           clip-path="url(#clipPath4156-4-1)" />
        <g
           id="g1355"
           style="display:inline"
           transform="matrix(0.99479164,0,0,0.99479165,6.0945413,21.822938)">
          <path
             inkscape:connector-curvature="0"
             style="color:#000000;display:inline;overflow:visible;visibility:visible;opacity:0.1;fill:#000000;fill-opacity:1;fill-rule:nonzero;stroke:none;stroke-width:1.32630932;marker:none;enable-background:accumulate"
             id="path4557"
             d="m 81.124861,32.135607 a 14.014368,13.89544 0 0 1 -28.028735,0 14.014367,13.895445 0 1 1 28.028735,0 z" />
          <path
             inkscape:connector-curvature="0"
             style="color:#000000;display:inline;overflow:visible;visibility:visible;opacity:0.94100001;fill:#251700;fill-opacity:1;fill-rule:nonzero;stroke:none;stroke-width:1.32630932;marker:none;enable-background:accumulate"
             id="path4479"
             d="m 79.850833,32.135607 a 12.740333,12.632206 0 0 1 -25.480667,0 12.740334,12.632206 0 1 1 25.480667,0 z" />
          <path
             inkscape:connector-curvature="0"
             style="color:#000000;display:inline;overflow:visible;visibility:visible;opacity:0.77899996;fill:#e2e2e2;fill-opacity:1;fill-rule:nonzero;stroke:none;stroke-width:0.03315773;marker:none;enable-background:accumulate"
             id="path4497"
             d="m 58.192267,32.135608 2.612091,6.252622 6.306142,2.589922 6.306144,-2.58992 2.61209,-6.252624 -2.61209,-6.252622 -6.306144,-2.589922 -6.306142,2.589921 z" />
          <path
             style="color:#000000;display:inline;overflow:visible;visibility:visible;opacity:0.6;fill:url(#linearGradient3647);fill-opacity:1;fill-rule:nonzero;stroke:none;stroke-width:0.03315773;marker:none;enable-background:accumulate"
             id="path4513"
             inkscape:connector-curvature="0"
             d="m 76.013131,32.15108 -2.627694,6.23715 -6.29054,2.605393 -6.290539,-2.605393 -2.627694,-6.23715 2.627694,-6.237153 6.290539,-2.605393 6.29054,2.605393 z m -1.274034,0 -2.229558,-5.368688 -5.414642,-2.210636 -5.414641,2.210636 -2.229558,5.368688 2.229558,5.368686 5.414641,2.210635 5.414642,-2.210635 z" />
          <path
             style="color:#000000;display:inline;overflow:visible;visibility:visible;fill:#ffffff;fill-opacity:1;fill-rule:nonzero;stroke:none;stroke-width:0.03315773;marker:none;enable-background:accumulate"
             id="path4530"
             inkscape:connector-curvature="0"
             d="m 67.1105,24.556285 5.414642,2.250112 2.229558,5.329211 -0.278694,0.63161 -1.950864,-4.737076 -5.414642,-2.210637 -5.414641,2.210637 -1.950864,4.737076 -0.278694,-0.63161 2.229558,-5.329211 z" />
          <path
             inkscape:connector-curvature="0"
             style="color:#000000;display:inline;overflow:visible;visibility:visible;opacity:0.644;fill:#010101;fill-opacity:1;fill-rule:nonzero;stroke:none;stroke-width:0.03315773;marker:none;enable-background:accumulate"
             id="path4549"
             d="m 56.918234,46.031034 a 1.2740333,1.2632206 0 1 0 0,-2.526441 1.2740333,1.2632206 0 0 0 0,2.526441 z" />
          <path
             inkscape:connector-curvature="0"
             style="color:#000000;display:inline;overflow:visible;visibility:visible;opacity:0.644;fill:#010101;fill-opacity:1;fill-rule:nonzero;stroke:none;stroke-width:0.03315773;marker:none;enable-background:accumulate"
             id="path4555"
             d="m 81.124867,42.241372 a 1.2740335,1.2632208 0 1 0 -2.548067,0 1.2740335,1.2632208 0 0 0 2.548067,0 z" />
        </g>
      </g>
      <g
         transform="matrix(2.1770917,0,0,2.2478943,-4.1012443,-27.31072)"
         id="g1152" />
    </g>
  </g>
</svg>
