<?xml version="1.0" encoding="UTF-8" standalone="no"?>
<!-- Created with Inkscape (http://www.inkscape.org/) -->

<svg
   xmlns:dc="http://purl.org/dc/elements/1.1/"
   xmlns:cc="http://creativecommons.org/ns#"
   xmlns:rdf="http://www.w3.org/1999/02/22-rdf-syntax-ns#"
   xmlns:svg="http://www.w3.org/2000/svg"
   xmlns="http://www.w3.org/2000/svg"
   xmlns:xlink="http://www.w3.org/1999/xlink"
   xmlns:sodipodi="http://sodipodi.sourceforge.net/DTD/sodipodi-0.dtd"
   xmlns:inkscape="http://www.inkscape.org/namespaces/inkscape"
   width="96"
   height="96"
   id="svg13094"
   version="1.1"
   inkscape:version="0.92.2 5c3e80d, 2017-08-06"
   sodipodi:docname="realtimesync.svg">
  <sodipodi:namedview
     id="base"
     pagecolor="#ffffff"
     bordercolor="#666666"
     borderopacity="1.0"
     inkscape:pageopacity="0"
     inkscape:pageshadow="2"
     inkscape:zoom="2.8284273"
     inkscape:cx="-20.213641"
     inkscape:cy="31.825824"
     inkscape:document-units="px"
     inkscape:current-layer="svg13094"
     showgrid="false"
     inkscape:snap-bbox="true"
     inkscape:bbox-paths="true"
     inkscape:bbox-nodes="true"
     inkscape:snap-bbox-edge-midpoints="true"
     inkscape:snap-bbox-midpoints="true"
     inkscape:object-paths="true"
     inkscape:snap-intersection-paths="true"
     inkscape:object-nodes="true"
     inkscape:snap-smooth-nodes="true"
     inkscape:snap-midpoints="true"
     inkscape:snap-object-midpoints="true"
     inkscape:snap-center="true"
     showguides="false"
     inkscape:guide-bbox="true"
     inkscape:window-width="1280"
     inkscape:window-height="972"
     inkscape:window-x="0"
     inkscape:window-y="23"
     inkscape:window-maximized="1"
     inkscape:snap-global="false"
     fit-margin-top="0"
     fit-margin-left="0"
     fit-margin-right="0"
     fit-margin-bottom="0"
     showborder="true"
     inkscape:showpageshadow="false"
     inkscape:snap-page="true">
    <inkscape:grid
       type="xygrid"
       id="grid3075"
       empspacing="5"
       visible="true"
       enabled="true"
       snapvisiblegridlinesonly="true"
       originx="1.6362304e-08"
       originy="18"
       spacingx="1"
       spacingy="1" />
    <sodipodi:guide
       orientation="0,1"
       position="-11,30"
       id="guide9148"
       inkscape:locked="false" />
    <sodipodi:guide
       orientation="1,0"
       position="32,70"
       id="guide9150"
       inkscape:locked="false" />
  </sodipodi:namedview>
  <defs
     id="defs13096">
    <linearGradient
       inkscape:collect="always"
       xlink:href="#linearGradient6139-0"
       id="linearGradient4071"
       gradientUnits="userSpaceOnUse"
       gradientTransform="matrix(1.1071428,0,0,1.1071426,-5.142859,-4.035687)"
       x1="6"
       y1="47.000011"
       x2="90"
       y2="47.000011" />
    <linearGradient
       id="linearGradient6139-0">
      <stop
         id="stop6141-2"
         offset="0"
         style="stop-color:#b2babc;stop-opacity:1" />
      <stop
         style="stop-color:#ffffff;stop-opacity:1;"
         offset="0.25"
         id="stop6151-0" />
      <stop
         style="stop-color:#96a1a4;stop-opacity:1"
         offset="0.5"
         id="stop6147-1" />
      <stop
         id="stop6149-4"
         offset="0.75"
         style="stop-color:#fbf9f9;stop-opacity:1;" />
      <stop
         id="stop6143-4"
         offset="1"
         style="stop-color:#b2b9bc;stop-opacity:1" />
    </linearGradient>
    <linearGradient
       gradientTransform="translate(-2.95e-6,2.6e-5)"
       inkscape:collect="always"
       xlink:href="#linearGradient3832-0-6-1-1"
       id="linearGradient4129"
       x1="1.5"
       y1="88.171875"
       x2="94.5"
       y2="88.171875"
       gradientUnits="userSpaceOnUse" />
    <linearGradient
       id="linearGradient3832-0-6-1-1">
      <stop
         style="stop-color:#000000;stop-opacity:1;"
         offset="0"
         id="stop3834-6-3-7-1" />
      <stop
         id="stop3872-2-4"
         offset="0.1"
         style="stop-color:#000000;stop-opacity:0.58823532;" />
      <stop
         style="stop-color:#000000;stop-opacity:0.58823532;"
         offset="0.89999998"
         id="stop3844-6-2-7-6" />
      <stop
         style="stop-color:#000000;stop-opacity:1;"
         offset="1"
         id="stop3836-5-0-2-9" />
    </linearGradient>
    <radialGradient
       inkscape:collect="always"
       xlink:href="#linearGradient3737"
       id="radialGradient7462"
       gradientUnits="userSpaceOnUse"
       gradientTransform="matrix(0.97513378,0,0,0.04919072,33.899013,80.166722)"
       cx="13.948145"
       cy="44.892841"
       fx="13.948145"
       fy="44.892841"
       r="43.199203" />
    <linearGradient
       id="linearGradient3737">
      <stop
         offset="0"
         style="stop-color:#ffffff;stop-opacity:1"
         id="stop3739" />
      <stop
         offset="1"
         style="stop-color:#ffffff;stop-opacity:0"
         id="stop3741" />
    </linearGradient>
    <radialGradient
       inkscape:collect="always"
       xlink:href="#linearGradient3737"
       id="radialGradient7496"
       gradientUnits="userSpaceOnUse"
       gradientTransform="matrix(0.88832663,0,0,0.04919072,31.544518,-90.168304)"
       cx="13.948145"
       cy="44.892841"
       fx="13.948145"
       fy="44.892841"
       r="43.199203" />
    <linearGradient
       inkscape:collect="always"
       xlink:href="#linearGradient3737"
       id="linearGradient4767"
       gradientUnits="userSpaceOnUse"
       x1="2.7713892"
       y1="-28.96156"
       x2="50.527882"
       y2="14.514202" />
    <clipPath
       id="clipPath4156-4-1"
       clipPathUnits="userSpaceOnUse">
      <path
         inkscape:connector-curvature="0"
         id="path4158-0-8"
         d="m 27.046336,-55.695463 -14.21366,13.321486 h 0.06127 l 15.653407,21.770763 10.231384,-10.546177 C 38.561832,-32.30156 27.468089,-54.819245 27.046336,-55.695463 Z M 9.9668554,-39.382809 -5.2407289,-25.32124 15.987863,-7.8059573 26.372412,-18.382966 Z m 31.4906096,12.951445 -9.741259,9.713584 8.944804,12.4580526 7.780753,-7.5550056 z m -49.8397109,4.378822 -13.7541661,12.9822847 26.2830181,13.84571 0.06127,-0.0617 -0.122531,-0.0617 L 13.598503,-5.4007374 -8.7022409,-22.052595 Z m 38.0154159,7.400825 -9.802525,9.7752596 11.579232,9.5594001 7.62759,-7.40083 -8.669108,-11.0087257 z m 20.187073,5.6739697 -7.382526,7.2158 6.187844,8.54179 5.820249,-6.13651996 z m -32.195166,6.32154 -9.5574606,9.49772 13.6622686,7.1849703 7.933918,-7.6783603 z m 23.311629,2.37443004 -7.10683,6.93826996 8.362778,6.9074403 5.360756,-5.6739699 -0.06127,-0.0925 -0.0919,0.12335 -6.463539,-8.20258036 z m -8.730374,8.54178036 -7.505057,7.3391599 10.353916,5.45811 c 1.397496,-1.32103 5.67514,-6.12292 5.850882,-6.32154 z"
         style="opacity:0.6;fill:#ffffff;fill-opacity:1;stroke:none" />
    </clipPath>
    <linearGradient
       id="ButtonShadow-16"
       gradientTransform="scale(1.0058652,0.994169)"
       x1="45.447727"
       y1="92.539597"
       x2="45.447727"
       y2="7.0165396"
       gradientUnits="userSpaceOnUse">
      <stop
         style="stop-color:#000000;stop-opacity:1;"
         offset="0"
         id="stop3750-6" />
      <stop
         style="stop-color:#000000;stop-opacity:0.58823532;"
         offset="1"
         id="stop3752-4" />
    </linearGradient>
    <clipPath
       clipPathUnits="userSpaceOnUse"
       id="clipPath4355-7">
      <rect
         style="fill:#ffffff;fill-opacity:1;fill-rule:nonzero;stroke:none"
         id="rect4357-5"
         width="84"
         height="80"
         x="6"
         y="6"
         rx="6"
         ry="6" />
    </clipPath>
    <clipPath
       clipPathUnits="userSpaceOnUse"
       id="clipPath4355-9">
      <rect
         style="fill:#ffffff;fill-opacity:1;fill-rule:nonzero;stroke:none"
         id="rect4357-1"
         width="84"
         height="80"
         x="6"
         y="6"
         rx="6"
         ry="6" />
    </clipPath>
    <clipPath
       clipPathUnits="userSpaceOnUse"
       id="clipPath4355-1">
      <rect
         style="fill:#ffffff;fill-opacity:1;fill-rule:nonzero;stroke:none"
         id="rect4357-9"
         width="84"
         height="80"
         x="6"
         y="6"
         rx="6"
         ry="6" />
    </clipPath>
    <clipPath
       clipPathUnits="userSpaceOnUse"
       id="clipPath3943-52-0">
      <path
         id="path3945-4-1"
         d="m 69.78125,20.84375 -5,3.4375 c 5.586891,5.537137 9,13.327613 9,21.8125 0,8.434478 -3.37723,16.095981 -8.90625,21.625 l 5,3.4375 C 76.078226,96.5762 80,55.843726 80,46.09375 c 2e-6,-9.796556 -3.962955,-18.660417 -10.21875,-25.25 z M 40,24.0625 28.90625,36.21875 H 21.5 c -0.823281,0 -1.5,0.676717 -1.5,1.5 v 1 14.84375 1 c 0,0.823281 0.684121,1.610161 1.5,1.5 h 7.40625 L 40,68 V 66 26.0625 Z m 20.59375,3.28125 -5,3.4375 L 55.5,30.875 c 3.93815,3.890071 6.40625,9.25018 6.40625,15.21875 0,5.920869 -2.42961,11.148358 -6.3125,15.03125 l 0.09375,0.09375 5.09375,3.4375 c 4.475428,-4.908367 7.25,-11.402005 7.25,-18.5625 0,-7.230696 -2.87904,-13.83107 -7.4375,-18.75 z m -9.25,6.5 -5.21875,3.625 c 2.222384,2.217802 3.71875,5.239596 3.71875,8.625 0,3.336509 -1.458847,6.227712 -3.625,8.4375 l 5.21875,3.625 c 2.822412,-3.236947 4.53125,-7.43414 4.53125,-12.0625 0,-4.672601 -1.754155,-9.001351 -4.625,-12.25 z"
         style="color:#000000;display:inline;overflow:visible;visibility:visible;opacity:0.8;fill:#ff00ff;fill-opacity:1;fill-rule:nonzero;stroke:none;stroke-width:1;marker:none;enable-background:accumulate"
         inkscape:connector-curvature="0" />
    </clipPath>
  </defs>
  <metadata
     id="metadata13099">
    <rdf:RDF>
      <cc:Work
         rdf:about="">
        <dc:format>image/svg+xml</dc:format>
        <dc:type
           rdf:resource="http://purl.org/dc/dcmitype/StillImage" />
        <dc:title />
      </cc:Work>
    </rdf:RDF>
  </metadata>
  <path
     style="display:inline;opacity:0.15;fill:#000000;fill-opacity:1;fill-rule:nonzero;stroke:none"
     d="M 89.142854,2.6e-5 H 6.8571346 C 3.0582867,2.6e-5 -5.5e-7,3.058311 -5.5e-7,6.8571659 V 89.142884 c 0,3.798857 3.05828725,6.857142 6.85713515,6.857142 H 89.142854 c 3.798857,0 6.857147,-3.058285 6.857147,-6.857142 V 6.8571659 C 96.000001,3.058311 92.941711,2.6e-5 89.142854,2.6e-5 Z"
     id="path3288"
     inkscape:connector-curvature="0" />
  <path
     inkscape:connector-curvature="0"
     id="path4085"
     d="M 88.819998,0.750026 H 7.8199906 c -3.7394919,0 -6.7499929,3.010499 -6.7499929,6.7499969 V 88.500026 c 0,3.739501 3.010501,6.75 6.7499929,6.75 H 88.819998 c 3.739503,0 6.750003,-3.010499 6.750003,-6.75 V 7.5000229 c 0,-3.7394979 -3.0105,-6.7499969 -6.750003,-6.7499969 z"
     style="display:inline;opacity:0.15;fill:#000000;fill-opacity:1;fill-rule:nonzero;stroke:none" />
  <path
     style="display:inline;fill:url(#linearGradient4071);fill-opacity:1;fill-rule:nonzero;stroke:none"
     d="M 87.857137,1.500026 H 8.1428547 c -3.6801431,0 -6.9628567,2.962713 -6.9628567,6.9628549 V 87.857171 c 0,3.680142 2.9627136,6.962856 6.9628567,6.962856 H 87.857137 c 3.680143,0 6.962854,-2.962714 6.962854,-6.962856 V 8.1428809 c 0,-3.6801419 -2.962711,-6.9628549 -6.962854,-6.9628549 z"
     id="rect4251-1"
     inkscape:connector-curvature="0" />
  <path
     style="display:inline;opacity:0.98000004;fill:#d44a2b;fill-opacity:1;fill-rule:nonzero;stroke:none;stroke-width:1.02950251"
     d="m 11.241291,6.3871682 c -2.8597,0 -5.1241288,2.2883782 -5.1241288,5.1710028 v 21.42734 7.239403 39.913674 c 1.0972399,1.684484 2.9688485,2.811732 5.1241288,2.811732 h 4.099303 65.588849 4.099302 c 2.155281,0 4.026889,0.994072 5.124129,-0.690412 V 40.224914 32.985511 11.558171 c 0,-2.8826246 -2.267632,-5.1710028 -5.124129,-5.1710028 z"
     id="path3400-6"
     inkscape:connector-curvature="0"
     sodipodi:nodetypes="sscccsccscccsss" />
  <path
     inkscape:connector-curvature="0"
     id="path4989"
     d="m 9.8250777,4.7294869 c -3.116621,0 -5.667965,2.53951 -5.667965,5.9660041 v 69.277996 c 0,3.109695 2.551344,5.966004 5.667965,5.966004 H 86.616863 c 3.116621,0 5.667968,-2.539509 5.667968,-5.966004 V 10.375491 c 0,-3.1096931 -2.551347,-5.9660041 -5.667968,-5.9660041 z m 0,2.319439 H 86.616863 c 1.888099,0 3.352022,1.480095 3.352022,3.3265651 v 69.277996 c 0,1.849674 -1.463923,3.326596 -3.352022,3.326596 H 9.8250777 c -1.888099,0 -3.352022,-1.48009 -3.352022,-3.326596 V 10.375491 c 0,-1.8496701 1.463923,-3.3265651 3.352022,-3.3265651 z"
     style="color:#000000;font-style:normal;font-variant:normal;font-weight:normal;font-stretch:normal;font-size:medium;line-height:normal;font-family:Sans;-inkscape-font-specification:Sans;text-indent:0;text-align:start;text-decoration:none;text-decoration-line:none;letter-spacing:normal;word-spacing:normal;text-transform:none;writing-mode:lr-tb;direction:ltr;baseline-shift:baseline;text-anchor:start;display:inline;overflow:visible;visibility:visible;fill:#474747;fill-opacity:1;stroke:none;stroke-width:2.3755002;marker:none;enable-background:accumulate" />
  <path
     inkscape:connector-curvature="0"
     style="display:inline;opacity:0.65818182;fill:url(#linearGradient4129);fill-opacity:1;fill-rule:nonzero;stroke:none"
     d="m 1.819997,81.843776 v 6 c 0,3.680142 2.9761066,6.65625 6.6562497,6.65625 H 87.843747 c 3.680143,0 6.656254,-2.976108 6.656254,-6.65625 v -6 c 0,3.680142 -2.976111,6.65625 -6.656254,6.65625 H 8.1562467 c -3.6801431,0 -6.6562496,-2.976108 -6.6562496,-6.65625 z"
     id="path4118" />
  <rect
     style="opacity:0.55;fill:url(#radialGradient7462);fill-opacity:1;stroke:none"
     id="rect4131"
     width="84.250008"
     height="4.25"
     x="5.3749976"
     y="80.250031"
     rx="0"
     ry="4.25" />
  <rect
     ry="4.25"
     rx="0"
     y="-90.085007"
     x="5.5600224"
     height="4.25"
     width="76.75"
     id="rect4141"
     style="opacity:0.669;fill:url(#radialGradient7496);fill-opacity:1;stroke:none"
     transform="rotate(90)" />
  <g
     transform="translate(127.36892,-79.887648)"
     id="g994">
    <path
       inkscape:connector-curvature="0"
       id="path987"
       d="m -65.705229,94.913966 c 0,3.514412 0,7.028824 0,10.543234 -8.381234,0.0424 -16.76871,-0.0858 -25.145952,0.066 -7.062642,0.99974 -11.790879,7.69448 -13.533299,14.16461 -1.22673,4.30463 -0.75746,8.80332 -0.85138,13.21573 2.48372,-4.0537 4.34011,-8.91966 8.899152,-11.11798 5.821084,-3.29296 12.629629,-2.21685 19.013466,-2.40643 3.872671,0 7.745342,0 11.618013,0 0,3.51495 0,7.02991 0,10.54487 7.293818,-5.83527 14.587635,-11.67055 21.881453,-17.50582 -7.293818,-5.83472 -14.587635,-11.66945 -21.881453,-17.50418 z m 3.609984,7.509934 c 4.164405,3.33142 8.32881,6.66283 12.493215,9.99425 -4.164405,3.33196 -8.32881,6.66391 -12.493215,9.99587 0,-2.21443 0,-4.42885 0,-6.64328 -8.703991,0.0439 -17.41235,-0.0907 -26.113427,0.0728 -4.526886,0.3358 -9.040334,1.85058 -12.604298,4.71172 1.381082,-5.1483 4.946609,-10.68335 10.624521,-11.46763 9.363578,-0.0476 18.728937,-0.007 28.093204,-0.0205 0,-2.21442 0,-4.42885 0,-6.64328 z m 8.59326,20.44626 c -2.478061,4.0415 -4.322626,8.90838 -8.89144,11.07185 -6.089576,3.36296 -13.167354,2.25664 -19.818097,2.45255 -3.607029,0 -7.214058,0 -10.821088,0 0,-3.51441 0,-7.02882 0,-10.54323 -7.29368,5.83489 -14.58765,11.66944 -21.88145,17.50419 7.29382,5.83527 14.58763,11.67054 21.88145,17.50581 0,-3.51495 0,-7.02991 0,-10.54487 8.381235,-0.0424 16.768711,0.0858 25.145952,-0.066 7.062279,-0.9997 11.790449,-7.6939 13.533301,-14.16358 1.228127,-4.30538 0.756653,-8.80415 0.851372,-13.21677 z m -43.140607,10.4911 c 0,2.21443 0,4.42886 0,6.64329 8.549178,-0.0416 17.102466,0.0845 25.649001,-0.0653 4.675477,-0.32876 9.371614,-1.80373 13.073608,-4.74525 -1.375121,5.15829 -4.941995,10.70756 -10.629409,11.49369 -9.363579,0.0475 -18.728938,0.007 -28.093204,0.0204 0,2.21443 0,4.42885 0,6.64328 -4.164944,-3.33196 -8.329894,-6.66392 -12.494844,-9.99587 4.16495,-3.33142 8.3299,-6.66284 12.494848,-9.99426 z"
       style="color:#000000;font-style:normal;font-variant:normal;font-weight:normal;font-stretch:normal;font-size:medium;line-height:normal;font-family:sans-serif;font-variant-ligatures:normal;font-variant-position:normal;font-variant-caps:normal;font-variant-numeric:normal;font-variant-alternates:normal;font-feature-settings:normal;text-indent:0;text-align:start;text-decoration:none;text-decoration-line:none;text-decoration-style:solid;text-decoration-color:#000000;letter-spacing:normal;word-spacing:normal;text-transform:none;writing-mode:lr-tb;direction:ltr;text-orientation:mixed;dominant-baseline:auto;baseline-shift:baseline;text-anchor:start;white-space:normal;shape-padding:0;clip-rule:nonzero;display:inline;overflow:visible;visibility:visible;opacity:1;isolation:auto;mix-blend-mode:normal;color-interpolation:sRGB;color-interpolation-filters:linearRGB;solid-color:#000000;solid-opacity:1;vector-effect:none;fill:#000000;fill-opacity:0.11607145;fill-rule:nonzero;stroke:none;stroke-width:3.60936713;stroke-linecap:butt;stroke-linejoin:miter;stroke-miterlimit:4;stroke-dasharray:none;stroke-dashoffset:0;stroke-opacity:1;marker:none;color-rendering:auto;image-rendering:auto;shape-rendering:auto;text-rendering:auto;enable-background:accumulate" />
    <path
       sodipodi:nodetypes="ccscsccccccccscscc"
       inkscape:transform-center-y="-17.187464"
       inkscape:transform-center-x="-27.499943"
       inkscape:connector-curvature="0"
       id="path3061"
       d="m -63.90053,98.668589 v 8.593731 h -25.781196 c -6.874301,0 -13.749974,8.59373 -13.749974,18.90621 3.40794,-5.90286 10.312482,-8.59373 17.187467,-8.59373 h 22.343703 v 8.59373 l 17.187463,-13.74997 z m -30.937435,30.937431 -17.187465,13.74997 17.187465,13.74998 v -8.59374 h 25.781197 c 6.874298,0 13.74997,-8.59373 13.74997,-18.90621 -3.40793,5.90286 -10.31375,8.46155 -17.187464,8.59373 h -22.343703 z"
       style="color:#000000;display:inline;overflow:visible;visibility:visible;fill:#ffffff;fill-opacity:0.92748431;fill-rule:nonzero;stroke:none;stroke-width:3.60936713;marker:none;enable-background:accumulate" />
  </g>
  <rect
     transform="matrix(1.0692451,0,0,1.0476829,4.2952237,38.479013)"
     style="opacity:0.65;fill:url(#linearGradient4767);fill-opacity:1;stroke:none"
     id="rect4146"
     width="75.965775"
     height="69.024437"
     x="2"
     y="-30"
     rx="3.9569874"
     ry="3.9569881"
     clip-path="url(#clipPath4156-4-1)" />
  <g
     id="g3043"
     inkscape:export-filename="folder.png"
     inkscape:export-xdpi="90"
     inkscape:export-ydpi="90"
     transform="translate(-0.62500009,0.082283)" />
  <g
     id="scalable"
     transform="matrix(1.0385892,0,0,1.0385892,1214.7222,1878.8121)"
     inkscape:label="#g3701"
     style="fill:#ffffff" />
</svg>
