<?xml version="1.0" encoding="UTF-8" standalone="no"?>
<svg
   xmlns:dc="http://purl.org/dc/elements/1.1/"
   xmlns:cc="http://creativecommons.org/ns#"
   xmlns:rdf="http://www.w3.org/1999/02/22-rdf-syntax-ns#"
   xmlns:svg="http://www.w3.org/2000/svg"
   xmlns="http://www.w3.org/2000/svg"
   xmlns:xlink="http://www.w3.org/1999/xlink"
   xmlns:sodipodi="http://sodipodi.sourceforge.net/DTD/sodipodi-0.dtd"
   xmlns:inkscape="http://www.inkscape.org/namespaces/inkscape"
   width="48"
   height="48"
   version="1.1"
   id="svg4672"
   sodipodi:docname="sage-notebook.svg"
   inkscape:version="0.92.2 5c3e80d, 2017-08-06">
  <metadata
     id="metadata4676">
    <rdf:RDF>
      <cc:Work
         rdf:about="">
        <dc:format>image/svg+xml</dc:format>
        <dc:type
           rdf:resource="http://purl.org/dc/dcmitype/StillImage" />
      </cc:Work>
    </rdf:RDF>
  </metadata>
  <sodipodi:namedview
     pagecolor="#ffffff"
     bordercolor="#666666"
     borderopacity="1"
     objecttolerance="10"
     gridtolerance="10"
     guidetolerance="10"
     inkscape:pageopacity="0"
     inkscape:pageshadow="2"
     inkscape:window-width="1280"
     inkscape:window-height="941"
     id="namedview4674"
     showgrid="false"
     inkscape:zoom="4.9166667"
     inkscape:cx="23.212379"
     inkscape:cy="24"
     inkscape:window-x="0"
     inkscape:window-y="21"
     inkscape:window-maximized="1"
     inkscape:current-layer="svg4672" />
  <defs
     id="defs4662">
    <linearGradient
       gradientTransform="translate(-435.2155,-490.64546)"
       xlink:href="#linearGradient3765"
       id="linearGradient4236"
       x1="407.626"
       y1="543.768"
       x2="407.687"
       y2="504.133"
       gradientUnits="userSpaceOnUse" />
    <linearGradient
       id="linearGradient3765">
      <stop
         style="stop-color:#71368a;stop-opacity:1;"
         offset="0"
         id="stop4657" />
      <stop
         style="stop-color:#9c29cc;stop-opacity:1;"
         offset="1"
         id="stop4659" />
    </linearGradient>
    <linearGradient
       inkscape:collect="always"
       xlink:href="#linearGradient6139-0"
       id="linearGradient6481"
       gradientUnits="userSpaceOnUse"
       gradientTransform="matrix(0.55126485,0,0,0.55126475,-2.460715,-1.9094496)"
       x1="6"
       y1="47.000011"
       x2="90"
       y2="47.000011" />
    <linearGradient
       id="linearGradient6139-0">
      <stop
         id="stop6141-2"
         offset="0"
         style="stop-color:#b2babc;stop-opacity:1" />
      <stop
         style="stop-color:#ffffff;stop-opacity:1;"
         offset="0.25"
         id="stop6151-0" />
      <stop
         style="stop-color:#96a1a4;stop-opacity:1"
         offset="0.5"
         id="stop6147-1" />
      <stop
         id="stop6149-4"
         offset="0.75"
         style="stop-color:#fbf9f9;stop-opacity:1;" />
      <stop
         id="stop6143-4"
         offset="1"
         style="stop-color:#b2b9bc;stop-opacity:1" />
    </linearGradient>
    <linearGradient
       inkscape:collect="always"
       xlink:href="#linearGradient3832-0-6-1-1"
       id="linearGradient6483"
       gradientUnits="userSpaceOnUse"
       gradientTransform="matrix(0.49791667,0,0,0.49791666,0.09999873,0.09999967)"
       x1="1.5"
       y1="88.171875"
       x2="94.5"
       y2="88.171875" />
    <linearGradient
       id="linearGradient3832-0-6-1-1">
      <stop
         style="stop-color:#000000;stop-opacity:1;"
         offset="0"
         id="stop3834-6-3-7-1" />
      <stop
         id="stop3872-2-4"
         offset="0.1"
         style="stop-color:#000000;stop-opacity:0.58823532;" />
      <stop
         style="stop-color:#000000;stop-opacity:0.58823532;"
         offset="0.89999998"
         id="stop3844-6-2-7-6" />
      <stop
         style="stop-color:#000000;stop-opacity:1;"
         offset="1"
         id="stop3836-5-0-2-9" />
    </linearGradient>
    <radialGradient
       inkscape:collect="always"
       xlink:href="#linearGradient3737"
       id="radialGradient7462-1"
       gradientUnits="userSpaceOnUse"
       gradientTransform="matrix(0.48553536,0,0,0.02449288,16.978724,40.016334)"
       cx="13.948145"
       cy="44.892841"
       fx="13.948145"
       fy="44.892841"
       r="43.199203" />
    <linearGradient
       id="linearGradient3737">
      <stop
         offset="0"
         style="stop-color:#ffffff;stop-opacity:1"
         id="stop3739" />
      <stop
         offset="1"
         style="stop-color:#ffffff;stop-opacity:0"
         id="stop3741" />
    </linearGradient>
    <radialGradient
       inkscape:collect="always"
       xlink:href="#linearGradient3737"
       id="radialGradient7464-0"
       gradientUnits="userSpaceOnUse"
       gradientTransform="matrix(0.44231264,0,0,0.02449288,15.806528,-44.996301)"
       cx="13.948145"
       cy="44.892841"
       fx="13.948145"
       fy="44.892841"
       r="43.199203" />
    <linearGradient
       inkscape:collect="always"
       xlink:href="#linearGradient3737"
       id="linearGradient6485"
       gradientUnits="userSpaceOnUse"
       x1="2.7713892"
       y1="-28.64156"
       x2="50.527882"
       y2="14.514202" />
    <clipPath
       id="clipPath4156-4-1-9"
       clipPathUnits="userSpaceOnUse">
      <path
         inkscape:connector-curvature="0"
         id="path4158-0-8-3"
         d="m 27.046336,-55.695463 -14.21366,13.321486 h 0.06127 l 15.653407,21.770763 10.231384,-10.546177 C 38.561832,-32.30156 27.468089,-54.819245 27.046336,-55.695463 Z M 9.6468554,-39.382809 -5.2407289,-25.32124 15.987863,-7.8059573 26.372412,-18.382966 Z m 31.4906096,12.951445 -9.741259,9.713584 8.944804,12.4580526 7.780753,-7.5550056 z m -49.8397109,4.378822 -13.7541661,12.9822847 26.2830181,13.84571 0.06127,-0.0617 -0.122531,-0.0617 L 13.598503,-5.4007374 -8.7022409,-22.052595 Z m 38.0154159,7.400825 -9.802525,9.7752596 11.579232,9.5594001 7.62759,-7.40083 -8.669108,-11.0087257 z m 20.187073,5.6739697 -7.382526,7.2158 6.187844,8.54179 5.820249,-6.13651996 z m -32.195166,6.32154 -9.5574606,9.49772 13.6622686,7.1849703 7.933918,-7.6783603 z m 23.311629,2.37443004 -7.10683,6.93826996 8.362778,6.9074403 5.360756,-5.6739699 -0.06127,-0.0925 -0.0919,0.12335 -6.463539,-8.20258036 z m -8.730374,8.54178036 -7.505057,7.3391599 10.353916,5.45811 c 1.397496,-1.32103 5.67514,-6.12292 5.850882,-6.32154 z"
         style="opacity:0.6;fill:#ffffff;fill-opacity:1;stroke:none" />
    </clipPath>
  </defs>
  <path
     style="display:inline;opacity:0.15;fill:#000000;fill-opacity:1;fill-rule:nonzero;stroke:none;stroke-width:0.49791667"
     d="M 44.485713,0.09999967 H 3.5142818 c -1.8915097,0 -3.41428187,1.52277053 -3.41428187,3.41428433 v 40.97143 C 0.09999993,46.377228 1.6227721,47.9 3.5142818,47.9 H 44.485713 C 46.377226,47.9 47.9,46.377228 47.9,44.485714 V 3.514284 c 0,-1.8915138 -1.522774,-3.41428433 -3.414287,-3.41428433 z"
     id="path3288-7"
     inkscape:connector-curvature="0" />
  <path
     inkscape:connector-curvature="0"
     id="path4085-5"
     d="M 44.165624,0.47343717 H 3.8343706 c -1.8619555,0 -3.36093407,1.49897713 -3.36093407,3.36093553 V 44.165625 c 0,1.861959 1.49897857,3.360937 3.36093407,3.360937 H 44.165624 c 1.86196,0 3.360939,-1.498978 3.360939,-3.360937 V 3.8343727 c 0,-1.8619584 -1.498979,-3.36093553 -3.360939,-3.36093553 z"
     style="display:inline;opacity:0.15;fill:#000000;fill-opacity:1;fill-rule:nonzero;stroke:none;stroke-width:0.49791667" />
  <path
     style="display:inline;fill:url(#linearGradient6481);fill-opacity:1;fill-rule:nonzero;stroke:none;stroke-width:0.49791667"
     d="M 43.845532,0.84687467 H 4.1544633 c -1.8324046,0 -3.30758907,1.47518463 -3.30758907,3.30758773 V 43.845536 c 0,1.832405 1.47518447,3.307589 3.30758907,3.307589 H 43.845532 c 1.832405,0 3.307588,-1.475185 3.307588,-3.307589 V 4.1544624 c 0,-1.8324031 -1.475183,-3.30758773 -3.307588,-3.30758773 z"
     id="rect4251-1-9"
     inkscape:connector-curvature="0" />
  <path
     style="display:inline;opacity:0.98000004;fill:#962bc2;fill-opacity:1;fill-rule:nonzero;stroke:none;stroke-width:0.51566219"
     d="m 5.6972261,3.2802641 c -1.4222972,0 -2.551389,1.1530465 -2.551389,2.6055173 v 10.7966076 3.647723 20.111331 c 0.5463341,0.848762 1.4782393,1.416749 2.551389,1.416749 H 7.7383374 40.396118 43.2187 c 1.073151,0 1.223584,0.01811 1.769919,-0.830645 V 20.330112 16.682389 5.8857814 c 0,-1.4524708 -1.129092,-2.6055173 -2.55139,-2.6055173 z"
     id="path3400-6-2"
     inkscape:connector-curvature="0"
     sodipodi:nodetypes="sscccsccscccsss" />
  <path
     inkscape:connector-curvature="0"
     id="path4989-2"
     d="m 4.9920701,2.4548766 c -1.5518175,0 -2.8221742,1.2644644 -2.8221742,2.8112405 V 39.760786 c 0,1.546775 1.2703567,2.811239 2.8221742,2.811239 H 43.227979 c 1.551818,0 2.822176,-1.264464 2.822176,-2.811239 V 5.2661171 c 0,-1.5467751 -1.270358,-2.8112405 -2.822176,-2.8112405 z m 0,1.1548879 H 43.227979 c 0.940117,0 1.669028,0.7369634 1.669028,1.6563526 V 39.760786 c 0,0.91939 -0.728911,1.65635 -1.669028,1.65635 H 4.9920701 c -0.9401159,0 -1.6690276,-0.73696 -1.6690276,-1.65635 V 5.2661171 c 0,-0.9193892 0.7289117,-1.6563526 1.6690276,-1.6563526 z"
     style="color:#000000;font-style:normal;font-variant:normal;font-weight:normal;font-stretch:normal;font-size:medium;line-height:normal;font-family:Sans;-inkscape-font-specification:Sans;text-indent:0;text-align:start;text-decoration:none;text-decoration-line:none;letter-spacing:normal;word-spacing:normal;text-transform:none;writing-mode:lr-tb;direction:ltr;baseline-shift:baseline;text-anchor:start;display:inline;overflow:visible;visibility:visible;fill:#1f2224;fill-opacity:0.80869565;stroke:none;stroke-width:1.18280113;marker:none;enable-background:accumulate" />
  <path
     inkscape:connector-curvature="0"
     style="display:inline;opacity:0.65818182;fill:url(#linearGradient6483);fill-opacity:1;fill-rule:nonzero;stroke:none;stroke-width:0.49791667"
     d="m 0.84687373,40.851367 v 2.9875 c 0,1.832404 1.48185307,3.314258 3.31425767,3.314258 H 43.838865 c 1.832405,0 3.31426,-1.481854 3.31426,-3.314258 v -2.9875 c 0,1.832404 -1.481855,3.314258 -3.31426,3.314258 H 4.1611314 c -1.8324046,0 -3.31425767,-1.481854 -3.31425767,-3.314258 z"
     id="path4118-8" />
  <rect
     style="opacity:0.55;fill:url(#radialGradient7462-1);fill-opacity:1;stroke:none;stroke-width:0.49791667"
     id="rect4131-9"
     width="41.949482"
     height="2.1161458"
     x="2.7763009"
     y="40.057812"
     rx="2.1161458"
     ry="2.1161458" />
  <rect
     ry="2.1161458"
     rx="2.1161458"
     y="-44.954826"
     x="2.8684161"
     height="2.1161458"
     width="38.215103"
     id="rect4141-7"
     style="opacity:0.669;fill:url(#radialGradient7464-0);fill-opacity:1;stroke:none;stroke-width:0.49791667"
     transform="rotate(90)" />
  <rect
     transform="matrix(0.53239495,0,0,0.52165878,2.2386637,19.259328)"
     style="opacity:0.7;fill:url(#linearGradient6485);fill-opacity:1;stroke:none"
     id="rect4146-3"
     width="75.965775"
     height="69.024437"
     x="2"
     y="-30"
     rx="3.9569874"
     ry="3.9569881"
     clip-path="url(#clipPath4156-4-1-9)" />
  <path
     inkscape:connector-curvature="0"
     id="path4668"
     d="m 19.687775,6.6917557 c -0.622443,0 -1.125544,0.500332 -1.125544,1.118112 0,0.243028 0.09247,0.46577 0.225109,0.649229 l -2.81387,3.2100683 c -0.112451,-0.02963 -0.215805,-0.07213 -0.337652,-0.07213 -0.756948,0 -1.388178,0.619296 -1.388178,1.370581 0,0.02849 0.03584,0.04422 0.03756,0.07213 l -2.476184,1.623062 c -0.182529,-0.126326 -0.398437,-0.216402 -0.637812,-0.216402 -0.622432,0 -1.125544,0.500321 -1.125544,1.118112 0,0.376613 0.200321,0.698976 0.487732,0.901698 l -0.450218,8.367801 c -0.2742811,0.148805 -0.450217,0.461382 -0.450217,0.793497 0,0.484286 0.412519,0.865643 0.900435,0.865643 0.02584,0 0.04985,0.0023 0.07501,0 l 6.152975,6.239778 c -5.51e-4,0.01263 0,0.02332 0,0.03607 0,0.484286 0.374994,0.901698 0.862909,0.901698 0.173087,0 0.351447,-0.05893 0.487732,-0.144279 l 3.376642,1.767341 c -0.0069,0.05031 -0.03756,0.09212 -0.03756,0.144279 0,0.617792 0.503112,1.118112 1.125544,1.118112 0.582746,0 1.029288,-0.446898 1.088017,-1.009922 l 9.004349,-2.632961 c 0.204514,0.282896 0.560383,0.468882 0.93795,0.468882 0.62242,0 1.125543,-0.500309 1.125543,-1.118112 0,-0.261187 -0.111417,-0.494922 -0.262611,-0.685296 l 3.901877,-8.548135 c 0.622408,0 1.125543,-0.500321 1.125543,-1.118112 0,-0.542062 -0.384734,-0.979404 -0.900435,-1.082045 l -1.238109,-4.0757 c 0.194233,-0.160842 0.337674,-0.378508 0.337674,-0.649229 0,-0.484263 -0.412542,-0.865631 -0.900435,-0.865631 -0.04158,0 -0.07248,0.03055 -0.112565,0.03607 L 31.018205,8.4230247 c 0.008,-0.04675 0.03745,-0.09545 0.03745,-0.144268 0,-0.484286 -0.412531,-0.865643 -0.900435,-0.865643 -0.290558,0 -0.514311,0.145796 -0.675326,0.360682 l -8.741715,-0.324604 c -0.153686,-0.43633 -0.558464,-0.75743 -1.050503,-0.75743 z m 1.050504,1.514861 8.591645,0.324603 c 0.05651,0.195876 0.173501,0.355019 0.337663,0.468894 l -0.225108,0.973844 c -0.402056,0.09327 -0.72126,0.3626573 -0.900435,0.7213633 l -9.604635,1.154168 0.637812,-2.9575763 c 0.04227,0.0046 0.06892,0.03607 0.112566,0.03607 0.479427,0 0.88765,-0.302503 1.050503,-0.721375 z m 9.792229,0.865631 5.515152,6.6726053 c -0.05778,0.116586 -0.112566,0.221927 -0.112566,0.36067 0,0.242155 0.102688,0.454479 0.262635,0.613174 l -0.450218,1.26238 -4.802311,-6.059443 c 0.105444,-0.192763 0.187594,-0.414449 0.187594,-0.649229 0,-0.588065 -0.374075,-1.072488 -0.900435,-1.26238 l 0.187583,-0.9016983 c 0.03871,-0.01252 0.0765,-0.01849 0.112566,-0.03607 z m -11.405516,0.180347 -0.600286,2.6329723 -1.838384,0.216414 c -0.01034,-0.01332 -0.02607,-0.0232 -0.03745,-0.03607 l 2.476184,-2.8133193 z m 9.454578,2.9936543 -2.776345,10.748293 c -0.08695,0.01964 -0.181266,0.03986 -0.262623,0.07213 l -7.128451,-8.043182 3.339117,-0.36067 c 0.149931,0.272225 0.453261,0.468882 0.78788,0.468882 0.487904,0 0.862921,-0.417424 0.862921,-0.90171 0,-0.06685 -0.0232,-0.117665 -0.03756,-0.180346 l 4.802323,-1.767318 0.412692,-0.03607 z m -2.063505,0.216402 -3.339116,1.226325 c -0.162038,-0.192798 -0.36507,-0.324615 -0.637801,-0.324615 -0.487915,0 -0.900435,0.381357 -0.900435,0.86562 0,0.01195 -4.48e-4,0.02447 0,0.03607 l -3.30159,0.39676 0.262623,-1.298458 7.916319,-0.90171 z m 3.564226,0.180335 5.215014,6.636538 -1.088029,3.029721 -6.528141,1.514872 c -0.09637,-0.176154 -0.224765,-0.3014 -0.375189,-0.432827 z m -11.930763,0.793498 -0.225108,1.045989 -0.825407,-0.937777 1.050515,-0.108201 z m -3.564225,0.360693 c 0.06662,0.08017 0.141948,0.153239 0.22512,0.216413 l -0.187594,1.045967 -2.363642,0.288547 c -0.0023,-0.01195 0.0023,-0.02435 0,-0.03607 z m 0.975475,0.504949 c 0.0255,0.0011 0.04916,0 0.07501,0 0.02584,0 0.04962,0.0011 0.07501,0 l 0.525257,0.577084 -0.787892,0.108201 0.112566,-0.685296 z m 1.012989,0.937777 0.975475,1.082034 -0.450229,1.983743 c -0.469365,0.02079 -0.825395,0.394658 -0.825395,0.865643 0,0.273225 0.140306,0.488409 0.337664,0.649229 l -2.963928,4.472448 1.72583,-8.908829 z m -2.025978,0.216414 -1.875899,9.702314 c -0.332609,0.06616 -0.593693,0.289812 -0.750377,0.577084 l -0.525235,-0.108201 c 0,-0.363208 -0.208178,-0.696449 -0.525257,-0.829564 l 0.450206,-8.151399 c 0.498437,-0.068 0.869421,-0.443038 0.93796,-0.937765 l 2.288602,-0.252481 z m 3.301602,1.26238 6.678222,7.466091 c -0.01286,0.04663 -0.02872,0.09614 -0.03756,0.144268 l -10.805219,1.15419 c -0.06972,-0.06926 -0.138996,-0.13107 -0.225109,-0.180346 l 3.451671,-5.302013 c 0.07397,0.01999 0.14475,0.03607 0.225109,0.03607 0.487904,0 0.900434,-0.381345 0.900434,-0.865631 0,-0.346255 -0.231655,-0.650987 -0.525257,-0.793509 l 0.337663,-1.65912 z m 18.684012,0.216402 c 0.02343,0.0069 0.05088,-0.0057 0.07501,0 l 1.013001,3.462537 -1.575773,-2.055889 0.487732,-1.406648 z m -0.975475,2.705107 1.575762,1.983743 -2.476196,0.577095 z m 1.688316,3.101855 -3.564225,7.75465 0.075,-4.83313 c 0.376671,-0.0765 0.675326,-0.397001 0.675326,-0.793497 0,-0.321479 -0.216471,-0.58679 -0.487731,-0.721352 l 0.262623,-0.685308 3.038967,-0.721363 z m -3.451671,0.829576 -0.187583,0.468883 c -0.456546,0 -0.825406,0.37644 -0.825406,0.829564 0,0.378497 0.249172,0.698804 0.600286,0.793497 l -0.112566,5.518426 c -0.275281,0.0842 -0.497162,0.297461 -0.6378,0.541028 l -4.914867,-1.082056 c 0,-0.484263 -0.412542,-0.865632 -0.900446,-0.865632 -0.474993,0 -0.880253,0.363048 -0.900435,0.829576 l -1.200584,0.288536 1.500721,-4.544582 c 0.820962,-0.01815 1.508245,-0.628266 1.650802,-1.406659 l 5.927855,-1.370581 z m -9.116892,1.875531 c 0.103032,0.188203 0.248575,0.368354 0.412692,0.504961 l -1.72583,5.265945 -3.601739,0.901698 -5.815313,-5.44628 c 0.008,-0.02194 0.03032,-0.04951 0.03756,-0.07213 l 10.692665,-1.154183 z m -13.01878,0.937776 0.150069,0.03607 c 0.0069,0.04445 -0.01218,0.101768 0,0.144268 l -0.150069,-0.180349 z m 0.900424,0.90171 c 0.106707,0.0332 0.219905,0.07213 0.337674,0.07213 0.02516,0 0.0502,0.0011 0.07501,0 l 4.914866,4.580649 c -0.0773,-0.02194 -0.178175,-0.03607 -0.262623,-0.03607 -0.173087,0 -0.313921,0.05893 -0.450206,0.14428 l -4.61474,-4.760989 z m 13.431483,3.678939 c 0.126384,0.330887 0.447748,0.541029 0.825406,0.541029 0.365931,0 0.691281,-0.190237 0.825395,-0.504962 l 4.277066,0.937777 -8.329023,2.416559 1.012989,-3.065788 z M 23.252,31.65089 22.351554,34.355996 c -0.04962,0.0092 -0.103032,0.01976 -0.150069,0.03607 L 20.062953,32.40832 Z m -4.502186,1.082045 0.562772,0.541028 -0.78788,-0.432827 c 0.0012,-0.02286 0,-0.04882 0,-0.07213 z"
     style="opacity:0.98999999;fill:#ecf0f1;fill-opacity:1;stroke:none;stroke-width:1" />
</svg>
