<?xml version="1.0" encoding="UTF-8" standalone="no"?>
<!-- Created with Inkscape (http://www.inkscape.org/) -->

<svg
   xmlns:dc="http://purl.org/dc/elements/1.1/"
   xmlns:cc="http://creativecommons.org/ns#"
   xmlns:rdf="http://www.w3.org/1999/02/22-rdf-syntax-ns#"
   xmlns:svg="http://www.w3.org/2000/svg"
   xmlns="http://www.w3.org/2000/svg"
   xmlns:xlink="http://www.w3.org/1999/xlink"
   xmlns:sodipodi="http://sodipodi.sourceforge.net/DTD/sodipodi-0.dtd"
   xmlns:inkscape="http://www.inkscape.org/namespaces/inkscape"
   width="96"
   height="96"
   viewBox="0 0 96.000001 96.000004"
   version="1.1"
   id="svg1072"
   inkscape:version="0.92.1 r15371"
   sodipodi:docname="showq.svg">
  <defs
     id="defs1066">
    <linearGradient
       y2="47.000011"
       x2="90"
       y1="47.000011"
       x1="6"
       gradientTransform="matrix(1.1071428,0,0,1.1071426,-4.9939026,-3.620687)"
       gradientUnits="userSpaceOnUse"
       id="linearGradient4071"
       xlink:href="#linearGradient6139-0"
       inkscape:collect="always" />
    <linearGradient
       id="linearGradient6139-0">
      <stop
         style="stop-color:#b4b9ba;stop-opacity:1"
         offset="0"
         id="stop6141-2" />
      <stop
         id="stop6151-0"
         offset="0.25"
         style="stop-color:#ffffff;stop-opacity:1;" />
      <stop
         id="stop6147-1"
         offset="0.5"
         style="stop-color:#98a0a2;stop-opacity:1" />
      <stop
         style="stop-color:#fbf9f9;stop-opacity:1;"
         offset="0.75"
         id="stop6149-4" />
      <stop
         style="stop-color:#b4b8ba;stop-opacity:1"
         offset="1"
         id="stop6143-4" />
    </linearGradient>
    <linearGradient
       gradientUnits="userSpaceOnUse"
       y2="88.171875"
       x2="94.5"
       y1="88.171875"
       x1="1.5"
       id="linearGradient4129"
       xlink:href="#linearGradient3832-0-6-1-1"
       inkscape:collect="always"
       gradientTransform="translate(0.1489535,0.415026)" />
    <linearGradient
       id="linearGradient3832-0-6-1-1">
      <stop
         id="stop3834-6-3-7-1"
         offset="0"
         style="stop-color:#000000;stop-opacity:1;" />
      <stop
         style="stop-color:#000000;stop-opacity:0.58823532;"
         offset="0.1"
         id="stop3872-2-4" />
      <stop
         id="stop3844-6-2-7-6"
         offset="0.89999998"
         style="stop-color:#000000;stop-opacity:0.58823532;" />
      <stop
         id="stop3836-5-0-2-9"
         offset="1"
         style="stop-color:#000000;stop-opacity:1;" />
    </linearGradient>
    <radialGradient
       r="43.199203"
       fy="44.892841"
       fx="13.948145"
       cy="44.892841"
       cx="13.948145"
       gradientTransform="matrix(0.97513378,0,0,0.04919072,34.047649,80.581722)"
       gradientUnits="userSpaceOnUse"
       id="radialGradient7462"
       xlink:href="#linearGradient3737"
       inkscape:collect="always" />
    <linearGradient
       id="linearGradient3737">
      <stop
         id="stop3739"
         style="stop-color:#ffffff;stop-opacity:1"
         offset="0" />
      <stop
         id="stop3741"
         style="stop-color:#ffffff;stop-opacity:0"
         offset="1" />
    </linearGradient>
    <radialGradient
       r="43.199203"
       fy="44.892841"
       fx="13.948145"
       cy="44.892841"
       cx="13.948145"
       gradientTransform="matrix(0.82094676,0,0,0.04919072,35.810098,-90.31726)"
       gradientUnits="userSpaceOnUse"
       id="radialGradient7464"
       xlink:href="#linearGradient3737"
       inkscape:collect="always" />
    <linearGradient
       y2="14.514202"
       x2="50.527882"
       y1="-28.64156"
       x1="2.7713892"
       gradientUnits="userSpaceOnUse"
       id="linearGradient4767"
       xlink:href="#linearGradient3737"
       inkscape:collect="always" />
    <clipPath
       clipPathUnits="userSpaceOnUse"
       id="clipPath4156-4-1">
      <path
         style="opacity:0.6;fill:#ffffff;fill-opacity:1;stroke:none"
         d="m 27.046336,-55.695463 -14.21366,13.321486 h 0.06127 l 15.653407,21.770763 10.231384,-10.546177 C 38.561832,-32.30156 27.468089,-54.819245 27.046336,-55.695463 Z M 9.6468554,-39.382809 -5.2407289,-25.32124 15.987863,-7.8059573 26.372412,-18.382966 Z m 31.4906096,12.951445 -9.741259,9.713584 8.944804,12.4580526 7.780753,-7.5550056 z m -49.8397109,4.378822 -13.7541661,12.9822847 26.2830181,13.84571 0.06127,-0.0617 -0.122531,-0.0617 L 13.598503,-5.4007374 -8.7022409,-22.052595 Z m 38.0154159,7.400825 -9.802525,9.7752596 11.579232,9.5594001 7.62759,-7.40083 -8.669108,-11.0087257 z m 20.187073,5.6739697 -7.382526,7.2158 6.187844,8.54179 5.820249,-6.13651996 z m -32.195166,6.32154 -9.5574606,9.49772 13.6622686,7.1849703 7.933918,-7.6783603 z m 23.311629,2.37443004 -7.10683,6.93826996 8.362778,6.9074403 5.360756,-5.6739699 -0.06127,-0.0925 -0.0919,0.12335 -6.463539,-8.20258036 z m -8.730374,8.54178036 -7.505057,7.3391599 10.353916,5.45811 c 1.397496,-1.32103 5.67514,-6.12292 5.850882,-6.32154 z"
         id="path4158-0-8"
         inkscape:connector-curvature="0" />
    </clipPath>
    <clipPath
       id="clipPath4014-2">
      <path
         d="m 16.5,143.11764 c 0,68.61326 14.326888,124.2353 32,124.2353 17.673112,0 32,-55.62204 32,-124.2353 0,-68.613253 -14.326888,-124.235289 -32,-124.235289 -17.673112,0 -32,55.622036 -32,124.235289 z m 8,0 c 0,-51.459939 10.745166,-93.176465 24,-93.176465 13.254834,0 24,41.716526 24,93.176465 0,51.45995 -10.745166,93.17647 -24,93.17647 -13.254834,0 -24,-41.71652 -24,-93.17647 z"
         inkscape:connector-curvature="0"
         id="path4016-9"
         style="color:#000000;display:inline;overflow:visible;visibility:visible;fill:url(#linearGradient4018);fill-opacity:1;fill-rule:nonzero;stroke:none;stroke-width:2;marker:none;enable-background:accumulate" />
    </clipPath>
    <clipPath
       id="clipPath927">
      <path
         d="m 16.5,143.11764 c 0,68.61326 14.326888,124.2353 32,124.2353 17.673112,0 32,-55.62204 32,-124.2353 0,-68.613253 -14.326888,-124.235289 -32,-124.235289 -17.673112,0 -32,55.622036 -32,124.235289 z m 8,0 c 0,-51.459939 10.745166,-93.176465 24,-93.176465 13.254834,0 24,41.716526 24,93.176465 0,51.45995 -10.745166,93.17647 -24,93.17647 -13.254834,0 -24,-41.71652 -24,-93.17647 z"
         inkscape:connector-curvature="0"
         id="path925"
         style="color:#000000;display:inline;overflow:visible;visibility:visible;fill:url(#linearGradient4018);fill-opacity:1;fill-rule:nonzero;stroke:none;stroke-width:2;marker:none;enable-background:accumulate" />
    </clipPath>
    <clipPath
       id="clipPath931">
      <path
         d="m 16.5,143.11764 c 0,68.61326 14.326888,124.2353 32,124.2353 17.673112,0 32,-55.62204 32,-124.2353 0,-68.613253 -14.326888,-124.235289 -32,-124.235289 -17.673112,0 -32,55.622036 -32,124.235289 z m 8,0 c 0,-51.459939 10.745166,-93.176465 24,-93.176465 13.254834,0 24,41.716526 24,93.176465 0,51.45995 -10.745166,93.17647 -24,93.17647 -13.254834,0 -24,-41.71652 -24,-93.17647 z"
         inkscape:connector-curvature="0"
         id="path929"
         style="color:#000000;display:inline;overflow:visible;visibility:visible;fill:url(#linearGradient4018);fill-opacity:1;fill-rule:nonzero;stroke:none;stroke-width:2;marker:none;enable-background:accumulate" />
    </clipPath>
    <clipPath
       id="clipPath935">
      <path
         d="m 16.5,143.11764 c 0,68.61326 14.326888,124.2353 32,124.2353 17.673112,0 32,-55.62204 32,-124.2353 0,-68.613253 -14.326888,-124.235289 -32,-124.235289 -17.673112,0 -32,55.622036 -32,124.235289 z m 8,0 c 0,-51.459939 10.745166,-93.176465 24,-93.176465 13.254834,0 24,41.716526 24,93.176465 0,51.45995 -10.745166,93.17647 -24,93.17647 -13.254834,0 -24,-41.71652 -24,-93.17647 z"
         inkscape:connector-curvature="0"
         id="path933"
         style="color:#000000;display:inline;overflow:visible;visibility:visible;fill:url(#linearGradient4018);fill-opacity:1;fill-rule:nonzero;stroke:none;stroke-width:2;marker:none;enable-background:accumulate" />
    </clipPath>
    <linearGradient
       x1="49.957554"
       y1="20.365503"
       x2="49.957554"
       y2="98.866722"
       id="linearGradient4100-5"
       xlink:href="#linearGradient3737"
       gradientUnits="userSpaceOnUse"
       gradientTransform="matrix(0.43878836,0,0,0.44776436,28.419044,30.048374)" />
    <linearGradient
       x1="48.269566"
       y1="32.608074"
       x2="48.269566"
       y2="69.905922"
       id="linearGradient3875-0"
       xlink:href="#linearGradient3737"
       gradientUnits="userSpaceOnUse"
       gradientTransform="matrix(0.75878003,0,0,0.51489328,13.918396,15.001667)" />
    <clipPath
       id="clipPath4014-2-7">
      <path
         d="m 16.5,143.11764 c 0,68.61326 14.326888,124.2353 32,124.2353 17.673112,0 32,-55.62204 32,-124.2353 0,-68.613253 -14.326888,-124.235289 -32,-124.235289 -17.673112,0 -32,55.622036 -32,124.235289 z m 8,0 c 0,-51.459939 10.745166,-93.176465 24,-93.176465 13.254834,0 24,41.716526 24,93.176465 0,51.45995 -10.745166,93.17647 -24,93.17647 -13.254834,0 -24,-41.71652 -24,-93.17647 z"
         inkscape:connector-curvature="0"
         id="path4016-9-5"
         style="color:#000000;display:inline;overflow:visible;visibility:visible;fill:url(#linearGradient4018);fill-opacity:1;fill-rule:nonzero;stroke:none;stroke-width:2;marker:none;enable-background:accumulate" />
    </clipPath>
  </defs>
  <sodipodi:namedview
     id="base"
     pagecolor="#ffffff"
     bordercolor="#666666"
     borderopacity="1.0"
     inkscape:pageopacity="0.0"
     inkscape:pageshadow="2"
     inkscape:zoom="6.3557363"
     inkscape:cx="54.993813"
     inkscape:cy="45.529864"
     inkscape:document-units="px"
     inkscape:current-layer="g2574"
     showgrid="false"
     inkscape:showpageshadow="false"
     units="px"
     inkscape:lockguides="false"
     inkscape:window-width="1280"
     inkscape:window-height="972"
     inkscape:window-x="0"
     inkscape:window-y="26"
     inkscape:window-maximized="1" />
  <metadata
     id="metadata1069">
    <rdf:RDF>
      <cc:Work
         rdf:about="">
        <dc:format>image/svg+xml</dc:format>
        <dc:type
           rdf:resource="http://purl.org/dc/dcmitype/StillImage" />
        <dc:title></dc:title>
        <dc:date>2017</dc:date>
        <dc:creator>
          <cc:Agent>
            <dc:title>Cristian Pozzessere &quot;ilnanny&quot;</dc:title>
          </cc:Agent>
        </dc:creator>
        <dc:subject>
          <rdf:Bag>
            <rdf:li>Global language</rdf:li>
          </rdf:Bag>
        </dc:subject>
        <dc:description>Playing with Inkscape on Gnu/Linux O. S.</dc:description>
        <dc:contributor>
          <cc:Agent>
            <dc:title>In the night, alone like a dog.</dc:title>
          </cc:Agent>
        </dc:contributor>
        <cc:license
           rdf:resource="http://creativecommons.org/licenses/by-sa/4.0/" />
      </cc:Work>
      <cc:License
         rdf:about="http://creativecommons.org/licenses/by-sa/4.0/">
        <cc:permits
           rdf:resource="http://creativecommons.org/ns#Reproduction" />
        <cc:permits
           rdf:resource="http://creativecommons.org/ns#Distribution" />
        <cc:requires
           rdf:resource="http://creativecommons.org/ns#Notice" />
        <cc:requires
           rdf:resource="http://creativecommons.org/ns#Attribution" />
        <cc:permits
           rdf:resource="http://creativecommons.org/ns#DerivativeWorks" />
        <cc:requires
           rdf:resource="http://creativecommons.org/ns#ShareAlike" />
      </cc:License>
    </rdf:RDF>
  </metadata>
  <g
     inkscape:label="Livello 1"
     inkscape:groupmode="layer"
     id="layer1"
     transform="translate(0,-1026.5197)">
    <g
       transform="translate(-0.14895645,1026.1047)"
       style="display:inline"
       id="g2574">
      <path
         inkscape:connector-curvature="0"
         id="path3288"
         d="M 89.29181,0.415026 H 7.0060911 c -3.798848,0 -6.8571352,3.058285 -6.8571352,6.8571399 V 89.557884 c 0,3.798857 3.0582872,6.857142 6.8571352,6.857142 H 89.29181 c 3.798857,0 6.857147,-3.058285 6.857147,-6.857142 V 7.2721659 c 0,-3.7988549 -3.05829,-6.8571399 -6.857147,-6.8571399 z"
         style="display:inline;opacity:0.15;fill:#000000;fill-opacity:1;fill-rule:nonzero;stroke:none" />
      <path
         style="display:inline;opacity:0.15;fill:#000000;fill-opacity:1;fill-rule:nonzero;stroke:none"
         d="M 88.648954,1.165026 H 7.6489471 c -3.739492,0 -6.749993,3.010499 -6.749993,6.7499969 V 88.915026 c 0,3.739501 3.010501,6.75 6.749993,6.75 H 88.648954 c 3.739503,0 6.750003,-3.010499 6.750003,-6.75 V 7.9150229 c 0,-3.7394979 -3.0105,-6.7499969 -6.750003,-6.7499969 z"
         id="path4085"
         inkscape:connector-curvature="0" />
      <path
         inkscape:connector-curvature="0"
         id="rect4251-1"
         d="M 88.006093,1.915026 H 8.2918111 c -3.680143,0 -6.6428566,2.962713 -6.6428566,6.6428549 V 88.272171 c 0,3.680142 2.9627136,6.642856 6.6428566,6.642856 H 88.006093 c 3.680143,0 6.642854,-2.962714 6.642854,-6.642856 V 8.5578809 c 0,-3.6801419 -2.962711,-6.6428549 -6.642854,-6.6428549 z"
         style="display:inline;fill:url(#linearGradient4071);fill-opacity:1;fill-rule:nonzero;stroke:none" />
      <path
         sodipodi:nodetypes="sscccsccscccsss"
         inkscape:connector-curvature="0"
         id="path3400-6"
         d="m 11.390247,6.8021682 c -2.8564964,0 -5.1241284,2.3146876 -5.1241284,5.2304538 v 21.67369 7.322634 40.372561 c 1.0972399,1.70385 2.9688485,2.844058 5.1241284,2.844058 h 4.099303 65.588849 4.099302 c 2.155281,0 4.026889,-1.140208 5.124129,-2.844058 V 41.028946 33.706312 12.032622 c 0,-2.9157662 -2.267632,-5.2304538 -5.124129,-5.2304538 z"
         style="display:inline;opacity:0.685;fill:#47abe5;fill-opacity:1;fill-rule:nonzero;stroke:none;stroke-width:1.03540373" />
      <path
         style="color:#000000;font-style:normal;font-variant:normal;font-weight:normal;font-stretch:normal;font-size:medium;line-height:normal;font-family:Sans;-inkscape-font-specification:Sans;text-indent:0;text-align:start;text-decoration:none;text-decoration-line:none;letter-spacing:normal;word-spacing:normal;text-transform:none;writing-mode:lr-tb;direction:ltr;baseline-shift:baseline;text-anchor:start;display:inline;overflow:visible;visibility:visible;fill:#241f1f;fill-opacity:0.63265303;stroke:none;stroke-width:2.3755002;marker:none;enable-background:accumulate"
         d="m 9.9740341,5.1444869 c -3.116621,0 -5.667965,2.53951 -5.667965,5.6460041 v 69.277996 c 0,3.106495 2.551344,5.646004 5.667965,5.646004 H 86.765819 c 3.116621,0 5.667968,-2.539509 5.667968,-5.646004 V 10.790491 c 0,-3.1064931 -2.551347,-5.6460041 -5.667968,-5.6460041 z m 0,2.319439 H 86.765819 c 1.888099,0 3.352022,1.480095 3.352022,3.3265651 v 69.277996 c 0,1.846474 -1.463923,3.326564 -3.352022,3.326564 H 9.9740341 c -1.888099,0 -3.352022,-1.48009 -3.352022,-3.326564 V 10.790491 c 0,-1.8464701 1.463923,-3.3265651 3.352022,-3.3265651 z"
         id="path4989"
         inkscape:connector-curvature="0" />
      <path
         id="path4118"
         d="m 1.6489535,82.258776 v 6 c 0,3.680142 2.9761066,6.65625 6.6562496,6.65625 H 87.992703 c 3.680143,0 6.656254,-2.976108 6.656254,-6.65625 v -6 c 0,3.680142 -2.976111,6.65625 -6.656254,6.65625 H 8.3052031 c -3.680143,0 -6.6562496,-2.976108 -6.6562496,-6.65625 z"
         style="display:inline;opacity:0.65818182;fill:url(#linearGradient4129);fill-opacity:1;fill-rule:nonzero;stroke:none"
         inkscape:connector-curvature="0" />
      <rect
         ry="4.25"
         rx="0"
         y="80.665031"
         x="5.5239539"
         height="4.25"
         width="84.250008"
         id="rect4131"
         style="opacity:0.55;fill:url(#radialGradient7462);fill-opacity:1;stroke:none" />
      <rect
         transform="rotate(90)"
         style="opacity:0.669;fill:url(#radialGradient7464);fill-opacity:1;stroke:none;stroke-width:0.96132702"
         id="rect4141"
         width="70.92849"
         height="4.25"
         x="11.796535"
         y="-90.233963"
         rx="0"
         ry="4.25" />
      <g
         id="g4545"
         transform="matrix(1.1009783,0,0,1.0446183,0.79078955,-3.1198088)" />
      <g
         transform="matrix(1,0,0,1.0232361,-9.8298044,133.36979)"
         style="display:inline;fill:#365362;fill-opacity:0.77551018;stroke:#273943;stroke-width:0.19771618;stroke-miterlimit:4;stroke-dasharray:none;stroke-opacity:0.86734697"
         id="g4601" />
      <g
         id="g4986"
         transform="matrix(1.0933546,0,0,1.0933546,2.3240252,-12.78509)">
        <g
           style="display:inline"
           transform="matrix(1.6578075,-1.6578075,-0.42701103,-0.42701103,3.0255424,165.36295)"
           clip-path="url(#clipPath4014-2-7)"
           id="g4044">
          <rect
             width="1"
             height="66"
             x="48"
             y="15"
             id="rect4046"
             style="color:#000000;display:inline;overflow:visible;visibility:visible;opacity:0.822;fill:#f2beec;fill-opacity:1;fill-rule:nonzero;stroke:none;stroke-width:2;marker:none;enable-background:accumulate" />
          <rect
             width="1"
             height="66"
             x="49"
             y="15"
             id="rect4048"
             style="color:#000000;display:inline;overflow:visible;visibility:visible;opacity:0.83800001;fill:#0e232e;fill-opacity:1;fill-rule:nonzero;stroke:none;stroke-width:2;marker:none;enable-background:accumulate" />
          <rect
             width="1"
             height="66"
             x="47"
             y="15"
             id="rect4050"
             style="color:#000000;display:inline;overflow:visible;visibility:visible;opacity:0.82700004;fill:#ffffff;fill-opacity:1;fill-rule:nonzero;stroke:none;stroke-width:2;marker:none;enable-background:accumulate" />
        </g>
        <circle
           r="26.354145"
           cy="48.505524"
           cx="48.05843"
           id="path4959"
           style="opacity:1;fill:#eadafc;fill-opacity:0.96258503;fill-rule:evenodd;stroke:none;stroke-width:1.523;stroke-linecap:square;stroke-linejoin:round;stroke-miterlimit:4;stroke-dasharray:none;stroke-dashoffset:0;stroke-opacity:1;paint-order:fill markers stroke" />
        <g
           transform="translate(-2.1908811,0.4601585)"
           id="g4957">
          <path
             d="m 50.339838,21.5923 c -14.559627,0 -26.362536,11.802907 -26.362536,26.36254 0,0.181879 -0.0036,0.368207 0,0.549219 0.289811,-14.308343 11.984791,-25.81332 26.362536,-25.81332 14.377745,0 26.072725,11.504977 26.362536,25.81332 0.0036,-0.181012 0,-0.36734 0,-0.549219 0,-14.559633 -11.802909,-26.36254 -26.362536,-26.36254 z"
             inkscape:connector-curvature="0"
             id="path3928"
             style="color:#000000;display:inline;overflow:visible;visibility:visible;opacity:0.6;fill:#000000;fill-opacity:1;fill-rule:nonzero;stroke:none;stroke-width:2.19687796;marker:none;enable-background:accumulate" />
          <path
             d="m 67.914862,47.95484 a 17.575024,17.575024 0 1 1 -35.150048,0 17.575024,17.575024 0 1 1 35.150048,0 z"
             id="path3855"
             style="color:#000000;display:inline;overflow:visible;visibility:visible;fill:#34495e;fill-opacity:1;fill-rule:nonzero;stroke:none;stroke-width:2.19687796;marker:none;enable-background:accumulate"
             inkscape:connector-curvature="0" />
          <path
             d="m 62.480319,39.716547 a 12.140481,8.2382925 0 1 1 -24.280962,0 12.140481,8.2382925 0 1 1 24.280962,0 z"
             id="path3865"
             style="color:#000000;display:inline;overflow:visible;visibility:visible;opacity:0.6;fill:url(#linearGradient3875-0);fill-opacity:1;fill-rule:nonzero;stroke:none;stroke-width:1.25010514;marker:none;enable-background:accumulate"
             inkscape:connector-curvature="0" />
          <path
             d="m 33.897579,47.40562 c -0.0062,0.184384 -0.03433,0.363342 -0.03433,0.54922 0,9.099765 7.376819,16.476585 16.476585,16.476585 9.099766,0 16.476585,-7.37682 16.476585,-16.476585 0,-0.185878 -0.02822,-0.364836 -0.03433,-0.54922 -0.292895,8.842632 -7.528366,15.927366 -16.442259,15.927366 -8.913893,0 -16.149364,-7.084734 -16.442259,-15.927366 z"
             inkscape:connector-curvature="0"
             id="path3877"
             style="color:#000000;display:inline;overflow:visible;visibility:visible;opacity:0.2;fill:#ffffff;fill-opacity:1;fill-rule:nonzero;stroke:none;stroke-width:2.19687796;marker:none;enable-background:accumulate" />
          <path
             d="m 45.27126,38.283062 c -1.989313,0.109075 -3.638563,2.040021 -3.469171,4.067839 -0.0023,4.644815 0.0045,9.289696 -0.0034,13.934467 0.116493,1.768871 1.54121,3.337157 3.280643,3.518366 1.513301,0.271106 2.766381,-0.739546 4.009059,-1.44136 3.372085,-1.998577 6.77585,-3.978503 10.128153,-5.988734 1.599348,-0.908321 2.327707,-3.078738 1.576896,-4.785481 C 60.238012,46.039755 58.65129,45.445752 57.381239,44.644496 54.014686,42.67148 50.66787,40.65825 47.288972,38.710388 46.665545,38.400958 45.975831,38.194232 45.271265,38.283062 Z"
             inkscape:connector-curvature="0"
             id="path3945"
             style="color:#000000;display:inline;overflow:visible;visibility:visible;opacity:0.07999998;fill:#000000;fill-opacity:1;fill-rule:nonzero;stroke:none;stroke-width:2.19687796;marker:none;enable-background:accumulate" />
          <path
             d="m 45.422094,40.270018 a 1.8094245,1.8464386 0 0 0 -1.672881,1.847025 v 6.940344 6.940355 a 1.8094245,1.8464386 0 0 0 2.715003,1.595153 l 5.882506,-3.470166 5.882507,-3.470178 a 1.8094245,1.8464386 0 0 0 0,-3.190317 l -5.882507,-3.470178 -5.882506,-3.470177 a 1.8094245,1.8464386 0 0 0 -1.042122,-0.251861 z"
             id="path3937"
             style="color:#000000;display:inline;overflow:visible;visibility:visible;opacity:0.3;fill:#000000;fill-opacity:1;fill-rule:nonzero;stroke:none;stroke-width:0.88650727;marker:none;enable-background:accumulate"
             inkscape:connector-curvature="0" />
          <path
             d="m 45.422094,39.171579 a 1.8094245,1.8464386 0 0 0 -1.672881,1.847025 v 6.940344 6.940355 a 1.8094245,1.8464386 0 0 0 2.715003,1.595153 l 5.882506,-3.470166 5.882507,-3.470178 a 1.8094245,1.8464386 0 0 0 0,-3.190317 L 52.346722,42.893617 46.464216,39.42344 a 1.8094245,1.8464386 0 0 0 -1.042122,-0.251861 z"
             id="path3935"
             style="color:#000000;display:inline;overflow:visible;visibility:visible;fill:url(#linearGradient4100-5);fill-opacity:1;fill-rule:nonzero;stroke:none;stroke-width:0.88650727;marker:none;enable-background:accumulate"
             inkscape:connector-curvature="0" />
        </g>
      </g>
      <rect
         clip-path="url(#clipPath4156-4-1)"
         ry="3.9569881"
         rx="3.9569874"
         y="-30"
         x="2"
         height="69.024437"
         width="75.965775"
         id="rect4146"
         style="opacity:0.5078125;fill:url(#linearGradient4767);fill-opacity:1;stroke:none"
         transform="matrix(1.0692451,0,0,1.0476829,4.4441802,38.894013)" />
      <g
         id="g4563"
         transform="matrix(1,0,0,1.0232361,2.5276866,0.27249961)">
        <g
           id="g4571"
           transform="translate(-4.8167728,-5.1253562)">
          <g
             id="g4578"
             transform="translate(3.3792498,3.3828315)"
             style="stroke-width:0.19771618;stroke-miterlimit:4;stroke-dasharray:none;stroke:#273943;stroke-opacity:0.86734694;fill:#365362;fill-opacity:0.77551019" />
        </g>
      </g>
      <g
         aria-label="MT"
         style="font-style:normal;font-variant:normal;font-weight:bold;font-stretch:normal;font-size:64px;line-height:25px;font-family:FreeMono;-inkscape-font-specification:'FreeMono Bold';font-variant-ligatures:normal;font-variant-caps:normal;font-variant-numeric:normal;font-feature-settings:normal;text-align:center;writing-mode:lr-tb;text-anchor:middle;opacity:1;fill:#b0ccdb;fill-opacity:0.91935485;fill-rule:evenodd;stroke:none;stroke-width:2.58899999;stroke-linecap:square;stroke-linejoin:round;stroke-miterlimit:4;stroke-dasharray:none;stroke-dashoffset:0;stroke-opacity:1;paint-order:fill markers stroke"
         id="text4824">
        <g
           aria-label="MT"
           style="font-style:normal;font-variant:normal;font-weight:bold;font-stretch:normal;font-size:69.1747818px;line-height:17.24563789px;font-family:'Comic Sans MS';-inkscape-font-specification:'Comic Sans MS Bold';font-variant-ligatures:normal;font-variant-caps:normal;font-variant-numeric:normal;font-feature-settings:normal;text-align:center;writing-mode:lr-tb;text-anchor:middle;opacity:1;fill:#476776;fill-opacity:0.99319727;fill-rule:evenodd;stroke:#1b99e4;stroke-width:1.05060434;stroke-linecap:square;stroke-linejoin:round;stroke-miterlimit:4;stroke-dasharray:none;stroke-dashoffset:0;stroke-opacity:1;paint-order:fill markers stroke"
           id="text4833" />
      </g>
      <g
         aria-label="S"
         transform="scale(1.2178486,0.82112013)"
         style="font-style:normal;font-variant:normal;font-weight:bold;font-stretch:normal;font-size:51.3556366px;line-height:12.80323124px;font-family:'DejaVu Sans Mono';-inkscape-font-specification:'DejaVu Sans Mono Bold';font-variant-ligatures:normal;font-variant-caps:normal;font-variant-numeric:normal;font-feature-settings:normal;text-align:center;writing-mode:lr-tb;text-anchor:middle;opacity:0.82700004;fill:#2a2a40;fill-opacity:1;fill-rule:evenodd;stroke:#fdfeff;stroke-width:0.77997279;stroke-linecap:square;stroke-linejoin:round;stroke-miterlimit:4;stroke-dasharray:none;stroke-dashoffset:0;stroke-opacity:1;paint-order:fill markers stroke"
         id="text5020">
        <path
           d="m 16.928824,83.422315 q -5.591946,-2.131459 -7.57295,-4.463527 -1.9810036,-2.357143 -1.9810036,-6.31915 0,-5.090427 3.2598796,-7.999243 3.259879,-2.908815 8.95213,-2.908815 2.582827,0 5.165655,0.601824 2.582827,0.576748 5.115502,1.730244 v 7.221886 q -2.382219,-1.680092 -4.839666,-2.557751 -2.457448,-0.87766 -4.864743,-0.87766 -2.683132,0 -4.112463,1.078268 -1.429332,1.078267 -1.429332,3.084347 0,1.554712 1.028116,2.582827 1.053191,1.00304 4.363223,2.231764 l 3.184651,1.203648 q 4.513679,1.655015 6.645138,4.388299 2.13146,2.733283 2.13146,6.895898 0,5.667175 -3.360183,8.475686 -3.335108,2.78344 -10.105626,2.78344 -2.783435,0 -5.591947,-0.677056 -2.783435,-0.651976 -5.3913386,-1.955928 v -7.648178 q 2.9589676,2.106383 5.7173266,3.134499 2.783436,1.028116 5.491643,1.028116 2.733283,0 4.237843,-1.228724 1.50456,-1.2538 1.50456,-3.485563 0,-1.680092 -1.00304,-2.933891 -1.00304,-1.278876 -2.908815,-2.00608 z"
           style="fill:#2a2a40;fill-opacity:1;stroke:#fdfeff;stroke-width:0.77997279;stroke-opacity:1"
           id="path5022" />
      </g>
    </g>
  </g>
</svg>
