<?xml version="1.0" encoding="UTF-8" standalone="no"?>
<!-- Created with Inkscape (http://www.inkscape.org/) -->

<svg
   xmlns:dc="http://purl.org/dc/elements/1.1/"
   xmlns:cc="http://creativecommons.org/ns#"
   xmlns:rdf="http://www.w3.org/1999/02/22-rdf-syntax-ns#"
   xmlns:svg="http://www.w3.org/2000/svg"
   xmlns="http://www.w3.org/2000/svg"
   xmlns:xlink="http://www.w3.org/1999/xlink"
   xmlns:sodipodi="http://sodipodi.sourceforge.net/DTD/sodipodi-0.dtd"
   xmlns:inkscape="http://www.inkscape.org/namespaces/inkscape"
   width="96"
   height="96"
   id="svg13094"
   version="1.1"
   inkscape:version="0.91 r13725"
   sodipodi:docname="solydx-flat.svg">
  <sodipodi:namedview
     id="base"
     pagecolor="#ffffff"
     bordercolor="#666666"
     borderopacity="1.0"
     inkscape:pageopacity="0"
     inkscape:pageshadow="2"
     inkscape:zoom="4.0000002"
     inkscape:cx="-3.8266804"
     inkscape:cy="66.577724"
     inkscape:document-units="px"
     inkscape:current-layer="g5586"
     showgrid="false"
     inkscape:snap-bbox="true"
     inkscape:bbox-paths="true"
     inkscape:bbox-nodes="true"
     inkscape:snap-bbox-edge-midpoints="true"
     inkscape:snap-bbox-midpoints="true"
     inkscape:object-paths="true"
     inkscape:snap-intersection-paths="true"
     inkscape:object-nodes="true"
     inkscape:snap-smooth-nodes="true"
     inkscape:snap-midpoints="true"
     inkscape:snap-object-midpoints="true"
     inkscape:snap-center="true"
     showguides="true"
     inkscape:guide-bbox="true"
     inkscape:window-width="1280"
     inkscape:window-height="967"
     inkscape:window-x="0"
     inkscape:window-y="29"
     inkscape:window-maximized="1"
     inkscape:snap-global="false"
     fit-margin-top="0"
     fit-margin-left="0"
     fit-margin-right="0"
     fit-margin-bottom="0"
     showborder="true"
     inkscape:showpageshadow="false"
     inkscape:snap-page="true">
    <inkscape:grid
       type="xygrid"
       id="grid3075"
       empspacing="5"
       visible="true"
       enabled="true"
       snapvisiblegridlinesonly="true"
       originx="1.6362304e-08px"
       originy="18px" />
  </sodipodi:namedview>
  <defs
     id="defs13096">
    <radialGradient
       cx="115.8989"
       cy="133.10451"
       r="154.62019"
       fx="115.8989"
       fy="133.10451"
       id="radialGradient4431"
       gradientUnits="userSpaceOnUse">
      <stop
         id="stop4433"
         style="stop-color:#ff9955;stop-opacity:1"
         offset="0" />
      <stop
         id="stop4435"
         style="stop-color:#d45500;stop-opacity:1"
         offset="1" />
    </radialGradient>
    <linearGradient
       id="linearGradient3888-8-4-8-4-6-9-0-8-7-9"
       inkscape:collect="always">
      <stop
         id="stop3890-4-7-9-5-7-0-8-8-8-6"
         offset="0"
         style="stop-color:#ffffff;stop-opacity:1;" />
      <stop
         id="stop3892-5-8-2-8-3-3-3-06-4-4"
         offset="1"
         style="stop-color:#ffffff;stop-opacity:0;" />
    </linearGradient>
    <linearGradient
       id="linearGradient5700">
      <stop
         style="stop-color:#ffffff;stop-opacity:0;"
         offset="0"
         id="stop5702" />
      <stop
         id="stop5704"
         offset="0.03681535"
         style="stop-color:#ffffff;stop-opacity:0.85135138;" />
      <stop
         style="stop-color:#ffffff;stop-opacity:0;"
         offset="0.06506088"
         id="stop5706" />
      <stop
         id="stop5712"
         offset="0.94493848"
         style="stop-color:#ffffff;stop-opacity:0;" />
      <stop
         id="stop5710"
         offset="0.96582276"
         style="stop-color:#ffffff;stop-opacity:0.85135138;" />
      <stop
         style="stop-color:#ffffff;stop-opacity:0;"
         offset="1"
         id="stop5708" />
    </linearGradient>
    <linearGradient
       x1="45.447727"
       y1="92.539597"
       x2="45.447727"
       y2="7.0165396"
       id="ButtonShadow"
       gradientUnits="userSpaceOnUse"
       gradientTransform="scale(1.0058652,0.994169)">
      <stop
         id="stop3750"
         style="stop-color:#000000;stop-opacity:1"
         offset="0" />
      <stop
         id="stop3752"
         style="stop-color:#000000;stop-opacity:0.58823532"
         offset="1" />
    </linearGradient>
    <filter
       color-interpolation-filters="sRGB"
       id="filter3174">
      <feGaussianBlur
         id="feGaussianBlur3176"
         stdDeviation="1.71" />
    </filter>
    <radialGradient
       cx="115.8989"
       cy="133.10451"
       r="154.62019"
       fx="115.8989"
       fy="133.10451"
       id="radialGradient2877"
       xlink:href="#radialGradient3897-3"
       gradientUnits="userSpaceOnUse"
       gradientTransform="matrix(0.25364919,0,0,0.25365619,16,16.000007)" />
    <radialGradient
       cx="115.8989"
       cy="133.10451"
       r="154.62019"
       fx="115.8989"
       fy="133.10451"
       id="radialGradient3897-3"
       gradientUnits="userSpaceOnUse">
      <stop
         id="stop3899-4"
         style="stop-color:#294172;stop-opacity:0.52941179;"
         offset="0" />
      <stop
         id="stop3901-7"
         style="stop-color:#244463;stop-opacity:1;"
         offset="1" />
    </radialGradient>
    <radialGradient
       gradientUnits="userSpaceOnUse"
       id="radialGradient4257"
       fy="133.10451"
       fx="115.8989"
       r="154.62019"
       cy="133.10451"
       cx="115.8989">
      <stop
         offset="0"
         style="stop-color:#329adc;stop-opacity:1;"
         id="stop4259" />
      <stop
         offset="1"
         style="stop-color:#145e94;stop-opacity:1;"
         id="stop4261" />
    </radialGradient>
    <linearGradient
       id="linearGradient4091-0-3-0-7">
      <stop
         id="stop4093-3-6-4-2"
         offset="0"
         style="stop-color:#ffffff;stop-opacity:1;" />
      <stop
         style="stop-color:#ffffff;stop-opacity:1;"
         offset="0.80000001"
         id="stop4099-6-1-8-3" />
      <stop
         id="stop4095-1-0-7-9"
         offset="1"
         style="stop-color:#ffffff;stop-opacity:0;" />
    </linearGradient>
    <linearGradient
       id="linearGradient3832-0-6-1-1">
      <stop
         id="stop3834-6-3-7-1"
         offset="0"
         style="stop-color:#000000;stop-opacity:1;" />
      <stop
         style="stop-color:#000000;stop-opacity:0.58823532;"
         offset="0.1"
         id="stop3872-2-4" />
      <stop
         id="stop3844-6-2-7-6"
         offset="0.89999998"
         style="stop-color:#000000;stop-opacity:0.58823532;" />
      <stop
         id="stop3836-5-0-2-9"
         offset="1"
         style="stop-color:#000000;stop-opacity:1;" />
    </linearGradient>
    <linearGradient
       inkscape:collect="always"
       xlink:href="#linearGradient6139-0"
       id="linearGradient5021"
       gradientUnits="userSpaceOnUse"
       x1="6"
       y1="47.000011"
       x2="90"
       y2="47.000011"
       gradientTransform="matrix(1.1353753,0,0,1.1336634,-40.037124,-46.787637)" />
    <linearGradient
       id="linearGradient6139-0">
      <stop
         style="stop-color:#b7b7b7;stop-opacity:1;"
         offset="0"
         id="stop6141-2" />
      <stop
         id="stop6151-0"
         offset="0.25"
         style="stop-color:#ffffff;stop-opacity:1;" />
      <stop
         id="stop6147-1"
         offset="0.5"
         style="stop-color:#9d9d9d;stop-opacity:1;" />
      <stop
         style="stop-color:#fafafa;stop-opacity:1;"
         offset="0.75"
         id="stop6149-4" />
      <stop
         style="stop-color:#b7b7b7;stop-opacity:1;"
         offset="1"
         id="stop6143-4" />
    </linearGradient>
    <linearGradient
       y2="47.000011"
       x2="90"
       y1="47.000011"
       x1="6"
       gradientTransform="matrix(1.1392856,0,0,1.1392855,-13.958438,-31.910064)"
       gradientUnits="userSpaceOnUse"
       id="linearGradient4533"
       xlink:href="#linearGradient6139-0"
       inkscape:collect="always" />
    <radialGradient
       r="41"
       fy="6.2131939"
       fx="158"
       cy="6.2131939"
       cx="158"
       gradientTransform="matrix(0,1.6209438,-2.0382846,0,160.66427,-243.03657)"
       gradientUnits="userSpaceOnUse"
       id="radialGradient4535"
       xlink:href="#linearGradient3888-8-4-8-4-6-9-0-8-7-9"
       inkscape:collect="always" />
    <radialGradient
       r="42"
       fy="-27"
       fx="48"
       cy="-27"
       cx="48"
       gradientTransform="matrix(-1.0721726,0,0,-0.87502024,199.46429,-19.125546)"
       gradientUnits="userSpaceOnUse"
       id="radialGradient4537"
       xlink:href="#linearGradient4091-0-3-0-7"
       inkscape:collect="always" />
    <linearGradient
       y2="82.984398"
       x2="-10.187523"
       y1="82.984398"
       x1="-94"
       gradientTransform="matrix(1,0,0,0.88905855,200,8.9431737)"
       gradientUnits="userSpaceOnUse"
       id="linearGradient4539"
       xlink:href="#linearGradient3832-0-6-1-1"
       inkscape:collect="always" />
    <radialGradient
       r="45.056355"
       fy="0.38067999"
       fx="14.693458"
       cy="0.38067999"
       cx="14.693458"
       gradientTransform="matrix(1.0034441,0,0,0.8428725,26.216578,15.171305)"
       gradientUnits="userSpaceOnUse"
       id="radialGradient4541"
       xlink:href="#radialGradient4257"
       inkscape:collect="always" />
    <radialGradient
       r="154.62019"
       fy="133.10451"
       fx="115.8989"
       cy="133.10451"
       cx="115.8989"
       gradientTransform="matrix(0.25364919,0,0,0.25365619,16,16.000007)"
       gradientUnits="userSpaceOnUse"
       id="radialGradient4545"
       xlink:href="#radialGradient3897-3"
       inkscape:collect="always" />
    <linearGradient
       y2="47.000011"
       x2="90"
       y1="47.000011"
       x1="6"
       gradientTransform="matrix(1.1392856,0,0,1.1392855,-13.958432,-31.910062)"
       gradientUnits="userSpaceOnUse"
       id="linearGradient4547"
       xlink:href="#linearGradient5700"
       inkscape:collect="always" />
    <linearGradient
       y2="0.27861649"
       x2="59.378193"
       y1="0.27861649"
       x1="2.4652066"
       gradientTransform="matrix(1.0034441,0,0,1.0049592,26.216578,15.109602)"
       gradientUnits="userSpaceOnUse"
       id="linearGradient4549"
       xlink:href="#linearGradient3888-8-4-8-4-6-9-0-8-7-9"
       inkscape:collect="always" />
    <linearGradient
       gradientUnits="userSpaceOnUse"
       y2="0.27861649"
       x2="59.378193"
       y1="0.27861649"
       x1="2.4652066"
       id="linearGradient3980"
       xlink:href="#linearGradient3888-8-4-8-4-6-9-0-8-7-9"
       inkscape:collect="always"
       gradientTransform="matrix(1.0034441,0,0,1.0049592,33.125669,20.018693)" />
    <linearGradient
       y2="47.000011"
       x2="90"
       y1="47.000011"
       x1="6"
       gradientTransform="matrix(1.1392856,0,0,1.1392855,-7.0493415,-27.000969)"
       gradientUnits="userSpaceOnUse"
       id="linearGradient5698"
       xlink:href="#linearGradient5700"
       inkscape:collect="always" />
    <filter
       color-interpolation-filters="sRGB"
       id="filter3174-4">
      <feGaussianBlur
         id="feGaussianBlur3176-6"
         stdDeviation="1.71" />
    </filter>
    <radialGradient
       cx="48"
       cy="71.995491"
       r="32.993801"
       fx="48"
       fy="71.995491"
       id="radialGradient3925"
       xlink:href="#linearGradient3919"
       gradientUnits="userSpaceOnUse"
       gradientTransform="matrix(1,0,0,1.0001879,0,-0.00901697)" />
    <linearGradient
       id="linearGradient3919">
      <stop
         id="stop3921"
         style="stop-color:#fafafa;stop-opacity:1"
         offset="0" />
      <stop
         id="stop3923-7"
         style="stop-color:#f0f0f0;stop-opacity:1"
         offset="1" />
    </linearGradient>
    <linearGradient
       x1="541.33502"
       y1="104.50665"
       x2="606.91248"
       y2="303.14029"
       id="linearGradient3060-4"
       xlink:href="#path1082_2_-8"
       gradientUnits="userSpaceOnUse"
       gradientTransform="matrix(-0.13677913,0,0,0.13677146,122.19582,8.5219823)" />
    <linearGradient
       x1="112.49854"
       y1="6.1372099"
       x2="112.49853"
       y2="129.3468"
       id="path1082_2_-8"
       gradientUnits="userSpaceOnUse"
       gradientTransform="translate(287,-83)">
      <stop
         id="stop193-9"
         style="stop-color:#ffffff;stop-opacity:0"
         offset="0" />
      <stop
         id="stop195-6"
         style="stop-color:#ffffff;stop-opacity:0.60465115"
         offset="1" />
      <midPointStop
         id="midPointStop197-7"
         style="stop-color:#FFFFFF"
         offset="0" />
      <midPointStop
         id="midPointStop199-4"
         style="stop-color:#FFFFFF"
         offset="0.5" />
      <midPointStop
         id="midPointStop201-8"
         style="stop-color:#000000"
         offset="1" />
    </linearGradient>
    <radialGradient
       gradientUnits="userSpaceOnUse"
       gradientTransform="matrix(1.0034441,0,0,0.8428725,33.125669,20.080396)"
       r="45.056355"
       fy="0.38067999"
       fx="14.693458"
       cy="0.38067999"
       cx="14.693458"
       id="radialGradient3974"
       xlink:href="#radialGradient4257-0"
       inkscape:collect="always" />
    <radialGradient
       gradientUnits="userSpaceOnUse"
       id="radialGradient4257-0"
       fy="133.10451"
       fx="115.8989"
       r="154.62019"
       cy="133.10451"
       cx="115.8989">
      <stop
         offset="0"
         style="stop-color:#329adc;stop-opacity:1;"
         id="stop4259-5" />
      <stop
         offset="1"
         style="stop-color:#145e94;stop-opacity:1;"
         id="stop4261-2" />
    </radialGradient>
    <radialGradient
       r="41"
       fy="6.2131939"
       fx="158"
       cy="6.2131939"
       cx="158"
       gradientTransform="matrix(0,1.6209438,-2.0382846,0,160.66427,-243.03657)"
       gradientUnits="userSpaceOnUse"
       id="radialGradient3114"
       xlink:href="#linearGradient3888-8-4-8-4-6-9-0-8-7-9"
       inkscape:collect="always" />
    <radialGradient
       r="42"
       fy="-27"
       fx="48"
       cy="-27"
       cx="48"
       gradientTransform="matrix(-1.0721726,0,0,-0.87502024,199.46429,-19.125546)"
       gradientUnits="userSpaceOnUse"
       id="radialGradient3118"
       xlink:href="#linearGradient4091-0-3-0-7"
       inkscape:collect="always" />
    <linearGradient
       inkscape:collect="always"
       xlink:href="#linearGradient6139-0"
       id="linearGradient5411"
       gradientUnits="userSpaceOnUse"
       gradientTransform="matrix(1.1392856,0,0,1.1392855,-7.0493475,-27.000973)"
       x1="6"
       y1="47.000011"
       x2="90"
       y2="47.000011" />
    <radialGradient
       r="41"
       fy="6.2131939"
       fx="158"
       cy="6.2131939"
       cx="158"
       gradientTransform="matrix(0,1.6209438,-2.0382846,0,160.66427,-243.03657)"
       gradientUnits="userSpaceOnUse"
       id="radialGradient5619"
       xlink:href="#linearGradient3888-8-4-8-4-6-9-0-8-7-9"
       inkscape:collect="always" />
    <radialGradient
       r="42"
       fy="-27"
       fx="48"
       cy="-27"
       cx="48"
       gradientTransform="matrix(-1.0721726,0,0,-0.87502024,199.46429,-19.125546)"
       gradientUnits="userSpaceOnUse"
       id="radialGradient5621"
       xlink:href="#linearGradient4091-0-3-0-7"
       inkscape:collect="always" />
    <radialGradient
       r="45.056355"
       fy="0.38067999"
       fx="14.693458"
       cy="0.38067999"
       cx="14.693458"
       gradientTransform="matrix(1.0034441,0,0,0.8428725,33.125669,20.080396)"
       gradientUnits="userSpaceOnUse"
       id="radialGradient5625"
       xlink:href="#radialGradient4431"
       inkscape:collect="always" />
  </defs>
  <metadata
     id="metadata13099">
    <rdf:RDF>
      <cc:Work
         rdf:about="">
        <dc:format>image/svg+xml</dc:format>
        <dc:type
           rdf:resource="http://purl.org/dc/dcmitype/StillImage" />
        <dc:title />
      </cc:Work>
    </rdf:RDF>
  </metadata>
  <g
     id="g3043"
     inkscape:export-filename="folder.png"
     inkscape:export-xdpi="90"
     inkscape:export-ydpi="90"
     transform="translate(-0.62500009,0.082283)" />
  <g
     id="scalable"
     transform="matrix(1.0385892,0,0,1.0385892,1214.7222,1878.8121)"
     inkscape:label="#g3701"
     style="fill:#ffffff" />
  <path
     style="fill:#ffffff;fill-opacity:0.35070675;fill-rule:nonzero"
     d="M 1 40 L 1 61 L 2 62 L 2 41 L 1 40 z "
     id="path3864" />
  <g
     transform="translate(0,32)"
     inkscape:label="Layer 1"
     id="layer1">
    <g
       transform="translate(0.36363468,-10.545455)"
       id="g5586">
      <path
         inkscape:connector-curvature="0"
         id="rect4251-1"
         d="m 88.650647,-21.304546 -82.0285663,0 c -3.786986,0 -6.83571406,3.048728 -6.83571406,6.835712 l 0,82.028577 c 0,3.786985 3.04872806,6.835712 6.83571406,6.835712 l 82.0285663,0 c 3.786986,0 6.835714,-3.048727 6.835714,-6.835712 l 0,-82.028577 c 0,-3.786984 -3.048728,-6.835712 -6.835714,-6.835712 z"
         style="display:inline;fill:url(#linearGradient5411);fill-opacity:1;fill-rule:nonzero;stroke:none" />
      <g
         transform="matrix(1.1392856,0,0,1.1392855,-120.9779,-26.43133)"
         id="g3272">
        <path
           style="display:inline;opacity:0.2;fill:url(#radialGradient5619);fill-opacity:1;fill-rule:nonzero;stroke:none"
           d="m 112,5.5 c -2.7873,0 -5,2.2127028 -5,5 l 0,20.71875 0,7 0,38.59375 c 1.07066,1.628779 2.89693,2.71875 5,2.71875 l 4,0 64,0 4,0 c 2.10307,0 3.92934,-1.089971 5,-2.71875 l 0,-38.59375 0,-7 L 189,10.5 c 0,-2.7872972 -2.2127,-5 -5,-5 z"
           id="path3400-6"
           inkscape:connector-curvature="0"
           sodipodi:nodetypes="sscccsccscccsss" />
        <path
           style="display:inline;opacity:0.45;fill:url(#radialGradient5621);fill-opacity:1;fill-rule:nonzero;stroke:none"
           d="m 112,4.5 c -3.324,0 -6,2.6759996 -6,6 l 0,15 1,0 0,-15 c 0,-2.7872972 2.2127,-5 5,-5 l 72,0 c 2.7873,0 5,2.2127028 5,5 l 0,15 1,0 0,-15 c 0,-3.3240004 -2.676,-6 -6,-6 l -72,0 z"
           id="path4236-5"
           inkscape:connector-curvature="0" />
        <path
           inkscape:connector-curvature="0"
           id="path4242-5"
           d="m 106,76.942239 0,0.889058 0,0.889059 0,0.889059 0,1.778117 0,1.778117 c 0,2.95523 2.676,5.334351 6,5.334351 l 72,0 c 3.324,0 6,-2.379121 6,-5.334351 l 0,-1.778117 0,-1.778117 0,-0.889059 0,-0.889059 0,-0.889058 c 0,2.95523 -2.676,5.334351 -6,5.334351 l -72,0 c -3.324,0 -6,-2.379121 -6,-5.334351 z"
           style="opacity:0.46964859;fill:url(#linearGradient4539);fill-opacity:1;fill-rule:nonzero;stroke:none" />
      </g>
      <g
         id="g4021"
         transform="matrix(0.98961168,0,0,1.0555709,-3.4510802,-18.734636)">
        <circle
           transform="matrix(1.2467442,0,0,1.0633819,-54.589655,-6.556752)"
           id="path4002"
           style="opacity:0.71000001;fill:#1c1c1c;fill-opacity:1;fill-rule:nonzero;stroke:none"
           cx="70.373131"
           cy="79.208954"
           r="2.7910447" />
        <circle
           style="fill:#ffffff;fill-opacity:1;fill-rule:nonzero;stroke:none"
           id="path3854"
           transform="matrix(1.0373872,0,0,0.91041754,-39.856546,5.3629056)"
           cx="70.373131"
           cy="79.208954"
           r="2.7910447" />
        <circle
           transform="matrix(0.70316741,0,0,0.61710417,-16.33646,28.595951)"
           id="path3856"
           style="fill:#114751;fill-opacity:1;fill-rule:nonzero;stroke:none"
           cx="70.373131"
           cy="79.208954"
           r="2.7910447" />
        <circle
           style="opacity:0.71000001;fill:#1c1c1c;fill-opacity:1;fill-rule:nonzero;stroke:none"
           id="path4170"
           transform="matrix(1.2467442,0,0,1.0633819,-20.11442,-6.556752)"
           cx="70.373131"
           cy="79.208954"
           r="2.7910447" />
        <circle
           transform="matrix(1.0373872,0,0,0.91041754,-5.3813104,5.3629056)"
           id="path4172"
           style="fill:#ffffff;fill-opacity:1;fill-rule:nonzero;stroke:none"
           cx="70.373131"
           cy="79.208954"
           r="2.7910447" />
        <circle
           style="fill:#114751;fill-opacity:1;fill-rule:nonzero;stroke:none"
           id="path4174"
           transform="matrix(0.70316741,0,0,0.61710417,18.138777,28.595951)"
           cx="70.373131"
           cy="79.208954"
           r="2.7910447" />
        <rect
           ry="1.1481457"
           rx="1.1481457"
           transform="matrix(1.0139776,0,0,0.95205283,3.1886202,-2.9106418)"
           y="83.595505"
           x="40.44944"
           height="3.235955"
           width="12.674157"
           id="rect4176"
           style="opacity:0.75097273;fill:#0c2f31;fill-opacity:0.90454544;stroke:#ffffff;stroke-width:0.49989974;stroke-miterlimit:4;stroke-dasharray:none;stroke-opacity:1" />
      </g>
      <path
         inkscape:connector-curvature="0"
         id="path4972"
         d="m 7.4173061,36.677015 c -1.8851052,0 -3.649478,0.91815 -4.7591076,2.271826 l 0,15.088982 c 0,2.404471 2.1225623,4.340201 4.7591076,4.340201 l 80.9048529,0 c 2.636547,0 4.759108,-1.93573 4.759108,-4.340201 l 0,-15.088982 c -1.109628,-1.353676 -2.874001,-2.271826 -4.759108,-2.271826 l -80.9048529,0 z m 0,3.255153 80.9048529,0 c 1.359428,0 2.379555,0.930332 2.379555,2.1701 l 0,11.935555 c 0,1.239769 -1.020127,2.170101 -2.379555,2.170101 l -80.9048529,0 c -1.3594269,0 -2.3795533,-0.930332 -2.3795533,-2.170101 l 0,-11.935555 c 0,-1.239768 1.0201264,-2.1701 2.3795533,-2.1701 z"
         style="color:#000000;font-style:normal;font-variant:normal;font-weight:normal;font-stretch:normal;font-size:medium;line-height:normal;font-family:Sans;-inkscape-font-specification:Sans;text-indent:0;text-align:start;text-decoration:none;text-decoration-line:none;letter-spacing:normal;word-spacing:normal;text-transform:none;direction:ltr;block-progression:tb;writing-mode:lr-tb;baseline-shift:baseline;text-anchor:start;display:inline;overflow:visible;visibility:visible;opacity:0.02000002;fill:#000000;fill-opacity:1;fill-rule:nonzero;stroke:none;stroke-width:6;marker:none;enable-background:accumulate" />
      <path
         id="path4970"
         d="m 7.4173061,-17.575502 80.9048529,0 c 2.636547,0 4.759108,1.935729 4.759108,4.340202 l 0,67.273123 c 0,2.404471 -2.122561,4.340201 -4.759108,4.340201 l -80.9048529,0 c -2.6365453,0 -4.7591076,-1.93573 -4.7591076,-4.340201 l 0,-67.273123 c 0,-2.404473 2.1225623,-4.340202 4.7591076,-4.340202 z"
         style="color:#000000;display:inline;overflow:visible;visibility:visible;fill:url(#radialGradient5625);fill-opacity:1;fill-rule:nonzero;stroke:none;stroke-width:2;marker:none;enable-background:accumulate"
         inkscape:connector-curvature="0"
         sodipodi:nodetypes="sssssssss" />
      <path
         sodipodi:nodetypes="sssssssss"
         inkscape:connector-curvature="0"
         style="color:#000000;display:inline;overflow:visible;visibility:visible;fill:none;stroke:#000000;stroke-width:2.29036617;stroke-opacity:0.7758007;marker:none;enable-background:accumulate"
         d="m 8.3614637,-16.774304 79.0165393,0 c 2.575009,0 4.648031,1.891243 4.648031,4.240455 l 0,65.727034 c 0,2.349214 -2.073022,4.240456 -4.648031,4.240456 l -79.0165393,0 c -2.5750091,0 -4.6480313,-1.891242 -4.6480313,-4.240456 l 0,-65.727034 c 0,-2.349212 2.0730222,-4.240455 4.6480313,-4.240455 z"
         id="path4989" />
      <path
         style="display:inline;opacity:0.72794118;fill:url(#linearGradient5698);fill-opacity:1;fill-rule:nonzero;stroke:none"
         d="m 88.650648,-21.304542 -82.0285553,0 c -3.786988,0 -6.83572206,3.048728 -6.83572206,6.835712 l 0,82.028572 c 0,3.78699 3.04873406,6.83571 6.83572206,6.83571 l 82.0285553,0 c 3.786988,0 6.835712,-3.04872 6.835712,-6.83571 l 0,-82.028572 c 0,-3.786984 -3.048724,-6.835712 -6.835712,-6.835712 z"
         id="path5696"
         inkscape:connector-curvature="0" />
      <path
         inkscape:connector-curvature="0"
         id="path4974"
         d="m 35.599366,-17.678072 c 8.329396,26.184039 16.984706,51.751268 25.765978,75.953527 l 26.583944,0 c 2.636535,0 4.759079,-1.93573 4.759079,-4.340201 l 0,-67.273123 c 0,-2.404473 -2.122544,-4.340203 -4.759079,-4.340203 l -52.349922,0 z"
         style="color:#000000;display:inline;overflow:visible;visibility:visible;opacity:0.30882353;fill:url(#linearGradient3980);fill-opacity:1;fill-rule:nonzero;stroke:none;stroke-width:2;marker:none;enable-background:accumulate" />
      <g
         transform="matrix(1.7537852,0,0,1.7537852,-9.7423461,-40.155159)"
         id="g4153">
        <path
           inkscape:connector-curvature="0"
           id="path3044"
           style="color:#000000;font-style:normal;font-variant:normal;font-weight:normal;font-stretch:normal;font-size:50.84690094px;line-height:125%;font-family:'Playfair Display';-inkscape-font-specification:'Playfair Display';letter-spacing:0px;word-spacing:0px;visibility:visible;fill:#edebdf;fill-opacity:0.81826321;fill-rule:nonzero;stroke:none;stroke-width:2;marker:none"
           d="m 44.342071,48.400004 c 0.430316,0.678623 0.80273,1.191726 1.117242,1.53931 0.314453,0.331036 0.645487,0.571036 0.993103,0.72 0.347556,0.148967 0.7779,0.240001 1.291035,0.273104 l 0,1.067586 c -2.317271,-0.132414 -3.773822,-0.198621 -4.369656,-0.198621 -1.142095,0 -3.533817,0.06621 -7.175173,0.198621 l 0,-1.067586 c 1.324117,1e-6 2.259288,-0.05793 2.805518,-0.173794 0.546183,-0.11586 0.819286,-0.331033 0.81931,-0.645517 -2.4e-5,-0.248274 -0.124161,-0.55448 -0.372414,-0.918621 l -8.689655,-13.307587 -5.486897,8.193104 c -1.291043,1.920006 -1.93656,3.40966 -1.936552,4.468966 -8e-6,0.860692 0.380681,1.473106 1.142069,1.837242 0.777921,0.364139 1.903438,0.562759 3.376552,0.595862 l 0,1.017931 c -1.920011,-0.09931 -4.204146,-0.148966 -6.852415,-0.148966 -1.870348,0 -3.310347,0.04966 -4.32,0.148966 l 0,-1.017931 c 1.009653,-0.148965 1.969653,-0.604137 2.88,-1.365518 0.926892,-0.761376 1.878615,-1.862065 2.855173,-3.302069 L 30.091036,34.868968 20.135173,19.600001 C 19.704824,18.921413 19.332411,18.416586 19.017931,18.085518 18.703446,17.737966 18.372411,17.489691 18.024828,17.34069 17.67724,17.19176 17.246895,17.100725 16.733793,17.067587 l 0,-1.067586 c 2.317239,0.132449 3.773789,0.198656 4.369656,0.19862 2.267579,3.6e-5 4.659301,-0.06617 7.175173,-0.19862 l 0,1.067586 c -2.267597,3.5e-5 -3.401389,0.372448 -3.40138,1.117241 -9e-6,0.264862 0.148956,0.637275 0.446897,1.117242 l 7.92,12.115863 4.990346,-7.473104 c 1.473079,-2.201349 2.20963,-3.831693 2.209655,-4.891035 -2.5e-5,-0.71169 -0.331059,-1.216518 -0.993104,-1.514483 -0.64554,-0.314448 -1.630366,-0.488241 -2.954483,-0.521379 l 0,-1.017931 c 1.93653,0.09935 3.889631,0.149001 5.859311,0.148965 1.853765,3.6e-5 3.293764,-0.04962 4.320001,-0.148965 l 0,1.017931 c -1.026237,0.149 -2.002788,0.612448 -2.929656,1.390345 -0.910372,0.761412 -1.845543,1.853825 -2.805517,3.277241 l -7.125518,10.626208 10.526897,16.088278" />
        <path
           inkscape:connector-curvature="0"
           id="path3041"
           d="m 29.28125,17 c -0.340975,0.01795 -0.663586,0.01573 -1,0.03125 l 0,0.03125 c -2.267597,3.5e-5 -3.406259,0.380207 -3.40625,1.125 -9e-6,0.264862 0.139559,0.645033 0.4375,1.125 l 7.9375,12.09375 0.1875,-0.25 -7.125,-10.84375 c -0.297941,-0.479967 -0.437509,-0.860138 -0.4375,-1.125 -9e-6,-0.744793 1.138653,-1.124965 3.40625,-1.125 l 0,-1.0625 z m 18.40625,0 c -0.342268,0.03313 -0.815683,0.07167 -1.25,0.09375 -0.935971,0.183658 -1.835494,0.597433 -2.6875,1.3125 -0.839881,0.702455 -1.711651,1.702841 -2.59375,2.96875 -0.332089,0.95316 -0.938815,2.116779 -1.90625,3.5625 l -5,7.46875 -0.25,-0.375 -0.1875,0.28125 10.53125,16.09375 c 0.430316,0.678623 0.810488,1.183666 1.125,1.53125 0.199682,0.210213 0.380695,0.394457 0.59375,0.53125 -0.225954,-0.296893 -0.446413,-0.633015 -0.71875,-1.0625 L 34.8125,33.3125 l 7.125,-10.625 c 0.959974,-1.423416 1.902128,-2.519838 2.8125,-3.28125 0.926868,-0.777897 1.911263,-1.226 2.9375,-1.375 L 47.6875,17 Z M 37.5,17.0625 l 0,0.96875 C 38.76606,18.06293 39.698066,18.211133 40.34375,18.5 40.207694,18.079022 39.908198,17.743096 39.4375,17.53125 38.965934,17.301546 38.333674,17.142089 37.5,17.0625 Z m -19.78125,0.1875 0,0.8125 c 0.513102,0.03314 0.964912,0.13232 1.3125,0.28125 0.131504,0.05637 0.248234,0.133957 0.375,0.21875 -0.134224,-0.17302 -0.25707,-0.3446 -0.375,-0.46875 -0.314485,-0.347552 -0.652417,-0.600999 -1,-0.75 C 17.94019,17.30474 17.821164,17.28107 17.71875,17.25 Z M 30.90625,36.125 23.75,46.78125 c -0.276055,0.673874 -0.406254,1.291414 -0.40625,1.78125 -8e-6,0.860692 0.363612,1.448364 1.125,1.8125 0.0081,0.0038 0.02309,-0.0037 0.03125,0 -0.09813,-0.245 -0.156253,-0.503497 -0.15625,-0.8125 -8e-6,-1.059306 0.646457,-2.548744 1.9375,-4.46875 l 5.28125,-7.96875 -0.65625,-1 z M 47.75,51.75 l 0,0.25 c -2.317271,-0.132414 -3.779166,-0.1875 -4.375,-0.1875 -0.983173,0 -3.352215,0.05812 -6.1875,0.15625 l 0,1.03125 c 3.641356,-0.132411 6.045405,-0.1875 7.1875,-0.1875 0.595834,0 2.057729,0.05509 4.375,0.1875 l 0,-1.0625 c -0.378712,-0.02443 -0.711479,-0.09996 -1,-0.1875 z M 21,51.84375 c -1.236024,0 -2.202364,0.01913 -3.0625,0.0625 -0.08414,0.01684 -0.165162,0.04998 -0.25,0.0625 l 0,1.03125 c 1.009653,-0.09931 2.442152,-0.15625 4.3125,-0.15625 2.648269,0 4.923739,0.05694 6.84375,0.15625 l 0,-1.03125 c -0.357129,-0.008 -0.68373,-0.0038 -1,-0.03125 l 0,0.0625 C 25.923739,51.90069 23.648269,51.84375 21,51.84375 Z"
           style="color:#000000;font-style:normal;font-variant:normal;font-weight:normal;font-stretch:normal;font-size:50.84690094px;line-height:125%;font-family:'Playfair Display';-inkscape-font-specification:'Playfair Display';letter-spacing:0px;word-spacing:0px;display:inline;overflow:visible;visibility:visible;fill:#414956;fill-opacity:0.14874555;fill-rule:nonzero;stroke:none;stroke-width:2.28571415;marker:none;enable-background:accumulate" />
        <path
           inkscape:connector-curvature="0"
           id="text4669"
           d="m 16.71875,16 0,1.0625 c 0.378687,0.02446 0.711468,0.09997 1,0.1875 l 0,-0.25 c 2.317238,0.13245 3.779133,0.187536 4.375,0.1875 1.960255,3.1e-5 4.041694,-0.05727 6.1875,-0.15625 l 0,-1.03125 c -2.515872,0.13245 -4.919921,0.187536 -7.1875,0.1875 -0.595867,3.6e-5 -2.057762,-0.05505 -4.375,-0.1875 z M 36.5,16 l 0,1.03125 c 0.35685,0.0089 0.692435,0.0019 1,0.03125 L 37.5,17 c 1.936529,0.09935 3.87407,0.156286 5.84375,0.15625 1.235502,2.4e-5 2.225836,-0.01838 3.09375,-0.0625 0.08224,-0.01614 0.167112,-0.05046 0.25,-0.0625 l 0,-1.03125 c -1.026237,0.09935 -2.489985,0.156286 -4.34375,0.15625 C 40.37407,16.156286 38.436529,16.09935 36.5,16 Z m 3.84375,2.5 c 0.05531,0.171135 0.09374,0.356804 0.09375,0.5625 -2.5e-5,1.059342 -0.71442,2.673651 -2.1875,4.875 L 33.4375,31.15625 34,32.03125 40.9375,21.6875 c 0.07433,-0.110216 0.144716,-0.206253 0.21875,-0.3125 0.173571,-0.498183 0.281242,-0.948874 0.28125,-1.3125 -2.5e-5,-0.711691 -0.337955,-1.233285 -1,-1.53125 -0.0283,-0.01379 -0.06414,-0.018 -0.09375,-0.03125 z m -20.9375,0.0625 c 0.223706,0.288367 0.449782,0.607133 0.71875,1.03125 l 9.96875,15.28125 -7.6875,11.4375 c -0.976557,1.440004 -1.916858,2.551124 -2.84375,3.3125 -0.910348,0.761381 -1.865347,1.194786 -2.875,1.34375 l 0,1.03125 c 0.342422,-0.03368 0.80858,-0.07149 1.25,-0.09375 0.917172,-0.183583 1.791146,-0.583845 2.625,-1.28125 0.926892,-0.761376 1.867193,-1.872496 2.84375,-3.3125 L 23.75,46.78125 c 0.320934,-0.783429 0.837201,-1.655328 1.53125,-2.6875 L 30.75,35.875 l 0.15625,0.25 0.1875,-0.25 L 21.125,20.59375 c -0.430349,-0.678588 -0.779271,-1.168932 -1.09375,-1.5 -0.195504,-0.21606 -0.416705,-0.391923 -0.625,-0.53125 z M 31.75,36.875 l -0.1875,0.25 7.875,12.0625 c 0.248252,0.36414 0.374976,0.689226 0.375,0.9375 -2.4e-5,0.314484 -0.266317,0.509139 -0.8125,0.625 -0.54623,0.115863 -1.488384,0.187501 -2.8125,0.1875 l 0,1.0625 c 0.506692,-0.01843 0.5417,-0.01539 1,-0.03125 l 0,-0.03125 c 1.324116,10e-7 2.26627,-0.07164 2.8125,-0.1875 0.546183,-0.115861 0.812476,-0.310516 0.8125,-0.625 -2.4e-5,-0.248274 -0.126748,-0.57336 -0.375,-0.9375 L 31.75,36.875 Z m -7.25,13.5 c 0.17521,0.43742 0.480713,0.766595 0.96875,1 0.589329,0.275861 1.386693,0.476625 2.375,0.5625 l 0,-0.96875 C 26.38595,50.935992 25.276987,50.731948 24.5,50.375 Z m 21.5625,0.09375 c 0.131073,0.172223 0.290785,0.341144 0.40625,0.46875 0.314453,0.331036 0.621134,0.569786 0.96875,0.71875 0.09105,0.03902 0.21009,0.06268 0.3125,0.09375 l 0,-0.8125 c -0.513135,-0.0331 -0.964945,-0.132283 -1.3125,-0.28125 -0.126875,-0.05437 -0.252543,-0.108876 -0.375,-0.1875 z"
           style="color:#000000;font-style:normal;font-variant:normal;font-weight:normal;font-stretch:normal;font-size:50.84690094px;line-height:125%;font-family:'Playfair Display';-inkscape-font-specification:'Playfair Display';letter-spacing:0px;word-spacing:0px;display:inline;overflow:visible;visibility:visible;fill:#ffffff;fill-opacity:0.41360791;fill-rule:nonzero;stroke:none;stroke-width:1;marker:none;enable-background:accumulate" />
      </g>
    </g>
  </g>
</svg>
