<?xml version="1.0" encoding="UTF-8" standalone="no"?>
<!-- Created with Inkscape (http://www.inkscape.org/) -->

<svg
   xmlns:dc="http://purl.org/dc/elements/1.1/"
   xmlns:cc="http://creativecommons.org/ns#"
   xmlns:rdf="http://www.w3.org/1999/02/22-rdf-syntax-ns#"
   xmlns:svg="http://www.w3.org/2000/svg"
   xmlns="http://www.w3.org/2000/svg"
   xmlns:xlink="http://www.w3.org/1999/xlink"
   xmlns:sodipodi="http://sodipodi.sourceforge.net/DTD/sodipodi-0.dtd"
   xmlns:inkscape="http://www.inkscape.org/namespaces/inkscape"
   width="96"
   height="96"
   id="svg2"
   version="1.1"
   inkscape:version="0.48.5 r10040"
   sodipodi:docname="ubuntu-logo.svg">
  <script
     xlink:href=""
     id="script2985" />
  <defs
     id="defs4">
    <linearGradient
       gradientTransform="matrix(1.0034441,0,0,1.0049592,36.03476,-1.6176706)"
       y2="0.27861649"
       x2="59.378193"
       y1="0.27861649"
       x1="2.4652066"
       gradientUnits="userSpaceOnUse"
       id="linearGradient10533"
       xlink:href="#linearGradient3888-8-4-8-4-6-9-0-8-7-9"
       inkscape:collect="always" />
    <linearGradient
       inkscape:collect="always"
       id="linearGradient3888-8-4-8-4-6-9-0-8-7-9">
      <stop
         style="stop-color:#ffffff;stop-opacity:1;"
         offset="0"
         id="stop3890-4-7-9-5-7-0-8-8-8-6" />
      <stop
         style="stop-color:#ffffff;stop-opacity:0;"
         offset="1"
         id="stop3892-5-8-2-8-3-3-3-06-4-4" />
    </linearGradient>
    <linearGradient
       inkscape:collect="always"
       xlink:href="#linearGradient5700"
       id="linearGradient5698"
       gradientUnits="userSpaceOnUse"
       gradientTransform="matrix(1.1392856,0,0,1.1392855,-4.1402516,-48.637335)"
       x1="6"
       y1="47.000011"
       x2="90"
       y2="47.000011" />
    <linearGradient
       id="linearGradient5700">
      <stop
         id="stop5702"
         offset="0"
         style="stop-color:#ffffff;stop-opacity:0;" />
      <stop
         style="stop-color:#ffffff;stop-opacity:0.85135138;"
         offset="0.03681535"
         id="stop5704" />
      <stop
         id="stop5706"
         offset="0.06506088"
         style="stop-color:#ffffff;stop-opacity:0;" />
      <stop
         style="stop-color:#ffffff;stop-opacity:0;"
         offset="0.94493848"
         id="stop5712" />
      <stop
         style="stop-color:#ffffff;stop-opacity:0.85135138;"
         offset="0.96582276"
         id="stop5710" />
      <stop
         id="stop5708"
         offset="1"
         style="stop-color:#ffffff;stop-opacity:0;" />
    </linearGradient>
    <linearGradient
       gradientTransform="scale(1.0058652,0.994169)"
       gradientUnits="userSpaceOnUse"
       id="ButtonShadow"
       y2="7.0165396"
       x2="45.447727"
       y1="92.539597"
       x1="45.447727">
      <stop
         offset="0"
         style="stop-color:#000000;stop-opacity:1"
         id="stop3750" />
      <stop
         offset="1"
         style="stop-color:#000000;stop-opacity:0.58823532"
         id="stop3752" />
    </linearGradient>
    <filter
       id="filter3174"
       color-interpolation-filters="sRGB">
      <feGaussianBlur
         stdDeviation="1.71"
         id="feGaussianBlur3176" />
    </filter>
    <linearGradient
       gradientTransform="matrix(1.0034441,0,0,1.0049592,36.03476,-1.6176706)"
       inkscape:collect="always"
       xlink:href="#linearGradient4057"
       id="linearGradient9234"
       x1="-30.362898"
       y1="0.38067999"
       x2="59.749813"
       y2="0.38067999"
       gradientUnits="userSpaceOnUse" />
    <linearGradient
       id="linearGradient4057">
      <stop
         offset="0"
         style="stop-color:#dd481f;stop-opacity:0.94117647"
         id="stop4059" />
      <stop
         offset="1"
         style="stop-color:#ec6829;stop-opacity:0.94117647"
         id="stop4061" />
    </linearGradient>
    <radialGradient
       inkscape:collect="always"
       xlink:href="#linearGradient3888-8-4-8-6"
       id="radialGradient3114"
       gradientUnits="userSpaceOnUse"
       gradientTransform="matrix(0,1.6209438,-2.0382846,0,160.66427,-243.03657)"
       cx="158"
       cy="6.2131939"
       fx="158"
       fy="6.2131939"
       r="41" />
    <linearGradient
       inkscape:collect="always"
       id="linearGradient3888-8-4-8-6">
      <stop
         style="stop-color:#ffffff;stop-opacity:1;"
         offset="0"
         id="stop3890-4-7-9-7" />
      <stop
         style="stop-color:#ffffff;stop-opacity:0;"
         offset="1"
         id="stop3892-5-8-2-7" />
    </linearGradient>
    <radialGradient
       inkscape:collect="always"
       xlink:href="#linearGradient4091-0-3-0-7"
       id="radialGradient3118"
       gradientUnits="userSpaceOnUse"
       gradientTransform="matrix(-1.0721726,0,0,-0.87502024,199.46429,-19.125546)"
       cx="48"
       cy="-27"
       fx="48"
       fy="-27"
       r="42" />
    <linearGradient
       id="linearGradient4091-0-3-0-7">
      <stop
         style="stop-color:#ffffff;stop-opacity:1;"
         offset="0"
         id="stop4093-3-6-4-2" />
      <stop
         id="stop4099-6-1-8-3"
         offset="0.80000001"
         style="stop-color:#ffffff;stop-opacity:1;" />
      <stop
         style="stop-color:#ffffff;stop-opacity:0;"
         offset="1"
         id="stop4095-1-0-7-9" />
    </linearGradient>
    <linearGradient
       inkscape:collect="always"
       xlink:href="#linearGradient3832-0-6-1-1"
       id="linearGradient3120"
       gradientUnits="userSpaceOnUse"
       gradientTransform="matrix(1,0,0,0.88905855,200,8.9431737)"
       x1="-94"
       y1="82.984398"
       x2="-10.187523"
       y2="82.984398" />
    <linearGradient
       id="linearGradient3832-0-6-1-1">
      <stop
         style="stop-color:#000000;stop-opacity:1;"
         offset="0"
         id="stop3834-6-3-7-1" />
      <stop
         id="stop3872-2-4"
         offset="0.1"
         style="stop-color:#000000;stop-opacity:0.58823532;" />
      <stop
         style="stop-color:#000000;stop-opacity:0.58823532;"
         offset="0.89999998"
         id="stop3844-6-2-7-6" />
      <stop
         style="stop-color:#000000;stop-opacity:1;"
         offset="1"
         id="stop3836-5-0-2-9" />
    </linearGradient>
    <linearGradient
       gradientTransform="matrix(1.1353753,0,0,1.1336634,-40.037124,-46.787637)"
       y2="47.000011"
       x2="90"
       y1="47.000011"
       x1="6"
       gradientUnits="userSpaceOnUse"
       id="linearGradient5021"
       xlink:href="#linearGradient6139-0"
       inkscape:collect="always" />
    <linearGradient
       id="linearGradient6139-0">
      <stop
         id="stop6141-2"
         offset="0"
         style="stop-color:#b7b7b7;stop-opacity:1;" />
      <stop
         style="stop-color:#ffffff;stop-opacity:1;"
         offset="0.25"
         id="stop6151-0" />
      <stop
         style="stop-color:#9d9d9d;stop-opacity:1;"
         offset="0.5"
         id="stop6147-1" />
      <stop
         id="stop6149-4"
         offset="0.75"
         style="stop-color:#fafafa;stop-opacity:1;" />
      <stop
         id="stop6143-4"
         offset="1"
         style="stop-color:#b7b7b7;stop-opacity:1;" />
    </linearGradient>
    <linearGradient
       y2="47.000011"
       x2="90"
       y1="47.000011"
       x1="6"
       gradientTransform="matrix(1.1392856,0,0,1.1392855,-4.1402566,-48.637337)"
       gradientUnits="userSpaceOnUse"
       id="linearGradient11623"
       xlink:href="#linearGradient6139-0"
       inkscape:collect="always" />
    <linearGradient
       inkscape:collect="always"
       xlink:href="#linearGradient6139-0"
       id="linearGradient11804"
       gradientUnits="userSpaceOnUse"
       gradientTransform="matrix(1.1392856,0,0,1.1392855,-4.1402566,-48.637337)"
       x1="6"
       y1="47.000011"
       x2="90"
       y2="47.000011" />
    <radialGradient
       inkscape:collect="always"
       xlink:href="#linearGradient3888-8-4-8-6"
       id="radialGradient11806"
       gradientUnits="userSpaceOnUse"
       gradientTransform="matrix(0,1.6209438,-2.0382846,0,160.66427,-243.03657)"
       cx="158"
       cy="6.2131939"
       fx="158"
       fy="6.2131939"
       r="41" />
    <radialGradient
       inkscape:collect="always"
       xlink:href="#linearGradient4091-0-3-0-7"
       id="radialGradient11808"
       gradientUnits="userSpaceOnUse"
       gradientTransform="matrix(-1.0721726,0,0,-0.87502024,199.46429,-19.125546)"
       cx="48"
       cy="-27"
       fx="48"
       fy="-27"
       r="42" />
    <linearGradient
       inkscape:collect="always"
       xlink:href="#linearGradient3832-0-6-1-1"
       id="linearGradient11810"
       gradientUnits="userSpaceOnUse"
       gradientTransform="matrix(1,0,0,0.88905855,200,8.9431737)"
       x1="-94"
       y1="82.984398"
       x2="-10.187523"
       y2="82.984398" />
    <linearGradient
       inkscape:collect="always"
       xlink:href="#linearGradient4057"
       id="linearGradient11812"
       gradientUnits="userSpaceOnUse"
       gradientTransform="matrix(1.0034441,0,0,1.0049592,36.03476,-1.6176706)"
       x1="-30.362898"
       y1="0.38067999"
       x2="59.749813"
       y2="0.38067999" />
    <linearGradient
       inkscape:collect="always"
       xlink:href="#ButtonShadow"
       id="linearGradient11814"
       gradientUnits="userSpaceOnUse"
       gradientTransform="scale(1.0058652,0.994169)"
       x1="45.447727"
       y1="92.539597"
       x2="45.447727"
       y2="7.0165396" />
    <linearGradient
       inkscape:collect="always"
       xlink:href="#linearGradient5700"
       id="linearGradient11816"
       gradientUnits="userSpaceOnUse"
       gradientTransform="matrix(1.1392856,0,0,1.1392855,-4.1402516,-48.637335)"
       x1="6"
       y1="47.000011"
       x2="90"
       y2="47.000011" />
    <linearGradient
       inkscape:collect="always"
       xlink:href="#linearGradient3888-8-4-8-4-6-9-0-8-7-9"
       id="linearGradient11818"
       gradientUnits="userSpaceOnUse"
       gradientTransform="matrix(1.0034441,0,0,1.0049592,36.03476,-1.6176706)"
       x1="2.4652066"
       y1="0.27861649"
       x2="59.378193"
       y2="0.27861649" />
  </defs>
  <sodipodi:namedview
     id="base"
     pagecolor="#ffffff"
     bordercolor="#666666"
     borderopacity="1.0"
     inkscape:pageopacity="0.0"
     inkscape:pageshadow="2"
     inkscape:zoom="5.5"
     inkscape:cx="7"
     inkscape:cy="32"
     inkscape:current-layer="layer1"
     showgrid="true"
     inkscape:document-units="px"
     inkscape:grid-bbox="true"
     inkscape:showpageshadow="false"
     gridtolerance="1"
     guidetolerance="1"
     objecttolerance="1"
     inkscape:window-width="1280"
     inkscape:window-height="959"
     inkscape:window-x="0"
     inkscape:window-y="0"
     inkscape:window-maximized="1" />
  <metadata
     id="metadata7">
    <rdf:RDF>
      <cc:Work
         rdf:about="">
        <dc:format>image/svg+xml</dc:format>
        <dc:type
           rdf:resource="http://purl.org/dc/dcmitype/StillImage" />
        <dc:title></dc:title>
      </cc:Work>
    </rdf:RDF>
  </metadata>
  <g
     id="layer1"
     inkscape:label="Layer 1"
     inkscape:groupmode="layer"
     transform="translate(0,32)">
    <g
       id="g11776"
       transform="translate(-2.5454557,11.09091)">
      <path
         inkscape:connector-curvature="0"
         id="rect4251-1"
         d="m 91.559738,-42.94091 -82.0285664,0 c -3.786986,0 -6.8357141,3.048728 -6.8357141,6.835712 l 0,82.028577 c 0,3.786985 3.0487281,6.835712 6.8357141,6.835712 l 82.0285664,0 c 3.786986,0 6.835714,-3.048727 6.835714,-6.835712 l 0,-82.028577 c 0,-3.786984 -3.048728,-6.835712 -6.835714,-6.835712 z"
         style="fill:url(#linearGradient11804);fill-opacity:1;fill-rule:nonzero;stroke:none;display:inline" />
      <g
         transform="matrix(1.1392856,0,0,1.1392855,-118.06881,-48.067694)"
         id="g3272">
        <path
           style="opacity:0.2;fill:url(#radialGradient11806);fill-opacity:1;fill-rule:nonzero;stroke:none;display:inline"
           d="m 112,5.5 c -2.7873,0 -5,2.2127028 -5,5 l 0,20.71875 0,7 0,38.59375 c 1.07066,1.628779 2.89693,2.71875 5,2.71875 l 4,0 64,0 4,0 c 2.10307,0 3.92934,-1.089971 5,-2.71875 l 0,-38.59375 0,-7 L 189,10.5 c 0,-2.7872972 -2.2127,-5 -5,-5 z"
           id="path3400-6"
           inkscape:connector-curvature="0"
           sodipodi:nodetypes="sscccsccscccsss" />
        <path
           style="opacity:0.45;fill:url(#radialGradient11808);fill-opacity:1;fill-rule:nonzero;stroke:none;display:inline"
           d="m 112,4.5 c -3.324,0 -6,2.6759996 -6,6 l 0,15 1,0 0,-15 c 0,-2.7872972 2.2127,-5 5,-5 l 72,0 c 2.7873,0 5,2.2127028 5,5 l 0,15 1,0 0,-15 c 0,-3.3240004 -2.676,-6 -6,-6 l -72,0 z"
           id="path4236-5"
           inkscape:connector-curvature="0" />
        <path
           inkscape:connector-curvature="0"
           id="path4242-5"
           d="m 106,76.942239 0,0.889058 0,0.889059 0,0.889059 0,1.778117 0,1.778117 c 0,2.95523 2.676,5.334351 6,5.334351 l 72,0 c 3.324,0 6,-2.379121 6,-5.334351 l 0,-1.778117 0,-1.778117 0,-0.889059 0,-0.889059 0,-0.889058 c 0,2.95523 -2.676,5.334351 -6,5.334351 l -72,0 c -3.324,0 -6,-2.379121 -6,-5.334351 z"
           style="opacity:0.46964859;fill:url(#linearGradient11810);fill-opacity:1;fill-rule:nonzero;stroke:none" />
      </g>
      <g
         id="g4021"
         transform="matrix(0.98961168,0,0,1.0555709,-0.54198925,-40.371)">
        <path
           transform="matrix(1.2467442,0,0,1.0633819,-54.589655,-6.556752)"
           d="m 73.164176,79.208954 c 0,1.541451 -1.249594,2.791045 -2.791045,2.791045 -1.541452,0 -2.791045,-1.249594 -2.791045,-2.791045 0,-1.541452 1.249593,-2.791045 2.791045,-2.791045 1.541451,0 2.791045,1.249593 2.791045,2.791045 z"
           sodipodi:ry="2.7910447"
           sodipodi:rx="2.7910447"
           sodipodi:cy="79.208954"
           sodipodi:cx="70.373131"
           id="path4002"
           style="opacity:0.71000001;fill:#1c1c1c;fill-opacity:1;fill-rule:nonzero;stroke:none"
           sodipodi:type="arc" />
        <path
           sodipodi:type="arc"
           style="fill:#ffffff;fill-opacity:1;fill-rule:nonzero;stroke:none"
           id="path3854"
           sodipodi:cx="70.373131"
           sodipodi:cy="79.208954"
           sodipodi:rx="2.7910447"
           sodipodi:ry="2.7910447"
           d="m 73.164176,79.208954 c 0,1.541451 -1.249594,2.791045 -2.791045,2.791045 -1.541452,0 -2.791045,-1.249594 -2.791045,-2.791045 0,-1.541452 1.249593,-2.791045 2.791045,-2.791045 1.541451,0 2.791045,1.249593 2.791045,2.791045 z"
           transform="matrix(1.0373872,0,0,0.91041754,-39.856546,5.3629056)" />
        <path
           transform="matrix(0.70316741,0,0,0.61710417,-16.33646,28.595951)"
           d="m 73.164176,79.208954 c 0,1.541451 -1.249594,2.791045 -2.791045,2.791045 -1.541452,0 -2.791045,-1.249594 -2.791045,-2.791045 0,-1.541452 1.249593,-2.791045 2.791045,-2.791045 1.541451,0 2.791045,1.249593 2.791045,2.791045 z"
           sodipodi:ry="2.7910447"
           sodipodi:rx="2.7910447"
           sodipodi:cy="79.208954"
           sodipodi:cx="70.373131"
           id="path3856"
           style="fill:#114751;fill-opacity:1;fill-rule:nonzero;stroke:none"
           sodipodi:type="arc" />
        <path
           sodipodi:type="arc"
           style="opacity:0.71000001;fill:#1c1c1c;fill-opacity:1;fill-rule:nonzero;stroke:none"
           id="path4170"
           sodipodi:cx="70.373131"
           sodipodi:cy="79.208954"
           sodipodi:rx="2.7910447"
           sodipodi:ry="2.7910447"
           d="m 73.164176,79.208954 c 0,1.541451 -1.249594,2.791045 -2.791045,2.791045 -1.541452,0 -2.791045,-1.249594 -2.791045,-2.791045 0,-1.541452 1.249593,-2.791045 2.791045,-2.791045 1.541451,0 2.791045,1.249593 2.791045,2.791045 z"
           transform="matrix(1.2467442,0,0,1.0633819,-20.11442,-6.556752)" />
        <path
           transform="matrix(1.0373872,0,0,0.91041754,-5.3813104,5.3629056)"
           d="m 73.164176,79.208954 c 0,1.541451 -1.249594,2.791045 -2.791045,2.791045 -1.541452,0 -2.791045,-1.249594 -2.791045,-2.791045 0,-1.541452 1.249593,-2.791045 2.791045,-2.791045 1.541451,0 2.791045,1.249593 2.791045,2.791045 z"
           sodipodi:ry="2.7910447"
           sodipodi:rx="2.7910447"
           sodipodi:cy="79.208954"
           sodipodi:cx="70.373131"
           id="path4172"
           style="fill:#ffffff;fill-opacity:1;fill-rule:nonzero;stroke:none"
           sodipodi:type="arc" />
        <path
           sodipodi:type="arc"
           style="fill:#114751;fill-opacity:1;fill-rule:nonzero;stroke:none"
           id="path4174"
           sodipodi:cx="70.373131"
           sodipodi:cy="79.208954"
           sodipodi:rx="2.7910447"
           sodipodi:ry="2.7910447"
           d="m 73.164176,79.208954 c 0,1.541451 -1.249594,2.791045 -2.791045,2.791045 -1.541452,0 -2.791045,-1.249594 -2.791045,-2.791045 0,-1.541452 1.249593,-2.791045 2.791045,-2.791045 1.541451,0 2.791045,1.249593 2.791045,2.791045 z"
           transform="matrix(0.70316741,0,0,0.61710417,18.138777,28.595951)" />
        <rect
           ry="1.1481457"
           rx="1.1481457"
           transform="matrix(1.0139776,0,0,0.95205283,3.1886202,-2.9106418)"
           y="83.595505"
           x="40.44944"
           height="3.235955"
           width="12.674157"
           id="rect4176"
           style="opacity:0.75097273;fill:#0c2f31;fill-opacity:0.90454544;stroke:#ffffff;stroke-width:0.49989974;stroke-miterlimit:4;stroke-opacity:1;stroke-dasharray:none" />
      </g>
      <path
         inkscape:connector-curvature="0"
         id="path4972"
         d="m 10.326397,15.040651 c -1.8851052,0 -3.649478,0.91815 -4.7591076,2.271826 l 0,15.088982 c 0,2.404471 2.1225623,4.340201 4.7591076,4.340201 l 80.904853,0 c 2.636547,0 4.759108,-1.93573 4.759108,-4.340201 l 0,-15.088982 C 94.88073,15.958801 93.116357,15.040651 91.23125,15.040651 l -80.904853,0 z m 0,3.255153 80.904853,0 c 1.359428,0 2.379555,0.930332 2.379555,2.1701 l 0,11.935555 c 0,1.239769 -1.020127,2.170101 -2.379555,2.170101 l -80.904853,0 c -1.3594269,0 -2.3795533,-0.930332 -2.3795533,-2.170101 l 0,-11.935555 c 0,-1.239768 1.0201264,-2.1701 2.3795533,-2.1701 z"
         style="font-size:medium;font-style:normal;font-variant:normal;font-weight:normal;font-stretch:normal;text-indent:0;text-align:start;text-decoration:none;line-height:normal;letter-spacing:normal;word-spacing:normal;text-transform:none;direction:ltr;block-progression:tb;writing-mode:lr-tb;text-anchor:start;baseline-shift:baseline;opacity:0.02000002;color:#000000;fill:#000000;fill-opacity:1;fill-rule:nonzero;stroke:none;stroke-width:6;marker:none;visibility:visible;display:inline;overflow:visible;enable-background:accumulate;font-family:Sans;-inkscape-font-specification:Sans" />
      <path
         id="path4970"
         d="m 10.326397,-39.211866 80.904853,0 c 2.636547,0 4.759108,1.935729 4.759108,4.340202 l 0,67.273123 c 0,2.404471 -2.122561,4.340201 -4.759108,4.340201 l -80.904853,0 c -2.6365453,0 -4.7591076,-1.93573 -4.7591076,-4.340201 l 0,-67.273123 c 0,-2.404473 2.1225623,-4.340202 4.7591076,-4.340202 z"
         style="color:#000000;fill:url(#linearGradient11812);fill-opacity:1;fill-rule:nonzero;stroke:none;stroke-width:2;marker:none;visibility:visible;display:inline;overflow:visible;enable-background:accumulate"
         inkscape:connector-curvature="0"
         sodipodi:nodetypes="sssssssss" />
      <g
         transform="matrix(1.0997067,0,0,1.0997068,-99.214742,-40.730115)"
         id="g11519">
        <g
           id="layer2"
           style="display:none">
          <rect
             width="86"
             height="85"
             rx="6"
             ry="6"
             x="5"
             y="7"
             id="rect3745"
             style="opacity:0.9;fill:url(#linearGradient11814);fill-opacity:1;fill-rule:nonzero;stroke:none;filter:url(#filter3174)" />
        </g>
        <g
           id="layer1-8">
          <g
             transform="translate(92,-12)"
             id="g11540">
            <path
               style="opacity:0.3;fill:#000000;overflow:visible"
               id="path4353"
               inkscape:connector-curvature="0"
               d="m 61.195972,18.5 c -3.39725,0 -6.148105,2.765875 -6.148105,6.175575 0,3.409702 2.750855,6.175576 6.148105,6.175576 3.397249,0 6.148104,-2.765874 6.148104,-6.175576 0,-3.4097 -2.750855,-6.175575 -6.148104,-6.175575 z m -12.984108,4.836815 c -3.791558,4.94e-4 -7.635678,0.961696 -11.092383,2.677522 -0.122927,0.06124 -0.199587,0.169934 -0.236466,0.3023 -0.03737,0.132366 -0.02978,0.272112 0.04299,0.388673 l 4.987273,7.924602 c 0.126369,0.201513 0.383102,0.286697 0.601912,0.194336 1.845871,-0.783826 3.761308,-1.166017 5.69667,-1.166017 7.118944,0 13.329718,5.298822 14.445894,12.329556 0.03737,0.236088 0.235436,0.410267 0.472931,0.410267 l 9.372634,0 c 0.136694,0 0.273497,-0.0494 0.365447,-0.151151 0.09195,-0.101744 0.141765,-0.229774 0.128981,-0.36708 -0.505476,-5.216622 -2.725758,-10.267413 -6.234091,-14.186548 -0.15833,-0.177806 -0.423285,-0.194676 -0.62341,-0.06478 -1.414643,0.917674 -3.019703,1.403539 -4.643322,1.403539 -4.736621,0 -8.576759,-3.865338 -8.577251,-8.593982 4.92e-4,-0.0024 0,-0.16484 0,-0.172743 0,-0.235593 -0.175862,-0.456137 -0.408439,-0.496638 -1.481024,-0.257818 -2.918659,-0.431858 -4.299374,-0.431858 z m -15.047807,5.1823 c -0.0649,0.01599 -0.14012,0.04464 -0.193471,0.08637 -4.065439,3.145185 -7.114281,7.56847 -8.598747,12.459115 -0.05802,0.191142 -0.0063,0.393766 0.150478,0.51823 2.043045,1.625441 3.267524,4.127476 3.267524,6.693805 0,2.566329 -1.223986,5.068365 -3.267524,6.693805 -0.155871,0.123969 -0.2085,0.326596 -0.150478,0.51823 1.472665,4.849651 4.497475,9.256065 8.512759,12.394336 0.107685,0.08446 0.230719,0.131672 0.365447,0.107964 0.134237,-0.02321 0.249188,-0.122441 0.322453,-0.237521 l 5.030267,-7.903009 c 0.128336,-0.202007 0.09349,-0.467651 -0.08599,-0.626196 -3.151355,-2.785128 -4.965777,-6.77856 -4.965777,-10.94761 0,-4.200166 1.824471,-8.204679 5.00877,-10.990795 0.179474,-0.157556 0.234837,-0.423201 0.107484,-0.626196 l -4.987273,-7.9246 c -0.07277,-0.115575 -0.188216,-0.192223 -0.322453,-0.21593 -0.06712,-0.01184 -0.128566,-0.01599 -0.193472,0 z M 19.298579,42.07947 c -3.476817,0 -6.298582,2.836828 -6.298582,6.326725 0,3.489897 2.821765,6.305132 6.298582,6.305132 3.476817,0 6.298582,-2.815235 6.298582,-6.305132 0,-3.489897 -2.821765,-6.326725 -6.298582,-6.326725 z m 53.204744,8.162122 -9.372634,0.0216 c -0.23651,4.94e-4 -0.456566,0.176154 -0.494427,0.410265 -1.13142,6.97838 -7.325122,12.243187 -14.424398,12.243187 -1.957981,0 -3.894638,-0.406116 -5.76116,-1.209204 -0.218318,-0.09335 -0.473576,-0.02729 -0.601912,0.172742 l -5.030267,7.924603 c -0.07326,0.116068 -0.07938,0.255812 -0.04299,0.388672 0.03638,0.132366 0.114031,0.241056 0.236466,0.302301 3.483749,1.75188 7.364547,2.677521 11.199867,2.677521 1.42251,0 2.907641,-0.143062 4.406858,-0.410265 0.210451,-0.03705 0.361867,-0.197393 0.386944,-0.410265 0.499575,-4.334014 4.1485,-7.600708 8.491262,-7.600708 1.346296,0 2.731916,0.34132 3.97692,0.993274 0.189307,0.09927 0.408947,0.06723 0.558918,-0.08637 3.926287,-4.021866 6.408372,-9.324414 6.964985,-14.899116 0.01377,-0.136812 -0.03654,-0.264841 -0.128981,-0.367079 -0.09244,-0.102237 -0.228752,-0.151644 -0.365447,-0.151151 z M 61.432437,66.932921 c -3.476817,0 -6.298582,2.811646 -6.298582,6.283539 0,3.471894 2.821765,6.28354 6.298582,6.28354 3.476817,0 6.298582,-2.811646 6.298582,-6.28354 0,-3.471893 -2.821765,-6.283539 -6.298582,-6.283539 z" />
            <path
               style="fill:#ffffff;overflow:visible"
               id="path3324"
               inkscape:connector-curvature="0"
               d="m 61.195972,17.5 c -3.39725,0 -6.148105,2.765875 -6.148105,6.175575 0,3.409702 2.750855,6.175576 6.148105,6.175576 3.397249,0 6.148104,-2.765874 6.148104,-6.175576 0,-3.4097 -2.750855,-6.175575 -6.148104,-6.175575 z m -12.984108,4.836815 c -3.791558,4.94e-4 -7.635678,0.961696 -11.092383,2.677522 -0.122927,0.06124 -0.199587,0.169934 -0.236466,0.3023 -0.03737,0.132366 -0.02978,0.272112 0.04299,0.388673 l 4.987273,7.924602 c 0.126369,0.201513 0.383102,0.286697 0.601912,0.194336 1.845871,-0.783826 3.761308,-1.166017 5.69667,-1.166017 7.118944,0 13.329718,5.298822 14.445894,12.329556 0.03737,0.236088 0.235436,0.410267 0.472931,0.410267 l 9.372634,0 c 0.136694,0 0.273497,-0.0494 0.365447,-0.151151 0.09195,-0.101744 0.141765,-0.229774 0.128981,-0.36708 -0.505476,-5.216622 -2.725758,-10.267413 -6.234091,-14.186548 -0.15833,-0.177806 -0.423285,-0.194676 -0.62341,-0.06478 -1.414643,0.917674 -3.019703,1.403539 -4.643322,1.403539 -4.736621,0 -8.576759,-3.865338 -8.577251,-8.593982 4.92e-4,-0.0024 0,-0.16484 0,-0.172743 0,-0.235593 -0.175862,-0.456137 -0.408439,-0.496638 -1.481024,-0.257818 -2.918659,-0.431858 -4.299374,-0.431858 z m -15.047807,5.1823 c -0.0649,0.01599 -0.14012,0.04464 -0.193471,0.08637 -4.065439,3.145185 -7.114281,7.56847 -8.598747,12.459115 -0.05802,0.191142 -0.0063,0.393766 0.150478,0.51823 2.043045,1.625441 3.267524,4.127476 3.267524,6.693805 0,2.566329 -1.223986,5.068365 -3.267524,6.693805 -0.155871,0.123969 -0.2085,0.326596 -0.150478,0.51823 1.472665,4.849651 4.497475,9.256065 8.512759,12.394336 0.107685,0.08446 0.230719,0.131672 0.365447,0.107964 0.134237,-0.02321 0.249188,-0.122441 0.322453,-0.237521 l 5.030267,-7.903009 c 0.128336,-0.202007 0.09349,-0.467651 -0.08599,-0.626196 -3.151355,-2.785128 -4.965777,-6.77856 -4.965777,-10.94761 0,-4.200166 1.824471,-8.204679 5.00877,-10.990795 0.179474,-0.157556 0.234837,-0.423201 0.107484,-0.626196 l -4.987273,-7.9246 c -0.07277,-0.115575 -0.188216,-0.192223 -0.322453,-0.21593 -0.06712,-0.01184 -0.128566,-0.01599 -0.193472,0 z M 19.298579,41.07947 c -3.476817,0 -6.298582,2.836828 -6.298582,6.326725 0,3.489897 2.821765,6.305132 6.298582,6.305132 3.476817,0 6.298582,-2.815235 6.298582,-6.305132 0,-3.489897 -2.821765,-6.326725 -6.298582,-6.326725 z m 53.204744,8.162122 -9.372634,0.0216 c -0.23651,4.94e-4 -0.456566,0.176154 -0.494427,0.410265 -1.13142,6.97838 -7.325122,12.243187 -14.424398,12.243187 -1.957981,0 -3.894638,-0.406116 -5.76116,-1.209204 -0.218318,-0.09335 -0.473576,-0.02729 -0.601912,0.172742 l -5.030267,7.924603 c -0.07326,0.116068 -0.07938,0.255812 -0.04299,0.388672 0.03638,0.132366 0.114031,0.241056 0.236466,0.302301 3.483749,1.75188 7.364547,2.677521 11.199867,2.677521 1.42251,0 2.907641,-0.143062 4.406858,-0.410265 0.210451,-0.03705 0.361867,-0.197393 0.386944,-0.410265 0.499575,-4.334014 4.1485,-7.600708 8.491262,-7.600708 1.346296,0 2.731916,0.34132 3.97692,0.993274 0.189307,0.09927 0.408947,0.06723 0.558918,-0.08637 3.926287,-4.021866 6.408372,-9.324414 6.964985,-14.899116 0.01377,-0.136812 -0.03654,-0.264841 -0.128981,-0.367079 -0.09244,-0.102237 -0.228752,-0.151644 -0.365447,-0.151151 z M 61.432437,65.932921 c -3.476817,0 -6.298582,2.811646 -6.298582,6.283539 0,3.471894 2.821765,6.28354 6.298582,6.28354 3.476817,0 6.298582,-2.811646 6.298582,-6.28354 0,-3.471893 -2.821765,-6.283539 -6.298582,-6.283539 z" />
          </g>
        </g>
        <g
           id="layer5" />
      </g>
      <path
         sodipodi:nodetypes="sssssssss"
         inkscape:connector-curvature="0"
         style="color:#000000;fill:none;stroke:#000000;stroke-width:2.29036617;stroke-opacity:0.7758007;marker:none;visibility:visible;display:inline;overflow:visible;enable-background:accumulate"
         d="m 11.270555,-38.410668 79.016539,0 c 2.575009,0 4.648031,1.891243 4.648031,4.240455 l 0,65.727034 c 0,2.349214 -2.073022,4.240456 -4.648031,4.240456 l -79.016539,0 c -2.5750095,0 -4.6480317,-1.891242 -4.6480317,-4.240456 l 0,-65.727034 c 0,-2.349212 2.0730222,-4.240455 4.6480317,-4.240455 z"
         id="path4989" />
      <path
         style="opacity:0.72794118;fill:url(#linearGradient11816);fill-opacity:1;fill-rule:nonzero;stroke:none;display:inline"
         d="m 91.559738,-42.940908 -82.0285554,0 c -3.786988,0 -6.835722,3.048728 -6.835722,6.835712 l 0,82.028577 c 0,3.786985 3.048734,6.835709 6.835722,6.835709 l 82.0285554,0 c 3.78699,0 6.835714,-3.048724 6.835714,-6.835709 l 0,-82.028577 c 0,-3.786984 -3.048724,-6.835712 -6.835714,-6.835712 z"
         id="path5696"
         inkscape:connector-curvature="0" />
      <path
         inkscape:connector-curvature="0"
         id="path4974"
         d="m 38.508457,-39.314436 c 8.329396,26.184039 16.984706,51.751268 25.765978,75.953527 l 26.583944,0 c 2.636535,0 4.759079,-1.93573 4.759079,-4.340201 l 0,-67.273123 c 0,-2.404473 -2.122544,-4.340203 -4.759079,-4.340203 l -52.349922,0 z"
         style="opacity:0.30882353;color:#000000;fill:url(#linearGradient11818);fill-opacity:1;fill-rule:nonzero;stroke:none;stroke-width:2;marker:none;visibility:visible;display:inline;overflow:visible;enable-background:accumulate" />
    </g>
  </g>
</svg>
