<?xml version="1.0" encoding="UTF-8" standalone="no"?>
<!-- Created with Inkscape (http://www.inkscape.org/) -->

<svg
   xmlns:dc="http://purl.org/dc/elements/1.1/"
   xmlns:cc="http://creativecommons.org/ns#"
   xmlns:rdf="http://www.w3.org/1999/02/22-rdf-syntax-ns#"
   xmlns:svg="http://www.w3.org/2000/svg"
   xmlns="http://www.w3.org/2000/svg"
   xmlns:xlink="http://www.w3.org/1999/xlink"
   xmlns:sodipodi="http://sodipodi.sourceforge.net/DTD/sodipodi-0.dtd"
   xmlns:inkscape="http://www.inkscape.org/namespaces/inkscape"
   width="96"
   height="96"
   version="1.1"
   id="svg32"
   sodipodi:docname="start-button.svg"
   inkscape:version="0.92.2 5c3e80d, 2017-08-06">
  <sodipodi:namedview
     pagecolor="#ffffff"
     bordercolor="#666666"
     borderopacity="1"
     objecttolerance="10"
     gridtolerance="10"
     guidetolerance="10"
     inkscape:pageopacity="0"
     inkscape:pageshadow="2"
     inkscape:window-width="1280"
     inkscape:window-height="974"
     id="namedview34"
     showgrid="false"
     inkscape:zoom="3.9417405"
     inkscape:cx="32"
     inkscape:cy="44.941406"
     inkscape:window-x="0"
     inkscape:window-y="21"
     inkscape:window-maximized="1"
     inkscape:current-layer="svg32" />
  <defs
     id="defs12">
    <radialGradient
       id="b"
       cx="39.375999"
       cy="40.075001"
       r="32"
       gradientTransform="matrix(1.0269,0,0,1.0109,-0.43613,32.48883)"
       gradientUnits="userSpaceOnUse">
      <stop
         stop-color="#0605dc"
         stop-opacity=".074579"
         offset="0"
         id="stop2" />
      <stop
         stop-color="#2d09ec"
         stop-opacity="0"
         offset="1"
         id="stop4" />
    </radialGradient>
    <radialGradient
       id="a"
       cx="32"
       cy="33"
       r="16"
       gradientTransform="matrix(0.875,0,0,0.875,4,36.125)"
       gradientUnits="userSpaceOnUse">
      <stop
         stop-color="#dbeef5"
         offset="0"
         id="stop7" />
      <stop
         stop-color="#eaf5f9"
         offset="1"
         id="stop9" />
    </radialGradient>
    <linearGradient
       inkscape:collect="always"
       xlink:href="#linearGradient6139-0"
       id="linearGradient4071"
       gradientUnits="userSpaceOnUse"
       gradientTransform="matrix(1.1071428,0,0,1.1071426,-4.9939026,-3.620687)"
       x1="6"
       y1="47.000011"
       x2="90"
       y2="47.000011" />
    <linearGradient
       id="linearGradient6139-0">
      <stop
         id="stop6141-2"
         offset="0"
         style="stop-color:#b4b9ba;stop-opacity:1" />
      <stop
         style="stop-color:#ffffff;stop-opacity:1;"
         offset="0.25"
         id="stop6151-0" />
      <stop
         style="stop-color:#98a0a2;stop-opacity:1"
         offset="0.5"
         id="stop6147-1" />
      <stop
         id="stop6149-4"
         offset="0.75"
         style="stop-color:#f9fbfb;stop-opacity:1" />
      <stop
         id="stop6143-4"
         offset="1"
         style="stop-color:#b4b9ba;stop-opacity:1" />
    </linearGradient>
    <linearGradient
       gradientTransform="translate(0.1489535,0.415026)"
       inkscape:collect="always"
       xlink:href="#linearGradient3832-0-6-1-1"
       id="linearGradient4129"
       x1="1.5"
       y1="88.171875"
       x2="94.5"
       y2="88.171875"
       gradientUnits="userSpaceOnUse" />
    <linearGradient
       id="linearGradient3832-0-6-1-1">
      <stop
         style="stop-color:#000000;stop-opacity:1;"
         offset="0"
         id="stop3834-6-3-7-1" />
      <stop
         id="stop3872-2-4"
         offset="0.1"
         style="stop-color:#000000;stop-opacity:0.58823532;" />
      <stop
         style="stop-color:#000000;stop-opacity:0.58823532;"
         offset="0.89999998"
         id="stop3844-6-2-7-6" />
      <stop
         style="stop-color:#000000;stop-opacity:1;"
         offset="1"
         id="stop3836-5-0-2-9" />
    </linearGradient>
    <radialGradient
       inkscape:collect="always"
       xlink:href="#linearGradient3737"
       id="radialGradient7462"
       gradientUnits="userSpaceOnUse"
       gradientTransform="matrix(0.97513378,0,0,0.04919072,34.047649,80.581722)"
       cx="13.948145"
       cy="44.892841"
       fx="13.948145"
       fy="44.892841"
       r="43.199203" />
    <linearGradient
       id="linearGradient3737">
      <stop
         offset="0"
         style="stop-color:#ffffff;stop-opacity:1"
         id="stop3739" />
      <stop
         offset="1"
         style="stop-color:#ffffff;stop-opacity:0"
         id="stop3741" />
    </linearGradient>
    <radialGradient
       inkscape:collect="always"
       xlink:href="#linearGradient3737"
       id="radialGradient7464"
       gradientUnits="userSpaceOnUse"
       gradientTransform="matrix(0.88832663,0,0,0.04919072,31.959518,-90.31726)"
       cx="13.948145"
       cy="44.892841"
       fx="13.948145"
       fy="44.892841"
       r="43.199203" />
    <linearGradient
       inkscape:collect="always"
       xlink:href="#linearGradient3737"
       id="linearGradient4767"
       gradientUnits="userSpaceOnUse"
       x1="2.7713892"
       y1="-28.64156"
       x2="50.527882"
       y2="14.514202" />
    <clipPath
       id="clipPath4156-4-1"
       clipPathUnits="userSpaceOnUse">
      <path
         inkscape:connector-curvature="0"
         id="path4158-0-8"
         d="m 27.046336,-55.695463 -14.21366,13.321486 h 0.06127 l 15.653407,21.770763 10.231384,-10.546177 C 38.561832,-32.30156 27.468089,-54.819245 27.046336,-55.695463 Z M 9.6468554,-39.382809 -5.2407289,-25.32124 15.987863,-7.8059573 26.372412,-18.382966 Z m 31.4906096,12.951445 -9.741259,9.713584 8.944804,12.4580526 7.780753,-7.5550056 z m -49.8397109,4.378822 -13.7541661,12.9822847 26.2830181,13.84571 0.06127,-0.0617 -0.122531,-0.0617 L 13.598503,-5.4007374 -8.7022409,-22.052595 Z m 38.0154159,7.400825 -9.802525,9.7752596 11.579232,9.5594001 7.62759,-7.40083 -8.669108,-11.0087257 z m 20.187073,5.6739697 -7.382526,7.2158 6.187844,8.54179 5.820249,-6.13651996 z m -32.195166,6.32154 -9.5574606,9.49772 13.6622686,7.1849703 7.933918,-7.6783603 z m 23.311629,2.37443004 -7.10683,6.93826996 8.362778,6.9074403 5.360756,-5.6739699 -0.06127,-0.0925 -0.0919,0.12335 -6.463539,-8.20258036 z m -8.730374,8.54178036 -7.505057,7.3391599 10.353916,5.45811 c 1.397496,-1.32103 5.67514,-6.12292 5.850882,-6.32154 z"
         style="opacity:0.6;fill:#ffffff;fill-opacity:1;stroke:none" />
    </clipPath>
    <linearGradient
       gradientTransform="matrix(0.38144581,0,0,0.20265825,-151.38393,120.42138)"
       y2="347.07217"
       x2="193.53125"
       y1="221.91426"
       x1="193.53125"
       gradientUnits="userSpaceOnUse"
       id="linearGradient3717-2"
       xlink:href="#linearGradient10039-2"
       inkscape:collect="always" />
    <linearGradient
       id="linearGradient10039-2">
      <stop
         id="stop10041-0"
         style="stop-color:#efefef;stop-opacity:1"
         offset="0" />
      <stop
         id="stop10043-4"
         style="stop-color:#bcbcbc;stop-opacity:1"
         offset="1" />
    </linearGradient>
    <linearGradient
       id="linearGradient10031-4">
      <stop
         id="stop10033-6"
         style="stop-color:#ffffff;stop-opacity:0.90196079"
         offset="0" />
      <stop
         id="stop10370-9"
         style="stop-color:#ffffff;stop-opacity:0.50196081"
         offset="0.5" />
      <stop
         id="stop10035-8"
         style="stop-color:#ffffff;stop-opacity:0"
         offset="1" />
    </linearGradient>
    <filter
       x="-0.14571542"
       y="-0.33999386"
       width="1.2914308"
       height="1.6799877"
       id="filter12102-3"
       style="color-interpolation-filters:sRGB">
      <feGaussianBlur
         id="feGaussianBlur12104-6"
         stdDeviation="9.3045363" />
    </filter>
    <radialGradient
       r="36.125"
       fy="51.545879"
       fx="232.90625"
       cy="51.545879"
       cx="232.90625"
       gradientTransform="matrix(-0.99472773,-0.01630016,0.01512705,-0.90418278,134.28905,81.467337)"
       gradientUnits="userSpaceOnUse"
       id="radialGradient3728-4"
       xlink:href="#linearGradient11291-2"
       inkscape:collect="always" />
    <linearGradient
       id="linearGradient11291-2">
      <stop
         id="stop11293-4"
         style="stop-color:#ffffff;stop-opacity:0.90196079"
         offset="0" />
      <stop
         id="stop11295-2"
         style="stop-color:#ffffff;stop-opacity:0.50196081"
         offset="0.32802752" />
      <stop
         id="stop11297-4"
         style="stop-color:#ffffff;stop-opacity:0"
         offset="1" />
    </linearGradient>
    <filter
       x="-0.18606396"
       y="-0.19982085"
       width="1.3721279"
       height="1.3996418"
       id="filter11252-9"
       style="color-interpolation-filters:sRGB">
      <feGaussianBlur
         id="feGaussianBlur11254-6"
         stdDeviation="5.2752828" />
    </filter>
    <filter
       x="-0.1693299"
       y="-0.12526216"
       width="1.3386598"
       height="1.2505243"
       id="filter11182-5"
       style="color-interpolation-filters:sRGB">
      <feGaussianBlur
         id="feGaussianBlur11184-3"
         stdDeviation="4.0317543" />
    </filter>
    <linearGradient
       gradientTransform="matrix(0.56096305,0,0,0.55517317,-227.26174,-31.347737)"
       y2="130.46875"
       x2="179.78125"
       y1="94.96875"
       x1="128.40625"
       gradientUnits="userSpaceOnUse"
       id="linearGradient3730-0"
       xlink:href="#linearGradient10031-4"
       inkscape:collect="always" />
    <radialGradient
       r="35.125"
       fy="125.41722"
       fx="113.13426"
       cy="125.41722"
       cx="113.13426"
       gradientTransform="matrix(-0.91072351,0.9988065,-0.86962175,-0.7766484,90.088523,3.1103067)"
       gradientUnits="userSpaceOnUse"
       id="radialGradient3732-5"
       xlink:href="#linearGradient11121-5"
       inkscape:collect="always" />
    <linearGradient
       id="linearGradient11121-5">
      <stop
         id="stop11123-4"
         style="stop-color:#ffffff;stop-opacity:0.90196079"
         offset="0" />
      <stop
         id="stop11125-1"
         style="stop-color:#ffffff;stop-opacity:0.50196081"
         offset="0.45320001" />
      <stop
         id="stop11127-3"
         style="stop-color:#ffffff;stop-opacity:0"
         offset="1" />
    </linearGradient>
    <linearGradient
       gradientTransform="matrix(0.56096305,0,0,0.55517317,-227.26174,-31.347737)"
       y2="88.420464"
       x2="155.01221"
       y1="55.221191"
       x1="155.01221"
       gradientUnits="userSpaceOnUse"
       id="linearGradient3734-3"
       xlink:href="#linearGradient10031-4"
       inkscape:collect="always" />
    <linearGradient
       gradientTransform="matrix(0.56096305,0,0,0.55517317,-227.26174,-31.347737)"
       y2="91.96846"
       x2="233.84886"
       y1="72.522697"
       x1="233.84886"
       gradientUnits="userSpaceOnUse"
       id="linearGradient3736-0"
       xlink:href="#linearGradient10031-4"
       inkscape:collect="always" />
    <linearGradient
       gradientTransform="matrix(0.56096305,0,0,0.55517317,-227.26174,-31.347737)"
       y2="130.01561"
       x2="258.875"
       y1="91.015617"
       x1="223.03125"
       gradientUnits="userSpaceOnUse"
       id="linearGradient3738-6"
       xlink:href="#linearGradient11360-8"
       inkscape:collect="always" />
    <linearGradient
       id="linearGradient11360-8">
      <stop
         id="stop11362-2"
         style="stop-color:#ffffff;stop-opacity:0.90196079"
         offset="0" />
      <stop
         id="stop11364-1"
         style="stop-color:#ffffff;stop-opacity:0.50196081"
         offset="0.31528139" />
      <stop
         id="stop11366-3"
         style="stop-color:#ffffff;stop-opacity:0"
         offset="1" />
    </linearGradient>
    <linearGradient
       gradientTransform="matrix(0.56096305,0,0,0.55517317,-227.26174,-31.347737)"
       y2="99.135406"
       x2="183.0625"
       y1="158.78125"
       x1="173.5625"
       gradientUnits="userSpaceOnUse"
       id="linearGradient3740-1"
       xlink:href="#linearGradient11532-4"
       inkscape:collect="always" />
    <linearGradient
       id="linearGradient11532-4">
      <stop
         id="stop11534-9"
         style="stop-color:#ffffff;stop-opacity:0.90196079"
         offset="0" />
      <stop
         id="stop11536-0"
         style="stop-color:#ffffff;stop-opacity:0.50196081"
         offset="0.17569453" />
      <stop
         id="stop11538-0"
         style="stop-color:#ffffff;stop-opacity:0"
         offset="1" />
    </linearGradient>
    <linearGradient
       gradientTransform="matrix(0.56096305,0,0,0.55517317,-227.26174,-31.347737)"
       y2="169.46875"
       x2="228.69044"
       y1="169.46875"
       x1="156.37009"
       gradientUnits="userSpaceOnUse"
       id="linearGradient3742-3"
       xlink:href="#linearGradient10433-4"
       inkscape:collect="always" />
    <linearGradient
       id="linearGradient10433-4">
      <stop
         id="stop10435-7"
         style="stop-color:#d99600;stop-opacity:1"
         offset="0" />
      <stop
         id="stop10437-6"
         style="stop-color:#dfa800;stop-opacity:1"
         offset="1" />
    </linearGradient>
    <filter
       id="filter10487-8"
       style="color-interpolation-filters:sRGB">
      <feGaussianBlur
         id="feGaussianBlur10489-9"
         stdDeviation="1.3416777" />
    </filter>
    <filter
       x="-0.13610192"
       y="-0.18271257"
       width="1.2722038"
       height="1.3654251"
       id="filter10857-2"
       style="color-interpolation-filters:sRGB">
      <feGaussianBlur
         id="feGaussianBlur10859-0"
         stdDeviation="3.20761" />
    </filter>
    <linearGradient
       gradientTransform="matrix(0.56096305,0,0,0.55517317,-227.26174,-31.347737)"
       y2="174.625"
       x2="196.81396"
       y1="142.375"
       x1="215.9375"
       gradientUnits="userSpaceOnUse"
       id="linearGradient3744-4"
       xlink:href="#linearGradient10762-4"
       inkscape:collect="always" />
    <linearGradient
       id="linearGradient10762-4">
      <stop
         id="stop10764-8"
         style="stop-color:#ffffff;stop-opacity:1"
         offset="0" />
      <stop
         id="stop10766-1"
         style="stop-color:#ffffff;stop-opacity:0.19607843"
         offset="1" />
    </linearGradient>
    <linearGradient
       gradientTransform="matrix(0.56096305,0,0,0.55517317,-227.26174,-31.347737)"
       y2="176.04688"
       x2="183.34375"
       y1="182.03799"
       x1="177.01546"
       gradientUnits="userSpaceOnUse"
       id="linearGradient3746-7"
       xlink:href="#linearGradient10762-4"
       inkscape:collect="always" />
    <linearGradient
       gradientTransform="matrix(0.56096305,0,0,0.55517317,-227.26174,-31.347737)"
       y2="109.71875"
       x2="204.4375"
       y1="154.97546"
       x1="204.4375"
       gradientUnits="userSpaceOnUse"
       id="linearGradient3750-0"
       xlink:href="#linearGradient11524-7"
       inkscape:collect="always" />
    <linearGradient
       id="linearGradient11524-7">
      <stop
         id="stop11526-8"
         style="stop-color:#ffffff;stop-opacity:0.90196079"
         offset="0" />
      <stop
         id="stop11528-2"
         style="stop-color:#ffffff;stop-opacity:0.50196081"
         offset="0.23175907" />
      <stop
         id="stop11530-4"
         style="stop-color:#ffffff;stop-opacity:0"
         offset="1" />
    </linearGradient>
    <linearGradient
       gradientTransform="matrix(0.56096305,0,0,0.55517317,-227.26174,-31.347737)"
       y2="127.13049"
       x2="183.1875"
       y1="105.875"
       x1="183.1875"
       gradientUnits="userSpaceOnUse"
       id="linearGradient3752-6"
       xlink:href="#linearGradient10031-4"
       inkscape:collect="always" />
    <linearGradient
       gradientTransform="matrix(0.56096305,0,0,0.55517317,-227.26174,-31.347737)"
       y2="140.17188"
       x2="207.0625"
       y1="108.34375"
       x1="208.34375"
       gradientUnits="userSpaceOnUse"
       id="linearGradient3754-6"
       xlink:href="#linearGradient11633-7"
       inkscape:collect="always" />
    <linearGradient
       id="linearGradient11633-7">
      <stop
         id="stop11635-2"
         style="stop-color:#ffffff;stop-opacity:0.90196079"
         offset="0" />
      <stop
         id="stop11637-9"
         style="stop-color:#ffffff;stop-opacity:0.50196081"
         offset="0.3093777" />
      <stop
         id="stop11639-3"
         style="stop-color:#ffffff;stop-opacity:0"
         offset="1" />
    </linearGradient>
  </defs>
  <metadata
     id="metadata14">
    <rdf:RDF>
      <cc:Work
         rdf:about="">
        <dc:format>image/svg+xml</dc:format>
        <dc:type
           rdf:resource="http://purl.org/dc/dcmitype/StillImage" />
        <dc:title></dc:title>
        <dc:date>2018</dc:date>
        <dc:creator>
          <cc:Agent>
            <dc:title>Cristian Pozzessere  == ilnanny ==</dc:title>
          </cc:Agent>
        </dc:creator>
        <dc:subject>
          <rdf:Bag>
            <rdf:li>Global language</rdf:li>
          </rdf:Bag>
        </dc:subject>
        <dc:description>Playing with Inkscape on Gnu/Linux O. S.</dc:description>
        <dc:contributor>
          <cc:Agent>
            <dc:title>In the night, alone like a dog.</dc:title>
          </cc:Agent>
        </dc:contributor>
      </cc:Work>
    </rdf:RDF>
  </metadata>
  <g
     transform="translate(0,-1026.5197)"
     id="layer1"
     inkscape:label="Livello 1">
    <g
       id="g2574"
       style="display:inline"
       transform="translate(-0.14895645,1026.1047)">
      <path
         style="display:inline;opacity:0.15;fill:#000000;fill-opacity:1;fill-rule:nonzero;stroke:none"
         d="M 89.29181,0.415026 H 7.0060911 c -3.798848,0 -6.8571352,3.058285 -6.8571352,6.8571399 V 89.557884 c 0,3.798857 3.0582872,6.857142 6.8571352,6.857142 H 89.29181 c 3.798857,0 6.857147,-3.058285 6.857147,-6.857142 V 7.2721659 c 0,-3.7988549 -3.05829,-6.8571399 -6.857147,-6.8571399 z"
         id="path3288"
         inkscape:connector-curvature="0" />
      <path
         inkscape:connector-curvature="0"
         id="path4085"
         d="M 88.648954,1.165026 H 7.6489471 c -3.739492,0 -6.749993,3.010499 -6.749993,6.7499969 V 88.915026 c 0,3.739501 3.010501,6.75 6.749993,6.75 H 88.648954 c 3.739503,0 6.750003,-3.010499 6.750003,-6.75 V 7.9150229 c 0,-3.7394979 -3.0105,-6.7499969 -6.750003,-6.7499969 z"
         style="display:inline;opacity:0.15;fill:#000000;fill-opacity:1;fill-rule:nonzero;stroke:none" />
      <path
         style="display:inline;fill:url(#linearGradient4071);fill-opacity:1;fill-rule:nonzero;stroke:none"
         d="M 88.006093,1.915026 H 8.2918111 c -3.680143,0 -6.6428566,2.962713 -6.6428566,6.6428549 V 88.272171 c 0,3.680142 2.9627136,6.642856 6.6428566,6.642856 H 88.006093 c 3.680143,0 6.642854,-2.962714 6.642854,-6.642856 V 8.5578809 c 0,-3.6801419 -2.962711,-6.6428549 -6.642854,-6.6428549 z"
         id="rect4251-1"
         inkscape:connector-curvature="0" />
      <path
         style="display:inline;opacity:0.86699997;fill:#050505;fill-opacity:1;fill-rule:nonzero;stroke:none;stroke-width:1.04794002"
         d="m 11.45098,6.1381491 c -2.8903524,0 -5.1848614,2.3433041 -5.1848614,5.2951179 v 21.941642 7.413164 40.871687 c 1.1102449,1.724916 3.0040366,2.87922 5.1848614,2.87922 h 4.14789 66.366237 4.147889 c 2.180827,0 4.074618,-1.154304 5.184863,-2.87922 V 40.788073 33.374909 11.433267 c 0,-2.9518138 -2.294509,-5.2951179 -5.184863,-5.2951179 z"
         id="path3400-6"
         inkscape:connector-curvature="0"
         sodipodi:nodetypes="sscccsccscccsss" />
      <path
         inkscape:connector-curvature="0"
         id="path932"
         d="m 48.109382,64.280234 c -19.612007,0 -35.529085,9.065922 -35.749488,20.297195 h 70.578975 c 0.311738,0 0.615724,0.02557 0.921923,0.0477 C 83.684839,73.37172 67.749288,64.280234 48.109382,64.280234 Z"
         style="opacity:0.75899999;fill:#ffffff;fill-opacity:0.93197279;fill-rule:evenodd;stroke:none;stroke-width:4.20949316;stroke-linecap:square;stroke-linejoin:round;stroke-miterlimit:4;stroke-dasharray:none;stroke-dashoffset:0;stroke-opacity:1;paint-order:markers stroke fill" />
      <g
         style="stroke:none"
         id="g1752"
         transform="matrix(0.81156272,0,0,0.81249809,135.1291,14.225375)">
        <path
           style="color:#000000;display:inline;overflow:visible;visibility:visible;fill:#000000;fill-opacity:1;stroke:none;stroke-width:1.96890533;marker:none;filter:url(#filter12102-3);enable-background:accumulate"
           id="path3548"
           d="m 117.21875,133 c 3.86328,15.28234 13.55573,28.89702 28.4375,33.9375 4.88727,1.71766 9.86999,2.04823 14.6875,1.3125 1.40518,1.76541 2.91584,3.38972 4.1875,4.78125 7.82566,7.97672 13.86312,18.16465 23.03125,24.59375 6.38583,2.99458 13.20452,-0.8042 16.875,-6.125 7.67576,-9.63597 17.21378,-18.03335 23.65625,-28.5 1.00969,-1.75724 1.28581,-3.57044 1.0625,-5.3125 3.50296,0.2916 7.036,0.11556 10.5,-0.5625 13.59576,-1.77777 25.78588,-11.56212 30.8125,-24.125 H 194.625 c 1.0648,2.75486 2.48586,5.33579 4.1875,7.71875 -2.22604,-0.27085 -4.47175,-0.39284 -6.71875,-0.375 0.9466,-2.37615 1.71886,-4.83848 2.34375,-7.34375 z"
           inkscape:connector-curvature="0"
           transform="matrix(0.42982351,0,0,0.42538716,-189.7976,-23.816311)" />
        <g
           transform="translate(10.428905,0.29448669)"
           id="g972">
          <path
             inkscape:connector-curvature="0"
             d="m -139.78657,0.86965561 c -0.27889,0.002387 -0.56224,0.005629 -0.84144,0.0173492 a 3.6466245,3.6089864 0 0 0 -0.0175,0 C -155.97678,1.6063099 -166.32,15.10165 -167.86974,28.211934 c -0.003,0.01699 0.003,0.03509 0,0.05202 -0.003,0.02338 -0.015,0.04602 -0.0175,0.06939 h 0.0175 c -0.66199,4.686216 -0.33946,9.605712 0.92909,14.29571 h 6.6439 c -0.72016,-2.697653 -1.12192,-5.586386 -1.12192,-8.587836 0,-14.932693 9.66763,-27.0299936 21.57955,-27.0299936 8.90651,0 16.53548,6.7728216 19.82653,16.4296556 0.0104,0.02972 0.0251,0.05697 0.0351,0.08675 0.0212,0.05873 0.0493,0.114601 0.0701,0.173491 -0.004,0.0068 -0.0136,0.01057 -0.0175,0.01734 1.05212,3.184839 1.64782,6.661118 1.64782,10.322751 0,3.00145 -0.40177,5.890183 -1.12193,8.587835 h 2.57694 c -0.93869,-2.200101 -1.45501,-4.593154 -1.45501,-7.095807 0,-10.815506 9.60942,-19.587204 21.47437,-19.587204 6.085439,0 11.587718,2.313975 15.496604,6.020159 2.20481,1.777451 4.027458,3.979315 5.223969,6.523286 a 3.6466245,3.6089864 0 0 0 0.07012,0.138792 c 2.26675,4.33763 1.984777,9.469728 0.03505,14.000774 h 7.941133 c 1.65695,-5.559198 1.412651,-11.632499 -1.437468,-17.175669 -0.023,-0.04475 -0.02922,-0.0941 -0.05256,-0.138794 l -0.0175,0.01732 C -74.527072,14.887885 -86.047149,9.104376 -97.31103,9.8911641 v -0.017349 c -0.0414,0.00167 -0.08136,0.015484 -0.122706,0.017349 -6.465674,0.2919039 -12.573244,3.0818999 -17.232094,7.3560439 -2.79247,-5.514686 -7.14967,-10.2926707 -13.07745,-13.4976471 a 3.6466245,3.6089864 0 0 0 -0.0701,-0.017349 c -3.66082,-1.8946078 -7.78984,-2.89850632 -11.97318,-2.86255607 z"
             id="path3562"
             style="color:#000000;font-style:normal;font-variant:normal;font-weight:normal;font-stretch:normal;font-size:medium;line-height:normal;font-family:AlArabiya;-inkscape-font-specification:AlArabiya;text-indent:0;text-align:start;text-decoration:none;text-decoration-line:none;letter-spacing:normal;word-spacing:normal;text-transform:none;writing-mode:lr-tb;direction:ltr;text-anchor:start;display:inline;overflow:visible;visibility:visible;fill:#000000;fill-opacity:1;stroke:none;stroke-width:7.25478792;marker:none;enable-background:accumulate" />
          <path
             inkscape:connector-curvature="0"
             d="m -75.310829,35.537264 a 21.483397,19.5832 0 1 1 -42.966791,0 21.483397,19.5832 0 1 1 42.966791,0 z"
             id="path3564"
             style="color:#000000;display:inline;overflow:visible;visibility:visible;fill:#838383;fill-opacity:1;stroke:none;stroke-width:1.11612129;stroke-linecap:round;stroke-linejoin:round;stroke-miterlimit:4;stroke-dasharray:none;stroke-dashoffset:0;stroke-opacity:1;marker:none;enable-background:accumulate" />
          <path
             inkscape:connector-curvature="0"
             d="m -76.345148,41.553439 c -4.668339,3.670256 -12.290913,6.072208 -20.913404,6.072208 -7.860128,0 -14.896958,-1.986366 -19.616178,-5.118003 3.08337,7.371344 10.90249,12.61284 20.071961,12.61284 9.561879,0 17.672249,-5.695621 20.457621,-13.567045 z"
             id="path3566"
             style="color:#000000;display:inline;overflow:visible;visibility:visible;fill:url(#radialGradient3728-4);fill-opacity:1;stroke:none;stroke-width:1.11612141;marker:none;enable-background:accumulate" />
          <path
             inkscape:connector-curvature="0"
             d="M 230.5625,89.15625 C 209.8308,88.739692 191.20134,112.31236 200.59375,132 c 9.83037,23.32855 46.5842,26.90158 60.65625,5.78125 9.87539,-13.04031 6.23537,-33.71256 -7.875,-42.25 -6.64233,-4.600103 -14.80406,-6.737157 -22.8125,-6.375 z"
             transform="matrix(0.54597357,-0.12748275,0.11500079,0.48240218,-237.62683,4.4826949)"
             id="path3568"
             style="color:#000000;display:inline;overflow:visible;visibility:visible;fill:#d7d7d7;fill-opacity:1;stroke:none;stroke-width:2.1166954;stroke-linecap:round;stroke-linejoin:round;stroke-miterlimit:4;stroke-dasharray:none;stroke-dashoffset:0;stroke-opacity:1;marker:none;filter:url(#filter11252-9);enable-background:accumulate" />
          <path
             inkscape:connector-curvature="0"
             d="m -106.23097,37.017366 a 5.3549062,8.2193269 0 1 1 -10.70981,0 5.3549062,8.2193269 0 1 1 10.70981,0 z"
             id="path3570"
             style="color:#000000;display:inline;overflow:visible;visibility:visible;fill:#000000;stroke:none;stroke-width:1.11611712;stroke-linecap:round;stroke-linejoin:round;stroke-miterlimit:4;stroke-dasharray:none;stroke-dashoffset:0;stroke-opacity:1;marker:none;enable-background:accumulate" />
          <path
             inkscape:connector-curvature="0"
             d="m -118.2792,34.049228 a 21.568431,27.038159 0 1 1 -43.13684,0 21.568431,27.038159 0 1 1 43.13684,0 z"
             id="path3572"
             style="color:#000000;display:inline;overflow:visible;visibility:visible;fill:#bababa;fill-opacity:1;stroke:none;stroke-width:1.1161238;marker:none;enable-background:accumulate" />
          <path
             transform="matrix(0.56096306,0,0,0.55517317,-227.26174,-31.347738)"
             inkscape:connector-curvature="0"
             d="m 155.3125,79.1875 c -16.57248,1.28785 -26.6628,18.248439 -27.75,33.5 -2.08524,17.82731 6.52494,39.67223 25.625,43.625 16.19611,1.48155 28.44978,-14.64357 30.34375,-29.5 3.55413,-17.92454 -3.7612,-40.379181 -22.25,-46.9375 -1.94311,-0.505938 -3.95464,-0.811933 -5.96875,-0.6875 z"
             id="path3574"
             style="color:#000000;display:inline;overflow:visible;visibility:visible;fill:#d7d7d7;fill-opacity:1;stroke:none;stroke-width:1.96890533;marker:none;filter:url(#filter11182-5);enable-background:accumulate" />
          <path
             inkscape:connector-curvature="0"
             d="m -139.83915,7.0112588 c -6.02976,0 -10.93203,2.3167238 -14.84602,7.3169242 0.79338,-0.09746 1.60503,-0.156142 2.41915,-0.156142 16.53212,0 23.54095,14.123292 23.54095,30.573645 0,5.189869 -1.05708,10.064162 -2.94506,14.313057 7.85331,-4.040832 13.393,-13.716529 13.393,-25.017491 0,-14.932693 -9.6501,-27.0299932 -21.56202,-27.0299932 z"
             id="path3576"
             style="color:#000000;display:inline;overflow:visible;visibility:visible;fill:url(#linearGradient3730-0);fill-opacity:1;stroke:none;stroke-width:1.11612117;marker:none;enable-background:accumulate" />
          <path
             inkscape:connector-curvature="0"
             d="m -153.86323,13.517195 c -4.61846,4.958955 -7.55548,12.30323 -7.55548,20.524057 0,14.932693 9.66764,27.047344 21.57956,27.047344 7.40949,0 13.94512,-4.680259 17.82811,-11.814779 -3.09868,2.775904 -6.6571,4.354639 -10.44795,4.354639 -11.95299,0 -21.64966,-15.702734 -21.64966,-35.080005 0,-1.708901 0.0998,-3.387684 0.24542,-5.031256 z"
             id="path3578"
             style="color:#000000;display:inline;overflow:visible;visibility:visible;fill:url(#radialGradient3732-5);fill-opacity:1;stroke:none;stroke-width:1.09876847;marker:none;enable-background:accumulate" />
          <path
             inkscape:connector-curvature="0"
             d="m -120.31206,36.698748 a 5.5532566,9.2743962 0 1 1 -11.10651,0 5.5532566,9.2743962 0 1 1 11.10651,0 z"
             id="path3580"
             style="color:#000000;display:inline;overflow:visible;visibility:visible;fill:#000000;stroke:none;stroke-width:1.11612153;stroke-linecap:round;stroke-linejoin:round;stroke-miterlimit:4;stroke-dasharray:none;stroke-dashoffset:0;stroke-opacity:1;marker:none;enable-background:accumulate" />
          <path
             inkscape:connector-curvature="0"
             d="m -139.31396,1.9815342 c -11.63555,0 -22.471,8.7301768 -25.79675,19.5509728 h 0.0343 c 3.63991,-8.511561 13.51411,-16.0454206 24.59545,-16.0454206 11.08133,0 21.30261,7.5338596 24.94254,16.0454206 h 0.0378 C -118.82631,10.711711 -127.67844,1.9815342 -139.31399,1.9815342 Z"
             id="path3582"
             style="color:#000000;display:inline;overflow:visible;visibility:visible;fill:url(#linearGradient3734-3);fill-opacity:1;stroke:none;stroke-width:0.55806059;marker:none;enable-background:accumulate" />
          <path
             inkscape:connector-curvature="0"
             d="m -95.165105,11.261803 c -8.547285,0 -16.023365,3.379711 -20.071955,8.414344 4.84977,-2.851716 10.97049,-5.431732 18.132644,-5.431732 10.57439,0 20.127366,4.633102 24.605724,10.185402 -2.408062,-7.546591 -11.641351,-13.168014 -22.666413,-13.168014 z"
             id="path3584"
             style="color:#000000;display:inline;overflow:visible;visibility:visible;fill:url(#linearGradient3736-0);fill-opacity:1;stroke:none;stroke-width:0.55806059;marker:none;enable-background:accumulate" />
          <path
             inkscape:connector-curvature="0"
             d="m -118.2792,34.049228 a 21.568431,27.038159 0 1 1 -43.13684,0 21.568431,27.038159 0 1 1 43.13684,0 z"
             id="path3586"
             style="color:#000000;display:inline;overflow:visible;visibility:visible;fill:none;stroke:none;stroke-width:1.1161238;stroke-opacity:1;marker:none;enable-background:accumulate" />
          <path
             inkscape:connector-curvature="0"
             d="m -96.802769,15.946077 c -4.242491,0 -8.186241,1.136057 -11.517271,3.070801 12.285656,0.443909 22.105449,9.848789 22.105449,21.408866 0,5.443934 -2.181367,10.40998 -5.767402,14.191614 9.545729,-1.993266 16.671121,-9.778159 16.671121,-19.084078 0,-10.815506 -9.626951,-19.587203 -21.491897,-19.587203 z"
             id="path3588"
             style="color:#000000;display:inline;overflow:visible;visibility:visible;fill:url(#linearGradient3738-6);fill-opacity:1;stroke:none;stroke-width:1.11612141;marker:none;enable-background:accumulate" />
          <path
             inkscape:connector-curvature="0"
             d="m -127.83103,28.038443 c -2.09482,1.327314 -3.59368,4.693373 -3.59368,8.657232 0,5.122104 2.49007,9.2818 5.55704,9.2818 1.27205,0 2.44702,-0.724256 3.38331,-1.925756 -0.29386,0.06019 -0.5888,0.104095 -0.89404,0.104095 -3.54346,0 -6.41602,-4.194439 -6.41602,-9.368548 0,-2.650845 0.75147,-5.04458 1.96339,-6.748823 z"
             id="path3590"
             style="color:#000000;display:inline;overflow:visible;visibility:visible;fill:url(#linearGradient3740-1);fill-opacity:1;stroke:none;stroke-width:1.11612117;stroke-linecap:round;stroke-linejoin:round;stroke-miterlimit:4;stroke-dasharray:none;stroke-dashoffset:0;stroke-opacity:1;marker:none;enable-background:accumulate" />
          <path
             inkscape:connector-curvature="0"
             d="m -75.310829,35.537259 a 21.483397,19.5832 0 1 1 -42.966791,0 21.483397,19.5832 0 1 1 42.966791,0 z"
             id="path3592"
             style="color:#000000;display:inline;overflow:visible;visibility:visible;fill:none;stroke:none;stroke-width:1.11612129;stroke-linecap:round;stroke-linejoin:round;stroke-miterlimit:4;stroke-dasharray:none;stroke-dashoffset:0;stroke-opacity:1;marker:none;enable-background:accumulate" />
          <path
             inkscape:connector-curvature="0"
             d="m -119.74967,47.695043 c -8.67695,0 -18.10924,5.24844 -18.80979,7.755075 -0.64458,2.306334 1.0535,4.583605 1.84066,5.534383 0.79442,0.95955 12.05976,13.889788 13.20017,14.920279 1.1404,1.030484 1.99888,1.87371 3.98218,1.87371 0.90937,0 -0.32245,0 0.58314,0 1.98331,0 2.8139,-0.843226 3.9543,-1.87371 1.1404,-1.030491 12.38821,-13.960729 13.18263,-14.920279 0.78716,-0.950778 2.502769,-3.228049 1.858194,-5.534383 -0.700554,-2.506635 -10.132834,-7.755075 -18.809794,-7.755075 z"
             id="path3594"
             style="fill:url(#linearGradient3742-3);fill-opacity:1;stroke:none;stroke-width:0.55806059" />
          <path
             transform="matrix(0.56096306,0,0,0.55517317,-227.26174,-31.347738)"
             inkscape:connector-curvature="0"
             d="m 190.46875,146.40625 c -10.0719,1.02056 -21.93918,3.59082 -28.46875,11.78125 1.07068,6.92565 8.09176,10.76871 11.80545,16.20154 6.01442,6.00067 10.15503,14.78691 18.13205,18.20471 6.97769,-0.23548 9.5786,-8.39931 14.28125,-12.28125 5.24669,-7.49453 14.34439,-13.17431 16.875,-22.1875 -1.91389,-4.69162 -8.20296,-5.61012 -12.125,-8.0625 -6.54536,-2.58051 -13.39616,-4.00879 -20.5,-3.65625 z"
             id="path3596"
             style="fill:none;stroke:none;filter:url(#filter10487-8)" />
          <path
             transform="matrix(0.56096306,0,0,0.55517317,-227.26174,-31.347738)"
             inkscape:connector-curvature="0"
             d="m 191.875,148.375 c -9.70584,0.82299 -21.16815,2.70516 -27.65625,10.5625 2.80676,7.24924 10.01313,11.52765 14.375,17.8125 4.28562,4.91679 7.76716,11.61396 14.1875,13.75 6.28769,-2.10329 8.86169,-9.26767 13.4375,-13.53125 4.85666,-6.18905 12.59902,-11.22248 14.5625,-18.9375 -4.08056,-4.29524 -10.90995,-5.9918 -16.5625,-8.09375 -4.00816,-1.11091 -8.18402,-1.64444 -12.34375,-1.5625 z"
             id="path3598"
             style="fill:#ecd000;fill-opacity:1;stroke:none;filter:url(#filter10857-2)" />
          <path
             inkscape:connector-curvature="0"
             d="m -119.74967,47.695043 c -5.10216,0 -10.45111,1.811924 -14.14678,3.816816 16.37262,3.439408 23.281,7.190403 28.06568,14.087519 1.99746,-2.290523 3.73232,-4.274173 4.01439,-4.614877 0.78716,-0.950778 2.502769,-3.228049 1.858194,-5.534383 -0.700554,-2.506635 -10.132834,-7.755075 -18.809794,-7.755075 z"
             id="path3600"
             style="fill:url(#linearGradient3744-4);fill-opacity:1;stroke:none;stroke-width:0.55806059" />
          <path
             inkscape:connector-curvature="0"
             d="m -136.38572,53.055934 c -1.20503,0.886301 -1.99078,1.739563 -2.17374,2.394184 -0.64458,2.306334 1.0535,4.583605 1.84066,5.534383 0.79442,0.95955 12.05976,13.889788 13.20017,14.920279 1.1404,1.030484 1.99602,1.87371 3.97933,1.87371 h 0.57849 c 1.98331,0 2.8214,-0.843226 3.9618,-1.87371 0.0551,-0.04975 0.23326,-0.244499 0.33308,-0.346983 -2.16744,-0.839978 -4.18497,-2.025167 -5.85506,-3.678023 -1.63622,-1.619334 -8.4838,-9.176951 -13.09498,-13.740536 -1.50464,-1.489108 -2.33581,-3.302202 -2.76975,-5.083304 z"
             id="path3602"
             style="fill:url(#linearGradient3746-7);fill-opacity:1;stroke:none;stroke-width:0.55806059" />
          <path
             inkscape:connector-curvature="0"
             d="m -119.74967,47.695043 c -8.67695,0 -18.10924,5.24844 -18.80979,7.755075 -0.64458,2.306334 1.0535,4.583605 1.84066,5.534383 0.79442,0.95955 12.05976,13.889788 13.20017,14.920279 1.1404,1.030484 1.99888,1.87371 3.98218,1.87371 0.90937,0 -0.32245,0 0.58314,0 1.98331,0 2.8139,-0.843226 3.9543,-1.87371 1.1404,-1.030491 12.38821,-13.960729 13.18263,-14.920279 0.78716,-0.950778 2.502769,-3.228049 1.858194,-5.534383 -0.700554,-2.506635 -10.132834,-7.755075 -18.809794,-7.755075 z"
             id="path3604"
             style="fill:none;stroke:none;stroke-width:1.67418182;stroke-miterlimit:4;stroke-dasharray:none;stroke-opacity:1" />
          <path
             inkscape:connector-curvature="0"
             d="m -114.49063,30.120343 c -1.4736,1.464275 -2.45422,4.009943 -2.45422,6.904965 0,4.539429 2.40676,8.206153 5.36421,8.206153 1.27522,0 2.44609,-0.679387 3.36578,-1.821661 -0.33748,0.07266 -0.6813,0.12144 -1.03428,0.12144 -3.54346,0 -6.41602,-3.806067 -6.41602,-8.501089 0,-1.829428 0.4325,-3.522901 1.17453,-4.909812 z"
             id="path3606"
             style="color:#000000;display:inline;overflow:visible;visibility:visible;fill:url(#linearGradient3750-0);fill-opacity:1;stroke:none;stroke-width:1.11612117;stroke-linecap:round;stroke-linejoin:round;stroke-miterlimit:4;stroke-dasharray:none;stroke-dashoffset:0;stroke-opacity:1;marker:none;enable-background:accumulate" />
          <path
             inkscape:connector-curvature="0"
             d="m -125.86767,27.431223 c -0.82055,0 -1.59551,0.299254 -2.29644,0.832758 2.71315,3.751217 2.62952,6.280398 2.62952,6.280398 l 4.69806,-1.752266 c -0.88319,-3.168423 -2.80055,-5.36089 -5.03114,-5.36089 z"
             id="path3608"
             style="fill:url(#linearGradient3752-6);fill-opacity:1;stroke:none;stroke-width:0.55806059" />
          <path
             inkscape:connector-curvature="0"
             d="m -111.58064,28.801806 c -0.87688,0 -1.35555,0.155154 -2.08608,0.728665 2.19754,2.741717 2.10361,5.881365 2.10361,5.881365 l 4.80325,-1.925757 c -0.86135,-2.769142 -2.68832,-4.684273 -4.82078,-4.684273 z"
             id="path3610"
             style="fill:url(#linearGradient3754-6);fill-opacity:1;stroke:none;stroke-width:0.55806059" />
        </g>
      </g>
      <path
         inkscape:connector-curvature="0"
         id="path4989"
         d="m 9.9740341,5.1444869 c -3.116621,0 -5.667965,2.53951 -5.667965,5.6460041 v 69.277996 c 0,3.106495 2.551344,5.646004 5.667965,5.646004 H 86.765819 c 3.116621,0 5.667968,-2.539509 5.667968,-5.646004 V 10.790491 c 0,-3.1064931 -2.551347,-5.6460041 -5.667968,-5.6460041 z m 0,2.319439 H 86.765819 c 1.888099,0 3.352022,1.480095 3.352022,3.3265651 v 69.277996 c 0,1.846474 -1.463923,3.326564 -3.352022,3.326564 H 9.9740341 c -1.888099,0 -3.352022,-1.48009 -3.352022,-3.326564 V 10.790491 c 0,-1.8464701 1.463923,-3.3265651 3.352022,-3.3265651 z"
         style="color:#000000;font-style:normal;font-variant:normal;font-weight:normal;font-stretch:normal;font-size:medium;line-height:normal;font-family:Sans;-inkscape-font-specification:Sans;text-indent:0;text-align:start;text-decoration:none;text-decoration-line:none;letter-spacing:normal;word-spacing:normal;text-transform:none;writing-mode:lr-tb;direction:ltr;baseline-shift:baseline;text-anchor:start;display:inline;overflow:visible;visibility:visible;fill:#241f1f;fill-opacity:0.63265303;stroke:none;stroke-width:2.3755002;marker:none;enable-background:accumulate" />
      <path
         inkscape:connector-curvature="0"
         style="display:inline;opacity:0.65818182;fill:url(#linearGradient4129);fill-opacity:1;fill-rule:nonzero;stroke:none"
         d="m 1.6489535,82.258776 v 6 c 0,3.680142 2.9761066,6.65625 6.6562496,6.65625 H 87.992703 c 3.680143,0 6.656254,-2.976108 6.656254,-6.65625 v -6 c 0,3.680142 -2.976111,6.65625 -6.656254,6.65625 H 8.3052031 c -3.680143,0 -6.6562496,-2.976108 -6.6562496,-6.65625 z"
         id="path4118" />
      <rect
         style="opacity:0.55;fill:url(#radialGradient7462);fill-opacity:1;stroke:none"
         id="rect4131"
         width="84.250008"
         height="4.25"
         x="5.5239539"
         y="80.665031"
         rx="0"
         ry="4.25" />
      <rect
         ry="4.25"
         rx="0"
         y="-90.233963"
         x="5.9750223"
         height="4.25"
         width="76.75"
         id="rect4141"
         style="opacity:0.669;fill:url(#radialGradient7464);fill-opacity:1;stroke:none"
         transform="rotate(90)" />
      <rect
         transform="matrix(1.0692451,0,0,1.0476829,4.4441802,38.894013)"
         style="opacity:0.619;fill:url(#linearGradient4767);fill-opacity:1;stroke:none"
         id="rect4146"
         width="75.965775"
         height="69.024437"
         x="2"
         y="-30"
         rx="3.9569874"
         ry="3.9569881"
         clip-path="url(#clipPath4156-4-1)" />
    </g>
  </g>
</svg>
