<?xml version="1.0" encoding="UTF-8" standalone="no"?>
<svg
   xmlns:dc="http://purl.org/dc/elements/1.1/"
   xmlns:cc="http://creativecommons.org/ns#"
   xmlns:rdf="http://www.w3.org/1999/02/22-rdf-syntax-ns#"
   xmlns:svg="http://www.w3.org/2000/svg"
   xmlns="http://www.w3.org/2000/svg"
   xmlns:xlink="http://www.w3.org/1999/xlink"
   xmlns:sodipodi="http://sodipodi.sourceforge.net/DTD/sodipodi-0.dtd"
   xmlns:inkscape="http://www.inkscape.org/namespaces/inkscape"
   viewBox="0 0 96 96"
   id="svg3035"
   version="1.1"
   inkscape:version="0.92.2 5c3e80d, 2017-08-06"
   sodipodi:docname="steam_icon_219150.svg"
   width="96"
   height="96">
  <metadata
     id="metadata3082">
    <rdf:RDF>
      <cc:Work
         rdf:about="">
        <dc:format>image/svg+xml</dc:format>
        <dc:type
           rdf:resource="http://purl.org/dc/dcmitype/StillImage" />
        <dc:title />
      </cc:Work>
    </rdf:RDF>
  </metadata>
  <sodipodi:namedview
     pagecolor="#ffffff"
     bordercolor="#666666"
     borderopacity="1"
     objecttolerance="10"
     gridtolerance="10"
     guidetolerance="10"
     inkscape:pageopacity="0"
     inkscape:pageshadow="2"
     inkscape:window-width="1280"
     inkscape:window-height="932"
     id="namedview3080"
     showgrid="false"
     inkscape:zoom="2.6714254"
     inkscape:cx="48"
     inkscape:cy="35.827976"
     inkscape:window-x="0"
     inkscape:window-y="21"
     inkscape:window-maximized="1"
     inkscape:current-layer="g1115" />
  <defs
     id="defs3037">
    <linearGradient
       id="linearGradient3764"
       x1="1"
       x2="47"
       gradientUnits="userSpaceOnUse"
       gradientTransform="matrix(0,-1,1,0,-1.5e-6,47.999998)">
      <stop
         style="stop-color:#b24432;stop-opacity:1"
         id="stop3040" />
      <stop
         offset="1"
         style="stop-color:#c14836;stop-opacity:1"
         id="stop3042" />
    </linearGradient>
    <linearGradient
       gradientTransform="scale(1.0058652,0.994169)"
       gradientUnits="userSpaceOnUse"
       id="ButtonShadow"
       y2="7.0165396"
       x2="45.447727"
       y1="92.539597"
       x1="45.447727">
      <stop
         offset="0"
         style="stop-color:#000000;stop-opacity:1"
         id="stop3750" />
      <stop
         offset="1"
         style="stop-color:#000000;stop-opacity:0.58823532"
         id="stop3752" />
    </linearGradient>
    <linearGradient
       id="linearGradient3737">
      <stop
         offset="0"
         style="stop-color:#ffffff;stop-opacity:1"
         id="stop3739" />
      <stop
         offset="1"
         style="stop-color:#ffffff;stop-opacity:0"
         id="stop3741" />
    </linearGradient>
    <filter
       id="filter3174"
       style="color-interpolation-filters:sRGB">
      <feGaussianBlur
         stdDeviation="1.71"
         id="feGaussianBlur3176" />
    </filter>
    <linearGradient
       gradientUnits="userSpaceOnUse"
       xlink:href="#linearGradient3737"
       id="linearGradient3188"
       y2="63.893143"
       x2="36.357143"
       y1="6"
       x1="36.357143" />
    <filter
       id="filter3794"
       height="1.3839999"
       width="1.3839999"
       y="-0.192"
       x="-0.192"
       style="color-interpolation-filters:sRGB">
      <feGaussianBlur
         stdDeviation="5.28"
         id="feGaussianBlur3796" />
    </filter>
    <linearGradient
       gradientUnits="userSpaceOnUse"
       xlink:href="#linearGradient3737"
       id="linearGradient3613"
       y2="138.66119"
       x2="48"
       y1="20.220806"
       x1="48" />
    <radialGradient
       gradientTransform="matrix(1.1573129,0,0,0.99590774,-7.5510206,0.19713193)"
       gradientUnits="userSpaceOnUse"
       xlink:href="#linearGradient3737"
       id="radialGradient3619"
       fy="90.171875"
       fx="48"
       r="42"
       cy="90.171875"
       cx="48" />
    <clipPath
       id="clipPath3613">
      <rect
         style="fill:#ffffff;fill-opacity:1;fill-rule:nonzero;stroke:none"
         id="rect3615"
         y="6"
         x="6"
         ry="6"
         rx="6"
         height="84"
         width="84" />
    </clipPath>
    <linearGradient
       gradientTransform="matrix(1.0058652,0,0,0.994169,100,0)"
       gradientUnits="userSpaceOnUse"
       id="ButtonShadow-0"
       y2="7.0165396"
       x2="45.447727"
       y1="92.539597"
       x1="45.447727">
      <stop
         offset="0"
         style="stop-color:#000000;stop-opacity:1"
         id="stop3750-8" />
      <stop
         offset="1"
         style="stop-color:#000000;stop-opacity:0.58823532"
         id="stop3752-5" />
    </linearGradient>
    <linearGradient
       gradientTransform="matrix(1.0238095,0,0,1.0119048,-1.1428571,-98.071429)"
       gradientUnits="userSpaceOnUse"
       xlink:href="#ButtonShadow-0"
       id="linearGradient3780"
       y2="90.238609"
       x2="32.251034"
       y1="6.1317081"
       x1="32.251034" />
    <linearGradient
       gradientTransform="translate(0,-97)"
       gradientUnits="userSpaceOnUse"
       xlink:href="#ButtonShadow-0"
       id="linearGradient3721"
       y2="90.238609"
       x2="32.251034"
       y1="6.1317081"
       x1="32.251034" />
    <linearGradient
       id="linearGradient3700-7">
      <stop
         offset="0"
         style="stop-color:#383838;stop-opacity:1"
         id="stop3702-2" />
      <stop
         offset="1"
         style="stop-color:#797979;stop-opacity:1"
         id="stop3704-7" />
    </linearGradient>
    <linearGradient
       gradientUnits="userSpaceOnUse"
       xlink:href="#linearGradient3700-7"
       id="linearGradient4103"
       y2="5.9877172"
       x2="48"
       y1="90"
       x1="48" />
    <clipPath
       id="clipPath4066">
      <rect
         style="color:#000000;display:inline;overflow:visible;visibility:visible;opacity:0.5;fill:#ff00ff;fill-opacity:1;fill-rule:nonzero;stroke:none;stroke-width:8;marker:none;enable-background:accumulate"
         id="rect4068"
         y="48"
         x="6"
         ry="6"
         rx="6"
         height="38"
         width="84" />
    </clipPath>
    <linearGradient
       gradientUnits="userSpaceOnUse"
       xlink:href="#linearGradient4075-2"
       id="linearGradient4081-2"
       y2="70"
       x2="29"
       y1="86"
       x1="29" />
    <linearGradient
       id="linearGradient4075-2">
      <stop
         offset="0"
         style="stop-color:#ffdf60;stop-opacity:1"
         id="stop4077-6" />
      <stop
         offset="1"
         style="stop-color:#ffd917;stop-opacity:1"
         id="stop4079-1" />
    </linearGradient>
    <filter
       id="filter3864"
       style="color-interpolation-filters:sRGB">
      <feBlend
         id="feBlend3866"
         mode="multiply"
         in2="BackgroundImage" />
    </filter>
    <clipPath
       id="clipPath3880">
      <rect
         style="fill:#ff00ff;fill-opacity:1;fill-rule:nonzero;stroke:none"
         id="rect3882"
         y="6"
         x="6"
         ry="6"
         rx="6"
         height="84"
         width="84" />
    </clipPath>
    <linearGradient
       gradientTransform="matrix(1.0640532,0,0,1.0640532,-3.362268,-2.2161676)"
       gradientUnits="userSpaceOnUse"
       xlink:href="#linearGradient3962"
       id="linearGradient3968"
       y2="59.650906"
       x2="44.618843"
       y1="33.263603"
       x1="41.14489" />
    <linearGradient
       id="linearGradient3962">
      <stop
         offset="0"
         style="stop-color:#f5f5f5;stop-opacity:1"
         id="stop3964" />
      <stop
         offset="1"
         style="stop-color:#dcdcdc;stop-opacity:1"
         id="stop3966" />
    </linearGradient>
    <radialGradient
       inkscape:collect="always"
       xlink:href="#linearGradient3737"
       id="radialGradient4097"
       gradientUnits="userSpaceOnUse"
       gradientTransform="matrix(0.39510098,-0.13029391,0.5032517,1.5260517,6.3824423,-26.002402)"
       cx="55.598351"
       cy="46.454388"
       fx="55.598351"
       fy="46.454388"
       r="2.6136763" />
    <radialGradient
       inkscape:collect="always"
       xlink:href="#linearGradient3737"
       id="radialGradient4095"
       gradientUnits="userSpaceOnUse"
       gradientTransform="matrix(0.94969259,-0.31318364,1.2096513,3.6681255,-53.396602,-103.87465)"
       cx="55.598351"
       cy="46.454388"
       fx="55.598351"
       fy="46.454388"
       r="2.6136763" />
    <linearGradient
       inkscape:collect="always"
       xlink:href="#linearGradient3737"
       id="linearGradient4093"
       gradientUnits="userSpaceOnUse"
       x1="41.646389"
       y1="71.088478"
       x2="41.864433"
       y2="22.682728" />
    <linearGradient
       inkscape:collect="always"
       xlink:href="#linearGradient3782-2"
       id="linearGradient4091"
       gradientUnits="userSpaceOnUse"
       x1="48.353294"
       y1="24.342234"
       x2="48.353294"
       y2="46.270821" />
    <radialGradient
       inkscape:collect="always"
       xlink:href="#linearGradient3717-1"
       id="radialGradient4089"
       gradientUnits="userSpaceOnUse"
       gradientTransform="matrix(1,0,0,1.5,0,-24)"
       cx="48"
       cy="58.666668"
       fx="48"
       fy="58.666668"
       r="16" />
    <linearGradient
       inkscape:collect="always"
       xlink:href="#linearGradient3942"
       id="linearGradient4087"
       gradientUnits="userSpaceOnUse"
       x1="51"
       y1="73"
       x2="52"
       y2="26" />
    <linearGradient
       inkscape:collect="always"
       xlink:href="#linearGradient3942"
       id="linearGradient4085"
       gradientUnits="userSpaceOnUse"
       x1="47"
       y1="74"
       x2="47"
       y2="24" />
    <linearGradient
       inkscape:collect="always"
       xlink:href="#linearGradient3942"
       id="linearGradient4083"
       gradientUnits="userSpaceOnUse"
       x1="49"
       y1="75"
       x2="49"
       y2="22.990385" />
    <linearGradient
       id="linearGradient3942">
      <stop
         id="stop3944"
         style="stop-color:#000000;stop-opacity:1"
         offset="0" />
      <stop
         id="stop3946"
         style="stop-color:#000000;stop-opacity:0"
         offset="1" />
    </linearGradient>
    <radialGradient
       inkscape:collect="always"
       xlink:href="#linearGradient3737"
       id="radialGradient3895-1"
       gradientUnits="userSpaceOnUse"
       gradientTransform="matrix(0.39510098,-0.13029391,0.5032517,1.5260517,6.3824423,-26.002402)"
       cx="55.598351"
       cy="46.454388"
       fx="55.598351"
       fy="46.454388"
       r="2.6136763" />
    <radialGradient
       inkscape:collect="always"
       xlink:href="#linearGradient3737"
       id="radialGradient3893-1"
       gradientUnits="userSpaceOnUse"
       gradientTransform="matrix(0.94969259,-0.31318364,1.2096513,3.6681255,-53.396602,-103.87465)"
       cx="55.598351"
       cy="46.454388"
       fx="55.598351"
       fy="46.454388"
       r="2.6136763" />
    <linearGradient
       id="linearGradient3782-2">
      <stop
         id="stop3784-6"
         style="stop-color:#697c84;stop-opacity:1"
         offset="0" />
      <stop
         id="stop3786-0"
         style="stop-color:#697c84;stop-opacity:0"
         offset="1" />
    </linearGradient>
    <linearGradient
       id="linearGradient3717-1">
      <stop
         id="stop3719-4"
         style="stop-color:#ffffff;stop-opacity:1"
         offset="0" />
      <stop
         id="stop3721-0"
         style="stop-color:#93a3aa;stop-opacity:1"
         offset="1" />
    </linearGradient>
    <radialGradient
       inkscape:collect="always"
       xlink:href="#linearGradient3717-1"
       id="radialGradient3887-6"
       gradientUnits="userSpaceOnUse"
       gradientTransform="matrix(1,0,0,1.5,0,-24)"
       cx="48"
       cy="58.666668"
       fx="48"
       fy="58.666668"
       r="16" />
    <radialGradient
       inkscape:collect="always"
       xlink:href="#linearGradient3737"
       id="radialGradient3895"
       gradientUnits="userSpaceOnUse"
       gradientTransform="matrix(0.39510098,-0.13029391,0.5032517,1.5260517,6.3824423,-26.002402)"
       cx="55.598351"
       cy="46.454388"
       fx="55.598351"
       fy="46.454388"
       r="2.6136763" />
    <radialGradient
       inkscape:collect="always"
       xlink:href="#linearGradient3737"
       id="radialGradient3893"
       gradientUnits="userSpaceOnUse"
       gradientTransform="matrix(0.94969259,-0.31318364,1.2096513,3.6681255,-53.396602,-103.87465)"
       cx="55.598351"
       cy="46.454388"
       fx="55.598351"
       fy="46.454388"
       r="2.6136763" />
    <radialGradient
       inkscape:collect="always"
       xlink:href="#linearGradient3717-1"
       id="radialGradient3887"
       gradientUnits="userSpaceOnUse"
       gradientTransform="matrix(1,0,0,1.5,0,-24)"
       cx="48"
       cy="58.666668"
       fx="48"
       fy="58.666668"
       r="16" />
    <linearGradient
       inkscape:collect="always"
       xlink:href="#ButtonShadow"
       id="linearGradient3839"
       gradientUnits="userSpaceOnUse"
       gradientTransform="scale(1.0058652,0.994169)"
       x1="45.447727"
       y1="92.539597"
       x2="45.447727"
       y2="7.0165396" />
    <linearGradient
       inkscape:collect="always"
       xlink:href="#linearGradient3737"
       id="linearGradient3837"
       gradientUnits="userSpaceOnUse"
       x1="2.7713892"
       y1="-28.64156"
       x2="50.527882"
       y2="14.514202" />
    <radialGradient
       inkscape:collect="always"
       xlink:href="#linearGradient3737"
       id="radialGradient3833"
       gradientUnits="userSpaceOnUse"
       gradientTransform="matrix(0.88832663,0,0,0.04919072,16.068931,-98.752262)"
       cx="13.948145"
       cy="44.892841"
       fx="13.948145"
       fy="44.892841"
       r="43.199203" />
    <linearGradient
       inkscape:collect="always"
       xlink:href="#linearGradient3832-0-6-1-1"
       id="linearGradient3829"
       gradientUnits="userSpaceOnUse"
       gradientTransform="translate(8.0439564,-14.665561)"
       x1="1.5"
       y1="88.171875"
       x2="94.5"
       y2="88.171875" />
    <radialGradient
       inkscape:collect="always"
       xlink:href="#linearGradient4091-0-3-0-7"
       id="radialGradient3827"
       gradientUnits="userSpaceOnUse"
       gradientTransform="matrix(-1.1870482,0,0,-0.96877218,113.02229,-39.322409)"
       cx="48"
       cy="-27"
       fx="48"
       fy="-27"
       r="42" />
    <linearGradient
       inkscape:collect="always"
       xlink:href="#linearGradient6139-0"
       id="linearGradient3825"
       gradientUnits="userSpaceOnUse"
       gradientTransform="matrix(1.1071428,0,0,1.1071426,2.9011003,-18.701274)"
       x1="6"
       y1="47.000011"
       x2="90"
       y2="47.000011" />
    <linearGradient
       id="linearGradient4208">
      <stop
         offset="0"
         style="stop-color:#f3840c;stop-opacity:1"
         id="stop4210" />
      <stop
         offset="1"
         style="stop-color:#f2b80c;stop-opacity:1"
         id="stop4212" />
    </linearGradient>
    <linearGradient
       id="linearGradient4084">
      <stop
         offset="0"
         style="stop-color:#537d6b;stop-opacity:1"
         id="stop4086" />
      <stop
         offset="1"
         style="stop-color:#92bbaa;stop-opacity:1"
         id="stop4088" />
    </linearGradient>
    <filter
       id="filter3174-36"
       style="color-interpolation-filters:sRGB">
      <feGaussianBlur
         stdDeviation="1.71"
         id="feGaussianBlur3176-3" />
    </filter>
    <filter
       id="filter3794-5"
       height="1.3839999"
       width="1.3839999"
       y="-0.192"
       x="-0.192"
       style="color-interpolation-filters:sRGB">
      <feGaussianBlur
         stdDeviation="5.28"
         id="feGaussianBlur3796-5" />
    </filter>
    <radialGradient
       gradientTransform="matrix(1.1573129,0,0,0.99590774,-7.5510206,0.19713193)"
       gradientUnits="userSpaceOnUse"
       xlink:href="#linearGradient3737"
       id="radialGradient3619-8"
       fy="90.171875"
       fx="48"
       r="42"
       cy="90.171875"
       cx="48" />
    <clipPath
       id="clipPath3613-7">
      <rect
         style="fill:#ffffff;fill-opacity:1;fill-rule:nonzero;stroke:none"
         id="rect3615-9"
         y="6"
         x="6"
         ry="6"
         rx="6"
         height="84"
         width="84" />
    </clipPath>
    <linearGradient
       id="linearGradient556">
      <stop
         offset="0"
         style="stop-color:#ffffff;stop-opacity:1"
         id="stop557" />
      <stop
         offset="1"
         style="stop-color:#8f8f8f;stop-opacity:1"
         id="stop558" />
    </linearGradient>
    <linearGradient
       id="linearGradient561">
      <stop
         offset="0"
         style="stop-color:#72a6db;stop-opacity:1"
         id="stop562" />
      <stop
         offset="1"
         style="stop-color:#4974aa;stop-opacity:1"
         id="stop563" />
    </linearGradient>
    <linearGradient
       id="linearGradient564">
      <stop
         offset="0"
         style="stop-color:#3278c6;stop-opacity:1"
         id="stop565" />
      <stop
         offset="1"
         style="stop-color:#264980;stop-opacity:1"
         id="stop566" />
    </linearGradient>
    <radialGradient
       spreadMethod="pad"
       gradientTransform="scale(0.887627,1.1266)"
       gradientUnits="userSpaceOnUse"
       xlink:href="#linearGradient556"
       id="radialGradient4058"
       fy="13.491528"
       fx="24.218475"
       r="10.214344"
       cy="13.491528"
       cx="24.218475" />
    <radialGradient
       spreadMethod="pad"
       gradientTransform="scale(1.06132,0.942226)"
       gradientUnits="userSpaceOnUse"
       xlink:href="#linearGradient561"
       id="radialGradient4060"
       fy="4.2911568"
       fx="31.637579"
       r="6.1138387"
       cy="4.2911568"
       cx="31.637579" />
    <linearGradient
       spreadMethod="pad"
       gradientTransform="scale(0.577912,1.73037)"
       gradientUnits="userSpaceOnUse"
       xlink:href="#linearGradient561"
       id="linearGradient4062"
       y2="18.198601"
       x2="68.416641"
       y1="9.7092857"
       x1="66.896873" />
    <linearGradient
       spreadMethod="pad"
       gradientTransform="scale(0.653126,1.5311)"
       gradientUnits="userSpaceOnUse"
       xlink:href="#linearGradient3737"
       id="linearGradient4064"
       y2="14.642175"
       x2="56.888985"
       y1="5.4559503"
       x1="42.007587" />
    <radialGradient
       spreadMethod="pad"
       gradientTransform="scale(0.992835,1.00722)"
       gradientUnits="userSpaceOnUse"
       xlink:href="#linearGradient564"
       id="radialGradient4066"
       fy="16.134611"
       fx="15.485512"
       r="27.532124"
       cy="16.134611"
       cx="15.485512" />
    <linearGradient
       spreadMethod="pad"
       gradientTransform="scale(0.992835,1.00722)"
       gradientUnits="userSpaceOnUse"
       xlink:href="#linearGradient3942"
       id="linearGradient4068"
       y2="21.709469"
       x2="23.98053"
       y1="41.885136"
       x1="40.970566" />
    <radialGradient
       spreadMethod="pad"
       gradientTransform="scale(1.12198,0.891285)"
       gradientUnits="userSpaceOnUse"
       xlink:href="#linearGradient561"
       id="radialGradient4070"
       fy="25.590885"
       fx="56.924801"
       r="5.3430753"
       cy="25.590885"
       cx="56.924801" />
    <linearGradient
       spreadMethod="pad"
       gradientTransform="scale(0.959984,1.04168)"
       gradientUnits="userSpaceOnUse"
       xlink:href="#linearGradient3737"
       id="linearGradient4072"
       y2="24.686901"
       x2="25.337631"
       y1="15.336463"
       x1="25.033354" />
    <linearGradient
       spreadMethod="pad"
       gradientTransform="scale(0.887627,1.1266)"
       gradientUnits="userSpaceOnUse"
       xlink:href="#linearGradient556"
       id="linearGradient4074"
       y2="24.093016"
       x2="28.115267"
       y1="16.387062"
       x1="27.607258" />
    <radialGradient
       spreadMethod="pad"
       gradientTransform="scale(1.0404,0.961171)"
       gradientUnits="userSpaceOnUse"
       xlink:href="#linearGradient561"
       id="radialGradient4076"
       fy="3.355541"
       fx="32.368511"
       r="6.0570164"
       cy="3.355541"
       cx="32.368511" />
    <linearGradient
       spreadMethod="pad"
       gradientTransform="scale(1.51748,0.658989)"
       gradientUnits="userSpaceOnUse"
       xlink:href="#linearGradient561"
       id="linearGradient4078"
       y2="54.864002"
       x2="37.259823"
       y1="47.90868"
       x1="36.829525" />
    <linearGradient
       spreadMethod="pad"
       gradientTransform="scale(1.84716,0.541373)"
       gradientUnits="userSpaceOnUse"
       xlink:href="#linearGradient3942"
       id="linearGradient4080"
       y2="63.224438"
       x2="30.472109"
       y1="68.697281"
       x1="29.954319" />
    <linearGradient
       spreadMethod="pad"
       gradientTransform="scale(1.92567,0.519299)"
       gradientUnits="userSpaceOnUse"
       xlink:href="#linearGradient561"
       id="linearGradient4082"
       y2="68.898041"
       x2="29.396217"
       y1="63.281857"
       x1="29.048765" />
    <linearGradient
       gradientUnits="userSpaceOnUse"
       xlink:href="#linearGradient3737"
       id="linearGradient4152"
       y2="109.10714"
       x2="48"
       y1="6"
       x1="48" />
    <linearGradient
       gradientUnits="userSpaceOnUse"
       xlink:href="#linearGradient4084"
       id="linearGradient4206"
       y2="5.9877172"
       x2="48"
       y1="90"
       x1="48" />
    <linearGradient
       gradientUnits="userSpaceOnUse"
       xlink:href="#linearGradient4208"
       id="linearGradient4214"
       y2="5.9877172"
       x2="48"
       y1="90"
       x1="48" />
    <linearGradient
       id="linearGradient4281-6-1">
      <stop
         offset="0"
         style="stop-color:#1e1e1e;stop-opacity:1"
         id="stop4283-9-3" />
      <stop
         offset="1"
         style="stop-color:#505050;stop-opacity:1"
         id="stop4285-8-23" />
    </linearGradient>
    <linearGradient
       gradientTransform="matrix(0,1,-1,0,70.99578,0.00422008)"
       gradientUnits="userSpaceOnUse"
       xlink:href="#linearGradient4281-6-1"
       id="linearGradient3299"
       y2="47.995781"
       x2="79.995781"
       y1="47.995781"
       x1="15.99578" />
    <filter
       id="filter3174-3"
       style="color-interpolation-filters:sRGB">
      <feGaussianBlur
         stdDeviation="1.71"
         id="feGaussianBlur3176-6" />
    </filter>
    <linearGradient
       gradientUnits="userSpaceOnUse"
       xlink:href="#linearGradient4281-6-1"
       id="linearGradient4416"
       y2="80"
       x2="48"
       y1="16"
       x1="48" />
    <filter
       id="filter3174-0"
       style="color-interpolation-filters:sRGB">
      <feGaussianBlur
         stdDeviation="1.71"
         id="feGaussianBlur3176-7" />
    </filter>
    <radialGradient
       inkscape:collect="always"
       xlink:href="#linearGradient3737"
       id="radialGradient7464"
       gradientUnits="userSpaceOnUse"
       gradientTransform="matrix(0.88832663,0,0,0.04919072,16.068931,-98.752262)"
       cx="13.948145"
       cy="44.892841"
       fx="13.948145"
       fy="44.892841"
       r="43.199203" />
    <radialGradient
       inkscape:collect="always"
       xlink:href="#linearGradient3737"
       id="radialGradient7462"
       gradientUnits="userSpaceOnUse"
       gradientTransform="matrix(0.97513378,0,0,0.04919072,41.942652,65.501135)"
       cx="13.948145"
       cy="44.892841"
       fx="13.948145"
       fy="44.892841"
       r="43.199203" />
    <radialGradient
       inkscape:collect="always"
       xlink:href="#linearGradient4091-0-3-0-7"
       id="radialGradient7430"
       gradientUnits="userSpaceOnUse"
       gradientTransform="matrix(-1.0721726,0,0,-0.87502024,199.46429,-19.125546)"
       cx="48"
       cy="-27"
       fx="48"
       fy="-27"
       r="42" />
    <radialGradient
       inkscape:collect="always"
       xlink:href="#linearGradient3737"
       id="radialGradient7428"
       gradientUnits="userSpaceOnUse"
       gradientTransform="matrix(0,1.6209438,-2.0382846,0,65.294983,-227.08389)"
       cx="158"
       cy="6.2131939"
       fx="158"
       fy="6.2131939"
       r="41" />
    <linearGradient
       id="linearGradient6139-0">
      <stop
         style="stop-color:#adb4c1;stop-opacity:1;"
         offset="0"
         id="stop6141-2" />
      <stop
         id="stop6151-0"
         offset="0.25"
         style="stop-color:#ffffff;stop-opacity:1;" />
      <stop
         id="stop6147-1"
         offset="0.5"
         style="stop-color:#9095aa;stop-opacity:1;" />
      <stop
         style="stop-color:#fbf9f9;stop-opacity:1;"
         offset="0.75"
         id="stop6149-4" />
      <stop
         style="stop-color:#adb3c1;stop-opacity:1;"
         offset="1"
         id="stop6143-4" />
    </linearGradient>
    <linearGradient
       id="linearGradient4091-0-3-0-7">
      <stop
         id="stop4093-3-6-4-2"
         offset="0"
         style="stop-color:#ffffff;stop-opacity:1;" />
      <stop
         style="stop-color:#ffffff;stop-opacity:1;"
         offset="0.80000001"
         id="stop4099-6-1-8-3" />
      <stop
         id="stop4095-1-0-7-9"
         offset="1"
         style="stop-color:#ffffff;stop-opacity:0;" />
    </linearGradient>
    <radialGradient
       r="42"
       fy="-27"
       fx="48"
       cy="-27"
       cx="48"
       gradientTransform="matrix(-1.0721726,0,0,-0.87502024,199.46429,-19.125546)"
       gradientUnits="userSpaceOnUse"
       id="radialGradient4075"
       xlink:href="#linearGradient4091-0-3-0-7"
       inkscape:collect="always" />
    <radialGradient
       r="41"
       fy="6.2131939"
       fx="158"
       cy="6.2131939"
       cx="158"
       gradientTransform="matrix(0,1.6209438,-2.0382846,0,160.66427,-243.03657)"
       gradientUnits="userSpaceOnUse"
       id="radialGradient4073"
       xlink:href="#linearGradient3737"
       inkscape:collect="always" />
    <linearGradient
       inkscape:collect="always"
       xlink:href="#linearGradient3942"
       id="linearGradient6448-0"
       gradientUnits="userSpaceOnUse"
       x1="47.99826"
       y1="48.028797"
       x2="127.41583"
       y2="57.664623" />
    <linearGradient
       inkscape:collect="always"
       xlink:href="#linearGradient3942"
       id="linearGradient6446-1"
       gradientUnits="userSpaceOnUse"
       x1="47.997307"
       y1="48.028725"
       x2="127.05216"
       y2="60.289631" />
    <linearGradient
       inkscape:collect="always"
       xlink:href="#linearGradient3942"
       id="linearGradient6444-4"
       gradientUnits="userSpaceOnUse"
       x1="48.055065"
       y1="48.031517"
       x2="126.67282"
       y2="62.838562" />
    <linearGradient
       inkscape:collect="always"
       xlink:href="#linearGradient3942"
       id="linearGradient6442-5"
       gradientUnits="userSpaceOnUse"
       x1="48.233639"
       y1="48.047016"
       x2="126.13924"
       y2="66.232674" />
    <radialGradient
       inkscape:collect="always"
       xlink:href="#linearGradient3942"
       id="radialGradient6424-3"
       gradientUnits="userSpaceOnUse"
       gradientTransform="matrix(1,0,0,1.013812,-30,-0.66140908)"
       cx="48.265148"
       cy="47.886696"
       fx="48.265148"
       fy="47.886696"
       r="28.878813" />
    <radialGradient
       inkscape:collect="always"
       xlink:href="#linearGradient3737"
       id="radialGradient6422-6"
       gradientUnits="userSpaceOnUse"
       gradientTransform="matrix(1,0,0,0.98495914,-30,0.71591078)"
       cx="48.410488"
       cy="47.59774"
       fx="48.410488"
       fy="47.59774"
       r="30.640047" />
    <clipPath
       id="clipPath4194-1-2-5">
      <rect
         style="fill:#ff00ff;fill-opacity:1;fill-rule:nonzero;stroke:none"
         id="rect4196-1-6-2"
         y="6"
         x="6"
         ry="6"
         rx="6"
         height="84"
         width="84" />
    </clipPath>
    <linearGradient
       id="linearGradient3832-0-6-1-1">
      <stop
         id="stop3834-6-3-7-1"
         offset="0"
         style="stop-color:#000000;stop-opacity:1;" />
      <stop
         style="stop-color:#000000;stop-opacity:0.58823532;"
         offset="0.1"
         id="stop3872-2-4" />
      <stop
         id="stop3844-6-2-7-6"
         offset="0.89999998"
         style="stop-color:#000000;stop-opacity:0.58823532;" />
      <stop
         id="stop3836-5-0-2-9"
         offset="1"
         style="stop-color:#000000;stop-opacity:1;" />
    </linearGradient>
    <radialGradient
       gradientUnits="userSpaceOnUse"
       gradientTransform="matrix(0.97513378,0,0,0.04919072,41.942652,65.501135)"
       r="43.199203"
       fy="44.892841"
       fx="13.948145"
       cy="44.892841"
       cx="13.948145"
       id="radialGradient4139"
       xlink:href="#linearGradient3737"
       inkscape:collect="always" />
    <radialGradient
       r="43.199203"
       fy="44.892841"
       fx="13.948145"
       cy="44.892841"
       cx="13.948145"
       gradientTransform="matrix(0.88832663,0,0,0.04919072,16.068931,-98.752262)"
       gradientUnits="userSpaceOnUse"
       id="radialGradient4143"
       xlink:href="#linearGradient3737"
       inkscape:collect="always" />
    <clipPath
       id="clipPath4156-4"
       clipPathUnits="userSpaceOnUse">
      <path
         inkscape:connector-curvature="0"
         id="path4158-0"
         d="m 27.046336,-55.695463 -14.21366,13.321486 0.06127,0 15.653407,21.770763 10.231384,-10.546177 C 38.561832,-32.30156 27.468089,-54.819245 27.046336,-55.695463 Z M 9.6468554,-39.382809 -5.2407289,-25.32124 15.987863,-7.8059573 26.372412,-18.382966 9.6468554,-39.382809 Z m 31.4906096,12.951445 -9.741259,9.713584 8.944804,12.4580526 7.780753,-7.5550056 -6.984298,-14.616631 z m -49.8397109,4.378822 -13.7541661,12.9822847 26.2830181,13.84571 0.06127,-0.0617 -0.122531,-0.0617 L 13.598503,-5.4007374 -8.7022409,-22.052595 Z m 38.0154159,7.400825 -9.802525,9.7752596 11.579232,9.5594001 7.62759,-7.40083 -8.669108,-11.0087257 -0.735189,-0.925104 z m 20.187073,5.6739697 -7.382526,7.2158 6.187844,8.54179 5.820249,-6.13651996 -4.625567,-9.62107004 z m -32.195166,6.32154 -9.5574606,9.49772 13.6622686,7.1849703 7.933918,-7.6783603 -12.038726,-9.00433 z m 23.311629,2.37443004 -7.10683,6.93826996 8.362778,6.9074403 5.360756,-5.6739699 -0.06127,-0.0925 -0.0919,0.12335 -6.463539,-8.20258036 z m -8.730374,8.54178036 -7.505057,7.3391599 10.353916,5.45811 c 1.397496,-1.32103 5.67514,-6.12292 5.850882,-6.32154 L 31.886332,8.2600031 Z"
         style="opacity:0.6;fill:#ffffff;fill-opacity:1;stroke:none" />
    </clipPath>
    <radialGradient
       spreadMethod="pad"
       gradientTransform="scale(0.887627,1.1266)"
       gradientUnits="userSpaceOnUse"
       xlink:href="#linearGradient556"
       id="radialGradient4058-6"
       fy="13.491528"
       fx="24.218475"
       r="10.214344"
       cy="13.491528"
       cx="24.218475" />
    <radialGradient
       spreadMethod="pad"
       gradientTransform="scale(1.06132,0.942226)"
       gradientUnits="userSpaceOnUse"
       xlink:href="#linearGradient561"
       id="radialGradient4060-3"
       fy="4.2911568"
       fx="31.637579"
       r="6.1138387"
       cy="4.2911568"
       cx="31.637579" />
    <radialGradient
       spreadMethod="pad"
       gradientTransform="scale(0.992835,1.00722)"
       gradientUnits="userSpaceOnUse"
       xlink:href="#linearGradient564"
       id="radialGradient4066-6"
       fy="16.134611"
       fx="15.485512"
       r="27.532124"
       cy="16.134611"
       cx="15.485512" />
    <radialGradient
       spreadMethod="pad"
       gradientTransform="scale(1.12198,0.891285)"
       gradientUnits="userSpaceOnUse"
       xlink:href="#linearGradient561"
       id="radialGradient4070-9"
       fy="25.590885"
       fx="56.924801"
       r="5.3430753"
       cy="25.590885"
       cx="56.924801" />
    <radialGradient
       spreadMethod="pad"
       gradientTransform="scale(1.0404,0.961171)"
       gradientUnits="userSpaceOnUse"
       xlink:href="#linearGradient561"
       id="radialGradient4076-4"
       fy="3.355541"
       fx="32.368511"
       r="6.0570164"
       cy="3.355541"
       cx="32.368511" />
    <radialGradient
       cx="55.598351"
       cy="46.454388"
       r="2.6136763"
       fx="55.598351"
       fy="46.454388"
       id="radialGradient3776"
       xlink:href="#linearGradient3737"
       gradientUnits="userSpaceOnUse"
       gradientTransform="matrix(0.39510098,-0.13029391,0.5032517,1.5260517,6.3824423,-26.002402)" />
    <radialGradient
       cx="55.598351"
       cy="46.454388"
       r="2.6136763"
       fx="55.598351"
       fy="46.454388"
       id="radialGradient3762"
       xlink:href="#linearGradient3737"
       gradientUnits="userSpaceOnUse"
       gradientTransform="matrix(0.94969259,-0.31318364,1.2096513,3.6681255,-53.396602,-103.87465)" />
    <radialGradient
       cx="48"
       cy="58.666668"
       r="16"
       fx="48"
       fy="58.666668"
       id="radialGradient3723"
       xlink:href="#linearGradient3717-1"
       gradientUnits="userSpaceOnUse"
       gradientTransform="matrix(1,0,0,1.5,0,-24)" />
    <linearGradient
       x1="48"
       y1="90"
       x2="48"
       y2="5.9877172"
       id="linearGradient3617"
       xlink:href="#linearGradient3700"
       gradientUnits="userSpaceOnUse" />
    <clipPath
       id="clipPath3613-4">
      <rect
         width="84"
         height="84"
         rx="6"
         ry="6"
         x="6"
         y="6"
         id="rect3615-1"
         style="fill:#ffffff;fill-opacity:1;fill-rule:nonzero;stroke:none" />
    </clipPath>
    <radialGradient
       cx="48"
       cy="90.171875"
       r="42"
       fx="48"
       fy="90.171875"
       id="radialGradient3619-2"
       xlink:href="#linearGradient3737"
       gradientUnits="userSpaceOnUse"
       gradientTransform="matrix(1.1573129,0,0,0.99590774,-7.5510206,0.19713193)" />
    <filter
       x="-0.192"
       y="-0.192"
       width="1.3839999"
       height="1.3839999"
       id="filter3794-3"
       style="color-interpolation-filters:sRGB">
      <feGaussianBlur
         id="feGaussianBlur3796-7"
         stdDeviation="5.28" />
    </filter>
    <filter
       id="filter3174-4"
       style="color-interpolation-filters:sRGB">
      <feGaussianBlur
         id="feGaussianBlur3176-5"
         stdDeviation="1.71" />
    </filter>
    <linearGradient
       id="linearGradient3700">
      <stop
         id="stop3702"
         style="stop-color:#667981;stop-opacity:1"
         offset="0" />
      <stop
         id="stop3704"
         style="stop-color:#a4b2b8;stop-opacity:1"
         offset="1" />
    </linearGradient>
    <radialGradient
       r="42"
       fy="90.171875"
       fx="48"
       cy="90.171875"
       cx="48"
       gradientTransform="matrix(1.1573129,0,0,0.99590774,-7.5510206,0.19713193)"
       gradientUnits="userSpaceOnUse"
       id="radialGradient4048"
       xlink:href="#linearGradient3737"
       inkscape:collect="always" />
    <clipPath
       id="clipPath4066-0">
      <rect
         style="color:#000000;display:inline;overflow:visible;visibility:visible;opacity:0.5;fill:#ff00ff;fill-opacity:1;fill-rule:nonzero;stroke:none;stroke-width:8;marker:none;enable-background:accumulate"
         id="rect4068-3"
         y="48"
         x="6"
         ry="6"
         rx="6"
         height="38"
         width="84" />
    </clipPath>
    <linearGradient
       inkscape:collect="always"
       xlink:href="#ButtonShadow"
       id="linearGradient5078"
       gradientUnits="userSpaceOnUse"
       gradientTransform="scale(1.0058652,0.994169)"
       x1="45.447727"
       y1="92.539597"
       x2="45.447727"
       y2="7.0165396" />
    <linearGradient
       inkscape:collect="always"
       xlink:href="#ButtonShadow"
       id="linearGradient5080"
       gradientUnits="userSpaceOnUse"
       gradientTransform="scale(1.0058652,0.994169)"
       x1="45.447727"
       y1="92.539597"
       x2="45.447727"
       y2="7.0165396" />
    <linearGradient
       inkscape:collect="always"
       xlink:href="#ButtonShadow"
       id="linearGradient5082"
       gradientUnits="userSpaceOnUse"
       gradientTransform="scale(1.0058652,0.994169)"
       x1="45.447727"
       y1="92.539597"
       x2="45.447727"
       y2="7.0165396" />
    <radialGradient
       inkscape:collect="always"
       xlink:href="#linearGradient3737"
       id="radialGradient1110"
       gradientUnits="userSpaceOnUse"
       gradientTransform="matrix(0.88832663,0,0,0.04919072,-68.434469,-70.217747)"
       cx="13.948145"
       cy="44.892841"
       fx="13.948145"
       fy="44.892841"
       r="43.199203" />
  </defs>
  <g
     style="enable-background:new"
     id="g5032">
    <g
       id="g4021">
      <g
         id="g3803">
        <g
           id="layer1-6"
           inkscape:label="Layer 1"
           transform="translate(-1e-6,32)">
          <g
             id="g7390"
             transform="translate(-8.0439584,-17.334439)">
            <path
               inkscape:connector-curvature="0"
               id="path3288"
               d="m 97.186813,-14.665561 -82.285719,0 c -3.798848,0 -6.8571352,3.058285 -6.8571352,6.8571399 l 0,82.2857181 c 0,3.798857 3.0582872,6.857142 6.8571352,6.857142 l 82.285719,0 c 3.798857,0 6.857147,-3.058285 6.857147,-6.857142 l 0,-82.2857181 c 0,-3.7988549 -3.05829,-6.8571399 -6.857147,-6.8571399 z"
               style="display:inline;opacity:0.15;fill:#000000;fill-opacity:1;fill-rule:nonzero;stroke:none" />
            <path
               style="display:inline;opacity:0.15;fill:#000000;fill-opacity:1;fill-rule:nonzero;stroke:none"
               d="m 96.543957,-13.915561 -81.000007,0 c -3.739492,0 -6.749993,3.010499 -6.749993,6.7499969 l 0,81.0000031 c 0,3.739501 3.010501,6.75 6.749993,6.75 l 81.000007,0 c 3.739503,0 6.750003,-3.010499 6.750003,-6.75 l 0,-81.0000031 c 0,-3.7394979 -3.0105,-6.7499969 -6.750003,-6.7499969 z"
               id="path4085"
               inkscape:connector-curvature="0" />
            <path
               inkscape:connector-curvature="0"
               id="rect4251-1"
               d="m 95.901096,-13.165561 -79.714282,0 c -3.680143,0 -6.6428566,2.962713 -6.6428566,6.6428549 l 0,79.7142901 c 0,3.680142 2.9627136,6.642856 6.6428566,6.642856 l 79.714282,0 c 3.680143,0 6.642854,-2.962714 6.642854,-6.642856 l 0,-79.7142901 c 0,-3.6801419 -2.962711,-6.6428549 -6.642854,-6.6428549 z"
               style="display:inline;fill:url(#linearGradient3825);fill-opacity:1;fill-rule:nonzero;stroke:none" />
            <rect
               style="fill:#6c6c6c;fill-opacity:1;stroke:none;stroke-width:0.39806378;stroke-linecap:round;stroke-linejoin:round;stroke-miterlimit:4;stroke-dasharray:none;stroke-dashoffset:0;stroke-opacity:1"
               id="rect4301"
               width="84.84639"
               height="76.771622"
               x="13.836684"
               y="-8.0546455"
               ry="4.2089548" />
            <g
               id="g1115"
               transform="matrix(1.0372919,0,0,1.0372919,0.99544888,-2.4760559)">
              <ellipse
                 ry="5.1520634"
                 rx="5.4795556"
                 cy="20.529894"
                 cx="60.623623"
                 id="path1105"
                 style="opacity:1;fill:#ffff00;fill-opacity:0.9812734;stroke:none;stroke-width:0.28865033;stroke-linejoin:bevel;stroke-miterlimit:4;stroke-dasharray:none;stroke-opacity:1" />
              <path
                 d="m 51.361668,-1.7745346 c -0.721269,-0.011358 -1.598718,0.022717 -1.953672,0.088029 -1.840088,0.3208793 -4.114639,2.29726849 -6.931561,6.0342343 C 40.869199,6.4888168 38.671318,8.0080239 37.683123,7.6303519 37.206064,7.4514546 36.927779,6.809696 36.785798,5.5006222 36.530229,3.2601465 35.9765,2.9506258 34.301113,4.0808023 33.69059,4.501069 32.347441,6.0344744 31.728399,7.0993393 c -0.533853,0.9200432 -0.820656,2.2177585 -0.70991,2.8396396 0.06531,0.2442091 0.298162,0.7667031 0.63324,1.1528941 0.698551,0.832014 0.766702,1.030789 0.431624,3.282623 -0.289643,1.984908 -0.533852,2.728894 -0.888807,2.83964 -0.675833,0.210133 -1.96219,-0.221492 -2.660742,-0.976836 -0.343596,-0.354956 -0.465701,-0.610523 -0.533852,-1.243763 -0.06531,-0.431625 -0.187416,-0.908684 -0.266926,-1.064865 -0.167539,-0.278284 -0.133463,-0.30952 -0.354955,0 -0.920043,1.198328 -1.686746,3.39337 -1.698105,4.96937 0,2.461968 1.664029,5.622487 4.083402,7.72098 1.030789,0.888807 1.186969,1.408461 0.888807,2.396656 -0.298161,1.008073 -0.266925,1.198328 0.354955,1.774775 0.309521,0.278285 0.610523,0.533852 0.70991,0.533852 0.09939,0 0.522494,-0.221492 0.797939,-0.533852 0.675834,-0.675834 1.331791,-1.064865 1.962191,-1.064865 0.55373,0 1.18697,0.587805 1.598717,1.507849 l 0.354955,0.621881 h 1.607236 c 1.962191,0 3.316699,-0.133463 3.904505,-0.533852 0.255567,-0.16754 0.633239,-0.709911 0.888807,-1.152895 1.130176,-1.930954 1.397103,-2.186522 2.217759,-2.572713 1.41982,-0.675834 3.46152,-2.950386 3.46152,-3.816475 0,-0.633241 -1.397103,-2.107013 -3.282624,-3.54955 -0.411747,-0.320879 -0.644597,-0.599164 -0.62188,-0.621881 0.210133,-0.221492 3.083848,2.064418 3.816476,3.018537 l 0.354954,0.533852 0.442984,-0.533852 c 0.511135,-0.576447 1.34315,-1.008073 2.572713,-1.152894 h 0.709911 v -1.419819 c 0,-0.743986 -0.03408,-1.717983 -0.08803,-2.21776 -0.08803,-0.854731 -0.03408,-0.965476 0.187416,-0.888807 1.243763,0.522495 2.064418,0.664476 2.541478,0.354955 0.178896,-0.09939 0.888807,-1.042148 1.607236,-2.129729 0.721267,-1.087582 1.553282,-2.229117 1.862803,-2.484685 1.087582,-0.988195 2.584072,-1.507849 4.88134,-1.686746 1.1103,-0.07667 1.26364,0.01136 1.774776,0.266926 0.721268,0.366314 1.453895,1.209686 1.953672,2.396656 0.354954,0.877449 0.420266,1.053506 1.25228,1.598717 1.385744,0.897326 2.396656,2.328505 2.751612,3.904505 0.122104,0.511135 0.221492,0.743985 0.442983,0.797939 0.465701,0.122104 2.396656,0.05679 3.194595,-0.08803 1.729341,-0.309521 3.805117,-1.698104 5.59125,-3.728446 0.999553,-1.121658 1.808851,-2.36258 1.686746,-2.484685 -0.0568,-0.06531 -1.243762,-0.122105 -2.561355,-0.178897 -2.072937,-0.09939 -2.427892,-0.144821 -2.672101,-0.354955 -0.343596,-0.309521 -0.377672,-1.042148 -0.08803,-1.598717 0.309521,-0.587806 1.252282,-1.41982 2.317147,-1.9621913 1.88552,-0.9654774 3.373491,-2.6295063 3.373491,-3.8164757 0,-0.6985513 -0.633239,-1.7747748 -1.152894,-1.9536721 C 80.584399,3.5668285 79.195815,3.9445006 76.123325,5.2194988 75.135131,5.6312465 74.016312,6.0060789 73.63864,6.108306 72.573776,6.352515 70.600226,6.3070808 69.734136,6.0202772 L 69.024226,5.7533501 68.936197,5.0434402 C 68.848169,4.2000672 68.51593,3.6463375 67.959361,3.3566942 67.470943,3.1238438 67.226734,3.1352023 66.539541,3.4447231 65.707527,3.8223952 65.008976,4.4102005 64.054857,5.7533501 61.902409,8.8599158 59.818114,10.046885 56.06695,10.100838 54.845905,10.134914 54.635772,10.078121 54.292176,9.8339122 53.494237,9.2574654 53.31534,8.8258402 53.31534,6.9062438 53.326693,5.1087519 53.494237,4.2000672 54.204147,2.2918294 54.902698,0.39495008 54.624413,-0.79201926 53.31534,-1.4451365 52.750251,-1.7120626 52.418013,-1.7546572 51.353149,-1.8000914 M 64.219556,11.432629 c -0.377672,0.01136 -0.94276,0.09939 -1.962191,0.266926 -1.130177,0.187417 -1.820209,0.354955 -2.308628,0.63324 -1.008072,0.533853 -2.229116,1.851445 -2.927668,3.194595 -0.644598,1.243762 -1.152893,1.820209 -1.774775,2.12973 -0.488417,0.255567 -1.41982,0.255567 -2.041701,0 l -0.442984,-0.187416 0.08803,0.442983 c 0.07668,0.244209 0.178898,1.130176 0.178898,1.953672 v 1.507849 h 0.442984 c 0.454342,0 0.664475,-0.144822 1.33179,-0.888808 1.786134,-1.984908 3.538191,-3.671653 4.446876,-4.259459 1.851446,-1.232404 4.446876,-1.851445 6.744145,-1.686745 1.130176,0.07667 1.152893,0.03408 1.064865,-0.266927 -0.332239,-1.064865 -1.252282,-2.297268 -1.962191,-2.663582 -0.232851,-0.122104 -0.499777,-0.198775 -0.888808,-0.187416 m 0.721268,3.915863 c -0.797938,0.01135 -1.652669,0.06531 -2.129729,0.178898 -0.897327,0.198774 -2.064418,0.775221 -3.027056,1.419819 -0.366314,0.244209 -1.740699,1.476613 -3.106566,2.751611 l -2.396656,2.308627 h -1.252281 c -2.308627,0 -3.484237,0.698551 -3.728447,2.05306 -0.06531,0.411747 -0.309521,0.931401 -0.533852,1.243761 -0.511135,0.732627 -2.694818,2.640865 -4.438357,3.827835 l -0.354955,0.178897 0.533853,-0.08803 c 1.962191,-0.309521 6.045593,-2.095655 7.366025,-3.194596 0.411748,-0.343596 1.41982,-0.954118 2.217759,-1.33179 1.397102,-0.675834 1.496489,-0.743986 1.953672,-1.507849 2.12973,-3.62622 4.904058,-5.858177 7.72098,-6.213132 0.843373,-0.110745 2.549997,-0.01135 2.839639,0.178898 0.110746,0.06531 0.542372,0.908685 0.542372,1.064865 0,0.04543 -0.309521,-0.08803 -0.70991,-0.354956 -0.411748,-0.278284 -0.775222,-0.488417 -0.797939,-0.431624 -0.02272,0.02272 0.266926,0.576446 0.621881,1.243761 l 0.621881,1.152894 -0.533852,-0.621881 C 66.059642,18.852607 65.6053,18.36419 65.273062,18.043311 l -0.621881,-0.621881 -0.897326,0.07666 c -1.232404,0.122105 -1.953672,0.553731 -1.953672,1.152895 0,0.144821 1.354508,1.152893 3.194594,2.217758 0.542371,0.320879 0.999554,0.587806 0.976836,0.621881 -0.02272,0.02272 -0.38903,-0.122104 -0.888807,-0.266926 -0.477059,-0.15618 -0.888807,-0.266926 -0.888807,-0.266926 -0.01135,0 -0.03407,0.411748 0,0.888807 0.03408,0.664476 -0.03407,0.965478 -0.266926,1.507849 -0.38903,0.854731 -1.465255,1.919596 -2.484685,2.396656 -0.675834,0.298161 -0.897326,0.343596 -1.686746,0.266925 -0.499776,-0.04543 -1.65267,-0.210132 -2.484684,-0.431624 -1.664029,-0.442984 -2.419374,-0.47706 -3.018538,0 -0.499776,0.377672 -0.454341,1.121658 0.08803,1.851444 0.522493,0.698552 0.843373,0.897327 1.851444,1.152894 2.12973,0.553729 4.648491,0 6.931561,-1.507849 0.343596,-0.23285 0.633239,-0.431624 0.70991,-0.431624 0.488418,0 -0.820656,1.374385 -1.774775,1.851444 -1.984909,0.988195 -4.980728,1.209687 -6.744145,0.442984 -0.866089,-0.354955 -1.831567,-1.363027 -2.053059,-2.129729 -0.08803,-0.289644 -0.23285,-0.621882 -0.289643,-0.621882 -0.02272,0 -0.198774,0.167539 -0.420266,0.354955 -0.442984,0.377672 -2.595431,1.442537 -4.083403,2.041701 -0.533852,0.210134 -0.931401,0.420267 -0.976836,0.442984 -0.05679,0.02272 0.122105,0.255567 0.354955,0.442984 0.877449,0.721268 1.243763,1.709463 0.888808,2.396656 -0.133464,0.23285 -0.15618,0.266926 1.064864,0.266926 2.339864,0 2.927669,0.411748 2.927669,1.962191 0,0.976836 0.09939,1.252281 0.70991,1.41982 0.442984,0.08803 0.687193,-0.15618 0.888807,-0.79794 0.15618,-0.488417 0.187417,-0.576446 0.354955,-0.354954 0.542371,0.70991 -0.144821,1.953672 -1.064864,1.953672 -0.442984,0 -0.644599,-0.0568 -1.496491,-0.621882 -0.511135,-0.320879 -0.897326,-0.343595 -2.053059,0 -0.542371,0.144822 -1.243763,0.786581 -1.243763,1.152895 0,0.122104 0.266927,0.411747 0.533853,0.709909 0.664475,0.755345 0.897326,1.374386 0.897326,2.484685 0.01136,1.076223 -0.06531,1.587359 -0.897326,3.282623 -1.243762,2.595432 -2.774329,6.77822 -3.373492,9.660455 -0.442984,2.175164 -0.565088,4.835906 -0.266926,6.22165 0.533852,2.518761 1.896879,4.003892 3.969816,4.438357 0.698552,0.144821 2.672101,1.064864 2.672101,1.243762 0,0.122105 -2.217759,-0.465701 -3.194595,-0.797939 -2.007625,-0.70991 -3.183236,-1.831567 -3.736965,-3.46152 -0.289644,-0.920044 -0.400389,-4.404282 -0.178898,-6.034234 0.332238,-2.408015 1.797492,-7.621593 3.549549,-12.602321 0.743986,-2.118371 0.820656,-2.339863 0.533853,-3.018537 -0.23285,-0.565089 -0.999553,-0.897326 -2.12973,-0.976836 -0.832015,-0.06531 -0.797938,-0.06531 -1.243762,0.431625 -0.511135,0.599164 -0.888807,1.664028 -1.331791,3.736966 l -0.354955,1.507848 0.08803,-1.252281 c 0.07667,-1.354508 0.587805,-5.179503 0.70991,-5.59125 0.07667,-0.244209 -0.877449,0.621881 -1.331791,1.243761 -0.232851,0.320881 -0.832015,0.709911 -1.243762,0.709911 -0.40039,0 -0.999554,-0.55373 -1.243762,-1.141535 l -0.178897,-0.354955 -2.317147,0.07667 c -1.274998,0.04543 -2.36258,0.07667 -2.396656,0.08803 -0.01136,0.02272 -0.187415,0.633241 -0.354954,1.41982 -0.786581,4.026609 -2.68346,9.072649 -5.148267,13.400259 -2.141088,3.782401 -2.396656,4.568981 -2.308627,6.744145 0.04543,1.186969 0.0568,1.431179 0.420267,2.217759 1.130176,2.263192 4.515027,4.214025 7.187127,4.09192 0.843373,-0.0568 1.198328,-0.187416 1.962192,-0.542371 1.09894,-0.511135 2.396656,-1.465253 3.194594,-2.396656 l 0.621882,-0.709909 v -1.962192 c 0,-1.076223 0.133462,-2.794205 0.266925,-3.904504 0.144822,-1.09894 0.187417,-2.683459 0.187417,-3.54955 -0.04543,-3.93858 -1.141535,-9.228829 -2.317146,-10.915574 -0.644599,-0.942761 -0.664476,-0.931403 -0.354956,-0.709911 1.331792,0.908685 2.351222,4.160072 2.927669,9.061291 0.122105,1.019431 0.244209,1.930955 0.266927,1.953672 0.06531,0.06531 0.94276,-0.999553 1.33179,-1.598717 0.366314,-0.55373 0.366314,-0.431626 -0.354954,1.243761 -1.098941,2.549997 -1.476613,4.492311 -1.41982,7.80901 0.0568,2.084295 0.08803,2.28591 0.442984,3.027056 1.087581,2.152446 5.03468,4.259459 7.996424,4.259459 2.419373,0 5.347042,-1.17561 7.454054,-3.117924 0.920044,-0.843373 0.976837,-0.954119 1.243763,-1.851446 0.775222,-2.530118 1.34315,-7.39726 1.252281,-10.481109 -0.06531,-1.686746 -0.187416,-2.263193 -0.542371,-3.461521 -0.533853,-1.786133 -1.686746,-4.549102 -2.663582,-6.477218 -0.63324,-1.232403 -1.130177,-2.873715 -0.988195,-3.018537 0.04543,-0.02272 0.278284,0.389031 0.542372,0.888807 0.320879,0.576448 0.499776,0.832015 0.533852,0.70991 0.04543,-0.110745 0.366313,-1.297715 0.709909,-2.572713 0.621881,-2.297268 0.653118,-2.308627 0.442984,-2.91631 -0.400389,-1.243762 -0.553729,-2.195041 -0.354955,-2.408014 0.221492,-0.289644 0.366314,-0.178898 0.70991,0.988194 0.15618,0.542371 0.278284,1.098941 0.354955,1.141535 0.0568,0.06531 0.488418,-0.278285 0.897326,-0.709909 l 0.709911,-0.709911 -0.354956,0.542371 c -0.187417,0.332239 -0.565089,1.121658 -0.897326,1.686747 -0.576447,1.008072 -0.999553,2.274551 -1.507849,4.793311 l -0.178895,1.064864 0.797939,1.862804 c 0.454342,1.01943 0.888807,2.095654 0.976836,2.396656 0.15618,0.664476 0.477059,1.076223 0.797939,0.976836 0.320879,-0.110747 0.954118,0.178897 1.774774,0.888807 0.797939,0.721268 1.453895,0.988195 2.396656,0.897326 1.553283,-0.122104 3.438803,-1.442537 4.182789,-2.927668 0.354955,-0.698551 0.354955,-0.832015 0.354955,-2.396656 V 40.499181 L 67.942323,37.11717 c -0.888807,-1.831567 -1.641312,-3.606342 -1.686745,-3.904505 -0.178898,-1.354508 0.664475,-3.839193 2.129729,-6.034234 1.175611,-1.752058 1.41982,-2.229117 1.774775,-4.347488 0.343596,-2.041701 0.289643,-4.049326 -0.08803,-4.96937 -0.587806,-1.476612 -1.41982,-2.141087 -3.018537,-2.396656 -0.599164,-0.08803 -1.41982,-0.09939 -2.217758,-0.08803 m 6.332395,5.400995 c -0.02272,0.06531 0,0.167538 0,0.354954 0,0.698551 -0.477059,3.027056 -0.797938,3.904505 -0.15618,0.38903 -0.775221,1.541924 -1.41982,2.484685 -1.320432,1.962191 -2.018984,3.461521 -2.129729,4.80183 -0.110746,1.243762 0.15618,2.05306 0.976836,3.271265 1.618594,2.427892 2.396656,4.702444 2.396656,6.832173 0,1.740699 -0.198776,2.561355 -1.064865,3.382011 -0.809298,0.766703 -0.664476,0.743986 1.064865,-0.08803 3.614861,-1.717982 6.289801,-4.637132 7.099099,-7.72098 0.465701,-1.831568 0.167538,-3.038415 -1.243763,-5.511741 -2.118371,-3.671653 -3.572266,-7.232561 -4.347488,-10.381722 -0.278284,-1.121658 -0.488418,-1.519207 -0.533853,-1.331791 m -26.099127,8.785845 c -0.908685,0.122104 -1.354508,0.420266 -1.953672,1.252281 -0.488419,0.698551 -0.94276,1.030789 -2.053059,1.331791 -0.888808,0.244209 -4.537744,0.366314 -4.793312,0.178897 -0.07667,-0.0568 -0.47706,-0.454342 -0.797939,-0.888807 -0.644598,-0.86609 -0.954119,-1.110299 -1.507848,-0.976836 -0.565089,0.144821 -1.507849,1.121657 -2.041701,2.12973 -0.465702,0.86609 -1.431179,3.606343 -1.331792,3.728446 0.04543,0.02272 1.374386,-0.420266 3.018537,-0.976836 3.771042,-1.25228 5.91213,-1.774774 8.518919,-2.0417 3.217312,-0.32088 4.41564,-0.499777 5.057399,-0.897327 1.030788,-0.599164 1.354508,-1.763416 0.621881,-2.396656 -0.644599,-0.599163 -1.03079,-0.664475 -2.751611,-0.442983 m 5.057398,3.117924 c -0.522494,0.01135 -1.087582,0.0568 -1.851445,0.178898 -0.888807,0.133462 -2.072937,0.320879 -2.561355,0.442983 -1.252281,0.289643 -3.049773,0.621882 -4.80183,0.797939 -2.76297,0.289643 -4.458235,0.86609 -5.591251,1.953672 l -0.70991,0.621881 3.373492,0.08803 h 3.382011 l 0.178897,0.442984 c 0.09939,0.255567 0.343597,0.621881 0.533852,0.797939 0.298162,0.289642 0.309521,0.255567 0.70991,0.07666 0.289644,-0.122103 0.675835,-0.454342 1.064865,-1.064864 1.008072,-1.541924 1.442537,-1.675387 1.953672,-0.621881 0.266926,0.565088 0.411747,0.687193 0.70991,0.709909 0.565089,0.06531 1.141535,-0.289642 1.686746,-1.064864 0.266926,-0.389031 0.721268,-0.965477 0.976836,-1.243762 l 0.442983,-0.542371 0.533853,0.266926 c 0.644598,0.298162 1.076223,0.198775 1.419819,-0.354955 0.653118,-1.008073 0.16754,-1.530566 -1.419819,-1.49649 m 10.926933,13.755214 c -0.06531,0 0,0.653118 0.178898,1.41982 0.187416,0.766703 0.400388,2.007625 0.442984,2.75161 0.08803,1.485132 0.255567,1.874163 0.888807,2.396657 0.442983,0.366313 1.130176,0.431625 1.607236,0.187416 0.533852,-0.266926 1.25228,-2.308627 1.507849,-4.347488 l 0.07667,-0.797939 -0.533853,0.08803 c -1.06486,0.167542 -3.038409,-0.565085 -3.81647,-1.419816 -0.15618,-0.144822 -0.309521,-0.266927 -0.354955,-0.266927 m 0,0"
                 style="fill:#000000;fill-opacity:0.9812734;fill-rule:nonzero;stroke:none;stroke-width:2.83963966"
                 id="path3066"
                 inkscape:connector-curvature="0" />
              <path
                 d="m 51.361667,-3.6988708 c -0.721268,-0.011358 -1.598717,0.022717 -1.953672,0.088029 -1.840087,0.3208793 -4.114638,2.2972684 -6.93156,6.0342342 C 40.869198,4.5644806 38.671317,6.0836879 37.683123,5.7060157 37.206064,5.5271184 36.927779,4.8853599 36.785797,3.576286 36.530229,1.3358104 35.976499,1.0262897 34.301112,2.1564662 33.690589,2.5767329 32.34744,4.1101383 31.728398,5.1750031 c -0.533852,0.9200432 -0.820656,2.2177586 -0.709909,2.8396397 0.06531,0.2442089 0.298162,0.7667027 0.633239,1.1528937 0.698552,0.8320144 0.766703,1.0307895 0.431625,3.2826235 -0.289643,1.984908 -0.533852,2.728894 -0.888807,2.83964 -0.675834,0.210133 -1.962191,-0.221492 -2.660742,-0.976836 -0.343597,-0.354955 -0.465701,-0.610523 -0.533852,-1.243763 -0.06531,-0.431625 -0.187417,-0.908684 -0.266927,-1.064865 -0.167538,-0.278284 -0.133463,-0.30952 -0.354955,0 -0.920043,1.198329 -1.686745,3.39337 -1.698104,4.96937 0,2.461967 1.664029,5.622486 4.083402,7.72098 1.030789,0.888807 1.186969,1.408462 0.888807,2.396656 -0.298162,1.008072 -0.266926,1.198328 0.354955,1.774774 0.309521,0.278285 0.610523,0.533853 0.70991,0.533853 0.09939,0 0.522494,-0.221492 0.797939,-0.533853 0.675833,-0.675834 1.33179,-1.064864 1.96219,-1.064864 0.553731,0 1.18697,0.587805 1.598718,1.507848 l 0.354954,0.621881 h 1.607237 c 1.962191,0 3.316699,-0.133462 3.904504,-0.533852 0.255568,-0.167538 0.63324,-0.709909 0.888807,-1.152893 1.130177,-1.930956 1.397104,-2.186523 2.21776,-2.572714 1.419819,-0.675834 3.461519,-2.950385 3.461519,-3.816476 0,-0.633239 -1.397102,-2.107013 -3.282623,-3.549549 -0.411748,-0.32088 -0.644598,-0.599164 -0.62188,-0.621881 0.210132,-0.221492 3.083848,2.064417 3.816475,3.018537 l 0.354955,0.533852 0.442984,-0.533852 c 0.511135,-0.576447 1.34315,-1.008072 2.572713,-1.152894 h 0.70991 v -1.41982 c 0,-0.743986 -0.03408,-1.717982 -0.08803,-2.217758 -0.08803,-0.854732 -0.03408,-0.965478 0.187417,-0.888808 1.243762,0.522494 2.064418,0.664476 2.541477,0.354956 0.178897,-0.09939 0.888807,-1.042148 1.607236,-2.129731 0.721268,-1.087581 1.553283,-2.229117 1.862804,-2.484684 1.087582,-0.9881947 2.584071,-1.5078487 4.88134,-1.686746 1.1103,-0.07667 1.263639,0.011358 1.774775,0.2669261 0.721269,0.3663136 1.453896,1.2096869 1.953672,2.3966559 0.354955,0.877448 0.420267,1.053506 1.252281,1.598717 1.385744,0.897327 2.396656,2.328505 2.751611,3.904505 0.122105,0.511134 0.221492,0.743985 0.442984,0.797938 0.4657,0.122105 2.396656,0.0568 3.194594,-0.08803 1.729341,-0.309521 3.805118,-1.698105 5.59125,-3.728448 0.999554,-1.121657 1.808851,-2.36258 1.686747,-2.484684 -0.05679,-0.06531 -1.243763,-0.122105 -2.561355,-0.178897 -2.072937,-0.09939 -2.427892,-0.144822 -2.672101,-0.354955 -0.343597,-0.309521 -0.377672,-1.042148 -0.08803,-1.5987174 0.309521,-0.5878054 1.252281,-1.4198198 2.317146,-1.962191 1.885521,-0.9654775 3.373492,-2.6295063 3.373492,-3.8164757 0,-0.6985513 -0.633239,-1.7747747 -1.152894,-1.953672 C 80.584399,1.6424914 79.195815,2.0201635 76.123324,3.2951617 75.13513,3.7069094 74.016312,4.0817419 73.63864,4.1839689 72.573775,4.4281779 70.600225,4.3827437 69.734136,4.09594 L 69.024225,3.8290139 68.936196,3.119104 C 68.848168,2.275731 68.51593,1.7220013 67.95936,1.432358 67.470943,1.1995077 67.226734,1.2108662 66.53954,1.5203868 65.707526,1.8980589 65.008975,2.4858643 64.054857,3.8290138 61.902409,6.9355796 59.818114,8.122549 56.06695,8.1765021 54.845904,8.2105782 54.635772,8.1537853 54.292175,7.909576 53.494237,7.3331292 53.315339,6.901504 53.315339,4.9819076 53.326702,3.1844157 53.494237,2.275731 54.204146,0.36749318 54.902697,-1.5293861 54.624413,-2.7163554 53.315339,-3.3694725 52.750251,-3.6363986 52.418013,-3.6789932 51.353148,-3.7244275 M 64.219556,9.5082932 c -0.377672,0.011359 -0.942761,0.099387 -1.962191,0.2669261 -1.130177,0.1874163 -1.820209,0.3549547 -2.308628,0.6332397 -1.008072,0.533852 -2.229116,1.851445 -2.927669,3.194594 -0.644597,1.243763 -1.152893,1.820209 -1.774774,2.12973 -0.488418,0.255568 -1.41982,0.255568 -2.041701,0 l -0.442984,-0.187416 0.08803,0.442984 c 0.07668,0.244209 0.178898,1.130177 0.178898,1.953672 v 1.507849 h 0.442983 c 0.454342,0 0.664476,-0.144822 1.331791,-0.888807 1.786134,-1.984908 3.538191,-3.671655 4.446876,-4.25946 1.851445,-1.232404 4.446876,-1.851445 6.744144,-1.686746 1.130177,0.07667 1.152893,0.03407 1.064865,-0.266926 C 66.726957,11.283068 65.806914,10.050664 65.097004,9.6843508 64.864153,9.5622464 64.597228,9.4855761 64.208196,9.4969347 m 0.721269,3.9158623 c -0.797938,0.01136 -1.65267,0.06531 -2.129729,0.178898 -0.897327,0.198774 -2.064419,0.775222 -3.027056,1.41982 -0.366314,0.244209 -1.740699,1.476612 -3.106566,2.75161 l -2.396656,2.308628 h -1.252281 c -2.308627,0 -3.484238,0.698551 -3.728447,2.053059 -0.06531,0.411748 -0.309521,0.931401 -0.533852,1.243763 -0.511135,0.732627 -2.694818,2.640864 -4.438357,3.827834 l -0.354955,0.178897 0.533852,-0.08803 c 1.962191,-0.309521 6.045593,-2.095654 7.366026,-3.194594 0.411747,-0.343597 1.41982,-0.95412 2.217758,-1.331792 1.397103,-0.675834 1.49649,-0.743985 1.953672,-1.507848 2.12973,-3.62622 4.904058,-5.858177 7.72098,-6.213131 0.843374,-0.110747 2.549997,-0.01136 2.83964,0.178896 0.110746,0.06531 0.542371,0.908685 0.542371,1.064865 0,0.04543 -0.309521,-0.08803 -0.709909,-0.354954 -0.411749,-0.278285 -0.775222,-0.488419 -0.79794,-0.431626 -0.02272,0.02272 0.266927,0.576448 0.621882,1.243763 l 0.621881,1.152893 -0.533852,-0.621881 C 66.059642,16.928272 65.6053,16.439853 65.273062,16.118974 l -0.621882,-0.621881 -0.897326,0.07667 c -1.232403,0.122104 -1.953672,0.55373 -1.953672,1.152894 0,0.144822 1.354509,1.152893 3.194595,2.217758 0.542371,0.32088 0.999553,0.587806 0.976836,0.621882 -0.02272,0.02272 -0.38903,-0.122105 -0.888807,-0.266927 -0.477059,-0.15618 -0.888807,-0.266926 -0.888807,-0.266926 -0.01135,0 -0.03408,0.411748 0,0.888807 0.03408,0.664476 -0.03408,0.965478 -0.266927,1.507849 -0.38903,0.854732 -1.465254,1.919597 -2.484685,2.396656 -0.675833,0.298162 -0.897325,0.343597 -1.686745,0.266927 -0.499777,-0.04543 -1.652671,-0.210134 -2.484685,-0.431626 -1.664029,-0.442984 -2.419373,-0.477059 -3.018537,0 -0.499777,0.377672 -0.454342,1.121658 0.08803,1.851445 0.522493,0.698552 0.843373,0.897326 1.851445,1.152894 2.12973,0.55373 4.64849,0 6.93156,-1.507849 0.343597,-0.23285 0.63324,-0.431625 0.709911,-0.431625 0.488417,0 -0.820656,1.374385 -1.774776,1.851445 -1.984908,0.988195 -4.980728,1.209687 -6.744144,0.442983 -0.86609,-0.354954 -1.831567,-1.363027 -2.053059,-2.129729 -0.08803,-0.289643 -0.23285,-0.621881 -0.289643,-0.621881 -0.02272,0 -0.198775,0.167538 -0.420267,0.354955 -0.442984,0.377672 -2.595431,1.442537 -4.083402,2.041701 -0.533852,0.210133 -0.931401,0.420266 -0.976836,0.442983 -0.0568,0.02272 0.122105,0.255568 0.354955,0.442984 0.877448,0.721269 1.243762,1.709463 0.888808,2.396656 -0.133464,0.23285 -0.156181,0.266927 1.064864,0.266927 2.339864,0 2.927668,0.411747 2.927668,1.962191 0,0.976836 0.09939,1.25228 0.709911,1.419819 0.442984,0.08803 0.687192,-0.15618 0.888807,-0.797938 0.15618,-0.488419 0.187416,-0.576448 0.354954,-0.354956 0.542372,0.709911 -0.144821,1.953672 -1.064864,1.953672 -0.442983,0 -0.644598,-0.0568 -1.49649,-0.62188 -0.511135,-0.32088 -0.897326,-0.343597 -2.05306,0 -0.542371,0.144821 -1.243762,0.786579 -1.243762,1.152893 0,0.122105 0.266926,0.411748 0.533852,0.70991 0.664476,0.755345 0.897327,1.374386 0.897327,2.484684 0.01136,1.076224 -0.06531,1.587359 -0.897327,3.282624 -1.243762,2.595431 -2.774328,6.77822 -3.373492,9.660455 -0.442984,2.175163 -0.565088,4.835906 -0.266925,6.22165 0.533852,2.51876 1.896879,4.003892 3.969816,4.438357 0.698551,0.144821 2.6721,1.064864 2.6721,1.243761 0,0.122105 -2.217758,-0.465701 -3.194594,-0.797938 -2.007626,-0.709911 -3.183236,-1.831568 -3.736965,-3.461521 -0.289644,-0.920043 -0.40039,-4.404281 -0.178898,-6.034234 0.332237,-2.408015 1.797492,-7.621593 3.549549,-12.602321 0.743986,-2.118371 0.820656,-2.339863 0.533852,-3.018537 -0.23285,-0.565088 -0.999552,-0.897326 -2.129729,-0.976836 -0.832015,-0.06531 -0.797938,-0.06531 -1.243763,0.431626 -0.511134,0.599164 -0.888806,1.664029 -1.33179,3.736965 l -0.354955,1.507849 0.08803,-1.252282 c 0.07668,-1.354508 0.587806,-5.179502 0.709911,-5.59125 0.07666,-0.244209 -0.877449,0.621882 -1.331791,1.243763 -0.232851,0.320879 -0.832015,0.709909 -1.243763,0.709909 -0.400389,0 -0.999553,-0.553729 -1.243761,-1.141535 l -0.178898,-0.354954 -2.317146,0.07667 c -1.274998,0.04543 -2.362581,0.07667 -2.396656,0.08803 -0.01136,0.02272 -0.187417,0.633239 -0.354955,1.419819 -0.78658,4.02661 -2.683459,9.072649 -5.148266,13.40026 -2.141089,3.7824 -2.396656,4.56898 -2.308628,6.744144 0.04543,1.186969 0.0568,1.431178 0.420268,2.217758 1.130175,2.263193 4.515026,4.214026 7.187127,4.091922 0.843373,-0.0568 1.198328,-0.187417 1.962191,-0.542372 1.09894,-0.511135 2.396656,-1.465254 3.194595,-2.396655 l 0.621881,-0.709911 v -1.962191 c 0,-1.076223 0.133463,-2.794206 0.266926,-3.904504 0.144822,-1.098941 0.187416,-2.68346 0.187416,-3.549549 -0.04543,-3.938581 -1.141535,-9.228829 -2.317145,-10.915576 -0.644599,-0.94276 -0.664476,-0.931401 -0.354956,-0.709909 1.331792,0.908685 2.351222,4.160072 2.927669,9.06129 0.122104,1.01943 0.244209,1.930954 0.266926,1.953672 0.06531,0.06531 0.94276,-0.999554 1.331791,-1.598718 0.366314,-0.553729 0.366314,-0.431624 -0.354955,1.243763 -1.09894,2.549997 -1.476613,4.492309 -1.41982,7.809009 0.0568,2.084296 0.08803,2.28591 0.442984,3.027055 1.087582,2.152448 5.034681,4.25946 7.996425,4.25946 2.419373,0 5.347042,-1.175611 7.454054,-3.117924 0.920044,-0.843373 0.976836,-0.954119 1.243762,-1.851445 0.775221,-2.530119 1.34315,-7.397262 1.252282,-10.48111 -0.06531,-1.686746 -0.187417,-2.263193 -0.542372,-3.461521 -0.533853,-1.786133 -1.686746,-4.549103 -2.663582,-6.477218 -0.633239,-1.232404 -1.130177,-2.873716 -0.988195,-3.018537 0.04543,-0.02272 0.278285,0.389031 0.542372,0.888807 0.320879,0.576447 0.499776,0.832014 0.533852,0.70991 0.04543,-0.110746 0.366313,-1.297715 0.70991,-2.572713 0.621881,-2.297269 0.653117,-2.308627 0.442984,-2.91631 -0.40039,-1.243762 -0.55373,-2.195042 -0.354955,-2.408015 0.221492,-0.289643 0.366314,-0.178897 0.709909,0.988195 0.15618,0.542372 0.278285,1.09894 0.354956,1.141535 0.0568,0.06531 0.488417,-0.278284 0.897326,-0.70991 l 0.70991,-0.709909 -0.354956,0.542371 c -0.187416,0.332237 -0.565088,1.121657 -0.897325,1.686745 -0.576447,1.008072 -0.999554,2.274551 -1.507849,4.793312 l -0.178898,1.064865 0.79794,1.862803 c 0.454342,1.019431 0.888807,2.095655 0.976836,2.396656 0.15618,0.664476 0.477059,1.076224 0.797938,0.976836 0.320879,-0.110745 0.954119,0.178898 1.774775,0.888808 0.797938,0.721268 1.453895,0.988194 2.396656,0.897326 1.553282,-0.122105 3.438803,-1.442537 4.182789,-2.927669 0.354955,-0.698551 0.354955,-0.832014 0.354955,-2.396656 v -1.686745 l -1.607236,-3.382012 c -0.888807,-1.831567 -1.641312,-3.606342 -1.686746,-3.904503 -0.178897,-1.354508 0.664476,-3.839193 2.129729,-6.034235 1.175612,-1.752057 1.41982,-2.229117 1.774776,-4.347488 0.343595,-2.041701 0.289643,-4.049326 -0.08803,-4.96937 -0.587806,-1.476612 -1.41982,-2.141088 -3.018537,-2.396655 -0.599164,-0.08803 -1.41982,-0.09939 -2.217759,-0.08803 m 6.332396,5.400994 c -0.02272,0.06531 0,0.167539 0,0.354956 0,0.698551 -0.477059,3.027055 -0.797938,3.904503 -0.156181,0.389032 -0.775222,1.541925 -1.41982,2.484685 -1.320433,1.962191 -2.018984,3.461521 -2.129729,4.801831 -0.110747,1.243762 0.15618,2.05306 0.976836,3.271265 1.618594,2.427892 2.396655,4.702443 2.396655,6.832173 0,1.740699 -0.198775,2.561355 -1.064865,3.382011 -0.809297,0.766702 -0.664475,0.743985 1.064865,-0.08803 3.614861,-1.717982 6.289802,-4.637131 7.099099,-7.72098 C 77.75896,34.244393 77.460797,33.037547 76.049496,30.56422 73.931125,26.892566 72.477229,23.331658 71.702007,20.182497 71.423723,19.06084 71.21359,18.66329 71.168155,18.850707 m -26.099127,8.785845 c -0.908685,0.122104 -1.354508,0.420267 -1.953672,1.252281 -0.488419,0.698551 -0.942761,1.030789 -2.05306,1.331791 -0.888808,0.244209 -4.537744,0.366313 -4.793311,0.178897 -0.07667,-0.0568 -0.477061,-0.454342 -0.79794,-0.888807 -0.644597,-0.866091 -0.954118,-1.110299 -1.507848,-0.976836 -0.565088,0.144822 -1.507849,1.121658 -2.041701,2.12973 -0.465701,0.86609 -1.431179,3.606342 -1.331791,3.728447 0.04543,0.02272 1.374386,-0.420267 3.018537,-0.976836 3.771042,-1.252282 5.91213,-1.774775 8.518918,-2.041702 3.217313,-0.320879 4.415641,-0.499776 5.057399,-0.897325 1.030789,-0.599164 1.354508,-1.763417 0.621882,-2.396656 -0.644599,-0.599164 -1.03079,-0.664476 -2.751612,-0.442984 m 5.057399,3.117924 c -0.522494,0.01136 -1.087582,0.0568 -1.851445,0.178897 -0.888807,0.133464 -2.072938,0.320879 -2.561355,0.442984 -1.252282,0.289644 -3.049774,0.621881 -4.801831,0.797939 -2.762969,0.289643 -4.458235,0.86609 -5.591251,1.953672 l -0.709909,0.621881 3.373492,0.08803 h 3.38201 l 0.178898,0.442983 c 0.09939,0.255568 0.343596,0.621882 0.533852,0.797939 0.298162,0.289644 0.309521,0.255568 0.709909,0.07667 0.289644,-0.122105 0.675835,-0.454342 1.064865,-1.064865 1.008073,-1.541925 1.442538,-1.675387 1.953672,-0.621882 0.266927,0.565089 0.411748,0.687194 0.709911,0.709911 0.565088,0.06531 1.141535,-0.289643 1.686745,-1.064865 0.266927,-0.38903 0.721269,-0.965478 0.976836,-1.243762 l 0.442984,-0.542372 0.533852,0.266927 c 0.644599,0.298162 1.076224,0.198774 1.41982,-0.354955 0.653118,-1.008072 0.167539,-1.530566 -1.41982,-1.496491 m 10.926934,13.755215 c -0.06531,0 0,0.653117 0.178898,1.41982 0.187416,0.766703 0.400388,2.007625 0.442983,2.751611 0.08803,1.485131 0.255568,1.874162 0.888807,2.396656 0.442984,0.366313 1.130177,0.431625 1.607236,0.187416 0.533853,-0.266927 1.252281,-2.308627 1.507849,-4.347489 l 0.07667,-0.797938 -0.533852,0.08803 c -1.06486,0.167543 -3.038409,-0.565084 -3.816471,-1.419816 -0.15618,-0.144821 -0.309521,-0.266925 -0.354954,-0.266925 m 0,0"
                 style="fill:#d50000;fill-opacity:1;fill-rule:nonzero;stroke:none;stroke-width:0.28825059;stroke-miterlimit:4;stroke-dasharray:none;stroke-opacity:1"
                 id="path3074"
                 inkscape:connector-curvature="0" />
            </g>
            <path
               inkscape:connector-curvature="0"
               id="path4236-5"
               d="m 16.186834,-13.16556 c -3.680143,0 -6.6428572,2.962713 -6.6428572,6.6428553 V 10.084434 H 10.65112 V -6.5227047 c 0,-3.0859355 2.449774,-5.5357133 5.535714,-5.5357133 h 79.714281 c 3.085939,0 5.535715,2.4497778 5.535715,5.5357133 V 10.084434 h 1.10714 V -6.5227047 c 0,-3.6801423 -2.962712,-6.6428553 -6.642855,-6.6428553 z"
               style="display:inline;opacity:0.45;fill:url(#radialGradient3827);fill-opacity:1;fill-rule:nonzero;stroke:none;stroke-width:1.10714269" />
            <path
               id="path4118"
               d="m 9.5439564,67.178189 0,6 c 0,3.680142 2.9761066,6.65625 6.6562496,6.65625 l 79.6875,0 c 3.680143,0 6.656254,-2.976108 6.656254,-6.65625 l 0,-6 c 0,3.680142 -2.976111,6.65625 -6.656254,6.65625 l -79.6875,0 c -3.680143,0 -6.6562496,-2.976108 -6.6562496,-6.65625 z"
               style="display:inline;opacity:0.89090905;fill:url(#linearGradient3829);fill-opacity:1;fill-rule:nonzero;stroke:none"
               inkscape:connector-curvature="0" />
            <rect
               transform="matrix(0,1,-1,0,0,0)"
               style="opacity:0.55;fill:url(#radialGradient3833);fill-opacity:1;stroke:none"
               id="rect4141"
               width="76.75"
               height="4.25"
               x="-9.9155607"
               y="-98.668961"
               rx="0"
               ry="4.25" />
            <g
               id="g4615"
               transform="translate(251.28797,-104.89729)">
              <g
                 style="display:none"
                 id="layer2-8">
                <rect
                   style="opacity:0.9;fill:url(#linearGradient5078);fill-opacity:1;fill-rule:nonzero;stroke:none;filter:url(#filter3174-3)"
                   id="rect3745-9"
                   y="7"
                   x="5"
                   ry="6"
                   rx="6"
                   height="85"
                   width="86" />
              </g>
            </g>
            <rect
               clip-path="url(#clipPath4156-4)"
               ry="3.9569881"
               rx="3.9569874"
               y="-30"
               x="2"
               height="92"
               width="92"
               id="rect4146"
               style="fill:url(#linearGradient3837);fill-opacity:1;stroke:none"
               transform="matrix(0.90930469,0,0,0.92837735,12.389064,19.82926)" />
            <path
               style="color:#000000;font-style:normal;font-variant:normal;font-weight:normal;font-stretch:normal;font-size:medium;line-height:normal;font-family:Sans;-inkscape-font-specification:Sans;text-indent:0;text-align:start;text-decoration:none;text-decoration-line:none;letter-spacing:normal;word-spacing:normal;text-transform:none;direction:ltr;block-progression:tb;writing-mode:lr-tb;baseline-shift:baseline;text-anchor:start;display:inline;overflow:visible;visibility:visible;fill:#241f1f;fill-opacity:0.63265303;stroke:none;stroke-width:2.3755002;marker:none;enable-background:accumulate"
               d="m 17.869037,-9.9361001 c -3.116621,0 -5.667965,2.53951 -5.667965,5.646004 l 0,69.2779961 c 0,3.106495 2.551344,5.646004 5.667965,5.646004 l 76.791785,0 c 3.116621,0 5.667968,-2.539509 5.667968,-5.646004 l 0,-69.2779961 c 0,-3.106493 -2.551347,-5.646004 -5.667968,-5.646004 l -76.791785,0 z m 0,2.319439 76.791785,0 c 1.888099,0 3.352022,1.480095 3.352022,3.326565 l 0,69.2779961 c 0,1.846474 -1.463923,3.326564 -3.352022,3.326564 l -76.791785,0 c -1.888099,0 -3.352022,-1.48009 -3.352022,-3.326564 l 0,-69.2779961 c 0,-1.84647 1.463923,-3.326565 3.352022,-3.326565 z"
               id="path4989"
               inkscape:connector-curvature="0" />
            <rect
               ry="4.25"
               rx="0"
               y="-70.134438"
               x="-94.418961"
               height="4.25"
               width="76.75"
               id="rect1108"
               style="opacity:0.55;fill:url(#radialGradient1110);fill-opacity:1;stroke:none"
               transform="scale(-1)" />
          </g>
        </g>
        <g
           style="display:none"
           id="layer2-2">
          <rect
             style="opacity:0.9;fill:url(#linearGradient3839);fill-opacity:1;fill-rule:nonzero;stroke:none;filter:url(#filter3174-36)"
             id="rect3745-90"
             y="7"
             x="5"
             ry="6"
             rx="6"
             height="85"
             width="86" />
        </g>
        <g
           id="layer5-8" />
      </g>
      <g
         id="layer2-0"
         style="display:none">
        <rect
           width="86"
           height="85"
           rx="6"
           ry="6"
           x="5"
           y="7"
           id="rect3745-1"
           style="opacity:0.9;fill:url(#linearGradient5080);fill-opacity:1;fill-rule:nonzero;stroke:none;filter:url(#filter3174-4)" />
      </g>
    </g>
    <g
       style="display:none"
       id="layer2">
      <rect
         style="opacity:0.9;fill:url(#linearGradient5082);fill-opacity:1;fill-rule:nonzero;stroke:none;filter:url(#filter3174)"
         id="rect3745"
         y="7"
         x="5"
         ry="6"
         rx="6"
         height="85"
         width="86" />
    </g>
    <g
       style="display:none"
       id="layer5">
      <rect
         style="opacity:0.1;fill:url(#linearGradient3613);fill-opacity:1;fill-rule:nonzero;stroke:#ffffff;stroke-width:0.5;stroke-linecap:round;stroke-linejoin:miter;stroke-miterlimit:4;stroke-dasharray:none;stroke-dashoffset:0;stroke-opacity:1;filter:url(#filter3794)"
         id="rect3171"
         clip-path="url(#clipPath3613)"
         y="15"
         x="15"
         ry="12"
         rx="12"
         height="66"
         width="66" />
    </g>
    <g
       transform="translate(-173.25879,12.600639)"
       id="g3307">
      <g
         id="layer1" />
    </g>
  </g>
</svg>
