<?xml version="1.0" encoding="UTF-8" standalone="no"?>
<svg
   xmlns:dc="http://purl.org/dc/elements/1.1/"
   xmlns:cc="http://creativecommons.org/ns#"
   xmlns:rdf="http://www.w3.org/1999/02/22-rdf-syntax-ns#"
   xmlns:svg="http://www.w3.org/2000/svg"
   xmlns="http://www.w3.org/2000/svg"
   xmlns:xlink="http://www.w3.org/1999/xlink"
   xmlns:sodipodi="http://sodipodi.sourceforge.net/DTD/sodipodi-0.dtd"
   xmlns:inkscape="http://www.inkscape.org/namespaces/inkscape"
   viewBox="0 0 48 48"
   version="1.1"
   id="svg790"
   sodipodi:docname="steam_icon_115100.svg"
   inkscape:version="0.92.2 5c3e80d, 2017-08-06">
  <metadata
     id="metadata794">
    <rdf:RDF>
      <cc:Work
         rdf:about="">
        <dc:format>image/svg+xml</dc:format>
        <dc:type
           rdf:resource="http://purl.org/dc/dcmitype/StillImage" />
      </cc:Work>
    </rdf:RDF>
  </metadata>
  <sodipodi:namedview
     pagecolor="#ffffff"
     bordercolor="#666666"
     borderopacity="1"
     objecttolerance="10"
     gridtolerance="10"
     guidetolerance="10"
     inkscape:pageopacity="0"
     inkscape:pageshadow="2"
     inkscape:window-width="1280"
     inkscape:window-height="974"
     id="namedview792"
     showgrid="false"
     inkscape:zoom="5.255654"
     inkscape:cx="-0.44985905"
     inkscape:cy="24"
     inkscape:window-x="0"
     inkscape:window-y="21"
     inkscape:window-maximized="1"
     inkscape:current-layer="svg790" />
  <defs
     id="defs732">
    <linearGradient
       id="linearGradient3911"
       x1="1"
       x2="47"
       gradientUnits="userSpaceOnUse">
      <stop
         style="stop-color:#01314e;stop-opacity:1"
         id="stop727" />
      <stop
         offset="1"
         style="stop-color:#013e63;stop-opacity:1"
         id="stop729" />
    </linearGradient>
    <linearGradient
       inkscape:collect="always"
       xlink:href="#linearGradient6139-0"
       id="linearGradient4071"
       gradientUnits="userSpaceOnUse"
       gradientTransform="matrix(0.55357139,0,0,0.5535713,9.8903316,41.927218)"
       x1="6"
       y1="47.000011"
       x2="90"
       y2="47.000011" />
    <linearGradient
       id="linearGradient6139-0">
      <stop
         id="stop6141-2"
         offset="0"
         style="stop-color:#b2babc;stop-opacity:1" />
      <stop
         style="stop-color:#ffffff;stop-opacity:1;"
         offset="0.25"
         id="stop6151-0" />
      <stop
         style="stop-color:#96a1a4;stop-opacity:1"
         offset="0.5"
         id="stop6147-1" />
      <stop
         id="stop6149-4"
         offset="0.75"
         style="stop-color:#fbf9f9;stop-opacity:1;" />
      <stop
         id="stop6143-4"
         offset="1"
         style="stop-color:#b2b9bc;stop-opacity:1" />
    </linearGradient>
    <linearGradient
       gradientTransform="matrix(0.49999999,0,0,0.5,12.46176,43.945075)"
       inkscape:collect="always"
       xlink:href="#linearGradient3832-0-6-1-1"
       id="linearGradient4129"
       x1="1.5"
       y1="88.171875"
       x2="94.5"
       y2="88.171875"
       gradientUnits="userSpaceOnUse" />
    <linearGradient
       id="linearGradient3832-0-6-1-1">
      <stop
         style="stop-color:#000000;stop-opacity:1;"
         offset="0"
         id="stop3834-6-3-7-1" />
      <stop
         id="stop3872-2-4"
         offset="0.1"
         style="stop-color:#000000;stop-opacity:0.58823532;" />
      <stop
         style="stop-color:#000000;stop-opacity:0.58823532;"
         offset="0.89999998"
         id="stop3844-6-2-7-6" />
      <stop
         style="stop-color:#000000;stop-opacity:1;"
         offset="1"
         id="stop3836-5-0-2-9" />
    </linearGradient>
    <radialGradient
       inkscape:collect="always"
       xlink:href="#linearGradient3737"
       id="radialGradient7462"
       gradientUnits="userSpaceOnUse"
       gradientTransform="matrix(0.48756688,0,0,0.02459536,29.411107,84.028423)"
       cx="13.948145"
       cy="44.892841"
       fx="13.948145"
       fy="44.892841"
       r="43.199203" />
    <linearGradient
       id="linearGradient3737">
      <stop
         offset="0"
         style="stop-color:#ffffff;stop-opacity:1"
         id="stop3739" />
      <stop
         offset="1"
         style="stop-color:#ffffff;stop-opacity:0"
         id="stop3741" />
    </linearGradient>
    <radialGradient
       inkscape:collect="always"
       xlink:href="#linearGradient3737"
       id="radialGradient7464"
       gradientUnits="userSpaceOnUse"
       gradientTransform="matrix(0.44416332,0,0,0.02459536,59.717321,-57.545912)"
       cx="13.948145"
       cy="44.892841"
       fx="13.948145"
       fy="44.892841"
       r="43.199203" />
    <linearGradient
       inkscape:collect="always"
       xlink:href="#linearGradient3737"
       id="linearGradient4767"
       gradientUnits="userSpaceOnUse"
       x1="2.7713892"
       y1="-28.64156"
       x2="50.527882"
       y2="14.514202"
       gradientTransform="translate(23.030836,-8.5329725)" />
    <clipPath
       id="clipPath4156-4-1"
       clipPathUnits="userSpaceOnUse">
      <path
         inkscape:connector-curvature="0"
         id="path4158-0-8"
         d="m 27.046336,-55.695463 -14.21366,13.321486 h 0.06127 l 15.653407,21.770763 10.231384,-10.546177 C 38.561832,-32.30156 27.468089,-54.819245 27.046336,-55.695463 Z M 9.6468554,-39.382809 -5.2407289,-25.32124 15.987863,-7.8059573 26.372412,-18.382966 Z m 31.4906096,12.951445 -9.741259,9.713584 8.944804,12.4580526 7.780753,-7.5550056 z m -49.8397109,4.378822 -13.7541661,12.9822847 26.2830181,13.84571 0.06127,-0.0617 -0.122531,-0.0617 L 13.598503,-5.4007374 -8.7022409,-22.052595 Z m 38.0154159,7.400825 -9.802525,9.7752596 11.579232,9.5594001 7.62759,-7.40083 -8.669108,-11.0087257 z m 20.187073,5.6739697 -7.382526,7.2158 6.187844,8.54179 5.820249,-6.13651996 z m -32.195166,6.32154 -9.5574606,9.49772 13.6622686,7.1849703 7.933918,-7.6783603 z m 23.311629,2.37443004 -7.10683,6.93826996 8.362778,6.9074403 5.360756,-5.6739699 -0.06127,-0.0925 -0.0919,0.12335 -6.463539,-8.20258036 z m -8.730374,8.54178036 -7.505057,7.3391599 10.353916,5.45811 c 1.397496,-1.32103 5.67514,-6.12292 5.850882,-6.32154 z"
         style="opacity:0.6;fill:#ffffff;fill-opacity:1;stroke:none" />
    </clipPath>
    <linearGradient
       id="ButtonShadow-16"
       gradientTransform="scale(1.0058652,0.994169)"
       x1="45.447727"
       y1="92.539597"
       x2="45.447727"
       y2="7.0165396"
       gradientUnits="userSpaceOnUse">
      <stop
         style="stop-color:#000000;stop-opacity:1;"
         offset="0"
         id="stop3750-6" />
      <stop
         style="stop-color:#000000;stop-opacity:0.58823532;"
         offset="1"
         id="stop3752-4" />
    </linearGradient>
    <clipPath
       clipPathUnits="userSpaceOnUse"
       id="clipPath4355-7">
      <rect
         style="fill:#ffffff;fill-opacity:1;fill-rule:nonzero;stroke:none"
         id="rect4357-5"
         width="84"
         height="80"
         x="6"
         y="6"
         rx="6"
         ry="6" />
    </clipPath>
    <clipPath
       clipPathUnits="userSpaceOnUse"
       id="clipPath4355-9">
      <rect
         style="fill:#ffffff;fill-opacity:1;fill-rule:nonzero;stroke:none"
         id="rect4357-1"
         width="84"
         height="80"
         x="6"
         y="6"
         rx="6"
         ry="6" />
    </clipPath>
    <clipPath
       clipPathUnits="userSpaceOnUse"
       id="clipPath4355-1">
      <rect
         style="fill:#ffffff;fill-opacity:1;fill-rule:nonzero;stroke:none"
         id="rect4357-9"
         width="84"
         height="80"
         x="6"
         y="6"
         rx="6"
         ry="6" />
    </clipPath>
    <clipPath
       clipPathUnits="userSpaceOnUse"
       id="clipPath3943-52-0">
      <path
         id="path3945-4-1"
         d="m 69.78125,20.84375 -5,3.4375 c 5.586891,5.537137 9,13.327613 9,21.8125 0,8.434478 -3.37723,16.095981 -8.90625,21.625 l 5,3.4375 C 76.078226,64.5762 80,55.843726 80,46.09375 c 2e-6,-9.796556 -3.962955,-18.660417 -10.21875,-25.25 z M 40,24.0625 28.90625,36.21875 H 21.5 c -0.823281,0 -1.5,0.676717 -1.5,1.5 v 1 14.84375 1 c 0,0.823281 0.684121,1.610161 1.5,1.5 h 7.40625 L 40,68 V 66 26.0625 Z m 20.59375,3.28125 -5,3.4375 L 55.5,30.875 c 3.93815,3.890071 6.40625,9.25018 6.40625,15.21875 0,5.920869 -2.42961,11.148358 -6.3125,15.03125 l 0.09375,0.09375 5.09375,3.4375 c 4.475428,-4.908367 7.25,-11.402005 7.25,-18.5625 0,-7.230696 -2.87904,-13.83107 -7.4375,-18.75 z m -9.25,6.5 -5.21875,3.625 c 2.222384,2.217802 3.71875,5.239596 3.71875,8.625 0,3.336509 -1.458847,6.227712 -3.625,8.4375 l 5.21875,3.625 c 2.822412,-3.236947 4.53125,-7.43414 4.53125,-12.0625 0,-4.672601 -1.754155,-9.001351 -4.625,-12.25 z"
         style="color:#000000;display:inline;overflow:visible;visibility:visible;opacity:0.8;fill:#ff00ff;fill-opacity:1;fill-rule:nonzero;stroke:none;stroke-width:1;marker:none;enable-background:accumulate"
         inkscape:connector-curvature="0" />
    </clipPath>
  </defs>
  <g
     transform="translate(0,-1074.5197)"
     id="layer1"
     inkscape:label="Livello 1">
    <g
       id="g2574"
       style="display:inline"
       transform="translate(-0.14895645,1026.1047)">
      <g
         transform="matrix(0.99583335,0,0,0.99583333,0.10062037,0.30172941)"
         id="g878">
        <path
           inkscape:connector-curvature="0"
           id="path3288"
           d="M 44.720383,48.415 H 3.5775242 c -1.899424,0 -3.42856754,1.529142 -3.42856754,3.42857 v 41.142859 c 0,1.899428 1.52914354,3.428571 3.42856754,3.428571 H 44.720383 c 1.899428,0 3.428573,-1.529143 3.428573,-3.428571 V 51.84357 c 0,-1.899428 -1.529145,-3.42857 -3.428573,-3.42857 z"
           style="display:inline;opacity:0.15;fill:#000000;fill-opacity:1;fill-rule:nonzero;stroke:none;stroke-width:0.5" />
        <path
           style="display:inline;opacity:0.15;fill:#000000;fill-opacity:1;fill-rule:nonzero;stroke:none;stroke-width:0.5"
           d="M 44.398955,48.79 H 3.8989522 c -1.869746,0 -3.37499645,1.505249 -3.37499645,3.374998 V 92.665 c 0,1.86975 1.50525045,3.375 3.37499645,3.375 H 44.398955 c 1.869751,0 3.375001,-1.50525 3.375001,-3.375 V 52.164998 c 0,-1.869749 -1.50525,-3.374998 -3.375001,-3.374998 z"
           id="path4085"
           inkscape:connector-curvature="0" />
        <path
           inkscape:connector-curvature="0"
           id="rect4251-1"
           d="M 44.077524,49.165 H 4.2203842 c -1.8400715,0 -3.32142826,1.481357 -3.32142826,3.321427 v 39.857145 c 0,1.840072 1.48135676,3.321428 3.32142826,3.321428 H 44.077524 c 1.840072,0 3.321427,-1.481357 3.321427,-3.321428 V 52.486427 c 0,-1.84007 -1.481355,-3.321427 -3.321427,-3.321427 z"
           style="display:inline;fill:url(#linearGradient4071);fill-opacity:1;fill-rule:nonzero;stroke:none;stroke-width:0.5" />
        <path
           sodipodi:nodetypes="sscccsccscccsss"
           inkscape:connector-curvature="0"
           id="path3400-6"
           d="m 5.7696021,51.608571 c -1.4282482,0 -2.5620642,1.157871 -2.5620642,2.616419 v 10.841782 3.662985 20.195479 c 0.54862,0.852313 1.4844243,1.422677 2.5620642,1.422677 h 2.0496515 32.7944234 2.834392 c 1.077641,0 1.228704,0.01819 1.777324,-0.834121 V 68.729757 65.066772 54.22499 c 0,-1.458548 -1.133816,-2.616419 -2.562065,-2.616419 z"
           style="display:inline;opacity:0.98000004;fill:#e8e8e8;fill-opacity:1;fill-rule:nonzero;stroke:none;stroke-width:0.51781976" />
        <path
           style="color:#000000;font-style:normal;font-variant:normal;font-weight:normal;font-stretch:normal;font-size:medium;line-height:normal;font-family:Sans;-inkscape-font-specification:Sans;text-indent:0;text-align:start;text-decoration:none;text-decoration-line:none;letter-spacing:normal;word-spacing:normal;text-transform:none;writing-mode:lr-tb;direction:ltr;baseline-shift:baseline;text-anchor:start;display:inline;overflow:visible;visibility:visible;fill:#1f2224;fill-opacity:0.80869565;stroke:none;stroke-width:1.1877501;marker:none;enable-background:accumulate"
           d="m 5.0614957,50.77973 c -1.5583105,0 -2.8339825,1.269755 -2.8339825,2.823003 v 34.638998 c 0,1.553247 1.275672,2.823002 2.8339825,2.823002 H 43.457387 c 1.558311,0 2.833984,-1.269755 2.833984,-2.823002 V 53.602733 c 0,-1.553247 -1.275673,-2.823003 -2.833984,-2.823003 z m 0,1.15972 H 43.457387 c 0.94405,0 1.676011,0.740047 1.676011,1.663283 v 34.638998 c 0,0.923237 -0.731961,1.663281 -1.676011,1.663281 H 5.0614957 c -0.9440495,0 -1.676011,-0.740044 -1.676011,-1.663281 V 53.602733 c 0,-0.923236 0.7319615,-1.663283 1.676011,-1.663283 z"
           id="path4989"
           inkscape:connector-curvature="0" />
        <path
           id="path4118"
           d="m 0.89895544,89.336875 v 3 c 0,1.840071 1.48805326,3.328125 3.32812476,3.328125 H 44.070829 c 1.840072,0 3.328127,-1.488054 3.328127,-3.328125 v -3 c 0,1.840071 -1.488055,3.328125 -3.328127,3.328125 H 4.2270802 c -1.8400715,0 -3.32812476,-1.488054 -3.32812476,-3.328125 z"
           style="display:inline;opacity:0.65818182;fill:url(#linearGradient4129);fill-opacity:1;fill-rule:nonzero;stroke:none;stroke-width:0.5"
           inkscape:connector-curvature="0" />
        <rect
           ry="2.125"
           rx="2.125"
           y="88.540001"
           x="2.8364556"
           height="2.125"
           width="42.125004"
           id="rect4131"
           style="opacity:0.55;fill:url(#radialGradient7462);fill-opacity:1;stroke:none;stroke-width:0.5" />
        <rect
           transform="rotate(90)"
           style="opacity:0.669;fill:url(#radialGradient7464);fill-opacity:1;stroke:none;stroke-width:0.5"
           id="rect4141"
           width="38.375"
           height="2.125"
           x="51.195"
           y="-45.19146"
           rx="2.125"
           ry="2.125" />
        <rect
           clip-path="url(#clipPath4156-4-1)"
           ry="3.9569881"
           rx="3.9569874"
           y="-30"
           x="2"
           height="69.024437"
           width="75.965775"
           id="rect4146"
           style="opacity:0.7;fill:url(#linearGradient4767);fill-opacity:1;stroke:none"
           transform="matrix(0.53462254,0,0,0.52384145,2.2965688,67.654493)" />
      </g>
    </g>
  </g>
  <path
     d="m 29.608 9.815 c -0.732 0.753 -1.348 0.771 -2.345 2.79 -0.357 -0.396 -0.486 -0.978 -0.501 -1.653 -0.945 1.383 -0.715 2.435 -0.053 3.384 -1.105 -0.107 -1.658 -0.944 -2.213 -1.653 -0.004 -0.145 -0.026 -0.284 -0.026 -0.439 l -2.53 0 c 1.65 1.834 1.839 3.036 1.317 3.927 -1.15 -0.044 -2.271 0.264 -2.951 1.111 -1.151 -0.516 -3.559 -0.637 -4.796 1.266 -5.86 2.573 -4.628 16.782 3.215 17.15 0.937 0.812 2.317 0.995 3.478 0.749 1.158 0.63 2.826 0.843 4.111 -0.026 1.848 0.625 2.627 -0.225 3.294 -0.801 9.233 1.14 9.441 -18.433 2.714 -17.54 -0.349 -0.551 -1.364 -1.321 -2.503 -1.214 -0.04 -0.088 -0.055 -0.162 -0.105 -0.258 2.433 0.153 2.705 -1.038 3.663 -1.705 -1.421 -0.597 -2.114 -2.082 -3.794 -1.757 0.564 -0.76 0.826 -2.379 0.026 -3.332 z m -5.03 4.107 c 0.734 0.466 1.49 0.667 2.082 0.568 -0.099 0.27 -0.247 1.045 -0.553 1.782 -0.229 0.046 -0.44 0.103 -0.632 0.181 -0.421 -0.539 -0.738 -1.318 -0.896 -2.532 z"
     style="fill:#000;opacity:0.1;fill-opacity:1;stroke:none"
     id="path746" />
  <path
     d="m 17.881 34.871 c -7.843 -0.371 -9.08 -14.576 -3.216 -17.15 c 1.237 -1.903 3.651 -1.777 4.802 -1.261 1.072 -1.335 3.251 -1.369 4.888 -0.715 1.116 -0.614 3.535 -0.557 3.944 0.462 1.407 -0.6 2.755 0.391 3.173 1.051 6.727 -0.892 6.532 18.668 -2.701 17.528 -0.667 0.576 -1.453 1.423 -3.301 0.799 -1.284 0.869 -2.957 0.672 -4.116 0.042 -1.161 0.246 -2.536 0.055 -3.473 -0.757 z"
     style="fill:#f39d01;fill-opacity:1;stroke:none"
     id="path752" />
  <path
     d="m 23.15 12.678 c 1.093 0.945 2.358 1.238 3.108 0.841 -1.538 0.092 -2.131 -1.088 -2.83 -1.912 z"
     style="fill:#786c12;fill-opacity:1;stroke:none"
     id="path754" />
  <path
     d="m 19.655 17.323 c 0.996 0.092 1.467 0.527 1.864 1.01 1.015 -0.801 2.179 -1.057 3.638 -0.238 0.596 -0.616 1.107 -0.95 1.501 -0.892 -1.345 -1.01 -3.03 -1.264 -3.03 -5.787 l -2.53 0 c 3.237 3.598 0.797 4.775 -1.442 5.906 z"
     style="fill:#a66107;fill-opacity:1;stroke:none"
     id="path756" />
  <path
     d="m 20.254 24.643 -5.588 0 c -0.2 -0.699 -0.371 -2.72 0.922 -3.769 z"
     style="fill:#fbc808;fill-opacity:1;stroke:none"
     id="path758" />
  <path
     d="m 16.486 21.595 c -0.515 0.602 -0.843 1.375 -0.843 2.222 0 0.288 0.064 0.559 0.132 0.827 l 4.479 0 -3.768 -3.048 z"
     style="fill:#fee442;fill-opacity:1;stroke:none;fill-rule:nonzero"
     id="path760" />
  <path
     d="m 25.313 24.643 5.588 0 c 0.2 -0.699 0.371 -2.72 -0.922 -3.769 z"
     style="fill:#fbc808;fill-opacity:1;stroke:none"
     id="path762" />
  <path
     d="m 29.08 21.595 c 0.515 0.602 0.843 1.375 0.843 2.222 0 0.288 -0.064 0.559 -0.132 0.827 l -4.479 0 3.768 -3.048 z"
     style="fill:#fee442;fill-opacity:1;stroke:none;fill-rule:nonzero"
     id="path764" />
  <path
     d="m 19.09 28.29 c -0.903 5.63 1.51 7.641 2.092 7.312 -1.555 -1.467 -2.111 -4.064 -2.092 -7.312 z"
     style="fill:#ec8c01;fill-opacity:1;stroke:none"
     id="path766" />
  <path
     d="m 28.06 25.519 c 0.143 3.672 -0.825 6.944 -1.736 10.235 1.697 -2.921 2.298 -5.549 1.736 -10.235 z"
     style="fill:#ec8c01;fill-opacity:1;stroke:none"
     id="path768" />
  <path
     d="m 14.351 26.04 c -0.524 2.993 1.407 6.808 8.718 6.865 l -0.064 -1.128 2.101 -0.357 0.214 1.156 c 5.242 -0.676 6.589 -4.656 6.624 -6.83 -0.747 1.362 -2.166 2.02 -3.644 2.606 l 0.214 0.778 -1.929 0.504 -0.45 -0.946 c -1.726 0.309 -3.816 0.12 -5.809 0.063 l -0.107 1.01 -2.144 -0.357 0.493 -0.925 c -1.529 -0.522 -2.972 -1.246 -4.216 -2.438 z"
     style="fill:#fee442;fill-opacity:1;stroke:none"
     id="path770" />
  <path
     d="m 15.03 27.894 c 0.275 2.594 -0.035 5.468 2.637 6.914 -1.387 -1.953 -2.221 -4.289 -2.637 -6.914 z"
     style="fill:#ec8c01;fill-opacity:1;stroke:none"
     id="path772" />
  <path
     d="m 14.351 26.04 c -0.33 1.884 0.318 4.083 2.661 5.477 -0.946 -1.396 -1.566 -3.02 -1.818 -4.753 -0.287 -0.217 -0.573 -0.465 -0.843 -0.723 z"
     style="fill:#fbc808;fill-opacity:1;stroke:none"
     id="path774" />
  <path
     d="m 29.565 33.862 c 1.949 -2.449 3.065 -5.197 2.294 -9.731 0.16 3.734 -0.711 6.921 -2.294 9.731 z"
     style="fill:#ec8c01;fill-opacity:1;stroke:none"
     id="path776" />
  <path
     d="m 31.953 25.754 c -0.358 0.652 -0.878 1.126 -1.476 1.524 -0.524 1.75 -1.478 3.326 -2.714 4.624 3.223 -1.393 4.161 -4.364 4.19 -6.148 z"
     style="fill:#fbc808;fill-opacity:1;stroke:none"
     id="path778" />
  <path
     d="m 14.351 26.04 c -0.106 0.603 -0.118 1.253 0 1.886 1.299 0.419 2.649 0.694 4.03 0.904 l 0.184 -0.336 c -1.529 -0.522 -2.972 -1.262 -4.216 -2.454 z"
     style="fill:#fbc808;fill-opacity:1;stroke:none;fill-rule:nonzero"
     id="path780" />
  <path
     d="m 22.546 18.03 c -0.492 0.506 -0.865 0.996 -1.133 1.472 l 0.738 0.465 c 0.34 -0.429 0.713 -0.852 1.238 -1.24 l -0.843 -0.697 z m -1.291 1.808 c -0.357 0.744 -0.503 1.431 -0.527 2.067 0.427 -0.545 0.782 -1.104 1.186 -1.653 l -0.659 -0.413 z"
     style="fill:#f7cd4d;fill-opacity:1;stroke:none"
     id="path782" />
  <path
     d="m 17.788 18.836 c -0.188 0.267 -0.323 0.519 -0.41 0.757 l 0.373 0.161 c 0.124 -0.221 0.264 -0.442 0.476 -0.658 l -0.439 -0.26 z m -0.458 0.922 c -0.108 0.367 -0.124 0.693 -0.088 0.986 0.155 -0.28 0.276 -0.562 0.421 -0.843 l -0.333 -0.143 z"
     style="fill:#f7cd4d;fill-opacity:1;stroke:none"
     id="path784" />
  <path
     d="m 25.899 13.561 c -0.152 -0.136 -0.27 1.553 -0.986 2.585 0.518 0.011 1.08 0.139 1.436 -0.273 0.891 1.968 1.991 1.886 3.044 2.27 -0.069 -0.688 0.065 -1.197 -0.536 -2.354 2.433 0.153 2.709 -1.035 3.666 -1.702 -1.421 -0.597 -2.092 -2.091 -3.773 -1.765 0.564 -0.76 0.821 -2.368 0.021 -3.321 -0.732 0.753 -1.361 0.755 -2.358 2.774 -0.357 -0.396 -0.478 -0.985 -0.493 -1.66 -0.961 1.407 -0.71 2.486 -0.021 3.447 z"
     style="fill:#a6a303;fill-opacity:1;stroke:none"
     id="path786" />
  <path
     d="m 23.15 12.678 c 1.093 0.945 2.358 1.238 3.108 0.841 -1.538 0.092 -2.131 -1.088 -2.83 -1.912 z"
     style="fill:#786c12;fill-opacity:1;stroke:none"
     id="path788" />
</svg>
