<?xml version="1.0" encoding="UTF-8" standalone="no"?>
<svg
   xmlns:dc="http://purl.org/dc/elements/1.1/"
   xmlns:cc="http://creativecommons.org/ns#"
   xmlns:rdf="http://www.w3.org/1999/02/22-rdf-syntax-ns#"
   xmlns:svg="http://www.w3.org/2000/svg"
   xmlns="http://www.w3.org/2000/svg"
   xmlns:xlink="http://www.w3.org/1999/xlink"
   xmlns:sodipodi="http://sodipodi.sourceforge.net/DTD/sodipodi-0.dtd"
   xmlns:inkscape="http://www.inkscape.org/namespaces/inkscape"
   viewBox="0 0 48 48"
   id="svg2"
   version="1.1"
   inkscape:version="0.92.2 5c3e80d, 2017-08-06"
   sodipodi:docname="steam_icon_224260.svg">
  <metadata
     id="metadata59">
    <rdf:RDF>
      <cc:Work
         rdf:about="">
        <dc:format>image/svg+xml</dc:format>
        <dc:type
           rdf:resource="http://purl.org/dc/dcmitype/StillImage" />
        <dc:title></dc:title>
      </cc:Work>
    </rdf:RDF>
  </metadata>
  <sodipodi:namedview
     pagecolor="#ffffff"
     bordercolor="#666666"
     borderopacity="1"
     objecttolerance="10"
     gridtolerance="10"
     guidetolerance="10"
     inkscape:pageopacity="0"
     inkscape:pageshadow="2"
     inkscape:window-width="1280"
     inkscape:window-height="943"
     id="namedview57"
     showgrid="false"
     inkscape:object-nodes="true"
     inkscape:snap-smooth-nodes="true"
     inkscape:zoom="8.4037384"
     inkscape:cx="19.955272"
     inkscape:cy="27.706756"
     inkscape:window-x="0"
     inkscape:window-y="19"
     inkscape:window-maximized="1"
     inkscape:current-layer="svg2"
     inkscape:snap-global="false">
    <inkscape:grid
       type="xygrid"
       id="grid4471" />
  </sodipodi:namedview>
  <defs
     id="defs4">
    <linearGradient
       id="linearGradient3764"
       x1="1"
       x2="47"
       gradientUnits="userSpaceOnUse"
       gradientTransform="matrix(0,-1,1,0,-1.5e-6,47.999998)">
      <stop
         style="stop-color:#333;stop-opacity:1"
         id="stop7" />
      <stop
         offset="1"
         style="stop-color:#3d3d3d;stop-opacity:1"
         id="stop9" />
    </linearGradient>
    <clipPath
       id="clipPath-659501462">
      <g
         transform="translate(0,-1004.3622)"
         id="g12">
        <path
           d="m -24 13 c 0 1.105 -0.672 2 -1.5 2 -0.828 0 -1.5 -0.895 -1.5 -2 0 -1.105 0.672 -2 1.5 -2 0.828 0 1.5 0.895 1.5 2 z"
           transform="matrix(15.333333,0,0,11.5,414.99999,878.8622)"
           style="fill:#1890d0"
           id="path14" />
      </g>
    </clipPath>
    <clipPath
       id="clipPath-667606058">
      <g
         transform="translate(0,-1004.3622)"
         id="g17">
        <path
           d="m -24 13 c 0 1.105 -0.672 2 -1.5 2 -0.828 0 -1.5 -0.895 -1.5 -2 0 -1.105 0.672 -2 1.5 -2 0.828 0 1.5 0.895 1.5 2 z"
           transform="matrix(15.333333,0,0,11.5,414.99999,878.8622)"
           style="fill:#1890d0"
           id="path19" />
      </g>
    </clipPath>
    <linearGradient
       id="linearGradient3764-6"
       x1="1"
       x2="47"
       gradientUnits="userSpaceOnUse"
       gradientTransform="matrix(0,-1,1,0,-1.5e-6,47.999998)">
      <stop
         style="stop-color:#333;stop-opacity:1"
         id="stop7-7" />
      <stop
         offset="1"
         style="stop-color:#3d3d3d;stop-opacity:1"
         id="stop9-1" />
    </linearGradient>
    <linearGradient
       inkscape:collect="always"
       xlink:href="#linearGradient6139-0"
       id="linearGradient4071"
       gradientUnits="userSpaceOnUse"
       gradientTransform="matrix(0.55357139,0,0,0.5535713,-2.571429,-2.0178565)"
       x1="6"
       y1="47.000011"
       x2="90"
       y2="47.000011" />
    <linearGradient
       id="linearGradient6139-0">
      <stop
         id="stop6141-2"
         offset="0"
         style="stop-color:#b2babc;stop-opacity:1" />
      <stop
         style="stop-color:#ffffff;stop-opacity:1;"
         offset="0.25"
         id="stop6151-0" />
      <stop
         style="stop-color:#96a1a4;stop-opacity:1"
         offset="0.5"
         id="stop6147-1" />
      <stop
         id="stop6149-4"
         offset="0.75"
         style="stop-color:#fbf9f9;stop-opacity:1;" />
      <stop
         id="stop6143-4"
         offset="1"
         style="stop-color:#b2b9bc;stop-opacity:1" />
    </linearGradient>
    <linearGradient
       gradientTransform="scale(0.49999999)"
       inkscape:collect="always"
       xlink:href="#linearGradient3832-0-6-1-1"
       id="linearGradient4129"
       x1="1.5"
       y1="88.171875"
       x2="94.5"
       y2="88.171875"
       gradientUnits="userSpaceOnUse" />
    <linearGradient
       id="linearGradient3832-0-6-1-1">
      <stop
         style="stop-color:#000000;stop-opacity:1;"
         offset="0"
         id="stop3834-6-3-7-1" />
      <stop
         id="stop3872-2-4"
         offset="0.1"
         style="stop-color:#000000;stop-opacity:0.58823532;" />
      <stop
         style="stop-color:#000000;stop-opacity:0.58823532;"
         offset="0.89999998"
         id="stop3844-6-2-7-6" />
      <stop
         style="stop-color:#000000;stop-opacity:1;"
         offset="1"
         id="stop3836-5-0-2-9" />
    </linearGradient>
    <radialGradient
       inkscape:collect="always"
       xlink:href="#linearGradient3737"
       id="radialGradient7462-1"
       gradientUnits="userSpaceOnUse"
       gradientTransform="matrix(0.48756688,0,0,0.02459536,16.949346,40.083348)"
       cx="13.948145"
       cy="44.892841"
       fx="13.948145"
       fy="44.892841"
       r="43.199203" />
    <linearGradient
       id="linearGradient3737">
      <stop
         offset="0"
         style="stop-color:#ffffff;stop-opacity:1"
         id="stop3739" />
      <stop
         offset="1"
         style="stop-color:#ffffff;stop-opacity:0"
         id="stop3741" />
    </linearGradient>
    <radialGradient
       inkscape:collect="always"
       xlink:href="#linearGradient3737"
       id="radialGradient7464-0"
       gradientUnits="userSpaceOnUse"
       gradientTransform="matrix(0.44416331,0,0,0.02459536,15.772246,-45.084151)"
       cx="13.948145"
       cy="44.892841"
       fx="13.948145"
       fy="44.892841"
       r="43.199203" />
    <linearGradient
       inkscape:collect="always"
       xlink:href="#linearGradient3737"
       id="linearGradient4767"
       gradientUnits="userSpaceOnUse"
       x1="2.7713892"
       y1="-28.64156"
       x2="50.527882"
       y2="14.514202" />
    <clipPath
       id="clipPath4156-4-1-9"
       clipPathUnits="userSpaceOnUse">
      <path
         inkscape:connector-curvature="0"
         id="path4158-0-8-3"
         d="m 27.046336,-55.695463 -14.21366,13.321486 h 0.06127 l 15.653407,21.770763 10.231384,-10.546177 C 38.561832,-32.30156 27.468089,-54.819245 27.046336,-55.695463 Z M 9.6468554,-39.382809 -5.2407289,-25.32124 15.987863,-7.8059573 26.372412,-18.382966 Z m 31.4906096,12.951445 -9.741259,9.713584 8.944804,12.4580526 7.780753,-7.5550056 z m -49.8397109,4.378822 -13.7541661,12.9822847 26.2830181,13.84571 0.06127,-0.0617 -0.122531,-0.0617 L 13.598503,-5.4007374 -8.7022409,-22.052595 Z m 38.0154159,7.400825 -9.802525,9.7752596 11.579232,9.5594001 7.62759,-7.40083 -8.669108,-11.0087257 z m 20.187073,5.6739697 -7.382526,7.2158 6.187844,8.54179 5.820249,-6.13651996 z m -32.195166,6.32154 -9.5574606,9.49772 13.6622686,7.1849703 7.933918,-7.6783603 z m 23.311629,2.37443004 -7.10683,6.93826996 8.362778,6.9074403 5.360756,-5.6739699 -0.06127,-0.0925 -0.0919,0.12335 -6.463539,-8.20258036 z m -8.730374,8.54178036 -7.505057,7.3391599 10.353916,5.45811 c 1.397496,-1.32103 5.67514,-6.12292 5.850882,-6.32154 z"
         style="opacity:0.6;fill:#ffffff;fill-opacity:1;stroke:none" />
    </clipPath>
  </defs>
  <g
     id="g3449"
     transform="matrix(0.125,0,0,-0.125,0,640)"
     style="fill:#000000;stroke:none" />
  <path
     style="display:inline;opacity:0.15;fill:#000000;fill-opacity:1;fill-rule:nonzero;stroke:none;stroke-width:0.5"
     d="M 44.571426,0 H 3.4285677 C 1.5291438,0 2.0851044e-7,1.5291425 2.0851044e-7,3.42857 V 44.571429 C 2.0851044e-7,46.470857 1.5291438,48 3.4285677,48 H 44.571426 C 46.470855,48 48,46.470857 48,44.571429 V 3.42857 C 48,1.5291425 46.470855,0 44.571426,0 Z"
     id="path3288-7"
     inkscape:connector-curvature="0" />
  <path
     inkscape:connector-curvature="0"
     id="path4085-5"
     d="M 44.249998,0.375 H 3.7499957 c -1.8697459,0 -3.3749964,1.5052495 -3.3749964,3.3749985 V 44.25 c 0,1.869751 1.5052505,3.375 3.3749964,3.375 H 44.249998 C 46.11975,47.625 47.625,46.119751 47.625,44.25 V 3.7499985 C 47.625,1.8802495 46.11975,0.375 44.249998,0.375 Z"
     style="display:inline;opacity:0.15;fill:#000000;fill-opacity:1;fill-rule:nonzero;stroke:none;stroke-width:0.5" />
  <path
     style="display:inline;fill:url(#linearGradient4071);fill-opacity:1;fill-rule:nonzero;stroke:none;stroke-width:0.5"
     d="M 43.928568,0.75 H 4.0714277 C 2.2313563,0.75 0.74999949,2.2313565 0.74999949,4.0714274 V 43.928573 c 0,1.840071 1.48135681,3.321427 3.32142821,3.321427 H 43.928568 c 1.840071,0 3.321427,-1.481357 3.321427,-3.321427 V 4.0714275 C 47.249995,2.2313565 45.768639,0.75 43.928568,0.75 Z"
     id="rect4251-1-9"
     inkscape:connector-curvature="0" />
  <rect
     style="opacity:1;fill:#ffffff;fill-opacity:0.73913044;stroke:none;stroke-width:0.1;stroke-linecap:round;stroke-linejoin:miter;stroke-miterlimit:4;stroke-dasharray:none;stroke-dashoffset:0;stroke-opacity:0.78260869;paint-order:markers stroke fill"
     id="rect947"
     width="37.245327"
     height="35.579403"
     x="4.9977756"
     y="4.4479542" />
  <path
     inkscape:connector-curvature="0"
     id="path4989-2"
     d="m 4.9125392,2.3647305 c -1.5583105,0 -2.8339824,1.269755 -2.8339824,2.823002 V 39.826731 c 0,1.553247 1.2756719,2.823002 2.8339824,2.823002 H 43.308431 c 1.55831,0 2.833984,-1.269755 2.833984,-2.823002 V 5.1877325 c 0,-1.5532466 -1.275674,-2.8230021 -2.833984,-2.8230021 z m 0,1.1597195 H 43.308431 c 0.944049,0 1.676011,0.7400475 1.676011,1.6632825 V 39.826731 c 0,0.923237 -0.731962,1.663282 -1.676011,1.663282 H 4.9125392 c -0.9440495,0 -1.676011,-0.740045 -1.676011,-1.663282 V 5.1877325 c 0,-0.923235 0.7319615,-1.6632826 1.676011,-1.6632825 z"
     style="color:#000000;font-style:normal;font-variant:normal;font-weight:normal;font-stretch:normal;font-size:medium;line-height:normal;font-family:Sans;-inkscape-font-specification:Sans;text-indent:0;text-align:start;text-decoration:none;text-decoration-line:none;letter-spacing:normal;word-spacing:normal;text-transform:none;writing-mode:lr-tb;direction:ltr;baseline-shift:baseline;text-anchor:start;display:inline;overflow:visible;visibility:visible;fill:#101213;fill-opacity:0.81739128;stroke:none;stroke-width:1.1877501;marker:none;enable-background:accumulate;opacity:1" />
  <path
     style="display:inline;opacity:1;fill:#505458;fill-opacity:1;fill-rule:nonzero;stroke:none;stroke-width:0.54621172"
     d="M 4.5664062 2.1660156 C 3.053215 2.1660156 1.8515625 3.3822858 1.8515625 4.9140625 L 1.8515625 16.298828 L 1.8515625 20.146484 L 1.8515625 41.355469 C 2.4328103 42.250575 3.4246766 42.849609 4.5664062 42.849609 L 6.7382812 42.849609 L 41.482422 42.849609 L 43.65625 42.849609 C 44.79798 42.849609 45.787893 42.250575 46.369141 41.355469 L 46.369141 20.146484 L 46.369141 16.298828 L 46.369141 4.9140625 C 46.369141 3.3822858 45.16944 2.1660156 43.65625 2.1660156 L 4.5664062 2.1660156 z M 4.9121094 2.3652344 L 43.308594 2.3652344 C 44.866904 2.3652344 46.142578 3.6342534 46.142578 5.1875 L 46.142578 39.826172 C 46.142578 41.379419 44.866904 42.650391 43.308594 42.650391 L 4.9121094 42.650391 C 3.3537989 42.650391 2.078125 41.379419 2.078125 39.826172 L 2.078125 5.1875 C 2.078125 3.634253 3.3537989 2.3652344 4.9121094 2.3652344 z M 4.9121094 3.5253906 C 3.9680599 3.5253905 3.2363281 4.264265 3.2363281 5.1875 L 3.2363281 39.826172 C 3.2363281 40.749409 3.9680599 41.490234 4.9121094 41.490234 L 43.308594 41.490234 C 44.252643 41.490234 44.984375 40.749409 44.984375 39.826172 L 44.984375 5.1875 C 44.984375 4.264265 44.252643 3.5253906 43.308594 3.5253906 L 4.9121094 3.5253906 z M 23.65625 4.5273438 C 23.789531 4.5259637 23.932702 4.5255438 24.085938 4.5273438 C 25.173989 4.5489888 25.290806 4.5647978 25.921875 4.78125 C 26.821334 5.0914964 27.801699 5.5750255 28.548828 6.0800781 L 29.162109 6.5 L 29.140625 6.8222656 C 29.111605 7.175801 28.773391 7.855635 28.316406 8.4472656 C 28.142319 8.6781501 27.980171 9.0010599 27.900391 9.296875 L 27.763672 9.78125 L 27.960938 10.154297 C 28.243818 10.709855 28.343196 10.690043 28.285156 10.083984 L 28.236328 9.578125 L 28.736328 9.0722656 C 29.207819 8.5888601 29.258968 8.5628266 29.628906 8.5195312 C 30.085886 8.4762303 30.112459 8.4843966 30.177734 8.7441406 C 30.199484 8.8595743 30.38674 9.1678326 30.589844 9.4492188 C 30.792946 9.7233902 31.021218 10.112432 31.09375 10.314453 C 31.25334 10.761784 31.397602 13.149228 31.361328 14.621094 L 31.339844 15.611328 L 31.615234 15.734375 C 31.912644 15.871461 31.928854 15.907402 31.994141 16.628906 C 32.037661 17.119528 31.852382 19.096004 31.736328 19.40625 C 31.700068 19.50726 31.591243 19.602003 31.482422 19.630859 C 31.076218 19.731859 30.592335 20.710115 30.396484 21.785156 C 30.178875 23.040569 30.011965 23.562363 29.736328 23.84375 C 29.533208 24.060201 29.488281 24.153562 29.488281 24.427734 C 29.488281 24.730765 29.459472 24.773924 28.908203 25.322266 C 28.581789 25.639726 28.227384 26.066155 28.111328 26.275391 L 27.900391 26.650391 L 28.291016 27.320312 C 28.508623 27.688281 28.691406 28.042486 28.691406 28.107422 C 28.691406 28.338305 27.836454 29.657425 27.4375 30.025391 C 27.190875 30.256272 26.965663 30.559376 26.849609 30.804688 C 26.719049 31.100503 26.602659 31.231782 26.414062 31.318359 C 26.218212 31.412159 26.153447 31.4972 26.117188 31.699219 C 26.095427 31.843518 25.869673 32.257035 25.623047 32.625 C 25.209588 33.231063 25.139194 33.294553 24.791016 33.431641 C 24.551646 33.525421 24.231832 33.583984 23.970703 33.583984 C 23.491959 33.583985 23.141999 33.698805 22.931641 33.929688 C 22.822832 34.052334 22.743828 34.073778 22.460938 34.044922 C 22.011205 33.994412 21.822279 34.124088 21.923828 34.419922 C 21.981858 34.593078 22.053604 34.642694 22.34375 34.714844 C 22.670167 34.801424 22.721036 34.78932 23.207031 34.580078 C 23.656759 34.385274 23.824297 34.349167 24.535156 34.320312 C 25.470883 34.284253 25.543551 34.239195 25.753906 33.589844 C 25.862714 33.265168 25.935022 33.170013 26.232422 32.982422 C 26.602351 32.758756 26.732422 32.516612 26.732422 32.033203 C 26.732422 31.665239 26.876977 31.266315 27.080078 31.085938 C 27.188886 30.992158 27.580674 30.730881 27.943359 30.5 C 28.313295 30.26912 28.634469 30.033687 28.65625 29.96875 C 28.678 29.90381 28.887584 29.535498 29.126953 29.138672 C 29.366323 28.749061 29.5625 28.3884 29.5625 28.337891 C 29.5625 28.287371 29.469017 28.135732 29.345703 28.005859 C 29.157078 27.789408 29.126953 27.70271 29.126953 27.320312 C 29.126953 26.916273 29.110752 26.872976 28.900391 26.707031 C 28.682789 26.541084 28.683891 26.527479 28.763672 26.246094 C 28.814452 26.080147 28.974068 25.811074 29.119141 25.652344 L 29.380859 25.349609 L 29.84375 25.517578 C 30.257209 25.66188 30.39461 25.775947 31.105469 26.490234 C 31.845344 27.240598 31.999554 27.358345 33.007812 27.935547 L 34.107422 28.5625 L 34.451172 29.152344 C 34.74857 29.664611 34.784859 29.767966 34.705078 29.890625 C 34.603527 30.049357 34.242395 30.121093 33.560547 30.121094 C 33.226879 30.121094 33.129173 30.093971 33.056641 29.978516 C 32.897059 29.71877 32.629155 29.664132 32.353516 29.830078 C 32.222954 29.909448 31.925476 30.011391 31.693359 30.054688 C 31.171097 30.148467 30.990488 30.256918 30.867188 30.552734 C 30.772887 30.769179 30.750802 30.784114 30.482422 30.748047 C 30.264812 30.719187 30.139773 30.64522 30.001953 30.464844 C 29.690045 30.060804 29.425767 29.817434 29.324219 29.853516 C 29.15013 29.911246 29.280732 30.234353 29.628906 30.587891 C 29.940788 30.905351 29.975443 30.970773 29.910156 31.136719 C 29.77958 31.519114 30.070921 31.849609 30.535156 31.849609 C 30.803541 31.849609 31.324515 31.453744 31.505859 31.107422 L 31.671875 30.798828 L 33.285156 30.826172 L 34.892578 30.855469 L 35.207031 30.335938 L 35.511719 29.818359 L 35.15625 29.232422 L 34.791016 28.640625 L 34.974609 28.544922 C 35.134189 28.458342 35.212682 28.490065 35.894531 28.865234 C 36.953566 29.442437 38.216001 30.284378 38.585938 30.652344 C 39.02841 31.085245 39.404864 31.902141 39.513672 32.630859 L 39.599609 33.207031 L 39.390625 33.482422 C 38.694273 34.384299 36.909155 35.934611 35.400391 36.9375 C 32.46265 38.892771 29.3297 39.991891 25.826172 40.294922 C 24.868687 40.374312 23.158472 40.394418 23.085938 40.322266 C 23.064197 40.293416 23.084581 40.227645 23.142578 40.169922 C 23.200608 40.112192 23.25 39.961904 23.25 39.832031 C 23.25 39.666085 23.54277 39.094223 24.275391 37.802734 C 25.544786 35.594937 25.66679 35.191936 25.09375 35.033203 C 24.578741 34.888904 24.419339 35.082993 24.158203 36.179688 C 24.085663 36.489933 23.933861 36.858688 23.810547 37.039062 C 23.694492 37.212223 23.563605 37.486401 23.527344 37.652344 C 23.447554 37.998664 23.288701 38.260025 22.498047 39.277344 C 22.171632 39.695814 21.866353 40.14807 21.830078 40.285156 C 21.764808 40.537693 21.764193 40.539232 21.365234 40.517578 C 20.378736 40.467058 20.509072 40.56749 19.283203 38.929688 C 18.383743 37.731995 18.171875 37.406341 18.171875 37.21875 C 18.171875 36.951792 17.78901 36.448208 17.28125 36.058594 C 16.918571 35.784426 16.869141 35.770622 16.869141 35.972656 C 16.869141 36.181894 17.955401 38.222105 18.339844 38.734375 C 18.64451 39.145631 18.651211 39.169625 18.585938 39.472656 C 18.542407 39.645816 18.486047 39.787109 18.457031 39.787109 C 18.181389 39.787109 16.910901 39.31962 16.033203 38.886719 C 13.218778 37.515864 10.577843 35.265534 7.9882812 32.033203 C 6.7551527 30.496402 6.6255538 30.306295 6.6835938 30.089844 C 6.7198598 29.931108 6.7712241 29.902344 6.9960938 29.902344 C 7.2064489 29.902344 7.3158668 29.952265 7.5117188 30.154297 C 7.7365822 30.385181 7.7891054 30.410156 8.1953125 30.410156 C 8.8191277 30.410156 8.9188219 30.451894 9.1074219 30.791016 C 9.5571479 31.5991 10.868715 33.389622 12.080078 34.839844 C 12.566074 35.424259 13.263272 35.978341 14.728516 36.966797 C 15.519165 37.493496 16.25811 37.892461 16.337891 37.820312 C 16.417681 37.733733 15.591213 36.484467 15.330078 36.296875 C 15.032679 36.080424 14.982446 35.900322 15.185547 35.734375 C 15.381397 35.561207 15.502838 35.544433 15.945312 35.609375 C 16.307994 35.667105 16.411855 35.661702 16.636719 35.539062 C 16.78179 35.466912 17.186981 35.315248 17.535156 35.207031 C 19.152724 34.709194 20.488123 33.591462 21.626953 31.794922 L 22.078125 31.09375 L 22.755859 30.876953 C 23.133048 30.754294 23.56196 30.589887 23.707031 30.496094 C 23.939159 30.344579 23.976562 30.28497 23.976562 30.046875 C 23.976562 29.700539 23.875724 29.67367 22.744141 29.695312 C 21.989763 29.709733 21.879998 29.695217 21.640625 29.550781 C 21.4883 29.456971 21.20115 29.152481 20.998047 28.871094 C 20.794943 28.582492 20.478215 28.20186 20.296875 28.021484 C 19.999503 27.711238 19.98047 27.665233 20.03125 27.419922 C 20.07477 27.181826 20.127267 27.132424 20.410156 27.009766 C 20.780094 26.851039 20.907112 26.872479 21.146484 27.125 L 21.314453 27.304688 L 21.453125 27.083984 C 21.569179 26.89639 21.60687 26.873762 21.701172 26.953125 C 21.795422 27.025275 21.794909 27.051935 21.693359 27.160156 C 21.584562 27.282815 21.58399 27.313444 21.736328 27.537109 C 22.128027 28.114312 22.600278 28.316406 23.572266 28.316406 C 24.072771 28.316406 24.397679 28.156246 25.123047 27.542969 C 25.456745 27.261582 25.50811 27.183087 25.486328 26.988281 C 25.457308 26.692465 25.26755 26.663486 25.013672 26.916016 C 24.680003 27.247908 23.948013 27.500871 23.121094 27.558594 L 22.388672 27.607422 L 22.271484 27.335938 C 22.184444 27.133919 22.171308 26.983108 22.214844 26.802734 L 22.271484 26.548828 L 22.896484 26.513672 C 23.309943 26.492042 23.576456 26.434243 23.707031 26.347656 C 23.837606 26.268296 24.115562 26.211849 24.550781 26.175781 C 25.138329 26.139701 25.202857 26.113813 25.275391 25.955078 C 25.318901 25.861268 25.355469 25.759923 25.355469 25.738281 C 25.355469 25.716651 24.898936 25.716651 24.347656 25.738281 C 23.339396 25.788781 23.331181 25.783124 23.193359 25.617188 C 23.077305 25.465673 23.019218 25.444402 22.736328 25.480469 C 22.547729 25.509329 22.373316 25.581392 22.300781 25.667969 C 22.220991 25.776198 22.105447 25.809928 21.902344 25.802734 C 21.713754 25.795534 21.503316 25.863502 21.242188 26.007812 C 21.03183 26.130471 20.844598 26.222656 20.830078 26.222656 C 20.815578 26.222656 20.724318 26.115607 20.644531 25.978516 C 20.506709 25.762065 20.442252 25.360614 20.529297 25.28125 C 20.565567 25.24518 21.431685 25.316515 21.837891 25.388672 C 22.019234 25.424752 22.106335 25.379566 22.396484 25.105469 C 22.751913 24.773593 22.831532 24.752397 23.382812 24.78125 C 23.665699 24.79568 23.6875 24.779413 23.6875 24.613281 C 23.6875 24.447337 23.723257 24.426106 24.035156 24.382812 C 24.78954 24.289023 24.87502 24.259424 25.078125 24.042969 C 25.448059 23.653357 25.376871 23.580692 24.615234 23.587891 C 23.679509 23.587892 23.467026 23.532796 23.039062 23.150391 C 22.835957 22.970018 22.671875 22.790574 22.671875 22.761719 C 22.671875 22.682349 23.048877 22.562984 23.505859 22.498047 C 23.708961 22.469187 23.890936 22.414387 23.919922 22.371094 C 24.021462 22.219578 23.986316 20.342165 23.884766 20.205078 C 23.790456 20.082418 23.772857 20.090467 23.664062 20.357422 C 23.606033 20.516152 23.353486 20.964501 23.099609 21.361328 C 22.388748 22.494084 22.407897 22.465927 22.175781 22.408203 C 21.871117 22.321623 21.817265 22.047697 22.005859 21.585938 C 22.092909 21.376701 22.164063 21.181199 22.164062 21.152344 C 22.164062 21.123484 22.04043 21.158901 21.880859 21.238281 C 21.728528 21.317651 21.583673 21.35955 21.554688 21.337891 C 21.532947 21.309041 21.509766 21.180654 21.509766 21.050781 C 21.509766 20.848757 21.488276 20.812343 21.386719 20.833984 C 21.314179 20.855614 21.132797 20.891072 20.980469 20.919922 C 20.726584 20.963222 20.704527 20.985946 20.748047 21.123047 C 20.777057 21.209627 20.815568 21.40963 20.830078 21.568359 C 20.902618 22.253787 20.934754 22.348074 21.304688 22.730469 C 21.739919 23.192231 21.742695 23.280382 21.242188 23.835938 L 20.894531 24.216797 L 20.880859 23.302734 C 20.873559 22.797681 20.851256 22.365389 20.822266 22.34375 C 20.742476 22.26439 20.426859 22.709266 20.085938 23.373047 C 19.77403 23.979108 19.441673 24.378193 19.318359 24.298828 C 19.282099 24.284408 19.263672 23.972679 19.263672 23.619141 C 19.263672 23.128519 19.224608 22.905146 19.123047 22.703125 C 19.050537 22.55161 19.006167 22.376838 19.035156 22.304688 C 19.078676 22.182028 19.094609 22.181864 19.283203 22.326172 C 19.428275 22.441596 19.537683 22.471613 19.697266 22.435547 C 19.914875 22.385027 19.914062 22.383352 19.914062 21.871094 C 19.914062 21.582493 19.937204 21.288349 19.958984 21.208984 C 19.988004 21.100765 19.842863 20.898388 19.349609 20.378906 C 18.791077 19.787274 18.687485 19.707745 18.585938 19.787109 C 18.513397 19.852039 18.38391 19.866138 18.195312 19.830078 C 17.731084 19.750718 17.667969 19.688118 17.667969 19.341797 C 17.667969 19.067626 17.70232 18.995585 17.919922 18.800781 C 18.064988 18.67812 18.187996 18.576172 18.195312 18.576172 C 18.202613 18.576172 18.316687 18.547779 18.447266 18.511719 C 18.664876 18.446779 18.731923 18.475786 19.283203 18.84375 L 19.876953 19.246094 L 21.095703 19.283203 L 22.308594 19.318359 L 22.751953 18.972656 C 22.998579 18.777849 23.382556 18.552774 23.607422 18.458984 C 23.962853 18.314682 24.013376 18.265716 24.035156 18.078125 C 24.049646 17.955466 24.018682 17.798114 23.982422 17.71875 C 23.917142 17.596104 23.853765 17.579173 23.527344 17.615234 C 23.171914 17.644084 23.05374 17.60678 22.052734 17.173828 C 21.298351 16.849151 20.910425 16.634534 20.787109 16.490234 C 20.598518 16.273779 20.589196 16.275546 19.769531 16.253906 L 18.933594 16.230469 L 18.794922 15.271484 C 18.657072 14.340741 18.659933 14.297858 18.783203 13.814453 L 18.912109 13.316406 L 18.722656 12.753906 C 18.621095 12.443661 18.535156 12.052065 18.535156 11.878906 C 18.535156 11.684098 18.476565 11.484902 18.375 11.326172 C 18.229971 11.102502 18.176029 11.072266 17.900391 11.072266 L 17.585938 11.072266 L 17.324219 10.517578 C 17.026813 9.8754404 17.048307 9.6083343 17.396484 9.5722656 C 17.577825 9.5506316 17.614132 9.5842803 17.751953 9.8945312 C 17.860761 10.147056 17.982165 10.294553 18.207031 10.431641 C 18.497177 10.612015 18.536294 10.669606 18.753906 11.326172 C 18.884467 11.715784 19.116929 12.212318 19.291016 12.464844 C 19.544895 12.840025 19.624735 12.914063 19.798828 12.914062 C 19.914882 12.914062 20.022588 12.875914 20.037109 12.839844 C 20.044409 12.796544 19.87916 12.57208 19.654297 12.333984 C 19.313394 11.958803 19.262029 11.873734 19.291016 11.693359 C 19.327286 11.534628 19.290166 11.417303 19.152344 11.244141 C 19.04354 11.107056 18.93416 10.82794 18.890625 10.589844 C 18.789085 10.063147 18.752735 9.9962509 18.230469 9.3613281 C 17.867771 8.9212118 17.81754 8.8146631 17.882812 8.6992188 C 17.96986 8.5260574 18.661887 7.9899318 19.191406 7.6796875 C 19.583104 7.4488083 19.588322 7.4497017 20.988281 7.3847656 C 22.424508 7.3198305 22.865787 7.2787414 22.923828 7.1777344 C 22.945579 7.148885 22.903997 7.0449617 22.824219 6.9511719 C 22.700904 6.7924417 22.627356 6.7862389 21.212891 6.7285156 C 19.602574 6.6563656 19.465602 6.6783121 18.740234 7.0390625 C 18.217969 7.2987869 18.158757 7.299437 18.216797 7.046875 C 18.354618 6.4841023 19.936532 5.3920466 21.292969 4.9375 C 22.219627 4.6281574 22.723345 4.5363429 23.65625 4.5273438 z M 25.623047 17.494141 C 25.601287 17.494141 25.564146 17.588273 25.535156 17.710938 C 25.462616 18.050044 25.74005 18.452763 26.574219 19.203125 C 27.227053 19.801969 27.341821 19.882969 27.544922 19.861328 C 27.711757 19.846898 27.814184 19.779659 27.886719 19.642578 C 27.988248 19.469417 27.987145 19.44042 27.871094 19.310547 C 27.653485 19.072452 27.713214 18.948348 28.097656 18.890625 C 28.300761 18.861775 28.510346 18.77678 28.619141 18.675781 C 28.720681 18.589201 28.916864 18.460066 29.054688 18.402344 C 29.192508 18.344624 29.432216 18.16459 29.591797 18.005859 L 29.875 17.71875 L 29.626953 17.681641 C 29.26427 17.623911 27.496881 17.494141 27.025391 17.494141 C 26.669962 17.494141 26.596521 17.516122 26.429688 17.710938 C 26.328138 17.826384 26.197831 17.925781 26.154297 17.925781 C 26.103537 17.925781 25.970149 17.826385 25.861328 17.710938 C 25.752531 17.588278 25.644826 17.494141 25.623047 17.494141 z M 26.541016 20.671875 C 26.477506 20.670575 26.441406 20.712249 26.441406 20.798828 C 26.441406 21.058568 26.597115 21.427525 26.742188 21.542969 C 26.858255 21.629549 26.906559 21.764295 26.935547 22.03125 L 26.972656 22.398438 L 26.742188 22.398438 C 26.568102 22.398438 26.508929 22.435181 26.472656 22.572266 C 26.450876 22.673276 26.450876 22.811261 26.472656 22.890625 C 26.516176 23.013284 26.549692 23.028425 26.789062 22.970703 C 27.180758 22.876903 27.501403 22.89177 27.595703 23 C 27.697264 23.12266 27.391699 23.41804 27 23.583984 C 26.833166 23.648914 26.703677 23.763461 26.660156 23.878906 C 26.529595 24.225225 26.55863 24.275391 26.914062 24.275391 C 27.196963 24.275391 27.23967 24.25443 27.283203 24.095703 C 27.326723 23.908121 27.551631 23.84203 27.638672 23.986328 C 27.689452 24.065698 27.262245 24.521391 26.964844 24.708984 C 26.798009 24.817201 26.798011 24.82348 26.914062 25.097656 L 27.037109 25.388672 L 27.681641 24.730469 C 28.276441 24.131621 28.328125 24.057373 28.328125 23.783203 C 28.328127 23.516246 28.351594 23.481753 28.65625 23.308594 C 28.997182 23.106573 29.010898 23.070075 29.076172 22.3125 C 29.112442 21.922889 29.059668 21.857306 28.667969 21.785156 C 28.341552 21.720216 28.199757 21.830163 28.003906 22.255859 C 27.931356 22.414592 27.851253 22.522242 27.822266 22.507812 C 27.793246 22.493382 27.673261 22.226263 27.564453 21.916016 C 27.412128 21.519189 27.261973 21.253723 27.037109 21.015625 C 26.828564 20.79466 26.646857 20.67409 26.541016 20.671875 z "
     id="path106" />
  <path
     inkscape:connector-curvature="0"
     style="display:inline;opacity:0.65818182;fill:url(#linearGradient4129);fill-opacity:1;fill-rule:nonzero;stroke:none;stroke-width:0.5"
     d="m 0.74999899,40.921875 v 3 c 0,1.840071 1.48805331,3.328125 3.32812471,3.328125 H 43.921873 C 45.761944,47.25 47.25,45.761946 47.25,43.921875 v -3 C 47.25,42.761946 45.761944,44.25 43.921873,44.25 H 4.0781237 c -1.8400714,0 -3.32812471,-1.488054 -3.32812471,-3.328125 z"
     id="path4118-8" />
  <rect
     style="opacity:0.55;fill:url(#radialGradient7462-1);fill-opacity:1;stroke:none;stroke-width:0.5"
     id="rect4131-9"
     width="42.125004"
     height="2.125"
     x="2.687499"
     y="40.125004"
     rx="0"
     ry="2.125" />
  <rect
     ry="2.125"
     rx="0"
     y="-45.042503"
     x="2.7799981"
     height="2.125"
     width="38.375"
     id="rect4141-7"
     style="opacity:0.669;fill:url(#radialGradient7464-0);fill-opacity:1;stroke:none;stroke-width:0.5"
     transform="rotate(90)" />
  <rect
     transform="matrix(0.53462254,0,0,0.52384145,2.1476123,19.239494)"
     style="opacity:0.65;fill:url(#linearGradient4767);fill-opacity:1;stroke:none"
     id="rect4146-3"
     width="75.965775"
     height="69.024437"
     x="2"
     y="-30"
     rx="3.9569874"
     ry="3.9569881"
     clip-path="url(#clipPath4156-4-1-9)" />
</svg>
