<?xml version="1.0" encoding="UTF-8" standalone="no"?>
<!-- Created with Inkscape (http://www.inkscape.org/) -->

<svg
   xmlns:dc="http://purl.org/dc/elements/1.1/"
   xmlns:cc="http://creativecommons.org/ns#"
   xmlns:rdf="http://www.w3.org/1999/02/22-rdf-syntax-ns#"
   xmlns:svg="http://www.w3.org/2000/svg"
   xmlns="http://www.w3.org/2000/svg"
   xmlns:xlink="http://www.w3.org/1999/xlink"
   xmlns:sodipodi="http://sodipodi.sourceforge.net/DTD/sodipodi-0.dtd"
   xmlns:inkscape="http://www.inkscape.org/namespaces/inkscape"
   width="96"
   height="96"
   id="svg13094"
   version="1.1"
   inkscape:version="0.48.5 r10040"
   sodipodi:docname="half-life-2.svg">
  <sodipodi:namedview
     id="base"
     pagecolor="#cbcdd6"
     bordercolor="#666666"
     borderopacity="1.0"
     inkscape:pageopacity="0"
     inkscape:pageshadow="2"
     inkscape:zoom="2.8284273"
     inkscape:cx="-8.5157431"
     inkscape:cy="30.368595"
     inkscape:document-units="px"
     inkscape:current-layer="g3191"
     showgrid="false"
     inkscape:snap-bbox="true"
     inkscape:bbox-paths="true"
     inkscape:bbox-nodes="true"
     inkscape:snap-bbox-edge-midpoints="true"
     inkscape:snap-bbox-midpoints="true"
     inkscape:object-paths="true"
     inkscape:snap-intersection-paths="true"
     inkscape:object-nodes="true"
     inkscape:snap-smooth-nodes="true"
     inkscape:snap-midpoints="true"
     inkscape:snap-object-midpoints="true"
     inkscape:snap-center="true"
     showguides="true"
     inkscape:guide-bbox="true"
     inkscape:window-width="1280"
     inkscape:window-height="969"
     inkscape:window-x="0"
     inkscape:window-y="0"
     inkscape:window-maximized="1"
     inkscape:snap-global="true"
     fit-margin-top="0"
     fit-margin-left="0"
     fit-margin-right="0"
     fit-margin-bottom="0"
     showborder="true"
     inkscape:showpageshadow="false"
     inkscape:snap-page="true">
    <inkscape:grid
       type="xygrid"
       id="grid3075"
       empspacing="5"
       visible="true"
       enabled="true"
       snapvisiblegridlinesonly="true"
       originx="1.6362304e-08px"
       originy="18px" />
  </sodipodi:namedview>
  <defs
     id="defs13096">
    <linearGradient
       id="linearGradient3952">
      <stop
         id="stop3954"
         offset="0"
         style="stop-color:#ffc21b;stop-opacity:0.44537815;" />
      <stop
         id="stop3956"
         offset="1"
         style="stop-color:#e24f00;stop-opacity:0;" />
    </linearGradient>
    <linearGradient
       id="linearGradient3897">
      <stop
         style="stop-color:#ffffff;stop-opacity:0.34906271;"
         offset="0"
         id="stop3899" />
      <stop
         style="stop-color:#000000;stop-opacity:0.27278605;"
         offset="1"
         id="stop3901" />
    </linearGradient>
    <linearGradient
       id="linearGradient4059">
      <stop
         id="stop4061"
         offset="0"
         style="stop-color:#626c7c;stop-opacity:1;" />
      <stop
         id="stop4063"
         offset="1"
         style="stop-color:#3a424b;stop-opacity:1" />
    </linearGradient>
    <radialGradient
       inkscape:collect="always"
       xlink:href="#linearGradient4059"
       id="radialGradient3943"
       cx="28.378605"
       cy="23.333334"
       fx="28.378605"
       fy="23.333334"
       r="32"
       gradientTransform="matrix(-2.5792129e-8,1.75,-1.640625,-2.4180121e-8,70.281252,4e-6)"
       gradientUnits="userSpaceOnUse" />
    <linearGradient
       id="linearGradient6441">
      <stop
         style="stop-color:#d29942;stop-opacity:1;"
         offset="0"
         id="stop6443" />
      <stop
         style="stop-color:#ce7431;stop-opacity:0.76793796;"
         offset="1"
         id="stop6445" />
    </linearGradient>
    <radialGradient
       inkscape:collect="always"
       xlink:href="#linearGradient6441"
       id="radialGradient3832"
       gradientUnits="userSpaceOnUse"
       gradientTransform="matrix(0,0.21753325,-0.21530912,0,127.00938,-37.458288)"
       cx="256"
       cy="128.00383"
       fx="256"
       fy="128.00383"
       r="204.78125" />
    <radialGradient
       inkscape:collect="always"
       xlink:href="#linearGradient6441"
       id="radialGradient3804"
       cx="33"
       cy="11.834183"
       fx="33"
       fy="11.834183"
       r="26.030066"
       gradientTransform="matrix(0,2.1129413,-1.8111551,0,54.43354,-54.727062)"
       gradientUnits="userSpaceOnUse" />
    <radialGradient
       inkscape:collect="always"
       xlink:href="#linearGradient3897"
       id="radialGradient3903"
       cx="32"
       cy="14.800001"
       fx="32"
       fy="14.800001"
       r="32"
       gradientTransform="matrix(0,1.6875,-1.5820312,0,55.414063,-38)"
       gradientUnits="userSpaceOnUse" />
    <radialGradient
       inkscape:collect="always"
       xlink:href="#linearGradient3897"
       id="radialGradient3932"
       gradientUnits="userSpaceOnUse"
       gradientTransform="matrix(0,1.6875,-1.5820312,0,55.414063,-6)"
       cx="32"
       cy="14.800001"
       fx="32"
       fy="14.800001"
       r="32" />
    <radialGradient
       r="26.030066"
       fy="11.834183"
       fx="33"
       cy="11.834183"
       cx="33"
       gradientTransform="matrix(0,2.1129413,-1.8111551,0,54.43354,-54.727062)"
       gradientUnits="userSpaceOnUse"
       id="radialGradient3928"
       xlink:href="#linearGradient3952"
       inkscape:collect="always" />
    <radialGradient
       inkscape:collect="always"
       xlink:href="#linearGradient3952"
       id="radialGradient3958"
       gradientUnits="userSpaceOnUse"
       gradientTransform="matrix(0,1.8823736,-1.6135188,0,51.985554,-46.490899)"
       cx="35.72123"
       cy="12.386316"
       fx="35.72123"
       fy="12.386316"
       r="26.030066" />
    <radialGradient
       inkscape:collect="always"
       xlink:href="#linearGradient6441"
       id="radialGradient3962"
       gradientUnits="userSpaceOnUse"
       gradientTransform="matrix(0,2.1129413,-1.8111551,0,55.43354,-53.727062)"
       cx="33"
       cy="11.834183"
       fx="33"
       fy="11.834183"
       r="26.030066" />
    <radialGradient
       inkscape:collect="always"
       xlink:href="#linearGradient6441"
       id="radialGradient3966"
       gradientUnits="userSpaceOnUse"
       gradientTransform="matrix(0,2.1129413,-1.8111551,0,54.43354,-54.727062)"
       cx="33"
       cy="11.834183"
       fx="33"
       fy="11.834183"
       r="26.030066" />
    <radialGradient
       inkscape:collect="always"
       xlink:href="#linearGradient6441"
       id="radialGradient3968"
       gradientUnits="userSpaceOnUse"
       gradientTransform="matrix(0,2.1129413,-1.8111551,0,53.43354,-55.727062)"
       cx="33"
       cy="11.834183"
       fx="33"
       fy="11.834183"
       r="26.030066" />
    <radialGradient
       inkscape:collect="always"
       xlink:href="#linearGradient6441"
       id="radialGradient3975"
       gradientUnits="userSpaceOnUse"
       gradientTransform="matrix(0,2.1129413,-1.8111551,0,54.43354,-22.727062)"
       cx="33"
       cy="11.834183"
       fx="33"
       fy="11.834183"
       r="26.030066" />
    <radialGradient
       inkscape:collect="always"
       xlink:href="#linearGradient6441"
       id="radialGradient3979"
       gradientUnits="userSpaceOnUse"
       gradientTransform="matrix(0,2.1129413,-1.8111551,0,54.43354,-54.727062)"
       cx="33"
       cy="11.834183"
       fx="33"
       fy="11.834183"
       r="26.030066" />
    <radialGradient
       inkscape:collect="always"
       xlink:href="#linearGradient3952"
       id="radialGradient3984"
       gradientUnits="userSpaceOnUse"
       gradientTransform="matrix(0,1.8823736,-1.6135188,0,51.985554,-14.490899)"
       cx="33.197926"
       cy="12.386316"
       fx="33.197926"
       fy="12.386316"
       r="26.030066" />
    <radialGradient
       inkscape:collect="always"
       xlink:href="#linearGradient3952"
       id="radialGradient3028"
       gradientUnits="userSpaceOnUse"
       gradientTransform="matrix(0,1.8823736,-1.6135188,0,51.985554,-14.490899)"
       cx="33.197926"
       cy="12.386316"
       fx="33.197926"
       fy="12.386316"
       r="26.030066" />
    <radialGradient
       inkscape:collect="always"
       xlink:href="#linearGradient6441"
       id="radialGradient3030"
       gradientUnits="userSpaceOnUse"
       gradientTransform="matrix(0,2.1129413,-1.8111551,0,54.43354,-22.727062)"
       cx="33"
       cy="11.834183"
       fx="33"
       fy="11.834183"
       r="26.030066" />
    <radialGradient
       inkscape:collect="always"
       xlink:href="#linearGradient4133-5"
       id="radialGradient4992"
       gradientUnits="userSpaceOnUse"
       gradientTransform="matrix(0.97513384,0,0,0.04919072,32.734694,78.81442)"
       cx="13.948145"
       cy="44.892841"
       fx="13.948145"
       fy="44.892841"
       r="43.199203" />
    <radialGradient
       inkscape:collect="always"
       xlink:href="#linearGradient4133-5"
       id="radialGradient3831-7"
       gradientUnits="userSpaceOnUse"
       gradientTransform="matrix(0.97513378,0,0,0.04919072,-4.148257,101.31932)"
       cx="13.948145"
       cy="44.892841"
       fx="13.948145"
       fy="44.892841"
       r="43.199203" />
    <linearGradient
       id="linearGradient4133-5"
       inkscape:collect="always">
      <stop
         id="stop4135-4"
         offset="0"
         style="stop-color:#ffffff;stop-opacity:1;" />
      <stop
         id="stop4137-5"
         offset="1"
         style="stop-color:#ffffff;stop-opacity:0;" />
    </linearGradient>
    <radialGradient
       inkscape:collect="always"
       xlink:href="#linearGradient4133-5"
       id="radialGradient3833-1"
       gradientUnits="userSpaceOnUse"
       gradientTransform="matrix(0.88832663,0,0,0.04919072,29.382213,-89.635221)"
       cx="13.948145"
       cy="44.892841"
       fx="13.948145"
       fy="44.892841"
       r="43.199203" />
    <linearGradient
       y2="14.514202"
       x2="50.527882"
       y1="-28.64156"
       x1="2.7713892"
       gradientUnits="userSpaceOnUse"
       id="linearGradient4967"
       xlink:href="#linearGradient4213-7-8"
       inkscape:collect="always" />
    <clipPath
       id="clipPath4156-4-6"
       clipPathUnits="userSpaceOnUse">
      <path
         inkscape:connector-curvature="0"
         id="path4158-0-3"
         d="m 27.046336,-55.695463 -14.21366,13.321486 0.06127,0 15.653407,21.770763 10.231384,-10.546177 C 38.561832,-32.30156 27.468089,-54.819245 27.046336,-55.695463 z M 9.6468554,-39.382809 -5.2407289,-25.32124 15.987863,-7.8059573 26.372412,-18.382966 9.6468554,-39.382809 z m 31.4906096,12.951445 -9.741259,9.713584 8.944804,12.4580526 7.780753,-7.5550056 -6.984298,-14.616631 z m -49.8397109,4.378822 -13.7541661,12.9822847 26.2830181,13.84571 0.06127,-0.0617 -0.122531,-0.0617 L 13.598503,-5.4007374 -8.7022409,-22.052595 z m 38.0154159,7.400825 -9.802525,9.7752596 11.579232,9.5594001 7.62759,-7.40083 -8.669108,-11.0087257 -0.735189,-0.925104 z m 20.187073,5.6739697 -7.382526,7.2158 6.187844,8.54179 5.820249,-6.13651996 -4.625567,-9.62107004 z m -32.195166,6.32154 -9.5574606,9.49772 13.6622686,7.1849703 7.933918,-7.6783603 -12.038726,-9.00433 z m 23.311629,2.37443004 -7.10683,6.93826996 8.362778,6.9074403 5.360756,-5.6739699 -0.06127,-0.0925 -0.0919,0.12335 -6.463539,-8.20258036 z m -8.730374,8.54178036 -7.505057,7.3391599 10.353916,5.45811 c 1.397496,-1.32103 5.67514,-6.12292 5.850882,-6.32154 L 31.886332,8.2600031 z"
         style="opacity:0.6;fill:#ffffff;fill-opacity:1;stroke:none" />
    </clipPath>
    <linearGradient
       id="linearGradient4213-7-8"
       inkscape:collect="always">
      <stop
         id="stop4215-6-5"
         offset="0"
         style="stop-color:#ffffff;stop-opacity:1;" />
      <stop
         id="stop4217-5-2"
         offset="1"
         style="stop-color:#ffffff;stop-opacity:0;" />
    </linearGradient>
    <linearGradient
       inkscape:collect="always"
       xlink:href="#linearGradient4213-7-8"
       id="linearGradient3837-7"
       gradientUnits="userSpaceOnUse"
       x1="2.7713892"
       y1="-28.64156"
       x2="50.527882"
       y2="14.514202" />
    <clipPath
       id="clipPath4156-4"
       clipPathUnits="userSpaceOnUse">
      <path
         inkscape:connector-curvature="0"
         id="path4158-0"
         d="m 27.046336,-55.695463 -14.21366,13.321486 0.06127,0 15.653407,21.770763 10.231384,-10.546177 C 38.561832,-32.30156 27.468089,-54.819245 27.046336,-55.695463 z M 9.6468554,-39.382809 -5.2407289,-25.32124 15.987863,-7.8059573 26.372412,-18.382966 9.6468554,-39.382809 z m 31.4906096,12.951445 -9.741259,9.713584 8.944804,12.4580526 7.780753,-7.5550056 -6.984298,-14.616631 z m -49.8397109,4.378822 -13.7541661,12.9822847 26.2830181,13.84571 0.06127,-0.0617 -0.122531,-0.0617 L 13.598503,-5.4007374 -8.7022409,-22.052595 z m 38.0154159,7.400825 -9.802525,9.7752596 11.579232,9.5594001 7.62759,-7.40083 -8.669108,-11.0087257 -0.735189,-0.925104 z m 20.187073,5.6739697 -7.382526,7.2158 6.187844,8.54179 5.820249,-6.13651996 -4.625567,-9.62107004 z m -32.195166,6.32154 -9.5574606,9.49772 13.6622686,7.1849703 7.933918,-7.6783603 -12.038726,-9.00433 z m 23.311629,2.37443004 -7.10683,6.93826996 8.362778,6.9074403 5.360756,-5.6739699 -0.06127,-0.0925 -0.0919,0.12335 -6.463539,-8.20258036 z m -8.730374,8.54178036 -7.505057,7.3391599 10.353916,5.45811 c 1.397496,-1.32103 5.67514,-6.12292 5.850882,-6.32154 L 31.886332,8.2600031 z"
         style="opacity:0.6;fill:#ffffff;fill-opacity:1;stroke:none" />
    </clipPath>
    <linearGradient
       id="linearGradient4213-7"
       inkscape:collect="always">
      <stop
         id="stop4215-6"
         offset="0"
         style="stop-color:#ffffff;stop-opacity:1;" />
      <stop
         id="stop4217-5"
         offset="1"
         style="stop-color:#ffffff;stop-opacity:0;" />
    </linearGradient>
    <linearGradient
       inkscape:collect="always"
       xlink:href="#linearGradient4213-7"
       id="linearGradient3837"
       gradientUnits="userSpaceOnUse"
       x1="2.7713892"
       y1="-28.64156"
       x2="50.527882"
       y2="14.514202" />
    <filter
       id="filter3174-3"
       color-interpolation-filters="sRGB">
      <feGaussianBlur
         stdDeviation="1.71"
         id="feGaussianBlur3176-6" />
    </filter>
    <linearGradient
       gradientTransform="scale(1.0058652,0.994169)"
       gradientUnits="userSpaceOnUse"
       id="ButtonShadow-1"
       y2="7.0165396"
       x2="45.447727"
       y1="92.539597"
       x1="45.447727">
      <stop
         offset="0"
         style="stop-color:#000000;stop-opacity:1"
         id="stop3750-9" />
      <stop
         offset="1"
         style="stop-color:#000000;stop-opacity:0.58823532"
         id="stop3752-9" />
    </linearGradient>
    <linearGradient
       inkscape:collect="always"
       xlink:href="#ButtonShadow-1"
       id="linearGradient3835"
       gradientUnits="userSpaceOnUse"
       gradientTransform="scale(1.0058652,0.994169)"
       x1="45.447727"
       y1="92.539597"
       x2="45.447727"
       y2="7.0165396" />
    <radialGradient
       inkscape:collect="always"
       xlink:href="#linearGradient4133"
       id="radialGradient3833"
       gradientUnits="userSpaceOnUse"
       gradientTransform="matrix(0.88832663,0,0,0.04919072,51.887113,-52.752262)"
       cx="13.948145"
       cy="44.892841"
       fx="13.948145"
       fy="44.892841"
       r="43.199203" />
    <linearGradient
       id="linearGradient4133"
       inkscape:collect="always">
      <stop
         id="stop4135"
         offset="0"
         style="stop-color:#ffffff;stop-opacity:1;" />
      <stop
         id="stop4137"
         offset="1"
         style="stop-color:#ffffff;stop-opacity:0;" />
    </linearGradient>
    <radialGradient
       inkscape:collect="always"
       xlink:href="#linearGradient4133"
       id="radialGradient3831"
       gradientUnits="userSpaceOnUse"
       gradientTransform="matrix(0.97513378,0,0,0.04919072,-4.148257,101.31932)"
       cx="13.948145"
       cy="44.892841"
       fx="13.948145"
       fy="44.892841"
       r="43.199203" />
    <linearGradient
       id="linearGradient3832-0-6-1-1">
      <stop
         id="stop3834-6-3-7-1"
         offset="0"
         style="stop-color:#000000;stop-opacity:1;" />
      <stop
         style="stop-color:#000000;stop-opacity:0.58823532;"
         offset="0.1"
         id="stop3872-2-4" />
      <stop
         id="stop3844-6-2-7-6"
         offset="0.89999998"
         style="stop-color:#000000;stop-opacity:0.58823532;" />
      <stop
         id="stop3836-5-0-2-9"
         offset="1"
         style="stop-color:#000000;stop-opacity:1;" />
    </linearGradient>
    <linearGradient
       inkscape:collect="always"
       xlink:href="#linearGradient3832-0-6-1-1"
       id="linearGradient3829"
       gradientUnits="userSpaceOnUse"
       gradientTransform="translate(8.0439564,-14.665561)"
       x1="1.5"
       y1="88.171875"
       x2="94.5"
       y2="88.171875" />
    <linearGradient
       id="linearGradient4091-0-3-0-7">
      <stop
         id="stop4093-3-6-4-2"
         offset="0"
         style="stop-color:#ffffff;stop-opacity:1;" />
      <stop
         style="stop-color:#ffffff;stop-opacity:1;"
         offset="0.80000001"
         id="stop4099-6-1-8-3" />
      <stop
         id="stop4095-1-0-7-9"
         offset="1"
         style="stop-color:#ffffff;stop-opacity:0;" />
    </linearGradient>
    <radialGradient
       inkscape:collect="always"
       xlink:href="#linearGradient4091-0-3-0-7"
       id="radialGradient3827"
       gradientUnits="userSpaceOnUse"
       gradientTransform="matrix(-1.0721726,0,0,-0.87502024,199.46429,-19.125546)"
       cx="48"
       cy="-27"
       fx="48"
       fy="-27"
       r="42" />
    <linearGradient
       id="linearGradient6139-0">
      <stop
         style="stop-color:#adb4c1;stop-opacity:1;"
         offset="0"
         id="stop6141-2" />
      <stop
         id="stop6151-0"
         offset="0.25"
         style="stop-color:#ffffff;stop-opacity:1;" />
      <stop
         id="stop6147-1"
         offset="0.5"
         style="stop-color:#9095aa;stop-opacity:1;" />
      <stop
         style="stop-color:#fbf9f9;stop-opacity:1;"
         offset="0.75"
         id="stop6149-4" />
      <stop
         style="stop-color:#adb3c1;stop-opacity:1;"
         offset="1"
         id="stop6143-4" />
    </linearGradient>
    <linearGradient
       inkscape:collect="always"
       xlink:href="#linearGradient6139-0"
       id="linearGradient3825"
       gradientUnits="userSpaceOnUse"
       gradientTransform="matrix(1.1071428,0,0,1.1071426,2.9011003,-18.701274)"
       x1="6"
       y1="47.000011"
       x2="90"
       y2="47.000011" />
    <linearGradient
       id="linearGradient5029">
      <stop
         id="stop5031"
         offset="0"
         style="stop-color:#0a9aff;stop-opacity:1;" />
      <stop
         id="stop5033"
         offset="1"
         style="stop-color:#0070c0;stop-opacity:1;" />
    </linearGradient>
    <linearGradient
       id="linearGradient5039">
      <stop
         style="stop-color:#ff0a0a;stop-opacity:1;"
         offset="0"
         id="stop5041" />
      <stop
         style="stop-color:#c00000;stop-opacity:1;"
         offset="1"
         id="stop5043" />
    </linearGradient>
    <linearGradient
       id="linearGradient5045">
      <stop
         id="stop5047"
         offset="0"
         style="stop-color:#2fff0a;stop-opacity:1;" />
      <stop
         id="stop5049"
         offset="1"
         style="stop-color:#16b50b;stop-opacity:1;" />
    </linearGradient>
    <linearGradient
       id="linearGradient5051">
      <stop
         style="stop-color:#c60aff;stop-opacity:1;"
         offset="0"
         id="stop5053" />
      <stop
         style="stop-color:#9b0bb5;stop-opacity:1;"
         offset="1"
         id="stop5055" />
    </linearGradient>
    <linearGradient
       id="linearGradient5057">
      <stop
         id="stop5059"
         offset="0"
         style="stop-color:#ff830a;stop-opacity:1;" />
      <stop
         id="stop5061"
         offset="1"
         style="stop-color:#b55f0b;stop-opacity:1;" />
    </linearGradient>
    <linearGradient
       id="linearGradient5063">
      <stop
         style="stop-color:#6b9ab0;stop-opacity:1;"
         offset="0"
         id="stop5065" />
      <stop
         style="stop-color:#466b7a;stop-opacity:1;"
         offset="1"
         id="stop5067" />
    </linearGradient>
    <radialGradient
       inkscape:collect="always"
       xlink:href="#linearGradient6441-8"
       id="radialGradient3030-5"
       gradientUnits="userSpaceOnUse"
       gradientTransform="matrix(0,2.1129413,-1.8111551,0,54.43354,-22.727062)"
       cx="33"
       cy="11.834183"
       fx="33"
       fy="11.834183"
       r="26.030066" />
    <linearGradient
       id="linearGradient6441-8">
      <stop
         style="stop-color:#d29942;stop-opacity:1;"
         offset="0"
         id="stop6443-4" />
      <stop
         style="stop-color:#ce7431;stop-opacity:0.76793796;"
         offset="1"
         id="stop6445-9" />
    </linearGradient>
  </defs>
  <metadata
     id="metadata13099">
    <rdf:RDF>
      <cc:Work
         rdf:about="">
        <dc:format>image/svg+xml</dc:format>
        <dc:type
           rdf:resource="http://purl.org/dc/dcmitype/StillImage" />
        <dc:title />
      </cc:Work>
    </rdf:RDF>
  </metadata>
  <g
     id="g3043"
     inkscape:export-filename="folder.png"
     inkscape:export-xdpi="90"
     inkscape:export-ydpi="90"
     transform="translate(-0.62500009,32.082283)" />
  <g
     id="scalable"
     transform="matrix(1.0385892,0,0,1.0385892,1214.7222,1910.8121)"
     inkscape:label="#g3701"
     style="fill:#ffffff" />
  <g
     id="g3191">
    <g
       transform="translate(0,32)"
       inkscape:label="icona"
       id="layer1">
      <g
         id="g7390"
         transform="translate(-8.0439594,-17.334439)"
         style="display:inline">
        <path
           inkscape:connector-curvature="0"
           id="path3288"
           d="m 97.186813,-14.665561 -82.285719,0 c -3.798848,0 -6.8571352,3.058285 -6.8571352,6.8571399 l 0,82.2857181 c 0,3.798857 3.0582872,6.857142 6.8571352,6.857142 l 82.285719,0 c 3.798857,0 6.857147,-3.058285 6.857147,-6.857142 l 0,-82.2857181 c 0,-3.7988549 -3.05829,-6.8571399 -6.857147,-6.8571399 z"
           style="opacity:0.15;fill:#000000;fill-opacity:1;fill-rule:nonzero;stroke:none;display:inline" />
        <path
           style="opacity:0.15;fill:#000000;fill-opacity:1;fill-rule:nonzero;stroke:none;display:inline"
           d="m 96.543957,-13.915561 -81.000007,0 c -3.739492,0 -6.749993,3.010499 -6.749993,6.7499969 l 0,81.0000031 c 0,3.739501 3.010501,6.75 6.749993,6.75 l 81.000007,0 c 3.739503,0 6.750003,-3.010499 6.750003,-6.75 l 0,-81.0000031 c 0,-3.7394979 -3.0105,-6.7499969 -6.750003,-6.7499969 z"
           id="path4085"
           inkscape:connector-curvature="0" />
        <path
           inkscape:connector-curvature="0"
           id="rect4251-1"
           d="m 95.901096,-13.165561 -79.714282,0 c -3.680143,0 -6.6428566,2.962713 -6.6428566,6.6428549 l 0,79.7142901 c 0,3.680142 2.9627136,6.642856 6.6428566,6.642856 l 79.714282,0 c 3.680143,0 6.642854,-2.962714 6.642854,-6.642856 l 0,-79.7142901 c 0,-3.6801419 -2.962711,-6.6428549 -6.642854,-6.6428549 z"
           style="fill:url(#linearGradient3825);fill-opacity:1;fill-rule:nonzero;stroke:none;display:inline" />
        <g
           transform="matrix(1.1071428,0,0,1.1071426,-107.81316,-18.147702)"
           id="g3272">
          <path
             style="opacity:0.45;fill:url(#radialGradient3827);fill-opacity:1;fill-rule:nonzero;stroke:none;display:inline"
             d="m 112,4.5 c -3.324,0 -6,2.6759996 -6,6 l 0,15 1,0 0,-15 c 0,-2.7872972 2.2127,-5 5,-5 l 72,0 c 2.7873,0 5,2.2127028 5,5 l 0,15 1,0 0,-15 c 0,-3.3240004 -2.676,-6 -6,-6 l -72,0 z"
             id="path4236-5"
             inkscape:connector-curvature="0" />
        </g>
        <path
           id="path4118"
           d="m 9.5439564,67.178189 0,6 c 0,3.680142 2.9761066,6.65625 6.6562496,6.65625 l 79.6875,0 c 3.680143,0 6.656254,-2.976108 6.656254,-6.65625 l 0,-6 c 0,3.680142 -2.976111,6.65625 -6.656254,6.65625 l -79.6875,0 c -3.680143,0 -6.6562496,-2.976108 -6.6562496,-6.65625 z"
           style="opacity:0.89090905;fill:url(#linearGradient3829);fill-opacity:1;fill-rule:nonzero;stroke:none;display:inline"
           inkscape:connector-curvature="0" />
        <g
           id="g4615"
           transform="translate(251.28797,-104.89729)">
          <g
             style="display:none"
             id="layer2-8">
            <rect
               style="opacity:0.9;fill:url(#linearGradient3835);fill-opacity:1;fill-rule:nonzero;stroke:none;filter:url(#filter3174-3)"
               id="rect3745-9"
               y="7"
               x="5"
               ry="6"
               rx="6"
               height="85"
               width="86" />
          </g>
        </g>
      </g>
    </g>
    <g
       style="display:inline;fill:#58360e;fill-opacity:1"
       inkscape:label="colori"
       id="layer7">
      <rect
         style="fill:#58360e;fill-opacity:1;stroke:none;display:inline"
         id="rect4301"
         width="84.84639"
         height="77.520287"
         x="5.5768051"
         y="7.2398567"
         ry="4.25" />
      <path
         style="font-size:medium;font-style:normal;font-variant:normal;font-weight:normal;font-stretch:normal;text-indent:0;text-align:start;text-decoration:none;line-height:normal;letter-spacing:normal;word-spacing:normal;text-transform:none;direction:ltr;block-progression:tb;writing-mode:lr-tb;text-anchor:start;baseline-shift:baseline;color:#000000;fill:#58360e;fill-opacity:1;stroke:none;stroke-width:2.37550019999999984;marker:none;visibility:visible;display:inline;overflow:visible;enable-background:accumulate;font-family:Sans;-inkscape-font-specification:Sans"
         d="m 9.6041045,5.7149979 c -3.116621,0 -5.667965,2.5395101 -5.667965,5.6460041 l 0,69.277996 c 0,3.106495 2.551344,5.646004 5.667965,5.646004 l 76.7917855,0 c 3.116621,0 5.66797,-2.539509 5.66797,-5.646004 l 0,-69.277996 c 0,-3.106493 -2.55135,-5.6460041 -5.66797,-5.6460041 l -76.7917855,0 z m 0,2.3194391 76.7917855,0 c 1.888101,0 3.352021,1.480095 3.352021,3.326565 l 0,69.277996 c 0,1.846474 -1.46392,3.326564 -3.352021,3.326564 l -76.7917855,0 c -1.888099,0 -3.352022,-1.48009 -3.352022,-3.326564 l 0,-69.277996 c 0,-1.84647 1.463923,-3.326565 3.352022,-3.326565 z"
         id="path4989"
         inkscape:connector-curvature="0" />
    </g>
    <g
       inkscape:label="simboli"
       id="layer5" />
    <g
       id="g3022"
       transform="matrix(1.3304627,0,0,1.3304627,2.0595147,-40.475099)">
      <path
         id="path3973"
         d="m 49.5625,43.6875 c -2.355179,0.0077 -4.858778,0.15625 -7.03125,0.15625 -4.848373,0 -9.604827,-0.154879 -13.8125,0.15625 C 22.217915,44.480673 17.39464,47.319793 14.0625,50.90625 10.658675,54.570043 8,59.760396 8,66.125 c 0,6.634685 2.581785,11.59541 6.0625,15.21875 3.311319,3.446807 8.213552,6.492948 14.375,6.90625 11.363931,0.761611 18.915629,-5.620463 22.25,-13.6875 2.165111,-5.238622 4.799381,-11.51987 7.0625,-17.03125 0.683829,-1.665104 2.024239,-3.785683 2.25,-5.78125 0.449739,-3.977152 -1.683856,-6.253294 -4.375,-7.3125 -1.510655,-0.594595 -3.707321,-0.757734 -6.0625,-0.75 z m 2.3125,2.53125 c 1.501508,0.0633 2.939994,1.144232 2.75,3.125 C 54.39552,51.736555 52.010704,53.429335 50.96875,55 l 3.65625,0 c 0.22011,0.323175 0.22011,1.364474 0,1.6875 -1.838663,-0.18085 -3.880344,-0.16245 -5.90625,-0.15625 -0.862445,-3.162894 4.477514,-5.272346 3.9375,-7.875 -0.254762,-1.22756 -2.005023,-1.26724 -1.6875,0.5625 l -2.09375,0 c -0.03904,-2.093128 1.498492,-3.0633 3,-3 z m -21.4375,1.875 c 5.426344,0.01811 9.340142,2.185421 12.09375,4.65625 3.455581,3.100728 6.659445,9.415931 5.5,16.34375 -0.946622,5.655641 -4.136491,10.126782 -9.3125,12.9375 -5.632441,3.058936 -12.701743,2.61848 -17.75,-0.40625 -4.871722,-2.918988 -9.469969,-8.570797 -8.75,-17.46875 0.382813,-4.731178 2.458526,-8.026713 5.09375,-10.71875 2.455418,-2.508512 5.885083,-4.705358 10.6875,-5.21875 0.837962,-0.08961 1.662308,-0.127587 2.4375,-0.125 z m -6.21875,4.78125 0,3.8125 3.21875,0 c 0.31098,1.098023 0.881391,1.928208 1.125,3.09375 -2.779932,4.744713 -5.951013,9.906687 -8.71875,14.5 -0.358125,0.594297 -0.88792,1.331043 -0.84375,2 l 4.78125,0 c 2.439505,-3.478484 4.523184,-7.308827 7.03125,-10.71875 1.393089,3.961239 3.059842,7.648181 4.375,11.6875 2.667349,-0.667023 5.37824,-1.318341 7.625,-2.40625 C 42.178791,73.786478 42.080412,72.204023 41.40625,71.1875 40.343177,71.627274 39.218488,72.028141 38,72.3125 35.722604,65.666065 32.965045,59.521137 30.6875,52.875 l -6.46875,0 z"
         style="fill:url(#radialGradient3030-5);fill-opacity:1"
         inkscape:connector-curvature="0" />
      <path
         inkscape:connector-curvature="0"
         id="path3960"
         d="m 51.875,46.21875 c -1.501508,-0.0633 -3.03904,0.906872 -3,3 l 1.15625,0 c 0.389313,-1.389894 1.61138,-2.051954 2.84375,-2 0.492682,0.02077 0.982443,0.170512 1.40625,0.40625 -0.490139,-0.879102 -1.424183,-1.364848 -2.40625,-1.40625 z m 6.84375,0.4375 c 0.981951,1.239539 1.529061,2.9023 1.28125,5.09375 -0.225761,1.995567 -1.566171,4.116146 -2.25,5.78125 -2.263119,5.51138 -4.897389,11.792628 -7.0625,17.03125 -3.334371,8.067037 -10.886069,14.449111 -22.25,13.6875 -5.391267,-0.361639 -9.821618,-2.727208 -13.0625,-5.625 3.30474,3.324069 8.077445,6.22353 14.0625,6.625 11.363931,0.761611 18.915629,-5.620463 22.25,-13.6875 C 53.852611,70.323878 56.486881,64.04263 58.75,58.53125 59.433829,56.866146 60.774239,54.745567 61,52.75 61.322087,49.901708 60.3025,47.937485 58.71875,46.65625 z m -28.28125,1.4375 c -0.775192,-0.0026 -1.599538,0.03539 -2.4375,0.125 -4.802417,0.513392 -8.232082,2.710238 -10.6875,5.21875 -2.635224,2.692037 -4.710937,5.987572 -5.09375,10.71875 -0.549515,6.791343 2.002574,11.668733 5.40625,14.90625 -2.893103,-3.215527 -4.901229,-7.788907 -4.40625,-13.90625 0.382813,-4.731178 2.458526,-8.026713 5.09375,-10.71875 2.455418,-2.508512 5.885083,-4.705358 10.6875,-5.21875 0.837962,-0.08961 1.662308,-0.127587 2.4375,-0.125 5.426344,0.01811 9.340142,2.185421 12.09375,4.65625 -0.325792,-0.357687 -0.665778,-0.700099 -1,-1 -2.753608,-2.470829 -6.667406,-4.63814 -12.09375,-4.65625 z m 22.21875,0.6875 c 0.342431,2.543791 -4.785635,4.639588 -3.9375,7.75 0.313284,-9.59e-4 0.62427,7.6e-4 0.9375,0 0.319606,-2.623809 4.480426,-4.559535 4,-6.875 -0.121638,-0.58611 -0.584358,-0.904668 -1,-0.875 z M 31.0625,53.875 C 33.267758,60.135021 35.839094,66.006034 38,72.3125 38.195418,72.26689 38.371775,72.207528 38.5625,72.15625 36.369616,65.955891 33.830199,60.127641 31.6875,53.875 l -0.625,0 z M 52.75,55 c -0.298196,0.33914 -0.566508,0.676293 -0.78125,1 l 2.8125,0 c 0.0198,-0.389156 -0.02907,-0.813263 -0.15625,-1 l -1.875,0 z m -27.53125,1.6875 0,1 2.59375,0 c -0.134928,-0.319313 -0.274484,-0.645092 -0.375,-1 l -2.21875,0 z m 5.59375,8.875 c -2.508066,3.409923 -4.591745,7.240266 -7.03125,10.71875 l -3.5,0 c -0.164852,0.333932 -0.30278,0.673933 -0.28125,1 l 4.78125,0 c 2.301961,-3.28236 4.301161,-6.864916 6.625,-10.125 -0.197479,-0.528802 -0.404781,-1.056418 -0.59375,-1.59375 z m 11.59375,6.625 c -0.160339,0.06633 -0.336747,0.123207 -0.5,0.1875 0.273053,0.844269 0.486366,1.76822 0.90625,2.46875 -2.079492,1.006916 -4.559085,1.63248 -7.03125,2.25 0.134317,0.38767 0.278037,0.762462 0.40625,1.15625 2.667349,-0.667023 5.37824,-1.318341 7.625,-2.40625 -0.633709,-1.057272 -0.732088,-2.639727 -1.40625,-3.65625 z"
         style="fill:#000000;fill-opacity:0.23655916" />
      <path
         inkscape:connector-curvature="0"
         id="path3035"
         d="m 49.5625,43.6875 c -2.355179,0.0077 -4.858778,0.15625 -7.03125,0.15625 -4.848373,0 -9.604827,-0.154879 -13.8125,0.15625 C 22.217915,44.480673 17.39464,47.319793 14.0625,50.90625 10.658675,54.570043 8,59.760396 8,66.125 c 0,6.634685 2.581785,11.59541 6.0625,15.21875 0.274301,0.285525 0.579054,0.564993 0.875,0.84375 C 11.526011,78.577007 9,73.672645 9,67.125 9,60.760396 11.658675,55.570043 15.0625,51.90625 18.39464,48.319793 23.217915,45.480673 29.71875,45 c 4.207673,-0.311129 8.964127,-0.15625 13.8125,-0.15625 2.172472,0 4.676071,-0.14855 7.03125,-0.15625 2.355179,-0.0077 4.551845,0.155405 6.0625,0.75 0.763844,0.300641 1.466065,0.71096 2.09375,1.21875 -0.800142,-1.010037 -1.885453,-1.743177 -3.09375,-2.21875 -1.510655,-0.594595 -3.707321,-0.757734 -6.0625,-0.75 z m 4.71875,3.9375 c 0.259247,0.464979 0.409478,1.033511 0.34375,1.71875 C 54.39552,51.736555 52.010704,53.429335 50.96875,55 L 52.75,55 c 1.148686,-1.306407 2.692815,-2.756592 2.875,-4.65625 0.127652,-1.330829 -0.475954,-2.236049 -1.34375,-2.71875 z m -2.6875,0.15625 c -0.42972,0.06535 -0.783762,0.52263 -0.625,1.4375 l -0.9375,0 c -0.08502,0.30354 -0.163248,0.624817 -0.15625,1 l 2.09375,0 c -0.165919,-0.956114 0.232613,-1.405031 0.6875,-1.4375 -0.0058,-0.04292 0.009,-0.08181 0,-0.125 -0.127381,-0.61378 -0.63278,-0.940352 -1.0625,-0.875 z m -27.375,5.09375 0,3.8125 1,0 0,-2.8125 5.84375,0 c -0.118881,-0.337466 -0.258502,-0.660046 -0.375,-1 l -6.46875,0 z m 19.3125,0.875 c 3.042634,3.340506 5.547304,9.085986 4.5,15.34375 -0.946622,5.655641 -4.136491,10.126782 -9.3125,12.9375 -5.632441,3.058936 -12.701743,2.61848 -17.75,-0.40625 -1.094923,-0.656045 -2.177477,-1.468292 -3.1875,-2.40625 1.278345,1.385977 2.722516,2.528476 4.1875,3.40625 5.048257,3.02473 12.117559,3.465186 17.75,0.40625 5.176009,-2.810718 8.365878,-7.281859 9.3125,-12.9375 1.159445,-6.927819 -2.044419,-13.243022 -5.5,-16.34375 z m 11.25,2.25 c -0.01446,0.284333 -0.06332,0.551125 -0.15625,0.6875 -1.554334,-0.152884 -3.256427,-0.160406 -4.96875,-0.15625 -0.03964,0.325434 -0.03267,0.650991 0.0625,1 2.025906,-0.0062 4.067587,-0.0246 5.90625,0.15625 0.22011,-0.323026 0.22011,-1.364325 0,-1.6875 l -0.84375,0 z M 27.8125,57.6875 c 0.282515,0.668585 0.585131,1.30494 0.75,2.09375 -2.779932,4.744713 -5.951013,9.906687 -8.71875,14.5 -0.358125,0.594297 -0.88792,1.331043 -0.84375,2 l 1.28125,0 c 0.173358,-0.35116 0.378934,-0.695379 0.5625,-1 2.767737,-4.593313 5.938818,-9.755287 8.71875,-14.5 -0.243609,-1.165542 -0.81402,-1.995727 -1.125,-3.09375 l -0.625,0 z m 4,8.875 c -0.14141,0.192258 -0.267399,0.398957 -0.40625,0.59375 1.258348,3.369552 2.64449,6.602355 3.78125,10.09375 0.19858,-0.04966 0.394897,-0.106579 0.59375,-0.15625 C 34.537798,73.504851 33.069779,70.137563 31.8125,66.5625 z m 9.59375,4.625 c -0.89258,0.369244 -1.845246,0.700294 -2.84375,0.96875 0.138004,0.390206 0.302663,0.762736 0.4375,1.15625 1.034709,-0.24147 1.987111,-0.575521 2.90625,-0.9375 -0.139051,-0.429941 -0.272526,-0.844507 -0.5,-1.1875 z"
         style="fill:#ffde5b;fill-opacity:0.38620073" />
    </g>
    <g
       inkscape:label="luci-superiori"
       id="layer4">
      <g
         transform="matrix(1.0076012,0,0,1.014293,-1.0512372,0.60533708)"
         id="g4963">
        <path
           sodipodi:nodetypes="ssccscss"
           style="opacity:0.3;fill:#ffffff;fill-opacity:1;stroke:none;display:inline"
           d="m 10.49504,6.668839 c -1.9933517,0 -3.6044917,1.649341 -3.6088027,3.684498 l -0.148217,69.961124 c 1.913686,2.521055 1.665283,2.410772 4.8515137,2.679065 C 13.393749,68.132472 48.088552,9.657054 89.00782,9.657054 c 0.48807,0 0.96327,0.01986 1.4492,0.02901 -0.30286,-1.718031 -1.751,-3.017226 -3.52355,-3.017226 z"
           id="rect4190"
           inkscape:connector-curvature="0" />
        <rect
           transform="matrix(0.90930469,0,0,0.92837735,5.0676273,34.52016)"
           style="fill:url(#linearGradient4967);fill-opacity:1;stroke:none;display:inline"
           id="rect4146"
           width="92"
           height="92"
           x="2"
           y="-30"
           rx="3.9569874"
           ry="3.9569881"
           clip-path="url(#clipPath4156-4-6)" />
      </g>
      <rect
         ry="4.25"
         rx="0"
         y="78.897736"
         x="4.211"
         height="4.25"
         width="84.250008"
         id="rect4131"
         style="opacity:0.55;fill:url(#radialGradient4992);fill-opacity:1;stroke:none;display:inline" />
      <rect
         transform="matrix(0,1,-1,0,0,0)"
         style="opacity:0.55;fill:url(#radialGradient3833-1);fill-opacity:1;stroke:none;display:inline"
         id="rect4141"
         width="76.75"
         height="4.25"
         x="3.3977196"
         y="-89.551903"
         rx="0"
         ry="4.25" />
    </g>
  </g>
</svg>
