<?xml version="1.0" encoding="UTF-8" standalone="no"?>
<!-- Created with Inkscape (http://www.inkscape.org/) -->

<svg
   xmlns:dc="http://purl.org/dc/elements/1.1/"
   xmlns:cc="http://creativecommons.org/ns#"
   xmlns:rdf="http://www.w3.org/1999/02/22-rdf-syntax-ns#"
   xmlns:svg="http://www.w3.org/2000/svg"
   xmlns="http://www.w3.org/2000/svg"
   xmlns:xlink="http://www.w3.org/1999/xlink"
   xmlns:sodipodi="http://sodipodi.sourceforge.net/DTD/sodipodi-0.dtd"
   xmlns:inkscape="http://www.inkscape.org/namespaces/inkscape"
   width="96"
   height="96"
   viewBox="0 0 96.000001 96.000004"
   version="1.1"
   id="svg1072"
   inkscape:version="0.92.1 r"
   sodipodi:docname="stellarium.svg">
  <defs
     id="defs1066">
    <linearGradient
       y2="47.000011"
       x2="90"
       y1="47.000011"
       x1="6"
       gradientTransform="matrix(1.1071428,0,0,1.1071426,-4.9939026,-3.620687)"
       gradientUnits="userSpaceOnUse"
       id="linearGradient4071"
       xlink:href="#linearGradient6139-0"
       inkscape:collect="always" />
    <linearGradient
       id="linearGradient6139-0">
      <stop
         style="stop-color:#b4b9ba;stop-opacity:1"
         offset="0"
         id="stop6141-2" />
      <stop
         id="stop6151-0"
         offset="0.25"
         style="stop-color:#ffffff;stop-opacity:1;" />
      <stop
         id="stop6147-1"
         offset="0.5"
         style="stop-color:#98a0a2;stop-opacity:1" />
      <stop
         style="stop-color:#fbf9f9;stop-opacity:1;"
         offset="0.75"
         id="stop6149-4" />
      <stop
         style="stop-color:#b4b8ba;stop-opacity:1"
         offset="1"
         id="stop6143-4" />
    </linearGradient>
    <linearGradient
       gradientUnits="userSpaceOnUse"
       y2="88.171875"
       x2="94.5"
       y1="88.171875"
       x1="1.5"
       id="linearGradient4129"
       xlink:href="#linearGradient3832-0-6-1-1"
       inkscape:collect="always"
       gradientTransform="translate(0.1489535,0.415026)" />
    <linearGradient
       id="linearGradient3832-0-6-1-1">
      <stop
         id="stop3834-6-3-7-1"
         offset="0"
         style="stop-color:#000000;stop-opacity:1;" />
      <stop
         style="stop-color:#000000;stop-opacity:0.58823532;"
         offset="0.1"
         id="stop3872-2-4" />
      <stop
         id="stop3844-6-2-7-6"
         offset="0.89999998"
         style="stop-color:#000000;stop-opacity:0.58823532;" />
      <stop
         id="stop3836-5-0-2-9"
         offset="1"
         style="stop-color:#000000;stop-opacity:1;" />
    </linearGradient>
    <radialGradient
       r="43.199203"
       fy="44.892841"
       fx="13.948145"
       cy="44.892841"
       cx="13.948145"
       gradientTransform="matrix(0.97513378,0,0,0.04919072,34.047649,80.581722)"
       gradientUnits="userSpaceOnUse"
       id="radialGradient7462"
       xlink:href="#linearGradient3737"
       inkscape:collect="always" />
    <linearGradient
       id="linearGradient3737">
      <stop
         id="stop3739"
         style="stop-color:#ffffff;stop-opacity:1"
         offset="0" />
      <stop
         id="stop3741"
         style="stop-color:#ffffff;stop-opacity:0"
         offset="1" />
    </linearGradient>
    <radialGradient
       r="43.199203"
       fy="44.892841"
       fx="13.948145"
       cy="44.892841"
       cx="13.948145"
       gradientTransform="matrix(0.88832663,0,0,0.04919072,31.959518,-90.31726)"
       gradientUnits="userSpaceOnUse"
       id="radialGradient7464"
       xlink:href="#linearGradient3737"
       inkscape:collect="always" />
    <linearGradient
       y2="14.514202"
       x2="50.527882"
       y1="-28.64156"
       x1="2.7713892"
       gradientUnits="userSpaceOnUse"
       id="linearGradient4767"
       xlink:href="#linearGradient3737"
       inkscape:collect="always" />
    <clipPath
       clipPathUnits="userSpaceOnUse"
       id="clipPath4156-4-1">
      <path
         style="opacity:0.6;fill:#ffffff;fill-opacity:1;stroke:none"
         d="m 27.046336,-55.695463 -14.21366,13.321486 h 0.06127 l 15.653407,21.770763 10.231384,-10.546177 C 38.561832,-32.30156 27.468089,-54.819245 27.046336,-55.695463 Z M 9.6468554,-39.382809 -5.2407289,-25.32124 15.987863,-7.8059573 26.372412,-18.382966 Z m 31.4906096,12.951445 -9.741259,9.713584 8.944804,12.4580526 7.780753,-7.5550056 z m -49.8397109,4.378822 -13.7541661,12.9822847 26.2830181,13.84571 0.06127,-0.0617 -0.122531,-0.0617 L 13.598503,-5.4007374 -8.7022409,-22.052595 Z m 38.0154159,7.400825 -9.802525,9.7752596 11.579232,9.5594001 7.62759,-7.40083 -8.669108,-11.0087257 z m 20.187073,5.6739697 -7.382526,7.2158 6.187844,8.54179 5.820249,-6.13651996 z m -32.195166,6.32154 -9.5574606,9.49772 13.6622686,7.1849703 7.933918,-7.6783603 z m 23.311629,2.37443004 -7.10683,6.93826996 8.362778,6.9074403 5.360756,-5.6739699 -0.06127,-0.0925 -0.0919,0.12335 -6.463539,-8.20258036 z m -8.730374,8.54178036 -7.505057,7.3391599 10.353916,5.45811 c 1.397496,-1.32103 5.67514,-6.12292 5.850882,-6.32154 z"
         id="path4158-0-8"
         inkscape:connector-curvature="0" />
    </clipPath>
    <radialGradient
       inkscape:collect="always"
       xlink:href="#linearGradient4263"
       id="radialGradient5021"
       gradientUnits="userSpaceOnUse"
       cx="18"
       cy="18"
       fx="18"
       fy="18"
       r="2"
       gradientTransform="matrix(0.95703547,0,0,0.95703547,-63.065615,4.9004933)" />
    <linearGradient
       id="linearGradient4263">
      <stop
         offset="0"
         style="stop-color:#ffffff;stop-opacity:1"
         id="stop4265" />
      <stop
         offset="0.5"
         style="stop-color:#ffffff;stop-opacity:0.24031007"
         id="stop4279" />
      <stop
         offset="1"
         style="stop-color:#ffffff;stop-opacity:0"
         id="stop4267" />
    </linearGradient>
    <radialGradient
       inkscape:collect="always"
       xlink:href="#linearGradient4263"
       id="radialGradient5023"
       gradientUnits="userSpaceOnUse"
       cx="18"
       cy="18"
       fx="18"
       fy="18"
       r="2"
       gradientTransform="matrix(1.9140709,0,0,1.9140709,-19.608281,42.771913)" />
    <radialGradient
       inkscape:collect="always"
       xlink:href="#linearGradient4263"
       id="radialGradient5025"
       gradientUnits="userSpaceOnUse"
       cx="18"
       cy="18"
       fx="18"
       fy="18"
       r="2"
       gradientTransform="matrix(1.4355532,0,0,1.4355532,-10.973255,5.5415425)" />
    <radialGradient
       inkscape:collect="always"
       xlink:href="#linearGradient4263"
       id="radialGradient5027"
       gradientUnits="userSpaceOnUse"
       cx="18"
       cy="18"
       fx="18"
       fy="18"
       r="2"
       gradientTransform="matrix(0.95703547,0,0,0.95703547,-67.71341,15.305524)" />
    <radialGradient
       inkscape:collect="always"
       xlink:href="#linearGradient4519"
       id="radialGradient5037"
       gradientUnits="userSpaceOnUse"
       gradientTransform="matrix(1.0208009,-4.2332958e-8,4.2837798e-8,1.0329745,-79.540411,10.872572)"
       cx="52.148148"
       cy="43.851852"
       fx="52.148148"
       fy="43.851852"
       r="32" />
    <linearGradient
       id="linearGradient4519">
      <stop
         id="stop4521"
         style="stop-color:#e4bc7a;stop-opacity:1;"
         offset="0" />
      <stop
         id="stop4523"
         style="stop-color:#342a1b;stop-opacity:1;"
         offset="1" />
    </linearGradient>
    <linearGradient
       inkscape:collect="always"
       xlink:href="#linearGradient3812-3"
       id="linearGradient5039"
       gradientUnits="userSpaceOnUse"
       gradientTransform="matrix(0,0.95703547,-0.95703547,0,24.415355,0.66235648)"
       x1="21"
       y1="43.000004"
       x2="75"
       y2="43.000004" />
    <linearGradient
       id="linearGradient3812-3">
      <stop
         offset="0"
         style="stop-color:#a49265;stop-opacity:1"
         id="stop3814-7" />
      <stop
         offset="1"
         style="stop-color:#ece8df;stop-opacity:1"
         id="stop3816-2" />
    </linearGradient>
    <linearGradient
       inkscape:collect="always"
       xlink:href="#linearGradient4025-3"
       id="linearGradient5041"
       gradientUnits="userSpaceOnUse"
       x1="59.578266"
       y1="22.91832"
       x2="28.571617"
       y2="87.367798" />
    <linearGradient
       id="linearGradient4025-3">
      <stop
         offset="0"
         style="stop-color:#a18a56;stop-opacity:1"
         id="stop4027-1" />
      <stop
         offset="1"
         style="stop-color:#a18a56;stop-opacity:0"
         id="stop4029-23" />
    </linearGradient>
    <filter
       style="color-interpolation-filters:sRGB"
       id="filter4045-7">
      <feGaussianBlur
         stdDeviation="0.46710064"
         id="feGaussianBlur4047-8" />
    </filter>
    <filter
       style="color-interpolation-filters:sRGB"
       id="filter4057-4">
      <feGaussianBlur
         stdDeviation="0.4121875"
         id="feGaussianBlur4059-9" />
    </filter>
    <filter
       style="color-interpolation-filters:sRGB"
       id="filter4082-7">
      <feGaussianBlur
         stdDeviation="0.3846875"
         id="feGaussianBlur4084-2" />
    </filter>
    <linearGradient
       inkscape:collect="always"
       xlink:href="#linearGradient3737"
       id="linearGradient5043"
       gradientUnits="userSpaceOnUse"
       x1="64.995598"
       y1="-0.90906203"
       x2="64.995598"
       y2="55.535763"
       gradientTransform="matrix(0.56223108,0,0,0.35412521,-52.719962,23.376288)" />
    <linearGradient
       inkscape:collect="always"
       xlink:href="#linearGradient3814-9"
       id="linearGradient5045"
       gradientUnits="userSpaceOnUse"
       gradientTransform="matrix(-0.91906412,0.26690455,0.26690455,0.91906412,43.976352,20.08572)"
       x1="39.819206"
       y1="13.055696"
       x2="44.586384"
       y2="29.471077" />
    <linearGradient
       id="linearGradient3814-9">
      <stop
         offset="0"
         style="stop-color:#e2e1ed;stop-opacity:1"
         id="stop3816-9" />
      <stop
         offset="1"
         style="stop-color:#e2e1ed;stop-opacity:0"
         id="stop3818-8" />
    </linearGradient>
    <linearGradient
       inkscape:collect="always"
       xlink:href="#linearGradient3814-9"
       id="linearGradient5047"
       gradientUnits="userSpaceOnUse"
       gradientTransform="matrix(0.95703547,0,0,0.95703547,-72.245232,2.5764236)"
       x1="35.83757"
       y1="56.923836"
       x2="35.83757"
       y2="89.995026" />
    <linearGradient
       inkscape:collect="always"
       xlink:href="#linearGradient3814-9"
       id="linearGradient5049"
       gradientUnits="userSpaceOnUse"
       gradientTransform="matrix(0.95703547,0,0,0.95703547,-20.299741,20.983251)"
       x1="45.966625"
       y1="28.94561"
       x2="45.966625"
       y2="48.086025" />
    <linearGradient
       inkscape:collect="always"
       xlink:href="#linearGradient3814-9"
       id="linearGradient964"
       gradientUnits="userSpaceOnUse"
       gradientTransform="matrix(-0.95703547,0,0,0.95703547,-11.283442,39.302656)"
       x1="45.966625"
       y1="28.94561"
       x2="45.966625"
       y2="48.086025" />
  </defs>
  <sodipodi:namedview
     id="base"
     pagecolor="#ffffff"
     bordercolor="#666666"
     borderopacity="1.0"
     inkscape:pageopacity="0.0"
     inkscape:pageshadow="2"
     inkscape:zoom="2.3126679"
     inkscape:cx="2.8852644"
     inkscape:cy="44.557005"
     inkscape:document-units="px"
     inkscape:current-layer="g1131"
     showgrid="false"
     inkscape:showpageshadow="false"
     units="px"
     inkscape:lockguides="false"
     inkscape:window-width="1280"
     inkscape:window-height="971"
     inkscape:window-x="0"
     inkscape:window-y="25"
     inkscape:window-maximized="1"
     inkscape:snap-global="false" />
  <metadata
     id="metadata1069">
    <rdf:RDF>
      <cc:Work
         rdf:about="">
        <dc:format>image/svg+xml</dc:format>
        <dc:type
           rdf:resource="http://purl.org/dc/dcmitype/StillImage" />
        <dc:title></dc:title>
        <dc:date>2017</dc:date>
        <dc:creator>
          <cc:Agent>
            <dc:title>Cristian Pozzessere &quot;ilnanny&quot;</dc:title>
          </cc:Agent>
        </dc:creator>
        <dc:subject>
          <rdf:Bag>
            <rdf:li>Global language</rdf:li>
          </rdf:Bag>
        </dc:subject>
        <dc:description>Playing with Inkscape on Gnu/Linux O. S.</dc:description>
        <dc:contributor>
          <cc:Agent>
            <dc:title>In the night, alone like a dog.</dc:title>
          </cc:Agent>
        </dc:contributor>
        <cc:license
           rdf:resource="http://creativecommons.org/licenses/by-sa/4.0/" />
      </cc:Work>
      <cc:License
         rdf:about="http://creativecommons.org/licenses/by-sa/4.0/">
        <cc:permits
           rdf:resource="http://creativecommons.org/ns#Reproduction" />
        <cc:permits
           rdf:resource="http://creativecommons.org/ns#Distribution" />
        <cc:requires
           rdf:resource="http://creativecommons.org/ns#Notice" />
        <cc:requires
           rdf:resource="http://creativecommons.org/ns#Attribution" />
        <cc:permits
           rdf:resource="http://creativecommons.org/ns#DerivativeWorks" />
        <cc:requires
           rdf:resource="http://creativecommons.org/ns#ShareAlike" />
      </cc:License>
    </rdf:RDF>
  </metadata>
  <g
     inkscape:label="Livello 1"
     inkscape:groupmode="layer"
     id="layer1"
     transform="translate(0,-1026.5197)">
    <g
       transform="translate(-0.14895645,1026.1047)"
       style="display:inline"
       id="g2574">
      <path
         inkscape:connector-curvature="0"
         id="path3288"
         d="M 89.29181,0.415026 H 7.0060911 c -3.798848,0 -6.8571352,3.058285 -6.8571352,6.8571399 V 89.557884 c 0,3.798857 3.0582872,6.857142 6.8571352,6.857142 H 89.29181 c 3.798857,0 6.857147,-3.058285 6.857147,-6.857142 V 7.2721659 c 0,-3.7988549 -3.05829,-6.8571399 -6.857147,-6.8571399 z"
         style="display:inline;opacity:0.15;fill:#000000;fill-opacity:1;fill-rule:nonzero;stroke:none" />
      <path
         style="display:inline;opacity:0.15;fill:#000000;fill-opacity:1;fill-rule:nonzero;stroke:none"
         d="M 88.648954,1.165026 H 7.6489471 c -3.739492,0 -6.749993,3.010499 -6.749993,6.7499969 V 88.915026 c 0,3.739501 3.010501,6.75 6.749993,6.75 H 88.648954 c 3.739503,0 6.750003,-3.010499 6.750003,-6.75 V 7.9150229 c 0,-3.7394979 -3.0105,-6.7499969 -6.750003,-6.7499969 z"
         id="path4085"
         inkscape:connector-curvature="0" />
      <path
         inkscape:connector-curvature="0"
         id="rect4251-1"
         d="M 88.006093,1.915026 H 8.2918111 c -3.680143,0 -6.6428566,2.962713 -6.6428566,6.6428549 V 88.272171 c 0,3.680142 2.9627136,6.642856 6.6428566,6.642856 H 88.006093 c 3.680143,0 6.642854,-2.962714 6.642854,-6.642856 V 8.5578809 c 0,-3.6801419 -2.962711,-6.6428549 -6.642854,-6.6428549 z"
         style="display:inline;fill:url(#linearGradient4071);fill-opacity:1;fill-rule:nonzero;stroke:none" />
      <path
         sodipodi:nodetypes="sscccsccscccsss"
         inkscape:connector-curvature="0"
         id="path3400-6"
         d="m 11.390247,6.8021682 c -2.8564964,0 -5.1241284,2.3146876 -5.1241284,5.2304538 v 21.67369 7.322634 40.372561 c 1.0972399,1.70385 2.9688485,2.844058 5.1241284,2.844058 h 4.099303 65.588849 4.099302 c 2.155281,0 4.026889,-1.140208 5.124129,-2.844058 V 41.028946 33.706312 12.032622 c 0,-2.9157662 -2.267632,-5.2304538 -5.124129,-5.2304538 z"
         style="display:inline;opacity:0.77864583;fill:#0084c8;fill-opacity:1;fill-rule:nonzero;stroke:none;stroke-width:1.03540373" />
      <g
         transform="matrix(1.0260227,0,0,1.0260227,64.16203,-3.4683662)"
         id="g1131">
        <path
           inkscape:connector-curvature="0"
           d="m -43.924906,22.127132 a 1.9140709,1.9140709 0 1 1 -3.828141,0 1.9140709,1.9140709 0 1 1 3.828141,0 z"
           id="path4261"
           style="color:#000000;display:inline;overflow:visible;visibility:visible;fill:url(#radialGradient5021);fill-opacity:1;fill-rule:nonzero;stroke:none;stroke-width:1.43555319;marker:none;enable-background:accumulate" />
        <path
           inkscape:connector-curvature="0"
           d="m 18.673137,77.225189 a 3.828142,3.828142 0 1 1 -7.656284,0 3.828142,3.828142 0 1 1 7.656284,0 z"
           id="path4275"
           style="color:#000000;display:inline;overflow:visible;visibility:visible;fill:url(#radialGradient5023);fill-opacity:1;fill-rule:nonzero;stroke:none;stroke-width:2.87110639;marker:none;enable-background:accumulate" />
        <path
           inkscape:connector-curvature="0"
           d="m 17.737809,31.3815 a 2.8711065,2.8711065 0 1 1 -5.742213,0 2.8711065,2.8711065 0 1 1 5.742213,0 z"
           id="path4281"
           style="color:#000000;display:inline;overflow:visible;visibility:visible;fill:url(#radialGradient5025);fill-opacity:1;fill-rule:nonzero;stroke:none;stroke-width:2.15332985;marker:none;enable-background:accumulate" />
        <path
           inkscape:connector-curvature="0"
           d="m -48.572701,32.532162 a 1.9140709,1.9140709 0 1 1 -3.828141,0 1.9140709,1.9140709 0 1 1 3.828141,0 z"
           id="path4285"
           style="color:#000000;display:inline;overflow:visible;visibility:visible;fill:url(#radialGradient5027);fill-opacity:1;fill-rule:nonzero;stroke:none;stroke-width:1.43555319;marker:none;enable-background:accumulate" />
        <path
           style="color:#000000;display:inline;overflow:visible;visibility:visible;fill:url(#linearGradient964);fill-opacity:1;fill-rule:nonzero;stroke:none;stroke-width:1.43555319;marker:none;enable-background:accumulate"
           id="path962"
           inkscape:connector-curvature="0"
           d="m -55.576242,60.08827 c 0.947695,0.380717 1.81475,0.86946 2.60194,1.495367 0.462402,-0.486636 1.100065,-0.807498 1.824349,-0.807498 1.401674,0 2.542126,1.140452 2.542126,2.542125 0,0.01027 1.24e-4,0.01967 0,0.02991 0.99123,0.06516 1.940025,0.25533 2.841199,0.568239 0.526631,-0.609682 1.314381,-0.986942 2.183239,-0.986942 1.566474,0 2.839823,1.252308 2.871106,2.811291 0.0416,-0.0021 0.07749,-0.02991 0.11963,-0.02991 1.151954,0 2.127779,0.832482 2.362681,1.914071 2.348163,0.158912 4.366592,1.454522 5.532861,3.349624 0.471436,-0.1994 0.981205,-0.299074 1.525276,-0.299074 2.176282,0 3.947771,1.771489 3.947771,3.947772 0,2.176282 -1.771489,3.917864 -3.947771,3.917864 -0.5113,0 -0.987278,-0.09194 -1.435554,-0.269167 -1.2308,2.089478 -3.500609,3.469254 -6.101101,3.469254 -0.840054,0 -1.644974,-0.150169 -2.392588,-0.418703 -1.996199,2.306777 -4.934516,3.768327 -8.224526,3.768327 -12.599755,2.087177 -7.148386,-30.290473 -6.250638,-25.00255 z"
           sodipodi:nodetypes="ccssccscsccssscsccc" />
        <path
           style="color:#000000;display:inline;overflow:visible;visibility:visible;fill:url(#radialGradient5037);fill-opacity:1;fill-rule:nonzero;stroke:none;stroke-width:1.21124804;marker:none;enable-background:accumulate"
           id="path3695"
           d="m 9.1027822,46.600059 a 25.839959,25.839959 0 1 1 -51.6799172,0 25.839959,25.839959 0 1 1 51.6799172,0 z"
           inkscape:connector-curvature="0" />
        <path
           style="color:#000000;display:inline;overflow:visible;visibility:visible;opacity:0.6;fill:url(#linearGradient5039);fill-opacity:1;fill-rule:nonzero;stroke:none;stroke-width:1.43555319;marker:none;enable-background:accumulate"
           id="path3695-8"
           inkscape:connector-curvature="0"
           d="m 9.1027832,46.600059 c 0,-14.271015 -11.5689423,-25.839958 -25.8399572,-25.839958 -14.271016,0 -25.839958,11.568943 -25.839958,25.839958 0,14.271015 11.568942,25.839958 25.839958,25.839958 14.2710149,0 25.8399572,-11.568943 25.8399572,-25.839958 z m -0.9570354,0 c 0,13.742458 -11.1404642,24.882922 -24.8829218,24.882922 -13.742458,0 -24.882923,-11.140464 -24.882923,-24.882922 0,-13.742458 11.140465,-24.882922 24.882923,-24.882922 13.7424576,0 24.8829218,11.140464 24.8829218,24.882922 z" />
        <path
           transform="matrix(0.95703547,0,0,0.95703547,-62.674877,5.44753)"
           style="opacity:0.4;fill:url(#linearGradient5041);fill-opacity:1;stroke:none;filter:url(#filter4045-7)"
           id="path3907"
           inkscape:connector-curvature="0"
           d="m 41.125,16.875 c -2.630101,0.690191 -5.091436,1.788247 -7.34375,3.1875 -0.685588,0.944015 -1.324069,1.909274 -2,2.8125 -0.448353,0.974739 -1.840597,0.834982 -3,1.1875 -0.06669,0.06767 -0.152773,0.119135 -0.21875,0.1875 -1.587159,2.086129 -3.499806,4.030995 -4.5,6.46875 -1.285455,2.533351 4.17355,2.003438 1.4375,4.5 -1.040132,1.50918 -0.613715,4.813765 1.25,5.875 1.601016,1.56141 -3.18156,3.170417 -1,5.15625 2.037804,0.735887 4.28976,-0.988193 6.21875,-0.25 1.305401,1.421772 -0.798205,3.011322 0.59375,4.34375 -1.770141,-0.07326 -3.575367,0.430797 -2.96875,2.65625 -0.291967,2.750305 4.47922,2.620909 3.875,-0.3125 0.109805,-1.372076 1.504925,-2.798878 2.34375,-0.84375 -0.121232,2.071337 3.797242,0.923911 2.03125,3.25 -3.679952,0.0401 -1.412164,5.562321 0.84375,3.625 0.197855,-2.179228 2.263653,-1.916895 3.53125,-1.0625 3.159889,-0.747172 -0.339503,-4.40457 0.78125,-6.0625 1.160505,0.02707 1.328428,2.549015 2.375,0.3125 1.465887,-2.6601 -0.733259,-4.89604 -3.15625,-5.625 -2.39905,-0.835181 -0.764095,-3.148469 -1,-4.5625 -2.174892,-1.68835 -3.151208,0.849775 -2.96875,2.59375 -2.624287,0.401248 -1.980251,-3.000432 -3.9375,-4.09375 -1.35872,-0.98452 -4.425029,-0.966831 -2.5625,-3.5625 1.882879,-0.8553 4.158864,-1.600028 3.46875,-4.25 0.902932,-2.521754 -4.201748,-1.529453 -2.0625,-3.8125 2.726854,-0.04313 4.493802,-2.20369 3.78125,-4.90625 0.618601,-1.876155 3.381203,-1.415663 4.28125,-2.9375 0.24257,0.339366 0.515761,0.675485 0.875,0.90625 0.517494,0.488587 1.331487,0.07499 1.84375,-0.25 0.03671,-0.5471 0.08066,-1.44506 0.9375,-1.25 0.894583,0.08748 1.805269,0.04968 2.65625,-0.1875 0.132435,-0.626976 -0.828572,-1.41793 -1.59375,-1.34375 -0.690888,0.2469 -1.575433,-0.278904 -2.125,0.25 -0.683608,5.91e-4 -1.378892,1.85e-4 -2.0625,0 0.03031,-0.719645 -0.215572,-1.434032 -0.625,-2 z m 12.15625,2.875 c -0.49783,0.141269 -0.77761,0.558057 -0.6875,1.09375 0.281817,0.502926 0.655379,0.804761 1,1.46875 0.725532,0.77285 1.171906,1.606179 1.5625,2.5625 0.679147,0.636154 0.924962,2.058217 2.125,1.78125 0.892259,-0.137057 1.751122,0.04415 2.625,0.1875 0.817318,-0.115946 1.519086,1.011445 2.34375,0.5625 1.218771,0.20939 1.179599,-1.245059 0.53125,-1.875 -0.727645,-0.829026 -2.018925,-0.218679 -3,-0.40625 -0.674295,0.40594 -2.768203,0.259163 -1.96875,-0.8125 0.06822,-1.344825 -0.958201,-2.078481 -2.21875,-2.21875 C 54.8782,21.754621 55.38299,21.472207 55.8125,21.25 55.966804,19.946504 54.177616,20.00739 53.28125,19.75 Z M 50.375,22.5625 c -1.769141,0.208149 -1.56966,3.320817 -2.53125,4.46875 -1.781415,0.710714 -2.789571,-1.270952 -2.53125,-2.625 -0.953571,-0.686659 -1.393914,-0.983804 -1.625,0.28125 -1.481128,0.995809 -2.779537,-1.901827 -4.40625,-1.28125 1.650433,-0.293359 -2.379296,1.441133 -0.96875,2.65625 0.882566,1.33371 0.547806,2.809625 -1.21875,2.78125 -1.7682,0.779809 -0.9348,2.371552 0.625,2.375 1.927772,2.271602 -2.146198,3.93859 -0.96875,6.40625 0.829099,2.813717 4.293621,-0.08276 2.75,-2.125 -0.63476,-3.10378 3.516721,-2.051905 3.1875,0.46875 1.097519,0.714628 4.24373,0.757575 2.8125,3.125 -1.989848,0.413595 -1.634938,3.006853 0,3.65625 -1.273387,0.81022 -1.070396,4.5212 0.6875,2.59375 2.55027,-2.293965 2.238448,3.344948 5.03125,1.8125 1.476046,-2.155094 -1.922476,-3.293673 -2.9375,-4.71875 -1.695694,-2.320236 3.513393,-1.258113 1.46875,-3.21875 -2.216777,-1.074422 -0.915227,-3.662476 1.28125,-2.625 2.597876,0.488165 -1.249792,-3.775239 1.46875,-2.65625 0.214769,1.835369 3.629602,1.425826 1.59375,-0.375 -0.552584,-2.038676 2.837465,-3.72511 0.75,-5.875 C 52.34479,26.944576 52.890566,24.054146 51.25,22.65625 50.907174,22.552954 50.627734,22.532764 50.375,22.5625 Z m 14.5,9.1875 c -0.159178,0.0062 -0.352477,0.04505 -0.53125,0.09375 -1.136166,1.200973 -2.450606,1.577632 -4.0625,1.125 -0.453339,-0.253393 -1.492458,-0.720511 -1.90625,-0.5625 -1.601394,-0.157183 -1.201009,1.584828 -1.375,2.40625 -1.083557,0.169035 -1.858615,0.989385 -0.90625,1.96875 0.594657,1.888 -1.750095,0.547452 -2.5625,0.75 -1.542901,0.590516 0.945234,1.323628 -0.34375,2.1875 -1.148895,0.115664 -3.084109,1.538809 -1.625,2.46875 1.059642,0.318947 3.365937,-0.856163 3,1.28125 -0.631074,1.457681 2.555896,3.103532 1.90625,0.90625 -0.553648,-1.030964 -1.964814,-3.649478 0.34375,-3.125 0.43383,0.710752 0.811435,1.161934 1.875,0.78125 0.294337,-1.511991 2.424562,-1.123197 3.4375,-0.40625 1.814834,0.381382 0.407292,-2.753929 2.3125,-2.9375 1.284082,-1.052793 0.568742,-3.004553 -0.75,-3.625 0.192352,-1.517215 2.591074,-1.418626 3.6875,-1.6875 -0.73147,-0.757193 -1.385752,-1.668208 -2.5,-1.625 z m 9.78125,7 c -0.25994,0.02868 -0.53625,0.300121 -0.6875,0.5 -0.290975,0.598198 -1.000971,0.52622 -1.21875,0.9375 -0.141526,0.378034 -0.495053,0.103173 -0.6875,0.46875 -0.190992,-0.139558 -1.307323,-0.02574 -0.8125,0.25 -0.686197,0.343353 -0.160287,1.299026 -0.3125,1.90625 -0.173032,0.703538 0.449682,1.058172 0.65625,1.625 0.164894,0.176371 0.424371,-0.04738 0.53125,0.3125 0.0051,0.324459 0.591153,0.02429 0.625,0.375 -0.435588,0.208293 0.822731,0.487097 0.875,0 0.285348,-0.363186 0.636657,-1.014653 0.96875,-1.40625 C 74.657,43.572231 74.822821,43.516955 75,43.46875 75.0027,43.310623 75,43.158778 75,43 75,41.557164 74.874205,40.131577 74.65625,38.75 Z m -8.1875,0.875 c -0.379961,0.04703 -0.733594,0.293261 -0.875,0.75 -0.497161,0.769009 -0.637857,2.066548 -1.75,2.09375 -0.565353,0.263697 -1.069569,0.833672 -1.75,0.75 -0.853113,-0.527825 -2.050569,-0.578786 -2.90625,-0.03125 -0.979637,0.626591 0.920951,1.64524 -0.28125,2 -1.181569,0.04876 -1.29007,1.363851 -0.53125,2.03125 0.782696,0.698177 2.146893,0.712795 2.5625,1.8125 0.276152,0.729315 0.987013,1.463438 0.65625,2.3125 -0.472508,0.902539 -1.536122,0.133068 -2.25,0.4375 -1.029882,0.430939 -0.523316,1.833188 0.53125,1.5 1.213637,0.138306 1.873078,1.52494 1.53125,2.625 -0.05927,0.961604 -1.450639,1.480801 -0.96875,2.5 0.355822,0.698291 1.623059,1.131583 2.03125,0.28125 0.0049,-0.93472 0.773269,-1.64856 0.875,-2.59375 0.161083,-0.882589 0.162057,-1.909684 -0.3125,-2.6875 -0.954862,-0.70967 -0.233236,-1.917683 0.46875,-2.5 0.579353,-0.410831 1.08788,-1.286263 1.625,-1.5 0.57674,0.354217 1.476139,1.663795 1.8125,0.34375 0.423086,-1.033062 0.172364,-2.301686 0.9375,-3.1875 0.510831,-0.513588 2.083862,-0.107235 1.65625,-1.25 C 69.005246,44.579198 67.688633,45.172395 67.6875,44.03125 67.443477,42.743005 68.043921,41.371278 67.5,40.125 c -0.247692,-0.407483 -0.651289,-0.547031 -1.03125,-0.5 z m 8.21875,7.4375 c -0.09061,0.0746 -0.09338,0.09269 -0.3125,0.25 L 74.5625,47.25 c -0.07924,0.07122 -0.07566,0.05184 -0.1875,0.15625 -1.076962,0.994669 -1.656361,2.529228 -2.84375,3.1875 -1.889048,0.0592 -0.738358,-2.535049 -2,-3 -1.647316,0.06331 -0.882766,2.233296 -1.8125,3.03125 -1.08203,0.629022 -2.498698,1.726224 -1.15625,2.9375 0.876005,1.046739 0.495851,2.491589 0.34375,3.71875 -0.571705,0.717294 -0.305346,2.418257 0.84375,1.5625 0.395003,-1.24068 -0.227373,-2.968437 1,-3.90625 0.759731,-1.188761 2.482549,-0.540261 3.59375,-1.15625 0.141322,0.04149 0.251629,0.04979 0.375,0.0625 0.922843,-2.099956 1.605799,-4.317103 1.96875,-6.65625 l -0.09375,0.03125 c 0.0398,-0.03553 0.05177,-0.05233 0.09375,-0.09375 0.003,-0.01994 -0.003,-0.04254 0,-0.0625 z" />
        <path
           transform="matrix(0.95703547,0,0,0.95703547,-62.674877,5.44753)"
           style="color:#000000;display:inline;overflow:visible;visibility:visible;opacity:0.4;fill:#a18a56;fill-opacity:1;fill-rule:nonzero;stroke:none;stroke-width:1.5;marker:none;filter:url(#filter4057-4);enable-background:accumulate"
           id="path3986"
           inkscape:connector-curvature="0"
           d="m 62.25,24.09375 c -0.762098,0 -1.375,0.612902 -1.375,1.375 0,0.762098 0.612902,1.375 1.375,1.375 0.762098,0 1.375,-0.612902 1.375,-1.375 0,-0.762098 -0.612902,-1.375 -1.375,-1.375 z m -20.40625,1.625 c -0.628797,0.128671 -1.09375,0.708164 -1.09375,1.375 0,0.762098 0.612902,1.375 1.375,1.375 0.762098,0 1.375,-0.612902 1.375,-1.375 0,-0.762098 -0.612902,-1.375 -1.375,-1.375 -0.09526,0 -0.191422,-0.01838 -0.28125,0 z M 31.90625,25.875 C 31.413128,25.875 31,26.256878 31,26.75 c 0,0.493122 0.413128,0.90625 0.90625,0.90625 0.493122,0 0.875,-0.413128 0.875,-0.90625 0,-0.493122 -0.381878,-0.875 -0.875,-0.875 z m 28,2.59375 c -0.806927,0 -1.46875,0.661823 -1.46875,1.46875 0,0.806927 0.661823,1.4375 1.46875,1.4375 0.806927,0 1.46875,-0.630573 1.46875,-1.4375 0,-0.806927 -0.661823,-1.46875 -1.46875,-1.46875 z m -3.96875,2.75 c -0.403464,0 -0.75,0.346536 -0.75,0.75 0,0.403464 0.346536,0.71875 0.75,0.71875 0.403464,0 0.71875,-0.315286 0.71875,-0.71875 0,-0.403464 -0.315286,-0.75 -0.71875,-0.75 z M 45.875,31.375 c -0.403464,0 -0.75,0.346536 -0.75,0.75 0,0.403464 0.346536,0.71875 0.75,0.71875 0.403464,0 0.71875,-0.315286 0.71875,-0.71875 0,-0.403464 -0.315286,-0.75 -0.71875,-0.75 z m -15.4375,0.5 c -1.031074,0 -1.875,0.843926 -1.875,1.875 0,1.031074 0.843926,1.84375 1.875,1.84375 1.031074,0 1.875,-0.812676 1.875,-1.84375 0,-1.031074 -0.843926,-1.875 -1.875,-1.875 z m 38,4.875 c -0.582781,0 -1.0625,0.479719 -1.0625,1.0625 0,0.582781 0.479719,1.03125 1.0625,1.03125 0.582781,0 1.03125,-0.448469 1.03125,-1.03125 0,-0.582781 -0.448469,-1.0625 -1.03125,-1.0625 z M 37.34375,39.5 c -0.62761,0 -1.15625,0.52864 -1.15625,1.15625 0,0.62761 0.52864,1.125 1.15625,1.125 0.62761,0 1.125,-0.49739 1.125,-1.125 0,-0.62761 -0.49739,-1.15625 -1.125,-1.15625 z m 26.375,0.65625 c -0.851757,0 -1.53125,0.679493 -1.53125,1.53125 0,0.851757 0.679493,1.5625 1.53125,1.5625 0.851757,0 1.53125,-0.710743 1.53125,-1.5625 0,-0.851757 -0.679493,-1.53125 -1.53125,-1.53125 z m -34.6875,3.25 c -0.435212,0 -0.78125,0.199774 -0.78125,0.46875 0,0.268976 0.346038,0.5 0.78125,0.5 0.435212,0 0.78125,-0.231024 0.78125,-0.5 0,-0.268976 -0.346038,-0.46875 -0.78125,-0.46875 z m 9.59375,2.75 c -0.717269,0 -1.28125,0.595231 -1.28125,1.3125 0,0.717269 0.563981,1.28125 1.28125,1.28125 0.717269,0 1.3125,-0.563981 1.3125,-1.28125 0,-0.717269 -0.595231,-1.3125 -1.3125,-1.3125 z M 28.5,47.9375 c -0.493122,0 -0.90625,0.413128 -0.90625,0.90625 0,0.493122 0.413128,0.875 0.90625,0.875 0.493122,0 0.875,-0.381878 0.875,-0.875 0,-0.493122 -0.381878,-0.90625 -0.875,-0.90625 z m 29.375,0 c -0.493122,0 -0.90625,0.413128 -0.90625,0.90625 0,0.493122 0.413128,0.875 0.90625,0.875 0.493122,0 0.90625,-0.381878 0.90625,-0.875 0,-0.493122 -0.413128,-0.90625 -0.90625,-0.90625 z m -4.3125,0.5 c -0.806927,0 -1.4375,0.661823 -1.4375,1.46875 0,0.806927 0.630573,1.4375 1.4375,1.4375 0.806927,0 1.46875,-0.630573 1.46875,-1.4375 0,-0.806927 -0.661823,-1.46875 -1.46875,-1.46875 z m 4.0625,6.15625 c -0.448293,0 -0.8125,0.364207 -0.8125,0.8125 0,0.448293 0.364207,0.8125 0.8125,0.8125 0.448293,0 0.8125,-0.364207 0.8125,-0.8125 0,-0.448293 -0.364207,-0.8125 -0.8125,-0.8125 z M 29.78125,55.25 c -0.851757,0 -1.53125,0.679493 -1.53125,1.53125 0,0.851757 0.679493,1.5625 1.53125,1.5625 0.851757,0 1.5625,-0.710743 1.5625,-1.5625 0,-0.851757 -0.710743,-1.53125 -1.5625,-1.53125 z m 5.375,3.09375 c -0.403464,0 -0.75,0.315286 -0.75,0.71875 0,0.403464 0.346536,0.75 0.75,0.75 0.403464,0 0.71875,-0.346536 0.71875,-0.75 0,-0.403464 -0.315286,-0.71875 -0.71875,-0.71875 z m 17.6875,3.875 c -0.672439,0 -1.21875,0.546311 -1.21875,1.21875 0,0.672439 0.546311,1.21875 1.21875,1.21875 0.672439,0 1.21875,-0.546311 1.21875,-1.21875 0,-0.672439 -0.546311,-1.21875 -1.21875,-1.21875 z" />
        <path
           transform="matrix(0.95703547,0,0,0.95703547,-62.674877,5.44753)"
           style="color:#000000;display:inline;overflow:visible;visibility:visible;opacity:0.5;fill:#ffffff;fill-opacity:1;fill-rule:nonzero;stroke:none;stroke-width:1.5;marker:none;filter:url(#filter4082-7);enable-background:accumulate"
           id="path4061"
           inkscape:connector-curvature="0"
           d="m 57.46875,28.46875 c -0.537952,0 -0.96875,0.430798 -0.96875,0.96875 0,0.537952 0.430798,0.96875 0.96875,0.96875 0.537952,0 0.96875,-0.430798 0.96875,-0.96875 0,-0.537952 -0.430798,-0.96875 -0.96875,-0.96875 z M 42.4375,36.25 c -1.210391,0 -2.1875,0.977109 -2.1875,2.1875 0,1.210391 0.977109,2.21875 2.1875,2.21875 1.210391,0 2.21875,-1.008359 2.21875,-2.21875 0,-1.210391 -1.008359,-2.1875 -2.21875,-2.1875 z M 34.5,36.75 c -0.582781,0 -1.0625,0.479719 -1.0625,1.0625 0,0.582781 0.479719,1.03125 1.0625,1.03125 0.582781,0 1.0625,-0.448469 1.0625,-1.03125 0,-0.582781 -0.479719,-1.0625 -1.0625,-1.0625 z m -10.40625,3.09375 c -1.031074,0 -1.84375,0.812676 -1.84375,1.84375 0,1.031074 0.812676,1.875 1.84375,1.875 1.031074,0 1.875,-0.843926 1.875,-1.875 0,-1.031074 -0.843926,-1.84375 -1.875,-1.84375 z M 24.75,45.1875 c -0.672439,0 -1.21875,0.546311 -1.21875,1.21875 0,0.672439 0.546311,1.21875 1.21875,1.21875 0.672439,0 1.21875,-0.546311 1.21875,-1.21875 0,-0.672439 -0.546311,-1.21875 -1.21875,-1.21875 z m 30.4375,0.15625 c -0.537952,0 -0.96875,0.430798 -0.96875,0.96875 0,0.537952 0.430798,1 0.96875,1 0.537952,0 0.96875,-0.462048 0.96875,-1 0,-0.537952 -0.430798,-0.96875 -0.96875,-0.96875 z m -5.84375,7 c -0.806927,0 -1.4375,0.630573 -1.4375,1.4375 0,0.806927 0.630573,1.46875 1.4375,1.46875 0.806927,0 1.46875,-0.661823 1.46875,-1.46875 0,-0.806927 -0.661823,-1.4375 -1.46875,-1.4375 z m -3.96875,6.8125 c -1.389708,0 -2.53125,1.110292 -2.53125,2.5 0,1.389708 1.141542,2.53125 2.53125,2.53125 1.389708,0 2.53125,-1.141542 2.53125,-2.53125 0,-1.389708 -1.141542,-2.5 -2.53125,-2.5 z m 15.5,0.46875 c -0.806927,0 -1.46875,0.661823 -1.46875,1.46875 0,0.806927 0.661823,1.46875 1.46875,1.46875 0.806927,0 1.46875,-0.661823 1.46875,-1.46875 0,-0.806927 -0.661823,-1.46875 -1.46875,-1.46875 z m -21.09375,1.78125 c -1.075903,0 -1.96875,0.892847 -1.96875,1.96875 0,1.075903 0.892847,1.9375 1.96875,1.9375 1.075903,0 1.9375,-0.861597 1.9375,-1.9375 0,-1.075903 -0.861597,-1.96875 -1.9375,-1.96875 z" />
        <path
           style="color:#000000;display:inline;overflow:visible;visibility:visible;opacity:0.5;fill:url(#linearGradient5043);fill-opacity:1;fill-rule:nonzero;stroke:none;stroke-width:0.66930968;marker:none;enable-background:accumulate"
           id="path4086"
           d="m 1.2542217,34.708295 a 17.991395,11.332007 0 1 1 -35.9827887,0 17.991395,11.332007 0 1 1 35.9827887,0 z"
           inkscape:connector-curvature="0" />
        <path
           sodipodi:nodetypes="csccccsccscsccccccccsccsccccsccc"
           d="m -2.2134013,41.409961 c 1.31063711,-0.38062 2.6871441,0.352181 3.06776476,1.662819 0.25148214,0.865957 0.015772,1.757201 -0.55663575,2.372803 0.56135202,0.458099 1.04291789,1.010763 1.44083409,1.637008 0.6462641,-0.451589 1.3364139,-0.844155 2.0984257,-1.138833 -0.066571,-0.133974 -0.1393587,-0.265397 -0.1825526,-0.41413 -0.3909079,-1.346062 0.3862384,-2.759322 1.7322992,-3.150229 0.9862471,-0.286415 2.0001812,0.06258 2.6285362,0.793798 0.6856758,-1.281848 1.8466852,-2.308014 3.3360957,-2.775126 -0.34976,-1.204369 0.344509,-2.466915 1.548878,-2.816675 1.134028,-0.329332 2.30296,0.279968 2.72957,1.356175 0.310337,-0.225752 0.671943,-0.41314 1.061725,-0.526336 1.806554,-0.524639 3.700372,0.516764 4.225013,2.323318 0.01719,0.05918 0.0075,0.121354 0.02132,0.180666 0.537762,-0.234312 1.084835,-0.439618 1.661162,-0.606989 3.813875,-5.94509 2.716456,26.489577 -4.592451,25.687506 -0.559873,0.591118 -1.275828,1.055657 -2.114164,1.299118 -2.230884,0.647867 -4.550454,-0.399591 -5.556397,-2.403817 -0.02824,0.0084 -0.0578,0.01679 -0.08616,0.02502 -3.3208728,0.964411 -6.717966,0.116765 -9.1900824,-1.940279 -0.81794085,1.533099 -2.2359688,2.735925 -4.0364894,3.258813 -3.2509117,0.944095 -6.6551969,-0.677391 -7.9857752,-3.691455 -0.381227,0.217419 -0.773676,0.411541 -1.213668,0.539318 -3.010924,0.874399 -6.167289,-0.861272 -7.041689,-3.872197 -0.874399,-3.010925 0.861273,-6.16729 3.872198,-7.041689 0.314739,-0.09141 0.629942,-0.145111 0.944086,-0.180743 0.321726,-0.582005 0.834138,-1.020816 1.486005,-1.210123 0.674073,-0.195757 1.380421,-0.07864 1.977167,0.266673 -0.123336,-3.085836 1.8458137,-5.986064 4.9450937,-6.886123 0.6744516,-0.195867 1.348574,-0.252725 2.0160383,-0.242903 -0.061126,-1.121853 0.6386154,-2.178611 1.7638517,-2.50539 z"
           inkscape:connector-curvature="0"
           id="path3870"
           style="color:#000000;display:inline;overflow:visible;visibility:visible;fill:url(#linearGradient5045);fill-opacity:1;fill-rule:nonzero;stroke:none;stroke-width:1.43555319;marker:none;enable-background:accumulate" />
        <path
           sodipodi:nodetypes="ccsccccscscscsssccscscscssccscc"
           d="m -43.05565,53.598377 c -0.909612,0 -1.749921,0.292462 -2.422496,0.777591 -0.555123,-0.08558 -1.12564,-0.149536 -1.704719,-0.149536 -2.530152,0 -4.833423,0.876204 -6.699249,2.302866 -0.21552,-0.03406 -6.938686,-5.05721 -2.950039,-2.107171 -4.254751,3.076416 -1.096237,30.28312 5.522072,30.399527 2.666264,0 4.985834,-1.39925 6.310453,-3.499161 1.953397,1.761875 4.549396,2.841199 7.387117,2.841199 3.842495,0 7.209332,-1.983015 9.181559,-4.964621 1.238561,0.929423 2.758591,1.495368 4.426289,1.495368 2.607898,0 4.899234,-1.373647 6.220731,-3.409439 0.663385,0.532269 1.47589,0.867313 2.392589,0.867313 1.253038,0 2.372404,-0.602457 3.080458,-1.525275 0.308809,0.194501 0.684749,0.328981 1.076665,0.328981 1.106583,0 2.0037925,-0.897209 2.0037925,-2.003793 0,-1.106584 -0.8972095,-2.003793 -2.0037925,-2.003793 -0.172904,0 -0.348375,0.01863 -0.508426,0.05982 -0.485533,-1.393483 -1.741605,-2.417841 -3.259902,-2.572033 -0.08252,-1.290146 -1.14142,-2.302867 -2.452403,-2.302867 -0.364818,0 -0.705157,0.06744 -1.01685,0.209352 -1.357403,-1.515455 -3.338246,-2.482311 -5.532862,-2.482311 -0.980436,0 -1.894874,0.192616 -2.751477,0.538332 -0.214622,-2.27145 -2.12858,-4.0674 -4.456196,-4.0674 -0.268139,0 -0.522429,0.04451 -0.777591,0.08972 0.03069,-0.208312 0.05981,-0.411213 0.05981,-0.628055 0,-2.397598 -1.968875,-4.336567 -4.366474,-4.336567 -0.899099,0 -1.72963,0.249686 -2.422496,0.717777 -0.119301,-0.141238 -0.232783,-0.283641 -0.358888,-0.418703 0.0116,-0.117978 0.02991,-0.238031 0.02991,-0.358888 0,-2.102509 -1.794417,-3.798235 -4.007586,-3.798235 z"
           inkscape:connector-curvature="0"
           id="path3739"
           style="color:#000000;display:inline;overflow:visible;visibility:visible;fill:url(#linearGradient5047);fill-opacity:1;fill-rule:nonzero;stroke:none;stroke-width:1.43564069;stroke-miterlimit:4;stroke-dasharray:none;marker:none;enable-background:accumulate" />
        <path
           sodipodi:nodetypes="ccssccscsccssscsccc"
           d="m 23.993059,41.768865 c -0.947695,0.380717 -1.81475,0.86946 -2.60194,1.495367 -0.462402,-0.486636 -1.100065,-0.807498 -1.824349,-0.807498 -1.401674,0 -2.542126,1.140452 -2.542126,2.542125 0,0.01027 -1.24e-4,0.01967 0,0.02991 -0.99123,0.06516 -1.940025,0.25533 -2.841199,0.568239 -0.526631,-0.609682 -1.314381,-0.986942 -2.183239,-0.986942 -1.566474,0 -2.8398226,1.252308 -2.8711062,2.811291 -0.041602,-0.0021 -0.077491,-0.02991 -0.1196294,-0.02991 -1.1519539,0 -2.1277789,0.832482 -2.3626813,1.914071 -2.3481631,0.158912 -4.3665921,1.454522 -5.5328613,3.349624 -0.47143572,-0.1994 -0.98120449,-0.299074 -1.52527533,-0.299074 -2.17628237,0 -3.94777127,1.771489 -3.94777127,3.947772 0,2.176282 1.7714889,3.917864 3.94777127,3.917864 0.51130003,0 0.98727779,-0.09194 1.43555323,-0.269167 1.2308002,2.089478 3.5006099,3.469254 6.1011011,3.469254 0.8400541,0 1.6449746,-0.150169 2.3925887,-0.418703 1.9961985,2.306777 4.9345155,3.768327 8.2245255,3.768327 12.599755,2.087177 7.148386,-30.290473 6.250638,-25.00255 z"
           inkscape:connector-curvature="0"
           id="path3772"
           style="color:#000000;display:inline;overflow:visible;visibility:visible;fill:url(#linearGradient5049);fill-opacity:1;fill-rule:nonzero;stroke:none;stroke-width:1.43555319;marker:none;enable-background:accumulate" />
      </g>
      <path
         style="color:#000000;font-style:normal;font-variant:normal;font-weight:normal;font-stretch:normal;font-size:medium;line-height:normal;font-family:Sans;-inkscape-font-specification:Sans;text-indent:0;text-align:start;text-decoration:none;text-decoration-line:none;letter-spacing:normal;word-spacing:normal;text-transform:none;writing-mode:lr-tb;direction:ltr;baseline-shift:baseline;text-anchor:start;display:inline;overflow:visible;visibility:visible;fill:#241f1f;fill-opacity:0.63265303;stroke:none;stroke-width:2.3755002;marker:none;enable-background:accumulate"
         d="m 9.9740341,5.1444869 c -3.116621,0 -5.667965,2.53951 -5.667965,5.6460041 v 69.277996 c 0,3.106495 2.551344,5.646004 5.667965,5.646004 H 86.765819 c 3.116621,0 5.667968,-2.539509 5.667968,-5.646004 V 10.790491 c 0,-3.1064931 -2.551347,-5.6460041 -5.667968,-5.6460041 z m 0,2.319439 H 86.765819 c 1.888099,0 3.352022,1.480095 3.352022,3.3265651 v 69.277996 c 0,1.846474 -1.463923,3.326564 -3.352022,3.326564 H 9.9740341 c -1.888099,0 -3.352022,-1.48009 -3.352022,-3.326564 V 10.790491 c 0,-1.8464701 1.463923,-3.3265651 3.352022,-3.3265651 z"
         id="path4989"
         inkscape:connector-curvature="0" />
      <path
         id="path4118"
         d="m 1.6489535,82.258776 v 6 c 0,3.680142 2.9761066,6.65625 6.6562496,6.65625 H 87.992703 c 3.680143,0 6.656254,-2.976108 6.656254,-6.65625 v -6 c 0,3.680142 -2.976111,6.65625 -6.656254,6.65625 H 8.3052031 c -3.680143,0 -6.6562496,-2.976108 -6.6562496,-6.65625 z"
         style="display:inline;opacity:0.65818182;fill:url(#linearGradient4129);fill-opacity:1;fill-rule:nonzero;stroke:none"
         inkscape:connector-curvature="0" />
      <rect
         ry="4.25"
         rx="0"
         y="80.665031"
         x="5.5239539"
         height="4.25"
         width="84.250008"
         id="rect4131"
         style="opacity:0.55;fill:url(#radialGradient7462);fill-opacity:1;stroke:none" />
      <rect
         transform="rotate(90)"
         style="opacity:0.669;fill:url(#radialGradient7464);fill-opacity:1;stroke:none"
         id="rect4141"
         width="76.75"
         height="4.25"
         x="5.9750223"
         y="-90.233963"
         rx="0"
         ry="4.25" />
      <rect
         clip-path="url(#clipPath4156-4-1)"
         ry="3.9569881"
         rx="3.9569874"
         y="-30"
         x="2"
         height="69.024437"
         width="75.965775"
         id="rect4146"
         style="opacity:0.5078125;fill:url(#linearGradient4767);fill-opacity:1;stroke:none"
         transform="matrix(1.0692451,0,0,1.0476829,4.4441802,38.894013)" />
    </g>
  </g>
</svg>
