<?xml version="1.0" encoding="UTF-8" standalone="no"?>
<!-- Created with Inkscape (http://www.inkscape.org/) -->

<svg
   xmlns:dc="http://purl.org/dc/elements/1.1/"
   xmlns:cc="http://creativecommons.org/ns#"
   xmlns:rdf="http://www.w3.org/1999/02/22-rdf-syntax-ns#"
   xmlns:svg="http://www.w3.org/2000/svg"
   xmlns="http://www.w3.org/2000/svg"
   xmlns:xlink="http://www.w3.org/1999/xlink"
   xmlns:sodipodi="http://sodipodi.sourceforge.net/DTD/sodipodi-0.dtd"
   xmlns:inkscape="http://www.inkscape.org/namespaces/inkscape"
   width="96"
   height="96"
   id="svg13094"
   version="1.1"
   inkscape:version="0.92.1 r15371"
   sodipodi:docname="subdownloader.svg">
  <sodipodi:namedview
     id="base"
     pagecolor="#fdfdfe"
     bordercolor="#666666"
     borderopacity="1.0"
     inkscape:pageopacity="0.03921569"
     inkscape:pageshadow="2"
     inkscape:zoom="5.6568545"
     inkscape:cx="51.085924"
     inkscape:cy="33.25869"
     inkscape:document-units="px"
     inkscape:current-layer="g3950"
     showgrid="false"
     inkscape:snap-bbox="true"
     inkscape:bbox-paths="true"
     inkscape:bbox-nodes="true"
     inkscape:snap-bbox-edge-midpoints="true"
     inkscape:snap-bbox-midpoints="true"
     inkscape:object-paths="true"
     inkscape:snap-intersection-paths="true"
     inkscape:object-nodes="true"
     inkscape:snap-smooth-nodes="true"
     inkscape:snap-midpoints="true"
     inkscape:snap-object-midpoints="true"
     inkscape:snap-center="true"
     showguides="true"
     inkscape:guide-bbox="true"
     inkscape:window-width="1280"
     inkscape:window-height="963"
     inkscape:window-x="0"
     inkscape:window-y="0"
     inkscape:window-maximized="1"
     inkscape:snap-global="true"
     fit-margin-top="0"
     fit-margin-left="0"
     fit-margin-right="0"
     fit-margin-bottom="0"
     showborder="true"
     inkscape:showpageshadow="false"
     inkscape:snap-page="true">
    <inkscape:grid
       type="xygrid"
       id="grid3075"
       empspacing="5"
       visible="true"
       enabled="true"
       snapvisiblegridlinesonly="true"
       originx="1.6362304e-08"
       originy="18"
       spacingx="1"
       spacingy="1" />
  </sodipodi:namedview>
  <defs
     id="defs13096">
    <linearGradient
       id="linearGradient3921">
      <stop
         style="stop-color:#e2e4e8;stop-opacity:1"
         offset="0"
         id="stop3923" />
      <stop
         style="stop-color:#a4aab2;stop-opacity:1"
         offset="1"
         id="stop3925" />
    </linearGradient>
    <linearGradient
       id="linearGradient3101">
      <stop
         id="stop3103"
         style="stop-color:#ac6840;stop-opacity:1"
         offset="0" />
      <stop
         offset="0.50318682"
         style="stop-color:#8a964a;stop-opacity:1"
         id="stop3109" />
      <stop
         id="stop3105"
         style="stop-color:#418353;stop-opacity:1;"
         offset="1" />
    </linearGradient>
    <linearGradient
       id="linearGradient3886">
      <stop
         id="stop3888"
         offset="0"
         style="stop-color:#ffffff;stop-opacity:0.6738351" />
      <stop
         id="stop3890"
         offset="1"
         style="stop-color:#ffffff;stop-opacity:0.49191985;" />
    </linearGradient>
    <linearGradient
       id="linearGradient5602">
      <stop
         id="stop5604"
         style="stop-color:#475970;stop-opacity:1;"
         offset="0" />
      <stop
         id="stop5606"
         style="stop-color:#343f4f;stop-opacity:1;"
         offset="1" />
    </linearGradient>
    <linearGradient
       inkscape:collect="always"
       xlink:href="#linearGradient3101"
       id="linearGradient3063"
       gradientUnits="userSpaceOnUse"
       gradientTransform="translate(14,-6)"
       x1="32"
       y1="15"
       x2="32"
       y2="64.683334" />
    <radialGradient
       r="43.199203"
       fy="44.892841"
       fx="13.948145"
       cy="44.892841"
       cx="13.948145"
       gradientTransform="matrix(0.97513378,0,0,0.04919072,-4.148257,101.31932)"
       gradientUnits="userSpaceOnUse"
       id="radialGradient3831-7"
       xlink:href="#linearGradient3886"
       inkscape:collect="always" />
    <linearGradient
       inkscape:collect="always"
       xlink:href="#linearGradient3886"
       id="linearGradient4967"
       gradientUnits="userSpaceOnUse"
       x1="2.7713892"
       y1="-28.64156"
       x2="50.527882"
       y2="14.514202" />
    <clipPath
       clipPathUnits="userSpaceOnUse"
       id="clipPath4156-4-6">
      <path
         style="opacity:0.6;fill:#ffffff;fill-opacity:1;stroke:none"
         d="m 27.046336,-55.695463 -14.21366,13.321486 0.06127,0 15.653407,21.770763 10.231384,-10.546177 C 38.561832,-32.30156 27.468089,-54.819245 27.046336,-55.695463 z M 9.6468554,-39.382809 -5.2407289,-25.32124 15.987863,-7.8059573 26.372412,-18.382966 9.6468554,-39.382809 z m 31.4906096,12.951445 -9.741259,9.713584 8.944804,12.4580526 7.780753,-7.5550056 -6.984298,-14.616631 z m -49.8397109,4.378822 -13.7541661,12.9822847 26.2830181,13.84571 0.06127,-0.0617 -0.122531,-0.0617 L 13.598503,-5.4007374 -8.7022409,-22.052595 z m 38.0154159,7.400825 -9.802525,9.7752596 11.579232,9.5594001 7.62759,-7.40083 -8.669108,-11.0087257 -0.735189,-0.925104 z m 20.187073,5.6739697 -7.382526,7.2158 6.187844,8.54179 5.820249,-6.13651996 -4.625567,-9.62107004 z m -32.195166,6.32154 -9.5574606,9.49772 13.6622686,7.1849703 7.933918,-7.6783603 -12.038726,-9.00433 z m 23.311629,2.37443004 -7.10683,6.93826996 8.362778,6.9074403 5.360756,-5.6739699 -0.06127,-0.0925 -0.0919,0.12335 -6.463539,-8.20258036 z m -8.730374,8.54178036 -7.505057,7.3391599 10.353916,5.45811 c 1.397496,-1.32103 5.67514,-6.12292 5.850882,-6.32154 L 31.886332,8.2600031 z"
         id="path4158-0-3"
         inkscape:connector-curvature="0" />
    </clipPath>
    <linearGradient
       y2="14.514202"
       x2="50.527882"
       y1="-28.64156"
       x1="2.7713892"
       gradientUnits="userSpaceOnUse"
       id="linearGradient3837-7"
       xlink:href="#linearGradient3886"
       inkscape:collect="always" />
    <clipPath
       clipPathUnits="userSpaceOnUse"
       id="clipPath4156-4">
      <path
         style="opacity:0.6;fill:#ffffff;fill-opacity:1;stroke:none"
         d="m 27.046336,-55.695463 -14.21366,13.321486 0.06127,0 15.653407,21.770763 10.231384,-10.546177 C 38.561832,-32.30156 27.468089,-54.819245 27.046336,-55.695463 z M 9.6468554,-39.382809 -5.2407289,-25.32124 15.987863,-7.8059573 26.372412,-18.382966 9.6468554,-39.382809 z m 31.4906096,12.951445 -9.741259,9.713584 8.944804,12.4580526 7.780753,-7.5550056 -6.984298,-14.616631 z m -49.8397109,4.378822 -13.7541661,12.9822847 26.2830181,13.84571 0.06127,-0.0617 -0.122531,-0.0617 L 13.598503,-5.4007374 -8.7022409,-22.052595 z m 38.0154159,7.400825 -9.802525,9.7752596 11.579232,9.5594001 7.62759,-7.40083 -8.669108,-11.0087257 -0.735189,-0.925104 z m 20.187073,5.6739697 -7.382526,7.2158 6.187844,8.54179 5.820249,-6.13651996 -4.625567,-9.62107004 z m -32.195166,6.32154 -9.5574606,9.49772 13.6622686,7.1849703 7.933918,-7.6783603 -12.038726,-9.00433 z m 23.311629,2.37443004 -7.10683,6.93826996 8.362778,6.9074403 5.360756,-5.6739699 -0.06127,-0.0925 -0.0919,0.12335 -6.463539,-8.20258036 z m -8.730374,8.54178036 -7.505057,7.3391599 10.353916,5.45811 c 1.397496,-1.32103 5.67514,-6.12292 5.850882,-6.32154 L 31.886332,8.2600031 z"
         id="path4158-0"
         inkscape:connector-curvature="0" />
    </clipPath>
    <linearGradient
       y2="14.514202"
       x2="50.527882"
       y1="-28.64156"
       x1="2.7713892"
       gradientUnits="userSpaceOnUse"
       id="linearGradient3837"
       xlink:href="#linearGradient3886"
       inkscape:collect="always" />
    <filter
       color-interpolation-filters="sRGB"
       id="filter3174-3">
      <feGaussianBlur
         id="feGaussianBlur3176-6"
         stdDeviation="1.71" />
    </filter>
    <linearGradient
       x1="45.447727"
       y1="92.539597"
       x2="45.447727"
       y2="7.0165396"
       id="ButtonShadow-1"
       gradientUnits="userSpaceOnUse"
       gradientTransform="scale(1.0058652,0.994169)">
      <stop
         id="stop3750-9"
         style="stop-color:#000000;stop-opacity:1"
         offset="0" />
      <stop
         id="stop3752-9"
         style="stop-color:#000000;stop-opacity:0.58823532"
         offset="1" />
    </linearGradient>
    <linearGradient
       y2="7.0165396"
       x2="45.447727"
       y1="92.539597"
       x1="45.447727"
       gradientTransform="scale(1.0058652,0.994169)"
       gradientUnits="userSpaceOnUse"
       id="linearGradient3835"
       xlink:href="#ButtonShadow-1"
       inkscape:collect="always" />
    <radialGradient
       r="43.199203"
       fy="44.892841"
       fx="13.948145"
       cy="44.892841"
       cx="13.948145"
       gradientTransform="matrix(0.88832663,0,0,0.04919072,51.887113,-52.752262)"
       gradientUnits="userSpaceOnUse"
       id="radialGradient3833"
       xlink:href="#linearGradient3886"
       inkscape:collect="always" />
    <radialGradient
       r="43.199203"
       fy="44.892841"
       fx="13.948145"
       cy="44.892841"
       cx="13.948145"
       gradientTransform="matrix(0.97513378,0,0,0.04919072,-4.148257,101.31932)"
       gradientUnits="userSpaceOnUse"
       id="radialGradient3831"
       xlink:href="#linearGradient3886"
       inkscape:collect="always" />
    <linearGradient
       id="linearGradient3832-0-6-1-1">
      <stop
         style="stop-color:#000000;stop-opacity:1;"
         offset="0"
         id="stop3834-6-3-7-1" />
      <stop
         id="stop3872-2-4"
         offset="0.1"
         style="stop-color:#000000;stop-opacity:0.58823532;" />
      <stop
         style="stop-color:#000000;stop-opacity:0.58823532;"
         offset="0.89999998"
         id="stop3844-6-2-7-6" />
      <stop
         style="stop-color:#000000;stop-opacity:1;"
         offset="1"
         id="stop3836-5-0-2-9" />
    </linearGradient>
    <linearGradient
       y2="88.171875"
       x2="94.5"
       y1="88.171875"
       x1="1.5"
       gradientTransform="translate(8.0439564,-14.665561)"
       gradientUnits="userSpaceOnUse"
       id="linearGradient3829"
       xlink:href="#linearGradient3832-0-6-1-1"
       inkscape:collect="always" />
    <linearGradient
       id="linearGradient4091-0-3-0-7">
      <stop
         style="stop-color:#ffffff;stop-opacity:1;"
         offset="0"
         id="stop4093-3-6-4-2" />
      <stop
         id="stop4099-6-1-8-3"
         offset="0.80000001"
         style="stop-color:#ffffff;stop-opacity:1;" />
      <stop
         style="stop-color:#ffffff;stop-opacity:0;"
         offset="1"
         id="stop4095-1-0-7-9" />
    </linearGradient>
    <radialGradient
       r="42"
       fy="-27"
       fx="48"
       cy="-27"
       cx="48"
       gradientTransform="matrix(-1.0721726,0,0,-0.87502024,199.46429,-19.125546)"
       gradientUnits="userSpaceOnUse"
       id="radialGradient3827"
       xlink:href="#linearGradient4091-0-3-0-7"
       inkscape:collect="always" />
    <linearGradient
       id="linearGradient6139-0">
      <stop
         id="stop6141-2"
         offset="0"
         style="stop-color:#adb4c1;stop-opacity:1;" />
      <stop
         style="stop-color:#ffffff;stop-opacity:1;"
         offset="0.25"
         id="stop6151-0" />
      <stop
         style="stop-color:#9095aa;stop-opacity:1;"
         offset="0.5"
         id="stop6147-1" />
      <stop
         id="stop6149-4"
         offset="0.75"
         style="stop-color:#fbf9f9;stop-opacity:1;" />
      <stop
         id="stop6143-4"
         offset="1"
         style="stop-color:#adb3c1;stop-opacity:1;" />
    </linearGradient>
    <linearGradient
       y2="47.000011"
       x2="90"
       y1="47.000011"
       x1="6"
       gradientTransform="matrix(1.1071428,0,0,1.1071426,2.9011003,-18.701274)"
       gradientUnits="userSpaceOnUse"
       id="linearGradient3825"
       xlink:href="#linearGradient6139-0"
       inkscape:collect="always" />
    <linearGradient
       id="linearGradient5029">
      <stop
         style="stop-color:#0a9aff;stop-opacity:1;"
         offset="0"
         id="stop5031" />
      <stop
         style="stop-color:#0070c0;stop-opacity:1;"
         offset="1"
         id="stop5033" />
    </linearGradient>
    <linearGradient
       id="linearGradient5039">
      <stop
         id="stop5041"
         offset="0"
         style="stop-color:#ff0a0a;stop-opacity:1;" />
      <stop
         id="stop5043"
         offset="1"
         style="stop-color:#c00000;stop-opacity:1;" />
    </linearGradient>
    <linearGradient
       id="linearGradient5045">
      <stop
         style="stop-color:#2fff0a;stop-opacity:1;"
         offset="0"
         id="stop5047" />
      <stop
         style="stop-color:#16b50b;stop-opacity:1;"
         offset="1"
         id="stop5049" />
    </linearGradient>
    <linearGradient
       id="linearGradient5051">
      <stop
         id="stop5053"
         offset="0"
         style="stop-color:#c60aff;stop-opacity:1;" />
      <stop
         id="stop5055"
         offset="1"
         style="stop-color:#9b0bb5;stop-opacity:1;" />
    </linearGradient>
    <linearGradient
       id="linearGradient5057">
      <stop
         style="stop-color:#ff830a;stop-opacity:1;"
         offset="0"
         id="stop5059" />
      <stop
         style="stop-color:#b55f0b;stop-opacity:1;"
         offset="1"
         id="stop5061" />
    </linearGradient>
    <linearGradient
       id="linearGradient5063">
      <stop
         id="stop5065"
         offset="0"
         style="stop-color:#6b9ab0;stop-opacity:1;" />
      <stop
         id="stop5067"
         offset="1"
         style="stop-color:#466b7a;stop-opacity:1;" />
    </linearGradient>
    <linearGradient
       inkscape:collect="always"
       xlink:href="#linearGradient5029"
       id="linearGradient3882"
       gradientUnits="userSpaceOnUse"
       gradientTransform="translate(14,26)"
       x1="32"
       y1="15"
       x2="32"
       y2="64.683334" />
  </defs>
  <metadata
     id="metadata13099">
    <rdf:RDF>
      <cc:Work
         rdf:about="">
        <dc:format>image/svg+xml</dc:format>
        <dc:type
           rdf:resource="http://purl.org/dc/dcmitype/StillImage" />
        <dc:title></dc:title>
        <dc:date>2017</dc:date>
        <dc:creator>
          <cc:Agent>
            <dc:title>Cristian Pozzessere &quot;ilnanny&quot;</dc:title>
          </cc:Agent>
        </dc:creator>
        <dc:subject>
          <rdf:Bag>
            <rdf:li>Global language</rdf:li>
          </rdf:Bag>
        </dc:subject>
        <dc:description>Playing with Inkscape on Gnu/Linux O. S.</dc:description>
        <dc:contributor>
          <cc:Agent>
            <dc:title>In the night, alone like a dog.</dc:title>
          </cc:Agent>
        </dc:contributor>
        <cc:license
           rdf:resource="http://creativecommons.org/licenses/by-sa/4.0/" />
      </cc:Work>
      <cc:License
         rdf:about="http://creativecommons.org/licenses/by-sa/4.0/">
        <cc:permits
           rdf:resource="http://creativecommons.org/ns#Reproduction" />
        <cc:permits
           rdf:resource="http://creativecommons.org/ns#Distribution" />
        <cc:requires
           rdf:resource="http://creativecommons.org/ns#Notice" />
        <cc:requires
           rdf:resource="http://creativecommons.org/ns#Attribution" />
        <cc:permits
           rdf:resource="http://creativecommons.org/ns#DerivativeWorks" />
        <cc:requires
           rdf:resource="http://creativecommons.org/ns#ShareAlike" />
      </cc:License>
    </rdf:RDF>
  </metadata>
  <g
     transform="translate(-384.57143,-451.798)"
     id="layer1"
     inkscape:label="Capa 1">
    <g
       transform="translate(384.57143,451.798)"
       id="g3950">
      <g
         id="layer1-6"
         inkscape:label="icona"
         transform="translate(0,32)">
        <g
           style="display:inline"
           transform="translate(-8.0439594,-17.334439)"
           id="g7390">
          <path
             style="display:inline;opacity:0.15;fill:#000000;fill-opacity:1;fill-rule:nonzero;stroke:none"
             d="m 97.186813,-14.665561 -82.285719,0 c -3.798848,0 -6.8571352,3.058285 -6.8571352,6.8571399 l 0,82.2857181 c 0,3.798857 3.0582872,6.857142 6.8571352,6.857142 l 82.285719,0 c 3.798857,0 6.857147,-3.058285 6.857147,-6.857142 l 0,-82.2857181 c 0,-3.7988549 -3.05829,-6.8571399 -6.857147,-6.8571399 z"
             id="path3288"
             inkscape:connector-curvature="0" />
          <path
             inkscape:connector-curvature="0"
             id="path4085"
             d="m 96.543957,-13.915561 -81.000007,0 c -3.739492,0 -6.749993,3.010499 -6.749993,6.7499969 l 0,81.0000031 c 0,3.739501 3.010501,6.75 6.749993,6.75 l 81.000007,0 c 3.739503,0 6.750003,-3.010499 6.750003,-6.75 l 0,-81.0000031 c 0,-3.7394979 -3.0105,-6.7499969 -6.750003,-6.7499969 z"
             style="display:inline;opacity:0.15;fill:#000000;fill-opacity:1;fill-rule:nonzero;stroke:none" />
          <path
             style="display:inline;fill:url(#linearGradient3825);fill-opacity:1;fill-rule:nonzero;stroke:none"
             d="m 95.901096,-13.165561 -79.714282,0 c -3.680143,0 -6.6428566,2.962713 -6.6428566,6.6428549 l 0,79.7142901 c 0,3.680142 2.9627136,6.642856 6.6428566,6.642856 l 79.714282,0 c 3.680143,0 6.642854,-2.962714 6.642854,-6.642856 l 0,-79.7142901 c 0,-3.6801419 -2.962711,-6.6428549 -6.642854,-6.6428549 z"
             id="rect4251-1"
             inkscape:connector-curvature="0" />
          <g
             id="g3272"
             transform="matrix(1.1071428,0,0,1.1071426,-107.81316,-18.147702)">
            <path
               inkscape:connector-curvature="0"
               id="path4236-5"
               d="m 112,4.5 c -3.324,0 -6,2.6759996 -6,6 l 0,15 1,0 0,-15 c 0,-2.7872972 2.2127,-5 5,-5 l 72,0 c 2.7873,0 5,2.2127028 5,5 l 0,15 1,0 0,-15 c 0,-3.3240004 -2.676,-6 -6,-6 l -72,0 z"
               style="display:inline;opacity:0.45;fill:url(#radialGradient3827);fill-opacity:1;fill-rule:nonzero;stroke:none" />
          </g>
          <path
             inkscape:connector-curvature="0"
             style="display:inline;opacity:0.89090905;fill:url(#linearGradient3829);fill-opacity:1;fill-rule:nonzero;stroke:none"
             d="m 9.5439564,67.178189 0,6 c 0,3.680142 2.9761066,6.65625 6.6562496,6.65625 l 79.6875,0 c 3.680143,0 6.656254,-2.976108 6.656254,-6.65625 l 0,-6 c 0,3.680142 -2.976111,6.65625 -6.656254,6.65625 l -79.6875,0 c -3.680143,0 -6.6562496,-2.976108 -6.6562496,-6.65625 z"
             id="path4118" />
          <g
             transform="translate(251.28797,-104.89729)"
             id="g4615">
            <g
               id="layer2-8"
               style="display:none">
              <rect
                 width="86"
                 height="85"
                 rx="6"
                 ry="6"
                 x="5"
                 y="7"
                 id="rect3745-9"
                 style="opacity:0.9;fill:url(#linearGradient3835);fill-opacity:1;fill-rule:nonzero;stroke:none;filter:url(#filter3174-3)" />
            </g>
          </g>
        </g>
      </g>
      <g
         id="layer7"
         inkscape:label="colori"
         style="display:inline">
        <rect
           ry="4.25"
           y="7.2398567"
           x="5.5768051"
           height="77.520287"
           width="84.84639"
           id="rect4301"
           style="display:inline;fill:#eff9fa;fill-opacity:1;stroke:none" />
        <path
           inkscape:connector-curvature="0"
           id="path4989"
           d="m 9.6041045,5.7149979 c -3.116621,0 -5.667965,2.5395101 -5.667965,5.6460041 l 0,69.277996 c 0,3.106495 2.551344,5.646004 5.667965,5.646004 l 76.7917855,0 c 3.116621,0 5.66797,-2.539509 5.66797,-5.646004 l 0,-69.277996 c 0,-3.106493 -2.55135,-5.6460041 -5.66797,-5.6460041 l -76.7917855,0 z m 0,2.3194391 76.7917855,0 c 1.888101,0 3.352021,1.480095 3.352021,3.326565 l 0,69.277996 c 0,1.846474 -1.46392,3.326564 -3.352021,3.326564 l -76.7917855,0 c -1.888099,0 -3.352022,-1.48009 -3.352022,-3.326564 l 0,-69.277996 c 0,-1.84647 1.463923,-3.326565 3.352022,-3.326565 z"
           style="color:#000000;font-style:normal;font-variant:normal;font-weight:normal;font-stretch:normal;font-size:medium;line-height:normal;font-family:Sans;-inkscape-font-specification:Sans;text-indent:0;text-align:start;text-decoration:none;text-decoration-line:none;letter-spacing:normal;word-spacing:normal;text-transform:none;direction:ltr;block-progression:tb;writing-mode:lr-tb;baseline-shift:baseline;text-anchor:start;display:inline;overflow:visible;visibility:visible;fill:#241f1f;fill-opacity:0.63265303;stroke:none;stroke-width:2.3755002;marker:none;enable-background:accumulate" />
        <g
           transform="matrix(1.4149258,0,0,1.4149258,-5.7253137,-48.588044)"
           id="g4369">
          <path
             sodipodi:nodetypes="cccccccccccccccccccccccccccccccccccccc"
             style="color:#000000;display:inline;overflow:visible;visibility:visible;fill:#ff7518;fill-opacity:1;fill-rule:nonzero;stroke:#878787;stroke-width:0.50532685;marker:none;enable-background:accumulate;stroke-opacity:1;stroke-miterlimit:4;stroke-dasharray:none"
             id="path3877"
             d="m 11,49 0,30 16,0 -3,9 13,-9 16,0 0,-30 z m 3,3 9,0 0,6 -9,0 z m 27,0 9,0 0,6 -9,0 z m -27,9 9,0 0,6 -9,0 z m 27,0 9,0 0,6 -9,0 z m -27,9 9,0 0,6 -9,0 z m 27,0 9,0 0,6 -9,0 z"
             inkscape:connector-curvature="0" />
          <path
             inkscape:connector-curvature="0"
             id="path3866"
             d="M 53,50 53,79 37,79 25.71875,86.8125 25,89 l 13,-9 16,0 0,-30 -1,0 z m -39,2 0,6 1,0 0,-5 8,0 0,-1 -9,0 z m 27,0 0,6 1,0 0,-5 8,0 0,-1 -9,0 z m -27,9 0,6 1,0 0,-5 8,0 0,-1 -9,0 z m 27,0 0,6 1,0 0,-5 8,0 0,-1 -9,0 z m -27,9 0,6 1,0 0,-5 8,0 0,-1 -9,0 z m 27,0 0,6 1,0 0,-5 8,0 0,-1 -9,0 z m -29,9 0,1 14.65625,0 L 27,79 12,79 Z"
             style="color:#000000;display:inline;overflow:visible;visibility:visible;fill:#2b7096;fill-opacity:0.2977941;fill-rule:nonzero;stroke:none;stroke-width:0.50532685;marker:none;enable-background:accumulate;stroke-opacity:1;stroke-miterlimit:4;stroke-dasharray:none" />
          <path
             inkscape:connector-curvature="0"
             id="rect3826"
             d="m 11,49 0,30 1,0 0,-29 41,0 0,-1 -42,0 z m 12,4 0,5 -8,0 0,1 9,0 0,-6 -1,0 z m 27,0 0,5 -8,0 0,1 9,0 0,-6 -1,0 z m -27,9 0,5 -8,0 0,1 9,0 0,-6 -1,0 z m 27,0 0,5 -8,0 0,1 9,0 0,-6 -1,0 z m -27,9 0,5 -8,0 0,1 9,0 0,-6 -1,0 z m 27,0 0,5 -8,0 0,1 9,0 0,-6 -1,0 z M 26.65625,80 24,88 25.71875,86.8125 28,80 26.65625,80 Z"
             style="color:#000000;display:inline;overflow:visible;visibility:visible;fill:#ffffff;fill-opacity:0.24910398;fill-rule:nonzero;stroke:none;stroke-width:1;marker:none;enable-background:accumulate" />
          <path
             sodipodi:nodetypes="ccccccccccc"
             inkscape:connector-curvature="0"
             id="path3906"
             d="m 47,43 -13,17 8,0 0,14 -8,0 13,17 13,-17 -8,0 0,-14 8,0 z"
             style="color:#000000;display:inline;overflow:visible;visibility:visible;fill:none;stroke:#141b07;stroke-width:4;stroke-linecap:butt;stroke-linejoin:round;stroke-miterlimit:4;stroke-dasharray:none;stroke-dashoffset:0;stroke-opacity:0.14901961;marker:none;enable-background:accumulate" />
          <path
             inkscape:connector-curvature="0"
             id="path3089"
             d="m 45.84375,40 a 2.0002,2.0002 0 0 0 -1.4375,0.78125 l -13,17 A 2.0002,2.0002 0 0 0 33,61 l 6,0 0,10 -6,0 a 2.0002,2.0002 0 0 0 -1.59375,3.21875 l 13,17 a 2.0002,2.0002 0 0 0 3.1875,0 l 13,-17 A 2.0002,2.0002 0 0 0 59,71 l -6,0 0,-10 6,0 a 2.0002,2.0002 0 0 0 1.59375,-3.21875 l -13,-17 A 2.0002,2.0002 0 0 0 45.84375,40 Z M 46,45.3125 54.9375,57 51,57 a 2.0002,2.0002 0 0 0 -2,2 l 0,14 a 2.0002,2.0002 0 0 0 2,2 L 54.9375,75 46,86.6875 37.0625,75 41,75 a 2.0002,2.0002 0 0 0 2,-2 L 43,59 A 2.0002,2.0002 0 0 0 41,57 L 37.0625,57 46,45.3125 Z"
             style="color:#000000;font-style:normal;font-variant:normal;font-weight:normal;font-stretch:normal;font-size:medium;line-height:normal;font-family:Sans;-inkscape-font-specification:Sans;text-indent:0;text-align:start;text-decoration:none;text-decoration-line:none;letter-spacing:normal;word-spacing:normal;text-transform:none;direction:ltr;block-progression:tb;writing-mode:lr-tb;baseline-shift:baseline;text-anchor:start;display:inline;overflow:visible;visibility:visible;fill:#ffffff;fill-opacity:1;fill-rule:nonzero;stroke:none;stroke-width:1;marker:none;enable-background:accumulate" />
          <path
             sodipodi:nodetypes="ccccccccccc"
             id="path3061"
             d="m 46,42 -13,17 8,0 0,14 -8,0 13,17 13,-17 -8,0 0,-14 8,0 z"
             style="color:#000000;display:inline;overflow:visible;visibility:visible;fill:url(#linearGradient3882);fill-opacity:1.0;fill-rule:nonzero;stroke:none;stroke-width:2.28571415;marker:none;enable-background:accumulate"
             inkscape:connector-curvature="0" />
          <path
             sodipodi:nodetypes="ccccccccccccccccccc"
             inkscape:connector-curvature="0"
             id="path3045"
             d="M 46,42 33,59 34.78125,59 46.875,43.15625 Z m -5,18 0,13 -8,0 13,17 0.125,-0.15625 L 34,74 l 8,0 0,-14 z m 11,13 0,1 6.21875,0 L 59,73 Z"
             style="color:#000000;display:inline;overflow:visible;visibility:visible;fill:#ffffff;fill-opacity:0.23056539;fill-rule:nonzero;stroke:none;stroke-width:1;marker:none;enable-background:accumulate" />
        </g>
      </g>
      <g
         id="layer5"
         inkscape:label="simboli" />
      <g
         id="layer4"
         inkscape:label="luci-superiori">
        <g
           id="g4963"
           transform="matrix(1.0076012,0,0,1.014293,-1.0512372,0.60533708)">
          <rect
             clip-path="url(#clipPath4156-4-6)"
             ry="3.9569881"
             rx="3.9569874"
             y="-30"
             x="2"
             height="59.0779"
             width="92"
             id="rect4146"
             style="display:inline;fill:url(#linearGradient4967);fill-opacity:1;stroke:none;opacity:0.67"
             transform="matrix(0.90930469,0,0,0.92837735,5.0676273,34.52016)" />
        </g>
      </g>
    </g>
  </g>
  <g
     id="g3043"
     inkscape:export-filename="folder.png"
     inkscape:export-xdpi="90"
     inkscape:export-ydpi="90"
     transform="translate(-0.62500009,32.082283)" />
  <g
     id="scalable"
     transform="matrix(1.0385892,0,0,1.0385892,1214.7222,1910.8121)"
     inkscape:label="#g3701"
     style="fill:#ffffff" />
</svg>
