<?xml version="1.0" encoding="UTF-8" standalone="no"?>
<svg
   xmlns:dc="http://purl.org/dc/elements/1.1/"
   xmlns:cc="http://creativecommons.org/ns#"
   xmlns:rdf="http://www.w3.org/1999/02/22-rdf-syntax-ns#"
   xmlns:svg="http://www.w3.org/2000/svg"
   xmlns="http://www.w3.org/2000/svg"
   xmlns:xlink="http://www.w3.org/1999/xlink"
   xmlns:sodipodi="http://sodipodi.sourceforge.net/DTD/sodipodi-0.dtd"
   xmlns:inkscape="http://www.inkscape.org/namespaces/inkscape"
   width="48"
   height="48"
   id="svg2"
   version="1.1"
   sodipodi:docname="subtitlecomposer.svg"
   inkscape:version="0.92.2 5c3e80d, 2017-08-06">
  <metadata
     id="metadata123">
    <rdf:RDF>
      <cc:Work
         rdf:about="">
        <dc:format>image/svg+xml</dc:format>
        <dc:type
           rdf:resource="http://purl.org/dc/dcmitype/StillImage" />
      </cc:Work>
    </rdf:RDF>
  </metadata>
  <sodipodi:namedview
     pagecolor="#ffffff"
     bordercolor="#666666"
     borderopacity="1"
     objecttolerance="10"
     gridtolerance="10"
     guidetolerance="10"
     inkscape:pageopacity="0"
     inkscape:pageshadow="2"
     inkscape:window-width="1280"
     inkscape:window-height="974"
     id="namedview121"
     showgrid="false"
     inkscape:zoom="14.865234"
     inkscape:cx="11.521219"
     inkscape:cy="18.130764"
     inkscape:window-x="0"
     inkscape:window-y="21"
     inkscape:window-maximized="1"
     inkscape:current-layer="svg2" />
  <defs
     id="defs4">
    <linearGradient
       id="linearGradient5169">
      <stop
         style="stop-color:#000000;stop-opacity:1;"
         offset="0"
         id="stop5171" />
      <stop
         style="stop-color:#000000;stop-opacity:0;"
         offset="1"
         id="stop5173" />
    </linearGradient>
    <linearGradient
       gradientTransform="translate(383.57001,-499.79999)"
       id="linearGradient4847"
       y1="541.8"
       x1="-430.57"
       y2="503.8"
       x2="-385.57"
       gradientUnits="userSpaceOnUse">
      <stop
         stop-color="#197cf1"
         id="stop4849"
         style="stop-color:#0b5dbd;stop-opacity:1" />
      <stop
         offset="1"
         stop-color="#21c9fb"
         id="stop4851"
         style="stop-color:#0dc4fb;stop-opacity:1" />
    </linearGradient>
    <linearGradient
       id="a"
       y1="538.8"
       x1="406.57"
       y2="507.52"
       x2="429.12"
       gradientUnits="userSpaceOnUse"
       gradientTransform="matrix(-1.81818,0,0,1.2469,1167.79,-128.03)">
      <stop
         stop-color="#f3ac12"
         id="stop7" />
      <stop
         offset="1"
         stop-color="#f5cb39"
         id="stop9" />
    </linearGradient>
    <linearGradient
       id="b"
       y1="31"
       x1="53"
       y2="18"
       x2="40"
       gradientUnits="userSpaceOnUse"
       gradientTransform="matrix(-1,0,0,-1,456.57,560.8)">
      <stop
         stop-color="#383e51"
         id="stop12" />
      <stop
         offset="1"
         stop-color="#655c6f"
         stop-opacity="0"
         id="stop14" />
    </linearGradient>
    <linearGradient
       id="c"
       y1="61"
       y2="47"
       x2="0"
       gradientUnits="userSpaceOnUse"
       gradientTransform="matrix(-1,0,0,1,442.57,482.8)">
      <stop
         stop-color="#fddda3"
         id="stop17" />
      <stop
         offset="1"
         stop-color="#fde3a7"
         id="stop19" />
    </linearGradient>
    <linearGradient
       id="d"
       y1="522.46"
       y2="541.2"
       gradientUnits="userSpaceOnUse"
       x2="0"
       gradientTransform="matrix(-1.81818,0,0,1.2469,1167.79,-128.03)">
      <stop
         stop-color="#daae00"
         id="stop22" />
      <stop
         offset="1"
         stop-color="#eca01c"
         id="stop24" />
    </linearGradient>
    <linearGradient
       id="e"
       y1="-512.8"
       x1="403.57"
       y2="-501.8"
       x2="390.57"
       gradientUnits="userSpaceOnUse"
       gradientTransform="translate(-384.57,499.8)">
      <stop
         stop-color="#f5cd52"
         id="stop27" />
      <stop
         offset="1"
         stop-color="#f8d474"
         id="stop29" />
    </linearGradient>
    <linearGradient
       id="f"
       x1="394.57"
       x2="435.57"
       gradientUnits="userSpaceOnUse">
      <stop
         stop-color="#e88f21"
         id="stop32" />
      <stop
         offset="1"
         stop-color="#e88f21"
         stop-opacity="0"
         id="stop34" />
    </linearGradient>
    <linearGradient
       id="g"
       x1="393.57"
       x2="439.57"
       gradientUnits="userSpaceOnUse">
      <stop
         stop-color="#ffffff"
         id="stop37" />
      <stop
         offset="1"
         stop-color="#ffffff"
         stop-opacity="0"
         id="stop39" />
    </linearGradient>
    <linearGradient
       gradientUnits="userSpaceOnUse"
       x2="2"
       y2="4"
       x1="46"
       y1="42"
       id="a-3"
       gradientTransform="matrix(0,-1,1,0,0,34)">
      <stop
         id="stop4202"
         stop-color="#2f3943" />
      <stop
         id="stop4204"
         stop-color="#4d5662"
         offset="1" />
    </linearGradient>
    <linearGradient
       gradientUnits="userSpaceOnUse"
       x2="-385.57"
       y2="503.8"
       x1="-430.57"
       y1="541.8"
       id="b-6"
       gradientTransform="translate(383.57001,-499.79999)">
      <stop
         id="stop4207"
         stop-color="#197cf1" />
      <stop
         id="stop4209"
         stop-color="#21c9fb"
         offset="1" />
    </linearGradient>
    <linearGradient
       gradientTransform="matrix(2,0,0,1,-848.84916,-509.62729)"
       gradientUnits="userSpaceOnUse"
       x2="404.57"
       y2="503.8"
       x1="408.57"
       y1="543.8"
       id="c-7">
      <stop
         id="stop4212"
         stop-color="#c61423" />
      <stop
         id="stop4214"
         stop-color="#dc2b41"
         offset="1" />
    </linearGradient>
    <linearGradient
       gradientTransform="translate(-440.26916,-509.62729)"
       gradientUnits="userSpaceOnUse"
       x2="429.93"
       y2="540.8"
       x1="408.57"
       y1="503.8"
       id="d-5">
      <stop
         id="stop4217" />
      <stop
         id="stop4219"
         stop-opacity="0"
         offset="1" />
    </linearGradient>
    <linearGradient
       id="linearGradient4222"
       y1="527.014"
       x1="406.501"
       y2="539.825"
       x2="419.974"
       gradientUnits="userSpaceOnUse"
       gradientTransform="translate(-386.57,-501.8)">
      <stop
         style="stop-color:#001043;stop-opacity:1"
         stop-color="#292c2f"
         id="stop4224" />
      <stop
         style="stop-color:#0f0d45;stop-opacity:0"
         offset="1"
         stop-opacity="0"
         id="stop4226" />
    </linearGradient>
    <linearGradient
       id="linearGradient4402">
      <stop
         id="stop4404"
         offset="0"
         style="stop-color:#ffffff;stop-opacity:1;" />
      <stop
         id="stop4406"
         offset="1"
         style="stop-color:#ffffff;stop-opacity:0;" />
    </linearGradient>
    <linearGradient
       x1="428.816"
       gradientTransform="translate(-384.57,-499.8)"
       gradientUnits="userSpaceOnUse"
       x2="388.865"
       y2="499.679"
       y1="547.634"
       id="a-62">
      <stop
         id="stop7-9"
         stop-color="#2a2c2f" />
      <stop
         id="stop9-1"
         stop-color="#536161"
         offset="1" />
    </linearGradient>
    <linearGradient
       gradientTransform="translate(50,0)"
       gradientUnits="userSpaceOnUse"
       x2="0"
       y2="14"
       y1="34"
       id="b-2">
      <stop
         style="stop-color:#bfc9c9;stop-opacity:1"
         id="stop12-7"
         stop-color="#536161" />
      <stop
         style="stop-color:#fbfbfb;stop-opacity:1"
         id="stop14-0"
         stop-color="#f4f5f5"
         offset="1" />
    </linearGradient>
    <linearGradient
       gradientTransform="translate(-386.57,-501.8)"
       gradientUnits="userSpaceOnUse"
       x2="419.974"
       y2="539.825"
       x1="406.501"
       y1="527.014"
       id="c-9">
      <stop
         id="stop17-3"
         stop-color="#292c2f" />
      <stop
         id="stop19-6"
         stop-opacity="0"
         offset="1" />
    </linearGradient>
    <style
       type="text/css"
       id="current-color-scheme">
   .ColorScheme-Text { color:#f2f2f2 }
  </style>
    <style
       type="text/css"
       id="current-color-scheme-3">
   .ColorScheme-Text { color:#f2f2f2 }
  </style>
    <style
       type="text/css"
       id="current-color-scheme-6">
   .ColorScheme-Text { color:#f2f2f2 }
  </style>
    <linearGradient
       y2="539.825"
       x2="419.974"
       y1="527.014"
       x1="406.501"
       gradientTransform="translate(-405.64617,-517.76875)"
       gradientUnits="userSpaceOnUse"
       id="linearGradient4358-3"
       xlink:href="#c-9" />
    <linearGradient
       gradientUnits="userSpaceOnUse"
       y2="33.5"
       x2="32.125"
       y1="-15.125"
       x1="11.875"
       id="linearGradient4408"
       xlink:href="#linearGradient4402" />
    <linearGradient
       y2="539.825"
       x2="419.974"
       y1="521.888"
       x1="412.158"
       gradientTransform="translate(-389.55242,-517.76875)"
       gradientUnits="userSpaceOnUse"
       id="linearGradient4358-6"
       xlink:href="#c-9" />
    <linearGradient
       id="a-6"
       y1="543.8"
       y2="503.8"
       x2="0"
       gradientUnits="userSpaceOnUse"
       gradientTransform="matrix(1.125,0,0,1,-476.4338,-500.54872)">
      <stop
         stop-color="#bd8d48"
         id="stop4380" />
      <stop
         offset="1"
         stop-color="#e8b971"
         id="stop4382" />
    </linearGradient>
    <linearGradient
       gradientTransform="translate(-425.36379,-500.54873)"
       id="b-7"
       y1="541.8"
       y2="505.8"
       x2="0"
       gradientUnits="userSpaceOnUse">
      <stop
         stop-color="#e3dfd6"
         id="stop4385" />
      <stop
         offset="1"
         stop-color="#f4f1e8"
         id="stop4387" />
    </linearGradient>
    <linearGradient
       id="c-5"
       y1="531.8"
       x1="414.57"
       y2="543.8"
       x2="426.57"
       gradientUnits="userSpaceOnUse">
      <stop
         stop-color="#383e51"
         id="stop4390" />
      <stop
         offset="1"
         stop-color="#655c6f"
         stop-opacity="0"
         id="stop4392" />
    </linearGradient>
    <linearGradient
       gradientTransform="translate(-425.36379,-500.54873)"
       id="d-0"
       y1="542.8"
       y2="504.8"
       x2="0"
       gradientUnits="userSpaceOnUse">
      <stop
         stop-color="#977a5c"
         id="stop4395" />
      <stop
         offset="1"
         stop-color="#9d8062"
         id="stop4397" />
    </linearGradient>
    <linearGradient
       gradientTransform="translate(-425.36379,-500.54873)"
       id="e-6"
       y1="528.8"
       x1="413.57"
       y2="533.8"
       x2="418.57"
       gradientUnits="userSpaceOnUse">
      <stop
         stop-color="#bdb49e"
         stop-opacity=".259"
         id="stop4400" />
      <stop
         offset="1"
         stop-color="#bdb49e"
         stop-opacity="0"
         id="stop4402" />
    </linearGradient>
    <linearGradient
       id="a-6-3"
       y1="543.8"
       y2="503.8"
       x2="0"
       gradientUnits="userSpaceOnUse"
       gradientTransform="matrix(1.125,0,0,1,-441.64001,-503.79999)">
      <stop
         stop-color="#bd8d48"
         id="stop4380-5" />
      <stop
         offset="1"
         stop-color="#e8b971"
         id="stop4382-6" />
    </linearGradient>
    <linearGradient
       gradientUnits="userSpaceOnUse"
       x2="-385.57"
       y2="503.8"
       x1="-430.57"
       y1="541.8"
       id="b-6-1"
       gradientTransform="translate(387.57001,-510.79999)">
      <stop
         id="stop4207-8"
         stop-color="#197cf1" />
      <stop
         id="stop4209-7"
         stop-color="#21c9fb"
         offset="1" />
    </linearGradient>
    <linearGradient
       xlink:href="#linearGradient4847"
       id="linearGradient4845"
       gradientUnits="userSpaceOnUse"
       gradientTransform="matrix(1.0305085,0,0,0.97457628,441.37384,-443.04237)"
       x1="-331.57"
       y1="549.742"
       x2="-383.57"
       y2="499.8" />
    <linearGradient
       gradientUnits="userSpaceOnUse"
       x2="27"
       y2="44"
       x1="8"
       y1="25"
       id="a-2"
       gradientTransform="translate(40,-32)">
      <stop
         id="stop4858" />
      <stop
         id="stop4860"
         stop-opacity="0"
         offset="1" />
    </linearGradient>
    <linearGradient
       gradientUnits="userSpaceOnUse"
       x2="0"
       y2="18"
       y1="44"
       id="b-0"
       gradientTransform="translate(40,-32)">
      <stop
         id="stop4863"
         stop-color="#c6cdd1" />
      <stop
         id="stop4865"
         stop-color="#e0e5e7"
         offset="1" />
    </linearGradient>
    <linearGradient
       gradientUnits="userSpaceOnUse"
       x2="0"
       y2="16"
       y1="20"
       id="c-2">
      <stop
         id="stop4868"
         stop-color="#06a370" />
      <stop
         id="stop4870"
         stop-color="#22d1b0"
         offset="1" />
    </linearGradient>
    <linearGradient
       gradientUnits="userSpaceOnUse"
       x2="0"
       y2="4"
       y1="21"
       id="d-3"
       xlink:href="#c-2" />
    <linearGradient
       gradientUnits="userSpaceOnUse"
       x2="0"
       y2="4"
       y1="15"
       id="e-7"
       xlink:href="#c-2" />
    <linearGradient
       gradientUnits="userSpaceOnUse"
       x2="0"
       y2="7"
       y1="16"
       id="f-5"
       xlink:href="#c-2" />
    <linearGradient
       gradientUnits="userSpaceOnUse"
       x2="0"
       y2="10"
       y1="17"
       id="g-9"
       xlink:href="#c-2" />
    <linearGradient
       gradientUnits="userSpaceOnUse"
       x2="0"
       y2="8"
       y1="17"
       id="h">
      <stop
         id="stop4877"
         stop-color="#c61423" />
      <stop
         id="stop4879"
         stop-color="#dc2b41"
         offset="1" />
    </linearGradient>
    <linearGradient
       gradientUnits="userSpaceOnUse"
       x2="0"
       y2="12"
       y1="17"
       id="i"
       xlink:href="#h" />
    <linearGradient
       gradientUnits="userSpaceOnUse"
       x2="0"
       y2="12"
       y1="21"
       id="j"
       xlink:href="#h" />
    <linearGradient
       gradientUnits="userSpaceOnUse"
       x2="0"
       y2="10"
       y1="25"
       id="k"
       gradientTransform="translate(-1.5821727,7)">
      <stop
         id="stop4884"
         stop-color="#f39c12" />
      <stop
         id="stop4886"
         stop-color="#f5ab35"
         offset="1" />
    </linearGradient>
    <linearGradient
       gradientUnits="userSpaceOnUse"
       x2="0"
       y2="10"
       y1="25"
       id="k-2"
       gradientTransform="translate(-8,-12)">
      <stop
         id="stop4884-2"
         stop-color="#f39c12" />
      <stop
         id="stop4886-8"
         stop-color="#f5ab35"
         offset="1" />
    </linearGradient>
    <linearGradient
       xlink:href="#linearGradient5169"
       id="linearGradient5175"
       x1="18"
       y1="13"
       x2="37"
       y2="33"
       gradientUnits="userSpaceOnUse"
       gradientTransform="matrix(1.0305085,0,0,0.97457628,41.979663,53.79661)" />
    <linearGradient
       inkscape:collect="always"
       xlink:href="#linearGradient6139-0"
       id="linearGradient4071"
       gradientUnits="userSpaceOnUse"
       gradientTransform="matrix(0.55126485,0,0,0.55126475,-2.460715,-1.9094496)"
       x1="6"
       y1="47.000011"
       x2="90"
       y2="47.000011" />
    <linearGradient
       id="linearGradient6139-0">
      <stop
         id="stop6141-2"
         offset="0"
         style="stop-color:#b2babc;stop-opacity:1" />
      <stop
         style="stop-color:#ffffff;stop-opacity:1;"
         offset="0.25"
         id="stop6151-0" />
      <stop
         style="stop-color:#96a1a4;stop-opacity:1"
         offset="0.5"
         id="stop6147-1" />
      <stop
         id="stop6149-4"
         offset="0.75"
         style="stop-color:#fbf9f9;stop-opacity:1;" />
      <stop
         id="stop6143-4"
         offset="1"
         style="stop-color:#b2b9bc;stop-opacity:1" />
    </linearGradient>
    <linearGradient
       gradientTransform="matrix(0.49791667,0,0,0.49791666,0.09999873,0.09999967)"
       inkscape:collect="always"
       xlink:href="#linearGradient3832-0-6-1-1"
       id="linearGradient4129"
       x1="1.5"
       y1="88.171875"
       x2="94.5"
       y2="88.171875"
       gradientUnits="userSpaceOnUse" />
    <linearGradient
       id="linearGradient3832-0-6-1-1">
      <stop
         style="stop-color:#000000;stop-opacity:1;"
         offset="0"
         id="stop3834-6-3-7-1" />
      <stop
         id="stop3872-2-4"
         offset="0.1"
         style="stop-color:#000000;stop-opacity:0.58823532;" />
      <stop
         style="stop-color:#000000;stop-opacity:0.58823532;"
         offset="0.89999998"
         id="stop3844-6-2-7-6" />
      <stop
         style="stop-color:#000000;stop-opacity:1;"
         offset="1"
         id="stop3836-5-0-2-9" />
    </linearGradient>
    <radialGradient
       inkscape:collect="always"
       xlink:href="#linearGradient4402"
       id="radialGradient7462"
       gradientUnits="userSpaceOnUse"
       gradientTransform="matrix(0.48553536,0,0,0.02449288,16.978724,40.016334)"
       cx="13.948145"
       cy="44.892841"
       fx="13.948145"
       fy="44.892841"
       r="43.199203" />
    <radialGradient
       inkscape:collect="always"
       xlink:href="#linearGradient4402"
       id="radialGradient7464"
       gradientUnits="userSpaceOnUse"
       gradientTransform="matrix(0.44231264,0,0,0.02449288,15.806528,-44.996301)"
       cx="13.948145"
       cy="44.892841"
       fx="13.948145"
       fy="44.892841"
       r="43.199203" />
    <linearGradient
       inkscape:collect="always"
       xlink:href="#linearGradient4402"
       id="linearGradient4767"
       gradientUnits="userSpaceOnUse"
       x1="2.7713892"
       y1="-28.64156"
       x2="50.527882"
       y2="14.514202" />
    <clipPath
       id="clipPath4156-4-1"
       clipPathUnits="userSpaceOnUse">
      <path
         inkscape:connector-curvature="0"
         id="path4158-0-8"
         d="m 27.046336,-55.695463 -14.21366,13.321486 h 0.06127 l 15.653407,21.770763 10.231384,-10.546177 C 38.561832,-32.30156 27.468089,-54.819245 27.046336,-55.695463 Z M 9.6468554,-39.382809 -5.2407289,-25.32124 15.987863,-7.8059573 26.372412,-18.382966 Z m 31.4906096,12.951445 -9.741259,9.713584 8.944804,12.4580526 7.780753,-7.5550056 z m -49.8397109,4.378822 -13.7541661,12.9822847 26.2830181,13.84571 0.06127,-0.0617 -0.122531,-0.0617 L 13.598503,-5.4007374 -8.7022409,-22.052595 Z m 38.0154159,7.400825 -9.802525,9.7752596 11.579232,9.5594001 7.62759,-7.40083 -8.669108,-11.0087257 z m 20.187073,5.6739697 -7.382526,7.2158 6.187844,8.54179 5.820249,-6.13651996 z m -32.195166,6.32154 -9.5574606,9.49772 13.6622686,7.1849703 7.933918,-7.6783603 z m 23.311629,2.37443004 -7.10683,6.93826996 8.362778,6.9074403 5.360756,-5.6739699 -0.06127,-0.0925 -0.0919,0.12335 -6.463539,-8.20258036 z m -8.730374,8.54178036 -7.505057,7.3391599 10.353916,5.45811 c 1.397496,-1.32103 5.67514,-6.12292 5.850882,-6.32154 z"
         style="opacity:0.6;fill:#ffffff;fill-opacity:1;stroke:none" />
    </clipPath>
    <linearGradient
       id="ButtonShadow-16"
       gradientTransform="scale(1.0058652,0.994169)"
       x1="45.447727"
       y1="92.539597"
       x2="45.447727"
       y2="7.0165396"
       gradientUnits="userSpaceOnUse">
      <stop
         style="stop-color:#000000;stop-opacity:1;"
         offset="0"
         id="stop3750-6" />
      <stop
         style="stop-color:#000000;stop-opacity:0.58823532;"
         offset="1"
         id="stop3752-4" />
    </linearGradient>
    <clipPath
       clipPathUnits="userSpaceOnUse"
       id="clipPath4355-7">
      <rect
         style="fill:#ffffff;fill-opacity:1;fill-rule:nonzero;stroke:none"
         id="rect4357-5"
         width="84"
         height="80"
         x="6"
         y="6"
         rx="6"
         ry="6" />
    </clipPath>
    <clipPath
       clipPathUnits="userSpaceOnUse"
       id="clipPath4355-9">
      <rect
         style="fill:#ffffff;fill-opacity:1;fill-rule:nonzero;stroke:none"
         id="rect4357-1"
         width="84"
         height="80"
         x="6"
         y="6"
         rx="6"
         ry="6" />
    </clipPath>
    <clipPath
       clipPathUnits="userSpaceOnUse"
       id="clipPath4355-1">
      <rect
         style="fill:#ffffff;fill-opacity:1;fill-rule:nonzero;stroke:none"
         id="rect4357-9"
         width="84"
         height="80"
         x="6"
         y="6"
         rx="6"
         ry="6" />
    </clipPath>
    <clipPath
       clipPathUnits="userSpaceOnUse"
       id="clipPath3943-52-0">
      <path
         id="path3945-4-1"
         d="m 69.78125,20.84375 -5,3.4375 c 5.586891,5.537137 9,13.327613 9,21.8125 0,8.434478 -3.37723,16.095981 -8.90625,21.625 l 5,3.4375 C 76.078226,64.5762 80,55.843726 80,46.09375 c 2e-6,-9.796556 -3.962955,-18.660417 -10.21875,-25.25 z M 40,24.0625 28.90625,36.21875 H 21.5 c -0.823281,0 -1.5,0.676717 -1.5,1.5 v 1 14.84375 1 c 0,0.823281 0.684121,1.610161 1.5,1.5 h 7.40625 L 40,68 V 66 26.0625 Z m 20.59375,3.28125 -5,3.4375 L 55.5,30.875 c 3.93815,3.890071 6.40625,9.25018 6.40625,15.21875 0,5.920869 -2.42961,11.148358 -6.3125,15.03125 l 0.09375,0.09375 5.09375,3.4375 c 4.475428,-4.908367 7.25,-11.402005 7.25,-18.5625 0,-7.230696 -2.87904,-13.83107 -7.4375,-18.75 z m -9.25,6.5 -5.21875,3.625 c 2.222384,2.217802 3.71875,5.239596 3.71875,8.625 0,3.336509 -1.458847,6.227712 -3.625,8.4375 l 5.21875,3.625 c 2.822412,-3.236947 4.53125,-7.43414 4.53125,-12.0625 0,-4.672601 -1.754155,-9.001351 -4.625,-12.25 z"
         style="color:#000000;display:inline;overflow:visible;visibility:visible;opacity:0.8;fill:#ff00ff;fill-opacity:1;fill-rule:nonzero;stroke:none;stroke-width:1;marker:none;enable-background:accumulate"
         inkscape:connector-curvature="0" />
    </clipPath>
  </defs>
  <path
     style="display:inline;opacity:0.15;fill:#000000;fill-opacity:1;fill-rule:nonzero;stroke:none;stroke-width:0.49791667"
     d="M 44.485713,0.09999967 H 3.5142818 c -1.8915097,0 -3.41428187,1.52277053 -3.41428187,3.41428433 v 40.97143 C 0.09999993,46.377228 1.6227721,47.9 3.5142818,47.9 H 44.485713 C 46.377226,47.9 47.9,46.377228 47.9,44.485714 V 3.514284 c 0,-1.8915138 -1.522774,-3.41428433 -3.414287,-3.41428433 z"
     id="path3288"
     inkscape:connector-curvature="0" />
  <path
     inkscape:connector-curvature="0"
     id="path4085"
     d="M 44.165624,0.47343717 H 3.8343706 c -1.8619555,0 -3.36093407,1.49897713 -3.36093407,3.36093553 V 44.165625 c 0,1.861959 1.49897857,3.360937 3.36093407,3.360937 H 44.165624 c 1.86196,0 3.360939,-1.498978 3.360939,-3.360937 V 3.8343727 c 0,-1.8619584 -1.498979,-3.36093553 -3.360939,-3.36093553 z"
     style="display:inline;opacity:0.15;fill:#000000;fill-opacity:1;fill-rule:nonzero;stroke:none;stroke-width:0.49791667" />
  <path
     style="display:inline;fill:url(#linearGradient4071);fill-opacity:1;fill-rule:nonzero;stroke:none;stroke-width:0.49791667"
     d="M 43.845532,0.84687467 H 4.1544633 c -1.8324046,0 -3.30758907,1.47518463 -3.30758907,3.30758773 V 43.845536 c 0,1.832405 1.47518447,3.307589 3.30758907,3.307589 H 43.845532 c 1.832405,0 3.307588,-1.475185 3.307588,-3.307589 V 4.1544624 c 0,-1.8324031 -1.475183,-3.30758773 -3.307588,-3.30758773 z"
     id="rect4251-1"
     inkscape:connector-curvature="0" />
  <path
     style="display:inline;opacity:0.98000004;fill:#85d4f9;fill-opacity:1;fill-rule:nonzero;stroke:none;stroke-width:0.51566219"
     d="m 5.6972261,3.2802641 c -1.4222972,0 -2.551389,1.1530465 -2.551389,2.6055173 v 10.7966076 3.647723 20.111331 c 0.5463341,0.848762 1.4782393,1.416749 2.551389,1.416749 H 7.7383374 40.396118 43.2187 c 1.073151,0 1.223584,0.01811 1.769919,-0.830645 V 20.330112 16.682389 5.8857814 c 0,-1.4524708 -1.129092,-2.6055173 -2.55139,-2.6055173 z"
     id="path3400-6"
     inkscape:connector-curvature="0"
     sodipodi:nodetypes="sscccsccscccsss" />
  <g
     transform="translate(-42.711867,-55.112045)"
     id="g1058">
    <path
       inkscape:connector-curvature="0"
       id="path4229"
       d="m 47.132205,57.694915 c -0.570905,0 -1.030508,0.434655 -1.030508,0.974577 v 6.822034 5.847457 15.59322 8.771187 c 0,0.539922 0.459603,0.974575 1.030508,0.974575 h 1.030509 2.061017 2.061017 v -7.796609 h 28.854238 v 7.796609 h 2.061017 2.061017 1.030508 c 0.570906,0 1.030509,-0.434653 1.030509,-0.974575 V 58.669492 c 0,-0.539922 -0.459603,-0.974577 -1.030509,-0.974577 H 85.26102 v 1.949153 h -2.061017 v -1.949153 h -2.061017 v 5.847458 1.949153 H 52.284748 v -1.949153 -5.847458 h -2.061017 v 1.949153 h -2.061017 v -1.949153 z m 1.030509,3.898305 h 2.061017 v 1.949153 h -2.061017 z m 35.037289,0 h 2.061017 v 1.949153 h -2.061017 z m -35.037289,3.898306 h 2.061017 v 1.949152 h -2.061017 z m 35.037289,0 h 2.061017 v 1.949152 H 83.200003 Z M 48.162714,69.38983 h 2.061017 v 1.949153 h -2.061017 z m 4.122034,-1.949152 H 81.138986 V 69.38983 86.932203 H 52.284748 V 84.983051 69.38983 Z m 30.915255,1.949152 h 2.061017 v 1.949153 h -2.061017 z m -35.037289,3.898305 h 2.061017 v 1.949153 h -2.061017 z m 35.037289,0 h 2.061017 v 1.949153 H 83.200003 Z M 48.162714,77.18644 h 2.061017 v 1.949153 h -2.061017 z m 35.037289,0 h 2.061017 v 1.949153 h -2.061017 z m -35.037289,3.898305 h 2.061017 v 1.949153 h -2.061017 z m 35.037289,0 h 2.061017 v 1.949153 h -2.061017 z m -35.037289,3.898306 h 2.061017 v 1.949152 h -2.061017 z m 35.037289,0 h 2.061017 v 1.949152 h -2.061017 z m -35.037289,3.898305 h 2.061017 v 1.949152 h -2.061017 z m 35.037289,0 h 2.061017 v 1.949152 h -2.061017 z m -35.037289,3.898305 h 2.061017 v 1.949152 h -2.061017 z m 35.037289,0 h 2.061017 v 1.949152 h -2.061017 z"
       style="opacity:0.656;fill:#000000;fill-opacity:1;stroke-width:0.49999997;stroke-linejoin:round" />
    <path
       inkscape:connector-curvature="0"
       id="path5164"
       d="M 70.833901,67.440678 58.467799,79.135593 v 3.898305 l 14.427119,13.644067 h 13.39661 c 0.570906,0 1.030509,-0.434653 1.030509,-0.974575 V 83.033898 Z"
       style="opacity:0.24200003;fill:#1a1a1a;fill-opacity:1;fill-rule:evenodd;stroke:none;stroke-width:0.99999994px;stroke-linecap:butt;stroke-linejoin:miter;stroke-opacity:1" />
    <path
       inkscape:connector-curvature="0"
       style="color:#000000;clip-rule:nonzero;display:inline;overflow:visible;visibility:visible;opacity:0.872;isolation:auto;mix-blend-mode:normal;color-interpolation:sRGB;color-interpolation-filters:linearRGB;solid-color:#000000;solid-opacity:1;fill:#f2f2f2;fill-opacity:1;fill-rule:evenodd;stroke-width:0.99999994;stroke-linecap:butt;stroke-linejoin:miter;stroke-miterlimit:4;stroke-dasharray:none;stroke-dashoffset:0;stroke-opacity:1;color-rendering:auto;image-rendering:auto;shape-rendering:auto;text-rendering:auto;enable-background:accumulate"
       id="path53"
       d="M 70.833901,67.440678 58.476043,79.127796 h -0.0041 v 3.908051 h 4.132339 v -0.0039 l 12.357858,-11.687118 -0.0021,-0.002 0.0021,-0.0019 -4.122034,-3.898305 -0.0021,0.002 z m -2.058956,3.325254 2.669017,2.524152 -7.819499,7.395085 v -1.549576 h -2.061017 v -1.549576 z m -8.242007,7.794661 v 1.549576 h 2.061017 v 1.549576 l -0.422509,0.399577 h -1.638508 l -1.030509,-0.974577 v -1.549576 z m 5.152542,3.498729 -1.030508,0.974576 h 10.305085 v -0.974576 z" />
    <rect
       ry="1"
       rx="1"
       y="84.008476"
       x="60.528816"
       height="0.97457629"
       width="12.366102"
       id="rect5158"
       style="color:#000000;clip-rule:nonzero;display:inline;overflow:visible;visibility:visible;opacity:0.872;isolation:auto;mix-blend-mode:normal;color-interpolation:sRGB;color-interpolation-filters:linearRGB;solid-color:#000000;solid-opacity:1;fill:#ffffff;fill-opacity:1;fill-rule:evenodd;stroke:none;stroke-width:0.99999994;stroke-linecap:butt;stroke-linejoin:miter;stroke-miterlimit:4;stroke-dasharray:none;stroke-dashoffset:0;stroke-opacity:1;marker:none;color-rendering:auto;image-rendering:auto;shape-rendering:auto;text-rendering:auto;enable-background:accumulate" />
  </g>
  <path
     inkscape:connector-curvature="0"
     style="display:inline;opacity:0.65818182;fill:url(#linearGradient4129);fill-opacity:1;fill-rule:nonzero;stroke:none;stroke-width:0.49791667"
     d="m 0.84687373,40.851367 v 2.9875 c 0,1.832404 1.48185307,3.314258 3.31425767,3.314258 H 43.838865 c 1.832405,0 3.31426,-1.481854 3.31426,-3.314258 v -2.9875 c 0,1.832404 -1.481855,3.314258 -3.31426,3.314258 H 4.1611314 c -1.8324046,0 -3.31425767,-1.481854 -3.31425767,-3.314258 z"
     id="path4118" />
  <rect
     style="opacity:0.55;fill:url(#radialGradient7462);fill-opacity:1;stroke:none;stroke-width:0.49791667"
     id="rect4131"
     width="41.949482"
     height="2.1161458"
     x="2.7763009"
     y="40.057812"
     rx="2.1161458"
     ry="2.1161458" />
  <rect
     ry="2.1161458"
     rx="2.1161458"
     y="-44.954826"
     x="2.8684161"
     height="2.1161458"
     width="38.215103"
     id="rect4141"
     style="opacity:0.669;fill:url(#radialGradient7464);fill-opacity:1;stroke:none;stroke-width:0.49791667"
     transform="rotate(90)" />
  <rect
     transform="matrix(0.53239495,0,0,0.52165878,2.2386637,19.259328)"
     style="opacity:0.7;fill:url(#linearGradient4767);fill-opacity:1;stroke:none"
     id="rect4146"
     width="75.965775"
     height="69.024437"
     x="2"
     y="-30"
     rx="3.9569874"
     ry="3.9569881"
     clip-path="url(#clipPath4156-4-1)" />
  <path
     inkscape:connector-curvature="0"
     id="path4989"
     d="m 4.9920701,2.4548766 c -1.5518175,0 -2.8221742,1.2644644 -2.8221742,2.8112405 V 39.760786 c 0,1.546775 1.2703567,2.811239 2.8221742,2.811239 H 43.227979 c 1.551818,0 2.822176,-1.264464 2.822176,-2.811239 V 5.2661171 c 0,-1.5467751 -1.270358,-2.8112405 -2.822176,-2.8112405 z m 0,1.1548879 H 43.227979 c 0.940117,0 1.669028,0.7369634 1.669028,1.6563526 V 39.760786 c 0,0.91939 -0.728911,1.65635 -1.669028,1.65635 H 4.9920701 c -0.9401159,0 -1.6690276,-0.73696 -1.6690276,-1.65635 V 5.2661171 c 0,-0.9193892 0.7289117,-1.6563526 1.6690276,-1.6563526 z"
     style="color:#000000;font-style:normal;font-variant:normal;font-weight:normal;font-stretch:normal;font-size:medium;line-height:normal;font-family:Sans;-inkscape-font-specification:Sans;text-indent:0;text-align:start;text-decoration:none;text-decoration-line:none;letter-spacing:normal;word-spacing:normal;text-transform:none;writing-mode:lr-tb;direction:ltr;baseline-shift:baseline;text-anchor:start;display:inline;overflow:visible;visibility:visible;fill:#212121;fill-opacity:1;stroke:none;stroke-width:1.18280113;marker:none;enable-background:accumulate" />
</svg>
