<?xml version="1.0" encoding="UTF-8" standalone="no"?>
<!-- Created with Inkscape (http://www.inkscape.org/) -->

<svg
   xmlns:dc="http://purl.org/dc/elements/1.1/"
   xmlns:cc="http://creativecommons.org/ns#"
   xmlns:rdf="http://www.w3.org/1999/02/22-rdf-syntax-ns#"
   xmlns:svg="http://www.w3.org/2000/svg"
   xmlns="http://www.w3.org/2000/svg"
   xmlns:xlink="http://www.w3.org/1999/xlink"
   xmlns:sodipodi="http://sodipodi.sourceforge.net/DTD/sodipodi-0.dtd"
   xmlns:inkscape="http://www.inkscape.org/namespaces/inkscape"
   width="96"
   height="96"
   id="svg13094"
   version="1.1"
   inkscape:version="0.92.2 5c3e80d, 2017-08-06"
   sodipodi:docname="syncthing-gtk.svg">
  <sodipodi:namedview
     id="base"
     pagecolor="#ffffff"
     bordercolor="#666666"
     borderopacity="1.0"
     inkscape:pageopacity="0"
     inkscape:pageshadow="2"
     inkscape:zoom="3.1015626"
     inkscape:cx="-19.674642"
     inkscape:cy="33.255015"
     inkscape:document-units="px"
     inkscape:current-layer="svg13094"
     showgrid="false"
     inkscape:snap-bbox="true"
     inkscape:bbox-paths="true"
     inkscape:bbox-nodes="true"
     inkscape:snap-bbox-edge-midpoints="true"
     inkscape:snap-bbox-midpoints="true"
     inkscape:object-paths="true"
     inkscape:snap-intersection-paths="true"
     inkscape:object-nodes="true"
     inkscape:snap-smooth-nodes="true"
     inkscape:snap-midpoints="true"
     inkscape:snap-object-midpoints="true"
     inkscape:snap-center="true"
     showguides="true"
     inkscape:guide-bbox="true"
     inkscape:window-width="1280"
     inkscape:window-height="972"
     inkscape:window-x="0"
     inkscape:window-y="23"
     inkscape:window-maximized="1"
     inkscape:snap-global="false"
     fit-margin-top="0"
     fit-margin-left="0"
     fit-margin-right="0"
     fit-margin-bottom="0"
     showborder="true"
     inkscape:showpageshadow="false"
     inkscape:snap-page="true">
    <inkscape:grid
       type="xygrid"
       id="grid3075"
       empspacing="5"
       visible="true"
       enabled="true"
       snapvisiblegridlinesonly="true"
       originx="1.6362304e-08"
       originy="18"
       spacingx="1"
       spacingy="1" />
  </sodipodi:namedview>
  <defs
     id="defs13096">
    <linearGradient
       inkscape:collect="always"
       xlink:href="#linearGradient6139-0"
       id="linearGradient4071"
       gradientUnits="userSpaceOnUse"
       gradientTransform="matrix(1.1071428,0,0,1.1071426,-5.142859,-4.035687)"
       x1="6"
       y1="47.000011"
       x2="90"
       y2="47.000011" />
    <linearGradient
       id="linearGradient6139-0">
      <stop
         id="stop6141-2"
         offset="0"
         style="stop-color:#b2babc;stop-opacity:1" />
      <stop
         style="stop-color:#ffffff;stop-opacity:1;"
         offset="0.25"
         id="stop6151-0" />
      <stop
         style="stop-color:#96a1a4;stop-opacity:1"
         offset="0.5"
         id="stop6147-1" />
      <stop
         id="stop6149-4"
         offset="0.75"
         style="stop-color:#fbf9f9;stop-opacity:1;" />
      <stop
         id="stop6143-4"
         offset="1"
         style="stop-color:#b2b9bc;stop-opacity:1" />
    </linearGradient>
    <linearGradient
       gradientTransform="translate(-2.95e-6,2.6e-5)"
       inkscape:collect="always"
       xlink:href="#linearGradient3832-0-6-1-1"
       id="linearGradient4129"
       x1="1.5"
       y1="88.171875"
       x2="94.5"
       y2="88.171875"
       gradientUnits="userSpaceOnUse" />
    <linearGradient
       id="linearGradient3832-0-6-1-1">
      <stop
         style="stop-color:#000000;stop-opacity:1;"
         offset="0"
         id="stop3834-6-3-7-1" />
      <stop
         id="stop3872-2-4"
         offset="0.1"
         style="stop-color:#000000;stop-opacity:0.58823532;" />
      <stop
         style="stop-color:#000000;stop-opacity:0.58823532;"
         offset="0.89999998"
         id="stop3844-6-2-7-6" />
      <stop
         style="stop-color:#000000;stop-opacity:1;"
         offset="1"
         id="stop3836-5-0-2-9" />
    </linearGradient>
    <radialGradient
       inkscape:collect="always"
       xlink:href="#linearGradient3737"
       id="radialGradient7462"
       gradientUnits="userSpaceOnUse"
       gradientTransform="matrix(0.97513378,0,0,0.04919072,33.898693,80.166722)"
       cx="13.948145"
       cy="44.892841"
       fx="13.948145"
       fy="44.892841"
       r="43.199203" />
    <linearGradient
       id="linearGradient3737">
      <stop
         offset="0"
         style="stop-color:#ffffff;stop-opacity:1"
         id="stop3739" />
      <stop
         offset="1"
         style="stop-color:#ffffff;stop-opacity:0"
         id="stop3741" />
    </linearGradient>
    <radialGradient
       inkscape:collect="always"
       xlink:href="#linearGradient3737"
       id="radialGradient7464"
       gradientUnits="userSpaceOnUse"
       gradientTransform="matrix(0.88832663,0,0,0.04919072,31.544518,-90.168304)"
       cx="13.948145"
       cy="44.892841"
       fx="13.948145"
       fy="44.892841"
       r="43.199203" />
    <linearGradient
       inkscape:collect="always"
       xlink:href="#linearGradient3737"
       id="linearGradient4767"
       gradientUnits="userSpaceOnUse"
       x1="2.7713892"
       y1="-28.64156"
       x2="50.527882"
       y2="14.514202" />
    <clipPath
       id="clipPath4156-4-1"
       clipPathUnits="userSpaceOnUse">
      <path
         inkscape:connector-curvature="0"
         id="path4158-0-8"
         d="m 27.046336,-55.695463 -14.21366,13.321486 h 0.06127 l 15.653407,21.770763 10.231384,-10.546177 C 38.561832,-32.30156 27.468089,-54.819245 27.046336,-55.695463 Z M 9.6468554,-39.382809 -5.2407289,-25.32124 15.987863,-7.8059573 26.372412,-18.382966 Z m 31.4906096,12.951445 -9.741259,9.713584 8.944804,12.4580526 7.780753,-7.5550056 z m -49.8397109,4.378822 -13.7541661,12.9822847 26.2830181,13.84571 0.06127,-0.0617 -0.122531,-0.0617 L 13.598503,-5.4007374 -8.7022409,-22.052595 Z m 38.0154159,7.400825 -9.802525,9.7752596 11.579232,9.5594001 7.62759,-7.40083 -8.669108,-11.0087257 z m 20.187073,5.6739697 -7.382526,7.2158 6.187844,8.54179 5.820249,-6.13651996 z m -32.195166,6.32154 -9.5574606,9.49772 13.6622686,7.1849703 7.933918,-7.6783603 z m 23.311629,2.37443004 -7.10683,6.93826996 8.362778,6.9074403 5.360756,-5.6739699 -0.06127,-0.0925 -0.0919,0.12335 -6.463539,-8.20258036 z m -8.730374,8.54178036 -7.505057,7.3391599 10.353916,5.45811 c 1.397496,-1.32103 5.67514,-6.12292 5.850882,-6.32154 z"
         style="opacity:0.6;fill:#ffffff;fill-opacity:1;stroke:none" />
    </clipPath>
    <linearGradient
       id="ButtonShadow-16"
       gradientTransform="scale(1.0058652,0.994169)"
       x1="45.447727"
       y1="92.539597"
       x2="45.447727"
       y2="7.0165396"
       gradientUnits="userSpaceOnUse">
      <stop
         style="stop-color:#000000;stop-opacity:1;"
         offset="0"
         id="stop3750-6" />
      <stop
         style="stop-color:#000000;stop-opacity:0.58823532;"
         offset="1"
         id="stop3752-4" />
    </linearGradient>
    <clipPath
       clipPathUnits="userSpaceOnUse"
       id="clipPath4355-7">
      <rect
         style="fill:#ffffff;fill-opacity:1;fill-rule:nonzero;stroke:none"
         id="rect4357-5"
         width="84"
         height="80"
         x="6"
         y="6"
         rx="6"
         ry="6" />
    </clipPath>
    <clipPath
       clipPathUnits="userSpaceOnUse"
       id="clipPath4355-9">
      <rect
         style="fill:#ffffff;fill-opacity:1;fill-rule:nonzero;stroke:none"
         id="rect4357-1"
         width="84"
         height="80"
         x="6"
         y="6"
         rx="6"
         ry="6" />
    </clipPath>
    <clipPath
       clipPathUnits="userSpaceOnUse"
       id="clipPath4355-1">
      <rect
         style="fill:#ffffff;fill-opacity:1;fill-rule:nonzero;stroke:none"
         id="rect4357-9"
         width="84"
         height="80"
         x="6"
         y="6"
         rx="6"
         ry="6" />
    </clipPath>
    <clipPath
       clipPathUnits="userSpaceOnUse"
       id="clipPath3943-52-0">
      <path
         id="path3945-4-1"
         d="m 69.78125,20.84375 -5,3.4375 c 5.586891,5.537137 9,13.327613 9,21.8125 0,8.434478 -3.37723,16.095981 -8.90625,21.625 l 5,3.4375 C 76.078226,64.5762 80,55.843726 80,46.09375 c 2e-6,-9.796556 -3.962955,-18.660417 -10.21875,-25.25 z M 40,24.0625 28.90625,36.21875 H 21.5 c -0.823281,0 -1.5,0.676717 -1.5,1.5 v 1 14.84375 1 c 0,0.823281 0.684121,1.610161 1.5,1.5 h 7.40625 L 40,68 V 66 26.0625 Z m 20.59375,3.28125 -5,3.4375 L 55.5,30.875 c 3.93815,3.890071 6.40625,9.25018 6.40625,15.21875 0,5.920869 -2.42961,11.148358 -6.3125,15.03125 l 0.09375,0.09375 5.09375,3.4375 c 4.475428,-4.908367 7.25,-11.402005 7.25,-18.5625 0,-7.230696 -2.87904,-13.83107 -7.4375,-18.75 z m -9.25,6.5 -5.21875,3.625 c 2.222384,2.217802 3.71875,5.239596 3.71875,8.625 0,3.336509 -1.458847,6.227712 -3.625,8.4375 l 5.21875,3.625 c 2.822412,-3.236947 4.53125,-7.43414 4.53125,-12.0625 0,-4.672601 -1.754155,-9.001351 -4.625,-12.25 z"
         style="color:#000000;display:inline;overflow:visible;visibility:visible;opacity:0.8;fill:#ff00ff;fill-opacity:1;fill-rule:nonzero;stroke:none;stroke-width:1;marker:none;enable-background:accumulate"
         inkscape:connector-curvature="0" />
    </clipPath>
  </defs>
  <metadata
     id="metadata13099">
    <rdf:RDF>
      <cc:Work
         rdf:about="">
        <dc:format>image/svg+xml</dc:format>
        <dc:type
           rdf:resource="http://purl.org/dc/dcmitype/StillImage" />
        <dc:title></dc:title>
        <dc:date>2018</dc:date>
        <dc:creator>
          <cc:Agent>
            <dc:title>Cristian Pozzessere  == ilnanny ==</dc:title>
          </cc:Agent>
        </dc:creator>
        <dc:subject>
          <rdf:Bag>
            <rdf:li>Global language</rdf:li>
          </rdf:Bag>
        </dc:subject>
        <dc:description>Playing with Inkscape on Gnu/Linux O. S.</dc:description>
        <dc:contributor>
          <cc:Agent>
            <dc:title>In the night, alone like a dog.</dc:title>
          </cc:Agent>
        </dc:contributor>
      </cc:Work>
    </rdf:RDF>
  </metadata>
  <path
     style="display:inline;opacity:0.15;fill:#000000;fill-opacity:1;fill-rule:nonzero;stroke:none"
     d="M 89.142854,2.6e-5 H 6.8571346 C 3.0582867,2.6e-5 -5.5e-7,3.058311 -5.5e-7,6.8571659 V 89.142884 c 0,3.798857 3.05828725,6.857142 6.85713515,6.857142 H 89.142854 c 3.798857,0 6.857147,-3.058285 6.857147,-6.857142 V 6.8571659 C 96.000001,3.058311 92.941711,2.6e-5 89.142854,2.6e-5 Z"
     id="path3288"
     inkscape:connector-curvature="0" />
  <path
     inkscape:connector-curvature="0"
     id="path4085"
     d="M 88.499998,0.750026 H 7.4999906 c -3.7394919,0 -6.74999295,3.010499 -6.74999295,6.7499969 V 88.500026 c 0,3.739501 3.01050105,6.75 6.74999295,6.75 H 88.499998 c 3.739503,0 6.750003,-3.010499 6.750003,-6.75 V 7.5000229 c 0,-3.7394979 -3.0105,-6.7499969 -6.750003,-6.7499969 z"
     style="display:inline;opacity:0.15;fill:#000000;fill-opacity:1;fill-rule:nonzero;stroke:none" />
  <path
     style="display:inline;fill:url(#linearGradient4071);fill-opacity:1;fill-rule:nonzero;stroke:none"
     d="M 87.857137,1.500026 H 8.1428547 c -3.6801431,0 -6.6428566,2.962713 -6.6428566,6.6428549 V 87.857171 c 0,3.680142 2.9627135,6.642856 6.6428566,6.642856 H 87.857137 c 3.680143,0 6.642854,-2.962714 6.642854,-6.642856 V 8.1428809 c 0,-3.6801419 -2.962711,-6.6428549 -6.642854,-6.6428549 z"
     id="rect4251-1"
     inkscape:connector-curvature="0" />
  <path
     style="display:inline;opacity:0.95999995;fill:#139fde;fill-opacity:1;fill-rule:nonzero;stroke:none;stroke-width:1.02950251"
     d="m 11.241291,6.3871682 c -2.8564968,0 -5.1241288,2.2883782 -5.1241288,5.1710028 v 21.42734 7.239403 39.913674 c 1.0972399,1.684484 2.9688485,2.811732 5.1241288,2.811732 h 4.099303 65.588849 4.099302 c 2.155281,0 4.026889,-1.127248 5.124129,-2.811732 V 40.224914 32.985511 11.558171 c 0,-2.8826246 -2.267632,-5.1710028 -5.124129,-5.1710028 z"
     id="path3400-6"
     inkscape:connector-curvature="0"
     sodipodi:nodetypes="sscccsccscccsss" />
  <path
     inkscape:connector-curvature="0"
     id="path4989"
     d="m 9.8250777,4.7294869 c -3.116621,0 -5.667965,2.53951 -5.667965,5.6460041 v 69.277996 c 0,3.106495 2.551344,5.646004 5.667965,5.646004 H 86.616863 c 3.116621,0 5.667968,-2.539509 5.667968,-5.646004 V 10.375491 c 0,-3.1064931 -2.551347,-5.6460041 -5.667968,-5.6460041 z m 0,2.319439 H 86.616863 c 1.888099,0 3.352022,1.480095 3.352022,3.3265651 v 69.277996 c 0,1.846474 -1.463923,3.326564 -3.352022,3.326564 H 9.8250777 c -1.888099,0 -3.352022,-1.48009 -3.352022,-3.326564 V 10.375491 c 0,-1.8464701 1.463923,-3.3265651 3.352022,-3.3265651 z"
     style="color:#000000;font-style:normal;font-variant:normal;font-weight:normal;font-stretch:normal;font-size:medium;line-height:normal;font-family:Sans;-inkscape-font-specification:Sans;text-indent:0;text-align:start;text-decoration:none;text-decoration-line:none;letter-spacing:normal;word-spacing:normal;text-transform:none;writing-mode:lr-tb;direction:ltr;baseline-shift:baseline;text-anchor:start;display:inline;overflow:visible;visibility:visible;fill:#202223;fill-opacity:0.93689324;stroke:none;stroke-width:2.3755002;marker:none;enable-background:accumulate" />
  <path
     inkscape:connector-curvature="0"
     style="display:inline;opacity:0.65818182;fill:url(#linearGradient4129);fill-opacity:1;fill-rule:nonzero;stroke:none"
     d="m 1.499997,81.843776 v 6 c 0,3.680142 2.9761066,6.65625 6.6562497,6.65625 H 87.843747 c 3.680143,0 6.656254,-2.976108 6.656254,-6.65625 v -6 c 0,3.680142 -2.976111,6.65625 -6.656254,6.65625 H 8.1562467 c -3.6801431,0 -6.6562496,-2.976108 -6.6562497,-6.65625 z"
     id="path4118" />
  <rect
     style="opacity:0.55;fill:url(#radialGradient7462);fill-opacity:1;stroke:none"
     id="rect4131"
     width="84.250008"
     height="4.25"
     x="5.3749976"
     y="80.250031"
     rx="0"
     ry="4.25" />
  <rect
     ry="4.25"
     rx="0"
     y="-90.085007"
     x="5.5600224"
     height="4.25"
     width="76.75"
     id="rect4141"
     style="opacity:0.669;fill:url(#radialGradient7464);fill-opacity:1;stroke:none"
     transform="rotate(90)" />
  <g
     transform="matrix(1.391082,0,0,1.391082,128.55306,-72.752579)"
     id="g946">
    <path
       inkscape:connector-curvature="0"
       id="path936"
       d="m -57.714844,59.974609 c -12.468215,-0.738787 -24.131177,10.113393 -24.703399,22.50875 -0.201669,3.26048 -3.522113,6.047314 -2.103101,9.383046 0.909677,2.814566 4.0395,3.562497 5.626295,5.81413 1.993203,2.710215 4.066642,5.425835 6.934669,7.279345 6.948079,4.91355 16.533132,5.90286 24.242808,2.21639 2.961081,-0.31638 6.806478,0.87311 8.607622,-2.39346 1.568007,-2.18111 0.612986,-5.08949 2.374425,-7.163695 3.372809,-5.484784 4.634839,-12.316671 3.107364,-18.600474 2.244018,-2.976878 1.374754,-8.412786 -2.612874,-9.370316 -3.936838,-1.514331 -6.313872,-5.391386 -10.184672,-7.050981 -3.448936,-1.830401 -7.376384,-2.820487 -11.289137,-2.622735 z m -0.01172,2.900391 c 6.534319,-0.446141 12.699878,3.113716 16.971701,7.832273 2.25977,1.132857 6.899922,2.205553 4.998582,5.685885 -1.245715,4.213996 0.668931,8.702455 -0.882696,12.885853 0.421517,-3.280371 1.215788,-6.936637 -0.448939,-9.997285 -2.315963,-2.869784 -6.31543,-0.472313 -8.251101,1.658938 -2.47348,1.990306 -5.250825,4.321421 -5.37857,7.759632 -0.27495,3.12751 1.906703,5.587174 3.667601,7.884182 1.889055,2.097789 5.833385,2.636085 7.496859,-0.02014 0.903751,-1.082321 1.893943,-4.012522 2.089022,-4.259734 -0.979366,3.168654 -3.7153,5.820752 -3.454131,9.327916 -0.536674,3.73745 -4.975023,1.99814 -7.460004,2.74306 -1.023831,0.19239 -3.20568,1.27851 -1.021456,0.42014 3.060623,-1.7136 3.808875,-6.211788 1.695412,-8.950598 -1.338604,-3.340685 -4.522059,-4.812499 -7.525534,-6.212433 -2.591072,-2.068841 -5.77659,-1.374005 -8.746222,-0.983407 -3.517253,0.323703 -7.037843,0.609322 -10.55716,0.909307 -2.537558,1.717549 -3.713442,5.59594 -0.9901,7.701319 0.694537,0.765693 3.17886,3.641872 1.260992,1.604388 -2.032788,-2.31403 -3.59623,-5.277466 -6.533816,-6.586671 -2.20709,-1.90905 -0.176157,-4.638289 0.647938,-6.713531 0.884748,-3.681776 0.872969,-7.702607 2.890706,-11.051621 3.712282,-7.021409 11.422886,-12.212521 19.530916,-11.637471 z m -0.779297,0.09766 c -11.196852,0.0248 -21.396017,10.278789 -20.94714,21.54752 0.837739,3.548164 4.841576,5.219801 8.204378,4.737317 3.957049,-0.427733 7.916919,-0.811687 11.878443,-1.179241 3.005187,-0.430239 4.507269,-4.407823 8.06353,-3.559807 3.04193,0.116081 4.740881,-3.496767 7.317331,-4.815657 2.387336,-2.006708 3.515076,-5.573427 2.769965,-8.582278 -1.230143,-2.910369 -4.36272,-4.236143 -6.86943,-5.833528 -3.213223,-1.604976 -6.821989,-2.442097 -10.417077,-2.314326 z m 0.08398,2.900391 c 5.518855,-0.190135 11.075796,2.202187 14.705078,6.369141 0.01406,3.397727 -2.555103,6.085435 -5.218379,7.846964 -2.127961,2.926284 -6.737004,0.663472 -8.789834,3.707856 -2.677421,2.48696 -6.492962,1.537774 -9.774028,2.147138 -2.188603,0.242119 -4.384126,0.477314 -6.588899,0.471865 -3.232408,-1.413025 -2.758923,-5.540318 -1.455661,-8.153089 2.532774,-7.039293 9.580284,-12.333796 17.121723,-12.389875 z m 18.222656,14.912109 c 2.527621,2.157899 0.587963,5.610047 0.692135,8.350079 -0.597431,2.147275 -1.120429,4.698498 -3.107368,5.999389 -2.366988,0.524075 -3.795492,-2.273244 -4.657878,-4.078114 -0.897317,-2.013179 -0.444727,-4.614191 1.467563,-5.877957 1.780872,-1.570619 3.600763,-3.112418 5.605548,-4.393397 z M -58.435547,91 c 1.933413,2.631765 6.144258,2.098268 7.688455,5.219712 1.851727,1.885837 1.575726,5.862848 -1.309182,6.558138 -4.832107,1.05979 -10.204657,1.18063 -14.592144,-1.44812 -3.176457,-1.7484 -5.859018,-4.386893 -7.646503,-7.542621 1.905051,-2.683808 5.445777,-1.414798 8.177747,-1.944299 2.536364,-0.40859 5.131598,-0.479566 7.681627,-0.84281 z m -12.462891,10.95117 c 2.777405,2.05416 6.024962,3.45582 9.41211,4.1211 -3.495489,-0.26434 -6.685219,-2.01885 -9.41211,-4.1211 z m 18.339844,3.74024 c -0.762579,0.48636 -3.223859,0.50537 -1.120038,0.25236 l 0.561696,-0.11876 z m -7.324218,0.66601 c 1.779864,0.0712 2.266732,0.0568 0.392556,0.0282 -0.130852,-0.009 -0.261704,-0.0188 -0.392556,-0.0282 z"
       style="color:#000000;font-style:normal;font-variant:normal;font-weight:normal;font-stretch:normal;font-size:medium;line-height:normal;font-family:sans-serif;font-variant-ligatures:normal;font-variant-position:normal;font-variant-caps:normal;font-variant-numeric:normal;font-variant-alternates:normal;font-feature-settings:normal;text-indent:0;text-align:start;text-decoration:none;text-decoration-line:none;text-decoration-style:solid;text-decoration-color:#000000;letter-spacing:normal;word-spacing:normal;text-transform:none;writing-mode:lr-tb;direction:ltr;text-orientation:mixed;dominant-baseline:auto;baseline-shift:baseline;text-anchor:start;white-space:normal;shape-padding:0;clip-rule:nonzero;display:inline;overflow:visible;visibility:visible;opacity:1;isolation:auto;mix-blend-mode:normal;color-interpolation:sRGB;color-interpolation-filters:linearRGB;solid-color:#000000;solid-opacity:1;vector-effect:none;fill:#000000;fill-opacity:0.16964285;fill-rule:nonzero;stroke:none;stroke-width:2.9000001;stroke-linecap:butt;stroke-linejoin:miter;stroke-miterlimit:4;stroke-dasharray:none;stroke-dashoffset:0;stroke-opacity:1;marker:none;color-rendering:auto;image-rendering:auto;shape-rendering:auto;text-rendering:auto;enable-background:accumulate" />
    <path
       id="path3855"
       d="m -57.720614,61.425194 c -3.561673,-0.01617 -4.878393,0.142568 -6.956036,0.800859 -6.853066,2.171361 -12.512981,7.513733 -15.033277,14.209536 -0.48901,1.299183 -1.079789,3.975673 -1.315698,5.937801 -0.332608,2.766379 -0.618369,3.798717 -1.269934,4.587781 -2.033363,2.462448 -1.261071,5.615121 1.773331,7.219176 1.256616,0.664276 2.122518,1.517653 3.146234,3.111911 2.750651,4.283672 8.314452,8.479082 12.882397,9.713282 4.053492,1.09521 6.849661,1.23692 10.617109,0.5606 1.510192,-0.2711 3.803762,-0.92338 5.102619,-1.45299 2.050717,-0.83616 2.525558,-0.90881 3.615309,-0.54916 2.991148,0.98717 5.725093,-1.19903 5.674662,-4.54201 -0.02149,-1.423481 0.193092,-2.146912 1.029677,-3.386496 3.293742,-4.8804 4.800225,-12.090654 3.603867,-17.275684 -0.301244,-1.305591 -0.238705,-1.779064 0.377548,-2.928857 0.867967,-1.619444 0.919885,-2.608972 0.217377,-4.290319 -0.59409,-1.421855 -1.675823,-2.209368 -3.512341,-2.574191 -0.862029,-0.171242 -2.000253,-0.949812 -3.478019,-2.379697 -2.847413,-2.755154 -5.663778,-4.509599 -9.221326,-5.743306 -2.478194,-0.859403 -3.454448,-1.000989 -7.253499,-1.018236 z m -0.743655,2.997503 c 3.752625,-0.109844 7.587905,0.819823 11.063302,2.883093 1.245175,0.739235 2.961643,2.064428 3.821245,2.940299 1.507904,1.536441 1.546078,1.639477 1.121203,2.814449 -0.242205,0.66981 -0.434752,1.793397 -0.434752,2.505546 0,1.199077 -0.286853,1.532783 -3.912771,4.542018 l -3.924212,3.260642 -1.922063,-0.114409 c -2.317213,-0.127058 -3.906221,0.600203 -4.702189,2.139439 -0.31062,0.600669 -0.606958,1.097934 -0.652129,1.098322 -0.04517,3.66e-4 -3.457425,0.330276 -7.585283,0.732214 -9.219374,0.897713 -8.888673,0.890706 -9.736164,-0.04576 -0.383113,-0.423334 -1.170928,-1.016017 -1.75045,-1.315698 -1.04167,-0.538672 -1.047685,-0.566448 -0.869504,-3.157675 0.232811,-3.385727 1.319692,-6.403434 3.443696,-9.518787 3.757054,-5.510608 9.785697,-8.580619 16.040071,-8.76369 z m 18.122307,14.918868 c 0.217398,-0.02148 0.437228,-0.0041 0.686451,0.04576 1.820688,0.364138 2.054795,0.95829 2.059353,5.045415 0.0048,4.267821 -0.914905,7.735688 -2.860212,10.708635 -1.226126,1.873843 -1.516819,2.011412 -3.535223,1.647483 -1.073141,-0.193491 -1.603853,-0.694425 -3.386492,-3.157675 -1.820465,-2.515511 -2.09577,-3.083863 -1.88774,-4.027179 0.133215,-0.604077 0.288774,-1.67494 0.343225,-2.379697 0.105922,-1.370939 0.616148,-1.914718 5.617458,-6.006446 1.64596,-1.346609 2.310982,-1.811856 2.96318,-1.876299 z m -18.190952,10.205238 c 0.463323,-0.02998 0.901067,0.188706 1.269934,0.629247 0.89194,1.065258 2.411999,1.807654 3.706836,1.807654 1.151052,0 2.234147,1.089374 4.747953,4.816598 0.979959,1.452991 1.100122,1.859941 0.789418,2.677159 -0.201593,0.530229 -0.366107,1.450679 -0.366107,2.036469 0,1.20785 -0.778322,1.73411 -3.924211,2.66572 -2.083249,0.61693 -6.231896,1.00469 -7.974273,0.74366 -3.730054,-0.55882 -7.379722,-2.14286 -10.342528,-4.48482 -1.907133,-1.507503 -5.217028,-5.756726 -5.217028,-6.692895 0,-0.284077 0.453058,-1.021974 1.006795,-1.647483 l 1.006795,-1.144085 7.13909,-0.606365 c 3.9265,-0.33244 7.510854,-0.671396 7.962832,-0.766537 0.06738,-0.01417 0.128306,-0.03002 0.194494,-0.0343 z"
       style="color:#000000;display:inline;overflow:visible;visibility:visible;fill:#dbf0ff;fill-opacity:1;fill-rule:nonzero;stroke:none;stroke-width:1;marker:none;enable-background:accumulate"
       inkscape:connector-curvature="0" />
  </g>
  <rect
     transform="matrix(1.0692451,0,0,1.0476829,4.2952237,38.479013)"
     style="opacity:0.65;fill:url(#linearGradient4767);fill-opacity:1;stroke:none"
     id="rect4146"
     width="75.965775"
     height="69.024437"
     x="2"
     y="-30"
     rx="3.9569874"
     ry="3.9569881"
     clip-path="url(#clipPath4156-4-1)" />
  <g
     id="g3043"
     inkscape:export-filename="folder.png"
     inkscape:export-xdpi="90"
     inkscape:export-ydpi="90"
     transform="translate(-0.62500009,32.082283)" />
  <g
     id="scalable"
     transform="matrix(1.0385892,0,0,1.0385892,1214.7222,1910.8121)"
     inkscape:label="#g3701"
     style="fill:#ffffff" />
</svg>
