<?xml version="1.0" encoding="UTF-8" standalone="no"?>
<!-- Created with Inkscape (http://www.inkscape.org/) -->

<svg
   xmlns:dc="http://purl.org/dc/elements/1.1/"
   xmlns:cc="http://creativecommons.org/ns#"
   xmlns:rdf="http://www.w3.org/1999/02/22-rdf-syntax-ns#"
   xmlns:svg="http://www.w3.org/2000/svg"
   xmlns="http://www.w3.org/2000/svg"
   xmlns:xlink="http://www.w3.org/1999/xlink"
   xmlns:sodipodi="http://sodipodi.sourceforge.net/DTD/sodipodi-0.dtd"
   xmlns:inkscape="http://www.inkscape.org/namespaces/inkscape"
   width="96"
   height="96"
   id="svg2"
   version="1.1"
   inkscape:version="0.48.5 r10040"
   sodipodi:docname="Nuovo documento 7">
  <script
     xlink:href=""
     id="script2985" />
  <defs
     id="defs4">
    <linearGradient
       inkscape:collect="always"
       xlink:href="#linearGradient4213-7"
       id="linearGradient7466"
       gradientUnits="userSpaceOnUse"
       x1="2.7713892"
       y1="-28.64156"
       x2="50.527882"
       y2="14.514202" />
    <linearGradient
       id="linearGradient4213-7"
       inkscape:collect="always">
      <stop
         id="stop4215-6"
         offset="0"
         style="stop-color:#ffffff;stop-opacity:1;" />
      <stop
         id="stop4217-5"
         offset="1"
         style="stop-color:#ffffff;stop-opacity:0;" />
    </linearGradient>
    <clipPath
       id="clipPath4156-4"
       clipPathUnits="userSpaceOnUse">
      <path
         inkscape:connector-curvature="0"
         id="path4158-0"
         d="m 27.046336,-55.695463 -14.21366,13.321486 0.06127,0 15.653407,21.770763 10.231384,-10.546177 C 38.561832,-32.30156 27.468089,-54.819245 27.046336,-55.695463 z M 9.6468554,-39.382809 -5.2407289,-25.32124 15.987863,-7.8059573 26.372412,-18.382966 9.6468554,-39.382809 z m 31.4906096,12.951445 -9.741259,9.713584 8.944804,12.4580526 7.780753,-7.5550056 -6.984298,-14.616631 z m -49.8397109,4.378822 -13.7541661,12.9822847 26.2830181,13.84571 0.06127,-0.0617 -0.122531,-0.0617 L 13.598503,-5.4007374 -8.7022409,-22.052595 z m 38.0154159,7.400825 -9.802525,9.7752596 11.579232,9.5594001 7.62759,-7.40083 -8.669108,-11.0087257 -0.735189,-0.925104 z m 20.187073,5.6739697 -7.382526,7.2158 6.187844,8.54179 5.820249,-6.13651996 -4.625567,-9.62107004 z m -32.195166,6.32154 -9.5574606,9.49772 13.6622686,7.1849703 7.933918,-7.6783603 -12.038726,-9.00433 z m 23.311629,2.37443004 -7.10683,6.93826996 8.362778,6.9074403 5.360756,-5.6739699 -0.06127,-0.0925 -0.0919,0.12335 -6.463539,-8.20258036 z m -8.730374,8.54178036 -7.505057,7.3391599 10.353916,5.45811 c 1.397496,-1.32103 5.67514,-6.12292 5.850882,-6.32154 L 31.886332,8.2600031 z"
         style="opacity:0.6;fill:#ffffff;fill-opacity:1;stroke:none" />
    </clipPath>
    <radialGradient
       inkscape:collect="always"
       xlink:href="#linearGradient4133"
       id="radialGradient7464"
       gradientUnits="userSpaceOnUse"
       gradientTransform="matrix(0.88832663,0,0,0.04919072,16.865751,-104.43703)"
       cx="13.948145"
       cy="44.892841"
       fx="13.948145"
       fy="44.892841"
       r="43.199203" />
    <linearGradient
       id="linearGradient4133"
       inkscape:collect="always">
      <stop
         id="stop4135"
         offset="0"
         style="stop-color:#ffffff;stop-opacity:1;" />
      <stop
         id="stop4137"
         offset="1"
         style="stop-color:#ffffff;stop-opacity:0;" />
    </linearGradient>
    <radialGradient
       inkscape:collect="always"
       xlink:href="#linearGradient4133"
       id="radialGradient7462"
       gradientUnits="userSpaceOnUse"
       gradientTransform="matrix(0.97513378,0,0,0.04919072,47.627425,66.297955)"
       cx="13.948145"
       cy="44.892841"
       fx="13.948145"
       fy="44.892841"
       r="43.199203" />
    <linearGradient
       inkscape:collect="always"
       xlink:href="#linearGradient3832-0-6-1-1"
       id="linearGradient7460"
       gradientUnits="userSpaceOnUse"
       x1="1.5"
       y1="88.171875"
       x2="94.5"
       y2="88.171875"
       gradientTransform="translate(13.72873,-13.868741)" />
    <linearGradient
       id="linearGradient3832-0-6-1-1">
      <stop
         id="stop3834-6-3-7-1"
         offset="0"
         style="stop-color:#000000;stop-opacity:1;" />
      <stop
         style="stop-color:#000000;stop-opacity:0.58823532;"
         offset="0.1"
         id="stop3872-2-4" />
      <stop
         id="stop3844-6-2-7-6"
         offset="0.89999998"
         style="stop-color:#000000;stop-opacity:0.58823532;" />
      <stop
         id="stop3836-5-0-2-9"
         offset="1"
         style="stop-color:#000000;stop-opacity:1;" />
    </linearGradient>
    <linearGradient
       gradientTransform="scale(1.0058652,0.994169)"
       gradientUnits="userSpaceOnUse"
       id="ButtonShadow-66"
       y2="7.0165396"
       x2="45.447727"
       y1="92.539597"
       x1="45.447727">
      <stop
         offset="0"
         style="stop-color:#000000;stop-opacity:1"
         id="stop3750-46" />
      <stop
         offset="1"
         style="stop-color:#000000;stop-opacity:0.58823532"
         id="stop3752-1" />
    </linearGradient>
    <filter
       id="filter3174-81"
       color-interpolation-filters="sRGB">
      <feGaussianBlur
         stdDeviation="1.71"
         id="feGaussianBlur3176-2" />
    </filter>
    <linearGradient
       gradientTransform="matrix(0.69714873,0,0,0.69714873,3.5409084,1.9369824)"
       gradientUnits="userSpaceOnUse"
       xlink:href="#linearGradient5118"
       id="linearGradient4381"
       y2="21.933983"
       x2="64.606834"
       y1="22.808496"
       x1="58.409904" />
    <linearGradient
       id="linearGradient5118">
      <stop
         offset="0"
         style="stop-color:#129fde;stop-opacity:1;"
         id="stop5120" />
      <stop
         offset="0.5"
         style="stop-color:#65c7f3;stop-opacity:1;"
         id="stop5128" />
      <stop
         offset="1"
         style="stop-color:#0c5aa2;stop-opacity:1;"
         id="stop5122" />
    </linearGradient>
    <linearGradient
       gradientTransform="matrix(0.69714873,0,0,0.69714873,3.5409084,1.9369824)"
       gradientUnits="userSpaceOnUse"
       xlink:href="#linearGradient5118"
       id="linearGradient4378"
       y2="55"
       x2="64.706467"
       y1="54.138271"
       x1="54.880836" />
    <linearGradient
       id="linearGradient5041">
      <stop
         offset="0"
         style="stop-color:#129fde;stop-opacity:1;"
         id="stop5043" />
      <stop
         offset="0.5"
         style="stop-color:#65c7f3;stop-opacity:1;"
         id="stop5045" />
      <stop
         offset="1"
         style="stop-color:#0c5aa2;stop-opacity:1;"
         id="stop5047" />
    </linearGradient>
    <linearGradient
       gradientTransform="matrix(0.69714873,0,0,0.69714873,3.5409084,1.9369824)"
       gradientUnits="userSpaceOnUse"
       xlink:href="#linearGradient5137-9"
       id="linearGradient4375"
       y2="51.703251"
       x2="69.918655"
       y1="28.055578"
       x1="63.582283" />
    <linearGradient
       id="linearGradient5137-9">
      <stop
         offset="0"
         style="stop-color:#000000;stop-opacity:1"
         id="stop5139-3" />
      <stop
         offset="1"
         style="stop-color:#000000;stop-opacity:0"
         id="stop5141-7" />
    </linearGradient>
    <linearGradient
       gradientTransform="matrix(0.64339645,0,0,0.65538394,6.8025211,2.7230809)"
       gradientUnits="userSpaceOnUse"
       xlink:href="#linearGradient5081"
       id="linearGradient4450"
       y2="12.028901"
       x2="47.759033"
       y1="5.2826524"
       x1="52.470821" />
    <linearGradient
       spreadMethod="pad"
       gradientTransform="matrix(1.0172414,0,0,1.0172414,-1.1034483,-1.1034483)"
       gradientUnits="userSpaceOnUse"
       xlink:href="#linearGradient5059-3"
       id="linearGradient5081"
       y2="5.4252338"
       x2="58.650177"
       y1="122"
       x1="58.650177">
      <stop
         offset="0"
         style="stop-color:#dcdcdc;stop-opacity:1"
         id="stop5083" />
      <stop
         offset="1"
         style="stop-color:#f0f0f0;stop-opacity:1"
         id="stop5085" />
    </linearGradient>
    <linearGradient
       spreadMethod="pad"
       gradientTransform="matrix(1.0172414,0,0,1.0172414,-1.1034483,-1.1034483)"
       gradientUnits="userSpaceOnUse"
       xlink:href="#linearGradient5051-4"
       id="linearGradient5059-3"
       y2="5.4252338"
       x2="58.650177"
       y1="122"
       x1="58.650177">
      <stop
         offset="0"
         style="stop-color:#dcdcdc;stop-opacity:1"
         id="stop5061-0" />
      <stop
         offset="0.40241864"
         style="stop-color:#e4e4e4;stop-opacity:1"
         id="stop5065-6" />
      <stop
         offset="1"
         style="stop-color:#f0f0f0;stop-opacity:1"
         id="stop5063-2" />
    </linearGradient>
    <linearGradient
       gradientTransform="matrix(1.0172414,0,0,1.0172414,-1.1034483,-1.1034483)"
       gradientUnits="userSpaceOnUse"
       id="linearGradient5051-4"
       y2="5.4252338"
       x2="58.650177"
       y1="122"
       x1="58.650177">
      <stop
         offset="0"
         style="stop-color:#dcdcdc;stop-opacity:1"
         id="stop5053-5" />
      <stop
         offset="0.40241864"
         style="stop-color:#e4e4e4;stop-opacity:1"
         id="stop5057-0" />
      <stop
         offset="1"
         style="stop-color:#f0f0f0;stop-opacity:1"
         id="stop5055-2" />
    </linearGradient>
    <linearGradient
       gradientTransform="matrix(-0.64339645,0,0,0.65538394,89.209375,2.7230809)"
       gradientUnits="userSpaceOnUse"
       xlink:href="#linearGradient5081"
       id="linearGradient4447"
       y2="12.778483"
       x2="57.253754"
       y1="10.529735"
       x1="43.475822" />
    <linearGradient
       spreadMethod="pad"
       gradientTransform="matrix(1.0172414,0,0,1.0172414,-1.1034483,-1.1034483)"
       gradientUnits="userSpaceOnUse"
       xlink:href="#linearGradient5059-3"
       id="linearGradient5066"
       y2="5.4252338"
       x2="58.650177"
       y1="122"
       x1="58.650177">
      <stop
         offset="0"
         style="stop-color:#dcdcdc;stop-opacity:1"
         id="stop5068" />
      <stop
         offset="1"
         style="stop-color:#f0f0f0;stop-opacity:1"
         id="stop5070" />
    </linearGradient>
    <linearGradient
       spreadMethod="pad"
       gradientTransform="matrix(1.0172414,0,0,1.0172414,-1.1034483,-1.1034483)"
       gradientUnits="userSpaceOnUse"
       xlink:href="#linearGradient5051-4"
       id="linearGradient5072"
       y2="5.4252338"
       x2="58.650177"
       y1="122"
       x1="58.650177">
      <stop
         offset="0"
         style="stop-color:#dcdcdc;stop-opacity:1"
         id="stop5074" />
      <stop
         offset="0.40241864"
         style="stop-color:#e4e4e4;stop-opacity:1"
         id="stop5076" />
      <stop
         offset="1"
         style="stop-color:#f0f0f0;stop-opacity:1"
         id="stop5078" />
    </linearGradient>
    <linearGradient
       gradientTransform="matrix(1.0172414,0,0,1.0172414,-1.1034483,-1.1034483)"
       gradientUnits="userSpaceOnUse"
       id="linearGradient5080"
       y2="5.4252338"
       x2="58.650177"
       y1="122"
       x1="58.650177">
      <stop
         offset="0"
         style="stop-color:#dcdcdc;stop-opacity:1"
         id="stop5082" />
      <stop
         offset="0.40241864"
         style="stop-color:#e4e4e4;stop-opacity:1"
         id="stop5084" />
      <stop
         offset="1"
         style="stop-color:#f0f0f0;stop-opacity:1"
         id="stop5086" />
    </linearGradient>
    <linearGradient
       gradientTransform="matrix(-0.71186441,0,0,0.71186441,93.55932,2.440678)"
       gradientUnits="userSpaceOnUse"
       xlink:href="#linearGradient3231"
       id="linearGradient4084"
       y2="4.8938489"
       x2="99.265793"
       y1="123"
       x1="99.265793" />
    <linearGradient
       id="linearGradient3231">
      <stop
         offset="0"
         style="stop-color:#2e3e4d;stop-opacity:1;"
         id="stop3233" />
      <stop
         offset="1"
         style="stop-color:#334260;stop-opacity:1;"
         id="stop3235" />
    </linearGradient>
    <clipPath
       id="clipPath4211">
      <path
         style="fill:url(#linearGradient4215);fill-opacity:1;stroke:none;display:inline"
         id="path4213"
         inkscape:connector-curvature="0"
         d="m -28,6 c -3.324,0 -6,2.676 -6,6 l 0,0.53125 0,70.9375 L -34,84 c 0,3.324 2.676,6 6,6 l 0.53125,0 7.46875,0 30.96875,0 c 0,0 0.24654,-18.83702 0,-21.78125 C 10.48249,62.41176 -3.33105,29.39342 -10.5,6 L -20,6 -27.46875,6 -28,6 z" />
    </clipPath>
    <linearGradient
       gradientTransform="matrix(-0.71186441,0,0,0.71186441,93.55932,2.4406779)"
       gradientUnits="userSpaceOnUse"
       xlink:href="#linearGradient3231"
       id="linearGradient4063"
       y2="23.497499"
       x2="95.671806"
       y1="16"
       x1="79.513893" />
    <linearGradient
       id="linearGradient5095">
      <stop
         offset="0"
         style="stop-color:#2e3e4d;stop-opacity:1;"
         id="stop5097" />
      <stop
         offset="1"
         style="stop-color:#334260;stop-opacity:1;"
         id="stop5099" />
    </linearGradient>
    <linearGradient
       gradientTransform="matrix(0.71186441,0,0,0.71186441,2.44068,2.440678)"
       gradientUnits="userSpaceOnUse"
       xlink:href="#linearGradient3231"
       id="linearGradient4081-5"
       y2="4.8938489"
       x2="99.265793"
       y1="123"
       x1="99.265793" />
    <linearGradient
       id="linearGradient5102">
      <stop
         offset="0"
         style="stop-color:#2e3e4d;stop-opacity:1;"
         id="stop5104" />
      <stop
         offset="1"
         style="stop-color:#334260;stop-opacity:1;"
         id="stop5106" />
    </linearGradient>
    <linearGradient
       gradientTransform="matrix(0.71186441,0,0,0.71186441,59.38983,2.4406779)"
       gradientUnits="userSpaceOnUse"
       xlink:href="#linearGradient5137"
       id="linearGradient4050"
       y2="30.388597"
       x2="-28.793009"
       y1="31.632919"
       x1="-32.47403" />
    <linearGradient
       id="linearGradient5137">
      <stop
         offset="0"
         style="stop-color:#000000;stop-opacity:1"
         id="stop5139" />
      <stop
         offset="1"
         style="stop-color:#000000;stop-opacity:0"
         id="stop5141" />
    </linearGradient>
    <clipPath
       id="clipPath5112">
      <path
         style="fill:url(#linearGradient4215);fill-opacity:1;stroke:none;display:inline"
         id="path5114"
         inkscape:connector-curvature="0"
         d="m -28,6 c -3.324,0 -6,2.676 -6,6 l 0,0.53125 0,70.9375 L -34,84 c 0,3.324 2.676,6 6,6 l 0.53125,0 7.46875,0 30.96875,0 c 0,0 0.24654,-18.83702 0,-21.78125 C 10.48249,62.41176 -3.33105,29.39342 -10.5,6 L -20,6 -27.46875,6 -28,6 z" />
    </clipPath>
    <linearGradient
       gradientTransform="matrix(0.71186441,0,0,0.71186441,2.44068,2.4406779)"
       gradientUnits="userSpaceOnUse"
       xlink:href="#linearGradient3231"
       id="linearGradient4044"
       y2="19"
       x2="87.676254"
       y1="34.894093"
       x1="123.49389" />
    <linearGradient
       id="linearGradient5117">
      <stop
         offset="0"
         style="stop-color:#2e3e4d;stop-opacity:1;"
         id="stop5119" />
      <stop
         offset="1"
         style="stop-color:#334260;stop-opacity:1;"
         id="stop5121" />
    </linearGradient>
    <linearGradient
       inkscape:collect="always"
       xlink:href="#linearGradient4938"
       id="linearGradient4962"
       gradientUnits="userSpaceOnUse"
       x1="65.92762"
       y1="99.265976"
       x2="74.494286"
       y2="99.265976" />
    <linearGradient
       id="linearGradient4938">
      <stop
         offset="0"
         style="stop-color:#202020;stop-opacity:1"
         id="stop4940" />
      <stop
         offset="1"
         style="stop-color:#727272;stop-opacity:1"
         id="stop4942" />
    </linearGradient>
    <linearGradient
       inkscape:collect="always"
       xlink:href="#linearGradient4938"
       id="linearGradient4964"
       gradientUnits="userSpaceOnUse"
       x1="65.92762"
       y1="99.265976"
       x2="74.494286"
       y2="99.265976" />
    <linearGradient
       id="linearGradient5128">
      <stop
         offset="0"
         style="stop-color:#202020;stop-opacity:1"
         id="stop5130" />
      <stop
         offset="1"
         style="stop-color:#727272;stop-opacity:1"
         id="stop5132" />
    </linearGradient>
    <linearGradient
       inkscape:collect="always"
       xlink:href="#linearGradient4938"
       id="linearGradient5134"
       gradientUnits="userSpaceOnUse"
       x1="65.92762"
       y1="99.265976"
       x2="74.494286"
       y2="99.265976" />
    <linearGradient
       id="linearGradient5136">
      <stop
         offset="0"
         style="stop-color:#202020;stop-opacity:1"
         id="stop5138" />
      <stop
         offset="1"
         style="stop-color:#727272;stop-opacity:1"
         id="stop5140" />
    </linearGradient>
    <linearGradient
       inkscape:collect="always"
       xlink:href="#linearGradient4938"
       id="linearGradient5142"
       gradientUnits="userSpaceOnUse"
       x1="65.92762"
       y1="99.265976"
       x2="74.494286"
       y2="99.265976" />
    <linearGradient
       id="linearGradient5144">
      <stop
         offset="0"
         style="stop-color:#202020;stop-opacity:1"
         id="stop5146" />
      <stop
         offset="1"
         style="stop-color:#727272;stop-opacity:1"
         id="stop5148" />
    </linearGradient>
    <linearGradient
       gradientTransform="translate(5.6847728,0.79682016)"
       inkscape:collect="always"
       xlink:href="#linearGradient6139-0"
       id="linearGradient4975"
       x1="9.5439568"
       y1="33.334438"
       x2="102.54396"
       y2="33.334438"
       gradientUnits="userSpaceOnUse" />
    <linearGradient
       id="linearGradient6139-0">
      <stop
         style="stop-color:#adb6c1;stop-opacity:1;"
         offset="0"
         id="stop6141-2" />
      <stop
         id="stop6151-0"
         offset="0.25"
         style="stop-color:#ffffff;stop-opacity:1;" />
      <stop
         id="stop6147-1"
         offset="0.5"
         style="stop-color:#909caa;stop-opacity:1;" />
      <stop
         style="stop-color:#f9fafb;stop-opacity:1;"
         offset="0.75"
         id="stop6149-4" />
      <stop
         style="stop-color:#adb7c1;stop-opacity:1;"
         offset="1"
         id="stop6143-4" />
    </linearGradient>
    <linearGradient
       inkscape:collect="always"
       xlink:href="#linearGradient4938"
       id="linearGradient5601"
       gradientUnits="userSpaceOnUse"
       x1="65.92762"
       y1="99.265976"
       x2="74.494286"
       y2="99.265976" />
    <linearGradient
       inkscape:collect="always"
       xlink:href="#linearGradient4938"
       id="linearGradient5603"
       gradientUnits="userSpaceOnUse"
       x1="65.92762"
       y1="99.265976"
       x2="74.494286"
       y2="99.265976" />
    <linearGradient
       inkscape:collect="always"
       xlink:href="#linearGradient6139-0"
       id="linearGradient5675"
       gradientUnits="userSpaceOnUse"
       gradientTransform="translate(5.6847728,0.79682016)"
       x1="9.5439568"
       y1="33.334438"
       x2="102.54396"
       y2="33.334438" />
    <linearGradient
       inkscape:collect="always"
       xlink:href="#ButtonShadow-66"
       id="linearGradient5677"
       gradientUnits="userSpaceOnUse"
       gradientTransform="scale(1.0058652,0.994169)"
       x1="45.447727"
       y1="92.539597"
       x2="45.447727"
       y2="7.0165396" />
    <linearGradient
       inkscape:collect="always"
       xlink:href="#linearGradient5118"
       id="linearGradient5679"
       gradientUnits="userSpaceOnUse"
       gradientTransform="matrix(0.69714873,0,0,0.69714873,3.5409084,1.9369824)"
       x1="58.409904"
       y1="22.808496"
       x2="64.606834"
       y2="21.933983" />
    <linearGradient
       inkscape:collect="always"
       xlink:href="#linearGradient5118"
       id="linearGradient5681"
       gradientUnits="userSpaceOnUse"
       gradientTransform="matrix(0.69714873,0,0,0.69714873,3.5409084,1.9369824)"
       x1="54.880836"
       y1="54.138271"
       x2="64.706467"
       y2="55" />
    <linearGradient
       inkscape:collect="always"
       xlink:href="#linearGradient5137-9"
       id="linearGradient5683"
       gradientUnits="userSpaceOnUse"
       gradientTransform="matrix(0.69714873,0,0,0.69714873,3.5409084,1.9369824)"
       x1="63.582283"
       y1="28.055578"
       x2="69.918655"
       y2="51.703251" />
    <linearGradient
       inkscape:collect="always"
       xlink:href="#linearGradient5081"
       id="linearGradient5685"
       gradientUnits="userSpaceOnUse"
       gradientTransform="matrix(0.64339645,0,0,0.65538394,6.8025211,2.7230809)"
       x1="52.470821"
       y1="5.2826524"
       x2="47.759033"
       y2="12.028901" />
    <linearGradient
       inkscape:collect="always"
       xlink:href="#linearGradient5081"
       id="linearGradient5687"
       gradientUnits="userSpaceOnUse"
       gradientTransform="matrix(-0.64339645,0,0,0.65538394,89.209375,2.7230809)"
       x1="43.475822"
       y1="10.529735"
       x2="57.253754"
       y2="12.778483" />
    <linearGradient
       inkscape:collect="always"
       xlink:href="#linearGradient3231"
       id="linearGradient5689"
       gradientUnits="userSpaceOnUse"
       gradientTransform="matrix(-0.71186441,0,0,0.71186441,93.55932,2.440678)"
       x1="99.265793"
       y1="123"
       x2="99.265793"
       y2="4.8938489" />
    <linearGradient
       inkscape:collect="always"
       xlink:href="#linearGradient3231"
       id="linearGradient5691"
       gradientUnits="userSpaceOnUse"
       gradientTransform="matrix(-0.71186441,0,0,0.71186441,93.55932,2.4406779)"
       x1="79.513893"
       y1="16"
       x2="95.671806"
       y2="23.497499" />
    <linearGradient
       inkscape:collect="always"
       xlink:href="#linearGradient3231"
       id="linearGradient5693"
       gradientUnits="userSpaceOnUse"
       gradientTransform="matrix(0.71186441,0,0,0.71186441,2.44068,2.440678)"
       x1="99.265793"
       y1="123"
       x2="99.265793"
       y2="4.8938489" />
    <linearGradient
       inkscape:collect="always"
       xlink:href="#linearGradient5137"
       id="linearGradient5695"
       gradientUnits="userSpaceOnUse"
       gradientTransform="matrix(0.71186441,0,0,0.71186441,59.38983,2.4406779)"
       x1="-32.47403"
       y1="31.632919"
       x2="-28.793009"
       y2="30.388597" />
    <linearGradient
       inkscape:collect="always"
       xlink:href="#linearGradient3231"
       id="linearGradient5697"
       gradientUnits="userSpaceOnUse"
       gradientTransform="matrix(0.71186441,0,0,0.71186441,2.44068,2.4406779)"
       x1="123.49389"
       y1="34.894093"
       x2="87.676254"
       y2="19" />
    <linearGradient
       inkscape:collect="always"
       xlink:href="#linearGradient3832-0-6-1-1"
       id="linearGradient5703"
       gradientUnits="userSpaceOnUse"
       gradientTransform="translate(13.72873,-13.868741)"
       x1="1.5"
       y1="88.171875"
       x2="94.5"
       y2="88.171875" />
    <radialGradient
       inkscape:collect="always"
       xlink:href="#linearGradient4133"
       id="radialGradient5705"
       gradientUnits="userSpaceOnUse"
       gradientTransform="matrix(0.97513378,0,0,0.04919072,47.627425,66.297955)"
       cx="13.948145"
       cy="44.892841"
       fx="13.948145"
       fy="44.892841"
       r="43.199203" />
    <radialGradient
       inkscape:collect="always"
       xlink:href="#linearGradient4133"
       id="radialGradient5707"
       gradientUnits="userSpaceOnUse"
       gradientTransform="matrix(0.88832663,0,0,0.04919072,16.865751,-104.43703)"
       cx="13.948145"
       cy="44.892841"
       fx="13.948145"
       fy="44.892841"
       r="43.199203" />
    <linearGradient
       inkscape:collect="always"
       xlink:href="#linearGradient4213-7"
       id="linearGradient5709"
       gradientUnits="userSpaceOnUse"
       x1="2.7713892"
       y1="-28.64156"
       x2="50.527882"
       y2="14.514202" />
    <linearGradient
       inkscape:collect="always"
       xlink:href="#linearGradient4938"
       id="linearGradient5711"
       gradientUnits="userSpaceOnUse"
       x1="65.92762"
       y1="99.265976"
       x2="74.494286"
       y2="99.265976" />
    <linearGradient
       inkscape:collect="always"
       xlink:href="#linearGradient4938"
       id="linearGradient5713"
       gradientUnits="userSpaceOnUse"
       x1="65.92762"
       y1="99.265976"
       x2="74.494286"
       y2="99.265976" />
  </defs>
  <sodipodi:namedview
     id="base"
     pagecolor="#ffffff"
     bordercolor="#666666"
     borderopacity="1.0"
     inkscape:pageopacity="0.0"
     inkscape:pageshadow="2"
     inkscape:zoom="2.0087891"
     inkscape:cx="-36.449198"
     inkscape:cy="32"
     inkscape:current-layer="layer1"
     showgrid="true"
     inkscape:document-units="px"
     inkscape:grid-bbox="true"
     inkscape:showpageshadow="false"
     gridtolerance="1"
     guidetolerance="1"
     objecttolerance="1"
     inkscape:window-width="1280"
     inkscape:window-height="966"
     inkscape:window-x="0"
     inkscape:window-y="0"
     inkscape:window-maximized="1" />
  <metadata
     id="metadata7">
    <rdf:RDF>
      <cc:Work
         rdf:about="">
        <dc:format>image/svg+xml</dc:format>
        <dc:type
           rdf:resource="http://purl.org/dc/dcmitype/StillImage" />
        <dc:title></dc:title>
      </cc:Work>
    </rdf:RDF>
  </metadata>
  <g
     id="layer1"
     inkscape:label="Layer 1"
     inkscape:groupmode="layer"
     transform="translate(0,32)">
    <g
       id="g5605"
       transform="translate(-13.72873,-18.131259)">
      <rect
         style="opacity:0.3122172;fill:#ffffff;fill-opacity:1;stroke:none"
         id="rect3880"
         width="96"
         height="2.5"
         x="13.728729"
         y="-13.868741" />
      <path
         style="opacity:0.15;fill:#000000;fill-opacity:1;fill-rule:nonzero;stroke:none;display:inline"
         d="m 102.87159,-13.868741 -82.285723,0 c -3.798848,0 -6.857135,3.058285 -6.857135,6.8571402 l 0,82.2857178 c 0,3.798857 3.058287,6.857142 6.857135,6.857142 l 82.285723,0 c 3.79885,0 6.85714,-3.058285 6.85714,-6.857142 l 0,-82.2857178 c 0,-3.7988552 -3.05829,-6.8571402 -6.85714,-6.8571402 z"
         id="path3288"
         inkscape:connector-curvature="0" />
      <path
         inkscape:connector-curvature="0"
         id="path4085"
         d="m 102.22873,-13.118741 -81.000007,0 c -3.739492,0 -6.749993,3.010499 -6.749993,6.7499972 l 0,81.0000028 c 0,3.739501 3.010501,6.75 6.749993,6.75 l 81.000007,0 c 3.7395,0 6.75,-3.010499 6.75,-6.75 l 0,-81.0000028 c 0,-3.7394982 -3.0105,-6.7499972 -6.75,-6.7499972 z"
         style="opacity:0.15;fill:#000000;fill-opacity:1;fill-rule:nonzero;stroke:none;display:inline" />
      <path
         style="fill:url(#linearGradient5675);fill-opacity:1;fill-rule:nonzero;stroke:none;display:inline"
         d="m 101.58584,-12.368741 -79.714262,0 c -3.680137,0 -6.642848,2.9627112 -6.642848,6.6428532 l 0,79.7142918 c 0,3.680146 2.962711,6.642855 6.642848,6.642855 l 79.714262,0 c 3.68015,0 6.64289,-2.962709 6.64289,-6.642855 l 0,-79.7142918 c 0,-3.680142 -2.96274,-6.6428532 -6.64289,-6.6428532 z"
         id="path4967"
         inkscape:connector-curvature="0" />
      <g
         style="fill:none;stroke:#fffdfd;stroke-opacity:1;display:inline"
         id="layer7-0"
         transform="matrix(-1.0488926,0,0,0.88546167,223.35594,-27.812639)">
        <g
           transform="matrix(-0.95338646,0,0,1.0586872,199.78546,15.709801)"
           id="g4082">
          <g
             id="layer2"
             style="display:none">
            <rect
               width="86"
               height="85"
               rx="6"
               ry="6"
               x="5"
               y="7"
               id="rect3745"
               style="opacity:0.9;fill:url(#linearGradient5677);fill-opacity:1;fill-rule:nonzero;stroke:none;filter:url(#filter3174-81)" />
          </g>
          <g
             style="fill:#f5fcff;fill-opacity:0.91836733"
             id="layer1-4">
            <rect
               width="84"
               height="84"
               rx="6"
               ry="6"
               x="6"
               y="6"
               id="rect2419"
               style="fill:#f5fcff;fill-opacity:0.91836733;fill-rule:nonzero;stroke:none" />
            <path
               d="M 18.954679,6 48.674903,81 77.045321,6 18.954679,6 z"
               inkscape:connector-curvature="0"
               id="path5168"
               style="fill:#f5fcff;fill-opacity:0.91836733;stroke:none;display:inline" />
          </g>
          <g
             id="layer6">
            <g
               transform="translate(50,0)"
               id="g4437">
              <path
                 inkscape:connector-curvature="0"
                 d="M -10.03125,7.46875 A 1.0213265,1.0213265 0 0 0 -10.09375,7.5 c -1.113083,0.1754186 -1.847691,0.9379209 -2.3125,1.625 -0.464809,0.6870791 -0.78406,1.341954 -1.09375,1.71875 A 1.0213265,1.0213265 0 0 0 -13.59375,11 c -0.261407,0.448812 -0.744348,0.988297 -1.125,1.71875 -0.380652,0.730453 -0.626811,1.804063 -0.15625,2.8125 a 1.0213265,1.0213265 0 0 0 0.125,0.1875 c 1.784568,2.304155 3.798013,4.387614 5.625,6.53125 0.047906,0.0885 0.074401,0.08157 0.125,0.15625 0.3137473,0.46308 0.6898469,0.744558 0.84375,0.90625 0.029787,0.0313 0.017171,0.01239 0.03125,0.03125 C -11.772699,34.896885 -15.467767,46.43584 -19.09375,58 a 1.0213265,1.0213265 0 0 0 -0.03125,0.15625 c -0.304642,2.039354 1.569687,3.588862 3.46875,3.375 l 0,0.03125 c 9.4284543,0.111716 18.8505702,0.236397 28.28125,0.34375 a 1.0213265,1.0213265 0 0 0 0.09375,0 c 2.04955,-0.187015 3.199308,-2.432385 2.375,-4.25 l 0.03125,0 L 15.0625,57.5 4.375,23.15625 c 1.8707788,-2.253234 3.8409157,-4.491918 5.6875,-6.8125 a 1.0213265,1.0213265 0 0 0 0.09375,-0.15625 c 0.535166,-1.019824 0.330643,-2.082053 0.03125,-2.875 C 9.8881067,12.519553 9.5035339,11.840161 9.375,11.375 A 1.0213265,1.0213265 0 0 0 9.34375,11.21875 C 9.1251958,10.74052 8.9192712,9.9670145 8.5,9.1875 8.0807288,8.4079855 7.2248422,7.5550099 6.03125,7.46875 A 1.0213265,1.0213265 0 0 0 5.84375,7.5 C 3.8827496,7.7169387 2.2009993,8.4803344 0.625,8.875 -0.39534696,9.1268624 -1.2455074,9.5064335 -1.96875,9.625 -4.3781689,8.9417567 -6.7966186,8.1373111 -9.28125,7.5 a 1.0213265,1.0213265 0 0 0 -0.25,-0.03125 l -0.40625,0 a 1.0213265,1.0213265 0 0 0 -0.09375,0 z"
                 id="path4427"
                 style="opacity:0.07999998;fill:#000000;fill-opacity:1;fill-rule:evenodd;stroke:none;display:inline" />
              <path
                 inkscape:connector-curvature="0"
                 d="m -9.9375,8.5 c 0.00165,-1.974e-4 -0.095391,0.03154 -0.09375,0.03125 0.0016,-2.897e-4 -0.126622,0.031631 -0.125,0.03125 0.0016,-3.811e-4 -0.09535,4.713e-4 -0.09375,0 0.0016,-4.713e-4 -0.126569,0.03181 -0.125,0.03125 0.0016,-5.6e-4 -0.09529,0.063147 -0.09375,0.0625 0.0015,-6.469e-4 -0.09525,0.031982 -0.09375,0.03125 0.0015,-7.319e-4 -0.0952,0.063315 -0.09375,0.0625 0.0015,-8.145e-4 -0.09516,0.063395 -0.09375,0.0625 0.0014,-8.946e-4 -0.0951,0.063472 -0.09375,0.0625 0.0014,-9.719e-4 -0.09505,0.063546 -0.09375,0.0625 0.0013,-0.00105 -0.09499,0.063617 -0.09375,0.0625 0.0012,-0.00112 -0.06367,0.094935 -0.0625,0.09375 0.0012,-0.00118 -0.09485,0.063748 -0.09375,0.0625 0.0011,-0.00125 -0.06353,0.095058 -0.0625,0.09375 10e-4,-0.00131 -0.06346,0.095114 -0.0625,0.09375 7.36e-4,-0.00105 -0.04582,0.037304 -0.0625,0.0625 -0.005,0.00756 -2.03e-4,0.031577 0,0.03125 l -2.4375,3.71875 0.03125,0 c 0.0013,-0.002 -0.09491,0.127089 -0.09375,0.125 0.0012,-0.0021 -0.06349,0.158425 -0.0625,0.15625 9.87e-4,-0.0022 -0.06331,0.127247 -0.0625,0.125 8.1e-4,-0.0022 -0.06313,0.158555 -0.0625,0.15625 6.27e-4,-0.0023 -0.03169,0.158598 -0.03125,0.15625 4.4e-4,-0.0023 -0.0315,0.158625 -0.03125,0.15625 2.5e-4,-0.0024 -5.9e-5,0.158638 0,0.15625 5.9e-5,-0.0024 1.32e-4,0.158635 0,0.15625 -1.32e-4,-0.0024 0.03157,0.158616 0.03125,0.15625 -3.23e-4,-0.0024 5.12e-4,0.158583 0,0.15625 -5.12e-4,-0.0023 0.0632,0.158534 0.0625,0.15625 -6.97e-4,-0.0023 0.03213,0.158471 0.03125,0.15625 -8.78e-4,-0.0022 0.06355,0.127144 0.0625,0.125 -0.0011,-0.0021 0.09497,0.158302 0.09375,0.15625 -0.0012,-0.0021 0.09513,0.126948 0.09375,0.125 -0.0014,-0.0019 0.09528,0.12683 0.09375,0.125 a 1.0300162,1.0300162 0 0 0 0,0.03125 L -7,23.125 -18.03125,57.96875 c 5.17e-4,-0.0017 -0.03167,0.126697 -0.03125,0.125 4.18e-4,-0.0017 -0.03157,0.09547 -0.03125,0.09375 3.18e-4,-0.0017 -0.03147,0.126734 -0.03125,0.125 2.16e-4,-0.0017 -1.14e-4,0.126744 0,0.125 1.14e-4,-0.0017 -1.1e-5,0.0955 0,0.09375 1.1e-5,-0.0017 9.1e-5,0.126745 0,0.125 -9.1e-5,-0.0017 1.93e-4,0.126737 0,0.125 -1.93e-4,-0.0017 0.03155,0.126722 0.03125,0.125 -2.95e-4,-0.0017 3.96e-4,0.09545 0,0.09375 -3.96e-4,-0.0017 0.03175,0.126676 0.03125,0.125 -4.95e-4,-0.0017 0.03184,0.09539 0.03125,0.09375 -5.92e-4,-0.0016 0.06319,0.126606 0.0625,0.125 -6.88e-4,-0.0016 0.03203,0.09531 0.03125,0.09375 -7.81e-4,-0.0016 0.06337,0.09526 0.0625,0.09375 -8.71e-4,-0.0015 0.06346,0.09521 0.0625,0.09375 -9.59e-4,-0.0015 0.06354,0.126402 0.0625,0.125 -0.001,-0.0014 0.06362,0.06384 0.0625,0.0625 -0.0011,-0.0013 0.09495,0.09502 0.09375,0.09375 -0.0012,-0.0013 0.09502,0.09495 0.09375,0.09375 -0.0013,-0.0012 0.06384,0.06362 0.0625,0.0625 -0.0013,-0.0011 0.09515,0.09479 0.09375,0.09375 -0.0014,-10e-4 0.09521,0.06346 0.09375,0.0625 -0.0015,-9.56e-4 0.09527,0.06337 0.09375,0.0625 -0.0015,-8.69e-4 0.126564,0.03203 0.125,0.03125 -0.0016,-7.78e-4 0.09536,0.06318 0.09375,0.0625 -0.0016,-6.85e-4 0.09539,0.03184 0.09375,0.03125 -0.0016,-5.9e-4 0.126677,0.03174 0.125,0.03125 -0.0017,-4.92e-4 0.126703,0.03164 0.125,0.03125 -0.0017,-3.93e-4 0.09547,0.03154 0.09375,0.03125 -0.0017,-2.92e-4 0.126737,0.03144 0.125,0.03125 -0.0017,-1.91e-4 0.126745,8.8e-5 0.125,0 -0.0017,-8.8e-5 0.0955,-1.4e-5 0.09375,0 l 28.5625,0.34375 c -0.0017,-1.4e-5 0.09549,-8.8e-5 0.09375,0 -0.0017,8.8e-5 0.126737,-1.91e-4 0.125,0 -0.0017,1.91e-4 0.126723,-0.03154 0.125,-0.03125 -0.0017,2.92e-4 0.09545,-0.03164 0.09375,-0.03125 -0.0017,3.93e-4 0.126677,-0.03174 0.125,-0.03125 -0.0017,4.92e-4 0.126645,-0.03184 0.125,-0.03125 -0.0016,5.9e-4 0.09536,-0.03193 0.09375,-0.03125 -0.0016,6.85e-4 0.09531,-0.06328 0.09375,-0.0625 -0.0016,7.78e-4 0.126516,-0.03212 0.125,-0.03125 -0.0015,8.69e-4 0.09521,-0.06346 0.09375,-0.0625 -0.0015,9.56e-4 0.09515,-0.06354 0.09375,-0.0625 -0.0014,10e-4 0.09509,-0.09487 0.09375,-0.09375 -0.0013,0.0011 0.06377,-0.0637 0.0625,-0.0625 -0.0013,0.0012 0.09495,-0.09502 0.09375,-0.09375 -0.0012,0.0013 0.09487,-0.09509 0.09375,-0.09375 -0.0011,0.0013 0.06354,-0.0639 0.0625,-0.0625 -10e-4,0.0014 0.06346,-0.126461 0.0625,-0.125 -9.59e-4,0.0015 0.06337,-0.09526 0.0625,-0.09375 -8.71e-4,0.0015 0.06328,-0.09531 0.0625,-0.09375 -7.81e-4,0.0016 0.03194,-0.09536 0.03125,-0.09375 -6.88e-4,0.0016 0.06309,-0.126644 0.0625,-0.125 -5.92e-4,0.0016 0.03175,-0.09543 0.03125,-0.09375 -4.95e-4,0.0017 0.03165,-0.126702 0.03125,-0.125 -3.96e-4,0.0017 2.95e-4,-0.09547 0,-0.09375 -2.95e-4,0.0017 0.03144,-0.126737 0.03125,-0.125 -1.93e-4,0.0017 9.1e-5,-0.126745 0,-0.125 -9.1e-5,0.0017 -1.1e-5,-0.126747 0,-0.125 1.1e-5,0.0017 -1.14e-4,-0.09549 0,-0.09375 1.14e-4,0.0017 -2.16e-4,-0.126734 0,-0.125 2.16e-4,0.0017 -0.03157,-0.126718 -0.03125,-0.125 3.18e-4,0.0017 -0.03167,-0.09545 -0.03125,-0.09375 4.18e-4,0.0017 -0.03177,-0.126669 -0.03125,-0.125 L 3.25,22.9375 9.03125,16.03125 C 9.02999,16.03275 9.126158,15.93591 9.125,15.9375 9.12384,15.9391 9.18855,15.810833 9.1875,15.8125 9.18645,15.8142 9.250938,15.71702 9.25,15.71875 c -9.378e-4,0.0017 0.063321,-0.126791 0.0625,-0.125 -8.211e-4,0.0018 0.063201,-0.126841 0.0625,-0.125 -7.009e-4,0.0018 0.031828,-0.126883 0.03125,-0.125 -5.775e-4,0.0019 0.031702,-0.126917 0.03125,-0.125 -4.517e-4,0.0019 0.031574,-0.126943 0.03125,-0.125 -3.238e-4,0.0019 0.031445,-0.12696 0.03125,-0.125 -1.946e-4,0.002 6.45e-5,-0.126969 0,-0.125 -6.45e-5,0.002 -6.59e-5,-0.126969 0,-0.125 6.59e-5,0.002 -1.96e-4,-0.15821 0,-0.15625 1.96e-4,0.002 -0.031575,-0.126943 -0.03125,-0.125 3.252e-4,0.0019 -0.031703,-0.126917 -0.03125,-0.125 4.53e-4,0.0019 -0.031829,-0.126883 -0.03125,-0.125 5.789e-4,0.0019 -0.031952,-0.12684 -0.03125,-0.125 L 7.65625,9.75 C 7.6572504,9.752614 7.5612585,9.5912415 7.5625,9.59375 7.5637415,9.5962585 7.4985284,9.4351192 7.5,9.4375 7.5014716,9.4398808 7.3733113,9.2790179 7.375,9.28125 7.3766887,9.2834821 7.2481091,9.1229364 7.25,9.125 7.2518909,9.1270636 7.1229236,8.9981231 7.125,9 7.1270764,9.0018769 6.9977565,8.8733265 7,8.875 7.0022435,8.8766735 6.8413592,8.7797946 6.84375,8.78125 6.8461408,8.7827054 6.6537331,8.6862756 6.65625,8.6875 6.6587669,8.6887244 6.4973792,8.6240174 6.5,8.625 6.5026208,8.6259826 6.3097985,8.5617679 6.3125,8.5625 6.3152015,8.5632321 6.1534917,8.5307749 6.15625,8.53125 6.1590083,8.5317251 5.9659593,8.499786 5.96875,8.5 c 0.00279,2.14e-4 -0.1902985,4.91e-5 -0.1875,0 0.0028,-4.91e-5 -0.1902815,3.117e-4 -0.1875,0 C 5.59653,8.4996883 5.4035101,8.531822 5.40625,8.53125 5.408442,8.5307927 5.295857,8.550724 5.25,8.5625 l -7.125,2.125 -7.3125,-2.125 C -9.18486,8.5632459 -9.3776994,8.530751 -9.375,8.53125 -9.3723,8.5317494 -9.533984,8.499752 -9.53125,8.5 c 0.00273,2.485e-4 -0.1902452,4.4e-6 -0.1875,0 0.00275,-4.4e-6 -0.1902332,2.573e-4 -0.1875,0 a 1.0300162,1.0300162 0 0 0 -0.03125,0 z"
                 id="path4404"
                 style="opacity:0.1;fill:#000000;fill-opacity:1;fill-rule:evenodd;stroke:none;display:inline" />
              <path
                 inkscape:connector-curvature="0"
                 d="M -9.8125,9.53125 A 0.94064623,0.94064623 0 0 0 -10.5,9.96875 l -2.4375,3.75 a 0.94064623,0.94064623 0 0 0 0.0625,1.125 l 7.03125,8 -11.21875,35.4375 A 0.94064623,0.94064623 0 0 0 -16.15625,59.5 l 28.5625,0.34375 A 0.94064623,0.94064623 0 0 0 13.3125,58.625 L 2.125,22.71875 8.25,15.375 A 0.94064623,0.94064623 0 0 0 8.40625,14.4375 L 6.6875,10.125 A 0.94064623,0.94064623 0 0 0 5.53125,9.5625 L -1.875,11.78125 -9.46875,9.5625 A 0.94064623,0.94064623 0 0 0 -9.8125,9.53125 z"
                 id="path4396"
                 style="opacity:0.15;fill:#000000;fill-opacity:1;fill-rule:evenodd;stroke:none;display:inline" />
              <path
                 d="m -9.71875,10.46875 -2.4375,3.75 7.375,8.40625 -11.375,35.9375 28.5625,0.34375 -11.34375,-36.375 6.46875,-7.75 -1.71875,-4.3125 -7.65625,2.3125 -7.875,-2.3125 z"
                 inkscape:connector-curvature="0"
                 id="path4383"
                 style="opacity:0.3;fill:#000000;fill-opacity:1;fill-rule:evenodd;stroke:none;display:inline" />
            </g>
            <path
               d="M 40.295065,9.4767617 48.158427,11.793022 55.798003,9.4767617 57.539906,13.784441 48.158427,24.979699 37.8564,13.205376 40.295065,9.4767617 z"
               inkscape:connector-curvature="0"
               id="path5174"
               style="fill:url(#linearGradient5679);fill-opacity:1;fill-rule:evenodd;stroke:none;display:inline" />
            <path
               d="M 45.259489,21.495894 33.848473,57.553289 62.418785,57.90167 51.027765,21.457147 45.259489,21.495894 z"
               inkscape:connector-curvature="0"
               id="path5116"
               style="fill:url(#linearGradient5681);fill-opacity:1;fill-rule:evenodd;stroke:none;display:inline" />
            <path
               d="m 45.085299,21.495894 c 2.961235,1.219332 5.92247,0.08709 5.92247,0.08709 0,0 5.622615,17.778671 10.396484,33.618732 C 58.323763,51.630818 51.644171,24.024076 50.311008,23.673273 48.905833,23.303521 51.13524,38.957608 50.076071,39.872972 48.072882,22.10556 46.13044,21.321703 44.911108,23.063606 c 0,0 0.01587,-0.14282 0.03803,-0.342245 0.05125,-0.461298 0.136163,-1.225467 0.136163,-1.225467 z"
               inkscape:connector-curvature="0"
               id="path5135"
               style="opacity:0.4;fill:url(#linearGradient5683);fill-opacity:1;fill-rule:evenodd;stroke:none;display:inline" />
            <path
               inkscape:connector-curvature="0"
               d="m 68.551239,45.314487 a 0.8833925,11.660781 0 1 1 -1.766785,0 0.8833925,11.660781 0 1 1 1.766785,0 z"
               transform="matrix(0.69527793,-0.05103913,0.05103913,0.69527793,1.8473759,4.4900965)"
               id="path5145"
               style="opacity:0.2;fill:#ffffff;fill-opacity:1;fill-rule:nonzero;stroke:none;display:inline" />
          </g>
          <g
             id="layer4">
            <path
               d="m 30.25,8 -1.28125,2.34375 6.9375,15.71875 c 0,0 3.381475,-7.051058 12.0625,-13.4375 C 43.374024,11.895533 39.318539,9.8368964 36.4375,8 L 30.25,8 z m 29.34375,0 c -2.881039,1.8368964 -6.967773,3.895533 -11.5625,4.625 8.681025,6.386442 12.062499,13.4375 12.0625,13.4375 L 67.03125,10.34375 65.75,8 59.59375,8 z"
               inkscape:connector-curvature="0"
               id="path4460"
               style="opacity:0.15;fill:#000000;fill-opacity:1;fill-rule:evenodd;stroke:none;display:inline" />
            <path
               d="m 32.417742,6.0000006 c 0.61867,2.9530231 7.233597,5.2840334 15.300772,5.2840334 8.067176,0 14.663748,-2.3310103 15.280666,-5.2840334 l -4.926004,0 c -2.256715,1.4767327 -5.977602,2.4576898 -10.193813,2.4576898 -4.21621,0 -7.937098,-0.9809571 -10.193812,-2.4576898 l -5.267809,0 z"
               inkscape:connector-curvature="0"
               id="path5411"
               style="opacity:0.4;fill:#000000;fill-opacity:1;fill-rule:nonzero;stroke:none;display:inline" />
            <path
               d="m 30.25,7 -1.28125,2.34375 6.9375,15.71875 c 0,0 3.381475,-7.051058 12.0625,-13.4375 C 43.374024,10.895533 39.318539,8.8368964 36.4375,7 L 30.25,7 z m 29.34375,0 c -2.881039,1.8368964 -6.967773,3.895533 -11.5625,4.625 8.681025,6.386442 12.062499,13.4375 12.0625,13.4375 L 67.03125,9.34375 65.75,7 59.59375,7 z"
               inkscape:connector-curvature="0"
               id="path4453"
               style="opacity:0.3;fill:#000000;fill-opacity:1;fill-rule:evenodd;stroke:none;display:inline" />
            <path
               d="M 30.246279,6.0000006 28.979592,8.3348059 35.91621,24.06402 c 0,0 3.382659,-7.048928 12.063684,-13.43537 C 43.385168,9.8991825 39.320009,7.836897 36.43897,6.0000006 l -6.192691,0 z"
               inkscape:connector-curvature="0"
               id="path4980"
               style="fill:url(#linearGradient5685);fill-opacity:1;fill-rule:evenodd;stroke:none;display:inline" />
            <path
               d="M 59.581136,6.0000006 C 56.700097,7.836897 52.634939,9.8991825 48.040212,10.62865 c 8.681025,6.386442 12.063683,13.43537 12.063684,13.43537 l 6.916512,-15.7292141 -1.266687,-2.3348053 -6.172585,0 z"
               inkscape:connector-curvature="0"
               id="path4992"
               style="fill:url(#linearGradient5687);fill-opacity:1;fill-rule:evenodd;stroke:none;display:inline" />
            <path
               d="m 35.152177,6.0000006 c 2.861963,1.8328854 6.909796,3.8934027 11.540924,4.6286494 -6.442798,4.739827 -9.950654,9.829984 -11.339862,12.145083 l 0.562971,1.290287 c 0,0 3.382659,-7.048928 12.063684,-13.43537 C 43.385168,9.8991825 39.321566,7.8365653 36.43897,6.0000006 l -1.286793,0 z"
               inkscape:connector-curvature="0"
               id="path4996"
               style="opacity:0.1;fill:#000000;fill-opacity:1;fill-rule:evenodd;stroke:none;display:inline" />
            <path
               d="m 48.040212,10.62865 c 8.681025,6.386442 12.063683,13.43537 12.063684,13.43537 l 0.562972,-1.290287 C 59.277658,20.458634 55.769804,15.368477 49.327005,10.62865"
               inkscape:connector-curvature="0"
               id="path5006"
               style="opacity:0.8;fill:#ffffff;fill-opacity:1;fill-rule:evenodd;stroke:none;display:inline" />
            <path
               d="m 59.581136,6.0000006 c -2.877437,1.8365647 -6.946197,3.8991819 -11.540924,4.6286494 0.470953,0.346469 0.907039,0.695422 1.347112,1.044518 5.158272,-1.126614 9.528554,-3.8072447 12.103895,-5.6731674 l -1.910083,0 z m 5.448764,0 1.668809,3.0516315 0.321699,-0.7168262 -1.266687,-2.3348053 -0.723821,0 z"
               inkscape:connector-curvature="0"
               id="path5001"
               style="opacity:0.1;fill:#000000;fill-opacity:1;fill-rule:evenodd;stroke:none;display:inline" />
          </g>
          <g
             id="layer3">
            <path
               d="M 12,6 C 8.676,6 6,8.676 6,12 L 6,12.53125 6,83.46875 6,84 c 0,3.324 2.676,6 6,6 L 12.53125,90 20,90 50.96875,90 c 0,0 0.24654,-18.83702 0,-21.78125 C 50.48249,62.41176 36.66895,29.39342 29.5,6 L 20,6 12.53125,6 12,6 z"
               inkscape:connector-curvature="0"
               id="path4871"
               style="fill:url(#linearGradient5689);fill-opacity:1;stroke:none;display:inline" />
            <path
               d="m 8,7 0,81.46875 c 0.306714,0.274579 0.640983,0.51153 1,0.71875 L 9,7 8,7 z m 4,-1 0,84 0.53125,0 L 13,90 13,6 12,6 z m 4,0 0,4.25 C 16.344161,9.6685744 16.68333,9.13427 17,8.6875 L 17,6 16,6 z m 0,7.5 0,10.3125 c 0.332742,-0.339034 0.666363,-0.694301 1,-1.0625 L 17,14.625 16,13.5 z m 4,4.5625 0,1.375 c 0.217609,-0.219477 0.439065,-0.425554 0.65625,-0.625 L 20,18.0625 z M 16,28.03125 16,90 l 1,0 0,-60.8125 c -0.360368,-0.399711 -0.676075,-0.789177 -1,-1.15625 z m 4,4.375 L 20,90 l 1,0 0,-56.5 c -0.356695,-0.381854 -0.658934,-0.726633 -1,-1.09375 z m 4,4.3125 L 24,90 l 1,0 0,-52.21875 c -0.333434,-0.354168 -0.67332,-0.715345 -1,-1.0625 z m 4,4.25 L 28,90 l 1,0 0,-47.96875 c -0.330497,-0.352868 -0.672111,-0.713188 -1,-1.0625 z m 4,4.3125 L 32,90 l 1,0 0,-43.65625 c -0.33155,-0.359335 -0.66783,-0.704165 -1,-1.0625 z M 36,49.625 36,90 37,90 37,50.71875 C 36.673503,50.355504 36.330482,49.989845 36,49.625 z M 40,54.0625 40,90 41,90 41,55.25 C 40.661981,54.856934 40.347528,54.461106 40,54.0625 z M 44,58.84375 44,90 l 1,0 0,-29.9375 c -0.315552,-0.398492 -0.666553,-0.80856 -1,-1.21875 z"
               inkscape:connector-curvature="0"
               id="path4159"
               style="opacity:0.1;fill:#ffffff;fill-opacity:1;stroke:none" />
            <path
               d="m 43.43965,68.221399 c -0.24655,2.944235 0,21.600728 0,21.600728 l 39.68654,0 C 84.33997,61.887673 47.39672,41.134023 43.43965,68.221399 z"
               inkscape:connector-curvature="0"
               id="path4227"
               style="opacity:0.15;fill:#000000;fill-opacity:1;stroke:none;display:inline" />
            <path
               d="m 42.43965,68.221399 c -0.24655,2.944235 0,21.600728 0,21.600728 l 39.68654,0 C 83.33997,61.887673 46.39672,41.134023 42.43965,68.221399 z"
               inkscape:connector-curvature="0"
               id="path4229"
               style="opacity:0.1;fill:#000000;fill-opacity:1;stroke:none;display:inline" />
            <g
               transform="translate(40,0)"
               clip-path="url(#clipPath4211)"
               id="g4202">
              <path
                 inkscape:connector-curvature="0"
                 d="m 19.40625,4.03125 c -4.65e-4,4.93e-5 -0.124539,0.031173 -0.125,0.03125 -4.61e-4,7.68e-5 -0.124544,0.031146 -0.125,0.03125 -4.56e-4,1.04e-4 -0.0933,-1.308e-4 -0.09375,0 -4.49e-4,1.308e-4 -0.12456,0.062343 -0.125,0.0625 -4.4e-4,1.572e-4 -0.09332,0.031067 -0.09375,0.03125 -4.3e-4,1.831e-4 -0.09333,0.062292 -0.09375,0.0625 -4.19e-4,2.082e-4 -0.124595,0.031017 -0.125,0.03125 -3.12e-4,1.79e-4 -0.03557,0.045957 -0.0625,0.0625 -0.0081,0.00496 -0.03116,-5.91e-5 -0.03125,0 l 0,0.03125 c -1.517161,0.9648624 -3.326838,2.9036664 -5.375,7 l 0.03125,0 c -2.67e-4,5.17e-4 -0.06227,0.124465 -0.0625,0.125 -2.28e-4,5.35e-4 -0.06231,0.124449 -0.0625,0.125 -1.88e-4,5.51e-4 -0.0311,0.155687 -0.03125,0.15625 -1.47e-4,5.63e-4 -0.03115,0.124428 -0.03125,0.125 -1.05e-4,5.72e-4 -0.03119,0.155671 -0.03125,0.15625 -6.3e-5,5.79e-4 2e-5,0.124418 0,0.125 -2e-5,5.82e-4 -2.3e-5,0.155668 0,0.15625 2.3e-5,5.82e-4 -6.6e-5,0.155672 0,0.15625 6.6e-5,5.78e-4 0.03114,0.124428 0.03125,0.125 1.09e-4,5.72e-4 0.0311,0.155688 0.03125,0.15625 1.5e-4,5.62e-4 0.03106,0.12445 0.03125,0.125 1.92e-4,5.5e-4 0.06227,0.124466 0.0625,0.125 2.32e-4,5.34e-4 0.06223,0.155735 0.0625,0.15625 2.7e-4,5.15e-4 0.06219,0.124506 0.0625,0.125 3.08e-4,4.94e-4 0.09341,0.09328 0.09375,0.09375 3.43e-4,4.7e-4 0.06212,0.124557 0.0625,0.125 a 0.96457691,0.96457691 0 0 0 0.03125,0 l 4.5625,5.25 c -1.965786,2.044848 -3.838196,4.314279 -5.125,5.15625 -0.0046,0.003 -0.02669,-0.003 -0.03125,0 -0.02565,0.01662 -0.06226,0.03108 -0.0625,0.03125 -3.47e-4,2.38e-4 -0.09342,0.06224 -0.09375,0.0625 -3.34e-4,2.56e-4 -0.06218,0.09348 -0.0625,0.09375 -3.19e-4,2.74e-4 -0.09345,0.06221 -0.09375,0.0625 -3.04e-4,2.9e-4 -0.06221,0.06219 -0.0625,0.0625 -2.88e-4,3.06e-4 -0.06223,0.09343 -0.0625,0.09375 -2.72e-4,3.21e-4 -0.06225,0.06217 -0.0625,0.0625 -2.54e-4,3.35e-4 -0.06226,0.0934 -0.0625,0.09375 -2.36e-4,3.48e-4 -0.06228,0.09339 -0.0625,0.09375 -2.17e-4,3.6e-4 -0.0623,0.09338 -0.0625,0.09375 -1.98e-4,3.71e-4 -0.03107,0.09337 -0.03125,0.09375 -1.77e-4,3.81e-4 -0.03109,0.09336 -0.03125,0.09375 -1.57e-4,3.9e-4 -0.06236,0.09335 -0.0625,0.09375 -1.36e-4,3.98e-4 -0.03114,0.09334 -0.03125,0.09375 -1.14e-4,4.05e-4 9.3e-5,0.09334 0,0.09375 -9.3e-5,4.1e-4 -0.03118,0.124585 -0.03125,0.125 -7.1e-5,4.15e-4 -0.0312,0.09333 -0.03125,0.09375 -4.8e-5,4.18e-4 2.6e-5,0.09333 0,0.09375 -2.6e-5,4.2e-4 4e-6,0.09333 0,0.09375 -4e-6,4.21e-4 -1.9e-5,0.12458 0,0.125 1.9e-5,4.2e-4 -4.1e-5,0.09333 0,0.09375 4.1e-5,4.19e-4 0.03119,0.09333 0.03125,0.09375 6.4e-5,4.16e-4 -8.6e-5,0.124588 0,0.125 8.6e-5,4.12e-4 0.03114,0.09334 0.03125,0.09375 1.07e-4,4.07e-4 0.03112,0.09335 0.03125,0.09375 1.29e-4,4e-4 0.0311,0.09336 0.03125,0.09375 1.5e-4,3.93e-4 0.03108,0.09337 0.03125,0.09375 1.71e-4,3.84e-4 0.06231,0.09338 0.0625,0.09375 1.91e-4,3.75e-4 0.03104,0.09339 0.03125,0.09375 2.11e-4,3.64e-4 0.06227,0.0934 0.0625,0.09375 2.3e-4,3.52e-4 0.06225,0.09341 0.0625,0.09375 1.91e-4,2.61e-4 0.04509,0.04002 0.0625,0.0625 0.0062,0.0077 0.02505,0.02348 0.03125,0.03125 3.54882,4.446996 12.245307,13.255318 20.375,22.125 4.072106,4.442762 8.000445,8.877113 10.96875,12.65625 1.479336,1.883436 2.694855,3.628685 3.59375,5.09375 0.898895,1.465065 1.469886,2.711475 1.59375,3.28125 1.62e-4,6.59e-4 0.06228,0.186857 0.0625,0.1875 2.18e-4,6.43e-4 0.03098,0.155628 0.03125,0.15625 2.73e-4,6.22e-4 0.09343,0.124404 0.09375,0.125 3.25e-4,5.96e-4 0.09338,0.155684 0.09375,0.15625 3.75e-4,5.66e-4 0.09333,0.124469 0.09375,0.125 4.22e-4,5.31e-4 0.09328,0.124507 0.09375,0.125 4.67e-4,4.93e-4 0.124493,0.124549 0.125,0.125 5.07e-4,4.51e-4 0.124456,0.124594 0.125,0.125 5.44e-4,4.06e-4 0.155673,0.09339 0.15625,0.09375 5.77e-4,3.58e-4 0.124394,0.06219 0.125,0.0625 6.06e-4,3.07e-4 0.15562,0.06225 0.15625,0.0625 6.3e-4,2.53e-4 0.155601,0.0623 0.15625,0.0625 6.49e-4,1.98e-4 0.186836,0.06236 0.1875,0.0625 6.64e-4,1.42e-4 0.155576,-8.4e-5 0.15625,0 6.74e-4,8.4e-5 0.155572,0.03122 0.15625,0.03125 6.78e-4,2.6e-5 0.186822,3.3e-5 0.1875,0 6.78e-4,-3.3e-5 0.155577,-0.03116 0.15625,-0.03125 6.73e-4,-9.1e-5 0.155588,-0.0311 0.15625,-0.03125 6.62e-4,-1.49e-4 0.186853,-0.03105 0.1875,-0.03125 6.47e-4,-2.05e-4 0.155623,-0.06224 0.15625,-0.0625 6.27e-4,-2.6e-4 0.155648,-0.06219 0.15625,-0.0625 6.02e-4,-3.13e-4 0.124427,-0.09339 0.125,-0.09375 5.73e-4,-3.64e-4 0.15571,-0.09334 0.15625,-0.09375 5.4e-4,-4.12e-4 0.124498,-0.09329 0.125,-0.09375 5.02e-4,-4.57e-4 0.124539,-0.124502 0.125,-0.125 4.61e-4,-4.98e-4 0.09333,-0.124464 0.09375,-0.125 4.17e-4,-5.36e-4 0.09338,-0.15568 0.09375,-0.15625 3.69e-4,-5.7e-4 0.09343,-0.124401 0.09375,-0.125 3.19e-4,-5.99e-4 0.06223,-0.155625 0.0625,-0.15625 2.66e-4,-6.25e-4 0.06229,-0.155605 0.0625,-0.15625 2.11e-4,-6.45e-4 0.06235,-0.155589 0.0625,-0.15625 1.55e-4,-6.61e-4 0.03115,-0.186828 0.03125,-0.1875 l 0.09375,-0.75 c 1.33e-4,-4.95e-4 0.01951,-0.07074 0.03125,-0.125 0.0056,-0.02605 -4e-5,-0.06226 0,-0.0625 1.25e-4,-7.49e-4 0.0312,-0.186743 0.03125,-0.1875 9e-6,-1.91e-4 -5.8e-5,-0.0563 0,-0.0625 -1.2e-4,-0.01557 1.55e-4,-0.01782 0,-0.03125 -3.1e-4,-0.02686 -5.02e-4,-0.09156 0,-0.125 -4.3e-5,0.0028 0.02186,-0.176677 0,-0.4375 C 52.787342,66.238064 51.952038,63.514162 50.75,59.625 49.545581,55.728132 47.931891,50.850065 46.0625,45.5 42.344966,34.860678 37.707739,22.420006 33.78125,12.34375 a 0.96457691,0.96457691 0 0 0 -0.0625,-0.1875 0.96457691,0.96457691 0 0 0 0,-0.03125 C 32.862517,9.9456341 32.06813,7.7274555 31.375,5.46875 c -3e-5,-1.047e-4 0.0024,-0.023923 0,-0.03125 C 31.36351,5.402331 31.31268,5.3129895 31.3125,5.3125 31.31228,5.3119085 31.25027,5.156822 31.25,5.15625 31.249733,5.155678 31.18781,5.0317988 31.1875,5.03125 31.187188,5.0307012 31.0941,4.9067722 31.09375,4.90625 31.093396,4.9057278 31.0004,4.7817421 31,4.78125 30.999605,4.7807579 30.90668,4.6567089 30.90625,4.65625 30.905817,4.6557911 30.781719,4.5316728 30.78125,4.53125 30.780781,4.5308272 30.688,4.437884 30.6875,4.4375 30.686999,4.437116 30.56303,4.344093 30.5625,4.34375 30.56197,4.3434073 30.406806,4.281549 30.40625,4.28125 30.405694,4.2809508 30.281828,4.187754 30.28125,4.1875 30.280672,4.1872462 30.125596,4.156457 30.125,4.15625 30.124404,4.1560433 29.969361,4.093908 29.96875,4.09375 29.968139,4.0935916 29.813122,4.062609 29.8125,4.0625 29.811878,4.062391 29.656878,4.031309 29.65625,4.03125 c -6.28e-4,-5.89e-5 -0.155619,8.4e-6 -0.15625,0 l -9.875,0 c -1.49e-4,-7.1e-6 -0.01939,4.3e-6 -0.03125,0 -0.04745,-1.7e-5 -0.124402,-2.84e-5 -0.125,0 a 0.96457691,0.96457691 0 0 0 -0.0625,0 z M 51,68.65625 c 0,0 0.258594,-9.32e-4 0.375,0 L 51,68.6875 c 7.88e-4,0.01171 0,-0.03125 0,-0.03125 z"
                 transform="translate(-40,1)"
                 id="path4200"
                 style="opacity:0.1;fill:#000000;fill-opacity:1;fill-rule:evenodd;stroke:none;display:inline" />
              <path
                 inkscape:connector-curvature="0"
                 d="M 19.59375,5 A 0.98812041,0.98812041 0 0 0 19.0625,5.15625 c -1.305817,0.821253 -3.015913,2.6255675 -5.03125,6.65625 a 0.98812041,0.98812041 0 0 0 0.125,1.09375 l 5.15625,5.90625 c -2.137868,2.136516 -4.216186,4.82112 -5.9375,5.9375 a 0.98812041,0.98812041 0 0 0 -0.25,1.46875 c 3.440081,4.317974 12.21408,13.189999 20.375,22.09375 4.08046,4.451876 8.004237,8.904654 11,12.71875 2.995763,3.814096 5.022274,7.127458 5.375,8.75 a 0.98812041,0.98812041 0 0 0 1.9375,-0.09375 l 0.125,-0.875 a 0.98812041,0.98812041 0 0 0 0.03125,-0.1875 c 0.0014,0.02759 -0.0014,-0.06123 0,-0.15625 0.0014,-0.09502 0.01664,-0.145132 0,-0.34375 -0.131002,-1.564426 -0.925762,-4.338646 -2.125,-8.21875 C 48.644512,56.026146 47.022791,51.15441 45.15625,45.8125 41.423167,35.128679 36.748523,22.594683 32.8125,12.5 a 0.98812041,0.98812041 0 0 0 0,-0.03125 c -0.86705,-2.206899 -1.671132,-4.4531632 -2.375,-6.75 A 0.98812041,0.98812041 0 0 0 29.5,5 l -9.90625,0 z"
                 transform="translate(-40,1)"
                 id="path4196"
                 style="opacity:0.15;fill:#000000;fill-opacity:1;fill-rule:evenodd;stroke:none;display:inline" />
              <path
                 inkscape:connector-curvature="0"
                 d="m 19.59375,6 c -1.08197,0.6804712 -2.72135,2.3176926 -4.6875,6.25 l 5.75,6.5625 c -2.24578,2.062348 -4.52743,5.339774 -6.75,6.78125 6.68113,8.386124 35.15883,35.78686 36.9375,43.96875 l 0.125,-0.875 c -0.0054,-0.106325 0.006,-0.39715 0,-0.46875 C 50.53087,62.989606 39.76874,33.008607 31.90625,12.84375 31.03156,10.617404 30.21271,8.3256881 29.5,6 l -9.90625,0 z"
                 transform="translate(-40,1)"
                 id="path4186"
                 style="opacity:0.3;fill:#000000;fill-opacity:1;fill-rule:evenodd;stroke:none;display:inline" />
            </g>
            <path
               d="m 29.51377,5.9999999 c 0.71271,2.3256881 1.52785,4.6031031 2.40254,6.8294491 7.86249,20.164857 18.6045,50.162806 19.04238,55.39195 0.006,0.0716 0.0168,0.360836 0.0222,0.467161 l -0.13344,0.867584 C 49.06878,61.374254 20.60061,33.984641 13.91948,25.598517 c 2.22257,-1.441476 4.49469,-4.72261 6.74047,-6.784958 l -5.76165,-6.5625 c 1.96615,-3.9323074 3.61188,-5.5705879 4.69385,-6.2510591 2.50801,0 9.92161,0 9.92161,0 z"
               inkscape:connector-curvature="0"
               id="path4877"
               style="fill:url(#linearGradient5691);fill-opacity:1;fill-rule:evenodd;stroke:none;display:inline" />
            <path
               d="m 29.51377,5.9999999 c 0.71271,2.3256881 1.52785,4.6031031 2.40254,6.8294491 7.86249,20.164857 18.6045,50.162806 19.04238,55.39195 0.006,0.0716 0.0168,0.360836 0.0222,0.467161 l -0.13344,0.867584 C 50.58283,68.33887 49.8505,66.953222 48.77859,65.440678 46.16154,58.524762 37.26695,30.203633 30.49257,12.829449 29.61788,10.603103 28.80274,8.325688 28.09003,5.9999999 c 0.3386,0 1.42373,0 1.42373,0 z"
               inkscape:connector-curvature="0"
               id="path4879"
               style="opacity:0.2;fill:#525252;fill-opacity:1;fill-rule:evenodd;stroke:none;display:inline" />
            <path
               d="m 44.43965,68.221399 c -0.24655,2.944235 0,21.600728 0,21.600728 l 39.68654,0 C 85.33997,61.887673 48.39672,41.134023 44.43965,68.221399 z"
               inkscape:connector-curvature="0"
               id="path4916"
               style="opacity:0.3;fill:#000000;fill-opacity:1;stroke:none;display:inline" />
            <path
               d="m 29.091952,6 9.1875,20.59375 c 1.67124,4.482447 3.32776,8.990915 4.90625,13.40625 l -15.15625,-34 1.0625,0 z m -4.34375,0 27.09375,60.90625 c 0.0039,0.01892 0.02743,0.04381 0.03125,0.0625 0.10465,0.51188 0.19138,0.923179 0.21875,1.25 0.006,0.0716 -0.0054,0.362425 0,0.46875 l -0.125,0.875 c -0.20083,-0.923819 -0.75094,-2.110187 -1.5625,-3.46875 L 23.654452,6 l 1.09375,0 z m -4.3125,0.1875 22.03125,49.46875 c -0.72989,-0.853131 -1.47623,-1.71534 -2.25,-2.59375 L 19.654452,6.875 c 0.28844,-0.2789458 0.53784,-0.5127677 0.78125,-0.6875 z m -2.875,3.34375 4.03125,9.0625 -2.25,-2.5625 -2.4375,-5.4375 c 0.22084,-0.386107 0.4459,-0.7329379 0.65625,-1.0625 z m 4.15625,9.34375 12.0625,27.09375 c -0.69906,-0.756353 -1.39513,-1.500591 -2.09375,-2.25 l -10.75,-24.09375 c 0.26017,-0.268035 0.52165,-0.50903 0.78125,-0.75 z M 18.748202,22.0625 25.404452,37 c -0.66718,-0.708852 -1.39683,-1.480187 -2.03125,-2.15625 -0.0111,-0.01187 -0.0201,-0.01939 -0.0312,-0.03125 l -5.3125,-11.9375 c 0.241,-0.264501 0.47747,-0.540635 0.71875,-0.8125 z m -3.03125,3.03125 1.25,2.75 c -0.74078,-0.842928 -1.42834,-1.610899 -1.9375,-2.25 0.22491,-0.145871 0.46165,-0.31962 0.6875,-0.5 z"
               inkscape:connector-curvature="0"
               id="path4469"
               style="opacity:0.1;fill:#ffffff;fill-opacity:1;stroke:none" />
            <path
               d="m 19.59216,5.9999999 c -1.08197,0.6804712 -2.7277,2.3187517 -4.69385,6.2510591 l 5.76165,6.5625 c -2.24578,2.062348 -4.5179,5.343482 -6.74047,6.784958 6.68113,8.386124 35.1493,35.775737 36.92797,43.957627 l 0.13347,-0.867584 c -0.006,-0.106325 -0.0162,-0.395562 -0.0222,-0.467161 -0.0469,-0.56011 -0.24451,-1.450085 -0.51165,-2.536017 -0.004,-0.0057 0.004,-0.01655 0,-0.02225 C 43.71514,54.824707 21.18922,32.936371 15.34323,25.598513 c 2.22257,-1.441476 4.49469,-4.72261 6.74047,-6.784958 l -5.76166,-6.5625 c 1.96616,-3.9323074 3.61189,-5.5705879 4.69386,-6.2510591 -0.52552,0 -1.06383,0 -1.42373,0 z"
               inkscape:connector-curvature="0"
               id="path4930"
               style="opacity:0.15;fill:#ffffff;fill-opacity:1;fill-rule:evenodd;stroke:none;display:inline" />
            <path
               d="m 66.5,6 c -7.16895,23.39342 -20.98249,56.41176 -21.46875,62.21875 -0.24654,2.94423 0,21.78125 0,21.78125 L 76,90 83.46875,90 84,90 c 3.324,0 6,-2.676 6,-6 L 90,83.46875 90,12.53125 90,12 C 90,8.676 87.324,6 84,6 L 83.46875,6 76,6 66.5,6 z"
               inkscape:connector-curvature="0"
               id="path3173"
               style="fill:url(#linearGradient5693);fill-opacity:1;stroke:none;display:inline" />
            <path
               d="M 70.11002,13.294724 C 58.38933,36.688148 45.90589,62.414412 45.11088,68.221399 44.70781,71.165634 45.11088,90 45.11088,90 l 2.32769,0 c 0,0 -0.40307,-18.834366 0,-21.778601 0.79501,-5.806987 13.27845,-31.533251 24.99914,-54.926675 -0.35731,0 -2.32769,0 -2.32769,0 z"
               inkscape:connector-curvature="0"
               id="path4850"
               style="opacity:0.15;fill:#ffffff;fill-opacity:1;stroke:none;display:inline" />
            <path
               d="m 29.51377,5.9999999 c 0.71271,2.3256881 1.52785,4.6031031 2.40254,6.8294491 6.6678,17.100836 15.38376,41.224968 18.15255,51.365466 C 46.17857,44.113465 40.59412,25.470053 34,5.9999999 c 0,0 -4.10706,0 -4.48623,0 z"
               inkscape:connector-curvature="0"
               id="path5198"
               style="opacity:0.4;fill:url(#linearGradient5695);fill-opacity:1;fill-rule:evenodd;stroke:none;display:inline" />
            <path
               d="m 88.07832,7 0,81.46875 c -0.30671,0.274579 -0.64098,0.51153 -1,0.71875 l 0,-82.1875 1,0 z m -4,-1 0,84 -0.53125,0 -0.46875,0 0,-84 1,0 z m -4,0 0,4.25 c -0.34416,-0.5814256 -0.68333,-1.11573 -1,-1.5625 l 0,-2.6875 1,0 z m 0,7.5 0,10.3125 c -0.33274,-0.339034 -0.66636,-0.694301 -1,-1.0625 l 0,-8.125 1,-1.125 z m -4,4.5625 0,1.375 c -0.21761,-0.219477 -0.43906,-0.425554 -0.65625,-0.625 l 0.65625,-0.75 z m 4,9.96875 0,61.96875 -1,0 0,-60.8125 c 0.36037,-0.399711 0.67608,-0.789177 1,-1.15625 z m -4,4.375 0,57.59375 -1,0 0,-56.5 c 0.3567,-0.381854 0.65894,-0.726633 1,-1.09375 z m -4,4.3125 0,53.28125 -1,0 0,-52.21875 c 0.33344,-0.354168 0.67332,-0.715345 1,-1.0625 z m -4,4.25 0,49.03125 -1,0 0,-47.96875 c 0.3305,-0.352868 0.67211,-0.713188 1,-1.0625 z m -4,4.3125 0,44.71875 -1,0 0,-43.65625 c 0.33155,-0.359335 0.66783,-0.704165 1,-1.0625 z m -4,4.34375 0,40.375 -1,0 0,-39.28125 c 0.3265,-0.363246 0.66952,-0.728905 1,-1.09375 z m -4,4.4375 0,35.9375 -1,0 0,-34.75 c 0.33802,-0.393066 0.65248,-0.788894 1,-1.1875 z m -4,4.78125 0,31.15625 -1,0 0,-29.9375 c 0.31556,-0.398492 0.66656,-0.80856 1,-1.21875 z"
               inkscape:connector-curvature="0"
               id="path4217"
               style="opacity:0.1;fill:#ffffff;fill-opacity:1;stroke:none" />
            <g
               transform="matrix(-1,0,0,1,56.07832,0)"
               clip-path="url(#clipPath4211)"
               id="g4219">
              <path
                 inkscape:connector-curvature="0"
                 d="m 19.40625,4.03125 c -4.65e-4,4.93e-5 -0.124539,0.031173 -0.125,0.03125 -4.61e-4,7.68e-5 -0.124544,0.031146 -0.125,0.03125 -4.56e-4,1.04e-4 -0.0933,-1.308e-4 -0.09375,0 -4.49e-4,1.308e-4 -0.12456,0.062343 -0.125,0.0625 -4.4e-4,1.572e-4 -0.09332,0.031067 -0.09375,0.03125 -4.3e-4,1.831e-4 -0.09333,0.062292 -0.09375,0.0625 -4.19e-4,2.082e-4 -0.124595,0.031017 -0.125,0.03125 -3.12e-4,1.79e-4 -0.03557,0.045957 -0.0625,0.0625 -0.0081,0.00496 -0.03116,-5.91e-5 -0.03125,0 l 0,0.03125 c -1.517161,0.9648624 -3.326838,2.9036664 -5.375,7 l 0.03125,0 c -2.67e-4,5.17e-4 -0.06227,0.124465 -0.0625,0.125 -2.28e-4,5.35e-4 -0.06231,0.124449 -0.0625,0.125 -1.88e-4,5.51e-4 -0.0311,0.155687 -0.03125,0.15625 -1.47e-4,5.63e-4 -0.03115,0.124428 -0.03125,0.125 -1.05e-4,5.72e-4 -0.03119,0.155671 -0.03125,0.15625 -6.3e-5,5.79e-4 2e-5,0.124418 0,0.125 -2e-5,5.82e-4 -2.3e-5,0.155668 0,0.15625 2.3e-5,5.82e-4 -6.6e-5,0.155672 0,0.15625 6.6e-5,5.78e-4 0.03114,0.124428 0.03125,0.125 1.09e-4,5.72e-4 0.0311,0.155688 0.03125,0.15625 1.5e-4,5.62e-4 0.03106,0.12445 0.03125,0.125 1.92e-4,5.5e-4 0.06227,0.124466 0.0625,0.125 2.32e-4,5.34e-4 0.06223,0.155735 0.0625,0.15625 2.7e-4,5.15e-4 0.06219,0.124506 0.0625,0.125 3.08e-4,4.94e-4 0.09341,0.09328 0.09375,0.09375 3.43e-4,4.7e-4 0.06212,0.124557 0.0625,0.125 a 0.96457691,0.96457691 0 0 0 0.03125,0 l 4.5625,5.25 c -1.965786,2.044848 -3.838196,4.314279 -5.125,5.15625 -0.0046,0.003 -0.02669,-0.003 -0.03125,0 -0.02565,0.01662 -0.06226,0.03108 -0.0625,0.03125 -3.47e-4,2.38e-4 -0.09342,0.06224 -0.09375,0.0625 -3.34e-4,2.56e-4 -0.06218,0.09348 -0.0625,0.09375 -3.19e-4,2.74e-4 -0.09345,0.06221 -0.09375,0.0625 -3.04e-4,2.9e-4 -0.06221,0.06219 -0.0625,0.0625 -2.88e-4,3.06e-4 -0.06223,0.09343 -0.0625,0.09375 -2.72e-4,3.21e-4 -0.06225,0.06217 -0.0625,0.0625 -2.54e-4,3.35e-4 -0.06226,0.0934 -0.0625,0.09375 -2.36e-4,3.48e-4 -0.06228,0.09339 -0.0625,0.09375 -2.17e-4,3.6e-4 -0.0623,0.09338 -0.0625,0.09375 -1.98e-4,3.71e-4 -0.03107,0.09337 -0.03125,0.09375 -1.77e-4,3.81e-4 -0.03109,0.09336 -0.03125,0.09375 -1.57e-4,3.9e-4 -0.06236,0.09335 -0.0625,0.09375 -1.36e-4,3.98e-4 -0.03114,0.09334 -0.03125,0.09375 -1.14e-4,4.05e-4 9.3e-5,0.09334 0,0.09375 -9.3e-5,4.1e-4 -0.03118,0.124585 -0.03125,0.125 -7.1e-5,4.15e-4 -0.0312,0.09333 -0.03125,0.09375 -4.8e-5,4.18e-4 2.6e-5,0.09333 0,0.09375 -2.6e-5,4.2e-4 4e-6,0.09333 0,0.09375 -4e-6,4.21e-4 -1.9e-5,0.12458 0,0.125 1.9e-5,4.2e-4 -4.1e-5,0.09333 0,0.09375 4.1e-5,4.19e-4 0.03119,0.09333 0.03125,0.09375 6.4e-5,4.16e-4 -8.6e-5,0.124588 0,0.125 8.6e-5,4.12e-4 0.03114,0.09334 0.03125,0.09375 1.07e-4,4.07e-4 0.03112,0.09335 0.03125,0.09375 1.29e-4,4e-4 0.0311,0.09336 0.03125,0.09375 1.5e-4,3.93e-4 0.03108,0.09337 0.03125,0.09375 1.71e-4,3.84e-4 0.06231,0.09338 0.0625,0.09375 1.91e-4,3.75e-4 0.03104,0.09339 0.03125,0.09375 2.11e-4,3.64e-4 0.06227,0.0934 0.0625,0.09375 2.3e-4,3.52e-4 0.06225,0.09341 0.0625,0.09375 1.91e-4,2.61e-4 0.04509,0.04002 0.0625,0.0625 0.0062,0.0077 0.02505,0.02348 0.03125,0.03125 3.54882,4.446996 12.245307,13.255318 20.375,22.125 4.072106,4.442762 8.000445,8.877113 10.96875,12.65625 1.479336,1.883436 2.694855,3.628685 3.59375,5.09375 0.898895,1.465065 1.469886,2.711475 1.59375,3.28125 1.62e-4,6.59e-4 0.06228,0.186857 0.0625,0.1875 2.18e-4,6.43e-4 0.03098,0.155628 0.03125,0.15625 2.73e-4,6.22e-4 0.09343,0.124404 0.09375,0.125 3.25e-4,5.96e-4 0.09338,0.155684 0.09375,0.15625 3.75e-4,5.66e-4 0.09333,0.124469 0.09375,0.125 4.22e-4,5.31e-4 0.09328,0.124507 0.09375,0.125 4.67e-4,4.93e-4 0.124493,0.124549 0.125,0.125 5.07e-4,4.51e-4 0.124456,0.124594 0.125,0.125 5.44e-4,4.06e-4 0.155673,0.09339 0.15625,0.09375 5.77e-4,3.58e-4 0.124394,0.06219 0.125,0.0625 6.06e-4,3.07e-4 0.15562,0.06225 0.15625,0.0625 6.3e-4,2.53e-4 0.155601,0.0623 0.15625,0.0625 6.49e-4,1.98e-4 0.186836,0.06236 0.1875,0.0625 6.64e-4,1.42e-4 0.155576,-8.4e-5 0.15625,0 6.74e-4,8.4e-5 0.155572,0.03122 0.15625,0.03125 6.78e-4,2.6e-5 0.186822,3.3e-5 0.1875,0 6.78e-4,-3.3e-5 0.155577,-0.03116 0.15625,-0.03125 6.73e-4,-9.1e-5 0.155588,-0.0311 0.15625,-0.03125 6.62e-4,-1.49e-4 0.186853,-0.03105 0.1875,-0.03125 6.47e-4,-2.05e-4 0.155623,-0.06224 0.15625,-0.0625 6.27e-4,-2.6e-4 0.155648,-0.06219 0.15625,-0.0625 6.02e-4,-3.13e-4 0.124427,-0.09339 0.125,-0.09375 5.73e-4,-3.64e-4 0.15571,-0.09334 0.15625,-0.09375 5.4e-4,-4.12e-4 0.124498,-0.09329 0.125,-0.09375 5.02e-4,-4.57e-4 0.124539,-0.124502 0.125,-0.125 4.61e-4,-4.98e-4 0.09333,-0.124464 0.09375,-0.125 4.17e-4,-5.36e-4 0.09338,-0.15568 0.09375,-0.15625 3.69e-4,-5.7e-4 0.09343,-0.124401 0.09375,-0.125 3.19e-4,-5.99e-4 0.06223,-0.155625 0.0625,-0.15625 2.66e-4,-6.25e-4 0.06229,-0.155605 0.0625,-0.15625 2.11e-4,-6.45e-4 0.06235,-0.155589 0.0625,-0.15625 1.55e-4,-6.61e-4 0.03115,-0.186828 0.03125,-0.1875 l 0.09375,-0.75 c 1.33e-4,-4.95e-4 0.01951,-0.07074 0.03125,-0.125 0.0056,-0.02605 -4e-5,-0.06226 0,-0.0625 1.25e-4,-7.49e-4 0.0312,-0.186743 0.03125,-0.1875 9e-6,-1.91e-4 -5.8e-5,-0.0563 0,-0.0625 -1.2e-4,-0.01557 1.55e-4,-0.01782 0,-0.03125 -3.1e-4,-0.02686 -5.02e-4,-0.09156 0,-0.125 -4.3e-5,0.0028 0.02186,-0.176677 0,-0.4375 C 52.787342,66.238064 51.952038,63.514162 50.75,59.625 49.545581,55.728132 47.931891,50.850065 46.0625,45.5 42.344966,34.860678 37.707739,22.420006 33.78125,12.34375 a 0.96457691,0.96457691 0 0 0 -0.0625,-0.1875 0.96457691,0.96457691 0 0 0 0,-0.03125 C 32.862517,9.9456341 32.06813,7.7274555 31.375,5.46875 c -3e-5,-1.047e-4 0.0024,-0.023923 0,-0.03125 C 31.36351,5.402331 31.31268,5.3129895 31.3125,5.3125 31.31228,5.3119085 31.25027,5.156822 31.25,5.15625 31.249733,5.155678 31.18781,5.0317988 31.1875,5.03125 31.187188,5.0307012 31.0941,4.9067722 31.09375,4.90625 31.093396,4.9057278 31.0004,4.7817421 31,4.78125 30.999605,4.7807579 30.90668,4.6567089 30.90625,4.65625 30.905817,4.6557911 30.781719,4.5316728 30.78125,4.53125 30.780781,4.5308272 30.688,4.437884 30.6875,4.4375 30.686999,4.437116 30.56303,4.344093 30.5625,4.34375 30.56197,4.3434073 30.406806,4.281549 30.40625,4.28125 30.405694,4.2809508 30.281828,4.187754 30.28125,4.1875 30.280672,4.1872462 30.125596,4.156457 30.125,4.15625 30.124404,4.1560433 29.969361,4.093908 29.96875,4.09375 29.968139,4.0935916 29.813122,4.062609 29.8125,4.0625 29.811878,4.062391 29.656878,4.031309 29.65625,4.03125 c -6.28e-4,-5.89e-5 -0.155619,8.4e-6 -0.15625,0 l -9.875,0 c -1.49e-4,-7.1e-6 -0.01939,4.3e-6 -0.03125,0 -0.04745,-1.7e-5 -0.124402,-2.84e-5 -0.125,0 a 0.96457691,0.96457691 0 0 0 -0.0625,0 z M 51,68.65625 c 0,0 0.258594,-9.32e-4 0.375,0 L 51,68.6875 c 7.88e-4,0.01171 0,-0.03125 0,-0.03125 z"
                 transform="translate(-40,1)"
                 id="path4221"
                 style="opacity:0.1;fill:#000000;fill-opacity:1;fill-rule:evenodd;stroke:none;display:inline" />
              <path
                 inkscape:connector-curvature="0"
                 d="M 19.59375,5 A 0.98812041,0.98812041 0 0 0 19.0625,5.15625 c -1.305817,0.821253 -3.015913,2.6255675 -5.03125,6.65625 a 0.98812041,0.98812041 0 0 0 0.125,1.09375 l 5.15625,5.90625 c -2.137868,2.136516 -4.216186,4.82112 -5.9375,5.9375 a 0.98812041,0.98812041 0 0 0 -0.25,1.46875 c 3.440081,4.317974 12.21408,13.189999 20.375,22.09375 4.08046,4.451876 8.004237,8.904654 11,12.71875 2.995763,3.814096 5.022274,7.127458 5.375,8.75 a 0.98812041,0.98812041 0 0 0 1.9375,-0.09375 l 0.125,-0.875 a 0.98812041,0.98812041 0 0 0 0.03125,-0.1875 c 0.0014,0.02759 -0.0014,-0.06123 0,-0.15625 0.0014,-0.09502 0.01664,-0.145132 0,-0.34375 -0.131002,-1.564426 -0.925762,-4.338646 -2.125,-8.21875 C 48.644512,56.026146 47.022791,51.15441 45.15625,45.8125 41.423167,35.128679 36.748523,22.594683 32.8125,12.5 a 0.98812041,0.98812041 0 0 0 0,-0.03125 c -0.86705,-2.206899 -1.671132,-4.4531632 -2.375,-6.75 A 0.98812041,0.98812041 0 0 0 29.5,5 l -9.90625,0 z"
                 transform="translate(-40,1)"
                 id="path4223"
                 style="opacity:0.15;fill:#000000;fill-opacity:1;fill-rule:evenodd;stroke:none;display:inline" />
              <path
                 inkscape:connector-curvature="0"
                 d="m 19.59375,6 c -1.08197,0.6804712 -2.72135,2.3176926 -4.6875,6.25 l 5.75,6.5625 c -2.24578,2.062348 -4.52743,5.339774 -6.75,6.78125 6.68113,8.386124 35.15883,35.78686 36.9375,43.96875 l 0.125,-0.875 c -0.0054,-0.106325 0.006,-0.39715 0,-0.46875 C 50.53087,62.989606 39.76874,33.008607 31.90625,12.84375 31.03156,10.617404 30.21271,8.3256881 29.5,6 l -9.90625,0 z"
                 transform="translate(-40,1)"
                 id="path4225"
                 style="opacity:0.3;fill:#000000;fill-opacity:1;fill-rule:evenodd;stroke:none;display:inline" />
            </g>
            <path
               d="m 66.48623,5.9999999 c -0.71271,2.3256881 -1.52785,4.6031031 -2.40254,6.8294491 -7.86249,20.164857 -18.6045,50.162806 -19.04238,55.39195 -0.006,0.0716 -0.0168,0.360836 -0.0222,0.467161 l 0.13344,0.867584 c 1.77867,-8.18189 30.24684,-35.571503 36.92797,-43.957627 -2.22257,-1.441476 -4.49469,-4.72261 -6.74047,-6.784958 l 5.76166,-6.5625 C 79.13555,8.3187516 77.48982,6.6804711 76.40785,5.9999999 c -2.50801,0 -9.92161,0 -9.92161,0 z"
               inkscape:connector-curvature="0"
               id="path3183"
               style="fill:url(#linearGradient5697);fill-opacity:1;fill-rule:evenodd;stroke:none;display:inline" />
            <g
               transform="matrix(0.71186441,0,0,0.71186441,2.44068,5.2881355)"
               id="g4970"
               style="display:inline">
              <path
                 inkscape:connector-curvature="0"
                 d="m 73.958869,99.265976 a 3.747916,3.747916 0 1 1 -7.495832,0 3.747916,3.747916 0 1 1 7.495832,0 z"
                 transform="matrix(-0.6603334,-0.6603334,0.6603334,-0.6603334,48.813469,203.91181)"
                 id="path4936"
                 style="fill:#3d3d3d;fill-opacity:1;fill-rule:nonzero;stroke:url(#linearGradient5711);stroke-width:1.50426555;stroke-linecap:square;stroke-linejoin:round;stroke-miterlimit:4;stroke-opacity:1;stroke-dasharray:none;stroke-dashoffset:0" />
              <path
                 inkscape:connector-curvature="0"
                 d="m 73.958869,99.265976 a 3.747916,3.747916 0 1 1 -7.495832,0 3.747916,3.747916 0 1 1 7.495832,0 z"
                 transform="matrix(0.518912,0.518912,-0.518912,0.518912,83.076999,4.0563907)"
                 id="path4966"
                 style="fill:none;stroke:url(#linearGradient5713);stroke-width:1.43567216;stroke-linecap:square;stroke-linejoin:round;stroke-miterlimit:4;stroke-opacity:1;stroke-dasharray:none;stroke-dashoffset:0" />
            </g>
            <use
               transform="translate(0,11.389831)"
               id="use4978"
               style="display:inline"
               x="0"
               y="0"
               width="128"
               height="128"
               xlink:href="#g4970" />
            <path
               d="M 30.2787,9.3009408 C 28.9172,10.63925 22.92441,15.83664 17.20589,22.264247 25.43709,14.666218 29.72388,12.157598 31.17623,11.43056 30.82189,10.521986 30.60981,10.226237 30.2787,9.3009408 z"
               inkscape:connector-curvature="0"
               id="path5175"
               style="opacity:0.3;fill:#000000;fill-opacity:1;fill-rule:evenodd;stroke:none;display:inline" />
            <path
               d="m 65.26759,9.0493986 c 1.3615,1.3383094 7.35428,6.5356994 13.0728,12.9633054 -8.2312,-7.598028 -12.51798,-10.106648 -13.97033,-10.833686 0.35433,-0.908574 0.56642,-1.2043231 0.89753,-2.1296194 z"
               inkscape:connector-curvature="0"
               id="path5180"
               style="opacity:0.3;fill:#000000;fill-opacity:1;fill-rule:evenodd;stroke:none;display:inline" />
            <path
               d="m 65.40566,69.547253 c 0.17787,-1.067206 0,-8.35976 0,-8.35976 l 24.54567,-3.201609 -22.90688,4.802414 -1.63879,6.758955 z"
               inkscape:connector-curvature="0"
               id="path5241"
               style="fill:#464342;fill-opacity:1;fill-rule:evenodd;stroke:none;display:inline" />
            <path
               d="m 65.59432,69.421481 c 0.17787,-1.067206 1.00617,-6.724734 1.00617,-6.724734 l 19.76637,-3.684229 -18.63067,4.78195 -2.14187,5.627013 z"
               inkscape:connector-curvature="0"
               id="path5409"
               style="opacity:0.15;fill:#ffffff;fill-opacity:1;fill-rule:evenodd;stroke:none;display:inline" />
            <path
               d="m 68.03125,6 -9.1875,20.59375 C 57.17251,31.076197 55.51599,35.584665 53.9375,40 L 69.09375,6 68.03125,6 z M 72.375,6 45.28125,66.90625 c -0.0039,0.01892 -0.02743,0.04381 -0.03125,0.0625 -0.10465,0.51188 -0.19138,0.923179 -0.21875,1.25 -0.006,0.0716 0.0054,0.362425 0,0.46875 l 0.125,0.875 c 0.20083,-0.923819 0.75094,-2.110187 1.5625,-3.46875 L 73.46875,6 72.375,6 z m 4.3125,0.1875 -22.03125,49.46875 c 0.72989,-0.853131 1.47623,-1.71534 2.25,-2.59375 L 77.46875,6.875 C 77.18031,6.5960542 76.93091,6.3622323 76.6875,6.1875 z m 2.875,3.34375 -4.03125,9.0625 2.25,-2.5625 2.4375,-5.4375 C 79.99791,10.207643 79.77285,9.8608121 79.5625,9.53125 z M 75.40625,18.875 63.34375,45.96875 c 0.69906,-0.756353 1.39513,-1.500591 2.09375,-2.25 L 76.1875,19.625 c -0.26017,-0.268035 -0.52165,-0.50903 -0.78125,-0.75 z M 78.375,22.0625 71.71875,37 c 0.66718,-0.708852 1.39683,-1.480187 2.03125,-2.15625 0.0111,-0.01187 0.0201,-0.01939 0.0312,-0.03125 L 79.0937,22.875 c -0.241,-0.264501 -0.47747,-0.540635 -0.71875,-0.8125 z m 3.03125,3.03125 -1.25,2.75 c 0.74078,-0.842928 1.42834,-1.610899 1.9375,-2.25 -0.22491,-0.145871 -0.46165,-0.31962 -0.6875,-0.5 z"
               inkscape:connector-curvature="0"
               id="path4462"
               style="opacity:0.1;fill:#ffffff;fill-opacity:1;stroke:none" />
          </g>
        </g>
      </g>
      <path
         inkscape:connector-curvature="0"
         id="path4989"
         d="m 23.55381,-9.1392798 c -3.116621,0 -5.667965,2.53951 -5.667965,5.646004 l 0,69.2779958 c 0,3.106495 2.551344,5.646004 5.667965,5.646004 l 76.79178,0 c 3.11663,0 5.66797,-2.539509 5.66797,-5.646004 l 0,-69.2779958 c 0,-3.106493 -2.55134,-5.646004 -5.66797,-5.646004 l -76.79178,0 z m 0,2.319439 76.79178,0 c 1.8881,0 3.35203,1.480095 3.35203,3.326565 l 0,69.2779958 c 0,1.846474 -1.46393,3.326564 -3.35203,3.326564 l -76.79178,0 c -1.888099,0 -3.352022,-1.48009 -3.352022,-3.326564 l 0,-69.2779958 c 0,-1.84647 1.463923,-3.326565 3.352022,-3.326565 z"
         style="font-size:medium;font-style:normal;font-variant:normal;font-weight:normal;font-stretch:normal;text-indent:0;text-align:start;text-decoration:none;line-height:normal;letter-spacing:normal;word-spacing:normal;text-transform:none;direction:ltr;block-progression:tb;writing-mode:lr-tb;text-anchor:start;baseline-shift:baseline;color:#000000;fill:#241f1f;fill-opacity:0.79183673;stroke:none;stroke-width:2.3755002;marker:none;visibility:visible;display:inline;overflow:visible;enable-background:accumulate;font-family:Sans;-inkscape-font-specification:Sans" />
      <path
         inkscape:connector-curvature="0"
         style="opacity:0.65818182;fill:url(#linearGradient5703);fill-opacity:1;fill-rule:nonzero;stroke:none;display:inline"
         d="m 15.228729,67.975009 0,6 c 0,3.680142 2.976107,6.65625 6.65625,6.65625 l 79.687501,0 c 3.68014,0 6.65625,-2.976108 6.65625,-6.65625 l 0,-6 c 0,3.680142 -2.97611,6.65625 -6.65625,6.65625 l -79.687501,0 c -3.680143,0 -6.65625,-2.976108 -6.65625,-6.65625 z"
         id="path4118" />
      <rect
         style="opacity:0.55;fill:url(#radialGradient5705);fill-opacity:1;stroke:none"
         id="rect4131"
         width="84.250008"
         height="4.25"
         x="19.103729"
         y="66.381256"
         rx="0"
         ry="4.25" />
      <rect
         ry="4.25"
         rx="0"
         y="-104.35373"
         x="-9.118741"
         height="4.25"
         width="76.75"
         id="rect4141"
         style="opacity:0.55;fill:url(#radialGradient5707);fill-opacity:1;stroke:none"
         transform="matrix(0,1,-1,0,0,0)" />
      <path
         sodipodi:nodetypes="ssccscss"
         style="opacity:0.3;fill:#ffffff;fill-opacity:1;stroke:none"
         d="m 23.50125,-7.2252408 c -1.993352,0 -3.604492,1.649341 -3.608803,3.684498 L 19.74423,66.420381 c 1.913686,2.521055 1.665283,2.410772 4.851514,2.679065 1.804215,-14.861054 36.499018,-73.3364718 77.418286,-73.3364718 0.48807,0 0.96327,0.01986 1.4492,0.02901 -0.30286,-1.718031 -1.751,-3.017226 -3.523555,-3.017226 z"
         id="rect4190"
         inkscape:connector-curvature="0" />
      <rect
         transform="matrix(0.90930469,0,0,0.92837735,18.073837,20.62608)"
         style="opacity:0.88727273;fill:url(#linearGradient5709);fill-opacity:1;stroke:none"
         id="rect4146"
         width="92"
         height="92"
         x="2"
         y="-30"
         rx="3.9569874"
         ry="3.9569881"
         clip-path="url(#clipPath4156-4)" />
    </g>
  </g>
</svg>
