<?xml version="1.0" encoding="UTF-8" standalone="no"?>
<!-- Created with Inkscape (http://www.inkscape.org/) -->

<svg
   xmlns:dc="http://purl.org/dc/elements/1.1/"
   xmlns:cc="http://creativecommons.org/ns#"
   xmlns:rdf="http://www.w3.org/1999/02/22-rdf-syntax-ns#"
   xmlns:svg="http://www.w3.org/2000/svg"
   xmlns="http://www.w3.org/2000/svg"
   xmlns:xlink="http://www.w3.org/1999/xlink"
   xmlns:sodipodi="http://sodipodi.sourceforge.net/DTD/sodipodi-0.dtd"
   xmlns:inkscape="http://www.inkscape.org/namespaces/inkscape"
   width="96"
   height="96"
   viewBox="0 0 96.000001 96.000004"
   version="1.1"
   id="svg1072"
   inkscape:version="0.92.2 2405546, 2018-03-11"
   sodipodi:docname="thunderbird.svg">
  <defs
     id="defs1066">
    <linearGradient
       id="linearGradient5233">
      <stop
         stop-color="#124da4"
         id="stop5229"
         style="stop-color:#1660cc;stop-opacity:1" />
      <stop
         offset="1"
         stop-color="#2896ff"
         id="stop5231" />
    </linearGradient>
    <linearGradient
       inkscape:collect="always"
       id="linearGradient5213">
      <stop
         style="stop-color:#ffffff;stop-opacity:1"
         offset="0"
         id="stop5209" />
      <stop
         id="stop5217"
         offset="0.39417842"
         style="stop-color:#e7e7e7;stop-opacity:1" />
      <stop
         style="stop-color:#bdbdbd;stop-opacity:1"
         offset="0.49899083"
         id="stop5219" />
      <stop
         style="stop-color:#b0b0b0;stop-opacity:1"
         offset="1"
         id="stop5211" />
    </linearGradient>
    <linearGradient
       y2="47.000011"
       x2="90"
       y1="47.000011"
       x1="6"
       gradientTransform="matrix(1.1059895,0,0,1.1071426,-5.2385469,-3.3706609)"
       gradientUnits="userSpaceOnUse"
       id="linearGradient4071"
       xlink:href="#linearGradient6139-0"
       inkscape:collect="always" />
    <linearGradient
       id="linearGradient6139-0">
      <stop
         style="stop-color:#b2babc;stop-opacity:1"
         offset="0"
         id="stop6141-2" />
      <stop
         id="stop6151-0"
         offset="0.25"
         style="stop-color:#ffffff;stop-opacity:1;" />
      <stop
         id="stop6147-1"
         offset="0.5"
         style="stop-color:#96a1a4;stop-opacity:1" />
      <stop
         style="stop-color:#fbf9f9;stop-opacity:1;"
         offset="0.75"
         id="stop6149-4" />
      <stop
         style="stop-color:#b2b9bc;stop-opacity:1"
         offset="1"
         id="stop6143-4" />
    </linearGradient>
    <linearGradient
       gradientUnits="userSpaceOnUse"
       y2="88.171875"
       x2="94.5"
       y1="88.171875"
       x1="1.5"
       id="linearGradient4129"
       xlink:href="#linearGradient3832-0-6-1-1"
       inkscape:collect="always"
       gradientTransform="matrix(0.99895835,0,0,0.99999997,-0.10104801,0.66505199)" />
    <linearGradient
       id="linearGradient3832-0-6-1-1">
      <stop
         id="stop3834-6-3-7-1"
         offset="0"
         style="stop-color:#000000;stop-opacity:1;" />
      <stop
         style="stop-color:#000000;stop-opacity:0.58823532;"
         offset="0.1"
         id="stop3872-2-4" />
      <stop
         id="stop3844-6-2-7-6"
         offset="0.89999998"
         style="stop-color:#000000;stop-opacity:0.58823532;" />
      <stop
         id="stop3836-5-0-2-9"
         offset="1"
         style="stop-color:#000000;stop-opacity:1;" />
    </linearGradient>
    <radialGradient
       r="43.199203"
       fy="44.892841"
       fx="13.948145"
       cy="44.892841"
       cx="13.948145"
       gradientTransform="matrix(0.97411799,0,0,0.04919072,33.762335,80.831749)"
       gradientUnits="userSpaceOnUse"
       id="radialGradient7462"
       xlink:href="#linearGradient3737"
       inkscape:collect="always" />
    <linearGradient
       id="linearGradient3737">
      <stop
         id="stop3739"
         style="stop-color:#ffffff;stop-opacity:1"
         offset="0" />
      <stop
         id="stop3741"
         style="stop-color:#ffffff;stop-opacity:0"
         offset="1" />
    </linearGradient>
    <radialGradient
       r="43.199203"
       fy="44.892841"
       fx="13.948145"
       cy="44.892841"
       cx="13.948145"
       gradientTransform="matrix(0.88832662,0,0,0.04913948,32.209544,-89.973331)"
       gradientUnits="userSpaceOnUse"
       id="radialGradient7464"
       xlink:href="#linearGradient3737"
       inkscape:collect="always" />
    <linearGradient
       y2="14.514202"
       x2="50.527882"
       y1="-28.64156"
       x1="2.7713892"
       gradientUnits="userSpaceOnUse"
       id="linearGradient4767"
       xlink:href="#linearGradient3737"
       inkscape:collect="always"
       gradientTransform="matrix(1.0041884,0,0,1.0052356,-0.21820995,-0.04755458)" />
    <clipPath
       clipPathUnits="userSpaceOnUse"
       id="clipPath4156-4-1">
      <path
         style="opacity:0.6;fill:#ffffff;fill-opacity:1;stroke:none"
         d="m 27.046336,-55.695463 -14.21366,13.321486 h 0.06127 l 15.653407,21.770763 10.231384,-10.546177 C 38.561832,-32.30156 27.468089,-54.819245 27.046336,-55.695463 Z M 9.6468554,-39.382809 -5.2407289,-25.32124 15.987863,-7.8059573 26.372412,-18.382966 Z m 31.4906096,12.951445 -9.741259,9.713584 8.944804,12.4580526 7.780753,-7.5550056 z m -49.8397109,4.378822 -13.7541661,12.9822847 26.2830181,13.84571 0.06127,-0.0617 -0.122531,-0.0617 L 13.598503,-5.4007374 -8.7022409,-22.052595 Z m 38.0154159,7.400825 -9.802525,9.7752596 11.579232,9.5594001 7.62759,-7.40083 -8.669108,-11.0087257 z m 20.187073,5.6739697 -7.382526,7.2158 6.187844,8.54179 5.820249,-6.13651996 z m -32.195166,6.32154 -9.5574606,9.49772 13.6622686,7.1849703 7.933918,-7.6783603 z m 23.311629,2.37443004 -7.10683,6.93826996 8.362778,6.9074403 5.360756,-5.6739699 -0.06127,-0.0925 -0.0919,0.12335 -6.463539,-8.20258036 z m -8.730374,8.54178036 -7.505057,7.3391599 10.353916,5.45811 c 1.397496,-1.32103 5.67514,-6.12292 5.850882,-6.32154 z"
         id="path4158-0-8"
         inkscape:connector-curvature="0" />
    </clipPath>
    <linearGradient
       gradientUnits="userSpaceOnUse"
       y2="7.0165396"
       x2="45.447727"
       y1="92.539597"
       x1="45.447727"
       gradientTransform="scale(1.0058652,0.994169)"
       id="ButtonShadow-16">
      <stop
         id="stop3750-6"
         offset="0"
         style="stop-color:#000000;stop-opacity:1;" />
      <stop
         id="stop3752-4"
         offset="1"
         style="stop-color:#000000;stop-opacity:0.58823532;" />
    </linearGradient>
    <clipPath
       id="clipPath4355-7"
       clipPathUnits="userSpaceOnUse">
      <rect
         ry="6"
         rx="6"
         y="6"
         x="6"
         height="80"
         width="84"
         id="rect4357-5"
         style="fill:#ffffff;fill-opacity:1;fill-rule:nonzero;stroke:none" />
    </clipPath>
    <clipPath
       id="clipPath4355-9"
       clipPathUnits="userSpaceOnUse">
      <rect
         ry="6"
         rx="6"
         y="6"
         x="6"
         height="80"
         width="84"
         id="rect4357-1"
         style="fill:#ffffff;fill-opacity:1;fill-rule:nonzero;stroke:none" />
    </clipPath>
    <clipPath
       id="clipPath4355-1"
       clipPathUnits="userSpaceOnUse">
      <rect
         ry="6"
         rx="6"
         y="6"
         x="6"
         height="80"
         width="84"
         id="rect4357-9"
         style="fill:#ffffff;fill-opacity:1;fill-rule:nonzero;stroke:none" />
    </clipPath>
    <clipPath
       id="clipPath3943-52-0"
       clipPathUnits="userSpaceOnUse">
      <path
         inkscape:connector-curvature="0"
         style="color:#000000;display:inline;overflow:visible;visibility:visible;opacity:0.8;fill:#ff00ff;fill-opacity:1;fill-rule:nonzero;stroke:none;stroke-width:1;marker:none;enable-background:accumulate"
         d="m 69.78125,20.84375 -5,3.4375 c 5.586891,5.537137 9,13.327613 9,21.8125 0,8.434478 -3.37723,16.095981 -8.90625,21.625 l 5,3.4375 C 76.078226,64.5762 80,55.843726 80,46.09375 c 2e-6,-9.796556 -3.962955,-18.660417 -10.21875,-25.25 z M 40,24.0625 28.90625,36.21875 H 21.5 c -0.823281,0 -1.5,0.676717 -1.5,1.5 v 1 14.84375 1 c 0,0.823281 0.684121,1.610161 1.5,1.5 h 7.40625 L 40,68 V 66 26.0625 Z m 20.59375,3.28125 -5,3.4375 L 55.5,30.875 c 3.93815,3.890071 6.40625,9.25018 6.40625,15.21875 0,5.920869 -2.42961,11.148358 -6.3125,15.03125 l 0.09375,0.09375 5.09375,3.4375 c 4.475428,-4.908367 7.25,-11.402005 7.25,-18.5625 0,-7.230696 -2.87904,-13.83107 -7.4375,-18.75 z m -9.25,6.5 -5.21875,3.625 c 2.222384,2.217802 3.71875,5.239596 3.71875,8.625 0,3.336509 -1.458847,6.227712 -3.625,8.4375 l 5.21875,3.625 c 2.822412,-3.236947 4.53125,-7.43414 4.53125,-12.0625 0,-4.672601 -1.754155,-9.001351 -4.625,-12.25 z"
         id="path3945-4-1" />
    </clipPath>
    <linearGradient
       id="0">
      <stop
         id="stop5101"
         stop-color="#124da4" />
      <stop
         id="stop5103"
         stop-color="#2896ff"
         offset="1" />
    </linearGradient>
    <linearGradient
       gradientUnits="userSpaceOnUse"
       y2="473.2"
       x2="317.98"
       y1="569.02"
       x1="317.9"
       id="1"
       xlink:href="#0" />
    <linearGradient
       gradientUnits="userSpaceOnUse"
       y2="473.58"
       x2="204.7"
       y1="573.24"
       x1="205.03"
       id="2"
       xlink:href="#0"
       gradientTransform="translate(64.030724,7.4874637)" />
    <linearGradient
       gradientUnits="userSpaceOnUse"
       y2="473.20001"
       x2="317.98001"
       y1="569.02002"
       x1="317.89999"
       id="1-3"
       xlink:href="#0"
       gradientTransform="translate(-253.45951,24.234892)" />
    <linearGradient
       inkscape:collect="always"
       xlink:href="#linearGradient5213"
       id="linearGradient5215"
       x1="136.01183"
       y1="185.79349"
       x2="196.85629"
       y2="165.76392"
       gradientUnits="userSpaceOnUse"
       gradientTransform="matrix(0.6651349,-0.2048414,0.2048414,0.6651349,-72.725649,-11.460175)" />
    <linearGradient
       gradientTransform="translate(-100.41043,37.1829)"
       id="a"
       x1="37.713001"
       x2="42.612"
       y1="27.334999"
       y2="36.592999"
       gradientUnits="userSpaceOnUse">
      <stop
         id="l"
         style="stop-color:#4d0000;stop-opacity:0.21145375"
         offset="0" />
      <stop
         id="ab"
         style="stop-color:#4d0000;stop-opacity:0.17621145"
         offset="1" />
    </linearGradient>
    <filter
       style="color-interpolation-filters:sRGB"
       id="k">
      <feGaussianBlur
         id="q"
         stdDeviation="0.0785332" />
    </filter>
    <filter
       style="color-interpolation-filters:sRGB"
       id="c">
      <feGaussianBlur
         id="as"
         stdDeviation="0.0785332" />
    </filter>
    <linearGradient
       gradientTransform="translate(-79.917674,-16.952125)"
       id="b"
       x1="34.702999"
       x2="34.702999"
       y1="64"
       y2="0.58805001"
       gradientUnits="userSpaceOnUse">
      <stop
         id="aa"
         style="stop-color:#ecd087"
         offset="0" />
      <stop
         id="h"
         style="stop-color:#ecd087"
         offset=".50464" />
      <stop
         id="g"
         style="stop-color:#e8c17a"
         offset=".50464" />
      <stop
         id="p"
         style="stop-color:#dfbe81"
         offset="1" />
    </linearGradient>
    <filter
       style="color-interpolation-filters:sRGB"
       id="k-3">
      <feGaussianBlur
         id="q-6"
         stdDeviation="0.0785332" />
    </filter>
    <filter
       style="color-interpolation-filters:sRGB"
       id="c-7">
      <feGaussianBlur
         id="as-5"
         stdDeviation="0.0785332" />
    </filter>
  </defs>
  <sodipodi:namedview
     id="base"
     pagecolor="#ffffff"
     bordercolor="#666666"
     borderopacity="1.0"
     inkscape:pageopacity="0.0"
     inkscape:pageshadow="2"
     inkscape:zoom="1.463932"
     inkscape:cx="4.5933809"
     inkscape:cy="34.995729"
     inkscape:document-units="px"
     inkscape:current-layer="g1217"
     showgrid="false"
     inkscape:showpageshadow="false"
     units="px"
     inkscape:lockguides="true"
     inkscape:window-width="1920"
     inkscape:window-height="1025"
     inkscape:window-x="0"
     inkscape:window-y="25"
     inkscape:window-maximized="1"
     inkscape:snap-global="false">
    <sodipodi:guide
       position="0,0"
       orientation="0,96"
       id="guide1621"
       inkscape:locked="true" />
    <sodipodi:guide
       position="96.000002,0"
       orientation="-96,0"
       id="guide1623"
       inkscape:locked="true" />
    <sodipodi:guide
       position="96.000002,96.000002"
       orientation="0,-96"
       id="guide1625"
       inkscape:locked="true" />
    <sodipodi:guide
       position="0,96.000002"
       orientation="96,0"
       id="guide1627"
       inkscape:locked="true" />
  </sodipodi:namedview>
  <metadata
     id="metadata1069">
    <rdf:RDF>
      <cc:Work
         rdf:about="">
        <dc:format>image/svg+xml</dc:format>
        <dc:type
           rdf:resource="http://purl.org/dc/dcmitype/StillImage" />
        <dc:title />
        <dc:date>2019</dc:date>
        <dc:creator>
          <cc:Agent>
            <dc:title>Cristian Pozzessere &lt; ilnanny &gt;</dc:title>
          </cc:Agent>
        </dc:creator>
        <dc:subject>
          <rdf:Bag>
            <rdf:li>ilnanny</rdf:li>
            <rdf:li>inkscape</rdf:li>
            <rdf:li>vectorart</rdf:li>
            <rdf:li>svgfiles</rdf:li>
            <rdf:li>wallpapers</rdf:li>
            <rdf:li>icons</rdf:li>
            <rdf:li>patterns</rdf:li>
          </rdf:Bag>
        </dc:subject>
        <dc:description>..when I have nothing to do, I scribble and have fun with inkscape.</dc:description>
        <dc:contributor>
          <cc:Agent>
            <dc:title>In the night, alone like a dog.</dc:title>
          </cc:Agent>
        </dc:contributor>
        <cc:license
           rdf:resource="http://creativecommons.org/licenses/by-sa/4.0/" />
        <dc:coverage>Italy</dc:coverage>
      </cc:Work>
      <cc:License
         rdf:about="http://creativecommons.org/licenses/by-sa/4.0/">
        <cc:permits
           rdf:resource="http://creativecommons.org/ns#Reproduction" />
        <cc:permits
           rdf:resource="http://creativecommons.org/ns#Distribution" />
        <cc:requires
           rdf:resource="http://creativecommons.org/ns#Notice" />
        <cc:requires
           rdf:resource="http://creativecommons.org/ns#Attribution" />
        <cc:permits
           rdf:resource="http://creativecommons.org/ns#DerivativeWorks" />
        <cc:requires
           rdf:resource="http://creativecommons.org/ns#ShareAlike" />
      </cc:License>
    </rdf:RDF>
  </metadata>
  <g
     inkscape:label="Livello 1"
     inkscape:groupmode="layer"
     id="layer1"
     transform="translate(0,-1026.5197)">
    <g
       transform="translate(-0.14895645,1026.1047)"
       style="display:inline"
       id="g2574">
      <g
         id="g873"
         transform="translate(0.2500015,-0.250026)">
        <path
           style="display:inline;opacity:0.15;fill:#000000;fill-opacity:1;fill-rule:nonzero;stroke:none;stroke-width:0.99947876"
           d="M 88.827522,0.915026 H 6.9703768 c -3.7790623,0 -6.8214209,3.0423565 -6.8214209,6.8214257 V 89.593598 c 0,3.779071 3.0423586,6.821428 6.8214209,6.821428 H 88.827522 c 3.779072,0 6.821432,-3.042357 6.821432,-6.821428 V 7.7364517 c 0,-3.7790692 -3.04236,-6.8214257 -6.821432,-6.8214257 z"
           id="path3288"
           inkscape:connector-curvature="0" />
        <path
           inkscape:connector-curvature="0"
           id="path4085"
           d="M 88.188015,1.6611196 H 7.6098844 c -3.7200154,0 -6.71483658,2.9948194 -6.71483658,6.7148408 V 88.954089 c 0,3.720023 2.99482118,6.714843 6.71483658,6.714843 H 88.188015 c 3.720024,0 6.714845,-2.99482 6.714845,-6.714843 V 8.3759604 c 0,-3.7200214 -2.994821,-6.7148408 -6.714845,-6.7148408 z"
           style="display:inline;opacity:0.15;fill:#000000;fill-opacity:1;fill-rule:nonzero;stroke:none;stroke-width:0.99947876" />
        <path
           style="display:inline;fill:url(#linearGradient4071);fill-opacity:1;fill-rule:nonzero;stroke:none;stroke-width:0.99947876"
           d="M 87.5485,2.4072135 H 8.2494003 c -3.6609756,0 -6.6082583,2.9472821 -6.6082583,6.6082567 V 88.314581 c 0,3.660975 2.9472827,6.608259 6.6082583,6.608259 H 87.5485 c 3.660978,0 6.608258,-2.947284 6.608258,-6.608259 V 9.0154702 c 0,-3.6609746 -2.94728,-6.6082567 -6.608258,-6.6082567 z"
           id="rect4251-1"
           inkscape:connector-curvature="0" />
        <rect
           ry="2.9980392"
           rx="2.3669415"
           y="7.1843128"
           x="5.8397818"
           height="77.021454"
           width="84.557999"
           id="rect862"
           style="opacity:1;fill:#2a6dae;fill-opacity:1;stroke:none;stroke-width:0.71123183;stroke-miterlimit:4;stroke-dasharray:none;stroke-opacity:1" />
        <path
           inkscape:connector-curvature="0"
           id="path1118"
           d="m 7.0057633,83.544756 v -0.81787 L 47.92748,48.559417 c 10.271668,-9.438031 -7.733577,-7.664856 0.08813,0.341546 l 41.604809,33.825923 v 0.81787 z"
           style="fill:#33abff;fill-opacity:1;stroke-width:1.13615406"
           sodipodi:nodetypes="ccccccc" />
        <path
           inkscape:connector-curvature="0"
           style="display:inline;opacity:0.65818182;fill:url(#linearGradient4129);fill-opacity:1;fill-rule:nonzero;stroke:none;stroke-width:0.99947876"
           d="m 1.641141,82.332506 v 5.96875 c 0,3.660975 2.9606059,6.621583 6.6215813,6.621583 H 87.53518 c 3.660978,0 6.621588,-2.960608 6.621588,-6.621583 v -5.96875 c 0,3.660975 -2.96061,6.621583 -6.621588,6.621583 H 8.2627223 c -3.6609754,0 -6.6215813,-2.960608 -6.6215813,-6.621583 z"
           id="path4118" />
        <g
           id="g5130"
           transform="matrix(0.4677,0,0,0.4677,-53.400747,-200.30265)" />
        <path
           style="fill:#33abff;fill-opacity:1;stroke-width:1.13615406"
           d="M 7.0057633,7.9560865 V 8.7739563 L 39.559605,35.768961 43.149707,36.582192 H 53.476474 L 57.066575,35.768961 89.620417,8.7739563 V 7.9560865 Z"
           id="v"
           inkscape:connector-curvature="0" />
        <path
           style="color:#000000;display:inline;fill:#ffffff;stroke-width:1.25123012;fill-opacity:0.85000002"
           d="m 25.714945,8.0470846 -5.257456,4.9590604 h 6.520954 l 5.257443,-4.9590604 z m 26.083778,0 -5.257443,4.9590604 h 6.52094 l 5.257456,-4.9590604 z m 26.083789,0 -5.257444,4.9590604 h 6.520942 l 5.257455,-4.9590604 z m -66.51365,13.5983774 -5.2167652,4.99783 v 6.198857 l 5.2167652,-4.99783 z m 78.251355,0 -5.216752,4.99783 v 6.198857 l 5.216752,-4.99783 z m -78.251355,24.795904 -5.2167652,4.99783 v 6.198856 l 5.2167652,-4.997841 z m 78.251355,0.03878 -5.216752,4.99784 v 6.198856 l 5.216752,-4.997841 z m -78.251355,24.756293 -5.2167652,4.99783 v 6.198854 l 5.2167652,-4.997829 z m 78.251355,0.03878 -5.216752,4.99783 v 2.440812 h -2.608388 l -5.257446,4.959065 h 6.520943 l 1.344891,-1.278569 v 0.07742 l 5.216752,-4.997827 z m -59.992708,7.438642 -5.257454,4.959065 h 6.520951 l 5.257444,-4.959065 z m 26.08379,0 -5.257456,4.959065 h 6.520953 l 5.257444,-4.959065 z"
           id="u"
           inkscape:connector-curvature="0" />
        <path
           style="color:#000000;display:inline;fill:#d35252;stroke-width:1.25123012"
           d="m 12.67305,8.0470846 -1.304188,1.2010265 v 0.038783 L 9.4125672,11.146588 7.4155953,13.006283 6.152162,14.24608 v 6.198856 l 5.216758,-4.997841 v -2.440812 h 2.567686 l 5.257455,-4.9590592 z m 26.083778,0 -5.257445,4.9590604 h 6.520953 l 5.257446,-4.9590604 z m 26.08379,0 -5.257445,4.9590604 h 6.520942 l 5.257456,-4.9590604 z m 24.779599,1.2397973 -5.216752,4.9590601 v 6.198855 l 5.216752,-4.997829 z M 11.368862,34.043175 6.1520968,39.041004 v 6.198857 L 11.368862,40.24202 Z m 78.251355,0.03878 -5.216752,4.997841 v 6.198856 l 5.216752,-4.99784 z M 11.368862,58.83825 6.1520968,63.836081 v 6.198857 l 5.2167652,-4.997831 z m 78.251355,0.03878 -5.216752,4.99783 v 6.198856 l 5.216752,-4.99783 z m -73.034602,19.836959 -5.257444,4.95906 h 6.520942 l 5.257444,-4.95906 z m 26.083789,0 -5.257456,4.95906 h 6.520954 l 5.257444,-4.95906 z m 26.083777,0 -5.257443,4.95906 h 6.520953 l 5.257443,-4.95906 z"
           id="n"
           inkscape:connector-curvature="0" />
        <path
           style="opacity:0.91500005;vector-effect:none;fill:url(#linearGradient5215);fill-opacity:1;fill-rule:evenodd;stroke:none;stroke-width:2.5;stroke-linecap:round;stroke-linejoin:bevel;stroke-miterlimit:4;stroke-dasharray:none;stroke-dashoffset:0;stroke-opacity:1;paint-order:stroke fill markers"
           d="m 90.344235,67.080125 c -0.175402,4.620102 1.691196,9.477767 -0.295808,13.91151 -0.870045,2.187601 -3.105341,3.260381 -5.322578,3.572326 -4.415734,0.68727 -8.87255,-0.177556 -13.289378,-0.44766 -5.719538,-0.523061 -11.482818,-0.333524 -17.195267,0.113755 -3.532176,-0.01252 -5.810998,-3.82658 -5.187494,-7.073148 0.740825,-2.996021 2.283131,-5.747325 3.474832,-8.591212 4.042743,-8.527059 9.064469,-16.709101 15.642083,-23.521615 3.27597,-3.271966 7.472894,-6.57258 12.383894,-6.141793 4.124717,0.274645 6.886927,4.102358 7.976811,7.769993 1.905759,6.602508 1.784923,13.600505 1.812905,20.407844 z"
           id="path5202"
           inkscape:connector-curvature="0" />
        <path
           id="path5112"
           d="M 89.45054,51.395726 C 90.080311,36.420369 86.185159,22.398707 66.223245,17.688614 l 2.217943,-3.006081 C 43.373731,12.280294 33.584143,21.033563 30.306406,33.133067 L 33.445,31.06395 c 5.297594,13.508193 13.948599,10.057467 21.024875,14.571986 26.263435,-18.506984 27.958615,-2.643373 34.98522,5.762756"
           inkscape:connector-curvature="0"
           style="fill:#eef2f4;fill-opacity:1;fill-rule:evenodd;stroke-width:0.69596297" />
        <path
           id="path5114"
           d="m 74.813094,72.558003 c 5.203987,-3.534637 12.231905,-13.168374 12.45094,-23.532858 0,0 0.73211,0.185248 2.140477,2.658567 1.958946,-11.423186 -3.729548,-17.967183 -10.483294,-23.832113 0.908565,3.118064 -1.237388,5.300932 -1.237388,5.300932 -4.96102,-4.262232 -10.930578,-5.745928 -17.429155,-5.783579 -8.32196,-0.04921 -18.715197,11.662295 -26.531817,4.152679 3.201009,7.582421 7.99231,11.059468 12.822507,10.127546 10.50579,8.211423 29.213513,8.655172 28.271261,30.908467"
           inkscape:connector-curvature="0"
           style="fill:#d8e1e4;fill-opacity:1;fill-rule:evenodd;stroke-width:0.69596297" />
        <path
           id="path5116"
           d="M 47.456237,83.560985 C 67.966688,84.282632 90.339683,66.105748 74.574721,44.361921 74.431734,45.888612 72.424743,48.030869 72.424743,48.030869 58.060525,34.82441 44.909582,40.697965 31.640334,44.737885 46.70675,39.839367 59.418494,63.156316 47.456083,83.55812"
           inkscape:connector-curvature="0"
           style="fill:#b8c3ca;fill-opacity:1;fill-rule:evenodd;stroke-width:0.69596297" />
        <path
           id="path5118"
           d="M 41.138471,83.453086 C 56.357092,86.953587 65.07877,72.228644 63.2933,56.251565 c 0,0 -2.012008,3.547082 -3.803696,4.224849 1.351547,-20.638172 -19.30246,-18.851313 -28.069568,-15.004363 19.83744,1.144468 27.586615,21.357531 9.719919,37.98349"
           inkscape:connector-curvature="0"
           style="fill:#8a9ca8;fill-opacity:1;fill-rule:evenodd;stroke-width:0.69596297" />
        <path
           id="path5120"
           d="M 25.081766,56.735065 C 26.628191,50.143952 31.424268,44.809524 42.96599,41.433437 38.540951,39.164583 35.50528,35.878716 33.525805,30.900703 19.678626,37.220979 21.45838,47.197102 25.081766,56.735065"
           inkscape:connector-curvature="0"
           style="fill:#d8dfe4;fill-opacity:1;fill-rule:evenodd;stroke-width:0.69596297" />
        <path
           id="path5122"
           d="m 48.786208,31.484196 c 2.864862,8.299834 12.000052,0.72974 8.832959,-3.857763 -2.829921,0.966927 -5.626912,1.842151 -8.832959,3.857763"
           inkscape:connector-curvature="0"
           style="fill:#536e99;fill-opacity:1;fill-rule:evenodd;stroke-width:0.69596297" />
        <g
           id="g1163"
           transform="translate(11.271015,-3.7570051)">
          <g
             id="g1191"
             transform="translate(9.3925128,-4.6108699)" />
        </g>
        <rect
           style="opacity:0.55;fill:url(#radialGradient7462);fill-opacity:1;stroke:none;stroke-width:0.99947876"
           id="rect4131"
           width="83.811203"
           height="4.2278652"
           x="5.4959588"
           y="80.747047"
           rx="4.25"
           ry="4.25" />
        <rect
           transform="matrix(1.0636761,0,0,1.0422264,4.4218092,39.193603)"
           style="opacity:0.65;fill:url(#linearGradient4767);fill-opacity:1;stroke:none;stroke-width:1.00471163"
           id="rect4146"
           width="75.965775"
           height="69.024437"
           x="2"
           y="-30"
           rx="3.973561"
           ry="3.9777055"
           clip-path="url(#clipPath4156-4-1)" />
        <rect
           ry="4.245573"
           rx="4.245573"
           y="-89.764748"
           x="6.4460635"
           height="4.2278652"
           width="76.350258"
           id="rect4141"
           style="opacity:0.669;fill:url(#radialGradient7464);fill-opacity:1;stroke:none;stroke-width:0.99947876"
           transform="rotate(90)" />
        <path
           inkscape:connector-curvature="0"
           id="path4989"
           d="m 9.9228616,5.6198544 c -3.1003887,0 -5.6384442,2.5262833 -5.6384442,5.6165966 v 68.917174 c 0,3.090315 2.5380555,5.616599 5.6384442,5.616599 H 86.314686 c 3.100391,0 5.638448,-2.526284 5.638448,-5.616599 V 11.236451 c 0,-3.0903123 -2.538057,-5.6165966 -5.638448,-5.6165966 z m 0,2.3073585 H 86.314686 c 1.878266,0 3.334565,1.4723861 3.334565,3.3092381 v 68.917174 c 0,1.836856 -1.456299,3.309239 -3.334565,3.309239 H 9.9228616 c -1.8782653,0 -3.3345636,-1.472383 -3.3345636,-3.309239 V 11.236451 c 0,-1.836852 1.4562983,-3.3092381 3.3345636,-3.3092381 z"
           style="color:#000000;font-style:normal;font-variant:normal;font-weight:normal;font-stretch:normal;font-size:medium;line-height:normal;font-family:Sans;-inkscape-font-specification:Sans;text-indent:0;text-align:start;text-decoration:none;text-decoration-line:none;letter-spacing:normal;word-spacing:normal;text-transform:none;writing-mode:lr-tb;direction:ltr;baseline-shift:baseline;text-anchor:start;display:inline;overflow:visible;visibility:visible;fill:#202223;fill-opacity:0.93689324;stroke:none;stroke-width:2.37426257;marker:none;enable-background:accumulate" />
        <g
           transform="matrix(1.3122647,0,0,1.3122647,138.27098,-43.633238)"
           style="display:inline"
           id="g1217">
          <path
             style="color:#000000;fill:#ebebeb;stroke-width:1.00003242"
             d="m -62.534544,75.07286 v 0.81244 c 0.448694,0 0.81244,0.363746 0.81244,0.81244 0,0.448694 -0.363746,0.81244 -0.81244,0.81244 v 0.81244 c 0.448694,0 0.81244,0.363746 0.81244,0.81244 0,0.448694 -0.363746,0.81244 -0.81244,0.81244 v 0.81244 c 0.448694,0 0.81244,0.363746 0.81244,0.81244 0,0.448694 -0.363746,0.81244 -0.81244,0.81244 v 0.81244 c 0.448694,0 0.81244,0.363746 0.81244,0.81244 0,0.448694 -0.363746,0.81244 -0.81244,0.81244 v 0.81244 c 0.448694,0 0.81244,0.363746 0.81244,0.81244 0,0.448694 -0.363746,0.81244 -0.81244,0.81244 v 0.81244 c 0.448694,0 0.81244,0.363746 0.81244,0.81244 0,0.448694 -0.363746,0.81244 -0.81244,0.81244 v 0.81244 c 0.448694,0 0.81244,0.363746 0.81244,0.81244 0,0.448694 -0.363746,0.81244 -0.81244,0.81244 v 0.81244 c 0.448694,0 0.81244,0.363746 0.81244,0.81244 0,0.448694 -0.363746,0.81244 -0.81244,0.81244 v 0.81244 h 0.81244 c 0,-0.448694 0.363746,-0.81244 0.81244,-0.81244 0.448694,0 0.81244,0.363746 0.81244,0.81244 h 0.81244 c 0,-0.448694 0.363746,-0.81244 0.81244,-0.81244 0.448694,0 0.81244,0.363746 0.81244,0.81244 h 0.81244 c 0,-0.448694 0.363746,-0.81244 0.81244,-0.81244 0.448694,0 0.81244,0.363746 0.81244,0.81244 h 0.81244 c 0,-0.448694 0.363746,-0.81244 0.81244,-0.81244 0.448694,0 0.81244,0.363746 0.81244,0.81244 h 0.81244 c 0,-0.448694 0.363746,-0.81244 0.81244,-0.81244 0.448694,0 0.81244,0.363746 0.81244,0.81244 h 0.81244 c 0,-0.448694 0.363746,-0.81244 0.81244,-0.81244 0.448694,0 0.81244,0.363746 0.81244,0.81244 h 0.81244 c 0,-0.448694 0.363746,-0.81244 0.81244,-0.81244 0.448694,0 0.81244,0.363746 0.81244,0.81244 h 0.81244 c 0,-0.448694 0.363746,-0.81244 0.81244,-0.81244 0.448694,0 0.81244,0.363746 0.81244,0.81244 h 0.81244 v -0.81244 c -0.448694,0 -0.81244,-0.363746 -0.81244,-0.81244 0,-0.448694 0.363746,-0.81244 0.81244,-0.81244 V 92.1341 c -0.448694,0 -0.81244,-0.363746 -0.81244,-0.81244 0,-0.448694 0.363746,-0.81244 0.81244,-0.81244 v -0.81244 c -0.448694,0 -0.81244,-0.363746 -0.81244,-0.81244 0,-0.448694 0.363746,-0.81244 0.81244,-0.81244 v -0.81244 c -0.448694,0 -0.81244,-0.363746 -0.81244,-0.81244 0,-0.448694 0.363746,-0.81244 0.81244,-0.81244 v -0.81244 c -0.448694,0 -0.81244,-0.363746 -0.81244,-0.81244 0,-0.448694 0.363746,-0.81244 0.81244,-0.81244 v -0.81244 c -0.448694,0 -0.81244,-0.363746 -0.81244,-0.81244 0,-0.448694 0.363746,-0.81244 0.81244,-0.81244 V 79.9475 c -0.448694,0 -0.81244,-0.363746 -0.81244,-0.81244 0,-0.448694 0.363746,-0.81244 0.81244,-0.81244 v -0.81244 c -0.448694,0 -0.81244,-0.363746 -0.81244,-0.81244 0,-0.448694 0.363746,-0.81244 0.81244,-0.81244 v -0.81244 h -0.81244 c 0,0.448694 -0.363746,0.81244 -0.81244,0.81244 -0.448694,0 -0.81244,-0.363746 -0.81244,-0.81244 h -0.81244 c 0,0.448694 -0.363746,0.81244 -0.81244,0.81244 -0.448694,0 -0.81244,-0.363746 -0.81244,-0.81244 h -0.81244 c 0,0.448694 -0.363746,0.81244 -0.81244,0.81244 -0.448694,0 -0.81244,-0.363746 -0.81244,-0.81244 h -0.81244 c 0,0.448694 -0.363746,0.81244 -0.81244,0.81244 -0.448694,0 -0.81244,-0.363746 -0.81244,-0.81244 h -0.81244 c 0,0.448694 -0.363746,0.81244 -0.81244,0.81244 -0.448694,0 -0.81244,-0.363746 -0.81244,-0.81244 h -0.81244 c 0,0.448694 -0.363746,0.81244 -0.81244,0.81244 -0.448694,0 -0.81244,-0.363746 -0.81244,-0.81244 h -0.81244 c 0,0.448694 -0.363746,0.81244 -0.81244,0.81244 -0.448694,0 -0.81244,-0.363746 -0.81244,-0.81244 h -0.81244 c 0,0.448694 -0.363746,0.81244 -0.81244,0.81244 -0.448694,0 -0.81244,-0.363746 -0.81244,-0.81244 z"
             id="ay"
             inkscape:connector-curvature="0" />
          <path
             style="color:#000000;fill:#4d0000;fill-opacity:0.14668998;stroke-width:0.82495159"
             d="m -42.223544,75.8853 c 0,0.448694 -0.363746,0.81244 -0.81244,0.81244 0,0.448694 0.363746,0.81244 0.81244,0.81244 0,-0.448694 0.363746,-0.81244 0.81244,-0.81244 V 75.8853 Z m 0,1.62488 v 0.81244 c -0.448694,0 -0.81244,0.363746 -0.81244,0.81244 0,0.448694 0.363746,0.81244 0.81244,0.81244 0,-0.448694 0.363746,-0.81244 0.81244,-0.81244 v -0.81244 c -0.448694,0 -0.81244,-0.363746 -0.81244,-0.81244 z m 0,2.43732 v 0.81244 c -0.448694,0 -0.81244,0.363746 -0.81244,0.81244 0,0.448694 0.363746,0.81244 0.81244,0.81244 0,-0.448694 0.363746,-0.81244 0.81244,-0.81244 v -0.81244 c -0.448694,0 -0.81244,-0.363746 -0.81244,-0.81244 z m 0,2.43732 v 0.81244 c -0.448694,0 -0.81244,0.363746 -0.81244,0.81244 0,0.448694 0.363746,0.81244 0.81244,0.81244 0,-0.448694 0.363746,-0.81244 0.81244,-0.81244 v -0.81244 c -0.448694,0 -0.81244,-0.363746 -0.81244,-0.81244 z m 0,2.43732 v 0.81244 c -0.448694,0 -0.81244,0.363746 -0.81244,0.81244 0,0.448694 0.363746,0.81244 0.81244,0.81244 0,-0.448694 0.363746,-0.81244 0.81244,-0.81244 v -0.81244 c -0.448694,0 -0.81244,-0.363746 -0.81244,-0.81244 z m 0,2.43732 v 0.81244 c -0.448694,0 -0.81244,0.363746 -0.81244,0.81244 0,0.448694 0.363746,0.81244 0.81244,0.81244 0,-0.448694 0.363746,-0.81244 0.81244,-0.81244 V 88.0719 c -0.448694,0 -0.81244,-0.363746 -0.81244,-0.81244 z m 0,2.43732 v 0.81244 c -0.448694,0 -0.81244,0.363746 -0.81244,0.81244 0,0.448694 0.363746,0.81244 0.81244,0.81244 0,-0.448694 0.363746,-0.81244 0.81244,-0.81244 v -0.81244 c -0.448694,0 -0.81244,-0.363746 -0.81244,-0.81244 z m 0,2.43732 v 0.81244 c -0.448694,0 -0.81244,0.363746 -0.81244,0.81244 0,0.448694 0.363746,0.81244 0.81244,0.81244 0,-0.448694 0.363746,-0.81244 0.81244,-0.81244 v -0.81244 c -0.448694,0 -0.81244,-0.363746 -0.81244,-0.81244 z m 0,2.43732 v 0.81244 h -0.81244 c 0.448694,0 0.81244,0.363746 0.81244,0.81244 h 0.81244 v -0.81244 c -0.448694,0 -0.81244,-0.363746 -0.81244,-0.81244 z m -0.81244,0.81244 c 0,-0.448694 -0.363746,-0.81244 -0.81244,-0.81244 -0.448694,0 -0.81244,0.363746 -0.81244,0.81244 h -0.81244 c 0.448694,0 0.81244,0.363746 0.81244,0.81244 h 0.81244 c 0,-0.448694 0.363746,-0.81244 0.81244,-0.81244 z m -2.43732,0 c 0,-0.448694 -0.363746,-0.81244 -0.81244,-0.81244 -0.448694,0 -0.81244,0.363746 -0.81244,0.81244 h -0.81244 c 0.448694,0 0.81244,0.363746 0.81244,0.81244 h 0.81244 c 0,-0.448694 0.363746,-0.81244 0.81244,-0.81244 z m -2.43732,0 c 0,-0.448694 -0.363746,-0.81244 -0.81244,-0.81244 -0.448694,0 -0.81244,0.363746 -0.81244,0.81244 h -0.81244 c 0.448694,0 0.81244,0.363746 0.81244,0.81244 h 0.81244 c 0,-0.448694 0.363746,-0.81244 0.81244,-0.81244 z m -2.43732,0 c 0,-0.448694 -0.363746,-0.81244 -0.81244,-0.81244 -0.448694,0 -0.81244,0.363746 -0.81244,0.81244 h -0.81244 c 0.448694,0 0.81244,0.363746 0.81244,0.81244 h 0.81244 c 0,-0.448694 0.363746,-0.81244 0.81244,-0.81244 z m -2.43732,0 c 0,-0.448694 -0.363746,-0.81244 -0.81244,-0.81244 -0.448694,0 -0.81244,0.363746 -0.81244,0.81244 h -0.81244 c 0.448694,0 0.81244,0.363746 0.81244,0.81244 h 0.81244 c 0,-0.448694 0.363746,-0.81244 0.81244,-0.81244 z m -2.43732,0 c 0,-0.448694 -0.363746,-0.81244 -0.81244,-0.81244 -0.448694,0 -0.81244,0.363746 -0.81244,0.81244 h -0.81244 c 0.448694,0 0.81244,0.363746 0.81244,0.81244 h 0.81244 c 0,-0.448694 0.363746,-0.81244 0.81244,-0.81244 z m -2.43732,0 c 0,-0.448694 -0.363746,-0.81244 -0.81244,-0.81244 -0.448694,0 -0.81244,0.363746 -0.81244,0.81244 h -0.81244 c 0.448694,0 0.81244,0.363746 0.81244,0.81244 h 0.81244 c 0,-0.448694 0.363746,-0.81244 0.81244,-0.81244 z m -2.43732,0 c 0,-0.448694 -0.363746,-0.81244 -0.81244,-0.81244 0,0.448694 -0.363746,0.81244 -0.81244,0.81244 v 0.81244 h 0.81244 c 0,-0.448694 0.363746,-0.81244 0.81244,-0.81244 z"
             id="be"
             inkscape:connector-curvature="0" />
          <rect
             style="color:#000000;fill:#5e87d8;stroke-width:1.00003242"
             height="15.43636"
             width="15.43636"
             y="77.510178"
             x="-60.097225"
             id="ag" />
          <path
             inkscape:connector-curvature="0"
             id="bh"
             d="m -52.573322,78.048677 c -0.321107,0.04836 -0.635593,0.165027 -0.89571,0.361933 -0.204175,0.147074 -0.355909,0.353768 -0.482818,0.56828 -0.148376,0.249761 -0.2524,0.52591 -0.302636,0.812116 -0.06343,0.379035 -0.03366,0.764543 -0.01609,1.146068 0.0203,0.366365 0.04489,0.733377 0.03186,1.100463 -0.01756,0.282646 -0.08642,0.560986 -0.195891,0.82185 -0.178967,0.455086 -0.425487,0.879031 -0.664121,1.304518 -0.345852,0.602136 -0.704674,1.196803 -1.043705,1.802847 -0.145843,0.260814 -0.287525,0.52576 -0.385682,0.808854 -0.07546,0.214039 -0.121771,0.437836 -0.14738,0.663076 -0.02938,0.295317 -0.01342,0.602808 0.101956,0.879554 0.06765,0.169015 0.170788,0.320062 0.266565,0.473832 0.267909,0.404377 0.545377,0.802482 0.832429,1.193491 0.213543,0.285111 0.427604,0.571292 0.673357,0.829866 0.110714,0.115533 0.231136,0.221984 0.364996,0.310104 0.272464,0.185843 0.577465,0.318842 0.889113,0.42372 0.374977,0.12153 0.770991,0.178729 1.165013,0.167596 0.247515,-0.0088 0.494294,-0.03431 0.738106,-0.07801 0.448166,-0.07426 0.888391,-0.193543 1.316293,-0.345429 0.284364,-0.1032 0.57413,-0.211952 0.813784,-0.401565 0.13217,-0.102979 0.23836,-0.234043 0.352449,-0.355685 0.313639,-0.354565 0.587299,-0.742861 0.834645,-1.145994 0.150253,-0.245541 0.288247,-0.498427 0.42031,-0.754138 0.138107,-0.275103 0.27814,-0.551003 0.376695,-0.843308 0.05017,-0.15667 0.08481,-0.318891 0.08951,-0.483764 0.0094,-0.23363 -0.02187,-0.467932 -0.07688,-0.694741 -0.07288,-0.286579 -0.189722,-0.559865 -0.326659,-0.821277 -0.23404,-0.44035 -0.507961,-0.857622 -0.76641,-1.283683 -0.196506,-0.304453 -0.397258,-0.606367 -0.613711,-0.897128 -0.15501,-0.214243 -0.3111,-0.428177 -0.446723,-0.655508 -0.09844,-0.164856 -0.192988,-0.33226 -0.281824,-0.50246 -0.09452,-0.18552 -0.166566,-0.383094 -0.203675,-0.58827 -0.07051,-0.387698 -0.05765,-0.783712 -0.05191,-1.175891 0.004,-0.323248 0.01579,-0.64936 -0.0431,-0.968923 -0.0566,-0.323597 -0.178525,-0.639626 -0.379982,-0.901162 -0.216983,-0.286903 -0.523794,-0.498104 -0.85792,-0.626283 -0.345678,-0.127753 -0.718864,-0.15184 -1.084257,-0.144945 z"
             style="fill:#3a4652;stroke-width:0.03064199" />
          <path
             inkscape:connector-curvature="0"
             id="z"
             d="m -51.349099,82.176047 c -0.477665,0.16495 -0.953165,0.340276 -1.444895,0.459667 -0.109653,0.03376 -0.228141,0.03603 -0.338658,0.0049 -0.220879,-0.064 -0.424741,-0.173068 -0.629369,-0.275825 -0.0404,-0.01347 -0.08567,0.02082 -0.08211,0.06343 -0.01419,0.08732 -0.01476,0.176122 -0.02783,0.263652 -0.03049,0.289691 -0.07714,0.580254 -0.178972,0.854336 -0.09631,0.278838 -0.218042,0.54834 -0.358175,0.807785 -0.116578,0.221277 -0.254466,0.430142 -0.391457,0.639078 -0.196551,0.306768 -0.395317,0.613984 -0.551725,0.94373 -0.181918,0.388246 -0.296488,0.812365 -0.300371,1.242707 -0.0051,0.331314 0.06218,0.660113 0.169919,0.972334 0.121928,0.363327 0.269726,0.717842 0.435943,1.063072 0.102217,0.206455 0.204969,0.414011 0.338359,0.602583 0.183901,0.264723 0.432707,0.481275 0.7102,0.643459 0.2994,0.175645 0.637883,0.279211 0.982117,0.317697 0.296462,0.03347 0.598276,0.02695 0.8922,-0.02518 0.276945,-0.04975 0.544829,-0.152313 0.780849,-0.306146 0.320659,-0.205086 0.615702,-0.451551 0.868974,-0.73599 0.156025,-0.173757 0.28409,-0.370547 0.3932,-0.576569 0.103875,-0.198599 0.203471,-0.399747 0.292305,-0.605546 0.130693,-0.30627 0.225245,-0.63034 0.252101,-0.963222 0.01915,-0.191298 0.0176,-0.384662 0.0012,-0.576096 -0.0339,-0.368506 -0.117736,-0.733078 -0.255188,-1.076914 -0.131778,-0.332658 -0.306718,-0.64555 -0.471392,-0.962525 -0.155592,-0.297035 -0.31212,-0.593622 -0.464223,-0.892449 -0.168796,-0.335571 -0.327554,-0.678112 -0.439229,-1.037406 -0.0735,-0.241788 -0.11967,-0.492478 -0.127395,-0.745301 -0.0034,-0.03504 0.0026,-0.08743 -0.04044,-0.09926 -0.0053,-0.0024 -0.01061,-6.95e-4 -0.01593,0 z"
             style="fill:#ebebeb;stroke-width:0.03064199" />
          <path
             inkscape:connector-curvature="0"
             id="s"
             d="m -55.204415,85.354858 c -0.228579,0.220055 -0.46253,0.436964 -0.658147,0.687895 -0.165973,0.217857 -0.309706,0.452597 -0.427106,0.700068 -0.0968,0.202079 -0.158211,0.420783 -0.181479,0.643609 -0.02381,0.202261 -0.0063,0.409157 0.05309,0.604077 0.05152,0.181375 0.120878,0.357079 0.191199,0.531835 0.08125,0.192393 0.172438,0.380902 0.280331,0.559865 0.144808,0.266415 0.315506,0.520782 0.42245,0.806141 0.05403,0.134291 0.09521,0.273436 0.134664,0.412543 0.03068,0.117298 0.04779,0.237459 0.064,0.357378 0.01129,0.04122 0.01456,0.09463 0.05727,0.116773 0.05119,0.01413 0.09615,-0.02569 0.13725,-0.05024 0.0768,-0.06178 0.157542,-0.118169 0.237372,-0.1759 0.1372,-0.09396 0.277244,-0.18374 0.420334,-0.268432 0.08417,-0.05583 0.169648,-0.110131 0.250359,-0.170852 0.09193,-0.07051 0.162697,-0.163728 0.234869,-0.253197 0.05586,-0.07472 0.106659,-0.167561 0.0862,-0.263951 -0.01884,-0.0755 -0.07075,-0.137158 -0.121032,-0.19431 -0.05535,-0.0566 -0.110434,-0.113481 -0.165647,-0.17017 -0.34386,-0.337064 -0.692052,-0.669722 -1.034469,-1.008255 -0.119471,-0.119496 -0.233507,-0.245684 -0.328451,-0.385757 -0.073,-0.114224 -0.114315,-0.247394 -0.125575,-0.382148 -0.0234,-0.209042 -0.0073,-0.420708 0.02639,-0.627726 0.03031,-0.185356 0.07649,-0.368033 0.134241,-0.546672 0.08621,-0.260291 0.191444,-0.513587 0.291707,-0.768626 0.01736,-0.0442 0.03385,-0.08874 0.05079,-0.133105 3.53e-4,-0.015 -0.01642,-0.02981 -0.03064,-0.02083 z"
             style="fill:#414f5c;fill-rule:evenodd;stroke-width:0.03064199" />
          <path
             inkscape:connector-curvature="0"
             id="t"
             d="m -51.786573,80.097699 c -0.0992,0.01892 -0.1955,0.0529 -0.286081,0.0972 -0.115897,0.06512 -0.19969,0.173459 -0.267785,0.28521 -0.04266,0.07304 -0.08003,0.150509 -0.101841,0.23246 -0.0379,0.185906 -0.05904,0.378662 -0.02682,0.567085 0.02708,0.162035 0.0939,0.31568 0.181681,0.453817 0.05294,0.08158 0.125389,0.161004 0.225129,0.180342 0.126524,0.02726 0.252973,-0.02557 0.35912,-0.09072 0.147176,-0.09547 0.262184,-0.231479 0.364249,-0.372314 0.06322,-0.09007 0.120004,-0.186531 0.147868,-0.293874 0.04665,-0.163018 0.06974,-0.336641 0.04023,-0.504949 -0.02507,-0.142463 -0.08482,-0.280903 -0.183708,-0.387748 -0.0848,-0.09198 -0.202903,-0.154811 -0.328501,-0.164037 -0.04097,-0.0051 -0.08235,-0.004 -0.123516,-0.0025 z"
             style="fill:#ebebeb;stroke-width:0.03064199" />
          <path
             inkscape:connector-curvature="0"
             id="aq"
             d="m -53.728925,80.225157 c -0.144367,0.01866 -0.271469,0.130837 -0.308511,0.271543 -0.02811,0.102954 -0.04436,0.210187 -0.03649,0.317124 0.0095,0.198495 0.07431,0.390313 0.162092,0.56716 0.05546,0.108246 0.127776,0.218048 0.241317,0.271643 0.05928,0.03308 0.136255,0.02859 0.191273,-0.01143 0.101224,-0.07213 0.173586,-0.176939 0.234387,-0.283717 0.06017,-0.118754 0.08498,-0.254889 0.07046,-0.387251 -0.0096,-0.109757 -0.02091,-0.220655 -0.05943,-0.324741 -0.02731,-0.08604 -0.06423,-0.171408 -0.125037,-0.239358 -0.07543,-0.089 -0.177958,-0.162675 -0.296214,-0.177318 -0.02423,-0.0041 -0.0493,-0.0057 -0.07382,-0.0037 z"
             style="fill:#ebebeb;stroke-width:0.03064199" />
          <path
             inkscape:connector-curvature="0"
             id="ad"
             d="m -53.662757,80.618481 c -0.04138,0.0077 -0.07976,0.02771 -0.111515,0.05514 -0.04158,0.05008 -0.07378,0.109414 -0.0835,0.17434 -0.01415,0.07613 -0.0058,0.154574 0.01042,0.229677 0.01834,0.08399 0.05871,0.161211 0.102845,0.234245 0.03649,0.05422 0.07666,0.108035 0.132045,0.144313 0.03216,0.0203 0.06841,0.03898 0.107791,0.03113 0.03749,-0.0033 0.07081,-0.02415 0.09804,-0.04902 0.02813,-0.02541 0.04908,-0.05785 0.06274,-0.09304 0.01494,-0.03713 0.01529,-0.07739 0.02059,-0.116517 0.0052,-0.06249 0.008,-0.125498 -2.24e-4,-0.187859 -0.0049,-0.04293 -0.008,-0.08703 -0.02551,-0.127084 -0.01042,-0.04735 -0.03703,-0.08854 -0.0588,-0.131161 -0.02821,-0.04867 -0.05947,-0.09965 -0.110211,-0.127612 -0.04183,-0.02888 -0.09404,-0.04298 -0.144701,-0.03656 z"
             style="fill:#3a4652;stroke-width:0.03064199" />
          <path
             inkscape:connector-curvature="0"
             id="bl"
             d="m -51.878133,80.582883 c -0.05954,0.0096 -0.114562,0.03723 -0.165435,0.06863 -0.04869,0.03541 -0.08932,0.0803 -0.129424,0.124853 -0.0225,0.03024 -0.04578,0.06087 -0.06144,0.09535 -0.04308,0.09564 -0.06928,0.199166 -0.07557,0.303905 -0.0037,0.09742 0.01638,0.194435 0.0502,0.285484 0.01996,0.05187 0.03934,0.109173 0.08667,0.142747 0.03396,0.0265 0.07999,0.02868 0.119606,0.01476 0.05027,-0.01145 0.09366,-0.04024 0.141081,-0.05904 0.05025,-0.02722 0.10697,-0.05167 0.137821,-0.102585 0.03937,-0.05273 0.07869,-0.10619 0.104818,-0.167014 0.02559,-0.05355 0.04788,-0.109486 0.05684,-0.168442 0.01982,-0.09283 0.03499,-0.188921 0.02159,-0.283742 -0.0097,-0.05408 -0.02817,-0.107619 -0.063,-0.150887 -0.04017,-0.04855 -0.09758,-0.08247 -0.158806,-0.09665 -0.02155,-0.0028 -0.04305,-0.01179 -0.06495,-0.0074 z"
             style="fill:#3a4652;stroke-width:0.03064199" />
          <ellipse
             id="bm"
             transform="matrix(0.03921547,0,0,0.03921547,-81.472532,96.260109)"
             cx="754.84003"
             cy="-383.44"
             rx="1.0102"
             ry="1.1364"
             style="fill:#ffffff;stroke-width:1.23090005;filter:url(#k-3)" />
          <ellipse
             id="bn"
             transform="matrix(0.03921547,0,0,0.03921547,-83.068236,96.225507)"
             cx="754.84003"
             cy="-383.44"
             rx="1.0102"
             ry="1.1364"
             style="fill:#ffffff;stroke-width:1.23090005;filter:url(#c-7)" />
          <path
             inkscape:connector-curvature="0"
             id="bi"
             d="m -52.94342,81.195673 c -0.22147,0.03289 -0.430816,0.128555 -0.610276,0.261013 -0.147776,0.10442 -0.292504,0.213346 -0.430143,0.330866 -0.04935,0.04756 -0.08941,0.10556 -0.107288,0.172358 -0.04662,0.152702 -0.0021,0.321805 0.09227,0.447171 0.06829,0.100422 0.153362,0.188054 0.241793,0.270647 0.122513,0.102478 0.245048,0.206082 0.382271,0.288695 0.101003,0.06702 0.202986,0.140477 0.324344,0.164393 0.12271,0.02549 0.249338,0.03123 0.374106,0.02174 0.129307,-0.01116 0.256234,-0.04813 0.370423,-0.110054 0.195863,-0.09699 0.378189,-0.218325 0.565765,-0.329969 0.15616,-0.09994 0.310751,-0.204111 0.448614,-0.328551 0.101239,-0.106813 0.142832,-0.256756 0.145381,-0.401042 0.0019,-0.08055 -0.0089,-0.171589 -0.07062,-0.229726 -0.07268,-0.06609 -0.168742,-0.09648 -0.257354,-0.134801 -0.18783,-0.07374 -0.380928,-0.132934 -0.570669,-0.201485 -0.232047,-0.08133 -0.463078,-0.17315 -0.707238,-0.211188 -0.06332,-0.0083 -0.127527,-0.01678 -0.191415,-0.01011 z"
             style="fill:#e9b230;stroke-width:0.03064199" />
          <path
             inkscape:connector-curvature="0"
             id="aj"
             d="m -52.682432,81.347576 c -0.04872,0 -0.09035,0.0078 -0.08244,0.02662 0.0277,0.05738 0.09849,0.0653 0.14598,0.09102 0.04548,0.02572 0.07153,0.03136 0.0893,0.02147 0.03957,-0.02176 0.01035,-0.09278 -0.0292,-0.1185 -0.01879,-0.01285 -0.07493,-0.02061 -0.123653,-0.02061 z"
             style="fill:#895237;stroke-width:0.03064199" />
          <path
             inkscape:connector-curvature="0"
             id="ai"
             d="m -53.108169,81.352878 c -0.01055,8.74e-4 -0.0227,0.003 -0.0358,0.0054 -0.104918,0.01865 -0.104368,0.06082 -0.113676,0.08414 -0.0093,0.02329 0.0551,0.067 0.08772,0.0367 0.035,-0.03028 0.07729,-0.05779 0.0913,-0.06713 0.05501,-0.03672 0.0443,-0.0652 -0.02954,-0.05908 z"
             style="fill:#895237;stroke-width:0.03064199" />
          <path
             inkscape:connector-curvature="0"
             id="bg"
             d="m -53.977068,82.278312 c 0.0025,-0.0026 0.131831,0.137778 0.396312,0.262083 0.15435,0.07253 0.352175,0.133833 0.581772,0.145812 0.119685,0.0063 0.24424,-0.0012 0.372339,-0.02316 0.133925,-0.02299 0.260939,-0.06002 0.377642,-0.10454 v 0 c 0.282845,-0.107881 0.514284,-0.260117 0.664669,-0.368804 0.154086,-0.111366 0.239624,-0.185901 0.241486,-0.183738 8.04e-4,9.33e-4 -0.07999,0.08057 -0.232447,0.195956 -0.148769,0.112595 -0.379509,0.268307 -0.665092,0.378961 0,0 0,0 0,0 -0.117789,0.04563 -0.246266,0.08342 -0.382048,0.10669 -0.129847,0.02226 -0.256308,0.02951 -0.377841,0.02265 -0.233187,-0.01323 -0.433354,-0.07741 -0.588443,-0.153234 -0.269951,-0.131973 -0.386654,-0.280456 -0.388371,-0.278688 z"
             style="opacity:0.62300002;fill:#895237;fill-rule:evenodd;stroke-width:0.03064199" />
          <path
             inkscape:connector-curvature="0"
             id="ak"
             d="m -49.95943,88.129241 c -0.08654,0.0061 -0.16562,0.05599 -0.220581,0.121321 -0.0551,0.06411 -0.06941,0.149705 -0.08433,0.230132 -0.01582,0.106394 -0.03224,0.212749 -0.03838,0.320261 -0.02636,0.35571 -0.03474,0.712366 -0.05121,1.068599 -0.0089,0.197566 -0.01215,0.396162 -0.04666,0.59143 -0.0247,0.160211 -0.06576,0.317175 -0.102065,0.475002 -0.05004,0.208124 -0.09293,0.419489 -0.09716,0.634224 -0.0035,0.08503 -0.0034,0.170912 0.01696,0.254068 0.01797,0.08732 0.04914,0.172042 0.08774,0.252275 0.07077,0.121448 0.158141,0.237417 0.275875,0.316851 0.06798,0.0482 0.144708,0.0835 0.225584,0.103604 0.09394,0.02673 0.190977,0.04033 0.2875,0.05343 0.151149,0.01302 0.304578,0.0047 0.452598,-0.02918 0.172127,-0.04154 0.337039,-0.120432 0.468753,-0.239839 0.265743,-0.218424 0.531287,-0.437362 0.805071,-0.645675 0.232353,-0.176416 0.474629,-0.33918 0.716772,-0.501713 0.21608,-0.143508 0.431313,-0.288371 0.644082,-0.43674 0.09309,-0.06832 0.193048,-0.131614 0.266664,-0.222074 0.05827,-0.07118 0.08483,-0.17119 0.05341,-0.259694 -0.02298,-0.0791 -0.08074,-0.141318 -0.141477,-0.19423 -0.149304,-0.14131 -0.303383,-0.277717 -0.44844,-0.423446 -0.121221,-0.126564 -0.240175,-0.262408 -0.304702,-0.427753 -0.05185,-0.120241 -0.07332,-0.250384 -0.0866,-0.379832 -0.01103,-0.08961 -0.02321,-0.179785 -0.05514,-0.264748 -0.02639,-0.07327 -0.101807,-0.112115 -0.171433,-0.135435 -0.10496,-0.03983 -0.217802,-0.05103 -0.3285,-0.06395 -0.332858,-0.02413 -0.667358,0.0097 -0.999941,-0.02192 -0.302736,-0.02617 -0.59656,-0.10914 -0.896457,-0.154123 -0.07553,-0.0099 -0.151858,-0.02068 -0.227934,-0.02083 z"
             style="fill:#e9b230;stroke-width:0.03064199" />
          <path
             inkscape:connector-curvature="0"
             id="ae"
             d="m -48.986399,87.65999 c -0.108902,0.0095 -0.212172,0.05302 -0.308362,0.102998 -0.155951,0.08187 -0.29233,0.211826 -0.360739,0.376148 -0.04073,0.09282 -0.03783,0.197544 -0.01253,0.293998 0.04116,0.13315 0.09498,0.263329 0.163568,0.384761 0.08175,0.123614 0.225039,0.184719 0.362681,0.223586 0.172589,0.05058 0.351801,0.11616 0.534174,0.08216 0.228126,-0.04315 0.424816,-0.182257 0.590685,-0.338857 0.123339,-0.119922 0.229532,-0.260316 0.297756,-0.418891 0.02975,-0.07111 0.04641,-0.158721 2.5e-5,-0.226884 -0.05667,-0.09955 -0.160959,-0.156904 -0.255512,-0.214845 -0.177016,-0.09584 -0.365567,-0.17074 -0.56208,-0.21535 -0.14102,-0.02999 -0.284837,-0.05426 -0.429471,-0.05002 -0.0067,3.96e-4 -0.01347,7.91e-4 -0.0202,0.0012 z"
             style="fill:#414f5c;fill-rule:evenodd;stroke-width:0.03064199" />
          <path
             inkscape:connector-curvature="0"
             id="av"
             d="m -56.259422,87.847441 c -0.06852,0.0032 -0.127751,0.01893 -0.181367,0.04289 -0.01072,0.0048 -0.02034,0.0092 -0.03064,0.0147 -3.14e-4,1.5e-4 -8.99e-4,-1.49e-4 -0.0012,0 -0.09224,0.04921 -0.169269,0.124774 -0.249985,0.207101 -0.009,0.0092 -0.0177,0.01973 -0.02696,0.03064 -1.99e-4,2.24e-4 1.99e-4,9.73e-4 0,0.0012 -0.0091,0.01064 -0.01882,0.02105 -0.02819,0.03309 -1.99e-4,2.74e-4 1.99e-4,9.63e-4 0,0.0012 -0.133882,0.172353 -0.298777,0.476844 -0.520807,0.637236 -0.254068,0.183523 -0.897477,0.166573 -1.06123,0.381127 -0.160937,0.21462 0.0053,0.525735 0.0025,1.101682 0,0.245679 -0.04162,0.431263 -0.06985,0.580876 -0.0021,0.0093 -0.0029,0.01796 -0.0049,0.02696 -2e-4,8.99e-4 -10e-4,0.0016 -0.0012,0.0025 -7.17e-4,0.0032 -5.23e-4,0.0066 -0.0012,0.0098 -7.5e-5,4.03e-4 7.5e-5,8.24e-4 0,0.0012 -1.25e-4,5.18e-4 -0.0011,7.1e-4 -0.0012,0.0012 -7.5e-5,3.91e-4 7.4e-5,8.44e-4 0,0.0012 -1.25e-4,4.78e-4 -0.0011,7.49e-4 -0.0012,0.0012 -7.4e-5,3.54e-4 7.5e-5,8.54e-4 0,0.0012 -7.4e-5,3.93e-4 7.5e-5,8.46e-4 0,0.0012 -7.4e-5,3.9e-4 7.5e-5,8.53e-4 0,0.0012 -2.24e-4,8.46e-4 -0.001,0.0016 -0.0012,0.0024 -4.36e-4,0.002 -7.97e-4,0.0042 -0.0012,0.0061 -4.03e-4,0.0016 -8.27e-4,0.0033 -0.0012,0.0049 -1.24e-4,4.58e-4 -0.0011,7.7e-4 -0.0012,0.0012 -7.4e-5,3.13e-4 7.5e-5,8.93e-4 0,0.0012 -7.4e-5,3.14e-4 7.5e-5,8.94e-4 0,0.0012 -3.53e-4,0.0016 -8.91e-4,0.0033 -0.0012,0.0049 -7.5e-5,3.53e-4 7.5e-5,8.66e-4 0,0.0012 -1.99e-4,8.44e-4 -0.001,0.0016 -0.0012,0.0025 -7.5e-5,3.14e-4 7.5e-5,9.01e-4 0,0.0012 -7.5e-5,3.54e-4 7.5e-5,8.74e-4 0,0.0012 -1.24e-4,4.48e-4 -0.0011,7.76e-4 -0.0012,0.0012 -5e-5,2.24e-4 5e-5,9.81e-4 0,0.0012 -0.0019,0.0074 -0.0032,0.01376 -0.0049,0.02083 -3.14e-4,0.0013 -9.19e-4,0.0024 -0.0012,0.0037 -0.0034,0.01404 -0.0071,0.02876 -0.0098,0.04167 -7.5e-5,3.53e-4 7.5e-5,8.66e-4 0,0.0012 -0.01639,0.07399 -0.02161,0.127905 -0.0098,0.176465 7.5e-5,3.94e-4 -7.4e-5,8.47e-4 0,0.0012 0.0018,0.007 0.0049,0.01403 0.0074,0.02083 0.0011,0.003 0.0012,0.0068 0.0025,0.0098 0.0012,0.0029 0.0023,0.0057 0.0037,0.0086 1.99e-4,4.71e-4 0.001,7.55e-4 0.0012,0.0012 1.49e-4,3.13e-4 -1.5e-4,8.93e-4 0,0.0012 1.49e-4,3.13e-4 -1.5e-4,8.98e-4 0,0.0012 7.4e-5,1.49e-4 0.0011,-1.49e-4 0.0012,0 1.49e-4,3.14e-4 -1.49e-4,9.06e-4 0,0.0012 2.24e-4,4.83e-4 9.76e-4,7.41e-4 0.0012,0.0012 4.96e-4,0.0011 7.15e-4,0.0025 0.0012,0.0037 1.99e-4,5.05e-4 10e-4,7.21e-4 0.0012,0.0012 1.49e-4,3.14e-4 -1.49e-4,9.08e-4 0,0.0012 1.99e-4,5.13e-4 0.001,7.15e-4 0.0012,0.0012 3.54e-4,8.39e-4 8.67e-4,0.0016 0.0012,0.0024 1.49e-4,3.14e-4 -1.5e-4,8.94e-4 0,0.0012 3.53e-4,8.52e-4 8.58e-4,0.0016 0.0012,0.0025 2.74e-4,4.91e-4 9.36e-4,7.32e-4 0.0012,0.0012 1.25e-4,3.53e-4 -1.24e-4,8.71e-4 0,0.0012 1.5e-4,3.14e-4 -1.49e-4,8.94e-4 0,0.0012 5e-5,1.24e-4 0.0012,-1.25e-4 0.0012,0 1.25e-4,2.24e-4 -1.24e-4,9.83e-4 0,0.0012 1.5e-4,3.53e-4 -1.49e-4,8.86e-4 0,0.0012 2.74e-4,8.44e-4 9.34e-4,0.0016 0.0012,0.0024 1.49e-4,3.54e-4 -1.5e-4,8.64e-4 0,0.0012 5e-5,1.25e-4 0.0012,-1.24e-4 0.0012,0 1.49e-4,3.14e-4 -1.49e-4,9.14e-4 0,0.0012 1.49e-4,3.54e-4 -1.49e-4,8.79e-4 0,0.0012 2.24e-4,4.9e-4 9.93e-4,7.34e-4 0.0012,0.0012 1.5e-4,3.14e-4 -1.49e-4,9.12e-4 0,0.0012 1.5e-4,3.53e-4 -1.49e-4,8.66e-4 0,0.0012 2.24e-4,5.12e-4 9.96e-4,7.14e-4 0.0012,0.0012 1.25e-4,3.53e-4 -1.24e-4,8.71e-4 0,0.0012 1.99e-4,5.03e-4 10e-4,7.24e-4 0.0012,0.0012 1.5e-4,3.14e-4 -1.49e-4,9.06e-4 0,0.0012 1.5e-4,3.53e-4 -1.49e-4,8.54e-4 0,0.0012 2e-4,4.78e-4 0.001,7.44e-4 0.0012,0.0012 1.49e-4,3.53e-4 -1.5e-4,8.71e-4 0,0.0012 7.24e-4,0.0017 0.0017,0.0032 0.0024,0.0049 3.54e-4,8.24e-4 8.52e-4,0.0016 0.0012,0.0025 0.0019,0.0045 0.004,0.009 0.0061,0.01348 5.6e-4,0.0012 6.49e-4,0.0025 0.0012,0.0037 0.0043,0.0088 0.0083,0.01693 0.01348,0.02573 0.143997,0.240033 0.375476,0.30052 1.699711,0.577192 0.708681,0.14682 1.378229,0.52703 1.827142,0.563699 0.448938,0.03392 0.54473,-0.114978 0.818614,-0.357826 0.271045,-0.242816 0.358946,-0.167327 0.350482,-0.700964 -0.0074,-0.46487 -0.270473,-0.642937 -0.595564,-1.091875 -0.02322,-0.0323 -0.04715,-0.06511 -0.07108,-0.100487 -0.01562,-0.02338 -0.03172,-0.04855 -0.04779,-0.07353 -0.0013,-0.002 -0.0024,-0.0041 -0.0037,-0.0061 -0.0067,-0.01073 -0.01136,-0.01829 -0.01838,-0.02941 -0.0967,-0.153172 -0.173504,-0.274331 -0.237738,-0.377442 -0.06423,-0.103098 -0.116212,-0.188101 -0.16421,-0.265917 -0.048,-0.07782 -0.0917,-0.149374 -0.139703,-0.22671 -0.048,-0.07733 -0.09998,-0.160603 -0.16421,-0.262258 -0.03212,-0.05012 -0.06879,-0.104679 -0.107841,-0.162986 -0.03905,-0.0583 -0.08084,-0.12019 -0.124995,-0.182592 -0.04434,-0.06266 -0.09083,-0.126061 -0.138475,-0.188719 -0.02372,-0.0312 -0.04688,-0.06147 -0.07108,-0.09191 -0.04839,-0.06088 -0.09814,-0.11927 -0.147053,-0.174014 -0.02467,-0.02761 -0.04907,-0.05439 -0.07353,-0.07965 -0.07247,-0.07493 -0.143048,-0.13854 -0.209553,-0.183817 -3.13e-4,-1.99e-4 -9.28e-4,1.99e-4 -0.0012,0 -0.01112,-0.0076 -0.02101,-0.01434 -0.03186,-0.02083 -3.13e-4,-1.99e-4 -9.18e-4,1.99e-4 -0.0012,0 -0.01085,-0.0065 -0.0213,-0.013 -0.03186,-0.01838 -0.02112,-0.01076 -0.04151,-0.01861 -0.06127,-0.02451 -0.0095,-0.0028 -0.01904,-0.0057 -0.02819,-0.0074 -4.08e-4,-7.4e-5 -8.17e-4,7.5e-5 -0.0012,0 -0.0095,-0.0016 -0.01787,-0.0022 -0.02696,-0.0025 -0.01447,-3.53e-4 -0.02918,-6.34e-4 -0.04289,0 z"
             style="fill:#e9b230;stroke-width:0.03064199" />
          <ellipse
             ry="7.8345666"
             rx="7.8950071"
             style="color:#000000;fill:none;stroke:#781e1e;stroke-width:1.00000024;stroke-opacity:0.36673004"
             cy="82.108574"
             cx="-57.798157"
             id="ah" />
          <path
             style="fill:none;stroke:#781e1e;stroke-width:1.00002909;stroke-opacity:0.36673004"
             d="m -56.591135,81.188141 c 0,0 1.179419,-1.129539 2.358837,-1.129539 1.179419,0 2.358837,1.129539 2.358837,1.129539 0,0 1.179419,1.129539 2.358838,1.129539 1.179418,0 2.358837,-1.129539 2.358837,-1.129539 0,0 1.179418,-1.129539 2.358837,-1.129539 1.179419,0 2.358837,1.129539 2.358837,1.129539 0,0 1.179419,1.129539 2.358837,1.129539 1.179419,0 2.358837,-1.129539 2.358837,-1.129539"
             id="af"
             inkscape:connector-curvature="0" />
          <path
             style="fill:none;stroke:#781e1e;stroke-width:1.00002909;stroke-opacity:0.36673004"
             d="m -56.591135,82.882962 c 0,0 1.179419,-1.129539 2.358837,-1.129539 1.179419,0 2.358837,1.129539 2.358837,1.129539 0,0 1.179419,1.129539 2.358838,1.129539 1.179418,0 2.358837,-1.129539 2.358837,-1.129539 0,0 1.179418,-1.129539 2.358837,-1.129539 1.179419,0 2.358837,1.129539 2.358837,1.129539 0,0 1.179419,1.129539 2.358837,1.129539 1.179419,0 2.358837,-1.129539 2.358837,-1.129539"
             id="bc"
             inkscape:connector-curvature="0" />
          <path
             style="fill:none;stroke:#781e1e;stroke-width:1.00002909;stroke-opacity:0.36673004"
             d="m -56.591135,84.5771 c 0,0 1.179419,-1.129539 2.358837,-1.129539 1.179419,0 2.358837,1.129539 2.358837,1.129539 0,0 1.179419,1.129539 2.358838,1.129539 1.179418,0 2.358837,-1.129539 2.358837,-1.129539 0,0 1.179418,-1.129539 2.358837,-1.129539 1.179419,0 2.358837,1.129539 2.358837,1.129539 0,0 1.179419,1.129539 2.358837,1.129539 1.179419,0 2.358837,-1.129539 2.358837,-1.129539"
             id="an"
             inkscape:connector-curvature="0" />
          <ellipse
             ry="5.3838053"
             rx="5.4253392"
             style="color:#000000;fill:none;stroke:#781e1e;stroke-width:1.00002909;stroke-opacity:0.36673004"
             cy="82.108307"
             cx="-57.797882"
             id="am" />
        </g>
      </g>
    </g>
  </g>
</svg>
