<?xml version="1.0" encoding="UTF-8" standalone="no"?>
<!-- Created with Inkscape (http://www.inkscape.org/) -->

<svg
   xmlns:dc="http://purl.org/dc/elements/1.1/"
   xmlns:cc="http://creativecommons.org/ns#"
   xmlns:rdf="http://www.w3.org/1999/02/22-rdf-syntax-ns#"
   xmlns:svg="http://www.w3.org/2000/svg"
   xmlns="http://www.w3.org/2000/svg"
   xmlns:xlink="http://www.w3.org/1999/xlink"
   xmlns:sodipodi="http://sodipodi.sourceforge.net/DTD/sodipodi-0.dtd"
   xmlns:inkscape="http://www.inkscape.org/namespaces/inkscape"
   width="96"
   height="96"
   viewBox="0 0 96.000001 96.000004"
   version="1.1"
   id="svg1072"
   inkscape:version="0.92.1 r15371"
   sodipodi:docname="transmission.svg">
  <defs
     id="defs1066">
    <linearGradient
       id="linearGradient1020">
      <stop
         offset="0"
         style="stop-color:#8d8d8d;stop-opacity:1"
         id="stop1012" />
      <stop
         offset="0.56014413"
         style="stop-color:#ffffff;stop-opacity:1"
         id="stop1014" />
      <stop
         offset="1"
         style="stop-color:#8e8e8e;stop-opacity:1"
         id="stop1016" />
    </linearGradient>
    <linearGradient
       y2="47.000011"
       x2="90"
       y1="47.000011"
       x1="6"
       gradientTransform="matrix(1.1071428,0,0,1.1071426,-4.9939026,-3.620687)"
       gradientUnits="userSpaceOnUse"
       id="linearGradient4071"
       xlink:href="#linearGradient6139-0"
       inkscape:collect="always" />
    <linearGradient
       id="linearGradient6139-0">
      <stop
         style="stop-color:#b2babc;stop-opacity:1"
         offset="0"
         id="stop6141-2" />
      <stop
         id="stop6151-0"
         offset="0.25"
         style="stop-color:#ffffff;stop-opacity:1;" />
      <stop
         id="stop6147-1"
         offset="0.5"
         style="stop-color:#96a1a4;stop-opacity:1" />
      <stop
         style="stop-color:#fbf9f9;stop-opacity:1;"
         offset="0.75"
         id="stop6149-4" />
      <stop
         style="stop-color:#b2b9bc;stop-opacity:1"
         offset="1"
         id="stop6143-4" />
    </linearGradient>
    <linearGradient
       gradientUnits="userSpaceOnUse"
       y2="88.171875"
       x2="94.5"
       y1="88.171875"
       x1="1.5"
       id="linearGradient4129"
       xlink:href="#linearGradient3832-0-6-1-1"
       inkscape:collect="always"
       gradientTransform="translate(0.1489535,0.415026)" />
    <linearGradient
       id="linearGradient3832-0-6-1-1">
      <stop
         id="stop3834-6-3-7-1"
         offset="0"
         style="stop-color:#000000;stop-opacity:1;" />
      <stop
         style="stop-color:#000000;stop-opacity:0.58823532;"
         offset="0.1"
         id="stop3872-2-4" />
      <stop
         id="stop3844-6-2-7-6"
         offset="0.89999998"
         style="stop-color:#000000;stop-opacity:0.58823532;" />
      <stop
         id="stop3836-5-0-2-9"
         offset="1"
         style="stop-color:#000000;stop-opacity:1;" />
    </linearGradient>
    <radialGradient
       r="43.199203"
       fy="44.892841"
       fx="13.948145"
       cy="44.892841"
       cx="13.948145"
       gradientTransform="matrix(0.97513378,0,0,0.04919072,34.047649,80.581722)"
       gradientUnits="userSpaceOnUse"
       id="radialGradient7462"
       xlink:href="#linearGradient3737"
       inkscape:collect="always" />
    <linearGradient
       id="linearGradient3737">
      <stop
         id="stop3739"
         style="stop-color:#ffffff;stop-opacity:1"
         offset="0" />
      <stop
         id="stop3741"
         style="stop-color:#ffffff;stop-opacity:0"
         offset="1" />
    </linearGradient>
    <radialGradient
       r="43.199203"
       fy="44.892841"
       fx="13.948145"
       cy="44.892841"
       cx="13.948145"
       gradientTransform="matrix(0.88832663,0,0,0.04919072,31.959518,-90.31726)"
       gradientUnits="userSpaceOnUse"
       id="radialGradient7464"
       xlink:href="#linearGradient3737"
       inkscape:collect="always" />
    <linearGradient
       y2="14.514202"
       x2="50.527882"
       y1="-28.64156"
       x1="2.7713892"
       gradientUnits="userSpaceOnUse"
       id="linearGradient4767"
       xlink:href="#linearGradient3737"
       inkscape:collect="always" />
    <clipPath
       clipPathUnits="userSpaceOnUse"
       id="clipPath4156-4-1">
      <path
         style="opacity:0.6;fill:#ffffff;fill-opacity:1;stroke:none"
         d="m 27.046336,-55.695463 -14.21366,13.321486 h 0.06127 l 15.653407,21.770763 10.231384,-10.546177 C 38.561832,-32.30156 27.468089,-54.819245 27.046336,-55.695463 Z M 9.6468554,-39.382809 -5.2407289,-25.32124 15.987863,-7.8059573 26.372412,-18.382966 Z m 31.4906096,12.951445 -9.741259,9.713584 8.944804,12.4580526 7.780753,-7.5550056 z m -49.8397109,4.378822 -13.7541661,12.9822847 26.2830181,13.84571 0.06127,-0.0617 -0.122531,-0.0617 L 13.598503,-5.4007374 -8.7022409,-22.052595 Z m 38.0154159,7.400825 -9.802525,9.7752596 11.579232,9.5594001 7.62759,-7.40083 -8.669108,-11.0087257 z m 20.187073,5.6739697 -7.382526,7.2158 6.187844,8.54179 5.820249,-6.13651996 z m -32.195166,6.32154 -9.5574606,9.49772 13.6622686,7.1849703 7.933918,-7.6783603 z m 23.311629,2.37443004 -7.10683,6.93826996 8.362778,6.9074403 5.360756,-5.6739699 -0.06127,-0.0925 -0.0919,0.12335 -6.463539,-8.20258036 z m -8.730374,8.54178036 -7.505057,7.3391599 10.353916,5.45811 c 1.397496,-1.32103 5.67514,-6.12292 5.850882,-6.32154 z"
         id="path4158-0-8"
         inkscape:connector-curvature="0" />
    </clipPath>
    <linearGradient
       x1="48.961185"
       y1="78.065437"
       x2="48.961185"
       y2="18.06966"
       id="linearGradient5356-5"
       xlink:href="#linearGradient3737"
       gradientUnits="userSpaceOnUse" />
    <linearGradient
       x1="50.252888"
       y1="20.248539"
       x2="50.252888"
       y2="75.615822"
       id="linearGradient5371-6"
       xlink:href="#linearGradient5420-9"
       gradientUnits="userSpaceOnUse" />
    <linearGradient
       id="linearGradient5420-9">
      <stop
         id="stop5422-8"
         style="stop-color:#525252;stop-opacity:1"
         offset="0" />
      <stop
         id="stop5498-6"
         style="stop-color:#cecece;stop-opacity:1"
         offset="0.21238038" />
      <stop
         id="stop5424-0"
         style="stop-color:#fdfdfd;stop-opacity:1"
         offset="0.60427487" />
      <stop
         id="stop5428-8"
         style="stop-color:#7c7c7c;stop-opacity:1"
         offset="0.74339777" />
      <stop
         id="stop5426-6"
         style="stop-color:#040404;stop-opacity:1"
         offset="1" />
    </linearGradient>
    <linearGradient
       x1="45.447727"
       y1="92.539597"
       x2="45.447727"
       y2="7.0165396"
       id="ButtonShadow-6"
       gradientUnits="userSpaceOnUse"
       gradientTransform="scale(1.0058652,0.994169)">
      <stop
         id="stop3750-7"
         style="stop-color:#000000;stop-opacity:1"
         offset="0" />
      <stop
         id="stop3752-1"
         style="stop-color:#000000;stop-opacity:0.58823532"
         offset="1" />
    </linearGradient>
    <filter
       style="color-interpolation-filters:sRGB"
       id="filter3174-6">
      <feGaussianBlur
         id="feGaussianBlur3176-1"
         stdDeviation="1.71" />
    </filter>
    <filter
       style="color-interpolation-filters:sRGB"
       id="filter3174-8">
      <feGaussianBlur
         stdDeviation="1.71"
         id="feGaussianBlur3176-9" />
    </filter>
    <linearGradient
       x1="46.79694"
       y1="31.771585"
       x2="46.79694"
       y2="36.256687"
       id="linearGradient5502"
       xlink:href="#linearGradient5433"
       gradientUnits="userSpaceOnUse"
       gradientTransform="matrix(0.86666667,0,0,1.7454545,-14.6,-14.981815)" />
    <linearGradient
       id="linearGradient5433">
      <stop
         id="stop5435"
         style="stop-color:#8d8d8d;stop-opacity:1"
         offset="0" />
      <stop
         id="stop5441"
         style="stop-color:#ffffff;stop-opacity:1"
         offset="0.32500392" />
      <stop
         id="stop5443"
         style="stop-color:#686868;stop-opacity:1"
         offset="0.5802148" />
      <stop
         id="stop5437"
         style="stop-color:#b3b3b3;stop-opacity:1"
         offset="1" />
    </linearGradient>
    <linearGradient
       x1="34.15395"
       y1="33.945866"
       x2="34.15395"
       y2="46.010723"
       id="linearGradient5469"
       xlink:href="#linearGradient5463"
       gradientUnits="userSpaceOnUse"
       gradientTransform="matrix(0.97916667,0,0,1,1.4895833,3)" />
    <linearGradient
       id="linearGradient5463">
      <stop
         id="stop5465"
         style="stop-color:#d40000;stop-opacity:1"
         offset="0" />
      <stop
         id="stop5471"
         style="stop-color:#ff8c67;stop-opacity:1"
         offset="0.33869192" />
      <stop
         id="stop5473"
         style="stop-color:#d40000;stop-opacity:1"
         offset="0.60884869" />
      <stop
         id="stop5467"
         style="stop-color:#6e0000;stop-opacity:1"
         offset="1" />
    </linearGradient>
    <linearGradient
       x1="46.79694"
       y1="31.65823"
       x2="46.79694"
       y2="42.515114"
       id="linearGradient5439"
       xlink:href="#linearGradient3693"
       gradientUnits="userSpaceOnUse"
       gradientTransform="matrix(0.86666667,0,0,1.3636363,6.4,-6.4545428)" />
    <linearGradient
       id="linearGradient3693">
      <stop
         id="stop3695"
         style="stop-color:#8d8d8d;stop-opacity:1"
         offset="0" />
      <stop
         id="stop3697"
         style="stop-color:#ffffff;stop-opacity:1"
         offset="0.25843728" />
      <stop
         id="stop3699"
         style="stop-color:#686868;stop-opacity:1"
         offset="0.54385865" />
      <stop
         id="stop3711"
         style="stop-color:#b1b1b1;stop-opacity:1"
         offset="1" />
    </linearGradient>
    <linearGradient
       x1="50.498287"
       y1="42.38448"
       x2="50.498287"
       y2="53.953835"
       id="linearGradient3738"
       xlink:href="#linearGradient3731"
       gradientUnits="userSpaceOnUse"
       gradientTransform="matrix(1,0,0,0.88235294,0,4.2941175)" />
    <linearGradient
       id="linearGradient3731">
      <stop
         id="stop3733"
         style="stop-color:#4d4d4d;stop-opacity:1"
         offset="0" />
      <stop
         id="stop3735"
         style="stop-color:#878787;stop-opacity:1"
         offset="1" />
    </linearGradient>
    <linearGradient
       x1="55.619888"
       y1="35.701611"
       x2="39.929382"
       y2="35.701611"
       id="linearGradient5488"
       xlink:href="#linearGradient5274"
       gradientUnits="userSpaceOnUse"
       gradientTransform="matrix(0.13333333,0,0,1.0909091,33.6,2.6363637)" />
    <linearGradient
       id="linearGradient5274">
      <stop
         id="stop5276"
         style="stop-color:#000000;stop-opacity:1"
         offset="0" />
      <stop
         id="stop5278"
         style="stop-color:#000000;stop-opacity:0"
         offset="1" />
    </linearGradient>
    <linearGradient
       x1="55.619888"
       y1="35.701611"
       x2="39.929382"
       y2="35.701611"
       id="linearGradient5492"
       xlink:href="#linearGradient5274"
       gradientUnits="userSpaceOnUse"
       gradientTransform="matrix(-0.13333333,0,0,1.0909091,62.35643,2.6363637)" />
    <linearGradient
       inkscape:collect="always"
       xlink:href="#ButtonShadow-6"
       id="linearGradient996"
       gradientUnits="userSpaceOnUse"
       gradientTransform="scale(1.0058652,0.994169)"
       x1="45.447727"
       y1="92.539597"
       x2="45.447727"
       y2="7.0165396" />
    <linearGradient
       inkscape:collect="always"
       xlink:href="#ButtonShadow-6"
       id="linearGradient998"
       gradientUnits="userSpaceOnUse"
       gradientTransform="scale(1.0058652,0.994169)"
       x1="45.447727"
       y1="92.539597"
       x2="45.447727"
       y2="7.0165396" />
    <linearGradient
       inkscape:collect="always"
       xlink:href="#linearGradient1020"
       id="linearGradient1010"
       x1="61.613449"
       y1="73.629936"
       x2="60.947769"
       y2="6.3926282"
       gradientUnits="userSpaceOnUse" />
  </defs>
  <sodipodi:namedview
     id="base"
     pagecolor="#ffffff"
     bordercolor="#666666"
     borderopacity="1.0"
     inkscape:pageopacity="0.0"
     inkscape:pageshadow="2"
     inkscape:zoom="2.3126679"
     inkscape:cx="-15.598244"
     inkscape:cy="44.557005"
     inkscape:document-units="px"
     inkscape:current-layer="g2574"
     showgrid="false"
     inkscape:showpageshadow="false"
     units="px"
     inkscape:lockguides="true"
     inkscape:window-width="1280"
     inkscape:window-height="972"
     inkscape:window-x="0"
     inkscape:window-y="26"
     inkscape:window-maximized="1"
     inkscape:snap-global="false">
    <sodipodi:guide
       position="0,0"
       orientation="0,96"
       id="guide1621"
       inkscape:locked="true" />
    <sodipodi:guide
       position="96.000002,0"
       orientation="-96,0"
       id="guide1623"
       inkscape:locked="true" />
    <sodipodi:guide
       position="96.000002,96.000002"
       orientation="0,-96"
       id="guide1625"
       inkscape:locked="true" />
    <sodipodi:guide
       position="0,96.000002"
       orientation="96,0"
       id="guide1627"
       inkscape:locked="true" />
  </sodipodi:namedview>
  <metadata
     id="metadata1069">
    <rdf:RDF>
      <cc:Work
         rdf:about="">
        <dc:format>image/svg+xml</dc:format>
        <dc:type
           rdf:resource="http://purl.org/dc/dcmitype/StillImage" />
        <dc:title></dc:title>
        <dc:date>2017</dc:date>
        <dc:creator>
          <cc:Agent>
            <dc:title>Cristian Pozzessere &quot;ilnanny&quot;</dc:title>
          </cc:Agent>
        </dc:creator>
        <dc:subject>
          <rdf:Bag>
            <rdf:li>Global language</rdf:li>
          </rdf:Bag>
        </dc:subject>
        <dc:description>Playing with Inkscape on Gnu/Linux O. S.</dc:description>
        <dc:contributor>
          <cc:Agent>
            <dc:title>In the night, alone like a dog.</dc:title>
          </cc:Agent>
        </dc:contributor>
        <cc:license
           rdf:resource="http://creativecommons.org/licenses/by-sa/4.0/" />
      </cc:Work>
      <cc:License
         rdf:about="http://creativecommons.org/licenses/by-sa/4.0/">
        <cc:permits
           rdf:resource="http://creativecommons.org/ns#Reproduction" />
        <cc:permits
           rdf:resource="http://creativecommons.org/ns#Distribution" />
        <cc:requires
           rdf:resource="http://creativecommons.org/ns#Notice" />
        <cc:requires
           rdf:resource="http://creativecommons.org/ns#Attribution" />
        <cc:permits
           rdf:resource="http://creativecommons.org/ns#DerivativeWorks" />
        <cc:requires
           rdf:resource="http://creativecommons.org/ns#ShareAlike" />
      </cc:License>
    </rdf:RDF>
  </metadata>
  <g
     inkscape:label="Livello 1"
     inkscape:groupmode="layer"
     id="layer1"
     transform="translate(0,-1026.5197)">
    <g
       transform="translate(-0.14895645,1026.1047)"
       style="display:inline"
       id="g2574">
      <path
         inkscape:connector-curvature="0"
         id="path3288"
         d="M 89.29181,0.415026 H 7.0060911 c -3.798848,0 -6.8571352,3.058285 -6.8571352,6.8571399 V 89.557884 c 0,3.798857 3.0582872,6.857142 6.8571352,6.857142 H 89.29181 c 3.798857,0 6.857147,-3.058285 6.857147,-6.857142 V 7.2721659 c 0,-3.7988549 -3.05829,-6.8571399 -6.857147,-6.8571399 z"
         style="display:inline;opacity:0.15;fill:#000000;fill-opacity:1;fill-rule:nonzero;stroke:none" />
      <path
         style="display:inline;opacity:0.15;fill:#000000;fill-opacity:1;fill-rule:nonzero;stroke:none"
         d="M 88.648954,1.165026 H 7.6489471 c -3.739492,0 -6.749993,3.010499 -6.749993,6.7499969 V 88.915026 c 0,3.739501 3.010501,6.75 6.749993,6.75 H 88.648954 c 3.739503,0 6.750003,-3.010499 6.750003,-6.75 V 7.9150229 c 0,-3.7394979 -3.0105,-6.7499969 -6.750003,-6.7499969 z"
         id="path4085"
         inkscape:connector-curvature="0" />
      <path
         inkscape:connector-curvature="0"
         id="rect4251-1"
         d="M 88.006093,1.915026 H 8.2918111 c -3.680143,0 -6.6428566,2.962713 -6.6428566,6.6428549 V 88.272171 c 0,3.680142 2.9627136,6.642856 6.6428566,6.642856 H 88.006093 c 3.680143,0 6.642854,-2.962714 6.642854,-6.642856 V 8.5578809 c 0,-3.6801419 -2.962711,-6.6428549 -6.642854,-6.6428549 z"
         style="display:inline;fill:url(#linearGradient4071);fill-opacity:1;fill-rule:nonzero;stroke:none" />
      <path
         sodipodi:nodetypes="sscccsccscccsss"
         inkscape:connector-curvature="0"
         id="path3400-6"
         d="m 11.390247,6.8021682 c -2.8564964,0 -5.1241284,2.3146876 -5.1241284,5.2304538 v 21.67369 7.322634 40.372561 c 1.0972399,1.70385 2.9688485,2.844058 5.1241284,2.844058 h 4.099303 65.588849 4.099302 c 2.155281,0 4.026889,-1.140208 5.124129,-2.844058 V 41.028946 33.706312 12.032622 c 0,-2.9157662 -2.267632,-5.2304538 -5.124129,-5.2304538 z"
         style="display:inline;opacity:0.673;fill:url(#linearGradient1010);fill-opacity:1;fill-rule:nonzero;stroke:none;stroke-width:1.03540373" />
      <g
         id="g1113"
         transform="matrix(1.043815,0,0,1,-1.9582396,-0.2852083)">
        <g
           id="g3647">
          <g
             transform="translate(0,32)"
             inkscape:label="Layer 1"
             id="layer1-3">
            <g
               transform="translate(0,-32)"
               id="g4592">
              <g
                 id="g3681"
                 transform="translate(0.40339593,-0.31669372)">
                <g
                   id="layer3"
                   style="display:inline"
                   transform="matrix(0.96727334,0,0,0.92657698,0.19635996,-0.96732972)">
                  <path
                     id="path5077"
                     transform="matrix(1.0338339,0,0,1.0792411,-0.62004799,1.3857709)"
                     d="m 11.585938,6.9179688 c -0.887049,0.00464 -1.562982,0.032995 -2.0898442,0.1328124 L 7.90625,8.5820312 C 7.7254229,9.4023411 7.7167969,10.624747 7.7167969,12.445312 L 13.462891,6.9199219 c -0.710324,0 -1.331376,-0.00481 -1.876953,-0.00195 z m 5.707031,0.00195 -9.5761721,9.2089842 V 19.8125 L 21.125,6.9199219 Z m 7.662109,0 L 7.7167969,23.496094 v 3.683594 l 8.6718751,-8.339844 c 0.241455,-1.880792 1.770588,-3.350137 3.726562,-3.582032 l 8.669922,-8.3378901 z m 7.66211,0 L 24,15.207031 h 3.828125 l 8.619141,-8.2871091 z m 7.660156,0 -8.617188,8.2871092 h 3.832032 l 8.617187,-8.2871092 z m 7.662109,0 -8.619141,8.2871092 h 3.832032 l 8.617187,-8.2871092 z m 7.662109,0 -8.617187,8.2871092 H 50.8125 l 8.619141,-8.2871092 z m 7.660157,0 -8.617188,8.2871092 h 3.830078 L 67.09375,6.9199219 Z m 7.662109,0 -8.61914,8.2871092 h 3.832031 l 8.617187,-8.2871092 z m 7.66211,0 -8.617188,8.2871092 h 3.828125 l 8.619141,-8.2871092 z m 7.623046,0.035156 -9.050781,8.7031252 c 0.83053,0.399753 1.500479,1.045004 1.916016,1.84375 L 88.291016,8.6386719 C 88.280475,7.4381311 87.906749,7.049921 86.208984,6.9550781 Z m 1.953125,5.4902342 -8.61914,8.28711 v 3.685547 l 8.61914,-8.289063 z m 0,7.367188 -8.61914,8.289062 V 31.7832 l 8.61914,-8.287109 z m -71.826171,2.763672 -8.6191411,8.287109 v 3.683594 l 8.6191411,-8.289063 z m 71.826171,4.603516 -8.61914,8.289062 v 3.683594 l 8.61914,-8.289063 z m -71.826171,2.763671 -8.6191411,8.28711 v 3.683593 L 16.335938,33.62695 Z m 71.826171,4.603516 -8.61914,8.287109 v 3.685547 l 8.61914,-8.289062 z m -71.826171,2.761719 -8.6191411,8.289062 v 3.683594 l 8.6191411,-8.287109 z m 71.826171,4.607422 -8.61914,8.287109 v 3.683594 l 8.61914,-8.289063 z m -71.826171,2.761718 -8.6191411,8.28711 v 3.683594 l 8.6191411,-8.289063 z m 71.826171,4.603516 -8.61914,8.289062 v 3.683594 l 8.61914,-8.287109 z m -71.826171,2.763672 -8.6191411,8.287109 v 3.685547 l 8.6191411,-8.289062 z m 71.826171,4.603516 -8.61914,8.289062 v 3.683594 l 8.61914,-8.289063 z m -71.826171,2.761718 -8.6191411,8.289063 v 3.683593 L 16.335938,63.0957 Z m 71.826171,4.607422 -8.671875,8.337891 c -0.241506,1.880734 -1.768678,3.350141 -3.724609,3.582031 l -8.669922,8.337891 h 3.828125 L 88.162109,67.699219 Z M 16.335938,66.78125 7.7167969,75.068359 V 78.75 l 8.6191411,-8.287109 z m 71.826171,4.601562 -13.40625,12.892579 h 3.832032 l 9.574218,-9.207032 z m -71.355468,2.3125 -9.0527348,8.705079 c 0.1475251,1.059825 0.6221809,1.530216 2.03125,1.730468 l 8.9374998,-8.59375 c -0.830189,-0.399316 -1.500202,-1.043795 -1.916015,-1.841797 z m 5.27539,2.292969 -8.617187,8.28711 h 3.830078 l 8.61914,-8.28711 z m 7.66211,0 -8.617188,8.28711 h 3.830078 l 8.617188,-8.28711 z m 7.662109,0 -8.619141,8.28711 h 3.832032 l 8.617187,-8.28711 z m 7.660156,0 -8.617187,8.28711 h 3.830078 l 8.619141,-8.28711 z m 7.66211,0 -8.617188,8.28711 h 3.830078 l 8.617188,-8.28711 z m 7.662109,0 -8.619141,8.28711 h 3.832032 l 8.617187,-8.28711 z m 7.660156,0 -8.61914,8.28711 h 3.832031 l 8.617187,-8.28711 z M 88.162109,78.75 82.416016,84.275391 c 1.752697,0 2.984467,0.02782 3.853515,-0.02148 l 1.978516,-1.902344 c 0.0036,-0.815509 -0.08594,-1.943739 -0.08594,-3.601562 z"
                     clip-path="none"
                     mask="none"
                     style="opacity:0.1;fill:#000000;stroke:none;stroke-width:0.93911856"
                     inkscape:connector-curvature="0" />
                </g>
                <g
                   id="layer4"
                   style="display:inline">
                  <path
                     d="M 47.75,18.09375 A 1.9113258,1.9113258 0 0 0 46.8125,18.5 l -7.5,6 -7.5,6 A 1.9113258,1.9113258 0 0 0 33,33.90625 h 5.09375 v 28.1875 H 33 A 1.9113258,1.9113258 0 0 0 31.8125,65.5 l 7.5,6 7.5,6 a 1.9113258,1.9113258 0 0 0 2.375,0 l 7.5,-6 7.5,-6 A 1.9113258,1.9113258 0 0 0 63,62.09375 H 57.90625 V 33.90625 H 63 A 1.9113258,1.9113258 0 0 0 64.1875,30.5 l -7.5,-6 -7.5,-6 A 1.9113258,1.9113258 0 0 0 47.75,18.09375 Z"
                     id="path5348"
                     style="display:inline;fill:url(#linearGradient5356-5);fill-opacity:1;stroke:none"
                     inkscape:connector-curvature="0" />
                  <path
                     d="m 48,20 -7.5,6 -7.5,6 h 7 v 32 h -7 l 7.5,6 7.5,6 7.5,-6 7.5,-6 H 56 V 32 h 7 l -7.5,-6 z"
                     inkscape:connector-curvature="0"
                     id="path5323"
                     style="display:inline;fill:url(#linearGradient5371-6);fill-opacity:1;stroke:none" />
                  <path
                     d="m 48,20 -7.5,6 -7.5,6 h 7 v 32 h -7 l 7.5,6 7.5,6 7.5,-6 7.5,-6 H 56 V 32 h 7 l -7.5,-6 z m 0,3.03125 6.03125,4.8125 2.28125,1.8125 H 56 A 2.3528528,2.3528528 0 0 0 53.65625,32 V 64 A 2.3528528,2.3528528 0 0 0 56,66.34375 h 0.3125 L 54.03125,68.15625 48,72.96875 41.96875,68.15625 39.6875,66.34375 H 40 A 2.3528528,2.3528528 0 0 0 42.34375,64 V 32 A 2.3528528,2.3528528 0 0 0 40,29.65625 h -0.3125 l 2.28125,-1.8125 z"
                     inkscape:connector-curvature="0"
                     id="path3794"
                     style="display:inline;opacity:0.1;fill:#000000;fill-opacity:1;stroke:none" />
                  <path
                     d="m 48,20 -7.5,6 -7.5,6 h 7 v 32 h -7 l 7.5,6 7.5,6 7.5,-6 7.5,-6 H 56 V 32 h 7 l -7.5,-6 z m 0,1.96875 6.53125,5.21875 4.09375,3.28125 H 56 A 1.5276739,1.5276739 0 0 0 54.46875,32 V 64 A 1.5276739,1.5276739 0 0 0 56,65.53125 h 2.625 L 54.53125,68.8125 48,74.03125 41.46875,68.8125 37.375,65.53125 H 40 A 1.5276739,1.5276739 0 0 0 41.53125,64 V 32 A 1.5276739,1.5276739 0 0 0 40,30.46875 h -2.625 l 4.09375,-3.28125 z"
                     inkscape:connector-curvature="0"
                     id="path3787"
                     style="display:inline;opacity:0.15;fill:#000000;fill-opacity:1;stroke:none" />
                  <path
                     d="m 48,20 -7.5,6 -7.5,6 h 7 v 32 h -7 l 7.5,6 7.5,6 7.5,-6 7.5,-6 H 56 V 32 h 7 l -7.5,-6 z m 0,1.03125 7,5.59375 5.6875,4.5625 H 56 A 0.79909095,0.79909095 0 0 0 55.1875,32 V 64 A 0.79909095,0.79909095 0 0 0 56,64.8125 h 4.6875 L 55,69.375 48,74.96875 41,69.375 35.3125,64.8125 H 40 A 0.79909095,0.79909095 0 0 0 40.8125,64 V 32 A 0.79909095,0.79909095 0 0 0 40,31.1875 H 35.3125 L 41,26.625 Z"
                     inkscape:connector-curvature="0"
                     id="path3779"
                     style="display:inline;opacity:0.3;fill:#000000;fill-opacity:1;stroke:none" />
                </g>
              </g>
              <g
                 id="g4213"
                 transform="translate(-129.88896,59.239351)">
                <g
                   style="display:none"
                   id="layer2-8">
                  <rect
                     style="opacity:0.9;fill:url(#linearGradient996);fill-opacity:1;fill-rule:nonzero;stroke:none;filter:url(#filter3174-6)"
                     id="rect3745-8"
                     y="7"
                     x="5"
                     ry="6"
                     rx="6"
                     height="85"
                     width="86" />
                </g>
              </g>
            </g>
          </g>
          <g
             id="layer2-4"
             style="display:none">
            <rect
               width="86"
               height="85"
               rx="6"
               ry="6"
               x="5"
               y="7"
               id="rect3745-7"
               style="opacity:0.9;fill:url(#linearGradient998);fill-opacity:1;fill-rule:nonzero;stroke:none;filter:url(#filter3174-8)" />
          </g>
          <g
             id="layer5-5" />
        </g>
        <g
           id="layer6">
          <rect
             style="fill:#333333;fill-opacity:1;stroke:none"
             id="rect3725"
             y="46"
             x="40"
             height="6"
             width="16" />
          <rect
             style="fill:url(#linearGradient5502);fill-opacity:1;stroke:#474747;stroke-width:0.99999994;stroke-opacity:1"
             id="rect5500"
             y="40"
             x="20.5"
             rx="2"
             height="6"
             width="13" />
          <rect
             style="fill:url(#linearGradient5469);fill-opacity:1;stroke:#800000;stroke-width:1;stroke-opacity:1"
             id="rect5461"
             y="37.5"
             x="24.5"
             ry="2.5"
             rx="19.583334"
             height="11"
             width="47" />
          <rect
             style="fill:url(#linearGradient5439);fill-opacity:1;stroke:url(#linearGradient3738);stroke-width:1"
             id="rect5431"
             y="36.5"
             x="41.5"
             height="15"
             width="13" />
          <path
             style="opacity:0.6;fill:url(#linearGradient5488);fill-opacity:1;stroke:none"
             id="rect5475"
             inkscape:connector-curvature="0"
             d="M 38.95643,37.104568 41,37 v 12 l -2,-0.104568 z" />
          <path
             style="opacity:0.6;fill:url(#linearGradient5492);fill-opacity:1;stroke:none"
             id="path5490"
             inkscape:connector-curvature="0"
             d="M 57,37.104568 54.95643,37 v 12 l 2,-0.104568 z" />
        </g>
      </g>
      <path
         style="color:#000000;font-style:normal;font-variant:normal;font-weight:normal;font-stretch:normal;font-size:medium;line-height:normal;font-family:Sans;-inkscape-font-specification:Sans;text-indent:0;text-align:start;text-decoration:none;text-decoration-line:none;letter-spacing:normal;word-spacing:normal;text-transform:none;writing-mode:lr-tb;direction:ltr;baseline-shift:baseline;text-anchor:start;display:inline;overflow:visible;visibility:visible;fill:#241f1f;fill-opacity:0.63265303;stroke:none;stroke-width:2.3755002;marker:none;enable-background:accumulate"
         d="m 9.9740341,5.1444869 c -3.116621,0 -5.667965,2.53951 -5.667965,5.6460041 v 69.277996 c 0,3.106495 2.551344,5.646004 5.667965,5.646004 H 86.765819 c 3.116621,0 5.667968,-2.539509 5.667968,-5.646004 V 10.790491 c 0,-3.1064931 -2.551347,-5.6460041 -5.667968,-5.6460041 z m 0,2.319439 H 86.765819 c 1.888099,0 3.352022,1.480095 3.352022,3.3265651 v 69.277996 c 0,1.846474 -1.463923,3.326564 -3.352022,3.326564 H 9.9740341 c -1.888099,0 -3.352022,-1.48009 -3.352022,-3.326564 V 10.790491 c 0,-1.8464701 1.463923,-3.3265651 3.352022,-3.3265651 z"
         id="path4989"
         inkscape:connector-curvature="0" />
      <path
         id="path4118"
         d="m 1.6489535,82.258776 v 6 c 0,3.680142 2.9761066,6.65625 6.6562496,6.65625 H 87.992703 c 3.680143,0 6.656254,-2.976108 6.656254,-6.65625 v -6 c 0,3.680142 -2.976111,6.65625 -6.656254,6.65625 H 8.3052031 c -3.680143,0 -6.6562496,-2.976108 -6.6562496,-6.65625 z"
         style="display:inline;opacity:0.65818182;fill:url(#linearGradient4129);fill-opacity:1;fill-rule:nonzero;stroke:none"
         inkscape:connector-curvature="0" />
      <rect
         ry="4.25"
         rx="0"
         y="80.665031"
         x="5.5239539"
         height="4.25"
         width="84.250008"
         id="rect4131"
         style="opacity:0.55;fill:url(#radialGradient7462);fill-opacity:1;stroke:none" />
      <rect
         transform="rotate(90)"
         style="opacity:0.669;fill:url(#radialGradient7464);fill-opacity:1;stroke:none"
         id="rect4141"
         width="76.75"
         height="4.25"
         x="5.9750223"
         y="-90.233963"
         rx="0"
         ry="4.25" />
      <rect
         clip-path="url(#clipPath4156-4-1)"
         ry="3.9569881"
         rx="3.9569874"
         y="-30"
         x="2"
         height="69.024437"
         width="75.965775"
         id="rect4146"
         style="opacity:0.699;fill:url(#linearGradient4767);fill-opacity:1;stroke:none"
         transform="matrix(1.0692451,0,0,1.0476829,4.4441802,38.894013)" />
    </g>
  </g>
</svg>
