<?xml version="1.0" encoding="UTF-8" standalone="no"?>
<!-- Created with Inkscape (http://www.inkscape.org/) -->

<svg
   xmlns:dc="http://purl.org/dc/elements/1.1/"
   xmlns:cc="http://creativecommons.org/ns#"
   xmlns:rdf="http://www.w3.org/1999/02/22-rdf-syntax-ns#"
   xmlns:svg="http://www.w3.org/2000/svg"
   xmlns="http://www.w3.org/2000/svg"
   xmlns:xlink="http://www.w3.org/1999/xlink"
   xmlns:sodipodi="http://sodipodi.sourceforge.net/DTD/sodipodi-0.dtd"
   xmlns:inkscape="http://www.inkscape.org/namespaces/inkscape"
   width="96"
   height="96"
   id="svg2"
   version="1.1"
   inkscape:version="0.92.2 5c3e80d, 2017-08-06"
   sodipodi:docname="tuxpaint.svg">
  <script
     xlink:href=""
     id="script2985" />
  <defs
     id="defs4">
    <linearGradient
       id="linearGradient8006">
      <stop
         style="stop-color:#a45f2f;stop-opacity:1;"
         offset="0"
         id="stop8008" />
      <stop
         id="stop8016"
         offset="0.25"
         style="stop-color:#d9bb7a;stop-opacity:0.74901961;" />
      <stop
         id="stop8014"
         offset="0.5"
         style="stop-color:#d9bb7a;stop-opacity:1;" />
      <stop
         style="stop-color:#c25437;stop-opacity:0.53448278;"
         offset="1"
         id="stop8010" />
    </linearGradient>
    <linearGradient
       id="linearGradient13990">
      <stop
         style="stop-color:#003366;stop-opacity:1;"
         offset="0"
         id="stop13992" />
      <stop
         style="stop-color:#003366;stop-opacity:0;"
         offset="1"
         id="stop13994" />
    </linearGradient>
    <linearGradient
       id="linearGradient6139-0">
      <stop
         id="stop6141-2"
         offset="0"
         style="stop-color:#b7b7b7;stop-opacity:1;" />
      <stop
         style="stop-color:#ffffff;stop-opacity:1;"
         offset="0.25"
         id="stop6151-0" />
      <stop
         style="stop-color:#9d9d9d;stop-opacity:1;"
         offset="0.5"
         id="stop6147-1" />
      <stop
         id="stop6149-4"
         offset="0.75"
         style="stop-color:#fafafa;stop-opacity:1;" />
      <stop
         id="stop6143-4"
         offset="1"
         style="stop-color:#b7b7b7;stop-opacity:1;" />
    </linearGradient>
    <linearGradient
       id="linearGradient4091-0-3-0-7">
      <stop
         style="stop-color:#ffffff;stop-opacity:1;"
         offset="0"
         id="stop4093-3-6-4-2" />
      <stop
         id="stop4099-6-1-8-3"
         offset="0.80000001"
         style="stop-color:#ffffff;stop-opacity:1;" />
      <stop
         style="stop-color:#ffffff;stop-opacity:0;"
         offset="1"
         id="stop4095-1-0-7-9" />
    </linearGradient>
    <linearGradient
       id="linearGradient3832-0-6-1-1">
      <stop
         style="stop-color:#000000;stop-opacity:1;"
         offset="0"
         id="stop3834-6-3-7-1" />
      <stop
         id="stop3872-2-4"
         offset="0.1"
         style="stop-color:#000000;stop-opacity:0.58823532;" />
      <stop
         style="stop-color:#000000;stop-opacity:0.58823532;"
         offset="0.89999998"
         id="stop3844-6-2-7-6" />
      <stop
         style="stop-color:#000000;stop-opacity:1;"
         offset="1"
         id="stop3836-5-0-2-9" />
    </linearGradient>
    <filter
       id="filter3174-4"
       color-interpolation-filters="sRGB">
      <feGaussianBlur
         stdDeviation="1.71"
         id="feGaussianBlur3176-3" />
    </filter>
    <linearGradient
       gradientUnits="userSpaceOnUse"
       xlink:href="#linearGradient3873-7"
       id="linearGradient3879-8-8"
       y2="48"
       x2="80"
       y1="48"
       x1="16" />
    <linearGradient
       id="linearGradient3873-7">
      <stop
         offset="0"
         style="stop-color:#f0f0f0;stop-opacity:1"
         id="stop3875-0" />
      <stop
         offset="1"
         style="stop-color:#b4b4b4;stop-opacity:1"
         id="stop3877-20-4" />
    </linearGradient>
    <radialGradient
       gradientUnits="userSpaceOnUse"
       xlink:href="#linearGradient3674-5-0"
       id="radialGradient3682-9"
       fy="48"
       fx="48"
       r="32"
       cy="48"
       cx="48" />
    <linearGradient
       id="linearGradient3674-5-0">
      <stop
         offset="0"
         style="stop-color:#ffffff;stop-opacity:1"
         id="stop3676-0-2" />
      <stop
         offset="0.30000001"
         style="stop-color:#ffffff;stop-opacity:1"
         id="stop3684-9" />
      <stop
         offset="0.89999998"
         style="stop-color:#f0f0f0;stop-opacity:1"
         id="stop3925-8-3" />
      <stop
         offset="1"
         style="stop-color:#d2d2d2;stop-opacity:1"
         id="stop3678-8-8" />
    </linearGradient>
    <filter
       id="filter3944-7"
       color-interpolation-filters="sRGB">
      <feGaussianBlur
         stdDeviation="0.4359375"
         id="feGaussianBlur3946-6" />
    </filter>
    <radialGradient
       gradientUnits="userSpaceOnUse"
       xlink:href="#linearGradient3893-7"
       id="radialGradient3901-4"
       fy="46.058418"
       fx="48.000896"
       r="3"
       cy="46.058418"
       cx="48.000896" />
    <linearGradient
       id="linearGradient3893-7">
      <stop
         offset="0"
         style="stop-color:#ffffff;stop-opacity:1"
         id="stop3895-3" />
      <stop
         offset="1"
         style="stop-color:#a2a2a2;stop-opacity:1"
         id="stop3897-5" />
    </linearGradient>
    <linearGradient
       gradientTransform="matrix(0,1,-1,0,96,0)"
       gradientUnits="userSpaceOnUse"
       xlink:href="#linearGradient3899-9"
       id="linearGradient3905-4"
       y2="48"
       x2="83"
       y1="48"
       x1="13" />
    <linearGradient
       id="linearGradient3899-9">
      <stop
         offset="0"
         style="stop-color:#ffffff;stop-opacity:1"
         id="stop3901-8" />
      <stop
         offset="0.5"
         style="stop-color:#ffffff;stop-opacity:0.41221374"
         id="stop3981-6" />
      <stop
         offset="1"
         style="stop-color:#868686;stop-opacity:1"
         id="stop3903-5" />
    </linearGradient>
    <linearGradient
       gradientTransform="matrix(0,1,-1,0,96,0)"
       gradientUnits="userSpaceOnUse"
       xlink:href="#linearGradient3917-6-8"
       id="linearGradient3923-1-6"
       y2="48"
       x2="120"
       y1="48"
       x1="17" />
    <linearGradient
       id="linearGradient3917-6-8">
      <stop
         offset="0"
         style="stop-color:#000000;stop-opacity:1"
         id="stop3919-2" />
      <stop
         offset="1"
         style="stop-color:#000000;stop-opacity:0"
         id="stop3921-7" />
    </linearGradient>
    <linearGradient
       gradientUnits="userSpaceOnUse"
       xlink:href="#linearGradient3983-2"
       id="linearGradient3973-9"
       y2="60"
       x2="53"
       y1="60"
       x1="43" />
    <linearGradient
       id="linearGradient3983-2">
      <stop
         offset="0"
         style="stop-color:#ffffff;stop-opacity:1"
         id="stop3985-6" />
      <stop
         offset="1"
         style="stop-color:#868686;stop-opacity:1"
         id="stop3989-2" />
    </linearGradient>
    <radialGradient
       gradientUnits="userSpaceOnUse"
       xlink:href="#linearGradient3674-5-0"
       id="radialGradient3979-6"
       fy="60"
       fx="48"
       r="5"
       cy="60"
       cx="48" />
    <linearGradient
       id="linearGradient13087">
      <stop
         offset="0"
         style="stop-color:#ffffff;stop-opacity:1"
         id="stop13089" />
      <stop
         offset="0.30000001"
         style="stop-color:#ffffff;stop-opacity:1"
         id="stop13091" />
      <stop
         offset="0.89999998"
         style="stop-color:#f0f0f0;stop-opacity:1"
         id="stop13093" />
      <stop
         offset="1"
         style="stop-color:#d2d2d2;stop-opacity:1"
         id="stop13095" />
    </linearGradient>
    <clipPath
       id="clipPath2973-9">
      <rect
         style="fill:url(#linearGradient2977);fill-opacity:1;fill-rule:nonzero;stroke:none"
         id="rect2975-6"
         y="6"
         x="6"
         ry="6"
         rx="6"
         height="84"
         width="84" />
    </clipPath>
    <linearGradient
       inkscape:collect="always"
       xlink:href="#linearGradient12946"
       id="linearGradient12954"
       x1="9.0784369"
       y1="3.0126896"
       x2="56.280174"
       y2="-34.779079"
       gradientUnits="userSpaceOnUse" />
    <linearGradient
       inkscape:collect="always"
       id="linearGradient12946">
      <stop
         style="stop-color:#ffffff;stop-opacity:1;"
         offset="0"
         id="stop12948" />
      <stop
         style="stop-color:#ffffff;stop-opacity:0;"
         offset="1"
         id="stop12950" />
    </linearGradient>
    <linearGradient
       gradientTransform="scale(1.0058652,0.994169)"
       gradientUnits="userSpaceOnUse"
       id="ButtonShadow-8"
       y2="7.0165396"
       x2="45.447727"
       y1="92.539597"
       x1="45.447727">
      <stop
         offset="0"
         style="stop-color:#000000;stop-opacity:1"
         id="stop3750-74" />
      <stop
         offset="1"
         style="stop-color:#000000;stop-opacity:0.58823532"
         id="stop3752-52" />
    </linearGradient>
    <filter
       id="filter3174-15"
       color-interpolation-filters="sRGB">
      <feGaussianBlur
         stdDeviation="1.71"
         id="feGaussianBlur3176-51" />
    </filter>
    <linearGradient
       gradientUnits="userSpaceOnUse"
       xlink:href="#linearGradient3737-15"
       id="linearGradient3613-10"
       y2="138.66119"
       x2="48"
       y1="20.220806"
       x1="48" />
    <linearGradient
       id="linearGradient3737-15">
      <stop
         offset="0"
         style="stop-color:#ffffff;stop-opacity:1"
         id="stop3739-67" />
      <stop
         offset="1"
         style="stop-color:#ffffff;stop-opacity:0"
         id="stop3741-16" />
    </linearGradient>
    <clipPath
       id="clipPath3613-75">
      <rect
         style="fill:#ffffff;fill-opacity:1;fill-rule:nonzero;stroke:none"
         id="rect3615-6"
         y="6"
         x="6"
         ry="6"
         rx="6"
         height="84"
         width="84" />
    </clipPath>
    <filter
       id="filter3794-95"
       color-interpolation-filters="sRGB"
       height="1.3839999"
       width="1.3839999"
       y="-0.192"
       x="-0.192">
      <feGaussianBlur
         stdDeviation="5.28"
         id="feGaussianBlur3796-36" />
    </filter>
    <linearGradient
       x1="45.447727"
       y1="92.539597"
       x2="45.447727"
       y2="7.0165396"
       id="ButtonShadow-6-9"
       gradientUnits="userSpaceOnUse"
       gradientTransform="scale(1.0058652,0.994169)">
      <stop
         id="stop3750-5-71"
         style="stop-color:#000000;stop-opacity:1"
         offset="0" />
      <stop
         id="stop3752-6-8"
         style="stop-color:#000000;stop-opacity:0.58823532"
         offset="1" />
    </linearGradient>
    <filter
       color-interpolation-filters="sRGB"
       id="filter3174-4-3">
      <feGaussianBlur
         id="feGaussianBlur3176-5-8"
         stdDeviation="1.71" />
    </filter>
    <linearGradient
       y2="18.5"
       x2="36.5"
       y1="18.5"
       x1="25.5"
       gradientTransform="matrix(1.5238178,0,0,1.5238179,-113.51307,111.65656)"
       gradientUnits="userSpaceOnUse"
       id="linearGradient3887"
       xlink:href="#linearGradient8804"
       inkscape:collect="always" />
    <linearGradient
       inkscape:collect="always"
       id="linearGradient8804">
      <stop
         style="stop-color:#ffffff;stop-opacity:1;"
         offset="0"
         id="stop8806" />
      <stop
         style="stop-color:#ffffff;stop-opacity:0;"
         offset="1"
         id="stop8808" />
    </linearGradient>
    <linearGradient
       gradientTransform="scale(1.0058652,0.994169)"
       gradientUnits="userSpaceOnUse"
       xlink:href="#ButtonShadow-6-2"
       id="linearGradient4047"
       y2="7.0165396"
       x2="45.447727"
       y1="92.539597"
       x1="45.447727" />
    <linearGradient
       gradientTransform="scale(1.0058652,0.994169)"
       gradientUnits="userSpaceOnUse"
       id="ButtonShadow-6-2"
       y2="7.0165396"
       x2="45.447727"
       y1="92.539597"
       x1="45.447727">
      <stop
         offset="0"
         style="stop-color:#000000;stop-opacity:1"
         id="stop3750-6" />
      <stop
         offset="1"
         style="stop-color:#000000;stop-opacity:0.58823532"
         id="stop3752-8" />
    </linearGradient>
    <filter
       id="filter3174-6-0"
       color-interpolation-filters="sRGB">
      <feGaussianBlur
         stdDeviation="1.71"
         id="feGaussianBlur3176-1-2" />
    </filter>
    <linearGradient
       x1="45.447727"
       y1="92.539597"
       x2="45.447727"
       y2="7.0165396"
       id="ButtonShadow-3-7"
       gradientUnits="userSpaceOnUse"
       gradientTransform="scale(1.0058652,0.994169)">
      <stop
         id="stop3750-7"
         style="stop-color:#000000;stop-opacity:1"
         offset="0" />
      <stop
         id="stop3752-45"
         style="stop-color:#000000;stop-opacity:0.58823532"
         offset="1" />
    </linearGradient>
    <filter
       color-interpolation-filters="sRGB"
       id="filter3174-7">
      <feGaussianBlur
         id="feGaussianBlur3176-4-4"
         stdDeviation="1.71" />
    </filter>
    <linearGradient
       x1="48"
       y1="20.220806"
       x2="48"
       y2="138.66119"
       id="linearGradient3613-78"
       xlink:href="#linearGradient3737-2"
       gradientUnits="userSpaceOnUse" />
    <linearGradient
       id="linearGradient3737-2">
      <stop
         id="stop3739-5"
         style="stop-color:#ffffff;stop-opacity:1"
         offset="0" />
      <stop
         id="stop3741-4-3"
         style="stop-color:#ffffff;stop-opacity:0"
         offset="1" />
    </linearGradient>
    <clipPath
       id="clipPath3613-8-2">
      <rect
         width="84"
         height="84"
         rx="6"
         ry="6"
         x="6"
         y="6"
         id="rect3615-84"
         style="fill:#ffffff;fill-opacity:1;fill-rule:nonzero;stroke:none" />
    </clipPath>
    <filter
       x="-0.192"
       y="-0.192"
       width="1.3839999"
       height="1.3839999"
       color-interpolation-filters="sRGB"
       id="filter3794-3">
      <feGaussianBlur
         id="feGaussianBlur3796-0"
         stdDeviation="5.28" />
    </filter>
    <linearGradient
       gradientTransform="scale(1.0058652,0.994169)"
       gradientUnits="userSpaceOnUse"
       id="ButtonShadow-5-5"
       y2="7.0165396"
       x2="45.447727"
       y1="92.539597"
       x1="45.447727">
      <stop
         offset="0"
         style="stop-color:#000000;stop-opacity:1"
         id="stop3750-5-7" />
      <stop
         offset="1"
         style="stop-color:#000000;stop-opacity:0.58823532"
         id="stop3752-4" />
    </linearGradient>
    <filter
       id="filter3174-9"
       color-interpolation-filters="sRGB">
      <feGaussianBlur
         stdDeviation="1.71"
         id="feGaussianBlur3176-3-7" />
    </filter>
    <linearGradient
       x1="45.447727"
       y1="92.539597"
       x2="45.447727"
       y2="7.0165396"
       id="linearGradient4047-3"
       xlink:href="#ButtonShadow-2-5"
       gradientUnits="userSpaceOnUse"
       gradientTransform="scale(1.0058652,0.994169)" />
    <linearGradient
       x1="45.447727"
       y1="92.539597"
       x2="45.447727"
       y2="7.0165396"
       id="ButtonShadow-2-5"
       gradientUnits="userSpaceOnUse"
       gradientTransform="scale(1.0058652,0.994169)">
      <stop
         id="stop3750-59"
         style="stop-color:#000000;stop-opacity:1"
         offset="0" />
      <stop
         id="stop3752-1-1"
         style="stop-color:#000000;stop-opacity:0.58823532"
         offset="1" />
    </linearGradient>
    <filter
       color-interpolation-filters="sRGB"
       id="filter3174-1-7">
      <feGaussianBlur
         id="feGaussianBlur3176-38"
         stdDeviation="1.71" />
    </filter>
    <linearGradient
       id="linearGradient3596-9">
      <stop
         id="stop3566-0"
         style="stop-color:#3792c8;stop-opacity:1"
         offset="0" />
      <stop
         id="stop3568-3"
         style="stop-color:#3769c8;stop-opacity:1"
         offset="1" />
    </linearGradient>
    <linearGradient
       id="linearGradient3836-6">
      <stop
         id="stop3838-0"
         style="stop-color:#a5eaf6;stop-opacity:1"
         offset="0" />
      <stop
         id="stop3840-4"
         style="stop-color:#35d3ed;stop-opacity:0"
         offset="1" />
    </linearGradient>
    <linearGradient
       id="linearGradient3216">
      <stop
         id="stop3218"
         offset="0"
         style="stop-color:#6b6b6b;stop-opacity:1;" />
      <stop
         id="stop3220"
         offset="1"
         style="stop-color:#000000;stop-opacity:1;" />
    </linearGradient>
    <linearGradient
       id="linearGradient4807">
      <stop
         id="stop4809"
         offset="0"
         style="stop-color:#fecd74;stop-opacity:1;" />
      <stop
         id="stop4811"
         offset="1"
         style="stop-color:#c2862f;stop-opacity:0;" />
    </linearGradient>
    <linearGradient
       id="linearGradient10287">
      <stop
         id="stop10289"
         offset="0"
         style="stop-color:#e1e0e0;stop-opacity:1;" />
      <stop
         style="stop-color:#3d3d3d;stop-opacity:1;"
         offset="0.5"
         id="stop4127" />
      <stop
         id="stop10291"
         offset="1"
         style="stop-color:#828282;stop-opacity:1;" />
    </linearGradient>
    <linearGradient
       inkscape:collect="always"
       xlink:href="#linearGradient6139-0-3"
       id="linearGradient4071"
       gradientUnits="userSpaceOnUse"
       gradientTransform="matrix(1.1071428,0,0,1.1071426,-5.14286,-36.03572)"
       x1="6"
       y1="47.000011"
       x2="90"
       y2="47.000011" />
    <linearGradient
       id="linearGradient6139-0-3">
      <stop
         id="stop6141-2-6"
         offset="0"
         style="stop-color:#b2babc;stop-opacity:1" />
      <stop
         style="stop-color:#ffffff;stop-opacity:1;"
         offset="0.25"
         id="stop6151-0-7" />
      <stop
         style="stop-color:#96a1a4;stop-opacity:1"
         offset="0.5"
         id="stop6147-1-5" />
      <stop
         id="stop6149-4-3"
         offset="0.75"
         style="stop-color:#fbf9f9;stop-opacity:1;" />
      <stop
         id="stop6143-4-5"
         offset="1"
         style="stop-color:#b2b9bc;stop-opacity:1" />
    </linearGradient>
    <linearGradient
       gradientTransform="translate(-1e-5,-32)"
       inkscape:collect="always"
       xlink:href="#linearGradient3832-0-6-1-1"
       id="linearGradient4129"
       x1="1.5"
       y1="88.171875"
       x2="94.5"
       y2="88.171875"
       gradientUnits="userSpaceOnUse" />
    <radialGradient
       inkscape:collect="always"
       xlink:href="#linearGradient12946"
       id="radialGradient7462"
       gradientUnits="userSpaceOnUse"
       gradientTransform="matrix(0.97513376,0,0,0.04919072,33.89901,48.166697)"
       cx="13.948145"
       cy="44.892841"
       fx="13.948145"
       fy="44.892841"
       r="43.199203" />
    <radialGradient
       inkscape:collect="always"
       xlink:href="#linearGradient12946"
       id="radialGradient7496"
       gradientUnits="userSpaceOnUse"
       gradientTransform="matrix(0.88832665,0,0,0.04919072,-0.4555,-90.168298)"
       cx="13.948145"
       cy="44.892841"
       fx="13.948145"
       fy="44.892841"
       r="43.199203" />
    <linearGradient
       inkscape:collect="always"
       xlink:href="#linearGradient12946"
       id="linearGradient4767"
       gradientUnits="userSpaceOnUse"
       x1="2.7713892"
       y1="-28.96156"
       x2="50.527882"
       y2="14.514202" />
    <clipPath
       id="clipPath4156-4-1"
       clipPathUnits="userSpaceOnUse">
      <path
         inkscape:connector-curvature="0"
         id="path4158-0-8"
         d="m 27.046336,-55.695463 -14.21366,13.321486 h 0.06127 l 15.653407,21.770763 10.231384,-10.546177 C 38.561832,-32.30156 27.468089,-54.819245 27.046336,-55.695463 Z M 9.9668554,-39.382809 -5.2407289,-25.32124 15.987863,-7.8059573 26.372412,-18.382966 Z m 31.4906096,12.951445 -9.741259,9.713584 8.944804,12.4580526 7.780753,-7.5550056 z m -49.8397109,4.378822 -13.7541661,12.9822847 26.2830181,13.84571 0.06127,-0.0617 -0.122531,-0.0617 L 13.598503,-5.4007374 -8.7022409,-22.052595 Z m 38.0154159,7.400825 -9.802525,9.7752596 11.579232,9.5594001 7.62759,-7.40083 -8.669108,-11.0087257 z m 20.187073,5.6739697 -7.382526,7.2158 6.187844,8.54179 5.820249,-6.13651996 z m -32.195166,6.32154 -9.5574606,9.49772 13.6622686,7.1849703 7.933918,-7.6783603 z m 23.311629,2.37443004 -7.10683,6.93826996 8.362778,6.9074403 5.360756,-5.6739699 -0.06127,-0.0925 -0.0919,0.12335 -6.463539,-8.20258036 z m -8.730374,8.54178036 -7.505057,7.3391599 10.353916,5.45811 c 1.397496,-1.32103 5.67514,-6.12292 5.850882,-6.32154 z"
         style="opacity:0.6;fill:#ffffff;fill-opacity:1;stroke:none" />
    </clipPath>
    <clipPath
       clipPathUnits="userSpaceOnUse"
       id="clipPath4355-7">
      <rect
         style="fill:#ffffff;fill-opacity:1;fill-rule:nonzero;stroke:none"
         id="rect4357-5"
         width="84"
         height="80"
         x="6"
         y="6"
         rx="6"
         ry="6" />
    </clipPath>
    <clipPath
       clipPathUnits="userSpaceOnUse"
       id="clipPath4355-9">
      <rect
         style="fill:#ffffff;fill-opacity:1;fill-rule:nonzero;stroke:none"
         id="rect4357-1"
         width="84"
         height="80"
         x="6"
         y="6"
         rx="6"
         ry="6" />
    </clipPath>
    <clipPath
       clipPathUnits="userSpaceOnUse"
       id="clipPath4355-1">
      <rect
         style="fill:#ffffff;fill-opacity:1;fill-rule:nonzero;stroke:none"
         id="rect4357-9"
         width="84"
         height="80"
         x="6"
         y="6"
         rx="6"
         ry="6" />
    </clipPath>
    <clipPath
       clipPathUnits="userSpaceOnUse"
       id="clipPath3943-52-0">
      <path
         id="path3945-4-1"
         d="m 69.78125,20.84375 -5,3.4375 c 5.586891,5.537137 9,13.327613 9,21.8125 0,8.434478 -3.37723,16.095981 -8.90625,21.625 l 5,3.4375 C 76.078226,96.5762 80,55.843726 80,46.09375 c 2e-6,-9.796556 -3.962955,-18.660417 -10.21875,-25.25 z M 40,24.0625 28.90625,36.21875 H 21.5 c -0.823281,0 -1.5,0.676717 -1.5,1.5 v 1 14.84375 1 c 0,0.823281 0.684121,1.610161 1.5,1.5 h 7.40625 L 40,68 V 66 26.0625 Z m 20.59375,3.28125 -5,3.4375 L 55.5,30.875 c 3.93815,3.890071 6.40625,9.25018 6.40625,15.21875 0,5.920869 -2.42961,11.148358 -6.3125,15.03125 l 0.09375,0.09375 5.09375,3.4375 c 4.475428,-4.908367 7.25,-11.402005 7.25,-18.5625 0,-7.230696 -2.87904,-13.83107 -7.4375,-18.75 z m -9.25,6.5 -5.21875,3.625 c 2.222384,2.217802 3.71875,5.239596 3.71875,8.625 0,3.336509 -1.458847,6.227712 -3.625,8.4375 l 5.21875,3.625 c 2.822412,-3.236947 4.53125,-7.43414 4.53125,-12.0625 0,-4.672601 -1.754155,-9.001351 -4.625,-12.25 z"
         style="color:#000000;display:inline;overflow:visible;visibility:visible;opacity:0.8;fill:#ff00ff;fill-opacity:1;fill-rule:nonzero;stroke:none;stroke-width:1;marker:none;enable-background:accumulate"
         inkscape:connector-curvature="0" />
    </clipPath>
    <linearGradient
       y2="26.720739"
       x2="61.392155"
       y1="26.720739"
       x1="26.812107"
       gradientTransform="matrix(1.1049966,0,0,1.1244174,-192.82964,-13.716488)"
       gradientUnits="userSpaceOnUse"
       id="linearGradient5158-2"
       xlink:href="#linearGradient3596-9"
       inkscape:collect="always" />
    <linearGradient
       y2="34.788895"
       x2="57.335056"
       y1="24"
       x1="52.5965"
       gradientTransform="matrix(0.75691161,0,0,0.7702369,-193.75177,-11.739099)"
       gradientUnits="userSpaceOnUse"
       id="linearGradient5160"
       xlink:href="#linearGradient3836-6"
       inkscape:collect="always" />
    <radialGradient
       r="4"
       fy="9.10744"
       fx="22.305519"
       cy="12.811336"
       cx="23"
       gradientTransform="matrix(1.0184108,-3.1841855,2.3318056,0.80481967,-197.21267,66.862376)"
       gradientUnits="userSpaceOnUse"
       id="radialGradient4799"
       xlink:href="#linearGradient3216"
       inkscape:collect="always" />
    <linearGradient
       gradientTransform="matrix(0.56636537,0,0,0.56555249,-49.793038,-110.26342)"
       gradientUnits="userSpaceOnUse"
       y2="69.255058"
       x2="35.450733"
       y1="69.255058"
       x1="-10.467957"
       id="linearGradient4813"
       xlink:href="#linearGradient4807"
       inkscape:collect="always" />
    <filter
       style="color-interpolation-filters:sRGB"
       id="filter5219"
       inkscape:collect="always">
      <feGaussianBlur
         id="feGaussianBlur5221"
         stdDeviation="0.24162039"
         inkscape:collect="always" />
    </filter>
    <linearGradient
       gradientTransform="translate(-179.24436,-53.379164)"
       gradientUnits="userSpaceOnUse"
       y2="51.996231"
       x2="53.546238"
       y1="44.888531"
       x1="46.47039"
       id="linearGradient5196"
       xlink:href="#linearGradient10287"
       inkscape:collect="always" />
    <radialGradient
       gradientUnits="userSpaceOnUse"
       gradientTransform="matrix(1.0065208,0,0,0.97727271,-125.18264,-9.4232136)"
       r="4.2071714"
       fy="50.772907"
       fx="-6.1195221"
       cy="50.772907"
       cx="-6.1195221"
       id="radialGradient5231"
       xlink:href="#linearGradient12946"
       inkscape:collect="always" />
  </defs>
  <sodipodi:namedview
     id="base"
     pagecolor="#ffffff"
     bordercolor="#666666"
     borderopacity="1.0"
     inkscape:pageopacity="0.0"
     inkscape:pageshadow="2"
     inkscape:zoom="1.1463732"
     inkscape:cx="44.869785"
     inkscape:cy="118.15413"
     inkscape:current-layer="layer1"
     showgrid="true"
     inkscape:document-units="px"
     inkscape:grid-bbox="true"
     inkscape:showpageshadow="false"
     gridtolerance="1"
     guidetolerance="1"
     objecttolerance="1"
     inkscape:window-width="1280"
     inkscape:window-height="972"
     inkscape:window-x="0"
     inkscape:window-y="23"
     inkscape:window-maximized="1" />
  <metadata
     id="metadata7">
    <rdf:RDF>
      <cc:Work
         rdf:about="">
        <dc:format>image/svg+xml</dc:format>
        <dc:type
           rdf:resource="http://purl.org/dc/dcmitype/StillImage" />
        <dc:title />
      </cc:Work>
    </rdf:RDF>
  </metadata>
  <g
     id="layer1"
     inkscape:label="Layer 1"
     inkscape:groupmode="layer"
     transform="translate(0,32)">
    <path
       inkscape:connector-curvature="0"
       style="fill:none;stroke:url(#linearGradient3887);stroke-width:1;stroke-linecap:round;stroke-linejoin:miter;stroke-miterlimit:4;stroke-dasharray:none;stroke-dashoffset:1.96000016;stroke-opacity:1"
       id="path8421"
       sodipodi:nodetypes="cc"
       d="" />
    <path
       style="display:inline;opacity:0.15;fill:#000000;fill-opacity:1;fill-rule:nonzero;stroke:none;stroke-width:1"
       d="M 89.142848,-32 H 6.85713 C 3.05828,-32 0,-28.94172 0,-25.14286 v 82.285719 c 0,3.798857 3.05828,6.857142 6.85713,6.857142 h 82.285718 c 3.798857,0 6.857147,-3.058285 6.857147,-6.857142 V -25.14286 c 0,-3.79886 -3.05829,-6.85714 -6.857147,-6.85714 z"
       id="path3288"
       inkscape:connector-curvature="0" />
    <path
       inkscape:connector-curvature="0"
       id="path4085"
       d="M 88.819992,-31.25 H 7.81999 c -3.7395,0 -6.75,3.0105 -6.75,6.74999 v 81.000011 c 0,3.739501 3.0105,6.750001 6.75,6.750001 h 81.000002 c 3.739503,0 6.750003,-3.0105 6.750003,-6.750001 V -24.50001 c 0,-3.73949 -3.0105,-6.74999 -6.750003,-6.74999 z"
       style="display:inline;opacity:0.15;fill:#000000;fill-opacity:1;fill-rule:nonzero;stroke:none;stroke-width:1" />
    <path
       style="display:inline;fill:url(#linearGradient4071);fill-opacity:1;fill-rule:nonzero;stroke:none;stroke-width:1"
       d="M 87.857132,-30.5 H 8.14285 c -3.68014,0 -6.96286,2.96271 -6.96286,6.96285 v 79.394296 c 0,3.680142 2.96272,6.962856 6.96286,6.962856 h 79.714282 c 3.680142,0 6.962853,-2.962713 6.962853,-6.962856 V -23.85714 c 0,-3.68015 -2.962711,-6.96286 -6.962853,-6.96286 z"
       id="rect4251-1-3"
       inkscape:connector-curvature="0" />
    <path
       style="display:inline;opacity:0.746;fill:#ffd5d5;fill-opacity:1;fill-rule:nonzero;stroke:none;stroke-width:1.02950251"
       d="m 11.24129,-25.61286 c -2.8597,0 -5.12413,2.28838 -5.12413,5.171 V 0.98549 8.22488 48.138563 c 1.09724,1.684484 2.96885,2.811732 5.12413,2.811732 h 4.0993 65.588847 4.099302 c 2.155281,0 4.026889,-1.127248 5.124129,-2.811732 V 8.22488 0.98549 -20.44186 c 0,-2.88262 -2.267632,-5.171 -5.124129,-5.171 z"
       id="path3400-6-6"
       inkscape:connector-curvature="0"
       sodipodi:nodetypes="sscccsccscccsss" />
    <g
       transform="translate(182.30975,16.513923)"
       id="g1314">
      <path
         inkscape:connector-curvature="0"
         id="path5196"
         d="m -163.0765,-0.82649868 c -0.35036,-2.3204e-4 -0.75183,0.12465303 -1.18047,0.329394 -1.51179,1.13484199 -3.49257,-1.01708302 -4.99168,0.32939303 -0.0447,0.07120045 -0.0968,0.129902 -0.10119,0.19763598 -0.0638,0.11869797 -0.12881,0.22088896 -0.16863,0.329394 -0.0166,0.0453995 -0.0211,0.0880801 -0.0337,0.13175696 -0.0302,0.10316105 -0.0582,0.20242203 -0.0675,0.29965401 -0.0115,0.11735905 -0.018,0.2252421 0,0.3293941 0.0185,0.10705 0.055,0.202169 0.10118,0.299654 0.0298,0.060889 0.0611,0.141655 0.10118,0.197636 0.0175,0.02437 0.0482,0.04241 0.0675,0.06588 0.0475,0.05735 0.0774,0.112363 0.13491,0.1966969 0.0281,0.02963 0.0708,0.04096 0.10119,0.06588 0.17216,0.139336 0.37947,0.2546921 0.60709,0.3623321 0.20434,0.09663 0.41149,0.185915 0.96083,0.263515 0.10932,0.0373 0.22529,0.09686 0.33727,0.09882 0.15899,0.04791 0.31296,0.121807 0.47219,0.196697 0.54583,0.147958 1.08307,0.257201 1.48401,0.395272 1.936,0.4384571 2.9604,2.0607181 3.47395,3.3598152 0.2076,0.047365 0.40121,0.067659 0.57337,0.065882 0.0703,-4.737e-4 0.13768,-0.025021 0.20236,-0.032941 0.0229,-0.00283 0.0453,0.00371 0.0675,0 0.16335,-0.025362 0.2763,-0.09561 0.40473,-0.1966973 0.10747,-0.057796 0.21863,-0.1139221 0.30355,-0.1976358 0.10357,-0.1020856 0.19693,-0.2287934 0.26983,-0.3623326 0.005,-0.00859 -0.005,-0.024161 0,-0.032941 0.0598,-0.1188246 0.12948,-0.2588885 0.16863,-0.3952725 0.0101,-0.03419 0.0248,-0.06371 0.0337,-0.09882 0.0425,-0.1678589 0.0508,-0.34355 0.0675,-0.5270299 0.012,-0.1480851 0.0362,-0.3084281 0.0337,-0.4611511 -5.5e-4,-0.04413 0.002,-0.08748 0,-0.1317579 -0.006,-0.1524061 -0.0156,-0.3100091 -0.0337,-0.4611511 -0.006,-0.04654 -0.0271,-0.08562 -0.0337,-0.1317569 -0.38504,-0.4937221 -0.48678,-0.9447221 -0.62355,-1.2900952 -0.40176,-1.47650593 -1.21371,-3.194117 -2.73193,-3.19511802 z m 14.5366,0.49409003 c -0.37937,0.30612002 -0.57212,0.66304602 -0.67455,1.05405996 -0.0519,0.19794204 -0.096,0.41336009 -0.10118,0.62584709 -0.007,0.2341699 0.0393,0.479302 0.0675,0.724666 0.0568,0.454363 0.13138,0.921912 0.20236,1.383453 -0.003,0.01043 0.003,0.0226 0,0.03294 0.18132,1.200858 0.18219,2.352776 -1.24792,3.0962995 -2.28255,1.9659559 -5.63676,0.2294682 -7.48753,2.7339668 -1.10036,1.4954453 -2.4001,0.9675723 -3.96258,0.4611505 -0.10458,-0.042629 -0.19929,-0.090404 -0.30355,-0.1317579 -0.21117,-0.083285 -0.4343,-0.1696189 -0.96082,-0.2305747 -0.31636,-0.093383 -0.61188,-0.1523008 -0.91097,-0.1317579 -0.24691,0.016974 -0.47843,0.089408 -0.70828,0.2305758 0.0983,0.1193608 0.18816,0.2204141 0.30355,0.3293926 0.10731,0.1027605 0.21752,0.2010409 0.33727,0.2996539 0.20713,0.196191 0.44176,0.311434 0.67456,0.461152 0.0347,0.02237 0.0661,0.04371 0.10118,0.06588 0.0347,0.02187 0.0661,0.04418 0.10118,0.06588 0.51745,0.321004 1.06915,0.620462 1.5852,0.955241 0.0675,0.04392 0.13634,0.08665 0.20237,0.131759 0.0602,0.04097 0.1099,0.08965 0.16863,0.131757 0.20257,0.145566 0.39455,0.330542 0.57337,0.494089 0.0176,0.0162 0.0502,0.01653 0.0675,0.03294 0.12133,0.114155 0.23171,0.203708 0.33728,0.329394 0.0255,0.03041 0.043,0.06766 0.0675,0.09882 0.0758,0.09669 0.13747,0.191902 0.20236,0.299655 0.0205,0.03254 0.0481,0.06546 0.0675,0.09882 0.0631,0.110203 0.11911,0.242518 0.16864,0.362333 0.0399,0.09536 0.0708,0.194432 0.10118,0.299655 0.0197,0.06636 0.052,0.128268 0.0675,0.197636 0.002,0.01074 -0.002,0.02212 0,0.03294 0.0349,0.196412 0.0583,0.34455 0.0674,0.527029 0.01,0.193716 -0.0113,0.37671 -0.0337,0.592908 0.39812,2.969617 -1.71521,4.750531 -2.19229,7.147841 -0.002,0.0107 0.002,0.02223 0,0.03294 -0.0912,0.473504 -0.10316,0.944573 -0.0337,1.44933 0.0779,0.285736 0.17069,0.596819 0.30355,0.859625 0.0548,0.12109 0.1081,0.240652 0.16863,0.362333 0.23311,0.467927 0.50721,0.948051 0.74201,1.416392 0.033,0.06597 0.0696,0.13181 0.10119,0.197635 0.0154,0.03212 0.0187,0.06674 0.0337,0.09882 0.12795,0.27397 0.25432,0.55395 0.33727,0.823484 0.0915,0.299637 0.13375,0.599138 0.13491,0.889363 1.7e-4,0.04279 0.002,0.08921 0,0.131757 -0.0138,0.27706 -0.0699,0.558293 -0.20236,0.823484 -0.0416,0.08329 -0.11306,0.148749 -0.16864,0.230575 -0.0358,0.0524 -0.0593,0.112932 -0.10118,0.196697 -0.0679,0.08496 -0.15079,0.147474 -0.2361,0.230576 -0.0468,0.04566 -0.0827,0.08667 -0.13491,0.131757 -0.14377,0.125423 -0.28278,0.241907 -0.47218,0.362333 -1.15196,1.027265 -0.88567,1.979144 -0.16864,1.581089 0.1195,-0.06634 0.23104,-0.149307 0.371,-0.299654 0.13996,-0.147147 0.28703,-0.353184 0.43846,-0.592909 0.73727,-2.284652 4.47717,-3.801528 5.1266,-1.054059 0.0433,0.183196 0.0531,0.403884 0.0674,0.625848 0.23608,0.832317 -0.0807,2.063458 -0.2361,3.162178 -0.15536,1.09873 -0.13662,2.067938 0.70828,2.371634 0.24144,-2.777341 0.3546,-6.268112 3.03549,-7.872506 0.17873,-0.106957 0.3712,-0.207049 0.57337,-0.299656 2.52792,-1.319586 4.0852,2.094744 6.44197,1.811666 0.15712,-0.01887 0.30738,-0.07756 0.47219,-0.131757 3.02958,-1.272693 4.03606,1.969141 6.07097,3.228056 1.72848,0.06736 2.39417,-1.021952 2.69821,-2.503391 0.0434,-0.211634 0.0703,-0.434462 0.10118,-0.658787 0.24719,-1.794961 0.14033,-3.92596 0.77574,-5.17148 2.12782,-2.017301 2.4159,-4.754281 3.00176,-7.477232 1.96569,-3.0916 5.93451,-0.308292 8.29699,-1.54815 -0.0387,-0.350696 -0.1423,-0.966964 -0.30355,-0.859623 -0.009,-0.01227 -0.0239,-0.02111 -0.0337,-0.03294 -0.0775,-0.09439 -0.17056,-0.161293 -0.26982,-0.230575 -0.0126,-0.0089 -0.0208,-0.02447 -0.0337,-0.03294 -0.0301,-0.01951 -0.0694,-0.0154 -0.10118,-0.03294 -0.0896,-0.05031 -0.16742,-0.09603 -0.26982,-0.131758 -0.61074,-0.213098 -1.42438,-0.201609 -2.29348,-0.131758 -0.57301,0.04605 -1.15653,0.10839 -1.72011,0.131758 -0.0347,0.0014 -0.0667,-0.0011 -0.10118,0 -0.33221,0.01095 -0.9646,-0.0011 -0.94437,-0.03294 -0.0334,-0.0035 -0.0683,0.0041 -0.10119,0 -0.15191,-0.0195 -0.29976,-0.02949 -0.43846,-0.06588 -0.15957,-0.04186 -0.33403,-0.09581 -0.47218,-0.196696 -2.33158,-0.177535 -5.0784,-2.234047 -4.35086,-4.9644491 0.003,-0.00908 -0.003,-0.023829 0,-0.032941 0.0735,-0.2329616 0.19543,-0.4540887 0.33727,-0.6917262 0.095,-0.1609555 0.23225,-0.380726 0.40473,-0.5929083 0.0658,-0.080472 0.16299,-0.1776086 0.2361,-0.2635147 0.0835,-0.09834 0.14587,-0.1923133 0.23609,-0.299655 0.39089,-0.4502623 0.80785,-0.928436 1.18046,-1.4163924 0.18486,-0.2420752 0.33966,-0.4621632 0.47219,-0.691726 0.13369,-0.226107 0.24601,-0.4587269 0.30355,-0.6587869 0.0113,-0.03847 0.0258,-0.06159 0.0337,-0.09882 0.0136,-0.06156 0.03,-0.106861 0.0337,-0.1966969 0.003,-0.04507 0.004,-0.08919 0,-0.1317581 -0.004,-0.043521 -0.0228,-0.09107 -0.0337,-0.131757 -0.0217,-0.08067 -0.0483,-0.162336 -0.10118,-0.2305759 -0.033,-0.04173 -0.0891,-0.09524 -0.13491,-0.1317571 -0.0284,-0.02086 -0.0681,-0.04696 -0.10119,-0.06588 -0.17375,-0.0993 -0.42398,-0.158804 -0.742,-0.1976361 -1.99132,1.534521 -3.00591,4.3525377 -5.96979,4.5126923 -2.96596,1.1793964 -5.83314,0.8928299 -7.65617,-1.5810892 -1.85852,-1.287242 -0.44276,-4.3432661 -1.65316,-6.43444717 -0.0948,-0.32380606 -0.33145,-0.26842497 -0.53964,-0.29551505 z m 6.88044,1.94342205 c -0.4249,0.0032 -0.84316,0.222997 -1.28165,0.658787 -0.22171,0.22033 -0.36535,0.472472 -0.47219,0.724666 -0.0653,0.154051 -0.1088,0.305077 -0.13491,0.461151 -0.0596,0.315501 -0.0184,0.9648531 0.0675,0.9223021 0.031,0.09245 0.0559,0.180097 0.10118,0.263515 0.0376,0.071699 0.0874,0.1341399 0.13491,0.1976359 0.0188,0.02453 0.0473,0.04273 0.0675,0.06588 0.089,0.10432 0.18721,0.1917121 0.30355,0.2635151 0.0343,0.02128 0.0967,0.04781 0.10118,0.06588 0.0712,0.03451 0.15691,0.04481 0.2361,0.06588 0.0912,0.024859 0.16899,0.06083 0.26982,0.06588 0.0573,0.0028 0.1084,0.0041 0.16864,0 0.10297,-0.0057 0.19228,-0.0052 0.30355,-0.03294 0.34142,-0.08517 0.97794,0.02734 1.41656,0.2635148 0.7637,0.4112723 1.22035,0.5244268 1.48401,0.3293937 0.0879,-0.065013 0.15181,-0.1655192 0.20237,-0.2996541 0.037,-0.094897 0.0566,-0.1915233 0.0675,-0.2996543 0.0139,-0.109517 0.0121,-0.2091891 0,-0.3293941 -0.011,-0.09247 -0.0412,-0.1980257 -0.0675,-0.2996537 -0.006,-0.02247 -0.0271,-0.04312 -0.0337,-0.06588 -0.0367,-0.126698 -0.0744,-0.260968 -0.13491,-0.395272 -0.21121,-0.469816 -0.55857,-1.012445 -1.04556,-1.54815 -0.696,-0.730442 -1.20758,-1.0911091 -1.75384,-1.086999 z M -166.5164,12.481002 c -0.53042,-0.02045 -1.04417,0.02806 -1.18046,0.230575 -0.0847,0.125843 -0.13973,0.218633 -0.20237,0.329393 -0.008,0.01495 -0.0256,0.01825 -0.0337,0.03294 -0.0562,0.101896 -0.0996,0.206175 -0.13491,0.299654 -0.0336,0.07998 -0.0468,0.158585 -0.0675,0.230577 -0.0309,0.105174 -0.0619,0.206121 -0.0675,0.299654 -0.007,0.115757 0.004,0.232514 0.0337,0.329394 0.0297,0.09851 0.0738,0.178093 0.13491,0.263513 0.0482,0.06731 0.10445,0.134858 0.16864,0.197638 0.0575,0.05717 0.10049,0.141728 0.16864,0.197636 0.0325,0.02613 0.0666,0.03962 0.10118,0.06588 0.22216,0.172582 0.5037,0.346111 0.77574,0.559969 0.3482,0.273729 0.72483,0.338837 1.11301,0.299655 0.38818,-0.04238 0.75921,-0.210011 1.11301,-0.395273 0.70759,-0.370523 1.2927,-0.854979 1.41656,-0.757606 -0.1823,-0.302925 -0.34359,-0.555773 -0.50591,-0.757605 -0.47221,-0.623107 -0.8764,-0.891459 -1.55148,-1.218755 -0.19977,-0.09687 -0.75122,-0.177177 -1.28196,-0.197636 z m 1.68638,6.192599 c -0.12651,0.02048 -0.22524,0.06964 -0.30354,0.131757 -0.007,0.0063 0.007,0.02628 0,0.03294 -0.0552,0.05521 -0.10292,0.123009 -0.13491,0.197635 -0.0406,0.09185 -0.0591,0.181879 -0.0674,0.299655 -0.005,0.06747 -0.004,0.12497 0,0.197637 0.006,0.146724 0.0279,0.304043 0.0674,0.461151 0.1692,0.672637 0.31696,0.823705 0.50591,0.790544 0.0946,-0.01658 0.18707,-0.08508 0.30355,-0.196697 0.11968,-0.07961 0.25518,-0.163537 0.40473,-0.230575 0.83881,-0.376025 0.48875,-0.451422 0,-1.614028 -0.32112,-0.100874 -0.58455,-0.129755 -0.77574,-0.09882 z m 34.13203,3.853904 c -0.28497,0.05471 0.17243,0.58455 1.34911,1.581088 0.98919,0.837789 2.05775,1.852584 2.36093,2.206938 0.77482,0.905595 1.96674,0.692001 1.75383,-0.395272 0.0218,-0.221216 0.0302,-0.386766 0,-0.52703 -0.0165,-0.07693 -0.0567,-0.133128 -0.10118,-0.197636 -0.0348,-0.05051 -0.0782,-0.11718 -0.13491,-0.196697 -0.01,-0.0082 -0.0232,-0.02476 -0.0337,-0.03294 -0.21512,-0.16749 -0.59697,-0.309615 -1.18046,-0.559969 -0.32297,-0.132907 -0.68356,-0.317409 -1.04556,-0.494091 -0.014,-0.0069 -0.0197,-0.02607 -0.0337,-0.03294 -0.10329,-0.0505 -0.20268,-0.08151 -0.30355,-0.131758 -0.17718,-0.09041 -0.2782,-0.175395 -0.43846,-0.263514 -0.29561,-0.154736 -0.55104,-0.269687 -0.74201,-0.395272 -0.55696,-0.375425 -1.21071,-0.638897 -1.45028,-0.592909 z"
         style="display:inline;fill:#b7510e;fill-opacity:1;stroke-width:1" />
      <path
         d="m -162.03297,-1.5814937 c -0.32462,-2.201e-4 -0.69092,0.09457 -1.08806,0.2888389 -1.40074,1.07696513 -3.24709,-0.9965079 -4.63609,0.31290709 -1.45838,2.38004601 1.93422,2.68228101 3.40611,3.20129801 1.79377,0.4159691 2.4682,1.944754 3.24052,3.1772272 2.31216,0.5400808 2.16665,-2.5040332 1.60844,-3.9474961 -0.37225,-1.40077715 -1.12423,-3.0318592 -2.53092,-3.0328072 z m 13.48248,0.4573279 c -2.04512,1.68974207 1.24005,5.0421082 -1.63209,6.5710832 -2.11487,1.5615404 -5.23931,0.1994278 -6.95412,2.5754793 -1.76678,2.4586033 -4.04405,-0.879262 -5.7478,0.1925593 1.45742,1.811865 5.13479,2.230245 4.80166,5.512008 0.44331,3.017383 -2.47341,5.266537 -2.08151,8.183767 0.57767,2.168626 3.25964,4.566522 0.47307,6.378522 -1.42311,1.299447 -0.50749,2.469336 0.61499,0.969887 0.72865,-2.311982 4.5894,-3.778396 4.80166,-0.409188 0.43749,1.579248 -1.13991,4.670987 0.42576,5.247239 0.23862,-2.810565 0.3617,-6.39343 3.3588,-7.750508 2.49836,-1.33537 3.96686,2.43546 6.41009,1.612682 2.80703,-1.207423 3.72046,1.862536 5.60588,3.056879 3.66058,0.146063 2.15768,-5.55572 3.33514,-7.918998 1.97151,-1.913843 2.22464,-4.493248 2.76746,-7.076551 1.82129,-2.93304 5.49845,-0.316069 7.68738,-1.492334 -0.28782,-2.671562 -4.63795,-0.514953 -6.55201,-1.492334 -2.37867,-0.185462 -5.23988,-2.524967 -3.73725,-5.1028199 0.7257,-1.2584458 4.48574,-4.4630847 1.67939,-4.8139787 -1.84503,1.455814 -2.81241,4.132502 -5.55857,4.2844424 -2.45158,1.1189074 -5.40693,0.8547051 -7.09604,-1.4923342 -2.31527,-1.5551672 -0.98368,-4.4396372 -2.10516,-6.4507333 -0.0878,-0.27683502 -0.30383,-0.23907005 -0.49673,-0.29676901 z m 6.36279,1.8533821 c -0.39365,0.0031 -0.77639,0.21237803 -1.18267,0.625818 -1.21659,1.238003 -0.46659,3.2794031 1.0964,2.8883881 0.31635,-0.08079 0.89455,0.04068 1.30095,0.296768 0.94347,0.520237 1.37375,0.520974 1.56113,0.02407 0.25774,-0.683476 -0.14575,-1.6800141 -1.11172,-2.7680371 -0.61522,-0.692974 -1.12599,-1.03890497 -1.63209,-1.03500694 z m -23.03849,10.6219177 c -0.49146,-0.01941 -0.96178,0.02446 -1.08806,0.21663 -1.06151,1.615347 -0.18709,1.849736 0.80421,2.967688 1.29048,1.038775 3.15294,-0.979056 3.38245,-0.794307 -0.66934,-1.138848 -1.08195,-1.463426 -1.91593,-1.877451 -0.1851,-0.09189 -0.69121,-0.173144 -1.18267,-0.192559 z m 1.58478,5.873056 c -0.53141,0.08812 -0.56947,0.66667 -0.4258,1.251634 0.31356,1.276285 0.58113,0.639518 1.13537,0.385119 0.7772,-0.356736 0.45285,-0.437499 0,-1.540472 -0.29752,-0.09572 -0.53246,-0.125654 -0.7096,-0.09628 z m 31.60106,3.658625 c -0.29604,0.05188 0.18705,0.57097 1.27729,1.519604 0.91653,0.794816 1.89521,1.733829 2.17612,2.070012 0.7179,0.859144 1.53286,0.670459 1.63209,-0.361049 0.072,-0.749079 -0.007,-0.85425 -1.34825,-1.420124 -0.79198,-0.334036 -1.87324,-0.895477 -2.389,-1.251635 -0.51576,-0.356168 -1.12628,-0.597231 -1.34825,-0.553608 z"
         inkscape:connector-curvature="0"
         id="path2627"
         style="display:inline;fill:url(#linearGradient5158-2);fill-opacity:1;stroke-width:1" />
      <path
         d="m -167.85173,-0.78718775 c -1.16094,2.20342805 2.06972,2.50414005 3.50072,3.00873805 1.79377,0.4159691 2.4682,1.944754 3.24052,3.1772272 1.78418,0.416755 2.0953,-1.2987351 1.89228,-2.7680392 -0.18287,0.8739471 -0.7362,1.4976051 -1.89228,1.2275651 -0.77232,-1.232473 -1.44675,-2.7612561 -3.24052,-3.17722607 -0.99173,-0.34970302 -2.83641,-0.61351304 -3.50072,-1.46826508 z m 18.6626,0.67395803 c -0.19996,0.79167803 0.0326,1.71889802 0.16558,2.62361912 0.20453,-0.8025981 -0.0303,-1.72981905 -0.16558,-2.62361912 z m 5.393,2.14222102 c -0.50311,1.1821431 0.21084,2.5411711 1.49016,2.2144311 0.31635,-0.08079 0.89455,0.04068 1.30095,0.296768 0.94347,0.520237 1.37375,0.520974 1.56113,0.02407 0.1358,-0.360135 0.075,-0.798217 -0.14192,-1.299773 -0.23628,0.2375769 -0.69643,0.15142 -1.41921,-0.2967701 -0.4064,-0.224085 -0.9846,-0.345562 -1.30095,-0.29677 -0.69785,0.178235 -1.22913,-0.147868 -1.49016,-0.6739559 z m 11.18809,0.9868651 c -0.63105,1.076602 -1.96272,2.358682 -2.36534,3.056878 -0.45853,0.786624 -0.52395,1.5506972 -0.3075,2.2385023 0.0681,-0.2289087 0.17093,-0.4637463 0.3075,-0.6980292 0.96601,-1.120262 3.68289,-3.7786091 2.36534,-4.5973511 z m -29.61416,4.9824698 c -0.22877,0.016104 -0.44933,0.08265 -0.6623,0.2166298 1.36633,1.6986247 4.69046,2.177962 4.82531,4.93433 0.0227,-0.311753 0.0246,-0.634727 -0.0237,-0.962796 0.20095,-1.979571 -1.06257,-2.9006834 -2.41265,-3.7308357 -0.59254,-0.247263 -1.18306,-0.4956091 -1.72671,-0.4573281 z m -4.28128,3.5623458 c -0.73442,1.323221 0.0737,1.594417 0.99344,2.33478 1.29048,1.038775 3.15294,-0.979057 3.38245,-0.794306 -0.3037,-0.516729 -0.56653,-0.841339 -0.82787,-1.107216 -0.71637,0.459898 -1.73099,1.023998 -2.55458,0.361049 -0.38474,-0.309703 -0.75026,-0.540703 -0.99344,-0.794307 z m 38.74441,1.299776 c -1.04855,0.0862 -2.1596,0.230179 -3.00399,0.02407 -0.61419,0.191235 -1.16561,0.562565 -1.60844,1.275703 -0.54282,2.583304 -0.79595,5.16271 -2.76746,7.076553 -1.17746,2.363279 0.32544,8.06506 -3.33514,7.918997 -1.88542,-1.194343 -2.79885,-4.2963 -5.60588,-3.056877 -2.44323,0.822778 -3.91173,-2.948052 -6.41009,-1.612683 -2.99713,1.357078 -3.12018,4.939942 -3.3588,7.750507 -0.34345,-0.129607 -0.54323,-0.372046 -0.63896,-0.698026 -0.14396,1.042373 -0.14419,1.950374 0.63896,2.2385 0.23862,-2.810565 0.3617,-6.39343 3.3588,-7.750507 2.49836,-1.335371 3.96686,2.43546 6.41009,1.612682 2.80703,-1.207423 3.72046,1.862535 5.60588,3.056879 3.66058,0.146062 2.15768,-5.55572 3.33514,-7.918998 1.97151,-1.913843 2.22464,-4.49325 2.76746,-7.076552 1.82129,-2.93304 5.49845,-0.316068 7.68738,-1.492335 -0.0754,-0.699809 -0.43006,-1.071299 -0.94614,-1.251634 -0.65868,0.08546 -1.38799,-0.0019 -2.12881,-0.09628 z m -35.17273,4.140022 c -0.47111,0.216238 -0.7323,0.689054 -0.99345,0.04814 -0.24176,0.223461 -0.25178,0.660055 -0.14192,1.107216 0.31355,1.276284 0.58113,0.639516 1.13537,0.385118 0.77719,-0.356736 0.45284,-0.437499 0,-1.540474 z m 2.81476,3.514205 c -0.0849,0.450122 -0.11178,0.916171 -0.0473,1.396056 0.31227,1.172308 1.23928,2.40888 1.58478,3.589615 0.5857,-1.543906 -1.03096,-3.324108 -1.53748,-4.982471 z m 28.07669,0.04814 c -0.29604,0.05188 0.18705,0.57097 1.27729,1.519604 0.91653,0.794818 1.89521,1.73383 2.17612,2.070013 0.7179,0.859144 1.53286,0.670459 1.63209,-0.36105 0.0423,-0.439534 0.026,-0.967216 -0.26019,-0.866516 -0.3182,0.360713 -0.86713,0.291177 -1.3719,-0.312909 -0.11705,-0.140075 -0.40525,-0.426743 -0.70961,-0.722097 -0.54863,-0.274662 -1.07698,-0.550248 -1.39555,-0.770236 -0.51576,-0.356167 -1.12628,-0.597233 -1.34825,-0.55361 z m -24.03194,4.452932 c -0.82433,0.03844 -1.76201,0.554271 -2.38901,1.299775 0.003,0.700986 -0.30581,1.372091 -1.22998,1.973732 -1.42311,1.299446 -0.50749,2.469336 0.61499,0.969887 0.72865,-2.311982 4.5894,-3.778396 4.80166,-0.409188 0.0756,-0.573334 0.11919,-1.110215 0,-1.540474 -0.0929,-1.474028 -0.87592,-2.016712 -1.79766,-1.973732 z"
         inkscape:connector-curvature="0"
         id="path3762"
         style="display:inline;opacity:0.3;fill:#241c1c;fill-opacity:1;stroke-width:1" />
      <path
         d="m -148.92969,6.7465858 c -2.38346,0.4705063 -4.48779,1.772168 -6.61917,2.8854716 -0.983,0.7226186 -0.99784,2.0824086 -0.93603,3.1947306 -0.10462,1.108615 -0.48534,2.22915 -0.1227,3.333945 0.28162,0.828396 -0.14562,1.5274 -0.57221,2.112245 -0.0259,0.948882 1.28702,1.357277 1.54189,0.331809 0.86748,-1.370493 1.30208,-2.982894 2.27146,-4.293291 0.9639,-1.082888 1.43165,-2.368683 2.76954,-2.56913 1.41138,-0.132077 2.76731,0.43372 4.04849,0.952763 1.04846,0.39962 1.67323,-0.515502 2.19863,-1.196256 0.97312,-0.494071 1.94683,0.83883 2.88624,0.184488 0.74759,-0.47691 1.80452,-0.909346 2.07846,-1.7951925 -0.27095,-1.0609927 -1.56548,-0.2221555 -2.30259,-0.3612222 -1.22919,0.0018 -2.45988,-0.05035 -3.68721,-0.08385 -1.04433,-0.1391292 -1.46073,-1.202374 -1.9598,-1.988996 -0.34824,-0.5058371 -0.96509,-0.9600927 -1.595,-0.7075209 z"
         inkscape:connector-curvature="0"
         id="path3812-3"
         style="display:inline;opacity:0.6;fill:url(#linearGradient5160);fill-opacity:1;fill-rule:evenodd;stroke:none;stroke-width:1" />
      <ellipse
         id="path5233"
         style="fill:#ffffff;fill-opacity:1;stroke:none;stroke-width:1"
         cx="-154.67065"
         cy="10.684582"
         rx="1.2430279"
         ry="1.5298805" />
      <ellipse
         style="fill:#ffffff;fill-opacity:1;stroke:none;stroke-width:0.43997753"
         id="path5237"
         cx="-163.36336"
         cy="-0.21369231"
         rx="0.77343965"
         ry="0.47596279" />
      <ellipse
         id="path5239"
         style="fill:#ffffff;fill-opacity:1;stroke:none;stroke-width:0.32033321"
         cx="-162.08453"
         cy="-0.7640242"
         rx="0.62474108"
         ry="0.31235057" />
      <path
         inkscape:connector-curvature="0"
         style="color:#000000;display:inline;overflow:visible;visibility:visible;fill:#3465a4;fill-opacity:1;fill-rule:evenodd;stroke:#729fcf;stroke-width:1px;stroke-linecap:butt;stroke-linejoin:miter;stroke-miterlimit:4;stroke-dashoffset:0;stroke-opacity:1;marker:none;enable-background:accumulate"
         d="m -136.36803,11.834405 c -5.57139,3.837952 -14.92896,3.219582 -14.92896,3.219582 5.38417,-4.199177 3.28745,-9.3731988 6.13739,-13.7922907 1.44172,5.8681361 4.18133,8.5145482 8.79125,10.5727087 z"
         id="path8812"
         sodipodi:nodetypes="cscc" />
      <path
         inkscape:connector-curvature="0"
         sodipodi:nodetypes="cssss"
         id="path6896"
         d="m -130.88042,-2.7106567 c 3.11468,4.9660551 1.30326,9.7637601 -4.34027,13.6513307 -5.57132,3.837978 -14.92857,3.219608 -14.92857,3.219608 5.38417,-4.1991767 3.93639,-10.9840626 6.78634,-15.4031517 3.75636,-5.8245412 10.25106,-4.7963362 12.4825,-1.467787 z"
         style="color:#000000;display:inline;overflow:visible;visibility:visible;fill:url(#radialGradient4799);fill-opacity:1;fill-rule:evenodd;stroke:#2e3436;stroke-width:1.60000002;stroke-linecap:butt;stroke-linejoin:miter;stroke-miterlimit:4;stroke-dasharray:none;stroke-dashoffset:0;stroke-opacity:1;marker:none;enable-background:accumulate" />
      <rect
         transform="matrix(0.69084067,-0.72300703,0.75281007,0.6582378,0,0)"
         ry="3.8540719"
         y="-100.77787"
         x="-86.46769"
         height="7.7081761"
         width="45.91869"
         id="rect7258"
         style="fill:#c17d11;fill-opacity:1;stroke:#8f5902;stroke-width:1.40223253;stroke-linecap:round;stroke-linejoin:miter;stroke-miterlimit:4;stroke-dasharray:none;stroke-dashoffset:1.96000016;stroke-opacity:1" />
      <rect
         style="fill:url(#linearGradient4813);fill-opacity:1;stroke:none;filter:url(#filter5219)"
         id="rect4805"
         width="26.006758"
         height="4.3502092"
         x="-55.721729"
         y="-73.271156"
         ry="2.1751046"
         transform="matrix(-0.6957339,0.71829961,-0.5377296,-0.84311943,-179.24436,-53.379164)" />
      <path
         inkscape:connector-curvature="0"
         id="rect5184"
         d="m -126.55611,-13.406304 -8.5,8.9062502 c -1.47196,1.5404921 -1.35737,3.91387815 0.25,5.31250018 1.60737,1.39862202 4.09054,1.25924202 5.5625,-0.28125006 l 9.15625,-9.56250022 c -1.59626,1.001366 -3.77234,0.888932 -5.25,-0.375 -1.22383,-1.0468181 -1.63053,-2.5966301 -1.21875,-4.0000001 z"
         style="fill:url(#linearGradient5196);fill-opacity:1;stroke:#48453f;stroke-width:1.39999998;stroke-linecap:round;stroke-linejoin:miter;stroke-miterlimit:4;stroke-dasharray:none;stroke-dashoffset:1.96000016;stroke-opacity:1" />
      <ellipse
         inkscape:transform-center-y="2.8685259"
         transform="matrix(0.96107645,0.27628258,-0.39470007,0.91881002,0,0)"
         id="path5223"
         style="opacity:0.60891089;fill:url(#radialGradient5231);fill-opacity:1;stroke:none;stroke-width:0.98070711"
         cx="-131.34207"
         cy="40.195763"
         rx="4.2346053"
         ry="4.1115537" />
      <circle
         r="1.0039841"
         style="fill:#ffffff;fill-opacity:1;stroke:none;stroke-width:0.72804403"
         id="path5235"
         cx="-152.61488"
         cy="8.915657" />
      <ellipse
         style="opacity:0.78217821;fill:#ffffff;fill-opacity:1;stroke:none;stroke-width:0.55645496"
         id="path5241"
         transform="matrix(0.79042291,0.61256152,-0.60604319,0.79543174,0,0)"
         cx="-112.678"
         cy="85.378136"
         rx="0.3848938"
         ry="1.5298805" />
      <ellipse
         transform="matrix(0.74499454,0.66707056,-0.54399109,0.83909099,0,0)"
         id="path5243"
         style="opacity:0.85148513;fill:#ffffff;fill-opacity:1;stroke:none;stroke-width:0.7531383"
         cx="-119.48049"
         cy="95.29863"
         rx="0.50837356"
         ry="2.1218023" />
      <ellipse
         transform="matrix(0.79042291,0.61256152,-0.60604319,0.79543174,0,0)"
         id="path5245"
         style="opacity:0.78217821;fill:#ffffff;fill-opacity:1;stroke:none;stroke-width:0.55645496"
         cx="-111.06626"
         cy="86.060272"
         rx="0.3848938"
         ry="1.5298805" />
      <ellipse
         style="fill:#ffffff;fill-opacity:1;stroke:none;stroke-width:1.87732875"
         id="path5247"
         transform="matrix(0.87346911,-0.48687957,-0.67876775,0.73435301,0,0)"
         cx="-321.92566"
         cy="-222.39088"
         rx="1.4870923"
         ry="4.5069337" />
      <ellipse
         id="path5249"
         style="fill:#ffffff;fill-opacity:1;stroke:none;stroke-width:0.58936894"
         cx="-126.69933"
         cy="-10.112233"
         rx="0.81274903"
         ry="0.81274909" />
    </g>
    <path
       inkscape:connector-curvature="0"
       id="path4989-0"
       d="m 9.82507,-27.27054 c -3.11662,0 -5.66796,2.53951 -5.66796,5.96601 v 69.277992 c 0,3.109696 2.55134,5.966004 5.66796,5.966004 h 76.791787 c 3.116621,0 5.667968,-2.539509 5.667968,-5.966004 V -21.62454 c 0,-3.10969 -2.551347,-5.966 -5.667968,-5.966 z m 0,2.31944 h 76.791787 c 1.888099,0 3.352022,1.4801 3.352022,3.32656 v 69.278002 c 0,1.849674 -1.463923,3.326596 -3.352022,3.326596 H 9.82507 c -1.8881,0 -3.35202,-1.48009 -3.35202,-3.326596 V -21.62454 c 0,-1.84967 1.46392,-3.32656 3.35202,-3.32656 z"
       style="color:#000000;font-style:normal;font-variant:normal;font-weight:normal;font-stretch:normal;font-size:medium;line-height:normal;font-family:Sans;-inkscape-font-specification:Sans;text-indent:0;text-align:start;text-decoration:none;text-decoration-line:none;letter-spacing:normal;word-spacing:normal;text-transform:none;writing-mode:lr-tb;direction:ltr;baseline-shift:baseline;text-anchor:start;display:inline;overflow:visible;visibility:visible;fill:#1f2224;fill-opacity:0.63265303;stroke:none;stroke-width:2.3755002;marker:none;enable-background:accumulate" />
    <path
       inkscape:connector-curvature="0"
       style="display:inline;opacity:0.65818182;fill:url(#linearGradient4129);fill-opacity:1;fill-rule:nonzero;stroke:none;stroke-width:1"
       d="m 1.81999,49.843751 v 6 c 0,3.680142 2.97611,6.65625 6.65625,6.65625 h 79.367501 c 3.680143,0 6.656254,-2.976108 6.656254,-6.65625 v -6 c 0,3.680142 -2.976111,6.65625 -6.656254,6.65625 H 8.15624 c -3.68014,0 -6.65625,-2.976108 -6.65625,-6.65625 z"
       id="path4118" />
    <rect
       style="opacity:0.55;fill:url(#radialGradient7462);fill-opacity:1;stroke:none;stroke-width:1"
       id="rect4131"
       width="84.250008"
       height="4.25"
       x="5.3749876"
       y="48.250004"
       rx="0"
       ry="4.25" />
    <rect
       ry="4.25"
       rx="0"
       y="-90.084999"
       x="-26.439999"
       height="4.25"
       width="76.75"
       id="rect4141"
       style="opacity:0.669;fill:url(#radialGradient7496);fill-opacity:1;stroke:none;stroke-width:1"
       transform="rotate(90)" />
    <rect
       transform="matrix(1.0692451,0,0,1.0476829,4.29522,6.47899)"
       style="opacity:0.65;fill:url(#linearGradient4767);fill-opacity:1;stroke:none"
       id="rect4146"
       width="75.965775"
       height="69.024437"
       x="2"
       y="-30"
       rx="3.9569874"
       ry="3.9569881"
       clip-path="url(#clipPath4156-4-1)" />
  </g>
</svg>
