<?xml version="1.0" encoding="UTF-8" standalone="no"?>
<!-- Created with Inkscape (http://www.inkscape.org/) -->

<svg
   xmlns:dc="http://purl.org/dc/elements/1.1/"
   xmlns:cc="http://creativecommons.org/ns#"
   xmlns:rdf="http://www.w3.org/1999/02/22-rdf-syntax-ns#"
   xmlns:svg="http://www.w3.org/2000/svg"
   xmlns="http://www.w3.org/2000/svg"
   xmlns:xlink="http://www.w3.org/1999/xlink"
   xmlns:sodipodi="http://sodipodi.sourceforge.net/DTD/sodipodi-0.dtd"
   xmlns:inkscape="http://www.inkscape.org/namespaces/inkscape"
   width="96"
   height="96"
   id="svg13094"
   version="1.1"
   inkscape:version="0.92.2 5c3e80d, 2017-08-06"
   sodipodi:docname="uget-tray-default.svg">
  <sodipodi:namedview
     id="base"
     pagecolor="#ffffff"
     bordercolor="#666666"
     borderopacity="1.0"
     inkscape:pageopacity="0"
     inkscape:pageshadow="2"
     inkscape:zoom="1.5507814"
     inkscape:cx="-90.245125"
     inkscape:cy="0.38252093"
     inkscape:document-units="px"
     inkscape:current-layer="g4153"
     showgrid="false"
     inkscape:snap-bbox="true"
     inkscape:bbox-paths="true"
     inkscape:bbox-nodes="true"
     inkscape:snap-bbox-edge-midpoints="true"
     inkscape:snap-bbox-midpoints="true"
     inkscape:object-paths="true"
     inkscape:snap-intersection-paths="true"
     inkscape:object-nodes="true"
     inkscape:snap-smooth-nodes="true"
     inkscape:snap-midpoints="true"
     inkscape:snap-object-midpoints="true"
     inkscape:snap-center="true"
     showguides="false"
     inkscape:guide-bbox="true"
     inkscape:window-width="1280"
     inkscape:window-height="972"
     inkscape:window-x="0"
     inkscape:window-y="23"
     inkscape:window-maximized="1"
     inkscape:snap-global="false"
     fit-margin-top="0"
     fit-margin-left="0"
     fit-margin-right="0"
     fit-margin-bottom="0"
     showborder="true"
     inkscape:showpageshadow="false"
     inkscape:snap-page="true">
    <inkscape:grid
       type="xygrid"
       id="grid3075"
       empspacing="5"
       visible="true"
       enabled="true"
       snapvisiblegridlinesonly="true"
       originx="1.6362304e-08"
       originy="18"
       spacingx="1"
       spacingy="1" />
    <sodipodi:guide
       orientation="0,1"
       position="-11,30"
       id="guide9148"
       inkscape:locked="false" />
    <sodipodi:guide
       orientation="1,0"
       position="32,70"
       id="guide9150"
       inkscape:locked="false" />
  </sodipodi:namedview>
  <defs
     id="defs13096">
    <linearGradient
       id="linearGradient5602-7-3-9-8">
      <stop
         id="stop5604-6-70-0-5"
         style="stop-color:#579457;stop-opacity:1;"
         offset="0" />
      <stop
         id="stop5606-0-9-2-0"
         style="stop-color:#558455;stop-opacity:1;"
         offset="1" />
    </linearGradient>
    <linearGradient
       id="linearGradient13990">
      <stop
         id="stop13992"
         offset="0"
         style="stop-color:#003366;stop-opacity:1;" />
      <stop
         id="stop13994"
         offset="1"
         style="stop-color:#003366;stop-opacity:0;" />
    </linearGradient>
    <linearGradient
       id="linearGradient6139-0">
      <stop
         style="stop-color:#b7b7b7;stop-opacity:1;"
         offset="0"
         id="stop6141-2" />
      <stop
         id="stop6151-0"
         offset="0.25"
         style="stop-color:#ffffff;stop-opacity:1;" />
      <stop
         id="stop6147-1"
         offset="0.5"
         style="stop-color:#9d9d9d;stop-opacity:1;" />
      <stop
         style="stop-color:#fafafa;stop-opacity:1;"
         offset="0.75"
         id="stop6149-4" />
      <stop
         style="stop-color:#b7b7b7;stop-opacity:1;"
         offset="1"
         id="stop6143-4" />
    </linearGradient>
    <linearGradient
       id="linearGradient4091-0-3-0-7">
      <stop
         id="stop4093-3-6-4-2"
         offset="0"
         style="stop-color:#ffffff;stop-opacity:1;" />
      <stop
         style="stop-color:#ffffff;stop-opacity:1;"
         offset="0.80000001"
         id="stop4099-6-1-8-3" />
      <stop
         id="stop4095-1-0-7-9"
         offset="1"
         style="stop-color:#ffffff;stop-opacity:0;" />
    </linearGradient>
    <linearGradient
       id="linearGradient3832-0-6-1-1">
      <stop
         id="stop3834-6-3-7-1"
         offset="0"
         style="stop-color:#000000;stop-opacity:1;" />
      <stop
         style="stop-color:#000000;stop-opacity:0.58823532;"
         offset="0.1"
         id="stop3872-2-4" />
      <stop
         id="stop3844-6-2-7-6"
         offset="0.89999998"
         style="stop-color:#000000;stop-opacity:0.58823532;" />
      <stop
         id="stop3836-5-0-2-9"
         offset="1"
         style="stop-color:#000000;stop-opacity:1;" />
    </linearGradient>
    <filter
       color-interpolation-filters="sRGB"
       id="filter3174-4">
      <feGaussianBlur
         id="feGaussianBlur3176-3"
         stdDeviation="1.71" />
    </filter>
    <linearGradient
       x1="16"
       y1="48"
       x2="80"
       y2="48"
       id="linearGradient3879-8-8"
       xlink:href="#linearGradient3873-7"
       gradientUnits="userSpaceOnUse" />
    <linearGradient
       id="linearGradient3873-7">
      <stop
         id="stop3875-0"
         style="stop-color:#f0f0f0;stop-opacity:1"
         offset="0" />
      <stop
         id="stop3877-20-4"
         style="stop-color:#b4b4b4;stop-opacity:1"
         offset="1" />
    </linearGradient>
    <radialGradient
       cx="48"
       cy="48"
       r="32"
       fx="48"
       fy="48"
       id="radialGradient3682-9"
       xlink:href="#linearGradient3674-5-0"
       gradientUnits="userSpaceOnUse" />
    <linearGradient
       id="linearGradient3674-5-0">
      <stop
         id="stop3676-0-2"
         style="stop-color:#ffffff;stop-opacity:1"
         offset="0" />
      <stop
         id="stop3684-9"
         style="stop-color:#ffffff;stop-opacity:1"
         offset="0.30000001" />
      <stop
         id="stop3925-8-3"
         style="stop-color:#f0f0f0;stop-opacity:1"
         offset="0.89999998" />
      <stop
         id="stop3678-8-8"
         style="stop-color:#d2d2d2;stop-opacity:1"
         offset="1" />
    </linearGradient>
    <filter
       color-interpolation-filters="sRGB"
       id="filter3944-7">
      <feGaussianBlur
         id="feGaussianBlur3946-6"
         stdDeviation="0.4359375" />
    </filter>
    <radialGradient
       cx="48.000896"
       cy="46.058418"
       r="3"
       fx="48.000896"
       fy="46.058418"
       id="radialGradient3901-4"
       xlink:href="#linearGradient3893-7"
       gradientUnits="userSpaceOnUse" />
    <linearGradient
       id="linearGradient3893-7">
      <stop
         id="stop3895-3"
         style="stop-color:#ffffff;stop-opacity:1"
         offset="0" />
      <stop
         id="stop3897-5"
         style="stop-color:#a2a2a2;stop-opacity:1"
         offset="1" />
    </linearGradient>
    <linearGradient
       x1="13"
       y1="48"
       x2="83"
       y2="48"
       id="linearGradient3905-4"
       xlink:href="#linearGradient3899-9"
       gradientUnits="userSpaceOnUse"
       gradientTransform="matrix(0,1,-1,0,96,0)" />
    <linearGradient
       id="linearGradient3899-9">
      <stop
         id="stop3901-8"
         style="stop-color:#ffffff;stop-opacity:1"
         offset="0" />
      <stop
         id="stop3981-6"
         style="stop-color:#ffffff;stop-opacity:0.41221374"
         offset="0.5" />
      <stop
         id="stop3903-5"
         style="stop-color:#868686;stop-opacity:1"
         offset="1" />
    </linearGradient>
    <linearGradient
       x1="17"
       y1="48"
       x2="120"
       y2="48"
       id="linearGradient3923-1-6"
       xlink:href="#linearGradient3917-6-8"
       gradientUnits="userSpaceOnUse"
       gradientTransform="matrix(0,1,-1,0,96,0)" />
    <linearGradient
       id="linearGradient3917-6-8">
      <stop
         id="stop3919-2"
         style="stop-color:#000000;stop-opacity:1"
         offset="0" />
      <stop
         id="stop3921-7"
         style="stop-color:#000000;stop-opacity:0"
         offset="1" />
    </linearGradient>
    <linearGradient
       x1="43"
       y1="60"
       x2="53"
       y2="60"
       id="linearGradient3973-9"
       xlink:href="#linearGradient3983-2"
       gradientUnits="userSpaceOnUse" />
    <linearGradient
       id="linearGradient3983-2">
      <stop
         id="stop3985-6"
         style="stop-color:#ffffff;stop-opacity:1"
         offset="0" />
      <stop
         id="stop3989-2"
         style="stop-color:#868686;stop-opacity:1"
         offset="1" />
    </linearGradient>
    <radialGradient
       cx="48"
       cy="60"
       r="5"
       fx="48"
       fy="60"
       id="radialGradient3979-6"
       xlink:href="#linearGradient3674-5-0"
       gradientUnits="userSpaceOnUse" />
    <clipPath
       id="clipPath2973-9">
      <rect
         width="84"
         height="84"
         rx="6"
         ry="6"
         x="6"
         y="6"
         id="rect2975-6"
         style="fill:url(#linearGradient2977);fill-opacity:1;fill-rule:nonzero;stroke:none" />
    </clipPath>
    <linearGradient
       id="linearGradient12946"
       inkscape:collect="always">
      <stop
         id="stop12948"
         offset="0"
         style="stop-color:#ffffff;stop-opacity:1;" />
      <stop
         id="stop12950"
         offset="1"
         style="stop-color:#ffffff;stop-opacity:0;" />
    </linearGradient>
    <linearGradient
       x1="45.447727"
       y1="92.539597"
       x2="45.447727"
       y2="7.0165396"
       id="ButtonShadow-5"
       gradientUnits="userSpaceOnUse"
       gradientTransform="scale(1.0058652,0.994169)">
      <stop
         id="stop3750-9"
         style="stop-color:#000000;stop-opacity:1"
         offset="0" />
      <stop
         id="stop3752-0"
         style="stop-color:#000000;stop-opacity:0.58823532"
         offset="1" />
    </linearGradient>
    <filter
       color-interpolation-filters="sRGB"
       id="filter3174-5">
      <feGaussianBlur
         id="feGaussianBlur3176-1"
         stdDeviation="1.71" />
    </filter>
    <linearGradient
       x1="136.3282"
       y1="151.16792"
       x2="117.66125"
       y2="78.463249"
       id="linearGradient3855"
       xlink:href="#linearGradient3421"
       gradientUnits="userSpaceOnUse"
       gradientTransform="matrix(0.31400775,0,0,0.31400775,8.6076835,9.3242921)" />
    <linearGradient
       id="linearGradient3421">
      <stop
         id="stop3423"
         style="stop-color:#fe7600;stop-opacity:1"
         offset="0" />
      <stop
         id="stop3425"
         style="stop-color:#f2b26d;stop-opacity:1"
         offset="1" />
    </linearGradient>
    <linearGradient
       x1="48.742641"
       y1="30.801933"
       x2="86.437103"
       y2="30.801933"
       id="linearGradient3871"
       xlink:href="#linearGradient3865"
       gradientUnits="userSpaceOnUse" />
    <linearGradient
       id="linearGradient3865">
      <stop
         id="stop3867"
         style="stop-color:#bddb4e;stop-opacity:1"
         offset="0" />
      <stop
         id="stop3869"
         style="stop-color:#52b124;stop-opacity:1"
         offset="1" />
    </linearGradient>
    <linearGradient
       x1="312.62323"
       y1="468.58658"
       x2="315.21729"
       y2="471.18063"
       id="linearGradient3851"
       xlink:href="#linearGradient12946"
       gradientUnits="userSpaceOnUse"
       gradientTransform="matrix(0.31400775,0,0,0.31400775,-69.663245,-106.20134)" />
    <linearGradient
       x1="312.62323"
       y1="468.58658"
       x2="315.21729"
       y2="471.18063"
       id="linearGradient3847"
       xlink:href="#linearGradient12946"
       gradientUnits="userSpaceOnUse"
       gradientTransform="matrix(0.31400775,0,0,0.31400775,-68.839441,-118.95132)" />
    <linearGradient
       x1="-19.139587"
       y1="-98.684196"
       x2="18.554882"
       y2="-98.684196"
       id="linearGradient3879"
       xlink:href="#linearGradient3865"
       gradientUnits="userSpaceOnUse" />
    <linearGradient
       inkscape:collect="always"
       xlink:href="#linearGradient6139-0-3"
       id="linearGradient4071"
       gradientUnits="userSpaceOnUse"
       gradientTransform="translate(218.15525,-10.718851)"
       x1="6"
       y1="47.000011"
       x2="90"
       y2="47.000011" />
    <linearGradient
       id="linearGradient6139-0-3">
      <stop
         id="stop6141-2-6"
         offset="0"
         style="stop-color:#b2babc;stop-opacity:1" />
      <stop
         style="stop-color:#ffffff;stop-opacity:1;"
         offset="0.25"
         id="stop6151-0-7" />
      <stop
         style="stop-color:#96a1a4;stop-opacity:1"
         offset="0.5"
         id="stop6147-1-5" />
      <stop
         id="stop6149-4-3"
         offset="0.75"
         style="stop-color:#fbf9f9;stop-opacity:1;" />
      <stop
         id="stop6143-4-5"
         offset="1"
         style="stop-color:#b2b9bc;stop-opacity:1" />
    </linearGradient>
    <linearGradient
       gradientTransform="matrix(0.90322588,0,0,0.903226,222.80041,-7.0736894)"
       inkscape:collect="always"
       xlink:href="#linearGradient3832-0-6-1-1"
       id="linearGradient4129"
       x1="1.5"
       y1="88.171875"
       x2="94.5"
       y2="88.171875"
       gradientUnits="userSpaceOnUse" />
    <radialGradient
       inkscape:collect="always"
       xlink:href="#linearGradient12946"
       id="radialGradient7462"
       gradientUnits="userSpaceOnUse"
       gradientTransform="matrix(0.88076607,0,0,0.04443034,253.41859,65.334955)"
       cx="13.948145"
       cy="44.892841"
       fx="13.948145"
       fy="44.892841"
       r="43.199203" />
    <radialGradient
       inkscape:collect="always"
       xlink:href="#linearGradient12946"
       id="radialGradient7464"
       gradientUnits="userSpaceOnUse"
       gradientTransform="matrix(0.80235972,0,0,0.04443033,21.418116,-304.24276)"
       cx="13.948145"
       cy="44.892841"
       fx="13.948145"
       fy="44.892841"
       r="43.199203" />
    <linearGradient
       inkscape:collect="always"
       xlink:href="#linearGradient12946"
       id="linearGradient4767"
       gradientUnits="userSpaceOnUse"
       x1="2.7713892"
       y1="-28.64156"
       x2="50.527882"
       y2="14.514202" />
    <clipPath
       id="clipPath4156-4-1"
       clipPathUnits="userSpaceOnUse">
      <path
         inkscape:connector-curvature="0"
         id="path4158-0-8"
         d="m 27.046336,-55.695463 -14.21366,13.321486 h 0.06127 l 15.653407,21.770763 10.231384,-10.546177 C 38.561832,-32.30156 27.468089,-54.819245 27.046336,-55.695463 Z M 9.6468554,-39.382809 -5.2407289,-25.32124 15.987863,-7.8059573 26.372412,-18.382966 Z m 31.4906096,12.951445 -9.741259,9.713584 8.944804,12.4580526 7.780753,-7.5550056 z m -49.8397109,4.378822 -13.7541661,12.9822847 26.2830181,13.84571 0.06127,-0.0617 -0.122531,-0.0617 L 13.598503,-5.4007374 -8.7022409,-22.052595 Z m 38.0154159,7.400825 -9.802525,9.7752596 11.579232,9.5594001 7.62759,-7.40083 -8.669108,-11.0087257 z m 20.187073,5.6739697 -7.382526,7.2158 6.187844,8.54179 5.820249,-6.13651996 z m -32.195166,6.32154 -9.5574606,9.49772 13.6622686,7.1849703 7.933918,-7.6783603 z m 23.311629,2.37443004 -7.10683,6.93826996 8.362778,6.9074403 5.360756,-5.6739699 -0.06127,-0.0925 -0.0919,0.12335 -6.463539,-8.20258036 z m -8.730374,8.54178036 -7.505057,7.3391599 10.353916,5.45811 c 1.397496,-1.32103 5.67514,-6.12292 5.850882,-6.32154 z"
         style="opacity:0.6;fill:#ffffff;fill-opacity:1;stroke:none" />
    </clipPath>
  </defs>
  <metadata
     id="metadata13099">
    <rdf:RDF>
      <cc:Work
         rdf:about="">
        <dc:format>image/svg+xml</dc:format>
        <dc:type
           rdf:resource="http://purl.org/dc/dcmitype/StillImage" />
        <dc:title />
      </cc:Work>
    </rdf:RDF>
  </metadata>
  <g
     id="g3043"
     inkscape:export-filename="folder.png"
     inkscape:export-xdpi="90"
     inkscape:export-ydpi="90"
     transform="translate(-0.62500009,0.082283)" />
  <g
     id="scalable"
     transform="matrix(1.0385892,0,0,1.0385892,1214.7222,1878.8121)"
     inkscape:label="#g3701"
     style="fill:#ffffff" />
  <g
     transform="translate(-4.4706248e-7,32)"
     inkscape:label="Layer 1"
     id="layer1">
    <g
       id="g12958"
       transform="matrix(0.97513378,0,0,0.97660611,33.898696,9.6573789)">
      <g
         id="g3272"
         transform="matrix(1.1353753,0,0,1.1336634,-287.72521,-34.636086)">
        <g
           transform="matrix(0.85217462,0,0,0.85217477,43.137701,-57.853554)"
           id="g4279">
          <g
             id="layer2-1"
             style="display:none">
            <rect
               width="86"
               height="85"
               rx="6"
               ry="6"
               x="5"
               y="7"
               id="rect3745-3"
               style="opacity:0.9;fill:url(#ButtonShadow-5);fill-opacity:1;fill-rule:nonzero;stroke:none;filter:url(#filter3174-5)" />
          </g>
        </g>
        <path
           style="display:inline;opacity:0.15;fill:#000000;fill-opacity:1;fill-rule:nonzero;stroke:none;stroke-width:0.90322596"
           d="m 303.31655,-7.0736894 h -74.32259 c -3.43122,0 -6.19355,2.7623216 -6.19355,6.19354711 V 73.442458 c 0,3.431225 2.76233,6.193549 6.19355,6.193549 h 74.32259 c 3.43122,0 6.19355,-2.762324 6.19355,-6.193549 V -0.88014229 c 0,-3.43122551 -2.76233,-6.19354711 -6.19355,-6.19354711 z"
           id="path3288"
           inkscape:connector-curvature="0" />
        <path
           inkscape:connector-curvature="0"
           id="path4085"
           d="m 302.7359,-6.3962699 h -73.1613 c -3.37761,0 -6.09677,2.71916 -6.09677,6.09677187 V 72.861812 c 0,3.377613 2.71916,6.096775 6.09677,6.096775 h 73.1613 c 3.37762,0 6.09678,-2.719162 6.09678,-6.096775 V -0.29949803 c 0,-3.37761187 -2.71916,-6.09677187 -6.09678,-6.09677187 z"
           style="display:inline;opacity:0.15;fill:#000000;fill-opacity:1;fill-rule:nonzero;stroke:none;stroke-width:0.90322596" />
        <path
           style="display:inline;fill:url(#linearGradient4071);fill-opacity:1;fill-rule:nonzero;stroke:none;stroke-width:0.90322596"
           d="m 302.15525,-5.7188504 h -72 c -3.324,0 -6,2.6760003 -6,5.99999843 V 72.281167 c 0,3.324002 2.676,6.000001 6,6.000001 h 72 c 3.324,0 6,-2.676001 6,-6.000001 V 0.28114803 c 0,-3.32399813 -2.676,-5.99999843 -6,-5.99999843 z"
           id="rect4251-1"
           inkscape:connector-curvature="0" />
        <path
           style="display:inline;opacity:0.98000004;fill:#16bd1c;fill-opacity:1;fill-rule:nonzero;stroke:none;stroke-width:0.93541652"
           d="m 232.95384,-1.3046567 c -2.58006,0 -4.62825,2.09163838 -4.62825,4.7264353 v 19.5851584 6.617007 36.482163 c 0.99106,1.539663 2.68154,2.569998 4.62825,2.569998 h 3.70259 59.24155 5.12019 c 1.94671,0 2.2196,0.03286 3.21065,-1.506799 V 29.623944 23.006937 3.4217786 c 0,-2.63479692 -2.04818,-4.7264353 -4.62824,-4.7264353 z"
           id="path3400-6"
           inkscape:connector-curvature="0"
           sodipodi:nodetypes="sscccsccscccsss" />
        <path
           inkscape:connector-curvature="0"
           id="path4989"
           d="m 231.67468,-2.8019182 c -2.81501,0 -5.11945,2.29375148 -5.11945,5.0996194 V 64.871388 c 0,2.805867 2.30444,5.099618 5.11945,5.099618 H 301.035 c 2.81502,0 5.11946,-2.293751 5.11946,-5.099618 V 2.2977012 c 0,-2.80586612 -2.30444,-5.0996194 -5.11946,-5.0996194 z m 0,2.09497853 H 301.035 c 1.70539,0 3.02764,1.33685938 3.02764,3.00464087 V 64.871388 c 0,1.667784 -1.32225,3.004638 -3.02764,3.004638 h -69.36032 c -1.70538,0 -3.02764,-1.336854 -3.02764,-3.004638 V 2.2977012 c 0,-1.66778149 1.32226,-3.00464087 3.02764,-3.00464087 z"
           style="color:#000000;font-style:normal;font-variant:normal;font-weight:normal;font-stretch:normal;font-size:medium;line-height:normal;font-family:Sans;-inkscape-font-specification:Sans;text-indent:0;text-align:start;text-decoration:none;text-decoration-line:none;letter-spacing:normal;word-spacing:normal;text-transform:none;writing-mode:lr-tb;direction:ltr;baseline-shift:baseline;text-anchor:start;display:inline;overflow:visible;visibility:visible;fill:#1f2224;fill-opacity:0.80869565;stroke:none;stroke-width:2.14561343;marker:none;enable-background:accumulate" />
        <path
           inkscape:connector-curvature="0"
           style="display:inline;opacity:0.65818182;fill:url(#linearGradient4129);fill-opacity:1;fill-rule:nonzero;stroke:none;stroke-width:0.90322596"
           d="m 224.15525,66.849714 v 5.419356 c 0,3.323999 2.6881,6.012098 6.0121,6.012098 h 71.97581 c 3.324,0 6.0121,-2.688099 6.0121,-6.012098 v -5.419356 c 0,3.323999 -2.6881,6.012098 -6.0121,6.012098 h -71.97581 c -3.324,0 -6.0121,-2.688099 -6.0121,-6.012098 z"
           id="path4118" />
        <rect
           style="opacity:0.55;fill:url(#radialGradient7462);fill-opacity:1;stroke:none;stroke-width:0.90322596"
           id="rect4131"
           width="76.096786"
           height="3.8387105"
           x="227.65524"
           y="65.410202"
           rx="0"
           ry="3.8387105" />
        <rect
           ry="3.8387101"
           rx="0"
           y="-304.16751"
           x="-2.0517535"
           height="3.8387101"
           width="69.322594"
           id="rect4141"
           style="opacity:0.669;fill:url(#radialGradient7464);fill-opacity:1;stroke:none;stroke-width:0.90322596"
           transform="rotate(90)" />
        <g
           transform="matrix(1.3301655,0,0,1.3301658,224.00321,-9.8563456)"
           id="g4153">
          <path
             sodipodi:nodetypes="cccccccccccccccccccccccc"
             inkscape:connector-curvature="0"
             id="path3832"
             d="m 19.000314,21.000342 -4e-4,17.999401 L 17,39 c -2,0 -2,0 -2,-2 l -2.9e-5,-8.000115 H 11.000028 L 11,40 c 0,2 1,3 3,3 l 4.999914,-3.14e-4 4e-4,3.000371 C 19,48 21,50 23.000257,50 H 43.000029 C 45,50 47,48 46.999972,46.000058 l -4e-4,-19.000172 H 33.999743 v 8.999886 h 3.999943 L 37.999886,39 H 28 l -2e-4,-15.000085 H 46.999572 V 17 l -23.999315,4e-4 C 21,17 19,19 19.000314,21.000342 Z"
             style="color:#000000;display:inline;overflow:visible;visibility:visible;fill:#e8eee5;fill-opacity:1;fill-rule:nonzero;stroke:none;stroke-width:2;marker:none;enable-background:accumulate" />
          <path
             inkscape:connector-curvature="0"
             id="path3810"
             d="m 47,18 v 6 H 28 v 15 h 1 V 25 h 19 v -7 z m 0,10 v 18 c 2.8e-5,1.999942 -2.000029,4 -4,4 H 23 C 22.249904,50 21.488302,49.707028 20.84375,49.25 21.611059,50.267834 22.792389,51 24,51 h 20 c 1.999971,0 4.000028,-2.000058 4,-4 V 28 Z m -32,2 v 7 c 0,1.581022 0.04326,1.899366 1.03125,1.96875 C 16.012863,38.706927 16,38.418978 16,38 v -8 z m 20,6 v 1 h 3 V 36 Z M 12.34375,42.65625 C 12.788887,43.542363 13.66875,44 15,44 h 4 v -1 h -5 c -0.66875,0 -1.211113,-0.120137 -1.65625,-0.34375 z"
             style="color:#000000;display:inline;overflow:visible;visibility:visible;fill:#000000;fill-opacity:0.13339221;fill-rule:nonzero;stroke:none;stroke-width:2.28571415;marker:none;enable-background:accumulate" />
          <path
             inkscape:connector-curvature="0"
             id="rect3005"
             d="m 23,17 c -2.000257,-4e-4 -4.000314,1.999658 -4,4 V 39 H 17 C 16.581022,39 16.293073,38.98714 16.03125,38.96875 16.10063,39.956743 16.418978,40 18,40 h 2 V 22 c -3.14e-4,-2.000342 1.999743,-4.0004 4,-4 h 23 v -1 z m 11,10 v 9 h 1 v -8 h 12 v -1 z m -23,2 v 11 c 0,1.33125 0.457637,2.211113 1.34375,2.65625 C 12.120137,42.211113 12,41.66875 12,41 V 30 h 3 v -1 z m 27,8 v 2 h -9 v 1 h 10 v -3 z m -19,7 v 2 c -1.9e-4,1.207421 0.732127,2.388902 1.75,3.15625 C 20.293001,48.511727 19.999882,47.749979 20,47 v -3 z"
             style="color:#000000;display:inline;overflow:visible;visibility:visible;fill:#ffffff;fill-opacity:0.51339285;fill-rule:nonzero;stroke:none;stroke-width:2.28571415;stroke-opacity:1;marker:none;enable-background:accumulate" />
        </g>
        <rect
           transform="matrix(0.96576985,0,0,0.94629444,226.67997,27.681531)"
           style="opacity:0.7;fill:url(#linearGradient4767);fill-opacity:1;stroke:none"
           id="rect4146"
           width="75.965775"
           height="69.024437"
           x="2"
           y="-30"
           rx="3.9569874"
           ry="3.9569881"
           clip-path="url(#clipPath4156-4-1)" />
      </g>
    </g>
  </g>
</svg>
