<?xml version="1.0" encoding="UTF-8" standalone="no"?>
<!-- Created with Inkscape (http://www.inkscape.org/) -->

<svg
   xmlns:dc="http://purl.org/dc/elements/1.1/"
   xmlns:cc="http://creativecommons.org/ns#"
   xmlns:rdf="http://www.w3.org/1999/02/22-rdf-syntax-ns#"
   xmlns:svg="http://www.w3.org/2000/svg"
   xmlns="http://www.w3.org/2000/svg"
   xmlns:xlink="http://www.w3.org/1999/xlink"
   xmlns:sodipodi="http://sodipodi.sourceforge.net/DTD/sodipodi-0.dtd"
   xmlns:inkscape="http://www.inkscape.org/namespaces/inkscape"
   width="96"
   height="96"
   id="svg5453"
   version="1.1"
   inkscape:version="0.91 r13725"
   sodipodi:docname="unity-webapps-reddit.svg">
  <defs
     id="defs5455">
    <linearGradient
       id="linearGradient4603">
      <stop
         id="stop4605"
         style="stop-color:#fcbcbc;stop-opacity:1"
         offset="0" />
      <stop
         id="stop4607"
         style="stop-color:#fff6f5;stop-opacity:1"
         offset="1" />
    </linearGradient>
    <linearGradient
       id="linearGradient4589">
      <stop
         offset="0"
         style="stop-color:#f63e3f;stop-opacity:1"
         id="stop4591" />
      <stop
         offset="1"
         style="stop-color:#fd4124;stop-opacity:1"
         id="stop4593" />
    </linearGradient>
    <linearGradient
       inkscape:collect="always"
       xlink:href="#linearGradient4589"
       id="linearGradient4554"
       x1="425.99179"
       y1="-547.79797"
       x2="425.99179"
       y2="-499.80319"
       gradientUnits="userSpaceOnUse" />
    <linearGradient
       y2="47.000011"
       x2="90"
       y1="47.000011"
       x1="6"
       gradientTransform="matrix(1.1071428,0,0,1.1071426,2.9011003,-18.701274)"
       gradientUnits="userSpaceOnUse"
       id="linearGradient7426"
       xlink:href="#linearGradient6139-0"
       inkscape:collect="always" />
    <linearGradient
       id="linearGradient6139-0">
      <stop
         id="stop6141-2"
         offset="0"
         style="stop-color:#c6cfd4;stop-opacity:1;" />
      <stop
         style="stop-color:#ffffff;stop-opacity:1;"
         offset="0.25"
         id="stop6151-0" />
      <stop
         style="stop-color:#b7c4c8;stop-opacity:1;"
         offset="0.5"
         id="stop6147-1" />
      <stop
         id="stop6149-4"
         offset="0.75"
         style="stop-color:#fbf9f9;stop-opacity:1;" />
      <stop
         id="stop6143-4"
         offset="1"
         style="stop-color:#cbd5d8;stop-opacity:1;" />
    </linearGradient>
    <radialGradient
       r="41"
       fy="6.2131939"
       fx="158"
       cy="6.2131939"
       cx="158"
       gradientTransform="matrix(0,1.6209438,-2.0382846,0,160.66427,-243.03657)"
       gradientUnits="userSpaceOnUse"
       id="radialGradient7428"
       xlink:href="#linearGradient3888-8-4-8-6"
       inkscape:collect="always" />
    <linearGradient
       inkscape:collect="always"
       id="linearGradient3888-8-4-8-6">
      <stop
         style="stop-color:#ffffff;stop-opacity:1;"
         offset="0"
         id="stop3890-4-7-9-7" />
      <stop
         style="stop-color:#ffffff;stop-opacity:0;"
         offset="1"
         id="stop3892-5-8-2-7" />
    </linearGradient>
    <radialGradient
       r="42"
       fy="-27"
       fx="48"
       cy="-27"
       cx="48"
       gradientTransform="matrix(-1.0721726,0,0,-0.87502024,199.46429,-19.125546)"
       gradientUnits="userSpaceOnUse"
       id="radialGradient7430"
       xlink:href="#linearGradient4091-0-3-0-7"
       inkscape:collect="always" />
    <linearGradient
       id="linearGradient4091-0-3-0-7">
      <stop
         style="stop-color:#ffffff;stop-opacity:1;"
         offset="0"
         id="stop4093-3-6-4-2" />
      <stop
         id="stop4099-6-1-8-3"
         offset="0.80000001"
         style="stop-color:#ffffff;stop-opacity:1;" />
      <stop
         style="stop-color:#ffffff;stop-opacity:0;"
         offset="1"
         id="stop4095-1-0-7-9" />
    </linearGradient>
    <clipPath
       id="clipPath4194-1-2-5">
      <rect
         width="84"
         height="84"
         rx="6"
         ry="6"
         x="6"
         y="6"
         id="rect4196-1-6-2"
         style="fill:#ff00ff;fill-opacity:1;fill-rule:nonzero;stroke:none" />
    </clipPath>
    <linearGradient
       y2="88.171875"
       x2="94.5"
       y1="88.171875"
       x1="1.5"
       gradientTransform="translate(8.0439564,-14.665561)"
       gradientUnits="userSpaceOnUse"
       id="linearGradient7460"
       xlink:href="#linearGradient3832-0-6-1-1"
       inkscape:collect="always" />
    <linearGradient
       id="linearGradient3832-0-6-1-1">
      <stop
         style="stop-color:#000000;stop-opacity:1;"
         offset="0"
         id="stop3834-6-3-7-1" />
      <stop
         id="stop3872-2-4"
         offset="0.1"
         style="stop-color:#000000;stop-opacity:0.58823532;" />
      <stop
         style="stop-color:#000000;stop-opacity:0.58823532;"
         offset="0.89999998"
         id="stop3844-6-2-7-6" />
      <stop
         style="stop-color:#000000;stop-opacity:1;"
         offset="1"
         id="stop3836-5-0-2-9" />
    </linearGradient>
    <radialGradient
       r="43.199203"
       fy="44.892841"
       fx="13.948145"
       cy="44.892841"
       cx="13.948145"
       gradientTransform="matrix(0.97513378,0,0,0.04919072,41.942652,65.501135)"
       gradientUnits="userSpaceOnUse"
       id="radialGradient7462"
       xlink:href="#linearGradient3888-8-4-8-6"
       inkscape:collect="always" />
    <radialGradient
       r="43.199203"
       fy="44.892841"
       fx="13.948145"
       cy="44.892841"
       cx="13.948145"
       gradientTransform="matrix(0.88832663,0,0,0.04919072,16.068931,-98.752262)"
       gradientUnits="userSpaceOnUse"
       id="radialGradient7464"
       xlink:href="#linearGradient3888-8-4-8-6"
       inkscape:collect="always" />
    <linearGradient
       y2="14.514202"
       x2="50.527882"
       y1="-28.64156"
       x1="2.7713892"
       gradientUnits="userSpaceOnUse"
       id="linearGradient7466"
       xlink:href="#linearGradient3888-8-4-8-6"
       inkscape:collect="always" />
    <clipPath
       clipPathUnits="userSpaceOnUse"
       id="clipPath4156-4">
      <path
         style="opacity:0.6;fill:#ffffff;fill-opacity:1;stroke:none"
         d="m 27.046336,-55.695463 -14.21366,13.321486 0.06127,0 15.653407,21.770763 10.231384,-10.546177 C 38.561832,-32.30156 27.468089,-54.819245 27.046336,-55.695463 Z M 9.6468554,-39.382809 -5.2407289,-25.32124 15.987863,-7.8059573 26.372412,-18.382966 9.6468554,-39.382809 Z m 31.4906096,12.951445 -9.741259,9.713584 8.944804,12.4580526 7.780753,-7.5550056 -6.984298,-14.616631 z m -49.8397109,4.378822 -13.7541661,12.9822847 26.2830181,13.84571 0.06127,-0.0617 -0.122531,-0.0617 L 13.598503,-5.4007374 -8.7022409,-22.052595 Z m 38.0154159,7.400825 -9.802525,9.7752596 11.579232,9.5594001 7.62759,-7.40083 -8.669108,-11.0087257 -0.735189,-0.925104 z m 20.187073,5.6739697 -7.382526,7.2158 6.187844,8.54179 5.820249,-6.13651996 -4.625567,-9.62107004 z m -32.195166,6.32154 -9.5574606,9.49772 13.6622686,7.1849703 7.933918,-7.6783603 -12.038726,-9.00433 z m 23.311629,2.37443004 -7.10683,6.93826996 8.362778,6.9074403 5.360756,-5.6739699 -0.06127,-0.0925 -0.0919,0.12335 -6.463539,-8.20258036 z m -8.730374,8.54178036 -7.505057,7.3391599 10.353916,5.45811 c 1.397496,-1.32103 5.67514,-6.12292 5.850882,-6.32154 L 31.886332,8.2600031 Z"
         id="path4158-0"
         inkscape:connector-curvature="0" />
    </clipPath>
    <linearGradient
       x1="7.9406605"
       y1="5.0990195"
       x2="7.9406605"
       y2="19.219381"
       id="linearGradient4057"
       xlink:href="#linearGradient4281-6-89"
       gradientUnits="userSpaceOnUse"
       gradientTransform="matrix(3.5300904,0,0,2.5495098,16,18)" />
    <linearGradient
       id="linearGradient4281-6-89">
      <stop
         id="stop4283-9-4"
         style="stop-color:#1e1e1e;stop-opacity:1"
         offset="0" />
      <stop
         id="stop4285-8-1"
         style="stop-color:#505050;stop-opacity:1"
         offset="1" />
    </linearGradient>
    <linearGradient
       x1="38"
       y1="28"
       x2="38"
       y2="68"
       id="linearGradient3156-2"
       xlink:href="#linearGradient4281-6-89"
       gradientUnits="userSpaceOnUse"
       gradientTransform="translate(-100,0)" />
    <linearGradient
       x1="45.447727"
       y1="92.539597"
       x2="45.447727"
       y2="7.0165396"
       id="ButtonShadow-4"
       gradientUnits="userSpaceOnUse"
       gradientTransform="scale(1.0058652,0.994169)">
      <stop
         id="stop3750-15"
         style="stop-color:#000000;stop-opacity:1"
         offset="0" />
      <stop
         id="stop3752-24"
         style="stop-color:#000000;stop-opacity:0.58823532"
         offset="1" />
    </linearGradient>
    <filter
       id="filter3174-80"
       style="color-interpolation-filters:sRGB">
      <feGaussianBlur
         id="feGaussianBlur3176-2"
         stdDeviation="1.71" />
    </filter>
    <linearGradient
       x1="48"
       y1="20.220806"
       x2="48"
       y2="138.66119"
       id="linearGradient3613-5"
       xlink:href="#linearGradient3888-8-4-8-6"
       gradientUnits="userSpaceOnUse" />
    <clipPath
       id="clipPath3613-61">
      <rect
         width="84"
         height="84"
         rx="6"
         ry="6"
         x="6"
         y="6"
         id="rect3615-83"
         style="fill:#ffffff;fill-opacity:1;fill-rule:nonzero;stroke:none" />
    </clipPath>
    <filter
       x="-0.192"
       y="-0.192"
       width="1.3839999"
       height="1.3839999"
       id="filter3794-5"
       style="color-interpolation-filters:sRGB">
      <feGaussianBlur
         id="feGaussianBlur3796-1"
         stdDeviation="5.28" />
    </filter>
    <linearGradient
       y2="68"
       x2="38"
       y1="28"
       x1="38"
       gradientTransform="translate(-90,0)"
       gradientUnits="userSpaceOnUse"
       id="linearGradient8062"
       xlink:href="#linearGradient4281-6-89"
       inkscape:collect="always" />
    <filter
       id="filter3174"
       style="color-interpolation-filters:sRGB">
      <feGaussianBlur
         id="feGaussianBlur3176"
         stdDeviation="1.71" />
    </filter>
    <clipPath
       id="clipPath3613">
      <rect
         width="84"
         height="84"
         rx="6"
         ry="6"
         x="6"
         y="6"
         id="rect3615"
         style="fill:#ffffff;fill-opacity:1;fill-rule:nonzero;stroke:none" />
    </clipPath>
    <filter
       x="-0.192"
       y="-0.192"
       width="1.3839999"
       height="1.3839999"
       id="filter3794"
       style="color-interpolation-filters:sRGB">
      <feGaussianBlur
         id="feGaussianBlur3796"
         stdDeviation="5.28" />
    </filter>
    <linearGradient
       x1="38"
       y1="36"
       x2="38"
       y2="68"
       id="linearGradient3935"
       xlink:href="#linearGradient4281-6-89"
       gradientUnits="userSpaceOnUse"
       gradientTransform="translate(4,-4)" />
    <linearGradient
       inkscape:collect="always"
       xlink:href="#linearGradient4589"
       id="linearGradient4601"
       x1="423.72748"
       y1="539.2243"
       x2="423.72748"
       y2="508.46518"
       gradientUnits="userSpaceOnUse"
       gradientTransform="matrix(1.6639265,0,0,1.6639265,-261.77191,-362.65012)" />
  </defs>
  <sodipodi:namedview
     id="base"
     pagecolor="#ffffff"
     bordercolor="#666666"
     borderopacity="1.0"
     inkscape:pageopacity="0"
     inkscape:pageshadow="2"
     inkscape:zoom="2.8284271"
     inkscape:cx="21.963464"
     inkscape:cy="64.370236"
     inkscape:document-units="px"
     inkscape:current-layer="g7008"
     showgrid="false"
     fit-margin-top="0"
     fit-margin-left="0"
     fit-margin-right="0"
     fit-margin-bottom="0"
     inkscape:window-width="1280"
     inkscape:window-height="971"
     inkscape:window-x="0"
     inkscape:window-y="27"
     inkscape:window-maximized="1"
     inkscape:showpageshadow="false"
     borderlayer="true"
     showguides="false">
    <inkscape:grid
       type="xygrid"
       id="grid3768"
       empspacing="5"
       visible="true"
       enabled="true"
       snapvisiblegridlinesonly="true" />
  </sodipodi:namedview>
  <metadata
     id="metadata5458">
    <rdf:RDF>
      <cc:Work
         rdf:about="">
        <dc:format>image/svg+xml</dc:format>
        <dc:type
           rdf:resource="http://purl.org/dc/dcmitype/StillImage" />
        <dc:title></dc:title>
      </cc:Work>
    </rdf:RDF>
  </metadata>
  <g
     inkscape:label="Capa 1"
     inkscape:groupmode="layer"
     id="layer1"
     transform="translate(-384.57143,-451.798)">
    <g
       transform="translate(384.57143,483.798)"
       inkscape:label="Layer 1"
       id="layer1-6">
      <g
         id="g7008"
         transform="translate(-8.0439584,-17.334439)">
        <rect
           y="-14.665561"
           x="8.0439568"
           height="2.5"
           width="96"
           id="rect3880"
           style="opacity:0.3122172;fill:#ffffff;fill-opacity:1;stroke:none" />
        <path
           inkscape:connector-curvature="0"
           id="path3288"
           d="m 97.186813,-14.665561 -82.285719,0 c -3.798848,0 -6.8571352,3.058285 -6.8571352,6.8571399 l 0,82.2857181 c 0,3.798857 3.0582872,6.857142 6.8571352,6.857142 l 82.285719,0 c 3.798857,0 6.857147,-3.058285 6.857147,-6.857142 l 0,-82.2857181 c 0,-3.7988549 -3.05829,-6.8571399 -6.857147,-6.8571399 z"
           style="display:inline;opacity:0.15;fill:#000000;fill-opacity:1;fill-rule:nonzero;stroke:none" />
        <path
           style="display:inline;opacity:0.15;fill:#000000;fill-opacity:1;fill-rule:nonzero;stroke:none"
           d="m 96.543957,-13.915561 -81.000007,0 c -3.739492,0 -6.749993,3.010499 -6.749993,6.7499969 l 0,81.0000031 c 0,3.739501 3.010501,6.75 6.749993,6.75 l 81.000007,0 c 3.739503,0 6.750003,-3.010499 6.750003,-6.75 l 0,-81.0000031 c 0,-3.7394979 -3.0105,-6.7499969 -6.750003,-6.7499969 z"
           id="path4085"
           inkscape:connector-curvature="0" />
        <path
           inkscape:connector-curvature="0"
           id="rect4251-1"
           d="m 95.901096,-13.165561 -79.714282,0 c -3.680143,0 -6.6428566,2.962713 -6.6428566,6.6428549 l 0,79.7142901 c 0,3.680142 2.9627136,6.642856 6.6428566,6.642856 l 79.714282,0 c 3.680143,0 6.642854,-2.962714 6.642854,-6.642856 l 0,-79.7142901 c 0,-3.6801419 -2.962711,-6.6428549 -6.642854,-6.6428549 z"
           style="display:inline;fill:url(#linearGradient7426);fill-opacity:1;fill-rule:nonzero;stroke:none" />
        <g
           transform="matrix(1.1071428,0,0,1.1071426,-107.81316,-18.147702)"
           id="g3272">
          <path
             style="display:inline;opacity:0.2;fill:url(#radialGradient7428);fill-opacity:1;fill-rule:nonzero;stroke:none"
             d="m 112,5.5 c -2.7873,0 -5,2.2127028 -5,5 l 0,20.71875 0,7 0,38.59375 c 1.07066,1.628779 2.89693,2.71875 5,2.71875 l 4,0 64,0 4,0 c 2.10307,0 3.92934,-1.089971 5,-2.71875 l 0,-38.59375 0,-7 L 189,10.5 c 0,-2.7872972 -2.2127,-5 -5,-5 z"
             id="path3400-6"
             inkscape:connector-curvature="0"
             sodipodi:nodetypes="sscccsccscccsss" />
          <path
             style="display:inline;opacity:0.45;fill:url(#radialGradient7430);fill-opacity:1;fill-rule:nonzero;stroke:none"
             d="m 112,4.5 c -3.324,0 -6,2.6759996 -6,6 l 0,15 1,0 0,-15 c 0,-2.7872972 2.2127,-5 5,-5 l 72,0 c 2.7873,0 5,2.2127028 5,5 l 0,15 1,0 0,-15 c 0,-3.3240004 -2.676,-6 -6,-6 l -72,0 z"
             id="path4236-5"
             inkscape:connector-curvature="0" />
          <g
             id="g3950"
             transform="matrix(1.1625754,0,0,1.1625757,-338.02733,-546.91314)">
            <path
               style="fill:#000000;fill-opacity:0.23529412"
               d="m 422.0169,483.9744 c -0.39501,0.15209 -1.58579,3.15213 -2.83136,7.13354 -1.1823,3.77901 -2.2318,7.11869 -2.33247,7.42277 -0.10052,0.30413 -1.19443,0.68126 -2.42965,0.83523 -4.56447,0.56895 -10.15899,2.1407 -13.29184,3.73738 l -3.22335,1.64447 -1.50638,-0.923 c -2.88911,-1.76713 -7.11729,-0.60453 -8.61719,2.36919 -1.23255,2.44363 -0.0768,6.99326 1.97613,7.78353 0.51367,0.19772 0.69638,1.02744 0.69974,3.14589 0.0137,8.02926 7.45373,14.87739 18.91567,17.41298 4.44354,0.98297 13.30516,0.85743 17.92438,-0.2535 7.58497,-1.82412 14.49341,-6.54151 16.90718,-11.54365 0.73941,-1.53229 1.09053,-3.11374 1.10793,-5.00486 0.0233,-2.55441 0.16023,-2.89866 1.77849,-4.52711 1.56832,-1.57828 1.74935,-2.01635 1.74935,-4.16962 0,-2.06518 -0.21497,-2.63976 -1.53229,-4.08188 -2.02381,-2.21538 -5.03582,-2.68591 -7.58052,-1.1797 l -1.68456,0.99771 -3.8259,-1.85568 c -4.14465,-2.00942 -8.73574,-3.28117 -11.88266,-3.29216 -1.09184,-0.006 -1.98582,-0.22175 -1.98582,-0.48425 0,-0.47467 3.22499,-10.74175 3.54729,-11.2934 0.14792,-0.25329 10.95822,2.17804 11.14079,2.50567 0.0386,0.0695 0.32218,0.71756 0.6317,1.43972 0.33642,0.78493 1.23784,1.5955 2.23852,2.01494 4.12002,1.72693 8.21692,-2.57979 6.20697,-6.52254 -1.41379,-2.77337 -4.94663,-3.54062 -7.23066,-1.56972 l -1.26989,1.09522 -6.45966,-1.5502 c -3.55298,-0.85249 -6.76501,-1.43131 -7.13994,-1.28697 z m -14.06932,24.68627 a 4.9759352,4.9918495 0 0 1 4.97594,4.99183 4.9759352,4.9918495 0 0 1 -4.97594,4.99186 4.9759352,4.9918495 0 0 1 -4.97596,-4.99186 4.9759352,4.9918495 0 0 1 4.97596,-4.99183 z m 20.22769,0 a 4.9759352,4.9918495 0 0 1 4.97593,4.99183 4.9759352,4.9918495 0 0 1 -4.97593,4.99186 4.9759352,4.9918495 0 0 1 -4.97593,-4.99186 4.9759352,4.9918495 0 0 1 4.97593,-4.99183 z m -0.22676,15.55077 c 0.54647,0.0624 0.80987,0.53197 0.80987,1.4072 0,3.0556 -9.02327,5.30795 -15.42021,3.85114 l 0,0.003 c -3.46387,-0.78886 -6.06442,-2.43439 -6.06442,-3.83488 0,-1.64761 1.23145,-1.77883 3.37236,-0.35751 4.64007,1.70256 10.32255,1.69641 14.80146,-0.0423 1.125,-0.74683 1.95445,-1.08932 2.50094,-1.02695 z"
               id="path4609"
               inkscape:connector-curvature="0" />
            <path
               inkscape:connector-curvature="0"
               id="path4587"
               d="m 422.0169,483.30883 c -0.39501,0.15208 -1.58579,3.15212 -2.83136,7.13353 -1.1823,3.77903 -2.2318,7.11871 -2.33247,7.42279 -0.10052,0.30411 -1.19443,0.68126 -2.42965,0.83521 -4.56447,0.56895 -10.15899,2.14072 -13.29184,3.73739 l -3.22335,1.64446 -1.50638,-0.92298 c -2.88911,-1.76715 -7.11729,-0.60455 -8.61719,2.36918 -1.23255,2.44364 -0.0768,6.99327 1.97613,7.78352 0.51367,0.19774 0.69638,1.02745 0.69974,3.1459 0.0137,8.02925 7.45373,14.87738 18.91567,17.41299 4.44354,0.98296 13.30516,0.85741 17.92438,-0.2535 7.58497,-1.82413 14.49341,-6.54151 16.90718,-11.54367 0.73941,-1.53228 1.09053,-3.11373 1.10793,-5.00485 0.0233,-2.55441 0.16023,-2.89865 1.77849,-4.52712 1.56832,-1.57827 1.74935,-2.01633 1.74935,-4.1696 0,-2.06518 -0.21497,-2.63978 -1.53229,-4.08188 -2.02381,-2.21539 -5.03582,-2.68591 -7.58052,-1.17971 l -1.68456,0.9977 -3.8259,-1.85568 c -4.14465,-2.00942 -8.73574,-3.28116 -11.88266,-3.29215 -1.09184,-0.006 -1.98582,-0.22175 -1.98582,-0.48424 0,-0.47468 3.22499,-10.74176 3.54729,-11.29342 0.14792,-0.25328 10.95822,2.17805 11.14079,2.50567 0.0386,0.0695 0.32218,0.71757 0.6317,1.43972 0.33642,0.78493 1.23784,1.5955 2.23852,2.01494 4.12002,1.72695 8.21692,-2.57977 6.20697,-6.52253 -1.41379,-2.77337 -4.94663,-3.54062 -7.23066,-1.56971 l -1.26989,1.0952 -6.45966,-1.5502 c -3.55298,-0.85247 -6.76501,-1.43131 -7.13994,-1.28696 z m -14.06932,24.68626 a 4.9759352,4.9918495 0 0 1 4.97594,4.99183 4.9759352,4.9918495 0 0 1 -4.97594,4.99187 4.9759352,4.9918495 0 0 1 -4.97596,-4.99187 4.9759352,4.9918495 0 0 1 4.97596,-4.99183 z m 20.22769,0 a 4.9759352,4.9918495 0 0 1 4.97593,4.99183 4.9759352,4.9918495 0 0 1 -4.97593,4.99187 4.9759352,4.9918495 0 0 1 -4.97593,-4.99187 4.9759352,4.9918495 0 0 1 4.97593,-4.99183 z m -0.22676,15.55079 c 0.54647,0.0624 0.80987,0.53197 0.80987,1.40719 0,3.05561 -9.02327,5.30796 -15.42021,3.85113 l 0,0.003 c -3.46387,-0.78885 -6.06442,-2.43437 -6.06442,-3.83487 0,-1.64762 1.23145,-1.77884 3.37236,-0.3575 4.64007,1.70256 10.32255,1.6964 14.80146,-0.0423 1.125,-0.74683 1.95445,-1.08931 2.50094,-1.02694 z"
               style="fill:url(#linearGradient4601);fill-opacity:1" />
            <path
               inkscape:connector-curvature="0"
               id="path4617"
               d="m 423.89764,485.85023 c -0.3223,0.55167 -3.5456,10.81857 -3.5456,11.29326 0,0.0872 0.12435,0.16622 0.29575,0.23724 0.68949,-2.48322 2.97428,-9.72639 3.24985,-10.19804 0.14792,-0.25328 10.96119,2.17802 11.14376,2.50563 0.0386,0.0696 0.32094,0.71754 0.63046,1.43969 0.33642,0.78494 1.23848,1.59547 2.23917,2.01491 3.6162,1.51578 7.21161,-1.61822 6.67845,-5.07303 -0.41526,2.86498 -3.5355,5.05799 -6.67845,3.74058 -1.00069,-0.41944 -1.90275,-1.22996 -2.23917,-2.0149 -0.30952,-0.72215 -0.59186,-1.37015 -0.63046,-1.4397 -0.18257,-0.32762 -10.99584,-2.75892 -11.14376,-2.50564 z m -15.95029,20.81533 a 4.9759352,4.9918495 0 0 0 -4.97553,4.99179 4.9759352,4.9918495 0 0 0 0.0487,0.66621 4.9759352,4.9918495 0 0 1 4.92679,-4.3288 4.9759352,4.9918495 0 0 1 4.92676,4.33205 4.9759352,4.9918495 0 0 0 0.0487,-0.66946 4.9759352,4.9918495 0 0 0 -4.97553,-4.99179 z m 20.22711,0 a 4.9759352,4.9918495 0 0 0 -4.97555,4.99179 4.9759352,4.9918495 0 0 0 0.0519,0.66946 4.9759352,4.9918495 0 0 1 4.92354,-4.33205 4.9759352,4.9918495 0 0 1 4.92678,4.3288 4.9759352,4.9918495 0 0 0 0.0487,-0.66621 4.9759352,4.9918495 0 0 0 -4.97552,-4.99179 z m -40.85395,0.71173 c -0.20357,2.41026 0.83603,5.31656 2.44064,5.93423 0.51367,0.19773 0.69536,1.02743 0.69872,3.14588 0.0137,8.02926 7.45547,14.8771 18.91741,17.41272 4.44354,0.98296 13.30372,0.85743 17.92295,-0.25349 7.58496,-1.82413 14.49522,-6.54134 16.909,-11.54348 0.73943,-1.5323 1.08757,-3.11368 1.10497,-5.00479 0.0233,-2.55441 0.16273,-2.89859 1.78091,-4.52706 1.56833,-1.57828 1.74842,-2.01629 1.74842,-4.16956 0,-0.25171 -0.018,-0.42528 -0.0259,-0.63697 -0.0584,1.52917 -0.35729,2.10353 -1.72242,3.47735 -1.61827,1.62845 -1.75763,1.97264 -1.78092,4.52706 -0.0175,1.89112 -0.36555,3.47248 -1.10496,5.00477 -2.41378,5.00214 -9.32405,9.71936 -16.90901,11.5435 -4.61922,1.11091 -13.47942,1.23643 -17.92295,0.25347 -11.46194,-2.5356 -18.9041,-9.38346 -18.91742,-17.41272 -0.003,-2.11845 -0.18503,-2.94815 -0.69871,-3.14588 -1.3153,-0.50629 -2.25404,-2.555 -2.44065,-4.60503 z m 40.62645,14.83884 c -0.54647,-0.0624 -1.37414,0.28012 -2.49915,1.02695 -4.4789,1.73868 -10.16301,1.74481 -14.80307,0.0423 -2.14092,-1.42132 -3.37011,-1.29013 -3.37011,0.3575 0,0.18854 0.0529,0.38048 0.14293,0.57522 0.36901,-0.86827 1.49206,-0.7554 3.22711,0.39648 4.64007,1.70256 10.32418,1.69642 14.80309,-0.0423 1.12499,-0.74684 1.95266,-1.08933 2.49915,-1.02697 0.35483,0.0405 0.57718,0.27305 0.69871,0.65647 0.0717,-0.1894 0.11388,-0.38161 0.11388,-0.57846 0,-0.87523 -0.26598,-1.34481 -0.81247,-1.4072 z"
               style="fill:#c90300;fill-opacity:1" />
          </g>
        </g>
        <path
           style="color:#000000;font-style:normal;font-variant:normal;font-weight:normal;font-stretch:normal;font-size:medium;line-height:normal;font-family:Sans;-inkscape-font-specification:Sans;text-indent:0;text-align:start;text-decoration:none;text-decoration-line:none;letter-spacing:normal;word-spacing:normal;text-transform:none;direction:ltr;block-progression:tb;writing-mode:lr-tb;baseline-shift:baseline;text-anchor:start;display:inline;overflow:visible;visibility:visible;fill:#241f1f;fill-opacity:0.63265303;stroke:none;stroke-width:2.3755002;marker:none;enable-background:accumulate"
           d="m 17.869037,-9.9361001 c -3.116621,0 -5.667965,2.53951 -5.667965,5.646004 l 0,69.2779961 c 0,3.106495 2.551344,5.646004 5.667965,5.646004 l 76.791785,0 c 3.116621,0 5.667968,-2.539509 5.667968,-5.646004 l 0,-69.2779961 c 0,-3.106493 -2.551347,-5.646004 -5.667968,-5.646004 l -76.791785,0 z m 0,2.319439 76.791785,0 c 1.888099,0 3.352022,1.480095 3.352022,3.326565 l 0,69.2779961 c 0,1.846474 -1.463923,3.326564 -3.352022,3.326564 l -76.791785,0 c -1.888099,0 -3.352022,-1.48009 -3.352022,-3.326564 l 0,-69.2779961 c 0,-1.84647 1.463923,-3.326565 3.352022,-3.326565 z"
           id="path4989"
           inkscape:connector-curvature="0" />
        <path
           id="path4118"
           d="m 9.5439564,67.178189 0,6 c 0,3.680142 2.9761066,6.65625 6.6562496,6.65625 l 79.6875,0 c 3.680143,0 6.656254,-2.976108 6.656254,-6.65625 l 0,-6 c 0,3.680142 -2.976111,6.65625 -6.656254,6.65625 l -79.6875,0 c -3.680143,0 -6.6562496,-2.976108 -6.6562496,-6.65625 z"
           style="display:inline;opacity:0.65818182;fill:url(#linearGradient7460);fill-opacity:1;fill-rule:nonzero;stroke:none"
           inkscape:connector-curvature="0" />
        <rect
           ry="4.25"
           rx="0"
           y="65.584442"
           x="13.418957"
           height="4.25"
           width="84.250008"
           id="rect4131"
           style="opacity:0.55;fill:url(#radialGradient7462);fill-opacity:1;stroke:none" />
        <rect
           transform="matrix(0,1,-1,0,0,0)"
           style="opacity:0.55;fill:url(#radialGradient7464);fill-opacity:1;stroke:none"
           id="rect4141"
           width="76.75"
           height="4.25"
           x="-9.9155607"
           y="-98.668961"
           rx="0"
           ry="4.25" />
        <path
           inkscape:connector-curvature="0"
           id="rect4190"
           d="m 17.816477,-8.0220611 c -1.993352,0 -3.604492,1.649341 -3.608803,3.684498 L 14.059457,65.623561 c 1.913686,2.521055 1.665283,2.410772 4.851514,2.679065 1.804215,-14.861054 36.499018,-73.3364721 77.418282,-73.3364721 0.488076,0 0.963271,0.01986 1.449204,0.02901 -0.302859,-1.718031 -1.751,-3.017226 -3.523555,-3.017226 z"
           style="opacity:0.3;fill:#ffffff;fill-opacity:1;stroke:none"
           sodipodi:nodetypes="ssccscss" />
        <rect
           clip-path="url(#clipPath4156-4)"
           ry="3.9569881"
           rx="3.9569874"
           y="-30"
           x="2"
           height="92"
           width="92"
           id="rect4146"
           style="fill:url(#linearGradient7466);fill-opacity:1;stroke:none"
           transform="matrix(0.90930469,0,0,0.92837735,12.389064,19.82926)" />
      </g>
    </g>
  </g>
</svg>
