<?xml version="1.0" encoding="UTF-8" standalone="no"?>
<!-- Created with Inkscape (http://www.inkscape.org/) -->

<svg
   xmlns:dc="http://purl.org/dc/elements/1.1/"
   xmlns:cc="http://creativecommons.org/ns#"
   xmlns:rdf="http://www.w3.org/1999/02/22-rdf-syntax-ns#"
   xmlns:svg="http://www.w3.org/2000/svg"
   xmlns="http://www.w3.org/2000/svg"
   xmlns:xlink="http://www.w3.org/1999/xlink"
   xmlns:sodipodi="http://sodipodi.sourceforge.net/DTD/sodipodi-0.dtd"
   xmlns:inkscape="http://www.inkscape.org/namespaces/inkscape"
   width="96"
   height="96"
   id="svg4252"
   version="1.1"
   inkscape:version="0.48.5 r10040"
   sodipodi:docname="xorg.svg">
  <defs
     id="defs4254">
    <linearGradient
       id="linearGradient4334">
      <stop
         style="stop-color:#f5f5f5;stop-opacity:1;"
         offset="0"
         id="stop4336" />
      <stop
         style="stop-color:#d2d2d2;stop-opacity:1;"
         offset="1"
         id="stop4338" />
    </linearGradient>
    <linearGradient
       id="linearGradient5063">
      <stop
         id="stop5065"
         offset="0"
         style="stop-color:#6b9ab0;stop-opacity:1;" />
      <stop
         id="stop5067"
         offset="1"
         style="stop-color:#466b7a;stop-opacity:1;" />
    </linearGradient>
    <linearGradient
       id="linearGradient5057">
      <stop
         style="stop-color:#ff830a;stop-opacity:1;"
         offset="0"
         id="stop5059" />
      <stop
         style="stop-color:#b55f0b;stop-opacity:1;"
         offset="1"
         id="stop5061" />
    </linearGradient>
    <linearGradient
       id="linearGradient5051">
      <stop
         id="stop5053"
         offset="0"
         style="stop-color:#c60aff;stop-opacity:1;" />
      <stop
         id="stop5055"
         offset="1"
         style="stop-color:#9b0bb5;stop-opacity:1;" />
    </linearGradient>
    <linearGradient
       id="linearGradient5045">
      <stop
         style="stop-color:#2fff0a;stop-opacity:1;"
         offset="0"
         id="stop5047" />
      <stop
         style="stop-color:#16b50b;stop-opacity:1;"
         offset="1"
         id="stop5049" />
    </linearGradient>
    <linearGradient
       id="linearGradient5039">
      <stop
         id="stop5041"
         offset="0"
         style="stop-color:#ff0a0a;stop-opacity:1;" />
      <stop
         id="stop5043"
         offset="1"
         style="stop-color:#c00000;stop-opacity:1;" />
    </linearGradient>
    <linearGradient
       id="linearGradient5029">
      <stop
         style="stop-color:#0a9aff;stop-opacity:1;"
         offset="0"
         id="stop5031" />
      <stop
         style="stop-color:#0070c0;stop-opacity:1;"
         offset="1"
         id="stop5033" />
    </linearGradient>
    <linearGradient
       y2="47.000011"
       x2="90"
       y1="47.000011"
       x1="6"
       gradientTransform="matrix(1.1071428,0,0,1.1071426,2.9011003,-18.701274)"
       gradientUnits="userSpaceOnUse"
       id="linearGradient3825"
       xlink:href="#linearGradient6139-0"
       inkscape:collect="always" />
    <linearGradient
       id="linearGradient6139-0">
      <stop
         id="stop6141-2"
         offset="0"
         style="stop-color:#adb4c1;stop-opacity:1;" />
      <stop
         style="stop-color:#ffffff;stop-opacity:1;"
         offset="0.25"
         id="stop6151-0" />
      <stop
         style="stop-color:#9095aa;stop-opacity:1;"
         offset="0.5"
         id="stop6147-1" />
      <stop
         id="stop6149-4"
         offset="0.75"
         style="stop-color:#fbf9f9;stop-opacity:1;" />
      <stop
         id="stop6143-4"
         offset="1"
         style="stop-color:#adb3c1;stop-opacity:1;" />
    </linearGradient>
    <radialGradient
       r="42"
       fy="-27"
       fx="48"
       cy="-27"
       cx="48"
       gradientTransform="matrix(-1.0721726,0,0,-0.87502024,199.46429,-19.125546)"
       gradientUnits="userSpaceOnUse"
       id="radialGradient3827"
       xlink:href="#linearGradient4091-0-3-0-7"
       inkscape:collect="always" />
    <linearGradient
       id="linearGradient4091-0-3-0-7">
      <stop
         style="stop-color:#ffffff;stop-opacity:1;"
         offset="0"
         id="stop4093-3-6-4-2" />
      <stop
         id="stop4099-6-1-8-3"
         offset="0.80000001"
         style="stop-color:#ffffff;stop-opacity:1;" />
      <stop
         style="stop-color:#ffffff;stop-opacity:0;"
         offset="1"
         id="stop4095-1-0-7-9" />
    </linearGradient>
    <linearGradient
       y2="88.171875"
       x2="94.5"
       y1="88.171875"
       x1="1.5"
       gradientTransform="translate(8.0439564,-14.665561)"
       gradientUnits="userSpaceOnUse"
       id="linearGradient3829"
       xlink:href="#linearGradient3832-0-6-1-1"
       inkscape:collect="always" />
    <linearGradient
       id="linearGradient3832-0-6-1-1">
      <stop
         style="stop-color:#000000;stop-opacity:1;"
         offset="0"
         id="stop3834-6-3-7-1" />
      <stop
         id="stop3872-2-4"
         offset="0.1"
         style="stop-color:#000000;stop-opacity:0.58823532;" />
      <stop
         style="stop-color:#000000;stop-opacity:0.58823532;"
         offset="0.89999998"
         id="stop3844-6-2-7-6" />
      <stop
         style="stop-color:#000000;stop-opacity:1;"
         offset="1"
         id="stop3836-5-0-2-9" />
    </linearGradient>
    <radialGradient
       r="43.199203"
       fy="44.892841"
       fx="13.948145"
       cy="44.892841"
       cx="13.948145"
       gradientTransform="matrix(0.97513378,0,0,0.04919072,-4.148257,101.31932)"
       gradientUnits="userSpaceOnUse"
       id="radialGradient3831"
       xlink:href="#linearGradient4133"
       inkscape:collect="always" />
    <linearGradient
       inkscape:collect="always"
       id="linearGradient4133">
      <stop
         style="stop-color:#ffffff;stop-opacity:1;"
         offset="0"
         id="stop4135" />
      <stop
         style="stop-color:#ffffff;stop-opacity:0;"
         offset="1"
         id="stop4137" />
    </linearGradient>
    <radialGradient
       r="43.199203"
       fy="44.892841"
       fx="13.948145"
       cy="44.892841"
       cx="13.948145"
       gradientTransform="matrix(0.88832663,0,0,0.04919072,51.887113,-52.752262)"
       gradientUnits="userSpaceOnUse"
       id="radialGradient3833"
       xlink:href="#linearGradient4133"
       inkscape:collect="always" />
    <linearGradient
       y2="7.0165396"
       x2="45.447727"
       y1="92.539597"
       x1="45.447727"
       gradientTransform="scale(1.0058652,0.994169)"
       gradientUnits="userSpaceOnUse"
       id="linearGradient3835"
       xlink:href="#ButtonShadow-1"
       inkscape:collect="always" />
    <linearGradient
       x1="45.447727"
       y1="92.539597"
       x2="45.447727"
       y2="7.0165396"
       id="ButtonShadow-1"
       gradientUnits="userSpaceOnUse"
       gradientTransform="scale(1.0058652,0.994169)">
      <stop
         id="stop3750-9"
         style="stop-color:#000000;stop-opacity:1"
         offset="0" />
      <stop
         id="stop3752-9"
         style="stop-color:#000000;stop-opacity:0.58823532"
         offset="1" />
    </linearGradient>
    <filter
       color-interpolation-filters="sRGB"
       id="filter3174-3">
      <feGaussianBlur
         id="feGaussianBlur3176-6"
         stdDeviation="1.71" />
    </filter>
    <linearGradient
       y2="14.514202"
       x2="50.527882"
       y1="-28.64156"
       x1="2.7713892"
       gradientUnits="userSpaceOnUse"
       id="linearGradient3837"
       xlink:href="#linearGradient4213-7"
       inkscape:collect="always" />
    <linearGradient
       inkscape:collect="always"
       id="linearGradient4213-7">
      <stop
         style="stop-color:#ffffff;stop-opacity:1;"
         offset="0"
         id="stop4215-6" />
      <stop
         style="stop-color:#ffffff;stop-opacity:0;"
         offset="1"
         id="stop4217-5" />
    </linearGradient>
    <clipPath
       clipPathUnits="userSpaceOnUse"
       id="clipPath4156-4">
      <path
         style="opacity:0.6;fill:#ffffff;fill-opacity:1;stroke:none"
         d="m 27.046336,-55.695463 -14.21366,13.321486 0.06127,0 15.653407,21.770763 10.231384,-10.546177 C 38.561832,-32.30156 27.468089,-54.819245 27.046336,-55.695463 z M 9.6468554,-39.382809 -5.2407289,-25.32124 15.987863,-7.8059573 26.372412,-18.382966 9.6468554,-39.382809 z m 31.4906096,12.951445 -9.741259,9.713584 8.944804,12.4580526 7.780753,-7.5550056 -6.984298,-14.616631 z m -49.8397109,4.378822 -13.7541661,12.9822847 26.2830181,13.84571 0.06127,-0.0617 -0.122531,-0.0617 L 13.598503,-5.4007374 -8.7022409,-22.052595 z m 38.0154159,7.400825 -9.802525,9.7752596 11.579232,9.5594001 7.62759,-7.40083 -8.669108,-11.0087257 -0.735189,-0.925104 z m 20.187073,5.6739697 -7.382526,7.2158 6.187844,8.54179 5.820249,-6.13651996 -4.625567,-9.62107004 z m -32.195166,6.32154 -9.5574606,9.49772 13.6622686,7.1849703 7.933918,-7.6783603 -12.038726,-9.00433 z m 23.311629,2.37443004 -7.10683,6.93826996 8.362778,6.9074403 5.360756,-5.6739699 -0.06127,-0.0925 -0.0919,0.12335 -6.463539,-8.20258036 z m -8.730374,8.54178036 -7.505057,7.3391599 10.353916,5.45811 c 1.397496,-1.32103 5.67514,-6.12292 5.850882,-6.32154 L 31.886332,8.2600031 z"
         id="path4158-0"
         inkscape:connector-curvature="0" />
    </clipPath>
    <linearGradient
       y2="14.514202"
       x2="50.527882"
       y1="-28.64156"
       x1="2.7713892"
       gradientUnits="userSpaceOnUse"
       id="linearGradient3837-7"
       xlink:href="#linearGradient4213-7-8"
       inkscape:collect="always" />
    <linearGradient
       inkscape:collect="always"
       id="linearGradient4213-7-8">
      <stop
         style="stop-color:#ffffff;stop-opacity:1;"
         offset="0"
         id="stop4215-6-5" />
      <stop
         style="stop-color:#ffffff;stop-opacity:0;"
         offset="1"
         id="stop4217-5-2" />
    </linearGradient>
    <clipPath
       clipPathUnits="userSpaceOnUse"
       id="clipPath4156-4-6">
      <path
         style="opacity:0.6;fill:#ffffff;fill-opacity:1;stroke:none"
         d="m 27.046336,-55.695463 -14.21366,13.321486 0.06127,0 15.653407,21.770763 10.231384,-10.546177 C 38.561832,-32.30156 27.468089,-54.819245 27.046336,-55.695463 z M 9.6468554,-39.382809 -5.2407289,-25.32124 15.987863,-7.8059573 26.372412,-18.382966 9.6468554,-39.382809 z m 31.4906096,12.951445 -9.741259,9.713584 8.944804,12.4580526 7.780753,-7.5550056 -6.984298,-14.616631 z m -49.8397109,4.378822 -13.7541661,12.9822847 26.2830181,13.84571 0.06127,-0.0617 -0.122531,-0.0617 L 13.598503,-5.4007374 -8.7022409,-22.052595 z m 38.0154159,7.400825 -9.802525,9.7752596 11.579232,9.5594001 7.62759,-7.40083 -8.669108,-11.0087257 -0.735189,-0.925104 z m 20.187073,5.6739697 -7.382526,7.2158 6.187844,8.54179 5.820249,-6.13651996 -4.625567,-9.62107004 z m -32.195166,6.32154 -9.5574606,9.49772 13.6622686,7.1849703 7.933918,-7.6783603 -12.038726,-9.00433 z m 23.311629,2.37443004 -7.10683,6.93826996 8.362778,6.9074403 5.360756,-5.6739699 -0.06127,-0.0925 -0.0919,0.12335 -6.463539,-8.20258036 z m -8.730374,8.54178036 -7.505057,7.3391599 10.353916,5.45811 c 1.397496,-1.32103 5.67514,-6.12292 5.850882,-6.32154 L 31.886332,8.2600031 z"
         id="path4158-0-3"
         inkscape:connector-curvature="0" />
    </clipPath>
    <linearGradient
       inkscape:collect="always"
       xlink:href="#linearGradient4213-7-8"
       id="linearGradient4967"
       gradientUnits="userSpaceOnUse"
       x1="2.7713892"
       y1="-28.64156"
       x2="50.527882"
       y2="14.514202" />
    <radialGradient
       r="43.199203"
       fy="44.892841"
       fx="13.948145"
       cy="44.892841"
       cx="13.948145"
       gradientTransform="matrix(0.88832663,0,0,0.04919072,29.382213,-89.635221)"
       gradientUnits="userSpaceOnUse"
       id="radialGradient3833-1"
       xlink:href="#linearGradient4133-5"
       inkscape:collect="always" />
    <linearGradient
       inkscape:collect="always"
       id="linearGradient4133-5">
      <stop
         style="stop-color:#ffffff;stop-opacity:1;"
         offset="0"
         id="stop4135-4" />
      <stop
         style="stop-color:#ffffff;stop-opacity:0;"
         offset="1"
         id="stop4137-5" />
    </linearGradient>
    <radialGradient
       r="43.199203"
       fy="44.892841"
       fx="13.948145"
       cy="44.892841"
       cx="13.948145"
       gradientTransform="matrix(0.97513378,0,0,0.04919072,-4.148257,101.31932)"
       gradientUnits="userSpaceOnUse"
       id="radialGradient3831-7"
       xlink:href="#linearGradient4133-5"
       inkscape:collect="always" />
    <radialGradient
       r="43.199203"
       fy="44.892841"
       fx="13.948145"
       cy="44.892841"
       cx="13.948145"
       gradientTransform="matrix(0.97513384,0,0,0.04919072,32.734694,78.81442)"
       gradientUnits="userSpaceOnUse"
       id="radialGradient4992"
       xlink:href="#linearGradient4133-5"
       inkscape:collect="always" />
    <radialGradient
       inkscape:collect="always"
       xlink:href="#linearGradient4334"
       id="radialGradient5037"
       cx="48"
       cy="46"
       fx="48"
       fy="46"
       r="42.423195"
       gradientTransform="matrix(1,0,0,0.91365451,0,3.9718926)"
       gradientUnits="userSpaceOnUse" />
    <linearGradient
       y2="1004.3314"
       x2="23.204165"
       y1="1052.3582"
       x1="23.204165"
       gradientUnits="userSpaceOnUse"
       id="linearGradient3064"
       xlink:href="#linearGradient3795"
       inkscape:collect="always"
       gradientTransform="translate(384.57143,-504.56417)" />
    <linearGradient
       id="linearGradient3795">
      <stop
         style="stop-color:#d9d9d9;stop-opacity:1"
         offset="0"
         id="stop3797" />
      <stop
         style="stop-color:#f3f3f3;stop-opacity:1"
         offset="1"
         id="stop3799" />
    </linearGradient>
  </defs>
  <sodipodi:namedview
     id="base"
     pagecolor="#ffffff"
     bordercolor="#666666"
     borderopacity="1.0"
     inkscape:pageopacity="0.0"
     inkscape:pageshadow="2"
     inkscape:zoom="1.9445436"
     inkscape:cx="-16.540063"
     inkscape:cy="32"
     inkscape:current-layer="layer7"
     showgrid="true"
     inkscape:document-units="px"
     inkscape:grid-bbox="true"
     inkscape:showpageshadow="false"
     inkscape:window-width="1280"
     inkscape:window-height="969"
     inkscape:window-x="0"
     inkscape:window-y="0"
     inkscape:window-maximized="1" />
  <metadata
     id="metadata4257">
    <rdf:RDF>
      <cc:Work
         rdf:about="">
        <dc:format>image/svg+xml</dc:format>
        <dc:type
           rdf:resource="http://purl.org/dc/dcmitype/StillImage" />
        <dc:title></dc:title>
      </cc:Work>
    </rdf:RDF>
  </metadata>
  <g
     id="layer1"
     inkscape:label="icona"
     inkscape:groupmode="layer"
     transform="translate(0,32)"
     sodipodi:insensitive="true">
    <g
       style="display:inline"
       transform="translate(-8.0439594,-17.334439)"
       id="g7390">
      <path
         style="opacity:0.15;fill:#000000;fill-opacity:1;fill-rule:nonzero;stroke:none;display:inline"
         d="m 97.186813,-14.665561 -82.285719,0 c -3.798848,0 -6.8571352,3.058285 -6.8571352,6.8571399 l 0,82.2857181 c 0,3.798857 3.0582872,6.857142 6.8571352,6.857142 l 82.285719,0 c 3.798857,0 6.857147,-3.058285 6.857147,-6.857142 l 0,-82.2857181 c 0,-3.7988549 -3.05829,-6.8571399 -6.857147,-6.8571399 z"
         id="path3288"
         inkscape:connector-curvature="0" />
      <path
         inkscape:connector-curvature="0"
         id="path4085"
         d="m 96.543957,-13.915561 -81.000007,0 c -3.739492,0 -6.749993,3.010499 -6.749993,6.7499969 l 0,81.0000031 c 0,3.739501 3.010501,6.75 6.749993,6.75 l 81.000007,0 c 3.739503,0 6.750003,-3.010499 6.750003,-6.75 l 0,-81.0000031 c 0,-3.7394979 -3.0105,-6.7499969 -6.750003,-6.7499969 z"
         style="opacity:0.15;fill:#000000;fill-opacity:1;fill-rule:nonzero;stroke:none;display:inline" />
      <path
         style="fill:url(#linearGradient3825);fill-opacity:1;fill-rule:nonzero;stroke:none;display:inline"
         d="m 95.901096,-13.165561 -79.714282,0 c -3.680143,0 -6.6428566,2.962713 -6.6428566,6.6428549 l 0,79.7142901 c 0,3.680142 2.9627136,6.642856 6.6428566,6.642856 l 79.714282,0 c 3.680143,0 6.642854,-2.962714 6.642854,-6.642856 l 0,-79.7142901 c 0,-3.6801419 -2.962711,-6.6428549 -6.642854,-6.6428549 z"
         id="rect4251-1"
         inkscape:connector-curvature="0" />
      <g
         id="g3272"
         transform="matrix(1.1071428,0,0,1.1071426,-107.81316,-18.147702)">
        <path
           inkscape:connector-curvature="0"
           id="path4236-5"
           d="m 112,4.5 c -3.324,0 -6,2.6759996 -6,6 l 0,15 1,0 0,-15 c 0,-2.7872972 2.2127,-5 5,-5 l 72,0 c 2.7873,0 5,2.2127028 5,5 l 0,15 1,0 0,-15 c 0,-3.3240004 -2.676,-6 -6,-6 l -72,0 z"
           style="opacity:0.45;fill:url(#radialGradient3827);fill-opacity:1;fill-rule:nonzero;stroke:none;display:inline" />
      </g>
      <path
         inkscape:connector-curvature="0"
         style="opacity:0.89090905;fill:url(#linearGradient3829);fill-opacity:1;fill-rule:nonzero;stroke:none;display:inline"
         d="m 9.5439564,67.178189 0,6 c 0,3.680142 2.9761066,6.65625 6.6562496,6.65625 l 79.6875,0 c 3.680143,0 6.656254,-2.976108 6.656254,-6.65625 l 0,-6 c 0,3.680142 -2.976111,6.65625 -6.656254,6.65625 l -79.6875,0 c -3.680143,0 -6.6562496,-2.976108 -6.6562496,-6.65625 z"
         id="path4118" />
      <g
         transform="translate(251.28797,-104.89729)"
         id="g4615">
        <g
           id="layer2-8"
           style="display:none">
          <rect
             width="86"
             height="85"
             rx="6"
             ry="6"
             x="5"
             y="7"
             id="rect3745-9"
             style="opacity:0.9;fill:url(#linearGradient3835);fill-opacity:1;fill-rule:nonzero;stroke:none;filter:url(#filter3174-3)" />
        </g>
      </g>
    </g>
  </g>
  <g
     inkscape:groupmode="layer"
     id="layer7"
     inkscape:label="colori"
     style="display:inline">
    <rect
       ry="4.25"
       y="7.2398567"
       x="5.5768051"
       height="77.520287"
       width="84.84639"
       id="rect4301"
       style="fill:url(#radialGradient5037);fill-opacity:1.0;stroke:none;display:inline" />
    <path
       inkscape:connector-curvature="0"
       id="path4989"
       d="m 9.6041045,5.7149979 c -3.116621,0 -5.667965,2.5395101 -5.667965,5.6460041 l 0,69.277996 c 0,3.106495 2.551344,5.646004 5.667965,5.646004 l 76.7917855,0 c 3.116621,0 5.66797,-2.539509 5.66797,-5.646004 l 0,-69.277996 c 0,-3.106493 -2.55135,-5.6460041 -5.66797,-5.6460041 l -76.7917855,0 z m 0,2.3194391 76.7917855,0 c 1.888101,0 3.352021,1.480095 3.352021,3.326565 l 0,69.277996 c 0,1.846474 -1.46392,3.326564 -3.352021,3.326564 l -76.7917855,0 c -1.888099,0 -3.352022,-1.48009 -3.352022,-3.326564 l 0,-69.277996 c 0,-1.84647 1.463923,-3.326565 3.352022,-3.326565 z"
       style="font-size:medium;font-style:normal;font-variant:normal;font-weight:normal;font-stretch:normal;text-indent:0;text-align:start;text-decoration:none;line-height:normal;letter-spacing:normal;word-spacing:normal;text-transform:none;direction:ltr;block-progression:tb;writing-mode:lr-tb;text-anchor:start;baseline-shift:baseline;color:#000000;fill:#241f1f;fill-opacity:0.63265303;stroke:none;stroke-width:2.3755002;marker:none;visibility:visible;display:inline;overflow:visible;enable-background:accumulate;font-family:Sans;-inkscape-font-specification:Sans" />
  </g>
  <g
     inkscape:groupmode="layer"
     id="layer5"
     inkscape:label="simboli"
     sodipodi:insensitive="true">
    <g
       transform="translate(-435.82718,-461.73913)"
       id="layer1-9"
       inkscape:label="Capa 1">
      <g
         transform="matrix(1.8999431,0,0,1.8999431,-292.43529,-488.98429)"
         id="g4238">
        <path
           style="fill:#000000;fill-opacity:0.05882353"
           d="m 407.35267,509.59777 -11.76762,6.65609 5.68752,3.21475 6.0801,-3.43156 0,-6.43929 z m 2.44728,0 0,6.43928 6.07425,3.44133 5.68751,-3.21475 -11.76176,-6.66585 z m -1.22657,7.67559 -6.82229,3.85928 -0.002,7.72442 6.81838,3.86317 6.8223,-3.85928 0.004,-7.72245 -6.82034,-3.86514 z m -14.21295,1.06246 -0.004,13.31412 5.68752,-3.21477 0,-6.88459 -5.68362,-3.21476 z m 28.4259,0.01 -5.68752,3.21476 0,6.88459 5.68362,3.21476 0.004,-13.31411 z m -21.51767,12.1657 -5.68752,3.21867 11.76567,6.66781 0,-6.4393 -6.07815,-3.44718 z m 14.59968,0.01 -6.07229,3.43155 0,6.4393 11.76176,-6.65216 -5.68947,-3.21867 z"
           id="path4274"
           inkscape:connector-curvature="0" />
        <path
           inkscape:connector-curvature="0"
           id="path4272"
           d="m 407.35267,509.19777 -11.76762,6.65609 5.68752,3.21475 6.0801,-3.43156 0,-6.43929 z m 2.44728,0 0,6.43928 6.07425,3.44133 5.68751,-3.21475 -11.76176,-6.66585 z m -1.22657,7.67559 -6.82229,3.85928 -0.002,7.72442 6.81838,3.86317 6.8223,-3.85928 0.004,-7.72245 -6.82034,-3.86514 z m -14.21295,1.06246 -0.004,13.31412 5.68752,-3.21477 0,-6.88459 -5.68362,-3.21476 z m 28.4259,0.01 -5.68752,3.21476 0,6.88459 5.68362,3.21476 0.004,-13.31411 z m -21.51767,12.1657 -5.68752,3.21867 11.76567,6.66781 0,-6.4393 -6.07815,-3.44718 z m 14.59968,0.01 -6.07229,3.43155 0,6.4393 11.76176,-6.65216 -5.68947,-3.21867 z"
           style="fill:#000000;fill-opacity:0.11764706" />
        <path
           style="fill:#000000;fill-opacity:0.23529412"
           d="m 407.35267,508.79777 -11.76762,6.65609 5.68752,3.21475 6.0801,-3.43156 0,-6.43929 z m 2.44728,0 0,6.43928 6.07425,3.44133 5.68751,-3.21475 -11.76176,-6.66585 z m -1.22657,7.67559 -6.82229,3.85928 -0.002,7.72442 6.81838,3.86317 6.8223,-3.85928 0.004,-7.72245 -6.82034,-3.86514 z m -14.21295,1.06246 -0.004,13.31412 5.68752,-3.21477 0,-6.88459 -5.68362,-3.21476 z m 28.4259,0.01 -5.68752,3.21476 0,6.88459 5.68362,3.21476 0.004,-13.31411 z m -21.51767,12.1657 -5.68752,3.21867 11.76567,6.66781 0,-6.4393 -6.07815,-3.44718 z m 14.59968,0.01 -6.07229,3.43155 0,6.4393 11.76176,-6.65216 -5.68947,-3.21867 z"
           id="path4248"
           inkscape:connector-curvature="0" />
        <g
           id="g3836"
           transform="matrix(3.0081419,0,0,2.9655954,346.59696,503.71104)">
          <path
             id="path3834"
             d="m 20.196803,1.5804437 -3.911406,2.2446471 1.890868,1.0839605 2.020538,-1.1574217 0,-2.1711859 z"
             style="fill:#3795bd;fill-opacity:1"
             inkscape:connector-curvature="0" />
          <path
             id="path3832"
             d="m 21.010926,1.5804437 0,2.1711859 2.018896,1.1606866 1.890868,-1.0839605 -3.909764,-2.247912 z"
             style="fill:#8fb635;fill-opacity:1"
             inkscape:connector-curvature="0" />
          <path
             id="path3830"
             d="m 15.878335,4.5270532 -0.0016,4.4892939 1.890868,-1.08396 0,-2.3213735 -1.889227,-1.0839604 z"
             style="fill:#3840be;fill-opacity:1"
             inkscape:connector-curvature="0" />
          <path
             id="path3828"
             d="m 25.327752,4.5303132 -1.890869,1.0839604 0,2.3213736 1.889227,1.0839605 0.0016,-4.4892945 z"
             style="fill:#d18c3b;fill-opacity:1"
             inkscape:connector-curvature="0" />
          <path
             id="path3826"
             d="m 18.174624,8.632712 -1.890868,1.0855932 3.911405,2.2479118 0,-2.1711858 -2.020537,-1.1623192 z"
             style="fill:#ba3a83;fill-opacity:1"
             inkscape:connector-curvature="0" />
          <path
             id="path3025"
             d="m 23.02818,8.635982 -2.018895,1.1574218 0,2.1711862 L 24.919048,9.7215762 23.02818,8.635983 z"
             style="fill:#a02c34;fill-opacity:1"
             inkscape:connector-curvature="0" />
          <path
             inkscape:connector-curvature="0"
             d="M 22.870031,5.4720502 22.869033,8.0763628 20.601152,9.3776591 18.33427,8.074643 18.335268,5.4703305 20.603149,4.1690341 z"
             id="path3029"
             style="fill:#f8c300;fill-opacity:1" />
        </g>
        <path
           inkscape:connector-curvature="0"
           style="fill:#29677b;fill-opacity:0.31372549"
           d="m 407.35268,514.03628 -6.07812,3.43164 -4.98047,-2.81445 -0.70899,0.40039 5.68946,3.21484 6.07812,-3.43164 0,-0.80078 z"
           id="path4342" />
        <path
           inkscape:connector-curvature="0"
           style="fill:#627828;fill-opacity:0.31372549"
           d="m 409.79995,514.03628 0,0.80078 6.07421,3.44141 5.6875,-3.21485 -0.70703,-0.40039 -4.98047,2.81446 -6.07421,-3.44141 z"
           id="path4340" />
        <path
           inkscape:connector-curvature="0"
           style="fill:#24297b;fill-opacity:0.31372549"
           d="m 400.04409,526.43472 -5.6875,3.21484 0,0.80078 5.6875,-3.21484 0,-0.80078 z"
           id="path4338" />
        <path
           inkscape:connector-curvature="0"
           style="fill:#7e521e;fill-opacity:0.31372549"
           d="m 417.09877,526.44448 0,0.80079 5.6836,3.21484 0,-0.80078 -5.6836,-3.21485 z"
           id="path4336" />
        <path
           inkscape:connector-curvature="0"
           style="fill:#9a7900;fill-opacity:0.31372549"
           d="m 401.74916,526.85659 0,0.80078 6.81836,3.86329 6.82227,-3.85743 0,-0.80078 -6.82227,3.85742 -6.81836,-3.86328 z"
           id="path4334" />
        <path
           inkscape:connector-curvature="0"
           style="fill:#6d224d;fill-opacity:0.31372549"
           d="m 396.28823,532.13198 -0.70703,0.40039 11.76562,6.66602 0,-0.80078 -11.05859,-6.26563 z"
           id="path4332" />
        <path
           inkscape:connector-curvature="0"
           style="fill:#441316;fill-opacity:0.31372549"
           d="m 420.85073,532.14175 -11.05469,6.25 0,0.80078 11.76172,-6.65039 -0.70703,-0.40039 z"
           id="path4278" />
        <path
           inkscape:connector-curvature="0"
           style="fill:#ffffff;fill-opacity:0.23529412"
           d="M 22.78125,8.5996094 11.013672,15.255859 11.367188,15.455078 22.78125,9 l 0,-0.4003906 z m 2.447266,0 0,0.4003906 11.408203,6.464844 0.353515,-0.199219 -11.761718,-6.6660156 z m -1.226563,7.6777346 -6.822265,3.859375 0,0.40039 6.822265,-3.859375 6.820313,3.863282 0,-0.400391 -6.820313,-3.863281 z m -14.2128905,1.060547 0,0.40039 5.6835935,3.214844 0,-0.400391 -5.6835935,-3.214843 z m 28.4257815,0.0098 -5.6875,3.214844 0,0.400391 5.6875,-3.214844 0,-0.400391 z m -21.517578,12.166016 -5.6875,3.220703 0.353515,0.201172 5.333985,-3.021485 6.078125,3.447266 0,-0.40039 -6.078125,-3.447266 z m 14.599609,0.0098 -6.072266,3.433593 0,0.400391 6.072266,-3.433594 5.335937,3.019531 0.353516,-0.199218 -5.689453,-3.220703 z"
           transform="translate(384.57143,499.798)"
           id="path4305" />
      </g>
    </g>
  </g>
  <g
     inkscape:groupmode="layer"
     id="layer4"
     inkscape:label="luci-superiori"
     sodipodi:insensitive="true">
    <g
       id="g4963"
       transform="matrix(1.0076012,0,0,1.014293,-1.0512372,0.60533708)">
      <path
         inkscape:connector-curvature="0"
         id="rect4190"
         d="m 10.49504,6.668839 c -1.9933517,0 -3.6044917,1.649341 -3.6088027,3.684498 l -0.148217,69.961124 c 1.913686,2.521055 1.665283,2.410772 4.8515137,2.679065 C 13.393749,68.132472 48.088552,9.657054 89.00782,9.657054 c 0.48807,0 0.96327,0.01986 1.4492,0.02901 -0.30286,-1.718031 -1.751,-3.017226 -3.52355,-3.017226 z"
         style="opacity:0.3;fill:#ffffff;fill-opacity:1;stroke:none;display:inline"
         sodipodi:nodetypes="ssccscss" />
      <rect
         clip-path="url(#clipPath4156-4-6)"
         ry="3.9569881"
         rx="3.9569874"
         y="-30"
         x="2"
         height="92"
         width="92"
         id="rect4146"
         style="fill:url(#linearGradient4967);fill-opacity:1;stroke:none;display:inline"
         transform="matrix(0.90930469,0,0,0.92837735,5.0676273,34.52016)" />
    </g>
    <rect
       style="opacity:0.55;fill:url(#radialGradient4992);fill-opacity:1;stroke:none;display:inline"
       id="rect4131"
       width="84.250008"
       height="4.25"
       x="4.211"
       y="78.897736"
       rx="0"
       ry="4.25" />
    <rect
       ry="4.25"
       rx="0"
       y="-89.551903"
       x="3.3977196"
       height="4.25"
       width="76.75"
       id="rect4141"
       style="opacity:0.55;fill:url(#radialGradient3833-1);fill-opacity:1;stroke:none;display:inline"
       transform="matrix(0,1,-1,0,0,0)" />
  </g>
</svg>
