<?xml version="1.0" encoding="UTF-8" standalone="no"?>
<!-- Created with Inkscape (http://www.inkscape.org/) -->

<svg
   xmlns:dc="http://purl.org/dc/elements/1.1/"
   xmlns:cc="http://creativecommons.org/ns#"
   xmlns:rdf="http://www.w3.org/1999/02/22-rdf-syntax-ns#"
   xmlns:svg="http://www.w3.org/2000/svg"
   xmlns="http://www.w3.org/2000/svg"
   xmlns:xlink="http://www.w3.org/1999/xlink"
   xmlns:sodipodi="http://sodipodi.sourceforge.net/DTD/sodipodi-0.dtd"
   xmlns:inkscape="http://www.inkscape.org/namespaces/inkscape"
   width="96"
   height="96"
   viewBox="0 0 96.000001 96.000004"
   version="1.1"
   id="svg1072"
   inkscape:version="0.92.2 2405546, 2018-03-11"
   sodipodi:docname="wallpaper-tiled.svg">
  <defs
     id="defs1066">
    <linearGradient
       id="linearGradient6139-0">
      <stop
         style="stop-color:#b2babc;stop-opacity:1"
         offset="0"
         id="stop6141-2" />
      <stop
         id="stop6151-0"
         offset="0.25"
         style="stop-color:#ffffff;stop-opacity:1;" />
      <stop
         id="stop6147-1"
         offset="0.5"
         style="stop-color:#96a1a4;stop-opacity:1" />
      <stop
         style="stop-color:#fbf9f9;stop-opacity:1;"
         offset="0.75"
         id="stop6149-4" />
      <stop
         style="stop-color:#b2b9bc;stop-opacity:1"
         offset="1"
         id="stop6143-4" />
    </linearGradient>
    <linearGradient
       id="linearGradient3832-0-6-1-1">
      <stop
         id="stop3834-6-3-7-1"
         offset="0"
         style="stop-color:#000000;stop-opacity:1;" />
      <stop
         style="stop-color:#000000;stop-opacity:0.58823532;"
         offset="0.1"
         id="stop3872-2-4" />
      <stop
         id="stop3844-6-2-7-6"
         offset="0.89999998"
         style="stop-color:#000000;stop-opacity:0.58823532;" />
      <stop
         id="stop3836-5-0-2-9"
         offset="1"
         style="stop-color:#000000;stop-opacity:1;" />
    </linearGradient>
    <linearGradient
       id="linearGradient3737">
      <stop
         id="stop3739"
         style="stop-color:#ffffff;stop-opacity:1"
         offset="0" />
      <stop
         id="stop3741"
         style="stop-color:#ffffff;stop-opacity:0"
         offset="1" />
    </linearGradient>
    <clipPath
       clipPathUnits="userSpaceOnUse"
       id="clipPath4156-4-1">
      <path
         style="opacity:0.6;fill:#ffffff;fill-opacity:1;stroke:none"
         d="m 27.046336,-55.695463 -14.21366,13.321486 h 0.06127 l 15.653407,21.770763 10.231384,-10.546177 C 38.561832,-32.30156 27.468089,-54.819245 27.046336,-55.695463 Z M 9.6468554,-39.382809 -5.2407289,-25.32124 15.987863,-7.8059573 26.372412,-18.382966 Z m 31.4906096,12.951445 -9.741259,9.713584 8.944804,12.4580526 7.780753,-7.5550056 z m -49.8397109,4.378822 -13.7541661,12.9822847 26.2830181,13.84571 0.06127,-0.0617 -0.122531,-0.0617 L 13.598503,-5.4007374 -8.7022409,-22.052595 Z m 38.0154159,7.400825 -9.802525,9.7752596 11.579232,9.5594001 7.62759,-7.40083 -8.669108,-11.0087257 z m 20.187073,5.6739697 -7.382526,7.2158 6.187844,8.54179 5.820249,-6.13651996 z m -32.195166,6.32154 -9.5574606,9.49772 13.6622686,7.1849703 7.933918,-7.6783603 z m 23.311629,2.37443004 -7.10683,6.93826996 8.362778,6.9074403 5.360756,-5.6739699 -0.06127,-0.0925 -0.0919,0.12335 -6.463539,-8.20258036 z m -8.730374,8.54178036 -7.505057,7.3391599 10.353916,5.45811 c 1.397496,-1.32103 5.67514,-6.12292 5.850882,-6.32154 z"
         id="path4158-0-8"
         inkscape:connector-curvature="0" />
    </clipPath>
    <linearGradient
       gradientUnits="userSpaceOnUse"
       y2="7.0165396"
       x2="45.447727"
       y1="92.539597"
       x1="45.447727"
       gradientTransform="scale(1.0058652,0.994169)"
       id="ButtonShadow-16">
      <stop
         id="stop3750-6"
         offset="0"
         style="stop-color:#000000;stop-opacity:1;" />
      <stop
         id="stop3752-4"
         offset="1"
         style="stop-color:#000000;stop-opacity:0.58823532;" />
    </linearGradient>
    <clipPath
       id="clipPath4355-7"
       clipPathUnits="userSpaceOnUse">
      <rect
         ry="6"
         rx="6"
         y="6"
         x="6"
         height="80"
         width="84"
         id="rect4357-5"
         style="fill:#ffffff;fill-opacity:1;fill-rule:nonzero;stroke:none" />
    </clipPath>
    <clipPath
       id="clipPath4355-9"
       clipPathUnits="userSpaceOnUse">
      <rect
         ry="6"
         rx="6"
         y="6"
         x="6"
         height="80"
         width="84"
         id="rect4357-1"
         style="fill:#ffffff;fill-opacity:1;fill-rule:nonzero;stroke:none" />
    </clipPath>
    <clipPath
       id="clipPath4355-1"
       clipPathUnits="userSpaceOnUse">
      <rect
         ry="6"
         rx="6"
         y="6"
         x="6"
         height="80"
         width="84"
         id="rect4357-9"
         style="fill:#ffffff;fill-opacity:1;fill-rule:nonzero;stroke:none" />
    </clipPath>
    <clipPath
       id="clipPath3943-52-0"
       clipPathUnits="userSpaceOnUse">
      <path
         inkscape:connector-curvature="0"
         style="color:#000000;display:inline;overflow:visible;visibility:visible;opacity:0.8;fill:#ff00ff;fill-opacity:1;fill-rule:nonzero;stroke:none;stroke-width:1;marker:none;enable-background:accumulate"
         d="m 69.78125,20.84375 -5,3.4375 c 5.586891,5.537137 9,13.327613 9,21.8125 0,8.434478 -3.37723,16.095981 -8.90625,21.625 l 5,3.4375 C 76.078226,64.5762 80,55.843726 80,46.09375 c 2e-6,-9.796556 -3.962955,-18.660417 -10.21875,-25.25 z M 40,24.0625 28.90625,36.21875 H 21.5 c -0.823281,0 -1.5,0.676717 -1.5,1.5 v 1 14.84375 1 c 0,0.823281 0.684121,1.610161 1.5,1.5 h 7.40625 L 40,68 V 66 26.0625 Z m 20.59375,3.28125 -5,3.4375 L 55.5,30.875 c 3.93815,3.890071 6.40625,9.25018 6.40625,15.21875 0,5.920869 -2.42961,11.148358 -6.3125,15.03125 l 0.09375,0.09375 5.09375,3.4375 c 4.475428,-4.908367 7.25,-11.402005 7.25,-18.5625 0,-7.230696 -2.87904,-13.83107 -7.4375,-18.75 z m -9.25,6.5 -5.21875,3.625 c 2.222384,2.217802 3.71875,5.239596 3.71875,8.625 0,3.336509 -1.458847,6.227712 -3.625,8.4375 l 5.21875,3.625 c 2.822412,-3.236947 4.53125,-7.43414 4.53125,-12.0625 0,-4.672601 -1.754155,-9.001351 -4.625,-12.25 z"
         id="path3945-4-1" />
    </clipPath>
    <linearGradient
       inkscape:collect="always"
       xlink:href="#linearGradient6139-0-7"
       id="linearGradient4071"
       gradientUnits="userSpaceOnUse"
       gradientTransform="matrix(1.1013764,0,0,1.1013762,-4.967117,-3.0996212)"
       x1="6"
       y1="47.000011"
       x2="90"
       y2="47.000011" />
    <linearGradient
       id="linearGradient6139-0-7">
      <stop
         id="stop6141-2-5"
         offset="0"
         style="stop-color:#b2b7bc;stop-opacity:1" />
      <stop
         style="stop-color:#ffffff;stop-opacity:1;"
         offset="0.25"
         id="stop6151-0-3" />
      <stop
         style="stop-color:#969fa4;stop-opacity:1"
         offset="0.5"
         id="stop6147-1-5" />
      <stop
         id="stop6149-4-6"
         offset="0.75"
         style="stop-color:#f9fafb;stop-opacity:1" />
      <stop
         id="stop6143-4-2"
         offset="1"
         style="stop-color:#b2b9bc;stop-opacity:1" />
    </linearGradient>
    <linearGradient
       gradientTransform="matrix(0.99479164,0,0,0.99479167,0.1489533,0.91507252)"
       inkscape:collect="always"
       xlink:href="#linearGradient3832-0-6-1-1"
       id="linearGradient4129"
       x1="1.5"
       y1="88.171875"
       x2="94.5"
       y2="88.171875"
       gradientUnits="userSpaceOnUse" />
    <radialGradient
       inkscape:collect="always"
       xlink:href="#linearGradient3737"
       id="radialGradient7462"
       gradientUnits="userSpaceOnUse"
       gradientTransform="matrix(0.97005493,0,0,0.04893452,33.871092,80.664234)"
       cx="13.948145"
       cy="44.892841"
       fx="13.948145"
       fy="44.892841"
       r="43.199203" />
    <radialGradient
       inkscape:collect="always"
       xlink:href="#linearGradient3737"
       id="radialGradient7464"
       gradientUnits="userSpaceOnUse"
       gradientTransform="matrix(0.88369993,0,0,0.04893452,32.29527,-89.847631)"
       cx="13.948145"
       cy="44.892841"
       fx="13.948145"
       fy="44.892841"
       r="43.199203" />
    <linearGradient
       inkscape:collect="always"
       xlink:href="#linearGradient3737"
       id="linearGradient4767"
       gradientUnits="userSpaceOnUse"
       x1="2.7713892"
       y1="-28.64156"
       x2="50.527882"
       y2="14.514202" />
    <clipPath
       id="clipPath4156-4-1-3"
       clipPathUnits="userSpaceOnUse">
      <path
         inkscape:connector-curvature="0"
         id="path4158-0-8-6"
         d="m 27.046336,-55.695463 -14.21366,13.321486 h 0.06127 l 15.653407,21.770763 10.231384,-10.546177 C 38.561832,-32.30156 27.468089,-54.819245 27.046336,-55.695463 Z M 9.6468554,-39.382809 -5.2407289,-25.32124 15.987863,-7.8059573 26.372412,-18.382966 Z m 31.4906096,12.951445 -9.741259,9.713584 8.944804,12.4580526 7.780753,-7.5550056 z m -49.8397109,4.378822 -13.7541661,12.9822847 26.2830181,13.84571 0.06127,-0.0617 -0.122531,-0.0617 L 13.598503,-5.4007374 -8.7022409,-22.052595 Z m 38.0154159,7.400825 -9.802525,9.7752596 11.579232,9.5594001 7.62759,-7.40083 -8.669108,-11.0087257 z m 20.187073,5.6739697 -7.382526,7.2158 6.187844,8.54179 5.820249,-6.13651996 z m -32.195166,6.32154 -9.5574606,9.49772 13.6622686,7.1849703 7.933918,-7.6783603 z m 23.311629,2.37443004 -7.10683,6.93826996 8.362778,6.9074403 5.360756,-5.6739699 -0.06127,-0.0925 -0.0919,0.12335 -6.463539,-8.20258036 z m -8.730374,8.54178036 -7.505057,7.3391599 10.353916,5.45811 c 1.397496,-1.32103 5.67514,-6.12292 5.850882,-6.32154 z"
         style="opacity:0.6;fill:#ffffff;fill-opacity:1;stroke:none" />
    </clipPath>
    <linearGradient
       y2="-24"
       x2="32"
       y1="46"
       x1="32"
       gradientTransform="matrix(2.0430844,0,0,1.5154621,-9.9925671,-105.72432)"
       gradientUnits="userSpaceOnUse"
       id="linearGradient4269"
       xlink:href="#linearGradient3737"
       inkscape:collect="always" />
  </defs>
  <sodipodi:namedview
     id="base"
     pagecolor="#ffffff"
     bordercolor="#666666"
     borderopacity="1.0"
     inkscape:pageopacity="0.0"
     inkscape:pageshadow="2"
     inkscape:zoom="8.09375"
     inkscape:cx="28.60054"
     inkscape:cy="52.942085"
     inkscape:document-units="px"
     inkscape:current-layer="g873"
     showgrid="false"
     inkscape:showpageshadow="false"
     units="px"
     inkscape:lockguides="true"
     inkscape:window-width="1920"
     inkscape:window-height="1026"
     inkscape:window-x="0"
     inkscape:window-y="28"
     inkscape:window-maximized="1"
     inkscape:snap-global="false">
    <sodipodi:guide
       position="0,0"
       orientation="0,96"
       id="guide1621"
       inkscape:locked="true" />
    <sodipodi:guide
       position="96.000002,0"
       orientation="-96,0"
       id="guide1623"
       inkscape:locked="true" />
    <sodipodi:guide
       position="96.000002,96.000002"
       orientation="0,-96"
       id="guide1625"
       inkscape:locked="true" />
    <sodipodi:guide
       position="0,96.000002"
       orientation="96,0"
       id="guide1627"
       inkscape:locked="true" />
  </sodipodi:namedview>
  <metadata
     id="metadata1069">
    <rdf:RDF>
      <cc:Work
         rdf:about="">
        <dc:format>image/svg+xml</dc:format>
        <dc:type
           rdf:resource="http://purl.org/dc/dcmitype/StillImage" />
        <dc:title></dc:title>
        <dc:date>2019</dc:date>
        <dc:creator>
          <cc:Agent>
            <dc:title>Cristian Pozzessere &lt; ilnanny &gt;</dc:title>
          </cc:Agent>
        </dc:creator>
        <dc:subject>
          <rdf:Bag>
            <rdf:li>ilnanny</rdf:li>
            <rdf:li>inkscape</rdf:li>
            <rdf:li>vectorart</rdf:li>
            <rdf:li>svgfiles</rdf:li>
            <rdf:li>wallpapers</rdf:li>
            <rdf:li>icons</rdf:li>
            <rdf:li>patterns</rdf:li>
          </rdf:Bag>
        </dc:subject>
        <dc:description>..when I have nothing to do, I scribble and have fun with inkscape.</dc:description>
        <dc:contributor>
          <cc:Agent>
            <dc:title>In the night, alone like a dog.</dc:title>
          </cc:Agent>
        </dc:contributor>
        <cc:license
           rdf:resource="http://creativecommons.org/licenses/by-sa/4.0/" />
        <dc:coverage>Italy</dc:coverage>
      </cc:Work>
      <cc:License
         rdf:about="http://creativecommons.org/licenses/by-sa/4.0/">
        <cc:permits
           rdf:resource="http://creativecommons.org/ns#Reproduction" />
        <cc:permits
           rdf:resource="http://creativecommons.org/ns#Distribution" />
        <cc:requires
           rdf:resource="http://creativecommons.org/ns#Notice" />
        <cc:requires
           rdf:resource="http://creativecommons.org/ns#Attribution" />
        <cc:permits
           rdf:resource="http://creativecommons.org/ns#DerivativeWorks" />
        <cc:requires
           rdf:resource="http://creativecommons.org/ns#ShareAlike" />
      </cc:License>
    </rdf:RDF>
  </metadata>
  <g
     inkscape:label="Livello 1"
     inkscape:groupmode="layer"
     id="layer1"
     transform="translate(0,-1026.5197)">
    <g
       transform="translate(-0.14895645,1026.1047)"
       style="display:inline"
       id="g2574">
      <g
         id="g873"
         transform="translate(0.2500015,-0.250026)">
        <path
           style="display:inline;opacity:0.15;fill:#000000;fill-opacity:1;fill-rule:nonzero;stroke:none;stroke-width:0.99479163"
           d="M 88.827522,0.91507252 H 6.9703765 c -3.7790623,0 -6.82142082,3.04235648 -6.82142082,6.82142568 V 89.593645 c 0,3.779071 3.04235852,6.821428 6.82142082,6.821428 H 88.827522 c 3.779071,0 6.821432,-3.042357 6.821432,-6.821428 V 7.7364982 c 0,-3.7790692 -3.042361,-6.82142568 -6.821432,-6.82142568 z"
           id="path3288"
           inkscape:connector-curvature="0" />
        <path
           inkscape:connector-curvature="0"
           id="path4085"
           d="M 88.188014,1.6611663 H 7.6098842 c -3.7200154,0 -6.71483658,2.9948193 -6.71483658,6.7148407 v 80.578128 c 0,3.720025 2.99482118,6.714844 6.71483658,6.714844 H 88.188014 c 3.720026,0 6.714846,-2.994819 6.714846,-6.714844 V 8.376007 c 0,-3.7200214 -2.99482,-6.7148407 -6.714846,-6.7148407 z"
           style="display:inline;opacity:0.15;fill:#000000;fill-opacity:1;fill-rule:nonzero;stroke:none;stroke-width:0.99479163" />
        <path
           style="display:inline;fill:url(#linearGradient4071);fill-opacity:1;fill-rule:nonzero;stroke:none;stroke-width:0.99479163"
           d="M 87.548501,2.40726 H 8.2494 c -3.6609755,0 -6.6082582,2.9472822 -6.6082582,6.6082567 V 88.314629 c 0,3.660974 2.9472827,6.608257 6.6082582,6.608257 h 79.299101 c 3.660976,0 6.608256,-2.947283 6.608256,-6.608257 V 9.0155167 c 0,-3.6609745 -2.94728,-6.6082567 -6.608256,-6.6082567 z"
           id="rect4251-1"
           inkscape:connector-curvature="0" />
        <path
           id="path73"
           d="m 8.6044087,10.437125 c -3.806051,0 -3.743153,-0.266554 -3.743153,3.144842 v 64.993405 c 0,3.026206 -0.7847076,3.144842 3.743153,3.144842 H 85.962894 c 3.950414,0 3.743154,0.908535 3.743154,-3.144842 V 13.581967 c 0,-3.411396 0.351621,-3.144842 -3.743154,-3.144842 z m 0,2.031044 H 85.962894 c 0.77129,0 1.325701,0.465792 1.325701,1.113798 v 64.993405 c 0,0.648005 -0.554411,1.113798 -1.325701,1.113798 H 8.6044087 c -0.771289,0 -1.3257,-0.465793 -1.3257,-1.113798 V 13.581967 c 0,-0.648006 0.554411,-1.113798 1.3257,-1.113798 z"
           inkscape:connector-curvature="0"
           style="color:#000000;opacity:0.85900005;fill:#465762;fill-opacity:0.64593302;stroke:none;stroke-width:1.14365995"
           sodipodi:nodetypes="ssssssssssssssssss" />
        <path
           style="display:inline;opacity:1;fill:#dee5ee;fill-opacity:0.98867923;fill-rule:nonzero;stroke:none;stroke-width:1.03196037"
           d="m 11.331698,7.2689484 c -2.8416186,0 -5.09744,2.311356 -5.09744,5.2229256 v 21.642495 7.312094 40.314453 c 1.0915251,1.701398 2.9533857,2.839965 5.09744,2.839965 h 4.077952 65.247239 4.077951 c 2.144056,0 4.005916,-1.138567 5.097441,-2.839965 V 41.446463 34.134369 12.491874 c 0,-2.9115696 -2.255821,-5.2229256 -5.097441,-5.2229256 z"
           id="path3400-6"
           inkscape:connector-curvature="0"
           sodipodi:nodetypes="sscccsccscccsss" />
        <path
           inkscape:connector-curvature="0"
           id="path4989"
           d="m 9.9228613,5.6199008 c -3.1003885,0 -5.6384442,2.5262834 -5.6384442,5.6165982 v 68.917173 c 0,3.090315 2.5380557,5.616598 5.6384442,5.616598 H 86.314687 c 3.100388,0 5.638447,-2.526283 5.638447,-5.616598 V 11.236499 c 0,-3.0903138 -2.538059,-5.6165982 -5.638447,-5.6165982 z m 0,2.3073586 H 86.314687 c 1.878265,0 3.334563,1.4723862 3.334563,3.3092396 v 68.917173 c 0,1.836857 -1.456298,3.309238 -3.334563,3.309238 H 9.9228613 c -1.8782651,0 -3.3345634,-1.472381 -3.3345634,-3.309238 V 11.236499 c 0,-1.8368534 1.4562983,-3.3092396 3.3345634,-3.3092396 z"
           style="color:#000000;font-style:normal;font-variant:normal;font-weight:normal;font-stretch:normal;font-size:medium;line-height:normal;font-family:Sans;-inkscape-font-specification:Sans;text-indent:0;text-align:start;text-decoration:none;text-decoration-line:none;letter-spacing:normal;word-spacing:normal;text-transform:none;writing-mode:lr-tb;direction:ltr;baseline-shift:baseline;text-anchor:start;display:inline;overflow:visible;visibility:visible;fill:#1f2124;fill-opacity:0.96226418;stroke:none;stroke-width:2.36312771;marker:none;enable-background:accumulate" />
        <path
           inkscape:connector-curvature="0"
           style="display:inline;opacity:0.65818182;fill:url(#linearGradient4129);fill-opacity:1;fill-rule:nonzero;stroke:none;stroke-width:0.99479163"
           d="m 1.6411408,82.332553 v 5.96875 c 0,3.660975 2.9606059,6.621582 6.6215814,6.621582 H 87.535181 c 3.660975,0 6.621586,-2.960607 6.621586,-6.621582 v -5.96875 c 0,3.660975 -2.960611,6.621582 -6.621586,6.621582 H 8.2627222 c -3.6609755,0 -6.6215814,-2.960607 -6.6215814,-6.621582 z"
           id="path4118" />
        <rect
           style="opacity:0.55;fill:url(#radialGradient7462);fill-opacity:1;stroke:none;stroke-width:0.99479163"
           id="rect4131"
           width="83.811203"
           height="4.2278647"
           x="5.4959588"
           y="80.747108"
           rx="0"
           ry="4.2278647" />
        <rect
           ry="4.2278643"
           rx="0"
           y="-89.764771"
           x="6.4461107"
           height="4.2278643"
           width="76.350258"
           id="rect4141"
           style="opacity:0.669;fill:url(#radialGradient7464);fill-opacity:1;stroke:none;stroke-width:0.99479163"
           transform="rotate(90)" />
        <rect
           ry="2.002279"
           rx="2.0786865"
           y="14.626418"
           x="9.6595745"
           height="29.65251"
           width="35.583012"
           id="rect1023"
           style="opacity:1;vector-effect:none;fill:#008eeb;fill-opacity:1;stroke:none;stroke-width:2.08937693;stroke-linecap:round;stroke-linejoin:bevel;stroke-miterlimit:4;stroke-dasharray:none;stroke-dashoffset:0;stroke-opacity:0.33962265;paint-order:stroke markers fill" />
        <path
           style="opacity:0.15;fill:#0f2e61;stroke-width:1.14365995"
           inkscape:connector-curvature="0"
           d="m 12.347562,12.533686 c -2.7208983,0 -4.9908713,1.907137 -4.9908713,4.193124 v 25.158737 c 0,2.285985 2.269973,4.193122 4.9908713,4.193122 h 29.94522 c 2.720897,0 4.99087,-1.907137 4.99087,-4.193122 V 16.72681 c 0,-2.285987 -2.269973,-4.193124 -4.99087,-4.193124 z m 0,2.096561 h 29.94522 c 1.38247,0 2.495435,0.935067 2.495435,2.096563 v 25.158737 c 0,1.161494 -1.112965,2.096561 -2.495435,2.096561 h -29.94522 c -1.382472,0 -2.4954353,-0.935067 -2.4954353,-2.096561 V 16.72681 c 0,-1.161496 1.1129633,-2.096563 2.4954353,-2.096563 z"
           id="path79" />
        <path
           style="opacity:0.622;fill:#204566;fill-opacity:1;stroke-width:1.14365995"
           inkscape:connector-curvature="0"
           d="m 12.347562,13.54947 c -2.071591,0 -3.7820873,1.437193 -3.7820873,3.177549 v 25.158737 c 0,1.740461 1.7106213,3.177549 3.7820873,3.177549 h 29.94522 c 2.071585,0 3.78208,-1.437193 3.78208,-3.177549 V 16.727019 c 0,-1.740146 -1.710619,-3.177339 -3.781831,-3.177339 h -29.94522 z m 0,1.080777 h 29.94522 c 1.38247,0 2.495435,0.935067 2.495435,2.096563 v 25.158737 c 0,1.161494 -1.112965,2.096561 -2.495435,2.096561 h -29.94522 c -1.382477,0 -2.4954403,-0.935067 -2.4954403,-2.096561 V 16.72681 c 0,-1.161496 1.1129633,-2.096563 2.4954403,-2.096563 z"
           id="path83" />
        <rect
           style="opacity:0.34375;fill:url(#linearGradient4269);stroke-width:1.75960696"
           transform="scale(1,-1)"
           rx="4.0861683"
           ry="3.0309243"
           height="42.432938"
           width="57.206364"
           y="-78.446007"
           x="26.782934"
           id="rect93" />
        <path
           style="opacity:0.15;fill:#0f2e61;stroke-width:1.75960696"
           inkscape:connector-curvature="0"
           d="m 30.869116,32.982144 c -4.455352,0 -8.172336,2.757082 -8.172336,6.061851 v 36.371089 c 0,3.30477 3.716984,6.061851 8.172336,6.061851 h 49.034026 c 4.455355,0 8.172339,-2.757081 8.172339,-6.061851 V 39.043995 c 0,-3.304769 -3.716984,-6.061851 -8.172339,-6.061851 z m 0,3.030925 h 49.034026 c 2.263739,0 4.086171,1.351793 4.086171,3.030926 v 36.371089 c 0,1.679133 -1.822432,3.030926 -4.086171,3.030926 H 30.869116 c -2.263737,0 -4.08617,-1.351793 -4.08617,-3.030926 V 39.043995 c 0,-1.679133 1.822433,-3.030926 4.08617,-3.030926 z"
           id="path95" />
        <rect
           style="opacity:1;vector-effect:none;fill:#05c4ff;fill-opacity:1;stroke:none;stroke-width:3.19326854;stroke-linecap:round;stroke-linejoin:bevel;stroke-miterlimit:4;stroke-dasharray:none;stroke-dashoffset:0;stroke-opacity:0.33962265;paint-order:stroke markers fill"
           id="rect1021"
           width="57.254108"
           height="43.046196"
           x="26.840139"
           y="35.738773"
           rx="3.3446674"
           ry="2.9066849" />
        <path
           style="opacity:0.3;fill:#ffffff;stroke-width:1.75960696"
           inkscape:connector-curvature="0"
           d="m 30.869116,36.013069 c -2.263737,0 -4.08617,1.351793 -4.08617,3.030926 v 36.371089 c 0,1.679133 1.822433,3.030926 4.08617,3.030926 h 49.034026 c 2.263739,0 4.086171,-1.351793 4.086171,-3.030926 V 39.043995 c 0,-1.679133 -1.822432,-3.030926 -4.086171,-3.030926 z m 0,1.562745 h 49.034026 c 1.117814,0 1.979241,0.638964 1.979241,1.468103 v 36.371094 c 0,0.829139 -0.861427,1.468103 -1.979241,1.468103 H 30.869116 c -1.117811,0 -1.979237,-0.638964 -1.979237,-1.468103 V 39.043917 c 0,-0.829139 0.861426,-1.468103 1.979237,-1.468103 z"
           id="path97" />
        <path
           style="opacity:0.622;fill:#204566;fill-opacity:1;stroke-width:1.75960696"
           inkscape:connector-curvature="0"
           d="m 30.869116,34.450628 c -3.392132,0 -6.192996,2.077697 -6.192996,4.593669 v 36.371092 c 0,2.516122 2.801069,4.593669 6.192996,4.593669 h 49.034026 c 3.392136,0 6.192999,-2.077699 6.192999,-4.593669 V 39.044297 c 0,-2.515667 -2.801069,-4.593367 -6.192589,-4.593367 H 30.869526 Z m 0,1.562441 h 49.034026 c 2.263739,0 4.086171,1.351793 4.086171,3.030926 v 36.371089 c 0,1.679133 -1.822432,3.030926 -4.086171,3.030926 H 30.869116 c -2.263737,0 -4.08617,-1.351793 -4.08617,-3.030926 V 39.043995 c 0,-1.679133 1.822433,-3.030926 4.08617,-3.030926 z"
           id="path99" />
        <rect
           transform="matrix(1.0636761,0,0,1.0422262,4.4218089,39.193648)"
           style="opacity:0.58999999;fill:url(#linearGradient4767);fill-opacity:1;stroke:none"
           id="rect4146"
           width="75.965775"
           height="69.024437"
           x="2"
           y="-30"
           rx="3.9569874"
           ry="3.9569881"
           clip-path="url(#clipPath4156-4-1-3)" />
        <path
           style="opacity:1;vector-effect:none;fill:#920ddd;fill-opacity:1;stroke:#454545;stroke-width:1.71414793;stroke-linecap:round;stroke-linejoin:bevel;stroke-miterlimit:4;stroke-dasharray:none;stroke-dashoffset:0;stroke-opacity:0.19245282;paint-order:stroke markers fill"
           d="m 78.493117,75.423104 -2.658941,-9.82322 -2.657751,-9.822042 -3.952121,3.912327 -21.319109,-21.104436 -6.622968,6.556272 21.319115,21.104438 -3.952129,3.912327 9.921953,2.630988 z"
           id="rect1025"
           inkscape:connector-curvature="0" />
      </g>
    </g>
  </g>
</svg>
