<?xml version="1.0" encoding="UTF-8" standalone="no"?>
<svg
   xmlns:dc="http://purl.org/dc/elements/1.1/"
   xmlns:cc="http://creativecommons.org/ns#"
   xmlns:rdf="http://www.w3.org/1999/02/22-rdf-syntax-ns#"
   xmlns:svg="http://www.w3.org/2000/svg"
   xmlns="http://www.w3.org/2000/svg"
   xmlns:xlink="http://www.w3.org/1999/xlink"
   xmlns:sodipodi="http://sodipodi.sourceforge.net/DTD/sodipodi-0.dtd"
   xmlns:inkscape="http://www.inkscape.org/namespaces/inkscape"
   sodipodi:docname="wallpaper-centered.svg"
   inkscape:version="1.0beta2 (2b71d25d45, 2019-12-03)"
   id="svg1072"
   version="1.1"
   viewBox="0 0 96.000001 96.000004"
   height="96"
   width="96">
  <defs
     id="defs1066">
    <linearGradient
       inkscape:collect="always"
       xlink:href="#linearGradient6139-0"
       id="linearGradient4071"
       gradientUnits="userSpaceOnUse"
       gradientTransform="matrix(1.100199,0,0,1.1013461,-5.21034,-3.3482229)"
       x1="6"
       y1="47.000011"
       x2="90"
       y2="47.000011" />
    <linearGradient
       id="linearGradient6139-0">
      <stop
         id="stop6141-2"
         offset="0"
         style="stop-color:#b2babc;stop-opacity:1" />
      <stop
         style="stop-color:#ffffff;stop-opacity:1;"
         offset="0.25"
         id="stop6151-0" />
      <stop
         style="stop-color:#96a1a4;stop-opacity:1"
         offset="0.5"
         id="stop6147-1" />
      <stop
         id="stop6149-4"
         offset="0.75"
         style="stop-color:#fbf9f9;stop-opacity:1;" />
      <stop
         id="stop6143-4"
         offset="1"
         style="stop-color:#b2b9bc;stop-opacity:1" />
    </linearGradient>
    <linearGradient
       gradientTransform="matrix(0.99372822,0,0,0.99476437,-0.09973911,0.66636075)"
       inkscape:collect="always"
       xlink:href="#linearGradient3832-0-6-1-1"
       id="linearGradient4129"
       x1="1.5"
       y1="88.171875"
       x2="94.5"
       y2="88.171875"
       gradientUnits="userSpaceOnUse" />
    <linearGradient
       id="linearGradient3832-0-6-1-1">
      <stop
         style="stop-color:#000000;stop-opacity:1;"
         offset="0"
         id="stop3834-6-3-7-1" />
      <stop
         id="stop3872-2-4"
         offset="0.1"
         style="stop-color:#000000;stop-opacity:0.58823532;" />
      <stop
         style="stop-color:#000000;stop-opacity:0.58823532;"
         offset="0.89999998"
         id="stop3844-6-2-7-6" />
      <stop
         style="stop-color:#000000;stop-opacity:1;"
         offset="1"
         id="stop3836-5-0-2-9" />
    </linearGradient>
    <radialGradient
       inkscape:collect="always"
       xlink:href="#linearGradient3737"
       id="radialGradient7462"
       gradientUnits="userSpaceOnUse"
       gradientTransform="matrix(0.96901791,0,0,0.04893317,33.58635,80.413337)"
       cx="13.948145"
       cy="44.892841"
       fx="13.948145"
       fy="44.892841"
       r="43.199203" />
    <linearGradient
       id="linearGradient3737">
      <stop
         offset="0"
         style="stop-color:#ffffff;stop-opacity:1"
         id="stop3739" />
      <stop
         offset="1"
         style="stop-color:#ffffff;stop-opacity:0"
         id="stop3741" />
    </linearGradient>
    <radialGradient
       inkscape:collect="always"
       xlink:href="#linearGradient3737"
       id="radialGradient7464"
       gradientUnits="userSpaceOnUse"
       gradientTransform="matrix(0.8836757,0,0,0.0488822,32.045699,-89.503048)"
       cx="13.948145"
       cy="44.892841"
       fx="13.948145"
       fy="44.892841"
       r="43.199203" />
    <linearGradient
       gradientTransform="matrix(1.0041884,0,0,1.0052356,-0.21820995,-0.04755458)"
       inkscape:collect="always"
       xlink:href="#linearGradient3737"
       id="linearGradient4767"
       gradientUnits="userSpaceOnUse"
       x1="2.7713892"
       y1="-28.64156"
       x2="50.527882"
       y2="14.514202" />
    <clipPath
       id="clipPath4156-4-1"
       clipPathUnits="userSpaceOnUse">
      <path
         inkscape:connector-curvature="0"
         id="path4158-0-8"
         d="m 27.046336,-55.695463 -14.21366,13.321486 h 0.06127 l 15.653407,21.770763 10.231384,-10.546177 C 38.561832,-32.30156 27.468089,-54.819245 27.046336,-55.695463 Z M 9.6468554,-39.382809 -5.2407289,-25.32124 15.987863,-7.8059573 26.372412,-18.382966 Z m 31.4906096,12.951445 -9.741259,9.713584 8.944804,12.4580526 7.780753,-7.5550056 z m -49.8397109,4.378822 -13.7541661,12.9822847 26.2830181,13.84571 0.06127,-0.0617 -0.122531,-0.0617 L 13.598503,-5.4007374 -8.7022409,-22.052595 Z m 38.0154159,7.400825 -9.802525,9.7752596 11.579232,9.5594001 7.62759,-7.40083 -8.669108,-11.0087257 z m 20.187073,5.6739697 -7.382526,7.2158 6.187844,8.54179 5.820249,-6.13651996 z m -32.195166,6.32154 -9.5574606,9.49772 13.6622686,7.1849703 7.933918,-7.6783603 z m 23.311629,2.37443004 -7.10683,6.93826996 8.362778,6.9074403 5.360756,-5.6739699 -0.06127,-0.0925 -0.0919,0.12335 -6.463539,-8.20258036 z m -8.730374,8.54178036 -7.505057,7.3391599 10.353916,5.45811 c 1.397496,-1.32103 5.67514,-6.12292 5.850882,-6.32154 z"
         style="opacity:0.6;fill:#ffffff;fill-opacity:1;stroke:none" />
    </clipPath>
    <linearGradient
       id="ButtonShadow-16"
       gradientTransform="scale(1.0058652,0.994169)"
       x1="45.447727"
       y1="92.539597"
       x2="45.447727"
       y2="7.0165396"
       gradientUnits="userSpaceOnUse">
      <stop
         style="stop-color:#000000;stop-opacity:1;"
         offset="0"
         id="stop3750-6" />
      <stop
         style="stop-color:#000000;stop-opacity:0.58823532;"
         offset="1"
         id="stop3752-4" />
    </linearGradient>
    <clipPath
       clipPathUnits="userSpaceOnUse"
       id="clipPath4355-7">
      <rect
         style="fill:#ffffff;fill-opacity:1;fill-rule:nonzero;stroke:none"
         id="rect4357-5"
         width="84"
         height="80"
         x="6"
         y="6"
         rx="6"
         ry="6" />
    </clipPath>
    <clipPath
       clipPathUnits="userSpaceOnUse"
       id="clipPath4355-9">
      <rect
         style="fill:#ffffff;fill-opacity:1;fill-rule:nonzero;stroke:none"
         id="rect4357-1"
         width="84"
         height="80"
         x="6"
         y="6"
         rx="6"
         ry="6" />
    </clipPath>
    <clipPath
       clipPathUnits="userSpaceOnUse"
       id="clipPath4355-1">
      <rect
         style="fill:#ffffff;fill-opacity:1;fill-rule:nonzero;stroke:none"
         id="rect4357-9"
         width="84"
         height="80"
         x="6"
         y="6"
         rx="6"
         ry="6" />
    </clipPath>
    <clipPath
       clipPathUnits="userSpaceOnUse"
       id="clipPath3943-52-0">
      <path
         id="path3945-4-1"
         d="m 69.78125,20.84375 -5,3.4375 c 5.586891,5.537137 9,13.327613 9,21.8125 0,8.434478 -3.37723,16.095981 -8.90625,21.625 l 5,3.4375 C 76.078226,64.5762 80,55.843726 80,46.09375 c 2e-6,-9.796556 -3.962955,-18.660417 -10.21875,-25.25 z M 40,24.0625 28.90625,36.21875 H 21.5 c -0.823281,0 -1.5,0.676717 -1.5,1.5 v 1 14.84375 1 c 0,0.823281 0.684121,1.610161 1.5,1.5 h 7.40625 L 40,68 V 66 26.0625 Z m 20.59375,3.28125 -5,3.4375 L 55.5,30.875 c 3.93815,3.890071 6.40625,9.25018 6.40625,15.21875 0,5.920869 -2.42961,11.148358 -6.3125,15.03125 l 0.09375,0.09375 5.09375,3.4375 c 4.475428,-4.908367 7.25,-11.402005 7.25,-18.5625 0,-7.230696 -2.87904,-13.83107 -7.4375,-18.75 z m -9.25,6.5 -5.21875,3.625 c 2.222384,2.217802 3.71875,5.239596 3.71875,8.625 0,3.336509 -1.458847,6.227712 -3.625,8.4375 l 5.21875,3.625 c 2.822412,-3.236947 4.53125,-7.43414 4.53125,-12.0625 0,-4.672601 -1.754155,-9.001351 -4.625,-12.25 z"
         style="color:#000000;display:inline;overflow:visible;visibility:visible;opacity:0.8;fill:#ff00ff;fill-opacity:1;fill-rule:nonzero;stroke:none;stroke-width:1;marker:none;enable-background:accumulate"
         inkscape:connector-curvature="0" />
    </clipPath>
  </defs>
  <sodipodi:namedview
     inkscape:document-rotation="0"
     inkscape:snap-global="false"
     inkscape:window-maximized="1"
     inkscape:window-y="28"
     inkscape:window-x="0"
     inkscape:window-height="1016"
     inkscape:window-width="1920"
     inkscape:lockguides="true"
     units="px"
     inkscape:showpageshadow="false"
     showgrid="false"
     inkscape:current-layer="text892"
     inkscape:document-units="px"
     inkscape:cy="44.413154"
     inkscape:cx="44.774728"
     inkscape:zoom="3.984375"
     inkscape:pageshadow="2"
     inkscape:pageopacity="0.0"
     borderopacity="1.0"
     bordercolor="#666666"
     pagecolor="#ffffff"
     id="base">
    <sodipodi:guide
       inkscape:locked="true"
       id="guide1621"
       orientation="0,96"
       position="0,0" />
    <sodipodi:guide
       inkscape:locked="true"
       id="guide1623"
       orientation="-96,0"
       position="96.000002,0" />
    <sodipodi:guide
       inkscape:locked="true"
       id="guide1625"
       orientation="0,-96"
       position="96.000002,96.000002" />
    <sodipodi:guide
       inkscape:locked="true"
       id="guide1627"
       orientation="96,0"
       position="0,96.000002" />
  </sodipodi:namedview>
  <metadata
     id="metadata1069">
    <rdf:RDF>
      <cc:Work
         rdf:about="">
        <dc:format>image/svg+xml</dc:format>
        <dc:type
           rdf:resource="http://purl.org/dc/dcmitype/StillImage" />
        <dc:title />
        <dc:date>2019</dc:date>
        <dc:creator>
          <cc:Agent>
            <dc:title>Cristian Pozzessere &lt; ilnanny &gt;</dc:title>
          </cc:Agent>
        </dc:creator>
        <dc:subject>
          <rdf:Bag>
            <rdf:li>ilnanny</rdf:li>
            <rdf:li>inkscape</rdf:li>
            <rdf:li>vectorart</rdf:li>
            <rdf:li>svgfiles</rdf:li>
            <rdf:li>wallpapers</rdf:li>
            <rdf:li>icons</rdf:li>
            <rdf:li>patterns</rdf:li>
          </rdf:Bag>
        </dc:subject>
        <dc:description>..when I have nothing to do, I scribble and have fun with inkscape.</dc:description>
        <dc:contributor>
          <cc:Agent>
            <dc:title>In the night, alone like a dog.</dc:title>
          </cc:Agent>
        </dc:contributor>
        <cc:license
           rdf:resource="http://creativecommons.org/licenses/by-sa/4.0/" />
        <dc:coverage>Italy</dc:coverage>
      </cc:Work>
      <cc:License
         rdf:about="http://creativecommons.org/licenses/by-sa/4.0/">
        <cc:permits
           rdf:resource="http://creativecommons.org/ns#Reproduction" />
        <cc:permits
           rdf:resource="http://creativecommons.org/ns#Distribution" />
        <cc:requires
           rdf:resource="http://creativecommons.org/ns#Notice" />
        <cc:requires
           rdf:resource="http://creativecommons.org/ns#Attribution" />
        <cc:permits
           rdf:resource="http://creativecommons.org/ns#DerivativeWorks" />
        <cc:requires
           rdf:resource="http://creativecommons.org/ns#ShareAlike" />
      </cc:License>
    </rdf:RDF>
  </metadata>
  <g
     transform="translate(0,-1026.5197)"
     id="layer1"
     inkscape:groupmode="layer"
     inkscape:label="Livello 1">
    <g
       id="g2574"
       style="display:inline"
       transform="translate(-0.14895645,1026.1047)">
      <g
         transform="translate(0.2500015,-0.250026)"
         id="g873">
        <g
           transform="matrix(8.1115785,0,0,8.1115785,-349.8364,-289.43703)"
           id="text892"
           style="font-style:normal;font-variant:normal;font-weight:normal;font-stretch:normal;font-size:10.66666698px;line-height:1.25;font-family:'Serto Jerusalem Outline';-inkscape-font-specification:'Serto Jerusalem Outline';letter-spacing:0px;word-spacing:0px;fill:#4682b4;fill-opacity:1;stroke:#000000;stroke-width:0.24335584;stroke-miterlimit:4;stroke-dasharray:none;stroke-opacity:0.0754717"
           aria-label="+">
          <g
             transform="translate(0.03081978,0.0308203)"
             id="g919">
            <path
               transform="matrix(0.12328057,0,0,0.12328057,43.12803,35.681961)"
               style="display:inline;opacity:0.15;fill:#000000;fill-opacity:1;fill-rule:nonzero;stroke:none;stroke-width:0.994245"
               d="M 88.363239,0.915026 H 6.9346625 c -3.7592765,0 -6.7857066,3.026428 -6.7857066,6.7857112 V 89.129313 c 0,3.759286 3.0264301,6.785713 6.7857066,6.785713 H 88.363239 c 3.759287,0 6.785717,-3.026427 6.785717,-6.785713 V 7.7007372 c 0,-3.7592832 -3.02643,-6.7857112 -6.785717,-6.7857112 z"
               id="path3288"
               inkscape:connector-curvature="0" />
            <path
               transform="matrix(0.12328057,0,0,0.12328057,43.12803,35.681961)"
               inkscape:connector-curvature="0"
               id="path4085"
               d="M 87.727077,1.6572135 H 7.5708221 c -3.700539,0 -6.67968051,2.9791395 -6.67968051,6.6796844 V 88.493151 c 0,3.700546 2.97914151,6.679686 6.67968051,6.679686 H 87.727077 c 3.700549,0 6.67969,-2.97914 6.67969,-6.679686 V 8.3368979 c 0,-3.7005449 -2.979141,-6.6796844 -6.67969,-6.6796844 z"
               style="display:inline;opacity:0.15;fill:#000000;fill-opacity:1;fill-rule:nonzero;stroke:none;stroke-width:0.994245" />
            <path
               transform="matrix(0.12328057,0,0,0.12328057,43.12803,35.681961)"
               style="display:inline;fill:url(#linearGradient4071);fill-opacity:1;fill-rule:nonzero;stroke:none;stroke-width:0.994245"
               d="M 87.090912,2.399401 H 8.2069899 c -3.6418086,0 -6.5736604,2.9318511 -6.5736604,6.5736587 V 87.856991 c 0,3.64181 2.9318518,6.57366 6.5736604,6.57366 H 87.090912 c 3.641812,0 6.573658,-2.93185 6.573658,-6.57366 V 8.9730597 c 0,-3.6418076 -2.931846,-6.5736587 -6.573658,-6.5736587 z"
               id="rect4251-1"
               inkscape:connector-curvature="0" />
            <rect
               transform="matrix(0.12328057,0,0,0.12328057,43.12803,35.681961)"
               ry="2.982343"
               rx="2.3545496"
               y="7.1514897"
               x="5.8099866"
               height="76.618202"
               width="84.115303"
               id="rect862"
               style="display:inline;opacity:1;fill:#e2e6ea;fill-opacity:0.971698;stroke:none;stroke-width:0.707507;stroke-miterlimit:4;stroke-dasharray:none;stroke-opacity:1" />
            <path
               transform="matrix(0.12328057,0,0,0.12328057,43.12803,35.681961)"
               inkscape:connector-curvature="0"
               id="path4989"
               d="m 9.8716893,5.5952219 c -3.0841562,0 -5.6089233,2.5130568 -5.6089233,5.5871891 v 68.556354 c 0,3.074135 2.5247671,5.587189 5.6089233,5.587189 H 85.863558 c 3.08416,0 5.608928,-2.513054 5.608928,-5.587189 V 11.182411 c 0,-3.0741313 -2.524768,-5.5871891 -5.608928,-5.5871891 z m 0,2.295278 H 85.863558 c 1.868431,0 3.317105,1.4646771 3.317105,3.2919111 v 68.556354 c 0,1.827236 -1.448674,3.291909 -3.317105,3.291909 H 9.8716893 c -1.8684313,0 -3.3171051,-1.464673 -3.3171051,-3.291909 V 11.182411 c 0,-1.827234 1.4486738,-3.2919111 3.3171051,-3.2919111 z"
               style="color:#000000;font-style:normal;font-variant:normal;font-weight:normal;font-stretch:normal;font-size:medium;line-height:normal;font-family:Sans;-inkscape-font-specification:Sans;text-indent:0;text-align:start;text-decoration:none;text-decoration-line:none;letter-spacing:normal;word-spacing:normal;text-transform:none;writing-mode:lr-tb;direction:ltr;baseline-shift:baseline;text-anchor:start;display:inline;overflow:visible;visibility:visible;fill:#202223;fill-opacity:0.936893;stroke:none;stroke-width:2.36158;stroke-miterlimit:4;stroke-dasharray:none;marker:none;enable-background:accumulate" />
            <path
               transform="matrix(0.12328057,0,0,0.12328057,43.12803,35.681961)"
               inkscape:connector-curvature="0"
               style="display:inline;opacity:0.658182;fill:url(#linearGradient4129);fill-opacity:1;fill-rule:nonzero;stroke:none;stroke-width:0.994245"
               d="m 1.6333285,81.906236 v 5.9375 c 0,3.64181 2.9451055,6.586915 6.5869135,6.586915 h 78.85742 c 3.641812,0 6.586918,-2.945105 6.586918,-6.586915 v -5.9375 c 0,3.64181 -2.945106,6.586915 -6.586918,6.586915 H 8.220242 c -3.641808,0 -6.5869135,-2.945105 -6.5869135,-6.586915 z"
               id="path4118" />
            <g
               style="display:inline"
               id="g888"
               transform="matrix(0.12263512,0,0,0.12263512,43.128126,35.682552)">
              <g
                 id="g874">
                <path
                   style="opacity:1;fill:#6495ed;fill-opacity:0.971698;stroke:none;stroke-width:0.711232;stroke-miterlimit:4;stroke-dasharray:none;stroke-opacity:1"
                   d="m 8.8349997,7.8120082 c -1.3112856,0 -2.3671876,1.3371332 -2.3671876,2.9980468 v 24.75 L 34.215859,7.8120082 Z"
                   id="rect863"
                   inkscape:connector-curvature="0" />
                <path
                   inkscape:connector-curvature="0"
                   id="path869"
                   d="m 87.315338,7.8120082 c 1.311286,0 2.367188,1.3371332 2.367188,2.9980468 v 24.75 L 61.934479,7.8120082 Z"
                   style="opacity:1;fill:#6495ed;fill-opacity:0.971698;stroke:none;stroke-width:0.711232;stroke-miterlimit:4;stroke-dasharray:none;stroke-opacity:1" />
              </g>
              <g
                 transform="matrix(1,0,0,-1,0,91.560298)"
                 id="g880">
                <path
                   inkscape:connector-curvature="0"
                   id="path876"
                   d="m 8.8349997,7.8120082 c -1.3112856,0 -2.3671876,1.3371332 -2.3671876,2.9980468 v 24.75 L 34.215859,7.8120082 Z"
                   style="opacity:1;fill:#6495ed;fill-opacity:0.971698;stroke:none;stroke-width:0.711232;stroke-miterlimit:4;stroke-dasharray:none;stroke-opacity:1" />
                <path
                   style="opacity:1;fill:#6495ed;fill-opacity:0.971698;stroke:none;stroke-width:0.711232;stroke-miterlimit:4;stroke-dasharray:none;stroke-opacity:1"
                   d="m 87.315338,7.8120082 c 1.311286,0 2.367188,1.3371332 2.367188,2.9980468 v 24.75 L 61.934479,7.8120082 Z"
                   id="path878"
                   inkscape:connector-curvature="0" />
              </g>
            </g>
            <rect
               transform="matrix(0.12328057,0,0,0.12328057,43.12803,35.681961)"
               style="display:inline;opacity:0.55;fill:url(#radialGradient7462);fill-opacity:1;stroke:none;stroke-width:0.994245"
               id="rect4131"
               width="83.372398"
               height="4.2057304"
               x="5.4679637"
               y="80.329071"
               rx="4.2277484"
               ry="4.2277484" />
            <rect
               ry="4.2233453"
               rx="4.2233453"
               y="-89.295547"
               x="6.4171052"
               height="4.2057304"
               width="75.950516"
               id="rect4141"
               style="display:inline;opacity:0.669;fill:url(#radialGradient7464);fill-opacity:1;stroke:none;stroke-width:0.994245"
               transform="matrix(0,0.12328057,-0.12328057,0,43.12803,35.681961)" />
            <rect
               transform="matrix(0.13044404,0,0,0.12781358,43.670395,40.489064)"
               style="display:inline;opacity:0.65;fill:url(#linearGradient4767);fill-opacity:1;stroke:none;stroke-width:1.00471"
               id="rect4146"
               width="75.965775"
               height="69.024437"
               x="2"
               y="-30"
               rx="3.973561"
               ry="3.9777055"
               clip-path="url(#clipPath4156-4-1)" />
            <path
               d="m 51.570493,41.281189 q 0,0.321226 -0.393764,0.321226 h -1.823733 v 2.072424 q 0,0.393763 -0.32641,0.393763 -0.321226,0 -0.321226,-0.393763 v -2.072424 h -1.823734 q -0.393759,0 -0.393759,-0.321226 0,-0.321227 0.393759,-0.321227 H 48.70536 V 38.8979 q 0,-0.393763 0.326409,-0.393763 0.321227,0 0.321227,0.393763 v 2.062062 h 1.823733 q 0.393764,0 0.393764,0.321227 z m -0.207244,0 q 0,-0.113984 -0.18652,-0.113984 h -1.927355 q -0.103621,0 -0.103621,-0.103621 V 38.8979 q 0,-0.18652 -0.113984,-0.18652 -0.119166,0 -0.119166,0.18652 v 2.165684 q 0,0.103621 -0.103622,0.103621 h -1.927355 q -0.186515,0 -0.186515,0.113984 0,0.113983 0.186515,0.113983 h 1.927355 q 0.103622,0 0.103622,0.103622 v 2.176045 q 0,0.18652 0.113983,0.18652 0.119167,0 0.119167,-0.18652 v -2.176045 q 0,-0.103622 0.103621,-0.103622 h 1.927355 q 0.18652,0 0.18652,-0.113983 z"
               id="path894"
               inkscape:connector-curvature="0"
               style="fill:#4682b4;stroke:#000000;stroke-width:0.242081;stroke-miterlimit:4;stroke-dasharray:none;stroke-opacity:0.0754717" />
          </g>
        </g>
      </g>
    </g>
  </g>
</svg>
