<?xml version="1.0" encoding="UTF-8" standalone="no"?>
<svg
   xmlns:dc="http://purl.org/dc/elements/1.1/"
   xmlns:cc="http://creativecommons.org/ns#"
   xmlns:rdf="http://www.w3.org/1999/02/22-rdf-syntax-ns#"
   xmlns:svg="http://www.w3.org/2000/svg"
   xmlns="http://www.w3.org/2000/svg"
   xmlns:xlink="http://www.w3.org/1999/xlink"
   xmlns:sodipodi="http://sodipodi.sourceforge.net/DTD/sodipodi-0.dtd"
   xmlns:inkscape="http://www.inkscape.org/namespaces/inkscape"
   viewBox="0 0 96 96"
   version="1.1"
   id="svg49"
   sodipodi:docname="web-inbox.svg"
   inkscape:version="0.92.2 2405546, 2018-03-11"
   width="96"
   height="96">
  <metadata
     id="metadata53">
    <rdf:RDF>
      <cc:Work
         rdf:about="">
        <dc:format>image/svg+xml</dc:format>
        <dc:type
           rdf:resource="http://purl.org/dc/dcmitype/StillImage" />
        <dc:title></dc:title>
        <dc:date>2019</dc:date>
        <dc:creator>
          <cc:Agent>
            <dc:title>Cristian Pozzessere  &lt; ilnanny &gt;</dc:title>
          </cc:Agent>
        </dc:creator>
        <dc:subject>
          <rdf:Bag>
            <rdf:li>ilnanny</rdf:li>
          </rdf:Bag>
        </dc:subject>
        <dc:description>Playing with Inkscape on Gnu/Linux O. S.</dc:description>
        <dc:contributor>
          <cc:Agent>
            <dc:title>In the night, alone like a dog.</dc:title>
          </cc:Agent>
        </dc:contributor>
      </cc:Work>
    </rdf:RDF>
  </metadata>
  <sodipodi:namedview
     pagecolor="#ffffff"
     bordercolor="#666666"
     borderopacity="1"
     objecttolerance="10"
     gridtolerance="10"
     guidetolerance="10"
     inkscape:pageopacity="0"
     inkscape:pageshadow="2"
     inkscape:window-width="1280"
     inkscape:window-height="943"
     id="namedview51"
     showgrid="false"
     inkscape:zoom="7.96875"
     inkscape:cx="48"
     inkscape:cy="48"
     inkscape:window-x="0"
     inkscape:window-y="19"
     inkscape:window-maximized="1"
     inkscape:current-layer="svg49" />
  <defs
     id="defs7">
    <linearGradient
       id="linearGradient3764"
       x1="1"
       x2="47"
       gradientUnits="userSpaceOnUse"
       gradientTransform="rotate(-90,23.999998,24)">
      <stop
         style="stop-color:#777575;stop-opacity:1"
         id="stop2" />
      <stop
         offset="1"
         style="stop-color:#838181;stop-opacity:1"
         id="stop4" />
    </linearGradient>
    <linearGradient
       inkscape:collect="always"
       xlink:href="#linearGradient6139-0"
       id="linearGradient4071"
       gradientUnits="userSpaceOnUse"
       gradientTransform="matrix(1.1048362,0,0,1.104836,-5.0321442,-3.927307)"
       x1="6"
       y1="47.000011"
       x2="90"
       y2="47.000011" />
    <linearGradient
       id="linearGradient6139-0">
      <stop
         id="stop6141-2"
         offset="0"
         style="stop-color:#b2babc;stop-opacity:1" />
      <stop
         style="stop-color:#ffffff;stop-opacity:1;"
         offset="0.25"
         id="stop6151-0" />
      <stop
         style="stop-color:#96a1a4;stop-opacity:1"
         offset="0.5"
         id="stop6147-1" />
      <stop
         id="stop6149-4"
         offset="0.75"
         style="stop-color:#fbf9f9;stop-opacity:1;" />
      <stop
         id="stop6143-4"
         offset="1"
         style="stop-color:#b2b9bc;stop-opacity:1" />
    </linearGradient>
    <linearGradient
       gradientTransform="matrix(0.99791667,0,0,0.99791665,0.09999752,0.1)"
       inkscape:collect="always"
       xlink:href="#linearGradient3832-0-6-1-1"
       id="linearGradient4129"
       x1="1.5"
       y1="88.171875"
       x2="94.5"
       y2="88.171875"
       gradientUnits="userSpaceOnUse" />
    <linearGradient
       id="linearGradient3832-0-6-1-1">
      <stop
         style="stop-color:#000000;stop-opacity:1;"
         offset="0"
         id="stop3834-6-3-7-1" />
      <stop
         id="stop3872-2-4"
         offset="0.1"
         style="stop-color:#000000;stop-opacity:0.58823532;" />
      <stop
         style="stop-color:#000000;stop-opacity:0.58823532;"
         offset="0.89999998"
         id="stop3844-6-2-7-6" />
      <stop
         style="stop-color:#000000;stop-opacity:1;"
         offset="1"
         id="stop3836-5-0-2-9" />
    </linearGradient>
    <radialGradient
       inkscape:collect="always"
       xlink:href="#linearGradient3737"
       id="radialGradient7462"
       gradientUnits="userSpaceOnUse"
       gradientTransform="matrix(0.97310225,0,0,0.04908824,33.92807,80.099682)"
       cx="13.948145"
       cy="44.892841"
       fx="13.948145"
       fy="44.892841"
       r="43.199203" />
    <linearGradient
       id="linearGradient3737">
      <stop
         offset="0"
         style="stop-color:#ffffff;stop-opacity:1"
         id="stop3739" />
      <stop
         offset="1"
         style="stop-color:#ffffff;stop-opacity:0"
         id="stop3741" />
    </linearGradient>
    <radialGradient
       inkscape:collect="always"
       xlink:href="#linearGradient3737"
       id="radialGradient7464"
       gradientUnits="userSpaceOnUse"
       gradientTransform="matrix(0.88647596,0,0,0.04908824,31.578774,-90.080453)"
       cx="13.948145"
       cy="44.892841"
       fx="13.948145"
       fy="44.892841"
       r="43.199203" />
    <linearGradient
       inkscape:collect="always"
       xlink:href="#linearGradient3737"
       id="linearGradient4767"
       gradientUnits="userSpaceOnUse"
       x1="2.7713892"
       y1="-28.64156"
       x2="50.527882"
       y2="14.514202" />
    <clipPath
       id="clipPath4156-4-1"
       clipPathUnits="userSpaceOnUse">
      <path
         inkscape:connector-curvature="0"
         id="path4158-0-8"
         d="m 27.046336,-55.695463 -14.21366,13.321486 h 0.06127 l 15.653407,21.770763 10.231384,-10.546177 C 38.561832,-32.30156 27.468089,-54.819245 27.046336,-55.695463 Z M 9.6468554,-39.382809 -5.2407289,-25.32124 15.987863,-7.8059573 26.372412,-18.382966 Z m 31.4906096,12.951445 -9.741259,9.713584 8.944804,12.4580526 7.780753,-7.5550056 z m -49.8397109,4.378822 -13.7541661,12.9822847 26.2830181,13.84571 0.06127,-0.0617 -0.122531,-0.0617 L 13.598503,-5.4007374 -8.7022409,-22.052595 Z m 38.0154159,7.400825 -9.802525,9.7752596 11.579232,9.5594001 7.62759,-7.40083 -8.669108,-11.0087257 z m 20.187073,5.6739697 -7.382526,7.2158 6.187844,8.54179 5.820249,-6.13651996 z m -32.195166,6.32154 -9.5574606,9.49772 13.6622686,7.1849703 7.933918,-7.6783603 z m 23.311629,2.37443004 -7.10683,6.93826996 8.362778,6.9074403 5.360756,-5.6739699 -0.06127,-0.0925 -0.0919,0.12335 -6.463539,-8.20258036 z m -8.730374,8.54178036 -7.505057,7.3391599 10.353916,5.45811 c 1.397496,-1.32103 5.67514,-6.12292 5.850882,-6.32154 z"
         style="opacity:0.6;fill:#ffffff;fill-opacity:1;stroke:none" />
    </clipPath>
    <linearGradient
       id="ButtonShadow-16"
       gradientTransform="scale(1.0058652,0.994169)"
       x1="45.447727"
       y1="92.539597"
       x2="45.447727"
       y2="7.0165396"
       gradientUnits="userSpaceOnUse">
      <stop
         style="stop-color:#000000;stop-opacity:1;"
         offset="0"
         id="stop3750-6" />
      <stop
         style="stop-color:#000000;stop-opacity:0.58823532;"
         offset="1"
         id="stop3752-4" />
    </linearGradient>
    <clipPath
       clipPathUnits="userSpaceOnUse"
       id="clipPath4355-7">
      <rect
         style="fill:#ffffff;fill-opacity:1;fill-rule:nonzero;stroke:none"
         id="rect4357-5"
         width="84"
         height="80"
         x="6"
         y="6"
         rx="6"
         ry="6" />
    </clipPath>
    <clipPath
       clipPathUnits="userSpaceOnUse"
       id="clipPath4355-9">
      <rect
         style="fill:#ffffff;fill-opacity:1;fill-rule:nonzero;stroke:none"
         id="rect4357-1"
         width="84"
         height="80"
         x="6"
         y="6"
         rx="6"
         ry="6" />
    </clipPath>
    <clipPath
       clipPathUnits="userSpaceOnUse"
       id="clipPath4355-1">
      <rect
         style="fill:#ffffff;fill-opacity:1;fill-rule:nonzero;stroke:none"
         id="rect4357-9"
         width="84"
         height="80"
         x="6"
         y="6"
         rx="6"
         ry="6" />
    </clipPath>
    <clipPath
       clipPathUnits="userSpaceOnUse"
       id="clipPath3943-52-0">
      <path
         id="path3945-4-1"
         d="m 69.78125,20.84375 -5,3.4375 c 5.586891,5.537137 9,13.327613 9,21.8125 0,8.434478 -3.37723,16.095981 -8.90625,21.625 l 5,3.4375 C 76.078226,64.5762 80,55.843726 80,46.09375 c 2e-6,-9.796556 -3.962955,-18.660417 -10.21875,-25.25 z M 40,24.0625 28.90625,36.21875 H 21.5 c -0.823281,0 -1.5,0.676717 -1.5,1.5 v 1 14.84375 1 c 0,0.823281 0.684121,1.610161 1.5,1.5 h 7.40625 L 40,68 V 66 26.0625 Z m 20.59375,3.28125 -5,3.4375 L 55.5,30.875 c 3.93815,3.890071 6.40625,9.25018 6.40625,15.21875 0,5.920869 -2.42961,11.148358 -6.3125,15.03125 l 0.09375,0.09375 5.09375,3.4375 c 4.475428,-4.908367 7.25,-11.402005 7.25,-18.5625 0,-7.230696 -2.87904,-13.83107 -7.4375,-18.75 z m -9.25,6.5 -5.21875,3.625 c 2.222384,2.217802 3.71875,5.239596 3.71875,8.625 0,3.336509 -1.458847,6.227712 -3.625,8.4375 l 5.21875,3.625 c 2.822412,-3.236947 4.53125,-7.43414 4.53125,-12.0625 0,-4.672601 -1.754155,-9.001351 -4.625,-12.25 z"
         style="color:#000000;display:inline;overflow:visible;visibility:visible;opacity:0.8;fill:#ff00ff;fill-opacity:1;fill-rule:nonzero;stroke:none;stroke-width:1;marker:none;enable-background:accumulate"
         inkscape:connector-curvature="0" />
    </clipPath>
  </defs>
  <g
     id="g886">
    <path
       inkscape:connector-curvature="0"
       id="path3288"
       d="M 89.05714,0.1 H 6.9428494 C 3.1519157,0.1 0.09999993,3.151912 0.09999993,6.942854 V 89.057142 C 0.09999993,92.848085 3.1519157,95.9 6.9428494,95.9 H 89.05714 C 92.84808,95.9 95.9,92.848085 95.9,89.057142 V 6.942854 C 95.9,3.151912 92.84808,0.1 89.05714,0.1 Z"
       style="display:inline;opacity:0.15;fill:#000000;fill-opacity:1;fill-rule:nonzero;stroke:none;stroke-width:0.99791664" />
    <path
       style="display:inline;opacity:0.15;fill:#000000;fill-opacity:1;fill-rule:nonzero;stroke:none;stroke-width:0.99791664"
       d="M 88.415623,0.848437 H 7.5843662 c -3.7317016,0 -6.73593057,3.004227 -6.73593057,6.735934 v 80.831254 c 0,3.731709 3.00422897,6.735937 6.73593057,6.735937 H 88.415623 c 3.731711,0 6.73594,-3.004228 6.73594,-6.735937 V 7.584371 c 0,-3.731707 -3.004229,-6.735934 -6.73594,-6.735934 z"
       id="path4085"
       inkscape:connector-curvature="0" />
    <path
       inkscape:connector-curvature="0"
       id="rect4251-1"
       d="M 87.7741,1.596875 H 8.2258909 c -3.6724761,0 -6.6290174,2.956542 -6.6290174,6.629015 v 79.548218 c 0,3.672477 2.9565413,6.629017 6.6290174,6.629017 H 87.7741 c 3.672477,0 6.629015,-2.956542 6.629015,-6.629017 V 8.22589 c 0,-3.672473 -2.956538,-6.629015 -6.629015,-6.629015 z"
       style="display:inline;fill:url(#linearGradient4071);fill-opacity:1;fill-rule:nonzero;stroke:none;stroke-width:0.99791664" />
    <path
       sodipodi:nodetypes="sscccsccscccsss"
       inkscape:connector-curvature="0"
       id="path3400-6"
       d="m 11.317872,6.473835 c -2.8505458,0 -5.1134537,2.310918 -5.1134537,5.221937 v 21.638389 7.310708 40.30681 c 1.0949542,1.701075 2.9626637,2.839426 5.1134537,2.839426 h 4.090762 65.452205 5.656974 c 2.150792,0 2.452288,0.03629 3.547243,-1.664766 V 40.644869 33.334161 11.695772 c 0,-2.911019 -2.262908,-5.221937 -5.113455,-5.221937 z"
       style="display:inline;opacity:0.98000004;fill:#ebeff2;fill-opacity:1;fill-rule:nonzero;stroke:none;stroke-width:1.03348196" />
    <path
       id="path4118"
       d="m 1.5968725,81.773242 v 5.9875 c 0,3.672475 2.9699064,6.642383 6.6423825,6.642383 h 79.521483 c 3.672477,0 6.642387,-2.969908 6.642387,-6.642383 v -5.9875 c 0,3.672475 -2.96991,6.642383 -6.642387,6.642383 H 8.239255 c -3.6724761,0 -6.6423825,-2.969908 -6.6423825,-6.642383 z"
       style="display:inline;opacity:0.65818182;fill:url(#linearGradient4129);fill-opacity:1;fill-rule:nonzero;stroke:none;stroke-width:0.99791664"
       inkscape:connector-curvature="0" />
    <rect
       ry="4.2411456"
       rx="0"
       y="80.182816"
       x="5.4638"
       height="4.2411456"
       width="84.074486"
       id="rect4131"
       style="opacity:0.55;fill:url(#radialGradient7462);fill-opacity:1;stroke:none;stroke-width:0.99791664" />
    <rect
       transform="rotate(90)"
       style="opacity:0.669;fill:url(#radialGradient7464);fill-opacity:1;stroke:none;stroke-width:0.99791664"
       id="rect4141"
       width="76.590103"
       height="4.2411461"
       x="5.6484146"
       y="-89.99733"
       rx="0"
       ry="4.2411461" />
    <g
       id="g969"
       transform="matrix(2.5911537,0,0,2.5911537,-15.485032,-12.40603)">
      <rect
         rx="0.48364669"
         y="14.737147"
         x="16.182426"
         height="1.1815499"
         width="10.920741"
         style="fill:#000000;fill-opacity:1;stroke:none;stroke-width:4.50158644"
         id="rect25" />
      <rect
         width="16.381111"
         height="1.1815499"
         x="16.182426"
         y="17.100248"
         rx="0.48364669"
         style="fill:#000000;fill-opacity:1;stroke:none;stroke-width:4.50158644"
         id="rect27" />
      <rect
         rx="0.48364669"
         y="19.463348"
         x="16.182426"
         height="1.1815499"
         width="21.841482"
         style="fill:#000000;fill-opacity:1;stroke:none;stroke-width:4.50158644"
         id="rect29" />
      <path
         d="m 10.425958,36.872913 h 27.906409 c 2.427907,0 2.418235,0 2.418235,-2.027909 V 17.959732 L 24.369491,8.4989542 7.988378,17.959732 v 16.885272 c 0,2.027909 0,2.027909 2.43758,2.027909"
         style="fill:#4571d1;fill-opacity:1;fill-rule:nonzero;stroke:none;stroke-width:4.50158644"
         id="path35"
         inkscape:connector-curvature="0" />
      <path
         d="M 38.327531,36.872913 H 10.42112 c -2.432742,0 -2.432742,0 -2.432742,-1.98601 V 17.959732 l 32.757387,16.927171 c 0,1.98601 0,1.98601 -2.418234,1.98601"
         style="fill:#31b9f6;fill-opacity:1;fill-rule:nonzero;stroke:none;stroke-width:4.50158644"
         id="path37"
         inkscape:connector-curvature="0" />
      <path
         d="m 14.812632,36.717575 h 23.519735 c 2.427907,0 2.418235,0 2.418235,-1.98601 V 17.804394 L 9.3570977,36.725954"
         style="fill:#82d4fa;fill-opacity:1;fill-rule:nonzero;stroke:none;stroke-width:4.50158644"
         id="path39"
         inkscape:connector-curvature="0" />
      <path
         d="M 7.9932139,17.951352 24.374326,8.4905745 40.755438,17.951352"
         style="fill:#3d65cb;fill-opacity:1;stroke:none;stroke-width:4.50158644"
         id="path41"
         inkscape:connector-curvature="0" />
      <path
         d="m 23.005606,15.114795 -2.045826,1.655008 6.142313,4.730389 12.966565,-9.460779 -2.045824,-1.772324 -10.920741,8.279229"
         style="fill:#e2e2e2;fill-opacity:1;stroke:none;stroke-width:4.50158644"
         id="path43"
         inkscape:connector-curvature="0" />
    </g>
    <rect
       clip-path="url(#clipPath4156-4-1)"
       ry="3.9569881"
       rx="3.9569874"
       y="-30"
       x="2"
       height="69.024437"
       width="75.965775"
       id="rect4146"
       style="opacity:0.7;fill:url(#linearGradient4767);fill-opacity:1;stroke:none"
       transform="matrix(1.0670175,0,0,1.0455002,4.3862758,38.498821)" />
    <path
       style="color:#000000;font-style:normal;font-variant:normal;font-weight:normal;font-stretch:normal;font-size:medium;line-height:normal;font-family:Sans;-inkscape-font-specification:Sans;text-indent:0;text-align:start;text-decoration:none;text-decoration-line:none;letter-spacing:normal;word-spacing:normal;text-transform:none;writing-mode:lr-tb;direction:ltr;baseline-shift:baseline;text-anchor:start;display:inline;overflow:visible;visibility:visible;fill:#1f2224;fill-opacity:0.94841273;stroke:none;stroke-width:2.37055135;marker:none;enable-background:accumulate"
       d="m 9.9046092,4.819607 c -3.110128,0 -5.6561567,2.534219 -5.6561567,5.634243 v 69.133667 c 0,3.100022 2.5460287,5.63424 5.6561567,5.63424 H 86.53641 c 3.110129,0 5.65616,-2.534218 5.65616,-5.63424 V 10.45385 c 0,-3.100022 -2.546031,-5.634243 -5.65616,-5.634243 z m 0,2.314608 H 86.53641 c 1.884167,0 3.345039,1.47701 3.345039,3.319635 v 69.133667 c 0,1.842627 -1.460872,3.31963 -3.345039,3.31963 H 9.9046092 c -1.8841654,0 -3.3450386,-1.477003 -3.3450386,-3.31963 V 10.45385 c 0,-1.842625 1.4608732,-3.319635 3.3450386,-3.319635 z"
       id="path4989"
       inkscape:connector-curvature="0" />
  </g>
</svg>
