<?xml version="1.0" encoding="UTF-8" standalone="no"?>
<!-- Generator: Adobe Illustrator 18.0.0, SVG Export Plug-In . SVG Version: 6.00 Build 0)  -->

<svg
   xmlns:dc="http://purl.org/dc/elements/1.1/"
   xmlns:cc="http://creativecommons.org/ns#"
   xmlns:rdf="http://www.w3.org/1999/02/22-rdf-syntax-ns#"
   xmlns:svg="http://www.w3.org/2000/svg"
   xmlns="http://www.w3.org/2000/svg"
   xmlns:xlink="http://www.w3.org/1999/xlink"
   xmlns:sodipodi="http://sodipodi.sourceforge.net/DTD/sodipodi-0.dtd"
   xmlns:inkscape="http://www.inkscape.org/namespaces/inkscape"
   version="1.1"
   id="图层_1"
   x="0px"
   y="0px"
   viewBox="0 0 96 96"
   enable-background="new 0 0 48 48"
   xml:space="preserve"
   sodipodi:docname="wps-office.svg"
   width="96"
   height="96"
   inkscape:version="0.92.2 2405546, 2018-03-11"><metadata
   id="metadata22"><rdf:RDF><cc:Work
       rdf:about=""><dc:format>image/svg+xml</dc:format><dc:type
         rdf:resource="http://purl.org/dc/dcmitype/StillImage" /><dc:title></dc:title><dc:date>2019</dc:date><dc:creator><cc:Agent><dc:title>Cristian Pozzessere &lt; ilnanny &gt;</dc:title></cc:Agent></dc:creator><dc:subject><rdf:Bag><rdf:li>minions</rdf:li><rdf:li>wallpaperhd</rdf:li><rdf:li>ilnanny</rdf:li><rdf:li>inkscape</rdf:li><rdf:li>vectorart</rdf:li><rdf:li>1920x1080</rdf:li></rdf:Bag></dc:subject><dc:coverage>Italy</dc:coverage><dc:description>..when I have nothing to do, I scribble and have fun with inkscape.</dc:description><cc:license
         rdf:resource="http://creativecommons.org/licenses/by-sa/4.0/" /></cc:Work><cc:License
       rdf:about="http://creativecommons.org/licenses/by-sa/4.0/"><cc:permits
         rdf:resource="http://creativecommons.org/ns#Reproduction" /><cc:permits
         rdf:resource="http://creativecommons.org/ns#Distribution" /><cc:requires
         rdf:resource="http://creativecommons.org/ns#Notice" /><cc:requires
         rdf:resource="http://creativecommons.org/ns#Attribution" /><cc:permits
         rdf:resource="http://creativecommons.org/ns#DerivativeWorks" /><cc:requires
         rdf:resource="http://creativecommons.org/ns#ShareAlike" /></cc:License></rdf:RDF></metadata><defs
   id="defs20"><linearGradient
     inkscape:collect="always"
     id="linearGradient4765"><stop
       style="stop-color:#ee0000;stop-opacity:1"
       offset="0"
       id="stop4761" /><stop
       style="stop-color:#ff550a;stop-opacity:1"
       offset="1"
       id="stop4763" /></linearGradient><linearGradient
     id="linearGradient6139-0"><stop
       id="stop6141-2"
       offset="0"
       style="stop-color:#b2babc;stop-opacity:1" /><stop
       style="stop-color:#ffffff;stop-opacity:1;"
       offset="0.25"
       id="stop6151-0" /><stop
       style="stop-color:#96a1a4;stop-opacity:1"
       offset="0.5"
       id="stop6147-1" /><stop
       id="stop6149-4"
       offset="0.75"
       style="stop-color:#fbf9f9;stop-opacity:1;" /><stop
       id="stop6143-4"
       offset="1"
       style="stop-color:#b2b9bc;stop-opacity:1" /></linearGradient><linearGradient
     id="linearGradient3832-0-6-1-1"><stop
       style="stop-color:#000000;stop-opacity:1;"
       offset="0"
       id="stop3834-6-3-7-1" /><stop
       id="stop3872-2-4"
       offset="0.1"
       style="stop-color:#000000;stop-opacity:0.58823532;" /><stop
       style="stop-color:#000000;stop-opacity:0.58823532;"
       offset="0.89999998"
       id="stop3844-6-2-7-6" /><stop
       style="stop-color:#000000;stop-opacity:1;"
       offset="1"
       id="stop3836-5-0-2-9" /></linearGradient><linearGradient
     id="linearGradient3737"><stop
       offset="0"
       style="stop-color:#ffffff;stop-opacity:1"
       id="stop3739" /><stop
       offset="1"
       style="stop-color:#ffffff;stop-opacity:0"
       id="stop3741" /></linearGradient><clipPath
     id="clipPath4156-4-1"
     clipPathUnits="userSpaceOnUse"><path
       inkscape:connector-curvature="0"
       id="path4158-0-8"
       d="m 27.046336,-55.695463 -14.21366,13.321486 h 0.06127 l 15.653407,21.770763 10.231384,-10.546177 C 38.561832,-32.30156 27.468089,-54.819245 27.046336,-55.695463 Z M 9.6468554,-39.382809 -5.2407289,-25.32124 15.987863,-7.8059573 26.372412,-18.382966 Z m 31.4906096,12.951445 -9.741259,9.713584 8.944804,12.4580526 7.780753,-7.5550056 z m -49.8397109,4.378822 -13.7541661,12.9822847 26.2830181,13.84571 0.06127,-0.0617 -0.122531,-0.0617 L 13.598503,-5.4007374 -8.7022409,-22.052595 Z m 38.0154159,7.400825 -9.802525,9.7752596 11.579232,9.5594001 7.62759,-7.40083 -8.669108,-11.0087257 z m 20.187073,5.6739697 -7.382526,7.2158 6.187844,8.54179 5.820249,-6.13651996 z m -32.195166,6.32154 -9.5574606,9.49772 13.6622686,7.1849703 7.933918,-7.6783603 z m 23.311629,2.37443004 -7.10683,6.93826996 8.362778,6.9074403 5.360756,-5.6739699 -0.06127,-0.0925 -0.0919,0.12335 -6.463539,-8.20258036 z m -8.730374,8.54178036 -7.505057,7.3391599 10.353916,5.45811 c 1.397496,-1.32103 5.67514,-6.12292 5.850882,-6.32154 z"
       style="opacity:0.6;fill:#ffffff;fill-opacity:1;stroke:none" /></clipPath><linearGradient
     id="ButtonShadow-16"
     gradientTransform="scale(1.0058652,0.994169)"
     x1="45.447727"
     y1="92.539597"
     x2="45.447727"
     y2="7.0165396"
     gradientUnits="userSpaceOnUse"><stop
       style="stop-color:#000000;stop-opacity:1;"
       offset="0"
       id="stop3750-6" /><stop
       style="stop-color:#000000;stop-opacity:0.58823532;"
       offset="1"
       id="stop3752-4" /></linearGradient><clipPath
     clipPathUnits="userSpaceOnUse"
     id="clipPath4355-7"><rect
       style="fill:#ffffff;fill-opacity:1;fill-rule:nonzero;stroke:none"
       id="rect4357-5"
       width="84"
       height="80"
       x="6"
       y="6"
       rx="6"
       ry="6" /></clipPath><clipPath
     clipPathUnits="userSpaceOnUse"
     id="clipPath4355-9"><rect
       style="fill:#ffffff;fill-opacity:1;fill-rule:nonzero;stroke:none"
       id="rect4357-1"
       width="84"
       height="80"
       x="6"
       y="6"
       rx="6"
       ry="6" /></clipPath><clipPath
     clipPathUnits="userSpaceOnUse"
     id="clipPath4355-1"><rect
       style="fill:#ffffff;fill-opacity:1;fill-rule:nonzero;stroke:none"
       id="rect4357-9"
       width="84"
       height="80"
       x="6"
       y="6"
       rx="6"
       ry="6" /></clipPath><clipPath
     clipPathUnits="userSpaceOnUse"
     id="clipPath3943-52-0"><path
       id="path3945-4-1"
       d="m 69.78125,20.84375 -5,3.4375 c 5.586891,5.537137 9,13.327613 9,21.8125 0,8.434478 -3.37723,16.095981 -8.90625,21.625 l 5,3.4375 C 76.078226,64.5762 80,55.843726 80,46.09375 c 2e-6,-9.796556 -3.962955,-18.660417 -10.21875,-25.25 z M 40,24.0625 28.90625,36.21875 H 21.5 c -0.823281,0 -1.5,0.676717 -1.5,1.5 v 1 14.84375 1 c 0,0.823281 0.684121,1.610161 1.5,1.5 h 7.40625 L 40,68 V 66 26.0625 Z m 20.59375,3.28125 -5,3.4375 L 55.5,30.875 c 3.93815,3.890071 6.40625,9.25018 6.40625,15.21875 0,5.920869 -2.42961,11.148358 -6.3125,15.03125 l 0.09375,0.09375 5.09375,3.4375 c 4.475428,-4.908367 7.25,-11.402005 7.25,-18.5625 0,-7.230696 -2.87904,-13.83107 -7.4375,-18.75 z m -9.25,6.5 -5.21875,3.625 c 2.222384,2.217802 3.71875,5.239596 3.71875,8.625 0,3.336509 -1.458847,6.227712 -3.625,8.4375 l 5.21875,3.625 c 2.822412,-3.236947 4.53125,-7.43414 4.53125,-12.0625 0,-4.672601 -1.754155,-9.001351 -4.625,-12.25 z"
       style="color:#000000;display:inline;overflow:visible;visibility:visible;opacity:0.8;fill:#ff00ff;fill-opacity:1;fill-rule:nonzero;stroke:none;stroke-width:1;marker:none;enable-background:accumulate"
       inkscape:connector-curvature="0" /></clipPath><linearGradient
     inkscape:collect="always"
     xlink:href="#linearGradient6139-0"
     id="linearGradient4071"
     gradientUnits="userSpaceOnUse"
     gradientTransform="matrix(0.5500995,0,0,0.55067302,-2.5306921,46.783401)"
     x1="6"
     y1="47.000011"
     x2="90"
     y2="47.000011" /><linearGradient
     gradientTransform="matrix(0.49686411,0,0,0.49738219,0.02460841,48.790693)"
     inkscape:collect="always"
     xlink:href="#linearGradient3832-0-6-1-1"
     id="linearGradient4129"
     x1="1.5"
     y1="88.171875"
     x2="94.5"
     y2="88.171875"
     gradientUnits="userSpaceOnUse" /><radialGradient
     inkscape:collect="always"
     xlink:href="#linearGradient3737"
     id="radialGradient7462"
     gradientUnits="userSpaceOnUse"
     gradientTransform="matrix(0.48450896,0,0,0.02446659,16.867653,88.664181)"
     cx="13.948145"
     cy="44.892841"
     fx="13.948145"
     fy="44.892841"
     r="43.199203" /><radialGradient
     inkscape:collect="always"
     xlink:href="#linearGradient3737"
     id="radialGradient7464"
     gradientUnits="userSpaceOnUse"
     gradientTransform="matrix(0.44183785,0,0,0.0244411,64.480362,-44.826002)"
     cx="13.948145"
     cy="44.892841"
     fx="13.948145"
     fy="44.892841"
     r="43.199203" /><linearGradient
     gradientTransform="matrix(1.0041884,0,0,1.0052356,-0.21820995,-0.04755458)"
     inkscape:collect="always"
     xlink:href="#linearGradient3737"
     id="linearGradient4767"
     gradientUnits="userSpaceOnUse"
     x1="2.7713892"
     y1="-28.64156"
     x2="50.527882"
     y2="14.514202" /><clipPath
     id="clipPath4156-4-1-7"
     clipPathUnits="userSpaceOnUse"><path
       inkscape:connector-curvature="0"
       id="path4158-0-8-0"
       d="m 27.046336,-55.695463 -14.21366,13.321486 h 0.06127 l 15.653407,21.770763 10.231384,-10.546177 C 38.561832,-32.30156 27.468089,-54.819245 27.046336,-55.695463 Z M 9.6468554,-39.382809 -5.2407289,-25.32124 15.987863,-7.8059573 26.372412,-18.382966 Z m 31.4906096,12.951445 -9.741259,9.713584 8.944804,12.4580526 7.780753,-7.5550056 z m -49.8397109,4.378822 -13.7541661,12.9822847 26.2830181,13.84571 0.06127,-0.0617 -0.122531,-0.0617 L 13.598503,-5.4007374 -8.7022409,-22.052595 Z m 38.0154159,7.400825 -9.802525,9.7752596 11.579232,9.5594001 7.62759,-7.40083 -8.669108,-11.0087257 z m 20.187073,5.6739697 -7.382526,7.2158 6.187844,8.54179 5.820249,-6.13651996 z m -32.195166,6.32154 -9.5574606,9.49772 13.6622686,7.1849703 7.933918,-7.6783603 z m 23.311629,2.37443004 -7.10683,6.93826996 8.362778,6.9074403 5.360756,-5.6739699 -0.06127,-0.0925 -0.0919,0.12335 -6.463539,-8.20258036 z m -8.730374,8.54178036 -7.505057,7.3391599 10.353916,5.45811 c 1.397496,-1.32103 5.67514,-6.12292 5.850882,-6.32154 z"
       style="opacity:0.6;fill:#ffffff;fill-opacity:1;stroke:none" /></clipPath><clipPath
     clipPathUnits="userSpaceOnUse"
     id="clipPath4355-7-6"><rect
       style="fill:#ffffff;fill-opacity:1;fill-rule:nonzero;stroke:none"
       id="rect4357-5-0"
       width="84"
       height="80"
       x="6"
       y="6"
       rx="6"
       ry="6" /></clipPath><clipPath
     clipPathUnits="userSpaceOnUse"
     id="clipPath4355-9-6"><rect
       style="fill:#ffffff;fill-opacity:1;fill-rule:nonzero;stroke:none"
       id="rect4357-1-2"
       width="84"
       height="80"
       x="6"
       y="6"
       rx="6"
       ry="6" /></clipPath><clipPath
     clipPathUnits="userSpaceOnUse"
     id="clipPath4355-1-6"><rect
       style="fill:#ffffff;fill-opacity:1;fill-rule:nonzero;stroke:none"
       id="rect4357-9-1"
       width="84"
       height="80"
       x="6"
       y="6"
       rx="6"
       ry="6" /></clipPath><clipPath
     clipPathUnits="userSpaceOnUse"
     id="clipPath3943-52-0-8"><path
       id="path3945-4-1-7"
       d="m 69.78125,20.84375 -5,3.4375 c 5.586891,5.537137 9,13.327613 9,21.8125 0,8.434478 -3.37723,16.095981 -8.90625,21.625 l 5,3.4375 C 76.078226,64.5762 80,55.843726 80,46.09375 c 2e-6,-9.796556 -3.962955,-18.660417 -10.21875,-25.25 z M 40,24.0625 28.90625,36.21875 H 21.5 c -0.823281,0 -1.5,0.676717 -1.5,1.5 v 1 14.84375 1 c 0,0.823281 0.684121,1.610161 1.5,1.5 h 7.40625 L 40,68 V 66 26.0625 Z m 20.59375,3.28125 -5,3.4375 L 55.5,30.875 c 3.93815,3.890071 6.40625,9.25018 6.40625,15.21875 0,5.920869 -2.42961,11.148358 -6.3125,15.03125 l 0.09375,0.09375 5.09375,3.4375 c 4.475428,-4.908367 7.25,-11.402005 7.25,-18.5625 0,-7.230696 -2.87904,-13.83107 -7.4375,-18.75 z m -9.25,6.5 -5.21875,3.625 c 2.222384,2.217802 3.71875,5.239596 3.71875,8.625 0,3.336509 -1.458847,6.227712 -3.625,8.4375 l 5.21875,3.625 c 2.822412,-3.236947 4.53125,-7.43414 4.53125,-12.0625 0,-4.672601 -1.754155,-9.001351 -4.625,-12.25 z"
       style="color:#000000;display:inline;overflow:visible;visibility:visible;opacity:0.8;fill:#ff00ff;fill-opacity:1;fill-rule:nonzero;stroke:none;stroke-width:1;marker:none;enable-background:accumulate"
       inkscape:connector-curvature="0" /></clipPath><linearGradient
     inkscape:collect="always"
     xlink:href="#linearGradient4765"
     id="linearGradient4768"
     x1="9.307478"
     y1="76.940536"
     x2="36.120377"
     y2="56.230698"
     gradientUnits="userSpaceOnUse" /><linearGradient
     inkscape:collect="always"
     xlink:href="#linearGradient4765"
     id="linearGradient4786"
     gradientUnits="userSpaceOnUse"
     x1="9.307478"
     y1="76.940536"
     x2="36.120377"
     y2="56.230698" /></defs><sodipodi:namedview
   pagecolor="#ffffff"
   bordercolor="#666666"
   borderopacity="1"
   objecttolerance="10"
   gridtolerance="10"
   guidetolerance="10"
   inkscape:pageopacity="0"
   inkscape:pageshadow="2"
   inkscape:window-width="1920"
   inkscape:window-height="1048"
   id="namedview18"
   showgrid="false"
   inkscape:zoom="3.4766083"
   inkscape:cx="28.271186"
   inkscape:cy="71.612219"
   inkscape:window-x="0"
   inkscape:window-y="0"
   inkscape:window-maximized="1"
   inkscape:current-layer="g869" />
<g
   transform="translate(-1e-6,-1026.5197)"
   id="layer1"
   inkscape:label="Livello 1"><g
     id="g2574"
     style="display:inline"
     transform="translate(-0.14895645,1026.1047)"><g
       transform="translate(0.2500015,-0.250026)"
       id="g873"><g
         id="g869"><g
           id="g4784"
           transform="matrix(2.0105263,0,0,2.0105263,-0.15052353,-97.42992)"><path
             inkscape:connector-curvature="0"
             id="path3288"
             d="M 44.256097,48.915026 H 3.5418093 c -1.8796384,0 -3.3928534,1.513214 -3.3928534,3.392856 v 40.714287 c 0,1.879643 1.513215,3.392857 3.3928534,3.392857 H 44.256097 c 1.879643,0 3.392859,-1.513214 3.392859,-3.392857 V 52.307882 c 0,-1.879642 -1.513216,-3.392856 -3.392859,-3.392856 z"
             style="display:inline;opacity:0.15;fill:#000000;fill-opacity:1;fill-rule:nonzero;stroke:none;stroke-width:0.49712294" /><path
             style="display:inline;opacity:0.15;fill:#000000;fill-opacity:1;fill-rule:nonzero;stroke:none;stroke-width:0.49712294"
             d="M 43.938018,49.28612 H 3.859889 c -1.8502695,0 -3.33984025,1.48957 -3.33984025,3.339842 v 40.078127 c 0,1.850273 1.48957075,3.339843 3.33984025,3.339843 h 40.078129 c 1.850273,0 3.339844,-1.48957 3.339844,-3.339843 V 52.625962 c 0,-1.850272 -1.489571,-3.339842 -3.339844,-3.339842 z"
             id="path4085"
             inkscape:connector-curvature="0" /><path
             inkscape:connector-curvature="0"
             id="rect4251-1"
             d="M 43.619934,49.657213 H 4.1779728 c -1.8209041,0 -3.28683008,1.465926 -3.28683008,3.28683 v 39.441966 c 0,1.820904 1.46592598,3.28683 3.28683008,3.28683 H 43.619934 c 1.820906,0 3.28683,-1.465926 3.28683,-3.28683 V 52.944043 c 0,-1.820904 -1.465924,-3.28683 -3.28683,-3.28683 z"
             style="display:inline;fill:url(#linearGradient4071);fill-opacity:1;fill-rule:nonzero;stroke:none;stroke-width:0.49712294" /><rect
             style="opacity:1;fill:url(#linearGradient4786);fill-opacity:1;stroke:none;stroke-width:0.35375407;stroke-miterlimit:4;stroke-dasharray:none;stroke-opacity:1"
             id="rect862"
             width="42.057644"
             height="38.309101"
             x="2.9794714"
             y="52.033257"
             rx="1.1772746"
             ry="1.4911714" /><path
             style="color:#000000;font-style:normal;font-variant:normal;font-weight:normal;font-stretch:normal;font-size:medium;line-height:normal;font-family:Sans;-inkscape-font-specification:Sans;text-indent:0;text-align:start;text-decoration:none;text-decoration-line:none;letter-spacing:normal;word-spacing:normal;text-transform:none;writing-mode:lr-tb;direction:ltr;baseline-shift:baseline;text-anchor:start;display:inline;overflow:visible;visibility:visible;fill:#202223;fill-opacity:0.93689324;stroke:none;stroke-width:1.18091595;marker:none;enable-background:accumulate"
             d="m 5.0103227,51.255124 c -1.5420782,0 -2.8044618,1.256528 -2.8044618,2.793595 v 34.278176 c 0,1.537067 1.2623836,2.793596 2.8044618,2.793596 H 43.006257 c 1.542079,0 2.804464,-1.256529 2.804464,-2.793596 V 54.048719 c 0,-1.537066 -1.262385,-2.793595 -2.804464,-2.793595 z m 0,1.147639 H 43.006257 c 0.934216,0 1.658553,0.732339 1.658553,1.645956 v 34.278176 c 0,0.913619 -0.724337,1.645956 -1.658553,1.645956 H 5.0103227 c -0.9342157,0 -1.6585526,-0.732337 -1.6585526,-1.645956 V 54.048719 c 0,-0.913617 0.7243369,-1.645956 1.6585526,-1.645956 z"
             id="path4989"
             inkscape:connector-curvature="0" /><path
             id="path4118"
             d="m 0.89114222,89.410631 v 2.96875 c 0,1.820904 1.47255268,3.293458 3.29345678,3.293458 h 39.42871 c 1.820905,0 3.29346,-1.472554 3.29346,-3.293458 v -2.96875 c 0,1.820904 -1.472555,3.293458 -3.29346,3.293458 H 4.184599 c -1.8209041,0 -3.29345678,-1.472554 -3.29345678,-3.293458 z"
             style="display:inline;opacity:0.65818182;fill:url(#linearGradient4129);fill-opacity:1;fill-rule:nonzero;stroke:none;stroke-width:0.49712294"
             inkscape:connector-curvature="0" /><rect
             ry="2.1138744"
             rx="2.1138744"
             y="88.622055"
             x="2.80846"
             height="2.102865"
             width="41.686203"
             id="rect4131"
             style="opacity:0.55;fill:url(#radialGradient7462);fill-opacity:1;stroke:none;stroke-width:0.49712294" /><rect
             transform="rotate(90)"
             style="opacity:0.669;fill:url(#radialGradient7464);fill-opacity:1;stroke:none;stroke-width:0.49712294"
             id="rect4141"
             width="37.975258"
             height="2.102865"
             x="51.666065"
             y="-44.722256"
             rx="2.1116724"
             ry="2.1116724" /><rect
             clip-path="url(#clipPath4156-4-1-7)"
             ry="3.9777055"
             rx="3.973561"
             y="-30"
             x="2"
             height="69.024437"
             width="75.965775"
             id="rect4146"
             style="opacity:0.65;fill:url(#linearGradient4767);fill-opacity:1;stroke:none;stroke-width:1.00471163"
             transform="matrix(0.52905357,0,0,0.51838486,2.2741971,67.954109)" /><g
             id="g4730"
             transform="matrix(1.1316447,0,0,1.1316447,-3.2433645,46.088813)"><g
               id="g4720"
               style="opacity:0.24500002;fill:none;stroke:#0b0002;stroke-width:2.00000024;stroke-miterlimit:4;stroke-dasharray:none;stroke-opacity:1"><path
                 style="fill:none;stroke:#0b0002;stroke-width:2.00000024;stroke-miterlimit:4;stroke-dasharray:none;stroke-opacity:1"
                 inkscape:connector-curvature="0"
                 id="path15"
                 d="m 28.707815,34.327 c -0.067,0 -0.235,-0.019 -0.338,-0.193 l -3.011,-5.09 2.346,-3.961 1.002,2.081 5.546,-9.502 -4.916,-0.002 -9.707,16.494 c -0.103,0.174 -0.271,0.184 -0.338,0.184 -0.067,0 -0.235,-0.024 -0.338,-0.198 L 8.2768154,16.088 c -0.363,-0.614 -0.369,-1.083 -0.016,-1.703 0.354,-0.62 0.991,-0.723 1.704,-0.723 H 20.945815 l 1.707,2.752 -2.408,4.427 -1.982,-3.179 h -4.515 l 5.545,9.501 7.761,-13.501 h 10.981 c 0.713,0 1.351,0.102 1.704,0.722 0.353,0.62 0.348,1.222 -0.016,1.836 l -10.616,17.878 c -0.103,0.174 -0.331,0.229 -0.399,0.229 z" /></g><g
               style="fill:#ffffff;fill-opacity:1;stroke:none;stroke-width:2.00000024;stroke-miterlimit:4;stroke-dasharray:none;stroke-opacity:1"
               id="g4724"><path
                 d="m 28.707815,34.327 c -0.067,0 -0.235,-0.019 -0.338,-0.193 l -3.011,-5.09 2.346,-3.961 1.002,2.081 5.546,-9.502 -4.916,-0.002 -9.707,16.494 c -0.103,0.174 -0.271,0.184 -0.338,0.184 -0.067,0 -0.235,-0.024 -0.338,-0.198 L 8.2768154,16.088 c -0.363,-0.614 -0.369,-1.083 -0.016,-1.703 0.354,-0.62 0.991,-0.723 1.704,-0.723 H 20.945815 l 1.707,2.752 -2.408,4.427 -1.982,-3.179 h -4.515 l 5.545,9.501 7.761,-13.501 h 10.981 c 0.713,0 1.351,0.102 1.704,0.722 0.353,0.62 0.348,1.222 -0.016,1.836 l -10.616,17.878 c -0.103,0.174 -0.331,0.229 -0.399,0.229 z"
                 id="path4722"
                 inkscape:connector-curvature="0"
                 style="fill:#ffffff;fill-opacity:1;stroke:none;stroke-width:2.00000024;stroke-miterlimit:4;stroke-dasharray:none;stroke-opacity:1" /></g></g></g></g></g></g></g>

</svg>