<?xml version="1.0" encoding="UTF-8" standalone="no"?>
<svg
   xmlns:dc="http://purl.org/dc/elements/1.1/"
   xmlns:cc="http://creativecommons.org/ns#"
   xmlns:rdf="http://www.w3.org/1999/02/22-rdf-syntax-ns#"
   xmlns:svg="http://www.w3.org/2000/svg"
   xmlns="http://www.w3.org/2000/svg"
   xmlns:xlink="http://www.w3.org/1999/xlink"
   xmlns:sodipodi="http://sodipodi.sourceforge.net/DTD/sodipodi-0.dtd"
   xmlns:inkscape="http://www.inkscape.org/namespaces/inkscape"
   sodipodi:docname="x.svg"
   inkscape:version="1.0beta2 (2b71d25d45, 2019-12-03)"
   version="1.1"
   id="svg4252"
   height="96"
   width="96">
  <defs
     id="defs4254">
    <linearGradient
       id="linearGradient4027">
      <stop
         id="stop4029"
         offset="0"
         style="stop-color:#3e42dd;stop-opacity:1;" />
      <stop
         style="stop-color:#d3ef20;stop-opacity:1;"
         offset="0.26770818"
         id="stop4037" />
      <stop
         style="stop-color:#04b2ff;stop-opacity:1;"
         offset="0.47116485"
         id="stop4035" />
      <stop
         style="stop-color:#e20b74;stop-opacity:1;"
         offset="0.68591207"
         id="stop4033" />
      <stop
         id="stop4031"
         offset="1"
         style="stop-color:#00c04b;stop-opacity:1;" />
    </linearGradient>
    <linearGradient
       id="linearGradient5063">
      <stop
         style="stop-color:#6b9ab0;stop-opacity:1;"
         offset="0"
         id="stop5065" />
      <stop
         style="stop-color:#466b7a;stop-opacity:1;"
         offset="1"
         id="stop5067" />
    </linearGradient>
    <linearGradient
       id="linearGradient5057">
      <stop
         id="stop5059"
         offset="0"
         style="stop-color:#ff830a;stop-opacity:1;" />
      <stop
         id="stop5061"
         offset="1"
         style="stop-color:#b55f0b;stop-opacity:1;" />
    </linearGradient>
    <linearGradient
       id="linearGradient5051">
      <stop
         style="stop-color:#c60aff;stop-opacity:1;"
         offset="0"
         id="stop5053" />
      <stop
         style="stop-color:#9b0bb5;stop-opacity:1;"
         offset="1"
         id="stop5055" />
    </linearGradient>
    <linearGradient
       id="linearGradient5045">
      <stop
         id="stop5047"
         offset="0"
         style="stop-color:#2fff0a;stop-opacity:1;" />
      <stop
         id="stop5049"
         offset="1"
         style="stop-color:#16b50b;stop-opacity:1;" />
    </linearGradient>
    <linearGradient
       id="linearGradient5039">
      <stop
         style="stop-color:#ff0a0a;stop-opacity:1;"
         offset="0"
         id="stop5041" />
      <stop
         style="stop-color:#c00000;stop-opacity:1;"
         offset="1"
         id="stop5043" />
    </linearGradient>
    <linearGradient
       id="linearGradient5029">
      <stop
         id="stop5031"
         offset="0"
         style="stop-color:#0a9aff;stop-opacity:1;" />
      <stop
         id="stop5033"
         offset="1"
         style="stop-color:#0070c0;stop-opacity:1;" />
    </linearGradient>
    <linearGradient
       inkscape:collect="always"
       xlink:href="#linearGradient6139-0"
       id="linearGradient3825"
       gradientUnits="userSpaceOnUse"
       gradientTransform="matrix(1.0956098,0,0,1.0956096,-4.939287,-3.8436738)"
       x1="6"
       y1="47.000011"
       x2="90"
       y2="47.000011" />
    <linearGradient
       id="linearGradient6139-0">
      <stop
         style="stop-color:#bac0cb;stop-opacity:1"
         offset="0"
         id="stop6141-2" />
      <stop
         id="stop6151-0"
         offset="0.25"
         style="stop-color:#ffffff;stop-opacity:1;" />
      <stop
         id="stop6147-1"
         offset="0.5"
         style="stop-color:#b0b4c3;stop-opacity:1" />
      <stop
         style="stop-color:#fbf9f9;stop-opacity:1;"
         offset="0.75"
         id="stop6149-4" />
      <stop
         style="stop-color:#b6bbc8;stop-opacity:1"
         offset="1"
         id="stop6143-4" />
    </linearGradient>
    <radialGradient
       inkscape:collect="always"
       xlink:href="#linearGradient4091-0-3-0-7"
       id="radialGradient3827"
       gradientUnits="userSpaceOnUse"
       gradientTransform="matrix(-1.1746832,0,0,-0.9586808,104.03483,-24.250008)"
       cx="48"
       cy="-27"
       fx="48"
       fy="-27"
       r="42" />
    <linearGradient
       id="linearGradient4091-0-3-0-7">
      <stop
         id="stop4093-3-6-4-2"
         offset="0"
         style="stop-color:#ffffff;stop-opacity:1;" />
      <stop
         style="stop-color:#ffffff;stop-opacity:1;"
         offset="0.80000001"
         id="stop4099-6-1-8-3" />
      <stop
         id="stop4095-1-0-7-9"
         offset="1"
         style="stop-color:#ffffff;stop-opacity:0;" />
    </linearGradient>
    <linearGradient
       inkscape:collect="always"
       xlink:href="#linearGradient3832-0-6-1-1"
       id="linearGradient3829"
       gradientUnits="userSpaceOnUse"
       gradientTransform="matrix(0.98958333,0,0,0.98958333,0.14999781,0.15)"
       x1="1.5"
       y1="88.171875"
       x2="94.5"
       y2="88.171875" />
    <linearGradient
       id="linearGradient3832-0-6-1-1">
      <stop
         id="stop3834-6-3-7-1"
         offset="0"
         style="stop-color:#000000;stop-opacity:1;" />
      <stop
         style="stop-color:#000000;stop-opacity:0.58823532;"
         offset="0.1"
         id="stop3872-2-4" />
      <stop
         id="stop3844-6-2-7-6"
         offset="0.89999998"
         style="stop-color:#000000;stop-opacity:0.58823532;" />
      <stop
         id="stop3836-5-0-2-9"
         offset="1"
         style="stop-color:#000000;stop-opacity:1;" />
    </linearGradient>
    <radialGradient
       inkscape:collect="always"
       xlink:href="#linearGradient4133"
       id="radialGradient3831"
       gradientUnits="userSpaceOnUse"
       gradientTransform="matrix(0.97513378,0,0,0.04919072,-4.148257,101.31932)"
       cx="13.948145"
       cy="44.892841"
       fx="13.948145"
       fy="44.892841"
       r="43.199203" />
    <linearGradient
       id="linearGradient4133"
       inkscape:collect="always">
      <stop
         id="stop4135"
         offset="0"
         style="stop-color:#ffffff;stop-opacity:1;" />
      <stop
         id="stop4137"
         offset="1"
         style="stop-color:#ffffff;stop-opacity:0;" />
    </linearGradient>
    <radialGradient
       inkscape:collect="always"
       xlink:href="#linearGradient4133"
       id="radialGradient3833"
       gradientUnits="userSpaceOnUse"
       gradientTransform="matrix(0.88832663,0,0,0.04919072,51.887113,-52.752262)"
       cx="13.948145"
       cy="44.892841"
       fx="13.948145"
       fy="44.892841"
       r="43.199203" />
    <linearGradient
       gradientTransform="scale(1.0058652,0.994169)"
       gradientUnits="userSpaceOnUse"
       id="ButtonShadow-1"
       y2="7.0165396"
       x2="45.447727"
       y1="92.539597"
       x1="45.447727">
      <stop
         offset="0"
         style="stop-color:#000000;stop-opacity:1"
         id="stop3750-9" />
      <stop
         offset="1"
         style="stop-color:#000000;stop-opacity:0.58823532"
         id="stop3752-9" />
    </linearGradient>
    <filter
       id="filter3174-3"
       color-interpolation-filters="sRGB">
      <feGaussianBlur
         stdDeviation="1.71"
         id="feGaussianBlur3176-6" />
    </filter>
    <linearGradient
       inkscape:collect="always"
       xlink:href="#linearGradient4213-7"
       id="linearGradient3837"
       gradientUnits="userSpaceOnUse"
       x1="2.7713892"
       y1="-28.64156"
       x2="50.527882"
       y2="14.514202" />
    <linearGradient
       id="linearGradient4213-7"
       inkscape:collect="always">
      <stop
         id="stop4215-6"
         offset="0"
         style="stop-color:#ffffff;stop-opacity:1;" />
      <stop
         id="stop4217-5"
         offset="1"
         style="stop-color:#ffffff;stop-opacity:0;" />
    </linearGradient>
    <clipPath
       id="clipPath4156-4"
       clipPathUnits="userSpaceOnUse">
      <path
         inkscape:connector-curvature="0"
         id="path4158-0"
         d="m 27.046336,-55.695463 -14.21366,13.321486 0.06127,0 15.653407,21.770763 10.231384,-10.546177 C 38.561832,-32.30156 27.468089,-54.819245 27.046336,-55.695463 z M 9.6468554,-39.382809 -5.2407289,-25.32124 15.987863,-7.8059573 26.372412,-18.382966 9.6468554,-39.382809 z m 31.4906096,12.951445 -9.741259,9.713584 8.944804,12.4580526 7.780753,-7.5550056 -6.984298,-14.616631 z m -49.8397109,4.378822 -13.7541661,12.9822847 26.2830181,13.84571 0.06127,-0.0617 -0.122531,-0.0617 L 13.598503,-5.4007374 -8.7022409,-22.052595 z m 38.0154159,7.400825 -9.802525,9.7752596 11.579232,9.5594001 7.62759,-7.40083 -8.669108,-11.0087257 -0.735189,-0.925104 z m 20.187073,5.6739697 -7.382526,7.2158 6.187844,8.54179 5.820249,-6.13651996 -4.625567,-9.62107004 z m -32.195166,6.32154 -9.5574606,9.49772 13.6622686,7.1849703 7.933918,-7.6783603 -12.038726,-9.00433 z m 23.311629,2.37443004 -7.10683,6.93826996 8.362778,6.9074403 5.360756,-5.6739699 -0.06127,-0.0925 -0.0919,0.12335 -6.463539,-8.20258036 z m -8.730374,8.54178036 -7.505057,7.3391599 10.353916,5.45811 c 1.397496,-1.32103 5.67514,-6.12292 5.850882,-6.32154 L 31.886332,8.2600031 z"
         style="opacity:0.6;fill:#ffffff;fill-opacity:1;stroke:none" />
    </clipPath>
    <linearGradient
       inkscape:collect="always"
       xlink:href="#linearGradient4213-7-8"
       id="linearGradient3837-7"
       gradientUnits="userSpaceOnUse"
       x1="2.7713892"
       y1="-28.64156"
       x2="50.527882"
       y2="14.514202" />
    <linearGradient
       id="linearGradient4213-7-8"
       inkscape:collect="always">
      <stop
         id="stop4215-6-5"
         offset="0"
         style="stop-color:#ffffff;stop-opacity:1;" />
      <stop
         id="stop4217-5-2"
         offset="1"
         style="stop-color:#ffffff;stop-opacity:0;" />
    </linearGradient>
    <clipPath
       id="clipPath4156-4-6"
       clipPathUnits="userSpaceOnUse">
      <path
         inkscape:connector-curvature="0"
         id="path4158-0-3"
         d="m 27.046336,-55.695463 -14.21366,13.321486 0.06127,0 15.653407,21.770763 10.231384,-10.546177 C 38.561832,-32.30156 27.468089,-54.819245 27.046336,-55.695463 z M 9.6468554,-39.382809 -5.2407289,-25.32124 15.987863,-7.8059573 26.372412,-18.382966 9.6468554,-39.382809 z m 31.4906096,12.951445 -9.741259,9.713584 8.944804,12.4580526 7.780753,-7.5550056 -6.984298,-14.616631 z m -49.8397109,4.378822 -13.7541661,12.9822847 26.2830181,13.84571 0.06127,-0.0617 -0.122531,-0.0617 L 13.598503,-5.4007374 -8.7022409,-22.052595 z m 38.0154159,7.400825 -9.802525,9.7752596 11.579232,9.5594001 7.62759,-7.40083 -8.669108,-11.0087257 -0.735189,-0.925104 z m 20.187073,5.6739697 -7.382526,7.2158 6.187844,8.54179 5.820249,-6.13651996 -4.625567,-9.62107004 z m -32.195166,6.32154 -9.5574606,9.49772 13.6622686,7.1849703 7.933918,-7.6783603 -12.038726,-9.00433 z m 23.311629,2.37443004 -7.10683,6.93826996 8.362778,6.9074403 5.360756,-5.6739699 -0.06127,-0.0925 -0.0919,0.12335 -6.463539,-8.20258036 z m -8.730374,8.54178036 -7.505057,7.3391599 10.353916,5.45811 c 1.397496,-1.32103 5.67514,-6.12292 5.850882,-6.32154 L 31.886332,8.2600031 z"
         style="opacity:0.6;fill:#ffffff;fill-opacity:1;stroke:none" />
    </clipPath>
    <linearGradient
       y2="14.514202"
       x2="50.527882"
       y1="-28.64156"
       x1="2.7713892"
       gradientUnits="userSpaceOnUse"
       id="linearGradient4967"
       xlink:href="#linearGradient4213-7-8"
       inkscape:collect="always" />
    <radialGradient
       inkscape:collect="always"
       xlink:href="#linearGradient4133-5"
       id="radialGradient3833-1"
       gradientUnits="userSpaceOnUse"
       gradientTransform="matrix(0.87907323,0,0,0.04867832,29.226149,-88.851521)"
       cx="13.948145"
       cy="44.892841"
       fx="13.948145"
       fy="44.892841"
       r="43.199203" />
    <linearGradient
       id="linearGradient4133-5"
       inkscape:collect="always">
      <stop
         id="stop4135-4"
         offset="0"
         style="stop-color:#ffffff;stop-opacity:1;" />
      <stop
         id="stop4137-5"
         offset="1"
         style="stop-color:#ffffff;stop-opacity:0;" />
    </linearGradient>
    <radialGradient
       inkscape:collect="always"
       xlink:href="#linearGradient4133-5"
       id="radialGradient3831-7"
       gradientUnits="userSpaceOnUse"
       gradientTransform="matrix(0.97513378,0,0,0.04919072,-4.148257,101.31932)"
       cx="13.948145"
       cy="44.892841"
       fx="13.948145"
       fy="44.892841"
       r="43.199203" />
    <radialGradient
       inkscape:collect="always"
       xlink:href="#linearGradient4133-5"
       id="radialGradient4992"
       gradientUnits="userSpaceOnUse"
       gradientTransform="matrix(0.9649762,0,0,0.04867832,32.543707,78.143436)"
       cx="13.948145"
       cy="44.892841"
       fx="13.948145"
       fy="44.892841"
       r="43.199203" />
    <linearGradient
       inkscape:collect="always"
       xlink:href="#linearGradient4195"
       id="linearGradient4182"
       x1="416.77158"
       y1="544.22021"
       x2="416.77158"
       y2="503.29916"
       gradientUnits="userSpaceOnUse" />
    <linearGradient
       inkscape:collect="always"
       xlink:href="#linearGradient3306"
       id="linearGradient3344"
       gradientUnits="userSpaceOnUse"
       x1="419.98981"
       y1="-554.12268"
       x2="423.9259"
       y2="-539.43292"
       gradientTransform="matrix(1,0,0,-1,-384.57143,-499.798)" />
    <linearGradient
       inkscape:collect="always"
       xlink:href="#linearGradient3323"
       id="linearGradient3337"
       gradientUnits="userSpaceOnUse"
       gradientTransform="matrix(1,0,0,-1,-384.57143,-499.798)"
       x1="381.40909"
       y1="-494.98669"
       x2="407.81473"
       y2="-521.39233" />
    <linearGradient
       inkscape:collect="always"
       xlink:href="#linearGradient3323"
       id="linearGradient3320"
       gradientUnits="userSpaceOnUse"
       x1="409.71216"
       y1="-546.8493"
       x2="426.77899"
       y2="-517.2887"
       gradientTransform="matrix(1,0,0,-1,-36.512423,23.141676)" />
    <linearGradient
       gradientTransform="translate(-29.82705,-46.283353)"
       inkscape:collect="always"
       xlink:href="#linearGradient3306"
       id="linearGradient3312"
       x1="417.61804"
       y1="-547.80786"
       x2="417.61804"
       y2="-499.79941"
       gradientUnits="userSpaceOnUse" />
    <linearGradient
       inkscape:collect="always"
       id="linearGradient3306">
      <stop
         style="stop-color:#0ed2e4;stop-opacity:1"
         offset="0"
         id="stop3308" />
      <stop
         style="stop-color:#c7f5f9;stop-opacity:1"
         offset="1"
         id="stop3310" />
    </linearGradient>
    <linearGradient
       id="linearGradient3323"
       inkscape:collect="always">
      <stop
         id="stop3325"
         offset="0"
         style="stop-color:#f31a69;stop-opacity:1" />
      <stop
         id="stop3327"
         offset="1"
         style="stop-color:#fe6d45;stop-opacity:1" />
    </linearGradient>
    <linearGradient
       id="linearGradient4195"
       inkscape:collect="always">
      <stop
         id="stop4197"
         offset="0"
         style="stop-color:#dee4e4;stop-opacity:1" />
      <stop
         id="stop4199"
         offset="1"
         style="stop-color:#f2f2f0;stop-opacity:1" />
    </linearGradient>
    <linearGradient
       y2="503.29916"
       x2="416.77158"
       y1="544.22021"
       x1="416.77158"
       gradientUnits="userSpaceOnUse"
       id="linearGradient4004"
       xlink:href="#linearGradient4195"
       inkscape:collect="always" />
    <linearGradient
       gradientTransform="matrix(0.98958333,0,0,0.98958333,0.1500008,0.15000001)"
       gradientUnits="userSpaceOnUse"
       y2="82.512421"
       x2="89.908936"
       y1="17.201469"
       x1="19.97607"
       id="linearGradient4039"
       xlink:href="#linearGradient4027"
       inkscape:collect="always" />
    <linearGradient
       gradientTransform="matrix(1.450641,0,0,1.450641,-546.83147,-713.92194)"
       y2="503.29916"
       x2="416.77158"
       y1="544.22021"
       x1="416.77158"
       gradientUnits="userSpaceOnUse"
       id="linearGradient4004-3"
       xlink:href="#linearGradient4195-3"
       inkscape:collect="always" />
    <linearGradient
       id="linearGradient4195-3"
       inkscape:collect="always">
      <stop
         id="stop4197-7"
         offset="0"
         style="stop-color:#dee4e4;stop-opacity:1" />
      <stop
         id="stop4199-8"
         offset="1"
         style="stop-color:#f2f2f0;stop-opacity:1" />
    </linearGradient>
  </defs>
  <sodipodi:namedview
     inkscape:document-rotation="0"
     inkscape:window-maximized="1"
     inkscape:window-y="28"
     inkscape:window-x="0"
     inkscape:window-height="1016"
     inkscape:window-width="1920"
     inkscape:showpageshadow="false"
     inkscape:grid-bbox="true"
     inkscape:document-units="px"
     showgrid="true"
     inkscape:current-layer="layer4"
     inkscape:cy="46.055696"
     inkscape:cx="0.60759455"
     inkscape:zoom="4.1145833"
     inkscape:pageshadow="2"
     inkscape:pageopacity="0.0"
     borderopacity="1.0"
     bordercolor="#666666"
     pagecolor="#ffffff"
     id="base" />
  <metadata
     id="metadata4257">
    <rdf:RDF>
      <cc:Work
         rdf:about="">
        <dc:format>image/svg+xml</dc:format>
        <dc:type
           rdf:resource="http://purl.org/dc/dcmitype/StillImage" />
        <dc:title></dc:title>
        <dc:date>2016</dc:date>
        <dc:creator>
          <cc:Agent>
            <dc:title>Cristian Pozzessere &lt; ilnanny &gt;</dc:title>
          </cc:Agent>
        </dc:creator>
        <dc:subject>
          <rdf:Bag>
            <rdf:li>ilnanny</rdf:li>
            <rdf:li>inkscape</rdf:li>
            <rdf:li>vectorart</rdf:li>
            <rdf:li>svg</rdf:li>
          </rdf:Bag>
        </dc:subject>
        <dc:coverage>Italy</dc:coverage>
        <dc:description>..when I have nothing to do, I scribble and have fun with inkscape.</dc:description>
        <cc:license
           rdf:resource="http://creativecommons.org/licenses/by-sa/4.0/" />
      </cc:Work>
      <cc:License
         rdf:about="http://creativecommons.org/licenses/by-sa/4.0/">
        <cc:permits
           rdf:resource="http://creativecommons.org/ns#Reproduction" />
        <cc:permits
           rdf:resource="http://creativecommons.org/ns#Distribution" />
        <cc:requires
           rdf:resource="http://creativecommons.org/ns#Notice" />
        <cc:requires
           rdf:resource="http://creativecommons.org/ns#Attribution" />
        <cc:permits
           rdf:resource="http://creativecommons.org/ns#DerivativeWorks" />
        <cc:requires
           rdf:resource="http://creativecommons.org/ns#ShareAlike" />
      </cc:License>
    </rdf:RDF>
  </metadata>
  <g
     transform="translate(0,32)"
     inkscape:groupmode="layer"
     inkscape:label="icona"
     id="layer1" />
  <g
     style="display:inline"
     inkscape:label="colori"
     id="layer7"
     inkscape:groupmode="layer">
    <g
       inkscape:label="Capa 1"
       id="layer1-0"
       transform="translate(-441.48404,-596.47509)" />
  </g>
  <g
     inkscape:label="simboli"
     id="layer5"
     inkscape:groupmode="layer" />
  <g
     inkscape:label="luci-superiori"
     id="layer4"
     inkscape:groupmode="layer">
    <g
       transform="translate(0.3499999,0.35)"
       id="g1013">
      <path
         inkscape:connector-curvature="0"
         id="path3288"
         d="M 88.364283,0.15 H 6.9357072 c -3.7592769,0 -6.785707,3.0264271 -6.785707,6.7857107 V 88.364288 c 0,3.759287 3.0264301,6.785712 6.785707,6.785712 H 88.364283 C 92.12357,95.15 95.15,92.123575 95.15,88.364288 V 6.9357107 C 95.15,3.1764271 92.12357,0.15 88.364283,0.15 Z"
         style="display:inline;opacity:0.15;fill:#000000;fill-opacity:1;fill-rule:nonzero;stroke:none;stroke-width:0.989583" />
      <path
         style="display:inline;opacity:0.15;fill:#000000;fill-opacity:1;fill-rule:nonzero;stroke:none;stroke-width:0.989583"
         d="M 87.728127,0.89218825 H 7.5718663 c -3.7005389,0 -6.67968039,2.97913935 -6.67968039,6.67968525 V 87.728125 c 0,3.700546 2.97914149,6.679685 6.67968039,6.679685 H 87.728127 c 3.700546,0 6.679686,-2.979139 6.679686,-6.679685 V 7.5718735 c 0,-3.7005459 -2.97914,-6.67968525 -6.679686,-6.67968525 z"
         id="path4085"
         inkscape:connector-curvature="0" />
      <path
         inkscape:connector-curvature="0"
         id="rect4251-1"
         d="M 87.091959,1.6343745 H 8.2080342 c -3.6418079,0 -6.5736604,2.9318506 -6.5736604,6.5736598 V 87.091965 c 0,3.641812 2.9318525,6.57366 6.5736604,6.57366 H 87.091959 c 3.64181,0 6.573661,-2.931848 6.573661,-6.57366 V 8.2080343 c 0,-3.6418092 -2.931851,-6.5736598 -6.573661,-6.5736598 z"
         style="display:inline;fill:url(#linearGradient3825);fill-opacity:1;fill-rule:nonzero;stroke:none;stroke-width:0.989583" />
      <path
         inkscape:connector-curvature="0"
         id="path4236-5"
         d="m 8.2080532,1.6343745 c -3.6418086,0 -6.5736606,2.9318516 -6.5736606,6.5736608 V 24.642185 H 2.7300024 V 8.2080353 c 0,-3.0537915 2.4242568,-5.4780509 5.4780508,-5.4780509 H 87.091975 c 3.053798,0 5.478053,2.4242594 5.478053,5.4780509 V 24.642185 h 1.095613 V 8.2080353 c 0,-3.6418092 -2.931854,-6.5736608 -6.573666,-6.5736608 z"
         style="display:inline;opacity:0.45;fill:url(#radialGradient3827);fill-opacity:1;fill-rule:nonzero;stroke:none;stroke-width:1.09558" />
      <path
         id="path4118"
         d="m 1.6343728,81.14121 v 5.9375 c 0,3.641812 2.9451055,6.586915 6.5869135,6.586915 H 87.078707 c 3.641812,0 6.586923,-2.945103 6.586923,-6.586915 v -5.9375 c 0,3.641812 -2.945111,6.586915 -6.586923,6.586915 H 8.2212863 c -3.641808,0 -6.5869135,-2.945103 -6.5869135,-6.586915 z"
         style="display:inline;opacity:0.890909;fill:url(#linearGradient3829);fill-opacity:1;fill-rule:nonzero;stroke:none;stroke-width:0.989583"
         inkscape:connector-curvature="0" />
      <rect
         style="display:inline;fill:#999999;fill-opacity:1;stroke:none;stroke-width:0.989583"
         id="rect1256"
         width="83.962593"
         height="76.712791"
         x="5.6687126"
         y="7.3144398"
         ry="4.2057304" />
      <rect
         ry="4.2057304"
         y="7.3144398"
         x="5.6687126"
         height="76.712791"
         width="83.962593"
         id="rect4301"
         style="display:inline;opacity:0.63;fill:url(#linearGradient4039);fill-opacity:1;stroke:none;stroke-width:0.989583" />
      <path
         inkscape:connector-curvature="0"
         id="path4989"
         d="m 9.6540624,5.8054669 c -3.0841562,0 -5.6089232,2.5130571 -5.6089232,5.5871951 v 68.556346 c 0,3.074135 2.524767,5.587194 5.6089232,5.587194 H 85.645932 c 3.084158,0 5.60893,-2.513059 5.60893,-5.587194 V 11.392662 c 0,-3.074137 -2.524773,-5.5871951 -5.60893,-5.5871951 z m 0,2.2952781 H 85.645932 c 1.868438,0 3.317108,1.464677 3.317108,3.291917 v 68.556346 c 0,1.827244 -1.44867,3.291914 -3.317108,3.291914 H 9.6540624 c -1.8684312,0 -3.3171052,-1.46467 -3.3171052,-3.291914 V 11.392662 c 0,-1.82724 1.448674,-3.291917 3.3171052,-3.291917 z"
         style="color:#000000;font-style:normal;font-variant:normal;font-weight:normal;font-stretch:normal;font-size:medium;line-height:normal;font-family:Sans;-inkscape-font-specification:Sans;text-indent:0;text-align:start;text-decoration:none;text-decoration-line:none;letter-spacing:normal;word-spacing:normal;text-transform:none;writing-mode:lr-tb;direction:ltr;baseline-shift:baseline;text-anchor:start;display:inline;overflow:visible;visibility:visible;fill:#333030;fill-opacity:0.859223;stroke:none;stroke-width:2.35076;marker:none;enable-background:accumulate" />
      <path
         d="M 17.965082,77.234945 39.509147,49.066761 17.329125,18.095102 31.585093,18.108171 49.25865,42.461271 22.833029,77.236156 H 17.965082 Z M 60.132739,77.254824 42.58119,52.859895 69.226841,18.068659 h 4.747552 l -21.632028,28.3011 22.046567,30.885059 z"
         id="path4207-5"
         inkscape:connector-curvature="0"
         style="fill:#000000;fill-opacity:0.0588235;stroke-width:1.45066" />
      <path
         style="fill:#000000;fill-opacity:0.117647;stroke-width:1.45066"
         inkscape:connector-curvature="0"
         id="path4205-7"
         d="M 17.965082,76.65469 39.509147,48.486497 17.329125,17.514848 31.585093,17.527901 49.25865,41.881011 22.833029,76.655887 H 17.965082 Z M 60.132739,76.674569 42.58119,52.279641 69.226841,17.488404 h 4.747552 l -21.632028,28.30109 22.046567,30.885069 z" />
      <path
         d="M 17.965082,76.074436 39.509147,47.906242 17.329125,16.934594 31.585093,16.947647 49.25865,41.300747 22.833029,76.075633 H 17.965082 Z M 60.132739,76.094305 42.58119,51.699374 69.226841,16.908146 h 4.747552 L 52.342365,45.20924 74.388932,76.094309 Z"
         id="path4201-9"
         inkscape:connector-curvature="0"
         style="fill:none;fill-opacity:0.235294;stroke:#040506;stroke-width:1.45066;stroke-opacity:0.213592" />
      <path
         style="fill:url(#linearGradient4004-3);fill-opacity:1;stroke-width:1.45066"
         inkscape:connector-curvature="0"
         id="path17-3"
         d="M 17.965082,75.494171 39.509147,47.325988 17.329125,16.354339 31.585093,16.367391 49.25865,40.720491 22.833029,75.495377 H 17.965082 Z M 60.132739,75.51405 42.58119,51.119122 69.226841,16.327896 h 4.747552 l -21.632028,28.30109 22.046567,30.885058 z" />
      <path
         id="path4209-6"
         d="M 73.086878,16.327323 52.341584,43.467349 52.769403,44.068007 73.973698,16.327323 Z M 17.327863,16.355653 39.078978,46.725622 39.50964,46.164637 18.160847,16.355653 Z m 31.500448,23.771252 -25.99538,34.20907 h -3.980757 l -0.886822,1.158811 h 4.867579 L 49.258966,40.721898 Z M 43.01158,50.556223 42.580918,51.120042 60.13311,75.514618 H 74.390195 L 73.560037,74.352972 H 60.13311 Z"
         style="fill:#000000;fill-opacity:0.313725;stroke-width:1.45066"
         inkscape:connector-curvature="0" />
      <path
         id="path4214-3"
         d="M 69.227953,16.327323 42.580918,51.120042 42.796245,51.417538 69.227953,16.90815 h 4.300918 l 0.444827,-0.580827 z m -51.90009,0.02833 0.413663,0.577994 13.843422,0.01418 17.458688,24.057404 0.21533,-0.28332 -17.674018,-24.354907 z m 35.229048,28.573668 -0.215327,0.280499 21.634947,30.304797 h 0.413664 z M 39.294314,47.606775 17.965352,75.494786 h 0.444827 L 39.50964,47.907099 Z"
         style="fill:#ffffff;fill-opacity:0.235294;stroke-width:1.45066"
         inkscape:connector-curvature="0" />
      <rect
         transform="matrix(0.90667258,0,0,0.93183785,4.1626721,35.397864)"
         style="display:inline;opacity:0.566667;fill:url(#linearGradient4967);fill-opacity:1;stroke:none"
         id="rect4146"
         width="92"
         height="92"
         x="2"
         y="-30"
         rx="3.9569874"
         ry="3.9569881"
         clip-path="url(#clipPath4156-4-6)" />
      <rect
         style="display:inline;opacity:0.55;fill:url(#radialGradient4992);fill-opacity:1;stroke:none;stroke-width:0.989583"
         id="rect4131"
         width="83.372398"
         height="4.2057304"
         x="4.3171363"
         y="78.225891"
         rx="0"
         ry="4.2057304" />
      <rect
         ry="4.2057304"
         rx="0"
         y="-88.769058"
         x="3.5123267"
         height="4.2057304"
         width="75.950516"
         id="rect4141"
         style="display:inline;opacity:0.55;fill:url(#radialGradient3833-1);fill-opacity:1;stroke:none;stroke-width:0.989583"
         transform="rotate(90)" />
    </g>
  </g>
</svg>
