<?xml version="1.0" encoding="UTF-8" standalone="no"?>
<svg
   xmlns:dc="http://purl.org/dc/elements/1.1/"
   xmlns:cc="http://creativecommons.org/ns#"
   xmlns:rdf="http://www.w3.org/1999/02/22-rdf-syntax-ns#"
   xmlns:svg="http://www.w3.org/2000/svg"
   xmlns="http://www.w3.org/2000/svg"
   xmlns:xlink="http://www.w3.org/1999/xlink"
   xmlns:sodipodi="http://sodipodi.sourceforge.net/DTD/sodipodi-0.dtd"
   xmlns:inkscape="http://www.inkscape.org/namespaces/inkscape"
   viewBox="0 0 96 96"
   id="svg2"
   version="1.1"
   inkscape:version="0.91 r13725"
   sodipodi:docname="xdman.svg"
   width="96"
   height="96">
  <metadata
     id="metadata22">
    <rdf:RDF>
      <cc:Work
         rdf:about="">
        <dc:format>image/svg+xml</dc:format>
        <dc:type
           rdf:resource="http://purl.org/dc/dcmitype/StillImage" />
        <dc:title />
      </cc:Work>
    </rdf:RDF>
  </metadata>
  <defs
     id="defs20">
    <linearGradient
       y2="47.000011"
       x2="90"
       y1="47.000011"
       x1="6"
       gradientTransform="matrix(1.1353753,0,0,1.1336634,-40.037124,-46.787637)"
       gradientUnits="userSpaceOnUse"
       id="linearGradient4098"
       xlink:href="#linearGradient6139-0"
       inkscape:collect="always" />
    <linearGradient
       id="linearGradient6139-0">
      <stop
         style="stop-color:#b7b7b7;stop-opacity:1;"
         offset="0"
         id="stop6141-2" />
      <stop
         id="stop6151-0"
         offset="0.25"
         style="stop-color:#ffffff;stop-opacity:1;" />
      <stop
         id="stop6147-1"
         offset="0.5"
         style="stop-color:#9d9d9d;stop-opacity:1;" />
      <stop
         style="stop-color:#fafafa;stop-opacity:1;"
         offset="0.75"
         id="stop6149-4" />
      <stop
         style="stop-color:#b7b7b7;stop-opacity:1;"
         offset="1"
         id="stop6143-4" />
    </linearGradient>
    <radialGradient
       r="42"
       fy="-27"
       fx="48"
       cy="-27"
       cx="48"
       gradientTransform="matrix(-1.0721726,0,0,-0.87502024,199.46429,-19.125546)"
       gradientUnits="userSpaceOnUse"
       id="radialGradient4102"
       xlink:href="#linearGradient4091-0-3-0-7"
       inkscape:collect="always" />
    <linearGradient
       id="linearGradient4091-0-3-0-7">
      <stop
         id="stop4093-3-6-4-2"
         offset="0"
         style="stop-color:#ffffff;stop-opacity:1;" />
      <stop
         style="stop-color:#ffffff;stop-opacity:1;"
         offset="0.80000001"
         id="stop4099-6-1-8-3" />
      <stop
         id="stop4095-1-0-7-9"
         offset="1"
         style="stop-color:#ffffff;stop-opacity:0;" />
    </linearGradient>
    <linearGradient
       y2="82.984398"
       x2="-10.187523"
       y1="82.984398"
       x1="-94"
       gradientTransform="matrix(1,0,0,0.73089097,200,23.096697)"
       gradientUnits="userSpaceOnUse"
       id="linearGradient4104"
       xlink:href="#linearGradient3832-0-6-1-1"
       inkscape:collect="always" />
    <linearGradient
       id="linearGradient3832-0-6-1-1">
      <stop
         id="stop3834-6-3-7-1"
         offset="0"
         style="stop-color:#000000;stop-opacity:1;" />
      <stop
         style="stop-color:#000000;stop-opacity:0.58823532;"
         offset="0.1"
         id="stop3872-2-4" />
      <stop
         id="stop3844-6-2-7-6"
         offset="0.89999998"
         style="stop-color:#000000;stop-opacity:0.58823532;" />
      <stop
         id="stop3836-5-0-2-9"
         offset="1"
         style="stop-color:#000000;stop-opacity:1;" />
    </linearGradient>
    <filter
       id="filter3174-4"
       style="color-interpolation-filters:sRGB">
      <feGaussianBlur
         id="feGaussianBlur3176-3"
         stdDeviation="1.71" />
    </filter>
    <linearGradient
       x1="16"
       y1="48"
       x2="80"
       y2="48"
       id="linearGradient3879-8-8"
       xlink:href="#linearGradient3873-7"
       gradientUnits="userSpaceOnUse" />
    <linearGradient
       id="linearGradient3873-7">
      <stop
         id="stop3875-0"
         style="stop-color:#f0f0f0;stop-opacity:1"
         offset="0" />
      <stop
         id="stop3877-20-4"
         style="stop-color:#b4b4b4;stop-opacity:1"
         offset="1" />
    </linearGradient>
    <radialGradient
       cx="48"
       cy="48"
       r="32"
       fx="48"
       fy="48"
       id="radialGradient3682-9"
       xlink:href="#linearGradient3674-5-0"
       gradientUnits="userSpaceOnUse" />
    <linearGradient
       id="linearGradient3674-5-0">
      <stop
         id="stop3676-0-2"
         style="stop-color:#ffffff;stop-opacity:1"
         offset="0" />
      <stop
         id="stop3684-9"
         style="stop-color:#ffffff;stop-opacity:1"
         offset="0.30000001" />
      <stop
         id="stop3925-8-3"
         style="stop-color:#f0f0f0;stop-opacity:1"
         offset="0.89999998" />
      <stop
         id="stop3678-8-8"
         style="stop-color:#d2d2d2;stop-opacity:1"
         offset="1" />
    </linearGradient>
    <filter
       id="filter3944-7"
       style="color-interpolation-filters:sRGB">
      <feGaussianBlur
         id="feGaussianBlur3946-6"
         stdDeviation="0.4359375" />
    </filter>
    <radialGradient
       cx="48.000896"
       cy="46.058418"
       r="3"
       fx="48.000896"
       fy="46.058418"
       id="radialGradient3901-4"
       xlink:href="#linearGradient3893-7"
       gradientUnits="userSpaceOnUse" />
    <linearGradient
       id="linearGradient3893-7">
      <stop
         id="stop3895-3"
         style="stop-color:#ffffff;stop-opacity:1"
         offset="0" />
      <stop
         id="stop3897-5"
         style="stop-color:#a2a2a2;stop-opacity:1"
         offset="1" />
    </linearGradient>
    <linearGradient
       x1="13"
       y1="48"
       x2="83"
       y2="48"
       id="linearGradient3905-4"
       xlink:href="#linearGradient3899-9"
       gradientUnits="userSpaceOnUse"
       gradientTransform="matrix(0,1,-1,0,96,0)" />
    <linearGradient
       id="linearGradient3899-9">
      <stop
         id="stop3901-8"
         style="stop-color:#ffffff;stop-opacity:1"
         offset="0" />
      <stop
         id="stop3981-6"
         style="stop-color:#ffffff;stop-opacity:0.41221374"
         offset="0.5" />
      <stop
         id="stop3903-5"
         style="stop-color:#868686;stop-opacity:1"
         offset="1" />
    </linearGradient>
    <linearGradient
       x1="17"
       y1="48"
       x2="120"
       y2="48"
       id="linearGradient3923-1-6"
       xlink:href="#linearGradient3917-6-8"
       gradientUnits="userSpaceOnUse"
       gradientTransform="matrix(0,1,-1,0,96,0)" />
    <linearGradient
       id="linearGradient3917-6-8">
      <stop
         id="stop3919-2"
         style="stop-color:#000000;stop-opacity:1"
         offset="0" />
      <stop
         id="stop3921-7"
         style="stop-color:#000000;stop-opacity:0"
         offset="1" />
    </linearGradient>
    <linearGradient
       x1="43"
       y1="60"
       x2="53"
       y2="60"
       id="linearGradient3973-9"
       xlink:href="#linearGradient3983-2"
       gradientUnits="userSpaceOnUse" />
    <linearGradient
       id="linearGradient3983-2">
      <stop
         id="stop3985-6"
         style="stop-color:#ffffff;stop-opacity:1"
         offset="0" />
      <stop
         id="stop3989-2"
         style="stop-color:#868686;stop-opacity:1"
         offset="1" />
    </linearGradient>
    <radialGradient
       cx="48"
       cy="60"
       r="5"
       fx="48"
       fy="60"
       id="radialGradient3979-6"
       xlink:href="#linearGradient3674-5-0"
       gradientUnits="userSpaceOnUse" />
    <clipPath
       id="clipPath2973-9">
      <rect
         width="84"
         height="84"
         rx="6"
         ry="6"
         x="6"
         y="6"
         id="rect2975-6"
         style="fill:url(#linearGradient2977);fill-opacity:1;fill-rule:nonzero;stroke:none" />
    </clipPath>
    <linearGradient
       gradientUnits="userSpaceOnUse"
       y2="-34.779079"
       x2="56.280174"
       y1="3.0126896"
       x1="9.0784369"
       id="linearGradient12954"
       xlink:href="#linearGradient12946"
       inkscape:collect="always" />
    <linearGradient
       id="linearGradient12946"
       inkscape:collect="always">
      <stop
         id="stop12948"
         offset="0"
         style="stop-color:#ffffff;stop-opacity:1;" />
      <stop
         id="stop12950"
         offset="1"
         style="stop-color:#ffffff;stop-opacity:0;" />
    </linearGradient>
  </defs>
  <sodipodi:namedview
     pagecolor="#ffffff"
     bordercolor="#666666"
     borderopacity="1"
     objecttolerance="10"
     gridtolerance="10"
     guidetolerance="10"
     inkscape:pageopacity="0"
     inkscape:pageshadow="2"
     inkscape:window-width="1280"
     inkscape:window-height="971"
     id="namedview18"
     showgrid="false"
     inkscape:zoom="4.9166667"
     inkscape:cx="-25.692073"
     inkscape:cy="24"
     inkscape:window-x="0"
     inkscape:window-y="27"
     inkscape:window-maximized="1"
     inkscape:current-layer="g3985" />
  <g
     transform="translate(-4.4706248e-7,32)"
     inkscape:label="Layer 1"
     id="layer1">
    <g
       id="g12958"
       transform="matrix(0.97513378,0,0,0.97660611,33.898696,9.6573789)">
      <path
         transform="matrix(1.0290322,0,0,1.0290323,-0.41983185,-0.18855188)"
         style="display:inline;opacity:0.15;fill:#000000;fill-opacity:1;fill-rule:nonzero;stroke:none"
         d="m 55.462537,-41.268579 -82.003288,0 c -3.785818,0 -6.833607,3.043193 -6.833607,6.823301 l 0,81.879661 c 0,3.780111 3.047789,6.823304 6.833607,6.823304 l 82.003288,0 c 3.785818,0 6.833606,-3.043193 6.833606,-6.823304 l 0,-81.879661 c 0,-3.780108 -3.047788,-6.823301 -6.833606,-6.823301 z"
         id="path3315"
         inkscape:connector-curvature="0" />
      <path
         transform="matrix(1.0290322,0,0,1.0290323,-0.41983185,-0.18855188)"
         inkscape:connector-curvature="0"
         id="path4112"
         d="m 54.821891,-40.52228 -80.72199,0 c -3.72667,0 -6.726834,2.995643 -6.726834,6.716685 l 0,80.600295 c 0,3.721045 3.000164,6.716688 6.726834,6.716688 l 80.72199,0 c 3.72666,0 6.726826,-2.995643 6.726826,-6.716688 l 0,-80.600295 c 0,-3.721042 -3.000166,-6.716685 -6.726826,-6.716685 z"
         style="display:inline;opacity:0.15;fill:#000000;fill-opacity:1;fill-rule:nonzero;stroke:none" />
      <path
         style="display:inline;fill:url(#linearGradient4098);fill-opacity:1;fill-rule:nonzero;stroke:none"
         d="m 55.334401,-41.11932 -81.747021,0 c -3.773988,0 -6.812252,3.033683 -6.812252,6.80198 l 0,81.623788 c 0,3.768297 3.038264,6.80198 6.812252,6.80198 l 81.747021,0 c 3.773988,0 6.812252,-3.033683 6.812252,-6.80198 l 0,-81.623788 c 0,-3.768297 -3.038264,-6.80198 -6.812252,-6.80198 z"
         id="rect4251-1"
         inkscape:connector-curvature="0" />
      <g
         id="g3272"
         transform="matrix(1.1353753,0,0,1.1336634,-153.57465,-46.220805)">
        <path
           sodipodi:nodetypes="sscccsccscccsss"
           inkscape:connector-curvature="0"
           id="path3400-6"
           d="m 114.71702,9.1113966 c -2.59845,0 -4.66122,2.1047624 -4.66122,4.7560894 l 0,19.708047 0,6.658526 0,36.711067 c 0.99812,1.549324 2.70064,2.586124 4.66122,2.586124 l 3.72897,0 59.66361,0 3.72898,0 c 1.96058,0 3.66311,-1.0368 4.66122,-2.586124 l 0,-36.711067 0,-6.658526 0,-19.708047 c 0,-2.651327 -2.06277,-4.7560894 -4.66122,-4.7560894 z"
           style="display:inline;opacity:0.87972508;fill:#003366;fill-opacity:1;fill-rule:nonzero;stroke:none" />
        <g
           transform="matrix(2.4537124,0,0,2.6080267,226.12371,-245.78185)"
           id="g3985">
          <path
             inkscape:connector-curvature="0"
             id="path12"
             style="opacity:0.256;fill:#000000;fill-opacity:1;fill-rule:nonzero;stroke:none"
             d="m -43.338983,111.83051 6,0 0,-12.000002 12,0 0,12.000002 6,0 -12,12" />
          <path
             inkscape:connector-curvature="0"
             id="path14"
             style="fill:#f0e7ef;fill-opacity:1;fill-rule:nonzero;stroke:#a7b7c2;stroke-width:0.30671728;stroke-miterlimit:4;stroke-dasharray:none;stroke-opacity:1;opacity:0.888"
             d="m -42.332497,112.09258 5.154196,0 0,-10.3084 10.308392,0 0,10.3084 5.154196,0 -10.308392,10.30839" />
        </g>
        <path
           inkscape:connector-curvature="0"
           id="path4236-5"
           d="m 112,4.5 c -3.324,0 -6,2.6759996 -6,6 l 0,15 1,0 0,-15 c 0,-2.7872972 2.2127,-5 5,-5 l 72,0 c 2.7873,0 5,2.2127028 5,5 l 0,15 1,0 0,-15 c 0,-3.3240004 -2.676,-6 -6,-6 l -72,0 z"
           style="display:inline;opacity:0.45;fill:url(#radialGradient4102);fill-opacity:1;fill-rule:nonzero;stroke:none" />
        <path
           style="opacity:0.46964859;fill:url(#linearGradient4104);fill-opacity:1;fill-rule:nonzero;stroke:none"
           d="m 106,78.998418 0,0.73089 0,0.730891 0,0.730892 0,1.461782 0,1.461781 C 106,86.544135 108.676,88.5 112,88.5 l 72,0 c 3.324,0 6,-1.955865 6,-4.385346 l 0,-1.461781 0,-1.461782 0,-0.730892 0,-0.730891 0,-0.73089 c 0,2.429481 -2.676,4.385345 -6,4.385345 l -72,0 c -3.324,0 -6,-1.955864 -6,-4.385345 z"
           id="path4242-5"
           inkscape:connector-curvature="0" />
      </g>
      <path
         inkscape:connector-curvature="0"
         id="path4989"
         d="m -24.6875,-37.8125 c -3.196096,0 -5.8125,2.600343 -5.8125,5.78125 l 0,70.9375 c 0,3.180909 2.616404,5.78125 5.8125,5.78125 l 78.75,0 c 3.196096,0 5.8125,-2.600341 5.8125,-5.78125 l 0,-70.9375 c 0,-3.180907 -2.616404,-5.78125 -5.8125,-5.78125 l -78.75,0 z m 0,2.375 78.75,0 c 1.936246,0 3.4375,1.515549 3.4375,3.40625 l 0,70.9375 c 0,1.890705 -1.501254,3.40625 -3.4375,3.40625 l -78.75,0 c -1.936246,0 -3.4375,-1.515545 -3.4375,-3.40625 l 0,-70.9375 c 0,-1.890701 1.501254,-3.40625 3.4375,-3.40625 z"
         style="color:#000000;font-style:normal;font-variant:normal;font-weight:normal;font-stretch:normal;font-size:medium;line-height:normal;font-family:Sans;-inkscape-font-specification:Sans;text-indent:0;text-align:start;text-decoration:none;text-decoration-line:none;letter-spacing:normal;word-spacing:normal;text-transform:none;direction:ltr;block-progression:tb;writing-mode:lr-tb;baseline-shift:baseline;text-anchor:start;display:inline;overflow:visible;visibility:visible;fill:#000000;fill-opacity:0.87148593;stroke:none;stroke-width:2.3755002;marker:none;enable-background:accumulate" />
      <path
         style="display:inline;opacity:0.39930558;fill:url(#linearGradient12954);fill-opacity:1;fill-rule:nonzero;stroke:none"
         d="m 48.331182,42.928895 4.233791,0 c 2.225994,0 4.159005,-1.175383 5.292234,-2.931794 l 0,-41.6179931 0,-7.5485261 0,-22.3422938 c 0,-3.005712 -2.342018,-5.391804 -5.292234,-5.391804 l -70.296123,0 C 7.6324902,10.08658 30.391443,27.576446 48.331182,42.928895 Z"
         id="path12926"
         inkscape:connector-curvature="0"
         sodipodi:nodetypes="cscccsscc" />
    </g>
  </g>
</svg>
