<?xml version="1.0" encoding="UTF-8" standalone="no"?>
<!-- Created with Inkscape (http://www.inkscape.org/) -->

<svg
   xmlns:dc="http://purl.org/dc/elements/1.1/"
   xmlns:cc="http://creativecommons.org/ns#"
   xmlns:rdf="http://www.w3.org/1999/02/22-rdf-syntax-ns#"
   xmlns:svg="http://www.w3.org/2000/svg"
   xmlns="http://www.w3.org/2000/svg"
   xmlns:xlink="http://www.w3.org/1999/xlink"
   xmlns:sodipodi="http://sodipodi.sourceforge.net/DTD/sodipodi-0.dtd"
   xmlns:inkscape="http://www.inkscape.org/namespaces/inkscape"
   width="96"
   height="96"
   id="svg2"
   version="1.1"
   inkscape:version="0.92.2 5c3e80d, 2017-08-06"
   sodipodi:docname="xfce.svg">
  <script
     xlink:href=""
     id="script2985" />
  <defs
     id="defs4">
    <linearGradient
       id="linearGradient4231-30">
      <stop
         style="stop-color:#bccffc;stop-opacity:0.99607843"
         offset="0"
         id="stop4233-8" />
      <stop
         style="stop-color:#f6f9fe;stop-opacity:1"
         offset="1"
         id="stop4235-2" />
    </linearGradient>
    <linearGradient
       inkscape:collect="always"
       xlink:href="#linearGradient3888-8-4-8-4-6-9-0-8-7-9-5"
       id="linearGradient15947"
       gradientUnits="userSpaceOnUse"
       gradientTransform="matrix(1.0034441,0,0,1.0049592,31.852941,29.291424)"
       x1="2.4652066"
       y1="0.27861649"
       x2="59.378193"
       y2="0.27861649" />
    <linearGradient
       inkscape:collect="always"
       id="linearGradient3888-8-4-8-4-6-9-0-8-7-9-5">
      <stop
         style="stop-color:#ffffff;stop-opacity:1;"
         offset="0"
         id="stop3890-4-7-9-5-7-0-8-8-8-6-8" />
      <stop
         style="stop-color:#ffffff;stop-opacity:0;"
         offset="1"
         id="stop3892-5-8-2-8-3-3-3-06-4-4-7" />
    </linearGradient>
    <linearGradient
       inkscape:collect="always"
       xlink:href="#linearGradient5700-9"
       id="linearGradient15945"
       gradientUnits="userSpaceOnUse"
       gradientTransform="matrix(1.1392856,0,0,1.1392855,-8.3220736,-17.728248)"
       x1="6"
       y1="47.000011"
       x2="90"
       y2="47.000011" />
    <linearGradient
       id="linearGradient5700-9">
      <stop
         id="stop5702-6"
         offset="0"
         style="stop-color:#ffffff;stop-opacity:0;" />
      <stop
         style="stop-color:#ffffff;stop-opacity:0.85135138;"
         offset="0.03681535"
         id="stop5704-6" />
      <stop
         id="stop5706-4"
         offset="0.06506088"
         style="stop-color:#ffffff;stop-opacity:0;" />
      <stop
         style="stop-color:#ffffff;stop-opacity:0;"
         offset="0.94493848"
         id="stop5712-0" />
      <stop
         style="stop-color:#ffffff;stop-opacity:0.85135138;"
         offset="0.96582276"
         id="stop5710-1" />
      <stop
         id="stop5708-7"
         offset="1"
         style="stop-color:#ffffff;stop-opacity:0;" />
    </linearGradient>
    <linearGradient
       gradientTransform="translate(4.1818184,21.272728)"
       inkscape:collect="always"
       xlink:href="#linearGradient4142-7"
       id="linearGradient4876"
       x1="-2.7963467"
       y1="8.4012642"
       x2="87.626724"
       y2="8.4012642"
       gradientUnits="userSpaceOnUse" />
    <linearGradient
       id="linearGradient4142-7">
      <stop
         id="stop4144-6"
         offset="0"
         style="stop-color:#0a47d6;stop-opacity:0.99607843" />
      <stop
         id="stop4146-6"
         offset="1"
         style="stop-color:#296aed;stop-opacity:1" />
    </linearGradient>
    <radialGradient
       inkscape:collect="always"
       xlink:href="#linearGradient3888-8-4-8-6-7"
       id="radialGradient15937"
       gradientUnits="userSpaceOnUse"
       gradientTransform="matrix(0,1.6209438,-2.0382846,0,160.66427,-243.03657)"
       cx="158"
       cy="6.2131939"
       fx="158"
       fy="6.2131939"
       r="41" />
    <linearGradient
       inkscape:collect="always"
       id="linearGradient3888-8-4-8-6-7">
      <stop
         style="stop-color:#ffffff;stop-opacity:1;"
         offset="0"
         id="stop3890-4-7-9-7-0" />
      <stop
         style="stop-color:#ffffff;stop-opacity:0;"
         offset="1"
         id="stop3892-5-8-2-7-0" />
    </linearGradient>
    <radialGradient
       inkscape:collect="always"
       xlink:href="#linearGradient4091-0-3-0-7-0"
       id="radialGradient15939"
       gradientUnits="userSpaceOnUse"
       gradientTransform="matrix(-1.0721726,0,0,-0.87502024,199.46429,-19.125546)"
       cx="48"
       cy="-27"
       fx="48"
       fy="-27"
       r="42" />
    <linearGradient
       id="linearGradient4091-0-3-0-7-0">
      <stop
         style="stop-color:#ffffff;stop-opacity:1;"
         offset="0"
         id="stop4093-3-6-4-2-5" />
      <stop
         id="stop4099-6-1-8-3-2"
         offset="0.80000001"
         style="stop-color:#ffffff;stop-opacity:1;" />
      <stop
         style="stop-color:#ffffff;stop-opacity:0;"
         offset="1"
         id="stop4095-1-0-7-9-7" />
    </linearGradient>
    <linearGradient
       inkscape:collect="always"
       xlink:href="#linearGradient3832-0-6-1-1-0"
       id="linearGradient15941"
       gradientUnits="userSpaceOnUse"
       gradientTransform="matrix(1,0,0,0.88905855,200,8.9431737)"
       x1="-94"
       y1="82.984398"
       x2="-10.187523"
       y2="82.984398" />
    <linearGradient
       id="linearGradient3832-0-6-1-1-0">
      <stop
         style="stop-color:#000000;stop-opacity:1;"
         offset="0"
         id="stop3834-6-3-7-1-2" />
      <stop
         id="stop3872-2-4-7"
         offset="0.1"
         style="stop-color:#000000;stop-opacity:0.58823532;" />
      <stop
         style="stop-color:#000000;stop-opacity:0.58823532;"
         offset="0.89999998"
         id="stop3844-6-2-7-6-3" />
      <stop
         style="stop-color:#000000;stop-opacity:1;"
         offset="1"
         id="stop3836-5-0-2-9-1" />
    </linearGradient>
    <linearGradient
       inkscape:collect="always"
       xlink:href="#linearGradient6139-0-0"
       id="linearGradient15935"
       gradientUnits="userSpaceOnUse"
       gradientTransform="matrix(1.1392856,0,0,1.1392855,-12.503893,-39.00097)"
       x1="6"
       y1="47.000011"
       x2="90"
       y2="47.000011" />
    <linearGradient
       id="linearGradient6139-0-0">
      <stop
         id="stop6141-2-9"
         offset="0"
         style="stop-color:#b7b7b7;stop-opacity:1;" />
      <stop
         style="stop-color:#ffffff;stop-opacity:1;"
         offset="0.25"
         id="stop6151-0-8" />
      <stop
         style="stop-color:#9d9d9d;stop-opacity:1;"
         offset="0.5"
         id="stop6147-1-4" />
      <stop
         id="stop6149-4-9"
         offset="0.75"
         style="stop-color:#fafafa;stop-opacity:1;" />
      <stop
         id="stop6143-4-8"
         offset="1"
         style="stop-color:#b7b7b7;stop-opacity:1;" />
    </linearGradient>
    <linearGradient
       y2="47.000011"
       x2="90"
       y1="47.000011"
       x1="6"
       gradientTransform="matrix(1.1392856,0,0,1.1392855,-8.3220746,-17.728242)"
       gradientUnits="userSpaceOnUse"
       id="linearGradient5011"
       xlink:href="#linearGradient6139-0-0"
       inkscape:collect="always" />
    <linearGradient
       inkscape:collect="always"
       xlink:href="#linearGradient6139-0"
       id="linearGradient4071"
       gradientUnits="userSpaceOnUse"
       gradientTransform="matrix(1.1071428,0,0,1.1071426,-5.142859,-36.035687)"
       x1="6"
       y1="47.000011"
       x2="90"
       y2="47.000011" />
    <linearGradient
       id="linearGradient6139-0">
      <stop
         id="stop6141-2"
         offset="0"
         style="stop-color:#b2babc;stop-opacity:1" />
      <stop
         style="stop-color:#ffffff;stop-opacity:1;"
         offset="0.25"
         id="stop6151-0" />
      <stop
         style="stop-color:#96a1a4;stop-opacity:1"
         offset="0.5"
         id="stop6147-1" />
      <stop
         id="stop6149-4"
         offset="0.75"
         style="stop-color:#fbf9f9;stop-opacity:1;" />
      <stop
         id="stop6143-4"
         offset="1"
         style="stop-color:#b2b9bc;stop-opacity:1" />
    </linearGradient>
    <linearGradient
       gradientTransform="translate(-2.95e-6,-31.999974)"
       inkscape:collect="always"
       xlink:href="#linearGradient3832-0-6-1-1-0"
       id="linearGradient4129"
       x1="1.5"
       y1="88.171875"
       x2="94.5"
       y2="88.171875"
       gradientUnits="userSpaceOnUse" />
    <radialGradient
       inkscape:collect="always"
       xlink:href="#linearGradient3888-8-4-8-4-6-9-0-8-7-9-5"
       id="radialGradient7462"
       gradientUnits="userSpaceOnUse"
       gradientTransform="matrix(0.97513378,0,0,0.04919072,33.898693,48.166722)"
       cx="13.948145"
       cy="44.892841"
       fx="13.948145"
       fy="44.892841"
       r="43.199203" />
    <radialGradient
       inkscape:collect="always"
       xlink:href="#linearGradient3888-8-4-8-4-6-9-0-8-7-9-5"
       id="radialGradient7464"
       gradientUnits="userSpaceOnUse"
       gradientTransform="matrix(0.88832663,0,0,0.04919072,-0.455482,-90.168304)"
       cx="13.948145"
       cy="44.892841"
       fx="13.948145"
       fy="44.892841"
       r="43.199203" />
    <linearGradient
       inkscape:collect="always"
       xlink:href="#linearGradient3888-8-4-8-4-6-9-0-8-7-9-5"
       id="linearGradient4767"
       gradientUnits="userSpaceOnUse"
       x1="2.7713892"
       y1="-28.64156"
       x2="50.527882"
       y2="14.514202" />
    <clipPath
       id="clipPath4156-4-1"
       clipPathUnits="userSpaceOnUse">
      <path
         inkscape:connector-curvature="0"
         id="path4158-0-8"
         d="m 27.046336,-55.695463 -14.21366,13.321486 h 0.06127 l 15.653407,21.770763 10.231384,-10.546177 C 38.561832,-32.30156 27.468089,-54.819245 27.046336,-55.695463 Z M 9.6468554,-39.382809 -5.2407289,-25.32124 15.987863,-7.8059573 26.372412,-18.382966 Z m 31.4906096,12.951445 -9.741259,9.713584 8.944804,12.4580526 7.780753,-7.5550056 z m -49.8397109,4.378822 -13.7541661,12.9822847 26.2830181,13.84571 0.06127,-0.0617 -0.122531,-0.0617 L 13.598503,-5.4007374 -8.7022409,-22.052595 Z m 38.0154159,7.400825 -9.802525,9.7752596 11.579232,9.5594001 7.62759,-7.40083 -8.669108,-11.0087257 z m 20.187073,5.6739697 -7.382526,7.2158 6.187844,8.54179 5.820249,-6.13651996 z m -32.195166,6.32154 -9.5574606,9.49772 13.6622686,7.1849703 7.933918,-7.6783603 z m 23.311629,2.37443004 -7.10683,6.93826996 8.362778,6.9074403 5.360756,-5.6739699 -0.06127,-0.0925 -0.0919,0.12335 -6.463539,-8.20258036 z m -8.730374,8.54178036 -7.505057,7.3391599 10.353916,5.45811 c 1.397496,-1.32103 5.67514,-6.12292 5.850882,-6.32154 z"
         style="opacity:0.6;fill:#ffffff;fill-opacity:1;stroke:none" />
    </clipPath>
    <linearGradient
       id="ButtonShadow-16"
       gradientTransform="scale(1.0058652,0.994169)"
       x1="45.447727"
       y1="92.539597"
       x2="45.447727"
       y2="7.0165396"
       gradientUnits="userSpaceOnUse">
      <stop
         style="stop-color:#000000;stop-opacity:1;"
         offset="0"
         id="stop3750-6" />
      <stop
         style="stop-color:#000000;stop-opacity:0.58823532;"
         offset="1"
         id="stop3752-4" />
    </linearGradient>
    <clipPath
       clipPathUnits="userSpaceOnUse"
       id="clipPath4355-7">
      <rect
         style="fill:#ffffff;fill-opacity:1;fill-rule:nonzero;stroke:none"
         id="rect4357-5"
         width="84"
         height="80"
         x="6"
         y="6"
         rx="6"
         ry="6" />
    </clipPath>
    <clipPath
       clipPathUnits="userSpaceOnUse"
       id="clipPath4355-9">
      <rect
         style="fill:#ffffff;fill-opacity:1;fill-rule:nonzero;stroke:none"
         id="rect4357-1"
         width="84"
         height="80"
         x="6"
         y="6"
         rx="6"
         ry="6" />
    </clipPath>
    <clipPath
       clipPathUnits="userSpaceOnUse"
       id="clipPath4355-1">
      <rect
         style="fill:#ffffff;fill-opacity:1;fill-rule:nonzero;stroke:none"
         id="rect4357-9"
         width="84"
         height="80"
         x="6"
         y="6"
         rx="6"
         ry="6" />
    </clipPath>
    <clipPath
       clipPathUnits="userSpaceOnUse"
       id="clipPath3943-52-0">
      <path
         id="path3945-4-1"
         d="m 69.78125,20.84375 -5,3.4375 c 5.586891,5.537137 9,13.327613 9,21.8125 0,8.434478 -3.37723,16.095981 -8.90625,21.625 l 5,3.4375 C 76.078226,64.5762 80,55.843726 80,46.09375 c 2e-6,-9.796556 -3.962955,-18.660417 -10.21875,-25.25 z M 40,24.0625 28.90625,36.21875 H 21.5 c -0.823281,0 -1.5,0.676717 -1.5,1.5 v 1 14.84375 1 c 0,0.823281 0.684121,1.610161 1.5,1.5 h 7.40625 L 40,68 V 66 26.0625 Z m 20.59375,3.28125 -5,3.4375 L 55.5,30.875 c 3.93815,3.890071 6.40625,9.25018 6.40625,15.21875 0,5.920869 -2.42961,11.148358 -6.3125,15.03125 l 0.09375,0.09375 5.09375,3.4375 c 4.475428,-4.908367 7.25,-11.402005 7.25,-18.5625 0,-7.230696 -2.87904,-13.83107 -7.4375,-18.75 z m -9.25,6.5 -5.21875,3.625 c 2.222384,2.217802 3.71875,5.239596 3.71875,8.625 0,3.336509 -1.458847,6.227712 -3.625,8.4375 l 5.21875,3.625 c 2.822412,-3.236947 4.53125,-7.43414 4.53125,-12.0625 0,-4.672601 -1.754155,-9.001351 -4.625,-12.25 z"
         style="color:#000000;display:inline;overflow:visible;visibility:visible;opacity:0.8;fill:#ff00ff;fill-opacity:1;fill-rule:nonzero;stroke:none;stroke-width:1;marker:none;enable-background:accumulate"
         inkscape:connector-curvature="0" />
    </clipPath>
  </defs>
  <sodipodi:namedview
     id="base"
     pagecolor="#ffffff"
     bordercolor="#666666"
     borderopacity="1.0"
     inkscape:pageopacity="0.0"
     inkscape:pageshadow="2"
     inkscape:zoom="2.75"
     inkscape:cx="6.7272727"
     inkscape:cy="32"
     inkscape:current-layer="layer1"
     showgrid="true"
     inkscape:document-units="px"
     inkscape:grid-bbox="true"
     inkscape:showpageshadow="false"
     gridtolerance="1"
     guidetolerance="1"
     objecttolerance="1"
     inkscape:window-width="1280"
     inkscape:window-height="976"
     inkscape:window-x="0"
     inkscape:window-y="20"
     inkscape:window-maximized="1" />
  <metadata
     id="metadata7">
    <rdf:RDF>
      <cc:Work
         rdf:about="">
        <dc:format>image/svg+xml</dc:format>
        <dc:type
           rdf:resource="http://purl.org/dc/dcmitype/StillImage" />
        <dc:title></dc:title>
      </cc:Work>
    </rdf:RDF>
  </metadata>
  <g
     id="layer1"
     inkscape:label="Layer 1"
     inkscape:groupmode="layer"
     transform="translate(0,32)">
    <path
       style="display:inline;opacity:0.15;fill:#000000;fill-opacity:1;fill-rule:nonzero;stroke:none"
       d="M 89.142854,-31.999974 H 6.8571346 c -3.7988479,0 -6.85713515,3.058285 -6.85713515,6.85714 v 82.285718 c 0,3.798857 3.05828725,6.857142 6.85713515,6.857142 H 89.142854 c 3.798857,0 6.857147,-3.058285 6.857147,-6.857142 v -82.285718 c 0,-3.798855 -3.05829,-6.85714 -6.857147,-6.85714 z"
       id="path3288"
       inkscape:connector-curvature="0" />
    <path
       inkscape:connector-curvature="0"
       id="path4085"
       d="M 88.499998,-31.249974 H 7.4999906 c -3.7394919,0 -6.74999295,3.010499 -6.74999295,6.749997 v 81.000003 c 0,3.739501 3.01050105,6.75 6.74999295,6.75 H 88.499998 c 3.739503,0 6.750003,-3.010499 6.750003,-6.75 v -81.000003 c 0,-3.739498 -3.0105,-6.749997 -6.750003,-6.749997 z"
       style="display:inline;opacity:0.15;fill:#000000;fill-opacity:1;fill-rule:nonzero;stroke:none" />
    <path
       style="display:inline;fill:url(#linearGradient4071);fill-opacity:1;fill-rule:nonzero;stroke:none"
       d="M 87.857137,-30.499974 H 8.1428547 c -3.6801431,0 -6.6428566,2.962713 -6.6428566,6.642855 v 79.71429 c 0,3.680142 2.9627135,6.642856 6.6428566,6.642856 H 87.857137 c 3.680143,0 6.642854,-2.962714 6.642854,-6.642856 v -79.71429 c 0,-3.680142 -2.962711,-6.642855 -6.642854,-6.642855 z"
       id="rect4251-1"
       inkscape:connector-curvature="0" />
    <path
       style="display:inline;opacity:0.95999995;fill:#5a85ee;fill-opacity:1;fill-rule:nonzero;stroke:none;stroke-width:1.0483942"
       d="m 11.30781,-26.703741 c -2.8935785,0 -5.1906478,2.342721 -5.1906478,5.293801 V 0.52624546 7.9375661 48.799089 c 1.1114837,1.724486 3.0073886,2.878504 5.1906478,2.878504 h 4.152518 66.44029 4.152517 c 2.18326,0 4.079164,-1.154018 5.190648,-2.878504 V 7.9375661 0.52624546 -21.40994 c 0,-2.95108 -2.297069,-5.293801 -5.190648,-5.293801 z"
       id="path3400-6"
       inkscape:connector-curvature="0"
       sodipodi:nodetypes="sscccsccscccsss" />
    <path
       inkscape:connector-curvature="0"
       id="path4989"
       d="m 9.8250777,-27.270513 c -3.116621,0 -5.667965,2.53951 -5.667965,5.646004 v 69.277996 c 0,3.106495 2.551344,5.646004 5.667965,5.646004 H 86.616863 c 3.116621,0 5.667968,-2.539509 5.667968,-5.646004 v -69.277996 c 0,-3.106493 -2.551347,-5.646004 -5.667968,-5.646004 z m 0,2.319439 H 86.616863 c 1.888099,0 3.352022,1.480095 3.352022,3.326565 v 69.277996 c 0,1.846474 -1.463923,3.326564 -3.352022,3.326564 H 9.8250777 c -1.888099,0 -3.352022,-1.48009 -3.352022,-3.326564 v -69.277996 c 0,-1.84647 1.463923,-3.326565 3.352022,-3.326565 z"
       style="color:#000000;font-style:normal;font-variant:normal;font-weight:normal;font-stretch:normal;font-size:medium;line-height:normal;font-family:Sans;-inkscape-font-specification:Sans;text-indent:0;text-align:start;text-decoration:none;text-decoration-line:none;letter-spacing:normal;word-spacing:normal;text-transform:none;writing-mode:lr-tb;direction:ltr;baseline-shift:baseline;text-anchor:start;display:inline;overflow:visible;visibility:visible;fill:#202223;fill-opacity:0.93689324;stroke:none;stroke-width:2.3755002;marker:none;enable-background:accumulate" />
    <path
       inkscape:connector-curvature="0"
       style="display:inline;opacity:0.65818182;fill:url(#linearGradient4129);fill-opacity:1;fill-rule:nonzero;stroke:none"
       d="m 1.499997,49.843776 v 6 c 0,3.680142 2.9761066,6.65625 6.6562497,6.65625 H 87.843747 c 3.680143,0 6.656254,-2.976108 6.656254,-6.65625 v -6 c 0,3.680142 -2.976111,6.65625 -6.656254,6.65625 H 8.1562467 c -3.6801431,0 -6.6562496,-2.976108 -6.6562497,-6.65625 z"
       id="path4118" />
    <rect
       style="opacity:0.55;fill:url(#radialGradient7462);fill-opacity:1;stroke:none"
       id="rect4131"
       width="84.250008"
       height="4.25"
       x="5.3749976"
       y="48.250031"
       rx="0"
       ry="4.25" />
    <rect
       ry="4.25"
       rx="0"
       y="-90.085007"
       x="-26.439978"
       height="4.25"
       width="76.75"
       id="rect4141"
       style="opacity:0.669;fill:url(#radialGradient7464);fill-opacity:1;stroke:none"
       transform="rotate(90)" />
    <g
       transform="matrix(2.1022725,0,0,2.1022725,-810.7075,-1089.413)"
       id="g4878"
       style="opacity:0.939">
      <path
         inkscape:connector-curvature="0"
         id="path4243"
         d="m 407.26246,540.30432 c -8.39741,-0.68937 -14.70459,-8.11539 -14.02057,-16.5077 0.20377,-2.50008 0.9299,-4.78688 2.15729,-6.79402 4.8304,-7.89907 15.3941,-9.81391 22.6856,-4.11214 5.06393,3.95988 7.12931,10.82871 5.08807,16.9214 -1.75362,5.2342 -6.11364,9.13024 -11.4514,10.23279 -0.71212,0.14709 -2.97349,0.3829 -3.35943,0.3503 -0.0849,-0.007 -0.57969,-0.0479 -1.09956,-0.0906 z m -1.703,-5.85567 c 2.25672,-0.50436 4.01644,-1.13111 6.40358,-2.28074 3.31298,-1.5955 5.48904,-3.11684 5.91443,-4.13494 0.66358,-1.58817 -0.90269,-3.46038 -3.77095,-4.50755 -1.08131,-0.39478 -3.30857,-0.9473 -4.71564,-1.16983 -0.59416,-0.094 -1.2192,-0.20368 -1.38896,-0.24378 l -0.30866,-0.0729 -0.0691,-1.33394 c -0.13414,-2.58768 -0.63236,-3.72043 -1.71697,-3.90367 -0.58461,-0.0988 -1.37701,0.31627 -1.65895,0.86891 -0.27783,0.54462 -0.27389,1.62613 0.0107,2.94985 0.36025,1.67536 0.35617,1.60307 0.0883,1.56348 -0.26919,-0.0398 -0.22296,0.0336 -0.98848,-1.56961 -1.01587,-2.12756 -1.90525,-2.75308 -2.85367,-2.00706 -0.75446,0.59346 -0.90691,1.71997 -0.47481,3.50848 l 0.24045,0.99526 -0.42308,1.27462 c -0.82051,2.47191 -1.11523,5.09147 -0.75508,6.71154 0.29931,1.3464 1.15045,2.52299 2.18635,3.0223 1.11254,0.53625 2.78112,0.66474 4.28056,0.32961 z m 9.44214,-11.81259 c 0.5985,-0.42559 3.39303,-5.96531 3.18172,-6.30723 -0.0889,-0.14381 -0.33243,-0.11589 -0.61727,0.0707 -0.51577,0.33795 -2.11059,2.81954 -2.76947,4.3094 -0.34849,0.78799 -0.51865,1.66549 -0.36003,1.85662 0.13313,0.1604 0.393,0.19282 0.56505,0.0705 z m -1.92991,-0.66718 c 0.51591,-0.63198 1.20313,-5.78916 0.85751,-6.43497 -0.38541,-0.72014 -0.72969,0.19951 -1.18875,3.17545 -0.27955,1.81216 -0.32554,2.69574 -0.16264,3.12421 0.10787,0.28373 0.32432,0.34302 0.49388,0.13531 z"
         style="fill:#000000;fill-opacity:0.05882353" />
      <path
         style="fill:#000000;fill-opacity:0.11764706"
         d="m 407.26246,539.90432 c -8.39741,-0.68937 -14.70459,-8.11539 -14.02057,-16.5077 0.20377,-2.50008 0.9299,-4.78688 2.15729,-6.79402 4.8304,-7.89907 15.3941,-9.81391 22.6856,-4.11214 5.06393,3.95988 7.12931,10.82871 5.08807,16.9214 -1.75362,5.2342 -6.11364,9.13024 -11.4514,10.23279 -0.71212,0.14709 -2.97349,0.3829 -3.35943,0.3503 -0.0849,-0.007 -0.57969,-0.0479 -1.09956,-0.0906 z m -1.703,-5.85567 c 2.25672,-0.50436 4.01644,-1.13111 6.40358,-2.28074 3.31298,-1.5955 5.48904,-3.11684 5.91443,-4.13494 0.66358,-1.58817 -0.90269,-3.46038 -3.77095,-4.50755 -1.08131,-0.39478 -3.30857,-0.9473 -4.71564,-1.16983 -0.59416,-0.094 -1.2192,-0.20368 -1.38896,-0.24378 l -0.30866,-0.0729 -0.0691,-1.33394 c -0.13414,-2.58768 -0.63236,-3.72043 -1.71697,-3.90367 -0.58461,-0.0988 -1.37701,0.31627 -1.65895,0.86891 -0.27783,0.54462 -0.27389,1.62613 0.0107,2.94985 0.36025,1.67536 0.35617,1.60307 0.0883,1.56348 -0.26919,-0.0398 -0.22296,0.0336 -0.98848,-1.56961 -1.01587,-2.12756 -1.90525,-2.75308 -2.85367,-2.00706 -0.75446,0.59346 -0.90691,1.71997 -0.47481,3.50848 l 0.24045,0.99526 -0.42308,1.27462 c -0.82051,2.47191 -1.11523,5.09147 -0.75508,6.71154 0.29931,1.3464 1.15045,2.52299 2.18635,3.0223 1.11254,0.53625 2.78112,0.66474 4.28056,0.32961 z m 9.44214,-11.81259 c 0.5985,-0.42559 3.39303,-5.96531 3.18172,-6.30723 -0.0889,-0.14381 -0.33243,-0.11589 -0.61727,0.0707 -0.51577,0.33795 -2.11059,2.81954 -2.76947,4.3094 -0.34849,0.78799 -0.51865,1.66549 -0.36003,1.85662 0.13313,0.1604 0.393,0.19282 0.56505,0.0705 z m -1.92991,-0.66718 c 0.51591,-0.63198 1.20313,-5.78916 0.85751,-6.43497 -0.38541,-0.72014 -0.72969,0.19951 -1.18875,3.17545 -0.27955,1.81216 -0.32554,2.69574 -0.16264,3.12421 0.10787,0.28373 0.32432,0.34302 0.49388,0.13531 z"
         id="path4241"
         inkscape:connector-curvature="0" />
      <path
         inkscape:connector-curvature="0"
         id="path4237"
         d="m 407.26246,539.50432 c -8.39741,-0.68937 -14.70459,-8.11539 -14.02057,-16.5077 0.20377,-2.50008 0.9299,-4.78688 2.15729,-6.79402 4.8304,-7.89907 15.3941,-9.81391 22.6856,-4.11214 5.06393,3.95988 7.12931,10.82871 5.08807,16.9214 -1.75362,5.2342 -6.11364,9.13024 -11.4514,10.23279 -0.71212,0.14709 -2.97349,0.3829 -3.35943,0.3503 -0.0849,-0.007 -0.57969,-0.0479 -1.09956,-0.0906 z m -1.703,-5.85567 c 2.25672,-0.50436 4.01644,-1.13111 6.40358,-2.28074 3.31298,-1.5955 5.48904,-3.11684 5.91443,-4.13494 0.66358,-1.58817 -0.90269,-3.46038 -3.77095,-4.50755 -1.08131,-0.39478 -3.30857,-0.9473 -4.71564,-1.16983 -0.59416,-0.094 -1.2192,-0.20368 -1.38896,-0.24378 l -0.30866,-0.0729 -0.0691,-1.33394 c -0.13414,-2.58768 -0.63236,-3.72043 -1.71697,-3.90367 -0.58461,-0.0988 -1.37701,0.31627 -1.65895,0.86891 -0.27783,0.54462 -0.27389,1.62613 0.0107,2.94985 0.36025,1.67536 0.35617,1.60307 0.0883,1.56348 -0.26919,-0.0398 -0.22296,0.0336 -0.98848,-1.56961 -1.01587,-2.12756 -1.90525,-2.75308 -2.85367,-2.00706 -0.75446,0.59346 -0.90691,1.71997 -0.47481,3.50848 l 0.24045,0.99526 -0.42308,1.27462 c -0.82051,2.47191 -1.11523,5.09147 -0.75508,6.71154 0.29931,1.3464 1.15045,2.52299 2.18635,3.0223 1.11254,0.53625 2.78112,0.66474 4.28056,0.32961 z m 9.44214,-11.81259 c 0.5985,-0.42559 3.39303,-5.96531 3.18172,-6.30723 -0.0889,-0.14381 -0.33243,-0.11589 -0.61727,0.0707 -0.51577,0.33795 -2.11059,2.81954 -2.76947,4.3094 -0.34849,0.78799 -0.51865,1.66549 -0.36003,1.85662 0.13313,0.1604 0.393,0.19282 0.56505,0.0705 z m -1.92991,-0.66718 c 0.51591,-0.63198 1.20313,-5.78916 0.85751,-6.43497 -0.38541,-0.72014 -0.72969,0.19951 -1.18875,3.17545 -0.27955,1.81216 -0.32554,2.69574 -0.16264,3.12421 0.10787,0.28373 0.32432,0.34302 0.49388,0.13531 z"
         style="fill:#000000;fill-opacity:0.23529412" />
      <path
         style="fill:#ffffff;fill-opacity:1"
         d="m 407.26246,539.10431 c -8.39741,-0.68937 -14.70459,-8.11539 -14.02057,-16.5077 0.20377,-2.50008 0.9299,-4.78688 2.15729,-6.79402 4.8304,-7.89907 15.3941,-9.81391 22.6856,-4.11214 5.06393,3.95988 7.12931,10.82871 5.08807,16.9214 -1.75362,5.2342 -6.11364,9.13024 -11.4514,10.23279 -0.71212,0.14709 -2.97349,0.3829 -3.35943,0.3503 -0.0849,-0.007 -0.57969,-0.0479 -1.09956,-0.0906 z m -1.703,-5.85567 c 2.25672,-0.50436 4.01644,-1.13111 6.40358,-2.28074 3.31298,-1.5955 5.48904,-3.11684 5.91443,-4.13494 0.66358,-1.58817 -0.90269,-3.46038 -3.77095,-4.50755 -1.08131,-0.39478 -3.30857,-0.9473 -4.71564,-1.16983 -0.59416,-0.094 -1.2192,-0.20368 -1.38896,-0.24378 l -0.30866,-0.0729 -0.0691,-1.33394 c -0.13414,-2.58768 -0.63236,-3.72043 -1.71697,-3.90367 -0.58461,-0.0988 -1.37701,0.31627 -1.65895,0.86891 -0.27783,0.54462 -0.27389,1.62613 0.0107,2.94985 0.36025,1.67536 0.35617,1.60307 0.0883,1.56348 -0.26919,-0.0398 -0.22296,0.0336 -0.98848,-1.56961 -1.01587,-2.12756 -1.90525,-2.75308 -2.85367,-2.00706 -0.75446,0.59346 -0.90691,1.71997 -0.47481,3.50848 l 0.24045,0.99526 -0.42308,1.27462 c -0.82051,2.47191 -1.11523,5.09147 -0.75508,6.71154 0.29931,1.3464 1.15045,2.52299 2.18635,3.0223 1.11254,0.53625 2.78112,0.66474 4.28056,0.32961 z m 9.44214,-11.81259 c 0.5985,-0.42559 3.39303,-5.96531 3.18172,-6.30723 -0.0889,-0.14381 -0.33243,-0.11589 -0.61727,0.0707 -0.51577,0.33795 -2.11059,2.81954 -2.76947,4.3094 -0.34849,0.78799 -0.51865,1.66549 -0.36003,1.85662 0.13313,0.1604 0.393,0.19282 0.56505,0.0705 z m -1.92991,-0.66718 c 0.51591,-0.63198 1.20313,-5.78916 0.85751,-6.43497 -0.38541,-0.72014 -0.72969,0.19951 -1.18875,3.17545 -0.27955,1.81216 -0.32554,2.69574 -0.16264,3.12421 0.10787,0.28373 0.32432,0.34302 0.49388,0.13531 z"
         id="path4219"
         inkscape:connector-curvature="0" />
      <path
         inkscape:connector-curvature="0"
         style="fill:#0c49d8;fill-opacity:0.31372549"
         d="m 29.074219,13.509766 c -0.280942,0.09434 -0.560002,1.170388 -0.904297,3.402343 -0.219556,1.423253 -0.291005,2.260516 -0.234375,2.767579 0.03036,-0.491678 0.102206,-1.111978 0.234375,-1.96875 0.45906,-2.97594 0.80209,-3.895922 1.1875,-3.175782 0.04164,0.07781 0.06632,0.228884 0.08008,0.421875 0.02568,-0.597555 0.0077,-1.056762 -0.08008,-1.220703 -0.09635,-0.180035 -0.189556,-0.258009 -0.283203,-0.226562 z m 4.302734,0.93164 c -0.1076,0.01233 -0.240392,0.06686 -0.382812,0.160156 -0.51577,0.33795 -2.110652,2.818734 -2.769532,4.308594 -0.34849,0.78799 -0.517995,1.666292 -0.359375,1.857422 0.0033,0.004 0.0083,0.006 0.01172,0.0098 0.07008,-0.325521 0.18683,-0.702754 0.347656,-1.066406 0.65888,-1.489861 2.253762,-3.970644 2.769532,-4.308594 0.165145,-0.108182 0.312447,-0.157287 0.427734,-0.15625 0.138495,-0.363836 0.229223,-0.650492 0.189453,-0.714844 -0.04445,-0.0719 -0.126775,-0.102171 -0.234375,-0.08984 z m -12.041015,0.5625 c -0.58461,-0.0988 -1.376264,0.316501 -1.658204,0.869141 -0.17414,0.341362 -0.224712,0.90896 -0.177734,1.599609 0.02714,-0.320486 0.07794,-0.605166 0.177734,-0.800781 0.28194,-0.55264 1.073594,-0.967941 1.658204,-0.869141 1.084609,0.18324 1.582656,1.316617 1.716796,3.904297 l 0.06836,1.333985 0.308594,0.07227 c 0.169759,0.0401 0.796465,0.150141 1.390624,0.244141 1.407071,0.22253 3.633534,0.775142 4.714844,1.169922 2.207721,0.806014 3.631169,2.101057 3.873047,3.378906 0.339405,-1.511282 -1.200097,-3.203823 -3.873047,-4.179688 -1.08131,-0.394779 -3.307773,-0.947391 -4.714844,-1.169921 -0.594159,-0.094 -1.220865,-0.202088 -1.390624,-0.242188 l -0.308594,-0.07422 -0.06836,-1.333984 c -0.13414,-2.58768 -0.632187,-3.719104 -1.716796,-3.902344 z m -4.699219,1.503906 c -0.232624,0.01302 -0.46602,0.114277 -0.703125,0.300782 -0.558399,0.439238 -0.785483,1.172525 -0.691406,2.248047 0.05986,-0.648874 0.285126,-1.127685 0.691406,-1.447266 0.94842,-0.74602 1.837645,-0.121701 2.853515,2.005859 0.76552,1.60321 0.719092,1.530513 0.988282,1.570313 0.195764,0.02893 0.187758,-0.165815 0.0625,-0.796875 -0.02203,-0.0028 -0.03466,2.09e-4 -0.0625,-0.0039 -0.26919,-0.0398 -0.222762,0.03485 -0.988282,-1.56836 -0.761902,-1.59567 -1.452519,-2.347664 -2.15039,-2.308594 z m -1.048828,5.140626 -0.3125,0.939453 c -0.639717,1.927242 -0.955209,3.936915 -0.894532,5.5 0.05207,-1.419459 0.359447,-3.089149 0.894532,-4.701172 l 0.423828,-1.273438 z m 23.777343,2.009765 c -0.04231,1.462737 -0.286262,2.930498 -0.763672,4.355469 -1.75362,5.2342 -6.113411,9.129872 -11.451171,10.232422 -0.71212,0.14709 -2.973435,0.384162 -3.359375,0.351562 -0.0849,-0.007 -0.57974,-0.0491 -1.09961,-0.0918 -7.791553,-0.63963 -13.773101,-7.081355 -14.050781,-14.710934 -0.1286751,7.974679 5.988368,14.84985 14.050781,15.511719 0.51987,0.0427 1.01471,0.08284 1.09961,0.08984 0.38594,0.0326 2.647255,-0.202519 3.359375,-0.349609 5.33776,-1.10255 9.697551,-4.998222 11.451171,-10.232422 0.56462,-1.685275 0.804005,-3.430197 0.763672,-5.15625 z"
         transform="translate(384.57143,499.798)"
         id="path4245" />
      <path
         inkscape:connector-curvature="0"
         style="fill:#ffffff;fill-opacity:0.23529412"
         d="M 24.404297,8.6054688 C 19.104765,8.4686775 13.847125,11.066988 10.828125,16.003906 c -1.22739,2.00714 -1.9544331,4.294842 -2.1582031,6.794922 -0.04608,0.565365 -0.05494,1.124857 -0.039063,1.679688 -10e-4,-0.424145 0.00402,-0.849303 0.039063,-1.279297 0.20377,-2.50008 0.9308131,-4.787782 2.1582031,-6.794922 4.8304,-7.8990701 15.394047,-9.8130983 22.685547,-4.111328 3.730838,2.917432 5.824913,7.413938 5.857422,12.015625 0.09052,-4.740145 -2.01839,-9.413978 -5.857422,-12.416016 C 30.779359,9.7544144 27.584016,8.6875435 24.404297,8.6054688 Z M 33.558594,15.6875 c -0.405178,1.300575 -2.605819,5.579208 -3.128906,5.951172 -0.172051,0.12232 -0.431324,0.09009 -0.564454,-0.07031 -0.01965,-0.02368 -0.01945,-0.08563 -0.0293,-0.128906 -0.0324,0.247278 -0.0343,0.450716 0.0293,0.527344 0.13313,0.1604 0.392403,0.192632 0.564454,0.07031 0.5985,-0.42559 3.39295,-5.96472 3.18164,-6.30664 -0.01252,-0.02025 -0.0344,-0.02949 -0.05273,-0.04297 z m -4.117188,0.03711 c -0.07165,1.752532 -0.554473,4.772109 -0.941406,5.246094 -0.16956,0.20771 -0.386271,0.148964 -0.494141,-0.134765 -0.05628,-0.148035 -0.07664,-0.378086 -0.08203,-0.654297 -0.02673,0.504996 1.95e-4,0.839437 0.08203,1.054687 0.10787,0.28373 0.324581,0.342476 0.494141,0.134766 0.421182,-0.51594 0.947063,-4.015467 0.941406,-5.646485 z m -9.957031,2.339844 c -0.0205,0.542746 0.0408,1.202001 0.203125,1.957031 0.148023,0.688389 0.196538,0.950096 0.228516,1.171875 0.106516,-0.03252 0.0475,-0.288621 -0.228516,-1.572265 -0.124259,-0.57797 -0.185966,-1.09555 -0.203125,-1.556641 z m -4.251953,1.552735 c -0.02507,0.525879 0.04583,1.152318 0.226562,1.90039 l 0.183594,0.763672 0.05664,-0.167969 -0.240235,-0.996093 c -0.137151,-0.567684 -0.207752,-1.061582 -0.226562,-1.5 z m 18.199219,6.949218 c -0.0233,0.157976 -0.0608,0.315088 -0.125,0.46875 -0.42539,1.0181 -2.601083,2.539266 -5.914063,4.134766 -2.38714,1.14963 -4.147577,1.77689 -6.404297,2.28125 -1.49944,0.33513 -3.16871,0.206172 -4.28125,-0.330078 -1.0359,-0.49931 -1.886237,-1.675085 -2.185547,-3.021485 -0.08463,-0.380708 -0.13055,-0.820664 -0.144531,-1.296875 -0.0058,0.631434 0.03699,1.211567 0.144531,1.695313 0.29931,1.3464 1.149647,2.524127 2.185547,3.023437 1.11254,0.53625 2.78181,0.665209 4.28125,0.330078 2.25672,-0.50436 4.017157,-1.131619 6.404297,-2.28125 3.31298,-1.5955 5.488673,-3.116665 5.914063,-4.134765 0.117892,-0.282155 0.142667,-0.575275 0.125,-0.869141 z"
         transform="translate(384.57143,499.798)"
         id="path4250-3" />
    </g>
    <rect
       transform="matrix(1.0692451,0,0,1.0476829,4.2952237,6.479013)"
       style="opacity:0.65;fill:url(#linearGradient4767);fill-opacity:1;stroke:none"
       id="rect4146"
       width="75.965775"
       height="69.024437"
       x="2"
       y="-30"
       rx="3.9569874"
       ry="3.9569881"
       clip-path="url(#clipPath4156-4-1)" />
  </g>
</svg>
