<?xml version="1.0" encoding="UTF-8" standalone="no"?>
<!-- Created with Inkscape (http://www.inkscape.org/) -->

<svg
   xmlns:dc="http://purl.org/dc/elements/1.1/"
   xmlns:cc="http://creativecommons.org/ns#"
   xmlns:rdf="http://www.w3.org/1999/02/22-rdf-syntax-ns#"
   xmlns:svg="http://www.w3.org/2000/svg"
   xmlns="http://www.w3.org/2000/svg"
   xmlns:xlink="http://www.w3.org/1999/xlink"
   xmlns:sodipodi="http://sodipodi.sourceforge.net/DTD/sodipodi-0.dtd"
   xmlns:inkscape="http://www.inkscape.org/namespaces/inkscape"
   width="96"
   height="96"
   version="1.1"
   id="svg168"
   sodipodi:docname="xonotic.svg"
   inkscape:version="0.92.2 5c3e80d, 2017-08-06">
  <sodipodi:namedview
     pagecolor="#ffffff"
     bordercolor="#666666"
     borderopacity="1"
     objecttolerance="10"
     gridtolerance="10"
     guidetolerance="10"
     inkscape:pageopacity="0"
     inkscape:pageshadow="2"
     inkscape:window-width="1280"
     inkscape:window-height="972"
     id="namedview170"
     showgrid="false"
     inkscape:zoom="11.824202"
     inkscape:cx="17.966876"
     inkscape:cy="68.181065"
     inkscape:window-x="0"
     inkscape:window-y="23"
     inkscape:window-maximized="1"
     inkscape:current-layer="svg168" />
  <defs
     id="defs14">
    <radialGradient
       id="b"
       cx="30.099"
       cy="45.124"
       r="32"
       fx="63.257"
       fy="45.105"
       gradientTransform="matrix(-5.6536,-3.2961,1.1899,-2.061,52.846566,149.05258)"
       gradientUnits="userSpaceOnUse">
      <stop
         stop-color="#45f4ff"
         offset="0"
         id="stop2" />
      <stop
         stop-color="#0a4fff"
         stop-opacity="0"
         offset="1"
         id="stop4" />
    </radialGradient>
    <radialGradient
       id="a"
       cx="32.069"
       cy="6.8274"
       r="32"
       fx="31.613"
       fy="43.381"
       gradientTransform="matrix(0.84841059,2.1261959e-8,-4.1705803e-8,1.7747775,27.917789,-80.408425)"
       gradientUnits="userSpaceOnUse">
      <stop
         stop-color="#ff2b0b"
         stop-opacity=".78039"
         offset="0"
         id="stop7" />
      <stop
         stop-color="#fe097e"
         stop-opacity=".35294"
         offset=".38601"
         id="stop9" />
      <stop
         stop-color="#fa004e"
         stop-opacity="0"
         offset="1"
         id="stop11" />
    </radialGradient>
    <linearGradient
       inkscape:collect="always"
       xlink:href="#linearGradient6139-0"
       id="linearGradient4071"
       gradientUnits="userSpaceOnUse"
       gradientTransform="matrix(1.1048363,0,0,1.104836,-5.0321443,-3.927291)"
       x1="6"
       y1="47.000011"
       x2="90"
       y2="47.000011" />
    <linearGradient
       id="linearGradient6139-0">
      <stop
         id="stop6141-2"
         offset="0"
         style="stop-color:#b2babc;stop-opacity:1" />
      <stop
         style="stop-color:#ffffff;stop-opacity:1;"
         offset="0.25"
         id="stop6151-0" />
      <stop
         style="stop-color:#96a1a4;stop-opacity:1"
         offset="0.5"
         id="stop6147-1" />
      <stop
         id="stop6149-4"
         offset="0.75"
         style="stop-color:#fbf9f9;stop-opacity:1;" />
      <stop
         id="stop6143-4"
         offset="1"
         style="stop-color:#b2b9bc;stop-opacity:1" />
    </linearGradient>
    <linearGradient
       gradientTransform="matrix(0.99791668,0,0,0.99791665,0.09999748,0.10001522)"
       inkscape:collect="always"
       xlink:href="#linearGradient3832-0-6-1-1"
       id="linearGradient4129"
       x1="1.5"
       y1="88.171875"
       x2="94.5"
       y2="88.171875"
       gradientUnits="userSpaceOnUse" />
    <linearGradient
       id="linearGradient3832-0-6-1-1">
      <stop
         style="stop-color:#000000;stop-opacity:1;"
         offset="0"
         id="stop3834-6-3-7-1" />
      <stop
         id="stop3872-2-4"
         offset="0.1"
         style="stop-color:#000000;stop-opacity:0.58823532;" />
      <stop
         style="stop-color:#000000;stop-opacity:0.58823532;"
         offset="0.89999998"
         id="stop3844-6-2-7-6" />
      <stop
         style="stop-color:#000000;stop-opacity:1;"
         offset="1"
         id="stop3836-5-0-2-9" />
    </linearGradient>
    <radialGradient
       inkscape:collect="always"
       xlink:href="#linearGradient3737"
       id="radialGradient7462"
       gradientUnits="userSpaceOnUse"
       gradientTransform="matrix(0.97310226,0,0,0.04908824,33.928071,80.099696)"
       cx="13.948145"
       cy="44.892841"
       fx="13.948145"
       fy="44.892841"
       r="43.199203" />
    <linearGradient
       id="linearGradient3737">
      <stop
         offset="0"
         style="stop-color:#ffffff;stop-opacity:1"
         id="stop3739" />
      <stop
         offset="1"
         style="stop-color:#ffffff;stop-opacity:0"
         id="stop3741" />
    </linearGradient>
    <radialGradient
       inkscape:collect="always"
       xlink:href="#linearGradient3737"
       id="radialGradient7464"
       gradientUnits="userSpaceOnUse"
       gradientTransform="matrix(0.88647594,0,0,0.04908824,31.578789,-90.080455)"
       cx="13.948145"
       cy="44.892841"
       fx="13.948145"
       fy="44.892841"
       r="43.199203" />
    <linearGradient
       inkscape:collect="always"
       xlink:href="#linearGradient3737"
       id="linearGradient4767"
       gradientUnits="userSpaceOnUse"
       x1="2.7713892"
       y1="-28.64156"
       x2="50.527882"
       y2="14.514202" />
    <clipPath
       id="clipPath4156-4-1"
       clipPathUnits="userSpaceOnUse">
      <path
         inkscape:connector-curvature="0"
         id="path4158-0-8"
         d="m 27.046336,-55.695463 -14.21366,13.321486 h 0.06127 l 15.653407,21.770763 10.231384,-10.546177 C 38.561832,-32.30156 27.468089,-54.819245 27.046336,-55.695463 Z M 9.6468554,-39.382809 -5.2407289,-25.32124 15.987863,-7.8059573 26.372412,-18.382966 Z m 31.4906096,12.951445 -9.741259,9.713584 8.944804,12.4580526 7.780753,-7.5550056 z m -49.8397109,4.378822 -13.7541661,12.9822847 26.2830181,13.84571 0.06127,-0.0617 -0.122531,-0.0617 L 13.598503,-5.4007374 -8.7022409,-22.052595 Z m 38.0154159,7.400825 -9.802525,9.7752596 11.579232,9.5594001 7.62759,-7.40083 -8.669108,-11.0087257 z m 20.187073,5.6739697 -7.382526,7.2158 6.187844,8.54179 5.820249,-6.13651996 z m -32.195166,6.32154 -9.5574606,9.49772 13.6622686,7.1849703 7.933918,-7.6783603 z m 23.311629,2.37443004 -7.10683,6.93826996 8.362778,6.9074403 5.360756,-5.6739699 -0.06127,-0.0925 -0.0919,0.12335 -6.463539,-8.20258036 z m -8.730374,8.54178036 -7.505057,7.3391599 10.353916,5.45811 c 1.397496,-1.32103 5.67514,-6.12292 5.850882,-6.32154 z"
         style="opacity:0.6;fill:#ffffff;fill-opacity:1;stroke:none" />
    </clipPath>
    <linearGradient
       id="ButtonShadow-16"
       gradientTransform="scale(1.0058652,0.994169)"
       x1="45.447727"
       y1="92.539597"
       x2="45.447727"
       y2="7.0165396"
       gradientUnits="userSpaceOnUse">
      <stop
         style="stop-color:#000000;stop-opacity:1;"
         offset="0"
         id="stop3750-6" />
      <stop
         style="stop-color:#000000;stop-opacity:0.58823532;"
         offset="1"
         id="stop3752-4" />
    </linearGradient>
    <clipPath
       clipPathUnits="userSpaceOnUse"
       id="clipPath4355-7">
      <rect
         style="fill:#ffffff;fill-opacity:1;fill-rule:nonzero;stroke:none"
         id="rect4357-5"
         width="84"
         height="80"
         x="6"
         y="6"
         rx="6"
         ry="6" />
    </clipPath>
    <clipPath
       clipPathUnits="userSpaceOnUse"
       id="clipPath4355-9">
      <rect
         style="fill:#ffffff;fill-opacity:1;fill-rule:nonzero;stroke:none"
         id="rect4357-1"
         width="84"
         height="80"
         x="6"
         y="6"
         rx="6"
         ry="6" />
    </clipPath>
    <clipPath
       clipPathUnits="userSpaceOnUse"
       id="clipPath4355-1">
      <rect
         style="fill:#ffffff;fill-opacity:1;fill-rule:nonzero;stroke:none"
         id="rect4357-9"
         width="84"
         height="80"
         x="6"
         y="6"
         rx="6"
         ry="6" />
    </clipPath>
    <clipPath
       clipPathUnits="userSpaceOnUse"
       id="clipPath3943-52-0">
      <path
         id="path3945-4-1"
         d="m 69.78125,20.84375 -5,3.4375 c 5.586891,5.537137 9,13.327613 9,21.8125 0,8.434478 -3.37723,16.095981 -8.90625,21.625 l 5,3.4375 C 76.078226,64.5762 80,55.843726 80,46.09375 c 2e-6,-9.796556 -3.962955,-18.660417 -10.21875,-25.25 z M 40,24.0625 28.90625,36.21875 H 21.5 c -0.823281,0 -1.5,0.676717 -1.5,1.5 v 1 14.84375 1 c 0,0.823281 0.684121,1.610161 1.5,1.5 h 7.40625 L 40,68 V 66 26.0625 Z m 20.59375,3.28125 -5,3.4375 L 55.5,30.875 c 3.93815,3.890071 6.40625,9.25018 6.40625,15.21875 0,5.920869 -2.42961,11.148358 -6.3125,15.03125 l 0.09375,0.09375 5.09375,3.4375 c 4.475428,-4.908367 7.25,-11.402005 7.25,-18.5625 0,-7.230696 -2.87904,-13.83107 -7.4375,-18.75 z m -9.25,6.5 -5.21875,3.625 c 2.222384,2.217802 3.71875,5.239596 3.71875,8.625 0,3.336509 -1.458847,6.227712 -3.625,8.4375 l 5.21875,3.625 c 2.822412,-3.236947 4.53125,-7.43414 4.53125,-12.0625 0,-4.672601 -1.754155,-9.001351 -4.625,-12.25 z"
         style="color:#000000;display:inline;overflow:visible;visibility:visible;opacity:0.8;fill:#ff00ff;fill-opacity:1;fill-rule:nonzero;stroke:none;stroke-width:1;marker:none;enable-background:accumulate"
         inkscape:connector-curvature="0" />
    </clipPath>
  </defs>
  <metadata
     id="metadata16">
    <rdf:RDF>
      <cc:Work
         rdf:about="">
        <dc:format>image/svg+xml</dc:format>
        <dc:type
           rdf:resource="http://purl.org/dc/dcmitype/StillImage" />
        <dc:title />
      </cc:Work>
    </rdf:RDF>
  </metadata>
  <path
     style="display:inline;opacity:0.15;fill:#000000;fill-opacity:1;fill-rule:nonzero;stroke:none;stroke-width:0.9979167"
     d="M 89.057141,0.10001522 H 6.9428495 c -3.7909339,0 -6.84284962,3.05191248 -6.84284962,6.84285418 V 89.057157 c 0,3.790942 3.05191572,6.842857 6.84284962,6.842857 H 89.057141 c 3.790942,0 6.842861,-3.051915 6.842861,-6.842857 V 6.9428694 c 0,-3.7909417 -3.051919,-6.84285418 -6.842861,-6.84285418 z"
     id="path3288"
     inkscape:connector-curvature="0" />
  <path
     inkscape:connector-curvature="0"
     id="path4085"
     d="M 88.415625,0.84845271 H 7.5843662 c -3.7317015,0 -6.73593061,3.00422609 -6.73593061,6.73593339 V 88.415639 c 0,3.731709 3.00422911,6.735937 6.73593061,6.735937 H 88.415625 c 3.731711,0 6.735939,-3.004228 6.735939,-6.735937 V 7.5843861 c 0,-3.7317073 -3.004228,-6.73593339 -6.735939,-6.73593339 z"
     style="display:inline;opacity:0.15;fill:#000000;fill-opacity:1;fill-rule:nonzero;stroke:none;stroke-width:0.9979167" />
  <path
     style="display:inline;fill:url(#linearGradient4071);fill-opacity:1;fill-rule:nonzero;stroke:none;stroke-width:0.9979167"
     d="M 87.774102,1.5968902 H 8.2258909 c -3.6724761,0 -6.6290174,2.9565416 -6.6290174,6.6290146 V 87.774122 c 0,3.672477 2.9565413,6.629017 6.6290174,6.629017 H 87.774102 c 3.672477,0 6.629015,-2.956542 6.629015,-6.629017 V 8.2259048 c 0,-3.672473 -2.956538,-6.6290146 -6.629015,-6.6290146 z"
     id="rect4251-1"
     inkscape:connector-curvature="0" />
  <path
     style="display:inline;opacity:0.98000004;fill:#1d54b3;fill-opacity:1;fill-rule:nonzero;stroke:none;stroke-width:1.03348196"
     d="m 11.317872,6.4738506 c -2.8505457,0 -5.1134535,2.3109175 -5.1134535,5.2219364 v 21.638389 7.310708 40.306809 c 1.0949541,1.701075 2.9626636,2.839426 5.1134535,2.839426 h 4.090763 65.452205 5.656974 c 2.150792,0 2.452289,0.0363 3.547243,-1.664766 V 40.644884 33.334176 11.695787 c 0,-2.9110189 -2.262908,-5.2219364 -5.113455,-5.2219364 z"
     id="path3400-6"
     inkscape:connector-curvature="0"
     sodipodi:nodetypes="sscccsccscccsss" />
  <path
     style="color:#000000;font-style:normal;font-variant:normal;font-weight:normal;font-stretch:normal;font-size:medium;line-height:normal;font-family:sans-serif;font-variant-ligatures:normal;font-variant-position:normal;font-variant-caps:normal;font-variant-numeric:normal;font-variant-alternates:normal;font-feature-settings:normal;text-indent:0;text-align:start;text-decoration:none;text-decoration-line:none;text-decoration-style:solid;text-decoration-color:#000000;letter-spacing:normal;word-spacing:normal;text-transform:none;writing-mode:lr-tb;direction:ltr;text-orientation:mixed;dominant-baseline:auto;baseline-shift:baseline;text-anchor:start;white-space:normal;shape-padding:0;clip-rule:nonzero;display:inline;overflow:visible;visibility:visible;opacity:1;isolation:auto;mix-blend-mode:normal;color-interpolation:sRGB;color-interpolation-filters:linearRGB;solid-color:#000000;solid-opacity:1;vector-effect:none;fill:#ffffff;fill-opacity:0.32038835;fill-rule:nonzero;stroke:none;stroke-width:1.60000002;stroke-linecap:butt;stroke-linejoin:miter;stroke-miterlimit:4;stroke-dasharray:none;stroke-dashoffset:0;stroke-opacity:1;color-rendering:auto;image-rendering:auto;shape-rendering:auto;text-rendering:auto;enable-background:accumulate"
     d="M 33.515625,9.7871094 C 16.2605,16.774584 7.7693418,38.892726 14.920387,55.870691 21.24002,71.900804 40.270252,81.92185 56.987879,77.06967 72.804456,72.984017 84.998824,57.029741 83.512234,40.542487 82.799232,29.536936 76.920082,18.890512 67.730469,12.720703 66.647095,8.9587571 57.61998,10.07665 62.042239,13.932982 c 12.764549,7.296251 17.365572,25.84114 9.03481,38.080208 -2.502842,2.793874 -6.453582,0.652393 -9.337273,-0.334393 -3.868337,-0.726629 -6.291823,-4.90822 -5.257988,-8.656316 0.821652,-4.361383 4.465961,-7.566775 8.598499,-8.78835 2.983081,-0.386478 5.807357,-4.525753 1.774688,-5.623391 -1.425233,0.127072 -5.577696,-0.970462 -1.737976,-1.119175 4.030104,1.299144 7.393199,-4.278396 3.051145,-6.389202 -2.831672,-1.164205 -6.084152,-0.767989 -9.063554,-1.555317 -3.232479,-0.660165 -6.531489,0.08806 -9.316706,1.793355 -9.502211,4.745528 -16.657181,12.839577 -25.052617,19.14597 -3.281268,3.764281 3.035566,5.533103 5.05493,2.558976 -0.683897,2.321314 0.822364,5.257316 3.403458,3.185631 3.405023,-0.521902 -0.340531,4.476898 -1.546695,5.595863 -2.275432,3.043994 -6.729228,2.573957 -7.691007,-1.310047 -2.28489,-5.388336 -4.010797,-11.281374 -2.980431,-17.18008 0.898855,-6.647818 4.504611,-12.822007 9.790637,-16.927742 1.406314,-1.54321 8.092688,-5.493298 2.749466,-6.6218626 z m 0.06836,1.7519526 c -5.156884,4.810521 -11.28367,9.509572 -13.025346,16.725461 -4.699206,13.173594 2.047073,29.526896 14.934264,35.142997 4.074226,1.58747 9.426607,2.826096 10.835507,7.598771 1.212166,5.763464 7.713997,-3.844892 2.346792,-3.108052 -2.03044,0.477772 -3.016216,-3.887614 -5.685265,-4.267579 -4.468107,-2.117056 -9.854131,-2.977343 -13.117825,-7.024507 -0.286538,-3.457135 4.708166,-4.144856 5.871533,-7.151911 1.248557,-2.279689 1.546265,-7.121222 -2.5069,-5.285522 -3.50916,2.33126 -0.185656,-2.457327 0.453399,-3.77957 -2.36455,-1.140753 -5.982891,3.776841 -7.805759,1.558547 2.182869,-2.776911 5.495554,-4.42996 8.015662,-6.899651 6.76947,-5.782499 13.632622,-12.197982 22.500344,-14.458202 3.504236,2.252403 8.503751,-0.433298 11.583683,2.719603 2.31565,3.100785 -4.174808,1.684999 -5.901057,3.258895 -3.072485,1.183762 -0.508021,4.429844 1.896881,3.086651 2.587202,-0.341999 4.297881,2.654027 0.780725,2.712637 -5.817985,2.121051 -11.471228,8.08922 -9.85005,14.699606 1.607606,5.597154 8.0035,7.373573 13.153555,7.817008 3.886154,1.306388 5.152462,-3.691066 6.685978,-6.307484 5.549448,-12.880136 0.06887,-29.494362 -12.345809,-36.182229 3.961405,-0.228243 6.612948,3.361326 9.270208,5.771758 12.210454,11.524803 13.908952,32.693246 2.891957,45.602904 C 65.338936,75.358526 48.09002,80.181063 34.496738,73.778774 20.795204,67.857488 11.68895,52.270212 14.417877,37.404677 16.111844,26.388807 23.240463,16.048632 33.583985,11.539062 Z m 23.25,9.851563 c -9.401986,2.894278 -16.932318,9.545863 -24.199123,15.889289 0.696791,3.371867 8.008871,-3.097277 5.216381,1.230205 -2.896624,1.433073 -1.192246,3.432416 0.374854,5.10507 -0.477718,3.195564 -2.094069,6.365701 -4.331923,8.901042 -2.912891,2.486947 -1.703245,6.590841 1.981847,7.424417 3.595775,2.009916 8.814321,1.680886 11.008452,5.741051 3.782442,1.915691 5.575819,-3.489883 8.848075,-4.273032 3.32168,-0.27959 6.816147,-1.705707 9.014345,-4.296116 0.359268,-4.095299 -6.236843,-2.211787 -8.035944,-5.339604 -3.797039,-3.444997 -3.828634,-9.518843 -0.892524,-13.50546 1.908839,-2.668224 4.780381,-4.370656 7.28257,-6.409028 -2.117488,-1.073711 -7.568237,-1.614369 -3.572286,-4.705774 1.946494,-1.023512 8.009928,-3.667628 3.049721,-5.131153 -1.698348,0.546228 -5.132838,2.110559 -5.744445,-0.630907 z M 53.75,23.554688 c 4.495664,1.488877 -1.901156,6.605601 -3.027307,2.525564 0.852262,-1.014386 2.799759,-0.994188 3.027307,-2.525564 z m 2.638672,0.148437 c 1.187671,0.988046 5.927078,0.373581 2.328802,2.137936 -3.541608,1.250643 -2.381342,5.553124 -0.08418,7.425843 -6.095081,3.797717 -8.800892,13.165859 -3.894256,18.942168 1.668339,2.813561 5.758262,2.305649 7.789442,4.491985 -1.766436,2.451403 -5.524347,2.003655 -7.874139,3.853816 -2.52068,0.674366 -5.827997,5.2837 -7.72358,2.541596 -3.400948,-3.695547 -9.322748,-2.709684 -12.82915,-6.26445 0.455652,-4.865015 5.972676,-7.883138 5.492608,-13.035137 0.454209,-2.455644 -0.924998,-5.190241 1.143415,-7.111787 -0.54226,-1.404158 -4.013682,-2.40386 -0.878678,-3.415465 3.058139,-1.665542 4.943086,-5.155067 8.41777,-6.076864 2.468636,1.304774 6.58228,3.664737 8.508398,-0.174688 0.481678,-1.084318 0.194462,-2.336873 -0.396452,-3.314953 z M 17.716797,29.6875 c -6.14034,13.153717 -1.844174,30.182482 9.856912,38.803258 5.156986,4.070933 11.543193,6.675903 18.133281,6.981862 C 46.927922,70.607283 42.597346,65.855056 37.88651,65.315082 23.87833,60.821167 15.174776,44.346541 19.220703,30.228516 18.719401,30.048177 18.218099,29.867839 17.716797,29.6875 Z m 60.619141,0.400391 c -2.610461,2.576268 -0.03801,6.273913 -0.295627,9.37659 -1.01045,5.739506 -2.86033,11.536227 -6.55554,16.183244 -3.837299,5.154545 -9.495455,8.868827 -15.76301,10.283782 -3.532268,1.842189 -6.194983,5.64444 -6.55764,9.615794 C 64.888385,75.297131 79.442289,62.28921 80.844236,46.508458 81.502939,40.945695 80.718803,35.176583 78.335938,30.087891 Z m 0.876953,9.644531 c 1.736663,14.624009 -8.581485,29.720285 -22.977419,33.096221 -2.800586,2.099973 -6.712815,-0.257439 -2.91726,-2.860075 3.850372,-4.432536 10.863462,-3.740797 14.59918,-8.33967 6.449352,-5.424394 10.704242,-13.465628 11.295499,-21.896476 z m -62.371094,0.439453 c 1.081741,12.87624 10.805268,24.994084 23.671436,27.587966 3.506913,0.660436 4.599682,7.605992 -0.154496,5.613279 C 36.445675,71.618679 32.266063,70.218498 28.913763,67.400023 20.701537,61.126682 15.260913,50.6364 16.841797,40.171875 Z m 51.355469,15.492187 c -3.84436,4.360502 -9.560737,6.150059 -14.782905,8.255963 1.649822,3.259413 5.866496,-0.07186 8.178572,-1.101499 2.228775,-1.962185 7.750178,-3.454725 7.095609,-6.813384 z m -20.970704,14.25 c 2.717778,0.205893 -0.386635,2.863684 0,0 z"
     id="path1131"
     inkscape:connector-curvature="0" />
  <g
     transform="matrix(1.4678187,0,0,1.4678187,-0.30696811,-10.520601)"
     id="g166"
     style="fill:none;stroke-linejoin:round">
    <g
       id="g1127"
       transform="translate(0.53471854,4.5254611)">
      <path
         style="fill:none;fill-opacity:1;stroke:#ffe359;stroke-opacity:1"
         inkscape:connector-curvature="0"
         id="path162"
         d="m 38.281,16.967 c -6.0662,0.97847 -13.829,8.5538 -21.392,14.961 l 9.2996,-4.2931 -5.3746,5.7147 4.9642,-2.1745 c -1.5245,3.005 -1.3613,8.2026 -6.3781,9.227 2.6122,2.5853 5.9692,4.4211 9.7233,5.1405 1.7897,0.34015 3.0385,3.8356 3.5737,3.8356 0.53523,0 1.7841,-3.4955 3.5737,-3.8356 3.8979,-0.74686 7.3666,-2.6975 10.019,-5.4414 -13.272,0.16591 -12.434,-13.3 -0.70805,-16.246 -0.90435,-0.84296 -3.9142,-0.68475 -6.3781,-0.29549 0.42938,-2.8714 4.501,-4.2466 7.5099,-3.8748 -1.7196,-1.7445 -3.8132,-3.0049 -7.2869,-1.5555 z m -1.667,2.4197 0.90319,0.89204 c -1.1792,0.99866 -2.227,1.065 -3.2225,0.17282 z" />
      <path
         style="fill:none;fill-opacity:1;stroke:#73ebff"
         inkscape:connector-curvature="0"
         id="path164"
         d="M 22.614,10.718 C 14.8888,14.3807 9.54,22.251 9.54,31.683 c 0,12.606 10.231,22.836 22.836,22.836 12.606,0 22.836,-10.231 22.836,-22.836 0,-9.1127 -5.3489,-16.983 -13.074,-20.965 6.0972,3.4229 10.219,9.9485 10.219,17.434 0,9.7315 -6.9692,17.844 -16.185,19.619 -1.2296,0.23693 -2.7263,5.7147 -3.7968,5.7147 -1.0705,0 -2.5672,-5.4778 -3.7968,-5.7147 -9.2158,-1.7754 -16.185,-9.8879 -16.185,-19.619 0,-7.4854 4.1223,-14.011 10.219,-17.434 z" />
    </g>
  </g>
  <path
     inkscape:connector-curvature="0"
     id="path4989"
     d="m 9.9046094,4.8196221 c -3.1101282,0 -5.656157,2.5342193 -5.656157,5.6342429 v 69.133666 c 0,3.100022 2.5460288,5.634242 5.656157,5.634242 H 86.536412 c 3.110129,0 5.65616,-2.53422 5.65616,-5.634242 V 10.453865 c 0,-3.1000216 -2.546031,-5.6342429 -5.65616,-5.6342429 z m 0,2.3146078 H 86.536412 c 1.884166,0 3.345038,1.4770104 3.345038,3.3196351 v 69.133666 c 0,1.842627 -1.460872,3.319632 -3.345038,3.319632 H 9.9046094 c -1.8841656,0 -3.3450388,-1.477005 -3.3450388,-3.319632 V 10.453865 c 0,-1.8426247 1.4608732,-3.3196351 3.3450388,-3.3196351 z"
     style="color:#000000;font-style:normal;font-variant:normal;font-weight:normal;font-stretch:normal;font-size:medium;line-height:normal;font-family:Sans;-inkscape-font-specification:Sans;text-indent:0;text-align:start;text-decoration:none;text-decoration-line:none;letter-spacing:normal;word-spacing:normal;text-transform:none;writing-mode:lr-tb;direction:ltr;baseline-shift:baseline;text-anchor:start;display:inline;overflow:visible;visibility:visible;fill:#212222;fill-opacity:0.92718446;stroke:none;stroke-width:2.37055135;marker:none;enable-background:accumulate" />
  <path
     inkscape:connector-curvature="0"
     style="display:inline;opacity:0.65818182;fill:url(#linearGradient4129);fill-opacity:1;fill-rule:nonzero;stroke:none;stroke-width:0.9979167"
     d="m 1.5968725,81.773256 v 5.9875 c 0,3.672475 2.9699064,6.642383 6.6423825,6.642383 H 87.76074 c 3.672477,0 6.642387,-2.969908 6.642387,-6.642383 v -5.9875 c 0,3.672475 -2.96991,6.642383 -6.642387,6.642383 H 8.239255 c -3.6724761,0 -6.6423825,-2.969908 -6.6423825,-6.642383 z"
     id="path4118" />
  <rect
     style="opacity:0.55;fill:url(#radialGradient7462);fill-opacity:1;stroke:none;stroke-width:0.9979167"
     id="rect4131"
     width="84.074486"
     height="4.2411456"
     x="5.4638"
     y="80.182831"
     rx="0"
     ry="4.2411456" />
  <rect
     ry="4.2411461"
     rx="0"
     y="-89.99733"
     x="5.6484313"
     height="4.2411461"
     width="76.590103"
     id="rect4141"
     style="opacity:0.669;fill:url(#radialGradient7464);fill-opacity:1;stroke:none;stroke-width:0.9979167"
     transform="rotate(90)" />
  <rect
     transform="matrix(1.0670175,0,0,1.0455002,4.3862759,38.498836)"
     style="opacity:0.7;fill:url(#linearGradient4767);fill-opacity:1;stroke:none"
     id="rect4146"
     width="75.965775"
     height="69.024437"
     x="2"
     y="-30"
     rx="3.9569874"
     ry="3.9569881"
     clip-path="url(#clipPath4156-4-1)" />
  <g
     style="fill:none;stroke-linejoin:round;stroke:#000000;stroke-opacity:1;stroke-width:1.68140657;stroke-miterlimit:4;stroke-dasharray:none"
     id="g1135"
     transform="matrix(1.4678187,0,0,1.4678187,-0.30696811,-10.520601)">
    <g
       transform="translate(0.53471854,4.5254611)"
       id="g1133"
       style="stroke:#000000;stroke-opacity:1;stroke-width:1.68140657;stroke-miterlimit:4;stroke-dasharray:none" />
  </g>
</svg>
