<?xml version="1.0" encoding="UTF-8" standalone="no"?>
<!-- Created with Inkscape (http://www.inkscape.org/) -->

<svg
   xmlns:dc="http://purl.org/dc/elements/1.1/"
   xmlns:cc="http://creativecommons.org/ns#"
   xmlns:rdf="http://www.w3.org/1999/02/22-rdf-syntax-ns#"
   xmlns:svg="http://www.w3.org/2000/svg"
   xmlns="http://www.w3.org/2000/svg"
   xmlns:xlink="http://www.w3.org/1999/xlink"
   xmlns:sodipodi="http://sodipodi.sourceforge.net/DTD/sodipodi-0.dtd"
   xmlns:inkscape="http://www.inkscape.org/namespaces/inkscape"
   width="96"
   height="96"
   viewBox="0 0 96.000001 96.000004"
   version="1.1"
   id="svg1072"
   inkscape:version="0.92.1 r15371"
   sodipodi:docname="yad.svg">
  <defs
     id="defs1066">
    <linearGradient
       id="linearGradient1198"
       inkscape:collect="always">
      <stop
         id="stop1194"
         offset="0"
         style="stop-color:#89d0fe;stop-opacity:1" />
      <stop
         style="stop-color:#b9effe;stop-opacity:0.96470588"
         offset="0.67605275"
         id="stop1200" />
      <stop
         id="stop1196"
         offset="1"
         style="stop-color:#e4f6fb;stop-opacity:0.80821919" />
    </linearGradient>
    <linearGradient
       y2="47.000011"
       x2="90"
       y1="47.000011"
       x1="6"
       gradientTransform="matrix(1.1071428,0,0,1.1071426,-4.9939026,-3.620687)"
       gradientUnits="userSpaceOnUse"
       id="linearGradient4071"
       xlink:href="#linearGradient6139-0"
       inkscape:collect="always" />
    <linearGradient
       id="linearGradient6139-0">
      <stop
         style="stop-color:#b2babc;stop-opacity:1"
         offset="0"
         id="stop6141-2" />
      <stop
         id="stop6151-0"
         offset="0.25"
         style="stop-color:#ffffff;stop-opacity:1;" />
      <stop
         id="stop6147-1"
         offset="0.5"
         style="stop-color:#96a1a4;stop-opacity:1" />
      <stop
         style="stop-color:#fbf9f9;stop-opacity:1;"
         offset="0.75"
         id="stop6149-4" />
      <stop
         style="stop-color:#b2b9bc;stop-opacity:1"
         offset="1"
         id="stop6143-4" />
    </linearGradient>
    <linearGradient
       gradientUnits="userSpaceOnUse"
       y2="88.171875"
       x2="94.5"
       y1="88.171875"
       x1="1.5"
       id="linearGradient4129"
       xlink:href="#linearGradient3832-0-6-1-1"
       inkscape:collect="always"
       gradientTransform="translate(0.1489535,0.415026)" />
    <linearGradient
       id="linearGradient3832-0-6-1-1">
      <stop
         id="stop3834-6-3-7-1"
         offset="0"
         style="stop-color:#000000;stop-opacity:1;" />
      <stop
         style="stop-color:#000000;stop-opacity:0.58823532;"
         offset="0.1"
         id="stop3872-2-4" />
      <stop
         id="stop3844-6-2-7-6"
         offset="0.89999998"
         style="stop-color:#000000;stop-opacity:0.58823532;" />
      <stop
         id="stop3836-5-0-2-9"
         offset="1"
         style="stop-color:#000000;stop-opacity:1;" />
    </linearGradient>
    <radialGradient
       r="43.199203"
       fy="44.892841"
       fx="13.948145"
       cy="44.892841"
       cx="13.948145"
       gradientTransform="matrix(0.97513378,0,0,0.04919072,34.047649,80.581722)"
       gradientUnits="userSpaceOnUse"
       id="radialGradient7462"
       xlink:href="#linearGradient3737"
       inkscape:collect="always" />
    <linearGradient
       id="linearGradient3737">
      <stop
         id="stop3739"
         style="stop-color:#ffffff;stop-opacity:1"
         offset="0" />
      <stop
         id="stop3741"
         style="stop-color:#ffffff;stop-opacity:0"
         offset="1" />
    </linearGradient>
    <radialGradient
       r="43.199203"
       fy="44.892841"
       fx="13.948145"
       cy="44.892841"
       cx="13.948145"
       gradientTransform="matrix(0.88832663,0,0,0.04919072,31.959518,-90.31726)"
       gradientUnits="userSpaceOnUse"
       id="radialGradient7464"
       xlink:href="#linearGradient3737"
       inkscape:collect="always" />
    <linearGradient
       y2="14.514202"
       x2="50.527882"
       y1="-28.64156"
       x1="2.7713892"
       gradientUnits="userSpaceOnUse"
       id="linearGradient4767"
       xlink:href="#linearGradient3737"
       inkscape:collect="always" />
    <clipPath
       clipPathUnits="userSpaceOnUse"
       id="clipPath4156-4-1">
      <path
         style="opacity:0.6;fill:#ffffff;fill-opacity:1;stroke:none"
         d="m 27.046336,-55.695463 -14.21366,13.321486 h 0.06127 l 15.653407,21.770763 10.231384,-10.546177 C 38.561832,-32.30156 27.468089,-54.819245 27.046336,-55.695463 Z M 9.6468554,-39.382809 -5.2407289,-25.32124 15.987863,-7.8059573 26.372412,-18.382966 Z m 31.4906096,12.951445 -9.741259,9.713584 8.944804,12.4580526 7.780753,-7.5550056 z m -49.8397109,4.378822 -13.7541661,12.9822847 26.2830181,13.84571 0.06127,-0.0617 -0.122531,-0.0617 L 13.598503,-5.4007374 -8.7022409,-22.052595 Z m 38.0154159,7.400825 -9.802525,9.7752596 11.579232,9.5594001 7.62759,-7.40083 -8.669108,-11.0087257 z m 20.187073,5.6739697 -7.382526,7.2158 6.187844,8.54179 5.820249,-6.13651996 z m -32.195166,6.32154 -9.5574606,9.49772 13.6622686,7.1849703 7.933918,-7.6783603 z m 23.311629,2.37443004 -7.10683,6.93826996 8.362778,6.9074403 5.360756,-5.6739699 -0.06127,-0.0925 -0.0919,0.12335 -6.463539,-8.20258036 z m -8.730374,8.54178036 -7.505057,7.3391599 10.353916,5.45811 c 1.397496,-1.32103 5.67514,-6.12292 5.850882,-6.32154 z"
         id="path4158-0-8"
         inkscape:connector-curvature="0" />
    </clipPath>
    <linearGradient
       id="linearGradient4521">
      <stop
         offset="0"
         style="stop-color:#ff0d00;stop-opacity:1"
         id="stop4523" />
      <stop
         offset="0.40592891"
         style="stop-color:#ff5b00;stop-opacity:0.87450981"
         id="stop4533" />
      <stop
         offset="0.59322667"
         style="stop-color:#ffaa00;stop-opacity:0.74901962"
         id="stop4531" />
      <stop
         offset="0.83921361"
         style="stop-color:#ff6a00;stop-opacity:0.49803922"
         id="stop4529" />
      <stop
         offset="1"
         style="stop-color:#ffc300;stop-opacity:0"
         id="stop4525" />
    </linearGradient>
    <linearGradient
       id="linearGradient4479">
      <stop
         offset="0"
         style="stop-color:#fffd00;stop-opacity:0.24705882"
         id="stop4491" />
      <stop
         offset="0.5"
         style="stop-color:#ff3c00;stop-opacity:0.12156863"
         id="stop4495" />
      <stop
         offset="1"
         style="stop-color:#ff6200;stop-opacity:0"
         id="stop4483" />
    </linearGradient>
    <marker
       style="overflow:visible"
       id="Arrow2Send"
       orient="auto"
       refY="0"
       refX="0">
      <path
         style="font-size:12px;fill-rule:evenodd;stroke-width:0.625;stroke-linejoin:round"
         id="path3828"
         transform="matrix(-0.3,0,0,-0.3,0.69,0)"
         d="M 8.7185878,4.0337352 -2.2072895,0.01601326 8.7185884,-4.0017078 c -1.7454984,2.3720609 -1.7354408,5.6174519 -6e-7,8.035443 z" />
    </marker>
    <linearGradient
       gradientTransform="rotate(3.1628859,-7301.4911,5973.6466)"
       gradientUnits="userSpaceOnUse"
       xlink:href="#linearGradient4521"
       id="linearGradient4572"
       y2="160.12064"
       x2="23.544928"
       y1="160.12064"
       x1="10.464925" />
    <radialGradient
       inkscape:collect="always"
       xlink:href="#linearGradient1198"
       id="radialGradient1067"
       cx="307.59698"
       cy="592.25745"
       fx="307.59698"
       fy="592.25745"
       r="62.030903"
       gradientTransform="matrix(0.70036669,-0.18408159,0.09302822,0.35394016,73.858639,373.78509)"
       gradientUnits="userSpaceOnUse" />
    <radialGradient
       inkscape:collect="always"
       xlink:href="#linearGradient1198"
       id="radialGradient1079"
       cx="306.6557"
       cy="475.27472"
       fx="306.6557"
       fy="475.27472"
       r="62.030903"
       gradientTransform="matrix(0.77737119,0.01507721,0.00894772,0.51965448,60.897899,222.58612)"
       gradientUnits="userSpaceOnUse" />
  </defs>
  <sodipodi:namedview
     id="base"
     pagecolor="#ffffff"
     bordercolor="#666666"
     borderopacity="1.0"
     inkscape:pageopacity="0.0"
     inkscape:pageshadow="2"
     inkscape:zoom="2.6260002"
     inkscape:cx="138.66297"
     inkscape:cy="44.03488"
     inkscape:document-units="px"
     inkscape:current-layer="g2574"
     showgrid="false"
     inkscape:showpageshadow="false"
     units="px"
     inkscape:lockguides="true"
     inkscape:window-width="1280"
     inkscape:window-height="972"
     inkscape:window-x="0"
     inkscape:window-y="26"
     inkscape:window-maximized="1">
    <sodipodi:guide
       position="0,0"
       orientation="0,96"
       id="guide1621"
       inkscape:locked="true" />
    <sodipodi:guide
       position="96.000002,0"
       orientation="-96,0"
       id="guide1623"
       inkscape:locked="true" />
    <sodipodi:guide
       position="96.000002,96.000002"
       orientation="0,-96"
       id="guide1625"
       inkscape:locked="true" />
    <sodipodi:guide
       position="0,96.000002"
       orientation="96,0"
       id="guide1627"
       inkscape:locked="true" />
  </sodipodi:namedview>
  <metadata
     id="metadata1069">
    <rdf:RDF>
      <cc:Work
         rdf:about="">
        <dc:format>image/svg+xml</dc:format>
        <dc:type
           rdf:resource="http://purl.org/dc/dcmitype/StillImage" />
        <dc:title></dc:title>
        <dc:date>2017</dc:date>
        <dc:creator>
          <cc:Agent>
            <dc:title>Cristian Pozzessere &quot;ilnanny&quot;</dc:title>
          </cc:Agent>
        </dc:creator>
        <dc:subject>
          <rdf:Bag>
            <rdf:li>Global language</rdf:li>
          </rdf:Bag>
        </dc:subject>
        <dc:description>Playing with Inkscape on Gnu/Linux O. S.</dc:description>
        <dc:contributor>
          <cc:Agent>
            <dc:title>In the night, alone like a dog.</dc:title>
          </cc:Agent>
        </dc:contributor>
        <cc:license
           rdf:resource="http://creativecommons.org/licenses/by-sa/4.0/" />
      </cc:Work>
      <cc:License
         rdf:about="http://creativecommons.org/licenses/by-sa/4.0/">
        <cc:permits
           rdf:resource="http://creativecommons.org/ns#Reproduction" />
        <cc:permits
           rdf:resource="http://creativecommons.org/ns#Distribution" />
        <cc:requires
           rdf:resource="http://creativecommons.org/ns#Notice" />
        <cc:requires
           rdf:resource="http://creativecommons.org/ns#Attribution" />
        <cc:permits
           rdf:resource="http://creativecommons.org/ns#DerivativeWorks" />
        <cc:requires
           rdf:resource="http://creativecommons.org/ns#ShareAlike" />
      </cc:License>
    </rdf:RDF>
  </metadata>
  <g
     inkscape:label="Livello 1"
     inkscape:groupmode="layer"
     id="layer1"
     transform="translate(0,-1026.5197)">
    <g
       transform="translate(-0.14895645,1026.1047)"
       style="display:inline"
       id="g2574">
      <path
         inkscape:connector-curvature="0"
         id="path3288"
         d="M 89.29181,0.415026 H 7.0060911 c -3.798848,0 -6.8571352,3.058285 -6.8571352,6.8571399 V 89.557884 c 0,3.798857 3.0582872,6.857142 6.8571352,6.857142 H 89.29181 c 3.798857,0 6.857147,-3.058285 6.857147,-6.857142 V 7.2721659 c 0,-3.7988549 -3.05829,-6.8571399 -6.857147,-6.8571399 z"
         style="display:inline;opacity:0.15;fill:#000000;fill-opacity:1;fill-rule:nonzero;stroke:none" />
      <path
         style="display:inline;opacity:0.15;fill:#000000;fill-opacity:1;fill-rule:nonzero;stroke:none"
         d="M 88.648954,1.165026 H 7.6489471 c -3.739492,0 -6.749993,3.010499 -6.749993,6.7499969 V 88.915026 c 0,3.739501 3.010501,6.75 6.749993,6.75 H 88.648954 c 3.739503,0 6.750003,-3.010499 6.750003,-6.75 V 7.9150229 c 0,-3.7394979 -3.0105,-6.7499969 -6.750003,-6.7499969 z"
         id="path4085"
         inkscape:connector-curvature="0" />
      <path
         inkscape:connector-curvature="0"
         id="rect4251-1"
         d="M 88.006093,1.915026 H 8.2918111 c -3.680143,0 -6.6428566,2.962713 -6.6428566,6.6428549 V 88.272171 c 0,3.680142 2.9627136,6.642856 6.6428566,6.642856 H 88.006093 c 3.680143,0 6.642854,-2.962714 6.642854,-6.642856 V 8.5578809 c 0,-3.6801419 -2.962711,-6.6428549 -6.642854,-6.6428549 z"
         style="display:inline;fill:url(#linearGradient4071);fill-opacity:1;fill-rule:nonzero;stroke:none" />
      <path
         sodipodi:nodetypes="sscccsccscccsss"
         inkscape:connector-curvature="0"
         id="path3400-6"
         d="m 11.390247,6.8021682 c -2.8564964,0 -5.1241284,2.3146876 -5.1241284,5.2304538 v 21.67369 7.322634 40.372561 c 1.0972399,1.70385 2.9688485,2.844058 5.1241284,2.844058 h 4.099303 65.588849 4.099302 c 2.155281,0 4.026889,-1.140208 5.124129,-2.844058 V 41.028946 33.706312 12.032622 c 0,-2.9157662 -2.267632,-5.2304538 -5.124129,-5.2304538 z"
         style="display:inline;opacity:0.77864583;fill:#ff6600;fill-opacity:1;fill-rule:nonzero;stroke:none;stroke-width:1.03540373" />
      <path
         style="color:#000000;font-style:normal;font-variant:normal;font-weight:normal;font-stretch:normal;font-size:medium;line-height:normal;font-family:Sans;-inkscape-font-specification:Sans;text-indent:0;text-align:start;text-decoration:none;text-decoration-line:none;letter-spacing:normal;word-spacing:normal;text-transform:none;writing-mode:lr-tb;direction:ltr;baseline-shift:baseline;text-anchor:start;display:inline;overflow:visible;visibility:visible;fill:#241f1f;fill-opacity:0.63265303;stroke:none;stroke-width:2.3755002;marker:none;enable-background:accumulate"
         d="m 9.9740341,5.1444869 c -3.116621,0 -5.667965,2.53951 -5.667965,5.6460041 v 69.277996 c 0,3.106495 2.551344,5.646004 5.667965,5.646004 H 86.765819 c 3.116621,0 5.667968,-2.539509 5.667968,-5.646004 V 10.790491 c 0,-3.1064931 -2.551347,-5.6460041 -5.667968,-5.6460041 z m 0,2.319439 H 86.765819 c 1.888099,0 3.352022,1.480095 3.352022,3.3265651 v 69.277996 c 0,1.846474 -1.463923,3.326564 -3.352022,3.326564 H 9.9740341 c -1.888099,0 -3.352022,-1.48009 -3.352022,-3.326564 V 10.790491 c 0,-1.8464701 1.463923,-3.3265651 3.352022,-3.3265651 z"
         id="path4989"
         inkscape:connector-curvature="0" />
      <path
         id="path4118"
         d="m 1.6489535,82.258776 v 6 c 0,3.680142 2.9761066,6.65625 6.6562496,6.65625 H 87.992703 c 3.680143,0 6.656254,-2.976108 6.656254,-6.65625 v -6 c 0,3.680142 -2.976111,6.65625 -6.656254,6.65625 H 8.3052031 c -3.680143,0 -6.6562496,-2.976108 -6.6562496,-6.65625 z"
         style="display:inline;opacity:0.65818182;fill:url(#linearGradient4129);fill-opacity:1;fill-rule:nonzero;stroke:none"
         inkscape:connector-curvature="0" />
      <rect
         ry="4.25"
         rx="0"
         y="80.665031"
         x="5.5239539"
         height="4.25"
         width="84.250008"
         id="rect4131"
         style="opacity:0.55;fill:url(#radialGradient7462);fill-opacity:1;stroke:none" />
      <rect
         transform="rotate(90)"
         style="opacity:0.669;fill:url(#radialGradient7464);fill-opacity:1;stroke:none"
         id="rect4141"
         width="76.75"
         height="4.25"
         x="5.9750223"
         y="-90.233963"
         rx="0"
         ry="4.25" />
      <g
         style="display:inline"
         id="g1111"
         transform="matrix(0.12045402,-0.80311719,0.80311719,0.12045402,-385.00006,280.55461)">
        <g
           transform="translate(-12.668363,-14.657823)"
           id="g1095">
          <rect
             style="fill:#d7eef4;stroke:#666666;stroke-width:0.69259733;stroke-miterlimit:4;stroke-dasharray:none;stroke-opacity:1"
             id="rect4443"
             transform="rotate(-9.203272)"
             y="563.18878"
             x="311.33429"
             height="15.321394"
             width="12.535133" />
          <rect
             style="fill:#afdde9;stroke:#000000;stroke-width:0.57642794;stroke-opacity:1"
             id="rect4337"
             transform="matrix(0.99256757,-0.1216948,0.15721468,0.98756445,0,0)"
             y="548.49591"
             x="325.64624"
             height="19.278406"
             width="4.6860986" />
          <path
             inkscape:connector-curvature="0"
             d="m 404.9838,504.28456 c -13.9237,2.13884 -13.9696,2.1459 -13.9696,2.1459 l -46.18967,-7.10385 c -1.0312,-0.045 -1.39188,-0.0521 -2.47422,0.17459 -3.62793,0.63284 -6.6205,3.75218 -7.07568,5.55315 -0.37197,1.08061 -0.42846,1.44517 -0.41075,2.27333 l 2.45089,15.95779 2.48449,16.13114 c 0.25663,0.8471 0.30582,1.25175 1.10182,2.18651 0.63926,1.03122 4.82589,3.5407 8.37575,3.03321 1.1154,-0.15344 1.55778,-0.22364 2.45911,-0.60014 l 41.88321,-21.00815 13.901,-2.28667 3.08857,1.08249 c 0.48308,0.068 0.79369,-0.0694 0.75235,-0.66296 l -2.82244,-18.29384 c -0.0927,-0.46989 -0.44403,-0.48259 -0.85233,-0.2546 l -2.74778,1.67906 -2.8e-4,4e-5 0.0459,-0.007 h 3e-5 -2e-5 l -2e-4,3e-5 z"
             id="path4329"
             style="fill:none;stroke:#000000;stroke-width:0.61411077px;stroke-linecap:butt;stroke-linejoin:miter;stroke-opacity:1" />
          <path
             inkscape:connector-curvature="0"
             d="m 405.38689,505.22338 2.24036,14.58454"
             id="path4331"
             style="fill:none;stroke:#000000;stroke-width:0.63323587px;stroke-linecap:butt;stroke-linejoin:miter;stroke-opacity:1" />
          <path
             inkscape:connector-curvature="0"
             d="m 391.05043,506.47988 2.55687,16.62876"
             id="path4333"
             style="fill:none;stroke:#000000;stroke-width:0.6246559px;stroke-linecap:butt;stroke-linejoin:miter;stroke-opacity:1" />
          <path
             style="fill:url(#radialGradient1067);fill-opacity:1;stroke:none;stroke-width:0.61411077px;stroke-linecap:butt;stroke-linejoin:miter;stroke-opacity:1"
             id="path1059"
             d="m 404.9838,504.28456 c -13.9237,2.13884 -13.9696,2.1459 -13.9696,2.1459 l -46.18967,-7.10385 c -1.0312,-0.045 -1.39188,-0.0521 -2.47422,0.17459 -3.62793,0.63284 -6.6205,3.75218 -7.07568,5.55315 -0.37197,1.08061 -0.42846,1.44517 -0.41075,2.27333 l 2.45089,15.95779 2.48449,16.13114 c 0.25663,0.8471 0.30582,1.25175 1.10182,2.18651 0.63926,1.03122 4.82589,3.5407 8.37575,3.03321 1.1154,-0.15344 1.55778,-0.22364 2.45911,-0.60014 l 41.88321,-21.00815 13.901,-2.28667 3.08857,1.08249 c 0.48308,0.068 0.79369,-0.0694 0.75235,-0.66296 l -2.82244,-18.29384 c -0.0927,-0.46989 -0.44403,-0.48259 -0.85233,-0.2546 l -2.74778,1.67906 -2.8e-4,4e-5 0.0459,-0.007 h 3e-5 -2e-5 l -2e-4,3e-5 z"
             inkscape:connector-curvature="0" />
        </g>
        <g
           transform="matrix(0.61665808,0,0,0.61665808,154.70381,164.84234)"
           id="g1087">
          <path
             inkscape:connector-curvature="0"
             d="m 380.28026,453.72464 c -17.5002,2.69667 -17.5579,2.70556 -17.5579,2.70556 l -58.40128,-11.21659 c -1.30106,-0.0892 -1.7559,-0.10802 -3.11478,0.18742 -4.55797,0.80992 -8.25419,5.16612 -8.78396,7.71231 -0.4425,1.52535 -0.5048,2.04162 -0.46222,3.21801 l 3.47981,22.71953 3.52639,22.96646 c 0.34421,1.20914 0.41613,1.78493 1.44244,3.13173 0.83108,1.47994 6.17018,5.14568 10.6328,4.51184 1.40235,-0.19059 1.95829,-0.27946 3.08533,-0.79204 l 52.28513,-28.8069 17.46797,-2.90715 3.91998,1.61264 c 0.61065,0.1084 0.99884,-0.0791 0.93222,-0.923 l -4.0053,-26.0457 c -0.12836,-0.66949 -0.57157,-0.69613 -1.08069,-0.38236 l -3.42286,2.31701 -3.6e-4,6e-5 0.0577,-0.009 h 5e-5 -3e-5 l -2.6e-4,4e-5 z"
             id="path4042-0"
             style="fill:none;stroke:#000000;stroke-width:0.82149661px;stroke-linecap:butt;stroke-linejoin:miter;stroke-opacity:1" />
          <path
             inkscape:connector-curvature="0"
             d="m 380.81136,455.06759 3.18082,20.7644"
             id="path4044-9"
             style="fill:none;stroke:#000000;stroke-width:0.84708029px;stroke-linecap:butt;stroke-linejoin:miter;stroke-opacity:1" />
          <path
             inkscape:connector-curvature="0"
             d="m 362.76924,456.50127 3.62981,23.67484"
             id="path4046-4"
             style="fill:none;stroke:#000000;stroke-width:0.83560282px;stroke-linecap:butt;stroke-linejoin:miter;stroke-opacity:1" />
          <path
             style="fill:none;stroke:#000000;stroke-width:0.82490414px;stroke-linecap:butt;stroke-linejoin:miter;stroke-opacity:1"
             id="path3014"
             d="m 384.60058,451.60398 c 1.60774,-1.26217 3.50587,-2.1251 5.60428,-2.44845 7.25572,-1.11805 14.15829,4.63839 15.41733,12.85738 v 0 0 c 1.25903,8.21899 -3.60223,15.78817 -10.85795,16.90622 -2.11624,0.3261 -4.20246,0.0674 -6.12736,-0.66666"
             inkscape:connector-curvature="0" />
          <path
             style="fill:none;stroke:#000000;stroke-width:0.82490414px;stroke-linecap:butt;stroke-linejoin:miter;stroke-opacity:1"
             id="path3020"
             d="m 389.9321,449.29859 -0.61852,-3.75821 4.01497,-0.70226 0.78367,4.07761 v 0"
             inkscape:connector-curvature="0" />
          <path
             style="fill:url(#radialGradient1079);fill-opacity:1.0;stroke:none;stroke-width:0.82149661px;stroke-linecap:butt;stroke-linejoin:miter;stroke-opacity:1"
             id="path1069"
             d="m 380.28026,453.72464 c -17.5002,2.69667 -17.5579,2.70556 -17.5579,2.70556 l -58.40128,-11.21659 c -1.30106,-0.0892 -1.7559,-0.10802 -3.11478,0.18742 -4.55797,0.80992 -8.25419,5.16612 -8.78396,7.71231 -0.4425,1.52535 -0.5048,2.04162 -0.46222,3.21801 l 3.47981,22.71953 3.52639,22.96646 c 0.34421,1.20914 0.41613,1.78493 1.44244,3.13173 0.83108,1.47994 6.17018,5.14568 10.6328,4.51184 1.40235,-0.19059 1.95829,-0.27946 3.08533,-0.79204 l 52.28513,-28.8069 17.46797,-2.90715 3.91998,1.61264 c 0.61065,0.1084 0.99884,-0.0791 0.93222,-0.923 l -4.0053,-26.0457 c -0.12836,-0.66949 -0.57157,-0.69613 -1.08069,-0.38236 l -3.42286,2.31701 -3.6e-4,6e-5 0.0577,-0.009 h 5e-5 -3e-5 l -2.6e-4,4e-5 z"
             inkscape:connector-curvature="0" />
        </g>
      </g>
      <rect
         clip-path="url(#clipPath4156-4-1)"
         ry="3.9569881"
         rx="3.9569874"
         y="-30"
         x="2"
         height="69.024437"
         width="75.965775"
         id="rect4146"
         style="opacity:0.5078125;fill:url(#linearGradient4767);fill-opacity:1;stroke:none"
         transform="matrix(1.0692451,0,0,1.0476829,4.4441802,38.894013)" />
      <g
         id="layer1-3"
         transform="rotate(-81.470181,-153.54145,593.01386)" />
    </g>
  </g>
</svg>
