<?xml version="1.0" encoding="UTF-8" standalone="no"?>
<svg
   xmlns:dc="http://purl.org/dc/elements/1.1/"
   xmlns:cc="http://creativecommons.org/ns#"
   xmlns:rdf="http://www.w3.org/1999/02/22-rdf-syntax-ns#"
   xmlns:svg="http://www.w3.org/2000/svg"
   xmlns="http://www.w3.org/2000/svg"
   xmlns:xlink="http://www.w3.org/1999/xlink"
   xmlns:sodipodi="http://sodipodi.sourceforge.net/DTD/sodipodi-0.dtd"
   xmlns:inkscape="http://www.inkscape.org/namespaces/inkscape"
   viewBox="0 0 48 48"
   version="1.1"
   id="svg55"
   sodipodi:docname="youtube-to-mp3.svg"
   inkscape:version="0.92.2 5c3e80d, 2017-08-06">
  <metadata
     id="metadata59">
    <rdf:RDF>
      <cc:Work
         rdf:about="">
        <dc:format>image/svg+xml</dc:format>
        <dc:type
           rdf:resource="http://purl.org/dc/dcmitype/StillImage" />
      </cc:Work>
    </rdf:RDF>
  </metadata>
  <sodipodi:namedview
     pagecolor="#ffffff"
     bordercolor="#666666"
     borderopacity="1"
     objecttolerance="10"
     gridtolerance="10"
     guidetolerance="10"
     inkscape:pageopacity="0"
     inkscape:pageshadow="2"
     inkscape:window-width="1280"
     inkscape:window-height="943"
     id="namedview57"
     showgrid="false"
     inkscape:zoom="3.9044215"
     inkscape:cx="24.499"
     inkscape:cy="23.5"
     inkscape:window-x="0"
     inkscape:window-y="19"
     inkscape:window-maximized="1"
     inkscape:current-layer="g1421" />
  <defs
     id="defs17">
    <linearGradient
       id="linearGradient3764"
       x1="1"
       x2="47"
       gradientUnits="userSpaceOnUse"
       gradientTransform="rotate(-90,23.999998,24)">
      <stop
         style="stop-color:#e1281f;stop-opacity:1"
         id="stop2" />
      <stop
         offset="1"
         style="stop-color:#e33a31;stop-opacity:1"
         id="stop4" />
    </linearGradient>
    <clipPath
       id="clipPath-276865507">
      <g
         transform="translate(0,-1004.3622)"
         id="g9">
        <path
           d="m -24 13 c 0 1.105 -0.672 2 -1.5 2 -0.828 0 -1.5 -0.895 -1.5 -2 0 -1.105 0.672 -2 1.5 -2 0.828 0 1.5 0.895 1.5 2 z"
           transform="matrix(15.333333,0,0,11.5,414.99999,878.8622)"
           style="fill:#1890d0"
           id="path7" />
      </g>
    </clipPath>
    <clipPath
       id="clipPath-288791415">
      <g
         transform="translate(0,-1004.3622)"
         id="g14">
        <path
           d="m -24 13 c 0 1.105 -0.672 2 -1.5 2 -0.828 0 -1.5 -0.895 -1.5 -2 0 -1.105 0.672 -2 1.5 -2 0.828 0 1.5 0.895 1.5 2 z"
           transform="matrix(15.333333,0,0,11.5,414.99999,878.8622)"
           style="fill:#1890d0"
           id="path12" />
      </g>
    </clipPath>
    <linearGradient
       inkscape:collect="always"
       xlink:href="#linearGradient6139-0-7"
       id="linearGradient4071"
       gradientUnits="userSpaceOnUse"
       gradientTransform="matrix(0.57074833,0,0,0.57641317,31.138638,9.4554128)"
       x1="6"
       y1="47.000011"
       x2="90"
       y2="47.000011" />
    <linearGradient
       id="linearGradient6139-0-7">
      <stop
         id="stop6141-2-5"
         offset="0"
         style="stop-color:#b2babc;stop-opacity:1" />
      <stop
         style="stop-color:#ffffff;stop-opacity:1;"
         offset="0.25"
         id="stop6151-0-3" />
      <stop
         style="stop-color:#96a1a4;stop-opacity:1"
         offset="0.5"
         id="stop6147-1-56" />
      <stop
         id="stop6149-4-2"
         offset="0.75"
         style="stop-color:#fbf9f9;stop-opacity:1;" />
      <stop
         id="stop6143-4-9"
         offset="1"
         style="stop-color:#b2b9bc;stop-opacity:1" />
    </linearGradient>
    <linearGradient
       gradientTransform="matrix(0.51551465,0,0,0.52063137,33.789856,11.556532)"
       inkscape:collect="always"
       xlink:href="#linearGradient3832-0-6-1-1"
       id="linearGradient4129"
       x1="1.5"
       y1="88.171875"
       x2="94.5"
       y2="88.171875"
       gradientUnits="userSpaceOnUse" />
    <linearGradient
       id="linearGradient3832-0-6-1-1">
      <stop
         id="stop3834-6-3-7-1"
         offset="0"
         style="stop-color:#000000;stop-opacity:1;" />
      <stop
         style="stop-color:#000000;stop-opacity:0.58823532;"
         offset="0.1"
         id="stop3872-2-4" />
      <stop
         id="stop3844-6-2-7-6"
         offset="0.89999998"
         style="stop-color:#000000;stop-opacity:0.58823532;" />
      <stop
         id="stop3836-5-0-2-9"
         offset="1"
         style="stop-color:#000000;stop-opacity:1;" />
    </linearGradient>
    <radialGradient
       inkscape:collect="always"
       xlink:href="#linearGradient3737"
       id="radialGradient7462"
       gradientUnits="userSpaceOnUse"
       gradientTransform="matrix(0.50269575,0,0,0.02561023,51.26513,53.293828)"
       cx="13.948145"
       cy="44.892841"
       fx="13.948145"
       fy="44.892841"
       r="43.199203" />
    <linearGradient
       id="linearGradient3737">
      <stop
         id="stop3739"
         style="stop-color:#ffffff;stop-opacity:1"
         offset="0" />
      <stop
         id="stop3741"
         style="stop-color:#ffffff;stop-opacity:0"
         offset="1" />
    </linearGradient>
    <radialGradient
       inkscape:collect="always"
       xlink:href="#linearGradient3737"
       id="radialGradient7464"
       gradientUnits="userSpaceOnUse"
       gradientTransform="matrix(0.46249071,0,0,0.02535854,27.979584,-80.272939)"
       cx="13.948145"
       cy="44.892841"
       fx="13.948145"
       fy="44.892841"
       r="43.199203" />
    <linearGradient
       inkscape:collect="always"
       xlink:href="#linearGradient3737"
       id="linearGradient4767"
       gradientUnits="userSpaceOnUse"
       x1="2.7713892"
       y1="-28.64156"
       x2="50.527882"
       y2="14.514202" />
    <clipPath
       id="clipPath4156-4-1-6"
       clipPathUnits="userSpaceOnUse">
      <path
         inkscape:connector-curvature="0"
         id="path4158-0-8-0"
         d="m 27.046336,-55.695463 -14.21366,13.321486 h 0.06127 l 15.653407,21.770763 10.231384,-10.546177 C 38.561832,-32.30156 27.468089,-54.819245 27.046336,-55.695463 Z M 9.6468554,-39.382809 -5.2407289,-25.32124 15.987863,-7.8059573 26.372412,-18.382966 Z m 31.4906096,12.951445 -9.741259,9.713584 8.944804,12.4580526 7.780753,-7.5550056 z m -49.8397109,4.378822 -13.7541661,12.9822847 26.2830181,13.84571 0.06127,-0.0617 -0.122531,-0.0617 L 13.598503,-5.4007374 -8.7022409,-22.052595 Z m 38.0154159,7.400825 -9.802525,9.7752596 11.579232,9.5594001 7.62759,-7.40083 -8.669108,-11.0087257 z m 20.187073,5.6739697 -7.382526,7.2158 6.187844,8.54179 5.820249,-6.13651996 z m -32.195166,6.32154 -9.5574606,9.49772 13.6622686,7.1849703 7.933918,-7.6783603 z m 23.311629,2.37443004 -7.10683,6.93826996 8.362778,6.9074403 5.360756,-5.6739699 -0.06127,-0.0925 -0.0919,0.12335 -6.463539,-8.20258036 z m -8.730374,8.54178036 -7.505057,7.3391599 10.353916,5.45811 c 1.397496,-1.32103 5.67514,-6.12292 5.850882,-6.32154 z"
         style="opacity:0.6;fill:#ffffff;fill-opacity:1;stroke:none" />
    </clipPath>
    <linearGradient
       inkscape:collect="always"
       xlink:href="#linearGradient3737"
       id="linearGradient1247"
       gradientUnits="userSpaceOnUse"
       x1="2.7713892"
       y1="-28.64156"
       x2="50.527882"
       y2="14.514202" />
  </defs>
  <g
     transform="matrix(0.96990453,0,0,0.96037241,-32.772935,-11.098574)"
     style="display:inline"
     id="g1421">
    <path
       inkscape:connector-curvature="0"
       id="path3288"
       d="M 79.744304,11.556532 H 37.324811 c -1.958362,0 -3.534954,1.592239 -3.534954,3.570042 V 57.9671 c 0,1.977804 1.576592,3.570043 3.534954,3.570043 h 42.419493 c 1.958367,0 3.53496,-1.592239 3.53496,-3.570043 V 15.126574 c 0,-1.977803 -1.576593,-3.570042 -3.53496,-3.570042 z"
       style="display:inline;opacity:0.15;fill:#000000;fill-opacity:1;fill-rule:nonzero;stroke:none;stroke-width:0.5180667" />
    <path
       style="display:inline;opacity:0.15;fill:#000000;fill-opacity:1;fill-rule:nonzero;stroke:none;stroke-width:0.5180667"
       d="m 79.412902,11.947005 h -41.75669 c -1.927763,0 -3.47972,1.56736 -3.47972,3.51426 v 42.171143 c 0,1.946901 1.551957,3.514262 3.47972,3.514262 h 41.75669 c 1.927769,0 3.479726,-1.567361 3.479726,-3.514262 V 15.461265 c 0,-1.9469 -1.551957,-3.51426 -3.479726,-3.51426 z"
       id="path4085"
       inkscape:connector-curvature="0" />
    <path
       inkscape:connector-curvature="0"
       id="rect4251-1-0"
       d="m 79.081498,12.337479 h -41.09388 c -1.897168,0 -3.42449,1.542481 -3.42449,3.458478 v 41.50176 c 0,1.915998 1.527322,3.45848 3.42449,3.45848 h 41.09388 c 1.897168,0 3.424489,-1.542482 3.424489,-3.45848 v -41.50176 c 0,-1.915997 -1.527321,-3.458478 -3.424489,-3.458478 z"
       style="display:inline;fill:url(#linearGradient4071);fill-opacity:1;fill-rule:nonzero;stroke:none;stroke-width:0.5180667" />
    <path
       sodipodi:nodetypes="sscccsccscccsss"
       inkscape:connector-curvature="0"
       id="path3400-6-2"
       d="m 39.584907,14.881878 c -1.472566,0 -2.641563,1.191402 -2.641563,2.692186 v 11.155746 3.76906 20.780311 c 0.565643,0.876995 1.530485,1.463876 2.641563,1.463876 h 2.113251 33.812012 2.113251 c 1.111079,0 2.07592,-0.586881 2.641563,-1.463876 V 32.49887 28.72981 17.574064 c 0,-1.500784 -1.168997,-2.692186 -2.641563,-2.692186 z"
       style="display:inline;opacity:0.9;fill:#e8e8e8;fill-opacity:1;fill-rule:nonzero;stroke:none;stroke-width:0.53335094" />
    <path
       sodipodi:nodetypes="ccssccc"
       inkscape:connector-curvature="0"
       id="path1363"
       d="m 36.943487,34.018214 v 19.449884 c 0.56564,0.885568 0.47196,1.477564 1.58305,1.477564 h 39.889762 c 1.111078,0 1.282899,0.08232 1.848542,-0.803248 v -20.1242 z"
       style="display:inline;opacity:0.9;fill:#dc0000;fill-opacity:1;fill-rule:nonzero;stroke:none;stroke-width:0.53595161" />
    <path
       style="color:#000000;font-style:normal;font-variant:normal;font-weight:normal;font-stretch:normal;font-size:medium;line-height:normal;font-family:Sans;-inkscape-font-specification:Sans;text-indent:0;text-align:start;text-decoration:none;text-decoration-line:none;letter-spacing:normal;word-spacing:normal;text-transform:none;writing-mode:lr-tb;direction:ltr;baseline-shift:baseline;text-anchor:start;display:inline;overflow:visible;visibility:visible;fill:#1f2224;fill-opacity:0.83478262;stroke:none;stroke-width:1.23066759;marker:none;enable-background:accumulate"
       d="m 38.854829,14.018837 c -1.606664,0 -2.921919,1.322149 -2.921919,2.939487 v 36.068298 c 0,1.617339 1.315255,2.939487 2.921919,2.939487 h 39.58729 c 1.606664,0 2.92192,-1.322148 2.92192,-2.939487 V 16.958324 c 0,-1.617338 -1.315256,-2.939487 -2.92192,-2.939487 z m 0,1.207573 h 39.58729 c 0.973343,0 1.728016,0.770584 1.728016,1.731914 v 36.068298 c 0,0.961332 -0.754673,1.731914 -1.728016,1.731914 h -39.58729 c -0.973343,0 -1.728017,-0.770582 -1.728017,-1.731914 V 16.958324 c 0,-0.96133 0.754674,-1.731914 1.728017,-1.731914 z"
       id="path4989-3"
       inkscape:connector-curvature="0" />
    <path
       id="path4118"
       d="m 34.563128,54.166955 v 3.123788 c 0,1.915998 1.534226,3.465453 3.431394,3.465453 h 41.080073 c 1.897168,0 3.431397,-1.549455 3.431397,-3.465453 v -3.123788 c 0,1.915998 -1.534229,3.465453 -3.431397,3.465453 H 37.994522 c -1.897168,0 -3.431394,-1.549455 -3.431394,-3.465453 z"
       style="display:inline;opacity:0.65818182;fill:url(#linearGradient4129);fill-opacity:1;fill-rule:nonzero;stroke:none;stroke-width:0.5180667"
       inkscape:connector-curvature="0" />
    <rect
       ry="2.2126834"
       rx="0"
       y="53.3372"
       x="36.560749"
       height="2.2126834"
       width="43.432114"
       id="rect4131"
       style="opacity:0.55;fill:url(#radialGradient7462);fill-opacity:1;stroke:none;stroke-width:0.5180667" />
    <rect
       transform="rotate(90)"
       style="opacity:0.669;fill:url(#radialGradient7464);fill-opacity:1;stroke:none;stroke-width:0.5180667"
       id="rect4141"
       width="39.958458"
       height="2.1909373"
       x="14.45124"
       y="-80.229996"
       rx="0"
       ry="2.1909373" />
    <rect
       clip-path="url(#clipPath4156-4-1-6)"
       ry="3.9569881"
       rx="3.9569874"
       y="-30"
       x="2"
       height="69.024437"
       width="75.965775"
       id="rect4146"
       style="opacity:0.65;fill:url(#linearGradient1247);fill-opacity:1;stroke:none"
       transform="matrix(0.55121151,0,0,0.54545658,36.004108,31.589899)" />
    <rect
       y="33.890728"
       x="36.82394"
       height="0.80134541"
       width="43.586048"
       id="rect1404"
       style="opacity:1;fill:#020202;fill-opacity:0.63913041;stroke:none;stroke-width:0.88578558;stroke-linecap:round;stroke-linejoin:miter;stroke-miterlimit:4;stroke-dasharray:none;stroke-dashoffset:0;stroke-opacity:1;paint-order:markers stroke fill" />
    <path
       inkscape:connector-curvature="0"
       id="path1256"
       d="m 50.540056,33.859257 v -0.02237 -11.799622 l 10.118989,5.899811 10.116975,5.899811 -0.03826,0.02237 z"
       style="opacity:1;fill:#434343;fill-opacity:0.93913043;stroke:#090001;stroke-width:1.03613339;stroke-linecap:round;stroke-linejoin:miter;stroke-miterlimit:4;stroke-dasharray:none;stroke-dashoffset:0;stroke-opacity:0.22173913;paint-order:markers stroke fill" />
    <path
       style="opacity:1;fill:#eeeeee;fill-opacity:0.93913042;stroke:none;stroke-width:1.03613339;stroke-linecap:round;stroke-linejoin:miter;stroke-miterlimit:4;stroke-dasharray:none;stroke-dashoffset:0;stroke-opacity:0.67826086;paint-order:markers stroke fill"
       d="m 50.540056,33.859257 v 0.02237 11.799622 l 10.118989,-5.899811 10.116975,-5.899811 -0.03826,-0.02237 z"
       id="path1251"
       inkscape:connector-curvature="0" />
  </g>
</svg>
