<?xml version="1.0" encoding="UTF-8" standalone="no"?>
<svg
   xmlns:dc="http://purl.org/dc/elements/1.1/"
   xmlns:cc="http://creativecommons.org/ns#"
   xmlns:rdf="http://www.w3.org/1999/02/22-rdf-syntax-ns#"
   xmlns:svg="http://www.w3.org/2000/svg"
   xmlns="http://www.w3.org/2000/svg"
   xmlns:xlink="http://www.w3.org/1999/xlink"
   xmlns:sodipodi="http://sodipodi.sourceforge.net/DTD/sodipodi-0.dtd"
   xmlns:inkscape="http://www.inkscape.org/namespaces/inkscape"
   viewBox="0 0 48 48"
   version="1.1"
   id="svg69"
   sodipodi:docname="zaz.svg"
   inkscape:version="0.92.2 2405546, 2018-03-11">
  <metadata
     id="metadata73">
    <rdf:RDF>
      <cc:Work
         rdf:about="">
        <dc:format>image/svg+xml</dc:format>
        <dc:type
           rdf:resource="http://purl.org/dc/dcmitype/StillImage" />
      </cc:Work>
    </rdf:RDF>
  </metadata>
  <sodipodi:namedview
     pagecolor="#ffffff"
     bordercolor="#666666"
     borderopacity="1"
     objecttolerance="10"
     gridtolerance="10"
     guidetolerance="10"
     inkscape:pageopacity="0"
     inkscape:pageshadow="2"
     inkscape:window-width="1920"
     inkscape:window-height="1025"
     id="namedview71"
     showgrid="false"
     inkscape:zoom="6.9532167"
     inkscape:cx="24"
     inkscape:cy="30.508475"
     inkscape:window-x="0"
     inkscape:window-y="25"
     inkscape:window-maximized="1"
     inkscape:current-layer="svg69" />
  <defs
     id="defs17">
    <linearGradient
       id="linearGradient3764"
       x1="1"
       x2="47"
       gradientUnits="userSpaceOnUse"
       gradientTransform="translate(-48.000001,0.00221467)">
      <stop
         stop-color="#dbdbdb"
         stop-opacity="1"
         id="stop2" />
      <stop
         offset="1"
         stop-color="#e5e5e5"
         stop-opacity="1"
         id="stop4" />
    </linearGradient>
    <clipPath
       id="clipPath-541590914">
      <g
         transform="translate(0,-1004.3622)"
         id="g9">
        <rect
           rx="4"
           y="1005.36"
           x="1"
           height="46"
           width="46"
           fill="#1890d0"
           id="rect7" />
      </g>
    </clipPath>
    <clipPath
       id="clipPath-555604675">
      <g
         transform="translate(0,-1004.3622)"
         id="g14">
        <rect
           rx="4"
           y="1005.36"
           x="1"
           height="46"
           width="46"
           fill="#1890d0"
           id="rect12" />
      </g>
    </clipPath>
    <linearGradient
       inkscape:collect="always"
       xlink:href="#linearGradient6139-0"
       id="linearGradient4071"
       gradientUnits="userSpaceOnUse"
       gradientTransform="matrix(0.5500995,0,0,0.55067302,-2.4296469,-1.8816555)"
       x1="6"
       y1="47.000011"
       x2="90"
       y2="47.000011" />
    <linearGradient
       id="linearGradient6139-0">
      <stop
         id="stop6141-2"
         offset="0"
         style="stop-color:#b2babc;stop-opacity:1" />
      <stop
         style="stop-color:#ffffff;stop-opacity:1;"
         offset="0.25"
         id="stop6151-0" />
      <stop
         style="stop-color:#96a1a4;stop-opacity:1"
         offset="0.5"
         id="stop6147-1" />
      <stop
         id="stop6149-4"
         offset="0.75"
         style="stop-color:#fbf9f9;stop-opacity:1;" />
      <stop
         id="stop6143-4"
         offset="1"
         style="stop-color:#b2b9bc;stop-opacity:1" />
    </linearGradient>
    <linearGradient
       gradientTransform="matrix(0.49686411,0,0,0.49738219,0.12565363,0.12563622)"
       inkscape:collect="always"
       xlink:href="#linearGradient3832-0-6-1-1"
       id="linearGradient4129"
       x1="1.5"
       y1="88.171875"
       x2="94.5"
       y2="88.171875"
       gradientUnits="userSpaceOnUse" />
    <linearGradient
       id="linearGradient3832-0-6-1-1">
      <stop
         style="stop-color:#000000;stop-opacity:1;"
         offset="0"
         id="stop3834-6-3-7-1" />
      <stop
         id="stop3872-2-4"
         offset="0.1"
         style="stop-color:#000000;stop-opacity:0.58823532;" />
      <stop
         style="stop-color:#000000;stop-opacity:0.58823532;"
         offset="0.89999998"
         id="stop3844-6-2-7-6" />
      <stop
         style="stop-color:#000000;stop-opacity:1;"
         offset="1"
         id="stop3836-5-0-2-9" />
    </linearGradient>
    <radialGradient
       inkscape:collect="always"
       xlink:href="#linearGradient3737"
       id="radialGradient7462"
       gradientUnits="userSpaceOnUse"
       gradientTransform="matrix(0.48450896,0,0,0.02446659,16.968698,39.999124)"
       cx="13.948145"
       cy="44.892841"
       fx="13.948145"
       fy="44.892841"
       r="43.199203" />
    <linearGradient
       id="linearGradient3737">
      <stop
         offset="0"
         style="stop-color:#ffffff;stop-opacity:1"
         id="stop3739" />
      <stop
         offset="1"
         style="stop-color:#ffffff;stop-opacity:0"
         id="stop3741" />
    </linearGradient>
    <radialGradient
       inkscape:collect="always"
       xlink:href="#linearGradient3737"
       id="radialGradient7464"
       gradientUnits="userSpaceOnUse"
       gradientTransform="matrix(0.44183785,0,0,0.0244411,15.815305,-44.927047)"
       cx="13.948145"
       cy="44.892841"
       fx="13.948145"
       fy="44.892841"
       r="43.199203" />
    <linearGradient
       gradientTransform="matrix(1.0041884,0,0,1.0052356,-0.21820995,-0.04755458)"
       inkscape:collect="always"
       xlink:href="#linearGradient3737"
       id="linearGradient4767"
       gradientUnits="userSpaceOnUse"
       x1="2.7713892"
       y1="-28.64156"
       x2="50.527882"
       y2="14.514202" />
    <clipPath
       id="clipPath4156-4-1"
       clipPathUnits="userSpaceOnUse">
      <path
         inkscape:connector-curvature="0"
         id="path4158-0-8"
         d="m 27.046336,-55.695463 -14.21366,13.321486 h 0.06127 l 15.653407,21.770763 10.231384,-10.546177 C 38.561832,-32.30156 27.468089,-54.819245 27.046336,-55.695463 Z M 9.6468554,-39.382809 -5.2407289,-25.32124 15.987863,-7.8059573 26.372412,-18.382966 Z m 31.4906096,12.951445 -9.741259,9.713584 8.944804,12.4580526 7.780753,-7.5550056 z m -49.8397109,4.378822 -13.7541661,12.9822847 26.2830181,13.84571 0.06127,-0.0617 -0.122531,-0.0617 L 13.598503,-5.4007374 -8.7022409,-22.052595 Z m 38.0154159,7.400825 -9.802525,9.7752596 11.579232,9.5594001 7.62759,-7.40083 -8.669108,-11.0087257 z m 20.187073,5.6739697 -7.382526,7.2158 6.187844,8.54179 5.820249,-6.13651996 z m -32.195166,6.32154 -9.5574606,9.49772 13.6622686,7.1849703 7.933918,-7.6783603 z m 23.311629,2.37443004 -7.10683,6.93826996 8.362778,6.9074403 5.360756,-5.6739699 -0.06127,-0.0925 -0.0919,0.12335 -6.463539,-8.20258036 z m -8.730374,8.54178036 -7.505057,7.3391599 10.353916,5.45811 c 1.397496,-1.32103 5.67514,-6.12292 5.850882,-6.32154 z"
         style="opacity:0.6;fill:#ffffff;fill-opacity:1;stroke:none" />
    </clipPath>
    <linearGradient
       id="ButtonShadow-16"
       gradientTransform="scale(1.0058652,0.994169)"
       x1="45.447727"
       y1="92.539597"
       x2="45.447727"
       y2="7.0165396"
       gradientUnits="userSpaceOnUse">
      <stop
         style="stop-color:#000000;stop-opacity:1;"
         offset="0"
         id="stop3750-6" />
      <stop
         style="stop-color:#000000;stop-opacity:0.58823532;"
         offset="1"
         id="stop3752-4" />
    </linearGradient>
    <clipPath
       clipPathUnits="userSpaceOnUse"
       id="clipPath4355-7">
      <rect
         style="fill:#ffffff;fill-opacity:1;fill-rule:nonzero;stroke:none"
         id="rect4357-5"
         width="84"
         height="80"
         x="6"
         y="6"
         rx="6"
         ry="6" />
    </clipPath>
    <clipPath
       clipPathUnits="userSpaceOnUse"
       id="clipPath4355-9">
      <rect
         style="fill:#ffffff;fill-opacity:1;fill-rule:nonzero;stroke:none"
         id="rect4357-1"
         width="84"
         height="80"
         x="6"
         y="6"
         rx="6"
         ry="6" />
    </clipPath>
    <clipPath
       clipPathUnits="userSpaceOnUse"
       id="clipPath4355-1">
      <rect
         style="fill:#ffffff;fill-opacity:1;fill-rule:nonzero;stroke:none"
         id="rect4357-9"
         width="84"
         height="80"
         x="6"
         y="6"
         rx="6"
         ry="6" />
    </clipPath>
    <clipPath
       clipPathUnits="userSpaceOnUse"
       id="clipPath3943-52-0">
      <path
         id="path3945-4-1"
         d="m 69.78125,20.84375 -5,3.4375 c 5.586891,5.537137 9,13.327613 9,21.8125 0,8.434478 -3.37723,16.095981 -8.90625,21.625 l 5,3.4375 C 76.078226,64.5762 80,55.843726 80,46.09375 c 2e-6,-9.796556 -3.962955,-18.660417 -10.21875,-25.25 z M 40,24.0625 28.90625,36.21875 H 21.5 c -0.823281,0 -1.5,0.676717 -1.5,1.5 v 1 14.84375 1 c 0,0.823281 0.684121,1.610161 1.5,1.5 h 7.40625 L 40,68 V 66 26.0625 Z m 20.59375,3.28125 -5,3.4375 L 55.5,30.875 c 3.93815,3.890071 6.40625,9.25018 6.40625,15.21875 0,5.920869 -2.42961,11.148358 -6.3125,15.03125 l 0.09375,0.09375 5.09375,3.4375 c 4.475428,-4.908367 7.25,-11.402005 7.25,-18.5625 0,-7.230696 -2.87904,-13.83107 -7.4375,-18.75 z m -9.25,6.5 -5.21875,3.625 c 2.222384,2.217802 3.71875,5.239596 3.71875,8.625 0,3.336509 -1.458847,6.227712 -3.625,8.4375 l 5.21875,3.625 c 2.822412,-3.236947 4.53125,-7.43414 4.53125,-12.0625 0,-4.672601 -1.754155,-9.001351 -4.625,-12.25 z"
         style="color:#000000;display:inline;overflow:visible;visibility:visible;opacity:0.8;fill:#ff00ff;fill-opacity:1;fill-rule:nonzero;stroke:none;stroke-width:1;marker:none;enable-background:accumulate"
         inkscape:connector-curvature="0" />
    </clipPath>
  </defs>
  <path
     style="display:inline;opacity:0.15;fill:#000000;fill-opacity:1;fill-rule:nonzero;stroke:none;stroke-width:0.49712294"
     d="M 44.357142,0.24996884 H 3.6428545 c -1.8796383,0 -3.39285338,1.51321396 -3.39285338,3.39285576 V 44.357112 c 0,1.879643 1.51321508,3.392857 3.39285338,3.392857 H 44.357142 c 1.879643,0 3.392859,-1.513214 3.392859,-3.392857 V 3.6428246 c 0,-1.8796418 -1.513216,-3.39285576 -3.392859,-3.39285576 z"
     id="path3288"
     inkscape:connector-curvature="0" />
  <path
     inkscape:connector-curvature="0"
     id="path4085"
     d="M 44.039063,0.62106252 H 3.9609342 c -1.8502695,0 -3.33984023,1.48956988 -3.33984023,3.33984228 V 44.039032 c 0,1.850273 1.48957073,3.339843 3.33984023,3.339843 H 44.039063 c 1.850274,0 3.339844,-1.48957 3.339844,-3.339843 V 3.9609048 c 0,-1.8502724 -1.48957,-3.33984228 -3.339844,-3.33984228 z"
     style="display:inline;opacity:0.15;fill:#000000;fill-opacity:1;fill-rule:nonzero;stroke:none;stroke-width:0.49712294" />
  <path
     style="display:inline;fill:url(#linearGradient4071);fill-opacity:1;fill-rule:nonzero;stroke:none;stroke-width:0.49712294"
     d="M 43.72098,0.99215635 H 4.2790181 c -1.8209042,0 -3.28683016,1.46592565 -3.28683016,3.28682925 V 43.720952 c 0,1.820904 1.46592596,3.28683 3.28683016,3.28683 H 43.72098 c 1.820905,0 3.286829,-1.465926 3.286829,-3.28683 V 4.2789856 c 0,-1.8209036 -1.465924,-3.28682925 -3.286829,-3.28682925 z"
     id="rect4251-1"
     inkscape:connector-curvature="0" />
  <g
     transform="translate(0.109336,-1.4772497)"
     id="g1051">
    <path
       inkscape:connector-curvature="0"
       id="path47"
       d="m 4.1484375,4.8457031 c -0.6522101,0 -1.1777344,0.6641255 -1.1777344,1.4902344 V 36.410156 c 4.4795377,3.78261 10.0517619,5.981489 16.2187499,5.308594 8.648,-0.945 14.762,-7.883156 13.5,-17.160156 -0.066,-0.211 -0.156,-0.40975 -0.25,-0.59375 -0.02,-0.035 -0.01225,-0.06275 -0.03125,-0.09375 -0.09,-0.152 -0.2065,-0.27325 -0.3125,-0.40625 -0.039,-0.047 -0.06575,-0.11325 -0.09375,-0.15625 -0.125,-0.133 -0.27325,-0.262 -0.40625,-0.375 -0.039,-0.027 -0.06575,-0.06575 -0.09375,-0.09375 -0.105,-0.066 -0.230406,-0.09825 -0.316406,-0.15625 -0.102,-0.059 -0.203406,-0.1365 -0.316406,-0.1875 -0.074,-0.035 -0.168,-0.06275 -0.25,-0.09375 -0.145,-0.059 -0.2725,-0.10925 -0.4375,-0.15625 -0.051,-0.016 -0.10525,-0.0465 -0.15625,-0.0625 -0.285,-0.078 -0.60225,-0.11725 -0.90625,-0.15625 -0.145,-0.02 -0.31275,-0.02025 -0.46875,-0.03125 -0.332,-0.027 -0.656,-0.0655 -1,-0.0625 -0.426,0.004 -0.85525,0.04675 -1.28125,0.09375 -0.418,0.043 -0.81975,0.08225 -1.21875,0.15625 -0.656,0.121 1.449406,1.6515 0.941406,1.8125 -0.398,0.121 -1.492,-0.4295 -1.75,-0.3125 -0.738,2.797 -8.06,4.5735 -13.75,1.9375 C 4.6069019,22.18658 1.8622524,13.531166 6.1113281,4.8457031 Z m 21.1406245,0 C 18.298981,6.3571627 13.075457,10.174262 14.162109,18.15625 c 1.203,3.988 7.773407,5.78075 9.816407,4.84375 0.738,-2.797 4.621406,-8.10475 10.316406,-5.46875 6.458221,3.706138 11.736983,15.884236 6.357422,25.623047 h 3.199218 c 0.652211,0 1.177735,-0.664126 1.177735,-1.490235 V 9.6171875 C 42.426756,7.407305 39.452548,5.7300368 36.205078,4.8457031 Z"
       style="fill:#b0c6de;fill-opacity:1;fill-rule:evenodd;stroke:none" />
    <path
       inkscape:connector-curvature="0"
       id="path49"
       d="M 6.1132812,4.8457031 C 1.8604306,13.532278 4.6040544,22.187422 10.589844,25.625 c 5.691,2.637 12.66825,0.172 13.40625,-2.625 -2.043,0.938 -8.6085,-0.85475 -9.8125,-4.84375 -1.086653,-7.981988 4.133621,-11.7990873 11.125,-13.3105469 z m 30.0351568,0 c 3.265913,0.8709621 6.261489,2.5315352 8.880859,4.7441407 V 6.3359375 c 0,-0.8261089 -0.525524,-1.4902344 -1.177735,-1.4902344 z M 31.3125,16.820312 c -4.026038,-0.01573 -6.697883,3.909308 -7.308594,6.177735 2.042742,-0.938129 7.479496,-2.425409 8.685547,1.564453 1.262,9.273 -4.852,16.211156 -13.5,17.160156 -6.164582,0.673707 -11.7376986,-1.522658 -16.2187499,-5.30664 v 5.248046 c 0,0.826109 0.5255243,1.490235 1.1777344,1.490235 H 40.683594 C 46.056593,33.417361 40.771032,21.248098 34.314453,17.533203 33.247391,17.038766 32.243651,16.823951 31.3125,16.820312 Z m -7.308594,6.177735 c -0.0016,7.38e-4 -0.0043,0.0012 -0.0059,0.002 v 0.01367 c 0.0013,-0.005 0.0045,-0.01058 0.0059,-0.01563 z"
       style="fill:#ec8e68;fill-opacity:1;fill-rule:evenodd;stroke:none" />
    <path
       inkscape:connector-curvature="0"
       id="path51"
       d="m 31.310547,16.8125 c -4.04,-0.02 -6.712453,3.919453 -7.314453,6.189453 0.348,-0.117 7.380453,-2.0315 8.689453,1.5625 1.262,9.273 -4.852,16.215156 -13.5,17.160156 C 13.022892,42.398106 7.451036,40.203681 2.9707031,36.421875 v 5.242187 c 0,0.826109 0.5255243,1.490235 1.1777344,1.490235 H 40.677734 c 5.373,-9.736936 0.08744,-21.906199 -6.36914,-25.621094 -1.066,-0.496 -2.07,-0.71475 -3,-0.71875 z"
       style="fill:#86dd95;fill-opacity:1;fill-rule:nonzero;stroke:none" />
    <path
       inkscape:connector-curvature="0"
       id="path53"
       d="m 4.1484375,4.8457031 c -0.6522101,0 -1.1777344,0.6641255 -1.1777344,1.4902344 V 36.410156 c 4.4795377,3.78261 10.0517619,5.981489 16.2187499,5.308594 8.648,-0.945 14.762,-7.883156 13.5,-17.160156 -0.066,-0.211 -0.156,-0.40975 -0.25,-0.59375 -0.02,-0.035 -0.01225,-0.06275 -0.03125,-0.09375 -0.09,-0.152 -0.2065,-0.27325 -0.3125,-0.40625 -0.039,-0.047 -0.06575,-0.11325 -0.09375,-0.15625 -0.125,-0.133 -0.27325,-0.262 -0.40625,-0.375 -0.039,-0.027 -0.06575,-0.06575 -0.09375,-0.09375 -0.105,-0.066 -0.230406,-0.09825 -0.316406,-0.15625 -0.102,-0.059 -0.203406,-0.1365 -0.316406,-0.1875 -0.074,-0.035 -0.168,-0.06275 -0.25,-0.09375 -0.145,-0.059 -0.2725,-0.10925 -0.4375,-0.15625 -0.051,-0.016 -0.10525,-0.0465 -0.15625,-0.0625 -0.285,-0.078 -0.60225,-0.11725 -0.90625,-0.15625 -0.145,-0.02 -0.31275,-0.02025 -0.46875,-0.03125 -0.332,-0.027 -0.656,-0.0655 -1,-0.0625 -0.426,0.004 -0.85525,0.04675 -1.28125,0.09375 -0.418,0.043 -0.81975,0.08225 -1.21875,0.15625 -0.754,0.305 -0.83175,0.53925 -1.09375,0.78125 0.008,-0.004 -0.02725,-0.004 -0.03125,0 -0.008,0.004 -0.02025,0.0253 -0.03125,0.0293 -0.734,2.793 -7.713391,5.262 -13.400391,2.625 C 4.6093569,22.184915 1.8618295,13.530432 6.109375,4.8457031 Z"
       style="fill:#f3f275;fill-opacity:1;fill-rule:nonzero;stroke:none" />
  </g>
  <path
     inkscape:connector-curvature="0"
     id="path4989"
     d="m 5.1113679,2.5900667 c -1.5420781,0 -2.8044618,1.2565284 -2.8044618,2.7935952 V 39.661838 c 0,1.537067 1.2623837,2.793596 2.8044618,2.793596 H 43.107302 c 1.54208,0 2.804464,-1.256529 2.804464,-2.793596 V 5.3836619 c 0,-1.5370663 -1.262384,-2.7935952 -2.804464,-2.7935952 z m 0,1.1476391 H 43.107302 c 0.934216,0 1.658554,0.7323386 1.658554,1.6459561 V 39.661838 c 0,0.913619 -0.724338,1.645956 -1.658554,1.645956 H 5.1113679 c -0.9342157,0 -1.6585526,-0.732337 -1.6585526,-1.645956 V 5.3836619 c 0,-0.9136175 0.7243369,-1.6459561 1.6585526,-1.6459561 z"
     style="color:#000000;font-style:normal;font-variant:normal;font-weight:normal;font-stretch:normal;font-size:medium;line-height:normal;font-family:Sans;-inkscape-font-specification:Sans;text-indent:0;text-align:start;text-decoration:none;text-decoration-line:none;letter-spacing:normal;word-spacing:normal;text-transform:none;writing-mode:lr-tb;direction:ltr;baseline-shift:baseline;text-anchor:start;display:inline;overflow:visible;visibility:visible;fill:#202223;fill-opacity:0.93689324;stroke:none;stroke-width:1.18091595;marker:none;enable-background:accumulate" />
  <path
     inkscape:connector-curvature="0"
     style="display:inline;opacity:0.65818182;fill:url(#linearGradient4129);fill-opacity:1;fill-rule:nonzero;stroke:none;stroke-width:0.49712294"
     d="m 0.99218745,40.745574 v 2.96875 c 0,1.820904 1.47255275,3.293458 3.29345675,3.293458 H 43.714354 c 1.820906,0 3.29346,-1.472554 3.29346,-3.293458 v -2.96875 c 0,1.820904 -1.472554,3.293458 -3.29346,3.293458 H 4.2856442 c -1.820904,0 -3.29345675,-1.472554 -3.29345675,-3.293458 z"
     id="path4118" />
  <rect
     style="opacity:0.55;fill:url(#radialGradient7462);fill-opacity:1;stroke:none;stroke-width:0.49712294"
     id="rect4131"
     width="41.686203"
     height="2.102865"
     x="2.9095051"
     y="39.956997"
     rx="2.1138744"
     ry="2.1138744" />
  <rect
     ry="2.1116724"
     rx="2.1116724"
     y="-44.823303"
     x="3.0010085"
     height="2.102865"
     width="37.975258"
     id="rect4141"
     style="opacity:0.669;fill:url(#radialGradient7464);fill-opacity:1;stroke:none;stroke-width:0.49712294"
     transform="rotate(90)" />
  <rect
     transform="matrix(0.52905357,0,0,0.51838486,2.3752423,19.289052)"
     style="opacity:0.65;fill:url(#linearGradient4767);fill-opacity:1;stroke:none;stroke-width:1.00471163"
     id="rect4146"
     width="75.965775"
     height="69.024437"
     x="2"
     y="-30"
     rx="3.973561"
     ry="3.9777055"
     clip-path="url(#clipPath4156-4-1)" />
</svg>
