<?xml version="1.0" encoding="UTF-8" standalone="no"?>
<!-- Created with Inkscape (http://www.inkscape.org/) -->

<svg
   xmlns:dc="http://purl.org/dc/elements/1.1/"
   xmlns:cc="http://creativecommons.org/ns#"
   xmlns:rdf="http://www.w3.org/1999/02/22-rdf-syntax-ns#"
   xmlns:svg="http://www.w3.org/2000/svg"
   xmlns="http://www.w3.org/2000/svg"
   xmlns:xlink="http://www.w3.org/1999/xlink"
   xmlns:sodipodi="http://sodipodi.sourceforge.net/DTD/sodipodi-0.dtd"
   xmlns:inkscape="http://www.inkscape.org/namespaces/inkscape"
   width="96"
   height="96"
   id="svg2"
   version="1.1"
   inkscape:version="0.92.2 5c3e80d, 2017-08-06"
   sodipodi:docname="zeitgeist.svg">
  <script
     xlink:href=""
     id="script2985" />
  <defs
     id="defs4">
    <linearGradient
       id="linearGradient13990">
      <stop
         style="stop-color:#006cd7;stop-opacity:1"
         offset="0"
         id="stop13992" />
      <stop
         style="stop-color:#001326;stop-opacity:0.95977014;"
         offset="1"
         id="stop13994" />
    </linearGradient>
    <linearGradient
       id="linearGradient6139-0">
      <stop
         id="stop6141-2"
         offset="0"
         style="stop-color:#b7b7b7;stop-opacity:1;" />
      <stop
         style="stop-color:#ffffff;stop-opacity:1;"
         offset="0.25"
         id="stop6151-0" />
      <stop
         style="stop-color:#9d9d9d;stop-opacity:1;"
         offset="0.5"
         id="stop6147-1" />
      <stop
         id="stop6149-4"
         offset="0.75"
         style="stop-color:#fafafa;stop-opacity:1;" />
      <stop
         id="stop6143-4"
         offset="1"
         style="stop-color:#b7b7b7;stop-opacity:1;" />
    </linearGradient>
    <linearGradient
       id="linearGradient4091-0-3-0-7">
      <stop
         style="stop-color:#ffffff;stop-opacity:1;"
         offset="0"
         id="stop4093-3-6-4-2" />
      <stop
         id="stop4099-6-1-8-3"
         offset="0.80000001"
         style="stop-color:#ffffff;stop-opacity:1;" />
      <stop
         style="stop-color:#ffffff;stop-opacity:0;"
         offset="1"
         id="stop4095-1-0-7-9" />
    </linearGradient>
    <linearGradient
       id="linearGradient3832-0-6-1-1">
      <stop
         style="stop-color:#000000;stop-opacity:1;"
         offset="0"
         id="stop3834-6-3-7-1" />
      <stop
         id="stop3872-2-4"
         offset="0.1"
         style="stop-color:#000000;stop-opacity:0.58823532;" />
      <stop
         style="stop-color:#000000;stop-opacity:0.58823532;"
         offset="0.89999998"
         id="stop3844-6-2-7-6" />
      <stop
         style="stop-color:#000000;stop-opacity:1;"
         offset="1"
         id="stop3836-5-0-2-9" />
    </linearGradient>
    <filter
       id="filter3174-4"
       color-interpolation-filters="sRGB">
      <feGaussianBlur
         stdDeviation="1.71"
         id="feGaussianBlur3176-3" />
    </filter>
    <linearGradient
       gradientUnits="userSpaceOnUse"
       xlink:href="#linearGradient3873-7"
       id="linearGradient3879-8-8"
       y2="48"
       x2="80"
       y1="48"
       x1="16" />
    <linearGradient
       id="linearGradient3873-7">
      <stop
         offset="0"
         style="stop-color:#f0f0f0;stop-opacity:1"
         id="stop3875-0" />
      <stop
         offset="1"
         style="stop-color:#b4b4b4;stop-opacity:1"
         id="stop3877-20-4" />
    </linearGradient>
    <radialGradient
       gradientUnits="userSpaceOnUse"
       xlink:href="#linearGradient3674-5-0"
       id="radialGradient3682-9"
       fy="48"
       fx="48"
       r="32"
       cy="48"
       cx="48" />
    <linearGradient
       id="linearGradient3674-5-0">
      <stop
         offset="0"
         style="stop-color:#ffffff;stop-opacity:1"
         id="stop3676-0-2" />
      <stop
         offset="0.30000001"
         style="stop-color:#ffffff;stop-opacity:1"
         id="stop3684-9" />
      <stop
         offset="0.89999998"
         style="stop-color:#f0f0f0;stop-opacity:1"
         id="stop3925-8-3" />
      <stop
         offset="1"
         style="stop-color:#d2d2d2;stop-opacity:1"
         id="stop3678-8-8" />
    </linearGradient>
    <filter
       id="filter3944-7"
       color-interpolation-filters="sRGB">
      <feGaussianBlur
         stdDeviation="0.4359375"
         id="feGaussianBlur3946-6" />
    </filter>
    <radialGradient
       gradientUnits="userSpaceOnUse"
       xlink:href="#linearGradient3893-7"
       id="radialGradient3901-4"
       fy="46.058418"
       fx="48.000896"
       r="3"
       cy="46.058418"
       cx="48.000896" />
    <linearGradient
       id="linearGradient3893-7">
      <stop
         offset="0"
         style="stop-color:#ffffff;stop-opacity:1"
         id="stop3895-3" />
      <stop
         offset="1"
         style="stop-color:#a2a2a2;stop-opacity:1"
         id="stop3897-5" />
    </linearGradient>
    <linearGradient
       gradientTransform="matrix(0,1,-1,0,96,0)"
       gradientUnits="userSpaceOnUse"
       xlink:href="#linearGradient3899-9"
       id="linearGradient3905-4"
       y2="48"
       x2="83"
       y1="48"
       x1="13" />
    <linearGradient
       id="linearGradient3899-9">
      <stop
         offset="0"
         style="stop-color:#ffffff;stop-opacity:1"
         id="stop3901-8" />
      <stop
         offset="0.5"
         style="stop-color:#ffffff;stop-opacity:0.41221374"
         id="stop3981-6" />
      <stop
         offset="1"
         style="stop-color:#868686;stop-opacity:1"
         id="stop3903-5" />
    </linearGradient>
    <linearGradient
       gradientTransform="matrix(0,1,-1,0,96,0)"
       gradientUnits="userSpaceOnUse"
       xlink:href="#linearGradient3917-6-8"
       id="linearGradient3923-1-6"
       y2="48"
       x2="120"
       y1="48"
       x1="17" />
    <linearGradient
       id="linearGradient3917-6-8">
      <stop
         offset="0"
         style="stop-color:#000000;stop-opacity:1"
         id="stop3919-2" />
      <stop
         offset="1"
         style="stop-color:#000000;stop-opacity:0"
         id="stop3921-7" />
    </linearGradient>
    <linearGradient
       gradientUnits="userSpaceOnUse"
       xlink:href="#linearGradient3983-2"
       id="linearGradient3973-9"
       y2="60"
       x2="53"
       y1="60"
       x1="43" />
    <linearGradient
       id="linearGradient3983-2">
      <stop
         offset="0"
         style="stop-color:#ffffff;stop-opacity:1"
         id="stop3985-6" />
      <stop
         offset="1"
         style="stop-color:#868686;stop-opacity:1"
         id="stop3989-2" />
    </linearGradient>
    <radialGradient
       gradientUnits="userSpaceOnUse"
       xlink:href="#linearGradient3674-5-0"
       id="radialGradient3979-6"
       fy="60"
       fx="48"
       r="5"
       cy="60"
       cx="48" />
    <linearGradient
       id="linearGradient13087">
      <stop
         offset="0"
         style="stop-color:#ffffff;stop-opacity:1"
         id="stop13089" />
      <stop
         offset="0.30000001"
         style="stop-color:#ffffff;stop-opacity:1"
         id="stop13091" />
      <stop
         offset="0.89999998"
         style="stop-color:#f0f0f0;stop-opacity:1"
         id="stop13093" />
      <stop
         offset="1"
         style="stop-color:#d2d2d2;stop-opacity:1"
         id="stop13095" />
    </linearGradient>
    <clipPath
       id="clipPath2973-9">
      <rect
         style="fill:url(#linearGradient2977);fill-opacity:1;fill-rule:nonzero;stroke:none"
         id="rect2975-6"
         y="6"
         x="6"
         ry="6"
         rx="6"
         height="84"
         width="84" />
    </clipPath>
    <linearGradient
       inkscape:collect="always"
       xlink:href="#linearGradient12946"
       id="linearGradient12954"
       x1="9.0784369"
       y1="3.0126896"
       x2="56.280174"
       y2="-34.779079"
       gradientUnits="userSpaceOnUse" />
    <linearGradient
       inkscape:collect="always"
       id="linearGradient12946">
      <stop
         style="stop-color:#ffffff;stop-opacity:1;"
         offset="0"
         id="stop12948" />
      <stop
         style="stop-color:#ffffff;stop-opacity:0;"
         offset="1"
         id="stop12950" />
    </linearGradient>
    <linearGradient
       gradientTransform="scale(1.0058652,0.994169)"
       gradientUnits="userSpaceOnUse"
       id="ButtonShadow-078"
       y2="7.0165396"
       x2="45.447727"
       y1="92.539597"
       x1="45.447727">
      <stop
         offset="0"
         style="stop-color:#000000;stop-opacity:1"
         id="stop3750-34" />
      <stop
         offset="1"
         style="stop-color:#000000;stop-opacity:0.58823532"
         id="stop3752-24" />
    </linearGradient>
    <filter
       id="filter3174-72"
       color-interpolation-filters="sRGB">
      <feGaussianBlur
         stdDeviation="1.71"
         id="feGaussianBlur3176-377" />
    </filter>
    <linearGradient
       gradientUnits="userSpaceOnUse"
       xlink:href="#linearGradient3737-73"
       id="linearGradient3613-60"
       y2="138.66119"
       x2="48"
       y1="20.220806"
       x1="48" />
    <linearGradient
       id="linearGradient3737-73">
      <stop
         offset="0"
         style="stop-color:#ffffff;stop-opacity:1"
         id="stop3739-95" />
      <stop
         offset="1"
         style="stop-color:#ffffff;stop-opacity:0"
         id="stop3741-28" />
    </linearGradient>
    <clipPath
       id="clipPath3613-52">
      <rect
         style="fill:#ffffff;fill-opacity:1;fill-rule:nonzero;stroke:none"
         id="rect3615-55"
         y="6"
         x="6"
         ry="6"
         rx="6"
         height="84"
         width="84" />
    </clipPath>
    <filter
       id="filter3794-88"
       color-interpolation-filters="sRGB"
       height="1.3839999"
       width="1.3839999"
       y="-0.192"
       x="-0.192">
      <feGaussianBlur
         stdDeviation="5.28"
         id="feGaussianBlur3796-89" />
    </filter>
    <linearGradient
       gradientUnits="userSpaceOnUse"
       xlink:href="#linearGradient3309-3"
       id="linearGradient4939"
       y2="15.501938"
       x2="48"
       y1="80"
       x1="48"
       gradientTransform="translate(-18.896524,-17.138708)" />
    <linearGradient
       id="linearGradient4933">
      <stop
         offset="0"
         style="stop-color:#ebebeb;stop-opacity:1"
         id="stop4935" />
      <stop
         offset="1"
         style="stop-color:#fafafa;stop-opacity:1"
         id="stop4937" />
    </linearGradient>
    <linearGradient
       id="linearGradient3679">
      <stop
         offset="0"
         style="stop-color:#d8d5cc;stop-opacity:1"
         id="stop3681" />
      <stop
         offset="1"
         style="stop-color:#40474b;stop-opacity:1"
         id="stop3683" />
    </linearGradient>
    <linearGradient
       id="linearGradient3700">
      <stop
         offset="0"
         style="stop-color:#5c6061;stop-opacity:1"
         id="stop3702" />
      <stop
         offset="1"
         style="stop-color:#bab5af;stop-opacity:1"
         id="stop3704" />
    </linearGradient>
    <filter
       id="filter3174"
       color-interpolation-filters="sRGB">
      <feGaussianBlur
         stdDeviation="1.71"
         id="feGaussianBlur3176" />
    </filter>
    <linearGradient
       gradientUnits="userSpaceOnUse"
       xlink:href="#linearGradient12946"
       id="linearGradient3188"
       y2="63.893143"
       x2="36.357143"
       y1="6"
       x1="36.357143" />
    <filter
       id="filter3794"
       color-interpolation-filters="sRGB"
       height="1.3839999"
       width="1.3839999"
       y="-0.192"
       x="-0.192">
      <feGaussianBlur
         stdDeviation="5.28"
         id="feGaussianBlur3796" />
    </filter>
    <linearGradient
       gradientUnits="userSpaceOnUse"
       xlink:href="#linearGradient12946"
       id="linearGradient3613"
       y2="138.66119"
       x2="48"
       y1="20.220806"
       x1="48" />
    <radialGradient
       gradientTransform="matrix(1.1573129,0,0,0.99590774,-7.5510206,0.19713193)"
       gradientUnits="userSpaceOnUse"
       xlink:href="#linearGradient12946"
       id="radialGradient3619"
       fy="90.171875"
       fx="48"
       r="42"
       cy="90.171875"
       cx="48" />
    <clipPath
       id="clipPath3613">
      <rect
         style="fill:#ffffff;fill-opacity:1;fill-rule:nonzero;stroke:none"
         id="rect3615"
         y="6"
         x="6"
         ry="6"
         rx="6"
         height="84"
         width="84" />
    </clipPath>
    <linearGradient
       gradientUnits="userSpaceOnUse"
       xlink:href="#linearGradient3700"
       id="linearGradient3617"
       y2="16"
       x2="48"
       y1="80"
       x1="48" />
    <linearGradient
       gradientTransform="matrix(1.0058652,0,0,0.994169,100,0)"
       gradientUnits="userSpaceOnUse"
       id="ButtonShadow-0"
       y2="7.0165396"
       x2="45.447727"
       y1="92.539597"
       x1="45.447727">
      <stop
         offset="0"
         style="stop-color:#000000;stop-opacity:1"
         id="stop3750-8" />
      <stop
         offset="1"
         style="stop-color:#000000;stop-opacity:0.58823532"
         id="stop3752-5" />
    </linearGradient>
    <linearGradient
       gradientTransform="matrix(1.0238095,0,0,1.0119048,-1.1428571,-98.071429)"
       gradientUnits="userSpaceOnUse"
       xlink:href="#ButtonShadow-0"
       id="linearGradient3780"
       y2="90.238609"
       x2="32.251034"
       y1="6.1317081"
       x1="32.251034" />
    <linearGradient
       gradientTransform="translate(0,-97)"
       gradientUnits="userSpaceOnUse"
       xlink:href="#ButtonShadow-0"
       id="linearGradient3721"
       y2="90.238609"
       x2="32.251034"
       y1="6.1317081"
       x1="32.251034" />
    <linearGradient
       gradientTransform="translate(-1,0)"
       gradientUnits="userSpaceOnUse"
       xlink:href="#linearGradient3679"
       id="linearGradient3685"
       y2="16"
       x2="48"
       y1="80"
       x1="48" />
    <linearGradient
       gradientTransform="matrix(2.333332,0,0,2.4510672,29.169608,-2.7300194)"
       gradientUnits="userSpaceOnUse"
       xlink:href="#linearGradient12946"
       id="linearGradient3978"
       y2="20.913509"
       x2="19.249098"
       y1="-1.4776937"
       x1="19.249098" />
    <linearGradient
       inkscape:collect="always"
       xlink:href="#linearGradient12946"
       id="linearGradient3096"
       gradientUnits="userSpaceOnUse"
       gradientTransform="matrix(2.333332,0,0,2.4510672,-3.8732852,-2.8341199)"
       x1="19.249098"
       y1="-1.4776937"
       x2="19.249098"
       y2="20.913509" />
    <linearGradient
       inkscape:collect="always"
       xlink:href="#ButtonColor"
       id="linearGradient4497"
       x1="-30.362898"
       y1="3.070312"
       x2="59.749813"
       y2="3.070312"
       gradientUnits="userSpaceOnUse" />
    <linearGradient
       id="linearGradient5128-4">
      <stop
         offset="0"
         style="stop-color:#e5e5e5;stop-opacity:1"
         id="stop5130-1" />
      <stop
         offset="1"
         style="stop-color:#ababab;stop-opacity:1"
         id="stop5132-0" />
    </linearGradient>
    <linearGradient
       gradientTransform="matrix(0.41503146,0,0,0.41503146,21.437996,21.853023)"
       gradientUnits="userSpaceOnUse"
       xlink:href="#linearGradient5128-4"
       id="linearGradient3801-4"
       y2="20.895"
       x2="84.63858"
       y1="105.105"
       x1="86.132919" />
    <linearGradient
       id="linearGradient3397-2">
      <stop
         offset="0"
         style="stop-color:#aaaaaa;stop-opacity:1"
         id="stop3399-6" />
      <stop
         offset="1"
         style="stop-color:#8c8c8c;stop-opacity:1"
         id="stop3401-7" />
    </linearGradient>
    <linearGradient
       gradientTransform="matrix(1.2790652,0,0,1.2790652,17.302433,18.5815)"
       gradientUnits="userSpaceOnUse"
       xlink:href="#linearGradient3397-2"
       id="linearGradient3806-9"
       y2="45"
       x2="37.201294"
       y1="1"
       x1="37.201294" />
    <linearGradient
       gradientUnits="userSpaceOnUse"
       id="linearGradient3309-3"
       y2="122.8994"
       x2="63.9995"
       y1="3.1001"
       x1="63.9995">
      <stop
         offset="0"
         style="stop-color:#f6f6f6;stop-opacity:1"
         id="stop3311-3" />
      <stop
         offset="1"
         style="stop-color:#d2d2d2;stop-opacity:1"
         id="stop3313-1" />
    </linearGradient>
    <linearGradient
       gradientTransform="matrix(1.2790652,0,0,1.2790652,17.302433,18.5815)"
       gradientUnits="userSpaceOnUse"
       xlink:href="#linearGradient3309-3"
       id="linearGradient3804-6"
       y2="45.017357"
       x2="20.758585"
       y1="1"
       x1="20.758585" />
    <linearGradient
       id="linearGradient4327">
      <stop
         offset="0"
         style="stop-color:#70a83e;stop-opacity:1"
         id="stop4329" />
      <stop
         offset="1"
         style="stop-color:#9fd058;stop-opacity:1"
         id="stop4331" />
    </linearGradient>
    <linearGradient
       gradientUnits="userSpaceOnUse"
       xlink:href="#linearGradient4327"
       id="linearGradient3878-4"
       y2="5.9877172"
       x2="48"
       y1="90"
       x1="48" />
    <clipPath
       id="clipPath2973-9-3">
      <rect
         style="fill:url(#linearGradient3878-4);fill-opacity:1;fill-rule:nonzero;stroke:none"
         id="rect2975-6-6"
         y="6"
         x="6"
         ry="6"
         rx="6"
         height="84"
         width="84" />
    </clipPath>
    <filter
       id="filter3174-4-7"
       color-interpolation-filters="sRGB">
      <feGaussianBlur
         stdDeviation="1.71"
         id="feGaussianBlur3176-3-5" />
    </filter>
    <filter
       id="filter3174-9"
       color-interpolation-filters="sRGB">
      <feGaussianBlur
         stdDeviation="1.71"
         id="feGaussianBlur3176-2" />
    </filter>
    <filter
       id="filter3794-3"
       color-interpolation-filters="sRGB"
       height="1.3839999"
       width="1.3839999"
       y="-0.192"
       x="-0.192">
      <feGaussianBlur
         stdDeviation="5.28"
         id="feGaussianBlur3796-8" />
    </filter>
    <radialGradient
       gradientTransform="matrix(1.1573129,0,0,0.99590774,-7.5510206,0.19713193)"
       gradientUnits="userSpaceOnUse"
       xlink:href="#linearGradient12946"
       id="radialGradient3619-5"
       fy="90.171875"
       fx="48"
       r="42"
       cy="90.171875"
       cx="48" />
    <clipPath
       id="clipPath3613-5">
      <rect
         style="fill:#ffffff;fill-opacity:1;fill-rule:nonzero;stroke:none"
         id="rect3615-1"
         y="6"
         x="6"
         ry="6"
         rx="6"
         height="84"
         width="84" />
    </clipPath>
    <clipPath
       id="clipPath2973">
      <rect
         style="fill:url(#linearGradient3878-4);fill-opacity:1;fill-rule:nonzero;stroke:none"
         id="rect2975"
         y="6"
         x="6"
         ry="6"
         rx="6"
         height="84"
         width="84" />
    </clipPath>
    <linearGradient
       gradientTransform="matrix(1.0172414,0,0,1.0172414,-1.1034483,-1.1034483)"
       gradientUnits="userSpaceOnUse"
       id="ButtonColor"
       y2="5.4252338"
       x2="58.650177"
       y1="122"
       x1="58.650177">
      <stop
         offset="0"
         style="stop-color:#623b6b;stop-opacity:1"
         id="stop3189" />
      <stop
         offset="1"
         style="stop-color:#ad7fa8;stop-opacity:1"
         id="stop3191" />
    </linearGradient>
    <linearGradient
       gradientUnits="userSpaceOnUse"
       xlink:href="#ButtonColor"
       id="linearGradient3708"
       y2="5.9877172"
       x2="48"
       y1="90"
       x1="48" />
    <linearGradient
       inkscape:collect="always"
       xlink:href="#linearGradient12946"
       id="linearGradient4110"
       gradientUnits="userSpaceOnUse"
       gradientTransform="matrix(1.1856936,0,0,1.1642273,-42.219833,-46.722496)"
       x1="62"
       y1="8"
       x2="62"
       y2="68" />
    <linearGradient
       inkscape:collect="always"
       xlink:href="#linearGradient5700"
       id="linearGradient4108"
       gradientUnits="userSpaceOnUse"
       gradientTransform="matrix(1.1353753,0,0,1.1158944,-271.191,-37.688363)"
       x1="6"
       y1="47.000011"
       x2="90"
       y2="47.000011" />
    <linearGradient
       inkscape:collect="always"
       xlink:href="#linearGradient5700"
       id="linearGradient5698"
       gradientUnits="userSpaceOnUse"
       gradientTransform="matrix(1.1353753,0,0,1.1158944,-40.037124,-45.206192)"
       x1="6"
       y1="47.000011"
       x2="90"
       y2="47.000011" />
    <linearGradient
       gradientTransform="matrix(1.1353753,0,0,1.1336634,-40.037124,-46.787637)"
       y2="47.000011"
       x2="90"
       y1="47.000011"
       x1="6"
       gradientUnits="userSpaceOnUse"
       id="linearGradient5021"
       xlink:href="#linearGradient6139-0"
       inkscape:collect="always" />
    <linearGradient
       inkscape:collect="always"
       xlink:href="#linearGradient6139-0"
       id="linearGradient3923"
       x1="6"
       y1="47.000011"
       x2="90"
       y2="47.000011"
       gradientUnits="userSpaceOnUse" />
    <linearGradient
       inkscape:collect="always"
       xlink:href="#linearGradient3832-0-6-1-1"
       id="linearGradient3120"
       gradientUnits="userSpaceOnUse"
       gradientTransform="matrix(1,0,0,0.73089097,200,23.096697)"
       x1="-94"
       y1="82.984398"
       x2="-10.187523"
       y2="82.984398" />
    <radialGradient
       inkscape:collect="always"
       xlink:href="#linearGradient4091-0-3-0-7"
       id="radialGradient3118"
       gradientUnits="userSpaceOnUse"
       gradientTransform="matrix(-1.0721726,0,0,-0.87502024,199.46429,-19.125546)"
       cx="48"
       cy="-27"
       fx="48"
       fy="-27"
       r="42" />
    <radialGradient
       inkscape:collect="always"
       xlink:href="#linearGradient12946"
       id="radialGradient3114"
       gradientUnits="userSpaceOnUse"
       gradientTransform="matrix(0,1.6209438,-2.0382846,0,160.66427,-243.03657)"
       cx="158"
       cy="6.2131939"
       fx="158"
       fy="6.2131939"
       r="41" />
    <linearGradient
       id="linearGradient3921">
      <stop
         style="stop-color:#2cffee;stop-opacity:1;"
         offset="0"
         id="stop3923" />
      <stop
         style="stop-color:#00586e;stop-opacity:1;"
         offset="1"
         id="stop3925" />
    </linearGradient>
    <radialGradient
       inkscape:collect="always"
       xlink:href="#linearGradient3921"
       id="radialGradient4985"
       gradientUnits="userSpaceOnUse"
       gradientTransform="matrix(1.1856936,0,0,1.0652366,-42.219833,-42.734861)"
       cx="48"
       cy="43"
       fx="48"
       fy="43"
       r="38" />
    <linearGradient
       id="linearGradient5700">
      <stop
         id="stop5702"
         offset="0"
         style="stop-color:#ffffff;stop-opacity:0;" />
      <stop
         style="stop-color:#ffffff;stop-opacity:0.85135138;"
         offset="0.03681535"
         id="stop5704" />
      <stop
         id="stop5706"
         offset="0.06506088"
         style="stop-color:#ffffff;stop-opacity:0;" />
      <stop
         style="stop-color:#ffffff;stop-opacity:0;"
         offset="0.94493848"
         id="stop5712" />
      <stop
         style="stop-color:#ffffff;stop-opacity:0.85135138;"
         offset="0.96582276"
         id="stop5710" />
      <stop
         id="stop5708"
         offset="1"
         style="stop-color:#ffffff;stop-opacity:0;" />
    </linearGradient>
    <linearGradient
       y2="47.000011"
       x2="90"
       y1="47.000011"
       x1="6"
       gradientTransform="matrix(1.1071428,0,0,1.1071426,85.824128,-24.205687)"
       gradientUnits="userSpaceOnUse"
       id="linearGradient4071"
       xlink:href="#linearGradient6139-0-3"
       inkscape:collect="always" />
    <linearGradient
       id="linearGradient6139-0-3">
      <stop
         style="stop-color:#b2babc;stop-opacity:1"
         offset="0"
         id="stop6141-2-6" />
      <stop
         id="stop6151-0-7"
         offset="0.25"
         style="stop-color:#ffffff;stop-opacity:1;" />
      <stop
         id="stop6147-1-5"
         offset="0.5"
         style="stop-color:#96a1a4;stop-opacity:1" />
      <stop
         style="stop-color:#fbf9f9;stop-opacity:1;"
         offset="0.75"
         id="stop6149-4-3" />
      <stop
         style="stop-color:#b2b9bc;stop-opacity:1"
         offset="1"
         id="stop6143-4-5" />
    </linearGradient>
    <linearGradient
       gradientUnits="userSpaceOnUse"
       y2="88.171875"
       x2="94.5"
       y1="88.171875"
       x1="1.5"
       id="linearGradient4129"
       xlink:href="#linearGradient3832-0-6-1-1"
       inkscape:collect="always"
       gradientTransform="translate(90.966985,-20.169974)" />
    <radialGradient
       r="43.199203"
       fy="44.892841"
       fx="13.948145"
       cy="44.892841"
       cx="13.948145"
       gradientTransform="matrix(0.97513378,0,0,0.04919072,124.86568,59.996722)"
       gradientUnits="userSpaceOnUse"
       id="radialGradient7462"
       xlink:href="#linearGradient12946"
       inkscape:collect="always" />
    <radialGradient
       r="43.199203"
       fy="44.892841"
       fx="13.948145"
       cy="44.892841"
       cx="13.948145"
       gradientTransform="matrix(0.88832663,0,0,0.04919072,11.374518,-181.13529)"
       gradientUnits="userSpaceOnUse"
       id="radialGradient7464"
       xlink:href="#linearGradient12946"
       inkscape:collect="always" />
    <linearGradient
       y2="14.514202"
       x2="50.527882"
       y1="-28.64156"
       x1="2.7713892"
       gradientUnits="userSpaceOnUse"
       id="linearGradient4767"
       xlink:href="#linearGradient12946"
       inkscape:collect="always" />
    <clipPath
       clipPathUnits="userSpaceOnUse"
       id="clipPath4156-4-1">
      <path
         style="opacity:0.6;fill:#ffffff;fill-opacity:1;stroke:none"
         d="m 27.046336,-55.695463 -14.21366,13.321486 h 0.06127 l 15.653407,21.770763 10.231384,-10.546177 C 38.561832,-32.30156 27.468089,-54.819245 27.046336,-55.695463 Z M 9.6468554,-39.382809 -5.2407289,-25.32124 15.987863,-7.8059573 26.372412,-18.382966 Z m 31.4906096,12.951445 -9.741259,9.713584 8.944804,12.4580526 7.780753,-7.5550056 z m -49.8397109,4.378822 -13.7541661,12.9822847 26.2830181,13.84571 0.06127,-0.0617 -0.122531,-0.0617 L 13.598503,-5.4007374 -8.7022409,-22.052595 Z m 38.0154159,7.400825 -9.802525,9.7752596 11.579232,9.5594001 7.62759,-7.40083 -8.669108,-11.0087257 z m 20.187073,5.6739697 -7.382526,7.2158 6.187844,8.54179 5.820249,-6.13651996 z m -32.195166,6.32154 -9.5574606,9.49772 13.6622686,7.1849703 7.933918,-7.6783603 z m 23.311629,2.37443004 -7.10683,6.93826996 8.362778,6.9074403 5.360756,-5.6739699 -0.06127,-0.0925 -0.0919,0.12335 -6.463539,-8.20258036 z m -8.730374,8.54178036 -7.505057,7.3391599 10.353916,5.45811 c 1.397496,-1.32103 5.67514,-6.12292 5.850882,-6.32154 z"
         id="path4158-0-8"
         inkscape:connector-curvature="0" />
    </clipPath>
    <clipPath
       id="clipPath4355-7"
       clipPathUnits="userSpaceOnUse">
      <rect
         ry="6"
         rx="6"
         y="6"
         x="6"
         height="80"
         width="84"
         id="rect4357-5"
         style="fill:#ffffff;fill-opacity:1;fill-rule:nonzero;stroke:none" />
    </clipPath>
    <clipPath
       id="clipPath4355-9"
       clipPathUnits="userSpaceOnUse">
      <rect
         ry="6"
         rx="6"
         y="6"
         x="6"
         height="80"
         width="84"
         id="rect4357-1"
         style="fill:#ffffff;fill-opacity:1;fill-rule:nonzero;stroke:none" />
    </clipPath>
    <clipPath
       id="clipPath4355-1"
       clipPathUnits="userSpaceOnUse">
      <rect
         ry="6"
         rx="6"
         y="6"
         x="6"
         height="80"
         width="84"
         id="rect4357-9"
         style="fill:#ffffff;fill-opacity:1;fill-rule:nonzero;stroke:none" />
    </clipPath>
    <clipPath
       id="clipPath3943-52-0"
       clipPathUnits="userSpaceOnUse">
      <path
         inkscape:connector-curvature="0"
         style="color:#000000;display:inline;overflow:visible;visibility:visible;opacity:0.8;fill:#ff00ff;fill-opacity:1;fill-rule:nonzero;stroke:none;stroke-width:1;marker:none;enable-background:accumulate"
         d="m 69.78125,20.84375 -5,3.4375 c 5.586891,5.537137 9,13.327613 9,21.8125 0,8.434478 -3.37723,16.095981 -8.90625,21.625 l 5,3.4375 C 76.078226,64.5762 80,55.843726 80,46.09375 c 2e-6,-9.796556 -3.962955,-18.660417 -10.21875,-25.25 z M 40,24.0625 28.90625,36.21875 H 21.5 c -0.823281,0 -1.5,0.676717 -1.5,1.5 v 1 14.84375 1 c 0,0.823281 0.684121,1.610161 1.5,1.5 h 7.40625 L 40,68 V 66 26.0625 Z m 20.59375,3.28125 -5,3.4375 L 55.5,30.875 c 3.93815,3.890071 6.40625,9.25018 6.40625,15.21875 0,5.920869 -2.42961,11.148358 -6.3125,15.03125 l 0.09375,0.09375 5.09375,3.4375 c 4.475428,-4.908367 7.25,-11.402005 7.25,-18.5625 0,-7.230696 -2.87904,-13.83107 -7.4375,-18.75 z m -9.25,6.5 -5.21875,3.625 c 2.222384,2.217802 3.71875,5.239596 3.71875,8.625 0,3.336509 -1.458847,6.227712 -3.625,8.4375 l 5.21875,3.625 c 2.822412,-3.236947 4.53125,-7.43414 4.53125,-12.0625 0,-4.672601 -1.754155,-9.001351 -4.625,-12.25 z"
         id="path3945-4-1" />
    </clipPath>
    <radialGradient
       inkscape:collect="always"
       xlink:href="#linearGradient4091-0-3-0-7"
       id="radialGradient4102"
       gradientUnits="userSpaceOnUse"
       gradientTransform="matrix(-1.1870482,0,0,-0.96877218,195.94531,-43.913646)"
       cx="48"
       cy="-27"
       fx="48"
       fy="-27"
       r="42" />
    <linearGradient
       inkscape:collect="always"
       xlink:href="#ButtonShadow-078"
       id="linearGradient1259"
       gradientUnits="userSpaceOnUse"
       gradientTransform="matrix(1.0058652,0,0,0.994169,90.966986,-20.169968)"
       x1="45.447727"
       y1="92.539597"
       x2="45.447727"
       y2="7.0165396" />
  </defs>
  <sodipodi:namedview
     id="base"
     pagecolor="#ffffff"
     bordercolor="#666666"
     borderopacity="1.0"
     inkscape:pageopacity="0.0"
     inkscape:pageshadow="2"
     inkscape:zoom="2.2755507"
     inkscape:cx="13.358756"
     inkscape:cy="9.1145912"
     inkscape:current-layer="g1525"
     showgrid="true"
     inkscape:document-units="px"
     inkscape:grid-bbox="true"
     inkscape:showpageshadow="false"
     gridtolerance="1"
     guidetolerance="1"
     objecttolerance="1"
     inkscape:window-width="1280"
     inkscape:window-height="972"
     inkscape:window-x="0"
     inkscape:window-y="23"
     inkscape:window-maximized="1" />
  <metadata
     id="metadata7">
    <rdf:RDF>
      <cc:Work
         rdf:about="">
        <dc:format>image/svg+xml</dc:format>
        <dc:type
           rdf:resource="http://purl.org/dc/dcmitype/StillImage" />
        <dc:title />
      </cc:Work>
    </rdf:RDF>
  </metadata>
  <g
     id="layer1"
     inkscape:label="Layer 1"
     inkscape:groupmode="layer"
     transform="translate(0,32)">
    <g
       transform="matrix(0.97513378,0,0,0.97660611,33.898696,9.6573789)"
       id="g12958">
      <g
         transform="matrix(1.1353753,0,0,1.1336634,-153.57465,-46.220805)"
         id="g3272">
        <g
           id="g12268"
           transform="matrix(0.90322585,0,0,0.90322601,22.481424,21.363206)">
          <g
             style="display:none"
             id="layer2-77">
            <rect
               style="opacity:0.9;fill:url(#ButtonShadow-078);fill-opacity:1;fill-rule:nonzero;stroke:none;filter:url(#filter3174-72)"
               id="rect3745-156"
               y="7"
               x="5"
               ry="6"
               rx="6"
               height="85"
               width="86" />
          </g>
          <rect
             style="opacity:0.9;fill:url(#linearGradient1259);fill-opacity:1;fill-rule:nonzero;stroke:none;filter:url(#filter3174)"
             id="rect3745"
             y="-13.169968"
             x="95.966988"
             ry="6"
             rx="6"
             height="85"
             width="86" />
          <path
             style="display:inline;opacity:0.15;fill:#000000;fill-opacity:1;fill-rule:nonzero;stroke:none;stroke-linejoin:miter"
             d="M 180.10984,-20.169974 H 97.824122 c -3.798848,0 -6.857135,3.058285 -6.857135,6.85714 v 82.285718 c 0,3.798857 3.058287,6.857142 6.857135,6.857142 h 82.285718 c 3.79886,0 6.85715,-3.058285 6.85715,-6.857142 v -82.285718 c 0,-3.798855 -3.05829,-6.85714 -6.85715,-6.85714 z"
             id="path3288"
             inkscape:connector-curvature="0" />
          <path
             inkscape:connector-curvature="0"
             id="path4085"
             d="M 179.46699,-19.419974 H 98.466978 c -3.739492,0 -6.749993,3.010499 -6.749993,6.749997 v 81.000003 c 0,3.739501 3.010501,6.75 6.749993,6.75 h 81.000012 c 3.7395,0 6.75,-3.010499 6.75,-6.75 v -81.000003 c 0,-3.739498 -3.0105,-6.749997 -6.75,-6.749997 z"
             style="display:inline;opacity:0.15;fill:#000000;fill-opacity:1;fill-rule:nonzero;stroke:none;stroke-linejoin:miter" />
          <path
             style="display:inline;fill:url(#linearGradient4071);fill-opacity:1;fill-rule:nonzero;stroke:none;stroke-linejoin:miter"
             d="M 178.82412,-18.669974 H 99.109842 c -3.680143,0 -6.642856,2.962713 -6.642856,6.642855 v 79.71429 c 0,3.680142 2.962713,6.642856 6.642856,6.642856 h 79.714278 c 3.68015,0 6.64286,-2.962714 6.64286,-6.642856 v -79.71429 c 0,-3.680142 -2.96271,-6.642855 -6.64286,-6.642855 z"
             id="rect4251-1"
             inkscape:connector-curvature="0" />
          <path
             style="display:inline;opacity:0.956;fill:#194b9f;fill-opacity:1;fill-rule:nonzero;stroke:none;stroke-width:1.02950251;stroke-linejoin:miter"
             d="m 102.20828,-13.782832 c -2.856498,0 -5.12413,2.288378 -5.12413,5.171003 v 21.42734 7.239403 39.913674 c 1.09724,1.684484 2.96885,2.811732 5.12413,2.811732 h 4.0993 65.58885 4.0993 c 2.15528,0 4.02689,-1.127248 5.12413,-2.811732 V 20.054914 12.815511 -8.611829 c 0,-2.882625 -2.26763,-5.171003 -5.12413,-5.171003 z"
             id="path3400-6-9"
             inkscape:connector-curvature="0"
             sodipodi:nodetypes="sscccsccscccsss" />
          <path
             inkscape:connector-curvature="0"
             id="path4989"
             d="m 100.79207,-15.440513 c -3.116626,0 -5.66797,2.53951 -5.66797,5.646004 v 69.277996 c 0,3.106495 2.551344,5.646004 5.66797,5.646004 h 76.79178 c 3.11662,0 5.66797,-2.539509 5.66797,-5.646004 V -9.794509 c 0,-3.106493 -2.55135,-5.646004 -5.66797,-5.646004 z m 0,2.319439 h 76.79178 c 1.8881,0 3.35202,1.480095 3.35202,3.326565 v 69.277996 c 0,1.846474 -1.46392,3.326564 -3.35202,3.326564 h -76.79178 c -1.888104,0 -3.352027,-1.48009 -3.352027,-3.326564 V -9.794509 c 0,-1.84647 1.463923,-3.326565 3.352027,-3.326565 z"
             style="color:#000000;font-style:normal;font-variant:normal;font-weight:normal;font-stretch:normal;font-size:medium;line-height:normal;font-family:Sans;-inkscape-font-specification:Sans;text-indent:0;text-align:start;text-decoration:none;text-decoration-line:none;letter-spacing:normal;word-spacing:normal;text-transform:none;writing-mode:lr-tb;direction:ltr;baseline-shift:baseline;text-anchor:start;display:inline;overflow:visible;visibility:visible;fill:#2f2f2f;fill-opacity:0.90625;stroke:none;stroke-width:2.3755002;stroke-linejoin:miter;marker:none;enable-background:accumulate" />
          <path
             inkscape:connector-curvature="0"
             style="display:inline;opacity:0.65818182;fill:url(#linearGradient4129);fill-opacity:1;fill-rule:nonzero;stroke:none;stroke-linejoin:miter"
             d="m 92.466985,61.673776 v 6 c 0,3.680142 2.976106,6.65625 6.656249,6.65625 h 79.687496 c 3.68015,0 6.65626,-2.976108 6.65626,-6.65625 v -6 c 0,3.680142 -2.97611,6.65625 -6.65626,6.65625 H 99.123234 c -3.680143,0 -6.656249,-2.976108 -6.656249,-6.65625 z"
             id="path4118" />
          <rect
             style="opacity:0.55;fill:url(#radialGradient7462);fill-opacity:1;stroke:none;stroke-linejoin:miter"
             id="rect4131"
             width="84.250008"
             height="4.25"
             x="96.341988"
             y="60.080032"
             rx="0"
             ry="4.25" />
          <rect
             ry="4.25"
             rx="0"
             y="-181.052"
             x="-14.609978"
             height="4.25"
             width="76.75"
             id="rect4141"
             style="opacity:0.669;fill:url(#radialGradient7464);fill-opacity:1;stroke:none;stroke-linejoin:miter"
             transform="rotate(90)" />
          <g
             transform="translate(109.857,-6.0264252)"
             id="g1525">
            <path
               style="opacity:0.15;fill:#000000;fill-opacity:1"
               id="path4965"
               d="m 28.603476,-2.169958 c -15.054119,0 -27.337978,12.283762 -28.40625,27.78125 -1.112902,1.318067 -2.278177,2.518566 -3.125,4 -0.898949,1.572622 -1.388409,3.491768 -1.03125,5.875 0.360469,2.405312 1.756117,3.972431 3.3125,4.8125 1.316684,0.71069 2.658751,0.948909 3.8125,1.03125 0.111474,0.248645 0.21151,0.488427 0.34375,0.75 2.199383,8.213681 -0.13379,12.735325 -1.71875,15.875 -0.397885,0.788177 -0.767474,1.484651 -1,2.1875 -0.232526,0.702849 -0.327393,1.497401 0,2.25 0.327393,0.752599 0.997452,1.258123 1.875,1.65625 0.877548,0.398127 2.02719,0.722783 3.5625,1.03125 11.003516,2.210777 28.620627,0.789123 42.84375,-16.375 5.02732,-6.066845 7.357322,-12.81953 8,-20.375 0.575884,-0.406594 1.65977,-1.139979 2.84375,-2.5625 1.354972,-1.627963 2.613428,-3.903215 2.34375,-6.59375 a 1.0189446,1.0189446 0 0 0 0,-0.09375 c -0.449871,-2.469482 -1.926935,-4.155961 -3.75,-5.15625 -1.673477,-0.918212 -3.631942,-1.294893 -5.5,-1.46875 -4.974793,-8.717114 -14.015753,-14.625 -24.40625,-14.625 z m 3.71875,7.90625 c 9.565043,0 17.3125,7.991535 17.3125,17.9375 0,9.945964 -7.749552,17.96875 -17.3125,17.96875 -9.562949,0 -17.3125,-8.022786 -17.3125,-17.96875 0,-9.945965 7.747456,-17.9375 17.3125,-17.9375 z m 2.625,5.09375 c -0.593929,0.07857 -0.937972,0.330844 -1.3125,0.625 -0.374528,0.294156 -0.737898,0.655162 -1.09375,1.03125 -0.711705,0.752177 -1.402829,1.5963 -1.8125,2.125 a 1.0189446,1.0189446 0 0 0 0.9375,1.625 c 0.262231,-0.03014 0.479902,-0.03125 0.65625,-0.03125 1.46017,0 2.763763,0.539463 3.8125,1.46875 a 1.0189446,1.0189446 0 0 0 1.6875,-0.84375 c -0.07988,-0.747738 -0.204231,-1.976258 -0.46875,-3.09375 -0.13226,-0.558746 -0.307267,-1.080233 -0.53125,-1.5625 -0.223983,-0.482267 -0.467461,-0.986705 -1.15625,-1.25 -0.169362,-0.06475 -0.404901,-0.135286 -0.71875,-0.09375 z m -2.625,5.5 c -3.243236,0 -5.875,2.731661 -5.875,6.03125 0,3.299589 2.623835,6.0625 5.875,6.0625 3.251161,0 5.875,-2.76291 5.875,-6.0625 0,-3.29959 -2.631768,-6.03125 -5.875,-6.03125 z m 4.84375,10.09375 a 1.0189446,1.0189446 0 0 0 -0.6875,0.3125 c -1.080617,1.105669 -2.539489,1.78125 -4.15625,1.78125 -0.224374,0 -0.443886,0.01918 -0.625,0 a 1.0189446,1.0189446 0 0 0 -0.90625,1.625 c 0.05871,0.07624 1.766866,2.302799 3.53125,4.5 0.882192,1.0986 1.788487,2.181619 2.5,3 0.355756,0.40919 0.645878,0.742542 0.90625,1 0.130186,0.128729 0.263765,0.237255 0.40625,0.34375 0.07124,0.05325 0.139969,0.124375 0.28125,0.1875 0.141281,0.06312 0.402981,0.211221 0.875,0 0.372472,-0.166926 0.499769,-0.442772 0.5625,-0.59375 0.06273,-0.150978 0.08084,-0.252178 0.09375,-0.34375 0.02582,-0.183144 0.0363,-0.331672 0.03125,-0.5 -0.01009,-0.336655 -0.06519,-0.745372 -0.125,-1.21875 -0.119625,-0.946756 -0.307816,-2.14824 -0.53125,-3.40625 -0.446867,-2.51602 -0.986895,-5.160548 -1.125,-5.84375 a 1.0189446,1.0189446 0 0 0 -1.03125,-0.84375 z"
               inkscape:connector-curvature="0" />
            <path
               style="opacity:1;fill:#000000;fill-opacity:0.16517855;stroke:#030303;stroke-opacity:0.125"
               id="path4959"
               inkscape:connector-curvature="0"
               d="m 28.616984,-1.138708 c -14.611711,0 -26.569129,12.004534 -27.442954,27.167878 -2.410134,2.901099 -4.796278,4.940447 -4.142332,9.304067 0.63285,4.222837 4.522391,4.969296 6.812195,5.032287 0.20547,0.449266 0.420882,0.890851 0.647239,1.326841 4.64268,17.108712 -10.062497,19.972974 1.909356,22.378304 10.718804,2.153574 27.898322,0.849227 41.876396,-16.019177 4.981625,-6.011701 7.235823,-12.607969 7.815412,-20.17769 0.722547,-0.487377 5.624963,-3.970604 5.161741,-8.592105 -0.793795,-4.357387 -4.942828,-5.6057 -8.81864,-5.889878 C 47.690477,4.70581 38.812115,-1.138708 28.616984,-1.138708 Z M 32.32243,4.71881 c 10.134117,0 18.349239,8.485975 18.349239,18.964116 0,10.47814 -8.215122,18.980298 -18.349239,18.980298 -10.134118,0 -18.349239,-8.502158 -18.349239,-18.980298 0,-10.478141 8.215121,-18.964116 18.349239,-18.964116 z m 2.750768,7.119633 c -0.906891,0.119967 -2.727741,2.36594 -3.527455,3.398008 0.25479,-0.02929 0.514353,-0.04855 0.776687,-0.04855 1.725323,0 3.299647,0.654886 4.514496,1.731365 -0.155385,-1.454604 -0.613574,-4.705403 -1.553375,-5.064649 -0.06283,-0.02402 -0.132073,-0.02655 -0.210353,-0.01619 z m -2.750768,5.517718 c -2.676837,0 -4.854296,2.24828 -4.854296,5.016105 0,2.767825 2.177459,5.016105 4.854296,5.016105 2.676832,0 4.838113,-2.24828 4.838113,-5.016105 0,-2.767825 -2.161281,-5.016105 -4.838113,-5.016105 z m 4.886658,10.113117 c -1.255194,1.284293 -2.981334,2.087347 -4.886658,2.087347 -0.242026,0 -0.492487,-0.0074 -0.728144,-0.03236 0.09959,0.129321 6.866397,8.891098 7.281447,8.70537 0.452233,-0.202671 -1.390308,-9.393328 -1.666645,-10.760357 z" />
            <path
               style="fill:url(#linearGradient4939);fill-opacity:1.0"
               id="path4931"
               inkscape:connector-curvature="0"
               d="m 28.616984,-2.138708 c -14.611711,0 -26.569129,12.004534 -27.442954,27.167878 -2.410134,2.901099 -4.796278,4.940447 -4.142332,9.304067 0.63285,4.222837 4.522391,4.969296 6.812195,5.032287 0.20547,0.449266 0.420882,0.890851 0.647239,1.326841 4.64268,17.108712 -10.062497,19.972974 1.909356,22.378304 10.718804,2.153574 27.898322,0.849227 41.876396,-16.019177 4.981625,-6.011701 7.235823,-12.607969 7.815412,-20.17769 0.722547,-0.487377 5.624963,-3.970604 5.161741,-8.592105 -0.793795,-4.357387 -4.942828,-5.6057 -8.81864,-5.889878 C 47.690477,3.70581 38.812115,-2.138708 28.616984,-2.138708 Z M 32.32243,3.71881 c 10.134117,0 18.349239,8.485975 18.349239,18.964116 0,10.47814 -8.215122,18.980298 -18.349239,18.980298 -10.134118,0 -18.349239,-8.502158 -18.349239,-18.980298 0,-10.478141 8.215121,-18.964116 18.349239,-18.964116 z m 2.750768,7.119633 c -0.906891,0.119967 -2.727741,2.36594 -3.527455,3.398008 0.25479,-0.02929 0.514353,-0.04855 0.776687,-0.04855 1.725323,0 3.299647,0.654886 4.514496,1.731365 -0.155385,-1.454604 -0.613574,-4.705403 -1.553375,-5.064649 -0.06283,-0.02402 -0.132073,-0.02655 -0.210353,-0.01619 z m -2.750768,5.517718 c -2.676837,0 -4.854296,2.24828 -4.854296,5.016105 0,2.767825 2.177459,5.016105 4.854296,5.016105 2.676832,0 4.838113,-2.24828 4.838113,-5.016105 0,-2.767825 -2.161281,-5.016105 -4.838113,-5.016105 z m 4.886658,10.113117 c -1.255194,1.284293 -2.981334,2.087347 -4.886658,2.087347 -0.242026,0 -0.492487,-0.0074 -0.728144,-0.03236 0.09959,0.129321 6.866397,8.891098 7.281447,8.70537 0.452233,-0.202671 -1.390308,-9.393328 -1.666645,-10.760357 z" />
            <path
               style="fill:#ffffff;fill-opacity:1"
               id="path4941"
               inkscape:connector-curvature="0"
               d="m 28.603476,-2.138708 c -14.611711,0 -26.563675,11.992906 -27.4375,27.15625 -2.24697,2.704697 -4.457555,4.680328 -4.21875,8.46875 0.176041,-3.153792 2.178409,-5.012774 4.21875,-7.46875 0.873825,-15.163344 12.825789,-27.15625 27.4375,-27.15625 10.195131,0 19.09883,5.845241 23.84375,14.53125 3.875812,0.284178 8.018705,1.517613 8.8125,5.875 0.01896,-0.321374 0.03347,-0.666038 0,-1 -0.793795,-4.357387 -4.936688,-5.590822 -8.8125,-5.875 -4.74492,-8.686009 -13.648619,-14.53125 -23.84375,-14.53125 z m 6.46875,12.96875 c -0.906891,0.119967 -2.731536,2.374182 -3.53125,3.40625 0.25479,-0.02929 0.518916,-0.0625 0.78125,-0.0625 0.03227,0 0.06159,-4.57e-4 0.09375,0 0.879821,-1.047063 2.000621,-2.257021 2.65625,-2.34375 0.07828,-0.01036 0.15592,0.0072 0.21875,0.03125 0.748606,0.28616 1.178441,2.382462 1.40625,3.96875 0.04026,0.03411 0.08549,0.05874 0.125,0.09375 -0.155385,-1.454604 -0.591449,-4.703254 -1.53125,-5.0625 -0.06283,-0.02402 -0.14047,-0.04161 -0.21875,-0.03125 z m -2.75,5.53125 c -2.676837,0 -4.84375,2.232175 -4.84375,5 0,0.162813 -0.01473,0.341134 0,0.5 0.249026,-2.527621 2.334215,-4.5 4.84375,-4.5 2.50953,0 4.565252,1.972379 4.8125,4.5 0.01463,-0.158899 0.03125,-0.337152 0.03125,-0.5 0,-2.767825 -2.166918,-5 -4.84375,-5 z m -18.3125,6.8125 c -0.0043,0.168052 -0.03125,0.330883 -0.03125,0.5 0,10.47814 8.209632,19 18.34375,19 10.134117,0 18.34375,-8.52186 18.34375,-19 0,-0.169117 -0.027,-0.331948 -0.03125,-0.5 -0.259291,10.244595 -8.341948,18.5 -18.3125,18.5 -9.970553,0 -18.053209,-8.255405 -18.3125,-18.5 z m 23.1875,3.28125 c -1.255194,1.284293 -2.969676,2.09375 -4.875,2.09375 -0.242026,0 -0.483093,-0.0063 -0.71875,-0.03125 0.01152,0.01496 0.642785,0.812585 0.8125,1.03125 1.868505,-0.02563 3.546483,-0.830357 4.78125,-2.09375 0.224484,1.110514 1.46571,7.326084 1.6875,9.75 0.39888,-0.390175 -1.414141,-9.397703 -1.6875,-10.75 z m -31.78125,21.28125 c -0.162271,7.533953 -4.385358,10.970572 -3.75,13.0625 0.539557,-2.286491 3.926833,-6.003938 3.75,-13.0625 z" />
            <path
               style="opacity:0;fill:#000000;fill-opacity:1"
               id="path4950"
               inkscape:connector-curvature="0"
               d="m 32.322226,2.705042 c -10.134118,0 -18.34375,8.490609 -18.34375,18.96875 0,0.169117 0.027,0.33194 0.03125,0.5 0.259291,-10.24409 8.341947,-18.46875 18.3125,-18.46875 9.970552,0 18.053209,8.22466 18.3125,18.46875 0.0043,-0.16806 0.03125,-0.330883 0.03125,-0.5 0,-10.478141 -8.209633,-18.96875 -18.34375,-18.96875 z m 0.09375,10.46875 c -0.337181,0.401275 -0.653432,0.776556 -0.875,1.0625 0.25479,-0.02929 0.518916,-0.0625 0.78125,-0.0625 1.725323,0 3.285151,0.673521 4.5,1.75 -0.03161,-0.295927 -0.06682,-0.68861 -0.125,-1.09375 -1.174594,-0.995088 -2.649732,-1.633085 -4.28125,-1.65625 z m 28.84375,5.21875 c -0.321647,4.061388 -4.492773,7.021217 -5.15625,7.46875 -0.579589,7.569721 -2.830875,14.175799 -7.8125,20.1875 -13.978074,16.868404 -31.156196,18.184824 -41.875,16.03125 -3.159879,-0.634868 -4.46077,-1.328954 -4.75,-2.28125 -0.362408,1.535785 0.574007,2.442229 4.75,3.28125 10.718804,2.153574 27.896926,0.837154 41.875,-16.03125 4.981625,-6.011701 7.232911,-12.617779 7.8125,-20.1875 0.716104,-0.483031 5.521254,-3.908726 5.15625,-8.46875 z m -33.78125,2.5 c -0.01461,0.158262 0,0.306573 0,0.46875 0,2.767825 2.166913,5.03125 4.84375,5.03125 2.676832,0 4.84375,-2.263425 4.84375,-5.03125 0,-0.162219 -0.01673,-0.310448 -0.03125,-0.46875 -0.247248,2.527621 -2.30297,4.5 -4.8125,4.5 -2.509535,0 -4.594724,-1.972379 -4.84375,-4.5 z m 4.125,7.625 c 0.09959,0.129321 6.8662,8.904478 7.28125,8.71875 0.08486,-0.03803 0.05123,-0.471357 0,-1.03125 -0.0043,0.0042 0.0049,0.02907 0,0.03125 -0.367051,0.164249 -5.17092,-6.015344 -6.46875,-7.6875 -0.03091,4.24e-4 -0.06274,0 -0.09375,0 -0.242026,0 -0.483093,-0.0063 -0.71875,-0.03125 z m -34.65625,4.03125 c -0.02643,0.553674 -0.0029,1.136319 0.09375,1.78125 0.63285,4.222837 4.522696,4.968259 6.8125,5.03125 0.20547,0.449266 0.398643,0.90776 0.625,1.34375 0.580335,2.138589 0.871893,4.029625 0.9375,5.75 0.01657,-1.966036 -0.243929,-4.194125 -0.9375,-6.75 -0.226357,-0.43599 -0.41953,-0.894484 -0.625,-1.34375 -2.289804,-0.06299 -6.17965,-0.808413 -6.8125,-5.03125 -0.04087,-0.272726 -0.07589,-0.525904 -0.09375,-0.78125 z" />
          </g>
          <path
             style="display:inline;opacity:0.45;fill:url(#radialGradient4102);fill-opacity:1;fill-rule:nonzero;stroke:none;stroke-width:1.10714269;stroke-linejoin:miter"
             d="m 99.109847,-17.756797 c -3.680143,0 -6.642857,2.962713 -6.642857,6.642855 V 5.4931973 h 1.107143 V -11.113942 c 0,-3.085935 2.449774,-5.535713 5.535714,-5.535713 h 79.714283 c 3.08594,0 5.53571,2.449778 5.53571,5.535713 V 5.4931973 h 1.10715 V -11.113942 c 0,-3.680142 -2.96272,-6.642855 -6.64286,-6.642855 z"
             id="path4236-5"
             inkscape:connector-curvature="0" />
          <rect
             transform="matrix(1.0692451,0,0,1.0476829,95.262211,18.309013)"
             style="opacity:0.5078125;fill:url(#linearGradient4767);fill-opacity:1;stroke:none;stroke-linejoin:miter"
             id="rect4146"
             width="75.965775"
             height="69.024437"
             x="2"
             y="-30"
             rx="3.9569874"
             ry="3.9569881"
             clip-path="url(#clipPath4156-4-1)" />
        </g>
      </g>
    </g>
  </g>
</svg>
